<?xml version="1.0" encoding="UTF-8" standalone="no"?>
<!DOCTYPE svg PUBLIC "-//W3C//DTD SVG 1.1//EN"
 "http://www.w3.org/Graphics/SVG/1.1/DTD/svg11.dtd">
<!-- Generated by graphviz version 2.44.0 ()
 -->
<!-- Title: MxLinearLayout Pages: 1 -->
<svg width="1021pt" height="172pt"
 viewBox="0.00 0.00 1021.00 171.50" xmlns="http://www.w3.org/2000/svg" xmlns:xlink="http://www.w3.org/1999/xlink">
<g id="graph0" class="graph" transform="scale(1 1) rotate(0) translate(4 167.5)">
<title>MxLinearLayout</title>
<!-- Node1 -->
<g id="node1" class="node">
<title>Node1</title>
<g id="a_node1"><a xlink:title="Vertical/Horizontal layout.">
<polygon fill="#bfbfbf" stroke="black" points="927,-78 927,-97 1013,-97 1013,-78 927,-78"/>
<text text-anchor="middle" x="970" y="-85" font-family="Helvetica,sans-Serif" font-size="10.00">MxLinearLayout</text>
</a>
</g>
</g>
<!-- Node2 -->
<g id="node2" class="node">
<title>Node2</title>
<g id="a_node2"><a xlink:href="class_mx_layout.html" target="_top" xlink:title="The MxLayout class is the base class for layout widgets.">
<polygon fill="none" stroke="black" points="831,-78 831,-97 890,-97 890,-78 831,-78"/>
<text text-anchor="middle" x="860.5" y="-85" font-family="Helvetica,sans-Serif" font-size="10.00">MxLayout</text>
</a>
</g>
</g>
<!-- Node2&#45;&gt;Node1 -->
<g id="edge1" class="edge">
<title>Node2&#45;&gt;Node1</title>
<path fill="none" stroke="midnightblue" d="M900.26,-87.5C908.93,-87.5 918.18,-87.5 926.98,-87.5"/>
<polygon fill="midnightblue" stroke="midnightblue" points="900.03,-84 890.03,-87.5 900.03,-91 900.03,-84"/>
</g>
<!-- Node3 -->
<g id="node3" class="node">
<title>Node3</title>
<g id="a_node3"><a xlink:href="class_mx_widget.html" target="_top" xlink:title=" ">
<polygon fill="none" stroke="black" points="633,-100 633,-119 692,-119 692,-100 633,-100"/>
<text text-anchor="middle" x="662.5" y="-107" font-family="Helvetica,sans-Serif" font-size="10.00">MxWidget</text>
</a>
</g>
</g>
<!-- Node3&#45;&gt;Node2 -->
<g id="edge2" class="edge">
<title>Node3&#45;&gt;Node2</title>
<path fill="none" stroke="midnightblue" d="M702.15,-105.16C740.07,-100.91 796.98,-94.52 830.97,-90.7"/>
<polygon fill="midnightblue" stroke="midnightblue" points="701.55,-101.71 692,-106.3 702.33,-108.66 701.55,-101.71"/>
</g>
<!-- Node3&#45;&gt;Node3 -->
<g id="edge6" class="edge">
<title>Node3&#45;&gt;Node3</title>
<path fill="none" stroke="#9a32cd" stroke-dasharray="5,2" d="M639.43,-128.53C640.69,-133.63 648.38,-137.5 662.5,-137.5 684.54,-137.5 690.91,-128.07 681.61,-119.26"/>
<polygon fill="#9a32cd" stroke="#9a32cd" points="642.69,-129.83 643.39,-119.26 636.25,-127.08 642.69,-129.83"/>
<text text-anchor="middle" x="662.5" y="-140.5" font-family="Helvetica,sans-Serif" font-size="10.00"> pParent</text>
</g>
<!-- Node4 -->
<g id="node4" class="node">
<title>Node4</title>
<g id="a_node4"><a xlink:href="class_mx_ui_settings.html" target="_top" xlink:title=" ">
<polygon fill="none" stroke="black" points="322,-144 322,-163 397,-163 397,-144 322,-144"/>
<text text-anchor="middle" x="359.5" y="-151" font-family="Helvetica,sans-Serif" font-size="10.00">MxUiSettings</text>
</a>
</g>
</g>
<!-- Node4&#45;&gt;Node3 -->
<g id="edge3" class="edge">
<title>Node4&#45;&gt;Node3</title>
<path fill="none" stroke="#9a32cd" stroke-dasharray="5,2" d="M407.12,-149.98C448.5,-146.5 510.52,-140.39 564,-131.5 587.28,-127.63 613.34,-121.66 632.66,-116.92"/>
<polygon fill="#9a32cd" stroke="#9a32cd" points="406.74,-146.5 397.06,-150.81 407.32,-153.48 406.74,-146.5"/>
<text text-anchor="middle" x="497.5" y="-150.5" font-family="Helvetica,sans-Serif" font-size="10.00"> sUiSettings</text>
</g>
<!-- Node5 -->
<g id="node5" class="node">
<title>Node5</title>
<g id="a_node5"><a xlink:href="class_mx_vector.html" target="_top" xlink:title=" ">
<polygon fill="none" stroke="black" points="308,-99 308,-118 411,-118 411,-99 308,-99"/>
<text text-anchor="middle" x="359.5" y="-106" font-family="Helvetica,sans-Serif" font-size="10.00">MxVector&lt; 2, float &gt;</text>
</a>
</g>
</g>
<!-- Node5&#45;&gt;Node3 -->
<g id="edge4" class="edge">
<title>Node5&#45;&gt;Node3</title>
<path fill="none" stroke="#9a32cd" stroke-dasharray="5,2" d="M421.24,-108.7C485.61,-108.92 584.5,-109.24 632.87,-109.4"/>
<polygon fill="#9a32cd" stroke="#9a32cd" points="421.23,-105.2 411.22,-108.67 421.21,-112.2 421.23,-105.2"/>
<text text-anchor="middle" x="497.5" y="-122.5" font-family="Helvetica,sans-Serif" font-size="10.00"> pPos</text>
<text text-anchor="middle" x="497.5" y="-111.5" font-family="Helvetica,sans-Serif" font-size="10.00">pSize</text>
</g>
<!-- Node6 -->
<g id="node6" class="node">
<title>Node6</title>
<g id="a_node6"><a xlink:href="class_mx_vector.html" target="_top" xlink:title=" ">
<polygon fill="none" stroke="black" points="122,-99 122,-118 215,-118 215,-99 122,-99"/>
<text text-anchor="middle" x="168.5" y="-106" font-family="Helvetica,sans-Serif" font-size="10.00">MxVector&lt; N, T &gt;</text>
</a>
</g>
</g>
<!-- Node6&#45;&gt;Node5 -->
<g id="edge5" class="edge">
<title>Node6&#45;&gt;Node5</title>
<path fill="none" stroke="orange" stroke-dasharray="5,2" d="M225.38,-108.5C251.52,-108.5 282.41,-108.5 307.85,-108.5"/>
<polygon fill="orange" stroke="orange" points="225.25,-105 215.25,-108.5 225.25,-112 225.25,-105"/>
<text text-anchor="middle" x="264" y="-111.5" font-family="Helvetica,sans-Serif" font-size="10.00"> &lt; 2, float &gt;</text>
</g>
<!-- Node7 -->
<g id="node7" class="node">
<title>Node7</title>
<g id="a_node7"><a xlink:href="class_mx_list.html" target="_top" xlink:title=" ">
<polygon fill="none" stroke="black" points="582,-50.5 582,-80.5 743,-80.5 743,-50.5 582,-50.5"/>
<text text-anchor="start" x="590" y="-68.5" font-family="Helvetica,sans-Serif" font-size="10.00">MxList&lt; MxWidget *,</text>
<text text-anchor="middle" x="662.5" y="-57.5" font-family="Helvetica,sans-Serif" font-size="10.00"> MxPodInitializer&lt; MxWidget * &gt; &gt;</text>
</a>
</g>
</g>
<!-- Node7&#45;&gt;Node2 -->
<g id="edge7" class="edge">
<title>Node7&#45;&gt;Node2</title>
<path fill="none" stroke="#9a32cd" stroke-dasharray="5,2" d="M753.43,-70.79C773.12,-72.48 793.8,-74.68 813,-77.5 818.72,-78.34 824.79,-79.47 830.59,-80.67"/>
<polygon fill="#9a32cd" stroke="#9a32cd" points="753.5,-67.28 743.25,-69.95 752.92,-74.26 753.5,-67.28"/>
<text text-anchor="middle" x="787" y="-80.5" font-family="Helvetica,sans-Serif" font-size="10.00"> pChildsList</text>
</g>
<!-- Node8 -->
<g id="node8" class="node">
<title>Node8</title>
<g id="a_node8"><a xlink:href="struct_mx_list_1_1_data.html" target="_top" xlink:title="these members are public to allow unions">
<polygon fill="none" stroke="black" points="115,-31.5 115,-61.5 222,-61.5 222,-31.5 115,-31.5"/>
<text text-anchor="start" x="123" y="-49.5" font-family="Helvetica,sans-Serif" font-size="10.00">MxList&lt; T, Initializer,</text>
<text text-anchor="middle" x="168.5" y="-38.5" font-family="Helvetica,sans-Serif" font-size="10.00"> Prealloc &gt;::Data</text>
</a>
</g>
</g>
<!-- Node8&#45;&gt;Node7 -->
<g id="edge8" class="edge">
<title>Node8&#45;&gt;Node7</title>
<path fill="none" stroke="#9a32cd" stroke-dasharray="5,2" d="M232.32,-50.13C234.91,-50.26 237.48,-50.38 240,-50.5 359.04,-55.99 497.08,-60.57 581.85,-63.17"/>
<polygon fill="#9a32cd" stroke="#9a32cd" points="232.4,-46.63 222.23,-49.61 232.04,-53.62 232.4,-46.63"/>
<text text-anchor="middle" x="359.5" y="-60.5" font-family="Helvetica,sans-Serif" font-size="10.00"> d</text>
</g>
<!-- Node10 -->
<g id="node10" class="node">
<title>Node10</title>
<g id="a_node10"><a xlink:href="class_mx_list.html" target="_top" xlink:title=" ">
<polygon fill="none" stroke="black" points="306,-0.5 306,-30.5 413,-30.5 413,-0.5 306,-0.5"/>
<text text-anchor="start" x="314" y="-18.5" font-family="Helvetica,sans-Serif" font-size="10.00">MxList&lt; T, Initializer,</text>
<text text-anchor="middle" x="359.5" y="-7.5" font-family="Helvetica,sans-Serif" font-size="10.00"> Prealloc &gt;</text>
</a>
</g>
</g>
<!-- Node8&#45;&gt;Node10 -->
<g id="edge11" class="edge">
<title>Node8&#45;&gt;Node10</title>
<path fill="none" stroke="#9a32cd" stroke-dasharray="5,2" d="M232.17,-36.22C256.03,-32.31 282.96,-27.89 305.81,-24.14"/>
<polygon fill="#9a32cd" stroke="#9a32cd" points="231.45,-32.79 222.15,-37.86 232.58,-39.7 231.45,-32.79"/>
<text text-anchor="middle" x="264" y="-38.5" font-family="Helvetica,sans-Serif" font-size="10.00"> d</text>
</g>
<!-- Node9 -->
<g id="node9" class="node">
<title>Node9</title>
<g id="a_node9"><a xlink:href="class_mx_ref_counter.html" target="_top" xlink:title=" ">
<polygon fill="none" stroke="black" points="0,-37 0,-56 78,-56 78,-37 0,-37"/>
<text text-anchor="middle" x="39" y="-44" font-family="Helvetica,sans-Serif" font-size="10.00">MxRefCounter</text>
</a>
</g>
</g>
<!-- Node9&#45;&gt;Node8 -->
<g id="edge9" class="edge">
<title>Node9&#45;&gt;Node8</title>
<path fill="none" stroke="midnightblue" d="M88.46,-46.5C97.03,-46.5 105.98,-46.5 114.66,-46.5"/>
<polygon fill="midnightblue" stroke="midnightblue" points="88.25,-43 78.25,-46.5 88.25,-50 88.25,-43"/>
</g>
<!-- Node10&#45;&gt;Node7 -->
<g id="edge10" class="edge">
<title>Node10&#45;&gt;Node7</title>
<path fill="none" stroke="orange" stroke-dasharray="5,2" d="M423.32,-16.28C463.84,-17.81 517.48,-21.73 564,-31.5 584.88,-35.88 607.41,-43.54 625.55,-50.48"/>
<polygon fill="orange" stroke="orange" points="423.42,-12.79 413.31,-15.95 423.18,-19.78 423.42,-12.79"/>
<text text-anchor="start" x="431" y="-45.5" font-family="Helvetica,sans-Serif" font-size="10.00"> &lt; MxWidget *, MxPodInitializer</text>
<text text-anchor="middle" x="497.5" y="-34.5" font-family="Helvetica,sans-Serif" font-size="10.00">&lt; MxWidget * &gt; &gt;</text>
</g>
</g>
</svg>
