<?xml version="1.0" encoding="UTF-8" standalone="no"?>
<!DOCTYPE svg PUBLIC "-//W3C//DTD SVG 1.1//EN"
 "http://www.w3.org/Graphics/SVG/1.1/DTD/svg11.dtd">
<!-- Generated by graphviz version 2.44.0 ()
 -->
<!-- Title: MxRenderer Pages: 1 -->
<svg width="763pt" height="126pt"
 viewBox="0.00 0.00 763.00 126.00" xmlns="http://www.w3.org/2000/svg" xmlns:xlink="http://www.w3.org/1999/xlink">
<g id="graph0" class="graph" transform="scale(1 1) rotate(0) translate(4 122)">
<title>MxRenderer</title>
<!-- Node1 -->
<g id="node1" class="node">
<title>Node1</title>
<g id="a_node1"><a xlink:title=" ">
<polygon fill="#bfbfbf" stroke="black" points="354,-49.5 354,-68.5 422,-68.5 422,-49.5 354,-49.5"/>
<text text-anchor="middle" x="388" y="-56.5" font-family="Helvetica,sans-Serif" font-size="10.00">MxRenderer</text>
</a>
</g>
</g>
<!-- Node4 -->
<g id="node4" class="node">
<title>Node4</title>
<g id="a_node4"><a xlink:href="class_mx_shader_program.html" target="_top" xlink:title=" ">
<polygon fill="none" stroke="black" points="505,-49.5 505,-68.5 602,-68.5 602,-49.5 505,-49.5"/>
<text text-anchor="middle" x="553.5" y="-56.5" font-family="Helvetica,sans-Serif" font-size="10.00">MxShaderProgram</text>
</a>
</g>
</g>
<!-- Node1&#45;&gt;Node4 -->
<g id="edge4" class="edge">
<title>Node1&#45;&gt;Node4</title>
<path fill="none" stroke="#9a32cd" stroke-dasharray="5,2" d="M432.29,-59C454.64,-59 481.96,-59 504.9,-59"/>
<polygon fill="#9a32cd" stroke="#9a32cd" points="432.09,-55.5 422.09,-59 432.09,-62.5 432.09,-55.5"/>
<text text-anchor="middle" x="463.5" y="-62" font-family="Helvetica,sans-Serif" font-size="10.00"> pRenderer</text>
</g>
<!-- Node2 -->
<g id="node2" class="node">
<title>Node2</title>
<g id="a_node2"><a xlink:title=" ">
<polygon fill="none" stroke="#bfbfbf" points="151,-98.5 151,-117.5 260,-117.5 260,-98.5 151,-98.5"/>
<text text-anchor="middle" x="205.5" y="-105.5" font-family="Helvetica,sans-Serif" font-size="10.00">MxOpenGLFunctions</text>
</a>
</g>
</g>
<!-- Node2&#45;&gt;Node1 -->
<g id="edge1" class="edge">
<title>Node2&#45;&gt;Node1</title>
<path fill="none" stroke="midnightblue" d="M253.77,-95.94C278.35,-89.59 308.84,-81.56 336,-74 342.22,-72.27 348.86,-70.36 355.21,-68.51"/>
<polygon fill="midnightblue" stroke="midnightblue" points="252.79,-92.58 243.98,-98.47 254.54,-99.36 252.79,-92.58"/>
</g>
<!-- Node3 -->
<g id="node3" class="node">
<title>Node3</title>
<g id="a_node3"><a xlink:href="class_mx_vector_program.html" target="_top" xlink:title=" ">
<polygon fill="none" stroke="black" points="649.5,-76.5 649.5,-95.5 744.5,-95.5 744.5,-76.5 649.5,-76.5"/>
<text text-anchor="middle" x="697" y="-83.5" font-family="Helvetica,sans-Serif" font-size="10.00">MxVectorProgram</text>
</a>
</g>
</g>
<!-- Node3&#45;&gt;Node1 -->
<g id="edge2" class="edge">
<title>Node3&#45;&gt;Node1</title>
<path fill="none" stroke="#9a32cd" stroke-dasharray="5,2" d="M639.3,-87.44C587.12,-87.8 507.79,-85.9 440,-74 432.55,-72.69 424.63,-70.68 417.32,-68.56"/>
<polygon fill="#9a32cd" stroke="#9a32cd" points="639.4,-90.94 649.36,-87.34 639.33,-83.94 639.4,-90.94"/>
<text text-anchor="middle" x="553.5" y="-90" font-family="Helvetica,sans-Serif" font-size="10.00"> pVectorProgram</text>
</g>
<!-- Node4&#45;&gt;Node3 -->
<g id="edge3" class="edge">
<title>Node4&#45;&gt;Node3</title>
<path fill="none" stroke="midnightblue" d="M611.85,-69.94C624.31,-72.32 637.35,-74.81 649.34,-77.1"/>
<polygon fill="midnightblue" stroke="midnightblue" points="612.49,-66.5 602.01,-68.07 611.18,-73.38 612.49,-66.5"/>
</g>
<!-- Node5 -->
<g id="node5" class="node">
<title>Node5</title>
<g id="a_node5"><a xlink:href="class_mx_color_wheel_program.html" target="_top" xlink:title=" ">
<polygon fill="none" stroke="black" points="639,-32.5 639,-51.5 755,-51.5 755,-32.5 639,-32.5"/>
<text text-anchor="middle" x="697" y="-39.5" font-family="Helvetica,sans-Serif" font-size="10.00">MxColorWheelProgram</text>
</a>
</g>
</g>
<!-- Node4&#45;&gt;Node5 -->
<g id="edge6" class="edge">
<title>Node4&#45;&gt;Node5</title>
<path fill="none" stroke="midnightblue" d="M612.1,-52.08C620.82,-51.03 629.83,-49.95 638.55,-48.9"/>
<polygon fill="midnightblue" stroke="midnightblue" points="611.52,-48.62 602.01,-53.29 612.36,-55.57 611.52,-48.62"/>
</g>
<!-- Node5&#45;&gt;Node1 -->
<g id="edge5" class="edge">
<title>Node5&#45;&gt;Node1</title>
<path fill="none" stroke="#9a32cd" stroke-dasharray="5,2" d="M628.87,-31.57C619.86,-30.51 610.72,-29.6 602,-29 558.99,-26.04 547.77,-23.56 505,-29 474.67,-32.86 440.92,-42.18 417.68,-49.41"/>
<polygon fill="#9a32cd" stroke="#9a32cd" points="628.61,-35.07 638.96,-32.83 629.48,-28.12 628.61,-35.07"/>
<text text-anchor="middle" x="553.5" y="-32" font-family="Helvetica,sans-Serif" font-size="10.00"> pColorWheelEffect</text>
</g>
<!-- Node6 -->
<g id="node6" class="node">
<title>Node6</title>
<g id="a_node6"><a xlink:href="class_mx_list.html" target="_top" xlink:title=" ">
<polygon fill="none" stroke="black" points="155,-38.5 155,-79.5 256,-79.5 256,-38.5 155,-38.5"/>
<text text-anchor="start" x="163" y="-67.5" font-family="Helvetica,sans-Serif" font-size="10.00">MxList&lt; GpuBuffer,</text>
<text text-anchor="start" x="163" y="-56.5" font-family="Helvetica,sans-Serif" font-size="10.00"> MxClassInitializer</text>
<text text-anchor="middle" x="205.5" y="-45.5" font-family="Helvetica,sans-Serif" font-size="10.00">&lt; GpuBuffer &gt; &gt;</text>
</a>
</g>
</g>
<!-- Node6&#45;&gt;Node1 -->
<g id="edge7" class="edge">
<title>Node6&#45;&gt;Node1</title>
<path fill="none" stroke="#9a32cd" stroke-dasharray="5,2" d="M266.39,-59C295.53,-59 329.45,-59 353.89,-59"/>
<polygon fill="#9a32cd" stroke="#9a32cd" points="266.3,-55.5 256.3,-59 266.3,-62.5 266.3,-55.5"/>
<text text-anchor="middle" x="307" y="-62" font-family="Helvetica,sans-Serif" font-size="10.00"> pVboList</text>
</g>
<!-- Node7 -->
<g id="node7" class="node">
<title>Node7</title>
<g id="a_node7"><a xlink:href="struct_mx_list_1_1_data.html" target="_top" xlink:title="these members are public to allow unions">
<polygon fill="none" stroke="black" points="0,-44 0,-74 107,-74 107,-44 0,-44"/>
<text text-anchor="start" x="8" y="-62" font-family="Helvetica,sans-Serif" font-size="10.00">MxList&lt; T, Initializer,</text>
<text text-anchor="middle" x="53.5" y="-51" font-family="Helvetica,sans-Serif" font-size="10.00"> Prealloc &gt;::Data</text>
</a>
</g>
</g>
<!-- Node7&#45;&gt;Node6 -->
<g id="edge8" class="edge">
<title>Node7&#45;&gt;Node6</title>
<path fill="none" stroke="#9a32cd" stroke-dasharray="5,2" d="M117.68,-59C130.1,-59 142.96,-59 154.86,-59"/>
<polygon fill="#9a32cd" stroke="#9a32cd" points="117.38,-55.5 107.38,-59 117.38,-62.5 117.38,-55.5"/>
<text text-anchor="middle" x="129" y="-62" font-family="Helvetica,sans-Serif" font-size="10.00"> d</text>
</g>
<!-- Node8 -->
<g id="node8" class="node">
<title>Node8</title>
<g id="a_node8"><a xlink:href="class_mx_vector.html" target="_top" xlink:title=" ">
<polygon fill="none" stroke="black" points="158,-0.5 158,-19.5 253,-19.5 253,-0.5 158,-0.5"/>
<text text-anchor="middle" x="205.5" y="-7.5" font-family="Helvetica,sans-Serif" font-size="10.00">MxVector&lt; 2, int &gt;</text>
</a>
</g>
</g>
<!-- Node8&#45;&gt;Node1 -->
<g id="edge9" class="edge">
<title>Node8&#45;&gt;Node1</title>
<path fill="none" stroke="#9a32cd" stroke-dasharray="5,2" d="M253.77,-22.06C278.35,-28.41 308.84,-36.44 336,-44 342.22,-45.73 348.86,-47.64 355.21,-49.49"/>
<polygon fill="#9a32cd" stroke="#9a32cd" points="254.54,-18.64 243.98,-19.53 252.79,-25.42 254.54,-18.64"/>
<text text-anchor="middle" x="307" y="-47" font-family="Helvetica,sans-Serif" font-size="10.00"> pScreenSize</text>
</g>
</g>
</svg>
