<?xml version="1.0" encoding="UTF-8" standalone="no"?>
<!DOCTYPE svg PUBLIC "-//W3C//DTD SVG 1.1//EN"
 "http://www.w3.org/Graphics/SVG/1.1/DTD/svg11.dtd">
<!-- Generated by graphviz version 2.44.0 ()
 -->
<!-- Title: MxIconDraw Pages: 1 -->
<svg width="174pt" height="95pt"
 viewBox="0.00 0.00 174.00 95.00" xmlns="http://www.w3.org/2000/svg" xmlns:xlink="http://www.w3.org/1999/xlink">
<g id="graph0" class="graph" transform="scale(1 1) rotate(0) translate(4 91)">
<title>MxIconDraw</title>
<!-- Node1 -->
<g id="node1" class="node">
<title>Node1</title>
<g id="a_node1"><a xlink:title="The MxIconDraw class draws icons from a atlas.">
<polygon fill="#bfbfbf" stroke="black" points="57,-0.5 57,-19.5 128,-19.5 128,-0.5 57,-0.5"/>
<text text-anchor="middle" x="92.5" y="-7.5" font-family="Helvetica,sans-Serif" font-size="10.00">MxIconDraw</text>
</a>
</g>
</g>
<!-- Node2 -->
<g id="node2" class="node">
<title>Node2</title>
<g id="a_node2"><a xlink:href="class_mx_vector.html" target="_top" xlink:title=" ">
<polygon fill="none" stroke="black" points="0,-67.5 0,-86.5 93,-86.5 93,-67.5 0,-67.5"/>
<text text-anchor="middle" x="46.5" y="-74.5" font-family="Helvetica,sans-Serif" font-size="10.00">MxVector&lt; N, T &gt;</text>
</a>
</g>
</g>
<!-- Node2&#45;&gt;Node1 -->
<g id="edge1" class="edge">
<title>Node2&#45;&gt;Node1</title>
<path fill="none" stroke="#9a32cd" stroke-dasharray="5,2" d="M51.27,-57.27C53.45,-50.81 56.47,-43.75 60.5,-38 65.51,-30.86 72.85,-24.48 79.24,-19.72"/>
<polygon fill="#9a32cd" stroke="#9a32cd" points="47.8,-56.67 48.36,-67.25 54.52,-58.63 47.8,-56.67"/>
<text text-anchor="middle" x="88.5" y="-41" font-family="Helvetica,sans-Serif" font-size="10.00"> pTranslation</text>
</g>
<!-- Node3 -->
<g id="node3" class="node">
<title>Node3</title>
<g id="a_node3"><a xlink:href="class_mx_buffer.html" target="_top" xlink:title=" ">
<polygon fill="none" stroke="black" points="111,-67.5 111,-86.5 166,-86.5 166,-67.5 111,-67.5"/>
<text text-anchor="middle" x="138.5" y="-74.5" font-family="Helvetica,sans-Serif" font-size="10.00">MxBuffer</text>
</a>
</g>
</g>
<!-- Node3&#45;&gt;Node1 -->
<g id="edge2" class="edge">
<title>Node3&#45;&gt;Node1</title>
<path fill="none" stroke="#9a32cd" stroke-dasharray="5,2" d="M129.3,-58.41C125.6,-51.83 121.12,-44.39 116.5,-38 111.8,-31.49 105.8,-24.74 100.97,-19.62"/>
<polygon fill="#9a32cd" stroke="#9a32cd" points="126.24,-60.12 134.08,-67.24 132.39,-56.78 126.24,-60.12"/>
<text text-anchor="middle" x="138" y="-41" font-family="Helvetica,sans-Serif" font-size="10.00"> pArray</text>
</g>
</g>
</svg>
