<?xml version="1.0" encoding="UTF-8" standalone="no"?>
<!DOCTYPE svg PUBLIC "-//W3C//DTD SVG 1.1//EN"
 "http://www.w3.org/Graphics/SVG/1.1/DTD/svg11.dtd">
<!-- Generated by graphviz version 2.44.0 ()
 -->
<!-- Title: MxMouseEvent Pages: 1 -->
<svg width="264pt" height="253pt"
 viewBox="0.00 0.00 264.00 253.00" xmlns="http://www.w3.org/2000/svg" xmlns:xlink="http://www.w3.org/1999/xlink">
<g id="graph0" class="graph" transform="scale(1 1) rotate(0) translate(4 249)">
<title>MxMouseEvent</title>
<!-- Node1 -->
<g id="node1" class="node">
<title>Node1</title>
<g id="a_node1"><a xlink:title=" ">
<polygon fill="#bfbfbf" stroke="black" points="10,-0.5 10,-19.5 93,-19.5 93,-0.5 10,-0.5"/>
<text text-anchor="middle" x="51.5" y="-7.5" font-family="Helvetica,sans-Serif" font-size="10.00">MxMouseEvent</text>
</a>
</g>
</g>
<!-- Node2 -->
<g id="node2" class="node">
<title>Node2</title>
<g id="a_node2"><a xlink:href="class_mx_vector.html" target="_top" xlink:title=" ">
<polygon fill="none" stroke="black" points="0,-158.5 0,-177.5 103,-177.5 103,-158.5 0,-158.5"/>
<text text-anchor="middle" x="51.5" y="-165.5" font-family="Helvetica,sans-Serif" font-size="10.00">MxVector&lt; 2, float &gt;</text>
</a>
</g>
</g>
<!-- Node2&#45;&gt;Node1 -->
<g id="edge1" class="edge">
<title>Node2&#45;&gt;Node1</title>
<path fill="none" stroke="#9a32cd" stroke-dasharray="5,2" d="M49.13,-148.49C46.86,-128.42 43.98,-95.44 45.5,-67 46.4,-50.21 48.8,-30.7 50.28,-19.71"/>
<polygon fill="#9a32cd" stroke="#9a32cd" points="45.66,-148.93 50.33,-158.44 52.61,-148.09 45.66,-148.93"/>
<text text-anchor="middle" x="89.5" y="-92" font-family="Helvetica,sans-Serif" font-size="10.00"> pGlobalPos</text>
<text text-anchor="middle" x="89.5" y="-81" font-family="Helvetica,sans-Serif" font-size="10.00">pMousePressedPos</text>
<text text-anchor="middle" x="89.5" y="-70" font-family="Helvetica,sans-Serif" font-size="10.00">pPos</text>
</g>
<!-- Node4 -->
<g id="node4" class="node">
<title>Node4</title>
<g id="a_node4"><a xlink:href="class_mx_widget.html" target="_top" xlink:title=" ">
<polygon fill="none" stroke="black" points="142,-74 142,-93 201,-93 201,-74 142,-74"/>
<text text-anchor="middle" x="171.5" y="-81" font-family="Helvetica,sans-Serif" font-size="10.00">MxWidget</text>
</a>
</g>
</g>
<!-- Node2&#45;&gt;Node4 -->
<g id="edge4" class="edge">
<title>Node2&#45;&gt;Node4</title>
<path fill="none" stroke="#9a32cd" stroke-dasharray="5,2" d="M72.3,-152.7C97.3,-135.51 138.44,-107.23 159,-93.1"/>
<polygon fill="#9a32cd" stroke="#9a32cd" points="70.15,-149.93 63.89,-158.48 74.11,-155.7 70.15,-149.93"/>
<text text-anchor="middle" x="134" y="-132" font-family="Helvetica,sans-Serif" font-size="10.00"> pPos</text>
<text text-anchor="middle" x="134" y="-121" font-family="Helvetica,sans-Serif" font-size="10.00">pSize</text>
</g>
<!-- Node3 -->
<g id="node3" class="node">
<title>Node3</title>
<g id="a_node3"><a xlink:href="class_mx_vector.html" target="_top" xlink:title=" ">
<polygon fill="none" stroke="black" points="5,-225.5 5,-244.5 98,-244.5 98,-225.5 5,-225.5"/>
<text text-anchor="middle" x="51.5" y="-232.5" font-family="Helvetica,sans-Serif" font-size="10.00">MxVector&lt; N, T &gt;</text>
</a>
</g>
</g>
<!-- Node3&#45;&gt;Node2 -->
<g id="edge2" class="edge">
<title>Node3&#45;&gt;Node2</title>
<path fill="none" stroke="orange" stroke-dasharray="5,2" d="M51.5,-215.04C51.5,-202.67 51.5,-187.12 51.5,-177.63"/>
<polygon fill="orange" stroke="orange" points="48,-215.23 51.5,-225.23 55,-215.23 48,-215.23"/>
<text text-anchor="middle" x="75.5" y="-199" font-family="Helvetica,sans-Serif" font-size="10.00"> &lt; 2, float &gt;</text>
</g>
<!-- Node4&#45;&gt;Node1 -->
<g id="edge3" class="edge">
<title>Node4&#45;&gt;Node1</title>
<path fill="none" stroke="#9a32cd" stroke-dasharray="5,2" d="M148.15,-68.59C123.79,-54.07 86.35,-31.77 65.96,-19.62"/>
<polygon fill="#9a32cd" stroke="#9a32cd" points="146.4,-71.62 156.79,-73.73 149.99,-65.61 146.4,-71.62"/>
<text text-anchor="middle" x="149" y="-41" font-family="Helvetica,sans-Serif" font-size="10.00"> pAcceptedItem</text>
</g>
<!-- Node4&#45;&gt;Node4 -->
<g id="edge5" class="edge">
<title>Node4&#45;&gt;Node4</title>
<path fill="none" stroke="#9a32cd" stroke-dasharray="5,2" d="M211.17,-89.95C215.91,-88.77 219,-86.62 219,-83.5 219,-78.5 211.08,-76 201.19,-76"/>
<polygon fill="#9a32cd" stroke="#9a32cd" points="210.76,-86.47 201.19,-91 211.5,-93.43 210.76,-86.47"/>
<text text-anchor="middle" x="237.5" y="-81" font-family="Helvetica,sans-Serif" font-size="10.00"> pParent</text>
</g>
</g>
</svg>
