<?xml version="1.0" encoding="UTF-8" standalone="no"?>
<!DOCTYPE svg PUBLIC "-//W3C//DTD SVG 1.1//EN"
 "http://www.w3.org/Graphics/SVG/1.1/DTD/svg11.dtd">
<!-- Generated by graphviz version 2.44.0 ()
 -->
<!-- Title: MxShaderProgram Pages: 1 -->
<svg width="461pt" height="249pt"
 viewBox="0.00 0.00 461.00 249.00" xmlns="http://www.w3.org/2000/svg" xmlns:xlink="http://www.w3.org/1999/xlink">
<g id="graph0" class="graph" transform="scale(1 1) rotate(0) translate(4 245)">
<title>MxShaderProgram</title>
<!-- Node1 -->
<g id="node1" class="node">
<title>Node1</title>
<g id="a_node1"><a xlink:title=" ">
<polygon fill="#bfbfbf" stroke="black" points="5,-183.5 5,-202.5 102,-202.5 102,-183.5 5,-183.5"/>
<text text-anchor="middle" x="53.5" y="-190.5" font-family="Helvetica,sans-Serif" font-size="10.00">MxShaderProgram</text>
</a>
</g>
</g>
<!-- Node4 -->
<g id="node4" class="node">
<title>Node4</title>
<g id="a_node4"><a xlink:href="class_mx_vector_program.html" target="_top" xlink:title=" ">
<polygon fill="none" stroke="black" points="161.5,-221.5 161.5,-240.5 256.5,-240.5 256.5,-221.5 161.5,-221.5"/>
<text text-anchor="middle" x="209" y="-228.5" font-family="Helvetica,sans-Serif" font-size="10.00">MxVectorProgram</text>
</a>
</g>
</g>
<!-- Node1&#45;&gt;Node4 -->
<g id="edge4" class="edge">
<title>Node1&#45;&gt;Node4</title>
<path fill="none" stroke="midnightblue" d="M103.14,-205.04C124.58,-210.35 149.42,-216.5 169.54,-221.48"/>
<polygon fill="midnightblue" stroke="midnightblue" points="103.78,-201.59 93.23,-202.59 102.1,-208.39 103.78,-201.59"/>
</g>
<!-- Node5 -->
<g id="node5" class="node">
<title>Node5</title>
<g id="a_node5"><a xlink:href="class_mx_color_wheel_program.html" target="_top" xlink:title=" ">
<polygon fill="none" stroke="black" points="151,-183.5 151,-202.5 267,-202.5 267,-183.5 151,-183.5"/>
<text text-anchor="middle" x="209" y="-190.5" font-family="Helvetica,sans-Serif" font-size="10.00">MxColorWheelProgram</text>
</a>
</g>
</g>
<!-- Node1&#45;&gt;Node5 -->
<g id="edge6" class="edge">
<title>Node1&#45;&gt;Node5</title>
<path fill="none" stroke="midnightblue" d="M112.56,-193C125.11,-193 138.36,-193 150.87,-193"/>
<polygon fill="midnightblue" stroke="midnightblue" points="112.23,-189.5 102.23,-193 112.23,-196.5 112.23,-189.5"/>
</g>
<!-- Node2 -->
<g id="node2" class="node">
<title>Node2</title>
<g id="a_node2"><a xlink:href="class_mx_renderer.html" target="_top" xlink:title=" ">
<polygon fill="none" stroke="black" points="385,-121.5 385,-140.5 453,-140.5 453,-121.5 385,-121.5"/>
<text text-anchor="middle" x="419" y="-128.5" font-family="Helvetica,sans-Serif" font-size="10.00">MxRenderer</text>
</a>
</g>
</g>
<!-- Node2&#45;&gt;Node1 -->
<g id="edge1" class="edge">
<title>Node2&#45;&gt;Node1</title>
<path fill="none" stroke="#9a32cd" stroke-dasharray="5,2" d="M374.71,-133.75C321.57,-137.69 228.9,-146.37 151,-163 126.81,-168.17 99.99,-176.74 80.78,-183.4"/>
<polygon fill="#9a32cd" stroke="#9a32cd" points="375.08,-137.24 384.8,-133.03 374.57,-130.25 375.08,-137.24"/>
<text text-anchor="middle" x="209" y="-166" font-family="Helvetica,sans-Serif" font-size="10.00"> pRenderer</text>
</g>
<!-- Node3 -->
<g id="node3" class="node">
<title>Node3</title>
<g id="a_node3"><a xlink:title=" ">
<polygon fill="none" stroke="#bfbfbf" points="154.5,-98.5 154.5,-117.5 263.5,-117.5 263.5,-98.5 154.5,-98.5"/>
<text text-anchor="middle" x="209" y="-105.5" font-family="Helvetica,sans-Serif" font-size="10.00">MxOpenGLFunctions</text>
</a>
</g>
</g>
<!-- Node3&#45;&gt;Node2 -->
<g id="edge2" class="edge">
<title>Node3&#45;&gt;Node2</title>
<path fill="none" stroke="midnightblue" d="M273.68,-115.04C310.36,-119.1 354.95,-124.03 384.77,-127.33"/>
<polygon fill="midnightblue" stroke="midnightblue" points="273.89,-111.54 263.57,-113.92 273.12,-118.5 273.89,-111.54"/>
</g>
<!-- Node4&#45;&gt;Node2 -->
<g id="edge3" class="edge">
<title>Node4&#45;&gt;Node2</title>
<path fill="none" stroke="#9a32cd" stroke-dasharray="5,2" d="M266.6,-230.71C298.26,-228.17 337.22,-220.89 367,-202 390.84,-186.88 406.96,-156.25 413.99,-140.63"/>
<polygon fill="#9a32cd" stroke="#9a32cd" points="266.35,-227.22 256.6,-231.37 266.81,-234.2 266.35,-227.22"/>
<text text-anchor="middle" x="326" y="-231" font-family="Helvetica,sans-Serif" font-size="10.00"> pVectorProgram</text>
</g>
<!-- Node5&#45;&gt;Node2 -->
<g id="edge5" class="edge">
<title>Node5&#45;&gt;Node2</title>
<path fill="none" stroke="#9a32cd" stroke-dasharray="5,2" d="M277.59,-189.22C306.02,-185.87 338.95,-179.62 367,-168 382.77,-161.47 398.25,-149.16 407.95,-140.54"/>
<polygon fill="#9a32cd" stroke="#9a32cd" points="276.9,-185.77 267.33,-190.33 277.65,-192.73 276.9,-185.77"/>
<text text-anchor="middle" x="326" y="-190" font-family="Helvetica,sans-Serif" font-size="10.00"> pColorWheelEffect</text>
</g>
<!-- Node6 -->
<g id="node6" class="node">
<title>Node6</title>
<g id="a_node6"><a xlink:href="class_mx_list.html" target="_top" xlink:title=" ">
<polygon fill="none" stroke="black" points="158.5,-38.5 158.5,-79.5 259.5,-79.5 259.5,-38.5 158.5,-38.5"/>
<text text-anchor="start" x="166.5" y="-67.5" font-family="Helvetica,sans-Serif" font-size="10.00">MxList&lt; GpuBuffer,</text>
<text text-anchor="start" x="166.5" y="-56.5" font-family="Helvetica,sans-Serif" font-size="10.00"> MxClassInitializer</text>
<text text-anchor="middle" x="209" y="-45.5" font-family="Helvetica,sans-Serif" font-size="10.00">&lt; GpuBuffer &gt; &gt;</text>
</a>
</g>
</g>
<!-- Node6&#45;&gt;Node2 -->
<g id="edge7" class="edge">
<title>Node6&#45;&gt;Node2</title>
<path fill="none" stroke="#9a32cd" stroke-dasharray="5,2" d="M269.45,-70.9C299.36,-77.89 335.78,-87.93 367,-101 380.08,-106.48 393.87,-114.77 403.82,-121.24"/>
<polygon fill="#9a32cd" stroke="#9a32cd" points="270.1,-67.46 259.58,-68.65 268.55,-74.29 270.1,-67.46"/>
<text text-anchor="middle" x="326" y="-104" font-family="Helvetica,sans-Serif" font-size="10.00"> pVboList</text>
</g>
<!-- Node7 -->
<g id="node7" class="node">
<title>Node7</title>
<g id="a_node7"><a xlink:href="struct_mx_list_1_1_data.html" target="_top" xlink:title="these members are public to allow unions">
<polygon fill="none" stroke="black" points="0,-44 0,-74 107,-74 107,-44 0,-44"/>
<text text-anchor="start" x="8" y="-62" font-family="Helvetica,sans-Serif" font-size="10.00">MxList&lt; T, Initializer,</text>
<text text-anchor="middle" x="53.5" y="-51" font-family="Helvetica,sans-Serif" font-size="10.00"> Prealloc &gt;::Data</text>
</a>
</g>
</g>
<!-- Node7&#45;&gt;Node6 -->
<g id="edge8" class="edge">
<title>Node7&#45;&gt;Node6</title>
<path fill="none" stroke="#9a32cd" stroke-dasharray="5,2" d="M117.59,-59C131.21,-59 145.42,-59 158.44,-59"/>
<polygon fill="#9a32cd" stroke="#9a32cd" points="117.33,-55.5 107.33,-59 117.33,-62.5 117.33,-55.5"/>
<text text-anchor="middle" x="129" y="-62" font-family="Helvetica,sans-Serif" font-size="10.00"> d</text>
</g>
<!-- Node8 -->
<g id="node8" class="node">
<title>Node8</title>
<g id="a_node8"><a xlink:href="class_mx_vector.html" target="_top" xlink:title=" ">
<polygon fill="none" stroke="black" points="161.5,-0.5 161.5,-19.5 256.5,-19.5 256.5,-0.5 161.5,-0.5"/>
<text text-anchor="middle" x="209" y="-7.5" font-family="Helvetica,sans-Serif" font-size="10.00">MxVector&lt; 2, int &gt;</text>
</a>
</g>
</g>
<!-- Node8&#45;&gt;Node2 -->
<g id="edge9" class="edge">
<title>Node8&#45;&gt;Node2</title>
<path fill="none" stroke="#9a32cd" stroke-dasharray="5,2" d="M266.85,-18.99C298.59,-26.14 337.55,-38.61 367,-60 389.6,-76.41 406.06,-105.91 413.53,-121.2"/>
<polygon fill="#9a32cd" stroke="#9a32cd" points="267.33,-15.52 256.82,-16.86 265.88,-22.36 267.33,-15.52"/>
<text text-anchor="middle" x="326" y="-63" font-family="Helvetica,sans-Serif" font-size="10.00"> pScreenSize</text>
</g>
</g>
</svg>
