<?xml version="1.0" encoding="UTF-8" standalone="no"?>
<!DOCTYPE svg PUBLIC "-//W3C//DTD SVG 1.1//EN"
 "http://www.w3.org/Graphics/SVG/1.1/DTD/svg11.dtd">
<!-- Generated by graphviz version 2.44.0 ()
 -->
<!-- Title: MxVector&lt; N, T &gt; Pages: 1 -->
<svg width="343pt" height="154pt"
 viewBox="0.00 0.00 343.00 153.50" xmlns="http://www.w3.org/2000/svg" xmlns:xlink="http://www.w3.org/1999/xlink">
<g id="graph0" class="graph" transform="scale(1 1) rotate(0) translate(4 149.5)">
<title>MxVector&lt; N, T &gt;</title>
<!-- Node1 -->
<g id="node1" class="node">
<title>Node1</title>
<g id="a_node1"><a xlink:title=" ">
<polygon fill="#bfbfbf" stroke="black" points="0,-57.5 0,-76.5 93,-76.5 93,-57.5 0,-57.5"/>
<text text-anchor="middle" x="46.5" y="-64.5" font-family="Helvetica,sans-Serif" font-size="10.00">MxVector&lt; N, T &gt;</text>
</a>
</g>
</g>
<!-- Node2 -->
<g id="node2" class="node">
<title>Node2</title>
<g id="a_node2"><a xlink:href="class_mx_vector.html" target="_top" xlink:title=" ">
<polygon fill="none" stroke="black" points="219,-115 219,-145 335,-145 335,-115 219,-115"/>
<text text-anchor="start" x="227" y="-133" font-family="Helvetica,sans-Serif" font-size="10.00">MxVector&lt; 4, unsigned</text>
<text text-anchor="middle" x="277" y="-122" font-family="Helvetica,sans-Serif" font-size="10.00"> char &gt;</text>
</a>
</g>
</g>
<!-- Node1&#45;&gt;Node2 -->
<g id="edge1" class="edge">
<title>Node1&#45;&gt;Node2</title>
<path fill="none" stroke="orange" stroke-dasharray="5,2" d="M76.69,-80.77C87.33,-85.42 99.55,-90.35 111,-94 146.2,-105.21 186.72,-114.11 218.8,-120.25"/>
<polygon fill="orange" stroke="orange" points="78,-77.52 67.44,-76.62 75.13,-83.9 78,-77.52"/>
<text text-anchor="middle" x="156" y="-119" font-family="Helvetica,sans-Serif" font-size="10.00"> &lt; 4, unsigned char &gt;</text>
</g>
<!-- Node3 -->
<g id="node3" class="node">
<title>Node3</title>
<g id="a_node3"><a xlink:href="class_mx_vector.html" target="_top" xlink:title=" ">
<polygon fill="none" stroke="black" points="229.5,-76.5 229.5,-95.5 324.5,-95.5 324.5,-76.5 229.5,-76.5"/>
<text text-anchor="middle" x="277" y="-83.5" font-family="Helvetica,sans-Serif" font-size="10.00">MxVector&lt; 2, int &gt;</text>
</a>
</g>
</g>
<!-- Node1&#45;&gt;Node3 -->
<g id="edge2" class="edge">
<title>Node1&#45;&gt;Node3</title>
<path fill="none" stroke="orange" stroke-dasharray="5,2" d="M103.23,-71.63C141.85,-74.85 192.7,-79.07 229.21,-82.11"/>
<polygon fill="orange" stroke="orange" points="103.45,-68.14 93.19,-70.8 102.87,-75.12 103.45,-68.14"/>
<text text-anchor="middle" x="156" y="-82" font-family="Helvetica,sans-Serif" font-size="10.00"> &lt; 2, int &gt;</text>
</g>
<!-- Node4 -->
<g id="node4" class="node">
<title>Node4</title>
<g id="a_node4"><a xlink:href="class_mx_vector.html" target="_top" xlink:title=" ">
<polygon fill="none" stroke="black" points="225.5,-38.5 225.5,-57.5 328.5,-57.5 328.5,-38.5 225.5,-38.5"/>
<text text-anchor="middle" x="277" y="-45.5" font-family="Helvetica,sans-Serif" font-size="10.00">MxVector&lt; 3, float &gt;</text>
</a>
</g>
</g>
<!-- Node1&#45;&gt;Node4 -->
<g id="edge3" class="edge">
<title>Node1&#45;&gt;Node4</title>
<path fill="none" stroke="orange" stroke-dasharray="5,2" d="M103.3,-57.89C105.9,-57.57 108.48,-57.27 111,-57 149.23,-52.96 192.65,-50.68 225.34,-49.43"/>
<polygon fill="orange" stroke="orange" points="102.66,-54.44 93.21,-59.23 103.59,-61.38 102.66,-54.44"/>
<text text-anchor="middle" x="156" y="-60" font-family="Helvetica,sans-Serif" font-size="10.00"> &lt; 3, float &gt;</text>
</g>
<!-- Node5 -->
<g id="node5" class="node">
<title>Node5</title>
<g id="a_node5"><a xlink:href="class_mx_vector.html" target="_top" xlink:title=" ">
<polygon fill="none" stroke="black" points="225.5,-0.5 225.5,-19.5 328.5,-19.5 328.5,-0.5 225.5,-0.5"/>
<text text-anchor="middle" x="277" y="-7.5" font-family="Helvetica,sans-Serif" font-size="10.00">MxVector&lt; 2, float &gt;</text>
</a>
</g>
</g>
<!-- Node1&#45;&gt;Node5 -->
<g id="edge4" class="edge">
<title>Node1&#45;&gt;Node5</title>
<path fill="none" stroke="orange" stroke-dasharray="5,2" d="M72.04,-52.34C83.52,-46.09 97.58,-39.28 111,-35 148.27,-23.12 192.11,-16.82 225.24,-13.51"/>
<polygon fill="orange" stroke="orange" points="70.08,-49.43 63.09,-57.38 73.52,-55.53 70.08,-49.43"/>
<text text-anchor="middle" x="156" y="-38" font-family="Helvetica,sans-Serif" font-size="10.00"> &lt; 2, float &gt;</text>
</g>
</g>
</svg>
