<?xml version="1.0" encoding="UTF-8" standalone="no"?>
<!DOCTYPE svg PUBLIC "-//W3C//DTD SVG 1.1//EN"
 "http://www.w3.org/Graphics/SVG/1.1/DTD/svg11.dtd">
<!-- Generated by graphviz version 2.44.0 ()
 -->
<!-- Title: MxRenderer Pages: 1 -->
<svg width="1042pt" height="126pt"
 viewBox="0.00 0.00 1042.00 126.00" xmlns="http://www.w3.org/2000/svg" xmlns:xlink="http://www.w3.org/1999/xlink">
<g id="graph0" class="graph" transform="scale(1 1) rotate(0) translate(4 122)">
<title>MxRenderer</title>
<!-- Node1 -->
<g id="node1" class="node">
<title>Node1</title>
<g id="a_node1"><a xlink:title=" ">
<polygon fill="#bfbfbf" stroke="black" points="633,-49.5 633,-68.5 701,-68.5 701,-49.5 633,-49.5"/>
<text text-anchor="middle" x="667" y="-56.5" font-family="Helvetica,sans-Serif" font-size="10.00">MxRenderer</text>
</a>
</g>
</g>
<!-- Node4 -->
<g id="node4" class="node">
<title>Node4</title>
<g id="a_node4"><a xlink:href="class_mx_shader_program.html" target="_top" xlink:title=" ">
<polygon fill="none" stroke="black" points="784,-49.5 784,-68.5 881,-68.5 881,-49.5 784,-49.5"/>
<text text-anchor="middle" x="832.5" y="-56.5" font-family="Helvetica,sans-Serif" font-size="10.00">MxShaderProgram</text>
</a>
</g>
</g>
<!-- Node1&#45;&gt;Node4 -->
<g id="edge4" class="edge">
<title>Node1&#45;&gt;Node4</title>
<path fill="none" stroke="#9a32cd" stroke-dasharray="5,2" d="M711.29,-59C733.64,-59 760.96,-59 783.9,-59"/>
<polygon fill="#9a32cd" stroke="#9a32cd" points="711.09,-55.5 701.09,-59 711.09,-62.5 711.09,-55.5"/>
<text text-anchor="middle" x="742.5" y="-62" font-family="Helvetica,sans-Serif" font-size="10.00"> pRenderer</text>
</g>
<!-- Node2 -->
<g id="node2" class="node">
<title>Node2</title>
<g id="a_node2"><a xlink:title=" ">
<polygon fill="none" stroke="#bfbfbf" points="430,-98.5 430,-117.5 539,-117.5 539,-98.5 430,-98.5"/>
<text text-anchor="middle" x="484.5" y="-105.5" font-family="Helvetica,sans-Serif" font-size="10.00">MxOpenGLFunctions</text>
</a>
</g>
</g>
<!-- Node2&#45;&gt;Node1 -->
<g id="edge1" class="edge">
<title>Node2&#45;&gt;Node1</title>
<path fill="none" stroke="midnightblue" d="M532.77,-95.94C557.35,-89.59 587.84,-81.56 615,-74 621.22,-72.27 627.86,-70.36 634.21,-68.51"/>
<polygon fill="midnightblue" stroke="midnightblue" points="531.79,-92.58 522.98,-98.47 533.54,-99.36 531.79,-92.58"/>
</g>
<!-- Node3 -->
<g id="node3" class="node">
<title>Node3</title>
<g id="a_node3"><a xlink:href="class_mx_vector_program.html" target="_top" xlink:title=" ">
<polygon fill="none" stroke="black" points="928.5,-75.5 928.5,-94.5 1023.5,-94.5 1023.5,-75.5 928.5,-75.5"/>
<text text-anchor="middle" x="976" y="-82.5" font-family="Helvetica,sans-Serif" font-size="10.00">MxVectorProgram</text>
</a>
</g>
</g>
<!-- Node3&#45;&gt;Node1 -->
<g id="edge2" class="edge">
<title>Node3&#45;&gt;Node1</title>
<path fill="none" stroke="#9a32cd" stroke-dasharray="5,2" d="M918.3,-86.78C866.12,-87.43 786.78,-85.9 719,-74 711.55,-72.69 703.63,-70.68 696.32,-68.56"/>
<polygon fill="#9a32cd" stroke="#9a32cd" points="918.42,-90.28 928.36,-86.63 918.31,-83.28 918.42,-90.28"/>
<text text-anchor="middle" x="832.5" y="-89" font-family="Helvetica,sans-Serif" font-size="10.00"> pVectorProgram</text>
</g>
<!-- Node4&#45;&gt;Node3 -->
<g id="edge3" class="edge">
<title>Node4&#45;&gt;Node3</title>
<path fill="none" stroke="midnightblue" d="M890.85,-69.54C903.31,-71.83 916.35,-74.22 928.34,-76.43"/>
<polygon fill="midnightblue" stroke="midnightblue" points="891.48,-66.09 881.01,-67.73 890.21,-72.98 891.48,-66.09"/>
</g>
<!-- Node5 -->
<g id="node5" class="node">
<title>Node5</title>
<g id="a_node5"><a xlink:href="class_mx_color_wheel_program.html" target="_top" xlink:title=" ">
<polygon fill="none" stroke="black" points="918,-31.5 918,-50.5 1034,-50.5 1034,-31.5 918,-31.5"/>
<text text-anchor="middle" x="976" y="-38.5" font-family="Helvetica,sans-Serif" font-size="10.00">MxColorWheelProgram</text>
</a>
</g>
</g>
<!-- Node4&#45;&gt;Node5 -->
<g id="edge6" class="edge">
<title>Node4&#45;&gt;Node5</title>
<path fill="none" stroke="midnightblue" d="M891.1,-51.67C899.82,-50.56 908.83,-49.42 917.55,-48.31"/>
<polygon fill="midnightblue" stroke="midnightblue" points="890.49,-48.22 881.01,-52.96 891.37,-55.17 890.49,-48.22"/>
</g>
<!-- Node5&#45;&gt;Node1 -->
<g id="edge5" class="edge">
<title>Node5&#45;&gt;Node1</title>
<path fill="none" stroke="#9a32cd" stroke-dasharray="5,2" d="M907.85,-31.38C898.84,-30.39 889.71,-29.55 881,-29 837.98,-26.26 826.77,-23.56 784,-29 753.67,-32.86 719.92,-42.18 696.68,-49.41"/>
<polygon fill="#9a32cd" stroke="#9a32cd" points="907.61,-34.87 917.95,-32.54 908.41,-27.92 907.61,-34.87"/>
<text text-anchor="middle" x="832.5" y="-32" font-family="Helvetica,sans-Serif" font-size="10.00"> pColorWheelEffect</text>
</g>
<!-- Node6 -->
<g id="node6" class="node">
<title>Node6</title>
<g id="a_node6"><a xlink:href="class_mx_list.html" target="_top" xlink:title=" ">
<polygon fill="none" stroke="black" points="434,-38.5 434,-79.5 535,-79.5 535,-38.5 434,-38.5"/>
<text text-anchor="start" x="442" y="-67.5" font-family="Helvetica,sans-Serif" font-size="10.00">MxList&lt; GpuBuffer,</text>
<text text-anchor="start" x="442" y="-56.5" font-family="Helvetica,sans-Serif" font-size="10.00"> MxClassInitializer</text>
<text text-anchor="middle" x="484.5" y="-45.5" font-family="Helvetica,sans-Serif" font-size="10.00">&lt; GpuBuffer &gt; &gt;</text>
</a>
</g>
</g>
<!-- Node6&#45;&gt;Node1 -->
<g id="edge7" class="edge">
<title>Node6&#45;&gt;Node1</title>
<path fill="none" stroke="#9a32cd" stroke-dasharray="5,2" d="M545.39,-59C574.53,-59 608.45,-59 632.89,-59"/>
<polygon fill="#9a32cd" stroke="#9a32cd" points="545.3,-55.5 535.3,-59 545.3,-62.5 545.3,-55.5"/>
<text text-anchor="middle" x="586" y="-62" font-family="Helvetica,sans-Serif" font-size="10.00"> pVboList</text>
</g>
<!-- Node7 -->
<g id="node7" class="node">
<title>Node7</title>
<g id="a_node7"><a xlink:href="struct_mx_list_1_1_data.html" target="_top" xlink:title="these members are public to allow unions">
<polygon fill="none" stroke="black" points="0,-58 0,-88 107,-88 107,-58 0,-58"/>
<text text-anchor="start" x="8" y="-76" font-family="Helvetica,sans-Serif" font-size="10.00">MxList&lt; T, Initializer,</text>
<text text-anchor="middle" x="53.5" y="-65" font-family="Helvetica,sans-Serif" font-size="10.00"> Prealloc &gt;::Data</text>
</a>
</g>
</g>
<!-- Node7&#45;&gt;Node6 -->
<g id="edge8" class="edge">
<title>Node7&#45;&gt;Node6</title>
<path fill="none" stroke="#9a32cd" stroke-dasharray="5,2" d="M117.25,-68.75C128.49,-68.09 140.09,-67.47 151,-67 251.38,-62.67 368.91,-60.53 433.91,-59.6"/>
<polygon fill="#9a32cd" stroke="#9a32cd" points="116.84,-65.27 107.07,-69.37 117.26,-72.26 116.84,-65.27"/>
<text text-anchor="middle" x="204.5" y="-70" font-family="Helvetica,sans-Serif" font-size="10.00"> d</text>
</g>
<!-- Node8 -->
<g id="node8" class="node">
<title>Node8</title>
<g id="a_node8"><a xlink:href="class_mx_list.html" target="_top" xlink:title=" ">
<polygon fill="none" stroke="black" points="151,-87 151,-117 258,-117 258,-87 151,-87"/>
<text text-anchor="start" x="159" y="-105" font-family="Helvetica,sans-Serif" font-size="10.00">MxList&lt; T, Initializer,</text>
<text text-anchor="middle" x="204.5" y="-94" font-family="Helvetica,sans-Serif" font-size="10.00"> Prealloc &gt;</text>
</a>
</g>
</g>
<!-- Node7&#45;&gt;Node8 -->
<g id="edge10" class="edge">
<title>Node7&#45;&gt;Node8</title>
<path fill="none" stroke="#9a32cd" stroke-dasharray="5,2" d="M116.87,-85.14C128.2,-87.34 139.92,-89.63 150.94,-91.77"/>
<polygon fill="#9a32cd" stroke="#9a32cd" points="117.52,-81.7 107.03,-83.22 116.18,-88.57 117.52,-81.7"/>
<text text-anchor="middle" x="129" y="-90" font-family="Helvetica,sans-Serif" font-size="10.00"> d</text>
</g>
<!-- Node8&#45;&gt;Node6 -->
<g id="edge9" class="edge">
<title>Node8&#45;&gt;Node6</title>
<path fill="none" stroke="orange" stroke-dasharray="5,2" d="M268.27,-92.87C309.21,-86.83 363.81,-78.66 412,-71 419.09,-69.87 426.56,-68.65 433.9,-67.44"/>
<polygon fill="orange" stroke="orange" points="267.55,-89.43 258.16,-94.35 268.56,-96.36 267.55,-89.43"/>
<text text-anchor="start" x="276" y="-105" font-family="Helvetica,sans-Serif" font-size="10.00"> &lt; GpuBuffer, MxClassInitializer</text>
<text text-anchor="middle" x="344" y="-94" font-family="Helvetica,sans-Serif" font-size="10.00">&lt; GpuBuffer &gt; &gt;</text>
</g>
<!-- Node9 -->
<g id="node9" class="node">
<title>Node9</title>
<g id="a_node9"><a xlink:href="class_mx_vector.html" target="_top" xlink:title=" ">
<polygon fill="none" stroke="black" points="437,-0.5 437,-19.5 532,-19.5 532,-0.5 437,-0.5"/>
<text text-anchor="middle" x="484.5" y="-7.5" font-family="Helvetica,sans-Serif" font-size="10.00">MxVector&lt; 2, int &gt;</text>
</a>
</g>
</g>
<!-- Node9&#45;&gt;Node1 -->
<g id="edge11" class="edge">
<title>Node9&#45;&gt;Node1</title>
<path fill="none" stroke="#9a32cd" stroke-dasharray="5,2" d="M532.77,-22.06C557.35,-28.41 587.84,-36.44 615,-44 621.22,-45.73 627.86,-47.64 634.21,-49.49"/>
<polygon fill="#9a32cd" stroke="#9a32cd" points="533.54,-18.64 522.98,-19.53 531.79,-25.42 533.54,-18.64"/>
<text text-anchor="middle" x="586" y="-47" font-family="Helvetica,sans-Serif" font-size="10.00"> pScreenSize</text>
</g>
<!-- Node10 -->
<g id="node10" class="node">
<title>Node10</title>
<g id="a_node10"><a xlink:href="class_mx_vector.html" target="_top" xlink:title=" ">
<polygon fill="none" stroke="black" points="158,-0.5 158,-19.5 251,-19.5 251,-0.5 158,-0.5"/>
<text text-anchor="middle" x="204.5" y="-7.5" font-family="Helvetica,sans-Serif" font-size="10.00">MxVector&lt; N, T &gt;</text>
</a>
</g>
</g>
<!-- Node10&#45;&gt;Node9 -->
<g id="edge12" class="edge">
<title>Node10&#45;&gt;Node9</title>
<path fill="none" stroke="orange" stroke-dasharray="5,2" d="M261.39,-10C312.94,-10 388.6,-10 436.95,-10"/>
<polygon fill="orange" stroke="orange" points="261.09,-6.5 251.09,-10 261.09,-13.5 261.09,-6.5"/>
<text text-anchor="middle" x="344" y="-13" font-family="Helvetica,sans-Serif" font-size="10.00"> &lt; 2, int &gt;</text>
</g>
</g>
</svg>
