<?xml version="1.0" encoding="UTF-8" standalone="no"?>
<!DOCTYPE svg PUBLIC "-//W3C//DTD SVG 1.1//EN"
 "http://www.w3.org/Graphics/SVG/1.1/DTD/svg11.dtd">
<!-- Generated by graphviz version 2.44.0 ()
 -->
<!-- Title: MxList&lt; T, Initializer, Prealloc &gt; Pages: 1 -->
<svg width="451pt" height="101pt"
 viewBox="0.00 0.00 451.00 100.50" xmlns="http://www.w3.org/2000/svg" xmlns:xlink="http://www.w3.org/1999/xlink">
<g id="graph0" class="graph" transform="scale(1 1) rotate(0) translate(4 96.5)">
<title>MxList&lt; T, Initializer, Prealloc &gt;</title>
<!-- Node1 -->
<g id="node1" class="node">
<title>Node1</title>
<g id="a_node1"><a xlink:title=" ">
<polygon fill="#bfbfbf" stroke="black" points="0,-34 0,-64 107,-64 107,-34 0,-34"/>
<text text-anchor="start" x="8" y="-52" font-family="Helvetica,sans-Serif" font-size="10.00">MxList&lt; T, Initializer,</text>
<text text-anchor="middle" x="53.5" y="-41" font-family="Helvetica,sans-Serif" font-size="10.00"> Prealloc &gt;</text>
</a>
</g>
</g>
<!-- Node2 -->
<g id="node2" class="node">
<title>Node2</title>
<g id="a_node2"><a xlink:href="class_mx_list.html" target="_top" xlink:title=" ">
<polygon fill="none" stroke="black" points="279,-62 279,-92 440,-92 440,-62 279,-62"/>
<text text-anchor="start" x="287" y="-80" font-family="Helvetica,sans-Serif" font-size="10.00">MxList&lt; MxWidget *,</text>
<text text-anchor="middle" x="359.5" y="-69" font-family="Helvetica,sans-Serif" font-size="10.00"> MxPodInitializer&lt; MxWidget * &gt; &gt;</text>
</a>
</g>
</g>
<!-- Node1&#45;&gt;Node2 -->
<g id="edge1" class="edge">
<title>Node1&#45;&gt;Node2</title>
<path fill="none" stroke="orange" stroke-dasharray="5,2" d="M117.12,-54.77C163.96,-59.08 228.36,-65.01 278.86,-69.66"/>
<polygon fill="orange" stroke="orange" points="117.38,-51.28 107.11,-53.85 116.74,-58.25 117.38,-51.28"/>
<text text-anchor="start" x="125" y="-81" font-family="Helvetica,sans-Serif" font-size="10.00"> &lt; MxWidget *, MxPodInitializer</text>
<text text-anchor="middle" x="191.5" y="-70" font-family="Helvetica,sans-Serif" font-size="10.00">&lt; MxWidget * &gt; &gt;</text>
</g>
<!-- Node3 -->
<g id="node3" class="node">
<title>Node3</title>
<g id="a_node3"><a xlink:href="class_mx_list.html" target="_top" xlink:title=" ">
<polygon fill="none" stroke="black" points="276,-0.5 276,-41.5 443,-41.5 443,-0.5 276,-0.5"/>
<text text-anchor="start" x="284" y="-29.5" font-family="Helvetica,sans-Serif" font-size="10.00">MxList&lt; MxCachedGpuArray,</text>
<text text-anchor="start" x="284" y="-18.5" font-family="Helvetica,sans-Serif" font-size="10.00"> MxClassInitializer&lt; MxCachedGpu</text>
<text text-anchor="middle" x="359.5" y="-7.5" font-family="Helvetica,sans-Serif" font-size="10.00">Array &gt;, 32 &gt;</text>
</a>
</g>
</g>
<!-- Node1&#45;&gt;Node3 -->
<g id="edge2" class="edge">
<title>Node1&#45;&gt;Node3</title>
<path fill="none" stroke="orange" stroke-dasharray="5,2" d="M91.12,-29.48C101.75,-24.77 113.58,-20.4 125,-18 174.3,-7.64 230.75,-8.04 275.79,-11.2"/>
<polygon fill="orange" stroke="orange" points="89.32,-26.46 81.74,-33.86 92.28,-32.8 89.32,-26.46"/>
<text text-anchor="start" x="128" y="-43" font-family="Helvetica,sans-Serif" font-size="10.00"> &lt; MxCachedGpuArray,</text>
<text text-anchor="start" x="128" y="-32" font-family="Helvetica,sans-Serif" font-size="10.00"> MxClassInitializer</text>
<text text-anchor="middle" x="191.5" y="-21" font-family="Helvetica,sans-Serif" font-size="10.00">&lt; MxCachedGpuArray &gt;, 32 &gt;</text>
</g>
</g>
</svg>
