<?xml version="1.0" encoding="UTF-8" standalone="no"?>
<!DOCTYPE svg PUBLIC "-//W3C//DTD SVG 1.1//EN"
 "http://www.w3.org/Graphics/SVG/1.1/DTD/svg11.dtd">
<!-- Generated by graphviz version 2.44.0 ()
 -->
<!-- Title: MxRenderer Pages: 1 -->
<svg width="1087pt" height="323pt"
 viewBox="0.00 0.00 1087.00 323.00" xmlns="http://www.w3.org/2000/svg" xmlns:xlink="http://www.w3.org/1999/xlink">
<g id="graph0" class="graph" transform="scale(1 1) rotate(0) translate(4 319)">
<title>MxRenderer</title>
<!-- Node1 -->
<g id="node1" class="node">
<title>Node1</title>
<g id="a_node1"><a xlink:title="The MxRenderer keeps track of the rendering state and resources.">
<polygon fill="#bfbfbf" stroke="black" points="828,-178.5 828,-197.5 896,-197.5 896,-178.5 828,-178.5"/>
<text text-anchor="middle" x="862" y="-185.5" font-family="Helvetica,sans-Serif" font-size="10.00">MxRenderer</text>
</a>
</g>
</g>
<!-- Node13 -->
<g id="node13" class="node">
<title>Node13</title>
<g id="a_node13"><a xlink:href="class_mx_gpu_program.html" target="_top" xlink:title=" ">
<polygon fill="none" stroke="black" points="995,-178.5 995,-197.5 1079,-197.5 1079,-178.5 995,-178.5"/>
<text text-anchor="middle" x="1037" y="-185.5" font-family="Helvetica,sans-Serif" font-size="10.00">MxGpuProgram</text>
</a>
</g>
</g>
<!-- Node1&#45;&gt;Node13 -->
<g id="edge18" class="edge">
<title>Node1&#45;&gt;Node13</title>
<path fill="none" stroke="#9a32cd" stroke-dasharray="5,2" d="M906.7,-188C933.74,-188 968.25,-188 994.81,-188"/>
<polygon fill="#9a32cd" stroke="#9a32cd" points="906.36,-184.5 896.36,-188 906.36,-191.5 906.36,-184.5"/>
<text text-anchor="middle" x="945.5" y="-191" font-family="Helvetica,sans-Serif" font-size="10.00"> pRenderer</text>
</g>
<!-- Node2 -->
<g id="node2" class="node">
<title>Node2</title>
<g id="a_node2"><a xlink:title=" ">
<polygon fill="none" stroke="#bfbfbf" points="579,-295.5 579,-314.5 688,-314.5 688,-295.5 579,-295.5"/>
<text text-anchor="middle" x="633.5" y="-302.5" font-family="Helvetica,sans-Serif" font-size="10.00">MxOpenGLFunctions</text>
</a>
</g>
</g>
<!-- Node2&#45;&gt;Node1 -->
<g id="edge1" class="edge">
<title>Node2&#45;&gt;Node1</title>
<path fill="none" stroke="midnightblue" d="M698.33,-306.85C733.98,-304.93 777.6,-297.4 810,-275 837.79,-255.78 852.67,-216.09 858.3,-197.72"/>
<polygon fill="midnightblue" stroke="midnightblue" points="697.87,-303.37 688.02,-307.26 698.15,-310.36 697.87,-303.37"/>
</g>
<!-- Node3 -->
<g id="node3" class="node">
<title>Node3</title>
<g id="a_node3"><a xlink:href="struct_mx_renderer_1_1_viewport.html" target="_top" xlink:title=" ">
<polygon fill="none" stroke="black" points="578,-257.5 578,-276.5 689,-276.5 689,-257.5 578,-257.5"/>
<text text-anchor="middle" x="633.5" y="-264.5" font-family="Helvetica,sans-Serif" font-size="10.00">MxRenderer::Viewport</text>
</a>
</g>
</g>
<!-- Node3&#45;&gt;Node1 -->
<g id="edge2" class="edge">
<title>Node3&#45;&gt;Node1</title>
<path fill="none" stroke="#9a32cd" stroke-dasharray="5,2" d="M699.75,-265.59C734.12,-262.59 776.06,-255.23 810,-238 828.8,-228.46 845.12,-209.54 853.96,-197.91"/>
<polygon fill="#9a32cd" stroke="#9a32cd" points="699.05,-262.13 689.35,-266.39 699.58,-269.11 699.05,-262.13"/>
<text text-anchor="middle" x="773.5" y="-263" font-family="Helvetica,sans-Serif" font-size="10.00"> pViewport</text>
</g>
<!-- Node4 -->
<g id="node4" class="node">
<title>Node4</title>
<g id="a_node4"><a xlink:href="class_mx_texture.html" target="_top" xlink:title=" ">
<polygon fill="none" stroke="black" points="602.5,-218.5 602.5,-237.5 664.5,-237.5 664.5,-218.5 602.5,-218.5"/>
<text text-anchor="middle" x="633.5" y="-225.5" font-family="Helvetica,sans-Serif" font-size="10.00">MxTexture</text>
</a>
</g>
</g>
<!-- Node4&#45;&gt;Node1 -->
<g id="edge3" class="edge">
<title>Node4&#45;&gt;Node1</title>
<path fill="none" stroke="#9a32cd" stroke-dasharray="5,2" d="M674.76,-222.43C710.43,-217.29 763.85,-209.1 810,-200 815.8,-198.86 821.94,-197.52 827.88,-196.16"/>
<polygon fill="#9a32cd" stroke="#9a32cd" points="674.15,-218.98 664.74,-223.86 675.14,-225.91 674.15,-218.98"/>
<text text-anchor="middle" x="773.5" y="-226" font-family="Helvetica,sans-Serif" font-size="10.00"> pBoundTextures</text>
<text text-anchor="middle" x="773.5" y="-215" font-family="Helvetica,sans-Serif" font-size="10.00">pTextures</text>
</g>
<!-- Node5 -->
<g id="node5" class="node">
<title>Node5</title>
<g id="a_node5"><a xlink:href="class_mx_list.html" target="_top" xlink:title=" ">
<polygon fill="none" stroke="black" points="575.5,-180.5 575.5,-199.5 691.5,-199.5 691.5,-180.5 575.5,-180.5"/>
<text text-anchor="middle" x="633.5" y="-187.5" font-family="Helvetica,sans-Serif" font-size="10.00">MxList&lt; MxGpuArray &gt;</text>
</a>
</g>
</g>
<!-- Node5&#45;&gt;Node1 -->
<g id="edge4" class="edge">
<title>Node5&#45;&gt;Node1</title>
<path fill="none" stroke="#9a32cd" stroke-dasharray="5,2" d="M701.87,-189.33C713.58,-189.21 725.65,-189.1 737,-189 767.78,-188.73 802.87,-188.45 827.84,-188.25"/>
<polygon fill="#9a32cd" stroke="#9a32cd" points="701.66,-185.83 691.7,-189.42 701.73,-192.83 701.66,-185.83"/>
<text text-anchor="middle" x="773.5" y="-192" font-family="Helvetica,sans-Serif" font-size="10.00"> pBufferViews</text>
</g>
<!-- Node6 -->
<g id="node6" class="node">
<title>Node6</title>
<g id="a_node6"><a xlink:href="struct_mx_list_1_1_data.html" target="_top" xlink:title="these members are public to allow unions">
<polygon fill="none" stroke="black" points="115,-190 115,-220 222,-220 222,-190 115,-190"/>
<text text-anchor="start" x="123" y="-208" font-family="Helvetica,sans-Serif" font-size="10.00">MxList&lt; T, Initializer,</text>
<text text-anchor="middle" x="168.5" y="-197" font-family="Helvetica,sans-Serif" font-size="10.00"> Prealloc &gt;::Data</text>
</a>
</g>
</g>
<!-- Node6&#45;&gt;Node5 -->
<g id="edge5" class="edge">
<title>Node6&#45;&gt;Node5</title>
<path fill="none" stroke="#9a32cd" stroke-dasharray="5,2" d="M215.22,-223.45C223.35,-226.09 231.84,-228.43 240,-230 366.58,-254.29 413.07,-284.23 530,-230 541.15,-224.83 537.47,-215.34 548,-209 556.25,-204.04 565.65,-200.37 575.12,-197.66"/>
<polygon fill="#9a32cd" stroke="#9a32cd" points="216.1,-220.06 205.51,-220.12 213.83,-226.68 216.1,-220.06"/>
<text text-anchor="middle" x="319.5" y="-260" font-family="Helvetica,sans-Serif" font-size="10.00"> d</text>
</g>
<!-- Node8 -->
<g id="node8" class="node">
<title>Node8</title>
<g id="a_node8"><a xlink:href="class_mx_list.html" target="_top" xlink:title=" ">
<polygon fill="none" stroke="black" points="266,-129 266,-159 373,-159 373,-129 266,-129"/>
<text text-anchor="start" x="274" y="-147" font-family="Helvetica,sans-Serif" font-size="10.00">MxList&lt; T, Initializer,</text>
<text text-anchor="middle" x="319.5" y="-136" font-family="Helvetica,sans-Serif" font-size="10.00"> Prealloc &gt;</text>
</a>
</g>
</g>
<!-- Node6&#45;&gt;Node8 -->
<g id="edge8" class="edge">
<title>Node6&#45;&gt;Node8</title>
<path fill="none" stroke="#9a32cd" stroke-dasharray="5,2" d="M215.81,-186.04C237.07,-177.34 261.91,-167.17 281.83,-159.01"/>
<polygon fill="#9a32cd" stroke="#9a32cd" points="214.26,-182.89 206.33,-189.92 216.91,-189.37 214.26,-182.89"/>
<text text-anchor="middle" x="244" y="-177" font-family="Helvetica,sans-Serif" font-size="10.00"> d</text>
</g>
<!-- Node9 -->
<g id="node9" class="node">
<title>Node9</title>
<g id="a_node9"><a xlink:href="class_mx_list.html" target="_top" xlink:title=" ">
<polygon fill="none" stroke="black" points="574,-72 574,-102 693,-102 693,-72 574,-72"/>
<text text-anchor="start" x="582" y="-90" font-family="Helvetica,sans-Serif" font-size="10.00">MxList&lt; MxRenderer</text>
<text text-anchor="middle" x="633.5" y="-79" font-family="Helvetica,sans-Serif" font-size="10.00">::StoredRootSignature &gt;</text>
</a>
</g>
</g>
<!-- Node6&#45;&gt;Node9 -->
<g id="edge10" class="edge">
<title>Node6&#45;&gt;Node9</title>
<path fill="none" stroke="#9a32cd" stroke-dasharray="5,2" d="M186.44,-181.71C203.86,-159.51 233.04,-126.91 266,-109 363.45,-56.04 497.75,-64.91 573.78,-76.03"/>
<polygon fill="#9a32cd" stroke="#9a32cd" points="183.65,-179.58 180.35,-189.65 189.21,-183.84 183.65,-179.58"/>
<text text-anchor="middle" x="319.5" y="-112" font-family="Helvetica,sans-Serif" font-size="10.00"> d</text>
</g>
<!-- Node12 -->
<g id="node12" class="node">
<title>Node12</title>
<g id="a_node12"><a xlink:href="class_mx_list.html" target="_top" xlink:title=" ">
<polygon fill="none" stroke="black" points="548,-120.5 548,-161.5 719,-161.5 719,-120.5 548,-120.5"/>
<text text-anchor="start" x="556" y="-149.5" font-family="Helvetica,sans-Serif" font-size="10.00">MxList&lt; MxRenderer</text>
<text text-anchor="start" x="556" y="-138.5" font-family="Helvetica,sans-Serif" font-size="10.00">::ReusableVbo, MxClassInitializer</text>
<text text-anchor="middle" x="633.5" y="-127.5" font-family="Helvetica,sans-Serif" font-size="10.00">&lt; MxRenderer::ReusableVbo &gt;, 32 &gt;</text>
</a>
</g>
</g>
<!-- Node6&#45;&gt;Node12 -->
<g id="edge15" class="edge">
<title>Node6&#45;&gt;Node12</title>
<path fill="none" stroke="#9a32cd" stroke-dasharray="5,2" d="M232.18,-211.2C321.7,-218.88 480.81,-227.81 530,-200 543.21,-192.53 536.19,-180.52 548,-171 552.36,-167.48 557.17,-164.36 562.21,-161.6"/>
<polygon fill="#9a32cd" stroke="#9a32cd" points="232.42,-207.71 222.15,-210.32 231.8,-214.68 232.42,-207.71"/>
<text text-anchor="middle" x="319.5" y="-221" font-family="Helvetica,sans-Serif" font-size="10.00"> d</text>
</g>
<!-- Node7 -->
<g id="node7" class="node">
<title>Node7</title>
<g id="a_node7"><a xlink:href="class_mx_ref_counter.html" target="_top" xlink:title=" ">
<polygon fill="none" stroke="black" points="0,-195.5 0,-214.5 78,-214.5 78,-195.5 0,-195.5"/>
<text text-anchor="middle" x="39" y="-202.5" font-family="Helvetica,sans-Serif" font-size="10.00">MxRefCounter</text>
</a>
</g>
</g>
<!-- Node7&#45;&gt;Node6 -->
<g id="edge6" class="edge">
<title>Node7&#45;&gt;Node6</title>
<path fill="none" stroke="midnightblue" d="M88.46,-205C97.03,-205 105.98,-205 114.66,-205"/>
<polygon fill="midnightblue" stroke="midnightblue" points="88.25,-201.5 78.25,-205 88.25,-208.5 88.25,-201.5"/>
</g>
<!-- Node8&#45;&gt;Node5 -->
<g id="edge7" class="edge">
<title>Node8&#45;&gt;Node5</title>
<path fill="none" stroke="orange" stroke-dasharray="5,2" d="M368.98,-162.17C376.28,-164.42 383.78,-166.47 391,-168 453.18,-181.22 526.03,-186.5 575.33,-188.6"/>
<polygon fill="orange" stroke="orange" points="369.78,-158.76 359.19,-159.01 367.63,-165.42 369.78,-158.76"/>
<text text-anchor="middle" x="460.5" y="-188" font-family="Helvetica,sans-Serif" font-size="10.00"> &lt; MxGpuArray &gt;</text>
</g>
<!-- Node8&#45;&gt;Node9 -->
<g id="edge11" class="edge">
<title>Node8&#45;&gt;Node9</title>
<path fill="none" stroke="orange" stroke-dasharray="5,2" d="M352.55,-123.71C364.22,-117.27 377.8,-110.84 391,-107 451.6,-89.38 524.09,-85.54 573.74,-85.38"/>
<polygon fill="orange" stroke="orange" points="350.57,-120.81 343.64,-128.83 354.05,-126.89 350.57,-120.81"/>
<text text-anchor="start" x="402.5" y="-121" font-family="Helvetica,sans-Serif" font-size="10.00"> &lt; MxRenderer::StoredRoot</text>
<text text-anchor="middle" x="460.5" y="-110" font-family="Helvetica,sans-Serif" font-size="10.00">Signature &gt;</text>
</g>
<!-- Node8&#45;&gt;Node12 -->
<g id="edge16" class="edge">
<title>Node8&#45;&gt;Node12</title>
<path fill="none" stroke="orange" stroke-dasharray="5,2" d="M383.28,-135.57C385.89,-135.35 388.47,-135.16 391,-135 443.01,-131.69 501.42,-133.01 547.77,-135.24"/>
<polygon fill="orange" stroke="orange" points="382.79,-132.1 373.17,-136.53 383.46,-139.07 382.79,-132.1"/>
<text text-anchor="start" x="391" y="-160" font-family="Helvetica,sans-Serif" font-size="10.00"> &lt; MxRenderer::ReusableVbo,</text>
<text text-anchor="start" x="391" y="-149" font-family="Helvetica,sans-Serif" font-size="10.00"> MxClassInitializer&lt; MxRenderer</text>
<text text-anchor="middle" x="460.5" y="-138" font-family="Helvetica,sans-Serif" font-size="10.00">::ReusableVbo &gt;, 32 &gt;</text>
</g>
<!-- Node9&#45;&gt;Node1 -->
<g id="edge9" class="edge">
<title>Node9&#45;&gt;Node1</title>
<path fill="none" stroke="#9a32cd" stroke-dasharray="5,2" d="M703.09,-101.35C736.79,-110.23 777.11,-123.7 810,-143 826.5,-152.68 842.54,-168.13 852.09,-178.17"/>
<polygon fill="#9a32cd" stroke="#9a32cd" points="703.87,-97.94 693.32,-98.85 702.14,-104.72 703.87,-97.94"/>
<text text-anchor="middle" x="773.5" y="-146" font-family="Helvetica,sans-Serif" font-size="10.00"> pRootInputList</text>
</g>
<!-- Node10 -->
<g id="node10" class="node">
<title>Node10</title>
<g id="a_node10"><a xlink:href="class_mx_vector.html" target="_top" xlink:title=" ">
<polygon fill="none" stroke="black" points="586,-17.5 586,-36.5 681,-36.5 681,-17.5 586,-17.5"/>
<text text-anchor="middle" x="633.5" y="-24.5" font-family="Helvetica,sans-Serif" font-size="10.00">MxVector&lt; 2, int &gt;</text>
</a>
</g>
</g>
<!-- Node10&#45;&gt;Node1 -->
<g id="edge12" class="edge">
<title>Node10&#45;&gt;Node1</title>
<path fill="none" stroke="#9a32cd" stroke-dasharray="5,2" d="M690.91,-39.06C728.16,-49.35 776.15,-67.32 810,-97 836.28,-120.04 851.92,-160.06 858.03,-178.37"/>
<polygon fill="#9a32cd" stroke="#9a32cd" points="691.77,-35.66 681.2,-36.48 689.97,-42.43 691.77,-35.66"/>
<text text-anchor="middle" x="773.5" y="-100" font-family="Helvetica,sans-Serif" font-size="10.00"> pScreenSize</text>
</g>
<!-- Node11 -->
<g id="node11" class="node">
<title>Node11</title>
<g id="a_node11"><a xlink:href="class_mx_vector.html" target="_top" xlink:title=" ">
<polygon fill="none" stroke="black" points="273,-0.5 273,-19.5 366,-19.5 366,-0.5 273,-0.5"/>
<text text-anchor="middle" x="319.5" y="-7.5" font-family="Helvetica,sans-Serif" font-size="10.00">MxVector&lt; N, T &gt;</text>
</a>
</g>
</g>
<!-- Node11&#45;&gt;Node10 -->
<g id="edge13" class="edge">
<title>Node11&#45;&gt;Node10</title>
<path fill="none" stroke="orange" stroke-dasharray="5,2" d="M376.22,-13.04C436.01,-16.29 529.91,-21.41 585.91,-24.46"/>
<polygon fill="orange" stroke="orange" points="376.38,-9.54 366.2,-12.49 376,-16.53 376.38,-9.54"/>
<text text-anchor="middle" x="460.5" y="-25" font-family="Helvetica,sans-Serif" font-size="10.00"> &lt; 2, int &gt;</text>
</g>
<!-- Node12&#45;&gt;Node1 -->
<g id="edge14" class="edge">
<title>Node12&#45;&gt;Node1</title>
<path fill="none" stroke="#9a32cd" stroke-dasharray="5,2" d="M729.19,-156.37C755.48,-161.15 783.95,-166.81 810,-173 816.64,-174.58 823.71,-176.5 830.4,-178.43"/>
<polygon fill="#9a32cd" stroke="#9a32cd" points="729.69,-152.91 719.23,-154.59 728.46,-159.8 729.69,-152.91"/>
<text text-anchor="middle" x="773.5" y="-176" font-family="Helvetica,sans-Serif" font-size="10.00"> pReusableVbos</text>
</g>
<!-- Node13&#45;&gt;Node1 -->
<g id="edge17" class="edge">
<title>Node13&#45;&gt;Node1</title>
<path fill="none" stroke="#9a32cd" stroke-dasharray="5,2" d="M996.84,-175.83C990.28,-174.24 983.49,-172.86 977,-172 949.25,-168.3 941.68,-167.76 914,-172 905.38,-173.32 896.21,-175.83 888.06,-178.47"/>
<polygon fill="#9a32cd" stroke="#9a32cd" points="996.34,-179.32 1006.9,-178.47 998.12,-172.55 996.34,-179.32"/>
<text text-anchor="middle" x="945.5" y="-175" font-family="Helvetica,sans-Serif" font-size="10.00"> pCurrProgram</text>
</g>
</g>
</svg>
