<?xml version="1.0" encoding="UTF-8" standalone="no"?>
<!DOCTYPE svg PUBLIC "-//W3C//DTD SVG 1.1//EN"
 "http://www.w3.org/Graphics/SVG/1.1/DTD/svg11.dtd">
<!-- Generated by graphviz version 2.44.0 ()
 -->
<!-- Title: MxIconProgram Pages: 1 -->
<svg width="1228pt" height="305pt"
 viewBox="0.00 0.00 1228.00 305.00" xmlns="http://www.w3.org/2000/svg" xmlns:xlink="http://www.w3.org/1999/xlink">
<g id="graph0" class="graph" transform="scale(1 1) rotate(0) translate(4 301)">
<title>MxIconProgram</title>
<!-- Node1 -->
<g id="node1" class="node">
<title>Node1</title>
<g id="a_node1"><a xlink:title=" ">
<polygon fill="#bfbfbf" stroke="black" points="577,-257.5 577,-276.5 662,-276.5 662,-257.5 577,-257.5"/>
<text text-anchor="middle" x="619.5" y="-264.5" font-family="Helvetica,sans-Serif" font-size="10.00">MxIconProgram</text>
</a>
</g>
</g>
<!-- Node3 -->
<g id="node3" class="node">
<title>Node3</title>
<g id="a_node3"><a xlink:href="class_mx_renderer.html" target="_top" xlink:title="The MxRenderer keeps track of the rendering state and resources.">
<polygon fill="none" stroke="black" points="803,-170.5 803,-189.5 871,-189.5 871,-170.5 803,-170.5"/>
<text text-anchor="middle" x="837" y="-177.5" font-family="Helvetica,sans-Serif" font-size="10.00">MxRenderer</text>
</a>
</g>
</g>
<!-- Node1&#45;&gt;Node3 -->
<g id="edge20" class="edge">
<title>Node1&#45;&gt;Node3</title>
<path fill="none" stroke="#9a32cd" stroke-dasharray="5,2" d="M672.3,-257.05C705.65,-249.41 749.27,-237.07 785,-219 800.52,-211.15 816.06,-198.39 825.84,-189.61"/>
<polygon fill="#9a32cd" stroke="#9a32cd" points="671.31,-253.68 662.31,-259.27 672.83,-260.52 671.31,-253.68"/>
<text text-anchor="middle" x="753" y="-246" font-family="Helvetica,sans-Serif" font-size="10.00"> pIconProgram</text>
</g>
<!-- Node2 -->
<g id="node2" class="node">
<title>Node2</title>
<g id="a_node2"><a xlink:href="class_mx_shader_program.html" target="_top" xlink:title=" ">
<polygon fill="none" stroke="black" points="970,-240.5 970,-259.5 1067,-259.5 1067,-240.5 970,-240.5"/>
<text text-anchor="middle" x="1018.5" y="-247.5" font-family="Helvetica,sans-Serif" font-size="10.00">MxShaderProgram</text>
</a>
</g>
</g>
<!-- Node2&#45;&gt;Node1 -->
<g id="edge1" class="edge">
<title>Node2&#45;&gt;Node1</title>
<path fill="none" stroke="midnightblue" d="M959.88,-252.47C878.95,-255.93 733.54,-262.16 662.24,-265.21"/>
<polygon fill="midnightblue" stroke="midnightblue" points="960.06,-255.96 969.9,-252.04 959.76,-248.97 960.06,-255.96"/>
</g>
<!-- Node5 -->
<g id="node5" class="node">
<title>Node5</title>
<g id="a_node5"><a xlink:href="class_mx_vector_program.html" target="_top" xlink:title=" ">
<polygon fill="none" stroke="black" points="1114.5,-263.5 1114.5,-282.5 1209.5,-282.5 1209.5,-263.5 1114.5,-263.5"/>
<text text-anchor="middle" x="1162" y="-270.5" font-family="Helvetica,sans-Serif" font-size="10.00">MxVectorProgram</text>
</a>
</g>
</g>
<!-- Node2&#45;&gt;Node5 -->
<g id="edge5" class="edge">
<title>Node2&#45;&gt;Node5</title>
<path fill="none" stroke="midnightblue" d="M1077.22,-259.38C1089.57,-261.39 1102.47,-263.49 1114.34,-265.41"/>
<polygon fill="midnightblue" stroke="midnightblue" points="1077.44,-255.87 1067.01,-257.72 1076.32,-262.78 1077.44,-255.87"/>
</g>
<!-- Node6 -->
<g id="node6" class="node">
<title>Node6</title>
<g id="a_node6"><a xlink:href="class_mx_color_wheel_program.html" target="_top" xlink:title=" ">
<polygon fill="none" stroke="black" points="1104,-194.5 1104,-213.5 1220,-213.5 1220,-194.5 1104,-194.5"/>
<text text-anchor="middle" x="1162" y="-201.5" font-family="Helvetica,sans-Serif" font-size="10.00">MxColorWheelProgram</text>
</a>
</g>
</g>
<!-- Node2&#45;&gt;Node6 -->
<g id="edge7" class="edge">
<title>Node2&#45;&gt;Node6</title>
<path fill="none" stroke="midnightblue" d="M1058.36,-237.37C1081.53,-229.83 1110.48,-220.42 1131.72,-213.52"/>
<polygon fill="midnightblue" stroke="midnightblue" points="1057.25,-234.05 1048.82,-240.47 1059.41,-240.71 1057.25,-234.05"/>
</g>
<!-- Node3&#45;&gt;Node2 -->
<g id="edge2" class="edge">
<title>Node3&#45;&gt;Node2</title>
<path fill="none" stroke="#9a32cd" stroke-dasharray="5,2" d="M859.76,-195.49C868.54,-201.24 878.96,-207.47 889,-212 916.57,-224.44 949.27,-234.05 974.79,-240.49"/>
<polygon fill="#9a32cd" stroke="#9a32cd" points="861.53,-192.46 851.28,-189.75 857.6,-198.26 861.53,-192.46"/>
<text text-anchor="middle" x="920.5" y="-237" font-family="Helvetica,sans-Serif" font-size="10.00"> pRenderer</text>
</g>
<!-- Node16 -->
<g id="node16" class="node">
<title>Node16</title>
<g id="a_node16"><a xlink:href="class_mx_gpu_program.html" target="_top" xlink:title=" ">
<polygon fill="none" stroke="black" points="976.5,-190.5 976.5,-209.5 1060.5,-209.5 1060.5,-190.5 976.5,-190.5"/>
<text text-anchor="middle" x="1018.5" y="-197.5" font-family="Helvetica,sans-Serif" font-size="10.00">MxGpuProgram</text>
</a>
</g>
</g>
<!-- Node3&#45;&gt;Node16 -->
<g id="edge22" class="edge">
<title>Node3&#45;&gt;Node16</title>
<path fill="none" stroke="#9a32cd" stroke-dasharray="5,2" d="M880.9,-190.64C883.63,-191.15 886.35,-191.61 889,-192 917.97,-196.28 950.94,-198.27 976.23,-199.2"/>
<polygon fill="#9a32cd" stroke="#9a32cd" points="881.54,-187.2 871.04,-188.63 880.14,-194.06 881.54,-187.2"/>
<text text-anchor="middle" x="920.5" y="-200" font-family="Helvetica,sans-Serif" font-size="10.00"> pRenderer</text>
</g>
<!-- Node4 -->
<g id="node4" class="node">
<title>Node4</title>
<g id="a_node4"><a xlink:title=" ">
<polygon fill="none" stroke="#bfbfbf" points="565,-98.5 565,-117.5 674,-117.5 674,-98.5 565,-98.5"/>
<text text-anchor="middle" x="619.5" y="-105.5" font-family="Helvetica,sans-Serif" font-size="10.00">MxOpenGLFunctions</text>
</a>
</g>
</g>
<!-- Node4&#45;&gt;Node3 -->
<g id="edge3" class="edge">
<title>Node4&#45;&gt;Node3</title>
<path fill="none" stroke="midnightblue" d="M680.3,-119.82C712.1,-127.13 751.45,-137.85 785,-152 797.29,-157.18 810.46,-164.46 820.34,-170.3"/>
<polygon fill="midnightblue" stroke="midnightblue" points="680.79,-116.34 670.26,-117.56 679.25,-123.17 680.79,-116.34"/>
</g>
<!-- Node5&#45;&gt;Node3 -->
<g id="edge4" class="edge">
<title>Node5&#45;&gt;Node3</title>
<path fill="none" stroke="#9a32cd" stroke-dasharray="5,2" d="M1104.04,-282.87C1045.14,-289.9 952.99,-291.68 889,-249 866.2,-233.79 849.83,-204.8 842.42,-189.7"/>
<polygon fill="#9a32cd" stroke="#9a32cd" points="1104.8,-286.3 1114.27,-281.56 1103.91,-279.36 1104.8,-286.3"/>
<text text-anchor="middle" x="1018.5" y="-289" font-family="Helvetica,sans-Serif" font-size="10.00"> pVectorProgram</text>
</g>
<!-- Node6&#45;&gt;Node3 -->
<g id="edge6" class="edge">
<title>Node6&#45;&gt;Node3</title>
<path fill="none" stroke="#9a32cd" stroke-dasharray="5,2" d="M1131.83,-190.47C1113.62,-182.79 1089.46,-173.94 1067,-170 998.21,-157.94 916.11,-167.12 871.28,-174.08"/>
<polygon fill="#9a32cd" stroke="#9a32cd" points="1130.46,-193.69 1141.02,-194.47 1133.25,-187.27 1130.46,-193.69"/>
<text text-anchor="middle" x="1018.5" y="-173" font-family="Helvetica,sans-Serif" font-size="10.00"> pColorWheelEffect</text>
</g>
<!-- Node7 -->
<g id="node7" class="node">
<title>Node7</title>
<g id="a_node7"><a xlink:href="class_mx_list.html" target="_top" xlink:title=" ">
<polygon fill="none" stroke="black" points="536,-38.5 536,-79.5 703,-79.5 703,-38.5 536,-38.5"/>
<text text-anchor="start" x="544" y="-67.5" font-family="Helvetica,sans-Serif" font-size="10.00">MxList&lt; MxCachedGpuArray,</text>
<text text-anchor="start" x="544" y="-56.5" font-family="Helvetica,sans-Serif" font-size="10.00"> MxClassInitializer&lt; MxCachedGpu</text>
<text text-anchor="middle" x="619.5" y="-45.5" font-family="Helvetica,sans-Serif" font-size="10.00">Array &gt;, 32 &gt;</text>
</a>
</g>
</g>
<!-- Node7&#45;&gt;Node3 -->
<g id="edge8" class="edge">
<title>Node7&#45;&gt;Node3</title>
<path fill="none" stroke="#9a32cd" stroke-dasharray="5,2" d="M712.89,-80.88C737.68,-89.38 763.54,-100.82 785,-116 805.88,-130.77 822.61,-156.41 830.7,-170.33"/>
<polygon fill="#9a32cd" stroke="#9a32cd" points="713.68,-77.46 703.08,-77.65 711.49,-84.1 713.68,-77.46"/>
<text text-anchor="middle" x="753" y="-119" font-family="Helvetica,sans-Serif" font-size="10.00"> pVboList</text>
</g>
<!-- Node8 -->
<g id="node8" class="node">
<title>Node8</title>
<g id="a_node8"><a xlink:href="struct_mx_list_1_1_data.html" target="_top" xlink:title="these members are public to allow unions">
<polygon fill="none" stroke="black" points="115,-70 115,-100 222,-100 222,-70 115,-70"/>
<text text-anchor="start" x="123" y="-88" font-family="Helvetica,sans-Serif" font-size="10.00">MxList&lt; T, Initializer,</text>
<text text-anchor="middle" x="168.5" y="-77" font-family="Helvetica,sans-Serif" font-size="10.00"> Prealloc &gt;::Data</text>
</a>
</g>
</g>
<!-- Node8&#45;&gt;Node7 -->
<g id="edge9" class="edge">
<title>Node8&#45;&gt;Node7</title>
<path fill="none" stroke="#9a32cd" stroke-dasharray="5,2" d="M210.78,-65.9C227.54,-59.14 247.32,-52.37 266,-49 357.28,-32.53 463.97,-39.05 535.87,-47.13"/>
<polygon fill="#9a32cd" stroke="#9a32cd" points="209.17,-62.78 201.29,-69.86 211.87,-69.24 209.17,-62.78"/>
<text text-anchor="middle" x="319.5" y="-52" font-family="Helvetica,sans-Serif" font-size="10.00"> d</text>
</g>
<!-- Node10 -->
<g id="node10" class="node">
<title>Node10</title>
<g id="a_node10"><a xlink:href="class_mx_list.html" target="_top" xlink:title=" ">
<polygon fill="none" stroke="black" points="266,-70 266,-100 373,-100 373,-70 266,-70"/>
<text text-anchor="start" x="274" y="-88" font-family="Helvetica,sans-Serif" font-size="10.00">MxList&lt; T, Initializer,</text>
<text text-anchor="middle" x="319.5" y="-77" font-family="Helvetica,sans-Serif" font-size="10.00"> Prealloc &gt;</text>
</a>
</g>
</g>
<!-- Node8&#45;&gt;Node10 -->
<g id="edge12" class="edge">
<title>Node8&#45;&gt;Node10</title>
<path fill="none" stroke="#9a32cd" stroke-dasharray="5,2" d="M232.21,-85C243.44,-85 255.03,-85 265.94,-85"/>
<polygon fill="#9a32cd" stroke="#9a32cd" points="232.03,-81.5 222.03,-85 232.03,-88.5 232.03,-81.5"/>
<text text-anchor="middle" x="244" y="-88" font-family="Helvetica,sans-Serif" font-size="10.00"> d</text>
</g>
<!-- Node13 -->
<g id="node13" class="node">
<title>Node13</title>
<g id="a_node13"><a xlink:href="class_mx_list.html" target="_top" xlink:title=" ">
<polygon fill="none" stroke="black" points="561.5,-136.5 561.5,-155.5 677.5,-155.5 677.5,-136.5 561.5,-136.5"/>
<text text-anchor="middle" x="619.5" y="-143.5" font-family="Helvetica,sans-Serif" font-size="10.00">MxList&lt; MxGpuArray &gt;</text>
</a>
</g>
</g>
<!-- Node8&#45;&gt;Node13 -->
<g id="edge16" class="edge">
<title>Node8&#45;&gt;Node13</title>
<path fill="none" stroke="#9a32cd" stroke-dasharray="5,2" d="M231.99,-101.14C243.29,-103.89 254.97,-106.62 266,-109 321.21,-120.93 334.93,-125.14 391,-132 448.74,-139.06 515.18,-142.63 561.29,-144.39"/>
<polygon fill="#9a32cd" stroke="#9a32cd" points="232.75,-97.72 222.2,-98.73 231.08,-104.52 232.75,-97.72"/>
<text text-anchor="middle" x="319.5" y="-133" font-family="Helvetica,sans-Serif" font-size="10.00"> d</text>
</g>
<!-- Node9 -->
<g id="node9" class="node">
<title>Node9</title>
<g id="a_node9"><a xlink:href="class_mx_ref_counter.html" target="_top" xlink:title=" ">
<polygon fill="none" stroke="black" points="0,-75.5 0,-94.5 78,-94.5 78,-75.5 0,-75.5"/>
<text text-anchor="middle" x="39" y="-82.5" font-family="Helvetica,sans-Serif" font-size="10.00">MxRefCounter</text>
</a>
</g>
</g>
<!-- Node9&#45;&gt;Node8 -->
<g id="edge10" class="edge">
<title>Node9&#45;&gt;Node8</title>
<path fill="none" stroke="midnightblue" d="M88.46,-85C97.03,-85 105.98,-85 114.66,-85"/>
<polygon fill="midnightblue" stroke="midnightblue" points="88.25,-81.5 78.25,-85 88.25,-88.5 88.25,-81.5"/>
</g>
<!-- Node10&#45;&gt;Node7 -->
<g id="edge11" class="edge">
<title>Node10&#45;&gt;Node7</title>
<path fill="none" stroke="orange" stroke-dasharray="5,2" d="M377.46,-67.54C382.01,-66.55 386.56,-65.68 391,-65 438.65,-57.73 492.55,-56.03 535.93,-56.24"/>
<polygon fill="orange" stroke="orange" points="376.46,-64.18 367.54,-69.9 378.08,-70.99 376.46,-64.18"/>
<text text-anchor="start" x="391" y="-90" font-family="Helvetica,sans-Serif" font-size="10.00"> &lt; MxCachedGpuArray,</text>
<text text-anchor="start" x="391" y="-79" font-family="Helvetica,sans-Serif" font-size="10.00"> MxClassInitializer</text>
<text text-anchor="middle" x="454.5" y="-68" font-family="Helvetica,sans-Serif" font-size="10.00">&lt; MxCachedGpuArray &gt;, 32 &gt;</text>
</g>
<!-- Node10&#45;&gt;Node13 -->
<g id="edge17" class="edge">
<title>Node10&#45;&gt;Node13</title>
<path fill="none" stroke="orange" stroke-dasharray="5,2" d="M383.32,-96.59C385.91,-97.07 388.48,-97.54 391,-98 447.43,-108.31 462.43,-106.78 518,-121 526.17,-123.09 527.88,-124.72 536,-127 548.03,-130.38 561.16,-133.61 573.34,-136.42"/>
<polygon fill="orange" stroke="orange" points="383.71,-93.11 373.24,-94.74 382.44,-99.99 383.71,-93.11"/>
<text text-anchor="middle" x="454.5" y="-124" font-family="Helvetica,sans-Serif" font-size="10.00"> &lt; MxGpuArray &gt;</text>
</g>
<!-- Node11 -->
<g id="node11" class="node">
<title>Node11</title>
<g id="a_node11"><a xlink:href="class_mx_abstract_atlas.html" target="_top" xlink:title=" ">
<polygon fill="none" stroke="black" points="575,-0.5 575,-19.5 664,-19.5 664,-0.5 575,-0.5"/>
<text text-anchor="middle" x="619.5" y="-7.5" font-family="Helvetica,sans-Serif" font-size="10.00">MxAbstractAtlas</text>
</a>
</g>
</g>
<!-- Node11&#45;&gt;Node3 -->
<g id="edge13" class="edge">
<title>Node11&#45;&gt;Node3</title>
<path fill="none" stroke="#9a32cd" stroke-dasharray="5,2" d="M674.57,-16.98C710.3,-24.27 755.76,-39.08 785,-69 814.49,-99.19 828.95,-149.52 833.93,-170.43"/>
<polygon fill="#9a32cd" stroke="#9a32cd" points="674.77,-13.46 664.3,-15.03 673.47,-20.33 674.77,-13.46"/>
<text text-anchor="middle" x="753" y="-72" font-family="Helvetica,sans-Serif" font-size="10.00"> pIconAtlas</text>
</g>
<!-- Node12 -->
<g id="node12" class="node">
<title>Node12</title>
<g id="a_node12"><a xlink:href="class_mx_texture.html" target="_top" xlink:title=" ">
<polygon fill="none" stroke="black" points="588.5,-212.5 588.5,-231.5 650.5,-231.5 650.5,-212.5 588.5,-212.5"/>
<text text-anchor="middle" x="619.5" y="-219.5" font-family="Helvetica,sans-Serif" font-size="10.00">MxTexture</text>
</a>
</g>
</g>
<!-- Node12&#45;&gt;Node3 -->
<g id="edge14" class="edge">
<title>Node12&#45;&gt;Node3</title>
<path fill="none" stroke="#9a32cd" stroke-dasharray="5,2" d="M660.88,-215.22C694.25,-209.48 742.82,-200.8 785,-192 790.79,-190.79 796.92,-189.42 802.86,-188.05"/>
<polygon fill="#9a32cd" stroke="#9a32cd" points="659.87,-211.85 650.61,-216.98 661.05,-218.75 659.87,-211.85"/>
<text text-anchor="middle" x="753" y="-207" font-family="Helvetica,sans-Serif" font-size="10.00"> pTextures</text>
</g>
<!-- Node13&#45;&gt;Node3 -->
<g id="edge15" class="edge">
<title>Node13&#45;&gt;Node3</title>
<path fill="none" stroke="#9a32cd" stroke-dasharray="5,2" d="M687.87,-151.93C717.78,-155.15 753.31,-159.76 785,-166 791.22,-167.22 797.79,-168.81 804.07,-170.46"/>
<polygon fill="#9a32cd" stroke="#9a32cd" points="687.85,-148.41 677.54,-150.85 687.12,-155.37 687.85,-148.41"/>
<text text-anchor="middle" x="753" y="-169" font-family="Helvetica,sans-Serif" font-size="10.00"> pBufferViews</text>
</g>
<!-- Node14 -->
<g id="node14" class="node">
<title>Node14</title>
<g id="a_node14"><a xlink:href="class_mx_vector.html" target="_top" xlink:title=" ">
<polygon fill="none" stroke="black" points="572,-174.5 572,-193.5 667,-193.5 667,-174.5 572,-174.5"/>
<text text-anchor="middle" x="619.5" y="-181.5" font-family="Helvetica,sans-Serif" font-size="10.00">MxVector&lt; 2, int &gt;</text>
</a>
</g>
</g>
<!-- Node14&#45;&gt;Node3 -->
<g id="edge18" class="edge">
<title>Node14&#45;&gt;Node3</title>
<path fill="none" stroke="#9a32cd" stroke-dasharray="5,2" d="M677.22,-182.1C691.51,-181.68 706.82,-181.27 721,-181 748.55,-180.47 779.81,-180.22 802.78,-180.1"/>
<polygon fill="#9a32cd" stroke="#9a32cd" points="676.92,-178.6 667.03,-182.41 677.13,-185.6 676.92,-178.6"/>
<text text-anchor="middle" x="753" y="-184" font-family="Helvetica,sans-Serif" font-size="10.00"> pScreenSize</text>
</g>
<!-- Node15 -->
<g id="node15" class="node">
<title>Node15</title>
<g id="a_node15"><a xlink:href="class_mx_vector.html" target="_top" xlink:title=" ">
<polygon fill="none" stroke="black" points="273,-175.5 273,-194.5 366,-194.5 366,-175.5 273,-175.5"/>
<text text-anchor="middle" x="319.5" y="-182.5" font-family="Helvetica,sans-Serif" font-size="10.00">MxVector&lt; N, T &gt;</text>
</a>
</g>
</g>
<!-- Node15&#45;&gt;Node14 -->
<g id="edge19" class="edge">
<title>Node15&#45;&gt;Node14</title>
<path fill="none" stroke="orange" stroke-dasharray="5,2" d="M376.26,-184.81C432.72,-184.62 519.03,-184.33 571.94,-184.16"/>
<polygon fill="orange" stroke="orange" points="376.07,-181.31 366.08,-184.85 376.1,-188.31 376.07,-181.31"/>
<text text-anchor="middle" x="454.5" y="-188" font-family="Helvetica,sans-Serif" font-size="10.00"> &lt; 2, int &gt;</text>
</g>
<!-- Node16&#45;&gt;Node3 -->
<g id="edge21" class="edge">
<title>Node16&#45;&gt;Node3</title>
<path fill="none" stroke="#9a32cd" stroke-dasharray="5,2" d="M981,-187.5C971.66,-184.83 961.55,-182.4 952,-181 924.98,-177.04 893.96,-177.06 871.11,-177.92"/>
<polygon fill="#9a32cd" stroke="#9a32cd" points="980.19,-190.92 990.78,-190.45 982.22,-184.21 980.19,-190.92"/>
<text text-anchor="middle" x="920.5" y="-184" font-family="Helvetica,sans-Serif" font-size="10.00"> pCurrProgram</text>
</g>
</g>
</svg>
