<?xml version="1.0" encoding="UTF-8" standalone="no"?>
<!DOCTYPE svg PUBLIC "-//W3C//DTD SVG 1.1//EN"
 "http://www.w3.org/Graphics/SVG/1.1/DTD/svg11.dtd">
<!-- Generated by graphviz version 2.44.0 ()
 -->
<!-- Title: MxGpuProgram Pages: 1 -->
<svg width="1243pt" height="389pt"
 viewBox="0.00 0.00 1243.00 389.00" xmlns="http://www.w3.org/2000/svg" xmlns:xlink="http://www.w3.org/1999/xlink">
<g id="graph0" class="graph" transform="scale(1 1) rotate(0) translate(4 385)">
<title>MxGpuProgram</title>
<!-- Node1 -->
<g id="node1" class="node">
<title>Node1</title>
<g id="a_node1"><a xlink:title=" ">
<polygon fill="#bfbfbf" stroke="black" points="595.5,-352.5 595.5,-371.5 679.5,-371.5 679.5,-352.5 595.5,-352.5"/>
<text text-anchor="middle" x="637.5" y="-359.5" font-family="Helvetica,sans-Serif" font-size="10.00">MxGpuProgram</text>
</a>
</g>
</g>
<!-- Node2 -->
<g id="node2" class="node">
<title>Node2</title>
<g id="a_node2"><a xlink:href="class_mx_renderer.html" target="_top" xlink:title="The MxRenderer keeps track of the rendering state and resources.">
<polygon fill="none" stroke="black" points="834,-230.5 834,-249.5 902,-249.5 902,-230.5 834,-230.5"/>
<text text-anchor="middle" x="868" y="-237.5" font-family="Helvetica,sans-Serif" font-size="10.00">MxRenderer</text>
</a>
</g>
</g>
<!-- Node1&#45;&gt;Node2 -->
<g id="edge22" class="edge">
<title>Node1&#45;&gt;Node2</title>
<path fill="none" stroke="#9a32cd" stroke-dasharray="5,2" d="M687.4,-349.84C732.36,-338.02 795.11,-319.76 816,-305 837.08,-290.1 853.73,-264.02 861.76,-249.84"/>
<polygon fill="#9a32cd" stroke="#9a32cd" points="686.33,-346.5 677.53,-352.4 688.09,-353.27 686.33,-346.5"/>
<text text-anchor="middle" x="780.5" y="-335" font-family="Helvetica,sans-Serif" font-size="10.00"> pCurrProgram</text>
</g>
<!-- Node2&#45;&gt;Node1 -->
<g id="edge1" class="edge">
<title>Node2&#45;&gt;Node1</title>
<path fill="none" stroke="#9a32cd" stroke-dasharray="5,2" d="M863.67,-259.87C858.34,-284.79 845.35,-326.7 816,-347 776.07,-374.62 718.36,-374.01 679.69,-369.4"/>
<polygon fill="#9a32cd" stroke="#9a32cd" points="867.16,-260.24 865.61,-249.76 860.29,-258.92 867.16,-260.24"/>
<text text-anchor="middle" x="780.5" y="-373" font-family="Helvetica,sans-Serif" font-size="10.00"> pRenderer</text>
</g>
<!-- Node5 -->
<g id="node5" class="node">
<title>Node5</title>
<g id="a_node5"><a xlink:href="class_mx_shader_program.html" target="_top" xlink:title=" ">
<polygon fill="none" stroke="black" points="985,-258.5 985,-277.5 1082,-277.5 1082,-258.5 985,-258.5"/>
<text text-anchor="middle" x="1033.5" y="-265.5" font-family="Helvetica,sans-Serif" font-size="10.00">MxShaderProgram</text>
</a>
</g>
</g>
<!-- Node2&#45;&gt;Node5 -->
<g id="edge5" class="edge">
<title>Node2&#45;&gt;Node5</title>
<path fill="none" stroke="#9a32cd" stroke-dasharray="5,2" d="M911.99,-247.36C934.39,-251.2 961.85,-255.9 984.9,-259.85"/>
<polygon fill="#9a32cd" stroke="#9a32cd" points="912.53,-243.9 902.09,-245.67 911.35,-250.8 912.53,-243.9"/>
<text text-anchor="middle" x="943.5" y="-259" font-family="Helvetica,sans-Serif" font-size="10.00"> pRenderer</text>
</g>
<!-- Node3 -->
<g id="node3" class="node">
<title>Node3</title>
<g id="a_node3"><a xlink:title=" ">
<polygon fill="none" stroke="#bfbfbf" points="583,-306.5 583,-325.5 692,-325.5 692,-306.5 583,-306.5"/>
<text text-anchor="middle" x="637.5" y="-313.5" font-family="Helvetica,sans-Serif" font-size="10.00">MxOpenGLFunctions</text>
</a>
</g>
</g>
<!-- Node3&#45;&gt;Node2 -->
<g id="edge2" class="edge">
<title>Node3&#45;&gt;Node2</title>
<path fill="none" stroke="midnightblue" d="M702.22,-310.33C737.06,-305.47 780.27,-296.5 816,-280 832.14,-272.55 847.79,-259.06 857.4,-249.82"/>
<polygon fill="midnightblue" stroke="midnightblue" points="701.61,-306.88 692.16,-311.65 702.53,-313.82 701.61,-306.88"/>
</g>
<!-- Node4 -->
<g id="node4" class="node">
<title>Node4</title>
<g id="a_node4"><a xlink:href="class_mx_vector_program.html" target="_top" xlink:title=" ">
<polygon fill="none" stroke="black" points="1129.5,-301.5 1129.5,-320.5 1224.5,-320.5 1224.5,-301.5 1129.5,-301.5"/>
<text text-anchor="middle" x="1177" y="-308.5" font-family="Helvetica,sans-Serif" font-size="10.00">MxVectorProgram</text>
</a>
</g>
</g>
<!-- Node4&#45;&gt;Node2 -->
<g id="edge3" class="edge">
<title>Node4&#45;&gt;Node2</title>
<path fill="none" stroke="#9a32cd" stroke-dasharray="5,2" d="M1119.09,-309.79C1065.79,-306.9 984.84,-297.94 920,-271 906.41,-265.35 892.21,-256.43 882.25,-249.61"/>
<polygon fill="#9a32cd" stroke="#9a32cd" points="1119.21,-313.3 1129.37,-310.29 1119.55,-306.31 1119.21,-313.3"/>
<text text-anchor="middle" x="1033.5" y="-310" font-family="Helvetica,sans-Serif" font-size="10.00"> pVectorProgram</text>
</g>
<!-- Node5&#45;&gt;Node4 -->
<g id="edge4" class="edge">
<title>Node5&#45;&gt;Node4</title>
<path fill="none" stroke="midnightblue" d="M1075.65,-280.51C1097.68,-287.2 1124.37,-295.31 1144.68,-301.48"/>
<polygon fill="midnightblue" stroke="midnightblue" points="1076.49,-277.1 1065.9,-277.54 1074.45,-283.8 1076.49,-277.1"/>
</g>
<!-- Node6 -->
<g id="node6" class="node">
<title>Node6</title>
<g id="a_node6"><a xlink:href="class_mx_color_wheel_program.html" target="_top" xlink:title=" ">
<polygon fill="none" stroke="black" points="1119,-252.5 1119,-271.5 1235,-271.5 1235,-252.5 1119,-252.5"/>
<text text-anchor="middle" x="1177" y="-259.5" font-family="Helvetica,sans-Serif" font-size="10.00">MxColorWheelProgram</text>
</a>
</g>
</g>
<!-- Node5&#45;&gt;Node6 -->
<g id="edge7" class="edge">
<title>Node5&#45;&gt;Node6</title>
<path fill="none" stroke="midnightblue" d="M1092.1,-265.56C1100.82,-265.19 1109.83,-264.81 1118.55,-264.44"/>
<polygon fill="midnightblue" stroke="midnightblue" points="1091.85,-262.06 1082.01,-265.99 1092.15,-269.06 1091.85,-262.06"/>
</g>
<!-- Node16 -->
<g id="node16" class="node">
<title>Node16</title>
<g id="a_node16"><a xlink:href="class_mx_icon_program.html" target="_top" xlink:title=" ">
<polygon fill="none" stroke="black" points="1134.5,-191.5 1134.5,-210.5 1219.5,-210.5 1219.5,-191.5 1134.5,-191.5"/>
<text text-anchor="middle" x="1177" y="-198.5" font-family="Helvetica,sans-Serif" font-size="10.00">MxIconProgram</text>
</a>
</g>
</g>
<!-- Node5&#45;&gt;Node16 -->
<g id="edge21" class="edge">
<title>Node5&#45;&gt;Node16</title>
<path fill="none" stroke="midnightblue" d="M1063.91,-254.07C1091.41,-241.06 1131.72,-221.97 1155.76,-210.58"/>
<polygon fill="midnightblue" stroke="midnightblue" points="1062.31,-250.96 1054.77,-258.4 1065.31,-257.28 1062.31,-250.96"/>
</g>
<!-- Node6&#45;&gt;Node2 -->
<g id="edge6" class="edge">
<title>Node6&#45;&gt;Node2</title>
<path fill="none" stroke="#9a32cd" stroke-dasharray="5,2" d="M1136.39,-249.55C1119.77,-244.94 1100.13,-240.28 1082,-238 1018.89,-230.07 944.43,-233.7 902.36,-236.93"/>
<polygon fill="#9a32cd" stroke="#9a32cd" points="1135.73,-253 1146.31,-252.39 1137.66,-246.27 1135.73,-253"/>
<text text-anchor="middle" x="1033.5" y="-241" font-family="Helvetica,sans-Serif" font-size="10.00"> pColorWheelEffect</text>
</g>
<!-- Node7 -->
<g id="node7" class="node">
<title>Node7</title>
<g id="a_node7"><a xlink:href="class_mx_abstract_atlas.html" target="_top" xlink:title=" ">
<polygon fill="none" stroke="black" points="593,-268.5 593,-287.5 682,-287.5 682,-268.5 593,-268.5"/>
<text text-anchor="middle" x="637.5" y="-275.5" font-family="Helvetica,sans-Serif" font-size="10.00">MxAbstractAtlas</text>
</a>
</g>
</g>
<!-- Node7&#45;&gt;Node2 -->
<g id="edge8" class="edge">
<title>Node7&#45;&gt;Node2</title>
<path fill="none" stroke="#9a32cd" stroke-dasharray="5,2" d="M692.28,-272.62C727.64,-268.62 774.82,-262.4 816,-254 822.12,-252.75 828.58,-251.18 834.78,-249.54"/>
<polygon fill="#9a32cd" stroke="#9a32cd" points="691.73,-269.16 682.18,-273.74 692.5,-276.12 691.73,-269.16"/>
<text text-anchor="middle" x="780.5" y="-268" font-family="Helvetica,sans-Serif" font-size="10.00"> pIconAtlas</text>
</g>
<!-- Node8 -->
<g id="node8" class="node">
<title>Node8</title>
<g id="a_node8"><a xlink:href="class_mx_texture.html" target="_top" xlink:title=" ">
<polygon fill="none" stroke="black" points="606.5,-230.5 606.5,-249.5 668.5,-249.5 668.5,-230.5 606.5,-230.5"/>
<text text-anchor="middle" x="637.5" y="-237.5" font-family="Helvetica,sans-Serif" font-size="10.00">MxTexture</text>
</a>
</g>
</g>
<!-- Node8&#45;&gt;Node2 -->
<g id="edge9" class="edge">
<title>Node8&#45;&gt;Node2</title>
<path fill="none" stroke="#9a32cd" stroke-dasharray="5,2" d="M678.94,-240C723.08,-240 792.94,-240 833.94,-240"/>
<polygon fill="#9a32cd" stroke="#9a32cd" points="678.84,-236.5 668.84,-240 678.84,-243.5 678.84,-236.5"/>
<text text-anchor="middle" x="780.5" y="-243" font-family="Helvetica,sans-Serif" font-size="10.00"> pTextures</text>
</g>
<!-- Node9 -->
<g id="node9" class="node">
<title>Node9</title>
<g id="a_node9"><a xlink:href="class_mx_list.html" target="_top" xlink:title=" ">
<polygon fill="none" stroke="black" points="579.5,-154.5 579.5,-173.5 695.5,-173.5 695.5,-154.5 579.5,-154.5"/>
<text text-anchor="middle" x="637.5" y="-161.5" font-family="Helvetica,sans-Serif" font-size="10.00">MxList&lt; MxGpuArray &gt;</text>
</a>
</g>
</g>
<!-- Node9&#45;&gt;Node2 -->
<g id="edge10" class="edge">
<title>Node9&#45;&gt;Node2</title>
<path fill="none" stroke="#9a32cd" stroke-dasharray="5,2" d="M706.25,-168.98C740.42,-173.45 781.77,-181.92 816,-198 832.82,-205.9 848.77,-220.62 858.22,-230.37"/>
<polygon fill="#9a32cd" stroke="#9a32cd" points="706.24,-165.45 695.89,-167.72 705.4,-172.4 706.24,-165.45"/>
<text text-anchor="middle" x="780.5" y="-201" font-family="Helvetica,sans-Serif" font-size="10.00"> pBufferViews</text>
</g>
<!-- Node10 -->
<g id="node10" class="node">
<title>Node10</title>
<g id="a_node10"><a xlink:href="struct_mx_list_1_1_data.html" target="_top" xlink:title="these members are public to allow unions">
<polygon fill="none" stroke="black" points="115,-121 115,-151 222,-151 222,-121 115,-121"/>
<text text-anchor="start" x="123" y="-139" font-family="Helvetica,sans-Serif" font-size="10.00">MxList&lt; T, Initializer,</text>
<text text-anchor="middle" x="168.5" y="-128" font-family="Helvetica,sans-Serif" font-size="10.00"> Prealloc &gt;::Data</text>
</a>
</g>
</g>
<!-- Node10&#45;&gt;Node9 -->
<g id="edge11" class="edge">
<title>Node10&#45;&gt;Node9</title>
<path fill="none" stroke="#9a32cd" stroke-dasharray="5,2" d="M215.43,-154.56C231.19,-160.03 249.12,-165.27 266,-168 375.7,-185.71 506.06,-177.7 579.24,-170.61"/>
<polygon fill="#9a32cd" stroke="#9a32cd" points="216.52,-151.23 205.92,-151.15 214.15,-157.82 216.52,-151.23"/>
<text text-anchor="middle" x="319.5" y="-181" font-family="Helvetica,sans-Serif" font-size="10.00"> d</text>
</g>
<!-- Node12 -->
<g id="node12" class="node">
<title>Node12</title>
<g id="a_node12"><a xlink:href="class_mx_list.html" target="_top" xlink:title=" ">
<polygon fill="none" stroke="black" points="266,-71 266,-101 373,-101 373,-71 266,-71"/>
<text text-anchor="start" x="274" y="-89" font-family="Helvetica,sans-Serif" font-size="10.00">MxList&lt; T, Initializer,</text>
<text text-anchor="middle" x="319.5" y="-78" font-family="Helvetica,sans-Serif" font-size="10.00"> Prealloc &gt;</text>
</a>
</g>
</g>
<!-- Node10&#45;&gt;Node12 -->
<g id="edge14" class="edge">
<title>Node10&#45;&gt;Node12</title>
<path fill="none" stroke="#9a32cd" stroke-dasharray="5,2" d="M224.12,-117.67C240.38,-112.21 258,-106.3 273.57,-101.08"/>
<polygon fill="#9a32cd" stroke="#9a32cd" points="222.57,-114.5 214.2,-121 224.8,-121.14 222.57,-114.5"/>
<text text-anchor="middle" x="244" y="-114" font-family="Helvetica,sans-Serif" font-size="10.00"> d</text>
</g>
<!-- Node15 -->
<g id="node15" class="node">
<title>Node15</title>
<g id="a_node15"><a xlink:href="class_mx_list.html" target="_top" xlink:title=" ">
<polygon fill="none" stroke="black" points="552,-94.5 552,-135.5 723,-135.5 723,-94.5 552,-94.5"/>
<text text-anchor="start" x="560" y="-123.5" font-family="Helvetica,sans-Serif" font-size="10.00">MxList&lt; MxRenderer</text>
<text text-anchor="start" x="560" y="-112.5" font-family="Helvetica,sans-Serif" font-size="10.00">::ReusableVbo, MxClassInitializer</text>
<text text-anchor="middle" x="637.5" y="-101.5" font-family="Helvetica,sans-Serif" font-size="10.00">&lt; MxRenderer::ReusableVbo &gt;, 32 &gt;</text>
</a>
</g>
</g>
<!-- Node10&#45;&gt;Node15 -->
<g id="edge18" class="edge">
<title>Node10&#45;&gt;Node15</title>
<path fill="none" stroke="#9a32cd" stroke-dasharray="5,2" d="M232.32,-143.69C304.52,-151.12 426.41,-159.31 530,-145 544.65,-142.98 560.12,-139.46 574.6,-135.52"/>
<polygon fill="#9a32cd" stroke="#9a32cd" points="232.35,-140.17 222.04,-142.6 231.61,-147.14 232.35,-140.17"/>
<text text-anchor="middle" x="319.5" y="-156" font-family="Helvetica,sans-Serif" font-size="10.00"> d</text>
</g>
<!-- Node17 -->
<g id="node17" class="node">
<title>Node17</title>
<g id="a_node17"><a xlink:href="class_mx_list.html" target="_top" xlink:title=" ">
<polygon fill="none" stroke="black" points="548,-0.5 548,-41.5 727,-41.5 727,-0.5 548,-0.5"/>
<text text-anchor="start" x="556" y="-29.5" font-family="Helvetica,sans-Serif" font-size="10.00">MxList&lt; MxRenderer</text>
<text text-anchor="start" x="556" y="-18.5" font-family="Helvetica,sans-Serif" font-size="10.00">::ReusableBuffer, MxClassInitializer</text>
<text text-anchor="middle" x="637.5" y="-7.5" font-family="Helvetica,sans-Serif" font-size="10.00">&lt; MxRenderer::ReusableBuffer &gt;, 32 &gt;</text>
</a>
</g>
</g>
<!-- Node10&#45;&gt;Node17 -->
<g id="edge24" class="edge">
<title>Node10&#45;&gt;Node17</title>
<path fill="none" stroke="#9a32cd" stroke-dasharray="5,2" d="M189.62,-113.29C207.84,-93.99 236.31,-66.81 266,-50 352.32,-1.13 468.6,-0.5 547.71,-7.79"/>
<polygon fill="#9a32cd" stroke="#9a32cd" points="186.92,-111.06 182.7,-120.77 192.06,-115.81 186.92,-111.06"/>
<text text-anchor="middle" x="319.5" y="-53" font-family="Helvetica,sans-Serif" font-size="10.00"> d</text>
</g>
<!-- Node11 -->
<g id="node11" class="node">
<title>Node11</title>
<g id="a_node11"><a xlink:href="class_mx_ref_counter.html" target="_top" xlink:title=" ">
<polygon fill="none" stroke="black" points="0,-126.5 0,-145.5 78,-145.5 78,-126.5 0,-126.5"/>
<text text-anchor="middle" x="39" y="-133.5" font-family="Helvetica,sans-Serif" font-size="10.00">MxRefCounter</text>
</a>
</g>
</g>
<!-- Node11&#45;&gt;Node10 -->
<g id="edge12" class="edge">
<title>Node11&#45;&gt;Node10</title>
<path fill="none" stroke="midnightblue" d="M88.46,-136C97.03,-136 105.98,-136 114.66,-136"/>
<polygon fill="midnightblue" stroke="midnightblue" points="88.25,-132.5 78.25,-136 88.25,-139.5 88.25,-132.5"/>
</g>
<!-- Node12&#45;&gt;Node9 -->
<g id="edge13" class="edge">
<title>Node12&#45;&gt;Node9</title>
<path fill="none" stroke="orange" stroke-dasharray="5,2" d="M369.67,-104.33C376.78,-106.72 384.04,-109.02 391,-111 456.22,-129.54 532.79,-145.11 582.85,-154.48"/>
<polygon fill="orange" stroke="orange" points="370.7,-100.99 360.11,-101.04 368.42,-107.61 370.7,-100.99"/>
<text text-anchor="middle" x="460.5" y="-146" font-family="Helvetica,sans-Serif" font-size="10.00"> &lt; MxGpuArray &gt;</text>
</g>
<!-- Node12&#45;&gt;Node15 -->
<g id="edge19" class="edge">
<title>Node12&#45;&gt;Node15</title>
<path fill="none" stroke="orange" stroke-dasharray="5,2" d="M383.45,-76.93C425.28,-72.53 481.26,-69.77 530,-78 549.59,-81.31 570.39,-87.81 588.36,-94.45"/>
<polygon fill="orange" stroke="orange" points="382.96,-73.46 373.4,-78.04 383.73,-80.42 382.96,-73.46"/>
<text text-anchor="start" x="391" y="-103" font-family="Helvetica,sans-Serif" font-size="10.00"> &lt; MxRenderer::ReusableVbo,</text>
<text text-anchor="start" x="391" y="-92" font-family="Helvetica,sans-Serif" font-size="10.00"> MxClassInitializer&lt; MxRenderer</text>
<text text-anchor="middle" x="460.5" y="-81" font-family="Helvetica,sans-Serif" font-size="10.00">::ReusableVbo &gt;, 32 &gt;</text>
</g>
<!-- Node12&#45;&gt;Node17 -->
<g id="edge25" class="edge">
<title>Node12&#45;&gt;Node17</title>
<path fill="none" stroke="orange" stroke-dasharray="5,2" d="M343.96,-64.31C356.85,-53.77 373.7,-42.1 391,-36 440.94,-18.39 500.1,-14.32 547.83,-14.81"/>
<polygon fill="orange" stroke="orange" points="341.45,-61.85 336.1,-70.99 345.99,-67.18 341.45,-61.85"/>
<text text-anchor="start" x="391" y="-61" font-family="Helvetica,sans-Serif" font-size="10.00"> &lt; MxRenderer::ReusableBuffer,</text>
<text text-anchor="start" x="391" y="-50" font-family="Helvetica,sans-Serif" font-size="10.00"> MxClassInitializer&lt; MxRenderer</text>
<text text-anchor="middle" x="460.5" y="-39" font-family="Helvetica,sans-Serif" font-size="10.00">::ReusableBuffer &gt;, 32 &gt;</text>
</g>
<!-- Node13 -->
<g id="node13" class="node">
<title>Node13</title>
<g id="a_node13"><a xlink:href="class_mx_vector.html" target="_top" xlink:title=" ">
<polygon fill="none" stroke="black" points="590,-192.5 590,-211.5 685,-211.5 685,-192.5 590,-192.5"/>
<text text-anchor="middle" x="637.5" y="-199.5" font-family="Helvetica,sans-Serif" font-size="10.00">MxVector&lt; 2, int &gt;</text>
</a>
</g>
</g>
<!-- Node13&#45;&gt;Node2 -->
<g id="edge15" class="edge">
<title>Node13&#45;&gt;Node2</title>
<path fill="none" stroke="#9a32cd" stroke-dasharray="5,2" d="M695.23,-207.06C730.26,-210.74 776.01,-216.58 816,-225 823.04,-226.48 830.53,-228.45 837.54,-230.48"/>
<polygon fill="#9a32cd" stroke="#9a32cd" points="695.48,-203.56 685.18,-206.03 694.77,-210.53 695.48,-203.56"/>
<text text-anchor="middle" x="780.5" y="-228" font-family="Helvetica,sans-Serif" font-size="10.00"> pScreenSize</text>
</g>
<!-- Node14 -->
<g id="node14" class="node">
<title>Node14</title>
<g id="a_node14"><a xlink:href="class_mx_vector.html" target="_top" xlink:title=" ">
<polygon fill="none" stroke="black" points="273,-224.5 273,-243.5 366,-243.5 366,-224.5 273,-224.5"/>
<text text-anchor="middle" x="319.5" y="-231.5" font-family="Helvetica,sans-Serif" font-size="10.00">MxVector&lt; N, T &gt;</text>
</a>
</g>
</g>
<!-- Node14&#45;&gt;Node13 -->
<g id="edge16" class="edge">
<title>Node14&#45;&gt;Node13</title>
<path fill="none" stroke="orange" stroke-dasharray="5,2" d="M376.28,-228.35C437,-222.2 533.01,-212.48 589.87,-206.72"/>
<polygon fill="orange" stroke="orange" points="375.71,-224.89 366.11,-229.38 376.41,-231.86 375.71,-224.89"/>
<text text-anchor="middle" x="460.5" y="-229" font-family="Helvetica,sans-Serif" font-size="10.00"> &lt; 2, int &gt;</text>
</g>
<!-- Node15&#45;&gt;Node2 -->
<g id="edge17" class="edge">
<title>Node15&#45;&gt;Node2</title>
<path fill="none" stroke="#9a32cd" stroke-dasharray="5,2" d="M733.12,-126.01C761.7,-132.74 791.88,-143.58 816,-161 841.01,-179.07 856.89,-213.52 863.49,-230.31"/>
<polygon fill="#9a32cd" stroke="#9a32cd" points="733.6,-122.53 723.08,-123.8 732.09,-129.37 733.6,-122.53"/>
<text text-anchor="middle" x="780.5" y="-164" font-family="Helvetica,sans-Serif" font-size="10.00"> pReusableVbos</text>
</g>
<!-- Node16&#45;&gt;Node2 -->
<g id="edge20" class="edge">
<title>Node16&#45;&gt;Node2</title>
<path fill="none" stroke="#9a32cd" stroke-dasharray="5,2" d="M1123.74,-204.53C1085.28,-207.41 1031.78,-211.97 985,-218 955.94,-221.75 948.77,-223.47 920,-229 914.22,-230.11 908.08,-231.37 902.15,-232.62"/>
<polygon fill="#9a32cd" stroke="#9a32cd" points="1124.45,-207.99 1134.17,-203.77 1123.94,-201.01 1124.45,-207.99"/>
<text text-anchor="middle" x="1033.5" y="-221" font-family="Helvetica,sans-Serif" font-size="10.00"> pIconProgram</text>
</g>
<!-- Node17&#45;&gt;Node2 -->
<g id="edge23" class="edge">
<title>Node17&#45;&gt;Node2</title>
<path fill="none" stroke="#9a32cd" stroke-dasharray="5,2" d="M709.5,-45.62C745.38,-61.1 787.28,-84.22 816,-116 847.52,-150.89 861.05,-207.92 865.36,-230.43"/>
<polygon fill="#9a32cd" stroke="#9a32cd" points="710.62,-42.3 700.04,-41.66 707.91,-48.75 710.62,-42.3"/>
<text text-anchor="middle" x="780.5" y="-119" font-family="Helvetica,sans-Serif" font-size="10.00"> pReusableMem</text>
</g>
</g>
</svg>
