<?xml version="1.0" encoding="UTF-8" standalone="no"?>
<!DOCTYPE svg PUBLIC "-//W3C//DTD SVG 1.1//EN"
 "http://www.w3.org/Graphics/SVG/1.1/DTD/svg11.dtd">
<!-- Generated by graphviz version 2.44.0 ()
 -->
<!-- Title: MxRenderer Pages: 1 -->
<svg width="1087pt" height="356pt"
 viewBox="0.00 0.00 1087.00 356.00" xmlns="http://www.w3.org/2000/svg" xmlns:xlink="http://www.w3.org/1999/xlink">
<g id="graph0" class="graph" transform="scale(1 1) rotate(0) translate(4 352)">
<title>MxRenderer</title>
<!-- Node1 -->
<g id="node1" class="node">
<title>Node1</title>
<g id="a_node1"><a xlink:title="The MxRenderer keeps track of the rendering state and resources.">
<polygon fill="#bfbfbf" stroke="black" points="828,-214.5 828,-233.5 896,-233.5 896,-214.5 828,-214.5"/>
<text text-anchor="middle" x="862" y="-221.5" font-family="Helvetica,sans-Serif" font-size="10.00">MxRenderer</text>
</a>
</g>
</g>
<!-- Node14 -->
<g id="node14" class="node">
<title>Node14</title>
<g id="a_node14"><a xlink:href="class_mx_gpu_program.html" target="_top" xlink:title=" ">
<polygon fill="none" stroke="black" points="995,-214.5 995,-233.5 1079,-233.5 1079,-214.5 995,-214.5"/>
<text text-anchor="middle" x="1037" y="-221.5" font-family="Helvetica,sans-Serif" font-size="10.00">MxGpuProgram</text>
</a>
</g>
</g>
<!-- Node1&#45;&gt;Node14 -->
<g id="edge19" class="edge">
<title>Node1&#45;&gt;Node14</title>
<path fill="none" stroke="#9a32cd" stroke-dasharray="5,2" d="M906.7,-224C933.74,-224 968.25,-224 994.81,-224"/>
<polygon fill="#9a32cd" stroke="#9a32cd" points="906.36,-220.5 896.36,-224 906.36,-227.5 906.36,-220.5"/>
<text text-anchor="middle" x="945.5" y="-227" font-family="Helvetica,sans-Serif" font-size="10.00"> pRenderer</text>
</g>
<!-- Node2 -->
<g id="node2" class="node">
<title>Node2</title>
<g id="a_node2"><a xlink:title=" ">
<polygon fill="none" stroke="#bfbfbf" points="579,-328.5 579,-347.5 688,-347.5 688,-328.5 579,-328.5"/>
<text text-anchor="middle" x="633.5" y="-335.5" font-family="Helvetica,sans-Serif" font-size="10.00">MxOpenGLFunctions</text>
</a>
</g>
</g>
<!-- Node2&#45;&gt;Node1 -->
<g id="edge1" class="edge">
<title>Node2&#45;&gt;Node1</title>
<path fill="none" stroke="midnightblue" d="M698.45,-337.19C733.95,-333.97 777.38,-325.18 810,-303 835.65,-285.56 851.32,-250.49 857.69,-233.57"/>
<polygon fill="midnightblue" stroke="midnightblue" points="697.89,-333.73 688.19,-337.99 698.43,-340.71 697.89,-333.73"/>
</g>
<!-- Node3 -->
<g id="node3" class="node">
<title>Node3</title>
<g id="a_node3"><a xlink:href="struct_mx_renderer_1_1_texture__p.html" target="_top" xlink:title=" ">
<polygon fill="none" stroke="black" points="575.5,-290.5 575.5,-309.5 691.5,-309.5 691.5,-290.5 575.5,-290.5"/>
<text text-anchor="middle" x="633.5" y="-297.5" font-family="Helvetica,sans-Serif" font-size="10.00">MxRenderer::Texture_p</text>
</a>
</g>
</g>
<!-- Node3&#45;&gt;Node1 -->
<g id="edge2" class="edge">
<title>Node3&#45;&gt;Node1</title>
<path fill="none" stroke="#9a32cd" stroke-dasharray="5,2" d="M701.87,-294.85C735.59,-290.34 776.29,-281.88 810,-266 826.81,-258.08 842.77,-243.37 852.22,-233.63"/>
<polygon fill="#9a32cd" stroke="#9a32cd" points="701.14,-291.42 691.65,-296.13 702.01,-298.36 701.14,-291.42"/>
<text text-anchor="middle" x="773.5" y="-291" font-family="Helvetica,sans-Serif" font-size="10.00"> pBoundTextures</text>
</g>
<!-- Node4 -->
<g id="node4" class="node">
<title>Node4</title>
<g id="a_node4"><a xlink:href="class_mx_texture.html" target="_top" xlink:title=" ">
<polygon fill="none" stroke="black" points="288.5,-290.5 288.5,-309.5 350.5,-309.5 350.5,-290.5 288.5,-290.5"/>
<text text-anchor="middle" x="319.5" y="-297.5" font-family="Helvetica,sans-Serif" font-size="10.00">MxTexture</text>
</a>
</g>
</g>
<!-- Node4&#45;&gt;Node3 -->
<g id="edge3" class="edge">
<title>Node4&#45;&gt;Node3</title>
<path fill="none" stroke="#9a32cd" stroke-dasharray="5,2" d="M361.04,-300C415.73,-300 513.41,-300 575.48,-300"/>
<polygon fill="#9a32cd" stroke="#9a32cd" points="360.7,-296.5 350.7,-300 360.7,-303.5 360.7,-296.5"/>
<text text-anchor="middle" x="460.5" y="-303" font-family="Helvetica,sans-Serif" font-size="10.00"> texture</text>
</g>
<!-- Node5 -->
<g id="node5" class="node">
<title>Node5</title>
<g id="a_node5"><a xlink:href="struct_mx_renderer_1_1_viewport.html" target="_top" xlink:title=" ">
<polygon fill="none" stroke="black" points="578,-252.5 578,-271.5 689,-271.5 689,-252.5 578,-252.5"/>
<text text-anchor="middle" x="633.5" y="-259.5" font-family="Helvetica,sans-Serif" font-size="10.00">MxRenderer::Viewport</text>
</a>
</g>
</g>
<!-- Node5&#45;&gt;Node1 -->
<g id="edge4" class="edge">
<title>Node5&#45;&gt;Node1</title>
<path fill="none" stroke="#9a32cd" stroke-dasharray="5,2" d="M699.1,-255.97C732.43,-252.24 773.63,-246.68 810,-239 817.04,-237.51 824.53,-235.54 831.53,-233.51"/>
<polygon fill="#9a32cd" stroke="#9a32cd" points="698.59,-252.5 689.03,-257.07 699.35,-259.46 698.59,-252.5"/>
<text text-anchor="middle" x="773.5" y="-254" font-family="Helvetica,sans-Serif" font-size="10.00"> pViewport</text>
</g>
<!-- Node6 -->
<g id="node6" class="node">
<title>Node6</title>
<g id="a_node6"><a xlink:href="class_mx_list.html" target="_top" xlink:title=" ">
<polygon fill="none" stroke="black" points="575.5,-214.5 575.5,-233.5 691.5,-233.5 691.5,-214.5 575.5,-214.5"/>
<text text-anchor="middle" x="633.5" y="-221.5" font-family="Helvetica,sans-Serif" font-size="10.00">MxList&lt; MxGpuArray &gt;</text>
</a>
</g>
</g>
<!-- Node6&#45;&gt;Node1 -->
<g id="edge5" class="edge">
<title>Node6&#45;&gt;Node1</title>
<path fill="none" stroke="#9a32cd" stroke-dasharray="5,2" d="M701.71,-224C743.26,-224 794.77,-224 827.76,-224"/>
<polygon fill="#9a32cd" stroke="#9a32cd" points="701.66,-220.5 691.66,-224 701.66,-227.5 701.66,-220.5"/>
<text text-anchor="middle" x="773.5" y="-227" font-family="Helvetica,sans-Serif" font-size="10.00"> pBufferViews</text>
</g>
<!-- Node7 -->
<g id="node7" class="node">
<title>Node7</title>
<g id="a_node7"><a xlink:href="struct_mx_list_1_1_data.html" target="_top" xlink:title="these members are public to allow unions">
<polygon fill="none" stroke="black" points="115,-121 115,-151 222,-151 222,-121 115,-121"/>
<text text-anchor="start" x="123" y="-139" font-family="Helvetica,sans-Serif" font-size="10.00">MxList&lt; T, Initializer,</text>
<text text-anchor="middle" x="168.5" y="-128" font-family="Helvetica,sans-Serif" font-size="10.00"> Prealloc &gt;::Data</text>
</a>
</g>
</g>
<!-- Node7&#45;&gt;Node6 -->
<g id="edge6" class="edge">
<title>Node7&#45;&gt;Node6</title>
<path fill="none" stroke="#9a32cd" stroke-dasharray="5,2" d="M199.29,-156.62C217.88,-168.88 242.65,-184.11 266,-195 319.11,-219.78 333.16,-227.54 391,-237 454.81,-247.43 529.25,-240.61 578.43,-233.52"/>
<polygon fill="#9a32cd" stroke="#9a32cd" points="201.21,-153.7 190.95,-151.05 197.32,-159.52 201.21,-153.7"/>
<text text-anchor="middle" x="319.5" y="-236" font-family="Helvetica,sans-Serif" font-size="10.00"> d</text>
</g>
<!-- Node9 -->
<g id="node9" class="node">
<title>Node9</title>
<g id="a_node9"><a xlink:href="class_mx_list.html" target="_top" xlink:title=" ">
<polygon fill="none" stroke="black" points="266,-155 266,-185 373,-185 373,-155 266,-155"/>
<text text-anchor="start" x="274" y="-173" font-family="Helvetica,sans-Serif" font-size="10.00">MxList&lt; T, Initializer,</text>
<text text-anchor="middle" x="319.5" y="-162" font-family="Helvetica,sans-Serif" font-size="10.00"> Prealloc &gt;</text>
</a>
</g>
</g>
<!-- Node7&#45;&gt;Node9 -->
<g id="edge9" class="edge">
<title>Node7&#45;&gt;Node9</title>
<path fill="none" stroke="#9a32cd" stroke-dasharray="5,2" d="M231.87,-150.23C243.2,-152.82 254.92,-155.49 265.94,-158.01"/>
<polygon fill="#9a32cd" stroke="#9a32cd" points="232.56,-146.8 222.03,-147.99 231,-153.62 232.56,-146.8"/>
<text text-anchor="middle" x="244" y="-156" font-family="Helvetica,sans-Serif" font-size="10.00"> d</text>
</g>
<!-- Node10 -->
<g id="node10" class="node">
<title>Node10</title>
<g id="a_node10"><a xlink:href="class_mx_list.html" target="_top" xlink:title=" ">
<polygon fill="none" stroke="black" points="574,-165 574,-195 693,-195 693,-165 574,-165"/>
<text text-anchor="start" x="582" y="-183" font-family="Helvetica,sans-Serif" font-size="10.00">MxList&lt; MxRenderer</text>
<text text-anchor="middle" x="633.5" y="-172" font-family="Helvetica,sans-Serif" font-size="10.00">::StoredRootSignature &gt;</text>
</a>
</g>
</g>
<!-- Node7&#45;&gt;Node10 -->
<g id="edge11" class="edge">
<title>Node7&#45;&gt;Node10</title>
<path fill="none" stroke="#9a32cd" stroke-dasharray="5,2" d="M215.34,-117.33C288.39,-90.85 432.83,-52.17 530,-115 546.37,-125.59 533.32,-142.18 548,-155 555.38,-161.44 564.34,-166.22 573.65,-169.77"/>
<polygon fill="#9a32cd" stroke="#9a32cd" points="213.68,-114.22 205.52,-120.98 216.12,-120.78 213.68,-114.22"/>
<text text-anchor="middle" x="319.5" y="-104" font-family="Helvetica,sans-Serif" font-size="10.00"> d</text>
</g>
<!-- Node13 -->
<g id="node13" class="node">
<title>Node13</title>
<g id="a_node13"><a xlink:href="class_mx_list.html" target="_top" xlink:title=" ">
<polygon fill="none" stroke="black" points="548,-104.5 548,-145.5 719,-145.5 719,-104.5 548,-104.5"/>
<text text-anchor="start" x="556" y="-133.5" font-family="Helvetica,sans-Serif" font-size="10.00">MxList&lt; MxRenderer</text>
<text text-anchor="start" x="556" y="-122.5" font-family="Helvetica,sans-Serif" font-size="10.00">::ReusableVbo, MxClassInitializer</text>
<text text-anchor="middle" x="633.5" y="-111.5" font-family="Helvetica,sans-Serif" font-size="10.00">&lt; MxRenderer::ReusableVbo &gt;, 32 &gt;</text>
</a>
</g>
</g>
<!-- Node7&#45;&gt;Node13 -->
<g id="edge16" class="edge">
<title>Node7&#45;&gt;Node13</title>
<path fill="none" stroke="#9a32cd" stroke-dasharray="5,2" d="M192.73,-114.1C211.05,-98.43 238.09,-78.63 266,-70 298.75,-59.87 522.69,-76.21 530,-78 553.01,-83.64 577.16,-94.45 596.24,-104.28"/>
<polygon fill="#9a32cd" stroke="#9a32cd" points="190.14,-111.72 184.96,-120.95 194.77,-116.97 190.14,-111.72"/>
<text text-anchor="middle" x="319.5" y="-73" font-family="Helvetica,sans-Serif" font-size="10.00"> d</text>
</g>
<!-- Node8 -->
<g id="node8" class="node">
<title>Node8</title>
<g id="a_node8"><a xlink:href="class_mx_ref_counter.html" target="_top" xlink:title=" ">
<polygon fill="none" stroke="black" points="0,-126.5 0,-145.5 78,-145.5 78,-126.5 0,-126.5"/>
<text text-anchor="middle" x="39" y="-133.5" font-family="Helvetica,sans-Serif" font-size="10.00">MxRefCounter</text>
</a>
</g>
</g>
<!-- Node8&#45;&gt;Node7 -->
<g id="edge7" class="edge">
<title>Node8&#45;&gt;Node7</title>
<path fill="none" stroke="midnightblue" d="M88.46,-136C97.03,-136 105.98,-136 114.66,-136"/>
<polygon fill="midnightblue" stroke="midnightblue" points="88.25,-132.5 78.25,-136 88.25,-139.5 88.25,-132.5"/>
</g>
<!-- Node9&#45;&gt;Node6 -->
<g id="edge8" class="edge">
<title>Node9&#45;&gt;Node6</title>
<path fill="none" stroke="orange" stroke-dasharray="5,2" d="M357.5,-189.6C368.06,-194.41 379.76,-199.03 391,-202 452.66,-218.3 525.92,-223.01 575.45,-224.14"/>
<polygon fill="orange" stroke="orange" points="358.71,-186.29 348.17,-185.17 355.7,-192.62 358.71,-186.29"/>
<text text-anchor="middle" x="460.5" y="-225" font-family="Helvetica,sans-Serif" font-size="10.00"> &lt; MxGpuArray &gt;</text>
</g>
<!-- Node9&#45;&gt;Node10 -->
<g id="edge12" class="edge">
<title>Node9&#45;&gt;Node10</title>
<path fill="none" stroke="orange" stroke-dasharray="5,2" d="M383.16,-172.01C438.79,-173.79 519.48,-176.38 573.86,-178.12"/>
<polygon fill="orange" stroke="orange" points="383.18,-168.51 373.07,-171.69 382.96,-175.5 383.18,-168.51"/>
<text text-anchor="start" x="402.5" y="-190" font-family="Helvetica,sans-Serif" font-size="10.00"> &lt; MxRenderer::StoredRoot</text>
<text text-anchor="middle" x="460.5" y="-179" font-family="Helvetica,sans-Serif" font-size="10.00">Signature &gt;</text>
</g>
<!-- Node9&#45;&gt;Node13 -->
<g id="edge17" class="edge">
<title>Node9&#45;&gt;Node13</title>
<path fill="none" stroke="orange" stroke-dasharray="5,2" d="M353.43,-150.09C364.91,-144.12 378.15,-138.3 391,-135 442.01,-121.91 501.05,-119.26 547.98,-119.95"/>
<polygon fill="orange" stroke="orange" points="351.75,-147.01 344.63,-154.86 355.09,-153.17 351.75,-147.01"/>
<text text-anchor="start" x="391" y="-160" font-family="Helvetica,sans-Serif" font-size="10.00"> &lt; MxRenderer::ReusableVbo,</text>
<text text-anchor="start" x="391" y="-149" font-family="Helvetica,sans-Serif" font-size="10.00"> MxClassInitializer&lt; MxRenderer</text>
<text text-anchor="middle" x="460.5" y="-138" font-family="Helvetica,sans-Serif" font-size="10.00">::ReusableVbo &gt;, 32 &gt;</text>
</g>
<!-- Node10&#45;&gt;Node1 -->
<g id="edge10" class="edge">
<title>Node10&#45;&gt;Node1</title>
<path fill="none" stroke="#9a32cd" stroke-dasharray="5,2" d="M703.64,-189.43C736.11,-194.37 775.23,-201.05 810,-209 816.75,-210.54 823.92,-212.47 830.69,-214.42"/>
<polygon fill="#9a32cd" stroke="#9a32cd" points="703.76,-185.91 693.35,-187.89 702.72,-192.83 703.76,-185.91"/>
<text text-anchor="middle" x="773.5" y="-212" font-family="Helvetica,sans-Serif" font-size="10.00"> pRootInputList</text>
</g>
<!-- Node11 -->
<g id="node11" class="node">
<title>Node11</title>
<g id="a_node11"><a xlink:href="class_mx_vector.html" target="_top" xlink:title=" ">
<polygon fill="none" stroke="black" points="586,-39.5 586,-58.5 681,-58.5 681,-39.5 586,-39.5"/>
<text text-anchor="middle" x="633.5" y="-46.5" font-family="Helvetica,sans-Serif" font-size="10.00">MxVector&lt; 2, int &gt;</text>
</a>
</g>
</g>
<!-- Node11&#45;&gt;Node1 -->
<g id="edge13" class="edge">
<title>Node11&#45;&gt;Node1</title>
<path fill="none" stroke="#9a32cd" stroke-dasharray="5,2" d="M677.95,-61.81C716.36,-74.9 772.02,-98.4 810,-134 835.16,-157.58 851.27,-196.42 857.75,-214.36"/>
<polygon fill="#9a32cd" stroke="#9a32cd" points="678.68,-58.36 668.09,-58.55 676.48,-65.01 678.68,-58.36"/>
<text text-anchor="middle" x="773.5" y="-137" font-family="Helvetica,sans-Serif" font-size="10.00"> pScreenSize</text>
</g>
<!-- Node12 -->
<g id="node12" class="node">
<title>Node12</title>
<g id="a_node12"><a xlink:href="class_mx_vector.html" target="_top" xlink:title=" ">
<polygon fill="none" stroke="black" points="273,-0.5 273,-19.5 366,-19.5 366,-0.5 273,-0.5"/>
<text text-anchor="middle" x="319.5" y="-7.5" font-family="Helvetica,sans-Serif" font-size="10.00">MxVector&lt; N, T &gt;</text>
</a>
</g>
</g>
<!-- Node12&#45;&gt;Node11 -->
<g id="edge14" class="edge">
<title>Node12&#45;&gt;Node11</title>
<path fill="none" stroke="orange" stroke-dasharray="5,2" d="M376.48,-14.48C418.76,-18.14 478.15,-23.86 530,-31 548.35,-33.53 568.43,-36.92 585.93,-40.07"/>
<polygon fill="orange" stroke="orange" points="376.65,-10.98 366.39,-13.62 376.05,-17.96 376.65,-10.98"/>
<text text-anchor="middle" x="460.5" y="-34" font-family="Helvetica,sans-Serif" font-size="10.00"> &lt; 2, int &gt;</text>
</g>
<!-- Node13&#45;&gt;Node1 -->
<g id="edge15" class="edge">
<title>Node13&#45;&gt;Node1</title>
<path fill="none" stroke="#9a32cd" stroke-dasharray="5,2" d="M729.05,-146.11C756.17,-154.26 785.11,-165.05 810,-179 826.89,-188.47 843.07,-204.27 852.52,-214.41"/>
<polygon fill="#9a32cd" stroke="#9a32cd" points="729.74,-142.67 719.16,-143.23 727.78,-149.39 729.74,-142.67"/>
<text text-anchor="middle" x="773.5" y="-182" font-family="Helvetica,sans-Serif" font-size="10.00"> pReusableVbos</text>
</g>
<!-- Node14&#45;&gt;Node1 -->
<g id="edge18" class="edge">
<title>Node14&#45;&gt;Node1</title>
<path fill="none" stroke="#9a32cd" stroke-dasharray="5,2" d="M996.84,-211.83C990.28,-210.24 983.49,-208.86 977,-208 949.25,-204.3 941.68,-203.76 914,-208 905.38,-209.32 896.21,-211.83 888.06,-214.47"/>
<polygon fill="#9a32cd" stroke="#9a32cd" points="996.34,-215.32 1006.9,-214.47 998.12,-208.55 996.34,-215.32"/>
<text text-anchor="middle" x="945.5" y="-211" font-family="Helvetica,sans-Serif" font-size="10.00"> pCurrProgram</text>
</g>
</g>
</svg>
