<?xml version="1.0" encoding="UTF-8" standalone="no"?>
<!DOCTYPE svg PUBLIC "-//W3C//DTD SVG 1.1//EN"
 "http://www.w3.org/Graphics/SVG/1.1/DTD/svg11.dtd">
<!-- Generated by graphviz version 2.44.0 ()
 -->
<!-- Title: MxColorWheelProgram Pages: 1 -->
<svg width="952pt" height="439pt"
 viewBox="0.00 0.00 952.00 439.00" xmlns="http://www.w3.org/2000/svg" xmlns:xlink="http://www.w3.org/1999/xlink">
<g id="graph0" class="graph" transform="scale(1 1) rotate(0) translate(4 435)">
<title>MxColorWheelProgram</title>
<!-- Node1 -->
<g id="node1" class="node">
<title>Node1</title>
<g id="a_node1"><a xlink:title=" ">
<polygon fill="#bfbfbf" stroke="black" points="828,-411.5 828,-430.5 944,-430.5 944,-411.5 828,-411.5"/>
<text text-anchor="middle" x="886" y="-418.5" font-family="Helvetica,sans-Serif" font-size="10.00">MxColorWheelProgram</text>
</a>
</g>
</g>
<!-- Node2 -->
<g id="node2" class="node">
<title>Node2</title>
<g id="a_node2"><a xlink:href="class_mx_gpu_program.html" target="_top" xlink:title=" ">
<polygon fill="none" stroke="black" points="591.5,-385.5 591.5,-404.5 675.5,-404.5 675.5,-385.5 591.5,-385.5"/>
<text text-anchor="middle" x="633.5" y="-392.5" font-family="Helvetica,sans-Serif" font-size="10.00">MxGpuProgram</text>
</a>
</g>
</g>
<!-- Node2&#45;&gt;Node1 -->
<g id="edge1" class="edge">
<title>Node2&#45;&gt;Node1</title>
<path fill="none" stroke="midnightblue" d="M686.25,-401.29C702.49,-403.2 720.48,-405.25 737,-407 766.9,-410.16 800.24,-413.35 827.69,-415.88"/>
<polygon fill="midnightblue" stroke="midnightblue" points="686.21,-397.76 675.87,-400.06 685.39,-404.71 686.21,-397.76"/>
</g>
<!-- Node3 -->
<g id="node3" class="node">
<title>Node3</title>
<g id="a_node3"><a xlink:href="class_mx_renderer.html" target="_top" xlink:title="The MxRenderer keeps track of the rendering state and resources.">
<polygon fill="none" stroke="black" points="852,-247.5 852,-266.5 920,-266.5 920,-247.5 852,-247.5"/>
<text text-anchor="middle" x="886" y="-254.5" font-family="Helvetica,sans-Serif" font-size="10.00">MxRenderer</text>
</a>
</g>
</g>
<!-- Node2&#45;&gt;Node3 -->
<g id="edge19" class="edge">
<title>Node2&#45;&gt;Node3</title>
<path fill="none" stroke="#9a32cd" stroke-dasharray="5,2" d="M685.54,-393.34C729.81,-391.05 789.86,-385.65 810,-373 851.23,-347.11 874.23,-289.34 881.99,-266.53"/>
<polygon fill="#9a32cd" stroke="#9a32cd" points="685.33,-389.84 675.51,-393.82 685.67,-396.83 685.33,-389.84"/>
<text text-anchor="middle" x="773.5" y="-392" font-family="Helvetica,sans-Serif" font-size="10.00"> pCurrProgram</text>
</g>
<!-- Node3&#45;&gt;Node2 -->
<g id="edge2" class="edge">
<title>Node3&#45;&gt;Node2</title>
<path fill="none" stroke="#9a32cd" stroke-dasharray="5,2" d="M870.76,-274.57C856.77,-290.86 834.07,-314.8 810,-330 785.21,-345.66 708.13,-371.55 664.82,-385.46"/>
<polygon fill="#9a32cd" stroke="#9a32cd" points="873.5,-276.75 877.25,-266.84 868.14,-272.25 873.5,-276.75"/>
<text text-anchor="middle" x="773.5" y="-363" font-family="Helvetica,sans-Serif" font-size="10.00"> pRenderer</text>
</g>
<!-- Node4 -->
<g id="node4" class="node">
<title>Node4</title>
<g id="a_node4"><a xlink:title=" ">
<polygon fill="none" stroke="#bfbfbf" points="579,-329.5 579,-348.5 688,-348.5 688,-329.5 579,-329.5"/>
<text text-anchor="middle" x="633.5" y="-336.5" font-family="Helvetica,sans-Serif" font-size="10.00">MxOpenGLFunctions</text>
</a>
</g>
</g>
<!-- Node4&#45;&gt;Node3 -->
<g id="edge3" class="edge">
<title>Node4&#45;&gt;Node3</title>
<path fill="none" stroke="midnightblue" d="M698.53,-333.08C732.55,-328.43 774.55,-320.25 810,-306 834.53,-296.14 859.56,-277.76 873.6,-266.53"/>
<polygon fill="midnightblue" stroke="midnightblue" points="697.71,-329.66 688.25,-334.41 698.61,-336.6 697.71,-329.66"/>
</g>
<!-- Node5 -->
<g id="node5" class="node">
<title>Node5</title>
<g id="a_node5"><a xlink:href="struct_mx_renderer_1_1_viewport.html" target="_top" xlink:title=" ">
<polygon fill="none" stroke="black" points="578,-291.5 578,-310.5 689,-310.5 689,-291.5 578,-291.5"/>
<text text-anchor="middle" x="633.5" y="-298.5" font-family="Helvetica,sans-Serif" font-size="10.00">MxRenderer::Viewport</text>
</a>
</g>
</g>
<!-- Node5&#45;&gt;Node3 -->
<g id="edge4" class="edge">
<title>Node5&#45;&gt;Node3</title>
<path fill="none" stroke="#9a32cd" stroke-dasharray="5,2" d="M699.15,-296.04C732.49,-292.79 773.68,-287.68 810,-280 826.12,-276.59 843.76,-271.27 857.88,-266.6"/>
<polygon fill="#9a32cd" stroke="#9a32cd" points="698.69,-292.57 689.07,-297 699.35,-299.54 698.69,-292.57"/>
<text text-anchor="middle" x="773.5" y="-294" font-family="Helvetica,sans-Serif" font-size="10.00"> pViewport</text>
</g>
<!-- Node6 -->
<g id="node6" class="node">
<title>Node6</title>
<g id="a_node6"><a xlink:href="class_mx_texture.html" target="_top" xlink:title=" ">
<polygon fill="none" stroke="black" points="602.5,-252.5 602.5,-271.5 664.5,-271.5 664.5,-252.5 602.5,-252.5"/>
<text text-anchor="middle" x="633.5" y="-259.5" font-family="Helvetica,sans-Serif" font-size="10.00">MxTexture</text>
</a>
</g>
</g>
<!-- Node6&#45;&gt;Node3 -->
<g id="edge5" class="edge">
<title>Node6&#45;&gt;Node3</title>
<path fill="none" stroke="#9a32cd" stroke-dasharray="5,2" d="M674.61,-260.14C693.53,-259.33 716.42,-258.47 737,-258 776.43,-257.1 821.79,-256.92 851.78,-256.92"/>
<polygon fill="#9a32cd" stroke="#9a32cd" points="674.38,-256.64 664.54,-260.57 674.68,-263.63 674.38,-256.64"/>
<text text-anchor="middle" x="773.5" y="-272" font-family="Helvetica,sans-Serif" font-size="10.00"> pBoundTextures</text>
<text text-anchor="middle" x="773.5" y="-261" font-family="Helvetica,sans-Serif" font-size="10.00">pTextures</text>
</g>
<!-- Node7 -->
<g id="node7" class="node">
<title>Node7</title>
<g id="a_node7"><a xlink:href="class_mx_list.html" target="_top" xlink:title=" ">
<polygon fill="none" stroke="black" points="575.5,-214.5 575.5,-233.5 691.5,-233.5 691.5,-214.5 575.5,-214.5"/>
<text text-anchor="middle" x="633.5" y="-221.5" font-family="Helvetica,sans-Serif" font-size="10.00">MxList&lt; MxGpuArray &gt;</text>
</a>
</g>
</g>
<!-- Node7&#45;&gt;Node3 -->
<g id="edge6" class="edge">
<title>Node7&#45;&gt;Node3</title>
<path fill="none" stroke="#9a32cd" stroke-dasharray="5,2" d="M701.94,-229.4C734.66,-232.41 774.47,-236.64 810,-242 823.79,-244.08 838.88,-246.98 851.89,-249.67"/>
<polygon fill="#9a32cd" stroke="#9a32cd" points="701.85,-225.88 691.58,-228.47 701.23,-232.85 701.85,-225.88"/>
<text text-anchor="middle" x="773.5" y="-245" font-family="Helvetica,sans-Serif" font-size="10.00"> pBufferViews</text>
</g>
<!-- Node8 -->
<g id="node8" class="node">
<title>Node8</title>
<g id="a_node8"><a xlink:href="struct_mx_list_1_1_data.html" target="_top" xlink:title="these members are public to allow unions">
<polygon fill="none" stroke="black" points="115,-121 115,-151 222,-151 222,-121 115,-121"/>
<text text-anchor="start" x="123" y="-139" font-family="Helvetica,sans-Serif" font-size="10.00">MxList&lt; T, Initializer,</text>
<text text-anchor="middle" x="168.5" y="-128" font-family="Helvetica,sans-Serif" font-size="10.00"> Prealloc &gt;::Data</text>
</a>
</g>
</g>
<!-- Node8&#45;&gt;Node7 -->
<g id="edge7" class="edge">
<title>Node8&#45;&gt;Node7</title>
<path fill="none" stroke="#9a32cd" stroke-dasharray="5,2" d="M199.29,-156.62C217.88,-168.88 242.65,-184.11 266,-195 319.11,-219.78 333.16,-227.54 391,-237 454.81,-247.43 529.25,-240.61 578.43,-233.52"/>
<polygon fill="#9a32cd" stroke="#9a32cd" points="201.21,-153.7 190.95,-151.05 197.32,-159.52 201.21,-153.7"/>
<text text-anchor="middle" x="319.5" y="-236" font-family="Helvetica,sans-Serif" font-size="10.00"> d</text>
</g>
<!-- Node10 -->
<g id="node10" class="node">
<title>Node10</title>
<g id="a_node10"><a xlink:href="class_mx_list.html" target="_top" xlink:title=" ">
<polygon fill="none" stroke="black" points="266,-155 266,-185 373,-185 373,-155 266,-155"/>
<text text-anchor="start" x="274" y="-173" font-family="Helvetica,sans-Serif" font-size="10.00">MxList&lt; T, Initializer,</text>
<text text-anchor="middle" x="319.5" y="-162" font-family="Helvetica,sans-Serif" font-size="10.00"> Prealloc &gt;</text>
</a>
</g>
</g>
<!-- Node8&#45;&gt;Node10 -->
<g id="edge10" class="edge">
<title>Node8&#45;&gt;Node10</title>
<path fill="none" stroke="#9a32cd" stroke-dasharray="5,2" d="M231.87,-150.23C243.2,-152.82 254.92,-155.49 265.94,-158.01"/>
<polygon fill="#9a32cd" stroke="#9a32cd" points="232.56,-146.8 222.03,-147.99 231,-153.62 232.56,-146.8"/>
<text text-anchor="middle" x="244" y="-156" font-family="Helvetica,sans-Serif" font-size="10.00"> d</text>
</g>
<!-- Node11 -->
<g id="node11" class="node">
<title>Node11</title>
<g id="a_node11"><a xlink:href="class_mx_list.html" target="_top" xlink:title=" ">
<polygon fill="none" stroke="black" points="574,-165 574,-195 693,-195 693,-165 574,-165"/>
<text text-anchor="start" x="582" y="-183" font-family="Helvetica,sans-Serif" font-size="10.00">MxList&lt; MxRenderer</text>
<text text-anchor="middle" x="633.5" y="-172" font-family="Helvetica,sans-Serif" font-size="10.00">::StoredRootSignature &gt;</text>
</a>
</g>
</g>
<!-- Node8&#45;&gt;Node11 -->
<g id="edge12" class="edge">
<title>Node8&#45;&gt;Node11</title>
<path fill="none" stroke="#9a32cd" stroke-dasharray="5,2" d="M215.34,-117.33C288.39,-90.85 432.83,-52.17 530,-115 546.37,-125.59 533.32,-142.18 548,-155 555.38,-161.44 564.34,-166.22 573.65,-169.77"/>
<polygon fill="#9a32cd" stroke="#9a32cd" points="213.68,-114.22 205.52,-120.98 216.12,-120.78 213.68,-114.22"/>
<text text-anchor="middle" x="319.5" y="-104" font-family="Helvetica,sans-Serif" font-size="10.00"> d</text>
</g>
<!-- Node14 -->
<g id="node14" class="node">
<title>Node14</title>
<g id="a_node14"><a xlink:href="class_mx_list.html" target="_top" xlink:title=" ">
<polygon fill="none" stroke="black" points="548,-104.5 548,-145.5 719,-145.5 719,-104.5 548,-104.5"/>
<text text-anchor="start" x="556" y="-133.5" font-family="Helvetica,sans-Serif" font-size="10.00">MxList&lt; MxRenderer</text>
<text text-anchor="start" x="556" y="-122.5" font-family="Helvetica,sans-Serif" font-size="10.00">::ReusableVbo, MxClassInitializer</text>
<text text-anchor="middle" x="633.5" y="-111.5" font-family="Helvetica,sans-Serif" font-size="10.00">&lt; MxRenderer::ReusableVbo &gt;, 32 &gt;</text>
</a>
</g>
</g>
<!-- Node8&#45;&gt;Node14 -->
<g id="edge17" class="edge">
<title>Node8&#45;&gt;Node14</title>
<path fill="none" stroke="#9a32cd" stroke-dasharray="5,2" d="M192.73,-114.1C211.05,-98.43 238.09,-78.63 266,-70 298.75,-59.87 522.69,-76.21 530,-78 553.01,-83.64 577.16,-94.45 596.24,-104.28"/>
<polygon fill="#9a32cd" stroke="#9a32cd" points="190.14,-111.72 184.96,-120.95 194.77,-116.97 190.14,-111.72"/>
<text text-anchor="middle" x="319.5" y="-73" font-family="Helvetica,sans-Serif" font-size="10.00"> d</text>
</g>
<!-- Node9 -->
<g id="node9" class="node">
<title>Node9</title>
<g id="a_node9"><a xlink:href="class_mx_ref_counter.html" target="_top" xlink:title=" ">
<polygon fill="none" stroke="black" points="0,-126.5 0,-145.5 78,-145.5 78,-126.5 0,-126.5"/>
<text text-anchor="middle" x="39" y="-133.5" font-family="Helvetica,sans-Serif" font-size="10.00">MxRefCounter</text>
</a>
</g>
</g>
<!-- Node9&#45;&gt;Node8 -->
<g id="edge8" class="edge">
<title>Node9&#45;&gt;Node8</title>
<path fill="none" stroke="midnightblue" d="M88.46,-136C97.03,-136 105.98,-136 114.66,-136"/>
<polygon fill="midnightblue" stroke="midnightblue" points="88.25,-132.5 78.25,-136 88.25,-139.5 88.25,-132.5"/>
</g>
<!-- Node10&#45;&gt;Node7 -->
<g id="edge9" class="edge">
<title>Node10&#45;&gt;Node7</title>
<path fill="none" stroke="orange" stroke-dasharray="5,2" d="M357.5,-189.6C368.06,-194.41 379.76,-199.03 391,-202 452.66,-218.3 525.92,-223.01 575.45,-224.14"/>
<polygon fill="orange" stroke="orange" points="358.71,-186.29 348.17,-185.17 355.7,-192.62 358.71,-186.29"/>
<text text-anchor="middle" x="460.5" y="-225" font-family="Helvetica,sans-Serif" font-size="10.00"> &lt; MxGpuArray &gt;</text>
</g>
<!-- Node10&#45;&gt;Node11 -->
<g id="edge13" class="edge">
<title>Node10&#45;&gt;Node11</title>
<path fill="none" stroke="orange" stroke-dasharray="5,2" d="M383.16,-172.01C438.79,-173.79 519.48,-176.38 573.86,-178.12"/>
<polygon fill="orange" stroke="orange" points="383.18,-168.51 373.07,-171.69 382.96,-175.5 383.18,-168.51"/>
<text text-anchor="start" x="402.5" y="-190" font-family="Helvetica,sans-Serif" font-size="10.00"> &lt; MxRenderer::StoredRoot</text>
<text text-anchor="middle" x="460.5" y="-179" font-family="Helvetica,sans-Serif" font-size="10.00">Signature &gt;</text>
</g>
<!-- Node10&#45;&gt;Node14 -->
<g id="edge18" class="edge">
<title>Node10&#45;&gt;Node14</title>
<path fill="none" stroke="orange" stroke-dasharray="5,2" d="M353.43,-150.09C364.91,-144.12 378.15,-138.3 391,-135 442.01,-121.91 501.05,-119.26 547.98,-119.95"/>
<polygon fill="orange" stroke="orange" points="351.75,-147.01 344.63,-154.86 355.09,-153.17 351.75,-147.01"/>
<text text-anchor="start" x="391" y="-160" font-family="Helvetica,sans-Serif" font-size="10.00"> &lt; MxRenderer::ReusableVbo,</text>
<text text-anchor="start" x="391" y="-149" font-family="Helvetica,sans-Serif" font-size="10.00"> MxClassInitializer&lt; MxRenderer</text>
<text text-anchor="middle" x="460.5" y="-138" font-family="Helvetica,sans-Serif" font-size="10.00">::ReusableVbo &gt;, 32 &gt;</text>
</g>
<!-- Node11&#45;&gt;Node3 -->
<g id="edge11" class="edge">
<title>Node11&#45;&gt;Node3</title>
<path fill="none" stroke="#9a32cd" stroke-dasharray="5,2" d="M703.33,-189.88C736.23,-195.76 775.79,-204.56 810,-217 831.91,-224.97 855.34,-238.34 870.08,-247.41"/>
<polygon fill="#9a32cd" stroke="#9a32cd" points="703.8,-186.41 693.35,-188.15 702.6,-193.3 703.8,-186.41"/>
<text text-anchor="middle" x="773.5" y="-220" font-family="Helvetica,sans-Serif" font-size="10.00"> pRootInputList</text>
</g>
<!-- Node12 -->
<g id="node12" class="node">
<title>Node12</title>
<g id="a_node12"><a xlink:href="class_mx_vector.html" target="_top" xlink:title=" ">
<polygon fill="none" stroke="black" points="586,-39.5 586,-58.5 681,-58.5 681,-39.5 586,-39.5"/>
<text text-anchor="middle" x="633.5" y="-46.5" font-family="Helvetica,sans-Serif" font-size="10.00">MxVector&lt; 2, int &gt;</text>
</a>
</g>
</g>
<!-- Node12&#45;&gt;Node3 -->
<g id="edge14" class="edge">
<title>Node12&#45;&gt;Node3</title>
<path fill="none" stroke="#9a32cd" stroke-dasharray="5,2" d="M676.28,-61.92C714.52,-75.38 770.93,-99.49 810,-135 846.98,-168.61 872.13,-224.65 881.22,-247.18"/>
<polygon fill="#9a32cd" stroke="#9a32cd" points="677.09,-58.5 666.49,-58.57 674.82,-65.12 677.09,-58.5"/>
<text text-anchor="middle" x="773.5" y="-138" font-family="Helvetica,sans-Serif" font-size="10.00"> pScreenSize</text>
</g>
<!-- Node13 -->
<g id="node13" class="node">
<title>Node13</title>
<g id="a_node13"><a xlink:href="class_mx_vector.html" target="_top" xlink:title=" ">
<polygon fill="none" stroke="black" points="273,-0.5 273,-19.5 366,-19.5 366,-0.5 273,-0.5"/>
<text text-anchor="middle" x="319.5" y="-7.5" font-family="Helvetica,sans-Serif" font-size="10.00">MxVector&lt; N, T &gt;</text>
</a>
</g>
</g>
<!-- Node13&#45;&gt;Node12 -->
<g id="edge15" class="edge">
<title>Node13&#45;&gt;Node12</title>
<path fill="none" stroke="orange" stroke-dasharray="5,2" d="M376.48,-14.48C418.76,-18.14 478.15,-23.86 530,-31 548.35,-33.53 568.43,-36.92 585.93,-40.07"/>
<polygon fill="orange" stroke="orange" points="376.65,-10.98 366.39,-13.62 376.05,-17.96 376.65,-10.98"/>
<text text-anchor="middle" x="460.5" y="-34" font-family="Helvetica,sans-Serif" font-size="10.00"> &lt; 2, int &gt;</text>
</g>
<!-- Node14&#45;&gt;Node3 -->
<g id="edge16" class="edge">
<title>Node14&#45;&gt;Node3</title>
<path fill="none" stroke="#9a32cd" stroke-dasharray="5,2" d="M728.92,-146.01C756.27,-154.46 785.37,-165.89 810,-181 839.54,-199.13 865.95,-231.33 878.03,-247.36"/>
<polygon fill="#9a32cd" stroke="#9a32cd" points="729.91,-142.66 719.33,-143.15 727.9,-149.36 729.91,-142.66"/>
<text text-anchor="middle" x="773.5" y="-184" font-family="Helvetica,sans-Serif" font-size="10.00"> pReusableVbos</text>
</g>
</g>
</svg>
