<?xml version="1.0" encoding="UTF-8" standalone="no"?>
<!DOCTYPE svg PUBLIC "-//W3C//DTD SVG 1.1//EN"
 "http://www.w3.org/Graphics/SVG/1.1/DTD/svg11.dtd">
<!-- Generated by graphviz version 2.44.0 ()
 -->
<!-- Title: MxIconDraw Pages: 1 -->
<svg width="194pt" height="219pt"
 viewBox="0.00 0.00 194.00 219.00" xmlns="http://www.w3.org/2000/svg" xmlns:xlink="http://www.w3.org/1999/xlink">
<g id="graph0" class="graph" transform="scale(1 1) rotate(0) translate(4 215)">
<title>MxIconDraw</title>
<!-- Node1 -->
<g id="node1" class="node">
<title>Node1</title>
<g id="a_node1"><a xlink:title="The MxIconDraw class draws icons from a atlas.">
<polygon fill="#bfbfbf" stroke="black" points="53,-0.5 53,-19.5 124,-19.5 124,-0.5 53,-0.5"/>
<text text-anchor="middle" x="88.5" y="-7.5" font-family="Helvetica,sans-Serif" font-size="10.00">MxIconDraw</text>
</a>
</g>
</g>
<!-- Node2 -->
<g id="node2" class="node">
<title>Node2</title>
<g id="a_node2"><a xlink:href="class_mx_quad_draw.html" target="_top" xlink:title=" ">
<polygon fill="none" stroke="black" points="0,-67.5 0,-86.5 75,-86.5 75,-67.5 0,-67.5"/>
<text text-anchor="middle" x="37.5" y="-74.5" font-family="Helvetica,sans-Serif" font-size="10.00">MxQuadDraw</text>
</a>
</g>
</g>
<!-- Node2&#45;&gt;Node1 -->
<g id="edge1" class="edge">
<title>Node2&#45;&gt;Node1</title>
<path fill="none" stroke="midnightblue" d="M50.63,-59.27C60.57,-46.6 73.83,-29.7 81.73,-19.63"/>
<polygon fill="midnightblue" stroke="midnightblue" points="47.8,-57.21 44.38,-67.23 53.3,-61.53 47.8,-57.21"/>
</g>
<!-- Node3 -->
<g id="node3" class="node">
<title>Node3</title>
<g id="a_node3"><a xlink:href="class_gpu_buffer.html" target="_top" xlink:title=" ">
<polygon fill="none" stroke="black" points="7.5,-134.5 7.5,-153.5 67.5,-153.5 67.5,-134.5 7.5,-134.5"/>
<text text-anchor="middle" x="37.5" y="-141.5" font-family="Helvetica,sans-Serif" font-size="10.00">GpuBuffer</text>
</a>
</g>
</g>
<!-- Node3&#45;&gt;Node2 -->
<g id="edge2" class="edge">
<title>Node3&#45;&gt;Node2</title>
<path fill="none" stroke="#9a32cd" stroke-dasharray="5,2" d="M37.5,-124.04C37.5,-111.67 37.5,-96.12 37.5,-86.63"/>
<polygon fill="#9a32cd" stroke="#9a32cd" points="34,-124.23 37.5,-134.23 41,-124.23 34,-124.23"/>
<text text-anchor="middle" x="53" y="-108" font-family="Helvetica,sans-Serif" font-size="10.00"> pArray</text>
</g>
<!-- Node4 -->
<g id="node4" class="node">
<title>Node4</title>
<g id="a_node4"><a xlink:href="class_gpu_vbo.html" target="_top" xlink:title=" ">
<polygon fill="none" stroke="black" points="11.5,-191.5 11.5,-210.5 63.5,-210.5 63.5,-191.5 11.5,-191.5"/>
<text text-anchor="middle" x="37.5" y="-198.5" font-family="Helvetica,sans-Serif" font-size="10.00">GpuVbo</text>
</a>
</g>
</g>
<!-- Node4&#45;&gt;Node3 -->
<g id="edge3" class="edge">
<title>Node4&#45;&gt;Node3</title>
<path fill="none" stroke="midnightblue" d="M37.5,-181.12C37.5,-171.82 37.5,-161.06 37.5,-153.71"/>
<polygon fill="midnightblue" stroke="midnightblue" points="34,-181.41 37.5,-191.41 41,-181.41 34,-181.41"/>
</g>
<!-- Node5 -->
<g id="node5" class="node">
<title>Node5</title>
<g id="a_node5"><a xlink:href="class_mx_vector.html" target="_top" xlink:title=" ">
<polygon fill="none" stroke="black" points="93,-67.5 93,-86.5 186,-86.5 186,-67.5 93,-67.5"/>
<text text-anchor="middle" x="139.5" y="-74.5" font-family="Helvetica,sans-Serif" font-size="10.00">MxVector&lt; N, T &gt;</text>
</a>
</g>
</g>
<!-- Node5&#45;&gt;Node1 -->
<g id="edge4" class="edge">
<title>Node5&#45;&gt;Node1</title>
<path fill="none" stroke="#9a32cd" stroke-dasharray="5,2" d="M126.37,-59.27C116.43,-46.6 103.17,-29.7 95.27,-19.63"/>
<polygon fill="#9a32cd" stroke="#9a32cd" points="123.7,-61.53 132.62,-67.23 129.2,-57.21 123.7,-61.53"/>
<text text-anchor="middle" x="144.5" y="-41" font-family="Helvetica,sans-Serif" font-size="10.00"> pTranslation</text>
</g>
</g>
</svg>
