<?xml version="1.0" encoding="UTF-8" standalone="no"?>
<!DOCTYPE svg PUBLIC "-//W3C//DTD SVG 1.1//EN"
 "http://www.w3.org/Graphics/SVG/1.1/DTD/svg11.dtd">
<!-- Generated by graphviz version 2.44.0 ()
 -->
<!-- Title: MxGuiRenderer Pages: 1 -->
<svg width="1151pt" height="222pt"
 viewBox="0.00 0.00 1151.00 222.00" xmlns="http://www.w3.org/2000/svg" xmlns:xlink="http://www.w3.org/1999/xlink">
<g id="graph0" class="graph" transform="scale(1 1) rotate(0) translate(4 218)">
<title>MxGuiRenderer</title>
<!-- Node1 -->
<g id="node1" class="node">
<title>Node1</title>
<g id="a_node1"><a xlink:title=" ">
<polygon fill="#bfbfbf" stroke="black" points="1060,-38.5 1060,-57.5 1143,-57.5 1143,-38.5 1060,-38.5"/>
<text text-anchor="middle" x="1101.5" y="-45.5" font-family="Helvetica,sans-Serif" font-size="10.00">MxGuiRenderer</text>
</a>
</g>
</g>
<!-- Node2 -->
<g id="node2" class="node">
<title>Node2</title>
<g id="a_node2"><a xlink:href="class_mx_renderer.html" target="_top" xlink:title=" ">
<polygon fill="none" stroke="black" points="836.5,-118.5 836.5,-137.5 904.5,-137.5 904.5,-118.5 836.5,-118.5"/>
<text text-anchor="middle" x="870.5" y="-125.5" font-family="Helvetica,sans-Serif" font-size="10.00">MxRenderer</text>
</a>
</g>
</g>
<!-- Node2&#45;&gt;Node1 -->
<g id="edge1" class="edge">
<title>Node2&#45;&gt;Node1</title>
<path fill="none" stroke="midnightblue" d="M908.73,-114.99C954.81,-98.9 1032.17,-71.87 1073.14,-57.56"/>
<polygon fill="midnightblue" stroke="midnightblue" points="907.41,-111.75 899.12,-118.35 909.72,-118.36 907.41,-111.75"/>
</g>
<!-- Node3 -->
<g id="node3" class="node">
<title>Node3</title>
<g id="a_node3"><a xlink:title=" ">
<polygon fill="none" stroke="#bfbfbf" points="579,-194.5 579,-213.5 688,-213.5 688,-194.5 579,-194.5"/>
<text text-anchor="middle" x="633.5" y="-201.5" font-family="Helvetica,sans-Serif" font-size="10.00">MxOpenGLFunctions</text>
</a>
</g>
</g>
<!-- Node3&#45;&gt;Node2 -->
<g id="edge2" class="edge">
<title>Node3&#45;&gt;Node2</title>
<path fill="none" stroke="midnightblue" d="M698.17,-196.59C731.73,-191.25 773.07,-182.38 808,-168 826.61,-160.34 845.67,-146.9 857.54,-137.73"/>
<polygon fill="midnightblue" stroke="midnightblue" points="697.37,-193.17 688.01,-198.13 698.43,-200.09 697.37,-193.17"/>
</g>
<!-- Node4 -->
<g id="node4" class="node">
<title>Node4</title>
<g id="a_node4"><a xlink:href="struct_mx_renderer_1_1_viewport.html" target="_top" xlink:title=" ">
<polygon fill="none" stroke="black" points="578,-156.5 578,-175.5 689,-175.5 689,-156.5 578,-156.5"/>
<text text-anchor="middle" x="633.5" y="-163.5" font-family="Helvetica,sans-Serif" font-size="10.00">MxRenderer::Viewport</text>
</a>
</g>
</g>
<!-- Node4&#45;&gt;Node2 -->
<g id="edge3" class="edge">
<title>Node4&#45;&gt;Node2</title>
<path fill="none" stroke="#9a32cd" stroke-dasharray="5,2" d="M699.39,-159.07C732.1,-155.16 772.29,-149.7 808,-143 817.29,-141.26 827.28,-138.99 836.45,-136.75"/>
<polygon fill="#9a32cd" stroke="#9a32cd" points="698.57,-155.65 689.05,-160.29 699.39,-162.6 698.57,-155.65"/>
<text text-anchor="middle" x="772.5" y="-156" font-family="Helvetica,sans-Serif" font-size="10.00"> pViewport</text>
</g>
<!-- Node5 -->
<g id="node5" class="node">
<title>Node5</title>
<g id="a_node5"><a xlink:href="class_mx_vector.html" target="_top" xlink:title=" ">
<polygon fill="none" stroke="black" points="586,-118.5 586,-137.5 681,-137.5 681,-118.5 586,-118.5"/>
<text text-anchor="middle" x="633.5" y="-125.5" font-family="Helvetica,sans-Serif" font-size="10.00">MxVector&lt; 2, int &gt;</text>
</a>
</g>
</g>
<!-- Node5&#45;&gt;Node2 -->
<g id="edge4" class="edge">
<title>Node5&#45;&gt;Node2</title>
<path fill="none" stroke="#9a32cd" stroke-dasharray="5,2" d="M691.47,-128C736.76,-128 798.55,-128 836.15,-128"/>
<polygon fill="#9a32cd" stroke="#9a32cd" points="691.21,-124.5 681.21,-128 691.21,-131.5 691.21,-124.5"/>
<text text-anchor="middle" x="772.5" y="-131" font-family="Helvetica,sans-Serif" font-size="10.00"> pScreenSize</text>
</g>
<!-- Node6 -->
<g id="node6" class="node">
<title>Node6</title>
<g id="a_node6"><a xlink:href="class_mx_vector.html" target="_top" xlink:title=" ">
<polygon fill="none" stroke="black" points="273,-118.5 273,-137.5 366,-137.5 366,-118.5 273,-118.5"/>
<text text-anchor="middle" x="319.5" y="-125.5" font-family="Helvetica,sans-Serif" font-size="10.00">MxVector&lt; N, T &gt;</text>
</a>
</g>
</g>
<!-- Node6&#45;&gt;Node5 -->
<g id="edge5" class="edge">
<title>Node6&#45;&gt;Node5</title>
<path fill="none" stroke="orange" stroke-dasharray="5,2" d="M376.22,-128C436.01,-128 529.91,-128 585.91,-128"/>
<polygon fill="orange" stroke="orange" points="376.2,-124.5 366.2,-128 376.2,-131.5 376.2,-124.5"/>
<text text-anchor="middle" x="460.5" y="-131" font-family="Helvetica,sans-Serif" font-size="10.00"> &lt; 2, int &gt;</text>
</g>
<!-- Node7 -->
<g id="node7" class="node">
<title>Node7</title>
<g id="a_node7"><a xlink:href="class_mx_list.html" target="_top" xlink:title=" ">
<polygon fill="none" stroke="black" points="548,-58.5 548,-99.5 719,-99.5 719,-58.5 548,-58.5"/>
<text text-anchor="start" x="556" y="-87.5" font-family="Helvetica,sans-Serif" font-size="10.00">MxList&lt; MxRenderer</text>
<text text-anchor="start" x="556" y="-76.5" font-family="Helvetica,sans-Serif" font-size="10.00">::ReusableVbo, MxClassInitializer</text>
<text text-anchor="middle" x="633.5" y="-65.5" font-family="Helvetica,sans-Serif" font-size="10.00">&lt; MxRenderer::ReusableVbo &gt;, 32 &gt;</text>
</a>
</g>
</g>
<!-- Node7&#45;&gt;Node2 -->
<g id="edge6" class="edge">
<title>Node7&#45;&gt;Node2</title>
<path fill="none" stroke="#9a32cd" stroke-dasharray="5,2" d="M729.44,-96.79C754.99,-101.8 782.59,-107.42 808,-113 817.23,-115.03 827.2,-117.39 836.37,-119.63"/>
<polygon fill="#9a32cd" stroke="#9a32cd" points="729.86,-93.31 719.38,-94.83 728.52,-100.18 729.86,-93.31"/>
<text text-anchor="middle" x="772.5" y="-116" font-family="Helvetica,sans-Serif" font-size="10.00"> pReusableVbos</text>
</g>
<!-- Node8 -->
<g id="node8" class="node">
<title>Node8</title>
<g id="a_node8"><a xlink:href="struct_mx_list_1_1_data.html" target="_top" xlink:title="these members are public to allow unions">
<polygon fill="none" stroke="black" points="115,-43 115,-73 222,-73 222,-43 115,-43"/>
<text text-anchor="start" x="123" y="-61" font-family="Helvetica,sans-Serif" font-size="10.00">MxList&lt; T, Initializer,</text>
<text text-anchor="middle" x="168.5" y="-50" font-family="Helvetica,sans-Serif" font-size="10.00"> Prealloc &gt;::Data</text>
</a>
</g>
</g>
<!-- Node8&#45;&gt;Node7 -->
<g id="edge7" class="edge">
<title>Node8&#45;&gt;Node7</title>
<path fill="none" stroke="#9a32cd" stroke-dasharray="5,2" d="M232.35,-61.69C276.68,-64.22 337.46,-67.55 391,-70 443.08,-72.38 501.49,-74.57 547.82,-76.19"/>
<polygon fill="#9a32cd" stroke="#9a32cd" points="232.48,-58.19 222.3,-61.11 232.08,-65.18 232.48,-58.19"/>
<text text-anchor="middle" x="319.5" y="-73" font-family="Helvetica,sans-Serif" font-size="10.00"> d</text>
</g>
<!-- Node10 -->
<g id="node10" class="node">
<title>Node10</title>
<g id="a_node10"><a xlink:href="class_mx_list.html" target="_top" xlink:title=" ">
<polygon fill="none" stroke="black" points="266,-17 266,-47 373,-47 373,-17 266,-17"/>
<text text-anchor="start" x="274" y="-35" font-family="Helvetica,sans-Serif" font-size="10.00">MxList&lt; T, Initializer,</text>
<text text-anchor="middle" x="319.5" y="-24" font-family="Helvetica,sans-Serif" font-size="10.00"> Prealloc &gt;</text>
</a>
</g>
</g>
<!-- Node8&#45;&gt;Node10 -->
<g id="edge10" class="edge">
<title>Node8&#45;&gt;Node10</title>
<path fill="none" stroke="#9a32cd" stroke-dasharray="5,2" d="M232.21,-47.06C243.44,-45.1 255.03,-43.07 265.94,-41.17"/>
<polygon fill="#9a32cd" stroke="#9a32cd" points="231.28,-43.67 222.03,-48.83 232.48,-50.56 231.28,-43.67"/>
<text text-anchor="middle" x="244" y="-48" font-family="Helvetica,sans-Serif" font-size="10.00"> d</text>
</g>
<!-- Node9 -->
<g id="node9" class="node">
<title>Node9</title>
<g id="a_node9"><a xlink:href="class_mx_ref_counter.html" target="_top" xlink:title=" ">
<polygon fill="none" stroke="black" points="0,-48.5 0,-67.5 78,-67.5 78,-48.5 0,-48.5"/>
<text text-anchor="middle" x="39" y="-55.5" font-family="Helvetica,sans-Serif" font-size="10.00">MxRefCounter</text>
</a>
</g>
</g>
<!-- Node9&#45;&gt;Node8 -->
<g id="edge8" class="edge">
<title>Node9&#45;&gt;Node8</title>
<path fill="none" stroke="midnightblue" d="M88.46,-58C97.03,-58 105.98,-58 114.66,-58"/>
<polygon fill="midnightblue" stroke="midnightblue" points="88.25,-54.5 78.25,-58 88.25,-61.5 88.25,-54.5"/>
</g>
<!-- Node10&#45;&gt;Node7 -->
<g id="edge9" class="edge">
<title>Node10&#45;&gt;Node7</title>
<path fill="none" stroke="orange" stroke-dasharray="5,2" d="M383.24,-24.52C425.66,-21.61 482.41,-21.97 530,-37 539.17,-39.9 539.4,-44.69 548,-49 554.68,-52.35 561.83,-55.5 569.03,-58.4"/>
<polygon fill="orange" stroke="orange" points="382.75,-21.04 373.05,-25.3 383.28,-28.02 382.75,-21.04"/>
<text text-anchor="start" x="391" y="-62" font-family="Helvetica,sans-Serif" font-size="10.00"> &lt; MxRenderer::ReusableVbo,</text>
<text text-anchor="start" x="391" y="-51" font-family="Helvetica,sans-Serif" font-size="10.00"> MxClassInitializer&lt; MxRenderer</text>
<text text-anchor="middle" x="460.5" y="-40" font-family="Helvetica,sans-Serif" font-size="10.00">::ReusableVbo &gt;, 32 &gt;</text>
</g>
<!-- Node11 -->
<g id="node11" class="node">
<title>Node11</title>
<g id="a_node11"><a xlink:href="class_mx_abstract_atlas.html" target="_top" xlink:title=" ">
<polygon fill="none" stroke="black" points="826,-38.5 826,-57.5 915,-57.5 915,-38.5 826,-38.5"/>
<text text-anchor="middle" x="870.5" y="-45.5" font-family="Helvetica,sans-Serif" font-size="10.00">MxAbstractAtlas</text>
</a>
</g>
</g>
<!-- Node11&#45;&gt;Node1 -->
<g id="edge11" class="edge">
<title>Node11&#45;&gt;Node1</title>
<path fill="none" stroke="#9a32cd" stroke-dasharray="5,2" d="M925.23,-48C966.37,-48 1022.24,-48 1059.74,-48"/>
<polygon fill="#9a32cd" stroke="#9a32cd" points="925.11,-44.5 915.11,-48 925.11,-51.5 925.11,-44.5"/>
<text text-anchor="middle" x="987.5" y="-51" font-family="Helvetica,sans-Serif" font-size="10.00"> pIconAtlas</text>
</g>
<!-- Node12 -->
<g id="node12" class="node">
<title>Node12</title>
<g id="a_node12"><a xlink:href="class_mx_texture.html" target="_top" xlink:title=" ">
<polygon fill="none" stroke="black" points="602.5,-20.5 602.5,-39.5 664.5,-39.5 664.5,-20.5 602.5,-20.5"/>
<text text-anchor="middle" x="633.5" y="-27.5" font-family="Helvetica,sans-Serif" font-size="10.00">MxTexture</text>
</a>
</g>
</g>
<!-- Node12&#45;&gt;Node11 -->
<g id="edge12" class="edge">
<title>Node12&#45;&gt;Node11</title>
<path fill="none" stroke="#9a32cd" stroke-dasharray="5,2" d="M674.89,-33.09C716.93,-36.31 782.55,-41.34 825.78,-44.65"/>
<polygon fill="#9a32cd" stroke="#9a32cd" points="674.98,-29.59 664.74,-32.32 674.44,-36.57 674.98,-29.59"/>
<text text-anchor="middle" x="772.5" y="-47" font-family="Helvetica,sans-Serif" font-size="10.00"> pTexture</text>
</g>
<!-- Node13 -->
<g id="node13" class="node">
<title>Node13</title>
<g id="a_node13"><a xlink:href="class_mx_matrix.html" target="_top" xlink:title=" ">
<polygon fill="none" stroke="black" points="842.5,-0.5 842.5,-19.5 898.5,-19.5 898.5,-0.5 842.5,-0.5"/>
<text text-anchor="middle" x="870.5" y="-7.5" font-family="Helvetica,sans-Serif" font-size="10.00">MxMatrix</text>
</a>
</g>
</g>
<!-- Node13&#45;&gt;Node1 -->
<g id="edge13" class="edge">
<title>Node13&#45;&gt;Node1</title>
<path fill="none" stroke="#9a32cd" stroke-dasharray="5,2" d="M908.67,-13.75C943.35,-17.54 996.44,-24.12 1042,-33 1049.82,-34.52 1058.15,-36.47 1066.01,-38.44"/>
<polygon fill="#9a32cd" stroke="#9a32cd" points="908.85,-10.25 898.53,-12.66 908.1,-17.21 908.85,-10.25"/>
<text text-anchor="middle" x="987.5" y="-36" font-family="Helvetica,sans-Serif" font-size="10.00"> pScreenProjectionMatrix</text>
</g>
</g>
</svg>
