<?xml version="1.0" encoding="UTF-8" standalone="no"?>
<!DOCTYPE svg PUBLIC "-//W3C//DTD SVG 1.1//EN"
 "http://www.w3.org/Graphics/SVG/1.1/DTD/svg11.dtd">
<!-- Generated by graphviz version 2.44.0 ()
 -->
<!-- Title: MxList&lt; T, Initializer, Prealloc &gt; Pages: 1 -->
<svg width="451pt" height="140pt"
 viewBox="0.00 0.00 451.00 140.00" xmlns="http://www.w3.org/2000/svg" xmlns:xlink="http://www.w3.org/1999/xlink">
<g id="graph0" class="graph" transform="scale(1 1) rotate(0) translate(4 136)">
<title>MxList&lt; T, Initializer, Prealloc &gt;</title>
<!-- Node1 -->
<g id="node1" class="node">
<title>Node1</title>
<g id="a_node1"><a xlink:title=" ">
<polygon fill="#bfbfbf" stroke="black" points="0,-62 0,-92 107,-92 107,-62 0,-62"/>
<text text-anchor="start" x="8" y="-80" font-family="Helvetica,sans-Serif" font-size="10.00">MxList&lt; T, Initializer,</text>
<text text-anchor="middle" x="53.5" y="-69" font-family="Helvetica,sans-Serif" font-size="10.00"> Prealloc &gt;</text>
</a>
</g>
</g>
<!-- Node2 -->
<g id="node2" class="node">
<title>Node2</title>
<g id="a_node2"><a xlink:href="class_mx_list.html" target="_top" xlink:title=" ">
<polygon fill="none" stroke="black" points="301.5,-112.5 301.5,-131.5 417.5,-131.5 417.5,-112.5 301.5,-112.5"/>
<text text-anchor="middle" x="359.5" y="-119.5" font-family="Helvetica,sans-Serif" font-size="10.00">MxList&lt; MxGpuArray &gt;</text>
</a>
</g>
</g>
<!-- Node1&#45;&gt;Node2 -->
<g id="edge1" class="edge">
<title>Node1&#45;&gt;Node2</title>
<path fill="none" stroke="orange" stroke-dasharray="5,2" d="M105.07,-94.98C111.71,-96.9 118.48,-98.65 125,-100 184.4,-112.33 253.76,-117.76 301.36,-120.14"/>
<polygon fill="orange" stroke="orange" points="106.05,-91.62 95.47,-92.05 104.01,-98.31 106.05,-91.62"/>
<text text-anchor="middle" x="191.5" y="-120" font-family="Helvetica,sans-Serif" font-size="10.00"> &lt; MxGpuArray &gt;</text>
</g>
<!-- Node3 -->
<g id="node3" class="node">
<title>Node3</title>
<g id="a_node3"><a xlink:href="class_mx_list.html" target="_top" xlink:title=" ">
<polygon fill="none" stroke="black" points="279,-62 279,-92 440,-92 440,-62 279,-62"/>
<text text-anchor="start" x="287" y="-80" font-family="Helvetica,sans-Serif" font-size="10.00">MxList&lt; MxWidget *,</text>
<text text-anchor="middle" x="359.5" y="-69" font-family="Helvetica,sans-Serif" font-size="10.00"> MxPodInitializer&lt; MxWidget * &gt; &gt;</text>
</a>
</g>
</g>
<!-- Node1&#45;&gt;Node3 -->
<g id="edge2" class="edge">
<title>Node1&#45;&gt;Node3</title>
<path fill="none" stroke="orange" stroke-dasharray="5,2" d="M117.12,-77C163.96,-77 228.36,-77 278.86,-77"/>
<polygon fill="orange" stroke="orange" points="117.11,-73.5 107.11,-77 117.11,-80.5 117.11,-73.5"/>
<text text-anchor="start" x="125" y="-91" font-family="Helvetica,sans-Serif" font-size="10.00"> &lt; MxWidget *, MxPodInitializer</text>
<text text-anchor="middle" x="191.5" y="-80" font-family="Helvetica,sans-Serif" font-size="10.00">&lt; MxWidget * &gt; &gt;</text>
</g>
<!-- Node4 -->
<g id="node4" class="node">
<title>Node4</title>
<g id="a_node4"><a xlink:href="class_mx_list.html" target="_top" xlink:title=" ">
<polygon fill="none" stroke="black" points="276,-0.5 276,-41.5 443,-41.5 443,-0.5 276,-0.5"/>
<text text-anchor="start" x="284" y="-29.5" font-family="Helvetica,sans-Serif" font-size="10.00">MxList&lt; MxCachedGpuArray,</text>
<text text-anchor="start" x="284" y="-18.5" font-family="Helvetica,sans-Serif" font-size="10.00"> MxClassInitializer&lt; MxCachedGpu</text>
<text text-anchor="middle" x="359.5" y="-7.5" font-family="Helvetica,sans-Serif" font-size="10.00">Array &gt;, 32 &gt;</text>
</a>
</g>
</g>
<!-- Node1&#45;&gt;Node4 -->
<g id="edge3" class="edge">
<title>Node1&#45;&gt;Node4</title>
<path fill="none" stroke="orange" stroke-dasharray="5,2" d="M86.55,-56.7C98.22,-50.26 111.8,-43.83 125,-40 173.73,-25.87 230.42,-21 275.73,-19.72"/>
<polygon fill="orange" stroke="orange" points="84.56,-53.8 77.64,-61.82 88.05,-59.88 84.56,-53.8"/>
<text text-anchor="start" x="128" y="-65" font-family="Helvetica,sans-Serif" font-size="10.00"> &lt; MxCachedGpuArray,</text>
<text text-anchor="start" x="128" y="-54" font-family="Helvetica,sans-Serif" font-size="10.00"> MxClassInitializer</text>
<text text-anchor="middle" x="191.5" y="-43" font-family="Helvetica,sans-Serif" font-size="10.00">&lt; MxCachedGpuArray &gt;, 32 &gt;</text>
</g>
</g>
</svg>
