<?xml version="1.0" encoding="UTF-8" standalone="no"?>
<!DOCTYPE svg PUBLIC "-//W3C//DTD SVG 1.1//EN"
 "http://www.w3.org/Graphics/SVG/1.1/DTD/svg11.dtd">
<!-- Generated by graphviz version 2.44.0 ()
 -->
<!-- Title: MxIconProgram Pages: 1 -->
<svg width="921pt" height="391pt"
 viewBox="0.00 0.00 921.00 391.00" xmlns="http://www.w3.org/2000/svg" xmlns:xlink="http://www.w3.org/1999/xlink">
<g id="graph0" class="graph" transform="scale(1 1) rotate(0) translate(4 387)">
<title>MxIconProgram</title>
<!-- Node1 -->
<g id="node1" class="node">
<title>Node1</title>
<g id="a_node1"><a xlink:title=" ">
<polygon fill="#bfbfbf" stroke="black" points="828,-363.5 828,-382.5 913,-382.5 913,-363.5 828,-363.5"/>
<text text-anchor="middle" x="870.5" y="-370.5" font-family="Helvetica,sans-Serif" font-size="10.00">MxIconProgram</text>
</a>
</g>
</g>
<!-- Node2 -->
<g id="node2" class="node">
<title>Node2</title>
<g id="a_node2"><a xlink:href="class_mx_gpu_program.html" target="_top" xlink:title=" ">
<polygon fill="none" stroke="black" points="591.5,-345.5 591.5,-364.5 675.5,-364.5 675.5,-345.5 591.5,-345.5"/>
<text text-anchor="middle" x="633.5" y="-352.5" font-family="Helvetica,sans-Serif" font-size="10.00">MxGpuProgram</text>
</a>
</g>
</g>
<!-- Node2&#45;&gt;Node1 -->
<g id="edge1" class="edge">
<title>Node2&#45;&gt;Node1</title>
<path fill="none" stroke="midnightblue" d="M685.87,-353.24C728.49,-354.97 788.31,-359.69 827.95,-364.52"/>
<polygon fill="midnightblue" stroke="midnightblue" points="685.82,-349.74 675.7,-352.88 685.57,-356.73 685.82,-349.74"/>
</g>
<!-- Node2&#45;&gt;Node1 -->
<g id="edge21" class="edge">
<title>Node2&#45;&gt;Node1</title>
<path fill="none" stroke="midnightblue" d="M685.87,-364.63C728.49,-369.42 788.31,-373.87 827.95,-375.11"/>
<polygon fill="midnightblue" stroke="midnightblue" points="686.04,-361.12 675.7,-363.44 685.23,-368.08 686.04,-361.12"/>
</g>
<!-- Node3 -->
<g id="node3" class="node">
<title>Node3</title>
<g id="a_node3"><a xlink:href="class_mx_renderer.html" target="_top" xlink:title="The MxRenderer keeps track of the rendering state and resources.">
<polygon fill="none" stroke="black" points="836.5,-201.5 836.5,-220.5 904.5,-220.5 904.5,-201.5 836.5,-201.5"/>
<text text-anchor="middle" x="870.5" y="-208.5" font-family="Helvetica,sans-Serif" font-size="10.00">MxRenderer</text>
</a>
</g>
</g>
<!-- Node2&#45;&gt;Node3 -->
<g id="edge20" class="edge">
<title>Node2&#45;&gt;Node3</title>
<path fill="none" stroke="#9a32cd" stroke-dasharray="5,2" d="M660.04,-340.33C680.41,-329.06 709.91,-313.66 737,-303 768.42,-290.64 781.7,-300.41 810,-282 834.81,-265.86 854.69,-236.25 863.91,-220.86"/>
<polygon fill="#9a32cd" stroke="#9a32cd" points="658.11,-337.4 651.09,-345.34 661.53,-343.51 658.11,-337.4"/>
<text text-anchor="middle" x="773.5" y="-306" font-family="Helvetica,sans-Serif" font-size="10.00"> pCurrProgram</text>
</g>
<!-- Node3&#45;&gt;Node2 -->
<g id="edge2" class="edge">
<title>Node3&#45;&gt;Node2</title>
<path fill="none" stroke="#9a32cd" stroke-dasharray="5,2" d="M863.92,-230.33C855.98,-254.27 839.07,-294.5 810,-316 770.73,-345.05 713.89,-353.16 675.63,-355.07"/>
<polygon fill="#9a32cd" stroke="#9a32cd" points="867.32,-231.2 866.95,-220.61 860.64,-229.12 867.32,-231.2"/>
<text text-anchor="middle" x="773.5" y="-349" font-family="Helvetica,sans-Serif" font-size="10.00"> pRenderer</text>
</g>
<!-- Node4 -->
<g id="node4" class="node">
<title>Node4</title>
<g id="a_node4"><a xlink:title=" ">
<polygon fill="none" stroke="#bfbfbf" points="579,-241.5 579,-260.5 688,-260.5 688,-241.5 579,-241.5"/>
<text text-anchor="middle" x="633.5" y="-248.5" font-family="Helvetica,sans-Serif" font-size="10.00">MxOpenGLFunctions</text>
</a>
</g>
</g>
<!-- Node4&#45;&gt;Node3 -->
<g id="edge3" class="edge">
<title>Node4&#45;&gt;Node3</title>
<path fill="none" stroke="midnightblue" d="M698.43,-241.44C731.75,-236.3 773.13,-229.66 810,-223 818.5,-221.46 827.66,-219.68 836.19,-217.97"/>
<polygon fill="midnightblue" stroke="midnightblue" points="697.72,-238.01 688.36,-242.99 698.78,-244.93 697.72,-238.01"/>
</g>
<!-- Node5 -->
<g id="node5" class="node">
<title>Node5</title>
<g id="a_node5"><a xlink:href="struct_mx_renderer_1_1_texture__p.html" target="_top" xlink:title=" ">
<polygon fill="none" stroke="black" points="575.5,-203.5 575.5,-222.5 691.5,-222.5 691.5,-203.5 575.5,-203.5"/>
<text text-anchor="middle" x="633.5" y="-210.5" font-family="Helvetica,sans-Serif" font-size="10.00">MxRenderer::Texture_p</text>
</a>
</g>
</g>
<!-- Node5&#45;&gt;Node3 -->
<g id="edge4" class="edge">
<title>Node5&#45;&gt;Node3</title>
<path fill="none" stroke="#9a32cd" stroke-dasharray="5,2" d="M701.87,-212.32C713.58,-212.21 725.65,-212.1 737,-212 770.81,-211.71 809.48,-211.42 836.28,-211.23"/>
<polygon fill="#9a32cd" stroke="#9a32cd" points="701.66,-208.82 691.7,-212.42 701.73,-215.82 701.66,-208.82"/>
<text text-anchor="middle" x="773.5" y="-215" font-family="Helvetica,sans-Serif" font-size="10.00"> pBoundTextures</text>
</g>
<!-- Node6 -->
<g id="node6" class="node">
<title>Node6</title>
<g id="a_node6"><a xlink:href="class_mx_texture.html" target="_top" xlink:title=" ">
<polygon fill="none" stroke="black" points="288.5,-219.5 288.5,-238.5 350.5,-238.5 350.5,-219.5 288.5,-219.5"/>
<text text-anchor="middle" x="319.5" y="-226.5" font-family="Helvetica,sans-Serif" font-size="10.00">MxTexture</text>
</a>
</g>
</g>
<!-- Node6&#45;&gt;Node5 -->
<g id="edge5" class="edge">
<title>Node6&#45;&gt;Node5</title>
<path fill="none" stroke="#9a32cd" stroke-dasharray="5,2" d="M360.7,-226.94C415.32,-224.14 513.28,-219.11 575.48,-215.92"/>
<polygon fill="#9a32cd" stroke="#9a32cd" points="360.51,-223.44 350.7,-227.45 360.87,-230.43 360.51,-223.44"/>
<text text-anchor="middle" x="460.5" y="-229" font-family="Helvetica,sans-Serif" font-size="10.00"> texture</text>
</g>
<!-- Node7 -->
<g id="node7" class="node">
<title>Node7</title>
<g id="a_node7"><a xlink:href="struct_mx_renderer_1_1_viewport.html" target="_top" xlink:title=" ">
<polygon fill="none" stroke="black" points="578,-165.5 578,-184.5 689,-184.5 689,-165.5 578,-165.5"/>
<text text-anchor="middle" x="633.5" y="-172.5" font-family="Helvetica,sans-Serif" font-size="10.00">MxRenderer::Viewport</text>
</a>
</g>
</g>
<!-- Node7&#45;&gt;Node3 -->
<g id="edge6" class="edge">
<title>Node7&#45;&gt;Node3</title>
<path fill="none" stroke="#9a32cd" stroke-dasharray="5,2" d="M699.32,-181.46C732.54,-185.19 773.57,-190.45 810,-197 818.56,-198.54 827.75,-200.53 836.27,-202.52"/>
<polygon fill="#9a32cd" stroke="#9a32cd" points="699.6,-177.97 689.27,-180.35 698.83,-184.93 699.6,-177.97"/>
<text text-anchor="middle" x="773.5" y="-200" font-family="Helvetica,sans-Serif" font-size="10.00"> pViewport</text>
</g>
<!-- Node8 -->
<g id="node8" class="node">
<title>Node8</title>
<g id="a_node8"><a xlink:href="class_mx_list.html" target="_top" xlink:title=" ">
<polygon fill="none" stroke="black" points="575.5,-127.5 575.5,-146.5 691.5,-146.5 691.5,-127.5 575.5,-127.5"/>
<text text-anchor="middle" x="633.5" y="-134.5" font-family="Helvetica,sans-Serif" font-size="10.00">MxList&lt; MxGpuArray &gt;</text>
</a>
</g>
</g>
<!-- Node8&#45;&gt;Node3 -->
<g id="edge7" class="edge">
<title>Node8&#45;&gt;Node3</title>
<path fill="none" stroke="#9a32cd" stroke-dasharray="5,2" d="M701.95,-144.29C735.34,-149.42 775.73,-157.97 810,-172 828.06,-179.39 846.49,-192.52 857.96,-201.48"/>
<polygon fill="#9a32cd" stroke="#9a32cd" points="702.23,-140.79 691.82,-142.8 701.21,-147.72 702.23,-140.79"/>
<text text-anchor="middle" x="773.5" y="-175" font-family="Helvetica,sans-Serif" font-size="10.00"> pBufferViews</text>
</g>
<!-- Node9 -->
<g id="node9" class="node">
<title>Node9</title>
<g id="a_node9"><a xlink:href="struct_mx_list_1_1_data.html" target="_top" xlink:title="these members are public to allow unions">
<polygon fill="none" stroke="black" points="115,-110 115,-140 222,-140 222,-110 115,-110"/>
<text text-anchor="start" x="123" y="-128" font-family="Helvetica,sans-Serif" font-size="10.00">MxList&lt; T, Initializer,</text>
<text text-anchor="middle" x="168.5" y="-117" font-family="Helvetica,sans-Serif" font-size="10.00"> Prealloc &gt;::Data</text>
</a>
</g>
</g>
<!-- Node9&#45;&gt;Node8 -->
<g id="edge8" class="edge">
<title>Node9&#45;&gt;Node8</title>
<path fill="none" stroke="#9a32cd" stroke-dasharray="5,2" d="M205.24,-144.45C216.1,-149.46 228.26,-154.22 240,-157 365.45,-186.67 402.76,-182.65 530,-162 538.32,-160.65 539.88,-158.26 548,-156 560.31,-152.57 573.76,-149.33 586.24,-146.52"/>
<polygon fill="#9a32cd" stroke="#9a32cd" points="206.61,-141.22 196.08,-140.02 203.56,-147.53 206.61,-141.22"/>
<text text-anchor="middle" x="319.5" y="-182" font-family="Helvetica,sans-Serif" font-size="10.00"> d</text>
</g>
<!-- Node11 -->
<g id="node11" class="node">
<title>Node11</title>
<g id="a_node11"><a xlink:href="class_mx_list.html" target="_top" xlink:title=" ">
<polygon fill="none" stroke="black" points="266,-67 266,-97 373,-97 373,-67 266,-67"/>
<text text-anchor="start" x="274" y="-85" font-family="Helvetica,sans-Serif" font-size="10.00">MxList&lt; T, Initializer,</text>
<text text-anchor="middle" x="319.5" y="-74" font-family="Helvetica,sans-Serif" font-size="10.00"> Prealloc &gt;</text>
</a>
</g>
</g>
<!-- Node9&#45;&gt;Node11 -->
<g id="edge11" class="edge">
<title>Node9&#45;&gt;Node11</title>
<path fill="none" stroke="#9a32cd" stroke-dasharray="5,2" d="M231.29,-107.17C242.97,-103.8 255.08,-100.3 266.42,-97.03"/>
<polygon fill="#9a32cd" stroke="#9a32cd" points="230.25,-103.83 221.61,-109.96 232.19,-110.55 230.25,-103.83"/>
<text text-anchor="middle" x="244" y="-107" font-family="Helvetica,sans-Serif" font-size="10.00"> d</text>
</g>
<!-- Node12 -->
<g id="node12" class="node">
<title>Node12</title>
<g id="a_node12"><a xlink:href="class_mx_list.html" target="_top" xlink:title=" ">
<polygon fill="none" stroke="black" points="574,-78 574,-108 693,-108 693,-78 574,-78"/>
<text text-anchor="start" x="582" y="-96" font-family="Helvetica,sans-Serif" font-size="10.00">MxList&lt; MxRenderer</text>
<text text-anchor="middle" x="633.5" y="-85" font-family="Helvetica,sans-Serif" font-size="10.00">::StoredRootSignature &gt;</text>
</a>
</g>
</g>
<!-- Node9&#45;&gt;Node12 -->
<g id="edge13" class="edge">
<title>Node9&#45;&gt;Node12</title>
<path fill="none" stroke="#9a32cd" stroke-dasharray="5,2" d="M232.21,-132.22C320.72,-141.46 477.37,-154.01 530,-134 540,-130.2 538.64,-123.2 548,-118 556.02,-113.54 564.93,-109.8 573.86,-106.68"/>
<polygon fill="#9a32cd" stroke="#9a32cd" points="232.34,-128.72 222.03,-131.14 231.6,-135.68 232.34,-128.72"/>
<text text-anchor="middle" x="319.5" y="-147" font-family="Helvetica,sans-Serif" font-size="10.00"> d</text>
</g>
<!-- Node15 -->
<g id="node15" class="node">
<title>Node15</title>
<g id="a_node15"><a xlink:href="class_mx_list.html" target="_top" xlink:title=" ">
<polygon fill="none" stroke="black" points="548,-0.5 548,-41.5 719,-41.5 719,-0.5 548,-0.5"/>
<text text-anchor="start" x="556" y="-29.5" font-family="Helvetica,sans-Serif" font-size="10.00">MxList&lt; MxRenderer</text>
<text text-anchor="start" x="556" y="-18.5" font-family="Helvetica,sans-Serif" font-size="10.00">::ReusableVbo, MxClassInitializer</text>
<text text-anchor="middle" x="633.5" y="-7.5" font-family="Helvetica,sans-Serif" font-size="10.00">&lt; MxRenderer::ReusableVbo &gt;, 32 &gt;</text>
</a>
</g>
</g>
<!-- Node9&#45;&gt;Node15 -->
<g id="edge18" class="edge">
<title>Node9&#45;&gt;Node15</title>
<path fill="none" stroke="#9a32cd" stroke-dasharray="5,2" d="M190.96,-102.62C209.29,-84.76 237.21,-60.43 266,-46 354.38,-1.71 470.09,-1.89 547.64,-8.92"/>
<polygon fill="#9a32cd" stroke="#9a32cd" points="188.33,-100.29 183.71,-109.83 193.27,-105.26 188.33,-100.29"/>
<text text-anchor="middle" x="319.5" y="-49" font-family="Helvetica,sans-Serif" font-size="10.00"> d</text>
</g>
<!-- Node10 -->
<g id="node10" class="node">
<title>Node10</title>
<g id="a_node10"><a xlink:href="class_mx_ref_counter.html" target="_top" xlink:title=" ">
<polygon fill="none" stroke="black" points="0,-115.5 0,-134.5 78,-134.5 78,-115.5 0,-115.5"/>
<text text-anchor="middle" x="39" y="-122.5" font-family="Helvetica,sans-Serif" font-size="10.00">MxRefCounter</text>
</a>
</g>
</g>
<!-- Node10&#45;&gt;Node9 -->
<g id="edge9" class="edge">
<title>Node10&#45;&gt;Node9</title>
<path fill="none" stroke="midnightblue" d="M88.46,-125C97.03,-125 105.98,-125 114.66,-125"/>
<polygon fill="midnightblue" stroke="midnightblue" points="88.25,-121.5 78.25,-125 88.25,-128.5 88.25,-121.5"/>
</g>
<!-- Node11&#45;&gt;Node8 -->
<g id="edge10" class="edge">
<title>Node11&#45;&gt;Node8</title>
<path fill="none" stroke="orange" stroke-dasharray="5,2" d="M382.97,-98.29C385.68,-98.89 388.36,-99.46 391,-100 453.55,-112.75 526.02,-123.29 575.13,-129.82"/>
<polygon fill="orange" stroke="orange" points="383.64,-94.86 373.11,-96.03 382.08,-101.68 383.64,-94.86"/>
<text text-anchor="middle" x="460.5" y="-127" font-family="Helvetica,sans-Serif" font-size="10.00"> &lt; MxGpuArray &gt;</text>
</g>
<!-- Node11&#45;&gt;Node12 -->
<g id="edge14" class="edge">
<title>Node11&#45;&gt;Node12</title>
<path fill="none" stroke="orange" stroke-dasharray="5,2" d="M383.31,-78.25C385.91,-78.16 388.48,-78.07 391,-78 452.75,-76.25 468.39,-73.52 530,-78 544.26,-79.04 559.55,-80.88 573.85,-82.92"/>
<polygon fill="orange" stroke="orange" points="383.07,-74.76 373.23,-78.68 383.37,-81.76 383.07,-74.76"/>
<text text-anchor="start" x="402.5" y="-92" font-family="Helvetica,sans-Serif" font-size="10.00"> &lt; MxRenderer::StoredRoot</text>
<text text-anchor="middle" x="460.5" y="-81" font-family="Helvetica,sans-Serif" font-size="10.00">Signature &gt;</text>
</g>
<!-- Node11&#45;&gt;Node15 -->
<g id="edge19" class="edge">
<title>Node11&#45;&gt;Node15</title>
<path fill="none" stroke="orange" stroke-dasharray="5,2" d="M348.13,-60.94C360.57,-52.61 375.84,-43.87 391,-39 441.43,-22.79 500.72,-18.17 547.94,-17.67"/>
<polygon fill="orange" stroke="orange" points="345.82,-58.28 339.62,-66.87 349.83,-64.03 345.82,-58.28"/>
<text text-anchor="start" x="391" y="-64" font-family="Helvetica,sans-Serif" font-size="10.00"> &lt; MxRenderer::ReusableVbo,</text>
<text text-anchor="start" x="391" y="-53" font-family="Helvetica,sans-Serif" font-size="10.00"> MxClassInitializer&lt; MxRenderer</text>
<text text-anchor="middle" x="460.5" y="-42" font-family="Helvetica,sans-Serif" font-size="10.00">::ReusableVbo &gt;, 32 &gt;</text>
</g>
<!-- Node12&#45;&gt;Node3 -->
<g id="edge12" class="edge">
<title>Node12&#45;&gt;Node3</title>
<path fill="none" stroke="#9a32cd" stroke-dasharray="5,2" d="M703.08,-99.76C737.31,-105.62 778.1,-116.57 810,-137 835.96,-153.63 855.74,-185.45 864.52,-201.39"/>
<polygon fill="#9a32cd" stroke="#9a32cd" points="703.58,-96.3 693.15,-98.17 702.47,-103.21 703.58,-96.3"/>
<text text-anchor="middle" x="773.5" y="-140" font-family="Helvetica,sans-Serif" font-size="10.00"> pRootInputList</text>
</g>
<!-- Node13 -->
<g id="node13" class="node">
<title>Node13</title>
<g id="a_node13"><a xlink:href="class_mx_vector.html" target="_top" xlink:title=" ">
<polygon fill="none" stroke="black" points="586,-279.5 586,-298.5 681,-298.5 681,-279.5 586,-279.5"/>
<text text-anchor="middle" x="633.5" y="-286.5" font-family="Helvetica,sans-Serif" font-size="10.00">MxVector&lt; 2, int &gt;</text>
</a>
</g>
</g>
<!-- Node13&#45;&gt;Node3 -->
<g id="edge15" class="edge">
<title>Node13&#45;&gt;Node3</title>
<path fill="none" stroke="#9a32cd" stroke-dasharray="5,2" d="M691.16,-278.72C726.19,-271.34 771.64,-259.87 810,-244 825.72,-237.5 842.58,-227.87 854.32,-220.69"/>
<polygon fill="#9a32cd" stroke="#9a32cd" points="690.19,-275.35 681.1,-280.79 691.6,-282.21 690.19,-275.35"/>
<text text-anchor="middle" x="773.5" y="-271" font-family="Helvetica,sans-Serif" font-size="10.00"> pScreenSize</text>
</g>
<!-- Node14 -->
<g id="node14" class="node">
<title>Node14</title>
<g id="a_node14"><a xlink:href="class_mx_vector.html" target="_top" xlink:title=" ">
<polygon fill="none" stroke="black" points="273,-279.5 273,-298.5 366,-298.5 366,-279.5 273,-279.5"/>
<text text-anchor="middle" x="319.5" y="-286.5" font-family="Helvetica,sans-Serif" font-size="10.00">MxVector&lt; N, T &gt;</text>
</a>
</g>
</g>
<!-- Node14&#45;&gt;Node13 -->
<g id="edge16" class="edge">
<title>Node14&#45;&gt;Node13</title>
<path fill="none" stroke="orange" stroke-dasharray="5,2" d="M376.22,-289C436.01,-289 529.91,-289 585.91,-289"/>
<polygon fill="orange" stroke="orange" points="376.2,-285.5 366.2,-289 376.2,-292.5 376.2,-285.5"/>
<text text-anchor="middle" x="460.5" y="-292" font-family="Helvetica,sans-Serif" font-size="10.00"> &lt; 2, int &gt;</text>
</g>
<!-- Node15&#45;&gt;Node3 -->
<g id="edge17" class="edge">
<title>Node15&#45;&gt;Node3</title>
<path fill="none" stroke="#9a32cd" stroke-dasharray="5,2" d="M727.56,-45.17C756.51,-56.14 786.87,-71.6 810,-93 843.85,-124.32 861.23,-179.2 867.13,-201.34"/>
<polygon fill="#9a32cd" stroke="#9a32cd" points="728.4,-41.75 717.81,-41.62 726.01,-48.33 728.4,-41.75"/>
<text text-anchor="middle" x="773.5" y="-96" font-family="Helvetica,sans-Serif" font-size="10.00"> pReusableVbos</text>
</g>
</g>
</svg>
