<?xml version="1.0" encoding="UTF-8" standalone="no"?>
<!DOCTYPE svg PUBLIC "-//W3C//DTD SVG 1.1//EN"
 "http://www.w3.org/Graphics/SVG/1.1/DTD/svg11.dtd">
<!-- Generated by graphviz version 2.44.0 ()
 -->
<!-- Title: MxVectorProgram Pages: 1 -->
<svg width="1172pt" height="202pt"
 viewBox="0.00 0.00 1172.00 202.00" xmlns="http://www.w3.org/2000/svg" xmlns:xlink="http://www.w3.org/1999/xlink">
<g id="graph0" class="graph" transform="scale(1 1) rotate(0) translate(4 198)">
<title>MxVectorProgram</title>
<!-- Node1 -->
<g id="node1" class="node">
<title>Node1</title>
<g id="a_node1"><a xlink:title=" ">
<polygon fill="#bfbfbf" stroke="black" points="552,-0.5 552,-19.5 647,-19.5 647,-0.5 552,-0.5"/>
<text text-anchor="middle" x="599.5" y="-7.5" font-family="Helvetica,sans-Serif" font-size="10.00">MxVectorProgram</text>
</a>
</g>
</g>
<!-- Node3 -->
<g id="node3" class="node">
<title>Node3</title>
<g id="a_node3"><a xlink:href="class_mx_renderer.html" target="_top" xlink:title=" ">
<polygon fill="none" stroke="black" points="763,-80.5 763,-99.5 831,-99.5 831,-80.5 763,-80.5"/>
<text text-anchor="middle" x="797" y="-87.5" font-family="Helvetica,sans-Serif" font-size="10.00">MxRenderer</text>
</a>
</g>
</g>
<!-- Node1&#45;&gt;Node3 -->
<g id="edge4" class="edge">
<title>Node1&#45;&gt;Node3</title>
<path fill="none" stroke="#9a32cd" stroke-dasharray="5,2" d="M654.5,-22.06C682.34,-29.36 716.36,-39.99 745,-54 759.6,-61.15 774.6,-72.28 784.52,-80.27"/>
<polygon fill="#9a32cd" stroke="#9a32cd" points="655.1,-18.6 644.55,-19.53 653.37,-25.39 655.1,-18.6"/>
<text text-anchor="middle" x="708.5" y="-57" font-family="Helvetica,sans-Serif" font-size="10.00"> pVectorProgram</text>
</g>
<!-- Node2 -->
<g id="node2" class="node">
<title>Node2</title>
<g id="a_node2"><a xlink:href="class_mx_shader_program.html" target="_top" xlink:title=" ">
<polygon fill="none" stroke="black" points="914,-68.5 914,-87.5 1011,-87.5 1011,-68.5 914,-68.5"/>
<text text-anchor="middle" x="962.5" y="-75.5" font-family="Helvetica,sans-Serif" font-size="10.00">MxShaderProgram</text>
</a>
</g>
</g>
<!-- Node2&#45;&gt;Node1 -->
<g id="edge1" class="edge">
<title>Node2&#45;&gt;Node1</title>
<path fill="none" stroke="midnightblue" d="M917.97,-65.84C874.49,-54.1 805.59,-36.59 745,-26 712.55,-20.33 675.64,-16.28 647.24,-13.68"/>
<polygon fill="midnightblue" stroke="midnightblue" points="917.09,-69.23 927.65,-68.47 918.92,-62.47 917.09,-69.23"/>
</g>
<!-- Node5 -->
<g id="node5" class="node">
<title>Node5</title>
<g id="a_node5"><a xlink:href="class_mx_color_wheel_program.html" target="_top" xlink:title=" ">
<polygon fill="none" stroke="black" points="1048,-50.5 1048,-69.5 1164,-69.5 1164,-50.5 1048,-50.5"/>
<text text-anchor="middle" x="1106" y="-57.5" font-family="Helvetica,sans-Serif" font-size="10.00">MxColorWheelProgram</text>
</a>
</g>
</g>
<!-- Node2&#45;&gt;Node5 -->
<g id="edge6" class="edge">
<title>Node2&#45;&gt;Node5</title>
<path fill="none" stroke="midnightblue" d="M1021.1,-70.67C1029.82,-69.56 1038.83,-68.42 1047.55,-67.31"/>
<polygon fill="midnightblue" stroke="midnightblue" points="1020.49,-67.22 1011.01,-71.96 1021.37,-74.17 1020.49,-67.22"/>
</g>
<!-- Node13 -->
<g id="node13" class="node">
<title>Node13</title>
<g id="a_node13"><a xlink:href="class_mx_icon_program.html" target="_top" xlink:title=" ">
<polygon fill="none" stroke="black" points="1063.5,-94.5 1063.5,-113.5 1148.5,-113.5 1148.5,-94.5 1063.5,-94.5"/>
<text text-anchor="middle" x="1106" y="-101.5" font-family="Helvetica,sans-Serif" font-size="10.00">MxIconProgram</text>
</a>
</g>
</g>
<!-- Node2&#45;&gt;Node13 -->
<g id="edge16" class="edge">
<title>Node2&#45;&gt;Node13</title>
<path fill="none" stroke="midnightblue" d="M1021.08,-88.58C1035.14,-91.16 1049.91,-93.88 1063.07,-96.3"/>
<polygon fill="midnightblue" stroke="midnightblue" points="1021.48,-85.09 1011.01,-86.73 1020.21,-91.98 1021.48,-85.09"/>
</g>
<!-- Node3&#45;&gt;Node2 -->
<g id="edge2" class="edge">
<title>Node3&#45;&gt;Node2</title>
<path fill="none" stroke="#9a32cd" stroke-dasharray="5,2" d="M841.29,-86.82C863.64,-85.18 890.96,-83.18 913.9,-81.49"/>
<polygon fill="#9a32cd" stroke="#9a32cd" points="840.8,-83.35 831.09,-87.57 841.32,-90.33 840.8,-83.35"/>
<text text-anchor="middle" x="872.5" y="-90" font-family="Helvetica,sans-Serif" font-size="10.00"> pRenderer</text>
</g>
<!-- Node4 -->
<g id="node4" class="node">
<title>Node4</title>
<g id="a_node4"><a xlink:title=" ">
<polygon fill="none" stroke="#bfbfbf" points="545,-98.5 545,-117.5 654,-117.5 654,-98.5 545,-98.5"/>
<text text-anchor="middle" x="599.5" y="-105.5" font-family="Helvetica,sans-Serif" font-size="10.00">MxOpenGLFunctions</text>
</a>
</g>
</g>
<!-- Node4&#45;&gt;Node3 -->
<g id="edge3" class="edge">
<title>Node4&#45;&gt;Node3</title>
<path fill="none" stroke="midnightblue" d="M664.2,-102.13C697.16,-99.1 736.03,-95.52 762.98,-93.04"/>
<polygon fill="midnightblue" stroke="midnightblue" points="663.82,-98.66 654.18,-103.06 664.46,-105.63 663.82,-98.66"/>
</g>
<!-- Node5&#45;&gt;Node3 -->
<g id="edge5" class="edge">
<title>Node5&#45;&gt;Node3</title>
<path fill="none" stroke="#9a32cd" stroke-dasharray="5,2" d="M1044.84,-49.01C1007.03,-43.88 957.37,-40.39 914,-48 878.98,-54.14 840.6,-69.98 817.95,-80.36"/>
<polygon fill="#9a32cd" stroke="#9a32cd" points="1044.78,-52.54 1055.18,-50.49 1045.78,-45.61 1044.78,-52.54"/>
<text text-anchor="middle" x="962.5" y="-51" font-family="Helvetica,sans-Serif" font-size="10.00"> pColorWheelEffect</text>
</g>
<!-- Node6 -->
<g id="node6" class="node">
<title>Node6</title>
<g id="a_node6"><a xlink:href="class_mx_list.html" target="_top" xlink:title=" ">
<polygon fill="none" stroke="black" points="549,-38.5 549,-79.5 650,-79.5 650,-38.5 549,-38.5"/>
<text text-anchor="start" x="557" y="-67.5" font-family="Helvetica,sans-Serif" font-size="10.00">MxList&lt; GpuBuffer,</text>
<text text-anchor="start" x="557" y="-56.5" font-family="Helvetica,sans-Serif" font-size="10.00"> MxClassInitializer</text>
<text text-anchor="middle" x="599.5" y="-45.5" font-family="Helvetica,sans-Serif" font-size="10.00">&lt; GpuBuffer &gt; &gt;</text>
</a>
</g>
</g>
<!-- Node6&#45;&gt;Node3 -->
<g id="edge7" class="edge">
<title>Node6&#45;&gt;Node3</title>
<path fill="none" stroke="#9a32cd" stroke-dasharray="5,2" d="M660.2,-67C686.28,-70.67 717.2,-75.26 745,-80 750.78,-80.99 756.91,-82.12 762.85,-83.25"/>
<polygon fill="#9a32cd" stroke="#9a32cd" points="660.47,-63.51 650.08,-65.59 659.5,-70.44 660.47,-63.51"/>
<text text-anchor="middle" x="708.5" y="-83" font-family="Helvetica,sans-Serif" font-size="10.00"> pVboList</text>
</g>
<!-- Node7 -->
<g id="node7" class="node">
<title>Node7</title>
<g id="a_node7"><a xlink:href="struct_mx_list_1_1_data.html" target="_top" xlink:title="these members are public to allow unions">
<polygon fill="none" stroke="black" points="115,-61 115,-91 222,-91 222,-61 115,-61"/>
<text text-anchor="start" x="123" y="-79" font-family="Helvetica,sans-Serif" font-size="10.00">MxList&lt; T, Initializer,</text>
<text text-anchor="middle" x="168.5" y="-68" font-family="Helvetica,sans-Serif" font-size="10.00"> Prealloc &gt;::Data</text>
</a>
</g>
</g>
<!-- Node7&#45;&gt;Node6 -->
<g id="edge8" class="edge">
<title>Node7&#45;&gt;Node6</title>
<path fill="none" stroke="#9a32cd" stroke-dasharray="5,2" d="M232.25,-84.04C304.02,-91.66 424.81,-99.69 527,-83 534.11,-81.84 541.46,-80.07 548.63,-78.01"/>
<polygon fill="#9a32cd" stroke="#9a32cd" points="232.34,-80.53 222.02,-82.92 231.58,-87.49 232.34,-80.53"/>
<text text-anchor="middle" x="319.5" y="-96" font-family="Helvetica,sans-Serif" font-size="10.00"> d</text>
</g>
<!-- Node9 -->
<g id="node9" class="node">
<title>Node9</title>
<g id="a_node9"><a xlink:href="class_mx_list.html" target="_top" xlink:title=" ">
<polygon fill="none" stroke="black" points="266,-35 266,-65 373,-65 373,-35 266,-35"/>
<text text-anchor="start" x="274" y="-53" font-family="Helvetica,sans-Serif" font-size="10.00">MxList&lt; T, Initializer,</text>
<text text-anchor="middle" x="319.5" y="-42" font-family="Helvetica,sans-Serif" font-size="10.00"> Prealloc &gt;</text>
</a>
</g>
</g>
<!-- Node7&#45;&gt;Node9 -->
<g id="edge11" class="edge">
<title>Node7&#45;&gt;Node9</title>
<path fill="none" stroke="#9a32cd" stroke-dasharray="5,2" d="M232.21,-65.06C243.44,-63.1 255.03,-61.07 265.94,-59.17"/>
<polygon fill="#9a32cd" stroke="#9a32cd" points="231.28,-61.67 222.03,-66.83 232.48,-68.56 231.28,-61.67"/>
<text text-anchor="middle" x="244" y="-66" font-family="Helvetica,sans-Serif" font-size="10.00"> d</text>
</g>
<!-- Node8 -->
<g id="node8" class="node">
<title>Node8</title>
<g id="a_node8"><a xlink:href="class_mx_ref_counter.html" target="_top" xlink:title=" ">
<polygon fill="none" stroke="black" points="0,-66.5 0,-85.5 78,-85.5 78,-66.5 0,-66.5"/>
<text text-anchor="middle" x="39" y="-73.5" font-family="Helvetica,sans-Serif" font-size="10.00">MxRefCounter</text>
</a>
</g>
</g>
<!-- Node8&#45;&gt;Node7 -->
<g id="edge9" class="edge">
<title>Node8&#45;&gt;Node7</title>
<path fill="none" stroke="midnightblue" d="M88.46,-76C97.03,-76 105.98,-76 114.66,-76"/>
<polygon fill="midnightblue" stroke="midnightblue" points="88.25,-72.5 78.25,-76 88.25,-79.5 88.25,-72.5"/>
</g>
<!-- Node9&#45;&gt;Node6 -->
<g id="edge10" class="edge">
<title>Node9&#45;&gt;Node6</title>
<path fill="none" stroke="orange" stroke-dasharray="5,2" d="M383.19,-52.03C433.3,-53.65 502.6,-55.9 548.9,-57.39"/>
<polygon fill="orange" stroke="orange" points="383.22,-48.53 373.12,-51.7 383,-55.53 383.22,-48.53"/>
<text text-anchor="start" x="391" y="-71" font-family="Helvetica,sans-Serif" font-size="10.00"> &lt; GpuBuffer, MxClassInitializer</text>
<text text-anchor="middle" x="459" y="-60" font-family="Helvetica,sans-Serif" font-size="10.00">&lt; GpuBuffer &gt; &gt;</text>
</g>
<!-- Node10 -->
<g id="node10" class="node">
<title>Node10</title>
<g id="a_node10"><a xlink:href="class_mx_abstract_atlas.html" target="_top" xlink:title=" ">
<polygon fill="none" stroke="black" points="555,-174.5 555,-193.5 644,-193.5 644,-174.5 555,-174.5"/>
<text text-anchor="middle" x="599.5" y="-181.5" font-family="Helvetica,sans-Serif" font-size="10.00">MxAbstractAtlas</text>
</a>
</g>
</g>
<!-- Node10&#45;&gt;Node3 -->
<g id="edge12" class="edge">
<title>Node10&#45;&gt;Node3</title>
<path fill="none" stroke="#9a32cd" stroke-dasharray="5,2" d="M654.38,-177.9C682.91,-172.84 717.6,-163.64 745,-147 764.98,-134.87 781.59,-112.48 790.02,-99.67"/>
<polygon fill="#9a32cd" stroke="#9a32cd" points="653.48,-174.51 644.18,-179.59 654.62,-181.41 653.48,-174.51"/>
<text text-anchor="middle" x="708.5" y="-177" font-family="Helvetica,sans-Serif" font-size="10.00"> pIconAtlas</text>
</g>
<!-- Node11 -->
<g id="node11" class="node">
<title>Node11</title>
<g id="a_node11"><a xlink:href="class_mx_vector.html" target="_top" xlink:title=" ">
<polygon fill="none" stroke="black" points="552,-136.5 552,-155.5 647,-155.5 647,-136.5 552,-136.5"/>
<text text-anchor="middle" x="599.5" y="-143.5" font-family="Helvetica,sans-Serif" font-size="10.00">MxVector&lt; 2, int &gt;</text>
</a>
</g>
</g>
<!-- Node11&#45;&gt;Node3 -->
<g id="edge13" class="edge">
<title>Node11&#45;&gt;Node3</title>
<path fill="none" stroke="#9a32cd" stroke-dasharray="5,2" d="M657.3,-135.06C684.19,-129.26 716.58,-121.39 745,-112 755.44,-108.55 766.69,-103.81 775.97,-99.61"/>
<polygon fill="#9a32cd" stroke="#9a32cd" points="656.34,-131.68 647.28,-137.17 657.79,-138.53 656.34,-131.68"/>
<text text-anchor="middle" x="708.5" y="-135" font-family="Helvetica,sans-Serif" font-size="10.00"> pScreenSize</text>
</g>
<!-- Node12 -->
<g id="node12" class="node">
<title>Node12</title>
<g id="a_node12"><a xlink:href="class_mx_vector.html" target="_top" xlink:title=" ">
<polygon fill="none" stroke="black" points="273,-136.5 273,-155.5 366,-155.5 366,-136.5 273,-136.5"/>
<text text-anchor="middle" x="319.5" y="-143.5" font-family="Helvetica,sans-Serif" font-size="10.00">MxVector&lt; N, T &gt;</text>
</a>
</g>
</g>
<!-- Node12&#45;&gt;Node11 -->
<g id="edge14" class="edge">
<title>Node12&#45;&gt;Node11</title>
<path fill="none" stroke="orange" stroke-dasharray="5,2" d="M376.39,-146C427.94,-146 503.6,-146 551.95,-146"/>
<polygon fill="orange" stroke="orange" points="376.09,-142.5 366.09,-146 376.09,-149.5 376.09,-142.5"/>
<text text-anchor="middle" x="459" y="-149" font-family="Helvetica,sans-Serif" font-size="10.00"> &lt; 2, int &gt;</text>
</g>
<!-- Node13&#45;&gt;Node3 -->
<g id="edge15" class="edge">
<title>Node13&#45;&gt;Node3</title>
<path fill="none" stroke="#9a32cd" stroke-dasharray="5,2" d="M1052.84,-107.12C1000.94,-109.39 919.15,-110.73 849,-102 843.13,-101.27 836.96,-100.14 831.01,-98.85"/>
<polygon fill="#9a32cd" stroke="#9a32cd" points="1053.3,-110.6 1063.12,-106.64 1052.97,-103.61 1053.3,-110.6"/>
<text text-anchor="middle" x="962.5" y="-112" font-family="Helvetica,sans-Serif" font-size="10.00"> pIconProgram</text>
</g>
</g>
</svg>
