<?xml version="1.0" encoding="UTF-8" standalone="no"?>
<!DOCTYPE svg PUBLIC "-//W3C//DTD SVG 1.1//EN"
 "http://www.w3.org/Graphics/SVG/1.1/DTD/svg11.dtd">
<!-- Generated by graphviz version 2.44.0 ()
 -->
<!-- Title: MxVectorDraw Pages: 1 -->
<svg width="222pt" height="152pt"
 viewBox="0.00 0.00 222.00 152.00" xmlns="http://www.w3.org/2000/svg" xmlns:xlink="http://www.w3.org/1999/xlink">
<g id="graph0" class="graph" transform="scale(1 1) rotate(0) translate(4 148)">
<title>MxVectorDraw</title>
<!-- Node1 -->
<g id="node1" class="node">
<title>Node1</title>
<g id="a_node1"><a xlink:title="Draw Mewa triangles.">
<polygon fill="#bfbfbf" stroke="black" points="54.5,-0.5 54.5,-19.5 134.5,-19.5 134.5,-0.5 54.5,-0.5"/>
<text text-anchor="middle" x="94.5" y="-7.5" font-family="Helvetica,sans-Serif" font-size="10.00">MxVectorDraw</text>
</a>
</g>
</g>
<!-- Node2 -->
<g id="node2" class="node">
<title>Node2</title>
<g id="a_node2"><a xlink:href="class_mx_vector.html" target="_top" xlink:title=" ">
<polygon fill="none" stroke="black" points="0,-67.5 0,-86.5 93,-86.5 93,-67.5 0,-67.5"/>
<text text-anchor="middle" x="46.5" y="-74.5" font-family="Helvetica,sans-Serif" font-size="10.00">MxVector&lt; N, T &gt;</text>
</a>
</g>
</g>
<!-- Node2&#45;&gt;Node1 -->
<g id="edge1" class="edge">
<title>Node2&#45;&gt;Node1</title>
<path fill="none" stroke="#9a32cd" stroke-dasharray="5,2" d="M53.93,-57.9C57.03,-51.33 60.98,-44.05 65.5,-38 70.61,-31.17 77.57,-24.62 83.4,-19.69"/>
<polygon fill="#9a32cd" stroke="#9a32cd" points="50.59,-56.79 49.78,-67.35 57,-59.6 50.59,-56.79"/>
<text text-anchor="middle" x="93.5" y="-41" font-family="Helvetica,sans-Serif" font-size="10.00"> pTranslation</text>
</g>
<!-- Node3 -->
<g id="node3" class="node">
<title>Node3</title>
<g id="a_node3"><a xlink:href="class_mx_cached_gpu_array.html" target="_top" xlink:title=" ">
<polygon fill="none" stroke="black" points="111,-67.5 111,-86.5 214,-86.5 214,-67.5 111,-67.5"/>
<text text-anchor="middle" x="162.5" y="-74.5" font-family="Helvetica,sans-Serif" font-size="10.00">MxCachedGpuArray</text>
</a>
</g>
</g>
<!-- Node3&#45;&gt;Node1 -->
<g id="edge2" class="edge">
<title>Node3&#45;&gt;Node1</title>
<path fill="none" stroke="#9a32cd" stroke-dasharray="5,2" d="M145.76,-60C132.42,-47.25 114.27,-29.89 103.53,-19.63"/>
<polygon fill="#9a32cd" stroke="#9a32cd" points="143.68,-62.85 153.33,-67.23 148.52,-57.79 143.68,-62.85"/>
<text text-anchor="middle" x="148" y="-41" font-family="Helvetica,sans-Serif" font-size="10.00"> pArray</text>
</g>
<!-- Node4 -->
<g id="node4" class="node">
<title>Node4</title>
<g id="a_node4"><a xlink:href="class_mx_gpu_array.html" target="_top" xlink:title="The MxGpuArray class holds a graphics vertex buffer.">
<polygon fill="none" stroke="black" points="127.5,-124.5 127.5,-143.5 197.5,-143.5 197.5,-124.5 127.5,-124.5"/>
<text text-anchor="middle" x="162.5" y="-131.5" font-family="Helvetica,sans-Serif" font-size="10.00">MxGpuArray</text>
</a>
</g>
</g>
<!-- Node4&#45;&gt;Node3 -->
<g id="edge3" class="edge">
<title>Node4&#45;&gt;Node3</title>
<path fill="none" stroke="midnightblue" d="M162.5,-114.12C162.5,-104.82 162.5,-94.06 162.5,-86.71"/>
<polygon fill="midnightblue" stroke="midnightblue" points="159,-114.41 162.5,-124.41 166,-114.41 159,-114.41"/>
</g>
</g>
</svg>
