<?xml version="1.0" encoding="UTF-8" standalone="no"?>
<!DOCTYPE svg PUBLIC "-//W3C//DTD SVG 1.1//EN"
 "http://www.w3.org/Graphics/SVG/1.1/DTD/svg11.dtd">
<!-- Generated by graphviz version 2.44.0 ()
 -->
<!-- Title: MxWidget Pages: 1 -->
<svg width="204pt" height="173pt"
 viewBox="0.00 0.00 204.00 173.00" xmlns="http://www.w3.org/2000/svg" xmlns:xlink="http://www.w3.org/1999/xlink">
<g id="graph0" class="graph" transform="scale(1 1) rotate(0) translate(4 169)">
<title>MxWidget</title>
<!-- Node1 -->
<g id="node1" class="node">
<title>Node1</title>
<g id="a_node1"><a xlink:title=" ">
<polygon fill="#bfbfbf" stroke="black" points="54,-0.5 54,-19.5 113,-19.5 113,-0.5 54,-0.5"/>
<text text-anchor="middle" x="83.5" y="-7.5" font-family="Helvetica,sans-Serif" font-size="10.00">MxWidget</text>
</a>
</g>
</g>
<!-- Node1&#45;&gt;Node1 -->
<g id="edge4" class="edge">
<title>Node1&#45;&gt;Node1</title>
<path fill="none" stroke="#9a32cd" stroke-dasharray="5,2" d="M123.17,-16.12C127.91,-15.01 131,-12.97 131,-10 131,-5.25 123.08,-2.88 113.19,-2.88"/>
<polygon fill="#9a32cd" stroke="#9a32cd" points="122.79,-12.64 113.19,-17.12 123.49,-19.61 122.79,-12.64"/>
<text text-anchor="middle" x="149.5" y="-7.5" font-family="Helvetica,sans-Serif" font-size="10.00"> pParent</text>
</g>
<!-- Node2 -->
<g id="node2" class="node">
<title>Node2</title>
<g id="a_node2"><a xlink:href="class_mx_ui_settings.html" target="_top" xlink:title=" ">
<polygon fill="none" stroke="black" points="0,-78.5 0,-97.5 75,-97.5 75,-78.5 0,-78.5"/>
<text text-anchor="middle" x="37.5" y="-85.5" font-family="Helvetica,sans-Serif" font-size="10.00">MxUiSettings</text>
</a>
</g>
</g>
<!-- Node2&#45;&gt;Node1 -->
<g id="edge1" class="edge">
<title>Node2&#45;&gt;Node1</title>
<path fill="none" stroke="#9a32cd" stroke-dasharray="5,2" d="M41.08,-68.66C43.54,-59 47.47,-47.27 53.5,-38 58.16,-30.83 65.19,-24.37 71.28,-19.56"/>
<polygon fill="#9a32cd" stroke="#9a32cd" points="37.66,-67.92 38.89,-78.44 44.49,-69.44 37.66,-67.92"/>
<text text-anchor="middle" x="80.5" y="-46.5" font-family="Helvetica,sans-Serif" font-size="10.00"> sUiSettings</text>
</g>
<!-- Node3 -->
<g id="node3" class="node">
<title>Node3</title>
<g id="a_node3"><a xlink:href="class_mx_vector.html" target="_top" xlink:title=" ">
<polygon fill="none" stroke="black" points="93,-78.5 93,-97.5 196,-97.5 196,-78.5 93,-78.5"/>
<text text-anchor="middle" x="144.5" y="-85.5" font-family="Helvetica,sans-Serif" font-size="10.00">MxVector&lt; 2, float &gt;</text>
</a>
</g>
</g>
<!-- Node3&#45;&gt;Node1 -->
<g id="edge2" class="edge">
<title>Node3&#45;&gt;Node1</title>
<path fill="none" stroke="#9a32cd" stroke-dasharray="5,2" d="M132.12,-69.92C125.08,-60.38 116,-48.37 107.5,-38 102.41,-31.79 96.41,-25.04 91.68,-19.84"/>
<polygon fill="#9a32cd" stroke="#9a32cd" points="129.43,-72.16 138.16,-78.16 135.07,-68.03 129.43,-72.16"/>
<text text-anchor="middle" x="136" y="-52" font-family="Helvetica,sans-Serif" font-size="10.00"> pPos</text>
<text text-anchor="middle" x="136" y="-41" font-family="Helvetica,sans-Serif" font-size="10.00">pSize</text>
</g>
<!-- Node4 -->
<g id="node4" class="node">
<title>Node4</title>
<g id="a_node4"><a xlink:href="class_mx_vector.html" target="_top" xlink:title=" ">
<polygon fill="none" stroke="black" points="98,-145.5 98,-164.5 191,-164.5 191,-145.5 98,-145.5"/>
<text text-anchor="middle" x="144.5" y="-152.5" font-family="Helvetica,sans-Serif" font-size="10.00">MxVector&lt; N, T &gt;</text>
</a>
</g>
</g>
<!-- Node4&#45;&gt;Node3 -->
<g id="edge3" class="edge">
<title>Node4&#45;&gt;Node3</title>
<path fill="none" stroke="orange" stroke-dasharray="5,2" d="M144.5,-135.04C144.5,-122.67 144.5,-107.12 144.5,-97.63"/>
<polygon fill="orange" stroke="orange" points="141,-135.23 144.5,-145.23 148,-135.23 141,-135.23"/>
<text text-anchor="middle" x="168.5" y="-119" font-family="Helvetica,sans-Serif" font-size="10.00"> &lt; 2, float &gt;</text>
</g>
</g>
</svg>
