<?xml version="1.0" encoding="UTF-8" standalone="no"?>
<!DOCTYPE svg PUBLIC "-//W3C//DTD SVG 1.1//EN"
 "http://www.w3.org/Graphics/SVG/1.1/DTD/svg11.dtd">
<!-- Generated by graphviz version 2.44.0 ()
 -->
<!-- Title: MxColorWheelProgram Pages: 1 -->
<svg width="1225pt" height="304pt"
 viewBox="0.00 0.00 1225.00 304.00" xmlns="http://www.w3.org/2000/svg" xmlns:xlink="http://www.w3.org/1999/xlink">
<g id="graph0" class="graph" transform="scale(1 1) rotate(0) translate(4 300)">
<title>MxColorWheelProgram</title>
<!-- Node1 -->
<g id="node1" class="node">
<title>Node1</title>
<g id="a_node1"><a xlink:title=" ">
<polygon fill="#bfbfbf" stroke="black" points="561.5,-257.5 561.5,-276.5 677.5,-276.5 677.5,-257.5 561.5,-257.5"/>
<text text-anchor="middle" x="619.5" y="-264.5" font-family="Helvetica,sans-Serif" font-size="10.00">MxColorWheelProgram</text>
</a>
</g>
</g>
<!-- Node3 -->
<g id="node3" class="node">
<title>Node3</title>
<g id="a_node3"><a xlink:href="class_mx_renderer.html" target="_top" xlink:title="The MxRenderer keeps track of the rendering state and resources.">
<polygon fill="none" stroke="black" points="821,-170.5 821,-189.5 889,-189.5 889,-170.5 821,-170.5"/>
<text text-anchor="middle" x="855" y="-177.5" font-family="Helvetica,sans-Serif" font-size="10.00">MxRenderer</text>
</a>
</g>
</g>
<!-- Node1&#45;&gt;Node3 -->
<g id="edge6" class="edge">
<title>Node1&#45;&gt;Node3</title>
<path fill="none" stroke="#9a32cd" stroke-dasharray="5,2" d="M677.88,-255.34C722.79,-245.69 781.18,-231.87 803,-221 819.27,-212.9 835.13,-198.91 844.73,-189.55"/>
<polygon fill="#9a32cd" stroke="#9a32cd" points="677,-251.95 667.94,-257.45 678.45,-258.79 677,-251.95"/>
<text text-anchor="middle" x="762" y="-248" font-family="Helvetica,sans-Serif" font-size="10.00"> pColorWheelEffect</text>
</g>
<!-- Node2 -->
<g id="node2" class="node">
<title>Node2</title>
<g id="a_node2"><a xlink:href="class_mx_shader_program.html" target="_top" xlink:title=" ">
<polygon fill="none" stroke="black" points="988,-240.5 988,-259.5 1085,-259.5 1085,-240.5 988,-240.5"/>
<text text-anchor="middle" x="1036.5" y="-247.5" font-family="Helvetica,sans-Serif" font-size="10.00">MxShaderProgram</text>
</a>
</g>
</g>
<!-- Node2&#45;&gt;Node1 -->
<g id="edge1" class="edge">
<title>Node2&#45;&gt;Node1</title>
<path fill="none" stroke="midnightblue" d="M977.85,-252.55C930.81,-254.62 862.61,-257.57 803,-260 761.02,-261.71 713.61,-263.52 677.63,-264.88"/>
<polygon fill="midnightblue" stroke="midnightblue" points="978.02,-256.05 987.86,-252.11 977.71,-249.06 978.02,-256.05"/>
</g>
<!-- Node5 -->
<g id="node5" class="node">
<title>Node5</title>
<g id="a_node5"><a xlink:href="class_mx_vector_program.html" target="_top" xlink:title=" ">
<polygon fill="none" stroke="black" points="1122,-263.5 1122,-282.5 1217,-282.5 1217,-263.5 1122,-263.5"/>
<text text-anchor="middle" x="1169.5" y="-270.5" font-family="Helvetica,sans-Serif" font-size="10.00">MxVectorProgram</text>
</a>
</g>
</g>
<!-- Node2&#45;&gt;Node5 -->
<g id="edge5" class="edge">
<title>Node2&#45;&gt;Node5</title>
<path fill="none" stroke="midnightblue" d="M1095.16,-260.12C1104.13,-261.7 1113.29,-263.31 1121.97,-264.83"/>
<polygon fill="midnightblue" stroke="midnightblue" points="1095.62,-256.65 1085.16,-258.37 1094.41,-263.55 1095.62,-256.65"/>
</g>
<!-- Node15 -->
<g id="node15" class="node">
<title>Node15</title>
<g id="a_node15"><a xlink:href="class_mx_icon_program.html" target="_top" xlink:title=" ">
<polygon fill="none" stroke="black" points="1127,-194.5 1127,-213.5 1212,-213.5 1212,-194.5 1127,-194.5"/>
<text text-anchor="middle" x="1169.5" y="-201.5" font-family="Helvetica,sans-Serif" font-size="10.00">MxIconProgram</text>
</a>
</g>
</g>
<!-- Node2&#45;&gt;Node15 -->
<g id="edge20" class="edge">
<title>Node2&#45;&gt;Node15</title>
<path fill="none" stroke="midnightblue" d="M1074.34,-237.06C1095.65,-229.58 1121.99,-220.33 1141.39,-213.52"/>
<polygon fill="midnightblue" stroke="midnightblue" points="1072.92,-233.85 1064.64,-240.47 1075.24,-240.46 1072.92,-233.85"/>
</g>
<!-- Node3&#45;&gt;Node2 -->
<g id="edge2" class="edge">
<title>Node3&#45;&gt;Node2</title>
<path fill="none" stroke="#9a32cd" stroke-dasharray="5,2" d="M877.76,-195.49C886.54,-201.24 896.96,-207.47 907,-212 934.57,-224.44 967.27,-234.05 992.79,-240.49"/>
<polygon fill="#9a32cd" stroke="#9a32cd" points="879.53,-192.46 869.28,-189.75 875.6,-198.26 879.53,-192.46"/>
<text text-anchor="middle" x="938.5" y="-237" font-family="Helvetica,sans-Serif" font-size="10.00"> pRenderer</text>
</g>
<!-- Node16 -->
<g id="node16" class="node">
<title>Node16</title>
<g id="a_node16"><a xlink:href="class_mx_gpu_program.html" target="_top" xlink:title=" ">
<polygon fill="none" stroke="black" points="994.5,-190.5 994.5,-209.5 1078.5,-209.5 1078.5,-190.5 994.5,-190.5"/>
<text text-anchor="middle" x="1036.5" y="-197.5" font-family="Helvetica,sans-Serif" font-size="10.00">MxGpuProgram</text>
</a>
</g>
</g>
<!-- Node3&#45;&gt;Node16 -->
<g id="edge22" class="edge">
<title>Node3&#45;&gt;Node16</title>
<path fill="none" stroke="#9a32cd" stroke-dasharray="5,2" d="M898.9,-190.64C901.63,-191.15 904.35,-191.61 907,-192 935.97,-196.28 968.94,-198.27 994.23,-199.2"/>
<polygon fill="#9a32cd" stroke="#9a32cd" points="899.54,-187.2 889.04,-188.63 898.14,-194.06 899.54,-187.2"/>
<text text-anchor="middle" x="938.5" y="-200" font-family="Helvetica,sans-Serif" font-size="10.00"> pRenderer</text>
</g>
<!-- Node4 -->
<g id="node4" class="node">
<title>Node4</title>
<g id="a_node4"><a xlink:title=" ">
<polygon fill="none" stroke="#bfbfbf" points="565,-98.5 565,-117.5 674,-117.5 674,-98.5 565,-98.5"/>
<text text-anchor="middle" x="619.5" y="-105.5" font-family="Helvetica,sans-Serif" font-size="10.00">MxOpenGLFunctions</text>
</a>
</g>
</g>
<!-- Node4&#45;&gt;Node3 -->
<g id="edge3" class="edge">
<title>Node4&#45;&gt;Node3</title>
<path fill="none" stroke="midnightblue" d="M684.33,-118.33C720.01,-125.27 764.84,-135.92 803,-151 816.07,-156.17 829.87,-164.19 839.81,-170.49"/>
<polygon fill="midnightblue" stroke="midnightblue" points="684.52,-114.81 674.05,-116.39 683.22,-121.69 684.52,-114.81"/>
</g>
<!-- Node5&#45;&gt;Node3 -->
<g id="edge4" class="edge">
<title>Node5&#45;&gt;Node3</title>
<path fill="none" stroke="#9a32cd" stroke-dasharray="5,2" d="M1111.4,-282.48C1054.71,-288.73 967.7,-289.48 907,-249 884.2,-233.79 867.83,-204.8 860.42,-189.7"/>
<polygon fill="#9a32cd" stroke="#9a32cd" points="1112.11,-285.92 1121.62,-281.25 1111.28,-278.97 1112.11,-285.92"/>
<text text-anchor="middle" x="1036.5" y="-288" font-family="Helvetica,sans-Serif" font-size="10.00"> pVectorProgram</text>
</g>
<!-- Node6 -->
<g id="node6" class="node">
<title>Node6</title>
<g id="a_node6"><a xlink:href="class_mx_list.html" target="_top" xlink:title=" ">
<polygon fill="none" stroke="black" points="536,-38.5 536,-79.5 703,-79.5 703,-38.5 536,-38.5"/>
<text text-anchor="start" x="544" y="-67.5" font-family="Helvetica,sans-Serif" font-size="10.00">MxList&lt; MxCachedGpuArray,</text>
<text text-anchor="start" x="544" y="-56.5" font-family="Helvetica,sans-Serif" font-size="10.00"> MxClassInitializer&lt; MxCachedGpu</text>
<text text-anchor="middle" x="619.5" y="-45.5" font-family="Helvetica,sans-Serif" font-size="10.00">Array &gt;, 32 &gt;</text>
</a>
</g>
</g>
<!-- Node6&#45;&gt;Node3 -->
<g id="edge7" class="edge">
<title>Node6&#45;&gt;Node3</title>
<path fill="none" stroke="#9a32cd" stroke-dasharray="5,2" d="M712.87,-74.33C743.42,-82.41 776.37,-94.63 803,-113 824.9,-128.11 841.44,-155.6 849.17,-170.23"/>
<polygon fill="#9a32cd" stroke="#9a32cd" points="713.6,-70.9 703.05,-71.85 711.89,-77.69 713.6,-70.9"/>
<text text-anchor="middle" x="762" y="-116" font-family="Helvetica,sans-Serif" font-size="10.00"> pVboList</text>
</g>
<!-- Node7 -->
<g id="node7" class="node">
<title>Node7</title>
<g id="a_node7"><a xlink:href="struct_mx_list_1_1_data.html" target="_top" xlink:title="these members are public to allow unions">
<polygon fill="none" stroke="black" points="115,-70 115,-100 222,-100 222,-70 115,-70"/>
<text text-anchor="start" x="123" y="-88" font-family="Helvetica,sans-Serif" font-size="10.00">MxList&lt; T, Initializer,</text>
<text text-anchor="middle" x="168.5" y="-77" font-family="Helvetica,sans-Serif" font-size="10.00"> Prealloc &gt;::Data</text>
</a>
</g>
</g>
<!-- Node7&#45;&gt;Node6 -->
<g id="edge8" class="edge">
<title>Node7&#45;&gt;Node6</title>
<path fill="none" stroke="#9a32cd" stroke-dasharray="5,2" d="M210.78,-65.9C227.54,-59.14 247.32,-52.37 266,-49 357.28,-32.53 463.97,-39.05 535.87,-47.13"/>
<polygon fill="#9a32cd" stroke="#9a32cd" points="209.17,-62.78 201.29,-69.86 211.87,-69.24 209.17,-62.78"/>
<text text-anchor="middle" x="319.5" y="-52" font-family="Helvetica,sans-Serif" font-size="10.00"> d</text>
</g>
<!-- Node9 -->
<g id="node9" class="node">
<title>Node9</title>
<g id="a_node9"><a xlink:href="class_mx_list.html" target="_top" xlink:title=" ">
<polygon fill="none" stroke="black" points="266,-70 266,-100 373,-100 373,-70 266,-70"/>
<text text-anchor="start" x="274" y="-88" font-family="Helvetica,sans-Serif" font-size="10.00">MxList&lt; T, Initializer,</text>
<text text-anchor="middle" x="319.5" y="-77" font-family="Helvetica,sans-Serif" font-size="10.00"> Prealloc &gt;</text>
</a>
</g>
</g>
<!-- Node7&#45;&gt;Node9 -->
<g id="edge11" class="edge">
<title>Node7&#45;&gt;Node9</title>
<path fill="none" stroke="#9a32cd" stroke-dasharray="5,2" d="M232.21,-85C243.44,-85 255.03,-85 265.94,-85"/>
<polygon fill="#9a32cd" stroke="#9a32cd" points="232.03,-81.5 222.03,-85 232.03,-88.5 232.03,-81.5"/>
<text text-anchor="middle" x="244" y="-88" font-family="Helvetica,sans-Serif" font-size="10.00"> d</text>
</g>
<!-- Node12 -->
<g id="node12" class="node">
<title>Node12</title>
<g id="a_node12"><a xlink:href="class_mx_list.html" target="_top" xlink:title=" ">
<polygon fill="none" stroke="black" points="561.5,-136.5 561.5,-155.5 677.5,-155.5 677.5,-136.5 561.5,-136.5"/>
<text text-anchor="middle" x="619.5" y="-143.5" font-family="Helvetica,sans-Serif" font-size="10.00">MxList&lt; MxGpuArray &gt;</text>
</a>
</g>
</g>
<!-- Node7&#45;&gt;Node12 -->
<g id="edge15" class="edge">
<title>Node7&#45;&gt;Node12</title>
<path fill="none" stroke="#9a32cd" stroke-dasharray="5,2" d="M231.99,-101.14C243.29,-103.89 254.97,-106.62 266,-109 321.21,-120.93 334.93,-125.14 391,-132 448.74,-139.06 515.18,-142.63 561.29,-144.39"/>
<polygon fill="#9a32cd" stroke="#9a32cd" points="232.75,-97.72 222.2,-98.73 231.08,-104.52 232.75,-97.72"/>
<text text-anchor="middle" x="319.5" y="-133" font-family="Helvetica,sans-Serif" font-size="10.00"> d</text>
</g>
<!-- Node8 -->
<g id="node8" class="node">
<title>Node8</title>
<g id="a_node8"><a xlink:href="class_mx_ref_counter.html" target="_top" xlink:title=" ">
<polygon fill="none" stroke="black" points="0,-75.5 0,-94.5 78,-94.5 78,-75.5 0,-75.5"/>
<text text-anchor="middle" x="39" y="-82.5" font-family="Helvetica,sans-Serif" font-size="10.00">MxRefCounter</text>
</a>
</g>
</g>
<!-- Node8&#45;&gt;Node7 -->
<g id="edge9" class="edge">
<title>Node8&#45;&gt;Node7</title>
<path fill="none" stroke="midnightblue" d="M88.46,-85C97.03,-85 105.98,-85 114.66,-85"/>
<polygon fill="midnightblue" stroke="midnightblue" points="88.25,-81.5 78.25,-85 88.25,-88.5 88.25,-81.5"/>
</g>
<!-- Node9&#45;&gt;Node6 -->
<g id="edge10" class="edge">
<title>Node9&#45;&gt;Node6</title>
<path fill="none" stroke="orange" stroke-dasharray="5,2" d="M377.46,-67.54C382.01,-66.55 386.56,-65.68 391,-65 438.65,-57.73 492.55,-56.03 535.93,-56.24"/>
<polygon fill="orange" stroke="orange" points="376.46,-64.18 367.54,-69.9 378.08,-70.99 376.46,-64.18"/>
<text text-anchor="start" x="391" y="-90" font-family="Helvetica,sans-Serif" font-size="10.00"> &lt; MxCachedGpuArray,</text>
<text text-anchor="start" x="391" y="-79" font-family="Helvetica,sans-Serif" font-size="10.00"> MxClassInitializer</text>
<text text-anchor="middle" x="454.5" y="-68" font-family="Helvetica,sans-Serif" font-size="10.00">&lt; MxCachedGpuArray &gt;, 32 &gt;</text>
</g>
<!-- Node9&#45;&gt;Node12 -->
<g id="edge16" class="edge">
<title>Node9&#45;&gt;Node12</title>
<path fill="none" stroke="orange" stroke-dasharray="5,2" d="M383.32,-96.59C385.91,-97.07 388.48,-97.54 391,-98 447.43,-108.31 462.43,-106.78 518,-121 526.17,-123.09 527.88,-124.72 536,-127 548.03,-130.38 561.16,-133.61 573.34,-136.42"/>
<polygon fill="orange" stroke="orange" points="383.71,-93.11 373.24,-94.74 382.44,-99.99 383.71,-93.11"/>
<text text-anchor="middle" x="454.5" y="-124" font-family="Helvetica,sans-Serif" font-size="10.00"> &lt; MxGpuArray &gt;</text>
</g>
<!-- Node10 -->
<g id="node10" class="node">
<title>Node10</title>
<g id="a_node10"><a xlink:href="class_mx_abstract_atlas.html" target="_top" xlink:title=" ">
<polygon fill="none" stroke="black" points="575,-0.5 575,-19.5 664,-19.5 664,-0.5 575,-0.5"/>
<text text-anchor="middle" x="619.5" y="-7.5" font-family="Helvetica,sans-Serif" font-size="10.00">MxAbstractAtlas</text>
</a>
</g>
</g>
<!-- Node10&#45;&gt;Node3 -->
<g id="edge12" class="edge">
<title>Node10&#45;&gt;Node3</title>
<path fill="none" stroke="#9a32cd" stroke-dasharray="5,2" d="M674.3,-13.04C714.34,-18.01 767.93,-30.74 803,-63 835.78,-93.15 848.52,-148.08 852.49,-170.29"/>
<polygon fill="#9a32cd" stroke="#9a32cd" points="674.49,-9.54 664.17,-11.91 673.72,-16.5 674.49,-9.54"/>
<text text-anchor="middle" x="762" y="-66" font-family="Helvetica,sans-Serif" font-size="10.00"> pIconAtlas</text>
</g>
<!-- Node11 -->
<g id="node11" class="node">
<title>Node11</title>
<g id="a_node11"><a xlink:href="class_mx_texture.html" target="_top" xlink:title=" ">
<polygon fill="none" stroke="black" points="588.5,-212.5 588.5,-231.5 650.5,-231.5 650.5,-212.5 588.5,-212.5"/>
<text text-anchor="middle" x="619.5" y="-219.5" font-family="Helvetica,sans-Serif" font-size="10.00">MxTexture</text>
</a>
</g>
</g>
<!-- Node11&#45;&gt;Node3 -->
<g id="edge13" class="edge">
<title>Node11&#45;&gt;Node3</title>
<path fill="none" stroke="#9a32cd" stroke-dasharray="5,2" d="M660.56,-216.22C697.63,-210.68 754.21,-201.74 803,-192 808.8,-190.84 814.94,-189.5 820.88,-188.14"/>
<polygon fill="#9a32cd" stroke="#9a32cd" points="660.03,-212.76 650.65,-217.69 661.05,-219.68 660.03,-212.76"/>
<text text-anchor="middle" x="762" y="-209" font-family="Helvetica,sans-Serif" font-size="10.00"> pTextures</text>
</g>
<!-- Node12&#45;&gt;Node3 -->
<g id="edge14" class="edge">
<title>Node12&#45;&gt;Node3</title>
<path fill="none" stroke="#9a32cd" stroke-dasharray="5,2" d="M687.58,-150.79C722.24,-153.9 765.1,-158.77 803,-166 809.31,-167.2 815.99,-168.8 822.35,-170.48"/>
<polygon fill="#9a32cd" stroke="#9a32cd" points="687.83,-147.29 677.57,-149.91 687.23,-154.27 687.83,-147.29"/>
<text text-anchor="middle" x="762" y="-169" font-family="Helvetica,sans-Serif" font-size="10.00"> pBufferViews</text>
</g>
<!-- Node13 -->
<g id="node13" class="node">
<title>Node13</title>
<g id="a_node13"><a xlink:href="class_mx_vector.html" target="_top" xlink:title=" ">
<polygon fill="none" stroke="black" points="572,-174.5 572,-193.5 667,-193.5 667,-174.5 572,-174.5"/>
<text text-anchor="middle" x="619.5" y="-181.5" font-family="Helvetica,sans-Serif" font-size="10.00">MxVector&lt; 2, int &gt;</text>
</a>
</g>
</g>
<!-- Node13&#45;&gt;Node3 -->
<g id="edge17" class="edge">
<title>Node13&#45;&gt;Node3</title>
<path fill="none" stroke="#9a32cd" stroke-dasharray="5,2" d="M677.22,-182.09C691.51,-181.66 706.82,-181.26 721,-181 755.05,-180.36 794.02,-180.13 820.93,-180.04"/>
<polygon fill="#9a32cd" stroke="#9a32cd" points="676.92,-178.59 667.03,-182.39 677.13,-185.59 676.92,-178.59"/>
<text text-anchor="middle" x="762" y="-184" font-family="Helvetica,sans-Serif" font-size="10.00"> pScreenSize</text>
</g>
<!-- Node14 -->
<g id="node14" class="node">
<title>Node14</title>
<g id="a_node14"><a xlink:href="class_mx_vector.html" target="_top" xlink:title=" ">
<polygon fill="none" stroke="black" points="273,-175.5 273,-194.5 366,-194.5 366,-175.5 273,-175.5"/>
<text text-anchor="middle" x="319.5" y="-182.5" font-family="Helvetica,sans-Serif" font-size="10.00">MxVector&lt; N, T &gt;</text>
</a>
</g>
</g>
<!-- Node14&#45;&gt;Node13 -->
<g id="edge18" class="edge">
<title>Node14&#45;&gt;Node13</title>
<path fill="none" stroke="orange" stroke-dasharray="5,2" d="M376.26,-184.81C432.72,-184.62 519.03,-184.33 571.94,-184.16"/>
<polygon fill="orange" stroke="orange" points="376.07,-181.31 366.08,-184.85 376.1,-188.31 376.07,-181.31"/>
<text text-anchor="middle" x="454.5" y="-188" font-family="Helvetica,sans-Serif" font-size="10.00"> &lt; 2, int &gt;</text>
</g>
<!-- Node15&#45;&gt;Node3 -->
<g id="edge19" class="edge">
<title>Node15&#45;&gt;Node3</title>
<path fill="none" stroke="#9a32cd" stroke-dasharray="5,2" d="M1141.63,-189.95C1125.65,-182.4 1104.72,-173.86 1085,-170 1016.46,-156.58 934.27,-166.26 889.36,-173.67"/>
<polygon fill="#9a32cd" stroke="#9a32cd" points="1140.36,-193.23 1150.88,-194.48 1143.44,-186.94 1140.36,-193.23"/>
<text text-anchor="middle" x="1036.5" y="-173" font-family="Helvetica,sans-Serif" font-size="10.00"> pIconProgram</text>
</g>
<!-- Node16&#45;&gt;Node3 -->
<g id="edge21" class="edge">
<title>Node16&#45;&gt;Node3</title>
<path fill="none" stroke="#9a32cd" stroke-dasharray="5,2" d="M999,-187.5C989.66,-184.83 979.55,-182.4 970,-181 942.98,-177.04 911.96,-177.06 889.11,-177.92"/>
<polygon fill="#9a32cd" stroke="#9a32cd" points="998.19,-190.92 1008.78,-190.45 1000.22,-184.21 998.19,-190.92"/>
<text text-anchor="middle" x="938.5" y="-184" font-family="Helvetica,sans-Serif" font-size="10.00"> pCurrProgram</text>
</g>
</g>
</svg>
