<?xml version="1.0" encoding="UTF-8" standalone="no"?>
<!DOCTYPE svg PUBLIC "-//W3C//DTD SVG 1.1//EN"
 "http://www.w3.org/Graphics/SVG/1.1/DTD/svg11.dtd">
<!-- Generated by graphviz version 2.44.0 ()
 -->
<!-- Title: MxIconDraw Pages: 1 -->
<svg width="218pt" height="286pt"
 viewBox="0.00 0.00 217.50 286.00" xmlns="http://www.w3.org/2000/svg" xmlns:xlink="http://www.w3.org/1999/xlink">
<g id="graph0" class="graph" transform="scale(1 1) rotate(0) translate(4 282)">
<title>MxIconDraw</title>
<!-- Node1 -->
<g id="node1" class="node">
<title>Node1</title>
<g id="a_node1"><a xlink:title="The MxIconDraw class draws icons from a atlas.">
<polygon fill="#bfbfbf" stroke="black" points="76.5,-0.5 76.5,-19.5 147.5,-19.5 147.5,-0.5 76.5,-0.5"/>
<text text-anchor="middle" x="112" y="-7.5" font-family="Helvetica,sans-Serif" font-size="10.00">MxIconDraw</text>
</a>
</g>
</g>
<!-- Node2 -->
<g id="node2" class="node">
<title>Node2</title>
<g id="a_node2"><a xlink:href="class_mx_quad_draw.html" target="_top" xlink:title=" ">
<polygon fill="none" stroke="black" points="23.5,-67.5 23.5,-86.5 98.5,-86.5 98.5,-67.5 23.5,-67.5"/>
<text text-anchor="middle" x="61" y="-74.5" font-family="Helvetica,sans-Serif" font-size="10.00">MxQuadDraw</text>
</a>
</g>
</g>
<!-- Node2&#45;&gt;Node1 -->
<g id="edge1" class="edge">
<title>Node2&#45;&gt;Node1</title>
<path fill="none" stroke="midnightblue" d="M74.13,-59.27C84.07,-46.6 97.33,-29.7 105.23,-19.63"/>
<polygon fill="midnightblue" stroke="midnightblue" points="71.3,-57.21 67.88,-67.23 76.8,-61.53 71.3,-57.21"/>
</g>
<!-- Node3 -->
<g id="node3" class="node">
<title>Node3</title>
<g id="a_node3"><a xlink:href="class_mx_cached_gpu_array.html" target="_top" xlink:title=" ">
<polygon fill="none" stroke="black" points="9.5,-134.5 9.5,-153.5 112.5,-153.5 112.5,-134.5 9.5,-134.5"/>
<text text-anchor="middle" x="61" y="-141.5" font-family="Helvetica,sans-Serif" font-size="10.00">MxCachedGpuArray</text>
</a>
</g>
</g>
<!-- Node3&#45;&gt;Node2 -->
<g id="edge2" class="edge">
<title>Node3&#45;&gt;Node2</title>
<path fill="none" stroke="#9a32cd" stroke-dasharray="5,2" d="M61,-124.04C61,-111.67 61,-96.12 61,-86.63"/>
<polygon fill="#9a32cd" stroke="#9a32cd" points="57.5,-124.23 61,-134.23 64.5,-124.23 57.5,-124.23"/>
<text text-anchor="middle" x="76.5" y="-108" font-family="Helvetica,sans-Serif" font-size="10.00"> pArray</text>
</g>
<!-- Node4 -->
<g id="node4" class="node">
<title>Node4</title>
<g id="a_node4"><a xlink:href="class_mx_gpu_array.html" target="_top" xlink:title="The MxGpuArray class holds a graphics vertex buffer.">
<polygon fill="none" stroke="black" points="26,-191.5 26,-210.5 96,-210.5 96,-191.5 26,-191.5"/>
<text text-anchor="middle" x="61" y="-198.5" font-family="Helvetica,sans-Serif" font-size="10.00">MxGpuArray</text>
</a>
</g>
</g>
<!-- Node4&#45;&gt;Node3 -->
<g id="edge3" class="edge">
<title>Node4&#45;&gt;Node3</title>
<path fill="none" stroke="midnightblue" d="M61,-181.12C61,-171.82 61,-161.06 61,-153.71"/>
<polygon fill="midnightblue" stroke="midnightblue" points="57.5,-181.41 61,-191.41 64.5,-181.41 57.5,-181.41"/>
</g>
<!-- Node5 -->
<g id="node5" class="node">
<title>Node5</title>
<g id="a_node5"><a xlink:href="union_mx_gpu_array_1_1_buffer_view.html" target="_top" xlink:title=" ">
<polygon fill="none" stroke="black" points="0,-258.5 0,-277.5 122,-277.5 122,-258.5 0,-258.5"/>
<text text-anchor="middle" x="61" y="-265.5" font-family="Helvetica,sans-Serif" font-size="10.00">MxGpuArray::BufferView</text>
</a>
</g>
</g>
<!-- Node5&#45;&gt;Node4 -->
<g id="edge4" class="edge">
<title>Node5&#45;&gt;Node4</title>
<path fill="none" stroke="#9a32cd" stroke-dasharray="5,2" d="M61,-248.04C61,-235.67 61,-220.12 61,-210.63"/>
<polygon fill="#9a32cd" stroke="#9a32cd" points="57.5,-248.23 61,-258.23 64.5,-248.23 57.5,-248.23"/>
<text text-anchor="middle" x="76" y="-232" font-family="Helvetica,sans-Serif" font-size="10.00"> pView</text>
</g>
<!-- Node6 -->
<g id="node6" class="node">
<title>Node6</title>
<g id="a_node6"><a xlink:href="class_mx_vector.html" target="_top" xlink:title=" ">
<polygon fill="none" stroke="black" points="116.5,-67.5 116.5,-86.5 209.5,-86.5 209.5,-67.5 116.5,-67.5"/>
<text text-anchor="middle" x="163" y="-74.5" font-family="Helvetica,sans-Serif" font-size="10.00">MxVector&lt; N, T &gt;</text>
</a>
</g>
</g>
<!-- Node6&#45;&gt;Node1 -->
<g id="edge5" class="edge">
<title>Node6&#45;&gt;Node1</title>
<path fill="none" stroke="#9a32cd" stroke-dasharray="5,2" d="M149.87,-59.27C139.93,-46.6 126.67,-29.7 118.77,-19.63"/>
<polygon fill="#9a32cd" stroke="#9a32cd" points="147.2,-61.53 156.12,-67.23 152.7,-57.21 147.2,-61.53"/>
<text text-anchor="middle" x="168" y="-41" font-family="Helvetica,sans-Serif" font-size="10.00"> pTranslation</text>
</g>
</g>
</svg>
