<?xml version="1.0" encoding="UTF-8" standalone="no"?>
<!DOCTYPE svg PUBLIC "-//W3C//DTD SVG 1.1//EN"
 "http://www.w3.org/Graphics/SVG/1.1/DTD/svg11.dtd">
<!-- Generated by graphviz version 2.44.0 ()
 -->
<!-- Title: MxMouseEvent Pages: 1 -->
<svg width="1343pt" height="320pt"
 viewBox="0.00 0.00 1343.00 319.56" xmlns="http://www.w3.org/2000/svg" xmlns:xlink="http://www.w3.org/1999/xlink">
<g id="graph0" class="graph" transform="scale(1 1) rotate(0) translate(4 315.56)">
<title>MxMouseEvent</title>
<!-- Node1 -->
<g id="node1" class="node">
<title>Node1</title>
<g id="a_node1"><a xlink:title=" ">
<polygon fill="#bfbfbf" stroke="black" points="1252,-36.06 1252,-55.06 1335,-55.06 1335,-36.06 1252,-36.06"/>
<text text-anchor="middle" x="1293.5" y="-43.06" font-family="Helvetica,sans-Serif" font-size="10.00">MxMouseEvent</text>
</a>
</g>
</g>
<!-- Node2 -->
<g id="node2" class="node">
<title>Node2</title>
<g id="a_node2"><a xlink:href="class_mx_vector.html" target="_top" xlink:title=" ">
<polygon fill="none" stroke="black" points="864,-44.06 864,-63.06 967,-63.06 967,-44.06 864,-44.06"/>
<text text-anchor="middle" x="915.5" y="-51.06" font-family="Helvetica,sans-Serif" font-size="10.00">MxVector&lt; 2, float &gt;</text>
</a>
</g>
</g>
<!-- Node2&#45;&gt;Node1 -->
<g id="edge1" class="edge">
<title>Node2&#45;&gt;Node1</title>
<path fill="none" stroke="#9a32cd" stroke-dasharray="5,2" d="M946.51,-39.97C974.84,-27.94 1018.84,-11.27 1059,-4.56 1097.58,1.88 1108.26,0.79 1147,-4.56 1190.03,-10.51 1238.23,-25.9 1266.94,-36.04"/>
<polygon fill="#9a32cd" stroke="#9a32cd" points="944.96,-36.83 937.18,-44.01 947.74,-43.25 944.96,-36.83"/>
<text text-anchor="middle" x="1103" y="-29.56" font-family="Helvetica,sans-Serif" font-size="10.00"> pGlobalPos</text>
<text text-anchor="middle" x="1103" y="-18.56" font-family="Helvetica,sans-Serif" font-size="10.00">pMousePressedPos</text>
<text text-anchor="middle" x="1103" y="-7.56" font-family="Helvetica,sans-Serif" font-size="10.00">pPos</text>
</g>
<!-- Node4 -->
<g id="node4" class="node">
<title>Node4</title>
<g id="a_node4"><a xlink:href="class_mx_widget.html" target="_top" xlink:title=" ">
<polygon fill="none" stroke="black" points="1073.5,-87.06 1073.5,-106.06 1132.5,-106.06 1132.5,-87.06 1073.5,-87.06"/>
<text text-anchor="middle" x="1103" y="-94.06" font-family="Helvetica,sans-Serif" font-size="10.00">MxWidget</text>
</a>
</g>
</g>
<!-- Node2&#45;&gt;Node4 -->
<g id="edge4" class="edge">
<title>Node2&#45;&gt;Node4</title>
<path fill="none" stroke="#9a32cd" stroke-dasharray="5,2" d="M967.35,-65.46C973.3,-66.84 979.28,-68.24 985,-69.56 1015.05,-76.54 1049.46,-84.47 1073.15,-89.93"/>
<polygon fill="#9a32cd" stroke="#9a32cd" points="967.96,-62 957.43,-63.14 966.37,-68.82 967.96,-62"/>
<text text-anchor="middle" x="1013" y="-95.56" font-family="Helvetica,sans-Serif" font-size="10.00"> pPos</text>
<text text-anchor="middle" x="1013" y="-84.56" font-family="Helvetica,sans-Serif" font-size="10.00">pSize</text>
</g>
<!-- Node18 -->
<g id="node18" class="node">
<title>Node18</title>
<g id="a_node18"><a xlink:href="class_mx_painter.html" target="_top" xlink:title="Holder to the different painters.">
<polygon fill="none" stroke="black" points="1073,-47.06 1073,-66.06 1133,-66.06 1133,-47.06 1073,-47.06"/>
<text text-anchor="middle" x="1103" y="-54.06" font-family="Helvetica,sans-Serif" font-size="10.00">MxPainter</text>
</a>
</g>
</g>
<!-- Node2&#45;&gt;Node18 -->
<g id="edge23" class="edge">
<title>Node2&#45;&gt;Node18</title>
<path fill="none" stroke="#9a32cd" stroke-dasharray="5,2" d="M977.37,-54.55C1009.42,-55.06 1047.25,-55.68 1072.76,-56.09"/>
<polygon fill="#9a32cd" stroke="#9a32cd" points="977.24,-51.04 967.19,-54.38 977.13,-58.04 977.24,-51.04"/>
<text text-anchor="middle" x="1013" y="-57.56" font-family="Helvetica,sans-Serif" font-size="10.00"> pTranslation</text>
</g>
<!-- Node3 -->
<g id="node3" class="node">
<title>Node3</title>
<g id="a_node3"><a xlink:href="class_mx_vector.html" target="_top" xlink:title=" ">
<polygon fill="none" stroke="black" points="273,-59.06 273,-78.06 366,-78.06 366,-59.06 273,-59.06"/>
<text text-anchor="middle" x="319.5" y="-66.06" font-family="Helvetica,sans-Serif" font-size="10.00">MxVector&lt; N, T &gt;</text>
</a>
</g>
</g>
<!-- Node3&#45;&gt;Node2 -->
<g id="edge2" class="edge">
<title>Node3&#45;&gt;Node2</title>
<path fill="none" stroke="orange" stroke-dasharray="5,2" d="M376.32,-65.99C422.36,-63.96 489.41,-61.2 548,-59.56 660.75,-56.41 793.07,-54.75 863.8,-54.02"/>
<polygon fill="orange" stroke="orange" points="376.08,-62.5 366.24,-66.44 376.39,-69.49 376.08,-62.5"/>
<text text-anchor="middle" x="633.5" y="-62.56" font-family="Helvetica,sans-Serif" font-size="10.00"> &lt; 2, float &gt;</text>
</g>
<!-- Node11 -->
<g id="node11" class="node">
<title>Node11</title>
<g id="a_node11"><a xlink:href="class_mx_vector.html" target="_top" xlink:title=" ">
<polygon fill="none" stroke="black" points="586,-80.06 586,-99.06 681,-99.06 681,-80.06 586,-80.06"/>
<text text-anchor="middle" x="633.5" y="-87.06" font-family="Helvetica,sans-Serif" font-size="10.00">MxVector&lt; 2, int &gt;</text>
</a>
</g>
</g>
<!-- Node3&#45;&gt;Node11 -->
<g id="edge14" class="edge">
<title>Node3&#45;&gt;Node11</title>
<path fill="none" stroke="orange" stroke-dasharray="5,2" d="M376.22,-72.31C436.01,-76.34 529.91,-82.66 585.91,-86.43"/>
<polygon fill="orange" stroke="orange" points="376.41,-68.82 366.2,-71.64 375.94,-75.8 376.41,-68.82"/>
<text text-anchor="middle" x="460.5" y="-84.56" font-family="Helvetica,sans-Serif" font-size="10.00"> &lt; 2, int &gt;</text>
</g>
<!-- Node4&#45;&gt;Node1 -->
<g id="edge3" class="edge">
<title>Node4&#45;&gt;Node1</title>
<path fill="none" stroke="#9a32cd" stroke-dasharray="5,2" d="M1142.39,-85.02C1149.88,-82.83 1157.67,-80.59 1165,-78.56 1194.86,-70.3 1228.83,-61.53 1254.19,-55.12"/>
<polygon fill="#9a32cd" stroke="#9a32cd" points="1141.4,-81.66 1132.8,-87.85 1143.38,-88.38 1141.4,-81.66"/>
<text text-anchor="middle" x="1199.5" y="-81.56" font-family="Helvetica,sans-Serif" font-size="10.00"> pAcceptedItem</text>
</g>
<!-- Node4&#45;&gt;Node4 -->
<g id="edge5" class="edge">
<title>Node4&#45;&gt;Node4</title>
<path fill="none" stroke="#9a32cd" stroke-dasharray="5,2" d="M1086.33,-115.96C1087.45,-120.88 1093,-124.56 1103,-124.56 1119,-124.56 1123.62,-115.13 1116.87,-106.32"/>
<polygon fill="#9a32cd" stroke="#9a32cd" points="1089.71,-116.9 1089.13,-106.32 1082.98,-114.95 1089.71,-116.9"/>
<text text-anchor="middle" x="1103" y="-127.56" font-family="Helvetica,sans-Serif" font-size="10.00"> pParent</text>
</g>
<!-- Node5 -->
<g id="node5" class="node">
<title>Node5</title>
<g id="a_node5"><a xlink:href="class_mx_application.html" target="_top" xlink:title=" ">
<polygon fill="none" stroke="black" points="1255,-105.06 1255,-124.06 1332,-124.06 1332,-105.06 1255,-105.06"/>
<text text-anchor="middle" x="1293.5" y="-112.06" font-family="Helvetica,sans-Serif" font-size="10.00">MxApplication</text>
</a>
</g>
</g>
<!-- Node4&#45;&gt;Node5 -->
<g id="edge7" class="edge">
<title>Node4&#45;&gt;Node5</title>
<path fill="none" stroke="#9a32cd" stroke-dasharray="5,2" d="M1142.53,-105.81C1149.95,-107.3 1157.69,-108.65 1165,-109.56 1195.11,-113.33 1229.51,-114.5 1254.98,-114.77"/>
<polygon fill="#9a32cd" stroke="#9a32cd" points="1143.19,-102.38 1132.69,-103.73 1141.75,-109.22 1143.19,-102.38"/>
<text text-anchor="middle" x="1199.5" y="-116.56" font-family="Helvetica,sans-Serif" font-size="10.00"> pWidget</text>
</g>
<!-- Node5&#45;&gt;Node4 -->
<g id="edge6" class="edge">
<title>Node5&#45;&gt;Node4</title>
<path fill="none" stroke="#9a32cd" stroke-dasharray="5,2" d="M1253.46,-102.43C1247.02,-100.85 1240.36,-99.47 1234,-98.56 1199.36,-93.64 1159.01,-93.94 1132.56,-94.95"/>
<polygon fill="#9a32cd" stroke="#9a32cd" points="1252.78,-105.87 1263.34,-105.04 1254.57,-99.1 1252.78,-105.87"/>
<text text-anchor="middle" x="1199.5" y="-101.56" font-family="Helvetica,sans-Serif" font-size="10.00"> sApplication</text>
</g>
<!-- Node6 -->
<g id="node6" class="node">
<title>Node6</title>
<g id="a_node6"><a xlink:href="class_mx_gui_renderer.html" target="_top" xlink:title=" ">
<polygon fill="none" stroke="black" points="1061.5,-156.06 1061.5,-175.06 1144.5,-175.06 1144.5,-156.06 1061.5,-156.06"/>
<text text-anchor="middle" x="1103" y="-163.06" font-family="Helvetica,sans-Serif" font-size="10.00">MxGuiRenderer</text>
</a>
</g>
</g>
<!-- Node6&#45;&gt;Node5 -->
<g id="edge8" class="edge">
<title>Node6&#45;&gt;Node5</title>
<path fill="none" stroke="#9a32cd" stroke-dasharray="5,2" d="M1149.35,-153.29C1182.46,-144.33 1226.71,-132.36 1257.2,-124.11"/>
<polygon fill="#9a32cd" stroke="#9a32cd" points="1148.19,-149.98 1139.46,-155.97 1150.02,-156.74 1148.19,-149.98"/>
<text text-anchor="middle" x="1199.5" y="-150.56" font-family="Helvetica,sans-Serif" font-size="10.00"> pRenderer</text>
</g>
<!-- Node7 -->
<g id="node7" class="node">
<title>Node7</title>
<g id="a_node7"><a xlink:href="class_mx_renderer.html" target="_top" xlink:title=" ">
<polygon fill="none" stroke="black" points="881.5,-156.06 881.5,-175.06 949.5,-175.06 949.5,-156.06 881.5,-156.06"/>
<text text-anchor="middle" x="915.5" y="-163.06" font-family="Helvetica,sans-Serif" font-size="10.00">MxRenderer</text>
</a>
</g>
</g>
<!-- Node7&#45;&gt;Node6 -->
<g id="edge9" class="edge">
<title>Node7&#45;&gt;Node6</title>
<path fill="none" stroke="midnightblue" d="M960.04,-165.56C990.68,-165.56 1031.39,-165.56 1061.36,-165.56"/>
<polygon fill="midnightblue" stroke="midnightblue" points="959.66,-162.06 949.66,-165.56 959.66,-169.06 959.66,-162.06"/>
</g>
<!-- Node8 -->
<g id="node8" class="node">
<title>Node8</title>
<g id="a_node8"><a xlink:title=" ">
<polygon fill="none" stroke="#bfbfbf" points="579,-194.06 579,-213.06 688,-213.06 688,-194.06 579,-194.06"/>
<text text-anchor="middle" x="633.5" y="-201.06" font-family="Helvetica,sans-Serif" font-size="10.00">MxOpenGLFunctions</text>
</a>
</g>
</g>
<!-- Node8&#45;&gt;Node7 -->
<g id="edge10" class="edge">
<title>Node8&#45;&gt;Node7</title>
<path fill="none" stroke="midnightblue" d="M698.28,-198.42C740.38,-194.59 796.67,-188.62 846,-180.56 857.53,-178.68 870.05,-176.1 881.19,-173.61"/>
<polygon fill="midnightblue" stroke="midnightblue" points="697.82,-194.95 688.17,-199.33 698.44,-201.92 697.82,-194.95"/>
</g>
<!-- Node9 -->
<g id="node9" class="node">
<title>Node9</title>
<g id="a_node9"><a xlink:href="struct_mx_renderer_1_1_viewport.html" target="_top" xlink:title=" ">
<polygon fill="none" stroke="black" points="578,-156.06 578,-175.06 689,-175.06 689,-156.06 578,-156.06"/>
<text text-anchor="middle" x="633.5" y="-163.06" font-family="Helvetica,sans-Serif" font-size="10.00">MxRenderer::Viewport</text>
</a>
</g>
</g>
<!-- Node9&#45;&gt;Node7 -->
<g id="edge11" class="edge">
<title>Node9&#45;&gt;Node7</title>
<path fill="none" stroke="#9a32cd" stroke-dasharray="5,2" d="M699.5,-165.56C756.44,-165.56 836.87,-165.56 881.46,-165.56"/>
<polygon fill="#9a32cd" stroke="#9a32cd" points="699.15,-162.06 689.15,-165.56 699.15,-169.06 699.15,-162.06"/>
<text text-anchor="middle" x="791.5" y="-168.56" font-family="Helvetica,sans-Serif" font-size="10.00"> pViewport</text>
</g>
<!-- Node10 -->
<g id="node10" class="node">
<title>Node10</title>
<g id="a_node10"><a xlink:href="class_mx_matrix.html" target="_top" xlink:title=" ">
<polygon fill="none" stroke="black" points="605.5,-118.06 605.5,-137.06 661.5,-137.06 661.5,-118.06 605.5,-118.06"/>
<text text-anchor="middle" x="633.5" y="-125.06" font-family="Helvetica,sans-Serif" font-size="10.00">MxMatrix</text>
</a>
</g>
</g>
<!-- Node10&#45;&gt;Node7 -->
<g id="edge12" class="edge">
<title>Node10&#45;&gt;Node7</title>
<path fill="none" stroke="#9a32cd" stroke-dasharray="5,2" d="M671.8,-130.4C714.18,-133.91 785.34,-140.65 846,-150.56 857.53,-152.45 870.05,-155.03 881.19,-157.52"/>
<polygon fill="#9a32cd" stroke="#9a32cd" points="671.92,-126.9 661.67,-129.58 671.35,-133.88 671.92,-126.9"/>
<text text-anchor="middle" x="791.5" y="-153.56" font-family="Helvetica,sans-Serif" font-size="10.00"> pScreenProjectionMatrix</text>
</g>
<!-- Node11&#45;&gt;Node7 -->
<g id="edge13" class="edge">
<title>Node11&#45;&gt;Node7</title>
<path fill="none" stroke="#9a32cd" stroke-dasharray="5,2" d="M691.41,-91.72C734.94,-94.88 795.82,-102.64 846,-121.56 867.69,-129.74 889.7,-145.5 902.72,-155.77"/>
<polygon fill="#9a32cd" stroke="#9a32cd" points="691.5,-88.21 681.29,-91.04 691.03,-95.2 691.5,-88.21"/>
<text text-anchor="middle" x="791.5" y="-124.56" font-family="Helvetica,sans-Serif" font-size="10.00"> pScreenSize</text>
</g>
<!-- Node12 -->
<g id="node12" class="node">
<title>Node12</title>
<g id="a_node12"><a xlink:href="class_mx_list.html" target="_top" xlink:title=" ">
<polygon fill="none" stroke="black" points="548,-232.06 548,-273.06 719,-273.06 719,-232.06 548,-232.06"/>
<text text-anchor="start" x="556" y="-261.06" font-family="Helvetica,sans-Serif" font-size="10.00">MxList&lt; MxRenderer</text>
<text text-anchor="start" x="556" y="-250.06" font-family="Helvetica,sans-Serif" font-size="10.00">::ReusableVbo, MxClassInitializer</text>
<text text-anchor="middle" x="633.5" y="-239.06" font-family="Helvetica,sans-Serif" font-size="10.00">&lt; MxRenderer::ReusableVbo &gt;, 32 &gt;</text>
</a>
</g>
</g>
<!-- Node12&#45;&gt;Node7 -->
<g id="edge15" class="edge">
<title>Node12&#45;&gt;Node7</title>
<path fill="none" stroke="#9a32cd" stroke-dasharray="5,2" d="M729.02,-234.24C766.08,-225.79 808.6,-214.5 846,-200.56 864.65,-193.61 884.79,-182.9 898.38,-175.15"/>
<polygon fill="#9a32cd" stroke="#9a32cd" points="728.21,-230.83 719.22,-236.43 729.75,-237.66 728.21,-230.83"/>
<text text-anchor="middle" x="791.5" y="-234.56" font-family="Helvetica,sans-Serif" font-size="10.00"> pReusableVbos</text>
</g>
<!-- Node13 -->
<g id="node13" class="node">
<title>Node13</title>
<g id="a_node13"><a xlink:href="struct_mx_list_1_1_data.html" target="_top" xlink:title="these members are public to allow unions">
<polygon fill="none" stroke="black" points="115,-236.56 115,-266.56 222,-266.56 222,-236.56 115,-236.56"/>
<text text-anchor="start" x="123" y="-254.56" font-family="Helvetica,sans-Serif" font-size="10.00">MxList&lt; T, Initializer,</text>
<text text-anchor="middle" x="168.5" y="-243.56" font-family="Helvetica,sans-Serif" font-size="10.00"> Prealloc &gt;::Data</text>
</a>
</g>
</g>
<!-- Node13&#45;&gt;Node12 -->
<g id="edge16" class="edge">
<title>Node13&#45;&gt;Node12</title>
<path fill="none" stroke="#9a32cd" stroke-dasharray="5,2" d="M232.32,-256.95C304.27,-262.36 425.7,-269.14 530,-263.56 535.81,-263.25 541.79,-262.84 547.82,-262.36"/>
<polygon fill="#9a32cd" stroke="#9a32cd" points="232.31,-253.44 222.07,-256.16 231.77,-260.42 232.31,-253.44"/>
<text text-anchor="middle" x="319.5" y="-266.56" font-family="Helvetica,sans-Serif" font-size="10.00"> d</text>
</g>
<!-- Node15 -->
<g id="node15" class="node">
<title>Node15</title>
<g id="a_node15"><a xlink:href="class_mx_list.html" target="_top" xlink:title=" ">
<polygon fill="none" stroke="black" points="266,-210.56 266,-240.56 373,-240.56 373,-210.56 266,-210.56"/>
<text text-anchor="start" x="274" y="-228.56" font-family="Helvetica,sans-Serif" font-size="10.00">MxList&lt; T, Initializer,</text>
<text text-anchor="middle" x="319.5" y="-217.56" font-family="Helvetica,sans-Serif" font-size="10.00"> Prealloc &gt;</text>
</a>
</g>
</g>
<!-- Node13&#45;&gt;Node15 -->
<g id="edge19" class="edge">
<title>Node13&#45;&gt;Node15</title>
<path fill="none" stroke="#9a32cd" stroke-dasharray="5,2" d="M232.21,-240.62C243.44,-238.66 255.03,-236.64 265.94,-234.73"/>
<polygon fill="#9a32cd" stroke="#9a32cd" points="231.28,-237.23 222.03,-242.4 232.48,-244.12 231.28,-237.23"/>
<text text-anchor="middle" x="244" y="-241.56" font-family="Helvetica,sans-Serif" font-size="10.00"> d</text>
</g>
<!-- Node14 -->
<g id="node14" class="node">
<title>Node14</title>
<g id="a_node14"><a xlink:href="class_mx_ref_counter.html" target="_top" xlink:title=" ">
<polygon fill="none" stroke="black" points="0,-242.06 0,-261.06 78,-261.06 78,-242.06 0,-242.06"/>
<text text-anchor="middle" x="39" y="-249.06" font-family="Helvetica,sans-Serif" font-size="10.00">MxRefCounter</text>
</a>
</g>
</g>
<!-- Node14&#45;&gt;Node13 -->
<g id="edge17" class="edge">
<title>Node14&#45;&gt;Node13</title>
<path fill="none" stroke="midnightblue" d="M88.46,-251.56C97.03,-251.56 105.98,-251.56 114.66,-251.56"/>
<polygon fill="midnightblue" stroke="midnightblue" points="88.25,-248.06 78.25,-251.56 88.25,-255.06 88.25,-248.06"/>
</g>
<!-- Node15&#45;&gt;Node12 -->
<g id="edge18" class="edge">
<title>Node15&#45;&gt;Node12</title>
<path fill="none" stroke="orange" stroke-dasharray="5,2" d="M383.23,-224C424.97,-223.71 480.93,-224.76 530,-230.56 535.87,-231.26 541.91,-232.13 547.97,-233.12"/>
<polygon fill="orange" stroke="orange" points="383.18,-220.5 373.21,-224.1 383.25,-227.5 383.18,-220.5"/>
<text text-anchor="start" x="391" y="-255.56" font-family="Helvetica,sans-Serif" font-size="10.00"> &lt; MxRenderer::ReusableVbo,</text>
<text text-anchor="start" x="391" y="-244.56" font-family="Helvetica,sans-Serif" font-size="10.00"> MxClassInitializer&lt; MxRenderer</text>
<text text-anchor="middle" x="460.5" y="-233.56" font-family="Helvetica,sans-Serif" font-size="10.00">::ReusableVbo &gt;, 32 &gt;</text>
</g>
<!-- Node16 -->
<g id="node16" class="node">
<title>Node16</title>
<g id="a_node16"><a xlink:href="class_mx_abstract_atlas.html" target="_top" xlink:title=" ">
<polygon fill="none" stroke="black" points="871,-243.06 871,-262.06 960,-262.06 960,-243.06 871,-243.06"/>
<text text-anchor="middle" x="915.5" y="-250.06" font-family="Helvetica,sans-Serif" font-size="10.00">MxAbstractAtlas</text>
</a>
</g>
</g>
<!-- Node16&#45;&gt;Node6 -->
<g id="edge20" class="edge">
<title>Node16&#45;&gt;Node6</title>
<path fill="none" stroke="#9a32cd" stroke-dasharray="5,2" d="M946.57,-238.46C984.57,-220.64 1048.93,-190.45 1081.63,-175.12"/>
<polygon fill="#9a32cd" stroke="#9a32cd" points="944.63,-235.5 937.06,-242.92 947.6,-241.84 944.63,-235.5"/>
<text text-anchor="middle" x="1013" y="-221.56" font-family="Helvetica,sans-Serif" font-size="10.00"> pIconAtlas</text>
</g>
<!-- Node17 -->
<g id="node17" class="node">
<title>Node17</title>
<g id="a_node17"><a xlink:href="class_mx_texture.html" target="_top" xlink:title=" ">
<polygon fill="none" stroke="black" points="602.5,-292.06 602.5,-311.06 664.5,-311.06 664.5,-292.06 602.5,-292.06"/>
<text text-anchor="middle" x="633.5" y="-299.06" font-family="Helvetica,sans-Serif" font-size="10.00">MxTexture</text>
</a>
</g>
</g>
<!-- Node17&#45;&gt;Node16 -->
<g id="edge21" class="edge">
<title>Node17&#45;&gt;Node16</title>
<path fill="none" stroke="#9a32cd" stroke-dasharray="5,2" d="M674.59,-294.55C726.57,-285.45 816.91,-269.64 870.66,-260.23"/>
<polygon fill="#9a32cd" stroke="#9a32cd" points="673.98,-291.1 664.73,-296.27 675.18,-298 673.98,-291.1"/>
<text text-anchor="middle" x="791.5" y="-285.56" font-family="Helvetica,sans-Serif" font-size="10.00"> pTexture</text>
</g>
<!-- Node18&#45;&gt;Node5 -->
<g id="edge22" class="edge">
<title>Node18&#45;&gt;Node5</title>
<path fill="none" stroke="#9a32cd" stroke-dasharray="5,2" d="M1139.83,-44.23C1166.92,-37.05 1204.39,-31.84 1234,-45.56 1237.47,-47.17 1269.6,-86.36 1284.71,-104.95"/>
<polygon fill="#9a32cd" stroke="#9a32cd" points="1138.65,-40.93 1129.99,-47.04 1140.57,-47.66 1138.65,-40.93"/>
<text text-anchor="middle" x="1199.5" y="-48.56" font-family="Helvetica,sans-Serif" font-size="10.00"> pPainterBuffer</text>
</g>
</g>
</svg>
