<?xml version="1.0" encoding="UTF-8" standalone="no"?>
<!DOCTYPE svg PUBLIC "-//W3C//DTD SVG 1.1//EN"
 "http://www.w3.org/Graphics/SVG/1.1/DTD/svg11.dtd">
<!-- Generated by graphviz version 2.44.0 ()
 -->
<!-- Title: MxColorWheelProgram Pages: 1 -->
<svg width="1052pt" height="174pt"
 viewBox="0.00 0.00 1052.00 174.00" xmlns="http://www.w3.org/2000/svg" xmlns:xlink="http://www.w3.org/1999/xlink">
<g id="graph0" class="graph" transform="scale(1 1) rotate(0) translate(4 170)">
<title>MxColorWheelProgram</title>
<!-- Node1 -->
<g id="node1" class="node">
<title>Node1</title>
<g id="a_node1"><a xlink:title=" ">
<polygon fill="#bfbfbf" stroke="black" points="430,-146.5 430,-165.5 546,-165.5 546,-146.5 430,-146.5"/>
<text text-anchor="middle" x="488" y="-153.5" font-family="Helvetica,sans-Serif" font-size="10.00">MxColorWheelProgram</text>
</a>
</g>
</g>
<!-- Node3 -->
<g id="node3" class="node">
<title>Node3</title>
<g id="a_node3"><a xlink:href="class_mx_renderer.html" target="_top" xlink:title=" ">
<polygon fill="none" stroke="black" points="664,-92.5 664,-111.5 732,-111.5 732,-92.5 664,-92.5"/>
<text text-anchor="middle" x="698" y="-99.5" font-family="Helvetica,sans-Serif" font-size="10.00">MxRenderer</text>
</a>
</g>
</g>
<!-- Node1&#45;&gt;Node3 -->
<g id="edge6" class="edge">
<title>Node1&#45;&gt;Node3</title>
<path fill="none" stroke="#9a32cd" stroke-dasharray="5,2" d="M534.4,-143.81C544.16,-141.22 554.42,-138.5 564,-136 598.01,-127.12 636.98,-117.18 663.91,-110.36"/>
<polygon fill="#9a32cd" stroke="#9a32cd" points="533.22,-140.5 524.46,-146.46 535.03,-147.27 533.22,-140.5"/>
<text text-anchor="middle" x="605" y="-139" font-family="Helvetica,sans-Serif" font-size="10.00"> pColorWheelEffect</text>
</g>
<!-- Node2 -->
<g id="node2" class="node">
<title>Node2</title>
<g id="a_node2"><a xlink:href="class_mx_shader_program.html" target="_top" xlink:title=" ">
<polygon fill="none" stroke="black" points="815,-131.5 815,-150.5 912,-150.5 912,-131.5 815,-131.5"/>
<text text-anchor="middle" x="863.5" y="-138.5" font-family="Helvetica,sans-Serif" font-size="10.00">MxShaderProgram</text>
</a>
</g>
</g>
<!-- Node2&#45;&gt;Node1 -->
<g id="edge1" class="edge">
<title>Node2&#45;&gt;Node1</title>
<path fill="none" stroke="midnightblue" d="M804.84,-143.32C734.48,-146.14 616.25,-150.89 546.13,-153.71"/>
<polygon fill="midnightblue" stroke="midnightblue" points="805.01,-146.81 814.86,-142.91 804.73,-139.82 805.01,-146.81"/>
</g>
<!-- Node5 -->
<g id="node5" class="node">
<title>Node5</title>
<g id="a_node5"><a xlink:href="class_mx_vector_program.html" target="_top" xlink:title=" ">
<polygon fill="none" stroke="black" points="949,-104.5 949,-123.5 1044,-123.5 1044,-104.5 949,-104.5"/>
<text text-anchor="middle" x="996.5" y="-111.5" font-family="Helvetica,sans-Serif" font-size="10.00">MxVectorProgram</text>
</a>
</g>
</g>
<!-- Node2&#45;&gt;Node5 -->
<g id="edge5" class="edge">
<title>Node2&#45;&gt;Node5</title>
<path fill="none" stroke="midnightblue" d="M920.54,-129.45C930.13,-127.47 939.99,-125.44 949.29,-123.52"/>
<polygon fill="midnightblue" stroke="midnightblue" points="919.77,-126.03 910.69,-131.48 921.19,-132.89 919.77,-126.03"/>
</g>
<!-- Node3&#45;&gt;Node2 -->
<g id="edge2" class="edge">
<title>Node3&#45;&gt;Node2</title>
<path fill="none" stroke="#9a32cd" stroke-dasharray="5,2" d="M742,-112.26C766.94,-118.21 798.13,-125.65 822.53,-131.47"/>
<polygon fill="#9a32cd" stroke="#9a32cd" points="742.63,-108.81 732.09,-109.89 741,-115.62 742.63,-108.81"/>
<text text-anchor="middle" x="773.5" y="-127" font-family="Helvetica,sans-Serif" font-size="10.00"> pRenderer</text>
</g>
<!-- Node4 -->
<g id="node4" class="node">
<title>Node4</title>
<g id="a_node4"><a xlink:title=" ">
<polygon fill="none" stroke="#bfbfbf" points="433.5,-98.5 433.5,-117.5 542.5,-117.5 542.5,-98.5 433.5,-98.5"/>
<text text-anchor="middle" x="488" y="-105.5" font-family="Helvetica,sans-Serif" font-size="10.00">MxOpenGLFunctions</text>
</a>
</g>
</g>
<!-- Node4&#45;&gt;Node3 -->
<g id="edge3" class="edge">
<title>Node4&#45;&gt;Node3</title>
<path fill="none" stroke="midnightblue" d="M552.68,-106.16C589.36,-105.11 633.95,-103.82 663.77,-102.96"/>
<polygon fill="midnightblue" stroke="midnightblue" points="552.46,-102.67 542.57,-106.45 552.66,-109.66 552.46,-102.67"/>
</g>
<!-- Node5&#45;&gt;Node3 -->
<g id="edge4" class="edge">
<title>Node5&#45;&gt;Node3</title>
<path fill="none" stroke="#9a32cd" stroke-dasharray="5,2" d="M938.71,-111.7C877.5,-109.22 782.15,-105.37 732.15,-103.34"/>
<polygon fill="#9a32cd" stroke="#9a32cd" points="938.84,-115.21 948.97,-112.12 939.12,-108.22 938.84,-115.21"/>
<text text-anchor="middle" x="863.5" y="-113" font-family="Helvetica,sans-Serif" font-size="10.00"> pVectorProgram</text>
</g>
<!-- Node6 -->
<g id="node6" class="node">
<title>Node6</title>
<g id="a_node6"><a xlink:href="class_mx_list.html" target="_top" xlink:title=" ">
<polygon fill="none" stroke="black" points="437.5,-38.5 437.5,-79.5 538.5,-79.5 538.5,-38.5 437.5,-38.5"/>
<text text-anchor="start" x="445.5" y="-67.5" font-family="Helvetica,sans-Serif" font-size="10.00">MxList&lt; GpuBuffer,</text>
<text text-anchor="start" x="445.5" y="-56.5" font-family="Helvetica,sans-Serif" font-size="10.00"> MxClassInitializer</text>
<text text-anchor="middle" x="488" y="-45.5" font-family="Helvetica,sans-Serif" font-size="10.00">&lt; GpuBuffer &gt; &gt;</text>
</a>
</g>
</g>
<!-- Node6&#45;&gt;Node3 -->
<g id="edge7" class="edge">
<title>Node6&#45;&gt;Node3</title>
<path fill="none" stroke="#9a32cd" stroke-dasharray="5,2" d="M548.83,-68.82C578.22,-73.95 614.1,-80.69 646,-88 651.82,-89.33 657.97,-90.89 663.91,-92.48"/>
<polygon fill="#9a32cd" stroke="#9a32cd" points="549.17,-65.32 538.72,-67.07 547.98,-72.22 549.17,-65.32"/>
<text text-anchor="middle" x="605" y="-91" font-family="Helvetica,sans-Serif" font-size="10.00"> pVboList</text>
</g>
<!-- Node7 -->
<g id="node7" class="node">
<title>Node7</title>
<g id="a_node7"><a xlink:href="struct_mx_list_1_1_data.html" target="_top" xlink:title="these members are public to allow unions">
<polygon fill="none" stroke="black" points="0,-67 0,-97 107,-97 107,-67 0,-67"/>
<text text-anchor="start" x="8" y="-85" font-family="Helvetica,sans-Serif" font-size="10.00">MxList&lt; T, Initializer,</text>
<text text-anchor="middle" x="53.5" y="-74" font-family="Helvetica,sans-Serif" font-size="10.00"> Prealloc &gt;::Data</text>
</a>
</g>
</g>
<!-- Node7&#45;&gt;Node6 -->
<g id="edge8" class="edge">
<title>Node7&#45;&gt;Node6</title>
<path fill="none" stroke="#9a32cd" stroke-dasharray="5,2" d="M117.25,-88.6C189.02,-94.71 309.81,-100.58 412,-84 420.26,-82.66 428.85,-80.54 437.13,-78.08"/>
<polygon fill="#9a32cd" stroke="#9a32cd" points="117.29,-85.09 107.02,-87.7 116.68,-92.06 117.29,-85.09"/>
<text text-anchor="middle" x="204.5" y="-97" font-family="Helvetica,sans-Serif" font-size="10.00"> d</text>
</g>
<!-- Node8 -->
<g id="node8" class="node">
<title>Node8</title>
<g id="a_node8"><a xlink:href="class_mx_list.html" target="_top" xlink:title=" ">
<polygon fill="none" stroke="black" points="151,-41 151,-71 258,-71 258,-41 151,-41"/>
<text text-anchor="start" x="159" y="-59" font-family="Helvetica,sans-Serif" font-size="10.00">MxList&lt; T, Initializer,</text>
<text text-anchor="middle" x="204.5" y="-48" font-family="Helvetica,sans-Serif" font-size="10.00"> Prealloc &gt;</text>
</a>
</g>
</g>
<!-- Node7&#45;&gt;Node8 -->
<g id="edge10" class="edge">
<title>Node7&#45;&gt;Node8</title>
<path fill="none" stroke="#9a32cd" stroke-dasharray="5,2" d="M117.21,-71.06C128.44,-69.1 140.03,-67.07 150.94,-65.17"/>
<polygon fill="#9a32cd" stroke="#9a32cd" points="116.28,-67.67 107.03,-72.83 117.48,-74.56 116.28,-67.67"/>
<text text-anchor="middle" x="129" y="-72" font-family="Helvetica,sans-Serif" font-size="10.00"> d</text>
</g>
<!-- Node8&#45;&gt;Node6 -->
<g id="edge9" class="edge">
<title>Node8&#45;&gt;Node6</title>
<path fill="none" stroke="orange" stroke-dasharray="5,2" d="M268.37,-56.67C319.41,-57.21 390.4,-57.97 437.47,-58.47"/>
<polygon fill="orange" stroke="orange" points="268.15,-53.17 258.12,-56.56 268.08,-60.17 268.15,-53.17"/>
<text text-anchor="start" x="276" y="-72" font-family="Helvetica,sans-Serif" font-size="10.00"> &lt; GpuBuffer, MxClassInitializer</text>
<text text-anchor="middle" x="344" y="-61" font-family="Helvetica,sans-Serif" font-size="10.00">&lt; GpuBuffer &gt; &gt;</text>
</g>
<!-- Node9 -->
<g id="node9" class="node">
<title>Node9</title>
<g id="a_node9"><a xlink:href="class_mx_vector.html" target="_top" xlink:title=" ">
<polygon fill="none" stroke="black" points="440.5,-0.5 440.5,-19.5 535.5,-19.5 535.5,-0.5 440.5,-0.5"/>
<text text-anchor="middle" x="488" y="-7.5" font-family="Helvetica,sans-Serif" font-size="10.00">MxVector&lt; 2, int &gt;</text>
</a>
</g>
</g>
<!-- Node9&#45;&gt;Node3 -->
<g id="edge11" class="edge">
<title>Node9&#45;&gt;Node3</title>
<path fill="none" stroke="#9a32cd" stroke-dasharray="5,2" d="M545.59,-20.13C576.59,-27.23 614.9,-38.63 646,-56 663.07,-65.54 679.2,-81.73 688.59,-92.14"/>
<polygon fill="#9a32cd" stroke="#9a32cd" points="546.33,-16.71 535.81,-17.98 544.82,-23.55 546.33,-16.71"/>
<text text-anchor="middle" x="605" y="-59" font-family="Helvetica,sans-Serif" font-size="10.00"> pScreenSize</text>
</g>
<!-- Node10 -->
<g id="node10" class="node">
<title>Node10</title>
<g id="a_node10"><a xlink:href="class_mx_vector.html" target="_top" xlink:title=" ">
<polygon fill="none" stroke="black" points="158,-0.5 158,-19.5 251,-19.5 251,-0.5 158,-0.5"/>
<text text-anchor="middle" x="204.5" y="-7.5" font-family="Helvetica,sans-Serif" font-size="10.00">MxVector&lt; N, T &gt;</text>
</a>
</g>
</g>
<!-- Node10&#45;&gt;Node9 -->
<g id="edge12" class="edge">
<title>Node10&#45;&gt;Node9</title>
<path fill="none" stroke="orange" stroke-dasharray="5,2" d="M261.15,-10C313.46,-10 390.87,-10 440.12,-10"/>
<polygon fill="orange" stroke="orange" points="261.04,-6.5 251.04,-10 261.04,-13.5 261.04,-6.5"/>
<text text-anchor="middle" x="344" y="-13" font-family="Helvetica,sans-Serif" font-size="10.00"> &lt; 2, int &gt;</text>
</g>
</g>
</svg>
