<?xml version="1.0" encoding="UTF-8" standalone="no"?>
<!DOCTYPE svg PUBLIC "-//W3C//DTD SVG 1.1//EN"
 "http://www.w3.org/Graphics/SVG/1.1/DTD/svg11.dtd">
<!-- Generated by graphviz version 2.44.0 ()
 -->
<!-- Title: MxGpuProgram Pages: 1 -->
<svg width="1069pt" height="206pt"
 viewBox="0.00 0.00 1069.00 205.50" xmlns="http://www.w3.org/2000/svg" xmlns:xlink="http://www.w3.org/1999/xlink">
<g id="graph0" class="graph" transform="scale(1 1) rotate(0) translate(4 201.5)">
<title>MxGpuProgram</title>
<!-- Node1 -->
<g id="node1" class="node">
<title>Node1</title>
<g id="a_node1"><a xlink:title=" ">
<polygon fill="#bfbfbf" stroke="black" points="977,-123 977,-142 1061,-142 1061,-123 977,-123"/>
<text text-anchor="middle" x="1019" y="-130" font-family="Helvetica,sans-Serif" font-size="10.00">MxGpuProgram</text>
</a>
</g>
</g>
<!-- Node2 -->
<g id="node2" class="node">
<title>Node2</title>
<g id="a_node2"><a xlink:href="class_mx_renderer.html" target="_top" xlink:title=" ">
<polygon fill="none" stroke="black" points="826,-123 826,-142 894,-142 894,-123 826,-123"/>
<text text-anchor="middle" x="860" y="-130" font-family="Helvetica,sans-Serif" font-size="10.00">MxRenderer</text>
</a>
</g>
</g>
<!-- Node2&#45;&gt;Node1 -->
<g id="edge1" class="edge">
<title>Node2&#45;&gt;Node1</title>
<path fill="none" stroke="#9a32cd" stroke-dasharray="5,2" d="M904.33,-132.5C927,-132.5 954.6,-132.5 976.93,-132.5"/>
<polygon fill="#9a32cd" stroke="#9a32cd" points="904.3,-129 894.3,-132.5 904.3,-136 904.3,-129"/>
<text text-anchor="middle" x="935.5" y="-135.5" font-family="Helvetica,sans-Serif" font-size="10.00"> pRenderer</text>
</g>
<!-- Node3 -->
<g id="node3" class="node">
<title>Node3</title>
<g id="a_node3"><a xlink:title=" ">
<polygon fill="none" stroke="#bfbfbf" points="579,-178 579,-197 688,-197 688,-178 579,-178"/>
<text text-anchor="middle" x="633.5" y="-185" font-family="Helvetica,sans-Serif" font-size="10.00">MxOpenGLFunctions</text>
</a>
</g>
</g>
<!-- Node3&#45;&gt;Node2 -->
<g id="edge2" class="edge">
<title>Node3&#45;&gt;Node2</title>
<path fill="none" stroke="midnightblue" d="M698.2,-180.21C731.43,-175.39 772.46,-167.82 808,-156.5 819.56,-152.82 831.89,-147.07 841.53,-142.13"/>
<polygon fill="midnightblue" stroke="midnightblue" points="697.56,-176.76 688.15,-181.62 698.54,-183.7 697.56,-176.76"/>
</g>
<!-- Node4 -->
<g id="node4" class="node">
<title>Node4</title>
<g id="a_node4"><a xlink:href="struct_mx_renderer_1_1_viewport.html" target="_top" xlink:title=" ">
<polygon fill="none" stroke="black" points="578,-140 578,-159 689,-159 689,-140 578,-140"/>
<text text-anchor="middle" x="633.5" y="-147" font-family="Helvetica,sans-Serif" font-size="10.00">MxRenderer::Viewport</text>
</a>
</g>
</g>
<!-- Node4&#45;&gt;Node2 -->
<g id="edge3" class="edge">
<title>Node4&#45;&gt;Node2</title>
<path fill="none" stroke="#9a32cd" stroke-dasharray="5,2" d="M699.14,-144.61C740.54,-141.47 792.54,-137.53 825.78,-135.02"/>
<polygon fill="#9a32cd" stroke="#9a32cd" points="698.84,-141.12 689.13,-145.36 699.37,-148.1 698.84,-141.12"/>
<text text-anchor="middle" x="772.5" y="-144.5" font-family="Helvetica,sans-Serif" font-size="10.00"> pViewport</text>
</g>
<!-- Node5 -->
<g id="node5" class="node">
<title>Node5</title>
<g id="a_node5"><a xlink:href="class_mx_vector.html" target="_top" xlink:title=" ">
<polygon fill="none" stroke="black" points="586,-102 586,-121 681,-121 681,-102 586,-102"/>
<text text-anchor="middle" x="633.5" y="-109" font-family="Helvetica,sans-Serif" font-size="10.00">MxVector&lt; 2, int &gt;</text>
</a>
</g>
</g>
<!-- Node5&#45;&gt;Node2 -->
<g id="edge4" class="edge">
<title>Node5&#45;&gt;Node2</title>
<path fill="none" stroke="#9a32cd" stroke-dasharray="5,2" d="M691.29,-112.56C725.28,-113.74 769.26,-116.24 808,-121.5 813.83,-122.29 819.99,-123.39 825.94,-124.59"/>
<polygon fill="#9a32cd" stroke="#9a32cd" points="691.19,-109.05 681.08,-112.23 690.96,-116.05 691.19,-109.05"/>
<text text-anchor="middle" x="772.5" y="-124.5" font-family="Helvetica,sans-Serif" font-size="10.00"> pScreenSize</text>
</g>
<!-- Node6 -->
<g id="node6" class="node">
<title>Node6</title>
<g id="a_node6"><a xlink:href="class_mx_vector.html" target="_top" xlink:title=" ">
<polygon fill="none" stroke="black" points="273,-102 273,-121 366,-121 366,-102 273,-102"/>
<text text-anchor="middle" x="319.5" y="-109" font-family="Helvetica,sans-Serif" font-size="10.00">MxVector&lt; N, T &gt;</text>
</a>
</g>
</g>
<!-- Node6&#45;&gt;Node5 -->
<g id="edge5" class="edge">
<title>Node6&#45;&gt;Node5</title>
<path fill="none" stroke="orange" stroke-dasharray="5,2" d="M376.22,-111.5C436.01,-111.5 529.91,-111.5 585.91,-111.5"/>
<polygon fill="orange" stroke="orange" points="376.2,-108 366.2,-111.5 376.2,-115 376.2,-108"/>
<text text-anchor="middle" x="460.5" y="-114.5" font-family="Helvetica,sans-Serif" font-size="10.00"> &lt; 2, int &gt;</text>
</g>
<!-- Node7 -->
<g id="node7" class="node">
<title>Node7</title>
<g id="a_node7"><a xlink:href="class_mx_list.html" target="_top" xlink:title=" ">
<polygon fill="none" stroke="black" points="548,-42 548,-83 719,-83 719,-42 548,-42"/>
<text text-anchor="start" x="556" y="-71" font-family="Helvetica,sans-Serif" font-size="10.00">MxList&lt; MxRenderer</text>
<text text-anchor="start" x="556" y="-60" font-family="Helvetica,sans-Serif" font-size="10.00">::ReusableVbo, MxClassInitializer</text>
<text text-anchor="middle" x="633.5" y="-49" font-family="Helvetica,sans-Serif" font-size="10.00">&lt; MxRenderer::ReusableVbo &gt;, 32 &gt;</text>
</a>
</g>
</g>
<!-- Node7&#45;&gt;Node2 -->
<g id="edge6" class="edge">
<title>Node7&#45;&gt;Node2</title>
<path fill="none" stroke="#9a32cd" stroke-dasharray="5,2" d="M729.22,-76.21C755.34,-81.72 783.27,-89.27 808,-99.5 822.23,-105.39 836.82,-115.29 846.72,-122.72"/>
<polygon fill="#9a32cd" stroke="#9a32cd" points="729.81,-72.76 719.32,-74.2 728.42,-79.62 729.81,-72.76"/>
<text text-anchor="middle" x="772.5" y="-102.5" font-family="Helvetica,sans-Serif" font-size="10.00"> pReusableVbos</text>
</g>
<!-- Node8 -->
<g id="node8" class="node">
<title>Node8</title>
<g id="a_node8"><a xlink:href="struct_mx_list_1_1_data.html" target="_top" xlink:title="these members are public to allow unions">
<polygon fill="none" stroke="black" points="115,-26.5 115,-56.5 222,-56.5 222,-26.5 115,-26.5"/>
<text text-anchor="start" x="123" y="-44.5" font-family="Helvetica,sans-Serif" font-size="10.00">MxList&lt; T, Initializer,</text>
<text text-anchor="middle" x="168.5" y="-33.5" font-family="Helvetica,sans-Serif" font-size="10.00"> Prealloc &gt;::Data</text>
</a>
</g>
</g>
<!-- Node8&#45;&gt;Node7 -->
<g id="edge7" class="edge">
<title>Node8&#45;&gt;Node7</title>
<path fill="none" stroke="#9a32cd" stroke-dasharray="5,2" d="M232.35,-45.19C276.68,-47.72 337.46,-51.05 391,-53.5 443.08,-55.88 501.49,-58.07 547.82,-59.69"/>
<polygon fill="#9a32cd" stroke="#9a32cd" points="232.48,-41.69 222.3,-44.61 232.08,-48.68 232.48,-41.69"/>
<text text-anchor="middle" x="319.5" y="-56.5" font-family="Helvetica,sans-Serif" font-size="10.00"> d</text>
</g>
<!-- Node10 -->
<g id="node10" class="node">
<title>Node10</title>
<g id="a_node10"><a xlink:href="class_mx_list.html" target="_top" xlink:title=" ">
<polygon fill="none" stroke="black" points="266,-0.5 266,-30.5 373,-30.5 373,-0.5 266,-0.5"/>
<text text-anchor="start" x="274" y="-18.5" font-family="Helvetica,sans-Serif" font-size="10.00">MxList&lt; T, Initializer,</text>
<text text-anchor="middle" x="319.5" y="-7.5" font-family="Helvetica,sans-Serif" font-size="10.00"> Prealloc &gt;</text>
</a>
</g>
</g>
<!-- Node8&#45;&gt;Node10 -->
<g id="edge10" class="edge">
<title>Node8&#45;&gt;Node10</title>
<path fill="none" stroke="#9a32cd" stroke-dasharray="5,2" d="M232.21,-30.56C243.44,-28.6 255.03,-26.57 265.94,-24.67"/>
<polygon fill="#9a32cd" stroke="#9a32cd" points="231.28,-27.17 222.03,-32.33 232.48,-34.06 231.28,-27.17"/>
<text text-anchor="middle" x="244" y="-31.5" font-family="Helvetica,sans-Serif" font-size="10.00"> d</text>
</g>
<!-- Node9 -->
<g id="node9" class="node">
<title>Node9</title>
<g id="a_node9"><a xlink:href="class_mx_ref_counter.html" target="_top" xlink:title=" ">
<polygon fill="none" stroke="black" points="0,-32 0,-51 78,-51 78,-32 0,-32"/>
<text text-anchor="middle" x="39" y="-39" font-family="Helvetica,sans-Serif" font-size="10.00">MxRefCounter</text>
</a>
</g>
</g>
<!-- Node9&#45;&gt;Node8 -->
<g id="edge8" class="edge">
<title>Node9&#45;&gt;Node8</title>
<path fill="none" stroke="midnightblue" d="M88.46,-41.5C97.03,-41.5 105.98,-41.5 114.66,-41.5"/>
<polygon fill="midnightblue" stroke="midnightblue" points="88.25,-38 78.25,-41.5 88.25,-45 88.25,-38"/>
</g>
<!-- Node10&#45;&gt;Node7 -->
<g id="edge9" class="edge">
<title>Node10&#45;&gt;Node7</title>
<path fill="none" stroke="orange" stroke-dasharray="5,2" d="M383.27,-11.09C425.25,-9.58 481.48,-10.34 530,-20.5 551.27,-24.95 573.73,-33.66 592.19,-41.99"/>
<polygon fill="orange" stroke="orange" points="383.04,-7.6 373.19,-11.51 383.33,-14.59 383.04,-7.6"/>
<text text-anchor="start" x="391" y="-45.5" font-family="Helvetica,sans-Serif" font-size="10.00"> &lt; MxRenderer::ReusableVbo,</text>
<text text-anchor="start" x="391" y="-34.5" font-family="Helvetica,sans-Serif" font-size="10.00"> MxClassInitializer&lt; MxRenderer</text>
<text text-anchor="middle" x="460.5" y="-23.5" font-family="Helvetica,sans-Serif" font-size="10.00">::ReusableVbo &gt;, 32 &gt;</text>
</g>
</g>
</svg>
