<?xml version="1.0" encoding="UTF-8" standalone="no"?>
<!DOCTYPE svg PUBLIC "-//W3C//DTD SVG 1.1//EN"
 "http://www.w3.org/Graphics/SVG/1.1/DTD/svg11.dtd">
<!-- Generated by graphviz version 2.44.0 ()
 -->
<!-- Title: MxGuiRenderer Pages: 1 -->
<svg width="1152pt" height="289pt"
 viewBox="0.00 0.00 1152.00 289.00" xmlns="http://www.w3.org/2000/svg" xmlns:xlink="http://www.w3.org/1999/xlink">
<g id="graph0" class="graph" transform="scale(1 1) rotate(0) translate(4 285)">
<title>MxGuiRenderer</title>
<!-- Node1 -->
<g id="node1" class="node">
<title>Node1</title>
<g id="a_node1"><a xlink:title=" ">
<polygon fill="#bfbfbf" stroke="black" points="1060.5,-61.5 1060.5,-80.5 1143.5,-80.5 1143.5,-61.5 1060.5,-61.5"/>
<text text-anchor="middle" x="1102" y="-68.5" font-family="Helvetica,sans-Serif" font-size="10.00">MxGuiRenderer</text>
</a>
</g>
</g>
<!-- Node2 -->
<g id="node2" class="node">
<title>Node2</title>
<g id="a_node2"><a xlink:href="class_mx_renderer.html" target="_top" xlink:title="The MxRenderer keeps track of the rendering state and resources.">
<polygon fill="none" stroke="black" points="836.5,-179.5 836.5,-198.5 904.5,-198.5 904.5,-179.5 836.5,-179.5"/>
<text text-anchor="middle" x="870.5" y="-186.5" font-family="Helvetica,sans-Serif" font-size="10.00">MxRenderer</text>
</a>
</g>
</g>
<!-- Node2&#45;&gt;Node1 -->
<g id="edge1" class="edge">
<title>Node2&#45;&gt;Node1</title>
<path fill="none" stroke="midnightblue" d="M899.14,-174.79C909.69,-169.44 921.86,-163.36 933,-158 981.03,-134.89 995.1,-133.32 1042,-108 1057.75,-99.5 1075,-88.46 1086.76,-80.66"/>
<polygon fill="midnightblue" stroke="midnightblue" points="897.3,-171.8 889.98,-179.46 900.48,-178.04 897.3,-171.8"/>
</g>
<!-- Node12 -->
<g id="node12" class="node">
<title>Node12</title>
<g id="a_node12"><a xlink:href="class_mx_gpu_program.html" target="_top" xlink:title=" ">
<polygon fill="none" stroke="black" points="1060,-174.5 1060,-193.5 1144,-193.5 1144,-174.5 1060,-174.5"/>
<text text-anchor="middle" x="1102" y="-181.5" font-family="Helvetica,sans-Serif" font-size="10.00">MxGpuProgram</text>
</a>
</g>
</g>
<!-- Node2&#45;&gt;Node12 -->
<g id="edge15" class="edge">
<title>Node2&#45;&gt;Node12</title>
<path fill="none" stroke="#9a32cd" stroke-dasharray="5,2" d="M914.98,-188.05C956.62,-187.15 1018.98,-185.79 1059.82,-184.9"/>
<polygon fill="#9a32cd" stroke="#9a32cd" points="914.79,-184.56 904.87,-188.27 914.95,-191.55 914.79,-184.56"/>
<text text-anchor="middle" x="987.5" y="-190" font-family="Helvetica,sans-Serif" font-size="10.00"> pRenderer</text>
</g>
<!-- Node3 -->
<g id="node3" class="node">
<title>Node3</title>
<g id="a_node3"><a xlink:title=" ">
<polygon fill="none" stroke="#bfbfbf" points="579,-261.5 579,-280.5 688,-280.5 688,-261.5 579,-261.5"/>
<text text-anchor="middle" x="633.5" y="-268.5" font-family="Helvetica,sans-Serif" font-size="10.00">MxOpenGLFunctions</text>
</a>
</g>
</g>
<!-- Node3&#45;&gt;Node2 -->
<g id="edge2" class="edge">
<title>Node3&#45;&gt;Node2</title>
<path fill="none" stroke="midnightblue" d="M698.5,-263.92C732.16,-258.59 773.48,-249.45 808,-234 827.8,-225.13 847.47,-209.16 859.05,-198.82"/>
<polygon fill="midnightblue" stroke="midnightblue" points="697.68,-260.51 688.32,-265.46 698.73,-267.43 697.68,-260.51"/>
</g>
<!-- Node4 -->
<g id="node4" class="node">
<title>Node4</title>
<g id="a_node4"><a xlink:href="class_mx_texture.html" target="_top" xlink:title=" ">
<polygon fill="none" stroke="black" points="602.5,-223.5 602.5,-242.5 664.5,-242.5 664.5,-223.5 602.5,-223.5"/>
<text text-anchor="middle" x="633.5" y="-230.5" font-family="Helvetica,sans-Serif" font-size="10.00">MxTexture</text>
</a>
</g>
</g>
<!-- Node4&#45;&gt;Node2 -->
<g id="edge3" class="edge">
<title>Node4&#45;&gt;Node2</title>
<path fill="none" stroke="#9a32cd" stroke-dasharray="5,2" d="M674.44,-228.58C709.79,-224.3 762.65,-216.99 808,-207 818.54,-204.68 829.92,-201.53 839.99,-198.52"/>
<polygon fill="#9a32cd" stroke="#9a32cd" points="674.02,-225.11 664.51,-229.76 674.85,-232.06 674.02,-225.11"/>
<text text-anchor="middle" x="772.5" y="-222" font-family="Helvetica,sans-Serif" font-size="10.00"> pTextures</text>
</g>
<!-- Node5 -->
<g id="node5" class="node">
<title>Node5</title>
<g id="a_node5"><a xlink:href="class_mx_list.html" target="_top" xlink:title=" ">
<polygon fill="none" stroke="black" points="575.5,-185.5 575.5,-204.5 691.5,-204.5 691.5,-185.5 575.5,-185.5"/>
<text text-anchor="middle" x="633.5" y="-192.5" font-family="Helvetica,sans-Serif" font-size="10.00">MxList&lt; MxGpuArray &gt;</text>
</a>
</g>
</g>
<!-- Node5&#45;&gt;Node2 -->
<g id="edge4" class="edge">
<title>Node5&#45;&gt;Node2</title>
<path fill="none" stroke="#9a32cd" stroke-dasharray="5,2" d="M701.77,-193.28C745.88,-192.16 801.62,-190.73 836.42,-189.84"/>
<polygon fill="#9a32cd" stroke="#9a32cd" points="701.59,-189.79 691.69,-193.54 701.77,-196.78 701.59,-189.79"/>
<text text-anchor="middle" x="772.5" y="-195" font-family="Helvetica,sans-Serif" font-size="10.00"> pBufferViews</text>
</g>
<!-- Node6 -->
<g id="node6" class="node">
<title>Node6</title>
<g id="a_node6"><a xlink:href="struct_mx_list_1_1_data.html" target="_top" xlink:title="these members are public to allow unions">
<polygon fill="none" stroke="black" points="115,-151 115,-181 222,-181 222,-151 115,-151"/>
<text text-anchor="start" x="123" y="-169" font-family="Helvetica,sans-Serif" font-size="10.00">MxList&lt; T, Initializer,</text>
<text text-anchor="middle" x="168.5" y="-158" font-family="Helvetica,sans-Serif" font-size="10.00"> Prealloc &gt;::Data</text>
</a>
</g>
</g>
<!-- Node6&#45;&gt;Node5 -->
<g id="edge5" class="edge">
<title>Node6&#45;&gt;Node5</title>
<path fill="none" stroke="#9a32cd" stroke-dasharray="5,2" d="M231.84,-183.53C243.14,-186.31 254.88,-188.95 266,-191 381.55,-212.33 412.64,-210.71 530,-205 544.73,-204.28 560.62,-202.99 575.38,-201.57"/>
<polygon fill="#9a32cd" stroke="#9a32cd" points="232.59,-180.11 222.04,-181.05 230.88,-186.9 232.59,-180.11"/>
<text text-anchor="middle" x="319.5" y="-209" font-family="Helvetica,sans-Serif" font-size="10.00"> d</text>
</g>
<!-- Node8 -->
<g id="node8" class="node">
<title>Node8</title>
<g id="a_node8"><a xlink:href="class_mx_list.html" target="_top" xlink:title=" ">
<polygon fill="none" stroke="black" points="266,-151 266,-181 373,-181 373,-151 266,-151"/>
<text text-anchor="start" x="274" y="-169" font-family="Helvetica,sans-Serif" font-size="10.00">MxList&lt; T, Initializer,</text>
<text text-anchor="middle" x="319.5" y="-158" font-family="Helvetica,sans-Serif" font-size="10.00"> Prealloc &gt;</text>
</a>
</g>
</g>
<!-- Node6&#45;&gt;Node8 -->
<g id="edge8" class="edge">
<title>Node6&#45;&gt;Node8</title>
<path fill="none" stroke="#9a32cd" stroke-dasharray="5,2" d="M232.21,-166C243.44,-166 255.03,-166 265.94,-166"/>
<polygon fill="#9a32cd" stroke="#9a32cd" points="232.03,-162.5 222.03,-166 232.03,-169.5 232.03,-162.5"/>
<text text-anchor="middle" x="244" y="-169" font-family="Helvetica,sans-Serif" font-size="10.00"> d</text>
</g>
<!-- Node11 -->
<g id="node11" class="node">
<title>Node11</title>
<g id="a_node11"><a xlink:href="class_mx_list.html" target="_top" xlink:title=" ">
<polygon fill="none" stroke="black" points="548,-124.5 548,-165.5 719,-165.5 719,-124.5 548,-124.5"/>
<text text-anchor="start" x="556" y="-153.5" font-family="Helvetica,sans-Serif" font-size="10.00">MxList&lt; MxRenderer</text>
<text text-anchor="start" x="556" y="-142.5" font-family="Helvetica,sans-Serif" font-size="10.00">::ReusableVbo, MxClassInitializer</text>
<text text-anchor="middle" x="633.5" y="-131.5" font-family="Helvetica,sans-Serif" font-size="10.00">&lt; MxRenderer::ReusableVbo &gt;, 32 &gt;</text>
</a>
</g>
</g>
<!-- Node6&#45;&gt;Node11 -->
<g id="edge12" class="edge">
<title>Node6&#45;&gt;Node11</title>
<path fill="none" stroke="#9a32cd" stroke-dasharray="5,2" d="M211.62,-147.12C228.21,-140.65 247.66,-134.22 266,-131 361.48,-114.22 473.02,-122.35 547.75,-131.7"/>
<polygon fill="#9a32cd" stroke="#9a32cd" points="210.18,-143.93 202.21,-150.91 212.79,-150.42 210.18,-143.93"/>
<text text-anchor="middle" x="319.5" y="-134" font-family="Helvetica,sans-Serif" font-size="10.00"> d</text>
</g>
<!-- Node7 -->
<g id="node7" class="node">
<title>Node7</title>
<g id="a_node7"><a xlink:href="class_mx_ref_counter.html" target="_top" xlink:title=" ">
<polygon fill="none" stroke="black" points="0,-156.5 0,-175.5 78,-175.5 78,-156.5 0,-156.5"/>
<text text-anchor="middle" x="39" y="-163.5" font-family="Helvetica,sans-Serif" font-size="10.00">MxRefCounter</text>
</a>
</g>
</g>
<!-- Node7&#45;&gt;Node6 -->
<g id="edge6" class="edge">
<title>Node7&#45;&gt;Node6</title>
<path fill="none" stroke="midnightblue" d="M88.46,-166C97.03,-166 105.98,-166 114.66,-166"/>
<polygon fill="midnightblue" stroke="midnightblue" points="88.25,-162.5 78.25,-166 88.25,-169.5 88.25,-162.5"/>
</g>
<!-- Node8&#45;&gt;Node5 -->
<g id="edge7" class="edge">
<title>Node8&#45;&gt;Node5</title>
<path fill="none" stroke="orange" stroke-dasharray="5,2" d="M383.26,-177.96C385.87,-178.33 388.46,-178.68 391,-179 453.75,-186.84 526.19,-190.99 575.23,-193.08"/>
<polygon fill="orange" stroke="orange" points="383.55,-174.46 373.14,-176.4 382.49,-181.38 383.55,-174.46"/>
<text text-anchor="middle" x="460.5" y="-193" font-family="Helvetica,sans-Serif" font-size="10.00"> &lt; MxGpuArray &gt;</text>
</g>
<!-- Node8&#45;&gt;Node11 -->
<g id="edge13" class="edge">
<title>Node8&#45;&gt;Node11</title>
<path fill="none" stroke="orange" stroke-dasharray="5,2" d="M376.62,-148.61C381.45,-147.56 386.29,-146.67 391,-146 442.79,-138.69 501.45,-138.26 547.99,-139.75"/>
<polygon fill="orange" stroke="orange" points="375.68,-145.24 366.76,-150.95 377.3,-152.05 375.68,-145.24"/>
<text text-anchor="start" x="391" y="-171" font-family="Helvetica,sans-Serif" font-size="10.00"> &lt; MxRenderer::ReusableVbo,</text>
<text text-anchor="start" x="391" y="-160" font-family="Helvetica,sans-Serif" font-size="10.00"> MxClassInitializer&lt; MxRenderer</text>
<text text-anchor="middle" x="460.5" y="-149" font-family="Helvetica,sans-Serif" font-size="10.00">::ReusableVbo &gt;, 32 &gt;</text>
</g>
<!-- Node9 -->
<g id="node9" class="node">
<title>Node9</title>
<g id="a_node9"><a xlink:href="class_mx_vector.html" target="_top" xlink:title=" ">
<polygon fill="none" stroke="black" points="586,-84.5 586,-103.5 681,-103.5 681,-84.5 586,-84.5"/>
<text text-anchor="middle" x="633.5" y="-91.5" font-family="Helvetica,sans-Serif" font-size="10.00">MxVector&lt; 2, int &gt;</text>
</a>
</g>
</g>
<!-- Node9&#45;&gt;Node1 -->
<g id="edge18" class="edge">
<title>Node9&#45;&gt;Node1</title>
<path fill="none" stroke="#9a32cd" stroke-dasharray="5,2" d="M691.23,-93.66C770.06,-92.8 917.12,-89.74 1042,-79 1047.97,-78.49 1054.27,-77.79 1060.43,-77.03"/>
<polygon fill="#9a32cd" stroke="#9a32cd" points="691,-90.17 681.04,-93.77 691.07,-97.17 691,-90.17"/>
<text text-anchor="middle" x="870.5" y="-93" font-family="Helvetica,sans-Serif" font-size="10.00"> pScreenSize</text>
</g>
<!-- Node9&#45;&gt;Node2 -->
<g id="edge9" class="edge">
<title>Node9&#45;&gt;Node2</title>
<path fill="none" stroke="#9a32cd" stroke-dasharray="5,2" d="M691.15,-105.95C726.02,-114.6 770.98,-128.1 808,-147 826.19,-156.29 845.36,-170.11 857.36,-179.33"/>
<polygon fill="#9a32cd" stroke="#9a32cd" points="691.67,-102.48 681.13,-103.54 690.03,-109.29 691.67,-102.48"/>
<text text-anchor="middle" x="772.5" y="-150" font-family="Helvetica,sans-Serif" font-size="10.00"> pScreenSize</text>
</g>
<!-- Node10 -->
<g id="node10" class="node">
<title>Node10</title>
<g id="a_node10"><a xlink:href="class_mx_vector.html" target="_top" xlink:title=" ">
<polygon fill="none" stroke="black" points="273,-56.5 273,-75.5 366,-75.5 366,-56.5 273,-56.5"/>
<text text-anchor="middle" x="319.5" y="-63.5" font-family="Helvetica,sans-Serif" font-size="10.00">MxVector&lt; N, T &gt;</text>
</a>
</g>
</g>
<!-- Node10&#45;&gt;Node9 -->
<g id="edge10" class="edge">
<title>Node10&#45;&gt;Node9</title>
<path fill="none" stroke="orange" stroke-dasharray="5,2" d="M376.22,-71C436.01,-76.37 529.91,-84.79 585.91,-89.82"/>
<polygon fill="orange" stroke="orange" points="376.47,-67.51 366.2,-70.1 375.85,-74.48 376.47,-67.51"/>
<text text-anchor="middle" x="460.5" y="-87" font-family="Helvetica,sans-Serif" font-size="10.00"> &lt; 2, int &gt;</text>
</g>
<!-- Node11&#45;&gt;Node2 -->
<g id="edge11" class="edge">
<title>Node11&#45;&gt;Node2</title>
<path fill="none" stroke="#9a32cd" stroke-dasharray="5,2" d="M729.44,-160.49C755,-164.91 782.6,-169.92 808,-175 817.23,-176.85 827.2,-179.03 836.37,-181.12"/>
<polygon fill="#9a32cd" stroke="#9a32cd" points="729.83,-157 719.38,-158.76 728.65,-163.9 729.83,-157"/>
<text text-anchor="middle" x="772.5" y="-178" font-family="Helvetica,sans-Serif" font-size="10.00"> pReusableVbos</text>
</g>
<!-- Node12&#45;&gt;Node2 -->
<g id="edge14" class="edge">
<title>Node12&#45;&gt;Node2</title>
<path fill="none" stroke="#9a32cd" stroke-dasharray="5,2" d="M1061.84,-171.83C1055.28,-170.24 1048.49,-168.86 1042,-168 993.98,-161.6 980.79,-160.07 933,-168 919.64,-170.22 905.3,-174.97 893.82,-179.39"/>
<polygon fill="#9a32cd" stroke="#9a32cd" points="1061.34,-175.32 1071.9,-174.47 1063.12,-168.55 1061.34,-175.32"/>
<text text-anchor="middle" x="987.5" y="-171" font-family="Helvetica,sans-Serif" font-size="10.00"> pCurrProgram</text>
</g>
<!-- Node13 -->
<g id="node13" class="node">
<title>Node13</title>
<g id="a_node13"><a xlink:href="class_mx_abstract_atlas.html" target="_top" xlink:title=" ">
<polygon fill="none" stroke="black" points="826,-38.5 826,-57.5 915,-57.5 915,-38.5 826,-38.5"/>
<text text-anchor="middle" x="870.5" y="-45.5" font-family="Helvetica,sans-Serif" font-size="10.00">MxAbstractAtlas</text>
</a>
</g>
</g>
<!-- Node13&#45;&gt;Node1 -->
<g id="edge16" class="edge">
<title>Node13&#45;&gt;Node1</title>
<path fill="none" stroke="#9a32cd" stroke-dasharray="5,2" d="M925.35,-53.4C966.58,-57.53 1022.57,-63.14 1060.15,-66.91"/>
<polygon fill="#9a32cd" stroke="#9a32cd" points="925.51,-49.89 915.21,-52.38 924.81,-56.86 925.51,-49.89"/>
<text text-anchor="middle" x="987.5" y="-67" font-family="Helvetica,sans-Serif" font-size="10.00"> pIconAtlas</text>
</g>
<!-- Node14 -->
<g id="node14" class="node">
<title>Node14</title>
<g id="a_node14"><a xlink:href="class_mx_matrix.html" target="_top" xlink:title=" ">
<polygon fill="none" stroke="black" points="842.5,-0.5 842.5,-19.5 898.5,-19.5 898.5,-0.5 842.5,-0.5"/>
<text text-anchor="middle" x="870.5" y="-7.5" font-family="Helvetica,sans-Serif" font-size="10.00">MxMatrix</text>
</a>
</g>
</g>
<!-- Node14&#45;&gt;Node1 -->
<g id="edge17" class="edge">
<title>Node14&#45;&gt;Node1</title>
<path fill="none" stroke="#9a32cd" stroke-dasharray="5,2" d="M909.04,-12.82C944.19,-16.29 997.76,-23.71 1042,-39 1058.08,-44.56 1075.01,-54.18 1086.59,-61.43"/>
<polygon fill="#9a32cd" stroke="#9a32cd" points="909.04,-9.31 898.76,-11.87 908.39,-16.28 909.04,-9.31"/>
<text text-anchor="middle" x="987.5" y="-42" font-family="Helvetica,sans-Serif" font-size="10.00"> pScreenProjectionMatrix</text>
</g>
</g>
</svg>
