<?xml version="1.0" encoding="UTF-8" standalone="no"?>
<!DOCTYPE svg PUBLIC "-//W3C//DTD SVG 1.1//EN"
 "http://www.w3.org/Graphics/SVG/1.1/DTD/svg11.dtd">
<!-- Generated by graphviz version 2.44.0 ()
 -->
<!-- Title: MxRenderer Pages: 1 -->
<svg width="1085pt" height="235pt"
 viewBox="0.00 0.00 1085.00 235.00" xmlns="http://www.w3.org/2000/svg" xmlns:xlink="http://www.w3.org/1999/xlink">
<g id="graph0" class="graph" transform="scale(1 1) rotate(0) translate(4 231)">
<title>MxRenderer</title>
<!-- Node1 -->
<g id="node1" class="node">
<title>Node1</title>
<g id="a_node1"><a xlink:title="The MxRenderer keeps track of the rendering state and resources.">
<polygon fill="#bfbfbf" stroke="black" points="826,-131.5 826,-150.5 894,-150.5 894,-131.5 826,-131.5"/>
<text text-anchor="middle" x="860" y="-138.5" font-family="Helvetica,sans-Serif" font-size="10.00">MxRenderer</text>
</a>
</g>
</g>
<!-- Node11 -->
<g id="node11" class="node">
<title>Node11</title>
<g id="a_node11"><a xlink:href="class_mx_gpu_program.html" target="_top" xlink:title=" ">
<polygon fill="none" stroke="black" points="993,-131.5 993,-150.5 1077,-150.5 1077,-131.5 993,-131.5"/>
<text text-anchor="middle" x="1035" y="-138.5" font-family="Helvetica,sans-Serif" font-size="10.00">MxGpuProgram</text>
</a>
</g>
</g>
<!-- Node1&#45;&gt;Node11 -->
<g id="edge14" class="edge">
<title>Node1&#45;&gt;Node11</title>
<path fill="none" stroke="#9a32cd" stroke-dasharray="5,2" d="M904.7,-141C931.74,-141 966.25,-141 992.81,-141"/>
<polygon fill="#9a32cd" stroke="#9a32cd" points="904.36,-137.5 894.36,-141 904.36,-144.5 904.36,-137.5"/>
<text text-anchor="middle" x="943.5" y="-144" font-family="Helvetica,sans-Serif" font-size="10.00"> pRenderer</text>
</g>
<!-- Node2 -->
<g id="node2" class="node">
<title>Node2</title>
<g id="a_node2"><a xlink:title=" ">
<polygon fill="none" stroke="#bfbfbf" points="579,-207.5 579,-226.5 688,-226.5 688,-207.5 579,-207.5"/>
<text text-anchor="middle" x="633.5" y="-214.5" font-family="Helvetica,sans-Serif" font-size="10.00">MxOpenGLFunctions</text>
</a>
</g>
</g>
<!-- Node2&#45;&gt;Node1 -->
<g id="edge1" class="edge">
<title>Node2&#45;&gt;Node1</title>
<path fill="none" stroke="midnightblue" d="M698.41,-211.49C732.22,-206.77 773.7,-198.07 808,-182 824.46,-174.29 840.27,-160.2 849.81,-150.72"/>
<polygon fill="midnightblue" stroke="midnightblue" points="697.64,-208.06 688.18,-212.82 698.55,-215 697.64,-208.06"/>
</g>
<!-- Node3 -->
<g id="node3" class="node">
<title>Node3</title>
<g id="a_node3"><a xlink:href="class_mx_texture.html" target="_top" xlink:title=" ">
<polygon fill="none" stroke="black" points="602.5,-169.5 602.5,-188.5 664.5,-188.5 664.5,-169.5 602.5,-169.5"/>
<text text-anchor="middle" x="633.5" y="-176.5" font-family="Helvetica,sans-Serif" font-size="10.00">MxTexture</text>
</a>
</g>
</g>
<!-- Node3&#45;&gt;Node1 -->
<g id="edge2" class="edge">
<title>Node3&#45;&gt;Node1</title>
<path fill="none" stroke="#9a32cd" stroke-dasharray="5,2" d="M674.91,-175.43C710.27,-171.87 762.88,-165.57 808,-156 815.04,-154.51 822.53,-152.53 829.53,-150.51"/>
<polygon fill="#9a32cd" stroke="#9a32cd" points="674.13,-171.98 664.52,-176.44 674.81,-178.95 674.13,-171.98"/>
<text text-anchor="middle" x="772.5" y="-170" font-family="Helvetica,sans-Serif" font-size="10.00"> pTextures</text>
</g>
<!-- Node4 -->
<g id="node4" class="node">
<title>Node4</title>
<g id="a_node4"><a xlink:href="class_mx_list.html" target="_top" xlink:title=" ">
<polygon fill="none" stroke="black" points="575.5,-131.5 575.5,-150.5 691.5,-150.5 691.5,-131.5 575.5,-131.5"/>
<text text-anchor="middle" x="633.5" y="-138.5" font-family="Helvetica,sans-Serif" font-size="10.00">MxList&lt; MxGpuArray &gt;</text>
</a>
</g>
</g>
<!-- Node4&#45;&gt;Node1 -->
<g id="edge3" class="edge">
<title>Node4&#45;&gt;Node1</title>
<path fill="none" stroke="#9a32cd" stroke-dasharray="5,2" d="M701.93,-141C742.9,-141 793.41,-141 825.91,-141"/>
<polygon fill="#9a32cd" stroke="#9a32cd" points="701.73,-137.5 691.73,-141 701.73,-144.5 701.73,-137.5"/>
<text text-anchor="middle" x="772.5" y="-144" font-family="Helvetica,sans-Serif" font-size="10.00"> pBufferViews</text>
</g>
<!-- Node5 -->
<g id="node5" class="node">
<title>Node5</title>
<g id="a_node5"><a xlink:href="struct_mx_list_1_1_data.html" target="_top" xlink:title="these members are public to allow unions">
<polygon fill="none" stroke="black" points="115,-95 115,-125 222,-125 222,-95 115,-95"/>
<text text-anchor="start" x="123" y="-113" font-family="Helvetica,sans-Serif" font-size="10.00">MxList&lt; T, Initializer,</text>
<text text-anchor="middle" x="168.5" y="-102" font-family="Helvetica,sans-Serif" font-size="10.00"> Prealloc &gt;::Data</text>
</a>
</g>
</g>
<!-- Node5&#45;&gt;Node4 -->
<g id="edge4" class="edge">
<title>Node5&#45;&gt;Node4</title>
<path fill="none" stroke="#9a32cd" stroke-dasharray="5,2" d="M231.85,-127.46C243.16,-130.25 254.89,-132.9 266,-135 381.49,-156.79 412.59,-155.14 530,-150 544.72,-149.35 560.6,-148.19 575.36,-146.91"/>
<polygon fill="#9a32cd" stroke="#9a32cd" points="232.6,-124.04 222.05,-124.98 230.89,-130.82 232.6,-124.04"/>
<text text-anchor="middle" x="319.5" y="-153" font-family="Helvetica,sans-Serif" font-size="10.00"> d</text>
</g>
<!-- Node7 -->
<g id="node7" class="node">
<title>Node7</title>
<g id="a_node7"><a xlink:href="class_mx_list.html" target="_top" xlink:title=" ">
<polygon fill="none" stroke="black" points="266,-95 266,-125 373,-125 373,-95 266,-95"/>
<text text-anchor="start" x="274" y="-113" font-family="Helvetica,sans-Serif" font-size="10.00">MxList&lt; T, Initializer,</text>
<text text-anchor="middle" x="319.5" y="-102" font-family="Helvetica,sans-Serif" font-size="10.00"> Prealloc &gt;</text>
</a>
</g>
</g>
<!-- Node5&#45;&gt;Node7 -->
<g id="edge7" class="edge">
<title>Node5&#45;&gt;Node7</title>
<path fill="none" stroke="#9a32cd" stroke-dasharray="5,2" d="M232.21,-110C243.44,-110 255.03,-110 265.94,-110"/>
<polygon fill="#9a32cd" stroke="#9a32cd" points="232.03,-106.5 222.03,-110 232.03,-113.5 232.03,-106.5"/>
<text text-anchor="middle" x="244" y="-113" font-family="Helvetica,sans-Serif" font-size="10.00"> d</text>
</g>
<!-- Node10 -->
<g id="node10" class="node">
<title>Node10</title>
<g id="a_node10"><a xlink:href="class_mx_list.html" target="_top" xlink:title=" ">
<polygon fill="none" stroke="black" points="548,-68.5 548,-109.5 719,-109.5 719,-68.5 548,-68.5"/>
<text text-anchor="start" x="556" y="-97.5" font-family="Helvetica,sans-Serif" font-size="10.00">MxList&lt; MxRenderer</text>
<text text-anchor="start" x="556" y="-86.5" font-family="Helvetica,sans-Serif" font-size="10.00">::ReusableVbo, MxClassInitializer</text>
<text text-anchor="middle" x="633.5" y="-75.5" font-family="Helvetica,sans-Serif" font-size="10.00">&lt; MxRenderer::ReusableVbo &gt;, 32 &gt;</text>
</a>
</g>
</g>
<!-- Node5&#45;&gt;Node10 -->
<g id="edge11" class="edge">
<title>Node5&#45;&gt;Node10</title>
<path fill="none" stroke="#9a32cd" stroke-dasharray="5,2" d="M211.62,-91.12C228.21,-84.65 247.66,-78.22 266,-75 361.48,-58.22 473.02,-66.35 547.75,-75.7"/>
<polygon fill="#9a32cd" stroke="#9a32cd" points="210.18,-87.93 202.21,-94.91 212.79,-94.42 210.18,-87.93"/>
<text text-anchor="middle" x="319.5" y="-78" font-family="Helvetica,sans-Serif" font-size="10.00"> d</text>
</g>
<!-- Node6 -->
<g id="node6" class="node">
<title>Node6</title>
<g id="a_node6"><a xlink:href="class_mx_ref_counter.html" target="_top" xlink:title=" ">
<polygon fill="none" stroke="black" points="0,-100.5 0,-119.5 78,-119.5 78,-100.5 0,-100.5"/>
<text text-anchor="middle" x="39" y="-107.5" font-family="Helvetica,sans-Serif" font-size="10.00">MxRefCounter</text>
</a>
</g>
</g>
<!-- Node6&#45;&gt;Node5 -->
<g id="edge5" class="edge">
<title>Node6&#45;&gt;Node5</title>
<path fill="none" stroke="midnightblue" d="M88.46,-110C97.03,-110 105.98,-110 114.66,-110"/>
<polygon fill="midnightblue" stroke="midnightblue" points="88.25,-106.5 78.25,-110 88.25,-113.5 88.25,-106.5"/>
</g>
<!-- Node7&#45;&gt;Node4 -->
<g id="edge6" class="edge">
<title>Node7&#45;&gt;Node4</title>
<path fill="none" stroke="orange" stroke-dasharray="5,2" d="M383.27,-121.93C385.88,-122.31 388.46,-122.67 391,-123 453.75,-131.1 526.19,-135.9 575.23,-138.48"/>
<polygon fill="orange" stroke="orange" points="383.56,-118.43 373.14,-120.35 382.48,-125.35 383.56,-118.43"/>
<text text-anchor="middle" x="460.5" y="-138" font-family="Helvetica,sans-Serif" font-size="10.00"> &lt; MxGpuArray &gt;</text>
</g>
<!-- Node7&#45;&gt;Node10 -->
<g id="edge12" class="edge">
<title>Node7&#45;&gt;Node10</title>
<path fill="none" stroke="orange" stroke-dasharray="5,2" d="M376.62,-92.61C381.45,-91.56 386.29,-90.67 391,-90 442.79,-82.69 501.45,-82.26 547.99,-83.75"/>
<polygon fill="orange" stroke="orange" points="375.68,-89.24 366.76,-94.95 377.3,-96.05 375.68,-89.24"/>
<text text-anchor="start" x="391" y="-115" font-family="Helvetica,sans-Serif" font-size="10.00"> &lt; MxRenderer::ReusableVbo,</text>
<text text-anchor="start" x="391" y="-104" font-family="Helvetica,sans-Serif" font-size="10.00"> MxClassInitializer&lt; MxRenderer</text>
<text text-anchor="middle" x="460.5" y="-93" font-family="Helvetica,sans-Serif" font-size="10.00">::ReusableVbo &gt;, 32 &gt;</text>
</g>
<!-- Node8 -->
<g id="node8" class="node">
<title>Node8</title>
<g id="a_node8"><a xlink:href="class_mx_vector.html" target="_top" xlink:title=" ">
<polygon fill="none" stroke="black" points="586,-15.5 586,-34.5 681,-34.5 681,-15.5 586,-15.5"/>
<text text-anchor="middle" x="633.5" y="-22.5" font-family="Helvetica,sans-Serif" font-size="10.00">MxVector&lt; 2, int &gt;</text>
</a>
</g>
</g>
<!-- Node8&#45;&gt;Node1 -->
<g id="edge8" class="edge">
<title>Node8&#45;&gt;Node1</title>
<path fill="none" stroke="#9a32cd" stroke-dasharray="5,2" d="M677.6,-37.69C713.98,-49.47 766.6,-69.09 808,-95 824.58,-105.37 840.85,-121.33 850.4,-131.47"/>
<polygon fill="#9a32cd" stroke="#9a32cd" points="678.38,-34.26 667.79,-34.57 676.26,-40.94 678.38,-34.26"/>
<text text-anchor="middle" x="772.5" y="-98" font-family="Helvetica,sans-Serif" font-size="10.00"> pScreenSize</text>
</g>
<!-- Node9 -->
<g id="node9" class="node">
<title>Node9</title>
<g id="a_node9"><a xlink:href="class_mx_vector.html" target="_top" xlink:title=" ">
<polygon fill="none" stroke="black" points="273,-0.5 273,-19.5 366,-19.5 366,-0.5 273,-0.5"/>
<text text-anchor="middle" x="319.5" y="-7.5" font-family="Helvetica,sans-Serif" font-size="10.00">MxVector&lt; N, T &gt;</text>
</a>
</g>
</g>
<!-- Node9&#45;&gt;Node8 -->
<g id="edge9" class="edge">
<title>Node9&#45;&gt;Node8</title>
<path fill="none" stroke="orange" stroke-dasharray="5,2" d="M376.22,-12.68C436.01,-15.55 529.91,-20.07 585.91,-22.76"/>
<polygon fill="orange" stroke="orange" points="376.36,-9.18 366.2,-12.2 376.02,-16.17 376.36,-9.18"/>
<text text-anchor="middle" x="460.5" y="-23" font-family="Helvetica,sans-Serif" font-size="10.00"> &lt; 2, int &gt;</text>
</g>
<!-- Node10&#45;&gt;Node1 -->
<g id="edge10" class="edge">
<title>Node10&#45;&gt;Node1</title>
<path fill="none" stroke="#9a32cd" stroke-dasharray="5,2" d="M729.18,-107.83C754.85,-113.31 782.57,-119.56 808,-126 814.53,-127.65 821.48,-129.58 828.09,-131.5"/>
<polygon fill="#9a32cd" stroke="#9a32cd" points="729.58,-104.34 719.07,-105.69 728.13,-111.19 729.58,-104.34"/>
<text text-anchor="middle" x="772.5" y="-129" font-family="Helvetica,sans-Serif" font-size="10.00"> pReusableVbos</text>
</g>
<!-- Node11&#45;&gt;Node1 -->
<g id="edge13" class="edge">
<title>Node11&#45;&gt;Node1</title>
<path fill="none" stroke="#9a32cd" stroke-dasharray="5,2" d="M994.84,-128.83C988.28,-127.24 981.49,-125.86 975,-125 947.25,-121.3 939.68,-120.76 912,-125 903.38,-126.32 894.21,-128.83 886.06,-131.47"/>
<polygon fill="#9a32cd" stroke="#9a32cd" points="994.34,-132.32 1004.9,-131.47 996.12,-125.55 994.34,-132.32"/>
<text text-anchor="middle" x="943.5" y="-128" font-family="Helvetica,sans-Serif" font-size="10.00"> pCurrProgram</text>
</g>
</g>
</svg>
