<?xml version="1.0" encoding="UTF-8" standalone="no"?>
<!DOCTYPE svg PUBLIC "-//W3C//DTD SVG 1.1//EN"
 "http://www.w3.org/Graphics/SVG/1.1/DTD/svg11.dtd">
<!-- Generated by graphviz version 2.44.0 ()
 -->
<!-- Title: MxLineEdit Pages: 1 -->
<svg width="1372pt" height="429pt"
 viewBox="0.00 0.00 1372.00 429.00" xmlns="http://www.w3.org/2000/svg" xmlns:xlink="http://www.w3.org/1999/xlink">
<g id="graph0" class="graph" transform="scale(1 1) rotate(0) translate(4 425)">
<title>MxLineEdit</title>
<!-- Node1 -->
<g id="node1" class="node">
<title>Node1</title>
<g id="a_node1"><a xlink:title="Widget for editing one&#45;line of text.">
<polygon fill="#bfbfbf" stroke="black" points="1130,-347.5 1130,-366.5 1195,-366.5 1195,-347.5 1130,-347.5"/>
<text text-anchor="middle" x="1162.5" y="-354.5" font-family="Helvetica,sans-Serif" font-size="10.00">MxLineEdit</text>
</a>
</g>
</g>
<!-- Node2 -->
<g id="node2" class="node">
<title>Node2</title>
<g id="a_node2"><a xlink:href="class_mx_widget.html" target="_top" xlink:title=" ">
<polygon fill="none" stroke="black" points="883,-257.5 883,-276.5 942,-276.5 942,-257.5 883,-257.5"/>
<text text-anchor="middle" x="912.5" y="-264.5" font-family="Helvetica,sans-Serif" font-size="10.00">MxWidget</text>
</a>
</g>
</g>
<!-- Node2&#45;&gt;Node1 -->
<g id="edge1" class="edge">
<title>Node2&#45;&gt;Node1</title>
<path fill="none" stroke="midnightblue" d="M940.37,-281.25C950.99,-286.58 963.4,-292.44 975,-297 1030.34,-318.77 1046.55,-317.28 1103,-336 1113.75,-339.57 1125.53,-343.74 1135.68,-347.42"/>
<polygon fill="midnightblue" stroke="midnightblue" points="941.69,-278 931.19,-276.56 938.5,-284.23 941.69,-278"/>
</g>
<!-- Node2&#45;&gt;Node2 -->
<g id="edge4" class="edge">
<title>Node2&#45;&gt;Node2</title>
<path fill="none" stroke="#9a32cd" stroke-dasharray="5,2" d="M891.02,-286.4C892.45,-291.31 899.61,-295 912.5,-295 933.12,-295 939.08,-285.57 930.38,-276.76"/>
<polygon fill="#9a32cd" stroke="#9a32cd" points="894.4,-287.35 894.62,-276.76 887.84,-284.9 894.4,-287.35"/>
<text text-anchor="middle" x="912.5" y="-298" font-family="Helvetica,sans-Serif" font-size="10.00"> pParent</text>
</g>
<!-- Node5 -->
<g id="node5" class="node">
<title>Node5</title>
<g id="a_node5"><a xlink:href="class_mx_application.html" target="_top" xlink:title=" ">
<polygon fill="none" stroke="black" points="1287,-205.5 1287,-224.5 1364,-224.5 1364,-205.5 1287,-205.5"/>
<text text-anchor="middle" x="1325.5" y="-212.5" font-family="Helvetica,sans-Serif" font-size="10.00">MxApplication</text>
</a>
</g>
</g>
<!-- Node2&#45;&gt;Node5 -->
<g id="edge6" class="edge">
<title>Node2&#45;&gt;Node5</title>
<path fill="none" stroke="#9a32cd" stroke-dasharray="5,2" d="M952.41,-269.04C1008.48,-271.21 1115.02,-272.49 1204,-257 1233.42,-251.88 1240.84,-249.94 1269,-240 1281.36,-235.64 1294.76,-229.63 1305.3,-224.6"/>
<polygon fill="#9a32cd" stroke="#9a32cd" points="952.36,-265.53 942.22,-268.61 952.06,-272.52 952.36,-265.53"/>
<text text-anchor="middle" x="1162.5" y="-270" font-family="Helvetica,sans-Serif" font-size="10.00"> pWidget</text>
</g>
<!-- Node3 -->
<g id="node3" class="node">
<title>Node3</title>
<g id="a_node3"><a xlink:href="class_mx_vector.html" target="_top" xlink:title=" ">
<polygon fill="none" stroke="black" points="586,-250.5 586,-269.5 689,-269.5 689,-250.5 586,-250.5"/>
<text text-anchor="middle" x="637.5" y="-257.5" font-family="Helvetica,sans-Serif" font-size="10.00">MxVector&lt; 2, float &gt;</text>
</a>
</g>
</g>
<!-- Node3&#45;&gt;Node2 -->
<g id="edge2" class="edge">
<title>Node3&#45;&gt;Node2</title>
<path fill="none" stroke="#9a32cd" stroke-dasharray="5,2" d="M699.21,-261.56C756.39,-263.02 839.54,-265.15 882.85,-266.27"/>
<polygon fill="#9a32cd" stroke="#9a32cd" points="699.3,-258.06 689.21,-261.3 699.12,-265.06 699.3,-258.06"/>
<text text-anchor="middle" x="795.5" y="-280" font-family="Helvetica,sans-Serif" font-size="10.00"> pPos</text>
<text text-anchor="middle" x="795.5" y="-269" font-family="Helvetica,sans-Serif" font-size="10.00">pSize</text>
</g>
<!-- Node18 -->
<g id="node18" class="node">
<title>Node18</title>
<g id="a_node18"><a xlink:href="class_mx_painter.html" target="_top" xlink:title="Holder to the different painters.">
<polygon fill="none" stroke="black" points="1009,-193.5 1009,-212.5 1069,-212.5 1069,-193.5 1009,-193.5"/>
<text text-anchor="middle" x="1039" y="-200.5" font-family="Helvetica,sans-Serif" font-size="10.00">MxPainter</text>
</a>
</g>
</g>
<!-- Node3&#45;&gt;Node18 -->
<g id="edge22" class="edge">
<title>Node3&#45;&gt;Node18</title>
<path fill="none" stroke="#9a32cd" stroke-dasharray="5,2" d="M699.12,-251.35C786.33,-238.91 943.86,-216.43 1008.8,-207.17"/>
<polygon fill="#9a32cd" stroke="#9a32cd" points="698.5,-247.9 689.1,-252.78 699.49,-254.83 698.5,-247.9"/>
<text text-anchor="middle" x="795.5" y="-248" font-family="Helvetica,sans-Serif" font-size="10.00"> pTranslation</text>
</g>
<!-- Node4 -->
<g id="node4" class="node">
<title>Node4</title>
<g id="a_node4"><a xlink:href="class_mx_vector.html" target="_top" xlink:title=" ">
<polygon fill="none" stroke="black" points="275,-60.5 275,-79.5 368,-79.5 368,-60.5 275,-60.5"/>
<text text-anchor="middle" x="321.5" y="-67.5" font-family="Helvetica,sans-Serif" font-size="10.00">MxVector&lt; N, T &gt;</text>
</a>
</g>
</g>
<!-- Node4&#45;&gt;Node3 -->
<g id="edge3" class="edge">
<title>Node4&#45;&gt;Node3</title>
<path fill="none" stroke="orange" stroke-dasharray="5,2" d="M348.56,-85.18C358.99,-92.57 370.14,-102.38 377,-114 400.4,-153.65 362.54,-183.36 395,-216 408.32,-229.39 518.97,-245.33 585.78,-253.87"/>
<polygon fill="orange" stroke="orange" points="350.35,-82.16 340.08,-79.56 346.48,-88 350.35,-82.16"/>
<text text-anchor="middle" x="464.5" y="-250" font-family="Helvetica,sans-Serif" font-size="10.00"> &lt; 2, float &gt;</text>
</g>
<!-- Node11 -->
<g id="node11" class="node">
<title>Node11</title>
<g id="a_node11"><a xlink:href="class_mx_vector.html" target="_top" xlink:title=" ">
<polygon fill="none" stroke="black" points="590,-38.5 590,-57.5 685,-57.5 685,-38.5 590,-38.5"/>
<text text-anchor="middle" x="637.5" y="-45.5" font-family="Helvetica,sans-Serif" font-size="10.00">MxVector&lt; 2, int &gt;</text>
</a>
</g>
</g>
<!-- Node4&#45;&gt;Node11 -->
<g id="edge13" class="edge">
<title>Node4&#45;&gt;Node11</title>
<path fill="none" stroke="orange" stroke-dasharray="5,2" d="M378.25,-66.09C438.45,-61.88 533.31,-55.23 589.76,-51.27"/>
<polygon fill="orange" stroke="orange" points="377.89,-62.61 368.16,-66.8 378.38,-69.59 377.89,-62.61"/>
<text text-anchor="middle" x="464.5" y="-68" font-family="Helvetica,sans-Serif" font-size="10.00"> &lt; 2, int &gt;</text>
</g>
<!-- Node5&#45;&gt;Node2 -->
<g id="edge5" class="edge">
<title>Node5&#45;&gt;Node2</title>
<path fill="none" stroke="#9a32cd" stroke-dasharray="5,2" d="M1276.75,-221.95C1274.13,-222.31 1271.53,-222.66 1269,-223 1147.57,-239.26 1002.51,-256.55 942.09,-263.66"/>
<polygon fill="#9a32cd" stroke="#9a32cd" points="1277.48,-225.38 1286.9,-220.52 1276.51,-218.44 1277.48,-225.38"/>
<text text-anchor="middle" x="1162.5" y="-245" font-family="Helvetica,sans-Serif" font-size="10.00"> sApplication</text>
</g>
<!-- Node6 -->
<g id="node6" class="node">
<title>Node6</title>
<g id="a_node6"><a xlink:href="class_mx_gui_renderer.html" target="_top" xlink:title=" ">
<polygon fill="none" stroke="black" points="1121,-136.5 1121,-155.5 1204,-155.5 1204,-136.5 1121,-136.5"/>
<text text-anchor="middle" x="1162.5" y="-143.5" font-family="Helvetica,sans-Serif" font-size="10.00">MxGuiRenderer</text>
</a>
</g>
</g>
<!-- Node6&#45;&gt;Node5 -->
<g id="edge7" class="edge">
<title>Node6&#45;&gt;Node5</title>
<path fill="none" stroke="#9a32cd" stroke-dasharray="5,2" d="M1214.17,-150.68C1232.15,-153.72 1252.09,-158.73 1269,-167 1288.23,-176.4 1306.12,-194.13 1316.15,-205.22"/>
<polygon fill="#9a32cd" stroke="#9a32cd" points="1214.56,-147.2 1204.14,-149.15 1213.5,-154.12 1214.56,-147.2"/>
<text text-anchor="middle" x="1245.5" y="-170" font-family="Helvetica,sans-Serif" font-size="10.00"> pRenderer</text>
</g>
<!-- Node7 -->
<g id="node7" class="node">
<title>Node7</title>
<g id="a_node7"><a xlink:href="class_mx_renderer.html" target="_top" xlink:title=" ">
<polygon fill="none" stroke="black" points="878.5,-113.5 878.5,-132.5 946.5,-132.5 946.5,-113.5 878.5,-113.5"/>
<text text-anchor="middle" x="912.5" y="-120.5" font-family="Helvetica,sans-Serif" font-size="10.00">MxRenderer</text>
</a>
</g>
</g>
<!-- Node7&#45;&gt;Node6 -->
<g id="edge8" class="edge">
<title>Node7&#45;&gt;Node6</title>
<path fill="none" stroke="midnightblue" d="M956.68,-127C1002.84,-131.29 1075.46,-138.02 1120.68,-142.21"/>
<polygon fill="midnightblue" stroke="midnightblue" points="956.97,-123.52 946.69,-126.08 956.32,-130.49 956.97,-123.52"/>
</g>
<!-- Node8 -->
<g id="node8" class="node">
<title>Node8</title>
<g id="a_node8"><a xlink:title=" ">
<polygon fill="none" stroke="#bfbfbf" points="583,-174.5 583,-193.5 692,-193.5 692,-174.5 583,-174.5"/>
<text text-anchor="middle" x="637.5" y="-181.5" font-family="Helvetica,sans-Serif" font-size="10.00">MxOpenGLFunctions</text>
</a>
</g>
</g>
<!-- Node8&#45;&gt;Node7 -->
<g id="edge9" class="edge">
<title>Node8&#45;&gt;Node7</title>
<path fill="none" stroke="midnightblue" d="M702.01,-175.64C744.36,-169.33 801.04,-159.44 850,-146 863.19,-142.38 877.53,-137.1 889.04,-132.51"/>
<polygon fill="midnightblue" stroke="midnightblue" points="701.5,-172.18 692.11,-177.09 702.52,-179.11 701.5,-172.18"/>
</g>
<!-- Node9 -->
<g id="node9" class="node">
<title>Node9</title>
<g id="a_node9"><a xlink:href="struct_mx_renderer_1_1_viewport.html" target="_top" xlink:title=" ">
<polygon fill="none" stroke="black" points="582,-76.5 582,-95.5 693,-95.5 693,-76.5 582,-76.5"/>
<text text-anchor="middle" x="637.5" y="-83.5" font-family="Helvetica,sans-Serif" font-size="10.00">MxRenderer::Viewport</text>
</a>
</g>
</g>
<!-- Node9&#45;&gt;Node7 -->
<g id="edge10" class="edge">
<title>Node9&#45;&gt;Node7</title>
<path fill="none" stroke="#9a32cd" stroke-dasharray="5,2" d="M703.51,-92.41C745.43,-96.86 801.07,-103.34 850,-111 859.24,-112.45 869.22,-114.27 878.39,-116.07"/>
<polygon fill="#9a32cd" stroke="#9a32cd" points="703.74,-88.91 693.43,-91.35 703.01,-95.88 703.74,-88.91"/>
<text text-anchor="middle" x="795.5" y="-114" font-family="Helvetica,sans-Serif" font-size="10.00"> pViewport</text>
</g>
<!-- Node10 -->
<g id="node10" class="node">
<title>Node10</title>
<g id="a_node10"><a xlink:href="class_mx_matrix.html" target="_top" xlink:title=" ">
<polygon fill="none" stroke="black" points="609.5,-0.5 609.5,-19.5 665.5,-19.5 665.5,-0.5 609.5,-0.5"/>
<text text-anchor="middle" x="637.5" y="-7.5" font-family="Helvetica,sans-Serif" font-size="10.00">MxMatrix</text>
</a>
</g>
</g>
<!-- Node10&#45;&gt;Node7 -->
<g id="edge11" class="edge">
<title>Node10&#45;&gt;Node7</title>
<path fill="none" stroke="#9a32cd" stroke-dasharray="5,2" d="M675.78,-7.49C720.37,-6.24 795.75,-9.79 850,-42 879,-59.22 898.96,-95.83 907.23,-113.32"/>
<polygon fill="#9a32cd" stroke="#9a32cd" points="675.54,-4 665.68,-7.88 675.81,-10.99 675.54,-4"/>
<text text-anchor="middle" x="795.5" y="-45" font-family="Helvetica,sans-Serif" font-size="10.00"> pScreenProjectionMatrix</text>
</g>
<!-- Node11&#45;&gt;Node7 -->
<g id="edge12" class="edge">
<title>Node11&#45;&gt;Node7</title>
<path fill="none" stroke="#9a32cd" stroke-dasharray="5,2" d="M695.45,-51.06C739.01,-54.9 799.89,-63.55 850,-83 869,-90.38 888.27,-104.16 900.06,-113.46"/>
<polygon fill="#9a32cd" stroke="#9a32cd" points="695.58,-47.56 685.33,-50.23 695.01,-54.54 695.58,-47.56"/>
<text text-anchor="middle" x="795.5" y="-86" font-family="Helvetica,sans-Serif" font-size="10.00"> pScreenSize</text>
</g>
<!-- Node12 -->
<g id="node12" class="node">
<title>Node12</title>
<g id="a_node12"><a xlink:href="class_mx_list.html" target="_top" xlink:title=" ">
<polygon fill="none" stroke="black" points="552,-114.5 552,-155.5 723,-155.5 723,-114.5 552,-114.5"/>
<text text-anchor="start" x="560" y="-143.5" font-family="Helvetica,sans-Serif" font-size="10.00">MxList&lt; MxRenderer</text>
<text text-anchor="start" x="560" y="-132.5" font-family="Helvetica,sans-Serif" font-size="10.00">::ReusableVbo, MxClassInitializer</text>
<text text-anchor="middle" x="637.5" y="-121.5" font-family="Helvetica,sans-Serif" font-size="10.00">&lt; MxRenderer::ReusableVbo &gt;, 32 &gt;</text>
</a>
</g>
</g>
<!-- Node12&#45;&gt;Node7 -->
<g id="edge14" class="edge">
<title>Node12&#45;&gt;Node7</title>
<path fill="none" stroke="#9a32cd" stroke-dasharray="5,2" d="M733.29,-130.83C783.68,-128.62 842.44,-126.04 878.3,-124.46"/>
<polygon fill="#9a32cd" stroke="#9a32cd" points="732.85,-127.35 723.01,-131.29 733.15,-134.34 732.85,-127.35"/>
<text text-anchor="middle" x="795.5" y="-134" font-family="Helvetica,sans-Serif" font-size="10.00"> pReusableVbos</text>
</g>
<!-- Node13 -->
<g id="node13" class="node">
<title>Node13</title>
<g id="a_node13"><a xlink:href="struct_mx_list_1_1_data.html" target="_top" xlink:title="these members are public to allow unions">
<polygon fill="none" stroke="black" points="115,-280 115,-310 222,-310 222,-280 115,-280"/>
<text text-anchor="start" x="123" y="-298" font-family="Helvetica,sans-Serif" font-size="10.00">MxList&lt; T, Initializer,</text>
<text text-anchor="middle" x="168.5" y="-287" font-family="Helvetica,sans-Serif" font-size="10.00"> Prealloc &gt;::Data</text>
</a>
</g>
</g>
<!-- Node13&#45;&gt;Node12 -->
<g id="edge15" class="edge">
<title>Node13&#45;&gt;Node12</title>
<path fill="none" stroke="#9a32cd" stroke-dasharray="5,2" d="M193.65,-273.12C232.64,-239.35 313.37,-175.77 395,-150 445.47,-134.07 504.77,-130.18 551.97,-130.35"/>
<polygon fill="#9a32cd" stroke="#9a32cd" points="191.19,-270.62 185.98,-279.84 195.8,-275.88 191.19,-270.62"/>
<text text-anchor="middle" x="321.5" y="-220" font-family="Helvetica,sans-Serif" font-size="10.00"> d</text>
</g>
<!-- Node15 -->
<g id="node15" class="node">
<title>Node15</title>
<g id="a_node15"><a xlink:href="class_mx_list.html" target="_top" xlink:title=" ">
<polygon fill="none" stroke="black" points="268,-250 268,-280 375,-280 375,-250 268,-250"/>
<text text-anchor="start" x="276" y="-268" font-family="Helvetica,sans-Serif" font-size="10.00">MxList&lt; T, Initializer,</text>
<text text-anchor="middle" x="321.5" y="-257" font-family="Helvetica,sans-Serif" font-size="10.00"> Prealloc &gt;</text>
</a>
</g>
</g>
<!-- Node13&#45;&gt;Node15 -->
<g id="edge18" class="edge">
<title>Node13&#45;&gt;Node15</title>
<path fill="none" stroke="#9a32cd" stroke-dasharray="5,2" d="M232.18,-282.55C244.08,-280.18 256.42,-277.73 267.97,-275.44"/>
<polygon fill="#9a32cd" stroke="#9a32cd" points="231.44,-279.13 222.31,-284.51 232.8,-285.99 231.44,-279.13"/>
<text text-anchor="middle" x="244" y="-284" font-family="Helvetica,sans-Serif" font-size="10.00"> d</text>
</g>
<!-- Node23 -->
<g id="node23" class="node">
<title>Node23</title>
<g id="a_node23"><a xlink:href="class_mx_list.html" target="_top" xlink:title=" ">
<polygon fill="none" stroke="black" points="564.5,-302 564.5,-332 710.5,-332 710.5,-302 564.5,-302"/>
<text text-anchor="start" x="572.5" y="-320" font-family="Helvetica,sans-Serif" font-size="10.00">MxList&lt; float, MxPodInitializer</text>
<text text-anchor="middle" x="637.5" y="-309" font-family="Helvetica,sans-Serif" font-size="10.00">&lt; float &gt; &gt;</text>
</a>
</g>
</g>
<!-- Node13&#45;&gt;Node23 -->
<g id="edge30" class="edge">
<title>Node13&#45;&gt;Node23</title>
<path fill="none" stroke="#9a32cd" stroke-dasharray="5,2" d="M232.33,-297.96C318.57,-302.02 473.24,-309.31 564.19,-313.59"/>
<polygon fill="#9a32cd" stroke="#9a32cd" points="232.32,-294.46 222.16,-297.48 231.99,-301.45 232.32,-294.46"/>
<text text-anchor="middle" x="321.5" y="-308" font-family="Helvetica,sans-Serif" font-size="10.00"> d</text>
</g>
<!-- Node14 -->
<g id="node14" class="node">
<title>Node14</title>
<g id="a_node14"><a xlink:href="class_mx_ref_counter.html" target="_top" xlink:title=" ">
<polygon fill="none" stroke="black" points="0,-309.5 0,-328.5 78,-328.5 78,-309.5 0,-309.5"/>
<text text-anchor="middle" x="39" y="-316.5" font-family="Helvetica,sans-Serif" font-size="10.00">MxRefCounter</text>
</a>
</g>
</g>
<!-- Node14&#45;&gt;Node13 -->
<g id="edge16" class="edge">
<title>Node14&#45;&gt;Node13</title>
<path fill="none" stroke="midnightblue" d="M88.18,-309.93C96.83,-308.3 105.88,-306.6 114.66,-304.95"/>
<polygon fill="midnightblue" stroke="midnightblue" points="87.43,-306.51 78.25,-311.8 88.73,-313.39 87.43,-306.51"/>
</g>
<!-- Node20 -->
<g id="node20" class="node">
<title>Node20</title>
<g id="a_node20"><a xlink:href="struct_mx_generic_string_1_1_data.html" target="_top" xlink:title=" ">
<polygon fill="none" stroke="black" points="117,-350 117,-380 220,-380 220,-350 117,-350"/>
<text text-anchor="start" x="125" y="-368" font-family="Helvetica,sans-Serif" font-size="10.00">MxGenericString&lt; T</text>
<text text-anchor="middle" x="168.5" y="-357" font-family="Helvetica,sans-Serif" font-size="10.00"> &gt;::Data</text>
</a>
</g>
</g>
<!-- Node14&#45;&gt;Node20 -->
<g id="edge25" class="edge">
<title>Node14&#45;&gt;Node20</title>
<path fill="none" stroke="midnightblue" d="M76.1,-332.03C91.5,-337.58 109.57,-344.1 125.56,-349.87"/>
<polygon fill="midnightblue" stroke="midnightblue" points="77.01,-328.63 66.42,-328.53 74.64,-335.22 77.01,-328.63"/>
</g>
<!-- Node15&#45;&gt;Node12 -->
<g id="edge17" class="edge">
<title>Node15&#45;&gt;Node12</title>
<path fill="none" stroke="orange" stroke-dasharray="5,2" d="M336.95,-241.52C349.82,-222.69 370.39,-197.14 395,-183 408.76,-175.09 487.82,-160.21 551.79,-149.1"/>
<polygon fill="orange" stroke="orange" points="334.02,-239.62 331.43,-249.9 339.86,-243.47 334.02,-239.62"/>
<text text-anchor="start" x="395" y="-208" font-family="Helvetica,sans-Serif" font-size="10.00"> &lt; MxRenderer::ReusableVbo,</text>
<text text-anchor="start" x="395" y="-197" font-family="Helvetica,sans-Serif" font-size="10.00"> MxClassInitializer&lt; MxRenderer</text>
<text text-anchor="middle" x="464.5" y="-186" font-family="Helvetica,sans-Serif" font-size="10.00">::ReusableVbo &gt;, 32 &gt;</text>
</g>
<!-- Node15&#45;&gt;Node23 -->
<g id="edge31" class="edge">
<title>Node15&#45;&gt;Node23</title>
<path fill="none" stroke="orange" stroke-dasharray="5,2" d="M385.36,-265.46C427.75,-266.81 484.72,-270.67 534,-281 556.89,-285.8 581.65,-294.39 601.11,-301.98"/>
<polygon fill="orange" stroke="orange" points="385.28,-261.95 375.19,-265.17 385.08,-268.95 385.28,-261.95"/>
<text text-anchor="start" x="413" y="-295" font-family="Helvetica,sans-Serif" font-size="10.00"> &lt; float, MxPodInitializer</text>
<text text-anchor="middle" x="464.5" y="-284" font-family="Helvetica,sans-Serif" font-size="10.00">&lt; float &gt; &gt;</text>
</g>
<!-- Node16 -->
<g id="node16" class="node">
<title>Node16</title>
<g id="a_node16"><a xlink:href="class_mx_abstract_atlas.html" target="_top" xlink:title=" ">
<polygon fill="none" stroke="black" points="868,-159.5 868,-178.5 957,-178.5 957,-159.5 868,-159.5"/>
<text text-anchor="middle" x="912.5" y="-166.5" font-family="Helvetica,sans-Serif" font-size="10.00">MxAbstractAtlas</text>
</a>
</g>
</g>
<!-- Node16&#45;&gt;Node6 -->
<g id="edge19" class="edge">
<title>Node16&#45;&gt;Node6</title>
<path fill="none" stroke="#9a32cd" stroke-dasharray="5,2" d="M967.37,-164C1013.45,-159.73 1078.77,-153.67 1120.64,-149.79"/>
<polygon fill="#9a32cd" stroke="#9a32cd" points="966.9,-160.53 957.27,-164.94 967.55,-167.5 966.9,-160.53"/>
<text text-anchor="middle" x="1039" y="-166" font-family="Helvetica,sans-Serif" font-size="10.00"> pIconAtlas</text>
</g>
<!-- Node17 -->
<g id="node17" class="node">
<title>Node17</title>
<g id="a_node17"><a xlink:href="class_mx_texture.html" target="_top" xlink:title=" ">
<polygon fill="none" stroke="black" points="606.5,-212.5 606.5,-231.5 668.5,-231.5 668.5,-212.5 606.5,-212.5"/>
<text text-anchor="middle" x="637.5" y="-219.5" font-family="Helvetica,sans-Serif" font-size="10.00">MxTexture</text>
</a>
</g>
</g>
<!-- Node17&#45;&gt;Node16 -->
<g id="edge20" class="edge">
<title>Node17&#45;&gt;Node16</title>
<path fill="none" stroke="#9a32cd" stroke-dasharray="5,2" d="M678.46,-214.3C692.65,-211.23 708.65,-207.38 723,-203 731.21,-200.5 732.71,-198.24 741,-196 783.38,-184.54 833.1,-177.36 867.87,-173.31"/>
<polygon fill="#9a32cd" stroke="#9a32cd" points="677.57,-210.91 668.51,-216.39 679.01,-217.76 677.57,-210.91"/>
<text text-anchor="middle" x="795.5" y="-199" font-family="Helvetica,sans-Serif" font-size="10.00"> pTexture</text>
</g>
<!-- Node18&#45;&gt;Node5 -->
<g id="edge21" class="edge">
<title>Node18&#45;&gt;Node5</title>
<path fill="none" stroke="#9a32cd" stroke-dasharray="5,2" d="M1079.26,-203.1C1112.5,-203.33 1161.39,-204.02 1204,-206 1231.77,-207.29 1263.07,-209.66 1286.81,-211.64"/>
<polygon fill="#9a32cd" stroke="#9a32cd" points="1079.07,-199.6 1069.05,-203.04 1079.03,-206.6 1079.07,-199.6"/>
<text text-anchor="middle" x="1162.5" y="-209" font-family="Helvetica,sans-Serif" font-size="10.00"> pPainterBuffer</text>
</g>
<!-- Node19 -->
<g id="node19" class="node">
<title>Node19</title>
<g id="a_node19"><a xlink:href="class_mx_generic_string.html" target="_top" xlink:title=" ">
<polygon fill="none" stroke="black" points="566,-401.5 566,-420.5 709,-420.5 709,-401.5 566,-401.5"/>
<text text-anchor="middle" x="637.5" y="-408.5" font-family="Helvetica,sans-Serif" font-size="10.00">MxGenericString&lt; char32_t &gt;</text>
</a>
</g>
</g>
<!-- Node19&#45;&gt;Node1 -->
<g id="edge23" class="edge">
<title>Node19&#45;&gt;Node1</title>
<path fill="none" stroke="#9a32cd" stroke-dasharray="5,2" d="M719.42,-413.64C813.01,-414.9 971.13,-411.45 1103,-381 1116.8,-377.81 1131.54,-371.74 1142.78,-366.51"/>
<polygon fill="#9a32cd" stroke="#9a32cd" points="719.22,-410.14 709.17,-413.48 719.11,-417.14 719.22,-410.14"/>
<text text-anchor="middle" x="912.5" y="-413" font-family="Helvetica,sans-Serif" font-size="10.00"> pText</text>
</g>
<!-- Node20&#45;&gt;Node19 -->
<g id="edge24" class="edge">
<title>Node20&#45;&gt;Node19</title>
<path fill="none" stroke="#9a32cd" stroke-dasharray="5,2" d="M230.52,-378.31C242.25,-380.5 254.47,-382.53 266,-384 369.96,-397.23 491.23,-404.54 565.94,-408.12"/>
<polygon fill="#9a32cd" stroke="#9a32cd" points="230.85,-374.81 220.37,-376.36 229.53,-381.69 230.85,-374.81"/>
<text text-anchor="middle" x="321.5" y="-398" font-family="Helvetica,sans-Serif" font-size="10.00"> d</text>
</g>
<!-- Node21 -->
<g id="node21" class="node">
<title>Node21</title>
<g id="a_node21"><a xlink:href="class_mx_generic_string.html" target="_top" xlink:title=" ">
<polygon fill="none" stroke="black" points="266,-355.5 266,-374.5 377,-374.5 377,-355.5 266,-355.5"/>
<text text-anchor="middle" x="321.5" y="-362.5" font-family="Helvetica,sans-Serif" font-size="10.00">MxGenericString&lt; T &gt;</text>
</a>
</g>
</g>
<!-- Node20&#45;&gt;Node21 -->
<g id="edge27" class="edge">
<title>Node20&#45;&gt;Node21</title>
<path fill="none" stroke="#9a32cd" stroke-dasharray="5,2" d="M230.34,-365C242.07,-365 254.28,-365 265.79,-365"/>
<polygon fill="#9a32cd" stroke="#9a32cd" points="230.2,-361.5 220.2,-365 230.2,-368.5 230.2,-361.5"/>
<text text-anchor="middle" x="244" y="-368" font-family="Helvetica,sans-Serif" font-size="10.00"> d</text>
</g>
<!-- Node21&#45;&gt;Node19 -->
<g id="edge26" class="edge">
<title>Node21&#45;&gt;Node19</title>
<path fill="none" stroke="orange" stroke-dasharray="5,2" d="M387.22,-369.06C429.25,-372.28 485.11,-377.65 534,-386 557.11,-389.95 582.74,-396.2 602.58,-401.46"/>
<polygon fill="orange" stroke="orange" points="387.35,-365.56 377.12,-368.31 386.83,-372.54 387.35,-365.56"/>
<text text-anchor="middle" x="464.5" y="-389" font-family="Helvetica,sans-Serif" font-size="10.00"> &lt; char32_t &gt;</text>
</g>
<!-- Node22 -->
<g id="node22" class="node">
<title>Node22</title>
<g id="a_node22"><a xlink:href="class_mx_event_handler.html" target="_top" xlink:title=" ">
<polygon fill="none" stroke="black" points="868.5,-324.5 868.5,-343.5 956.5,-343.5 956.5,-324.5 868.5,-324.5"/>
<text text-anchor="middle" x="912.5" y="-331.5" font-family="Helvetica,sans-Serif" font-size="10.00">MxEventHandler</text>
</a>
</g>
</g>
<!-- Node22&#45;&gt;Node1 -->
<g id="edge28" class="edge">
<title>Node22&#45;&gt;Node1</title>
<path fill="none" stroke="#9a32cd" stroke-dasharray="5,2" d="M966.92,-338.95C1016.53,-343.56 1088.74,-350.25 1129.81,-354.06"/>
<polygon fill="#9a32cd" stroke="#9a32cd" points="966.98,-335.44 956.7,-338.01 966.33,-342.41 966.98,-335.44"/>
<text text-anchor="middle" x="1039" y="-354" font-family="Helvetica,sans-Serif" font-size="10.00"> pTextChangedEventReceiver</text>
</g>
<!-- Node23&#45;&gt;Node1 -->
<g id="edge29" class="edge">
<title>Node23&#45;&gt;Node1</title>
<path fill="none" stroke="#9a32cd" stroke-dasharray="5,2" d="M716.67,-333.95C808.89,-351.93 966.87,-376.41 1103,-366 1111.71,-365.33 1121.08,-364.12 1129.72,-362.79"/>
<polygon fill="#9a32cd" stroke="#9a32cd" points="717.35,-330.52 706.86,-332.02 715.99,-337.39 717.35,-330.52"/>
<text text-anchor="middle" x="912.5" y="-368" font-family="Helvetica,sans-Serif" font-size="10.00"> pGlyphPositions</text>
</g>
</g>
</svg>
