<?xml version="1.0" encoding="UTF-8" standalone="no"?>
<!DOCTYPE svg PUBLIC "-//W3C//DTD SVG 1.1//EN"
 "http://www.w3.org/Graphics/SVG/1.1/DTD/svg11.dtd">
<!-- Generated by graphviz version 2.44.0 ()
 -->
<!-- Title: MxApplication Pages: 1 -->
<svg width="1351pt" height="284pt"
 viewBox="0.00 0.00 1351.00 284.00" xmlns="http://www.w3.org/2000/svg" xmlns:xlink="http://www.w3.org/1999/xlink">
<g id="graph0" class="graph" transform="scale(1 1) rotate(0) translate(4 280)">
<title>MxApplication</title>
<!-- Node1 -->
<g id="node1" class="node">
<title>Node1</title>
<g id="a_node1"><a xlink:title=" ">
<polygon fill="#bfbfbf" stroke="black" points="1266,-154.5 1266,-173.5 1343,-173.5 1343,-154.5 1266,-154.5"/>
<text text-anchor="middle" x="1304.5" y="-161.5" font-family="Helvetica,sans-Serif" font-size="10.00">MxApplication</text>
</a>
</g>
</g>
<!-- Node2 -->
<g id="node2" class="node">
<title>Node2</title>
<g id="a_node2"><a xlink:href="class_mx_widget.html" target="_top" xlink:title=" ">
<polygon fill="none" stroke="black" points="1077.5,-212.5 1077.5,-231.5 1136.5,-231.5 1136.5,-212.5 1077.5,-212.5"/>
<text text-anchor="middle" x="1107" y="-219.5" font-family="Helvetica,sans-Serif" font-size="10.00">MxWidget</text>
</a>
</g>
</g>
<!-- Node2&#45;&gt;Node1 -->
<g id="edge1" class="edge">
<title>Node2&#45;&gt;Node1</title>
<path fill="none" stroke="#9a32cd" stroke-dasharray="5,2" d="M1146.67,-215.96C1175.16,-210.91 1214.61,-202.64 1248,-191 1261.36,-186.35 1275.69,-179.31 1286.45,-173.59"/>
<polygon fill="#9a32cd" stroke="#9a32cd" points="1145.96,-212.53 1136.7,-217.68 1147.15,-219.43 1145.96,-212.53"/>
<text text-anchor="middle" x="1210.5" y="-213" font-family="Helvetica,sans-Serif" font-size="10.00"> pWidget</text>
</g>
<!-- Node2&#45;&gt;Node2 -->
<g id="edge5" class="edge">
<title>Node2&#45;&gt;Node2</title>
<path fill="none" stroke="#9a32cd" stroke-dasharray="5,2" d="M1089.59,-241.4C1090.76,-246.31 1096.56,-250 1107,-250 1123.71,-250 1128.54,-240.57 1121.49,-231.76"/>
<polygon fill="#9a32cd" stroke="#9a32cd" points="1092.97,-242.34 1092.51,-231.76 1086.27,-240.31 1092.97,-242.34"/>
<text text-anchor="middle" x="1107" y="-253" font-family="Helvetica,sans-Serif" font-size="10.00"> pParent</text>
</g>
<!-- Node3 -->
<g id="node3" class="node">
<title>Node3</title>
<g id="a_node3"><a xlink:href="class_mx_ui_settings.html" target="_top" xlink:title=" ">
<polygon fill="none" stroke="black" points="878,-256.5 878,-275.5 953,-275.5 953,-256.5 878,-256.5"/>
<text text-anchor="middle" x="915.5" y="-263.5" font-family="Helvetica,sans-Serif" font-size="10.00">MxUiSettings</text>
</a>
</g>
</g>
<!-- Node3&#45;&gt;Node2 -->
<g id="edge2" class="edge">
<title>Node3&#45;&gt;Node2</title>
<path fill="none" stroke="#9a32cd" stroke-dasharray="5,2" d="M963.11,-259.48C986.64,-255.76 1015.53,-250.52 1041,-244 1054.27,-240.6 1068.74,-235.82 1080.64,-231.58"/>
<polygon fill="#9a32cd" stroke="#9a32cd" points="962.39,-256.05 953.04,-261.03 963.46,-262.97 962.39,-256.05"/>
<text text-anchor="middle" x="1013" y="-258" font-family="Helvetica,sans-Serif" font-size="10.00"> sUiSettings</text>
</g>
<!-- Node4 -->
<g id="node4" class="node">
<title>Node4</title>
<g id="a_node4"><a xlink:href="class_mx_vector.html" target="_top" xlink:title=" ">
<polygon fill="none" stroke="black" points="864,-211.5 864,-230.5 967,-230.5 967,-211.5 864,-211.5"/>
<text text-anchor="middle" x="915.5" y="-218.5" font-family="Helvetica,sans-Serif" font-size="10.00">MxVector&lt; 2, float &gt;</text>
</a>
</g>
</g>
<!-- Node4&#45;&gt;Node2 -->
<g id="edge3" class="edge">
<title>Node4&#45;&gt;Node2</title>
<path fill="none" stroke="#9a32cd" stroke-dasharray="5,2" d="M977.46,-221.32C1011.02,-221.5 1051.08,-221.71 1077.45,-221.85"/>
<polygon fill="#9a32cd" stroke="#9a32cd" points="977.3,-217.82 967.28,-221.27 977.26,-224.82 977.3,-217.82"/>
<text text-anchor="middle" x="1013" y="-235" font-family="Helvetica,sans-Serif" font-size="10.00"> pPos</text>
<text text-anchor="middle" x="1013" y="-224" font-family="Helvetica,sans-Serif" font-size="10.00">pSize</text>
</g>
<!-- Node18 -->
<g id="node18" class="node">
<title>Node18</title>
<g id="a_node18"><a xlink:href="class_mx_painter.html" target="_top" xlink:title="Holder to the different painters.">
<polygon fill="none" stroke="black" points="1077,-174.5 1077,-193.5 1137,-193.5 1137,-174.5 1077,-174.5"/>
<text text-anchor="middle" x="1107" y="-181.5" font-family="Helvetica,sans-Serif" font-size="10.00">MxPainter</text>
</a>
</g>
</g>
<!-- Node4&#45;&gt;Node18 -->
<g id="edge21" class="edge">
<title>Node4&#45;&gt;Node18</title>
<path fill="none" stroke="#9a32cd" stroke-dasharray="5,2" d="M968.68,-209.37C974.18,-208.21 979.7,-207.06 985,-206 1016.19,-199.75 1052.07,-193.32 1076.6,-189.04"/>
<polygon fill="#9a32cd" stroke="#9a32cd" points="967.88,-205.96 958.84,-211.48 969.35,-212.81 967.88,-205.96"/>
<text text-anchor="middle" x="1013" y="-209" font-family="Helvetica,sans-Serif" font-size="10.00"> pTranslation</text>
</g>
<!-- Node5 -->
<g id="node5" class="node">
<title>Node5</title>
<g id="a_node5"><a xlink:href="class_mx_vector.html" target="_top" xlink:title=" ">
<polygon fill="none" stroke="black" points="273,-218.5 273,-237.5 366,-237.5 366,-218.5 273,-218.5"/>
<text text-anchor="middle" x="319.5" y="-225.5" font-family="Helvetica,sans-Serif" font-size="10.00">MxVector&lt; N, T &gt;</text>
</a>
</g>
</g>
<!-- Node5&#45;&gt;Node4 -->
<g id="edge4" class="edge">
<title>Node5&#45;&gt;Node4</title>
<path fill="none" stroke="orange" stroke-dasharray="5,2" d="M376.21,-232.75C453.29,-238.66 596.77,-247.24 719,-241 768.41,-238.48 824.56,-232.4 863.98,-227.6"/>
<polygon fill="orange" stroke="orange" points="376.48,-229.26 366.24,-231.97 375.94,-236.24 376.48,-229.26"/>
<text text-anchor="middle" x="633.5" y="-246" font-family="Helvetica,sans-Serif" font-size="10.00"> &lt; 2, float &gt;</text>
</g>
<!-- Node11 -->
<g id="node11" class="node">
<title>Node11</title>
<g id="a_node11"><a xlink:href="class_mx_vector.html" target="_top" xlink:title=" ">
<polygon fill="none" stroke="black" points="586,-98.5 586,-117.5 681,-117.5 681,-98.5 586,-98.5"/>
<text text-anchor="middle" x="633.5" y="-105.5" font-family="Helvetica,sans-Serif" font-size="10.00">MxVector&lt; 2, int &gt;</text>
</a>
</g>
</g>
<!-- Node5&#45;&gt;Node11 -->
<g id="edge12" class="edge">
<title>Node5&#45;&gt;Node11</title>
<path fill="none" stroke="orange" stroke-dasharray="5,2" d="M347.61,-213.86C389.57,-192.46 473.21,-151.74 548,-127 559.99,-123.03 573.21,-119.62 585.56,-116.83"/>
<polygon fill="orange" stroke="orange" points="345.89,-210.81 338.59,-218.49 349.09,-217.04 345.89,-210.81"/>
<text text-anchor="middle" x="460.5" y="-193" font-family="Helvetica,sans-Serif" font-size="10.00"> &lt; 2, int &gt;</text>
</g>
<!-- Node6 -->
<g id="node6" class="node">
<title>Node6</title>
<g id="a_node6"><a xlink:href="class_mx_gui_renderer.html" target="_top" xlink:title=" ">
<polygon fill="none" stroke="black" points="1065.5,-136.5 1065.5,-155.5 1148.5,-155.5 1148.5,-136.5 1065.5,-136.5"/>
<text text-anchor="middle" x="1107" y="-143.5" font-family="Helvetica,sans-Serif" font-size="10.00">MxGuiRenderer</text>
</a>
</g>
</g>
<!-- Node6&#45;&gt;Node1 -->
<g id="edge6" class="edge">
<title>Node6&#45;&gt;Node1</title>
<path fill="none" stroke="#9a32cd" stroke-dasharray="5,2" d="M1158.88,-144.79C1185.54,-144.83 1218.66,-145.93 1248,-150 1255.38,-151.02 1263.2,-152.65 1270.57,-154.44"/>
<polygon fill="#9a32cd" stroke="#9a32cd" points="1158.62,-141.29 1148.63,-144.83 1158.64,-148.29 1158.62,-141.29"/>
<text text-anchor="middle" x="1210.5" y="-153" font-family="Helvetica,sans-Serif" font-size="10.00"> pRenderer</text>
</g>
<!-- Node7 -->
<g id="node7" class="node">
<title>Node7</title>
<g id="a_node7"><a xlink:href="class_mx_renderer.html" target="_top" xlink:title=" ">
<polygon fill="none" stroke="black" points="881.5,-136.5 881.5,-155.5 949.5,-155.5 949.5,-136.5 881.5,-136.5"/>
<text text-anchor="middle" x="915.5" y="-143.5" font-family="Helvetica,sans-Serif" font-size="10.00">MxRenderer</text>
</a>
</g>
</g>
<!-- Node7&#45;&gt;Node6 -->
<g id="edge7" class="edge">
<title>Node7&#45;&gt;Node6</title>
<path fill="none" stroke="midnightblue" d="M959.82,-146C991.57,-146 1034.38,-146 1065.46,-146"/>
<polygon fill="midnightblue" stroke="midnightblue" points="959.51,-142.5 949.51,-146 959.51,-149.5 959.51,-142.5"/>
</g>
<!-- Node8 -->
<g id="node8" class="node">
<title>Node8</title>
<g id="a_node8"><a xlink:title=" ">
<polygon fill="none" stroke="#bfbfbf" points="579,-212.5 579,-231.5 688,-231.5 688,-212.5 579,-212.5"/>
<text text-anchor="middle" x="633.5" y="-219.5" font-family="Helvetica,sans-Serif" font-size="10.00">MxOpenGLFunctions</text>
</a>
</g>
</g>
<!-- Node8&#45;&gt;Node7 -->
<g id="edge8" class="edge">
<title>Node8&#45;&gt;Node7</title>
<path fill="none" stroke="midnightblue" d="M698.19,-218.79C741.08,-215.02 798.3,-206.83 846,-189 867.57,-180.94 889.62,-165.56 902.68,-155.55"/>
<polygon fill="midnightblue" stroke="midnightblue" points="697.84,-215.31 688.16,-219.62 698.41,-222.29 697.84,-215.31"/>
</g>
<!-- Node9 -->
<g id="node9" class="node">
<title>Node9</title>
<g id="a_node9"><a xlink:href="struct_mx_renderer_1_1_viewport.html" target="_top" xlink:title=" ">
<polygon fill="none" stroke="black" points="578,-174.5 578,-193.5 689,-193.5 689,-174.5 578,-174.5"/>
<text text-anchor="middle" x="633.5" y="-181.5" font-family="Helvetica,sans-Serif" font-size="10.00">MxRenderer::Viewport</text>
</a>
</g>
</g>
<!-- Node9&#45;&gt;Node7 -->
<g id="edge9" class="edge">
<title>Node9&#45;&gt;Node7</title>
<path fill="none" stroke="#9a32cd" stroke-dasharray="5,2" d="M699.15,-178.78C741.15,-174.94 797,-169.01 846,-161 857.53,-159.12 870.05,-156.54 881.19,-154.05"/>
<polygon fill="#9a32cd" stroke="#9a32cd" points="698.7,-175.31 689.05,-179.69 699.33,-182.28 698.7,-175.31"/>
<text text-anchor="middle" x="791.5" y="-177" font-family="Helvetica,sans-Serif" font-size="10.00"> pViewport</text>
</g>
<!-- Node10 -->
<g id="node10" class="node">
<title>Node10</title>
<g id="a_node10"><a xlink:href="class_mx_matrix.html" target="_top" xlink:title=" ">
<polygon fill="none" stroke="black" points="605.5,-136.5 605.5,-155.5 661.5,-155.5 661.5,-136.5 605.5,-136.5"/>
<text text-anchor="middle" x="633.5" y="-143.5" font-family="Helvetica,sans-Serif" font-size="10.00">MxMatrix</text>
</a>
</g>
</g>
<!-- Node10&#45;&gt;Node7 -->
<g id="edge10" class="edge">
<title>Node10&#45;&gt;Node7</title>
<path fill="none" stroke="#9a32cd" stroke-dasharray="5,2" d="M671.62,-146C726.59,-146 828.79,-146 881.37,-146"/>
<polygon fill="#9a32cd" stroke="#9a32cd" points="671.6,-142.5 661.6,-146 671.6,-149.5 671.6,-142.5"/>
<text text-anchor="middle" x="791.5" y="-149" font-family="Helvetica,sans-Serif" font-size="10.00"> pScreenProjectionMatrix</text>
</g>
<!-- Node11&#45;&gt;Node7 -->
<g id="edge11" class="edge">
<title>Node11&#45;&gt;Node7</title>
<path fill="none" stroke="#9a32cd" stroke-dasharray="5,2" d="M691.52,-112.53C734.21,-116.33 793.97,-122.5 846,-131 857.53,-132.88 870.05,-135.46 881.19,-137.95"/>
<polygon fill="#9a32cd" stroke="#9a32cd" points="691.59,-109.02 681.32,-111.64 690.98,-116 691.59,-109.02"/>
<text text-anchor="middle" x="791.5" y="-134" font-family="Helvetica,sans-Serif" font-size="10.00"> pScreenSize</text>
</g>
<!-- Node12 -->
<g id="node12" class="node">
<title>Node12</title>
<g id="a_node12"><a xlink:href="class_mx_list.html" target="_top" xlink:title=" ">
<polygon fill="none" stroke="black" points="548,-38.5 548,-79.5 719,-79.5 719,-38.5 548,-38.5"/>
<text text-anchor="start" x="556" y="-67.5" font-family="Helvetica,sans-Serif" font-size="10.00">MxList&lt; MxRenderer</text>
<text text-anchor="start" x="556" y="-56.5" font-family="Helvetica,sans-Serif" font-size="10.00">::ReusableVbo, MxClassInitializer</text>
<text text-anchor="middle" x="633.5" y="-45.5" font-family="Helvetica,sans-Serif" font-size="10.00">&lt; MxRenderer::ReusableVbo &gt;, 32 &gt;</text>
</a>
</g>
</g>
<!-- Node12&#45;&gt;Node7 -->
<g id="edge13" class="edge">
<title>Node12&#45;&gt;Node7</title>
<path fill="none" stroke="#9a32cd" stroke-dasharray="5,2" d="M728.99,-71.27C766.32,-78 809.03,-88.11 846,-103 867.1,-111.5 888.93,-126.46 902.11,-136.3"/>
<polygon fill="#9a32cd" stroke="#9a32cd" points="729.58,-67.82 719.13,-69.55 728.37,-74.72 729.58,-67.82"/>
<text text-anchor="middle" x="791.5" y="-106" font-family="Helvetica,sans-Serif" font-size="10.00"> pReusableVbos</text>
</g>
<!-- Node13 -->
<g id="node13" class="node">
<title>Node13</title>
<g id="a_node13"><a xlink:href="struct_mx_list_1_1_data.html" target="_top" xlink:title="these members are public to allow unions">
<polygon fill="none" stroke="black" points="115,-43 115,-73 222,-73 222,-43 115,-43"/>
<text text-anchor="start" x="123" y="-61" font-family="Helvetica,sans-Serif" font-size="10.00">MxList&lt; T, Initializer,</text>
<text text-anchor="middle" x="168.5" y="-50" font-family="Helvetica,sans-Serif" font-size="10.00"> Prealloc &gt;::Data</text>
</a>
</g>
</g>
<!-- Node13&#45;&gt;Node12 -->
<g id="edge14" class="edge">
<title>Node13&#45;&gt;Node12</title>
<path fill="none" stroke="#9a32cd" stroke-dasharray="5,2" d="M232.32,-63.39C304.27,-68.79 425.7,-75.58 530,-70 535.81,-69.69 541.79,-69.28 547.82,-68.8"/>
<polygon fill="#9a32cd" stroke="#9a32cd" points="232.31,-59.88 222.07,-62.6 231.77,-66.86 232.31,-59.88"/>
<text text-anchor="middle" x="319.5" y="-74" font-family="Helvetica,sans-Serif" font-size="10.00"> d</text>
</g>
<!-- Node15 -->
<g id="node15" class="node">
<title>Node15</title>
<g id="a_node15"><a xlink:href="class_mx_list.html" target="_top" xlink:title=" ">
<polygon fill="none" stroke="black" points="266,-17 266,-47 373,-47 373,-17 266,-17"/>
<text text-anchor="start" x="274" y="-35" font-family="Helvetica,sans-Serif" font-size="10.00">MxList&lt; T, Initializer,</text>
<text text-anchor="middle" x="319.5" y="-24" font-family="Helvetica,sans-Serif" font-size="10.00"> Prealloc &gt;</text>
</a>
</g>
</g>
<!-- Node13&#45;&gt;Node15 -->
<g id="edge17" class="edge">
<title>Node13&#45;&gt;Node15</title>
<path fill="none" stroke="#9a32cd" stroke-dasharray="5,2" d="M232.21,-47.06C243.44,-45.1 255.03,-43.07 265.94,-41.17"/>
<polygon fill="#9a32cd" stroke="#9a32cd" points="231.28,-43.67 222.03,-48.83 232.48,-50.56 231.28,-43.67"/>
<text text-anchor="middle" x="244" y="-48" font-family="Helvetica,sans-Serif" font-size="10.00"> d</text>
</g>
<!-- Node14 -->
<g id="node14" class="node">
<title>Node14</title>
<g id="a_node14"><a xlink:href="class_mx_ref_counter.html" target="_top" xlink:title=" ">
<polygon fill="none" stroke="black" points="0,-48.5 0,-67.5 78,-67.5 78,-48.5 0,-48.5"/>
<text text-anchor="middle" x="39" y="-55.5" font-family="Helvetica,sans-Serif" font-size="10.00">MxRefCounter</text>
</a>
</g>
</g>
<!-- Node14&#45;&gt;Node13 -->
<g id="edge15" class="edge">
<title>Node14&#45;&gt;Node13</title>
<path fill="none" stroke="midnightblue" d="M88.46,-58C97.03,-58 105.98,-58 114.66,-58"/>
<polygon fill="midnightblue" stroke="midnightblue" points="88.25,-54.5 78.25,-58 88.25,-61.5 88.25,-54.5"/>
</g>
<!-- Node15&#45;&gt;Node12 -->
<g id="edge16" class="edge">
<title>Node15&#45;&gt;Node12</title>
<path fill="none" stroke="orange" stroke-dasharray="5,2" d="M383.23,-30.44C424.97,-30.15 480.93,-31.2 530,-37 535.87,-37.69 541.91,-38.57 547.97,-39.56"/>
<polygon fill="orange" stroke="orange" points="383.18,-26.94 373.21,-30.53 383.25,-33.94 383.18,-26.94"/>
<text text-anchor="start" x="391" y="-62" font-family="Helvetica,sans-Serif" font-size="10.00"> &lt; MxRenderer::ReusableVbo,</text>
<text text-anchor="start" x="391" y="-51" font-family="Helvetica,sans-Serif" font-size="10.00"> MxClassInitializer&lt; MxRenderer</text>
<text text-anchor="middle" x="460.5" y="-40" font-family="Helvetica,sans-Serif" font-size="10.00">::ReusableVbo &gt;, 32 &gt;</text>
</g>
<!-- Node16 -->
<g id="node16" class="node">
<title>Node16</title>
<g id="a_node16"><a xlink:href="class_mx_abstract_atlas.html" target="_top" xlink:title=" ">
<polygon fill="none" stroke="black" points="871,-49.5 871,-68.5 960,-68.5 960,-49.5 871,-49.5"/>
<text text-anchor="middle" x="915.5" y="-56.5" font-family="Helvetica,sans-Serif" font-size="10.00">MxAbstractAtlas</text>
</a>
</g>
</g>
<!-- Node16&#45;&gt;Node6 -->
<g id="edge18" class="edge">
<title>Node16&#45;&gt;Node6</title>
<path fill="none" stroke="#9a32cd" stroke-dasharray="5,2" d="M944.7,-73.08C973.27,-87.21 1018.88,-109.34 1059,-127 1066.25,-130.19 1074.21,-133.49 1081.49,-136.42"/>
<polygon fill="#9a32cd" stroke="#9a32cd" points="946.2,-69.92 935.69,-68.62 943.09,-76.19 946.2,-69.92"/>
<text text-anchor="middle" x="1013" y="-122" font-family="Helvetica,sans-Serif" font-size="10.00"> pIconAtlas</text>
</g>
<!-- Node17 -->
<g id="node17" class="node">
<title>Node17</title>
<g id="a_node17"><a xlink:href="class_mx_texture.html" target="_top" xlink:title=" ">
<polygon fill="none" stroke="black" points="602.5,-0.5 602.5,-19.5 664.5,-19.5 664.5,-0.5 602.5,-0.5"/>
<text text-anchor="middle" x="633.5" y="-7.5" font-family="Helvetica,sans-Serif" font-size="10.00">MxTexture</text>
</a>
</g>
</g>
<!-- Node17&#45;&gt;Node16 -->
<g id="edge19" class="edge">
<title>Node17&#45;&gt;Node16</title>
<path fill="none" stroke="#9a32cd" stroke-dasharray="5,2" d="M674.7,-11.73C717.61,-14.23 787.35,-20.18 846,-34 861.9,-37.75 879.16,-44.07 892.39,-49.41"/>
<polygon fill="#9a32cd" stroke="#9a32cd" points="674.83,-8.23 664.66,-11.18 674.45,-15.22 674.83,-8.23"/>
<text text-anchor="middle" x="791.5" y="-37" font-family="Helvetica,sans-Serif" font-size="10.00"> pTexture</text>
</g>
<!-- Node18&#45;&gt;Node1 -->
<g id="edge20" class="edge">
<title>Node18&#45;&gt;Node1</title>
<path fill="none" stroke="#9a32cd" stroke-dasharray="5,2" d="M1147.48,-179.96C1182.07,-176.42 1231.99,-171.32 1265.98,-167.84"/>
<polygon fill="#9a32cd" stroke="#9a32cd" points="1146.86,-176.51 1137.27,-181.01 1147.57,-183.47 1146.86,-176.51"/>
<text text-anchor="middle" x="1210.5" y="-179" font-family="Helvetica,sans-Serif" font-size="10.00"> pPainterBuffer</text>
</g>
<!-- Node19 -->
<g id="node19" class="node">
<title>Node19</title>
<g id="a_node19"><a xlink:href="class_mx_gui_aggregation.html" target="_top" xlink:title="The MxGuiAggregation class aggregates UI related data members to allow its access from one place.">
<polygon fill="none" stroke="black" points="1059,-98.5 1059,-117.5 1155,-117.5 1155,-98.5 1059,-98.5"/>
<text text-anchor="middle" x="1107" y="-105.5" font-family="Helvetica,sans-Serif" font-size="10.00">MxGuiAggregation</text>
</a>
</g>
</g>
<!-- Node19&#45;&gt;Node1 -->
<g id="edge22" class="edge">
<title>Node19&#45;&gt;Node1</title>
<path fill="none" stroke="#9a32cd" stroke-dasharray="5,2" d="M1165.28,-111.22C1191.16,-114.02 1221.76,-119.25 1248,-129 1264.23,-135.03 1280.75,-146.24 1291.5,-154.35"/>
<polygon fill="#9a32cd" stroke="#9a32cd" points="1165.53,-107.72 1155.24,-110.22 1164.84,-114.69 1165.53,-107.72"/>
<text text-anchor="middle" x="1210.5" y="-132" font-family="Helvetica,sans-Serif" font-size="10.00"> pGuiAggregation</text>
</g>
</g>
</svg>
