<?xml version="1.0" encoding="UTF-8" standalone="no"?>
<!DOCTYPE svg PUBLIC "-//W3C//DTD SVG 1.1//EN"
 "http://www.w3.org/Graphics/SVG/1.1/DTD/svg11.dtd">
<!-- Generated by graphviz version 2.44.0 ()
 -->
<!-- Title: MxVectorProgram Pages: 1 -->
<svg width="1237pt" height="305pt"
 viewBox="0.00 0.00 1237.00 305.00" xmlns="http://www.w3.org/2000/svg" xmlns:xlink="http://www.w3.org/1999/xlink">
<g id="graph0" class="graph" transform="scale(1 1) rotate(0) translate(4 301)">
<title>MxVectorProgram</title>
<!-- Node1 -->
<g id="node1" class="node">
<title>Node1</title>
<g id="a_node1"><a xlink:title=" ">
<polygon fill="#bfbfbf" stroke="black" points="572,-257.5 572,-276.5 667,-276.5 667,-257.5 572,-257.5"/>
<text text-anchor="middle" x="619.5" y="-264.5" font-family="Helvetica,sans-Serif" font-size="10.00">MxVectorProgram</text>
</a>
</g>
</g>
<!-- Node3 -->
<g id="node3" class="node">
<title>Node3</title>
<g id="a_node3"><a xlink:href="class_mx_renderer.html" target="_top" xlink:title="The MxRenderer keeps track of the rendering state and resources.">
<polygon fill="none" stroke="black" points="812,-170.5 812,-189.5 880,-189.5 880,-170.5 812,-170.5"/>
<text text-anchor="middle" x="846" y="-177.5" font-family="Helvetica,sans-Serif" font-size="10.00">MxRenderer</text>
</a>
</g>
</g>
<!-- Node1&#45;&gt;Node3 -->
<g id="edge4" class="edge">
<title>Node1&#45;&gt;Node3</title>
<path fill="none" stroke="#9a32cd" stroke-dasharray="5,2" d="M677.29,-257.59C712.22,-250.38 757.18,-238.46 794,-220 809.89,-212.03 825.59,-198.66 835.29,-189.59"/>
<polygon fill="#9a32cd" stroke="#9a32cd" points="676.38,-254.21 667.26,-259.59 677.75,-261.07 676.38,-254.21"/>
<text text-anchor="middle" x="757.5" y="-248" font-family="Helvetica,sans-Serif" font-size="10.00"> pVectorProgram</text>
</g>
<!-- Node2 -->
<g id="node2" class="node">
<title>Node2</title>
<g id="a_node2"><a xlink:href="class_mx_shader_program.html" target="_top" xlink:title=" ">
<polygon fill="none" stroke="black" points="979,-240.5 979,-259.5 1076,-259.5 1076,-240.5 979,-240.5"/>
<text text-anchor="middle" x="1027.5" y="-247.5" font-family="Helvetica,sans-Serif" font-size="10.00">MxShaderProgram</text>
</a>
</g>
</g>
<!-- Node2&#45;&gt;Node1 -->
<g id="edge1" class="edge">
<title>Node2&#45;&gt;Node1</title>
<path fill="none" stroke="midnightblue" d="M968.85,-252.52C921.81,-254.57 853.61,-257.52 794,-260 751.08,-261.79 702.18,-263.76 667.26,-265.15"/>
<polygon fill="midnightblue" stroke="midnightblue" points="969.02,-256.02 978.86,-252.09 968.71,-249.02 969.02,-256.02"/>
</g>
<!-- Node5 -->
<g id="node5" class="node">
<title>Node5</title>
<g id="a_node5"><a xlink:href="class_mx_color_wheel_program.html" target="_top" xlink:title=" ">
<polygon fill="none" stroke="black" points="1113,-263.5 1113,-282.5 1229,-282.5 1229,-263.5 1113,-263.5"/>
<text text-anchor="middle" x="1171" y="-270.5" font-family="Helvetica,sans-Serif" font-size="10.00">MxColorWheelProgram</text>
</a>
</g>
</g>
<!-- Node2&#45;&gt;Node5 -->
<g id="edge6" class="edge">
<title>Node2&#45;&gt;Node5</title>
<path fill="none" stroke="midnightblue" d="M1086.1,-259.36C1094.82,-260.78 1103.83,-262.24 1112.55,-263.66"/>
<polygon fill="midnightblue" stroke="midnightblue" points="1086.44,-255.87 1076.01,-257.72 1085.32,-262.78 1086.44,-255.87"/>
</g>
<!-- Node15 -->
<g id="node15" class="node">
<title>Node15</title>
<g id="a_node15"><a xlink:href="class_mx_icon_program.html" target="_top" xlink:title=" ">
<polygon fill="none" stroke="black" points="1128.5,-194.5 1128.5,-213.5 1213.5,-213.5 1213.5,-194.5 1128.5,-194.5"/>
<text text-anchor="middle" x="1171" y="-201.5" font-family="Helvetica,sans-Serif" font-size="10.00">MxIconProgram</text>
</a>
</g>
</g>
<!-- Node2&#45;&gt;Node15 -->
<g id="edge20" class="edge">
<title>Node2&#45;&gt;Node15</title>
<path fill="none" stroke="midnightblue" d="M1067.36,-237.37C1090.53,-229.83 1119.48,-220.42 1140.72,-213.52"/>
<polygon fill="midnightblue" stroke="midnightblue" points="1066.25,-234.05 1057.82,-240.47 1068.41,-240.71 1066.25,-234.05"/>
</g>
<!-- Node3&#45;&gt;Node2 -->
<g id="edge2" class="edge">
<title>Node3&#45;&gt;Node2</title>
<path fill="none" stroke="#9a32cd" stroke-dasharray="5,2" d="M868.76,-195.49C877.54,-201.24 887.96,-207.47 898,-212 925.57,-224.44 958.27,-234.05 983.79,-240.49"/>
<polygon fill="#9a32cd" stroke="#9a32cd" points="870.53,-192.46 860.28,-189.75 866.6,-198.26 870.53,-192.46"/>
<text text-anchor="middle" x="929.5" y="-237" font-family="Helvetica,sans-Serif" font-size="10.00"> pRenderer</text>
</g>
<!-- Node16 -->
<g id="node16" class="node">
<title>Node16</title>
<g id="a_node16"><a xlink:href="class_mx_gpu_program.html" target="_top" xlink:title=" ">
<polygon fill="none" stroke="black" points="985.5,-190.5 985.5,-209.5 1069.5,-209.5 1069.5,-190.5 985.5,-190.5"/>
<text text-anchor="middle" x="1027.5" y="-197.5" font-family="Helvetica,sans-Serif" font-size="10.00">MxGpuProgram</text>
</a>
</g>
</g>
<!-- Node3&#45;&gt;Node16 -->
<g id="edge22" class="edge">
<title>Node3&#45;&gt;Node16</title>
<path fill="none" stroke="#9a32cd" stroke-dasharray="5,2" d="M889.9,-190.64C892.63,-191.15 895.35,-191.61 898,-192 926.97,-196.28 959.94,-198.27 985.23,-199.2"/>
<polygon fill="#9a32cd" stroke="#9a32cd" points="890.54,-187.2 880.04,-188.63 889.14,-194.06 890.54,-187.2"/>
<text text-anchor="middle" x="929.5" y="-200" font-family="Helvetica,sans-Serif" font-size="10.00"> pRenderer</text>
</g>
<!-- Node4 -->
<g id="node4" class="node">
<title>Node4</title>
<g id="a_node4"><a xlink:title=" ">
<polygon fill="none" stroke="#bfbfbf" points="565,-98.5 565,-117.5 674,-117.5 674,-98.5 565,-98.5"/>
<text text-anchor="middle" x="619.5" y="-105.5" font-family="Helvetica,sans-Serif" font-size="10.00">MxOpenGLFunctions</text>
</a>
</g>
</g>
<!-- Node4&#45;&gt;Node3 -->
<g id="edge3" class="edge">
<title>Node4&#45;&gt;Node3</title>
<path fill="none" stroke="midnightblue" d="M683.81,-119.7C717.28,-126.96 758.64,-137.67 794,-152 806.54,-157.08 819.93,-164.52 829.84,-170.45"/>
<polygon fill="midnightblue" stroke="midnightblue" points="684.2,-116.2 673.7,-117.55 682.75,-123.05 684.2,-116.2"/>
</g>
<!-- Node5&#45;&gt;Node3 -->
<g id="edge5" class="edge">
<title>Node5&#45;&gt;Node3</title>
<path fill="none" stroke="#9a32cd" stroke-dasharray="5,2" d="M1106.05,-283.66C1047.04,-289.97 959.52,-290.03 898,-249 875.2,-233.79 858.83,-204.8 851.42,-189.7"/>
<polygon fill="#9a32cd" stroke="#9a32cd" points="1106.46,-287.14 1115.99,-282.51 1105.66,-280.18 1106.46,-287.14"/>
<text text-anchor="middle" x="1027.5" y="-289" font-family="Helvetica,sans-Serif" font-size="10.00"> pColorWheelEffect</text>
</g>
<!-- Node6 -->
<g id="node6" class="node">
<title>Node6</title>
<g id="a_node6"><a xlink:href="class_mx_list.html" target="_top" xlink:title=" ">
<polygon fill="none" stroke="black" points="536,-38.5 536,-79.5 703,-79.5 703,-38.5 536,-38.5"/>
<text text-anchor="start" x="544" y="-67.5" font-family="Helvetica,sans-Serif" font-size="10.00">MxList&lt; MxCachedGpuArray,</text>
<text text-anchor="start" x="544" y="-56.5" font-family="Helvetica,sans-Serif" font-size="10.00"> MxClassInitializer&lt; MxCachedGpu</text>
<text text-anchor="middle" x="619.5" y="-45.5" font-family="Helvetica,sans-Serif" font-size="10.00">Array &gt;, 32 &gt;</text>
</a>
</g>
</g>
<!-- Node6&#45;&gt;Node3 -->
<g id="edge7" class="edge">
<title>Node6&#45;&gt;Node3</title>
<path fill="none" stroke="#9a32cd" stroke-dasharray="5,2" d="M712.95,-77.84C740.62,-86.28 769.96,-98.24 794,-115 815.18,-129.77 831.79,-155.9 839.78,-170.12"/>
<polygon fill="#9a32cd" stroke="#9a32cd" points="713.82,-74.45 703.24,-74.99 711.86,-81.16 713.82,-74.45"/>
<text text-anchor="middle" x="757.5" y="-118" font-family="Helvetica,sans-Serif" font-size="10.00"> pVboList</text>
</g>
<!-- Node7 -->
<g id="node7" class="node">
<title>Node7</title>
<g id="a_node7"><a xlink:href="struct_mx_list_1_1_data.html" target="_top" xlink:title="these members are public to allow unions">
<polygon fill="none" stroke="black" points="115,-70 115,-100 222,-100 222,-70 115,-70"/>
<text text-anchor="start" x="123" y="-88" font-family="Helvetica,sans-Serif" font-size="10.00">MxList&lt; T, Initializer,</text>
<text text-anchor="middle" x="168.5" y="-77" font-family="Helvetica,sans-Serif" font-size="10.00"> Prealloc &gt;::Data</text>
</a>
</g>
</g>
<!-- Node7&#45;&gt;Node6 -->
<g id="edge8" class="edge">
<title>Node7&#45;&gt;Node6</title>
<path fill="none" stroke="#9a32cd" stroke-dasharray="5,2" d="M210.78,-65.9C227.54,-59.14 247.32,-52.37 266,-49 357.28,-32.53 463.97,-39.05 535.87,-47.13"/>
<polygon fill="#9a32cd" stroke="#9a32cd" points="209.17,-62.78 201.29,-69.86 211.87,-69.24 209.17,-62.78"/>
<text text-anchor="middle" x="319.5" y="-52" font-family="Helvetica,sans-Serif" font-size="10.00"> d</text>
</g>
<!-- Node9 -->
<g id="node9" class="node">
<title>Node9</title>
<g id="a_node9"><a xlink:href="class_mx_list.html" target="_top" xlink:title=" ">
<polygon fill="none" stroke="black" points="266,-70 266,-100 373,-100 373,-70 266,-70"/>
<text text-anchor="start" x="274" y="-88" font-family="Helvetica,sans-Serif" font-size="10.00">MxList&lt; T, Initializer,</text>
<text text-anchor="middle" x="319.5" y="-77" font-family="Helvetica,sans-Serif" font-size="10.00"> Prealloc &gt;</text>
</a>
</g>
</g>
<!-- Node7&#45;&gt;Node9 -->
<g id="edge11" class="edge">
<title>Node7&#45;&gt;Node9</title>
<path fill="none" stroke="#9a32cd" stroke-dasharray="5,2" d="M232.21,-85C243.44,-85 255.03,-85 265.94,-85"/>
<polygon fill="#9a32cd" stroke="#9a32cd" points="232.03,-81.5 222.03,-85 232.03,-88.5 232.03,-81.5"/>
<text text-anchor="middle" x="244" y="-88" font-family="Helvetica,sans-Serif" font-size="10.00"> d</text>
</g>
<!-- Node12 -->
<g id="node12" class="node">
<title>Node12</title>
<g id="a_node12"><a xlink:href="class_mx_list.html" target="_top" xlink:title=" ">
<polygon fill="none" stroke="black" points="561.5,-136.5 561.5,-155.5 677.5,-155.5 677.5,-136.5 561.5,-136.5"/>
<text text-anchor="middle" x="619.5" y="-143.5" font-family="Helvetica,sans-Serif" font-size="10.00">MxList&lt; MxGpuArray &gt;</text>
</a>
</g>
</g>
<!-- Node7&#45;&gt;Node12 -->
<g id="edge15" class="edge">
<title>Node7&#45;&gt;Node12</title>
<path fill="none" stroke="#9a32cd" stroke-dasharray="5,2" d="M231.99,-101.14C243.29,-103.89 254.97,-106.62 266,-109 321.21,-120.93 334.93,-125.14 391,-132 448.74,-139.06 515.18,-142.63 561.29,-144.39"/>
<polygon fill="#9a32cd" stroke="#9a32cd" points="232.75,-97.72 222.2,-98.73 231.08,-104.52 232.75,-97.72"/>
<text text-anchor="middle" x="319.5" y="-133" font-family="Helvetica,sans-Serif" font-size="10.00"> d</text>
</g>
<!-- Node8 -->
<g id="node8" class="node">
<title>Node8</title>
<g id="a_node8"><a xlink:href="class_mx_ref_counter.html" target="_top" xlink:title=" ">
<polygon fill="none" stroke="black" points="0,-75.5 0,-94.5 78,-94.5 78,-75.5 0,-75.5"/>
<text text-anchor="middle" x="39" y="-82.5" font-family="Helvetica,sans-Serif" font-size="10.00">MxRefCounter</text>
</a>
</g>
</g>
<!-- Node8&#45;&gt;Node7 -->
<g id="edge9" class="edge">
<title>Node8&#45;&gt;Node7</title>
<path fill="none" stroke="midnightblue" d="M88.46,-85C97.03,-85 105.98,-85 114.66,-85"/>
<polygon fill="midnightblue" stroke="midnightblue" points="88.25,-81.5 78.25,-85 88.25,-88.5 88.25,-81.5"/>
</g>
<!-- Node9&#45;&gt;Node6 -->
<g id="edge10" class="edge">
<title>Node9&#45;&gt;Node6</title>
<path fill="none" stroke="orange" stroke-dasharray="5,2" d="M377.46,-67.54C382.01,-66.55 386.56,-65.68 391,-65 438.65,-57.73 492.55,-56.03 535.93,-56.24"/>
<polygon fill="orange" stroke="orange" points="376.46,-64.18 367.54,-69.9 378.08,-70.99 376.46,-64.18"/>
<text text-anchor="start" x="391" y="-90" font-family="Helvetica,sans-Serif" font-size="10.00"> &lt; MxCachedGpuArray,</text>
<text text-anchor="start" x="391" y="-79" font-family="Helvetica,sans-Serif" font-size="10.00"> MxClassInitializer</text>
<text text-anchor="middle" x="454.5" y="-68" font-family="Helvetica,sans-Serif" font-size="10.00">&lt; MxCachedGpuArray &gt;, 32 &gt;</text>
</g>
<!-- Node9&#45;&gt;Node12 -->
<g id="edge16" class="edge">
<title>Node9&#45;&gt;Node12</title>
<path fill="none" stroke="orange" stroke-dasharray="5,2" d="M383.32,-96.59C385.91,-97.07 388.48,-97.54 391,-98 447.43,-108.31 462.43,-106.78 518,-121 526.17,-123.09 527.88,-124.72 536,-127 548.03,-130.38 561.16,-133.61 573.34,-136.42"/>
<polygon fill="orange" stroke="orange" points="383.71,-93.11 373.24,-94.74 382.44,-99.99 383.71,-93.11"/>
<text text-anchor="middle" x="454.5" y="-124" font-family="Helvetica,sans-Serif" font-size="10.00"> &lt; MxGpuArray &gt;</text>
</g>
<!-- Node10 -->
<g id="node10" class="node">
<title>Node10</title>
<g id="a_node10"><a xlink:href="class_mx_abstract_atlas.html" target="_top" xlink:title=" ">
<polygon fill="none" stroke="black" points="575,-0.5 575,-19.5 664,-19.5 664,-0.5 575,-0.5"/>
<text text-anchor="middle" x="619.5" y="-7.5" font-family="Helvetica,sans-Serif" font-size="10.00">MxAbstractAtlas</text>
</a>
</g>
</g>
<!-- Node10&#45;&gt;Node3 -->
<g id="edge12" class="edge">
<title>Node10&#45;&gt;Node3</title>
<path fill="none" stroke="#9a32cd" stroke-dasharray="5,2" d="M674.47,-14.95C712.37,-21.11 761.85,-34.94 794,-66 825.19,-96.13 838.77,-148.76 843.22,-170.35"/>
<polygon fill="#9a32cd" stroke="#9a32cd" points="674.52,-11.42 664.11,-13.41 673.48,-18.34 674.52,-11.42"/>
<text text-anchor="middle" x="757.5" y="-69" font-family="Helvetica,sans-Serif" font-size="10.00"> pIconAtlas</text>
</g>
<!-- Node11 -->
<g id="node11" class="node">
<title>Node11</title>
<g id="a_node11"><a xlink:href="class_mx_texture.html" target="_top" xlink:title=" ">
<polygon fill="none" stroke="black" points="588.5,-212.5 588.5,-231.5 650.5,-231.5 650.5,-212.5 588.5,-212.5"/>
<text text-anchor="middle" x="619.5" y="-219.5" font-family="Helvetica,sans-Serif" font-size="10.00">MxTexture</text>
</a>
</g>
</g>
<!-- Node11&#45;&gt;Node3 -->
<g id="edge13" class="edge">
<title>Node11&#45;&gt;Node3</title>
<path fill="none" stroke="#9a32cd" stroke-dasharray="5,2" d="M660.6,-215.77C695.85,-210.12 748.47,-201.28 794,-192 799.79,-190.82 805.93,-189.46 811.87,-188.1"/>
<polygon fill="#9a32cd" stroke="#9a32cd" points="660.02,-212.31 650.69,-217.34 661.12,-219.23 660.02,-212.31"/>
<text text-anchor="middle" x="757.5" y="-208" font-family="Helvetica,sans-Serif" font-size="10.00"> pTextures</text>
</g>
<!-- Node12&#45;&gt;Node3 -->
<g id="edge14" class="edge">
<title>Node12&#45;&gt;Node3</title>
<path fill="none" stroke="#9a32cd" stroke-dasharray="5,2" d="M688.1,-151.37C720.34,-154.54 759.35,-159.29 794,-166 800.22,-167.2 806.79,-168.78 813.07,-170.43"/>
<polygon fill="#9a32cd" stroke="#9a32cd" points="688.17,-147.86 677.88,-150.39 687.5,-154.83 688.17,-147.86"/>
<text text-anchor="middle" x="757.5" y="-169" font-family="Helvetica,sans-Serif" font-size="10.00"> pBufferViews</text>
</g>
<!-- Node13 -->
<g id="node13" class="node">
<title>Node13</title>
<g id="a_node13"><a xlink:href="class_mx_vector.html" target="_top" xlink:title=" ">
<polygon fill="none" stroke="black" points="572,-174.5 572,-193.5 667,-193.5 667,-174.5 572,-174.5"/>
<text text-anchor="middle" x="619.5" y="-181.5" font-family="Helvetica,sans-Serif" font-size="10.00">MxVector&lt; 2, int &gt;</text>
</a>
</g>
</g>
<!-- Node13&#45;&gt;Node3 -->
<g id="edge17" class="edge">
<title>Node13&#45;&gt;Node3</title>
<path fill="none" stroke="#9a32cd" stroke-dasharray="5,2" d="M677.22,-182.09C691.51,-181.67 706.82,-181.27 721,-181 751.78,-180.42 786.86,-180.17 811.84,-180.07"/>
<polygon fill="#9a32cd" stroke="#9a32cd" points="676.92,-178.6 667.03,-182.4 677.13,-185.6 676.92,-178.6"/>
<text text-anchor="middle" x="757.5" y="-184" font-family="Helvetica,sans-Serif" font-size="10.00"> pScreenSize</text>
</g>
<!-- Node14 -->
<g id="node14" class="node">
<title>Node14</title>
<g id="a_node14"><a xlink:href="class_mx_vector.html" target="_top" xlink:title=" ">
<polygon fill="none" stroke="black" points="273,-175.5 273,-194.5 366,-194.5 366,-175.5 273,-175.5"/>
<text text-anchor="middle" x="319.5" y="-182.5" font-family="Helvetica,sans-Serif" font-size="10.00">MxVector&lt; N, T &gt;</text>
</a>
</g>
</g>
<!-- Node14&#45;&gt;Node13 -->
<g id="edge18" class="edge">
<title>Node14&#45;&gt;Node13</title>
<path fill="none" stroke="orange" stroke-dasharray="5,2" d="M376.26,-184.81C432.72,-184.62 519.03,-184.33 571.94,-184.16"/>
<polygon fill="orange" stroke="orange" points="376.07,-181.31 366.08,-184.85 376.1,-188.31 376.07,-181.31"/>
<text text-anchor="middle" x="454.5" y="-188" font-family="Helvetica,sans-Serif" font-size="10.00"> &lt; 2, int &gt;</text>
</g>
<!-- Node15&#45;&gt;Node3 -->
<g id="edge19" class="edge">
<title>Node15&#45;&gt;Node3</title>
<path fill="none" stroke="#9a32cd" stroke-dasharray="5,2" d="M1140.83,-190.47C1122.62,-182.79 1098.46,-173.94 1076,-170 1007.21,-157.94 925.11,-167.12 880.28,-174.08"/>
<polygon fill="#9a32cd" stroke="#9a32cd" points="1139.46,-193.69 1150.02,-194.47 1142.25,-187.27 1139.46,-193.69"/>
<text text-anchor="middle" x="1027.5" y="-173" font-family="Helvetica,sans-Serif" font-size="10.00"> pIconProgram</text>
</g>
<!-- Node16&#45;&gt;Node3 -->
<g id="edge21" class="edge">
<title>Node16&#45;&gt;Node3</title>
<path fill="none" stroke="#9a32cd" stroke-dasharray="5,2" d="M990,-187.5C980.66,-184.83 970.55,-182.4 961,-181 933.98,-177.04 902.96,-177.06 880.11,-177.92"/>
<polygon fill="#9a32cd" stroke="#9a32cd" points="989.19,-190.92 999.78,-190.45 991.22,-184.21 989.19,-190.92"/>
<text text-anchor="middle" x="929.5" y="-184" font-family="Helvetica,sans-Serif" font-size="10.00"> pCurrProgram</text>
</g>
</g>
</svg>
