<?xml version="1.0" encoding="UTF-8" standalone="no"?>
<!DOCTYPE svg PUBLIC "-//W3C//DTD SVG 1.1//EN"
 "http://www.w3.org/Graphics/SVG/1.1/DTD/svg11.dtd">
<!-- Generated by graphviz version 2.44.0 ()
 -->
<!-- Title: MxGpuProgram Pages: 1 -->
<svg width="921pt" height="576pt"
 viewBox="0.00 0.00 921.00 576.40" xmlns="http://www.w3.org/2000/svg" xmlns:xlink="http://www.w3.org/1999/xlink">
<g id="graph0" class="graph" transform="scale(1 1) rotate(0) translate(4 572.4)">
<title>MxGpuProgram</title>
<!-- Node1 -->
<g id="node1" class="node">
<title>Node1</title>
<g id="a_node1"><a xlink:title=" ">
<polygon fill="#bfbfbf" stroke="black" points="277.5,-417.9 277.5,-436.9 361.5,-436.9 361.5,-417.9 277.5,-417.9"/>
<text text-anchor="middle" x="319.5" y="-424.9" font-family="Helvetica,sans-Serif" font-size="10.00">MxGpuProgram</text>
</a>
</g>
</g>
<!-- Node2 -->
<g id="node2" class="node">
<title>Node2</title>
<g id="a_node2"><a xlink:href="class_mx_renderer.html" target="_top" xlink:title="The MxRenderer keeps track of the rendering state and resources.">
<polygon fill="none" stroke="black" points="845,-314.9 845,-333.9 913,-333.9 913,-314.9 845,-314.9"/>
<text text-anchor="middle" x="879" y="-321.9" font-family="Helvetica,sans-Serif" font-size="10.00">MxRenderer</text>
</a>
</g>
</g>
<!-- Node1&#45;&gt;Node2 -->
<g id="edge21" class="edge">
<title>Node1&#45;&gt;Node2</title>
<path fill="none" stroke="#9a32cd" stroke-dasharray="5,2" d="M357.99,-440.04C402.64,-454.36 479.76,-476.84 548,-485.4 671.21,-500.86 731.37,-549.62 827,-470.4 870.01,-434.77 876.8,-360.66 877.83,-334.11"/>
<polygon fill="#9a32cd" stroke="#9a32cd" points="359.03,-436.69 348.44,-436.94 356.87,-443.35 359.03,-436.69"/>
<text text-anchor="middle" x="637.5" y="-518.4" font-family="Helvetica,sans-Serif" font-size="10.00"> pCurrProgram</text>
</g>
<!-- Node4 -->
<g id="node4" class="node">
<title>Node4</title>
<g id="a_node4"><a xlink:href="class_mx_vector_program.html" target="_top" xlink:title=" ">
<polygon fill="none" stroke="black" points="590,-371.9 590,-390.9 685,-390.9 685,-371.9 590,-371.9"/>
<text text-anchor="middle" x="637.5" y="-378.9" font-family="Helvetica,sans-Serif" font-size="10.00">MxVectorProgram</text>
</a>
</g>
</g>
<!-- Node1&#45;&gt;Node4 -->
<g id="edge4" class="edge">
<title>Node1&#45;&gt;Node4</title>
<path fill="none" stroke="midnightblue" d="M371.82,-416.79C378.27,-415.58 384.78,-414.42 391,-413.4 459.92,-402.08 540.26,-392.23 589.76,-386.55"/>
<polygon fill="midnightblue" stroke="midnightblue" points="370.96,-413.4 361.8,-418.72 372.28,-420.27 370.96,-413.4"/>
</g>
<!-- Node5 -->
<g id="node5" class="node">
<title>Node5</title>
<g id="a_node5"><a xlink:href="class_mx_color_wheel_program.html" target="_top" xlink:title=" ">
<polygon fill="none" stroke="black" points="579.5,-257.9 579.5,-276.9 695.5,-276.9 695.5,-257.9 579.5,-257.9"/>
<text text-anchor="middle" x="637.5" y="-264.9" font-family="Helvetica,sans-Serif" font-size="10.00">MxColorWheelProgram</text>
</a>
</g>
</g>
<!-- Node1&#45;&gt;Node5 -->
<g id="edge6" class="edge">
<title>Node1&#45;&gt;Node5</title>
<path fill="none" stroke="midnightblue" d="M340.75,-411.45C378.98,-382.15 465.41,-319.69 548,-286.4 557.91,-282.4 568.8,-279.19 579.45,-276.62"/>
<polygon fill="midnightblue" stroke="midnightblue" points="338.28,-408.94 332.51,-417.83 342.56,-414.48 338.28,-408.94"/>
</g>
<!-- Node15 -->
<g id="node15" class="node">
<title>Node15</title>
<g id="a_node15"><a xlink:href="class_mx_icon_program.html" target="_top" xlink:title=" ">
<polygon fill="none" stroke="black" points="595,-541.9 595,-560.9 680,-560.9 680,-541.9 595,-541.9"/>
<text text-anchor="middle" x="637.5" y="-548.9" font-family="Helvetica,sans-Serif" font-size="10.00">MxIconProgram</text>
</a>
</g>
</g>
<!-- Node1&#45;&gt;Node15 -->
<g id="edge20" class="edge">
<title>Node1&#45;&gt;Node15</title>
<path fill="none" stroke="midnightblue" d="M328.21,-446.61C338.66,-469.87 359.68,-508.18 391,-526.4 454.51,-563.33 543.11,-562 594.67,-557.1"/>
<polygon fill="midnightblue" stroke="midnightblue" points="331.3,-444.93 324.16,-437.11 324.86,-447.68 331.3,-444.93"/>
</g>
<!-- Node2&#45;&gt;Node1 -->
<g id="edge1" class="edge">
<title>Node2&#45;&gt;Node1</title>
<path fill="none" stroke="#9a32cd" stroke-dasharray="5,2" d="M867.62,-342.97C858.74,-357.01 844.6,-375.51 827,-385.4 747.76,-429.9 468.08,-429.98 361.85,-428.31"/>
<polygon fill="#9a32cd" stroke="#9a32cd" points="870.79,-344.5 872.91,-334.12 864.78,-340.91 870.79,-344.5"/>
<text text-anchor="middle" x="637.5" y="-430.4" font-family="Helvetica,sans-Serif" font-size="10.00"> pRenderer</text>
</g>
<!-- Node3 -->
<g id="node3" class="node">
<title>Node3</title>
<g id="a_node3"><a xlink:title=" ">
<polygon fill="none" stroke="#bfbfbf" points="583,-456.9 583,-475.9 692,-475.9 692,-456.9 583,-456.9"/>
<text text-anchor="middle" x="637.5" y="-463.9" font-family="Helvetica,sans-Serif" font-size="10.00">MxOpenGLFunctions</text>
</a>
</g>
</g>
<!-- Node3&#45;&gt;Node2 -->
<g id="edge2" class="edge">
<title>Node3&#45;&gt;Node2</title>
<path fill="none" stroke="midnightblue" d="M702.19,-472.92C741.79,-473.61 791.71,-467.99 827,-441.4 862.75,-414.46 873.83,-357.19 876.92,-334.22"/>
<polygon fill="midnightblue" stroke="midnightblue" points="702.21,-469.42 692.1,-472.6 701.99,-476.41 702.21,-469.42"/>
</g>
<!-- Node4&#45;&gt;Node2 -->
<g id="edge3" class="edge">
<title>Node4&#45;&gt;Node2</title>
<path fill="none" stroke="#9a32cd" stroke-dasharray="5,2" d="M695.51,-376.64C733.48,-372.36 784.08,-364.49 827,-350.4 839.46,-346.31 852.63,-339.52 862.47,-333.91"/>
<polygon fill="#9a32cd" stroke="#9a32cd" points="694.73,-373.21 685.16,-377.76 695.47,-380.17 694.73,-373.21"/>
<text text-anchor="middle" x="786" y="-373.4" font-family="Helvetica,sans-Serif" font-size="10.00"> pVectorProgram</text>
</g>
<!-- Node5&#45;&gt;Node2 -->
<g id="edge5" class="edge">
<title>Node5&#45;&gt;Node2</title>
<path fill="none" stroke="#9a32cd" stroke-dasharray="5,2" d="M705.7,-270C742.41,-273.06 788.16,-279.59 827,-293.4 841.06,-298.4 855.44,-307.58 865.33,-314.66"/>
<polygon fill="#9a32cd" stroke="#9a32cd" points="705.84,-266.5 695.6,-269.23 705.3,-273.48 705.84,-266.5"/>
<text text-anchor="middle" x="786" y="-296.4" font-family="Helvetica,sans-Serif" font-size="10.00"> pColorWheelEffect</text>
</g>
<!-- Node6 -->
<g id="node6" class="node">
<title>Node6</title>
<g id="a_node6"><a xlink:href="class_mx_abstract_atlas.html" target="_top" xlink:title=" ">
<polygon fill="none" stroke="black" points="593,-333.9 593,-352.9 682,-352.9 682,-333.9 593,-333.9"/>
<text text-anchor="middle" x="637.5" y="-340.9" font-family="Helvetica,sans-Serif" font-size="10.00">MxAbstractAtlas</text>
</a>
</g>
</g>
<!-- Node6&#45;&gt;Node2 -->
<g id="edge7" class="edge">
<title>Node6&#45;&gt;Node2</title>
<path fill="none" stroke="#9a32cd" stroke-dasharray="5,2" d="M692.4,-339.12C739.12,-335.42 805.26,-330.17 844.68,-327.04"/>
<polygon fill="#9a32cd" stroke="#9a32cd" points="691.84,-335.66 682.15,-339.94 692.4,-342.63 691.84,-335.66"/>
<text text-anchor="middle" x="786" y="-338.4" font-family="Helvetica,sans-Serif" font-size="10.00"> pIconAtlas</text>
</g>
<!-- Node7 -->
<g id="node7" class="node">
<title>Node7</title>
<g id="a_node7"><a xlink:href="class_mx_texture.html" target="_top" xlink:title=" ">
<polygon fill="none" stroke="black" points="606.5,-295.9 606.5,-314.9 668.5,-314.9 668.5,-295.9 606.5,-295.9"/>
<text text-anchor="middle" x="637.5" y="-302.9" font-family="Helvetica,sans-Serif" font-size="10.00">MxTexture</text>
</a>
</g>
</g>
<!-- Node7&#45;&gt;Node2 -->
<g id="edge8" class="edge">
<title>Node7&#45;&gt;Node2</title>
<path fill="none" stroke="#9a32cd" stroke-dasharray="5,2" d="M678.87,-305.62C717.13,-306.24 776.16,-308.23 827,-314.4 832.82,-315.1 838.98,-316.1 844.92,-317.18"/>
<polygon fill="#9a32cd" stroke="#9a32cd" points="678.7,-302.12 668.65,-305.49 678.6,-309.12 678.7,-302.12"/>
<text text-anchor="middle" x="786" y="-317.4" font-family="Helvetica,sans-Serif" font-size="10.00"> pTextures</text>
</g>
<!-- Node8 -->
<g id="node8" class="node">
<title>Node8</title>
<g id="a_node8"><a xlink:href="class_mx_list.html" target="_top" xlink:title=" ">
<polygon fill="none" stroke="black" points="579.5,-181.9 579.5,-200.9 695.5,-200.9 695.5,-181.9 579.5,-181.9"/>
<text text-anchor="middle" x="637.5" y="-188.9" font-family="Helvetica,sans-Serif" font-size="10.00">MxList&lt; MxGpuArray &gt;</text>
</a>
</g>
</g>
<!-- Node8&#45;&gt;Node2 -->
<g id="edge9" class="edge">
<title>Node8&#45;&gt;Node2</title>
<path fill="none" stroke="#9a32cd" stroke-dasharray="5,2" d="M705.85,-186.59C744.68,-187.19 792.48,-194.06 827,-219.4 859.51,-243.26 872.3,-293.47 876.38,-314.65"/>
<polygon fill="#9a32cd" stroke="#9a32cd" points="705.68,-183.08 695.67,-186.56 705.67,-190.08 705.68,-183.08"/>
<text text-anchor="middle" x="786" y="-222.4" font-family="Helvetica,sans-Serif" font-size="10.00"> pBufferViews</text>
</g>
<!-- Node9 -->
<g id="node9" class="node">
<title>Node9</title>
<g id="a_node9"><a xlink:href="struct_mx_list_1_1_data.html" target="_top" xlink:title="these members are public to allow unions">
<polygon fill="none" stroke="black" points="115,-75.4 115,-105.4 222,-105.4 222,-75.4 115,-75.4"/>
<text text-anchor="start" x="123" y="-93.4" font-family="Helvetica,sans-Serif" font-size="10.00">MxList&lt; T, Initializer,</text>
<text text-anchor="middle" x="168.5" y="-82.4" font-family="Helvetica,sans-Serif" font-size="10.00"> Prealloc &gt;::Data</text>
</a>
</g>
</g>
<!-- Node9&#45;&gt;Node8 -->
<g id="edge10" class="edge">
<title>Node9&#45;&gt;Node8</title>
<path fill="none" stroke="#9a32cd" stroke-dasharray="5,2" d="M198.42,-111.39C239,-139.32 316.3,-186.95 391,-202.4 457.22,-216.09 535.55,-208.61 585.61,-200.93"/>
<polygon fill="#9a32cd" stroke="#9a32cd" points="200.29,-108.44 190.09,-105.59 196.29,-114.18 200.29,-108.44"/>
<text text-anchor="middle" x="319.5" y="-201.4" font-family="Helvetica,sans-Serif" font-size="10.00"> d</text>
</g>
<!-- Node11 -->
<g id="node11" class="node">
<title>Node11</title>
<g id="a_node11"><a xlink:href="class_mx_list.html" target="_top" xlink:title=" ">
<polygon fill="none" stroke="black" points="266,-109.4 266,-139.4 373,-139.4 373,-109.4 266,-109.4"/>
<text text-anchor="start" x="274" y="-127.4" font-family="Helvetica,sans-Serif" font-size="10.00">MxList&lt; T, Initializer,</text>
<text text-anchor="middle" x="319.5" y="-116.4" font-family="Helvetica,sans-Serif" font-size="10.00"> Prealloc &gt;</text>
</a>
</g>
</g>
<!-- Node9&#45;&gt;Node11 -->
<g id="edge13" class="edge">
<title>Node9&#45;&gt;Node11</title>
<path fill="none" stroke="#9a32cd" stroke-dasharray="5,2" d="M231.87,-104.63C243.2,-107.22 254.92,-109.89 265.94,-112.4"/>
<polygon fill="#9a32cd" stroke="#9a32cd" points="232.56,-101.2 222.03,-102.38 231,-108.02 232.56,-101.2"/>
<text text-anchor="middle" x="244" y="-110.4" font-family="Helvetica,sans-Serif" font-size="10.00"> d</text>
</g>
<!-- Node14 -->
<g id="node14" class="node">
<title>Node14</title>
<g id="a_node14"><a xlink:href="class_mx_list.html" target="_top" xlink:title=" ">
<polygon fill="none" stroke="black" points="552,-116.9 552,-157.9 723,-157.9 723,-116.9 552,-116.9"/>
<text text-anchor="start" x="560" y="-145.9" font-family="Helvetica,sans-Serif" font-size="10.00">MxList&lt; MxRenderer</text>
<text text-anchor="start" x="560" y="-134.9" font-family="Helvetica,sans-Serif" font-size="10.00">::ReusableVbo, MxClassInitializer</text>
<text text-anchor="middle" x="637.5" y="-123.9" font-family="Helvetica,sans-Serif" font-size="10.00">&lt; MxRenderer::ReusableVbo &gt;, 32 &gt;</text>
</a>
</g>
</g>
<!-- Node9&#45;&gt;Node14 -->
<g id="edge17" class="edge">
<title>Node9&#45;&gt;Node14</title>
<path fill="none" stroke="#9a32cd" stroke-dasharray="5,2" d="M217.05,-71.89C290.3,-46.68 432.49,-11.13 530,-71.4 545.22,-80.8 534.52,-95.64 548,-107.4 552.04,-110.92 556.5,-114.03 561.22,-116.77"/>
<polygon fill="#9a32cd" stroke="#9a32cd" points="215.45,-68.75 207.18,-75.37 217.77,-75.35 215.45,-68.75"/>
<text text-anchor="middle" x="319.5" y="-59.4" font-family="Helvetica,sans-Serif" font-size="10.00"> d</text>
</g>
<!-- Node16 -->
<g id="node16" class="node">
<title>Node16</title>
<g id="a_node16"><a xlink:href="class_mx_list.html" target="_top" xlink:title=" ">
<polygon fill="none" stroke="black" points="548,-56.9 548,-97.9 727,-97.9 727,-56.9 548,-56.9"/>
<text text-anchor="start" x="556" y="-85.9" font-family="Helvetica,sans-Serif" font-size="10.00">MxList&lt; MxRenderer</text>
<text text-anchor="start" x="556" y="-74.9" font-family="Helvetica,sans-Serif" font-size="10.00">::ReusableBuffer, MxClassInitializer</text>
<text text-anchor="middle" x="637.5" y="-63.9" font-family="Helvetica,sans-Serif" font-size="10.00">&lt; MxRenderer::ReusableBuffer &gt;, 32 &gt;</text>
</a>
</g>
</g>
<!-- Node9&#45;&gt;Node16 -->
<g id="edge23" class="edge">
<title>Node9&#45;&gt;Node16</title>
<path fill="none" stroke="#9a32cd" stroke-dasharray="5,2" d="M188.92,-67.7C206.72,-48.84 234.98,-23.52 266,-13.4 380.95,24.13 523.55,-26.17 593.59,-56.84"/>
<polygon fill="#9a32cd" stroke="#9a32cd" points="186.11,-65.58 181.95,-75.32 191.28,-70.3 186.11,-65.58"/>
<text text-anchor="middle" x="319.5" y="-16.4" font-family="Helvetica,sans-Serif" font-size="10.00"> d</text>
</g>
<!-- Node10 -->
<g id="node10" class="node">
<title>Node10</title>
<g id="a_node10"><a xlink:href="class_mx_ref_counter.html" target="_top" xlink:title=" ">
<polygon fill="none" stroke="black" points="0,-80.9 0,-99.9 78,-99.9 78,-80.9 0,-80.9"/>
<text text-anchor="middle" x="39" y="-87.9" font-family="Helvetica,sans-Serif" font-size="10.00">MxRefCounter</text>
</a>
</g>
</g>
<!-- Node10&#45;&gt;Node9 -->
<g id="edge11" class="edge">
<title>Node10&#45;&gt;Node9</title>
<path fill="none" stroke="midnightblue" d="M88.46,-90.4C97.03,-90.4 105.98,-90.4 114.66,-90.4"/>
<polygon fill="midnightblue" stroke="midnightblue" points="88.25,-86.9 78.25,-90.4 88.25,-93.9 88.25,-86.9"/>
</g>
<!-- Node11&#45;&gt;Node8 -->
<g id="edge12" class="edge">
<title>Node11&#45;&gt;Node8</title>
<path fill="none" stroke="orange" stroke-dasharray="5,2" d="M346.86,-145.51C359.48,-154.45 375.26,-164.03 391,-169.4 424.62,-180.86 517.86,-186.71 579.27,-189.4"/>
<polygon fill="orange" stroke="orange" points="348.8,-142.59 338.67,-139.48 344.65,-148.23 348.8,-142.59"/>
<text text-anchor="middle" x="460.5" y="-190.4" font-family="Helvetica,sans-Serif" font-size="10.00"> &lt; MxGpuArray &gt;</text>
</g>
<!-- Node11&#45;&gt;Node14 -->
<g id="edge18" class="edge">
<title>Node11&#45;&gt;Node14</title>
<path fill="none" stroke="orange" stroke-dasharray="5,2" d="M383.05,-126.97C431.4,-128.96 498.82,-131.73 551.97,-133.92"/>
<polygon fill="orange" stroke="orange" points="383.17,-123.47 373.04,-126.56 382.88,-130.47 383.17,-123.47"/>
<text text-anchor="start" x="391" y="-158.4" font-family="Helvetica,sans-Serif" font-size="10.00"> &lt; MxRenderer::ReusableVbo,</text>
<text text-anchor="start" x="391" y="-147.4" font-family="Helvetica,sans-Serif" font-size="10.00"> MxClassInitializer&lt; MxRenderer</text>
<text text-anchor="middle" x="460.5" y="-136.4" font-family="Helvetica,sans-Serif" font-size="10.00">::ReusableVbo &gt;, 32 &gt;</text>
</g>
<!-- Node11&#45;&gt;Node16 -->
<g id="edge24" class="edge">
<title>Node11&#45;&gt;Node16</title>
<path fill="none" stroke="orange" stroke-dasharray="5,2" d="M355.65,-104.74C366.65,-99.48 379.04,-94.42 391,-91.4 441.91,-78.54 500.57,-74.81 547.79,-74.4"/>
<polygon fill="orange" stroke="orange" points="353.77,-101.77 346.39,-109.37 356.9,-108.03 353.77,-101.77"/>
<text text-anchor="start" x="391" y="-116.4" font-family="Helvetica,sans-Serif" font-size="10.00"> &lt; MxRenderer::ReusableBuffer,</text>
<text text-anchor="start" x="391" y="-105.4" font-family="Helvetica,sans-Serif" font-size="10.00"> MxClassInitializer&lt; MxRenderer</text>
<text text-anchor="middle" x="460.5" y="-94.4" font-family="Helvetica,sans-Serif" font-size="10.00">::ReusableBuffer &gt;, 32 &gt;</text>
</g>
<!-- Node12 -->
<g id="node12" class="node">
<title>Node12</title>
<g id="a_node12"><a xlink:href="class_mx_vector.html" target="_top" xlink:title=" ">
<polygon fill="none" stroke="black" points="590,-219.9 590,-238.9 685,-238.9 685,-219.9 590,-219.9"/>
<text text-anchor="middle" x="637.5" y="-226.9" font-family="Helvetica,sans-Serif" font-size="10.00">MxVector&lt; 2, int &gt;</text>
</a>
</g>
</g>
<!-- Node12&#45;&gt;Node2 -->
<g id="edge14" class="edge">
<title>Node12&#45;&gt;Node2</title>
<path fill="none" stroke="#9a32cd" stroke-dasharray="5,2" d="M695.26,-228.27C734.68,-229.88 787.08,-236.98 827,-260.4 849.3,-273.48 865.67,-300.31 873.27,-314.73"/>
<polygon fill="#9a32cd" stroke="#9a32cd" points="695.12,-224.76 685.02,-227.96 694.91,-231.76 695.12,-224.76"/>
<text text-anchor="middle" x="786" y="-263.4" font-family="Helvetica,sans-Serif" font-size="10.00"> pScreenSize</text>
</g>
<!-- Node13 -->
<g id="node13" class="node">
<title>Node13</title>
<g id="a_node13"><a xlink:href="class_mx_vector.html" target="_top" xlink:title=" ">
<polygon fill="none" stroke="black" points="273,-246.9 273,-265.9 366,-265.9 366,-246.9 273,-246.9"/>
<text text-anchor="middle" x="319.5" y="-253.9" font-family="Helvetica,sans-Serif" font-size="10.00">MxVector&lt; N, T &gt;</text>
</a>
</g>
</g>
<!-- Node13&#45;&gt;Node12 -->
<g id="edge15" class="edge">
<title>Node13&#45;&gt;Node12</title>
<path fill="none" stroke="orange" stroke-dasharray="5,2" d="M376.28,-251.63C437,-246.44 533.01,-238.24 589.87,-233.38"/>
<polygon fill="orange" stroke="orange" points="375.78,-248.16 366.11,-252.5 376.37,-255.14 375.78,-248.16"/>
<text text-anchor="middle" x="460.5" y="-253.4" font-family="Helvetica,sans-Serif" font-size="10.00"> &lt; 2, int &gt;</text>
</g>
<!-- Node14&#45;&gt;Node2 -->
<g id="edge16" class="edge">
<title>Node14&#45;&gt;Node2</title>
<path fill="none" stroke="#9a32cd" stroke-dasharray="5,2" d="M733.32,-137.74C766.31,-142.36 801.41,-152.96 827,-175.4 869.76,-212.9 876.7,-287.82 877.8,-314.6"/>
<polygon fill="#9a32cd" stroke="#9a32cd" points="733.52,-134.24 723.17,-136.49 732.67,-141.18 733.52,-134.24"/>
<text text-anchor="middle" x="786" y="-178.4" font-family="Helvetica,sans-Serif" font-size="10.00"> pReusableVbos</text>
</g>
<!-- Node15&#45;&gt;Node2 -->
<g id="edge19" class="edge">
<title>Node15&#45;&gt;Node2</title>
<path fill="none" stroke="#9a32cd" stroke-dasharray="5,2" d="M690.35,-559.08C732.29,-562.22 790.22,-559.16 827,-526.4 856.64,-499.99 872.95,-370.36 876.99,-333.94"/>
<polygon fill="#9a32cd" stroke="#9a32cd" points="690.59,-555.59 680.32,-558.19 689.97,-562.56 690.59,-555.59"/>
<text text-anchor="middle" x="786" y="-560.4" font-family="Helvetica,sans-Serif" font-size="10.00"> pIconProgram</text>
</g>
<!-- Node16&#45;&gt;Node2 -->
<g id="edge22" class="edge">
<title>Node16&#45;&gt;Node2</title>
<path fill="none" stroke="#9a32cd" stroke-dasharray="5,2" d="M737.31,-82.71C769.63,-89.19 803.29,-101.72 827,-125.4 854.64,-152.99 872.31,-279.01 876.84,-314.86"/>
<polygon fill="#9a32cd" stroke="#9a32cd" points="737.8,-79.25 727.33,-80.9 736.54,-86.13 737.8,-79.25"/>
<text text-anchor="middle" x="786" y="-128.4" font-family="Helvetica,sans-Serif" font-size="10.00"> pReusableMem</text>
</g>
</g>
</svg>
