<?xml version="1.0" encoding="UTF-8" standalone="no"?>
<!DOCTYPE svg PUBLIC "-//W3C//DTD SVG 1.1//EN"
 "http://www.w3.org/Graphics/SVG/1.1/DTD/svg11.dtd">
<!-- Generated by graphviz version 2.44.0 ()
 -->
<!-- Title: MxRenderer Pages: 1 -->
<svg width="1225pt" height="240pt"
 viewBox="0.00 0.00 1225.00 240.00" xmlns="http://www.w3.org/2000/svg" xmlns:xlink="http://www.w3.org/1999/xlink">
<g id="graph0" class="graph" transform="scale(1 1) rotate(0) translate(4 236)">
<title>MxRenderer</title>
<!-- Node1 -->
<g id="node1" class="node">
<title>Node1</title>
<g id="a_node1"><a xlink:title="The MxRenderer keeps track of the rendering state and resources.">
<polygon fill="#bfbfbf" stroke="black" points="800,-95.5 800,-114.5 868,-114.5 868,-95.5 800,-95.5"/>
<text text-anchor="middle" x="834" y="-102.5" font-family="Helvetica,sans-Serif" font-size="10.00">MxRenderer</text>
</a>
</g>
</g>
<!-- Node4 -->
<g id="node4" class="node">
<title>Node4</title>
<g id="a_node4"><a xlink:href="class_mx_shader_program.html" target="_top" xlink:title=" ">
<polygon fill="none" stroke="black" points="967,-163.5 967,-182.5 1064,-182.5 1064,-163.5 967,-163.5"/>
<text text-anchor="middle" x="1015.5" y="-170.5" font-family="Helvetica,sans-Serif" font-size="10.00">MxShaderProgram</text>
</a>
</g>
</g>
<!-- Node1&#45;&gt;Node4 -->
<g id="edge4" class="edge">
<title>Node1&#45;&gt;Node4</title>
<path fill="none" stroke="#9a32cd" stroke-dasharray="5,2" d="M852.84,-121.16C862.14,-128.8 874.04,-137.44 886,-143 911.45,-154.82 941.97,-162.2 966.88,-166.68"/>
<polygon fill="#9a32cd" stroke="#9a32cd" points="854.99,-118.39 845.12,-114.54 850.44,-123.71 854.99,-118.39"/>
<text text-anchor="middle" x="917.5" y="-165" font-family="Helvetica,sans-Serif" font-size="10.00"> pRenderer</text>
</g>
<!-- Node16 -->
<g id="node16" class="node">
<title>Node16</title>
<g id="a_node16"><a xlink:href="class_mx_gpu_program.html" target="_top" xlink:title=" ">
<polygon fill="none" stroke="black" points="973.5,-19.5 973.5,-38.5 1057.5,-38.5 1057.5,-19.5 973.5,-19.5"/>
<text text-anchor="middle" x="1015.5" y="-26.5" font-family="Helvetica,sans-Serif" font-size="10.00">MxGpuProgram</text>
</a>
</g>
</g>
<!-- Node1&#45;&gt;Node16 -->
<g id="edge22" class="edge">
<title>Node1&#45;&gt;Node16</title>
<path fill="none" stroke="#9a32cd" stroke-dasharray="5,2" d="M849.19,-87.52C858.57,-77.11 871.74,-64.51 886,-57 913.07,-42.74 947.01,-35.74 973.21,-32.3"/>
<polygon fill="#9a32cd" stroke="#9a32cd" points="846.4,-85.4 842.53,-95.26 851.71,-89.96 846.4,-85.4"/>
<text text-anchor="middle" x="917.5" y="-60" font-family="Helvetica,sans-Serif" font-size="10.00"> pRenderer</text>
</g>
<!-- Node2 -->
<g id="node2" class="node">
<title>Node2</title>
<g id="a_node2"><a xlink:title=" ">
<polygon fill="none" stroke="#bfbfbf" points="565,-212.5 565,-231.5 674,-231.5 674,-212.5 565,-212.5"/>
<text text-anchor="middle" x="619.5" y="-219.5" font-family="Helvetica,sans-Serif" font-size="10.00">MxOpenGLFunctions</text>
</a>
</g>
</g>
<!-- Node2&#45;&gt;Node1 -->
<g id="edge1" class="edge">
<title>Node2&#45;&gt;Node1</title>
<path fill="none" stroke="midnightblue" d="M681.06,-209.91C688.53,-207.88 696,-205.58 703,-203 740.13,-189.34 750.74,-186.25 782,-162 800.05,-148 816.86,-127.08 825.96,-114.86"/>
<polygon fill="midnightblue" stroke="midnightblue" points="680.08,-206.55 671.26,-212.43 681.82,-213.33 680.08,-206.55"/>
</g>
<!-- Node3 -->
<g id="node3" class="node">
<title>Node3</title>
<g id="a_node3"><a xlink:href="class_mx_vector_program.html" target="_top" xlink:title=" ">
<polygon fill="none" stroke="black" points="1111.5,-206.5 1111.5,-225.5 1206.5,-225.5 1206.5,-206.5 1111.5,-206.5"/>
<text text-anchor="middle" x="1159" y="-213.5" font-family="Helvetica,sans-Serif" font-size="10.00">MxVectorProgram</text>
</a>
</g>
</g>
<!-- Node3&#45;&gt;Node1 -->
<g id="edge2" class="edge">
<title>Node3&#45;&gt;Node1</title>
<path fill="none" stroke="#9a32cd" stroke-dasharray="5,2" d="M1101.27,-220.92C1042.77,-223.19 951.12,-218.63 886,-177 861.87,-161.57 845.78,-130.26 838.86,-114.51"/>
<polygon fill="#9a32cd" stroke="#9a32cd" points="1101.62,-224.41 1111.44,-220.45 1101.29,-217.42 1101.62,-224.41"/>
<text text-anchor="middle" x="1015.5" y="-224" font-family="Helvetica,sans-Serif" font-size="10.00"> pVectorProgram</text>
</g>
<!-- Node4&#45;&gt;Node3 -->
<g id="edge3" class="edge">
<title>Node4&#45;&gt;Node3</title>
<path fill="none" stroke="midnightblue" d="M1057.65,-185.51C1079.68,-192.2 1106.37,-200.31 1126.68,-206.48"/>
<polygon fill="midnightblue" stroke="midnightblue" points="1058.49,-182.1 1047.9,-182.54 1056.45,-188.8 1058.49,-182.1"/>
</g>
<!-- Node5 -->
<g id="node5" class="node">
<title>Node5</title>
<g id="a_node5"><a xlink:href="class_mx_color_wheel_program.html" target="_top" xlink:title=" ">
<polygon fill="none" stroke="black" points="1101,-137.5 1101,-156.5 1217,-156.5 1217,-137.5 1101,-137.5"/>
<text text-anchor="middle" x="1159" y="-144.5" font-family="Helvetica,sans-Serif" font-size="10.00">MxColorWheelProgram</text>
</a>
</g>
</g>
<!-- Node4&#45;&gt;Node5 -->
<g id="edge6" class="edge">
<title>Node4&#45;&gt;Node5</title>
<path fill="none" stroke="midnightblue" d="M1074.29,-166.46C1077.24,-166 1080.16,-165.51 1083,-165 1095.78,-162.7 1109.65,-159.56 1121.94,-156.55"/>
<polygon fill="midnightblue" stroke="midnightblue" points="1073.57,-163.03 1064.19,-167.94 1074.59,-169.95 1073.57,-163.03"/>
</g>
<!-- Node15 -->
<g id="node15" class="node">
<title>Node15</title>
<g id="a_node15"><a xlink:href="class_mx_icon_program.html" target="_top" xlink:title=" ">
<polygon fill="none" stroke="black" points="1116.5,-95.5 1116.5,-114.5 1201.5,-114.5 1201.5,-95.5 1116.5,-95.5"/>
<text text-anchor="middle" x="1159" y="-102.5" font-family="Helvetica,sans-Serif" font-size="10.00">MxIconProgram</text>
</a>
</g>
</g>
<!-- Node4&#45;&gt;Node15 -->
<g id="edge20" class="edge">
<title>Node4&#45;&gt;Node15</title>
<path fill="none" stroke="midnightblue" d="M1042.43,-158.27C1058.97,-149.11 1080.98,-137.34 1101,-128 1111.25,-123.22 1122.79,-118.45 1132.78,-114.51"/>
<polygon fill="midnightblue" stroke="midnightblue" points="1040.41,-155.39 1033.39,-163.33 1043.82,-161.5 1040.41,-155.39"/>
</g>
<!-- Node5&#45;&gt;Node1 -->
<g id="edge5" class="edge">
<title>Node5&#45;&gt;Node1</title>
<path fill="none" stroke="#9a32cd" stroke-dasharray="5,2" d="M1090.95,-138.53C1035.89,-131.54 955.87,-121.29 886,-112 880.24,-111.23 874.12,-110.41 868.19,-109.6"/>
<polygon fill="#9a32cd" stroke="#9a32cd" points="1090.57,-142.01 1100.94,-139.8 1091.46,-135.07 1090.57,-142.01"/>
<text text-anchor="middle" x="1015.5" y="-138" font-family="Helvetica,sans-Serif" font-size="10.00"> pColorWheelEffect</text>
</g>
<!-- Node6 -->
<g id="node6" class="node">
<title>Node6</title>
<g id="a_node6"><a xlink:href="class_mx_list.html" target="_top" xlink:title=" ">
<polygon fill="none" stroke="black" points="536,-152.5 536,-193.5 703,-193.5 703,-152.5 536,-152.5"/>
<text text-anchor="start" x="544" y="-181.5" font-family="Helvetica,sans-Serif" font-size="10.00">MxList&lt; MxCachedGpuArray,</text>
<text text-anchor="start" x="544" y="-170.5" font-family="Helvetica,sans-Serif" font-size="10.00"> MxClassInitializer&lt; MxCachedGpu</text>
<text text-anchor="middle" x="619.5" y="-159.5" font-family="Helvetica,sans-Serif" font-size="10.00">Array &gt;, 32 &gt;</text>
</a>
</g>
</g>
<!-- Node6&#45;&gt;Node1 -->
<g id="edge7" class="edge">
<title>Node6&#45;&gt;Node1</title>
<path fill="none" stroke="#9a32cd" stroke-dasharray="5,2" d="M712.81,-150.82C735.67,-144.52 759.93,-137.13 782,-129 793.02,-124.94 804.91,-119.41 814.44,-114.69"/>
<polygon fill="#9a32cd" stroke="#9a32cd" points="711.85,-147.45 703.12,-153.45 713.68,-154.21 711.85,-147.45"/>
<text text-anchor="middle" x="751.5" y="-150" font-family="Helvetica,sans-Serif" font-size="10.00"> pVboList</text>
</g>
<!-- Node7 -->
<g id="node7" class="node">
<title>Node7</title>
<g id="a_node7"><a xlink:href="struct_mx_list_1_1_data.html" target="_top" xlink:title="these members are public to allow unions">
<polygon fill="none" stroke="black" points="115,-96 115,-126 222,-126 222,-96 115,-96"/>
<text text-anchor="start" x="123" y="-114" font-family="Helvetica,sans-Serif" font-size="10.00">MxList&lt; T, Initializer,</text>
<text text-anchor="middle" x="168.5" y="-103" font-family="Helvetica,sans-Serif" font-size="10.00"> Prealloc &gt;::Data</text>
</a>
</g>
</g>
<!-- Node7&#45;&gt;Node6 -->
<g id="edge8" class="edge">
<title>Node7&#45;&gt;Node6</title>
<path fill="none" stroke="#9a32cd" stroke-dasharray="5,2" d="M231.95,-127.95C243.25,-130.8 254.95,-133.6 266,-136 321.12,-147.97 335,-151.25 391,-158 438.84,-163.77 492.64,-167.44 535.9,-169.71"/>
<polygon fill="#9a32cd" stroke="#9a32cd" points="232.71,-124.53 222.16,-125.45 230.98,-131.31 232.71,-124.53"/>
<text text-anchor="middle" x="319.5" y="-158" font-family="Helvetica,sans-Serif" font-size="10.00"> d</text>
</g>
<!-- Node9 -->
<g id="node9" class="node">
<title>Node9</title>
<g id="a_node9"><a xlink:href="class_mx_list.html" target="_top" xlink:title=" ">
<polygon fill="none" stroke="black" points="266,-96 266,-126 373,-126 373,-96 266,-96"/>
<text text-anchor="start" x="274" y="-114" font-family="Helvetica,sans-Serif" font-size="10.00">MxList&lt; T, Initializer,</text>
<text text-anchor="middle" x="319.5" y="-103" font-family="Helvetica,sans-Serif" font-size="10.00"> Prealloc &gt;</text>
</a>
</g>
</g>
<!-- Node7&#45;&gt;Node9 -->
<g id="edge11" class="edge">
<title>Node7&#45;&gt;Node9</title>
<path fill="none" stroke="#9a32cd" stroke-dasharray="5,2" d="M232.21,-111C243.44,-111 255.03,-111 265.94,-111"/>
<polygon fill="#9a32cd" stroke="#9a32cd" points="232.03,-107.5 222.03,-111 232.03,-114.5 232.03,-107.5"/>
<text text-anchor="middle" x="244" y="-114" font-family="Helvetica,sans-Serif" font-size="10.00"> d</text>
</g>
<!-- Node12 -->
<g id="node12" class="node">
<title>Node12</title>
<g id="a_node12"><a xlink:href="class_mx_list.html" target="_top" xlink:title=" ">
<polygon fill="none" stroke="black" points="561.5,-38.5 561.5,-57.5 677.5,-57.5 677.5,-38.5 561.5,-38.5"/>
<text text-anchor="middle" x="619.5" y="-45.5" font-family="Helvetica,sans-Serif" font-size="10.00">MxList&lt; MxGpuArray &gt;</text>
</a>
</g>
</g>
<!-- Node7&#45;&gt;Node12 -->
<g id="edge15" class="edge">
<title>Node7&#45;&gt;Node12</title>
<path fill="none" stroke="#9a32cd" stroke-dasharray="5,2" d="M213.83,-92.1C229.97,-85.97 248.55,-79.79 266,-76 368.44,-53.78 491.05,-48.74 561.34,-47.85"/>
<polygon fill="#9a32cd" stroke="#9a32cd" points="212.17,-88.99 204.12,-95.88 214.71,-95.51 212.17,-88.99"/>
<text text-anchor="middle" x="319.5" y="-79" font-family="Helvetica,sans-Serif" font-size="10.00"> d</text>
</g>
<!-- Node8 -->
<g id="node8" class="node">
<title>Node8</title>
<g id="a_node8"><a xlink:href="class_mx_ref_counter.html" target="_top" xlink:title=" ">
<polygon fill="none" stroke="black" points="0,-101.5 0,-120.5 78,-120.5 78,-101.5 0,-101.5"/>
<text text-anchor="middle" x="39" y="-108.5" font-family="Helvetica,sans-Serif" font-size="10.00">MxRefCounter</text>
</a>
</g>
</g>
<!-- Node8&#45;&gt;Node7 -->
<g id="edge9" class="edge">
<title>Node8&#45;&gt;Node7</title>
<path fill="none" stroke="midnightblue" d="M88.46,-111C97.03,-111 105.98,-111 114.66,-111"/>
<polygon fill="midnightblue" stroke="midnightblue" points="88.25,-107.5 78.25,-111 88.25,-114.5 88.25,-107.5"/>
</g>
<!-- Node9&#45;&gt;Node6 -->
<g id="edge10" class="edge">
<title>Node9&#45;&gt;Node6</title>
<path fill="none" stroke="orange" stroke-dasharray="5,2" d="M383.48,-104.49C423.71,-102.93 476,-105.83 518,-125 528.29,-129.7 526.46,-136.92 536,-143 541.4,-146.44 547.25,-149.56 553.25,-152.37"/>
<polygon fill="orange" stroke="orange" points="383.08,-101.01 373.27,-104.99 383.43,-108 383.08,-101.01"/>
<text text-anchor="start" x="391" y="-150" font-family="Helvetica,sans-Serif" font-size="10.00"> &lt; MxCachedGpuArray,</text>
<text text-anchor="start" x="391" y="-139" font-family="Helvetica,sans-Serif" font-size="10.00"> MxClassInitializer</text>
<text text-anchor="middle" x="454.5" y="-128" font-family="Helvetica,sans-Serif" font-size="10.00">&lt; MxCachedGpuArray &gt;, 32 &gt;</text>
</g>
<!-- Node9&#45;&gt;Node12 -->
<g id="edge16" class="edge">
<title>Node9&#45;&gt;Node12</title>
<path fill="none" stroke="orange" stroke-dasharray="5,2" d="M374.99,-93.18C380.38,-91.66 385.78,-90.24 391,-89 446.66,-75.78 461.72,-78.25 518,-68 535.76,-64.76 555.24,-60.95 572.28,-57.53"/>
<polygon fill="orange" stroke="orange" points="374,-89.82 365.37,-95.98 375.95,-96.54 374,-89.82"/>
<text text-anchor="middle" x="454.5" y="-92" font-family="Helvetica,sans-Serif" font-size="10.00"> &lt; MxGpuArray &gt;</text>
</g>
<!-- Node10 -->
<g id="node10" class="node">
<title>Node10</title>
<g id="a_node10"><a xlink:href="class_mx_abstract_atlas.html" target="_top" xlink:title=" ">
<polygon fill="none" stroke="black" points="575,-114.5 575,-133.5 664,-133.5 664,-114.5 575,-114.5"/>
<text text-anchor="middle" x="619.5" y="-121.5" font-family="Helvetica,sans-Serif" font-size="10.00">MxAbstractAtlas</text>
</a>
</g>
</g>
<!-- Node10&#45;&gt;Node1 -->
<g id="edge12" class="edge">
<title>Node10&#45;&gt;Node1</title>
<path fill="none" stroke="#9a32cd" stroke-dasharray="5,2" d="M674.04,-119.21C713.65,-115.67 766.34,-110.96 799.98,-107.95"/>
<polygon fill="#9a32cd" stroke="#9a32cd" points="673.66,-115.73 664.02,-120.11 674.29,-122.7 673.66,-115.73"/>
<text text-anchor="middle" x="751.5" y="-117" font-family="Helvetica,sans-Serif" font-size="10.00"> pIconAtlas</text>
</g>
<!-- Node11 -->
<g id="node11" class="node">
<title>Node11</title>
<g id="a_node11"><a xlink:href="class_mx_texture.html" target="_top" xlink:title=" ">
<polygon fill="none" stroke="black" points="588.5,-76.5 588.5,-95.5 650.5,-95.5 650.5,-76.5 588.5,-76.5"/>
<text text-anchor="middle" x="619.5" y="-83.5" font-family="Helvetica,sans-Serif" font-size="10.00">MxTexture</text>
</a>
</g>
</g>
<!-- Node11&#45;&gt;Node1 -->
<g id="edge13" class="edge">
<title>Node11&#45;&gt;Node1</title>
<path fill="none" stroke="#9a32cd" stroke-dasharray="5,2" d="M660.8,-86.18C693.57,-86.76 740.94,-88.59 782,-94 787.84,-94.77 794,-95.86 799.94,-97.05"/>
<polygon fill="#9a32cd" stroke="#9a32cd" points="660.74,-82.68 650.69,-86.03 660.64,-89.68 660.74,-82.68"/>
<text text-anchor="middle" x="751.5" y="-97" font-family="Helvetica,sans-Serif" font-size="10.00"> pTextures</text>
</g>
<!-- Node12&#45;&gt;Node1 -->
<g id="edge14" class="edge">
<title>Node12&#45;&gt;Node1</title>
<path fill="none" stroke="#9a32cd" stroke-dasharray="5,2" d="M687.84,-52.27C717.43,-55.69 752.16,-61.87 782,-73 796.3,-78.33 810.88,-87.99 820.76,-95.31"/>
<polygon fill="#9a32cd" stroke="#9a32cd" points="687.92,-48.76 677.61,-51.17 687.17,-55.72 687.92,-48.76"/>
<text text-anchor="middle" x="751.5" y="-76" font-family="Helvetica,sans-Serif" font-size="10.00"> pBufferViews</text>
</g>
<!-- Node13 -->
<g id="node13" class="node">
<title>Node13</title>
<g id="a_node13"><a xlink:href="class_mx_vector.html" target="_top" xlink:title=" ">
<polygon fill="none" stroke="black" points="572,-0.5 572,-19.5 667,-19.5 667,-0.5 572,-0.5"/>
<text text-anchor="middle" x="619.5" y="-7.5" font-family="Helvetica,sans-Serif" font-size="10.00">MxVector&lt; 2, int &gt;</text>
</a>
</g>
</g>
<!-- Node13&#45;&gt;Node1 -->
<g id="edge17" class="edge">
<title>Node13&#45;&gt;Node1</title>
<path fill="none" stroke="#9a32cd" stroke-dasharray="5,2" d="M677.61,-12.32C710.16,-15.84 750.59,-24.08 782,-43 803.49,-55.94 819.97,-81.34 827.87,-95.27"/>
<polygon fill="#9a32cd" stroke="#9a32cd" points="677.63,-8.8 667.34,-11.33 676.96,-15.77 677.63,-8.8"/>
<text text-anchor="middle" x="751.5" y="-46" font-family="Helvetica,sans-Serif" font-size="10.00"> pScreenSize</text>
</g>
<!-- Node14 -->
<g id="node14" class="node">
<title>Node14</title>
<g id="a_node14"><a xlink:href="class_mx_vector.html" target="_top" xlink:title=" ">
<polygon fill="none" stroke="black" points="273,-0.5 273,-19.5 366,-19.5 366,-0.5 273,-0.5"/>
<text text-anchor="middle" x="319.5" y="-7.5" font-family="Helvetica,sans-Serif" font-size="10.00">MxVector&lt; N, T &gt;</text>
</a>
</g>
</g>
<!-- Node14&#45;&gt;Node13 -->
<g id="edge18" class="edge">
<title>Node14&#45;&gt;Node13</title>
<path fill="none" stroke="orange" stroke-dasharray="5,2" d="M376.26,-10C432.72,-10 519.03,-10 571.94,-10"/>
<polygon fill="orange" stroke="orange" points="376.08,-6.5 366.08,-10 376.08,-13.5 376.08,-6.5"/>
<text text-anchor="middle" x="454.5" y="-13" font-family="Helvetica,sans-Serif" font-size="10.00"> &lt; 2, int &gt;</text>
</g>
<!-- Node15&#45;&gt;Node1 -->
<g id="edge19" class="edge">
<title>Node15&#45;&gt;Node1</title>
<path fill="none" stroke="#9a32cd" stroke-dasharray="5,2" d="M1106.19,-99.15C1092.49,-97.84 1077.7,-96.65 1064,-96 994.25,-92.67 912.51,-98.13 868,-101.9"/>
<polygon fill="#9a32cd" stroke="#9a32cd" points="1106.12,-102.66 1116.41,-100.16 1106.81,-95.69 1106.12,-102.66"/>
<text text-anchor="middle" x="1015.5" y="-99" font-family="Helvetica,sans-Serif" font-size="10.00"> pIconProgram</text>
</g>
<!-- Node16&#45;&gt;Node1 -->
<g id="edge21" class="edge">
<title>Node16&#45;&gt;Node1</title>
<path fill="none" stroke="#9a32cd" stroke-dasharray="5,2" d="M975.9,-17.02C949.02,-11.02 913.26,-7.85 886,-23 857.72,-38.72 843.09,-77.34 837.61,-95.4"/>
<polygon fill="#9a32cd" stroke="#9a32cd" points="975.18,-20.45 985.72,-19.43 976.84,-13.65 975.18,-20.45"/>
<text text-anchor="middle" x="917.5" y="-26" font-family="Helvetica,sans-Serif" font-size="10.00"> pCurrProgram</text>
</g>
</g>
</svg>
