<?xml version="1.0" encoding="UTF-8" standalone="no"?>
<!DOCTYPE svg PUBLIC "-//W3C//DTD SVG 1.1//EN"
 "http://www.w3.org/Graphics/SVG/1.1/DTD/svg11.dtd">
<!-- Generated by graphviz version 2.44.0 ()
 -->
<!-- Title: MxApplication Pages: 1 -->
<svg width="1306pt" height="262pt"
 viewBox="0.00 0.00 1306.00 262.17" xmlns="http://www.w3.org/2000/svg" xmlns:xlink="http://www.w3.org/1999/xlink">
<g id="graph0" class="graph" transform="scale(1 1) rotate(0) translate(4 258.17)">
<title>MxApplication</title>
<!-- Node1 -->
<g id="node1" class="node">
<title>Node1</title>
<g id="a_node1"><a xlink:title=" ">
<polygon fill="#bfbfbf" stroke="black" points="1221,-81.67 1221,-100.67 1298,-100.67 1298,-81.67 1221,-81.67"/>
<text text-anchor="middle" x="1259.5" y="-88.67" font-family="Helvetica,sans-Serif" font-size="10.00">MxApplication</text>
</a>
</g>
</g>
<!-- Node2 -->
<g id="node2" class="node">
<title>Node2</title>
<g id="a_node2"><a xlink:href="class_mx_widget.html" target="_top" xlink:title=" ">
<polygon fill="none" stroke="black" points="935,-205.67 935,-224.67 994,-224.67 994,-205.67 935,-205.67"/>
<text text-anchor="middle" x="964.5" y="-212.67" font-family="Helvetica,sans-Serif" font-size="10.00">MxWidget</text>
</a>
</g>
</g>
<!-- Node2&#45;&gt;Node1 -->
<g id="edge1" class="edge">
<title>Node2&#45;&gt;Node1</title>
<path fill="none" stroke="#9a32cd" stroke-dasharray="5,2" d="M1004.13,-207.57C1033.75,-201.07 1075.3,-190.5 1110,-176.17 1162.17,-154.62 1218.7,-118.23 1244.38,-100.91"/>
<polygon fill="#9a32cd" stroke="#9a32cd" points="1003.23,-204.18 994.18,-209.7 1004.69,-211.03 1003.23,-204.18"/>
<text text-anchor="middle" x="1062" y="-208.17" font-family="Helvetica,sans-Serif" font-size="10.00"> pWidget</text>
</g>
<!-- Node2&#45;&gt;Node2 -->
<g id="edge4" class="edge">
<title>Node2&#45;&gt;Node2</title>
<path fill="none" stroke="#9a32cd" stroke-dasharray="5,2" d="M947.09,-234.57C948.26,-239.48 954.06,-243.17 964.5,-243.17 981.21,-243.17 986.04,-233.73 978.99,-224.92"/>
<polygon fill="#9a32cd" stroke="#9a32cd" points="950.47,-235.51 950.01,-224.92 943.77,-233.48 950.47,-235.51"/>
<text text-anchor="middle" x="964.5" y="-246.17" font-family="Helvetica,sans-Serif" font-size="10.00"> pParent</text>
</g>
<!-- Node3 -->
<g id="node3" class="node">
<title>Node3</title>
<g id="a_node3"><a xlink:href="class_mx_vector.html" target="_top" xlink:title=" ">
<polygon fill="none" stroke="black" points="582,-223.67 582,-242.67 685,-242.67 685,-223.67 582,-223.67"/>
<text text-anchor="middle" x="633.5" y="-230.67" font-family="Helvetica,sans-Serif" font-size="10.00">MxVector&lt; 2, float &gt;</text>
</a>
</g>
</g>
<!-- Node3&#45;&gt;Node2 -->
<g id="edge2" class="edge">
<title>Node3&#45;&gt;Node2</title>
<path fill="none" stroke="#9a32cd" stroke-dasharray="5,2" d="M695.36,-229.84C766.58,-225.94 881.51,-219.65 934.74,-216.74"/>
<polygon fill="#9a32cd" stroke="#9a32cd" points="694.98,-226.35 685.19,-230.39 695.36,-233.34 694.98,-226.35"/>
<text text-anchor="middle" x="772.5" y="-241.17" font-family="Helvetica,sans-Serif" font-size="10.00"> pPos</text>
<text text-anchor="middle" x="772.5" y="-230.17" font-family="Helvetica,sans-Serif" font-size="10.00">pSize</text>
</g>
<!-- Node4 -->
<g id="node4" class="node">
<title>Node4</title>
<g id="a_node4"><a xlink:href="class_mx_vector.html" target="_top" xlink:title=" ">
<polygon fill="none" stroke="black" points="273,-204.67 273,-223.67 366,-223.67 366,-204.67 273,-204.67"/>
<text text-anchor="middle" x="319.5" y="-211.67" font-family="Helvetica,sans-Serif" font-size="10.00">MxVector&lt; N, T &gt;</text>
</a>
</g>
</g>
<!-- Node4&#45;&gt;Node3 -->
<g id="edge3" class="edge">
<title>Node4&#45;&gt;Node3</title>
<path fill="none" stroke="orange" stroke-dasharray="5,2" d="M376.34,-217.57C434.68,-221.12 525.39,-226.64 581.75,-230.08"/>
<polygon fill="orange" stroke="orange" points="376.4,-214.06 366.2,-216.95 375.97,-221.05 376.4,-214.06"/>
<text text-anchor="middle" x="460.5" y="-229.17" font-family="Helvetica,sans-Serif" font-size="10.00"> &lt; 2, float &gt;</text>
</g>
<!-- Node13 -->
<g id="node13" class="node">
<title>Node13</title>
<g id="a_node13"><a xlink:href="class_mx_vector.html" target="_top" xlink:title=" ">
<polygon fill="none" stroke="black" points="586,-185.67 586,-204.67 681,-204.67 681,-185.67 586,-185.67"/>
<text text-anchor="middle" x="633.5" y="-192.67" font-family="Helvetica,sans-Serif" font-size="10.00">MxVector&lt; 2, int &gt;</text>
</a>
</g>
</g>
<!-- Node4&#45;&gt;Node13 -->
<g id="edge15" class="edge">
<title>Node4&#45;&gt;Node13</title>
<path fill="none" stroke="orange" stroke-dasharray="5,2" d="M376.38,-204.81C381.31,-204.18 386.24,-203.61 391,-203.17 458.45,-196.81 536.91,-195.29 585.64,-195.03"/>
<polygon fill="orange" stroke="orange" points="375.72,-201.37 366.29,-206.19 376.67,-208.3 375.72,-201.37"/>
<text text-anchor="middle" x="460.5" y="-206.17" font-family="Helvetica,sans-Serif" font-size="10.00"> &lt; 2, int &gt;</text>
</g>
<!-- Node5 -->
<g id="node5" class="node">
<title>Node5</title>
<g id="a_node5"><a xlink:href="class_mx_gui_renderer.html" target="_top" xlink:title=" ">
<polygon fill="none" stroke="black" points="1020.5,-100.67 1020.5,-119.67 1103.5,-119.67 1103.5,-100.67 1020.5,-100.67"/>
<text text-anchor="middle" x="1062" y="-107.67" font-family="Helvetica,sans-Serif" font-size="10.00">MxGuiRenderer</text>
</a>
</g>
</g>
<!-- Node5&#45;&gt;Node1 -->
<g id="edge5" class="edge">
<title>Node5&#45;&gt;Node1</title>
<path fill="none" stroke="#9a32cd" stroke-dasharray="5,2" d="M1113.56,-105.25C1147.02,-102 1190.2,-97.8 1220.7,-94.84"/>
<polygon fill="#9a32cd" stroke="#9a32cd" points="1113.12,-101.78 1103.51,-106.23 1113.8,-108.75 1113.12,-101.78"/>
<text text-anchor="middle" x="1165.5" y="-106.17" font-family="Helvetica,sans-Serif" font-size="10.00"> pRenderer</text>
</g>
<!-- Node6 -->
<g id="node6" class="node">
<title>Node6</title>
<g id="a_node6"><a xlink:href="class_mx_renderer.html" target="_top" xlink:title="The MxRenderer keeps track of the rendering state and resources.">
<polygon fill="none" stroke="black" points="836.5,-122.67 836.5,-141.67 904.5,-141.67 904.5,-122.67 836.5,-122.67"/>
<text text-anchor="middle" x="870.5" y="-129.67" font-family="Helvetica,sans-Serif" font-size="10.00">MxRenderer</text>
</a>
</g>
</g>
<!-- Node6&#45;&gt;Node5 -->
<g id="edge6" class="edge">
<title>Node6&#45;&gt;Node5</title>
<path fill="none" stroke="midnightblue" d="M914.8,-126.42C920.91,-125.64 927.11,-124.87 933,-124.17 962.19,-120.67 995.16,-117.07 1020.33,-114.4"/>
<polygon fill="midnightblue" stroke="midnightblue" points="914.15,-122.98 904.68,-127.72 915.04,-129.92 914.15,-122.98"/>
</g>
<!-- Node15 -->
<g id="node15" class="node">
<title>Node15</title>
<g id="a_node15"><a xlink:href="class_mx_gpu_program.html" target="_top" xlink:title=" ">
<polygon fill="none" stroke="black" points="1020,-147.67 1020,-166.67 1104,-166.67 1104,-147.67 1020,-147.67"/>
<text text-anchor="middle" x="1062" y="-154.67" font-family="Helvetica,sans-Serif" font-size="10.00">MxGpuProgram</text>
</a>
</g>
</g>
<!-- Node6&#45;&gt;Node15 -->
<g id="edge20" class="edge">
<title>Node6&#45;&gt;Node15</title>
<path fill="none" stroke="#9a32cd" stroke-dasharray="5,2" d="M901.17,-145.6C911.09,-149.45 922.33,-153.15 933,-155.17 961.61,-160.57 994.46,-160.97 1019.71,-160.07"/>
<polygon fill="#9a32cd" stroke="#9a32cd" points="902.35,-142.3 891.77,-141.75 899.7,-148.78 902.35,-142.3"/>
<text text-anchor="middle" x="964.5" y="-163.17" font-family="Helvetica,sans-Serif" font-size="10.00"> pRenderer</text>
</g>
<!-- Node7 -->
<g id="node7" class="node">
<title>Node7</title>
<g id="a_node7"><a xlink:title=" ">
<polygon fill="none" stroke="#bfbfbf" points="579,-147.67 579,-166.67 688,-166.67 688,-147.67 579,-147.67"/>
<text text-anchor="middle" x="633.5" y="-154.67" font-family="Helvetica,sans-Serif" font-size="10.00">MxOpenGLFunctions</text>
</a>
</g>
</g>
<!-- Node7&#45;&gt;Node6 -->
<g id="edge7" class="edge">
<title>Node7&#45;&gt;Node6</title>
<path fill="none" stroke="midnightblue" d="M698.54,-153.48C731.36,-151.22 771.9,-147.84 808,-143.17 817.25,-141.97 827.23,-140.33 836.4,-138.69"/>
<polygon fill="midnightblue" stroke="midnightblue" points="697.92,-150.01 688.18,-154.18 698.39,-157 697.92,-150.01"/>
</g>
<!-- Node8 -->
<g id="node8" class="node">
<title>Node8</title>
<g id="a_node8"><a xlink:href="class_mx_texture.html" target="_top" xlink:title=" ">
<polygon fill="none" stroke="black" points="602.5,-109.67 602.5,-128.67 664.5,-128.67 664.5,-109.67 602.5,-109.67"/>
<text text-anchor="middle" x="633.5" y="-116.67" font-family="Helvetica,sans-Serif" font-size="10.00">MxTexture</text>
</a>
</g>
</g>
<!-- Node8&#45;&gt;Node6 -->
<g id="edge8" class="edge">
<title>Node8&#45;&gt;Node6</title>
<path fill="none" stroke="#9a32cd" stroke-dasharray="5,2" d="M674.87,-121.4C720.5,-123.92 793.93,-127.99 836.35,-130.33"/>
<polygon fill="#9a32cd" stroke="#9a32cd" points="674.92,-117.9 664.74,-120.84 674.53,-124.89 674.92,-117.9"/>
<text text-anchor="middle" x="772.5" y="-131.17" font-family="Helvetica,sans-Serif" font-size="10.00"> pTextures</text>
</g>
<!-- Node9 -->
<g id="node9" class="node">
<title>Node9</title>
<g id="a_node9"><a xlink:href="class_mx_list.html" target="_top" xlink:title=" ">
<polygon fill="none" stroke="black" points="575.5,-71.67 575.5,-90.67 691.5,-90.67 691.5,-71.67 575.5,-71.67"/>
<text text-anchor="middle" x="633.5" y="-78.67" font-family="Helvetica,sans-Serif" font-size="10.00">MxList&lt; MxGpuArray &gt;</text>
</a>
</g>
</g>
<!-- Node9&#45;&gt;Node6 -->
<g id="edge9" class="edge">
<title>Node9&#45;&gt;Node6</title>
<path fill="none" stroke="#9a32cd" stroke-dasharray="5,2" d="M702.01,-88.9C734.38,-93.41 773.54,-100.04 808,-109.17 821.22,-112.67 835.56,-117.94 847.07,-122.55"/>
<polygon fill="#9a32cd" stroke="#9a32cd" points="702.13,-85.38 691.75,-87.51 701.19,-92.32 702.13,-85.38"/>
<text text-anchor="middle" x="772.5" y="-112.17" font-family="Helvetica,sans-Serif" font-size="10.00"> pBufferViews</text>
</g>
<!-- Node10 -->
<g id="node10" class="node">
<title>Node10</title>
<g id="a_node10"><a xlink:href="struct_mx_list_1_1_data.html" target="_top" xlink:title="these members are public to allow unions">
<polygon fill="none" stroke="black" points="115,-31.17 115,-61.17 222,-61.17 222,-31.17 115,-31.17"/>
<text text-anchor="start" x="123" y="-49.17" font-family="Helvetica,sans-Serif" font-size="10.00">MxList&lt; T, Initializer,</text>
<text text-anchor="middle" x="168.5" y="-38.17" font-family="Helvetica,sans-Serif" font-size="10.00"> Prealloc &gt;::Data</text>
</a>
</g>
</g>
<!-- Node10&#45;&gt;Node9 -->
<g id="edge10" class="edge">
<title>Node10&#45;&gt;Node9</title>
<path fill="none" stroke="#9a32cd" stroke-dasharray="5,2" d="M231.92,-62.66C243.22,-65.37 254.93,-68 266,-70.17 381.41,-92.77 412.46,-92.17 530,-88.17 544.71,-87.66 560.58,-86.76 575.34,-85.76"/>
<polygon fill="#9a32cd" stroke="#9a32cd" points="232.67,-59.24 222.12,-60.27 231.01,-66.04 232.67,-59.24"/>
<text text-anchor="middle" x="319.5" y="-90.17" font-family="Helvetica,sans-Serif" font-size="10.00"> d</text>
</g>
<!-- Node12 -->
<g id="node12" class="node">
<title>Node12</title>
<g id="a_node12"><a xlink:href="class_mx_list.html" target="_top" xlink:title=" ">
<polygon fill="none" stroke="black" points="266,-31.17 266,-61.17 373,-61.17 373,-31.17 266,-31.17"/>
<text text-anchor="start" x="274" y="-49.17" font-family="Helvetica,sans-Serif" font-size="10.00">MxList&lt; T, Initializer,</text>
<text text-anchor="middle" x="319.5" y="-38.17" font-family="Helvetica,sans-Serif" font-size="10.00"> Prealloc &gt;</text>
</a>
</g>
</g>
<!-- Node10&#45;&gt;Node12 -->
<g id="edge13" class="edge">
<title>Node10&#45;&gt;Node12</title>
<path fill="none" stroke="#9a32cd" stroke-dasharray="5,2" d="M232.21,-46.17C243.44,-46.17 255.03,-46.17 265.94,-46.17"/>
<polygon fill="#9a32cd" stroke="#9a32cd" points="232.03,-42.67 222.03,-46.17 232.03,-49.67 232.03,-42.67"/>
<text text-anchor="middle" x="244" y="-49.17" font-family="Helvetica,sans-Serif" font-size="10.00"> d</text>
</g>
<!-- Node14 -->
<g id="node14" class="node">
<title>Node14</title>
<g id="a_node14"><a xlink:href="class_mx_list.html" target="_top" xlink:title=" ">
<polygon fill="none" stroke="black" points="548,-4.67 548,-45.67 719,-45.67 719,-4.67 548,-4.67"/>
<text text-anchor="start" x="556" y="-33.67" font-family="Helvetica,sans-Serif" font-size="10.00">MxList&lt; MxRenderer</text>
<text text-anchor="start" x="556" y="-22.67" font-family="Helvetica,sans-Serif" font-size="10.00">::ReusableVbo, MxClassInitializer</text>
<text text-anchor="middle" x="633.5" y="-11.67" font-family="Helvetica,sans-Serif" font-size="10.00">&lt; MxRenderer::ReusableVbo &gt;, 32 &gt;</text>
</a>
</g>
</g>
<!-- Node10&#45;&gt;Node14 -->
<g id="edge17" class="edge">
<title>Node10&#45;&gt;Node14</title>
<path fill="none" stroke="#9a32cd" stroke-dasharray="5,2" d="M210.78,-27.07C227.54,-20.3 247.32,-13.54 266,-10.17 361.41,7.05 472.97,-1.52 547.72,-11.29"/>
<polygon fill="#9a32cd" stroke="#9a32cd" points="209.17,-23.95 201.29,-31.03 211.87,-30.41 209.17,-23.95"/>
<text text-anchor="middle" x="319.5" y="-13.17" font-family="Helvetica,sans-Serif" font-size="10.00"> d</text>
</g>
<!-- Node11 -->
<g id="node11" class="node">
<title>Node11</title>
<g id="a_node11"><a xlink:href="class_mx_ref_counter.html" target="_top" xlink:title=" ">
<polygon fill="none" stroke="black" points="0,-36.67 0,-55.67 78,-55.67 78,-36.67 0,-36.67"/>
<text text-anchor="middle" x="39" y="-43.67" font-family="Helvetica,sans-Serif" font-size="10.00">MxRefCounter</text>
</a>
</g>
</g>
<!-- Node11&#45;&gt;Node10 -->
<g id="edge11" class="edge">
<title>Node11&#45;&gt;Node10</title>
<path fill="none" stroke="midnightblue" d="M88.46,-46.17C97.03,-46.17 105.98,-46.17 114.66,-46.17"/>
<polygon fill="midnightblue" stroke="midnightblue" points="88.25,-42.67 78.25,-46.17 88.25,-49.67 88.25,-42.67"/>
</g>
<!-- Node12&#45;&gt;Node9 -->
<g id="edge12" class="edge">
<title>Node12&#45;&gt;Node9</title>
<path fill="none" stroke="orange" stroke-dasharray="5,2" d="M383.28,-58.04C385.88,-58.44 388.46,-58.82 391,-59.17 453.77,-67.79 526.2,-73.88 575.24,-77.43"/>
<polygon fill="orange" stroke="orange" points="383.58,-54.55 373.16,-56.42 382.47,-61.46 383.58,-54.55"/>
<text text-anchor="middle" x="460.5" y="-76.17" font-family="Helvetica,sans-Serif" font-size="10.00"> &lt; MxGpuArray &gt;</text>
</g>
<!-- Node12&#45;&gt;Node14 -->
<g id="edge18" class="edge">
<title>Node12&#45;&gt;Node14</title>
<path fill="none" stroke="orange" stroke-dasharray="5,2" d="M376.62,-28.78C381.45,-27.73 386.29,-26.83 391,-26.17 442.79,-18.85 501.45,-18.43 547.99,-19.92"/>
<polygon fill="orange" stroke="orange" points="375.68,-25.4 366.76,-31.11 377.3,-32.21 375.68,-25.4"/>
<text text-anchor="start" x="391" y="-51.17" font-family="Helvetica,sans-Serif" font-size="10.00"> &lt; MxRenderer::ReusableVbo,</text>
<text text-anchor="start" x="391" y="-40.17" font-family="Helvetica,sans-Serif" font-size="10.00"> MxClassInitializer&lt; MxRenderer</text>
<text text-anchor="middle" x="460.5" y="-29.17" font-family="Helvetica,sans-Serif" font-size="10.00">::ReusableVbo &gt;, 32 &gt;</text>
</g>
<!-- Node13&#45;&gt;Node6 -->
<g id="edge14" class="edge">
<title>Node13&#45;&gt;Node6</title>
<path fill="none" stroke="#9a32cd" stroke-dasharray="5,2" d="M691.56,-187.03C725.82,-181.31 769.98,-172.48 808,-160.17 823.07,-155.29 839.35,-147.77 851.37,-141.75"/>
<polygon fill="#9a32cd" stroke="#9a32cd" points="690.57,-183.64 681.27,-188.7 691.7,-190.55 690.57,-183.64"/>
<text text-anchor="middle" x="772.5" y="-181.17" font-family="Helvetica,sans-Serif" font-size="10.00"> pScreenSize</text>
</g>
<!-- Node14&#45;&gt;Node6 -->
<g id="edge16" class="edge">
<title>Node14&#45;&gt;Node6</title>
<path fill="none" stroke="#9a32cd" stroke-dasharray="5,2" d="M729.13,-43.08C756.22,-51.16 784.7,-62.72 808,-79.17 818.89,-86.85 816.31,-94 826,-103.17 833.91,-110.65 843.96,-117.49 852.41,-122.65"/>
<polygon fill="#9a32cd" stroke="#9a32cd" points="729.79,-39.63 719.22,-40.26 727.88,-46.36 729.79,-39.63"/>
<text text-anchor="middle" x="772.5" y="-82.17" font-family="Helvetica,sans-Serif" font-size="10.00"> pReusableVbos</text>
</g>
<!-- Node15&#45;&gt;Node6 -->
<g id="edge19" class="edge">
<title>Node15&#45;&gt;Node6</title>
<path fill="none" stroke="#9a32cd" stroke-dasharray="5,2" d="M1009.75,-146.41C1005.11,-145.59 1000.48,-144.83 996,-144.17 965.17,-139.61 929.79,-136.39 904.64,-134.44"/>
<polygon fill="#9a32cd" stroke="#9a32cd" points="1009.38,-149.9 1019.85,-148.28 1010.65,-143.02 1009.38,-149.9"/>
<text text-anchor="middle" x="964.5" y="-147.17" font-family="Helvetica,sans-Serif" font-size="10.00"> pCurrProgram</text>
</g>
<!-- Node16 -->
<g id="node16" class="node">
<title>Node16</title>
<g id="a_node16"><a xlink:href="class_mx_abstract_atlas.html" target="_top" xlink:title=" ">
<polygon fill="none" stroke="black" points="826,-74.67 826,-93.67 915,-93.67 915,-74.67 826,-74.67"/>
<text text-anchor="middle" x="870.5" y="-81.67" font-family="Helvetica,sans-Serif" font-size="10.00">MxAbstractAtlas</text>
</a>
</g>
</g>
<!-- Node16&#45;&gt;Node5 -->
<g id="edge21" class="edge">
<title>Node16&#45;&gt;Node5</title>
<path fill="none" stroke="#9a32cd" stroke-dasharray="5,2" d="M925.14,-91.47C947.1,-94.46 972.77,-97.97 996,-101.17 1003.9,-102.25 1012.34,-103.42 1020.43,-104.54"/>
<polygon fill="#9a32cd" stroke="#9a32cd" points="925.39,-87.97 915,-90.09 924.44,-94.9 925.39,-87.97"/>
<text text-anchor="middle" x="964.5" y="-104.17" font-family="Helvetica,sans-Serif" font-size="10.00"> pIconAtlas</text>
</g>
<!-- Node17 -->
<g id="node17" class="node">
<title>Node17</title>
<g id="a_node17"><a xlink:href="class_mx_painter.html" target="_top" xlink:title="Holder to the different painters.">
<polygon fill="none" stroke="black" points="1032,-62.67 1032,-81.67 1092,-81.67 1092,-62.67 1032,-62.67"/>
<text text-anchor="middle" x="1062" y="-69.67" font-family="Helvetica,sans-Serif" font-size="10.00">MxPainter</text>
</a>
</g>
</g>
<!-- Node17&#45;&gt;Node1 -->
<g id="edge22" class="edge">
<title>Node17&#45;&gt;Node1</title>
<path fill="none" stroke="#9a32cd" stroke-dasharray="5,2" d="M1102.27,-73.49C1130.4,-74.73 1169.13,-77.04 1203,-81.17 1208.83,-81.88 1214.98,-82.8 1220.97,-83.81"/>
<polygon fill="#9a32cd" stroke="#9a32cd" points="1102.18,-69.99 1092.05,-73.07 1101.89,-76.98 1102.18,-69.99"/>
<text text-anchor="middle" x="1165.5" y="-84.17" font-family="Helvetica,sans-Serif" font-size="10.00"> pPainterBuffer</text>
</g>
<!-- Node18 -->
<g id="node18" class="node">
<title>Node18</title>
<g id="a_node18"><a xlink:href="class_mx_gui_aggregation.html" target="_top" xlink:title="The MxGuiAggregation class aggregates UI related data members to allow its access from one place.">
<polygon fill="none" stroke="black" points="1014,-24.67 1014,-43.67 1110,-43.67 1110,-24.67 1014,-24.67"/>
<text text-anchor="middle" x="1062" y="-31.67" font-family="Helvetica,sans-Serif" font-size="10.00">MxGuiAggregation</text>
</a>
</g>
</g>
<!-- Node18&#45;&gt;Node1 -->
<g id="edge23" class="edge">
<title>Node18&#45;&gt;Node1</title>
<path fill="none" stroke="#9a32cd" stroke-dasharray="5,2" d="M1120.11,-39.81C1145.97,-43.52 1176.59,-49.53 1203,-59.17 1218.25,-64.73 1234.16,-74.36 1245.01,-81.6"/>
<polygon fill="#9a32cd" stroke="#9a32cd" points="1120.47,-36.33 1110.09,-38.46 1119.53,-43.27 1120.47,-36.33"/>
<text text-anchor="middle" x="1165.5" y="-62.17" font-family="Helvetica,sans-Serif" font-size="10.00"> pGuiAggregation</text>
</g>
</g>
</svg>
