<?xml version="1.0" encoding="UTF-8" standalone="no"?>
<!DOCTYPE svg PUBLIC "-//W3C//DTD SVG 1.1//EN"
 "http://www.w3.org/Graphics/SVG/1.1/DTD/svg11.dtd">
<!-- Generated by graphviz version 2.44.0 ()
 -->
<!-- Title: MxApplication Pages: 1 -->
<svg width="1351pt" height="323pt"
 viewBox="0.00 0.00 1351.00 323.00" xmlns="http://www.w3.org/2000/svg" xmlns:xlink="http://www.w3.org/1999/xlink">
<g id="graph0" class="graph" transform="scale(1 1) rotate(0) translate(4 319)">
<title>MxApplication</title>
<!-- Node1 -->
<g id="node1" class="node">
<title>Node1</title>
<g id="a_node1"><a xlink:title=" ">
<polygon fill="#bfbfbf" stroke="black" points="1266,-208.5 1266,-227.5 1343,-227.5 1343,-208.5 1266,-208.5"/>
<text text-anchor="middle" x="1304.5" y="-215.5" font-family="Helvetica,sans-Serif" font-size="10.00">MxApplication</text>
</a>
</g>
</g>
<!-- Node2 -->
<g id="node2" class="node">
<title>Node2</title>
<g id="a_node2"><a xlink:href="class_mx_widget.html" target="_top" xlink:title=" ">
<polygon fill="none" stroke="black" points="1077.5,-266.5 1077.5,-285.5 1136.5,-285.5 1136.5,-266.5 1077.5,-266.5"/>
<text text-anchor="middle" x="1107" y="-273.5" font-family="Helvetica,sans-Serif" font-size="10.00">MxWidget</text>
</a>
</g>
</g>
<!-- Node2&#45;&gt;Node1 -->
<g id="edge1" class="edge">
<title>Node2&#45;&gt;Node1</title>
<path fill="none" stroke="#9a32cd" stroke-dasharray="5,2" d="M1146.67,-269.96C1175.16,-264.91 1214.61,-256.64 1248,-245 1261.36,-240.35 1275.69,-233.31 1286.45,-227.59"/>
<polygon fill="#9a32cd" stroke="#9a32cd" points="1145.96,-266.53 1136.7,-271.68 1147.15,-273.43 1145.96,-266.53"/>
<text text-anchor="middle" x="1210.5" y="-267" font-family="Helvetica,sans-Serif" font-size="10.00"> pWidget</text>
</g>
<!-- Node2&#45;&gt;Node2 -->
<g id="edge4" class="edge">
<title>Node2&#45;&gt;Node2</title>
<path fill="none" stroke="#9a32cd" stroke-dasharray="5,2" d="M1089.59,-295.4C1090.76,-300.31 1096.56,-304 1107,-304 1123.71,-304 1128.54,-294.57 1121.49,-285.76"/>
<polygon fill="#9a32cd" stroke="#9a32cd" points="1092.97,-296.34 1092.51,-285.76 1086.27,-294.31 1092.97,-296.34"/>
<text text-anchor="middle" x="1107" y="-307" font-family="Helvetica,sans-Serif" font-size="10.00"> pParent</text>
</g>
<!-- Node3 -->
<g id="node3" class="node">
<title>Node3</title>
<g id="a_node3"><a xlink:href="class_mx_vector.html" target="_top" xlink:title=" ">
<polygon fill="none" stroke="black" points="864,-258.5 864,-277.5 967,-277.5 967,-258.5 864,-258.5"/>
<text text-anchor="middle" x="915.5" y="-265.5" font-family="Helvetica,sans-Serif" font-size="10.00">MxVector&lt; 2, float &gt;</text>
</a>
</g>
</g>
<!-- Node3&#45;&gt;Node2 -->
<g id="edge2" class="edge">
<title>Node3&#45;&gt;Node2</title>
<path fill="none" stroke="#9a32cd" stroke-dasharray="5,2" d="M977.46,-270.57C1011.02,-271.99 1051.08,-273.68 1077.45,-274.79"/>
<polygon fill="#9a32cd" stroke="#9a32cd" points="977.42,-267.07 967.28,-270.14 977.13,-274.06 977.42,-267.07"/>
<text text-anchor="middle" x="1013" y="-287" font-family="Helvetica,sans-Serif" font-size="10.00"> pPos</text>
<text text-anchor="middle" x="1013" y="-276" font-family="Helvetica,sans-Serif" font-size="10.00">pSize</text>
</g>
<!-- Node17 -->
<g id="node17" class="node">
<title>Node17</title>
<g id="a_node17"><a xlink:href="class_mx_painter.html" target="_top" xlink:title="Holder to the different painters.">
<polygon fill="none" stroke="black" points="1077,-228.5 1077,-247.5 1137,-247.5 1137,-228.5 1077,-228.5"/>
<text text-anchor="middle" x="1107" y="-235.5" font-family="Helvetica,sans-Serif" font-size="10.00">MxPainter</text>
</a>
</g>
</g>
<!-- Node3&#45;&gt;Node17 -->
<g id="edge20" class="edge">
<title>Node3&#45;&gt;Node17</title>
<path fill="none" stroke="#9a32cd" stroke-dasharray="5,2" d="M977.37,-257.25C979.94,-256.82 982.5,-256.41 985,-256 1016.24,-250.94 1052.1,-245.67 1076.63,-242.15"/>
<polygon fill="#9a32cd" stroke="#9a32cd" points="976.63,-253.83 967.35,-258.94 977.79,-260.73 976.63,-253.83"/>
<text text-anchor="middle" x="1013" y="-259" font-family="Helvetica,sans-Serif" font-size="10.00"> pTranslation</text>
</g>
<!-- Node4 -->
<g id="node4" class="node">
<title>Node4</title>
<g id="a_node4"><a xlink:href="class_mx_vector.html" target="_top" xlink:title=" ">
<polygon fill="none" stroke="black" points="273,-227.5 273,-246.5 366,-246.5 366,-227.5 273,-227.5"/>
<text text-anchor="middle" x="319.5" y="-234.5" font-family="Helvetica,sans-Serif" font-size="10.00">MxVector&lt; N, T &gt;</text>
</a>
</g>
</g>
<!-- Node4&#45;&gt;Node3 -->
<g id="edge3" class="edge">
<title>Node4&#45;&gt;Node3</title>
<path fill="none" stroke="orange" stroke-dasharray="5,2" d="M376.12,-239.9C491.02,-245.9 753.08,-259.58 863.71,-265.35"/>
<polygon fill="orange" stroke="orange" points="376.29,-236.41 366.12,-239.38 375.93,-243.4 376.29,-236.41"/>
<text text-anchor="middle" x="633.5" y="-260" font-family="Helvetica,sans-Serif" font-size="10.00"> &lt; 2, float &gt;</text>
</g>
<!-- Node10 -->
<g id="node10" class="node">
<title>Node10</title>
<g id="a_node10"><a xlink:href="class_mx_vector.html" target="_top" xlink:title=" ">
<polygon fill="none" stroke="black" points="586,-136.5 586,-155.5 681,-155.5 681,-136.5 586,-136.5"/>
<text text-anchor="middle" x="633.5" y="-143.5" font-family="Helvetica,sans-Serif" font-size="10.00">MxVector&lt; 2, int &gt;</text>
</a>
</g>
</g>
<!-- Node4&#45;&gt;Node10 -->
<g id="edge11" class="edge">
<title>Node4&#45;&gt;Node10</title>
<path fill="none" stroke="orange" stroke-dasharray="5,2" d="M357.52,-224.21C402.3,-208.99 480.14,-183.33 548,-165 560.48,-161.63 574.12,-158.38 586.72,-155.55"/>
<polygon fill="orange" stroke="orange" points="356.28,-220.94 347.94,-227.48 358.54,-227.56 356.28,-220.94"/>
<text text-anchor="middle" x="460.5" y="-214" font-family="Helvetica,sans-Serif" font-size="10.00"> &lt; 2, int &gt;</text>
</g>
<!-- Node5 -->
<g id="node5" class="node">
<title>Node5</title>
<g id="a_node5"><a xlink:href="class_mx_gui_renderer.html" target="_top" xlink:title=" ">
<polygon fill="none" stroke="black" points="1065.5,-190.5 1065.5,-209.5 1148.5,-209.5 1148.5,-190.5 1065.5,-190.5"/>
<text text-anchor="middle" x="1107" y="-197.5" font-family="Helvetica,sans-Serif" font-size="10.00">MxGuiRenderer</text>
</a>
</g>
</g>
<!-- Node5&#45;&gt;Node1 -->
<g id="edge5" class="edge">
<title>Node5&#45;&gt;Node1</title>
<path fill="none" stroke="#9a32cd" stroke-dasharray="5,2" d="M1158.88,-198.79C1185.54,-198.83 1218.66,-199.93 1248,-204 1255.38,-205.02 1263.2,-206.65 1270.57,-208.44"/>
<polygon fill="#9a32cd" stroke="#9a32cd" points="1158.62,-195.29 1148.63,-198.83 1158.64,-202.29 1158.62,-195.29"/>
<text text-anchor="middle" x="1210.5" y="-207" font-family="Helvetica,sans-Serif" font-size="10.00"> pRenderer</text>
</g>
<!-- Node6 -->
<g id="node6" class="node">
<title>Node6</title>
<g id="a_node6"><a xlink:href="class_mx_renderer.html" target="_top" xlink:title=" ">
<polygon fill="none" stroke="black" points="881.5,-105.5 881.5,-124.5 949.5,-124.5 949.5,-105.5 881.5,-105.5"/>
<text text-anchor="middle" x="915.5" y="-112.5" font-family="Helvetica,sans-Serif" font-size="10.00">MxRenderer</text>
</a>
</g>
</g>
<!-- Node6&#45;&gt;Node5 -->
<g id="edge6" class="edge">
<title>Node6&#45;&gt;Node5</title>
<path fill="none" stroke="midnightblue" d="M945.72,-129.05C974.39,-142.71 1019.44,-163.86 1059,-181 1066.27,-184.15 1074.23,-187.43 1081.51,-190.37"/>
<polygon fill="midnightblue" stroke="midnightblue" points="947.18,-125.87 936.65,-124.72 944.17,-132.19 947.18,-125.87"/>
</g>
<!-- Node7 -->
<g id="node7" class="node">
<title>Node7</title>
<g id="a_node7"><a xlink:title=" ">
<polygon fill="none" stroke="#bfbfbf" points="579,-38.5 579,-57.5 688,-57.5 688,-38.5 579,-38.5"/>
<text text-anchor="middle" x="633.5" y="-45.5" font-family="Helvetica,sans-Serif" font-size="10.00">MxOpenGLFunctions</text>
</a>
</g>
</g>
<!-- Node7&#45;&gt;Node6 -->
<g id="edge7" class="edge">
<title>Node7&#45;&gt;Node6</title>
<path fill="none" stroke="midnightblue" d="M689.55,-59.72C732.34,-69.02 793.11,-82.63 846,-96 857.61,-98.93 870.25,-102.37 881.48,-105.51"/>
<polygon fill="midnightblue" stroke="midnightblue" points="690.14,-56.27 679.62,-57.57 688.66,-63.11 690.14,-56.27"/>
</g>
<!-- Node8 -->
<g id="node8" class="node">
<title>Node8</title>
<g id="a_node8"><a xlink:href="struct_mx_renderer_1_1_viewport.html" target="_top" xlink:title=" ">
<polygon fill="none" stroke="black" points="578,-0.5 578,-19.5 689,-19.5 689,-0.5 578,-0.5"/>
<text text-anchor="middle" x="633.5" y="-7.5" font-family="Helvetica,sans-Serif" font-size="10.00">MxRenderer::Viewport</text>
</a>
</g>
</g>
<!-- Node8&#45;&gt;Node6 -->
<g id="edge8" class="edge">
<title>Node8&#45;&gt;Node6</title>
<path fill="none" stroke="#9a32cd" stroke-dasharray="5,2" d="M699.18,-16.17C742.5,-22.24 799.83,-34.09 846,-57 870.57,-69.19 893.73,-92.03 905.81,-105.12"/>
<polygon fill="#9a32cd" stroke="#9a32cd" points="699.42,-12.68 689.04,-14.82 698.49,-19.61 699.42,-12.68"/>
<text text-anchor="middle" x="791.5" y="-60" font-family="Helvetica,sans-Serif" font-size="10.00"> pViewport</text>
</g>
<!-- Node9 -->
<g id="node9" class="node">
<title>Node9</title>
<g id="a_node9"><a xlink:href="class_mx_matrix.html" target="_top" xlink:title=" ">
<polygon fill="none" stroke="black" points="605.5,-174.5 605.5,-193.5 661.5,-193.5 661.5,-174.5 605.5,-174.5"/>
<text text-anchor="middle" x="633.5" y="-181.5" font-family="Helvetica,sans-Serif" font-size="10.00">MxMatrix</text>
</a>
</g>
</g>
<!-- Node9&#45;&gt;Node6 -->
<g id="edge9" class="edge">
<title>Node9&#45;&gt;Node6</title>
<path fill="none" stroke="#9a32cd" stroke-dasharray="5,2" d="M671.49,-181.57C714.37,-177.95 786.73,-169.37 846,-150 865.29,-143.69 885.83,-132.54 899.32,-124.51"/>
<polygon fill="#9a32cd" stroke="#9a32cd" points="671.2,-178.08 661.51,-182.37 671.76,-185.06 671.2,-178.08"/>
<text text-anchor="middle" x="791.5" y="-177" font-family="Helvetica,sans-Serif" font-size="10.00"> pScreenProjectionMatrix</text>
</g>
<!-- Node10&#45;&gt;Node6 -->
<g id="edge10" class="edge">
<title>Node10&#45;&gt;Node6</title>
<path fill="none" stroke="#9a32cd" stroke-dasharray="5,2" d="M691.02,-139.74C748.17,-133.41 834.58,-123.85 881.45,-118.66"/>
<polygon fill="#9a32cd" stroke="#9a32cd" points="690.6,-136.27 681.05,-140.85 691.38,-143.22 690.6,-136.27"/>
<text text-anchor="middle" x="791.5" y="-138" font-family="Helvetica,sans-Serif" font-size="10.00"> pScreenSize</text>
</g>
<!-- Node11 -->
<g id="node11" class="node">
<title>Node11</title>
<g id="a_node11"><a xlink:href="class_mx_list.html" target="_top" xlink:title=" ">
<polygon fill="none" stroke="black" points="548,-76.5 548,-117.5 719,-117.5 719,-76.5 548,-76.5"/>
<text text-anchor="start" x="556" y="-105.5" font-family="Helvetica,sans-Serif" font-size="10.00">MxList&lt; MxRenderer</text>
<text text-anchor="start" x="556" y="-94.5" font-family="Helvetica,sans-Serif" font-size="10.00">::ReusableVbo, MxClassInitializer</text>
<text text-anchor="middle" x="633.5" y="-83.5" font-family="Helvetica,sans-Serif" font-size="10.00">&lt; MxRenderer::ReusableVbo &gt;, 32 &gt;</text>
</a>
</g>
</g>
<!-- Node11&#45;&gt;Node6 -->
<g id="edge12" class="edge">
<title>Node11&#45;&gt;Node6</title>
<path fill="none" stroke="#9a32cd" stroke-dasharray="5,2" d="M729.16,-99.25C765.71,-100.58 807.85,-102.69 846,-106 857.59,-107.01 870.23,-108.54 881.46,-110.06"/>
<polygon fill="#9a32cd" stroke="#9a32cd" points="729.12,-95.74 719,-98.89 728.87,-102.74 729.12,-95.74"/>
<text text-anchor="middle" x="791.5" y="-109" font-family="Helvetica,sans-Serif" font-size="10.00"> pReusableVbos</text>
</g>
<!-- Node12 -->
<g id="node12" class="node">
<title>Node12</title>
<g id="a_node12"><a xlink:href="struct_mx_list_1_1_data.html" target="_top" xlink:title="these members are public to allow unions">
<polygon fill="none" stroke="black" points="115,-79 115,-109 222,-109 222,-79 115,-79"/>
<text text-anchor="start" x="123" y="-97" font-family="Helvetica,sans-Serif" font-size="10.00">MxList&lt; T, Initializer,</text>
<text text-anchor="middle" x="168.5" y="-86" font-family="Helvetica,sans-Serif" font-size="10.00"> Prealloc &gt;::Data</text>
</a>
</g>
</g>
<!-- Node12&#45;&gt;Node11 -->
<g id="edge13" class="edge">
<title>Node12&#45;&gt;Node11</title>
<path fill="none" stroke="#9a32cd" stroke-dasharray="5,2" d="M232.3,-99.02C304.24,-104.09 425.65,-110.57 530,-106 535.8,-105.75 541.78,-105.41 547.8,-105.02"/>
<polygon fill="#9a32cd" stroke="#9a32cd" points="232.28,-95.51 222.05,-98.28 231.77,-102.49 232.28,-95.51"/>
<text text-anchor="middle" x="319.5" y="-110" font-family="Helvetica,sans-Serif" font-size="10.00"> d</text>
</g>
<!-- Node14 -->
<g id="node14" class="node">
<title>Node14</title>
<g id="a_node14"><a xlink:href="class_mx_list.html" target="_top" xlink:title=" ">
<polygon fill="none" stroke="black" points="266,-53 266,-83 373,-83 373,-53 266,-53"/>
<text text-anchor="start" x="274" y="-71" font-family="Helvetica,sans-Serif" font-size="10.00">MxList&lt; T, Initializer,</text>
<text text-anchor="middle" x="319.5" y="-60" font-family="Helvetica,sans-Serif" font-size="10.00"> Prealloc &gt;</text>
</a>
</g>
</g>
<!-- Node12&#45;&gt;Node14 -->
<g id="edge16" class="edge">
<title>Node12&#45;&gt;Node14</title>
<path fill="none" stroke="#9a32cd" stroke-dasharray="5,2" d="M232.21,-83.06C243.44,-81.1 255.03,-79.07 265.94,-77.17"/>
<polygon fill="#9a32cd" stroke="#9a32cd" points="231.28,-79.67 222.03,-84.83 232.48,-86.56 231.28,-79.67"/>
<text text-anchor="middle" x="244" y="-84" font-family="Helvetica,sans-Serif" font-size="10.00"> d</text>
</g>
<!-- Node13 -->
<g id="node13" class="node">
<title>Node13</title>
<g id="a_node13"><a xlink:href="class_mx_ref_counter.html" target="_top" xlink:title=" ">
<polygon fill="none" stroke="black" points="0,-84.5 0,-103.5 78,-103.5 78,-84.5 0,-84.5"/>
<text text-anchor="middle" x="39" y="-91.5" font-family="Helvetica,sans-Serif" font-size="10.00">MxRefCounter</text>
</a>
</g>
</g>
<!-- Node13&#45;&gt;Node12 -->
<g id="edge14" class="edge">
<title>Node13&#45;&gt;Node12</title>
<path fill="none" stroke="midnightblue" d="M88.46,-94C97.03,-94 105.98,-94 114.66,-94"/>
<polygon fill="midnightblue" stroke="midnightblue" points="88.25,-90.5 78.25,-94 88.25,-97.5 88.25,-90.5"/>
</g>
<!-- Node14&#45;&gt;Node11 -->
<g id="edge15" class="edge">
<title>Node14&#45;&gt;Node11</title>
<path fill="none" stroke="orange" stroke-dasharray="5,2" d="M383.27,-66.14C425.02,-65.72 480.99,-66.75 530,-73 537.16,-73.91 544.55,-75.12 551.93,-76.5"/>
<polygon fill="orange" stroke="orange" points="383.2,-62.64 373.25,-66.27 383.29,-69.64 383.2,-62.64"/>
<text text-anchor="start" x="391" y="-98" font-family="Helvetica,sans-Serif" font-size="10.00"> &lt; MxRenderer::ReusableVbo,</text>
<text text-anchor="start" x="391" y="-87" font-family="Helvetica,sans-Serif" font-size="10.00"> MxClassInitializer&lt; MxRenderer</text>
<text text-anchor="middle" x="460.5" y="-76" font-family="Helvetica,sans-Serif" font-size="10.00">::ReusableVbo &gt;, 32 &gt;</text>
</g>
<!-- Node15 -->
<g id="node15" class="node">
<title>Node15</title>
<g id="a_node15"><a xlink:href="class_mx_abstract_atlas.html" target="_top" xlink:title=" ">
<polygon fill="none" stroke="black" points="871,-199.5 871,-218.5 960,-218.5 960,-199.5 871,-199.5"/>
<text text-anchor="middle" x="915.5" y="-206.5" font-family="Helvetica,sans-Serif" font-size="10.00">MxAbstractAtlas</text>
</a>
</g>
</g>
<!-- Node15&#45;&gt;Node5 -->
<g id="edge17" class="edge">
<title>Node15&#45;&gt;Node5</title>
<path fill="none" stroke="#9a32cd" stroke-dasharray="5,2" d="M970.78,-206.42C1000.84,-204.99 1037.6,-203.25 1065.2,-201.94"/>
<polygon fill="#9a32cd" stroke="#9a32cd" points="970.27,-202.94 960.45,-206.91 970.61,-209.93 970.27,-202.94"/>
<text text-anchor="middle" x="1013" y="-208" font-family="Helvetica,sans-Serif" font-size="10.00"> pIconAtlas</text>
</g>
<!-- Node16 -->
<g id="node16" class="node">
<title>Node16</title>
<g id="a_node16"><a xlink:href="class_mx_texture.html" target="_top" xlink:title=" ">
<polygon fill="none" stroke="black" points="602.5,-212.5 602.5,-231.5 664.5,-231.5 664.5,-212.5 602.5,-212.5"/>
<text text-anchor="middle" x="633.5" y="-219.5" font-family="Helvetica,sans-Serif" font-size="10.00">MxTexture</text>
</a>
</g>
</g>
<!-- Node16&#45;&gt;Node15 -->
<g id="edge18" class="edge">
<title>Node16&#45;&gt;Node15</title>
<path fill="none" stroke="#9a32cd" stroke-dasharray="5,2" d="M674.92,-220.12C726.95,-217.71 817.03,-213.53 870.66,-211.04"/>
<polygon fill="#9a32cd" stroke="#9a32cd" points="674.56,-216.64 664.73,-220.6 674.88,-223.63 674.56,-216.64"/>
<text text-anchor="middle" x="791.5" y="-220" font-family="Helvetica,sans-Serif" font-size="10.00"> pTexture</text>
</g>
<!-- Node17&#45;&gt;Node1 -->
<g id="edge19" class="edge">
<title>Node17&#45;&gt;Node1</title>
<path fill="none" stroke="#9a32cd" stroke-dasharray="5,2" d="M1147.48,-233.96C1182.07,-230.42 1231.99,-225.32 1265.98,-221.84"/>
<polygon fill="#9a32cd" stroke="#9a32cd" points="1146.86,-230.51 1137.27,-235.01 1147.57,-237.47 1146.86,-230.51"/>
<text text-anchor="middle" x="1210.5" y="-233" font-family="Helvetica,sans-Serif" font-size="10.00"> pPainterBuffer</text>
</g>
<!-- Node18 -->
<g id="node18" class="node">
<title>Node18</title>
<g id="a_node18"><a xlink:href="class_mx_gui_aggregation.html" target="_top" xlink:title="The MxGuiAggregation class aggregates UI related data members to allow its access from one place.">
<polygon fill="none" stroke="black" points="1059,-152.5 1059,-171.5 1155,-171.5 1155,-152.5 1059,-152.5"/>
<text text-anchor="middle" x="1107" y="-159.5" font-family="Helvetica,sans-Serif" font-size="10.00">MxGuiAggregation</text>
</a>
</g>
</g>
<!-- Node18&#45;&gt;Node1 -->
<g id="edge21" class="edge">
<title>Node18&#45;&gt;Node1</title>
<path fill="none" stroke="#9a32cd" stroke-dasharray="5,2" d="M1165.22,-165.86C1191.1,-168.9 1221.71,-174.32 1248,-184 1263.91,-189.86 1280.23,-200.52 1291.01,-208.35"/>
<polygon fill="#9a32cd" stroke="#9a32cd" points="1165.51,-162.37 1155.19,-164.78 1164.75,-169.33 1165.51,-162.37"/>
<text text-anchor="middle" x="1210.5" y="-187" font-family="Helvetica,sans-Serif" font-size="10.00"> pGuiAggregation</text>
</g>
</g>
</svg>
