<?xml version="1.0" encoding="UTF-8" standalone="no"?>
<!DOCTYPE svg PUBLIC "-//W3C//DTD SVG 1.1//EN"
 "http://www.w3.org/Graphics/SVG/1.1/DTD/svg11.dtd">
<!-- Generated by graphviz version 2.44.0 ()
 -->
<!-- Title: MxGuiRenderer Pages: 1 -->
<svg width="1106pt" height="235pt"
 viewBox="0.00 0.00 1106.00 235.00" xmlns="http://www.w3.org/2000/svg" xmlns:xlink="http://www.w3.org/1999/xlink">
<g id="graph0" class="graph" transform="scale(1 1) rotate(0) translate(4 231)">
<title>MxGuiRenderer</title>
<!-- Node1 -->
<g id="node1" class="node">
<title>Node1</title>
<g id="a_node1"><a xlink:title=" ">
<polygon fill="#bfbfbf" stroke="black" points="1014.5,-90.5 1014.5,-109.5 1097.5,-109.5 1097.5,-90.5 1014.5,-90.5"/>
<text text-anchor="middle" x="1056" y="-97.5" font-family="Helvetica,sans-Serif" font-size="10.00">MxGuiRenderer</text>
</a>
</g>
</g>
<!-- Node2 -->
<g id="node2" class="node">
<title>Node2</title>
<g id="a_node2"><a xlink:href="class_mx_renderer.html" target="_top" xlink:title="The MxRenderer keeps track of the rendering state and resources.">
<polygon fill="none" stroke="black" points="836.5,-131.5 836.5,-150.5 904.5,-150.5 904.5,-131.5 836.5,-131.5"/>
<text text-anchor="middle" x="870.5" y="-138.5" font-family="Helvetica,sans-Serif" font-size="10.00">MxRenderer</text>
</a>
</g>
</g>
<!-- Node2&#45;&gt;Node1 -->
<g id="edge1" class="edge">
<title>Node2&#45;&gt;Node1</title>
<path fill="none" stroke="midnightblue" d="M914.55,-131.38C944.69,-124.65 984.71,-115.7 1014.32,-109.09"/>
<polygon fill="midnightblue" stroke="midnightblue" points="913.73,-127.98 904.73,-133.58 915.25,-134.81 913.73,-127.98"/>
</g>
<!-- Node12 -->
<g id="node12" class="node">
<title>Node12</title>
<g id="a_node12"><a xlink:href="class_mx_gpu_program.html" target="_top" xlink:title=" ">
<polygon fill="none" stroke="black" points="1014,-138.5 1014,-157.5 1098,-157.5 1098,-138.5 1014,-138.5"/>
<text text-anchor="middle" x="1056" y="-145.5" font-family="Helvetica,sans-Serif" font-size="10.00">MxGpuProgram</text>
</a>
</g>
</g>
<!-- Node2&#45;&gt;Node12 -->
<g id="edge15" class="edge">
<title>Node2&#45;&gt;Node12</title>
<path fill="none" stroke="#9a32cd" stroke-dasharray="5,2" d="M914.76,-139.05C938.73,-138.38 969.04,-138.18 996,-140 1001.78,-140.39 1007.85,-140.99 1013.81,-141.69"/>
<polygon fill="#9a32cd" stroke="#9a32cd" points="914.45,-135.56 904.57,-139.38 914.68,-142.56 914.45,-135.56"/>
<text text-anchor="middle" x="964.5" y="-143" font-family="Helvetica,sans-Serif" font-size="10.00"> pRenderer</text>
</g>
<!-- Node3 -->
<g id="node3" class="node">
<title>Node3</title>
<g id="a_node3"><a xlink:title=" ">
<polygon fill="none" stroke="#bfbfbf" points="579,-207.5 579,-226.5 688,-226.5 688,-207.5 579,-207.5"/>
<text text-anchor="middle" x="633.5" y="-214.5" font-family="Helvetica,sans-Serif" font-size="10.00">MxOpenGLFunctions</text>
</a>
</g>
</g>
<!-- Node3&#45;&gt;Node2 -->
<g id="edge2" class="edge">
<title>Node3&#45;&gt;Node2</title>
<path fill="none" stroke="midnightblue" d="M698.17,-209.59C731.73,-204.25 773.07,-195.38 808,-181 826.61,-173.34 845.67,-159.9 857.54,-150.73"/>
<polygon fill="midnightblue" stroke="midnightblue" points="697.37,-206.17 688.01,-211.13 698.43,-213.09 697.37,-206.17"/>
</g>
<!-- Node4 -->
<g id="node4" class="node">
<title>Node4</title>
<g id="a_node4"><a xlink:href="class_mx_texture.html" target="_top" xlink:title=" ">
<polygon fill="none" stroke="black" points="602.5,-169.5 602.5,-188.5 664.5,-188.5 664.5,-169.5 602.5,-169.5"/>
<text text-anchor="middle" x="633.5" y="-176.5" font-family="Helvetica,sans-Serif" font-size="10.00">MxTexture</text>
</a>
</g>
</g>
<!-- Node4&#45;&gt;Node2 -->
<g id="edge3" class="edge">
<title>Node4&#45;&gt;Node2</title>
<path fill="none" stroke="#9a32cd" stroke-dasharray="5,2" d="M675.12,-174.86C710.41,-170.97 762.8,-164.48 808,-156 817.29,-154.26 827.28,-151.99 836.45,-149.75"/>
<polygon fill="#9a32cd" stroke="#9a32cd" points="674.31,-171.43 664.75,-175.99 675.06,-178.39 674.31,-171.43"/>
<text text-anchor="middle" x="772.5" y="-169" font-family="Helvetica,sans-Serif" font-size="10.00"> pTextures</text>
</g>
<!-- Node5 -->
<g id="node5" class="node">
<title>Node5</title>
<g id="a_node5"><a xlink:href="class_mx_list.html" target="_top" xlink:title=" ">
<polygon fill="none" stroke="black" points="575.5,-131.5 575.5,-150.5 691.5,-150.5 691.5,-131.5 575.5,-131.5"/>
<text text-anchor="middle" x="633.5" y="-138.5" font-family="Helvetica,sans-Serif" font-size="10.00">MxList&lt; MxGpuArray &gt;</text>
</a>
</g>
</g>
<!-- Node5&#45;&gt;Node2 -->
<g id="edge4" class="edge">
<title>Node5&#45;&gt;Node2</title>
<path fill="none" stroke="#9a32cd" stroke-dasharray="5,2" d="M701.77,-141C745.88,-141 801.62,-141 836.42,-141"/>
<polygon fill="#9a32cd" stroke="#9a32cd" points="701.69,-137.5 691.69,-141 701.69,-144.5 701.69,-137.5"/>
<text text-anchor="middle" x="772.5" y="-144" font-family="Helvetica,sans-Serif" font-size="10.00"> pBufferViews</text>
</g>
<!-- Node6 -->
<g id="node6" class="node">
<title>Node6</title>
<g id="a_node6"><a xlink:href="struct_mx_list_1_1_data.html" target="_top" xlink:title="these members are public to allow unions">
<polygon fill="none" stroke="black" points="115,-95 115,-125 222,-125 222,-95 115,-95"/>
<text text-anchor="start" x="123" y="-113" font-family="Helvetica,sans-Serif" font-size="10.00">MxList&lt; T, Initializer,</text>
<text text-anchor="middle" x="168.5" y="-102" font-family="Helvetica,sans-Serif" font-size="10.00"> Prealloc &gt;::Data</text>
</a>
</g>
</g>
<!-- Node6&#45;&gt;Node5 -->
<g id="edge5" class="edge">
<title>Node6&#45;&gt;Node5</title>
<path fill="none" stroke="#9a32cd" stroke-dasharray="5,2" d="M231.89,-126.64C243.19,-129.34 254.91,-131.92 266,-134 381.53,-155.68 412.56,-155.15 530,-150 544.72,-149.35 560.6,-148.19 575.36,-146.91"/>
<polygon fill="#9a32cd" stroke="#9a32cd" points="232.64,-123.22 222.1,-124.26 230.98,-130.02 232.64,-123.22"/>
<text text-anchor="middle" x="319.5" y="-153" font-family="Helvetica,sans-Serif" font-size="10.00"> d</text>
</g>
<!-- Node8 -->
<g id="node8" class="node">
<title>Node8</title>
<g id="a_node8"><a xlink:href="class_mx_list.html" target="_top" xlink:title=" ">
<polygon fill="none" stroke="black" points="266,-95 266,-125 373,-125 373,-95 266,-95"/>
<text text-anchor="start" x="274" y="-113" font-family="Helvetica,sans-Serif" font-size="10.00">MxList&lt; T, Initializer,</text>
<text text-anchor="middle" x="319.5" y="-102" font-family="Helvetica,sans-Serif" font-size="10.00"> Prealloc &gt;</text>
</a>
</g>
</g>
<!-- Node6&#45;&gt;Node8 -->
<g id="edge8" class="edge">
<title>Node6&#45;&gt;Node8</title>
<path fill="none" stroke="#9a32cd" stroke-dasharray="5,2" d="M232.21,-110C243.44,-110 255.03,-110 265.94,-110"/>
<polygon fill="#9a32cd" stroke="#9a32cd" points="232.03,-106.5 222.03,-110 232.03,-113.5 232.03,-106.5"/>
<text text-anchor="middle" x="244" y="-113" font-family="Helvetica,sans-Serif" font-size="10.00"> d</text>
</g>
<!-- Node11 -->
<g id="node11" class="node">
<title>Node11</title>
<g id="a_node11"><a xlink:href="class_mx_list.html" target="_top" xlink:title=" ">
<polygon fill="none" stroke="black" points="548,-68.5 548,-109.5 719,-109.5 719,-68.5 548,-68.5"/>
<text text-anchor="start" x="556" y="-97.5" font-family="Helvetica,sans-Serif" font-size="10.00">MxList&lt; MxRenderer</text>
<text text-anchor="start" x="556" y="-86.5" font-family="Helvetica,sans-Serif" font-size="10.00">::ReusableVbo, MxClassInitializer</text>
<text text-anchor="middle" x="633.5" y="-75.5" font-family="Helvetica,sans-Serif" font-size="10.00">&lt; MxRenderer::ReusableVbo &gt;, 32 &gt;</text>
</a>
</g>
</g>
<!-- Node6&#45;&gt;Node11 -->
<g id="edge12" class="edge">
<title>Node6&#45;&gt;Node11</title>
<path fill="none" stroke="#9a32cd" stroke-dasharray="5,2" d="M210.78,-90.9C227.54,-84.14 247.32,-77.37 266,-74 361.41,-56.78 472.97,-65.35 547.72,-75.12"/>
<polygon fill="#9a32cd" stroke="#9a32cd" points="209.17,-87.78 201.29,-94.86 211.87,-94.24 209.17,-87.78"/>
<text text-anchor="middle" x="319.5" y="-77" font-family="Helvetica,sans-Serif" font-size="10.00"> d</text>
</g>
<!-- Node7 -->
<g id="node7" class="node">
<title>Node7</title>
<g id="a_node7"><a xlink:href="class_mx_ref_counter.html" target="_top" xlink:title=" ">
<polygon fill="none" stroke="black" points="0,-100.5 0,-119.5 78,-119.5 78,-100.5 0,-100.5"/>
<text text-anchor="middle" x="39" y="-107.5" font-family="Helvetica,sans-Serif" font-size="10.00">MxRefCounter</text>
</a>
</g>
</g>
<!-- Node7&#45;&gt;Node6 -->
<g id="edge6" class="edge">
<title>Node7&#45;&gt;Node6</title>
<path fill="none" stroke="midnightblue" d="M88.46,-110C97.03,-110 105.98,-110 114.66,-110"/>
<polygon fill="midnightblue" stroke="midnightblue" points="88.25,-106.5 78.25,-110 88.25,-113.5 88.25,-106.5"/>
</g>
<!-- Node8&#45;&gt;Node5 -->
<g id="edge7" class="edge">
<title>Node8&#45;&gt;Node5</title>
<path fill="none" stroke="orange" stroke-dasharray="5,2" d="M383.27,-121.93C385.88,-122.31 388.46,-122.67 391,-123 453.75,-131.1 526.19,-135.9 575.23,-138.48"/>
<polygon fill="orange" stroke="orange" points="383.56,-118.43 373.14,-120.35 382.48,-125.35 383.56,-118.43"/>
<text text-anchor="middle" x="460.5" y="-138" font-family="Helvetica,sans-Serif" font-size="10.00"> &lt; MxGpuArray &gt;</text>
</g>
<!-- Node8&#45;&gt;Node11 -->
<g id="edge13" class="edge">
<title>Node8&#45;&gt;Node11</title>
<path fill="none" stroke="orange" stroke-dasharray="5,2" d="M376.62,-92.61C381.45,-91.56 386.29,-90.67 391,-90 442.79,-82.69 501.45,-82.26 547.99,-83.75"/>
<polygon fill="orange" stroke="orange" points="375.68,-89.24 366.76,-94.95 377.3,-96.05 375.68,-89.24"/>
<text text-anchor="start" x="391" y="-115" font-family="Helvetica,sans-Serif" font-size="10.00"> &lt; MxRenderer::ReusableVbo,</text>
<text text-anchor="start" x="391" y="-104" font-family="Helvetica,sans-Serif" font-size="10.00"> MxClassInitializer&lt; MxRenderer</text>
<text text-anchor="middle" x="460.5" y="-93" font-family="Helvetica,sans-Serif" font-size="10.00">::ReusableVbo &gt;, 32 &gt;</text>
</g>
<!-- Node9 -->
<g id="node9" class="node">
<title>Node9</title>
<g id="a_node9"><a xlink:href="class_mx_vector.html" target="_top" xlink:title=" ">
<polygon fill="none" stroke="black" points="586,-15.5 586,-34.5 681,-34.5 681,-15.5 586,-15.5"/>
<text text-anchor="middle" x="633.5" y="-22.5" font-family="Helvetica,sans-Serif" font-size="10.00">MxVector&lt; 2, int &gt;</text>
</a>
</g>
</g>
<!-- Node9&#45;&gt;Node2 -->
<g id="edge9" class="edge">
<title>Node9&#45;&gt;Node2</title>
<path fill="none" stroke="#9a32cd" stroke-dasharray="5,2" d="M672.73,-37.89C708.72,-50.7 763.57,-72.01 808,-97 826.31,-107.3 845.76,-121.91 857.77,-131.42"/>
<polygon fill="#9a32cd" stroke="#9a32cd" points="673.7,-34.52 663.1,-34.5 671.38,-41.12 673.7,-34.52"/>
<text text-anchor="middle" x="772.5" y="-100" font-family="Helvetica,sans-Serif" font-size="10.00"> pScreenSize</text>
</g>
<!-- Node10 -->
<g id="node10" class="node">
<title>Node10</title>
<g id="a_node10"><a xlink:href="class_mx_vector.html" target="_top" xlink:title=" ">
<polygon fill="none" stroke="black" points="273,-0.5 273,-19.5 366,-19.5 366,-0.5 273,-0.5"/>
<text text-anchor="middle" x="319.5" y="-7.5" font-family="Helvetica,sans-Serif" font-size="10.00">MxVector&lt; N, T &gt;</text>
</a>
</g>
</g>
<!-- Node10&#45;&gt;Node9 -->
<g id="edge10" class="edge">
<title>Node10&#45;&gt;Node9</title>
<path fill="none" stroke="orange" stroke-dasharray="5,2" d="M376.22,-12.68C436.01,-15.55 529.91,-20.07 585.91,-22.76"/>
<polygon fill="orange" stroke="orange" points="376.36,-9.18 366.2,-12.2 376.02,-16.17 376.36,-9.18"/>
<text text-anchor="middle" x="460.5" y="-23" font-family="Helvetica,sans-Serif" font-size="10.00"> &lt; 2, int &gt;</text>
</g>
<!-- Node11&#45;&gt;Node2 -->
<g id="edge11" class="edge">
<title>Node11&#45;&gt;Node2</title>
<path fill="none" stroke="#9a32cd" stroke-dasharray="5,2" d="M729.38,-108.71C754.94,-114.16 782.55,-120.18 808,-126 817.21,-128.11 827.18,-130.49 836.35,-132.73"/>
<polygon fill="#9a32cd" stroke="#9a32cd" points="729.83,-105.23 719.33,-106.57 728.38,-112.08 729.83,-105.23"/>
<text text-anchor="middle" x="772.5" y="-129" font-family="Helvetica,sans-Serif" font-size="10.00"> pReusableVbos</text>
</g>
<!-- Node12&#45;&gt;Node2 -->
<g id="edge14" class="edge">
<title>Node12&#45;&gt;Node2</title>
<path fill="none" stroke="#9a32cd" stroke-dasharray="5,2" d="M1003.91,-153.21C982.03,-154.63 956.22,-155.24 933,-153 923.69,-152.1 913.69,-150.45 904.52,-148.66"/>
<polygon fill="#9a32cd" stroke="#9a32cd" points="1004.26,-156.69 1013.98,-152.48 1003.75,-149.71 1004.26,-156.69"/>
<text text-anchor="middle" x="964.5" y="-157" font-family="Helvetica,sans-Serif" font-size="10.00"> pCurrProgram</text>
</g>
<!-- Node13 -->
<g id="node13" class="node">
<title>Node13</title>
<g id="a_node13"><a xlink:href="class_mx_abstract_atlas.html" target="_top" xlink:title=" ">
<polygon fill="none" stroke="black" points="826,-72.5 826,-91.5 915,-91.5 915,-72.5 826,-72.5"/>
<text text-anchor="middle" x="870.5" y="-79.5" font-family="Helvetica,sans-Serif" font-size="10.00">MxAbstractAtlas</text>
</a>
</g>
</g>
<!-- Node13&#45;&gt;Node1 -->
<g id="edge16" class="edge">
<title>Node13&#45;&gt;Node1</title>
<path fill="none" stroke="#9a32cd" stroke-dasharray="5,2" d="M925.38,-79.25C947.38,-78.95 973.01,-79.66 996,-83 1006.55,-84.53 1017.86,-87.46 1027.73,-90.46"/>
<polygon fill="#9a32cd" stroke="#9a32cd" points="925.15,-75.75 915.22,-79.46 925.29,-82.75 925.15,-75.75"/>
<text text-anchor="middle" x="964.5" y="-86" font-family="Helvetica,sans-Serif" font-size="10.00"> pIconAtlas</text>
</g>
</g>
</svg>
