<?xml version="1.0" encoding="UTF-8" standalone="no"?>
<!DOCTYPE svg PUBLIC "-//W3C//DTD SVG 1.1//EN"
 "http://www.w3.org/Graphics/SVG/1.1/DTD/svg11.dtd">
<!-- Generated by graphviz version 2.44.0 ()
 -->
<!-- Title: MxList&lt; T, Initializer, Prealloc &gt; Pages: 1 -->
<svg width="461pt" height="278pt"
 viewBox="0.00 0.00 461.00 277.50" xmlns="http://www.w3.org/2000/svg" xmlns:xlink="http://www.w3.org/1999/xlink">
<g id="graph0" class="graph" transform="scale(1 1) rotate(0) translate(4 273.5)">
<title>MxList&lt; T, Initializer, Prealloc &gt;</title>
<!-- Node1 -->
<g id="node1" class="node">
<title>Node1</title>
<g id="a_node1"><a xlink:title=" ">
<polygon fill="#bfbfbf" stroke="black" points="0,-114.5 0,-144.5 107,-144.5 107,-114.5 0,-114.5"/>
<text text-anchor="start" x="8" y="-132.5" font-family="Helvetica,sans-Serif" font-size="10.00">MxList&lt; T, Initializer,</text>
<text text-anchor="middle" x="53.5" y="-121.5" font-family="Helvetica,sans-Serif" font-size="10.00"> Prealloc &gt;</text>
</a>
</g>
</g>
<!-- Node2 -->
<g id="node2" class="node">
<title>Node2</title>
<g id="a_node2"><a xlink:href="class_mx_list.html" target="_top" xlink:title=" ">
<polygon fill="none" stroke="black" points="296,-217 296,-258 439,-258 439,-217 296,-217"/>
<text text-anchor="start" x="304" y="-246" font-family="Helvetica,sans-Serif" font-size="10.00">MxList&lt; ReusableBuffer,</text>
<text text-anchor="start" x="304" y="-235" font-family="Helvetica,sans-Serif" font-size="10.00"> MxClassInitializer&lt; Reusable</text>
<text text-anchor="middle" x="367.5" y="-224" font-family="Helvetica,sans-Serif" font-size="10.00">Buffer &gt;, 32 &gt;</text>
</a>
</g>
</g>
<!-- Node1&#45;&gt;Node2 -->
<g id="edge1" class="edge">
<title>Node1&#45;&gt;Node2</title>
<path fill="none" stroke="orange" stroke-dasharray="5,2" d="M70.46,-152.88C83.19,-169.56 102.57,-191.01 125,-202.5 177.98,-229.64 245.55,-237.53 295.73,-239.13"/>
<polygon fill="orange" stroke="orange" points="73.17,-150.65 64.43,-144.66 67.52,-154.8 73.17,-150.65"/>
<text text-anchor="start" x="134.5" y="-261.5" font-family="Helvetica,sans-Serif" font-size="10.00"> &lt; ReusableBuffer, MxClass</text>
<text text-anchor="start" x="134.5" y="-250.5" font-family="Helvetica,sans-Serif" font-size="10.00">Initializer&lt; ReusableBuffer</text>
<text text-anchor="middle" x="194.5" y="-239.5" font-family="Helvetica,sans-Serif" font-size="10.00"> &gt;, 32 &gt;</text>
</g>
<!-- Node3 -->
<g id="node3" class="node">
<title>Node3</title>
<g id="a_node3"><a xlink:href="class_mx_list.html" target="_top" xlink:title=" ">
<polygon fill="none" stroke="black" points="287,-168.5 287,-198.5 448,-198.5 448,-168.5 287,-168.5"/>
<text text-anchor="start" x="295" y="-186.5" font-family="Helvetica,sans-Serif" font-size="10.00">MxList&lt; MxWidget *,</text>
<text text-anchor="middle" x="367.5" y="-175.5" font-family="Helvetica,sans-Serif" font-size="10.00"> MxPodInitializer&lt; MxWidget * &gt; &gt;</text>
</a>
</g>
</g>
<!-- Node1&#45;&gt;Node3 -->
<g id="edge2" class="edge">
<title>Node1&#45;&gt;Node3</title>
<path fill="none" stroke="orange" stroke-dasharray="5,2" d="M99.74,-147.98C108.04,-150.85 116.7,-153.52 125,-155.5 178.16,-168.19 239.34,-175.21 286.82,-179.04"/>
<polygon fill="orange" stroke="orange" points="100.81,-144.65 90.22,-144.54 98.44,-151.23 100.81,-144.65"/>
<text text-anchor="start" x="128" y="-190.5" font-family="Helvetica,sans-Serif" font-size="10.00"> &lt; MxWidget *, MxPodInitializer</text>
<text text-anchor="middle" x="194.5" y="-179.5" font-family="Helvetica,sans-Serif" font-size="10.00">&lt; MxWidget * &gt; &gt;</text>
</g>
<!-- Node4 -->
<g id="node4" class="node">
<title>Node4</title>
<g id="a_node4"><a xlink:href="class_mx_list.html" target="_top" xlink:title=" ">
<polygon fill="none" stroke="black" points="298.5,-109 298.5,-150 436.5,-150 436.5,-109 298.5,-109"/>
<text text-anchor="start" x="306.5" y="-138" font-family="Helvetica,sans-Serif" font-size="10.00">MxList&lt; MxWidget *,</text>
<text text-anchor="start" x="306.5" y="-127" font-family="Helvetica,sans-Serif" font-size="10.00"> MxPodInitializer&lt; MxWidget</text>
<text text-anchor="middle" x="367.5" y="-116" font-family="Helvetica,sans-Serif" font-size="10.00"> * &gt;, 4 &gt;</text>
</a>
</g>
</g>
<!-- Node1&#45;&gt;Node4 -->
<g id="edge3" class="edge">
<title>Node1&#45;&gt;Node4</title>
<path fill="none" stroke="orange" stroke-dasharray="5,2" d="M117.26,-129.5C169.75,-129.5 244.49,-129.5 298.41,-129.5"/>
<polygon fill="orange" stroke="orange" points="117.07,-126 107.07,-129.5 117.07,-133 117.07,-126"/>
<text text-anchor="start" x="128" y="-143.5" font-family="Helvetica,sans-Serif" font-size="10.00"> &lt; MxWidget *, MxPodInitializer</text>
<text text-anchor="middle" x="194.5" y="-132.5" font-family="Helvetica,sans-Serif" font-size="10.00">&lt; MxWidget * &gt;, 4 &gt;</text>
</g>
<!-- Node5 -->
<g id="node5" class="node">
<title>Node5</title>
<g id="a_node5"><a xlink:href="class_mx_list.html" target="_top" xlink:title=" ">
<polygon fill="none" stroke="black" points="282,-49 282,-90 453,-90 453,-49 282,-49"/>
<text text-anchor="start" x="290" y="-78" font-family="Helvetica,sans-Serif" font-size="10.00">MxList&lt; MxRenderer</text>
<text text-anchor="start" x="290" y="-67" font-family="Helvetica,sans-Serif" font-size="10.00">::ReusableVbo, MxClassInitializer</text>
<text text-anchor="middle" x="367.5" y="-56" font-family="Helvetica,sans-Serif" font-size="10.00">&lt; MxRenderer::ReusableVbo &gt;, 32 &gt;</text>
</a>
</g>
</g>
<!-- Node1&#45;&gt;Node5 -->
<g id="edge4" class="edge">
<title>Node1&#45;&gt;Node5</title>
<path fill="none" stroke="orange" stroke-dasharray="5,2" d="M86.58,-109.3C98.25,-102.87 111.83,-96.42 125,-92.5 175.76,-77.4 234.93,-71.58 281.99,-69.58"/>
<polygon fill="orange" stroke="orange" points="84.6,-106.4 77.66,-114.41 88.08,-112.48 84.6,-106.4"/>
<text text-anchor="start" x="125" y="-117.5" font-family="Helvetica,sans-Serif" font-size="10.00"> &lt; MxRenderer::ReusableVbo,</text>
<text text-anchor="start" x="125" y="-106.5" font-family="Helvetica,sans-Serif" font-size="10.00"> MxClassInitializer&lt; MxRenderer</text>
<text text-anchor="middle" x="194.5" y="-95.5" font-family="Helvetica,sans-Serif" font-size="10.00">::ReusableVbo &gt;, 32 &gt;</text>
</g>
<!-- Node6 -->
<g id="node6" class="node">
<title>Node6</title>
<g id="a_node6"><a xlink:href="class_mx_list.html" target="_top" xlink:title=" ">
<polygon fill="none" stroke="black" points="294.5,-0.5 294.5,-30.5 440.5,-30.5 440.5,-0.5 294.5,-0.5"/>
<text text-anchor="start" x="302.5" y="-18.5" font-family="Helvetica,sans-Serif" font-size="10.00">MxList&lt; float, MxPodInitializer</text>
<text text-anchor="middle" x="367.5" y="-7.5" font-family="Helvetica,sans-Serif" font-size="10.00">&lt; float &gt; &gt;</text>
</a>
</g>
</g>
<!-- Node1&#45;&gt;Node6 -->
<g id="edge5" class="edge">
<title>Node1&#45;&gt;Node6</title>
<path fill="none" stroke="orange" stroke-dasharray="5,2" d="M67.5,-105.35C79.6,-85.46 99.57,-58.36 125,-44.5 176.82,-16.26 244.03,-10.21 294.39,-10.54"/>
<polygon fill="orange" stroke="orange" points="64.37,-103.78 62.36,-114.18 70.42,-107.3 64.37,-103.78"/>
<text text-anchor="start" x="143" y="-58.5" font-family="Helvetica,sans-Serif" font-size="10.00"> &lt; float, MxPodInitializer</text>
<text text-anchor="middle" x="194.5" y="-47.5" font-family="Helvetica,sans-Serif" font-size="10.00">&lt; float &gt; &gt;</text>
</g>
</g>
</svg>
