<?xml version="1.0" encoding="UTF-8" standalone="no"?>
<!DOCTYPE svg PUBLIC "-//W3C//DTD SVG 1.1//EN"
 "http://www.w3.org/Graphics/SVG/1.1/DTD/svg11.dtd">
<!-- Generated by graphviz version 2.44.0 ()
 -->
<!-- Title: MxShaderProgram Pages: 1 -->
<svg width="1080pt" height="402pt"
 viewBox="0.00 0.00 1080.00 402.00" xmlns="http://www.w3.org/2000/svg" xmlns:xlink="http://www.w3.org/1999/xlink">
<g id="graph0" class="graph" transform="scale(1 1) rotate(0) translate(4 398)">
<title>MxShaderProgram</title>
<!-- Node1 -->
<g id="node1" class="node">
<title>Node1</title>
<g id="a_node1"><a xlink:title=" ">
<polygon fill="#bfbfbf" stroke="black" points="271,-315.5 271,-334.5 368,-334.5 368,-315.5 271,-315.5"/>
<text text-anchor="middle" x="319.5" y="-322.5" font-family="Helvetica,sans-Serif" font-size="10.00">MxShaderProgram</text>
</a>
</g>
</g>
<!-- Node4 -->
<g id="node4" class="node">
<title>Node4</title>
<g id="a_node4"><a xlink:href="class_mx_vector_program.html" target="_top" xlink:title=" ">
<polygon fill="none" stroke="black" points="572,-373.5 572,-392.5 667,-392.5 667,-373.5 572,-373.5"/>
<text text-anchor="middle" x="619.5" y="-380.5" font-family="Helvetica,sans-Serif" font-size="10.00">MxVectorProgram</text>
</a>
</g>
</g>
<!-- Node1&#45;&gt;Node4 -->
<g id="edge4" class="edge">
<title>Node1&#45;&gt;Node4</title>
<path fill="none" stroke="midnightblue" d="M356.09,-337.86C367.17,-341.52 379.49,-345.26 391,-348 452.81,-362.73 525.6,-372.67 571.89,-378.08"/>
<polygon fill="midnightblue" stroke="midnightblue" points="356.92,-334.44 346.33,-334.54 354.67,-341.07 356.92,-334.44"/>
</g>
<!-- Node5 -->
<g id="node5" class="node">
<title>Node5</title>
<g id="a_node5"><a xlink:href="class_mx_color_wheel_program.html" target="_top" xlink:title=" ">
<polygon fill="none" stroke="black" points="561.5,-335.5 561.5,-354.5 677.5,-354.5 677.5,-335.5 561.5,-335.5"/>
<text text-anchor="middle" x="619.5" y="-342.5" font-family="Helvetica,sans-Serif" font-size="10.00">MxColorWheelProgram</text>
</a>
</g>
</g>
<!-- Node1&#45;&gt;Node5 -->
<g id="edge6" class="edge">
<title>Node1&#45;&gt;Node5</title>
<path fill="none" stroke="midnightblue" d="M378.27,-328.88C431.11,-332.42 508.83,-337.64 561.44,-341.17"/>
<polygon fill="midnightblue" stroke="midnightblue" points="378.26,-325.37 368.05,-328.19 377.79,-332.35 378.26,-325.37"/>
</g>
<!-- Node15 -->
<g id="node15" class="node">
<title>Node15</title>
<g id="a_node15"><a xlink:href="class_mx_icon_program.html" target="_top" xlink:title=" ">
<polygon fill="none" stroke="black" points="577,-297.5 577,-316.5 662,-316.5 662,-297.5 577,-297.5"/>
<text text-anchor="middle" x="619.5" y="-304.5" font-family="Helvetica,sans-Serif" font-size="10.00">MxIconProgram</text>
</a>
</g>
</g>
<!-- Node1&#45;&gt;Node15 -->
<g id="edge20" class="edge">
<title>Node1&#45;&gt;Node15</title>
<path fill="none" stroke="midnightblue" d="M378.21,-321.51C436.5,-317.99 525.14,-312.64 576.89,-309.51"/>
<polygon fill="midnightblue" stroke="midnightblue" points="377.82,-318.03 368.05,-322.13 378.24,-325.02 377.82,-318.03"/>
</g>
<!-- Node2 -->
<g id="node2" class="node">
<title>Node2</title>
<g id="a_node2"><a xlink:href="class_mx_renderer.html" target="_top" xlink:title="The MxRenderer keeps track of the rendering state and resources.">
<polygon fill="none" stroke="black" points="821,-198.5 821,-217.5 889,-217.5 889,-198.5 821,-198.5"/>
<text text-anchor="middle" x="855" y="-205.5" font-family="Helvetica,sans-Serif" font-size="10.00">MxRenderer</text>
</a>
</g>
</g>
<!-- Node2&#45;&gt;Node1 -->
<g id="edge1" class="edge">
<title>Node2&#45;&gt;Node1</title>
<path fill="none" stroke="#9a32cd" stroke-dasharray="5,2" d="M822.73,-221.35C816.28,-223.8 809.48,-226.15 803,-228 686.97,-261.07 654.24,-252.99 536,-277 474.96,-289.39 404.58,-305.39 361.31,-315.43"/>
<polygon fill="#9a32cd" stroke="#9a32cd" points="824.46,-224.43 832.48,-217.5 821.89,-217.92 824.46,-224.43"/>
<text text-anchor="middle" x="619.5" y="-280" font-family="Helvetica,sans-Serif" font-size="10.00"> pRenderer</text>
</g>
<!-- Node16 -->
<g id="node16" class="node">
<title>Node16</title>
<g id="a_node16"><a xlink:href="class_mx_gpu_program.html" target="_top" xlink:title=" ">
<polygon fill="none" stroke="black" points="988,-198.5 988,-217.5 1072,-217.5 1072,-198.5 988,-198.5"/>
<text text-anchor="middle" x="1030" y="-205.5" font-family="Helvetica,sans-Serif" font-size="10.00">MxGpuProgram</text>
</a>
</g>
</g>
<!-- Node2&#45;&gt;Node16 -->
<g id="edge22" class="edge">
<title>Node2&#45;&gt;Node16</title>
<path fill="none" stroke="#9a32cd" stroke-dasharray="5,2" d="M899.7,-208C926.74,-208 961.25,-208 987.81,-208"/>
<polygon fill="#9a32cd" stroke="#9a32cd" points="899.36,-204.5 889.36,-208 899.36,-211.5 899.36,-204.5"/>
<text text-anchor="middle" x="938.5" y="-211" font-family="Helvetica,sans-Serif" font-size="10.00"> pRenderer</text>
</g>
<!-- Node3 -->
<g id="node3" class="node">
<title>Node3</title>
<g id="a_node3"><a xlink:title=" ">
<polygon fill="none" stroke="#bfbfbf" points="565,-212.5 565,-231.5 674,-231.5 674,-212.5 565,-212.5"/>
<text text-anchor="middle" x="619.5" y="-219.5" font-family="Helvetica,sans-Serif" font-size="10.00">MxOpenGLFunctions</text>
</a>
</g>
</g>
<!-- Node3&#45;&gt;Node2 -->
<g id="edge2" class="edge">
<title>Node3&#45;&gt;Node2</title>
<path fill="none" stroke="midnightblue" d="M684.14,-218.18C728.33,-215.53 785.42,-212.11 820.87,-209.99"/>
<polygon fill="midnightblue" stroke="midnightblue" points="683.84,-214.7 674.07,-218.79 684.26,-221.68 683.84,-214.7"/>
</g>
<!-- Node4&#45;&gt;Node2 -->
<g id="edge3" class="edge">
<title>Node4&#45;&gt;Node2</title>
<path fill="none" stroke="#9a32cd" stroke-dasharray="5,2" d="M677.12,-387.14C716.68,-386.96 768.4,-380.2 803,-351 844.7,-315.81 852.31,-244.03 853.69,-217.84"/>
<polygon fill="#9a32cd" stroke="#9a32cd" points="677.12,-383.64 667.09,-387.04 677.06,-390.64 677.12,-383.64"/>
<text text-anchor="middle" x="762" y="-386" font-family="Helvetica,sans-Serif" font-size="10.00"> pVectorProgram</text>
</g>
<!-- Node5&#45;&gt;Node2 -->
<g id="edge5" class="edge">
<title>Node5&#45;&gt;Node2</title>
<path fill="none" stroke="#9a32cd" stroke-dasharray="5,2" d="M687.81,-340.84C732.07,-336.9 785.02,-329.48 803,-316 836.17,-291.11 848.64,-239.19 852.51,-217.67"/>
<polygon fill="#9a32cd" stroke="#9a32cd" points="687.31,-337.37 677.64,-341.7 687.9,-344.35 687.31,-337.37"/>
<text text-anchor="middle" x="762" y="-339" font-family="Helvetica,sans-Serif" font-size="10.00"> pColorWheelEffect</text>
</g>
<!-- Node6 -->
<g id="node6" class="node">
<title>Node6</title>
<g id="a_node6"><a xlink:href="class_mx_list.html" target="_top" xlink:title=" ">
<polygon fill="none" stroke="black" points="536,-152.5 536,-193.5 703,-193.5 703,-152.5 536,-152.5"/>
<text text-anchor="start" x="544" y="-181.5" font-family="Helvetica,sans-Serif" font-size="10.00">MxList&lt; MxCachedGpuArray,</text>
<text text-anchor="start" x="544" y="-170.5" font-family="Helvetica,sans-Serif" font-size="10.00"> MxClassInitializer&lt; MxCachedGpu</text>
<text text-anchor="middle" x="619.5" y="-159.5" font-family="Helvetica,sans-Serif" font-size="10.00">Array &gt;, 32 &gt;</text>
</a>
</g>
</g>
<!-- Node6&#45;&gt;Node2 -->
<g id="edge7" class="edge">
<title>Node6&#45;&gt;Node2</title>
<path fill="none" stroke="#9a32cd" stroke-dasharray="5,2" d="M713.44,-183.73C742.22,-187.45 773.99,-191.97 803,-197 808.8,-198.01 814.94,-199.21 820.88,-200.45"/>
<polygon fill="#9a32cd" stroke="#9a32cd" points="713.75,-180.24 703.39,-182.45 712.87,-187.19 713.75,-180.24"/>
<text text-anchor="middle" x="762" y="-200" font-family="Helvetica,sans-Serif" font-size="10.00"> pVboList</text>
</g>
<!-- Node7 -->
<g id="node7" class="node">
<title>Node7</title>
<g id="a_node7"><a xlink:href="struct_mx_list_1_1_data.html" target="_top" xlink:title="these members are public to allow unions">
<polygon fill="none" stroke="black" points="115,-138 115,-168 222,-168 222,-138 115,-138"/>
<text text-anchor="start" x="123" y="-156" font-family="Helvetica,sans-Serif" font-size="10.00">MxList&lt; T, Initializer,</text>
<text text-anchor="middle" x="168.5" y="-145" font-family="Helvetica,sans-Serif" font-size="10.00"> Prealloc &gt;::Data</text>
</a>
</g>
</g>
<!-- Node7&#45;&gt;Node6 -->
<g id="edge8" class="edge">
<title>Node7&#45;&gt;Node6</title>
<path fill="none" stroke="#9a32cd" stroke-dasharray="5,2" d="M228.99,-170.68C298.36,-189.06 416.47,-213.4 518,-200 529.02,-198.55 540.54,-196.23 551.69,-193.56"/>
<polygon fill="#9a32cd" stroke="#9a32cd" points="229.69,-167.24 219.12,-168.02 227.86,-174 229.69,-167.24"/>
<text text-anchor="middle" x="319.5" y="-202" font-family="Helvetica,sans-Serif" font-size="10.00"> d</text>
</g>
<!-- Node9 -->
<g id="node9" class="node">
<title>Node9</title>
<g id="a_node9"><a xlink:href="class_mx_list.html" target="_top" xlink:title=" ">
<polygon fill="none" stroke="black" points="266,-138 266,-168 373,-168 373,-138 266,-138"/>
<text text-anchor="start" x="274" y="-156" font-family="Helvetica,sans-Serif" font-size="10.00">MxList&lt; T, Initializer,</text>
<text text-anchor="middle" x="319.5" y="-145" font-family="Helvetica,sans-Serif" font-size="10.00"> Prealloc &gt;</text>
</a>
</g>
</g>
<!-- Node7&#45;&gt;Node9 -->
<g id="edge11" class="edge">
<title>Node7&#45;&gt;Node9</title>
<path fill="none" stroke="#9a32cd" stroke-dasharray="5,2" d="M232.21,-153C243.44,-153 255.03,-153 265.94,-153"/>
<polygon fill="#9a32cd" stroke="#9a32cd" points="232.03,-149.5 222.03,-153 232.03,-156.5 232.03,-149.5"/>
<text text-anchor="middle" x="244" y="-156" font-family="Helvetica,sans-Serif" font-size="10.00"> d</text>
</g>
<!-- Node12 -->
<g id="node12" class="node">
<title>Node12</title>
<g id="a_node12"><a xlink:href="class_mx_list.html" target="_top" xlink:title=" ">
<polygon fill="none" stroke="black" points="561.5,-114.5 561.5,-133.5 677.5,-133.5 677.5,-114.5 561.5,-114.5"/>
<text text-anchor="middle" x="619.5" y="-121.5" font-family="Helvetica,sans-Serif" font-size="10.00">MxList&lt; MxGpuArray &gt;</text>
</a>
</g>
</g>
<!-- Node7&#45;&gt;Node12 -->
<g id="edge15" class="edge">
<title>Node7&#45;&gt;Node12</title>
<path fill="none" stroke="#9a32cd" stroke-dasharray="5,2" d="M210.78,-133.9C227.54,-127.14 247.32,-120.37 266,-117 368.85,-98.44 491.32,-107.75 561.48,-116.01"/>
<polygon fill="#9a32cd" stroke="#9a32cd" points="209.17,-130.78 201.29,-137.86 211.87,-137.24 209.17,-130.78"/>
<text text-anchor="middle" x="319.5" y="-120" font-family="Helvetica,sans-Serif" font-size="10.00"> d</text>
</g>
<!-- Node8 -->
<g id="node8" class="node">
<title>Node8</title>
<g id="a_node8"><a xlink:href="class_mx_ref_counter.html" target="_top" xlink:title=" ">
<polygon fill="none" stroke="black" points="0,-143.5 0,-162.5 78,-162.5 78,-143.5 0,-143.5"/>
<text text-anchor="middle" x="39" y="-150.5" font-family="Helvetica,sans-Serif" font-size="10.00">MxRefCounter</text>
</a>
</g>
</g>
<!-- Node8&#45;&gt;Node7 -->
<g id="edge9" class="edge">
<title>Node8&#45;&gt;Node7</title>
<path fill="none" stroke="midnightblue" d="M88.46,-153C97.03,-153 105.98,-153 114.66,-153"/>
<polygon fill="midnightblue" stroke="midnightblue" points="88.25,-149.5 78.25,-153 88.25,-156.5 88.25,-149.5"/>
</g>
<!-- Node9&#45;&gt;Node6 -->
<g id="edge10" class="edge">
<title>Node9&#45;&gt;Node6</title>
<path fill="none" stroke="orange" stroke-dasharray="5,2" d="M383.16,-157.21C427.53,-160.18 487.5,-164.21 535.8,-167.45"/>
<polygon fill="orange" stroke="orange" points="383.3,-153.71 373.09,-156.53 382.83,-160.69 383.3,-153.71"/>
<text text-anchor="start" x="391" y="-191" font-family="Helvetica,sans-Serif" font-size="10.00"> &lt; MxCachedGpuArray,</text>
<text text-anchor="start" x="391" y="-180" font-family="Helvetica,sans-Serif" font-size="10.00"> MxClassInitializer</text>
<text text-anchor="middle" x="454.5" y="-169" font-family="Helvetica,sans-Serif" font-size="10.00">&lt; MxCachedGpuArray &gt;, 32 &gt;</text>
</g>
<!-- Node9&#45;&gt;Node12 -->
<g id="edge16" class="edge">
<title>Node9&#45;&gt;Node12</title>
<path fill="none" stroke="orange" stroke-dasharray="5,2" d="M383.3,-143.9C385.9,-143.59 388.47,-143.28 391,-143 448.9,-136.48 515.32,-131.18 561.38,-127.86"/>
<polygon fill="orange" stroke="orange" points="382.68,-140.46 373.2,-145.19 383.56,-147.4 382.68,-140.46"/>
<text text-anchor="middle" x="454.5" y="-146" font-family="Helvetica,sans-Serif" font-size="10.00"> &lt; MxGpuArray &gt;</text>
</g>
<!-- Node10 -->
<g id="node10" class="node">
<title>Node10</title>
<g id="a_node10"><a xlink:href="class_mx_abstract_atlas.html" target="_top" xlink:title=" ">
<polygon fill="none" stroke="black" points="575,-76.5 575,-95.5 664,-95.5 664,-76.5 575,-76.5"/>
<text text-anchor="middle" x="619.5" y="-83.5" font-family="Helvetica,sans-Serif" font-size="10.00">MxAbstractAtlas</text>
</a>
</g>
</g>
<!-- Node10&#45;&gt;Node2 -->
<g id="edge12" class="edge">
<title>Node10&#45;&gt;Node2</title>
<path fill="none" stroke="#9a32cd" stroke-dasharray="5,2" d="M674.17,-87.71C713.05,-91.32 765.21,-101.32 803,-128 828.57,-146.05 844.28,-181.37 850.68,-198.39"/>
<polygon fill="#9a32cd" stroke="#9a32cd" points="674.33,-84.21 664.08,-86.88 673.76,-91.19 674.33,-84.21"/>
<text text-anchor="middle" x="762" y="-131" font-family="Helvetica,sans-Serif" font-size="10.00"> pIconAtlas</text>
</g>
<!-- Node11 -->
<g id="node11" class="node">
<title>Node11</title>
<g id="a_node11"><a xlink:href="class_mx_texture.html" target="_top" xlink:title=" ">
<polygon fill="none" stroke="black" points="588.5,-38.5 588.5,-57.5 650.5,-57.5 650.5,-38.5 588.5,-38.5"/>
<text text-anchor="middle" x="619.5" y="-45.5" font-family="Helvetica,sans-Serif" font-size="10.00">MxTexture</text>
</a>
</g>
</g>
<!-- Node11&#45;&gt;Node2 -->
<g id="edge13" class="edge">
<title>Node11&#45;&gt;Node2</title>
<path fill="none" stroke="#9a32cd" stroke-dasharray="5,2" d="M660.65,-44.73C701.01,-43.64 762.82,-48.25 803,-81 840.57,-111.63 850.65,-174.09 853.19,-198.2"/>
<polygon fill="#9a32cd" stroke="#9a32cd" points="660.49,-41.23 650.63,-45.13 660.76,-48.23 660.49,-41.23"/>
<text text-anchor="middle" x="762" y="-84" font-family="Helvetica,sans-Serif" font-size="10.00"> pTextures</text>
</g>
<!-- Node12&#45;&gt;Node2 -->
<g id="edge14" class="edge">
<title>Node12&#45;&gt;Node2</title>
<path fill="none" stroke="#9a32cd" stroke-dasharray="5,2" d="M687.93,-134.15C723.4,-141.16 766.88,-152.46 803,-170 818.3,-177.43 833.65,-189.67 843.45,-198.25"/>
<polygon fill="#9a32cd" stroke="#9a32cd" points="688.16,-130.63 677.68,-132.2 686.85,-137.51 688.16,-130.63"/>
<text text-anchor="middle" x="762" y="-173" font-family="Helvetica,sans-Serif" font-size="10.00"> pBufferViews</text>
</g>
<!-- Node13 -->
<g id="node13" class="node">
<title>Node13</title>
<g id="a_node13"><a xlink:href="class_mx_vector.html" target="_top" xlink:title=" ">
<polygon fill="none" stroke="black" points="572,-0.5 572,-19.5 667,-19.5 667,-0.5 572,-0.5"/>
<text text-anchor="middle" x="619.5" y="-7.5" font-family="Helvetica,sans-Serif" font-size="10.00">MxVector&lt; 2, int &gt;</text>
</a>
</g>
</g>
<!-- Node13&#45;&gt;Node2 -->
<g id="edge17" class="edge">
<title>Node13&#45;&gt;Node2</title>
<path fill="none" stroke="#9a32cd" stroke-dasharray="5,2" d="M677.41,-2.8C717.1,-1.02 768.87,-5.66 803,-35 853.34,-78.28 855.28,-168.52 854.46,-198.26"/>
<polygon fill="#9a32cd" stroke="#9a32cd" points="677.11,0.69 667.34,-3.39 677.53,-6.3 677.11,0.69"/>
<text text-anchor="middle" x="762" y="-38" font-family="Helvetica,sans-Serif" font-size="10.00"> pScreenSize</text>
</g>
<!-- Node14 -->
<g id="node14" class="node">
<title>Node14</title>
<g id="a_node14"><a xlink:href="class_mx_vector.html" target="_top" xlink:title=" ">
<polygon fill="none" stroke="black" points="273,-0.5 273,-19.5 366,-19.5 366,-0.5 273,-0.5"/>
<text text-anchor="middle" x="319.5" y="-7.5" font-family="Helvetica,sans-Serif" font-size="10.00">MxVector&lt; N, T &gt;</text>
</a>
</g>
</g>
<!-- Node14&#45;&gt;Node13 -->
<g id="edge18" class="edge">
<title>Node14&#45;&gt;Node13</title>
<path fill="none" stroke="orange" stroke-dasharray="5,2" d="M376.26,-10C432.72,-10 519.03,-10 571.94,-10"/>
<polygon fill="orange" stroke="orange" points="376.08,-6.5 366.08,-10 376.08,-13.5 376.08,-6.5"/>
<text text-anchor="middle" x="454.5" y="-13" font-family="Helvetica,sans-Serif" font-size="10.00"> &lt; 2, int &gt;</text>
</g>
<!-- Node15&#45;&gt;Node2 -->
<g id="edge19" class="edge">
<title>Node15&#45;&gt;Node2</title>
<path fill="none" stroke="#9a32cd" stroke-dasharray="5,2" d="M672.4,-304.53C718.48,-301.51 781.73,-295.09 803,-282 827.98,-266.62 843.78,-233.92 850.4,-217.64"/>
<polygon fill="#9a32cd" stroke="#9a32cd" points="672.02,-301.05 662.26,-305.16 672.46,-308.04 672.02,-301.05"/>
<text text-anchor="middle" x="762" y="-304" font-family="Helvetica,sans-Serif" font-size="10.00"> pIconProgram</text>
</g>
<!-- Node16&#45;&gt;Node2 -->
<g id="edge21" class="edge">
<title>Node16&#45;&gt;Node2</title>
<path fill="none" stroke="#9a32cd" stroke-dasharray="5,2" d="M989.84,-195.83C983.28,-194.24 976.49,-192.86 970,-192 942.25,-188.3 934.68,-187.76 907,-192 898.38,-193.32 889.21,-195.83 881.06,-198.47"/>
<polygon fill="#9a32cd" stroke="#9a32cd" points="989.34,-199.32 999.9,-198.47 991.12,-192.55 989.34,-199.32"/>
<text text-anchor="middle" x="938.5" y="-195" font-family="Helvetica,sans-Serif" font-size="10.00"> pCurrProgram</text>
</g>
</g>
</svg>
