<?xml version="1.0" encoding="UTF-8" standalone="no"?>
<!DOCTYPE svg PUBLIC "-//W3C//DTD SVG 1.1//EN"
 "http://www.w3.org/Graphics/SVG/1.1/DTD/svg11.dtd">
<!-- Generated by graphviz version 2.44.0 ()
 -->
<!-- Title: MxGpuProgram Pages: 1 -->
<svg width="904pt" height="409pt"
 viewBox="0.00 0.00 904.00 409.00" xmlns="http://www.w3.org/2000/svg" xmlns:xlink="http://www.w3.org/1999/xlink">
<g id="graph0" class="graph" transform="scale(1 1) rotate(0) translate(4 405)">
<title>MxGpuProgram</title>
<!-- Node1 -->
<g id="node1" class="node">
<title>Node1</title>
<g id="a_node1"><a xlink:title=" ">
<polygon fill="#bfbfbf" stroke="black" points="591.5,-373.5 591.5,-392.5 675.5,-392.5 675.5,-373.5 591.5,-373.5"/>
<text text-anchor="middle" x="633.5" y="-380.5" font-family="Helvetica,sans-Serif" font-size="10.00">MxGpuProgram</text>
</a>
</g>
</g>
<!-- Node2 -->
<g id="node2" class="node">
<title>Node2</title>
<g id="a_node2"><a xlink:href="class_mx_renderer.html" target="_top" xlink:title="The MxRenderer keeps track of the rendering state and resources.">
<polygon fill="none" stroke="black" points="828,-252.5 828,-271.5 896,-271.5 896,-252.5 828,-252.5"/>
<text text-anchor="middle" x="862" y="-259.5" font-family="Helvetica,sans-Serif" font-size="10.00">MxRenderer</text>
</a>
</g>
</g>
<!-- Node1&#45;&gt;Node2 -->
<g id="edge19" class="edge">
<title>Node1&#45;&gt;Node2</title>
<path fill="none" stroke="#9a32cd" stroke-dasharray="5,2" d="M677.31,-370.54C725.61,-356.25 798.9,-333.81 810,-326 830.92,-311.28 847.63,-285.62 855.71,-271.68"/>
<polygon fill="#9a32cd" stroke="#9a32cd" points="676.02,-367.27 667.42,-373.45 678,-373.98 676.02,-367.27"/>
<text text-anchor="middle" x="773.5" y="-354" font-family="Helvetica,sans-Serif" font-size="10.00"> pCurrProgram</text>
</g>
<!-- Node2&#45;&gt;Node1 -->
<g id="edge1" class="edge">
<title>Node2&#45;&gt;Node1</title>
<path fill="none" stroke="#9a32cd" stroke-dasharray="5,2" d="M857.53,-281.48C852.06,-305.92 838.91,-347.02 810,-367 770.61,-394.22 713.79,-394.14 675.58,-389.97"/>
<polygon fill="#9a32cd" stroke="#9a32cd" points="860.98,-282.06 859.53,-271.57 854.12,-280.68 860.98,-282.06"/>
<text text-anchor="middle" x="773.5" y="-393" font-family="Helvetica,sans-Serif" font-size="10.00"> pRenderer</text>
</g>
<!-- Node3 -->
<g id="node3" class="node">
<title>Node3</title>
<g id="a_node3"><a xlink:title=" ">
<polygon fill="none" stroke="#bfbfbf" points="579,-328.5 579,-347.5 688,-347.5 688,-328.5 579,-328.5"/>
<text text-anchor="middle" x="633.5" y="-335.5" font-family="Helvetica,sans-Serif" font-size="10.00">MxOpenGLFunctions</text>
</a>
</g>
</g>
<!-- Node3&#45;&gt;Node2 -->
<g id="edge2" class="edge">
<title>Node3&#45;&gt;Node2</title>
<path fill="none" stroke="midnightblue" d="M698.18,-331.51C732.47,-326.33 774.84,-317.14 810,-301 826.01,-293.65 841.68,-280.52 851.34,-271.54"/>
<polygon fill="midnightblue" stroke="midnightblue" points="697.67,-328.05 688.27,-332.93 698.67,-334.98 697.67,-328.05"/>
</g>
<!-- Node4 -->
<g id="node4" class="node">
<title>Node4</title>
<g id="a_node4"><a xlink:href="struct_mx_renderer_1_1_texture__p.html" target="_top" xlink:title=" ">
<polygon fill="none" stroke="black" points="575.5,-290.5 575.5,-309.5 691.5,-309.5 691.5,-290.5 575.5,-290.5"/>
<text text-anchor="middle" x="633.5" y="-297.5" font-family="Helvetica,sans-Serif" font-size="10.00">MxRenderer::Texture_p</text>
</a>
</g>
</g>
<!-- Node4&#45;&gt;Node2 -->
<g id="edge3" class="edge">
<title>Node4&#45;&gt;Node2</title>
<path fill="none" stroke="#9a32cd" stroke-dasharray="5,2" d="M701.55,-291.41C734.35,-286.87 774.36,-280.82 810,-274 815.81,-272.89 821.95,-271.57 827.89,-270.22"/>
<polygon fill="#9a32cd" stroke="#9a32cd" points="701.04,-287.95 691.61,-292.77 701.99,-294.88 701.04,-287.95"/>
<text text-anchor="middle" x="773.5" y="-289" font-family="Helvetica,sans-Serif" font-size="10.00"> pBoundTextures</text>
</g>
<!-- Node5 -->
<g id="node5" class="node">
<title>Node5</title>
<g id="a_node5"><a xlink:href="class_mx_texture.html" target="_top" xlink:title=" ">
<polygon fill="none" stroke="black" points="288.5,-290.5 288.5,-309.5 350.5,-309.5 350.5,-290.5 288.5,-290.5"/>
<text text-anchor="middle" x="319.5" y="-297.5" font-family="Helvetica,sans-Serif" font-size="10.00">MxTexture</text>
</a>
</g>
</g>
<!-- Node5&#45;&gt;Node4 -->
<g id="edge4" class="edge">
<title>Node5&#45;&gt;Node4</title>
<path fill="none" stroke="#9a32cd" stroke-dasharray="5,2" d="M361.04,-300C415.73,-300 513.41,-300 575.48,-300"/>
<polygon fill="#9a32cd" stroke="#9a32cd" points="360.7,-296.5 350.7,-300 360.7,-303.5 360.7,-296.5"/>
<text text-anchor="middle" x="460.5" y="-303" font-family="Helvetica,sans-Serif" font-size="10.00"> texture</text>
</g>
<!-- Node6 -->
<g id="node6" class="node">
<title>Node6</title>
<g id="a_node6"><a xlink:href="struct_mx_renderer_1_1_viewport.html" target="_top" xlink:title=" ">
<polygon fill="none" stroke="black" points="578,-252.5 578,-271.5 689,-271.5 689,-252.5 578,-252.5"/>
<text text-anchor="middle" x="633.5" y="-259.5" font-family="Helvetica,sans-Serif" font-size="10.00">MxRenderer::Viewport</text>
</a>
</g>
</g>
<!-- Node6&#45;&gt;Node2 -->
<g id="edge5" class="edge">
<title>Node6&#45;&gt;Node2</title>
<path fill="none" stroke="#9a32cd" stroke-dasharray="5,2" d="M699.2,-262C741.25,-262 794.32,-262 827.97,-262"/>
<polygon fill="#9a32cd" stroke="#9a32cd" points="699.04,-258.5 689.04,-262 699.04,-265.5 699.04,-258.5"/>
<text text-anchor="middle" x="773.5" y="-265" font-family="Helvetica,sans-Serif" font-size="10.00"> pViewport</text>
</g>
<!-- Node7 -->
<g id="node7" class="node">
<title>Node7</title>
<g id="a_node7"><a xlink:href="class_mx_list.html" target="_top" xlink:title=" ">
<polygon fill="none" stroke="black" points="575.5,-214.5 575.5,-233.5 691.5,-233.5 691.5,-214.5 575.5,-214.5"/>
<text text-anchor="middle" x="633.5" y="-221.5" font-family="Helvetica,sans-Serif" font-size="10.00">MxList&lt; MxGpuArray &gt;</text>
</a>
</g>
</g>
<!-- Node7&#45;&gt;Node2 -->
<g id="edge6" class="edge">
<title>Node7&#45;&gt;Node2</title>
<path fill="none" stroke="#9a32cd" stroke-dasharray="5,2" d="M701.74,-230.33C734.59,-234.05 774.58,-239.52 810,-247 817.04,-248.49 824.53,-250.46 831.53,-252.49"/>
<polygon fill="#9a32cd" stroke="#9a32cd" points="702.11,-226.85 691.79,-229.23 701.34,-233.81 702.11,-226.85"/>
<text text-anchor="middle" x="773.5" y="-250" font-family="Helvetica,sans-Serif" font-size="10.00"> pBufferViews</text>
</g>
<!-- Node8 -->
<g id="node8" class="node">
<title>Node8</title>
<g id="a_node8"><a xlink:href="struct_mx_list_1_1_data.html" target="_top" xlink:title="these members are public to allow unions">
<polygon fill="none" stroke="black" points="115,-121 115,-151 222,-151 222,-121 115,-121"/>
<text text-anchor="start" x="123" y="-139" font-family="Helvetica,sans-Serif" font-size="10.00">MxList&lt; T, Initializer,</text>
<text text-anchor="middle" x="168.5" y="-128" font-family="Helvetica,sans-Serif" font-size="10.00"> Prealloc &gt;::Data</text>
</a>
</g>
</g>
<!-- Node8&#45;&gt;Node7 -->
<g id="edge7" class="edge">
<title>Node8&#45;&gt;Node7</title>
<path fill="none" stroke="#9a32cd" stroke-dasharray="5,2" d="M199.29,-156.62C217.88,-168.88 242.65,-184.11 266,-195 319.11,-219.78 333.16,-227.54 391,-237 454.81,-247.43 529.25,-240.61 578.43,-233.52"/>
<polygon fill="#9a32cd" stroke="#9a32cd" points="201.21,-153.7 190.95,-151.05 197.32,-159.52 201.21,-153.7"/>
<text text-anchor="middle" x="319.5" y="-236" font-family="Helvetica,sans-Serif" font-size="10.00"> d</text>
</g>
<!-- Node10 -->
<g id="node10" class="node">
<title>Node10</title>
<g id="a_node10"><a xlink:href="class_mx_list.html" target="_top" xlink:title=" ">
<polygon fill="none" stroke="black" points="266,-155 266,-185 373,-185 373,-155 266,-155"/>
<text text-anchor="start" x="274" y="-173" font-family="Helvetica,sans-Serif" font-size="10.00">MxList&lt; T, Initializer,</text>
<text text-anchor="middle" x="319.5" y="-162" font-family="Helvetica,sans-Serif" font-size="10.00"> Prealloc &gt;</text>
</a>
</g>
</g>
<!-- Node8&#45;&gt;Node10 -->
<g id="edge10" class="edge">
<title>Node8&#45;&gt;Node10</title>
<path fill="none" stroke="#9a32cd" stroke-dasharray="5,2" d="M231.87,-150.23C243.2,-152.82 254.92,-155.49 265.94,-158.01"/>
<polygon fill="#9a32cd" stroke="#9a32cd" points="232.56,-146.8 222.03,-147.99 231,-153.62 232.56,-146.8"/>
<text text-anchor="middle" x="244" y="-156" font-family="Helvetica,sans-Serif" font-size="10.00"> d</text>
</g>
<!-- Node11 -->
<g id="node11" class="node">
<title>Node11</title>
<g id="a_node11"><a xlink:href="class_mx_list.html" target="_top" xlink:title=" ">
<polygon fill="none" stroke="black" points="574,-165 574,-195 693,-195 693,-165 574,-165"/>
<text text-anchor="start" x="582" y="-183" font-family="Helvetica,sans-Serif" font-size="10.00">MxList&lt; MxRenderer</text>
<text text-anchor="middle" x="633.5" y="-172" font-family="Helvetica,sans-Serif" font-size="10.00">::StoredRootSignature &gt;</text>
</a>
</g>
</g>
<!-- Node8&#45;&gt;Node11 -->
<g id="edge12" class="edge">
<title>Node8&#45;&gt;Node11</title>
<path fill="none" stroke="#9a32cd" stroke-dasharray="5,2" d="M215.34,-117.33C288.39,-90.85 432.83,-52.17 530,-115 546.37,-125.59 533.32,-142.18 548,-155 555.38,-161.44 564.34,-166.22 573.65,-169.77"/>
<polygon fill="#9a32cd" stroke="#9a32cd" points="213.68,-114.22 205.52,-120.98 216.12,-120.78 213.68,-114.22"/>
<text text-anchor="middle" x="319.5" y="-104" font-family="Helvetica,sans-Serif" font-size="10.00"> d</text>
</g>
<!-- Node14 -->
<g id="node14" class="node">
<title>Node14</title>
<g id="a_node14"><a xlink:href="class_mx_list.html" target="_top" xlink:title=" ">
<polygon fill="none" stroke="black" points="548,-104.5 548,-145.5 719,-145.5 719,-104.5 548,-104.5"/>
<text text-anchor="start" x="556" y="-133.5" font-family="Helvetica,sans-Serif" font-size="10.00">MxList&lt; MxRenderer</text>
<text text-anchor="start" x="556" y="-122.5" font-family="Helvetica,sans-Serif" font-size="10.00">::ReusableVbo, MxClassInitializer</text>
<text text-anchor="middle" x="633.5" y="-111.5" font-family="Helvetica,sans-Serif" font-size="10.00">&lt; MxRenderer::ReusableVbo &gt;, 32 &gt;</text>
</a>
</g>
</g>
<!-- Node8&#45;&gt;Node14 -->
<g id="edge17" class="edge">
<title>Node8&#45;&gt;Node14</title>
<path fill="none" stroke="#9a32cd" stroke-dasharray="5,2" d="M192.73,-114.1C211.05,-98.43 238.09,-78.63 266,-70 298.75,-59.87 522.69,-76.21 530,-78 553.01,-83.64 577.16,-94.45 596.24,-104.28"/>
<polygon fill="#9a32cd" stroke="#9a32cd" points="190.14,-111.72 184.96,-120.95 194.77,-116.97 190.14,-111.72"/>
<text text-anchor="middle" x="319.5" y="-73" font-family="Helvetica,sans-Serif" font-size="10.00"> d</text>
</g>
<!-- Node9 -->
<g id="node9" class="node">
<title>Node9</title>
<g id="a_node9"><a xlink:href="class_mx_ref_counter.html" target="_top" xlink:title=" ">
<polygon fill="none" stroke="black" points="0,-126.5 0,-145.5 78,-145.5 78,-126.5 0,-126.5"/>
<text text-anchor="middle" x="39" y="-133.5" font-family="Helvetica,sans-Serif" font-size="10.00">MxRefCounter</text>
</a>
</g>
</g>
<!-- Node9&#45;&gt;Node8 -->
<g id="edge8" class="edge">
<title>Node9&#45;&gt;Node8</title>
<path fill="none" stroke="midnightblue" d="M88.46,-136C97.03,-136 105.98,-136 114.66,-136"/>
<polygon fill="midnightblue" stroke="midnightblue" points="88.25,-132.5 78.25,-136 88.25,-139.5 88.25,-132.5"/>
</g>
<!-- Node10&#45;&gt;Node7 -->
<g id="edge9" class="edge">
<title>Node10&#45;&gt;Node7</title>
<path fill="none" stroke="orange" stroke-dasharray="5,2" d="M357.5,-189.6C368.06,-194.41 379.76,-199.03 391,-202 452.66,-218.3 525.92,-223.01 575.45,-224.14"/>
<polygon fill="orange" stroke="orange" points="358.71,-186.29 348.17,-185.17 355.7,-192.62 358.71,-186.29"/>
<text text-anchor="middle" x="460.5" y="-225" font-family="Helvetica,sans-Serif" font-size="10.00"> &lt; MxGpuArray &gt;</text>
</g>
<!-- Node10&#45;&gt;Node11 -->
<g id="edge13" class="edge">
<title>Node10&#45;&gt;Node11</title>
<path fill="none" stroke="orange" stroke-dasharray="5,2" d="M383.16,-172.01C438.79,-173.79 519.48,-176.38 573.86,-178.12"/>
<polygon fill="orange" stroke="orange" points="383.18,-168.51 373.07,-171.69 382.96,-175.5 383.18,-168.51"/>
<text text-anchor="start" x="402.5" y="-190" font-family="Helvetica,sans-Serif" font-size="10.00"> &lt; MxRenderer::StoredRoot</text>
<text text-anchor="middle" x="460.5" y="-179" font-family="Helvetica,sans-Serif" font-size="10.00">Signature &gt;</text>
</g>
<!-- Node10&#45;&gt;Node14 -->
<g id="edge18" class="edge">
<title>Node10&#45;&gt;Node14</title>
<path fill="none" stroke="orange" stroke-dasharray="5,2" d="M353.43,-150.09C364.91,-144.12 378.15,-138.3 391,-135 442.01,-121.91 501.05,-119.26 547.98,-119.95"/>
<polygon fill="orange" stroke="orange" points="351.75,-147.01 344.63,-154.86 355.09,-153.17 351.75,-147.01"/>
<text text-anchor="start" x="391" y="-160" font-family="Helvetica,sans-Serif" font-size="10.00"> &lt; MxRenderer::ReusableVbo,</text>
<text text-anchor="start" x="391" y="-149" font-family="Helvetica,sans-Serif" font-size="10.00"> MxClassInitializer&lt; MxRenderer</text>
<text text-anchor="middle" x="460.5" y="-138" font-family="Helvetica,sans-Serif" font-size="10.00">::ReusableVbo &gt;, 32 &gt;</text>
</g>
<!-- Node11&#45;&gt;Node2 -->
<g id="edge11" class="edge">
<title>Node11&#45;&gt;Node2</title>
<path fill="none" stroke="#9a32cd" stroke-dasharray="5,2" d="M703.51,-187.5C736.95,-193.06 776.92,-202.63 810,-219 826.81,-227.32 842.77,-242.33 852.22,-252.23"/>
<polygon fill="#9a32cd" stroke="#9a32cd" points="703.78,-184 693.36,-185.9 702.69,-190.92 703.78,-184"/>
<text text-anchor="middle" x="773.5" y="-222" font-family="Helvetica,sans-Serif" font-size="10.00"> pRootInputList</text>
</g>
<!-- Node12 -->
<g id="node12" class="node">
<title>Node12</title>
<g id="a_node12"><a xlink:href="class_mx_vector.html" target="_top" xlink:title=" ">
<polygon fill="none" stroke="black" points="586,-39.5 586,-58.5 681,-58.5 681,-39.5 586,-39.5"/>
<text text-anchor="middle" x="633.5" y="-46.5" font-family="Helvetica,sans-Serif" font-size="10.00">MxVector&lt; 2, int &gt;</text>
</a>
</g>
</g>
<!-- Node12&#45;&gt;Node2 -->
<g id="edge14" class="edge">
<title>Node12&#45;&gt;Node2</title>
<path fill="none" stroke="#9a32cd" stroke-dasharray="5,2" d="M688.32,-61.43C726.82,-72.86 777.39,-93.4 810,-128 844.83,-164.96 856.53,-228.1 859.85,-252.23"/>
<polygon fill="#9a32cd" stroke="#9a32cd" points="688.89,-57.96 678.31,-58.59 686.97,-64.69 688.89,-57.96"/>
<text text-anchor="middle" x="773.5" y="-131" font-family="Helvetica,sans-Serif" font-size="10.00"> pScreenSize</text>
</g>
<!-- Node13 -->
<g id="node13" class="node">
<title>Node13</title>
<g id="a_node13"><a xlink:href="class_mx_vector.html" target="_top" xlink:title=" ">
<polygon fill="none" stroke="black" points="273,-0.5 273,-19.5 366,-19.5 366,-0.5 273,-0.5"/>
<text text-anchor="middle" x="319.5" y="-7.5" font-family="Helvetica,sans-Serif" font-size="10.00">MxVector&lt; N, T &gt;</text>
</a>
</g>
</g>
<!-- Node13&#45;&gt;Node12 -->
<g id="edge15" class="edge">
<title>Node13&#45;&gt;Node12</title>
<path fill="none" stroke="orange" stroke-dasharray="5,2" d="M376.48,-14.48C418.76,-18.14 478.15,-23.86 530,-31 548.35,-33.53 568.43,-36.92 585.93,-40.07"/>
<polygon fill="orange" stroke="orange" points="376.65,-10.98 366.39,-13.62 376.05,-17.96 376.65,-10.98"/>
<text text-anchor="middle" x="460.5" y="-34" font-family="Helvetica,sans-Serif" font-size="10.00"> &lt; 2, int &gt;</text>
</g>
<!-- Node14&#45;&gt;Node2 -->
<g id="edge16" class="edge">
<title>Node14&#45;&gt;Node2</title>
<path fill="none" stroke="#9a32cd" stroke-dasharray="5,2" d="M729.22,-140.82C757.26,-148.86 786.67,-160.92 810,-179 835.54,-198.78 851.36,-235.25 857.74,-252.49"/>
<polygon fill="#9a32cd" stroke="#9a32cd" points="729.94,-137.39 719.37,-138.14 728.1,-144.15 729.94,-137.39"/>
<text text-anchor="middle" x="773.5" y="-182" font-family="Helvetica,sans-Serif" font-size="10.00"> pReusableVbos</text>
</g>
</g>
</svg>
