<?xml version="1.0" encoding="UTF-8" standalone="no"?>
<!DOCTYPE svg PUBLIC "-//W3C//DTD SVG 1.1//EN"
 "http://www.w3.org/Graphics/SVG/1.1/DTD/svg11.dtd">
<!-- Generated by graphviz version 2.44.0 ()
 -->
<!-- Title: MxTextButton Pages: 1 -->
<svg width="1465pt" height="341pt"
 viewBox="0.00 0.00 1465.00 341.00" xmlns="http://www.w3.org/2000/svg" xmlns:xlink="http://www.w3.org/1999/xlink">
<g id="graph0" class="graph" transform="scale(1 1) rotate(0) translate(4 337)">
<title>MxTextButton</title>
<!-- Node1 -->
<g id="node1" class="node">
<title>Node1</title>
<g id="a_node1"><a xlink:title=" ">
<polygon fill="#bfbfbf" stroke="black" points="1380,-9.5 1380,-28.5 1457,-28.5 1457,-9.5 1380,-9.5"/>
<text text-anchor="middle" x="1418.5" y="-16.5" font-family="Helvetica,sans-Serif" font-size="10.00">MxTextButton</text>
</a>
</g>
</g>
<!-- Node2 -->
<g id="node2" class="node">
<title>Node2</title>
<g id="a_node2"><a xlink:href="class_mx_button.html" target="_top" xlink:title="Base class for buttons.">
<polygon fill="none" stroke="black" points="1275.5,-35.5 1275.5,-54.5 1333.5,-54.5 1333.5,-35.5 1275.5,-35.5"/>
<text text-anchor="middle" x="1304.5" y="-42.5" font-family="Helvetica,sans-Serif" font-size="10.00">MxButton</text>
</a>
</g>
</g>
<!-- Node2&#45;&gt;Node1 -->
<g id="edge1" class="edge">
<title>Node2&#45;&gt;Node1</title>
<path fill="none" stroke="midnightblue" d="M1343.69,-36.13C1355.4,-33.42 1368.27,-30.43 1379.93,-27.72"/>
<polygon fill="midnightblue" stroke="midnightblue" points="1342.71,-32.77 1333.76,-38.44 1344.29,-39.59 1342.71,-32.77"/>
</g>
<!-- Node3 -->
<g id="node3" class="node">
<title>Node3</title>
<g id="a_node3"><a xlink:href="class_mx_widget.html" target="_top" xlink:title=" ">
<polygon fill="none" stroke="black" points="1077.5,-93.5 1077.5,-112.5 1136.5,-112.5 1136.5,-93.5 1077.5,-93.5"/>
<text text-anchor="middle" x="1107" y="-100.5" font-family="Helvetica,sans-Serif" font-size="10.00">MxWidget</text>
</a>
</g>
</g>
<!-- Node3&#45;&gt;Node2 -->
<g id="edge2" class="edge">
<title>Node3&#45;&gt;Node2</title>
<path fill="none" stroke="midnightblue" d="M1146.54,-91.57C1184.52,-80.3 1241.64,-63.35 1275.49,-53.31"/>
<polygon fill="midnightblue" stroke="midnightblue" points="1145.44,-88.24 1136.85,-94.44 1147.43,-94.95 1145.44,-88.24"/>
</g>
<!-- Node3&#45;&gt;Node3 -->
<g id="edge5" class="edge">
<title>Node3&#45;&gt;Node3</title>
<path fill="none" stroke="#9a32cd" stroke-dasharray="5,2" d="M1090.33,-122.4C1091.45,-127.31 1097,-131 1107,-131 1123,-131 1127.62,-121.57 1120.87,-112.76"/>
<polygon fill="#9a32cd" stroke="#9a32cd" points="1093.71,-123.34 1093.13,-112.76 1086.98,-121.39 1093.71,-123.34"/>
<text text-anchor="middle" x="1107" y="-134" font-family="Helvetica,sans-Serif" font-size="10.00"> pParent</text>
</g>
<!-- Node6 -->
<g id="node6" class="node">
<title>Node6</title>
<g id="a_node6"><a xlink:href="class_mx_application.html" target="_top" xlink:title=" ">
<polygon fill="none" stroke="black" points="1266,-145.5 1266,-164.5 1343,-164.5 1343,-145.5 1266,-145.5"/>
<text text-anchor="middle" x="1304.5" y="-152.5" font-family="Helvetica,sans-Serif" font-size="10.00">MxApplication</text>
</a>
</g>
</g>
<!-- Node3&#45;&gt;Node6 -->
<g id="edge7" class="edge">
<title>Node3&#45;&gt;Node6</title>
<path fill="none" stroke="#9a32cd" stroke-dasharray="5,2" d="M1146.75,-113.31C1181.9,-122.66 1233.3,-136.33 1267.55,-145.44"/>
<polygon fill="#9a32cd" stroke="#9a32cd" points="1147.41,-109.86 1136.85,-110.67 1145.61,-116.63 1147.41,-109.86"/>
<text text-anchor="middle" x="1208.5" y="-142" font-family="Helvetica,sans-Serif" font-size="10.00"> pWidget</text>
</g>
<!-- Node4 -->
<g id="node4" class="node">
<title>Node4</title>
<g id="a_node4"><a xlink:href="class_mx_vector.html" target="_top" xlink:title=" ">
<polygon fill="none" stroke="black" points="868,-93.5 868,-112.5 971,-112.5 971,-93.5 868,-93.5"/>
<text text-anchor="middle" x="919.5" y="-100.5" font-family="Helvetica,sans-Serif" font-size="10.00">MxVector&lt; 2, float &gt;</text>
</a>
</g>
</g>
<!-- Node4&#45;&gt;Node3 -->
<g id="edge3" class="edge">
<title>Node4&#45;&gt;Node3</title>
<path fill="none" stroke="#9a32cd" stroke-dasharray="5,2" d="M981.43,-103C1013.7,-103 1051.8,-103 1077.3,-103"/>
<polygon fill="#9a32cd" stroke="#9a32cd" points="981.19,-99.5 971.19,-103 981.19,-106.5 981.19,-99.5"/>
<text text-anchor="middle" x="1017" y="-117" font-family="Helvetica,sans-Serif" font-size="10.00"> pPos</text>
<text text-anchor="middle" x="1017" y="-106" font-family="Helvetica,sans-Serif" font-size="10.00">pSize</text>
</g>
<!-- Node19 -->
<g id="node19" class="node">
<title>Node19</title>
<g id="a_node19"><a xlink:href="class_mx_painter.html" target="_top" xlink:title="Holder to the different painters.">
<polygon fill="none" stroke="black" points="1077,-198.5 1077,-217.5 1137,-217.5 1137,-198.5 1077,-198.5"/>
<text text-anchor="middle" x="1107" y="-205.5" font-family="Helvetica,sans-Serif" font-size="10.00">MxPainter</text>
</a>
</g>
</g>
<!-- Node4&#45;&gt;Node19 -->
<g id="edge23" class="edge">
<title>Node4&#45;&gt;Node19</title>
<path fill="none" stroke="#9a32cd" stroke-dasharray="5,2" d="M943.72,-118.27C971.5,-136.24 1019.7,-166.48 1063,-189 1069.37,-192.31 1076.44,-195.59 1082.98,-198.47"/>
<polygon fill="#9a32cd" stroke="#9a32cd" points="945.41,-115.19 935.12,-112.67 941.59,-121.06 945.41,-115.19"/>
<text text-anchor="middle" x="1017" y="-181" font-family="Helvetica,sans-Serif" font-size="10.00"> pTranslation</text>
</g>
<!-- Node5 -->
<g id="node5" class="node">
<title>Node5</title>
<g id="a_node5"><a xlink:href="class_mx_vector.html" target="_top" xlink:title=" ">
<polygon fill="none" stroke="black" points="275,-116.5 275,-135.5 368,-135.5 368,-116.5 275,-116.5"/>
<text text-anchor="middle" x="321.5" y="-123.5" font-family="Helvetica,sans-Serif" font-size="10.00">MxVector&lt; N, T &gt;</text>
</a>
</g>
</g>
<!-- Node5&#45;&gt;Node4 -->
<g id="edge4" class="edge">
<title>Node5&#45;&gt;Node4</title>
<path fill="none" stroke="orange" stroke-dasharray="5,2" d="M378.31,-120.25C424.74,-115.74 492.59,-109.78 552,-107 664.66,-101.73 797.01,-101.84 867.78,-102.41"/>
<polygon fill="orange" stroke="orange" points="377.77,-116.79 368.16,-121.25 378.45,-123.76 377.77,-116.79"/>
<text text-anchor="middle" x="637.5" y="-110" font-family="Helvetica,sans-Serif" font-size="10.00"> &lt; 2, float &gt;</text>
</g>
<!-- Node12 -->
<g id="node12" class="node">
<title>Node12</title>
<g id="a_node12"><a xlink:href="class_mx_vector.html" target="_top" xlink:title=" ">
<polygon fill="none" stroke="black" points="590,-165.5 590,-184.5 685,-184.5 685,-165.5 590,-165.5"/>
<text text-anchor="middle" x="637.5" y="-172.5" font-family="Helvetica,sans-Serif" font-size="10.00">MxVector&lt; 2, int &gt;</text>
</a>
</g>
</g>
<!-- Node5&#45;&gt;Node12 -->
<g id="edge14" class="edge">
<title>Node5&#45;&gt;Node12</title>
<path fill="none" stroke="orange" stroke-dasharray="5,2" d="M378.25,-134.7C438.45,-144.09 533.31,-158.9 589.76,-167.71"/>
<polygon fill="orange" stroke="orange" points="378.58,-131.21 368.16,-133.13 377.5,-138.13 378.58,-131.21"/>
<text text-anchor="middle" x="464.5" y="-160" font-family="Helvetica,sans-Serif" font-size="10.00"> &lt; 2, int &gt;</text>
</g>
<!-- Node6&#45;&gt;Node3 -->
<g id="edge6" class="edge">
<title>Node6&#45;&gt;Node3</title>
<path fill="none" stroke="#9a32cd" stroke-dasharray="5,2" d="M1290.06,-137.59C1279.92,-125.97 1264.9,-111.63 1248,-105 1211.68,-90.75 1165.87,-93.58 1136.75,-97.68"/>
<polygon fill="#9a32cd" stroke="#9a32cd" points="1287.46,-139.95 1296.53,-145.43 1292.86,-135.49 1287.46,-139.95"/>
<text text-anchor="middle" x="1208.5" y="-108" font-family="Helvetica,sans-Serif" font-size="10.00"> sApplication</text>
</g>
<!-- Node7 -->
<g id="node7" class="node">
<title>Node7</title>
<g id="a_node7"><a xlink:href="class_mx_gui_renderer.html" target="_top" xlink:title=" ">
<polygon fill="none" stroke="black" points="1065.5,-160.5 1065.5,-179.5 1148.5,-179.5 1148.5,-160.5 1065.5,-160.5"/>
<text text-anchor="middle" x="1107" y="-167.5" font-family="Helvetica,sans-Serif" font-size="10.00">MxGuiRenderer</text>
</a>
</g>
</g>
<!-- Node7&#45;&gt;Node6 -->
<g id="edge8" class="edge">
<title>Node7&#45;&gt;Node6</title>
<path fill="none" stroke="#9a32cd" stroke-dasharray="5,2" d="M1158.56,-166.12C1192.02,-163.55 1235.2,-160.24 1265.7,-157.9"/>
<polygon fill="#9a32cd" stroke="#9a32cd" points="1158.21,-162.64 1148.51,-166.89 1158.75,-169.62 1158.21,-162.64"/>
<text text-anchor="middle" x="1208.5" y="-168" font-family="Helvetica,sans-Serif" font-size="10.00"> pRenderer</text>
</g>
<!-- Node8 -->
<g id="node8" class="node">
<title>Node8</title>
<g id="a_node8"><a xlink:href="class_mx_renderer.html" target="_top" xlink:title=" ">
<polygon fill="none" stroke="black" points="885.5,-169.5 885.5,-188.5 953.5,-188.5 953.5,-169.5 885.5,-169.5"/>
<text text-anchor="middle" x="919.5" y="-176.5" font-family="Helvetica,sans-Serif" font-size="10.00">MxRenderer</text>
</a>
</g>
</g>
<!-- Node8&#45;&gt;Node7 -->
<g id="edge9" class="edge">
<title>Node8&#45;&gt;Node7</title>
<path fill="none" stroke="midnightblue" d="M964.04,-176.89C994.68,-175.4 1035.39,-173.43 1065.36,-171.97"/>
<polygon fill="midnightblue" stroke="midnightblue" points="963.48,-173.41 953.66,-177.39 963.82,-180.4 963.48,-173.41"/>
</g>
<!-- Node9 -->
<g id="node9" class="node">
<title>Node9</title>
<g id="a_node9"><a xlink:title=" ">
<polygon fill="none" stroke="#bfbfbf" points="583,-203.5 583,-222.5 692,-222.5 692,-203.5 583,-203.5"/>
<text text-anchor="middle" x="637.5" y="-210.5" font-family="Helvetica,sans-Serif" font-size="10.00">MxOpenGLFunctions</text>
</a>
</g>
</g>
<!-- Node9&#45;&gt;Node8 -->
<g id="edge10" class="edge">
<title>Node9&#45;&gt;Node8</title>
<path fill="none" stroke="midnightblue" d="M702.22,-208.15C744.29,-204.59 800.57,-199.13 850,-192 861.62,-190.32 874.27,-188.05 885.5,-185.88"/>
<polygon fill="midnightblue" stroke="midnightblue" points="701.79,-204.68 692.12,-209 702.37,-211.65 701.79,-204.68"/>
</g>
<!-- Node10 -->
<g id="node10" class="node">
<title>Node10</title>
<g id="a_node10"><a xlink:href="struct_mx_renderer_1_1_viewport.html" target="_top" xlink:title=" ">
<polygon fill="none" stroke="black" points="582,-241.5 582,-260.5 693,-260.5 693,-241.5 582,-241.5"/>
<text text-anchor="middle" x="637.5" y="-248.5" font-family="Helvetica,sans-Serif" font-size="10.00">MxRenderer::Viewport</text>
</a>
</g>
</g>
<!-- Node10&#45;&gt;Node8 -->
<g id="edge11" class="edge">
<title>Node10&#45;&gt;Node8</title>
<path fill="none" stroke="#9a32cd" stroke-dasharray="5,2" d="M703.32,-243.61C745.75,-237.66 802.03,-227.67 850,-212 868.45,-205.98 888.29,-195.99 901.85,-188.58"/>
<polygon fill="#9a32cd" stroke="#9a32cd" points="702.82,-240.14 693.39,-244.96 703.77,-247.08 702.82,-240.14"/>
<text text-anchor="middle" x="795.5" y="-240" font-family="Helvetica,sans-Serif" font-size="10.00"> pViewport</text>
</g>
<!-- Node11 -->
<g id="node11" class="node">
<title>Node11</title>
<g id="a_node11"><a xlink:href="class_mx_matrix.html" target="_top" xlink:title=" ">
<polygon fill="none" stroke="black" points="609.5,-127.5 609.5,-146.5 665.5,-146.5 665.5,-127.5 609.5,-127.5"/>
<text text-anchor="middle" x="637.5" y="-134.5" font-family="Helvetica,sans-Serif" font-size="10.00">MxMatrix</text>
</a>
</g>
</g>
<!-- Node11&#45;&gt;Node8 -->
<g id="edge12" class="edge">
<title>Node11&#45;&gt;Node8</title>
<path fill="none" stroke="#9a32cd" stroke-dasharray="5,2" d="M675.88,-139.61C718.33,-142.94 789.56,-149.69 850,-161 861.84,-163.22 874.66,-166.37 885.97,-169.43"/>
<polygon fill="#9a32cd" stroke="#9a32cd" points="675.97,-136.1 665.73,-138.83 675.43,-143.08 675.97,-136.1"/>
<text text-anchor="middle" x="795.5" y="-164" font-family="Helvetica,sans-Serif" font-size="10.00"> pScreenProjectionMatrix</text>
</g>
<!-- Node12&#45;&gt;Node8 -->
<g id="edge13" class="edge">
<title>Node12&#45;&gt;Node8</title>
<path fill="none" stroke="#9a32cd" stroke-dasharray="5,2" d="M695.37,-175.81C752.53,-176.63 838.68,-177.86 885.45,-178.53"/>
<polygon fill="#9a32cd" stroke="#9a32cd" points="695.1,-172.31 685.05,-175.67 695,-179.31 695.1,-172.31"/>
<text text-anchor="middle" x="795.5" y="-180" font-family="Helvetica,sans-Serif" font-size="10.00"> pScreenSize</text>
</g>
<!-- Node13 -->
<g id="node13" class="node">
<title>Node13</title>
<g id="a_node13"><a xlink:href="class_mx_list.html" target="_top" xlink:title=" ">
<polygon fill="none" stroke="black" points="552,-279.5 552,-320.5 723,-320.5 723,-279.5 552,-279.5"/>
<text text-anchor="start" x="560" y="-308.5" font-family="Helvetica,sans-Serif" font-size="10.00">MxList&lt; MxRenderer</text>
<text text-anchor="start" x="560" y="-297.5" font-family="Helvetica,sans-Serif" font-size="10.00">::ReusableVbo, MxClassInitializer</text>
<text text-anchor="middle" x="637.5" y="-286.5" font-family="Helvetica,sans-Serif" font-size="10.00">&lt; MxRenderer::ReusableVbo &gt;, 32 &gt;</text>
</a>
</g>
</g>
<!-- Node13&#45;&gt;Node8 -->
<g id="edge15" class="edge">
<title>Node13&#45;&gt;Node8</title>
<path fill="none" stroke="#9a32cd" stroke-dasharray="5,2" d="M733.11,-290.75C771.3,-283.98 814.61,-272.27 850,-252 878.2,-235.85 901.75,-204.34 912.4,-188.53"/>
<polygon fill="#9a32cd" stroke="#9a32cd" points="732.29,-287.34 723.01,-292.44 733.45,-294.24 732.29,-287.34"/>
<text text-anchor="middle" x="795.5" y="-291" font-family="Helvetica,sans-Serif" font-size="10.00"> pReusableVbos</text>
</g>
<!-- Node14 -->
<g id="node14" class="node">
<title>Node14</title>
<g id="a_node14"><a xlink:href="struct_mx_list_1_1_data.html" target="_top" xlink:title="these members are public to allow unions">
<polygon fill="none" stroke="black" points="115,-240 115,-270 222,-270 222,-240 115,-240"/>
<text text-anchor="start" x="123" y="-258" font-family="Helvetica,sans-Serif" font-size="10.00">MxList&lt; T, Initializer,</text>
<text text-anchor="middle" x="168.5" y="-247" font-family="Helvetica,sans-Serif" font-size="10.00"> Prealloc &gt;::Data</text>
</a>
</g>
</g>
<!-- Node14&#45;&gt;Node13 -->
<g id="edge16" class="edge">
<title>Node14&#45;&gt;Node13</title>
<path fill="none" stroke="#9a32cd" stroke-dasharray="5,2" d="M232.2,-256.62C273.42,-258.03 328.49,-260.57 377,-265 435.63,-270.36 501.34,-279.25 551.98,-286.73"/>
<polygon fill="#9a32cd" stroke="#9a32cd" points="232.14,-253.12 222.03,-256.28 231.91,-260.11 232.14,-253.12"/>
<text text-anchor="middle" x="321.5" y="-268" font-family="Helvetica,sans-Serif" font-size="10.00"> d</text>
</g>
<!-- Node16 -->
<g id="node16" class="node">
<title>Node16</title>
<g id="a_node16"><a xlink:href="class_mx_list.html" target="_top" xlink:title=" ">
<polygon fill="none" stroke="black" points="268,-285 268,-315 375,-315 375,-285 268,-285"/>
<text text-anchor="start" x="276" y="-303" font-family="Helvetica,sans-Serif" font-size="10.00">MxList&lt; T, Initializer,</text>
<text text-anchor="middle" x="321.5" y="-292" font-family="Helvetica,sans-Serif" font-size="10.00"> Prealloc &gt;</text>
</a>
</g>
</g>
<!-- Node14&#45;&gt;Node16 -->
<g id="edge19" class="edge">
<title>Node14&#45;&gt;Node16</title>
<path fill="none" stroke="#9a32cd" stroke-dasharray="5,2" d="M230.14,-273.07C243.34,-277.01 257.17,-281.13 269.93,-284.93"/>
<polygon fill="#9a32cd" stroke="#9a32cd" points="230.78,-269.61 220.2,-270.11 228.78,-276.32 230.78,-269.61"/>
<text text-anchor="middle" x="244" y="-280" font-family="Helvetica,sans-Serif" font-size="10.00"> d</text>
</g>
<!-- Node15 -->
<g id="node15" class="node">
<title>Node15</title>
<g id="a_node15"><a xlink:href="class_mx_ref_counter.html" target="_top" xlink:title=" ">
<polygon fill="none" stroke="black" points="0,-143.5 0,-162.5 78,-162.5 78,-143.5 0,-143.5"/>
<text text-anchor="middle" x="39" y="-150.5" font-family="Helvetica,sans-Serif" font-size="10.00">MxRefCounter</text>
</a>
</g>
</g>
<!-- Node15&#45;&gt;Node14 -->
<g id="edge17" class="edge">
<title>Node15&#45;&gt;Node14</title>
<path fill="none" stroke="midnightblue" d="M60.07,-169.06C84.32,-188.46 124.81,-220.84 148.54,-239.83"/>
<polygon fill="midnightblue" stroke="midnightblue" points="62.22,-166.29 52.23,-162.78 57.85,-171.76 62.22,-166.29"/>
</g>
<!-- Node22 -->
<g id="node22" class="node">
<title>Node22</title>
<g id="a_node22"><a xlink:href="struct_mx_generic_string_1_1_data.html" target="_top" xlink:title=" ">
<polygon fill="none" stroke="black" points="117,-41 117,-71 220,-71 220,-41 117,-41"/>
<text text-anchor="start" x="125" y="-59" font-family="Helvetica,sans-Serif" font-size="10.00">MxGenericString&lt; T</text>
<text text-anchor="middle" x="168.5" y="-48" font-family="Helvetica,sans-Serif" font-size="10.00"> &gt;::Data</text>
</a>
</g>
</g>
<!-- Node15&#45;&gt;Node22 -->
<g id="edge27" class="edge">
<title>Node15&#45;&gt;Node22</title>
<path fill="none" stroke="midnightblue" d="M60.76,-137.2C84.68,-119.01 123.72,-89.31 147.37,-71.32"/>
<polygon fill="midnightblue" stroke="midnightblue" points="58.53,-134.5 52.69,-143.34 62.77,-140.08 58.53,-134.5"/>
</g>
<!-- Node16&#45;&gt;Node13 -->
<g id="edge18" class="edge">
<title>Node16&#45;&gt;Node13</title>
<path fill="none" stroke="orange" stroke-dasharray="5,2" d="M385.26,-300C433.04,-300 499.3,-300 551.78,-300"/>
<polygon fill="orange" stroke="orange" points="385.06,-296.5 375.06,-300 385.06,-303.5 385.06,-296.5"/>
<text text-anchor="start" x="395" y="-325" font-family="Helvetica,sans-Serif" font-size="10.00"> &lt; MxRenderer::ReusableVbo,</text>
<text text-anchor="start" x="395" y="-314" font-family="Helvetica,sans-Serif" font-size="10.00"> MxClassInitializer&lt; MxRenderer</text>
<text text-anchor="middle" x="464.5" y="-303" font-family="Helvetica,sans-Serif" font-size="10.00">::ReusableVbo &gt;, 32 &gt;</text>
</g>
<!-- Node17 -->
<g id="node17" class="node">
<title>Node17</title>
<g id="a_node17"><a xlink:href="class_mx_abstract_atlas.html" target="_top" xlink:title=" ">
<polygon fill="none" stroke="black" points="875,-47.5 875,-66.5 964,-66.5 964,-47.5 875,-47.5"/>
<text text-anchor="middle" x="919.5" y="-54.5" font-family="Helvetica,sans-Serif" font-size="10.00">MxAbstractAtlas</text>
</a>
</g>
</g>
<!-- Node17&#45;&gt;Node7 -->
<g id="edge20" class="edge">
<title>Node17&#45;&gt;Node7</title>
<path fill="none" stroke="#9a32cd" stroke-dasharray="5,2" d="M974.3,-58.49C998.73,-61.88 1026.29,-69.92 1045,-88 1065.94,-108.24 1043.87,-129.04 1063,-151 1066.32,-154.82 1070.56,-157.9 1075.07,-160.38"/>
<polygon fill="#9a32cd" stroke="#9a32cd" points="974.39,-54.98 964.05,-57.31 973.58,-61.93 974.39,-54.98"/>
<text text-anchor="middle" x="1017" y="-91" font-family="Helvetica,sans-Serif" font-size="10.00"> pIconAtlas</text>
</g>
<!-- Node18 -->
<g id="node18" class="node">
<title>Node18</title>
<g id="a_node18"><a xlink:href="class_mx_texture.html" target="_top" xlink:title=" ">
<polygon fill="none" stroke="black" points="606.5,-42.5 606.5,-61.5 668.5,-61.5 668.5,-42.5 606.5,-42.5"/>
<text text-anchor="middle" x="637.5" y="-49.5" font-family="Helvetica,sans-Serif" font-size="10.00">MxTexture</text>
</a>
</g>
</g>
<!-- Node18&#45;&gt;Node17 -->
<g id="edge21" class="edge">
<title>Node18&#45;&gt;Node17</title>
<path fill="none" stroke="#9a32cd" stroke-dasharray="5,2" d="M678.92,-52.72C730.95,-53.65 821.03,-55.26 874.66,-56.22"/>
<polygon fill="#9a32cd" stroke="#9a32cd" points="678.79,-49.22 668.73,-52.54 678.67,-56.22 678.79,-49.22"/>
<text text-anchor="middle" x="795.5" y="-58" font-family="Helvetica,sans-Serif" font-size="10.00"> pTexture</text>
</g>
<!-- Node19&#45;&gt;Node6 -->
<g id="edge22" class="edge">
<title>Node19&#45;&gt;Node6</title>
<path fill="none" stroke="#9a32cd" stroke-dasharray="5,2" d="M1147.13,-202.6C1175.54,-198.1 1214.68,-190.68 1248,-180 1260.78,-175.9 1274.54,-169.72 1285.16,-164.52"/>
<polygon fill="#9a32cd" stroke="#9a32cd" points="1146.53,-199.15 1137.17,-204.13 1147.59,-206.07 1146.53,-199.15"/>
<text text-anchor="middle" x="1208.5" y="-201" font-family="Helvetica,sans-Serif" font-size="10.00"> pPainterBuffer</text>
</g>
<!-- Node20 -->
<g id="node20" class="node">
<title>Node20</title>
<g id="a_node20"><a xlink:href="class_mx_event_handler.html" target="_top" xlink:title=" ">
<polygon fill="none" stroke="black" points="1063,-36.5 1063,-55.5 1151,-55.5 1151,-36.5 1063,-36.5"/>
<text text-anchor="middle" x="1107" y="-43.5" font-family="Helvetica,sans-Serif" font-size="10.00">MxEventHandler</text>
</a>
</g>
</g>
<!-- Node20&#45;&gt;Node2 -->
<g id="edge24" class="edge">
<title>Node20&#45;&gt;Node2</title>
<path fill="none" stroke="#9a32cd" stroke-dasharray="5,2" d="M1161.46,-45.73C1198.26,-45.54 1245.67,-45.3 1275.33,-45.14"/>
<polygon fill="#9a32cd" stroke="#9a32cd" points="1161.37,-42.23 1151.39,-45.78 1161.41,-49.23 1161.37,-42.23"/>
<text text-anchor="middle" x="1208.5" y="-48" font-family="Helvetica,sans-Serif" font-size="10.00"> pClickedReceiver</text>
</g>
<!-- Node21 -->
<g id="node21" class="node">
<title>Node21</title>
<g id="a_node21"><a xlink:href="class_mx_generic_string.html" target="_top" xlink:title=" ">
<polygon fill="none" stroke="black" points="566,-0.5 566,-19.5 709,-19.5 709,-0.5 566,-0.5"/>
<text text-anchor="middle" x="637.5" y="-7.5" font-family="Helvetica,sans-Serif" font-size="10.00">MxGenericString&lt; char32_t &gt;</text>
</a>
</g>
</g>
<!-- Node21&#45;&gt;Node1 -->
<g id="edge25" class="edge">
<title>Node21&#45;&gt;Node1</title>
<path fill="none" stroke="#9a32cd" stroke-dasharray="5,2" d="M719.47,-8.67C775.38,-7.87 851.45,-7 918.5,-7 918.5,-7 918.5,-7 1305.5,-7 1330.34,-7 1358.09,-9.95 1379.76,-12.93"/>
<polygon fill="#9a32cd" stroke="#9a32cd" points="719.22,-5.18 709.27,-8.82 719.32,-12.18 719.22,-5.18"/>
<text text-anchor="middle" x="1107" y="-10" font-family="Helvetica,sans-Serif" font-size="10.00"> pText</text>
</g>
<!-- Node22&#45;&gt;Node21 -->
<g id="edge26" class="edge">
<title>Node22&#45;&gt;Node21</title>
<path fill="none" stroke="#9a32cd" stroke-dasharray="5,2" d="M230.31,-51.96C302.77,-46.88 427.42,-37.32 534,-25 547.49,-23.44 561.94,-21.5 575.6,-19.53"/>
<polygon fill="#9a32cd" stroke="#9a32cd" points="229.74,-48.49 220.01,-52.67 230.23,-55.47 229.74,-48.49"/>
<text text-anchor="middle" x="321.5" y="-52" font-family="Helvetica,sans-Serif" font-size="10.00"> d</text>
</g>
<!-- Node23 -->
<g id="node23" class="node">
<title>Node23</title>
<g id="a_node23"><a xlink:href="class_mx_generic_string.html" target="_top" xlink:title=" ">
<polygon fill="none" stroke="black" points="266,-0.5 266,-19.5 377,-19.5 377,-0.5 266,-0.5"/>
<text text-anchor="middle" x="321.5" y="-7.5" font-family="Helvetica,sans-Serif" font-size="10.00">MxGenericString&lt; T &gt;</text>
</a>
</g>
</g>
<!-- Node22&#45;&gt;Node23 -->
<g id="edge29" class="edge">
<title>Node22&#45;&gt;Node23</title>
<path fill="none" stroke="#9a32cd" stroke-dasharray="5,2" d="M219.74,-37.59C226.52,-35.28 233.41,-33.02 240,-31 253.25,-26.93 267.89,-22.96 281,-19.58"/>
<polygon fill="#9a32cd" stroke="#9a32cd" points="218.24,-34.41 209.94,-40.99 220.53,-41.02 218.24,-34.41"/>
<text text-anchor="middle" x="244" y="-34" font-family="Helvetica,sans-Serif" font-size="10.00"> d</text>
</g>
<!-- Node23&#45;&gt;Node21 -->
<g id="edge28" class="edge">
<title>Node23&#45;&gt;Node21</title>
<path fill="none" stroke="orange" stroke-dasharray="5,2" d="M387.32,-10C439.38,-10 512.38,-10 565.91,-10"/>
<polygon fill="orange" stroke="orange" points="387.19,-6.5 377.19,-10 387.19,-13.5 387.19,-6.5"/>
<text text-anchor="middle" x="464.5" y="-13" font-family="Helvetica,sans-Serif" font-size="10.00"> &lt; char32_t &gt;</text>
</g>
</g>
</svg>
