<?xml version="1.0" encoding="UTF-8" standalone="no"?>
<!DOCTYPE svg PUBLIC "-//W3C//DTD SVG 1.1//EN"
 "http://www.w3.org/Graphics/SVG/1.1/DTD/svg11.dtd">
<!-- Generated by graphviz version 2.44.0 ()
 -->
<!-- Title: MxApplication Pages: 1 -->
<svg width="1247pt" height="300pt"
 viewBox="0.00 0.00 1247.00 300.00" xmlns="http://www.w3.org/2000/svg" xmlns:xlink="http://www.w3.org/1999/xlink">
<g id="graph0" class="graph" transform="scale(1 1) rotate(0) translate(4 296)">
<title>MxApplication</title>
<!-- Node1 -->
<g id="node1" class="node">
<title>Node1</title>
<g id="a_node1"><a xlink:title=" ">
<polygon fill="#bfbfbf" stroke="black" points="999,-55.5 999,-74.5 1076,-74.5 1076,-55.5 999,-55.5"/>
<text text-anchor="middle" x="1037.5" y="-62.5" font-family="Helvetica,sans-Serif" font-size="10.00">MxApplication</text>
</a>
</g>
</g>
<!-- Node2 -->
<g id="node2" class="node">
<title>Node2</title>
<g id="a_node2"><a xlink:href="class_mx_renderer.html" target="_top" xlink:title=" ">
<polygon fill="none" stroke="black" points="803.5,-182.5 803.5,-201.5 871.5,-201.5 871.5,-182.5 803.5,-182.5"/>
<text text-anchor="middle" x="837.5" y="-189.5" font-family="Helvetica,sans-Serif" font-size="10.00">MxRenderer</text>
</a>
</g>
</g>
<!-- Node2&#45;&gt;Node1 -->
<g id="edge1" class="edge">
<title>Node2&#45;&gt;Node1</title>
<path fill="none" stroke="#9a32cd" stroke-dasharray="5,2" d="M850.53,-173.81C863.8,-154.21 884.77,-124.8 896,-117 924.63,-97.11 938.34,-106.19 971,-94 986.61,-88.17 1003.83,-80.5 1016.69,-74.51"/>
<polygon fill="#9a32cd" stroke="#9a32cd" points="847.53,-171.99 844.87,-182.25 853.35,-175.89 847.53,-171.99"/>
<text text-anchor="middle" x="933.5" y="-120" font-family="Helvetica,sans-Serif" font-size="10.00"> pRenderer</text>
</g>
<!-- Node5 -->
<g id="node5" class="node">
<title>Node5</title>
<g id="a_node5"><a xlink:href="class_mx_shader_program.html" target="_top" xlink:title=" ">
<polygon fill="none" stroke="black" points="989,-182.5 989,-201.5 1086,-201.5 1086,-182.5 989,-182.5"/>
<text text-anchor="middle" x="1037.5" y="-189.5" font-family="Helvetica,sans-Serif" font-size="10.00">MxShaderProgram</text>
</a>
</g>
</g>
<!-- Node2&#45;&gt;Node5 -->
<g id="edge5" class="edge">
<title>Node2&#45;&gt;Node5</title>
<path fill="none" stroke="#9a32cd" stroke-dasharray="5,2" d="M881.89,-192C913.47,-192 956.23,-192 988.78,-192"/>
<polygon fill="#9a32cd" stroke="#9a32cd" points="881.64,-188.5 871.64,-192 881.64,-195.5 881.64,-188.5"/>
<text text-anchor="middle" x="933.5" y="-195" font-family="Helvetica,sans-Serif" font-size="10.00"> pRenderer</text>
</g>
<!-- Node3 -->
<g id="node3" class="node">
<title>Node3</title>
<g id="a_node3"><a xlink:title=" ">
<polygon fill="none" stroke="#bfbfbf" points="565,-252.5 565,-271.5 674,-271.5 674,-252.5 565,-252.5"/>
<text text-anchor="middle" x="619.5" y="-259.5" font-family="Helvetica,sans-Serif" font-size="10.00">MxOpenGLFunctions</text>
</a>
</g>
</g>
<!-- Node3&#45;&gt;Node2 -->
<g id="edge2" class="edge">
<title>Node3&#45;&gt;Node2</title>
<path fill="none" stroke="midnightblue" d="M675.19,-250.15C684.51,-247.91 694.06,-245.49 703,-243 737.25,-233.44 745.86,-230.9 779,-218 791.76,-213.03 805.77,-206.72 816.76,-201.55"/>
<polygon fill="midnightblue" stroke="midnightblue" points="674.15,-246.79 665.22,-252.49 675.75,-253.61 674.15,-246.79"/>
</g>
<!-- Node4 -->
<g id="node4" class="node">
<title>Node4</title>
<g id="a_node4"><a xlink:href="class_mx_vector_program.html" target="_top" xlink:title=" ">
<polygon fill="none" stroke="black" points="1133.5,-141.5 1133.5,-160.5 1228.5,-160.5 1228.5,-141.5 1133.5,-141.5"/>
<text text-anchor="middle" x="1181" y="-148.5" font-family="Helvetica,sans-Serif" font-size="10.00">MxVectorProgram</text>
</a>
</g>
</g>
<!-- Node4&#45;&gt;Node2 -->
<g id="edge3" class="edge">
<title>Node4&#45;&gt;Node2</title>
<path fill="none" stroke="#9a32cd" stroke-dasharray="5,2" d="M1122.76,-152.22C1084.72,-153.54 1033.72,-156.28 989,-162 948.3,-167.2 902.11,-177 871.75,-183.99"/>
<polygon fill="#9a32cd" stroke="#9a32cd" points="1123.25,-155.7 1133.13,-151.88 1123.02,-148.71 1123.25,-155.7"/>
<text text-anchor="middle" x="1037.5" y="-165" font-family="Helvetica,sans-Serif" font-size="10.00"> pVectorProgram</text>
</g>
<!-- Node5&#45;&gt;Node4 -->
<g id="edge4" class="edge">
<title>Node5&#45;&gt;Node4</title>
<path fill="none" stroke="midnightblue" d="M1081,-179.68C1102.11,-173.57 1127.22,-166.29 1146.87,-160.6"/>
<polygon fill="midnightblue" stroke="midnightblue" points="1079.95,-176.35 1071.32,-182.49 1081.9,-183.07 1079.95,-176.35"/>
</g>
<!-- Node6 -->
<g id="node6" class="node">
<title>Node6</title>
<g id="a_node6"><a xlink:href="class_mx_color_wheel_program.html" target="_top" xlink:title=" ">
<polygon fill="none" stroke="black" points="1123,-185.5 1123,-204.5 1239,-204.5 1239,-185.5 1123,-185.5"/>
<text text-anchor="middle" x="1181" y="-192.5" font-family="Helvetica,sans-Serif" font-size="10.00">MxColorWheelProgram</text>
</a>
</g>
</g>
<!-- Node5&#45;&gt;Node6 -->
<g id="edge7" class="edge">
<title>Node5&#45;&gt;Node6</title>
<path fill="none" stroke="midnightblue" d="M1096.1,-193.22C1104.82,-193.41 1113.83,-193.6 1122.55,-193.78"/>
<polygon fill="midnightblue" stroke="midnightblue" points="1096.08,-189.72 1086.01,-193.01 1095.93,-196.72 1096.08,-189.72"/>
</g>
<!-- Node14 -->
<g id="node14" class="node">
<title>Node14</title>
<g id="a_node14"><a xlink:href="class_mx_icon_program.html" target="_top" xlink:title=" ">
<polygon fill="none" stroke="black" points="1138.5,-229.5 1138.5,-248.5 1223.5,-248.5 1223.5,-229.5 1138.5,-229.5"/>
<text text-anchor="middle" x="1181" y="-236.5" font-family="Helvetica,sans-Serif" font-size="10.00">MxIconProgram</text>
</a>
</g>
</g>
<!-- Node5&#45;&gt;Node14 -->
<g id="edge17" class="edge">
<title>Node5&#45;&gt;Node14</title>
<path fill="none" stroke="midnightblue" d="M1076.73,-204.7C1100.08,-212.45 1129.47,-222.22 1150.92,-229.34"/>
<polygon fill="midnightblue" stroke="midnightblue" points="1077.73,-201.34 1067.13,-201.51 1075.52,-207.98 1077.73,-201.34"/>
</g>
<!-- Node6&#45;&gt;Node2 -->
<g id="edge6" class="edge">
<title>Node6&#45;&gt;Node2</title>
<path fill="none" stroke="#9a32cd" stroke-dasharray="5,2" d="M1143.38,-208.64C1136.36,-211.92 1129.26,-215.73 1123,-220 1103.8,-233.12 1107.49,-248.1 1086,-257 1007.98,-289.32 972.94,-290.8 896,-256 870.96,-244.67 852.21,-216.57 843.64,-201.65"/>
<polygon fill="#9a32cd" stroke="#9a32cd" points="1145.06,-211.73 1152.82,-204.51 1142.25,-205.31 1145.06,-211.73"/>
<text text-anchor="middle" x="1037.5" y="-284" font-family="Helvetica,sans-Serif" font-size="10.00"> pColorWheelEffect</text>
</g>
<!-- Node7 -->
<g id="node7" class="node">
<title>Node7</title>
<g id="a_node7"><a xlink:href="class_mx_list.html" target="_top" xlink:title=" ">
<polygon fill="none" stroke="black" points="536,-192.5 536,-233.5 703,-233.5 703,-192.5 536,-192.5"/>
<text text-anchor="start" x="544" y="-221.5" font-family="Helvetica,sans-Serif" font-size="10.00">MxList&lt; MxCachedGpuArray,</text>
<text text-anchor="start" x="544" y="-210.5" font-family="Helvetica,sans-Serif" font-size="10.00"> MxClassInitializer&lt; MxCachedGpu</text>
<text text-anchor="middle" x="619.5" y="-199.5" font-family="Helvetica,sans-Serif" font-size="10.00">Array &gt;, 32 &gt;</text>
</a>
</g>
</g>
<!-- Node7&#45;&gt;Node2 -->
<g id="edge8" class="edge">
<title>Node7&#45;&gt;Node2</title>
<path fill="none" stroke="#9a32cd" stroke-dasharray="5,2" d="M713.4,-203.97C745.41,-200.86 779.23,-197.57 803.31,-195.23"/>
<polygon fill="#9a32cd" stroke="#9a32cd" points="712.7,-200.52 703.08,-204.97 713.38,-207.49 712.7,-200.52"/>
<text text-anchor="middle" x="750" y="-206" font-family="Helvetica,sans-Serif" font-size="10.00"> pVboList</text>
</g>
<!-- Node8 -->
<g id="node8" class="node">
<title>Node8</title>
<g id="a_node8"><a xlink:href="struct_mx_list_1_1_data.html" target="_top" xlink:title="these members are public to allow unions">
<polygon fill="none" stroke="black" points="115,-182 115,-212 222,-212 222,-182 115,-182"/>
<text text-anchor="start" x="123" y="-200" font-family="Helvetica,sans-Serif" font-size="10.00">MxList&lt; T, Initializer,</text>
<text text-anchor="middle" x="168.5" y="-189" font-family="Helvetica,sans-Serif" font-size="10.00"> Prealloc &gt;::Data</text>
</a>
</g>
</g>
<!-- Node8&#45;&gt;Node7 -->
<g id="edge9" class="edge">
<title>Node8&#45;&gt;Node7</title>
<path fill="none" stroke="#9a32cd" stroke-dasharray="5,2" d="M232.33,-201.02C276.66,-203.7 337.44,-207.08 391,-209 438.96,-210.72 492.65,-211.71 535.81,-212.27"/>
<polygon fill="#9a32cd" stroke="#9a32cd" points="232.48,-197.52 222.29,-200.4 232.05,-204.51 232.48,-197.52"/>
<text text-anchor="middle" x="319.5" y="-211" font-family="Helvetica,sans-Serif" font-size="10.00"> d</text>
</g>
<!-- Node10 -->
<g id="node10" class="node">
<title>Node10</title>
<g id="a_node10"><a xlink:href="class_mx_list.html" target="_top" xlink:title=" ">
<polygon fill="none" stroke="black" points="266,-156 266,-186 373,-186 373,-156 266,-156"/>
<text text-anchor="start" x="274" y="-174" font-family="Helvetica,sans-Serif" font-size="10.00">MxList&lt; T, Initializer,</text>
<text text-anchor="middle" x="319.5" y="-163" font-family="Helvetica,sans-Serif" font-size="10.00"> Prealloc &gt;</text>
</a>
</g>
</g>
<!-- Node8&#45;&gt;Node10 -->
<g id="edge12" class="edge">
<title>Node8&#45;&gt;Node10</title>
<path fill="none" stroke="#9a32cd" stroke-dasharray="5,2" d="M232.21,-186.06C243.44,-184.1 255.03,-182.07 265.94,-180.17"/>
<polygon fill="#9a32cd" stroke="#9a32cd" points="231.28,-182.67 222.03,-187.83 232.48,-189.56 231.28,-182.67"/>
<text text-anchor="middle" x="244" y="-187" font-family="Helvetica,sans-Serif" font-size="10.00"> d</text>
</g>
<!-- Node9 -->
<g id="node9" class="node">
<title>Node9</title>
<g id="a_node9"><a xlink:href="class_mx_ref_counter.html" target="_top" xlink:title=" ">
<polygon fill="none" stroke="black" points="0,-187.5 0,-206.5 78,-206.5 78,-187.5 0,-187.5"/>
<text text-anchor="middle" x="39" y="-194.5" font-family="Helvetica,sans-Serif" font-size="10.00">MxRefCounter</text>
</a>
</g>
</g>
<!-- Node9&#45;&gt;Node8 -->
<g id="edge10" class="edge">
<title>Node9&#45;&gt;Node8</title>
<path fill="none" stroke="midnightblue" d="M88.46,-197C97.03,-197 105.98,-197 114.66,-197"/>
<polygon fill="midnightblue" stroke="midnightblue" points="88.25,-193.5 78.25,-197 88.25,-200.5 88.25,-193.5"/>
</g>
<!-- Node10&#45;&gt;Node7 -->
<g id="edge11" class="edge">
<title>Node10&#45;&gt;Node7</title>
<path fill="none" stroke="orange" stroke-dasharray="5,2" d="M383.21,-167.12C422.34,-166.04 473.55,-167.08 518,-176 526.42,-177.69 527.97,-179.98 536,-183 544.13,-186.06 552.73,-189.24 561.19,-192.34"/>
<polygon fill="orange" stroke="orange" points="382.9,-163.62 373.02,-167.45 383.13,-170.62 382.9,-163.62"/>
<text text-anchor="start" x="391" y="-201" font-family="Helvetica,sans-Serif" font-size="10.00"> &lt; MxCachedGpuArray,</text>
<text text-anchor="start" x="391" y="-190" font-family="Helvetica,sans-Serif" font-size="10.00"> MxClassInitializer</text>
<text text-anchor="middle" x="454.5" y="-179" font-family="Helvetica,sans-Serif" font-size="10.00">&lt; MxCachedGpuArray &gt;, 32 &gt;</text>
</g>
<!-- Node11 -->
<g id="node11" class="node">
<title>Node11</title>
<g id="a_node11"><a xlink:href="class_mx_abstract_atlas.html" target="_top" xlink:title=" ">
<polygon fill="none" stroke="black" points="575,-154.5 575,-173.5 664,-173.5 664,-154.5 575,-154.5"/>
<text text-anchor="middle" x="619.5" y="-161.5" font-family="Helvetica,sans-Serif" font-size="10.00">MxAbstractAtlas</text>
</a>
</g>
</g>
<!-- Node11&#45;&gt;Node2 -->
<g id="edge13" class="edge">
<title>Node11&#45;&gt;Node2</title>
<path fill="none" stroke="#9a32cd" stroke-dasharray="5,2" d="M674.39,-169.32C705.1,-172.55 744.27,-177.01 779,-182 786.92,-183.14 795.43,-184.53 803.41,-185.9"/>
<polygon fill="#9a32cd" stroke="#9a32cd" points="674.63,-165.83 664.32,-168.27 673.9,-172.79 674.63,-165.83"/>
<text text-anchor="middle" x="750" y="-185" font-family="Helvetica,sans-Serif" font-size="10.00"> pIconAtlas</text>
</g>
<!-- Node12 -->
<g id="node12" class="node">
<title>Node12</title>
<g id="a_node12"><a xlink:href="class_mx_vector.html" target="_top" xlink:title=" ">
<polygon fill="none" stroke="black" points="572,-116.5 572,-135.5 667,-135.5 667,-116.5 572,-116.5"/>
<text text-anchor="middle" x="619.5" y="-123.5" font-family="Helvetica,sans-Serif" font-size="10.00">MxVector&lt; 2, int &gt;</text>
</a>
</g>
</g>
<!-- Node12&#45;&gt;Node2 -->
<g id="edge14" class="edge">
<title>Node12&#45;&gt;Node2</title>
<path fill="none" stroke="#9a32cd" stroke-dasharray="5,2" d="M677.16,-133.35C707.95,-138.43 746.31,-146.58 779,-159 794.71,-164.97 811.2,-174.86 822.48,-182.26"/>
<polygon fill="#9a32cd" stroke="#9a32cd" points="677.45,-129.85 667.02,-131.73 676.35,-136.76 677.45,-129.85"/>
<text text-anchor="middle" x="750" y="-162" font-family="Helvetica,sans-Serif" font-size="10.00"> pScreenSize</text>
</g>
<!-- Node13 -->
<g id="node13" class="node">
<title>Node13</title>
<g id="a_node13"><a xlink:href="class_mx_vector.html" target="_top" xlink:title=" ">
<polygon fill="none" stroke="black" points="273,-104.5 273,-123.5 366,-123.5 366,-104.5 273,-104.5"/>
<text text-anchor="middle" x="319.5" y="-111.5" font-family="Helvetica,sans-Serif" font-size="10.00">MxVector&lt; N, T &gt;</text>
</a>
</g>
</g>
<!-- Node13&#45;&gt;Node12 -->
<g id="edge15" class="edge">
<title>Node13&#45;&gt;Node12</title>
<path fill="none" stroke="orange" stroke-dasharray="5,2" d="M376.26,-116.25C432.72,-118.52 519.03,-121.99 571.94,-124.13"/>
<polygon fill="orange" stroke="orange" points="376.22,-112.74 366.08,-115.84 375.94,-119.74 376.22,-112.74"/>
<text text-anchor="middle" x="454.5" y="-124" font-family="Helvetica,sans-Serif" font-size="10.00"> &lt; 2, int &gt;</text>
</g>
<!-- Node16 -->
<g id="node16" class="node">
<title>Node16</title>
<g id="a_node16"><a xlink:href="class_mx_vector.html" target="_top" xlink:title=" ">
<polygon fill="none" stroke="black" points="568,-77.5 568,-96.5 671,-96.5 671,-77.5 568,-77.5"/>
<text text-anchor="middle" x="619.5" y="-84.5" font-family="Helvetica,sans-Serif" font-size="10.00">MxVector&lt; 2, float &gt;</text>
</a>
</g>
</g>
<!-- Node13&#45;&gt;Node16 -->
<g id="edge20" class="edge">
<title>Node13&#45;&gt;Node16</title>
<path fill="none" stroke="orange" stroke-dasharray="5,2" d="M376.36,-103.06C381.3,-102.29 386.23,-101.58 391,-101 451.49,-93.59 521.53,-90.03 567.74,-88.37"/>
<polygon fill="orange" stroke="orange" points="375.56,-99.65 366.26,-104.73 376.7,-106.55 375.56,-99.65"/>
<text text-anchor="middle" x="454.5" y="-104" font-family="Helvetica,sans-Serif" font-size="10.00"> &lt; 2, float &gt;</text>
</g>
<!-- Node14&#45;&gt;Node2 -->
<g id="edge16" class="edge">
<title>Node14&#45;&gt;Node2</title>
<path fill="none" stroke="#9a32cd" stroke-dasharray="5,2" d="M1128.1,-235.39C1070.91,-230.9 976.37,-221.93 896,-207 888.09,-205.53 879.66,-203.56 871.76,-201.54"/>
<polygon fill="#9a32cd" stroke="#9a32cd" points="1128.1,-238.9 1138.34,-236.18 1128.63,-231.92 1128.1,-238.9"/>
<text text-anchor="middle" x="1037.5" y="-234" font-family="Helvetica,sans-Serif" font-size="10.00"> pIconProgram</text>
</g>
<!-- Node15 -->
<g id="node15" class="node">
<title>Node15</title>
<g id="a_node15"><a xlink:href="class_mx_widget.html" target="_top" xlink:title=" ">
<polygon fill="none" stroke="black" points="808,-76.5 808,-95.5 867,-95.5 867,-76.5 808,-76.5"/>
<text text-anchor="middle" x="837.5" y="-83.5" font-family="Helvetica,sans-Serif" font-size="10.00">MxWidget</text>
</a>
</g>
</g>
<!-- Node15&#45;&gt;Node1 -->
<g id="edge18" class="edge">
<title>Node15&#45;&gt;Node1</title>
<path fill="none" stroke="#9a32cd" stroke-dasharray="5,2" d="M877.66,-81.85C912.84,-78.12 964.16,-72.67 998.87,-68.99"/>
<polygon fill="#9a32cd" stroke="#9a32cd" points="876.87,-78.41 867.29,-82.95 877.6,-85.37 876.87,-78.41"/>
<text text-anchor="middle" x="933.5" y="-82" font-family="Helvetica,sans-Serif" font-size="10.00"> pWidget</text>
</g>
<!-- Node15&#45;&gt;Node15 -->
<g id="edge21" class="edge">
<title>Node15&#45;&gt;Node15</title>
<path fill="none" stroke="#9a32cd" stroke-dasharray="5,2" d="M821.57,-105.4C822.64,-110.31 827.95,-114 837.5,-114 852.79,-114 857.2,-104.57 850.76,-95.76"/>
<polygon fill="#9a32cd" stroke="#9a32cd" points="824.95,-106.33 824.24,-95.76 818.2,-104.46 824.95,-106.33"/>
<text text-anchor="middle" x="837.5" y="-117" font-family="Helvetica,sans-Serif" font-size="10.00"> pParent</text>
</g>
<!-- Node16&#45;&gt;Node15 -->
<g id="edge19" class="edge">
<title>Node16&#45;&gt;Node15</title>
<path fill="none" stroke="#9a32cd" stroke-dasharray="5,2" d="M681.39,-86.72C722.77,-86.53 775.61,-86.28 807.71,-86.13"/>
<polygon fill="#9a32cd" stroke="#9a32cd" points="681.13,-83.22 671.14,-86.77 681.16,-90.22 681.13,-83.22"/>
<text text-anchor="middle" x="750" y="-100" font-family="Helvetica,sans-Serif" font-size="10.00"> pPos</text>
<text text-anchor="middle" x="750" y="-89" font-family="Helvetica,sans-Serif" font-size="10.00">pSize</text>
</g>
<!-- Node17 -->
<g id="node17" class="node">
<title>Node17</title>
<g id="a_node17"><a xlink:href="class_mx_painter.html" target="_top" xlink:title="Holder to the different painters.">
<polygon fill="none" stroke="black" points="807.5,-38.5 807.5,-57.5 867.5,-57.5 867.5,-38.5 807.5,-38.5"/>
<text text-anchor="middle" x="837.5" y="-45.5" font-family="Helvetica,sans-Serif" font-size="10.00">MxPainter</text>
</a>
</g>
</g>
<!-- Node17&#45;&gt;Node1 -->
<g id="edge22" class="edge">
<title>Node17&#45;&gt;Node1</title>
<path fill="none" stroke="#9a32cd" stroke-dasharray="5,2" d="M877.6,-45.93C904.06,-45.1 939.76,-45.12 971,-49 981.8,-50.34 993.4,-52.82 1003.79,-55.43"/>
<polygon fill="#9a32cd" stroke="#9a32cd" points="877.44,-42.43 867.58,-46.29 877.7,-49.42 877.44,-42.43"/>
<text text-anchor="middle" x="933.5" y="-52" font-family="Helvetica,sans-Serif" font-size="10.00"> pPainterBuffer</text>
</g>
<!-- Node18 -->
<g id="node18" class="node">
<title>Node18</title>
<g id="a_node18"><a xlink:href="class_mx_aggregation.html" target="_top" xlink:title="The MxGuiAggregation class aggregates UI related data members to allow its access from one place.">
<polygon fill="none" stroke="black" points="797,-0.5 797,-19.5 878,-19.5 878,-0.5 797,-0.5"/>
<text text-anchor="middle" x="837.5" y="-7.5" font-family="Helvetica,sans-Serif" font-size="10.00">MxAggregation</text>
</a>
</g>
</g>
<!-- Node18&#45;&gt;Node1 -->
<g id="edge23" class="edge">
<title>Node18&#45;&gt;Node1</title>
<path fill="none" stroke="#9a32cd" stroke-dasharray="5,2" d="M888.22,-14.05C913.47,-17.07 944.36,-22.23 971,-31 989.25,-37.01 1008.6,-47.65 1021.5,-55.43"/>
<polygon fill="#9a32cd" stroke="#9a32cd" points="888.45,-10.56 878.13,-12.93 887.68,-17.52 888.45,-10.56"/>
<text text-anchor="middle" x="933.5" y="-34" font-family="Helvetica,sans-Serif" font-size="10.00"> pGuiAggregation</text>
</g>
</g>
</svg>
