<?xml version="1.0" encoding="UTF-8" standalone="no"?>
<!DOCTYPE svg PUBLIC "-//W3C//DTD SVG 1.1//EN"
 "http://www.w3.org/Graphics/SVG/1.1/DTD/svg11.dtd">
<!-- Generated by graphviz version 2.44.0 ()
 -->
<!-- Title: MxWidget Pages: 1 -->
<svg width="386pt" height="140pt"
 viewBox="0.00 0.00 385.50 140.00" xmlns="http://www.w3.org/2000/svg" xmlns:xlink="http://www.w3.org/1999/xlink">
<g id="graph0" class="graph" transform="scale(1 1) rotate(0) translate(4 136)">
<title>MxWidget</title>
<!-- Node1 -->
<g id="node1" class="node">
<title>Node1</title>
<g id="a_node1"><a xlink:title=" ">
<polygon fill="#bfbfbf" stroke="black" points="157,-112.5 157,-131.5 216,-131.5 216,-112.5 157,-112.5"/>
<text text-anchor="middle" x="186.5" y="-119.5" font-family="Helvetica,sans-Serif" font-size="10.00">MxWidget</text>
</a>
</g>
</g>
<!-- Node2 -->
<g id="node2" class="node">
<title>Node2</title>
<g id="a_node2"><a xlink:href="class_mx_button.html" target="_top" xlink:title="Base class for buttons.">
<polygon fill="none" stroke="black" points="9.5,-56.5 9.5,-75.5 67.5,-75.5 67.5,-56.5 9.5,-56.5"/>
<text text-anchor="middle" x="38.5" y="-63.5" font-family="Helvetica,sans-Serif" font-size="10.00">MxButton</text>
</a>
</g>
</g>
<!-- Node1&#45;&gt;Node2 -->
<g id="edge1" class="edge">
<title>Node1&#45;&gt;Node2</title>
<path fill="none" stroke="midnightblue" d="M153.35,-108.91C125.53,-98.75 86.48,-84.51 61.84,-75.52"/>
<polygon fill="midnightblue" stroke="midnightblue" points="152.46,-112.3 163.05,-112.44 154.85,-105.73 152.46,-112.3"/>
</g>
<!-- Node4 -->
<g id="node4" class="node">
<title>Node4</title>
<g id="a_node4"><a xlink:href="class_mx_label.html" target="_top" xlink:title=" ">
<polygon fill="none" stroke="black" points="86,-56.5 86,-75.5 139,-75.5 139,-56.5 86,-56.5"/>
<text text-anchor="middle" x="112.5" y="-63.5" font-family="Helvetica,sans-Serif" font-size="10.00">MxLabel</text>
</a>
</g>
</g>
<!-- Node1&#45;&gt;Node4 -->
<g id="edge3" class="edge">
<title>Node1&#45;&gt;Node4</title>
<path fill="none" stroke="midnightblue" d="M166.47,-106.38C153.09,-96.62 135.94,-84.11 124.61,-75.83"/>
<polygon fill="midnightblue" stroke="midnightblue" points="164.47,-109.26 174.61,-112.32 168.6,-103.6 164.47,-109.26"/>
</g>
<!-- Node5 -->
<g id="node5" class="node">
<title>Node5</title>
<g id="a_node5"><a xlink:href="class_mx_layout.html" target="_top" xlink:title="The MxLayout class is the base class for layout widgets.">
<polygon fill="none" stroke="black" points="157,-56.5 157,-75.5 216,-75.5 216,-56.5 157,-56.5"/>
<text text-anchor="middle" x="186.5" y="-63.5" font-family="Helvetica,sans-Serif" font-size="10.00">MxLayout</text>
</a>
</g>
</g>
<!-- Node1&#45;&gt;Node5 -->
<g id="edge4" class="edge">
<title>Node1&#45;&gt;Node5</title>
<path fill="none" stroke="midnightblue" d="M186.5,-101.8C186.5,-92.91 186.5,-82.78 186.5,-75.75"/>
<polygon fill="midnightblue" stroke="midnightblue" points="183,-102.08 186.5,-112.08 190,-102.08 183,-102.08"/>
</g>
<!-- Node7 -->
<g id="node7" class="node">
<title>Node7</title>
<g id="a_node7"><a xlink:href="class_mx_line_edit.html" target="_top" xlink:title="Widget for editing one&#45;line of text.">
<polygon fill="none" stroke="black" points="234,-56.5 234,-75.5 299,-75.5 299,-56.5 234,-56.5"/>
<text text-anchor="middle" x="266.5" y="-63.5" font-family="Helvetica,sans-Serif" font-size="10.00">MxLineEdit</text>
</a>
</g>
</g>
<!-- Node1&#45;&gt;Node7 -->
<g id="edge6" class="edge">
<title>Node1&#45;&gt;Node7</title>
<path fill="none" stroke="midnightblue" d="M207.8,-106.62C222.42,-96.76 241.33,-83.99 253.68,-75.65"/>
<polygon fill="midnightblue" stroke="midnightblue" points="205.68,-103.83 199.35,-112.32 209.6,-109.63 205.68,-103.83"/>
</g>
<!-- Node8 -->
<g id="node8" class="node">
<title>Node8</title>
<g id="a_node8"><a xlink:href="class_mx_spacer.html" target="_top" xlink:title=" ">
<polygon fill="none" stroke="black" points="317.5,-56.5 317.5,-75.5 377.5,-75.5 377.5,-56.5 317.5,-56.5"/>
<text text-anchor="middle" x="347.5" y="-63.5" font-family="Helvetica,sans-Serif" font-size="10.00">MxSpacer</text>
</a>
</g>
</g>
<!-- Node1&#45;&gt;Node8 -->
<g id="edge7" class="edge">
<title>Node1&#45;&gt;Node8</title>
<path fill="none" stroke="midnightblue" d="M221.76,-109.17C252.08,-99 295.07,-84.59 322.11,-75.52"/>
<polygon fill="midnightblue" stroke="midnightblue" points="220.38,-105.95 212.01,-112.44 222.6,-112.58 220.38,-105.95"/>
</g>
<!-- Node3 -->
<g id="node3" class="node">
<title>Node3</title>
<g id="a_node3"><a xlink:href="class_mx_text_button.html" target="_top" xlink:title=" ">
<polygon fill="none" stroke="black" points="0,-0.5 0,-19.5 77,-19.5 77,-0.5 0,-0.5"/>
<text text-anchor="middle" x="38.5" y="-7.5" font-family="Helvetica,sans-Serif" font-size="10.00">MxTextButton</text>
</a>
</g>
</g>
<!-- Node2&#45;&gt;Node3 -->
<g id="edge2" class="edge">
<title>Node2&#45;&gt;Node3</title>
<path fill="none" stroke="midnightblue" d="M38.5,-45.8C38.5,-36.91 38.5,-26.78 38.5,-19.75"/>
<polygon fill="midnightblue" stroke="midnightblue" points="35,-46.08 38.5,-56.08 42,-46.08 35,-46.08"/>
</g>
<!-- Node6 -->
<g id="node6" class="node">
<title>Node6</title>
<g id="a_node6"><a xlink:href="class_mx_linear_layout.html" target="_top" xlink:title="Vertical/Horizontal layout.">
<polygon fill="none" stroke="black" points="143.5,-0.5 143.5,-19.5 229.5,-19.5 229.5,-0.5 143.5,-0.5"/>
<text text-anchor="middle" x="186.5" y="-7.5" font-family="Helvetica,sans-Serif" font-size="10.00">MxLinearLayout</text>
</a>
</g>
</g>
<!-- Node5&#45;&gt;Node6 -->
<g id="edge5" class="edge">
<title>Node5&#45;&gt;Node6</title>
<path fill="none" stroke="midnightblue" d="M186.5,-45.8C186.5,-36.91 186.5,-26.78 186.5,-19.75"/>
<polygon fill="midnightblue" stroke="midnightblue" points="183,-46.08 186.5,-56.08 190,-46.08 183,-46.08"/>
</g>
</g>
</svg>
