<?xml version="1.0" encoding="UTF-8" standalone="no"?>
<!DOCTYPE svg PUBLIC "-//W3C//DTD SVG 1.1//EN"
 "http://www.w3.org/Graphics/SVG/1.1/DTD/svg11.dtd">
<!-- Generated by graphviz version 2.44.0 ()
 -->
<!-- Title: MxApplication Pages: 1 -->
<svg width="1265pt" height="354pt"
 viewBox="0.00 0.00 1265.00 354.00" xmlns="http://www.w3.org/2000/svg" xmlns:xlink="http://www.w3.org/1999/xlink">
<g id="graph0" class="graph" transform="scale(1 1) rotate(0) translate(4 350)">
<title>MxApplication</title>
<!-- Node1 -->
<g id="node1" class="node">
<title>Node1</title>
<g id="a_node1"><a xlink:title=" ">
<polygon fill="#bfbfbf" stroke="black" points="1017,-55.5 1017,-74.5 1094,-74.5 1094,-55.5 1017,-55.5"/>
<text text-anchor="middle" x="1055.5" y="-62.5" font-family="Helvetica,sans-Serif" font-size="10.00">MxApplication</text>
</a>
</g>
</g>
<!-- Node2 -->
<g id="node2" class="node">
<title>Node2</title>
<g id="a_node2"><a xlink:href="class_mx_renderer.html" target="_top" xlink:title="The MxRenderer keeps track of the rendering state and resources.">
<polygon fill="none" stroke="black" points="814,-227.5 814,-246.5 882,-246.5 882,-227.5 814,-227.5"/>
<text text-anchor="middle" x="848" y="-234.5" font-family="Helvetica,sans-Serif" font-size="10.00">MxRenderer</text>
</a>
</g>
</g>
<!-- Node2&#45;&gt;Node1 -->
<g id="edge1" class="edge">
<title>Node2&#45;&gt;Node1</title>
<path fill="none" stroke="#9a32cd" stroke-dasharray="5,2" d="M854.4,-217.6C862.79,-191.05 881.45,-143.64 914,-117 940.98,-94.92 956.34,-106.19 989,-94 1004.61,-88.17 1021.83,-80.5 1034.69,-74.51"/>
<polygon fill="#9a32cd" stroke="#9a32cd" points="851.02,-216.7 851.51,-227.28 857.73,-218.7 851.02,-216.7"/>
<text text-anchor="middle" x="951.5" y="-120" font-family="Helvetica,sans-Serif" font-size="10.00"> pRenderer</text>
</g>
<!-- Node5 -->
<g id="node5" class="node">
<title>Node5</title>
<g id="a_node5"><a xlink:href="class_mx_shader_program.html" target="_top" xlink:title=" ">
<polygon fill="none" stroke="black" points="1007,-183.5 1007,-202.5 1104,-202.5 1104,-183.5 1007,-183.5"/>
<text text-anchor="middle" x="1055.5" y="-190.5" font-family="Helvetica,sans-Serif" font-size="10.00">MxShaderProgram</text>
</a>
</g>
</g>
<!-- Node2&#45;&gt;Node5 -->
<g id="edge5" class="edge">
<title>Node2&#45;&gt;Node5</title>
<path fill="none" stroke="#9a32cd" stroke-dasharray="5,2" d="M879.6,-223.55C890.31,-219.29 902.52,-214.94 914,-212 944.4,-204.21 979.37,-199.47 1006.82,-196.67"/>
<polygon fill="#9a32cd" stroke="#9a32cd" points="878.18,-220.35 870.26,-227.38 880.84,-226.82 878.18,-220.35"/>
<text text-anchor="middle" x="951.5" y="-215" font-family="Helvetica,sans-Serif" font-size="10.00"> pRenderer</text>
</g>
<!-- Node17 -->
<g id="node17" class="node">
<title>Node17</title>
<g id="a_node17"><a xlink:href="class_mx_gpu_program.html" target="_top" xlink:title=" ">
<polygon fill="none" stroke="black" points="1013.5,-273.5 1013.5,-292.5 1097.5,-292.5 1097.5,-273.5 1013.5,-273.5"/>
<text text-anchor="middle" x="1055.5" y="-280.5" font-family="Helvetica,sans-Serif" font-size="10.00">MxGpuProgram</text>
</a>
</g>
</g>
<!-- Node2&#45;&gt;Node17 -->
<g id="edge23" class="edge">
<title>Node2&#45;&gt;Node17</title>
<path fill="none" stroke="#9a32cd" stroke-dasharray="5,2" d="M866.59,-253.57C878.84,-263.93 896.14,-276.35 914,-282 946.21,-292.19 984.69,-291.65 1013.23,-289"/>
<polygon fill="#9a32cd" stroke="#9a32cd" points="868.78,-250.83 858.97,-246.83 864.14,-256.08 868.78,-250.83"/>
<text text-anchor="middle" x="951.5" y="-293" font-family="Helvetica,sans-Serif" font-size="10.00"> pRenderer</text>
</g>
<!-- Node3 -->
<g id="node3" class="node">
<title>Node3</title>
<g id="a_node3"><a xlink:title=" ">
<polygon fill="none" stroke="#bfbfbf" points="565,-326.5 565,-345.5 674,-345.5 674,-326.5 565,-326.5"/>
<text text-anchor="middle" x="619.5" y="-333.5" font-family="Helvetica,sans-Serif" font-size="10.00">MxOpenGLFunctions</text>
</a>
</g>
</g>
<!-- Node3&#45;&gt;Node2 -->
<g id="edge2" class="edge">
<title>Node3&#45;&gt;Node2</title>
<path fill="none" stroke="midnightblue" d="M680.11,-323.94C687.88,-321.88 695.69,-319.57 703,-317 739.77,-304.1 748.02,-298.05 782,-279 800.28,-268.75 820.42,-255.4 833.36,-246.53"/>
<polygon fill="midnightblue" stroke="midnightblue" points="679.15,-320.57 670.31,-326.41 680.86,-327.36 679.15,-320.57"/>
</g>
<!-- Node4 -->
<g id="node4" class="node">
<title>Node4</title>
<g id="a_node4"><a xlink:href="class_mx_vector_program.html" target="_top" xlink:title=" ">
<polygon fill="none" stroke="black" points="1151.5,-191.5 1151.5,-210.5 1246.5,-210.5 1246.5,-191.5 1151.5,-191.5"/>
<text text-anchor="middle" x="1199" y="-198.5" font-family="Helvetica,sans-Serif" font-size="10.00">MxVectorProgram</text>
</a>
</g>
</g>
<!-- Node4&#45;&gt;Node2 -->
<g id="edge3" class="edge">
<title>Node4&#45;&gt;Node2</title>
<path fill="none" stroke="#9a32cd" stroke-dasharray="5,2" d="M1141.03,-207.92C1134.94,-208.64 1128.84,-209.34 1123,-210 1036.31,-219.76 933.97,-229.33 882.35,-234.02"/>
<polygon fill="#9a32cd" stroke="#9a32cd" points="1141.68,-211.37 1151.2,-206.72 1140.86,-204.42 1141.68,-211.37"/>
<text text-anchor="middle" x="1055.5" y="-224" font-family="Helvetica,sans-Serif" font-size="10.00"> pVectorProgram</text>
</g>
<!-- Node5&#45;&gt;Node4 -->
<g id="edge4" class="edge">
<title>Node5&#45;&gt;Node4</title>
<path fill="none" stroke="midnightblue" d="M1114.22,-196.26C1126.57,-196.96 1139.47,-197.69 1151.34,-198.36"/>
<polygon fill="midnightblue" stroke="midnightblue" points="1114.19,-192.76 1104.01,-195.69 1113.8,-199.75 1114.19,-192.76"/>
</g>
<!-- Node6 -->
<g id="node6" class="node">
<title>Node6</title>
<g id="a_node6"><a xlink:href="class_mx_color_wheel_program.html" target="_top" xlink:title=" ">
<polygon fill="none" stroke="black" points="1141,-147.5 1141,-166.5 1257,-166.5 1257,-147.5 1141,-147.5"/>
<text text-anchor="middle" x="1199" y="-154.5" font-family="Helvetica,sans-Serif" font-size="10.00">MxColorWheelProgram</text>
</a>
</g>
</g>
<!-- Node5&#45;&gt;Node6 -->
<g id="edge7" class="edge">
<title>Node5&#45;&gt;Node6</title>
<path fill="none" stroke="midnightblue" d="M1103.96,-180.93C1122.3,-176.26 1142.98,-171 1160.28,-166.6"/>
<polygon fill="midnightblue" stroke="midnightblue" points="1102.88,-177.59 1094.05,-183.45 1104.6,-184.37 1102.88,-177.59"/>
</g>
<!-- Node16 -->
<g id="node16" class="node">
<title>Node16</title>
<g id="a_node16"><a xlink:href="class_mx_icon_program.html" target="_top" xlink:title=" ">
<polygon fill="none" stroke="black" points="1156.5,-278.5 1156.5,-297.5 1241.5,-297.5 1241.5,-278.5 1156.5,-278.5"/>
<text text-anchor="middle" x="1199" y="-285.5" font-family="Helvetica,sans-Serif" font-size="10.00">MxIconProgram</text>
</a>
</g>
</g>
<!-- Node5&#45;&gt;Node16 -->
<g id="edge21" class="edge">
<title>Node5&#45;&gt;Node16</title>
<path fill="none" stroke="midnightblue" d="M1084.5,-207.53C1091,-211.12 1097.82,-215.06 1104,-219 1134.57,-238.46 1168.34,-264.44 1185.9,-278.31"/>
<polygon fill="midnightblue" stroke="midnightblue" points="1085.79,-204.24 1075.33,-202.57 1082.46,-210.4 1085.79,-204.24"/>
</g>
<!-- Node6&#45;&gt;Node2 -->
<g id="edge6" class="edge">
<title>Node6&#45;&gt;Node2</title>
<path fill="none" stroke="#9a32cd" stroke-dasharray="5,2" d="M1130.58,-154.22C1093.77,-153.93 1047.57,-155.56 1007,-163 964.01,-170.89 953.31,-175.89 914,-195 894.91,-204.28 874.62,-218.11 861.89,-227.33"/>
<polygon fill="#9a32cd" stroke="#9a32cd" points="1130.65,-157.72 1140.7,-154.35 1130.74,-150.72 1130.65,-157.72"/>
<text text-anchor="middle" x="1055.5" y="-166" font-family="Helvetica,sans-Serif" font-size="10.00"> pColorWheelEffect</text>
</g>
<!-- Node7 -->
<g id="node7" class="node">
<title>Node7</title>
<g id="a_node7"><a xlink:href="class_mx_list.html" target="_top" xlink:title=" ">
<polygon fill="none" stroke="black" points="536,-266.5 536,-307.5 703,-307.5 703,-266.5 536,-266.5"/>
<text text-anchor="start" x="544" y="-295.5" font-family="Helvetica,sans-Serif" font-size="10.00">MxList&lt; MxCachedGpuArray,</text>
<text text-anchor="start" x="544" y="-284.5" font-family="Helvetica,sans-Serif" font-size="10.00"> MxClassInitializer&lt; MxCachedGpu</text>
<text text-anchor="middle" x="619.5" y="-273.5" font-family="Helvetica,sans-Serif" font-size="10.00">Array &gt;, 32 &gt;</text>
</a>
</g>
</g>
<!-- Node7&#45;&gt;Node2 -->
<g id="edge8" class="edge">
<title>Node7&#45;&gt;Node2</title>
<path fill="none" stroke="#9a32cd" stroke-dasharray="5,2" d="M713.03,-267.17C735.61,-262.27 759.69,-256.99 782,-252 792.4,-249.67 803.72,-247.08 813.95,-244.72"/>
<polygon fill="#9a32cd" stroke="#9a32cd" points="712.15,-263.78 703.12,-269.32 713.64,-270.62 712.15,-263.78"/>
<text text-anchor="middle" x="751.5" y="-267" font-family="Helvetica,sans-Serif" font-size="10.00"> pVboList</text>
</g>
<!-- Node8 -->
<g id="node8" class="node">
<title>Node8</title>
<g id="a_node8"><a xlink:href="struct_mx_list_1_1_data.html" target="_top" xlink:title="these members are public to allow unions">
<polygon fill="none" stroke="black" points="115,-202 115,-232 222,-232 222,-202 115,-202"/>
<text text-anchor="start" x="123" y="-220" font-family="Helvetica,sans-Serif" font-size="10.00">MxList&lt; T, Initializer,</text>
<text text-anchor="middle" x="168.5" y="-209" font-family="Helvetica,sans-Serif" font-size="10.00"> Prealloc &gt;::Data</text>
</a>
</g>
</g>
<!-- Node8&#45;&gt;Node7 -->
<g id="edge9" class="edge">
<title>Node8&#45;&gt;Node7</title>
<path fill="none" stroke="#9a32cd" stroke-dasharray="5,2" d="M231.88,-233.34C243.23,-236.26 254.96,-239.25 266,-242 321.43,-255.83 334.51,-263.42 391,-272 438.65,-279.23 492.43,-282.98 535.73,-284.92"/>
<polygon fill="#9a32cd" stroke="#9a32cd" points="232.6,-229.91 222.04,-230.79 230.85,-236.68 232.6,-229.91"/>
<text text-anchor="middle" x="319.5" y="-271" font-family="Helvetica,sans-Serif" font-size="10.00"> d</text>
</g>
<!-- Node10 -->
<g id="node10" class="node">
<title>Node10</title>
<g id="a_node10"><a xlink:href="class_mx_list.html" target="_top" xlink:title=" ">
<polygon fill="none" stroke="black" points="266,-202 266,-232 373,-232 373,-202 266,-202"/>
<text text-anchor="start" x="274" y="-220" font-family="Helvetica,sans-Serif" font-size="10.00">MxList&lt; T, Initializer,</text>
<text text-anchor="middle" x="319.5" y="-209" font-family="Helvetica,sans-Serif" font-size="10.00"> Prealloc &gt;</text>
</a>
</g>
</g>
<!-- Node8&#45;&gt;Node10 -->
<g id="edge12" class="edge">
<title>Node8&#45;&gt;Node10</title>
<path fill="none" stroke="#9a32cd" stroke-dasharray="5,2" d="M232.21,-217C243.44,-217 255.03,-217 265.94,-217"/>
<polygon fill="#9a32cd" stroke="#9a32cd" points="232.03,-213.5 222.03,-217 232.03,-220.5 232.03,-213.5"/>
<text text-anchor="middle" x="244" y="-220" font-family="Helvetica,sans-Serif" font-size="10.00"> d</text>
</g>
<!-- Node13 -->
<g id="node13" class="node">
<title>Node13</title>
<g id="a_node13"><a xlink:href="class_mx_list.html" target="_top" xlink:title=" ">
<polygon fill="none" stroke="black" points="561.5,-152.5 561.5,-171.5 677.5,-171.5 677.5,-152.5 561.5,-152.5"/>
<text text-anchor="middle" x="619.5" y="-159.5" font-family="Helvetica,sans-Serif" font-size="10.00">MxList&lt; MxGpuArray &gt;</text>
</a>
</g>
</g>
<!-- Node8&#45;&gt;Node13 -->
<g id="edge16" class="edge">
<title>Node8&#45;&gt;Node13</title>
<path fill="none" stroke="#9a32cd" stroke-dasharray="5,2" d="M213.38,-198.03C229.62,-191.83 248.36,-185.62 266,-182 368.53,-160.97 491.11,-159.1 561.37,-160.18"/>
<polygon fill="#9a32cd" stroke="#9a32cd" points="211.66,-194.95 203.63,-201.86 214.22,-201.46 211.66,-194.95"/>
<text text-anchor="middle" x="319.5" y="-185" font-family="Helvetica,sans-Serif" font-size="10.00"> d</text>
</g>
<!-- Node9 -->
<g id="node9" class="node">
<title>Node9</title>
<g id="a_node9"><a xlink:href="class_mx_ref_counter.html" target="_top" xlink:title=" ">
<polygon fill="none" stroke="black" points="0,-207.5 0,-226.5 78,-226.5 78,-207.5 0,-207.5"/>
<text text-anchor="middle" x="39" y="-214.5" font-family="Helvetica,sans-Serif" font-size="10.00">MxRefCounter</text>
</a>
</g>
</g>
<!-- Node9&#45;&gt;Node8 -->
<g id="edge10" class="edge">
<title>Node9&#45;&gt;Node8</title>
<path fill="none" stroke="midnightblue" d="M88.46,-217C97.03,-217 105.98,-217 114.66,-217"/>
<polygon fill="midnightblue" stroke="midnightblue" points="88.25,-213.5 78.25,-217 88.25,-220.5 88.25,-213.5"/>
</g>
<!-- Node10&#45;&gt;Node7 -->
<g id="edge11" class="edge">
<title>Node10&#45;&gt;Node7</title>
<path fill="none" stroke="orange" stroke-dasharray="5,2" d="M383.57,-219.51C432.2,-222.28 494.92,-227.9 518,-239 528.2,-243.9 526.46,-250.92 536,-257 541.4,-260.44 547.25,-263.56 553.25,-266.37"/>
<polygon fill="orange" stroke="orange" points="383.6,-216.01 373.43,-218.96 383.23,-223 383.6,-216.01"/>
<text text-anchor="start" x="391" y="-264" font-family="Helvetica,sans-Serif" font-size="10.00"> &lt; MxCachedGpuArray,</text>
<text text-anchor="start" x="391" y="-253" font-family="Helvetica,sans-Serif" font-size="10.00"> MxClassInitializer</text>
<text text-anchor="middle" x="454.5" y="-242" font-family="Helvetica,sans-Serif" font-size="10.00">&lt; MxCachedGpuArray &gt;, 32 &gt;</text>
</g>
<!-- Node10&#45;&gt;Node13 -->
<g id="edge17" class="edge">
<title>Node10&#45;&gt;Node13</title>
<path fill="none" stroke="orange" stroke-dasharray="5,2" d="M382.99,-205.47C437.58,-195.39 515.86,-180.94 566.93,-171.52"/>
<polygon fill="orange" stroke="orange" points="382.29,-202.04 373.09,-207.29 383.56,-208.92 382.29,-202.04"/>
<text text-anchor="middle" x="454.5" y="-206" font-family="Helvetica,sans-Serif" font-size="10.00"> &lt; MxGpuArray &gt;</text>
</g>
<!-- Node11 -->
<g id="node11" class="node">
<title>Node11</title>
<g id="a_node11"><a xlink:href="class_mx_abstract_atlas.html" target="_top" xlink:title=" ">
<polygon fill="none" stroke="black" points="575,-228.5 575,-247.5 664,-247.5 664,-228.5 575,-228.5"/>
<text text-anchor="middle" x="619.5" y="-235.5" font-family="Helvetica,sans-Serif" font-size="10.00">MxAbstractAtlas</text>
</a>
</g>
</g>
<!-- Node11&#45;&gt;Node2 -->
<g id="edge13" class="edge">
<title>Node11&#45;&gt;Node2</title>
<path fill="none" stroke="#9a32cd" stroke-dasharray="5,2" d="M674.26,-237.76C717.57,-237.57 777.1,-237.31 813.76,-237.15"/>
<polygon fill="#9a32cd" stroke="#9a32cd" points="674.16,-234.26 664.17,-237.81 674.19,-241.26 674.16,-234.26"/>
<text text-anchor="middle" x="751.5" y="-240" font-family="Helvetica,sans-Serif" font-size="10.00"> pIconAtlas</text>
</g>
<!-- Node12 -->
<g id="node12" class="node">
<title>Node12</title>
<g id="a_node12"><a xlink:href="class_mx_texture.html" target="_top" xlink:title=" ">
<polygon fill="none" stroke="black" points="588.5,-190.5 588.5,-209.5 650.5,-209.5 650.5,-190.5 588.5,-190.5"/>
<text text-anchor="middle" x="619.5" y="-197.5" font-family="Helvetica,sans-Serif" font-size="10.00">MxTexture</text>
</a>
</g>
</g>
<!-- Node12&#45;&gt;Node2 -->
<g id="edge14" class="edge">
<title>Node12&#45;&gt;Node2</title>
<path fill="none" stroke="#9a32cd" stroke-dasharray="5,2" d="M660.79,-204.45C693.56,-208.32 740.94,-214.48 782,-222 792.37,-223.9 803.58,-226.34 813.72,-228.7"/>
<polygon fill="#9a32cd" stroke="#9a32cd" points="661.03,-200.96 650.69,-203.28 660.22,-207.91 661.03,-200.96"/>
<text text-anchor="middle" x="751.5" y="-225" font-family="Helvetica,sans-Serif" font-size="10.00"> pTextures</text>
</g>
<!-- Node13&#45;&gt;Node2 -->
<g id="edge15" class="edge">
<title>Node13&#45;&gt;Node2</title>
<path fill="none" stroke="#9a32cd" stroke-dasharray="5,2" d="M687.81,-171.34C717.39,-176.77 752.12,-184.98 782,-197 801.42,-204.81 821.63,-218.22 834.26,-227.34"/>
<polygon fill="#9a32cd" stroke="#9a32cd" points="688.03,-167.83 677.58,-169.54 686.82,-174.72 688.03,-167.83"/>
<text text-anchor="middle" x="751.5" y="-200" font-family="Helvetica,sans-Serif" font-size="10.00"> pBufferViews</text>
</g>
<!-- Node14 -->
<g id="node14" class="node">
<title>Node14</title>
<g id="a_node14"><a xlink:href="class_mx_vector.html" target="_top" xlink:title=" ">
<polygon fill="none" stroke="black" points="572,-114.5 572,-133.5 667,-133.5 667,-114.5 572,-114.5"/>
<text text-anchor="middle" x="619.5" y="-121.5" font-family="Helvetica,sans-Serif" font-size="10.00">MxVector&lt; 2, int &gt;</text>
</a>
</g>
</g>
<!-- Node14&#45;&gt;Node2 -->
<g id="edge18" class="edge">
<title>Node14&#45;&gt;Node2</title>
<path fill="none" stroke="#9a32cd" stroke-dasharray="5,2" d="M677.53,-129.03C710.05,-133.96 750.47,-143.71 782,-163 809.28,-179.69 831.39,-211.48 841.32,-227.41"/>
<polygon fill="#9a32cd" stroke="#9a32cd" points="677.66,-125.52 667.27,-127.6 676.69,-132.45 677.66,-125.52"/>
<text text-anchor="middle" x="751.5" y="-166" font-family="Helvetica,sans-Serif" font-size="10.00"> pScreenSize</text>
</g>
<!-- Node15 -->
<g id="node15" class="node">
<title>Node15</title>
<g id="a_node15"><a xlink:href="class_mx_vector.html" target="_top" xlink:title=" ">
<polygon fill="none" stroke="black" points="273,-93.5 273,-112.5 366,-112.5 366,-93.5 273,-93.5"/>
<text text-anchor="middle" x="319.5" y="-100.5" font-family="Helvetica,sans-Serif" font-size="10.00">MxVector&lt; N, T &gt;</text>
</a>
</g>
</g>
<!-- Node15&#45;&gt;Node14 -->
<g id="edge19" class="edge">
<title>Node15&#45;&gt;Node14</title>
<path fill="none" stroke="orange" stroke-dasharray="5,2" d="M376.26,-106.93C432.72,-110.91 519.03,-116.99 571.94,-120.72"/>
<polygon fill="orange" stroke="orange" points="376.31,-103.42 366.08,-106.21 375.81,-110.41 376.31,-103.42"/>
<text text-anchor="middle" x="454.5" y="-119" font-family="Helvetica,sans-Serif" font-size="10.00"> &lt; 2, int &gt;</text>
</g>
<!-- Node19 -->
<g id="node19" class="node">
<title>Node19</title>
<g id="a_node19"><a xlink:href="class_mx_vector.html" target="_top" xlink:title=" ">
<polygon fill="none" stroke="black" points="568,-76.5 568,-95.5 671,-95.5 671,-76.5 568,-76.5"/>
<text text-anchor="middle" x="619.5" y="-83.5" font-family="Helvetica,sans-Serif" font-size="10.00">MxVector&lt; 2, float &gt;</text>
</a>
</g>
</g>
<!-- Node15&#45;&gt;Node19 -->
<g id="edge26" class="edge">
<title>Node15&#45;&gt;Node19</title>
<path fill="none" stroke="orange" stroke-dasharray="5,2" d="M371.98,-91.65C378.36,-90.58 384.81,-89.65 391,-89 451.5,-82.65 521.54,-82.85 567.74,-84.02"/>
<polygon fill="orange" stroke="orange" points="371.28,-88.22 362.06,-93.44 372.52,-95.11 371.28,-88.22"/>
<text text-anchor="middle" x="454.5" y="-92" font-family="Helvetica,sans-Serif" font-size="10.00"> &lt; 2, float &gt;</text>
</g>
<!-- Node16&#45;&gt;Node2 -->
<g id="edge20" class="edge">
<title>Node16&#45;&gt;Node2</title>
<path fill="none" stroke="#9a32cd" stroke-dasharray="5,2" d="M1160.53,-300.51C1104.4,-317.04 996.31,-340.19 914,-305 885.92,-293 864.18,-262.25 854.5,-246.54"/>
<polygon fill="#9a32cd" stroke="#9a32cd" points="1161.83,-303.77 1170.39,-297.52 1159.8,-297.07 1161.83,-303.77"/>
<text text-anchor="middle" x="1055.5" y="-326" font-family="Helvetica,sans-Serif" font-size="10.00"> pIconProgram</text>
</g>
<!-- Node17&#45;&gt;Node2 -->
<g id="edge22" class="edge">
<title>Node17&#45;&gt;Node2</title>
<path fill="none" stroke="#9a32cd" stroke-dasharray="5,2" d="M1003.57,-271.6C965.59,-263.1 914.82,-251.73 882.02,-244.39"/>
<polygon fill="#9a32cd" stroke="#9a32cd" points="1002.89,-275.03 1013.42,-273.8 1004.42,-268.2 1002.89,-275.03"/>
<text text-anchor="middle" x="951.5" y="-271" font-family="Helvetica,sans-Serif" font-size="10.00"> pCurrProgram</text>
</g>
<!-- Node18 -->
<g id="node18" class="node">
<title>Node18</title>
<g id="a_node18"><a xlink:href="class_mx_widget.html" target="_top" xlink:title=" ">
<polygon fill="none" stroke="black" points="818.5,-76.5 818.5,-95.5 877.5,-95.5 877.5,-76.5 818.5,-76.5"/>
<text text-anchor="middle" x="848" y="-83.5" font-family="Helvetica,sans-Serif" font-size="10.00">MxWidget</text>
</a>
</g>
</g>
<!-- Node18&#45;&gt;Node1 -->
<g id="edge24" class="edge">
<title>Node18&#45;&gt;Node1</title>
<path fill="none" stroke="#9a32cd" stroke-dasharray="5,2" d="M887.96,-82.02C924.94,-78.24 980.18,-72.6 1016.76,-68.86"/>
<polygon fill="#9a32cd" stroke="#9a32cd" points="887.17,-78.58 877.57,-83.08 887.88,-85.55 887.17,-78.58"/>
<text text-anchor="middle" x="951.5" y="-82" font-family="Helvetica,sans-Serif" font-size="10.00"> pWidget</text>
</g>
<!-- Node18&#45;&gt;Node18 -->
<g id="edge27" class="edge">
<title>Node18&#45;&gt;Node18</title>
<path fill="none" stroke="#9a32cd" stroke-dasharray="5,2" d="M830.22,-105.4C831.41,-110.31 837.34,-114 848,-114 865.06,-114 869.99,-104.57 862.8,-95.76"/>
<polygon fill="#9a32cd" stroke="#9a32cd" points="833.59,-106.34 833.2,-95.76 826.91,-104.28 833.59,-106.34"/>
<text text-anchor="middle" x="848" y="-117" font-family="Helvetica,sans-Serif" font-size="10.00"> pParent</text>
</g>
<!-- Node19&#45;&gt;Node18 -->
<g id="edge25" class="edge">
<title>Node19&#45;&gt;Node18</title>
<path fill="none" stroke="#9a32cd" stroke-dasharray="5,2" d="M681.17,-86C725.67,-86 784.07,-86 818.37,-86"/>
<polygon fill="#9a32cd" stroke="#9a32cd" points="681.05,-82.5 671.05,-86 681.05,-89.5 681.05,-82.5"/>
<text text-anchor="middle" x="751.5" y="-100" font-family="Helvetica,sans-Serif" font-size="10.00"> pPos</text>
<text text-anchor="middle" x="751.5" y="-89" font-family="Helvetica,sans-Serif" font-size="10.00">pSize</text>
</g>
<!-- Node20 -->
<g id="node20" class="node">
<title>Node20</title>
<g id="a_node20"><a xlink:href="class_mx_painter.html" target="_top" xlink:title="Holder to the different painters.">
<polygon fill="none" stroke="black" points="818,-38.5 818,-57.5 878,-57.5 878,-38.5 818,-38.5"/>
<text text-anchor="middle" x="848" y="-45.5" font-family="Helvetica,sans-Serif" font-size="10.00">MxPainter</text>
</a>
</g>
</g>
<!-- Node20&#45;&gt;Node1 -->
<g id="edge28" class="edge">
<title>Node20&#45;&gt;Node1</title>
<path fill="none" stroke="#9a32cd" stroke-dasharray="5,2" d="M888.32,-45.85C916.47,-44.91 955.21,-44.81 989,-49 999.8,-50.34 1011.4,-52.82 1021.79,-55.43"/>
<polygon fill="#9a32cd" stroke="#9a32cd" points="887.94,-42.36 878.09,-46.25 888.21,-49.36 887.94,-42.36"/>
<text text-anchor="middle" x="951.5" y="-52" font-family="Helvetica,sans-Serif" font-size="10.00"> pPainterBuffer</text>
</g>
<!-- Node21 -->
<g id="node21" class="node">
<title>Node21</title>
<g id="a_node21"><a xlink:href="class_mx_gui_aggregation.html" target="_top" xlink:title="The MxGuiAggregation class aggregates UI related data members to allow its access from one place.">
<polygon fill="none" stroke="black" points="800,-0.5 800,-19.5 896,-19.5 896,-0.5 800,-0.5"/>
<text text-anchor="middle" x="848" y="-7.5" font-family="Helvetica,sans-Serif" font-size="10.00">MxGuiAggregation</text>
</a>
</g>
</g>
<!-- Node21&#45;&gt;Node1 -->
<g id="edge29" class="edge">
<title>Node21&#45;&gt;Node1</title>
<path fill="none" stroke="#9a32cd" stroke-dasharray="5,2" d="M906.22,-14.28C931.97,-17.29 962.48,-22.39 989,-31 1007.28,-36.93 1026.63,-47.59 1039.51,-55.39"/>
<polygon fill="#9a32cd" stroke="#9a32cd" points="906.56,-10.79 896.24,-13.18 905.8,-17.75 906.56,-10.79"/>
<text text-anchor="middle" x="951.5" y="-34" font-family="Helvetica,sans-Serif" font-size="10.00"> pGuiAggregation</text>
</g>
</g>
</svg>
