<?xml version="1.0" encoding="UTF-8" standalone="no"?>
<!DOCTYPE svg PUBLIC "-//W3C//DTD SVG 1.1//EN"
 "http://www.w3.org/Graphics/SVG/1.1/DTD/svg11.dtd">
<!-- Generated by graphviz version 2.44.0 ()
 -->
<!-- Title: MxApplication Pages: 1 -->
<svg width="1198pt" height="300pt"
 viewBox="0.00 0.00 1198.00 300.00" xmlns="http://www.w3.org/2000/svg" xmlns:xlink="http://www.w3.org/1999/xlink">
<g id="graph0" class="graph" transform="scale(1 1) rotate(0) translate(4 296)">
<title>MxApplication</title>
<!-- Node1 -->
<g id="node1" class="node">
<title>Node1</title>
<g id="a_node1"><a xlink:title=" ">
<polygon fill="#bfbfbf" stroke="black" points="950,-55.5 950,-74.5 1027,-74.5 1027,-55.5 950,-55.5"/>
<text text-anchor="middle" x="988.5" y="-62.5" font-family="Helvetica,sans-Serif" font-size="10.00">MxApplication</text>
</a>
</g>
</g>
<!-- Node2 -->
<g id="node2" class="node">
<title>Node2</title>
<g id="a_node2"><a xlink:href="class_mx_renderer.html" target="_top" xlink:title=" ">
<polygon fill="none" stroke="black" points="754.5,-182.5 754.5,-201.5 822.5,-201.5 822.5,-182.5 754.5,-182.5"/>
<text text-anchor="middle" x="788.5" y="-189.5" font-family="Helvetica,sans-Serif" font-size="10.00">MxRenderer</text>
</a>
</g>
</g>
<!-- Node2&#45;&gt;Node1 -->
<g id="edge1" class="edge">
<title>Node2&#45;&gt;Node1</title>
<path fill="none" stroke="#9a32cd" stroke-dasharray="5,2" d="M801.53,-173.81C814.8,-154.21 835.77,-124.8 847,-117 875.63,-97.11 889.34,-106.19 922,-94 937.61,-88.17 954.83,-80.5 967.69,-74.51"/>
<polygon fill="#9a32cd" stroke="#9a32cd" points="798.53,-171.99 795.87,-182.25 804.35,-175.89 798.53,-171.99"/>
<text text-anchor="middle" x="884.5" y="-120" font-family="Helvetica,sans-Serif" font-size="10.00"> pRenderer</text>
</g>
<!-- Node5 -->
<g id="node5" class="node">
<title>Node5</title>
<g id="a_node5"><a xlink:href="class_mx_shader_program.html" target="_top" xlink:title=" ">
<polygon fill="none" stroke="black" points="940,-182.5 940,-201.5 1037,-201.5 1037,-182.5 940,-182.5"/>
<text text-anchor="middle" x="988.5" y="-189.5" font-family="Helvetica,sans-Serif" font-size="10.00">MxShaderProgram</text>
</a>
</g>
</g>
<!-- Node2&#45;&gt;Node5 -->
<g id="edge5" class="edge">
<title>Node2&#45;&gt;Node5</title>
<path fill="none" stroke="#9a32cd" stroke-dasharray="5,2" d="M832.89,-192C864.47,-192 907.23,-192 939.78,-192"/>
<polygon fill="#9a32cd" stroke="#9a32cd" points="832.64,-188.5 822.64,-192 832.64,-195.5 832.64,-188.5"/>
<text text-anchor="middle" x="884.5" y="-195" font-family="Helvetica,sans-Serif" font-size="10.00"> pRenderer</text>
</g>
<!-- Node3 -->
<g id="node3" class="node">
<title>Node3</title>
<g id="a_node3"><a xlink:title=" ">
<polygon fill="none" stroke="#bfbfbf" points="545,-252.5 545,-271.5 654,-271.5 654,-252.5 545,-252.5"/>
<text text-anchor="middle" x="599.5" y="-259.5" font-family="Helvetica,sans-Serif" font-size="10.00">MxOpenGLFunctions</text>
</a>
</g>
</g>
<!-- Node3&#45;&gt;Node2 -->
<g id="edge2" class="edge">
<title>Node3&#45;&gt;Node2</title>
<path fill="none" stroke="midnightblue" d="M642.56,-249.42C668.12,-241.44 701.25,-230.47 730,-219 743.11,-213.77 757.49,-207.02 768.58,-201.57"/>
<polygon fill="midnightblue" stroke="midnightblue" points="641.33,-246.14 632.81,-252.44 643.4,-252.83 641.33,-246.14"/>
</g>
<!-- Node4 -->
<g id="node4" class="node">
<title>Node4</title>
<g id="a_node4"><a xlink:href="class_mx_vector_program.html" target="_top" xlink:title=" ">
<polygon fill="none" stroke="black" points="1084.5,-141.5 1084.5,-160.5 1179.5,-160.5 1179.5,-141.5 1084.5,-141.5"/>
<text text-anchor="middle" x="1132" y="-148.5" font-family="Helvetica,sans-Serif" font-size="10.00">MxVectorProgram</text>
</a>
</g>
</g>
<!-- Node4&#45;&gt;Node2 -->
<g id="edge3" class="edge">
<title>Node4&#45;&gt;Node2</title>
<path fill="none" stroke="#9a32cd" stroke-dasharray="5,2" d="M1073.76,-152.22C1035.72,-153.54 984.72,-156.28 940,-162 899.3,-167.2 853.11,-177 822.75,-183.99"/>
<polygon fill="#9a32cd" stroke="#9a32cd" points="1074.25,-155.7 1084.13,-151.88 1074.02,-148.71 1074.25,-155.7"/>
<text text-anchor="middle" x="988.5" y="-165" font-family="Helvetica,sans-Serif" font-size="10.00"> pVectorProgram</text>
</g>
<!-- Node5&#45;&gt;Node4 -->
<g id="edge4" class="edge">
<title>Node5&#45;&gt;Node4</title>
<path fill="none" stroke="midnightblue" d="M1032,-179.68C1053.11,-173.57 1078.22,-166.29 1097.87,-160.6"/>
<polygon fill="midnightblue" stroke="midnightblue" points="1030.95,-176.35 1022.32,-182.49 1032.9,-183.07 1030.95,-176.35"/>
</g>
<!-- Node6 -->
<g id="node6" class="node">
<title>Node6</title>
<g id="a_node6"><a xlink:href="class_mx_color_wheel_program.html" target="_top" xlink:title=" ">
<polygon fill="none" stroke="black" points="1074,-185.5 1074,-204.5 1190,-204.5 1190,-185.5 1074,-185.5"/>
<text text-anchor="middle" x="1132" y="-192.5" font-family="Helvetica,sans-Serif" font-size="10.00">MxColorWheelProgram</text>
</a>
</g>
</g>
<!-- Node5&#45;&gt;Node6 -->
<g id="edge7" class="edge">
<title>Node5&#45;&gt;Node6</title>
<path fill="none" stroke="midnightblue" d="M1047.1,-193.22C1055.82,-193.41 1064.83,-193.6 1073.55,-193.78"/>
<polygon fill="midnightblue" stroke="midnightblue" points="1047.08,-189.72 1037.01,-193.01 1046.93,-196.72 1047.08,-189.72"/>
</g>
<!-- Node14 -->
<g id="node14" class="node">
<title>Node14</title>
<g id="a_node14"><a xlink:href="class_mx_icon_program.html" target="_top" xlink:title=" ">
<polygon fill="none" stroke="black" points="1089.5,-229.5 1089.5,-248.5 1174.5,-248.5 1174.5,-229.5 1089.5,-229.5"/>
<text text-anchor="middle" x="1132" y="-236.5" font-family="Helvetica,sans-Serif" font-size="10.00">MxIconProgram</text>
</a>
</g>
</g>
<!-- Node5&#45;&gt;Node14 -->
<g id="edge17" class="edge">
<title>Node5&#45;&gt;Node14</title>
<path fill="none" stroke="midnightblue" d="M1027.73,-204.7C1051.08,-212.45 1080.47,-222.22 1101.92,-229.34"/>
<polygon fill="midnightblue" stroke="midnightblue" points="1028.73,-201.34 1018.13,-201.51 1026.52,-207.98 1028.73,-201.34"/>
</g>
<!-- Node6&#45;&gt;Node2 -->
<g id="edge6" class="edge">
<title>Node6&#45;&gt;Node2</title>
<path fill="none" stroke="#9a32cd" stroke-dasharray="5,2" d="M1094.38,-208.64C1087.36,-211.92 1080.26,-215.73 1074,-220 1054.8,-233.12 1058.49,-248.1 1037,-257 958.98,-289.32 923.94,-290.8 847,-256 821.96,-244.67 803.21,-216.57 794.64,-201.65"/>
<polygon fill="#9a32cd" stroke="#9a32cd" points="1096.06,-211.73 1103.82,-204.51 1093.25,-205.31 1096.06,-211.73"/>
<text text-anchor="middle" x="988.5" y="-284" font-family="Helvetica,sans-Serif" font-size="10.00"> pColorWheelEffect</text>
</g>
<!-- Node7 -->
<g id="node7" class="node">
<title>Node7</title>
<g id="a_node7"><a xlink:href="class_mx_list.html" target="_top" xlink:title=" ">
<polygon fill="none" stroke="black" points="549,-192.5 549,-233.5 650,-233.5 650,-192.5 549,-192.5"/>
<text text-anchor="start" x="557" y="-221.5" font-family="Helvetica,sans-Serif" font-size="10.00">MxList&lt; GpuBuffer,</text>
<text text-anchor="start" x="557" y="-210.5" font-family="Helvetica,sans-Serif" font-size="10.00"> MxClassInitializer</text>
<text text-anchor="middle" x="599.5" y="-199.5" font-family="Helvetica,sans-Serif" font-size="10.00">&lt; GpuBuffer &gt; &gt;</text>
</a>
</g>
</g>
<!-- Node7&#45;&gt;Node2 -->
<g id="edge8" class="edge">
<title>Node7&#45;&gt;Node2</title>
<path fill="none" stroke="#9a32cd" stroke-dasharray="5,2" d="M660.44,-206.27C691.6,-202.77 728.49,-198.63 754.47,-195.71"/>
<polygon fill="#9a32cd" stroke="#9a32cd" points="659.67,-202.83 650.12,-207.43 660.45,-209.79 659.67,-202.83"/>
<text text-anchor="middle" x="701" y="-207" font-family="Helvetica,sans-Serif" font-size="10.00"> pVboList</text>
</g>
<!-- Node8 -->
<g id="node8" class="node">
<title>Node8</title>
<g id="a_node8"><a xlink:href="struct_mx_list_1_1_data.html" target="_top" xlink:title="these members are public to allow unions">
<polygon fill="none" stroke="black" points="115,-182 115,-212 222,-212 222,-182 115,-182"/>
<text text-anchor="start" x="123" y="-200" font-family="Helvetica,sans-Serif" font-size="10.00">MxList&lt; T, Initializer,</text>
<text text-anchor="middle" x="168.5" y="-189" font-family="Helvetica,sans-Serif" font-size="10.00"> Prealloc &gt;::Data</text>
</a>
</g>
</g>
<!-- Node8&#45;&gt;Node7 -->
<g id="edge9" class="edge">
<title>Node8&#45;&gt;Node7</title>
<path fill="none" stroke="#9a32cd" stroke-dasharray="5,2" d="M232.33,-200.99C276.66,-203.66 337.44,-207.03 391,-209 444.83,-210.98 506.55,-212.01 548.59,-212.53"/>
<polygon fill="#9a32cd" stroke="#9a32cd" points="232.48,-197.49 222.29,-200.38 232.06,-204.48 232.48,-197.49"/>
<text text-anchor="middle" x="319.5" y="-211" font-family="Helvetica,sans-Serif" font-size="10.00"> d</text>
</g>
<!-- Node10 -->
<g id="node10" class="node">
<title>Node10</title>
<g id="a_node10"><a xlink:href="class_mx_list.html" target="_top" xlink:title=" ">
<polygon fill="none" stroke="black" points="266,-156 266,-186 373,-186 373,-156 266,-156"/>
<text text-anchor="start" x="274" y="-174" font-family="Helvetica,sans-Serif" font-size="10.00">MxList&lt; T, Initializer,</text>
<text text-anchor="middle" x="319.5" y="-163" font-family="Helvetica,sans-Serif" font-size="10.00"> Prealloc &gt;</text>
</a>
</g>
</g>
<!-- Node8&#45;&gt;Node10 -->
<g id="edge12" class="edge">
<title>Node8&#45;&gt;Node10</title>
<path fill="none" stroke="#9a32cd" stroke-dasharray="5,2" d="M232.21,-186.06C243.44,-184.1 255.03,-182.07 265.94,-180.17"/>
<polygon fill="#9a32cd" stroke="#9a32cd" points="231.28,-182.67 222.03,-187.83 232.48,-189.56 231.28,-182.67"/>
<text text-anchor="middle" x="244" y="-187" font-family="Helvetica,sans-Serif" font-size="10.00"> d</text>
</g>
<!-- Node9 -->
<g id="node9" class="node">
<title>Node9</title>
<g id="a_node9"><a xlink:href="class_mx_ref_counter.html" target="_top" xlink:title=" ">
<polygon fill="none" stroke="black" points="0,-187.5 0,-206.5 78,-206.5 78,-187.5 0,-187.5"/>
<text text-anchor="middle" x="39" y="-194.5" font-family="Helvetica,sans-Serif" font-size="10.00">MxRefCounter</text>
</a>
</g>
</g>
<!-- Node9&#45;&gt;Node8 -->
<g id="edge10" class="edge">
<title>Node9&#45;&gt;Node8</title>
<path fill="none" stroke="midnightblue" d="M88.46,-197C97.03,-197 105.98,-197 114.66,-197"/>
<polygon fill="midnightblue" stroke="midnightblue" points="88.25,-193.5 78.25,-197 88.25,-200.5 88.25,-193.5"/>
</g>
<!-- Node10&#45;&gt;Node7 -->
<g id="edge11" class="edge">
<title>Node10&#45;&gt;Node7</title>
<path fill="none" stroke="orange" stroke-dasharray="5,2" d="M383.44,-171.46C424.68,-172.84 479.53,-176.73 527,-187 534.1,-188.54 541.45,-190.61 548.61,-192.93"/>
<polygon fill="orange" stroke="orange" points="383.36,-167.96 373.26,-171.16 383.15,-174.96 383.36,-167.96"/>
<text text-anchor="start" x="391" y="-201" font-family="Helvetica,sans-Serif" font-size="10.00"> &lt; GpuBuffer, MxClassInitializer</text>
<text text-anchor="middle" x="459" y="-190" font-family="Helvetica,sans-Serif" font-size="10.00">&lt; GpuBuffer &gt; &gt;</text>
</g>
<!-- Node11 -->
<g id="node11" class="node">
<title>Node11</title>
<g id="a_node11"><a xlink:href="class_mx_abstract_atlas.html" target="_top" xlink:title=" ">
<polygon fill="none" stroke="black" points="555,-154.5 555,-173.5 644,-173.5 644,-154.5 555,-154.5"/>
<text text-anchor="middle" x="599.5" y="-161.5" font-family="Helvetica,sans-Serif" font-size="10.00">MxAbstractAtlas</text>
</a>
</g>
</g>
<!-- Node11&#45;&gt;Node2 -->
<g id="edge13" class="edge">
<title>Node11&#45;&gt;Node2</title>
<path fill="none" stroke="#9a32cd" stroke-dasharray="5,2" d="M654.31,-171.78C677.59,-175.17 705.15,-179.23 730,-183 737.89,-184.2 746.39,-185.51 754.37,-186.76"/>
<polygon fill="#9a32cd" stroke="#9a32cd" points="654.67,-168.29 644.27,-170.32 653.67,-175.22 654.67,-168.29"/>
<text text-anchor="middle" x="701" y="-186" font-family="Helvetica,sans-Serif" font-size="10.00"> pIconAtlas</text>
</g>
<!-- Node12 -->
<g id="node12" class="node">
<title>Node12</title>
<g id="a_node12"><a xlink:href="class_mx_vector.html" target="_top" xlink:title=" ">
<polygon fill="none" stroke="black" points="552,-116.5 552,-135.5 647,-135.5 647,-116.5 552,-116.5"/>
<text text-anchor="middle" x="599.5" y="-123.5" font-family="Helvetica,sans-Serif" font-size="10.00">MxVector&lt; 2, int &gt;</text>
</a>
</g>
</g>
<!-- Node12&#45;&gt;Node2 -->
<g id="edge14" class="edge">
<title>Node12&#45;&gt;Node2</title>
<path fill="none" stroke="#9a32cd" stroke-dasharray="5,2" d="M657.01,-136.89C680.1,-142.24 706.78,-149.58 730,-159 745.57,-165.32 762.08,-175.16 773.4,-182.46"/>
<polygon fill="#9a32cd" stroke="#9a32cd" points="657.54,-133.42 647.02,-134.65 656.01,-140.25 657.54,-133.42"/>
<text text-anchor="middle" x="701" y="-162" font-family="Helvetica,sans-Serif" font-size="10.00"> pScreenSize</text>
</g>
<!-- Node13 -->
<g id="node13" class="node">
<title>Node13</title>
<g id="a_node13"><a xlink:href="class_mx_vector.html" target="_top" xlink:title=" ">
<polygon fill="none" stroke="black" points="273,-104.5 273,-123.5 366,-123.5 366,-104.5 273,-104.5"/>
<text text-anchor="middle" x="319.5" y="-111.5" font-family="Helvetica,sans-Serif" font-size="10.00">MxVector&lt; N, T &gt;</text>
</a>
</g>
</g>
<!-- Node13&#45;&gt;Node12 -->
<g id="edge15" class="edge">
<title>Node13&#45;&gt;Node12</title>
<path fill="none" stroke="orange" stroke-dasharray="5,2" d="M376.39,-116.41C427.94,-118.64 503.6,-121.9 551.95,-123.99"/>
<polygon fill="orange" stroke="orange" points="376.24,-112.9 366.09,-115.97 375.93,-119.9 376.24,-112.9"/>
<text text-anchor="middle" x="459" y="-125" font-family="Helvetica,sans-Serif" font-size="10.00"> &lt; 2, int &gt;</text>
</g>
<!-- Node16 -->
<g id="node16" class="node">
<title>Node16</title>
<g id="a_node16"><a xlink:href="class_mx_vector.html" target="_top" xlink:title=" ">
<polygon fill="none" stroke="black" points="548,-77.5 548,-96.5 651,-96.5 651,-77.5 548,-77.5"/>
<text text-anchor="middle" x="599.5" y="-84.5" font-family="Helvetica,sans-Serif" font-size="10.00">MxVector&lt; 2, float &gt;</text>
</a>
</g>
</g>
<!-- Node13&#45;&gt;Node16 -->
<g id="edge20" class="edge">
<title>Node13&#45;&gt;Node16</title>
<path fill="none" stroke="orange" stroke-dasharray="5,2" d="M376.38,-103.98C381.32,-103.25 386.24,-102.58 391,-102 444.25,-95.56 505.54,-91.54 547.63,-89.31"/>
<polygon fill="orange" stroke="orange" points="375.64,-100.55 366.29,-105.55 376.71,-107.47 375.64,-100.55"/>
<text text-anchor="middle" x="459" y="-105" font-family="Helvetica,sans-Serif" font-size="10.00"> &lt; 2, float &gt;</text>
</g>
<!-- Node14&#45;&gt;Node2 -->
<g id="edge16" class="edge">
<title>Node14&#45;&gt;Node2</title>
<path fill="none" stroke="#9a32cd" stroke-dasharray="5,2" d="M1079.1,-235.39C1021.91,-230.9 927.37,-221.93 847,-207 839.09,-205.53 830.66,-203.56 822.76,-201.54"/>
<polygon fill="#9a32cd" stroke="#9a32cd" points="1079.1,-238.9 1089.34,-236.18 1079.63,-231.92 1079.1,-238.9"/>
<text text-anchor="middle" x="988.5" y="-234" font-family="Helvetica,sans-Serif" font-size="10.00"> pIconProgram</text>
</g>
<!-- Node15 -->
<g id="node15" class="node">
<title>Node15</title>
<g id="a_node15"><a xlink:href="class_mx_widget.html" target="_top" xlink:title=" ">
<polygon fill="none" stroke="black" points="759,-76.5 759,-95.5 818,-95.5 818,-76.5 759,-76.5"/>
<text text-anchor="middle" x="788.5" y="-83.5" font-family="Helvetica,sans-Serif" font-size="10.00">MxWidget</text>
</a>
</g>
</g>
<!-- Node15&#45;&gt;Node1 -->
<g id="edge18" class="edge">
<title>Node15&#45;&gt;Node1</title>
<path fill="none" stroke="#9a32cd" stroke-dasharray="5,2" d="M828.66,-81.85C863.84,-78.12 915.16,-72.67 949.87,-68.99"/>
<polygon fill="#9a32cd" stroke="#9a32cd" points="827.87,-78.41 818.29,-82.95 828.6,-85.37 827.87,-78.41"/>
<text text-anchor="middle" x="884.5" y="-82" font-family="Helvetica,sans-Serif" font-size="10.00"> pWidget</text>
</g>
<!-- Node15&#45;&gt;Node15 -->
<g id="edge21" class="edge">
<title>Node15&#45;&gt;Node15</title>
<path fill="none" stroke="#9a32cd" stroke-dasharray="5,2" d="M772.57,-105.4C773.64,-110.31 778.95,-114 788.5,-114 803.79,-114 808.2,-104.57 801.76,-95.76"/>
<polygon fill="#9a32cd" stroke="#9a32cd" points="775.95,-106.33 775.24,-95.76 769.2,-104.46 775.95,-106.33"/>
<text text-anchor="middle" x="788.5" y="-117" font-family="Helvetica,sans-Serif" font-size="10.00"> pParent</text>
</g>
<!-- Node16&#45;&gt;Node15 -->
<g id="edge19" class="edge">
<title>Node16&#45;&gt;Node15</title>
<path fill="none" stroke="#9a32cd" stroke-dasharray="5,2" d="M661.51,-86.67C694.28,-86.5 733.14,-86.29 758.95,-86.15"/>
<polygon fill="#9a32cd" stroke="#9a32cd" points="661.09,-83.18 651.1,-86.73 661.12,-90.18 661.09,-83.18"/>
<text text-anchor="middle" x="701" y="-100" font-family="Helvetica,sans-Serif" font-size="10.00"> pPos</text>
<text text-anchor="middle" x="701" y="-89" font-family="Helvetica,sans-Serif" font-size="10.00">pSize</text>
</g>
<!-- Node17 -->
<g id="node17" class="node">
<title>Node17</title>
<g id="a_node17"><a xlink:href="class_mx_painter.html" target="_top" xlink:title="Holder to the different painters.">
<polygon fill="none" stroke="black" points="758.5,-38.5 758.5,-57.5 818.5,-57.5 818.5,-38.5 758.5,-38.5"/>
<text text-anchor="middle" x="788.5" y="-45.5" font-family="Helvetica,sans-Serif" font-size="10.00">MxPainter</text>
</a>
</g>
</g>
<!-- Node17&#45;&gt;Node1 -->
<g id="edge22" class="edge">
<title>Node17&#45;&gt;Node1</title>
<path fill="none" stroke="#9a32cd" stroke-dasharray="5,2" d="M828.6,-45.93C855.06,-45.1 890.76,-45.12 922,-49 932.8,-50.34 944.4,-52.82 954.79,-55.43"/>
<polygon fill="#9a32cd" stroke="#9a32cd" points="828.44,-42.43 818.58,-46.29 828.7,-49.42 828.44,-42.43"/>
<text text-anchor="middle" x="884.5" y="-52" font-family="Helvetica,sans-Serif" font-size="10.00"> pPainterBuffer</text>
</g>
<!-- Node18 -->
<g id="node18" class="node">
<title>Node18</title>
<g id="a_node18"><a xlink:href="class_mx_aggregation.html" target="_top" xlink:title="The MxGuiAggregation class aggregates UI related data members to allow its access from one place.">
<polygon fill="none" stroke="black" points="748,-0.5 748,-19.5 829,-19.5 829,-0.5 748,-0.5"/>
<text text-anchor="middle" x="788.5" y="-7.5" font-family="Helvetica,sans-Serif" font-size="10.00">MxAggregation</text>
</a>
</g>
</g>
<!-- Node18&#45;&gt;Node1 -->
<g id="edge23" class="edge">
<title>Node18&#45;&gt;Node1</title>
<path fill="none" stroke="#9a32cd" stroke-dasharray="5,2" d="M839.22,-14.05C864.47,-17.07 895.36,-22.23 922,-31 940.25,-37.01 959.6,-47.65 972.5,-55.43"/>
<polygon fill="#9a32cd" stroke="#9a32cd" points="839.45,-10.56 829.13,-12.93 838.68,-17.52 839.45,-10.56"/>
<text text-anchor="middle" x="884.5" y="-34" font-family="Helvetica,sans-Serif" font-size="10.00"> pGuiAggregation</text>
</g>
</g>
</svg>
