<?xml version="1.0" encoding="UTF-8" standalone="no"?>
<!DOCTYPE svg PUBLIC "-//W3C//DTD SVG 1.1//EN"
 "http://www.w3.org/Graphics/SVG/1.1/DTD/svg11.dtd">
<!-- Generated by graphviz version 2.44.0 ()
 -->
<!-- Title: MxList&lt; T, Initializer, Prealloc &gt; Pages: 1 -->
<svg width="461pt" height="213pt"
 viewBox="0.00 0.00 461.00 212.50" xmlns="http://www.w3.org/2000/svg" xmlns:xlink="http://www.w3.org/1999/xlink">
<g id="graph0" class="graph" transform="scale(1 1) rotate(0) translate(4 208.5)">
<title>MxList&lt; T, Initializer, Prealloc &gt;</title>
<!-- Node1 -->
<g id="node1" class="node">
<title>Node1</title>
<g id="a_node1"><a xlink:title=" ">
<polygon fill="#bfbfbf" stroke="black" points="0,-82.5 0,-112.5 107,-112.5 107,-82.5 0,-82.5"/>
<text text-anchor="start" x="8" y="-100.5" font-family="Helvetica,sans-Serif" font-size="10.00">MxList&lt; T, Initializer,</text>
<text text-anchor="middle" x="53.5" y="-89.5" font-family="Helvetica,sans-Serif" font-size="10.00"> Prealloc &gt;</text>
</a>
</g>
</g>
<!-- Node2 -->
<g id="node2" class="node">
<title>Node2</title>
<g id="a_node2"><a xlink:href="class_mx_list.html" target="_top" xlink:title=" ">
<polygon fill="none" stroke="black" points="296,-159 296,-200 439,-200 439,-159 296,-159"/>
<text text-anchor="start" x="304" y="-188" font-family="Helvetica,sans-Serif" font-size="10.00">MxList&lt; ReusableBuffer,</text>
<text text-anchor="start" x="304" y="-177" font-family="Helvetica,sans-Serif" font-size="10.00"> MxClassInitializer&lt; Reusable</text>
<text text-anchor="middle" x="367.5" y="-166" font-family="Helvetica,sans-Serif" font-size="10.00">Buffer &gt;, 32 &gt;</text>
</a>
</g>
</g>
<!-- Node1&#45;&gt;Node2 -->
<g id="edge1" class="edge">
<title>Node1&#45;&gt;Node2</title>
<path fill="none" stroke="orange" stroke-dasharray="5,2" d="M82.55,-118.64C94.96,-127.01 110.1,-135.94 125,-141.5 180.28,-162.12 246.72,-171.55 295.91,-175.86"/>
<polygon fill="orange" stroke="orange" points="84.24,-115.56 74.03,-112.71 80.23,-121.3 84.24,-115.56"/>
<text text-anchor="start" x="134.5" y="-196.5" font-family="Helvetica,sans-Serif" font-size="10.00"> &lt; ReusableBuffer, MxClass</text>
<text text-anchor="start" x="134.5" y="-185.5" font-family="Helvetica,sans-Serif" font-size="10.00">Initializer&lt; ReusableBuffer</text>
<text text-anchor="middle" x="194.5" y="-174.5" font-family="Helvetica,sans-Serif" font-size="10.00"> &gt;, 32 &gt;</text>
</g>
<!-- Node3 -->
<g id="node3" class="node">
<title>Node3</title>
<g id="a_node3"><a xlink:href="class_mx_list.html" target="_top" xlink:title=" ">
<polygon fill="none" stroke="black" points="287,-110.5 287,-140.5 448,-140.5 448,-110.5 287,-110.5"/>
<text text-anchor="start" x="295" y="-128.5" font-family="Helvetica,sans-Serif" font-size="10.00">MxList&lt; MxWidget *,</text>
<text text-anchor="middle" x="367.5" y="-117.5" font-family="Helvetica,sans-Serif" font-size="10.00"> MxPodInitializer&lt; MxWidget * &gt; &gt;</text>
</a>
</g>
</g>
<!-- Node1&#45;&gt;Node3 -->
<g id="edge2" class="edge">
<title>Node1&#45;&gt;Node3</title>
<path fill="none" stroke="orange" stroke-dasharray="5,2" d="M117.18,-103.13C165.98,-107.5 234.04,-113.61 286.73,-118.34"/>
<polygon fill="orange" stroke="orange" points="117.35,-99.63 107.07,-102.22 116.72,-106.6 117.35,-99.63"/>
<text text-anchor="start" x="128" y="-129.5" font-family="Helvetica,sans-Serif" font-size="10.00"> &lt; MxWidget *, MxPodInitializer</text>
<text text-anchor="middle" x="194.5" y="-118.5" font-family="Helvetica,sans-Serif" font-size="10.00">&lt; MxWidget * &gt; &gt;</text>
</g>
<!-- Node4 -->
<g id="node4" class="node">
<title>Node4</title>
<g id="a_node4"><a xlink:href="class_mx_list.html" target="_top" xlink:title=" ">
<polygon fill="none" stroke="black" points="282,-49 282,-90 453,-90 453,-49 282,-49"/>
<text text-anchor="start" x="290" y="-78" font-family="Helvetica,sans-Serif" font-size="10.00">MxList&lt; MxRenderer</text>
<text text-anchor="start" x="290" y="-67" font-family="Helvetica,sans-Serif" font-size="10.00">::ReusableVbo, MxClassInitializer</text>
<text text-anchor="middle" x="367.5" y="-56" font-family="Helvetica,sans-Serif" font-size="10.00">&lt; MxRenderer::ReusableVbo &gt;, 32 &gt;</text>
</a>
</g>
</g>
<!-- Node1&#45;&gt;Node4 -->
<g id="edge3" class="edge">
<title>Node1&#45;&gt;Node4</title>
<path fill="none" stroke="orange" stroke-dasharray="5,2" d="M91.12,-77.98C101.75,-73.27 113.58,-68.9 125,-66.5 176.29,-55.72 235.07,-56.18 281.8,-59.48"/>
<polygon fill="orange" stroke="orange" points="89.32,-74.96 81.74,-82.36 92.28,-81.3 89.32,-74.96"/>
<text text-anchor="start" x="125" y="-91.5" font-family="Helvetica,sans-Serif" font-size="10.00"> &lt; MxRenderer::ReusableVbo,</text>
<text text-anchor="start" x="125" y="-80.5" font-family="Helvetica,sans-Serif" font-size="10.00"> MxClassInitializer&lt; MxRenderer</text>
<text text-anchor="middle" x="194.5" y="-69.5" font-family="Helvetica,sans-Serif" font-size="10.00">::ReusableVbo &gt;, 32 &gt;</text>
</g>
<!-- Node5 -->
<g id="node5" class="node">
<title>Node5</title>
<g id="a_node5"><a xlink:href="class_mx_list.html" target="_top" xlink:title=" ">
<polygon fill="none" stroke="black" points="294.5,-0.5 294.5,-30.5 440.5,-30.5 440.5,-0.5 294.5,-0.5"/>
<text text-anchor="start" x="302.5" y="-18.5" font-family="Helvetica,sans-Serif" font-size="10.00">MxList&lt; float, MxPodInitializer</text>
<text text-anchor="middle" x="367.5" y="-7.5" font-family="Helvetica,sans-Serif" font-size="10.00">&lt; float &gt; &gt;</text>
</a>
</g>
</g>
<!-- Node1&#45;&gt;Node5 -->
<g id="edge4" class="edge">
<title>Node1&#45;&gt;Node5</title>
<path fill="none" stroke="orange" stroke-dasharray="5,2" d="M71.67,-74.26C84.49,-58.88 103.45,-39.89 125,-30.5 178.34,-7.26 244.65,-4.77 294.28,-7.39"/>
<polygon fill="orange" stroke="orange" points="68.72,-72.34 65.21,-82.34 74.19,-76.72 68.72,-72.34"/>
<text text-anchor="start" x="143" y="-44.5" font-family="Helvetica,sans-Serif" font-size="10.00"> &lt; float, MxPodInitializer</text>
<text text-anchor="middle" x="194.5" y="-33.5" font-family="Helvetica,sans-Serif" font-size="10.00">&lt; float &gt; &gt;</text>
</g>
</g>
</svg>
