<?xml version="1.0" encoding="UTF-8" standalone="no"?>
<!DOCTYPE svg PUBLIC "-//W3C//DTD SVG 1.1//EN"
 "http://www.w3.org/Graphics/SVG/1.1/DTD/svg11.dtd">
<!-- Generated by graphviz version 2.44.0 ()
 -->
<!-- Title: MxIconProgram Pages: 1 -->
<svg width="1259pt" height="338pt"
 viewBox="0.00 0.00 1259.00 338.00" xmlns="http://www.w3.org/2000/svg" xmlns:xlink="http://www.w3.org/1999/xlink">
<g id="graph0" class="graph" transform="scale(1 1) rotate(0) translate(4 334)">
<title>MxIconProgram</title>
<!-- Node1 -->
<g id="node1" class="node">
<title>Node1</title>
<g id="a_node1"><a xlink:title=" ">
<polygon fill="#bfbfbf" stroke="black" points="595,-310.5 595,-329.5 680,-329.5 680,-310.5 595,-310.5"/>
<text text-anchor="middle" x="637.5" y="-317.5" font-family="Helvetica,sans-Serif" font-size="10.00">MxIconProgram</text>
</a>
</g>
</g>
<!-- Node3 -->
<g id="node3" class="node">
<title>Node3</title>
<g id="a_node3"><a xlink:href="class_mx_renderer.html" target="_top" xlink:title="The MxRenderer keeps track of the rendering state and resources.">
<polygon fill="none" stroke="black" points="834,-174.5 834,-193.5 902,-193.5 902,-174.5 834,-174.5"/>
<text text-anchor="middle" x="868" y="-181.5" font-family="Helvetica,sans-Serif" font-size="10.00">MxRenderer</text>
</a>
</g>
</g>
<!-- Node1&#45;&gt;Node3 -->
<g id="edge20" class="edge">
<title>Node1&#45;&gt;Node3</title>
<path fill="none" stroke="#9a32cd" stroke-dasharray="5,2" d="M690.27,-310.33C702.42,-307.67 715.24,-304.52 727,-301 735.22,-298.54 736.93,-296.93 745,-294 776.31,-282.63 790.11,-290.96 816,-270 841.9,-249.02 857.64,-211.14 863.89,-193.5"/>
<polygon fill="#9a32cd" stroke="#9a32cd" points="689.32,-306.96 680.27,-312.46 690.78,-313.8 689.32,-306.96"/>
<text text-anchor="middle" x="780.5" y="-297" font-family="Helvetica,sans-Serif" font-size="10.00"> pIconProgram</text>
</g>
<!-- Node2 -->
<g id="node2" class="node">
<title>Node2</title>
<g id="a_node2"><a xlink:href="class_mx_shader_program.html" target="_top" xlink:title=" ">
<polygon fill="none" stroke="black" points="1001,-230.5 1001,-249.5 1098,-249.5 1098,-230.5 1001,-230.5"/>
<text text-anchor="middle" x="1049.5" y="-237.5" font-family="Helvetica,sans-Serif" font-size="10.00">MxShaderProgram</text>
</a>
</g>
</g>
<!-- Node2&#45;&gt;Node1 -->
<g id="edge1" class="edge">
<title>Node2&#45;&gt;Node1</title>
<path fill="none" stroke="midnightblue" d="M1011.26,-252.76C965.76,-267.8 886.17,-292.34 816,-305 769.89,-313.32 716.19,-317.04 680.03,-318.7"/>
<polygon fill="midnightblue" stroke="midnightblue" points="1012.6,-256 1020.98,-249.52 1010.38,-249.36 1012.6,-256"/>
</g>
<!-- Node5 -->
<g id="node5" class="node">
<title>Node5</title>
<g id="a_node5"><a xlink:href="class_mx_vector_program.html" target="_top" xlink:title=" ">
<polygon fill="none" stroke="black" points="1145.5,-212.5 1145.5,-231.5 1240.5,-231.5 1240.5,-212.5 1145.5,-212.5"/>
<text text-anchor="middle" x="1193" y="-219.5" font-family="Helvetica,sans-Serif" font-size="10.00">MxVectorProgram</text>
</a>
</g>
</g>
<!-- Node2&#45;&gt;Node5 -->
<g id="edge5" class="edge">
<title>Node2&#45;&gt;Node5</title>
<path fill="none" stroke="midnightblue" d="M1108.22,-232.66C1120.57,-231.09 1133.47,-229.45 1145.34,-227.94"/>
<polygon fill="midnightblue" stroke="midnightblue" points="1107.49,-229.22 1098.01,-233.96 1108.37,-236.17 1107.49,-229.22"/>
</g>
<!-- Node6 -->
<g id="node6" class="node">
<title>Node6</title>
<g id="a_node6"><a xlink:href="class_mx_color_wheel_program.html" target="_top" xlink:title=" ">
<polygon fill="none" stroke="black" points="1135,-256.5 1135,-275.5 1251,-275.5 1251,-256.5 1135,-256.5"/>
<text text-anchor="middle" x="1193" y="-263.5" font-family="Helvetica,sans-Serif" font-size="10.00">MxColorWheelProgram</text>
</a>
</g>
</g>
<!-- Node2&#45;&gt;Node6 -->
<g id="edge7" class="edge">
<title>Node2&#45;&gt;Node6</title>
<path fill="none" stroke="midnightblue" d="M1108,-250.57C1118.59,-252.51 1129.58,-254.53 1139.99,-256.44"/>
<polygon fill="midnightblue" stroke="midnightblue" points="1108.48,-247.09 1098.01,-248.73 1107.21,-253.98 1108.48,-247.09"/>
</g>
<!-- Node3&#45;&gt;Node2 -->
<g id="edge2" class="edge">
<title>Node3&#45;&gt;Node2</title>
<path fill="none" stroke="#9a32cd" stroke-dasharray="5,2" d="M890.24,-199.23C899.08,-204.94 909.67,-211 920,-215 945.86,-225 976.26,-231.15 1000.99,-234.85"/>
<polygon fill="#9a32cd" stroke="#9a32cd" points="892,-196.2 881.75,-193.52 888.09,-202.01 892,-196.2"/>
<text text-anchor="middle" x="951.5" y="-235" font-family="Helvetica,sans-Serif" font-size="10.00"> pRenderer</text>
</g>
<!-- Node16 -->
<g id="node16" class="node">
<title>Node16</title>
<g id="a_node16"><a xlink:href="class_mx_gpu_program.html" target="_top" xlink:title=" ">
<polygon fill="none" stroke="black" points="1007.5,-138.5 1007.5,-157.5 1091.5,-157.5 1091.5,-138.5 1007.5,-138.5"/>
<text text-anchor="middle" x="1049.5" y="-145.5" font-family="Helvetica,sans-Serif" font-size="10.00">MxGpuProgram</text>
</a>
</g>
</g>
<!-- Node3&#45;&gt;Node16 -->
<g id="edge22" class="edge">
<title>Node3&#45;&gt;Node16</title>
<path fill="none" stroke="#9a32cd" stroke-dasharray="5,2" d="M886.09,-167.39C895.33,-159.57 907.41,-151.08 920,-147 948.12,-137.88 981.55,-138.46 1007.27,-141.16"/>
<polygon fill="#9a32cd" stroke="#9a32cd" points="883.57,-164.94 878.47,-174.23 888.25,-170.15 883.57,-164.94"/>
<text text-anchor="middle" x="951.5" y="-150" font-family="Helvetica,sans-Serif" font-size="10.00"> pRenderer</text>
</g>
<!-- Node4 -->
<g id="node4" class="node">
<title>Node4</title>
<g id="a_node4"><a xlink:title=" ">
<polygon fill="none" stroke="#bfbfbf" points="583,-174.5 583,-193.5 692,-193.5 692,-174.5 583,-174.5"/>
<text text-anchor="middle" x="637.5" y="-181.5" font-family="Helvetica,sans-Serif" font-size="10.00">MxOpenGLFunctions</text>
</a>
</g>
</g>
<!-- Node4&#45;&gt;Node3 -->
<g id="edge3" class="edge">
<title>Node4&#45;&gt;Node3</title>
<path fill="none" stroke="midnightblue" d="M702.12,-184C744.89,-184 799.54,-184 833.91,-184"/>
<polygon fill="midnightblue" stroke="midnightblue" points="702.07,-180.5 692.07,-184 702.07,-187.5 702.07,-180.5"/>
</g>
<!-- Node5&#45;&gt;Node3 -->
<g id="edge4" class="edge">
<title>Node5&#45;&gt;Node3</title>
<path fill="none" stroke="#9a32cd" stroke-dasharray="5,2" d="M1135.07,-214.6C1122.84,-213.05 1109.99,-211.45 1098,-210 1028.28,-201.59 946.53,-192.49 902.01,-187.6"/>
<polygon fill="#9a32cd" stroke="#9a32cd" points="1134.8,-218.1 1145.16,-215.89 1135.68,-211.15 1134.8,-218.1"/>
<text text-anchor="middle" x="1049.5" y="-213" font-family="Helvetica,sans-Serif" font-size="10.00"> pVectorProgram</text>
</g>
<!-- Node6&#45;&gt;Node3 -->
<g id="edge6" class="edge">
<title>Node6&#45;&gt;Node3</title>
<path fill="none" stroke="#9a32cd" stroke-dasharray="5,2" d="M1126.22,-276.65C1068.1,-282.68 983.02,-282.97 920,-247 897.76,-234.3 881.36,-207.82 873.74,-193.57"/>
<polygon fill="#9a32cd" stroke="#9a32cd" points="1126.84,-280.1 1136.39,-275.51 1126.06,-273.15 1126.84,-280.1"/>
<text text-anchor="middle" x="1049.5" y="-283" font-family="Helvetica,sans-Serif" font-size="10.00"> pColorWheelEffect</text>
</g>
<!-- Node7 -->
<g id="node7" class="node">
<title>Node7</title>
<g id="a_node7"><a xlink:href="class_mx_abstract_atlas.html" target="_top" xlink:title=" ">
<polygon fill="none" stroke="black" points="593,-136.5 593,-155.5 682,-155.5 682,-136.5 593,-136.5"/>
<text text-anchor="middle" x="637.5" y="-143.5" font-family="Helvetica,sans-Serif" font-size="10.00">MxAbstractAtlas</text>
</a>
</g>
</g>
<!-- Node7&#45;&gt;Node3 -->
<g id="edge8" class="edge">
<title>Node7&#45;&gt;Node3</title>
<path fill="none" stroke="#9a32cd" stroke-dasharray="5,2" d="M692.34,-150.75C727.72,-154.42 774.9,-160.35 816,-169 823.04,-170.48 830.53,-172.45 837.54,-174.48"/>
<polygon fill="#9a32cd" stroke="#9a32cd" points="692.53,-147.25 682.22,-149.73 691.82,-154.22 692.53,-147.25"/>
<text text-anchor="middle" x="780.5" y="-172" font-family="Helvetica,sans-Serif" font-size="10.00"> pIconAtlas</text>
</g>
<!-- Node8 -->
<g id="node8" class="node">
<title>Node8</title>
<g id="a_node8"><a xlink:href="class_mx_texture.html" target="_top" xlink:title=" ">
<polygon fill="none" stroke="black" points="606.5,-98.5 606.5,-117.5 668.5,-117.5 668.5,-98.5 606.5,-98.5"/>
<text text-anchor="middle" x="637.5" y="-105.5" font-family="Helvetica,sans-Serif" font-size="10.00">MxTexture</text>
</a>
</g>
</g>
<!-- Node8&#45;&gt;Node3 -->
<g id="edge9" class="edge">
<title>Node8&#45;&gt;Node3</title>
<path fill="none" stroke="#9a32cd" stroke-dasharray="5,2" d="M679.17,-110.46C716.3,-113.98 771.95,-122.48 816,-143 832.48,-150.67 848.28,-164.77 857.81,-174.27"/>
<polygon fill="#9a32cd" stroke="#9a32cd" points="679.01,-106.94 668.75,-109.56 678.41,-113.91 679.01,-106.94"/>
<text text-anchor="middle" x="780.5" y="-146" font-family="Helvetica,sans-Serif" font-size="10.00"> pTextures</text>
</g>
<!-- Node9 -->
<g id="node9" class="node">
<title>Node9</title>
<g id="a_node9"><a xlink:href="class_mx_list.html" target="_top" xlink:title=" ">
<polygon fill="none" stroke="black" points="579.5,-0.5 579.5,-19.5 695.5,-19.5 695.5,-0.5 579.5,-0.5"/>
<text text-anchor="middle" x="637.5" y="-7.5" font-family="Helvetica,sans-Serif" font-size="10.00">MxList&lt; MxGpuArray &gt;</text>
</a>
</g>
</g>
<!-- Node9&#45;&gt;Node3 -->
<g id="edge10" class="edge">
<title>Node9&#45;&gt;Node3</title>
<path fill="none" stroke="#9a32cd" stroke-dasharray="5,2" d="M705.75,-14C742.52,-19.52 786.46,-32.04 816,-60 850.32,-92.48 862.28,-151.42 865.76,-174.43"/>
<polygon fill="#9a32cd" stroke="#9a32cd" points="705.96,-10.49 695.58,-12.62 705.02,-17.43 705.96,-10.49"/>
<text text-anchor="middle" x="780.5" y="-63" font-family="Helvetica,sans-Serif" font-size="10.00"> pBufferViews</text>
</g>
<!-- Node10 -->
<g id="node10" class="node">
<title>Node10</title>
<g id="a_node10"><a xlink:href="struct_mx_list_1_1_data.html" target="_top" xlink:title="these members are public to allow unions">
<polygon fill="none" stroke="black" points="115,-76 115,-106 222,-106 222,-76 115,-76"/>
<text text-anchor="start" x="123" y="-94" font-family="Helvetica,sans-Serif" font-size="10.00">MxList&lt; T, Initializer,</text>
<text text-anchor="middle" x="168.5" y="-83" font-family="Helvetica,sans-Serif" font-size="10.00"> Prealloc &gt;::Data</text>
</a>
</g>
</g>
<!-- Node10&#45;&gt;Node9 -->
<g id="edge11" class="edge">
<title>Node10&#45;&gt;Node9</title>
<path fill="none" stroke="#9a32cd" stroke-dasharray="5,2" d="M218.96,-72.61C233.91,-67.59 250.48,-62.57 266,-59 375.4,-33.86 506.14,-20.32 579.41,-14.19"/>
<polygon fill="#9a32cd" stroke="#9a32cd" points="217.72,-69.34 209.4,-75.89 219.99,-75.96 217.72,-69.34"/>
<text text-anchor="middle" x="319.5" y="-62" font-family="Helvetica,sans-Serif" font-size="10.00"> d</text>
</g>
<!-- Node12 -->
<g id="node12" class="node">
<title>Node12</title>
<g id="a_node12"><a xlink:href="class_mx_list.html" target="_top" xlink:title=" ">
<polygon fill="none" stroke="black" points="266,-102 266,-132 373,-132 373,-102 266,-102"/>
<text text-anchor="start" x="274" y="-120" font-family="Helvetica,sans-Serif" font-size="10.00">MxList&lt; T, Initializer,</text>
<text text-anchor="middle" x="319.5" y="-109" font-family="Helvetica,sans-Serif" font-size="10.00"> Prealloc &gt;</text>
</a>
</g>
</g>
<!-- Node10&#45;&gt;Node12 -->
<g id="edge14" class="edge">
<title>Node10&#45;&gt;Node12</title>
<path fill="none" stroke="#9a32cd" stroke-dasharray="5,2" d="M232.21,-101.94C243.44,-103.9 255.03,-105.93 265.94,-107.83"/>
<polygon fill="#9a32cd" stroke="#9a32cd" points="232.48,-98.44 222.03,-100.17 231.28,-105.33 232.48,-98.44"/>
<text text-anchor="middle" x="244" y="-107" font-family="Helvetica,sans-Serif" font-size="10.00"> d</text>
</g>
<!-- Node15 -->
<g id="node15" class="node">
<title>Node15</title>
<g id="a_node15"><a xlink:href="class_mx_list.html" target="_top" xlink:title=" ">
<polygon fill="none" stroke="black" points="552,-38.5 552,-79.5 723,-79.5 723,-38.5 552,-38.5"/>
<text text-anchor="start" x="560" y="-67.5" font-family="Helvetica,sans-Serif" font-size="10.00">MxList&lt; MxRenderer</text>
<text text-anchor="start" x="560" y="-56.5" font-family="Helvetica,sans-Serif" font-size="10.00">::ReusableVbo, MxClassInitializer</text>
<text text-anchor="middle" x="637.5" y="-45.5" font-family="Helvetica,sans-Serif" font-size="10.00">&lt; MxRenderer::ReusableVbo &gt;, 32 &gt;</text>
</a>
</g>
</g>
<!-- Node10&#45;&gt;Node15 -->
<g id="edge18" class="edge">
<title>Node10&#45;&gt;Node15</title>
<path fill="none" stroke="#9a32cd" stroke-dasharray="5,2" d="M232.24,-84.21C243.48,-83.08 255.08,-81.96 266,-81 363.89,-72.41 476.63,-66.24 551.79,-62.67"/>
<polygon fill="#9a32cd" stroke="#9a32cd" points="231.65,-80.75 222.06,-85.25 232.36,-87.72 231.65,-80.75"/>
<text text-anchor="middle" x="319.5" y="-84" font-family="Helvetica,sans-Serif" font-size="10.00"> d</text>
</g>
<!-- Node17 -->
<g id="node17" class="node">
<title>Node17</title>
<g id="a_node17"><a xlink:href="class_mx_list.html" target="_top" xlink:title=" ">
<polygon fill="none" stroke="black" points="548,-212.5 548,-253.5 727,-253.5 727,-212.5 548,-212.5"/>
<text text-anchor="start" x="556" y="-241.5" font-family="Helvetica,sans-Serif" font-size="10.00">MxList&lt; MxRenderer</text>
<text text-anchor="start" x="556" y="-230.5" font-family="Helvetica,sans-Serif" font-size="10.00">::ReusableBuffer, MxClassInitializer</text>
<text text-anchor="middle" x="637.5" y="-219.5" font-family="Helvetica,sans-Serif" font-size="10.00">&lt; MxRenderer::ReusableBuffer &gt;, 32 &gt;</text>
</a>
</g>
</g>
<!-- Node10&#45;&gt;Node17 -->
<g id="edge24" class="edge">
<title>Node10&#45;&gt;Node17</title>
<path fill="none" stroke="#9a32cd" stroke-dasharray="5,2" d="M196.7,-112.21C236.68,-142.02 314.84,-195.21 391,-218 441.52,-233.12 500.43,-237.14 547.88,-237.26"/>
<polygon fill="#9a32cd" stroke="#9a32cd" points="198.63,-109.28 188.53,-106.05 194.41,-114.87 198.63,-109.28"/>
<text text-anchor="middle" x="319.5" y="-216" font-family="Helvetica,sans-Serif" font-size="10.00"> d</text>
</g>
<!-- Node11 -->
<g id="node11" class="node">
<title>Node11</title>
<g id="a_node11"><a xlink:href="class_mx_ref_counter.html" target="_top" xlink:title=" ">
<polygon fill="none" stroke="black" points="0,-81.5 0,-100.5 78,-100.5 78,-81.5 0,-81.5"/>
<text text-anchor="middle" x="39" y="-88.5" font-family="Helvetica,sans-Serif" font-size="10.00">MxRefCounter</text>
</a>
</g>
</g>
<!-- Node11&#45;&gt;Node10 -->
<g id="edge12" class="edge">
<title>Node11&#45;&gt;Node10</title>
<path fill="none" stroke="midnightblue" d="M88.46,-91C97.03,-91 105.98,-91 114.66,-91"/>
<polygon fill="midnightblue" stroke="midnightblue" points="88.25,-87.5 78.25,-91 88.25,-94.5 88.25,-87.5"/>
</g>
<!-- Node12&#45;&gt;Node9 -->
<g id="edge13" class="edge">
<title>Node12&#45;&gt;Node9</title>
<path fill="none" stroke="orange" stroke-dasharray="5,2" d="M363.82,-97.89C409.07,-78.48 482.46,-48.58 548,-29 559.9,-25.45 572.88,-22.28 585.14,-19.59"/>
<polygon fill="orange" stroke="orange" points="362.4,-94.69 354.6,-101.86 365.17,-101.11 362.4,-94.69"/>
<text text-anchor="middle" x="460.5" y="-88" font-family="Helvetica,sans-Serif" font-size="10.00"> &lt; MxGpuArray &gt;</text>
</g>
<!-- Node12&#45;&gt;Node15 -->
<g id="edge19" class="edge">
<title>Node12&#45;&gt;Node15</title>
<path fill="none" stroke="orange" stroke-dasharray="5,2" d="M383.36,-122.24C426.07,-123.56 483.11,-120.86 530,-103 539.47,-99.39 539.08,-93.8 548,-89 554.29,-85.62 561.02,-82.51 567.88,-79.68"/>
<polygon fill="orange" stroke="orange" points="383.23,-118.73 373.1,-121.84 382.96,-125.73 383.23,-118.73"/>
<text text-anchor="start" x="391" y="-148" font-family="Helvetica,sans-Serif" font-size="10.00"> &lt; MxRenderer::ReusableVbo,</text>
<text text-anchor="start" x="391" y="-137" font-family="Helvetica,sans-Serif" font-size="10.00"> MxClassInitializer&lt; MxRenderer</text>
<text text-anchor="middle" x="460.5" y="-126" font-family="Helvetica,sans-Serif" font-size="10.00">::ReusableVbo &gt;, 32 &gt;</text>
</g>
<!-- Node12&#45;&gt;Node17 -->
<g id="edge25" class="edge">
<title>Node12&#45;&gt;Node17</title>
<path fill="none" stroke="orange" stroke-dasharray="5,2" d="M349.21,-137.85C361.54,-145.89 376.44,-154.47 391,-160 449.68,-182.28 474.37,-155.92 530,-185 540.03,-190.24 538.39,-197.03 548,-203 553.65,-206.51 559.76,-209.67 566.04,-212.49"/>
<polygon fill="orange" stroke="orange" points="350.98,-134.82 340.73,-132.13 347.07,-140.62 350.98,-134.82"/>
<text text-anchor="start" x="391" y="-210" font-family="Helvetica,sans-Serif" font-size="10.00"> &lt; MxRenderer::ReusableBuffer,</text>
<text text-anchor="start" x="391" y="-199" font-family="Helvetica,sans-Serif" font-size="10.00"> MxClassInitializer&lt; MxRenderer</text>
<text text-anchor="middle" x="460.5" y="-188" font-family="Helvetica,sans-Serif" font-size="10.00">::ReusableBuffer &gt;, 32 &gt;</text>
</g>
<!-- Node13 -->
<g id="node13" class="node">
<title>Node13</title>
<g id="a_node13"><a xlink:href="class_mx_vector.html" target="_top" xlink:title=" ">
<polygon fill="none" stroke="black" points="590,-272.5 590,-291.5 685,-291.5 685,-272.5 590,-272.5"/>
<text text-anchor="middle" x="637.5" y="-279.5" font-family="Helvetica,sans-Serif" font-size="10.00">MxVector&lt; 2, int &gt;</text>
</a>
</g>
</g>
<!-- Node13&#45;&gt;Node3 -->
<g id="edge15" class="edge">
<title>Node13&#45;&gt;Node3</title>
<path fill="none" stroke="#9a32cd" stroke-dasharray="5,2" d="M695.17,-272.25C731.57,-264.23 778.82,-250.45 816,-228 832.02,-218.33 847.93,-203.56 857.62,-193.84"/>
<polygon fill="#9a32cd" stroke="#9a32cd" points="694.27,-268.86 685.21,-274.36 695.72,-275.71 694.27,-268.86"/>
<text text-anchor="middle" x="780.5" y="-262" font-family="Helvetica,sans-Serif" font-size="10.00"> pScreenSize</text>
</g>
<!-- Node14 -->
<g id="node14" class="node">
<title>Node14</title>
<g id="a_node14"><a xlink:href="class_mx_vector.html" target="_top" xlink:title=" ">
<polygon fill="none" stroke="black" points="273,-272.5 273,-291.5 366,-291.5 366,-272.5 273,-272.5"/>
<text text-anchor="middle" x="319.5" y="-279.5" font-family="Helvetica,sans-Serif" font-size="10.00">MxVector&lt; N, T &gt;</text>
</a>
</g>
</g>
<!-- Node14&#45;&gt;Node13 -->
<g id="edge16" class="edge">
<title>Node14&#45;&gt;Node13</title>
<path fill="none" stroke="orange" stroke-dasharray="5,2" d="M376.28,-282C437,-282 533.01,-282 589.87,-282"/>
<polygon fill="orange" stroke="orange" points="376.11,-278.5 366.11,-282 376.11,-285.5 376.11,-278.5"/>
<text text-anchor="middle" x="460.5" y="-285" font-family="Helvetica,sans-Serif" font-size="10.00"> &lt; 2, int &gt;</text>
</g>
<!-- Node15&#45;&gt;Node3 -->
<g id="edge17" class="edge">
<title>Node15&#45;&gt;Node3</title>
<path fill="none" stroke="#9a32cd" stroke-dasharray="5,2" d="M733.07,-70.69C761.66,-77.59 791.84,-88.56 816,-106 840.79,-123.9 856.78,-157.88 863.44,-174.45"/>
<polygon fill="#9a32cd" stroke="#9a32cd" points="733.56,-67.21 723.04,-68.41 732.02,-74.04 733.56,-67.21"/>
<text text-anchor="middle" x="780.5" y="-109" font-family="Helvetica,sans-Serif" font-size="10.00"> pReusableVbos</text>
</g>
<!-- Node16&#45;&gt;Node3 -->
<g id="edge21" class="edge">
<title>Node16&#45;&gt;Node3</title>
<path fill="none" stroke="#9a32cd" stroke-dasharray="5,2" d="M997.42,-158.24C966.91,-164.36 929.03,-171.96 902.34,-177.31"/>
<polygon fill="#9a32cd" stroke="#9a32cd" points="998.34,-161.63 1007.46,-156.23 996.97,-154.77 998.34,-161.63"/>
<text text-anchor="middle" x="951.5" y="-177" font-family="Helvetica,sans-Serif" font-size="10.00"> pCurrProgram</text>
</g>
<!-- Node17&#45;&gt;Node3 -->
<g id="edge23" class="edge">
<title>Node17&#45;&gt;Node3</title>
<path fill="none" stroke="#9a32cd" stroke-dasharray="5,2" d="M737.37,-214.84C763.06,-209.75 790.63,-203.98 816,-198 821.81,-196.63 827.96,-195.06 833.9,-193.47"/>
<polygon fill="#9a32cd" stroke="#9a32cd" points="736.39,-211.46 727.25,-216.82 737.74,-218.33 736.39,-211.46"/>
<text text-anchor="middle" x="780.5" y="-216" font-family="Helvetica,sans-Serif" font-size="10.00"> pReusableMem</text>
</g>
</g>
</svg>
