<?xml version="1.0" encoding="UTF-8" standalone="no"?>
<!DOCTYPE svg PUBLIC "-//W3C//DTD SVG 1.1//EN"
 "http://www.w3.org/Graphics/SVG/1.1/DTD/svg11.dtd">
<!-- Generated by graphviz version 2.44.0 ()
 -->
<!-- Title: src/renderer/opengl/icondraw Pages: 1 -->
<svg width="235pt" height="295pt"
 viewBox="0.00 0.00 235.45 295.00" xmlns="http://www.w3.org/2000/svg" xmlns:xlink="http://www.w3.org/1999/xlink">
<g id="graph0" class="graph" transform="scale(1 1) rotate(0) translate(4 291)">
<title>src/renderer/opengl/icondraw</title>
<g id="clust1" class="cluster">
<title>clusterdir_81ad5397e2f6e7d41ed68488a4d626a2</title>
<g id="a_clust1"><a xlink:href="dir_81ad5397e2f6e7d41ed68488a4d626a2.html" target="_top" xlink:title="opengl">
<polygon fill="#ddddee" stroke="black" points="70.45,-208 70.45,-279 142.45,-279 142.45,-208 70.45,-208"/>
<text text-anchor="middle" x="106.45" y="-267" font-family="Helvetica,sans-Serif" font-size="10.00">opengl</text>
</a>
</g>
</g>
<!-- dir_2ffc10c43e5d75828590a4e89e0dc64f -->
<g id="node1" class="node">
<title>dir_2ffc10c43e5d75828590a4e89e0dc64f</title>
<g id="a_node1"><a xlink:href="dir_2ffc10c43e5d75828590a4e89e0dc64f.html" target="_top" xlink:title="icondraw">
<polygon fill="#eeeeff" stroke="black" points="134.45,-252 78.45,-252 78.45,-216 134.45,-216 134.45,-252"/>
<text text-anchor="middle" x="106.45" y="-231.5" font-family="Helvetica,sans-Serif" font-size="10.00">icondraw</text>
</a>
</g>
</g>
<!-- dir_405fd32de3649961a5f009c7a3fe84df -->
<g id="node2" class="node">
<title>dir_405fd32de3649961a5f009c7a3fe84df</title>
<g id="a_node2"><a xlink:href="dir_405fd32de3649961a5f009c7a3fe84df.html" target="_top" xlink:title="geometry">
<polygon fill="none" stroke="black" points="131.45,-36 75.45,-36 75.45,0 131.45,0 131.45,-36"/>
<text text-anchor="middle" x="103.45" y="-15.5" font-family="Helvetica,sans-Serif" font-size="10.00">geometry</text>
</a>
</g>
</g>
<!-- dir_2ffc10c43e5d75828590a4e89e0dc64f&#45;&gt;dir_405fd32de3649961a5f009c7a3fe84df -->
<g id="edge1" class="edge">
<title>dir_2ffc10c43e5d75828590a4e89e0dc64f&#45;&gt;dir_405fd32de3649961a5f009c7a3fe84df</title>
<path fill="none" stroke="black" d="M78.06,-226.23C54.81,-219.02 23.4,-205.09 8.45,-180 -20.52,-131.4 34.01,-74.34 71.76,-42.87"/>
<polygon fill="black" stroke="black" points="74.44,-45.21 79.99,-36.19 70.02,-39.77 74.44,-45.21"/>
<g id="a_edge1&#45;headlabel"><a xlink:href="dir_000017_000003.html" target="_top" xlink:title="6">
<text text-anchor="middle" x="73.44" y="-47.18" font-family="Helvetica,sans-Serif" font-size="10.00">6</text>
</a>
</g>
</g>
<!-- dir_79769c2014326999657a5fac8224bdec -->
<g id="node3" class="node">
<title>dir_79769c2014326999657a5fac8224bdec</title>
<g id="a_node3"><a xlink:href="dir_79769c2014326999657a5fac8224bdec.html" target="_top" xlink:title="platformabstraction">
<polygon fill="none" stroke="red" points="117.45,-180 17.45,-180 17.45,-144 117.45,-144 117.45,-180"/>
<text text-anchor="middle" x="67.45" y="-159.5" font-family="Helvetica,sans-Serif" font-size="10.00">platformabstraction</text>
</a>
</g>
</g>
<!-- dir_2ffc10c43e5d75828590a4e89e0dc64f&#45;&gt;dir_79769c2014326999657a5fac8224bdec -->
<g id="edge2" class="edge">
<title>dir_2ffc10c43e5d75828590a4e89e0dc64f&#45;&gt;dir_79769c2014326999657a5fac8224bdec</title>
<path fill="none" stroke="black" d="M96.81,-215.7C92.32,-207.64 86.89,-197.89 81.93,-188.98"/>
<polygon fill="black" stroke="black" points="84.9,-187.14 76.98,-180.1 78.79,-190.54 84.9,-187.14"/>
<g id="a_edge2&#45;headlabel"><a xlink:href="dir_000017_000009.html" target="_top" xlink:title="1">
<text text-anchor="middle" x="89.13" y="-186.39" font-family="Helvetica,sans-Serif" font-size="10.00">1</text>
</a>
</g>
</g>
<!-- dir_99d0482cf009f9d97a0877749b817f19 -->
<g id="node4" class="node">
<title>dir_99d0482cf009f9d97a0877749b817f19</title>
<g id="a_node4"><a xlink:href="dir_99d0482cf009f9d97a0877749b817f19.html" target="_top" xlink:title="gui">
<polygon fill="none" stroke="red" points="227.45,-180 173.45,-180 173.45,-144 227.45,-144 227.45,-180"/>
<text text-anchor="middle" x="200.45" y="-159.5" font-family="Helvetica,sans-Serif" font-size="10.00">gui</text>
</a>
</g>
</g>
<!-- dir_2ffc10c43e5d75828590a4e89e0dc64f&#45;&gt;dir_99d0482cf009f9d97a0877749b817f19 -->
<g id="edge3" class="edge">
<title>dir_2ffc10c43e5d75828590a4e89e0dc64f&#45;&gt;dir_99d0482cf009f9d97a0877749b817f19</title>
<path fill="none" stroke="black" d="M123.77,-215.7C135.33,-206.38 150.76,-194.78 164.81,-184.85"/>
<polygon fill="black" stroke="black" points="167.12,-187.5 173.33,-178.91 163.12,-181.76 167.12,-187.5"/>
<g id="a_edge3&#45;headlabel"><a xlink:href="dir_000017_000004.html" target="_top" xlink:title="1">
<text text-anchor="middle" x="165.8" y="-189.38" font-family="Helvetica,sans-Serif" font-size="10.00">1</text>
</a>
</g>
</g>
<!-- dir_b47ddb3a0b86b791c0dd2682d4ed1094 -->
<g id="node5" class="node">
<title>dir_b47ddb3a0b86b791c0dd2682d4ed1094</title>
<g id="a_node5"><a xlink:href="dir_b47ddb3a0b86b791c0dd2682d4ed1094.html" target="_top" xlink:title="iconatlas">
<polygon fill="none" stroke="black" points="164.45,-108 108.45,-108 108.45,-72 164.45,-72 164.45,-108"/>
<text text-anchor="middle" x="136.45" y="-87.5" font-family="Helvetica,sans-Serif" font-size="10.00">iconatlas</text>
</a>
</g>
</g>
<!-- dir_2ffc10c43e5d75828590a4e89e0dc64f&#45;&gt;dir_b47ddb3a0b86b791c0dd2682d4ed1094 -->
<g id="edge4" class="edge">
<title>dir_2ffc10c43e5d75828590a4e89e0dc64f&#45;&gt;dir_b47ddb3a0b86b791c0dd2682d4ed1094</title>
<path fill="none" stroke="black" d="M114.24,-215.68C118.5,-205.49 123.5,-192.24 126.45,-180 131.33,-159.72 133.85,-136.25 135.13,-118.51"/>
<polygon fill="black" stroke="black" points="138.64,-118.48 135.78,-108.28 131.65,-118.04 138.64,-118.48"/>
<g id="a_edge4&#45;headlabel"><a xlink:href="dir_000017_000007.html" target="_top" xlink:title="2">
<text text-anchor="middle" x="141.24" y="-119.75" font-family="Helvetica,sans-Serif" font-size="10.00">2</text>
</a>
</g>
</g>
<!-- dir_79769c2014326999657a5fac8224bdec&#45;&gt;dir_405fd32de3649961a5f009c7a3fe84df -->
<g id="edge9" class="edge">
<title>dir_79769c2014326999657a5fac8224bdec&#45;&gt;dir_405fd32de3649961a5f009c7a3fe84df</title>
<path fill="none" stroke="black" d="M71.79,-143.87C77.96,-119.56 89.3,-74.82 96.6,-46.01"/>
<polygon fill="black" stroke="black" points="100.03,-46.74 99.09,-36.19 93.24,-45.02 100.03,-46.74"/>
<g id="a_edge9&#45;headlabel"><a xlink:href="dir_000009_000003.html" target="_top" xlink:title="1">
<text text-anchor="middle" x="101.9" y="-48.42" font-family="Helvetica,sans-Serif" font-size="10.00">1</text>
</a>
</g>
</g>
<!-- dir_79769c2014326999657a5fac8224bdec&#45;&gt;dir_b47ddb3a0b86b791c0dd2682d4ed1094 -->
<g id="edge10" class="edge">
<title>dir_79769c2014326999657a5fac8224bdec&#45;&gt;dir_b47ddb3a0b86b791c0dd2682d4ed1094</title>
<path fill="none" stroke="black" d="M84.51,-143.7C92.95,-135.14 103.27,-124.66 112.49,-115.3"/>
<polygon fill="black" stroke="black" points="115.06,-117.68 119.59,-108.1 110.08,-112.77 115.06,-117.68"/>
<g id="a_edge10&#45;headlabel"><a xlink:href="dir_000009_000007.html" target="_top" xlink:title="1">
<text text-anchor="middle" x="114.56" y="-119.74" font-family="Helvetica,sans-Serif" font-size="10.00">1</text>
</a>
</g>
</g>
<!-- dir_99d0482cf009f9d97a0877749b817f19&#45;&gt;dir_2ffc10c43e5d75828590a4e89e0dc64f -->
<g id="edge5" class="edge">
<title>dir_99d0482cf009f9d97a0877749b817f19&#45;&gt;dir_2ffc10c43e5d75828590a4e89e0dc64f</title>
<path fill="none" stroke="black" d="M183.26,-180.2C171.93,-189.34 156.84,-200.69 142.99,-210.52"/>
<polygon fill="black" stroke="black" points="140.75,-207.81 134.57,-216.41 144.77,-213.55 140.75,-207.81"/>
<g id="a_edge5&#45;headlabel"><a xlink:href="dir_000004_000017.html" target="_top" xlink:title="1">
<text text-anchor="middle" x="142.07" y="-200.92" font-family="Helvetica,sans-Serif" font-size="10.00">1</text>
</a>
</g>
</g>
<!-- dir_99d0482cf009f9d97a0877749b817f19&#45;&gt;dir_405fd32de3649961a5f009c7a3fe84df -->
<g id="edge6" class="edge">
<title>dir_99d0482cf009f9d97a0877749b817f19&#45;&gt;dir_405fd32de3649961a5f009c7a3fe84df</title>
<path fill="none" stroke="black" d="M198.47,-143.89C195.58,-124.88 188.78,-93.99 173.45,-72 164.75,-59.52 152.2,-48.72 140.12,-40.18"/>
<polygon fill="black" stroke="black" points="141.72,-37.04 131.47,-34.37 137.82,-42.85 141.72,-37.04"/>
<g id="a_edge6&#45;headlabel"><a xlink:href="dir_000004_000003.html" target="_top" xlink:title="10">
<text text-anchor="middle" x="146.29" y="-34.19" font-family="Helvetica,sans-Serif" font-size="10.00">10</text>
</a>
</g>
</g>
<!-- dir_99d0482cf009f9d97a0877749b817f19&#45;&gt;dir_b47ddb3a0b86b791c0dd2682d4ed1094 -->
<g id="edge7" class="edge">
<title>dir_99d0482cf009f9d97a0877749b817f19&#45;&gt;dir_b47ddb3a0b86b791c0dd2682d4ed1094</title>
<path fill="none" stroke="black" d="M184.63,-143.7C176.88,-135.22 167.41,-124.86 158.93,-115.58"/>
<polygon fill="black" stroke="black" points="161.42,-113.12 152.09,-108.1 156.25,-117.85 161.42,-113.12"/>
<g id="a_edge7&#45;headlabel"><a xlink:href="dir_000004_000007.html" target="_top" xlink:title="1">
<text text-anchor="middle" x="165.94" y="-111.36" font-family="Helvetica,sans-Serif" font-size="10.00">1</text>
</a>
</g>
</g>
<!-- dir_b47ddb3a0b86b791c0dd2682d4ed1094&#45;&gt;dir_405fd32de3649961a5f009c7a3fe84df -->
<g id="edge8" class="edge">
<title>dir_b47ddb3a0b86b791c0dd2682d4ed1094&#45;&gt;dir_405fd32de3649961a5f009c7a3fe84df</title>
<path fill="none" stroke="black" d="M128.29,-71.7C124.54,-63.73 120,-54.1 115.83,-45.26"/>
<polygon fill="black" stroke="black" points="118.94,-43.66 111.51,-36.1 112.61,-46.64 118.94,-43.66"/>
<g id="a_edge8&#45;headlabel"><a xlink:href="dir_000007_000003.html" target="_top" xlink:title="2">
<text text-anchor="middle" x="123.04" y="-43.2" font-family="Helvetica,sans-Serif" font-size="10.00">2</text>
</a>
</g>
</g>
</g>
</svg>
