<?xml version="1.0" encoding="UTF-8" standalone="no"?>
<!DOCTYPE svg PUBLIC "-//W3C//DTD SVG 1.1//EN"
 "http://www.w3.org/Graphics/SVG/1.1/DTD/svg11.dtd">
<!-- Generated by graphviz version 2.44.0 ()
 -->
<!-- Title: src/renderer/direct12 Pages: 1 -->
<svg width="411pt" height="303pt"
 viewBox="0.00 0.00 411.00 303.00" xmlns="http://www.w3.org/2000/svg" xmlns:xlink="http://www.w3.org/1999/xlink">
<g id="graph0" class="graph" transform="scale(1 1) rotate(0) translate(4 299)">
<title>src/renderer/direct12</title>
<g id="clust1" class="cluster">
<title>clusterdir_7bc5e25958a2fb25a8561f3aa0def6c5</title>
<g id="a_clust1"><a xlink:href="dir_7bc5e25958a2fb25a8561f3aa0def6c5.html" target="_top" xlink:title="renderer">
<polygon fill="#ddddee" stroke="black" points="8,-200 8,-287 395,-287 395,-200 8,-200"/>
<text text-anchor="middle" x="201.5" y="-275" font-family="Helvetica,sans-Serif" font-size="10.00">renderer</text>
</a>
</g>
</g>
<g id="clust2" class="cluster">
<title>clusterdir_364644b6139970c0d97b3c404935efc4</title>
<g id="a_clust2"><a xlink:href="dir_364644b6139970c0d97b3c404935efc4.html" target="_top">
<polygon fill="#eeeeff" stroke="black" points="16,-208 16,-260 387,-260 387,-208 16,-208"/>
</a>
</g>
</g>
<!-- dir_364644b6139970c0d97b3c404935efc4 -->
<g id="node1" class="node">
<title>dir_364644b6139970c0d97b3c404935efc4</title>
<text text-anchor="middle" x="148" y="-231.5" font-family="Helvetica,sans-Serif" font-size="10.00">direct12</text>
</g>
<!-- dir_0b61c55142250c0cc363383afd8075a4 -->
<g id="node5" class="node">
<title>dir_0b61c55142250c0cc363383afd8075a4</title>
<g id="a_node5"><a xlink:href="dir_0b61c55142250c0cc363383afd8075a4.html" target="_top" xlink:title="containers">
<polygon fill="none" stroke="black" points="214,-36 152,-36 152,0 214,0 214,-36"/>
<text text-anchor="middle" x="183" y="-15.5" font-family="Helvetica,sans-Serif" font-size="10.00">containers</text>
</a>
</g>
</g>
<!-- dir_364644b6139970c0d97b3c404935efc4&#45;&gt;dir_0b61c55142250c0cc363383afd8075a4 -->
<g id="edge5" class="edge">
<title>dir_364644b6139970c0d97b3c404935efc4&#45;&gt;dir_0b61c55142250c0cc363383afd8075a4</title>
<path fill="none" stroke="black" d="M150.27,-215.56C154.2,-185.95 162.73,-124.03 172,-72 173.51,-63.54 175.34,-54.37 177.07,-46.07"/>
<polygon fill="black" stroke="black" points="180.53,-46.65 179.19,-36.14 173.68,-45.19 180.53,-46.65"/>
<g id="a_edge5&#45;headlabel"><a xlink:href="dir_000013_000003.html" target="_top" xlink:title="1">
<text text-anchor="middle" x="182.56" y="-48.25" font-family="Helvetica,sans-Serif" font-size="10.00">1</text>
</a>
</g>
</g>
<!-- dir_405fd32de3649961a5f009c7a3fe84df -->
<g id="node6" class="node">
<title>dir_405fd32de3649961a5f009c7a3fe84df</title>
<g id="a_node6"><a xlink:href="dir_405fd32de3649961a5f009c7a3fe84df.html" target="_top" xlink:title="geometry">
<polygon fill="none" stroke="black" points="296,-36 240,-36 240,0 296,0 296,-36"/>
<text text-anchor="middle" x="268" y="-15.5" font-family="Helvetica,sans-Serif" font-size="10.00">geometry</text>
</a>
</g>
</g>
<!-- dir_364644b6139970c0d97b3c404935efc4&#45;&gt;dir_405fd32de3649961a5f009c7a3fe84df -->
<g id="edge6" class="edge">
<title>dir_364644b6139970c0d97b3c404935efc4&#45;&gt;dir_405fd32de3649961a5f009c7a3fe84df</title>
<path fill="none" stroke="black" d="M156.58,-215.57C161.43,-205.35 167.43,-192.1 172,-180 189.72,-133.04 177.33,-113.87 205,-72 212.4,-60.8 222.85,-50.69 233.11,-42.37"/>
<polygon fill="black" stroke="black" points="235.46,-44.98 241.24,-36.1 231.18,-39.44 235.46,-44.98"/>
<g id="a_edge6&#45;headlabel"><a xlink:href="dir_000013_000005.html" target="_top" xlink:title="3">
<text text-anchor="middle" x="234.35" y="-46.92" font-family="Helvetica,sans-Serif" font-size="10.00">3</text>
</a>
</g>
</g>
<!-- dir_4aa453ea4ee18a50c7624c0c0b15595e -->
<g id="node2" class="node">
<title>dir_4aa453ea4ee18a50c7624c0c0b15595e</title>
<g id="a_node2"><a xlink:href="dir_4aa453ea4ee18a50c7624c0c0b15595e.html" target="_top" xlink:title="colorwheelprogram">
<polygon fill="white" stroke="black" points="291,-252 193,-252 193,-216 291,-216 291,-252"/>
<text text-anchor="middle" x="242" y="-231.5" font-family="Helvetica,sans-Serif" font-size="10.00">colorwheelprogram</text>
</a>
</g>
</g>
<!-- dir_a230e8a0561d993e8a3cb4d80f397538 -->
<g id="node3" class="node">
<title>dir_a230e8a0561d993e8a3cb4d80f397538</title>
<g id="a_node3"><a xlink:href="dir_a230e8a0561d993e8a3cb4d80f397538.html" target="_top" xlink:title="iconprogram">
<polygon fill="white" stroke="red" points="379,-252 309,-252 309,-216 379,-216 379,-252"/>
<text text-anchor="middle" x="344" y="-231.5" font-family="Helvetica,sans-Serif" font-size="10.00">iconprogram</text>
</a>
</g>
</g>
<!-- dir_a230e8a0561d993e8a3cb4d80f397538&#45;&gt;dir_405fd32de3649961a5f009c7a3fe84df -->
<g id="edge8" class="edge">
<title>dir_a230e8a0561d993e8a3cb4d80f397538&#45;&gt;dir_405fd32de3649961a5f009c7a3fe84df</title>
<path fill="none" stroke="black" d="M343.36,-215.91C342.3,-197.73 339.48,-168.29 332,-144 321.47,-109.81 312.36,-103.82 296,-72 291.51,-63.26 286.52,-53.75 282.01,-45.24"/>
<polygon fill="black" stroke="black" points="284.96,-43.33 277.18,-36.13 278.78,-46.61 284.96,-43.33"/>
<g id="a_edge8&#45;headlabel"><a xlink:href="dir_000017_000005.html" target="_top" xlink:title="1">
<text text-anchor="middle" x="289.15" y="-42.67" font-family="Helvetica,sans-Serif" font-size="10.00">1</text>
</a>
</g>
</g>
<!-- dir_14e1e259e8275dc0c459acef3bbf05ae -->
<g id="node7" class="node">
<title>dir_14e1e259e8275dc0c459acef3bbf05ae</title>
<g id="a_node7"><a xlink:href="dir_14e1e259e8275dc0c459acef3bbf05ae.html" target="_top" xlink:title="events">
<polygon fill="none" stroke="black" points="323,-180 269,-180 269,-144 323,-144 323,-180"/>
<text text-anchor="middle" x="296" y="-159.5" font-family="Helvetica,sans-Serif" font-size="10.00">events</text>
</a>
</g>
</g>
<!-- dir_a230e8a0561d993e8a3cb4d80f397538&#45;&gt;dir_14e1e259e8275dc0c459acef3bbf05ae -->
<g id="edge7" class="edge">
<title>dir_a230e8a0561d993e8a3cb4d80f397538&#45;&gt;dir_14e1e259e8275dc0c459acef3bbf05ae</title>
<path fill="none" stroke="black" d="M332.13,-215.7C326.5,-207.47 319.65,-197.48 313.43,-188.42"/>
<polygon fill="black" stroke="black" points="316.27,-186.37 307.73,-180.1 310.5,-190.33 316.27,-186.37"/>
<g id="a_edge7&#45;headlabel"><a xlink:href="dir_000017_000004.html" target="_top" xlink:title="1">
<text text-anchor="middle" x="320.65" y="-185.23" font-family="Helvetica,sans-Serif" font-size="10.00">1</text>
</a>
</g>
</g>
<!-- dir_99d0482cf009f9d97a0877749b817f19 -->
<g id="node8" class="node">
<title>dir_99d0482cf009f9d97a0877749b817f19</title>
<g id="a_node8"><a xlink:href="dir_99d0482cf009f9d97a0877749b817f19.html" target="_top" xlink:title="gui">
<polygon fill="none" stroke="black" points="268,-108 214,-108 214,-72 268,-72 268,-108"/>
<text text-anchor="middle" x="241" y="-87.5" font-family="Helvetica,sans-Serif" font-size="10.00">gui</text>
</a>
</g>
</g>
<!-- dir_a230e8a0561d993e8a3cb4d80f397538&#45;&gt;dir_99d0482cf009f9d97a0877749b817f19 -->
<g id="edge9" class="edge">
<title>dir_a230e8a0561d993e8a3cb4d80f397538&#45;&gt;dir_99d0482cf009f9d97a0877749b817f19</title>
<path fill="none" stroke="black" d="M322.61,-215.75C315.6,-210.42 307.64,-204.72 300,-200 283.09,-189.55 272.17,-195.72 260,-180 246.44,-162.48 242.03,-137.44 240.82,-118.38"/>
<polygon fill="black" stroke="black" points="244.31,-118.09 240.44,-108.23 237.32,-118.35 244.31,-118.09"/>
<g id="a_edge9&#45;headlabel"><a xlink:href="dir_000017_000006.html" target="_top" xlink:title="2">
<text text-anchor="middle" x="247.29" y="-119.07" font-family="Helvetica,sans-Serif" font-size="10.00">2</text>
</a>
</g>
</g>
<!-- dir_94c406849b4990ae06049173dea2e06a -->
<g id="node4" class="node">
<title>dir_94c406849b4990ae06049173dea2e06a</title>
<g id="a_node4"><a xlink:href="dir_94c406849b4990ae06049173dea2e06a.html" target="_top" xlink:title="vectorprogram">
<polygon fill="white" stroke="black" points="102.5,-252 23.5,-252 23.5,-216 102.5,-216 102.5,-252"/>
<text text-anchor="middle" x="63" y="-231.5" font-family="Helvetica,sans-Serif" font-size="10.00">vectorprogram</text>
</a>
</g>
</g>
<!-- dir_14e1e259e8275dc0c459acef3bbf05ae&#45;&gt;dir_405fd32de3649961a5f009c7a3fe84df -->
<g id="edge3" class="edge">
<title>dir_14e1e259e8275dc0c459acef3bbf05ae&#45;&gt;dir_405fd32de3649961a5f009c7a3fe84df</title>
<path fill="none" stroke="black" d="M292.62,-143.87C287.83,-119.56 279.01,-74.82 273.33,-46.01"/>
<polygon fill="black" stroke="black" points="276.76,-45.32 271.39,-36.19 269.89,-46.68 276.76,-45.32"/>
<g id="a_edge3&#45;headlabel"><a xlink:href="dir_000004_000005.html" target="_top" xlink:title="1">
<text text-anchor="middle" x="280.24" y="-45.8" font-family="Helvetica,sans-Serif" font-size="10.00">1</text>
</a>
</g>
</g>
<!-- dir_14e1e259e8275dc0c459acef3bbf05ae&#45;&gt;dir_99d0482cf009f9d97a0877749b817f19 -->
<g id="edge4" class="edge">
<title>dir_14e1e259e8275dc0c459acef3bbf05ae&#45;&gt;dir_99d0482cf009f9d97a0877749b817f19</title>
<path fill="none" stroke="black" d="M282.4,-143.7C275.88,-135.39 267.93,-125.28 260.75,-116.14"/>
<polygon fill="black" stroke="black" points="263.37,-113.81 254.44,-108.1 257.87,-118.13 263.37,-113.81"/>
<g id="a_edge4&#45;headlabel"><a xlink:href="dir_000004_000006.html" target="_top" xlink:title="6">
<text text-anchor="middle" x="267.82" y="-112.38" font-family="Helvetica,sans-Serif" font-size="10.00">6</text>
</a>
</g>
</g>
<!-- dir_99d0482cf009f9d97a0877749b817f19&#45;&gt;dir_0b61c55142250c0cc363383afd8075a4 -->
<g id="edge1" class="edge">
<title>dir_99d0482cf009f9d97a0877749b817f19&#45;&gt;dir_0b61c55142250c0cc363383afd8075a4</title>
<path fill="none" stroke="black" d="M226.66,-71.7C219.71,-63.3 211.23,-53.07 203.6,-43.86"/>
<polygon fill="black" stroke="black" points="206.25,-41.57 197.17,-36.1 200.86,-46.04 206.25,-41.57"/>
<g id="a_edge1&#45;headlabel"><a xlink:href="dir_000006_000003.html" target="_top" xlink:title="3">
<text text-anchor="middle" x="210.73" y="-40.03" font-family="Helvetica,sans-Serif" font-size="10.00">3</text>
</a>
</g>
</g>
<!-- dir_99d0482cf009f9d97a0877749b817f19&#45;&gt;dir_405fd32de3649961a5f009c7a3fe84df -->
<g id="edge2" class="edge">
<title>dir_99d0482cf009f9d97a0877749b817f19&#45;&gt;dir_405fd32de3649961a5f009c7a3fe84df</title>
<path fill="none" stroke="black" d="M247.67,-71.7C250.71,-63.81 254.38,-54.3 257.76,-45.55"/>
<polygon fill="black" stroke="black" points="261.07,-46.69 261.4,-36.1 254.54,-44.17 261.07,-46.69"/>
<g id="a_edge2&#45;headlabel"><a xlink:href="dir_000006_000005.html" target="_top" xlink:title="13">
<text text-anchor="middle" x="262.42" y="-48.57" font-family="Helvetica,sans-Serif" font-size="10.00">13</text>
</a>
</g>
</g>
</g>
</svg>
