<?xml version="1.0" encoding="UTF-8" standalone="no"?>
<!DOCTYPE svg PUBLIC "-//W3C//DTD SVG 1.1//EN"
 "http://www.w3.org/Graphics/SVG/1.1/DTD/svg11.dtd">
<!-- Generated by graphviz version 2.44.0 ()
 -->
<!-- Title: src/gui/colorselector/test_colorwheel Pages: 1 -->
<svg width="136pt" height="151pt"
 viewBox="0.00 0.00 136.00 151.00" xmlns="http://www.w3.org/2000/svg" xmlns:xlink="http://www.w3.org/1999/xlink">
<g id="graph0" class="graph" transform="scale(1 1) rotate(0) translate(4 147)">
<title>src/gui/colorselector/test_colorwheel</title>
<g id="clust1" class="cluster">
<title>clusterdir_666b763223e2e564039666be3a39faff</title>
<g id="a_clust1"><a xlink:href="dir_666b763223e2e564039666be3a39faff.html" target="_top" xlink:title="colorselector">
<polygon fill="#ddddee" stroke="black" points="13,-64 13,-135 115,-135 115,-64 13,-64"/>
<text text-anchor="middle" x="64" y="-123" font-family="Helvetica,sans-Serif" font-size="10.00">colorselector</text>
</a>
</g>
</g>
<!-- dir_163c33fa3f583054c1c8d9b2903f0053 -->
<g id="node1" class="node">
<title>dir_163c33fa3f583054c1c8d9b2903f0053</title>
<g id="a_node1"><a xlink:href="dir_163c33fa3f583054c1c8d9b2903f0053.html" target="_top" xlink:title="test_colorwheel">
<polygon fill="#eeeeff" stroke="black" points="106.5,-108 21.5,-108 21.5,-72 106.5,-72 106.5,-108"/>
<text text-anchor="middle" x="64" y="-87.5" font-family="Helvetica,sans-Serif" font-size="10.00">test_colorwheel</text>
</a>
</g>
</g>
<!-- dir_405fd32de3649961a5f009c7a3fe84df -->
<g id="node2" class="node">
<title>dir_405fd32de3649961a5f009c7a3fe84df</title>
<g id="a_node2"><a xlink:href="dir_405fd32de3649961a5f009c7a3fe84df.html" target="_top" xlink:title="geometry">
<polygon fill="none" stroke="black" points="56,-36 0,-36 0,0 56,0 56,-36"/>
<text text-anchor="middle" x="28" y="-15.5" font-family="Helvetica,sans-Serif" font-size="10.00">geometry</text>
</a>
</g>
</g>
<!-- dir_163c33fa3f583054c1c8d9b2903f0053&#45;&gt;dir_405fd32de3649961a5f009c7a3fe84df -->
<g id="edge1" class="edge">
<title>dir_163c33fa3f583054c1c8d9b2903f0053&#45;&gt;dir_405fd32de3649961a5f009c7a3fe84df</title>
<path fill="none" stroke="black" d="M55.1,-71.7C51,-63.73 46.05,-54.1 41.51,-45.26"/>
<polygon fill="black" stroke="black" points="44.48,-43.4 36.8,-36.1 38.26,-46.6 44.48,-43.4"/>
<g id="a_edge1&#45;headlabel"><a xlink:href="dir_000006_000003.html" target="_top" xlink:title="1">
<text text-anchor="middle" x="48.65" y="-42.79" font-family="Helvetica,sans-Serif" font-size="10.00">1</text>
</a>
</g>
</g>
<!-- dir_55dc9d71d206728a8556f576ce22adae -->
<g id="node3" class="node">
<title>dir_55dc9d71d206728a8556f576ce22adae</title>
<g id="a_node3"><a xlink:href="dir_55dc9d71d206728a8556f576ce22adae.html" target="_top" xlink:title="renderer">
<polygon fill="none" stroke="black" points="128,-36 74,-36 74,0 128,0 128,-36"/>
<text text-anchor="middle" x="101" y="-15.5" font-family="Helvetica,sans-Serif" font-size="10.00">renderer</text>
</a>
</g>
</g>
<!-- dir_163c33fa3f583054c1c8d9b2903f0053&#45;&gt;dir_55dc9d71d206728a8556f576ce22adae -->
<g id="edge2" class="edge">
<title>dir_163c33fa3f583054c1c8d9b2903f0053&#45;&gt;dir_55dc9d71d206728a8556f576ce22adae</title>
<path fill="none" stroke="black" d="M73.15,-71.7C77.4,-63.64 82.56,-53.89 87.27,-44.98"/>
<polygon fill="black" stroke="black" points="90.38,-46.58 91.96,-36.1 84.19,-43.31 90.38,-46.58"/>
<g id="a_edge2&#45;headlabel"><a xlink:href="dir_000006_000010.html" target="_top" xlink:title="1">
<text text-anchor="middle" x="91.21" y="-48.59" font-family="Helvetica,sans-Serif" font-size="10.00">1</text>
</a>
</g>
</g>
</g>
</svg>
