<?xml version="1.0" encoding="UTF-8" standalone="no"?>
<!DOCTYPE svg PUBLIC "-//W3C//DTD SVG 1.1//EN"
 "http://www.w3.org/Graphics/SVG/1.1/DTD/svg11.dtd">
<!-- Generated by graphviz version 2.44.0 ()
 -->
<!-- Title: src Pages: 1 -->
<svg width="326pt" height="508pt"
 viewBox="0.00 0.00 326.00 508.00" xmlns="http://www.w3.org/2000/svg" xmlns:xlink="http://www.w3.org/1999/xlink">
<g id="graph0" class="graph" transform="scale(1 1) rotate(0) translate(4 504)">
<title>src</title>
<g id="clust1" class="cluster">
<title>clusterdir_68267d1309a1af8e8297ef4c3efbcdba</title>
<g id="a_clust1"><a xlink:href="dir_68267d1309a1af8e8297ef4c3efbcdba.html" target="_top">
<polygon fill="#eeeeff" stroke="black" points="8,-8 8,-492 310,-492 310,-8 8,-8"/>
</a>
</g>
</g>
<!-- dir_68267d1309a1af8e8297ef4c3efbcdba -->
<g id="node1" class="node">
<title>dir_68267d1309a1af8e8297ef4c3efbcdba</title>
<text text-anchor="middle" x="250" y="-463.5" font-family="Helvetica,sans-Serif" font-size="10.00">src</text>
</g>
<!-- dir_0b61c55142250c0cc363383afd8075a4 -->
<g id="node2" class="node">
<title>dir_0b61c55142250c0cc363383afd8075a4</title>
<g id="a_node2"><a xlink:href="dir_0b61c55142250c0cc363383afd8075a4.html" target="_top" xlink:title="containers">
<polygon fill="white" stroke="black" points="156,-484 94,-484 94,-448 156,-448 156,-484"/>
<text text-anchor="middle" x="125" y="-463.5" font-family="Helvetica,sans-Serif" font-size="10.00">containers</text>
</a>
</g>
</g>
<!-- dir_79769c2014326999657a5fac8224bdec -->
<g id="node8" class="node">
<title>dir_79769c2014326999657a5fac8224bdec</title>
<g id="a_node8"><a xlink:href="dir_79769c2014326999657a5fac8224bdec.html" target="_top" xlink:title="platformabstraction">
<polygon fill="white" stroke="red" points="150,-412 50,-412 50,-376 150,-376 150,-412"/>
<text text-anchor="middle" x="100" y="-391.5" font-family="Helvetica,sans-Serif" font-size="10.00">platformabstraction</text>
</a>
</g>
</g>
<!-- dir_0b61c55142250c0cc363383afd8075a4&#45;&gt;dir_79769c2014326999657a5fac8224bdec -->
<g id="edge11" class="edge">
<title>dir_0b61c55142250c0cc363383afd8075a4&#45;&gt;dir_79769c2014326999657a5fac8224bdec</title>
<path fill="none" stroke="black" d="M118.82,-447.7C116,-439.81 112.61,-430.3 109.48,-421.55"/>
<polygon fill="black" stroke="black" points="112.77,-420.34 106.11,-412.1 106.18,-422.7 112.77,-420.34"/>
<g id="a_edge11&#45;headlabel"><a xlink:href="dir_000001_000012.html" target="_top" xlink:title="4">
<text text-anchor="middle" x="116.65" y="-420.27" font-family="Helvetica,sans-Serif" font-size="10.00">4</text>
</a>
</g>
</g>
<!-- dir_14e1e259e8275dc0c459acef3bbf05ae -->
<g id="node3" class="node">
<title>dir_14e1e259e8275dc0c459acef3bbf05ae</title>
<g id="a_node3"><a xlink:href="dir_14e1e259e8275dc0c459acef3bbf05ae.html" target="_top" xlink:title="events">
<polygon fill="white" stroke="black" points="130,-340 76,-340 76,-304 130,-304 130,-340"/>
<text text-anchor="middle" x="103" y="-319.5" font-family="Helvetica,sans-Serif" font-size="10.00">events</text>
</a>
</g>
</g>
<!-- dir_405fd32de3649961a5f009c7a3fe84df -->
<g id="node4" class="node">
<title>dir_405fd32de3649961a5f009c7a3fe84df</title>
<g id="a_node4"><a xlink:href="dir_405fd32de3649961a5f009c7a3fe84df.html" target="_top" xlink:title="geometry">
<polygon fill="white" stroke="black" points="151,-52 95,-52 95,-16 151,-16 151,-52"/>
<text text-anchor="middle" x="123" y="-31.5" font-family="Helvetica,sans-Serif" font-size="10.00">geometry</text>
</a>
</g>
</g>
<!-- dir_14e1e259e8275dc0c459acef3bbf05ae&#45;&gt;dir_405fd32de3649961a5f009c7a3fe84df -->
<g id="edge7" class="edge">
<title>dir_14e1e259e8275dc0c459acef3bbf05ae&#45;&gt;dir_405fd32de3649961a5f009c7a3fe84df</title>
<path fill="none" stroke="black" d="M97.7,-303.85C86.45,-264.62 63.11,-165.71 87,-88 90.01,-78.22 95.51,-68.62 101.32,-60.33"/>
<polygon fill="black" stroke="black" points="104.19,-62.33 107.39,-52.23 98.59,-58.13 104.19,-62.33"/>
<g id="a_edge7&#45;headlabel"><a xlink:href="dir_000002_000003.html" target="_top" xlink:title="1">
<text text-anchor="middle" x="104.31" y="-64.41" font-family="Helvetica,sans-Serif" font-size="10.00">1</text>
</a>
</g>
</g>
<!-- dir_99d0482cf009f9d97a0877749b817f19 -->
<g id="node5" class="node">
<title>dir_99d0482cf009f9d97a0877749b817f19</title>
<g id="a_node5"><a xlink:href="dir_99d0482cf009f9d97a0877749b817f19.html" target="_top" xlink:title="gui">
<polygon fill="white" stroke="red" points="191,-268 137,-268 137,-232 191,-232 191,-268"/>
<text text-anchor="middle" x="164" y="-247.5" font-family="Helvetica,sans-Serif" font-size="10.00">gui</text>
</a>
</g>
</g>
<!-- dir_14e1e259e8275dc0c459acef3bbf05ae&#45;&gt;dir_99d0482cf009f9d97a0877749b817f19 -->
<g id="edge10" class="edge">
<title>dir_14e1e259e8275dc0c459acef3bbf05ae&#45;&gt;dir_99d0482cf009f9d97a0877749b817f19</title>
<path fill="none" stroke="black" d="M118.08,-303.7C125.39,-295.3 134.31,-285.07 142.34,-275.86"/>
<polygon fill="black" stroke="black" points="145.16,-277.94 149.09,-268.1 139.89,-273.34 145.16,-277.94"/>
<g id="a_edge10&#45;headlabel"><a xlink:href="dir_000002_000004.html" target="_top" xlink:title="5">
<text text-anchor="middle" x="144.94" y="-280.02" font-family="Helvetica,sans-Serif" font-size="10.00">5</text>
</a>
</g>
</g>
<!-- dir_14e1e259e8275dc0c459acef3bbf05ae&#45;&gt;dir_79769c2014326999657a5fac8224bdec -->
<g id="edge8" class="edge">
<title>dir_14e1e259e8275dc0c459acef3bbf05ae&#45;&gt;dir_79769c2014326999657a5fac8224bdec</title>
<path fill="none" stroke="black" d="M108.16,-340.1C108.64,-347.79 108.48,-357.05 107.78,-365.67"/>
<polygon fill="black" stroke="black" points="104.29,-365.37 106.66,-375.7 111.24,-366.15 104.29,-365.37"/>
<g id="a_edge8&#45;headlabel"><a xlink:href="dir_000002_000012.html" target="_top" xlink:title="3">
<text text-anchor="middle" x="101.86" y="-358.98" font-family="Helvetica,sans-Serif" font-size="10.00">3</text>
</a>
</g>
</g>
<!-- dir_7bc5e25958a2fb25a8561f3aa0def6c5 -->
<g id="node9" class="node">
<title>dir_7bc5e25958a2fb25a8561f3aa0def6c5</title>
<g id="a_node9"><a xlink:href="dir_7bc5e25958a2fb25a8561f3aa0def6c5.html" target="_top" xlink:title="renderer">
<polygon fill="white" stroke="red" points="150,-124 96,-124 96,-88 150,-88 150,-124"/>
<text text-anchor="middle" x="123" y="-103.5" font-family="Helvetica,sans-Serif" font-size="10.00">renderer</text>
</a>
</g>
</g>
<!-- dir_14e1e259e8275dc0c459acef3bbf05ae&#45;&gt;dir_7bc5e25958a2fb25a8561f3aa0def6c5 -->
<g id="edge9" class="edge">
<title>dir_14e1e259e8275dc0c459acef3bbf05ae&#45;&gt;dir_7bc5e25958a2fb25a8561f3aa0def6c5</title>
<path fill="none" stroke="black" d="M104.6,-303.85C108.06,-266.83 116.25,-179.18 120.44,-134.39"/>
<polygon fill="black" stroke="black" points="123.94,-134.51 121.39,-124.23 116.97,-133.86 123.94,-134.51"/>
<g id="a_edge9&#45;headlabel"><a xlink:href="dir_000002_000014.html" target="_top" xlink:title="1">
<text text-anchor="middle" x="126.44" y="-135.86" font-family="Helvetica,sans-Serif" font-size="10.00">1</text>
</a>
</g>
</g>
<!-- dir_405fd32de3649961a5f009c7a3fe84df&#45;&gt;dir_79769c2014326999657a5fac8224bdec -->
<g id="edge6" class="edge">
<title>dir_405fd32de3649961a5f009c7a3fe84df&#45;&gt;dir_79769c2014326999657a5fac8224bdec</title>
<path fill="none" stroke="black" d="M109.77,-52.38C100.75,-61.79 89.84,-74.29 84,-88 46.29,-176.54 72.34,-207.83 69,-304 68.45,-319.99 63.92,-324.83 69,-340 72.32,-349.9 78.29,-359.42 84.23,-367.6"/>
<polygon fill="black" stroke="black" points="81.46,-369.75 90.29,-375.6 87.04,-365.52 81.46,-369.75"/>
<g id="a_edge6&#45;headlabel"><a xlink:href="dir_000003_000012.html" target="_top" xlink:title="3">
<text text-anchor="middle" x="77.03" y="-366.1" font-family="Helvetica,sans-Serif" font-size="10.00">3</text>
</a>
</g>
</g>
<!-- dir_99d0482cf009f9d97a0877749b817f19&#45;&gt;dir_0b61c55142250c0cc363383afd8075a4 -->
<g id="edge1" class="edge">
<title>dir_99d0482cf009f9d97a0877749b817f19&#45;&gt;dir_0b61c55142250c0cc363383afd8075a4</title>
<path fill="none" stroke="black" d="M166.43,-268.42C169.97,-298.5 174.57,-361.79 159,-412 156.05,-421.51 150.9,-430.96 145.48,-439.19"/>
<polygon fill="black" stroke="black" points="142.47,-437.39 139.59,-447.59 148.2,-441.41 142.47,-437.39"/>
<g id="a_edge1&#45;headlabel"><a xlink:href="dir_000004_000001.html" target="_top" xlink:title="2">
<text text-anchor="middle" x="142.21" y="-430.31" font-family="Helvetica,sans-Serif" font-size="10.00">2</text>
</a>
</g>
</g>
<!-- dir_99d0482cf009f9d97a0877749b817f19&#45;&gt;dir_405fd32de3649961a5f009c7a3fe84df -->
<g id="edge2" class="edge">
<title>dir_99d0482cf009f9d97a0877749b817f19&#45;&gt;dir_405fd32de3649961a5f009c7a3fe84df</title>
<path fill="none" stroke="black" d="M166.56,-231.54C170.32,-201.39 175.23,-138.01 159,-88 155.84,-78.26 150.3,-68.68 144.5,-60.39"/>
<polygon fill="black" stroke="black" points="147.23,-58.2 138.45,-52.28 141.62,-62.39 147.23,-58.2"/>
<g id="a_edge2&#45;headlabel"><a xlink:href="dir_000004_000003.html" target="_top" xlink:title="20">
<text text-anchor="middle" x="151.66" y="-56.89" font-family="Helvetica,sans-Serif" font-size="10.00">20</text>
</a>
</g>
</g>
<!-- dir_b47ddb3a0b86b791c0dd2682d4ed1094 -->
<g id="node6" class="node">
<title>dir_b47ddb3a0b86b791c0dd2682d4ed1094</title>
<g id="a_node6"><a xlink:href="dir_b47ddb3a0b86b791c0dd2682d4ed1094.html" target="_top" xlink:title="iconatlas">
<polygon fill="white" stroke="black" points="253,-196 197,-196 197,-160 253,-160 253,-196"/>
<text text-anchor="middle" x="225" y="-175.5" font-family="Helvetica,sans-Serif" font-size="10.00">iconatlas</text>
</a>
</g>
</g>
<!-- dir_99d0482cf009f9d97a0877749b817f19&#45;&gt;dir_b47ddb3a0b86b791c0dd2682d4ed1094 -->
<g id="edge5" class="edge">
<title>dir_99d0482cf009f9d97a0877749b817f19&#45;&gt;dir_b47ddb3a0b86b791c0dd2682d4ed1094</title>
<path fill="none" stroke="black" d="M179.08,-231.7C186.39,-223.3 195.31,-213.07 203.34,-203.86"/>
<polygon fill="black" stroke="black" points="206.16,-205.94 210.09,-196.1 200.89,-201.34 206.16,-205.94"/>
<g id="a_edge5&#45;headlabel"><a xlink:href="dir_000004_000010.html" target="_top" xlink:title="3">
<text text-anchor="middle" x="205.94" y="-208.02" font-family="Helvetica,sans-Serif" font-size="10.00">3</text>
</a>
</g>
</g>
<!-- dir_99d0482cf009f9d97a0877749b817f19&#45;&gt;dir_79769c2014326999657a5fac8224bdec -->
<g id="edge3" class="edge">
<title>dir_99d0482cf009f9d97a0877749b817f19&#45;&gt;dir_79769c2014326999657a5fac8224bdec</title>
<path fill="none" stroke="black" d="M161.11,-268.06C157.56,-286.47 150.55,-316.35 139,-340 134.26,-349.7 127.71,-359.46 121.33,-367.92"/>
<polygon fill="black" stroke="black" points="118.49,-365.86 115.07,-375.89 124,-370.18 118.49,-365.86"/>
<g id="a_edge3&#45;headlabel"><a xlink:href="dir_000004_000012.html" target="_top" xlink:title="8">
<text text-anchor="middle" x="118.48" y="-358.78" font-family="Helvetica,sans-Serif" font-size="10.00">8</text>
</a>
</g>
</g>
<!-- dir_99d0482cf009f9d97a0877749b817f19&#45;&gt;dir_7bc5e25958a2fb25a8561f3aa0def6c5 -->
<g id="edge4" class="edge">
<title>dir_99d0482cf009f9d97a0877749b817f19&#45;&gt;dir_7bc5e25958a2fb25a8561f3aa0def6c5</title>
<path fill="none" stroke="black" d="M154.47,-231.87C144.88,-207.56 131.68,-162.82 125.37,-134.01"/>
<polygon fill="black" stroke="black" points="128.79,-133.29 123.37,-124.19 121.93,-134.69 128.79,-133.29"/>
<g id="a_edge4&#45;headlabel"><a xlink:href="dir_000004_000014.html" target="_top" xlink:title="12">
<text text-anchor="middle" x="132.29" y="-133.75" font-family="Helvetica,sans-Serif" font-size="10.00">12</text>
</a>
</g>
</g>
<!-- dir_b47ddb3a0b86b791c0dd2682d4ed1094&#45;&gt;dir_0b61c55142250c0cc363383afd8075a4 -->
<g id="edge12" class="edge">
<title>dir_b47ddb3a0b86b791c0dd2682d4ed1094&#45;&gt;dir_0b61c55142250c0cc363383afd8075a4</title>
<path fill="none" stroke="black" d="M246.85,-196.01C257.25,-205.42 268.76,-218.02 275,-232 281.8,-247.24 289.04,-323.26 281,-340 257.18,-389.61 203.02,-425.72 165.24,-446.02"/>
<polygon fill="black" stroke="black" points="163.26,-443.11 156.02,-450.84 166.5,-449.31 163.26,-443.11"/>
<g id="a_edge12&#45;headlabel"><a xlink:href="dir_000010_000001.html" target="_top" xlink:title="1">
<text text-anchor="middle" x="165.13" y="-436.42" font-family="Helvetica,sans-Serif" font-size="10.00">1</text>
</a>
</g>
</g>
<!-- dir_b47ddb3a0b86b791c0dd2682d4ed1094&#45;&gt;dir_405fd32de3649961a5f009c7a3fe84df -->
<g id="edge13" class="edge">
<title>dir_b47ddb3a0b86b791c0dd2682d4ed1094&#45;&gt;dir_405fd32de3649961a5f009c7a3fe84df</title>
<path fill="none" stroke="black" d="M216.76,-159.83C207.52,-141.32 191.52,-111.37 174,-88 166.54,-78.04 157.36,-67.99 148.87,-59.35"/>
<polygon fill="black" stroke="black" points="151.19,-56.73 141.63,-52.16 146.26,-61.69 151.19,-56.73"/>
<g id="a_edge13&#45;headlabel"><a xlink:href="dir_000010_000003.html" target="_top" xlink:title="2">
<text text-anchor="middle" x="155.74" y="-54.75" font-family="Helvetica,sans-Serif" font-size="10.00">2</text>
</a>
</g>
</g>
<!-- dir_a6a17ec937b4e07383dde71de6c9d000 -->
<g id="node7" class="node">
<title>dir_a6a17ec937b4e07383dde71de6c9d000</title>
<g id="a_node7"><a xlink:href="dir_a6a17ec937b4e07383dde71de6c9d000.html" target="_top" xlink:title="image">
<polygon fill="white" stroke="black" points="262,-124 208,-124 208,-88 262,-88 262,-124"/>
<text text-anchor="middle" x="235" y="-103.5" font-family="Helvetica,sans-Serif" font-size="10.00">image</text>
</a>
</g>
</g>
<!-- dir_b47ddb3a0b86b791c0dd2682d4ed1094&#45;&gt;dir_a6a17ec937b4e07383dde71de6c9d000 -->
<g id="edge15" class="edge">
<title>dir_b47ddb3a0b86b791c0dd2682d4ed1094&#45;&gt;dir_a6a17ec937b4e07383dde71de6c9d000</title>
<path fill="none" stroke="black" d="M227.47,-159.7C228.57,-151.98 229.9,-142.71 231.13,-134.11"/>
<polygon fill="black" stroke="black" points="234.61,-134.5 232.56,-124.1 227.68,-133.51 234.61,-134.5"/>
<g id="a_edge15&#45;headlabel"><a xlink:href="dir_000010_000011.html" target="_top" xlink:title="1">
<text text-anchor="middle" x="236.91" y="-135.96" font-family="Helvetica,sans-Serif" font-size="10.00">1</text>
</a>
</g>
</g>
<!-- dir_b47ddb3a0b86b791c0dd2682d4ed1094&#45;&gt;dir_7bc5e25958a2fb25a8561f3aa0def6c5 -->
<g id="edge14" class="edge">
<title>dir_b47ddb3a0b86b791c0dd2682d4ed1094&#45;&gt;dir_7bc5e25958a2fb25a8561f3aa0def6c5</title>
<path fill="none" stroke="black" d="M200.05,-159.88C186.96,-150.89 170.74,-139.76 156.56,-130.03"/>
<polygon fill="black" stroke="black" points="158.27,-126.96 148.05,-124.19 154.31,-132.73 158.27,-126.96"/>
<g id="a_edge14&#45;headlabel"><a xlink:href="dir_000010_000014.html" target="_top" xlink:title="1">
<text text-anchor="middle" x="162.84" y="-124.16" font-family="Helvetica,sans-Serif" font-size="10.00">1</text>
</a>
</g>
</g>
<!-- dir_a6a17ec937b4e07383dde71de6c9d000&#45;&gt;dir_405fd32de3649961a5f009c7a3fe84df -->
<g id="edge20" class="edge">
<title>dir_a6a17ec937b4e07383dde71de6c9d000&#45;&gt;dir_405fd32de3649961a5f009c7a3fe84df</title>
<path fill="none" stroke="black" d="M207.89,-88.05C193.14,-78.84 174.71,-67.32 158.79,-57.37"/>
<polygon fill="black" stroke="black" points="160.59,-54.36 150.25,-52.03 156.88,-60.3 160.59,-54.36"/>
<g id="a_edge20&#45;headlabel"><a xlink:href="dir_000011_000003.html" target="_top" xlink:title="1">
<text text-anchor="middle" x="165.14" y="-51.36" font-family="Helvetica,sans-Serif" font-size="10.00">1</text>
</a>
</g>
</g>
<!-- dir_79769c2014326999657a5fac8224bdec&#45;&gt;dir_14e1e259e8275dc0c459acef3bbf05ae -->
<g id="edge17" class="edge">
<title>dir_79769c2014326999657a5fac8224bdec&#45;&gt;dir_14e1e259e8275dc0c459acef3bbf05ae</title>
<path fill="none" stroke="black" d="M94.83,-375.7C94.36,-367.98 94.53,-358.71 95.24,-350.11"/>
<polygon fill="black" stroke="black" points="98.73,-350.43 96.37,-340.1 91.77,-349.65 98.73,-350.43"/>
<g id="a_edge17&#45;headlabel"><a xlink:href="dir_000012_000002.html" target="_top" xlink:title="2">
<text text-anchor="middle" x="101.15" y="-351.82" font-family="Helvetica,sans-Serif" font-size="10.00">2</text>
</a>
</g>
</g>
<!-- dir_79769c2014326999657a5fac8224bdec&#45;&gt;dir_405fd32de3649961a5f009c7a3fe84df -->
<g id="edge16" class="edge">
<title>dir_79769c2014326999657a5fac8224bdec&#45;&gt;dir_405fd32de3649961a5f009c7a3fe84df</title>
<path fill="none" stroke="black" d="M74.24,-375.6C64.76,-366 55.47,-353.34 51,-340 45.92,-324.83 50.45,-319.99 51,-304 54.34,-207.83 28.29,-176.54 66,-88 70.75,-76.85 78.86,-66.49 87.58,-57.95"/>
<polygon fill="black" stroke="black" points="89.93,-60.53 94.98,-51.22 85.23,-55.35 89.93,-60.53"/>
<g id="a_edge16&#45;headlabel"><a xlink:href="dir_000012_000003.html" target="_top" xlink:title="1">
<text text-anchor="middle" x="89.18" y="-62.55" font-family="Helvetica,sans-Serif" font-size="10.00">1</text>
</a>
</g>
</g>
<!-- dir_79769c2014326999657a5fac8224bdec&#45;&gt;dir_b47ddb3a0b86b791c0dd2682d4ed1094 -->
<g id="edge18" class="edge">
<title>dir_79769c2014326999657a5fac8224bdec&#45;&gt;dir_b47ddb3a0b86b791c0dd2682d4ed1094</title>
<path fill="none" stroke="black" d="M150.25,-392.5C190.1,-389.12 243.53,-377.28 271,-340 301.24,-298.97 268.48,-238.62 244.83,-204.66"/>
<polygon fill="black" stroke="black" points="247.44,-202.3 238.76,-196.22 241.76,-206.38 247.44,-202.3"/>
<g id="a_edge18&#45;headlabel"><a xlink:href="dir_000012_000010.html" target="_top" xlink:title="1">
<text text-anchor="middle" x="251.85" y="-201.06" font-family="Helvetica,sans-Serif" font-size="10.00">1</text>
</a>
</g>
</g>
<!-- dir_7bc5e25958a2fb25a8561f3aa0def6c5&#45;&gt;dir_0b61c55142250c0cc363383afd8075a4 -->
<g id="edge21" class="edge">
<title>dir_7bc5e25958a2fb25a8561f3aa0def6c5&#45;&gt;dir_0b61c55142250c0cc363383afd8075a4</title>
<path fill="none" stroke="black" d="M109.88,-124.26C74.91,-172.53 -14.21,-311.89 41,-412 50.48,-429.2 68.16,-441.59 84.86,-450.04"/>
<polygon fill="black" stroke="black" points="83.44,-453.24 93.98,-454.33 86.42,-446.91 83.44,-453.24"/>
<g id="a_edge21&#45;headlabel"><a xlink:href="dir_000014_000001.html" target="_top" xlink:title="1">
<text text-anchor="middle" x="78.98" y="-451.77" font-family="Helvetica,sans-Serif" font-size="10.00">1</text>
</a>
</g>
</g>
<!-- dir_7bc5e25958a2fb25a8561f3aa0def6c5&#45;&gt;dir_99d0482cf009f9d97a0877749b817f19 -->
<g id="edge23" class="edge">
<title>dir_7bc5e25958a2fb25a8561f3aa0def6c5&#45;&gt;dir_99d0482cf009f9d97a0877749b817f19</title>
<path fill="none" stroke="black" d="M132.55,-124.19C142.15,-148.53 155.35,-193.28 161.65,-222.06"/>
<polygon fill="black" stroke="black" points="158.22,-222.77 163.64,-231.87 165.08,-221.38 158.22,-222.77"/>
<g id="a_edge23&#45;headlabel"><a xlink:href="dir_000014_000004.html" target="_top" xlink:title="4">
<text text-anchor="middle" x="154.72" y="-217.31" font-family="Helvetica,sans-Serif" font-size="10.00">4</text>
</a>
</g>
</g>
<!-- dir_7bc5e25958a2fb25a8561f3aa0def6c5&#45;&gt;dir_79769c2014326999657a5fac8224bdec -->
<g id="edge22" class="edge">
<title>dir_7bc5e25958a2fb25a8561f3aa0def6c5&#45;&gt;dir_79769c2014326999657a5fac8224bdec</title>
<path fill="none" stroke="black" d="M116.41,-124.05C103.77,-157.77 76.52,-235.68 67,-304 64.79,-319.85 62.6,-324.62 67,-340 69.71,-349.49 74.67,-358.94 79.93,-367.17"/>
<polygon fill="black" stroke="black" points="77.14,-369.28 85.67,-375.57 82.92,-365.33 77.14,-369.28"/>
<g id="a_edge22&#45;headlabel"><a xlink:href="dir_000014_000012.html" target="_top" xlink:title="9">
<text text-anchor="middle" x="72.77" y="-365.42" font-family="Helvetica,sans-Serif" font-size="10.00">9</text>
</a>
</g>
</g>
<!-- dir_438ce348a9e71dddb6f75afbfd0ac1ff -->
<g id="node10" class="node">
<title>dir_438ce348a9e71dddb6f75afbfd0ac1ff</title>
<g id="a_node10"><a xlink:href="dir_438ce348a9e71dddb6f75afbfd0ac1ff.html" target="_top" xlink:title="svg&#45;drawings">
<polygon fill="white" stroke="black" points="262,-340 188,-340 188,-304 262,-304 262,-340"/>
<text text-anchor="middle" x="225" y="-319.5" font-family="Helvetica,sans-Serif" font-size="10.00">svg&#45;drawings</text>
</a>
</g>
</g>
<!-- dir_438ce348a9e71dddb6f75afbfd0ac1ff&#45;&gt;dir_99d0482cf009f9d97a0877749b817f19 -->
<g id="edge19" class="edge">
<title>dir_438ce348a9e71dddb6f75afbfd0ac1ff&#45;&gt;dir_99d0482cf009f9d97a0877749b817f19</title>
<path fill="none" stroke="black" d="M209.92,-303.7C202.61,-295.3 193.69,-285.07 185.66,-275.86"/>
<polygon fill="black" stroke="black" points="188.11,-273.34 178.91,-268.1 182.84,-277.94 188.11,-273.34"/>
<g id="a_edge19&#45;headlabel"><a xlink:href="dir_000016_000004.html" target="_top" xlink:title="5">
<text text-anchor="middle" x="192.62" y="-271.69" font-family="Helvetica,sans-Serif" font-size="10.00">5</text>
</a>
</g>
</g>
</g>
</svg>
