<?xml version="1.0" encoding="UTF-8" standalone="no"?>
<!DOCTYPE svg PUBLIC "-//W3C//DTD SVG 1.1//EN"
 "http://www.w3.org/Graphics/SVG/1.1/DTD/svg11.dtd">
<!-- Generated by graphviz version 2.44.0 ()
 -->
<!-- Title: src Pages: 1 -->
<svg width="286pt" height="508pt"
 viewBox="0.00 0.00 286.00 508.00" xmlns="http://www.w3.org/2000/svg" xmlns:xlink="http://www.w3.org/1999/xlink">
<g id="graph0" class="graph" transform="scale(1 1) rotate(0) translate(4 504)">
<title>src</title>
<g id="clust1" class="cluster">
<title>clusterdir_68267d1309a1af8e8297ef4c3efbcdba</title>
<g id="a_clust1"><a xlink:href="dir_68267d1309a1af8e8297ef4c3efbcdba.html" target="_top">
<polygon fill="#eeeeff" stroke="black" points="8,-8 8,-492 270,-492 270,-8 8,-8"/>
</a>
</g>
</g>
<!-- dir_68267d1309a1af8e8297ef4c3efbcdba -->
<g id="node1" class="node">
<title>dir_68267d1309a1af8e8297ef4c3efbcdba</title>
<text text-anchor="middle" x="223" y="-463.5" font-family="Helvetica,sans-Serif" font-size="10.00">src</text>
</g>
<!-- dir_0b61c55142250c0cc363383afd8075a4 -->
<g id="node2" class="node">
<title>dir_0b61c55142250c0cc363383afd8075a4</title>
<g id="a_node2"><a xlink:href="dir_0b61c55142250c0cc363383afd8075a4.html" target="_top" xlink:title="containers">
<polygon fill="white" stroke="black" points="166,-484 104,-484 104,-448 166,-448 166,-484"/>
<text text-anchor="middle" x="135" y="-463.5" font-family="Helvetica,sans-Serif" font-size="10.00">containers</text>
</a>
</g>
</g>
<!-- dir_79769c2014326999657a5fac8224bdec -->
<g id="node8" class="node">
<title>dir_79769c2014326999657a5fac8224bdec</title>
<g id="a_node8"><a xlink:href="dir_79769c2014326999657a5fac8224bdec.html" target="_top" xlink:title="platformabstraction">
<polygon fill="white" stroke="red" points="116,-412 16,-412 16,-376 116,-376 116,-412"/>
<text text-anchor="middle" x="66" y="-391.5" font-family="Helvetica,sans-Serif" font-size="10.00">platformabstraction</text>
</a>
</g>
</g>
<!-- dir_0b61c55142250c0cc363383afd8075a4&#45;&gt;dir_79769c2014326999657a5fac8224bdec -->
<g id="edge9" class="edge">
<title>dir_0b61c55142250c0cc363383afd8075a4&#45;&gt;dir_79769c2014326999657a5fac8224bdec</title>
<path fill="none" stroke="black" d="M117.94,-447.7C109.5,-439.14 99.18,-428.66 89.96,-419.3"/>
<polygon fill="black" stroke="black" points="92.37,-416.77 82.86,-412.1 87.39,-421.68 92.37,-416.77"/>
<g id="a_edge9&#45;headlabel"><a xlink:href="dir_000001_000013.html" target="_top" xlink:title="4">
<text text-anchor="middle" x="96.92" y="-414.84" font-family="Helvetica,sans-Serif" font-size="10.00">4</text>
</a>
</g>
</g>
<!-- dir_14e1e259e8275dc0c459acef3bbf05ae -->
<g id="node3" class="node">
<title>dir_14e1e259e8275dc0c459acef3bbf05ae</title>
<g id="a_node3"><a xlink:href="dir_14e1e259e8275dc0c459acef3bbf05ae.html" target="_top" xlink:title="events">
<polygon fill="white" stroke="black" points="90,-340 36,-340 36,-304 90,-304 90,-340"/>
<text text-anchor="middle" x="63" y="-319.5" font-family="Helvetica,sans-Serif" font-size="10.00">events</text>
</a>
</g>
</g>
<!-- dir_405fd32de3649961a5f009c7a3fe84df -->
<g id="node4" class="node">
<title>dir_405fd32de3649961a5f009c7a3fe84df</title>
<g id="a_node4"><a xlink:href="dir_405fd32de3649961a5f009c7a3fe84df.html" target="_top" xlink:title="geometry">
<polygon fill="white" stroke="black" points="81,-52 25,-52 25,-16 81,-16 81,-52"/>
<text text-anchor="middle" x="53" y="-31.5" font-family="Helvetica,sans-Serif" font-size="10.00">geometry</text>
</a>
</g>
</g>
<!-- dir_14e1e259e8275dc0c459acef3bbf05ae&#45;&gt;dir_405fd32de3649961a5f009c7a3fe84df -->
<g id="edge6" class="edge">
<title>dir_14e1e259e8275dc0c459acef3bbf05ae&#45;&gt;dir_405fd32de3649961a5f009c7a3fe84df</title>
<path fill="none" stroke="black" d="M62.4,-303.97C60.74,-256.29 56.01,-121.18 53.97,-62.63"/>
<polygon fill="black" stroke="black" points="57.45,-62.18 53.61,-52.31 50.46,-62.42 57.45,-62.18"/>
<g id="a_edge6&#45;headlabel"><a xlink:href="dir_000002_000003.html" target="_top" xlink:title="1">
<text text-anchor="middle" x="60.42" y="-63.17" font-family="Helvetica,sans-Serif" font-size="10.00">1</text>
</a>
</g>
</g>
<!-- dir_99d0482cf009f9d97a0877749b817f19 -->
<g id="node5" class="node">
<title>dir_99d0482cf009f9d97a0877749b817f19</title>
<g id="a_node5"><a xlink:href="dir_99d0482cf009f9d97a0877749b817f19.html" target="_top" xlink:title="gui">
<polygon fill="white" stroke="red" points="156,-268 102,-268 102,-232 156,-232 156,-268"/>
<text text-anchor="middle" x="129" y="-247.5" font-family="Helvetica,sans-Serif" font-size="10.00">gui</text>
</a>
</g>
</g>
<!-- dir_14e1e259e8275dc0c459acef3bbf05ae&#45;&gt;dir_99d0482cf009f9d97a0877749b817f19 -->
<g id="edge8" class="edge">
<title>dir_14e1e259e8275dc0c459acef3bbf05ae&#45;&gt;dir_99d0482cf009f9d97a0877749b817f19</title>
<path fill="none" stroke="black" d="M79.31,-303.7C87.31,-295.22 97.07,-284.86 105.82,-275.58"/>
<polygon fill="black" stroke="black" points="108.56,-277.78 112.87,-268.1 103.47,-272.98 108.56,-277.78"/>
<g id="a_edge8&#45;headlabel"><a xlink:href="dir_000002_000004.html" target="_top" xlink:title="6">
<text text-anchor="middle" x="108.16" y="-279.84" font-family="Helvetica,sans-Serif" font-size="10.00">6</text>
</a>
</g>
</g>
<!-- dir_14e1e259e8275dc0c459acef3bbf05ae&#45;&gt;dir_79769c2014326999657a5fac8224bdec -->
<g id="edge7" class="edge">
<title>dir_14e1e259e8275dc0c459acef3bbf05ae&#45;&gt;dir_79769c2014326999657a5fac8224bdec</title>
<path fill="none" stroke="black" d="M69.63,-340.1C70.76,-347.79 71.4,-357.05 71.43,-365.67"/>
<polygon fill="black" stroke="black" points="67.93,-365.61 71.17,-375.7 74.93,-365.79 67.93,-365.61"/>
<g id="a_edge7&#45;headlabel"><a xlink:href="dir_000002_000013.html" target="_top" xlink:title="3">
<text text-anchor="middle" x="65.19" y="-359.44" font-family="Helvetica,sans-Serif" font-size="10.00">3</text>
</a>
</g>
</g>
<!-- dir_405fd32de3649961a5f009c7a3fe84df&#45;&gt;dir_79769c2014326999657a5fac8224bdec -->
<g id="edge5" class="edge">
<title>dir_405fd32de3649961a5f009c7a3fe84df&#45;&gt;dir_79769c2014326999657a5fac8224bdec</title>
<path fill="none" stroke="black" d="M51.48,-52.13C44.2,-78.47 26,-130.71 26,-177 26,-251 26,-251 26,-251 26,-290.8 21.49,-302.93 36,-340 39.83,-349.79 45.95,-359.39 51.8,-367.67"/>
<polygon fill="black" stroke="black" points="48.97,-369.74 57.68,-375.78 54.64,-365.63 48.97,-369.74"/>
<g id="a_edge5&#45;headlabel"><a xlink:href="dir_000003_000013.html" target="_top" xlink:title="3">
<text text-anchor="middle" x="44.56" y="-366" font-family="Helvetica,sans-Serif" font-size="10.00">3</text>
</a>
</g>
</g>
<!-- dir_99d0482cf009f9d97a0877749b817f19&#45;&gt;dir_0b61c55142250c0cc363383afd8075a4 -->
<g id="edge1" class="edge">
<title>dir_99d0482cf009f9d97a0877749b817f19&#45;&gt;dir_0b61c55142250c0cc363383afd8075a4</title>
<path fill="none" stroke="black" d="M129.48,-268.23C130.52,-305.32 132.98,-392.98 134.23,-437.71"/>
<polygon fill="black" stroke="black" points="130.74,-437.95 134.52,-447.85 137.74,-437.76 130.74,-437.95"/>
<g id="a_edge1&#45;headlabel"><a xlink:href="dir_000004_000001.html" target="_top" xlink:title="3">
<text text-anchor="middle" x="127.8" y="-431.94" font-family="Helvetica,sans-Serif" font-size="10.00">3</text>
</a>
</g>
</g>
<!-- dir_99d0482cf009f9d97a0877749b817f19&#45;&gt;dir_405fd32de3649961a5f009c7a3fe84df -->
<g id="edge2" class="edge">
<title>dir_99d0482cf009f9d97a0877749b817f19&#45;&gt;dir_405fd32de3649961a5f009c7a3fe84df</title>
<path fill="none" stroke="black" d="M114.56,-231.85C106.87,-221.93 97.81,-208.89 92,-196 71.93,-151.48 61.33,-95.19 56.46,-62.32"/>
<polygon fill="black" stroke="black" points="59.88,-61.54 55.03,-52.13 52.95,-62.52 59.88,-61.54"/>
<g id="a_edge2&#45;headlabel"><a xlink:href="dir_000004_000003.html" target="_top" xlink:title="20">
<text text-anchor="middle" x="63.2" y="-62.21" font-family="Helvetica,sans-Serif" font-size="10.00">20</text>
</a>
</g>
</g>
<!-- dir_b47ddb3a0b86b791c0dd2682d4ed1094 -->
<g id="node6" class="node">
<title>dir_b47ddb3a0b86b791c0dd2682d4ed1094</title>
<g id="a_node6"><a xlink:href="dir_b47ddb3a0b86b791c0dd2682d4ed1094.html" target="_top" xlink:title="iconatlas">
<polygon fill="white" stroke="black" points="157,-196 101,-196 101,-160 157,-160 157,-196"/>
<text text-anchor="middle" x="129" y="-175.5" font-family="Helvetica,sans-Serif" font-size="10.00">iconatlas</text>
</a>
</g>
</g>
<!-- dir_99d0482cf009f9d97a0877749b817f19&#45;&gt;dir_b47ddb3a0b86b791c0dd2682d4ed1094 -->
<g id="edge4" class="edge">
<title>dir_99d0482cf009f9d97a0877749b817f19&#45;&gt;dir_b47ddb3a0b86b791c0dd2682d4ed1094</title>
<path fill="none" stroke="black" d="M123.08,-231.7C122.29,-223.98 122.06,-214.71 122.4,-206.11"/>
<polygon fill="black" stroke="black" points="125.9,-206.32 123.1,-196.1 118.92,-205.84 125.9,-206.32"/>
<g id="a_edge4&#45;headlabel"><a xlink:href="dir_000004_000011.html" target="_top" xlink:title="3">
<text text-anchor="middle" x="128.48" y="-207.61" font-family="Helvetica,sans-Serif" font-size="10.00">3</text>
</a>
</g>
</g>
<!-- dir_99d0482cf009f9d97a0877749b817f19&#45;&gt;dir_79769c2014326999657a5fac8224bdec -->
<g id="edge3" class="edge">
<title>dir_99d0482cf009f9d97a0877749b817f19&#45;&gt;dir_79769c2014326999657a5fac8224bdec</title>
<path fill="none" stroke="black" d="M124.49,-268.19C119.41,-286.46 110.34,-315.96 99,-340 94.6,-349.31 88.93,-359.01 83.52,-367.53"/>
<polygon fill="black" stroke="black" points="80.59,-365.62 78.06,-375.91 86.45,-369.45 80.59,-365.62"/>
<g id="a_edge3&#45;headlabel"><a xlink:href="dir_000004_000013.html" target="_top" xlink:title="17">
<text text-anchor="middle" x="80.17" y="-358.56" font-family="Helvetica,sans-Serif" font-size="10.00">17</text>
</a>
</g>
</g>
<!-- dir_b47ddb3a0b86b791c0dd2682d4ed1094&#45;&gt;dir_0b61c55142250c0cc363383afd8075a4 -->
<g id="edge10" class="edge">
<title>dir_b47ddb3a0b86b791c0dd2682d4ed1094&#45;&gt;dir_0b61c55142250c0cc363383afd8075a4</title>
<path fill="none" stroke="black" d="M157.22,-189.78C176.54,-198.49 201.39,-212.51 217,-232 238.08,-258.33 235.6,-270.7 241,-304 243.56,-319.79 246.51,-324.98 241,-340 225.81,-381.4 190.17,-418.48 164.4,-441.3"/>
<polygon fill="black" stroke="black" points="162.03,-438.73 156.75,-447.92 166.61,-444.02 162.03,-438.73"/>
<g id="a_edge10&#45;headlabel"><a xlink:href="dir_000011_000001.html" target="_top" xlink:title="1">
<text text-anchor="middle" x="162.89" y="-431.73" font-family="Helvetica,sans-Serif" font-size="10.00">1</text>
</a>
</g>
</g>
<!-- dir_b47ddb3a0b86b791c0dd2682d4ed1094&#45;&gt;dir_405fd32de3649961a5f009c7a3fe84df -->
<g id="edge11" class="edge">
<title>dir_b47ddb3a0b86b791c0dd2682d4ed1094&#45;&gt;dir_405fd32de3649961a5f009c7a3fe84df</title>
<path fill="none" stroke="black" d="M118.68,-159.97C112.52,-149.65 104.63,-136.17 98,-124 86.68,-103.22 74.62,-79.25 65.84,-61.43"/>
<polygon fill="black" stroke="black" points="68.87,-59.66 61.32,-52.22 62.58,-62.74 68.87,-59.66"/>
<g id="a_edge11&#45;headlabel"><a xlink:href="dir_000011_000003.html" target="_top" xlink:title="2">
<text text-anchor="middle" x="73" y="-59.14" font-family="Helvetica,sans-Serif" font-size="10.00">2</text>
</a>
</g>
</g>
<!-- dir_b47ddb3a0b86b791c0dd2682d4ed1094&#45;&gt;dir_99d0482cf009f9d97a0877749b817f19 -->
<g id="edge12" class="edge">
<title>dir_b47ddb3a0b86b791c0dd2682d4ed1094&#45;&gt;dir_99d0482cf009f9d97a0877749b817f19</title>
<path fill="none" stroke="black" d="M134.9,-196.1C135.7,-203.79 135.94,-213.05 135.6,-221.67"/>
<polygon fill="black" stroke="black" points="132.11,-221.48 134.92,-231.7 139.09,-221.96 132.11,-221.48"/>
<g id="a_edge12&#45;headlabel"><a xlink:href="dir_000011_000004.html" target="_top" xlink:title="1">
<text text-anchor="middle" x="129.52" y="-215.2" font-family="Helvetica,sans-Serif" font-size="10.00">1</text>
</a>
</g>
</g>
<!-- dir_a6a17ec937b4e07383dde71de6c9d000 -->
<g id="node7" class="node">
<title>dir_a6a17ec937b4e07383dde71de6c9d000</title>
<g id="a_node7"><a xlink:href="dir_a6a17ec937b4e07383dde71de6c9d000.html" target="_top" xlink:title="image">
<polygon fill="white" stroke="black" points="161,-124 107,-124 107,-88 161,-88 161,-124"/>
<text text-anchor="middle" x="134" y="-103.5" font-family="Helvetica,sans-Serif" font-size="10.00">image</text>
</a>
</g>
</g>
<!-- dir_b47ddb3a0b86b791c0dd2682d4ed1094&#45;&gt;dir_a6a17ec937b4e07383dde71de6c9d000 -->
<g id="edge13" class="edge">
<title>dir_b47ddb3a0b86b791c0dd2682d4ed1094&#45;&gt;dir_a6a17ec937b4e07383dde71de6c9d000</title>
<path fill="none" stroke="black" d="M130.24,-159.7C130.79,-151.98 131.45,-142.71 132.06,-134.11"/>
<polygon fill="black" stroke="black" points="135.56,-134.33 132.78,-124.1 128.57,-133.83 135.56,-134.33"/>
<g id="a_edge13&#45;headlabel"><a xlink:href="dir_000011_000012.html" target="_top" xlink:title="1">
<text text-anchor="middle" x="138.13" y="-135.62" font-family="Helvetica,sans-Serif" font-size="10.00">1</text>
</a>
</g>
</g>
<!-- dir_a6a17ec937b4e07383dde71de6c9d000&#45;&gt;dir_405fd32de3649961a5f009c7a3fe84df -->
<g id="edge18" class="edge">
<title>dir_a6a17ec937b4e07383dde71de6c9d000&#45;&gt;dir_405fd32de3649961a5f009c7a3fe84df</title>
<path fill="none" stroke="black" d="M113.98,-87.7C103.87,-78.97 91.46,-68.24 80.48,-58.75"/>
<polygon fill="black" stroke="black" points="82.65,-55.99 72.79,-52.1 78.07,-61.29 82.65,-55.99"/>
<g id="a_edge18&#45;headlabel"><a xlink:href="dir_000012_000003.html" target="_top" xlink:title="1">
<text text-anchor="middle" x="87.22" y="-53.7" font-family="Helvetica,sans-Serif" font-size="10.00">1</text>
</a>
</g>
</g>
<!-- dir_79769c2014326999657a5fac8224bdec&#45;&gt;dir_14e1e259e8275dc0c459acef3bbf05ae -->
<g id="edge15" class="edge">
<title>dir_79769c2014326999657a5fac8224bdec&#45;&gt;dir_14e1e259e8275dc0c459acef3bbf05ae</title>
<path fill="none" stroke="black" d="M59.34,-375.7C58.22,-367.98 57.59,-358.71 57.57,-350.11"/>
<polygon fill="black" stroke="black" points="61.07,-350.2 57.84,-340.1 54.07,-350.01 61.07,-350.2"/>
<g id="a_edge15&#45;headlabel"><a xlink:href="dir_000013_000002.html" target="_top" xlink:title="2">
<text text-anchor="middle" x="63.81" y="-351.37" font-family="Helvetica,sans-Serif" font-size="10.00">2</text>
</a>
</g>
</g>
<!-- dir_79769c2014326999657a5fac8224bdec&#45;&gt;dir_405fd32de3649961a5f009c7a3fe84df -->
<g id="edge14" class="edge">
<title>dir_79769c2014326999657a5fac8224bdec&#45;&gt;dir_405fd32de3649961a5f009c7a3fe84df</title>
<path fill="none" stroke="black" d="M41.73,-375.78C32.48,-366.04 23.16,-353.19 18,-340 3.49,-302.93 8,-290.8 8,-251 8,-251 8,-251 8,-177 8,-135.59 22.56,-89.42 35.48,-61.29"/>
<polygon fill="black" stroke="black" points="38.71,-62.65 39.95,-52.13 32.42,-59.58 38.71,-62.65"/>
<g id="a_edge14&#45;headlabel"><a xlink:href="dir_000013_000003.html" target="_top" xlink:title="1">
<text text-anchor="middle" x="39.68" y="-64.63" font-family="Helvetica,sans-Serif" font-size="10.00">1</text>
</a>
</g>
</g>
<!-- dir_79769c2014326999657a5fac8224bdec&#45;&gt;dir_b47ddb3a0b86b791c0dd2682d4ed1094 -->
<g id="edge16" class="edge">
<title>dir_79769c2014326999657a5fac8224bdec&#45;&gt;dir_b47ddb3a0b86b791c0dd2682d4ed1094</title>
<path fill="none" stroke="black" d="M116.09,-391.79C154.41,-387.91 204.94,-375.74 231,-340 265.45,-292.75 203.73,-234.01 162.2,-202.17"/>
<polygon fill="black" stroke="black" points="164.3,-199.36 154.2,-196.17 160.1,-204.96 164.3,-199.36"/>
<g id="a_edge16&#45;headlabel"><a xlink:href="dir_000013_000011.html" target="_top" xlink:title="1">
<text text-anchor="middle" x="168.88" y="-196.75" font-family="Helvetica,sans-Serif" font-size="10.00">1</text>
</a>
</g>
</g>
<!-- dir_438ce348a9e71dddb6f75afbfd0ac1ff -->
<g id="node9" class="node">
<title>dir_438ce348a9e71dddb6f75afbfd0ac1ff</title>
<g id="a_node9"><a xlink:href="dir_438ce348a9e71dddb6f75afbfd0ac1ff.html" target="_top" xlink:title="svg&#45;drawings">
<polygon fill="white" stroke="black" points="222,-340 148,-340 148,-304 222,-304 222,-340"/>
<text text-anchor="middle" x="185" y="-319.5" font-family="Helvetica,sans-Serif" font-size="10.00">svg&#45;drawings</text>
</a>
</g>
</g>
<!-- dir_438ce348a9e71dddb6f75afbfd0ac1ff&#45;&gt;dir_99d0482cf009f9d97a0877749b817f19 -->
<g id="edge17" class="edge">
<title>dir_438ce348a9e71dddb6f75afbfd0ac1ff&#45;&gt;dir_99d0482cf009f9d97a0877749b817f19</title>
<path fill="none" stroke="black" d="M171.16,-303.7C164.51,-295.39 156.42,-285.28 149.11,-276.14"/>
<polygon fill="black" stroke="black" points="151.66,-273.73 142.68,-268.1 146.2,-278.1 151.66,-273.73"/>
<g id="a_edge17&#45;headlabel"><a xlink:href="dir_000015_000004.html" target="_top" xlink:title="5">
<text text-anchor="middle" x="156.13" y="-272.26" font-family="Helvetica,sans-Serif" font-size="10.00">5</text>
</a>
</g>
</g>
</g>
</svg>
