<?xml version="1.0" encoding="UTF-8" standalone="no"?>
<!DOCTYPE svg PUBLIC "-//W3C//DTD SVG 1.1//EN"
 "http://www.w3.org/Graphics/SVG/1.1/DTD/svg11.dtd">
<!-- Generated by graphviz version 2.44.0 ()
 -->
<!-- Title: src/events Pages: 1 -->
<svg width="156pt" height="383pt"
 viewBox="0.00 0.00 156.00 383.00" xmlns="http://www.w3.org/2000/svg" xmlns:xlink="http://www.w3.org/1999/xlink">
<g id="graph0" class="graph" transform="scale(1 1) rotate(0) translate(4 379)">
<title>src/events</title>
<g id="clust1" class="cluster">
<title>clusterdir_68267d1309a1af8e8297ef4c3efbcdba</title>
<g id="a_clust1"><a xlink:href="dir_68267d1309a1af8e8297ef4c3efbcdba.html" target="_top" xlink:title="src">
<polygon fill="#ddddee" stroke="black" points="8,-8 8,-367 140,-367 140,-8 8,-8"/>
<text text-anchor="middle" x="74" y="-355" font-family="Helvetica,sans-Serif" font-size="10.00">src</text>
</a>
</g>
</g>
<!-- dir_405fd32de3649961a5f009c7a3fe84df -->
<g id="node1" class="node">
<title>dir_405fd32de3649961a5f009c7a3fe84df</title>
<g id="a_node1"><a xlink:href="dir_405fd32de3649961a5f009c7a3fe84df.html" target="_top" xlink:title="geometry">
<polygon fill="none" stroke="black" points="92,-124 36,-124 36,-88 92,-88 92,-124"/>
<text text-anchor="middle" x="64" y="-103.5" font-family="Helvetica,sans-Serif" font-size="10.00">geometry</text>
</a>
</g>
</g>
<!-- dir_79769c2014326999657a5fac8224bdec -->
<g id="node2" class="node">
<title>dir_79769c2014326999657a5fac8224bdec</title>
<g id="a_node2"><a xlink:href="dir_79769c2014326999657a5fac8224bdec.html" target="_top" xlink:title="platformabstraction">
<polygon fill="none" stroke="red" points="116,-52 16,-52 16,-16 116,-16 116,-52"/>
<text text-anchor="middle" x="66" y="-31.5" font-family="Helvetica,sans-Serif" font-size="10.00">platformabstraction</text>
</a>
</g>
</g>
<!-- dir_405fd32de3649961a5f009c7a3fe84df&#45;&gt;dir_79769c2014326999657a5fac8224bdec -->
<g id="edge4" class="edge">
<title>dir_405fd32de3649961a5f009c7a3fe84df&#45;&gt;dir_79769c2014326999657a5fac8224bdec</title>
<path fill="none" stroke="black" d="M58.58,-87.7C58,-79.98 58.04,-70.71 58.63,-62.11"/>
<polygon fill="black" stroke="black" points="62.12,-62.4 59.62,-52.1 55.15,-61.71 62.12,-62.4"/>
<g id="a_edge4&#45;headlabel"><a xlink:href="dir_000003_000012.html" target="_top" xlink:title="3">
<text text-anchor="middle" x="64.59" y="-63.76" font-family="Helvetica,sans-Serif" font-size="10.00">3</text>
</a>
</g>
</g>
<!-- dir_79769c2014326999657a5fac8224bdec&#45;&gt;dir_405fd32de3649961a5f009c7a3fe84df -->
<g id="edge9" class="edge">
<title>dir_79769c2014326999657a5fac8224bdec&#45;&gt;dir_405fd32de3649961a5f009c7a3fe84df</title>
<path fill="none" stroke="black" d="M71.41,-52.1C71.99,-59.79 71.96,-69.05 71.39,-77.67"/>
<polygon fill="black" stroke="black" points="67.89,-77.4 70.41,-87.7 74.86,-78.08 67.89,-77.4"/>
<g id="a_edge9&#45;headlabel"><a xlink:href="dir_000012_000003.html" target="_top" xlink:title="1">
<text text-anchor="middle" x="65.42" y="-71.05" font-family="Helvetica,sans-Serif" font-size="10.00">1</text>
</a>
</g>
</g>
<!-- dir_7bc5e25958a2fb25a8561f3aa0def6c5 -->
<g id="node3" class="node">
<title>dir_7bc5e25958a2fb25a8561f3aa0def6c5</title>
<g id="a_node3"><a xlink:href="dir_7bc5e25958a2fb25a8561f3aa0def6c5.html" target="_top" xlink:title="renderer">
<polygon fill="none" stroke="red" points="111,-268 57,-268 57,-232 111,-232 111,-268"/>
<text text-anchor="middle" x="84" y="-247.5" font-family="Helvetica,sans-Serif" font-size="10.00">renderer</text>
</a>
</g>
</g>
<!-- dir_7bc5e25958a2fb25a8561f3aa0def6c5&#45;&gt;dir_79769c2014326999657a5fac8224bdec -->
<g id="edge10" class="edge">
<title>dir_7bc5e25958a2fb25a8561f3aa0def6c5&#45;&gt;dir_79769c2014326999657a5fac8224bdec</title>
<path fill="none" stroke="black" d="M75.91,-231.75C68.49,-213.43 59.92,-183.87 69,-160 76.61,-139.99 93.39,-144.01 101,-124 106.69,-109.04 105.6,-103.32 101,-88 98.08,-78.28 92.74,-68.7 87.09,-60.41"/>
<polygon fill="black" stroke="black" points="89.9,-58.32 81.18,-52.3 84.24,-62.44 89.9,-58.32"/>
<g id="a_edge10&#45;headlabel"><a xlink:href="dir_000014_000012.html" target="_top" xlink:title="9">
<text text-anchor="middle" x="94.31" y="-57.06" font-family="Helvetica,sans-Serif" font-size="10.00">9</text>
</a>
</g>
</g>
<!-- dir_99d0482cf009f9d97a0877749b817f19 -->
<g id="node4" class="node">
<title>dir_99d0482cf009f9d97a0877749b817f19</title>
<g id="a_node4"><a xlink:href="dir_99d0482cf009f9d97a0877749b817f19.html" target="_top" xlink:title="gui">
<polygon fill="none" stroke="red" points="132,-196 78,-196 78,-160 132,-160 132,-196"/>
<text text-anchor="middle" x="105" y="-175.5" font-family="Helvetica,sans-Serif" font-size="10.00">gui</text>
</a>
</g>
</g>
<!-- dir_7bc5e25958a2fb25a8561f3aa0def6c5&#45;&gt;dir_99d0482cf009f9d97a0877749b817f19 -->
<g id="edge11" class="edge">
<title>dir_7bc5e25958a2fb25a8561f3aa0def6c5&#45;&gt;dir_99d0482cf009f9d97a0877749b817f19</title>
<path fill="none" stroke="black" d="M83.28,-231.7C84.83,-223.81 87.46,-214.3 90.46,-205.55"/>
<polygon fill="black" stroke="black" points="93.77,-206.7 93.97,-196.1 87.21,-204.26 93.77,-206.7"/>
<g id="a_edge11&#45;headlabel"><a xlink:href="dir_000014_000004.html" target="_top" xlink:title="4">
<text text-anchor="middle" x="95.18" y="-208.56" font-family="Helvetica,sans-Serif" font-size="10.00">4</text>
</a>
</g>
</g>
<!-- dir_99d0482cf009f9d97a0877749b817f19&#45;&gt;dir_405fd32de3649961a5f009c7a3fe84df -->
<g id="edge1" class="edge">
<title>dir_99d0482cf009f9d97a0877749b817f19&#45;&gt;dir_405fd32de3649961a5f009c7a3fe84df</title>
<path fill="none" stroke="black" d="M94.87,-159.7C90.15,-151.64 84.44,-141.89 79.22,-132.98"/>
<polygon fill="black" stroke="black" points="82.09,-130.96 74.02,-124.1 76.05,-134.5 82.09,-130.96"/>
<g id="a_edge1&#45;headlabel"><a xlink:href="dir_000004_000003.html" target="_top" xlink:title="20">
<text text-anchor="middle" x="86.36" y="-130.13" font-family="Helvetica,sans-Serif" font-size="10.00">20</text>
</a>
</g>
</g>
<!-- dir_99d0482cf009f9d97a0877749b817f19&#45;&gt;dir_79769c2014326999657a5fac8224bdec -->
<g id="edge2" class="edge">
<title>dir_99d0482cf009f9d97a0877749b817f19&#45;&gt;dir_79769c2014326999657a5fac8224bdec</title>
<path fill="none" stroke="black" d="M111.89,-159.97C118.26,-141.58 125.43,-111.73 116,-88 111.71,-77.2 104.06,-67.32 96.01,-59.1"/>
<polygon fill="black" stroke="black" points="98.25,-56.4 88.6,-52.04 93.42,-61.47 98.25,-56.4"/>
<g id="a_edge2&#45;headlabel"><a xlink:href="dir_000004_000012.html" target="_top" xlink:title="8">
<text text-anchor="middle" x="102.81" y="-54.32" font-family="Helvetica,sans-Serif" font-size="10.00">8</text>
</a>
</g>
</g>
<!-- dir_99d0482cf009f9d97a0877749b817f19&#45;&gt;dir_7bc5e25958a2fb25a8561f3aa0def6c5 -->
<g id="edge3" class="edge">
<title>dir_99d0482cf009f9d97a0877749b817f19&#45;&gt;dir_7bc5e25958a2fb25a8561f3aa0def6c5</title>
<path fill="none" stroke="black" d="M105.76,-196.1C104.23,-203.96 101.61,-213.46 98.61,-222.23"/>
<polygon fill="black" stroke="black" points="95.3,-221.1 95.11,-231.7 101.86,-223.53 95.3,-221.1"/>
<g id="a_edge3&#45;headlabel"><a xlink:href="dir_000004_000014.html" target="_top" xlink:title="12">
<text text-anchor="middle" x="93.88" y="-214.25" font-family="Helvetica,sans-Serif" font-size="10.00">12</text>
</a>
</g>
</g>
<!-- dir_14e1e259e8275dc0c459acef3bbf05ae -->
<g id="node5" class="node">
<title>dir_14e1e259e8275dc0c459acef3bbf05ae</title>
<g id="a_node5"><a xlink:href="dir_14e1e259e8275dc0c459acef3bbf05ae.html" target="_top" xlink:title="events">
<polygon fill="#eeeeff" stroke="black" points="91,-340 37,-340 37,-304 91,-304 91,-340"/>
<text text-anchor="middle" x="64" y="-319.5" font-family="Helvetica,sans-Serif" font-size="10.00">events</text>
</a>
</g>
</g>
<!-- dir_14e1e259e8275dc0c459acef3bbf05ae&#45;&gt;dir_405fd32de3649961a5f009c7a3fe84df -->
<g id="edge5" class="edge">
<title>dir_14e1e259e8275dc0c459acef3bbf05ae&#45;&gt;dir_405fd32de3649961a5f009c7a3fe84df</title>
<path fill="none" stroke="black" d="M57.35,-303.63C53.8,-293.42 49.8,-280.17 48,-268 41.11,-221.31 50.15,-166.56 57.19,-134.44"/>
<polygon fill="black" stroke="black" points="60.65,-134.99 59.47,-124.46 53.83,-133.43 60.65,-134.99"/>
<g id="a_edge5&#45;headlabel"><a xlink:href="dir_000002_000003.html" target="_top" xlink:title="1">
<text text-anchor="middle" x="62.62" y="-136.62" font-family="Helvetica,sans-Serif" font-size="10.00">1</text>
</a>
</g>
</g>
<!-- dir_14e1e259e8275dc0c459acef3bbf05ae&#45;&gt;dir_79769c2014326999657a5fac8224bdec -->
<g id="edge6" class="edge">
<title>dir_14e1e259e8275dc0c459acef3bbf05ae&#45;&gt;dir_79769c2014326999657a5fac8224bdec</title>
<path fill="none" stroke="black" d="M54.91,-303.82C49.97,-293.68 44.22,-280.43 41,-268 20.9,-190.32 1.97,-164.24 27,-88 30.31,-77.91 36.37,-68.15 42.73,-59.82"/>
<polygon fill="black" stroke="black" points="45.5,-61.97 49.11,-52.01 40.08,-57.54 45.5,-61.97"/>
<g id="a_edge6&#45;headlabel"><a xlink:href="dir_000002_000012.html" target="_top" xlink:title="3">
<text text-anchor="middle" x="45.42" y="-64.05" font-family="Helvetica,sans-Serif" font-size="10.00">3</text>
</a>
</g>
</g>
<!-- dir_14e1e259e8275dc0c459acef3bbf05ae&#45;&gt;dir_7bc5e25958a2fb25a8561f3aa0def6c5 -->
<g id="edge7" class="edge">
<title>dir_14e1e259e8275dc0c459acef3bbf05ae&#45;&gt;dir_7bc5e25958a2fb25a8561f3aa0def6c5</title>
<path fill="none" stroke="black" d="M68.94,-303.7C71.17,-295.9 73.85,-286.51 76.33,-277.83"/>
<polygon fill="black" stroke="black" points="79.73,-278.68 79.11,-268.1 73,-276.76 79.73,-278.68"/>
<g id="a_edge7&#45;headlabel"><a xlink:href="dir_000002_000014.html" target="_top" xlink:title="1">
<text text-anchor="middle" x="81.47" y="-280.42" font-family="Helvetica,sans-Serif" font-size="10.00">1</text>
</a>
</g>
</g>
<!-- dir_14e1e259e8275dc0c459acef3bbf05ae&#45;&gt;dir_99d0482cf009f9d97a0877749b817f19 -->
<g id="edge8" class="edge">
<title>dir_14e1e259e8275dc0c459acef3bbf05ae&#45;&gt;dir_99d0482cf009f9d97a0877749b817f19</title>
<path fill="none" stroke="black" d="M90.12,-303.82C101.58,-294.69 113.81,-282.39 120,-268 128.57,-248.08 123.49,-223.7 117.02,-205.49"/>
<polygon fill="black" stroke="black" points="120.24,-204.13 113.36,-196.08 113.72,-206.66 120.24,-204.13"/>
<g id="a_edge8&#45;headlabel"><a xlink:href="dir_000002_000004.html" target="_top" xlink:title="5">
<text text-anchor="middle" x="124.19" y="-203.95" font-family="Helvetica,sans-Serif" font-size="10.00">5</text>
</a>
</g>
</g>
</g>
</svg>
