<?xml version="1.0" encoding="UTF-8" standalone="no"?>
<!DOCTYPE svg PUBLIC "-//W3C//DTD SVG 1.1//EN"
 "http://www.w3.org/Graphics/SVG/1.1/DTD/svg11.dtd">
<!-- Generated by graphviz version 2.44.0 ()
 -->
<!-- Title: src/platform Pages: 1 -->
<svg width="328pt" height="247pt"
 viewBox="0.00 0.00 328.00 247.00" xmlns="http://www.w3.org/2000/svg" xmlns:xlink="http://www.w3.org/1999/xlink">
<g id="graph0" class="graph" transform="scale(1 1) rotate(0) translate(4 243)">
<title>src/platform</title>
<g id="clust1" class="cluster">
<title>clusterdir_68267d1309a1af8e8297ef4c3efbcdba</title>
<g id="a_clust1"><a xlink:href="dir_68267d1309a1af8e8297ef4c3efbcdba.html" target="_top" xlink:title="src">
<polygon fill="#ddddee" stroke="black" points="8,-8 8,-231 312,-231 312,-8 8,-8"/>
<text text-anchor="middle" x="160" y="-219" font-family="Helvetica,sans-Serif" font-size="10.00">src</text>
</a>
</g>
</g>
<g id="clust2" class="cluster">
<title>clusterdir_4b68c2fef3e151b6b93d5e93b14f1857</title>
<g id="a_clust2"><a xlink:href="dir_4b68c2fef3e151b6b93d5e93b14f1857.html" target="_top">
<polygon fill="#eeeeff" stroke="black" points="16,-152 16,-204 304,-204 304,-152 16,-152"/>
</a>
</g>
</g>
<!-- dir_14e1e259e8275dc0c459acef3bbf05ae -->
<g id="node1" class="node">
<title>dir_14e1e259e8275dc0c459acef3bbf05ae</title>
<g id="a_node1"><a xlink:href="dir_14e1e259e8275dc0c459acef3bbf05ae.html" target="_top" xlink:title="events">
<polygon fill="none" stroke="black" points="106,-124 52,-124 52,-88 106,-88 106,-124"/>
<text text-anchor="middle" x="79" y="-103.5" font-family="Helvetica,sans-Serif" font-size="10.00">events</text>
</a>
</g>
</g>
<!-- dir_0abdee562046be6f5823d1ca8c3fd13c -->
<g id="node2" class="node">
<title>dir_0abdee562046be6f5823d1ca8c3fd13c</title>
<g id="a_node2"><a xlink:href="dir_0abdee562046be6f5823d1ca8c3fd13c.html" target="_top" xlink:title="widgets">
<polygon fill="none" stroke="black" points="106,-52 52,-52 52,-16 106,-16 106,-52"/>
<text text-anchor="middle" x="79" y="-31.5" font-family="Helvetica,sans-Serif" font-size="10.00">widgets</text>
</a>
</g>
</g>
<!-- dir_14e1e259e8275dc0c459acef3bbf05ae&#45;&gt;dir_0abdee562046be6f5823d1ca8c3fd13c -->
<g id="edge5" class="edge">
<title>dir_14e1e259e8275dc0c459acef3bbf05ae&#45;&gt;dir_0abdee562046be6f5823d1ca8c3fd13c</title>
<path fill="none" stroke="black" d="M73.08,-87.7C72.29,-79.98 72.06,-70.71 72.4,-62.11"/>
<polygon fill="black" stroke="black" points="75.9,-62.32 73.1,-52.1 68.92,-61.84 75.9,-62.32"/>
<g id="a_edge5&#45;headlabel"><a xlink:href="dir_000002_000007.html" target="_top" xlink:title="3">
<text text-anchor="middle" x="78.48" y="-63.61" font-family="Helvetica,sans-Serif" font-size="10.00">3</text>
</a>
</g>
</g>
<!-- dir_0abdee562046be6f5823d1ca8c3fd13c&#45;&gt;dir_14e1e259e8275dc0c459acef3bbf05ae -->
<g id="edge4" class="edge">
<title>dir_0abdee562046be6f5823d1ca8c3fd13c&#45;&gt;dir_14e1e259e8275dc0c459acef3bbf05ae</title>
<path fill="none" stroke="black" d="M84.9,-52.1C85.7,-59.79 85.94,-69.05 85.6,-77.67"/>
<polygon fill="black" stroke="black" points="82.11,-77.48 84.92,-87.7 89.09,-77.96 82.11,-77.48"/>
<g id="a_edge4&#45;headlabel"><a xlink:href="dir_000007_000002.html" target="_top" xlink:title="7">
<text text-anchor="middle" x="79.52" y="-71.2" font-family="Helvetica,sans-Serif" font-size="10.00">7</text>
</a>
</g>
</g>
<!-- dir_b47ddb3a0b86b791c0dd2682d4ed1094 -->
<g id="node3" class="node">
<title>dir_b47ddb3a0b86b791c0dd2682d4ed1094</title>
<g id="a_node3"><a xlink:href="dir_b47ddb3a0b86b791c0dd2682d4ed1094.html" target="_top" xlink:title="iconatlas">
<polygon fill="none" stroke="black" points="200,-124 144,-124 144,-88 200,-88 200,-124"/>
<text text-anchor="middle" x="172" y="-103.5" font-family="Helvetica,sans-Serif" font-size="10.00">iconatlas</text>
</a>
</g>
</g>
<!-- dir_4b68c2fef3e151b6b93d5e93b14f1857 -->
<g id="node4" class="node">
<title>dir_4b68c2fef3e151b6b93d5e93b14f1857</title>
<text text-anchor="middle" x="269" y="-175.5" font-family="Helvetica,sans-Serif" font-size="10.00">platform</text>
</g>
<!-- dir_7a28b23fbf41965e0daf488b4f1ef717 -->
<g id="node5" class="node">
<title>dir_7a28b23fbf41965e0daf488b4f1ef717</title>
<g id="a_node5"><a xlink:href="dir_7a28b23fbf41965e0daf488b4f1ef717.html" target="_top" xlink:title="linux">
<polygon fill="white" stroke="black" points="224,-196 170,-196 170,-160 224,-160 224,-196"/>
<text text-anchor="middle" x="197" y="-175.5" font-family="Helvetica,sans-Serif" font-size="10.00">linux</text>
</a>
</g>
</g>
<!-- dir_db8b8e291011fb767fc5be586c61904a -->
<g id="node6" class="node">
<title>dir_db8b8e291011fb767fc5be586c61904a</title>
<g id="a_node6"><a xlink:href="dir_db8b8e291011fb767fc5be586c61904a.html" target="_top" xlink:title="qt">
<polygon fill="white" stroke="black" points="152,-196 98,-196 98,-160 152,-160 152,-196"/>
<text text-anchor="middle" x="125" y="-175.5" font-family="Helvetica,sans-Serif" font-size="10.00">qt</text>
</a>
</g>
</g>
<!-- dir_db8b8e291011fb767fc5be586c61904a&#45;&gt;dir_14e1e259e8275dc0c459acef3bbf05ae -->
<g id="edge2" class="edge">
<title>dir_db8b8e291011fb767fc5be586c61904a&#45;&gt;dir_14e1e259e8275dc0c459acef3bbf05ae</title>
<path fill="none" stroke="black" d="M113.63,-159.7C108.28,-151.56 101.8,-141.69 95.89,-132.7"/>
<polygon fill="black" stroke="black" points="98.66,-130.54 90.24,-124.1 92.81,-134.38 98.66,-130.54"/>
<g id="a_edge2&#45;headlabel"><a xlink:href="dir_000012_000002.html" target="_top" xlink:title="2">
<text text-anchor="middle" x="103" y="-129.48" font-family="Helvetica,sans-Serif" font-size="10.00">2</text>
</a>
</g>
</g>
<!-- dir_db8b8e291011fb767fc5be586c61904a&#45;&gt;dir_0abdee562046be6f5823d1ca8c3fd13c -->
<g id="edge1" class="edge">
<title>dir_db8b8e291011fb767fc5be586c61904a&#45;&gt;dir_0abdee562046be6f5823d1ca8c3fd13c</title>
<path fill="none" stroke="black" d="M125.48,-159.71C125.44,-141.35 123.79,-111.77 115,-88 111.45,-78.4 105.8,-68.85 100.02,-60.56"/>
<polygon fill="black" stroke="black" points="102.77,-58.4 94.03,-52.42 97.14,-62.55 102.77,-58.4"/>
<g id="a_edge1&#45;headlabel"><a xlink:href="dir_000012_000007.html" target="_top" xlink:title="1">
<text text-anchor="middle" x="107.19" y="-57.11" font-family="Helvetica,sans-Serif" font-size="10.00">1</text>
</a>
</g>
</g>
<!-- dir_db8b8e291011fb767fc5be586c61904a&#45;&gt;dir_b47ddb3a0b86b791c0dd2682d4ed1094 -->
<g id="edge3" class="edge">
<title>dir_db8b8e291011fb767fc5be586c61904a&#45;&gt;dir_b47ddb3a0b86b791c0dd2682d4ed1094</title>
<path fill="none" stroke="black" d="M136.62,-159.7C142.14,-151.47 148.85,-141.48 154.93,-132.42"/>
<polygon fill="black" stroke="black" points="157.85,-134.36 160.52,-124.1 152.04,-130.46 157.85,-134.36"/>
<g id="a_edge3&#45;headlabel"><a xlink:href="dir_000012_000008.html" target="_top" xlink:title="1">
<text text-anchor="middle" x="158.2" y="-136.42" font-family="Helvetica,sans-Serif" font-size="10.00">1</text>
</a>
</g>
</g>
<!-- dir_972f138192ae14f23850fe4a6433774e -->
<g id="node7" class="node">
<title>dir_972f138192ae14f23850fe4a6433774e</title>
<g id="a_node7"><a xlink:href="dir_972f138192ae14f23850fe4a6433774e.html" target="_top" xlink:title="windows">
<polygon fill="white" stroke="black" points="79.5,-196 24.5,-196 24.5,-160 79.5,-160 79.5,-196"/>
<text text-anchor="middle" x="52" y="-175.5" font-family="Helvetica,sans-Serif" font-size="10.00">windows</text>
</a>
</g>
</g>
</g>
</svg>
