<?xml version="1.0" encoding="UTF-8" standalone="no"?>
<!DOCTYPE svg PUBLIC "-//W3C//DTD SVG 1.1//EN"
 "http://www.w3.org/Graphics/SVG/1.1/DTD/svg11.dtd">
<!-- Generated by graphviz version 2.44.0 ()
 -->
<!-- Title: src/renderer/opengl/icondraw Pages: 1 -->
<svg width="139pt" height="295pt"
 viewBox="0.00 0.00 138.78 295.00" xmlns="http://www.w3.org/2000/svg" xmlns:xlink="http://www.w3.org/1999/xlink">
<g id="graph0" class="graph" transform="scale(1 1) rotate(0) translate(4 291)">
<title>src/renderer/opengl/icondraw</title>
<g id="clust1" class="cluster">
<title>clusterdir_81ad5397e2f6e7d41ed68488a4d626a2</title>
<g id="a_clust1"><a xlink:href="dir_81ad5397e2f6e7d41ed68488a4d626a2.html" target="_top" xlink:title="opengl">
<polygon fill="#ddddee" stroke="black" points="30.78,-208 30.78,-279 102.78,-279 102.78,-208 30.78,-208"/>
<text text-anchor="middle" x="66.78" y="-267" font-family="Helvetica,sans-Serif" font-size="10.00">opengl</text>
</a>
</g>
</g>
<!-- dir_2ffc10c43e5d75828590a4e89e0dc64f -->
<g id="node1" class="node">
<title>dir_2ffc10c43e5d75828590a4e89e0dc64f</title>
<g id="a_node1"><a xlink:href="dir_2ffc10c43e5d75828590a4e89e0dc64f.html" target="_top" xlink:title="icondraw">
<polygon fill="#eeeeff" stroke="black" points="94.78,-252 38.78,-252 38.78,-216 94.78,-216 94.78,-252"/>
<text text-anchor="middle" x="66.78" y="-231.5" font-family="Helvetica,sans-Serif" font-size="10.00">icondraw</text>
</a>
</g>
</g>
<!-- dir_405fd32de3649961a5f009c7a3fe84df -->
<g id="node2" class="node">
<title>dir_405fd32de3649961a5f009c7a3fe84df</title>
<g id="a_node2"><a xlink:href="dir_405fd32de3649961a5f009c7a3fe84df.html" target="_top" xlink:title="geometry">
<polygon fill="none" stroke="black" points="74.78,-36 18.78,-36 18.78,0 74.78,0 74.78,-36"/>
<text text-anchor="middle" x="46.78" y="-15.5" font-family="Helvetica,sans-Serif" font-size="10.00">geometry</text>
</a>
</g>
</g>
<!-- dir_2ffc10c43e5d75828590a4e89e0dc64f&#45;&gt;dir_405fd32de3649961a5f009c7a3fe84df -->
<g id="edge1" class="edge">
<title>dir_2ffc10c43e5d75828590a4e89e0dc64f&#45;&gt;dir_405fd32de3649961a5f009c7a3fe84df</title>
<path fill="none" stroke="black" d="M38.98,-215.87C27,-206.84 14.28,-194.59 7.78,-180 -12.37,-134.82 12.17,-77.66 30.43,-45.02"/>
<polygon fill="black" stroke="black" points="33.62,-46.52 35.61,-36.11 27.56,-43 33.62,-46.52"/>
<g id="a_edge1&#45;headlabel"><a xlink:href="dir_000016_000003.html" target="_top" xlink:title="6">
<text text-anchor="middle" x="34.26" y="-48.55" font-family="Helvetica,sans-Serif" font-size="10.00">6</text>
</a>
</g>
</g>
<!-- dir_79769c2014326999657a5fac8224bdec -->
<g id="node3" class="node">
<title>dir_79769c2014326999657a5fac8224bdec</title>
<g id="a_node3"><a xlink:href="dir_79769c2014326999657a5fac8224bdec.html" target="_top" xlink:title="platformabstraction">
<polygon fill="none" stroke="red" points="116.78,-180 16.78,-180 16.78,-144 116.78,-144 116.78,-180"/>
<text text-anchor="middle" x="66.78" y="-159.5" font-family="Helvetica,sans-Serif" font-size="10.00">platformabstraction</text>
</a>
</g>
</g>
<!-- dir_2ffc10c43e5d75828590a4e89e0dc64f&#45;&gt;dir_79769c2014326999657a5fac8224bdec -->
<g id="edge2" class="edge">
<title>dir_2ffc10c43e5d75828590a4e89e0dc64f&#45;&gt;dir_79769c2014326999657a5fac8224bdec</title>
<path fill="none" stroke="black" d="M66.78,-215.7C66.78,-207.98 66.78,-198.71 66.78,-190.11"/>
<polygon fill="black" stroke="black" points="70.28,-190.1 66.78,-180.1 63.28,-190.1 70.28,-190.1"/>
<g id="a_edge2&#45;headlabel"><a xlink:href="dir_000016_000009.html" target="_top" xlink:title="1">
<text text-anchor="middle" x="73.12" y="-191.2" font-family="Helvetica,sans-Serif" font-size="10.00">1</text>
</a>
</g>
</g>
<!-- dir_b47ddb3a0b86b791c0dd2682d4ed1094 -->
<g id="node4" class="node">
<title>dir_b47ddb3a0b86b791c0dd2682d4ed1094</title>
<g id="a_node4"><a xlink:href="dir_b47ddb3a0b86b791c0dd2682d4ed1094.html" target="_top" xlink:title="iconatlas">
<polygon fill="none" stroke="black" points="130.78,-108 74.78,-108 74.78,-72 130.78,-72 130.78,-108"/>
<text text-anchor="middle" x="102.78" y="-87.5" font-family="Helvetica,sans-Serif" font-size="10.00">iconatlas</text>
</a>
</g>
</g>
<!-- dir_2ffc10c43e5d75828590a4e89e0dc64f&#45;&gt;dir_b47ddb3a0b86b791c0dd2682d4ed1094 -->
<g id="edge3" class="edge">
<title>dir_2ffc10c43e5d75828590a4e89e0dc64f&#45;&gt;dir_b47ddb3a0b86b791c0dd2682d4ed1094</title>
<path fill="none" stroke="black" d="M94.58,-215.87C106.55,-206.84 119.27,-194.59 125.78,-180 134.72,-159.95 127.41,-135.76 118.74,-117.66"/>
<polygon fill="black" stroke="black" points="121.59,-115.56 113.87,-108.3 115.38,-118.78 121.59,-115.56"/>
<g id="a_edge3&#45;headlabel"><a xlink:href="dir_000016_000007.html" target="_top" xlink:title="2">
<text text-anchor="middle" x="125.77" y="-114.94" font-family="Helvetica,sans-Serif" font-size="10.00">2</text>
</a>
</g>
</g>
<!-- dir_79769c2014326999657a5fac8224bdec&#45;&gt;dir_405fd32de3649961a5f009c7a3fe84df -->
<g id="edge5" class="edge">
<title>dir_79769c2014326999657a5fac8224bdec&#45;&gt;dir_405fd32de3649961a5f009c7a3fe84df</title>
<path fill="none" stroke="black" d="M64.36,-143.87C60.96,-119.67 54.69,-75.21 50.63,-46.39"/>
<polygon fill="black" stroke="black" points="54.06,-45.6 49.2,-36.19 47.13,-46.58 54.06,-45.6"/>
<g id="a_edge5&#45;headlabel"><a xlink:href="dir_000009_000003.html" target="_top" xlink:title="1">
<text text-anchor="middle" x="57.37" y="-46.27" font-family="Helvetica,sans-Serif" font-size="10.00">1</text>
</a>
</g>
</g>
<!-- dir_79769c2014326999657a5fac8224bdec&#45;&gt;dir_b47ddb3a0b86b791c0dd2682d4ed1094 -->
<g id="edge6" class="edge">
<title>dir_79769c2014326999657a5fac8224bdec&#45;&gt;dir_b47ddb3a0b86b791c0dd2682d4ed1094</title>
<path fill="none" stroke="black" d="M75.68,-143.7C79.77,-135.73 84.73,-126.1 89.27,-117.26"/>
<polygon fill="black" stroke="black" points="92.52,-118.6 93.98,-108.1 86.29,-115.4 92.52,-118.6"/>
<g id="a_edge6&#45;headlabel"><a xlink:href="dir_000009_000007.html" target="_top" xlink:title="1">
<text text-anchor="middle" x="93.4" y="-120.59" font-family="Helvetica,sans-Serif" font-size="10.00">1</text>
</a>
</g>
</g>
<!-- dir_b47ddb3a0b86b791c0dd2682d4ed1094&#45;&gt;dir_405fd32de3649961a5f009c7a3fe84df -->
<g id="edge4" class="edge">
<title>dir_b47ddb3a0b86b791c0dd2682d4ed1094&#45;&gt;dir_405fd32de3649961a5f009c7a3fe84df</title>
<path fill="none" stroke="black" d="M88.93,-71.7C82.29,-63.39 74.2,-53.28 66.89,-44.14"/>
<polygon fill="black" stroke="black" points="69.44,-41.73 60.46,-36.1 63.97,-46.1 69.44,-41.73"/>
<g id="a_edge4&#45;headlabel"><a xlink:href="dir_000007_000003.html" target="_top" xlink:title="2">
<text text-anchor="middle" x="73.9" y="-40.26" font-family="Helvetica,sans-Serif" font-size="10.00">2</text>
</a>
</g>
</g>
</g>
</svg>
