<?xml version="1.0" encoding="UTF-8" standalone="no"?>
<!DOCTYPE svg PUBLIC "-//W3C//DTD SVG 1.1//EN"
 "http://www.w3.org/Graphics/SVG/1.1/DTD/svg11.dtd">
<!-- Generated by graphviz version 2.44.0 ()
 -->
<!-- Title: src/renderer/direct12/vectorprogram Pages: 1 -->
<svg width="223pt" height="231pt"
 viewBox="0.00 0.00 223.00 231.00" xmlns="http://www.w3.org/2000/svg" xmlns:xlink="http://www.w3.org/1999/xlink">
<g id="graph0" class="graph" transform="scale(1 1) rotate(0) translate(4 227)">
<title>src/renderer/direct12/vectorprogram</title>
<g id="clust1" class="cluster">
<title>clusterdir_364644b6139970c0d97b3c404935efc4</title>
<g id="a_clust1"><a xlink:href="dir_364644b6139970c0d97b3c404935efc4.html" target="_top" xlink:title="direct12">
<polygon fill="#ddddee" stroke="black" points="8,-128 8,-215 207,-215 207,-128 8,-128"/>
<text text-anchor="middle" x="107.5" y="-203" font-family="Helvetica,sans-Serif" font-size="10.00">direct12</text>
</a>
</g>
</g>
<g id="clust2" class="cluster">
<title>clusterdir_94c406849b4990ae06049173dea2e06a</title>
<g id="a_clust2"><a xlink:href="dir_94c406849b4990ae06049173dea2e06a.html" target="_top">
<polygon fill="#eeeeff" stroke="black" points="16,-136 16,-188 199,-188 199,-136 16,-136"/>
</a>
</g>
</g>
<!-- dir_94c406849b4990ae06049173dea2e06a -->
<g id="node1" class="node">
<title>dir_94c406849b4990ae06049173dea2e06a</title>
<text text-anchor="middle" x="63" y="-159.5" font-family="Helvetica,sans-Serif" font-size="10.00">vectorprogram</text>
</g>
<!-- dir_405fd32de3649961a5f009c7a3fe84df -->
<g id="node4" class="node">
<title>dir_405fd32de3649961a5f009c7a3fe84df</title>
<g id="a_node4"><a xlink:href="dir_405fd32de3649961a5f009c7a3fe84df.html" target="_top" xlink:title="geometry">
<polygon fill="none" stroke="black" points="137,-36 81,-36 81,0 137,0 137,-36"/>
<text text-anchor="middle" x="109" y="-15.5" font-family="Helvetica,sans-Serif" font-size="10.00">geometry</text>
</a>
</g>
</g>
<!-- dir_94c406849b4990ae06049173dea2e06a&#45;&gt;dir_405fd32de3649961a5f009c7a3fe84df -->
<g id="edge3" class="edge">
<title>dir_94c406849b4990ae06049173dea2e06a&#45;&gt;dir_405fd32de3649961a5f009c7a3fe84df</title>
<path fill="none" stroke="black" d="M68.55,-143.87C76.42,-119.56 90.92,-74.82 100.25,-46.01"/>
<polygon fill="black" stroke="black" points="103.68,-46.78 103.43,-36.19 97.02,-44.62 103.68,-46.78"/>
<g id="a_edge3&#45;headlabel"><a xlink:href="dir_000020_000005.html" target="_top" xlink:title="1">
<text text-anchor="middle" x="105.27" y="-48.58" font-family="Helvetica,sans-Serif" font-size="10.00">1</text>
</a>
</g>
</g>
<!-- dir_b9380efa096e6254dd66d357c5e0859e -->
<g id="node2" class="node">
<title>dir_b9380efa096e6254dd66d357c5e0859e</title>
<g id="a_node2"><a xlink:href="dir_b9380efa096e6254dd66d357c5e0859e.html" target="_top" xlink:title="test_triangle">
<polygon fill="white" stroke="black" points="191,-180 121,-180 121,-144 191,-144 191,-180"/>
<text text-anchor="middle" x="156" y="-159.5" font-family="Helvetica,sans-Serif" font-size="10.00">test_triangle</text>
</a>
</g>
</g>
<!-- dir_14e1e259e8275dc0c459acef3bbf05ae -->
<g id="node3" class="node">
<title>dir_14e1e259e8275dc0c459acef3bbf05ae</title>
<g id="a_node3"><a xlink:href="dir_14e1e259e8275dc0c459acef3bbf05ae.html" target="_top" xlink:title="events">
<polygon fill="none" stroke="black" points="173,-108 119,-108 119,-72 173,-72 173,-108"/>
<text text-anchor="middle" x="146" y="-87.5" font-family="Helvetica,sans-Serif" font-size="10.00">events</text>
</a>
</g>
</g>
<!-- dir_b9380efa096e6254dd66d357c5e0859e&#45;&gt;dir_14e1e259e8275dc0c459acef3bbf05ae -->
<g id="edge2" class="edge">
<title>dir_b9380efa096e6254dd66d357c5e0859e&#45;&gt;dir_14e1e259e8275dc0c459acef3bbf05ae</title>
<path fill="none" stroke="black" d="M153.53,-143.7C152.43,-135.98 151.1,-126.71 149.87,-118.11"/>
<polygon fill="black" stroke="black" points="153.32,-117.51 148.44,-108.1 146.39,-118.5 153.32,-117.51"/>
<g id="a_edge2&#45;headlabel"><a xlink:href="dir_000021_000004.html" target="_top" xlink:title="1">
<text text-anchor="middle" x="156.64" y="-118.17" font-family="Helvetica,sans-Serif" font-size="10.00">1</text>
</a>
</g>
</g>
<!-- dir_14e1e259e8275dc0c459acef3bbf05ae&#45;&gt;dir_405fd32de3649961a5f009c7a3fe84df -->
<g id="edge1" class="edge">
<title>dir_14e1e259e8275dc0c459acef3bbf05ae&#45;&gt;dir_405fd32de3649961a5f009c7a3fe84df</title>
<path fill="none" stroke="black" d="M136.85,-71.7C132.6,-63.64 127.44,-53.89 122.73,-44.98"/>
<polygon fill="black" stroke="black" points="125.81,-43.31 118.04,-36.1 119.62,-46.58 125.81,-43.31"/>
<g id="a_edge1&#45;headlabel"><a xlink:href="dir_000004_000005.html" target="_top" xlink:title="1">
<text text-anchor="middle" x="130" y="-42.66" font-family="Helvetica,sans-Serif" font-size="10.00">1</text>
</a>
</g>
</g>
</g>
</svg>
