<?xml version="1.0" encoding="UTF-8" standalone="no"?>
<!DOCTYPE svg PUBLIC "-//W3C//DTD SVG 1.1//EN"
 "http://www.w3.org/Graphics/SVG/1.1/DTD/svg11.dtd">
<!-- Generated by graphviz version 2.44.0 ()
 -->
<!-- Title: src/renderer/opengl Pages: 1 -->
<svg width="361pt" height="303pt"
 viewBox="0.00 0.00 361.00 303.00" xmlns="http://www.w3.org/2000/svg" xmlns:xlink="http://www.w3.org/1999/xlink">
<g id="graph0" class="graph" transform="scale(1 1) rotate(0) translate(4 299)">
<title>src/renderer/opengl</title>
<g id="clust1" class="cluster">
<title>clusterdir_7bc5e25958a2fb25a8561f3aa0def6c5</title>
<g id="a_clust1"><a xlink:href="dir_7bc5e25958a2fb25a8561f3aa0def6c5.html" target="_top" xlink:title="renderer">
<polygon fill="#ddddee" stroke="black" points="8,-128 8,-287 323,-287 323,-128 8,-128"/>
<text text-anchor="middle" x="165.5" y="-275" font-family="Helvetica,sans-Serif" font-size="10.00">renderer</text>
</a>
</g>
</g>
<g id="clust2" class="cluster">
<title>clusterdir_81ad5397e2f6e7d41ed68488a4d626a2</title>
<g id="a_clust2"><a xlink:href="dir_81ad5397e2f6e7d41ed68488a4d626a2.html" target="_top">
<polygon fill="#eeeeff" stroke="black" points="16,-136 16,-260 315,-260 315,-136 16,-136"/>
</a>
</g>
</g>
<!-- dir_81ad5397e2f6e7d41ed68488a4d626a2 -->
<g id="node1" class="node">
<title>dir_81ad5397e2f6e7d41ed68488a4d626a2</title>
<text text-anchor="middle" x="268" y="-231.5" font-family="Helvetica,sans-Serif" font-size="10.00">opengl</text>
</g>
<!-- dir_ff06f8c973899712029e39f18474ef3f -->
<g id="node2" class="node">
<title>dir_ff06f8c973899712029e39f18474ef3f</title>
<g id="a_node2"><a xlink:href="dir_ff06f8c973899712029e39f18474ef3f.html" target="_top" xlink:title="colorwheelprogram">
<polygon fill="white" stroke="red" points="122,-180 24,-180 24,-144 122,-144 122,-180"/>
<text text-anchor="middle" x="73" y="-159.5" font-family="Helvetica,sans-Serif" font-size="10.00">colorwheelprogram</text>
</a>
</g>
</g>
<!-- dir_81ad5397e2f6e7d41ed68488a4d626a2&#45;&gt;dir_ff06f8c973899712029e39f18474ef3f -->
<g id="edge8" class="edge">
<title>dir_81ad5397e2f6e7d41ed68488a4d626a2&#45;&gt;dir_ff06f8c973899712029e39f18474ef3f</title>
<path fill="none" stroke="black" d="M240.89,-223.27C212.35,-213.02 166.6,-196.6 130.06,-183.48"/>
<polygon fill="black" stroke="black" points="131.1,-180.14 120.51,-180.05 128.74,-186.73 131.1,-180.14"/>
<g id="a_edge8&#45;headlabel"><a xlink:href="dir_000012_000013.html" target="_top" xlink:title="1">
<text text-anchor="middle" x="135.44" y="-176.18" font-family="Helvetica,sans-Serif" font-size="10.00">1</text>
</a>
</g>
</g>
<!-- dir_6728cb4d06bfad248c1327bbff1836c0 -->
<g id="node3" class="node">
<title>dir_6728cb4d06bfad248c1327bbff1836c0</title>
<g id="a_node3"><a xlink:href="dir_6728cb4d06bfad248c1327bbff1836c0.html" target="_top" xlink:title="iconprogram">
<polygon fill="white" stroke="black" points="210,-180 140,-180 140,-144 210,-144 210,-180"/>
<text text-anchor="middle" x="175" y="-159.5" font-family="Helvetica,sans-Serif" font-size="10.00">iconprogram</text>
</a>
</g>
</g>
<!-- dir_81ad5397e2f6e7d41ed68488a4d626a2&#45;&gt;dir_6728cb4d06bfad248c1327bbff1836c0 -->
<g id="edge6" class="edge">
<title>dir_81ad5397e2f6e7d41ed68488a4d626a2&#45;&gt;dir_6728cb4d06bfad248c1327bbff1836c0</title>
<path fill="none" stroke="black" d="M245.01,-215.7C233.19,-206.8 218.61,-195.82 205.82,-186.2"/>
<polygon fill="black" stroke="black" points="207.82,-183.32 197.72,-180.1 203.61,-188.91 207.82,-183.32"/>
<g id="a_edge6&#45;headlabel"><a xlink:href="dir_000012_000015.html" target="_top" xlink:title="1">
<text text-anchor="middle" x="212.4" y="-180.71" font-family="Helvetica,sans-Serif" font-size="10.00">1</text>
</a>
</g>
</g>
<!-- dir_91a289b3b6b3efc86c23ae4cf26c8801 -->
<g id="node4" class="node">
<title>dir_91a289b3b6b3efc86c23ae4cf26c8801</title>
<g id="a_node4"><a xlink:href="dir_91a289b3b6b3efc86c23ae4cf26c8801.html" target="_top" xlink:title="vectorprogram">
<polygon fill="white" stroke="black" points="307.5,-180 228.5,-180 228.5,-144 307.5,-144 307.5,-180"/>
<text text-anchor="middle" x="268" y="-159.5" font-family="Helvetica,sans-Serif" font-size="10.00">vectorprogram</text>
</a>
</g>
</g>
<!-- dir_81ad5397e2f6e7d41ed68488a4d626a2&#45;&gt;dir_91a289b3b6b3efc86c23ae4cf26c8801 -->
<g id="edge7" class="edge">
<title>dir_81ad5397e2f6e7d41ed68488a4d626a2&#45;&gt;dir_91a289b3b6b3efc86c23ae4cf26c8801</title>
<path fill="none" stroke="black" d="M268,-215.7C268,-207.98 268,-198.71 268,-190.11"/>
<polygon fill="black" stroke="black" points="271.5,-190.1 268,-180.1 264.5,-190.1 271.5,-190.1"/>
<g id="a_edge7&#45;headlabel"><a xlink:href="dir_000012_000016.html" target="_top" xlink:title="1">
<text text-anchor="middle" x="274.34" y="-191.2" font-family="Helvetica,sans-Serif" font-size="10.00">1</text>
</a>
</g>
</g>
<!-- dir_0b61c55142250c0cc363383afd8075a4 -->
<g id="node5" class="node">
<title>dir_0b61c55142250c0cc363383afd8075a4</title>
<g id="a_node5"><a xlink:href="dir_0b61c55142250c0cc363383afd8075a4.html" target="_top" xlink:title="containers">
<polygon fill="none" stroke="black" points="353,-36 291,-36 291,0 353,0 353,-36"/>
<text text-anchor="middle" x="322" y="-15.5" font-family="Helvetica,sans-Serif" font-size="10.00">containers</text>
</a>
</g>
</g>
<!-- dir_81ad5397e2f6e7d41ed68488a4d626a2&#45;&gt;dir_0b61c55142250c0cc363383afd8075a4 -->
<g id="edge5" class="edge">
<title>dir_81ad5397e2f6e7d41ed68488a4d626a2&#45;&gt;dir_0b61c55142250c0cc363383afd8075a4</title>
<path fill="none" stroke="black" d="M295.17,-218.7C309.26,-209.67 325.13,-196.57 333,-180 353.5,-136.84 341.8,-79.73 331.71,-46.42"/>
<polygon fill="black" stroke="black" points="334.91,-44.94 328.53,-36.48 328.25,-47.07 334.91,-44.94"/>
<g id="a_edge5&#45;headlabel"><a xlink:href="dir_000012_000001.html" target="_top" xlink:title="1">
<text text-anchor="middle" x="338.71" y="-45" font-family="Helvetica,sans-Serif" font-size="10.00">1</text>
</a>
</g>
</g>
<!-- dir_405fd32de3649961a5f009c7a3fe84df -->
<g id="node6" class="node">
<title>dir_405fd32de3649961a5f009c7a3fe84df</title>
<g id="a_node6"><a xlink:href="dir_405fd32de3649961a5f009c7a3fe84df.html" target="_top" xlink:title="geometry">
<polygon fill="none" stroke="black" points="203,-36 147,-36 147,0 203,0 203,-36"/>
<text text-anchor="middle" x="175" y="-15.5" font-family="Helvetica,sans-Serif" font-size="10.00">geometry</text>
</a>
</g>
</g>
<!-- dir_ff06f8c973899712029e39f18474ef3f&#45;&gt;dir_405fd32de3649961a5f009c7a3fe84df -->
<g id="edge14" class="edge">
<title>dir_ff06f8c973899712029e39f18474ef3f&#45;&gt;dir_405fd32de3649961a5f009c7a3fe84df</title>
<path fill="none" stroke="black" d="M76.85,-143.94C81.74,-124.99 91.58,-94.14 108,-72 116.38,-60.7 127.74,-50.5 138.73,-42.14"/>
<polygon fill="black" stroke="black" points="140.98,-44.83 147.01,-36.11 136.86,-39.17 140.98,-44.83"/>
<g id="a_edge14&#45;headlabel"><a xlink:href="dir_000013_000003.html" target="_top" xlink:title="3">
<text text-anchor="middle" x="139.75" y="-46.74" font-family="Helvetica,sans-Serif" font-size="10.00">3</text>
</a>
</g>
</g>
<!-- dir_6728cb4d06bfad248c1327bbff1836c0&#45;&gt;dir_405fd32de3649961a5f009c7a3fe84df -->
<g id="edge11" class="edge">
<title>dir_6728cb4d06bfad248c1327bbff1836c0&#45;&gt;dir_405fd32de3649961a5f009c7a3fe84df</title>
<path fill="none" stroke="black" d="M152.37,-143.89C137.45,-132.04 119.95,-116.87 116,-108 109.48,-93.39 109.48,-86.61 116,-72 121.08,-60.6 129.96,-50.63 139.31,-42.51"/>
<polygon fill="black" stroke="black" points="141.63,-45.14 147.2,-36.13 137.22,-39.69 141.63,-45.14"/>
<g id="a_edge11&#45;headlabel"><a xlink:href="dir_000015_000003.html" target="_top" xlink:title="4">
<text text-anchor="middle" x="140.62" y="-47.11" font-family="Helvetica,sans-Serif" font-size="10.00">4</text>
</a>
</g>
</g>
<!-- dir_79769c2014326999657a5fac8224bdec -->
<g id="node7" class="node">
<title>dir_79769c2014326999657a5fac8224bdec</title>
<g id="a_node7"><a xlink:href="dir_79769c2014326999657a5fac8224bdec.html" target="_top" xlink:title="platformabstraction">
<polygon fill="none" stroke="red" points="225,-108 125,-108 125,-72 225,-72 225,-108"/>
<text text-anchor="middle" x="175" y="-87.5" font-family="Helvetica,sans-Serif" font-size="10.00">platformabstraction</text>
</a>
</g>
</g>
<!-- dir_6728cb4d06bfad248c1327bbff1836c0&#45;&gt;dir_79769c2014326999657a5fac8224bdec -->
<g id="edge12" class="edge">
<title>dir_6728cb4d06bfad248c1327bbff1836c0&#45;&gt;dir_79769c2014326999657a5fac8224bdec</title>
<path fill="none" stroke="black" d="M175,-143.7C175,-135.98 175,-126.71 175,-118.11"/>
<polygon fill="black" stroke="black" points="178.5,-118.1 175,-108.1 171.5,-118.1 178.5,-118.1"/>
<g id="a_edge12&#45;headlabel"><a xlink:href="dir_000015_000007.html" target="_top" xlink:title="1">
<text text-anchor="middle" x="181.34" y="-119.2" font-family="Helvetica,sans-Serif" font-size="10.00">1</text>
</a>
</g>
</g>
<!-- dir_99d0482cf009f9d97a0877749b817f19 -->
<g id="node8" class="node">
<title>dir_99d0482cf009f9d97a0877749b817f19</title>
<g id="a_node8"><a xlink:href="dir_99d0482cf009f9d97a0877749b817f19.html" target="_top" xlink:title="gui">
<polygon fill="none" stroke="black" points="297,-108 243,-108 243,-72 297,-72 297,-108"/>
<text text-anchor="middle" x="270" y="-87.5" font-family="Helvetica,sans-Serif" font-size="10.00">gui</text>
</a>
</g>
</g>
<!-- dir_6728cb4d06bfad248c1327bbff1836c0&#45;&gt;dir_99d0482cf009f9d97a0877749b817f19 -->
<g id="edge13" class="edge">
<title>dir_6728cb4d06bfad248c1327bbff1836c0&#45;&gt;dir_99d0482cf009f9d97a0877749b817f19</title>
<path fill="none" stroke="black" d="M192.57,-143.7C204.45,-134.22 220.38,-122.4 234.75,-112.35"/>
<polygon fill="black" stroke="black" points="236.75,-115.23 243,-106.67 232.78,-109.46 236.75,-115.23"/>
<g id="a_edge13&#45;headlabel"><a xlink:href="dir_000015_000004.html" target="_top" xlink:title="1">
<text text-anchor="middle" x="235.4" y="-117.1" font-family="Helvetica,sans-Serif" font-size="10.00">1</text>
</a>
</g>
</g>
<!-- dir_91a289b3b6b3efc86c23ae4cf26c8801&#45;&gt;dir_405fd32de3649961a5f009c7a3fe84df -->
<g id="edge9" class="edge">
<title>dir_91a289b3b6b3efc86c23ae4cf26c8801&#45;&gt;dir_405fd32de3649961a5f009c7a3fe84df</title>
<path fill="none" stroke="black" d="M284.87,-143.97C301.23,-125.31 321.5,-94.99 306,-72 285.42,-41.48 243.97,-28.53 213.17,-23.04"/>
<polygon fill="black" stroke="black" points="213.61,-19.56 203.19,-21.45 212.51,-26.47 213.61,-19.56"/>
<g id="a_edge9&#45;headlabel"><a xlink:href="dir_000016_000003.html" target="_top" xlink:title="1">
<text text-anchor="middle" x="217.61" y="-14.82" font-family="Helvetica,sans-Serif" font-size="10.00">1</text>
</a>
</g>
</g>
<!-- dir_91a289b3b6b3efc86c23ae4cf26c8801&#45;&gt;dir_99d0482cf009f9d97a0877749b817f19 -->
<g id="edge10" class="edge">
<title>dir_91a289b3b6b3efc86c23ae4cf26c8801&#45;&gt;dir_99d0482cf009f9d97a0877749b817f19</title>
<path fill="none" stroke="black" d="M268.49,-143.7C268.71,-135.98 268.98,-126.71 269.23,-118.11"/>
<polygon fill="black" stroke="black" points="272.72,-118.2 269.51,-108.1 265.73,-118 272.72,-118.2"/>
<g id="a_edge10&#45;headlabel"><a xlink:href="dir_000016_000004.html" target="_top" xlink:title="1">
<text text-anchor="middle" x="275.46" y="-119.37" font-family="Helvetica,sans-Serif" font-size="10.00">1</text>
</a>
</g>
</g>
<!-- dir_79769c2014326999657a5fac8224bdec&#45;&gt;dir_405fd32de3649961a5f009c7a3fe84df -->
<g id="edge15" class="edge">
<title>dir_79769c2014326999657a5fac8224bdec&#45;&gt;dir_405fd32de3649961a5f009c7a3fe84df</title>
<path fill="none" stroke="black" d="M175,-71.7C175,-63.98 175,-54.71 175,-46.11"/>
<polygon fill="black" stroke="black" points="178.5,-46.1 175,-36.1 171.5,-46.1 178.5,-46.1"/>
<g id="a_edge15&#45;headlabel"><a xlink:href="dir_000007_000003.html" target="_top" xlink:title="1">
<text text-anchor="middle" x="181.34" y="-47.2" font-family="Helvetica,sans-Serif" font-size="10.00">1</text>
</a>
</g>
</g>
<!-- dir_99d0482cf009f9d97a0877749b817f19&#45;&gt;dir_81ad5397e2f6e7d41ed68488a4d626a2 -->
<g id="edge4" class="edge">
<title>dir_99d0482cf009f9d97a0877749b817f19&#45;&gt;dir_81ad5397e2f6e7d41ed68488a4d626a2</title>
<path fill="none" stroke="black" d="M297.43,-106.63C304.84,-112.33 311.93,-119.5 316,-128 325.98,-148.84 324.31,-158.44 316,-180 311.9,-190.64 304.56,-200.47 296.83,-208.7"/>
<polygon fill="black" stroke="black" points="294.33,-206.25 289.71,-215.79 299.27,-211.22 294.33,-206.25"/>
<g id="a_edge4&#45;headlabel"><a xlink:href="dir_000004_000012.html" target="_top" xlink:title="1">
<text text-anchor="middle" x="294.88" y="-199.21" font-family="Helvetica,sans-Serif" font-size="10.00">1</text>
</a>
</g>
</g>
<!-- dir_99d0482cf009f9d97a0877749b817f19&#45;&gt;dir_6728cb4d06bfad248c1327bbff1836c0 -->
<g id="edge3" class="edge">
<title>dir_99d0482cf009f9d97a0877749b817f19&#45;&gt;dir_6728cb4d06bfad248c1327bbff1836c0</title>
<path fill="none" stroke="black" d="M252.58,-108.19C241.31,-117.18 226.36,-128.32 212.55,-138.04"/>
<polygon fill="black" stroke="black" points="210.35,-135.3 204.14,-143.88 214.35,-141.05 210.35,-135.3"/>
<g id="a_edge3&#45;headlabel"><a xlink:href="dir_000004_000015.html" target="_top" xlink:title="1">
<text text-anchor="middle" x="211.69" y="-128.42" font-family="Helvetica,sans-Serif" font-size="10.00">1</text>
</a>
</g>
</g>
<!-- dir_99d0482cf009f9d97a0877749b817f19&#45;&gt;dir_0b61c55142250c0cc363383afd8075a4 -->
<g id="edge1" class="edge">
<title>dir_99d0482cf009f9d97a0877749b817f19&#45;&gt;dir_0b61c55142250c0cc363383afd8075a4</title>
<path fill="none" stroke="black" d="M282.85,-71.7C289.03,-63.39 296.54,-53.28 303.32,-44.14"/>
<polygon fill="black" stroke="black" points="306.14,-46.22 309.29,-36.1 300.52,-42.04 306.14,-46.22"/>
<g id="a_edge1&#45;headlabel"><a xlink:href="dir_000004_000001.html" target="_top" xlink:title="2">
<text text-anchor="middle" x="306.28" y="-48.3" font-family="Helvetica,sans-Serif" font-size="10.00">2</text>
</a>
</g>
</g>
<!-- dir_99d0482cf009f9d97a0877749b817f19&#45;&gt;dir_405fd32de3649961a5f009c7a3fe84df -->
<g id="edge2" class="edge">
<title>dir_99d0482cf009f9d97a0877749b817f19&#45;&gt;dir_405fd32de3649961a5f009c7a3fe84df</title>
<path fill="none" stroke="black" d="M246.52,-71.7C234.44,-62.8 219.55,-51.82 206.48,-42.2"/>
<polygon fill="black" stroke="black" points="208.34,-39.22 198.21,-36.1 204.19,-44.85 208.34,-39.22"/>
<g id="a_edge2&#45;headlabel"><a xlink:href="dir_000004_000003.html" target="_top" xlink:title="12">
<text text-anchor="middle" x="212.92" y="-36.57" font-family="Helvetica,sans-Serif" font-size="10.00">12</text>
</a>
</g>
</g>
</g>
</svg>
