<?xml version="1.0" encoding="UTF-8" standalone="no"?>
<!DOCTYPE svg PUBLIC "-//W3C//DTD SVG 1.1//EN"
 "http://www.w3.org/Graphics/SVG/1.1/DTD/svg11.dtd">
<!-- Generated by graphviz version 2.44.0 ()
 -->
<!-- Title: src Pages: 1 -->
<svg width="286pt" height="508pt"
 viewBox="0.00 0.00 286.00 508.00" xmlns="http://www.w3.org/2000/svg" xmlns:xlink="http://www.w3.org/1999/xlink">
<g id="graph0" class="graph" transform="scale(1 1) rotate(0) translate(4 504)">
<title>src</title>
<g id="clust1" class="cluster">
<title>clusterdir_68267d1309a1af8e8297ef4c3efbcdba</title>
<g id="a_clust1"><a xlink:href="dir_68267d1309a1af8e8297ef4c3efbcdba.html" target="_top">
<polygon fill="#eeeeff" stroke="black" points="8,-8 8,-492 270,-492 270,-8 8,-8"/>
</a>
</g>
</g>
<!-- dir_68267d1309a1af8e8297ef4c3efbcdba -->
<g id="node1" class="node">
<title>dir_68267d1309a1af8e8297ef4c3efbcdba</title>
<text text-anchor="middle" x="201" y="-463.5" font-family="Helvetica,sans-Serif" font-size="10.00">src</text>
</g>
<!-- dir_0b61c55142250c0cc363383afd8075a4 -->
<g id="node2" class="node">
<title>dir_0b61c55142250c0cc363383afd8075a4</title>
<g id="a_node2"><a xlink:href="dir_0b61c55142250c0cc363383afd8075a4.html" target="_top" xlink:title="containers">
<polygon fill="white" stroke="black" points="110,-124 48,-124 48,-88 110,-88 110,-124"/>
<text text-anchor="middle" x="79" y="-103.5" font-family="Helvetica,sans-Serif" font-size="10.00">containers</text>
</a>
</g>
</g>
<!-- dir_14e1e259e8275dc0c459acef3bbf05ae -->
<g id="node3" class="node">
<title>dir_14e1e259e8275dc0c459acef3bbf05ae</title>
<g id="a_node3"><a xlink:href="dir_14e1e259e8275dc0c459acef3bbf05ae.html" target="_top" xlink:title="events">
<polygon fill="white" stroke="black" points="222,-340 168,-340 168,-304 222,-304 222,-340"/>
<text text-anchor="middle" x="195" y="-319.5" font-family="Helvetica,sans-Serif" font-size="10.00">events</text>
</a>
</g>
</g>
<!-- dir_405fd32de3649961a5f009c7a3fe84df -->
<g id="node4" class="node">
<title>dir_405fd32de3649961a5f009c7a3fe84df</title>
<g id="a_node4"><a xlink:href="dir_405fd32de3649961a5f009c7a3fe84df.html" target="_top" xlink:title="geometry">
<polygon fill="white" stroke="black" points="239,-52 183,-52 183,-16 239,-16 239,-52"/>
<text text-anchor="middle" x="211" y="-31.5" font-family="Helvetica,sans-Serif" font-size="10.00">geometry</text>
</a>
</g>
</g>
<!-- dir_14e1e259e8275dc0c459acef3bbf05ae&#45;&gt;dir_405fd32de3649961a5f009c7a3fe84df -->
<g id="edge4" class="edge">
<title>dir_14e1e259e8275dc0c459acef3bbf05ae&#45;&gt;dir_405fd32de3649961a5f009c7a3fe84df</title>
<path fill="none" stroke="black" d="M195.95,-303.97C198.62,-256.29 206.18,-121.18 209.45,-62.63"/>
<polygon fill="black" stroke="black" points="212.97,-62.49 210.03,-52.31 205.98,-62.1 212.97,-62.49"/>
<g id="a_edge4&#45;headlabel"><a xlink:href="dir_000002_000003.html" target="_top" xlink:title="1">
<text text-anchor="middle" x="215.6" y="-63.73" font-family="Helvetica,sans-Serif" font-size="10.00">1</text>
</a>
</g>
</g>
<!-- dir_99d0482cf009f9d97a0877749b817f19 -->
<g id="node5" class="node">
<title>dir_99d0482cf009f9d97a0877749b817f19</title>
<g id="a_node5"><a xlink:href="dir_99d0482cf009f9d97a0877749b817f19.html" target="_top" xlink:title="gui">
<polygon fill="white" stroke="black" points="113,-268 59,-268 59,-232 113,-232 113,-268"/>
<text text-anchor="middle" x="86" y="-247.5" font-family="Helvetica,sans-Serif" font-size="10.00">gui</text>
</a>
</g>
</g>
<!-- dir_14e1e259e8275dc0c459acef3bbf05ae&#45;&gt;dir_99d0482cf009f9d97a0877749b817f19 -->
<g id="edge5" class="edge">
<title>dir_14e1e259e8275dc0c459acef3bbf05ae&#45;&gt;dir_99d0482cf009f9d97a0877749b817f19</title>
<path fill="none" stroke="black" d="M168.34,-303.88C154.22,-294.81 136.69,-283.55 121.44,-273.76"/>
<polygon fill="black" stroke="black" points="123.07,-270.65 112.77,-268.19 119.29,-276.54 123.07,-270.65"/>
<g id="a_edge5&#45;headlabel"><a xlink:href="dir_000002_000004.html" target="_top" xlink:title="6">
<text text-anchor="middle" x="127.63" y="-267.7" font-family="Helvetica,sans-Serif" font-size="10.00">6</text>
</a>
</g>
</g>
<!-- dir_99d0482cf009f9d97a0877749b817f19&#45;&gt;dir_0b61c55142250c0cc363383afd8075a4 -->
<g id="edge1" class="edge">
<title>dir_99d0482cf009f9d97a0877749b817f19&#45;&gt;dir_0b61c55142250c0cc363383afd8075a4</title>
<path fill="none" stroke="black" d="M85.16,-231.87C83.96,-207.67 81.77,-163.21 80.35,-134.39"/>
<polygon fill="black" stroke="black" points="83.84,-134 79.85,-124.19 76.84,-134.35 83.84,-134"/>
<g id="a_edge1&#45;headlabel"><a xlink:href="dir_000004_000001.html" target="_top" xlink:title="3">
<text text-anchor="middle" x="86.85" y="-134.96" font-family="Helvetica,sans-Serif" font-size="10.00">3</text>
</a>
</g>
</g>
<!-- dir_99d0482cf009f9d97a0877749b817f19&#45;&gt;dir_405fd32de3649961a5f009c7a3fe84df -->
<g id="edge2" class="edge">
<title>dir_99d0482cf009f9d97a0877749b817f19&#45;&gt;dir_405fd32de3649961a5f009c7a3fe84df</title>
<path fill="none" stroke="black" d="M72.06,-231.79C48.39,-200.34 5.97,-132.74 39,-88 69.56,-46.61 131.97,-36.54 172.61,-34.62"/>
<polygon fill="black" stroke="black" points="172.81,-38.11 182.69,-34.29 172.59,-31.12 172.81,-38.11"/>
<g id="a_edge2&#45;headlabel"><a xlink:href="dir_000004_000003.html" target="_top" xlink:title="13">
<text text-anchor="middle" x="169.32" y="-38.57" font-family="Helvetica,sans-Serif" font-size="10.00">13</text>
</a>
</g>
</g>
<!-- dir_b47ddb3a0b86b791c0dd2682d4ed1094 -->
<g id="node6" class="node">
<title>dir_b47ddb3a0b86b791c0dd2682d4ed1094</title>
<g id="a_node6"><a xlink:href="dir_b47ddb3a0b86b791c0dd2682d4ed1094.html" target="_top" xlink:title="iconatlas">
<polygon fill="white" stroke="black" points="177,-196 121,-196 121,-160 177,-160 177,-196"/>
<text text-anchor="middle" x="149" y="-175.5" font-family="Helvetica,sans-Serif" font-size="10.00">iconatlas</text>
</a>
</g>
</g>
<!-- dir_99d0482cf009f9d97a0877749b817f19&#45;&gt;dir_b47ddb3a0b86b791c0dd2682d4ed1094 -->
<g id="edge3" class="edge">
<title>dir_99d0482cf009f9d97a0877749b817f19&#45;&gt;dir_b47ddb3a0b86b791c0dd2682d4ed1094</title>
<path fill="none" stroke="black" d="M101.57,-231.7C109.2,-223.22 118.52,-212.86 126.88,-203.58"/>
<polygon fill="black" stroke="black" points="129.52,-205.88 133.61,-196.1 124.31,-201.2 129.52,-205.88"/>
<g id="a_edge3&#45;headlabel"><a xlink:href="dir_000004_000005.html" target="_top" xlink:title="3">
<text text-anchor="middle" x="129.22" y="-207.95" font-family="Helvetica,sans-Serif" font-size="10.00">3</text>
</a>
</g>
</g>
<!-- dir_b47ddb3a0b86b791c0dd2682d4ed1094&#45;&gt;dir_0b61c55142250c0cc363383afd8075a4 -->
<g id="edge6" class="edge">
<title>dir_b47ddb3a0b86b791c0dd2682d4ed1094&#45;&gt;dir_0b61c55142250c0cc363383afd8075a4</title>
<path fill="none" stroke="black" d="M131.7,-159.7C123.14,-151.14 112.66,-140.66 103.3,-131.3"/>
<polygon fill="black" stroke="black" points="105.65,-128.7 96.1,-124.1 100.7,-133.65 105.65,-128.7"/>
<g id="a_edge6&#45;headlabel"><a xlink:href="dir_000005_000001.html" target="_top" xlink:title="1">
<text text-anchor="middle" x="110.2" y="-126.73" font-family="Helvetica,sans-Serif" font-size="10.00">1</text>
</a>
</g>
</g>
<!-- dir_b47ddb3a0b86b791c0dd2682d4ed1094&#45;&gt;dir_405fd32de3649961a5f009c7a3fe84df -->
<g id="edge7" class="edge">
<title>dir_b47ddb3a0b86b791c0dd2682d4ed1094&#45;&gt;dir_405fd32de3649961a5f009c7a3fe84df</title>
<path fill="none" stroke="black" d="M165.98,-159.74C174.68,-149.98 184.73,-137.14 191,-124 200.36,-104.41 205.43,-80.28 208.12,-62.09"/>
<polygon fill="black" stroke="black" points="211.59,-62.52 209.44,-52.14 204.65,-61.59 211.59,-62.52"/>
<g id="a_edge7&#45;headlabel"><a xlink:href="dir_000005_000003.html" target="_top" xlink:title="2">
<text text-anchor="middle" x="213.93" y="-63.95" font-family="Helvetica,sans-Serif" font-size="10.00">2</text>
</a>
</g>
</g>
<!-- dir_a6a17ec937b4e07383dde71de6c9d000 -->
<g id="node7" class="node">
<title>dir_a6a17ec937b4e07383dde71de6c9d000</title>
<g id="a_node7"><a xlink:href="dir_a6a17ec937b4e07383dde71de6c9d000.html" target="_top" xlink:title="image">
<polygon fill="white" stroke="black" points="182,-124 128,-124 128,-88 182,-88 182,-124"/>
<text text-anchor="middle" x="155" y="-103.5" font-family="Helvetica,sans-Serif" font-size="10.00">image</text>
</a>
</g>
</g>
<!-- dir_b47ddb3a0b86b791c0dd2682d4ed1094&#45;&gt;dir_a6a17ec937b4e07383dde71de6c9d000 -->
<g id="edge8" class="edge">
<title>dir_b47ddb3a0b86b791c0dd2682d4ed1094&#45;&gt;dir_a6a17ec937b4e07383dde71de6c9d000</title>
<path fill="none" stroke="black" d="M150.48,-159.7C151.14,-151.98 151.94,-142.71 152.68,-134.11"/>
<polygon fill="black" stroke="black" points="156.17,-134.37 153.53,-124.1 149.19,-133.77 156.17,-134.37"/>
<g id="a_edge8&#45;headlabel"><a xlink:href="dir_000005_000006.html" target="_top" xlink:title="1">
<text text-anchor="middle" x="158.69" y="-135.69" font-family="Helvetica,sans-Serif" font-size="10.00">1</text>
</a>
</g>
</g>
<!-- dir_a6a17ec937b4e07383dde71de6c9d000&#45;&gt;dir_405fd32de3649961a5f009c7a3fe84df -->
<g id="edge13" class="edge">
<title>dir_a6a17ec937b4e07383dde71de6c9d000&#45;&gt;dir_405fd32de3649961a5f009c7a3fe84df</title>
<path fill="none" stroke="black" d="M168.84,-87.7C175.49,-79.39 183.58,-69.28 190.89,-60.14"/>
<polygon fill="black" stroke="black" points="193.8,-62.1 197.32,-52.1 188.34,-57.73 193.8,-62.1"/>
<g id="a_edge13&#45;headlabel"><a xlink:href="dir_000006_000003.html" target="_top" xlink:title="1">
<text text-anchor="middle" x="193.77" y="-64.18" font-family="Helvetica,sans-Serif" font-size="10.00">1</text>
</a>
</g>
</g>
<!-- dir_79769c2014326999657a5fac8224bdec -->
<g id="node8" class="node">
<title>dir_79769c2014326999657a5fac8224bdec</title>
<g id="a_node8"><a xlink:href="dir_79769c2014326999657a5fac8224bdec.html" target="_top" xlink:title="platformabstraction">
<polygon fill="white" stroke="red" points="220,-412 120,-412 120,-376 220,-376 220,-412"/>
<text text-anchor="middle" x="170" y="-391.5" font-family="Helvetica,sans-Serif" font-size="10.00">platformabstraction</text>
</a>
</g>
</g>
<!-- dir_79769c2014326999657a5fac8224bdec&#45;&gt;dir_14e1e259e8275dc0c459acef3bbf05ae -->
<g id="edge10" class="edge">
<title>dir_79769c2014326999657a5fac8224bdec&#45;&gt;dir_14e1e259e8275dc0c459acef3bbf05ae</title>
<path fill="none" stroke="black" d="M176.18,-375.7C179,-367.81 182.39,-358.3 185.52,-349.55"/>
<polygon fill="black" stroke="black" points="188.82,-350.7 188.89,-340.1 182.23,-348.34 188.82,-350.7"/>
<g id="a_edge10&#45;headlabel"><a xlink:href="dir_000007_000002.html" target="_top" xlink:title="2">
<text text-anchor="middle" x="190.29" y="-352.54" font-family="Helvetica,sans-Serif" font-size="10.00">2</text>
</a>
</g>
</g>
<!-- dir_79769c2014326999657a5fac8224bdec&#45;&gt;dir_405fd32de3649961a5f009c7a3fe84df -->
<g id="edge9" class="edge">
<title>dir_79769c2014326999657a5fac8224bdec&#45;&gt;dir_405fd32de3649961a5f009c7a3fe84df</title>
<path fill="none" stroke="black" d="M197.67,-375.94C209.97,-366.85 223.37,-354.53 231,-340 249.51,-304.76 241,-290.8 241,-251 241,-251 241,-251 241,-177 241,-136.16 228.97,-90.11 220.15,-61.82"/>
<polygon fill="black" stroke="black" points="223.46,-60.69 217.07,-52.24 216.8,-62.83 223.46,-60.69"/>
<g id="a_edge9&#45;headlabel"><a xlink:href="dir_000007_000003.html" target="_top" xlink:title="1">
<text text-anchor="middle" x="227.27" y="-60.74" font-family="Helvetica,sans-Serif" font-size="10.00">1</text>
</a>
</g>
</g>
<!-- dir_79769c2014326999657a5fac8224bdec&#45;&gt;dir_b47ddb3a0b86b791c0dd2682d4ed1094 -->
<g id="edge11" class="edge">
<title>dir_79769c2014326999657a5fac8224bdec&#45;&gt;dir_b47ddb3a0b86b791c0dd2682d4ed1094</title>
<path fill="none" stroke="black" d="M165.81,-375.92C163.44,-365.59 160.62,-352.11 159,-340 152.77,-293.57 150.41,-239.08 149.53,-206.88"/>
<polygon fill="black" stroke="black" points="153.02,-206.38 149.27,-196.47 146.02,-206.55 153.02,-206.38"/>
<g id="a_edge11&#45;headlabel"><a xlink:href="dir_000007_000005.html" target="_top" xlink:title="1">
<text text-anchor="middle" x="155.94" y="-207.41" font-family="Helvetica,sans-Serif" font-size="10.00">1</text>
</a>
</g>
</g>
<!-- dir_7bc5e25958a2fb25a8561f3aa0def6c5 -->
<g id="node9" class="node">
<title>dir_7bc5e25958a2fb25a8561f3aa0def6c5</title>
<g id="a_node9"><a xlink:href="dir_7bc5e25958a2fb25a8561f3aa0def6c5.html" target="_top" xlink:title="renderer">
<polygon fill="white" stroke="red" points="123,-484 69,-484 69,-448 123,-448 123,-484"/>
<text text-anchor="middle" x="96" y="-463.5" font-family="Helvetica,sans-Serif" font-size="10.00">renderer</text>
</a>
</g>
</g>
<!-- dir_7bc5e25958a2fb25a8561f3aa0def6c5&#45;&gt;dir_0b61c55142250c0cc363383afd8075a4 -->
<g id="edge14" class="edge">
<title>dir_7bc5e25958a2fb25a8561f3aa0def6c5&#45;&gt;dir_0b61c55142250c0cc363383afd8075a4</title>
<path fill="none" stroke="black" d="M78.86,-447.89C55.62,-422.8 17,-373.5 17,-323 17,-323 17,-323 17,-249 17,-205.5 41.74,-160.29 59.97,-132.89"/>
<polygon fill="black" stroke="black" points="63.08,-134.54 65.85,-124.31 57.31,-130.58 63.08,-134.54"/>
<g id="a_edge14&#45;headlabel"><a xlink:href="dir_000010_000001.html" target="_top" xlink:title="2">
<text text-anchor="middle" x="63.39" y="-136.61" font-family="Helvetica,sans-Serif" font-size="10.00">2</text>
</a>
</g>
</g>
<!-- dir_7bc5e25958a2fb25a8561f3aa0def6c5&#45;&gt;dir_405fd32de3649961a5f009c7a3fe84df -->
<g id="edge15" class="edge">
<title>dir_7bc5e25958a2fb25a8561f3aa0def6c5&#45;&gt;dir_405fd32de3649961a5f009c7a3fe84df</title>
<path fill="none" stroke="black" d="M123.27,-457.05C157.61,-446.55 213.93,-427.59 229,-412 258.21,-381.78 261,-365.03 261,-323 261,-323 261,-323 261,-177 261,-134.68 241,-89.09 226.3,-61.3"/>
<polygon fill="black" stroke="black" points="229.22,-59.35 221.36,-52.24 223.07,-62.7 229.22,-59.35"/>
<g id="a_edge15&#45;headlabel"><a xlink:href="dir_000010_000003.html" target="_top" xlink:title="12">
<text text-anchor="middle" x="233.43" y="-58.64" font-family="Helvetica,sans-Serif" font-size="10.00">12</text>
</a>
</g>
</g>
<!-- dir_7bc5e25958a2fb25a8561f3aa0def6c5&#45;&gt;dir_99d0482cf009f9d97a0877749b817f19 -->
<g id="edge17" class="edge">
<title>dir_7bc5e25958a2fb25a8561f3aa0def6c5&#45;&gt;dir_99d0482cf009f9d97a0877749b817f19</title>
<path fill="none" stroke="black" d="M86.87,-447.82C74.92,-424.28 54.62,-380.31 47,-340 44.03,-324.28 42.01,-319.2 47,-304 50.31,-293.91 56.37,-284.15 62.73,-275.82"/>
<polygon fill="black" stroke="black" points="65.5,-277.97 69.11,-268.01 60.08,-273.54 65.5,-277.97"/>
<g id="a_edge17&#45;headlabel"><a xlink:href="dir_000010_000004.html" target="_top" xlink:title="6">
<text text-anchor="middle" x="65.42" y="-280.05" font-family="Helvetica,sans-Serif" font-size="10.00">6</text>
</a>
</g>
</g>
<!-- dir_7bc5e25958a2fb25a8561f3aa0def6c5&#45;&gt;dir_79769c2014326999657a5fac8224bdec -->
<g id="edge16" class="edge">
<title>dir_7bc5e25958a2fb25a8561f3aa0def6c5&#45;&gt;dir_79769c2014326999657a5fac8224bdec</title>
<path fill="none" stroke="black" d="M114.29,-447.7C123.43,-439.05 134.64,-428.45 144.6,-419.03"/>
<polygon fill="black" stroke="black" points="147.06,-421.52 151.92,-412.1 142.25,-416.43 147.06,-421.52"/>
<g id="a_edge16&#45;headlabel"><a xlink:href="dir_000010_000007.html" target="_top" xlink:title="4">
<text text-anchor="middle" x="146.4" y="-423.55" font-family="Helvetica,sans-Serif" font-size="10.00">4</text>
</a>
</g>
</g>
<!-- dir_438ce348a9e71dddb6f75afbfd0ac1ff -->
<g id="node10" class="node">
<title>dir_438ce348a9e71dddb6f75afbfd0ac1ff</title>
<g id="a_node10"><a xlink:href="dir_438ce348a9e71dddb6f75afbfd0ac1ff.html" target="_top" xlink:title="svg&#45;drawings">
<polygon fill="white" stroke="black" points="130,-340 56,-340 56,-304 130,-304 130,-340"/>
<text text-anchor="middle" x="93" y="-319.5" font-family="Helvetica,sans-Serif" font-size="10.00">svg&#45;drawings</text>
</a>
</g>
</g>
<!-- dir_438ce348a9e71dddb6f75afbfd0ac1ff&#45;&gt;dir_99d0482cf009f9d97a0877749b817f19 -->
<g id="edge12" class="edge">
<title>dir_438ce348a9e71dddb6f75afbfd0ac1ff&#45;&gt;dir_99d0482cf009f9d97a0877749b817f19</title>
<path fill="none" stroke="black" d="M91.27,-303.7C90.5,-295.98 89.57,-286.71 88.71,-278.11"/>
<polygon fill="black" stroke="black" points="92.19,-277.71 87.71,-268.1 85.22,-278.4 92.19,-277.71"/>
<g id="a_edge12&#45;headlabel"><a xlink:href="dir_000020_000004.html" target="_top" xlink:title="8">
<text text-anchor="middle" x="95.37" y="-278.5" font-family="Helvetica,sans-Serif" font-size="10.00">8</text>
</a>
</g>
</g>
</g>
</svg>
