<?xml version="1.0" encoding="UTF-8" standalone="no"?>
<!DOCTYPE svg PUBLIC "-//W3C//DTD SVG 1.1//EN"
 "http://www.w3.org/Graphics/SVG/1.1/DTD/svg11.dtd">
<!-- Generated by graphviz version 2.44.0 ()
 -->
<!-- Title: src/renderer/opengl Pages: 1 -->
<svg width="133pt" height="295pt"
 viewBox="0.00 0.00 133.00 295.00" xmlns="http://www.w3.org/2000/svg" xmlns:xlink="http://www.w3.org/1999/xlink">
<g id="graph0" class="graph" transform="scale(1 1) rotate(0) translate(4 291)">
<title>src/renderer/opengl</title>
<g id="clust1" class="cluster">
<title>clusterdir_7bc5e25958a2fb25a8561f3aa0def6c5</title>
<g id="a_clust1"><a xlink:href="dir_7bc5e25958a2fb25a8561f3aa0def6c5.html" target="_top" xlink:title="renderer">
<polygon fill="#ddddee" stroke="black" points="8,-208 8,-279 78,-279 78,-208 8,-208"/>
<text text-anchor="middle" x="43" y="-267" font-family="Helvetica,sans-Serif" font-size="10.00">renderer</text>
</a>
</g>
</g>
<!-- dir_81ad5397e2f6e7d41ed68488a4d626a2 -->
<g id="node1" class="node">
<title>dir_81ad5397e2f6e7d41ed68488a4d626a2</title>
<g id="a_node1"><a xlink:href="dir_81ad5397e2f6e7d41ed68488a4d626a2.html" target="_top" xlink:title="opengl">
<polygon fill="#eeeeff" stroke="black" points="70,-252 16,-252 16,-216 70,-216 70,-252"/>
<text text-anchor="middle" x="43" y="-231.5" font-family="Helvetica,sans-Serif" font-size="10.00">opengl</text>
</a>
</g>
</g>
<!-- dir_0b61c55142250c0cc363383afd8075a4 -->
<g id="node2" class="node">
<title>dir_0b61c55142250c0cc363383afd8075a4</title>
<g id="a_node2"><a xlink:href="dir_0b61c55142250c0cc363383afd8075a4.html" target="_top" xlink:title="containers">
<polygon fill="none" stroke="black" points="85,-108 23,-108 23,-72 85,-72 85,-108"/>
<text text-anchor="middle" x="54" y="-87.5" font-family="Helvetica,sans-Serif" font-size="10.00">containers</text>
</a>
</g>
</g>
<!-- dir_81ad5397e2f6e7d41ed68488a4d626a2&#45;&gt;dir_0b61c55142250c0cc363383afd8075a4 -->
<g id="edge3" class="edge">
<title>dir_81ad5397e2f6e7d41ed68488a4d626a2&#45;&gt;dir_0b61c55142250c0cc363383afd8075a4</title>
<path fill="none" stroke="black" d="M44.33,-215.87C46.2,-191.67 49.65,-147.21 51.88,-118.39"/>
<polygon fill="black" stroke="black" points="55.39,-118.43 52.67,-108.19 48.41,-117.89 55.39,-118.43"/>
<g id="a_edge3&#45;headlabel"><a xlink:href="dir_000015_000001.html" target="_top" xlink:title="1">
<text text-anchor="middle" x="57.94" y="-119.73" font-family="Helvetica,sans-Serif" font-size="10.00">1</text>
</a>
</g>
</g>
<!-- dir_79769c2014326999657a5fac8224bdec -->
<g id="node3" class="node">
<title>dir_79769c2014326999657a5fac8224bdec</title>
<g id="a_node3"><a xlink:href="dir_79769c2014326999657a5fac8224bdec.html" target="_top" xlink:title="platformabstraction">
<polygon fill="none" stroke="red" points="104,-36 4,-36 4,0 104,0 104,-36"/>
<text text-anchor="middle" x="54" y="-15.5" font-family="Helvetica,sans-Serif" font-size="10.00">platformabstraction</text>
</a>
</g>
</g>
<!-- dir_81ad5397e2f6e7d41ed68488a4d626a2&#45;&gt;dir_79769c2014326999657a5fac8224bdec -->
<g id="edge4" class="edge">
<title>dir_81ad5397e2f6e7d41ed68488a4d626a2&#45;&gt;dir_79769c2014326999657a5fac8224bdec</title>
<path fill="none" stroke="black" d="M34.36,-215.67C20.63,-185.72 -2.96,-122.63 14,-72 17.35,-62 23.42,-52.38 29.83,-44.14"/>
<polygon fill="black" stroke="black" points="32.56,-46.33 36.27,-36.4 27.18,-41.85 32.56,-46.33"/>
<g id="a_edge4&#45;headlabel"><a xlink:href="dir_000015_000012.html" target="_top" xlink:title="9">
<text text-anchor="middle" x="32.44" y="-48.41" font-family="Helvetica,sans-Serif" font-size="10.00">9</text>
</a>
</g>
</g>
<!-- dir_99d0482cf009f9d97a0877749b817f19 -->
<g id="node4" class="node">
<title>dir_99d0482cf009f9d97a0877749b817f19</title>
<g id="a_node4"><a xlink:href="dir_99d0482cf009f9d97a0877749b817f19.html" target="_top" xlink:title="gui">
<polygon fill="none" stroke="red" points="125,-180 71,-180 71,-144 125,-144 125,-180"/>
<text text-anchor="middle" x="98" y="-159.5" font-family="Helvetica,sans-Serif" font-size="10.00">gui</text>
</a>
</g>
</g>
<!-- dir_81ad5397e2f6e7d41ed68488a4d626a2&#45;&gt;dir_99d0482cf009f9d97a0877749b817f19 -->
<g id="edge5" class="edge">
<title>dir_81ad5397e2f6e7d41ed68488a4d626a2&#45;&gt;dir_99d0482cf009f9d97a0877749b817f19</title>
<path fill="none" stroke="black" d="M56.6,-215.7C63.12,-207.39 71.07,-197.28 78.25,-188.14"/>
<polygon fill="black" stroke="black" points="81.13,-190.13 84.56,-180.1 75.63,-185.81 81.13,-190.13"/>
<g id="a_edge5&#45;headlabel"><a xlink:href="dir_000015_000004.html" target="_top" xlink:title="4">
<text text-anchor="middle" x="81.15" y="-192.21" font-family="Helvetica,sans-Serif" font-size="10.00">4</text>
</a>
</g>
</g>
<!-- dir_0b61c55142250c0cc363383afd8075a4&#45;&gt;dir_79769c2014326999657a5fac8224bdec -->
<g id="edge6" class="edge">
<title>dir_0b61c55142250c0cc363383afd8075a4&#45;&gt;dir_79769c2014326999657a5fac8224bdec</title>
<path fill="none" stroke="black" d="M54,-71.7C54,-63.98 54,-54.71 54,-46.11"/>
<polygon fill="black" stroke="black" points="57.5,-46.1 54,-36.1 50.5,-46.1 57.5,-46.1"/>
<g id="a_edge6&#45;headlabel"><a xlink:href="dir_000001_000012.html" target="_top" xlink:title="4">
<text text-anchor="middle" x="60.34" y="-47.2" font-family="Helvetica,sans-Serif" font-size="10.00">4</text>
</a>
</g>
</g>
<!-- dir_99d0482cf009f9d97a0877749b817f19&#45;&gt;dir_0b61c55142250c0cc363383afd8075a4 -->
<g id="edge1" class="edge">
<title>dir_99d0482cf009f9d97a0877749b817f19&#45;&gt;dir_0b61c55142250c0cc363383afd8075a4</title>
<path fill="none" stroke="black" d="M87.12,-143.7C82.01,-135.56 75.8,-125.69 70.16,-116.7"/>
<polygon fill="black" stroke="black" points="73.04,-114.71 64.75,-108.1 67.11,-118.43 73.04,-114.71"/>
<g id="a_edge1&#45;headlabel"><a xlink:href="dir_000004_000001.html" target="_top" xlink:title="2">
<text text-anchor="middle" x="77.35" y="-113.74" font-family="Helvetica,sans-Serif" font-size="10.00">2</text>
</a>
</g>
</g>
<!-- dir_99d0482cf009f9d97a0877749b817f19&#45;&gt;dir_79769c2014326999657a5fac8224bdec -->
<g id="edge2" class="edge">
<title>dir_99d0482cf009f9d97a0877749b817f19&#45;&gt;dir_79769c2014326999657a5fac8224bdec</title>
<path fill="none" stroke="black" d="M100.18,-143.69C101.83,-125.32 102.54,-95.72 94,-72 90.37,-61.91 84.09,-52.16 77.58,-43.83"/>
<polygon fill="black" stroke="black" points="80.16,-41.46 71.07,-36.01 74.78,-45.94 80.16,-41.46"/>
<g id="a_edge2&#45;headlabel"><a xlink:href="dir_000004_000012.html" target="_top" xlink:title="8">
<text text-anchor="middle" x="84.64" y="-39.91" font-family="Helvetica,sans-Serif" font-size="10.00">8</text>
</a>
</g>
</g>
</g>
</svg>
