<?xml version="1.0" encoding="UTF-8" standalone="no"?>
<!DOCTYPE svg PUBLIC "-//W3C//DTD SVG 1.1//EN"
 "http://www.w3.org/Graphics/SVG/1.1/DTD/svg11.dtd">
<!-- Generated by graphviz version 2.44.0 ()
 -->
<!-- Title: src Pages: 1 -->
<svg width="386pt" height="652pt"
 viewBox="0.00 0.00 386.00 652.00" xmlns="http://www.w3.org/2000/svg" xmlns:xlink="http://www.w3.org/1999/xlink">
<g id="graph0" class="graph" transform="scale(1 1) rotate(0) translate(4 648)">
<title>src</title>
<g id="clust1" class="cluster">
<title>clusterdir_68267d1309a1af8e8297ef4c3efbcdba</title>
<g id="a_clust1"><a xlink:href="dir_68267d1309a1af8e8297ef4c3efbcdba.html" target="_top">
<polygon fill="#eeeeff" stroke="black" points="8,-8 8,-636 370,-636 370,-8 8,-8"/>
</a>
</g>
</g>
<!-- dir_68267d1309a1af8e8297ef4c3efbcdba -->
<g id="node1" class="node">
<title>dir_68267d1309a1af8e8297ef4c3efbcdba</title>
<text text-anchor="middle" x="324" y="-607.5" font-family="Helvetica,sans-Serif" font-size="10.00">src</text>
</g>
<!-- dir_0b61c55142250c0cc363383afd8075a4 -->
<g id="node2" class="node">
<title>dir_0b61c55142250c0cc363383afd8075a4</title>
<g id="a_node2"><a xlink:href="dir_0b61c55142250c0cc363383afd8075a4.html" target="_top" xlink:title="containers">
<polygon fill="white" stroke="black" points="164,-124 102,-124 102,-88 164,-88 164,-124"/>
<text text-anchor="middle" x="133" y="-103.5" font-family="Helvetica,sans-Serif" font-size="10.00">containers</text>
</a>
</g>
</g>
<!-- dir_14e1e259e8275dc0c459acef3bbf05ae -->
<g id="node3" class="node">
<title>dir_14e1e259e8275dc0c459acef3bbf05ae</title>
<g id="a_node3"><a xlink:href="dir_14e1e259e8275dc0c459acef3bbf05ae.html" target="_top" xlink:title="events">
<polygon fill="white" stroke="black" points="156,-412 102,-412 102,-376 156,-376 156,-412"/>
<text text-anchor="middle" x="129" y="-391.5" font-family="Helvetica,sans-Serif" font-size="10.00">events</text>
</a>
</g>
</g>
<!-- dir_405fd32de3649961a5f009c7a3fe84df -->
<g id="node5" class="node">
<title>dir_405fd32de3649961a5f009c7a3fe84df</title>
<g id="a_node5"><a xlink:href="dir_405fd32de3649961a5f009c7a3fe84df.html" target="_top" xlink:title="geometry">
<polygon fill="white" stroke="black" points="277,-52 221,-52 221,-16 277,-16 277,-52"/>
<text text-anchor="middle" x="249" y="-31.5" font-family="Helvetica,sans-Serif" font-size="10.00">geometry</text>
</a>
</g>
</g>
<!-- dir_14e1e259e8275dc0c459acef3bbf05ae&#45;&gt;dir_405fd32de3649961a5f009c7a3fe84df -->
<g id="edge15" class="edge">
<title>dir_14e1e259e8275dc0c459acef3bbf05ae&#45;&gt;dir_405fd32de3649961a5f009c7a3fe84df</title>
<path fill="none" stroke="black" d="M101.84,-382.82C83.18,-374.33 59.58,-360.32 47,-340 26.04,-306.16 37,-290.8 37,-251 37,-251 37,-251 37,-177 37,-134.66 39.95,-116.79 71,-88 109.53,-52.28 171.12,-40.56 210.81,-36.76"/>
<polygon fill="black" stroke="black" points="211.22,-40.24 220.89,-35.92 210.64,-33.26 211.22,-40.24"/>
<g id="a_edge15&#45;headlabel"><a xlink:href="dir_000002_000005.html" target="_top" xlink:title="1">
<text text-anchor="middle" x="207.87" y="-40.86" font-family="Helvetica,sans-Serif" font-size="10.00">1</text>
</a>
</g>
</g>
<!-- dir_99d0482cf009f9d97a0877749b817f19 -->
<g id="node6" class="node">
<title>dir_99d0482cf009f9d97a0877749b817f19</title>
<g id="a_node6"><a xlink:href="dir_99d0482cf009f9d97a0877749b817f19.html" target="_top" xlink:title="gui">
<polygon fill="white" stroke="black" points="262,-268 208,-268 208,-232 262,-232 262,-268"/>
<text text-anchor="middle" x="235" y="-247.5" font-family="Helvetica,sans-Serif" font-size="10.00">gui</text>
</a>
</g>
</g>
<!-- dir_14e1e259e8275dc0c459acef3bbf05ae&#45;&gt;dir_99d0482cf009f9d97a0877749b817f19 -->
<g id="edge16" class="edge">
<title>dir_14e1e259e8275dc0c459acef3bbf05ae&#45;&gt;dir_99d0482cf009f9d97a0877749b817f19</title>
<path fill="none" stroke="black" d="M156.33,-386.93C180.47,-380 214.35,-366.07 231,-340 242.6,-321.83 242.76,-297.05 240.49,-278.26"/>
<polygon fill="black" stroke="black" points="243.93,-277.61 238.99,-268.24 237.01,-278.65 243.93,-277.61"/>
<g id="a_edge16&#45;headlabel"><a xlink:href="dir_000002_000006.html" target="_top" xlink:title="2">
<text text-anchor="middle" x="247.27" y="-278.25" font-family="Helvetica,sans-Serif" font-size="10.00">2</text>
</a>
</g>
</g>
<!-- dir_0abdee562046be6f5823d1ca8c3fd13c -->
<g id="node12" class="node">
<title>dir_0abdee562046be6f5823d1ca8c3fd13c</title>
<g id="a_node12"><a xlink:href="dir_0abdee562046be6f5823d1ca8c3fd13c.html" target="_top" xlink:title="widgets">
<polygon fill="white" stroke="black" points="110,-340 56,-340 56,-304 110,-304 110,-340"/>
<text text-anchor="middle" x="83" y="-319.5" font-family="Helvetica,sans-Serif" font-size="10.00">widgets</text>
</a>
</g>
</g>
<!-- dir_14e1e259e8275dc0c459acef3bbf05ae&#45;&gt;dir_0abdee562046be6f5823d1ca8c3fd13c -->
<g id="edge14" class="edge">
<title>dir_14e1e259e8275dc0c459acef3bbf05ae&#45;&gt;dir_0abdee562046be6f5823d1ca8c3fd13c</title>
<path fill="none" stroke="black" d="M111.71,-375.7C105.59,-367.64 98.97,-357.89 93.53,-348.98"/>
<polygon fill="black" stroke="black" points="96.41,-346.98 88.34,-340.1 90.36,-350.51 96.41,-346.98"/>
<g id="a_edge14&#45;headlabel"><a xlink:href="dir_000002_000007.html" target="_top" xlink:title="3">
<text text-anchor="middle" x="100.67" y="-346.15" font-family="Helvetica,sans-Serif" font-size="10.00">3</text>
</a>
</g>
</g>
<!-- dir_d427579e6d954d5fb6f37ea89b80f66e -->
<g id="node4" class="node">
<title>dir_d427579e6d954d5fb6f37ea89b80f66e</title>
<g id="a_node4"><a xlink:href="dir_d427579e6d954d5fb6f37ea89b80f66e.html" target="_top" xlink:title="font">
<polygon fill="white" stroke="red" points="268,-628 214,-628 214,-592 268,-592 268,-628"/>
<text text-anchor="middle" x="241" y="-607.5" font-family="Helvetica,sans-Serif" font-size="10.00">font</text>
</a>
</g>
</g>
<!-- dir_d427579e6d954d5fb6f37ea89b80f66e&#45;&gt;dir_0b61c55142250c0cc363383afd8075a4 -->
<g id="edge6" class="edge">
<title>dir_d427579e6d954d5fb6f37ea89b80f66e&#45;&gt;dir_0b61c55142250c0cc363383afd8075a4</title>
<path fill="none" stroke="black" d="M213.98,-604.89C154.4,-594.13 17,-559.32 17,-467 17,-467 17,-467 17,-393 17,-290.1 82.28,-180.63 114.9,-132.36"/>
<polygon fill="black" stroke="black" points="117.81,-134.3 120.59,-124.08 112.04,-130.34 117.81,-134.3"/>
<g id="a_edge6&#45;headlabel"><a xlink:href="dir_000003_000001.html" target="_top" xlink:title="1">
<text text-anchor="middle" x="118.12" y="-136.37" font-family="Helvetica,sans-Serif" font-size="10.00">1</text>
</a>
</g>
</g>
<!-- dir_d427579e6d954d5fb6f37ea89b80f66e&#45;&gt;dir_405fd32de3649961a5f009c7a3fe84df -->
<g id="edge7" class="edge">
<title>dir_d427579e6d954d5fb6f37ea89b80f66e&#45;&gt;dir_405fd32de3649961a5f009c7a3fe84df</title>
<path fill="none" stroke="black" d="M268.35,-596.85C293.33,-585.25 327.72,-567.84 337,-556 362.28,-523.76 361,-507.97 361,-467 361,-467 361,-467 361,-177 361,-136.55 365.88,-120.64 342,-88 328.39,-69.39 306.13,-56.38 286.81,-47.9"/>
<polygon fill="black" stroke="black" points="287.9,-44.56 277.32,-43.99 285.23,-51.03 287.9,-44.56"/>
<g id="a_edge7&#45;headlabel"><a xlink:href="dir_000003_000005.html" target="_top" xlink:title="1">
<text text-anchor="middle" x="292.3" y="-40.81" font-family="Helvetica,sans-Serif" font-size="10.00">1</text>
</a>
</g>
</g>
<!-- dir_7bc5e25958a2fb25a8561f3aa0def6c5 -->
<g id="node10" class="node">
<title>dir_7bc5e25958a2fb25a8561f3aa0def6c5</title>
<g id="a_node10"><a xlink:href="dir_7bc5e25958a2fb25a8561f3aa0def6c5.html" target="_top" xlink:title="renderer">
<polygon fill="white" stroke="red" points="328,-556 274,-556 274,-520 328,-520 328,-556"/>
<text text-anchor="middle" x="301" y="-535.5" font-family="Helvetica,sans-Serif" font-size="10.00">renderer</text>
</a>
</g>
</g>
<!-- dir_d427579e6d954d5fb6f37ea89b80f66e&#45;&gt;dir_7bc5e25958a2fb25a8561f3aa0def6c5 -->
<g id="edge8" class="edge">
<title>dir_d427579e6d954d5fb6f37ea89b80f66e&#45;&gt;dir_7bc5e25958a2fb25a8561f3aa0def6c5</title>
<path fill="none" stroke="black" d="M255.83,-591.7C263.02,-583.3 271.8,-573.07 279.69,-563.86"/>
<polygon fill="black" stroke="black" points="282.49,-565.97 286.34,-556.1 277.17,-561.42 282.49,-565.97"/>
<g id="a_edge8&#45;headlabel"><a xlink:href="dir_000003_000014.html" target="_top" xlink:title="1">
<text text-anchor="middle" x="282.31" y="-568.05" font-family="Helvetica,sans-Serif" font-size="10.00">1</text>
</a>
</g>
</g>
<!-- dir_99d0482cf009f9d97a0877749b817f19&#45;&gt;dir_0b61c55142250c0cc363383afd8075a4 -->
<g id="edge1" class="edge">
<title>dir_99d0482cf009f9d97a0877749b817f19&#45;&gt;dir_0b61c55142250c0cc363383afd8075a4</title>
<path fill="none" stroke="black" d="M222.7,-231.87C204.93,-207.14 171.96,-161.24 151.33,-132.51"/>
<polygon fill="black" stroke="black" points="154.02,-130.27 145.35,-124.19 148.34,-134.35 154.02,-130.27"/>
<g id="a_edge1&#45;headlabel"><a xlink:href="dir_000006_000001.html" target="_top" xlink:title="2">
<text text-anchor="middle" x="158.43" y="-129.03" font-family="Helvetica,sans-Serif" font-size="10.00">2</text>
</a>
</g>
</g>
<!-- dir_99d0482cf009f9d97a0877749b817f19&#45;&gt;dir_d427579e6d954d5fb6f37ea89b80f66e -->
<g id="edge5" class="edge">
<title>dir_99d0482cf009f9d97a0877749b817f19&#45;&gt;dir_d427579e6d954d5fb6f37ea89b80f66e</title>
<path fill="none" stroke="black" d="M237.44,-268.14C238.79,-278.5 240.32,-291.98 241,-304 246.78,-406.38 243.81,-528.4 242.03,-581.76"/>
<polygon fill="black" stroke="black" points="238.53,-581.67 241.68,-591.78 245.52,-581.91 238.53,-581.67"/>
<g id="a_edge5&#45;headlabel"><a xlink:href="dir_000006_000003.html" target="_top" xlink:title="2">
<text text-anchor="middle" x="235.82" y="-575.48" font-family="Helvetica,sans-Serif" font-size="10.00">2</text>
</a>
</g>
</g>
<!-- dir_99d0482cf009f9d97a0877749b817f19&#45;&gt;dir_405fd32de3649961a5f009c7a3fe84df -->
<g id="edge2" class="edge">
<title>dir_99d0482cf009f9d97a0877749b817f19&#45;&gt;dir_405fd32de3649961a5f009c7a3fe84df</title>
<path fill="none" stroke="black" d="M236.12,-231.85C238.54,-194.83 244.28,-107.18 247.21,-62.39"/>
<polygon fill="black" stroke="black" points="250.71,-62.44 247.87,-52.23 243.73,-61.98 250.71,-62.44"/>
<g id="a_edge2&#45;headlabel"><a xlink:href="dir_000006_000005.html" target="_top" xlink:title="11">
<text text-anchor="middle" x="253.31" y="-63.71" font-family="Helvetica,sans-Serif" font-size="10.00">11</text>
</a>
</g>
</g>
<!-- dir_b47ddb3a0b86b791c0dd2682d4ed1094 -->
<g id="node7" class="node">
<title>dir_b47ddb3a0b86b791c0dd2682d4ed1094</title>
<g id="a_node7"><a xlink:href="dir_b47ddb3a0b86b791c0dd2682d4ed1094.html" target="_top" xlink:title="iconatlas">
<polygon fill="white" stroke="black" points="307,-196 251,-196 251,-160 307,-160 307,-196"/>
<text text-anchor="middle" x="279" y="-175.5" font-family="Helvetica,sans-Serif" font-size="10.00">iconatlas</text>
</a>
</g>
</g>
<!-- dir_99d0482cf009f9d97a0877749b817f19&#45;&gt;dir_b47ddb3a0b86b791c0dd2682d4ed1094 -->
<g id="edge4" class="edge">
<title>dir_99d0482cf009f9d97a0877749b817f19&#45;&gt;dir_b47ddb3a0b86b791c0dd2682d4ed1094</title>
<path fill="none" stroke="black" d="M245.88,-231.7C250.99,-223.56 257.2,-213.69 262.84,-204.7"/>
<polygon fill="black" stroke="black" points="265.89,-206.43 268.25,-196.1 259.96,-202.71 265.89,-206.43"/>
<g id="a_edge4&#45;headlabel"><a xlink:href="dir_000006_000008.html" target="_top" xlink:title="3">
<text text-anchor="middle" x="266.38" y="-208.49" font-family="Helvetica,sans-Serif" font-size="10.00">3</text>
</a>
</g>
</g>
<!-- dir_99d0482cf009f9d97a0877749b817f19&#45;&gt;dir_7bc5e25958a2fb25a8561f3aa0def6c5 -->
<g id="edge3" class="edge">
<title>dir_99d0482cf009f9d97a0877749b817f19&#45;&gt;dir_7bc5e25958a2fb25a8561f3aa0def6c5</title>
<path fill="none" stroke="black" d="M255.33,-268.32C262.95,-278.3 270.53,-291.33 275,-304 300.21,-375.45 307.26,-465.49 305.82,-509.81"/>
<polygon fill="black" stroke="black" points="302.33,-509.63 305.3,-519.8 309.32,-510 302.33,-509.63"/>
<g id="a_edge3&#45;headlabel"><a xlink:href="dir_000006_000014.html" target="_top" xlink:title="6">
<text text-anchor="middle" x="299.68" y="-503.39" font-family="Helvetica,sans-Serif" font-size="10.00">6</text>
</a>
</g>
</g>
<!-- dir_b47ddb3a0b86b791c0dd2682d4ed1094&#45;&gt;dir_0b61c55142250c0cc363383afd8075a4 -->
<g id="edge17" class="edge">
<title>dir_b47ddb3a0b86b791c0dd2682d4ed1094&#45;&gt;dir_0b61c55142250c0cc363383afd8075a4</title>
<path fill="none" stroke="black" d="M250.85,-163.5C228.81,-152.93 197.86,-138.1 173.2,-126.28"/>
<polygon fill="black" stroke="black" points="174.63,-123.08 164.1,-121.91 171.6,-129.39 174.63,-123.08"/>
<g id="a_edge17&#45;headlabel"><a xlink:href="dir_000008_000001.html" target="_top" xlink:title="1">
<text text-anchor="middle" x="179.1" y="-119.57" font-family="Helvetica,sans-Serif" font-size="10.00">1</text>
</a>
</g>
</g>
<!-- dir_b47ddb3a0b86b791c0dd2682d4ed1094&#45;&gt;dir_405fd32de3649961a5f009c7a3fe84df -->
<g id="edge18" class="edge">
<title>dir_b47ddb3a0b86b791c0dd2682d4ed1094&#45;&gt;dir_405fd32de3649961a5f009c7a3fe84df</title>
<path fill="none" stroke="black" d="M271.21,-159.68C266.95,-149.49 261.95,-136.24 259,-124 254.12,-103.72 251.6,-80.25 250.32,-62.51"/>
<polygon fill="black" stroke="black" points="253.8,-62.04 249.67,-52.28 246.81,-62.48 253.8,-62.04"/>
<g id="a_edge18&#45;headlabel"><a xlink:href="dir_000008_000005.html" target="_top" xlink:title="2">
<text text-anchor="middle" x="256.86" y="-62.95" font-family="Helvetica,sans-Serif" font-size="10.00">2</text>
</a>
</g>
</g>
<!-- dir_a6a17ec937b4e07383dde71de6c9d000 -->
<g id="node8" class="node">
<title>dir_a6a17ec937b4e07383dde71de6c9d000</title>
<g id="a_node8"><a xlink:href="dir_a6a17ec937b4e07383dde71de6c9d000.html" target="_top" xlink:title="image">
<polygon fill="white" stroke="black" points="322,-124 268,-124 268,-88 322,-88 322,-124"/>
<text text-anchor="middle" x="295" y="-103.5" font-family="Helvetica,sans-Serif" font-size="10.00">image</text>
</a>
</g>
</g>
<!-- dir_b47ddb3a0b86b791c0dd2682d4ed1094&#45;&gt;dir_a6a17ec937b4e07383dde71de6c9d000 -->
<g id="edge20" class="edge">
<title>dir_b47ddb3a0b86b791c0dd2682d4ed1094&#45;&gt;dir_a6a17ec937b4e07383dde71de6c9d000</title>
<path fill="none" stroke="black" d="M282.96,-159.7C284.72,-151.98 286.84,-142.71 288.8,-134.11"/>
<polygon fill="black" stroke="black" points="292.27,-134.63 291.09,-124.1 285.45,-133.07 292.27,-134.63"/>
<g id="a_edge20&#45;headlabel"><a xlink:href="dir_000008_000009.html" target="_top" xlink:title="1">
<text text-anchor="middle" x="294.24" y="-136.27" font-family="Helvetica,sans-Serif" font-size="10.00">1</text>
</a>
</g>
</g>
<!-- dir_b47ddb3a0b86b791c0dd2682d4ed1094&#45;&gt;dir_7bc5e25958a2fb25a8561f3aa0def6c5 -->
<g id="edge19" class="edge">
<title>dir_b47ddb3a0b86b791c0dd2682d4ed1094&#45;&gt;dir_7bc5e25958a2fb25a8561f3aa0def6c5</title>
<path fill="none" stroke="black" d="M287.5,-196.01C299.77,-222.18 321,-274.21 321,-321 321,-395 321,-395 321,-395 321,-435.18 313.05,-481.13 307.18,-509.61"/>
<polygon fill="black" stroke="black" points="303.7,-509.11 305.05,-519.62 310.55,-510.57 303.7,-509.11"/>
<g id="a_edge19&#45;headlabel"><a xlink:href="dir_000008_000014.html" target="_top" xlink:title="2">
<text text-anchor="middle" x="301.67" y="-502.51" font-family="Helvetica,sans-Serif" font-size="10.00">2</text>
</a>
</g>
</g>
<!-- dir_a6a17ec937b4e07383dde71de6c9d000&#45;&gt;dir_405fd32de3649961a5f009c7a3fe84df -->
<g id="edge22" class="edge">
<title>dir_a6a17ec937b4e07383dde71de6c9d000&#45;&gt;dir_405fd32de3649961a5f009c7a3fe84df</title>
<path fill="none" stroke="black" d="M283.63,-87.7C278.28,-79.56 271.8,-69.69 265.89,-60.7"/>
<polygon fill="black" stroke="black" points="268.66,-58.54 260.24,-52.1 262.81,-62.38 268.66,-58.54"/>
<g id="a_edge22&#45;headlabel"><a xlink:href="dir_000009_000005.html" target="_top" xlink:title="1">
<text text-anchor="middle" x="273" y="-57.48" font-family="Helvetica,sans-Serif" font-size="10.00">1</text>
</a>
</g>
</g>
<!-- dir_4b68c2fef3e151b6b93d5e93b14f1857 -->
<g id="node9" class="node">
<title>dir_4b68c2fef3e151b6b93d5e93b14f1857</title>
<g id="a_node9"><a xlink:href="dir_4b68c2fef3e151b6b93d5e93b14f1857.html" target="_top" xlink:title="platform">
<polygon fill="white" stroke="red" points="212,-484 158,-484 158,-448 212,-448 212,-484"/>
<text text-anchor="middle" x="185" y="-463.5" font-family="Helvetica,sans-Serif" font-size="10.00">platform</text>
</a>
</g>
</g>
<!-- dir_4b68c2fef3e151b6b93d5e93b14f1857&#45;&gt;dir_14e1e259e8275dc0c459acef3bbf05ae -->
<g id="edge23" class="edge">
<title>dir_4b68c2fef3e151b6b93d5e93b14f1857&#45;&gt;dir_14e1e259e8275dc0c459acef3bbf05ae</title>
<path fill="none" stroke="black" d="M171.16,-447.7C164.51,-439.39 156.42,-429.28 149.11,-420.14"/>
<polygon fill="black" stroke="black" points="151.66,-417.73 142.68,-412.1 146.2,-422.1 151.66,-417.73"/>
<g id="a_edge23&#45;headlabel"><a xlink:href="dir_000010_000002.html" target="_top" xlink:title="2">
<text text-anchor="middle" x="156.13" y="-416.26" font-family="Helvetica,sans-Serif" font-size="10.00">2</text>
</a>
</g>
</g>
<!-- dir_4b68c2fef3e151b6b93d5e93b14f1857&#45;&gt;dir_b47ddb3a0b86b791c0dd2682d4ed1094 -->
<g id="edge25" class="edge">
<title>dir_4b68c2fef3e151b6b93d5e93b14f1857&#45;&gt;dir_b47ddb3a0b86b791c0dd2682d4ed1094</title>
<path fill="none" stroke="black" d="M194.92,-447.78C213.62,-414.38 253.72,-337.92 271,-268 275.99,-247.79 277.95,-224.33 278.68,-206.56"/>
<polygon fill="black" stroke="black" points="282.19,-206.42 278.99,-196.32 275.19,-206.21 282.19,-206.42"/>
<g id="a_edge25&#45;headlabel"><a xlink:href="dir_000010_000008.html" target="_top" xlink:title="1">
<text text-anchor="middle" x="284.91" y="-207.6" font-family="Helvetica,sans-Serif" font-size="10.00">1</text>
</a>
</g>
</g>
<!-- dir_4b68c2fef3e151b6b93d5e93b14f1857&#45;&gt;dir_0abdee562046be6f5823d1ca8c3fd13c -->
<g id="edge24" class="edge">
<title>dir_4b68c2fef3e151b6b93d5e93b14f1857&#45;&gt;dir_0abdee562046be6f5823d1ca8c3fd13c</title>
<path fill="none" stroke="black" d="M184.9,-447.73C183.98,-428.58 180.04,-397.56 165,-376 153.73,-359.85 135.8,-347.44 119.57,-338.7"/>
<polygon fill="black" stroke="black" points="120.78,-335.39 110.28,-333.98 117.61,-341.63 120.78,-335.39"/>
<g id="a_edge24&#45;headlabel"><a xlink:href="dir_000010_000007.html" target="_top" xlink:title="1">
<text text-anchor="middle" x="125.27" y="-331.99" font-family="Helvetica,sans-Serif" font-size="10.00">1</text>
</a>
</g>
</g>
<!-- dir_7bc5e25958a2fb25a8561f3aa0def6c5&#45;&gt;dir_0b61c55142250c0cc363383afd8075a4 -->
<g id="edge26" class="edge">
<title>dir_7bc5e25958a2fb25a8561f3aa0def6c5&#45;&gt;dir_0b61c55142250c0cc363383afd8075a4</title>
<path fill="none" stroke="black" d="M289.15,-519.86C267.98,-489.66 221.68,-425.49 177,-376 161.41,-358.73 148.47,-361.25 139,-340 122.94,-303.95 127.87,-187.56 131.13,-134.19"/>
<polygon fill="black" stroke="black" points="134.63,-134.31 131.77,-124.11 127.64,-133.87 134.63,-134.31"/>
<g id="a_edge26&#45;headlabel"><a xlink:href="dir_000014_000001.html" target="_top" xlink:title="1">
<text text-anchor="middle" x="137.23" y="-135.58" font-family="Helvetica,sans-Serif" font-size="10.00">1</text>
</a>
</g>
</g>
<!-- dir_7bc5e25958a2fb25a8561f3aa0def6c5&#45;&gt;dir_405fd32de3649961a5f009c7a3fe84df -->
<g id="edge27" class="edge">
<title>dir_7bc5e25958a2fb25a8561f3aa0def6c5&#45;&gt;dir_405fd32de3649961a5f009c7a3fe84df</title>
<path fill="none" stroke="black" d="M309.09,-519.95C320.78,-493.72 341,-441.61 341,-395 341,-395 341,-395 341,-177 341,-137.2 351.96,-121.84 331,-88 320.71,-71.37 303.04,-58.97 286.73,-50.36"/>
<polygon fill="black" stroke="black" points="287.87,-47.02 277.36,-45.72 284.77,-53.29 287.87,-47.02"/>
<g id="a_edge27&#45;headlabel"><a xlink:href="dir_000014_000005.html" target="_top" xlink:title="10">
<text text-anchor="middle" x="292.35" y="-43.57" font-family="Helvetica,sans-Serif" font-size="10.00">10</text>
</a>
</g>
</g>
<!-- dir_7bc5e25958a2fb25a8561f3aa0def6c5&#45;&gt;dir_99d0482cf009f9d97a0877749b817f19 -->
<g id="edge29" class="edge">
<title>dir_7bc5e25958a2fb25a8561f3aa0def6c5&#45;&gt;dir_99d0482cf009f9d97a0877749b817f19</title>
<path fill="none" stroke="black" d="M295.95,-519.8C290.3,-480.46 284.29,-381.34 257,-304 253.75,-294.8 248.86,-285.4 244.33,-277.12"/>
<polygon fill="black" stroke="black" points="247.37,-275.39 239.48,-268.32 241.25,-278.77 247.37,-275.39"/>
<g id="a_edge29&#45;headlabel"><a xlink:href="dir_000014_000006.html" target="_top" xlink:title="4">
<text text-anchor="middle" x="251.6" y="-274.66" font-family="Helvetica,sans-Serif" font-size="10.00">4</text>
</a>
</g>
</g>
<!-- dir_7bc5e25958a2fb25a8561f3aa0def6c5&#45;&gt;dir_4b68c2fef3e151b6b93d5e93b14f1857 -->
<g id="edge28" class="edge">
<title>dir_7bc5e25958a2fb25a8561f3aa0def6c5&#45;&gt;dir_4b68c2fef3e151b6b93d5e93b14f1857</title>
<path fill="none" stroke="black" d="M273.8,-520.59C257.95,-511.02 237.77,-498.85 220.66,-488.52"/>
<polygon fill="black" stroke="black" points="222.4,-485.48 212.03,-483.31 218.78,-491.47 222.4,-485.48"/>
<g id="a_edge28&#45;headlabel"><a xlink:href="dir_000014_000010.html" target="_top" xlink:title="1">
<text text-anchor="middle" x="226.94" y="-482.41" font-family="Helvetica,sans-Serif" font-size="10.00">1</text>
</a>
</g>
</g>
<!-- dir_438ce348a9e71dddb6f75afbfd0ac1ff -->
<g id="node11" class="node">
<title>dir_438ce348a9e71dddb6f75afbfd0ac1ff</title>
<g id="a_node11"><a xlink:href="dir_438ce348a9e71dddb6f75afbfd0ac1ff.html" target="_top" xlink:title="svg&#45;drawings">
<polygon fill="white" stroke="black" points="222,-340 148,-340 148,-304 222,-304 222,-340"/>
<text text-anchor="middle" x="185" y="-319.5" font-family="Helvetica,sans-Serif" font-size="10.00">svg&#45;drawings</text>
</a>
</g>
</g>
<!-- dir_438ce348a9e71dddb6f75afbfd0ac1ff&#45;&gt;dir_99d0482cf009f9d97a0877749b817f19 -->
<g id="edge21" class="edge">
<title>dir_438ce348a9e71dddb6f75afbfd0ac1ff&#45;&gt;dir_99d0482cf009f9d97a0877749b817f19</title>
<path fill="none" stroke="black" d="M197.36,-303.7C203.23,-295.47 210.37,-285.48 216.84,-276.42"/>
<polygon fill="black" stroke="black" points="219.82,-278.28 222.78,-268.1 214.12,-274.21 219.82,-278.28"/>
<g id="a_edge21&#45;headlabel"><a xlink:href="dir_000019_000006.html" target="_top" xlink:title="6">
<text text-anchor="middle" x="220.04" y="-280.35" font-family="Helvetica,sans-Serif" font-size="10.00">6</text>
</a>
</g>
</g>
<!-- dir_0abdee562046be6f5823d1ca8c3fd13c&#45;&gt;dir_0b61c55142250c0cc363383afd8075a4 -->
<g id="edge9" class="edge">
<title>dir_0abdee562046be6f5823d1ca8c3fd13c&#45;&gt;dir_0b61c55142250c0cc363383afd8075a4</title>
<path fill="none" stroke="black" d="M87.01,-303.85C95.67,-266.75 116.22,-178.81 126.67,-134.1"/>
<polygon fill="black" stroke="black" points="130.11,-134.77 128.97,-124.23 123.29,-133.17 130.11,-134.77"/>
<g id="a_edge9&#45;headlabel"><a xlink:href="dir_000007_000001.html" target="_top" xlink:title="4">
<text text-anchor="middle" x="132.05" y="-136.41" font-family="Helvetica,sans-Serif" font-size="10.00">4</text>
</a>
</g>
</g>
<!-- dir_0abdee562046be6f5823d1ca8c3fd13c&#45;&gt;dir_14e1e259e8275dc0c459acef3bbf05ae -->
<g id="edge10" class="edge">
<title>dir_0abdee562046be6f5823d1ca8c3fd13c&#45;&gt;dir_14e1e259e8275dc0c459acef3bbf05ae</title>
<path fill="none" stroke="black" d="M100.14,-340.1C106.25,-348.13 112.87,-357.87 118.34,-366.8"/>
<polygon fill="black" stroke="black" points="115.47,-368.83 123.54,-375.7 121.52,-365.3 115.47,-368.83"/>
<g id="a_edge10&#45;headlabel"><a xlink:href="dir_000007_000002.html" target="_top" xlink:title="7">
<text text-anchor="middle" x="111.21" y="-364.66" font-family="Helvetica,sans-Serif" font-size="10.00">7</text>
</a>
</g>
</g>
<!-- dir_0abdee562046be6f5823d1ca8c3fd13c&#45;&gt;dir_d427579e6d954d5fb6f37ea89b80f66e -->
<g id="edge13" class="edge">
<title>dir_0abdee562046be6f5823d1ca8c3fd13c&#45;&gt;dir_d427579e6d954d5fb6f37ea89b80f66e</title>
<path fill="none" stroke="black" d="M82.3,-340.04C82.13,-358.44 83.59,-388.3 93,-412 120.97,-482.41 181.07,-549.69 215.46,-584.46"/>
<polygon fill="black" stroke="black" points="213.25,-587.2 222.8,-591.78 218.19,-582.24 213.25,-587.2"/>
<g id="a_edge13&#45;headlabel"><a xlink:href="dir_000007_000003.html" target="_top" xlink:title="2">
<text text-anchor="middle" x="208.7" y="-584.17" font-family="Helvetica,sans-Serif" font-size="10.00">2</text>
</a>
</g>
</g>
<!-- dir_0abdee562046be6f5823d1ca8c3fd13c&#45;&gt;dir_405fd32de3649961a5f009c7a3fe84df -->
<g id="edge11" class="edge">
<title>dir_0abdee562046be6f5823d1ca8c3fd13c&#45;&gt;dir_405fd32de3649961a5f009c7a3fe84df</title>
<path fill="none" stroke="black" d="M77.86,-303.94C66.42,-262.28 43.59,-153.94 93,-88 120.24,-51.65 173.73,-40 210.41,-36.4"/>
<polygon fill="black" stroke="black" points="211.05,-39.86 220.74,-35.55 210.48,-32.88 211.05,-39.86"/>
<g id="a_edge11&#45;headlabel"><a xlink:href="dir_000007_000005.html" target="_top" xlink:title="6">
<text text-anchor="middle" x="207.7" y="-40.48" font-family="Helvetica,sans-Serif" font-size="10.00">6</text>
</a>
</g>
</g>
<!-- dir_0abdee562046be6f5823d1ca8c3fd13c&#45;&gt;dir_99d0482cf009f9d97a0877749b817f19 -->
<g id="edge12" class="edge">
<title>dir_0abdee562046be6f5823d1ca8c3fd13c&#45;&gt;dir_99d0482cf009f9d97a0877749b817f19</title>
<path fill="none" stroke="black" d="M110.17,-308.49C134.85,-297.12 171.43,-280.28 198.61,-267.76"/>
<polygon fill="black" stroke="black" points="200.19,-270.89 207.8,-263.52 197.26,-264.53 200.19,-270.89"/>
<g id="a_edge12&#45;headlabel"><a xlink:href="dir_000007_000006.html" target="_top" xlink:title="6">
<text text-anchor="middle" x="198.11" y="-272.47" font-family="Helvetica,sans-Serif" font-size="10.00">6</text>
</a>
</g>
</g>
</g>
</svg>
