<?xml version="1.0" encoding="UTF-8" standalone="no"?>
<!DOCTYPE svg PUBLIC "-//W3C//DTD SVG 1.1//EN"
 "http://www.w3.org/Graphics/SVG/1.1/DTD/svg11.dtd">
<!-- Generated by graphviz version 2.44.0 ()
 -->
<!-- Title: src/platformabstraction/qt Pages: 1 -->
<svg width="179pt" height="151pt"
 viewBox="0.00 0.00 179.00 151.00" xmlns="http://www.w3.org/2000/svg" xmlns:xlink="http://www.w3.org/1999/xlink">
<g id="graph0" class="graph" transform="scale(1 1) rotate(0) translate(4 147)">
<title>src/platformabstraction/qt</title>
<g id="clust1" class="cluster">
<title>clusterdir_79769c2014326999657a5fac8224bdec</title>
<g id="a_clust1"><a xlink:href="dir_79769c2014326999657a5fac8224bdec.html" target="_top" xlink:title="platformabstraction">
<polygon fill="#ddddee" stroke="black" points="8,-64 8,-135 108,-135 108,-64 8,-64"/>
<text text-anchor="middle" x="58" y="-123" font-family="Helvetica,sans-Serif" font-size="10.00">platformabstraction</text>
</a>
</g>
</g>
<!-- dir_ffbadbfe2cec8b9fbf400e495e1b4bf5 -->
<g id="node1" class="node">
<title>dir_ffbadbfe2cec8b9fbf400e495e1b4bf5</title>
<g id="a_node1"><a xlink:href="dir_ffbadbfe2cec8b9fbf400e495e1b4bf5.html" target="_top" xlink:title="qt">
<polygon fill="#eeeeff" stroke="black" points="99,-108 45,-108 45,-72 99,-72 99,-108"/>
<text text-anchor="middle" x="72" y="-87.5" font-family="Helvetica,sans-Serif" font-size="10.00">qt</text>
</a>
</g>
</g>
<!-- dir_14e1e259e8275dc0c459acef3bbf05ae -->
<g id="node2" class="node">
<title>dir_14e1e259e8275dc0c459acef3bbf05ae</title>
<g id="a_node2"><a xlink:href="dir_14e1e259e8275dc0c459acef3bbf05ae.html" target="_top" xlink:title="events">
<polygon fill="none" stroke="black" points="171,-108 117,-108 117,-72 171,-72 171,-108"/>
<text text-anchor="middle" x="144" y="-87.5" font-family="Helvetica,sans-Serif" font-size="10.00">events</text>
</a>
</g>
</g>
<!-- dir_ffbadbfe2cec8b9fbf400e495e1b4bf5&#45;&gt;dir_14e1e259e8275dc0c459acef3bbf05ae -->
<g id="edge2" class="edge">
<title>dir_ffbadbfe2cec8b9fbf400e495e1b4bf5&#45;&gt;dir_14e1e259e8275dc0c459acef3bbf05ae</title>
<path fill="none" stroke="black" d="M99.28,-90C101.74,-90 104.19,-90 106.65,-90"/>
<polygon fill="black" stroke="black" points="106.75,-93.5 116.75,-90 106.75,-86.5 106.75,-93.5"/>
<g id="a_edge2&#45;headlabel"><a xlink:href="dir_000014_000002.html" target="_top" xlink:title="1">
<text text-anchor="middle" x="103.15" y="-93.84" font-family="Helvetica,sans-Serif" font-size="10.00">1</text>
</a>
</g>
</g>
<!-- dir_405fd32de3649961a5f009c7a3fe84df -->
<g id="node3" class="node">
<title>dir_405fd32de3649961a5f009c7a3fe84df</title>
<g id="a_node3"><a xlink:href="dir_405fd32de3649961a5f009c7a3fe84df.html" target="_top" xlink:title="geometry">
<polygon fill="none" stroke="black" points="136,-36 80,-36 80,0 136,0 136,-36"/>
<text text-anchor="middle" x="108" y="-15.5" font-family="Helvetica,sans-Serif" font-size="10.00">geometry</text>
</a>
</g>
</g>
<!-- dir_ffbadbfe2cec8b9fbf400e495e1b4bf5&#45;&gt;dir_405fd32de3649961a5f009c7a3fe84df -->
<g id="edge3" class="edge">
<title>dir_ffbadbfe2cec8b9fbf400e495e1b4bf5&#45;&gt;dir_405fd32de3649961a5f009c7a3fe84df</title>
<path fill="none" stroke="black" d="M74.98,-71.7C78.29,-63.64 83.1,-53.89 88.09,-44.98"/>
<polygon fill="black" stroke="black" points="91.26,-46.5 93.31,-36.1 85.22,-42.95 91.26,-46.5"/>
<g id="a_edge3&#45;headlabel"><a xlink:href="dir_000014_000003.html" target="_top" xlink:title="1">
<text text-anchor="middle" x="91.89" y="-48.54" font-family="Helvetica,sans-Serif" font-size="10.00">1</text>
</a>
</g>
</g>
<!-- dir_14e1e259e8275dc0c459acef3bbf05ae&#45;&gt;dir_ffbadbfe2cec8b9fbf400e495e1b4bf5 -->
<g id="edge5" class="edge">
<title>dir_14e1e259e8275dc0c459acef3bbf05ae&#45;&gt;dir_ffbadbfe2cec8b9fbf400e495e1b4bf5</title>
<path fill="none" stroke="black" d="M116.75,-90C114.29,-90 111.84,-90 109.38,-90"/>
<polygon fill="black" stroke="black" points="109.28,-86.5 99.28,-90 109.28,-93.5 109.28,-86.5"/>
<g id="a_edge5&#45;headlabel"><a xlink:href="dir_000002_000014.html" target="_top" xlink:title="3">
<text text-anchor="middle" x="112.88" y="-81.16" font-family="Helvetica,sans-Serif" font-size="10.00">3</text>
</a>
</g>
</g>
<!-- dir_14e1e259e8275dc0c459acef3bbf05ae&#45;&gt;dir_405fd32de3649961a5f009c7a3fe84df -->
<g id="edge4" class="edge">
<title>dir_14e1e259e8275dc0c459acef3bbf05ae&#45;&gt;dir_405fd32de3649961a5f009c7a3fe84df</title>
<path fill="none" stroke="black" d="M135.1,-71.7C131,-63.73 126.05,-54.1 121.51,-45.26"/>
<polygon fill="black" stroke="black" points="124.48,-43.4 116.8,-36.1 118.26,-46.6 124.48,-43.4"/>
<g id="a_edge4&#45;headlabel"><a xlink:href="dir_000002_000003.html" target="_top" xlink:title="1">
<text text-anchor="middle" x="128.65" y="-42.79" font-family="Helvetica,sans-Serif" font-size="10.00">1</text>
</a>
</g>
</g>
<!-- dir_405fd32de3649961a5f009c7a3fe84df&#45;&gt;dir_ffbadbfe2cec8b9fbf400e495e1b4bf5 -->
<g id="edge1" class="edge">
<title>dir_405fd32de3649961a5f009c7a3fe84df&#45;&gt;dir_ffbadbfe2cec8b9fbf400e495e1b4bf5</title>
<path fill="none" stroke="black" d="M105.1,-36.1C101.81,-44.13 97.02,-53.87 92.03,-62.8"/>
<polygon fill="black" stroke="black" points="88.85,-61.3 86.81,-71.7 94.89,-64.84 88.85,-61.3"/>
<g id="a_edge1&#45;headlabel"><a xlink:href="dir_000003_000014.html" target="_top" xlink:title="2">
<text text-anchor="middle" x="88.22" y="-54.26" font-family="Helvetica,sans-Serif" font-size="10.00">2</text>
</a>
</g>
</g>
</g>
</svg>
