<?xml version="1.0" encoding="UTF-8" standalone="no"?>
<!DOCTYPE svg PUBLIC "-//W3C//DTD SVG 1.1//EN"
 "http://www.w3.org/Graphics/SVG/1.1/DTD/svg11.dtd">
<!-- Generated by graphviz version 2.44.0 ()
 -->
<!-- Title: src/renderer/opengl/vectordraw Pages: 1 -->
<svg width="146pt" height="223pt"
 viewBox="0.00 0.00 146.00 223.00" xmlns="http://www.w3.org/2000/svg" xmlns:xlink="http://www.w3.org/1999/xlink">
<g id="graph0" class="graph" transform="scale(1 1) rotate(0) translate(4 219)">
<title>src/renderer/opengl/vectordraw</title>
<g id="clust1" class="cluster">
<title>clusterdir_81ad5397e2f6e7d41ed68488a4d626a2</title>
<g id="a_clust1"><a xlink:href="dir_81ad5397e2f6e7d41ed68488a4d626a2.html" target="_top" xlink:title="opengl">
<polygon fill="#ddddee" stroke="black" points="8,-136 8,-207 90,-207 90,-136 8,-136"/>
<text text-anchor="middle" x="49" y="-195" font-family="Helvetica,sans-Serif" font-size="10.00">opengl</text>
</a>
</g>
</g>
<!-- dir_4c0facc00c42e639011e1ce7e2c1e1d4 -->
<g id="node1" class="node">
<title>dir_4c0facc00c42e639011e1ce7e2c1e1d4</title>
<g id="a_node1"><a xlink:href="dir_4c0facc00c42e639011e1ce7e2c1e1d4.html" target="_top" xlink:title="vectordraw">
<polygon fill="#eeeeff" stroke="black" points="81.5,-180 16.5,-180 16.5,-144 81.5,-144 81.5,-180"/>
<text text-anchor="middle" x="49" y="-159.5" font-family="Helvetica,sans-Serif" font-size="10.00">vectordraw</text>
</a>
</g>
</g>
<!-- dir_405fd32de3649961a5f009c7a3fe84df -->
<g id="node2" class="node">
<title>dir_405fd32de3649961a5f009c7a3fe84df</title>
<g id="a_node2"><a xlink:href="dir_405fd32de3649961a5f009c7a3fe84df.html" target="_top" xlink:title="geometry">
<polygon fill="none" stroke="black" points="77,-36 21,-36 21,0 77,0 77,-36"/>
<text text-anchor="middle" x="49" y="-15.5" font-family="Helvetica,sans-Serif" font-size="10.00">geometry</text>
</a>
</g>
</g>
<!-- dir_4c0facc00c42e639011e1ce7e2c1e1d4&#45;&gt;dir_405fd32de3649961a5f009c7a3fe84df -->
<g id="edge2" class="edge">
<title>dir_4c0facc00c42e639011e1ce7e2c1e1d4&#45;&gt;dir_405fd32de3649961a5f009c7a3fe84df</title>
<path fill="none" stroke="black" d="M40.69,-143.79C36.26,-133.63 31.26,-120.38 29,-108 26.13,-92.26 26.13,-87.74 29,-72 30.61,-63.2 33.6,-53.95 36.79,-45.7"/>
<polygon fill="black" stroke="black" points="40.12,-46.79 40.69,-36.21 33.65,-44.12 40.12,-46.79"/>
<g id="a_edge2&#45;headlabel"><a xlink:href="dir_000017_000003.html" target="_top" xlink:title="2">
<text text-anchor="middle" x="41.38" y="-48.7" font-family="Helvetica,sans-Serif" font-size="10.00">2</text>
</a>
</g>
</g>
<!-- dir_79769c2014326999657a5fac8224bdec -->
<g id="node3" class="node">
<title>dir_79769c2014326999657a5fac8224bdec</title>
<g id="a_node3"><a xlink:href="dir_79769c2014326999657a5fac8224bdec.html" target="_top" xlink:title="platformabstraction">
<polygon fill="none" stroke="red" points="138,-108 38,-108 38,-72 138,-72 138,-108"/>
<text text-anchor="middle" x="88" y="-87.5" font-family="Helvetica,sans-Serif" font-size="10.00">platformabstraction</text>
</a>
</g>
</g>
<!-- dir_4c0facc00c42e639011e1ce7e2c1e1d4&#45;&gt;dir_79769c2014326999657a5fac8224bdec -->
<g id="edge3" class="edge">
<title>dir_4c0facc00c42e639011e1ce7e2c1e1d4&#45;&gt;dir_79769c2014326999657a5fac8224bdec</title>
<path fill="none" stroke="black" d="M58.64,-143.7C63.13,-135.64 68.56,-125.89 73.52,-116.98"/>
<polygon fill="black" stroke="black" points="76.66,-118.54 78.47,-108.1 70.55,-115.14 76.66,-118.54"/>
<g id="a_edge3&#45;headlabel"><a xlink:href="dir_000017_000009.html" target="_top" xlink:title="1">
<text text-anchor="middle" x="77.39" y="-120.57" font-family="Helvetica,sans-Serif" font-size="10.00">1</text>
</a>
</g>
</g>
<!-- dir_79769c2014326999657a5fac8224bdec&#45;&gt;dir_405fd32de3649961a5f009c7a3fe84df -->
<g id="edge1" class="edge">
<title>dir_79769c2014326999657a5fac8224bdec&#45;&gt;dir_405fd32de3649961a5f009c7a3fe84df</title>
<path fill="none" stroke="black" d="M78.36,-71.7C73.87,-63.64 68.44,-53.89 63.48,-44.98"/>
<polygon fill="black" stroke="black" points="66.45,-43.14 58.53,-36.1 60.34,-46.54 66.45,-43.14"/>
<g id="a_edge1&#45;headlabel"><a xlink:href="dir_000009_000003.html" target="_top" xlink:title="1">
<text text-anchor="middle" x="70.68" y="-42.39" font-family="Helvetica,sans-Serif" font-size="10.00">1</text>
</a>
</g>
</g>
</g>
</svg>
