<?xml version="1.0" encoding="UTF-8" standalone="no"?>
<!DOCTYPE svg PUBLIC "-//W3C//DTD SVG 1.1//EN"
 "http://www.w3.org/Graphics/SVG/1.1/DTD/svg11.dtd">
<!-- Generated by graphviz version 2.44.0 ()
 -->
<!-- Title: src/gui Pages: 1 -->
<svg width="176pt" height="311pt"
 viewBox="0.00 0.00 176.00 311.00" xmlns="http://www.w3.org/2000/svg" xmlns:xlink="http://www.w3.org/1999/xlink">
<g id="graph0" class="graph" transform="scale(1 1) rotate(0) translate(4 307)">
<title>src/gui</title>
<g id="clust1" class="cluster">
<title>clusterdir_68267d1309a1af8e8297ef4c3efbcdba</title>
<g id="a_clust1"><a xlink:href="dir_68267d1309a1af8e8297ef4c3efbcdba.html" target="_top" xlink:title="src">
<polygon fill="#ddddee" stroke="black" points="8,-8 8,-295 160,-295 160,-8 8,-8"/>
<text text-anchor="middle" x="84" y="-283" font-family="Helvetica,sans-Serif" font-size="10.00">src</text>
</a>
</g>
</g>
<!-- dir_0b61c55142250c0cc363383afd8075a4 -->
<g id="node1" class="node">
<title>dir_0b61c55142250c0cc363383afd8075a4</title>
<g id="a_node1"><a xlink:href="dir_0b61c55142250c0cc363383afd8075a4.html" target="_top" xlink:title="containers">
<polygon fill="none" stroke="black" points="78,-52 16,-52 16,-16 78,-16 78,-52"/>
<text text-anchor="middle" x="47" y="-31.5" font-family="Helvetica,sans-Serif" font-size="10.00">containers</text>
</a>
</g>
</g>
<!-- dir_405fd32de3649961a5f009c7a3fe84df -->
<g id="node2" class="node">
<title>dir_405fd32de3649961a5f009c7a3fe84df</title>
<g id="a_node2"><a xlink:href="dir_405fd32de3649961a5f009c7a3fe84df.html" target="_top" xlink:title="geometry">
<polygon fill="none" stroke="black" points="152,-52 96,-52 96,-16 152,-16 152,-52"/>
<text text-anchor="middle" x="124" y="-31.5" font-family="Helvetica,sans-Serif" font-size="10.00">geometry</text>
</a>
</g>
</g>
<!-- dir_7bc5e25958a2fb25a8561f3aa0def6c5 -->
<g id="node3" class="node">
<title>dir_7bc5e25958a2fb25a8561f3aa0def6c5</title>
<g id="a_node3"><a xlink:href="dir_7bc5e25958a2fb25a8561f3aa0def6c5.html" target="_top" xlink:title="renderer">
<polygon fill="none" stroke="red" points="132,-124 78,-124 78,-88 132,-88 132,-124"/>
<text text-anchor="middle" x="105" y="-103.5" font-family="Helvetica,sans-Serif" font-size="10.00">renderer</text>
</a>
</g>
</g>
<!-- dir_7bc5e25958a2fb25a8561f3aa0def6c5&#45;&gt;dir_0b61c55142250c0cc363383afd8075a4 -->
<g id="edge8" class="edge">
<title>dir_7bc5e25958a2fb25a8561f3aa0def6c5&#45;&gt;dir_0b61c55142250c0cc363383afd8075a4</title>
<path fill="none" stroke="black" d="M90.66,-87.7C83.71,-79.3 75.23,-69.07 67.6,-59.86"/>
<polygon fill="black" stroke="black" points="70.25,-57.57 61.17,-52.1 64.86,-62.04 70.25,-57.57"/>
<g id="a_edge8&#45;headlabel"><a xlink:href="dir_000010_000001.html" target="_top" xlink:title="1">
<text text-anchor="middle" x="74.73" y="-56.03" font-family="Helvetica,sans-Serif" font-size="10.00">1</text>
</a>
</g>
</g>
<!-- dir_7bc5e25958a2fb25a8561f3aa0def6c5&#45;&gt;dir_405fd32de3649961a5f009c7a3fe84df -->
<g id="edge9" class="edge">
<title>dir_7bc5e25958a2fb25a8561f3aa0def6c5&#45;&gt;dir_405fd32de3649961a5f009c7a3fe84df</title>
<path fill="none" stroke="black" d="M109.7,-87.7C111.81,-79.9 114.36,-70.51 116.72,-61.83"/>
<polygon fill="black" stroke="black" points="120.12,-62.67 119.36,-52.1 113.36,-60.84 120.12,-62.67"/>
<g id="a_edge9&#45;headlabel"><a xlink:href="dir_000010_000003.html" target="_top" xlink:title="10">
<text text-anchor="middle" x="121.91" y="-64.38" font-family="Helvetica,sans-Serif" font-size="10.00">10</text>
</a>
</g>
</g>
<!-- dir_b47ddb3a0b86b791c0dd2682d4ed1094 -->
<g id="node4" class="node">
<title>dir_b47ddb3a0b86b791c0dd2682d4ed1094</title>
<g id="a_node4"><a xlink:href="dir_b47ddb3a0b86b791c0dd2682d4ed1094.html" target="_top" xlink:title="iconatlas">
<polygon fill="none" stroke="black" points="93,-196 37,-196 37,-160 93,-160 93,-196"/>
<text text-anchor="middle" x="65" y="-175.5" font-family="Helvetica,sans-Serif" font-size="10.00">iconatlas</text>
</a>
</g>
</g>
<!-- dir_b47ddb3a0b86b791c0dd2682d4ed1094&#45;&gt;dir_0b61c55142250c0cc363383afd8075a4 -->
<g id="edge5" class="edge">
<title>dir_b47ddb3a0b86b791c0dd2682d4ed1094&#45;&gt;dir_0b61c55142250c0cc363383afd8075a4</title>
<path fill="none" stroke="black" d="M60.88,-159.91C58.53,-149.57 55.72,-136.09 54,-124 51.07,-103.41 49.28,-79.96 48.25,-62.3"/>
<polygon fill="black" stroke="black" points="51.74,-61.93 47.71,-52.13 44.75,-62.31 51.74,-61.93"/>
<g id="a_edge5&#45;headlabel"><a xlink:href="dir_000005_000001.html" target="_top" xlink:title="1">
<text text-anchor="middle" x="54.77" y="-62.87" font-family="Helvetica,sans-Serif" font-size="10.00">1</text>
</a>
</g>
</g>
<!-- dir_b47ddb3a0b86b791c0dd2682d4ed1094&#45;&gt;dir_405fd32de3649961a5f009c7a3fe84df -->
<g id="edge6" class="edge">
<title>dir_b47ddb3a0b86b791c0dd2682d4ed1094&#45;&gt;dir_405fd32de3649961a5f009c7a3fe84df</title>
<path fill="none" stroke="black" d="M62.13,-159.73C59.85,-141.14 58.55,-111.12 69,-88 73.98,-76.97 82.4,-67.07 91.18,-58.89"/>
<polygon fill="black" stroke="black" points="93.66,-61.38 98.9,-52.17 89.06,-56.1 93.66,-61.38"/>
<g id="a_edge6&#45;headlabel"><a xlink:href="dir_000005_000003.html" target="_top" xlink:title="2">
<text text-anchor="middle" x="92.81" y="-63.38" font-family="Helvetica,sans-Serif" font-size="10.00">2</text>
</a>
</g>
</g>
<!-- dir_b47ddb3a0b86b791c0dd2682d4ed1094&#45;&gt;dir_7bc5e25958a2fb25a8561f3aa0def6c5 -->
<g id="edge7" class="edge">
<title>dir_b47ddb3a0b86b791c0dd2682d4ed1094&#45;&gt;dir_7bc5e25958a2fb25a8561f3aa0def6c5</title>
<path fill="none" stroke="black" d="M74.89,-159.7C79.49,-151.64 85.06,-141.89 90.15,-132.98"/>
<polygon fill="black" stroke="black" points="93.3,-134.52 95.23,-124.1 87.23,-131.05 93.3,-134.52"/>
<g id="a_edge7&#45;headlabel"><a xlink:href="dir_000005_000010.html" target="_top" xlink:title="2">
<text text-anchor="middle" x="93.99" y="-136.55" font-family="Helvetica,sans-Serif" font-size="10.00">2</text>
</a>
</g>
</g>
<!-- dir_99d0482cf009f9d97a0877749b817f19 -->
<g id="node5" class="node">
<title>dir_99d0482cf009f9d97a0877749b817f19</title>
<g id="a_node5"><a xlink:href="dir_99d0482cf009f9d97a0877749b817f19.html" target="_top" xlink:title="gui">
<polygon fill="#eeeeff" stroke="black" points="115,-268 61,-268 61,-232 115,-232 115,-268"/>
<text text-anchor="middle" x="88" y="-247.5" font-family="Helvetica,sans-Serif" font-size="10.00">gui</text>
</a>
</g>
</g>
<!-- dir_99d0482cf009f9d97a0877749b817f19&#45;&gt;dir_0b61c55142250c0cc363383afd8075a4 -->
<g id="edge1" class="edge">
<title>dir_99d0482cf009f9d97a0877749b817f19&#45;&gt;dir_0b61c55142250c0cc363383afd8075a4</title>
<path fill="none" stroke="black" d="M61,-232.89C48.47,-223.8 34.86,-211.2 28,-196 8.18,-152.05 23.39,-94.84 35.62,-61.79"/>
<polygon fill="black" stroke="black" points="38.93,-62.94 39.28,-52.35 32.41,-60.41 38.93,-62.94"/>
<g id="a_edge1&#45;headlabel"><a xlink:href="dir_000004_000001.html" target="_top" xlink:title="3">
<text text-anchor="middle" x="40.28" y="-64.81" font-family="Helvetica,sans-Serif" font-size="10.00">3</text>
</a>
</g>
</g>
<!-- dir_99d0482cf009f9d97a0877749b817f19&#45;&gt;dir_405fd32de3649961a5f009c7a3fe84df -->
<g id="edge2" class="edge">
<title>dir_99d0482cf009f9d97a0877749b817f19&#45;&gt;dir_405fd32de3649961a5f009c7a3fe84df</title>
<path fill="none" stroke="black" d="M97.87,-231.92C110.78,-208.49 132.74,-164.65 141,-124 144.19,-108.32 143.47,-103.81 141,-88 139.64,-79.31 137.1,-70.1 134.39,-61.84"/>
<polygon fill="black" stroke="black" points="137.67,-60.62 131.07,-52.33 131.06,-62.93 137.67,-60.62"/>
<g id="a_edge2&#45;headlabel"><a xlink:href="dir_000004_000003.html" target="_top" xlink:title="14">
<text text-anchor="middle" x="141.54" y="-60.58" font-family="Helvetica,sans-Serif" font-size="10.00">14</text>
</a>
</g>
</g>
<!-- dir_99d0482cf009f9d97a0877749b817f19&#45;&gt;dir_7bc5e25958a2fb25a8561f3aa0def6c5 -->
<g id="edge3" class="edge">
<title>dir_99d0482cf009f9d97a0877749b817f19&#45;&gt;dir_7bc5e25958a2fb25a8561f3aa0def6c5</title>
<path fill="none" stroke="black" d="M93.67,-231.54C96.73,-221.3 100.23,-208.05 102,-196 105.02,-175.48 105.7,-152.03 105.66,-134.35"/>
<polygon fill="black" stroke="black" points="109.16,-134.13 105.56,-124.16 102.16,-134.2 109.16,-134.13"/>
<g id="a_edge3&#45;headlabel"><a xlink:href="dir_000004_000010.html" target="_top" xlink:title="6">
<text text-anchor="middle" x="112.03" y="-135.19" font-family="Helvetica,sans-Serif" font-size="10.00">6</text>
</a>
</g>
</g>
<!-- dir_99d0482cf009f9d97a0877749b817f19&#45;&gt;dir_b47ddb3a0b86b791c0dd2682d4ed1094 -->
<g id="edge4" class="edge">
<title>dir_99d0482cf009f9d97a0877749b817f19&#45;&gt;dir_b47ddb3a0b86b791c0dd2682d4ed1094</title>
<path fill="none" stroke="black" d="M82.31,-231.7C79.75,-223.9 76.67,-214.51 73.82,-205.83"/>
<polygon fill="black" stroke="black" points="77.07,-204.51 70.62,-196.1 70.42,-206.7 77.07,-204.51"/>
<g id="a_edge4&#45;headlabel"><a xlink:href="dir_000004_000005.html" target="_top" xlink:title="3">
<text text-anchor="middle" x="80.89" y="-204.54" font-family="Helvetica,sans-Serif" font-size="10.00">3</text>
</a>
</g>
</g>
</g>
</svg>
