<?xml version="1.0" encoding="UTF-8" standalone="no"?>
<!DOCTYPE svg PUBLIC "-//W3C//DTD SVG 1.1//EN"
 "http://www.w3.org/Graphics/SVG/1.1/DTD/svg11.dtd">
<!-- Generated by graphviz version 2.44.0 ()
 -->
<!-- Title: src/iconatlas Pages: 1 -->
<svg width="206pt" height="239pt"
 viewBox="0.00 0.00 206.00 239.00" xmlns="http://www.w3.org/2000/svg" xmlns:xlink="http://www.w3.org/1999/xlink">
<g id="graph0" class="graph" transform="scale(1 1) rotate(0) translate(4 235)">
<title>src/iconatlas</title>
<g id="clust1" class="cluster">
<title>clusterdir_68267d1309a1af8e8297ef4c3efbcdba</title>
<g id="a_clust1"><a xlink:href="dir_68267d1309a1af8e8297ef4c3efbcdba.html" target="_top" xlink:title="src">
<polygon fill="#ddddee" stroke="black" points="8,-8 8,-223 190,-223 190,-8 8,-8"/>
<text text-anchor="middle" x="99" y="-211" font-family="Helvetica,sans-Serif" font-size="10.00">src</text>
</a>
</g>
</g>
<!-- dir_0b61c55142250c0cc363383afd8075a4 -->
<g id="node1" class="node">
<title>dir_0b61c55142250c0cc363383afd8075a4</title>
<g id="a_node1"><a xlink:href="dir_0b61c55142250c0cc363383afd8075a4.html" target="_top" xlink:title="containers">
<polygon fill="none" stroke="black" points="86,-52 24,-52 24,-16 86,-16 86,-52"/>
<text text-anchor="middle" x="55" y="-31.5" font-family="Helvetica,sans-Serif" font-size="10.00">containers</text>
</a>
</g>
</g>
<!-- dir_405fd32de3649961a5f009c7a3fe84df -->
<g id="node2" class="node">
<title>dir_405fd32de3649961a5f009c7a3fe84df</title>
<g id="a_node2"><a xlink:href="dir_405fd32de3649961a5f009c7a3fe84df.html" target="_top" xlink:title="geometry">
<polygon fill="none" stroke="black" points="171,-52 115,-52 115,-16 171,-16 171,-52"/>
<text text-anchor="middle" x="143" y="-31.5" font-family="Helvetica,sans-Serif" font-size="10.00">geometry</text>
</a>
</g>
</g>
<!-- dir_7bc5e25958a2fb25a8561f3aa0def6c5 -->
<g id="node3" class="node">
<title>dir_7bc5e25958a2fb25a8561f3aa0def6c5</title>
<g id="a_node3"><a xlink:href="dir_7bc5e25958a2fb25a8561f3aa0def6c5.html" target="_top" xlink:title="renderer">
<polygon fill="none" stroke="red" points="90,-124 36,-124 36,-88 90,-88 90,-124"/>
<text text-anchor="middle" x="63" y="-103.5" font-family="Helvetica,sans-Serif" font-size="10.00">renderer</text>
</a>
</g>
</g>
<!-- dir_7bc5e25958a2fb25a8561f3aa0def6c5&#45;&gt;dir_0b61c55142250c0cc363383afd8075a4 -->
<g id="edge6" class="edge">
<title>dir_7bc5e25958a2fb25a8561f3aa0def6c5&#45;&gt;dir_0b61c55142250c0cc363383afd8075a4</title>
<path fill="none" stroke="black" d="M61.02,-87.7C60.14,-79.98 59.08,-70.71 58.1,-62.11"/>
<polygon fill="black" stroke="black" points="61.57,-61.64 56.95,-52.1 54.61,-62.44 61.57,-61.64"/>
<g id="a_edge6&#45;headlabel"><a xlink:href="dir_000014_000001.html" target="_top" xlink:title="1">
<text text-anchor="middle" x="64.8" y="-62.39" font-family="Helvetica,sans-Serif" font-size="10.00">1</text>
</a>
</g>
</g>
<!-- dir_a6a17ec937b4e07383dde71de6c9d000 -->
<g id="node4" class="node">
<title>dir_a6a17ec937b4e07383dde71de6c9d000</title>
<g id="a_node4"><a xlink:href="dir_a6a17ec937b4e07383dde71de6c9d000.html" target="_top" xlink:title="image">
<polygon fill="none" stroke="black" points="182,-124 128,-124 128,-88 182,-88 182,-124"/>
<text text-anchor="middle" x="155" y="-103.5" font-family="Helvetica,sans-Serif" font-size="10.00">image</text>
</a>
</g>
</g>
<!-- dir_a6a17ec937b4e07383dde71de6c9d000&#45;&gt;dir_405fd32de3649961a5f009c7a3fe84df -->
<g id="edge5" class="edge">
<title>dir_a6a17ec937b4e07383dde71de6c9d000&#45;&gt;dir_405fd32de3649961a5f009c7a3fe84df</title>
<path fill="none" stroke="black" d="M152.03,-87.7C150.71,-79.98 149.12,-70.71 147.65,-62.11"/>
<polygon fill="black" stroke="black" points="151.07,-61.37 145.93,-52.1 144.17,-62.55 151.07,-61.37"/>
<g id="a_edge5&#45;headlabel"><a xlink:href="dir_000011_000003.html" target="_top" xlink:title="1">
<text text-anchor="middle" x="154.48" y="-61.93" font-family="Helvetica,sans-Serif" font-size="10.00">1</text>
</a>
</g>
</g>
<!-- dir_b47ddb3a0b86b791c0dd2682d4ed1094 -->
<g id="node5" class="node">
<title>dir_b47ddb3a0b86b791c0dd2682d4ed1094</title>
<g id="a_node5"><a xlink:href="dir_b47ddb3a0b86b791c0dd2682d4ed1094.html" target="_top" xlink:title="iconatlas">
<polygon fill="#eeeeff" stroke="black" points="114,-196 58,-196 58,-160 114,-160 114,-196"/>
<text text-anchor="middle" x="86" y="-175.5" font-family="Helvetica,sans-Serif" font-size="10.00">iconatlas</text>
</a>
</g>
</g>
<!-- dir_b47ddb3a0b86b791c0dd2682d4ed1094&#45;&gt;dir_0b61c55142250c0cc363383afd8075a4 -->
<g id="edge1" class="edge">
<title>dir_b47ddb3a0b86b791c0dd2682d4ed1094&#45;&gt;dir_0b61c55142250c0cc363383afd8075a4</title>
<path fill="none" stroke="black" d="M58.2,-159.87C46.23,-150.84 33.5,-138.59 27,-124 17.84,-103.47 26.85,-79.03 37.01,-60.97"/>
<polygon fill="black" stroke="black" points="40.16,-62.52 42.34,-52.16 34.17,-58.9 40.16,-62.52"/>
<g id="a_edge1&#45;headlabel"><a xlink:href="dir_000010_000001.html" target="_top" xlink:title="1">
<text text-anchor="middle" x="40.73" y="-64.57" font-family="Helvetica,sans-Serif" font-size="10.00">1</text>
</a>
</g>
</g>
<!-- dir_b47ddb3a0b86b791c0dd2682d4ed1094&#45;&gt;dir_405fd32de3649961a5f009c7a3fe84df -->
<g id="edge2" class="edge">
<title>dir_b47ddb3a0b86b791c0dd2682d4ed1094&#45;&gt;dir_405fd32de3649961a5f009c7a3fe84df</title>
<path fill="none" stroke="black" d="M91.97,-159.8C98.33,-141.77 108.85,-112.69 119,-88 122.63,-79.18 126.85,-69.65 130.73,-61.14"/>
<polygon fill="black" stroke="black" points="133.91,-62.6 134.91,-52.05 127.55,-59.67 133.91,-62.6"/>
<g id="a_edge2&#45;headlabel"><a xlink:href="dir_000010_000003.html" target="_top" xlink:title="2">
<text text-anchor="middle" x="134.98" y="-64.55" font-family="Helvetica,sans-Serif" font-size="10.00">2</text>
</a>
</g>
</g>
<!-- dir_b47ddb3a0b86b791c0dd2682d4ed1094&#45;&gt;dir_7bc5e25958a2fb25a8561f3aa0def6c5 -->
<g id="edge3" class="edge">
<title>dir_b47ddb3a0b86b791c0dd2682d4ed1094&#45;&gt;dir_7bc5e25958a2fb25a8561f3aa0def6c5</title>
<path fill="none" stroke="black" d="M80.31,-159.7C77.75,-151.9 74.67,-142.51 71.82,-133.83"/>
<polygon fill="black" stroke="black" points="75.07,-132.51 68.62,-124.1 68.42,-134.7 75.07,-132.51"/>
<g id="a_edge3&#45;headlabel"><a xlink:href="dir_000010_000014.html" target="_top" xlink:title="1">
<text text-anchor="middle" x="78.89" y="-132.54" font-family="Helvetica,sans-Serif" font-size="10.00">1</text>
</a>
</g>
</g>
<!-- dir_b47ddb3a0b86b791c0dd2682d4ed1094&#45;&gt;dir_a6a17ec937b4e07383dde71de6c9d000 -->
<g id="edge4" class="edge">
<title>dir_b47ddb3a0b86b791c0dd2682d4ed1094&#45;&gt;dir_a6a17ec937b4e07383dde71de6c9d000</title>
<path fill="none" stroke="black" d="M103.06,-159.7C111.5,-151.14 121.82,-140.66 131.04,-131.3"/>
<polygon fill="black" stroke="black" points="133.61,-133.68 138.14,-124.1 128.63,-128.77 133.61,-133.68"/>
<g id="a_edge4&#45;headlabel"><a xlink:href="dir_000010_000011.html" target="_top" xlink:title="1">
<text text-anchor="middle" x="133.11" y="-135.74" font-family="Helvetica,sans-Serif" font-size="10.00">1</text>
</a>
</g>
</g>
</g>
</svg>
