<?xml version="1.0" encoding="UTF-8" standalone="no"?>
<!DOCTYPE svg PUBLIC "-//W3C//DTD SVG 1.1//EN"
 "http://www.w3.org/Graphics/SVG/1.1/DTD/svg11.dtd">
<!-- Generated by graphviz version 2.44.0 ()
 -->
<!-- Title: src/gui/svg Pages: 1 -->
<svg width="115pt" height="223pt"
 viewBox="0.00 0.00 115.00 223.00" xmlns="http://www.w3.org/2000/svg" xmlns:xlink="http://www.w3.org/1999/xlink">
<g id="graph0" class="graph" transform="scale(1 1) rotate(0) translate(4 219)">
<title>src/gui/svg</title>
<g id="clust1" class="cluster">
<title>clusterdir_99d0482cf009f9d97a0877749b817f19</title>
<g id="a_clust1"><a xlink:href="dir_99d0482cf009f9d97a0877749b817f19.html" target="_top" xlink:title="gui">
<polygon fill="#ddddee" stroke="black" points="8,-64 8,-207 90,-207 90,-64 8,-64"/>
<text text-anchor="middle" x="49" y="-195" font-family="Helvetica,sans-Serif" font-size="10.00">gui</text>
</a>
</g>
</g>
<!-- dir_22f2d8aa4dd51fedf85a27f8591728c9 -->
<g id="node1" class="node">
<title>dir_22f2d8aa4dd51fedf85a27f8591728c9</title>
<g id="a_node1"><a xlink:href="dir_22f2d8aa4dd51fedf85a27f8591728c9.html" target="_top" xlink:title="vectordraw">
<polygon fill="none" stroke="black" points="81.5,-108 16.5,-108 16.5,-72 81.5,-72 81.5,-108"/>
<text text-anchor="middle" x="49" y="-87.5" font-family="Helvetica,sans-Serif" font-size="10.00">vectordraw</text>
</a>
</g>
</g>
<!-- dir_405fd32de3649961a5f009c7a3fe84df -->
<g id="node3" class="node">
<title>dir_405fd32de3649961a5f009c7a3fe84df</title>
<g id="a_node3"><a xlink:href="dir_405fd32de3649961a5f009c7a3fe84df.html" target="_top" xlink:title="geometry">
<polygon fill="none" stroke="black" points="107,-36 51,-36 51,0 107,0 107,-36"/>
<text text-anchor="middle" x="79" y="-15.5" font-family="Helvetica,sans-Serif" font-size="10.00">geometry</text>
</a>
</g>
</g>
<!-- dir_22f2d8aa4dd51fedf85a27f8591728c9&#45;&gt;dir_405fd32de3649961a5f009c7a3fe84df -->
<g id="edge1" class="edge">
<title>dir_22f2d8aa4dd51fedf85a27f8591728c9&#45;&gt;dir_405fd32de3649961a5f009c7a3fe84df</title>
<path fill="none" stroke="black" d="M56.42,-71.7C59.79,-63.81 63.87,-54.3 67.62,-45.55"/>
<polygon fill="black" stroke="black" points="70.95,-46.67 71.67,-36.1 64.51,-43.92 70.95,-46.67"/>
<g id="a_edge1&#45;headlabel"><a xlink:href="dir_000010_000003.html" target="_top" xlink:title="2">
<text text-anchor="middle" x="72.14" y="-48.6" font-family="Helvetica,sans-Serif" font-size="10.00">2</text>
</a>
</g>
</g>
<!-- dir_c5641c002233c40e546fb4944ecf7616 -->
<g id="node2" class="node">
<title>dir_c5641c002233c40e546fb4944ecf7616</title>
<g id="a_node2"><a xlink:href="dir_c5641c002233c40e546fb4944ecf7616.html" target="_top" xlink:title="svg">
<polygon fill="#eeeeff" stroke="black" points="79,-180 25,-180 25,-144 79,-144 79,-180"/>
<text text-anchor="middle" x="52" y="-159.5" font-family="Helvetica,sans-Serif" font-size="10.00">svg</text>
</a>
</g>
</g>
<!-- dir_c5641c002233c40e546fb4944ecf7616&#45;&gt;dir_22f2d8aa4dd51fedf85a27f8591728c9 -->
<g id="edge2" class="edge">
<title>dir_c5641c002233c40e546fb4944ecf7616&#45;&gt;dir_22f2d8aa4dd51fedf85a27f8591728c9</title>
<path fill="none" stroke="black" d="M51.26,-143.7C50.93,-135.98 50.53,-126.71 50.16,-118.11"/>
<polygon fill="black" stroke="black" points="53.66,-117.95 49.73,-108.1 46.66,-118.25 53.66,-117.95"/>
<g id="a_edge2&#45;headlabel"><a xlink:href="dir_000007_000010.html" target="_top" xlink:title="2">
<text text-anchor="middle" x="56.65" y="-118.92" font-family="Helvetica,sans-Serif" font-size="10.00">2</text>
</a>
</g>
</g>
<!-- dir_c5641c002233c40e546fb4944ecf7616&#45;&gt;dir_405fd32de3649961a5f009c7a3fe84df -->
<g id="edge3" class="edge">
<title>dir_c5641c002233c40e546fb4944ecf7616&#45;&gt;dir_405fd32de3649961a5f009c7a3fe84df</title>
<path fill="none" stroke="black" d="M68.89,-143.99C77.29,-134.31 86.58,-121.46 91,-108 97.66,-87.72 93.76,-63.68 88.7,-45.7"/>
<polygon fill="black" stroke="black" points="92.04,-44.66 85.74,-36.14 85.35,-46.73 92.04,-44.66"/>
<g id="a_edge3&#45;headlabel"><a xlink:href="dir_000007_000003.html" target="_top" xlink:title="2">
<text text-anchor="middle" x="95.82" y="-44.75" font-family="Helvetica,sans-Serif" font-size="10.00">2</text>
</a>
</g>
</g>
</g>
</svg>
