<?xml version="1.0" encoding="UTF-8" standalone="no"?>
<!DOCTYPE svg PUBLIC "-//W3C//DTD SVG 1.1//EN"
 "http://www.w3.org/Graphics/SVG/1.1/DTD/svg11.dtd">
<!-- Generated by graphviz version 2.44.0 ()
 -->
<!-- Title: src/platformabstraction/qt Pages: 1 -->
<svg width="253pt" height="169pt"
 viewBox="0.00 0.00 253.00 169.20" xmlns="http://www.w3.org/2000/svg" xmlns:xlink="http://www.w3.org/1999/xlink">
<g id="graph0" class="graph" transform="scale(1 1) rotate(0) translate(4 165.2)">
<title>src/platformabstraction/qt</title>
<g id="clust1" class="cluster">
<title>clusterdir_79769c2014326999657a5fac8224bdec</title>
<g id="a_clust1"><a xlink:href="dir_79769c2014326999657a5fac8224bdec.html" target="_top" xlink:title="platformabstraction">
<polygon fill="#ddddee" stroke="black" points="8,-64 8,-135 108,-135 108,-64 8,-64"/>
<text text-anchor="middle" x="58" y="-123" font-family="Helvetica,sans-Serif" font-size="10.00">platformabstraction</text>
</a>
</g>
</g>
<!-- dir_ffbadbfe2cec8b9fbf400e495e1b4bf5 -->
<g id="node1" class="node">
<title>dir_ffbadbfe2cec8b9fbf400e495e1b4bf5</title>
<g id="a_node1"><a xlink:href="dir_ffbadbfe2cec8b9fbf400e495e1b4bf5.html" target="_top" xlink:title="qt">
<polygon fill="#eeeeff" stroke="black" points="99,-108 45,-108 45,-72 99,-72 99,-108"/>
<text text-anchor="middle" x="72" y="-87.5" font-family="Helvetica,sans-Serif" font-size="10.00">qt</text>
</a>
</g>
</g>
<!-- dir_14e1e259e8275dc0c459acef3bbf05ae -->
<g id="node2" class="node">
<title>dir_14e1e259e8275dc0c459acef3bbf05ae</title>
<g id="a_node2"><a xlink:href="dir_14e1e259e8275dc0c459acef3bbf05ae.html" target="_top" xlink:title="events">
<polygon fill="none" stroke="black" points="171,-108 117,-108 117,-72 171,-72 171,-108"/>
<text text-anchor="middle" x="144" y="-87.5" font-family="Helvetica,sans-Serif" font-size="10.00">events</text>
</a>
</g>
</g>
<!-- dir_ffbadbfe2cec8b9fbf400e495e1b4bf5&#45;&gt;dir_14e1e259e8275dc0c459acef3bbf05ae -->
<g id="edge2" class="edge">
<title>dir_ffbadbfe2cec8b9fbf400e495e1b4bf5&#45;&gt;dir_14e1e259e8275dc0c459acef3bbf05ae</title>
<path fill="none" stroke="black" d="M99.28,-90C101.74,-90 104.19,-90 106.65,-90"/>
<polygon fill="black" stroke="black" points="106.75,-93.5 116.75,-90 106.75,-86.5 106.75,-93.5"/>
<g id="a_edge2&#45;headlabel"><a xlink:href="dir_000014_000002.html" target="_top" xlink:title="2">
<text text-anchor="middle" x="103.15" y="-93.84" font-family="Helvetica,sans-Serif" font-size="10.00">2</text>
</a>
</g>
</g>
<!-- dir_405fd32de3649961a5f009c7a3fe84df -->
<g id="node3" class="node">
<title>dir_405fd32de3649961a5f009c7a3fe84df</title>
<g id="a_node3"><a xlink:href="dir_405fd32de3649961a5f009c7a3fe84df.html" target="_top" xlink:title="geometry">
<polygon fill="none" stroke="black" points="172,-36 116,-36 116,0 172,0 172,-36"/>
<text text-anchor="middle" x="144" y="-15.5" font-family="Helvetica,sans-Serif" font-size="10.00">geometry</text>
</a>
</g>
</g>
<!-- dir_ffbadbfe2cec8b9fbf400e495e1b4bf5&#45;&gt;dir_405fd32de3649961a5f009c7a3fe84df -->
<g id="edge3" class="edge">
<title>dir_ffbadbfe2cec8b9fbf400e495e1b4bf5&#45;&gt;dir_405fd32de3649961a5f009c7a3fe84df</title>
<path fill="none" stroke="black" d="M83.88,-71.7C91.88,-63.05 102.61,-52.45 112.84,-43.03"/>
<polygon fill="black" stroke="black" points="115.43,-45.4 120.51,-36.1 110.74,-40.21 115.43,-45.4"/>
<g id="a_edge3&#45;headlabel"><a xlink:href="dir_000014_000003.html" target="_top" xlink:title="1">
<text text-anchor="middle" x="114.67" y="-47.42" font-family="Helvetica,sans-Serif" font-size="10.00">1</text>
</a>
</g>
</g>
<!-- dir_b47ddb3a0b86b791c0dd2682d4ed1094 -->
<g id="node4" class="node">
<title>dir_b47ddb3a0b86b791c0dd2682d4ed1094</title>
<g id="a_node4"><a xlink:href="dir_b47ddb3a0b86b791c0dd2682d4ed1094.html" target="_top" xlink:title="iconatlas">
<polygon fill="none" stroke="black" points="245,-108 189,-108 189,-72 245,-72 245,-108"/>
<text text-anchor="middle" x="217" y="-87.5" font-family="Helvetica,sans-Serif" font-size="10.00">iconatlas</text>
</a>
</g>
</g>
<!-- dir_ffbadbfe2cec8b9fbf400e495e1b4bf5&#45;&gt;dir_b47ddb3a0b86b791c0dd2682d4ed1094 -->
<g id="edge4" class="edge">
<title>dir_ffbadbfe2cec8b9fbf400e495e1b4bf5&#45;&gt;dir_b47ddb3a0b86b791c0dd2682d4ed1094</title>
<path fill="none" stroke="black" d="M79.25,-108.12C86.38,-123.19 98.83,-143.65 117,-153 138.34,-163.98 149.6,-163.87 171,-153 185.91,-145.42 197.14,-130.5 204.77,-117.07"/>
<polygon fill="black" stroke="black" points="207.92,-118.61 209.48,-108.13 201.72,-115.35 207.92,-118.61"/>
<g id="a_edge4&#45;headlabel"><a xlink:href="dir_000014_000011.html" target="_top" xlink:title="1">
<text text-anchor="middle" x="208.76" y="-120.61" font-family="Helvetica,sans-Serif" font-size="10.00">1</text>
</a>
</g>
</g>
<!-- dir_14e1e259e8275dc0c459acef3bbf05ae&#45;&gt;dir_ffbadbfe2cec8b9fbf400e495e1b4bf5 -->
<g id="edge6" class="edge">
<title>dir_14e1e259e8275dc0c459acef3bbf05ae&#45;&gt;dir_ffbadbfe2cec8b9fbf400e495e1b4bf5</title>
<path fill="none" stroke="black" d="M116.75,-90C114.29,-90 111.84,-90 109.38,-90"/>
<polygon fill="black" stroke="black" points="109.28,-86.5 99.28,-90 109.28,-93.5 109.28,-86.5"/>
<g id="a_edge6&#45;headlabel"><a xlink:href="dir_000002_000014.html" target="_top" xlink:title="3">
<text text-anchor="middle" x="112.88" y="-81.16" font-family="Helvetica,sans-Serif" font-size="10.00">3</text>
</a>
</g>
</g>
<!-- dir_14e1e259e8275dc0c459acef3bbf05ae&#45;&gt;dir_405fd32de3649961a5f009c7a3fe84df -->
<g id="edge5" class="edge">
<title>dir_14e1e259e8275dc0c459acef3bbf05ae&#45;&gt;dir_405fd32de3649961a5f009c7a3fe84df</title>
<path fill="none" stroke="black" d="M144,-71.7C144,-63.98 144,-54.71 144,-46.11"/>
<polygon fill="black" stroke="black" points="147.5,-46.1 144,-36.1 140.5,-46.1 147.5,-46.1"/>
<g id="a_edge5&#45;headlabel"><a xlink:href="dir_000002_000003.html" target="_top" xlink:title="1">
<text text-anchor="middle" x="150.34" y="-47.2" font-family="Helvetica,sans-Serif" font-size="10.00">1</text>
</a>
</g>
</g>
<!-- dir_405fd32de3649961a5f009c7a3fe84df&#45;&gt;dir_ffbadbfe2cec8b9fbf400e495e1b4bf5 -->
<g id="edge1" class="edge">
<title>dir_405fd32de3649961a5f009c7a3fe84df&#45;&gt;dir_ffbadbfe2cec8b9fbf400e495e1b4bf5</title>
<path fill="none" stroke="black" d="M132.3,-36.1C124.34,-44.72 113.63,-55.32 103.4,-64.76"/>
<polygon fill="black" stroke="black" points="100.79,-62.4 95.71,-71.7 105.48,-67.59 100.79,-62.4"/>
<g id="a_edge1&#45;headlabel"><a xlink:href="dir_000003_000014.html" target="_top" xlink:title="3">
<text text-anchor="middle" x="101.55" y="-55.38" font-family="Helvetica,sans-Serif" font-size="10.00">3</text>
</a>
</g>
</g>
<!-- dir_b47ddb3a0b86b791c0dd2682d4ed1094&#45;&gt;dir_405fd32de3649961a5f009c7a3fe84df -->
<g id="edge7" class="edge">
<title>dir_b47ddb3a0b86b791c0dd2682d4ed1094&#45;&gt;dir_405fd32de3649961a5f009c7a3fe84df</title>
<path fill="none" stroke="black" d="M198.96,-71.7C189.94,-63.05 178.88,-52.45 169.06,-43.03"/>
<polygon fill="black" stroke="black" points="171.48,-40.5 161.84,-36.1 166.63,-45.55 171.48,-40.5"/>
<g id="a_edge7&#45;headlabel"><a xlink:href="dir_000011_000003.html" target="_top" xlink:title="2">
<text text-anchor="middle" x="176.04" y="-38.44" font-family="Helvetica,sans-Serif" font-size="10.00">2</text>
</a>
</g>
</g>
</g>
</svg>
