<?xml version="1.0" encoding="UTF-8" standalone="no"?>
<!DOCTYPE svg PUBLIC "-//W3C//DTD SVG 1.1//EN"
 "http://www.w3.org/Graphics/SVG/1.1/DTD/svg11.dtd">
<!-- Generated by graphviz version 2.44.0 ()
 -->
<!-- Title: src/gui Pages: 1 -->
<svg width="246pt" height="391pt"
 viewBox="0.00 0.00 246.00 391.00" xmlns="http://www.w3.org/2000/svg" xmlns:xlink="http://www.w3.org/1999/xlink">
<g id="graph0" class="graph" transform="scale(1 1) rotate(0) translate(4 387)">
<title>src/gui</title>
<g id="clust1" class="cluster">
<title>clusterdir_68267d1309a1af8e8297ef4c3efbcdba</title>
<g id="a_clust1"><a xlink:href="dir_68267d1309a1af8e8297ef4c3efbcdba.html" target="_top" xlink:title="src">
<polygon fill="#ddddee" stroke="black" points="8,-8 8,-375 230,-375 230,-8 8,-8"/>
<text text-anchor="middle" x="119" y="-363" font-family="Helvetica,sans-Serif" font-size="10.00">src</text>
</a>
</g>
</g>
<g id="clust2" class="cluster">
<title>clusterdir_99d0482cf009f9d97a0877749b817f19</title>
<g id="a_clust2"><a xlink:href="dir_99d0482cf009f9d97a0877749b817f19.html" target="_top">
<polygon fill="#eeeeff" stroke="black" points="28,-224 28,-348 170,-348 170,-224 28,-224"/>
</a>
</g>
</g>
<!-- dir_0b61c55142250c0cc363383afd8075a4 -->
<g id="node1" class="node">
<title>dir_0b61c55142250c0cc363383afd8075a4</title>
<g id="a_node1"><a xlink:href="dir_0b61c55142250c0cc363383afd8075a4.html" target="_top" xlink:title="containers">
<polygon fill="none" stroke="black" points="205,-52 143,-52 143,-16 205,-16 205,-52"/>
<text text-anchor="middle" x="174" y="-31.5" font-family="Helvetica,sans-Serif" font-size="10.00">containers</text>
</a>
</g>
</g>
<!-- dir_405fd32de3649961a5f009c7a3fe84df -->
<g id="node2" class="node">
<title>dir_405fd32de3649961a5f009c7a3fe84df</title>
<g id="a_node2"><a xlink:href="dir_405fd32de3649961a5f009c7a3fe84df.html" target="_top" xlink:title="geometry">
<polygon fill="none" stroke="black" points="115,-52 59,-52 59,-16 115,-16 115,-52"/>
<text text-anchor="middle" x="87" y="-31.5" font-family="Helvetica,sans-Serif" font-size="10.00">geometry</text>
</a>
</g>
</g>
<!-- dir_7bc5e25958a2fb25a8561f3aa0def6c5 -->
<g id="node3" class="node">
<title>dir_7bc5e25958a2fb25a8561f3aa0def6c5</title>
<g id="a_node3"><a xlink:href="dir_7bc5e25958a2fb25a8561f3aa0def6c5.html" target="_top" xlink:title="renderer">
<polygon fill="none" stroke="red" points="161,-196 107,-196 107,-160 161,-160 161,-196"/>
<text text-anchor="middle" x="134" y="-175.5" font-family="Helvetica,sans-Serif" font-size="10.00">renderer</text>
</a>
</g>
</g>
<!-- dir_7bc5e25958a2fb25a8561f3aa0def6c5&#45;&gt;dir_0b61c55142250c0cc363383afd8075a4 -->
<g id="edge13" class="edge">
<title>dir_7bc5e25958a2fb25a8561f3aa0def6c5&#45;&gt;dir_0b61c55142250c0cc363383afd8075a4</title>
<path fill="none" stroke="black" d="M131.75,-159.76C130,-141.45 129.04,-111.91 137,-88 140.26,-78.2 145.96,-68.6 151.92,-60.32"/>
<polygon fill="black" stroke="black" points="154.83,-62.28 158.14,-52.21 149.28,-58.02 154.83,-62.28"/>
<g id="a_edge13&#45;headlabel"><a xlink:href="dir_000012_000001.html" target="_top" xlink:title="2">
<text text-anchor="middle" x="154.9" y="-64.36" font-family="Helvetica,sans-Serif" font-size="10.00">2</text>
</a>
</g>
</g>
<!-- dir_7bc5e25958a2fb25a8561f3aa0def6c5&#45;&gt;dir_405fd32de3649961a5f009c7a3fe84df -->
<g id="edge14" class="edge">
<title>dir_7bc5e25958a2fb25a8561f3aa0def6c5&#45;&gt;dir_405fd32de3649961a5f009c7a3fe84df</title>
<path fill="none" stroke="black" d="M128.33,-159.87C120.29,-135.56 105.48,-90.82 95.94,-62.01"/>
<polygon fill="black" stroke="black" points="99.15,-60.58 92.69,-52.19 92.51,-62.78 99.15,-60.58"/>
<g id="a_edge14&#45;headlabel"><a xlink:href="dir_000012_000003.html" target="_top" xlink:title="12">
<text text-anchor="middle" x="102.98" y="-60.6" font-family="Helvetica,sans-Serif" font-size="10.00">12</text>
</a>
</g>
</g>
<!-- dir_b47ddb3a0b86b791c0dd2682d4ed1094 -->
<g id="node4" class="node">
<title>dir_b47ddb3a0b86b791c0dd2682d4ed1094</title>
<g id="a_node4"><a xlink:href="dir_b47ddb3a0b86b791c0dd2682d4ed1094.html" target="_top" xlink:title="iconatlas">
<polygon fill="none" stroke="black" points="202,-124 146,-124 146,-88 202,-88 202,-124"/>
<text text-anchor="middle" x="174" y="-103.5" font-family="Helvetica,sans-Serif" font-size="10.00">iconatlas</text>
</a>
</g>
</g>
<!-- dir_7bc5e25958a2fb25a8561f3aa0def6c5&#45;&gt;dir_b47ddb3a0b86b791c0dd2682d4ed1094 -->
<g id="edge15" class="edge">
<title>dir_7bc5e25958a2fb25a8561f3aa0def6c5&#45;&gt;dir_b47ddb3a0b86b791c0dd2682d4ed1094</title>
<path fill="none" stroke="black" d="M143.89,-159.7C148.49,-151.64 154.06,-141.89 159.15,-132.98"/>
<polygon fill="black" stroke="black" points="162.3,-134.52 164.23,-124.1 156.23,-131.05 162.3,-134.52"/>
<g id="a_edge15&#45;headlabel"><a xlink:href="dir_000012_000007.html" target="_top" xlink:title="2">
<text text-anchor="middle" x="162.99" y="-136.55" font-family="Helvetica,sans-Serif" font-size="10.00">2</text>
</a>
</g>
</g>
<!-- dir_b47ddb3a0b86b791c0dd2682d4ed1094&#45;&gt;dir_0b61c55142250c0cc363383afd8075a4 -->
<g id="edge11" class="edge">
<title>dir_b47ddb3a0b86b791c0dd2682d4ed1094&#45;&gt;dir_0b61c55142250c0cc363383afd8075a4</title>
<path fill="none" stroke="black" d="M174,-87.7C174,-79.98 174,-70.71 174,-62.11"/>
<polygon fill="black" stroke="black" points="177.5,-62.1 174,-52.1 170.5,-62.1 177.5,-62.1"/>
<g id="a_edge11&#45;headlabel"><a xlink:href="dir_000007_000001.html" target="_top" xlink:title="1">
<text text-anchor="middle" x="180.34" y="-63.2" font-family="Helvetica,sans-Serif" font-size="10.00">1</text>
</a>
</g>
</g>
<!-- dir_b47ddb3a0b86b791c0dd2682d4ed1094&#45;&gt;dir_405fd32de3649961a5f009c7a3fe84df -->
<g id="edge12" class="edge">
<title>dir_b47ddb3a0b86b791c0dd2682d4ed1094&#45;&gt;dir_405fd32de3649961a5f009c7a3fe84df</title>
<path fill="none" stroke="black" d="M152.49,-87.7C141.54,-78.88 128.05,-68.03 116.18,-58.47"/>
<polygon fill="black" stroke="black" points="118.24,-55.65 108.26,-52.1 113.86,-61.1 118.24,-55.65"/>
<g id="a_edge12&#45;headlabel"><a xlink:href="dir_000007_000003.html" target="_top" xlink:title="2">
<text text-anchor="middle" x="122.82" y="-53.19" font-family="Helvetica,sans-Serif" font-size="10.00">2</text>
</a>
</g>
</g>
<!-- dir_99d0482cf009f9d97a0877749b817f19 -->
<g id="node5" class="node">
<title>dir_99d0482cf009f9d97a0877749b817f19</title>
<text text-anchor="middle" x="135" y="-319.5" font-family="Helvetica,sans-Serif" font-size="10.00">gui</text>
</g>
<!-- dir_99d0482cf009f9d97a0877749b817f19&#45;&gt;dir_0b61c55142250c0cc363383afd8075a4 -->
<g id="edge1" class="edge">
<title>dir_99d0482cf009f9d97a0877749b817f19&#45;&gt;dir_0b61c55142250c0cc363383afd8075a4</title>
<path fill="none" stroke="black" d="M157.23,-303.93C167.93,-294.5 179.93,-281.9 187,-268 216.41,-210.17 205.65,-188.66 211,-124 212.32,-108.05 215.8,-103.26 211,-88 207.9,-78.15 202.25,-68.53 196.28,-60.25"/>
<polygon fill="black" stroke="black" points="198.91,-57.94 190.04,-52.15 193.37,-62.21 198.91,-57.94"/>
<g id="a_edge1&#45;headlabel"><a xlink:href="dir_000004_000001.html" target="_top" xlink:title="2">
<text text-anchor="middle" x="203.36" y="-56.55" font-family="Helvetica,sans-Serif" font-size="10.00">2</text>
</a>
</g>
</g>
<!-- dir_99d0482cf009f9d97a0877749b817f19&#45;&gt;dir_405fd32de3649961a5f009c7a3fe84df -->
<g id="edge2" class="edge">
<title>dir_99d0482cf009f9d97a0877749b817f19&#45;&gt;dir_405fd32de3649961a5f009c7a3fe84df</title>
<path fill="none" stroke="black" d="M107.8,-316.08C81.97,-309.8 44.56,-296.18 27,-268 -14.84,-200.87 38.06,-105.55 68.42,-60.49"/>
<polygon fill="black" stroke="black" points="71.36,-62.39 74.16,-52.17 65.6,-58.41 71.36,-62.39"/>
<g id="a_edge2&#45;headlabel"><a xlink:href="dir_000004_000003.html" target="_top" xlink:title="10">
<text text-anchor="middle" x="71.66" y="-64.46" font-family="Helvetica,sans-Serif" font-size="10.00">10</text>
</a>
</g>
</g>
<!-- dir_99d0482cf009f9d97a0877749b817f19&#45;&gt;dir_7bc5e25958a2fb25a8561f3aa0def6c5 -->
<g id="edge3" class="edge">
<title>dir_99d0482cf009f9d97a0877749b817f19&#45;&gt;dir_7bc5e25958a2fb25a8561f3aa0def6c5</title>
<path fill="none" stroke="black" d="M150.61,-303.77C158.37,-294.03 166.95,-281.18 171,-268 176.75,-249.31 177.6,-242.41 171,-224 168.47,-216.93 164.29,-210.18 159.64,-204.15"/>
<polygon fill="black" stroke="black" points="162.23,-201.8 153.11,-196.42 156.89,-206.32 162.23,-201.8"/>
<g id="a_edge3&#45;headlabel"><a xlink:href="dir_000004_000012.html" target="_top" xlink:title="5">
<text text-anchor="middle" x="166.72" y="-200.21" font-family="Helvetica,sans-Serif" font-size="10.00">5</text>
</a>
</g>
</g>
<!-- dir_99d0482cf009f9d97a0877749b817f19&#45;&gt;dir_b47ddb3a0b86b791c0dd2682d4ed1094 -->
<g id="edge4" class="edge">
<title>dir_99d0482cf009f9d97a0877749b817f19&#45;&gt;dir_b47ddb3a0b86b791c0dd2682d4ed1094</title>
<path fill="none" stroke="black" d="M154.04,-303.84C163.18,-294.3 173.17,-281.62 178,-268 193.87,-223.25 186.93,-167.03 180.45,-134.25"/>
<polygon fill="black" stroke="black" points="183.8,-133.14 178.31,-124.08 176.95,-134.58 183.8,-133.14"/>
<g id="a_edge4&#45;headlabel"><a xlink:href="dir_000004_000007.html" target="_top" xlink:title="1">
<text text-anchor="middle" x="187.32" y="-133.57" font-family="Helvetica,sans-Serif" font-size="10.00">1</text>
</a>
</g>
</g>
<!-- dir_c5641c002233c40e546fb4944ecf7616 -->
<g id="node6" class="node">
<title>dir_c5641c002233c40e546fb4944ecf7616</title>
<g id="a_node6"><a xlink:href="dir_c5641c002233c40e546fb4944ecf7616.html" target="_top" xlink:title="svg">
<polygon fill="white" stroke="black" points="90,-268 36,-268 36,-232 90,-232 90,-268"/>
<text text-anchor="middle" x="63" y="-247.5" font-family="Helvetica,sans-Serif" font-size="10.00">svg</text>
</a>
</g>
</g>
<!-- dir_99d0482cf009f9d97a0877749b817f19&#45;&gt;dir_c5641c002233c40e546fb4944ecf7616 -->
<g id="edge5" class="edge">
<title>dir_99d0482cf009f9d97a0877749b817f19&#45;&gt;dir_c5641c002233c40e546fb4944ecf7616</title>
<path fill="none" stroke="black" d="M117.2,-303.7C108.4,-295.14 97.62,-284.66 88,-275.3"/>
<polygon fill="black" stroke="black" points="90.2,-272.57 80.59,-268.1 85.32,-277.58 90.2,-272.57"/>
<g id="a_edge5&#45;headlabel"><a xlink:href="dir_000004_000005.html" target="_top" xlink:title="1">
<text text-anchor="middle" x="94.76" y="-270.54" font-family="Helvetica,sans-Serif" font-size="10.00">1</text>
</a>
</g>
</g>
<!-- dir_e58f2de49667bc7650159953bfcd60a5 -->
<g id="node7" class="node">
<title>dir_e58f2de49667bc7650159953bfcd60a5</title>
<g id="a_node7"><a xlink:href="dir_e58f2de49667bc7650159953bfcd60a5.html" target="_top" xlink:title="textdraw">
<polygon fill="white" stroke="black" points="162,-268 108,-268 108,-232 162,-232 162,-268"/>
<text text-anchor="middle" x="135" y="-247.5" font-family="Helvetica,sans-Serif" font-size="10.00">textdraw</text>
</a>
</g>
</g>
<!-- dir_99d0482cf009f9d97a0877749b817f19&#45;&gt;dir_e58f2de49667bc7650159953bfcd60a5 -->
<g id="edge6" class="edge">
<title>dir_99d0482cf009f9d97a0877749b817f19&#45;&gt;dir_e58f2de49667bc7650159953bfcd60a5</title>
<path fill="none" stroke="black" d="M135,-303.7C135,-295.98 135,-286.71 135,-278.11"/>
<polygon fill="black" stroke="black" points="138.5,-278.1 135,-268.1 131.5,-278.1 138.5,-278.1"/>
<g id="a_edge6&#45;headlabel"><a xlink:href="dir_000004_000006.html" target="_top" xlink:title="1">
<text text-anchor="middle" x="141.34" y="-279.2" font-family="Helvetica,sans-Serif" font-size="10.00">1</text>
</a>
</g>
</g>
<!-- dir_c5641c002233c40e546fb4944ecf7616&#45;&gt;dir_405fd32de3649961a5f009c7a3fe84df -->
<g id="edge9" class="edge">
<title>dir_c5641c002233c40e546fb4944ecf7616&#45;&gt;dir_405fd32de3649961a5f009c7a3fe84df</title>
<path fill="none" stroke="black" d="M64.92,-231.85C69.07,-194.83 78.9,-107.18 83.93,-62.39"/>
<polygon fill="black" stroke="black" points="87.43,-62.56 85.07,-52.23 80.47,-61.78 87.43,-62.56"/>
<g id="a_edge9&#45;headlabel"><a xlink:href="dir_000005_000003.html" target="_top" xlink:title="2">
<text text-anchor="middle" x="89.85" y="-63.95" font-family="Helvetica,sans-Serif" font-size="10.00">2</text>
</a>
</g>
</g>
<!-- dir_c5641c002233c40e546fb4944ecf7616&#45;&gt;dir_7bc5e25958a2fb25a8561f3aa0def6c5 -->
<g id="edge10" class="edge">
<title>dir_c5641c002233c40e546fb4944ecf7616&#45;&gt;dir_7bc5e25958a2fb25a8561f3aa0def6c5</title>
<path fill="none" stroke="black" d="M80.55,-231.7C89.23,-223.14 99.86,-212.66 109.35,-203.3"/>
<polygon fill="black" stroke="black" points="111.99,-205.62 116.65,-196.1 107.07,-200.63 111.99,-205.62"/>
<g id="a_edge10&#45;headlabel"><a xlink:href="dir_000005_000012.html" target="_top" xlink:title="2">
<text text-anchor="middle" x="111.42" y="-207.66" font-family="Helvetica,sans-Serif" font-size="10.00">2</text>
</a>
</g>
</g>
<!-- dir_e58f2de49667bc7650159953bfcd60a5&#45;&gt;dir_405fd32de3649961a5f009c7a3fe84df -->
<g id="edge7" class="edge">
<title>dir_e58f2de49667bc7650159953bfcd60a5&#45;&gt;dir_405fd32de3649961a5f009c7a3fe84df</title>
<path fill="none" stroke="black" d="M119.32,-231.73C111.45,-221.97 102.63,-209.12 98,-196 82.19,-151.13 82.51,-94.95 84.52,-62.21"/>
<polygon fill="black" stroke="black" points="88.03,-62.27 85.25,-52.05 81.05,-61.77 88.03,-62.27"/>
<g id="a_edge7&#45;headlabel"><a xlink:href="dir_000006_000003.html" target="_top" xlink:title="2">
<text text-anchor="middle" x="90.6" y="-63.56" font-family="Helvetica,sans-Serif" font-size="10.00">2</text>
</a>
</g>
</g>
<!-- dir_e58f2de49667bc7650159953bfcd60a5&#45;&gt;dir_7bc5e25958a2fb25a8561f3aa0def6c5 -->
<g id="edge8" class="edge">
<title>dir_e58f2de49667bc7650159953bfcd60a5&#45;&gt;dir_7bc5e25958a2fb25a8561f3aa0def6c5</title>
<path fill="none" stroke="black" d="M134.75,-231.7C134.64,-223.98 134.51,-214.71 134.39,-206.11"/>
<polygon fill="black" stroke="black" points="137.89,-206.05 134.24,-196.1 130.89,-206.15 137.89,-206.05"/>
<g id="a_edge8&#45;headlabel"><a xlink:href="dir_000006_000012.html" target="_top" xlink:title="1">
<text text-anchor="middle" x="140.78" y="-207.11" font-family="Helvetica,sans-Serif" font-size="10.00">1</text>
</a>
</g>
</g>
</g>
</svg>
