<?xml version="1.0" encoding="UTF-8" standalone="no"?>
<!DOCTYPE svg PUBLIC "-//W3C//DTD SVG 1.1//EN"
 "http://www.w3.org/Graphics/SVG/1.1/DTD/svg11.dtd">
<!-- Generated by graphviz version 2.44.0 ()
 -->
<!-- Title: src/gui/renderer Pages: 1 -->
<svg width="282pt" height="295pt"
 viewBox="0.00 0.00 282.25 295.00" xmlns="http://www.w3.org/2000/svg" xmlns:xlink="http://www.w3.org/1999/xlink">
<g id="graph0" class="graph" transform="scale(1 1) rotate(0) translate(4 291)">
<title>src/gui/renderer</title>
<g id="clust1" class="cluster">
<title>clusterdir_99d0482cf009f9d97a0877749b817f19</title>
<g id="a_clust1"><a xlink:href="dir_99d0482cf009f9d97a0877749b817f19.html" target="_top" xlink:title="gui">
<polygon fill="#ddddee" stroke="black" points="8,-64 8,-279 170,-279 170,-64 8,-64"/>
<text text-anchor="middle" x="89" y="-267" font-family="Helvetica,sans-Serif" font-size="10.00">gui</text>
</a>
</g>
</g>
<!-- dir_22f2d8aa4dd51fedf85a27f8591728c9 -->
<g id="node1" class="node">
<title>dir_22f2d8aa4dd51fedf85a27f8591728c9</title>
<g id="a_node1"><a xlink:href="dir_22f2d8aa4dd51fedf85a27f8591728c9.html" target="_top" xlink:title="vectordraw">
<polygon fill="none" stroke="black" points="161.5,-252 96.5,-252 96.5,-216 161.5,-216 161.5,-252"/>
<text text-anchor="middle" x="129" y="-231.5" font-family="Helvetica,sans-Serif" font-size="10.00">vectordraw</text>
</a>
</g>
</g>
<!-- dir_55dc9d71d206728a8556f576ce22adae -->
<g id="node4" class="node">
<title>dir_55dc9d71d206728a8556f576ce22adae</title>
<g id="a_node4"><a xlink:href="dir_55dc9d71d206728a8556f576ce22adae.html" target="_top" xlink:title="renderer">
<polygon fill="#eeeeff" stroke="black" points="158,-180 104,-180 104,-144 158,-144 158,-180"/>
<text text-anchor="middle" x="131" y="-159.5" font-family="Helvetica,sans-Serif" font-size="10.00">renderer</text>
</a>
</g>
</g>
<!-- dir_22f2d8aa4dd51fedf85a27f8591728c9&#45;&gt;dir_55dc9d71d206728a8556f576ce22adae -->
<g id="edge5" class="edge">
<title>dir_22f2d8aa4dd51fedf85a27f8591728c9&#45;&gt;dir_55dc9d71d206728a8556f576ce22adae</title>
<path fill="none" stroke="black" d="M123.58,-215.7C123,-207.98 123.04,-198.71 123.63,-190.11"/>
<polygon fill="black" stroke="black" points="127.12,-190.4 124.62,-180.1 120.15,-189.71 127.12,-190.4"/>
<g id="a_edge5&#45;headlabel"><a xlink:href="dir_000010_000008.html" target="_top" xlink:title="2">
<text text-anchor="middle" x="129.59" y="-191.76" font-family="Helvetica,sans-Serif" font-size="10.00">2</text>
</a>
</g>
</g>
<!-- dir_79769c2014326999657a5fac8224bdec -->
<g id="node6" class="node">
<title>dir_79769c2014326999657a5fac8224bdec</title>
<g id="a_node6"><a xlink:href="dir_79769c2014326999657a5fac8224bdec.html" target="_top" xlink:title="platformabstraction">
<polygon fill="none" stroke="red" points="261,-36 161,-36 161,0 261,0 261,-36"/>
<text text-anchor="middle" x="211" y="-15.5" font-family="Helvetica,sans-Serif" font-size="10.00">platformabstraction</text>
</a>
</g>
</g>
<!-- dir_22f2d8aa4dd51fedf85a27f8591728c9&#45;&gt;dir_79769c2014326999657a5fac8224bdec -->
<g id="edge6" class="edge">
<title>dir_22f2d8aa4dd51fedf85a27f8591728c9&#45;&gt;dir_79769c2014326999657a5fac8224bdec</title>
<path fill="none" stroke="black" d="M160.02,-215.95C193.82,-195.39 246.01,-157.36 268,-108 275.96,-90.14 276.53,-81.6 268,-64 263.96,-55.67 257.55,-48.41 250.46,-42.3"/>
<polygon fill="black" stroke="black" points="252.61,-39.54 242.58,-36.13 248.29,-45.05 252.61,-39.54"/>
<g id="a_edge6&#45;headlabel"><a xlink:href="dir_000010_000013.html" target="_top" xlink:title="1">
<text text-anchor="middle" x="257.19" y="-37.02" font-family="Helvetica,sans-Serif" font-size="10.00">1</text>
</a>
</g>
</g>
<!-- dir_666b763223e2e564039666be3a39faff -->
<g id="node2" class="node">
<title>dir_666b763223e2e564039666be3a39faff</title>
<g id="a_node2"><a xlink:href="dir_666b763223e2e564039666be3a39faff.html" target="_top" xlink:title="colorselector">
<polygon fill="none" stroke="black" points="88,-108 16,-108 16,-72 88,-72 88,-108"/>
<text text-anchor="middle" x="52" y="-87.5" font-family="Helvetica,sans-Serif" font-size="10.00">colorselector</text>
</a>
</g>
</g>
<!-- dir_666b763223e2e564039666be3a39faff&#45;&gt;dir_55dc9d71d206728a8556f576ce22adae -->
<g id="edge3" class="edge">
<title>dir_666b763223e2e564039666be3a39faff&#45;&gt;dir_55dc9d71d206728a8556f576ce22adae</title>
<path fill="none" stroke="black" d="M77.2,-108.1C87.83,-116.72 99.97,-127.32 110.1,-136.76"/>
<polygon fill="black" stroke="black" points="107.73,-139.34 117.39,-143.7 112.56,-134.27 107.73,-139.34"/>
<g id="a_edge3&#45;headlabel"><a xlink:href="dir_000005_000008.html" target="_top" xlink:title="1">
<text text-anchor="middle" x="103.17" y="-136.41" font-family="Helvetica,sans-Serif" font-size="10.00">1</text>
</a>
</g>
</g>
<!-- dir_666b763223e2e564039666be3a39faff&#45;&gt;dir_79769c2014326999657a5fac8224bdec -->
<g id="edge4" class="edge">
<title>dir_666b763223e2e564039666be3a39faff&#45;&gt;dir_79769c2014326999657a5fac8224bdec</title>
<path fill="none" stroke="black" d="M81.73,-71.77C86.77,-69.06 91.99,-66.37 97,-64 115.35,-55.33 135.85,-46.87 154.35,-39.67"/>
<polygon fill="black" stroke="black" points="155.74,-42.89 163.82,-36.03 153.23,-36.35 155.74,-42.89"/>
<g id="a_edge4&#45;headlabel"><a xlink:href="dir_000005_000013.html" target="_top" xlink:title="3">
<text text-anchor="middle" x="153.41" y="-44.33" font-family="Helvetica,sans-Serif" font-size="10.00">3</text>
</a>
</g>
</g>
<!-- dir_c1d21909fe2780e9c989f423d6169745 -->
<g id="node3" class="node">
<title>dir_c1d21909fe2780e9c989f423d6169745</title>
<g id="a_node3"><a xlink:href="dir_c1d21909fe2780e9c989f423d6169745.html" target="_top" xlink:title="icondraw">
<polygon fill="none" stroke="black" points="162,-108 106,-108 106,-72 162,-72 162,-108"/>
<text text-anchor="middle" x="134" y="-87.5" font-family="Helvetica,sans-Serif" font-size="10.00">icondraw</text>
</a>
</g>
</g>
<!-- dir_c1d21909fe2780e9c989f423d6169745&#45;&gt;dir_55dc9d71d206728a8556f576ce22adae -->
<g id="edge1" class="edge">
<title>dir_c1d21909fe2780e9c989f423d6169745&#45;&gt;dir_55dc9d71d206728a8556f576ce22adae</title>
<path fill="none" stroke="black" d="M139.16,-108.1C139.64,-115.79 139.48,-125.05 138.78,-133.67"/>
<polygon fill="black" stroke="black" points="135.29,-133.37 137.66,-143.7 142.24,-134.15 135.29,-133.37"/>
<g id="a_edge1&#45;headlabel"><a xlink:href="dir_000006_000008.html" target="_top" xlink:title="2">
<text text-anchor="middle" x="132.86" y="-126.98" font-family="Helvetica,sans-Serif" font-size="10.00">2</text>
</a>
</g>
</g>
<!-- dir_c1d21909fe2780e9c989f423d6169745&#45;&gt;dir_79769c2014326999657a5fac8224bdec -->
<g id="edge2" class="edge">
<title>dir_c1d21909fe2780e9c989f423d6169745&#45;&gt;dir_79769c2014326999657a5fac8224bdec</title>
<path fill="none" stroke="black" d="M153.03,-71.7C162.54,-63.05 174.21,-52.45 184.57,-43.03"/>
<polygon fill="black" stroke="black" points="187.14,-45.42 192.19,-36.1 182.43,-40.24 187.14,-45.42"/>
<g id="a_edge2&#45;headlabel"><a xlink:href="dir_000006_000013.html" target="_top" xlink:title="2">
<text text-anchor="middle" x="186.39" y="-47.44" font-family="Helvetica,sans-Serif" font-size="10.00">2</text>
</a>
</g>
</g>
<!-- dir_55dc9d71d206728a8556f576ce22adae&#45;&gt;dir_22f2d8aa4dd51fedf85a27f8591728c9 -->
<g id="edge9" class="edge">
<title>dir_55dc9d71d206728a8556f576ce22adae&#45;&gt;dir_22f2d8aa4dd51fedf85a27f8591728c9</title>
<path fill="none" stroke="black" d="M136.41,-180.1C136.99,-187.79 136.96,-197.05 136.39,-205.67"/>
<polygon fill="black" stroke="black" points="132.89,-205.4 135.41,-215.7 139.86,-206.08 132.89,-205.4"/>
<g id="a_edge9&#45;headlabel"><a xlink:href="dir_000008_000010.html" target="_top" xlink:title="1">
<text text-anchor="middle" x="130.42" y="-199.05" font-family="Helvetica,sans-Serif" font-size="10.00">1</text>
</a>
</g>
</g>
<!-- dir_55dc9d71d206728a8556f576ce22adae&#45;&gt;dir_666b763223e2e564039666be3a39faff -->
<g id="edge10" class="edge">
<title>dir_55dc9d71d206728a8556f576ce22adae&#45;&gt;dir_666b763223e2e564039666be3a39faff</title>
<path fill="none" stroke="black" d="M105.56,-143.7C94.91,-135.05 82.76,-124.45 72.67,-115.03"/>
<polygon fill="black" stroke="black" points="75.06,-112.47 65.41,-108.1 70.23,-117.54 75.06,-112.47"/>
<g id="a_edge10&#45;headlabel"><a xlink:href="dir_000008_000005.html" target="_top" xlink:title="1">
<text text-anchor="middle" x="79.62" y="-110.4" font-family="Helvetica,sans-Serif" font-size="10.00">1</text>
</a>
</g>
</g>
<!-- dir_55dc9d71d206728a8556f576ce22adae&#45;&gt;dir_c1d21909fe2780e9c989f423d6169745 -->
<g id="edge12" class="edge">
<title>dir_55dc9d71d206728a8556f576ce22adae&#45;&gt;dir_c1d21909fe2780e9c989f423d6169745</title>
<path fill="none" stroke="black" d="M125.83,-143.7C125.36,-135.98 125.53,-126.71 126.24,-118.11"/>
<polygon fill="black" stroke="black" points="129.73,-118.43 127.37,-108.1 122.77,-117.65 129.73,-118.43"/>
<g id="a_edge12&#45;headlabel"><a xlink:href="dir_000008_000006.html" target="_top" xlink:title="1">
<text text-anchor="middle" x="132.15" y="-119.82" font-family="Helvetica,sans-Serif" font-size="10.00">1</text>
</a>
</g>
</g>
<!-- dir_0b61c55142250c0cc363383afd8075a4 -->
<g id="node5" class="node">
<title>dir_0b61c55142250c0cc363383afd8075a4</title>
<g id="a_node5"><a xlink:href="dir_0b61c55142250c0cc363383afd8075a4.html" target="_top" xlink:title="containers">
<polygon fill="none" stroke="black" points="242,-108 180,-108 180,-72 242,-72 242,-108"/>
<text text-anchor="middle" x="211" y="-87.5" font-family="Helvetica,sans-Serif" font-size="10.00">containers</text>
</a>
</g>
</g>
<!-- dir_55dc9d71d206728a8556f576ce22adae&#45;&gt;dir_0b61c55142250c0cc363383afd8075a4 -->
<g id="edge8" class="edge">
<title>dir_55dc9d71d206728a8556f576ce22adae&#45;&gt;dir_0b61c55142250c0cc363383afd8075a4</title>
<path fill="none" stroke="black" d="M150.78,-143.7C160.75,-134.97 173.01,-124.24 183.86,-114.75"/>
<polygon fill="black" stroke="black" points="186.23,-117.32 191.45,-108.1 181.62,-112.06 186.23,-117.32"/>
<g id="a_edge8&#45;headlabel"><a xlink:href="dir_000008_000001.html" target="_top" xlink:title="1">
<text text-anchor="middle" x="185.4" y="-119.33" font-family="Helvetica,sans-Serif" font-size="10.00">1</text>
</a>
</g>
</g>
<!-- dir_55dc9d71d206728a8556f576ce22adae&#45;&gt;dir_79769c2014326999657a5fac8224bdec -->
<g id="edge11" class="edge">
<title>dir_55dc9d71d206728a8556f576ce22adae&#45;&gt;dir_79769c2014326999657a5fac8224bdec</title>
<path fill="none" stroke="black" d="M158.19,-157.56C186.83,-152.32 230.55,-139.39 251,-108 261.68,-91.62 257.95,-82.28 251,-64 248.24,-56.75 243.72,-49.91 238.69,-43.87"/>
<polygon fill="black" stroke="black" points="240.96,-41.17 231.63,-36.15 235.79,-45.89 240.96,-41.17"/>
<g id="a_edge11&#45;headlabel"><a xlink:href="dir_000008_000013.html" target="_top" xlink:title="1">
<text text-anchor="middle" x="245.48" y="-39.4" font-family="Helvetica,sans-Serif" font-size="10.00">1</text>
</a>
</g>
</g>
<!-- dir_0b61c55142250c0cc363383afd8075a4&#45;&gt;dir_79769c2014326999657a5fac8224bdec -->
<g id="edge7" class="edge">
<title>dir_0b61c55142250c0cc363383afd8075a4&#45;&gt;dir_79769c2014326999657a5fac8224bdec</title>
<path fill="none" stroke="black" d="M211,-71.7C211,-63.98 211,-54.71 211,-46.11"/>
<polygon fill="black" stroke="black" points="214.5,-46.1 211,-36.1 207.5,-46.1 214.5,-46.1"/>
<g id="a_edge7&#45;headlabel"><a xlink:href="dir_000001_000013.html" target="_top" xlink:title="4">
<text text-anchor="middle" x="217.34" y="-47.2" font-family="Helvetica,sans-Serif" font-size="10.00">4</text>
</a>
</g>
</g>
</g>
</svg>
