<?xml version="1.0" encoding="UTF-8" standalone="no"?>
<!DOCTYPE svg PUBLIC "-//W3C//DTD SVG 1.1//EN"
 "http://www.w3.org/Graphics/SVG/1.1/DTD/svg11.dtd">
<!-- Generated by graphviz version 2.44.0 ()
 -->
<!-- Title: src/renderer/opengl Pages: 1 -->
<svg width="424pt" height="267pt"
 viewBox="0.00 0.00 424.20 267.00" xmlns="http://www.w3.org/2000/svg" xmlns:xlink="http://www.w3.org/1999/xlink">
<g id="graph0" class="graph" transform="scale(1 1) rotate(0) translate(4 263)">
<title>src/renderer/opengl</title>
<g id="clust1" class="cluster">
<title>clusterdir_7bc5e25958a2fb25a8561f3aa0def6c5</title>
<g id="a_clust1"><a xlink:href="dir_7bc5e25958a2fb25a8561f3aa0def6c5.html" target="_top" xlink:title="renderer">
<polygon fill="#ddddee" stroke="black" points="18,-128 18,-215 405,-215 405,-128 18,-128"/>
<text text-anchor="middle" x="211.5" y="-203" font-family="Helvetica,sans-Serif" font-size="10.00">renderer</text>
</a>
</g>
</g>
<g id="clust2" class="cluster">
<title>clusterdir_81ad5397e2f6e7d41ed68488a4d626a2</title>
<g id="a_clust2"><a xlink:href="dir_81ad5397e2f6e7d41ed68488a4d626a2.html" target="_top">
<polygon fill="#eeeeff" stroke="black" points="26,-136 26,-188 397,-188 397,-136 26,-136"/>
</a>
</g>
</g>
<!-- dir_81ad5397e2f6e7d41ed68488a4d626a2 -->
<g id="node1" class="node">
<title>dir_81ad5397e2f6e7d41ed68488a4d626a2</title>
<text text-anchor="middle" x="61" y="-159.5" font-family="Helvetica,sans-Serif" font-size="10.00">opengl</text>
</g>
<!-- dir_0b61c55142250c0cc363383afd8075a4 -->
<g id="node5" class="node">
<title>dir_0b61c55142250c0cc363383afd8075a4</title>
<g id="a_node5"><a xlink:href="dir_0b61c55142250c0cc363383afd8075a4.html" target="_top" xlink:title="containers">
<polygon fill="none" stroke="black" points="62,-108 0,-108 0,-72 62,-72 62,-108"/>
<text text-anchor="middle" x="31" y="-87.5" font-family="Helvetica,sans-Serif" font-size="10.00">containers</text>
</a>
</g>
</g>
<!-- dir_81ad5397e2f6e7d41ed68488a4d626a2&#45;&gt;dir_0b61c55142250c0cc363383afd8075a4 -->
<g id="edge6" class="edge">
<title>dir_81ad5397e2f6e7d41ed68488a4d626a2&#45;&gt;dir_0b61c55142250c0cc363383afd8075a4</title>
<path fill="none" stroke="black" d="M53.58,-143.7C50.21,-135.81 46.13,-126.3 42.38,-117.55"/>
<polygon fill="black" stroke="black" points="45.49,-115.92 38.33,-108.1 39.05,-118.67 45.49,-115.92"/>
<g id="a_edge6&#45;headlabel"><a xlink:href="dir_000011_000001.html" target="_top" xlink:title="1">
<text text-anchor="middle" x="49.51" y="-115.6" font-family="Helvetica,sans-Serif" font-size="10.00">1</text>
</a>
</g>
</g>
<!-- dir_ff06f8c973899712029e39f18474ef3f -->
<g id="node2" class="node">
<title>dir_ff06f8c973899712029e39f18474ef3f</title>
<g id="a_node2"><a xlink:href="dir_ff06f8c973899712029e39f18474ef3f.html" target="_top" xlink:title="colorwheelprogram">
<polygon fill="white" stroke="black" points="204,-180 106,-180 106,-144 204,-144 204,-180"/>
<text text-anchor="middle" x="155" y="-159.5" font-family="Helvetica,sans-Serif" font-size="10.00">colorwheelprogram</text>
</a>
</g>
</g>
<!-- dir_405fd32de3649961a5f009c7a3fe84df -->
<g id="node6" class="node">
<title>dir_405fd32de3649961a5f009c7a3fe84df</title>
<g id="a_node6"><a xlink:href="dir_405fd32de3649961a5f009c7a3fe84df.html" target="_top" xlink:title="geometry">
<polygon fill="none" stroke="black" points="300,-36 244,-36 244,0 300,0 300,-36"/>
<text text-anchor="middle" x="272" y="-15.5" font-family="Helvetica,sans-Serif" font-size="10.00">geometry</text>
</a>
</g>
</g>
<!-- dir_ff06f8c973899712029e39f18474ef3f&#45;&gt;dir_405fd32de3649961a5f009c7a3fe84df -->
<g id="edge12" class="edge">
<title>dir_ff06f8c973899712029e39f18474ef3f&#45;&gt;dir_405fd32de3649961a5f009c7a3fe84df</title>
<path fill="none" stroke="black" d="M161.87,-144C170.04,-125.09 185,-94.28 204,-72 213.46,-60.91 225.56,-50.59 236.92,-42.06"/>
<polygon fill="black" stroke="black" points="238.98,-44.88 245.02,-36.17 234.87,-39.22 238.98,-44.88"/>
<g id="a_edge12&#45;headlabel"><a xlink:href="dir_000012_000003.html" target="_top" xlink:title="2">
<text text-anchor="middle" x="237.74" y="-46.79" font-family="Helvetica,sans-Serif" font-size="10.00">2</text>
</a>
</g>
</g>
<!-- dir_6728cb4d06bfad248c1327bbff1836c0 -->
<g id="node3" class="node">
<title>dir_6728cb4d06bfad248c1327bbff1836c0</title>
<g id="a_node3"><a xlink:href="dir_6728cb4d06bfad248c1327bbff1836c0.html" target="_top" xlink:title="iconprogram">
<polygon fill="white" stroke="black" points="292,-180 222,-180 222,-144 292,-144 292,-180"/>
<text text-anchor="middle" x="257" y="-159.5" font-family="Helvetica,sans-Serif" font-size="10.00">iconprogram</text>
</a>
</g>
</g>
<!-- dir_6728cb4d06bfad248c1327bbff1836c0&#45;&gt;dir_405fd32de3649961a5f009c7a3fe84df -->
<g id="edge9" class="edge">
<title>dir_6728cb4d06bfad248c1327bbff1836c0&#45;&gt;dir_405fd32de3649961a5f009c7a3fe84df</title>
<path fill="none" stroke="black" d="M237.53,-143.92C228.18,-134.4 217.95,-121.72 213,-108 207.57,-92.95 206.48,-86.61 213,-72 218.08,-60.6 226.96,-50.63 236.31,-42.51"/>
<polygon fill="black" stroke="black" points="238.63,-45.14 244.2,-36.13 234.22,-39.69 238.63,-45.14"/>
<g id="a_edge9&#45;headlabel"><a xlink:href="dir_000013_000003.html" target="_top" xlink:title="4">
<text text-anchor="middle" x="237.62" y="-47.11" font-family="Helvetica,sans-Serif" font-size="10.00">4</text>
</a>
</g>
</g>
<!-- dir_79769c2014326999657a5fac8224bdec -->
<g id="node7" class="node">
<title>dir_79769c2014326999657a5fac8224bdec</title>
<g id="a_node7"><a xlink:href="dir_79769c2014326999657a5fac8224bdec.html" target="_top" xlink:title="platformabstraction">
<polygon fill="none" stroke="red" points="322,-108 222,-108 222,-72 322,-72 322,-108"/>
<text text-anchor="middle" x="272" y="-87.5" font-family="Helvetica,sans-Serif" font-size="10.00">platformabstraction</text>
</a>
</g>
</g>
<!-- dir_6728cb4d06bfad248c1327bbff1836c0&#45;&gt;dir_79769c2014326999657a5fac8224bdec -->
<g id="edge10" class="edge">
<title>dir_6728cb4d06bfad248c1327bbff1836c0&#45;&gt;dir_79769c2014326999657a5fac8224bdec</title>
<path fill="none" stroke="black" d="M260.71,-143.7C262.36,-135.98 264.35,-126.71 266.19,-118.11"/>
<polygon fill="black" stroke="black" points="269.66,-118.62 268.33,-108.1 262.82,-117.15 269.66,-118.62"/>
<g id="a_edge10&#45;headlabel"><a xlink:href="dir_000013_000007.html" target="_top" xlink:title="1">
<text text-anchor="middle" x="271.68" y="-120.23" font-family="Helvetica,sans-Serif" font-size="10.00">1</text>
</a>
</g>
</g>
<!-- dir_99d0482cf009f9d97a0877749b817f19 -->
<g id="node8" class="node">
<title>dir_99d0482cf009f9d97a0877749b817f19</title>
<g id="a_node8"><a xlink:href="dir_99d0482cf009f9d97a0877749b817f19.html" target="_top" xlink:title="gui">
<polygon fill="none" stroke="black" points="284,-259 230,-259 230,-223 284,-223 284,-259"/>
<text text-anchor="middle" x="257" y="-238.5" font-family="Helvetica,sans-Serif" font-size="10.00">gui</text>
</a>
</g>
</g>
<!-- dir_6728cb4d06bfad248c1327bbff1836c0&#45;&gt;dir_99d0482cf009f9d97a0877749b817f19 -->
<g id="edge11" class="edge">
<title>dir_6728cb4d06bfad248c1327bbff1836c0&#45;&gt;dir_99d0482cf009f9d97a0877749b817f19</title>
<path fill="none" stroke="black" d="M251.29,-180.04C250.25,-189.6 249.99,-201.76 250.51,-212.62"/>
<polygon fill="black" stroke="black" points="247.04,-213.2 251.28,-222.91 254.02,-212.68 247.04,-213.2"/>
<g id="a_edge11&#45;headlabel"><a xlink:href="dir_000013_000004.html" target="_top" xlink:title="2">
<text text-anchor="middle" x="243.94" y="-207.33" font-family="Helvetica,sans-Serif" font-size="10.00">2</text>
</a>
</g>
</g>
<!-- dir_91a289b3b6b3efc86c23ae4cf26c8801 -->
<g id="node4" class="node">
<title>dir_91a289b3b6b3efc86c23ae4cf26c8801</title>
<g id="a_node4"><a xlink:href="dir_91a289b3b6b3efc86c23ae4cf26c8801.html" target="_top" xlink:title="vectorprogram">
<polygon fill="white" stroke="black" points="389.5,-180 310.5,-180 310.5,-144 389.5,-144 389.5,-180"/>
<text text-anchor="middle" x="350" y="-159.5" font-family="Helvetica,sans-Serif" font-size="10.00">vectorprogram</text>
</a>
</g>
</g>
<!-- dir_91a289b3b6b3efc86c23ae4cf26c8801&#45;&gt;dir_405fd32de3649961a5f009c7a3fe84df -->
<g id="edge7" class="edge">
<title>dir_91a289b3b6b3efc86c23ae4cf26c8801&#45;&gt;dir_405fd32de3649961a5f009c7a3fe84df</title>
<path fill="none" stroke="black" d="M349.45,-143.81C348.18,-125.01 344.06,-94.56 331,-72 324.59,-60.92 315.05,-50.9 305.51,-42.63"/>
<polygon fill="black" stroke="black" points="307.51,-39.74 297.55,-36.11 303.07,-45.15 307.51,-39.74"/>
<g id="a_edge7&#45;headlabel"><a xlink:href="dir_000014_000003.html" target="_top" xlink:title="1">
<text text-anchor="middle" x="312.09" y="-37.32" font-family="Helvetica,sans-Serif" font-size="10.00">1</text>
</a>
</g>
</g>
<!-- dir_91a289b3b6b3efc86c23ae4cf26c8801&#45;&gt;dir_99d0482cf009f9d97a0877749b817f19 -->
<g id="edge8" class="edge">
<title>dir_91a289b3b6b3efc86c23ae4cf26c8801&#45;&gt;dir_99d0482cf009f9d97a0877749b817f19</title>
<path fill="none" stroke="black" d="M328.42,-180.18C317.88,-190.97 305.07,-204.73 292,-215 291.14,-215.68 290.25,-216.35 289.35,-217.01"/>
<polygon fill="black" stroke="black" points="287.24,-214.22 280.98,-222.76 291.2,-219.99 287.24,-214.22"/>
<g id="a_edge8&#45;headlabel"><a xlink:href="dir_000014_000004.html" target="_top" xlink:title="2">
<text text-anchor="middle" x="288.6" y="-207.34" font-family="Helvetica,sans-Serif" font-size="10.00">2</text>
</a>
</g>
</g>
<!-- dir_79769c2014326999657a5fac8224bdec&#45;&gt;dir_405fd32de3649961a5f009c7a3fe84df -->
<g id="edge13" class="edge">
<title>dir_79769c2014326999657a5fac8224bdec&#45;&gt;dir_405fd32de3649961a5f009c7a3fe84df</title>
<path fill="none" stroke="black" d="M272,-71.7C272,-63.98 272,-54.71 272,-46.11"/>
<polygon fill="black" stroke="black" points="275.5,-46.1 272,-36.1 268.5,-46.1 275.5,-46.1"/>
<g id="a_edge13&#45;headlabel"><a xlink:href="dir_000007_000003.html" target="_top" xlink:title="1">
<text text-anchor="middle" x="278.34" y="-47.2" font-family="Helvetica,sans-Serif" font-size="10.00">1</text>
</a>
</g>
</g>
<!-- dir_99d0482cf009f9d97a0877749b817f19&#45;&gt;dir_81ad5397e2f6e7d41ed68488a4d626a2 -->
<g id="edge4" class="edge">
<title>dir_99d0482cf009f9d97a0877749b817f19&#45;&gt;dir_81ad5397e2f6e7d41ed68488a4d626a2</title>
<path fill="none" stroke="black" d="M229.73,-238.32C190.01,-235.46 118.62,-228.56 97,-215 87.06,-208.77 79.15,-198.68 73.3,-189.04"/>
<polygon fill="black" stroke="black" points="76.24,-187.12 68.33,-180.07 70.12,-190.52 76.24,-187.12"/>
<g id="a_edge4&#45;headlabel"><a xlink:href="dir_000004_000011.html" target="_top" xlink:title="6">
<text text-anchor="middle" x="80.46" y="-186.39" font-family="Helvetica,sans-Serif" font-size="10.00">6</text>
</a>
</g>
</g>
<!-- dir_99d0482cf009f9d97a0877749b817f19&#45;&gt;dir_6728cb4d06bfad248c1327bbff1836c0 -->
<g id="edge3" class="edge">
<title>dir_99d0482cf009f9d97a0877749b817f19&#45;&gt;dir_6728cb4d06bfad248c1327bbff1836c0</title>
<path fill="none" stroke="black" d="M262.72,-222.91C263.75,-213.34 264.01,-201.18 263.49,-190.32"/>
<polygon fill="black" stroke="black" points="266.96,-189.75 262.71,-180.04 259.98,-190.28 266.96,-189.75"/>
<g id="a_edge3&#45;headlabel"><a xlink:href="dir_000004_000013.html" target="_top" xlink:title="1">
<text text-anchor="middle" x="270.06" y="-190.62" font-family="Helvetica,sans-Serif" font-size="10.00">1</text>
</a>
</g>
</g>
<!-- dir_99d0482cf009f9d97a0877749b817f19&#45;&gt;dir_91a289b3b6b3efc86c23ae4cf26c8801 -->
<g id="edge5" class="edge">
<title>dir_99d0482cf009f9d97a0877749b817f19&#45;&gt;dir_91a289b3b6b3efc86c23ae4cf26c8801</title>
<path fill="none" stroke="black" d="M284,-230.94C292.87,-226.62 302.26,-221.08 310,-215 320.01,-207.14 329.86,-197.23 337.5,-188.17"/>
<polygon fill="black" stroke="black" points="340.37,-190.19 343.84,-180.18 334.88,-185.84 340.37,-190.19"/>
<g id="a_edge5&#45;headlabel"><a xlink:href="dir_000004_000014.html" target="_top" xlink:title="2">
<text text-anchor="middle" x="340.36" y="-192.27" font-family="Helvetica,sans-Serif" font-size="10.00">2</text>
</a>
</g>
</g>
<!-- dir_99d0482cf009f9d97a0877749b817f19&#45;&gt;dir_0b61c55142250c0cc363383afd8075a4 -->
<g id="edge1" class="edge">
<title>dir_99d0482cf009f9d97a0877749b817f19&#45;&gt;dir_0b61c55142250c0cc363383afd8075a4</title>
<path fill="none" stroke="black" d="M229.71,-239.11C170.76,-236.9 35.68,-230.22 22,-215 -1.52,-188.84 8.55,-145.73 18.98,-117.85"/>
<polygon fill="black" stroke="black" points="22.33,-118.92 22.78,-108.33 15.82,-116.33 22.33,-118.92"/>
<g id="a_edge1&#45;headlabel"><a xlink:href="dir_000004_000001.html" target="_top" xlink:title="3">
<text text-anchor="middle" x="23.63" y="-120.81" font-family="Helvetica,sans-Serif" font-size="10.00">3</text>
</a>
</g>
</g>
<!-- dir_99d0482cf009f9d97a0877749b817f19&#45;&gt;dir_405fd32de3649961a5f009c7a3fe84df -->
<g id="edge2" class="edge">
<title>dir_99d0482cf009f9d97a0877749b817f19&#45;&gt;dir_405fd32de3649961a5f009c7a3fe84df</title>
<path fill="none" stroke="black" d="M284.28,-239.29C321.8,-237.68 386.38,-232.38 401,-215 425.89,-185.41 414.78,-164.13 401,-128 384.88,-85.74 341.34,-54.83 309.28,-36.94"/>
<polygon fill="black" stroke="black" points="310.63,-33.68 300.16,-32.02 307.31,-39.85 310.63,-33.68"/>
<g id="a_edge2&#45;headlabel"><a xlink:href="dir_000004_000003.html" target="_top" xlink:title="14">
<text text-anchor="middle" x="315.14" y="-30.39" font-family="Helvetica,sans-Serif" font-size="10.00">14</text>
</a>
</g>
</g>
</g>
</svg>
