<?xml version="1.0" encoding="UTF-8" standalone="no"?>
<!DOCTYPE svg PUBLIC "-//W3C//DTD SVG 1.1//EN"
 "http://www.w3.org/Graphics/SVG/1.1/DTD/svg11.dtd">
<!-- Generated by graphviz version 2.44.0 ()
 -->
<!-- Title: src/iconatlas Pages: 1 -->
<svg width="176pt" height="239pt"
 viewBox="0.00 0.00 176.00 239.00" xmlns="http://www.w3.org/2000/svg" xmlns:xlink="http://www.w3.org/1999/xlink">
<g id="graph0" class="graph" transform="scale(1 1) rotate(0) translate(4 235)">
<title>src/iconatlas</title>
<g id="clust1" class="cluster">
<title>clusterdir_68267d1309a1af8e8297ef4c3efbcdba</title>
<g id="a_clust1"><a xlink:href="dir_68267d1309a1af8e8297ef4c3efbcdba.html" target="_top" xlink:title="src">
<polygon fill="#ddddee" stroke="black" points="8,-8 8,-223 160,-223 160,-8 8,-8"/>
<text text-anchor="middle" x="84" y="-211" font-family="Helvetica,sans-Serif" font-size="10.00">src</text>
</a>
</g>
</g>
<!-- dir_0b61c55142250c0cc363383afd8075a4 -->
<g id="node1" class="node">
<title>dir_0b61c55142250c0cc363383afd8075a4</title>
<g id="a_node1"><a xlink:href="dir_0b61c55142250c0cc363383afd8075a4.html" target="_top" xlink:title="containers">
<polygon fill="none" stroke="black" points="78,-52 16,-52 16,-16 78,-16 78,-52"/>
<text text-anchor="middle" x="47" y="-31.5" font-family="Helvetica,sans-Serif" font-size="10.00">containers</text>
</a>
</g>
</g>
<!-- dir_405fd32de3649961a5f009c7a3fe84df -->
<g id="node2" class="node">
<title>dir_405fd32de3649961a5f009c7a3fe84df</title>
<g id="a_node2"><a xlink:href="dir_405fd32de3649961a5f009c7a3fe84df.html" target="_top" xlink:title="geometry">
<polygon fill="none" stroke="black" points="152,-52 96,-52 96,-16 152,-16 152,-52"/>
<text text-anchor="middle" x="124" y="-31.5" font-family="Helvetica,sans-Serif" font-size="10.00">geometry</text>
</a>
</g>
</g>
<!-- dir_99d0482cf009f9d97a0877749b817f19 -->
<g id="node3" class="node">
<title>dir_99d0482cf009f9d97a0877749b817f19</title>
<g id="a_node3"><a xlink:href="dir_99d0482cf009f9d97a0877749b817f19.html" target="_top" xlink:title="gui">
<polygon fill="none" stroke="red" points="112,-196 58,-196 58,-160 112,-160 112,-196"/>
<text text-anchor="middle" x="85" y="-175.5" font-family="Helvetica,sans-Serif" font-size="10.00">gui</text>
</a>
</g>
</g>
<!-- dir_99d0482cf009f9d97a0877749b817f19&#45;&gt;dir_0b61c55142250c0cc363383afd8075a4 -->
<g id="edge1" class="edge">
<title>dir_99d0482cf009f9d97a0877749b817f19&#45;&gt;dir_0b61c55142250c0cc363383afd8075a4</title>
<path fill="none" stroke="black" d="M69.02,-159.83C61.06,-150.1 52.25,-137.25 48,-124 41.6,-104.04 41.7,-80.25 43.21,-62.29"/>
<polygon fill="black" stroke="black" points="46.71,-62.51 44.25,-52.21 39.74,-61.79 46.71,-62.51"/>
<g id="a_edge1&#45;headlabel"><a xlink:href="dir_000004_000001.html" target="_top" xlink:title="3">
<text text-anchor="middle" x="49.16" y="-63.88" font-family="Helvetica,sans-Serif" font-size="10.00">3</text>
</a>
</g>
</g>
<!-- dir_99d0482cf009f9d97a0877749b817f19&#45;&gt;dir_405fd32de3649961a5f009c7a3fe84df -->
<g id="edge2" class="edge">
<title>dir_99d0482cf009f9d97a0877749b817f19&#45;&gt;dir_405fd32de3649961a5f009c7a3fe84df</title>
<path fill="none" stroke="black" d="M100.92,-159.81C108.86,-150.07 117.68,-137.23 122,-124 128.51,-104.08 128.69,-80.28 127.41,-62.31"/>
<polygon fill="black" stroke="black" points="130.88,-61.87 126.5,-52.22 123.91,-62.5 130.88,-61.87"/>
<g id="a_edge2&#45;headlabel"><a xlink:href="dir_000004_000003.html" target="_top" xlink:title="20">
<text text-anchor="middle" x="134.03" y="-62.69" font-family="Helvetica,sans-Serif" font-size="10.00">20</text>
</a>
</g>
</g>
<!-- dir_b47ddb3a0b86b791c0dd2682d4ed1094 -->
<g id="node4" class="node">
<title>dir_b47ddb3a0b86b791c0dd2682d4ed1094</title>
<g id="a_node4"><a xlink:href="dir_b47ddb3a0b86b791c0dd2682d4ed1094.html" target="_top" xlink:title="iconatlas">
<polygon fill="#eeeeff" stroke="black" points="113,-124 57,-124 57,-88 113,-88 113,-124"/>
<text text-anchor="middle" x="85" y="-103.5" font-family="Helvetica,sans-Serif" font-size="10.00">iconatlas</text>
</a>
</g>
</g>
<!-- dir_99d0482cf009f9d97a0877749b817f19&#45;&gt;dir_b47ddb3a0b86b791c0dd2682d4ed1094 -->
<g id="edge3" class="edge">
<title>dir_99d0482cf009f9d97a0877749b817f19&#45;&gt;dir_b47ddb3a0b86b791c0dd2682d4ed1094</title>
<path fill="none" stroke="black" d="M79.08,-159.7C78.29,-151.98 78.06,-142.71 78.4,-134.11"/>
<polygon fill="black" stroke="black" points="81.9,-134.32 79.1,-124.1 74.92,-133.84 81.9,-134.32"/>
<g id="a_edge3&#45;headlabel"><a xlink:href="dir_000004_000011.html" target="_top" xlink:title="3">
<text text-anchor="middle" x="84.48" y="-135.61" font-family="Helvetica,sans-Serif" font-size="10.00">3</text>
</a>
</g>
</g>
<!-- dir_b47ddb3a0b86b791c0dd2682d4ed1094&#45;&gt;dir_0b61c55142250c0cc363383afd8075a4 -->
<g id="edge4" class="edge">
<title>dir_b47ddb3a0b86b791c0dd2682d4ed1094&#45;&gt;dir_0b61c55142250c0cc363383afd8075a4</title>
<path fill="none" stroke="black" d="M75.61,-87.7C71.24,-79.64 65.94,-69.89 61.1,-60.98"/>
<polygon fill="black" stroke="black" points="64.13,-59.22 56.29,-52.1 57.98,-62.56 64.13,-59.22"/>
<g id="a_edge4&#45;headlabel"><a xlink:href="dir_000011_000001.html" target="_top" xlink:title="1">
<text text-anchor="middle" x="68.34" y="-58.53" font-family="Helvetica,sans-Serif" font-size="10.00">1</text>
</a>
</g>
</g>
<!-- dir_b47ddb3a0b86b791c0dd2682d4ed1094&#45;&gt;dir_405fd32de3649961a5f009c7a3fe84df -->
<g id="edge5" class="edge">
<title>dir_b47ddb3a0b86b791c0dd2682d4ed1094&#45;&gt;dir_405fd32de3649961a5f009c7a3fe84df</title>
<path fill="none" stroke="black" d="M94.64,-87.7C99.13,-79.64 104.56,-69.89 109.52,-60.98"/>
<polygon fill="black" stroke="black" points="112.66,-62.54 114.47,-52.1 106.55,-59.14 112.66,-62.54"/>
<g id="a_edge5&#45;headlabel"><a xlink:href="dir_000011_000003.html" target="_top" xlink:title="3">
<text text-anchor="middle" x="113.39" y="-64.57" font-family="Helvetica,sans-Serif" font-size="10.00">3</text>
</a>
</g>
</g>
<!-- dir_b47ddb3a0b86b791c0dd2682d4ed1094&#45;&gt;dir_99d0482cf009f9d97a0877749b817f19 -->
<g id="edge6" class="edge">
<title>dir_b47ddb3a0b86b791c0dd2682d4ed1094&#45;&gt;dir_99d0482cf009f9d97a0877749b817f19</title>
<path fill="none" stroke="black" d="M90.9,-124.1C91.7,-131.79 91.94,-141.05 91.6,-149.67"/>
<polygon fill="black" stroke="black" points="88.11,-149.48 90.92,-159.7 95.09,-149.96 88.11,-149.48"/>
<g id="a_edge6&#45;headlabel"><a xlink:href="dir_000011_000004.html" target="_top" xlink:title="1">
<text text-anchor="middle" x="85.52" y="-143.2" font-family="Helvetica,sans-Serif" font-size="10.00">1</text>
</a>
</g>
</g>
</g>
</svg>
