<?xml version="1.0" encoding="UTF-8" standalone="no"?>
<!DOCTYPE svg PUBLIC "-//W3C//DTD SVG 1.1//EN"
 "http://www.w3.org/Graphics/SVG/1.1/DTD/svg11.dtd">
<!-- Generated by graphviz version 2.44.0 ()
 -->
<!-- Title: src/renderer/opengl/icondraw Pages: 1 -->
<svg width="164pt" height="295pt"
 viewBox="0.00 0.00 164.00 295.00" xmlns="http://www.w3.org/2000/svg" xmlns:xlink="http://www.w3.org/1999/xlink">
<g id="graph0" class="graph" transform="scale(1 1) rotate(0) translate(4 291)">
<title>src/renderer/opengl/icondraw</title>
<g id="clust1" class="cluster">
<title>clusterdir_81ad5397e2f6e7d41ed68488a4d626a2</title>
<g id="a_clust1"><a xlink:href="dir_81ad5397e2f6e7d41ed68488a4d626a2.html" target="_top" xlink:title="opengl">
<polygon fill="#ddddee" stroke="black" points="70,-208 70,-279 142,-279 142,-208 70,-208"/>
<text text-anchor="middle" x="106" y="-267" font-family="Helvetica,sans-Serif" font-size="10.00">opengl</text>
</a>
</g>
</g>
<!-- dir_2ffc10c43e5d75828590a4e89e0dc64f -->
<g id="node1" class="node">
<title>dir_2ffc10c43e5d75828590a4e89e0dc64f</title>
<g id="a_node1"><a xlink:href="dir_2ffc10c43e5d75828590a4e89e0dc64f.html" target="_top" xlink:title="icondraw">
<polygon fill="#eeeeff" stroke="black" points="134,-252 78,-252 78,-216 134,-216 134,-252"/>
<text text-anchor="middle" x="106" y="-231.5" font-family="Helvetica,sans-Serif" font-size="10.00">icondraw</text>
</a>
</g>
</g>
<!-- dir_405fd32de3649961a5f009c7a3fe84df -->
<g id="node2" class="node">
<title>dir_405fd32de3649961a5f009c7a3fe84df</title>
<g id="a_node2"><a xlink:href="dir_405fd32de3649961a5f009c7a3fe84df.html" target="_top" xlink:title="geometry">
<polygon fill="none" stroke="black" points="134,-180 78,-180 78,-144 134,-144 134,-180"/>
<text text-anchor="middle" x="106" y="-159.5" font-family="Helvetica,sans-Serif" font-size="10.00">geometry</text>
</a>
</g>
</g>
<!-- dir_2ffc10c43e5d75828590a4e89e0dc64f&#45;&gt;dir_405fd32de3649961a5f009c7a3fe84df -->
<g id="edge1" class="edge">
<title>dir_2ffc10c43e5d75828590a4e89e0dc64f&#45;&gt;dir_405fd32de3649961a5f009c7a3fe84df</title>
<path fill="none" stroke="black" d="M106,-215.7C106,-207.98 106,-198.71 106,-190.11"/>
<polygon fill="black" stroke="black" points="109.5,-190.1 106,-180.1 102.5,-190.1 109.5,-190.1"/>
<g id="a_edge1&#45;headlabel"><a xlink:href="dir_000014_000003.html" target="_top" xlink:title="6">
<text text-anchor="middle" x="112.34" y="-191.2" font-family="Helvetica,sans-Serif" font-size="10.00">6</text>
</a>
</g>
</g>
<!-- dir_79769c2014326999657a5fac8224bdec -->
<g id="node3" class="node">
<title>dir_79769c2014326999657a5fac8224bdec</title>
<g id="a_node3"><a xlink:href="dir_79769c2014326999657a5fac8224bdec.html" target="_top" xlink:title="platformabstraction">
<polygon fill="none" stroke="red" points="100,-108 0,-108 0,-72 100,-72 100,-108"/>
<text text-anchor="middle" x="50" y="-87.5" font-family="Helvetica,sans-Serif" font-size="10.00">platformabstraction</text>
</a>
</g>
</g>
<!-- dir_2ffc10c43e5d75828590a4e89e0dc64f&#45;&gt;dir_79769c2014326999657a5fac8224bdec -->
<g id="edge2" class="edge">
<title>dir_2ffc10c43e5d75828590a4e89e0dc64f&#45;&gt;dir_79769c2014326999657a5fac8224bdec</title>
<path fill="none" stroke="black" d="M91.43,-215.91C83.69,-206.01 74.63,-192.97 69,-180 60.41,-160.23 55.58,-136.25 52.94,-118.16"/>
<polygon fill="black" stroke="black" points="56.38,-117.47 51.6,-108.01 49.44,-118.39 56.38,-117.47"/>
<g id="a_edge2&#45;headlabel"><a xlink:href="dir_000014_000009.html" target="_top" xlink:title="2">
<text text-anchor="middle" x="59.66" y="-118.16" font-family="Helvetica,sans-Serif" font-size="10.00">2</text>
</a>
</g>
</g>
<!-- dir_b47ddb3a0b86b791c0dd2682d4ed1094 -->
<g id="node4" class="node">
<title>dir_b47ddb3a0b86b791c0dd2682d4ed1094</title>
<g id="a_node4"><a xlink:href="dir_b47ddb3a0b86b791c0dd2682d4ed1094.html" target="_top" xlink:title="iconatlas">
<polygon fill="none" stroke="black" points="156,-36 100,-36 100,0 156,0 156,-36"/>
<text text-anchor="middle" x="128" y="-15.5" font-family="Helvetica,sans-Serif" font-size="10.00">iconatlas</text>
</a>
</g>
</g>
<!-- dir_2ffc10c43e5d75828590a4e89e0dc64f&#45;&gt;dir_b47ddb3a0b86b791c0dd2682d4ed1094 -->
<g id="edge3" class="edge">
<title>dir_2ffc10c43e5d75828590a4e89e0dc64f&#45;&gt;dir_b47ddb3a0b86b791c0dd2682d4ed1094</title>
<path fill="none" stroke="black" d="M122.04,-215.85C130.01,-206.12 138.83,-193.27 143,-180 157.29,-134.57 146.05,-78.65 136.85,-46.09"/>
<polygon fill="black" stroke="black" points="140.17,-44.98 133.96,-36.39 133.46,-46.97 140.17,-44.98"/>
<g id="a_edge3&#45;headlabel"><a xlink:href="dir_000014_000007.html" target="_top" xlink:title="2">
<text text-anchor="middle" x="143.91" y="-45.11" font-family="Helvetica,sans-Serif" font-size="10.00">2</text>
</a>
</g>
</g>
<!-- dir_405fd32de3649961a5f009c7a3fe84df&#45;&gt;dir_79769c2014326999657a5fac8224bdec -->
<g id="edge4" class="edge">
<title>dir_405fd32de3649961a5f009c7a3fe84df&#45;&gt;dir_79769c2014326999657a5fac8224bdec</title>
<path fill="none" stroke="black" d="M86.24,-143.7C78.82,-135.47 70.62,-125.48 63.82,-116.42"/>
<polygon fill="black" stroke="black" points="66.49,-114.15 57.79,-108.1 60.82,-118.26 66.49,-114.15"/>
<g id="a_edge4&#45;headlabel"><a xlink:href="dir_000003_000009.html" target="_top" xlink:title="3">
<text text-anchor="middle" x="70.9" y="-112.89" font-family="Helvetica,sans-Serif" font-size="10.00">3</text>
</a>
</g>
</g>
<!-- dir_79769c2014326999657a5fac8224bdec&#45;&gt;dir_405fd32de3649961a5f009c7a3fe84df -->
<g id="edge6" class="edge">
<title>dir_79769c2014326999657a5fac8224bdec&#45;&gt;dir_405fd32de3649961a5f009c7a3fe84df</title>
<path fill="none" stroke="black" d="M69.58,-108.1C76.99,-116.3 85.19,-126.28 92.02,-135.36"/>
<polygon fill="black" stroke="black" points="89.36,-137.66 98.07,-143.7 95.03,-133.55 89.36,-137.66"/>
<g id="a_edge6&#45;headlabel"><a xlink:href="dir_000009_000003.html" target="_top" xlink:title="1">
<text text-anchor="middle" x="84.96" y="-133.92" font-family="Helvetica,sans-Serif" font-size="10.00">1</text>
</a>
</g>
</g>
<!-- dir_79769c2014326999657a5fac8224bdec&#45;&gt;dir_b47ddb3a0b86b791c0dd2682d4ed1094 -->
<g id="edge7" class="edge">
<title>dir_79769c2014326999657a5fac8224bdec&#45;&gt;dir_b47ddb3a0b86b791c0dd2682d4ed1094</title>
<path fill="none" stroke="black" d="M69.28,-71.7C78.92,-63.05 90.73,-52.45 101.23,-43.03"/>
<polygon fill="black" stroke="black" points="103.84,-45.39 108.94,-36.1 99.16,-40.18 103.84,-45.39"/>
<g id="a_edge7&#45;headlabel"><a xlink:href="dir_000009_000007.html" target="_top" xlink:title="1">
<text text-anchor="middle" x="103.06" y="-47.4" font-family="Helvetica,sans-Serif" font-size="10.00">1</text>
</a>
</g>
</g>
<!-- dir_b47ddb3a0b86b791c0dd2682d4ed1094&#45;&gt;dir_405fd32de3649961a5f009c7a3fe84df -->
<g id="edge5" class="edge">
<title>dir_b47ddb3a0b86b791c0dd2682d4ed1094&#45;&gt;dir_405fd32de3649961a5f009c7a3fe84df</title>
<path fill="none" stroke="black" d="M125.34,-36.19C121.58,-60.42 114.69,-104.89 110.23,-133.68"/>
<polygon fill="black" stroke="black" points="106.73,-133.45 108.65,-143.87 113.64,-134.53 106.73,-133.45"/>
<g id="a_edge5&#45;headlabel"><a xlink:href="dir_000007_000003.html" target="_top" xlink:title="2">
<text text-anchor="middle" x="104.47" y="-126.97" font-family="Helvetica,sans-Serif" font-size="10.00">2</text>
</a>
</g>
</g>
</g>
</svg>
