<?xml version="1.0" encoding="UTF-8" standalone="no"?>
<!DOCTYPE svg PUBLIC "-//W3C//DTD SVG 1.1//EN"
 "http://www.w3.org/Graphics/SVG/1.1/DTD/svg11.dtd">
<!-- Generated by graphviz version 2.44.0 ()
 -->
<!-- Title: src/events Pages: 1 -->
<svg width="174pt" height="383pt"
 viewBox="0.00 0.00 174.00 383.00" xmlns="http://www.w3.org/2000/svg" xmlns:xlink="http://www.w3.org/1999/xlink">
<g id="graph0" class="graph" transform="scale(1 1) rotate(0) translate(4 379)">
<title>src/events</title>
<g id="clust1" class="cluster">
<title>clusterdir_68267d1309a1af8e8297ef4c3efbcdba</title>
<g id="a_clust1"><a xlink:href="dir_68267d1309a1af8e8297ef4c3efbcdba.html" target="_top" xlink:title="src">
<polygon fill="#ddddee" stroke="black" points="8,-8 8,-367 158,-367 158,-8 8,-8"/>
<text text-anchor="middle" x="83" y="-355" font-family="Helvetica,sans-Serif" font-size="10.00">src</text>
</a>
</g>
</g>
<!-- dir_405fd32de3649961a5f009c7a3fe84df -->
<g id="node1" class="node">
<title>dir_405fd32de3649961a5f009c7a3fe84df</title>
<g id="a_node1"><a xlink:href="dir_405fd32de3649961a5f009c7a3fe84df.html" target="_top" xlink:title="geometry">
<polygon fill="none" stroke="black" points="129,-124 73,-124 73,-88 129,-88 129,-124"/>
<text text-anchor="middle" x="101" y="-103.5" font-family="Helvetica,sans-Serif" font-size="10.00">geometry</text>
</a>
</g>
</g>
<!-- dir_79769c2014326999657a5fac8224bdec -->
<g id="node2" class="node">
<title>dir_79769c2014326999657a5fac8224bdec</title>
<g id="a_node2"><a xlink:href="dir_79769c2014326999657a5fac8224bdec.html" target="_top" xlink:title="platformabstraction">
<polygon fill="none" stroke="red" points="150,-52 50,-52 50,-16 150,-16 150,-52"/>
<text text-anchor="middle" x="100" y="-31.5" font-family="Helvetica,sans-Serif" font-size="10.00">platformabstraction</text>
</a>
</g>
</g>
<!-- dir_405fd32de3649961a5f009c7a3fe84df&#45;&gt;dir_79769c2014326999657a5fac8224bdec -->
<g id="edge4" class="edge">
<title>dir_405fd32de3649961a5f009c7a3fe84df&#45;&gt;dir_79769c2014326999657a5fac8224bdec</title>
<path fill="none" stroke="black" d="M94.84,-87.7C93.93,-79.98 93.57,-70.71 93.79,-62.11"/>
<polygon fill="black" stroke="black" points="97.29,-62.28 94.35,-52.1 90.3,-61.89 97.29,-62.28"/>
<g id="a_edge4&#45;headlabel"><a xlink:href="dir_000003_000009.html" target="_top" xlink:title="3">
<text text-anchor="middle" x="99.92" y="-63.53" font-family="Helvetica,sans-Serif" font-size="10.00">3</text>
</a>
</g>
</g>
<!-- dir_79769c2014326999657a5fac8224bdec&#45;&gt;dir_405fd32de3649961a5f009c7a3fe84df -->
<g id="edge9" class="edge">
<title>dir_79769c2014326999657a5fac8224bdec&#45;&gt;dir_405fd32de3649961a5f009c7a3fe84df</title>
<path fill="none" stroke="black" d="M106.14,-52.1C107.05,-59.79 107.42,-69.05 107.21,-77.67"/>
<polygon fill="black" stroke="black" points="103.72,-77.52 106.67,-87.7 110.71,-77.9 103.72,-77.52"/>
<g id="a_edge9&#45;headlabel"><a xlink:href="dir_000009_000003.html" target="_top" xlink:title="1">
<text text-anchor="middle" x="101.08" y="-71.28" font-family="Helvetica,sans-Serif" font-size="10.00">1</text>
</a>
</g>
</g>
<!-- dir_7bc5e25958a2fb25a8561f3aa0def6c5 -->
<g id="node3" class="node">
<title>dir_7bc5e25958a2fb25a8561f3aa0def6c5</title>
<g id="a_node3"><a xlink:href="dir_7bc5e25958a2fb25a8561f3aa0def6c5.html" target="_top" xlink:title="renderer">
<polygon fill="none" stroke="red" points="110,-268 56,-268 56,-232 110,-232 110,-268"/>
<text text-anchor="middle" x="83" y="-247.5" font-family="Helvetica,sans-Serif" font-size="10.00">renderer</text>
</a>
</g>
</g>
<!-- dir_7bc5e25958a2fb25a8561f3aa0def6c5&#45;&gt;dir_405fd32de3649961a5f009c7a3fe84df -->
<g id="edge10" class="edge">
<title>dir_7bc5e25958a2fb25a8561f3aa0def6c5&#45;&gt;dir_405fd32de3649961a5f009c7a3fe84df</title>
<path fill="none" stroke="black" d="M82.69,-231.83C82.62,-213.83 83.22,-184.77 87,-160 88.29,-151.53 90.41,-142.47 92.61,-134.27"/>
<polygon fill="black" stroke="black" points="96.03,-135.04 95.38,-124.47 89.29,-133.14 96.03,-135.04"/>
<g id="a_edge10&#45;headlabel"><a xlink:href="dir_000011_000003.html" target="_top" xlink:title="10">
<text text-anchor="middle" x="97.78" y="-136.78" font-family="Helvetica,sans-Serif" font-size="10.00">10</text>
</a>
</g>
</g>
<!-- dir_7bc5e25958a2fb25a8561f3aa0def6c5&#45;&gt;dir_79769c2014326999657a5fac8224bdec -->
<g id="edge11" class="edge">
<title>dir_7bc5e25958a2fb25a8561f3aa0def6c5&#45;&gt;dir_79769c2014326999657a5fac8224bdec</title>
<path fill="none" stroke="black" d="M76.4,-231.66C65.98,-201.7 48.45,-138.58 64,-88 67.01,-78.22 72.51,-68.62 78.32,-60.33"/>
<polygon fill="black" stroke="black" points="81.19,-62.33 84.39,-52.23 75.59,-58.13 81.19,-62.33"/>
<g id="a_edge11&#45;headlabel"><a xlink:href="dir_000011_000009.html" target="_top" xlink:title="15">
<text text-anchor="middle" x="81.31" y="-64.41" font-family="Helvetica,sans-Serif" font-size="10.00">15</text>
</a>
</g>
</g>
<!-- dir_99d0482cf009f9d97a0877749b817f19 -->
<g id="node4" class="node">
<title>dir_99d0482cf009f9d97a0877749b817f19</title>
<g id="a_node4"><a xlink:href="dir_99d0482cf009f9d97a0877749b817f19.html" target="_top" xlink:title="gui">
<polygon fill="none" stroke="red" points="150,-196 96,-196 96,-160 150,-160 150,-196"/>
<text text-anchor="middle" x="123" y="-175.5" font-family="Helvetica,sans-Serif" font-size="10.00">gui</text>
</a>
</g>
</g>
<!-- dir_7bc5e25958a2fb25a8561f3aa0def6c5&#45;&gt;dir_99d0482cf009f9d97a0877749b817f19 -->
<g id="edge12" class="edge">
<title>dir_7bc5e25958a2fb25a8561f3aa0def6c5&#45;&gt;dir_99d0482cf009f9d97a0877749b817f19</title>
<path fill="none" stroke="black" d="M86.97,-231.7C90.78,-223.56 96.22,-213.69 101.78,-204.7"/>
<polygon fill="black" stroke="black" points="104.85,-206.4 107.33,-196.1 98.97,-202.61 104.85,-206.4"/>
<g id="a_edge12&#45;headlabel"><a xlink:href="dir_000011_000004.html" target="_top" xlink:title="1">
<text text-anchor="middle" x="105.28" y="-208.46" font-family="Helvetica,sans-Serif" font-size="10.00">1</text>
</a>
</g>
</g>
<!-- dir_99d0482cf009f9d97a0877749b817f19&#45;&gt;dir_405fd32de3649961a5f009c7a3fe84df -->
<g id="edge1" class="edge">
<title>dir_99d0482cf009f9d97a0877749b817f19&#45;&gt;dir_405fd32de3649961a5f009c7a3fe84df</title>
<path fill="none" stroke="black" d="M117.56,-159.7C115.11,-151.9 112.16,-142.51 109.43,-133.83"/>
<polygon fill="black" stroke="black" points="112.71,-132.59 106.38,-124.1 106.04,-134.69 112.71,-132.59"/>
<g id="a_edge1&#45;headlabel"><a xlink:href="dir_000004_000003.html" target="_top" xlink:title="10">
<text text-anchor="middle" x="116.5" y="-132.67" font-family="Helvetica,sans-Serif" font-size="10.00">10</text>
</a>
</g>
</g>
<!-- dir_99d0482cf009f9d97a0877749b817f19&#45;&gt;dir_79769c2014326999657a5fac8224bdec -->
<g id="edge2" class="edge">
<title>dir_99d0482cf009f9d97a0877749b817f19&#45;&gt;dir_79769c2014326999657a5fac8224bdec</title>
<path fill="none" stroke="black" d="M130.6,-159.92C137.6,-141.75 145.82,-112.32 138,-88 134.81,-78.08 129,-68.44 122.87,-60.17"/>
<polygon fill="black" stroke="black" points="125.42,-57.74 116.46,-52.08 119.93,-62.09 125.42,-57.74"/>
<g id="a_edge2&#45;headlabel"><a xlink:href="dir_000004_000009.html" target="_top" xlink:title="2">
<text text-anchor="middle" x="129.88" y="-56.3" font-family="Helvetica,sans-Serif" font-size="10.00">2</text>
</a>
</g>
</g>
<!-- dir_99d0482cf009f9d97a0877749b817f19&#45;&gt;dir_7bc5e25958a2fb25a8561f3aa0def6c5 -->
<g id="edge3" class="edge">
<title>dir_99d0482cf009f9d97a0877749b817f19&#45;&gt;dir_7bc5e25958a2fb25a8561f3aa0def6c5</title>
<path fill="none" stroke="black" d="M119.12,-196.1C115.34,-204.21 109.92,-214.08 104.36,-223.08"/>
<polygon fill="black" stroke="black" points="101.28,-221.39 98.8,-231.7 107.16,-225.19 101.28,-221.39"/>
<g id="a_edge3&#45;headlabel"><a xlink:href="dir_000004_000011.html" target="_top" xlink:title="6">
<text text-anchor="middle" x="100.84" y="-214.34" font-family="Helvetica,sans-Serif" font-size="10.00">6</text>
</a>
</g>
</g>
<!-- dir_14e1e259e8275dc0c459acef3bbf05ae -->
<g id="node5" class="node">
<title>dir_14e1e259e8275dc0c459acef3bbf05ae</title>
<g id="a_node5"><a xlink:href="dir_14e1e259e8275dc0c459acef3bbf05ae.html" target="_top" xlink:title="events">
<polygon fill="#eeeeff" stroke="black" points="90,-340 36,-340 36,-304 90,-304 90,-340"/>
<text text-anchor="middle" x="63" y="-319.5" font-family="Helvetica,sans-Serif" font-size="10.00">events</text>
</a>
</g>
</g>
<!-- dir_14e1e259e8275dc0c459acef3bbf05ae&#45;&gt;dir_405fd32de3649961a5f009c7a3fe84df -->
<g id="edge5" class="edge">
<title>dir_14e1e259e8275dc0c459acef3bbf05ae&#45;&gt;dir_405fd32de3649961a5f009c7a3fe84df</title>
<path fill="none" stroke="black" d="M56.03,-303.89C49.63,-285.93 41.85,-256.91 47,-232 54.44,-196.03 72.74,-157.68 85.98,-133.08"/>
<polygon fill="black" stroke="black" points="89.19,-134.5 90.94,-124.05 83.06,-131.13 89.19,-134.5"/>
<g id="a_edge5&#45;headlabel"><a xlink:href="dir_000002_000003.html" target="_top" xlink:title="1">
<text text-anchor="middle" x="89.95" y="-136.52" font-family="Helvetica,sans-Serif" font-size="10.00">1</text>
</a>
</g>
</g>
<!-- dir_14e1e259e8275dc0c459acef3bbf05ae&#45;&gt;dir_79769c2014326999657a5fac8224bdec -->
<g id="edge6" class="edge">
<title>dir_14e1e259e8275dc0c459acef3bbf05ae&#45;&gt;dir_79769c2014326999657a5fac8224bdec</title>
<path fill="none" stroke="black" d="M53.87,-303.88C48.99,-293.76 43.49,-280.51 41,-268 31.3,-219.32 33.81,-135.44 54,-88 58.41,-77.64 65.64,-67.84 73.07,-59.56"/>
<polygon fill="black" stroke="black" points="75.8,-61.77 80.17,-52.12 70.73,-56.94 75.8,-61.77"/>
<g id="a_edge6&#45;headlabel"><a xlink:href="dir_000002_000009.html" target="_top" xlink:title="3">
<text text-anchor="middle" x="75.37" y="-63.83" font-family="Helvetica,sans-Serif" font-size="10.00">3</text>
</a>
</g>
</g>
<!-- dir_14e1e259e8275dc0c459acef3bbf05ae&#45;&gt;dir_7bc5e25958a2fb25a8561f3aa0def6c5 -->
<g id="edge7" class="edge">
<title>dir_14e1e259e8275dc0c459acef3bbf05ae&#45;&gt;dir_7bc5e25958a2fb25a8561f3aa0def6c5</title>
<path fill="none" stroke="black" d="M67.94,-303.7C70.17,-295.9 72.85,-286.51 75.33,-277.83"/>
<polygon fill="black" stroke="black" points="78.73,-278.68 78.11,-268.1 72,-276.76 78.73,-278.68"/>
<g id="a_edge7&#45;headlabel"><a xlink:href="dir_000002_000011.html" target="_top" xlink:title="1">
<text text-anchor="middle" x="80.47" y="-280.42" font-family="Helvetica,sans-Serif" font-size="10.00">1</text>
</a>
</g>
</g>
<!-- dir_14e1e259e8275dc0c459acef3bbf05ae&#45;&gt;dir_99d0482cf009f9d97a0877749b817f19 -->
<g id="edge8" class="edge">
<title>dir_14e1e259e8275dc0c459acef3bbf05ae&#45;&gt;dir_99d0482cf009f9d97a0877749b817f19</title>
<path fill="none" stroke="black" d="M88.55,-303.92C100.02,-294.75 112.43,-282.36 119,-268 127.82,-248.72 128.34,-224.56 126.92,-206.29"/>
<polygon fill="black" stroke="black" points="130.4,-205.88 125.91,-196.28 123.43,-206.59 130.4,-205.88"/>
<g id="a_edge8&#45;headlabel"><a xlink:href="dir_000002_000004.html" target="_top" xlink:title="5">
<text text-anchor="middle" x="133.58" y="-206.67" font-family="Helvetica,sans-Serif" font-size="10.00">5</text>
</a>
</g>
</g>
</g>
</svg>
