<?xml version="1.0" encoding="UTF-8" standalone="no"?>
<!DOCTYPE svg PUBLIC "-//W3C//DTD SVG 1.1//EN"
 "http://www.w3.org/Graphics/SVG/1.1/DTD/svg11.dtd">
<!-- Generated by graphviz version 2.44.0 ()
 -->
<!-- Title: src/renderer Pages: 1 -->
<svg width="300pt" height="383pt"
 viewBox="0.00 0.00 300.00 383.00" xmlns="http://www.w3.org/2000/svg" xmlns:xlink="http://www.w3.org/1999/xlink">
<g id="graph0" class="graph" transform="scale(1 1) rotate(0) translate(4 379)">
<title>src/renderer</title>
<g id="clust1" class="cluster">
<title>clusterdir_68267d1309a1af8e8297ef4c3efbcdba</title>
<g id="a_clust1"><a xlink:href="dir_68267d1309a1af8e8297ef4c3efbcdba.html" target="_top" xlink:title="src">
<polygon fill="#ddddee" stroke="black" points="8,-8 8,-367 284,-367 284,-8 8,-8"/>
<text text-anchor="middle" x="146" y="-355" font-family="Helvetica,sans-Serif" font-size="10.00">src</text>
</a>
</g>
</g>
<g id="clust2" class="cluster">
<title>clusterdir_7bc5e25958a2fb25a8561f3aa0def6c5</title>
<g id="a_clust2"><a xlink:href="dir_7bc5e25958a2fb25a8561f3aa0def6c5.html" target="_top">
<polygon fill="#eeeeff" stroke="black" points="30,-224 30,-276 244,-276 244,-224 30,-224"/>
</a>
</g>
</g>
<!-- dir_0b61c55142250c0cc363383afd8075a4 -->
<g id="node1" class="node">
<title>dir_0b61c55142250c0cc363383afd8075a4</title>
<g id="a_node1"><a xlink:href="dir_0b61c55142250c0cc363383afd8075a4.html" target="_top" xlink:title="containers">
<polygon fill="none" stroke="black" points="256,-52 194,-52 194,-16 256,-16 256,-52"/>
<text text-anchor="middle" x="225" y="-31.5" font-family="Helvetica,sans-Serif" font-size="10.00">containers</text>
</a>
</g>
</g>
<!-- dir_405fd32de3649961a5f009c7a3fe84df -->
<g id="node2" class="node">
<title>dir_405fd32de3649961a5f009c7a3fe84df</title>
<g id="a_node2"><a xlink:href="dir_405fd32de3649961a5f009c7a3fe84df.html" target="_top" xlink:title="geometry">
<polygon fill="none" stroke="black" points="129,-52 73,-52 73,-16 129,-16 129,-52"/>
<text text-anchor="middle" x="101" y="-31.5" font-family="Helvetica,sans-Serif" font-size="10.00">geometry</text>
</a>
</g>
</g>
<!-- dir_79769c2014326999657a5fac8224bdec -->
<g id="node3" class="node">
<title>dir_79769c2014326999657a5fac8224bdec</title>
<g id="a_node3"><a xlink:href="dir_79769c2014326999657a5fac8224bdec.html" target="_top" xlink:title="platformabstraction">
<polygon fill="none" stroke="red" points="156,-196 56,-196 56,-160 156,-160 156,-196"/>
<text text-anchor="middle" x="106" y="-175.5" font-family="Helvetica,sans-Serif" font-size="10.00">platformabstraction</text>
</a>
</g>
</g>
<!-- dir_79769c2014326999657a5fac8224bdec&#45;&gt;dir_405fd32de3649961a5f009c7a3fe84df -->
<g id="edge13" class="edge">
<title>dir_79769c2014326999657a5fac8224bdec&#45;&gt;dir_405fd32de3649961a5f009c7a3fe84df</title>
<path fill="none" stroke="black" d="M105.4,-159.87C104.54,-135.67 102.98,-91.21 101.96,-62.39"/>
<polygon fill="black" stroke="black" points="105.46,-62.06 101.61,-52.19 98.46,-62.31 105.46,-62.06"/>
<g id="a_edge13&#45;headlabel"><a xlink:href="dir_000009_000003.html" target="_top" xlink:title="1">
<text text-anchor="middle" x="108.42" y="-63.05" font-family="Helvetica,sans-Serif" font-size="10.00">1</text>
</a>
</g>
</g>
<!-- dir_b47ddb3a0b86b791c0dd2682d4ed1094 -->
<g id="node5" class="node">
<title>dir_b47ddb3a0b86b791c0dd2682d4ed1094</title>
<g id="a_node5"><a xlink:href="dir_b47ddb3a0b86b791c0dd2682d4ed1094.html" target="_top" xlink:title="iconatlas">
<polygon fill="none" stroke="black" points="176,-124 120,-124 120,-88 176,-88 176,-124"/>
<text text-anchor="middle" x="148" y="-103.5" font-family="Helvetica,sans-Serif" font-size="10.00">iconatlas</text>
</a>
</g>
</g>
<!-- dir_79769c2014326999657a5fac8224bdec&#45;&gt;dir_b47ddb3a0b86b791c0dd2682d4ed1094 -->
<g id="edge14" class="edge">
<title>dir_79769c2014326999657a5fac8224bdec&#45;&gt;dir_b47ddb3a0b86b791c0dd2682d4ed1094</title>
<path fill="none" stroke="black" d="M116.38,-159.7C121.26,-151.56 127.19,-141.69 132.58,-132.7"/>
<polygon fill="black" stroke="black" points="135.59,-134.48 137.74,-124.1 129.59,-130.88 135.59,-134.48"/>
<g id="a_edge14&#45;headlabel"><a xlink:href="dir_000009_000007.html" target="_top" xlink:title="1">
<text text-anchor="middle" x="136.18" y="-136.52" font-family="Helvetica,sans-Serif" font-size="10.00">1</text>
</a>
</g>
</g>
<!-- dir_99d0482cf009f9d97a0877749b817f19 -->
<g id="node4" class="node">
<title>dir_99d0482cf009f9d97a0877749b817f19</title>
<g id="a_node4"><a xlink:href="dir_99d0482cf009f9d97a0877749b817f19.html" target="_top" xlink:title="gui">
<polygon fill="none" stroke="red" points="164,-340 110,-340 110,-304 164,-304 164,-340"/>
<text text-anchor="middle" x="137" y="-319.5" font-family="Helvetica,sans-Serif" font-size="10.00">gui</text>
</a>
</g>
</g>
<!-- dir_99d0482cf009f9d97a0877749b817f19&#45;&gt;dir_0b61c55142250c0cc363383afd8075a4 -->
<g id="edge1" class="edge">
<title>dir_99d0482cf009f9d97a0877749b817f19&#45;&gt;dir_0b61c55142250c0cc363383afd8075a4</title>
<path fill="none" stroke="black" d="M164.04,-319.39C192.55,-316.09 236.15,-306.08 257,-276 302.88,-209.79 262.57,-108.36 239.08,-61.02"/>
<polygon fill="black" stroke="black" points="242.16,-59.35 234.5,-52.03 235.92,-62.53 242.16,-59.35"/>
<g id="a_edge1&#45;headlabel"><a xlink:href="dir_000004_000001.html" target="_top" xlink:title="2">
<text text-anchor="middle" x="246.32" y="-58.76" font-family="Helvetica,sans-Serif" font-size="10.00">2</text>
</a>
</g>
</g>
<!-- dir_99d0482cf009f9d97a0877749b817f19&#45;&gt;dir_405fd32de3649961a5f009c7a3fe84df -->
<g id="edge2" class="edge">
<title>dir_99d0482cf009f9d97a0877749b817f19&#45;&gt;dir_405fd32de3649961a5f009c7a3fe84df</title>
<path fill="none" stroke="black" d="M109.72,-318.4C83.3,-314.27 44.59,-303.59 26,-276 1.28,-239.3 29.98,-135.96 54,-88 59.14,-77.73 66.79,-67.9 74.43,-59.55"/>
<polygon fill="black" stroke="black" points="76.96,-61.97 81.37,-52.33 71.92,-57.12 76.96,-61.97"/>
<g id="a_edge2&#45;headlabel"><a xlink:href="dir_000004_000003.html" target="_top" xlink:title="10">
<text text-anchor="middle" x="76.52" y="-64.03" font-family="Helvetica,sans-Serif" font-size="10.00">10</text>
</a>
</g>
</g>
<!-- dir_99d0482cf009f9d97a0877749b817f19&#45;&gt;dir_b47ddb3a0b86b791c0dd2682d4ed1094 -->
<g id="edge5" class="edge">
<title>dir_99d0482cf009f9d97a0877749b817f19&#45;&gt;dir_b47ddb3a0b86b791c0dd2682d4ed1094</title>
<path fill="none" stroke="black" d="M164.28,-318.4C190.7,-314.27 229.41,-303.59 248,-276 281.86,-225.74 220.48,-163.8 179.8,-130.63"/>
<polygon fill="black" stroke="black" points="181.73,-127.69 171.73,-124.19 177.37,-133.16 181.73,-127.69"/>
<g id="a_edge5&#45;headlabel"><a xlink:href="dir_000004_000007.html" target="_top" xlink:title="1">
<text text-anchor="middle" x="186.31" y="-125.21" font-family="Helvetica,sans-Serif" font-size="10.00">1</text>
</a>
</g>
</g>
<!-- dir_7bc5e25958a2fb25a8561f3aa0def6c5 -->
<g id="node6" class="node">
<title>dir_7bc5e25958a2fb25a8561f3aa0def6c5</title>
<text text-anchor="middle" x="137" y="-247.5" font-family="Helvetica,sans-Serif" font-size="10.00">renderer</text>
</g>
<!-- dir_99d0482cf009f9d97a0877749b817f19&#45;&gt;dir_7bc5e25958a2fb25a8561f3aa0def6c5 -->
<g id="edge3" class="edge">
<title>dir_99d0482cf009f9d97a0877749b817f19&#45;&gt;dir_7bc5e25958a2fb25a8561f3aa0def6c5</title>
<path fill="none" stroke="black" d="M137,-303.7C137,-295.98 137,-286.71 137,-278.11"/>
<polygon fill="black" stroke="black" points="140.5,-278.1 137,-268.1 133.5,-278.1 140.5,-278.1"/>
<g id="a_edge3&#45;headlabel"><a xlink:href="dir_000004_000012.html" target="_top" xlink:title="4">
<text text-anchor="middle" x="143.34" y="-279.2" font-family="Helvetica,sans-Serif" font-size="10.00">4</text>
</a>
</g>
</g>
<!-- dir_81ad5397e2f6e7d41ed68488a4d626a2 -->
<g id="node8" class="node">
<title>dir_81ad5397e2f6e7d41ed68488a4d626a2</title>
<g id="a_node8"><a xlink:href="dir_81ad5397e2f6e7d41ed68488a4d626a2.html" target="_top" xlink:title="opengl">
<polygon fill="white" stroke="red" points="92,-268 38,-268 38,-232 92,-232 92,-268"/>
<text text-anchor="middle" x="65" y="-247.5" font-family="Helvetica,sans-Serif" font-size="10.00">opengl</text>
</a>
</g>
</g>
<!-- dir_99d0482cf009f9d97a0877749b817f19&#45;&gt;dir_81ad5397e2f6e7d41ed68488a4d626a2 -->
<g id="edge4" class="edge">
<title>dir_99d0482cf009f9d97a0877749b817f19&#45;&gt;dir_81ad5397e2f6e7d41ed68488a4d626a2</title>
<path fill="none" stroke="black" d="M125.12,-303.7C117.12,-295.05 106.39,-284.45 96.16,-275.03"/>
<polygon fill="black" stroke="black" points="98.26,-272.21 88.49,-268.1 93.57,-277.4 98.26,-272.21"/>
<g id="a_edge4&#45;headlabel"><a xlink:href="dir_000004_000014.html" target="_top" xlink:title="4">
<text text-anchor="middle" x="102.83" y="-270.01" font-family="Helvetica,sans-Serif" font-size="10.00">4</text>
</a>
</g>
</g>
<!-- dir_b47ddb3a0b86b791c0dd2682d4ed1094&#45;&gt;dir_0b61c55142250c0cc363383afd8075a4 -->
<g id="edge11" class="edge">
<title>dir_b47ddb3a0b86b791c0dd2682d4ed1094&#45;&gt;dir_0b61c55142250c0cc363383afd8075a4</title>
<path fill="none" stroke="black" d="M167.03,-87.7C176.54,-79.05 188.21,-68.45 198.57,-59.03"/>
<polygon fill="black" stroke="black" points="201.14,-61.42 206.19,-52.1 196.43,-56.24 201.14,-61.42"/>
<g id="a_edge11&#45;headlabel"><a xlink:href="dir_000007_000001.html" target="_top" xlink:title="1">
<text text-anchor="middle" x="200.39" y="-63.44" font-family="Helvetica,sans-Serif" font-size="10.00">1</text>
</a>
</g>
</g>
<!-- dir_b47ddb3a0b86b791c0dd2682d4ed1094&#45;&gt;dir_405fd32de3649961a5f009c7a3fe84df -->
<g id="edge12" class="edge">
<title>dir_b47ddb3a0b86b791c0dd2682d4ed1094&#45;&gt;dir_405fd32de3649961a5f009c7a3fe84df</title>
<path fill="none" stroke="black" d="M136.38,-87.7C130.86,-79.47 124.15,-69.48 118.07,-60.42"/>
<polygon fill="black" stroke="black" points="120.96,-58.46 112.48,-52.1 115.15,-62.36 120.96,-58.46"/>
<g id="a_edge12&#45;headlabel"><a xlink:href="dir_000007_000003.html" target="_top" xlink:title="2">
<text text-anchor="middle" x="125.33" y="-57.36" font-family="Helvetica,sans-Serif" font-size="10.00">2</text>
</a>
</g>
</g>
<!-- dir_364644b6139970c0d97b3c404935efc4 -->
<g id="node7" class="node">
<title>dir_364644b6139970c0d97b3c404935efc4</title>
<g id="a_node7"><a xlink:href="dir_364644b6139970c0d97b3c404935efc4.html" target="_top" xlink:title="direct12">
<polygon fill="white" stroke="black" points="236,-268 182,-268 182,-232 236,-232 236,-268"/>
<text text-anchor="middle" x="209" y="-247.5" font-family="Helvetica,sans-Serif" font-size="10.00">direct12</text>
</a>
</g>
</g>
<!-- dir_364644b6139970c0d97b3c404935efc4&#45;&gt;dir_0b61c55142250c0cc363383afd8075a4 -->
<g id="edge15" class="edge">
<title>dir_364644b6139970c0d97b3c404935efc4&#45;&gt;dir_0b61c55142250c0cc363383afd8075a4</title>
<path fill="none" stroke="black" d="M213.33,-231.94C215.75,-221.61 218.56,-208.13 220,-196 225.5,-149.55 225.95,-95.06 225.6,-62.87"/>
<polygon fill="black" stroke="black" points="229.09,-62.41 225.45,-52.47 222.09,-62.52 229.09,-62.41"/>
<g id="a_edge15&#45;headlabel"><a xlink:href="dir_000013_000001.html" target="_top" xlink:title="1">
<text text-anchor="middle" x="231.98" y="-63.47" font-family="Helvetica,sans-Serif" font-size="10.00">1</text>
</a>
</g>
</g>
<!-- dir_364644b6139970c0d97b3c404935efc4&#45;&gt;dir_405fd32de3649961a5f009c7a3fe84df -->
<g id="edge16" class="edge">
<title>dir_364644b6139970c0d97b3c404935efc4&#45;&gt;dir_405fd32de3649961a5f009c7a3fe84df</title>
<path fill="none" stroke="black" d="M210.85,-231.88C213.33,-200.58 214.49,-133.21 185,-88 173.95,-71.06 155.4,-58.52 138.53,-49.9"/>
<polygon fill="black" stroke="black" points="139.92,-46.69 129.39,-45.51 136.89,-53 139.92,-46.69"/>
<g id="a_edge16&#45;headlabel"><a xlink:href="dir_000013_000003.html" target="_top" xlink:title="2">
<text text-anchor="middle" x="144.39" y="-43.18" font-family="Helvetica,sans-Serif" font-size="10.00">2</text>
</a>
</g>
</g>
<!-- dir_81ad5397e2f6e7d41ed68488a4d626a2&#45;&gt;dir_0b61c55142250c0cc363383afd8075a4 -->
<g id="edge6" class="edge">
<title>dir_81ad5397e2f6e7d41ed68488a4d626a2&#45;&gt;dir_0b61c55142250c0cc363383afd8075a4</title>
<path fill="none" stroke="black" d="M88.12,-231.77C92.3,-228.99 96.7,-226.29 101,-224 131.31,-207.87 149.44,-220.98 173,-196 208.07,-158.82 219.49,-97.8 223.21,-62.53"/>
<polygon fill="black" stroke="black" points="226.7,-62.74 224.13,-52.46 219.73,-62.1 226.7,-62.74"/>
<g id="a_edge6&#45;headlabel"><a xlink:href="dir_000014_000001.html" target="_top" xlink:title="1">
<text text-anchor="middle" x="229.2" y="-64.08" font-family="Helvetica,sans-Serif" font-size="10.00">1</text>
</a>
</g>
</g>
<!-- dir_81ad5397e2f6e7d41ed68488a4d626a2&#45;&gt;dir_405fd32de3649961a5f009c7a3fe84df -->
<g id="edge7" class="edge">
<title>dir_81ad5397e2f6e7d41ed68488a4d626a2&#45;&gt;dir_405fd32de3649961a5f009c7a3fe84df</title>
<path fill="none" stroke="black" d="M57.52,-231.7C53.53,-221.52 49.03,-208.27 47,-196 44.39,-180.21 43.76,-175.67 47,-160 54.44,-124.03 72.74,-85.68 85.98,-61.08"/>
<polygon fill="black" stroke="black" points="89.19,-62.5 90.94,-52.05 83.06,-59.13 89.19,-62.5"/>
<g id="a_edge7&#45;headlabel"><a xlink:href="dir_000014_000003.html" target="_top" xlink:title="11">
<text text-anchor="middle" x="89.95" y="-64.52" font-family="Helvetica,sans-Serif" font-size="10.00">11</text>
</a>
</g>
</g>
<!-- dir_81ad5397e2f6e7d41ed68488a4d626a2&#45;&gt;dir_79769c2014326999657a5fac8224bdec -->
<g id="edge8" class="edge">
<title>dir_81ad5397e2f6e7d41ed68488a4d626a2&#45;&gt;dir_79769c2014326999657a5fac8224bdec</title>
<path fill="none" stroke="black" d="M75.13,-231.7C79.85,-223.64 85.56,-213.89 90.78,-204.98"/>
<polygon fill="black" stroke="black" points="93.95,-206.5 95.98,-196.1 87.91,-202.96 93.95,-206.5"/>
<g id="a_edge8&#45;headlabel"><a xlink:href="dir_000014_000009.html" target="_top" xlink:title="5">
<text text-anchor="middle" x="94.58" y="-208.54" font-family="Helvetica,sans-Serif" font-size="10.00">5</text>
</a>
</g>
</g>
<!-- dir_81ad5397e2f6e7d41ed68488a4d626a2&#45;&gt;dir_99d0482cf009f9d97a0877749b817f19 -->
<g id="edge9" class="edge">
<title>dir_81ad5397e2f6e7d41ed68488a4d626a2&#45;&gt;dir_99d0482cf009f9d97a0877749b817f19</title>
<path fill="none" stroke="black" d="M76.7,-268.1C84.66,-276.72 95.37,-287.32 105.6,-296.76"/>
<polygon fill="black" stroke="black" points="103.52,-299.59 113.29,-303.7 108.21,-294.4 103.52,-299.59"/>
<g id="a_edge9&#45;headlabel"><a xlink:href="dir_000014_000004.html" target="_top" xlink:title="4">
<text text-anchor="middle" x="98.95" y="-296.79" font-family="Helvetica,sans-Serif" font-size="10.00">4</text>
</a>
</g>
</g>
<!-- dir_81ad5397e2f6e7d41ed68488a4d626a2&#45;&gt;dir_b47ddb3a0b86b791c0dd2682d4ed1094 -->
<g id="edge10" class="edge">
<title>dir_81ad5397e2f6e7d41ed68488a4d626a2&#45;&gt;dir_b47ddb3a0b86b791c0dd2682d4ed1094</title>
<path fill="none" stroke="black" d="M88.2,-231.92C92.37,-229.13 96.75,-226.38 101,-224 128.1,-208.85 148.01,-221.98 165,-196 177.17,-177.39 170.72,-152.2 162.5,-133.36"/>
<polygon fill="black" stroke="black" points="165.58,-131.69 158.13,-124.16 159.26,-134.7 165.58,-131.69"/>
<g id="a_edge10&#45;headlabel"><a xlink:href="dir_000014_000007.html" target="_top" xlink:title="2">
<text text-anchor="middle" x="169.69" y="-131.22" font-family="Helvetica,sans-Serif" font-size="10.00">2</text>
</a>
</g>
</g>
</g>
</svg>
