<?xml version="1.0" encoding="UTF-8" standalone="no"?>
<!DOCTYPE svg PUBLIC "-//W3C//DTD SVG 1.1//EN"
 "http://www.w3.org/Graphics/SVG/1.1/DTD/svg11.dtd">
<!-- Generated by graphviz version 2.44.0 ()
 -->
<!-- Title: src/gui/colorselector Pages: 1 -->
<svg width="174pt" height="295pt"
 viewBox="0.00 0.00 174.00 295.00" xmlns="http://www.w3.org/2000/svg" xmlns:xlink="http://www.w3.org/1999/xlink">
<g id="graph0" class="graph" transform="scale(1 1) rotate(0) translate(4 291)">
<title>src/gui/colorselector</title>
<g id="clust1" class="cluster">
<title>clusterdir_99d0482cf009f9d97a0877749b817f19</title>
<g id="a_clust1"><a xlink:href="dir_99d0482cf009f9d97a0877749b817f19.html" target="_top" xlink:title="gui">
<polygon fill="#ddddee" stroke="black" points="8,-136 8,-279 96,-279 96,-136 8,-136"/>
<text text-anchor="middle" x="52" y="-267" font-family="Helvetica,sans-Serif" font-size="10.00">gui</text>
</a>
</g>
</g>
<!-- dir_55dc9d71d206728a8556f576ce22adae -->
<g id="node1" class="node">
<title>dir_55dc9d71d206728a8556f576ce22adae</title>
<g id="a_node1"><a xlink:href="dir_55dc9d71d206728a8556f576ce22adae.html" target="_top" xlink:title="renderer">
<polygon fill="none" stroke="black" points="79,-252 25,-252 25,-216 79,-216 79,-252"/>
<text text-anchor="middle" x="52" y="-231.5" font-family="Helvetica,sans-Serif" font-size="10.00">renderer</text>
</a>
</g>
</g>
<!-- dir_666b763223e2e564039666be3a39faff -->
<g id="node2" class="node">
<title>dir_666b763223e2e564039666be3a39faff</title>
<g id="a_node2"><a xlink:href="dir_666b763223e2e564039666be3a39faff.html" target="_top" xlink:title="colorselector">
<polygon fill="#eeeeff" stroke="black" points="88,-180 16,-180 16,-144 88,-144 88,-180"/>
<text text-anchor="middle" x="52" y="-159.5" font-family="Helvetica,sans-Serif" font-size="10.00">colorselector</text>
</a>
</g>
</g>
<!-- dir_55dc9d71d206728a8556f576ce22adae&#45;&gt;dir_666b763223e2e564039666be3a39faff -->
<g id="edge5" class="edge">
<title>dir_55dc9d71d206728a8556f576ce22adae&#45;&gt;dir_666b763223e2e564039666be3a39faff</title>
<path fill="none" stroke="black" d="M46.08,-215.7C45.29,-207.98 45.06,-198.71 45.4,-190.11"/>
<polygon fill="black" stroke="black" points="48.9,-190.32 46.1,-180.1 41.92,-189.84 48.9,-190.32"/>
<g id="a_edge5&#45;headlabel"><a xlink:href="dir_000008_000005.html" target="_top" xlink:title="1">
<text text-anchor="middle" x="51.48" y="-191.61" font-family="Helvetica,sans-Serif" font-size="10.00">1</text>
</a>
</g>
</g>
<!-- dir_79769c2014326999657a5fac8224bdec -->
<g id="node4" class="node">
<title>dir_79769c2014326999657a5fac8224bdec</title>
<g id="a_node4"><a xlink:href="dir_79769c2014326999657a5fac8224bdec.html" target="_top" xlink:title="platformabstraction">
<polygon fill="none" stroke="red" points="166,-108 66,-108 66,-72 166,-72 166,-108"/>
<text text-anchor="middle" x="116" y="-87.5" font-family="Helvetica,sans-Serif" font-size="10.00">platformabstraction</text>
</a>
</g>
</g>
<!-- dir_55dc9d71d206728a8556f576ce22adae&#45;&gt;dir_79769c2014326999657a5fac8224bdec -->
<g id="edge6" class="edge">
<title>dir_55dc9d71d206728a8556f576ce22adae&#45;&gt;dir_79769c2014326999657a5fac8224bdec</title>
<path fill="none" stroke="black" d="M70.29,-215.97C79.63,-206.29 90.39,-193.43 97,-180 106.56,-160.56 111.33,-136.42 113.7,-118.19"/>
<polygon fill="black" stroke="black" points="117.18,-118.54 114.83,-108.21 110.22,-117.75 117.18,-118.54"/>
<g id="a_edge6&#45;headlabel"><a xlink:href="dir_000008_000013.html" target="_top" xlink:title="1">
<text text-anchor="middle" x="119.59" y="-119.94" font-family="Helvetica,sans-Serif" font-size="10.00">1</text>
</a>
</g>
</g>
<!-- dir_666b763223e2e564039666be3a39faff&#45;&gt;dir_55dc9d71d206728a8556f576ce22adae -->
<g id="edge2" class="edge">
<title>dir_666b763223e2e564039666be3a39faff&#45;&gt;dir_55dc9d71d206728a8556f576ce22adae</title>
<path fill="none" stroke="black" d="M57.9,-180.1C58.7,-187.79 58.94,-197.05 58.6,-205.67"/>
<polygon fill="black" stroke="black" points="55.11,-205.48 57.92,-215.7 62.09,-205.96 55.11,-205.48"/>
<g id="a_edge2&#45;headlabel"><a xlink:href="dir_000005_000008.html" target="_top" xlink:title="1">
<text text-anchor="middle" x="52.52" y="-199.2" font-family="Helvetica,sans-Serif" font-size="10.00">1</text>
</a>
</g>
</g>
<!-- dir_405fd32de3649961a5f009c7a3fe84df -->
<g id="node3" class="node">
<title>dir_405fd32de3649961a5f009c7a3fe84df</title>
<g id="a_node3"><a xlink:href="dir_405fd32de3649961a5f009c7a3fe84df.html" target="_top" xlink:title="geometry">
<polygon fill="none" stroke="black" points="105,-36 49,-36 49,0 105,0 105,-36"/>
<text text-anchor="middle" x="77" y="-15.5" font-family="Helvetica,sans-Serif" font-size="10.00">geometry</text>
</a>
</g>
</g>
<!-- dir_666b763223e2e564039666be3a39faff&#45;&gt;dir_405fd32de3649961a5f009c7a3fe84df -->
<g id="edge1" class="edge">
<title>dir_666b763223e2e564039666be3a39faff&#45;&gt;dir_405fd32de3649961a5f009c7a3fe84df</title>
<path fill="none" stroke="black" d="M51.43,-143.73C51.19,-125.65 51.81,-96.53 57,-72 58.85,-63.24 61.91,-54.02 65.09,-45.76"/>
<polygon fill="black" stroke="black" points="68.43,-46.84 68.95,-36.26 61.95,-44.21 68.43,-46.84"/>
<g id="a_edge1&#45;headlabel"><a xlink:href="dir_000005_000003.html" target="_top" xlink:title="2">
<text text-anchor="middle" x="69.71" y="-48.74" font-family="Helvetica,sans-Serif" font-size="10.00">2</text>
</a>
</g>
</g>
<!-- dir_666b763223e2e564039666be3a39faff&#45;&gt;dir_79769c2014326999657a5fac8224bdec -->
<g id="edge3" class="edge">
<title>dir_666b763223e2e564039666be3a39faff&#45;&gt;dir_79769c2014326999657a5fac8224bdec</title>
<path fill="none" stroke="black" d="M67.82,-143.7C75.57,-135.22 85.04,-124.86 93.52,-115.58"/>
<polygon fill="black" stroke="black" points="96.2,-117.85 100.36,-108.1 91.03,-113.12 96.2,-117.85"/>
<g id="a_edge3&#45;headlabel"><a xlink:href="dir_000005_000013.html" target="_top" xlink:title="1">
<text text-anchor="middle" x="95.87" y="-119.92" font-family="Helvetica,sans-Serif" font-size="10.00">1</text>
</a>
</g>
</g>
<!-- dir_79769c2014326999657a5fac8224bdec&#45;&gt;dir_405fd32de3649961a5f009c7a3fe84df -->
<g id="edge4" class="edge">
<title>dir_79769c2014326999657a5fac8224bdec&#45;&gt;dir_405fd32de3649961a5f009c7a3fe84df</title>
<path fill="none" stroke="black" d="M106.36,-71.7C101.87,-63.64 96.44,-53.89 91.48,-44.98"/>
<polygon fill="black" stroke="black" points="94.45,-43.14 86.53,-36.1 88.34,-46.54 94.45,-43.14"/>
<g id="a_edge4&#45;headlabel"><a xlink:href="dir_000013_000003.html" target="_top" xlink:title="1">
<text text-anchor="middle" x="98.68" y="-42.39" font-family="Helvetica,sans-Serif" font-size="10.00">1</text>
</a>
</g>
</g>
</g>
</svg>
