<?xml version="1.0" encoding="UTF-8" standalone="no"?>
<!DOCTYPE svg PUBLIC "-//W3C//DTD SVG 1.1//EN"
 "http://www.w3.org/Graphics/SVG/1.1/DTD/svg11.dtd">
<!-- Generated by graphviz version 2.44.0 ()
 -->
<!-- Title: src/gui Pages: 1 -->
<svg width="246pt" height="391pt"
 viewBox="0.00 0.00 246.00 391.00" xmlns="http://www.w3.org/2000/svg" xmlns:xlink="http://www.w3.org/1999/xlink">
<g id="graph0" class="graph" transform="scale(1 1) rotate(0) translate(4 387)">
<title>src/gui</title>
<g id="clust1" class="cluster">
<title>clusterdir_68267d1309a1af8e8297ef4c3efbcdba</title>
<g id="a_clust1"><a xlink:href="dir_68267d1309a1af8e8297ef4c3efbcdba.html" target="_top" xlink:title="src">
<polygon fill="#ddddee" stroke="black" points="8,-8 8,-375 230,-375 230,-8 8,-8"/>
<text text-anchor="middle" x="119" y="-363" font-family="Helvetica,sans-Serif" font-size="10.00">src</text>
</a>
</g>
</g>
<g id="clust2" class="cluster">
<title>clusterdir_99d0482cf009f9d97a0877749b817f19</title>
<g id="a_clust2"><a xlink:href="dir_99d0482cf009f9d97a0877749b817f19.html" target="_top">
<polygon fill="#eeeeff" stroke="black" points="28,-224 28,-348 170,-348 170,-224 28,-224"/>
</a>
</g>
</g>
<!-- dir_0b61c55142250c0cc363383afd8075a4 -->
<g id="node1" class="node">
<title>dir_0b61c55142250c0cc363383afd8075a4</title>
<g id="a_node1"><a xlink:href="dir_0b61c55142250c0cc363383afd8075a4.html" target="_top" xlink:title="containers">
<polygon fill="none" stroke="black" points="222,-52 160,-52 160,-16 222,-16 222,-52"/>
<text text-anchor="middle" x="191" y="-31.5" font-family="Helvetica,sans-Serif" font-size="10.00">containers</text>
</a>
</g>
</g>
<!-- dir_405fd32de3649961a5f009c7a3fe84df -->
<g id="node2" class="node">
<title>dir_405fd32de3649961a5f009c7a3fe84df</title>
<g id="a_node2"><a xlink:href="dir_405fd32de3649961a5f009c7a3fe84df.html" target="_top" xlink:title="geometry">
<polygon fill="none" stroke="black" points="114,-52 58,-52 58,-16 114,-16 114,-52"/>
<text text-anchor="middle" x="86" y="-31.5" font-family="Helvetica,sans-Serif" font-size="10.00">geometry</text>
</a>
</g>
</g>
<!-- dir_7bc5e25958a2fb25a8561f3aa0def6c5 -->
<g id="node3" class="node">
<title>dir_7bc5e25958a2fb25a8561f3aa0def6c5</title>
<g id="a_node3"><a xlink:href="dir_7bc5e25958a2fb25a8561f3aa0def6c5.html" target="_top" xlink:title="renderer">
<polygon fill="none" stroke="red" points="180,-196 126,-196 126,-160 180,-160 180,-196"/>
<text text-anchor="middle" x="153" y="-175.5" font-family="Helvetica,sans-Serif" font-size="10.00">renderer</text>
</a>
</g>
</g>
<!-- dir_7bc5e25958a2fb25a8561f3aa0def6c5&#45;&gt;dir_0b61c55142250c0cc363383afd8075a4 -->
<g id="edge12" class="edge">
<title>dir_7bc5e25958a2fb25a8561f3aa0def6c5&#45;&gt;dir_0b61c55142250c0cc363383afd8075a4</title>
<path fill="none" stroke="black" d="M168.98,-159.83C176.94,-150.1 185.75,-137.25 190,-124 196.4,-104.04 196.3,-80.25 194.79,-62.29"/>
<polygon fill="black" stroke="black" points="198.26,-61.79 193.75,-52.21 191.29,-62.51 198.26,-61.79"/>
<g id="a_edge12&#45;headlabel"><a xlink:href="dir_000012_000001.html" target="_top" xlink:title="2">
<text text-anchor="middle" x="201.45" y="-62.58" font-family="Helvetica,sans-Serif" font-size="10.00">2</text>
</a>
</g>
</g>
<!-- dir_7bc5e25958a2fb25a8561f3aa0def6c5&#45;&gt;dir_405fd32de3649961a5f009c7a3fe84df -->
<g id="edge13" class="edge">
<title>dir_7bc5e25958a2fb25a8561f3aa0def6c5&#45;&gt;dir_405fd32de3649961a5f009c7a3fe84df</title>
<path fill="none" stroke="black" d="M138.99,-159.64C131.43,-149.66 122.37,-136.62 116,-124 105.99,-104.16 98.14,-80.23 92.98,-62.18"/>
<polygon fill="black" stroke="black" points="96.29,-61.02 90.26,-52.31 89.54,-62.88 96.29,-61.02"/>
<g id="a_edge13&#45;headlabel"><a xlink:href="dir_000012_000003.html" target="_top" xlink:title="13">
<text text-anchor="middle" x="99.98" y="-61.23" font-family="Helvetica,sans-Serif" font-size="10.00">13</text>
</a>
</g>
</g>
<!-- dir_b47ddb3a0b86b791c0dd2682d4ed1094 -->
<g id="node4" class="node">
<title>dir_b47ddb3a0b86b791c0dd2682d4ed1094</title>
<g id="a_node4"><a xlink:href="dir_b47ddb3a0b86b791c0dd2682d4ed1094.html" target="_top" xlink:title="iconatlas">
<polygon fill="none" stroke="black" points="181,-124 125,-124 125,-88 181,-88 181,-124"/>
<text text-anchor="middle" x="153" y="-103.5" font-family="Helvetica,sans-Serif" font-size="10.00">iconatlas</text>
</a>
</g>
</g>
<!-- dir_7bc5e25958a2fb25a8561f3aa0def6c5&#45;&gt;dir_b47ddb3a0b86b791c0dd2682d4ed1094 -->
<g id="edge14" class="edge">
<title>dir_7bc5e25958a2fb25a8561f3aa0def6c5&#45;&gt;dir_b47ddb3a0b86b791c0dd2682d4ed1094</title>
<path fill="none" stroke="black" d="M153,-159.7C153,-151.98 153,-142.71 153,-134.11"/>
<polygon fill="black" stroke="black" points="156.5,-134.1 153,-124.1 149.5,-134.1 156.5,-134.1"/>
<g id="a_edge14&#45;headlabel"><a xlink:href="dir_000012_000007.html" target="_top" xlink:title="2">
<text text-anchor="middle" x="159.34" y="-135.2" font-family="Helvetica,sans-Serif" font-size="10.00">2</text>
</a>
</g>
</g>
<!-- dir_b47ddb3a0b86b791c0dd2682d4ed1094&#45;&gt;dir_0b61c55142250c0cc363383afd8075a4 -->
<g id="edge10" class="edge">
<title>dir_b47ddb3a0b86b791c0dd2682d4ed1094&#45;&gt;dir_0b61c55142250c0cc363383afd8075a4</title>
<path fill="none" stroke="black" d="M162.39,-87.7C166.76,-79.64 172.06,-69.89 176.9,-60.98"/>
<polygon fill="black" stroke="black" points="180.02,-62.56 181.71,-52.1 173.87,-59.22 180.02,-62.56"/>
<g id="a_edge10&#45;headlabel"><a xlink:href="dir_000007_000001.html" target="_top" xlink:title="1">
<text text-anchor="middle" x="180.8" y="-64.58" font-family="Helvetica,sans-Serif" font-size="10.00">1</text>
</a>
</g>
</g>
<!-- dir_b47ddb3a0b86b791c0dd2682d4ed1094&#45;&gt;dir_405fd32de3649961a5f009c7a3fe84df -->
<g id="edge11" class="edge">
<title>dir_b47ddb3a0b86b791c0dd2682d4ed1094&#45;&gt;dir_405fd32de3649961a5f009c7a3fe84df</title>
<path fill="none" stroke="black" d="M136.44,-87.7C128.32,-79.22 118.41,-68.86 109.53,-59.58"/>
<polygon fill="black" stroke="black" points="111.81,-56.91 102.37,-52.1 106.76,-61.75 111.81,-56.91"/>
<g id="a_edge11&#45;headlabel"><a xlink:href="dir_000007_000003.html" target="_top" xlink:title="2">
<text text-anchor="middle" x="116.35" y="-55.04" font-family="Helvetica,sans-Serif" font-size="10.00">2</text>
</a>
</g>
</g>
<!-- dir_99d0482cf009f9d97a0877749b817f19 -->
<g id="node5" class="node">
<title>dir_99d0482cf009f9d97a0877749b817f19</title>
<text text-anchor="middle" x="135" y="-319.5" font-family="Helvetica,sans-Serif" font-size="10.00">gui</text>
</g>
<!-- dir_99d0482cf009f9d97a0877749b817f19&#45;&gt;dir_0b61c55142250c0cc363383afd8075a4 -->
<g id="edge1" class="edge">
<title>dir_99d0482cf009f9d97a0877749b817f19&#45;&gt;dir_0b61c55142250c0cc363383afd8075a4</title>
<path fill="none" stroke="black" d="M157.82,-303.85C168.53,-294.49 180.37,-281.97 187,-268 219.37,-199.82 206.69,-107.28 197.42,-62.09"/>
<polygon fill="black" stroke="black" points="200.81,-61.21 195.29,-52.17 193.97,-62.68 200.81,-61.21"/>
<g id="a_edge1&#45;headlabel"><a xlink:href="dir_000004_000001.html" target="_top" xlink:title="2">
<text text-anchor="middle" x="204.35" y="-61.63" font-family="Helvetica,sans-Serif" font-size="10.00">2</text>
</a>
</g>
</g>
<!-- dir_99d0482cf009f9d97a0877749b817f19&#45;&gt;dir_405fd32de3649961a5f009c7a3fe84df -->
<g id="edge2" class="edge">
<title>dir_99d0482cf009f9d97a0877749b817f19&#45;&gt;dir_405fd32de3649961a5f009c7a3fe84df</title>
<path fill="none" stroke="black" d="M107.8,-316.08C81.97,-309.8 44.56,-296.18 27,-268 -14.79,-200.93 37.53,-105.59 67.6,-60.5"/>
<polygon fill="black" stroke="black" points="70.53,-62.41 73.28,-52.18 64.75,-58.46 70.53,-62.41"/>
<g id="a_edge2&#45;headlabel"><a xlink:href="dir_000004_000003.html" target="_top" xlink:title="10">
<text text-anchor="middle" x="70.85" y="-64.48" font-family="Helvetica,sans-Serif" font-size="10.00">10</text>
</a>
</g>
</g>
<!-- dir_99d0482cf009f9d97a0877749b817f19&#45;&gt;dir_7bc5e25958a2fb25a8561f3aa0def6c5 -->
<g id="edge3" class="edge">
<title>dir_99d0482cf009f9d97a0877749b817f19&#45;&gt;dir_7bc5e25958a2fb25a8561f3aa0def6c5</title>
<path fill="none" stroke="black" d="M150.61,-303.77C158.37,-294.03 166.95,-281.18 171,-268 176.75,-249.31 174.7,-243.2 171,-224 169.82,-217.86 167.8,-211.49 165.54,-205.55"/>
<polygon fill="black" stroke="black" points="168.67,-203.95 161.61,-196.06 162.2,-206.63 168.67,-203.95"/>
<g id="a_edge3&#45;headlabel"><a xlink:href="dir_000004_000012.html" target="_top" xlink:title="4">
<text text-anchor="middle" x="172.67" y="-203.68" font-family="Helvetica,sans-Serif" font-size="10.00">4</text>
</a>
</g>
</g>
<!-- dir_99d0482cf009f9d97a0877749b817f19&#45;&gt;dir_b47ddb3a0b86b791c0dd2682d4ed1094 -->
<g id="edge4" class="edge">
<title>dir_99d0482cf009f9d97a0877749b817f19&#45;&gt;dir_b47ddb3a0b86b791c0dd2682d4ed1094</title>
<path fill="none" stroke="black" d="M152.27,-303.87C161.06,-294.16 171.1,-281.31 177,-268 190.16,-238.35 186.32,-228.33 189,-196 190.32,-180.05 193.7,-175.29 189,-160 185.99,-150.22 180.49,-140.62 174.68,-132.33"/>
<polygon fill="black" stroke="black" points="177.41,-130.13 168.61,-124.23 171.81,-134.33 177.41,-130.13"/>
<g id="a_edge4&#45;headlabel"><a xlink:href="dir_000004_000007.html" target="_top" xlink:title="1">
<text text-anchor="middle" x="181.83" y="-128.8" font-family="Helvetica,sans-Serif" font-size="10.00">1</text>
</a>
</g>
</g>
<!-- dir_c5641c002233c40e546fb4944ecf7616 -->
<g id="node6" class="node">
<title>dir_c5641c002233c40e546fb4944ecf7616</title>
<g id="a_node6"><a xlink:href="dir_c5641c002233c40e546fb4944ecf7616.html" target="_top" xlink:title="svg">
<polygon fill="white" stroke="black" points="162,-268 108,-268 108,-232 162,-232 162,-268"/>
<text text-anchor="middle" x="135" y="-247.5" font-family="Helvetica,sans-Serif" font-size="10.00">svg</text>
</a>
</g>
</g>
<!-- dir_99d0482cf009f9d97a0877749b817f19&#45;&gt;dir_c5641c002233c40e546fb4944ecf7616 -->
<g id="edge5" class="edge">
<title>dir_99d0482cf009f9d97a0877749b817f19&#45;&gt;dir_c5641c002233c40e546fb4944ecf7616</title>
<path fill="none" stroke="black" d="M135,-303.7C135,-295.98 135,-286.71 135,-278.11"/>
<polygon fill="black" stroke="black" points="138.5,-278.1 135,-268.1 131.5,-278.1 138.5,-278.1"/>
<g id="a_edge5&#45;headlabel"><a xlink:href="dir_000004_000005.html" target="_top" xlink:title="1">
<text text-anchor="middle" x="141.34" y="-279.2" font-family="Helvetica,sans-Serif" font-size="10.00">1</text>
</a>
</g>
</g>
<!-- dir_e58f2de49667bc7650159953bfcd60a5 -->
<g id="node7" class="node">
<title>dir_e58f2de49667bc7650159953bfcd60a5</title>
<g id="a_node7"><a xlink:href="dir_e58f2de49667bc7650159953bfcd60a5.html" target="_top" xlink:title="textdraw">
<polygon fill="white" stroke="black" points="90,-268 36,-268 36,-232 90,-232 90,-268"/>
<text text-anchor="middle" x="63" y="-247.5" font-family="Helvetica,sans-Serif" font-size="10.00">textdraw</text>
</a>
</g>
</g>
<!-- dir_99d0482cf009f9d97a0877749b817f19&#45;&gt;dir_e58f2de49667bc7650159953bfcd60a5 -->
<g id="edge6" class="edge">
<title>dir_99d0482cf009f9d97a0877749b817f19&#45;&gt;dir_e58f2de49667bc7650159953bfcd60a5</title>
<path fill="none" stroke="black" d="M117.2,-303.7C108.4,-295.14 97.62,-284.66 88,-275.3"/>
<polygon fill="black" stroke="black" points="90.2,-272.57 80.59,-268.1 85.32,-277.58 90.2,-272.57"/>
<g id="a_edge6&#45;headlabel"><a xlink:href="dir_000004_000006.html" target="_top" xlink:title="1">
<text text-anchor="middle" x="94.76" y="-270.54" font-family="Helvetica,sans-Serif" font-size="10.00">1</text>
</a>
</g>
</g>
<!-- dir_c5641c002233c40e546fb4944ecf7616&#45;&gt;dir_405fd32de3649961a5f009c7a3fe84df -->
<g id="edge8" class="edge">
<title>dir_c5641c002233c40e546fb4944ecf7616&#45;&gt;dir_405fd32de3649961a5f009c7a3fe84df</title>
<path fill="none" stroke="black" d="M128.86,-231.91C125.23,-221.57 120.65,-208.1 117,-196 107.45,-164.31 104.45,-156.46 98,-124 93.93,-103.48 90.83,-80.03 88.8,-62.35"/>
<polygon fill="black" stroke="black" points="92.25,-61.72 87.68,-52.17 85.29,-62.49 92.25,-61.72"/>
<g id="a_edge8&#45;headlabel"><a xlink:href="dir_000005_000003.html" target="_top" xlink:title="2">
<text text-anchor="middle" x="95.47" y="-62.48" font-family="Helvetica,sans-Serif" font-size="10.00">2</text>
</a>
</g>
</g>
<!-- dir_c5641c002233c40e546fb4944ecf7616&#45;&gt;dir_7bc5e25958a2fb25a8561f3aa0def6c5 -->
<g id="edge9" class="edge">
<title>dir_c5641c002233c40e546fb4944ecf7616&#45;&gt;dir_7bc5e25958a2fb25a8561f3aa0def6c5</title>
<path fill="none" stroke="black" d="M139.45,-231.7C141.45,-223.9 143.87,-214.51 146.1,-205.83"/>
<polygon fill="black" stroke="black" points="149.5,-206.66 148.6,-196.1 142.72,-204.92 149.5,-206.66"/>
<g id="a_edge9&#45;headlabel"><a xlink:href="dir_000005_000012.html" target="_top" xlink:title="2">
<text text-anchor="middle" x="151.36" y="-208.35" font-family="Helvetica,sans-Serif" font-size="10.00">2</text>
</a>
</g>
</g>
<!-- dir_e58f2de49667bc7650159953bfcd60a5&#45;&gt;dir_405fd32de3649961a5f009c7a3fe84df -->
<g id="edge7" class="edge">
<title>dir_e58f2de49667bc7650159953bfcd60a5&#45;&gt;dir_405fd32de3649961a5f009c7a3fe84df</title>
<path fill="none" stroke="black" d="M64.84,-231.85C68.82,-194.83 78.24,-107.18 83.06,-62.39"/>
<polygon fill="black" stroke="black" points="86.56,-62.55 84.15,-52.23 79.6,-61.8 86.56,-62.55"/>
<g id="a_edge7&#45;headlabel"><a xlink:href="dir_000006_000003.html" target="_top" xlink:title="2">
<text text-anchor="middle" x="89" y="-63.93" font-family="Helvetica,sans-Serif" font-size="10.00">2</text>
</a>
</g>
</g>
</g>
</svg>
