<?xml version="1.0" encoding="UTF-8" standalone="no"?>
<!DOCTYPE svg PUBLIC "-//W3C//DTD SVG 1.1//EN"
 "http://www.w3.org/Graphics/SVG/1.1/DTD/svg11.dtd">
<!-- Generated by graphviz version 2.44.0 ()
 -->
<!-- Title: src/renderer/direct12/mxtexture.cpp Pages: 1 -->
<svg width="518pt" height="207pt"
 viewBox="0.00 0.00 518.00 207.00" xmlns="http://www.w3.org/2000/svg" xmlns:xlink="http://www.w3.org/1999/xlink">
<g id="graph0" class="graph" transform="scale(1 1) rotate(0) translate(4 203)">
<title>src/renderer/direct12/mxtexture.cpp</title>
<!-- Node1 -->
<g id="node1" class="node">
<title>Node1</title>
<g id="a_node1"><a xlink:title=" ">
<polygon fill="#bfbfbf" stroke="black" points="210.5,-168.5 210.5,-198.5 316.5,-198.5 316.5,-168.5 210.5,-168.5"/>
<text text-anchor="start" x="218.5" y="-186.5" font-family="Helvetica,sans-Serif" font-size="10.00">src/renderer/direct12</text>
<text text-anchor="middle" x="263.5" y="-175.5" font-family="Helvetica,sans-Serif" font-size="10.00">/mxtexture.cpp</text>
</a>
</g>
</g>
<!-- Node2 -->
<g id="node2" class="node">
<title>Node2</title>
<g id="a_node2"><a xlink:href="direct12_2mxtexture_8h.html" target="_top" xlink:title=" ">
<polygon fill="none" stroke="black" points="200.5,-112.5 200.5,-131.5 266.5,-131.5 266.5,-112.5 200.5,-112.5"/>
<text text-anchor="middle" x="233.5" y="-119.5" font-family="Helvetica,sans-Serif" font-size="10.00">mxtexture.h</text>
</a>
</g>
</g>
<!-- Node1&#45;&gt;Node2 -->
<g id="edge1" class="edge">
<title>Node1&#45;&gt;Node2</title>
<path fill="none" stroke="midnightblue" d="M256.39,-168.4C252.21,-160.11 246.89,-149.55 242.43,-140.71"/>
<polygon fill="midnightblue" stroke="midnightblue" points="245.49,-139.01 237.87,-131.66 239.24,-142.16 245.49,-139.01"/>
</g>
<!-- Node4 -->
<g id="node4" class="node">
<title>Node4</title>
<g id="a_node4"><a xlink:title=" ">
<polygon fill="none" stroke="#bfbfbf" points="0,-0.5 0,-19.5 63,-19.5 63,-0.5 0,-0.5"/>
<text text-anchor="middle" x="31.5" y="-7.5" font-family="Helvetica,sans-Serif" font-size="10.00">mxdebug.h</text>
</a>
</g>
</g>
<!-- Node1&#45;&gt;Node4 -->
<g id="edge17" class="edge">
<title>Node1&#45;&gt;Node4</title>
<path fill="none" stroke="midnightblue" d="M234.24,-168.44C197.73,-150.1 134.41,-115.66 87.5,-76 70.52,-61.64 54.3,-41.92 43.73,-27.98"/>
<polygon fill="midnightblue" stroke="midnightblue" points="46.41,-25.72 37.64,-19.77 40.78,-29.89 46.41,-25.72"/>
</g>
<!-- Node5 -->
<g id="node5" class="node">
<title>Node5</title>
<g id="a_node5"><a xlink:title=" ">
<polygon fill="none" stroke="#bfbfbf" points="365.5,-0.5 365.5,-19.5 415.5,-19.5 415.5,-0.5 365.5,-0.5"/>
<text text-anchor="middle" x="390.5" y="-7.5" font-family="Helvetica,sans-Serif" font-size="10.00">d3d12.h</text>
</a>
</g>
</g>
<!-- Node1&#45;&gt;Node5 -->
<g id="edge18" class="edge">
<title>Node1&#45;&gt;Node5</title>
<path fill="none" stroke="midnightblue" d="M270.89,-168.47C283.93,-144.31 312.57,-93.82 343.5,-56 352.24,-45.31 363.35,-34.58 372.57,-26.27"/>
<polygon fill="midnightblue" stroke="midnightblue" points="374.88,-28.89 380.08,-19.66 370.26,-23.64 374.88,-28.89"/>
</g>
<!-- Node6 -->
<g id="node6" class="node">
<title>Node6</title>
<g id="a_node6"><a xlink:href="direct12_2mxrenderer_8h.html" target="_top" xlink:title=" ">
<polygon fill="none" stroke="black" points="322.5,-112.5 322.5,-131.5 394.5,-131.5 394.5,-112.5 322.5,-112.5"/>
<text text-anchor="middle" x="358.5" y="-119.5" font-family="Helvetica,sans-Serif" font-size="10.00">mxrenderer.h</text>
</a>
</g>
</g>
<!-- Node1&#45;&gt;Node6 -->
<g id="edge5" class="edge">
<title>Node1&#45;&gt;Node6</title>
<path fill="none" stroke="midnightblue" d="M286.01,-168.4C301.1,-158.95 320.89,-146.56 335.97,-137.11"/>
<polygon fill="midnightblue" stroke="midnightblue" points="338.06,-139.93 344.68,-131.66 334.34,-134 338.06,-139.93"/>
</g>
<!-- Node3 -->
<g id="node3" class="node">
<title>Node3</title>
<g id="a_node3"><a xlink:href="mxvector_8h.html" target="_top" xlink:title=" ">
<polygon fill="none" stroke="black" points="96.5,-56.5 96.5,-75.5 160.5,-75.5 160.5,-56.5 96.5,-56.5"/>
<text text-anchor="middle" x="128.5" y="-63.5" font-family="Helvetica,sans-Serif" font-size="10.00">mxvector.h</text>
</a>
</g>
</g>
<!-- Node2&#45;&gt;Node3 -->
<g id="edge2" class="edge">
<title>Node2&#45;&gt;Node3</title>
<path fill="none" stroke="midnightblue" d="M216.63,-112.32C199.79,-103.66 173.69,-90.24 154.26,-80.25"/>
<polygon fill="midnightblue" stroke="midnightblue" points="155.82,-77.12 145.33,-75.65 152.62,-83.34 155.82,-77.12"/>
</g>
<!-- Node2&#45;&gt;Node5 -->
<g id="edge4" class="edge">
<title>Node2&#45;&gt;Node5</title>
<path fill="none" stroke="midnightblue" d="M237.78,-112.23C244.89,-98.49 260.36,-71.84 280.5,-56 292.63,-46.46 328.16,-32.7 355.59,-22.91"/>
<polygon fill="midnightblue" stroke="midnightblue" points="357,-26.12 365.27,-19.5 354.68,-19.52 357,-26.12"/>
</g>
<!-- Node3&#45;&gt;Node4 -->
<g id="edge3" class="edge">
<title>Node3&#45;&gt;Node4</title>
<path fill="none" stroke="midnightblue" d="M112.92,-56.32C97.5,-47.74 73.69,-34.49 55.79,-24.52"/>
<polygon fill="midnightblue" stroke="midnightblue" points="57.49,-21.46 47.05,-19.65 54.08,-27.58 57.49,-21.46"/>
</g>
<!-- Node6&#45;&gt;Node3 -->
<g id="edge6" class="edge">
<title>Node6&#45;&gt;Node3</title>
<path fill="none" stroke="midnightblue" d="M322.31,-112.5C281.2,-102.85 214.21,-87.12 170.74,-76.92"/>
<polygon fill="midnightblue" stroke="midnightblue" points="171.3,-73.45 160.77,-74.58 169.7,-80.27 171.3,-73.45"/>
</g>
<!-- Node6&#45;&gt;Node5 -->
<g id="edge15" class="edge">
<title>Node6&#45;&gt;Node5</title>
<path fill="none" stroke="midnightblue" d="M355.13,-112.28C350.72,-99.5 344.36,-75.14 351.5,-56 355.67,-44.81 364.02,-34.56 371.92,-26.68"/>
<polygon fill="midnightblue" stroke="midnightblue" points="374.56,-29 379.51,-19.63 369.8,-23.87 374.56,-29"/>
</g>
<!-- Node7 -->
<g id="node7" class="node">
<title>Node7</title>
<g id="a_node7"><a xlink:href="direct12_2mxgpuarray_8h.html" target="_top" xlink:title=" ">
<polygon fill="none" stroke="black" points="360.5,-56.5 360.5,-75.5 434.5,-75.5 434.5,-56.5 360.5,-56.5"/>
<text text-anchor="middle" x="397.5" y="-63.5" font-family="Helvetica,sans-Serif" font-size="10.00">mxgpuarray.h</text>
</a>
</g>
</g>
<!-- Node6&#45;&gt;Node7 -->
<g id="edge7" class="edge">
<title>Node6&#45;&gt;Node7</title>
<path fill="none" stroke="midnightblue" d="M364.94,-112.08C370.45,-104.46 378.53,-93.26 385.26,-83.94"/>
<polygon fill="midnightblue" stroke="midnightblue" points="388.16,-85.91 391.18,-75.75 382.49,-81.81 388.16,-85.91"/>
</g>
<!-- Node8 -->
<g id="node8" class="node">
<title>Node8</title>
<g id="a_node8"><a xlink:href="mxlist_8h.html" target="_top" xlink:title=" ">
<polygon fill="none" stroke="black" points="178.5,-56.5 178.5,-75.5 228.5,-75.5 228.5,-56.5 178.5,-56.5"/>
<text text-anchor="middle" x="203.5" y="-63.5" font-family="Helvetica,sans-Serif" font-size="10.00">mxlist.h</text>
</a>
</g>
</g>
<!-- Node6&#45;&gt;Node8 -->
<g id="edge9" class="edge">
<title>Node6&#45;&gt;Node8</title>
<path fill="none" stroke="midnightblue" d="M333.94,-112.44C307.98,-103.4 266.83,-89.06 237.7,-78.92"/>
<polygon fill="midnightblue" stroke="midnightblue" points="238.54,-75.5 227.95,-75.52 236.24,-82.11 238.54,-75.5"/>
</g>
<!-- Node13 -->
<g id="node13" class="node">
<title>Node13</title>
<g id="a_node13"><a xlink:title=" ">
<polygon fill="none" stroke="#bfbfbf" points="453,-56.5 453,-75.5 510,-75.5 510,-56.5 453,-56.5"/>
<text text-anchor="middle" x="481.5" y="-63.5" font-family="Helvetica,sans-Serif" font-size="10.00">dxgi1_6.h</text>
</a>
</g>
</g>
<!-- Node6&#45;&gt;Node13 -->
<g id="edge16" class="edge">
<title>Node6&#45;&gt;Node13</title>
<path fill="none" stroke="midnightblue" d="M377.99,-112.44C398.14,-103.6 429.82,-89.69 452.83,-79.59"/>
<polygon fill="midnightblue" stroke="midnightblue" points="454.35,-82.74 462.1,-75.52 451.54,-76.33 454.35,-82.74"/>
</g>
<!-- Node7&#45;&gt;Node5 -->
<g id="edge8" class="edge">
<title>Node7&#45;&gt;Node5</title>
<path fill="none" stroke="midnightblue" d="M396.34,-56.08C395.42,-48.93 394.08,-38.64 392.92,-29.69"/>
<polygon fill="midnightblue" stroke="midnightblue" points="396.39,-29.22 391.63,-19.75 389.45,-30.12 396.39,-29.22"/>
</g>
<!-- Node8&#45;&gt;Node4 -->
<g id="edge10" class="edge">
<title>Node8&#45;&gt;Node4</title>
<path fill="none" stroke="midnightblue" d="M178.49,-57.15C149.61,-48.08 101.83,-33.08 68.62,-22.65"/>
<polygon fill="midnightblue" stroke="midnightblue" points="69.4,-19.23 58.81,-19.58 67.31,-25.91 69.4,-19.23"/>
</g>
<!-- Node9 -->
<g id="node9" class="node">
<title>Node9</title>
<g id="a_node9"><a xlink:href="mxrefcounter_8h.html" target="_top" xlink:title=" ">
<polygon fill="none" stroke="black" points="81.5,-0.5 81.5,-19.5 161.5,-19.5 161.5,-0.5 81.5,-0.5"/>
<text text-anchor="middle" x="121.5" y="-7.5" font-family="Helvetica,sans-Serif" font-size="10.00">mxrefcounter.h</text>
</a>
</g>
</g>
<!-- Node8&#45;&gt;Node9 -->
<g id="edge11" class="edge">
<title>Node8&#45;&gt;Node9</title>
<path fill="none" stroke="midnightblue" d="M190.33,-56.32C177.65,-47.98 158.27,-35.21 143.29,-25.35"/>
<polygon fill="midnightblue" stroke="midnightblue" points="144.92,-22.23 134.64,-19.65 141.07,-28.08 144.92,-22.23"/>
</g>
<!-- Node10 -->
<g id="node10" class="node">
<title>Node10</title>
<g id="a_node10"><a xlink:title=" ">
<polygon fill="none" stroke="#bfbfbf" points="180,-0.5 180,-19.5 227,-19.5 227,-0.5 180,-0.5"/>
<text text-anchor="middle" x="203.5" y="-7.5" font-family="Helvetica,sans-Serif" font-size="10.00">stdlib.h</text>
</a>
</g>
</g>
<!-- Node8&#45;&gt;Node10 -->
<g id="edge12" class="edge">
<title>Node8&#45;&gt;Node10</title>
<path fill="none" stroke="midnightblue" d="M203.5,-56.08C203.5,-49.01 203.5,-38.86 203.5,-29.99"/>
<polygon fill="midnightblue" stroke="midnightblue" points="207,-29.75 203.5,-19.75 200,-29.75 207,-29.75"/>
</g>
<!-- Node11 -->
<g id="node11" class="node">
<title>Node11</title>
<g id="a_node11"><a xlink:title=" ">
<polygon fill="none" stroke="#bfbfbf" points="245.5,-0.5 245.5,-19.5 293.5,-19.5 293.5,-0.5 245.5,-0.5"/>
<text text-anchor="middle" x="269.5" y="-7.5" font-family="Helvetica,sans-Serif" font-size="10.00">string.h</text>
</a>
</g>
</g>
<!-- Node8&#45;&gt;Node11 -->
<g id="edge13" class="edge">
<title>Node8&#45;&gt;Node11</title>
<path fill="none" stroke="midnightblue" d="M214.1,-56.32C223.96,-48.26 238.85,-36.08 250.72,-26.37"/>
<polygon fill="midnightblue" stroke="midnightblue" points="253.18,-28.88 258.7,-19.83 248.75,-23.46 253.18,-28.88"/>
</g>
<!-- Node12 -->
<g id="node12" class="node">
<title>Node12</title>
<g id="a_node12"><a xlink:title=" ">
<polygon fill="none" stroke="#bfbfbf" points="312,-0.5 312,-19.5 347,-19.5 347,-0.5 312,-0.5"/>
<text text-anchor="middle" x="329.5" y="-7.5" font-family="Helvetica,sans-Serif" font-size="10.00">new</text>
</a>
</g>
</g>
<!-- Node8&#45;&gt;Node12 -->
<g id="edge14" class="edge">
<title>Node8&#45;&gt;Node12</title>
<path fill="none" stroke="midnightblue" d="M223.47,-56.44C244.72,-47.34 278.48,-32.86 302.19,-22.71"/>
<polygon fill="midnightblue" stroke="midnightblue" points="303.85,-25.8 311.67,-18.64 301.1,-19.37 303.85,-25.8"/>
</g>
</g>
</svg>
