<?xml version="1.0" encoding="UTF-8" standalone="no"?>
<!DOCTYPE svg PUBLIC "-//W3C//DTD SVG 1.1//EN"
 "http://www.w3.org/Graphics/SVG/1.1/DTD/svg11.dtd">
<!-- Generated by graphviz version 2.44.0 ()
 -->
<!-- Title: src/renderer/direct12/mxrenderer.cpp Pages: 1 -->
<svg width="674pt" height="263pt"
 viewBox="0.00 0.00 673.78 263.00" xmlns="http://www.w3.org/2000/svg" xmlns:xlink="http://www.w3.org/1999/xlink">
<g id="graph0" class="graph" transform="scale(1 1) rotate(0) translate(4 259)">
<title>src/renderer/direct12/mxrenderer.cpp</title>
<!-- Node1 -->
<g id="node1" class="node">
<title>Node1</title>
<g id="a_node1"><a xlink:title=" ">
<polygon fill="#bfbfbf" stroke="black" points="375.28,-224.5 375.28,-254.5 481.28,-254.5 481.28,-224.5 375.28,-224.5"/>
<text text-anchor="start" x="383.28" y="-242.5" font-family="Helvetica,sans-Serif" font-size="10.00">src/renderer/direct12</text>
<text text-anchor="middle" x="428.28" y="-231.5" font-family="Helvetica,sans-Serif" font-size="10.00">/mxrenderer.cpp</text>
</a>
</g>
</g>
<!-- Node2 -->
<g id="node2" class="node">
<title>Node2</title>
<g id="a_node2"><a xlink:href="direct12_2mxrenderer_8h.html" target="_top" xlink:title=" ">
<polygon fill="none" stroke="black" points="225.28,-168.5 225.28,-187.5 297.28,-187.5 297.28,-168.5 225.28,-168.5"/>
<text text-anchor="middle" x="261.28" y="-175.5" font-family="Helvetica,sans-Serif" font-size="10.00">mxrenderer.h</text>
</a>
</g>
</g>
<!-- Node1&#45;&gt;Node2 -->
<g id="edge1" class="edge">
<title>Node1&#45;&gt;Node2</title>
<path fill="none" stroke="midnightblue" d="M388.71,-224.4C360.19,-214.24 322.11,-200.67 295.03,-191.02"/>
<polygon fill="midnightblue" stroke="midnightblue" points="296.18,-187.72 285.58,-187.66 293.83,-194.31 296.18,-187.72"/>
</g>
<!-- Node4 -->
<g id="node4" class="node">
<title>Node4</title>
<g id="a_node4"><a xlink:title=" ">
<polygon fill="none" stroke="#bfbfbf" points="133.78,-0.5 133.78,-19.5 196.78,-19.5 196.78,-0.5 133.78,-0.5"/>
<text text-anchor="middle" x="165.28" y="-7.5" font-family="Helvetica,sans-Serif" font-size="10.00">mxdebug.h</text>
</a>
</g>
</g>
<!-- Node1&#45;&gt;Node4 -->
<g id="edge18" class="edge">
<title>Node1&#45;&gt;Node4</title>
<path fill="none" stroke="midnightblue" d="M375.08,-234.9C288.36,-228.4 120.83,-213 67.28,-188 33.64,-172.29 20.36,-165.93 5.28,-132 -9.82,-98.02 11.34,-79.35 40.28,-56 64.37,-36.57 97.55,-25.14 123.67,-18.67"/>
<polygon fill="midnightblue" stroke="midnightblue" points="124.72,-22.02 133.67,-16.35 123.13,-15.2 124.72,-22.02"/>
</g>
<!-- Node6 -->
<g id="node6" class="node">
<title>Node6</title>
<g id="a_node6"><a xlink:title=" ">
<polygon fill="none" stroke="#bfbfbf" points="49.28,-56.5 49.28,-75.5 99.28,-75.5 99.28,-56.5 49.28,-56.5"/>
<text text-anchor="middle" x="74.28" y="-63.5" font-family="Helvetica,sans-Serif" font-size="10.00">d3d12.h</text>
</a>
</g>
</g>
<!-- Node1&#45;&gt;Node6 -->
<g id="edge19" class="edge">
<title>Node1&#45;&gt;Node6</title>
<path fill="none" stroke="midnightblue" d="M375.13,-232.93C273.34,-221.05 57.05,-189.48 13.28,-132 -1.3,-112.85 24.37,-92.97 46.75,-80.32"/>
<polygon fill="midnightblue" stroke="midnightblue" points="48.54,-83.33 55.7,-75.52 45.23,-77.16 48.54,-83.33"/>
</g>
<!-- Node10 -->
<g id="node10" class="node">
<title>Node10</title>
<g id="a_node10"><a xlink:title=" ">
<polygon fill="none" stroke="#bfbfbf" points="470.78,-56.5 470.78,-75.5 517.78,-75.5 517.78,-56.5 470.78,-56.5"/>
<text text-anchor="middle" x="494.28" y="-63.5" font-family="Helvetica,sans-Serif" font-size="10.00">stdlib.h</text>
</a>
</g>
</g>
<!-- Node1&#45;&gt;Node10 -->
<g id="edge22" class="edge">
<title>Node1&#45;&gt;Node10</title>
<path fill="none" stroke="midnightblue" d="M431.37,-224.23C434.65,-209.83 440.34,-187.06 447.28,-168 458.22,-137.98 474.62,-104.64 484.87,-84.77"/>
<polygon fill="midnightblue" stroke="midnightblue" points="488.08,-86.18 489.61,-75.7 481.88,-82.94 488.08,-86.18"/>
</g>
<!-- Node14 -->
<g id="node14" class="node">
<title>Node14</title>
<g id="a_node14"><a xlink:href="direct12_2mxgpuprogram_8h.html" target="_top" xlink:title=" ">
<polygon fill="none" stroke="black" points="456.28,-168.5 456.28,-187.5 544.28,-187.5 544.28,-168.5 456.28,-168.5"/>
<text text-anchor="middle" x="500.28" y="-175.5" font-family="Helvetica,sans-Serif" font-size="10.00">mxgpuprogram.h</text>
</a>
</g>
</g>
<!-- Node1&#45;&gt;Node14 -->
<g id="edge17" class="edge">
<title>Node1&#45;&gt;Node14</title>
<path fill="none" stroke="midnightblue" d="M445.35,-224.4C456.35,-215.31 470.65,-203.49 481.9,-194.19"/>
<polygon fill="midnightblue" stroke="midnightblue" points="484.33,-196.73 489.81,-187.66 479.87,-191.33 484.33,-196.73"/>
</g>
<!-- Node15 -->
<g id="node15" class="node">
<title>Node15</title>
<g id="a_node15"><a xlink:title=" ">
<polygon fill="none" stroke="#bfbfbf" points="562.28,-168.5 562.28,-187.5 606.28,-187.5 606.28,-168.5 562.28,-168.5"/>
<text text-anchor="middle" x="584.28" y="-175.5" font-family="Helvetica,sans-Serif" font-size="10.00">vector</text>
</a>
</g>
</g>
<!-- Node1&#45;&gt;Node15 -->
<g id="edge20" class="edge">
<title>Node1&#45;&gt;Node15</title>
<path fill="none" stroke="midnightblue" d="M465.25,-224.4C491.82,-214.27 527.26,-200.75 552.55,-191.1"/>
<polygon fill="midnightblue" stroke="midnightblue" points="553.94,-194.32 562.04,-187.48 551.45,-187.78 553.94,-194.32"/>
</g>
<!-- Node16 -->
<g id="node16" class="node">
<title>Node16</title>
<g id="a_node16"><a xlink:title=" ">
<polygon fill="none" stroke="#bfbfbf" points="624.78,-168.5 624.78,-187.5 665.78,-187.5 665.78,-168.5 624.78,-168.5"/>
<text text-anchor="middle" x="645.28" y="-175.5" font-family="Helvetica,sans-Serif" font-size="10.00">string</text>
</a>
</g>
</g>
<!-- Node1&#45;&gt;Node16 -->
<g id="edge21" class="edge">
<title>Node1&#45;&gt;Node16</title>
<path fill="none" stroke="midnightblue" d="M481.59,-224.52C516.79,-215.2 564.17,-202.47 614.82,-188.07"/>
<polygon fill="midnightblue" stroke="midnightblue" points="615.99,-191.38 624.65,-185.27 614.07,-184.65 615.99,-191.38"/>
</g>
<!-- Node3 -->
<g id="node3" class="node">
<title>Node3</title>
<g id="a_node3"><a xlink:href="mxvector_8h.html" target="_top" xlink:title=" ">
<polygon fill="none" stroke="black" points="133.28,-56.5 133.28,-75.5 197.28,-75.5 197.28,-56.5 133.28,-56.5"/>
<text text-anchor="middle" x="165.28" y="-63.5" font-family="Helvetica,sans-Serif" font-size="10.00">mxvector.h</text>
</a>
</g>
</g>
<!-- Node2&#45;&gt;Node3 -->
<g id="edge2" class="edge">
<title>Node2&#45;&gt;Node3</title>
<path fill="none" stroke="midnightblue" d="M273.95,-168.39C290.95,-155.76 317.49,-131.57 303.28,-112 297.41,-103.9 245.72,-88.53 207.31,-78.03"/>
<polygon fill="midnightblue" stroke="midnightblue" points="207.94,-74.58 197.38,-75.34 206.11,-81.33 207.94,-74.58"/>
</g>
<!-- Node5 -->
<g id="node5" class="node">
<title>Node5</title>
<g id="a_node5"><a xlink:href="direct12_2mxtexture_8h.html" target="_top" xlink:title=" ">
<polygon fill="none" stroke="black" points="228.28,-112.5 228.28,-131.5 294.28,-131.5 294.28,-112.5 228.28,-112.5"/>
<text text-anchor="middle" x="261.28" y="-119.5" font-family="Helvetica,sans-Serif" font-size="10.00">mxtexture.h</text>
</a>
</g>
</g>
<!-- Node2&#45;&gt;Node5 -->
<g id="edge4" class="edge">
<title>Node2&#45;&gt;Node5</title>
<path fill="none" stroke="midnightblue" d="M261.28,-168.08C261.28,-161.01 261.28,-150.86 261.28,-141.99"/>
<polygon fill="midnightblue" stroke="midnightblue" points="264.78,-141.75 261.28,-131.75 257.78,-141.75 264.78,-141.75"/>
</g>
<!-- Node2&#45;&gt;Node6 -->
<g id="edge15" class="edge">
<title>Node2&#45;&gt;Node6</title>
<path fill="none" stroke="midnightblue" d="M229.72,-168.45C205.27,-161.01 171.15,-148.76 144.28,-132 122.64,-118.5 101.74,-97.76 88.49,-83.35"/>
<polygon fill="midnightblue" stroke="midnightblue" points="90.92,-80.81 81.64,-75.7 85.71,-85.48 90.92,-80.81"/>
</g>
<!-- Node7 -->
<g id="node7" class="node">
<title>Node7</title>
<g id="a_node7"><a xlink:href="direct12_2mxgpuarray_8h.html" target="_top" xlink:title=" ">
<polygon fill="none" stroke="black" points="22.28,-112.5 22.28,-131.5 96.28,-131.5 96.28,-112.5 22.28,-112.5"/>
<text text-anchor="middle" x="59.28" y="-119.5" font-family="Helvetica,sans-Serif" font-size="10.00">mxgpuarray.h</text>
</a>
</g>
</g>
<!-- Node2&#45;&gt;Node7 -->
<g id="edge7" class="edge">
<title>Node2&#45;&gt;Node7</title>
<path fill="none" stroke="midnightblue" d="M229.28,-168.44C194.55,-159.16 139,-144.31 100.91,-134.13"/>
<polygon fill="midnightblue" stroke="midnightblue" points="101.71,-130.72 91.14,-131.52 99.9,-137.48 101.71,-130.72"/>
</g>
<!-- Node8 -->
<g id="node8" class="node">
<title>Node8</title>
<g id="a_node8"><a xlink:href="mxlist_8h.html" target="_top" xlink:title=" ">
<polygon fill="none" stroke="black" points="350.28,-112.5 350.28,-131.5 400.28,-131.5 400.28,-112.5 350.28,-112.5"/>
<text text-anchor="middle" x="375.28" y="-119.5" font-family="Helvetica,sans-Serif" font-size="10.00">mxlist.h</text>
</a>
</g>
</g>
<!-- Node2&#45;&gt;Node8 -->
<g id="edge9" class="edge">
<title>Node2&#45;&gt;Node8</title>
<path fill="none" stroke="midnightblue" d="M279.35,-168.44C297.86,-159.68 326.86,-145.94 348.14,-135.86"/>
<polygon fill="midnightblue" stroke="midnightblue" points="349.77,-138.96 357.3,-131.52 346.77,-132.63 349.77,-138.96"/>
</g>
<!-- Node13 -->
<g id="node13" class="node">
<title>Node13</title>
<g id="a_node13"><a xlink:title=" ">
<polygon fill="none" stroke="#bfbfbf" points="152.78,-112.5 152.78,-131.5 209.78,-131.5 209.78,-112.5 152.78,-112.5"/>
<text text-anchor="middle" x="181.28" y="-119.5" font-family="Helvetica,sans-Serif" font-size="10.00">dxgi1_6.h</text>
</a>
</g>
</g>
<!-- Node2&#45;&gt;Node13 -->
<g id="edge16" class="edge">
<title>Node2&#45;&gt;Node13</title>
<path fill="none" stroke="midnightblue" d="M248.43,-168.32C236.07,-159.98 217.15,-147.21 202.55,-137.35"/>
<polygon fill="midnightblue" stroke="midnightblue" points="204.35,-134.35 194.11,-131.65 200.44,-140.15 204.35,-134.35"/>
</g>
<!-- Node3&#45;&gt;Node4 -->
<g id="edge3" class="edge">
<title>Node3&#45;&gt;Node4</title>
<path fill="none" stroke="midnightblue" d="M165.28,-56.08C165.28,-49.01 165.28,-38.86 165.28,-29.99"/>
<polygon fill="midnightblue" stroke="midnightblue" points="168.78,-29.75 165.28,-19.75 161.78,-29.75 168.78,-29.75"/>
</g>
<!-- Node5&#45;&gt;Node3 -->
<g id="edge5" class="edge">
<title>Node5&#45;&gt;Node3</title>
<path fill="none" stroke="midnightblue" d="M245.86,-112.32C230.74,-103.82 207.47,-90.73 189.81,-80.8"/>
<polygon fill="midnightblue" stroke="midnightblue" points="191.1,-77.51 180.67,-75.65 187.67,-83.61 191.1,-77.51"/>
</g>
<!-- Node5&#45;&gt;Node6 -->
<g id="edge6" class="edge">
<title>Node5&#45;&gt;Node6</title>
<path fill="none" stroke="midnightblue" d="M231.65,-112.44C198.38,-102.83 144.43,-87.26 109.15,-77.07"/>
<polygon fill="midnightblue" stroke="midnightblue" points="109.87,-73.63 99.29,-74.22 107.92,-80.36 109.87,-73.63"/>
</g>
<!-- Node7&#45;&gt;Node6 -->
<g id="edge8" class="edge">
<title>Node7&#45;&gt;Node6</title>
<path fill="none" stroke="midnightblue" d="M61.76,-112.08C63.77,-104.85 66.67,-94.41 69.17,-85.4"/>
<polygon fill="midnightblue" stroke="midnightblue" points="72.55,-86.32 71.85,-75.75 65.8,-84.45 72.55,-86.32"/>
</g>
<!-- Node8&#45;&gt;Node4 -->
<g id="edge10" class="edge">
<title>Node8&#45;&gt;Node4</title>
<path fill="none" stroke="midnightblue" d="M350.03,-115.2C322.79,-108.3 278.71,-95.24 244.28,-76 220.21,-62.55 196.28,-41.51 181.18,-27.03"/>
<polygon fill="midnightblue" stroke="midnightblue" points="183.34,-24.25 173.75,-19.75 178.44,-29.25 183.34,-24.25"/>
</g>
<!-- Node9 -->
<g id="node9" class="node">
<title>Node9</title>
<g id="a_node9"><a xlink:href="mxrefcounter_8h.html" target="_top" xlink:title=" ">
<polygon fill="none" stroke="black" points="253.28,-56.5 253.28,-75.5 333.28,-75.5 333.28,-56.5 253.28,-56.5"/>
<text text-anchor="middle" x="293.28" y="-63.5" font-family="Helvetica,sans-Serif" font-size="10.00">mxrefcounter.h</text>
</a>
</g>
</g>
<!-- Node8&#45;&gt;Node9 -->
<g id="edge11" class="edge">
<title>Node8&#45;&gt;Node9</title>
<path fill="none" stroke="midnightblue" d="M362.11,-112.32C349.44,-103.98 330.05,-91.21 315.08,-81.35"/>
<polygon fill="midnightblue" stroke="midnightblue" points="316.7,-78.23 306.43,-75.65 312.85,-84.08 316.7,-78.23"/>
</g>
<!-- Node8&#45;&gt;Node10 -->
<g id="edge12" class="edge">
<title>Node8&#45;&gt;Node10</title>
<path fill="none" stroke="midnightblue" d="M394.14,-112.44C413.55,-103.64 444.01,-89.81 466.25,-79.72"/>
<polygon fill="midnightblue" stroke="midnightblue" points="467.86,-82.84 475.52,-75.52 464.96,-76.46 467.86,-82.84"/>
</g>
<!-- Node11 -->
<g id="node11" class="node">
<title>Node11</title>
<g id="a_node11"><a xlink:title=" ">
<polygon fill="none" stroke="#bfbfbf" points="351.28,-56.5 351.28,-75.5 399.28,-75.5 399.28,-56.5 351.28,-56.5"/>
<text text-anchor="middle" x="375.28" y="-63.5" font-family="Helvetica,sans-Serif" font-size="10.00">string.h</text>
</a>
</g>
</g>
<!-- Node8&#45;&gt;Node11 -->
<g id="edge13" class="edge">
<title>Node8&#45;&gt;Node11</title>
<path fill="none" stroke="midnightblue" d="M375.28,-112.08C375.28,-105.01 375.28,-94.86 375.28,-85.99"/>
<polygon fill="midnightblue" stroke="midnightblue" points="378.78,-85.75 375.28,-75.75 371.78,-85.75 378.78,-85.75"/>
</g>
<!-- Node12 -->
<g id="node12" class="node">
<title>Node12</title>
<g id="a_node12"><a xlink:title=" ">
<polygon fill="none" stroke="#bfbfbf" points="417.78,-56.5 417.78,-75.5 452.78,-75.5 452.78,-56.5 417.78,-56.5"/>
<text text-anchor="middle" x="435.28" y="-63.5" font-family="Helvetica,sans-Serif" font-size="10.00">new</text>
</a>
</g>
</g>
<!-- Node8&#45;&gt;Node12 -->
<g id="edge14" class="edge">
<title>Node8&#45;&gt;Node12</title>
<path fill="none" stroke="midnightblue" d="M384.92,-112.32C393.79,-104.34 407.16,-92.31 417.89,-82.65"/>
<polygon fill="midnightblue" stroke="midnightblue" points="420.38,-85.13 425.47,-75.83 415.69,-79.92 420.38,-85.13"/>
</g>
</g>
</svg>
