<?xml version="1.0" encoding="UTF-8" standalone="no"?>
<!DOCTYPE svg PUBLIC "-//W3C//DTD SVG 1.1//EN"
 "http://www.w3.org/Graphics/SVG/1.1/DTD/svg11.dtd">
<!-- Generated by graphviz version 2.44.0 ()
 -->
<!-- Title: src/svg&#45;drawings/downarrowsvg.cpp Pages: 1 -->
<svg width="304pt" height="308pt"
 viewBox="0.00 0.00 304.00 308.00" xmlns="http://www.w3.org/2000/svg" xmlns:xlink="http://www.w3.org/1999/xlink">
<g id="graph0" class="graph" transform="scale(1 1) rotate(0) translate(4 304)">
<title>src/svg&#45;drawings/downarrowsvg.cpp</title>
<!-- Node1 -->
<g id="node1" class="node">
<title>Node1</title>
<g id="a_node1"><a xlink:title=" ">
<polygon fill="#bfbfbf" stroke="black" points="59.5,-280.5 59.5,-299.5 234.5,-299.5 234.5,-280.5 59.5,-280.5"/>
<text text-anchor="middle" x="147" y="-287.5" font-family="Helvetica,sans-Serif" font-size="10.00">src/svg&#45;drawings/downarrowsvg.cpp</text>
</a>
</g>
</g>
<!-- Node2 -->
<g id="node2" class="node">
<title>Node2</title>
<g id="a_node2"><a xlink:href="downarrowsvg_8h.html" target="_top" xlink:title=" ">
<polygon fill="none" stroke="black" points="0.5,-224.5 0.5,-243.5 87.5,-243.5 87.5,-224.5 0.5,-224.5"/>
<text text-anchor="middle" x="44" y="-231.5" font-family="Helvetica,sans-Serif" font-size="10.00">downarrowsvg.h</text>
</a>
</g>
</g>
<!-- Node1&#45;&gt;Node2 -->
<g id="edge1" class="edge">
<title>Node1&#45;&gt;Node2</title>
<path fill="none" stroke="midnightblue" d="M130.45,-280.32C114.01,-271.7 88.57,-258.36 69.53,-248.39"/>
<polygon fill="midnightblue" stroke="midnightblue" points="70.99,-245.2 60.51,-243.65 67.74,-251.4 70.99,-245.2"/>
</g>
<!-- Node6 -->
<g id="node6" class="node">
<title>Node6</title>
<g id="a_node6"><a xlink:href="mxsvgpainter_8h.html" target="_top" xlink:title=" ">
<polygon fill="none" stroke="black" points="106,-224.5 106,-243.5 188,-243.5 188,-224.5 106,-224.5"/>
<text text-anchor="middle" x="147" y="-231.5" font-family="Helvetica,sans-Serif" font-size="10.00">mxsvgpainter.h</text>
</a>
</g>
</g>
<!-- Node1&#45;&gt;Node6 -->
<g id="edge5" class="edge">
<title>Node1&#45;&gt;Node6</title>
<path fill="none" stroke="midnightblue" d="M147,-280.08C147,-273.01 147,-262.86 147,-253.99"/>
<polygon fill="midnightblue" stroke="midnightblue" points="150.5,-253.75 147,-243.75 143.5,-253.75 150.5,-253.75"/>
</g>
<!-- Node10 -->
<g id="node10" class="node">
<title>Node10</title>
<g id="a_node10"><a xlink:title=" ">
<polygon fill="none" stroke="#bfbfbf" points="206,-224.5 206,-243.5 296,-243.5 296,-224.5 206,-224.5"/>
<text text-anchor="middle" x="251" y="-231.5" font-family="Helvetica,sans-Serif" font-size="10.00">mxthemecolors.h</text>
</a>
</g>
</g>
<!-- Node1&#45;&gt;Node10 -->
<g id="edge12" class="edge">
<title>Node1&#45;&gt;Node10</title>
<path fill="none" stroke="midnightblue" d="M163.71,-280.32C180.31,-271.7 206,-258.36 225.22,-248.39"/>
<polygon fill="midnightblue" stroke="midnightblue" points="227.07,-251.37 234.33,-243.65 223.84,-245.16 227.07,-251.37"/>
</g>
<!-- Node3 -->
<g id="node3" class="node">
<title>Node3</title>
<g id="a_node3"><a xlink:href="mxabstractsvg_8h.html" target="_top" xlink:title=" ">
<polygon fill="none" stroke="black" points="0,-112.5 0,-131.5 88,-131.5 88,-112.5 0,-112.5"/>
<text text-anchor="middle" x="44" y="-119.5" font-family="Helvetica,sans-Serif" font-size="10.00">mxabstractsvg.h</text>
</a>
</g>
</g>
<!-- Node2&#45;&gt;Node3 -->
<g id="edge2" class="edge">
<title>Node2&#45;&gt;Node3</title>
<path fill="none" stroke="midnightblue" d="M44,-224.37C44,-206.62 44,-165.67 44,-141.6"/>
<polygon fill="midnightblue" stroke="midnightblue" points="47.5,-141.59 44,-131.59 40.5,-141.59 47.5,-141.59"/>
</g>
<!-- Node4 -->
<g id="node4" class="node">
<title>Node4</title>
<g id="a_node4"><a xlink:href="mxvector_8h.html" target="_top" xlink:title=" ">
<polygon fill="none" stroke="black" points="84,-56.5 84,-75.5 148,-75.5 148,-56.5 84,-56.5"/>
<text text-anchor="middle" x="116" y="-63.5" font-family="Helvetica,sans-Serif" font-size="10.00">mxvector.h</text>
</a>
</g>
</g>
<!-- Node3&#45;&gt;Node4 -->
<g id="edge3" class="edge">
<title>Node3&#45;&gt;Node4</title>
<path fill="none" stroke="midnightblue" d="M55.57,-112.32C66.42,-104.18 82.88,-91.84 95.88,-82.09"/>
<polygon fill="midnightblue" stroke="midnightblue" points="98.32,-84.63 104.22,-75.83 94.12,-79.03 98.32,-84.63"/>
</g>
<!-- Node5 -->
<g id="node5" class="node">
<title>Node5</title>
<g id="a_node5"><a xlink:title=" ">
<polygon fill="none" stroke="#bfbfbf" points="114.5,-0.5 114.5,-19.5 177.5,-19.5 177.5,-0.5 114.5,-0.5"/>
<text text-anchor="middle" x="146" y="-7.5" font-family="Helvetica,sans-Serif" font-size="10.00">mxdebug.h</text>
</a>
</g>
</g>
<!-- Node4&#45;&gt;Node5 -->
<g id="edge4" class="edge">
<title>Node4&#45;&gt;Node5</title>
<path fill="none" stroke="midnightblue" d="M120.95,-56.08C125.1,-48.61 131.15,-37.72 136.27,-28.52"/>
<polygon fill="midnightblue" stroke="midnightblue" points="139.34,-30.19 141.14,-19.75 133.22,-26.79 139.34,-30.19"/>
</g>
<!-- Node6&#45;&gt;Node4 -->
<g id="edge6" class="edge">
<title>Node6&#45;&gt;Node4</title>
<path fill="none" stroke="midnightblue" d="M144.43,-224.44C141.79,-215.43 137.71,-200.82 135,-188 127.41,-152.06 121.41,-109.53 118.31,-85.67"/>
<polygon fill="midnightblue" stroke="midnightblue" points="121.76,-85.04 117.03,-75.56 114.82,-85.93 121.76,-85.04"/>
</g>
<!-- Node7 -->
<g id="node7" class="node">
<title>Node7</title>
<g id="a_node7"><a xlink:href="mxvectordraw_8h.html" target="_top" xlink:title=" ">
<polygon fill="none" stroke="black" points="144.5,-168.5 144.5,-187.5 229.5,-187.5 229.5,-168.5 144.5,-168.5"/>
<text text-anchor="middle" x="187" y="-175.5" font-family="Helvetica,sans-Serif" font-size="10.00">mxvectordraw.h</text>
</a>
</g>
</g>
<!-- Node6&#45;&gt;Node7 -->
<g id="edge7" class="edge">
<title>Node6&#45;&gt;Node7</title>
<path fill="none" stroke="midnightblue" d="M153.61,-224.08C159.26,-216.46 167.54,-205.26 174.45,-195.94"/>
<polygon fill="midnightblue" stroke="midnightblue" points="177.38,-197.87 180.52,-187.75 171.75,-193.7 177.38,-197.87"/>
</g>
<!-- Node8 -->
<g id="node8" class="node">
<title>Node8</title>
<g id="a_node8"><a xlink:href="mxrect_8h.html" target="_top" xlink:title=" ">
<polygon fill="none" stroke="black" points="155.5,-112.5 155.5,-131.5 208.5,-131.5 208.5,-112.5 155.5,-112.5"/>
<text text-anchor="middle" x="182" y="-119.5" font-family="Helvetica,sans-Serif" font-size="10.00">mxrect.h</text>
</a>
</g>
</g>
<!-- Node7&#45;&gt;Node8 -->
<g id="edge8" class="edge">
<title>Node7&#45;&gt;Node8</title>
<path fill="none" stroke="midnightblue" d="M186.17,-168.08C185.52,-161.01 184.58,-150.86 183.76,-141.99"/>
<polygon fill="midnightblue" stroke="midnightblue" points="187.22,-141.39 182.81,-131.75 180.25,-142.03 187.22,-141.39"/>
</g>
<!-- Node8&#45;&gt;Node4 -->
<g id="edge10" class="edge">
<title>Node8&#45;&gt;Node4</title>
<path fill="none" stroke="midnightblue" d="M171.4,-112.32C161.54,-104.26 146.65,-92.08 134.78,-82.37"/>
<polygon fill="midnightblue" stroke="midnightblue" points="136.75,-79.46 126.8,-75.83 132.32,-84.88 136.75,-79.46"/>
</g>
<!-- Node8&#45;&gt;Node5 -->
<g id="edge9" class="edge">
<title>Node8&#45;&gt;Node5</title>
<path fill="none" stroke="midnightblue" d="M179.18,-112.37C173.34,-94.54 159.84,-53.3 151.98,-29.27"/>
<polygon fill="midnightblue" stroke="midnightblue" points="155.25,-28.01 148.81,-19.59 148.6,-30.18 155.25,-28.01"/>
</g>
<!-- Node9 -->
<g id="node9" class="node">
<title>Node9</title>
<g id="a_node9"><a xlink:title=" ">
<polygon fill="none" stroke="#bfbfbf" points="204,-56.5 204,-75.5 260,-75.5 260,-56.5 204,-56.5"/>
<text text-anchor="middle" x="232" y="-63.5" font-family="Helvetica,sans-Serif" font-size="10.00">algorithm</text>
</a>
</g>
</g>
<!-- Node8&#45;&gt;Node9 -->
<g id="edge11" class="edge">
<title>Node8&#45;&gt;Node9</title>
<path fill="none" stroke="midnightblue" d="M190.26,-112.08C197.46,-104.3 208.11,-92.8 216.85,-83.37"/>
<polygon fill="midnightblue" stroke="midnightblue" points="219.67,-85.47 223.9,-75.75 214.53,-80.71 219.67,-85.47"/>
</g>
</g>
</svg>
