<?xml version="1.0" encoding="UTF-8" standalone="no"?>
<!DOCTYPE svg PUBLIC "-//W3C//DTD SVG 1.1//EN"
 "http://www.w3.org/Graphics/SVG/1.1/DTD/svg11.dtd">
<!-- Generated by graphviz version 2.44.0 ()
 -->
<!-- Title: src/gui/gpuvbo.cpp Pages: 1 -->
<svg width="744pt" height="476pt"
 viewBox="0.00 0.00 744.00 476.00" xmlns="http://www.w3.org/2000/svg" xmlns:xlink="http://www.w3.org/1999/xlink">
<g id="graph0" class="graph" transform="scale(1 1) rotate(0) translate(4 472)">
<title>src/gui/gpuvbo.cpp</title>
<!-- Node1 -->
<g id="node1" class="node">
<title>Node1</title>
<g id="a_node1"><a xlink:title=" ">
<polygon fill="#bfbfbf" stroke="black" points="73,-448.5 73,-467.5 171,-467.5 171,-448.5 73,-448.5"/>
<text text-anchor="middle" x="122" y="-455.5" font-family="Helvetica,sans-Serif" font-size="10.00">src/gui/gpuvbo.cpp</text>
</a>
</g>
</g>
<!-- Node2 -->
<g id="node2" class="node">
<title>Node2</title>
<g id="a_node2"><a xlink:href="gpuvbo_8h.html" target="_top" xlink:title=" ">
<polygon fill="none" stroke="black" points="60,-168.5 60,-187.5 116,-187.5 116,-168.5 60,-168.5"/>
<text text-anchor="middle" x="88" y="-175.5" font-family="Helvetica,sans-Serif" font-size="10.00">gpuvbo.h</text>
</a>
</g>
</g>
<!-- Node1&#45;&gt;Node2 -->
<g id="edge1" class="edge">
<title>Node1&#45;&gt;Node2</title>
<path fill="none" stroke="midnightblue" d="M108.88,-448.46C85.25,-431.94 38,-393.14 38,-347 38,-347 38,-347 38,-289 38,-258.9 44.08,-251.18 57,-224 61.73,-214.06 68.54,-203.88 74.57,-195.73"/>
<polygon fill="midnightblue" stroke="midnightblue" points="77.36,-197.85 80.68,-187.78 71.81,-193.58 77.36,-197.85"/>
</g>
<!-- Node3 -->
<g id="node3" class="node">
<title>Node3</title>
<g id="a_node3"><a xlink:href="mxopengl_8h.html" target="_top" xlink:title=" ">
<polygon fill="none" stroke="black" points="85.5,-56.5 85.5,-75.5 150.5,-75.5 150.5,-56.5 85.5,-56.5"/>
<text text-anchor="middle" x="118" y="-63.5" font-family="Helvetica,sans-Serif" font-size="10.00">mxopengl.h</text>
</a>
</g>
</g>
<!-- Node1&#45;&gt;Node3 -->
<g id="edge8" class="edge">
<title>Node1&#45;&gt;Node3</title>
<path fill="none" stroke="midnightblue" d="M99.05,-448.48C63.71,-433.71 0,-399.76 0,-347 0,-347 0,-347 0,-177 0,-129.51 51.77,-96.67 86.72,-79.91"/>
<polygon fill="midnightblue" stroke="midnightblue" points="88.46,-82.97 96.08,-75.61 85.53,-76.61 88.46,-82.97"/>
</g>
<!-- Node5 -->
<g id="node5" class="node">
<title>Node5</title>
<g id="a_node5"><a xlink:href="mxdebug_8h.html" target="_top" xlink:title=" ">
<polygon fill="none" stroke="black" points="406.5,-56.5 406.5,-75.5 469.5,-75.5 469.5,-56.5 406.5,-56.5"/>
<text text-anchor="middle" x="438" y="-63.5" font-family="Helvetica,sans-Serif" font-size="10.00">mxdebug.h</text>
</a>
</g>
</g>
<!-- Node1&#45;&gt;Node5 -->
<g id="edge7" class="edge">
<title>Node1&#45;&gt;Node5</title>
<path fill="none" stroke="midnightblue" d="M171.21,-453.37C316.91,-441.99 736,-404.26 736,-347 736,-347 736,-347 736,-177 736,-140.82 717.81,-130.97 687,-112 652.96,-91.05 541.5,-77.14 479.88,-70.86"/>
<polygon fill="midnightblue" stroke="midnightblue" points="480.01,-67.35 469.71,-69.84 479.32,-74.32 480.01,-67.35"/>
</g>
<!-- Node7 -->
<g id="node7" class="node">
<title>Node7</title>
<g id="a_node7"><a xlink:href="mxrenderer_8h.html" target="_top" xlink:title=" ">
<polygon fill="none" stroke="black" points="249,-392.5 249,-411.5 321,-411.5 321,-392.5 249,-392.5"/>
<text text-anchor="middle" x="285" y="-399.5" font-family="Helvetica,sans-Serif" font-size="10.00">mxrenderer.h</text>
</a>
</g>
</g>
<!-- Node1&#45;&gt;Node7 -->
<g id="edge9" class="edge">
<title>Node1&#45;&gt;Node7</title>
<path fill="none" stroke="midnightblue" d="M147.83,-448.44C175.25,-439.36 218.78,-424.94 249.43,-414.78"/>
<polygon fill="midnightblue" stroke="midnightblue" points="250.9,-417.98 259.29,-411.52 248.7,-411.34 250.9,-417.98"/>
</g>
<!-- Node2&#45;&gt;Node3 -->
<g id="edge2" class="edge">
<title>Node2&#45;&gt;Node3</title>
<path fill="none" stroke="midnightblue" d="M88.37,-168.42C89.1,-155.81 91.19,-131.67 97,-112 99.78,-102.59 104.23,-92.66 108.33,-84.53"/>
<polygon fill="midnightblue" stroke="midnightblue" points="111.44,-86.14 113,-75.66 105.24,-82.87 111.44,-86.14"/>
</g>
<!-- Node4 -->
<g id="node4" class="node">
<title>Node4</title>
<g id="a_node4"><a xlink:href="mxshaderprogram_8h.html" target="_top" xlink:title=" ">
<polygon fill="none" stroke="black" points="106.5,-112.5 106.5,-131.5 207.5,-131.5 207.5,-112.5 106.5,-112.5"/>
<text text-anchor="middle" x="157" y="-119.5" font-family="Helvetica,sans-Serif" font-size="10.00">mxshaderprogram.h</text>
</a>
</g>
</g>
<!-- Node2&#45;&gt;Node4 -->
<g id="edge3" class="edge">
<title>Node2&#45;&gt;Node4</title>
<path fill="none" stroke="midnightblue" d="M99.09,-168.32C109.49,-160.18 125.26,-147.84 137.72,-138.09"/>
<polygon fill="midnightblue" stroke="midnightblue" points="139.99,-140.75 145.71,-131.83 135.68,-135.24 139.99,-140.75"/>
</g>
<!-- Node4&#45;&gt;Node3 -->
<g id="edge6" class="edge">
<title>Node4&#45;&gt;Node3</title>
<path fill="none" stroke="midnightblue" d="M150.56,-112.08C145.05,-104.46 136.97,-93.26 130.24,-83.94"/>
<polygon fill="midnightblue" stroke="midnightblue" points="133.01,-81.81 124.32,-75.75 127.34,-85.91 133.01,-81.81"/>
</g>
<!-- Node4&#45;&gt;Node5 -->
<g id="edge4" class="edge">
<title>Node4&#45;&gt;Node5</title>
<path fill="none" stroke="midnightblue" d="M201.53,-112.44C255.06,-102.16 344.21,-85.02 396.4,-74.99"/>
<polygon fill="midnightblue" stroke="midnightblue" points="397.17,-78.41 406.33,-73.09 395.85,-71.54 397.17,-78.41"/>
</g>
<!-- Node6 -->
<g id="node6" class="node">
<title>Node6</title>
<g id="a_node6"><a xlink:title=" ">
<polygon fill="none" stroke="#bfbfbf" points="412,-0.5 412,-19.5 464,-19.5 464,-0.5 412,-0.5"/>
<text text-anchor="middle" x="438" y="-7.5" font-family="Helvetica,sans-Serif" font-size="10.00">QDebug</text>
</a>
</g>
</g>
<!-- Node5&#45;&gt;Node6 -->
<g id="edge5" class="edge">
<title>Node5&#45;&gt;Node6</title>
<path fill="none" stroke="midnightblue" d="M438,-56.08C438,-49.01 438,-38.86 438,-29.99"/>
<polygon fill="midnightblue" stroke="midnightblue" points="441.5,-29.75 438,-19.75 434.5,-29.75 441.5,-29.75"/>
</g>
<!-- Node8 -->
<g id="node8" class="node">
<title>Node8</title>
<g id="a_node8"><a xlink:href="mxopenglfunctions_8h.html" target="_top" xlink:title=" ">
<polygon fill="none" stroke="black" points="365.5,-336.5 365.5,-355.5 470.5,-355.5 470.5,-336.5 365.5,-336.5"/>
<text text-anchor="middle" x="418" y="-343.5" font-family="Helvetica,sans-Serif" font-size="10.00">mxopenglfunctions.h</text>
</a>
</g>
</g>
<!-- Node7&#45;&gt;Node8 -->
<g id="edge10" class="edge">
<title>Node7&#45;&gt;Node8</title>
<path fill="none" stroke="midnightblue" d="M306.07,-392.44C328.06,-383.52 362.73,-369.44 387.66,-359.32"/>
<polygon fill="midnightblue" stroke="midnightblue" points="389.08,-362.52 397.02,-355.52 386.44,-356.04 389.08,-362.52"/>
</g>
<!-- Node10 -->
<g id="node10" class="node">
<title>Node10</title>
<g id="a_node10"><a xlink:href="mxcolorwheelprogram_8h.html" target="_top" xlink:title=" ">
<polygon fill="none" stroke="black" points="244.5,-224.5 244.5,-243.5 363.5,-243.5 363.5,-224.5 244.5,-224.5"/>
<text text-anchor="middle" x="304" y="-231.5" font-family="Helvetica,sans-Serif" font-size="10.00">mxcolorwheelprogram.h</text>
</a>
</g>
</g>
<!-- Node7&#45;&gt;Node10 -->
<g id="edge12" class="edge">
<title>Node7&#45;&gt;Node10</title>
<path fill="none" stroke="midnightblue" d="M287.56,-392.46C290.14,-383.48 294.02,-368.88 296,-356 301.54,-320.06 303.24,-277.53 303.77,-253.67"/>
<polygon fill="midnightblue" stroke="midnightblue" points="307.27,-253.62 303.94,-243.56 300.27,-253.5 307.27,-253.62"/>
</g>
<!-- Node16 -->
<g id="node16" class="node">
<title>Node16</title>
<g id="a_node16"><a xlink:href="mxvectorprogram_8h.html" target="_top" xlink:title=" ">
<polygon fill="none" stroke="black" points="188.5,-336.5 188.5,-355.5 287.5,-355.5 287.5,-336.5 188.5,-336.5"/>
<text text-anchor="middle" x="238" y="-343.5" font-family="Helvetica,sans-Serif" font-size="10.00">mxvectorprogram.h</text>
</a>
</g>
</g>
<!-- Node7&#45;&gt;Node16 -->
<g id="edge23" class="edge">
<title>Node7&#45;&gt;Node16</title>
<path fill="none" stroke="midnightblue" d="M277.24,-392.08C270.46,-384.3 260.46,-372.8 252.24,-363.37"/>
<polygon fill="midnightblue" stroke="midnightblue" points="254.82,-361 245.62,-355.75 249.54,-365.59 254.82,-361"/>
</g>
<!-- Node18 -->
<g id="node18" class="node">
<title>Node18</title>
<g id="a_node18"><a xlink:href="gpubuffer_8h.html" target="_top" xlink:title=" ">
<polygon fill="none" stroke="black" points="66,-224.5 66,-243.5 130,-243.5 130,-224.5 66,-224.5"/>
<text text-anchor="middle" x="98" y="-231.5" font-family="Helvetica,sans-Serif" font-size="10.00">gpubuffer.h</text>
</a>
</g>
</g>
<!-- Node7&#45;&gt;Node18 -->
<g id="edge35" class="edge">
<title>Node7&#45;&gt;Node18</title>
<path fill="none" stroke="midnightblue" d="M252.94,-392.36C230.58,-385.21 200.94,-373.38 179,-356 143.3,-327.71 117.73,-279.3 105.71,-253.11"/>
<polygon fill="midnightblue" stroke="midnightblue" points="108.78,-251.39 101.53,-243.66 102.38,-254.22 108.78,-251.39"/>
</g>
<!-- Node19 -->
<g id="node19" class="node">
<title>Node19</title>
<g id="a_node19"><a xlink:href="mxlist_8h.html" target="_top" xlink:title=" ">
<polygon fill="none" stroke="black" points="555,-336.5 555,-355.5 605,-355.5 605,-336.5 555,-336.5"/>
<text text-anchor="middle" x="580" y="-343.5" font-family="Helvetica,sans-Serif" font-size="10.00">mxlist.h</text>
</a>
</g>
</g>
<!-- Node7&#45;&gt;Node19 -->
<g id="edge30" class="edge">
<title>Node7&#45;&gt;Node19</title>
<path fill="none" stroke="midnightblue" d="M321.17,-394.38C378.24,-383.93 488.46,-363.76 544.87,-353.43"/>
<polygon fill="midnightblue" stroke="midnightblue" points="545.55,-356.86 554.75,-351.62 544.29,-349.98 545.55,-356.86"/>
</g>
<!-- Node9 -->
<g id="node9" class="node">
<title>Node9</title>
<g id="a_node9"><a xlink:title=" ">
<polygon fill="none" stroke="#bfbfbf" points="360.5,-280.5 360.5,-299.5 485.5,-299.5 485.5,-280.5 360.5,-280.5"/>
<text text-anchor="middle" x="423" y="-287.5" font-family="Helvetica,sans-Serif" font-size="10.00">QOpenGLExtraFunctions</text>
</a>
</g>
</g>
<!-- Node8&#45;&gt;Node9 -->
<g id="edge11" class="edge">
<title>Node8&#45;&gt;Node9</title>
<path fill="none" stroke="midnightblue" d="M418.83,-336.08C419.48,-329.01 420.42,-318.86 421.24,-309.99"/>
<polygon fill="midnightblue" stroke="midnightblue" points="424.75,-310.03 422.19,-299.75 417.78,-309.39 424.75,-310.03"/>
</g>
<!-- Node10&#45;&gt;Node3 -->
<g id="edge14" class="edge">
<title>Node10&#45;&gt;Node3</title>
<path fill="none" stroke="midnightblue" d="M296.63,-224.19C289.21,-215.23 277.53,-200.86 268,-188 243.64,-155.11 247.29,-138.39 216,-112 198.61,-97.34 175.66,-86.46 156.34,-79.07"/>
<polygon fill="midnightblue" stroke="midnightblue" points="157.5,-75.77 146.9,-75.63 155.1,-82.34 157.5,-75.77"/>
</g>
<!-- Node10&#45;&gt;Node4 -->
<g id="edge15" class="edge">
<title>Node10&#45;&gt;Node4</title>
<path fill="none" stroke="midnightblue" d="M284.85,-224.41C267.61,-216.24 242,-203.01 222,-188 202.76,-173.57 183.64,-153.6 171.18,-139.61"/>
<polygon fill="midnightblue" stroke="midnightblue" points="173.55,-137.01 164.33,-131.78 168.28,-141.62 173.55,-137.01"/>
</g>
<!-- Node10&#45;&gt;Node5 -->
<g id="edge13" class="edge">
<title>Node10&#45;&gt;Node5</title>
<path fill="none" stroke="midnightblue" d="M328.28,-224.41C362.48,-210.83 423.51,-180.81 449,-132 456.68,-117.29 452.13,-98.38 446.74,-84.76"/>
<polygon fill="midnightblue" stroke="midnightblue" points="449.9,-83.25 442.64,-75.53 443.5,-86.09 449.9,-83.25"/>
</g>
<!-- Node11 -->
<g id="node11" class="node">
<title>Node11</title>
<g id="a_node11"><a xlink:href="mxmatrix_8h.html" target="_top" xlink:title=" ">
<polygon fill="none" stroke="black" points="496.5,-168.5 496.5,-187.5 559.5,-187.5 559.5,-168.5 496.5,-168.5"/>
<text text-anchor="middle" x="528" y="-175.5" font-family="Helvetica,sans-Serif" font-size="10.00">mxmatrix.h</text>
</a>
</g>
</g>
<!-- Node10&#45;&gt;Node11 -->
<g id="edge16" class="edge">
<title>Node10&#45;&gt;Node11</title>
<path fill="none" stroke="midnightblue" d="M339.49,-224.44C379.38,-214.83 444.07,-199.23 486.33,-189.05"/>
<polygon fill="midnightblue" stroke="midnightblue" points="487.39,-192.39 496.29,-186.64 485.75,-185.58 487.39,-192.39"/>
</g>
<!-- Node13 -->
<g id="node13" class="node">
<title>Node13</title>
<g id="a_node13"><a xlink:href="mxrect_8h.html" target="_top" xlink:title=" ">
<polygon fill="none" stroke="black" points="277.5,-168.5 277.5,-187.5 330.5,-187.5 330.5,-168.5 277.5,-168.5"/>
<text text-anchor="middle" x="304" y="-175.5" font-family="Helvetica,sans-Serif" font-size="10.00">mxrect.h</text>
</a>
</g>
</g>
<!-- Node10&#45;&gt;Node13 -->
<g id="edge18" class="edge">
<title>Node10&#45;&gt;Node13</title>
<path fill="none" stroke="midnightblue" d="M304,-224.08C304,-217.01 304,-206.86 304,-197.99"/>
<polygon fill="midnightblue" stroke="midnightblue" points="307.5,-197.75 304,-187.75 300.5,-197.75 307.5,-197.75"/>
</g>
<!-- Node12 -->
<g id="node12" class="node">
<title>Node12</title>
<g id="a_node12"><a xlink:title=" ">
<polygon fill="none" stroke="#bfbfbf" points="496.5,-112.5 496.5,-131.5 561.5,-131.5 561.5,-112.5 496.5,-112.5"/>
<text text-anchor="middle" x="529" y="-119.5" font-family="Helvetica,sans-Serif" font-size="10.00">QMatrix4x4</text>
</a>
</g>
</g>
<!-- Node11&#45;&gt;Node12 -->
<g id="edge17" class="edge">
<title>Node11&#45;&gt;Node12</title>
<path fill="none" stroke="midnightblue" d="M528.17,-168.08C528.3,-161.01 528.48,-150.86 528.65,-141.99"/>
<polygon fill="midnightblue" stroke="midnightblue" points="532.15,-141.81 528.84,-131.75 525.15,-141.68 532.15,-141.81"/>
</g>
<!-- Node13&#45;&gt;Node5 -->
<g id="edge19" class="edge">
<title>Node13&#45;&gt;Node5</title>
<path fill="none" stroke="midnightblue" d="M311.19,-168.37C322.33,-155.29 344.81,-130.05 367,-112 381.49,-100.21 399.23,-88.97 413.36,-80.66"/>
<polygon fill="midnightblue" stroke="midnightblue" points="415.13,-83.68 422.05,-75.66 411.63,-77.62 415.13,-83.68"/>
</g>
<!-- Node14 -->
<g id="node14" class="node">
<title>Node14</title>
<g id="a_node14"><a xlink:href="mxvector_8h.html" target="_top" xlink:title=" ">
<polygon fill="none" stroke="black" points="376,-112.5 376,-131.5 440,-131.5 440,-112.5 376,-112.5"/>
<text text-anchor="middle" x="408" y="-119.5" font-family="Helvetica,sans-Serif" font-size="10.00">mxvector.h</text>
</a>
</g>
</g>
<!-- Node13&#45;&gt;Node14 -->
<g id="edge20" class="edge">
<title>Node13&#45;&gt;Node14</title>
<path fill="none" stroke="midnightblue" d="M320.71,-168.32C337.31,-159.7 363,-146.36 382.22,-136.39"/>
<polygon fill="midnightblue" stroke="midnightblue" points="384.07,-139.37 391.33,-131.65 380.84,-133.16 384.07,-139.37"/>
</g>
<!-- Node15 -->
<g id="node15" class="node">
<title>Node15</title>
<g id="a_node15"><a xlink:title=" ">
<polygon fill="none" stroke="#bfbfbf" points="264,-112.5 264,-131.5 320,-131.5 320,-112.5 264,-112.5"/>
<text text-anchor="middle" x="292" y="-119.5" font-family="Helvetica,sans-Serif" font-size="10.00">algorithm</text>
</a>
</g>
</g>
<!-- Node13&#45;&gt;Node15 -->
<g id="edge22" class="edge">
<title>Node13&#45;&gt;Node15</title>
<path fill="none" stroke="midnightblue" d="M302.02,-168.08C300.43,-160.93 298.14,-150.64 296.15,-141.69"/>
<polygon fill="midnightblue" stroke="midnightblue" points="299.53,-140.75 293.94,-131.75 292.7,-142.27 299.53,-140.75"/>
</g>
<!-- Node14&#45;&gt;Node5 -->
<g id="edge21" class="edge">
<title>Node14&#45;&gt;Node5</title>
<path fill="none" stroke="midnightblue" d="M412.95,-112.08C417.1,-104.61 423.15,-93.72 428.27,-84.52"/>
<polygon fill="midnightblue" stroke="midnightblue" points="431.34,-86.19 433.14,-75.75 425.22,-82.79 431.34,-86.19"/>
</g>
<!-- Node16&#45;&gt;Node4 -->
<g id="edge24" class="edge">
<title>Node16&#45;&gt;Node4</title>
<path fill="none" stroke="midnightblue" d="M215.95,-336.39C200.56,-329.14 181.04,-317.18 171,-300 141.22,-249.08 148.14,-175.38 153.53,-141.41"/>
<polygon fill="midnightblue" stroke="midnightblue" points="156.99,-141.96 155.25,-131.51 150.09,-140.76 156.99,-141.96"/>
</g>
<!-- Node16&#45;&gt;Node11 -->
<g id="edge25" class="edge">
<title>Node16&#45;&gt;Node11</title>
<path fill="none" stroke="midnightblue" d="M252.98,-336.36C274.61,-323.89 315.85,-300.14 351,-280 405.72,-248.65 470.05,-211.99 504.08,-192.62"/>
<polygon fill="midnightblue" stroke="midnightblue" points="505.88,-195.62 512.84,-187.63 502.41,-189.54 505.88,-195.62"/>
</g>
<!-- Node17 -->
<g id="node17" class="node">
<title>Node17</title>
<g id="a_node17"><a xlink:href="mxvectordraw_8h.html" target="_top" xlink:title=" ">
<polygon fill="none" stroke="black" points="180.5,-280.5 180.5,-299.5 265.5,-299.5 265.5,-280.5 180.5,-280.5"/>
<text text-anchor="middle" x="223" y="-287.5" font-family="Helvetica,sans-Serif" font-size="10.00">mxvectordraw.h</text>
</a>
</g>
</g>
<!-- Node16&#45;&gt;Node17 -->
<g id="edge26" class="edge">
<title>Node16&#45;&gt;Node17</title>
<path fill="none" stroke="midnightblue" d="M235.52,-336.08C233.51,-328.85 230.61,-318.41 228.11,-309.4"/>
<polygon fill="midnightblue" stroke="midnightblue" points="231.48,-308.45 225.43,-299.75 224.74,-310.32 231.48,-308.45"/>
</g>
<!-- Node17&#45;&gt;Node13 -->
<g id="edge29" class="edge">
<title>Node17&#45;&gt;Node13</title>
<path fill="none" stroke="midnightblue" d="M222.53,-280.2C222.24,-266.9 223.42,-241.38 235,-224 244.21,-210.17 259.28,-199.63 272.98,-192.23"/>
<polygon fill="midnightblue" stroke="midnightblue" points="274.8,-195.23 282.16,-187.61 271.66,-188.98 274.8,-195.23"/>
</g>
<!-- Node17&#45;&gt;Node18 -->
<g id="edge27" class="edge">
<title>Node17&#45;&gt;Node18</title>
<path fill="none" stroke="midnightblue" d="M203.19,-280.44C182.71,-271.6 150.52,-257.69 127.14,-247.59"/>
<polygon fill="midnightblue" stroke="midnightblue" points="128.28,-244.27 117.71,-243.52 125.51,-250.7 128.28,-244.27"/>
</g>
<!-- Node18&#45;&gt;Node2 -->
<g id="edge28" class="edge">
<title>Node18&#45;&gt;Node2</title>
<path fill="none" stroke="midnightblue" d="M96.35,-224.08C95.02,-216.93 93.12,-206.64 91.46,-197.69"/>
<polygon fill="midnightblue" stroke="midnightblue" points="94.88,-196.95 89.62,-187.75 88,-198.22 94.88,-196.95"/>
</g>
<!-- Node19&#45;&gt;Node5 -->
<g id="edge31" class="edge">
<title>Node19&#45;&gt;Node5</title>
<path fill="none" stroke="midnightblue" d="M605.12,-339.84C627.58,-333.94 659.83,-322.11 679,-300 698.72,-277.26 698,-265.1 698,-235 698,-235 698,-235 698,-177 698,-83.45 553.48,-68.25 479.93,-66.57"/>
<polygon fill="midnightblue" stroke="midnightblue" points="479.67,-63.07 469.62,-66.41 479.57,-70.07 479.67,-63.07"/>
</g>
<!-- Node20 -->
<g id="node20" class="node">
<title>Node20</title>
<g id="a_node20"><a xlink:title=" ">
<polygon fill="none" stroke="#bfbfbf" points="556.5,-280.5 556.5,-299.5 603.5,-299.5 603.5,-280.5 556.5,-280.5"/>
<text text-anchor="middle" x="580" y="-287.5" font-family="Helvetica,sans-Serif" font-size="10.00">stdlib.h</text>
</a>
</g>
</g>
<!-- Node19&#45;&gt;Node20 -->
<g id="edge32" class="edge">
<title>Node19&#45;&gt;Node20</title>
<path fill="none" stroke="midnightblue" d="M580,-336.08C580,-329.01 580,-318.86 580,-309.99"/>
<polygon fill="midnightblue" stroke="midnightblue" points="583.5,-309.75 580,-299.75 576.5,-309.75 583.5,-309.75"/>
</g>
<!-- Node21 -->
<g id="node21" class="node">
<title>Node21</title>
<g id="a_node21"><a xlink:title=" ">
<polygon fill="none" stroke="#bfbfbf" points="622,-280.5 622,-299.5 670,-299.5 670,-280.5 622,-280.5"/>
<text text-anchor="middle" x="646" y="-287.5" font-family="Helvetica,sans-Serif" font-size="10.00">string.h</text>
</a>
</g>
</g>
<!-- Node19&#45;&gt;Node21 -->
<g id="edge33" class="edge">
<title>Node19&#45;&gt;Node21</title>
<path fill="none" stroke="midnightblue" d="M590.6,-336.32C600.46,-328.26 615.35,-316.08 627.22,-306.37"/>
<polygon fill="midnightblue" stroke="midnightblue" points="629.68,-308.88 635.2,-299.83 625.25,-303.46 629.68,-308.88"/>
</g>
<!-- Node22 -->
<g id="node22" class="node">
<title>Node22</title>
<g id="a_node22"><a xlink:title=" ">
<polygon fill="none" stroke="#bfbfbf" points="503.5,-280.5 503.5,-299.5 538.5,-299.5 538.5,-280.5 503.5,-280.5"/>
<text text-anchor="middle" x="521" y="-287.5" font-family="Helvetica,sans-Serif" font-size="10.00">new</text>
</a>
</g>
</g>
<!-- Node19&#45;&gt;Node22 -->
<g id="edge34" class="edge">
<title>Node19&#45;&gt;Node22</title>
<path fill="none" stroke="midnightblue" d="M570.52,-336.32C561.8,-328.34 548.66,-316.31 538.1,-306.65"/>
<polygon fill="midnightblue" stroke="midnightblue" points="540.39,-304 530.65,-299.83 535.67,-309.17 540.39,-304"/>
</g>
</g>
</svg>
