<?xml version="1.0" encoding="UTF-8" standalone="no"?>
<!DOCTYPE svg PUBLIC "-//W3C//DTD SVG 1.1//EN"
 "http://www.w3.org/Graphics/SVG/1.1/DTD/svg11.dtd">
<!-- Generated by graphviz version 2.44.0 ()
 -->
<!-- Title: src/gui/gpuvbo.h Pages: 1 -->
<svg width="2164pt" height="419pt"
 viewBox="0.00 0.00 2163.50 419.00" xmlns="http://www.w3.org/2000/svg" xmlns:xlink="http://www.w3.org/1999/xlink">
<g id="graph0" class="graph" transform="scale(1 1) rotate(0) translate(4 415)">
<title>src/gui/gpuvbo.h</title>
<!-- Node1 -->
<g id="node1" class="node">
<title>Node1</title>
<g id="a_node1"><a xlink:title=" ">
<polygon fill="#bfbfbf" stroke="black" points="1900.5,-391.5 1900.5,-410.5 1988.5,-410.5 1988.5,-391.5 1900.5,-391.5"/>
<text text-anchor="middle" x="1944.5" y="-398.5" font-family="Helvetica,sans-Serif" font-size="10.00">src/gui/gpuvbo.h</text>
</a>
</g>
</g>
<!-- Node2 -->
<g id="node2" class="node">
<title>Node2</title>
<g id="a_node2"><a xlink:href="gpubuffer_8h.html" target="_top" xlink:title=" ">
<polygon fill="none" stroke="black" points="1311.5,-335.5 1311.5,-354.5 1407.5,-354.5 1407.5,-335.5 1311.5,-335.5"/>
<text text-anchor="middle" x="1359.5" y="-342.5" font-family="Helvetica,sans-Serif" font-size="10.00">src/gui/gpubuffer.h</text>
</a>
</g>
</g>
<!-- Node1&#45;&gt;Node2 -->
<g id="edge1" class="edge">
<title>Node1&#45;&gt;Node2</title>
<path fill="none" stroke="midnightblue" d="M1889.83,-394.95C1776.04,-384.45 1515.36,-360.39 1407.54,-350.43"/>
<polygon fill="midnightblue" stroke="midnightblue" points="1889.77,-398.46 1900.05,-395.9 1890.41,-391.49 1889.77,-398.46"/>
</g>
<!-- Node14 -->
<g id="node14" class="node">
<title>Node14</title>
<g id="a_node14"><a xlink:href="gpuvbo_8cpp.html" target="_top" xlink:title=" ">
<polygon fill="none" stroke="black" points="1895.5,-73 1895.5,-92 1993.5,-92 1993.5,-73 1895.5,-73"/>
<text text-anchor="middle" x="1944.5" y="-80" font-family="Helvetica,sans-Serif" font-size="10.00">src/gui/gpuvbo.cpp</text>
</a>
</g>
</g>
<!-- Node1&#45;&gt;Node14 -->
<g id="edge39" class="edge">
<title>Node1&#45;&gt;Node14</title>
<path fill="none" stroke="midnightblue" d="M1944.5,-381.29C1944.5,-358.45 1944.5,-318.64 1944.5,-284.5 1944.5,-284.5 1944.5,-284.5 1944.5,-215.5 1944.5,-168.98 1944.5,-113.24 1944.5,-92.15"/>
<polygon fill="midnightblue" stroke="midnightblue" points="1941,-381.31 1944.5,-391.31 1948,-381.31 1941,-381.31"/>
</g>
<!-- Node16 -->
<g id="node16" class="node">
<title>Node16</title>
<g id="a_node16"><a xlink:href="mxshaderprogram_8cpp.html" target="_top" xlink:title=" ">
<polygon fill="none" stroke="black" points="2011.5,-73 2011.5,-92 2155.5,-92 2155.5,-73 2011.5,-73"/>
<text text-anchor="middle" x="2083.5" y="-80" font-family="Helvetica,sans-Serif" font-size="10.00">src/gui/mxshaderprogram.cpp</text>
</a>
</g>
</g>
<!-- Node1&#45;&gt;Node16 -->
<g id="edge40" class="edge">
<title>Node1&#45;&gt;Node16</title>
<path fill="none" stroke="midnightblue" d="M1966.07,-385.34C1992.13,-365.7 2032.5,-328.21 2032.5,-284.5 2032.5,-284.5 2032.5,-284.5 2032.5,-215.5 2032.5,-165.87 2064.25,-112.38 2077.65,-92.02"/>
<polygon fill="midnightblue" stroke="midnightblue" points="1963.9,-382.59 1957.87,-391.3 1968.01,-388.25 1963.9,-382.59"/>
</g>
<!-- Node3 -->
<g id="node3" class="node">
<title>Node3</title>
<g id="a_node3"><a xlink:href="gpubuffer_8cpp.html" target="_top" xlink:title=" ">
<polygon fill="none" stroke="black" points="1771,-73 1771,-92 1878,-92 1878,-73 1771,-73"/>
<text text-anchor="middle" x="1824.5" y="-80" font-family="Helvetica,sans-Serif" font-size="10.00">src/gui/gpubuffer.cpp</text>
</a>
</g>
</g>
<!-- Node2&#45;&gt;Node3 -->
<g id="edge2" class="edge">
<title>Node2&#45;&gt;Node3</title>
<path fill="none" stroke="midnightblue" d="M1383.68,-330.45C1466.98,-283.79 1740.62,-130.49 1808.94,-92.22"/>
<polygon fill="midnightblue" stroke="midnightblue" points="1381.72,-327.54 1374.71,-335.48 1385.14,-333.65 1381.72,-327.54"/>
</g>
<!-- Node4 -->
<g id="node4" class="node">
<title>Node4</title>
<g id="a_node4"><a xlink:href="mxrenderer_8h.html" target="_top" xlink:title=" ">
<polygon fill="none" stroke="black" points="1288,-140 1288,-159 1431,-159 1431,-140 1288,-140"/>
<text text-anchor="middle" x="1359.5" y="-147" font-family="Helvetica,sans-Serif" font-size="10.00">src/gui/renderer/mxrenderer.h</text>
</a>
</g>
</g>
<!-- Node2&#45;&gt;Node4 -->
<g id="edge3" class="edge">
<title>Node2&#45;&gt;Node4</title>
<path fill="none" stroke="midnightblue" d="M1359.5,-325.29C1359.5,-284.53 1359.5,-189.01 1359.5,-159.41"/>
<polygon fill="midnightblue" stroke="midnightblue" points="1356,-325.44 1359.5,-335.44 1363,-325.44 1356,-325.44"/>
</g>
<!-- Node20 -->
<g id="node20" class="node">
<title>Node20</title>
<g id="a_node20"><a xlink:href="mxtextdraw_8cpp.html" target="_top" xlink:title=" ">
<polygon fill="none" stroke="black" points="862.5,-274 862.5,-293 1018.5,-293 1018.5,-274 862.5,-274"/>
<text text-anchor="middle" x="940.5" y="-281" font-family="Helvetica,sans-Serif" font-size="10.00">src/gui/textdraw/mxtextdraw.cpp</text>
</a>
</g>
</g>
<!-- Node2&#45;&gt;Node20 -->
<g id="edge20" class="edge">
<title>Node2&#45;&gt;Node20</title>
<path fill="none" stroke="midnightblue" d="M1301.07,-336.63C1234.7,-328.12 1123.17,-313.45 1027.5,-299 1015.39,-297.17 1002.35,-295.07 990.15,-293.04"/>
<polygon fill="midnightblue" stroke="midnightblue" points="1300.96,-340.14 1311.33,-337.94 1301.85,-333.2 1300.96,-340.14"/>
</g>
<!-- Node21 -->
<g id="node21" class="node">
<title>Node21</title>
<g id="a_node21"><a xlink:href="mxvectordraw_8h.html" target="_top" xlink:title=" ">
<polygon fill="none" stroke="black" points="1037,-268.5 1037,-298.5 1134,-298.5 1134,-268.5 1037,-268.5"/>
<text text-anchor="start" x="1045" y="-286.5" font-family="Helvetica,sans-Serif" font-size="10.00">src/gui/vectordraw</text>
<text text-anchor="middle" x="1085.5" y="-275.5" font-family="Helvetica,sans-Serif" font-size="10.00">/mxvectordraw.h</text>
</a>
</g>
</g>
<!-- Node2&#45;&gt;Node21 -->
<g id="edge21" class="edge">
<title>Node2&#45;&gt;Node21</title>
<path fill="none" stroke="midnightblue" d="M1310.36,-333.33C1260.59,-322.52 1184.08,-305.91 1134.4,-295.12"/>
<polygon fill="midnightblue" stroke="midnightblue" points="1309.73,-336.77 1320.24,-335.48 1311.21,-329.93 1309.73,-336.77"/>
</g>
<!-- Node4&#45;&gt;Node3 -->
<g id="edge13" class="edge">
<title>Node4&#45;&gt;Node3</title>
<path fill="none" stroke="midnightblue" d="M1441.55,-140.65C1523.05,-132.28 1651.41,-117.53 1761.5,-98 1770.89,-96.33 1780.99,-94.18 1790.3,-92.04"/>
<polygon fill="midnightblue" stroke="midnightblue" points="1440.95,-137.19 1431.36,-141.69 1441.66,-144.16 1440.95,-137.19"/>
</g>
<!-- Node5 -->
<g id="node5" class="node">
<title>Node5</title>
<g id="a_node5"><a xlink:href="mxapplication_8h.html" target="_top" xlink:title=" ">
<polygon fill="none" stroke="black" points="885.5,-73 885.5,-92 1017.5,-92 1017.5,-73 885.5,-73"/>
<text text-anchor="middle" x="951.5" y="-80" font-family="Helvetica,sans-Serif" font-size="10.00">src/events/mxapplication.h</text>
</a>
</g>
</g>
<!-- Node4&#45;&gt;Node5 -->
<g id="edge4" class="edge">
<title>Node4&#45;&gt;Node5</title>
<path fill="none" stroke="midnightblue" d="M1288.21,-138.54C1220.69,-128.91 1116.52,-113.52 1026.5,-98 1015.91,-96.17 1004.52,-94.05 993.89,-92"/>
<polygon fill="midnightblue" stroke="midnightblue" points="1287.92,-142.03 1298.31,-139.98 1288.9,-135.1 1287.92,-142.03"/>
</g>
<!-- Node10 -->
<g id="node10" class="node">
<title>Node10</title>
<g id="a_node10"><a xlink:href="mxcolorwheelprogram_8cpp.html" target="_top" xlink:title=" ">
<polygon fill="none" stroke="black" points="1454.5,-67.5 1454.5,-97.5 1586.5,-97.5 1586.5,-67.5 1454.5,-67.5"/>
<text text-anchor="start" x="1462.5" y="-85.5" font-family="Helvetica,sans-Serif" font-size="10.00">src/gui/colorselector</text>
<text text-anchor="middle" x="1520.5" y="-74.5" font-family="Helvetica,sans-Serif" font-size="10.00">/mxcolorwheelprogram.cpp</text>
</a>
</g>
</g>
<!-- Node4&#45;&gt;Node10 -->
<g id="edge9" class="edge">
<title>Node4&#45;&gt;Node10</title>
<path fill="none" stroke="midnightblue" d="M1390.32,-136.06C1417.59,-125.05 1457.36,-108.99 1485.75,-97.53"/>
<polygon fill="midnightblue" stroke="midnightblue" points="1388.84,-132.88 1380.88,-139.87 1391.46,-139.37 1388.84,-132.88"/>
</g>
<!-- Node11 -->
<g id="node11" class="node">
<title>Node11</title>
<g id="a_node11"><a xlink:href="gui_2colorselector_2test__colorwheel_2testwindow_8h.html" target="_top" xlink:title=" ">
<polygon fill="none" stroke="black" points="1604.5,-67.5 1604.5,-97.5 1752.5,-97.5 1752.5,-67.5 1604.5,-67.5"/>
<text text-anchor="start" x="1612.5" y="-85.5" font-family="Helvetica,sans-Serif" font-size="10.00">src/gui/colorselector</text>
<text text-anchor="middle" x="1678.5" y="-74.5" font-family="Helvetica,sans-Serif" font-size="10.00">/test_colorwheel/testwindow.h</text>
</a>
</g>
</g>
<!-- Node4&#45;&gt;Node11 -->
<g id="edge10" class="edge">
<title>Node4&#45;&gt;Node11</title>
<path fill="none" stroke="midnightblue" d="M1411.56,-137.89C1465.49,-126.9 1550.04,-109.68 1609.5,-97.56"/>
<polygon fill="midnightblue" stroke="midnightblue" points="1410.63,-134.51 1401.53,-139.94 1412.03,-141.37 1410.63,-134.51"/>
</g>
<!-- Node4&#45;&gt;Node14 -->
<g id="edge14" class="edge">
<title>Node4&#45;&gt;Node14</title>
<path fill="none" stroke="midnightblue" d="M1441.42,-144.58C1545.66,-138.69 1731,-125.22 1887.5,-98 1896.35,-96.46 1905.85,-94.27 1914.51,-92.05"/>
<polygon fill="midnightblue" stroke="midnightblue" points="1441.07,-141.09 1431.28,-145.14 1441.45,-148.08 1441.07,-141.09"/>
</g>
<!-- Node15 -->
<g id="node15" class="node">
<title>Node15</title>
<g id="a_node15"><a xlink:href="mxpainter_8cpp.html" target="_top" xlink:title=" ">
<polygon fill="none" stroke="black" points="758,-73 758,-92 867,-92 867,-73 758,-73"/>
<text text-anchor="middle" x="812.5" y="-80" font-family="Helvetica,sans-Serif" font-size="10.00">src/gui/mxpainter.cpp</text>
</a>
</g>
</g>
<!-- Node4&#45;&gt;Node15 -->
<g id="edge15" class="edge">
<title>Node4&#45;&gt;Node15</title>
<path fill="none" stroke="midnightblue" d="M1277.82,-141.14C1160.88,-130.41 951.57,-110.38 876.5,-98 866.72,-96.39 856.2,-94.2 846.56,-92.01"/>
<polygon fill="midnightblue" stroke="midnightblue" points="1277.52,-144.63 1287.8,-142.06 1278.16,-137.66 1277.52,-144.63"/>
</g>
<!-- Node4&#45;&gt;Node16 -->
<g id="edge16" class="edge">
<title>Node4&#45;&gt;Node16</title>
<path fill="none" stroke="midnightblue" d="M1441.14,-144.68C1563.51,-138.36 1801.57,-123.81 2002.5,-98 2014.83,-96.42 2028.13,-94.23 2040.32,-92.04"/>
<polygon fill="midnightblue" stroke="midnightblue" points="1440.91,-141.18 1431.1,-145.19 1441.27,-148.17 1440.91,-141.18"/>
</g>
<!-- Node17 -->
<g id="node17" class="node">
<title>Node17</title>
<g id="a_node17"><a xlink:href="mxrenderer_8cpp.html" target="_top" xlink:title=" ">
<polygon fill="none" stroke="black" points="1283,-73 1283,-92 1436,-92 1436,-73 1283,-73"/>
<text text-anchor="middle" x="1359.5" y="-80" font-family="Helvetica,sans-Serif" font-size="10.00">src/gui/renderer/mxrenderer.cpp</text>
</a>
</g>
</g>
<!-- Node4&#45;&gt;Node17 -->
<g id="edge17" class="edge">
<title>Node4&#45;&gt;Node17</title>
<path fill="none" stroke="midnightblue" d="M1359.5,-129.54C1359.5,-117.17 1359.5,-101.62 1359.5,-92.13"/>
<polygon fill="midnightblue" stroke="midnightblue" points="1356,-129.73 1359.5,-139.73 1363,-129.73 1356,-129.73"/>
</g>
<!-- Node18 -->
<g id="node18" class="node">
<title>Node18</title>
<g id="a_node18"><a xlink:href="mxvectordraw_8cpp.html" target="_top" xlink:title=" ">
<polygon fill="none" stroke="black" points="1035.5,-67.5 1035.5,-97.5 1133.5,-97.5 1133.5,-67.5 1035.5,-67.5"/>
<text text-anchor="start" x="1043.5" y="-85.5" font-family="Helvetica,sans-Serif" font-size="10.00">src/gui/vectordraw</text>
<text text-anchor="middle" x="1084.5" y="-74.5" font-family="Helvetica,sans-Serif" font-size="10.00">/mxvectordraw.cpp</text>
</a>
</g>
</g>
<!-- Node4&#45;&gt;Node18 -->
<g id="edge18" class="edge">
<title>Node4&#45;&gt;Node18</title>
<path fill="none" stroke="midnightblue" d="M1311.98,-137.68C1267.98,-127.6 1200.76,-112.06 1142.5,-98 1139.57,-97.29 1136.57,-96.56 1133.53,-95.82"/>
<polygon fill="midnightblue" stroke="midnightblue" points="1311.29,-141.11 1321.82,-139.93 1312.85,-134.29 1311.29,-141.11"/>
</g>
<!-- Node19 -->
<g id="node19" class="node">
<title>Node19</title>
<g id="a_node19"><a xlink:href="mxvectorprogram_8cpp.html" target="_top" xlink:title=" ">
<polygon fill="none" stroke="black" points="1152,-67.5 1152,-97.5 1265,-97.5 1265,-67.5 1152,-67.5"/>
<text text-anchor="start" x="1160" y="-85.5" font-family="Helvetica,sans-Serif" font-size="10.00">src/gui/vectordraw</text>
<text text-anchor="middle" x="1208.5" y="-74.5" font-family="Helvetica,sans-Serif" font-size="10.00">/mxvectorprogram.cpp</text>
</a>
</g>
</g>
<!-- Node4&#45;&gt;Node19 -->
<g id="edge19" class="edge">
<title>Node4&#45;&gt;Node19</title>
<path fill="none" stroke="midnightblue" d="M1330.26,-135.91C1304.69,-124.91 1267.6,-108.94 1241.09,-97.53"/>
<polygon fill="midnightblue" stroke="midnightblue" points="1328.88,-139.13 1339.45,-139.87 1331.65,-132.7 1328.88,-139.13"/>
</g>
<!-- Node6 -->
<g id="node6" class="node">
<title>Node6</title>
<g id="a_node6"><a xlink:href="mxapplication_8cpp.html" target="_top" xlink:title=" ">
<polygon fill="none" stroke="black" points="665,-6 665,-25 808,-25 808,-6 665,-6"/>
<text text-anchor="middle" x="736.5" y="-13" font-family="Helvetica,sans-Serif" font-size="10.00">src/events/mxapplication.cpp</text>
</a>
</g>
</g>
<!-- Node5&#45;&gt;Node6 -->
<g id="edge5" class="edge">
<title>Node5&#45;&gt;Node6</title>
<path fill="none" stroke="midnightblue" d="M913.23,-69.93C870.66,-57.06 802.89,-36.57 764.83,-25.06"/>
<polygon fill="midnightblue" stroke="midnightblue" points="912.36,-73.32 922.95,-72.87 914.39,-66.62 912.36,-73.32"/>
</g>
<!-- Node7 -->
<g id="node7" class="node">
<title>Node7</title>
<g id="a_node7"><a xlink:href="qmewawindow_8cpp.html" target="_top" xlink:title=" ">
<polygon fill="none" stroke="black" points="826.5,-0.5 826.5,-30.5 942.5,-30.5 942.5,-0.5 826.5,-0.5"/>
<text text-anchor="start" x="834.5" y="-18.5" font-family="Helvetica,sans-Serif" font-size="10.00">src/platformabstraction</text>
<text text-anchor="middle" x="884.5" y="-7.5" font-family="Helvetica,sans-Serif" font-size="10.00">/qt/qmewawindow.cpp</text>
</a>
</g>
</g>
<!-- Node5&#45;&gt;Node7 -->
<g id="edge6" class="edge">
<title>Node5&#45;&gt;Node7</title>
<path fill="none" stroke="midnightblue" d="M935.13,-65.62C924.09,-54.91 909.65,-40.9 899.02,-30.59"/>
<polygon fill="midnightblue" stroke="midnightblue" points="932.85,-68.28 942.46,-72.73 937.72,-63.26 932.85,-68.28"/>
</g>
<!-- Node8 -->
<g id="node8" class="node">
<title>Node8</title>
<g id="a_node8"><a xlink:href="storewindow_2test__storebuttons_2main_8cpp.html" target="_top" xlink:title=" ">
<polygon fill="none" stroke="black" points="960.5,-0.5 960.5,-30.5 1078.5,-30.5 1078.5,-0.5 960.5,-0.5"/>
<text text-anchor="start" x="968.5" y="-18.5" font-family="Helvetica,sans-Serif" font-size="10.00">src/storewindow/test</text>
<text text-anchor="middle" x="1019.5" y="-7.5" font-family="Helvetica,sans-Serif" font-size="10.00">_storebuttons/main.cpp</text>
</a>
</g>
</g>
<!-- Node5&#45;&gt;Node8 -->
<g id="edge7" class="edge">
<title>Node5&#45;&gt;Node8</title>
<path fill="none" stroke="midnightblue" d="M968.12,-65.62C979.32,-54.91 993.97,-40.9 1004.76,-30.59"/>
<polygon fill="midnightblue" stroke="midnightblue" points="965.48,-63.29 960.67,-72.73 970.32,-68.35 965.48,-63.29"/>
</g>
<!-- Node9 -->
<g id="node9" class="node">
<title>Node9</title>
<g id="a_node9"><a xlink:href="storewindow_2test__storebuttons_2testwindow_8cpp.html" target="_top" xlink:title=" ">
<polygon fill="none" stroke="black" points="1096.5,-0.5 1096.5,-30.5 1242.5,-30.5 1242.5,-0.5 1096.5,-0.5"/>
<text text-anchor="start" x="1104.5" y="-18.5" font-family="Helvetica,sans-Serif" font-size="10.00">src/storewindow/test</text>
<text text-anchor="middle" x="1169.5" y="-7.5" font-family="Helvetica,sans-Serif" font-size="10.00">_storebuttons/testwindow.cpp</text>
</a>
</g>
</g>
<!-- Node5&#45;&gt;Node9 -->
<g id="edge8" class="edge">
<title>Node5&#45;&gt;Node9</title>
<path fill="none" stroke="midnightblue" d="M990.35,-69.92C1027.31,-58.9 1082.99,-42.29 1122.45,-30.53"/>
<polygon fill="midnightblue" stroke="midnightblue" points="989.03,-66.66 980.45,-72.87 991.03,-73.37 989.03,-66.66"/>
</g>
<!-- Node12 -->
<g id="node12" class="node">
<title>Node12</title>
<g id="a_node12"><a xlink:href="gui_2colorselector_2test__colorwheel_2main_8cpp.html" target="_top" xlink:title=" ">
<polygon fill="none" stroke="black" points="1532.5,-0.5 1532.5,-30.5 1662.5,-30.5 1662.5,-0.5 1532.5,-0.5"/>
<text text-anchor="start" x="1540.5" y="-18.5" font-family="Helvetica,sans-Serif" font-size="10.00">src/gui/colorselector</text>
<text text-anchor="middle" x="1597.5" y="-7.5" font-family="Helvetica,sans-Serif" font-size="10.00">/test_colorwheel/main.cpp</text>
</a>
</g>
</g>
<!-- Node11&#45;&gt;Node12 -->
<g id="edge11" class="edge">
<title>Node11&#45;&gt;Node12</title>
<path fill="none" stroke="midnightblue" d="M1652.81,-60.88C1640.5,-51.01 1626.07,-39.43 1615.04,-30.58"/>
<polygon fill="midnightblue" stroke="midnightblue" points="1650.93,-63.87 1660.92,-67.4 1655.32,-58.41 1650.93,-63.87"/>
</g>
<!-- Node13 -->
<g id="node13" class="node">
<title>Node13</title>
<g id="a_node13"><a xlink:href="gui_2colorselector_2test__colorwheel_2testwindow_8cpp.html" target="_top" xlink:title=" ">
<polygon fill="none" stroke="black" points="1680.5,-0.5 1680.5,-30.5 1838.5,-30.5 1838.5,-0.5 1680.5,-0.5"/>
<text text-anchor="start" x="1688.5" y="-18.5" font-family="Helvetica,sans-Serif" font-size="10.00">src/gui/colorselector</text>
<text text-anchor="middle" x="1759.5" y="-7.5" font-family="Helvetica,sans-Serif" font-size="10.00">/test_colorwheel/testwindow.cpp</text>
</a>
</g>
</g>
<!-- Node11&#45;&gt;Node13 -->
<g id="edge12" class="edge">
<title>Node11&#45;&gt;Node13</title>
<path fill="none" stroke="midnightblue" d="M1704.19,-60.88C1716.5,-51.01 1730.93,-39.43 1741.96,-30.58"/>
<polygon fill="midnightblue" stroke="midnightblue" points="1701.68,-58.41 1696.08,-67.4 1706.07,-63.87 1701.68,-58.41"/>
</g>
<!-- Node21&#45;&gt;Node18 -->
<g id="edge34" class="edge">
<title>Node21&#45;&gt;Node18</title>
<path fill="none" stroke="midnightblue" d="M1112.37,-262C1146.46,-233.37 1197.86,-179.77 1171.5,-134 1161.83,-117.2 1144.19,-105.48 1127.31,-97.58"/>
<polygon fill="midnightblue" stroke="midnightblue" points="1110.08,-259.35 1104.55,-268.39 1114.51,-264.77 1110.08,-259.35"/>
</g>
<!-- Node22 -->
<g id="node22" class="node">
<title>Node22</title>
<g id="a_node22"><a xlink:href="mxpainter_8h.html" target="_top" xlink:title=" ">
<polygon fill="none" stroke="black" points="930.5,-207 930.5,-226 1028.5,-226 1028.5,-207 930.5,-207"/>
<text text-anchor="middle" x="979.5" y="-214" font-family="Helvetica,sans-Serif" font-size="10.00">src/gui/mxpainter.h</text>
</a>
</g>
</g>
<!-- Node21&#45;&gt;Node22 -->
<g id="edge22" class="edge">
<title>Node21&#45;&gt;Node22</title>
<path fill="none" stroke="midnightblue" d="M1053.93,-263.14C1033.78,-250.79 1008.67,-235.39 993.37,-226.01"/>
<polygon fill="midnightblue" stroke="midnightblue" points="1052.15,-266.15 1062.5,-268.4 1055.8,-260.18 1052.15,-266.15"/>
</g>
<!-- Node23 -->
<g id="node23" class="node">
<title>Node23</title>
<g id="a_node23"><a xlink:href="mxstoreview_8cpp.html" target="_top" xlink:title=" ">
<polygon fill="none" stroke="black" points="749.5,-140 749.5,-159 913.5,-159 913.5,-140 749.5,-140"/>
<text text-anchor="middle" x="831.5" y="-147" font-family="Helvetica,sans-Serif" font-size="10.00">src/storewindow/mxstoreview.cpp</text>
</a>
</g>
</g>
<!-- Node21&#45;&gt;Node23 -->
<g id="edge38" class="edge">
<title>Node21&#45;&gt;Node23</title>
<path fill="none" stroke="midnightblue" d="M1027.04,-267.38C987.68,-256.66 939.76,-242.39 921.5,-232 886.14,-211.88 852.94,-175.78 838.74,-159.22"/>
<polygon fill="midnightblue" stroke="midnightblue" points="1026.27,-270.8 1036.84,-270.03 1028.1,-264.04 1026.27,-270.8"/>
</g>
<!-- Node25 -->
<g id="node25" class="node">
<title>Node25</title>
<g id="a_node25"><a xlink:href="mxsvgpainter_8cpp.html" target="_top" xlink:title=" ">
<polygon fill="none" stroke="black" points="0,-140 0,-159 143,-159 143,-140 0,-140"/>
<text text-anchor="middle" x="71.5" y="-147" font-family="Helvetica,sans-Serif" font-size="10.00">src/gui/svg/mxsvgpainter.cpp</text>
</a>
</g>
</g>
<!-- Node21&#45;&gt;Node25 -->
<g id="edge27" class="edge">
<title>Node21&#45;&gt;Node25</title>
<path fill="none" stroke="midnightblue" d="M1026.83,-268.12C768.26,-229.24 697.21,-267.6 442.5,-232 314.82,-214.16 165.78,-176.04 102.47,-159.01"/>
<polygon fill="midnightblue" stroke="midnightblue" points="1026.48,-271.61 1036.9,-269.66 1027.54,-264.69 1026.48,-271.61"/>
</g>
<!-- Node26 -->
<g id="node26" class="node">
<title>Node26</title>
<g id="a_node26"><a xlink:href="mxsvgpainter_8h.html" target="_top" xlink:title=" ">
<polygon fill="none" stroke="black" points="452,-207 452,-226 585,-226 585,-207 452,-207"/>
<text text-anchor="middle" x="518.5" y="-214" font-family="Helvetica,sans-Serif" font-size="10.00">src/gui/svg/mxsvgpainter.h</text>
</a>
</g>
</g>
<!-- Node21&#45;&gt;Node26 -->
<g id="edge28" class="edge">
<title>Node21&#45;&gt;Node26</title>
<path fill="none" stroke="midnightblue" d="M1026.6,-268.02C862.59,-240.13 680.87,-226.71 585.21,-221"/>
<polygon fill="midnightblue" stroke="midnightblue" points="1026.43,-271.55 1036.88,-269.8 1027.62,-264.65 1026.43,-271.55"/>
</g>
<!-- Node30 -->
<g id="node30" class="node">
<title>Node30</title>
<g id="a_node30"><a xlink:href="mxvectorprogram_8h.html" target="_top" xlink:title=" ">
<polygon fill="none" stroke="black" points="1219.5,-201.5 1219.5,-231.5 1321.5,-231.5 1321.5,-201.5 1219.5,-201.5"/>
<text text-anchor="start" x="1227.5" y="-219.5" font-family="Helvetica,sans-Serif" font-size="10.00">src/gui/vectordraw</text>
<text text-anchor="middle" x="1270.5" y="-208.5" font-family="Helvetica,sans-Serif" font-size="10.00">/mxvectorprogram.h</text>
</a>
</g>
</g>
<!-- Node21&#45;&gt;Node30 -->
<g id="edge35" class="edge">
<title>Node21&#45;&gt;Node30</title>
<path fill="none" stroke="midnightblue" d="M1135.44,-264.96C1165.24,-254.48 1202.57,-241.37 1230.44,-231.58"/>
<polygon fill="midnightblue" stroke="midnightblue" points="1133.92,-261.78 1125.64,-268.4 1136.24,-268.38 1133.92,-261.78"/>
</g>
<!-- Node22&#45;&gt;Node5 -->
<g id="edge23" class="edge">
<title>Node22&#45;&gt;Node5</title>
<path fill="none" stroke="midnightblue" d="M975.53,-196.78C969.37,-167.75 957.77,-113.04 953.31,-92.02"/>
<polygon fill="midnightblue" stroke="midnightblue" points="972.16,-197.78 977.66,-206.84 979.01,-196.33 972.16,-197.78"/>
</g>
<!-- Node22&#45;&gt;Node15 -->
<g id="edge24" class="edge">
<title>Node22&#45;&gt;Node15</title>
<path fill="none" stroke="midnightblue" d="M970.77,-197.85C961.1,-179.8 943.98,-151.92 922.5,-134 898.46,-113.94 865.14,-100.12 841.49,-92.08"/>
<polygon fill="midnightblue" stroke="midnightblue" points="967.67,-199.47 975.37,-206.75 973.89,-196.26 967.67,-199.47"/>
</g>
<!-- Node22&#45;&gt;Node23 -->
<g id="edge25" class="edge">
<title>Node22&#45;&gt;Node23</title>
<path fill="none" stroke="midnightblue" d="M950.54,-202.78C921.23,-189.91 876.71,-170.35 851.23,-159.17"/>
<polygon fill="midnightblue" stroke="midnightblue" points="949.28,-206.05 959.85,-206.87 952.1,-199.64 949.28,-206.05"/>
</g>
<!-- Node24 -->
<g id="node24" class="node">
<title>Node24</title>
<g id="a_node24"><a xlink:href="teststoreview_8cpp.html" target="_top" xlink:title=" ">
<polygon fill="none" stroke="black" points="1008,-134.5 1008,-164.5 1163,-164.5 1163,-134.5 1008,-134.5"/>
<text text-anchor="start" x="1016" y="-152.5" font-family="Helvetica,sans-Serif" font-size="10.00">src/storewindow/test</text>
<text text-anchor="middle" x="1085.5" y="-141.5" font-family="Helvetica,sans-Serif" font-size="10.00">_storebuttons/teststoreview.cpp</text>
</a>
</g>
</g>
<!-- Node22&#45;&gt;Node24 -->
<g id="edge26" class="edge">
<title>Node22&#45;&gt;Node24</title>
<path fill="none" stroke="midnightblue" d="M1002.41,-201.45C1020.19,-190.55 1044.73,-175.5 1062.52,-164.59"/>
<polygon fill="midnightblue" stroke="midnightblue" points="1000.49,-198.52 993.8,-206.73 1004.15,-204.49 1000.49,-198.52"/>
</g>
<!-- Node26&#45;&gt;Node15 -->
<g id="edge29" class="edge">
<title>Node26&#45;&gt;Node15</title>
<path fill="none" stroke="midnightblue" d="M581.87,-204.9C618.51,-197.14 664.69,-184.5 702.5,-165 721.87,-155.01 723.12,-147.16 740.5,-134 760.71,-118.7 784.98,-102.01 799.55,-92.16"/>
<polygon fill="midnightblue" stroke="midnightblue" points="580.9,-201.53 571.81,-206.96 582.3,-208.39 580.9,-201.53"/>
</g>
<!-- Node26&#45;&gt;Node25 -->
<g id="edge30" class="edge">
<title>Node26&#45;&gt;Node25</title>
<path fill="none" stroke="midnightblue" d="M441.53,-205.88C367.17,-196.35 251.44,-180.93 151.5,-165 140.21,-163.2 128.05,-161.09 116.71,-159.04"/>
<polygon fill="midnightblue" stroke="midnightblue" points="441.38,-209.39 451.74,-207.18 442.26,-202.44 441.38,-209.39"/>
</g>
<!-- Node27 -->
<g id="node27" class="node">
<title>Node27</title>
<g id="a_node27"><a xlink:href="downarrowsvg_8cpp.html" target="_top" xlink:title=" ">
<polygon fill="none" stroke="black" points="161,-140 161,-159 336,-159 336,-140 161,-140"/>
<text text-anchor="middle" x="248.5" y="-147" font-family="Helvetica,sans-Serif" font-size="10.00">src/svg&#45;drawings/downarrowsvg.cpp</text>
</a>
</g>
</g>
<!-- Node26&#45;&gt;Node27 -->
<g id="edge31" class="edge">
<title>Node26&#45;&gt;Node27</title>
<path fill="none" stroke="midnightblue" d="M473.07,-204.56C419.85,-191.75 332.76,-170.78 284.15,-159.08"/>
<polygon fill="midnightblue" stroke="midnightblue" points="472.38,-208 482.92,-206.94 474.02,-201.19 472.38,-208"/>
</g>
<!-- Node28 -->
<g id="node28" class="node">
<title>Node28</title>
<g id="a_node28"><a xlink:href="heartsvg_8cpp.html" target="_top" xlink:title=" ">
<polygon fill="none" stroke="black" points="354,-140 354,-159 503,-159 503,-140 354,-140"/>
<text text-anchor="middle" x="428.5" y="-147" font-family="Helvetica,sans-Serif" font-size="10.00">src/svg&#45;drawings/heartsvg.cpp</text>
</a>
</g>
</g>
<!-- Node26&#45;&gt;Node28 -->
<g id="edge32" class="edge">
<title>Node26&#45;&gt;Node28</title>
<path fill="none" stroke="midnightblue" d="M497.82,-200.57C480.06,-187.74 455.06,-169.69 440.45,-159.13"/>
<polygon fill="midnightblue" stroke="midnightblue" points="496.21,-203.72 506.36,-206.73 500.3,-198.04 496.21,-203.72"/>
</g>
<!-- Node29 -->
<g id="node29" class="node">
<title>Node29</title>
<g id="a_node29"><a xlink:href="plusminussvg_8cpp.html" target="_top" xlink:title=" ">
<polygon fill="none" stroke="black" points="521.5,-140 521.5,-159 693.5,-159 693.5,-140 521.5,-140"/>
<text text-anchor="middle" x="607.5" y="-147" font-family="Helvetica,sans-Serif" font-size="10.00">src/svg&#45;drawings/plusminussvg.cpp</text>
</a>
</g>
</g>
<!-- Node26&#45;&gt;Node29 -->
<g id="edge33" class="edge">
<title>Node26&#45;&gt;Node29</title>
<path fill="none" stroke="midnightblue" d="M538.95,-200.57C556.51,-187.74 581.23,-169.69 595.69,-159.13"/>
<polygon fill="midnightblue" stroke="midnightblue" points="536.51,-198.01 530.5,-206.73 540.64,-203.66 536.51,-198.01"/>
</g>
<!-- Node30&#45;&gt;Node4 -->
<g id="edge36" class="edge">
<title>Node30&#45;&gt;Node4</title>
<path fill="none" stroke="midnightblue" d="M1298.15,-195.31C1314.86,-183.1 1335.3,-168.18 1347.85,-159.01"/>
<polygon fill="midnightblue" stroke="midnightblue" points="1295.82,-192.67 1289.81,-201.4 1299.95,-198.32 1295.82,-192.67"/>
</g>
<!-- Node30&#45;&gt;Node19 -->
<g id="edge37" class="edge">
<title>Node30&#45;&gt;Node19</title>
<path fill="none" stroke="midnightblue" d="M1259.52,-192.12C1246.63,-164.68 1225.68,-120.09 1215.09,-97.52"/>
<polygon fill="midnightblue" stroke="midnightblue" points="1256.45,-193.81 1263.86,-201.37 1262.78,-190.83 1256.45,-193.81"/>
</g>
</g>
</svg>
