<?xml version="1.0" encoding="UTF-8" standalone="no"?>
<!DOCTYPE svg PUBLIC "-//W3C//DTD SVG 1.1//EN"
 "http://www.w3.org/Graphics/SVG/1.1/DTD/svg11.dtd">
<!-- Generated by graphviz version 2.44.0 ()
 -->
<!-- Title: src/gui/gpuvbo.h Pages: 1 -->
<svg width="1713pt" height="408pt"
 viewBox="0.00 0.00 1712.50 408.00" xmlns="http://www.w3.org/2000/svg" xmlns:xlink="http://www.w3.org/1999/xlink">
<g id="graph0" class="graph" transform="scale(1 1) rotate(0) translate(4 404)">
<title>src/gui/gpuvbo.h</title>
<!-- Node1 -->
<g id="node1" class="node">
<title>Node1</title>
<g id="a_node1"><a xlink:title=" ">
<polygon fill="#bfbfbf" stroke="black" points="1449.5,-380.5 1449.5,-399.5 1537.5,-399.5 1537.5,-380.5 1449.5,-380.5"/>
<text text-anchor="middle" x="1493.5" y="-387.5" font-family="Helvetica,sans-Serif" font-size="10.00">src/gui/gpuvbo.h</text>
</a>
</g>
</g>
<!-- Node2 -->
<g id="node2" class="node">
<title>Node2</title>
<g id="a_node2"><a xlink:href="gpubuffer_8h.html" target="_top" xlink:title=" ">
<polygon fill="none" stroke="black" points="1001.5,-324.5 1001.5,-343.5 1097.5,-343.5 1097.5,-324.5 1001.5,-324.5"/>
<text text-anchor="middle" x="1049.5" y="-331.5" font-family="Helvetica,sans-Serif" font-size="10.00">src/gui/gpubuffer.h</text>
</a>
</g>
</g>
<!-- Node1&#45;&gt;Node2 -->
<g id="edge1" class="edge">
<title>Node1&#45;&gt;Node2</title>
<path fill="none" stroke="midnightblue" d="M1439.32,-382.41C1351.84,-371.77 1180.9,-350.98 1097.53,-340.84"/>
<polygon fill="midnightblue" stroke="midnightblue" points="1438.95,-385.89 1449.3,-383.62 1439.8,-378.94 1438.95,-385.89"/>
</g>
<!-- Node9 -->
<g id="node9" class="node">
<title>Node9</title>
<g id="a_node9"><a xlink:href="gpuvbo_8cpp.html" target="_top" xlink:title=" ">
<polygon fill="none" stroke="black" points="1444.5,-73 1444.5,-92 1542.5,-92 1542.5,-73 1444.5,-73"/>
<text text-anchor="middle" x="1493.5" y="-80" font-family="Helvetica,sans-Serif" font-size="10.00">src/gui/gpuvbo.cpp</text>
</a>
</g>
</g>
<!-- Node1&#45;&gt;Node9 -->
<g id="edge31" class="edge">
<title>Node1&#45;&gt;Node9</title>
<path fill="none" stroke="midnightblue" d="M1493.5,-370.29C1493.5,-347.45 1493.5,-307.64 1493.5,-273.5 1493.5,-273.5 1493.5,-273.5 1493.5,-204.5 1493.5,-162.28 1493.5,-111.76 1493.5,-92.01"/>
<polygon fill="midnightblue" stroke="midnightblue" points="1490,-370.31 1493.5,-380.31 1497,-370.31 1490,-370.31"/>
</g>
<!-- Node11 -->
<g id="node11" class="node">
<title>Node11</title>
<g id="a_node11"><a xlink:href="mxshaderprogram_8cpp.html" target="_top" xlink:title=" ">
<polygon fill="none" stroke="black" points="1560.5,-73 1560.5,-92 1704.5,-92 1704.5,-73 1560.5,-73"/>
<text text-anchor="middle" x="1632.5" y="-80" font-family="Helvetica,sans-Serif" font-size="10.00">src/gui/mxshaderprogram.cpp</text>
</a>
</g>
</g>
<!-- Node1&#45;&gt;Node11 -->
<g id="edge32" class="edge">
<title>Node1&#45;&gt;Node11</title>
<path fill="none" stroke="midnightblue" d="M1515.07,-374.34C1541.13,-354.7 1581.5,-317.21 1581.5,-273.5 1581.5,-273.5 1581.5,-273.5 1581.5,-204.5 1581.5,-159.13 1612.32,-111.18 1626.04,-92.08"/>
<polygon fill="midnightblue" stroke="midnightblue" points="1512.9,-371.59 1506.87,-380.3 1517.01,-377.25 1512.9,-371.59"/>
</g>
<!-- Node3 -->
<g id="node3" class="node">
<title>Node3</title>
<g id="a_node3"><a xlink:href="gpubuffer_8cpp.html" target="_top" xlink:title=" ">
<polygon fill="none" stroke="black" points="1320,-73 1320,-92 1427,-92 1427,-73 1320,-73"/>
<text text-anchor="middle" x="1373.5" y="-80" font-family="Helvetica,sans-Serif" font-size="10.00">src/gui/gpubuffer.cpp</text>
</a>
</g>
</g>
<!-- Node2&#45;&gt;Node3 -->
<g id="edge2" class="edge">
<title>Node2&#45;&gt;Node3</title>
<path fill="none" stroke="midnightblue" d="M1068.64,-318.26C1129.12,-271.69 1314.97,-128.57 1362.39,-92.05"/>
<polygon fill="midnightblue" stroke="midnightblue" points="1066.44,-315.54 1060.65,-324.41 1070.71,-321.08 1066.44,-315.54"/>
</g>
<!-- Node4 -->
<g id="node4" class="node">
<title>Node4</title>
<g id="a_node4"><a xlink:href="mxrenderer_8h.html" target="_top" xlink:title=" ">
<polygon fill="none" stroke="black" points="978,-134.5 978,-153.5 1121,-153.5 1121,-134.5 978,-134.5"/>
<text text-anchor="middle" x="1049.5" y="-141.5" font-family="Helvetica,sans-Serif" font-size="10.00">src/gui/renderer/mxrenderer.h</text>
</a>
</g>
</g>
<!-- Node2&#45;&gt;Node4 -->
<g id="edge3" class="edge">
<title>Node2&#45;&gt;Node4</title>
<path fill="none" stroke="midnightblue" d="M1049.5,-314.24C1049.5,-274.31 1049.5,-182.2 1049.5,-153.62"/>
<polygon fill="midnightblue" stroke="midnightblue" points="1046,-314.43 1049.5,-324.43 1053,-314.43 1046,-314.43"/>
</g>
<!-- Node15 -->
<g id="node15" class="node">
<title>Node15</title>
<g id="a_node15"><a xlink:href="mxtextdraw_8cpp.html" target="_top" xlink:title=" ">
<polygon fill="none" stroke="black" points="653.5,-263 653.5,-282 809.5,-282 809.5,-263 653.5,-263"/>
<text text-anchor="middle" x="731.5" y="-270" font-family="Helvetica,sans-Serif" font-size="10.00">src/gui/textdraw/mxtextdraw.cpp</text>
</a>
</g>
</g>
<!-- Node2&#45;&gt;Node15 -->
<g id="edge15" class="edge">
<title>Node2&#45;&gt;Node15</title>
<path fill="none" stroke="midnightblue" d="M994.01,-322.62C932.42,-311.09 834.2,-292.72 776.98,-282.01"/>
<polygon fill="midnightblue" stroke="midnightblue" points="993.47,-326.08 1003.94,-324.48 994.75,-319.2 993.47,-326.08"/>
</g>
<!-- Node16 -->
<g id="node16" class="node">
<title>Node16</title>
<g id="a_node16"><a xlink:href="mxvectordraw_8h.html" target="_top" xlink:title=" ">
<polygon fill="none" stroke="black" points="828,-257.5 828,-287.5 925,-287.5 925,-257.5 828,-257.5"/>
<text text-anchor="start" x="836" y="-275.5" font-family="Helvetica,sans-Serif" font-size="10.00">src/gui/vectordraw</text>
<text text-anchor="middle" x="876.5" y="-264.5" font-family="Helvetica,sans-Serif" font-size="10.00">/mxvectordraw.h</text>
</a>
</g>
</g>
<!-- Node2&#45;&gt;Node16 -->
<g id="edge16" class="edge">
<title>Node2&#45;&gt;Node16</title>
<path fill="none" stroke="midnightblue" d="M1014.91,-321.1C986.76,-311.42 946.97,-297.74 917.27,-287.52"/>
<polygon fill="midnightblue" stroke="midnightblue" points="1014.12,-324.53 1024.71,-324.48 1016.4,-317.91 1014.12,-324.53"/>
</g>
<!-- Node4&#45;&gt;Node3 -->
<g id="edge8" class="edge">
<title>Node4&#45;&gt;Node3</title>
<path fill="none" stroke="midnightblue" d="M1114.08,-132.89C1167.01,-124.36 1243.8,-111.41 1310.5,-98 1319.41,-96.21 1328.99,-94.1 1337.92,-92.05"/>
<polygon fill="midnightblue" stroke="midnightblue" points="1113.47,-129.44 1104.15,-134.48 1114.58,-136.35 1113.47,-129.44"/>
</g>
<!-- Node5 -->
<g id="node5" class="node">
<title>Node5</title>
<g id="a_node5"><a xlink:href="mxapplication_8h.html" target="_top" xlink:title=" ">
<polygon fill="none" stroke="black" points="600.5,-73 600.5,-92 732.5,-92 732.5,-73 600.5,-73"/>
<text text-anchor="middle" x="666.5" y="-80" font-family="Helvetica,sans-Serif" font-size="10.00">src/events/mxapplication.h</text>
</a>
</g>
</g>
<!-- Node4&#45;&gt;Node5 -->
<g id="edge4" class="edge">
<title>Node4&#45;&gt;Node5</title>
<path fill="none" stroke="midnightblue" d="M974.91,-133.08C912.44,-124.53 820.99,-111.48 741.5,-98 730.91,-96.2 719.51,-94.09 708.88,-92.05"/>
<polygon fill="midnightblue" stroke="midnightblue" points="974.68,-136.58 985.06,-134.46 975.63,-129.64 974.68,-136.58"/>
</g>
<!-- Node8 -->
<g id="node8" class="node">
<title>Node8</title>
<g id="a_node8"><a xlink:href="mxcolorwheelprogram_8cpp.html" target="_top" xlink:title=" ">
<polygon fill="none" stroke="black" points="998.5,-67.5 998.5,-97.5 1130.5,-97.5 1130.5,-67.5 998.5,-67.5"/>
<text text-anchor="start" x="1006.5" y="-85.5" font-family="Helvetica,sans-Serif" font-size="10.00">src/gui/colorselector</text>
<text text-anchor="middle" x="1064.5" y="-74.5" font-family="Helvetica,sans-Serif" font-size="10.00">/mxcolorwheelprogram.cpp</text>
</a>
</g>
</g>
<!-- Node4&#45;&gt;Node8 -->
<g id="edge7" class="edge">
<title>Node4&#45;&gt;Node8</title>
<path fill="none" stroke="midnightblue" d="M1054.16,-124.53C1056.35,-115.81 1058.93,-105.59 1060.96,-97.52"/>
<polygon fill="midnightblue" stroke="midnightblue" points="1050.7,-123.92 1051.65,-134.48 1057.49,-125.63 1050.7,-123.92"/>
</g>
<!-- Node4&#45;&gt;Node9 -->
<g id="edge9" class="edge">
<title>Node4&#45;&gt;Node9</title>
<path fill="none" stroke="midnightblue" d="M1131.58,-136.65C1210.24,-129.82 1332.1,-117.26 1436.5,-98 1445.24,-96.39 1454.62,-94.2 1463.2,-92.01"/>
<polygon fill="midnightblue" stroke="midnightblue" points="1130.92,-133.2 1121.25,-137.54 1131.52,-140.17 1130.92,-133.2"/>
</g>
<!-- Node10 -->
<g id="node10" class="node">
<title>Node10</title>
<g id="a_node10"><a xlink:href="mxpainter_8cpp.html" target="_top" xlink:title=" ">
<polygon fill="none" stroke="black" points="473,-73 473,-92 582,-92 582,-73 473,-73"/>
<text text-anchor="middle" x="527.5" y="-80" font-family="Helvetica,sans-Serif" font-size="10.00">src/gui/mxpainter.cpp</text>
</a>
</g>
</g>
<!-- Node4&#45;&gt;Node10 -->
<g id="edge10" class="edge">
<title>Node4&#45;&gt;Node10</title>
<path fill="none" stroke="midnightblue" d="M967.67,-138.05C875.74,-131.78 722.26,-119.15 591.5,-98 581.72,-96.42 571.19,-94.24 561.56,-92.04"/>
<polygon fill="midnightblue" stroke="midnightblue" points="967.53,-141.55 977.74,-138.73 968,-134.57 967.53,-141.55"/>
</g>
<!-- Node4&#45;&gt;Node11 -->
<g id="edge11" class="edge">
<title>Node4&#45;&gt;Node11</title>
<path fill="none" stroke="midnightblue" d="M1131.2,-137.89C1230.75,-131.15 1403.93,-117.78 1551.5,-98 1563.68,-96.37 1576.81,-94.2 1588.89,-92.03"/>
<polygon fill="midnightblue" stroke="midnightblue" points="1130.96,-134.4 1121.21,-138.56 1131.42,-141.38 1130.96,-134.4"/>
</g>
<!-- Node12 -->
<g id="node12" class="node">
<title>Node12</title>
<g id="a_node12"><a xlink:href="mxrenderer_8cpp.html" target="_top" xlink:title=" ">
<polygon fill="none" stroke="black" points="1149,-73 1149,-92 1302,-92 1302,-73 1149,-73"/>
<text text-anchor="middle" x="1225.5" y="-80" font-family="Helvetica,sans-Serif" font-size="10.00">src/gui/renderer/mxrenderer.cpp</text>
</a>
</g>
</g>
<!-- Node4&#45;&gt;Node12 -->
<g id="edge12" class="edge">
<title>Node4&#45;&gt;Node12</title>
<path fill="none" stroke="midnightblue" d="M1084.31,-131.23C1118.52,-119.67 1169.9,-102.3 1200.33,-92.01"/>
<polygon fill="midnightblue" stroke="midnightblue" points="1083.07,-127.96 1074.72,-134.48 1085.31,-134.59 1083.07,-127.96"/>
</g>
<!-- Node13 -->
<g id="node13" class="node">
<title>Node13</title>
<g id="a_node13"><a xlink:href="mxvectordraw_8cpp.html" target="_top" xlink:title=" ">
<polygon fill="none" stroke="black" points="750.5,-67.5 750.5,-97.5 848.5,-97.5 848.5,-67.5 750.5,-67.5"/>
<text text-anchor="start" x="758.5" y="-85.5" font-family="Helvetica,sans-Serif" font-size="10.00">src/gui/vectordraw</text>
<text text-anchor="middle" x="799.5" y="-74.5" font-family="Helvetica,sans-Serif" font-size="10.00">/mxvectordraw.cpp</text>
</a>
</g>
</g>
<!-- Node4&#45;&gt;Node13 -->
<g id="edge13" class="edge">
<title>Node4&#45;&gt;Node13</title>
<path fill="none" stroke="midnightblue" d="M1002.31,-132.14C963.42,-123.15 906.83,-109.95 857.5,-98 854.57,-97.29 851.57,-96.56 848.54,-95.81"/>
<polygon fill="midnightblue" stroke="midnightblue" points="1001.76,-135.61 1012.3,-134.45 1003.34,-128.79 1001.76,-135.61"/>
</g>
<!-- Node14 -->
<g id="node14" class="node">
<title>Node14</title>
<g id="a_node14"><a xlink:href="mxvectorprogram_8cpp.html" target="_top" xlink:title=" ">
<polygon fill="none" stroke="black" points="867,-67.5 867,-97.5 980,-97.5 980,-67.5 867,-67.5"/>
<text text-anchor="start" x="875" y="-85.5" font-family="Helvetica,sans-Serif" font-size="10.00">src/gui/vectordraw</text>
<text text-anchor="middle" x="923.5" y="-74.5" font-family="Helvetica,sans-Serif" font-size="10.00">/mxvectorprogram.cpp</text>
</a>
</g>
</g>
<!-- Node4&#45;&gt;Node14 -->
<g id="edge14" class="edge">
<title>Node4&#45;&gt;Node14</title>
<path fill="none" stroke="midnightblue" d="M1022.39,-130.2C1002.03,-120.58 974.16,-107.42 953.2,-97.52"/>
<polygon fill="midnightblue" stroke="midnightblue" points="1020.91,-133.37 1031.45,-134.48 1023.9,-127.04 1020.91,-133.37"/>
</g>
<!-- Node6 -->
<g id="node6" class="node">
<title>Node6</title>
<g id="a_node6"><a xlink:href="mxapplication_8cpp.html" target="_top" xlink:title=" ">
<polygon fill="none" stroke="black" points="521,-6 521,-25 664,-25 664,-6 521,-6"/>
<text text-anchor="middle" x="592.5" y="-13" font-family="Helvetica,sans-Serif" font-size="10.00">src/events/mxapplication.cpp</text>
</a>
</g>
</g>
<!-- Node5&#45;&gt;Node6 -->
<g id="edge5" class="edge">
<title>Node5&#45;&gt;Node6</title>
<path fill="none" stroke="midnightblue" d="M648.69,-65.86C634.14,-53.08 614.12,-35.49 602.32,-25.13"/>
<polygon fill="midnightblue" stroke="midnightblue" points="646.7,-68.76 656.52,-72.73 651.32,-63.5 646.7,-68.76"/>
</g>
<!-- Node7 -->
<g id="node7" class="node">
<title>Node7</title>
<g id="a_node7"><a xlink:href="qmewawindow_8cpp.html" target="_top" xlink:title=" ">
<polygon fill="none" stroke="black" points="682.5,-0.5 682.5,-30.5 798.5,-30.5 798.5,-0.5 682.5,-0.5"/>
<text text-anchor="start" x="690.5" y="-18.5" font-family="Helvetica,sans-Serif" font-size="10.00">src/platformabstraction</text>
<text text-anchor="middle" x="740.5" y="-7.5" font-family="Helvetica,sans-Serif" font-size="10.00">/qt/qmewawindow.cpp</text>
</a>
</g>
</g>
<!-- Node5&#45;&gt;Node7 -->
<g id="edge6" class="edge">
<title>Node5&#45;&gt;Node7</title>
<path fill="none" stroke="midnightblue" d="M684.23,-65.93C696.47,-55.18 712.6,-41 724.46,-30.59"/>
<polygon fill="midnightblue" stroke="midnightblue" points="681.68,-63.5 676.48,-72.73 686.3,-68.76 681.68,-63.5"/>
</g>
<!-- Node16&#45;&gt;Node13 -->
<g id="edge27" class="edge">
<title>Node16&#45;&gt;Node13</title>
<path fill="none" stroke="midnightblue" d="M878.13,-246.87C878.94,-218.05 876.83,-169.74 857.5,-134 849.43,-119.09 835.1,-106.54 822.69,-97.68"/>
<polygon fill="midnightblue" stroke="midnightblue" points="874.61,-247.1 877.68,-257.24 881.61,-247.4 874.61,-247.1"/>
</g>
<!-- Node17 -->
<g id="node17" class="node">
<title>Node17</title>
<g id="a_node17"><a xlink:href="mxpainter_8h.html" target="_top" xlink:title=" ">
<polygon fill="none" stroke="black" points="750.5,-134.5 750.5,-153.5 848.5,-153.5 848.5,-134.5 750.5,-134.5"/>
<text text-anchor="middle" x="799.5" y="-141.5" font-family="Helvetica,sans-Serif" font-size="10.00">src/gui/mxpainter.h</text>
</a>
</g>
</g>
<!-- Node16&#45;&gt;Node17 -->
<g id="edge17" class="edge">
<title>Node16&#45;&gt;Node17</title>
<path fill="none" stroke="midnightblue" d="M862.58,-248.63C845.3,-220.24 816.66,-173.2 804.85,-153.79"/>
<polygon fill="midnightblue" stroke="midnightblue" points="859.78,-250.76 867.97,-257.48 865.76,-247.12 859.78,-250.76"/>
</g>
<!-- Node18 -->
<g id="node18" class="node">
<title>Node18</title>
<g id="a_node18"><a xlink:href="mxsvgpainter_8cpp.html" target="_top" xlink:title=" ">
<polygon fill="none" stroke="black" points="0,-134.5 0,-153.5 143,-153.5 143,-134.5 0,-134.5"/>
<text text-anchor="middle" x="71.5" y="-141.5" font-family="Helvetica,sans-Serif" font-size="10.00">src/gui/svg/mxsvgpainter.cpp</text>
</a>
</g>
</g>
<!-- Node16&#45;&gt;Node18 -->
<g id="edge20" class="edge">
<title>Node16&#45;&gt;Node18</title>
<path fill="none" stroke="midnightblue" d="M817.88,-257.12C595.78,-222.92 533.1,-261.8 316.5,-221 231.82,-205.05 135.18,-169.79 93.04,-153.53"/>
<polygon fill="midnightblue" stroke="midnightblue" points="817.47,-260.6 827.89,-258.7 818.56,-253.69 817.47,-260.6"/>
</g>
<!-- Node19 -->
<g id="node19" class="node">
<title>Node19</title>
<g id="a_node19"><a xlink:href="mxsvgpainter_8h.html" target="_top" xlink:title=" ">
<polygon fill="none" stroke="black" points="326,-196 326,-215 459,-215 459,-196 326,-196"/>
<text text-anchor="middle" x="392.5" y="-203" font-family="Helvetica,sans-Serif" font-size="10.00">src/gui/svg/mxsvgpainter.h</text>
</a>
</g>
</g>
<!-- Node16&#45;&gt;Node19 -->
<g id="edge21" class="edge">
<title>Node16&#45;&gt;Node19</title>
<path fill="none" stroke="midnightblue" d="M817.93,-257.05C685.27,-233.16 541.46,-218.85 459.3,-211.78"/>
<polygon fill="midnightblue" stroke="midnightblue" points="817.4,-260.51 827.86,-258.86 818.65,-253.63 817.4,-260.51"/>
</g>
<!-- Node23 -->
<g id="node23" class="node">
<title>Node23</title>
<g id="a_node23"><a xlink:href="mxvectorprogram_8h.html" target="_top" xlink:title=" ">
<polygon fill="none" stroke="black" points="904.5,-190.5 904.5,-220.5 1006.5,-220.5 1006.5,-190.5 904.5,-190.5"/>
<text text-anchor="start" x="912.5" y="-208.5" font-family="Helvetica,sans-Serif" font-size="10.00">src/gui/vectordraw</text>
<text text-anchor="middle" x="955.5" y="-197.5" font-family="Helvetica,sans-Serif" font-size="10.00">/mxvectorprogram.h</text>
</a>
</g>
</g>
<!-- Node16&#45;&gt;Node23 -->
<g id="edge28" class="edge">
<title>Node16&#45;&gt;Node23</title>
<path fill="none" stroke="midnightblue" d="M901.56,-250.88C913.56,-241.01 927.63,-229.43 938.39,-220.58"/>
<polygon fill="midnightblue" stroke="midnightblue" points="899.14,-248.34 893.64,-257.4 903.59,-253.75 899.14,-248.34"/>
</g>
<!-- Node17&#45;&gt;Node5 -->
<g id="edge18" class="edge">
<title>Node17&#45;&gt;Node5</title>
<path fill="none" stroke="midnightblue" d="M771.17,-130.33C745.35,-118.78 707.92,-102.03 685.52,-92.01"/>
<polygon fill="midnightblue" stroke="midnightblue" points="769.89,-133.59 780.44,-134.48 772.75,-127.2 769.89,-133.59"/>
</g>
<!-- Node17&#45;&gt;Node10 -->
<g id="edge19" class="edge">
<title>Node17&#45;&gt;Node10</title>
<path fill="none" stroke="midnightblue" d="M749.59,-132.35C707.44,-123.31 645.49,-109.96 591.5,-98 582.94,-96.1 573.73,-94.04 565.05,-92.07"/>
<polygon fill="midnightblue" stroke="midnightblue" points="749.09,-135.82 759.6,-134.49 750.55,-128.97 749.09,-135.82"/>
</g>
<!-- Node19&#45;&gt;Node10 -->
<g id="edge22" class="edge">
<title>Node19&#45;&gt;Node10</title>
<path fill="none" stroke="midnightblue" d="M315.72,-201.47C243.23,-195.83 151.08,-179.76 190.5,-134 226.26,-92.48 386.73,-84.61 472.7,-83.43"/>
<polygon fill="midnightblue" stroke="midnightblue" points="315.57,-204.97 325.8,-202.2 316.08,-197.99 315.57,-204.97"/>
</g>
<!-- Node19&#45;&gt;Node18 -->
<g id="edge23" class="edge">
<title>Node19&#45;&gt;Node18</title>
<path fill="none" stroke="midnightblue" d="M336.48,-194.12C274.32,-182.59 175.17,-164.22 117.41,-153.51"/>
<polygon fill="midnightblue" stroke="midnightblue" points="336.04,-197.59 346.51,-195.98 337.31,-190.71 336.04,-197.59"/>
</g>
<!-- Node20 -->
<g id="node20" class="node">
<title>Node20</title>
<g id="a_node20"><a xlink:href="downarrowsvg_8cpp.html" target="_top" xlink:title=" ">
<polygon fill="none" stroke="black" points="200,-134.5 200,-153.5 375,-153.5 375,-134.5 200,-134.5"/>
<text text-anchor="middle" x="287.5" y="-141.5" font-family="Helvetica,sans-Serif" font-size="10.00">src/svg&#45;drawings/downarrowsvg.cpp</text>
</a>
</g>
</g>
<!-- Node19&#45;&gt;Node20 -->
<g id="edge24" class="edge">
<title>Node19&#45;&gt;Node20</title>
<path fill="none" stroke="midnightblue" d="M368.5,-190.9C348.2,-179.4 319.74,-163.27 302.52,-153.51"/>
<polygon fill="midnightblue" stroke="midnightblue" points="367.03,-194.09 377.46,-195.98 370.48,-188 367.03,-194.09"/>
</g>
<!-- Node21 -->
<g id="node21" class="node">
<title>Node21</title>
<g id="a_node21"><a xlink:href="heartsvg_8cpp.html" target="_top" xlink:title=" ">
<polygon fill="none" stroke="black" points="393,-134.5 393,-153.5 542,-153.5 542,-134.5 393,-134.5"/>
<text text-anchor="middle" x="467.5" y="-141.5" font-family="Helvetica,sans-Serif" font-size="10.00">src/svg&#45;drawings/heartsvg.cpp</text>
</a>
</g>
</g>
<!-- Node19&#45;&gt;Node21 -->
<g id="edge25" class="edge">
<title>Node19&#45;&gt;Node21</title>
<path fill="none" stroke="midnightblue" d="M411.44,-189.47C425.79,-178.09 444.98,-162.87 456.77,-153.51"/>
<polygon fill="midnightblue" stroke="midnightblue" points="408.9,-187.02 403.25,-195.98 413.26,-192.5 408.9,-187.02"/>
</g>
<!-- Node22 -->
<g id="node22" class="node">
<title>Node22</title>
<g id="a_node22"><a xlink:href="plusminussvg_8cpp.html" target="_top" xlink:title=" ">
<polygon fill="none" stroke="black" points="560.5,-134.5 560.5,-153.5 732.5,-153.5 732.5,-134.5 560.5,-134.5"/>
<text text-anchor="middle" x="646.5" y="-141.5" font-family="Helvetica,sans-Serif" font-size="10.00">src/svg&#45;drawings/plusminussvg.cpp</text>
</a>
</g>
</g>
<!-- Node19&#45;&gt;Node22 -->
<g id="edge26" class="edge">
<title>Node19&#45;&gt;Node22</title>
<path fill="none" stroke="midnightblue" d="M438.66,-193.69C487.95,-182.14 565.03,-164.08 610.18,-153.51"/>
<polygon fill="midnightblue" stroke="midnightblue" points="437.83,-190.29 428.89,-195.98 439.43,-197.1 437.83,-190.29"/>
</g>
<!-- Node23&#45;&gt;Node4 -->
<g id="edge29" class="edge">
<title>Node23&#45;&gt;Node4</title>
<path fill="none" stroke="midnightblue" d="M986.66,-184.78C1003.32,-174.23 1022.99,-161.78 1035.82,-153.66"/>
<polygon fill="midnightblue" stroke="midnightblue" points="984.35,-182.09 977.78,-190.4 988.1,-188.01 984.35,-182.09"/>
</g>
<!-- Node23&#45;&gt;Node14 -->
<g id="edge30" class="edge">
<title>Node23&#45;&gt;Node14</title>
<path fill="none" stroke="midnightblue" d="M949.14,-180.45C942.61,-155.77 932.68,-118.2 927.29,-97.84"/>
<polygon fill="midnightblue" stroke="midnightblue" points="945.76,-181.37 951.7,-190.14 952.53,-179.58 945.76,-181.37"/>
</g>
</g>
</svg>
