<?xml version="1.0" encoding="UTF-8" standalone="no"?>
<!DOCTYPE svg PUBLIC "-//W3C//DTD SVG 1.1//EN"
 "http://www.w3.org/Graphics/SVG/1.1/DTD/svg11.dtd">
<!-- Generated by graphviz version 2.44.0 ()
 -->
<!-- Title: src/svg&#45;drawings/heartsvg.h Pages: 1 -->
<svg width="147pt" height="196pt"
 viewBox="0.00 0.00 147.00 196.00" xmlns="http://www.w3.org/2000/svg" xmlns:xlink="http://www.w3.org/1999/xlink">
<g id="graph0" class="graph" transform="scale(1 1) rotate(0) translate(4 192)">
<title>src/svg&#45;drawings/heartsvg.h</title>
<!-- Node1 -->
<g id="node1" class="node">
<title>Node1</title>
<g id="a_node1"><a xlink:title=" ">
<polygon fill="#bfbfbf" stroke="black" points="0,-168.5 0,-187.5 139,-187.5 139,-168.5 0,-168.5"/>
<text text-anchor="middle" x="69.5" y="-175.5" font-family="Helvetica,sans-Serif" font-size="10.00">src/svg&#45;drawings/heartsvg.h</text>
</a>
</g>
</g>
<!-- Node2 -->
<g id="node2" class="node">
<title>Node2</title>
<g id="a_node2"><a xlink:href="mxabstractsvg_8h.html" target="_top" xlink:title=" ">
<polygon fill="none" stroke="black" points="25.5,-112.5 25.5,-131.5 113.5,-131.5 113.5,-112.5 25.5,-112.5"/>
<text text-anchor="middle" x="69.5" y="-119.5" font-family="Helvetica,sans-Serif" font-size="10.00">mxabstractsvg.h</text>
</a>
</g>
</g>
<!-- Node1&#45;&gt;Node2 -->
<g id="edge1" class="edge">
<title>Node1&#45;&gt;Node2</title>
<path fill="none" stroke="midnightblue" d="M69.5,-168.08C69.5,-161.01 69.5,-150.86 69.5,-141.99"/>
<polygon fill="midnightblue" stroke="midnightblue" points="73,-141.75 69.5,-131.75 66,-141.75 73,-141.75"/>
</g>
<!-- Node3 -->
<g id="node3" class="node">
<title>Node3</title>
<g id="a_node3"><a xlink:href="mxvector_8h.html" target="_top" xlink:title=" ">
<polygon fill="none" stroke="black" points="37.5,-56.5 37.5,-75.5 101.5,-75.5 101.5,-56.5 37.5,-56.5"/>
<text text-anchor="middle" x="69.5" y="-63.5" font-family="Helvetica,sans-Serif" font-size="10.00">mxvector.h</text>
</a>
</g>
</g>
<!-- Node2&#45;&gt;Node3 -->
<g id="edge2" class="edge">
<title>Node2&#45;&gt;Node3</title>
<path fill="none" stroke="midnightblue" d="M69.5,-112.08C69.5,-105.01 69.5,-94.86 69.5,-85.99"/>
<polygon fill="midnightblue" stroke="midnightblue" points="73,-85.75 69.5,-75.75 66,-85.75 73,-85.75"/>
</g>
<!-- Node4 -->
<g id="node4" class="node">
<title>Node4</title>
<g id="a_node4"><a xlink:title=" ">
<polygon fill="none" stroke="#bfbfbf" points="38,-0.5 38,-19.5 101,-19.5 101,-0.5 38,-0.5"/>
<text text-anchor="middle" x="69.5" y="-7.5" font-family="Helvetica,sans-Serif" font-size="10.00">mxdebug.h</text>
</a>
</g>
</g>
<!-- Node3&#45;&gt;Node4 -->
<g id="edge3" class="edge">
<title>Node3&#45;&gt;Node4</title>
<path fill="none" stroke="midnightblue" d="M69.5,-56.08C69.5,-49.01 69.5,-38.86 69.5,-29.99"/>
<polygon fill="midnightblue" stroke="midnightblue" points="73,-29.75 69.5,-19.75 66,-29.75 73,-29.75"/>
</g>
</g>
</svg>
