<?xml version="1.0" encoding="UTF-8" standalone="no"?>
<!DOCTYPE svg PUBLIC "-//W3C//DTD SVG 1.1//EN"
 "http://www.w3.org/Graphics/SVG/1.1/DTD/svg11.dtd">
<!-- Generated by graphviz version 2.44.0 ()
 -->
<!-- Title: src/renderer/opengl/colorwheelprogram/test_colorwheel/main.cpp Pages: 1 -->
<svg width="457pt" height="162pt"
 viewBox="0.00 0.00 456.50 162.00" xmlns="http://www.w3.org/2000/svg" xmlns:xlink="http://www.w3.org/1999/xlink">
<g id="graph0" class="graph" transform="scale(1 1) rotate(0) translate(4 158)">
<title>src/renderer/opengl/colorwheelprogram/test_colorwheel/main.cpp</title>
<!-- Node1 -->
<g id="node1" class="node">
<title>Node1</title>
<g id="a_node1"><a xlink:title=" ">
<polygon fill="#bfbfbf" stroke="black" points="144,-112.5 144,-153.5 265,-153.5 265,-112.5 144,-112.5"/>
<text text-anchor="start" x="152" y="-141.5" font-family="Helvetica,sans-Serif" font-size="10.00">src/renderer/opengl</text>
<text text-anchor="start" x="152" y="-130.5" font-family="Helvetica,sans-Serif" font-size="10.00">/colorwheelprogram/test</text>
<text text-anchor="middle" x="204.5" y="-119.5" font-family="Helvetica,sans-Serif" font-size="10.00">_colorwheel/main.cpp</text>
</a>
</g>
</g>
<!-- Node2 -->
<g id="node2" class="node">
<title>Node2</title>
<g id="a_node2"><a xlink:title=" ">
<polygon fill="none" stroke="#bfbfbf" points="0,-56.5 0,-75.5 87,-75.5 87,-56.5 0,-56.5"/>
<text text-anchor="middle" x="43.5" y="-63.5" font-family="Helvetica,sans-Serif" font-size="10.00">QGuiApplication</text>
</a>
</g>
</g>
<!-- Node1&#45;&gt;Node2 -->
<g id="edge1" class="edge">
<title>Node1&#45;&gt;Node2</title>
<path fill="none" stroke="midnightblue" d="M156.19,-112.5C129.61,-101.77 97.42,-88.77 74.26,-79.42"/>
<polygon fill="midnightblue" stroke="midnightblue" points="75.51,-76.15 64.93,-75.65 72.89,-82.64 75.51,-76.15"/>
</g>
<!-- Node3 -->
<g id="node3" class="node">
<title>Node3</title>
<g id="a_node3"><a xlink:title=" ">
<polygon fill="none" stroke="#bfbfbf" points="105,-56.5 105,-75.5 194,-75.5 194,-56.5 105,-56.5"/>
<text text-anchor="middle" x="149.5" y="-63.5" font-family="Helvetica,sans-Serif" font-size="10.00">QSurfaceFormat</text>
</a>
</g>
</g>
<!-- Node1&#45;&gt;Node3 -->
<g id="edge2" class="edge">
<title>Node1&#45;&gt;Node3</title>
<path fill="none" stroke="midnightblue" d="M188,-112.5C180.13,-103.2 170.83,-92.21 163.34,-83.36"/>
<polygon fill="midnightblue" stroke="midnightblue" points="165.95,-81.03 156.82,-75.65 160.61,-85.55 165.95,-81.03"/>
</g>
<!-- Node4 -->
<g id="node4" class="node">
<title>Node4</title>
<g id="a_node4"><a xlink:title=" ">
<polygon fill="none" stroke="#bfbfbf" points="212.5,-56.5 212.5,-75.5 306.5,-75.5 306.5,-56.5 212.5,-56.5"/>
<text text-anchor="middle" x="259.5" y="-63.5" font-family="Helvetica,sans-Serif" font-size="10.00">QOpenGLContext</text>
</a>
</g>
</g>
<!-- Node1&#45;&gt;Node4 -->
<g id="edge3" class="edge">
<title>Node1&#45;&gt;Node4</title>
<path fill="none" stroke="midnightblue" d="M221,-112.5C228.87,-103.2 238.17,-92.21 245.66,-83.36"/>
<polygon fill="midnightblue" stroke="midnightblue" points="248.39,-85.55 252.18,-75.65 243.05,-81.03 248.39,-85.55"/>
</g>
<!-- Node5 -->
<g id="node5" class="node">
<title>Node5</title>
<g id="a_node5"><a xlink:href="testwindow_8h.html" target="_top" xlink:title=" ">
<polygon fill="none" stroke="black" points="324.5,-56.5 324.5,-75.5 398.5,-75.5 398.5,-56.5 324.5,-56.5"/>
<text text-anchor="middle" x="361.5" y="-63.5" font-family="Helvetica,sans-Serif" font-size="10.00">testwindow.h</text>
</a>
</g>
</g>
<!-- Node1&#45;&gt;Node5 -->
<g id="edge4" class="edge">
<title>Node1&#45;&gt;Node5</title>
<path fill="none" stroke="midnightblue" d="M251.61,-112.5C277.41,-101.81 308.64,-88.89 331.2,-79.54"/>
<polygon fill="midnightblue" stroke="midnightblue" points="332.7,-82.71 340.6,-75.65 330.02,-76.24 332.7,-82.71"/>
</g>
<!-- Node6 -->
<g id="node6" class="node">
<title>Node6</title>
<g id="a_node6"><a xlink:title=" ">
<polygon fill="none" stroke="#bfbfbf" points="263,-0.5 263,-19.5 358,-19.5 358,-0.5 263,-0.5"/>
<text text-anchor="middle" x="310.5" y="-7.5" font-family="Helvetica,sans-Serif" font-size="10.00">QOpenGLWindow</text>
</a>
</g>
</g>
<!-- Node5&#45;&gt;Node6 -->
<g id="edge5" class="edge">
<title>Node5&#45;&gt;Node6</title>
<path fill="none" stroke="midnightblue" d="M353.08,-56.08C345.65,-48.22 334.65,-36.57 325.69,-27.08"/>
<polygon fill="midnightblue" stroke="midnightblue" points="328.18,-24.62 318.76,-19.75 323.09,-29.42 328.18,-24.62"/>
</g>
<!-- Node7 -->
<g id="node7" class="node">
<title>Node7</title>
<g id="a_node7"><a xlink:title=" ">
<polygon fill="none" stroke="#bfbfbf" points="376.5,-0.5 376.5,-19.5 448.5,-19.5 448.5,-0.5 376.5,-0.5"/>
<text text-anchor="middle" x="412.5" y="-7.5" font-family="Helvetica,sans-Serif" font-size="10.00">mxrenderer.h</text>
</a>
</g>
</g>
<!-- Node5&#45;&gt;Node7 -->
<g id="edge6" class="edge">
<title>Node5&#45;&gt;Node7</title>
<path fill="none" stroke="midnightblue" d="M369.92,-56.08C377.35,-48.22 388.35,-36.57 397.31,-27.08"/>
<polygon fill="midnightblue" stroke="midnightblue" points="399.91,-29.42 404.24,-19.75 394.82,-24.62 399.91,-29.42"/>
</g>
</g>
</svg>
