<?xml version="1.0" encoding="UTF-8" standalone="no"?>
<!DOCTYPE svg PUBLIC "-//W3C//DTD SVG 1.1//EN"
 "http://www.w3.org/Graphics/SVG/1.1/DTD/svg11.dtd">
<!-- Generated by graphviz version 2.44.0 ()
 -->
<!-- Title: src/iconatlas/mxabstractatlas.cpp Pages: 1 -->
<svg width="190pt" height="252pt"
 viewBox="0.00 0.00 189.50 252.00" xmlns="http://www.w3.org/2000/svg" xmlns:xlink="http://www.w3.org/1999/xlink">
<g id="graph0" class="graph" transform="scale(1 1) rotate(0) translate(4 248)">
<title>src/iconatlas/mxabstractatlas.cpp</title>
<!-- Node1 -->
<g id="node1" class="node">
<title>Node1</title>
<g id="a_node1"><a xlink:title=" ">
<polygon fill="#bfbfbf" stroke="black" points="19.5,-224.5 19.5,-243.5 181.5,-243.5 181.5,-224.5 19.5,-224.5"/>
<text text-anchor="middle" x="100.5" y="-231.5" font-family="Helvetica,sans-Serif" font-size="10.00">src/iconatlas/mxabstractatlas.cpp</text>
</a>
</g>
</g>
<!-- Node2 -->
<g id="node2" class="node">
<title>Node2</title>
<g id="a_node2"><a xlink:href="mxabstractatlas_8h.html" target="_top" xlink:title=" ">
<polygon fill="none" stroke="black" points="54,-168.5 54,-187.5 147,-187.5 147,-168.5 54,-168.5"/>
<text text-anchor="middle" x="100.5" y="-175.5" font-family="Helvetica,sans-Serif" font-size="10.00">mxabstractatlas.h</text>
</a>
</g>
</g>
<!-- Node1&#45;&gt;Node2 -->
<g id="edge1" class="edge">
<title>Node1&#45;&gt;Node2</title>
<path fill="none" stroke="midnightblue" d="M100.5,-224.08C100.5,-217.01 100.5,-206.86 100.5,-197.99"/>
<polygon fill="midnightblue" stroke="midnightblue" points="104,-197.75 100.5,-187.75 97,-197.75 104,-197.75"/>
</g>
<!-- Node3 -->
<g id="node3" class="node">
<title>Node3</title>
<g id="a_node3"><a xlink:href="mxrect_8h.html" target="_top" xlink:title=" ">
<polygon fill="none" stroke="black" points="35,-112.5 35,-131.5 88,-131.5 88,-112.5 35,-112.5"/>
<text text-anchor="middle" x="61.5" y="-119.5" font-family="Helvetica,sans-Serif" font-size="10.00">mxrect.h</text>
</a>
</g>
</g>
<!-- Node2&#45;&gt;Node3 -->
<g id="edge2" class="edge">
<title>Node2&#45;&gt;Node3</title>
<path fill="none" stroke="midnightblue" d="M94.06,-168.08C88.55,-160.46 80.47,-149.26 73.74,-139.94"/>
<polygon fill="midnightblue" stroke="midnightblue" points="76.51,-137.81 67.82,-131.75 70.84,-141.91 76.51,-137.81"/>
</g>
<!-- Node7 -->
<g id="node7" class="node">
<title>Node7</title>
<g id="a_node7"><a xlink:title=" ">
<polygon fill="none" stroke="#bfbfbf" points="106.5,-112.5 106.5,-131.5 172.5,-131.5 172.5,-112.5 106.5,-112.5"/>
<text text-anchor="middle" x="139.5" y="-119.5" font-family="Helvetica,sans-Serif" font-size="10.00">mxtexture.h</text>
</a>
</g>
</g>
<!-- Node2&#45;&gt;Node7 -->
<g id="edge7" class="edge">
<title>Node2&#45;&gt;Node7</title>
<path fill="none" stroke="midnightblue" d="M106.94,-168.08C112.45,-160.46 120.53,-149.26 127.26,-139.94"/>
<polygon fill="midnightblue" stroke="midnightblue" points="130.16,-141.91 133.18,-131.75 124.49,-137.81 130.16,-141.91"/>
</g>
<!-- Node4 -->
<g id="node4" class="node">
<title>Node4</title>
<g id="a_node4"><a xlink:title=" ">
<polygon fill="none" stroke="#bfbfbf" points="0,-0.5 0,-19.5 63,-19.5 63,-0.5 0,-0.5"/>
<text text-anchor="middle" x="31.5" y="-7.5" font-family="Helvetica,sans-Serif" font-size="10.00">mxdebug.h</text>
</a>
</g>
</g>
<!-- Node3&#45;&gt;Node4 -->
<g id="edge3" class="edge">
<title>Node3&#45;&gt;Node4</title>
<path fill="none" stroke="midnightblue" d="M49.96,-112.49C40.02,-104.38 26.38,-91.18 20.5,-76 14.63,-60.84 18.66,-42.49 23.41,-29.16"/>
<polygon fill="midnightblue" stroke="midnightblue" points="26.73,-30.29 27.2,-19.71 20.23,-27.69 26.73,-30.29"/>
</g>
<!-- Node5 -->
<g id="node5" class="node">
<title>Node5</title>
<g id="a_node5"><a xlink:href="mxvector_8h.html" target="_top" xlink:title=" ">
<polygon fill="none" stroke="black" points="29.5,-56.5 29.5,-75.5 93.5,-75.5 93.5,-56.5 29.5,-56.5"/>
<text text-anchor="middle" x="61.5" y="-63.5" font-family="Helvetica,sans-Serif" font-size="10.00">mxvector.h</text>
</a>
</g>
</g>
<!-- Node3&#45;&gt;Node5 -->
<g id="edge4" class="edge">
<title>Node3&#45;&gt;Node5</title>
<path fill="none" stroke="midnightblue" d="M61.5,-112.08C61.5,-105.01 61.5,-94.86 61.5,-85.99"/>
<polygon fill="midnightblue" stroke="midnightblue" points="65,-85.75 61.5,-75.75 58,-85.75 65,-85.75"/>
</g>
<!-- Node6 -->
<g id="node6" class="node">
<title>Node6</title>
<g id="a_node6"><a xlink:title=" ">
<polygon fill="none" stroke="#bfbfbf" points="111.5,-56.5 111.5,-75.5 167.5,-75.5 167.5,-56.5 111.5,-56.5"/>
<text text-anchor="middle" x="139.5" y="-63.5" font-family="Helvetica,sans-Serif" font-size="10.00">algorithm</text>
</a>
</g>
</g>
<!-- Node3&#45;&gt;Node6 -->
<g id="edge6" class="edge">
<title>Node3&#45;&gt;Node6</title>
<path fill="none" stroke="midnightblue" d="M74.03,-112.32C86.09,-103.98 104.53,-91.21 118.77,-81.35"/>
<polygon fill="midnightblue" stroke="midnightblue" points="120.77,-84.22 127,-75.65 116.78,-78.47 120.77,-84.22"/>
</g>
<!-- Node5&#45;&gt;Node4 -->
<g id="edge5" class="edge">
<title>Node5&#45;&gt;Node4</title>
<path fill="none" stroke="midnightblue" d="M56.55,-56.08C52.4,-48.61 46.35,-37.72 41.23,-28.52"/>
<polygon fill="midnightblue" stroke="midnightblue" points="44.28,-26.79 36.36,-19.75 38.16,-30.19 44.28,-26.79"/>
</g>
</g>
</svg>
