<?xml version="1.0" encoding="UTF-8" standalone="no"?>
<!DOCTYPE svg PUBLIC "-//W3C//DTD SVG 1.1//EN"
 "http://www.w3.org/Graphics/SVG/1.1/DTD/svg11.dtd">
<!-- Generated by graphviz version 2.44.0 ()
 -->
<!-- Title: src/events/mxapplication.cpp Pages: 1 -->
<svg width="853pt" height="420pt"
 viewBox="0.00 0.00 853.00 420.00" xmlns="http://www.w3.org/2000/svg" xmlns:xlink="http://www.w3.org/1999/xlink">
<g id="graph0" class="graph" transform="scale(1 1) rotate(0) translate(4 416)">
<title>src/events/mxapplication.cpp</title>
<!-- Node1 -->
<g id="node1" class="node">
<title>Node1</title>
<g id="a_node1"><a xlink:title=" ">
<polygon fill="#bfbfbf" stroke="black" points="659.5,-392.5 659.5,-411.5 802.5,-411.5 802.5,-392.5 659.5,-392.5"/>
<text text-anchor="middle" x="731" y="-399.5" font-family="Helvetica,sans-Serif" font-size="10.00">src/events/mxapplication.cpp</text>
</a>
</g>
</g>
<!-- Node2 -->
<g id="node2" class="node">
<title>Node2</title>
<g id="a_node2"><a xlink:title=" ">
<polygon fill="none" stroke="#bfbfbf" points="302.5,-0.5 302.5,-19.5 365.5,-19.5 365.5,-0.5 302.5,-0.5"/>
<text text-anchor="middle" x="334" y="-7.5" font-family="Helvetica,sans-Serif" font-size="10.00">mxdebug.h</text>
</a>
</g>
</g>
<!-- Node1&#45;&gt;Node2 -->
<g id="edge1" class="edge">
<title>Node1&#45;&gt;Node2</title>
<path fill="none" stroke="midnightblue" d="M751.64,-392.42C784.5,-377.23 845,-342.29 845,-291 845,-291 845,-291 845,-121 845,-25.22 497.54,-12.6 375.65,-11.13"/>
<polygon fill="midnightblue" stroke="midnightblue" points="375.61,-7.62 365.58,-11.02 375.54,-14.62 375.61,-7.62"/>
</g>
<!-- Node3 -->
<g id="node3" class="node">
<title>Node3</title>
<g id="a_node3"><a xlink:href="mxapplication_8h.html" target="_top" xlink:title=" ">
<polygon fill="none" stroke="black" points="277.5,-336.5 277.5,-355.5 360.5,-355.5 360.5,-336.5 277.5,-336.5"/>
<text text-anchor="middle" x="319" y="-343.5" font-family="Helvetica,sans-Serif" font-size="10.00">mxapplication.h</text>
</a>
</g>
</g>
<!-- Node1&#45;&gt;Node3 -->
<g id="edge2" class="edge">
<title>Node1&#45;&gt;Node3</title>
<path fill="none" stroke="midnightblue" d="M665.72,-392.44C584.02,-381.74 445.76,-363.61 370.89,-353.8"/>
<polygon fill="midnightblue" stroke="midnightblue" points="371.13,-350.3 360.76,-352.47 370.22,-357.24 371.13,-350.3"/>
</g>
<!-- Node23 -->
<g id="node23" class="node">
<title>Node23</title>
<g id="a_node23"><a xlink:href="mxwidget_8h.html" target="_top" xlink:title=" ">
<polygon fill="none" stroke="black" points="698.5,-336.5 698.5,-355.5 763.5,-355.5 763.5,-336.5 698.5,-336.5"/>
<text text-anchor="middle" x="731" y="-343.5" font-family="Helvetica,sans-Serif" font-size="10.00">mxwidget.h</text>
</a>
</g>
</g>
<!-- Node1&#45;&gt;Node23 -->
<g id="edge32" class="edge">
<title>Node1&#45;&gt;Node23</title>
<path fill="none" stroke="midnightblue" d="M731,-392.08C731,-385.01 731,-374.86 731,-365.99"/>
<polygon fill="midnightblue" stroke="midnightblue" points="734.5,-365.75 731,-355.75 727.5,-365.75 734.5,-365.75"/>
</g>
<!-- Node3&#45;&gt;Node2 -->
<g id="edge3" class="edge">
<title>Node3&#45;&gt;Node2</title>
<path fill="none" stroke="midnightblue" d="M277.34,-344.65C225.79,-342.67 136.54,-334.04 69,-300 31.38,-281.04 0,-277.13 0,-235 0,-235 0,-235 0,-121 0,-76.21 36.43,-74.96 77,-56 147.64,-22.98 239.48,-14.02 292.07,-11.69"/>
<polygon fill="midnightblue" stroke="midnightblue" points="292.51,-15.18 302.37,-11.3 292.24,-8.19 292.51,-15.18"/>
</g>
<!-- Node4 -->
<g id="node4" class="node">
<title>Node4</title>
<g id="a_node4"><a xlink:href="mxwidgetlist_8h.html" target="_top" xlink:title=" ">
<polygon fill="none" stroke="black" points="483,-280.5 483,-299.5 561,-299.5 561,-280.5 483,-280.5"/>
<text text-anchor="middle" x="522" y="-287.5" font-family="Helvetica,sans-Serif" font-size="10.00">mxwidgetlist.h</text>
</a>
</g>
</g>
<!-- Node3&#45;&gt;Node4 -->
<g id="edge4" class="edge">
<title>Node3&#45;&gt;Node4</title>
<path fill="none" stroke="midnightblue" d="M351.17,-336.44C386.06,-327.16 441.89,-312.31 480.17,-302.13"/>
<polygon fill="midnightblue" stroke="midnightblue" points="481.22,-305.47 489.98,-299.52 479.42,-298.7 481.22,-305.47"/>
</g>
<!-- Node10 -->
<g id="node10" class="node">
<title>Node10</title>
<g id="a_node10"><a xlink:title=" ">
<polygon fill="none" stroke="#bfbfbf" points="78,-280.5 78,-299.5 150,-299.5 150,-280.5 78,-280.5"/>
<text text-anchor="middle" x="114" y="-287.5" font-family="Helvetica,sans-Serif" font-size="10.00">mxrenderer.h</text>
</a>
</g>
</g>
<!-- Node3&#45;&gt;Node10 -->
<g id="edge11" class="edge">
<title>Node3&#45;&gt;Node10</title>
<path fill="none" stroke="midnightblue" d="M286.52,-336.44C251.28,-327.16 194.9,-312.31 156.24,-302.13"/>
<polygon fill="midnightblue" stroke="midnightblue" points="156.89,-298.68 146.33,-299.52 155.11,-305.45 156.89,-298.68"/>
</g>
<!-- Node11 -->
<g id="node11" class="node">
<title>Node11</title>
<g id="a_node11"><a xlink:href="mxmouseevent_8h.html" target="_top" xlink:title=" ">
<polygon fill="none" stroke="black" points="370,-280.5 370,-299.5 460,-299.5 460,-280.5 370,-280.5"/>
<text text-anchor="middle" x="415" y="-287.5" font-family="Helvetica,sans-Serif" font-size="10.00">mxmouseevent.h</text>
</a>
</g>
</g>
<!-- Node3&#45;&gt;Node11 -->
<g id="edge12" class="edge">
<title>Node3&#45;&gt;Node11</title>
<path fill="none" stroke="midnightblue" d="M334.42,-336.32C349.54,-327.82 372.82,-314.73 390.47,-304.8"/>
<polygon fill="midnightblue" stroke="midnightblue" points="392.61,-307.61 399.61,-299.65 389.18,-301.51 392.61,-307.61"/>
</g>
<!-- Node14 -->
<g id="node14" class="node">
<title>Node14</title>
<g id="a_node14"><a xlink:href="mxpainter_8h.html" target="_top" xlink:title=" ">
<polygon fill="none" stroke="black" points="286,-280.5 286,-299.5 352,-299.5 352,-280.5 286,-280.5"/>
<text text-anchor="middle" x="319" y="-287.5" font-family="Helvetica,sans-Serif" font-size="10.00">mxpainter.h</text>
</a>
</g>
</g>
<!-- Node3&#45;&gt;Node14 -->
<g id="edge16" class="edge">
<title>Node3&#45;&gt;Node14</title>
<path fill="none" stroke="midnightblue" d="M319,-336.08C319,-329.01 319,-318.86 319,-309.99"/>
<polygon fill="midnightblue" stroke="midnightblue" points="322.5,-309.75 319,-299.75 315.5,-309.75 322.5,-309.75"/>
</g>
<!-- Node22 -->
<g id="node22" class="node">
<title>Node22</title>
<g id="a_node22"><a xlink:href="mxguiaggregation_8h.html" target="_top" xlink:title=" ">
<polygon fill="none" stroke="black" points="168,-280.5 168,-299.5 268,-299.5 268,-280.5 168,-280.5"/>
<text text-anchor="middle" x="218" y="-287.5" font-family="Helvetica,sans-Serif" font-size="10.00">mxguiaggregation.h</text>
</a>
</g>
</g>
<!-- Node3&#45;&gt;Node22 -->
<g id="edge31" class="edge">
<title>Node3&#45;&gt;Node22</title>
<path fill="none" stroke="midnightblue" d="M302.77,-336.32C286.65,-327.7 261.7,-314.36 243.04,-304.39"/>
<polygon fill="midnightblue" stroke="midnightblue" points="244.66,-301.28 234.19,-299.65 241.36,-307.46 244.66,-301.28"/>
</g>
<!-- Node5 -->
<g id="node5" class="node">
<title>Node5</title>
<g id="a_node5"><a xlink:href="mxlist_8h.html" target="_top" xlink:title=" ">
<polygon fill="none" stroke="black" points="497,-224.5 497,-243.5 547,-243.5 547,-224.5 497,-224.5"/>
<text text-anchor="middle" x="522" y="-231.5" font-family="Helvetica,sans-Serif" font-size="10.00">mxlist.h</text>
</a>
</g>
</g>
<!-- Node4&#45;&gt;Node5 -->
<g id="edge5" class="edge">
<title>Node4&#45;&gt;Node5</title>
<path fill="none" stroke="midnightblue" d="M522,-280.08C522,-273.01 522,-262.86 522,-253.99"/>
<polygon fill="midnightblue" stroke="midnightblue" points="525.5,-253.75 522,-243.75 518.5,-253.75 525.5,-253.75"/>
</g>
<!-- Node5&#45;&gt;Node2 -->
<g id="edge6" class="edge">
<title>Node5&#45;&gt;Node2</title>
<path fill="none" stroke="midnightblue" d="M547.23,-226.23C550.18,-225.46 553.16,-224.7 556,-224 627.5,-206.29 752.9,-229.27 712,-168 635.36,-53.18 457.34,-22.21 375.96,-13.95"/>
<polygon fill="midnightblue" stroke="midnightblue" points="375.88,-10.43 365.6,-12.97 375.22,-17.4 375.88,-10.43"/>
</g>
<!-- Node6 -->
<g id="node6" class="node">
<title>Node6</title>
<g id="a_node6"><a xlink:href="mxrefcounter_8h.html" target="_top" xlink:title=" ">
<polygon fill="none" stroke="black" points="437,-168.5 437,-187.5 517,-187.5 517,-168.5 437,-168.5"/>
<text text-anchor="middle" x="477" y="-175.5" font-family="Helvetica,sans-Serif" font-size="10.00">mxrefcounter.h</text>
</a>
</g>
</g>
<!-- Node5&#45;&gt;Node6 -->
<g id="edge7" class="edge">
<title>Node5&#45;&gt;Node6</title>
<path fill="none" stroke="midnightblue" d="M514.57,-224.08C508.15,-216.38 498.69,-205.03 490.88,-195.65"/>
<polygon fill="midnightblue" stroke="midnightblue" points="493.38,-193.19 484.29,-187.75 488.01,-197.67 493.38,-193.19"/>
</g>
<!-- Node7 -->
<g id="node7" class="node">
<title>Node7</title>
<g id="a_node7"><a xlink:title=" ">
<polygon fill="none" stroke="#bfbfbf" points="535.5,-168.5 535.5,-187.5 582.5,-187.5 582.5,-168.5 535.5,-168.5"/>
<text text-anchor="middle" x="559" y="-175.5" font-family="Helvetica,sans-Serif" font-size="10.00">stdlib.h</text>
</a>
</g>
</g>
<!-- Node5&#45;&gt;Node7 -->
<g id="edge8" class="edge">
<title>Node5&#45;&gt;Node7</title>
<path fill="none" stroke="midnightblue" d="M528.11,-224.08C533.28,-216.53 540.85,-205.49 547.19,-196.23"/>
<polygon fill="midnightblue" stroke="midnightblue" points="550.24,-197.98 553,-187.75 544.46,-194.02 550.24,-197.98"/>
</g>
<!-- Node8 -->
<g id="node8" class="node">
<title>Node8</title>
<g id="a_node8"><a xlink:title=" ">
<polygon fill="none" stroke="#bfbfbf" points="601,-168.5 601,-187.5 649,-187.5 649,-168.5 601,-168.5"/>
<text text-anchor="middle" x="625" y="-175.5" font-family="Helvetica,sans-Serif" font-size="10.00">string.h</text>
</a>
</g>
</g>
<!-- Node5&#45;&gt;Node8 -->
<g id="edge9" class="edge">
<title>Node5&#45;&gt;Node8</title>
<path fill="none" stroke="midnightblue" d="M538.55,-224.32C554.99,-215.7 580.43,-202.36 599.47,-192.39"/>
<polygon fill="midnightblue" stroke="midnightblue" points="601.26,-195.4 608.49,-187.65 598.01,-189.2 601.26,-195.4"/>
</g>
<!-- Node9 -->
<g id="node9" class="node">
<title>Node9</title>
<g id="a_node9"><a xlink:title=" ">
<polygon fill="none" stroke="#bfbfbf" points="667.5,-168.5 667.5,-187.5 702.5,-187.5 702.5,-168.5 667.5,-168.5"/>
<text text-anchor="middle" x="685" y="-175.5" font-family="Helvetica,sans-Serif" font-size="10.00">new</text>
</a>
</g>
</g>
<!-- Node5&#45;&gt;Node9 -->
<g id="edge10" class="edge">
<title>Node5&#45;&gt;Node9</title>
<path fill="none" stroke="midnightblue" d="M547.07,-224.72C572.55,-216.31 613.4,-202.8 657.77,-188.07"/>
<polygon fill="midnightblue" stroke="midnightblue" points="658.9,-191.39 667.28,-184.91 656.69,-184.74 658.9,-191.39"/>
</g>
<!-- Node12 -->
<g id="node12" class="node">
<title>Node12</title>
<g id="a_node12"><a xlink:href="mxvector_8h.html" target="_top" xlink:title=" ">
<polygon fill="none" stroke="black" points="369,-56.5 369,-75.5 433,-75.5 433,-56.5 369,-56.5"/>
<text text-anchor="middle" x="401" y="-63.5" font-family="Helvetica,sans-Serif" font-size="10.00">mxvector.h</text>
</a>
</g>
</g>
<!-- Node11&#45;&gt;Node12 -->
<g id="edge13" class="edge">
<title>Node11&#45;&gt;Node12</title>
<path fill="none" stroke="midnightblue" d="M414.45,-280.3C412.39,-247.63 405.09,-131.87 402.2,-85.96"/>
<polygon fill="midnightblue" stroke="midnightblue" points="405.68,-85.64 401.56,-75.88 398.7,-86.08 405.68,-85.64"/>
</g>
<!-- Node13 -->
<g id="node13" class="node">
<title>Node13</title>
<g id="a_node13"><a xlink:title=" ">
<polygon fill="none" stroke="#bfbfbf" points="565,-224.5 565,-243.5 703,-243.5 703,-224.5 565,-224.5"/>
<text text-anchor="middle" x="634" y="-231.5" font-family="Helvetica,sans-Serif" font-size="10.00">mxmouseeventabstraction.h</text>
</a>
</g>
</g>
<!-- Node11&#45;&gt;Node13 -->
<g id="edge15" class="edge">
<title>Node11&#45;&gt;Node13</title>
<path fill="none" stroke="midnightblue" d="M449.7,-280.44C487.58,-271.1 548.35,-256.12 589.66,-245.93"/>
<polygon fill="midnightblue" stroke="midnightblue" points="590.59,-249.31 599.46,-243.52 588.91,-242.51 590.59,-249.31"/>
</g>
<!-- Node12&#45;&gt;Node2 -->
<g id="edge14" class="edge">
<title>Node12&#45;&gt;Node2</title>
<path fill="none" stroke="midnightblue" d="M390.24,-56.32C380.23,-48.26 365.11,-36.08 353.07,-26.37"/>
<polygon fill="midnightblue" stroke="midnightblue" points="354.94,-23.38 344.96,-19.83 350.55,-28.83 354.94,-23.38"/>
</g>
<!-- Node14&#45;&gt;Node2 -->
<g id="edge17" class="edge">
<title>Node14&#45;&gt;Node2</title>
<path fill="none" stroke="midnightblue" d="M285.55,-281.73C282.66,-281.13 279.78,-280.55 277,-280 187.95,-262.49 150.41,-295.95 76,-244 48.56,-224.84 38,-212.46 38,-179 38,-179 38,-179 38,-121 38,-67.37 210.86,-31.47 292.38,-17.52"/>
<polygon fill="midnightblue" stroke="midnightblue" points="293.04,-20.96 302.32,-15.85 291.88,-14.06 293.04,-20.96"/>
</g>
<!-- Node14&#45;&gt;Node5 -->
<g id="edge30" class="edge">
<title>Node14&#45;&gt;Node5</title>
<path fill="none" stroke="midnightblue" d="M351.17,-280.44C388.21,-270.59 448.87,-254.45 487.05,-244.3"/>
<polygon fill="midnightblue" stroke="midnightblue" points="487.95,-247.68 496.72,-241.73 486.16,-240.91 487.95,-247.68"/>
</g>
<!-- Node15 -->
<g id="node15" class="node">
<title>Node15</title>
<g id="a_node15"><a xlink:href="mxvectordraw_8h.html" target="_top" xlink:title=" ">
<polygon fill="none" stroke="black" points="85.5,-224.5 85.5,-243.5 170.5,-243.5 170.5,-224.5 85.5,-224.5"/>
<text text-anchor="middle" x="128" y="-231.5" font-family="Helvetica,sans-Serif" font-size="10.00">mxvectordraw.h</text>
</a>
</g>
</g>
<!-- Node14&#45;&gt;Node15 -->
<g id="edge18" class="edge">
<title>Node14&#45;&gt;Node15</title>
<path fill="none" stroke="midnightblue" d="M288.74,-280.44C256.04,-271.2 203.82,-256.44 167.82,-246.26"/>
<polygon fill="midnightblue" stroke="midnightblue" points="168.7,-242.87 158.12,-243.52 166.79,-249.61 168.7,-242.87"/>
</g>
<!-- Node18 -->
<g id="node18" class="node">
<title>Node18</title>
<g id="a_node18"><a xlink:href="mxicondraw_8h.html" target="_top" xlink:title=" ">
<polygon fill="none" stroke="black" points="207,-224.5 207,-243.5 283,-243.5 283,-224.5 207,-224.5"/>
<text text-anchor="middle" x="245" y="-231.5" font-family="Helvetica,sans-Serif" font-size="10.00">mxicondraw.h</text>
</a>
</g>
</g>
<!-- Node14&#45;&gt;Node18 -->
<g id="edge23" class="edge">
<title>Node14&#45;&gt;Node18</title>
<path fill="none" stroke="midnightblue" d="M307.11,-280.32C295.85,-272.11 278.71,-259.6 265.29,-249.81"/>
<polygon fill="midnightblue" stroke="midnightblue" points="267.25,-246.9 257.11,-243.83 263.12,-252.56 267.25,-246.9"/>
</g>
<!-- Node21 -->
<g id="node21" class="node">
<title>Node21</title>
<g id="a_node21"><a xlink:href="mxtextdraw_8h.html" target="_top" xlink:title=" ">
<polygon fill="none" stroke="black" points="307,-168.5 307,-187.5 381,-187.5 381,-168.5 307,-168.5"/>
<text text-anchor="middle" x="344" y="-175.5" font-family="Helvetica,sans-Serif" font-size="10.00">mxtextdraw.h</text>
</a>
</g>
</g>
<!-- Node14&#45;&gt;Node21 -->
<g id="edge27" class="edge">
<title>Node14&#45;&gt;Node21</title>
<path fill="none" stroke="midnightblue" d="M320.96,-280.37C325,-262.62 334.3,-221.67 339.77,-197.6"/>
<polygon fill="midnightblue" stroke="midnightblue" points="343.24,-198.12 342.05,-187.59 336.42,-196.57 343.24,-198.12"/>
</g>
<!-- Node16 -->
<g id="node16" class="node">
<title>Node16</title>
<g id="a_node16"><a xlink:href="mxrect_8h.html" target="_top" xlink:title=" ">
<polygon fill="none" stroke="black" points="289.5,-112.5 289.5,-131.5 342.5,-131.5 342.5,-112.5 289.5,-112.5"/>
<text text-anchor="middle" x="316" y="-119.5" font-family="Helvetica,sans-Serif" font-size="10.00">mxrect.h</text>
</a>
</g>
</g>
<!-- Node15&#45;&gt;Node16 -->
<g id="edge19" class="edge">
<title>Node15&#45;&gt;Node16</title>
<path fill="none" stroke="midnightblue" d="M117.67,-224.32C103.25,-211.17 80.43,-185.84 95,-168 117.85,-140.02 222.57,-129 279.27,-125.02"/>
<polygon fill="midnightblue" stroke="midnightblue" points="279.52,-128.51 289.27,-124.36 279.06,-121.53 279.52,-128.51"/>
</g>
<!-- Node16&#45;&gt;Node2 -->
<g id="edge20" class="edge">
<title>Node16&#45;&gt;Node2</title>
<path fill="none" stroke="midnightblue" d="M306.89,-112.23C295.14,-99.8 277.21,-76.3 286,-56 291.27,-43.84 301.62,-33.46 311.36,-25.74"/>
<polygon fill="midnightblue" stroke="midnightblue" points="313.64,-28.41 319.63,-19.67 309.5,-22.77 313.64,-28.41"/>
</g>
<!-- Node16&#45;&gt;Node12 -->
<g id="edge21" class="edge">
<title>Node16&#45;&gt;Node12</title>
<path fill="none" stroke="midnightblue" d="M329.66,-112.32C342.92,-103.9 363.27,-90.97 378.85,-81.07"/>
<polygon fill="midnightblue" stroke="midnightblue" points="380.81,-83.97 387.38,-75.65 377.06,-78.06 380.81,-83.97"/>
</g>
<!-- Node17 -->
<g id="node17" class="node">
<title>Node17</title>
<g id="a_node17"><a xlink:title=" ">
<polygon fill="none" stroke="#bfbfbf" points="295,-56.5 295,-75.5 351,-75.5 351,-56.5 295,-56.5"/>
<text text-anchor="middle" x="323" y="-63.5" font-family="Helvetica,sans-Serif" font-size="10.00">algorithm</text>
</a>
</g>
</g>
<!-- Node16&#45;&gt;Node17 -->
<g id="edge22" class="edge">
<title>Node16&#45;&gt;Node17</title>
<path fill="none" stroke="midnightblue" d="M317.16,-112.08C318.08,-104.93 319.42,-94.64 320.58,-85.69"/>
<polygon fill="midnightblue" stroke="midnightblue" points="324.05,-86.12 321.87,-75.75 317.11,-85.22 324.05,-86.12"/>
</g>
<!-- Node19 -->
<g id="node19" class="node">
<title>Node19</title>
<g id="a_node19"><a xlink:href="mxquaddraw_8h.html" target="_top" xlink:title=" ">
<polygon fill="none" stroke="black" points="104.5,-168.5 104.5,-187.5 183.5,-187.5 183.5,-168.5 104.5,-168.5"/>
<text text-anchor="middle" x="144" y="-175.5" font-family="Helvetica,sans-Serif" font-size="10.00">mxquaddraw.h</text>
</a>
</g>
</g>
<!-- Node18&#45;&gt;Node19 -->
<g id="edge24" class="edge">
<title>Node18&#45;&gt;Node19</title>
<path fill="none" stroke="midnightblue" d="M228.77,-224.32C212.65,-215.7 187.7,-202.36 169.04,-192.39"/>
<polygon fill="midnightblue" stroke="midnightblue" points="170.66,-189.28 160.19,-187.65 167.36,-195.46 170.66,-189.28"/>
</g>
<!-- Node20 -->
<g id="node20" class="node">
<title>Node20</title>
<g id="a_node20"><a xlink:href="mxthemeicons_8h.html" target="_top" xlink:title=" ">
<polygon fill="none" stroke="black" points="201.5,-168.5 201.5,-187.5 288.5,-187.5 288.5,-168.5 201.5,-168.5"/>
<text text-anchor="middle" x="245" y="-175.5" font-family="Helvetica,sans-Serif" font-size="10.00">mxthemeicons.h</text>
</a>
</g>
</g>
<!-- Node18&#45;&gt;Node20 -->
<g id="edge26" class="edge">
<title>Node18&#45;&gt;Node20</title>
<path fill="none" stroke="midnightblue" d="M245,-224.08C245,-217.01 245,-206.86 245,-197.99"/>
<polygon fill="midnightblue" stroke="midnightblue" points="248.5,-197.75 245,-187.75 241.5,-197.75 248.5,-197.75"/>
</g>
<!-- Node19&#45;&gt;Node16 -->
<g id="edge25" class="edge">
<title>Node19&#45;&gt;Node16</title>
<path fill="none" stroke="midnightblue" d="M171.25,-168.44C200.61,-159.23 247.47,-144.52 279.88,-134.34"/>
<polygon fill="midnightblue" stroke="midnightblue" points="280.95,-137.67 289.44,-131.34 278.85,-131 280.95,-137.67"/>
</g>
<!-- Node21&#45;&gt;Node12 -->
<g id="edge28" class="edge">
<title>Node21&#45;&gt;Node12</title>
<path fill="none" stroke="midnightblue" d="M348.47,-168.37C357.8,-150.38 379.47,-108.55 391.87,-84.63"/>
<polygon fill="midnightblue" stroke="midnightblue" points="395.05,-86.08 396.55,-75.59 388.84,-82.86 395.05,-86.08"/>
</g>
<!-- Node21&#45;&gt;Node16 -->
<g id="edge29" class="edge">
<title>Node21&#45;&gt;Node16</title>
<path fill="none" stroke="midnightblue" d="M339.38,-168.08C335.54,-160.69 329.98,-149.95 325.24,-140.81"/>
<polygon fill="midnightblue" stroke="midnightblue" points="328.25,-139.02 320.54,-131.75 322.03,-142.24 328.25,-139.02"/>
</g>
<!-- Node23&#45;&gt;Node4 -->
<g id="edge35" class="edge">
<title>Node23&#45;&gt;Node4</title>
<path fill="none" stroke="midnightblue" d="M698.34,-336.56C662.44,-327.28 604.59,-312.34 565.01,-302.11"/>
<polygon fill="midnightblue" stroke="midnightblue" points="565.67,-298.67 555.12,-299.56 563.92,-305.45 565.67,-298.67"/>
</g>
<!-- Node23&#45;&gt;Node12 -->
<g id="edge34" class="edge">
<title>Node23&#45;&gt;Node12</title>
<path fill="none" stroke="midnightblue" d="M737.37,-336.23C743.26,-327.53 751.61,-313.57 755,-300 769.43,-242.3 776.37,-208.7 733,-168 651.2,-91.24 512.77,-72.71 443.35,-68.31"/>
<polygon fill="midnightblue" stroke="midnightblue" points="443.4,-64.81 433.22,-67.74 443.01,-71.8 443.4,-64.81"/>
</g>
<!-- Node23&#45;&gt;Node16 -->
<g id="edge33" class="edge">
<title>Node23&#45;&gt;Node16</title>
<path fill="none" stroke="midnightblue" d="M733.3,-336.46C740.4,-307.94 758.84,-215.13 712,-168 686.9,-142.75 446.2,-129.01 352.79,-124.6"/>
<polygon fill="midnightblue" stroke="midnightblue" points="352.82,-121.1 342.67,-124.13 352.5,-128.09 352.82,-121.1"/>
</g>
</g>
</svg>
