<?xml version="1.0" encoding="UTF-8" standalone="no"?>
<!DOCTYPE svg PUBLIC "-//W3C//DTD SVG 1.1//EN"
 "http://www.w3.org/Graphics/SVG/1.1/DTD/svg11.dtd">
<!-- Generated by graphviz version 2.44.0 ()
 -->
<!-- Title: src/events/mxapplication.cpp Pages: 1 -->
<svg width="1573pt" height="532pt"
 viewBox="0.00 0.00 1573.42 532.00" xmlns="http://www.w3.org/2000/svg" xmlns:xlink="http://www.w3.org/1999/xlink">
<g id="graph0" class="graph" transform="scale(1 1) rotate(0) translate(4 528)">
<title>src/events/mxapplication.cpp</title>
<!-- Node1 -->
<g id="node1" class="node">
<title>Node1</title>
<g id="a_node1"><a xlink:title=" ">
<polygon fill="#bfbfbf" stroke="black" points="1417.92,-504.5 1417.92,-523.5 1560.92,-523.5 1560.92,-504.5 1417.92,-504.5"/>
<text text-anchor="middle" x="1489.42" y="-511.5" font-family="Helvetica,sans-Serif" font-size="10.00">src/events/mxapplication.cpp</text>
</a>
</g>
</g>
<!-- Node2 -->
<g id="node2" class="node">
<title>Node2</title>
<g id="a_node2"><a xlink:href="mxdebug_8h.html" target="_top" xlink:title=" ">
<polygon fill="none" stroke="black" points="951.92,-56.5 951.92,-75.5 1014.92,-75.5 1014.92,-56.5 951.92,-56.5"/>
<text text-anchor="middle" x="983.42" y="-63.5" font-family="Helvetica,sans-Serif" font-size="10.00">mxdebug.h</text>
</a>
</g>
</g>
<!-- Node1&#45;&gt;Node2 -->
<g id="edge1" class="edge">
<title>Node1&#45;&gt;Node2</title>
<path fill="none" stroke="midnightblue" d="M1500.97,-504.43C1522.23,-487.57 1565.42,-447.8 1565.42,-403 1565.42,-403 1565.42,-403 1565.42,-177 1565.42,-122 1158.89,-82.1 1025.36,-70.48"/>
<polygon fill="midnightblue" stroke="midnightblue" points="1025.39,-66.97 1015.13,-69.59 1024.79,-73.94 1025.39,-66.97"/>
</g>
<!-- Node4 -->
<g id="node4" class="node">
<title>Node4</title>
<g id="a_node4"><a xlink:href="mxapplication_8h.html" target="_top" xlink:title=" ">
<polygon fill="none" stroke="black" points="1171.92,-448.5 1171.92,-467.5 1254.92,-467.5 1254.92,-448.5 1171.92,-448.5"/>
<text text-anchor="middle" x="1213.42" y="-455.5" font-family="Helvetica,sans-Serif" font-size="10.00">mxapplication.h</text>
</a>
</g>
</g>
<!-- Node1&#45;&gt;Node4 -->
<g id="edge3" class="edge">
<title>Node1&#45;&gt;Node4</title>
<path fill="none" stroke="midnightblue" d="M1445.69,-504.44C1396.67,-494.85 1317.25,-479.31 1265.18,-469.13"/>
<polygon fill="midnightblue" stroke="midnightblue" points="1265.63,-465.65 1255.14,-467.16 1264.29,-472.52 1265.63,-465.65"/>
</g>
<!-- Node36 -->
<g id="node36" class="node">
<title>Node36</title>
<g id="a_node36"><a xlink:href="mxwidget_8h.html" target="_top" xlink:title=" ">
<polygon fill="none" stroke="black" points="1456.92,-448.5 1456.92,-467.5 1521.92,-467.5 1521.92,-448.5 1456.92,-448.5"/>
<text text-anchor="middle" x="1489.42" y="-455.5" font-family="Helvetica,sans-Serif" font-size="10.00">mxwidget.h</text>
</a>
</g>
</g>
<!-- Node1&#45;&gt;Node36 -->
<g id="edge63" class="edge">
<title>Node1&#45;&gt;Node36</title>
<path fill="none" stroke="midnightblue" d="M1489.42,-504.08C1489.42,-497.01 1489.42,-486.86 1489.42,-477.99"/>
<polygon fill="midnightblue" stroke="midnightblue" points="1492.92,-477.75 1489.42,-467.75 1485.92,-477.75 1492.92,-477.75"/>
</g>
<!-- Node3 -->
<g id="node3" class="node">
<title>Node3</title>
<g id="a_node3"><a xlink:title=" ">
<polygon fill="none" stroke="#bfbfbf" points="957.42,-0.5 957.42,-19.5 1009.42,-19.5 1009.42,-0.5 957.42,-0.5"/>
<text text-anchor="middle" x="983.42" y="-7.5" font-family="Helvetica,sans-Serif" font-size="10.00">QDebug</text>
</a>
</g>
</g>
<!-- Node2&#45;&gt;Node3 -->
<g id="edge2" class="edge">
<title>Node2&#45;&gt;Node3</title>
<path fill="none" stroke="midnightblue" d="M983.42,-56.08C983.42,-49.01 983.42,-38.86 983.42,-29.99"/>
<polygon fill="midnightblue" stroke="midnightblue" points="986.92,-29.75 983.42,-19.75 979.92,-29.75 986.92,-29.75"/>
</g>
<!-- Node4&#45;&gt;Node2 -->
<g id="edge4" class="edge">
<title>Node4&#45;&gt;Node2</title>
<path fill="none" stroke="midnightblue" d="M1197.64,-448.47C1185.22,-440.77 1168.82,-428.18 1161.42,-412 1157.73,-403.92 1158.39,-400.35 1161.42,-392 1179.63,-341.88 1220.22,-350.12 1238.42,-300 1249.71,-268.92 1277.77,-265.98 1228.42,-168 1191.13,-93.96 1084.96,-74.11 1025.35,-68.85"/>
<polygon fill="midnightblue" stroke="midnightblue" points="1025.38,-65.34 1015.14,-68.05 1024.84,-72.32 1025.38,-65.34"/>
</g>
<!-- Node5 -->
<g id="node5" class="node">
<title>Node5</title>
<g id="a_node5"><a xlink:href="mxwidgetlist_8h.html" target="_top" xlink:title=" ">
<polygon fill="none" stroke="black" points="1275.42,-392.5 1275.42,-411.5 1353.42,-411.5 1353.42,-392.5 1275.42,-392.5"/>
<text text-anchor="middle" x="1314.42" y="-399.5" font-family="Helvetica,sans-Serif" font-size="10.00">mxwidgetlist.h</text>
</a>
</g>
</g>
<!-- Node4&#45;&gt;Node5 -->
<g id="edge5" class="edge">
<title>Node4&#45;&gt;Node5</title>
<path fill="none" stroke="midnightblue" d="M1229.65,-448.32C1245.77,-439.7 1270.72,-426.36 1289.39,-416.39"/>
<polygon fill="midnightblue" stroke="midnightblue" points="1291.07,-419.46 1298.24,-411.65 1287.77,-413.28 1291.07,-419.46"/>
</g>
<!-- Node11 -->
<g id="node11" class="node">
<title>Node11</title>
<g id="a_node11"><a xlink:href="mxrenderer_8h.html" target="_top" xlink:title=" ">
<polygon fill="none" stroke="black" points="281.42,-392.5 281.42,-411.5 353.42,-411.5 353.42,-392.5 281.42,-392.5"/>
<text text-anchor="middle" x="317.42" y="-399.5" font-family="Helvetica,sans-Serif" font-size="10.00">mxrenderer.h</text>
</a>
</g>
</g>
<!-- Node4&#45;&gt;Node11 -->
<g id="edge12" class="edge">
<title>Node4&#45;&gt;Node11</title>
<path fill="none" stroke="midnightblue" d="M1171.71,-454.49C1023.11,-445.53 520.2,-415.22 364.06,-405.81"/>
<polygon fill="midnightblue" stroke="midnightblue" points="364.05,-402.3 353.86,-405.2 363.63,-409.29 364.05,-402.3"/>
</g>
<!-- Node27 -->
<g id="node27" class="node">
<title>Node27</title>
<g id="a_node27"><a xlink:href="mxmouseevent_8h.html" target="_top" xlink:title=" ">
<polygon fill="none" stroke="black" points="1371.42,-392.5 1371.42,-411.5 1461.42,-411.5 1461.42,-392.5 1371.42,-392.5"/>
<text text-anchor="middle" x="1416.42" y="-399.5" font-family="Helvetica,sans-Serif" font-size="10.00">mxmouseevent.h</text>
</a>
</g>
</g>
<!-- Node4&#45;&gt;Node27 -->
<g id="edge46" class="edge">
<title>Node4&#45;&gt;Node27</title>
<path fill="none" stroke="midnightblue" d="M1245.59,-448.44C1280.48,-439.16 1336.32,-424.31 1374.59,-414.13"/>
<polygon fill="midnightblue" stroke="midnightblue" points="1375.64,-417.47 1384.41,-411.52 1373.84,-410.7 1375.64,-417.47"/>
</g>
<!-- Node30 -->
<g id="node30" class="node">
<title>Node30</title>
<g id="a_node30"><a xlink:href="mxpainter_8h.html" target="_top" xlink:title=" ">
<polygon fill="none" stroke="black" points="1035.42,-392.5 1035.42,-411.5 1101.42,-411.5 1101.42,-392.5 1035.42,-392.5"/>
<text text-anchor="middle" x="1068.42" y="-399.5" font-family="Helvetica,sans-Serif" font-size="10.00">mxpainter.h</text>
</a>
</g>
</g>
<!-- Node4&#45;&gt;Node30 -->
<g id="edge50" class="edge">
<title>Node4&#45;&gt;Node30</title>
<path fill="none" stroke="midnightblue" d="M1190.45,-448.44C1166.27,-439.44 1128,-425.19 1100.78,-415.05"/>
<polygon fill="midnightblue" stroke="midnightblue" points="1101.88,-411.73 1091.29,-411.52 1099.44,-418.29 1101.88,-411.73"/>
</g>
<!-- Node35 -->
<g id="node35" class="node">
<title>Node35</title>
<g id="a_node35"><a xlink:href="mxaggregation_8h.html" target="_top" xlink:title=" ">
<polygon fill="none" stroke="black" points="1169.92,-392.5 1169.92,-411.5 1256.92,-411.5 1256.92,-392.5 1169.92,-392.5"/>
<text text-anchor="middle" x="1213.42" y="-399.5" font-family="Helvetica,sans-Serif" font-size="10.00">mxaggregation.h</text>
</a>
</g>
</g>
<!-- Node4&#45;&gt;Node35 -->
<g id="edge62" class="edge">
<title>Node4&#45;&gt;Node35</title>
<path fill="none" stroke="midnightblue" d="M1213.42,-448.08C1213.42,-441.01 1213.42,-430.86 1213.42,-421.99"/>
<polygon fill="midnightblue" stroke="midnightblue" points="1216.92,-421.75 1213.42,-411.75 1209.92,-421.75 1216.92,-421.75"/>
</g>
<!-- Node6 -->
<g id="node6" class="node">
<title>Node6</title>
<g id="a_node6"><a xlink:href="mxlist_8h.html" target="_top" xlink:title=" ">
<polygon fill="none" stroke="black" points="768.42,-336.5 768.42,-355.5 818.42,-355.5 818.42,-336.5 768.42,-336.5"/>
<text text-anchor="middle" x="793.42" y="-343.5" font-family="Helvetica,sans-Serif" font-size="10.00">mxlist.h</text>
</a>
</g>
</g>
<!-- Node5&#45;&gt;Node6 -->
<g id="edge6" class="edge">
<title>Node5&#45;&gt;Node6</title>
<path fill="none" stroke="midnightblue" d="M1275.18,-393.34C1272.22,-392.86 1269.28,-392.4 1266.42,-392 1103.77,-369.06 907.96,-354.58 828.99,-349.28"/>
<polygon fill="midnightblue" stroke="midnightblue" points="828.85,-345.76 818.64,-348.59 828.39,-352.75 828.85,-345.76"/>
</g>
<!-- Node6&#45;&gt;Node2 -->
<g id="edge7" class="edge">
<title>Node6&#45;&gt;Node2</title>
<path fill="none" stroke="midnightblue" d="M818.6,-345.65C855.61,-345.2 924.6,-338.75 964.42,-300 985.99,-279.01 983.42,-265.1 983.42,-235 983.42,-235 983.42,-235 983.42,-177 983.42,-144.95 983.42,-107.64 983.42,-85.75"/>
<polygon fill="midnightblue" stroke="midnightblue" points="986.92,-85.56 983.42,-75.56 979.92,-85.56 986.92,-85.56"/>
</g>
<!-- Node7 -->
<g id="node7" class="node">
<title>Node7</title>
<g id="a_node7"><a xlink:href="mxrefcounter_8h.html" target="_top" xlink:title=" ">
<polygon fill="none" stroke="black" points="712.42,-280.5 712.42,-299.5 792.42,-299.5 792.42,-280.5 712.42,-280.5"/>
<text text-anchor="middle" x="752.42" y="-287.5" font-family="Helvetica,sans-Serif" font-size="10.00">mxrefcounter.h</text>
</a>
</g>
</g>
<!-- Node6&#45;&gt;Node7 -->
<g id="edge8" class="edge">
<title>Node6&#45;&gt;Node7</title>
<path fill="none" stroke="midnightblue" d="M786.65,-336.08C780.86,-328.46 772.36,-317.26 765.28,-307.94"/>
<polygon fill="midnightblue" stroke="midnightblue" points="767.9,-305.6 759.07,-299.75 762.33,-309.83 767.9,-305.6"/>
</g>
<!-- Node8 -->
<g id="node8" class="node">
<title>Node8</title>
<g id="a_node8"><a xlink:title=" ">
<polygon fill="none" stroke="#bfbfbf" points="810.92,-280.5 810.92,-299.5 857.92,-299.5 857.92,-280.5 810.92,-280.5"/>
<text text-anchor="middle" x="834.42" y="-287.5" font-family="Helvetica,sans-Serif" font-size="10.00">stdlib.h</text>
</a>
</g>
</g>
<!-- Node6&#45;&gt;Node8 -->
<g id="edge9" class="edge">
<title>Node6&#45;&gt;Node8</title>
<path fill="none" stroke="midnightblue" d="M800.19,-336.08C805.98,-328.46 814.48,-317.26 821.56,-307.94"/>
<polygon fill="midnightblue" stroke="midnightblue" points="824.52,-309.83 827.78,-299.75 818.94,-305.6 824.52,-309.83"/>
</g>
<!-- Node9 -->
<g id="node9" class="node">
<title>Node9</title>
<g id="a_node9"><a xlink:title=" ">
<polygon fill="none" stroke="#bfbfbf" points="592.42,-280.5 592.42,-299.5 640.42,-299.5 640.42,-280.5 592.42,-280.5"/>
<text text-anchor="middle" x="616.42" y="-287.5" font-family="Helvetica,sans-Serif" font-size="10.00">string.h</text>
</a>
</g>
</g>
<!-- Node6&#45;&gt;Node9 -->
<g id="edge10" class="edge">
<title>Node6&#45;&gt;Node9</title>
<path fill="none" stroke="midnightblue" d="M768.06,-337.26C737.09,-327.81 684.59,-311.8 650.21,-301.31"/>
<polygon fill="midnightblue" stroke="midnightblue" points="651.19,-297.95 640.6,-298.38 649.14,-304.64 651.19,-297.95"/>
</g>
<!-- Node10 -->
<g id="node10" class="node">
<title>Node10</title>
<g id="a_node10"><a xlink:title=" ">
<polygon fill="none" stroke="#bfbfbf" points="658.92,-280.5 658.92,-299.5 693.92,-299.5 693.92,-280.5 658.92,-280.5"/>
<text text-anchor="middle" x="676.42" y="-287.5" font-family="Helvetica,sans-Serif" font-size="10.00">new</text>
</a>
</g>
</g>
<!-- Node6&#45;&gt;Node10 -->
<g id="edge11" class="edge">
<title>Node6&#45;&gt;Node10</title>
<path fill="none" stroke="midnightblue" d="M774.88,-336.44C755.58,-327.53 725.14,-313.49 703.22,-303.37"/>
<polygon fill="midnightblue" stroke="midnightblue" points="704.66,-300.18 694.11,-299.16 701.72,-306.53 704.66,-300.18"/>
</g>
<!-- Node11&#45;&gt;Node6 -->
<g id="edge37" class="edge">
<title>Node11&#45;&gt;Node6</title>
<path fill="none" stroke="midnightblue" d="M353.59,-396.9C442.4,-386.82 670.36,-360.96 758.19,-351"/>
<polygon fill="midnightblue" stroke="midnightblue" points="758.64,-354.47 768.19,-349.86 757.86,-347.51 758.64,-354.47"/>
</g>
<!-- Node12 -->
<g id="node12" class="node">
<title>Node12</title>
<g id="a_node12"><a xlink:href="mxopenglfunctions_8h.html" target="_top" xlink:title=" ">
<polygon fill="none" stroke="black" points="447.92,-336.5 447.92,-355.5 552.92,-355.5 552.92,-336.5 447.92,-336.5"/>
<text text-anchor="middle" x="500.42" y="-343.5" font-family="Helvetica,sans-Serif" font-size="10.00">mxopenglfunctions.h</text>
</a>
</g>
</g>
<!-- Node11&#45;&gt;Node12 -->
<g id="edge13" class="edge">
<title>Node11&#45;&gt;Node12</title>
<path fill="none" stroke="midnightblue" d="M346.42,-392.44C377.61,-383.24 427.35,-368.56 461.83,-358.39"/>
<polygon fill="midnightblue" stroke="midnightblue" points="462.96,-361.7 471.56,-355.52 460.98,-354.99 462.96,-361.7"/>
</g>
<!-- Node14 -->
<g id="node14" class="node">
<title>Node14</title>
<g id="a_node14"><a xlink:href="mxcolorwheelprogram_8h.html" target="_top" xlink:title=" ">
<polygon fill="none" stroke="black" points="61.92,-280.5 61.92,-299.5 180.92,-299.5 180.92,-280.5 61.92,-280.5"/>
<text text-anchor="middle" x="121.42" y="-287.5" font-family="Helvetica,sans-Serif" font-size="10.00">mxcolorwheelprogram.h</text>
</a>
</g>
</g>
<!-- Node11&#45;&gt;Node14 -->
<g id="edge15" class="edge">
<title>Node11&#45;&gt;Node14</title>
<path fill="none" stroke="midnightblue" d="M302.04,-392.37C268.05,-373.29 186.32,-327.42 145.49,-304.51"/>
<polygon fill="midnightblue" stroke="midnightblue" points="147.16,-301.43 136.73,-299.59 143.74,-307.54 147.16,-301.43"/>
</g>
<!-- Node22 -->
<g id="node22" class="node">
<title>Node22</title>
<g id="a_node22"><a xlink:href="mxvectorprogram_8h.html" target="_top" xlink:title=" ">
<polygon fill="none" stroke="black" points="0.92,-336.5 0.92,-355.5 99.92,-355.5 99.92,-336.5 0.92,-336.5"/>
<text text-anchor="middle" x="50.42" y="-343.5" font-family="Helvetica,sans-Serif" font-size="10.00">mxvectorprogram.h</text>
</a>
</g>
</g>
<!-- Node11&#45;&gt;Node22 -->
<g id="edge28" class="edge">
<title>Node11&#45;&gt;Node22</title>
<path fill="none" stroke="midnightblue" d="M281.41,-393.72C235.41,-384.41 155.45,-368.24 102.73,-357.58"/>
<polygon fill="midnightblue" stroke="midnightblue" points="103.39,-354.14 92.9,-355.59 102,-361 103.39,-354.14"/>
</g>
<!-- Node24 -->
<g id="node24" class="node">
<title>Node24</title>
<g id="a_node24"><a xlink:href="gpubuffer_8h.html" target="_top" xlink:title=" ">
<polygon fill="none" stroke="black" points="457.42,-224.5 457.42,-243.5 521.42,-243.5 521.42,-224.5 457.42,-224.5"/>
<text text-anchor="middle" x="489.42" y="-231.5" font-family="Helvetica,sans-Serif" font-size="10.00">gpubuffer.h</text>
</a>
</g>
</g>
<!-- Node11&#45;&gt;Node24 -->
<g id="edge38" class="edge">
<title>Node11&#45;&gt;Node24</title>
<path fill="none" stroke="midnightblue" d="M315.96,-392.41C312.78,-370.65 307.67,-312.77 336.42,-280 343.92,-271.45 404.84,-255.34 447.5,-244.89"/>
<polygon fill="midnightblue" stroke="midnightblue" points="448.48,-248.25 457.37,-242.49 446.83,-241.45 448.48,-248.25"/>
</g>
<!-- Node26 -->
<g id="node26" class="node">
<title>Node26</title>
<g id="a_node26"><a xlink:href="mxiconprogram_8h.html" target="_top" xlink:title=" ">
<polygon fill="none" stroke="black" points="199.42,-280.5 199.42,-299.5 289.42,-299.5 289.42,-280.5 199.42,-280.5"/>
<text text-anchor="middle" x="244.42" y="-287.5" font-family="Helvetica,sans-Serif" font-size="10.00">mxiconprogram.h</text>
</a>
</g>
</g>
<!-- Node11&#45;&gt;Node26 -->
<g id="edge39" class="edge">
<title>Node11&#45;&gt;Node26</title>
<path fill="none" stroke="midnightblue" d="M311.69,-392.37C299.65,-374.22 271.5,-331.8 255.7,-307.99"/>
<polygon fill="midnightblue" stroke="midnightblue" points="258.57,-305.99 250.12,-299.59 252.74,-309.86 258.57,-305.99"/>
</g>
<!-- Node13 -->
<g id="node13" class="node">
<title>Node13</title>
<g id="a_node13"><a xlink:title=" ">
<polygon fill="none" stroke="#bfbfbf" points="448.92,-280.5 448.92,-299.5 573.92,-299.5 573.92,-280.5 448.92,-280.5"/>
<text text-anchor="middle" x="511.42" y="-287.5" font-family="Helvetica,sans-Serif" font-size="10.00">QOpenGLExtraFunctions</text>
</a>
</g>
</g>
<!-- Node12&#45;&gt;Node13 -->
<g id="edge14" class="edge">
<title>Node12&#45;&gt;Node13</title>
<path fill="none" stroke="midnightblue" d="M502.24,-336.08C503.7,-328.93 505.79,-318.64 507.62,-309.69"/>
<polygon fill="midnightblue" stroke="midnightblue" points="511.07,-310.25 509.64,-299.75 504.21,-308.85 511.07,-310.25"/>
</g>
<!-- Node14&#45;&gt;Node2 -->
<g id="edge16" class="edge">
<title>Node14&#45;&gt;Node2</title>
<path fill="none" stroke="midnightblue" d="M122.8,-280.33C128.14,-247.8 148.64,-133.68 176.42,-112 236.98,-64.74 784.36,-65.41 941.45,-66.59"/>
<polygon fill="midnightblue" stroke="midnightblue" points="941.62,-70.09 951.65,-66.67 941.68,-63.09 941.62,-70.09"/>
</g>
<!-- Node15 -->
<g id="node15" class="node">
<title>Node15</title>
<g id="a_node15"><a xlink:href="mxopengl_8h.html" target="_top" xlink:title=" ">
<polygon fill="none" stroke="black" points="243.92,-56.5 243.92,-75.5 308.92,-75.5 308.92,-56.5 243.92,-56.5"/>
<text text-anchor="middle" x="276.42" y="-63.5" font-family="Helvetica,sans-Serif" font-size="10.00">mxopengl.h</text>
</a>
</g>
</g>
<!-- Node14&#45;&gt;Node15 -->
<g id="edge17" class="edge">
<title>Node14&#45;&gt;Node15</title>
<path fill="none" stroke="midnightblue" d="M119.62,-280.42C114.31,-252.54 101.54,-163.36 143.42,-112 165.26,-85.22 203.71,-74.3 233.67,-69.88"/>
<polygon fill="midnightblue" stroke="midnightblue" points="234.39,-73.32 243.87,-68.58 233.5,-66.38 234.39,-73.32"/>
</g>
<!-- Node16 -->
<g id="node16" class="node">
<title>Node16</title>
<g id="a_node16"><a xlink:href="mxshaderprogram_8h.html" target="_top" xlink:title=" ">
<polygon fill="none" stroke="black" points="185.92,-112.5 185.92,-131.5 286.92,-131.5 286.92,-112.5 185.92,-112.5"/>
<text text-anchor="middle" x="236.42" y="-119.5" font-family="Helvetica,sans-Serif" font-size="10.00">mxshaderprogram.h</text>
</a>
</g>
</g>
<!-- Node14&#45;&gt;Node16 -->
<g id="edge18" class="edge">
<title>Node14&#45;&gt;Node16</title>
<path fill="none" stroke="midnightblue" d="M133.2,-280.33C144.07,-271.91 160.17,-258.33 171.42,-244 197.46,-210.83 218.54,-165.75 229.09,-141.04"/>
<polygon fill="midnightblue" stroke="midnightblue" points="232.44,-142.09 233.06,-131.52 225.98,-139.4 232.44,-142.09"/>
</g>
<!-- Node17 -->
<g id="node17" class="node">
<title>Node17</title>
<g id="a_node17"><a xlink:href="mxmatrix_8h.html" target="_top" xlink:title=" ">
<polygon fill="none" stroke="black" points="27.92,-224.5 27.92,-243.5 90.92,-243.5 90.92,-224.5 27.92,-224.5"/>
<text text-anchor="middle" x="59.42" y="-231.5" font-family="Helvetica,sans-Serif" font-size="10.00">mxmatrix.h</text>
</a>
</g>
</g>
<!-- Node14&#45;&gt;Node17 -->
<g id="edge21" class="edge">
<title>Node14&#45;&gt;Node17</title>
<path fill="none" stroke="midnightblue" d="M111.46,-280.32C102.3,-272.34 88.49,-260.31 77.39,-250.65"/>
<polygon fill="midnightblue" stroke="midnightblue" points="79.4,-247.76 69.57,-243.83 74.81,-253.04 79.4,-247.76"/>
</g>
<!-- Node19 -->
<g id="node19" class="node">
<title>Node19</title>
<g id="a_node19"><a xlink:href="mxrect_8h.html" target="_top" xlink:title=" ">
<polygon fill="none" stroke="black" points="888.92,-224.5 888.92,-243.5 941.92,-243.5 941.92,-224.5 888.92,-224.5"/>
<text text-anchor="middle" x="915.42" y="-231.5" font-family="Helvetica,sans-Serif" font-size="10.00">mxrect.h</text>
</a>
</g>
</g>
<!-- Node14&#45;&gt;Node19 -->
<g id="edge23" class="edge">
<title>Node14&#45;&gt;Node19</title>
<path fill="none" stroke="midnightblue" d="M181.23,-280.95C184.34,-280.61 187.42,-280.29 190.42,-280 453.48,-254.71 771.66,-240.67 878.46,-236.41"/>
<polygon fill="midnightblue" stroke="midnightblue" points="878.85,-239.9 888.71,-236 878.58,-232.9 878.85,-239.9"/>
</g>
<!-- Node16&#45;&gt;Node2 -->
<g id="edge19" class="edge">
<title>Node16&#45;&gt;Node2</title>
<path fill="none" stroke="midnightblue" d="M287.18,-117.33C426.6,-107.25 813.55,-79.28 941.64,-70.02"/>
<polygon fill="midnightblue" stroke="midnightblue" points="942.1,-73.5 951.82,-69.28 941.59,-66.51 942.1,-73.5"/>
</g>
<!-- Node16&#45;&gt;Node15 -->
<g id="edge20" class="edge">
<title>Node16&#45;&gt;Node15</title>
<path fill="none" stroke="midnightblue" d="M243.03,-112.08C248.68,-104.46 256.97,-93.26 263.87,-83.94"/>
<polygon fill="midnightblue" stroke="midnightblue" points="266.8,-85.87 269.94,-75.75 261.18,-81.7 266.8,-85.87"/>
</g>
<!-- Node18 -->
<g id="node18" class="node">
<title>Node18</title>
<g id="a_node18"><a xlink:title=" ">
<polygon fill="none" stroke="#bfbfbf" points="25.92,-168.5 25.92,-187.5 90.92,-187.5 90.92,-168.5 25.92,-168.5"/>
<text text-anchor="middle" x="58.42" y="-175.5" font-family="Helvetica,sans-Serif" font-size="10.00">QMatrix4x4</text>
</a>
</g>
</g>
<!-- Node17&#45;&gt;Node18 -->
<g id="edge22" class="edge">
<title>Node17&#45;&gt;Node18</title>
<path fill="none" stroke="midnightblue" d="M59.26,-224.08C59.13,-217.01 58.94,-206.86 58.77,-197.99"/>
<polygon fill="midnightblue" stroke="midnightblue" points="62.27,-197.68 58.58,-187.75 55.27,-197.81 62.27,-197.68"/>
</g>
<!-- Node19&#45;&gt;Node2 -->
<g id="edge24" class="edge">
<title>Node19&#45;&gt;Node2</title>
<path fill="none" stroke="midnightblue" d="M907.7,-224.16C897.74,-211.64 882.6,-188.05 890.42,-168 904.95,-130.79 940.31,-99.01 963,-81.5"/>
<polygon fill="midnightblue" stroke="midnightblue" points="965.1,-84.3 971.01,-75.51 960.91,-78.7 965.1,-84.3"/>
</g>
<!-- Node20 -->
<g id="node20" class="node">
<title>Node20</title>
<g id="a_node20"><a xlink:href="mxvector_8h.html" target="_top" xlink:title=" ">
<polygon fill="none" stroke="black" points="1155.42,-168.5 1155.42,-187.5 1219.42,-187.5 1219.42,-168.5 1155.42,-168.5"/>
<text text-anchor="middle" x="1187.42" y="-175.5" font-family="Helvetica,sans-Serif" font-size="10.00">mxvector.h</text>
</a>
</g>
</g>
<!-- Node19&#45;&gt;Node20 -->
<g id="edge25" class="edge">
<title>Node19&#45;&gt;Node20</title>
<path fill="none" stroke="midnightblue" d="M942,-227.72C989.32,-218.33 1088.51,-198.64 1145.24,-187.38"/>
<polygon fill="midnightblue" stroke="midnightblue" points="1146.18,-190.76 1155.31,-185.37 1144.82,-183.89 1146.18,-190.76"/>
</g>
<!-- Node21 -->
<g id="node21" class="node">
<title>Node21</title>
<g id="a_node21"><a xlink:title=" ">
<polygon fill="none" stroke="#bfbfbf" points="899.42,-168.5 899.42,-187.5 955.42,-187.5 955.42,-168.5 899.42,-168.5"/>
<text text-anchor="middle" x="927.42" y="-175.5" font-family="Helvetica,sans-Serif" font-size="10.00">algorithm</text>
</a>
</g>
</g>
<!-- Node19&#45;&gt;Node21 -->
<g id="edge27" class="edge">
<title>Node19&#45;&gt;Node21</title>
<path fill="none" stroke="midnightblue" d="M917.4,-224.08C918.99,-216.93 921.28,-206.64 923.27,-197.69"/>
<polygon fill="midnightblue" stroke="midnightblue" points="926.73,-198.27 925.48,-187.75 919.89,-196.75 926.73,-198.27"/>
</g>
<!-- Node20&#45;&gt;Node2 -->
<g id="edge26" class="edge">
<title>Node20&#45;&gt;Node2</title>
<path fill="none" stroke="midnightblue" d="M1183.69,-168.41C1177.18,-154.44 1162.41,-126.86 1141.42,-112 1106.83,-87.5 1059.15,-76.28 1025.24,-71.18"/>
<polygon fill="midnightblue" stroke="midnightblue" points="1025.57,-67.69 1015.18,-69.78 1024.61,-74.63 1025.57,-67.69"/>
</g>
<!-- Node22&#45;&gt;Node16 -->
<g id="edge29" class="edge">
<title>Node22&#45;&gt;Node16</title>
<path fill="none" stroke="midnightblue" d="M44.56,-336.46C26.29,-308.71 -25.92,-219.88 16.42,-168 36.19,-143.78 117.53,-132.25 175.54,-127.01"/>
<polygon fill="midnightblue" stroke="midnightblue" points="176.05,-130.48 185.71,-126.13 175.45,-123.5 176.05,-130.48"/>
</g>
<!-- Node22&#45;&gt;Node17 -->
<g id="edge30" class="edge">
<title>Node22&#45;&gt;Node17</title>
<path fill="none" stroke="midnightblue" d="M50.35,-336.15C50.32,-323.62 50.57,-300.01 52.42,-280 53.24,-271.23 54.67,-261.58 56.02,-253.46"/>
<polygon fill="midnightblue" stroke="midnightblue" points="59.48,-254.04 57.76,-243.59 52.58,-252.83 59.48,-254.04"/>
</g>
<!-- Node23 -->
<g id="node23" class="node">
<title>Node23</title>
<g id="a_node23"><a xlink:href="mxvectordraw_8h.html" target="_top" xlink:title=" ">
<polygon fill="none" stroke="black" points="345.92,-280.5 345.92,-299.5 430.92,-299.5 430.92,-280.5 345.92,-280.5"/>
<text text-anchor="middle" x="388.42" y="-287.5" font-family="Helvetica,sans-Serif" font-size="10.00">mxvectordraw.h</text>
</a>
</g>
</g>
<!-- Node22&#45;&gt;Node23 -->
<g id="edge31" class="edge">
<title>Node22&#45;&gt;Node23</title>
<path fill="none" stroke="midnightblue" d="M99.93,-337.09C162.94,-327.02 271.31,-309.71 335.78,-299.41"/>
<polygon fill="midnightblue" stroke="midnightblue" points="336.42,-302.85 345.74,-297.82 335.31,-295.94 336.42,-302.85"/>
</g>
<!-- Node23&#45;&gt;Node19 -->
<g id="edge36" class="edge">
<title>Node23&#45;&gt;Node19</title>
<path fill="none" stroke="midnightblue" d="M430.96,-281.23C433.82,-280.79 436.66,-280.37 439.42,-280 602.58,-257.93 798.65,-243.05 878.69,-237.46"/>
<polygon fill="midnightblue" stroke="midnightblue" points="879.02,-240.95 888.76,-236.77 878.54,-233.96 879.02,-240.95"/>
</g>
<!-- Node23&#45;&gt;Node24 -->
<g id="edge32" class="edge">
<title>Node23&#45;&gt;Node24</title>
<path fill="none" stroke="midnightblue" d="M404.65,-280.32C420.77,-271.7 445.72,-258.36 464.39,-248.39"/>
<polygon fill="midnightblue" stroke="midnightblue" points="466.07,-251.46 473.24,-243.65 462.77,-245.28 466.07,-251.46"/>
</g>
<!-- Node25 -->
<g id="node25" class="node">
<title>Node25</title>
<g id="a_node25"><a xlink:href="gpuvbo_8h.html" target="_top" xlink:title=" ">
<polygon fill="none" stroke="black" points="269.42,-168.5 269.42,-187.5 325.42,-187.5 325.42,-168.5 269.42,-168.5"/>
<text text-anchor="middle" x="297.42" y="-175.5" font-family="Helvetica,sans-Serif" font-size="10.00">gpuvbo.h</text>
</a>
</g>
</g>
<!-- Node24&#45;&gt;Node25 -->
<g id="edge33" class="edge">
<title>Node24&#45;&gt;Node25</title>
<path fill="none" stroke="midnightblue" d="M459,-224.44C425.46,-215.01 371.47,-199.83 335.23,-189.63"/>
<polygon fill="midnightblue" stroke="midnightblue" points="336.09,-186.24 325.52,-186.9 334.2,-192.98 336.09,-186.24"/>
</g>
<!-- Node25&#45;&gt;Node15 -->
<g id="edge34" class="edge">
<title>Node25&#45;&gt;Node15</title>
<path fill="none" stroke="midnightblue" d="M298.15,-168.46C298.99,-155.92 299.76,-131.85 295.42,-112 293.39,-102.68 289.47,-92.86 285.72,-84.78"/>
<polygon fill="midnightblue" stroke="midnightblue" points="288.78,-83.06 281.21,-75.65 282.5,-86.16 288.78,-83.06"/>
</g>
<!-- Node25&#45;&gt;Node16 -->
<g id="edge35" class="edge">
<title>Node25&#45;&gt;Node16</title>
<path fill="none" stroke="midnightblue" d="M287.62,-168.32C278.6,-160.34 265.02,-148.31 254.1,-138.65"/>
<polygon fill="midnightblue" stroke="midnightblue" points="256.21,-135.84 246.4,-131.83 251.57,-141.08 256.21,-135.84"/>
</g>
<!-- Node26&#45;&gt;Node2 -->
<g id="edge40" class="edge">
<title>Node26&#45;&gt;Node2</title>
<path fill="none" stroke="midnightblue" d="M263.48,-280.45C293.33,-267.24 353.14,-241.59 405.42,-224 603.21,-157.47 846.11,-98.77 941.83,-76.5"/>
<polygon fill="midnightblue" stroke="midnightblue" points="942.75,-79.88 951.7,-74.22 941.17,-73.06 942.75,-79.88"/>
</g>
<!-- Node26&#45;&gt;Node15 -->
<g id="edge43" class="edge">
<title>Node26&#45;&gt;Node15</title>
<path fill="none" stroke="midnightblue" d="M256.44,-280.39C277.1,-264.76 318.62,-229.48 334.42,-188 349.26,-149.05 315.03,-105.45 293.07,-82.71"/>
<polygon fill="midnightblue" stroke="midnightblue" points="295.47,-80.16 285.92,-75.59 290.53,-85.12 295.47,-80.16"/>
</g>
<!-- Node26&#45;&gt;Node16 -->
<g id="edge44" class="edge">
<title>Node26&#45;&gt;Node16</title>
<path fill="none" stroke="midnightblue" d="M243.99,-280.08C242.73,-253.95 239.04,-177.21 237.32,-141.58"/>
<polygon fill="midnightblue" stroke="midnightblue" points="240.81,-141.39 236.84,-131.57 233.82,-141.73 240.81,-141.39"/>
</g>
<!-- Node26&#45;&gt;Node17 -->
<g id="edge41" class="edge">
<title>Node26&#45;&gt;Node17</title>
<path fill="none" stroke="midnightblue" d="M215.11,-280.44C183.58,-271.24 133.29,-256.56 98.44,-246.39"/>
<polygon fill="midnightblue" stroke="midnightblue" points="99.18,-242.96 88.6,-243.52 97.22,-249.68 99.18,-242.96"/>
</g>
<!-- Node26&#45;&gt;Node19 -->
<g id="edge45" class="edge">
<title>Node26&#45;&gt;Node19</title>
<path fill="none" stroke="midnightblue" d="M289.8,-284.38C304.65,-282.92 321.23,-281.33 336.42,-280 541.24,-262.02 787.15,-244.13 878.72,-237.6"/>
<polygon fill="midnightblue" stroke="midnightblue" points="879.13,-241.08 888.86,-236.87 878.64,-234.09 879.13,-241.08"/>
</g>
<!-- Node26&#45;&gt;Node20 -->
<g id="edge42" class="edge">
<title>Node26&#45;&gt;Node20</title>
<path fill="none" stroke="midnightblue" d="M281.41,-280.48C314.4,-272.46 363.77,-259.39 405.42,-244 425.19,-236.69 427.99,-229.18 448.42,-224 515.88,-206.91 998.01,-186.53 1144.99,-180.66"/>
<polygon fill="midnightblue" stroke="midnightblue" points="1145.14,-184.16 1154.99,-180.26 1144.86,-177.16 1145.14,-184.16"/>
</g>
<!-- Node27&#45;&gt;Node20 -->
<g id="edge47" class="edge">
<title>Node27&#45;&gt;Node20</title>
<path fill="none" stroke="midnightblue" d="M1386.45,-392.48C1364.81,-385.27 1335.76,-373.32 1314.42,-356 1257.48,-309.77 1213.93,-232 1196.16,-197.01"/>
<polygon fill="midnightblue" stroke="midnightblue" points="1199.07,-195.01 1191.48,-187.61 1192.8,-198.12 1199.07,-195.01"/>
</g>
<!-- Node28 -->
<g id="node28" class="node">
<title>Node28</title>
<g id="a_node28"><a xlink:href="mxmouseeventabstraction_8h.html" target="_top" xlink:title=" ">
<polygon fill="none" stroke="black" points="1323.42,-336.5 1323.42,-355.5 1461.42,-355.5 1461.42,-336.5 1323.42,-336.5"/>
<text text-anchor="middle" x="1392.42" y="-343.5" font-family="Helvetica,sans-Serif" font-size="10.00">mxmouseeventabstraction.h</text>
</a>
</g>
</g>
<!-- Node27&#45;&gt;Node28 -->
<g id="edge48" class="edge">
<title>Node27&#45;&gt;Node28</title>
<path fill="none" stroke="midnightblue" d="M1412.46,-392.08C1409.21,-384.77 1404.5,-374.18 1400.47,-365.1"/>
<polygon fill="midnightblue" stroke="midnightblue" points="1403.57,-363.47 1396.31,-355.75 1397.17,-366.31 1403.57,-363.47"/>
</g>
<!-- Node29 -->
<g id="node29" class="node">
<title>Node29</title>
<g id="a_node29"><a xlink:title=" ">
<polygon fill="none" stroke="#bfbfbf" points="1377.92,-280.5 1377.92,-299.5 1406.92,-299.5 1406.92,-280.5 1377.92,-280.5"/>
<text text-anchor="middle" x="1392.42" y="-287.5" font-family="Helvetica,sans-Serif" font-size="10.00">Qt</text>
</a>
</g>
</g>
<!-- Node28&#45;&gt;Node29 -->
<g id="edge49" class="edge">
<title>Node28&#45;&gt;Node29</title>
<path fill="none" stroke="midnightblue" d="M1392.42,-336.08C1392.42,-329.01 1392.42,-318.86 1392.42,-309.99"/>
<polygon fill="midnightblue" stroke="midnightblue" points="1395.92,-309.75 1392.42,-299.75 1388.92,-309.75 1395.92,-309.75"/>
</g>
<!-- Node30&#45;&gt;Node2 -->
<g id="edge51" class="edge">
<title>Node30&#45;&gt;Node2</title>
<path fill="none" stroke="midnightblue" d="M1076.88,-392.44C1093.19,-374.96 1127.42,-333.26 1127.42,-291 1127.42,-291 1127.42,-291 1127.42,-177 1127.42,-124.76 1066.83,-94.01 1024.25,-78.85"/>
<polygon fill="midnightblue" stroke="midnightblue" points="1025.26,-75.49 1014.67,-75.58 1023.01,-82.12 1025.26,-75.49"/>
</g>
<!-- Node30&#45;&gt;Node6 -->
<g id="edge61" class="edge">
<title>Node30&#45;&gt;Node6</title>
<path fill="none" stroke="midnightblue" d="M1035.25,-394.49C983.02,-384.23 882.06,-364.41 828.61,-353.91"/>
<polygon fill="midnightblue" stroke="midnightblue" points="829.07,-350.43 818.58,-351.94 827.72,-357.3 829.07,-350.43"/>
</g>
<!-- Node30&#45;&gt;Node23 -->
<g id="edge52" class="edge">
<title>Node30&#45;&gt;Node23</title>
<path fill="none" stroke="midnightblue" d="M1035.22,-400.21C912.83,-397.09 491.18,-384.36 438.42,-356 419.08,-345.6 404.9,-324.15 396.68,-308.72"/>
<polygon fill="midnightblue" stroke="midnightblue" points="399.74,-307.02 392.14,-299.64 393.48,-310.15 399.74,-307.02"/>
</g>
<!-- Node31 -->
<g id="node31" class="node">
<title>Node31</title>
<g id="a_node31"><a xlink:href="mxicondraw_8h.html" target="_top" xlink:title=" ">
<polygon fill="none" stroke="black" points="1017.42,-336.5 1017.42,-355.5 1093.42,-355.5 1093.42,-336.5 1017.42,-336.5"/>
<text text-anchor="middle" x="1055.42" y="-343.5" font-family="Helvetica,sans-Serif" font-size="10.00">mxicondraw.h</text>
</a>
</g>
</g>
<!-- Node30&#45;&gt;Node31 -->
<g id="edge53" class="edge">
<title>Node30&#45;&gt;Node31</title>
<path fill="none" stroke="midnightblue" d="M1066.28,-392.08C1064.55,-384.93 1062.08,-374.64 1059.92,-365.69"/>
<polygon fill="midnightblue" stroke="midnightblue" points="1063.27,-364.65 1057.53,-355.75 1056.47,-366.29 1063.27,-364.65"/>
</g>
<!-- Node34 -->
<g id="node34" class="node">
<title>Node34</title>
<g id="a_node34"><a xlink:href="mxtextdraw_8h.html" target="_top" xlink:title=" ">
<polygon fill="none" stroke="black" points="1155.42,-280.5 1155.42,-299.5 1229.42,-299.5 1229.42,-280.5 1155.42,-280.5"/>
<text text-anchor="middle" x="1192.42" y="-287.5" font-family="Helvetica,sans-Serif" font-size="10.00">mxtextdraw.h</text>
</a>
</g>
</g>
<!-- Node30&#45;&gt;Node34 -->
<g id="edge58" class="edge">
<title>Node30&#45;&gt;Node34</title>
<path fill="none" stroke="midnightblue" d="M1086.11,-392.38C1101.68,-384.28 1124.43,-371.17 1141.42,-356 1157.24,-341.87 1171.8,-322.38 1181.28,-308.43"/>
<polygon fill="midnightblue" stroke="midnightblue" points="1184.39,-310.07 1186.98,-299.79 1178.55,-306.21 1184.39,-310.07"/>
</g>
<!-- Node32 -->
<g id="node32" class="node">
<title>Node32</title>
<g id="a_node32"><a xlink:href="mxquaddraw_8h.html" target="_top" xlink:title=" ">
<polygon fill="none" stroke="black" points="875.92,-280.5 875.92,-299.5 954.92,-299.5 954.92,-280.5 875.92,-280.5"/>
<text text-anchor="middle" x="915.42" y="-287.5" font-family="Helvetica,sans-Serif" font-size="10.00">mxquaddraw.h</text>
</a>
</g>
</g>
<!-- Node31&#45;&gt;Node32 -->
<g id="edge54" class="edge">
<title>Node31&#45;&gt;Node32</title>
<path fill="none" stroke="midnightblue" d="M1033.24,-336.44C1009.99,-327.48 973.27,-313.31 947.01,-303.18"/>
<polygon fill="midnightblue" stroke="midnightblue" points="948.09,-299.85 937.5,-299.52 945.57,-306.38 948.09,-299.85"/>
</g>
<!-- Node33 -->
<g id="node33" class="node">
<title>Node33</title>
<g id="a_node33"><a xlink:href="mxthemeicons_8h.html" target="_top" xlink:title=" ">
<polygon fill="none" stroke="black" points="1011.92,-280.5 1011.92,-299.5 1098.92,-299.5 1098.92,-280.5 1011.92,-280.5"/>
<text text-anchor="middle" x="1055.42" y="-287.5" font-family="Helvetica,sans-Serif" font-size="10.00">mxthemeicons.h</text>
</a>
</g>
</g>
<!-- Node31&#45;&gt;Node33 -->
<g id="edge57" class="edge">
<title>Node31&#45;&gt;Node33</title>
<path fill="none" stroke="midnightblue" d="M1055.42,-336.08C1055.42,-329.01 1055.42,-318.86 1055.42,-309.99"/>
<polygon fill="midnightblue" stroke="midnightblue" points="1058.92,-309.75 1055.42,-299.75 1051.92,-309.75 1058.92,-309.75"/>
</g>
<!-- Node32&#45;&gt;Node19 -->
<g id="edge56" class="edge">
<title>Node32&#45;&gt;Node19</title>
<path fill="none" stroke="midnightblue" d="M915.42,-280.08C915.42,-273.01 915.42,-262.86 915.42,-253.99"/>
<polygon fill="midnightblue" stroke="midnightblue" points="918.92,-253.75 915.42,-243.75 911.92,-253.75 918.92,-253.75"/>
</g>
<!-- Node32&#45;&gt;Node24 -->
<g id="edge55" class="edge">
<title>Node32&#45;&gt;Node24</title>
<path fill="none" stroke="midnightblue" d="M875.91,-281.37C873.04,-280.89 870.19,-280.42 867.42,-280 746.1,-261.43 601.87,-246.12 531.82,-239.11"/>
<polygon fill="midnightblue" stroke="midnightblue" points="531.93,-235.61 521.63,-238.1 531.24,-242.57 531.93,-235.61"/>
</g>
<!-- Node34&#45;&gt;Node19 -->
<g id="edge60" class="edge">
<title>Node34&#45;&gt;Node19</title>
<path fill="none" stroke="midnightblue" d="M1155.35,-281.77C1102.28,-271.43 1005.22,-252.51 952.27,-242.18"/>
<polygon fill="midnightblue" stroke="midnightblue" points="952.78,-238.72 942.3,-240.24 951.44,-245.59 952.78,-238.72"/>
</g>
<!-- Node34&#45;&gt;Node20 -->
<g id="edge59" class="edge">
<title>Node34&#45;&gt;Node20</title>
<path fill="none" stroke="midnightblue" d="M1192.03,-280.37C1191.22,-262.62 1189.36,-221.67 1188.27,-197.6"/>
<polygon fill="midnightblue" stroke="midnightblue" points="1191.76,-197.42 1187.81,-187.59 1184.77,-197.74 1191.76,-197.42"/>
</g>
<!-- Node36&#45;&gt;Node5 -->
<g id="edge66" class="edge">
<title>Node36&#45;&gt;Node5</title>
<path fill="none" stroke="midnightblue" d="M1461.69,-448.44C1432,-439.28 1384.71,-424.69 1351.75,-414.52"/>
<polygon fill="midnightblue" stroke="midnightblue" points="1352.61,-411.12 1342.02,-411.52 1350.55,-417.81 1352.61,-411.12"/>
</g>
<!-- Node36&#45;&gt;Node19 -->
<g id="edge64" class="edge">
<title>Node36&#45;&gt;Node19</title>
<path fill="none" stroke="midnightblue" d="M1489.8,-448.25C1490.32,-427.56 1489.55,-374.46 1470.42,-336 1455.03,-305.04 1447.61,-294.93 1416.42,-280 1334.26,-240.66 1053.31,-235.55 952.12,-235.01"/>
<polygon fill="midnightblue" stroke="midnightblue" points="952.08,-231.51 942.06,-234.97 952.05,-238.51 952.08,-231.51"/>
</g>
<!-- Node36&#45;&gt;Node20 -->
<g id="edge65" class="edge">
<title>Node36&#45;&gt;Node20</title>
<path fill="none" stroke="midnightblue" d="M1494.71,-448.23C1505.15,-430.04 1527.42,-386.6 1527.42,-347 1527.42,-347 1527.42,-347 1527.42,-289 1527.42,-227.1 1320.82,-194.86 1229.72,-183.66"/>
<polygon fill="midnightblue" stroke="midnightblue" points="1230.06,-180.17 1219.72,-182.45 1229.23,-187.12 1230.06,-180.17"/>
</g>
</g>
</svg>
