<?xml version="1.0" encoding="UTF-8" standalone="no"?>
<!DOCTYPE svg PUBLIC "-//W3C//DTD SVG 1.1//EN"
 "http://www.w3.org/Graphics/SVG/1.1/DTD/svg11.dtd">
<!-- Generated by graphviz version 2.44.0 ()
 -->
<!-- Title: src/events/mxapplication.h Pages: 1 -->
<svg width="1410pt" height="476pt"
 viewBox="0.00 0.00 1409.50 476.00" xmlns="http://www.w3.org/2000/svg" xmlns:xlink="http://www.w3.org/1999/xlink">
<g id="graph0" class="graph" transform="scale(1 1) rotate(0) translate(4 472)">
<title>src/events/mxapplication.h</title>
<!-- Node1 -->
<g id="node1" class="node">
<title>Node1</title>
<g id="a_node1"><a xlink:title=" ">
<polygon fill="#bfbfbf" stroke="black" points="920.5,-448.5 920.5,-467.5 1052.5,-467.5 1052.5,-448.5 920.5,-448.5"/>
<text text-anchor="middle" x="986.5" y="-455.5" font-family="Helvetica,sans-Serif" font-size="10.00">src/events/mxapplication.h</text>
</a>
</g>
</g>
<!-- Node2 -->
<g id="node2" class="node">
<title>Node2</title>
<g id="a_node2"><a xlink:href="mxdebug_8h.html" target="_top" xlink:title=" ">
<polygon fill="none" stroke="black" points="732,-56.5 732,-75.5 795,-75.5 795,-56.5 732,-56.5"/>
<text text-anchor="middle" x="763.5" y="-63.5" font-family="Helvetica,sans-Serif" font-size="10.00">mxdebug.h</text>
</a>
</g>
</g>
<!-- Node1&#45;&gt;Node2 -->
<g id="edge1" class="edge">
<title>Node1&#45;&gt;Node2</title>
<path fill="none" stroke="midnightblue" d="M1036.49,-448.46C1118.72,-432.97 1273.5,-397.16 1273.5,-347 1273.5,-347 1273.5,-347 1273.5,-177 1273.5,-81.4 926.72,-68.67 805.07,-67.14"/>
<polygon fill="midnightblue" stroke="midnightblue" points="805.05,-63.64 795.02,-67.04 804.98,-70.64 805.05,-63.64"/>
</g>
<!-- Node4 -->
<g id="node4" class="node">
<title>Node4</title>
<g id="a_node4"><a xlink:href="mxwidgetlist_8h.html" target="_top" xlink:title=" ">
<polygon fill="none" stroke="black" points="728.5,-392.5 728.5,-411.5 806.5,-411.5 806.5,-392.5 728.5,-392.5"/>
<text text-anchor="middle" x="767.5" y="-399.5" font-family="Helvetica,sans-Serif" font-size="10.00">mxwidgetlist.h</text>
</a>
</g>
</g>
<!-- Node1&#45;&gt;Node4 -->
<g id="edge3" class="edge">
<title>Node1&#45;&gt;Node4</title>
<path fill="none" stroke="midnightblue" d="M951.8,-448.44C913.92,-439.1 853.15,-424.12 811.84,-413.93"/>
<polygon fill="midnightblue" stroke="midnightblue" points="812.59,-410.51 802.04,-411.52 810.91,-417.31 812.59,-410.51"/>
</g>
<!-- Node10 -->
<g id="node10" class="node">
<title>Node10</title>
<g id="a_node10"><a xlink:href="mxrenderer_8h.html" target="_top" xlink:title=" ">
<polygon fill="none" stroke="black" points="262.5,-392.5 262.5,-411.5 334.5,-411.5 334.5,-392.5 262.5,-392.5"/>
<text text-anchor="middle" x="298.5" y="-399.5" font-family="Helvetica,sans-Serif" font-size="10.00">mxrenderer.h</text>
</a>
</g>
</g>
<!-- Node1&#45;&gt;Node10 -->
<g id="edge10" class="edge">
<title>Node1&#45;&gt;Node10</title>
<path fill="none" stroke="midnightblue" d="M920.22,-451.8C781.61,-440.92 464.09,-416 344.87,-406.64"/>
<polygon fill="midnightblue" stroke="midnightblue" points="344.87,-403.13 334.63,-405.84 344.33,-410.11 344.87,-403.13"/>
</g>
<!-- Node26 -->
<g id="node26" class="node">
<title>Node26</title>
<g id="a_node26"><a xlink:href="mxmouseevent_8h.html" target="_top" xlink:title=" ">
<polygon fill="none" stroke="black" points="996.5,-392.5 996.5,-411.5 1086.5,-411.5 1086.5,-392.5 996.5,-392.5"/>
<text text-anchor="middle" x="1041.5" y="-399.5" font-family="Helvetica,sans-Serif" font-size="10.00">mxmouseevent.h</text>
</a>
</g>
</g>
<!-- Node1&#45;&gt;Node26 -->
<g id="edge44" class="edge">
<title>Node1&#45;&gt;Node26</title>
<path fill="none" stroke="midnightblue" d="M995.58,-448.08C1003.67,-440.14 1015.7,-428.34 1025.41,-418.8"/>
<polygon fill="midnightblue" stroke="midnightblue" points="1027.9,-421.25 1032.59,-411.75 1023,-416.26 1027.9,-421.25"/>
</g>
<!-- Node29 -->
<g id="node29" class="node">
<title>Node29</title>
<g id="a_node29"><a xlink:href="mxpainter_8h.html" target="_top" xlink:title=" ">
<polygon fill="none" stroke="black" points="905.5,-392.5 905.5,-411.5 971.5,-411.5 971.5,-392.5 905.5,-392.5"/>
<text text-anchor="middle" x="938.5" y="-399.5" font-family="Helvetica,sans-Serif" font-size="10.00">mxpainter.h</text>
</a>
</g>
</g>
<!-- Node1&#45;&gt;Node29 -->
<g id="edge48" class="edge">
<title>Node1&#45;&gt;Node29</title>
<path fill="none" stroke="midnightblue" d="M978.57,-448.08C971.65,-440.3 961.43,-428.8 953.05,-419.37"/>
<polygon fill="midnightblue" stroke="midnightblue" points="955.54,-416.9 946.28,-411.75 950.31,-421.55 955.54,-416.9"/>
</g>
<!-- Node34 -->
<g id="node34" class="node">
<title>Node34</title>
<g id="a_node34"><a xlink:href="mxguiaggregation_8h.html" target="_top" xlink:title=" ">
<polygon fill="none" stroke="black" points="1301.5,-392.5 1301.5,-411.5 1401.5,-411.5 1401.5,-392.5 1301.5,-392.5"/>
<text text-anchor="middle" x="1351.5" y="-399.5" font-family="Helvetica,sans-Serif" font-size="10.00">mxguiaggregation.h</text>
</a>
</g>
</g>
<!-- Node1&#45;&gt;Node34 -->
<g id="edge60" class="edge">
<title>Node1&#45;&gt;Node34</title>
<path fill="none" stroke="midnightblue" d="M1044.34,-448.44C1111.73,-438.47 1222.58,-422.07 1291.07,-411.94"/>
<polygon fill="midnightblue" stroke="midnightblue" points="1291.89,-415.36 1301.27,-410.43 1290.87,-408.43 1291.89,-415.36"/>
</g>
<!-- Node3 -->
<g id="node3" class="node">
<title>Node3</title>
<g id="a_node3"><a xlink:title=" ">
<polygon fill="none" stroke="#bfbfbf" points="737.5,-0.5 737.5,-19.5 789.5,-19.5 789.5,-0.5 737.5,-0.5"/>
<text text-anchor="middle" x="763.5" y="-7.5" font-family="Helvetica,sans-Serif" font-size="10.00">QDebug</text>
</a>
</g>
</g>
<!-- Node2&#45;&gt;Node3 -->
<g id="edge2" class="edge">
<title>Node2&#45;&gt;Node3</title>
<path fill="none" stroke="midnightblue" d="M763.5,-56.08C763.5,-49.01 763.5,-38.86 763.5,-29.99"/>
<polygon fill="midnightblue" stroke="midnightblue" points="767,-29.75 763.5,-19.75 760,-29.75 767,-29.75"/>
</g>
<!-- Node5 -->
<g id="node5" class="node">
<title>Node5</title>
<g id="a_node5"><a xlink:href="mxlist_8h.html" target="_top" xlink:title=" ">
<polygon fill="none" stroke="black" points="630.5,-336.5 630.5,-355.5 680.5,-355.5 680.5,-336.5 630.5,-336.5"/>
<text text-anchor="middle" x="655.5" y="-343.5" font-family="Helvetica,sans-Serif" font-size="10.00">mxlist.h</text>
</a>
</g>
</g>
<!-- Node4&#45;&gt;Node5 -->
<g id="edge4" class="edge">
<title>Node4&#45;&gt;Node5</title>
<path fill="none" stroke="midnightblue" d="M749.51,-392.32C731.46,-383.62 703.45,-370.12 682.7,-360.11"/>
<polygon fill="midnightblue" stroke="midnightblue" points="683.98,-356.84 673.45,-355.65 680.94,-363.15 683.98,-356.84"/>
</g>
<!-- Node5&#45;&gt;Node2 -->
<g id="edge5" class="edge">
<title>Node5&#45;&gt;Node2</title>
<path fill="none" stroke="midnightblue" d="M680.81,-341.99C725.93,-336.12 817.67,-321.8 840.5,-300 862.26,-279.21 859.5,-265.1 859.5,-235 859.5,-235 859.5,-235 859.5,-177 859.5,-146.05 854.12,-135.94 834.5,-112 823.35,-98.39 806.95,-87.62 792.72,-80.03"/>
<polygon fill="midnightblue" stroke="midnightblue" points="794.26,-76.89 783.76,-75.5 791.11,-83.14 794.26,-76.89"/>
</g>
<!-- Node6 -->
<g id="node6" class="node">
<title>Node6</title>
<g id="a_node6"><a xlink:href="mxrefcounter_8h.html" target="_top" xlink:title=" ">
<polygon fill="none" stroke="black" points="653.5,-280.5 653.5,-299.5 733.5,-299.5 733.5,-280.5 653.5,-280.5"/>
<text text-anchor="middle" x="693.5" y="-287.5" font-family="Helvetica,sans-Serif" font-size="10.00">mxrefcounter.h</text>
</a>
</g>
</g>
<!-- Node5&#45;&gt;Node6 -->
<g id="edge6" class="edge">
<title>Node5&#45;&gt;Node6</title>
<path fill="none" stroke="midnightblue" d="M661.77,-336.08C667.14,-328.46 675.02,-317.26 681.58,-307.94"/>
<polygon fill="midnightblue" stroke="midnightblue" points="684.45,-309.94 687.34,-299.75 678.72,-305.91 684.45,-309.94"/>
</g>
<!-- Node7 -->
<g id="node7" class="node">
<title>Node7</title>
<g id="a_node7"><a xlink:title=" ">
<polygon fill="none" stroke="#bfbfbf" points="468,-280.5 468,-299.5 515,-299.5 515,-280.5 468,-280.5"/>
<text text-anchor="middle" x="491.5" y="-287.5" font-family="Helvetica,sans-Serif" font-size="10.00">stdlib.h</text>
</a>
</g>
</g>
<!-- Node5&#45;&gt;Node7 -->
<g id="edge7" class="edge">
<title>Node5&#45;&gt;Node7</title>
<path fill="none" stroke="midnightblue" d="M630.23,-336.68C601.94,-327.36 555.97,-312.23 524.77,-301.95"/>
<polygon fill="midnightblue" stroke="midnightblue" points="525.79,-298.61 515.2,-298.8 523.6,-305.25 525.79,-298.61"/>
</g>
<!-- Node8 -->
<g id="node8" class="node">
<title>Node8</title>
<g id="a_node8"><a xlink:title=" ">
<polygon fill="none" stroke="#bfbfbf" points="533.5,-280.5 533.5,-299.5 581.5,-299.5 581.5,-280.5 533.5,-280.5"/>
<text text-anchor="middle" x="557.5" y="-287.5" font-family="Helvetica,sans-Serif" font-size="10.00">string.h</text>
</a>
</g>
</g>
<!-- Node5&#45;&gt;Node8 -->
<g id="edge8" class="edge">
<title>Node5&#45;&gt;Node8</title>
<path fill="none" stroke="midnightblue" d="M639.75,-336.32C624.18,-327.74 600.12,-314.49 582.04,-304.52"/>
<polygon fill="midnightblue" stroke="midnightblue" points="583.65,-301.42 573.21,-299.65 580.28,-307.55 583.65,-301.42"/>
</g>
<!-- Node9 -->
<g id="node9" class="node">
<title>Node9</title>
<g id="a_node9"><a xlink:title=" ">
<polygon fill="none" stroke="#bfbfbf" points="600,-280.5 600,-299.5 635,-299.5 635,-280.5 600,-280.5"/>
<text text-anchor="middle" x="617.5" y="-287.5" font-family="Helvetica,sans-Serif" font-size="10.00">new</text>
</a>
</g>
</g>
<!-- Node5&#45;&gt;Node9 -->
<g id="edge9" class="edge">
<title>Node5&#45;&gt;Node9</title>
<path fill="none" stroke="midnightblue" d="M649.23,-336.08C643.86,-328.46 635.98,-317.26 629.42,-307.94"/>
<polygon fill="midnightblue" stroke="midnightblue" points="632.28,-305.91 623.66,-299.75 626.55,-309.94 632.28,-305.91"/>
</g>
<!-- Node10&#45;&gt;Node5 -->
<g id="edge35" class="edge">
<title>Node10&#45;&gt;Node5</title>
<path fill="none" stroke="midnightblue" d="M334.7,-395.53C403.35,-385.14 551.69,-362.7 619.89,-352.39"/>
<polygon fill="midnightblue" stroke="midnightblue" points="620.76,-355.8 630.12,-350.84 619.71,-348.87 620.76,-355.8"/>
</g>
<!-- Node11 -->
<g id="node11" class="node">
<title>Node11</title>
<g id="a_node11"><a xlink:href="mxopenglfunctions_8h.html" target="_top" xlink:title=" ">
<polygon fill="none" stroke="black" points="10,-336.5 10,-355.5 115,-355.5 115,-336.5 10,-336.5"/>
<text text-anchor="middle" x="62.5" y="-343.5" font-family="Helvetica,sans-Serif" font-size="10.00">mxopenglfunctions.h</text>
</a>
</g>
</g>
<!-- Node10&#45;&gt;Node11 -->
<g id="edge11" class="edge">
<title>Node10&#45;&gt;Node11</title>
<path fill="none" stroke="midnightblue" d="M262.4,-392.74C221.46,-383.37 154.58,-368.07 109.58,-357.77"/>
<polygon fill="midnightblue" stroke="midnightblue" points="110.29,-354.35 99.77,-355.53 108.73,-361.17 110.29,-354.35"/>
</g>
<!-- Node13 -->
<g id="node13" class="node">
<title>Node13</title>
<g id="a_node13"><a xlink:href="mxcolorwheelprogram_8h.html" target="_top" xlink:title=" ">
<polygon fill="none" stroke="black" points="253,-224.5 253,-243.5 372,-243.5 372,-224.5 253,-224.5"/>
<text text-anchor="middle" x="312.5" y="-231.5" font-family="Helvetica,sans-Serif" font-size="10.00">mxcolorwheelprogram.h</text>
</a>
</g>
</g>
<!-- Node10&#45;&gt;Node13 -->
<g id="edge13" class="edge">
<title>Node10&#45;&gt;Node13</title>
<path fill="none" stroke="midnightblue" d="M294.9,-392.22C291.44,-383.28 286.47,-368.94 284.5,-356 279.43,-322.61 275.22,-312.48 284.5,-280 287.4,-269.84 293.33,-259.75 298.99,-251.7"/>
<polygon fill="midnightblue" stroke="midnightblue" points="301.88,-253.69 305.09,-243.59 296.28,-249.48 301.88,-253.69"/>
</g>
<!-- Node21 -->
<g id="node21" class="node">
<title>Node21</title>
<g id="a_node21"><a xlink:href="mxvectorprogram_8h.html" target="_top" xlink:title=" ">
<polygon fill="none" stroke="black" points="133,-336.5 133,-355.5 232,-355.5 232,-336.5 133,-336.5"/>
<text text-anchor="middle" x="182.5" y="-343.5" font-family="Helvetica,sans-Serif" font-size="10.00">mxvectorprogram.h</text>
</a>
</g>
</g>
<!-- Node10&#45;&gt;Node21 -->
<g id="edge26" class="edge">
<title>Node10&#45;&gt;Node21</title>
<path fill="none" stroke="midnightblue" d="M280.12,-392.44C261.28,-383.68 231.77,-369.94 210.12,-359.86"/>
<polygon fill="midnightblue" stroke="midnightblue" points="211.34,-356.56 200.79,-355.52 208.38,-362.91 211.34,-356.56"/>
</g>
<!-- Node23 -->
<g id="node23" class="node">
<title>Node23</title>
<g id="a_node23"><a xlink:href="mxcachedgpuarray_8h.html" target="_top" xlink:title=" ">
<polygon fill="none" stroke="black" points="499,-224.5 499,-243.5 604,-243.5 604,-224.5 499,-224.5"/>
<text text-anchor="middle" x="551.5" y="-231.5" font-family="Helvetica,sans-Serif" font-size="10.00">mxcachedgpuarray.h</text>
</a>
</g>
</g>
<!-- Node10&#45;&gt;Node23 -->
<g id="edge36" class="edge">
<title>Node10&#45;&gt;Node23</title>
<path fill="none" stroke="midnightblue" d="M299.99,-392.39C304.31,-370.07 319.04,-310 356.5,-280 367.39,-271.28 441.4,-255.78 495.03,-245.45"/>
<polygon fill="midnightblue" stroke="midnightblue" points="495.95,-248.83 505.12,-243.52 494.64,-241.96 495.95,-248.83"/>
</g>
<!-- Node25 -->
<g id="node25" class="node">
<title>Node25</title>
<g id="a_node25"><a xlink:href="mxiconprogram_8h.html" target="_top" xlink:title=" ">
<polygon fill="none" stroke="black" points="390.5,-224.5 390.5,-243.5 480.5,-243.5 480.5,-224.5 390.5,-224.5"/>
<text text-anchor="middle" x="435.5" y="-231.5" font-family="Helvetica,sans-Serif" font-size="10.00">mxiconprogram.h</text>
</a>
</g>
</g>
<!-- Node10&#45;&gt;Node25 -->
<g id="edge37" class="edge">
<title>Node10&#45;&gt;Node25</title>
<path fill="none" stroke="midnightblue" d="M300.7,-392.35C306.51,-370.96 324.11,-314.77 356.5,-280 369.42,-266.13 387.6,-255.37 403.26,-247.86"/>
<polygon fill="midnightblue" stroke="midnightblue" points="404.97,-250.93 412.62,-243.6 402.07,-244.56 404.97,-250.93"/>
</g>
<!-- Node12 -->
<g id="node12" class="node">
<title>Node12</title>
<g id="a_node12"><a xlink:title=" ">
<polygon fill="none" stroke="#bfbfbf" points="0,-280.5 0,-299.5 125,-299.5 125,-280.5 0,-280.5"/>
<text text-anchor="middle" x="62.5" y="-287.5" font-family="Helvetica,sans-Serif" font-size="10.00">QOpenGLExtraFunctions</text>
</a>
</g>
</g>
<!-- Node11&#45;&gt;Node12 -->
<g id="edge12" class="edge">
<title>Node11&#45;&gt;Node12</title>
<path fill="none" stroke="midnightblue" d="M62.5,-336.08C62.5,-329.01 62.5,-318.86 62.5,-309.99"/>
<polygon fill="midnightblue" stroke="midnightblue" points="66,-309.75 62.5,-299.75 59,-309.75 66,-309.75"/>
</g>
<!-- Node13&#45;&gt;Node2 -->
<g id="edge14" class="edge">
<title>Node13&#45;&gt;Node2</title>
<path fill="none" stroke="midnightblue" d="M372.06,-224.73C441.35,-214.74 548.37,-198.03 564.5,-188 600.13,-165.85 586.36,-136.39 620.5,-112 650.75,-90.39 691.77,-78.88 722.12,-72.94"/>
<polygon fill="midnightblue" stroke="midnightblue" points="722.77,-76.38 731.97,-71.13 721.5,-69.49 722.77,-76.38"/>
</g>
<!-- Node14 -->
<g id="node14" class="node">
<title>Node14</title>
<g id="a_node14"><a xlink:href="mxopengl_8h.html" target="_top" xlink:title=" ">
<polygon fill="none" stroke="black" points="381,-56.5 381,-75.5 446,-75.5 446,-56.5 381,-56.5"/>
<text text-anchor="middle" x="413.5" y="-63.5" font-family="Helvetica,sans-Serif" font-size="10.00">mxopengl.h</text>
</a>
</g>
</g>
<!-- Node13&#45;&gt;Node14 -->
<g id="edge15" class="edge">
<title>Node13&#45;&gt;Node14</title>
<path fill="none" stroke="midnightblue" d="M301.02,-224.46C291.13,-216.34 277.51,-203.12 271.5,-188 259.02,-156.61 250.52,-139.24 270.5,-112 293.21,-81.04 337.24,-70.82 370.47,-67.72"/>
<polygon fill="midnightblue" stroke="midnightblue" points="371.13,-71.18 380.84,-66.94 370.61,-64.2 371.13,-71.18"/>
</g>
<!-- Node15 -->
<g id="node15" class="node">
<title>Node15</title>
<g id="a_node15"><a xlink:href="mxshaderprogram_8h.html" target="_top" xlink:title=" ">
<polygon fill="none" stroke="black" points="402,-112.5 402,-131.5 503,-131.5 503,-112.5 402,-112.5"/>
<text text-anchor="middle" x="452.5" y="-119.5" font-family="Helvetica,sans-Serif" font-size="10.00">mxshaderprogram.h</text>
</a>
</g>
</g>
<!-- Node13&#45;&gt;Node15 -->
<g id="edge16" class="edge">
<title>Node13&#45;&gt;Node15</title>
<path fill="none" stroke="midnightblue" d="M323.49,-224.37C347.31,-205.65 403.94,-161.15 433.62,-137.83"/>
<polygon fill="midnightblue" stroke="midnightblue" points="435.86,-140.52 441.57,-131.59 431.54,-135.02 435.86,-140.52"/>
</g>
<!-- Node16 -->
<g id="node16" class="node">
<title>Node16</title>
<g id="a_node16"><a xlink:href="mxmatrix_8h.html" target="_top" xlink:title=" ">
<polygon fill="none" stroke="black" points="281,-168.5 281,-187.5 344,-187.5 344,-168.5 281,-168.5"/>
<text text-anchor="middle" x="312.5" y="-175.5" font-family="Helvetica,sans-Serif" font-size="10.00">mxmatrix.h</text>
</a>
</g>
</g>
<!-- Node13&#45;&gt;Node16 -->
<g id="edge19" class="edge">
<title>Node13&#45;&gt;Node16</title>
<path fill="none" stroke="midnightblue" d="M312.5,-224.08C312.5,-217.01 312.5,-206.86 312.5,-197.99"/>
<polygon fill="midnightblue" stroke="midnightblue" points="316,-197.75 312.5,-187.75 309,-197.75 316,-197.75"/>
</g>
<!-- Node18 -->
<g id="node18" class="node">
<title>Node18</title>
<g id="a_node18"><a xlink:href="mxrect_8h.html" target="_top" xlink:title=" ">
<polygon fill="none" stroke="black" points="667,-168.5 667,-187.5 720,-187.5 720,-168.5 667,-168.5"/>
<text text-anchor="middle" x="693.5" y="-175.5" font-family="Helvetica,sans-Serif" font-size="10.00">mxrect.h</text>
</a>
</g>
</g>
<!-- Node13&#45;&gt;Node18 -->
<g id="edge21" class="edge">
<title>Node13&#45;&gt;Node18</title>
<path fill="none" stroke="midnightblue" d="M372.03,-224.56C451.69,-213.27 590.58,-193.59 656.61,-184.23"/>
<polygon fill="midnightblue" stroke="midnightblue" points="657.15,-187.69 666.56,-182.82 656.16,-180.76 657.15,-187.69"/>
</g>
<!-- Node15&#45;&gt;Node2 -->
<g id="edge17" class="edge">
<title>Node15&#45;&gt;Node2</title>
<path fill="none" stroke="midnightblue" d="M501.78,-112.44C562.57,-101.89 664.84,-84.13 721.87,-74.23"/>
<polygon fill="midnightblue" stroke="midnightblue" points="722.72,-77.63 731.98,-72.47 721.52,-70.74 722.72,-77.63"/>
</g>
<!-- Node15&#45;&gt;Node14 -->
<g id="edge18" class="edge">
<title>Node15&#45;&gt;Node14</title>
<path fill="none" stroke="midnightblue" d="M446.06,-112.08C440.55,-104.46 432.47,-93.26 425.74,-83.94"/>
<polygon fill="midnightblue" stroke="midnightblue" points="428.51,-81.81 419.82,-75.75 422.84,-85.91 428.51,-81.81"/>
</g>
<!-- Node17 -->
<g id="node17" class="node">
<title>Node17</title>
<g id="a_node17"><a xlink:title=" ">
<polygon fill="none" stroke="#bfbfbf" points="280,-112.5 280,-131.5 345,-131.5 345,-112.5 280,-112.5"/>
<text text-anchor="middle" x="312.5" y="-119.5" font-family="Helvetica,sans-Serif" font-size="10.00">QMatrix4x4</text>
</a>
</g>
</g>
<!-- Node16&#45;&gt;Node17 -->
<g id="edge20" class="edge">
<title>Node16&#45;&gt;Node17</title>
<path fill="none" stroke="midnightblue" d="M312.5,-168.08C312.5,-161.01 312.5,-150.86 312.5,-141.99"/>
<polygon fill="midnightblue" stroke="midnightblue" points="316,-141.75 312.5,-131.75 309,-141.75 316,-141.75"/>
</g>
<!-- Node18&#45;&gt;Node2 -->
<g id="edge22" class="edge">
<title>Node18&#45;&gt;Node2</title>
<path fill="none" stroke="midnightblue" d="M698.99,-168.37C710.49,-150.3 737.3,-108.18 752.49,-84.31"/>
<polygon fill="midnightblue" stroke="midnightblue" points="755.62,-85.91 758.03,-75.59 749.71,-82.15 755.62,-85.91"/>
</g>
<!-- Node19 -->
<g id="node19" class="node">
<title>Node19</title>
<g id="a_node19"><a xlink:href="mxvector_8h.html" target="_top" xlink:title=" ">
<polygon fill="none" stroke="black" points="761.5,-112.5 761.5,-131.5 825.5,-131.5 825.5,-112.5 761.5,-112.5"/>
<text text-anchor="middle" x="793.5" y="-119.5" font-family="Helvetica,sans-Serif" font-size="10.00">mxvector.h</text>
</a>
</g>
</g>
<!-- Node18&#45;&gt;Node19 -->
<g id="edge23" class="edge">
<title>Node18&#45;&gt;Node19</title>
<path fill="none" stroke="midnightblue" d="M709.57,-168.32C725.46,-159.74 750.01,-146.49 768.46,-136.52"/>
<polygon fill="midnightblue" stroke="midnightblue" points="770.34,-139.49 777.47,-131.65 767.01,-133.33 770.34,-139.49"/>
</g>
<!-- Node20 -->
<g id="node20" class="node">
<title>Node20</title>
<g id="a_node20"><a xlink:title=" ">
<polygon fill="none" stroke="#bfbfbf" points="649.5,-112.5 649.5,-131.5 705.5,-131.5 705.5,-112.5 649.5,-112.5"/>
<text text-anchor="middle" x="677.5" y="-119.5" font-family="Helvetica,sans-Serif" font-size="10.00">algorithm</text>
</a>
</g>
</g>
<!-- Node18&#45;&gt;Node20 -->
<g id="edge25" class="edge">
<title>Node18&#45;&gt;Node20</title>
<path fill="none" stroke="midnightblue" d="M690.86,-168.08C688.71,-160.85 685.62,-150.41 682.95,-141.4"/>
<polygon fill="midnightblue" stroke="midnightblue" points="686.29,-140.34 680.09,-131.75 679.58,-142.33 686.29,-140.34"/>
</g>
<!-- Node19&#45;&gt;Node2 -->
<g id="edge24" class="edge">
<title>Node19&#45;&gt;Node2</title>
<path fill="none" stroke="midnightblue" d="M788.55,-112.08C784.4,-104.61 778.35,-93.72 773.23,-84.52"/>
<polygon fill="midnightblue" stroke="midnightblue" points="776.28,-82.79 768.36,-75.75 770.16,-86.19 776.28,-82.79"/>
</g>
<!-- Node21&#45;&gt;Node15 -->
<g id="edge27" class="edge">
<title>Node21&#45;&gt;Node15</title>
<path fill="none" stroke="midnightblue" d="M183.61,-336.39C185.41,-323.75 189.47,-299.55 196.5,-280 216.76,-223.62 220.85,-199.99 271.5,-168 307.66,-145.16 354.69,-133.91 391.74,-128.37"/>
<polygon fill="midnightblue" stroke="midnightblue" points="392.49,-131.8 401.91,-126.95 391.53,-124.86 392.49,-131.8"/>
</g>
<!-- Node21&#45;&gt;Node16 -->
<g id="edge28" class="edge">
<title>Node21&#45;&gt;Node16</title>
<path fill="none" stroke="midnightblue" d="M185.07,-336.48C191.76,-315.37 211.5,-259.76 243.5,-224 255.12,-211.01 271.32,-200.19 285.1,-192.42"/>
<polygon fill="midnightblue" stroke="midnightblue" points="287.02,-195.36 294.16,-187.53 283.7,-189.19 287.02,-195.36"/>
</g>
<!-- Node22 -->
<g id="node22" class="node">
<title>Node22</title>
<g id="a_node22"><a xlink:href="mxvectordraw_8h.html" target="_top" xlink:title=" ">
<polygon fill="none" stroke="black" points="365,-280.5 365,-299.5 450,-299.5 450,-280.5 365,-280.5"/>
<text text-anchor="middle" x="407.5" y="-287.5" font-family="Helvetica,sans-Serif" font-size="10.00">mxvectordraw.h</text>
</a>
</g>
</g>
<!-- Node21&#45;&gt;Node22 -->
<g id="edge29" class="edge">
<title>Node21&#45;&gt;Node22</title>
<path fill="none" stroke="midnightblue" d="M218.15,-336.44C257.16,-327.08 319.77,-312.06 362.22,-301.87"/>
<polygon fill="midnightblue" stroke="midnightblue" points="363.11,-305.25 372.01,-299.52 361.47,-298.45 363.11,-305.25"/>
</g>
<!-- Node22&#45;&gt;Node18 -->
<g id="edge34" class="edge">
<title>Node22&#45;&gt;Node18</title>
<path fill="none" stroke="midnightblue" d="M450.07,-280.8C506.02,-269.85 598.9,-251.03 613.5,-244 638.8,-231.82 663.15,-210.14 678.2,-195.19"/>
<polygon fill="midnightblue" stroke="midnightblue" points="681.06,-197.28 685.55,-187.68 676.06,-192.38 681.06,-197.28"/>
</g>
<!-- Node22&#45;&gt;Node23 -->
<g id="edge30" class="edge">
<title>Node22&#45;&gt;Node23</title>
<path fill="none" stroke="midnightblue" d="M430.32,-280.44C454.33,-271.44 492.33,-257.19 519.37,-247.05"/>
<polygon fill="midnightblue" stroke="midnightblue" points="520.66,-250.3 528.79,-243.52 518.2,-243.75 520.66,-250.3"/>
</g>
<!-- Node24 -->
<g id="node24" class="node">
<title>Node24</title>
<g id="a_node24"><a xlink:href="mxgpuarray_8h.html" target="_top" xlink:title=" ">
<polygon fill="none" stroke="black" points="481.5,-168.5 481.5,-187.5 555.5,-187.5 555.5,-168.5 481.5,-168.5"/>
<text text-anchor="middle" x="518.5" y="-175.5" font-family="Helvetica,sans-Serif" font-size="10.00">mxgpuarray.h</text>
</a>
</g>
</g>
<!-- Node23&#45;&gt;Node24 -->
<g id="edge31" class="edge">
<title>Node23&#45;&gt;Node24</title>
<path fill="none" stroke="midnightblue" d="M546.05,-224.08C541.49,-216.61 534.83,-205.72 529.21,-196.52"/>
<polygon fill="midnightblue" stroke="midnightblue" points="532.05,-194.46 523.85,-187.75 526.08,-198.11 532.05,-194.46"/>
</g>
<!-- Node24&#45;&gt;Node14 -->
<g id="edge32" class="edge">
<title>Node24&#45;&gt;Node14</title>
<path fill="none" stroke="midnightblue" d="M520.28,-168.06C522.44,-154.57 524.45,-128.81 512.5,-112 499.24,-93.36 476.36,-82.28 455.93,-75.78"/>
<polygon fill="midnightblue" stroke="midnightblue" points="456.72,-72.37 446.15,-72.95 454.78,-79.1 456.72,-72.37"/>
</g>
<!-- Node24&#45;&gt;Node15 -->
<g id="edge33" class="edge">
<title>Node24&#45;&gt;Node15</title>
<path fill="none" stroke="midnightblue" d="M507.9,-168.32C498.04,-160.26 483.15,-148.08 471.28,-138.37"/>
<polygon fill="midnightblue" stroke="midnightblue" points="473.25,-135.46 463.3,-131.83 468.82,-140.88 473.25,-135.46"/>
</g>
<!-- Node25&#45;&gt;Node2 -->
<g id="edge38" class="edge">
<title>Node25&#45;&gt;Node2</title>
<path fill="none" stroke="midnightblue" d="M480.56,-224.51C521.88,-216.01 579.33,-202.2 597.5,-188 628.08,-164.1 610.9,-137.1 640.5,-112 663.7,-92.33 696.23,-80.93 722.01,-74.53"/>
<polygon fill="midnightblue" stroke="midnightblue" points="722.93,-77.91 731.88,-72.24 721.35,-71.09 722.93,-77.91"/>
</g>
<!-- Node25&#45;&gt;Node14 -->
<g id="edge41" class="edge">
<title>Node25&#45;&gt;Node14</title>
<path fill="none" stroke="midnightblue" d="M430.57,-224.45C421.11,-207.5 400.71,-168.13 393.5,-132 391.76,-123.28 391.65,-120.7 393.5,-112 395.5,-102.59 399.6,-92.76 403.57,-84.7"/>
<polygon fill="midnightblue" stroke="midnightblue" points="406.81,-86.07 408.37,-75.59 400.61,-82.81 406.81,-86.07"/>
</g>
<!-- Node25&#45;&gt;Node15 -->
<g id="edge42" class="edge">
<title>Node25&#45;&gt;Node15</title>
<path fill="none" stroke="midnightblue" d="M436.83,-224.37C439.58,-206.62 445.91,-165.67 449.63,-141.6"/>
<polygon fill="midnightblue" stroke="midnightblue" points="453.1,-142.01 451.17,-131.59 446.19,-140.94 453.1,-142.01"/>
</g>
<!-- Node25&#45;&gt;Node16 -->
<g id="edge39" class="edge">
<title>Node25&#45;&gt;Node16</title>
<path fill="none" stroke="midnightblue" d="M416.01,-224.44C395.86,-215.6 364.18,-201.69 341.17,-191.59"/>
<polygon fill="midnightblue" stroke="midnightblue" points="342.46,-188.33 331.9,-187.52 339.65,-194.74 342.46,-188.33"/>
</g>
<!-- Node25&#45;&gt;Node18 -->
<g id="edge43" class="edge">
<title>Node25&#45;&gt;Node18</title>
<path fill="none" stroke="midnightblue" d="M476.38,-224.44C526.15,-214.03 609.45,-196.59 657.1,-186.62"/>
<polygon fill="midnightblue" stroke="midnightblue" points="657.92,-190.02 666.99,-184.55 656.48,-183.17 657.92,-190.02"/>
</g>
<!-- Node25&#45;&gt;Node19 -->
<g id="edge40" class="edge">
<title>Node25&#45;&gt;Node19</title>
<path fill="none" stroke="midnightblue" d="M480.52,-225.59C483.89,-225.04 487.25,-224.51 490.5,-224 596.62,-207.33 633.79,-236.78 729.5,-188 751.23,-176.92 769.98,-155.64 781.47,-140.45"/>
<polygon fill="midnightblue" stroke="midnightblue" points="784.62,-142.07 787.65,-131.92 778.95,-137.97 784.62,-142.07"/>
</g>
<!-- Node26&#45;&gt;Node19 -->
<g id="edge45" class="edge">
<title>Node26&#45;&gt;Node19</title>
<path fill="none" stroke="midnightblue" d="M1041.5,-392.44C1041.5,-373.94 1041.5,-328.81 1041.5,-291 1041.5,-291 1041.5,-291 1041.5,-233 1041.5,-144.18 906.94,-126.53 836.05,-123.39"/>
<polygon fill="midnightblue" stroke="midnightblue" points="835.79,-119.88 825.67,-123.01 835.53,-126.87 835.79,-119.88"/>
</g>
<!-- Node27 -->
<g id="node27" class="node">
<title>Node27</title>
<g id="a_node27"><a xlink:href="mxmouseeventabstraction_8h.html" target="_top" xlink:title=" ">
<polygon fill="none" stroke="black" points="1107.5,-336.5 1107.5,-355.5 1245.5,-355.5 1245.5,-336.5 1107.5,-336.5"/>
<text text-anchor="middle" x="1176.5" y="-343.5" font-family="Helvetica,sans-Serif" font-size="10.00">mxmouseeventabstraction.h</text>
</a>
</g>
</g>
<!-- Node26&#45;&gt;Node27 -->
<g id="edge46" class="edge">
<title>Node26&#45;&gt;Node27</title>
<path fill="none" stroke="midnightblue" d="M1062.89,-392.44C1085.21,-383.52 1120.4,-369.44 1145.71,-359.32"/>
<polygon fill="midnightblue" stroke="midnightblue" points="1147.22,-362.48 1155.21,-355.52 1144.62,-355.98 1147.22,-362.48"/>
</g>
<!-- Node28 -->
<g id="node28" class="node">
<title>Node28</title>
<g id="a_node28"><a xlink:title=" ">
<polygon fill="none" stroke="#bfbfbf" points="1162,-280.5 1162,-299.5 1191,-299.5 1191,-280.5 1162,-280.5"/>
<text text-anchor="middle" x="1176.5" y="-287.5" font-family="Helvetica,sans-Serif" font-size="10.00">Qt</text>
</a>
</g>
</g>
<!-- Node27&#45;&gt;Node28 -->
<g id="edge47" class="edge">
<title>Node27&#45;&gt;Node28</title>
<path fill="none" stroke="midnightblue" d="M1176.5,-336.08C1176.5,-329.01 1176.5,-318.86 1176.5,-309.99"/>
<polygon fill="midnightblue" stroke="midnightblue" points="1180,-309.75 1176.5,-299.75 1173,-309.75 1180,-309.75"/>
</g>
<!-- Node29&#45;&gt;Node2 -->
<g id="edge49" class="edge">
<title>Node29&#45;&gt;Node2</title>
<path fill="none" stroke="midnightblue" d="M968.4,-392.45C1009.79,-378.56 1079.5,-346.89 1079.5,-291 1079.5,-291 1079.5,-291 1079.5,-177 1079.5,-119.57 891.01,-85.24 805.18,-72.58"/>
<polygon fill="midnightblue" stroke="midnightblue" points="805.64,-69.11 795.25,-71.14 804.64,-76.04 805.64,-69.11"/>
</g>
<!-- Node29&#45;&gt;Node5 -->
<g id="edge59" class="edge">
<title>Node29&#45;&gt;Node5</title>
<path fill="none" stroke="midnightblue" d="M905.48,-394.7C851.79,-384.45 746.01,-364.27 690.85,-353.74"/>
<polygon fill="midnightblue" stroke="midnightblue" points="691.32,-350.27 680.84,-351.84 690.01,-357.15 691.32,-350.27"/>
</g>
<!-- Node29&#45;&gt;Node22 -->
<g id="edge50" class="edge">
<title>Node29&#45;&gt;Node22</title>
<path fill="none" stroke="midnightblue" d="M905.34,-397.99C847.32,-392.35 723.8,-378.66 621.5,-356 556.53,-341.61 482.65,-317.36 440.9,-302.9"/>
<polygon fill="midnightblue" stroke="midnightblue" points="441.85,-299.52 431.25,-299.53 439.54,-306.13 441.85,-299.52"/>
</g>
<!-- Node30 -->
<g id="node30" class="node">
<title>Node30</title>
<g id="a_node30"><a xlink:href="mxicondraw_8h.html" target="_top" xlink:title=" ">
<polygon fill="none" stroke="black" points="893.5,-336.5 893.5,-355.5 969.5,-355.5 969.5,-336.5 893.5,-336.5"/>
<text text-anchor="middle" x="931.5" y="-343.5" font-family="Helvetica,sans-Serif" font-size="10.00">mxicondraw.h</text>
</a>
</g>
</g>
<!-- Node29&#45;&gt;Node30 -->
<g id="edge51" class="edge">
<title>Node29&#45;&gt;Node30</title>
<path fill="none" stroke="midnightblue" d="M937.34,-392.08C936.42,-384.93 935.08,-374.64 933.92,-365.69"/>
<polygon fill="midnightblue" stroke="midnightblue" points="937.39,-365.22 932.63,-355.75 930.45,-366.12 937.39,-365.22"/>
</g>
<!-- Node33 -->
<g id="node33" class="node">
<title>Node33</title>
<g id="a_node33"><a xlink:href="mxtextdraw_8h.html" target="_top" xlink:title=" ">
<polygon fill="none" stroke="black" points="756.5,-224.5 756.5,-243.5 830.5,-243.5 830.5,-224.5 756.5,-224.5"/>
<text text-anchor="middle" x="793.5" y="-231.5" font-family="Helvetica,sans-Serif" font-size="10.00">mxtextdraw.h</text>
</a>
</g>
</g>
<!-- Node29&#45;&gt;Node33 -->
<g id="edge56" class="edge">
<title>Node29&#45;&gt;Node33</title>
<path fill="none" stroke="midnightblue" d="M949.39,-392.27C958.83,-384.01 971.98,-370.72 978.5,-356 992.21,-325.02 1005.53,-306.56 984.5,-280 966.89,-257.76 891.37,-245.41 840.73,-239.5"/>
<polygon fill="midnightblue" stroke="midnightblue" points="840.98,-236 830.65,-238.37 840.19,-242.96 840.98,-236"/>
</g>
<!-- Node31 -->
<g id="node31" class="node">
<title>Node31</title>
<g id="a_node31"><a xlink:href="mxquaddraw_8h.html" target="_top" xlink:title=" ">
<polygon fill="none" stroke="black" points="752,-280.5 752,-299.5 831,-299.5 831,-280.5 752,-280.5"/>
<text text-anchor="middle" x="791.5" y="-287.5" font-family="Helvetica,sans-Serif" font-size="10.00">mxquaddraw.h</text>
</a>
</g>
</g>
<!-- Node30&#45;&gt;Node31 -->
<g id="edge52" class="edge">
<title>Node30&#45;&gt;Node31</title>
<path fill="none" stroke="midnightblue" d="M909.32,-336.44C886.07,-327.48 849.35,-313.31 823.08,-303.18"/>
<polygon fill="midnightblue" stroke="midnightblue" points="824.17,-299.85 813.58,-299.52 821.65,-306.38 824.17,-299.85"/>
</g>
<!-- Node32 -->
<g id="node32" class="node">
<title>Node32</title>
<g id="a_node32"><a xlink:href="mxthemeicons_8h.html" target="_top" xlink:title=" ">
<polygon fill="none" stroke="black" points="888,-280.5 888,-299.5 975,-299.5 975,-280.5 888,-280.5"/>
<text text-anchor="middle" x="931.5" y="-287.5" font-family="Helvetica,sans-Serif" font-size="10.00">mxthemeicons.h</text>
</a>
</g>
</g>
<!-- Node30&#45;&gt;Node32 -->
<g id="edge55" class="edge">
<title>Node30&#45;&gt;Node32</title>
<path fill="none" stroke="midnightblue" d="M931.5,-336.08C931.5,-329.01 931.5,-318.86 931.5,-309.99"/>
<polygon fill="midnightblue" stroke="midnightblue" points="935,-309.75 931.5,-299.75 928,-309.75 935,-309.75"/>
</g>
<!-- Node31&#45;&gt;Node18 -->
<g id="edge54" class="edge">
<title>Node31&#45;&gt;Node18</title>
<path fill="none" stroke="midnightblue" d="M782.52,-280.24C773.47,-271.32 759.21,-256.98 747.5,-244 732.99,-227.91 717.26,-208.76 706.54,-195.43"/>
<polygon fill="midnightblue" stroke="midnightblue" points="709.25,-193.22 700.28,-187.6 703.79,-197.6 709.25,-193.22"/>
</g>
<!-- Node31&#45;&gt;Node23 -->
<g id="edge53" class="edge">
<title>Node31&#45;&gt;Node23</title>
<path fill="none" stroke="midnightblue" d="M753.47,-280.44C711.69,-271.04 644.52,-255.93 599.23,-245.74"/>
<polygon fill="midnightblue" stroke="midnightblue" points="599.88,-242.3 589.35,-243.52 598.34,-249.13 599.88,-242.3"/>
</g>
<!-- Node33&#45;&gt;Node18 -->
<g id="edge58" class="edge">
<title>Node33&#45;&gt;Node18</title>
<path fill="none" stroke="midnightblue" d="M777.43,-224.32C761.54,-215.74 736.99,-202.49 718.54,-192.52"/>
<polygon fill="midnightblue" stroke="midnightblue" points="719.99,-189.33 709.53,-187.65 716.66,-195.49 719.99,-189.33"/>
</g>
<!-- Node33&#45;&gt;Node19 -->
<g id="edge57" class="edge">
<title>Node33&#45;&gt;Node19</title>
<path fill="none" stroke="midnightblue" d="M793.5,-224.37C793.5,-206.62 793.5,-165.67 793.5,-141.6"/>
<polygon fill="midnightblue" stroke="midnightblue" points="797,-141.59 793.5,-131.59 790,-141.59 797,-141.59"/>
</g>
</g>
</svg>
