<?xml version="1.0" encoding="UTF-8" standalone="no"?>
<!DOCTYPE svg PUBLIC "-//W3C//DTD SVG 1.1//EN"
 "http://www.w3.org/Graphics/SVG/1.1/DTD/svg11.dtd">
<!-- Generated by graphviz version 2.44.0 ()
 -->
<!-- Title: src/events/mxapplication.cpp Pages: 1 -->
<svg width="1348pt" height="420pt"
 viewBox="0.00 0.00 1348.00 420.00" xmlns="http://www.w3.org/2000/svg" xmlns:xlink="http://www.w3.org/1999/xlink">
<g id="graph0" class="graph" transform="scale(1 1) rotate(0) translate(4 416)">
<title>src/events/mxapplication.cpp</title>
<!-- Node1 -->
<g id="node1" class="node">
<title>Node1</title>
<g id="a_node1"><a xlink:title=" ">
<polygon fill="#bfbfbf" stroke="black" points="440.5,-392.5 440.5,-411.5 583.5,-411.5 583.5,-392.5 440.5,-392.5"/>
<text text-anchor="middle" x="512" y="-399.5" font-family="Helvetica,sans-Serif" font-size="10.00">src/events/mxapplication.cpp</text>
</a>
</g>
</g>
<!-- Node2 -->
<g id="node2" class="node">
<title>Node2</title>
<g id="a_node2"><a xlink:title=" ">
<polygon fill="none" stroke="#bfbfbf" points="793.5,-0.5 793.5,-19.5 856.5,-19.5 856.5,-0.5 793.5,-0.5"/>
<text text-anchor="middle" x="825" y="-7.5" font-family="Helvetica,sans-Serif" font-size="10.00">mxdebug.h</text>
</a>
</g>
</g>
<!-- Node1&#45;&gt;Node2 -->
<g id="edge1" class="edge">
<title>Node1&#45;&gt;Node2</title>
<path fill="none" stroke="midnightblue" d="M440.27,-400.38C299.36,-397.2 0,-379.99 0,-291 0,-291 0,-291 0,-121 0,-41.12 615.57,-17.16 783.26,-12.12"/>
<polygon fill="midnightblue" stroke="midnightblue" points="783.52,-15.61 793.42,-11.82 783.32,-8.62 783.52,-15.61"/>
</g>
<!-- Node3 -->
<g id="node3" class="node">
<title>Node3</title>
<g id="a_node3"><a xlink:href="mxapplication_8h.html" target="_top" xlink:title=" ">
<polygon fill="none" stroke="black" points="470.5,-336.5 470.5,-355.5 553.5,-355.5 553.5,-336.5 470.5,-336.5"/>
<text text-anchor="middle" x="512" y="-343.5" font-family="Helvetica,sans-Serif" font-size="10.00">mxapplication.h</text>
</a>
</g>
</g>
<!-- Node1&#45;&gt;Node3 -->
<g id="edge2" class="edge">
<title>Node1&#45;&gt;Node3</title>
<path fill="none" stroke="midnightblue" d="M512,-392.08C512,-385.01 512,-374.86 512,-365.99"/>
<polygon fill="midnightblue" stroke="midnightblue" points="515.5,-365.75 512,-355.75 508.5,-365.75 515.5,-365.75"/>
</g>
<!-- Node32 -->
<g id="node32" class="node">
<title>Node32</title>
<g id="a_node32"><a xlink:href="mxwidget_8h.html" target="_top" xlink:title=" ">
<polygon fill="none" stroke="black" points="995.5,-168.5 995.5,-187.5 1060.5,-187.5 1060.5,-168.5 995.5,-168.5"/>
<text text-anchor="middle" x="1028" y="-175.5" font-family="Helvetica,sans-Serif" font-size="10.00">mxwidget.h</text>
</a>
</g>
</g>
<!-- Node1&#45;&gt;Node32 -->
<g id="edge49" class="edge">
<title>Node1&#45;&gt;Node32</title>
<path fill="none" stroke="midnightblue" d="M568.4,-392.45C645.88,-379.35 788.44,-350.4 901,-300 941.95,-281.66 953.33,-275.78 985,-244 998.99,-229.96 1011.04,-210.71 1018.8,-196.81"/>
<polygon fill="midnightblue" stroke="midnightblue" points="1022,-198.25 1023.66,-187.78 1015.84,-194.93 1022,-198.25"/>
</g>
<!-- Node3&#45;&gt;Node2 -->
<g id="edge3" class="edge">
<title>Node3&#45;&gt;Node2</title>
<path fill="none" stroke="midnightblue" d="M470.38,-337.63C392.38,-322.61 232,-285.6 232,-235 232,-235 232,-235 232,-121 232,-64.87 647.99,-25.6 783.14,-14.32"/>
<polygon fill="midnightblue" stroke="midnightblue" points="783.44,-17.81 793.12,-13.5 782.86,-10.83 783.44,-17.81"/>
</g>
<!-- Node4 -->
<g id="node4" class="node">
<title>Node4</title>
<g id="a_node4"><a xlink:href="mxwidgetlist_8h.html" target="_top" xlink:title=" ">
<polygon fill="none" stroke="black" points="1118,-112.5 1118,-131.5 1196,-131.5 1196,-112.5 1118,-112.5"/>
<text text-anchor="middle" x="1157" y="-119.5" font-family="Helvetica,sans-Serif" font-size="10.00">mxwidgetlist.h</text>
</a>
</g>
</g>
<!-- Node3&#45;&gt;Node4 -->
<g id="edge4" class="edge">
<title>Node3&#45;&gt;Node4</title>
<path fill="none" stroke="midnightblue" d="M553.68,-344.37C625.76,-342.36 777.81,-334.05 901,-300 1017.57,-267.78 1077.31,-285.4 1149,-188 1158.79,-174.71 1160.04,-155.58 1159.3,-141.52"/>
<polygon fill="midnightblue" stroke="midnightblue" points="1162.78,-141.18 1158.4,-131.53 1155.81,-141.81 1162.78,-141.18"/>
</g>
<!-- Node10 -->
<g id="node10" class="node">
<title>Node10</title>
<g id="a_node10"><a xlink:href="mxguirenderer_8h.html" target="_top" xlink:title=" ">
<polygon fill="none" stroke="black" points="414.5,-280.5 414.5,-299.5 499.5,-299.5 499.5,-280.5 414.5,-280.5"/>
<text text-anchor="middle" x="457" y="-287.5" font-family="Helvetica,sans-Serif" font-size="10.00">mxguirenderer.h</text>
</a>
</g>
</g>
<!-- Node3&#45;&gt;Node10 -->
<g id="edge11" class="edge">
<title>Node3&#45;&gt;Node10</title>
<path fill="none" stroke="midnightblue" d="M502.92,-336.08C494.83,-328.14 482.8,-316.34 473.09,-306.8"/>
<polygon fill="midnightblue" stroke="midnightblue" points="475.5,-304.26 465.91,-299.75 470.6,-309.25 475.5,-304.26"/>
</g>
<!-- Node16 -->
<g id="node16" class="node">
<title>Node16</title>
<g id="a_node16"><a xlink:href="mxmouseevent_8h.html" target="_top" xlink:title=" ">
<polygon fill="none" stroke="black" points="90,-280.5 90,-299.5 180,-299.5 180,-280.5 90,-280.5"/>
<text text-anchor="middle" x="135" y="-287.5" font-family="Helvetica,sans-Serif" font-size="10.00">mxmouseevent.h</text>
</a>
</g>
</g>
<!-- Node3&#45;&gt;Node16 -->
<g id="edge17" class="edge">
<title>Node3&#45;&gt;Node16</title>
<path fill="none" stroke="midnightblue" d="M470.21,-339.01C402.01,-329.25 266.74,-309.87 190.54,-298.95"/>
<polygon fill="midnightblue" stroke="midnightblue" points="190.58,-295.43 180.19,-297.47 189.59,-302.36 190.58,-295.43"/>
</g>
<!-- Node19 -->
<g id="node19" class="node">
<title>Node19</title>
<g id="a_node19"><a xlink:href="mxpainter_8h.html" target="_top" xlink:title=" ">
<polygon fill="none" stroke="black" points="826,-280.5 826,-299.5 892,-299.5 892,-280.5 826,-280.5"/>
<text text-anchor="middle" x="859" y="-287.5" font-family="Helvetica,sans-Serif" font-size="10.00">mxpainter.h</text>
</a>
</g>
</g>
<!-- Node3&#45;&gt;Node19 -->
<g id="edge21" class="edge">
<title>Node3&#45;&gt;Node19</title>
<path fill="none" stroke="midnightblue" d="M553.51,-338.54C619.59,-328.26 748.11,-308.26 815.45,-297.78"/>
<polygon fill="midnightblue" stroke="midnightblue" points="816.37,-301.18 825.71,-296.18 815.29,-294.26 816.37,-301.18"/>
</g>
<!-- Node31 -->
<g id="node31" class="node">
<title>Node31</title>
<g id="a_node31"><a xlink:href="mxguiaggregation_8h.html" target="_top" xlink:title=" ">
<polygon fill="none" stroke="black" points="518,-280.5 518,-299.5 618,-299.5 618,-280.5 518,-280.5"/>
<text text-anchor="middle" x="568" y="-287.5" font-family="Helvetica,sans-Serif" font-size="10.00">mxguiaggregation.h</text>
</a>
</g>
</g>
<!-- Node3&#45;&gt;Node31 -->
<g id="edge48" class="edge">
<title>Node3&#45;&gt;Node31</title>
<path fill="none" stroke="midnightblue" d="M521,-336.32C529.19,-328.42 541.51,-316.55 551.47,-306.94"/>
<polygon fill="midnightblue" stroke="midnightblue" points="554.07,-309.29 558.84,-299.83 549.21,-304.26 554.07,-309.29"/>
</g>
<!-- Node5 -->
<g id="node5" class="node">
<title>Node5</title>
<g id="a_node5"><a xlink:href="mxlist_8h.html" target="_top" xlink:title=" ">
<polygon fill="none" stroke="black" points="1199,-56.5 1199,-75.5 1249,-75.5 1249,-56.5 1199,-56.5"/>
<text text-anchor="middle" x="1224" y="-63.5" font-family="Helvetica,sans-Serif" font-size="10.00">mxlist.h</text>
</a>
</g>
</g>
<!-- Node4&#45;&gt;Node5 -->
<g id="edge5" class="edge">
<title>Node4&#45;&gt;Node5</title>
<path fill="none" stroke="midnightblue" d="M1167.76,-112.32C1177.77,-104.26 1192.89,-92.08 1204.93,-82.37"/>
<polygon fill="midnightblue" stroke="midnightblue" points="1207.45,-84.83 1213.04,-75.83 1203.06,-79.38 1207.45,-84.83"/>
</g>
<!-- Node5&#45;&gt;Node2 -->
<g id="edge6" class="edge">
<title>Node5&#45;&gt;Node2</title>
<path fill="none" stroke="midnightblue" d="M1198.74,-61.58C1131.79,-52.52 949.32,-27.82 866.67,-16.64"/>
<polygon fill="midnightblue" stroke="midnightblue" points="867.01,-13.15 856.63,-15.28 866.07,-20.09 867.01,-13.15"/>
</g>
<!-- Node6 -->
<g id="node6" class="node">
<title>Node6</title>
<g id="a_node6"><a xlink:href="mxrefcounter_8h.html" target="_top" xlink:title=" ">
<polygon fill="none" stroke="black" points="1260,-0.5 1260,-19.5 1340,-19.5 1340,-0.5 1260,-0.5"/>
<text text-anchor="middle" x="1300" y="-7.5" font-family="Helvetica,sans-Serif" font-size="10.00">mxrefcounter.h</text>
</a>
</g>
</g>
<!-- Node5&#45;&gt;Node6 -->
<g id="edge7" class="edge">
<title>Node5&#45;&gt;Node6</title>
<path fill="none" stroke="midnightblue" d="M1236.21,-56.32C1247.78,-48.11 1265.38,-35.6 1279.16,-25.81"/>
<polygon fill="midnightblue" stroke="midnightblue" points="1281.44,-28.48 1287.57,-19.83 1277.39,-22.77 1281.44,-28.48"/>
</g>
<!-- Node7 -->
<g id="node7" class="node">
<title>Node7</title>
<g id="a_node7"><a xlink:title=" ">
<polygon fill="none" stroke="#bfbfbf" points="1141.5,-0.5 1141.5,-19.5 1188.5,-19.5 1188.5,-0.5 1141.5,-0.5"/>
<text text-anchor="middle" x="1165" y="-7.5" font-family="Helvetica,sans-Serif" font-size="10.00">stdlib.h</text>
</a>
</g>
</g>
<!-- Node5&#45;&gt;Node7 -->
<g id="edge8" class="edge">
<title>Node5&#45;&gt;Node7</title>
<path fill="none" stroke="midnightblue" d="M1214.52,-56.32C1205.8,-48.34 1192.66,-36.31 1182.1,-26.65"/>
<polygon fill="midnightblue" stroke="midnightblue" points="1184.39,-24 1174.65,-19.83 1179.67,-29.17 1184.39,-24"/>
</g>
<!-- Node8 -->
<g id="node8" class="node">
<title>Node8</title>
<g id="a_node8"><a xlink:title=" ">
<polygon fill="none" stroke="#bfbfbf" points="1075,-0.5 1075,-19.5 1123,-19.5 1123,-0.5 1075,-0.5"/>
<text text-anchor="middle" x="1099" y="-7.5" font-family="Helvetica,sans-Serif" font-size="10.00">string.h</text>
</a>
</g>
</g>
<!-- Node5&#45;&gt;Node8 -->
<g id="edge9" class="edge">
<title>Node5&#45;&gt;Node8</title>
<path fill="none" stroke="midnightblue" d="M1204.19,-56.44C1183.71,-47.6 1151.52,-33.69 1128.14,-23.59"/>
<polygon fill="midnightblue" stroke="midnightblue" points="1129.28,-20.27 1118.71,-19.52 1126.51,-26.7 1129.28,-20.27"/>
</g>
<!-- Node9 -->
<g id="node9" class="node">
<title>Node9</title>
<g id="a_node9"><a xlink:title=" ">
<polygon fill="none" stroke="#bfbfbf" points="1206.5,-0.5 1206.5,-19.5 1241.5,-19.5 1241.5,-0.5 1206.5,-0.5"/>
<text text-anchor="middle" x="1224" y="-7.5" font-family="Helvetica,sans-Serif" font-size="10.00">new</text>
</a>
</g>
</g>
<!-- Node5&#45;&gt;Node9 -->
<g id="edge10" class="edge">
<title>Node5&#45;&gt;Node9</title>
<path fill="none" stroke="midnightblue" d="M1224,-56.08C1224,-49.01 1224,-38.86 1224,-29.99"/>
<polygon fill="midnightblue" stroke="midnightblue" points="1227.5,-29.75 1224,-19.75 1220.5,-29.75 1227.5,-29.75"/>
</g>
<!-- Node11 -->
<g id="node11" class="node">
<title>Node11</title>
<g id="a_node11"><a xlink:href="mxbuffer_8h.html" target="_top" xlink:title=" ">
<polygon fill="none" stroke="black" points="341.5,-224.5 341.5,-243.5 402.5,-243.5 402.5,-224.5 341.5,-224.5"/>
<text text-anchor="middle" x="372" y="-231.5" font-family="Helvetica,sans-Serif" font-size="10.00">mxbuffer.h</text>
</a>
</g>
</g>
<!-- Node10&#45;&gt;Node11 -->
<g id="edge12" class="edge">
<title>Node10&#45;&gt;Node11</title>
<path fill="none" stroke="midnightblue" d="M443.34,-280.32C430.08,-271.9 409.73,-258.97 394.15,-249.07"/>
<polygon fill="midnightblue" stroke="midnightblue" points="395.94,-246.06 385.62,-243.65 392.19,-251.97 395.94,-246.06"/>
</g>
<!-- Node12 -->
<g id="node12" class="node">
<title>Node12</title>
<g id="a_node12"><a xlink:title=" ">
<polygon fill="none" stroke="#bfbfbf" points="421,-224.5 421,-243.5 493,-243.5 493,-224.5 421,-224.5"/>
<text text-anchor="middle" x="457" y="-231.5" font-family="Helvetica,sans-Serif" font-size="10.00">mxrenderer.h</text>
</a>
</g>
</g>
<!-- Node10&#45;&gt;Node12 -->
<g id="edge13" class="edge">
<title>Node10&#45;&gt;Node12</title>
<path fill="none" stroke="midnightblue" d="M457,-280.08C457,-273.01 457,-262.86 457,-253.99"/>
<polygon fill="midnightblue" stroke="midnightblue" points="460.5,-253.75 457,-243.75 453.5,-253.75 460.5,-253.75"/>
</g>
<!-- Node13 -->
<g id="node13" class="node">
<title>Node13</title>
<g id="a_node13"><a xlink:title=" ">
<polygon fill="none" stroke="#bfbfbf" points="511.5,-224.5 511.5,-243.5 610.5,-243.5 610.5,-224.5 511.5,-224.5"/>
<text text-anchor="middle" x="561" y="-231.5" font-family="Helvetica,sans-Serif" font-size="10.00">mxvectorprogram.h</text>
</a>
</g>
</g>
<!-- Node10&#45;&gt;Node13 -->
<g id="edge14" class="edge">
<title>Node10&#45;&gt;Node13</title>
<path fill="none" stroke="midnightblue" d="M473.71,-280.32C490.31,-271.7 516,-258.36 535.22,-248.39"/>
<polygon fill="midnightblue" stroke="midnightblue" points="537.07,-251.37 544.33,-243.65 533.84,-245.16 537.07,-251.37"/>
</g>
<!-- Node14 -->
<g id="node14" class="node">
<title>Node14</title>
<g id="a_node14"><a xlink:title=" ">
<polygon fill="none" stroke="#bfbfbf" points="629,-224.5 629,-243.5 719,-243.5 719,-224.5 629,-224.5"/>
<text text-anchor="middle" x="674" y="-231.5" font-family="Helvetica,sans-Serif" font-size="10.00">mxiconprogram.h</text>
</a>
</g>
</g>
<!-- Node10&#45;&gt;Node14 -->
<g id="edge15" class="edge">
<title>Node10&#45;&gt;Node14</title>
<path fill="none" stroke="midnightblue" d="M491.38,-280.44C528.92,-271.1 589.13,-256.12 630.07,-245.93"/>
<polygon fill="midnightblue" stroke="midnightblue" points="630.92,-249.33 639.78,-243.52 629.23,-242.53 630.92,-249.33"/>
</g>
<!-- Node15 -->
<g id="node15" class="node">
<title>Node15</title>
<g id="a_node15"><a xlink:href="mxmatrix_8h.html" target="_top" xlink:title=" ">
<polygon fill="none" stroke="black" points="260.5,-224.5 260.5,-243.5 323.5,-243.5 323.5,-224.5 260.5,-224.5"/>
<text text-anchor="middle" x="292" y="-231.5" font-family="Helvetica,sans-Serif" font-size="10.00">mxmatrix.h</text>
</a>
</g>
</g>
<!-- Node10&#45;&gt;Node15 -->
<g id="edge16" class="edge">
<title>Node10&#45;&gt;Node15</title>
<path fill="none" stroke="midnightblue" d="M430.86,-280.44C402.98,-271.32 358.65,-256.81 327.6,-246.65"/>
<polygon fill="midnightblue" stroke="midnightblue" points="328.62,-243.3 318.02,-243.52 326.44,-249.95 328.62,-243.3"/>
</g>
<!-- Node17 -->
<g id="node17" class="node">
<title>Node17</title>
<g id="a_node17"><a xlink:href="mxvector_8h.html" target="_top" xlink:title=" ">
<polygon fill="none" stroke="black" points="733,-56.5 733,-75.5 797,-75.5 797,-56.5 733,-56.5"/>
<text text-anchor="middle" x="765" y="-63.5" font-family="Helvetica,sans-Serif" font-size="10.00">mxvector.h</text>
</a>
</g>
</g>
<!-- Node16&#45;&gt;Node17 -->
<g id="edge18" class="edge">
<title>Node16&#45;&gt;Node17</title>
<path fill="none" stroke="midnightblue" d="M109.7,-280.43C80.24,-269.11 37.91,-247.78 57,-224 99.66,-170.84 576.77,-95.27 722.79,-73.25"/>
<polygon fill="midnightblue" stroke="midnightblue" points="723.35,-76.7 732.72,-71.76 722.31,-69.78 723.35,-76.7"/>
</g>
<!-- Node18 -->
<g id="node18" class="node">
<title>Node18</title>
<g id="a_node18"><a xlink:title=" ">
<polygon fill="none" stroke="#bfbfbf" points="66,-224.5 66,-243.5 204,-243.5 204,-224.5 66,-224.5"/>
<text text-anchor="middle" x="135" y="-231.5" font-family="Helvetica,sans-Serif" font-size="10.00">mxmouseeventabstraction.h</text>
</a>
</g>
</g>
<!-- Node16&#45;&gt;Node18 -->
<g id="edge20" class="edge">
<title>Node16&#45;&gt;Node18</title>
<path fill="none" stroke="midnightblue" d="M135,-280.08C135,-273.01 135,-262.86 135,-253.99"/>
<polygon fill="midnightblue" stroke="midnightblue" points="138.5,-253.75 135,-243.75 131.5,-253.75 138.5,-253.75"/>
</g>
<!-- Node17&#45;&gt;Node2 -->
<g id="edge19" class="edge">
<title>Node17&#45;&gt;Node2</title>
<path fill="none" stroke="midnightblue" d="M774.64,-56.32C783.51,-48.34 796.87,-36.31 807.61,-26.65"/>
<polygon fill="midnightblue" stroke="midnightblue" points="810.09,-29.13 815.18,-19.83 805.41,-23.92 810.09,-29.13"/>
</g>
<!-- Node19&#45;&gt;Node2 -->
<g id="edge22" class="edge">
<title>Node19&#45;&gt;Node2</title>
<path fill="none" stroke="midnightblue" d="M883.83,-280.4C908.65,-271.24 944.23,-256.38 952,-244 956.72,-236.47 954.56,-232.51 952,-224 929.26,-148.46 891.98,-145.15 854,-76 845.55,-60.62 837.55,-42.3 832.1,-29.03"/>
<polygon fill="midnightblue" stroke="midnightblue" points="835.3,-27.6 828.32,-19.63 828.8,-30.21 835.3,-27.6"/>
</g>
<!-- Node19&#45;&gt;Node5 -->
<g id="edge32" class="edge">
<title>Node19&#45;&gt;Node5</title>
<path fill="none" stroke="midnightblue" d="M892.44,-282.49C948.73,-270.45 1064.55,-240.98 1149,-188 1178.82,-169.3 1187.06,-162.28 1205,-132 1213.52,-117.62 1218.44,-99.16 1221.13,-85.59"/>
<polygon fill="midnightblue" stroke="midnightblue" points="1224.61,-85.99 1222.89,-75.54 1217.71,-84.78 1224.61,-85.99"/>
</g>
<!-- Node20 -->
<g id="node20" class="node">
<title>Node20</title>
<g id="a_node20"><a xlink:href="mxvectordraw_8h.html" target="_top" xlink:title=" ">
<polygon fill="none" stroke="black" points="559.5,-168.5 559.5,-187.5 644.5,-187.5 644.5,-168.5 559.5,-168.5"/>
<text text-anchor="middle" x="602" y="-175.5" font-family="Helvetica,sans-Serif" font-size="10.00">mxvectordraw.h</text>
</a>
</g>
</g>
<!-- Node19&#45;&gt;Node20 -->
<g id="edge23" class="edge">
<title>Node19&#45;&gt;Node20</title>
<path fill="none" stroke="midnightblue" d="M840.73,-280.39C821.92,-271.46 791.78,-257.02 766,-244 748.96,-235.4 745.47,-231.67 728,-224 698.71,-211.14 664.47,-199.09 639.08,-190.71"/>
<polygon fill="midnightblue" stroke="midnightblue" points="640.06,-187.34 629.47,-187.57 637.89,-194 640.06,-187.34"/>
</g>
<!-- Node23 -->
<g id="node23" class="node">
<title>Node23</title>
<g id="a_node23"><a xlink:href="mxicondraw_8h.html" target="_top" xlink:title=" ">
<polygon fill="none" stroke="black" points="775,-224.5 775,-243.5 851,-243.5 851,-224.5 775,-224.5"/>
<text text-anchor="middle" x="813" y="-231.5" font-family="Helvetica,sans-Serif" font-size="10.00">mxicondraw.h</text>
</a>
</g>
</g>
<!-- Node19&#45;&gt;Node23 -->
<g id="edge28" class="edge">
<title>Node19&#45;&gt;Node23</title>
<path fill="none" stroke="midnightblue" d="M851.4,-280.08C844.77,-272.3 834.98,-260.8 826.94,-251.37"/>
<polygon fill="midnightblue" stroke="midnightblue" points="829.6,-249.09 820.45,-243.75 824.27,-253.63 829.6,-249.09"/>
</g>
<!-- Node26 -->
<g id="node26" class="node">
<title>Node26</title>
<g id="a_node26"><a xlink:href="mxtextdraw_8h.html" target="_top" xlink:title=" ">
<polygon fill="none" stroke="black" points="869,-224.5 869,-243.5 943,-243.5 943,-224.5 869,-224.5"/>
<text text-anchor="middle" x="906" y="-231.5" font-family="Helvetica,sans-Serif" font-size="10.00">mxtextdraw.h</text>
</a>
</g>
</g>
<!-- Node19&#45;&gt;Node26 -->
<g id="edge33" class="edge">
<title>Node19&#45;&gt;Node26</title>
<path fill="none" stroke="midnightblue" d="M866.76,-280.08C873.54,-272.3 883.54,-260.8 891.76,-251.37"/>
<polygon fill="midnightblue" stroke="midnightblue" points="894.46,-253.59 898.38,-243.75 889.18,-249 894.46,-253.59"/>
</g>
<!-- Node21 -->
<g id="node21" class="node">
<title>Node21</title>
<g id="a_node21"><a xlink:href="mxrect_8h.html" target="_top" xlink:title=" ">
<polygon fill="none" stroke="black" points="678.5,-112.5 678.5,-131.5 731.5,-131.5 731.5,-112.5 678.5,-112.5"/>
<text text-anchor="middle" x="705" y="-119.5" font-family="Helvetica,sans-Serif" font-size="10.00">mxrect.h</text>
</a>
</g>
</g>
<!-- Node20&#45;&gt;Node21 -->
<g id="edge24" class="edge">
<title>Node20&#45;&gt;Node21</title>
<path fill="none" stroke="midnightblue" d="M618.55,-168.32C634.99,-159.7 660.43,-146.36 679.47,-136.39"/>
<polygon fill="midnightblue" stroke="midnightblue" points="681.26,-139.4 688.49,-131.65 678.01,-133.2 681.26,-139.4"/>
</g>
<!-- Node21&#45;&gt;Node2 -->
<g id="edge25" class="edge">
<title>Node21&#45;&gt;Node2</title>
<path fill="none" stroke="midnightblue" d="M705.29,-112.33C706.18,-98.74 709.77,-72.29 724,-56 739.41,-38.36 763.08,-27.31 783.63,-20.58"/>
<polygon fill="midnightblue" stroke="midnightblue" points="784.87,-23.86 793.42,-17.61 782.84,-17.16 784.87,-23.86"/>
</g>
<!-- Node21&#45;&gt;Node17 -->
<g id="edge26" class="edge">
<title>Node21&#45;&gt;Node17</title>
<path fill="none" stroke="midnightblue" d="M714.64,-112.32C723.51,-104.34 736.87,-92.31 747.61,-82.65"/>
<polygon fill="midnightblue" stroke="midnightblue" points="750.09,-85.13 755.18,-75.83 745.41,-79.92 750.09,-85.13"/>
</g>
<!-- Node22 -->
<g id="node22" class="node">
<title>Node22</title>
<g id="a_node22"><a xlink:title=" ">
<polygon fill="none" stroke="#bfbfbf" points="621,-56.5 621,-75.5 677,-75.5 677,-56.5 621,-56.5"/>
<text text-anchor="middle" x="649" y="-63.5" font-family="Helvetica,sans-Serif" font-size="10.00">algorithm</text>
</a>
</g>
</g>
<!-- Node21&#45;&gt;Node22 -->
<g id="edge27" class="edge">
<title>Node21&#45;&gt;Node22</title>
<path fill="none" stroke="midnightblue" d="M696,-112.32C687.81,-104.42 675.49,-92.55 665.53,-82.94"/>
<polygon fill="midnightblue" stroke="midnightblue" points="667.79,-80.26 658.16,-75.83 662.93,-85.29 667.79,-80.26"/>
</g>
<!-- Node24 -->
<g id="node24" class="node">
<title>Node24</title>
<g id="a_node24"><a xlink:href="mxquaddraw_8h.html" target="_top" xlink:title=" ">
<polygon fill="none" stroke="black" points="662.5,-168.5 662.5,-187.5 741.5,-187.5 741.5,-168.5 662.5,-168.5"/>
<text text-anchor="middle" x="702" y="-175.5" font-family="Helvetica,sans-Serif" font-size="10.00">mxquaddraw.h</text>
</a>
</g>
</g>
<!-- Node23&#45;&gt;Node24 -->
<g id="edge29" class="edge">
<title>Node23&#45;&gt;Node24</title>
<path fill="none" stroke="midnightblue" d="M795.17,-224.32C777.28,-215.62 749.52,-202.12 728.95,-192.11"/>
<polygon fill="midnightblue" stroke="midnightblue" points="730.31,-188.88 719.79,-187.65 727.25,-195.18 730.31,-188.88"/>
</g>
<!-- Node25 -->
<g id="node25" class="node">
<title>Node25</title>
<g id="a_node25"><a xlink:href="mxthemeicons_8h.html" target="_top" xlink:title=" ">
<polygon fill="none" stroke="black" points="759.5,-168.5 759.5,-187.5 846.5,-187.5 846.5,-168.5 759.5,-168.5"/>
<text text-anchor="middle" x="803" y="-175.5" font-family="Helvetica,sans-Serif" font-size="10.00">mxthemeicons.h</text>
</a>
</g>
</g>
<!-- Node23&#45;&gt;Node25 -->
<g id="edge31" class="edge">
<title>Node23&#45;&gt;Node25</title>
<path fill="none" stroke="midnightblue" d="M811.35,-224.08C810.02,-216.93 808.12,-206.64 806.46,-197.69"/>
<polygon fill="midnightblue" stroke="midnightblue" points="809.88,-196.95 804.62,-187.75 803,-198.22 809.88,-196.95"/>
</g>
<!-- Node24&#45;&gt;Node21 -->
<g id="edge30" class="edge">
<title>Node24&#45;&gt;Node21</title>
<path fill="none" stroke="midnightblue" d="M702.5,-168.08C702.89,-161.01 703.45,-150.86 703.95,-141.99"/>
<polygon fill="midnightblue" stroke="midnightblue" points="707.45,-141.93 704.51,-131.75 700.46,-141.54 707.45,-141.93"/>
</g>
<!-- Node26&#45;&gt;Node17 -->
<g id="edge34" class="edge">
<title>Node26&#45;&gt;Node17</title>
<path fill="none" stroke="midnightblue" d="M903.94,-224.37C900.52,-211.3 892.77,-186.06 880,-168 854.18,-131.48 812.6,-99.32 787.14,-81.57"/>
<polygon fill="midnightblue" stroke="midnightblue" points="788.78,-78.46 778.55,-75.71 784.84,-84.24 788.78,-78.46"/>
</g>
<!-- Node26&#45;&gt;Node21 -->
<g id="edge35" class="edge">
<title>Node26&#45;&gt;Node21</title>
<path fill="none" stroke="midnightblue" d="M901.72,-224.44C894.33,-210.52 877.82,-183 856,-168 821.42,-144.22 774.07,-132.78 741.66,-127.43"/>
<polygon fill="midnightblue" stroke="midnightblue" points="742.12,-123.96 731.7,-125.9 741.05,-130.88 742.12,-123.96"/>
</g>
<!-- Node27 -->
<g id="node27" class="node">
<title>Node27</title>
<g id="a_node27"><a xlink:href="mxstring_8h.html" target="_top" xlink:title=" ">
<polygon fill="none" stroke="black" points="1078.5,-168.5 1078.5,-187.5 1139.5,-187.5 1139.5,-168.5 1078.5,-168.5"/>
<text text-anchor="middle" x="1109" y="-175.5" font-family="Helvetica,sans-Serif" font-size="10.00">mxstring.h</text>
</a>
</g>
</g>
<!-- Node26&#45;&gt;Node27 -->
<g id="edge36" class="edge">
<title>Node26&#45;&gt;Node27</title>
<path fill="none" stroke="midnightblue" d="M938.17,-224.44C973.47,-215.05 1030.21,-199.96 1068.51,-189.77"/>
<polygon fill="midnightblue" stroke="midnightblue" points="1069.55,-193.12 1078.31,-187.16 1067.75,-186.35 1069.55,-193.12"/>
</g>
<!-- Node28 -->
<g id="node28" class="node">
<title>Node28</title>
<g id="a_node28"><a xlink:href="mxgenericstring_8h.html" target="_top" xlink:title=" ">
<polygon fill="none" stroke="black" points="1008,-112.5 1008,-131.5 1100,-131.5 1100,-112.5 1008,-112.5"/>
<text text-anchor="middle" x="1054" y="-119.5" font-family="Helvetica,sans-Serif" font-size="10.00">mxgenericstring.h</text>
</a>
</g>
</g>
<!-- Node27&#45;&gt;Node28 -->
<g id="edge37" class="edge">
<title>Node27&#45;&gt;Node28</title>
<path fill="none" stroke="midnightblue" d="M1099.92,-168.08C1091.83,-160.14 1079.8,-148.34 1070.09,-138.8"/>
<polygon fill="midnightblue" stroke="midnightblue" points="1072.5,-136.26 1062.91,-131.75 1067.6,-141.25 1072.5,-136.26"/>
</g>
<!-- Node28&#45;&gt;Node2 -->
<g id="edge38" class="edge">
<title>Node28&#45;&gt;Node2</title>
<path fill="none" stroke="midnightblue" d="M1007.63,-116.39C971.24,-111.07 920.47,-99.77 882,-76 862.52,-63.96 846.01,-43.19 835.85,-28.36"/>
<polygon fill="midnightblue" stroke="midnightblue" points="838.54,-26.07 830.13,-19.63 832.68,-29.91 838.54,-26.07"/>
</g>
<!-- Node28&#45;&gt;Node6 -->
<g id="edge39" class="edge">
<title>Node28&#45;&gt;Node6</title>
<path fill="none" stroke="midnightblue" d="M1100.36,-112.7C1156.48,-102.35 1245.12,-84.95 1258,-76 1274.68,-64.42 1286.3,-43.86 1293.03,-28.96"/>
<polygon fill="midnightblue" stroke="midnightblue" points="1296.26,-30.3 1296.9,-19.72 1289.8,-27.59 1296.26,-30.3"/>
</g>
<!-- Node28&#45;&gt;Node7 -->
<g id="edge46" class="edge">
<title>Node28&#45;&gt;Node7</title>
<path fill="none" stroke="midnightblue" d="M1074.45,-112.36C1090.76,-104.68 1113.39,-92.16 1129,-76 1142,-62.54 1151.82,-43.47 1157.9,-29.47"/>
<polygon fill="midnightblue" stroke="midnightblue" points="1161.26,-30.5 1161.8,-19.92 1154.78,-27.85 1161.26,-30.5"/>
</g>
<!-- Node28&#45;&gt;Node8 -->
<g id="edge47" class="edge">
<title>Node28&#45;&gt;Node8</title>
<path fill="none" stroke="midnightblue" d="M1073.3,-112.48C1087.43,-105.08 1105.56,-92.89 1114,-76 1121.43,-61.14 1115.82,-42.53 1109.46,-29.03"/>
<polygon fill="midnightblue" stroke="midnightblue" points="1112.39,-27.09 1104.65,-19.85 1106.19,-30.34 1112.39,-27.09"/>
</g>
<!-- Node29 -->
<g id="node29" class="node">
<title>Node29</title>
<g id="a_node29"><a xlink:href="mxbytearrayref_8h.html" target="_top" xlink:title=" ">
<polygon fill="none" stroke="black" points="1017.5,-56.5 1017.5,-75.5 1104.5,-75.5 1104.5,-56.5 1017.5,-56.5"/>
<text text-anchor="middle" x="1061" y="-63.5" font-family="Helvetica,sans-Serif" font-size="10.00">mxbytearrayref.h</text>
</a>
</g>
</g>
<!-- Node28&#45;&gt;Node29 -->
<g id="edge40" class="edge">
<title>Node28&#45;&gt;Node29</title>
<path fill="none" stroke="midnightblue" d="M1055.16,-112.08C1056.08,-104.93 1057.42,-94.64 1058.58,-85.69"/>
<polygon fill="midnightblue" stroke="midnightblue" points="1062.05,-86.12 1059.87,-75.75 1055.11,-85.22 1062.05,-86.12"/>
</g>
<!-- Node30 -->
<g id="node30" class="node">
<title>Node30</title>
<g id="a_node30"><a xlink:href="mxgenericsubstring_8h.html" target="_top" xlink:title=" ">
<polygon fill="none" stroke="black" points="891,-56.5 891,-75.5 999,-75.5 999,-56.5 891,-56.5"/>
<text text-anchor="middle" x="945" y="-63.5" font-family="Helvetica,sans-Serif" font-size="10.00">mxgenericsubstring.h</text>
</a>
</g>
</g>
<!-- Node28&#45;&gt;Node30 -->
<g id="edge44" class="edge">
<title>Node28&#45;&gt;Node30</title>
<path fill="none" stroke="midnightblue" d="M1036.49,-112.32C1018.93,-103.62 991.67,-90.12 971.47,-80.11"/>
<polygon fill="midnightblue" stroke="midnightblue" points="972.98,-76.96 962.47,-75.65 969.88,-83.23 972.98,-76.96"/>
</g>
<!-- Node29&#45;&gt;Node2 -->
<g id="edge41" class="edge">
<title>Node29&#45;&gt;Node2</title>
<path fill="none" stroke="midnightblue" d="M1023.61,-56.44C980.8,-46.65 910.89,-30.65 866.45,-20.48"/>
<polygon fill="midnightblue" stroke="midnightblue" points="867.08,-17.04 856.56,-18.22 865.52,-23.86 867.08,-17.04"/>
</g>
<!-- Node29&#45;&gt;Node7 -->
<g id="edge42" class="edge">
<title>Node29&#45;&gt;Node7</title>
<path fill="none" stroke="midnightblue" d="M1077.71,-56.32C1094.31,-47.7 1120,-34.36 1139.22,-24.39"/>
<polygon fill="midnightblue" stroke="midnightblue" points="1141.07,-27.37 1148.33,-19.65 1137.84,-21.16 1141.07,-27.37"/>
</g>
<!-- Node29&#45;&gt;Node8 -->
<g id="edge43" class="edge">
<title>Node29&#45;&gt;Node8</title>
<path fill="none" stroke="midnightblue" d="M1067.27,-56.08C1072.64,-48.46 1080.52,-37.26 1087.08,-27.94"/>
<polygon fill="midnightblue" stroke="midnightblue" points="1089.95,-29.94 1092.84,-19.75 1084.22,-25.91 1089.95,-29.94"/>
</g>
<!-- Node30&#45;&gt;Node2 -->
<g id="edge45" class="edge">
<title>Node30&#45;&gt;Node2</title>
<path fill="none" stroke="midnightblue" d="M925.99,-56.44C906.41,-47.64 875.69,-33.81 853.27,-23.72"/>
<polygon fill="midnightblue" stroke="midnightblue" points="854.48,-20.43 843.93,-19.52 851.61,-26.81 854.48,-20.43"/>
</g>
<!-- Node32&#45;&gt;Node4 -->
<g id="edge52" class="edge">
<title>Node32&#45;&gt;Node4</title>
<path fill="none" stroke="midnightblue" d="M1048.44,-168.44C1069.67,-159.56 1103.1,-145.56 1127.25,-135.45"/>
<polygon fill="midnightblue" stroke="midnightblue" points="1128.78,-138.61 1136.66,-131.52 1126.08,-132.15 1128.78,-138.61"/>
</g>
<!-- Node32&#45;&gt;Node17 -->
<g id="edge51" class="edge">
<title>Node32&#45;&gt;Node17</title>
<path fill="none" stroke="midnightblue" d="M1013.64,-168.34C991.08,-155 945.73,-129.15 905,-112 872.83,-98.45 835.1,-86.54 806.91,-78.38"/>
<polygon fill="midnightblue" stroke="midnightblue" points="807.57,-74.93 796.99,-75.55 805.64,-81.66 807.57,-74.93"/>
</g>
<!-- Node32&#45;&gt;Node21 -->
<g id="edge50" class="edge">
<title>Node32&#45;&gt;Node21</title>
<path fill="none" stroke="midnightblue" d="M995.25,-171.53C934.63,-161.39 805.34,-139.78 741.8,-129.15"/>
<polygon fill="midnightblue" stroke="midnightblue" points="742.26,-125.68 731.82,-127.48 741.11,-132.59 742.26,-125.68"/>
</g>
</g>
</svg>
