<?xml version="1.0" encoding="UTF-8" standalone="no"?>
<!DOCTYPE svg PUBLIC "-//W3C//DTD SVG 1.1//EN"
 "http://www.w3.org/Graphics/SVG/1.1/DTD/svg11.dtd">
<!-- Generated by graphviz version 2.44.0 ()
 -->
<!-- Title: src/events/mxapplication.h Pages: 1 -->
<svg width="988pt" height="364pt"
 viewBox="0.00 0.00 987.50 364.00" xmlns="http://www.w3.org/2000/svg" xmlns:xlink="http://www.w3.org/1999/xlink">
<g id="graph0" class="graph" transform="scale(1 1) rotate(0) translate(4 360)">
<title>src/events/mxapplication.h</title>
<!-- Node1 -->
<g id="node1" class="node">
<title>Node1</title>
<g id="a_node1"><a xlink:title=" ">
<polygon fill="#bfbfbf" stroke="black" points="658.5,-336.5 658.5,-355.5 790.5,-355.5 790.5,-336.5 658.5,-336.5"/>
<text text-anchor="middle" x="724.5" y="-343.5" font-family="Helvetica,sans-Serif" font-size="10.00">src/events/mxapplication.h</text>
</a>
</g>
</g>
<!-- Node2 -->
<g id="node2" class="node">
<title>Node2</title>
<g id="a_node2"><a xlink:title=" ">
<polygon fill="none" stroke="#bfbfbf" points="411,-0.5 411,-19.5 474,-19.5 474,-0.5 411,-0.5"/>
<text text-anchor="middle" x="442.5" y="-7.5" font-family="Helvetica,sans-Serif" font-size="10.00">mxdebug.h</text>
</a>
</g>
</g>
<!-- Node1&#45;&gt;Node2 -->
<g id="edge1" class="edge">
<title>Node1&#45;&gt;Node2</title>
<path fill="none" stroke="midnightblue" d="M729.49,-336.49C739.59,-318.44 761.5,-274.69 761.5,-235 761.5,-235 761.5,-235 761.5,-121 761.5,-63.02 570.76,-28.93 484.27,-16.46"/>
<polygon fill="midnightblue" stroke="midnightblue" points="484.64,-12.98 474.25,-15.04 483.67,-19.91 484.64,-12.98"/>
</g>
<!-- Node3 -->
<g id="node3" class="node">
<title>Node3</title>
<g id="a_node3"><a xlink:href="mxwidgetlist_8h.html" target="_top" xlink:title=" ">
<polygon fill="none" stroke="black" points="235.5,-280.5 235.5,-299.5 313.5,-299.5 313.5,-280.5 235.5,-280.5"/>
<text text-anchor="middle" x="274.5" y="-287.5" font-family="Helvetica,sans-Serif" font-size="10.00">mxwidgetlist.h</text>
</a>
</g>
</g>
<!-- Node1&#45;&gt;Node3 -->
<g id="edge2" class="edge">
<title>Node1&#45;&gt;Node3</title>
<path fill="none" stroke="midnightblue" d="M658.1,-337.03C566.78,-326.07 404.54,-306.6 323.46,-296.88"/>
<polygon fill="midnightblue" stroke="midnightblue" points="323.86,-293.4 313.52,-295.68 323.03,-300.35 323.86,-293.4"/>
</g>
<!-- Node9 -->
<g id="node9" class="node">
<title>Node9</title>
<g id="a_node9"><a xlink:title=" ">
<polygon fill="none" stroke="#bfbfbf" points="789.5,-280.5 789.5,-299.5 861.5,-299.5 861.5,-280.5 789.5,-280.5"/>
<text text-anchor="middle" x="825.5" y="-287.5" font-family="Helvetica,sans-Serif" font-size="10.00">mxrenderer.h</text>
</a>
</g>
</g>
<!-- Node1&#45;&gt;Node9 -->
<g id="edge9" class="edge">
<title>Node1&#45;&gt;Node9</title>
<path fill="none" stroke="midnightblue" d="M740.73,-336.32C756.85,-327.7 781.8,-314.36 800.46,-304.39"/>
<polygon fill="midnightblue" stroke="midnightblue" points="802.14,-307.46 809.31,-299.65 798.84,-301.28 802.14,-307.46"/>
</g>
<!-- Node10 -->
<g id="node10" class="node">
<title>Node10</title>
<g id="a_node10"><a xlink:href="mxmouseevent_8h.html" target="_top" xlink:title=" ">
<polygon fill="none" stroke="black" points="643.5,-280.5 643.5,-299.5 733.5,-299.5 733.5,-280.5 643.5,-280.5"/>
<text text-anchor="middle" x="688.5" y="-287.5" font-family="Helvetica,sans-Serif" font-size="10.00">mxmouseevent.h</text>
</a>
</g>
</g>
<!-- Node1&#45;&gt;Node10 -->
<g id="edge10" class="edge">
<title>Node1&#45;&gt;Node10</title>
<path fill="none" stroke="midnightblue" d="M718.56,-336.08C713.52,-328.53 706.16,-317.49 699.99,-308.23"/>
<polygon fill="midnightblue" stroke="midnightblue" points="702.79,-306.13 694.33,-299.75 696.97,-310.01 702.79,-306.13"/>
</g>
<!-- Node13 -->
<g id="node13" class="node">
<title>Node13</title>
<g id="a_node13"><a xlink:href="mxpainter_8h.html" target="_top" xlink:title=" ">
<polygon fill="none" stroke="black" points="364.5,-280.5 364.5,-299.5 430.5,-299.5 430.5,-280.5 364.5,-280.5"/>
<text text-anchor="middle" x="397.5" y="-287.5" font-family="Helvetica,sans-Serif" font-size="10.00">mxpainter.h</text>
</a>
</g>
</g>
<!-- Node1&#45;&gt;Node13 -->
<g id="edge14" class="edge">
<title>Node1&#45;&gt;Node13</title>
<path fill="none" stroke="midnightblue" d="M672.69,-336.44C608.51,-325.84 500.34,-307.98 440.52,-298.1"/>
<polygon fill="midnightblue" stroke="midnightblue" points="441.08,-294.65 430.65,-296.47 439.94,-301.56 441.08,-294.65"/>
</g>
<!-- Node20 -->
<g id="node20" class="node">
<title>Node20</title>
<g id="a_node20"><a xlink:href="mxguiaggregation_8h.html" target="_top" xlink:title=" ">
<polygon fill="none" stroke="black" points="879.5,-280.5 879.5,-299.5 979.5,-299.5 979.5,-280.5 879.5,-280.5"/>
<text text-anchor="middle" x="929.5" y="-287.5" font-family="Helvetica,sans-Serif" font-size="10.00">mxguiaggregation.h</text>
</a>
</g>
</g>
<!-- Node1&#45;&gt;Node20 -->
<g id="edge26" class="edge">
<title>Node1&#45;&gt;Node20</title>
<path fill="none" stroke="midnightblue" d="M756.98,-336.44C792.22,-327.16 848.6,-312.31 887.26,-302.13"/>
<polygon fill="midnightblue" stroke="midnightblue" points="888.39,-305.45 897.17,-299.52 886.61,-298.68 888.39,-305.45"/>
</g>
<!-- Node4 -->
<g id="node4" class="node">
<title>Node4</title>
<g id="a_node4"><a xlink:href="mxlist_8h.html" target="_top" xlink:title=" ">
<polygon fill="none" stroke="black" points="216.5,-224.5 216.5,-243.5 266.5,-243.5 266.5,-224.5 216.5,-224.5"/>
<text text-anchor="middle" x="241.5" y="-231.5" font-family="Helvetica,sans-Serif" font-size="10.00">mxlist.h</text>
</a>
</g>
</g>
<!-- Node3&#45;&gt;Node4 -->
<g id="edge3" class="edge">
<title>Node3&#45;&gt;Node4</title>
<path fill="none" stroke="midnightblue" d="M269.05,-280.08C264.49,-272.61 257.83,-261.72 252.21,-252.52"/>
<polygon fill="midnightblue" stroke="midnightblue" points="255.05,-250.46 246.85,-243.75 249.08,-254.11 255.05,-250.46"/>
</g>
<!-- Node4&#45;&gt;Node2 -->
<g id="edge4" class="edge">
<title>Node4&#45;&gt;Node2</title>
<path fill="none" stroke="midnightblue" d="M249.23,-224.25C256.58,-215.57 267.52,-201.62 274.5,-188 302.65,-133.1 274.54,-100.29 317.5,-56 339.5,-33.32 373.75,-22.02 400.84,-16.43"/>
<polygon fill="midnightblue" stroke="midnightblue" points="401.65,-19.84 410.83,-14.55 400.36,-12.96 401.65,-19.84"/>
</g>
<!-- Node5 -->
<g id="node5" class="node">
<title>Node5</title>
<g id="a_node5"><a xlink:href="mxrefcounter_8h.html" target="_top" xlink:title=" ">
<polygon fill="none" stroke="black" points="53.5,-168.5 53.5,-187.5 133.5,-187.5 133.5,-168.5 53.5,-168.5"/>
<text text-anchor="middle" x="93.5" y="-175.5" font-family="Helvetica,sans-Serif" font-size="10.00">mxrefcounter.h</text>
</a>
</g>
</g>
<!-- Node4&#45;&gt;Node5 -->
<g id="edge5" class="edge">
<title>Node4&#45;&gt;Node5</title>
<path fill="none" stroke="midnightblue" d="M218.05,-224.44C193.37,-215.44 154.31,-201.19 126.52,-191.05"/>
<polygon fill="midnightblue" stroke="midnightblue" points="127.44,-187.66 116.84,-187.52 125.04,-194.23 127.44,-187.66"/>
</g>
<!-- Node6 -->
<g id="node6" class="node">
<title>Node6</title>
<g id="a_node6"><a xlink:title=" ">
<polygon fill="none" stroke="#bfbfbf" points="152,-168.5 152,-187.5 199,-187.5 199,-168.5 152,-168.5"/>
<text text-anchor="middle" x="175.5" y="-175.5" font-family="Helvetica,sans-Serif" font-size="10.00">stdlib.h</text>
</a>
</g>
</g>
<!-- Node4&#45;&gt;Node6 -->
<g id="edge6" class="edge">
<title>Node4&#45;&gt;Node6</title>
<path fill="none" stroke="midnightblue" d="M230.9,-224.32C221.04,-216.26 206.15,-204.08 194.28,-194.37"/>
<polygon fill="midnightblue" stroke="midnightblue" points="196.25,-191.46 186.3,-187.83 191.82,-196.88 196.25,-191.46"/>
</g>
<!-- Node7 -->
<g id="node7" class="node">
<title>Node7</title>
<g id="a_node7"><a xlink:title=" ">
<polygon fill="none" stroke="#bfbfbf" points="217.5,-168.5 217.5,-187.5 265.5,-187.5 265.5,-168.5 217.5,-168.5"/>
<text text-anchor="middle" x="241.5" y="-175.5" font-family="Helvetica,sans-Serif" font-size="10.00">string.h</text>
</a>
</g>
</g>
<!-- Node4&#45;&gt;Node7 -->
<g id="edge7" class="edge">
<title>Node4&#45;&gt;Node7</title>
<path fill="none" stroke="midnightblue" d="M241.5,-224.08C241.5,-217.01 241.5,-206.86 241.5,-197.99"/>
<polygon fill="midnightblue" stroke="midnightblue" points="245,-197.75 241.5,-187.75 238,-197.75 245,-197.75"/>
</g>
<!-- Node8 -->
<g id="node8" class="node">
<title>Node8</title>
<g id="a_node8"><a xlink:title=" ">
<polygon fill="none" stroke="#bfbfbf" points="0,-168.5 0,-187.5 35,-187.5 35,-168.5 0,-168.5"/>
<text text-anchor="middle" x="17.5" y="-175.5" font-family="Helvetica,sans-Serif" font-size="10.00">new</text>
</a>
</g>
</g>
<!-- Node4&#45;&gt;Node8 -->
<g id="edge8" class="edge">
<title>Node4&#45;&gt;Node8</title>
<path fill="none" stroke="midnightblue" d="M216.43,-228.09C180.57,-220.89 112.43,-206.56 45.07,-187.93"/>
<polygon fill="midnightblue" stroke="midnightblue" points="45.72,-184.48 35.14,-185.15 43.83,-191.22 45.72,-184.48"/>
</g>
<!-- Node11 -->
<g id="node11" class="node">
<title>Node11</title>
<g id="a_node11"><a xlink:href="mxvector_8h.html" target="_top" xlink:title=" ">
<polygon fill="none" stroke="black" points="544.5,-56.5 544.5,-75.5 608.5,-75.5 608.5,-56.5 544.5,-56.5"/>
<text text-anchor="middle" x="576.5" y="-63.5" font-family="Helvetica,sans-Serif" font-size="10.00">mxvector.h</text>
</a>
</g>
</g>
<!-- Node10&#45;&gt;Node11 -->
<g id="edge11" class="edge">
<title>Node10&#45;&gt;Node11</title>
<path fill="none" stroke="midnightblue" d="M693.75,-280.43C700.76,-267.84 711.52,-243.71 704.5,-224 682.71,-162.79 625.7,-108.15 595.66,-82.49"/>
<polygon fill="midnightblue" stroke="midnightblue" points="597.52,-79.49 587.61,-75.75 593.03,-84.85 597.52,-79.49"/>
</g>
<!-- Node12 -->
<g id="node12" class="node">
<title>Node12</title>
<g id="a_node12"><a xlink:title=" ">
<polygon fill="none" stroke="#bfbfbf" points="557.5,-224.5 557.5,-243.5 695.5,-243.5 695.5,-224.5 557.5,-224.5"/>
<text text-anchor="middle" x="626.5" y="-231.5" font-family="Helvetica,sans-Serif" font-size="10.00">mxmouseeventabstraction.h</text>
</a>
</g>
</g>
<!-- Node10&#45;&gt;Node12 -->
<g id="edge13" class="edge">
<title>Node10&#45;&gt;Node12</title>
<path fill="none" stroke="midnightblue" d="M678.54,-280.32C669.37,-272.34 655.56,-260.31 644.47,-250.65"/>
<polygon fill="midnightblue" stroke="midnightblue" points="646.48,-247.76 636.64,-243.83 641.88,-253.04 646.48,-247.76"/>
</g>
<!-- Node11&#45;&gt;Node2 -->
<g id="edge12" class="edge">
<title>Node11&#45;&gt;Node2</title>
<path fill="none" stroke="midnightblue" d="M555.27,-56.44C533.12,-47.52 498.18,-33.44 473.06,-23.32"/>
<polygon fill="midnightblue" stroke="midnightblue" points="474.22,-20.01 463.63,-19.52 471.6,-26.5 474.22,-20.01"/>
</g>
<!-- Node13&#45;&gt;Node2 -->
<g id="edge15" class="edge">
<title>Node13&#45;&gt;Node2</title>
<path fill="none" stroke="midnightblue" d="M385.36,-280.34C374.7,-272.13 359.53,-258.87 350.5,-244 334.88,-218.27 331.5,-209.1 331.5,-179 331.5,-179 331.5,-179 331.5,-121 331.5,-74.82 380.56,-41.43 413.45,-24.23"/>
<polygon fill="midnightblue" stroke="midnightblue" points="415.29,-27.22 422.66,-19.61 412.15,-20.96 415.29,-27.22"/>
</g>
<!-- Node13&#45;&gt;Node4 -->
<g id="edge25" class="edge">
<title>Node13&#45;&gt;Node4</title>
<path fill="none" stroke="midnightblue" d="M372.78,-280.44C346.65,-271.4 305.24,-257.06 275.92,-246.92"/>
<polygon fill="midnightblue" stroke="midnightblue" points="276.7,-243.48 266.1,-243.52 274.41,-250.1 276.7,-243.48"/>
</g>
<!-- Node14 -->
<g id="node14" class="node">
<title>Node14</title>
<g id="a_node14"><a xlink:href="mxvectordraw_8h.html" target="_top" xlink:title=" ">
<polygon fill="none" stroke="black" points="454,-224.5 454,-243.5 539,-243.5 539,-224.5 454,-224.5"/>
<text text-anchor="middle" x="496.5" y="-231.5" font-family="Helvetica,sans-Serif" font-size="10.00">mxvectordraw.h</text>
</a>
</g>
</g>
<!-- Node13&#45;&gt;Node14 -->
<g id="edge16" class="edge">
<title>Node13&#45;&gt;Node14</title>
<path fill="none" stroke="midnightblue" d="M413.41,-280.32C429.14,-271.74 453.44,-258.49 471.71,-248.52"/>
<polygon fill="midnightblue" stroke="midnightblue" points="473.53,-251.52 480.63,-243.65 470.18,-245.37 473.53,-251.52"/>
</g>
<!-- Node17 -->
<g id="node17" class="node">
<title>Node17</title>
<g id="a_node17"><a xlink:href="mxicondraw_8h.html" target="_top" xlink:title=" ">
<polygon fill="none" stroke="black" points="359.5,-224.5 359.5,-243.5 435.5,-243.5 435.5,-224.5 359.5,-224.5"/>
<text text-anchor="middle" x="397.5" y="-231.5" font-family="Helvetica,sans-Serif" font-size="10.00">mxicondraw.h</text>
</a>
</g>
</g>
<!-- Node13&#45;&gt;Node17 -->
<g id="edge21" class="edge">
<title>Node13&#45;&gt;Node17</title>
<path fill="none" stroke="midnightblue" d="M397.5,-280.08C397.5,-273.01 397.5,-262.86 397.5,-253.99"/>
<polygon fill="midnightblue" stroke="midnightblue" points="401,-253.75 397.5,-243.75 394,-253.75 401,-253.75"/>
</g>
<!-- Node15 -->
<g id="node15" class="node">
<title>Node15</title>
<g id="a_node15"><a xlink:href="mxrect_8h.html" target="_top" xlink:title=" ">
<polygon fill="none" stroke="black" points="472,-112.5 472,-131.5 525,-131.5 525,-112.5 472,-112.5"/>
<text text-anchor="middle" x="498.5" y="-119.5" font-family="Helvetica,sans-Serif" font-size="10.00">mxrect.h</text>
</a>
</g>
</g>
<!-- Node14&#45;&gt;Node15 -->
<g id="edge17" class="edge">
<title>Node14&#45;&gt;Node15</title>
<path fill="none" stroke="midnightblue" d="M514.58,-224.39C528.06,-216.87 545.47,-204.57 553.5,-188 563.18,-168.02 542.57,-149.11 523.87,-136.89"/>
<polygon fill="midnightblue" stroke="midnightblue" points="525.62,-133.85 515.27,-131.61 521.96,-139.82 525.62,-133.85"/>
</g>
<!-- Node15&#45;&gt;Node2 -->
<g id="edge18" class="edge">
<title>Node15&#45;&gt;Node2</title>
<path fill="none" stroke="midnightblue" d="M489.67,-112.48C481.31,-103.96 468.97,-90.13 461.5,-76 453.77,-61.38 448.8,-43.21 445.89,-29.8"/>
<polygon fill="midnightblue" stroke="midnightblue" points="449.29,-28.97 443.91,-19.84 442.43,-30.33 449.29,-28.97"/>
</g>
<!-- Node15&#45;&gt;Node11 -->
<g id="edge19" class="edge">
<title>Node15&#45;&gt;Node11</title>
<path fill="none" stroke="midnightblue" d="M511.03,-112.32C523.09,-103.98 541.53,-91.21 555.77,-81.35"/>
<polygon fill="midnightblue" stroke="midnightblue" points="557.77,-84.22 564,-75.65 553.78,-78.47 557.77,-84.22"/>
</g>
<!-- Node16 -->
<g id="node16" class="node">
<title>Node16</title>
<g id="a_node16"><a xlink:title=" ">
<polygon fill="none" stroke="#bfbfbf" points="470.5,-56.5 470.5,-75.5 526.5,-75.5 526.5,-56.5 470.5,-56.5"/>
<text text-anchor="middle" x="498.5" y="-63.5" font-family="Helvetica,sans-Serif" font-size="10.00">algorithm</text>
</a>
</g>
</g>
<!-- Node15&#45;&gt;Node16 -->
<g id="edge20" class="edge">
<title>Node15&#45;&gt;Node16</title>
<path fill="none" stroke="midnightblue" d="M498.5,-112.08C498.5,-105.01 498.5,-94.86 498.5,-85.99"/>
<polygon fill="midnightblue" stroke="midnightblue" points="502,-85.75 498.5,-75.75 495,-85.75 502,-85.75"/>
</g>
<!-- Node18 -->
<g id="node18" class="node">
<title>Node18</title>
<g id="a_node18"><a xlink:href="mxquaddraw_8h.html" target="_top" xlink:title=" ">
<polygon fill="none" stroke="black" points="360,-168.5 360,-187.5 439,-187.5 439,-168.5 360,-168.5"/>
<text text-anchor="middle" x="399.5" y="-175.5" font-family="Helvetica,sans-Serif" font-size="10.00">mxquaddraw.h</text>
</a>
</g>
</g>
<!-- Node17&#45;&gt;Node18 -->
<g id="edge22" class="edge">
<title>Node17&#45;&gt;Node18</title>
<path fill="none" stroke="midnightblue" d="M397.83,-224.08C398.09,-217.01 398.47,-206.86 398.8,-197.99"/>
<polygon fill="midnightblue" stroke="midnightblue" points="402.3,-197.87 399.18,-187.75 395.31,-197.61 402.3,-197.87"/>
</g>
<!-- Node19 -->
<g id="node19" class="node">
<title>Node19</title>
<g id="a_node19"><a xlink:href="mxthemeicons_8h.html" target="_top" xlink:title=" ">
<polygon fill="none" stroke="black" points="457,-168.5 457,-187.5 544,-187.5 544,-168.5 457,-168.5"/>
<text text-anchor="middle" x="500.5" y="-175.5" font-family="Helvetica,sans-Serif" font-size="10.00">mxthemeicons.h</text>
</a>
</g>
</g>
<!-- Node17&#45;&gt;Node19 -->
<g id="edge24" class="edge">
<title>Node17&#45;&gt;Node19</title>
<path fill="none" stroke="midnightblue" d="M414.05,-224.32C430.49,-215.7 455.93,-202.36 474.97,-192.39"/>
<polygon fill="midnightblue" stroke="midnightblue" points="476.76,-195.4 483.99,-187.65 473.51,-189.2 476.76,-195.4"/>
</g>
<!-- Node18&#45;&gt;Node15 -->
<g id="edge23" class="edge">
<title>Node18&#45;&gt;Node15</title>
<path fill="none" stroke="midnightblue" d="M415.41,-168.32C431.14,-159.74 455.44,-146.49 473.71,-136.52"/>
<polygon fill="midnightblue" stroke="midnightblue" points="475.53,-139.52 482.63,-131.65 472.18,-133.37 475.53,-139.52"/>
</g>
</g>
</svg>
