<?xml version="1.0" encoding="UTF-8" standalone="no"?>
<!DOCTYPE svg PUBLIC "-//W3C//DTD SVG 1.1//EN"
 "http://www.w3.org/Graphics/SVG/1.1/DTD/svg11.dtd">
<!-- Generated by graphviz version 2.44.0 ()
 -->
<!-- Title: src/events/mxapplication.cpp Pages: 1 -->
<svg width="1576pt" height="476pt"
 viewBox="0.00 0.00 1576.12 476.00" xmlns="http://www.w3.org/2000/svg" xmlns:xlink="http://www.w3.org/1999/xlink">
<g id="graph0" class="graph" transform="scale(1 1) rotate(0) translate(4 472)">
<title>src/events/mxapplication.cpp</title>
<!-- Node1 -->
<g id="node1" class="node">
<title>Node1</title>
<g id="a_node1"><a xlink:title=" ">
<polygon fill="#bfbfbf" stroke="black" points="773.5,-448.5 773.5,-467.5 916.5,-467.5 916.5,-448.5 773.5,-448.5"/>
<text text-anchor="middle" x="845" y="-455.5" font-family="Helvetica,sans-Serif" font-size="10.00">src/events/mxapplication.cpp</text>
</a>
</g>
</g>
<!-- Node2 -->
<g id="node2" class="node">
<title>Node2</title>
<g id="a_node2"><a xlink:title=" ">
<polygon fill="none" stroke="#bfbfbf" points="976.5,-0.5 976.5,-19.5 1039.5,-19.5 1039.5,-0.5 976.5,-0.5"/>
<text text-anchor="middle" x="1008" y="-7.5" font-family="Helvetica,sans-Serif" font-size="10.00">mxdebug.h</text>
</a>
</g>
</g>
<!-- Node1&#45;&gt;Node2 -->
<g id="edge1" class="edge">
<title>Node1&#45;&gt;Node2</title>
<path fill="none" stroke="midnightblue" d="M773.32,-455.16C569.29,-448.96 0,-424.71 0,-347 0,-347 0,-347 0,-121 0,-22.14 776.09,-12.08 966.3,-11.1"/>
<polygon fill="midnightblue" stroke="midnightblue" points="966.46,-14.6 976.45,-11.05 966.43,-7.6 966.46,-14.6"/>
</g>
<!-- Node3 -->
<g id="node3" class="node">
<title>Node3</title>
<g id="a_node3"><a xlink:href="mxapplication_8h.html" target="_top" xlink:title=" ">
<polygon fill="none" stroke="black" points="803.5,-392.5 803.5,-411.5 886.5,-411.5 886.5,-392.5 803.5,-392.5"/>
<text text-anchor="middle" x="845" y="-399.5" font-family="Helvetica,sans-Serif" font-size="10.00">mxapplication.h</text>
</a>
</g>
</g>
<!-- Node1&#45;&gt;Node3 -->
<g id="edge2" class="edge">
<title>Node1&#45;&gt;Node3</title>
<path fill="none" stroke="midnightblue" d="M845,-448.08C845,-441.01 845,-430.86 845,-421.99"/>
<polygon fill="midnightblue" stroke="midnightblue" points="848.5,-421.75 845,-411.75 841.5,-421.75 848.5,-421.75"/>
</g>
<!-- Node37 -->
<g id="node37" class="node">
<title>Node37</title>
<g id="a_node37"><a xlink:href="mxwidget_8h.html" target="_top" xlink:title=" ">
<polygon fill="none" stroke="black" points="1143.5,-280.5 1143.5,-299.5 1208.5,-299.5 1208.5,-280.5 1143.5,-280.5"/>
<text text-anchor="middle" x="1176" y="-287.5" font-family="Helvetica,sans-Serif" font-size="10.00">mxwidget.h</text>
</a>
</g>
</g>
<!-- Node1&#45;&gt;Node37 -->
<g id="edge69" class="edge">
<title>Node1&#45;&gt;Node37</title>
<path fill="none" stroke="midnightblue" d="M895.78,-448.47C956.23,-436.31 1057.92,-409.28 1129,-356 1145.66,-343.51 1158.89,-323.44 1167.01,-308.91"/>
<polygon fill="midnightblue" stroke="midnightblue" points="1170.21,-310.36 1171.8,-299.89 1164.02,-307.08 1170.21,-310.36"/>
</g>
<!-- Node3&#45;&gt;Node2 -->
<g id="edge3" class="edge">
<title>Node3&#45;&gt;Node2</title>
<path fill="none" stroke="midnightblue" d="M853.79,-392.4C862.59,-383.6 876.33,-369.36 887,-356 957.32,-267.89 979.67,-241.61 1006,-132 1013.96,-98.87 1018.99,-89.94 1016,-56 1015.22,-47.2 1013.61,-37.54 1012.03,-29.43"/>
<polygon fill="midnightblue" stroke="midnightblue" points="1015.44,-28.65 1009.99,-19.57 1008.59,-30.07 1015.44,-28.65"/>
</g>
<!-- Node4 -->
<g id="node4" class="node">
<title>Node4</title>
<g id="a_node4"><a xlink:href="mxwidgetlist_8h.html" target="_top" xlink:title=" ">
<polygon fill="none" stroke="black" points="1257,-224.5 1257,-243.5 1335,-243.5 1335,-224.5 1257,-224.5"/>
<text text-anchor="middle" x="1296" y="-231.5" font-family="Helvetica,sans-Serif" font-size="10.00">mxwidgetlist.h</text>
</a>
</g>
</g>
<!-- Node3&#45;&gt;Node4 -->
<g id="edge4" class="edge">
<title>Node3&#45;&gt;Node4</title>
<path fill="none" stroke="midnightblue" d="M886.77,-399.62C943.36,-396.58 1046.75,-386.9 1129,-356 1192.15,-332.28 1252.8,-277.94 1280.43,-250.89"/>
<polygon fill="midnightblue" stroke="midnightblue" points="1283,-253.27 1287.61,-243.74 1278.06,-248.31 1283,-253.27"/>
</g>
<!-- Node10 -->
<g id="node10" class="node">
<title>Node10</title>
<g id="a_node10"><a xlink:href="mxguirenderer_8h.html" target="_top" xlink:title=" ">
<polygon fill="none" stroke="black" points="256.5,-336.5 256.5,-355.5 341.5,-355.5 341.5,-336.5 256.5,-336.5"/>
<text text-anchor="middle" x="299" y="-343.5" font-family="Helvetica,sans-Serif" font-size="10.00">mxguirenderer.h</text>
</a>
</g>
</g>
<!-- Node3&#45;&gt;Node10 -->
<g id="edge11" class="edge">
<title>Node3&#45;&gt;Node10</title>
<path fill="none" stroke="midnightblue" d="M803.06,-396.85C704.85,-387.14 460.07,-362.93 351.87,-352.23"/>
<polygon fill="midnightblue" stroke="midnightblue" points="352.13,-348.74 341.83,-351.24 351.44,-355.7 352.13,-348.74"/>
</g>
<!-- Node25 -->
<g id="node25" class="node">
<title>Node25</title>
<g id="a_node25"><a xlink:href="mxmouseevent_8h.html" target="_top" xlink:title=" ">
<polygon fill="none" stroke="black" points="559,-336.5 559,-355.5 649,-355.5 649,-336.5 559,-336.5"/>
<text text-anchor="middle" x="604" y="-343.5" font-family="Helvetica,sans-Serif" font-size="10.00">mxmouseevent.h</text>
</a>
</g>
</g>
<!-- Node3&#45;&gt;Node25 -->
<g id="edge39" class="edge">
<title>Node3&#45;&gt;Node25</title>
<path fill="none" stroke="midnightblue" d="M806.81,-392.44C764.86,-383.04 697.41,-367.93 651.93,-357.74"/>
<polygon fill="midnightblue" stroke="midnightblue" points="652.53,-354.29 642.01,-355.52 651,-361.12 652.53,-354.29"/>
</g>
<!-- Node27 -->
<g id="node27" class="node">
<title>Node27</title>
<g id="a_node27"><a xlink:href="mxpainter_8h.html" target="_top" xlink:title=" ">
<polygon fill="none" stroke="black" points="812,-336.5 812,-355.5 878,-355.5 878,-336.5 812,-336.5"/>
<text text-anchor="middle" x="845" y="-343.5" font-family="Helvetica,sans-Serif" font-size="10.00">mxpainter.h</text>
</a>
</g>
</g>
<!-- Node3&#45;&gt;Node27 -->
<g id="edge42" class="edge">
<title>Node3&#45;&gt;Node27</title>
<path fill="none" stroke="midnightblue" d="M845,-392.08C845,-385.01 845,-374.86 845,-365.99"/>
<polygon fill="midnightblue" stroke="midnightblue" points="848.5,-365.75 845,-355.75 841.5,-365.75 848.5,-365.75"/>
</g>
<!-- Node5 -->
<g id="node5" class="node">
<title>Node5</title>
<g id="a_node5"><a xlink:href="mxlist_8h.html" target="_top" xlink:title=" ">
<polygon fill="none" stroke="black" points="1338,-168.5 1338,-187.5 1388,-187.5 1388,-168.5 1338,-168.5"/>
<text text-anchor="middle" x="1363" y="-175.5" font-family="Helvetica,sans-Serif" font-size="10.00">mxlist.h</text>
</a>
</g>
</g>
<!-- Node4&#45;&gt;Node5 -->
<g id="edge5" class="edge">
<title>Node4&#45;&gt;Node5</title>
<path fill="none" stroke="midnightblue" d="M1306.76,-224.32C1316.77,-216.26 1331.89,-204.08 1343.93,-194.37"/>
<polygon fill="midnightblue" stroke="midnightblue" points="1346.45,-196.83 1352.04,-187.83 1342.06,-191.38 1346.45,-196.83"/>
</g>
<!-- Node5&#45;&gt;Node2 -->
<g id="edge6" class="edge">
<title>Node5&#45;&gt;Node2</title>
<path fill="none" stroke="midnightblue" d="M1337.97,-169.83C1290.39,-155.65 1184.39,-121.44 1103,-76 1075.58,-60.7 1046.04,-39.69 1027.3,-25.75"/>
<polygon fill="midnightblue" stroke="midnightblue" points="1029.36,-22.92 1019.26,-19.71 1025.15,-28.52 1029.36,-22.92"/>
</g>
<!-- Node6 -->
<g id="node6" class="node">
<title>Node6</title>
<g id="a_node6"><a xlink:href="mxrefcounter_8h.html" target="_top" xlink:title=" ">
<polygon fill="none" stroke="black" points="1458,-56.5 1458,-75.5 1538,-75.5 1538,-56.5 1458,-56.5"/>
<text text-anchor="middle" x="1498" y="-63.5" font-family="Helvetica,sans-Serif" font-size="10.00">mxrefcounter.h</text>
</a>
</g>
</g>
<!-- Node5&#45;&gt;Node6 -->
<g id="edge7" class="edge">
<title>Node5&#45;&gt;Node6</title>
<path fill="none" stroke="midnightblue" d="M1373.59,-168.37C1396.46,-149.73 1450.71,-105.53 1479.43,-82.13"/>
<polygon fill="midnightblue" stroke="midnightblue" points="1481.91,-84.62 1487.46,-75.59 1477.49,-79.19 1481.91,-84.62"/>
</g>
<!-- Node7 -->
<g id="node7" class="node">
<title>Node7</title>
<g id="a_node7"><a xlink:title=" ">
<polygon fill="none" stroke="#bfbfbf" points="1334.5,-0.5 1334.5,-19.5 1381.5,-19.5 1381.5,-0.5 1334.5,-0.5"/>
<text text-anchor="middle" x="1358" y="-7.5" font-family="Helvetica,sans-Serif" font-size="10.00">stdlib.h</text>
</a>
</g>
</g>
<!-- Node5&#45;&gt;Node7 -->
<g id="edge8" class="edge">
<title>Node5&#45;&gt;Node7</title>
<path fill="none" stroke="midnightblue" d="M1388.23,-171.73C1449.08,-157.9 1595.46,-117.36 1547,-56 1546.39,-55.23 1445.88,-31.58 1391.7,-18.89"/>
<polygon fill="midnightblue" stroke="midnightblue" points="1392.38,-15.45 1381.84,-16.58 1390.78,-22.27 1392.38,-15.45"/>
</g>
<!-- Node8 -->
<g id="node8" class="node">
<title>Node8</title>
<g id="a_node8"><a xlink:title=" ">
<polygon fill="none" stroke="#bfbfbf" points="1406,-0.5 1406,-19.5 1454,-19.5 1454,-0.5 1406,-0.5"/>
<text text-anchor="middle" x="1430" y="-7.5" font-family="Helvetica,sans-Serif" font-size="10.00">string.h</text>
</a>
</g>
</g>
<!-- Node5&#45;&gt;Node8 -->
<g id="edge9" class="edge">
<title>Node5&#45;&gt;Node8</title>
<path fill="none" stroke="midnightblue" d="M1388.15,-176.67C1424.55,-174.94 1492.34,-166.85 1536,-132 1557.9,-114.51 1558.37,-103.23 1565,-76 1567.1,-67.36 1570.2,-63.21 1565,-56 1542.22,-24.4 1496.29,-14.65 1464.37,-11.83"/>
<polygon fill="midnightblue" stroke="midnightblue" points="1464.35,-8.32 1454.13,-11.12 1463.86,-15.3 1464.35,-8.32"/>
</g>
<!-- Node9 -->
<g id="node9" class="node">
<title>Node9</title>
<g id="a_node9"><a xlink:title=" ">
<polygon fill="none" stroke="#bfbfbf" points="1348.5,-112.5 1348.5,-131.5 1383.5,-131.5 1383.5,-112.5 1348.5,-112.5"/>
<text text-anchor="middle" x="1366" y="-119.5" font-family="Helvetica,sans-Serif" font-size="10.00">new</text>
</a>
</g>
</g>
<!-- Node5&#45;&gt;Node9 -->
<g id="edge10" class="edge">
<title>Node5&#45;&gt;Node9</title>
<path fill="none" stroke="midnightblue" d="M1363.5,-168.08C1363.89,-161.01 1364.45,-150.86 1364.95,-141.99"/>
<polygon fill="midnightblue" stroke="midnightblue" points="1368.45,-141.93 1365.51,-131.75 1361.46,-141.54 1368.45,-141.93"/>
</g>
<!-- Node11 -->
<g id="node11" class="node">
<title>Node11</title>
<g id="a_node11"><a xlink:href="mxbuffer_8h.html" target="_top" xlink:title=" ">
<polygon fill="none" stroke="black" points="268.5,-280.5 268.5,-299.5 329.5,-299.5 329.5,-280.5 268.5,-280.5"/>
<text text-anchor="middle" x="299" y="-287.5" font-family="Helvetica,sans-Serif" font-size="10.00">mxbuffer.h</text>
</a>
</g>
</g>
<!-- Node10&#45;&gt;Node11 -->
<g id="edge12" class="edge">
<title>Node10&#45;&gt;Node11</title>
<path fill="none" stroke="midnightblue" d="M299,-336.08C299,-329.01 299,-318.86 299,-309.99"/>
<polygon fill="midnightblue" stroke="midnightblue" points="302.5,-309.75 299,-299.75 295.5,-309.75 302.5,-309.75"/>
</g>
<!-- Node12 -->
<g id="node12" class="node">
<title>Node12</title>
<g id="a_node12"><a xlink:href="mxrenderer_8h.html" target="_top" xlink:title=" ">
<polygon fill="none" stroke="black" points="348,-280.5 348,-299.5 420,-299.5 420,-280.5 348,-280.5"/>
<text text-anchor="middle" x="384" y="-287.5" font-family="Helvetica,sans-Serif" font-size="10.00">mxrenderer.h</text>
</a>
</g>
</g>
<!-- Node10&#45;&gt;Node12 -->
<g id="edge13" class="edge">
<title>Node10&#45;&gt;Node12</title>
<path fill="none" stroke="midnightblue" d="M312.66,-336.32C325.92,-327.9 346.27,-314.97 361.85,-305.07"/>
<polygon fill="midnightblue" stroke="midnightblue" points="363.81,-307.97 370.38,-299.65 360.06,-302.06 363.81,-307.97"/>
</g>
<!-- Node20 -->
<g id="node20" class="node">
<title>Node20</title>
<g id="a_node20"><a xlink:href="mxvectorprogram_8h.html" target="_top" xlink:title=" ">
<polygon fill="none" stroke="black" points="112.5,-280.5 112.5,-299.5 211.5,-299.5 211.5,-280.5 112.5,-280.5"/>
<text text-anchor="middle" x="162" y="-287.5" font-family="Helvetica,sans-Serif" font-size="10.00">mxvectorprogram.h</text>
</a>
</g>
</g>
<!-- Node10&#45;&gt;Node20 -->
<g id="edge24" class="edge">
<title>Node10&#45;&gt;Node20</title>
<path fill="none" stroke="midnightblue" d="M277.29,-336.44C254.65,-327.52 218.93,-313.44 193.25,-303.32"/>
<polygon fill="midnightblue" stroke="midnightblue" points="194.19,-299.93 183.61,-299.52 191.63,-306.44 194.19,-299.93"/>
</g>
<!-- Node24 -->
<g id="node24" class="node">
<title>Node24</title>
<g id="a_node24"><a xlink:href="mxiconprogram_8h.html" target="_top" xlink:title=" ">
<polygon fill="none" stroke="black" points="234,-224.5 234,-243.5 324,-243.5 324,-224.5 234,-224.5"/>
<text text-anchor="middle" x="279" y="-231.5" font-family="Helvetica,sans-Serif" font-size="10.00">mxiconprogram.h</text>
</a>
</g>
</g>
<!-- Node10&#45;&gt;Node24 -->
<g id="edge32" class="edge">
<title>Node10&#45;&gt;Node24</title>
<path fill="none" stroke="midnightblue" d="M287.73,-336.43C278.03,-328.27 264.72,-315.05 259,-300 252.92,-284.01 260.12,-265.31 267.53,-252.08"/>
<polygon fill="midnightblue" stroke="midnightblue" points="270.52,-253.89 272.76,-243.53 264.55,-250.23 270.52,-253.89"/>
</g>
<!-- Node12&#45;&gt;Node5 -->
<g id="edge14" class="edge">
<title>Node12&#45;&gt;Node5</title>
<path fill="none" stroke="midnightblue" d="M420.28,-281.33C423.22,-280.83 426.16,-280.38 429,-280 656.4,-249.44 715.99,-269.61 944,-244 1086.93,-227.95 1255.77,-198.53 1327.7,-185.51"/>
<polygon fill="midnightblue" stroke="midnightblue" points="1328.38,-188.94 1337.59,-183.71 1327.13,-182.05 1328.38,-188.94"/>
</g>
<!-- Node13 -->
<g id="node13" class="node">
<title>Node13</title>
<g id="a_node13"><a xlink:href="mxgpuarray_8h.html" target="_top" xlink:title=" ">
<polygon fill="none" stroke="black" points="66,-224.5 66,-243.5 140,-243.5 140,-224.5 66,-224.5"/>
<text text-anchor="middle" x="103" y="-231.5" font-family="Helvetica,sans-Serif" font-size="10.00">mxgpuarray.h</text>
</a>
</g>
</g>
<!-- Node12&#45;&gt;Node13 -->
<g id="edge15" class="edge">
<title>Node12&#45;&gt;Node13</title>
<path fill="none" stroke="midnightblue" d="M347.84,-281.91C344.52,-281.26 341.2,-280.62 338,-280 272.84,-267.39 197.47,-252.99 150.03,-243.95"/>
<polygon fill="midnightblue" stroke="midnightblue" points="150.53,-240.48 140.05,-242.05 149.22,-247.36 150.53,-240.48"/>
</g>
<!-- Node16 -->
<g id="node16" class="node">
<title>Node16</title>
<g id="a_node16"><a xlink:href="mxmatrix_8h.html" target="_top" xlink:title=" ">
<polygon fill="none" stroke="black" points="138.5,-168.5 138.5,-187.5 201.5,-187.5 201.5,-168.5 138.5,-168.5"/>
<text text-anchor="middle" x="170" y="-175.5" font-family="Helvetica,sans-Serif" font-size="10.00">mxmatrix.h</text>
</a>
</g>
</g>
<!-- Node12&#45;&gt;Node16 -->
<g id="edge19" class="edge">
<title>Node12&#45;&gt;Node16</title>
<path fill="none" stroke="midnightblue" d="M347.73,-281.33C307.4,-272.35 245.26,-257.05 225,-244 206.04,-231.79 190.14,-211.04 180.39,-196.27"/>
<polygon fill="midnightblue" stroke="midnightblue" points="183.2,-194.17 174.9,-187.58 177.28,-197.91 183.2,-194.17"/>
</g>
<!-- Node17 -->
<g id="node17" class="node">
<title>Node17</title>
<g id="a_node17"><a xlink:href="mxopenglfunctions_8h.html" target="_top" xlink:title=" ">
<polygon fill="none" stroke="black" points="342.5,-224.5 342.5,-243.5 447.5,-243.5 447.5,-224.5 342.5,-224.5"/>
<text text-anchor="middle" x="395" y="-231.5" font-family="Helvetica,sans-Serif" font-size="10.00">mxopenglfunctions.h</text>
</a>
</g>
</g>
<!-- Node12&#45;&gt;Node17 -->
<g id="edge20" class="edge">
<title>Node12&#45;&gt;Node17</title>
<path fill="none" stroke="midnightblue" d="M385.82,-280.08C387.27,-272.93 389.37,-262.64 391.19,-253.69"/>
<polygon fill="midnightblue" stroke="midnightblue" points="394.65,-254.25 393.22,-243.75 387.79,-252.85 394.65,-254.25"/>
</g>
<!-- Node19 -->
<g id="node19" class="node">
<title>Node19</title>
<g id="a_node19"><a xlink:href="mxvector_8h.html" target="_top" xlink:title=" ">
<polygon fill="none" stroke="black" points="638,-112.5 638,-131.5 702,-131.5 702,-112.5 638,-112.5"/>
<text text-anchor="middle" x="670" y="-119.5" font-family="Helvetica,sans-Serif" font-size="10.00">mxvector.h</text>
</a>
</g>
</g>
<!-- Node12&#45;&gt;Node19 -->
<g id="edge22" class="edge">
<title>Node12&#45;&gt;Node19</title>
<path fill="none" stroke="midnightblue" d="M401.55,-280.45C416.97,-272.41 439.45,-259.33 456,-244 486.78,-215.49 477.53,-191.92 512,-168 546.61,-143.98 593.89,-132.7 627.69,-127.45"/>
<polygon fill="midnightblue" stroke="midnightblue" points="628.32,-130.9 637.72,-126.01 627.32,-123.97 628.32,-130.9"/>
</g>
<!-- Node14 -->
<g id="node14" class="node">
<title>Node14</title>
<g id="a_node14"><a xlink:href="mxgpuprogram_8h.html" target="_top" xlink:title=" ">
<polygon fill="none" stroke="black" points="32,-168.5 32,-187.5 120,-187.5 120,-168.5 32,-168.5"/>
<text text-anchor="middle" x="76" y="-175.5" font-family="Helvetica,sans-Serif" font-size="10.00">mxgpuprogram.h</text>
</a>
</g>
</g>
<!-- Node13&#45;&gt;Node14 -->
<g id="edge16" class="edge">
<title>Node13&#45;&gt;Node14</title>
<path fill="none" stroke="midnightblue" d="M98.54,-224.08C94.85,-216.69 89.48,-205.95 84.91,-196.81"/>
<polygon fill="midnightblue" stroke="midnightblue" points="87.98,-195.13 80.38,-187.75 81.72,-198.26 87.98,-195.13"/>
</g>
<!-- Node14&#45;&gt;Node2 -->
<g id="edge17" class="edge">
<title>Node14&#45;&gt;Node2</title>
<path fill="none" stroke="midnightblue" d="M84.62,-168.34C108.74,-144.79 180,-79.76 254,-56 388.16,-12.93 828.41,-10.46 966.31,-10.78"/>
<polygon fill="midnightblue" stroke="midnightblue" points="966.45,-14.28 976.46,-10.81 966.48,-7.28 966.45,-14.28"/>
</g>
<!-- Node15 -->
<g id="node15" class="node">
<title>Node15</title>
<g id="a_node15"><a xlink:title=" ">
<polygon fill="none" stroke="#bfbfbf" points="174.5,-112.5 174.5,-131.5 239.5,-131.5 239.5,-112.5 174.5,-112.5"/>
<text text-anchor="middle" x="207" y="-119.5" font-family="Helvetica,sans-Serif" font-size="10.00">mxopengl.h</text>
</a>
</g>
</g>
<!-- Node14&#45;&gt;Node15 -->
<g id="edge18" class="edge">
<title>Node14&#45;&gt;Node15</title>
<path fill="none" stroke="midnightblue" d="M96.76,-168.44C118.32,-159.56 152.26,-145.56 176.79,-135.45"/>
<polygon fill="midnightblue" stroke="midnightblue" points="178.43,-138.56 186.34,-131.52 175.76,-132.09 178.43,-138.56"/>
</g>
<!-- Node18 -->
<g id="node18" class="node">
<title>Node18</title>
<g id="a_node18"><a xlink:title=" ">
<polygon fill="none" stroke="#bfbfbf" points="334.5,-168.5 334.5,-187.5 459.5,-187.5 459.5,-168.5 334.5,-168.5"/>
<text text-anchor="middle" x="397" y="-175.5" font-family="Helvetica,sans-Serif" font-size="10.00">QOpenGLExtraFunctions</text>
</a>
</g>
</g>
<!-- Node17&#45;&gt;Node18 -->
<g id="edge21" class="edge">
<title>Node17&#45;&gt;Node18</title>
<path fill="none" stroke="midnightblue" d="M395.33,-224.08C395.59,-217.01 395.97,-206.86 396.3,-197.99"/>
<polygon fill="midnightblue" stroke="midnightblue" points="399.8,-197.87 396.68,-187.75 392.81,-197.61 399.8,-197.87"/>
</g>
<!-- Node19&#45;&gt;Node2 -->
<g id="edge23" class="edge">
<title>Node19&#45;&gt;Node2</title>
<path fill="none" stroke="midnightblue" d="M696.24,-112.46C756.14,-92.97 903.04,-45.16 971.62,-22.84"/>
<polygon fill="midnightblue" stroke="midnightblue" points="973.12,-26.03 981.54,-19.61 970.95,-19.38 973.12,-26.03"/>
</g>
<!-- Node20&#45;&gt;Node14 -->
<g id="edge25" class="edge">
<title>Node20&#45;&gt;Node14</title>
<path fill="none" stroke="midnightblue" d="M113.23,-280.5C92.21,-274.15 69.61,-263.12 57,-244 47.43,-229.49 55.26,-210.05 63.57,-196.22"/>
<polygon fill="midnightblue" stroke="midnightblue" points="66.63,-197.95 69.2,-187.68 60.78,-194.1 66.63,-197.95"/>
</g>
<!-- Node20&#45;&gt;Node16 -->
<g id="edge26" class="edge">
<title>Node20&#45;&gt;Node16</title>
<path fill="none" stroke="midnightblue" d="M162.63,-280.37C163.92,-262.62 166.9,-221.67 168.65,-197.6"/>
<polygon fill="midnightblue" stroke="midnightblue" points="172.14,-197.82 169.38,-187.59 165.16,-197.31 172.14,-197.82"/>
</g>
<!-- Node21 -->
<g id="node21" class="node">
<title>Node21</title>
<g id="a_node21"><a xlink:href="mxvectordraw_8h.html" target="_top" xlink:title=" ">
<polygon fill="none" stroke="black" points="613.5,-224.5 613.5,-243.5 698.5,-243.5 698.5,-224.5 613.5,-224.5"/>
<text text-anchor="middle" x="656" y="-231.5" font-family="Helvetica,sans-Serif" font-size="10.00">mxvectordraw.h</text>
</a>
</g>
</g>
<!-- Node20&#45;&gt;Node21 -->
<g id="edge27" class="edge">
<title>Node20&#45;&gt;Node21</title>
<path fill="none" stroke="midnightblue" d="M211.61,-284.42C306.93,-275.56 513.52,-255.97 603.35,-244.12"/>
<polygon fill="midnightblue" stroke="midnightblue" points="604.02,-247.56 613.46,-242.75 603.08,-240.62 604.02,-247.56"/>
</g>
<!-- Node22 -->
<g id="node22" class="node">
<title>Node22</title>
<g id="a_node22"><a xlink:href="mxrect_8h.html" target="_top" xlink:title=" ">
<polygon fill="none" stroke="black" points="870.5,-168.5 870.5,-187.5 923.5,-187.5 923.5,-168.5 870.5,-168.5"/>
<text text-anchor="middle" x="897" y="-175.5" font-family="Helvetica,sans-Serif" font-size="10.00">mxrect.h</text>
</a>
</g>
</g>
<!-- Node21&#45;&gt;Node22 -->
<g id="edge28" class="edge">
<title>Node21&#45;&gt;Node22</title>
<path fill="none" stroke="midnightblue" d="M697.14,-224.48C736.68,-216.18 798.35,-202.97 860.33,-188.34"/>
<polygon fill="midnightblue" stroke="midnightblue" points="861.35,-191.69 870.27,-185.98 859.73,-184.88 861.35,-191.69"/>
</g>
<!-- Node22&#45;&gt;Node2 -->
<g id="edge29" class="edge">
<title>Node22&#45;&gt;Node2</title>
<path fill="none" stroke="midnightblue" d="M898.11,-168.09C900.02,-155.07 904.76,-130.42 915,-112 934.43,-77.02 968.37,-44.49 989.43,-26.23"/>
<polygon fill="midnightblue" stroke="midnightblue" points="991.97,-28.67 997.33,-19.53 987.44,-23.33 991.97,-28.67"/>
</g>
<!-- Node22&#45;&gt;Node19 -->
<g id="edge30" class="edge">
<title>Node22&#45;&gt;Node19</title>
<path fill="none" stroke="midnightblue" d="M870.26,-170.06C867.47,-169.36 864.68,-168.66 862,-168 810.57,-155.36 751.2,-141.57 712.25,-132.63"/>
<polygon fill="midnightblue" stroke="midnightblue" points="712.85,-129.18 702.32,-130.35 711.29,-136 712.85,-129.18"/>
</g>
<!-- Node23 -->
<g id="node23" class="node">
<title>Node23</title>
<g id="a_node23"><a xlink:title=" ">
<polygon fill="none" stroke="#bfbfbf" points="924,-112.5 924,-131.5 980,-131.5 980,-112.5 924,-112.5"/>
<text text-anchor="middle" x="952" y="-119.5" font-family="Helvetica,sans-Serif" font-size="10.00">algorithm</text>
</a>
</g>
</g>
<!-- Node22&#45;&gt;Node23 -->
<g id="edge31" class="edge">
<title>Node22&#45;&gt;Node23</title>
<path fill="none" stroke="midnightblue" d="M906.08,-168.08C914.17,-160.14 926.2,-148.34 935.91,-138.8"/>
<polygon fill="midnightblue" stroke="midnightblue" points="938.4,-141.25 943.09,-131.75 933.5,-136.26 938.4,-141.25"/>
</g>
<!-- Node24&#45;&gt;Node2 -->
<g id="edge33" class="edge">
<title>Node24&#45;&gt;Node2</title>
<path fill="none" stroke="midnightblue" d="M279.34,-224.4C280.37,-210.41 284.51,-182.81 301,-168 471.4,-14.97 580.4,-105.56 804,-56 860.15,-43.56 925,-29.26 966.24,-20.19"/>
<polygon fill="midnightblue" stroke="midnightblue" points="967.18,-23.56 976.19,-18 965.68,-16.73 967.18,-23.56"/>
</g>
<!-- Node24&#45;&gt;Node14 -->
<g id="edge37" class="edge">
<title>Node24&#45;&gt;Node14</title>
<path fill="none" stroke="midnightblue" d="M246.83,-224.44C211.94,-215.16 156.11,-200.31 117.83,-190.13"/>
<polygon fill="midnightblue" stroke="midnightblue" points="118.58,-186.7 108.02,-187.52 116.78,-193.47 118.58,-186.7"/>
</g>
<!-- Node24&#45;&gt;Node15 -->
<g id="edge36" class="edge">
<title>Node24&#45;&gt;Node15</title>
<path fill="none" stroke="midnightblue" d="M273.35,-224.37C261.47,-206.22 233.71,-163.8 218.12,-139.99"/>
<polygon fill="midnightblue" stroke="midnightblue" points="221.03,-138.04 212.62,-131.59 215.17,-141.88 221.03,-138.04"/>
</g>
<!-- Node24&#45;&gt;Node16 -->
<g id="edge34" class="edge">
<title>Node24&#45;&gt;Node16</title>
<path fill="none" stroke="midnightblue" d="M261.49,-224.32C243.93,-215.62 216.67,-202.12 196.47,-192.11"/>
<polygon fill="midnightblue" stroke="midnightblue" points="197.98,-188.96 187.47,-187.65 194.88,-195.23 197.98,-188.96"/>
</g>
<!-- Node24&#45;&gt;Node19 -->
<g id="edge35" class="edge">
<title>Node24&#45;&gt;Node19</title>
<path fill="none" stroke="midnightblue" d="M282.5,-224.05C288.67,-209.57 302.98,-181.27 325,-168 375.13,-137.79 547.08,-127.53 627.67,-124.33"/>
<polygon fill="midnightblue" stroke="midnightblue" points="628.1,-127.82 637.96,-123.94 627.83,-120.82 628.1,-127.82"/>
</g>
<!-- Node24&#45;&gt;Node22 -->
<g id="edge38" class="edge">
<title>Node24&#45;&gt;Node22</title>
<path fill="none" stroke="midnightblue" d="M324.03,-225.16C327.06,-224.73 330.07,-224.34 333,-224 563.74,-196.98 627.55,-224.69 860.22,-188.01"/>
<polygon fill="midnightblue" stroke="midnightblue" points="861.03,-191.43 870.35,-186.39 859.93,-184.51 861.03,-191.43"/>
</g>
<!-- Node25&#45;&gt;Node19 -->
<g id="edge40" class="edge">
<title>Node25&#45;&gt;Node19</title>
<path fill="none" stroke="midnightblue" d="M603.27,-336.21C601.79,-322.92 597.44,-297.41 585,-280 568.87,-257.42 546.76,-268.63 534,-244 529.91,-236.11 530.09,-231.99 534,-224 555.29,-180.48 605.49,-151.14 638.59,-135.76"/>
<polygon fill="midnightblue" stroke="midnightblue" points="640.15,-138.9 647.84,-131.61 637.29,-132.51 640.15,-138.9"/>
</g>
<!-- Node26 -->
<g id="node26" class="node">
<title>Node26</title>
<g id="a_node26"><a xlink:title=" ">
<polygon fill="none" stroke="#bfbfbf" points="438,-280.5 438,-299.5 576,-299.5 576,-280.5 438,-280.5"/>
<text text-anchor="middle" x="507" y="-287.5" font-family="Helvetica,sans-Serif" font-size="10.00">mxmouseeventabstraction.h</text>
</a>
</g>
</g>
<!-- Node25&#45;&gt;Node26 -->
<g id="edge41" class="edge">
<title>Node25&#45;&gt;Node26</title>
<path fill="none" stroke="midnightblue" d="M588.42,-336.32C573,-327.74 549.19,-314.49 531.29,-304.52"/>
<polygon fill="midnightblue" stroke="midnightblue" points="532.99,-301.46 522.55,-299.65 529.58,-307.58 532.99,-301.46"/>
</g>
<!-- Node27&#45;&gt;Node2 -->
<g id="edge43" class="edge">
<title>Node27&#45;&gt;Node2</title>
<path fill="none" stroke="midnightblue" d="M855.95,-336.37C875.87,-320.16 918.35,-283.26 944,-244 989.72,-174.02 1003.04,-71.81 1006.7,-29.95"/>
<polygon fill="midnightblue" stroke="midnightblue" points="1010.2,-30.06 1007.49,-19.82 1003.22,-29.51 1010.2,-30.06"/>
</g>
<!-- Node27&#45;&gt;Node5 -->
<g id="edge45" class="edge">
<title>Node27&#45;&gt;Node5</title>
<path fill="none" stroke="midnightblue" d="M878.06,-344.3C943.93,-342.18 1095.7,-333.73 1218,-300 1277.08,-283.7 1303.66,-290.13 1344,-244 1355.24,-231.15 1359.84,-211.97 1361.72,-197.77"/>
<polygon fill="midnightblue" stroke="midnightblue" points="1365.22,-197.96 1362.72,-187.67 1358.25,-197.28 1365.22,-197.96"/>
</g>
<!-- Node27&#45;&gt;Node21 -->
<g id="edge44" class="edge">
<title>Node27&#45;&gt;Node21</title>
<path fill="none" stroke="midnightblue" d="M826.86,-336.38C808.87,-327.67 780.65,-313.61 757,-300 728.63,-283.67 697.08,-262.93 676.92,-249.33"/>
<polygon fill="midnightblue" stroke="midnightblue" points="678.74,-246.34 668.5,-243.62 674.81,-252.13 678.74,-246.34"/>
</g>
<!-- Node28 -->
<g id="node28" class="node">
<title>Node28</title>
<g id="a_node28"><a xlink:href="mxtextdraw_8h.html" target="_top" xlink:title=" ">
<polygon fill="none" stroke="black" points="861,-224.5 861,-243.5 935,-243.5 935,-224.5 861,-224.5"/>
<text text-anchor="middle" x="898" y="-231.5" font-family="Helvetica,sans-Serif" font-size="10.00">mxtextdraw.h</text>
</a>
</g>
</g>
<!-- Node27&#45;&gt;Node28 -->
<g id="edge46" class="edge">
<title>Node27&#45;&gt;Node28</title>
<path fill="none" stroke="midnightblue" d="M849.16,-336.37C857.83,-318.38 877.98,-276.55 889.51,-252.63"/>
<polygon fill="midnightblue" stroke="midnightblue" points="892.67,-254.12 893.86,-243.59 886.37,-251.08 892.67,-254.12"/>
</g>
<!-- Node33 -->
<g id="node33" class="node">
<title>Node33</title>
<g id="a_node33"><a xlink:href="mxicondraw_8h.html" target="_top" xlink:title=" ">
<polygon fill="none" stroke="black" points="766,-280.5 766,-299.5 842,-299.5 842,-280.5 766,-280.5"/>
<text text-anchor="middle" x="804" y="-287.5" font-family="Helvetica,sans-Serif" font-size="10.00">mxicondraw.h</text>
</a>
</g>
</g>
<!-- Node27&#45;&gt;Node33 -->
<g id="edge61" class="edge">
<title>Node27&#45;&gt;Node33</title>
<path fill="none" stroke="midnightblue" d="M838.23,-336.08C832.44,-328.46 823.94,-317.26 816.86,-307.94"/>
<polygon fill="midnightblue" stroke="midnightblue" points="819.48,-305.6 810.64,-299.75 813.9,-309.83 819.48,-305.6"/>
</g>
<!-- Node35 -->
<g id="node35" class="node">
<title>Node35</title>
<g id="a_node35"><a xlink:href="mxstaticfont_8h.html" target="_top" xlink:title=" ">
<polygon fill="none" stroke="black" points="632.5,-280.5 632.5,-299.5 709.5,-299.5 709.5,-280.5 632.5,-280.5"/>
<text text-anchor="middle" x="671" y="-287.5" font-family="Helvetica,sans-Serif" font-size="10.00">mxstaticfont.h</text>
</a>
</g>
</g>
<!-- Node27&#45;&gt;Node35 -->
<g id="edge64" class="edge">
<title>Node27&#45;&gt;Node35</title>
<path fill="none" stroke="midnightblue" d="M817.43,-336.44C787.9,-327.28 740.88,-312.69 708.12,-302.52"/>
<polygon fill="midnightblue" stroke="midnightblue" points="709.03,-299.14 698.44,-299.52 706.96,-305.82 709.03,-299.14"/>
</g>
<!-- Node28&#45;&gt;Node19 -->
<g id="edge47" class="edge">
<title>Node28&#45;&gt;Node19</title>
<path fill="none" stroke="midnightblue" d="M872.87,-224.39C849.26,-216.02 813.15,-202.47 783,-188 750.51,-172.4 714.71,-151.06 692.3,-137.15"/>
<polygon fill="midnightblue" stroke="midnightblue" points="693.89,-134.02 683.56,-131.69 690.18,-139.96 693.89,-134.02"/>
</g>
<!-- Node28&#45;&gt;Node22 -->
<g id="edge60" class="edge">
<title>Node28&#45;&gt;Node22</title>
<path fill="none" stroke="midnightblue" d="M897.83,-224.08C897.7,-217.01 897.52,-206.86 897.35,-197.99"/>
<polygon fill="midnightblue" stroke="midnightblue" points="900.85,-197.68 897.16,-187.75 893.85,-197.81 900.85,-197.68"/>
</g>
<!-- Node29 -->
<g id="node29" class="node">
<title>Node29</title>
<g id="a_node29"><a xlink:href="mxstring_8h.html" target="_top" xlink:title=" ">
<polygon fill="none" stroke="black" points="791.5,-168.5 791.5,-187.5 852.5,-187.5 852.5,-168.5 791.5,-168.5"/>
<text text-anchor="middle" x="822" y="-175.5" font-family="Helvetica,sans-Serif" font-size="10.00">mxstring.h</text>
</a>
</g>
</g>
<!-- Node28&#45;&gt;Node29 -->
<g id="edge48" class="edge">
<title>Node28&#45;&gt;Node29</title>
<path fill="none" stroke="midnightblue" d="M885.79,-224.32C874.22,-216.11 856.62,-203.6 842.84,-193.81"/>
<polygon fill="midnightblue" stroke="midnightblue" points="844.61,-190.77 834.43,-187.83 840.56,-196.48 844.61,-190.77"/>
</g>
<!-- Node30 -->
<g id="node30" class="node">
<title>Node30</title>
<g id="a_node30"><a xlink:href="mxgenericstring_8h.html" target="_top" xlink:title=" ">
<polygon fill="none" stroke="black" points="1238,-112.5 1238,-131.5 1330,-131.5 1330,-112.5 1238,-112.5"/>
<text text-anchor="middle" x="1284" y="-119.5" font-family="Helvetica,sans-Serif" font-size="10.00">mxgenericstring.h</text>
</a>
</g>
</g>
<!-- Node29&#45;&gt;Node30 -->
<g id="edge49" class="edge">
<title>Node29&#45;&gt;Node30</title>
<path fill="none" stroke="midnightblue" d="M852.5,-169.76C855.7,-169.11 858.91,-168.51 862,-168 992.19,-146.49 1146.75,-133.05 1227.87,-126.92"/>
<polygon fill="midnightblue" stroke="midnightblue" points="1228.16,-130.41 1237.87,-126.17 1227.64,-123.43 1228.16,-130.41"/>
</g>
<!-- Node30&#45;&gt;Node2 -->
<g id="edge50" class="edge">
<title>Node30&#45;&gt;Node2</title>
<path fill="none" stroke="midnightblue" d="M1279.22,-112.22C1270.97,-97.98 1252.66,-70.01 1229,-56 1172.94,-22.8 1096.37,-13.74 1049.65,-11.48"/>
<polygon fill="midnightblue" stroke="midnightblue" points="1049.72,-7.98 1039.59,-11.07 1049.44,-14.97 1049.72,-7.98"/>
</g>
<!-- Node30&#45;&gt;Node6 -->
<g id="edge51" class="edge">
<title>Node30&#45;&gt;Node6</title>
<path fill="none" stroke="midnightblue" d="M1317.91,-112.44C1354.85,-103.12 1414.05,-88.18 1454.42,-78"/>
<polygon fill="midnightblue" stroke="midnightblue" points="1455.41,-81.36 1464.25,-75.52 1453.7,-74.57 1455.41,-81.36"/>
</g>
<!-- Node30&#45;&gt;Node7 -->
<g id="edge58" class="edge">
<title>Node30&#45;&gt;Node7</title>
<path fill="none" stroke="midnightblue" d="M1285.42,-112.36C1287.89,-99.26 1293.9,-73.99 1306,-56 1313.91,-44.23 1325.67,-33.7 1336.01,-25.79"/>
<polygon fill="midnightblue" stroke="midnightblue" points="1338.22,-28.51 1344.24,-19.79 1334.1,-22.85 1338.22,-28.51"/>
</g>
<!-- Node30&#45;&gt;Node8 -->
<g id="edge59" class="edge">
<title>Node30&#45;&gt;Node8</title>
<path fill="none" stroke="midnightblue" d="M1318.76,-112.5C1351.75,-103.78 1398.14,-89.6 1411,-76 1422.73,-63.6 1427.26,-44.35 1428.99,-30.02"/>
<polygon fill="midnightblue" stroke="midnightblue" points="1432.5,-30.06 1429.86,-19.8 1425.53,-29.47 1432.5,-30.06"/>
</g>
<!-- Node31 -->
<g id="node31" class="node">
<title>Node31</title>
<g id="a_node31"><a xlink:href="mxbytearrayref_8h.html" target="_top" xlink:title=" ">
<polygon fill="none" stroke="black" points="1314.5,-56.5 1314.5,-75.5 1401.5,-75.5 1401.5,-56.5 1314.5,-56.5"/>
<text text-anchor="middle" x="1358" y="-63.5" font-family="Helvetica,sans-Serif" font-size="10.00">mxbytearrayref.h</text>
</a>
</g>
</g>
<!-- Node30&#45;&gt;Node31 -->
<g id="edge52" class="edge">
<title>Node30&#45;&gt;Node31</title>
<path fill="none" stroke="midnightblue" d="M1295.89,-112.32C1307.15,-104.11 1324.29,-91.6 1337.71,-81.81"/>
<polygon fill="midnightblue" stroke="midnightblue" points="1339.88,-84.56 1345.89,-75.83 1335.75,-78.9 1339.88,-84.56"/>
</g>
<!-- Node32 -->
<g id="node32" class="node">
<title>Node32</title>
<g id="a_node32"><a xlink:href="mxgenericsubstring_8h.html" target="_top" xlink:title=" ">
<polygon fill="none" stroke="black" points="1112,-56.5 1112,-75.5 1220,-75.5 1220,-56.5 1112,-56.5"/>
<text text-anchor="middle" x="1166" y="-63.5" font-family="Helvetica,sans-Serif" font-size="10.00">mxgenericsubstring.h</text>
</a>
</g>
</g>
<!-- Node30&#45;&gt;Node32 -->
<g id="edge56" class="edge">
<title>Node30&#45;&gt;Node32</title>
<path fill="none" stroke="midnightblue" d="M1265.3,-112.44C1246.06,-103.64 1215.85,-89.81 1193.8,-79.72"/>
<polygon fill="midnightblue" stroke="midnightblue" points="1195.16,-76.5 1184.61,-75.52 1192.25,-82.86 1195.16,-76.5"/>
</g>
<!-- Node31&#45;&gt;Node2 -->
<g id="edge53" class="edge">
<title>Node31&#45;&gt;Node2</title>
<path fill="none" stroke="midnightblue" d="M1314.38,-58.27C1246.54,-47.8 1116.63,-27.76 1049.88,-17.46"/>
<polygon fill="midnightblue" stroke="midnightblue" points="1050.14,-13.96 1039.72,-15.89 1049.07,-20.88 1050.14,-13.96"/>
</g>
<!-- Node31&#45;&gt;Node7 -->
<g id="edge54" class="edge">
<title>Node31&#45;&gt;Node7</title>
<path fill="none" stroke="midnightblue" d="M1358,-56.08C1358,-49.01 1358,-38.86 1358,-29.99"/>
<polygon fill="midnightblue" stroke="midnightblue" points="1361.5,-29.75 1358,-19.75 1354.5,-29.75 1361.5,-29.75"/>
</g>
<!-- Node31&#45;&gt;Node8 -->
<g id="edge55" class="edge">
<title>Node31&#45;&gt;Node8</title>
<path fill="none" stroke="midnightblue" d="M1369.57,-56.32C1380.42,-48.18 1396.88,-35.84 1409.88,-26.09"/>
<polygon fill="midnightblue" stroke="midnightblue" points="1412.32,-28.63 1418.22,-19.83 1408.12,-23.03 1412.32,-28.63"/>
</g>
<!-- Node32&#45;&gt;Node2 -->
<g id="edge57" class="edge">
<title>Node32&#45;&gt;Node2</title>
<path fill="none" stroke="midnightblue" d="M1140.96,-56.44C1114.38,-47.36 1072.19,-32.94 1042.48,-22.78"/>
<polygon fill="midnightblue" stroke="midnightblue" points="1043.51,-19.44 1032.92,-19.52 1041.25,-26.06 1043.51,-19.44"/>
</g>
<!-- Node33&#45;&gt;Node22 -->
<g id="edge63" class="edge">
<title>Node33&#45;&gt;Node22</title>
<path fill="none" stroke="midnightblue" d="M786.54,-280.34C764.46,-268.23 731.14,-245.31 747,-224 750.49,-219.3 817.15,-200.57 860.42,-188.8"/>
<polygon fill="midnightblue" stroke="midnightblue" points="861.6,-192.11 870.33,-186.12 859.77,-185.35 861.6,-192.11"/>
</g>
<!-- Node34 -->
<g id="node34" class="node">
<title>Node34</title>
<g id="a_node34"><a xlink:href="mxthemeicons_8h.html" target="_top" xlink:title=" ">
<polygon fill="none" stroke="black" points="755.5,-224.5 755.5,-243.5 842.5,-243.5 842.5,-224.5 755.5,-224.5"/>
<text text-anchor="middle" x="799" y="-231.5" font-family="Helvetica,sans-Serif" font-size="10.00">mxthemeicons.h</text>
</a>
</g>
</g>
<!-- Node33&#45;&gt;Node34 -->
<g id="edge62" class="edge">
<title>Node33&#45;&gt;Node34</title>
<path fill="none" stroke="midnightblue" d="M803.17,-280.08C802.52,-273.01 801.58,-262.86 800.76,-253.99"/>
<polygon fill="midnightblue" stroke="midnightblue" points="804.22,-253.39 799.81,-243.75 797.25,-254.03 804.22,-253.39"/>
</g>
<!-- Node36 -->
<g id="node36" class="node">
<title>Node36</title>
<g id="a_node36"><a xlink:href="mxfont_8h.html" target="_top" xlink:title=" ">
<polygon fill="none" stroke="black" points="542.5,-224.5 542.5,-243.5 595.5,-243.5 595.5,-224.5 542.5,-224.5"/>
<text text-anchor="middle" x="569" y="-231.5" font-family="Helvetica,sans-Serif" font-size="10.00">mxfont.h</text>
</a>
</g>
</g>
<!-- Node35&#45;&gt;Node36 -->
<g id="edge65" class="edge">
<title>Node35&#45;&gt;Node36</title>
<path fill="none" stroke="midnightblue" d="M654.61,-280.32C638.33,-271.7 613.13,-258.36 594.28,-248.39"/>
<polygon fill="midnightblue" stroke="midnightblue" points="595.82,-245.24 585.35,-243.65 592.55,-251.43 595.82,-245.24"/>
</g>
<!-- Node36&#45;&gt;Node15 -->
<g id="edge68" class="edge">
<title>Node36&#45;&gt;Node15</title>
<path fill="none" stroke="midnightblue" d="M558.86,-224.46C541.48,-210.31 504.34,-182.15 468,-168 394.69,-139.46 302.79,-128.97 249.89,-125.15"/>
<polygon fill="midnightblue" stroke="midnightblue" points="250.07,-121.65 239.85,-124.47 249.59,-128.64 250.07,-121.65"/>
</g>
<!-- Node36&#45;&gt;Node19 -->
<g id="edge66" class="edge">
<title>Node36&#45;&gt;Node19</title>
<path fill="none" stroke="midnightblue" d="M576.93,-224.37C593.81,-205.97 633.57,-162.67 655.26,-139.05"/>
<polygon fill="midnightblue" stroke="midnightblue" points="657.93,-141.32 662.11,-131.59 652.77,-136.59 657.93,-141.32"/>
</g>
<!-- Node36&#45;&gt;Node29 -->
<g id="edge67" class="edge">
<title>Node36&#45;&gt;Node29</title>
<path fill="none" stroke="midnightblue" d="M595.71,-226.2C598.84,-225.44 601.99,-224.69 605,-224 666.29,-209.99 737.74,-195.53 781.42,-186.9"/>
<polygon fill="midnightblue" stroke="midnightblue" points="782.23,-190.31 791.37,-184.95 780.88,-183.44 782.23,-190.31"/>
</g>
<!-- Node37&#45;&gt;Node4 -->
<g id="edge72" class="edge">
<title>Node37&#45;&gt;Node4</title>
<path fill="none" stroke="midnightblue" d="M1195.01,-280.44C1214.59,-271.64 1245.31,-257.81 1267.73,-247.72"/>
<polygon fill="midnightblue" stroke="midnightblue" points="1269.39,-250.81 1277.07,-243.52 1266.52,-244.43 1269.39,-250.81"/>
</g>
<!-- Node37&#45;&gt;Node19 -->
<g id="edge71" class="edge">
<title>Node37&#45;&gt;Node19</title>
<path fill="none" stroke="midnightblue" d="M1159.77,-280.43C1135.85,-267.85 1089.67,-243.72 1050,-224 998.38,-198.34 987.94,-185.47 933,-168 857.26,-143.91 764.92,-131.9 712.24,-126.6"/>
<polygon fill="midnightblue" stroke="midnightblue" points="712.55,-123.11 702.25,-125.62 711.87,-130.08 712.55,-123.11"/>
</g>
<!-- Node37&#45;&gt;Node22 -->
<g id="edge70" class="edge">
<title>Node37&#45;&gt;Node22</title>
<path fill="none" stroke="midnightblue" d="M1154.11,-280.37C1104.91,-260.97 985.44,-213.87 928.37,-191.37"/>
<polygon fill="midnightblue" stroke="midnightblue" points="929.38,-188 918.79,-187.59 926.81,-194.52 929.38,-188"/>
</g>
<!-- Node38 -->
<g id="node38" class="node">
<title>Node38</title>
<g id="a_node38"><a xlink:href="mxclippedwidget_8h.html" target="_top" xlink:title=" ">
<polygon fill="none" stroke="black" points="1143,-224.5 1143,-243.5 1239,-243.5 1239,-224.5 1143,-224.5"/>
<text text-anchor="middle" x="1191" y="-231.5" font-family="Helvetica,sans-Serif" font-size="10.00">mxclippedwidget.h</text>
</a>
</g>
</g>
<!-- Node37&#45;&gt;Node38 -->
<g id="edge73" class="edge">
<title>Node37&#45;&gt;Node38</title>
<path fill="none" stroke="midnightblue" d="M1178.48,-280.08C1180.49,-272.85 1183.39,-262.41 1185.89,-253.4"/>
<polygon fill="midnightblue" stroke="midnightblue" points="1189.26,-254.32 1188.57,-243.75 1182.52,-252.45 1189.26,-254.32"/>
</g>
<!-- Node38&#45;&gt;Node5 -->
<g id="edge75" class="edge">
<title>Node38&#45;&gt;Node5</title>
<path fill="none" stroke="midnightblue" d="M1218.25,-224.44C1247.91,-215.13 1295.43,-200.21 1327.87,-190.03"/>
<polygon fill="midnightblue" stroke="midnightblue" points="1329.34,-193.24 1337.83,-186.9 1327.24,-186.56 1329.34,-193.24"/>
</g>
<!-- Node38&#45;&gt;Node22 -->
<g id="edge74" class="edge">
<title>Node38&#45;&gt;Node22</title>
<path fill="none" stroke="midnightblue" d="M1144.41,-224.44C1085.97,-213.71 986.97,-195.53 933.64,-185.73"/>
<polygon fill="midnightblue" stroke="midnightblue" points="934.08,-182.25 923.61,-183.89 932.81,-189.14 934.08,-182.25"/>
</g>
</g>
</svg>
