<?xml version="1.0" encoding="UTF-8" standalone="no"?>
<!DOCTYPE svg PUBLIC "-//W3C//DTD SVG 1.1//EN"
 "http://www.w3.org/Graphics/SVG/1.1/DTD/svg11.dtd">
<!-- Generated by graphviz version 2.44.0 ()
 -->
<!-- Title: src/events/mxapplication.h Pages: 1 -->
<svg width="1335pt" height="420pt"
 viewBox="0.00 0.00 1335.36 420.00" xmlns="http://www.w3.org/2000/svg" xmlns:xlink="http://www.w3.org/1999/xlink">
<g id="graph0" class="graph" transform="scale(1 1) rotate(0) translate(4 416)">
<title>src/events/mxapplication.h</title>
<!-- Node1 -->
<g id="node1" class="node">
<title>Node1</title>
<g id="a_node1"><a xlink:title=" ">
<polygon fill="#bfbfbf" stroke="black" points="903.86,-392.5 903.86,-411.5 1035.86,-411.5 1035.86,-392.5 903.86,-392.5"/>
<text text-anchor="middle" x="969.86" y="-399.5" font-family="Helvetica,sans-Serif" font-size="10.00">src/events/mxapplication.h</text>
</a>
</g>
</g>
<!-- Node2 -->
<g id="node2" class="node">
<title>Node2</title>
<g id="a_node2"><a xlink:title=" ">
<polygon fill="none" stroke="#bfbfbf" points="520.36,-0.5 520.36,-19.5 583.36,-19.5 583.36,-0.5 520.36,-0.5"/>
<text text-anchor="middle" x="551.86" y="-7.5" font-family="Helvetica,sans-Serif" font-size="10.00">mxdebug.h</text>
</a>
</g>
</g>
<!-- Node1&#45;&gt;Node2 -->
<g id="edge1" class="edge">
<title>Node1&#45;&gt;Node2</title>
<path fill="none" stroke="midnightblue" d="M1035.99,-398.43C1107.64,-391.68 1211.86,-368.53 1211.86,-291 1211.86,-291 1211.86,-291 1211.86,-121 1211.86,-58.1 739.47,-22.9 593.99,-13.55"/>
<polygon fill="midnightblue" stroke="midnightblue" points="593.9,-10.03 583.7,-12.89 593.45,-17.02 593.9,-10.03"/>
</g>
<!-- Node3 -->
<g id="node3" class="node">
<title>Node3</title>
<g id="a_node3"><a xlink:href="mxwidgetlist_8h.html" target="_top" xlink:title=" ">
<polygon fill="none" stroke="black" points="669.86,-336.5 669.86,-355.5 747.86,-355.5 747.86,-336.5 669.86,-336.5"/>
<text text-anchor="middle" x="708.86" y="-343.5" font-family="Helvetica,sans-Serif" font-size="10.00">mxwidgetlist.h</text>
</a>
</g>
</g>
<!-- Node1&#45;&gt;Node3 -->
<g id="edge2" class="edge">
<title>Node1&#45;&gt;Node3</title>
<path fill="none" stroke="midnightblue" d="M928.51,-392.44C882.21,-382.86 807.24,-367.35 757.99,-357.16"/>
<polygon fill="midnightblue" stroke="midnightblue" points="758.4,-353.67 747.89,-355.08 756.98,-360.53 758.4,-353.67"/>
</g>
<!-- Node9 -->
<g id="node9" class="node">
<title>Node9</title>
<g id="a_node9"><a xlink:href="mxrenderer_8h.html" target="_top" xlink:title=" ">
<polygon fill="none" stroke="black" points="289.86,-336.5 289.86,-355.5 361.86,-355.5 361.86,-336.5 289.86,-336.5"/>
<text text-anchor="middle" x="325.86" y="-343.5" font-family="Helvetica,sans-Serif" font-size="10.00">mxrenderer.h</text>
</a>
</g>
</g>
<!-- Node1&#45;&gt;Node9 -->
<g id="edge9" class="edge">
<title>Node1&#45;&gt;Node9</title>
<path fill="none" stroke="midnightblue" d="M903.67,-395.45C772.94,-384.49 484.57,-360.31 372.08,-350.88"/>
<polygon fill="midnightblue" stroke="midnightblue" points="372.33,-347.38 362.07,-350.04 371.74,-354.36 372.33,-347.38"/>
</g>
<!-- Node25 -->
<g id="node25" class="node">
<title>Node25</title>
<g id="a_node25"><a xlink:href="mxmouseevent_8h.html" target="_top" xlink:title=" ">
<polygon fill="none" stroke="black" points="972.86,-336.5 972.86,-355.5 1062.86,-355.5 1062.86,-336.5 972.86,-336.5"/>
<text text-anchor="middle" x="1017.86" y="-343.5" font-family="Helvetica,sans-Serif" font-size="10.00">mxmouseevent.h</text>
</a>
</g>
</g>
<!-- Node1&#45;&gt;Node25 -->
<g id="edge43" class="edge">
<title>Node1&#45;&gt;Node25</title>
<path fill="none" stroke="midnightblue" d="M977.79,-392.08C984.71,-384.3 994.93,-372.8 1003.32,-363.37"/>
<polygon fill="midnightblue" stroke="midnightblue" points="1006.06,-365.55 1010.08,-355.75 1000.82,-360.9 1006.06,-365.55"/>
</g>
<!-- Node27 -->
<g id="node27" class="node">
<title>Node27</title>
<g id="a_node27"><a xlink:href="mxpainter_8h.html" target="_top" xlink:title=" ">
<polygon fill="none" stroke="black" points="865.86,-336.5 865.86,-355.5 931.86,-355.5 931.86,-336.5 865.86,-336.5"/>
<text text-anchor="middle" x="898.86" y="-343.5" font-family="Helvetica,sans-Serif" font-size="10.00">mxpainter.h</text>
</a>
</g>
</g>
<!-- Node1&#45;&gt;Node27 -->
<g id="edge46" class="edge">
<title>Node1&#45;&gt;Node27</title>
<path fill="none" stroke="midnightblue" d="M958.46,-392.32C947.75,-384.18 931.52,-371.84 918.7,-362.09"/>
<polygon fill="midnightblue" stroke="midnightblue" points="920.56,-359.1 910.48,-355.83 916.32,-364.67 920.56,-359.1"/>
</g>
<!-- Node32 -->
<g id="node32" class="node">
<title>Node32</title>
<g id="a_node32"><a xlink:href="mxaggregation_8h.html" target="_top" xlink:title=" ">
<polygon fill="none" stroke="black" points="1240.36,-336.5 1240.36,-355.5 1327.36,-355.5 1327.36,-336.5 1240.36,-336.5"/>
<text text-anchor="middle" x="1283.86" y="-343.5" font-family="Helvetica,sans-Serif" font-size="10.00">mxaggregation.h</text>
</a>
</g>
</g>
<!-- Node1&#45;&gt;Node32 -->
<g id="edge58" class="edge">
<title>Node1&#45;&gt;Node32</title>
<path fill="none" stroke="midnightblue" d="M1019.62,-392.44C1077,-382.58 1170.98,-366.41 1230.03,-356.26"/>
<polygon fill="midnightblue" stroke="midnightblue" points="1230.65,-359.7 1239.92,-354.56 1229.47,-352.8 1230.65,-359.7"/>
</g>
<!-- Node4 -->
<g id="node4" class="node">
<title>Node4</title>
<g id="a_node4"><a xlink:href="mxlist_8h.html" target="_top" xlink:title=" ">
<polygon fill="none" stroke="black" points="637.86,-280.5 637.86,-299.5 687.86,-299.5 687.86,-280.5 637.86,-280.5"/>
<text text-anchor="middle" x="662.86" y="-287.5" font-family="Helvetica,sans-Serif" font-size="10.00">mxlist.h</text>
</a>
</g>
</g>
<!-- Node3&#45;&gt;Node4 -->
<g id="edge3" class="edge">
<title>Node3&#45;&gt;Node4</title>
<path fill="none" stroke="midnightblue" d="M701.27,-336.08C694.64,-328.3 684.84,-316.8 676.81,-307.37"/>
<polygon fill="midnightblue" stroke="midnightblue" points="679.47,-305.09 670.32,-299.75 674.14,-309.63 679.47,-305.09"/>
</g>
<!-- Node4&#45;&gt;Node2 -->
<g id="edge4" class="edge">
<title>Node4&#45;&gt;Node2</title>
<path fill="none" stroke="midnightblue" d="M688.14,-288.73C722.07,-286.98 782.1,-278.76 816.86,-244 838.15,-222.72 835.86,-209.1 835.86,-179 835.86,-179 835.86,-179 835.86,-121 835.86,-69.7 672.7,-32.97 593.72,-18.2"/>
<polygon fill="midnightblue" stroke="midnightblue" points="594.08,-14.71 583.62,-16.34 592.82,-21.59 594.08,-14.71"/>
</g>
<!-- Node5 -->
<g id="node5" class="node">
<title>Node5</title>
<g id="a_node5"><a xlink:href="mxrefcounter_8h.html" target="_top" xlink:title=" ">
<polygon fill="none" stroke="black" points="444.86,-224.5 444.86,-243.5 524.86,-243.5 524.86,-224.5 444.86,-224.5"/>
<text text-anchor="middle" x="484.86" y="-231.5" font-family="Helvetica,sans-Serif" font-size="10.00">mxrefcounter.h</text>
</a>
</g>
</g>
<!-- Node4&#45;&gt;Node5 -->
<g id="edge5" class="edge">
<title>Node4&#45;&gt;Node5</title>
<path fill="none" stroke="midnightblue" d="M637.74,-281.38C607.82,-272.3 557.55,-257.05 522.87,-246.53"/>
<polygon fill="midnightblue" stroke="midnightblue" points="523.68,-243.12 513.09,-243.56 521.65,-249.82 523.68,-243.12"/>
</g>
<!-- Node6 -->
<g id="node6" class="node">
<title>Node6</title>
<g id="a_node6"><a xlink:title=" ">
<polygon fill="none" stroke="#bfbfbf" points="543.36,-224.5 543.36,-243.5 590.36,-243.5 590.36,-224.5 543.36,-224.5"/>
<text text-anchor="middle" x="566.86" y="-231.5" font-family="Helvetica,sans-Serif" font-size="10.00">stdlib.h</text>
</a>
</g>
</g>
<!-- Node4&#45;&gt;Node6 -->
<g id="edge6" class="edge">
<title>Node4&#45;&gt;Node6</title>
<path fill="none" stroke="midnightblue" d="M647.44,-280.32C632.32,-271.82 609.05,-258.73 591.39,-248.8"/>
<polygon fill="midnightblue" stroke="midnightblue" points="592.68,-245.51 582.25,-243.65 589.25,-251.61 592.68,-245.51"/>
</g>
<!-- Node7 -->
<g id="node7" class="node">
<title>Node7</title>
<g id="a_node7"><a xlink:title=" ">
<polygon fill="none" stroke="#bfbfbf" points="608.86,-224.5 608.86,-243.5 656.86,-243.5 656.86,-224.5 608.86,-224.5"/>
<text text-anchor="middle" x="632.86" y="-231.5" font-family="Helvetica,sans-Serif" font-size="10.00">string.h</text>
</a>
</g>
</g>
<!-- Node4&#45;&gt;Node7 -->
<g id="edge7" class="edge">
<title>Node4&#45;&gt;Node7</title>
<path fill="none" stroke="midnightblue" d="M657.91,-280.08C653.76,-272.61 647.71,-261.72 642.6,-252.52"/>
<polygon fill="midnightblue" stroke="midnightblue" points="645.64,-250.79 637.73,-243.75 639.52,-254.19 645.64,-250.79"/>
</g>
<!-- Node8 -->
<g id="node8" class="node">
<title>Node8</title>
<g id="a_node8"><a xlink:title=" ">
<polygon fill="none" stroke="#bfbfbf" points="675.36,-224.5 675.36,-243.5 710.36,-243.5 710.36,-224.5 675.36,-224.5"/>
<text text-anchor="middle" x="692.86" y="-231.5" font-family="Helvetica,sans-Serif" font-size="10.00">new</text>
</a>
</g>
</g>
<!-- Node4&#45;&gt;Node8 -->
<g id="edge8" class="edge">
<title>Node4&#45;&gt;Node8</title>
<path fill="none" stroke="midnightblue" d="M667.82,-280.08C671.97,-272.61 678.02,-261.72 683.13,-252.52"/>
<polygon fill="midnightblue" stroke="midnightblue" points="686.2,-254.19 688,-243.75 680.09,-250.79 686.2,-254.19"/>
</g>
<!-- Node9&#45;&gt;Node4 -->
<g id="edge34" class="edge">
<title>Node9&#45;&gt;Node4</title>
<path fill="none" stroke="midnightblue" d="M361.93,-339.22C426.91,-328.81 562.88,-307.02 627.41,-296.68"/>
<polygon fill="midnightblue" stroke="midnightblue" points="628.18,-300.1 637.5,-295.06 627.07,-293.19 628.18,-300.1"/>
</g>
<!-- Node10 -->
<g id="node10" class="node">
<title>Node10</title>
<g id="a_node10"><a xlink:href="mxopenglfunctions_8h.html" target="_top" xlink:title=" ">
<polygon fill="none" stroke="black" points="273.36,-280.5 273.36,-299.5 378.36,-299.5 378.36,-280.5 273.36,-280.5"/>
<text text-anchor="middle" x="325.86" y="-287.5" font-family="Helvetica,sans-Serif" font-size="10.00">mxopenglfunctions.h</text>
</a>
</g>
</g>
<!-- Node9&#45;&gt;Node10 -->
<g id="edge10" class="edge">
<title>Node9&#45;&gt;Node10</title>
<path fill="none" stroke="midnightblue" d="M325.86,-336.08C325.86,-329.01 325.86,-318.86 325.86,-309.99"/>
<polygon fill="midnightblue" stroke="midnightblue" points="329.36,-309.75 325.86,-299.75 322.36,-309.75 329.36,-309.75"/>
</g>
<!-- Node12 -->
<g id="node12" class="node">
<title>Node12</title>
<g id="a_node12"><a xlink:href="mxcolorwheelprogram_8h.html" target="_top" xlink:title=" ">
<polygon fill="none" stroke="black" points="12.36,-168.5 12.36,-187.5 131.36,-187.5 131.36,-168.5 12.36,-168.5"/>
<text text-anchor="middle" x="71.86" y="-175.5" font-family="Helvetica,sans-Serif" font-size="10.00">mxcolorwheelprogram.h</text>
</a>
</g>
</g>
<!-- Node9&#45;&gt;Node12 -->
<g id="edge12" class="edge">
<title>Node9&#45;&gt;Node12</title>
<path fill="none" stroke="midnightblue" d="M289.63,-344.86C220.2,-343.75 72.47,-336.99 40.86,-300 15.27,-270.05 41.62,-221.66 59.07,-196.1"/>
<polygon fill="midnightblue" stroke="midnightblue" points="62.04,-197.96 64.99,-187.79 56.34,-193.9 62.04,-197.96"/>
</g>
<!-- Node20 -->
<g id="node20" class="node">
<title>Node20</title>
<g id="a_node20"><a xlink:href="mxvectorprogram_8h.html" target="_top" xlink:title=" ">
<polygon fill="none" stroke="black" points="50.36,-280.5 50.36,-299.5 149.36,-299.5 149.36,-280.5 50.36,-280.5"/>
<text text-anchor="middle" x="99.86" y="-287.5" font-family="Helvetica,sans-Serif" font-size="10.00">mxvectorprogram.h</text>
</a>
</g>
</g>
<!-- Node9&#45;&gt;Node20 -->
<g id="edge25" class="edge">
<title>Node9&#45;&gt;Node20</title>
<path fill="none" stroke="midnightblue" d="M290.05,-336.44C250.88,-327.08 187.99,-312.06 145.35,-301.87"/>
<polygon fill="midnightblue" stroke="midnightblue" points="146.05,-298.44 135.51,-299.52 144.42,-305.24 146.05,-298.44"/>
</g>
<!-- Node22 -->
<g id="node22" class="node">
<title>Node22</title>
<g id="a_node22"><a xlink:href="gpubuffer_8h.html" target="_top" xlink:title=" ">
<polygon fill="none" stroke="black" points="187.86,-168.5 187.86,-187.5 251.86,-187.5 251.86,-168.5 187.86,-168.5"/>
<text text-anchor="middle" x="219.86" y="-175.5" font-family="Helvetica,sans-Serif" font-size="10.00">gpubuffer.h</text>
</a>
</g>
</g>
<!-- Node9&#45;&gt;Node22 -->
<g id="edge35" class="edge">
<title>Node9&#45;&gt;Node22</title>
<path fill="none" stroke="midnightblue" d="M291.81,-336.5C250.06,-324.04 181.12,-296.4 150.86,-244 138.44,-222.49 164.66,-203.74 188.27,-191.98"/>
<polygon fill="midnightblue" stroke="midnightblue" points="189.87,-195.1 197.44,-187.68 186.9,-188.76 189.87,-195.1"/>
</g>
<!-- Node24 -->
<g id="node24" class="node">
<title>Node24</title>
<g id="a_node24"><a xlink:href="mxiconprogram_8h.html" target="_top" xlink:title=" ">
<polygon fill="none" stroke="black" points="362.86,-168.5 362.86,-187.5 452.86,-187.5 452.86,-168.5 362.86,-168.5"/>
<text text-anchor="middle" x="407.86" y="-175.5" font-family="Helvetica,sans-Serif" font-size="10.00">mxiconprogram.h</text>
</a>
</g>
</g>
<!-- Node9&#45;&gt;Node24 -->
<g id="edge36" class="edge">
<title>Node9&#45;&gt;Node24</title>
<path fill="none" stroke="midnightblue" d="M344.07,-336.41C358.06,-328.83 376.65,-316.43 386.86,-300 406.67,-268.12 409.17,-222.87 408.79,-197.71"/>
<polygon fill="midnightblue" stroke="midnightblue" points="412.29,-197.57 408.47,-187.68 405.3,-197.79 412.29,-197.57"/>
</g>
<!-- Node11 -->
<g id="node11" class="node">
<title>Node11</title>
<g id="a_node11"><a xlink:title=" ">
<polygon fill="none" stroke="#bfbfbf" points="263.36,-224.5 263.36,-243.5 388.36,-243.5 388.36,-224.5 263.36,-224.5"/>
<text text-anchor="middle" x="325.86" y="-231.5" font-family="Helvetica,sans-Serif" font-size="10.00">QOpenGLExtraFunctions</text>
</a>
</g>
</g>
<!-- Node10&#45;&gt;Node11 -->
<g id="edge11" class="edge">
<title>Node10&#45;&gt;Node11</title>
<path fill="none" stroke="midnightblue" d="M325.86,-280.08C325.86,-273.01 325.86,-262.86 325.86,-253.99"/>
<polygon fill="midnightblue" stroke="midnightblue" points="329.36,-253.75 325.86,-243.75 322.36,-253.75 329.36,-253.75"/>
</g>
<!-- Node12&#45;&gt;Node2 -->
<g id="edge13" class="edge">
<title>Node12&#45;&gt;Node2</title>
<path fill="none" stroke="midnightblue" d="M119.07,-168.47C156.96,-160.92 211.17,-148.54 256.86,-132 329.01,-105.89 340.71,-84.7 411.86,-56 444.55,-42.81 482.69,-30.76 510.9,-22.46"/>
<polygon fill="midnightblue" stroke="midnightblue" points="512.2,-25.73 520.82,-19.57 510.24,-19.01 512.2,-25.73"/>
</g>
<!-- Node13 -->
<g id="node13" class="node">
<title>Node13</title>
<g id="a_node13"><a xlink:href="mxopengl_8h.html" target="_top" xlink:title=" ">
<polygon fill="none" stroke="black" points="117.36,-0.5 117.36,-19.5 182.36,-19.5 182.36,-0.5 117.36,-0.5"/>
<text text-anchor="middle" x="149.86" y="-7.5" font-family="Helvetica,sans-Serif" font-size="10.00">mxopengl.h</text>
</a>
</g>
</g>
<!-- Node12&#45;&gt;Node13 -->
<g id="edge14" class="edge">
<title>Node12&#45;&gt;Node13</title>
<path fill="none" stroke="midnightblue" d="M57.86,-168.23C46.63,-160.31 31.66,-147.52 24.86,-132 11.32,-101.05 4.4,-83.61 23.86,-56 42.57,-29.45 78.43,-18.48 107.13,-13.99"/>
<polygon fill="midnightblue" stroke="midnightblue" points="107.89,-17.42 117.33,-12.61 106.95,-10.48 107.89,-17.42"/>
</g>
<!-- Node14 -->
<g id="node14" class="node">
<title>Node14</title>
<g id="a_node14"><a xlink:href="mxshaderprogram_8h.html" target="_top" xlink:title=" ">
<polygon fill="none" stroke="black" points="209.36,-56.5 209.36,-75.5 310.36,-75.5 310.36,-56.5 209.36,-56.5"/>
<text text-anchor="middle" x="259.86" y="-63.5" font-family="Helvetica,sans-Serif" font-size="10.00">mxshaderprogram.h</text>
</a>
</g>
</g>
<!-- Node12&#45;&gt;Node14 -->
<g id="edge15" class="edge">
<title>Node12&#45;&gt;Node14</title>
<path fill="none" stroke="midnightblue" d="M86.58,-168.37C107.84,-155.92 148.36,-132.18 182.86,-112 200.79,-101.51 221.08,-89.66 236.32,-80.75"/>
<polygon fill="midnightblue" stroke="midnightblue" points="238.23,-83.69 245.1,-75.62 234.7,-77.65 238.23,-83.69"/>
</g>
<!-- Node15 -->
<g id="node15" class="node">
<title>Node15</title>
<g id="a_node15"><a xlink:href="mxmatrix_8h.html" target="_top" xlink:title=" ">
<polygon fill="none" stroke="black" points="34.36,-112.5 34.36,-131.5 97.36,-131.5 97.36,-112.5 34.36,-112.5"/>
<text text-anchor="middle" x="65.86" y="-119.5" font-family="Helvetica,sans-Serif" font-size="10.00">mxmatrix.h</text>
</a>
</g>
</g>
<!-- Node12&#45;&gt;Node15 -->
<g id="edge18" class="edge">
<title>Node12&#45;&gt;Node15</title>
<path fill="none" stroke="midnightblue" d="M70.87,-168.08C70.08,-160.93 68.93,-150.64 67.94,-141.69"/>
<polygon fill="midnightblue" stroke="midnightblue" points="71.42,-141.3 66.84,-131.75 64.46,-142.08 71.42,-141.3"/>
</g>
<!-- Node17 -->
<g id="node17" class="node">
<title>Node17</title>
<g id="a_node17"><a xlink:href="mxrect_8h.html" target="_top" xlink:title=" ">
<polygon fill="none" stroke="black" points="487.36,-112.5 487.36,-131.5 540.36,-131.5 540.36,-112.5 487.36,-112.5"/>
<text text-anchor="middle" x="513.86" y="-119.5" font-family="Helvetica,sans-Serif" font-size="10.00">mxrect.h</text>
</a>
</g>
</g>
<!-- Node12&#45;&gt;Node17 -->
<g id="edge20" class="edge">
<title>Node12&#45;&gt;Node17</title>
<path fill="none" stroke="midnightblue" d="M131.47,-169.72C224.31,-158.38 400.68,-136.83 477.07,-127.5"/>
<polygon fill="midnightblue" stroke="midnightblue" points="477.66,-130.95 487.16,-126.26 476.81,-124 477.66,-130.95"/>
</g>
<!-- Node14&#45;&gt;Node2 -->
<g id="edge16" class="edge">
<title>Node14&#45;&gt;Node2</title>
<path fill="none" stroke="midnightblue" d="M306.13,-56.44C362.33,-46.05 456.3,-28.67 510.29,-18.69"/>
<polygon fill="midnightblue" stroke="midnightblue" points="511.01,-22.11 520.21,-16.85 509.74,-15.23 511.01,-22.11"/>
</g>
<!-- Node14&#45;&gt;Node13 -->
<g id="edge17" class="edge">
<title>Node14&#45;&gt;Node13</title>
<path fill="none" stroke="midnightblue" d="M242.19,-56.32C224.47,-47.62 196.96,-34.12 176.57,-24.11"/>
<polygon fill="midnightblue" stroke="midnightblue" points="178.01,-20.92 167.49,-19.65 174.93,-27.2 178.01,-20.92"/>
</g>
<!-- Node16 -->
<g id="node16" class="node">
<title>Node16</title>
<g id="a_node16"><a xlink:title=" ">
<polygon fill="none" stroke="#bfbfbf" points="33.36,-56.5 33.36,-75.5 98.36,-75.5 98.36,-56.5 33.36,-56.5"/>
<text text-anchor="middle" x="65.86" y="-63.5" font-family="Helvetica,sans-Serif" font-size="10.00">QMatrix4x4</text>
</a>
</g>
</g>
<!-- Node15&#45;&gt;Node16 -->
<g id="edge19" class="edge">
<title>Node15&#45;&gt;Node16</title>
<path fill="none" stroke="midnightblue" d="M65.86,-112.08C65.86,-105.01 65.86,-94.86 65.86,-85.99"/>
<polygon fill="midnightblue" stroke="midnightblue" points="69.36,-85.75 65.86,-75.75 62.36,-85.75 69.36,-85.75"/>
</g>
<!-- Node17&#45;&gt;Node2 -->
<g id="edge21" class="edge">
<title>Node17&#45;&gt;Node2</title>
<path fill="none" stroke="midnightblue" d="M516.85,-112.37C523.01,-94.54 537.25,-53.3 545.55,-29.27"/>
<polygon fill="midnightblue" stroke="midnightblue" points="548.94,-30.19 548.9,-19.59 542.32,-27.9 548.94,-30.19"/>
</g>
<!-- Node18 -->
<g id="node18" class="node">
<title>Node18</title>
<g id="a_node18"><a xlink:href="mxvector_8h.html" target="_top" xlink:title=" ">
<polygon fill="none" stroke="black" points="549.86,-56.5 549.86,-75.5 613.86,-75.5 613.86,-56.5 549.86,-56.5"/>
<text text-anchor="middle" x="581.86" y="-63.5" font-family="Helvetica,sans-Serif" font-size="10.00">mxvector.h</text>
</a>
</g>
</g>
<!-- Node17&#45;&gt;Node18 -->
<g id="edge22" class="edge">
<title>Node17&#45;&gt;Node18</title>
<path fill="none" stroke="midnightblue" d="M524.79,-112.32C535.04,-104.18 550.58,-91.84 562.86,-82.09"/>
<polygon fill="midnightblue" stroke="midnightblue" points="565.08,-84.79 570.74,-75.83 560.73,-79.31 565.08,-84.79"/>
</g>
<!-- Node19 -->
<g id="node19" class="node">
<title>Node19</title>
<g id="a_node19"><a xlink:title=" ">
<polygon fill="none" stroke="#bfbfbf" points="437.86,-56.5 437.86,-75.5 493.86,-75.5 493.86,-56.5 437.86,-56.5"/>
<text text-anchor="middle" x="465.86" y="-63.5" font-family="Helvetica,sans-Serif" font-size="10.00">algorithm</text>
</a>
</g>
</g>
<!-- Node17&#45;&gt;Node19 -->
<g id="edge24" class="edge">
<title>Node17&#45;&gt;Node19</title>
<path fill="none" stroke="midnightblue" d="M505.94,-112.08C499.02,-104.3 488.8,-92.8 480.41,-83.37"/>
<polygon fill="midnightblue" stroke="midnightblue" points="482.9,-80.9 473.64,-75.75 477.67,-85.55 482.9,-80.9"/>
</g>
<!-- Node18&#45;&gt;Node2 -->
<g id="edge23" class="edge">
<title>Node18&#45;&gt;Node2</title>
<path fill="none" stroke="midnightblue" d="M576.91,-56.08C572.76,-48.61 566.71,-37.72 561.6,-28.52"/>
<polygon fill="midnightblue" stroke="midnightblue" points="564.64,-26.79 556.73,-19.75 558.52,-30.19 564.64,-26.79"/>
</g>
<!-- Node20&#45;&gt;Node14 -->
<g id="edge26" class="edge">
<title>Node20&#45;&gt;Node14</title>
<path fill="none" stroke="midnightblue" d="M103.52,-280.19C112.96,-258.43 140.13,-201.45 178.86,-168 207.76,-143.04 235.55,-163.68 256.86,-132 265.92,-118.54 265.76,-99.73 263.87,-85.8"/>
<polygon fill="midnightblue" stroke="midnightblue" points="267.31,-85.12 262.13,-75.88 260.41,-86.33 267.31,-85.12"/>
</g>
<!-- Node20&#45;&gt;Node15 -->
<g id="edge27" class="edge">
<title>Node20&#45;&gt;Node15</title>
<path fill="none" stroke="midnightblue" d="M86.58,-280.38C64.24,-265 19.93,-230.4 2.86,-188 -0.46,-179.75 -1.2,-175.9 2.86,-168 9.94,-154.25 23.38,-143.77 36.04,-136.39"/>
<polygon fill="midnightblue" stroke="midnightblue" points="37.86,-139.39 45.02,-131.57 34.55,-133.22 37.86,-139.39"/>
</g>
<!-- Node21 -->
<g id="node21" class="node">
<title>Node21</title>
<g id="a_node21"><a xlink:href="mxvectordraw_8h.html" target="_top" xlink:title=" ">
<polygon fill="none" stroke="black" points="160.36,-224.5 160.36,-243.5 245.36,-243.5 245.36,-224.5 160.36,-224.5"/>
<text text-anchor="middle" x="202.86" y="-231.5" font-family="Helvetica,sans-Serif" font-size="10.00">mxvectordraw.h</text>
</a>
</g>
</g>
<!-- Node20&#45;&gt;Node21 -->
<g id="edge28" class="edge">
<title>Node20&#45;&gt;Node21</title>
<path fill="none" stroke="midnightblue" d="M116.41,-280.32C132.85,-271.7 158.3,-258.36 177.33,-248.39"/>
<polygon fill="midnightblue" stroke="midnightblue" points="179.12,-251.4 186.36,-243.65 175.87,-245.2 179.12,-251.4"/>
</g>
<!-- Node21&#45;&gt;Node17 -->
<g id="edge33" class="edge">
<title>Node21&#45;&gt;Node17</title>
<path fill="none" stroke="midnightblue" d="M245.44,-225.48C248.29,-224.98 251.12,-224.48 253.86,-224 346.28,-207.85 381.09,-235.73 461.86,-188 480.85,-176.78 495.67,-155.85 504.55,-140.76"/>
<polygon fill="midnightblue" stroke="midnightblue" points="507.71,-142.29 509.52,-131.85 501.59,-138.89 507.71,-142.29"/>
</g>
<!-- Node21&#45;&gt;Node22 -->
<g id="edge29" class="edge">
<title>Node21&#45;&gt;Node22</title>
<path fill="none" stroke="midnightblue" d="M205.67,-224.08C207.95,-216.85 211.23,-206.41 214.07,-197.4"/>
<polygon fill="midnightblue" stroke="midnightblue" points="217.44,-198.34 217.11,-187.75 210.77,-196.24 217.44,-198.34"/>
</g>
<!-- Node23 -->
<g id="node23" class="node">
<title>Node23</title>
<g id="a_node23"><a xlink:href="gpuvbo_8h.html" target="_top" xlink:title=" ">
<polygon fill="none" stroke="black" points="191.86,-112.5 191.86,-131.5 247.86,-131.5 247.86,-112.5 191.86,-112.5"/>
<text text-anchor="middle" x="219.86" y="-119.5" font-family="Helvetica,sans-Serif" font-size="10.00">gpuvbo.h</text>
</a>
</g>
</g>
<!-- Node22&#45;&gt;Node23 -->
<g id="edge30" class="edge">
<title>Node22&#45;&gt;Node23</title>
<path fill="none" stroke="midnightblue" d="M219.86,-168.08C219.86,-161.01 219.86,-150.86 219.86,-141.99"/>
<polygon fill="midnightblue" stroke="midnightblue" points="223.36,-141.75 219.86,-131.75 216.36,-141.75 223.36,-141.75"/>
</g>
<!-- Node23&#45;&gt;Node13 -->
<g id="edge31" class="edge">
<title>Node23&#45;&gt;Node13</title>
<path fill="none" stroke="midnightblue" d="M214.37,-112.37C202.87,-94.3 176.07,-52.18 160.88,-28.31"/>
<polygon fill="midnightblue" stroke="midnightblue" points="163.65,-26.15 155.33,-19.59 157.75,-29.91 163.65,-26.15"/>
</g>
<!-- Node23&#45;&gt;Node14 -->
<g id="edge32" class="edge">
<title>Node23&#45;&gt;Node14</title>
<path fill="none" stroke="midnightblue" d="M226.47,-112.08C232.12,-104.46 240.41,-93.26 247.31,-83.94"/>
<polygon fill="midnightblue" stroke="midnightblue" points="250.24,-85.87 253.38,-75.75 244.62,-81.7 250.24,-85.87"/>
</g>
<!-- Node24&#45;&gt;Node2 -->
<g id="edge37" class="edge">
<title>Node24&#45;&gt;Node2</title>
<path fill="none" stroke="midnightblue" d="M406.66,-168.18C404.2,-146.4 400.98,-89.38 428.86,-56 448.96,-31.94 483.09,-20.74 510.31,-15.53"/>
<polygon fill="midnightblue" stroke="midnightblue" points="511.09,-18.95 520.36,-13.81 509.91,-12.05 511.09,-18.95"/>
</g>
<!-- Node24&#45;&gt;Node13 -->
<g id="edge40" class="edge">
<title>Node24&#45;&gt;Node13</title>
<path fill="none" stroke="midnightblue" d="M362.69,-173.53C304.68,-168.15 208.42,-155.85 182.86,-132 154.3,-105.34 149.57,-56.6 149.29,-29.84"/>
<polygon fill="midnightblue" stroke="midnightblue" points="152.79,-29.58 149.4,-19.54 145.79,-29.5 152.79,-29.58"/>
</g>
<!-- Node24&#45;&gt;Node14 -->
<g id="edge41" class="edge">
<title>Node24&#45;&gt;Node14</title>
<path fill="none" stroke="midnightblue" d="M396.25,-168.37C371.07,-149.65 311.19,-105.15 279.82,-81.83"/>
<polygon fill="midnightblue" stroke="midnightblue" points="281.54,-78.75 271.42,-75.59 277.36,-84.37 281.54,-78.75"/>
</g>
<!-- Node24&#45;&gt;Node15 -->
<g id="edge38" class="edge">
<title>Node24&#45;&gt;Node15</title>
<path fill="none" stroke="midnightblue" d="M362.63,-170.73C304.49,-162.53 200.46,-147.39 111.86,-132 110.41,-131.75 108.93,-131.49 107.44,-131.22"/>
<polygon fill="midnightblue" stroke="midnightblue" points="107.98,-127.76 97.5,-129.37 106.7,-134.64 107.98,-127.76"/>
</g>
<!-- Node24&#45;&gt;Node17 -->
<g id="edge42" class="edge">
<title>Node24&#45;&gt;Node17</title>
<path fill="none" stroke="midnightblue" d="M424.89,-168.32C441.89,-159.66 468.24,-146.24 487.86,-136.25"/>
<polygon fill="midnightblue" stroke="midnightblue" points="489.55,-139.31 496.87,-131.65 486.38,-133.08 489.55,-139.31"/>
</g>
<!-- Node24&#45;&gt;Node18 -->
<g id="edge39" class="edge">
<title>Node24&#45;&gt;Node18</title>
<path fill="none" stroke="midnightblue" d="M415.44,-168.45C427.68,-155.01 453.09,-128.76 478.86,-112 499.95,-98.29 525.92,-86.97 546.5,-79.12"/>
<polygon fill="midnightblue" stroke="midnightblue" points="547.97,-82.31 556.13,-75.55 545.54,-75.75 547.97,-82.31"/>
</g>
<!-- Node25&#45;&gt;Node18 -->
<g id="edge44" class="edge">
<title>Node25&#45;&gt;Node18</title>
<path fill="none" stroke="midnightblue" d="M1017.52,-336.44C1016.2,-314.74 1009.8,-257.01 978.86,-224 881,-119.58 704.92,-83.36 624.28,-71.87"/>
<polygon fill="midnightblue" stroke="midnightblue" points="624.4,-68.35 614.02,-70.46 623.45,-75.29 624.4,-68.35"/>
</g>
<!-- Node26 -->
<g id="node26" class="node">
<title>Node26</title>
<g id="a_node26"><a xlink:title=" ">
<polygon fill="none" stroke="#bfbfbf" points="1045.86,-280.5 1045.86,-299.5 1183.86,-299.5 1183.86,-280.5 1045.86,-280.5"/>
<text text-anchor="middle" x="1114.86" y="-287.5" font-family="Helvetica,sans-Serif" font-size="10.00">mxmouseeventabstraction.h</text>
</a>
</g>
</g>
<!-- Node25&#45;&gt;Node26 -->
<g id="edge45" class="edge">
<title>Node25&#45;&gt;Node26</title>
<path fill="none" stroke="midnightblue" d="M1033.45,-336.32C1048.86,-327.74 1072.68,-314.49 1090.57,-304.52"/>
<polygon fill="midnightblue" stroke="midnightblue" points="1092.28,-307.58 1099.32,-299.65 1088.88,-301.46 1092.28,-307.58"/>
</g>
<!-- Node27&#45;&gt;Node2 -->
<g id="edge47" class="edge">
<title>Node27&#45;&gt;Node2</title>
<path fill="none" stroke="midnightblue" d="M917.49,-336.35C959.08,-315.59 1055.86,-258.73 1055.86,-179 1055.86,-179 1055.86,-179 1055.86,-121 1055.86,-26.67 714.64,-13.1 593.72,-11.25"/>
<polygon fill="midnightblue" stroke="midnightblue" points="593.44,-7.75 583.39,-11.12 593.34,-14.75 593.44,-7.75"/>
</g>
<!-- Node27&#45;&gt;Node4 -->
<g id="edge57" class="edge">
<title>Node27&#45;&gt;Node4</title>
<path fill="none" stroke="midnightblue" d="M865.8,-337.43C821.55,-327.31 743.4,-309.43 698.08,-299.06"/>
<polygon fill="midnightblue" stroke="midnightblue" points="698.64,-295.6 688.12,-296.78 697.08,-302.42 698.64,-295.6"/>
</g>
<!-- Node27&#45;&gt;Node21 -->
<g id="edge48" class="edge">
<title>Node27&#45;&gt;Node21</title>
<path fill="none" stroke="midnightblue" d="M865.6,-340.02C771.55,-325.9 495.5,-284.12 255.39,-244.23"/>
<polygon fill="midnightblue" stroke="midnightblue" points="255.87,-240.76 245.43,-242.58 254.72,-247.67 255.87,-240.76"/>
</g>
<!-- Node28 -->
<g id="node28" class="node">
<title>Node28</title>
<g id="a_node28"><a xlink:href="mxicondraw_8h.html" target="_top" xlink:title=" ">
<polygon fill="none" stroke="black" points="837.86,-280.5 837.86,-299.5 913.86,-299.5 913.86,-280.5 837.86,-280.5"/>
<text text-anchor="middle" x="875.86" y="-287.5" font-family="Helvetica,sans-Serif" font-size="10.00">mxicondraw.h</text>
</a>
</g>
</g>
<!-- Node27&#45;&gt;Node28 -->
<g id="edge49" class="edge">
<title>Node27&#45;&gt;Node28</title>
<path fill="none" stroke="midnightblue" d="M895.07,-336.08C891.95,-328.77 887.44,-318.18 883.57,-309.1"/>
<polygon fill="midnightblue" stroke="midnightblue" points="886.73,-307.58 879.59,-299.75 880.29,-310.32 886.73,-307.58"/>
</g>
<!-- Node31 -->
<g id="node31" class="node">
<title>Node31</title>
<g id="a_node31"><a xlink:href="mxtextdraw_8h.html" target="_top" xlink:title=" ">
<polygon fill="none" stroke="black" points="546.86,-168.5 546.86,-187.5 620.86,-187.5 620.86,-168.5 546.86,-168.5"/>
<text text-anchor="middle" x="583.86" y="-175.5" font-family="Helvetica,sans-Serif" font-size="10.00">mxtextdraw.h</text>
</a>
</g>
</g>
<!-- Node27&#45;&gt;Node31 -->
<g id="edge54" class="edge">
<title>Node27&#45;&gt;Node31</title>
<path fill="none" stroke="midnightblue" d="M909.83,-336.2C935.05,-314.92 992.67,-259.83 960.86,-224 939.3,-199.71 727.53,-186.15 631.17,-181.2"/>
<polygon fill="midnightblue" stroke="midnightblue" points="631.28,-177.7 621.11,-180.69 630.92,-184.69 631.28,-177.7"/>
</g>
<!-- Node29 -->
<g id="node29" class="node">
<title>Node29</title>
<g id="a_node29"><a xlink:href="mxquaddraw_8h.html" target="_top" xlink:title=" ">
<polygon fill="none" stroke="black" points="728.36,-224.5 728.36,-243.5 807.36,-243.5 807.36,-224.5 728.36,-224.5"/>
<text text-anchor="middle" x="767.86" y="-231.5" font-family="Helvetica,sans-Serif" font-size="10.00">mxquaddraw.h</text>
</a>
</g>
</g>
<!-- Node28&#45;&gt;Node29 -->
<g id="edge50" class="edge">
<title>Node28&#45;&gt;Node29</title>
<path fill="none" stroke="midnightblue" d="M858.51,-280.32C841.19,-271.66 814.35,-258.24 794.36,-248.25"/>
<polygon fill="midnightblue" stroke="midnightblue" points="795.68,-245 785.17,-243.65 792.55,-251.26 795.68,-245"/>
</g>
<!-- Node30 -->
<g id="node30" class="node">
<title>Node30</title>
<g id="a_node30"><a xlink:href="mxthemeicons_8h.html" target="_top" xlink:title=" ">
<polygon fill="none" stroke="black" points="864.36,-224.5 864.36,-243.5 951.36,-243.5 951.36,-224.5 864.36,-224.5"/>
<text text-anchor="middle" x="907.86" y="-231.5" font-family="Helvetica,sans-Serif" font-size="10.00">mxthemeicons.h</text>
</a>
</g>
</g>
<!-- Node28&#45;&gt;Node30 -->
<g id="edge53" class="edge">
<title>Node28&#45;&gt;Node30</title>
<path fill="none" stroke="midnightblue" d="M881.15,-280.08C885.57,-272.61 892.03,-261.72 897.48,-252.52"/>
<polygon fill="midnightblue" stroke="midnightblue" points="900.59,-254.14 902.68,-243.75 894.57,-250.57 900.59,-254.14"/>
</g>
<!-- Node29&#45;&gt;Node17 -->
<g id="edge52" class="edge">
<title>Node29&#45;&gt;Node17</title>
<path fill="none" stroke="midnightblue" d="M728.19,-225.49C662.87,-213.09 539.68,-189.55 537.86,-188 524.29,-176.44 518.39,-156.48 515.82,-141.72"/>
<polygon fill="midnightblue" stroke="midnightblue" points="519.27,-141.1 514.44,-131.67 512.34,-142.05 519.27,-141.1"/>
</g>
<!-- Node29&#45;&gt;Node22 -->
<g id="edge51" class="edge">
<title>Node29&#45;&gt;Node22</title>
<path fill="none" stroke="midnightblue" d="M728.36,-225.28C725.49,-224.82 722.63,-224.38 719.86,-224 631.7,-211.8 365.97,-190.42 262.11,-182.28"/>
<polygon fill="midnightblue" stroke="midnightblue" points="262.24,-178.78 252,-181.49 261.69,-185.76 262.24,-178.78"/>
</g>
<!-- Node31&#45;&gt;Node17 -->
<g id="edge56" class="edge">
<title>Node31&#45;&gt;Node17</title>
<path fill="none" stroke="midnightblue" d="M572.62,-168.32C562.07,-160.18 546.06,-147.84 533.42,-138.09"/>
<polygon fill="midnightblue" stroke="midnightblue" points="535.37,-135.17 525.31,-131.83 531.09,-140.71 535.37,-135.17"/>
</g>
<!-- Node31&#45;&gt;Node18 -->
<g id="edge55" class="edge">
<title>Node31&#45;&gt;Node18</title>
<path fill="none" stroke="midnightblue" d="M583.71,-168.37C583.38,-150.62 582.64,-109.67 582.2,-85.6"/>
<polygon fill="midnightblue" stroke="midnightblue" points="585.7,-85.53 582.02,-75.59 578.7,-85.65 585.7,-85.53"/>
</g>
</g>
</svg>
