<?xml version="1.0" encoding="UTF-8" standalone="no"?>
<!DOCTYPE svg PUBLIC "-//W3C//DTD SVG 1.1//EN"
 "http://www.w3.org/Graphics/SVG/1.1/DTD/svg11.dtd">
<!-- Generated by graphviz version 2.44.0 ()
 -->
<!-- Title: src/events/mxapplication.cpp Pages: 1 -->
<svg width="1574pt" height="476pt"
 viewBox="0.00 0.00 1574.11 476.00" xmlns="http://www.w3.org/2000/svg" xmlns:xlink="http://www.w3.org/1999/xlink">
<g id="graph0" class="graph" transform="scale(1 1) rotate(0) translate(4 472)">
<title>src/events/mxapplication.cpp</title>
<!-- Node1 -->
<g id="node1" class="node">
<title>Node1</title>
<g id="a_node1"><a xlink:title=" ">
<polygon fill="#bfbfbf" stroke="black" points="776.5,-448.5 776.5,-467.5 919.5,-467.5 919.5,-448.5 776.5,-448.5"/>
<text text-anchor="middle" x="848" y="-455.5" font-family="Helvetica,sans-Serif" font-size="10.00">src/events/mxapplication.cpp</text>
</a>
</g>
</g>
<!-- Node2 -->
<g id="node2" class="node">
<title>Node2</title>
<g id="a_node2"><a xlink:title=" ">
<polygon fill="none" stroke="#bfbfbf" points="974.5,-0.5 974.5,-19.5 1037.5,-19.5 1037.5,-0.5 974.5,-0.5"/>
<text text-anchor="middle" x="1006" y="-7.5" font-family="Helvetica,sans-Serif" font-size="10.00">mxdebug.h</text>
</a>
</g>
</g>
<!-- Node1&#45;&gt;Node2 -->
<g id="edge1" class="edge">
<title>Node1&#45;&gt;Node2</title>
<path fill="none" stroke="midnightblue" d="M776.43,-455.19C571.99,-449.09 0,-425.03 0,-347 0,-347 0,-347 0,-121 0,-22.39 773.7,-12.14 964.07,-11.11"/>
<polygon fill="midnightblue" stroke="midnightblue" points="964.25,-14.61 974.23,-11.06 964.21,-7.61 964.25,-14.61"/>
</g>
<!-- Node3 -->
<g id="node3" class="node">
<title>Node3</title>
<g id="a_node3"><a xlink:href="mxapplication_8h.html" target="_top" xlink:title=" ">
<polygon fill="none" stroke="black" points="806.5,-392.5 806.5,-411.5 889.5,-411.5 889.5,-392.5 806.5,-392.5"/>
<text text-anchor="middle" x="848" y="-399.5" font-family="Helvetica,sans-Serif" font-size="10.00">mxapplication.h</text>
</a>
</g>
</g>
<!-- Node1&#45;&gt;Node3 -->
<g id="edge2" class="edge">
<title>Node1&#45;&gt;Node3</title>
<path fill="none" stroke="midnightblue" d="M848,-448.08C848,-441.01 848,-430.86 848,-421.99"/>
<polygon fill="midnightblue" stroke="midnightblue" points="851.5,-421.75 848,-411.75 844.5,-421.75 851.5,-421.75"/>
</g>
<!-- Node37 -->
<g id="node37" class="node">
<title>Node37</title>
<g id="a_node37"><a xlink:href="mxwidget_8h.html" target="_top" xlink:title=" ">
<polygon fill="none" stroke="black" points="1143.5,-280.5 1143.5,-299.5 1208.5,-299.5 1208.5,-280.5 1143.5,-280.5"/>
<text text-anchor="middle" x="1176" y="-287.5" font-family="Helvetica,sans-Serif" font-size="10.00">mxwidget.h</text>
</a>
</g>
</g>
<!-- Node1&#45;&gt;Node37 -->
<g id="edge70" class="edge">
<title>Node1&#45;&gt;Node37</title>
<path fill="none" stroke="midnightblue" d="M897.72,-448.45C957.47,-436.21 1058.47,-409.05 1129,-356 1145.64,-343.49 1158.87,-323.42 1167,-308.89"/>
<polygon fill="midnightblue" stroke="midnightblue" points="1170.19,-310.35 1171.8,-299.88 1164.01,-307.06 1170.19,-310.35"/>
</g>
<!-- Node3&#45;&gt;Node2 -->
<g id="edge3" class="edge">
<title>Node3&#45;&gt;Node2</title>
<path fill="none" stroke="midnightblue" d="M856.84,-392.44C865.69,-383.68 879.46,-369.46 890,-356 958.87,-268.05 978.8,-240.83 1004,-132 1011.68,-98.81 1016.99,-89.94 1014,-56 1013.22,-47.2 1011.61,-37.54 1010.03,-29.43"/>
<polygon fill="midnightblue" stroke="midnightblue" points="1013.44,-28.65 1007.99,-19.57 1006.59,-30.07 1013.44,-28.65"/>
</g>
<!-- Node4 -->
<g id="node4" class="node">
<title>Node4</title>
<g id="a_node4"><a xlink:href="mxwidgetlist_8h.html" target="_top" xlink:title=" ">
<polygon fill="none" stroke="black" points="1257,-224.5 1257,-243.5 1335,-243.5 1335,-224.5 1257,-224.5"/>
<text text-anchor="middle" x="1296" y="-231.5" font-family="Helvetica,sans-Serif" font-size="10.00">mxwidgetlist.h</text>
</a>
</g>
</g>
<!-- Node3&#45;&gt;Node4 -->
<g id="edge4" class="edge">
<title>Node3&#45;&gt;Node4</title>
<path fill="none" stroke="midnightblue" d="M889.81,-399.52C945.91,-396.37 1047.86,-386.56 1129,-356 1192.13,-332.22 1252.79,-277.91 1280.42,-250.88"/>
<polygon fill="midnightblue" stroke="midnightblue" points="1282.99,-253.26 1287.61,-243.73 1278.05,-248.3 1282.99,-253.26"/>
</g>
<!-- Node10 -->
<g id="node10" class="node">
<title>Node10</title>
<g id="a_node10"><a xlink:href="mxguirenderer_8h.html" target="_top" xlink:title=" ">
<polygon fill="none" stroke="black" points="259.5,-336.5 259.5,-355.5 344.5,-355.5 344.5,-336.5 259.5,-336.5"/>
<text text-anchor="middle" x="302" y="-343.5" font-family="Helvetica,sans-Serif" font-size="10.00">mxguirenderer.h</text>
</a>
</g>
</g>
<!-- Node3&#45;&gt;Node10 -->
<g id="edge11" class="edge">
<title>Node3&#45;&gt;Node10</title>
<path fill="none" stroke="midnightblue" d="M806.06,-396.85C707.85,-387.14 463.07,-362.93 354.87,-352.23"/>
<polygon fill="midnightblue" stroke="midnightblue" points="355.13,-348.74 344.83,-351.24 354.44,-355.7 355.13,-348.74"/>
</g>
<!-- Node25 -->
<g id="node25" class="node">
<title>Node25</title>
<g id="a_node25"><a xlink:href="mxmouseevent_8h.html" target="_top" xlink:title=" ">
<polygon fill="none" stroke="black" points="562,-336.5 562,-355.5 652,-355.5 652,-336.5 562,-336.5"/>
<text text-anchor="middle" x="607" y="-343.5" font-family="Helvetica,sans-Serif" font-size="10.00">mxmouseevent.h</text>
</a>
</g>
</g>
<!-- Node3&#45;&gt;Node25 -->
<g id="edge40" class="edge">
<title>Node3&#45;&gt;Node25</title>
<path fill="none" stroke="midnightblue" d="M809.81,-392.44C767.86,-383.04 700.41,-367.93 654.93,-357.74"/>
<polygon fill="midnightblue" stroke="midnightblue" points="655.53,-354.29 645.01,-355.52 654,-361.12 655.53,-354.29"/>
</g>
<!-- Node27 -->
<g id="node27" class="node">
<title>Node27</title>
<g id="a_node27"><a xlink:href="mxpainter_8h.html" target="_top" xlink:title=" ">
<polygon fill="none" stroke="black" points="815,-336.5 815,-355.5 881,-355.5 881,-336.5 815,-336.5"/>
<text text-anchor="middle" x="848" y="-343.5" font-family="Helvetica,sans-Serif" font-size="10.00">mxpainter.h</text>
</a>
</g>
</g>
<!-- Node3&#45;&gt;Node27 -->
<g id="edge43" class="edge">
<title>Node3&#45;&gt;Node27</title>
<path fill="none" stroke="midnightblue" d="M848,-392.08C848,-385.01 848,-374.86 848,-365.99"/>
<polygon fill="midnightblue" stroke="midnightblue" points="851.5,-365.75 848,-355.75 844.5,-365.75 851.5,-365.75"/>
</g>
<!-- Node5 -->
<g id="node5" class="node">
<title>Node5</title>
<g id="a_node5"><a xlink:href="mxlist_8h.html" target="_top" xlink:title=" ">
<polygon fill="none" stroke="black" points="1338,-168.5 1338,-187.5 1388,-187.5 1388,-168.5 1338,-168.5"/>
<text text-anchor="middle" x="1363" y="-175.5" font-family="Helvetica,sans-Serif" font-size="10.00">mxlist.h</text>
</a>
</g>
</g>
<!-- Node4&#45;&gt;Node5 -->
<g id="edge5" class="edge">
<title>Node4&#45;&gt;Node5</title>
<path fill="none" stroke="midnightblue" d="M1306.76,-224.32C1316.77,-216.26 1331.89,-204.08 1343.93,-194.37"/>
<polygon fill="midnightblue" stroke="midnightblue" points="1346.45,-196.83 1352.04,-187.83 1342.06,-191.38 1346.45,-196.83"/>
</g>
<!-- Node5&#45;&gt;Node2 -->
<g id="edge6" class="edge">
<title>Node5&#45;&gt;Node2</title>
<path fill="none" stroke="midnightblue" d="M1337.77,-169.86C1289.83,-155.74 1183.01,-121.62 1101,-76 1073.41,-60.65 1043.69,-39.49 1024.98,-25.54"/>
<polygon fill="midnightblue" stroke="midnightblue" points="1027.07,-22.73 1016.97,-19.5 1022.85,-28.32 1027.07,-22.73"/>
</g>
<!-- Node6 -->
<g id="node6" class="node">
<title>Node6</title>
<g id="a_node6"><a xlink:href="mxrefcounter_8h.html" target="_top" xlink:title=" ">
<polygon fill="none" stroke="black" points="1456,-56.5 1456,-75.5 1536,-75.5 1536,-56.5 1456,-56.5"/>
<text text-anchor="middle" x="1496" y="-63.5" font-family="Helvetica,sans-Serif" font-size="10.00">mxrefcounter.h</text>
</a>
</g>
</g>
<!-- Node5&#45;&gt;Node6 -->
<g id="edge7" class="edge">
<title>Node5&#45;&gt;Node6</title>
<path fill="none" stroke="midnightblue" d="M1373.44,-168.37C1395.97,-149.73 1449.41,-105.53 1477.7,-82.13"/>
<polygon fill="midnightblue" stroke="midnightblue" points="1480.14,-84.66 1485.61,-75.59 1475.68,-79.27 1480.14,-84.66"/>
</g>
<!-- Node7 -->
<g id="node7" class="node">
<title>Node7</title>
<g id="a_node7"><a xlink:title=" ">
<polygon fill="none" stroke="#bfbfbf" points="1332.5,-0.5 1332.5,-19.5 1379.5,-19.5 1379.5,-0.5 1332.5,-0.5"/>
<text text-anchor="middle" x="1356" y="-7.5" font-family="Helvetica,sans-Serif" font-size="10.00">stdlib.h</text>
</a>
</g>
</g>
<!-- Node5&#45;&gt;Node7 -->
<g id="edge8" class="edge">
<title>Node5&#45;&gt;Node7</title>
<path fill="none" stroke="midnightblue" d="M1388.42,-171.57C1448.92,-157.51 1592.98,-116.74 1545,-56 1544.39,-55.23 1443.88,-31.58 1389.7,-18.89"/>
<polygon fill="midnightblue" stroke="midnightblue" points="1390.38,-15.45 1379.84,-16.58 1388.78,-22.27 1390.38,-15.45"/>
</g>
<!-- Node8 -->
<g id="node8" class="node">
<title>Node8</title>
<g id="a_node8"><a xlink:title=" ">
<polygon fill="none" stroke="#bfbfbf" points="1404,-0.5 1404,-19.5 1452,-19.5 1452,-0.5 1404,-0.5"/>
<text text-anchor="middle" x="1428" y="-7.5" font-family="Helvetica,sans-Serif" font-size="10.00">string.h</text>
</a>
</g>
</g>
<!-- Node5&#45;&gt;Node8 -->
<g id="edge9" class="edge">
<title>Node5&#45;&gt;Node8</title>
<path fill="none" stroke="midnightblue" d="M1388.07,-176.71C1424.35,-175.03 1491.85,-167 1535,-132 1556.61,-114.47 1556.61,-103.08 1563,-76 1565.04,-67.35 1568.2,-63.21 1563,-56 1540.22,-24.4 1494.29,-14.65 1462.37,-11.83"/>
<polygon fill="midnightblue" stroke="midnightblue" points="1462.35,-8.32 1452.13,-11.12 1461.86,-15.3 1462.35,-8.32"/>
</g>
<!-- Node9 -->
<g id="node9" class="node">
<title>Node9</title>
<g id="a_node9"><a xlink:title=" ">
<polygon fill="none" stroke="#bfbfbf" points="1347.5,-112.5 1347.5,-131.5 1382.5,-131.5 1382.5,-112.5 1347.5,-112.5"/>
<text text-anchor="middle" x="1365" y="-119.5" font-family="Helvetica,sans-Serif" font-size="10.00">new</text>
</a>
</g>
</g>
<!-- Node5&#45;&gt;Node9 -->
<g id="edge10" class="edge">
<title>Node5&#45;&gt;Node9</title>
<path fill="none" stroke="midnightblue" d="M1363.33,-168.08C1363.59,-161.01 1363.97,-150.86 1364.3,-141.99"/>
<polygon fill="midnightblue" stroke="midnightblue" points="1367.8,-141.87 1364.68,-131.75 1360.81,-141.61 1367.8,-141.87"/>
</g>
<!-- Node11 -->
<g id="node11" class="node">
<title>Node11</title>
<g id="a_node11"><a xlink:href="mxbuffer_8h.html" target="_top" xlink:title=" ">
<polygon fill="none" stroke="black" points="271.5,-280.5 271.5,-299.5 332.5,-299.5 332.5,-280.5 271.5,-280.5"/>
<text text-anchor="middle" x="302" y="-287.5" font-family="Helvetica,sans-Serif" font-size="10.00">mxbuffer.h</text>
</a>
</g>
</g>
<!-- Node10&#45;&gt;Node11 -->
<g id="edge12" class="edge">
<title>Node10&#45;&gt;Node11</title>
<path fill="none" stroke="midnightblue" d="M302,-336.08C302,-329.01 302,-318.86 302,-309.99"/>
<polygon fill="midnightblue" stroke="midnightblue" points="305.5,-309.75 302,-299.75 298.5,-309.75 305.5,-309.75"/>
</g>
<!-- Node12 -->
<g id="node12" class="node">
<title>Node12</title>
<g id="a_node12"><a xlink:href="mxrenderer_8h.html" target="_top" xlink:title=" ">
<polygon fill="none" stroke="black" points="351,-280.5 351,-299.5 423,-299.5 423,-280.5 351,-280.5"/>
<text text-anchor="middle" x="387" y="-287.5" font-family="Helvetica,sans-Serif" font-size="10.00">mxrenderer.h</text>
</a>
</g>
</g>
<!-- Node10&#45;&gt;Node12 -->
<g id="edge13" class="edge">
<title>Node10&#45;&gt;Node12</title>
<path fill="none" stroke="midnightblue" d="M315.66,-336.32C328.92,-327.9 349.27,-314.97 364.85,-305.07"/>
<polygon fill="midnightblue" stroke="midnightblue" points="366.81,-307.97 373.38,-299.65 363.06,-302.06 366.81,-307.97"/>
</g>
<!-- Node20 -->
<g id="node20" class="node">
<title>Node20</title>
<g id="a_node20"><a xlink:href="mxvectorprogram_8h.html" target="_top" xlink:title=" ">
<polygon fill="none" stroke="black" points="154.5,-280.5 154.5,-299.5 253.5,-299.5 253.5,-280.5 154.5,-280.5"/>
<text text-anchor="middle" x="204" y="-287.5" font-family="Helvetica,sans-Serif" font-size="10.00">mxvectorprogram.h</text>
</a>
</g>
</g>
<!-- Node10&#45;&gt;Node20 -->
<g id="edge25" class="edge">
<title>Node10&#45;&gt;Node20</title>
<path fill="none" stroke="midnightblue" d="M286.25,-336.32C270.68,-327.74 246.62,-314.49 228.54,-304.52"/>
<polygon fill="midnightblue" stroke="midnightblue" points="230.15,-301.42 219.71,-299.65 226.78,-307.55 230.15,-301.42"/>
</g>
<!-- Node24 -->
<g id="node24" class="node">
<title>Node24</title>
<g id="a_node24"><a xlink:href="mxiconprogram_8h.html" target="_top" xlink:title=" ">
<polygon fill="none" stroke="black" points="158,-224.5 158,-243.5 248,-243.5 248,-224.5 158,-224.5"/>
<text text-anchor="middle" x="203" y="-231.5" font-family="Helvetica,sans-Serif" font-size="10.00">mxiconprogram.h</text>
</a>
</g>
</g>
<!-- Node10&#45;&gt;Node24 -->
<g id="edge33" class="edge">
<title>Node10&#45;&gt;Node24</title>
<path fill="none" stroke="midnightblue" d="M259.25,-338.61C217.66,-331.41 158.78,-318.28 145,-300 130.9,-281.29 155.09,-261.43 176.4,-248.66"/>
<polygon fill="midnightblue" stroke="midnightblue" points="178.27,-251.62 185.24,-243.64 174.81,-245.54 178.27,-251.62"/>
</g>
<!-- Node12&#45;&gt;Node5 -->
<g id="edge14" class="edge">
<title>Node12&#45;&gt;Node5</title>
<path fill="none" stroke="midnightblue" d="M423.28,-281.33C426.22,-280.84 429.16,-280.38 432,-280 658.08,-249.57 717.31,-269.51 944,-244 1086.93,-227.92 1255.76,-198.52 1327.7,-185.5"/>
<polygon fill="midnightblue" stroke="midnightblue" points="1328.38,-188.93 1337.59,-183.7 1327.13,-182.05 1328.38,-188.93"/>
</g>
<!-- Node13 -->
<g id="node13" class="node">
<title>Node13</title>
<g id="a_node13"><a xlink:href="mxgpuarray_8h.html" target="_top" xlink:title=" ">
<polygon fill="none" stroke="black" points="66,-224.5 66,-243.5 140,-243.5 140,-224.5 66,-224.5"/>
<text text-anchor="middle" x="103" y="-231.5" font-family="Helvetica,sans-Serif" font-size="10.00">mxgpuarray.h</text>
</a>
</g>
</g>
<!-- Node12&#45;&gt;Node13 -->
<g id="edge15" class="edge">
<title>Node12&#45;&gt;Node13</title>
<path fill="none" stroke="midnightblue" d="M350.85,-281.9C347.52,-281.25 344.2,-280.61 341,-280 258.81,-264.25 235.9,-260.59 150.08,-244.19"/>
<polygon fill="midnightblue" stroke="midnightblue" points="150.63,-240.74 140.15,-242.29 149.32,-247.61 150.63,-240.74"/>
</g>
<!-- Node16 -->
<g id="node16" class="node">
<title>Node16</title>
<g id="a_node16"><a xlink:href="mxmatrix_8h.html" target="_top" xlink:title=" ">
<polygon fill="none" stroke="black" points="250.5,-168.5 250.5,-187.5 313.5,-187.5 313.5,-168.5 250.5,-168.5"/>
<text text-anchor="middle" x="282" y="-175.5" font-family="Helvetica,sans-Serif" font-size="10.00">mxmatrix.h</text>
</a>
</g>
</g>
<!-- Node12&#45;&gt;Node16 -->
<g id="edge18" class="edge">
<title>Node12&#45;&gt;Node16</title>
<path fill="none" stroke="midnightblue" d="M375.22,-280.35C363.85,-271.73 346.43,-257.83 333,-244 318.39,-228.95 303.83,-209.88 294.03,-196.3"/>
<polygon fill="midnightblue" stroke="midnightblue" points="296.7,-194.02 288.06,-187.89 290.99,-198.07 296.7,-194.02"/>
</g>
<!-- Node17 -->
<g id="node17" class="node">
<title>Node17</title>
<g id="a_node17"><a xlink:href="mxvector_8h.html" target="_top" xlink:title=" ">
<polygon fill="none" stroke="black" points="567,-112.5 567,-131.5 631,-131.5 631,-112.5 567,-112.5"/>
<text text-anchor="middle" x="599" y="-119.5" font-family="Helvetica,sans-Serif" font-size="10.00">mxvector.h</text>
</a>
</g>
</g>
<!-- Node12&#45;&gt;Node17 -->
<g id="edge24" class="edge">
<title>Node12&#45;&gt;Node17</title>
<path fill="none" stroke="midnightblue" d="M403.89,-280.4C418.71,-272.33 440.29,-259.23 456,-244 485.57,-215.34 477.84,-194.93 509,-168 525.28,-153.93 546.73,-142.98 564.61,-135.41"/>
<polygon fill="midnightblue" stroke="midnightblue" points="566.17,-138.55 574.12,-131.55 563.54,-132.06 566.17,-138.55"/>
</g>
<!-- Node18 -->
<g id="node18" class="node">
<title>Node18</title>
<g id="a_node18"><a xlink:href="mxopenglfunctions_8h.html" target="_top" xlink:title=" ">
<polygon fill="none" stroke="black" points="342.5,-224.5 342.5,-243.5 447.5,-243.5 447.5,-224.5 342.5,-224.5"/>
<text text-anchor="middle" x="395" y="-231.5" font-family="Helvetica,sans-Serif" font-size="10.00">mxopenglfunctions.h</text>
</a>
</g>
</g>
<!-- Node12&#45;&gt;Node18 -->
<g id="edge22" class="edge">
<title>Node12&#45;&gt;Node18</title>
<path fill="none" stroke="midnightblue" d="M388.32,-280.08C389.38,-272.93 390.91,-262.64 392.23,-253.69"/>
<polygon fill="midnightblue" stroke="midnightblue" points="395.7,-254.16 393.7,-243.75 388.78,-253.13 395.7,-254.16"/>
</g>
<!-- Node14 -->
<g id="node14" class="node">
<title>Node14</title>
<g id="a_node14"><a xlink:href="mxgpuprogram_8h.html" target="_top" xlink:title=" ">
<polygon fill="none" stroke="black" points="30,-168.5 30,-187.5 118,-187.5 118,-168.5 30,-168.5"/>
<text text-anchor="middle" x="74" y="-175.5" font-family="Helvetica,sans-Serif" font-size="10.00">mxgpuprogram.h</text>
</a>
</g>
</g>
<!-- Node13&#45;&gt;Node14 -->
<g id="edge16" class="edge">
<title>Node13&#45;&gt;Node14</title>
<path fill="none" stroke="midnightblue" d="M98.21,-224.08C94.24,-216.69 88.47,-205.95 83.57,-196.81"/>
<polygon fill="midnightblue" stroke="midnightblue" points="86.51,-194.91 78.7,-187.75 80.35,-198.22 86.51,-194.91"/>
</g>
<!-- Node15 -->
<g id="node15" class="node">
<title>Node15</title>
<g id="a_node15"><a xlink:title=" ">
<polygon fill="none" stroke="#bfbfbf" points="174.5,-112.5 174.5,-131.5 239.5,-131.5 239.5,-112.5 174.5,-112.5"/>
<text text-anchor="middle" x="207" y="-119.5" font-family="Helvetica,sans-Serif" font-size="10.00">mxopengl.h</text>
</a>
</g>
</g>
<!-- Node14&#45;&gt;Node15 -->
<g id="edge17" class="edge">
<title>Node14&#45;&gt;Node15</title>
<path fill="none" stroke="midnightblue" d="M95.07,-168.44C117.06,-159.52 151.73,-145.44 176.66,-135.32"/>
<polygon fill="midnightblue" stroke="midnightblue" points="178.08,-138.52 186.02,-131.52 175.44,-132.04 178.08,-138.52"/>
</g>
<!-- Node16&#45;&gt;Node2 -->
<g id="edge19" class="edge">
<title>Node16&#45;&gt;Node2</title>
<path fill="none" stroke="midnightblue" d="M313,-168.44C389.1,-147.61 591.34,-93.21 762,-56 832.58,-40.61 915.39,-26.08 964.13,-17.88"/>
<polygon fill="midnightblue" stroke="midnightblue" points="965,-21.28 974.28,-16.18 963.84,-14.38 965,-21.28"/>
</g>
<!-- Node16&#45;&gt;Node17 -->
<g id="edge20" class="edge">
<title>Node16&#45;&gt;Node17</title>
<path fill="none" stroke="midnightblue" d="M313.84,-169.65C316.6,-169.07 319.34,-168.51 322,-168 404.91,-151.95 502.53,-137.01 556.93,-129.03"/>
<polygon fill="midnightblue" stroke="midnightblue" points="557.51,-132.48 566.9,-127.57 556.5,-125.55 557.51,-132.48"/>
</g>
<!-- Node17&#45;&gt;Node2 -->
<g id="edge21" class="edge">
<title>Node17&#45;&gt;Node2</title>
<path fill="none" stroke="midnightblue" d="M630.6,-112.46C703.41,-92.78 882.97,-44.25 964.51,-22.21"/>
<polygon fill="midnightblue" stroke="midnightblue" points="965.68,-25.52 974.42,-19.53 963.86,-18.76 965.68,-25.52"/>
</g>
<!-- Node19 -->
<g id="node19" class="node">
<title>Node19</title>
<g id="a_node19"><a xlink:title=" ">
<polygon fill="none" stroke="#bfbfbf" points="331.5,-168.5 331.5,-187.5 456.5,-187.5 456.5,-168.5 331.5,-168.5"/>
<text text-anchor="middle" x="394" y="-175.5" font-family="Helvetica,sans-Serif" font-size="10.00">QOpenGLExtraFunctions</text>
</a>
</g>
</g>
<!-- Node18&#45;&gt;Node19 -->
<g id="edge23" class="edge">
<title>Node18&#45;&gt;Node19</title>
<path fill="none" stroke="midnightblue" d="M394.83,-224.08C394.7,-217.01 394.52,-206.86 394.35,-197.99"/>
<polygon fill="midnightblue" stroke="midnightblue" points="397.85,-197.68 394.16,-187.75 390.85,-197.81 397.85,-197.68"/>
</g>
<!-- Node20&#45;&gt;Node14 -->
<g id="edge26" class="edge">
<title>Node20&#45;&gt;Node14</title>
<path fill="none" stroke="midnightblue" d="M154.49,-288.16C121.1,-284.68 79.22,-274.04 57,-244 46.74,-230.13 54.01,-210.6 61.97,-196.57"/>
<polygon fill="midnightblue" stroke="midnightblue" points="65.07,-198.21 67.4,-187.88 59.13,-194.51 65.07,-198.21"/>
</g>
<!-- Node20&#45;&gt;Node16 -->
<g id="edge27" class="edge">
<title>Node20&#45;&gt;Node16</title>
<path fill="none" stroke="midnightblue" d="M217.41,-280.48C229.25,-272.37 246.24,-259.16 257,-244 267.05,-229.84 273.69,-211.11 277.58,-197.4"/>
<polygon fill="midnightblue" stroke="midnightblue" points="280.99,-198.22 280.13,-187.65 274.22,-196.44 280.99,-198.22"/>
</g>
<!-- Node21 -->
<g id="node21" class="node">
<title>Node21</title>
<g id="a_node21"><a xlink:href="mxvectordraw_8h.html" target="_top" xlink:title=" ">
<polygon fill="none" stroke="black" points="613.5,-224.5 613.5,-243.5 698.5,-243.5 698.5,-224.5 613.5,-224.5"/>
<text text-anchor="middle" x="656" y="-231.5" font-family="Helvetica,sans-Serif" font-size="10.00">mxvectordraw.h</text>
</a>
</g>
</g>
<!-- Node20&#45;&gt;Node21 -->
<g id="edge28" class="edge">
<title>Node20&#45;&gt;Node21</title>
<path fill="none" stroke="midnightblue" d="M253.65,-281.13C256.47,-280.73 259.27,-280.35 262,-280 410.74,-260.67 451.47,-265.12 603.3,-244.16"/>
<polygon fill="midnightblue" stroke="midnightblue" points="604.04,-247.59 613.46,-242.74 603.07,-240.65 604.04,-247.59"/>
</g>
<!-- Node22 -->
<g id="node22" class="node">
<title>Node22</title>
<g id="a_node22"><a xlink:href="mxrect_8h.html" target="_top" xlink:title=" ">
<polygon fill="none" stroke="black" points="868.5,-168.5 868.5,-187.5 921.5,-187.5 921.5,-168.5 868.5,-168.5"/>
<text text-anchor="middle" x="895" y="-175.5" font-family="Helvetica,sans-Serif" font-size="10.00">mxrect.h</text>
</a>
</g>
</g>
<!-- Node21&#45;&gt;Node22 -->
<g id="edge29" class="edge">
<title>Node21&#45;&gt;Node22</title>
<path fill="none" stroke="midnightblue" d="M696.74,-224.45C735.89,-216.13 796.96,-202.91 858.41,-188.33"/>
<polygon fill="midnightblue" stroke="midnightblue" points="859.36,-191.7 868.27,-185.97 857.73,-184.89 859.36,-191.7"/>
</g>
<!-- Node22&#45;&gt;Node2 -->
<g id="edge30" class="edge">
<title>Node22&#45;&gt;Node2</title>
<path fill="none" stroke="midnightblue" d="M896.11,-168.09C898.02,-155.07 902.76,-130.42 913,-112 932.43,-77.02 966.37,-44.49 987.43,-26.23"/>
<polygon fill="midnightblue" stroke="midnightblue" points="989.97,-28.67 995.33,-19.53 985.44,-23.33 989.97,-28.67"/>
</g>
<!-- Node22&#45;&gt;Node17 -->
<g id="edge31" class="edge">
<title>Node22&#45;&gt;Node17</title>
<path fill="none" stroke="midnightblue" d="M868.3,-169.9C865.5,-169.22 862.7,-168.58 860,-168 783.45,-151.59 693.27,-137.1 641.45,-129.24"/>
<polygon fill="midnightblue" stroke="midnightblue" points="641.72,-125.74 631.31,-127.71 640.67,-132.66 641.72,-125.74"/>
</g>
<!-- Node23 -->
<g id="node23" class="node">
<title>Node23</title>
<g id="a_node23"><a xlink:title=" ">
<polygon fill="none" stroke="#bfbfbf" points="922,-112.5 922,-131.5 978,-131.5 978,-112.5 922,-112.5"/>
<text text-anchor="middle" x="950" y="-119.5" font-family="Helvetica,sans-Serif" font-size="10.00">algorithm</text>
</a>
</g>
</g>
<!-- Node22&#45;&gt;Node23 -->
<g id="edge32" class="edge">
<title>Node22&#45;&gt;Node23</title>
<path fill="none" stroke="midnightblue" d="M904.08,-168.08C912.17,-160.14 924.2,-148.34 933.91,-138.8"/>
<polygon fill="midnightblue" stroke="midnightblue" points="936.4,-141.25 941.09,-131.75 931.5,-136.26 936.4,-141.25"/>
</g>
<!-- Node24&#45;&gt;Node2 -->
<g id="edge34" class="edge">
<title>Node24&#45;&gt;Node2</title>
<path fill="none" stroke="midnightblue" d="M195.24,-224.21C177.02,-202.49 135.19,-145.6 165,-112 218.71,-51.45 802.07,-20.34 964.34,-12.82"/>
<polygon fill="midnightblue" stroke="midnightblue" points="964.58,-16.32 974.41,-12.36 964.26,-9.32 964.58,-16.32"/>
</g>
<!-- Node24&#45;&gt;Node14 -->
<g id="edge38" class="edge">
<title>Node24&#45;&gt;Node14</title>
<path fill="none" stroke="midnightblue" d="M182.56,-224.44C161.33,-215.56 127.9,-201.56 103.75,-191.45"/>
<polygon fill="midnightblue" stroke="midnightblue" points="104.92,-188.15 94.34,-187.52 102.22,-194.61 104.92,-188.15"/>
</g>
<!-- Node24&#45;&gt;Node15 -->
<g id="edge37" class="edge">
<title>Node24&#45;&gt;Node15</title>
<path fill="none" stroke="midnightblue" d="M203.31,-224.37C203.96,-206.62 205.45,-165.67 206.32,-141.6"/>
<polygon fill="midnightblue" stroke="midnightblue" points="209.82,-141.71 206.69,-131.59 202.83,-141.46 209.82,-141.71"/>
</g>
<!-- Node24&#45;&gt;Node16 -->
<g id="edge35" class="edge">
<title>Node24&#45;&gt;Node16</title>
<path fill="none" stroke="midnightblue" d="M215.69,-224.32C227.9,-215.98 246.58,-203.21 261,-193.35"/>
<polygon fill="midnightblue" stroke="midnightblue" points="263.06,-196.19 269.34,-187.65 259.11,-190.41 263.06,-196.19"/>
</g>
<!-- Node24&#45;&gt;Node17 -->
<g id="edge36" class="edge">
<title>Node24&#45;&gt;Node17</title>
<path fill="none" stroke="midnightblue" d="M205.42,-224.08C209.84,-209.64 220.71,-181.39 241,-168 292.01,-134.33 473.29,-125.84 556.59,-123.71"/>
<polygon fill="midnightblue" stroke="midnightblue" points="556.8,-127.21 566.72,-123.47 556.64,-120.21 556.8,-127.21"/>
</g>
<!-- Node24&#45;&gt;Node22 -->
<g id="edge39" class="edge">
<title>Node24&#45;&gt;Node22</title>
<path fill="none" stroke="midnightblue" d="M248.12,-229.87C273.13,-228.13 304.79,-225.94 333,-224 563.9,-208.12 626.47,-224.9 858.26,-188.01"/>
<polygon fill="midnightblue" stroke="midnightblue" points="859.04,-191.43 868.35,-186.39 857.92,-184.52 859.04,-191.43"/>
</g>
<!-- Node25&#45;&gt;Node17 -->
<g id="edge41" class="edge">
<title>Node25&#45;&gt;Node17</title>
<path fill="none" stroke="midnightblue" d="M606.33,-336.17C604.93,-322.82 600.67,-297.24 588,-280 570.92,-256.75 547.61,-269.43 534,-244 513.59,-205.87 554.73,-161.03 580.45,-138.13"/>
<polygon fill="midnightblue" stroke="midnightblue" points="582.85,-140.68 588.16,-131.5 578.29,-135.37 582.85,-140.68"/>
</g>
<!-- Node26 -->
<g id="node26" class="node">
<title>Node26</title>
<g id="a_node26"><a xlink:title=" ">
<polygon fill="none" stroke="#bfbfbf" points="441,-280.5 441,-299.5 579,-299.5 579,-280.5 441,-280.5"/>
<text text-anchor="middle" x="510" y="-287.5" font-family="Helvetica,sans-Serif" font-size="10.00">mxmouseeventabstraction.h</text>
</a>
</g>
</g>
<!-- Node25&#45;&gt;Node26 -->
<g id="edge42" class="edge">
<title>Node25&#45;&gt;Node26</title>
<path fill="none" stroke="midnightblue" d="M591.42,-336.32C576,-327.74 552.19,-314.49 534.29,-304.52"/>
<polygon fill="midnightblue" stroke="midnightblue" points="535.99,-301.46 525.55,-299.65 532.58,-307.58 535.99,-301.46"/>
</g>
<!-- Node27&#45;&gt;Node2 -->
<g id="edge44" class="edge">
<title>Node27&#45;&gt;Node2</title>
<path fill="none" stroke="midnightblue" d="M858.65,-336.33C878.03,-320.06 919.33,-283.07 944,-244 988.54,-173.48 1001.31,-71.57 1004.78,-29.87"/>
<polygon fill="midnightblue" stroke="midnightblue" points="1008.28,-30.01 1005.53,-19.78 1001.3,-29.49 1008.28,-30.01"/>
</g>
<!-- Node27&#45;&gt;Node5 -->
<g id="edge46" class="edge">
<title>Node27&#45;&gt;Node5</title>
<path fill="none" stroke="midnightblue" d="M881.05,-344.25C946.52,-342.06 1096.84,-333.48 1218,-300 1277.07,-283.68 1303.66,-290.13 1344,-244 1355.24,-231.15 1359.84,-211.97 1361.72,-197.77"/>
<polygon fill="midnightblue" stroke="midnightblue" points="1365.22,-197.96 1362.72,-187.67 1358.25,-197.28 1365.22,-197.96"/>
</g>
<!-- Node27&#45;&gt;Node21 -->
<g id="edge45" class="edge">
<title>Node27&#45;&gt;Node21</title>
<path fill="none" stroke="midnightblue" d="M830.23,-336.47C812.29,-327.73 783.89,-313.54 760,-300 730.79,-283.45 698.11,-262.63 677.32,-249.08"/>
<polygon fill="midnightblue" stroke="midnightblue" points="679.2,-246.12 668.92,-243.57 675.36,-251.98 679.2,-246.12"/>
</g>
<!-- Node28 -->
<g id="node28" class="node">
<title>Node28</title>
<g id="a_node28"><a xlink:href="mxtextdraw_8h.html" target="_top" xlink:title=" ">
<polygon fill="none" stroke="black" points="861,-224.5 861,-243.5 935,-243.5 935,-224.5 861,-224.5"/>
<text text-anchor="middle" x="898" y="-231.5" font-family="Helvetica,sans-Serif" font-size="10.00">mxtextdraw.h</text>
</a>
</g>
</g>
<!-- Node27&#45;&gt;Node28 -->
<g id="edge47" class="edge">
<title>Node27&#45;&gt;Node28</title>
<path fill="none" stroke="midnightblue" d="M851.92,-336.37C860.07,-318.46 878.94,-276.92 889.84,-252.95"/>
<polygon fill="midnightblue" stroke="midnightblue" points="893.14,-254.14 894.09,-243.59 886.77,-251.25 893.14,-254.14"/>
</g>
<!-- Node33 -->
<g id="node33" class="node">
<title>Node33</title>
<g id="a_node33"><a xlink:href="mxicondraw_8h.html" target="_top" xlink:title=" ">
<polygon fill="none" stroke="black" points="769,-280.5 769,-299.5 845,-299.5 845,-280.5 769,-280.5"/>
<text text-anchor="middle" x="807" y="-287.5" font-family="Helvetica,sans-Serif" font-size="10.00">mxicondraw.h</text>
</a>
</g>
</g>
<!-- Node27&#45;&gt;Node33 -->
<g id="edge62" class="edge">
<title>Node27&#45;&gt;Node33</title>
<path fill="none" stroke="midnightblue" d="M841.23,-336.08C835.44,-328.46 826.94,-317.26 819.86,-307.94"/>
<polygon fill="midnightblue" stroke="midnightblue" points="822.48,-305.6 813.64,-299.75 816.9,-309.83 822.48,-305.6"/>
</g>
<!-- Node35 -->
<g id="node35" class="node">
<title>Node35</title>
<g id="a_node35"><a xlink:href="mxstaticfont_8h.html" target="_top" xlink:title=" ">
<polygon fill="none" stroke="black" points="635.5,-280.5 635.5,-299.5 712.5,-299.5 712.5,-280.5 635.5,-280.5"/>
<text text-anchor="middle" x="674" y="-287.5" font-family="Helvetica,sans-Serif" font-size="10.00">mxstaticfont.h</text>
</a>
</g>
</g>
<!-- Node27&#45;&gt;Node35 -->
<g id="edge65" class="edge">
<title>Node27&#45;&gt;Node35</title>
<path fill="none" stroke="midnightblue" d="M820.43,-336.44C790.9,-327.28 743.88,-312.69 711.12,-302.52"/>
<polygon fill="midnightblue" stroke="midnightblue" points="712.03,-299.14 701.44,-299.52 709.96,-305.82 712.03,-299.14"/>
</g>
<!-- Node28&#45;&gt;Node17 -->
<g id="edge48" class="edge">
<title>Node28&#45;&gt;Node17</title>
<path fill="none" stroke="midnightblue" d="M874.54,-224.37C821.59,-204.89 692.72,-157.48 631.86,-135.09"/>
<polygon fill="midnightblue" stroke="midnightblue" points="632.95,-131.76 622.35,-131.59 630.53,-138.33 632.95,-131.76"/>
</g>
<!-- Node28&#45;&gt;Node22 -->
<g id="edge61" class="edge">
<title>Node28&#45;&gt;Node22</title>
<path fill="none" stroke="midnightblue" d="M897.5,-224.08C897.11,-217.01 896.55,-206.86 896.05,-197.99"/>
<polygon fill="midnightblue" stroke="midnightblue" points="899.54,-197.54 895.49,-187.75 892.55,-197.93 899.54,-197.54"/>
</g>
<!-- Node29 -->
<g id="node29" class="node">
<title>Node29</title>
<g id="a_node29"><a xlink:href="mxstring_8h.html" target="_top" xlink:title=" ">
<polygon fill="none" stroke="black" points="789.5,-168.5 789.5,-187.5 850.5,-187.5 850.5,-168.5 789.5,-168.5"/>
<text text-anchor="middle" x="820" y="-175.5" font-family="Helvetica,sans-Serif" font-size="10.00">mxstring.h</text>
</a>
</g>
</g>
<!-- Node28&#45;&gt;Node29 -->
<g id="edge49" class="edge">
<title>Node28&#45;&gt;Node29</title>
<path fill="none" stroke="midnightblue" d="M885.47,-224.32C873.41,-215.98 854.97,-203.21 840.73,-193.35"/>
<polygon fill="midnightblue" stroke="midnightblue" points="842.72,-190.47 832.5,-187.65 838.73,-196.22 842.72,-190.47"/>
</g>
<!-- Node30 -->
<g id="node30" class="node">
<title>Node30</title>
<g id="a_node30"><a xlink:href="mxgenericstring_8h.html" target="_top" xlink:title=" ">
<polygon fill="none" stroke="black" points="1237,-112.5 1237,-131.5 1329,-131.5 1329,-112.5 1237,-112.5"/>
<text text-anchor="middle" x="1283" y="-119.5" font-family="Helvetica,sans-Serif" font-size="10.00">mxgenericstring.h</text>
</a>
</g>
</g>
<!-- Node29&#45;&gt;Node30 -->
<g id="edge50" class="edge">
<title>Node29&#45;&gt;Node30</title>
<path fill="none" stroke="midnightblue" d="M850.5,-169.76C853.7,-169.11 856.91,-168.51 860,-168 990.49,-146.45 1145.42,-133.03 1226.74,-126.91"/>
<polygon fill="midnightblue" stroke="midnightblue" points="1227.05,-130.4 1236.76,-126.16 1226.53,-123.42 1227.05,-130.4"/>
</g>
<!-- Node30&#45;&gt;Node2 -->
<g id="edge51" class="edge">
<title>Node30&#45;&gt;Node2</title>
<path fill="none" stroke="midnightblue" d="M1278.09,-112.22C1269.63,-97.98 1250.9,-70.01 1227,-56 1170.79,-23.04 1094.27,-13.92 1047.6,-11.57"/>
<polygon fill="midnightblue" stroke="midnightblue" points="1047.68,-8.07 1037.54,-11.14 1047.39,-15.06 1047.68,-8.07"/>
</g>
<!-- Node30&#45;&gt;Node6 -->
<g id="edge52" class="edge">
<title>Node30&#45;&gt;Node6</title>
<path fill="none" stroke="midnightblue" d="M1316.75,-112.44C1353.52,-103.12 1412.45,-88.18 1452.62,-78"/>
<polygon fill="midnightblue" stroke="midnightblue" points="1453.57,-81.37 1462.41,-75.52 1451.85,-74.58 1453.57,-81.37"/>
</g>
<!-- Node30&#45;&gt;Node7 -->
<g id="edge59" class="edge">
<title>Node30&#45;&gt;Node7</title>
<path fill="none" stroke="midnightblue" d="M1284.26,-112.36C1286.5,-99.26 1292.08,-73.99 1304,-56 1311.83,-44.18 1323.58,-33.64 1333.94,-25.74"/>
<polygon fill="midnightblue" stroke="midnightblue" points="1336.15,-28.46 1342.19,-19.76 1332.04,-22.8 1336.15,-28.46"/>
</g>
<!-- Node30&#45;&gt;Node8 -->
<g id="edge60" class="edge">
<title>Node30&#45;&gt;Node8</title>
<path fill="none" stroke="midnightblue" d="M1317.49,-112.47C1350.22,-103.72 1396.25,-89.52 1409,-76 1420.71,-63.58 1425.25,-44.34 1426.98,-30.01"/>
<polygon fill="midnightblue" stroke="midnightblue" points="1430.49,-30.06 1427.86,-19.8 1423.52,-29.46 1430.49,-30.06"/>
</g>
<!-- Node31 -->
<g id="node31" class="node">
<title>Node31</title>
<g id="a_node31"><a xlink:href="mxbytearrayref_8h.html" target="_top" xlink:title=" ">
<polygon fill="none" stroke="black" points="1312.5,-56.5 1312.5,-75.5 1399.5,-75.5 1399.5,-56.5 1312.5,-56.5"/>
<text text-anchor="middle" x="1356" y="-63.5" font-family="Helvetica,sans-Serif" font-size="10.00">mxbytearrayref.h</text>
</a>
</g>
</g>
<!-- Node30&#45;&gt;Node31 -->
<g id="edge53" class="edge">
<title>Node30&#45;&gt;Node31</title>
<path fill="none" stroke="midnightblue" d="M1294.73,-112.32C1305.84,-104.11 1322.74,-91.6 1335.98,-81.81"/>
<polygon fill="midnightblue" stroke="midnightblue" points="1338.1,-84.59 1344.06,-75.83 1333.94,-78.97 1338.1,-84.59"/>
</g>
<!-- Node32 -->
<g id="node32" class="node">
<title>Node32</title>
<g id="a_node32"><a xlink:href="mxgenericsubstring_8h.html" target="_top" xlink:title=" ">
<polygon fill="none" stroke="black" points="1110,-56.5 1110,-75.5 1218,-75.5 1218,-56.5 1110,-56.5"/>
<text text-anchor="middle" x="1164" y="-63.5" font-family="Helvetica,sans-Serif" font-size="10.00">mxgenericsubstring.h</text>
</a>
</g>
</g>
<!-- Node30&#45;&gt;Node32 -->
<g id="edge57" class="edge">
<title>Node30&#45;&gt;Node32</title>
<path fill="none" stroke="midnightblue" d="M1264.14,-112.44C1244.73,-103.64 1214.27,-89.81 1192.04,-79.72"/>
<polygon fill="midnightblue" stroke="midnightblue" points="1193.32,-76.46 1182.77,-75.52 1190.43,-82.84 1193.32,-76.46"/>
</g>
<!-- Node31&#45;&gt;Node2 -->
<g id="edge54" class="edge">
<title>Node31&#45;&gt;Node2</title>
<path fill="none" stroke="midnightblue" d="M1312.38,-58.27C1244.54,-47.8 1114.63,-27.76 1047.88,-17.46"/>
<polygon fill="midnightblue" stroke="midnightblue" points="1048.14,-13.96 1037.72,-15.89 1047.07,-20.88 1048.14,-13.96"/>
</g>
<!-- Node31&#45;&gt;Node7 -->
<g id="edge55" class="edge">
<title>Node31&#45;&gt;Node7</title>
<path fill="none" stroke="midnightblue" d="M1356,-56.08C1356,-49.01 1356,-38.86 1356,-29.99"/>
<polygon fill="midnightblue" stroke="midnightblue" points="1359.5,-29.75 1356,-19.75 1352.5,-29.75 1359.5,-29.75"/>
</g>
<!-- Node31&#45;&gt;Node8 -->
<g id="edge56" class="edge">
<title>Node31&#45;&gt;Node8</title>
<path fill="none" stroke="midnightblue" d="M1367.57,-56.32C1378.42,-48.18 1394.88,-35.84 1407.88,-26.09"/>
<polygon fill="midnightblue" stroke="midnightblue" points="1410.32,-28.63 1416.22,-19.83 1406.12,-23.03 1410.32,-28.63"/>
</g>
<!-- Node32&#45;&gt;Node2 -->
<g id="edge58" class="edge">
<title>Node32&#45;&gt;Node2</title>
<path fill="none" stroke="midnightblue" d="M1138.96,-56.44C1112.38,-47.36 1070.19,-32.94 1040.48,-22.78"/>
<polygon fill="midnightblue" stroke="midnightblue" points="1041.51,-19.44 1030.92,-19.52 1039.25,-26.06 1041.51,-19.44"/>
</g>
<!-- Node33&#45;&gt;Node22 -->
<g id="edge64" class="edge">
<title>Node33&#45;&gt;Node22</title>
<path fill="none" stroke="midnightblue" d="M788.76,-280.49C765.69,-268.55 730.81,-245.84 747,-224 750.43,-219.37 815.86,-200.7 858.56,-188.91"/>
<polygon fill="midnightblue" stroke="midnightblue" points="859.64,-192.25 868.35,-186.22 857.78,-185.5 859.64,-192.25"/>
</g>
<!-- Node34 -->
<g id="node34" class="node">
<title>Node34</title>
<g id="a_node34"><a xlink:href="mxthemeicons_8h.html" target="_top" xlink:title=" ">
<polygon fill="none" stroke="black" points="755.5,-224.5 755.5,-243.5 842.5,-243.5 842.5,-224.5 755.5,-224.5"/>
<text text-anchor="middle" x="799" y="-231.5" font-family="Helvetica,sans-Serif" font-size="10.00">mxthemeicons.h</text>
</a>
</g>
</g>
<!-- Node33&#45;&gt;Node34 -->
<g id="edge63" class="edge">
<title>Node33&#45;&gt;Node34</title>
<path fill="none" stroke="midnightblue" d="M805.68,-280.08C804.62,-272.93 803.09,-262.64 801.77,-253.69"/>
<polygon fill="midnightblue" stroke="midnightblue" points="805.22,-253.13 800.3,-243.75 798.3,-254.16 805.22,-253.13"/>
</g>
<!-- Node36 -->
<g id="node36" class="node">
<title>Node36</title>
<g id="a_node36"><a xlink:href="mxfont_8h.html" target="_top" xlink:title=" ">
<polygon fill="none" stroke="black" points="542.5,-224.5 542.5,-243.5 595.5,-243.5 595.5,-224.5 542.5,-224.5"/>
<text text-anchor="middle" x="569" y="-231.5" font-family="Helvetica,sans-Serif" font-size="10.00">mxfont.h</text>
</a>
</g>
</g>
<!-- Node35&#45;&gt;Node36 -->
<g id="edge66" class="edge">
<title>Node35&#45;&gt;Node36</title>
<path fill="none" stroke="midnightblue" d="M657.13,-280.32C640.29,-271.66 614.19,-258.24 594.76,-248.25"/>
<polygon fill="midnightblue" stroke="midnightblue" points="596.32,-245.12 585.83,-243.65 593.12,-251.34 596.32,-245.12"/>
</g>
<!-- Node36&#45;&gt;Node15 -->
<g id="edge69" class="edge">
<title>Node36&#45;&gt;Node15</title>
<path fill="none" stroke="midnightblue" d="M558.51,-224.48C540.54,-210.36 502.18,-182.24 465,-168 392.7,-140.32 302.44,-129.55 250.1,-125.45"/>
<polygon fill="midnightblue" stroke="midnightblue" points="250.07,-121.94 239.84,-124.69 249.55,-128.92 250.07,-121.94"/>
</g>
<!-- Node36&#45;&gt;Node17 -->
<g id="edge67" class="edge">
<title>Node36&#45;&gt;Node17</title>
<path fill="none" stroke="midnightblue" d="M571.35,-224.37C576.22,-206.54 587.46,-165.3 594.02,-141.27"/>
<polygon fill="midnightblue" stroke="midnightblue" points="597.4,-142.16 596.66,-131.59 590.65,-140.32 597.4,-142.16"/>
</g>
<!-- Node36&#45;&gt;Node29 -->
<g id="edge68" class="edge">
<title>Node36&#45;&gt;Node29</title>
<path fill="none" stroke="midnightblue" d="M595.71,-226.2C598.84,-225.44 601.99,-224.69 605,-224 665.56,-210.1 736.13,-195.66 779.43,-187.01"/>
<polygon fill="midnightblue" stroke="midnightblue" points="780.18,-190.43 789.3,-185.04 778.81,-183.56 780.18,-190.43"/>
</g>
<!-- Node37&#45;&gt;Node4 -->
<g id="edge73" class="edge">
<title>Node37&#45;&gt;Node4</title>
<path fill="none" stroke="midnightblue" d="M1195.01,-280.44C1214.59,-271.64 1245.31,-257.81 1267.73,-247.72"/>
<polygon fill="midnightblue" stroke="midnightblue" points="1269.39,-250.81 1277.07,-243.52 1266.52,-244.43 1269.39,-250.81"/>
</g>
<!-- Node37&#45;&gt;Node17 -->
<g id="edge72" class="edge">
<title>Node37&#45;&gt;Node17</title>
<path fill="none" stroke="midnightblue" d="M1159.64,-280.43C1135.53,-267.84 1088.99,-243.72 1049,-224 996.93,-198.33 986.64,-184.54 931,-168 829.86,-137.94 705.35,-127.88 641.38,-124.58"/>
<polygon fill="midnightblue" stroke="midnightblue" points="641.43,-121.08 631.27,-124.09 641.09,-128.07 641.43,-121.08"/>
</g>
<!-- Node37&#45;&gt;Node22 -->
<g id="edge71" class="edge">
<title>Node37&#45;&gt;Node22</title>
<path fill="none" stroke="midnightblue" d="M1153.95,-280.37C1104.4,-260.97 984.08,-213.87 926.59,-191.37"/>
<polygon fill="midnightblue" stroke="midnightblue" points="927.53,-187.98 916.95,-187.59 924.98,-194.5 927.53,-187.98"/>
</g>
<!-- Node38 -->
<g id="node38" class="node">
<title>Node38</title>
<g id="a_node38"><a xlink:href="mxclippedwidget_8h.html" target="_top" xlink:title=" ">
<polygon fill="none" stroke="black" points="1143,-224.5 1143,-243.5 1239,-243.5 1239,-224.5 1143,-224.5"/>
<text text-anchor="middle" x="1191" y="-231.5" font-family="Helvetica,sans-Serif" font-size="10.00">mxclippedwidget.h</text>
</a>
</g>
</g>
<!-- Node37&#45;&gt;Node38 -->
<g id="edge74" class="edge">
<title>Node37&#45;&gt;Node38</title>
<path fill="none" stroke="midnightblue" d="M1178.48,-280.08C1180.49,-272.85 1183.39,-262.41 1185.89,-253.4"/>
<polygon fill="midnightblue" stroke="midnightblue" points="1189.26,-254.32 1188.57,-243.75 1182.52,-252.45 1189.26,-254.32"/>
</g>
<!-- Node38&#45;&gt;Node5 -->
<g id="edge76" class="edge">
<title>Node38&#45;&gt;Node5</title>
<path fill="none" stroke="midnightblue" d="M1218.25,-224.44C1247.91,-215.13 1295.43,-200.21 1327.87,-190.03"/>
<polygon fill="midnightblue" stroke="midnightblue" points="1329.34,-193.24 1337.83,-186.9 1327.24,-186.56 1329.34,-193.24"/>
</g>
<!-- Node38&#45;&gt;Node22 -->
<g id="edge75" class="edge">
<title>Node38&#45;&gt;Node22</title>
<path fill="none" stroke="midnightblue" d="M1144.1,-224.44C1085.26,-213.71 985.59,-195.53 931.89,-185.73"/>
<polygon fill="midnightblue" stroke="midnightblue" points="932.26,-182.24 921.79,-183.89 931,-189.13 932.26,-182.24"/>
</g>
</g>
</svg>
