<?xml version="1.0" encoding="UTF-8" standalone="no"?>
<!DOCTYPE svg PUBLIC "-//W3C//DTD SVG 1.1//EN"
 "http://www.w3.org/Graphics/SVG/1.1/DTD/svg11.dtd">
<!-- Generated by graphviz version 2.44.0 ()
 -->
<!-- Title: src/events/mxapplication.cpp Pages: 1 -->
<svg width="1191pt" height="420pt"
 viewBox="0.00 0.00 1190.89 420.00" xmlns="http://www.w3.org/2000/svg" xmlns:xlink="http://www.w3.org/1999/xlink">
<g id="graph0" class="graph" transform="scale(1 1) rotate(0) translate(4 416)">
<title>src/events/mxapplication.cpp</title>
<!-- Node1 -->
<g id="node1" class="node">
<title>Node1</title>
<g id="a_node1"><a xlink:title=" ">
<polygon fill="#bfbfbf" stroke="black" points="317.5,-392.5 317.5,-411.5 460.5,-411.5 460.5,-392.5 317.5,-392.5"/>
<text text-anchor="middle" x="389" y="-399.5" font-family="Helvetica,sans-Serif" font-size="10.00">src/events/mxapplication.cpp</text>
</a>
</g>
</g>
<!-- Node2 -->
<g id="node2" class="node">
<title>Node2</title>
<g id="a_node2"><a xlink:title=" ">
<polygon fill="none" stroke="#bfbfbf" points="282.5,-0.5 282.5,-19.5 345.5,-19.5 345.5,-0.5 282.5,-0.5"/>
<text text-anchor="middle" x="314" y="-7.5" font-family="Helvetica,sans-Serif" font-size="10.00">mxdebug.h</text>
</a>
</g>
</g>
<!-- Node1&#45;&gt;Node2 -->
<g id="edge1" class="edge">
<title>Node1&#45;&gt;Node2</title>
<path fill="none" stroke="midnightblue" d="M317.2,-395.42C204.8,-384.69 0,-356.18 0,-291 0,-291 0,-291 0,-121 0,-74.84 39.11,-75.39 81,-56 143.7,-26.98 224.23,-16.67 272.34,-13.01"/>
<polygon fill="midnightblue" stroke="midnightblue" points="272.65,-16.5 282.38,-12.31 272.16,-9.51 272.65,-16.5"/>
</g>
<!-- Node3 -->
<g id="node3" class="node">
<title>Node3</title>
<g id="a_node3"><a xlink:href="mxapplication_8h.html" target="_top" xlink:title=" ">
<polygon fill="none" stroke="black" points="640.5,-336.5 640.5,-355.5 723.5,-355.5 723.5,-336.5 640.5,-336.5"/>
<text text-anchor="middle" x="682" y="-343.5" font-family="Helvetica,sans-Serif" font-size="10.00">mxapplication.h</text>
</a>
</g>
</g>
<!-- Node1&#45;&gt;Node3 -->
<g id="edge2" class="edge">
<title>Node1&#45;&gt;Node3</title>
<path fill="none" stroke="midnightblue" d="M435.43,-392.44C488.44,-382.67 574.95,-366.73 630.14,-356.56"/>
<polygon fill="midnightblue" stroke="midnightblue" points="630.86,-359.98 640.06,-354.73 629.59,-353.1 630.86,-359.98"/>
</g>
<!-- Node31 -->
<g id="node31" class="node">
<title>Node31</title>
<g id="a_node31"><a xlink:href="mxwidget_8h.html" target="_top" xlink:title=" ">
<polygon fill="none" stroke="black" points="356.5,-224.5 356.5,-243.5 421.5,-243.5 421.5,-224.5 356.5,-224.5"/>
<text text-anchor="middle" x="389" y="-231.5" font-family="Helvetica,sans-Serif" font-size="10.00">mxwidget.h</text>
</a>
</g>
</g>
<!-- Node1&#45;&gt;Node31 -->
<g id="edge48" class="edge">
<title>Node1&#45;&gt;Node31</title>
<path fill="none" stroke="midnightblue" d="M389,-392.08C389,-365.95 389,-289.21 389,-253.58"/>
<polygon fill="midnightblue" stroke="midnightblue" points="392.5,-253.57 389,-243.57 385.5,-253.57 392.5,-253.57"/>
</g>
<!-- Node3&#45;&gt;Node2 -->
<g id="edge3" class="edge">
<title>Node3&#45;&gt;Node2</title>
<path fill="none" stroke="midnightblue" d="M683.23,-336.32C685.77,-314.84 689.34,-258.47 663,-224 565.4,-96.28 438.6,-197.19 333,-76 321.79,-63.13 317.18,-43.95 315.29,-29.76"/>
<polygon fill="midnightblue" stroke="midnightblue" points="318.76,-29.27 314.29,-19.66 311.8,-29.96 318.76,-29.27"/>
</g>
<!-- Node4 -->
<g id="node4" class="node">
<title>Node4</title>
<g id="a_node4"><a xlink:href="mxwidgetlist_8h.html" target="_top" xlink:title=" ">
<polygon fill="none" stroke="black" points="751,-168.5 751,-187.5 829,-187.5 829,-168.5 751,-168.5"/>
<text text-anchor="middle" x="790" y="-175.5" font-family="Helvetica,sans-Serif" font-size="10.00">mxwidgetlist.h</text>
</a>
</g>
</g>
<!-- Node3&#45;&gt;Node4 -->
<g id="edge4" class="edge">
<title>Node3&#45;&gt;Node4</title>
<path fill="none" stroke="midnightblue" d="M723.75,-343.13C832.8,-337.29 1121.63,-315.24 1178,-244 1220.9,-189.79 953.35,-180.67 839.49,-179.23"/>
<polygon fill="midnightblue" stroke="midnightblue" points="839.33,-175.72 829.29,-179.11 839.25,-182.72 839.33,-175.72"/>
</g>
<!-- Node10 -->
<g id="node10" class="node">
<title>Node10</title>
<g id="a_node10"><a xlink:href="mxguirenderer_8h.html" target="_top" xlink:title=" ">
<polygon fill="none" stroke="black" points="846.5,-280.5 846.5,-299.5 931.5,-299.5 931.5,-280.5 846.5,-280.5"/>
<text text-anchor="middle" x="889" y="-287.5" font-family="Helvetica,sans-Serif" font-size="10.00">mxguirenderer.h</text>
</a>
</g>
</g>
<!-- Node3&#45;&gt;Node10 -->
<g id="edge11" class="edge">
<title>Node3&#45;&gt;Node10</title>
<path fill="none" stroke="midnightblue" d="M714.8,-336.44C750.38,-327.16 807.31,-312.31 846.35,-302.13"/>
<polygon fill="midnightblue" stroke="midnightblue" points="847.56,-305.43 856.35,-299.52 845.79,-298.65 847.56,-305.43"/>
</g>
<!-- Node16 -->
<g id="node16" class="node">
<title>Node16</title>
<g id="a_node16"><a xlink:href="mxmouseevent_8h.html" target="_top" xlink:title=" ">
<polygon fill="none" stroke="black" points="540,-280.5 540,-299.5 630,-299.5 630,-280.5 540,-280.5"/>
<text text-anchor="middle" x="585" y="-287.5" font-family="Helvetica,sans-Serif" font-size="10.00">mxmouseevent.h</text>
</a>
</g>
</g>
<!-- Node3&#45;&gt;Node16 -->
<g id="edge17" class="edge">
<title>Node3&#45;&gt;Node16</title>
<path fill="none" stroke="midnightblue" d="M666.42,-336.32C651,-327.74 627.19,-314.49 609.29,-304.52"/>
<polygon fill="midnightblue" stroke="midnightblue" points="610.99,-301.46 600.55,-299.65 607.58,-307.58 610.99,-301.46"/>
</g>
<!-- Node19 -->
<g id="node19" class="node">
<title>Node19</title>
<g id="a_node19"><a xlink:href="mxpainter_8h.html" target="_top" xlink:title=" ">
<polygon fill="none" stroke="black" points="219,-280.5 219,-299.5 285,-299.5 285,-280.5 219,-280.5"/>
<text text-anchor="middle" x="252" y="-287.5" font-family="Helvetica,sans-Serif" font-size="10.00">mxpainter.h</text>
</a>
</g>
</g>
<!-- Node3&#45;&gt;Node19 -->
<g id="edge21" class="edge">
<title>Node3&#45;&gt;Node19</title>
<path fill="none" stroke="midnightblue" d="M640.38,-339.77C558.72,-329.52 378.26,-306.86 295.28,-296.44"/>
<polygon fill="midnightblue" stroke="midnightblue" points="295.54,-292.94 285.19,-295.17 294.67,-299.89 295.54,-292.94"/>
</g>
<!-- Node30 -->
<g id="node30" class="node">
<title>Node30</title>
<g id="a_node30"><a xlink:href="mxguiaggregation_8h.html" target="_top" xlink:title=" ">
<polygon fill="none" stroke="black" points="710,-280.5 710,-299.5 810,-299.5 810,-280.5 710,-280.5"/>
<text text-anchor="middle" x="760" y="-287.5" font-family="Helvetica,sans-Serif" font-size="10.00">mxguiaggregation.h</text>
</a>
</g>
</g>
<!-- Node3&#45;&gt;Node30 -->
<g id="edge47" class="edge">
<title>Node3&#45;&gt;Node30</title>
<path fill="none" stroke="midnightblue" d="M694.53,-336.32C706.59,-327.98 725.03,-315.21 739.27,-305.35"/>
<polygon fill="midnightblue" stroke="midnightblue" points="741.27,-308.22 747.5,-299.65 737.28,-302.47 741.27,-308.22"/>
</g>
<!-- Node5 -->
<g id="node5" class="node">
<title>Node5</title>
<g id="a_node5"><a xlink:href="mxlist_8h.html" target="_top" xlink:title=" ">
<polygon fill="none" stroke="black" points="765,-112.5 765,-131.5 815,-131.5 815,-112.5 765,-112.5"/>
<text text-anchor="middle" x="790" y="-119.5" font-family="Helvetica,sans-Serif" font-size="10.00">mxlist.h</text>
</a>
</g>
</g>
<!-- Node4&#45;&gt;Node5 -->
<g id="edge5" class="edge">
<title>Node4&#45;&gt;Node5</title>
<path fill="none" stroke="midnightblue" d="M790,-168.08C790,-161.01 790,-150.86 790,-141.99"/>
<polygon fill="midnightblue" stroke="midnightblue" points="793.5,-141.75 790,-131.75 786.5,-141.75 793.5,-141.75"/>
</g>
<!-- Node5&#45;&gt;Node2 -->
<g id="edge6" class="edge">
<title>Node5&#45;&gt;Node2</title>
<path fill="none" stroke="midnightblue" d="M764.87,-116.14C724.36,-108.23 642.19,-91.85 573,-76 531.8,-66.56 417.88,-37.59 355.75,-21.7"/>
<polygon fill="midnightblue" stroke="midnightblue" points="356.43,-18.26 345.87,-19.17 354.69,-25.04 356.43,-18.26"/>
</g>
<!-- Node6 -->
<g id="node6" class="node">
<title>Node6</title>
<g id="a_node6"><a xlink:href="mxrefcounter_8h.html" target="_top" xlink:title=" ">
<polygon fill="none" stroke="black" points="726,-56.5 726,-75.5 806,-75.5 806,-56.5 726,-56.5"/>
<text text-anchor="middle" x="766" y="-63.5" font-family="Helvetica,sans-Serif" font-size="10.00">mxrefcounter.h</text>
</a>
</g>
</g>
<!-- Node5&#45;&gt;Node6 -->
<g id="edge7" class="edge">
<title>Node5&#45;&gt;Node6</title>
<path fill="none" stroke="midnightblue" d="M786.04,-112.08C782.79,-104.77 778.08,-94.18 774.05,-85.1"/>
<polygon fill="midnightblue" stroke="midnightblue" points="777.15,-83.47 769.89,-75.75 770.75,-86.31 777.15,-83.47"/>
</g>
<!-- Node7 -->
<g id="node7" class="node">
<title>Node7</title>
<g id="a_node7"><a xlink:title=" ">
<polygon fill="none" stroke="#bfbfbf" points="674.5,-0.5 674.5,-19.5 721.5,-19.5 721.5,-0.5 674.5,-0.5"/>
<text text-anchor="middle" x="698" y="-7.5" font-family="Helvetica,sans-Serif" font-size="10.00">stdlib.h</text>
</a>
</g>
</g>
<!-- Node5&#45;&gt;Node7 -->
<g id="edge8" class="edge">
<title>Node5&#45;&gt;Node7</title>
<path fill="none" stroke="midnightblue" d="M815.18,-117.06C857.26,-109.41 934.67,-90.26 907,-56 885.36,-29.2 785.21,-17.61 731.79,-13.26"/>
<polygon fill="midnightblue" stroke="midnightblue" points="732.01,-9.76 721.77,-12.48 731.47,-16.74 732.01,-9.76"/>
</g>
<!-- Node8 -->
<g id="node8" class="node">
<title>Node8</title>
<g id="a_node8"><a xlink:title=" ">
<polygon fill="none" stroke="#bfbfbf" points="602,-0.5 602,-19.5 650,-19.5 650,-0.5 602,-0.5"/>
<text text-anchor="middle" x="626" y="-7.5" font-family="Helvetica,sans-Serif" font-size="10.00">string.h</text>
</a>
</g>
</g>
<!-- Node5&#45;&gt;Node8 -->
<g id="edge9" class="edge">
<title>Node5&#45;&gt;Node8</title>
<path fill="none" stroke="midnightblue" d="M798.48,-112.17C810.25,-98.84 828.64,-73.27 815,-56 814.39,-55.23 714.38,-31.7 660.11,-18.98"/>
<polygon fill="midnightblue" stroke="midnightblue" points="660.76,-15.54 650.22,-16.67 659.16,-22.36 660.76,-15.54"/>
</g>
<!-- Node9 -->
<g id="node9" class="node">
<title>Node9</title>
<g id="a_node9"><a xlink:title=" ">
<polygon fill="none" stroke="#bfbfbf" points="862.5,-56.5 862.5,-75.5 897.5,-75.5 897.5,-56.5 862.5,-56.5"/>
<text text-anchor="middle" x="880" y="-63.5" font-family="Helvetica,sans-Serif" font-size="10.00">new</text>
</a>
</g>
</g>
<!-- Node5&#45;&gt;Node9 -->
<g id="edge10" class="edge">
<title>Node5&#45;&gt;Node9</title>
<path fill="none" stroke="midnightblue" d="M804.46,-112.32C818.5,-103.9 840.05,-90.97 856.54,-81.07"/>
<polygon fill="midnightblue" stroke="midnightblue" points="858.8,-83.8 865.58,-75.65 855.2,-77.8 858.8,-83.8"/>
</g>
<!-- Node11 -->
<g id="node11" class="node">
<title>Node11</title>
<g id="a_node11"><a xlink:href="mxbuffer_8h.html" target="_top" xlink:title=" ">
<polygon fill="none" stroke="black" points="791.5,-224.5 791.5,-243.5 852.5,-243.5 852.5,-224.5 791.5,-224.5"/>
<text text-anchor="middle" x="822" y="-231.5" font-family="Helvetica,sans-Serif" font-size="10.00">mxbuffer.h</text>
</a>
</g>
</g>
<!-- Node10&#45;&gt;Node11 -->
<g id="edge12" class="edge">
<title>Node10&#45;&gt;Node11</title>
<path fill="none" stroke="midnightblue" d="M878.24,-280.32C868.23,-272.26 853.11,-260.08 841.07,-250.37"/>
<polygon fill="midnightblue" stroke="midnightblue" points="842.94,-247.38 832.96,-243.83 838.55,-252.83 842.94,-247.38"/>
</g>
<!-- Node12 -->
<g id="node12" class="node">
<title>Node12</title>
<g id="a_node12"><a xlink:title=" ">
<polygon fill="none" stroke="#bfbfbf" points="871,-224.5 871,-243.5 943,-243.5 943,-224.5 871,-224.5"/>
<text text-anchor="middle" x="907" y="-231.5" font-family="Helvetica,sans-Serif" font-size="10.00">mxrenderer.h</text>
</a>
</g>
</g>
<!-- Node10&#45;&gt;Node12 -->
<g id="edge13" class="edge">
<title>Node10&#45;&gt;Node12</title>
<path fill="none" stroke="midnightblue" d="M891.97,-280.08C894.38,-272.85 897.86,-262.41 900.87,-253.4"/>
<polygon fill="midnightblue" stroke="midnightblue" points="904.24,-254.34 904.08,-243.75 897.6,-252.13 904.24,-254.34"/>
</g>
<!-- Node13 -->
<g id="node13" class="node">
<title>Node13</title>
<g id="a_node13"><a xlink:title=" ">
<polygon fill="none" stroke="#bfbfbf" points="961.5,-224.5 961.5,-243.5 1060.5,-243.5 1060.5,-224.5 961.5,-224.5"/>
<text text-anchor="middle" x="1011" y="-231.5" font-family="Helvetica,sans-Serif" font-size="10.00">mxvectorprogram.h</text>
</a>
</g>
</g>
<!-- Node10&#45;&gt;Node13 -->
<g id="edge14" class="edge">
<title>Node10&#45;&gt;Node13</title>
<path fill="none" stroke="midnightblue" d="M908.33,-280.44C928.32,-271.6 959.74,-257.69 982.56,-247.59"/>
<polygon fill="midnightblue" stroke="midnightblue" points="984.03,-250.76 991.76,-243.52 981.2,-244.36 984.03,-250.76"/>
</g>
<!-- Node14 -->
<g id="node14" class="node">
<title>Node14</title>
<g id="a_node14"><a xlink:title=" ">
<polygon fill="none" stroke="#bfbfbf" points="1079,-224.5 1079,-243.5 1169,-243.5 1169,-224.5 1079,-224.5"/>
<text text-anchor="middle" x="1124" y="-231.5" font-family="Helvetica,sans-Serif" font-size="10.00">mxiconprogram.h</text>
</a>
</g>
</g>
<!-- Node10&#45;&gt;Node14 -->
<g id="edge15" class="edge">
<title>Node10&#45;&gt;Node14</title>
<path fill="none" stroke="midnightblue" d="M926.24,-280.44C967.06,-271.06 1032.64,-255.99 1076.98,-245.8"/>
<polygon fill="midnightblue" stroke="midnightblue" points="1077.98,-249.17 1086.94,-243.52 1076.41,-242.34 1077.98,-249.17"/>
</g>
<!-- Node15 -->
<g id="node15" class="node">
<title>Node15</title>
<g id="a_node15"><a xlink:href="mxmatrix_8h.html" target="_top" xlink:title=" ">
<polygon fill="none" stroke="black" points="710.5,-224.5 710.5,-243.5 773.5,-243.5 773.5,-224.5 710.5,-224.5"/>
<text text-anchor="middle" x="742" y="-231.5" font-family="Helvetica,sans-Serif" font-size="10.00">mxmatrix.h</text>
</a>
</g>
</g>
<!-- Node10&#45;&gt;Node15 -->
<g id="edge16" class="edge">
<title>Node10&#45;&gt;Node15</title>
<path fill="none" stroke="midnightblue" d="M865.71,-280.44C841.19,-271.44 802.4,-257.19 774.8,-247.05"/>
<polygon fill="midnightblue" stroke="midnightblue" points="775.78,-243.68 765.18,-243.52 773.36,-250.25 775.78,-243.68"/>
</g>
<!-- Node17 -->
<g id="node17" class="node">
<title>Node17</title>
<g id="a_node17"><a xlink:href="mxvector_8h.html" target="_top" xlink:title=" ">
<polygon fill="none" stroke="black" points="292,-112.5 292,-131.5 356,-131.5 356,-112.5 292,-112.5"/>
<text text-anchor="middle" x="324" y="-119.5" font-family="Helvetica,sans-Serif" font-size="10.00">mxvector.h</text>
</a>
</g>
</g>
<!-- Node16&#45;&gt;Node17 -->
<g id="edge18" class="edge">
<title>Node16&#45;&gt;Node17</title>
<path fill="none" stroke="midnightblue" d="M567.16,-280.37C550.8,-272.08 526.28,-258.69 507,-244 468.75,-214.86 469.95,-194.76 430,-168 408.92,-153.88 382.69,-142.7 361.6,-135.02"/>
<polygon fill="midnightblue" stroke="midnightblue" points="362.6,-131.66 352.01,-131.63 360.27,-138.26 362.6,-131.66"/>
</g>
<!-- Node18 -->
<g id="node18" class="node">
<title>Node18</title>
<g id="a_node18"><a xlink:title=" ">
<polygon fill="none" stroke="#bfbfbf" points="516,-224.5 516,-243.5 654,-243.5 654,-224.5 516,-224.5"/>
<text text-anchor="middle" x="585" y="-231.5" font-family="Helvetica,sans-Serif" font-size="10.00">mxmouseeventabstraction.h</text>
</a>
</g>
</g>
<!-- Node16&#45;&gt;Node18 -->
<g id="edge20" class="edge">
<title>Node16&#45;&gt;Node18</title>
<path fill="none" stroke="midnightblue" d="M585,-280.08C585,-273.01 585,-262.86 585,-253.99"/>
<polygon fill="midnightblue" stroke="midnightblue" points="588.5,-253.75 585,-243.75 581.5,-253.75 588.5,-253.75"/>
</g>
<!-- Node17&#45;&gt;Node2 -->
<g id="edge19" class="edge">
<title>Node17&#45;&gt;Node2</title>
<path fill="none" stroke="midnightblue" d="M317.63,-112.23C311.74,-103.53 303.39,-89.57 300,-76 296.07,-60.27 300.66,-42.24 305.62,-29.16"/>
<polygon fill="midnightblue" stroke="midnightblue" points="308.87,-30.45 309.51,-19.87 302.41,-27.74 308.87,-30.45"/>
</g>
<!-- Node19&#45;&gt;Node2 -->
<g id="edge22" class="edge">
<title>Node19&#45;&gt;Node2</title>
<path fill="none" stroke="midnightblue" d="M218.71,-285.38C169.34,-279.37 80.05,-265.76 57,-244 35.11,-223.34 38,-209.1 38,-179 38,-179 38,-179 38,-121 38,-71.14 195.39,-33.86 272.47,-18.59"/>
<polygon fill="midnightblue" stroke="midnightblue" points="273.19,-22.01 282.34,-16.66 271.85,-15.14 273.19,-22.01"/>
</g>
<!-- Node19&#45;&gt;Node5 -->
<g id="edge28" class="edge">
<title>Node19&#45;&gt;Node5</title>
<path fill="none" stroke="midnightblue" d="M285.01,-281.45C320.9,-273.07 379.85,-258.74 430,-244 551.89,-208.16 694.25,-157.72 757.2,-134.97"/>
<polygon fill="midnightblue" stroke="midnightblue" points="758.4,-138.25 766.61,-131.56 756.02,-131.67 758.4,-138.25"/>
</g>
<!-- Node20 -->
<g id="node20" class="node">
<title>Node20</title>
<g id="a_node20"><a xlink:href="mxvectordraw_8h.html" target="_top" xlink:title=" ">
<polygon fill="none" stroke="black" points="160.5,-224.5 160.5,-243.5 245.5,-243.5 245.5,-224.5 160.5,-224.5"/>
<text text-anchor="middle" x="203" y="-231.5" font-family="Helvetica,sans-Serif" font-size="10.00">mxvectordraw.h</text>
</a>
</g>
</g>
<!-- Node19&#45;&gt;Node20 -->
<g id="edge23" class="edge">
<title>Node19&#45;&gt;Node20</title>
<path fill="none" stroke="midnightblue" d="M243.91,-280.08C236.84,-272.3 226.41,-260.8 217.85,-251.37"/>
<polygon fill="midnightblue" stroke="midnightblue" points="220.25,-248.8 210.94,-243.75 215.07,-253.51 220.25,-248.8"/>
</g>
<!-- Node23 -->
<g id="node23" class="node">
<title>Node23</title>
<g id="a_node23"><a xlink:href="mxtextdraw_8h.html" target="_top" xlink:title=" ">
<polygon fill="none" stroke="black" points="264,-224.5 264,-243.5 338,-243.5 338,-224.5 264,-224.5"/>
<text text-anchor="middle" x="301" y="-231.5" font-family="Helvetica,sans-Serif" font-size="10.00">mxtextdraw.h</text>
</a>
</g>
</g>
<!-- Node19&#45;&gt;Node23 -->
<g id="edge29" class="edge">
<title>Node19&#45;&gt;Node23</title>
<path fill="none" stroke="midnightblue" d="M260.09,-280.08C267.16,-272.3 277.59,-260.8 286.15,-251.37"/>
<polygon fill="midnightblue" stroke="midnightblue" points="288.93,-253.51 293.06,-243.75 283.75,-248.8 288.93,-253.51"/>
</g>
<!-- Node28 -->
<g id="node28" class="node">
<title>Node28</title>
<g id="a_node28"><a xlink:href="mxicondraw_8h.html" target="_top" xlink:title=" ">
<polygon fill="none" stroke="black" points="66,-224.5 66,-243.5 142,-243.5 142,-224.5 66,-224.5"/>
<text text-anchor="middle" x="104" y="-231.5" font-family="Helvetica,sans-Serif" font-size="10.00">mxicondraw.h</text>
</a>
</g>
</g>
<!-- Node19&#45;&gt;Node28 -->
<g id="edge44" class="edge">
<title>Node19&#45;&gt;Node28</title>
<path fill="none" stroke="midnightblue" d="M228.55,-280.44C203.87,-271.44 164.81,-257.19 137.02,-247.05"/>
<polygon fill="midnightblue" stroke="midnightblue" points="137.94,-243.66 127.34,-243.52 135.54,-250.23 137.94,-243.66"/>
</g>
<!-- Node21 -->
<g id="node21" class="node">
<title>Node21</title>
<g id="a_node21"><a xlink:href="mxrect_8h.html" target="_top" xlink:title=" ">
<polygon fill="none" stroke="black" points="212.5,-168.5 212.5,-187.5 265.5,-187.5 265.5,-168.5 212.5,-168.5"/>
<text text-anchor="middle" x="239" y="-175.5" font-family="Helvetica,sans-Serif" font-size="10.00">mxrect.h</text>
</a>
</g>
</g>
<!-- Node20&#45;&gt;Node21 -->
<g id="edge24" class="edge">
<title>Node20&#45;&gt;Node21</title>
<path fill="none" stroke="midnightblue" d="M208.94,-224.08C213.98,-216.53 221.34,-205.49 227.51,-196.23"/>
<polygon fill="midnightblue" stroke="midnightblue" points="230.53,-198.01 233.17,-187.75 224.71,-194.13 230.53,-198.01"/>
</g>
<!-- Node21&#45;&gt;Node2 -->
<g id="edge25" class="edge">
<title>Node21&#45;&gt;Node2</title>
<path fill="none" stroke="midnightblue" d="M229.93,-168.24C218.22,-155.83 200.34,-132.36 209,-112 225.5,-73.24 264.97,-42.16 290.54,-25.18"/>
<polygon fill="midnightblue" stroke="midnightblue" points="292.75,-27.92 299.27,-19.57 288.96,-22.04 292.75,-27.92"/>
</g>
<!-- Node21&#45;&gt;Node17 -->
<g id="edge26" class="edge">
<title>Node21&#45;&gt;Node17</title>
<path fill="none" stroke="midnightblue" d="M252.66,-168.32C265.92,-159.9 286.27,-146.97 301.85,-137.07"/>
<polygon fill="midnightblue" stroke="midnightblue" points="303.81,-139.97 310.38,-131.65 300.06,-134.06 303.81,-139.97"/>
</g>
<!-- Node22 -->
<g id="node22" class="node">
<title>Node22</title>
<g id="a_node22"><a xlink:title=" ">
<polygon fill="none" stroke="#bfbfbf" points="218,-112.5 218,-131.5 274,-131.5 274,-112.5 218,-112.5"/>
<text text-anchor="middle" x="246" y="-119.5" font-family="Helvetica,sans-Serif" font-size="10.00">algorithm</text>
</a>
</g>
</g>
<!-- Node21&#45;&gt;Node22 -->
<g id="edge27" class="edge">
<title>Node21&#45;&gt;Node22</title>
<path fill="none" stroke="midnightblue" d="M240.16,-168.08C241.08,-160.93 242.42,-150.64 243.58,-141.69"/>
<polygon fill="midnightblue" stroke="midnightblue" points="247.05,-142.12 244.87,-131.75 240.11,-141.22 247.05,-142.12"/>
</g>
<!-- Node23&#45;&gt;Node17 -->
<g id="edge30" class="edge">
<title>Node23&#45;&gt;Node17</title>
<path fill="none" stroke="midnightblue" d="M302.8,-224.37C306.52,-206.62 315.08,-165.67 320.11,-141.6"/>
<polygon fill="midnightblue" stroke="midnightblue" points="323.58,-142.1 322.2,-131.59 316.73,-140.66 323.58,-142.1"/>
</g>
<!-- Node23&#45;&gt;Node21 -->
<g id="edge31" class="edge">
<title>Node23&#45;&gt;Node21</title>
<path fill="none" stroke="midnightblue" d="M291.04,-224.32C281.87,-216.34 268.06,-204.31 256.97,-194.65"/>
<polygon fill="midnightblue" stroke="midnightblue" points="258.98,-191.76 249.14,-187.83 254.38,-197.04 258.98,-191.76"/>
</g>
<!-- Node24 -->
<g id="node24" class="node">
<title>Node24</title>
<g id="a_node24"><a xlink:href="mxstring_8h.html" target="_top" xlink:title=" ">
<polygon fill="none" stroke="black" points="360.5,-168.5 360.5,-187.5 421.5,-187.5 421.5,-168.5 360.5,-168.5"/>
<text text-anchor="middle" x="391" y="-175.5" font-family="Helvetica,sans-Serif" font-size="10.00">mxstring.h</text>
</a>
</g>
</g>
<!-- Node23&#45;&gt;Node24 -->
<g id="edge32" class="edge">
<title>Node23&#45;&gt;Node24</title>
<path fill="none" stroke="midnightblue" d="M315.46,-224.32C329.5,-215.9 351.05,-202.97 367.54,-193.07"/>
<polygon fill="midnightblue" stroke="midnightblue" points="369.8,-195.8 376.58,-187.65 366.2,-189.8 369.8,-195.8"/>
</g>
<!-- Node25 -->
<g id="node25" class="node">
<title>Node25</title>
<g id="a_node25"><a xlink:href="mxgenericstring_8h.html" target="_top" xlink:title=" ">
<polygon fill="none" stroke="black" points="508,-112.5 508,-131.5 600,-131.5 600,-112.5 508,-112.5"/>
<text text-anchor="middle" x="554" y="-119.5" font-family="Helvetica,sans-Serif" font-size="10.00">mxgenericstring.h</text>
</a>
</g>
</g>
<!-- Node24&#45;&gt;Node25 -->
<g id="edge33" class="edge">
<title>Node24&#45;&gt;Node25</title>
<path fill="none" stroke="midnightblue" d="M416.83,-168.44C444.25,-159.36 487.78,-144.94 518.43,-134.78"/>
<polygon fill="midnightblue" stroke="midnightblue" points="519.9,-137.98 528.29,-131.52 517.7,-131.34 519.9,-137.98"/>
</g>
<!-- Node25&#45;&gt;Node2 -->
<g id="edge34" class="edge">
<title>Node25&#45;&gt;Node2</title>
<path fill="none" stroke="midnightblue" d="M543.81,-112.49C527.07,-98.87 492.28,-72.1 459,-56 425.68,-39.88 385.28,-27.91 355.59,-20.38"/>
<polygon fill="midnightblue" stroke="midnightblue" points="356.12,-16.9 345.57,-17.9 354.44,-23.7 356.12,-16.9"/>
</g>
<!-- Node25&#45;&gt;Node6 -->
<g id="edge35" class="edge">
<title>Node25&#45;&gt;Node6</title>
<path fill="none" stroke="midnightblue" d="M587.59,-112.44C624.19,-103.12 682.84,-88.18 722.83,-78"/>
<polygon fill="midnightblue" stroke="midnightblue" points="723.74,-81.38 732.57,-75.52 722.01,-74.59 723.74,-81.38"/>
</g>
<!-- Node25&#45;&gt;Node7 -->
<g id="edge42" class="edge">
<title>Node25&#45;&gt;Node7</title>
<path fill="none" stroke="midnightblue" d="M600.24,-114.57C626.31,-108.66 657.63,-97.4 678,-76 689.82,-63.58 694.66,-44.34 696.64,-30.01"/>
<polygon fill="midnightblue" stroke="midnightblue" points="700.15,-30.1 697.7,-19.8 693.19,-29.39 700.15,-30.1"/>
</g>
<!-- Node25&#45;&gt;Node8 -->
<g id="edge43" class="edge">
<title>Node25&#45;&gt;Node8</title>
<path fill="none" stroke="midnightblue" d="M554.93,-112.35C556.66,-99.23 561.35,-73.95 573,-56 580.8,-43.98 592.77,-33.42 603.36,-25.57"/>
<polygon fill="midnightblue" stroke="midnightblue" points="605.64,-28.24 611.81,-19.63 601.62,-22.51 605.64,-28.24"/>
</g>
<!-- Node26 -->
<g id="node26" class="node">
<title>Node26</title>
<g id="a_node26"><a xlink:href="mxbytearrayref_8h.html" target="_top" xlink:title=" ">
<polygon fill="none" stroke="black" points="582.5,-56.5 582.5,-75.5 669.5,-75.5 669.5,-56.5 582.5,-56.5"/>
<text text-anchor="middle" x="626" y="-63.5" font-family="Helvetica,sans-Serif" font-size="10.00">mxbytearrayref.h</text>
</a>
</g>
</g>
<!-- Node25&#45;&gt;Node26 -->
<g id="edge36" class="edge">
<title>Node25&#45;&gt;Node26</title>
<path fill="none" stroke="midnightblue" d="M565.57,-112.32C576.42,-104.18 592.88,-91.84 605.88,-82.09"/>
<polygon fill="midnightblue" stroke="midnightblue" points="608.32,-84.63 614.22,-75.83 604.12,-79.03 608.32,-84.63"/>
</g>
<!-- Node27 -->
<g id="node27" class="node">
<title>Node27</title>
<g id="a_node27"><a xlink:href="mxgenericsubstring_8h.html" target="_top" xlink:title=" ">
<polygon fill="none" stroke="black" points="342,-56.5 342,-75.5 450,-75.5 450,-56.5 342,-56.5"/>
<text text-anchor="middle" x="396" y="-63.5" font-family="Helvetica,sans-Serif" font-size="10.00">mxgenericsubstring.h</text>
</a>
</g>
</g>
<!-- Node25&#45;&gt;Node27 -->
<g id="edge40" class="edge">
<title>Node25&#45;&gt;Node27</title>
<path fill="none" stroke="midnightblue" d="M528.96,-112.44C502.38,-103.36 460.19,-88.94 430.48,-78.78"/>
<polygon fill="midnightblue" stroke="midnightblue" points="431.51,-75.44 420.92,-75.52 429.25,-82.06 431.51,-75.44"/>
</g>
<!-- Node26&#45;&gt;Node2 -->
<g id="edge37" class="edge">
<title>Node26&#45;&gt;Node2</title>
<path fill="none" stroke="midnightblue" d="M582.29,-57.43C522.17,-47.03 414.72,-28.43 355.68,-18.21"/>
<polygon fill="midnightblue" stroke="midnightblue" points="356.05,-14.73 345.59,-16.47 354.85,-21.62 356.05,-14.73"/>
</g>
<!-- Node26&#45;&gt;Node7 -->
<g id="edge38" class="edge">
<title>Node26&#45;&gt;Node7</title>
<path fill="none" stroke="midnightblue" d="M637.57,-56.32C648.42,-48.18 664.88,-35.84 677.88,-26.09"/>
<polygon fill="midnightblue" stroke="midnightblue" points="680.32,-28.63 686.22,-19.83 676.12,-23.03 680.32,-28.63"/>
</g>
<!-- Node26&#45;&gt;Node8 -->
<g id="edge39" class="edge">
<title>Node26&#45;&gt;Node8</title>
<path fill="none" stroke="midnightblue" d="M626,-56.08C626,-49.01 626,-38.86 626,-29.99"/>
<polygon fill="midnightblue" stroke="midnightblue" points="629.5,-29.75 626,-19.75 622.5,-29.75 629.5,-29.75"/>
</g>
<!-- Node27&#45;&gt;Node2 -->
<g id="edge41" class="edge">
<title>Node27&#45;&gt;Node2</title>
<path fill="none" stroke="midnightblue" d="M382.83,-56.32C370.15,-47.98 350.77,-35.21 335.79,-25.35"/>
<polygon fill="midnightblue" stroke="midnightblue" points="337.42,-22.23 327.14,-19.65 333.57,-28.08 337.42,-22.23"/>
</g>
<!-- Node28&#45;&gt;Node21 -->
<g id="edge46" class="edge">
<title>Node28&#45;&gt;Node21</title>
<path fill="none" stroke="midnightblue" d="M125.39,-224.44C147.71,-215.52 182.9,-201.44 208.21,-191.32"/>
<polygon fill="midnightblue" stroke="midnightblue" points="209.72,-194.48 217.71,-187.52 207.12,-187.98 209.72,-194.48"/>
</g>
<!-- Node29 -->
<g id="node29" class="node">
<title>Node29</title>
<g id="a_node29"><a xlink:href="mxthemeicons_8h.html" target="_top" xlink:title=" ">
<polygon fill="none" stroke="black" points="66.5,-168.5 66.5,-187.5 153.5,-187.5 153.5,-168.5 66.5,-168.5"/>
<text text-anchor="middle" x="110" y="-175.5" font-family="Helvetica,sans-Serif" font-size="10.00">mxthemeicons.h</text>
</a>
</g>
</g>
<!-- Node28&#45;&gt;Node29 -->
<g id="edge45" class="edge">
<title>Node28&#45;&gt;Node29</title>
<path fill="none" stroke="midnightblue" d="M104.99,-224.08C105.79,-216.93 106.93,-206.64 107.92,-197.69"/>
<polygon fill="midnightblue" stroke="midnightblue" points="111.4,-198.08 109.03,-187.75 104.44,-197.3 111.4,-198.08"/>
</g>
<!-- Node31&#45;&gt;Node4 -->
<g id="edge51" class="edge">
<title>Node31&#45;&gt;Node4</title>
<path fill="none" stroke="midnightblue" d="M421.82,-228.58C492.2,-219.1 658.01,-196.77 740.96,-185.6"/>
<polygon fill="midnightblue" stroke="midnightblue" points="741.45,-189.07 750.89,-184.27 740.51,-182.13 741.45,-189.07"/>
</g>
<!-- Node31&#45;&gt;Node17 -->
<g id="edge50" class="edge">
<title>Node31&#45;&gt;Node17</title>
<path fill="none" stroke="midnightblue" d="M380.25,-224.33C371.91,-215.7 359.41,-201.79 351,-188 341.97,-173.18 334.65,-154.8 329.92,-141.37"/>
<polygon fill="midnightblue" stroke="midnightblue" points="333.21,-140.18 326.7,-131.82 326.58,-142.41 333.21,-140.18"/>
</g>
<!-- Node31&#45;&gt;Node21 -->
<g id="edge49" class="edge">
<title>Node31&#45;&gt;Node21</title>
<path fill="none" stroke="midnightblue" d="M365.23,-224.44C340.11,-215.4 300.29,-201.06 272.1,-190.92"/>
<polygon fill="midnightblue" stroke="midnightblue" points="273.25,-187.61 262.66,-187.52 270.88,-194.2 273.25,-187.61"/>
</g>
</g>
</svg>
