<?xml version="1.0" encoding="UTF-8" standalone="no"?>
<!DOCTYPE svg PUBLIC "-//W3C//DTD SVG 1.1//EN"
 "http://www.w3.org/Graphics/SVG/1.1/DTD/svg11.dtd">
<!-- Generated by graphviz version 2.44.0 ()
 -->
<!-- Title: src/events/mxapplication.cpp Pages: 1 -->
<svg width="1019pt" height="532pt"
 viewBox="0.00 0.00 1018.80 532.00" xmlns="http://www.w3.org/2000/svg" xmlns:xlink="http://www.w3.org/1999/xlink">
<g id="graph0" class="graph" transform="scale(1 1) rotate(0) translate(4 528)">
<title>src/events/mxapplication.cpp</title>
<!-- Node1 -->
<g id="node1" class="node">
<title>Node1</title>
<g id="a_node1"><a xlink:title=" ">
<polygon fill="#bfbfbf" stroke="black" points="637.3,-504.5 637.3,-523.5 780.3,-523.5 780.3,-504.5 637.3,-504.5"/>
<text text-anchor="middle" x="708.8" y="-511.5" font-family="Helvetica,sans-Serif" font-size="10.00">src/events/mxapplication.cpp</text>
</a>
</g>
</g>
<!-- Node2 -->
<g id="node2" class="node">
<title>Node2</title>
<g id="a_node2"><a xlink:href="mxdebug_8h.html" target="_top" xlink:title=" ">
<polygon fill="none" stroke="black" points="718.3,-56.5 718.3,-75.5 781.3,-75.5 781.3,-56.5 718.3,-56.5"/>
<text text-anchor="middle" x="749.8" y="-63.5" font-family="Helvetica,sans-Serif" font-size="10.00">mxdebug.h</text>
</a>
</g>
</g>
<!-- Node1&#45;&gt;Node2 -->
<g id="edge1" class="edge">
<title>Node1&#45;&gt;Node2</title>
<path fill="none" stroke="midnightblue" d="M764.19,-504.46C851.37,-489.45 1010.8,-454.89 1010.8,-403 1010.8,-403 1010.8,-403 1010.8,-177 1010.8,-83.15 865.72,-68.1 791.89,-66.51"/>
<polygon fill="midnightblue" stroke="midnightblue" points="791.59,-63.01 781.54,-66.37 791.49,-70.01 791.59,-63.01"/>
</g>
<!-- Node4 -->
<g id="node4" class="node">
<title>Node4</title>
<g id="a_node4"><a xlink:href="mxapplication_8h.html" target="_top" xlink:title=" ">
<polygon fill="none" stroke="black" points="667.3,-448.5 667.3,-467.5 750.3,-467.5 750.3,-448.5 667.3,-448.5"/>
<text text-anchor="middle" x="708.8" y="-455.5" font-family="Helvetica,sans-Serif" font-size="10.00">mxapplication.h</text>
</a>
</g>
</g>
<!-- Node1&#45;&gt;Node4 -->
<g id="edge3" class="edge">
<title>Node1&#45;&gt;Node4</title>
<path fill="none" stroke="midnightblue" d="M708.8,-504.08C708.8,-497.01 708.8,-486.86 708.8,-477.99"/>
<polygon fill="midnightblue" stroke="midnightblue" points="712.3,-477.75 708.8,-467.75 705.3,-477.75 712.3,-477.75"/>
</g>
<!-- Node30 -->
<g id="node30" class="node">
<title>Node30</title>
<g id="a_node30"><a xlink:href="mxwidget_8h.html" target="_top" xlink:title=" ">
<polygon fill="none" stroke="black" points="514.3,-392.5 514.3,-411.5 579.3,-411.5 579.3,-392.5 514.3,-392.5"/>
<text text-anchor="middle" x="546.8" y="-399.5" font-family="Helvetica,sans-Serif" font-size="10.00">mxwidget.h</text>
</a>
</g>
</g>
<!-- Node1&#45;&gt;Node30 -->
<g id="edge49" class="edge">
<title>Node1&#45;&gt;Node30</title>
<path fill="none" stroke="midnightblue" d="M696.09,-504.37C668.29,-485.49 601.86,-440.38 567.77,-417.24"/>
<polygon fill="midnightblue" stroke="midnightblue" points="569.69,-414.31 559.45,-411.59 565.76,-420.1 569.69,-414.31"/>
</g>
<!-- Node3 -->
<g id="node3" class="node">
<title>Node3</title>
<g id="a_node3"><a xlink:title=" ">
<polygon fill="none" stroke="#bfbfbf" points="723.8,-0.5 723.8,-19.5 775.8,-19.5 775.8,-0.5 723.8,-0.5"/>
<text text-anchor="middle" x="749.8" y="-7.5" font-family="Helvetica,sans-Serif" font-size="10.00">QDebug</text>
</a>
</g>
</g>
<!-- Node2&#45;&gt;Node3 -->
<g id="edge2" class="edge">
<title>Node2&#45;&gt;Node3</title>
<path fill="none" stroke="midnightblue" d="M749.8,-56.08C749.8,-49.01 749.8,-38.86 749.8,-29.99"/>
<polygon fill="midnightblue" stroke="midnightblue" points="753.3,-29.75 749.8,-19.75 746.3,-29.75 753.3,-29.75"/>
</g>
<!-- Node4&#45;&gt;Node2 -->
<g id="edge4" class="edge">
<title>Node4&#45;&gt;Node2</title>
<path fill="none" stroke="midnightblue" d="M750.34,-457.68C824.68,-456.5 972.8,-442.21 972.8,-347 972.8,-347 972.8,-347 972.8,-177 972.8,-97.26 856.7,-75.32 792.04,-69.29"/>
<polygon fill="midnightblue" stroke="midnightblue" points="792.01,-65.77 781.75,-68.42 791.42,-72.75 792.01,-65.77"/>
</g>
<!-- Node5 -->
<g id="node5" class="node">
<title>Node5</title>
<g id="a_node5"><a xlink:href="mxwidgetlist_8h.html" target="_top" xlink:title=" ">
<polygon fill="none" stroke="black" points="672.8,-336.5 672.8,-355.5 750.8,-355.5 750.8,-336.5 672.8,-336.5"/>
<text text-anchor="middle" x="711.8" y="-343.5" font-family="Helvetica,sans-Serif" font-size="10.00">mxwidgetlist.h</text>
</a>
</g>
</g>
<!-- Node4&#45;&gt;Node5 -->
<g id="edge5" class="edge">
<title>Node4&#45;&gt;Node5</title>
<path fill="none" stroke="midnightblue" d="M709.03,-448.37C709.52,-430.62 710.63,-389.67 711.29,-365.6"/>
<polygon fill="midnightblue" stroke="midnightblue" points="714.79,-365.68 711.56,-355.59 707.79,-365.49 714.79,-365.68"/>
</g>
<!-- Node10 -->
<g id="node10" class="node">
<title>Node10</title>
<g id="a_node10"><a xlink:href="mxrenderer_8h.html" target="_top" xlink:title=" ">
<polygon fill="none" stroke="black" points="243.8,-392.5 243.8,-411.5 315.8,-411.5 315.8,-392.5 243.8,-392.5"/>
<text text-anchor="middle" x="279.8" y="-399.5" font-family="Helvetica,sans-Serif" font-size="10.00">mxrenderer.h</text>
</a>
</g>
</g>
<!-- Node4&#45;&gt;Node10 -->
<g id="edge11" class="edge">
<title>Node4&#45;&gt;Node10</title>
<path fill="none" stroke="midnightblue" d="M667.27,-451.77C586.73,-441.64 409.85,-419.37 325.84,-408.8"/>
<polygon fill="midnightblue" stroke="midnightblue" points="326.19,-405.31 315.83,-407.54 325.31,-412.26 326.19,-405.31"/>
</g>
<!-- Node25 -->
<g id="node25" class="node">
<title>Node25</title>
<g id="a_node25"><a xlink:href="mxmouseevent_8h.html" target="_top" xlink:title=" ">
<polygon fill="none" stroke="black" points="736.8,-392.5 736.8,-411.5 826.8,-411.5 826.8,-392.5 736.8,-392.5"/>
<text text-anchor="middle" x="781.8" y="-399.5" font-family="Helvetica,sans-Serif" font-size="10.00">mxmouseevent.h</text>
</a>
</g>
</g>
<!-- Node4&#45;&gt;Node25 -->
<g id="edge38" class="edge">
<title>Node4&#45;&gt;Node25</title>
<path fill="none" stroke="midnightblue" d="M720.53,-448.32C731.64,-440.11 748.54,-427.6 761.78,-417.81"/>
<polygon fill="midnightblue" stroke="midnightblue" points="763.9,-420.59 769.86,-411.83 759.74,-414.97 763.9,-420.59"/>
</g>
<!-- Node28 -->
<g id="node28" class="node">
<title>Node28</title>
<g id="a_node28"><a xlink:href="mxpainter_8h.html" target="_top" xlink:title=" ">
<polygon fill="none" stroke="black" points="588.8,-336.5 588.8,-355.5 654.8,-355.5 654.8,-336.5 588.8,-336.5"/>
<text text-anchor="middle" x="621.8" y="-343.5" font-family="Helvetica,sans-Serif" font-size="10.00">mxpainter.h</text>
</a>
</g>
</g>
<!-- Node4&#45;&gt;Node28 -->
<g id="edge42" class="edge">
<title>Node4&#45;&gt;Node28</title>
<path fill="none" stroke="midnightblue" d="M701.97,-448.37C687.55,-430.14 653.77,-387.43 634.99,-363.68"/>
<polygon fill="midnightblue" stroke="midnightblue" points="637.54,-361.26 628.59,-355.59 632.05,-365.61 637.54,-361.26"/>
</g>
<!-- Node6 -->
<g id="node6" class="node">
<title>Node6</title>
<g id="a_node6"><a xlink:href="mxlist_8h.html" target="_top" xlink:title=" ">
<polygon fill="none" stroke="black" points="686.8,-280.5 686.8,-299.5 736.8,-299.5 736.8,-280.5 686.8,-280.5"/>
<text text-anchor="middle" x="711.8" y="-287.5" font-family="Helvetica,sans-Serif" font-size="10.00">mxlist.h</text>
</a>
</g>
</g>
<!-- Node5&#45;&gt;Node6 -->
<g id="edge6" class="edge">
<title>Node5&#45;&gt;Node6</title>
<path fill="none" stroke="midnightblue" d="M711.8,-336.08C711.8,-329.01 711.8,-318.86 711.8,-309.99"/>
<polygon fill="midnightblue" stroke="midnightblue" points="715.3,-309.75 711.8,-299.75 708.3,-309.75 715.3,-309.75"/>
</g>
<!-- Node6&#45;&gt;Node2 -->
<g id="edge7" class="edge">
<title>Node6&#45;&gt;Node2</title>
<path fill="none" stroke="midnightblue" d="M737.07,-284.32C758.95,-278.8 789.3,-267.23 803.8,-244 836.76,-191.18 788.88,-116.91 763.66,-83.92"/>
<polygon fill="midnightblue" stroke="midnightblue" points="766.17,-81.46 757.23,-75.77 760.67,-85.79 766.17,-81.46"/>
</g>
<!-- Node7 -->
<g id="node7" class="node">
<title>Node7</title>
<g id="a_node7"><a xlink:title=" ">
<polygon fill="none" stroke="#bfbfbf" points="627.3,-224.5 627.3,-243.5 674.3,-243.5 674.3,-224.5 627.3,-224.5"/>
<text text-anchor="middle" x="650.8" y="-231.5" font-family="Helvetica,sans-Serif" font-size="10.00">stdlib.h</text>
</a>
</g>
</g>
<!-- Node6&#45;&gt;Node7 -->
<g id="edge8" class="edge">
<title>Node6&#45;&gt;Node7</title>
<path fill="none" stroke="midnightblue" d="M702,-280.32C692.98,-272.34 679.39,-260.31 668.48,-250.65"/>
<polygon fill="midnightblue" stroke="midnightblue" points="670.59,-247.84 660.78,-243.83 665.95,-253.08 670.59,-247.84"/>
</g>
<!-- Node8 -->
<g id="node8" class="node">
<title>Node8</title>
<g id="a_node8"><a xlink:title=" ">
<polygon fill="none" stroke="#bfbfbf" points="692.8,-224.5 692.8,-243.5 740.8,-243.5 740.8,-224.5 692.8,-224.5"/>
<text text-anchor="middle" x="716.8" y="-231.5" font-family="Helvetica,sans-Serif" font-size="10.00">string.h</text>
</a>
</g>
</g>
<!-- Node6&#45;&gt;Node8 -->
<g id="edge9" class="edge">
<title>Node6&#45;&gt;Node8</title>
<path fill="none" stroke="midnightblue" d="M712.62,-280.08C713.28,-273.01 714.22,-262.86 715.04,-253.99"/>
<polygon fill="midnightblue" stroke="midnightblue" points="718.55,-254.03 715.99,-243.75 711.58,-253.39 718.55,-254.03"/>
</g>
<!-- Node9 -->
<g id="node9" class="node">
<title>Node9</title>
<g id="a_node9"><a xlink:title=" ">
<polygon fill="none" stroke="#bfbfbf" points="759.3,-224.5 759.3,-243.5 794.3,-243.5 794.3,-224.5 759.3,-224.5"/>
<text text-anchor="middle" x="776.8" y="-231.5" font-family="Helvetica,sans-Serif" font-size="10.00">new</text>
</a>
</g>
</g>
<!-- Node6&#45;&gt;Node9 -->
<g id="edge10" class="edge">
<title>Node6&#45;&gt;Node9</title>
<path fill="none" stroke="midnightblue" d="M722.24,-280.32C731.94,-272.26 746.61,-260.08 758.3,-250.37"/>
<polygon fill="midnightblue" stroke="midnightblue" points="760.71,-252.92 766.17,-243.83 756.24,-247.53 760.71,-252.92"/>
</g>
<!-- Node10&#45;&gt;Node6 -->
<g id="edge36" class="edge">
<title>Node10&#45;&gt;Node6</title>
<path fill="none" stroke="midnightblue" d="M313.34,-392.46C393.47,-372.06 595.43,-320.63 676.91,-299.88"/>
<polygon fill="midnightblue" stroke="midnightblue" points="677.86,-303.25 686.68,-297.39 676.13,-296.47 677.86,-303.25"/>
</g>
<!-- Node11 -->
<g id="node11" class="node">
<title>Node11</title>
<g id="a_node11"><a xlink:href="mxopenglfunctions_8h.html" target="_top" xlink:title=" ">
<polygon fill="none" stroke="black" points="165.3,-336.5 165.3,-355.5 270.3,-355.5 270.3,-336.5 165.3,-336.5"/>
<text text-anchor="middle" x="217.8" y="-343.5" font-family="Helvetica,sans-Serif" font-size="10.00">mxopenglfunctions.h</text>
</a>
</g>
</g>
<!-- Node10&#45;&gt;Node11 -->
<g id="edge12" class="edge">
<title>Node10&#45;&gt;Node11</title>
<path fill="none" stroke="midnightblue" d="M269.84,-392.32C260.67,-384.34 246.86,-372.31 235.77,-362.65"/>
<polygon fill="midnightblue" stroke="midnightblue" points="237.78,-359.76 227.94,-355.83 233.18,-365.04 237.78,-359.76"/>
</g>
<!-- Node13 -->
<g id="node13" class="node">
<title>Node13</title>
<g id="a_node13"><a xlink:href="mxcolorwheelprogram_8h.html" target="_top" xlink:title=" ">
<polygon fill="none" stroke="black" points="14.3,-280.5 14.3,-299.5 133.3,-299.5 133.3,-280.5 14.3,-280.5"/>
<text text-anchor="middle" x="73.8" y="-287.5" font-family="Helvetica,sans-Serif" font-size="10.00">mxcolorwheelprogram.h</text>
</a>
</g>
</g>
<!-- Node10&#45;&gt;Node13 -->
<g id="edge14" class="edge">
<title>Node10&#45;&gt;Node13</title>
<path fill="none" stroke="midnightblue" d="M248.3,-392.46C222.72,-384.84 186.21,-372.36 156.8,-356 131.74,-342.06 106.26,-320.84 90.26,-306.46"/>
<polygon fill="midnightblue" stroke="midnightblue" points="92.56,-303.82 82.82,-299.65 87.83,-308.98 92.56,-303.82"/>
</g>
<!-- Node21 -->
<g id="node21" class="node">
<title>Node21</title>
<g id="a_node21"><a xlink:href="mxvectorprogram_8h.html" target="_top" xlink:title=" ">
<polygon fill="none" stroke="black" points="291.3,-336.5 291.3,-355.5 390.3,-355.5 390.3,-336.5 291.3,-336.5"/>
<text text-anchor="middle" x="340.8" y="-343.5" font-family="Helvetica,sans-Serif" font-size="10.00">mxvectorprogram.h</text>
</a>
</g>
</g>
<!-- Node10&#45;&gt;Node21 -->
<g id="edge27" class="edge">
<title>Node10&#45;&gt;Node21</title>
<path fill="none" stroke="midnightblue" d="M289.6,-392.32C298.62,-384.34 312.2,-372.31 323.12,-362.65"/>
<polygon fill="midnightblue" stroke="midnightblue" points="325.65,-365.08 330.82,-355.83 321.01,-359.84 325.65,-365.08"/>
</g>
<!-- Node23 -->
<g id="node23" class="node">
<title>Node23</title>
<g id="a_node23"><a xlink:href="gpubuffer_8h.html" target="_top" xlink:title=" ">
<polygon fill="none" stroke="black" points="92.8,-224.5 92.8,-243.5 156.8,-243.5 156.8,-224.5 92.8,-224.5"/>
<text text-anchor="middle" x="124.8" y="-231.5" font-family="Helvetica,sans-Serif" font-size="10.00">gpubuffer.h</text>
</a>
</g>
</g>
<!-- Node10&#45;&gt;Node23 -->
<g id="edge37" class="edge">
<title>Node10&#45;&gt;Node23</title>
<path fill="none" stroke="midnightblue" d="M243.71,-400.56C181.58,-397.58 56.17,-381.25 4.8,-300 -16.19,-266.81 40.28,-249.36 82.72,-241.17"/>
<polygon fill="midnightblue" stroke="midnightblue" points="83.39,-244.6 92.61,-239.38 82.14,-237.72 83.39,-244.6"/>
</g>
<!-- Node12 -->
<g id="node12" class="node">
<title>Node12</title>
<g id="a_node12"><a xlink:title=" ">
<polygon fill="none" stroke="#bfbfbf" points="151.3,-280.5 151.3,-299.5 276.3,-299.5 276.3,-280.5 151.3,-280.5"/>
<text text-anchor="middle" x="213.8" y="-287.5" font-family="Helvetica,sans-Serif" font-size="10.00">QOpenGLExtraFunctions</text>
</a>
</g>
</g>
<!-- Node11&#45;&gt;Node12 -->
<g id="edge13" class="edge">
<title>Node11&#45;&gt;Node12</title>
<path fill="none" stroke="midnightblue" d="M217.14,-336.08C216.61,-329.01 215.86,-318.86 215.2,-309.99"/>
<polygon fill="midnightblue" stroke="midnightblue" points="218.68,-309.47 214.45,-299.75 211.7,-309.98 218.68,-309.47"/>
</g>
<!-- Node13&#45;&gt;Node2 -->
<g id="edge15" class="edge">
<title>Node13&#45;&gt;Node2</title>
<path fill="none" stroke="midnightblue" d="M133.69,-281.35C176.95,-274.63 236.23,-262.89 285.8,-244 349.42,-219.75 356.65,-195.79 418.8,-168 490.65,-135.87 511.51,-134.92 586.8,-112 627.9,-99.48 675.28,-86.57 708.33,-77.81"/>
<polygon fill="midnightblue" stroke="midnightblue" points="709.33,-81.16 718.1,-75.22 707.54,-74.39 709.33,-81.16"/>
</g>
<!-- Node14 -->
<g id="node14" class="node">
<title>Node14</title>
<g id="a_node14"><a xlink:href="mxopengl_8h.html" target="_top" xlink:title=" ">
<polygon fill="none" stroke="black" points="83.3,-56.5 83.3,-75.5 148.3,-75.5 148.3,-56.5 83.3,-56.5"/>
<text text-anchor="middle" x="115.8" y="-63.5" font-family="Helvetica,sans-Serif" font-size="10.00">mxopengl.h</text>
</a>
</g>
</g>
<!-- Node13&#45;&gt;Node14 -->
<g id="edge16" class="edge">
<title>Node13&#45;&gt;Node14</title>
<path fill="none" stroke="midnightblue" d="M74.33,-280.42C75.67,-260.52 79.65,-209.72 87.8,-168 93.54,-138.62 103.46,-105.28 109.83,-85.21"/>
<polygon fill="midnightblue" stroke="midnightblue" points="113.21,-86.13 112.94,-75.54 106.55,-83.98 113.21,-86.13"/>
</g>
<!-- Node15 -->
<g id="node15" class="node">
<title>Node15</title>
<g id="a_node15"><a xlink:href="mxshaderprogram_8h.html" target="_top" xlink:title=" ">
<polygon fill="none" stroke="black" points="144.3,-112.5 144.3,-131.5 245.3,-131.5 245.3,-112.5 144.3,-112.5"/>
<text text-anchor="middle" x="194.8" y="-119.5" font-family="Helvetica,sans-Serif" font-size="10.00">mxshaderprogram.h</text>
</a>
</g>
</g>
<!-- Node13&#45;&gt;Node15 -->
<g id="edge17" class="edge">
<title>Node13&#45;&gt;Node15</title>
<path fill="none" stroke="midnightblue" d="M107.31,-280.45C127.12,-273.71 151.12,-262.32 165.8,-244 189.7,-214.18 194.41,-167.79 195.05,-141.97"/>
<polygon fill="midnightblue" stroke="midnightblue" points="198.55,-141.71 195.11,-131.69 191.55,-141.67 198.55,-141.71"/>
</g>
<!-- Node16 -->
<g id="node16" class="node">
<title>Node16</title>
<g id="a_node16"><a xlink:href="mxmatrix_8h.html" target="_top" xlink:title=" ">
<polygon fill="none" stroke="black" points="213.3,-224.5 213.3,-243.5 276.3,-243.5 276.3,-224.5 213.3,-224.5"/>
<text text-anchor="middle" x="244.8" y="-231.5" font-family="Helvetica,sans-Serif" font-size="10.00">mxmatrix.h</text>
</a>
</g>
</g>
<!-- Node13&#45;&gt;Node16 -->
<g id="edge20" class="edge">
<title>Node13&#45;&gt;Node16</title>
<path fill="none" stroke="midnightblue" d="M100.89,-280.44C129.79,-271.32 175.72,-256.81 207.9,-246.65"/>
<polygon fill="midnightblue" stroke="midnightblue" points="209.35,-249.87 217.83,-243.52 207.24,-243.19 209.35,-249.87"/>
</g>
<!-- Node18 -->
<g id="node18" class="node">
<title>Node18</title>
<g id="a_node18"><a xlink:href="mxrect_8h.html" target="_top" xlink:title=" ">
<polygon fill="none" stroke="black" points="441.3,-224.5 441.3,-243.5 494.3,-243.5 494.3,-224.5 441.3,-224.5"/>
<text text-anchor="middle" x="467.8" y="-231.5" font-family="Helvetica,sans-Serif" font-size="10.00">mxrect.h</text>
</a>
</g>
</g>
<!-- Node13&#45;&gt;Node18 -->
<g id="edge22" class="edge">
<title>Node13&#45;&gt;Node18</title>
<path fill="none" stroke="midnightblue" d="M133.64,-280.8C216.19,-269.48 362.54,-249.43 430.81,-240.07"/>
<polygon fill="midnightblue" stroke="midnightblue" points="431.64,-243.49 441.08,-238.66 430.69,-236.55 431.64,-243.49"/>
</g>
<!-- Node15&#45;&gt;Node2 -->
<g id="edge18" class="edge">
<title>Node15&#45;&gt;Node2</title>
<path fill="none" stroke="midnightblue" d="M245.52,-116.06C354.2,-105.49 607.76,-80.82 707.97,-71.07"/>
<polygon fill="midnightblue" stroke="midnightblue" points="708.41,-74.54 718.02,-70.09 707.73,-67.58 708.41,-74.54"/>
</g>
<!-- Node15&#45;&gt;Node14 -->
<g id="edge19" class="edge">
<title>Node15&#45;&gt;Node14</title>
<path fill="none" stroke="midnightblue" d="M182.11,-112.32C169.9,-103.98 151.22,-91.21 136.8,-81.35"/>
<polygon fill="midnightblue" stroke="midnightblue" points="138.69,-78.41 128.46,-75.65 134.74,-84.19 138.69,-78.41"/>
</g>
<!-- Node17 -->
<g id="node17" class="node">
<title>Node17</title>
<g id="a_node17"><a xlink:title=" ">
<polygon fill="none" stroke="#bfbfbf" points="213.3,-168.5 213.3,-187.5 278.3,-187.5 278.3,-168.5 213.3,-168.5"/>
<text text-anchor="middle" x="245.8" y="-175.5" font-family="Helvetica,sans-Serif" font-size="10.00">QMatrix4x4</text>
</a>
</g>
</g>
<!-- Node16&#45;&gt;Node17 -->
<g id="edge21" class="edge">
<title>Node16&#45;&gt;Node17</title>
<path fill="none" stroke="midnightblue" d="M244.96,-224.08C245.09,-217.01 245.28,-206.86 245.45,-197.99"/>
<polygon fill="midnightblue" stroke="midnightblue" points="248.95,-197.81 245.64,-187.75 241.95,-197.68 248.95,-197.81"/>
</g>
<!-- Node18&#45;&gt;Node2 -->
<g id="edge23" class="edge">
<title>Node18&#45;&gt;Node2</title>
<path fill="none" stroke="midnightblue" d="M474.78,-224.1C485.65,-210.67 507.79,-184.99 530.8,-168 588.54,-125.37 667.15,-94.54 712.79,-78.83"/>
<polygon fill="midnightblue" stroke="midnightblue" points="713.93,-82.14 722.28,-75.62 711.69,-75.51 713.93,-82.14"/>
</g>
<!-- Node19 -->
<g id="node19" class="node">
<title>Node19</title>
<g id="a_node19"><a xlink:href="mxvector_8h.html" target="_top" xlink:title=" ">
<polygon fill="none" stroke="black" points="539.8,-168.5 539.8,-187.5 603.8,-187.5 603.8,-168.5 539.8,-168.5"/>
<text text-anchor="middle" x="571.8" y="-175.5" font-family="Helvetica,sans-Serif" font-size="10.00">mxvector.h</text>
</a>
</g>
</g>
<!-- Node18&#45;&gt;Node19 -->
<g id="edge24" class="edge">
<title>Node18&#45;&gt;Node19</title>
<path fill="none" stroke="midnightblue" d="M484.51,-224.32C501.11,-215.7 526.8,-202.36 546.02,-192.39"/>
<polygon fill="midnightblue" stroke="midnightblue" points="547.87,-195.37 555.13,-187.65 544.64,-189.16 547.87,-195.37"/>
</g>
<!-- Node20 -->
<g id="node20" class="node">
<title>Node20</title>
<g id="a_node20"><a xlink:title=" ">
<polygon fill="none" stroke="#bfbfbf" points="427.8,-168.5 427.8,-187.5 483.8,-187.5 483.8,-168.5 427.8,-168.5"/>
<text text-anchor="middle" x="455.8" y="-175.5" font-family="Helvetica,sans-Serif" font-size="10.00">algorithm</text>
</a>
</g>
</g>
<!-- Node18&#45;&gt;Node20 -->
<g id="edge26" class="edge">
<title>Node18&#45;&gt;Node20</title>
<path fill="none" stroke="midnightblue" d="M465.82,-224.08C464.23,-216.93 461.94,-206.64 459.95,-197.69"/>
<polygon fill="midnightblue" stroke="midnightblue" points="463.33,-196.75 457.74,-187.75 456.5,-198.27 463.33,-196.75"/>
</g>
<!-- Node19&#45;&gt;Node2 -->
<g id="edge25" class="edge">
<title>Node19&#45;&gt;Node2</title>
<path fill="none" stroke="midnightblue" d="M585.77,-168.37C616.44,-149.41 689.92,-104 727.24,-80.94"/>
<polygon fill="midnightblue" stroke="midnightblue" points="729.23,-83.83 735.9,-75.59 725.55,-77.87 729.23,-83.83"/>
</g>
<!-- Node21&#45;&gt;Node15 -->
<g id="edge28" class="edge">
<title>Node21&#45;&gt;Node15</title>
<path fill="none" stroke="midnightblue" d="M340.58,-336.49C339.44,-308.83 332.31,-220.26 287.8,-168 274.75,-152.68 255.27,-142.14 237.5,-135.14"/>
<polygon fill="midnightblue" stroke="midnightblue" points="238.46,-131.76 227.86,-131.61 236.05,-138.33 238.46,-131.76"/>
</g>
<!-- Node21&#45;&gt;Node16 -->
<g id="edge29" class="edge">
<title>Node21&#45;&gt;Node16</title>
<path fill="none" stroke="midnightblue" d="M333.43,-336.08C322.97,-323.47 303.16,-299.77 285.8,-280 277.24,-270.25 267.46,-259.5 259.6,-250.96"/>
<polygon fill="midnightblue" stroke="midnightblue" points="262.11,-248.52 252.75,-243.54 256.96,-253.26 262.11,-248.52"/>
</g>
<!-- Node22 -->
<g id="node22" class="node">
<title>Node22</title>
<g id="a_node22"><a xlink:href="mxvectordraw_8h.html" target="_top" xlink:title=" ">
<polygon fill="none" stroke="black" points="371.3,-280.5 371.3,-299.5 456.3,-299.5 456.3,-280.5 371.3,-280.5"/>
<text text-anchor="middle" x="413.8" y="-287.5" font-family="Helvetica,sans-Serif" font-size="10.00">mxvectordraw.h</text>
</a>
</g>
</g>
<!-- Node21&#45;&gt;Node22 -->
<g id="edge30" class="edge">
<title>Node21&#45;&gt;Node22</title>
<path fill="none" stroke="midnightblue" d="M352.53,-336.32C363.64,-328.11 380.54,-315.6 393.78,-305.81"/>
<polygon fill="midnightblue" stroke="midnightblue" points="395.9,-308.59 401.86,-299.83 391.74,-302.97 395.9,-308.59"/>
</g>
<!-- Node22&#45;&gt;Node18 -->
<g id="edge35" class="edge">
<title>Node22&#45;&gt;Node18</title>
<path fill="none" stroke="midnightblue" d="M422.72,-280.08C430.58,-272.22 442.23,-260.57 451.72,-251.08"/>
<polygon fill="midnightblue" stroke="midnightblue" points="454.45,-253.3 459.05,-243.75 449.5,-248.35 454.45,-253.3"/>
</g>
<!-- Node22&#45;&gt;Node23 -->
<g id="edge31" class="edge">
<title>Node22&#45;&gt;Node23</title>
<path fill="none" stroke="midnightblue" d="M371.16,-281.03C316.28,-270.78 221.54,-253.08 166.92,-242.87"/>
<polygon fill="midnightblue" stroke="midnightblue" points="167.36,-239.39 156.88,-241 166.07,-246.27 167.36,-239.39"/>
</g>
<!-- Node24 -->
<g id="node24" class="node">
<title>Node24</title>
<g id="a_node24"><a xlink:href="gpuvbo_8h.html" target="_top" xlink:title=" ">
<polygon fill="none" stroke="black" points="96.8,-168.5 96.8,-187.5 152.8,-187.5 152.8,-168.5 96.8,-168.5"/>
<text text-anchor="middle" x="124.8" y="-175.5" font-family="Helvetica,sans-Serif" font-size="10.00">gpuvbo.h</text>
</a>
</g>
</g>
<!-- Node23&#45;&gt;Node24 -->
<g id="edge32" class="edge">
<title>Node23&#45;&gt;Node24</title>
<path fill="none" stroke="midnightblue" d="M124.8,-224.08C124.8,-217.01 124.8,-206.86 124.8,-197.99"/>
<polygon fill="midnightblue" stroke="midnightblue" points="128.3,-197.75 124.8,-187.75 121.3,-197.75 128.3,-197.75"/>
</g>
<!-- Node24&#45;&gt;Node14 -->
<g id="edge33" class="edge">
<title>Node24&#45;&gt;Node14</title>
<path fill="none" stroke="midnightblue" d="M124.09,-168.37C122.64,-150.62 119.29,-109.67 117.32,-85.6"/>
<polygon fill="midnightblue" stroke="midnightblue" points="120.81,-85.27 116.5,-75.59 113.83,-85.84 120.81,-85.27"/>
</g>
<!-- Node24&#45;&gt;Node15 -->
<g id="edge34" class="edge">
<title>Node24&#45;&gt;Node15</title>
<path fill="none" stroke="midnightblue" d="M136.05,-168.32C146.6,-160.18 162.6,-147.84 175.24,-138.09"/>
<polygon fill="midnightblue" stroke="midnightblue" points="177.57,-140.71 183.35,-131.83 173.29,-135.17 177.57,-140.71"/>
</g>
<!-- Node25&#45;&gt;Node19 -->
<g id="edge39" class="edge">
<title>Node25&#45;&gt;Node19</title>
<path fill="none" stroke="midnightblue" d="M781.07,-392.3C779.49,-378.67 774.61,-352.16 759.8,-336 732.91,-306.65 710.95,-322.03 677.8,-300 647.69,-279.99 642.6,-271.21 618.8,-244 605.39,-228.67 591.96,-209.64 582.91,-196.14"/>
<polygon fill="midnightblue" stroke="midnightblue" points="585.83,-194.21 577.4,-187.8 579.99,-198.07 585.83,-194.21"/>
</g>
<!-- Node26 -->
<g id="node26" class="node">
<title>Node26</title>
<g id="a_node26"><a xlink:href="mxmouseeventabstraction_8h.html" target="_top" xlink:title=" ">
<polygon fill="none" stroke="black" points="806.8,-336.5 806.8,-355.5 944.8,-355.5 944.8,-336.5 806.8,-336.5"/>
<text text-anchor="middle" x="875.8" y="-343.5" font-family="Helvetica,sans-Serif" font-size="10.00">mxmouseeventabstraction.h</text>
</a>
</g>
</g>
<!-- Node25&#45;&gt;Node26 -->
<g id="edge40" class="edge">
<title>Node25&#45;&gt;Node26</title>
<path fill="none" stroke="midnightblue" d="M796.9,-392.32C811.7,-383.82 834.49,-370.73 851.78,-360.8"/>
<polygon fill="midnightblue" stroke="midnightblue" points="853.81,-363.67 860.73,-355.65 850.32,-357.6 853.81,-363.67"/>
</g>
<!-- Node27 -->
<g id="node27" class="node">
<title>Node27</title>
<g id="a_node27"><a xlink:title=" ">
<polygon fill="none" stroke="#bfbfbf" points="889.3,-280.5 889.3,-299.5 918.3,-299.5 918.3,-280.5 889.3,-280.5"/>
<text text-anchor="middle" x="903.8" y="-287.5" font-family="Helvetica,sans-Serif" font-size="10.00">Qt</text>
</a>
</g>
</g>
<!-- Node26&#45;&gt;Node27 -->
<g id="edge41" class="edge">
<title>Node26&#45;&gt;Node27</title>
<path fill="none" stroke="midnightblue" d="M880.42,-336.08C884.25,-328.69 889.82,-317.95 894.56,-308.81"/>
<polygon fill="midnightblue" stroke="midnightblue" points="897.76,-310.24 899.26,-299.75 891.55,-307.02 897.76,-310.24"/>
</g>
<!-- Node28&#45;&gt;Node2 -->
<g id="edge43" class="edge">
<title>Node28&#45;&gt;Node2</title>
<path fill="none" stroke="midnightblue" d="M655.03,-337.08C720.7,-320.46 860.8,-279.76 860.8,-235 860.8,-235 860.8,-235 860.8,-177 860.8,-130.82 811.74,-97.43 778.85,-80.23"/>
<polygon fill="midnightblue" stroke="midnightblue" points="780.15,-76.96 769.64,-75.61 777.01,-83.22 780.15,-76.96"/>
</g>
<!-- Node28&#45;&gt;Node6 -->
<g id="edge48" class="edge">
<title>Node28&#45;&gt;Node6</title>
<path fill="none" stroke="midnightblue" d="M636.26,-336.32C650.3,-327.9 671.85,-314.97 688.34,-305.07"/>
<polygon fill="midnightblue" stroke="midnightblue" points="690.6,-307.8 697.37,-299.65 687,-301.8 690.6,-307.8"/>
</g>
<!-- Node28&#45;&gt;Node22 -->
<g id="edge44" class="edge">
<title>Node28&#45;&gt;Node22</title>
<path fill="none" stroke="midnightblue" d="M588.84,-336.44C553.01,-327.14 495.64,-312.25 456.41,-302.06"/>
<polygon fill="midnightblue" stroke="midnightblue" points="457.16,-298.64 446.6,-299.52 455.4,-305.42 457.16,-298.64"/>
</g>
<!-- Node29 -->
<g id="node29" class="node">
<title>Node29</title>
<g id="a_node29"><a xlink:href="mxtextdraw_8h.html" target="_top" xlink:title=" ">
<polygon fill="none" stroke="black" points="550.8,-280.5 550.8,-299.5 624.8,-299.5 624.8,-280.5 550.8,-280.5"/>
<text text-anchor="middle" x="587.8" y="-287.5" font-family="Helvetica,sans-Serif" font-size="10.00">mxtextdraw.h</text>
</a>
</g>
</g>
<!-- Node28&#45;&gt;Node29 -->
<g id="edge45" class="edge">
<title>Node28&#45;&gt;Node29</title>
<path fill="none" stroke="midnightblue" d="M616.18,-336.08C611.43,-328.53 604.48,-317.49 598.65,-308.23"/>
<polygon fill="midnightblue" stroke="midnightblue" points="601.6,-306.35 593.31,-299.75 595.67,-310.08 601.6,-306.35"/>
</g>
<!-- Node29&#45;&gt;Node18 -->
<g id="edge47" class="edge">
<title>Node29&#45;&gt;Node18</title>
<path fill="none" stroke="midnightblue" d="M568.78,-280.44C549.21,-271.64 518.49,-257.81 496.07,-247.72"/>
<polygon fill="midnightblue" stroke="midnightblue" points="497.28,-244.43 486.72,-243.52 494.41,-250.81 497.28,-244.43"/>
</g>
<!-- Node29&#45;&gt;Node19 -->
<g id="edge46" class="edge">
<title>Node29&#45;&gt;Node19</title>
<path fill="none" stroke="midnightblue" d="M586.54,-280.37C583.96,-262.62 578,-221.67 574.5,-197.6"/>
<polygon fill="midnightblue" stroke="midnightblue" points="577.95,-196.98 573.05,-187.59 571.02,-197.99 577.95,-196.98"/>
</g>
<!-- Node30&#45;&gt;Node5 -->
<g id="edge52" class="edge">
<title>Node30&#45;&gt;Node5</title>
<path fill="none" stroke="midnightblue" d="M572.94,-392.44C600.82,-383.32 645.15,-368.81 676.2,-358.65"/>
<polygon fill="midnightblue" stroke="midnightblue" points="677.36,-361.95 685.78,-355.52 675.18,-355.3 677.36,-361.95"/>
</g>
<!-- Node30&#45;&gt;Node18 -->
<g id="edge50" class="edge">
<title>Node30&#45;&gt;Node18</title>
<path fill="none" stroke="midnightblue" d="M537.85,-392.45C529.35,-383.91 516.74,-370.07 508.8,-356 489.7,-322.17 477.54,-277.98 471.77,-253.45"/>
<polygon fill="midnightblue" stroke="midnightblue" points="475.18,-252.66 469.56,-243.67 468.35,-254.2 475.18,-252.66"/>
</g>
<!-- Node30&#45;&gt;Node19 -->
<g id="edge51" class="edge">
<title>Node30&#45;&gt;Node19</title>
<path fill="none" stroke="midnightblue" d="M545.36,-392.44C542.27,-372.56 535.72,-321.82 541.8,-280 546.13,-250.23 557.27,-217.03 564.69,-197.09"/>
<polygon fill="midnightblue" stroke="midnightblue" points="567.97,-198.31 568.27,-187.72 561.43,-195.82 567.97,-198.31"/>
</g>
</g>
</svg>
