<?xml version="1.0" encoding="UTF-8" standalone="no"?>
<!DOCTYPE svg PUBLIC "-//W3C//DTD SVG 1.1//EN"
 "http://www.w3.org/Graphics/SVG/1.1/DTD/svg11.dtd">
<!-- Generated by graphviz version 2.44.0 ()
 -->
<!-- Title: src/events/mxapplication.h Pages: 1 -->
<svg width="1323pt" height="364pt"
 viewBox="0.00 0.00 1322.87 364.00" xmlns="http://www.w3.org/2000/svg" xmlns:xlink="http://www.w3.org/1999/xlink">
<g id="graph0" class="graph" transform="scale(1 1) rotate(0) translate(4 360)">
<title>src/events/mxapplication.h</title>
<!-- Node1 -->
<g id="node1" class="node">
<title>Node1</title>
<g id="a_node1"><a xlink:title=" ">
<polygon fill="#bfbfbf" stroke="black" points="562,-336.5 562,-355.5 694,-355.5 694,-336.5 562,-336.5"/>
<text text-anchor="middle" x="628" y="-343.5" font-family="Helvetica,sans-Serif" font-size="10.00">src/events/mxapplication.h</text>
</a>
</g>
</g>
<!-- Node2 -->
<g id="node2" class="node">
<title>Node2</title>
<g id="a_node2"><a xlink:title=" ">
<polygon fill="none" stroke="#bfbfbf" points="595.5,-0.5 595.5,-19.5 658.5,-19.5 658.5,-0.5 595.5,-0.5"/>
<text text-anchor="middle" x="627" y="-7.5" font-family="Helvetica,sans-Serif" font-size="10.00">mxdebug.h</text>
</a>
</g>
</g>
<!-- Node1&#45;&gt;Node2 -->
<g id="edge1" class="edge">
<title>Node1&#45;&gt;Node2</title>
<path fill="none" stroke="midnightblue" d="M561.98,-340.31C400.74,-327.96 0,-291.59 0,-235 0,-235 0,-235 0,-121 0,-85.35 15.91,-73.44 47,-56 70.43,-42.86 455.56,-20.48 584.97,-13.29"/>
<polygon fill="midnightblue" stroke="midnightblue" points="585.47,-16.77 595.26,-12.72 585.09,-9.78 585.47,-16.77"/>
</g>
<!-- Node3 -->
<g id="node3" class="node">
<title>Node3</title>
<g id="a_node3"><a xlink:href="mxwidgetlist_8h.html" target="_top" xlink:title=" ">
<polygon fill="none" stroke="black" points="747,-280.5 747,-299.5 825,-299.5 825,-280.5 747,-280.5"/>
<text text-anchor="middle" x="786" y="-287.5" font-family="Helvetica,sans-Serif" font-size="10.00">mxwidgetlist.h</text>
</a>
</g>
</g>
<!-- Node1&#45;&gt;Node3 -->
<g id="edge2" class="edge">
<title>Node1&#45;&gt;Node3</title>
<path fill="none" stroke="midnightblue" d="M653.04,-336.44C679.62,-327.36 721.81,-312.94 751.52,-302.78"/>
<polygon fill="midnightblue" stroke="midnightblue" points="752.75,-306.06 761.08,-299.52 750.49,-299.44 752.75,-306.06"/>
</g>
<!-- Node9 -->
<g id="node9" class="node">
<title>Node9</title>
<g id="a_node9"><a xlink:href="mxguirenderer_8h.html" target="_top" xlink:title=" ">
<polygon fill="none" stroke="black" points="304.5,-280.5 304.5,-299.5 389.5,-299.5 389.5,-280.5 304.5,-280.5"/>
<text text-anchor="middle" x="347" y="-287.5" font-family="Helvetica,sans-Serif" font-size="10.00">mxguirenderer.h</text>
</a>
</g>
</g>
<!-- Node1&#45;&gt;Node9 -->
<g id="edge9" class="edge">
<title>Node1&#45;&gt;Node9</title>
<path fill="none" stroke="midnightblue" d="M583.47,-336.44C533.61,-326.86 452.84,-311.34 399.82,-301.15"/>
<polygon fill="midnightblue" stroke="midnightblue" points="400.42,-297.7 389.93,-299.25 399.09,-304.58 400.42,-297.7"/>
</g>
<!-- Node24 -->
<g id="node24" class="node">
<title>Node24</title>
<g id="a_node24"><a xlink:href="mxmouseevent_8h.html" target="_top" xlink:title=" ">
<polygon fill="none" stroke="black" points="516,-280.5 516,-299.5 606,-299.5 606,-280.5 516,-280.5"/>
<text text-anchor="middle" x="561" y="-287.5" font-family="Helvetica,sans-Serif" font-size="10.00">mxmouseevent.h</text>
</a>
</g>
</g>
<!-- Node1&#45;&gt;Node24 -->
<g id="edge38" class="edge">
<title>Node1&#45;&gt;Node24</title>
<path fill="none" stroke="midnightblue" d="M617.24,-336.32C607.23,-328.26 592.11,-316.08 580.07,-306.37"/>
<polygon fill="midnightblue" stroke="midnightblue" points="581.94,-303.38 571.96,-299.83 577.55,-308.83 581.94,-303.38"/>
</g>
<!-- Node26 -->
<g id="node26" class="node">
<title>Node26</title>
<g id="a_node26"><a xlink:href="mxpainter_8h.html" target="_top" xlink:title=" ">
<polygon fill="none" stroke="black" points="663,-280.5 663,-299.5 729,-299.5 729,-280.5 663,-280.5"/>
<text text-anchor="middle" x="696" y="-287.5" font-family="Helvetica,sans-Serif" font-size="10.00">mxpainter.h</text>
</a>
</g>
</g>
<!-- Node1&#45;&gt;Node26 -->
<g id="edge41" class="edge">
<title>Node1&#45;&gt;Node26</title>
<path fill="none" stroke="midnightblue" d="M638.93,-336.32C649.17,-328.18 664.72,-315.84 677,-306.09"/>
<polygon fill="midnightblue" stroke="midnightblue" points="679.22,-308.79 684.88,-299.83 674.87,-303.31 679.22,-308.79"/>
</g>
<!-- Node34 -->
<g id="node34" class="node">
<title>Node34</title>
<g id="a_node34"><a xlink:href="mxguiaggregation_8h.html" target="_top" xlink:title=" ">
<polygon fill="none" stroke="black" points="843,-280.5 843,-299.5 943,-299.5 943,-280.5 843,-280.5"/>
<text text-anchor="middle" x="893" y="-287.5" font-family="Helvetica,sans-Serif" font-size="10.00">mxguiaggregation.h</text>
</a>
</g>
</g>
<!-- Node1&#45;&gt;Node34 -->
<g id="edge63" class="edge">
<title>Node1&#45;&gt;Node34</title>
<path fill="none" stroke="midnightblue" d="M669.99,-336.44C716.41,-326.98 791.23,-311.74 841.24,-301.55"/>
<polygon fill="midnightblue" stroke="midnightblue" points="842.11,-304.94 851.21,-299.52 840.71,-298.08 842.11,-304.94"/>
</g>
<!-- Node4 -->
<g id="node4" class="node">
<title>Node4</title>
<g id="a_node4"><a xlink:href="mxlist_8h.html" target="_top" xlink:title=" ">
<polygon fill="none" stroke="black" points="1147,-112.5 1147,-131.5 1197,-131.5 1197,-112.5 1147,-112.5"/>
<text text-anchor="middle" x="1172" y="-119.5" font-family="Helvetica,sans-Serif" font-size="10.00">mxlist.h</text>
</a>
</g>
</g>
<!-- Node3&#45;&gt;Node4 -->
<g id="edge3" class="edge">
<title>Node3&#45;&gt;Node4</title>
<path fill="none" stroke="midnightblue" d="M825.02,-281.63C828.06,-281.07 831.08,-280.52 834,-280 927.21,-263.27 959.3,-286.34 1044,-244 1094.62,-218.7 1138.95,-166.74 1159.63,-139.89"/>
<polygon fill="midnightblue" stroke="midnightblue" points="1162.48,-141.91 1165.71,-131.82 1156.89,-137.7 1162.48,-141.91"/>
</g>
<!-- Node4&#45;&gt;Node2 -->
<g id="edge4" class="edge">
<title>Node4&#45;&gt;Node2</title>
<path fill="none" stroke="midnightblue" d="M1191.55,-112.33C1216.75,-100.01 1255.18,-76.65 1236,-56 1216.68,-35.2 803.33,-17.7 668.86,-12.54"/>
<polygon fill="midnightblue" stroke="midnightblue" points="668.69,-9.03 658.57,-12.15 668.43,-16.03 668.69,-9.03"/>
</g>
<!-- Node5 -->
<g id="node5" class="node">
<title>Node5</title>
<g id="a_node5"><a xlink:href="mxrefcounter_8h.html" target="_top" xlink:title=" ">
<polygon fill="none" stroke="black" points="1094,-56.5 1094,-75.5 1174,-75.5 1174,-56.5 1094,-56.5"/>
<text text-anchor="middle" x="1134" y="-63.5" font-family="Helvetica,sans-Serif" font-size="10.00">mxrefcounter.h</text>
</a>
</g>
</g>
<!-- Node4&#45;&gt;Node5 -->
<g id="edge5" class="edge">
<title>Node4&#45;&gt;Node5</title>
<path fill="none" stroke="midnightblue" d="M1165.73,-112.08C1160.36,-104.46 1152.48,-93.26 1145.92,-83.94"/>
<polygon fill="midnightblue" stroke="midnightblue" points="1148.78,-81.91 1140.16,-75.75 1143.05,-85.94 1148.78,-81.91"/>
</g>
<!-- Node6 -->
<g id="node6" class="node">
<title>Node6</title>
<g id="a_node6"><a xlink:title=" ">
<polygon fill="none" stroke="#bfbfbf" points="1056.5,-0.5 1056.5,-19.5 1103.5,-19.5 1103.5,-0.5 1056.5,-0.5"/>
<text text-anchor="middle" x="1080" y="-7.5" font-family="Helvetica,sans-Serif" font-size="10.00">stdlib.h</text>
</a>
</g>
</g>
<!-- Node4&#45;&gt;Node6 -->
<g id="edge6" class="edge">
<title>Node4&#45;&gt;Node6</title>
<path fill="none" stroke="midnightblue" d="M1197,-118.4C1244.53,-112.5 1340.4,-95.42 1308,-56 1283.82,-26.58 1171.35,-16.08 1113.93,-12.59"/>
<polygon fill="midnightblue" stroke="midnightblue" points="1114.06,-9.1 1103.88,-12.02 1113.67,-16.09 1114.06,-9.1"/>
</g>
<!-- Node7 -->
<g id="node7" class="node">
<title>Node7</title>
<g id="a_node7"><a xlink:title=" ">
<polygon fill="none" stroke="#bfbfbf" points="990,-0.5 990,-19.5 1038,-19.5 1038,-0.5 990,-0.5"/>
<text text-anchor="middle" x="1014" y="-7.5" font-family="Helvetica,sans-Serif" font-size="10.00">string.h</text>
</a>
</g>
</g>
<!-- Node4&#45;&gt;Node7 -->
<g id="edge7" class="edge">
<title>Node4&#45;&gt;Node7</title>
<path fill="none" stroke="midnightblue" d="M1197.27,-115.1C1233.74,-105.44 1294.22,-84.45 1270,-56 1239.17,-19.8 1110.67,-29.41 1047.92,-19.7"/>
<polygon fill="midnightblue" stroke="midnightblue" points="1048.55,-16.25 1038.08,-17.88 1047.28,-23.14 1048.55,-16.25"/>
</g>
<!-- Node8 -->
<g id="node8" class="node">
<title>Node8</title>
<g id="a_node8"><a xlink:title=" ">
<polygon fill="none" stroke="#bfbfbf" points="1192.5,-56.5 1192.5,-75.5 1227.5,-75.5 1227.5,-56.5 1192.5,-56.5"/>
<text text-anchor="middle" x="1210" y="-63.5" font-family="Helvetica,sans-Serif" font-size="10.00">new</text>
</a>
</g>
</g>
<!-- Node4&#45;&gt;Node8 -->
<g id="edge8" class="edge">
<title>Node4&#45;&gt;Node8</title>
<path fill="none" stroke="midnightblue" d="M1178.27,-112.08C1183.64,-104.46 1191.52,-93.26 1198.08,-83.94"/>
<polygon fill="midnightblue" stroke="midnightblue" points="1200.95,-85.94 1203.84,-75.75 1195.22,-81.91 1200.95,-85.94"/>
</g>
<!-- Node10 -->
<g id="node10" class="node">
<title>Node10</title>
<g id="a_node10"><a xlink:href="mxbuffer_8h.html" target="_top" xlink:title=" ">
<polygon fill="none" stroke="black" points="140.5,-224.5 140.5,-243.5 201.5,-243.5 201.5,-224.5 140.5,-224.5"/>
<text text-anchor="middle" x="171" y="-231.5" font-family="Helvetica,sans-Serif" font-size="10.00">mxbuffer.h</text>
</a>
</g>
</g>
<!-- Node9&#45;&gt;Node10 -->
<g id="edge10" class="edge">
<title>Node9&#45;&gt;Node10</title>
<path fill="none" stroke="midnightblue" d="M319.11,-280.44C289.25,-271.28 241.69,-256.69 208.54,-246.52"/>
<polygon fill="midnightblue" stroke="midnightblue" points="209.34,-243.1 198.76,-243.52 207.29,-249.8 209.34,-243.1"/>
</g>
<!-- Node11 -->
<g id="node11" class="node">
<title>Node11</title>
<g id="a_node11"><a xlink:href="mxrenderer_8h.html" target="_top" xlink:title=" ">
<polygon fill="none" stroke="black" points="203,-168.5 203,-187.5 275,-187.5 275,-168.5 203,-168.5"/>
<text text-anchor="middle" x="239" y="-175.5" font-family="Helvetica,sans-Serif" font-size="10.00">mxrenderer.h</text>
</a>
</g>
</g>
<!-- Node9&#45;&gt;Node11 -->
<g id="edge11" class="edge">
<title>Node9&#45;&gt;Node11</title>
<path fill="none" stroke="midnightblue" d="M307.35,-280.38C286.79,-273.85 263.1,-262.68 249,-244 239.01,-230.77 237.14,-211.64 237.39,-197.56"/>
<polygon fill="midnightblue" stroke="midnightblue" points="240.88,-197.73 237.92,-187.55 233.89,-197.35 240.88,-197.73"/>
</g>
<!-- Node15 -->
<g id="node15" class="node">
<title>Node15</title>
<g id="a_node15"><a xlink:href="mxmatrix_8h.html" target="_top" xlink:title=" ">
<polygon fill="none" stroke="black" points="320.5,-112.5 320.5,-131.5 383.5,-131.5 383.5,-112.5 320.5,-112.5"/>
<text text-anchor="middle" x="352" y="-119.5" font-family="Helvetica,sans-Serif" font-size="10.00">mxmatrix.h</text>
</a>
</g>
</g>
<!-- Node9&#45;&gt;Node15 -->
<g id="edge37" class="edge">
<title>Node9&#45;&gt;Node15</title>
<path fill="none" stroke="midnightblue" d="M351.88,-280.37C356.56,-271.55 363.31,-257.3 366,-244 373.28,-208.04 364.26,-165.23 357.69,-141.39"/>
<polygon fill="midnightblue" stroke="midnightblue" points="360.99,-140.2 354.83,-131.59 354.27,-142.17 360.99,-140.2"/>
</g>
<!-- Node19 -->
<g id="node19" class="node">
<title>Node19</title>
<g id="a_node19"><a xlink:href="mxvectorprogram_8h.html" target="_top" xlink:title=" ">
<polygon fill="none" stroke="black" points="258.5,-224.5 258.5,-243.5 357.5,-243.5 357.5,-224.5 258.5,-224.5"/>
<text text-anchor="middle" x="308" y="-231.5" font-family="Helvetica,sans-Serif" font-size="10.00">mxvectorprogram.h</text>
</a>
</g>
</g>
<!-- Node9&#45;&gt;Node19 -->
<g id="edge22" class="edge">
<title>Node9&#45;&gt;Node19</title>
<path fill="none" stroke="midnightblue" d="M340.56,-280.08C335.05,-272.46 326.97,-261.26 320.24,-251.94"/>
<polygon fill="midnightblue" stroke="midnightblue" points="323.01,-249.81 314.32,-243.75 317.34,-253.91 323.01,-249.81"/>
</g>
<!-- Node23 -->
<g id="node23" class="node">
<title>Node23</title>
<g id="a_node23"><a xlink:href="mxiconprogram_8h.html" target="_top" xlink:title=" ">
<polygon fill="none" stroke="black" points="405,-168.5 405,-187.5 495,-187.5 495,-168.5 405,-168.5"/>
<text text-anchor="middle" x="450" y="-175.5" font-family="Helvetica,sans-Serif" font-size="10.00">mxiconprogram.h</text>
</a>
</g>
</g>
<!-- Node9&#45;&gt;Node23 -->
<g id="edge30" class="edge">
<title>Node9&#45;&gt;Node23</title>
<path fill="none" stroke="midnightblue" d="M358.57,-280.34C369.74,-271.71 386.84,-257.81 400,-244 414.36,-228.93 428.63,-209.86 438.23,-196.28"/>
<polygon fill="midnightblue" stroke="midnightblue" points="441.24,-198.09 444.07,-187.88 435.49,-194.09 441.24,-198.09"/>
</g>
<!-- Node11&#45;&gt;Node4 -->
<g id="edge12" class="edge">
<title>Node11&#45;&gt;Node4</title>
<path fill="none" stroke="midnightblue" d="M275,-174.92C423.66,-166.31 988.78,-133.6 1136.5,-125.05"/>
<polygon fill="midnightblue" stroke="midnightblue" points="1137.01,-128.53 1146.79,-124.46 1136.6,-121.54 1137.01,-128.53"/>
</g>
<!-- Node12 -->
<g id="node12" class="node">
<title>Node12</title>
<g id="a_node12"><a xlink:href="mxgpuarray_8h.html" target="_top" xlink:title=" ">
<polygon fill="none" stroke="black" points="190,-112.5 190,-131.5 264,-131.5 264,-112.5 190,-112.5"/>
<text text-anchor="middle" x="227" y="-119.5" font-family="Helvetica,sans-Serif" font-size="10.00">mxgpuarray.h</text>
</a>
</g>
</g>
<!-- Node11&#45;&gt;Node12 -->
<g id="edge13" class="edge">
<title>Node11&#45;&gt;Node12</title>
<path fill="none" stroke="midnightblue" d="M237.02,-168.08C235.43,-160.93 233.14,-150.64 231.15,-141.69"/>
<polygon fill="midnightblue" stroke="midnightblue" points="234.53,-140.75 228.94,-131.75 227.7,-142.27 234.53,-140.75"/>
</g>
<!-- Node11&#45;&gt;Node15 -->
<g id="edge17" class="edge">
<title>Node11&#45;&gt;Node15</title>
<path fill="none" stroke="midnightblue" d="M256.91,-168.44C275.25,-159.68 304.01,-145.94 325.09,-135.86"/>
<polygon fill="midnightblue" stroke="midnightblue" points="326.67,-138.99 334.18,-131.52 323.65,-132.67 326.67,-138.99"/>
</g>
<!-- Node16 -->
<g id="node16" class="node">
<title>Node16</title>
<g id="a_node16"><a xlink:href="mxopenglfunctions_8h.html" target="_top" xlink:title=" ">
<polygon fill="none" stroke="black" points="66.5,-112.5 66.5,-131.5 171.5,-131.5 171.5,-112.5 66.5,-112.5"/>
<text text-anchor="middle" x="119" y="-119.5" font-family="Helvetica,sans-Serif" font-size="10.00">mxopenglfunctions.h</text>
</a>
</g>
</g>
<!-- Node11&#45;&gt;Node16 -->
<g id="edge18" class="edge">
<title>Node11&#45;&gt;Node16</title>
<path fill="none" stroke="midnightblue" d="M219.99,-168.44C200.41,-159.64 169.69,-145.81 147.27,-135.72"/>
<polygon fill="midnightblue" stroke="midnightblue" points="148.48,-132.43 137.93,-131.52 145.61,-138.81 148.48,-132.43"/>
</g>
<!-- Node18 -->
<g id="node18" class="node">
<title>Node18</title>
<g id="a_node18"><a xlink:href="mxvector_8h.html" target="_top" xlink:title=" ">
<polygon fill="none" stroke="black" points="516,-56.5 516,-75.5 580,-75.5 580,-56.5 516,-56.5"/>
<text text-anchor="middle" x="548" y="-63.5" font-family="Helvetica,sans-Serif" font-size="10.00">mxvector.h</text>
</a>
</g>
</g>
<!-- Node11&#45;&gt;Node18 -->
<g id="edge20" class="edge">
<title>Node11&#45;&gt;Node18</title>
<path fill="none" stroke="midnightblue" d="M245.91,-168.2C257.65,-153.93 282.95,-125.93 311,-112 374.08,-80.67 456.55,-71.08 505.72,-68.19"/>
<polygon fill="midnightblue" stroke="midnightblue" points="506.18,-71.67 515.98,-67.66 505.82,-64.68 506.18,-71.67"/>
</g>
<!-- Node13 -->
<g id="node13" class="node">
<title>Node13</title>
<g id="a_node13"><a xlink:href="mxgpuprogram_8h.html" target="_top" xlink:title=" ">
<polygon fill="none" stroke="black" points="334,-56.5 334,-75.5 422,-75.5 422,-56.5 334,-56.5"/>
<text text-anchor="middle" x="378" y="-63.5" font-family="Helvetica,sans-Serif" font-size="10.00">mxgpuprogram.h</text>
</a>
</g>
</g>
<!-- Node12&#45;&gt;Node13 -->
<g id="edge14" class="edge">
<title>Node12&#45;&gt;Node13</title>
<path fill="none" stroke="midnightblue" d="M250.93,-112.44C276.22,-103.4 316.3,-89.06 344.68,-78.92"/>
<polygon fill="midnightblue" stroke="midnightblue" points="345.95,-82.18 354.19,-75.52 343.59,-75.59 345.95,-82.18"/>
</g>
<!-- Node13&#45;&gt;Node2 -->
<g id="edge15" class="edge">
<title>Node13&#45;&gt;Node2</title>
<path fill="none" stroke="midnightblue" d="M417.45,-56.44C463.32,-46.5 538.68,-30.15 585.43,-20.02"/>
<polygon fill="midnightblue" stroke="midnightblue" points="586.2,-23.43 595.24,-17.89 584.72,-16.59 586.2,-23.43"/>
</g>
<!-- Node14 -->
<g id="node14" class="node">
<title>Node14</title>
<g id="a_node14"><a xlink:href="mxopengl_8h.html" target="_top" xlink:title=" ">
<polygon fill="none" stroke="black" points="381.5,-0.5 381.5,-19.5 446.5,-19.5 446.5,-0.5 381.5,-0.5"/>
<text text-anchor="middle" x="414" y="-7.5" font-family="Helvetica,sans-Serif" font-size="10.00">mxopengl.h</text>
</a>
</g>
</g>
<!-- Node13&#45;&gt;Node14 -->
<g id="edge16" class="edge">
<title>Node13&#45;&gt;Node14</title>
<path fill="none" stroke="midnightblue" d="M383.94,-56.08C388.98,-48.53 396.34,-37.49 402.51,-28.23"/>
<polygon fill="midnightblue" stroke="midnightblue" points="405.53,-30.01 408.17,-19.75 399.71,-26.13 405.53,-30.01"/>
</g>
<!-- Node17 -->
<g id="node17" class="node">
<title>Node17</title>
<g id="a_node17"><a xlink:title=" ">
<polygon fill="none" stroke="#bfbfbf" points="56.5,-56.5 56.5,-75.5 181.5,-75.5 181.5,-56.5 56.5,-56.5"/>
<text text-anchor="middle" x="119" y="-63.5" font-family="Helvetica,sans-Serif" font-size="10.00">QOpenGLExtraFunctions</text>
</a>
</g>
</g>
<!-- Node16&#45;&gt;Node17 -->
<g id="edge19" class="edge">
<title>Node16&#45;&gt;Node17</title>
<path fill="none" stroke="midnightblue" d="M119,-112.08C119,-105.01 119,-94.86 119,-85.99"/>
<polygon fill="midnightblue" stroke="midnightblue" points="122.5,-85.75 119,-75.75 115.5,-85.75 122.5,-85.75"/>
</g>
<!-- Node18&#45;&gt;Node2 -->
<g id="edge21" class="edge">
<title>Node18&#45;&gt;Node2</title>
<path fill="none" stroke="midnightblue" d="M560.69,-56.32C572.9,-47.98 591.58,-35.21 606,-25.35"/>
<polygon fill="midnightblue" stroke="midnightblue" points="608.06,-28.19 614.34,-19.65 604.11,-22.41 608.06,-28.19"/>
</g>
<!-- Node19&#45;&gt;Node13 -->
<g id="edge23" class="edge">
<title>Node19&#45;&gt;Node13</title>
<path fill="none" stroke="midnightblue" d="M258.4,-227.38C169.06,-215.36 -4.19,-182.36 57,-112 74.21,-92.21 236.58,-77.38 323.57,-70.78"/>
<polygon fill="midnightblue" stroke="midnightblue" points="324.08,-74.25 333.79,-70.02 323.55,-67.27 324.08,-74.25"/>
</g>
<!-- Node19&#45;&gt;Node15 -->
<g id="edge24" class="edge">
<title>Node19&#45;&gt;Node15</title>
<path fill="none" stroke="midnightblue" d="M311.45,-224.37C318.62,-206.46 335.23,-164.92 344.82,-140.95"/>
<polygon fill="midnightblue" stroke="midnightblue" points="348.1,-142.18 348.56,-131.59 341.6,-139.58 348.1,-142.18"/>
</g>
<!-- Node20 -->
<g id="node20" class="node">
<title>Node20</title>
<g id="a_node20"><a xlink:href="mxvectordraw_8h.html" target="_top" xlink:title=" ">
<polygon fill="none" stroke="black" points="551.5,-168.5 551.5,-187.5 636.5,-187.5 636.5,-168.5 551.5,-168.5"/>
<text text-anchor="middle" x="594" y="-175.5" font-family="Helvetica,sans-Serif" font-size="10.00">mxvectordraw.h</text>
</a>
</g>
</g>
<!-- Node19&#45;&gt;Node20 -->
<g id="edge25" class="edge">
<title>Node19&#45;&gt;Node20</title>
<path fill="none" stroke="midnightblue" d="M353.32,-224.44C404.37,-214.8 487.23,-199.16 541.18,-188.97"/>
<polygon fill="midnightblue" stroke="midnightblue" points="542.05,-192.37 551.23,-187.08 540.75,-185.49 542.05,-192.37"/>
</g>
<!-- Node21 -->
<g id="node21" class="node">
<title>Node21</title>
<g id="a_node21"><a xlink:href="mxrect_8h.html" target="_top" xlink:title=" ">
<polygon fill="none" stroke="black" points="636.5,-112.5 636.5,-131.5 689.5,-131.5 689.5,-112.5 636.5,-112.5"/>
<text text-anchor="middle" x="663" y="-119.5" font-family="Helvetica,sans-Serif" font-size="10.00">mxrect.h</text>
</a>
</g>
</g>
<!-- Node20&#45;&gt;Node21 -->
<g id="edge26" class="edge">
<title>Node20&#45;&gt;Node21</title>
<path fill="none" stroke="midnightblue" d="M605.09,-168.32C615.49,-160.18 631.26,-147.84 643.72,-138.09"/>
<polygon fill="midnightblue" stroke="midnightblue" points="645.99,-140.75 651.71,-131.83 641.68,-135.24 645.99,-140.75"/>
</g>
<!-- Node21&#45;&gt;Node2 -->
<g id="edge27" class="edge">
<title>Node21&#45;&gt;Node2</title>
<path fill="none" stroke="midnightblue" d="M660.18,-112.37C654.34,-94.54 640.84,-53.3 632.98,-29.27"/>
<polygon fill="midnightblue" stroke="midnightblue" points="636.25,-28.01 629.81,-19.59 629.6,-30.18 636.25,-28.01"/>
</g>
<!-- Node21&#45;&gt;Node18 -->
<g id="edge28" class="edge">
<title>Node21&#45;&gt;Node18</title>
<path fill="none" stroke="midnightblue" d="M644.78,-112.44C626.1,-103.68 596.84,-89.94 575.38,-79.86"/>
<polygon fill="midnightblue" stroke="midnightblue" points="576.68,-76.6 566.14,-75.52 573.7,-82.93 576.68,-76.6"/>
</g>
<!-- Node22 -->
<g id="node22" class="node">
<title>Node22</title>
<g id="a_node22"><a xlink:title=" ">
<polygon fill="none" stroke="#bfbfbf" points="674,-56.5 674,-75.5 730,-75.5 730,-56.5 674,-56.5"/>
<text text-anchor="middle" x="702" y="-63.5" font-family="Helvetica,sans-Serif" font-size="10.00">algorithm</text>
</a>
</g>
</g>
<!-- Node21&#45;&gt;Node22 -->
<g id="edge29" class="edge">
<title>Node21&#45;&gt;Node22</title>
<path fill="none" stroke="midnightblue" d="M669.44,-112.08C674.95,-104.46 683.03,-93.26 689.76,-83.94"/>
<polygon fill="midnightblue" stroke="midnightblue" points="692.66,-85.91 695.68,-75.75 686.99,-81.81 692.66,-85.91"/>
</g>
<!-- Node23&#45;&gt;Node2 -->
<g id="edge31" class="edge">
<title>Node23&#45;&gt;Node2</title>
<path fill="none" stroke="midnightblue" d="M451.72,-168.35C456.5,-146.45 472,-88.26 507,-56 528.71,-35.99 560.16,-24.63 585.42,-18.33"/>
<polygon fill="midnightblue" stroke="midnightblue" points="586.51,-21.67 595.47,-16.01 584.93,-14.85 586.51,-21.67"/>
</g>
<!-- Node23&#45;&gt;Node13 -->
<g id="edge35" class="edge">
<title>Node23&#45;&gt;Node13</title>
<path fill="none" stroke="midnightblue" d="M444.35,-168.37C432.47,-150.22 404.71,-107.8 389.12,-83.99"/>
<polygon fill="midnightblue" stroke="midnightblue" points="392.03,-82.04 383.62,-75.59 386.17,-85.88 392.03,-82.04"/>
</g>
<!-- Node23&#45;&gt;Node14 -->
<g id="edge34" class="edge">
<title>Node23&#45;&gt;Node14</title>
<path fill="none" stroke="midnightblue" d="M449.26,-168.37C447.41,-148.35 441.93,-97.32 431,-56 428.63,-47.02 425.1,-37.34 421.88,-29.28"/>
<polygon fill="midnightblue" stroke="midnightblue" points="425.01,-27.68 417.94,-19.79 418.54,-30.37 425.01,-27.68"/>
</g>
<!-- Node23&#45;&gt;Node15 -->
<g id="edge32" class="edge">
<title>Node23&#45;&gt;Node15</title>
<path fill="none" stroke="midnightblue" d="M434.25,-168.32C418.68,-159.74 394.62,-146.49 376.54,-136.52"/>
<polygon fill="midnightblue" stroke="midnightblue" points="378.15,-133.42 367.71,-131.65 374.78,-139.55 378.15,-133.42"/>
</g>
<!-- Node23&#45;&gt;Node18 -->
<g id="edge33" class="edge">
<title>Node23&#45;&gt;Node18</title>
<path fill="none" stroke="midnightblue" d="M461.46,-168.41C472.49,-159.84 489.33,-145.97 502,-132 515.45,-117.17 528.41,-98.31 537.12,-84.73"/>
<polygon fill="midnightblue" stroke="midnightblue" points="540.31,-86.24 542.66,-75.91 534.38,-82.52 540.31,-86.24"/>
</g>
<!-- Node23&#45;&gt;Node21 -->
<g id="edge36" class="edge">
<title>Node23&#45;&gt;Node21</title>
<path fill="none" stroke="midnightblue" d="M483.75,-168.44C522.71,-158.57 586.54,-142.38 626.59,-132.23"/>
<polygon fill="midnightblue" stroke="midnightblue" points="627.64,-135.58 636.47,-129.73 625.92,-128.79 627.64,-135.58"/>
</g>
<!-- Node24&#45;&gt;Node18 -->
<g id="edge39" class="edge">
<title>Node24&#45;&gt;Node18</title>
<path fill="none" stroke="midnightblue" d="M531.88,-280.44C514.36,-273.62 493.48,-262.14 483,-244 469.71,-220.98 492.72,-212.07 504,-188 520.54,-152.72 534.95,-109.39 542.47,-85.33"/>
<polygon fill="midnightblue" stroke="midnightblue" points="545.83,-86.31 545.42,-75.72 539.14,-84.25 545.83,-86.31"/>
</g>
<!-- Node25 -->
<g id="node25" class="node">
<title>Node25</title>
<g id="a_node25"><a xlink:title=" ">
<polygon fill="none" stroke="#bfbfbf" points="492,-224.5 492,-243.5 630,-243.5 630,-224.5 492,-224.5"/>
<text text-anchor="middle" x="561" y="-231.5" font-family="Helvetica,sans-Serif" font-size="10.00">mxmouseeventabstraction.h</text>
</a>
</g>
</g>
<!-- Node24&#45;&gt;Node25 -->
<g id="edge40" class="edge">
<title>Node24&#45;&gt;Node25</title>
<path fill="none" stroke="midnightblue" d="M561,-280.08C561,-273.01 561,-262.86 561,-253.99"/>
<polygon fill="midnightblue" stroke="midnightblue" points="564.5,-253.75 561,-243.75 557.5,-253.75 564.5,-253.75"/>
</g>
<!-- Node26&#45;&gt;Node2 -->
<g id="edge42" class="edge">
<title>Node26&#45;&gt;Node2</title>
<path fill="none" stroke="midnightblue" d="M692.6,-280.41C684.67,-260.48 664.15,-209.63 645,-168 637.52,-151.75 631.11,-149.41 627,-132 618.66,-96.68 621.58,-53.94 624.35,-29.87"/>
<polygon fill="midnightblue" stroke="midnightblue" points="627.86,-30.03 625.66,-19.66 620.92,-29.14 627.86,-30.03"/>
</g>
<!-- Node26&#45;&gt;Node4 -->
<g id="edge44" class="edge">
<title>Node26&#45;&gt;Node4</title>
<path fill="none" stroke="midnightblue" d="M729.03,-281.84C785.96,-269.49 896.89,-245.35 901,-244 994.67,-213.17 1099.75,-160.81 1146.82,-136.34"/>
<polygon fill="midnightblue" stroke="midnightblue" points="1148.73,-139.3 1155.96,-131.56 1145.48,-133.09 1148.73,-139.3"/>
</g>
<!-- Node26&#45;&gt;Node20 -->
<g id="edge43" class="edge">
<title>Node26&#45;&gt;Node20</title>
<path fill="none" stroke="midnightblue" d="M688.79,-280.43C678.15,-267.84 657.47,-243.72 639,-224 629.75,-214.12 619.05,-203.39 610.4,-194.89"/>
<polygon fill="midnightblue" stroke="midnightblue" points="612.74,-192.28 603.14,-187.8 607.85,-197.29 612.74,-192.28"/>
</g>
<!-- Node27 -->
<g id="node27" class="node">
<title>Node27</title>
<g id="a_node27"><a xlink:href="mxtextdraw_8h.html" target="_top" xlink:title=" ">
<polygon fill="none" stroke="black" points="818,-224.5 818,-243.5 892,-243.5 892,-224.5 818,-224.5"/>
<text text-anchor="middle" x="855" y="-231.5" font-family="Helvetica,sans-Serif" font-size="10.00">mxtextdraw.h</text>
</a>
</g>
</g>
<!-- Node26&#45;&gt;Node27 -->
<g id="edge45" class="edge">
<title>Node26&#45;&gt;Node27</title>
<path fill="none" stroke="midnightblue" d="M721.19,-280.44C747.94,-271.36 790.4,-256.94 820.31,-246.78"/>
<polygon fill="midnightblue" stroke="midnightblue" points="821.58,-250.05 829.92,-243.52 819.33,-243.42 821.58,-250.05"/>
</g>
<!-- Node32 -->
<g id="node32" class="node">
<title>Node32</title>
<g id="a_node32"><a xlink:href="mxicondraw_8h.html" target="_top" xlink:title=" ">
<polygon fill="none" stroke="black" points="724,-224.5 724,-243.5 800,-243.5 800,-224.5 724,-224.5"/>
<text text-anchor="middle" x="762" y="-231.5" font-family="Helvetica,sans-Serif" font-size="10.00">mxicondraw.h</text>
</a>
</g>
</g>
<!-- Node26&#45;&gt;Node32 -->
<g id="edge60" class="edge">
<title>Node26&#45;&gt;Node32</title>
<path fill="none" stroke="midnightblue" d="M706.6,-280.32C716.46,-272.26 731.35,-260.08 743.22,-250.37"/>
<polygon fill="midnightblue" stroke="midnightblue" points="745.68,-252.88 751.2,-243.83 741.25,-247.46 745.68,-252.88"/>
</g>
<!-- Node27&#45;&gt;Node18 -->
<g id="edge46" class="edge">
<title>Node27&#45;&gt;Node18</title>
<path fill="none" stroke="midnightblue" d="M854,-224.26C852,-210.58 846.3,-184 831,-168 765.91,-99.92 651.86,-77.63 590.29,-70.41"/>
<polygon fill="midnightblue" stroke="midnightblue" points="590.47,-66.91 580.15,-69.3 589.71,-73.87 590.47,-66.91"/>
</g>
<!-- Node27&#45;&gt;Node21 -->
<g id="edge47" class="edge">
<title>Node27&#45;&gt;Node21</title>
<path fill="none" stroke="midnightblue" d="M850.83,-224.48C843.61,-210.61 827.47,-183.16 806,-168 774.01,-145.41 730.21,-133.83 699.55,-128.12"/>
<polygon fill="midnightblue" stroke="midnightblue" points="700.14,-124.67 689.69,-126.4 698.94,-131.56 700.14,-124.67"/>
</g>
<!-- Node28 -->
<g id="node28" class="node">
<title>Node28</title>
<g id="a_node28"><a xlink:href="mxstring_8h.html" target="_top" xlink:title=" ">
<polygon fill="none" stroke="black" points="920.5,-168.5 920.5,-187.5 981.5,-187.5 981.5,-168.5 920.5,-168.5"/>
<text text-anchor="middle" x="951" y="-175.5" font-family="Helvetica,sans-Serif" font-size="10.00">mxstring.h</text>
</a>
</g>
</g>
<!-- Node27&#45;&gt;Node28 -->
<g id="edge48" class="edge">
<title>Node27&#45;&gt;Node28</title>
<path fill="none" stroke="midnightblue" d="M870.42,-224.32C885.54,-215.82 908.82,-202.73 926.47,-192.8"/>
<polygon fill="midnightblue" stroke="midnightblue" points="928.61,-195.61 935.61,-187.65 925.18,-189.51 928.61,-195.61"/>
</g>
<!-- Node29 -->
<g id="node29" class="node">
<title>Node29</title>
<g id="a_node29"><a xlink:href="mxgenericstring_8h.html" target="_top" xlink:title=" ">
<polygon fill="none" stroke="black" points="913,-112.5 913,-131.5 1005,-131.5 1005,-112.5 913,-112.5"/>
<text text-anchor="middle" x="959" y="-119.5" font-family="Helvetica,sans-Serif" font-size="10.00">mxgenericstring.h</text>
</a>
</g>
</g>
<!-- Node28&#45;&gt;Node29 -->
<g id="edge49" class="edge">
<title>Node28&#45;&gt;Node29</title>
<path fill="none" stroke="midnightblue" d="M952.32,-168.08C953.38,-160.93 954.91,-150.64 956.23,-141.69"/>
<polygon fill="midnightblue" stroke="midnightblue" points="959.7,-142.16 957.7,-131.75 952.78,-141.13 959.7,-142.16"/>
</g>
<!-- Node29&#45;&gt;Node2 -->
<g id="edge50" class="edge">
<title>Node29&#45;&gt;Node2</title>
<path fill="none" stroke="midnightblue" d="M912.82,-112.8C875.46,-105.41 821.87,-93.07 777,-76 759.16,-69.22 756.32,-64.01 739,-56 712.82,-43.89 682.42,-31.8 659.9,-23.2"/>
<polygon fill="midnightblue" stroke="midnightblue" points="661.05,-19.89 650.46,-19.62 658.57,-26.44 661.05,-19.89"/>
</g>
<!-- Node29&#45;&gt;Node5 -->
<g id="edge51" class="edge">
<title>Node29&#45;&gt;Node5</title>
<path fill="none" stroke="midnightblue" d="M986.73,-112.44C1016.43,-103.28 1063.72,-88.69 1096.67,-78.52"/>
<polygon fill="midnightblue" stroke="midnightblue" points="1097.88,-81.81 1106.4,-75.52 1095.81,-75.12 1097.88,-81.81"/>
</g>
<!-- Node29&#45;&gt;Node6 -->
<g id="edge58" class="edge">
<title>Node29&#45;&gt;Node6</title>
<path fill="none" stroke="midnightblue" d="M973.99,-112.4C987.94,-104.03 1008.93,-90.48 1025,-76 1041.39,-61.23 1057.37,-41.58 1067.84,-27.76"/>
<polygon fill="midnightblue" stroke="midnightblue" points="1070.73,-29.75 1073.88,-19.64 1065.11,-25.58 1070.73,-29.75"/>
</g>
<!-- Node29&#45;&gt;Node7 -->
<g id="edge59" class="edge">
<title>Node29&#45;&gt;Node7</title>
<path fill="none" stroke="midnightblue" d="M973.29,-112.23C984.81,-104.31 1000.31,-91.52 1008,-76 1015.15,-61.56 1016.21,-43.11 1015.74,-29.56"/>
<polygon fill="midnightblue" stroke="midnightblue" points="1019.23,-29.27 1015.08,-19.52 1012.24,-29.73 1019.23,-29.27"/>
</g>
<!-- Node30 -->
<g id="node30" class="node">
<title>Node30</title>
<g id="a_node30"><a xlink:href="mxbytearrayref_8h.html" target="_top" xlink:title=" ">
<polygon fill="none" stroke="black" points="912.5,-56.5 912.5,-75.5 999.5,-75.5 999.5,-56.5 912.5,-56.5"/>
<text text-anchor="middle" x="956" y="-63.5" font-family="Helvetica,sans-Serif" font-size="10.00">mxbytearrayref.h</text>
</a>
</g>
</g>
<!-- Node29&#45;&gt;Node30 -->
<g id="edge52" class="edge">
<title>Node29&#45;&gt;Node30</title>
<path fill="none" stroke="midnightblue" d="M958.5,-112.08C958.11,-105.01 957.55,-94.86 957.05,-85.99"/>
<polygon fill="midnightblue" stroke="midnightblue" points="960.54,-85.54 956.49,-75.75 953.55,-85.93 960.54,-85.54"/>
</g>
<!-- Node31 -->
<g id="node31" class="node">
<title>Node31</title>
<g id="a_node31"><a xlink:href="mxgenericsubstring_8h.html" target="_top" xlink:title=" ">
<polygon fill="none" stroke="black" points="786,-56.5 786,-75.5 894,-75.5 894,-56.5 786,-56.5"/>
<text text-anchor="middle" x="840" y="-63.5" font-family="Helvetica,sans-Serif" font-size="10.00">mxgenericsubstring.h</text>
</a>
</g>
</g>
<!-- Node29&#45;&gt;Node31 -->
<g id="edge56" class="edge">
<title>Node29&#45;&gt;Node31</title>
<path fill="none" stroke="midnightblue" d="M940.14,-112.44C920.73,-103.64 890.27,-89.81 868.04,-79.72"/>
<polygon fill="midnightblue" stroke="midnightblue" points="869.32,-76.46 858.77,-75.52 866.43,-82.84 869.32,-76.46"/>
</g>
<!-- Node30&#45;&gt;Node2 -->
<g id="edge53" class="edge">
<title>Node30&#45;&gt;Node2</title>
<path fill="none" stroke="midnightblue" d="M912.33,-57.56C909.17,-57.03 906.04,-56.51 903,-56 819.99,-42.19 722.86,-26.45 668.79,-17.73"/>
<polygon fill="midnightblue" stroke="midnightblue" points="669.32,-14.27 658.89,-16.13 668.2,-21.18 669.32,-14.27"/>
</g>
<!-- Node30&#45;&gt;Node6 -->
<g id="edge54" class="edge">
<title>Node30&#45;&gt;Node6</title>
<path fill="none" stroke="midnightblue" d="M975.65,-56.44C995.96,-47.6 1027.9,-33.69 1051.1,-23.59"/>
<polygon fill="midnightblue" stroke="midnightblue" points="1052.67,-26.72 1060.44,-19.52 1049.88,-20.3 1052.67,-26.72"/>
</g>
<!-- Node30&#45;&gt;Node7 -->
<g id="edge55" class="edge">
<title>Node30&#45;&gt;Node7</title>
<path fill="none" stroke="midnightblue" d="M965.32,-56.32C973.89,-48.34 986.81,-36.31 997.19,-26.65"/>
<polygon fill="midnightblue" stroke="midnightblue" points="999.58,-29.21 1004.51,-19.83 994.81,-24.09 999.58,-29.21"/>
</g>
<!-- Node31&#45;&gt;Node2 -->
<g id="edge57" class="edge">
<title>Node31&#45;&gt;Node2</title>
<path fill="none" stroke="midnightblue" d="M806.25,-56.44C768.83,-46.96 708.47,-31.65 668.27,-21.46"/>
<polygon fill="midnightblue" stroke="midnightblue" points="669.06,-18.05 658.51,-18.99 667.34,-24.84 669.06,-18.05"/>
</g>
<!-- Node32&#45;&gt;Node21 -->
<g id="edge62" class="edge">
<title>Node32&#45;&gt;Node21</title>
<path fill="none" stroke="midnightblue" d="M770.68,-224.4C782.76,-211.36 801.81,-186.18 789,-168 768.95,-139.55 729.21,-128.99 699.69,-125.12"/>
<polygon fill="midnightblue" stroke="midnightblue" points="700.05,-121.64 689.73,-124.01 699.28,-128.6 700.05,-121.64"/>
</g>
<!-- Node33 -->
<g id="node33" class="node">
<title>Node33</title>
<g id="a_node33"><a xlink:href="mxthemeicons_8h.html" target="_top" xlink:title=" ">
<polygon fill="none" stroke="black" points="693.5,-168.5 693.5,-187.5 780.5,-187.5 780.5,-168.5 693.5,-168.5"/>
<text text-anchor="middle" x="737" y="-175.5" font-family="Helvetica,sans-Serif" font-size="10.00">mxthemeicons.h</text>
</a>
</g>
</g>
<!-- Node32&#45;&gt;Node33 -->
<g id="edge61" class="edge">
<title>Node32&#45;&gt;Node33</title>
<path fill="none" stroke="midnightblue" d="M757.87,-224.08C754.49,-216.77 749.58,-206.18 745.38,-197.1"/>
<polygon fill="midnightblue" stroke="midnightblue" points="748.43,-195.36 741.05,-187.75 742.08,-198.3 748.43,-195.36"/>
</g>
</g>
</svg>
