<?xml version="1.0" encoding="UTF-8" standalone="no"?>
<!DOCTYPE svg PUBLIC "-//W3C//DTD SVG 1.1//EN"
 "http://www.w3.org/Graphics/SVG/1.1/DTD/svg11.dtd">
<!-- Generated by graphviz version 2.44.0 ()
 -->
<!-- Title: src/gui/mxbuffer.h Pages: 1 -->
<svg width="788pt" height="162pt"
 viewBox="0.00 0.00 787.50 162.00" xmlns="http://www.w3.org/2000/svg" xmlns:xlink="http://www.w3.org/1999/xlink">
<g id="graph0" class="graph" transform="scale(1 1) rotate(0) translate(4 158)">
<title>src/gui/mxbuffer.h</title>
<!-- Node1 -->
<g id="node1" class="node">
<title>Node1</title>
<g id="a_node1"><a xlink:title=" ">
<polygon fill="#bfbfbf" stroke="black" points="274.5,-134.5 274.5,-153.5 367.5,-153.5 367.5,-134.5 274.5,-134.5"/>
<text text-anchor="middle" x="321" y="-141.5" font-family="Helvetica,sans-Serif" font-size="10.00">src/gui/mxbuffer.h</text>
</a>
</g>
</g>
<!-- Node2 -->
<g id="node2" class="node">
<title>Node2</title>
<g id="a_node2"><a xlink:href="mxbuffer_8cpp.html" target="_top" xlink:title=" ">
<polygon fill="none" stroke="black" points="0,-73 0,-92 104,-92 104,-73 0,-73"/>
<text text-anchor="middle" x="52" y="-80" font-family="Helvetica,sans-Serif" font-size="10.00">src/gui/mxbuffer.cpp</text>
</a>
</g>
</g>
<!-- Node1&#45;&gt;Node2 -->
<g id="edge1" class="edge">
<title>Node1&#45;&gt;Node2</title>
<path fill="none" stroke="midnightblue" d="M270.28,-132.33C228.12,-123.38 166.59,-110.16 113,-98 104.72,-96.12 95.82,-94.04 87.45,-92.06"/>
<polygon fill="midnightblue" stroke="midnightblue" points="269.78,-135.8 280.29,-134.45 271.24,-128.95 269.78,-135.8"/>
</g>
<!-- Node3 -->
<g id="node3" class="node">
<title>Node3</title>
<g id="a_node3"><a xlink:href="mxicondraw_8cpp.html" target="_top" xlink:title=" ">
<polygon fill="none" stroke="black" points="122.5,-73 122.5,-92 241.5,-92 241.5,-73 122.5,-73"/>
<text text-anchor="middle" x="182" y="-80" font-family="Helvetica,sans-Serif" font-size="10.00">src/gui/mxicondraw.cpp</text>
</a>
</g>
</g>
<!-- Node1&#45;&gt;Node3 -->
<g id="edge2" class="edge">
<title>Node1&#45;&gt;Node3</title>
<path fill="none" stroke="midnightblue" d="M291.75,-130.48C264.75,-118.92 225.4,-102.08 201.88,-92.01"/>
<polygon fill="midnightblue" stroke="midnightblue" points="290.51,-133.76 301.08,-134.48 293.27,-127.32 290.51,-133.76"/>
</g>
<!-- Node4 -->
<g id="node4" class="node">
<title>Node4</title>
<g id="a_node4"><a xlink:href="mxquaddraw_8cpp.html" target="_top" xlink:title=" ">
<polygon fill="none" stroke="black" points="260,-73 260,-92 382,-92 382,-73 260,-73"/>
<text text-anchor="middle" x="321" y="-80" font-family="Helvetica,sans-Serif" font-size="10.00">src/gui/mxquaddraw.cpp</text>
</a>
</g>
</g>
<!-- Node1&#45;&gt;Node4 -->
<g id="edge3" class="edge">
<title>Node1&#45;&gt;Node4</title>
<path fill="none" stroke="midnightblue" d="M321,-124.32C321,-113.5 321,-100.4 321,-92.01"/>
<polygon fill="midnightblue" stroke="midnightblue" points="317.5,-124.48 321,-134.48 324.5,-124.48 317.5,-124.48"/>
</g>
<!-- Node5 -->
<g id="node5" class="node">
<title>Node5</title>
<g id="a_node5"><a xlink:href="mxvectordraw_8cpp.html" target="_top" xlink:title=" ">
<polygon fill="none" stroke="black" points="400,-73 400,-92 528,-92 528,-73 400,-73"/>
<text text-anchor="middle" x="464" y="-80" font-family="Helvetica,sans-Serif" font-size="10.00">src/gui/mxvectordraw.cpp</text>
</a>
</g>
</g>
<!-- Node1&#45;&gt;Node5 -->
<g id="edge4" class="edge">
<title>Node1&#45;&gt;Node5</title>
<path fill="none" stroke="midnightblue" d="M350.73,-130.63C378.51,-119.07 419.25,-102.12 443.55,-92.01"/>
<polygon fill="midnightblue" stroke="midnightblue" points="349.38,-127.4 341.49,-134.48 352.07,-133.86 349.38,-127.4"/>
</g>
<!-- Node6 -->
<g id="node6" class="node">
<title>Node6</title>
<g id="a_node6"><a xlink:href="opengl_2mxrenderer_8h.html" target="_top" xlink:title=" ">
<polygon fill="none" stroke="black" points="546,-67.5 546,-97.5 646,-97.5 646,-67.5 546,-67.5"/>
<text text-anchor="start" x="554" y="-85.5" font-family="Helvetica,sans-Serif" font-size="10.00">src/renderer/opengl</text>
<text text-anchor="middle" x="596" y="-74.5" font-family="Helvetica,sans-Serif" font-size="10.00">/mxrenderer.h</text>
</a>
</g>
</g>
<!-- Node1&#45;&gt;Node6 -->
<g id="edge5" class="edge">
<title>Node1&#45;&gt;Node6</title>
<path fill="none" stroke="midnightblue" d="M373.99,-132.51C417.78,-123.71 481.55,-110.59 537,-98 539.88,-97.35 542.84,-96.66 545.82,-95.96"/>
<polygon fill="midnightblue" stroke="midnightblue" points="373.25,-129.09 364.13,-134.48 374.62,-135.95 373.25,-129.09"/>
</g>
<!-- Node7 -->
<g id="node7" class="node">
<title>Node7</title>
<g id="a_node7"><a xlink:href="opengl_2mxgpuarray_8cpp.html" target="_top" xlink:title=" ">
<polygon fill="none" stroke="black" points="428,-0.5 428,-30.5 528,-30.5 528,-0.5 428,-0.5"/>
<text text-anchor="start" x="436" y="-18.5" font-family="Helvetica,sans-Serif" font-size="10.00">src/renderer/opengl</text>
<text text-anchor="middle" x="478" y="-7.5" font-family="Helvetica,sans-Serif" font-size="10.00">/mxgpuarray.cpp</text>
</a>
</g>
</g>
<!-- Node6&#45;&gt;Node7 -->
<g id="edge6" class="edge">
<title>Node6&#45;&gt;Node7</title>
<path fill="none" stroke="midnightblue" d="M561.39,-62.44C542.88,-52.24 520.48,-39.9 503.55,-30.58"/>
<polygon fill="midnightblue" stroke="midnightblue" points="559.95,-65.64 570.4,-67.4 563.33,-59.51 559.95,-65.64"/>
</g>
<!-- Node8 -->
<g id="node8" class="node">
<title>Node8</title>
<g id="a_node8"><a xlink:href="opengl_2mxrenderer_8cpp.html" target="_top" xlink:title=" ">
<polygon fill="none" stroke="black" points="546,-0.5 546,-30.5 646,-30.5 646,-0.5 546,-0.5"/>
<text text-anchor="start" x="554" y="-18.5" font-family="Helvetica,sans-Serif" font-size="10.00">src/renderer/opengl</text>
<text text-anchor="middle" x="596" y="-7.5" font-family="Helvetica,sans-Serif" font-size="10.00">/mxrenderer.cpp</text>
</a>
</g>
</g>
<!-- Node6&#45;&gt;Node8 -->
<g id="edge7" class="edge">
<title>Node6&#45;&gt;Node8</title>
<path fill="none" stroke="midnightblue" d="M596,-57.11C596,-48.15 596,-38.32 596,-30.58"/>
<polygon fill="midnightblue" stroke="midnightblue" points="592.5,-57.4 596,-67.4 599.5,-57.4 592.5,-57.4"/>
</g>
<!-- Node9 -->
<g id="node9" class="node">
<title>Node9</title>
<g id="a_node9"><a xlink:href="mxshaderprogram_8cpp.html" target="_top" xlink:title=" ">
<polygon fill="none" stroke="black" points="664.5,-0.5 664.5,-30.5 779.5,-30.5 779.5,-0.5 664.5,-0.5"/>
<text text-anchor="start" x="672.5" y="-18.5" font-family="Helvetica,sans-Serif" font-size="10.00">src/renderer/opengl</text>
<text text-anchor="middle" x="722" y="-7.5" font-family="Helvetica,sans-Serif" font-size="10.00">/mxshaderprogram.cpp</text>
</a>
</g>
</g>
<!-- Node6&#45;&gt;Node9 -->
<g id="edge8" class="edge">
<title>Node6&#45;&gt;Node9</title>
<path fill="none" stroke="midnightblue" d="M632.42,-62.71C652.29,-52.46 676.48,-39.98 694.71,-30.58"/>
<polygon fill="midnightblue" stroke="midnightblue" points="630.62,-59.7 623.34,-67.4 633.83,-65.92 630.62,-59.7"/>
</g>
</g>
</svg>
