<?xml version="1.0" encoding="UTF-8" standalone="no"?>
<!DOCTYPE svg PUBLIC "-//W3C//DTD SVG 1.1//EN"
 "http://www.w3.org/Graphics/SVG/1.1/DTD/svg11.dtd">
<!-- Generated by graphviz version 2.44.0 ()
 -->
<!-- Title: src/gui/mxbuffer.h Pages: 1 -->
<svg width="1473pt" height="329pt"
 viewBox="0.00 0.00 1472.50 329.00" xmlns="http://www.w3.org/2000/svg" xmlns:xlink="http://www.w3.org/1999/xlink">
<g id="graph0" class="graph" transform="scale(1 1) rotate(0) translate(4 325)">
<title>src/gui/mxbuffer.h</title>
<!-- Node1 -->
<g id="node1" class="node">
<title>Node1</title>
<g id="a_node1"><a xlink:title=" ">
<polygon fill="#bfbfbf" stroke="black" points="730,-301.5 730,-320.5 823,-320.5 823,-301.5 730,-301.5"/>
<text text-anchor="middle" x="776.5" y="-308.5" font-family="Helvetica,sans-Serif" font-size="10.00">src/gui/mxbuffer.h</text>
</a>
</g>
</g>
<!-- Node2 -->
<g id="node2" class="node">
<title>Node2</title>
<g id="a_node2"><a xlink:href="mxbuffer_8cpp.html" target="_top" xlink:title=" ">
<polygon fill="none" stroke="black" points="249.5,-240 249.5,-259 353.5,-259 353.5,-240 249.5,-240"/>
<text text-anchor="middle" x="301.5" y="-247" font-family="Helvetica,sans-Serif" font-size="10.00">src/gui/mxbuffer.cpp</text>
</a>
</g>
</g>
<!-- Node1&#45;&gt;Node2 -->
<g id="edge1" class="edge">
<title>Node1&#45;&gt;Node2</title>
<path fill="none" stroke="midnightblue" d="M719.63,-306.08C639.54,-300.05 489.15,-286.85 362.5,-265 353.17,-263.39 343.13,-261.2 333.95,-259.01"/>
<polygon fill="midnightblue" stroke="midnightblue" points="719.75,-309.6 729.98,-306.85 720.27,-302.62 719.75,-309.6"/>
</g>
<!-- Node3 -->
<g id="node3" class="node">
<title>Node3</title>
<g id="a_node3"><a xlink:href="mxguirenderer_8h.html" target="_top" xlink:title=" ">
<polygon fill="none" stroke="black" points="372,-240 372,-259 489,-259 489,-240 372,-240"/>
<text text-anchor="middle" x="430.5" y="-247" font-family="Helvetica,sans-Serif" font-size="10.00">src/gui/mxguirenderer.h</text>
</a>
</g>
</g>
<!-- Node1&#45;&gt;Node3 -->
<g id="edge2" class="edge">
<title>Node1&#45;&gt;Node3</title>
<path fill="none" stroke="midnightblue" d="M719.81,-301.76C663.33,-293.34 574.2,-279.48 497.5,-265 488.03,-263.21 477.84,-261.1 468.34,-259.06"/>
<polygon fill="midnightblue" stroke="midnightblue" points="719.56,-305.26 729.96,-303.27 720.59,-298.34 719.56,-305.26"/>
</g>
<!-- Node16 -->
<g id="node16" class="node">
<title>Node16</title>
<g id="a_node16"><a xlink:href="mxicondraw_8cpp.html" target="_top" xlink:title=" ">
<polygon fill="none" stroke="black" points="507,-240 507,-259 626,-259 626,-240 507,-240"/>
<text text-anchor="middle" x="566.5" y="-247" font-family="Helvetica,sans-Serif" font-size="10.00">src/gui/mxicondraw.cpp</text>
</a>
</g>
</g>
<!-- Node1&#45;&gt;Node16 -->
<g id="edge16" class="edge">
<title>Node1&#45;&gt;Node16</title>
<path fill="none" stroke="midnightblue" d="M736.53,-298.68C695.73,-287.11 633.31,-269.43 596.53,-259.01"/>
<polygon fill="midnightblue" stroke="midnightblue" points="735.84,-302.12 746.41,-301.48 737.74,-295.38 735.84,-302.12"/>
</g>
<!-- Node17 -->
<g id="node17" class="node">
<title>Node17</title>
<g id="a_node17"><a xlink:href="mxquaddraw_8cpp.html" target="_top" xlink:title=" ">
<polygon fill="none" stroke="black" points="644.5,-240 644.5,-259 766.5,-259 766.5,-240 644.5,-240"/>
<text text-anchor="middle" x="705.5" y="-247" font-family="Helvetica,sans-Serif" font-size="10.00">src/gui/mxquaddraw.cpp</text>
</a>
</g>
</g>
<!-- Node1&#45;&gt;Node17 -->
<g id="edge17" class="edge">
<title>Node1&#45;&gt;Node17</title>
<path fill="none" stroke="midnightblue" d="M758.57,-294.97C744.99,-283.59 726.82,-268.37 715.65,-259.01"/>
<polygon fill="midnightblue" stroke="midnightblue" points="756.41,-297.73 766.33,-301.48 760.91,-292.37 756.41,-297.73"/>
</g>
<!-- Node18 -->
<g id="node18" class="node">
<title>Node18</title>
<g id="a_node18"><a xlink:href="mxvectordraw_8cpp.html" target="_top" xlink:title=" ">
<polygon fill="none" stroke="black" points="784.5,-240 784.5,-259 912.5,-259 912.5,-240 784.5,-240"/>
<text text-anchor="middle" x="848.5" y="-247" font-family="Helvetica,sans-Serif" font-size="10.00">src/gui/mxvectordraw.cpp</text>
</a>
</g>
</g>
<!-- Node1&#45;&gt;Node18 -->
<g id="edge18" class="edge">
<title>Node1&#45;&gt;Node18</title>
<path fill="none" stroke="midnightblue" d="M794.68,-294.97C808.46,-283.59 826.88,-268.37 838.2,-259.01"/>
<polygon fill="midnightblue" stroke="midnightblue" points="792.29,-292.41 786.82,-301.48 796.75,-297.8 792.29,-292.41"/>
</g>
<!-- Node19 -->
<g id="node19" class="node">
<title>Node19</title>
<g id="a_node19"><a xlink:href="direct12_2iconprogram_2mxiconprogram_8cpp.html" target="_top" xlink:title=" ">
<polygon fill="none" stroke="black" points="930.5,-234.5 930.5,-264.5 1090.5,-264.5 1090.5,-234.5 930.5,-234.5"/>
<text text-anchor="start" x="938.5" y="-252.5" font-family="Helvetica,sans-Serif" font-size="10.00">src/renderer/direct12</text>
<text text-anchor="middle" x="1010.5" y="-241.5" font-family="Helvetica,sans-Serif" font-size="10.00">/iconprogram/mxiconprogram.cpp</text>
</a>
</g>
</g>
<!-- Node1&#45;&gt;Node19 -->
<g id="edge19" class="edge">
<title>Node1&#45;&gt;Node19</title>
<path fill="none" stroke="midnightblue" d="M819.83,-298.98C858.05,-289.27 913.95,-275.05 955.35,-264.52"/>
<polygon fill="midnightblue" stroke="midnightblue" points="818.86,-295.62 810.03,-301.48 820.58,-302.4 818.86,-295.62"/>
</g>
<!-- Node20 -->
<g id="node20" class="node">
<title>Node20</title>
<g id="a_node20"><a xlink:href="opengl_2iconprogram_2mxiconprogram_8cpp.html" target="_top" xlink:title=" ">
<polygon fill="none" stroke="black" points="1108.5,-234.5 1108.5,-264.5 1268.5,-264.5 1268.5,-234.5 1108.5,-234.5"/>
<text text-anchor="start" x="1116.5" y="-252.5" font-family="Helvetica,sans-Serif" font-size="10.00">src/renderer/opengl</text>
<text text-anchor="middle" x="1188.5" y="-241.5" font-family="Helvetica,sans-Serif" font-size="10.00">/iconprogram/mxiconprogram.cpp</text>
</a>
</g>
</g>
<!-- Node1&#45;&gt;Node20 -->
<g id="edge20" class="edge">
<title>Node1&#45;&gt;Node20</title>
<path fill="none" stroke="midnightblue" d="M833.05,-302.52C897.58,-293.9 1006.24,-279.09 1099.5,-265 1102.44,-264.56 1105.44,-264.1 1108.46,-263.63"/>
<polygon fill="midnightblue" stroke="midnightblue" points="832.53,-299.06 823.08,-303.85 833.46,-306 832.53,-299.06"/>
</g>
<!-- Node21 -->
<g id="node21" class="node">
<title>Node21</title>
<g id="a_node21"><a xlink:href="opengl_2vectorprogram_2mxvectorprogram_8cpp.html" target="_top" xlink:title=" ">
<polygon fill="none" stroke="black" points="1286.5,-234.5 1286.5,-264.5 1464.5,-264.5 1464.5,-234.5 1286.5,-234.5"/>
<text text-anchor="start" x="1294.5" y="-252.5" font-family="Helvetica,sans-Serif" font-size="10.00">src/renderer/opengl</text>
<text text-anchor="middle" x="1375.5" y="-241.5" font-family="Helvetica,sans-Serif" font-size="10.00">/vectorprogram/mxvectorprogram.cpp</text>
</a>
</g>
</g>
<!-- Node1&#45;&gt;Node21 -->
<g id="edge21" class="edge">
<title>Node1&#45;&gt;Node21</title>
<path fill="none" stroke="midnightblue" d="M833.26,-305.97C926.25,-299.12 1116.81,-284.09 1277.5,-265 1280.4,-264.66 1283.35,-264.29 1286.33,-263.91"/>
<polygon fill="midnightblue" stroke="midnightblue" points="832.93,-302.48 823.22,-306.7 833.44,-309.46 832.93,-302.48"/>
</g>
<!-- Node4 -->
<g id="node4" class="node">
<title>Node4</title>
<g id="a_node4"><a xlink:href="mxapplication_8h.html" target="_top" xlink:title=" ">
<polygon fill="none" stroke="black" points="148.5,-167.5 148.5,-186.5 280.5,-186.5 280.5,-167.5 148.5,-167.5"/>
<text text-anchor="middle" x="214.5" y="-174.5" font-family="Helvetica,sans-Serif" font-size="10.00">src/events/mxapplication.h</text>
</a>
</g>
</g>
<!-- Node3&#45;&gt;Node4 -->
<g id="edge3" class="edge">
<title>Node3&#45;&gt;Node4</title>
<path fill="none" stroke="midnightblue" d="M394.86,-236.87C351.47,-222.71 279.22,-199.12 240.65,-186.53"/>
<polygon fill="midnightblue" stroke="midnightblue" points="393.85,-240.22 404.45,-240 396.02,-233.57 393.85,-240.22"/>
</g>
<!-- Node11 -->
<g id="node11" class="node">
<title>Node11</title>
<g id="a_node11"><a xlink:href="mxguirenderer_8cpp.html" target="_top" xlink:title=" ">
<polygon fill="none" stroke="black" points="298.5,-167.5 298.5,-186.5 426.5,-186.5 426.5,-167.5 298.5,-167.5"/>
<text text-anchor="middle" x="362.5" y="-174.5" font-family="Helvetica,sans-Serif" font-size="10.00">src/gui/mxguirenderer.cpp</text>
</a>
</g>
</g>
<!-- Node3&#45;&gt;Node11 -->
<g id="edge11" class="edge">
<title>Node3&#45;&gt;Node11</title>
<path fill="none" stroke="midnightblue" d="M414.87,-232.3C401.19,-218.12 381.85,-198.06 370.91,-186.72"/>
<polygon fill="midnightblue" stroke="midnightblue" points="412.7,-235.09 422.16,-239.86 417.74,-230.23 412.7,-235.09"/>
</g>
<!-- Node12 -->
<g id="node12" class="node">
<title>Node12</title>
<g id="a_node12"><a xlink:href="mxpainter_8cpp.html" target="_top" xlink:title=" ">
<polygon fill="none" stroke="black" points="445,-167.5 445,-186.5 554,-186.5 554,-167.5 445,-167.5"/>
<text text-anchor="middle" x="499.5" y="-174.5" font-family="Helvetica,sans-Serif" font-size="10.00">src/gui/mxpainter.cpp</text>
</a>
</g>
</g>
<!-- Node3&#45;&gt;Node12 -->
<g id="edge12" class="edge">
<title>Node3&#45;&gt;Node12</title>
<path fill="none" stroke="midnightblue" d="M445.97,-232.69C459.87,-218.49 479.76,-198.17 490.97,-186.72"/>
<polygon fill="midnightblue" stroke="midnightblue" points="443.45,-230.26 438.96,-239.86 448.46,-235.16 443.45,-230.26"/>
</g>
<!-- Node13 -->
<g id="node13" class="node">
<title>Node13</title>
<g id="a_node13"><a xlink:href="testwindow_8h.html" target="_top" xlink:title=" ">
<polygon fill="none" stroke="black" points="572.5,-156.5 572.5,-197.5 700.5,-197.5 700.5,-156.5 572.5,-156.5"/>
<text text-anchor="start" x="580.5" y="-185.5" font-family="Helvetica,sans-Serif" font-size="10.00">src/renderer/opengl</text>
<text text-anchor="start" x="580.5" y="-174.5" font-family="Helvetica,sans-Serif" font-size="10.00">/colorwheelprogram/test</text>
<text text-anchor="middle" x="636.5" y="-163.5" font-family="Helvetica,sans-Serif" font-size="10.00">_colorwheel/testwindow.h</text>
</a>
</g>
</g>
<!-- Node3&#45;&gt;Node13 -->
<g id="edge13" class="edge">
<title>Node3&#45;&gt;Node13</title>
<path fill="none" stroke="midnightblue" d="M464.89,-236.73C496.02,-226.08 542.5,-210.17 579.23,-197.6"/>
<polygon fill="midnightblue" stroke="midnightblue" points="463.68,-233.45 455.35,-240 465.94,-240.07 463.68,-233.45"/>
</g>
<!-- Node5 -->
<g id="node5" class="node">
<title>Node5</title>
<g id="a_node5"><a xlink:href="mxapplication_8cpp.html" target="_top" xlink:title=" ">
<polygon fill="none" stroke="black" points="0,-89.5 0,-108.5 143,-108.5 143,-89.5 0,-89.5"/>
<text text-anchor="middle" x="71.5" y="-96.5" font-family="Helvetica,sans-Serif" font-size="10.00">src/events/mxapplication.cpp</text>
</a>
</g>
</g>
<!-- Node4&#45;&gt;Node5 -->
<g id="edge4" class="edge">
<title>Node4&#45;&gt;Node5</title>
<path fill="none" stroke="midnightblue" d="M189.2,-162.55C159.91,-146.99 112.56,-121.82 87.79,-108.66"/>
<polygon fill="midnightblue" stroke="midnightblue" points="187.9,-165.83 198.37,-167.43 191.19,-159.65 187.9,-165.83"/>
</g>
<!-- Node6 -->
<g id="node6" class="node">
<title>Node6</title>
<g id="a_node6"><a xlink:href="qmewawindow_8cpp.html" target="_top" xlink:title=" ">
<polygon fill="none" stroke="black" points="156.5,-6 156.5,-36 272.5,-36 272.5,-6 156.5,-6"/>
<text text-anchor="start" x="164.5" y="-24" font-family="Helvetica,sans-Serif" font-size="10.00">src/platformabstraction</text>
<text text-anchor="middle" x="214.5" y="-13" font-family="Helvetica,sans-Serif" font-size="10.00">/qt/qmewawindow.cpp</text>
</a>
</g>
</g>
<!-- Node4&#45;&gt;Node6 -->
<g id="edge5" class="edge">
<title>Node4&#45;&gt;Node6</title>
<path fill="none" stroke="midnightblue" d="M204.64,-158.15C199.3,-147.44 193.24,-133.35 190.5,-120 186.75,-101.71 186.75,-96.29 190.5,-78 193.56,-63.08 200.77,-47.23 206.5,-36.21"/>
<polygon fill="midnightblue" stroke="midnightblue" points="201.67,-160.02 209.42,-167.25 207.87,-156.77 201.67,-160.02"/>
</g>
<!-- Node7 -->
<g id="node7" class="node">
<title>Node7</title>
<g id="a_node7"><a xlink:href="qmewawindow_8h.html" target="_top" xlink:title=" ">
<polygon fill="none" stroke="black" points="199.5,-84 199.5,-114 315.5,-114 315.5,-84 199.5,-84"/>
<text text-anchor="start" x="207.5" y="-102" font-family="Helvetica,sans-Serif" font-size="10.00">src/platformabstraction</text>
<text text-anchor="middle" x="257.5" y="-91" font-family="Helvetica,sans-Serif" font-size="10.00">/qt/qmewawindow.h</text>
</a>
</g>
</g>
<!-- Node4&#45;&gt;Node7 -->
<g id="edge6" class="edge">
<title>Node4&#45;&gt;Node7</title>
<path fill="none" stroke="midnightblue" d="M224.42,-158.47C232.06,-144.97 242.48,-126.55 249.57,-114.02"/>
<polygon fill="midnightblue" stroke="midnightblue" points="221.31,-156.85 219.43,-167.28 227.4,-160.3 221.31,-156.85"/>
</g>
<!-- Node8 -->
<g id="node8" class="node">
<title>Node8</title>
<g id="a_node8"><a xlink:href="randomtextureapp_8h.html" target="_top" xlink:title=" ">
<polygon fill="none" stroke="black" points="333,-78.5 333,-119.5 492,-119.5 492,-78.5 333,-78.5"/>
<text text-anchor="start" x="341" y="-107.5" font-family="Helvetica,sans-Serif" font-size="10.00">src/renderer/direct12</text>
<text text-anchor="start" x="341" y="-96.5" font-family="Helvetica,sans-Serif" font-size="10.00">/iconprogram/test_randomtexture</text>
<text text-anchor="middle" x="412.5" y="-85.5" font-family="Helvetica,sans-Serif" font-size="10.00">/randomtextureapp.h</text>
</a>
</g>
</g>
<!-- Node4&#45;&gt;Node8 -->
<g id="edge8" class="edge">
<title>Node4&#45;&gt;Node8</title>
<path fill="none" stroke="midnightblue" d="M246.29,-163.8C277.34,-151.88 325.1,-133.55 361.47,-119.59"/>
<polygon fill="midnightblue" stroke="midnightblue" points="244.91,-160.58 236.83,-167.43 247.42,-167.11 244.91,-160.58"/>
</g>
<!-- Node7&#45;&gt;Node6 -->
<g id="edge7" class="edge">
<title>Node7&#45;&gt;Node6</title>
<path fill="none" stroke="midnightblue" d="M244.32,-74.7C237.21,-62.14 228.67,-47.04 222.55,-36.23"/>
<polygon fill="midnightblue" stroke="midnightblue" points="241.44,-76.73 249.41,-83.7 247.53,-73.28 241.44,-76.73"/>
</g>
<!-- Node9 -->
<g id="node9" class="node">
<title>Node9</title>
<g id="a_node9"><a xlink:href="direct12_2iconprogram_2test__randomtexture_2main_8cpp.html" target="_top" xlink:title=" ">
<polygon fill="none" stroke="black" points="311,-0.5 311,-41.5 470,-41.5 470,-0.5 311,-0.5"/>
<text text-anchor="start" x="319" y="-29.5" font-family="Helvetica,sans-Serif" font-size="10.00">src/renderer/direct12</text>
<text text-anchor="start" x="319" y="-18.5" font-family="Helvetica,sans-Serif" font-size="10.00">/iconprogram/test_randomtexture</text>
<text text-anchor="middle" x="390.5" y="-7.5" font-family="Helvetica,sans-Serif" font-size="10.00">/main.cpp</text>
</a>
</g>
</g>
<!-- Node8&#45;&gt;Node9 -->
<g id="edge9" class="edge">
<title>Node8&#45;&gt;Node9</title>
<path fill="none" stroke="midnightblue" d="M403.99,-68.59C401.36,-59.51 398.53,-49.74 396.15,-41.51"/>
<polygon fill="midnightblue" stroke="midnightblue" points="400.69,-69.8 406.83,-78.43 407.42,-67.85 400.69,-69.8"/>
</g>
<!-- Node10 -->
<g id="node10" class="node">
<title>Node10</title>
<g id="a_node10"><a xlink:href="randomtextureapp_8cpp.html" target="_top" xlink:title=" ">
<polygon fill="none" stroke="black" points="488,-0.5 488,-41.5 647,-41.5 647,-0.5 488,-0.5"/>
<text text-anchor="start" x="496" y="-29.5" font-family="Helvetica,sans-Serif" font-size="10.00">src/renderer/direct12</text>
<text text-anchor="start" x="496" y="-18.5" font-family="Helvetica,sans-Serif" font-size="10.00">/iconprogram/test_randomtexture</text>
<text text-anchor="middle" x="567.5" y="-7.5" font-family="Helvetica,sans-Serif" font-size="10.00">/randomtextureapp.cpp</text>
</a>
</g>
</g>
<!-- Node8&#45;&gt;Node10 -->
<g id="edge10" class="edge">
<title>Node8&#45;&gt;Node10</title>
<path fill="none" stroke="midnightblue" d="M461.63,-73.91C482.95,-63.46 507.58,-51.38 527.72,-41.51"/>
<polygon fill="midnightblue" stroke="midnightblue" points="459.85,-70.88 452.42,-78.43 462.94,-77.17 459.85,-70.88"/>
</g>
<!-- Node14 -->
<g id="node14" class="node">
<title>Node14</title>
<g id="a_node14"><a xlink:href="opengl_2colorwheelprogram_2test__colorwheel_2main_8cpp.html" target="_top" xlink:title=" ">
<polygon fill="none" stroke="black" points="543,-78.5 543,-119.5 664,-119.5 664,-78.5 543,-78.5"/>
<text text-anchor="start" x="551" y="-107.5" font-family="Helvetica,sans-Serif" font-size="10.00">src/renderer/opengl</text>
<text text-anchor="start" x="551" y="-96.5" font-family="Helvetica,sans-Serif" font-size="10.00">/colorwheelprogram/test</text>
<text text-anchor="middle" x="603.5" y="-85.5" font-family="Helvetica,sans-Serif" font-size="10.00">_colorwheel/main.cpp</text>
</a>
</g>
</g>
<!-- Node13&#45;&gt;Node14 -->
<g id="edge14" class="edge">
<title>Node13&#45;&gt;Node14</title>
<path fill="none" stroke="midnightblue" d="M623.98,-147.17C619.97,-137.93 615.62,-127.92 611.97,-119.51"/>
<polygon fill="midnightblue" stroke="midnightblue" points="620.81,-148.65 628,-156.43 627.23,-145.86 620.81,-148.65"/>
</g>
<!-- Node15 -->
<g id="node15" class="node">
<title>Node15</title>
<g id="a_node15"><a xlink:href="testwindow_8cpp.html" target="_top" xlink:title=" ">
<polygon fill="none" stroke="black" points="682,-78.5 682,-119.5 821,-119.5 821,-78.5 682,-78.5"/>
<text text-anchor="start" x="690" y="-107.5" font-family="Helvetica,sans-Serif" font-size="10.00">src/renderer/opengl</text>
<text text-anchor="start" x="690" y="-96.5" font-family="Helvetica,sans-Serif" font-size="10.00">/colorwheelprogram/test</text>
<text text-anchor="middle" x="751.5" y="-85.5" font-family="Helvetica,sans-Serif" font-size="10.00">_colorwheel/testwindow.cpp</text>
</a>
</g>
</g>
<!-- Node13&#45;&gt;Node15 -->
<g id="edge15" class="edge">
<title>Node13&#45;&gt;Node15</title>
<path fill="none" stroke="midnightblue" d="M674.88,-150.64C690.24,-140.49 707.65,-128.98 721.99,-119.51"/>
<polygon fill="midnightblue" stroke="midnightblue" points="672.53,-147.99 666.12,-156.43 676.39,-153.83 672.53,-147.99"/>
</g>
</g>
</svg>
