<?xml version="1.0" encoding="UTF-8" standalone="no"?>
<!DOCTYPE svg PUBLIC "-//W3C//DTD SVG 1.1//EN"
 "http://www.w3.org/Graphics/SVG/1.1/DTD/svg11.dtd">
<!-- Generated by graphviz version 2.44.0 ()
 -->
<!-- Title: src/containers/mxbytearrayref.h Pages: 1 -->
<svg width="417pt" height="196pt"
 viewBox="0.00 0.00 417.00 196.00" xmlns="http://www.w3.org/2000/svg" xmlns:xlink="http://www.w3.org/1999/xlink">
<g id="graph0" class="graph" transform="scale(1 1) rotate(0) translate(4 192)">
<title>src/containers/mxbytearrayref.h</title>
<!-- Node1 -->
<g id="node1" class="node">
<title>Node1</title>
<g id="a_node1"><a xlink:title=" ">
<polygon fill="#bfbfbf" stroke="black" points="94,-168.5 94,-187.5 246,-187.5 246,-168.5 94,-168.5"/>
<text text-anchor="middle" x="170" y="-175.5" font-family="Helvetica,sans-Serif" font-size="10.00">src/containers/mxbytearrayref.h</text>
</a>
</g>
</g>
<!-- Node2 -->
<g id="node2" class="node">
<title>Node2</title>
<g id="a_node2"><a xlink:href="mxbytearrayref_8cpp.html" target="_top" xlink:title=" ">
<polygon fill="none" stroke="black" points="0,-112.5 0,-131.5 162,-131.5 162,-112.5 0,-112.5"/>
<text text-anchor="middle" x="81" y="-119.5" font-family="Helvetica,sans-Serif" font-size="10.00">src/containers/mxbytearrayref.cpp</text>
</a>
</g>
</g>
<!-- Node1&#45;&gt;Node2 -->
<g id="edge1" class="edge">
<title>Node1&#45;&gt;Node2</title>
<path fill="none" stroke="midnightblue" d="M146.76,-162.9C130.44,-153 109.13,-140.07 95.26,-131.65"/>
<polygon fill="midnightblue" stroke="midnightblue" points="145.34,-166.13 155.7,-168.32 148.97,-160.14 145.34,-166.13"/>
</g>
<!-- Node3 -->
<g id="node3" class="node">
<title>Node3</title>
<g id="a_node3"><a xlink:href="mxgenericstring_8h.html" target="_top" xlink:title=" ">
<polygon fill="none" stroke="black" points="180.5,-112.5 180.5,-131.5 337.5,-131.5 337.5,-112.5 180.5,-112.5"/>
<text text-anchor="middle" x="259" y="-119.5" font-family="Helvetica,sans-Serif" font-size="10.00">src/containers/mxgenericstring.h</text>
</a>
</g>
</g>
<!-- Node1&#45;&gt;Node3 -->
<g id="edge2" class="edge">
<title>Node1&#45;&gt;Node3</title>
<path fill="none" stroke="midnightblue" d="M193.24,-162.9C209.56,-153 230.87,-140.07 244.74,-131.65"/>
<polygon fill="midnightblue" stroke="midnightblue" points="191.03,-160.14 184.3,-168.32 194.66,-166.13 191.03,-160.14"/>
</g>
<!-- Node4 -->
<g id="node4" class="node">
<title>Node4</title>
<g id="a_node4"><a xlink:href="mxgenericstring_8cpp.html" target="_top" xlink:title=" ">
<polygon fill="none" stroke="black" points="93.5,-56.5 93.5,-75.5 260.5,-75.5 260.5,-56.5 93.5,-56.5"/>
<text text-anchor="middle" x="177" y="-63.5" font-family="Helvetica,sans-Serif" font-size="10.00">src/containers/mxgenericstring.cpp</text>
</a>
</g>
</g>
<!-- Node3&#45;&gt;Node4 -->
<g id="edge3" class="edge">
<title>Node3&#45;&gt;Node4</title>
<path fill="none" stroke="midnightblue" d="M237.17,-106.62C222.19,-96.76 202.8,-83.99 190.14,-75.65"/>
<polygon fill="midnightblue" stroke="midnightblue" points="235.55,-109.75 245.83,-112.32 239.4,-103.9 235.55,-109.75"/>
</g>
<!-- Node5 -->
<g id="node5" class="node">
<title>Node5</title>
<g id="a_node5"><a xlink:href="mxstring_8h.html" target="_top" xlink:title=" ">
<polygon fill="none" stroke="black" points="278.5,-56.5 278.5,-75.5 403.5,-75.5 403.5,-56.5 278.5,-56.5"/>
<text text-anchor="middle" x="341" y="-63.5" font-family="Helvetica,sans-Serif" font-size="10.00">src/containers/mxstring.h</text>
</a>
</g>
</g>
<!-- Node3&#45;&gt;Node5 -->
<g id="edge4" class="edge">
<title>Node3&#45;&gt;Node5</title>
<path fill="none" stroke="midnightblue" d="M280.83,-106.62C295.81,-96.76 315.2,-83.99 327.86,-75.65"/>
<polygon fill="midnightblue" stroke="midnightblue" points="278.6,-103.9 272.17,-112.32 282.45,-109.75 278.6,-103.9"/>
</g>
<!-- Node6 -->
<g id="node6" class="node">
<title>Node6</title>
<g id="a_node6"><a xlink:href="mxstring_8cpp.html" target="_top" xlink:title=" ">
<polygon fill="none" stroke="black" points="273,-0.5 273,-19.5 409,-19.5 409,-0.5 273,-0.5"/>
<text text-anchor="middle" x="341" y="-7.5" font-family="Helvetica,sans-Serif" font-size="10.00">src/containers/mxstring.cpp</text>
</a>
</g>
</g>
<!-- Node5&#45;&gt;Node6 -->
<g id="edge5" class="edge">
<title>Node5&#45;&gt;Node6</title>
<path fill="none" stroke="midnightblue" d="M341,-45.8C341,-36.91 341,-26.78 341,-19.75"/>
<polygon fill="midnightblue" stroke="midnightblue" points="337.5,-46.08 341,-56.08 344.5,-46.08 337.5,-46.08"/>
</g>
</g>
</svg>
