<?xml version="1.0" encoding="UTF-8" standalone="no"?>
<!DOCTYPE svg PUBLIC "-//W3C//DTD SVG 1.1//EN"
 "http://www.w3.org/Graphics/SVG/1.1/DTD/svg11.dtd">
<!-- Generated by graphviz version 2.44.0 ()
 -->
<!-- Title: src/containers/mxbytearrayref.cpp Pages: 1 -->
<svg width="203pt" height="140pt"
 viewBox="0.00 0.00 202.50 140.00" xmlns="http://www.w3.org/2000/svg" xmlns:xlink="http://www.w3.org/1999/xlink">
<g id="graph0" class="graph" transform="scale(1 1) rotate(0) translate(4 136)">
<title>src/containers/mxbytearrayref.cpp</title>
<!-- Node1 -->
<g id="node1" class="node">
<title>Node1</title>
<g id="a_node1"><a xlink:title=" ">
<polygon fill="#bfbfbf" stroke="black" points="23.5,-112.5 23.5,-131.5 185.5,-131.5 185.5,-112.5 23.5,-112.5"/>
<text text-anchor="middle" x="104.5" y="-119.5" font-family="Helvetica,sans-Serif" font-size="10.00">src/containers/mxbytearrayref.cpp</text>
</a>
</g>
</g>
<!-- Node2 -->
<g id="node2" class="node">
<title>Node2</title>
<g id="a_node2"><a xlink:href="mxbytearrayref_8h.html" target="_top" xlink:title=" ">
<polygon fill="none" stroke="black" points="61,-56.5 61,-75.5 148,-75.5 148,-56.5 61,-56.5"/>
<text text-anchor="middle" x="104.5" y="-63.5" font-family="Helvetica,sans-Serif" font-size="10.00">mxbytearrayref.h</text>
</a>
</g>
</g>
<!-- Node1&#45;&gt;Node2 -->
<g id="edge1" class="edge">
<title>Node1&#45;&gt;Node2</title>
<path fill="none" stroke="midnightblue" d="M104.5,-112.08C104.5,-105.01 104.5,-94.86 104.5,-85.99"/>
<polygon fill="midnightblue" stroke="midnightblue" points="108,-85.75 104.5,-75.75 101,-85.75 108,-85.75"/>
</g>
<!-- Node3 -->
<g id="node3" class="node">
<title>Node3</title>
<g id="a_node3"><a xlink:title=" ">
<polygon fill="none" stroke="#bfbfbf" points="0,-0.5 0,-19.5 63,-19.5 63,-0.5 0,-0.5"/>
<text text-anchor="middle" x="31.5" y="-7.5" font-family="Helvetica,sans-Serif" font-size="10.00">mxdebug.h</text>
</a>
</g>
</g>
<!-- Node2&#45;&gt;Node3 -->
<g id="edge2" class="edge">
<title>Node2&#45;&gt;Node3</title>
<path fill="none" stroke="midnightblue" d="M92.77,-56.32C81.66,-48.11 64.76,-35.6 51.52,-25.81"/>
<polygon fill="midnightblue" stroke="midnightblue" points="53.56,-22.97 43.44,-19.83 49.4,-28.59 53.56,-22.97"/>
</g>
<!-- Node4 -->
<g id="node4" class="node">
<title>Node4</title>
<g id="a_node4"><a xlink:title=" ">
<polygon fill="none" stroke="#bfbfbf" points="81,-0.5 81,-19.5 128,-19.5 128,-0.5 81,-0.5"/>
<text text-anchor="middle" x="104.5" y="-7.5" font-family="Helvetica,sans-Serif" font-size="10.00">stdlib.h</text>
</a>
</g>
</g>
<!-- Node2&#45;&gt;Node4 -->
<g id="edge3" class="edge">
<title>Node2&#45;&gt;Node4</title>
<path fill="none" stroke="midnightblue" d="M104.5,-56.08C104.5,-49.01 104.5,-38.86 104.5,-29.99"/>
<polygon fill="midnightblue" stroke="midnightblue" points="108,-29.75 104.5,-19.75 101,-29.75 108,-29.75"/>
</g>
<!-- Node5 -->
<g id="node5" class="node">
<title>Node5</title>
<g id="a_node5"><a xlink:title=" ">
<polygon fill="none" stroke="#bfbfbf" points="146.5,-0.5 146.5,-19.5 194.5,-19.5 194.5,-0.5 146.5,-0.5"/>
<text text-anchor="middle" x="170.5" y="-7.5" font-family="Helvetica,sans-Serif" font-size="10.00">string.h</text>
</a>
</g>
</g>
<!-- Node2&#45;&gt;Node5 -->
<g id="edge4" class="edge">
<title>Node2&#45;&gt;Node5</title>
<path fill="none" stroke="midnightblue" d="M115.1,-56.32C124.96,-48.26 139.85,-36.08 151.72,-26.37"/>
<polygon fill="midnightblue" stroke="midnightblue" points="154.18,-28.88 159.7,-19.83 149.75,-23.46 154.18,-28.88"/>
</g>
</g>
</svg>
