<?xml version="1.0" encoding="UTF-8" standalone="no"?>
<!DOCTYPE svg PUBLIC "-//W3C//DTD SVG 1.1//EN"
 "http://www.w3.org/Graphics/SVG/1.1/DTD/svg11.dtd">
<!-- Generated by graphviz version 2.44.0 ()
 -->
<!-- Title: src/renderer/opengl/mxcachedgpuarray.h Pages: 1 -->
<svg width="1627pt" height="441pt"
 viewBox="0.00 0.00 1627.00 441.00" xmlns="http://www.w3.org/2000/svg" xmlns:xlink="http://www.w3.org/1999/xlink">
<g id="graph0" class="graph" transform="scale(1 1) rotate(0) translate(4 437)">
<title>src/renderer/opengl/mxcachedgpuarray.h</title>
<!-- Node1 -->
<g id="node1" class="node">
<title>Node1</title>
<g id="a_node1"><a xlink:title=" ">
<polygon fill="#bfbfbf" stroke="black" points="375,-402.5 375,-432.5 483,-432.5 483,-402.5 375,-402.5"/>
<text text-anchor="start" x="383" y="-420.5" font-family="Helvetica,sans-Serif" font-size="10.00">src/renderer/opengl</text>
<text text-anchor="middle" x="429" y="-409.5" font-family="Helvetica,sans-Serif" font-size="10.00">/mxcachedgpuarray.h</text>
</a>
</g>
</g>
<!-- Node2 -->
<g id="node2" class="node">
<title>Node2</title>
<g id="a_node2"><a xlink:href="mxtextdraw_8cpp.html" target="_top" xlink:title=" ">
<polygon fill="none" stroke="black" points="33,-341 33,-360 189,-360 189,-341 33,-341"/>
<text text-anchor="middle" x="111" y="-348" font-family="Helvetica,sans-Serif" font-size="10.00">src/gui/textdraw/mxtextdraw.cpp</text>
</a>
</g>
</g>
<!-- Node1&#45;&gt;Node2 -->
<g id="edge1" class="edge">
<title>Node1&#45;&gt;Node2</title>
<path fill="none" stroke="midnightblue" d="M364.84,-403.38C301.65,-390.47 206.99,-371.12 152.9,-360.06"/>
<polygon fill="midnightblue" stroke="midnightblue" points="364.2,-406.83 374.7,-405.4 365.6,-399.97 364.2,-406.83"/>
</g>
<!-- Node3 -->
<g id="node3" class="node">
<title>Node3</title>
<g id="a_node3"><a xlink:href="mxquaddraw_8h.html" target="_top" xlink:title=" ">
<polygon fill="none" stroke="black" points="1260,-335.5 1260,-365.5 1384,-365.5 1384,-335.5 1260,-335.5"/>
<text text-anchor="start" x="1268" y="-353.5" font-family="Helvetica,sans-Serif" font-size="10.00">src/renderer/opengl</text>
<text text-anchor="middle" x="1322" y="-342.5" font-family="Helvetica,sans-Serif" font-size="10.00">/icondraw/mxquaddraw.h</text>
</a>
</g>
</g>
<!-- Node1&#45;&gt;Node3 -->
<g id="edge2" class="edge">
<title>Node1&#45;&gt;Node3</title>
<path fill="none" stroke="midnightblue" d="M493.2,-411.83C658.49,-399.8 1097.1,-367.87 1259.97,-356.01"/>
<polygon fill="midnightblue" stroke="midnightblue" points="492.9,-408.34 483.18,-412.56 493.41,-415.32 492.9,-408.34"/>
</g>
<!-- Node14 -->
<g id="node14" class="node">
<title>Node14</title>
<g id="a_node14"><a xlink:href="mxcachedgpuarray_8cpp.html" target="_top" xlink:title=" ">
<polygon fill="none" stroke="black" points="369.5,-134.5 369.5,-164.5 488.5,-164.5 488.5,-134.5 369.5,-134.5"/>
<text text-anchor="start" x="377.5" y="-152.5" font-family="Helvetica,sans-Serif" font-size="10.00">src/renderer/opengl</text>
<text text-anchor="middle" x="429" y="-141.5" font-family="Helvetica,sans-Serif" font-size="10.00">/mxcachedgpuarray.cpp</text>
</a>
</g>
</g>
<!-- Node1&#45;&gt;Node14 -->
<g id="edge14" class="edge">
<title>Node1&#45;&gt;Node14</title>
<path fill="none" stroke="midnightblue" d="M429,-392.07C429,-337.57 429,-207.52 429,-164.55"/>
<polygon fill="midnightblue" stroke="midnightblue" points="425.5,-392.2 429,-402.2 432.5,-392.2 425.5,-392.2"/>
</g>
<!-- Node15 -->
<g id="node15" class="node">
<title>Node15</title>
<g id="a_node15"><a xlink:href="opengl_2mxrenderer_8h.html" target="_top" xlink:title=" ">
<polygon fill="none" stroke="black" points="119,-201.5 119,-231.5 219,-231.5 219,-201.5 119,-201.5"/>
<text text-anchor="start" x="127" y="-219.5" font-family="Helvetica,sans-Serif" font-size="10.00">src/renderer/opengl</text>
<text text-anchor="middle" x="169" y="-208.5" font-family="Helvetica,sans-Serif" font-size="10.00">/mxrenderer.h</text>
</a>
</g>
</g>
<!-- Node1&#45;&gt;Node15 -->
<g id="edge15" class="edge">
<title>Node1&#45;&gt;Node15</title>
<path fill="none" stroke="midnightblue" d="M390.08,-397.77C349.18,-377.01 284.24,-340.86 236,-299 212.35,-278.47 190.4,-249 178.43,-231.7"/>
<polygon fill="midnightblue" stroke="midnightblue" points="388.67,-400.98 399.17,-402.34 391.81,-394.72 388.67,-400.98"/>
</g>
<!-- Node19 -->
<g id="node19" class="node">
<title>Node19</title>
<g id="a_node19"><a xlink:href="mxvectordraw_8h.html" target="_top" xlink:title=" ">
<polygon fill="none" stroke="black" points="510.5,-335.5 510.5,-365.5 649.5,-365.5 649.5,-335.5 510.5,-335.5"/>
<text text-anchor="start" x="518.5" y="-353.5" font-family="Helvetica,sans-Serif" font-size="10.00">src/renderer/opengl</text>
<text text-anchor="middle" x="580" y="-342.5" font-family="Helvetica,sans-Serif" font-size="10.00">/vectordraw/mxvectordraw.h</text>
</a>
</g>
</g>
<!-- Node1&#45;&gt;Node19 -->
<g id="edge20" class="edge">
<title>Node1&#45;&gt;Node19</title>
<path fill="none" stroke="midnightblue" d="M471.03,-398.41C495.14,-388.03 524.95,-375.2 547.3,-365.58"/>
<polygon fill="midnightblue" stroke="midnightblue" points="469.57,-395.23 461.76,-402.4 472.33,-401.66 469.57,-395.23"/>
</g>
<!-- Node4 -->
<g id="node4" class="node">
<title>Node4</title>
<g id="a_node4"><a xlink:href="mxicondraw_8h.html" target="_top" xlink:title=" ">
<polygon fill="none" stroke="black" points="1261.5,-268.5 1261.5,-298.5 1382.5,-298.5 1382.5,-268.5 1261.5,-268.5"/>
<text text-anchor="start" x="1269.5" y="-286.5" font-family="Helvetica,sans-Serif" font-size="10.00">src/renderer/opengl</text>
<text text-anchor="middle" x="1322" y="-275.5" font-family="Helvetica,sans-Serif" font-size="10.00">/icondraw/mxicondraw.h</text>
</a>
</g>
</g>
<!-- Node3&#45;&gt;Node4 -->
<g id="edge3" class="edge">
<title>Node3&#45;&gt;Node4</title>
<path fill="none" stroke="midnightblue" d="M1322,-325.11C1322,-316.15 1322,-306.32 1322,-298.58"/>
<polygon fill="midnightblue" stroke="midnightblue" points="1318.5,-325.4 1322,-335.4 1325.5,-325.4 1318.5,-325.4"/>
</g>
<!-- Node13 -->
<g id="node13" class="node">
<title>Node13</title>
<g id="a_node13"><a xlink:href="mxquaddraw_8cpp.html" target="_top" xlink:title=" ">
<polygon fill="none" stroke="black" points="1401,-268.5 1401,-298.5 1535,-298.5 1535,-268.5 1401,-268.5"/>
<text text-anchor="start" x="1409" y="-286.5" font-family="Helvetica,sans-Serif" font-size="10.00">src/renderer/opengl</text>
<text text-anchor="middle" x="1468" y="-275.5" font-family="Helvetica,sans-Serif" font-size="10.00">/icondraw/mxquaddraw.cpp</text>
</a>
</g>
</g>
<!-- Node3&#45;&gt;Node13 -->
<g id="edge13" class="edge">
<title>Node3&#45;&gt;Node13</title>
<path fill="none" stroke="midnightblue" d="M1362.95,-331.27C1386.2,-320.92 1414.87,-308.15 1436.38,-298.58"/>
<polygon fill="midnightblue" stroke="midnightblue" points="1361.39,-328.13 1353.68,-335.4 1364.24,-334.53 1361.39,-328.13"/>
</g>
<!-- Node5 -->
<g id="node5" class="node">
<title>Node5</title>
<g id="a_node5"><a xlink:href="mxpainter_8h.html" target="_top" xlink:title=" ">
<polygon fill="none" stroke="black" points="1207,-207 1207,-226 1305,-226 1305,-207 1207,-207"/>
<text text-anchor="middle" x="1256" y="-214" font-family="Helvetica,sans-Serif" font-size="10.00">src/gui/mxpainter.h</text>
</a>
</g>
</g>
<!-- Node4&#45;&gt;Node5 -->
<g id="edge4" class="edge">
<title>Node4&#45;&gt;Node5</title>
<path fill="none" stroke="midnightblue" d="M1300.51,-261.34C1288.39,-249.4 1273.91,-235.14 1264.83,-226.19"/>
<polygon fill="midnightblue" stroke="midnightblue" points="1298.1,-263.87 1307.68,-268.4 1303.01,-258.89 1298.1,-263.87"/>
</g>
<!-- Node11 -->
<g id="node11" class="node">
<title>Node11</title>
<g id="a_node11"><a xlink:href="mxicondraw_8cpp.html" target="_top" xlink:title=" ">
<polygon fill="none" stroke="black" points="1323.5,-201.5 1323.5,-231.5 1454.5,-231.5 1454.5,-201.5 1323.5,-201.5"/>
<text text-anchor="start" x="1331.5" y="-219.5" font-family="Helvetica,sans-Serif" font-size="10.00">src/renderer/opengl</text>
<text text-anchor="middle" x="1389" y="-208.5" font-family="Helvetica,sans-Serif" font-size="10.00">/icondraw/mxicondraw.cpp</text>
</a>
</g>
</g>
<!-- Node4&#45;&gt;Node11 -->
<g id="edge11" class="edge">
<title>Node4&#45;&gt;Node11</title>
<path fill="none" stroke="midnightblue" d="M1343.84,-261.31C1353.89,-251.56 1365.54,-240.26 1374.49,-231.58"/>
<polygon fill="midnightblue" stroke="midnightblue" points="1341.28,-258.92 1336.54,-268.4 1346.15,-263.94 1341.28,-258.92"/>
</g>
<!-- Node12 -->
<g id="node12" class="node">
<title>Node12</title>
<g id="a_node12"><a xlink:href="mxiconprogram_8cpp.html" target="_top" xlink:title=" ">
<polygon fill="none" stroke="black" points="1473,-201.5 1473,-231.5 1619,-231.5 1619,-201.5 1473,-201.5"/>
<text text-anchor="start" x="1481" y="-219.5" font-family="Helvetica,sans-Serif" font-size="10.00">src/renderer/opengl</text>
<text text-anchor="middle" x="1546" y="-208.5" font-family="Helvetica,sans-Serif" font-size="10.00">/icondraw/mxiconprogram.cpp</text>
</a>
</g>
</g>
<!-- Node4&#45;&gt;Node12 -->
<g id="edge12" class="edge">
<title>Node4&#45;&gt;Node12</title>
<path fill="none" stroke="midnightblue" d="M1380.31,-265.58C1416.69,-255.02 1462.97,-241.59 1497.37,-231.61"/>
<polygon fill="midnightblue" stroke="midnightblue" points="1378.96,-262.33 1370.33,-268.48 1380.91,-269.05 1378.96,-262.33"/>
</g>
<!-- Node6 -->
<g id="node6" class="node">
<title>Node6</title>
<g id="a_node6"><a xlink:href="mxapplication_8h.html" target="_top" xlink:title=" ">
<polygon fill="none" stroke="black" points="1252,-140 1252,-159 1384,-159 1384,-140 1252,-140"/>
<text text-anchor="middle" x="1318" y="-147" font-family="Helvetica,sans-Serif" font-size="10.00">src/events/mxapplication.h</text>
</a>
</g>
</g>
<!-- Node5&#45;&gt;Node6 -->
<g id="edge5" class="edge">
<title>Node5&#45;&gt;Node6</title>
<path fill="none" stroke="midnightblue" d="M1271.26,-199.5C1283.42,-186.75 1299.98,-169.39 1309.77,-159.13"/>
<polygon fill="midnightblue" stroke="midnightblue" points="1268.73,-197.08 1264.36,-206.73 1273.8,-201.91 1268.73,-197.08"/>
</g>
<!-- Node10 -->
<g id="node10" class="node">
<title>Node10</title>
<g id="a_node10"><a xlink:href="mxpainter_8cpp.html" target="_top" xlink:title=" ">
<polygon fill="none" stroke="black" points="1124.5,-140 1124.5,-159 1233.5,-159 1233.5,-140 1124.5,-140"/>
<text text-anchor="middle" x="1179" y="-147" font-family="Helvetica,sans-Serif" font-size="10.00">src/gui/mxpainter.cpp</text>
</a>
</g>
</g>
<!-- Node5&#45;&gt;Node10 -->
<g id="edge10" class="edge">
<title>Node5&#45;&gt;Node10</title>
<path fill="none" stroke="midnightblue" d="M1237.89,-200.21C1222.72,-187.41 1201.61,-169.59 1189.22,-159.13"/>
<polygon fill="midnightblue" stroke="midnightblue" points="1235.72,-202.96 1245.62,-206.73 1240.23,-197.61 1235.72,-202.96"/>
</g>
<!-- Node7 -->
<g id="node7" class="node">
<title>Node7</title>
<g id="a_node7"><a xlink:href="mxapplication_8cpp.html" target="_top" xlink:title=" ">
<polygon fill="none" stroke="black" points="1098.5,-73 1098.5,-92 1241.5,-92 1241.5,-73 1098.5,-73"/>
<text text-anchor="middle" x="1170" y="-80" font-family="Helvetica,sans-Serif" font-size="10.00">src/events/mxapplication.cpp</text>
</a>
</g>
</g>
<!-- Node6&#45;&gt;Node7 -->
<g id="edge6" class="edge">
<title>Node6&#45;&gt;Node7</title>
<path fill="none" stroke="midnightblue" d="M1289.04,-135.78C1259.73,-122.91 1215.21,-103.35 1189.73,-92.17"/>
<polygon fill="midnightblue" stroke="midnightblue" points="1287.78,-139.05 1298.35,-139.87 1290.6,-132.64 1287.78,-139.05"/>
</g>
<!-- Node8 -->
<g id="node8" class="node">
<title>Node8</title>
<g id="a_node8"><a xlink:href="qmewawindow_8cpp.html" target="_top" xlink:title=" ">
<polygon fill="none" stroke="black" points="1303,-0.5 1303,-30.5 1419,-30.5 1419,-0.5 1303,-0.5"/>
<text text-anchor="start" x="1311" y="-18.5" font-family="Helvetica,sans-Serif" font-size="10.00">src/platformabstraction</text>
<text text-anchor="middle" x="1361" y="-7.5" font-family="Helvetica,sans-Serif" font-size="10.00">/qt/qmewawindow.cpp</text>
</a>
</g>
</g>
<!-- Node6&#45;&gt;Node8 -->
<g id="edge7" class="edge">
<title>Node6&#45;&gt;Node8</title>
<path fill="none" stroke="midnightblue" d="M1346.69,-134.93C1361,-126.49 1376.95,-114.15 1385,-98 1396.12,-75.69 1382.1,-47.32 1371.28,-30.61"/>
<polygon fill="midnightblue" stroke="midnightblue" points="1344.69,-132.03 1337.62,-139.92 1348.07,-138.17 1344.69,-132.03"/>
</g>
<!-- Node9 -->
<g id="node9" class="node">
<title>Node9</title>
<g id="a_node9"><a xlink:href="qmewawindow_8h.html" target="_top" xlink:title=" ">
<polygon fill="none" stroke="black" points="1260,-67.5 1260,-97.5 1376,-97.5 1376,-67.5 1260,-67.5"/>
<text text-anchor="start" x="1268" y="-85.5" font-family="Helvetica,sans-Serif" font-size="10.00">src/platformabstraction</text>
<text text-anchor="middle" x="1318" y="-74.5" font-family="Helvetica,sans-Serif" font-size="10.00">/qt/qmewawindow.h</text>
</a>
</g>
</g>
<!-- Node6&#45;&gt;Node9 -->
<g id="edge8" class="edge">
<title>Node6&#45;&gt;Node9</title>
<path fill="none" stroke="midnightblue" d="M1318,-129.41C1318,-119.22 1318,-106.9 1318,-97.59"/>
<polygon fill="midnightblue" stroke="midnightblue" points="1314.5,-129.73 1318,-139.73 1321.5,-129.73 1314.5,-129.73"/>
</g>
<!-- Node9&#45;&gt;Node8 -->
<g id="edge9" class="edge">
<title>Node9&#45;&gt;Node8</title>
<path fill="none" stroke="midnightblue" d="M1332.97,-58.87C1339.2,-49.46 1346.23,-38.83 1351.69,-30.58"/>
<polygon fill="midnightblue" stroke="midnightblue" points="1329.93,-57.12 1327.33,-67.4 1335.77,-60.99 1329.93,-57.12"/>
</g>
<!-- Node15&#45;&gt;Node14 -->
<g id="edge16" class="edge">
<title>Node15&#45;&gt;Node14</title>
<path fill="none" stroke="midnightblue" d="M228.96,-200.51C272.24,-189.69 330.29,-175.18 372.7,-164.57"/>
<polygon fill="midnightblue" stroke="midnightblue" points="227.98,-197.15 219.13,-202.97 229.68,-203.94 227.98,-197.15"/>
</g>
<!-- Node16 -->
<g id="node16" class="node">
<title>Node16</title>
<g id="a_node16"><a xlink:href="opengl_2mxgpuarray_8cpp.html" target="_top" xlink:title=" ">
<polygon fill="none" stroke="black" points="118,-134.5 118,-164.5 218,-164.5 218,-134.5 118,-134.5"/>
<text text-anchor="start" x="126" y="-152.5" font-family="Helvetica,sans-Serif" font-size="10.00">src/renderer/opengl</text>
<text text-anchor="middle" x="168" y="-141.5" font-family="Helvetica,sans-Serif" font-size="10.00">/mxgpuarray.cpp</text>
</a>
</g>
</g>
<!-- Node15&#45;&gt;Node16 -->
<g id="edge17" class="edge">
<title>Node15&#45;&gt;Node16</title>
<path fill="none" stroke="midnightblue" d="M168.62,-191.11C168.49,-182.15 168.34,-172.32 168.22,-164.58"/>
<polygon fill="midnightblue" stroke="midnightblue" points="165.13,-191.45 168.78,-201.4 172.13,-191.34 165.13,-191.45"/>
</g>
<!-- Node17 -->
<g id="node17" class="node">
<title>Node17</title>
<g id="a_node17"><a xlink:href="opengl_2mxrenderer_8cpp.html" target="_top" xlink:title=" ">
<polygon fill="none" stroke="black" points="0,-134.5 0,-164.5 100,-164.5 100,-134.5 0,-134.5"/>
<text text-anchor="start" x="8" y="-152.5" font-family="Helvetica,sans-Serif" font-size="10.00">src/renderer/opengl</text>
<text text-anchor="middle" x="50" y="-141.5" font-family="Helvetica,sans-Serif" font-size="10.00">/mxrenderer.cpp</text>
</a>
</g>
</g>
<!-- Node15&#45;&gt;Node17 -->
<g id="edge18" class="edge">
<title>Node15&#45;&gt;Node17</title>
<path fill="none" stroke="midnightblue" d="M134.35,-196.57C115.63,-186.35 92.91,-173.94 75.77,-164.58"/>
<polygon fill="midnightblue" stroke="midnightblue" points="132.72,-199.67 143.18,-201.4 136.08,-193.53 132.72,-199.67"/>
</g>
<!-- Node18 -->
<g id="node18" class="node">
<title>Node18</title>
<g id="a_node18"><a xlink:href="mxshaderprogram_8cpp.html" target="_top" xlink:title=" ">
<polygon fill="none" stroke="black" points="236.5,-134.5 236.5,-164.5 351.5,-164.5 351.5,-134.5 236.5,-134.5"/>
<text text-anchor="start" x="244.5" y="-152.5" font-family="Helvetica,sans-Serif" font-size="10.00">src/renderer/opengl</text>
<text text-anchor="middle" x="294" y="-141.5" font-family="Helvetica,sans-Serif" font-size="10.00">/mxshaderprogram.cpp</text>
</a>
</g>
</g>
<!-- Node15&#45;&gt;Node18 -->
<g id="edge19" class="edge">
<title>Node15&#45;&gt;Node18</title>
<path fill="none" stroke="midnightblue" d="M205.13,-196.71C224.84,-186.46 248.84,-173.98 266.93,-164.58"/>
<polygon fill="midnightblue" stroke="midnightblue" points="203.38,-193.68 196.12,-201.4 206.61,-199.89 203.38,-193.68"/>
</g>
<!-- Node19&#45;&gt;Node5 -->
<g id="edge21" class="edge">
<title>Node19&#45;&gt;Node5</title>
<path fill="none" stroke="midnightblue" d="M659.89,-339.34C727.76,-330.25 827.62,-315.79 914,-299 1029.04,-276.64 1163.89,-241.97 1224.13,-226.04"/>
<polygon fill="midnightblue" stroke="midnightblue" points="659.15,-335.91 649.7,-340.7 660.07,-342.84 659.15,-335.91"/>
</g>
<!-- Node20 -->
<g id="node20" class="node">
<title>Node20</title>
<g id="a_node20"><a xlink:href="mxsvgpainter_8cpp.html" target="_top" xlink:title=" ">
<polygon fill="none" stroke="black" points="457.5,-207 457.5,-226 600.5,-226 600.5,-207 457.5,-207"/>
<text text-anchor="middle" x="529" y="-214" font-family="Helvetica,sans-Serif" font-size="10.00">src/gui/svg/mxsvgpainter.cpp</text>
</a>
</g>
</g>
<!-- Node19&#45;&gt;Node20 -->
<g id="edge22" class="edge">
<title>Node19&#45;&gt;Node20</title>
<path fill="none" stroke="midnightblue" d="M563.28,-326.73C557.76,-318.35 552.01,-308.56 548,-299 537.44,-273.81 532.14,-241.66 530.07,-226.36"/>
<polygon fill="midnightblue" stroke="midnightblue" points="560.55,-328.93 569.1,-335.2 566.32,-324.97 560.55,-328.93"/>
</g>
<!-- Node21 -->
<g id="node21" class="node">
<title>Node21</title>
<g id="a_node21"><a xlink:href="mxsvgpainter_8h.html" target="_top" xlink:title=" ">
<polygon fill="none" stroke="black" points="771.5,-274 771.5,-293 904.5,-293 904.5,-274 771.5,-274"/>
<text text-anchor="middle" x="838" y="-281" font-family="Helvetica,sans-Serif" font-size="10.00">src/gui/svg/mxsvgpainter.h</text>
</a>
</g>
</g>
<!-- Node19&#45;&gt;Node21 -->
<g id="edge23" class="edge">
<title>Node19&#45;&gt;Node21</title>
<path fill="none" stroke="midnightblue" d="M645.53,-332.99C696.09,-320.25 763.98,-303.15 804.15,-293.03"/>
<polygon fill="midnightblue" stroke="midnightblue" points="644.51,-329.64 635.66,-335.48 646.22,-336.43 644.51,-329.64"/>
</g>
<!-- Node25 -->
<g id="node25" class="node">
<title>Node25</title>
<g id="a_node25"><a xlink:href="mxvectordraw_8cpp.html" target="_top" xlink:title=" ">
<polygon fill="none" stroke="black" points="556.5,-268.5 556.5,-298.5 705.5,-298.5 705.5,-268.5 556.5,-268.5"/>
<text text-anchor="start" x="564.5" y="-286.5" font-family="Helvetica,sans-Serif" font-size="10.00">src/renderer/opengl</text>
<text text-anchor="middle" x="631" y="-275.5" font-family="Helvetica,sans-Serif" font-size="10.00">/vectordraw/mxvectordraw.cpp</text>
</a>
</g>
</g>
<!-- Node19&#45;&gt;Node25 -->
<g id="edge29" class="edge">
<title>Node19&#45;&gt;Node25</title>
<path fill="none" stroke="midnightblue" d="M597.3,-327.45C604.79,-317.9 613.34,-307 619.96,-298.58"/>
<polygon fill="midnightblue" stroke="midnightblue" points="594.49,-325.37 591.07,-335.4 599.99,-329.69 594.49,-325.37"/>
</g>
<!-- Node26 -->
<g id="node26" class="node">
<title>Node26</title>
<g id="a_node26"><a xlink:href="mxvectorprogram_8h.html" target="_top" xlink:title=" ">
<polygon fill="none" stroke="black" points="245.5,-268.5 245.5,-298.5 398.5,-298.5 398.5,-268.5 245.5,-268.5"/>
<text text-anchor="start" x="253.5" y="-286.5" font-family="Helvetica,sans-Serif" font-size="10.00">src/renderer/opengl</text>
<text text-anchor="middle" x="322" y="-275.5" font-family="Helvetica,sans-Serif" font-size="10.00">/vectordraw/mxvectorprogram.h</text>
</a>
</g>
</g>
<!-- Node19&#45;&gt;Node26 -->
<g id="edge30" class="edge">
<title>Node19&#45;&gt;Node26</title>
<path fill="none" stroke="midnightblue" d="M514.45,-332.98C472.3,-322.37 418.14,-308.72 378.01,-298.61"/>
<polygon fill="midnightblue" stroke="midnightblue" points="513.78,-336.43 524.34,-335.48 515.49,-329.64 513.78,-336.43"/>
</g>
<!-- Node21&#45;&gt;Node10 -->
<g id="edge24" class="edge">
<title>Node21&#45;&gt;Node10</title>
<path fill="none" stroke="midnightblue" d="M914.84,-280.11C998.6,-275.88 1125.34,-264.2 1160,-232 1180.65,-212.82 1180.91,-175.9 1179.83,-159.15"/>
<polygon fill="midnightblue" stroke="midnightblue" points="914.67,-276.61 904.85,-280.59 915,-283.61 914.67,-276.61"/>
</g>
<!-- Node21&#45;&gt;Node20 -->
<g id="edge25" class="edge">
<title>Node21&#45;&gt;Node20</title>
<path fill="none" stroke="midnightblue" d="M787.15,-271.8C726.34,-259.01 625.78,-237.86 569.8,-226.08"/>
<polygon fill="midnightblue" stroke="midnightblue" points="786.78,-275.3 797.29,-273.94 788.22,-268.45 786.78,-275.3"/>
</g>
<!-- Node22 -->
<g id="node22" class="node">
<title>Node22</title>
<g id="a_node22"><a xlink:href="downarrowsvg_8cpp.html" target="_top" xlink:title=" ">
<polygon fill="none" stroke="black" points="618.5,-207 618.5,-226 793.5,-226 793.5,-207 618.5,-207"/>
<text text-anchor="middle" x="706" y="-214" font-family="Helvetica,sans-Serif" font-size="10.00">src/svg&#45;drawings/downarrowsvg.cpp</text>
</a>
</g>
</g>
<!-- Node21&#45;&gt;Node22 -->
<g id="edge26" class="edge">
<title>Node21&#45;&gt;Node22</title>
<path fill="none" stroke="midnightblue" d="M811.49,-269.44C785.34,-256.57 746.12,-237.26 723.6,-226.17"/>
<polygon fill="midnightblue" stroke="midnightblue" points="809.95,-272.59 820.47,-273.87 813.05,-266.31 809.95,-272.59"/>
</g>
<!-- Node23 -->
<g id="node23" class="node">
<title>Node23</title>
<g id="a_node23"><a xlink:href="heartsvg_8cpp.html" target="_top" xlink:title=" ">
<polygon fill="none" stroke="black" points="811.5,-207 811.5,-226 960.5,-226 960.5,-207 811.5,-207"/>
<text text-anchor="middle" x="886" y="-214" font-family="Helvetica,sans-Serif" font-size="10.00">src/svg&#45;drawings/heartsvg.cpp</text>
</a>
</g>
</g>
<!-- Node21&#45;&gt;Node23 -->
<g id="edge27" class="edge">
<title>Node21&#45;&gt;Node23</title>
<path fill="none" stroke="midnightblue" d="M850.62,-265.4C859.95,-252.77 872.26,-236.1 879.63,-226.13"/>
<polygon fill="midnightblue" stroke="midnightblue" points="847.6,-263.61 844.47,-273.73 853.23,-267.77 847.6,-263.61"/>
</g>
<!-- Node24 -->
<g id="node24" class="node">
<title>Node24</title>
<g id="a_node24"><a xlink:href="plusminussvg_8cpp.html" target="_top" xlink:title=" ">
<polygon fill="none" stroke="black" points="979,-207 979,-226 1151,-226 1151,-207 979,-207"/>
<text text-anchor="middle" x="1065" y="-214" font-family="Helvetica,sans-Serif" font-size="10.00">src/svg&#45;drawings/plusminussvg.cpp</text>
</a>
</g>
</g>
<!-- Node21&#45;&gt;Node24 -->
<g id="edge28" class="edge">
<title>Node21&#45;&gt;Node24</title>
<path fill="none" stroke="midnightblue" d="M877.84,-271.09C922.75,-258.23 994.74,-237.62 1035.09,-226.06"/>
<polygon fill="midnightblue" stroke="midnightblue" points="876.79,-267.75 868.14,-273.87 878.72,-274.48 876.79,-267.75"/>
</g>
<!-- Node26&#45;&gt;Node15 -->
<g id="edge31" class="edge">
<title>Node26&#45;&gt;Node15</title>
<path fill="none" stroke="midnightblue" d="M279.41,-264.41C254.98,-254.03 224.78,-241.2 202.13,-231.58"/>
<polygon fill="midnightblue" stroke="midnightblue" points="278.23,-267.71 288.8,-268.4 280.97,-261.26 278.23,-267.71"/>
</g>
<!-- Node27 -->
<g id="node27" class="node">
<title>Node27</title>
<g id="a_node27"><a xlink:href="mxvectorprogram_8cpp.html" target="_top" xlink:title=" ">
<polygon fill="none" stroke="black" points="237,-201.5 237,-231.5 401,-231.5 401,-201.5 237,-201.5"/>
<text text-anchor="start" x="245" y="-219.5" font-family="Helvetica,sans-Serif" font-size="10.00">src/renderer/opengl</text>
<text text-anchor="middle" x="319" y="-208.5" font-family="Helvetica,sans-Serif" font-size="10.00">/vectordraw/mxvectorprogram.cpp</text>
</a>
</g>
</g>
<!-- Node26&#45;&gt;Node27 -->
<g id="edge32" class="edge">
<title>Node26&#45;&gt;Node27</title>
<path fill="none" stroke="midnightblue" d="M320.89,-258.4C320.47,-249.37 320.01,-239.41 319.65,-231.58"/>
<polygon fill="midnightblue" stroke="midnightblue" points="317.39,-258.57 321.35,-268.4 324.38,-258.25 317.39,-258.57"/>
</g>
</g>
</svg>
