<?xml version="1.0" encoding="UTF-8" standalone="no"?>
<!DOCTYPE svg PUBLIC "-//W3C//DTD SVG 1.1//EN"
 "http://www.w3.org/Graphics/SVG/1.1/DTD/svg11.dtd">
<!-- Generated by graphviz version 2.44.0 ()
 -->
<!-- Title: src/renderer/opengl/mxcachedgpuarray.h Pages: 1 -->
<svg width="1826pt" height="441pt"
 viewBox="0.00 0.00 1826.00 441.00" xmlns="http://www.w3.org/2000/svg" xmlns:xlink="http://www.w3.org/1999/xlink">
<g id="graph0" class="graph" transform="scale(1 1) rotate(0) translate(4 437)">
<title>src/renderer/opengl/mxcachedgpuarray.h</title>
<!-- Node1 -->
<g id="node1" class="node">
<title>Node1</title>
<g id="a_node1"><a xlink:title=" ">
<polygon fill="#bfbfbf" stroke="black" points="969.5,-402.5 969.5,-432.5 1077.5,-432.5 1077.5,-402.5 969.5,-402.5"/>
<text text-anchor="start" x="977.5" y="-420.5" font-family="Helvetica,sans-Serif" font-size="10.00">src/renderer/opengl</text>
<text text-anchor="middle" x="1023.5" y="-409.5" font-family="Helvetica,sans-Serif" font-size="10.00">/mxcachedgpuarray.h</text>
</a>
</g>
</g>
<!-- Node2 -->
<g id="node2" class="node">
<title>Node2</title>
<g id="a_node2"><a xlink:href="mxtextdraw_8cpp.html" target="_top" xlink:title=" ">
<polygon fill="none" stroke="black" points="529.5,-341 529.5,-360 685.5,-360 685.5,-341 529.5,-341"/>
<text text-anchor="middle" x="607.5" y="-348" font-family="Helvetica,sans-Serif" font-size="10.00">src/gui/textdraw/mxtextdraw.cpp</text>
</a>
</g>
</g>
<!-- Node1&#45;&gt;Node2 -->
<g id="edge1" class="edge">
<title>Node1&#45;&gt;Node2</title>
<path fill="none" stroke="midnightblue" d="M959.44,-406.92C893.11,-396.93 786.5,-380.73 694.5,-366 682.71,-364.11 670.02,-362.03 658.09,-360.04"/>
<polygon fill="midnightblue" stroke="midnightblue" points="958.92,-410.38 969.32,-408.4 959.96,-403.45 958.92,-410.38"/>
</g>
<!-- Node3 -->
<g id="node3" class="node">
<title>Node3</title>
<g id="a_node3"><a xlink:href="mxquaddraw_8h.html" target="_top" xlink:title=" ">
<polygon fill="none" stroke="black" points="703.5,-335.5 703.5,-365.5 827.5,-365.5 827.5,-335.5 703.5,-335.5"/>
<text text-anchor="start" x="711.5" y="-353.5" font-family="Helvetica,sans-Serif" font-size="10.00">src/renderer/opengl</text>
<text text-anchor="middle" x="765.5" y="-342.5" font-family="Helvetica,sans-Serif" font-size="10.00">/icondraw/mxquaddraw.h</text>
</a>
</g>
</g>
<!-- Node1&#45;&gt;Node3 -->
<g id="edge2" class="edge">
<title>Node1&#45;&gt;Node3</title>
<path fill="none" stroke="midnightblue" d="M959.47,-400.37C917.04,-389.68 861.93,-375.79 821.3,-365.56"/>
<polygon fill="midnightblue" stroke="midnightblue" points="958.86,-403.82 969.41,-402.87 960.57,-397.04 958.86,-403.82"/>
</g>
<!-- Node14 -->
<g id="node14" class="node">
<title>Node14</title>
<g id="a_node14"><a xlink:href="mxcachedgpuarray_8cpp.html" target="_top" xlink:title=" ">
<polygon fill="none" stroke="black" points="1699,-134.5 1699,-164.5 1818,-164.5 1818,-134.5 1699,-134.5"/>
<text text-anchor="start" x="1707" y="-152.5" font-family="Helvetica,sans-Serif" font-size="10.00">src/renderer/opengl</text>
<text text-anchor="middle" x="1758.5" y="-141.5" font-family="Helvetica,sans-Serif" font-size="10.00">/mxcachedgpuarray.cpp</text>
</a>
</g>
</g>
<!-- Node1&#45;&gt;Node14 -->
<g id="edge14" class="edge">
<title>Node1&#45;&gt;Node14</title>
<path fill="none" stroke="midnightblue" d="M1087.85,-401.26C1124.66,-392.05 1171.52,-379.51 1212.5,-366 1411.63,-300.34 1643.36,-201.02 1726.66,-164.56"/>
<polygon fill="midnightblue" stroke="midnightblue" points="1086.62,-397.96 1077.75,-403.76 1088.3,-404.75 1086.62,-397.96"/>
</g>
<!-- Node15 -->
<g id="node15" class="node">
<title>Node15</title>
<g id="a_node15"><a xlink:href="mxrenderer_8h.html" target="_top" xlink:title=" ">
<polygon fill="none" stroke="black" points="1113.5,-201.5 1113.5,-231.5 1213.5,-231.5 1213.5,-201.5 1113.5,-201.5"/>
<text text-anchor="start" x="1121.5" y="-219.5" font-family="Helvetica,sans-Serif" font-size="10.00">src/renderer/opengl</text>
<text text-anchor="middle" x="1163.5" y="-208.5" font-family="Helvetica,sans-Serif" font-size="10.00">/mxrenderer.h</text>
</a>
</g>
</g>
<!-- Node1&#45;&gt;Node15 -->
<g id="edge15" class="edge">
<title>Node1&#45;&gt;Node15</title>
<path fill="none" stroke="midnightblue" d="M1087.26,-402.53C1140.71,-387.08 1213.73,-356.39 1248.5,-299 1255.64,-287.22 1255.31,-279.97 1248.5,-268 1238.99,-251.29 1221.53,-239.54 1204.9,-231.6"/>
<polygon fill="midnightblue" stroke="midnightblue" points="1086.21,-399.18 1077.52,-405.24 1088.09,-405.93 1086.21,-399.18"/>
</g>
<!-- Node24 -->
<g id="node24" class="node">
<title>Node24</title>
<g id="a_node24"><a xlink:href="mxvectordraw_8h.html" target="_top" xlink:title=" ">
<polygon fill="none" stroke="black" points="954,-335.5 954,-365.5 1093,-365.5 1093,-335.5 954,-335.5"/>
<text text-anchor="start" x="962" y="-353.5" font-family="Helvetica,sans-Serif" font-size="10.00">src/renderer/opengl</text>
<text text-anchor="middle" x="1023.5" y="-342.5" font-family="Helvetica,sans-Serif" font-size="10.00">/vectordraw/mxvectordraw.h</text>
</a>
</g>
</g>
<!-- Node1&#45;&gt;Node24 -->
<g id="edge30" class="edge">
<title>Node1&#45;&gt;Node24</title>
<path fill="none" stroke="midnightblue" d="M1023.5,-392.11C1023.5,-383.15 1023.5,-373.32 1023.5,-365.58"/>
<polygon fill="midnightblue" stroke="midnightblue" points="1020,-392.4 1023.5,-402.4 1027,-392.4 1020,-392.4"/>
</g>
<!-- Node4 -->
<g id="node4" class="node">
<title>Node4</title>
<g id="a_node4"><a xlink:href="mxicondraw_8h.html" target="_top" xlink:title=" ">
<polygon fill="none" stroke="black" points="197,-268.5 197,-298.5 318,-298.5 318,-268.5 197,-268.5"/>
<text text-anchor="start" x="205" y="-286.5" font-family="Helvetica,sans-Serif" font-size="10.00">src/renderer/opengl</text>
<text text-anchor="middle" x="257.5" y="-275.5" font-family="Helvetica,sans-Serif" font-size="10.00">/icondraw/mxicondraw.h</text>
</a>
</g>
</g>
<!-- Node3&#45;&gt;Node4 -->
<g id="edge3" class="edge">
<title>Node3&#45;&gt;Node4</title>
<path fill="none" stroke="midnightblue" d="M693.18,-334.87C553.45,-312.92 400.78,-297.48 318.17,-289.84"/>
<polygon fill="midnightblue" stroke="midnightblue" points="692.79,-338.35 703.22,-336.46 693.89,-331.44 692.79,-338.35"/>
</g>
<!-- Node13 -->
<g id="node13" class="node">
<title>Node13</title>
<g id="a_node13"><a xlink:href="mxquaddraw_8cpp.html" target="_top" xlink:title=" ">
<polygon fill="none" stroke="black" points="590.5,-268.5 590.5,-298.5 724.5,-298.5 724.5,-268.5 590.5,-268.5"/>
<text text-anchor="start" x="598.5" y="-286.5" font-family="Helvetica,sans-Serif" font-size="10.00">src/renderer/opengl</text>
<text text-anchor="middle" x="657.5" y="-275.5" font-family="Helvetica,sans-Serif" font-size="10.00">/icondraw/mxquaddraw.cpp</text>
</a>
</g>
</g>
<!-- Node3&#45;&gt;Node13 -->
<g id="edge13" class="edge">
<title>Node3&#45;&gt;Node13</title>
<path fill="none" stroke="midnightblue" d="M733.13,-330.02C716.32,-319.9 696.16,-307.77 680.89,-298.58"/>
<polygon fill="midnightblue" stroke="midnightblue" points="731.69,-333.24 742.07,-335.4 735.3,-327.24 731.69,-333.24"/>
</g>
<!-- Node5 -->
<g id="node5" class="node">
<title>Node5</title>
<g id="a_node5"><a xlink:href="mxpainter_8h.html" target="_top" xlink:title=" ">
<polygon fill="none" stroke="black" points="246.5,-207 246.5,-226 344.5,-226 344.5,-207 246.5,-207"/>
<text text-anchor="middle" x="295.5" y="-214" font-family="Helvetica,sans-Serif" font-size="10.00">src/gui/mxpainter.h</text>
</a>
</g>
</g>
<!-- Node4&#45;&gt;Node5 -->
<g id="edge4" class="edge">
<title>Node4&#45;&gt;Node5</title>
<path fill="none" stroke="midnightblue" d="M270.87,-259.63C277.63,-248.07 285.44,-234.71 290.42,-226.19"/>
<polygon fill="midnightblue" stroke="midnightblue" points="267.77,-258 265.75,-268.4 273.81,-261.53 267.77,-258"/>
</g>
<!-- Node11 -->
<g id="node11" class="node">
<title>Node11</title>
<g id="a_node11"><a xlink:href="mxicondraw_8cpp.html" target="_top" xlink:title=" ">
<polygon fill="none" stroke="black" points="0,-134.5 0,-164.5 131,-164.5 131,-134.5 0,-134.5"/>
<text text-anchor="start" x="8" y="-152.5" font-family="Helvetica,sans-Serif" font-size="10.00">src/renderer/opengl</text>
<text text-anchor="middle" x="65.5" y="-141.5" font-family="Helvetica,sans-Serif" font-size="10.00">/icondraw/mxicondraw.cpp</text>
</a>
</g>
</g>
<!-- Node4&#45;&gt;Node11 -->
<g id="edge11" class="edge">
<title>Node4&#45;&gt;Node11</title>
<path fill="none" stroke="midnightblue" d="M228.59,-262.62C189.33,-235.64 120.16,-188.08 85.9,-164.52"/>
<polygon fill="midnightblue" stroke="midnightblue" points="226.73,-265.59 236.95,-268.37 230.7,-259.82 226.73,-265.59"/>
</g>
<!-- Node12 -->
<g id="node12" class="node">
<title>Node12</title>
<g id="a_node12"><a xlink:href="mxiconprogram_8cpp.html" target="_top" xlink:title=" ">
<polygon fill="none" stroke="black" points="149.5,-134.5 149.5,-164.5 295.5,-164.5 295.5,-134.5 149.5,-134.5"/>
<text text-anchor="start" x="157.5" y="-152.5" font-family="Helvetica,sans-Serif" font-size="10.00">src/renderer/opengl</text>
<text text-anchor="middle" x="222.5" y="-141.5" font-family="Helvetica,sans-Serif" font-size="10.00">/icondraw/mxiconprogram.cpp</text>
</a>
</g>
</g>
<!-- Node4&#45;&gt;Node12 -->
<g id="edge12" class="edge">
<title>Node4&#45;&gt;Node12</title>
<path fill="none" stroke="midnightblue" d="M246.97,-258.71C243.59,-250.39 240.05,-240.89 237.5,-232 230.83,-208.77 226.46,-180.93 224.23,-164.53"/>
<polygon fill="midnightblue" stroke="midnightblue" points="243.85,-260.32 250.96,-268.18 250.3,-257.6 243.85,-260.32"/>
</g>
<!-- Node6 -->
<g id="node6" class="node">
<title>Node6</title>
<g id="a_node6"><a xlink:href="mxapplication_8h.html" target="_top" xlink:title=" ">
<polygon fill="none" stroke="black" points="441.5,-140 441.5,-159 573.5,-159 573.5,-140 441.5,-140"/>
<text text-anchor="middle" x="507.5" y="-147" font-family="Helvetica,sans-Serif" font-size="10.00">src/events/mxapplication.h</text>
</a>
</g>
</g>
<!-- Node5&#45;&gt;Node6 -->
<g id="edge5" class="edge">
<title>Node5&#45;&gt;Node6</title>
<path fill="none" stroke="midnightblue" d="M333.24,-203.93C375.22,-191.06 442.04,-170.57 479.57,-159.06"/>
<polygon fill="midnightblue" stroke="midnightblue" points="332.19,-200.59 323.65,-206.87 334.24,-207.28 332.19,-200.59"/>
</g>
<!-- Node10 -->
<g id="node10" class="node">
<title>Node10</title>
<g id="a_node10"><a xlink:href="mxpainter_8cpp.html" target="_top" xlink:title=" ">
<polygon fill="none" stroke="black" points="314,-140 314,-159 423,-159 423,-140 314,-140"/>
<text text-anchor="middle" x="368.5" y="-147" font-family="Helvetica,sans-Serif" font-size="10.00">src/gui/mxpainter.cpp</text>
</a>
</g>
</g>
<!-- Node5&#45;&gt;Node10 -->
<g id="edge10" class="edge">
<title>Node5&#45;&gt;Node10</title>
<path fill="none" stroke="midnightblue" d="M313.07,-199.86C327.42,-187.08 347.17,-169.49 358.81,-159.13"/>
<polygon fill="midnightblue" stroke="midnightblue" points="310.49,-197.47 305.35,-206.73 315.14,-202.7 310.49,-197.47"/>
</g>
<!-- Node7 -->
<g id="node7" class="node">
<title>Node7</title>
<g id="a_node7"><a xlink:href="mxapplication_8cpp.html" target="_top" xlink:title=" ">
<polygon fill="none" stroke="black" points="386,-73 386,-92 529,-92 529,-73 386,-73"/>
<text text-anchor="middle" x="457.5" y="-80" font-family="Helvetica,sans-Serif" font-size="10.00">src/events/mxapplication.cpp</text>
</a>
</g>
</g>
<!-- Node6&#45;&gt;Node7 -->
<g id="edge6" class="edge">
<title>Node6&#45;&gt;Node7</title>
<path fill="none" stroke="midnightblue" d="M494.63,-131.77C484.88,-119.1 471.89,-102.2 464.14,-92.13"/>
<polygon fill="midnightblue" stroke="midnightblue" points="491.89,-133.94 500.76,-139.73 497.43,-129.67 491.89,-133.94"/>
</g>
<!-- Node8 -->
<g id="node8" class="node">
<title>Node8</title>
<g id="a_node8"><a xlink:href="qmewawindow_8cpp.html" target="_top" xlink:title=" ">
<polygon fill="none" stroke="black" points="542.5,-0.5 542.5,-30.5 658.5,-30.5 658.5,-0.5 542.5,-0.5"/>
<text text-anchor="start" x="550.5" y="-18.5" font-family="Helvetica,sans-Serif" font-size="10.00">src/platformabstraction</text>
<text text-anchor="middle" x="600.5" y="-7.5" font-family="Helvetica,sans-Serif" font-size="10.00">/qt/qmewawindow.cpp</text>
</a>
</g>
</g>
<!-- Node6&#45;&gt;Node8 -->
<g id="edge7" class="edge">
<title>Node6&#45;&gt;Node8</title>
<path fill="none" stroke="midnightblue" d="M519.38,-131.64C537.85,-105.42 573.14,-55.33 590.44,-30.78"/>
<polygon fill="midnightblue" stroke="midnightblue" points="516.5,-129.65 513.6,-139.84 522.22,-133.68 516.5,-129.65"/>
</g>
<!-- Node9 -->
<g id="node9" class="node">
<title>Node9</title>
<g id="a_node9"><a xlink:href="qmewawindow_8h.html" target="_top" xlink:title=" ">
<polygon fill="none" stroke="black" points="585.5,-67.5 585.5,-97.5 701.5,-97.5 701.5,-67.5 585.5,-67.5"/>
<text text-anchor="start" x="593.5" y="-85.5" font-family="Helvetica,sans-Serif" font-size="10.00">src/platformabstraction</text>
<text text-anchor="middle" x="643.5" y="-74.5" font-family="Helvetica,sans-Serif" font-size="10.00">/qt/qmewawindow.h</text>
</a>
</g>
</g>
<!-- Node6&#45;&gt;Node9 -->
<g id="edge8" class="edge">
<title>Node6&#45;&gt;Node9</title>
<path fill="none" stroke="midnightblue" d="M534.75,-135.47C557.75,-124.49 590.58,-108.79 614.15,-97.53"/>
<polygon fill="midnightblue" stroke="midnightblue" points="533.07,-132.4 525.56,-139.87 536.09,-138.71 533.07,-132.4"/>
</g>
<!-- Node9&#45;&gt;Node8 -->
<g id="edge9" class="edge">
<title>Node9&#45;&gt;Node8</title>
<path fill="none" stroke="midnightblue" d="M628.53,-58.87C622.3,-49.46 615.27,-38.83 609.81,-30.58"/>
<polygon fill="midnightblue" stroke="midnightblue" points="625.73,-60.99 634.17,-67.4 631.57,-57.12 625.73,-60.99"/>
</g>
<!-- Node15&#45;&gt;Node6 -->
<g id="edge16" class="edge">
<title>Node15&#45;&gt;Node6</title>
<path fill="none" stroke="midnightblue" d="M1103.16,-201.16C872.33,-166.44 809.39,-194.66 582.5,-165 570.8,-163.47 558.17,-161.25 546.67,-159.01"/>
<polygon fill="midnightblue" stroke="midnightblue" points="1102.79,-204.65 1113.21,-202.7 1103.85,-197.73 1102.79,-204.65"/>
</g>
<!-- Node15&#45;&gt;Node10 -->
<g id="edge17" class="edge">
<title>Node15&#45;&gt;Node10</title>
<path fill="none" stroke="midnightblue" d="M1103.02,-201.16C806.18,-158.82 724.98,-205.68 432.5,-165 422.23,-163.57 411.18,-161.33 401.19,-159.03"/>
<polygon fill="midnightblue" stroke="midnightblue" points="1102.82,-204.67 1113.22,-202.64 1103.82,-197.74 1102.82,-204.67"/>
</g>
<!-- Node15&#45;&gt;Node11 -->
<g id="edge22" class="edge">
<title>Node15&#45;&gt;Node11</title>
<path fill="none" stroke="midnightblue" d="M1103.11,-201.19C677.44,-143.51 562.69,-213.41 140.5,-165 137.47,-164.65 134.38,-164.25 131.26,-163.81"/>
<polygon fill="midnightblue" stroke="midnightblue" points="1102.84,-204.69 1113.22,-202.58 1103.79,-197.75 1102.84,-204.69"/>
</g>
<!-- Node15&#45;&gt;Node12 -->
<g id="edge23" class="edge">
<title>Node15&#45;&gt;Node12</title>
<path fill="none" stroke="midnightblue" d="M1103.22,-201.2C749.8,-151.99 654.54,-203.67 304.5,-165 301.63,-164.68 298.7,-164.33 295.75,-163.94"/>
<polygon fill="midnightblue" stroke="midnightblue" points="1102.83,-204.68 1113.22,-202.61 1103.81,-197.75 1102.83,-204.68"/>
</g>
<!-- Node15&#45;&gt;Node14 -->
<g id="edge24" class="edge">
<title>Node15&#45;&gt;Node14</title>
<path fill="none" stroke="midnightblue" d="M1223.79,-211.9C1321.84,-205.57 1521.77,-190.59 1689.5,-165 1692.53,-164.54 1695.62,-164.03 1698.74,-163.48"/>
<polygon fill="midnightblue" stroke="midnightblue" points="1223.53,-208.41 1213.77,-212.54 1223.98,-215.4 1223.53,-208.41"/>
</g>
<!-- Node16 -->
<g id="node16" class="node">
<title>Node16</title>
<g id="a_node16"><a xlink:href="mxiconatlas_8h.html" target="_top" xlink:title=" ">
<polygon fill="none" stroke="black" points="961.5,-140 961.5,-159 1095.5,-159 1095.5,-140 961.5,-140"/>
<text text-anchor="middle" x="1028.5" y="-147" font-family="Helvetica,sans-Serif" font-size="10.00">src/iconatlas/mxiconatlas.h</text>
</a>
</g>
</g>
<!-- Node15&#45;&gt;Node16 -->
<g id="edge18" class="edge">
<title>Node15&#45;&gt;Node16</title>
<path fill="none" stroke="midnightblue" d="M1125.01,-196.97C1099.08,-184.48 1066.09,-168.6 1046.17,-159.01"/>
<polygon fill="midnightblue" stroke="midnightblue" points="1123.68,-200.21 1134.21,-201.4 1126.72,-193.9 1123.68,-200.21"/>
</g>
<!-- Node18 -->
<g id="node18" class="node">
<title>Node18</title>
<g id="a_node18"><a xlink:href="mxcolorwheelprogram_8cpp.html" target="_top" xlink:title=" ">
<polygon fill="none" stroke="black" points="1114,-134.5 1114,-164.5 1331,-164.5 1331,-134.5 1114,-134.5"/>
<text text-anchor="start" x="1122" y="-152.5" font-family="Helvetica,sans-Serif" font-size="10.00">src/renderer/opengl</text>
<text text-anchor="middle" x="1222.5" y="-141.5" font-family="Helvetica,sans-Serif" font-size="10.00">/colorwheelprogram/mxcolorwheelprogram.cpp</text>
</a>
</g>
</g>
<!-- Node15&#45;&gt;Node18 -->
<g id="edge21" class="edge">
<title>Node15&#45;&gt;Node18</title>
<path fill="none" stroke="midnightblue" d="M1183.25,-193.74C1191.98,-184.12 1202,-173.09 1209.72,-164.58"/>
<polygon fill="midnightblue" stroke="midnightblue" points="1180.43,-191.64 1176.3,-201.4 1185.61,-196.34 1180.43,-191.64"/>
</g>
<!-- Node19 -->
<g id="node19" class="node">
<title>Node19</title>
<g id="a_node19"><a xlink:href="mxgpuarray_8cpp.html" target="_top" xlink:title=" ">
<polygon fill="none" stroke="black" points="591.5,-134.5 591.5,-164.5 691.5,-164.5 691.5,-134.5 591.5,-134.5"/>
<text text-anchor="start" x="599.5" y="-152.5" font-family="Helvetica,sans-Serif" font-size="10.00">src/renderer/opengl</text>
<text text-anchor="middle" x="641.5" y="-141.5" font-family="Helvetica,sans-Serif" font-size="10.00">/mxgpuarray.cpp</text>
</a>
</g>
</g>
<!-- Node15&#45;&gt;Node19 -->
<g id="edge25" class="edge">
<title>Node15&#45;&gt;Node19</title>
<path fill="none" stroke="midnightblue" d="M1103.19,-201.14C924.28,-172.6 874.68,-194.01 700.5,-165 697.59,-164.51 694.6,-163.96 691.6,-163.36"/>
<polygon fill="midnightblue" stroke="midnightblue" points="1102.76,-204.62 1113.2,-202.77 1103.89,-197.71 1102.76,-204.62"/>
</g>
<!-- Node20 -->
<g id="node20" class="node">
<title>Node20</title>
<g id="a_node20"><a xlink:href="mxrenderer_8cpp.html" target="_top" xlink:title=" ">
<polygon fill="none" stroke="black" points="709.5,-134.5 709.5,-164.5 809.5,-164.5 809.5,-134.5 709.5,-134.5"/>
<text text-anchor="start" x="717.5" y="-152.5" font-family="Helvetica,sans-Serif" font-size="10.00">src/renderer/opengl</text>
<text text-anchor="middle" x="759.5" y="-141.5" font-family="Helvetica,sans-Serif" font-size="10.00">/mxrenderer.cpp</text>
</a>
</g>
</g>
<!-- Node15&#45;&gt;Node20 -->
<g id="edge26" class="edge">
<title>Node15&#45;&gt;Node20</title>
<path fill="none" stroke="midnightblue" d="M1103.81,-201.06C1103.7,-201.04 1103.6,-201.02 1103.5,-201 977.92,-177.97 944.03,-188.27 818.5,-165 815.6,-164.46 812.62,-163.87 809.63,-163.24"/>
<polygon fill="midnightblue" stroke="midnightblue" points="1103.01,-204.47 1113.5,-202.98 1104.37,-197.6 1103.01,-204.47"/>
</g>
<!-- Node21 -->
<g id="node21" class="node">
<title>Node21</title>
<g id="a_node21"><a xlink:href="mxshaderprogram_8cpp.html" target="_top" xlink:title=" ">
<polygon fill="none" stroke="black" points="828,-134.5 828,-164.5 943,-164.5 943,-134.5 828,-134.5"/>
<text text-anchor="start" x="836" y="-152.5" font-family="Helvetica,sans-Serif" font-size="10.00">src/renderer/opengl</text>
<text text-anchor="middle" x="885.5" y="-141.5" font-family="Helvetica,sans-Serif" font-size="10.00">/mxshaderprogram.cpp</text>
</a>
</g>
</g>
<!-- Node15&#45;&gt;Node21 -->
<g id="edge27" class="edge">
<title>Node15&#45;&gt;Node21</title>
<path fill="none" stroke="midnightblue" d="M1103.8,-201.07C1103.7,-201.05 1103.6,-201.02 1103.5,-201 1049.25,-188.16 987.32,-173.85 943.37,-163.75"/>
<polygon fill="midnightblue" stroke="midnightblue" points="1102.88,-204.45 1113.42,-203.36 1104.5,-197.64 1102.88,-204.45"/>
</g>
<!-- Node22 -->
<g id="node22" class="node">
<title>Node22</title>
<g id="a_node22"><a xlink:href="mxvectordraw_8cpp.html" target="_top" xlink:title=" ">
<polygon fill="none" stroke="black" points="1532,-134.5 1532,-164.5 1681,-164.5 1681,-134.5 1532,-134.5"/>
<text text-anchor="start" x="1540" y="-152.5" font-family="Helvetica,sans-Serif" font-size="10.00">src/renderer/opengl</text>
<text text-anchor="middle" x="1606.5" y="-141.5" font-family="Helvetica,sans-Serif" font-size="10.00">/vectordraw/mxvectordraw.cpp</text>
</a>
</g>
</g>
<!-- Node15&#45;&gt;Node22 -->
<g id="edge28" class="edge">
<title>Node15&#45;&gt;Node22</title>
<path fill="none" stroke="midnightblue" d="M1223.85,-206.9C1237.54,-204.95 1252.02,-202.9 1265.5,-201 1379.71,-184.88 1408.55,-182.81 1522.5,-165 1525.57,-164.52 1528.7,-164.02 1531.87,-163.51"/>
<polygon fill="midnightblue" stroke="midnightblue" points="1222.97,-203.49 1213.56,-208.36 1223.95,-210.42 1222.97,-203.49"/>
</g>
<!-- Node23 -->
<g id="node23" class="node">
<title>Node23</title>
<g id="a_node23"><a xlink:href="mxvectorprogram_8cpp.html" target="_top" xlink:title=" ">
<polygon fill="none" stroke="black" points="1349.5,-134.5 1349.5,-164.5 1513.5,-164.5 1513.5,-134.5 1349.5,-134.5"/>
<text text-anchor="start" x="1357.5" y="-152.5" font-family="Helvetica,sans-Serif" font-size="10.00">src/renderer/opengl</text>
<text text-anchor="middle" x="1431.5" y="-141.5" font-family="Helvetica,sans-Serif" font-size="10.00">/vectordraw/mxvectorprogram.cpp</text>
</a>
</g>
</g>
<!-- Node15&#45;&gt;Node23 -->
<g id="edge29" class="edge">
<title>Node15&#45;&gt;Node23</title>
<path fill="none" stroke="midnightblue" d="M1223.49,-200.95C1268.37,-190.06 1329.4,-175.26 1373.74,-164.51"/>
<polygon fill="midnightblue" stroke="midnightblue" points="1222.49,-197.59 1213.59,-203.35 1224.14,-204.39 1222.49,-197.59"/>
</g>
<!-- Node16&#45;&gt;Node9 -->
<g id="edge20" class="edge">
<title>Node16&#45;&gt;Node9</title>
<path fill="none" stroke="midnightblue" d="M974.23,-138.11C966.6,-136.7 958.86,-135.3 951.5,-134 864.65,-118.7 763.74,-102.45 701.76,-92.63"/>
<polygon fill="midnightblue" stroke="midnightblue" points="973.68,-141.57 984.15,-139.96 974.96,-134.69 973.68,-141.57"/>
</g>
<!-- Node17 -->
<g id="node17" class="node">
<title>Node17</title>
<g id="a_node17"><a xlink:href="mxiconatlas_8cpp.html" target="_top" xlink:title=" ">
<polygon fill="none" stroke="black" points="956,-73 956,-92 1101,-92 1101,-73 956,-73"/>
<text text-anchor="middle" x="1028.5" y="-80" font-family="Helvetica,sans-Serif" font-size="10.00">src/iconatlas/mxiconatlas.cpp</text>
</a>
</g>
</g>
<!-- Node16&#45;&gt;Node17 -->
<g id="edge19" class="edge">
<title>Node16&#45;&gt;Node17</title>
<path fill="none" stroke="midnightblue" d="M1028.5,-129.54C1028.5,-117.17 1028.5,-101.62 1028.5,-92.13"/>
<polygon fill="midnightblue" stroke="midnightblue" points="1025,-129.73 1028.5,-139.73 1032,-129.73 1025,-129.73"/>
</g>
<!-- Node24&#45;&gt;Node5 -->
<g id="edge31" class="edge">
<title>Node24&#45;&gt;Node5</title>
<path fill="none" stroke="midnightblue" d="M943.8,-343.49C892.61,-337.26 825.78,-324.62 771.5,-299 751.79,-289.7 753.65,-276.32 733.5,-268 583.23,-205.98 530.34,-255.66 369.5,-232 358.36,-230.36 346.35,-228.19 335.32,-226.02"/>
<polygon fill="midnightblue" stroke="midnightblue" points="943.48,-346.97 953.82,-344.65 944.29,-340.02 943.48,-346.97"/>
</g>
<!-- Node24&#45;&gt;Node22 -->
<g id="edge39" class="edge">
<title>Node24&#45;&gt;Node22</title>
<path fill="none" stroke="midnightblue" d="M1102.95,-335.15C1146.43,-326.43 1200.97,-314.07 1248.5,-299 1374.22,-259.15 1517.28,-193.27 1577.44,-164.58"/>
<polygon fill="midnightblue" stroke="midnightblue" points="1102.13,-331.74 1093,-337.12 1103.49,-338.61 1102.13,-331.74"/>
</g>
<!-- Node25 -->
<g id="node25" class="node">
<title>Node25</title>
<g id="a_node25"><a xlink:href="mxsvgpainter_8cpp.html" target="_top" xlink:title=" ">
<polygon fill="none" stroke="black" points="952,-207 952,-226 1095,-226 1095,-207 952,-207"/>
<text text-anchor="middle" x="1023.5" y="-214" font-family="Helvetica,sans-Serif" font-size="10.00">src/gui/svg/mxsvgpainter.cpp</text>
</a>
</g>
</g>
<!-- Node24&#45;&gt;Node25 -->
<g id="edge32" class="edge">
<title>Node24&#45;&gt;Node25</title>
<path fill="none" stroke="midnightblue" d="M1023.5,-325.32C1023.5,-295.38 1023.5,-245.91 1023.5,-226.1"/>
<polygon fill="midnightblue" stroke="midnightblue" points="1020,-325.37 1023.5,-335.37 1027,-325.37 1020,-325.37"/>
</g>
<!-- Node26 -->
<g id="node26" class="node">
<title>Node26</title>
<g id="a_node26"><a xlink:href="mxsvgpainter_8h.html" target="_top" xlink:title=" ">
<polygon fill="none" stroke="black" points="781,-274 781,-293 914,-293 914,-274 781,-274"/>
<text text-anchor="middle" x="847.5" y="-281" font-family="Helvetica,sans-Serif" font-size="10.00">src/gui/svg/mxsvgpainter.h</text>
</a>
</g>
</g>
<!-- Node24&#45;&gt;Node26 -->
<g id="edge33" class="edge">
<title>Node24&#45;&gt;Node26</title>
<path fill="none" stroke="midnightblue" d="M975.53,-331.78C941.4,-319.18 897.07,-302.81 870.53,-293.01"/>
<polygon fill="midnightblue" stroke="midnightblue" points="974.72,-335.21 985.31,-335.4 977.14,-328.65 974.72,-335.21"/>
</g>
<!-- Node30 -->
<g id="node30" class="node">
<title>Node30</title>
<g id="a_node30"><a xlink:href="mxvectorprogram_8h.html" target="_top" xlink:title=" ">
<polygon fill="none" stroke="black" points="1087,-268.5 1087,-298.5 1240,-298.5 1240,-268.5 1087,-268.5"/>
<text text-anchor="start" x="1095" y="-286.5" font-family="Helvetica,sans-Serif" font-size="10.00">src/renderer/opengl</text>
<text text-anchor="middle" x="1163.5" y="-275.5" font-family="Helvetica,sans-Serif" font-size="10.00">/vectordraw/mxvectorprogram.h</text>
</a>
</g>
</g>
<!-- Node24&#45;&gt;Node30 -->
<g id="edge40" class="edge">
<title>Node24&#45;&gt;Node30</title>
<path fill="none" stroke="midnightblue" d="M1063.07,-331.13C1085.31,-320.8 1112.65,-308.11 1133.18,-298.58"/>
<polygon fill="midnightblue" stroke="midnightblue" points="1061.47,-328.01 1053.88,-335.4 1064.42,-334.36 1061.47,-328.01"/>
</g>
<!-- Node26&#45;&gt;Node10 -->
<g id="edge34" class="edge">
<title>Node26&#45;&gt;Node10</title>
<path fill="none" stroke="midnightblue" d="M793.46,-272.2C784.48,-270.66 775.24,-269.2 766.5,-268 683.56,-256.61 455.76,-285.66 391.5,-232 369.49,-213.62 367.67,-175.96 368.05,-159.05"/>
<polygon fill="midnightblue" stroke="midnightblue" points="793.01,-275.67 803.46,-273.94 794.21,-268.77 793.01,-275.67"/>
</g>
<!-- Node26&#45;&gt;Node25 -->
<g id="edge35" class="edge">
<title>Node26&#45;&gt;Node25</title>
<path fill="none" stroke="midnightblue" d="M880.61,-270.27C915.54,-257.37 969.68,-237.38 1000.31,-226.06"/>
<polygon fill="midnightblue" stroke="midnightblue" points="879.04,-267.12 870.87,-273.87 881.46,-273.69 879.04,-267.12"/>
</g>
<!-- Node27 -->
<g id="node27" class="node">
<title>Node27</title>
<g id="a_node27"><a xlink:href="downarrowsvg_8cpp.html" target="_top" xlink:title=" ">
<polygon fill="none" stroke="black" points="401,-207 401,-226 576,-226 576,-207 401,-207"/>
<text text-anchor="middle" x="488.5" y="-214" font-family="Helvetica,sans-Serif" font-size="10.00">src/svg&#45;drawings/downarrowsvg.cpp</text>
</a>
</g>
</g>
<!-- Node26&#45;&gt;Node27 -->
<g id="edge36" class="edge">
<title>Node26&#45;&gt;Node27</title>
<path fill="none" stroke="midnightblue" d="M790.15,-272.12C719.59,-259.34 601.13,-237.89 535.62,-226.03"/>
<polygon fill="midnightblue" stroke="midnightblue" points="789.73,-275.6 800.2,-273.94 790.98,-268.71 789.73,-275.6"/>
</g>
<!-- Node28 -->
<g id="node28" class="node">
<title>Node28</title>
<g id="a_node28"><a xlink:href="heartsvg_8cpp.html" target="_top" xlink:title=" ">
<polygon fill="none" stroke="black" points="594,-207 594,-226 743,-226 743,-207 594,-207"/>
<text text-anchor="middle" x="668.5" y="-214" font-family="Helvetica,sans-Serif" font-size="10.00">src/svg&#45;drawings/heartsvg.cpp</text>
</a>
</g>
</g>
<!-- Node26&#45;&gt;Node28 -->
<g id="edge37" class="edge">
<title>Node26&#45;&gt;Node28</title>
<path fill="none" stroke="midnightblue" d="M814.28,-270.44C778.77,-257.54 723.37,-237.42 692.08,-226.06"/>
<polygon fill="midnightblue" stroke="midnightblue" points="813.14,-273.75 823.73,-273.87 815.53,-267.17 813.14,-273.75"/>
</g>
<!-- Node29 -->
<g id="node29" class="node">
<title>Node29</title>
<g id="a_node29"><a xlink:href="plusminussvg_8cpp.html" target="_top" xlink:title=" ">
<polygon fill="none" stroke="black" points="761.5,-207 761.5,-226 933.5,-226 933.5,-207 761.5,-207"/>
<text text-anchor="middle" x="847.5" y="-214" font-family="Helvetica,sans-Serif" font-size="10.00">src/svg&#45;drawings/plusminussvg.cpp</text>
</a>
</g>
</g>
<!-- Node26&#45;&gt;Node29 -->
<g id="edge38" class="edge">
<title>Node26&#45;&gt;Node29</title>
<path fill="none" stroke="midnightblue" d="M847.5,-263.54C847.5,-251.17 847.5,-235.62 847.5,-226.13"/>
<polygon fill="midnightblue" stroke="midnightblue" points="844,-263.73 847.5,-273.73 851,-263.73 844,-263.73"/>
</g>
<!-- Node30&#45;&gt;Node15 -->
<g id="edge41" class="edge">
<title>Node30&#45;&gt;Node15</title>
<path fill="none" stroke="midnightblue" d="M1163.5,-258.11C1163.5,-249.15 1163.5,-239.32 1163.5,-231.58"/>
<polygon fill="midnightblue" stroke="midnightblue" points="1160,-258.4 1163.5,-268.4 1167,-258.4 1160,-258.4"/>
</g>
<!-- Node30&#45;&gt;Node23 -->
<g id="edge42" class="edge">
<title>Node30&#45;&gt;Node23</title>
<path fill="none" stroke="midnightblue" d="M1187.4,-261.66C1212.04,-240.49 1249.1,-209.64 1265.5,-201 1296.55,-184.65 1333.72,-172.72 1365.01,-164.58"/>
<polygon fill="midnightblue" stroke="midnightblue" points="1184.85,-259.23 1179.57,-268.42 1189.42,-264.53 1184.85,-259.23"/>
</g>
</g>
</svg>
