<?xml version="1.0" encoding="UTF-8" standalone="no"?>
<!DOCTYPE svg PUBLIC "-//W3C//DTD SVG 1.1//EN"
 "http://www.w3.org/Graphics/SVG/1.1/DTD/svg11.dtd">
<!-- Generated by graphviz version 2.44.0 ()
 -->
<!-- Title: src/renderer/opengl/mxcachedgpuarray.cpp Pages: 1 -->
<svg width="844pt" height="487pt"
 viewBox="0.00 0.00 844.00 487.00" xmlns="http://www.w3.org/2000/svg" xmlns:xlink="http://www.w3.org/1999/xlink">
<g id="graph0" class="graph" transform="scale(1 1) rotate(0) translate(4 483)">
<title>src/renderer/opengl/mxcachedgpuarray.cpp</title>
<!-- Node1 -->
<g id="node1" class="node">
<title>Node1</title>
<g id="a_node1"><a xlink:title=" ">
<polygon fill="#bfbfbf" stroke="black" points="486.5,-448.5 486.5,-478.5 605.5,-478.5 605.5,-448.5 486.5,-448.5"/>
<text text-anchor="start" x="494.5" y="-466.5" font-family="Helvetica,sans-Serif" font-size="10.00">src/renderer/opengl</text>
<text text-anchor="middle" x="546" y="-455.5" font-family="Helvetica,sans-Serif" font-size="10.00">/mxcachedgpuarray.cpp</text>
</a>
</g>
</g>
<!-- Node2 -->
<g id="node2" class="node">
<title>Node2</title>
<g id="a_node2"><a xlink:href="mxcachedgpuarray_8h.html" target="_top" xlink:title=" ">
<polygon fill="none" stroke="black" points="33.5,-224.5 33.5,-243.5 138.5,-243.5 138.5,-224.5 33.5,-224.5"/>
<text text-anchor="middle" x="86" y="-231.5" font-family="Helvetica,sans-Serif" font-size="10.00">mxcachedgpuarray.h</text>
</a>
</g>
</g>
<!-- Node1&#45;&gt;Node2 -->
<g id="edge1" class="edge">
<title>Node1&#45;&gt;Node2</title>
<path fill="none" stroke="midnightblue" d="M486.27,-455.04C379.72,-440.63 162.83,-405.92 107,-356 78.35,-330.38 79.63,-280.85 82.9,-253.78"/>
<polygon fill="midnightblue" stroke="midnightblue" points="86.39,-254.09 84.34,-243.69 79.47,-253.1 86.39,-254.09"/>
</g>
<!-- Node4 -->
<g id="node4" class="node">
<title>Node4</title>
<g id="a_node4"><a xlink:href="mxopengl_8h.html" target="_top" xlink:title=" ">
<polygon fill="none" stroke="black" points="126.5,-56.5 126.5,-75.5 191.5,-75.5 191.5,-56.5 126.5,-56.5"/>
<text text-anchor="middle" x="159" y="-63.5" font-family="Helvetica,sans-Serif" font-size="10.00">mxopengl.h</text>
</a>
</g>
</g>
<!-- Node1&#45;&gt;Node4 -->
<g id="edge9" class="edge">
<title>Node1&#45;&gt;Node4</title>
<path fill="none" stroke="midnightblue" d="M486.27,-462.35C344.59,-460.4 0,-445.52 0,-347 0,-347 0,-347 0,-177 0,-120.12 69.66,-90.35 116.76,-76.71"/>
<polygon fill="midnightblue" stroke="midnightblue" points="117.73,-80.08 126.44,-74.05 115.87,-73.33 117.73,-80.08"/>
</g>
<!-- Node6 -->
<g id="node6" class="node">
<title>Node6</title>
<g id="a_node6"><a xlink:href="mxdebug_8h.html" target="_top" xlink:title=" ">
<polygon fill="none" stroke="black" points="579.5,-56.5 579.5,-75.5 642.5,-75.5 642.5,-56.5 579.5,-56.5"/>
<text text-anchor="middle" x="611" y="-63.5" font-family="Helvetica,sans-Serif" font-size="10.00">mxdebug.h</text>
</a>
</g>
</g>
<!-- Node1&#45;&gt;Node6 -->
<g id="edge8" class="edge">
<title>Node1&#45;&gt;Node6</title>
<path fill="none" stroke="midnightblue" d="M605.74,-451.27C690.63,-433.58 836,-396.11 836,-347 836,-347 836,-347 836,-177 836,-96.48 718.26,-74.89 653.12,-69.11"/>
<polygon fill="midnightblue" stroke="midnightblue" points="653.01,-65.59 642.76,-68.28 652.45,-72.57 653.01,-65.59"/>
</g>
<!-- Node8 -->
<g id="node8" class="node">
<title>Node8</title>
<g id="a_node8"><a xlink:href="mxrenderer_8h.html" target="_top" xlink:title=" ">
<polygon fill="none" stroke="black" points="338,-392.5 338,-411.5 410,-411.5 410,-392.5 338,-392.5"/>
<text text-anchor="middle" x="374" y="-399.5" font-family="Helvetica,sans-Serif" font-size="10.00">mxrenderer.h</text>
</a>
</g>
</g>
<!-- Node1&#45;&gt;Node8 -->
<g id="edge10" class="edge">
<title>Node1&#45;&gt;Node8</title>
<path fill="none" stroke="midnightblue" d="M505.24,-448.4C475.78,-438.21 436.41,-424.59 408.5,-414.93"/>
<polygon fill="midnightblue" stroke="midnightblue" points="409.37,-411.53 398.78,-411.57 407.08,-418.15 409.37,-411.53"/>
</g>
<!-- Node21 -->
<g id="node21" class="node">
<title>Node21</title>
<g id="a_node21"><a xlink:title=" ">
<polygon fill="none" stroke="#bfbfbf" points="694.5,-280.5 694.5,-299.5 741.5,-299.5 741.5,-280.5 694.5,-280.5"/>
<text text-anchor="middle" x="718" y="-287.5" font-family="Helvetica,sans-Serif" font-size="10.00">stdlib.h</text>
</a>
</g>
</g>
<!-- Node1&#45;&gt;Node21 -->
<g id="edge44" class="edge">
<title>Node1&#45;&gt;Node21</title>
<path fill="none" stroke="midnightblue" d="M560.08,-448.47C591.87,-416.77 669.03,-339.82 702.31,-306.65"/>
<polygon fill="midnightblue" stroke="midnightblue" points="704.81,-309.1 709.42,-299.56 699.86,-304.14 704.81,-309.1"/>
</g>
<!-- Node22 -->
<g id="node22" class="node">
<title>Node22</title>
<g id="a_node22"><a xlink:title=" ">
<polygon fill="none" stroke="#bfbfbf" points="760,-280.5 760,-299.5 808,-299.5 808,-280.5 760,-280.5"/>
<text text-anchor="middle" x="784" y="-287.5" font-family="Helvetica,sans-Serif" font-size="10.00">string.h</text>
</a>
</g>
</g>
<!-- Node1&#45;&gt;Node22 -->
<g id="edge45" class="edge">
<title>Node1&#45;&gt;Node22</title>
<path fill="none" stroke="midnightblue" d="M567.52,-448.39C582.61,-438.4 603.19,-424.6 621,-412 673.64,-374.77 734.28,-328.96 764.61,-305.84"/>
<polygon fill="midnightblue" stroke="midnightblue" points="766.85,-308.54 772.67,-299.69 762.6,-302.98 766.85,-308.54"/>
</g>
<!-- Node3 -->
<g id="node3" class="node">
<title>Node3</title>
<g id="a_node3"><a xlink:href="mxgpuarray_8h.html" target="_top" xlink:title=" ">
<polygon fill="none" stroke="black" points="57,-168.5 57,-187.5 131,-187.5 131,-168.5 57,-168.5"/>
<text text-anchor="middle" x="94" y="-175.5" font-family="Helvetica,sans-Serif" font-size="10.00">mxgpuarray.h</text>
</a>
</g>
</g>
<!-- Node2&#45;&gt;Node3 -->
<g id="edge2" class="edge">
<title>Node2&#45;&gt;Node3</title>
<path fill="none" stroke="midnightblue" d="M87.32,-224.08C88.38,-216.93 89.91,-206.64 91.23,-197.69"/>
<polygon fill="midnightblue" stroke="midnightblue" points="94.7,-198.16 92.7,-187.75 87.78,-197.13 94.7,-198.16"/>
</g>
<!-- Node3&#45;&gt;Node4 -->
<g id="edge3" class="edge">
<title>Node3&#45;&gt;Node4</title>
<path fill="none" stroke="midnightblue" d="M99.1,-168.37C109.78,-150.3 134.67,-108.18 148.77,-84.31"/>
<polygon fill="midnightblue" stroke="midnightblue" points="151.85,-85.98 153.92,-75.59 145.82,-82.42 151.85,-85.98"/>
</g>
<!-- Node5 -->
<g id="node5" class="node">
<title>Node5</title>
<g id="a_node5"><a xlink:href="mxshaderprogram_8h.html" target="_top" xlink:title=" ">
<polygon fill="none" stroke="black" points="187.5,-112.5 187.5,-131.5 288.5,-131.5 288.5,-112.5 187.5,-112.5"/>
<text text-anchor="middle" x="238" y="-119.5" font-family="Helvetica,sans-Serif" font-size="10.00">mxshaderprogram.h</text>
</a>
</g>
</g>
<!-- Node3&#45;&gt;Node5 -->
<g id="edge4" class="edge">
<title>Node3&#45;&gt;Node5</title>
<path fill="none" stroke="midnightblue" d="M116.82,-168.44C140.83,-159.44 178.83,-145.19 205.87,-135.05"/>
<polygon fill="midnightblue" stroke="midnightblue" points="207.16,-138.3 215.29,-131.52 204.7,-131.75 207.16,-138.3"/>
</g>
<!-- Node5&#45;&gt;Node4 -->
<g id="edge7" class="edge">
<title>Node5&#45;&gt;Node4</title>
<path fill="none" stroke="midnightblue" d="M225.31,-112.32C213.1,-103.98 194.42,-91.21 180,-81.35"/>
<polygon fill="midnightblue" stroke="midnightblue" points="181.89,-78.41 171.66,-75.65 177.94,-84.19 181.89,-78.41"/>
</g>
<!-- Node5&#45;&gt;Node6 -->
<g id="edge5" class="edge">
<title>Node5&#45;&gt;Node6</title>
<path fill="none" stroke="midnightblue" d="M288.69,-113.66C362.96,-102.91 499.99,-83.07 568.98,-73.08"/>
<polygon fill="midnightblue" stroke="midnightblue" points="569.66,-76.52 579.05,-71.63 568.65,-69.59 569.66,-76.52"/>
</g>
<!-- Node7 -->
<g id="node7" class="node">
<title>Node7</title>
<g id="a_node7"><a xlink:title=" ">
<polygon fill="none" stroke="#bfbfbf" points="585,-0.5 585,-19.5 637,-19.5 637,-0.5 585,-0.5"/>
<text text-anchor="middle" x="611" y="-7.5" font-family="Helvetica,sans-Serif" font-size="10.00">QDebug</text>
</a>
</g>
</g>
<!-- Node6&#45;&gt;Node7 -->
<g id="edge6" class="edge">
<title>Node6&#45;&gt;Node7</title>
<path fill="none" stroke="midnightblue" d="M611,-56.08C611,-49.01 611,-38.86 611,-29.99"/>
<polygon fill="midnightblue" stroke="midnightblue" points="614.5,-29.75 611,-19.75 607.5,-29.75 614.5,-29.75"/>
</g>
<!-- Node8&#45;&gt;Node2 -->
<g id="edge36" class="edge">
<title>Node8&#45;&gt;Node2</title>
<path fill="none" stroke="midnightblue" d="M337.93,-398C278.29,-392.45 162.38,-379.01 129,-356 95.6,-332.98 87.96,-281.57 86.33,-253.75"/>
<polygon fill="midnightblue" stroke="midnightblue" points="89.82,-253.58 85.95,-243.72 82.83,-253.85 89.82,-253.58"/>
</g>
<!-- Node9 -->
<g id="node9" class="node">
<title>Node9</title>
<g id="a_node9"><a xlink:href="mxopenglfunctions_8h.html" target="_top" xlink:title=" ">
<polygon fill="none" stroke="black" points="138.5,-336.5 138.5,-355.5 243.5,-355.5 243.5,-336.5 138.5,-336.5"/>
<text text-anchor="middle" x="191" y="-343.5" font-family="Helvetica,sans-Serif" font-size="10.00">mxopenglfunctions.h</text>
</a>
</g>
</g>
<!-- Node8&#45;&gt;Node9 -->
<g id="edge11" class="edge">
<title>Node8&#45;&gt;Node9</title>
<path fill="none" stroke="midnightblue" d="M345,-392.44C313.82,-383.24 264.07,-368.56 229.59,-358.39"/>
<polygon fill="midnightblue" stroke="midnightblue" points="230.44,-354.99 219.86,-355.52 228.46,-361.7 230.44,-354.99"/>
</g>
<!-- Node11 -->
<g id="node11" class="node">
<title>Node11</title>
<g id="a_node11"><a xlink:href="mxcolorwheelprogram_8h.html" target="_top" xlink:title=" ">
<polygon fill="none" stroke="black" points="269.5,-224.5 269.5,-243.5 388.5,-243.5 388.5,-224.5 269.5,-224.5"/>
<text text-anchor="middle" x="329" y="-231.5" font-family="Helvetica,sans-Serif" font-size="10.00">mxcolorwheelprogram.h</text>
</a>
</g>
</g>
<!-- Node8&#45;&gt;Node11 -->
<g id="edge13" class="edge">
<title>Node8&#45;&gt;Node11</title>
<path fill="none" stroke="midnightblue" d="M355.02,-392.4C341.11,-384.95 323.29,-372.74 315,-356 298.49,-322.65 311.29,-277.98 320.91,-253.31"/>
<polygon fill="midnightblue" stroke="midnightblue" points="324.27,-254.35 324.86,-243.77 317.8,-251.67 324.27,-254.35"/>
</g>
<!-- Node17 -->
<g id="node17" class="node">
<title>Node17</title>
<g id="a_node17"><a xlink:href="mxvectorprogram_8h.html" target="_top" xlink:title=" ">
<polygon fill="none" stroke="black" points="324.5,-336.5 324.5,-355.5 423.5,-355.5 423.5,-336.5 324.5,-336.5"/>
<text text-anchor="middle" x="374" y="-343.5" font-family="Helvetica,sans-Serif" font-size="10.00">mxvectorprogram.h</text>
</a>
</g>
</g>
<!-- Node8&#45;&gt;Node17 -->
<g id="edge24" class="edge">
<title>Node8&#45;&gt;Node17</title>
<path fill="none" stroke="midnightblue" d="M374,-392.08C374,-385.01 374,-374.86 374,-365.99"/>
<polygon fill="midnightblue" stroke="midnightblue" points="377.5,-365.75 374,-355.75 370.5,-365.75 377.5,-365.75"/>
</g>
<!-- Node19 -->
<g id="node19" class="node">
<title>Node19</title>
<g id="a_node19"><a xlink:href="mxlist_8h.html" target="_top" xlink:title=" ">
<polygon fill="none" stroke="black" points="590,-336.5 590,-355.5 640,-355.5 640,-336.5 590,-336.5"/>
<text text-anchor="middle" x="615" y="-343.5" font-family="Helvetica,sans-Serif" font-size="10.00">mxlist.h</text>
</a>
</g>
</g>
<!-- Node8&#45;&gt;Node19 -->
<g id="edge30" class="edge">
<title>Node8&#45;&gt;Node19</title>
<path fill="none" stroke="midnightblue" d="M410.08,-392.92C455.88,-382.65 534.39,-365.06 579.78,-354.89"/>
<polygon fill="midnightblue" stroke="midnightblue" points="580.76,-358.26 589.76,-352.66 579.23,-351.43 580.76,-358.26"/>
</g>
<!-- Node24 -->
<g id="node24" class="node">
<title>Node24</title>
<g id="a_node24"><a xlink:href="mxiconprogram_8h.html" target="_top" xlink:title=" ">
<polygon fill="none" stroke="black" points="500,-224.5 500,-243.5 590,-243.5 590,-224.5 500,-224.5"/>
<text text-anchor="middle" x="545" y="-231.5" font-family="Helvetica,sans-Serif" font-size="10.00">mxiconprogram.h</text>
</a>
</g>
</g>
<!-- Node8&#45;&gt;Node24 -->
<g id="edge37" class="edge">
<title>Node8&#45;&gt;Node24</title>
<path fill="none" stroke="midnightblue" d="M386.63,-392.42C398.83,-383.87 417.53,-370.01 432,-356 463.52,-325.48 464.61,-311.65 495,-280 505.01,-269.58 517.03,-258.71 526.77,-250.27"/>
<polygon fill="midnightblue" stroke="midnightblue" points="529.31,-252.71 534.64,-243.55 524.76,-247.39 529.31,-252.71"/>
</g>
<!-- Node10 -->
<g id="node10" class="node">
<title>Node10</title>
<g id="a_node10"><a xlink:title=" ">
<polygon fill="none" stroke="#bfbfbf" points="104.5,-280.5 104.5,-299.5 229.5,-299.5 229.5,-280.5 104.5,-280.5"/>
<text text-anchor="middle" x="167" y="-287.5" font-family="Helvetica,sans-Serif" font-size="10.00">QOpenGLExtraFunctions</text>
</a>
</g>
</g>
<!-- Node9&#45;&gt;Node10 -->
<g id="edge12" class="edge">
<title>Node9&#45;&gt;Node10</title>
<path fill="none" stroke="midnightblue" d="M187.04,-336.08C183.79,-328.77 179.08,-318.18 175.05,-309.1"/>
<polygon fill="midnightblue" stroke="midnightblue" points="178.15,-307.47 170.89,-299.75 171.75,-310.31 178.15,-307.47"/>
</g>
<!-- Node11&#45;&gt;Node4 -->
<g id="edge15" class="edge">
<title>Node11&#45;&gt;Node4</title>
<path fill="none" stroke="midnightblue" d="M307.49,-224.4C274.63,-210.15 212.13,-178.54 178,-132 168.11,-118.52 163.35,-99.96 161.06,-86.13"/>
<polygon fill="midnightblue" stroke="midnightblue" points="164.48,-85.27 159.67,-75.83 157.54,-86.21 164.48,-85.27"/>
</g>
<!-- Node11&#45;&gt;Node5 -->
<g id="edge16" class="edge">
<title>Node11&#45;&gt;Node5</title>
<path fill="none" stroke="midnightblue" d="M321.86,-224.37C306.71,-206.05 271.13,-163.05 251.54,-139.36"/>
<polygon fill="midnightblue" stroke="midnightblue" points="254.18,-137.07 245.11,-131.59 248.78,-141.53 254.18,-137.07"/>
</g>
<!-- Node11&#45;&gt;Node6 -->
<g id="edge14" class="edge">
<title>Node11&#45;&gt;Node6</title>
<path fill="none" stroke="midnightblue" d="M326.29,-224.32C320.01,-202.36 307.13,-144.05 336,-112 366.41,-78.24 500.27,-69.79 569.38,-67.69"/>
<polygon fill="midnightblue" stroke="midnightblue" points="569.59,-71.19 579.49,-67.41 569.4,-64.19 569.59,-71.19"/>
</g>
<!-- Node12 -->
<g id="node12" class="node">
<title>Node12</title>
<g id="a_node12"><a xlink:href="mxmatrix_8h.html" target="_top" xlink:title=" ">
<polygon fill="none" stroke="black" points="345.5,-168.5 345.5,-187.5 408.5,-187.5 408.5,-168.5 345.5,-168.5"/>
<text text-anchor="middle" x="377" y="-175.5" font-family="Helvetica,sans-Serif" font-size="10.00">mxmatrix.h</text>
</a>
</g>
</g>
<!-- Node11&#45;&gt;Node12 -->
<g id="edge17" class="edge">
<title>Node11&#45;&gt;Node12</title>
<path fill="none" stroke="midnightblue" d="M336.93,-224.08C343.85,-216.3 354.07,-204.8 362.45,-195.37"/>
<polygon fill="midnightblue" stroke="midnightblue" points="365.19,-197.55 369.22,-187.75 359.96,-192.9 365.19,-197.55"/>
</g>
<!-- Node14 -->
<g id="node14" class="node">
<title>Node14</title>
<g id="a_node14"><a xlink:href="mxrect_8h.html" target="_top" xlink:title=" ">
<polygon fill="none" stroke="black" points="514.5,-168.5 514.5,-187.5 567.5,-187.5 567.5,-168.5 514.5,-168.5"/>
<text text-anchor="middle" x="541" y="-175.5" font-family="Helvetica,sans-Serif" font-size="10.00">mxrect.h</text>
</a>
</g>
</g>
<!-- Node11&#45;&gt;Node14 -->
<g id="edge19" class="edge">
<title>Node11&#45;&gt;Node14</title>
<path fill="none" stroke="midnightblue" d="M362.59,-224.44C401.26,-214.59 464.55,-198.47 504.43,-188.32"/>
<polygon fill="midnightblue" stroke="midnightblue" points="505.45,-191.67 514.28,-185.81 503.72,-184.88 505.45,-191.67"/>
</g>
<!-- Node13 -->
<g id="node13" class="node">
<title>Node13</title>
<g id="a_node13"><a xlink:title=" ">
<polygon fill="none" stroke="#bfbfbf" points="345.5,-112.5 345.5,-131.5 410.5,-131.5 410.5,-112.5 345.5,-112.5"/>
<text text-anchor="middle" x="378" y="-119.5" font-family="Helvetica,sans-Serif" font-size="10.00">QMatrix4x4</text>
</a>
</g>
</g>
<!-- Node12&#45;&gt;Node13 -->
<g id="edge18" class="edge">
<title>Node12&#45;&gt;Node13</title>
<path fill="none" stroke="midnightblue" d="M377.17,-168.08C377.3,-161.01 377.48,-150.86 377.65,-141.99"/>
<polygon fill="midnightblue" stroke="midnightblue" points="381.15,-141.81 377.84,-131.75 374.15,-141.68 381.15,-141.81"/>
</g>
<!-- Node14&#45;&gt;Node6 -->
<g id="edge20" class="edge">
<title>Node14&#45;&gt;Node6</title>
<path fill="none" stroke="midnightblue" d="M543.93,-168.14C548.43,-155.19 557.82,-130.61 570,-112 576.93,-101.41 586.34,-90.88 594.41,-82.67"/>
<polygon fill="midnightblue" stroke="midnightblue" points="596.93,-85.1 601.59,-75.59 592.01,-80.12 596.93,-85.1"/>
</g>
<!-- Node15 -->
<g id="node15" class="node">
<title>Node15</title>
<g id="a_node15"><a xlink:href="mxvector_8h.html" target="_top" xlink:title=" ">
<polygon fill="none" stroke="black" points="579,-112.5 579,-131.5 643,-131.5 643,-112.5 579,-112.5"/>
<text text-anchor="middle" x="611" y="-119.5" font-family="Helvetica,sans-Serif" font-size="10.00">mxvector.h</text>
</a>
</g>
</g>
<!-- Node14&#45;&gt;Node15 -->
<g id="edge21" class="edge">
<title>Node14&#45;&gt;Node15</title>
<path fill="none" stroke="midnightblue" d="M552.25,-168.32C562.8,-160.18 578.8,-147.84 591.44,-138.09"/>
<polygon fill="midnightblue" stroke="midnightblue" points="593.77,-140.71 599.55,-131.83 589.49,-135.17 593.77,-140.71"/>
</g>
<!-- Node16 -->
<g id="node16" class="node">
<title>Node16</title>
<g id="a_node16"><a xlink:title=" ">
<polygon fill="none" stroke="#bfbfbf" points="467,-112.5 467,-131.5 523,-131.5 523,-112.5 467,-112.5"/>
<text text-anchor="middle" x="495" y="-119.5" font-family="Helvetica,sans-Serif" font-size="10.00">algorithm</text>
</a>
</g>
</g>
<!-- Node14&#45;&gt;Node16 -->
<g id="edge23" class="edge">
<title>Node14&#45;&gt;Node16</title>
<path fill="none" stroke="midnightblue" d="M533.4,-168.08C526.77,-160.3 516.98,-148.8 508.94,-139.37"/>
<polygon fill="midnightblue" stroke="midnightblue" points="511.6,-137.09 502.45,-131.75 506.27,-141.63 511.6,-137.09"/>
</g>
<!-- Node15&#45;&gt;Node6 -->
<g id="edge22" class="edge">
<title>Node15&#45;&gt;Node6</title>
<path fill="none" stroke="midnightblue" d="M611,-112.08C611,-105.01 611,-94.86 611,-85.99"/>
<polygon fill="midnightblue" stroke="midnightblue" points="614.5,-85.75 611,-75.75 607.5,-85.75 614.5,-85.75"/>
</g>
<!-- Node17&#45;&gt;Node5 -->
<g id="edge25" class="edge">
<title>Node17&#45;&gt;Node5</title>
<path fill="none" stroke="midnightblue" d="M358.17,-336.27C332.56,-321.2 282.63,-287.67 260,-244 242.87,-210.94 238.87,-166.78 238.06,-141.97"/>
<polygon fill="midnightblue" stroke="midnightblue" points="241.55,-141.7 237.87,-131.77 234.56,-141.83 241.55,-141.7"/>
</g>
<!-- Node17&#45;&gt;Node12 -->
<g id="edge26" class="edge">
<title>Node17&#45;&gt;Node12</title>
<path fill="none" stroke="midnightblue" d="M386.78,-336.37C397.39,-328.36 411.73,-315.38 418,-300 432.86,-263.55 407.42,-219.5 390.41,-195.89"/>
<polygon fill="midnightblue" stroke="midnightblue" points="393.01,-193.52 384.19,-187.64 387.41,-197.73 393.01,-193.52"/>
</g>
<!-- Node18 -->
<g id="node18" class="node">
<title>Node18</title>
<g id="a_node18"><a xlink:href="mxvectordraw_8h.html" target="_top" xlink:title=" ">
<polygon fill="none" stroke="black" points="324.5,-280.5 324.5,-299.5 409.5,-299.5 409.5,-280.5 324.5,-280.5"/>
<text text-anchor="middle" x="367" y="-287.5" font-family="Helvetica,sans-Serif" font-size="10.00">mxvectordraw.h</text>
</a>
</g>
</g>
<!-- Node17&#45;&gt;Node18 -->
<g id="edge27" class="edge">
<title>Node17&#45;&gt;Node18</title>
<path fill="none" stroke="midnightblue" d="M372.84,-336.08C371.92,-328.93 370.58,-318.64 369.42,-309.69"/>
<polygon fill="midnightblue" stroke="midnightblue" points="372.89,-309.22 368.13,-299.75 365.95,-310.12 372.89,-309.22"/>
</g>
<!-- Node18&#45;&gt;Node2 -->
<g id="edge28" class="edge">
<title>Node18&#45;&gt;Node2</title>
<path fill="none" stroke="midnightblue" d="M324.32,-280.8C275.14,-271.35 194.2,-255.79 140.5,-245.47"/>
<polygon fill="midnightblue" stroke="midnightblue" points="140.96,-242 130.47,-243.55 139.63,-248.87 140.96,-242"/>
</g>
<!-- Node18&#45;&gt;Node14 -->
<g id="edge29" class="edge">
<title>Node18&#45;&gt;Node14</title>
<path fill="none" stroke="midnightblue" d="M380.65,-280.37C410.64,-261.41 482.47,-216 518.95,-192.94"/>
<polygon fill="midnightblue" stroke="midnightblue" points="520.83,-195.89 527.41,-187.59 517.09,-189.98 520.83,-195.89"/>
</g>
<!-- Node19&#45;&gt;Node6 -->
<g id="edge31" class="edge">
<title>Node19&#45;&gt;Node6</title>
<path fill="none" stroke="midnightblue" d="M623.06,-336.47C630.6,-327.95 641.51,-314.11 647,-300 677.5,-221.65 704.66,-187.66 668,-112 661.6,-98.8 649.25,-88.3 637.67,-80.78"/>
<polygon fill="midnightblue" stroke="midnightblue" points="639.45,-77.77 629.08,-75.61 635.84,-83.77 639.45,-77.77"/>
</g>
<!-- Node20 -->
<g id="node20" class="node">
<title>Node20</title>
<g id="a_node20"><a xlink:href="mxrefcounter_8h.html" target="_top" xlink:title=" ">
<polygon fill="none" stroke="black" points="558,-280.5 558,-299.5 638,-299.5 638,-280.5 558,-280.5"/>
<text text-anchor="middle" x="598" y="-287.5" font-family="Helvetica,sans-Serif" font-size="10.00">mxrefcounter.h</text>
</a>
</g>
</g>
<!-- Node19&#45;&gt;Node20 -->
<g id="edge32" class="edge">
<title>Node19&#45;&gt;Node20</title>
<path fill="none" stroke="midnightblue" d="M612.19,-336.08C609.92,-328.85 606.63,-318.41 603.79,-309.4"/>
<polygon fill="midnightblue" stroke="midnightblue" points="607.1,-308.24 600.75,-299.75 600.42,-310.34 607.1,-308.24"/>
</g>
<!-- Node19&#45;&gt;Node21 -->
<g id="edge33" class="edge">
<title>Node19&#45;&gt;Node21</title>
<path fill="none" stroke="midnightblue" d="M631.55,-336.32C647.99,-327.7 673.43,-314.36 692.47,-304.39"/>
<polygon fill="midnightblue" stroke="midnightblue" points="694.26,-307.4 701.49,-299.65 691.01,-301.2 694.26,-307.4"/>
</g>
<!-- Node19&#45;&gt;Node22 -->
<g id="edge34" class="edge">
<title>Node19&#45;&gt;Node22</title>
<path fill="none" stroke="midnightblue" d="M640.3,-336.92C669.47,-327.6 717.54,-312.24 749.96,-301.88"/>
<polygon fill="midnightblue" stroke="midnightblue" points="751.44,-305.08 759.9,-298.7 749.31,-298.41 751.44,-305.08"/>
</g>
<!-- Node23 -->
<g id="node23" class="node">
<title>Node23</title>
<g id="a_node23"><a xlink:title=" ">
<polygon fill="none" stroke="#bfbfbf" points="504.5,-280.5 504.5,-299.5 539.5,-299.5 539.5,-280.5 504.5,-280.5"/>
<text text-anchor="middle" x="522" y="-287.5" font-family="Helvetica,sans-Serif" font-size="10.00">new</text>
</a>
</g>
</g>
<!-- Node19&#45;&gt;Node23 -->
<g id="edge35" class="edge">
<title>Node19&#45;&gt;Node23</title>
<path fill="none" stroke="midnightblue" d="M600.06,-336.32C585.41,-327.82 562.87,-314.73 545.76,-304.8"/>
<polygon fill="midnightblue" stroke="midnightblue" points="547.31,-301.65 536.9,-299.65 543.8,-307.7 547.31,-301.65"/>
</g>
<!-- Node24&#45;&gt;Node4 -->
<g id="edge41" class="edge">
<title>Node24&#45;&gt;Node4</title>
<path fill="none" stroke="midnightblue" d="M537.34,-224.44C514.63,-199.28 447.55,-126.44 419,-112 348.68,-76.43 255.46,-68.35 201.87,-66.87"/>
<polygon fill="midnightblue" stroke="midnightblue" points="201.77,-63.37 191.7,-66.65 201.62,-70.36 201.77,-63.37"/>
</g>
<!-- Node24&#45;&gt;Node5 -->
<g id="edge42" class="edge">
<title>Node24&#45;&gt;Node5</title>
<path fill="none" stroke="midnightblue" d="M529.2,-224.42C500.2,-208.76 439.41,-176.39 417,-168 376.68,-152.91 329.37,-141.26 293.52,-133.6"/>
<polygon fill="midnightblue" stroke="midnightblue" points="294.23,-130.18 283.73,-131.55 292.79,-137.03 294.23,-130.18"/>
</g>
<!-- Node24&#45;&gt;Node6 -->
<g id="edge38" class="edge">
<title>Node24&#45;&gt;Node6</title>
<path fill="none" stroke="midnightblue" d="M560.55,-224.32C585.57,-209.32 633.82,-175.9 652,-132 659.55,-113.76 644.68,-94.89 630.78,-82.21"/>
<polygon fill="midnightblue" stroke="midnightblue" points="632.78,-79.32 622.89,-75.52 628.25,-84.65 632.78,-79.32"/>
</g>
<!-- Node24&#45;&gt;Node12 -->
<g id="edge39" class="edge">
<title>Node24&#45;&gt;Node12</title>
<path fill="none" stroke="midnightblue" d="M518.38,-224.44C489.99,-215.32 444.86,-200.81 413.25,-190.65"/>
<polygon fill="midnightblue" stroke="midnightblue" points="414.09,-187.24 403.5,-187.52 411.94,-193.91 414.09,-187.24"/>
</g>
<!-- Node24&#45;&gt;Node14 -->
<g id="edge43" class="edge">
<title>Node24&#45;&gt;Node14</title>
<path fill="none" stroke="midnightblue" d="M544.34,-224.08C543.82,-217.01 543.06,-206.86 542.41,-197.99"/>
<polygon fill="midnightblue" stroke="midnightblue" points="545.88,-197.47 541.65,-187.75 538.9,-197.98 545.88,-197.47"/>
</g>
<!-- Node24&#45;&gt;Node15 -->
<g id="edge40" class="edge">
<title>Node24&#45;&gt;Node15</title>
<path fill="none" stroke="midnightblue" d="M551.47,-224.23C557.95,-215.29 568.08,-200.95 576,-188 585.59,-172.31 595.42,-153.8 602.21,-140.55"/>
<polygon fill="midnightblue" stroke="midnightblue" points="605.36,-142.08 606.76,-131.58 599.12,-138.92 605.36,-142.08"/>
</g>
</g>
</svg>
