<?xml version="1.0" encoding="UTF-8" standalone="no"?>
<!DOCTYPE svg PUBLIC "-//W3C//DTD SVG 1.1//EN"
 "http://www.w3.org/Graphics/SVG/1.1/DTD/svg11.dtd">
<!-- Generated by graphviz version 2.44.0 ()
 -->
<!-- Title: src/renderer/opengl/mxcachedgpuarray.cpp Pages: 1 -->
<svg width="844pt" height="431pt"
 viewBox="0.00 0.00 844.00 431.00" xmlns="http://www.w3.org/2000/svg" xmlns:xlink="http://www.w3.org/1999/xlink">
<g id="graph0" class="graph" transform="scale(1 1) rotate(0) translate(4 427)">
<title>src/renderer/opengl/mxcachedgpuarray.cpp</title>
<!-- Node1 -->
<g id="node1" class="node">
<title>Node1</title>
<g id="a_node1"><a xlink:title=" ">
<polygon fill="#bfbfbf" stroke="black" points="486.5,-392.5 486.5,-422.5 605.5,-422.5 605.5,-392.5 486.5,-392.5"/>
<text text-anchor="start" x="494.5" y="-410.5" font-family="Helvetica,sans-Serif" font-size="10.00">src/renderer/opengl</text>
<text text-anchor="middle" x="546" y="-399.5" font-family="Helvetica,sans-Serif" font-size="10.00">/mxcachedgpuarray.cpp</text>
</a>
</g>
</g>
<!-- Node2 -->
<g id="node2" class="node">
<title>Node2</title>
<g id="a_node2"><a xlink:href="mxcachedgpuarray_8h.html" target="_top" xlink:title=" ">
<polygon fill="none" stroke="black" points="33.5,-168.5 33.5,-187.5 138.5,-187.5 138.5,-168.5 33.5,-168.5"/>
<text text-anchor="middle" x="86" y="-175.5" font-family="Helvetica,sans-Serif" font-size="10.00">mxcachedgpuarray.h</text>
</a>
</g>
</g>
<!-- Node1&#45;&gt;Node2 -->
<g id="edge1" class="edge">
<title>Node1&#45;&gt;Node2</title>
<path fill="none" stroke="midnightblue" d="M486.27,-399.04C379.72,-384.63 162.83,-349.92 107,-300 78.35,-274.38 79.63,-224.85 82.9,-197.78"/>
<polygon fill="midnightblue" stroke="midnightblue" points="86.39,-198.09 84.34,-187.69 79.47,-197.1 86.39,-198.09"/>
</g>
<!-- Node4 -->
<g id="node4" class="node">
<title>Node4</title>
<g id="a_node4"><a xlink:href="mxopengl_8h.html" target="_top" xlink:title=" ">
<polygon fill="none" stroke="black" points="126.5,-0.5 126.5,-19.5 191.5,-19.5 191.5,-0.5 126.5,-0.5"/>
<text text-anchor="middle" x="159" y="-7.5" font-family="Helvetica,sans-Serif" font-size="10.00">mxopengl.h</text>
</a>
</g>
</g>
<!-- Node1&#45;&gt;Node4 -->
<g id="edge8" class="edge">
<title>Node1&#45;&gt;Node4</title>
<path fill="none" stroke="midnightblue" d="M486.27,-406.35C344.59,-404.4 0,-389.52 0,-291 0,-291 0,-291 0,-121 0,-64.12 69.66,-34.35 116.76,-20.71"/>
<polygon fill="midnightblue" stroke="midnightblue" points="117.73,-24.08 126.44,-18.05 115.87,-17.33 117.73,-24.08"/>
</g>
<!-- Node6 -->
<g id="node6" class="node">
<title>Node6</title>
<g id="a_node6"><a xlink:title=" ">
<polygon fill="none" stroke="#bfbfbf" points="579.5,-0.5 579.5,-19.5 642.5,-19.5 642.5,-0.5 579.5,-0.5"/>
<text text-anchor="middle" x="611" y="-7.5" font-family="Helvetica,sans-Serif" font-size="10.00">mxdebug.h</text>
</a>
</g>
</g>
<!-- Node1&#45;&gt;Node6 -->
<g id="edge7" class="edge">
<title>Node1&#45;&gt;Node6</title>
<path fill="none" stroke="midnightblue" d="M605.74,-395.27C690.63,-377.58 836,-340.11 836,-291 836,-291 836,-291 836,-121 836,-40.48 718.26,-18.89 653.12,-13.11"/>
<polygon fill="midnightblue" stroke="midnightblue" points="653.01,-9.59 642.76,-12.28 652.45,-16.57 653.01,-9.59"/>
</g>
<!-- Node7 -->
<g id="node7" class="node">
<title>Node7</title>
<g id="a_node7"><a xlink:href="opengl_2mxrenderer_8h.html" target="_top" xlink:title=" ">
<polygon fill="none" stroke="black" points="338,-336.5 338,-355.5 410,-355.5 410,-336.5 338,-336.5"/>
<text text-anchor="middle" x="374" y="-343.5" font-family="Helvetica,sans-Serif" font-size="10.00">mxrenderer.h</text>
</a>
</g>
</g>
<!-- Node1&#45;&gt;Node7 -->
<g id="edge9" class="edge">
<title>Node1&#45;&gt;Node7</title>
<path fill="none" stroke="midnightblue" d="M505.24,-392.4C475.78,-382.21 436.41,-368.59 408.5,-358.93"/>
<polygon fill="midnightblue" stroke="midnightblue" points="409.37,-355.53 398.78,-355.57 407.08,-362.15 409.37,-355.53"/>
</g>
<!-- Node20 -->
<g id="node20" class="node">
<title>Node20</title>
<g id="a_node20"><a xlink:title=" ">
<polygon fill="none" stroke="#bfbfbf" points="694.5,-224.5 694.5,-243.5 741.5,-243.5 741.5,-224.5 694.5,-224.5"/>
<text text-anchor="middle" x="718" y="-231.5" font-family="Helvetica,sans-Serif" font-size="10.00">stdlib.h</text>
</a>
</g>
</g>
<!-- Node1&#45;&gt;Node20 -->
<g id="edge43" class="edge">
<title>Node1&#45;&gt;Node20</title>
<path fill="none" stroke="midnightblue" d="M560.08,-392.47C591.87,-360.77 669.03,-283.82 702.31,-250.65"/>
<polygon fill="midnightblue" stroke="midnightblue" points="704.81,-253.1 709.42,-243.56 699.86,-248.14 704.81,-253.1"/>
</g>
<!-- Node21 -->
<g id="node21" class="node">
<title>Node21</title>
<g id="a_node21"><a xlink:title=" ">
<polygon fill="none" stroke="#bfbfbf" points="760,-224.5 760,-243.5 808,-243.5 808,-224.5 760,-224.5"/>
<text text-anchor="middle" x="784" y="-231.5" font-family="Helvetica,sans-Serif" font-size="10.00">string.h</text>
</a>
</g>
</g>
<!-- Node1&#45;&gt;Node21 -->
<g id="edge44" class="edge">
<title>Node1&#45;&gt;Node21</title>
<path fill="none" stroke="midnightblue" d="M567.52,-392.39C582.61,-382.4 603.19,-368.6 621,-356 673.64,-318.77 734.28,-272.96 764.61,-249.84"/>
<polygon fill="midnightblue" stroke="midnightblue" points="766.85,-252.54 772.67,-243.69 762.6,-246.98 766.85,-252.54"/>
</g>
<!-- Node3 -->
<g id="node3" class="node">
<title>Node3</title>
<g id="a_node3"><a xlink:href="opengl_2mxgpuarray_8h.html" target="_top" xlink:title=" ">
<polygon fill="none" stroke="black" points="57,-112.5 57,-131.5 131,-131.5 131,-112.5 57,-112.5"/>
<text text-anchor="middle" x="94" y="-119.5" font-family="Helvetica,sans-Serif" font-size="10.00">mxgpuarray.h</text>
</a>
</g>
</g>
<!-- Node2&#45;&gt;Node3 -->
<g id="edge2" class="edge">
<title>Node2&#45;&gt;Node3</title>
<path fill="none" stroke="midnightblue" d="M87.32,-168.08C88.38,-160.93 89.91,-150.64 91.23,-141.69"/>
<polygon fill="midnightblue" stroke="midnightblue" points="94.7,-142.16 92.7,-131.75 87.78,-141.13 94.7,-142.16"/>
</g>
<!-- Node3&#45;&gt;Node4 -->
<g id="edge3" class="edge">
<title>Node3&#45;&gt;Node4</title>
<path fill="none" stroke="midnightblue" d="M99.1,-112.37C109.78,-94.3 134.67,-52.18 148.77,-28.31"/>
<polygon fill="midnightblue" stroke="midnightblue" points="151.85,-29.98 153.92,-19.59 145.82,-26.42 151.85,-29.98"/>
</g>
<!-- Node5 -->
<g id="node5" class="node">
<title>Node5</title>
<g id="a_node5"><a xlink:href="mxshaderprogram_8h.html" target="_top" xlink:title=" ">
<polygon fill="none" stroke="black" points="187.5,-56.5 187.5,-75.5 288.5,-75.5 288.5,-56.5 187.5,-56.5"/>
<text text-anchor="middle" x="238" y="-63.5" font-family="Helvetica,sans-Serif" font-size="10.00">mxshaderprogram.h</text>
</a>
</g>
</g>
<!-- Node3&#45;&gt;Node5 -->
<g id="edge4" class="edge">
<title>Node3&#45;&gt;Node5</title>
<path fill="none" stroke="midnightblue" d="M116.82,-112.44C140.83,-103.44 178.83,-89.19 205.87,-79.05"/>
<polygon fill="midnightblue" stroke="midnightblue" points="207.16,-82.3 215.29,-75.52 204.7,-75.75 207.16,-82.3"/>
</g>
<!-- Node5&#45;&gt;Node4 -->
<g id="edge6" class="edge">
<title>Node5&#45;&gt;Node4</title>
<path fill="none" stroke="midnightblue" d="M225.31,-56.32C213.1,-47.98 194.42,-35.21 180,-25.35"/>
<polygon fill="midnightblue" stroke="midnightblue" points="181.89,-22.41 171.66,-19.65 177.94,-28.19 181.89,-22.41"/>
</g>
<!-- Node5&#45;&gt;Node6 -->
<g id="edge5" class="edge">
<title>Node5&#45;&gt;Node6</title>
<path fill="none" stroke="midnightblue" d="M288.69,-57.66C362.96,-46.91 499.99,-27.07 568.98,-17.08"/>
<polygon fill="midnightblue" stroke="midnightblue" points="569.66,-20.52 579.05,-15.63 568.65,-13.59 569.66,-20.52"/>
</g>
<!-- Node7&#45;&gt;Node2 -->
<g id="edge35" class="edge">
<title>Node7&#45;&gt;Node2</title>
<path fill="none" stroke="midnightblue" d="M337.93,-342C278.29,-336.45 162.38,-323.01 129,-300 95.6,-276.98 87.96,-225.57 86.33,-197.75"/>
<polygon fill="midnightblue" stroke="midnightblue" points="89.82,-197.58 85.95,-187.72 82.83,-197.85 89.82,-197.58"/>
</g>
<!-- Node8 -->
<g id="node8" class="node">
<title>Node8</title>
<g id="a_node8"><a xlink:href="mxopenglfunctions_8h.html" target="_top" xlink:title=" ">
<polygon fill="none" stroke="black" points="138.5,-280.5 138.5,-299.5 243.5,-299.5 243.5,-280.5 138.5,-280.5"/>
<text text-anchor="middle" x="191" y="-287.5" font-family="Helvetica,sans-Serif" font-size="10.00">mxopenglfunctions.h</text>
</a>
</g>
</g>
<!-- Node7&#45;&gt;Node8 -->
<g id="edge10" class="edge">
<title>Node7&#45;&gt;Node8</title>
<path fill="none" stroke="midnightblue" d="M345,-336.44C313.82,-327.24 264.07,-312.56 229.59,-302.39"/>
<polygon fill="midnightblue" stroke="midnightblue" points="230.44,-298.99 219.86,-299.52 228.46,-305.7 230.44,-298.99"/>
</g>
<!-- Node10 -->
<g id="node10" class="node">
<title>Node10</title>
<g id="a_node10"><a xlink:href="mxcolorwheelprogram_8h.html" target="_top" xlink:title=" ">
<polygon fill="none" stroke="black" points="269.5,-168.5 269.5,-187.5 388.5,-187.5 388.5,-168.5 269.5,-168.5"/>
<text text-anchor="middle" x="329" y="-175.5" font-family="Helvetica,sans-Serif" font-size="10.00">mxcolorwheelprogram.h</text>
</a>
</g>
</g>
<!-- Node7&#45;&gt;Node10 -->
<g id="edge12" class="edge">
<title>Node7&#45;&gt;Node10</title>
<path fill="none" stroke="midnightblue" d="M355.02,-336.4C341.11,-328.95 323.29,-316.74 315,-300 298.49,-266.65 311.29,-221.98 320.91,-197.31"/>
<polygon fill="midnightblue" stroke="midnightblue" points="324.27,-198.35 324.86,-187.77 317.8,-195.67 324.27,-198.35"/>
</g>
<!-- Node16 -->
<g id="node16" class="node">
<title>Node16</title>
<g id="a_node16"><a xlink:href="mxvectorprogram_8h.html" target="_top" xlink:title=" ">
<polygon fill="none" stroke="black" points="324.5,-280.5 324.5,-299.5 423.5,-299.5 423.5,-280.5 324.5,-280.5"/>
<text text-anchor="middle" x="374" y="-287.5" font-family="Helvetica,sans-Serif" font-size="10.00">mxvectorprogram.h</text>
</a>
</g>
</g>
<!-- Node7&#45;&gt;Node16 -->
<g id="edge23" class="edge">
<title>Node7&#45;&gt;Node16</title>
<path fill="none" stroke="midnightblue" d="M374,-336.08C374,-329.01 374,-318.86 374,-309.99"/>
<polygon fill="midnightblue" stroke="midnightblue" points="377.5,-309.75 374,-299.75 370.5,-309.75 377.5,-309.75"/>
</g>
<!-- Node18 -->
<g id="node18" class="node">
<title>Node18</title>
<g id="a_node18"><a xlink:href="mxlist_8h.html" target="_top" xlink:title=" ">
<polygon fill="none" stroke="black" points="590,-280.5 590,-299.5 640,-299.5 640,-280.5 590,-280.5"/>
<text text-anchor="middle" x="615" y="-287.5" font-family="Helvetica,sans-Serif" font-size="10.00">mxlist.h</text>
</a>
</g>
</g>
<!-- Node7&#45;&gt;Node18 -->
<g id="edge29" class="edge">
<title>Node7&#45;&gt;Node18</title>
<path fill="none" stroke="midnightblue" d="M410.08,-336.92C455.88,-326.65 534.39,-309.06 579.78,-298.89"/>
<polygon fill="midnightblue" stroke="midnightblue" points="580.76,-302.26 589.76,-296.66 579.23,-295.43 580.76,-302.26"/>
</g>
<!-- Node23 -->
<g id="node23" class="node">
<title>Node23</title>
<g id="a_node23"><a xlink:href="mxiconprogram_8h.html" target="_top" xlink:title=" ">
<polygon fill="none" stroke="black" points="500,-168.5 500,-187.5 590,-187.5 590,-168.5 500,-168.5"/>
<text text-anchor="middle" x="545" y="-175.5" font-family="Helvetica,sans-Serif" font-size="10.00">mxiconprogram.h</text>
</a>
</g>
</g>
<!-- Node7&#45;&gt;Node23 -->
<g id="edge36" class="edge">
<title>Node7&#45;&gt;Node23</title>
<path fill="none" stroke="midnightblue" d="M386.63,-336.42C398.83,-327.87 417.53,-314.01 432,-300 463.52,-269.48 464.61,-255.65 495,-224 505.01,-213.58 517.03,-202.71 526.77,-194.27"/>
<polygon fill="midnightblue" stroke="midnightblue" points="529.31,-196.71 534.64,-187.55 524.76,-191.39 529.31,-196.71"/>
</g>
<!-- Node9 -->
<g id="node9" class="node">
<title>Node9</title>
<g id="a_node9"><a xlink:title=" ">
<polygon fill="none" stroke="#bfbfbf" points="104.5,-224.5 104.5,-243.5 229.5,-243.5 229.5,-224.5 104.5,-224.5"/>
<text text-anchor="middle" x="167" y="-231.5" font-family="Helvetica,sans-Serif" font-size="10.00">QOpenGLExtraFunctions</text>
</a>
</g>
</g>
<!-- Node8&#45;&gt;Node9 -->
<g id="edge11" class="edge">
<title>Node8&#45;&gt;Node9</title>
<path fill="none" stroke="midnightblue" d="M187.04,-280.08C183.79,-272.77 179.08,-262.18 175.05,-253.1"/>
<polygon fill="midnightblue" stroke="midnightblue" points="178.15,-251.47 170.89,-243.75 171.75,-254.31 178.15,-251.47"/>
</g>
<!-- Node10&#45;&gt;Node4 -->
<g id="edge14" class="edge">
<title>Node10&#45;&gt;Node4</title>
<path fill="none" stroke="midnightblue" d="M307.49,-168.4C274.63,-154.15 212.13,-122.54 178,-76 168.11,-62.52 163.35,-43.96 161.06,-30.13"/>
<polygon fill="midnightblue" stroke="midnightblue" points="164.48,-29.27 159.67,-19.83 157.54,-30.21 164.48,-29.27"/>
</g>
<!-- Node10&#45;&gt;Node5 -->
<g id="edge15" class="edge">
<title>Node10&#45;&gt;Node5</title>
<path fill="none" stroke="midnightblue" d="M321.86,-168.37C306.71,-150.05 271.13,-107.05 251.54,-83.36"/>
<polygon fill="midnightblue" stroke="midnightblue" points="254.18,-81.07 245.11,-75.59 248.78,-85.53 254.18,-81.07"/>
</g>
<!-- Node10&#45;&gt;Node6 -->
<g id="edge13" class="edge">
<title>Node10&#45;&gt;Node6</title>
<path fill="none" stroke="midnightblue" d="M326.29,-168.32C320.01,-146.36 307.13,-88.05 336,-56 366.41,-22.24 500.27,-13.79 569.38,-11.69"/>
<polygon fill="midnightblue" stroke="midnightblue" points="569.59,-15.19 579.49,-11.41 569.4,-8.19 569.59,-15.19"/>
</g>
<!-- Node11 -->
<g id="node11" class="node">
<title>Node11</title>
<g id="a_node11"><a xlink:href="mxmatrix_8h.html" target="_top" xlink:title=" ">
<polygon fill="none" stroke="black" points="345.5,-112.5 345.5,-131.5 408.5,-131.5 408.5,-112.5 345.5,-112.5"/>
<text text-anchor="middle" x="377" y="-119.5" font-family="Helvetica,sans-Serif" font-size="10.00">mxmatrix.h</text>
</a>
</g>
</g>
<!-- Node10&#45;&gt;Node11 -->
<g id="edge16" class="edge">
<title>Node10&#45;&gt;Node11</title>
<path fill="none" stroke="midnightblue" d="M336.93,-168.08C343.85,-160.3 354.07,-148.8 362.45,-139.37"/>
<polygon fill="midnightblue" stroke="midnightblue" points="365.19,-141.55 369.22,-131.75 359.96,-136.9 365.19,-141.55"/>
</g>
<!-- Node13 -->
<g id="node13" class="node">
<title>Node13</title>
<g id="a_node13"><a xlink:href="mxrect_8h.html" target="_top" xlink:title=" ">
<polygon fill="none" stroke="black" points="514.5,-112.5 514.5,-131.5 567.5,-131.5 567.5,-112.5 514.5,-112.5"/>
<text text-anchor="middle" x="541" y="-119.5" font-family="Helvetica,sans-Serif" font-size="10.00">mxrect.h</text>
</a>
</g>
</g>
<!-- Node10&#45;&gt;Node13 -->
<g id="edge18" class="edge">
<title>Node10&#45;&gt;Node13</title>
<path fill="none" stroke="midnightblue" d="M362.59,-168.44C401.26,-158.59 464.55,-142.47 504.43,-132.32"/>
<polygon fill="midnightblue" stroke="midnightblue" points="505.45,-135.67 514.28,-129.81 503.72,-128.88 505.45,-135.67"/>
</g>
<!-- Node12 -->
<g id="node12" class="node">
<title>Node12</title>
<g id="a_node12"><a xlink:title=" ">
<polygon fill="none" stroke="#bfbfbf" points="345.5,-56.5 345.5,-75.5 410.5,-75.5 410.5,-56.5 345.5,-56.5"/>
<text text-anchor="middle" x="378" y="-63.5" font-family="Helvetica,sans-Serif" font-size="10.00">QMatrix4x4</text>
</a>
</g>
</g>
<!-- Node11&#45;&gt;Node12 -->
<g id="edge17" class="edge">
<title>Node11&#45;&gt;Node12</title>
<path fill="none" stroke="midnightblue" d="M377.17,-112.08C377.3,-105.01 377.48,-94.86 377.65,-85.99"/>
<polygon fill="midnightblue" stroke="midnightblue" points="381.15,-85.81 377.84,-75.75 374.15,-85.68 381.15,-85.81"/>
</g>
<!-- Node13&#45;&gt;Node6 -->
<g id="edge19" class="edge">
<title>Node13&#45;&gt;Node6</title>
<path fill="none" stroke="midnightblue" d="M543.93,-112.14C548.43,-99.19 557.82,-74.61 570,-56 576.93,-45.41 586.34,-34.88 594.41,-26.67"/>
<polygon fill="midnightblue" stroke="midnightblue" points="596.93,-29.1 601.59,-19.59 592.01,-24.12 596.93,-29.1"/>
</g>
<!-- Node14 -->
<g id="node14" class="node">
<title>Node14</title>
<g id="a_node14"><a xlink:href="mxvector_8h.html" target="_top" xlink:title=" ">
<polygon fill="none" stroke="black" points="579,-56.5 579,-75.5 643,-75.5 643,-56.5 579,-56.5"/>
<text text-anchor="middle" x="611" y="-63.5" font-family="Helvetica,sans-Serif" font-size="10.00">mxvector.h</text>
</a>
</g>
</g>
<!-- Node13&#45;&gt;Node14 -->
<g id="edge20" class="edge">
<title>Node13&#45;&gt;Node14</title>
<path fill="none" stroke="midnightblue" d="M552.25,-112.32C562.8,-104.18 578.8,-91.84 591.44,-82.09"/>
<polygon fill="midnightblue" stroke="midnightblue" points="593.77,-84.71 599.55,-75.83 589.49,-79.17 593.77,-84.71"/>
</g>
<!-- Node15 -->
<g id="node15" class="node">
<title>Node15</title>
<g id="a_node15"><a xlink:title=" ">
<polygon fill="none" stroke="#bfbfbf" points="467,-56.5 467,-75.5 523,-75.5 523,-56.5 467,-56.5"/>
<text text-anchor="middle" x="495" y="-63.5" font-family="Helvetica,sans-Serif" font-size="10.00">algorithm</text>
</a>
</g>
</g>
<!-- Node13&#45;&gt;Node15 -->
<g id="edge22" class="edge">
<title>Node13&#45;&gt;Node15</title>
<path fill="none" stroke="midnightblue" d="M533.4,-112.08C526.77,-104.3 516.98,-92.8 508.94,-83.37"/>
<polygon fill="midnightblue" stroke="midnightblue" points="511.6,-81.09 502.45,-75.75 506.27,-85.63 511.6,-81.09"/>
</g>
<!-- Node14&#45;&gt;Node6 -->
<g id="edge21" class="edge">
<title>Node14&#45;&gt;Node6</title>
<path fill="none" stroke="midnightblue" d="M611,-56.08C611,-49.01 611,-38.86 611,-29.99"/>
<polygon fill="midnightblue" stroke="midnightblue" points="614.5,-29.75 611,-19.75 607.5,-29.75 614.5,-29.75"/>
</g>
<!-- Node16&#45;&gt;Node5 -->
<g id="edge24" class="edge">
<title>Node16&#45;&gt;Node5</title>
<path fill="none" stroke="midnightblue" d="M358.17,-280.27C332.56,-265.2 282.63,-231.67 260,-188 242.87,-154.94 238.87,-110.78 238.06,-85.97"/>
<polygon fill="midnightblue" stroke="midnightblue" points="241.55,-85.7 237.87,-75.77 234.56,-85.83 241.55,-85.7"/>
</g>
<!-- Node16&#45;&gt;Node11 -->
<g id="edge25" class="edge">
<title>Node16&#45;&gt;Node11</title>
<path fill="none" stroke="midnightblue" d="M386.78,-280.37C397.39,-272.36 411.73,-259.38 418,-244 432.86,-207.55 407.42,-163.5 390.41,-139.89"/>
<polygon fill="midnightblue" stroke="midnightblue" points="393.01,-137.52 384.19,-131.64 387.41,-141.73 393.01,-137.52"/>
</g>
<!-- Node17 -->
<g id="node17" class="node">
<title>Node17</title>
<g id="a_node17"><a xlink:href="mxvectordraw_8h.html" target="_top" xlink:title=" ">
<polygon fill="none" stroke="black" points="324.5,-224.5 324.5,-243.5 409.5,-243.5 409.5,-224.5 324.5,-224.5"/>
<text text-anchor="middle" x="367" y="-231.5" font-family="Helvetica,sans-Serif" font-size="10.00">mxvectordraw.h</text>
</a>
</g>
</g>
<!-- Node16&#45;&gt;Node17 -->
<g id="edge26" class="edge">
<title>Node16&#45;&gt;Node17</title>
<path fill="none" stroke="midnightblue" d="M372.84,-280.08C371.92,-272.93 370.58,-262.64 369.42,-253.69"/>
<polygon fill="midnightblue" stroke="midnightblue" points="372.89,-253.22 368.13,-243.75 365.95,-254.12 372.89,-253.22"/>
</g>
<!-- Node17&#45;&gt;Node2 -->
<g id="edge27" class="edge">
<title>Node17&#45;&gt;Node2</title>
<path fill="none" stroke="midnightblue" d="M324.32,-224.8C275.14,-215.35 194.2,-199.79 140.5,-189.47"/>
<polygon fill="midnightblue" stroke="midnightblue" points="140.96,-186 130.47,-187.55 139.63,-192.87 140.96,-186"/>
</g>
<!-- Node17&#45;&gt;Node13 -->
<g id="edge28" class="edge">
<title>Node17&#45;&gt;Node13</title>
<path fill="none" stroke="midnightblue" d="M380.65,-224.37C410.64,-205.41 482.47,-160 518.95,-136.94"/>
<polygon fill="midnightblue" stroke="midnightblue" points="520.83,-139.89 527.41,-131.59 517.09,-133.98 520.83,-139.89"/>
</g>
<!-- Node18&#45;&gt;Node6 -->
<g id="edge30" class="edge">
<title>Node18&#45;&gt;Node6</title>
<path fill="none" stroke="midnightblue" d="M623.06,-280.47C630.6,-271.95 641.51,-258.11 647,-244 677.5,-165.65 704.66,-131.66 668,-56 661.6,-42.8 649.25,-32.3 637.67,-24.78"/>
<polygon fill="midnightblue" stroke="midnightblue" points="639.45,-21.77 629.08,-19.61 635.84,-27.77 639.45,-21.77"/>
</g>
<!-- Node19 -->
<g id="node19" class="node">
<title>Node19</title>
<g id="a_node19"><a xlink:href="mxrefcounter_8h.html" target="_top" xlink:title=" ">
<polygon fill="none" stroke="black" points="558,-224.5 558,-243.5 638,-243.5 638,-224.5 558,-224.5"/>
<text text-anchor="middle" x="598" y="-231.5" font-family="Helvetica,sans-Serif" font-size="10.00">mxrefcounter.h</text>
</a>
</g>
</g>
<!-- Node18&#45;&gt;Node19 -->
<g id="edge31" class="edge">
<title>Node18&#45;&gt;Node19</title>
<path fill="none" stroke="midnightblue" d="M612.19,-280.08C609.92,-272.85 606.63,-262.41 603.79,-253.4"/>
<polygon fill="midnightblue" stroke="midnightblue" points="607.1,-252.24 600.75,-243.75 600.42,-254.34 607.1,-252.24"/>
</g>
<!-- Node18&#45;&gt;Node20 -->
<g id="edge32" class="edge">
<title>Node18&#45;&gt;Node20</title>
<path fill="none" stroke="midnightblue" d="M631.55,-280.32C647.99,-271.7 673.43,-258.36 692.47,-248.39"/>
<polygon fill="midnightblue" stroke="midnightblue" points="694.26,-251.4 701.49,-243.65 691.01,-245.2 694.26,-251.4"/>
</g>
<!-- Node18&#45;&gt;Node21 -->
<g id="edge33" class="edge">
<title>Node18&#45;&gt;Node21</title>
<path fill="none" stroke="midnightblue" d="M640.3,-280.92C669.47,-271.6 717.54,-256.24 749.96,-245.88"/>
<polygon fill="midnightblue" stroke="midnightblue" points="751.44,-249.08 759.9,-242.7 749.31,-242.41 751.44,-249.08"/>
</g>
<!-- Node22 -->
<g id="node22" class="node">
<title>Node22</title>
<g id="a_node22"><a xlink:title=" ">
<polygon fill="none" stroke="#bfbfbf" points="504.5,-224.5 504.5,-243.5 539.5,-243.5 539.5,-224.5 504.5,-224.5"/>
<text text-anchor="middle" x="522" y="-231.5" font-family="Helvetica,sans-Serif" font-size="10.00">new</text>
</a>
</g>
</g>
<!-- Node18&#45;&gt;Node22 -->
<g id="edge34" class="edge">
<title>Node18&#45;&gt;Node22</title>
<path fill="none" stroke="midnightblue" d="M600.06,-280.32C585.41,-271.82 562.87,-258.73 545.76,-248.8"/>
<polygon fill="midnightblue" stroke="midnightblue" points="547.31,-245.65 536.9,-243.65 543.8,-251.7 547.31,-245.65"/>
</g>
<!-- Node23&#45;&gt;Node4 -->
<g id="edge40" class="edge">
<title>Node23&#45;&gt;Node4</title>
<path fill="none" stroke="midnightblue" d="M537.34,-168.44C514.63,-143.28 447.55,-70.44 419,-56 348.68,-20.43 255.46,-12.35 201.87,-10.87"/>
<polygon fill="midnightblue" stroke="midnightblue" points="201.77,-7.37 191.7,-10.65 201.62,-14.36 201.77,-7.37"/>
</g>
<!-- Node23&#45;&gt;Node5 -->
<g id="edge41" class="edge">
<title>Node23&#45;&gt;Node5</title>
<path fill="none" stroke="midnightblue" d="M529.2,-168.42C500.2,-152.76 439.41,-120.39 417,-112 376.68,-96.91 329.37,-85.26 293.52,-77.6"/>
<polygon fill="midnightblue" stroke="midnightblue" points="294.23,-74.18 283.73,-75.55 292.79,-81.03 294.23,-74.18"/>
</g>
<!-- Node23&#45;&gt;Node6 -->
<g id="edge37" class="edge">
<title>Node23&#45;&gt;Node6</title>
<path fill="none" stroke="midnightblue" d="M560.55,-168.32C585.57,-153.32 633.82,-119.9 652,-76 659.55,-57.76 644.68,-38.89 630.78,-26.21"/>
<polygon fill="midnightblue" stroke="midnightblue" points="632.78,-23.32 622.89,-19.52 628.25,-28.65 632.78,-23.32"/>
</g>
<!-- Node23&#45;&gt;Node11 -->
<g id="edge38" class="edge">
<title>Node23&#45;&gt;Node11</title>
<path fill="none" stroke="midnightblue" d="M518.38,-168.44C489.99,-159.32 444.86,-144.81 413.25,-134.65"/>
<polygon fill="midnightblue" stroke="midnightblue" points="414.09,-131.24 403.5,-131.52 411.94,-137.91 414.09,-131.24"/>
</g>
<!-- Node23&#45;&gt;Node13 -->
<g id="edge42" class="edge">
<title>Node23&#45;&gt;Node13</title>
<path fill="none" stroke="midnightblue" d="M544.34,-168.08C543.82,-161.01 543.06,-150.86 542.41,-141.99"/>
<polygon fill="midnightblue" stroke="midnightblue" points="545.88,-141.47 541.65,-131.75 538.9,-141.98 545.88,-141.47"/>
</g>
<!-- Node23&#45;&gt;Node14 -->
<g id="edge39" class="edge">
<title>Node23&#45;&gt;Node14</title>
<path fill="none" stroke="midnightblue" d="M551.47,-168.23C557.95,-159.29 568.08,-144.95 576,-132 585.59,-116.31 595.42,-97.8 602.21,-84.55"/>
<polygon fill="midnightblue" stroke="midnightblue" points="605.36,-86.08 606.76,-75.58 599.12,-82.92 605.36,-86.08"/>
</g>
</g>
</svg>
