<?xml version="1.0" encoding="UTF-8" standalone="no"?>
<!DOCTYPE svg PUBLIC "-//W3C//DTD SVG 1.1//EN"
 "http://www.w3.org/Graphics/SVG/1.1/DTD/svg11.dtd">
<!-- Generated by graphviz version 2.44.0 ()
 -->
<!-- Title: src/widgets/mxclippedwidget.h Pages: 1 -->
<svg width="480pt" height="196pt"
 viewBox="0.00 0.00 479.94 196.00" xmlns="http://www.w3.org/2000/svg" xmlns:xlink="http://www.w3.org/1999/xlink">
<g id="graph0" class="graph" transform="scale(1 1) rotate(0) translate(4 192)">
<title>src/widgets/mxclippedwidget.h</title>
<!-- Node1 -->
<g id="node1" class="node">
<title>Node1</title>
<g id="a_node1"><a xlink:title=" ">
<polygon fill="#bfbfbf" stroke="black" points="70.94,-168.5 70.94,-187.5 219.94,-187.5 219.94,-168.5 70.94,-168.5"/>
<text text-anchor="middle" x="145.44" y="-175.5" font-family="Helvetica,sans-Serif" font-size="10.00">src/widgets/mxclippedwidget.h</text>
</a>
</g>
</g>
<!-- Node2 -->
<g id="node2" class="node">
<title>Node2</title>
<g id="a_node2"><a xlink:href="mxrect_8h.html" target="_top" xlink:title=" ">
<polygon fill="none" stroke="black" points="56.94,-112.5 56.94,-131.5 109.94,-131.5 109.94,-112.5 56.94,-112.5"/>
<text text-anchor="middle" x="83.44" y="-119.5" font-family="Helvetica,sans-Serif" font-size="10.00">mxrect.h</text>
</a>
</g>
</g>
<!-- Node1&#45;&gt;Node2 -->
<g id="edge1" class="edge">
<title>Node1&#45;&gt;Node2</title>
<path fill="none" stroke="midnightblue" d="M135.48,-168.32C126.32,-160.34 112.51,-148.31 101.42,-138.65"/>
<polygon fill="midnightblue" stroke="midnightblue" points="103.43,-135.76 93.59,-131.83 98.83,-141.04 103.43,-135.76"/>
</g>
<!-- Node6 -->
<g id="node6" class="node">
<title>Node6</title>
<g id="a_node6"><a xlink:href="mxlist_8h.html" target="_top" xlink:title=" ">
<polygon fill="none" stroke="black" points="262.44,-112.5 262.44,-131.5 312.44,-131.5 312.44,-112.5 262.44,-112.5"/>
<text text-anchor="middle" x="287.44" y="-119.5" font-family="Helvetica,sans-Serif" font-size="10.00">mxlist.h</text>
</a>
</g>
</g>
<!-- Node1&#45;&gt;Node6 -->
<g id="edge6" class="edge">
<title>Node1&#45;&gt;Node6</title>
<path fill="none" stroke="midnightblue" d="M167.94,-168.44C191.52,-159.48 228.77,-145.31 255.41,-135.18"/>
<polygon fill="midnightblue" stroke="midnightblue" points="256.95,-138.34 265.05,-131.52 254.46,-131.8 256.95,-138.34"/>
</g>
<!-- Node3 -->
<g id="node3" class="node">
<title>Node3</title>
<g id="a_node3"><a xlink:title=" ">
<polygon fill="none" stroke="#bfbfbf" points="12.94,-0.5 12.94,-19.5 75.94,-19.5 75.94,-0.5 12.94,-0.5"/>
<text text-anchor="middle" x="44.44" y="-7.5" font-family="Helvetica,sans-Serif" font-size="10.00">mxdebug.h</text>
</a>
</g>
</g>
<!-- Node2&#45;&gt;Node3 -->
<g id="edge2" class="edge">
<title>Node2&#45;&gt;Node3</title>
<path fill="none" stroke="midnightblue" d="M56.78,-113.8C38.23,-107.24 14.87,-95.53 3.44,-76 -6.73,-58.61 9.37,-39.11 24.29,-26.05"/>
<polygon fill="midnightblue" stroke="midnightblue" points="26.76,-28.55 32.28,-19.51 22.32,-23.14 26.76,-28.55"/>
</g>
<!-- Node4 -->
<g id="node4" class="node">
<title>Node4</title>
<g id="a_node4"><a xlink:href="mxvector_8h.html" target="_top" xlink:title=" ">
<polygon fill="none" stroke="black" points="12.44,-56.5 12.44,-75.5 76.44,-75.5 76.44,-56.5 12.44,-56.5"/>
<text text-anchor="middle" x="44.44" y="-63.5" font-family="Helvetica,sans-Serif" font-size="10.00">mxvector.h</text>
</a>
</g>
</g>
<!-- Node2&#45;&gt;Node4 -->
<g id="edge3" class="edge">
<title>Node2&#45;&gt;Node4</title>
<path fill="none" stroke="midnightblue" d="M77,-112.08C71.5,-104.46 63.41,-93.26 56.68,-83.94"/>
<polygon fill="midnightblue" stroke="midnightblue" points="59.46,-81.81 50.76,-75.75 53.78,-85.91 59.46,-81.81"/>
</g>
<!-- Node5 -->
<g id="node5" class="node">
<title>Node5</title>
<g id="a_node5"><a xlink:title=" ">
<polygon fill="none" stroke="#bfbfbf" points="94.44,-56.5 94.44,-75.5 150.44,-75.5 150.44,-56.5 94.44,-56.5"/>
<text text-anchor="middle" x="122.44" y="-63.5" font-family="Helvetica,sans-Serif" font-size="10.00">algorithm</text>
</a>
</g>
</g>
<!-- Node2&#45;&gt;Node5 -->
<g id="edge5" class="edge">
<title>Node2&#45;&gt;Node5</title>
<path fill="none" stroke="midnightblue" d="M89.88,-112.08C95.39,-104.46 103.48,-93.26 110.21,-83.94"/>
<polygon fill="midnightblue" stroke="midnightblue" points="113.11,-85.91 116.12,-75.75 107.43,-81.81 113.11,-85.91"/>
</g>
<!-- Node4&#45;&gt;Node3 -->
<g id="edge4" class="edge">
<title>Node4&#45;&gt;Node3</title>
<path fill="none" stroke="midnightblue" d="M44.44,-56.08C44.44,-49.01 44.44,-38.86 44.44,-29.99"/>
<polygon fill="midnightblue" stroke="midnightblue" points="47.94,-29.75 44.44,-19.75 40.94,-29.75 47.94,-29.75"/>
</g>
<!-- Node6&#45;&gt;Node3 -->
<g id="edge7" class="edge">
<title>Node6&#45;&gt;Node3</title>
<path fill="none" stroke="midnightblue" d="M270.14,-112.48C251.98,-103.51 222.62,-88.92 197.44,-76 180.46,-67.29 176.8,-63.93 159.44,-56 132.61,-43.73 101.39,-31.65 78.25,-23.1"/>
<polygon fill="midnightblue" stroke="midnightblue" points="79.15,-19.7 68.56,-19.54 76.74,-26.27 79.15,-19.7"/>
</g>
<!-- Node7 -->
<g id="node7" class="node">
<title>Node7</title>
<g id="a_node7"><a xlink:href="mxrefcounter_8h.html" target="_top" xlink:title=" ">
<polygon fill="none" stroke="black" points="206.44,-56.5 206.44,-75.5 286.44,-75.5 286.44,-56.5 206.44,-56.5"/>
<text text-anchor="middle" x="246.44" y="-63.5" font-family="Helvetica,sans-Serif" font-size="10.00">mxrefcounter.h</text>
</a>
</g>
</g>
<!-- Node6&#45;&gt;Node7 -->
<g id="edge8" class="edge">
<title>Node6&#45;&gt;Node7</title>
<path fill="none" stroke="midnightblue" d="M280.67,-112.08C274.88,-104.46 266.39,-93.26 259.31,-83.94"/>
<polygon fill="midnightblue" stroke="midnightblue" points="261.92,-81.6 253.09,-75.75 256.35,-85.83 261.92,-81.6"/>
</g>
<!-- Node8 -->
<g id="node8" class="node">
<title>Node8</title>
<g id="a_node8"><a xlink:title=" ">
<polygon fill="none" stroke="#bfbfbf" points="304.94,-56.5 304.94,-75.5 351.94,-75.5 351.94,-56.5 304.94,-56.5"/>
<text text-anchor="middle" x="328.44" y="-63.5" font-family="Helvetica,sans-Serif" font-size="10.00">stdlib.h</text>
</a>
</g>
</g>
<!-- Node6&#45;&gt;Node8 -->
<g id="edge9" class="edge">
<title>Node6&#45;&gt;Node8</title>
<path fill="none" stroke="midnightblue" d="M294.21,-112.08C300.01,-104.46 308.5,-93.26 315.58,-83.94"/>
<polygon fill="midnightblue" stroke="midnightblue" points="318.54,-85.83 321.8,-75.75 312.97,-81.6 318.54,-85.83"/>
</g>
<!-- Node9 -->
<g id="node9" class="node">
<title>Node9</title>
<g id="a_node9"><a xlink:title=" ">
<polygon fill="none" stroke="#bfbfbf" points="370.44,-56.5 370.44,-75.5 418.44,-75.5 418.44,-56.5 370.44,-56.5"/>
<text text-anchor="middle" x="394.44" y="-63.5" font-family="Helvetica,sans-Serif" font-size="10.00">string.h</text>
</a>
</g>
</g>
<!-- Node6&#45;&gt;Node9 -->
<g id="edge10" class="edge">
<title>Node6&#45;&gt;Node9</title>
<path fill="none" stroke="midnightblue" d="M304.64,-112.32C321.8,-103.66 348.39,-90.24 368.19,-80.25"/>
<polygon fill="midnightblue" stroke="midnightblue" points="369.95,-83.28 377.3,-75.65 366.79,-77.04 369.95,-83.28"/>
</g>
<!-- Node10 -->
<g id="node10" class="node">
<title>Node10</title>
<g id="a_node10"><a xlink:title=" ">
<polygon fill="none" stroke="#bfbfbf" points="436.94,-56.5 436.94,-75.5 471.94,-75.5 471.94,-56.5 436.94,-56.5"/>
<text text-anchor="middle" x="454.44" y="-63.5" font-family="Helvetica,sans-Serif" font-size="10.00">new</text>
</a>
</g>
</g>
<!-- Node6&#45;&gt;Node10 -->
<g id="edge11" class="edge">
<title>Node6&#45;&gt;Node10</title>
<path fill="none" stroke="midnightblue" d="M312.51,-113.03C338.73,-104.68 381.34,-91.05 427.21,-76.05"/>
<polygon fill="midnightblue" stroke="midnightblue" points="428.32,-79.37 436.73,-72.93 426.14,-72.72 428.32,-79.37"/>
</g>
</g>
</svg>
