<?xml version="1.0" encoding="UTF-8" standalone="no"?>
<!DOCTYPE svg PUBLIC "-//W3C//DTD SVG 1.1//EN"
 "http://www.w3.org/Graphics/SVG/1.1/DTD/svg11.dtd">
<!-- Generated by graphviz version 2.44.0 ()
 -->
<!-- Title: src/gui/colorselector/mxcolorwheelprogram.h Pages: 1 -->
<svg width="1619pt" height="229pt"
 viewBox="0.00 0.00 1619.00 229.00" xmlns="http://www.w3.org/2000/svg" xmlns:xlink="http://www.w3.org/1999/xlink">
<g id="graph0" class="graph" transform="scale(1 1) rotate(0) translate(4 225)">
<title>src/gui/colorselector/mxcolorwheelprogram.h</title>
<!-- Node1 -->
<g id="node1" class="node">
<title>Node1</title>
<g id="a_node1"><a xlink:title=" ">
<polygon fill="#bfbfbf" stroke="black" points="504.5,-190.5 504.5,-220.5 626.5,-220.5 626.5,-190.5 504.5,-190.5"/>
<text text-anchor="start" x="512.5" y="-208.5" font-family="Helvetica,sans-Serif" font-size="10.00">src/gui/colorselector</text>
<text text-anchor="middle" x="565.5" y="-197.5" font-family="Helvetica,sans-Serif" font-size="10.00">/mxcolorwheelprogram.h</text>
</a>
</g>
</g>
<!-- Node2 -->
<g id="node2" class="node">
<title>Node2</title>
<g id="a_node2"><a xlink:href="mxcolorwheelprogram_8cpp.html" target="_top" xlink:title=" ">
<polygon fill="none" stroke="black" points="212.5,-67.5 212.5,-97.5 344.5,-97.5 344.5,-67.5 212.5,-67.5"/>
<text text-anchor="start" x="220.5" y="-85.5" font-family="Helvetica,sans-Serif" font-size="10.00">src/gui/colorselector</text>
<text text-anchor="middle" x="278.5" y="-74.5" font-family="Helvetica,sans-Serif" font-size="10.00">/mxcolorwheelprogram.cpp</text>
</a>
</g>
</g>
<!-- Node1&#45;&gt;Node2 -->
<g id="edge1" class="edge">
<title>Node1&#45;&gt;Node2</title>
<path fill="none" stroke="midnightblue" d="M522.47,-186.36C464.87,-162.07 363.92,-119.51 311.77,-97.53"/>
<polygon fill="midnightblue" stroke="midnightblue" points="521.44,-189.72 532.02,-190.38 524.16,-183.27 521.44,-189.72"/>
</g>
<!-- Node3 -->
<g id="node3" class="node">
<title>Node3</title>
<g id="a_node3"><a xlink:href="mxrenderer_8h.html" target="_top" xlink:title=" ">
<polygon fill="none" stroke="black" points="781,-134.5 781,-153.5 924,-153.5 924,-134.5 781,-134.5"/>
<text text-anchor="middle" x="852.5" y="-141.5" font-family="Helvetica,sans-Serif" font-size="10.00">src/gui/renderer/mxrenderer.h</text>
</a>
</g>
</g>
<!-- Node1&#45;&gt;Node3 -->
<g id="edge2" class="edge">
<title>Node1&#45;&gt;Node3</title>
<path fill="none" stroke="midnightblue" d="M636.74,-189.73C691.69,-178.34 765.77,-162.98 811.27,-153.55"/>
<polygon fill="midnightblue" stroke="midnightblue" points="635.8,-186.35 626.72,-191.81 637.22,-193.21 635.8,-186.35"/>
</g>
<!-- Node3&#45;&gt;Node2 -->
<g id="edge8" class="edge">
<title>Node3&#45;&gt;Node2</title>
<path fill="none" stroke="midnightblue" d="M770.51,-138.16C671.4,-131.71 499.69,-118.67 353.5,-98 350.61,-97.59 347.66,-97.15 344.69,-96.67"/>
<polygon fill="midnightblue" stroke="midnightblue" points="770.56,-141.67 780.76,-138.82 771.01,-134.68 770.56,-141.67"/>
</g>
<!-- Node4 -->
<g id="node4" class="node">
<title>Node4</title>
<g id="a_node4"><a xlink:href="mxapplication_8h.html" target="_top" xlink:title=" ">
<polygon fill="none" stroke="black" points="362.5,-73 362.5,-92 494.5,-92 494.5,-73 362.5,-73"/>
<text text-anchor="middle" x="428.5" y="-80" font-family="Helvetica,sans-Serif" font-size="10.00">src/events/mxapplication.h</text>
</a>
</g>
</g>
<!-- Node3&#45;&gt;Node4 -->
<g id="edge3" class="edge">
<title>Node3&#45;&gt;Node4</title>
<path fill="none" stroke="midnightblue" d="M770.59,-133.91C699.73,-125.69 594.62,-112.67 503.5,-98 492.63,-96.25 480.93,-94.11 470.07,-92.02"/>
<polygon fill="midnightblue" stroke="midnightblue" points="770.46,-137.42 780.79,-135.09 771.26,-130.46 770.46,-137.42"/>
</g>
<!-- Node9 -->
<g id="node9" class="node">
<title>Node9</title>
<g id="a_node9"><a xlink:href="gui_2colorselector_2test__colorwheel_2testwindow_8h.html" target="_top" xlink:title=" ">
<polygon fill="none" stroke="black" points="512.5,-67.5 512.5,-97.5 660.5,-97.5 660.5,-67.5 512.5,-67.5"/>
<text text-anchor="start" x="520.5" y="-85.5" font-family="Helvetica,sans-Serif" font-size="10.00">src/gui/colorselector</text>
<text text-anchor="middle" x="586.5" y="-74.5" font-family="Helvetica,sans-Serif" font-size="10.00">/test_colorwheel/testwindow.h</text>
</a>
</g>
</g>
<!-- Node3&#45;&gt;Node9 -->
<g id="edge9" class="edge">
<title>Node3&#45;&gt;Node9</title>
<path fill="none" stroke="midnightblue" d="M804.63,-132.29C761.16,-122.57 696.76,-108.16 649.19,-97.52"/>
<polygon fill="midnightblue" stroke="midnightblue" points="803.87,-135.71 814.39,-134.48 805.39,-128.88 803.87,-135.71"/>
</g>
<!-- Node12 -->
<g id="node12" class="node">
<title>Node12</title>
<g id="a_node12"><a xlink:href="gpubuffer_8cpp.html" target="_top" xlink:title=" ">
<polygon fill="none" stroke="black" points="679,-73 679,-92 786,-92 786,-73 679,-73"/>
<text text-anchor="middle" x="732.5" y="-80" font-family="Helvetica,sans-Serif" font-size="10.00">src/gui/gpubuffer.cpp</text>
</a>
</g>
</g>
<!-- Node3&#45;&gt;Node12 -->
<g id="edge12" class="edge">
<title>Node3&#45;&gt;Node12</title>
<path fill="none" stroke="midnightblue" d="M826.32,-130.02C803.05,-118.48 769.7,-101.94 749.66,-92.01"/>
<polygon fill="midnightblue" stroke="midnightblue" points="824.79,-133.17 835.31,-134.48 827.9,-126.9 824.79,-133.17"/>
</g>
<!-- Node13 -->
<g id="node13" class="node">
<title>Node13</title>
<g id="a_node13"><a xlink:href="gpuvbo_8cpp.html" target="_top" xlink:title=" ">
<polygon fill="none" stroke="black" points="803.5,-73 803.5,-92 901.5,-92 901.5,-73 803.5,-73"/>
<text text-anchor="middle" x="852.5" y="-80" font-family="Helvetica,sans-Serif" font-size="10.00">src/gui/gpuvbo.cpp</text>
</a>
</g>
</g>
<!-- Node3&#45;&gt;Node13 -->
<g id="edge13" class="edge">
<title>Node3&#45;&gt;Node13</title>
<path fill="none" stroke="midnightblue" d="M852.5,-124.32C852.5,-113.5 852.5,-100.4 852.5,-92.01"/>
<polygon fill="midnightblue" stroke="midnightblue" points="849,-124.48 852.5,-134.48 856,-124.48 849,-124.48"/>
</g>
<!-- Node14 -->
<g id="node14" class="node">
<title>Node14</title>
<g id="a_node14"><a xlink:href="mxpainter_8cpp.html" target="_top" xlink:title=" ">
<polygon fill="none" stroke="black" points="920,-73 920,-92 1029,-92 1029,-73 920,-73"/>
<text text-anchor="middle" x="974.5" y="-80" font-family="Helvetica,sans-Serif" font-size="10.00">src/gui/mxpainter.cpp</text>
</a>
</g>
</g>
<!-- Node3&#45;&gt;Node14 -->
<g id="edge14" class="edge">
<title>Node3&#45;&gt;Node14</title>
<path fill="none" stroke="midnightblue" d="M879.11,-130.02C902.77,-118.48 936.68,-101.94 957.05,-92.01"/>
<polygon fill="midnightblue" stroke="midnightblue" points="877.43,-126.95 869.98,-134.48 880.5,-133.24 877.43,-126.95"/>
</g>
<!-- Node15 -->
<g id="node15" class="node">
<title>Node15</title>
<g id="a_node15"><a xlink:href="mxshaderprogram_8cpp.html" target="_top" xlink:title=" ">
<polygon fill="none" stroke="black" points="1047.5,-73 1047.5,-92 1191.5,-92 1191.5,-73 1047.5,-73"/>
<text text-anchor="middle" x="1119.5" y="-80" font-family="Helvetica,sans-Serif" font-size="10.00">src/gui/mxshaderprogram.cpp</text>
</a>
</g>
</g>
<!-- Node3&#45;&gt;Node15 -->
<g id="edge15" class="edge">
<title>Node3&#45;&gt;Node15</title>
<path fill="none" stroke="midnightblue" d="M900.7,-132.26C952.5,-120.72 1033.77,-102.61 1081.32,-92.01"/>
<polygon fill="midnightblue" stroke="midnightblue" points="899.75,-128.88 890.75,-134.48 901.28,-135.72 899.75,-128.88"/>
</g>
<!-- Node16 -->
<g id="node16" class="node">
<title>Node16</title>
<g id="a_node16"><a xlink:href="mxrenderer_8cpp.html" target="_top" xlink:title=" ">
<polygon fill="none" stroke="black" points="1210,-73 1210,-92 1363,-92 1363,-73 1210,-73"/>
<text text-anchor="middle" x="1286.5" y="-80" font-family="Helvetica,sans-Serif" font-size="10.00">src/gui/renderer/mxrenderer.cpp</text>
</a>
</g>
</g>
<!-- Node3&#45;&gt;Node16 -->
<g id="edge16" class="edge">
<title>Node3&#45;&gt;Node16</title>
<path fill="none" stroke="midnightblue" d="M934.42,-133.31C1005.02,-124.74 1109.62,-111.53 1200.5,-98 1212.63,-96.19 1225.69,-94.08 1237.89,-92.03"/>
<polygon fill="midnightblue" stroke="midnightblue" points="933.77,-129.86 924.26,-134.54 934.61,-136.81 933.77,-129.86"/>
</g>
<!-- Node17 -->
<g id="node17" class="node">
<title>Node17</title>
<g id="a_node17"><a xlink:href="mxvectordraw_8cpp.html" target="_top" xlink:title=" ">
<polygon fill="none" stroke="black" points="1381.5,-67.5 1381.5,-97.5 1479.5,-97.5 1479.5,-67.5 1381.5,-67.5"/>
<text text-anchor="start" x="1389.5" y="-85.5" font-family="Helvetica,sans-Serif" font-size="10.00">src/gui/vectordraw</text>
<text text-anchor="middle" x="1430.5" y="-74.5" font-family="Helvetica,sans-Serif" font-size="10.00">/mxvectordraw.cpp</text>
</a>
</g>
</g>
<!-- Node3&#45;&gt;Node17 -->
<g id="edge17" class="edge">
<title>Node3&#45;&gt;Node17</title>
<path fill="none" stroke="midnightblue" d="M934.03,-139.95C1036.84,-135.18 1218.76,-123.7 1372.5,-98 1375.37,-97.52 1378.3,-96.97 1381.25,-96.38"/>
<polygon fill="midnightblue" stroke="midnightblue" points="933.85,-136.45 924.02,-140.4 934.17,-143.44 933.85,-136.45"/>
</g>
<!-- Node18 -->
<g id="node18" class="node">
<title>Node18</title>
<g id="a_node18"><a xlink:href="mxvectorprogram_8cpp.html" target="_top" xlink:title=" ">
<polygon fill="none" stroke="black" points="1498,-67.5 1498,-97.5 1611,-97.5 1611,-67.5 1498,-67.5"/>
<text text-anchor="start" x="1506" y="-85.5" font-family="Helvetica,sans-Serif" font-size="10.00">src/gui/vectordraw</text>
<text text-anchor="middle" x="1554.5" y="-74.5" font-family="Helvetica,sans-Serif" font-size="10.00">/mxvectorprogram.cpp</text>
</a>
</g>
</g>
<!-- Node3&#45;&gt;Node18 -->
<g id="edge18" class="edge">
<title>Node3&#45;&gt;Node18</title>
<path fill="none" stroke="midnightblue" d="M934.74,-141C1056.34,-137.19 1291.03,-126.52 1488.5,-98 1491.52,-97.56 1494.61,-97.07 1497.71,-96.53"/>
<polygon fill="midnightblue" stroke="midnightblue" points="934.29,-137.52 924.4,-141.32 934.5,-144.51 934.29,-137.52"/>
</g>
<!-- Node5 -->
<g id="node5" class="node">
<title>Node5</title>
<g id="a_node5"><a xlink:href="mxapplication_8cpp.html" target="_top" xlink:title=" ">
<polygon fill="none" stroke="black" points="0,-6 0,-25 143,-25 143,-6 0,-6"/>
<text text-anchor="middle" x="71.5" y="-13" font-family="Helvetica,sans-Serif" font-size="10.00">src/events/mxapplication.cpp</text>
</a>
</g>
</g>
<!-- Node4&#45;&gt;Node5 -->
<g id="edge4" class="edge">
<title>Node4&#45;&gt;Node5</title>
<path fill="none" stroke="midnightblue" d="M374.61,-70.99C367.51,-69.63 360.33,-68.27 353.5,-67 350.62,-66.46 198.68,-39.27 119.06,-25.01"/>
<polygon fill="midnightblue" stroke="midnightblue" points="374.41,-74.51 384.89,-72.96 375.73,-67.64 374.41,-74.51"/>
</g>
<!-- Node6 -->
<g id="node6" class="node">
<title>Node6</title>
<g id="a_node6"><a xlink:href="qmewawindow_8cpp.html" target="_top" xlink:title=" ">
<polygon fill="none" stroke="black" points="161.5,-0.5 161.5,-30.5 277.5,-30.5 277.5,-0.5 161.5,-0.5"/>
<text text-anchor="start" x="169.5" y="-18.5" font-family="Helvetica,sans-Serif" font-size="10.00">src/platformabstraction</text>
<text text-anchor="middle" x="219.5" y="-7.5" font-family="Helvetica,sans-Serif" font-size="10.00">/qt/qmewawindow.cpp</text>
</a>
</g>
</g>
<!-- Node4&#45;&gt;Node6 -->
<g id="edge5" class="edge">
<title>Node4&#45;&gt;Node6</title>
<path fill="none" stroke="midnightblue" d="M390.8,-69.77C355.36,-58.75 302.28,-42.24 264.61,-30.53"/>
<polygon fill="midnightblue" stroke="midnightblue" points="390.16,-73.24 400.75,-72.87 392.24,-66.56 390.16,-73.24"/>
</g>
<!-- Node7 -->
<g id="node7" class="node">
<title>Node7</title>
<g id="a_node7"><a xlink:href="storewindow_2test__storebuttons_2main_8cpp.html" target="_top" xlink:title=" ">
<polygon fill="none" stroke="black" points="295.5,-0.5 295.5,-30.5 413.5,-30.5 413.5,-0.5 295.5,-0.5"/>
<text text-anchor="start" x="303.5" y="-18.5" font-family="Helvetica,sans-Serif" font-size="10.00">src/storewindow/test</text>
<text text-anchor="middle" x="354.5" y="-7.5" font-family="Helvetica,sans-Serif" font-size="10.00">_storebuttons/main.cpp</text>
</a>
</g>
</g>
<!-- Node4&#45;&gt;Node7 -->
<g id="edge6" class="edge">
<title>Node4&#45;&gt;Node7</title>
<path fill="none" stroke="midnightblue" d="M410.77,-65.93C398.53,-55.18 382.4,-41 370.54,-30.59"/>
<polygon fill="midnightblue" stroke="midnightblue" points="408.7,-68.76 418.52,-72.73 413.32,-63.5 408.7,-68.76"/>
</g>
<!-- Node8 -->
<g id="node8" class="node">
<title>Node8</title>
<g id="a_node8"><a xlink:href="storewindow_2test__storebuttons_2testwindow_8cpp.html" target="_top" xlink:title=" ">
<polygon fill="none" stroke="black" points="431.5,-0.5 431.5,-30.5 577.5,-30.5 577.5,-0.5 431.5,-0.5"/>
<text text-anchor="start" x="439.5" y="-18.5" font-family="Helvetica,sans-Serif" font-size="10.00">src/storewindow/test</text>
<text text-anchor="middle" x="504.5" y="-7.5" font-family="Helvetica,sans-Serif" font-size="10.00">_storebuttons/testwindow.cpp</text>
</a>
</g>
</g>
<!-- Node4&#45;&gt;Node8 -->
<g id="edge7" class="edge">
<title>Node4&#45;&gt;Node8</title>
<path fill="none" stroke="midnightblue" d="M446.71,-65.93C459.28,-55.18 475.85,-41 488.03,-30.59"/>
<polygon fill="midnightblue" stroke="midnightblue" points="444.07,-63.57 438.75,-72.73 448.62,-68.89 444.07,-63.57"/>
</g>
<!-- Node10 -->
<g id="node10" class="node">
<title>Node10</title>
<g id="a_node10"><a xlink:href="gui_2colorselector_2test__colorwheel_2main_8cpp.html" target="_top" xlink:title=" ">
<polygon fill="none" stroke="black" points="595.5,-0.5 595.5,-30.5 725.5,-30.5 725.5,-0.5 595.5,-0.5"/>
<text text-anchor="start" x="603.5" y="-18.5" font-family="Helvetica,sans-Serif" font-size="10.00">src/gui/colorselector</text>
<text text-anchor="middle" x="660.5" y="-7.5" font-family="Helvetica,sans-Serif" font-size="10.00">/test_colorwheel/main.cpp</text>
</a>
</g>
</g>
<!-- Node9&#45;&gt;Node10 -->
<g id="edge10" class="edge">
<title>Node9&#45;&gt;Node10</title>
<path fill="none" stroke="midnightblue" d="M610.3,-60.6C621.47,-50.78 634.49,-39.34 644.47,-30.58"/>
<polygon fill="midnightblue" stroke="midnightblue" points="607.76,-58.17 602.56,-67.4 612.38,-63.43 607.76,-58.17"/>
</g>
<!-- Node11 -->
<g id="node11" class="node">
<title>Node11</title>
<g id="a_node11"><a xlink:href="gui_2colorselector_2test__colorwheel_2testwindow_8cpp.html" target="_top" xlink:title=" ">
<polygon fill="none" stroke="black" points="743.5,-0.5 743.5,-30.5 901.5,-30.5 901.5,-0.5 743.5,-0.5"/>
<text text-anchor="start" x="751.5" y="-18.5" font-family="Helvetica,sans-Serif" font-size="10.00">src/gui/colorselector</text>
<text text-anchor="middle" x="822.5" y="-7.5" font-family="Helvetica,sans-Serif" font-size="10.00">/test_colorwheel/testwindow.cpp</text>
</a>
</g>
</g>
<!-- Node9&#45;&gt;Node11 -->
<g id="edge11" class="edge">
<title>Node9&#45;&gt;Node11</title>
<path fill="none" stroke="midnightblue" d="M647.44,-64.71C685.85,-54.14 734.87,-40.63 771.27,-30.61"/>
<polygon fill="midnightblue" stroke="midnightblue" points="646.13,-61.45 637.42,-67.48 647.99,-68.19 646.13,-61.45"/>
</g>
</g>
</svg>
