<?xml version="1.0" encoding="UTF-8" standalone="no"?>
<!DOCTYPE svg PUBLIC "-//W3C//DTD SVG 1.1//EN"
 "http://www.w3.org/Graphics/SVG/1.1/DTD/svg11.dtd">
<!-- Generated by graphviz version 2.44.0 ()
 -->
<!-- Title: src/renderer/opengl/colorwheelprogram/mxcolorwheelprogram.h Pages: 1 -->
<svg width="315pt" height="207pt"
 viewBox="0.00 0.00 315.00 207.00" xmlns="http://www.w3.org/2000/svg" xmlns:xlink="http://www.w3.org/1999/xlink">
<g id="graph0" class="graph" transform="scale(1 1) rotate(0) translate(4 203)">
<title>src/renderer/opengl/colorwheelprogram/mxcolorwheelprogram.h</title>
<!-- Node1 -->
<g id="node1" class="node">
<title>Node1</title>
<g id="a_node1"><a xlink:title=" ">
<polygon fill="#bfbfbf" stroke="black" points="0,-168.5 0,-198.5 206,-198.5 206,-168.5 0,-168.5"/>
<text text-anchor="start" x="8" y="-186.5" font-family="Helvetica,sans-Serif" font-size="10.00">src/renderer/opengl</text>
<text text-anchor="middle" x="103" y="-175.5" font-family="Helvetica,sans-Serif" font-size="10.00">/colorwheelprogram/mxcolorwheelprogram.h</text>
</a>
</g>
</g>
<!-- Node2 -->
<g id="node2" class="node">
<title>Node2</title>
<g id="a_node2"><a xlink:title=" ">
<polygon fill="none" stroke="#bfbfbf" points="109.5,-0.5 109.5,-19.5 172.5,-19.5 172.5,-0.5 109.5,-0.5"/>
<text text-anchor="middle" x="141" y="-7.5" font-family="Helvetica,sans-Serif" font-size="10.00">mxdebug.h</text>
</a>
</g>
</g>
<!-- Node1&#45;&gt;Node2 -->
<g id="edge1" class="edge">
<title>Node1&#45;&gt;Node2</title>
<path fill="none" stroke="midnightblue" d="M50.31,-168.45C32.09,-160.79 13.6,-149.23 3,-132 -1.66,-124.43 2.06,-120.84 3,-112 5.68,-86.69 -1.77,-75.15 15,-56 36.27,-31.73 71.56,-20.54 99.4,-15.4"/>
<polygon fill="midnightblue" stroke="midnightblue" points="99.98,-18.85 109.27,-13.76 98.83,-11.94 99.98,-18.85"/>
</g>
<!-- Node3 -->
<g id="node3" class="node">
<title>Node3</title>
<g id="a_node3"><a xlink:href="mxgpuprogram_8h.html" target="_top" xlink:title=" ">
<polygon fill="none" stroke="black" points="12,-112.5 12,-131.5 100,-131.5 100,-112.5 12,-112.5"/>
<text text-anchor="middle" x="56" y="-119.5" font-family="Helvetica,sans-Serif" font-size="10.00">mxgpuprogram.h</text>
</a>
</g>
</g>
<!-- Node1&#45;&gt;Node3 -->
<g id="edge2" class="edge">
<title>Node1&#45;&gt;Node3</title>
<path fill="none" stroke="midnightblue" d="M91.86,-168.4C85.03,-159.75 76.26,-148.64 69.09,-139.58"/>
<polygon fill="midnightblue" stroke="midnightblue" points="71.78,-137.34 62.84,-131.66 66.29,-141.67 71.78,-137.34"/>
</g>
<!-- Node5 -->
<g id="node5" class="node">
<title>Node5</title>
<g id="a_node5"><a xlink:href="mxmatrix_8h.html" target="_top" xlink:title=" ">
<polygon fill="none" stroke="black" points="118.5,-112.5 118.5,-131.5 181.5,-131.5 181.5,-112.5 118.5,-112.5"/>
<text text-anchor="middle" x="150" y="-119.5" font-family="Helvetica,sans-Serif" font-size="10.00">mxmatrix.h</text>
</a>
</g>
</g>
<!-- Node1&#45;&gt;Node5 -->
<g id="edge4" class="edge">
<title>Node1&#45;&gt;Node5</title>
<path fill="none" stroke="midnightblue" d="M114.14,-168.4C120.97,-159.75 129.74,-148.64 136.91,-139.58"/>
<polygon fill="midnightblue" stroke="midnightblue" points="139.71,-141.67 143.16,-131.66 134.22,-137.34 139.71,-141.67"/>
</g>
<!-- Node6 -->
<g id="node6" class="node">
<title>Node6</title>
<g id="a_node6"><a xlink:href="mxrect_8h.html" target="_top" xlink:title=" ">
<polygon fill="none" stroke="black" points="199.5,-112.5 199.5,-131.5 252.5,-131.5 252.5,-112.5 199.5,-112.5"/>
<text text-anchor="middle" x="226" y="-119.5" font-family="Helvetica,sans-Serif" font-size="10.00">mxrect.h</text>
</a>
</g>
</g>
<!-- Node1&#45;&gt;Node6 -->
<g id="edge5" class="edge">
<title>Node1&#45;&gt;Node6</title>
<path fill="none" stroke="midnightblue" d="M132.15,-168.4C152.42,-158.59 179.24,-145.62 199.02,-136.05"/>
<polygon fill="midnightblue" stroke="midnightblue" points="200.62,-139.16 208.1,-131.66 197.58,-132.86 200.62,-139.16"/>
</g>
<!-- Node4 -->
<g id="node4" class="node">
<title>Node4</title>
<g id="a_node4"><a xlink:title=" ">
<polygon fill="none" stroke="#bfbfbf" points="23.5,-56.5 23.5,-75.5 88.5,-75.5 88.5,-56.5 23.5,-56.5"/>
<text text-anchor="middle" x="56" y="-63.5" font-family="Helvetica,sans-Serif" font-size="10.00">mxopengl.h</text>
</a>
</g>
</g>
<!-- Node3&#45;&gt;Node4 -->
<g id="edge3" class="edge">
<title>Node3&#45;&gt;Node4</title>
<path fill="none" stroke="midnightblue" d="M56,-112.08C56,-105.01 56,-94.86 56,-85.99"/>
<polygon fill="midnightblue" stroke="midnightblue" points="59.5,-85.75 56,-75.75 52.5,-85.75 59.5,-85.75"/>
</g>
<!-- Node6&#45;&gt;Node2 -->
<g id="edge6" class="edge">
<title>Node6&#45;&gt;Node2</title>
<path fill="none" stroke="midnightblue" d="M206.81,-112.44C191.97,-104.88 171.98,-92.49 160,-76 150.17,-62.48 145.4,-43.92 143.1,-30.1"/>
<polygon fill="midnightblue" stroke="midnightblue" points="146.52,-29.25 141.69,-19.81 139.58,-30.2 146.52,-29.25"/>
</g>
<!-- Node7 -->
<g id="node7" class="node">
<title>Node7</title>
<g id="a_node7"><a xlink:href="mxvector_8h.html" target="_top" xlink:title=" ">
<polygon fill="none" stroke="black" points="169,-56.5 169,-75.5 233,-75.5 233,-56.5 169,-56.5"/>
<text text-anchor="middle" x="201" y="-63.5" font-family="Helvetica,sans-Serif" font-size="10.00">mxvector.h</text>
</a>
</g>
</g>
<!-- Node6&#45;&gt;Node7 -->
<g id="edge7" class="edge">
<title>Node6&#45;&gt;Node7</title>
<path fill="none" stroke="midnightblue" d="M221.87,-112.08C218.49,-104.77 213.58,-94.18 209.38,-85.1"/>
<polygon fill="midnightblue" stroke="midnightblue" points="212.43,-83.36 205.05,-75.75 206.08,-86.3 212.43,-83.36"/>
</g>
<!-- Node8 -->
<g id="node8" class="node">
<title>Node8</title>
<g id="a_node8"><a xlink:title=" ">
<polygon fill="none" stroke="#bfbfbf" points="251,-56.5 251,-75.5 307,-75.5 307,-56.5 251,-56.5"/>
<text text-anchor="middle" x="279" y="-63.5" font-family="Helvetica,sans-Serif" font-size="10.00">algorithm</text>
</a>
</g>
</g>
<!-- Node6&#45;&gt;Node8 -->
<g id="edge9" class="edge">
<title>Node6&#45;&gt;Node8</title>
<path fill="none" stroke="midnightblue" d="M234.75,-112.08C242.47,-104.22 253.9,-92.57 263.22,-83.08"/>
<polygon fill="midnightblue" stroke="midnightblue" points="265.9,-85.34 270.41,-75.75 260.91,-80.44 265.9,-85.34"/>
</g>
<!-- Node7&#45;&gt;Node2 -->
<g id="edge8" class="edge">
<title>Node7&#45;&gt;Node2</title>
<path fill="none" stroke="midnightblue" d="M191.36,-56.32C182.49,-48.34 169.13,-36.31 158.39,-26.65"/>
<polygon fill="midnightblue" stroke="midnightblue" points="160.59,-23.92 150.82,-19.83 155.91,-29.13 160.59,-23.92"/>
</g>
</g>
</svg>
