<?xml version="1.0" encoding="UTF-8" standalone="no"?>
<!DOCTYPE svg PUBLIC "-//W3C//DTD SVG 1.1//EN"
 "http://www.w3.org/Graphics/SVG/1.1/DTD/svg11.dtd">
<!-- Generated by graphviz version 2.44.0 ()
 -->
<!-- Title: src/renderer/opengl/colorwheelprogram/mxcolorwheelprogram.cpp Pages: 1 -->
<svg width="425pt" height="263pt"
 viewBox="0.00 0.00 425.24 263.00" xmlns="http://www.w3.org/2000/svg" xmlns:xlink="http://www.w3.org/1999/xlink">
<g id="graph0" class="graph" transform="scale(1 1) rotate(0) translate(4 259)">
<title>src/renderer/opengl/colorwheelprogram/mxcolorwheelprogram.cpp</title>
<!-- Node1 -->
<g id="node1" class="node">
<title>Node1</title>
<g id="a_node1"><a xlink:title=" ">
<polygon fill="#bfbfbf" stroke="black" points="36.74,-224.5 36.74,-254.5 253.74,-254.5 253.74,-224.5 36.74,-224.5"/>
<text text-anchor="start" x="44.74" y="-242.5" font-family="Helvetica,sans-Serif" font-size="10.00">src/renderer/opengl</text>
<text text-anchor="middle" x="145.24" y="-231.5" font-family="Helvetica,sans-Serif" font-size="10.00">/colorwheelprogram/mxcolorwheelprogram.cpp</text>
</a>
</g>
</g>
<!-- Node2 -->
<g id="node2" class="node">
<title>Node2</title>
<g id="a_node2"><a xlink:title=" ">
<polygon fill="none" stroke="#bfbfbf" points="14.74,-0.5 14.74,-19.5 77.74,-19.5 77.74,-0.5 14.74,-0.5"/>
<text text-anchor="middle" x="46.24" y="-7.5" font-family="Helvetica,sans-Serif" font-size="10.00">mxdebug.h</text>
</a>
</g>
</g>
<!-- Node1&#45;&gt;Node2 -->
<g id="edge1" class="edge">
<title>Node1&#45;&gt;Node2</title>
<path fill="none" stroke="midnightblue" d="M70.52,-224.49C50.64,-217.01 31.34,-205.56 19.24,-188 -14.07,-139.7 3.07,-112.4 19.24,-56 22.12,-45.95 27.84,-35.86 33.29,-27.79"/>
<polygon fill="midnightblue" stroke="midnightblue" points="36.14,-29.81 39.14,-19.65 30.46,-25.73 36.14,-29.81"/>
</g>
<!-- Node3 -->
<g id="node3" class="node">
<title>Node3</title>
<g id="a_node3"><a xlink:href="mxcolorwheelprogram_8h.html" target="_top" xlink:title=" ">
<polygon fill="none" stroke="black" points="28.74,-168.5 28.74,-187.5 147.74,-187.5 147.74,-168.5 28.74,-168.5"/>
<text text-anchor="middle" x="88.24" y="-175.5" font-family="Helvetica,sans-Serif" font-size="10.00">mxcolorwheelprogram.h</text>
</a>
</g>
</g>
<!-- Node1&#45;&gt;Node3 -->
<g id="edge2" class="edge">
<title>Node1&#45;&gt;Node3</title>
<path fill="none" stroke="midnightblue" d="M131.73,-224.4C123.27,-215.58 112.36,-204.18 103.58,-195.02"/>
<polygon fill="midnightblue" stroke="midnightblue" points="105.98,-192.46 96.53,-187.66 100.92,-197.3 105.98,-192.46"/>
</g>
<!-- Node11 -->
<g id="node11" class="node">
<title>Node11</title>
<g id="a_node11"><a xlink:title=" ">
<polygon fill="none" stroke="#bfbfbf" points="166.24,-168.5 166.24,-187.5 238.24,-187.5 238.24,-168.5 166.24,-168.5"/>
<text text-anchor="middle" x="202.24" y="-175.5" font-family="Helvetica,sans-Serif" font-size="10.00">mxrenderer.h</text>
</a>
</g>
</g>
<!-- Node1&#45;&gt;Node11 -->
<g id="edge14" class="edge">
<title>Node1&#45;&gt;Node11</title>
<path fill="none" stroke="midnightblue" d="M158.74,-224.4C167.2,-215.58 178.11,-204.18 186.89,-195.02"/>
<polygon fill="midnightblue" stroke="midnightblue" points="189.55,-197.3 193.94,-187.66 184.5,-192.46 189.55,-197.3"/>
</g>
<!-- Node12 -->
<g id="node12" class="node">
<title>Node12</title>
<g id="a_node12"><a xlink:title=" ">
<polygon fill="none" stroke="#bfbfbf" points="256.24,-168.5 256.24,-187.5 300.24,-187.5 300.24,-168.5 256.24,-168.5"/>
<text text-anchor="middle" x="278.24" y="-175.5" font-family="Helvetica,sans-Serif" font-size="10.00">cmath</text>
</a>
</g>
</g>
<!-- Node1&#45;&gt;Node12 -->
<g id="edge15" class="edge">
<title>Node1&#45;&gt;Node12</title>
<path fill="none" stroke="midnightblue" d="M176.76,-224.4C198.87,-214.51 228.2,-201.38 249.64,-191.79"/>
<polygon fill="midnightblue" stroke="midnightblue" points="251.18,-194.94 258.88,-187.66 248.33,-188.55 251.18,-194.94"/>
</g>
<!-- Node3&#45;&gt;Node2 -->
<g id="edge3" class="edge">
<title>Node3&#45;&gt;Node2</title>
<path fill="none" stroke="midnightblue" d="M68.94,-168.48C54.81,-161.08 36.68,-148.89 28.24,-132 11.45,-98.42 26.42,-53.53 37.3,-28.96"/>
<polygon fill="midnightblue" stroke="midnightblue" points="40.54,-30.3 41.61,-19.76 34.2,-27.33 40.54,-30.3"/>
</g>
<!-- Node4 -->
<g id="node4" class="node">
<title>Node4</title>
<g id="a_node4"><a xlink:href="mxshaderprogram_8h.html" target="_top" xlink:title=" ">
<polygon fill="none" stroke="black" points="37.74,-112.5 37.74,-131.5 138.74,-131.5 138.74,-112.5 37.74,-112.5"/>
<text text-anchor="middle" x="88.24" y="-119.5" font-family="Helvetica,sans-Serif" font-size="10.00">mxshaderprogram.h</text>
</a>
</g>
</g>
<!-- Node3&#45;&gt;Node4 -->
<g id="edge4" class="edge">
<title>Node3&#45;&gt;Node4</title>
<path fill="none" stroke="midnightblue" d="M88.24,-168.08C88.24,-161.01 88.24,-150.86 88.24,-141.99"/>
<polygon fill="midnightblue" stroke="midnightblue" points="91.74,-141.75 88.24,-131.75 84.74,-141.75 91.74,-141.75"/>
</g>
<!-- Node6 -->
<g id="node6" class="node">
<title>Node6</title>
<g id="a_node6"><a xlink:href="mxmatrix_8h.html" target="_top" xlink:title=" ">
<polygon fill="none" stroke="black" points="157.74,-112.5 157.74,-131.5 220.74,-131.5 220.74,-112.5 157.74,-112.5"/>
<text text-anchor="middle" x="189.24" y="-119.5" font-family="Helvetica,sans-Serif" font-size="10.00">mxmatrix.h</text>
</a>
</g>
</g>
<!-- Node3&#45;&gt;Node6 -->
<g id="edge7" class="edge">
<title>Node3&#45;&gt;Node6</title>
<path fill="none" stroke="midnightblue" d="M104.46,-168.32C120.59,-159.7 145.54,-146.36 164.2,-136.39"/>
<polygon fill="midnightblue" stroke="midnightblue" points="165.88,-139.46 173.05,-131.65 162.58,-133.28 165.88,-139.46"/>
</g>
<!-- Node8 -->
<g id="node8" class="node">
<title>Node8</title>
<g id="a_node8"><a xlink:href="mxrect_8h.html" target="_top" xlink:title=" ">
<polygon fill="none" stroke="black" points="261.74,-112.5 261.74,-131.5 314.74,-131.5 314.74,-112.5 261.74,-112.5"/>
<text text-anchor="middle" x="288.24" y="-119.5" font-family="Helvetica,sans-Serif" font-size="10.00">mxrect.h</text>
</a>
</g>
</g>
<!-- Node3&#45;&gt;Node8 -->
<g id="edge9" class="edge">
<title>Node3&#45;&gt;Node8</title>
<path fill="none" stroke="midnightblue" d="M119.93,-168.44C155.67,-158.79 213.71,-143.12 251.43,-132.94"/>
<polygon fill="midnightblue" stroke="midnightblue" points="252.75,-136.21 261.49,-130.22 250.93,-129.45 252.75,-136.21"/>
</g>
<!-- Node4&#45;&gt;Node2 -->
<g id="edge5" class="edge">
<title>Node4&#45;&gt;Node2</title>
<path fill="none" stroke="midnightblue" d="M83.15,-112.26C78.11,-103.36 70.42,-89.04 65.24,-76 59.13,-60.64 54,-42.54 50.61,-29.35"/>
<polygon fill="midnightblue" stroke="midnightblue" points="54,-28.45 48.2,-19.59 47.2,-30.13 54,-28.45"/>
</g>
<!-- Node5 -->
<g id="node5" class="node">
<title>Node5</title>
<g id="a_node5"><a xlink:href="mxopengl_8h.html" target="_top" xlink:title=" ">
<polygon fill="none" stroke="black" points="74.74,-56.5 74.74,-75.5 139.74,-75.5 139.74,-56.5 74.74,-56.5"/>
<text text-anchor="middle" x="107.24" y="-63.5" font-family="Helvetica,sans-Serif" font-size="10.00">mxopengl.h</text>
</a>
</g>
</g>
<!-- Node4&#45;&gt;Node5 -->
<g id="edge6" class="edge">
<title>Node4&#45;&gt;Node5</title>
<path fill="none" stroke="midnightblue" d="M91.37,-112.08C93.92,-104.85 97.59,-94.41 100.76,-85.4"/>
<polygon fill="midnightblue" stroke="midnightblue" points="104.14,-86.35 104.16,-75.75 97.54,-84.02 104.14,-86.35"/>
</g>
<!-- Node7 -->
<g id="node7" class="node">
<title>Node7</title>
<g id="a_node7"><a xlink:title=" ">
<polygon fill="none" stroke="#bfbfbf" points="157.74,-56.5 157.74,-75.5 222.74,-75.5 222.74,-56.5 157.74,-56.5"/>
<text text-anchor="middle" x="190.24" y="-63.5" font-family="Helvetica,sans-Serif" font-size="10.00">QMatrix4x4</text>
</a>
</g>
</g>
<!-- Node6&#45;&gt;Node7 -->
<g id="edge8" class="edge">
<title>Node6&#45;&gt;Node7</title>
<path fill="none" stroke="midnightblue" d="M189.4,-112.08C189.53,-105.01 189.72,-94.86 189.88,-85.99"/>
<polygon fill="midnightblue" stroke="midnightblue" points="193.39,-85.81 190.07,-75.75 186.39,-85.68 193.39,-85.81"/>
</g>
<!-- Node8&#45;&gt;Node2 -->
<g id="edge10" class="edge">
<title>Node8&#45;&gt;Node2</title>
<path fill="none" stroke="midnightblue" d="M283.14,-112.32C274.38,-98.22 255.11,-70.47 231.24,-56 186.86,-29.11 127.35,-18.28 87.95,-13.92"/>
<polygon fill="midnightblue" stroke="midnightblue" points="88.19,-10.43 77.89,-12.9 87.49,-17.39 88.19,-10.43"/>
</g>
<!-- Node9 -->
<g id="node9" class="node">
<title>Node9</title>
<g id="a_node9"><a xlink:href="mxvector_8h.html" target="_top" xlink:title=" ">
<polygon fill="none" stroke="black" points="279.24,-56.5 279.24,-75.5 343.24,-75.5 343.24,-56.5 279.24,-56.5"/>
<text text-anchor="middle" x="311.24" y="-63.5" font-family="Helvetica,sans-Serif" font-size="10.00">mxvector.h</text>
</a>
</g>
</g>
<!-- Node8&#45;&gt;Node9 -->
<g id="edge11" class="edge">
<title>Node8&#45;&gt;Node9</title>
<path fill="none" stroke="midnightblue" d="M292.03,-112.08C295.15,-104.77 299.66,-94.18 303.53,-85.1"/>
<polygon fill="midnightblue" stroke="midnightblue" points="306.81,-86.32 307.51,-75.75 300.37,-83.58 306.81,-86.32"/>
</g>
<!-- Node10 -->
<g id="node10" class="node">
<title>Node10</title>
<g id="a_node10"><a xlink:title=" ">
<polygon fill="none" stroke="#bfbfbf" points="361.24,-56.5 361.24,-75.5 417.24,-75.5 417.24,-56.5 361.24,-56.5"/>
<text text-anchor="middle" x="389.24" y="-63.5" font-family="Helvetica,sans-Serif" font-size="10.00">algorithm</text>
</a>
</g>
</g>
<!-- Node8&#45;&gt;Node10 -->
<g id="edge13" class="edge">
<title>Node8&#45;&gt;Node10</title>
<path fill="none" stroke="midnightblue" d="M304.46,-112.32C320.59,-103.7 345.54,-90.36 364.2,-80.39"/>
<polygon fill="midnightblue" stroke="midnightblue" points="365.88,-83.46 373.05,-75.65 362.58,-77.28 365.88,-83.46"/>
</g>
<!-- Node9&#45;&gt;Node2 -->
<g id="edge12" class="edge">
<title>Node9&#45;&gt;Node2</title>
<path fill="none" stroke="midnightblue" d="M279.01,-58.43C231.03,-48.66 140.82,-30.27 87.89,-19.49"/>
<polygon fill="midnightblue" stroke="midnightblue" points="88.33,-16.01 77.83,-17.44 86.93,-22.86 88.33,-16.01"/>
</g>
</g>
</svg>
