<?xml version="1.0" encoding="UTF-8" standalone="no"?>
<!DOCTYPE svg PUBLIC "-//W3C//DTD SVG 1.1//EN"
 "http://www.w3.org/Graphics/SVG/1.1/DTD/svg11.dtd">
<!-- Generated by graphviz version 2.44.0 ()
 -->
<!-- Title: src/gui/colorselector/mxcolorwheelprogram.cpp Pages: 1 -->
<svg width="741pt" height="487pt"
 viewBox="0.00 0.00 741.00 487.00" xmlns="http://www.w3.org/2000/svg" xmlns:xlink="http://www.w3.org/1999/xlink">
<g id="graph0" class="graph" transform="scale(1 1) rotate(0) translate(4 483)">
<title>src/gui/colorselector/mxcolorwheelprogram.cpp</title>
<!-- Node1 -->
<g id="node1" class="node">
<title>Node1</title>
<g id="a_node1"><a xlink:title=" ">
<polygon fill="#bfbfbf" stroke="black" points="512,-448.5 512,-478.5 644,-478.5 644,-448.5 512,-448.5"/>
<text text-anchor="start" x="520" y="-466.5" font-family="Helvetica,sans-Serif" font-size="10.00">src/gui/colorselector</text>
<text text-anchor="middle" x="578" y="-455.5" font-family="Helvetica,sans-Serif" font-size="10.00">/mxcolorwheelprogram.cpp</text>
</a>
</g>
</g>
<!-- Node2 -->
<g id="node2" class="node">
<title>Node2</title>
<g id="a_node2"><a xlink:href="mxdebug_8h.html" target="_top" xlink:title=" ">
<polygon fill="none" stroke="black" points="177.5,-56.5 177.5,-75.5 240.5,-75.5 240.5,-56.5 177.5,-56.5"/>
<text text-anchor="middle" x="209" y="-63.5" font-family="Helvetica,sans-Serif" font-size="10.00">mxdebug.h</text>
</a>
</g>
</g>
<!-- Node1&#45;&gt;Node2 -->
<g id="edge1" class="edge">
<title>Node1&#45;&gt;Node2</title>
<path fill="none" stroke="midnightblue" d="M511.98,-463.05C360.32,-462.53 0,-450.42 0,-347 0,-347 0,-347 0,-177 0,-102.19 106.15,-78.14 167.15,-70.5"/>
<polygon fill="midnightblue" stroke="midnightblue" points="167.73,-73.95 177.26,-69.33 166.92,-67 167.73,-73.95"/>
</g>
<!-- Node4 -->
<g id="node4" class="node">
<title>Node4</title>
<g id="a_node4"><a xlink:href="mxcolorwheelprogram_8h.html" target="_top" xlink:title=" ">
<polygon fill="none" stroke="black" points="535.5,-224.5 535.5,-243.5 654.5,-243.5 654.5,-224.5 535.5,-224.5"/>
<text text-anchor="middle" x="595" y="-231.5" font-family="Helvetica,sans-Serif" font-size="10.00">mxcolorwheelprogram.h</text>
</a>
</g>
</g>
<!-- Node1&#45;&gt;Node4 -->
<g id="edge3" class="edge">
<title>Node1&#45;&gt;Node4</title>
<path fill="none" stroke="midnightblue" d="M584.52,-448.39C593.48,-428.33 609.35,-390.2 617,-356 622.45,-331.61 620.89,-324.96 622,-300 622.4,-291.12 624.37,-288.57 622,-280 619.21,-269.92 613.49,-259.83 608.03,-251.77"/>
<polygon fill="midnightblue" stroke="midnightblue" points="610.85,-249.69 602.15,-243.64 605.18,-253.79 610.85,-249.69"/>
</g>
<!-- Node12 -->
<g id="node12" class="node">
<title>Node12</title>
<g id="a_node12"><a xlink:href="mxrenderer_8h.html" target="_top" xlink:title=" ">
<polygon fill="none" stroke="black" points="504,-392.5 504,-411.5 576,-411.5 576,-392.5 504,-392.5"/>
<text text-anchor="middle" x="540" y="-399.5" font-family="Helvetica,sans-Serif" font-size="10.00">mxrenderer.h</text>
</a>
</g>
</g>
<!-- Node1&#45;&gt;Node12 -->
<g id="edge16" class="edge">
<title>Node1&#45;&gt;Node12</title>
<path fill="none" stroke="midnightblue" d="M568.99,-448.4C563.59,-439.93 556.67,-429.1 550.95,-420.14"/>
<polygon fill="midnightblue" stroke="midnightblue" points="553.86,-418.2 545.53,-411.66 547.96,-421.97 553.86,-418.2"/>
</g>
<!-- Node23 -->
<g id="node23" class="node">
<title>Node23</title>
<g id="a_node23"><a xlink:title=" ">
<polygon fill="none" stroke="#bfbfbf" points="689,-392.5 689,-411.5 733,-411.5 733,-392.5 689,-392.5"/>
<text text-anchor="middle" x="711" y="-399.5" font-family="Helvetica,sans-Serif" font-size="10.00">cmath</text>
</a>
</g>
</g>
<!-- Node1&#45;&gt;Node23 -->
<g id="edge35" class="edge">
<title>Node1&#45;&gt;Node23</title>
<path fill="none" stroke="midnightblue" d="M609.52,-448.4C631.64,-438.51 660.97,-425.38 682.41,-415.79"/>
<polygon fill="midnightblue" stroke="midnightblue" points="683.95,-418.94 691.65,-411.66 681.09,-412.55 683.95,-418.94"/>
</g>
<!-- Node3 -->
<g id="node3" class="node">
<title>Node3</title>
<g id="a_node3"><a xlink:title=" ">
<polygon fill="none" stroke="#bfbfbf" points="183,-0.5 183,-19.5 235,-19.5 235,-0.5 183,-0.5"/>
<text text-anchor="middle" x="209" y="-7.5" font-family="Helvetica,sans-Serif" font-size="10.00">QDebug</text>
</a>
</g>
</g>
<!-- Node2&#45;&gt;Node3 -->
<g id="edge2" class="edge">
<title>Node2&#45;&gt;Node3</title>
<path fill="none" stroke="midnightblue" d="M209,-56.08C209,-49.01 209,-38.86 209,-29.99"/>
<polygon fill="midnightblue" stroke="midnightblue" points="212.5,-29.75 209,-19.75 205.5,-29.75 212.5,-29.75"/>
</g>
<!-- Node4&#45;&gt;Node2 -->
<g id="edge4" class="edge">
<title>Node4&#45;&gt;Node2</title>
<path fill="none" stroke="midnightblue" d="M596.47,-224.41C599.73,-202.15 604.97,-142.2 573,-112 549.9,-90.18 341.55,-75.03 250.86,-69.41"/>
<polygon fill="midnightblue" stroke="midnightblue" points="250.85,-65.91 240.66,-68.79 250.43,-72.89 250.85,-65.91"/>
</g>
<!-- Node5 -->
<g id="node5" class="node">
<title>Node5</title>
<g id="a_node5"><a xlink:href="mxopengl_8h.html" target="_top" xlink:title=" ">
<polygon fill="none" stroke="black" points="438.5,-56.5 438.5,-75.5 503.5,-75.5 503.5,-56.5 438.5,-56.5"/>
<text text-anchor="middle" x="471" y="-63.5" font-family="Helvetica,sans-Serif" font-size="10.00">mxopengl.h</text>
</a>
</g>
</g>
<!-- Node4&#45;&gt;Node5 -->
<g id="edge5" class="edge">
<title>Node4&#45;&gt;Node5</title>
<path fill="none" stroke="midnightblue" d="M599.63,-224.37C610.4,-203.02 634.34,-146.91 609,-112 587.43,-82.28 545.7,-71.81 513.75,-68.31"/>
<polygon fill="midnightblue" stroke="midnightblue" points="514.03,-64.82 503.76,-67.4 513.4,-71.79 514.03,-64.82"/>
</g>
<!-- Node6 -->
<g id="node6" class="node">
<title>Node6</title>
<g id="a_node6"><a xlink:href="mxshaderprogram_8h.html" target="_top" xlink:title=" ">
<polygon fill="none" stroke="black" points="341.5,-112.5 341.5,-131.5 442.5,-131.5 442.5,-112.5 341.5,-112.5"/>
<text text-anchor="middle" x="392" y="-119.5" font-family="Helvetica,sans-Serif" font-size="10.00">mxshaderprogram.h</text>
</a>
</g>
</g>
<!-- Node4&#45;&gt;Node6 -->
<g id="edge6" class="edge">
<title>Node4&#45;&gt;Node6</title>
<path fill="none" stroke="midnightblue" d="M589.67,-224.49C580.56,-210.64 560.66,-183.22 537,-168 511.33,-151.49 479.22,-140.71 451.75,-133.85"/>
<polygon fill="midnightblue" stroke="midnightblue" points="452.4,-130.41 441.86,-131.5 450.78,-137.22 452.4,-130.41"/>
</g>
<!-- Node7 -->
<g id="node7" class="node">
<title>Node7</title>
<g id="a_node7"><a xlink:href="mxmatrix_8h.html" target="_top" xlink:title=" ">
<polygon fill="none" stroke="black" points="465.5,-168.5 465.5,-187.5 528.5,-187.5 528.5,-168.5 465.5,-168.5"/>
<text text-anchor="middle" x="497" y="-175.5" font-family="Helvetica,sans-Serif" font-size="10.00">mxmatrix.h</text>
</a>
</g>
</g>
<!-- Node4&#45;&gt;Node7 -->
<g id="edge9" class="edge">
<title>Node4&#45;&gt;Node7</title>
<path fill="none" stroke="midnightblue" d="M579.25,-224.32C563.68,-215.74 539.62,-202.49 521.54,-192.52"/>
<polygon fill="midnightblue" stroke="midnightblue" points="523.15,-189.42 512.71,-187.65 519.78,-195.55 523.15,-189.42"/>
</g>
<!-- Node9 -->
<g id="node9" class="node">
<title>Node9</title>
<g id="a_node9"><a xlink:href="mxrect_8h.html" target="_top" xlink:title=" ">
<polygon fill="none" stroke="black" points="267.5,-168.5 267.5,-187.5 320.5,-187.5 320.5,-168.5 267.5,-168.5"/>
<text text-anchor="middle" x="294" y="-175.5" font-family="Helvetica,sans-Serif" font-size="10.00">mxrect.h</text>
</a>
</g>
</g>
<!-- Node4&#45;&gt;Node9 -->
<g id="edge11" class="edge">
<title>Node4&#45;&gt;Node9</title>
<path fill="none" stroke="midnightblue" d="M547.31,-224.44C487.19,-213.66 385.16,-195.36 330.75,-185.59"/>
<polygon fill="midnightblue" stroke="midnightblue" points="331.31,-182.14 320.85,-183.82 330.07,-189.03 331.31,-182.14"/>
</g>
<!-- Node6&#45;&gt;Node2 -->
<g id="edge7" class="edge">
<title>Node6&#45;&gt;Node2</title>
<path fill="none" stroke="midnightblue" d="M363,-112.44C331.82,-103.24 282.07,-88.56 247.59,-78.39"/>
<polygon fill="midnightblue" stroke="midnightblue" points="248.44,-74.99 237.86,-75.52 246.46,-81.7 248.44,-74.99"/>
</g>
<!-- Node6&#45;&gt;Node5 -->
<g id="edge8" class="edge">
<title>Node6&#45;&gt;Node5</title>
<path fill="none" stroke="midnightblue" d="M404.69,-112.32C416.9,-103.98 435.58,-91.21 450,-81.35"/>
<polygon fill="midnightblue" stroke="midnightblue" points="452.06,-84.19 458.34,-75.65 448.11,-78.41 452.06,-84.19"/>
</g>
<!-- Node8 -->
<g id="node8" class="node">
<title>Node8</title>
<g id="a_node8"><a xlink:title=" ">
<polygon fill="none" stroke="#bfbfbf" points="499.5,-112.5 499.5,-131.5 564.5,-131.5 564.5,-112.5 499.5,-112.5"/>
<text text-anchor="middle" x="532" y="-119.5" font-family="Helvetica,sans-Serif" font-size="10.00">QMatrix4x4</text>
</a>
</g>
</g>
<!-- Node7&#45;&gt;Node8 -->
<g id="edge10" class="edge">
<title>Node7&#45;&gt;Node8</title>
<path fill="none" stroke="midnightblue" d="M502.78,-168.08C507.67,-160.53 514.83,-149.49 520.83,-140.23"/>
<polygon fill="midnightblue" stroke="midnightblue" points="523.83,-142.05 526.33,-131.75 517.95,-138.24 523.83,-142.05"/>
</g>
<!-- Node9&#45;&gt;Node2 -->
<g id="edge12" class="edge">
<title>Node9&#45;&gt;Node2</title>
<path fill="none" stroke="midnightblue" d="M287.02,-168.43C279.72,-159.42 267.94,-144.8 258,-132 245.46,-115.86 231.45,-97.21 221.63,-84.04"/>
<polygon fill="midnightblue" stroke="midnightblue" points="224.35,-81.83 215.58,-75.89 218.74,-86.01 224.35,-81.83"/>
</g>
<!-- Node10 -->
<g id="node10" class="node">
<title>Node10</title>
<g id="a_node10"><a xlink:href="mxvector_8h.html" target="_top" xlink:title=" ">
<polygon fill="none" stroke="black" points="147,-112.5 147,-131.5 211,-131.5 211,-112.5 147,-112.5"/>
<text text-anchor="middle" x="179" y="-119.5" font-family="Helvetica,sans-Serif" font-size="10.00">mxvector.h</text>
</a>
</g>
</g>
<!-- Node9&#45;&gt;Node10 -->
<g id="edge13" class="edge">
<title>Node9&#45;&gt;Node10</title>
<path fill="none" stroke="midnightblue" d="M275.78,-168.44C257.1,-159.68 227.84,-145.94 206.38,-135.86"/>
<polygon fill="midnightblue" stroke="midnightblue" points="207.68,-132.6 197.14,-131.52 204.7,-138.93 207.68,-132.6"/>
</g>
<!-- Node11 -->
<g id="node11" class="node">
<title>Node11</title>
<g id="a_node11"><a xlink:title=" ">
<polygon fill="none" stroke="#bfbfbf" points="267,-112.5 267,-131.5 323,-131.5 323,-112.5 267,-112.5"/>
<text text-anchor="middle" x="295" y="-119.5" font-family="Helvetica,sans-Serif" font-size="10.00">algorithm</text>
</a>
</g>
</g>
<!-- Node9&#45;&gt;Node11 -->
<g id="edge15" class="edge">
<title>Node9&#45;&gt;Node11</title>
<path fill="none" stroke="midnightblue" d="M294.17,-168.08C294.3,-161.01 294.48,-150.86 294.65,-141.99"/>
<polygon fill="midnightblue" stroke="midnightblue" points="298.15,-141.81 294.84,-131.75 291.15,-141.68 298.15,-141.81"/>
</g>
<!-- Node10&#45;&gt;Node2 -->
<g id="edge14" class="edge">
<title>Node10&#45;&gt;Node2</title>
<path fill="none" stroke="midnightblue" d="M183.95,-112.08C188.1,-104.61 194.15,-93.72 199.27,-84.52"/>
<polygon fill="midnightblue" stroke="midnightblue" points="202.34,-86.19 204.14,-75.75 196.22,-82.79 202.34,-86.19"/>
</g>
<!-- Node12&#45;&gt;Node4 -->
<g id="edge19" class="edge">
<title>Node12&#45;&gt;Node4</title>
<path fill="none" stroke="midnightblue" d="M558.98,-392.4C572.89,-384.95 590.71,-372.74 599,-356 615.33,-323 607.44,-278.51 600.83,-253.7"/>
<polygon fill="midnightblue" stroke="midnightblue" points="604.11,-252.44 597.97,-243.8 597.38,-254.38 604.11,-252.44"/>
</g>
<!-- Node13 -->
<g id="node13" class="node">
<title>Node13</title>
<g id="a_node13"><a xlink:href="mxopenglfunctions_8h.html" target="_top" xlink:title=" ">
<polygon fill="none" stroke="black" points="446.5,-336.5 446.5,-355.5 551.5,-355.5 551.5,-336.5 446.5,-336.5"/>
<text text-anchor="middle" x="499" y="-343.5" font-family="Helvetica,sans-Serif" font-size="10.00">mxopenglfunctions.h</text>
</a>
</g>
</g>
<!-- Node12&#45;&gt;Node13 -->
<g id="edge17" class="edge">
<title>Node12&#45;&gt;Node13</title>
<path fill="none" stroke="midnightblue" d="M533.23,-392.08C527.44,-384.46 518.94,-373.26 511.86,-363.94"/>
<polygon fill="midnightblue" stroke="midnightblue" points="514.48,-361.6 505.64,-355.75 508.9,-365.83 514.48,-361.6"/>
</g>
<!-- Node15 -->
<g id="node15" class="node">
<title>Node15</title>
<g id="a_node15"><a xlink:href="mxvectorprogram_8h.html" target="_top" xlink:title=" ">
<polygon fill="none" stroke="black" points="319.5,-336.5 319.5,-355.5 418.5,-355.5 418.5,-336.5 319.5,-336.5"/>
<text text-anchor="middle" x="369" y="-343.5" font-family="Helvetica,sans-Serif" font-size="10.00">mxvectorprogram.h</text>
</a>
</g>
</g>
<!-- Node12&#45;&gt;Node15 -->
<g id="edge20" class="edge">
<title>Node12&#45;&gt;Node15</title>
<path fill="none" stroke="midnightblue" d="M512.9,-392.44C484.01,-383.32 438.08,-368.81 405.89,-358.65"/>
<polygon fill="midnightblue" stroke="midnightblue" points="406.56,-355.19 395.97,-355.52 404.45,-361.87 406.56,-355.19"/>
</g>
<!-- Node17 -->
<g id="node17" class="node">
<title>Node17</title>
<g id="a_node17"><a xlink:href="gpubuffer_8h.html" target="_top" xlink:title=" ">
<polygon fill="none" stroke="black" points="391,-224.5 391,-243.5 455,-243.5 455,-224.5 391,-224.5"/>
<text text-anchor="middle" x="423" y="-231.5" font-family="Helvetica,sans-Serif" font-size="10.00">gpubuffer.h</text>
</a>
</g>
</g>
<!-- Node12&#45;&gt;Node17 -->
<g id="edge34" class="edge">
<title>Node12&#45;&gt;Node17</title>
<path fill="none" stroke="midnightblue" d="M545.88,-392.42C559.63,-371.18 590.85,-315.31 565,-280 542.39,-249.12 498.47,-238.9 465.43,-235.78"/>
<polygon fill="midnightblue" stroke="midnightblue" points="465.37,-232.27 455.13,-235 464.84,-239.25 465.37,-232.27"/>
</g>
<!-- Node19 -->
<g id="node19" class="node">
<title>Node19</title>
<g id="a_node19"><a xlink:href="mxlist_8h.html" target="_top" xlink:title=" ">
<polygon fill="none" stroke="black" points="118,-336.5 118,-355.5 168,-355.5 168,-336.5 118,-336.5"/>
<text text-anchor="middle" x="143" y="-343.5" font-family="Helvetica,sans-Serif" font-size="10.00">mxlist.h</text>
</a>
</g>
</g>
<!-- Node12&#45;&gt;Node19 -->
<g id="edge29" class="edge">
<title>Node12&#45;&gt;Node19</title>
<path fill="none" stroke="midnightblue" d="M503.72,-396.06C428,-385.77 253.99,-362.1 178.74,-351.86"/>
<polygon fill="midnightblue" stroke="midnightblue" points="178.76,-348.33 168.38,-350.45 177.82,-355.27 178.76,-348.33"/>
</g>
<!-- Node14 -->
<g id="node14" class="node">
<title>Node14</title>
<g id="a_node14"><a xlink:title=" ">
<polygon fill="none" stroke="#bfbfbf" points="431.5,-280.5 431.5,-299.5 556.5,-299.5 556.5,-280.5 431.5,-280.5"/>
<text text-anchor="middle" x="494" y="-287.5" font-family="Helvetica,sans-Serif" font-size="10.00">QOpenGLExtraFunctions</text>
</a>
</g>
</g>
<!-- Node13&#45;&gt;Node14 -->
<g id="edge18" class="edge">
<title>Node13&#45;&gt;Node14</title>
<path fill="none" stroke="midnightblue" d="M498.17,-336.08C497.52,-329.01 496.58,-318.86 495.76,-309.99"/>
<polygon fill="midnightblue" stroke="midnightblue" points="499.22,-309.39 494.81,-299.75 492.25,-310.03 499.22,-309.39"/>
</g>
<!-- Node15&#45;&gt;Node6 -->
<g id="edge21" class="edge">
<title>Node15&#45;&gt;Node6</title>
<path fill="none" stroke="midnightblue" d="M369.19,-336.48C369.84,-310.86 372.54,-232.32 382,-168 383.3,-159.18 385.36,-149.52 387.27,-141.42"/>
<polygon fill="midnightblue" stroke="midnightblue" points="390.71,-142.11 389.71,-131.56 383.91,-140.43 390.71,-142.11"/>
</g>
<!-- Node15&#45;&gt;Node7 -->
<g id="edge22" class="edge">
<title>Node15&#45;&gt;Node7</title>
<path fill="none" stroke="midnightblue" d="M375.4,-336.18C384.93,-323.27 403.7,-298.76 422,-280 439.17,-262.4 448.81,-263.33 464,-244 475.34,-229.57 484.42,-210.63 490.17,-196.92"/>
<polygon fill="midnightblue" stroke="midnightblue" points="493.42,-198.2 493.89,-187.61 486.92,-195.6 493.42,-198.2"/>
</g>
<!-- Node16 -->
<g id="node16" class="node">
<title>Node16</title>
<g id="a_node16"><a xlink:href="mxvectordraw_8h.html" target="_top" xlink:title=" ">
<polygon fill="none" stroke="black" points="251.5,-280.5 251.5,-299.5 336.5,-299.5 336.5,-280.5 251.5,-280.5"/>
<text text-anchor="middle" x="294" y="-287.5" font-family="Helvetica,sans-Serif" font-size="10.00">mxvectordraw.h</text>
</a>
</g>
</g>
<!-- Node15&#45;&gt;Node16 -->
<g id="edge23" class="edge">
<title>Node15&#45;&gt;Node16</title>
<path fill="none" stroke="midnightblue" d="M356.95,-336.32C345.54,-328.11 328.17,-315.6 314.57,-305.81"/>
<polygon fill="midnightblue" stroke="midnightblue" points="316.43,-302.84 306.27,-299.83 312.34,-308.52 316.43,-302.84"/>
</g>
<!-- Node16&#45;&gt;Node9 -->
<g id="edge28" class="edge">
<title>Node16&#45;&gt;Node9</title>
<path fill="none" stroke="midnightblue" d="M294,-280.37C294,-262.62 294,-221.67 294,-197.6"/>
<polygon fill="midnightblue" stroke="midnightblue" points="297.5,-197.59 294,-187.59 290.5,-197.59 297.5,-197.59"/>
</g>
<!-- Node16&#45;&gt;Node17 -->
<g id="edge24" class="edge">
<title>Node16&#45;&gt;Node17</title>
<path fill="none" stroke="midnightblue" d="M314.44,-280.44C335.67,-271.56 369.1,-257.56 393.25,-247.45"/>
<polygon fill="midnightblue" stroke="midnightblue" points="394.78,-250.61 402.66,-243.52 392.08,-244.15 394.78,-250.61"/>
</g>
<!-- Node18 -->
<g id="node18" class="node">
<title>Node18</title>
<g id="a_node18"><a xlink:href="gpuvbo_8h.html" target="_top" xlink:title=" ">
<polygon fill="none" stroke="black" points="391,-168.5 391,-187.5 447,-187.5 447,-168.5 391,-168.5"/>
<text text-anchor="middle" x="419" y="-175.5" font-family="Helvetica,sans-Serif" font-size="10.00">gpuvbo.h</text>
</a>
</g>
</g>
<!-- Node17&#45;&gt;Node18 -->
<g id="edge25" class="edge">
<title>Node17&#45;&gt;Node18</title>
<path fill="none" stroke="midnightblue" d="M422.34,-224.08C421.82,-217.01 421.06,-206.86 420.41,-197.99"/>
<polygon fill="midnightblue" stroke="midnightblue" points="423.88,-197.47 419.65,-187.75 416.9,-197.98 423.88,-197.47"/>
</g>
<!-- Node18&#45;&gt;Node5 -->
<g id="edge26" class="edge">
<title>Node18&#45;&gt;Node5</title>
<path fill="none" stroke="midnightblue" d="M426.53,-168.24C433.68,-159.54 444.3,-145.58 451,-132 458.35,-117.11 463.66,-98.97 466.95,-85.63"/>
<polygon fill="midnightblue" stroke="midnightblue" points="470.39,-86.28 469.24,-75.75 463.58,-84.7 470.39,-86.28"/>
</g>
<!-- Node18&#45;&gt;Node6 -->
<g id="edge27" class="edge">
<title>Node18&#45;&gt;Node6</title>
<path fill="none" stroke="midnightblue" d="M414.54,-168.08C410.85,-160.69 405.48,-149.95 400.91,-140.81"/>
<polygon fill="midnightblue" stroke="midnightblue" points="403.98,-139.13 396.38,-131.75 397.72,-142.26 403.98,-139.13"/>
</g>
<!-- Node19&#45;&gt;Node2 -->
<g id="edge30" class="edge">
<title>Node19&#45;&gt;Node2</title>
<path fill="none" stroke="midnightblue" d="M117.65,-337.75C98.37,-330.99 72.59,-319.03 57,-300 37.92,-276.72 38,-265.1 38,-235 38,-235 38,-235 38,-177 38,-115.74 116.58,-86.99 167.21,-74.82"/>
<polygon fill="midnightblue" stroke="midnightblue" points="168.26,-78.17 177.24,-72.53 166.71,-71.34 168.26,-78.17"/>
</g>
<!-- Node20 -->
<g id="node20" class="node">
<title>Node20</title>
<g id="a_node20"><a xlink:title=" ">
<polygon fill="none" stroke="#bfbfbf" points="119.5,-280.5 119.5,-299.5 166.5,-299.5 166.5,-280.5 119.5,-280.5"/>
<text text-anchor="middle" x="143" y="-287.5" font-family="Helvetica,sans-Serif" font-size="10.00">stdlib.h</text>
</a>
</g>
</g>
<!-- Node19&#45;&gt;Node20 -->
<g id="edge31" class="edge">
<title>Node19&#45;&gt;Node20</title>
<path fill="none" stroke="midnightblue" d="M143,-336.08C143,-329.01 143,-318.86 143,-309.99"/>
<polygon fill="midnightblue" stroke="midnightblue" points="146.5,-309.75 143,-299.75 139.5,-309.75 146.5,-309.75"/>
</g>
<!-- Node21 -->
<g id="node21" class="node">
<title>Node21</title>
<g id="a_node21"><a xlink:title=" ">
<polygon fill="none" stroke="#bfbfbf" points="185,-280.5 185,-299.5 233,-299.5 233,-280.5 185,-280.5"/>
<text text-anchor="middle" x="209" y="-287.5" font-family="Helvetica,sans-Serif" font-size="10.00">string.h</text>
</a>
</g>
</g>
<!-- Node19&#45;&gt;Node21 -->
<g id="edge32" class="edge">
<title>Node19&#45;&gt;Node21</title>
<path fill="none" stroke="midnightblue" d="M153.6,-336.32C163.46,-328.26 178.35,-316.08 190.22,-306.37"/>
<polygon fill="midnightblue" stroke="midnightblue" points="192.68,-308.88 198.2,-299.83 188.25,-303.46 192.68,-308.88"/>
</g>
<!-- Node22 -->
<g id="node22" class="node">
<title>Node22</title>
<g id="a_node22"><a xlink:title=" ">
<polygon fill="none" stroke="#bfbfbf" points="66.5,-280.5 66.5,-299.5 101.5,-299.5 101.5,-280.5 66.5,-280.5"/>
<text text-anchor="middle" x="84" y="-287.5" font-family="Helvetica,sans-Serif" font-size="10.00">new</text>
</a>
</g>
</g>
<!-- Node19&#45;&gt;Node22 -->
<g id="edge33" class="edge">
<title>Node19&#45;&gt;Node22</title>
<path fill="none" stroke="midnightblue" d="M133.52,-336.32C124.8,-328.34 111.66,-316.31 101.1,-306.65"/>
<polygon fill="midnightblue" stroke="midnightblue" points="103.39,-304 93.65,-299.83 98.67,-309.17 103.39,-304"/>
</g>
</g>
</svg>
