<?xml version="1.0" encoding="UTF-8" standalone="no"?>
<!DOCTYPE svg PUBLIC "-//W3C//DTD SVG 1.1//EN"
 "http://www.w3.org/Graphics/SVG/1.1/DTD/svg11.dtd">
<!-- Generated by graphviz version 2.44.0 ()
 -->
<!-- Title: src/renderer/opengl/colorwheelprogram/mxcolorwheelprogram.cpp Pages: 1 -->
<svg width="338pt" height="263pt"
 viewBox="0.00 0.00 338.04 263.00" xmlns="http://www.w3.org/2000/svg" xmlns:xlink="http://www.w3.org/1999/xlink">
<g id="graph0" class="graph" transform="scale(1 1) rotate(0) translate(4 259)">
<title>src/renderer/opengl/colorwheelprogram/mxcolorwheelprogram.cpp</title>
<!-- Node1 -->
<g id="node1" class="node">
<title>Node1</title>
<g id="a_node1"><a xlink:title=" ">
<polygon fill="#bfbfbf" stroke="black" points="32.54,-224.5 32.54,-254.5 249.54,-254.5 249.54,-224.5 32.54,-224.5"/>
<text text-anchor="start" x="40.54" y="-242.5" font-family="Helvetica,sans-Serif" font-size="10.00">src/renderer/opengl</text>
<text text-anchor="middle" x="141.04" y="-231.5" font-family="Helvetica,sans-Serif" font-size="10.00">/colorwheelprogram/mxcolorwheelprogram.cpp</text>
</a>
</g>
</g>
<!-- Node2 -->
<g id="node2" class="node">
<title>Node2</title>
<g id="a_node2"><a xlink:title=" ">
<polygon fill="none" stroke="#bfbfbf" points="56.54,-0.5 56.54,-19.5 119.54,-19.5 119.54,-0.5 56.54,-0.5"/>
<text text-anchor="middle" x="88.04" y="-7.5" font-family="Helvetica,sans-Serif" font-size="10.00">mxdebug.h</text>
</a>
</g>
</g>
<!-- Node1&#45;&gt;Node2 -->
<g id="edge1" class="edge">
<title>Node1&#45;&gt;Node2</title>
<path fill="none" stroke="midnightblue" d="M65.8,-224.5C46.03,-217.02 26.93,-205.57 15.04,-188 -18.51,-138.4 10.97,-107.19 42.04,-56 48.88,-44.74 59.17,-34.31 68.29,-26.33"/>
<polygon fill="midnightblue" stroke="midnightblue" points="70.76,-28.82 76.2,-19.73 66.28,-23.45 70.76,-28.82"/>
</g>
<!-- Node3 -->
<g id="node3" class="node">
<title>Node3</title>
<g id="a_node3"><a xlink:href="mxcolorwheelprogram_8h.html" target="_top" xlink:title=" ">
<polygon fill="none" stroke="black" points="24.54,-168.5 24.54,-187.5 143.54,-187.5 143.54,-168.5 24.54,-168.5"/>
<text text-anchor="middle" x="84.04" y="-175.5" font-family="Helvetica,sans-Serif" font-size="10.00">mxcolorwheelprogram.h</text>
</a>
</g>
</g>
<!-- Node1&#45;&gt;Node3 -->
<g id="edge2" class="edge">
<title>Node1&#45;&gt;Node3</title>
<path fill="none" stroke="midnightblue" d="M127.53,-224.4C119.08,-215.58 108.17,-204.18 99.39,-195.02"/>
<polygon fill="midnightblue" stroke="midnightblue" points="101.78,-192.46 92.34,-187.66 96.73,-197.3 101.78,-192.46"/>
</g>
<!-- Node10 -->
<g id="node10" class="node">
<title>Node10</title>
<g id="a_node10"><a xlink:title=" ">
<polygon fill="none" stroke="#bfbfbf" points="162.04,-168.5 162.04,-187.5 234.04,-187.5 234.04,-168.5 162.04,-168.5"/>
<text text-anchor="middle" x="198.04" y="-175.5" font-family="Helvetica,sans-Serif" font-size="10.00">mxrenderer.h</text>
</a>
</g>
</g>
<!-- Node1&#45;&gt;Node10 -->
<g id="edge12" class="edge">
<title>Node1&#45;&gt;Node10</title>
<path fill="none" stroke="midnightblue" d="M154.55,-224.4C163,-215.58 173.92,-204.18 182.7,-195.02"/>
<polygon fill="midnightblue" stroke="midnightblue" points="185.36,-197.3 189.75,-187.66 180.3,-192.46 185.36,-197.3"/>
</g>
<!-- Node11 -->
<g id="node11" class="node">
<title>Node11</title>
<g id="a_node11"><a xlink:title=" ">
<polygon fill="none" stroke="#bfbfbf" points="252.04,-168.5 252.04,-187.5 296.04,-187.5 296.04,-168.5 252.04,-168.5"/>
<text text-anchor="middle" x="274.04" y="-175.5" font-family="Helvetica,sans-Serif" font-size="10.00">cmath</text>
</a>
</g>
</g>
<!-- Node1&#45;&gt;Node11 -->
<g id="edge13" class="edge">
<title>Node1&#45;&gt;Node11</title>
<path fill="none" stroke="midnightblue" d="M172.56,-224.4C194.68,-214.51 224.01,-201.38 245.45,-191.79"/>
<polygon fill="midnightblue" stroke="midnightblue" points="246.99,-194.94 254.69,-187.66 244.13,-188.55 246.99,-194.94"/>
</g>
<!-- Node3&#45;&gt;Node2 -->
<g id="edge3" class="edge">
<title>Node3&#45;&gt;Node2</title>
<path fill="none" stroke="midnightblue" d="M67.71,-168.39C55.09,-160.72 38.54,-148.21 31.04,-132 27.31,-123.93 28.88,-120.62 31.04,-112 39.17,-79.63 60.66,-46.84 74.81,-27.74"/>
<polygon fill="midnightblue" stroke="midnightblue" points="77.62,-29.83 80.9,-19.75 72.05,-25.58 77.62,-29.83"/>
</g>
<!-- Node4 -->
<g id="node4" class="node">
<title>Node4</title>
<g id="a_node4"><a xlink:title=" ">
<polygon fill="none" stroke="#bfbfbf" points="40.04,-112.5 40.04,-131.5 128.04,-131.5 128.04,-112.5 40.04,-112.5"/>
<text text-anchor="middle" x="84.04" y="-119.5" font-family="Helvetica,sans-Serif" font-size="10.00">mxgpuprogram.h</text>
</a>
</g>
</g>
<!-- Node3&#45;&gt;Node4 -->
<g id="edge4" class="edge">
<title>Node3&#45;&gt;Node4</title>
<path fill="none" stroke="midnightblue" d="M84.04,-168.08C84.04,-161.01 84.04,-150.86 84.04,-141.99"/>
<polygon fill="midnightblue" stroke="midnightblue" points="87.54,-141.75 84.04,-131.75 80.54,-141.75 87.54,-141.75"/>
</g>
<!-- Node5 -->
<g id="node5" class="node">
<title>Node5</title>
<g id="a_node5"><a xlink:href="mxmatrix_8h.html" target="_top" xlink:title=" ">
<polygon fill="none" stroke="black" points="146.54,-112.5 146.54,-131.5 209.54,-131.5 209.54,-112.5 146.54,-112.5"/>
<text text-anchor="middle" x="178.04" y="-119.5" font-family="Helvetica,sans-Serif" font-size="10.00">mxmatrix.h</text>
</a>
</g>
</g>
<!-- Node3&#45;&gt;Node5 -->
<g id="edge5" class="edge">
<title>Node3&#45;&gt;Node5</title>
<path fill="none" stroke="midnightblue" d="M99.14,-168.32C113.94,-159.82 136.74,-146.73 154.02,-136.8"/>
<polygon fill="midnightblue" stroke="midnightblue" points="156.05,-139.67 162.98,-131.65 152.56,-133.6 156.05,-139.67"/>
</g>
<!-- Node7 -->
<g id="node7" class="node">
<title>Node7</title>
<g id="a_node7"><a xlink:href="mxrect_8h.html" target="_top" xlink:title=" ">
<polygon fill="none" stroke="black" points="227.54,-112.5 227.54,-131.5 280.54,-131.5 280.54,-112.5 227.54,-112.5"/>
<text text-anchor="middle" x="254.04" y="-119.5" font-family="Helvetica,sans-Serif" font-size="10.00">mxrect.h</text>
</a>
</g>
</g>
<!-- Node3&#45;&gt;Node7 -->
<g id="edge7" class="edge">
<title>Node3&#45;&gt;Node7</title>
<path fill="none" stroke="midnightblue" d="M110.98,-168.44C139.79,-159.29 185.64,-144.73 217.64,-134.56"/>
<polygon fill="midnightblue" stroke="midnightblue" points="219.04,-137.79 227.51,-131.43 216.92,-131.12 219.04,-137.79"/>
</g>
<!-- Node6 -->
<g id="node6" class="node">
<title>Node6</title>
<g id="a_node6"><a xlink:title=" ">
<polygon fill="none" stroke="#bfbfbf" points="70.54,-56.5 70.54,-75.5 135.54,-75.5 135.54,-56.5 70.54,-56.5"/>
<text text-anchor="middle" x="103.04" y="-63.5" font-family="Helvetica,sans-Serif" font-size="10.00">QMatrix4x4</text>
</a>
</g>
</g>
<!-- Node5&#45;&gt;Node6 -->
<g id="edge6" class="edge">
<title>Node5&#45;&gt;Node6</title>
<path fill="none" stroke="midnightblue" d="M165.99,-112.32C154.58,-104.11 137.21,-91.6 123.61,-81.81"/>
<polygon fill="midnightblue" stroke="midnightblue" points="125.47,-78.84 115.31,-75.83 121.38,-84.52 125.47,-78.84"/>
</g>
<!-- Node7&#45;&gt;Node2 -->
<g id="edge8" class="edge">
<title>Node7&#45;&gt;Node2</title>
<path fill="none" stroke="midnightblue" d="M240.07,-112.35C225.69,-103.39 202.66,-88.92 183.04,-76 157.11,-58.92 127.66,-38.62 108.51,-25.31"/>
<polygon fill="midnightblue" stroke="midnightblue" points="110.45,-22.4 100.25,-19.55 106.45,-28.14 110.45,-22.4"/>
</g>
<!-- Node8 -->
<g id="node8" class="node">
<title>Node8</title>
<g id="a_node8"><a xlink:href="mxvector_8h.html" target="_top" xlink:title=" ">
<polygon fill="none" stroke="black" points="192.04,-56.5 192.04,-75.5 256.04,-75.5 256.04,-56.5 192.04,-56.5"/>
<text text-anchor="middle" x="224.04" y="-63.5" font-family="Helvetica,sans-Serif" font-size="10.00">mxvector.h</text>
</a>
</g>
</g>
<!-- Node7&#45;&gt;Node8 -->
<g id="edge9" class="edge">
<title>Node7&#45;&gt;Node8</title>
<path fill="none" stroke="midnightblue" d="M249.09,-112.08C244.94,-104.61 238.89,-93.72 233.77,-84.52"/>
<polygon fill="midnightblue" stroke="midnightblue" points="236.82,-82.79 228.9,-75.75 230.7,-86.19 236.82,-82.79"/>
</g>
<!-- Node9 -->
<g id="node9" class="node">
<title>Node9</title>
<g id="a_node9"><a xlink:title=" ">
<polygon fill="none" stroke="#bfbfbf" points="274.04,-56.5 274.04,-75.5 330.04,-75.5 330.04,-56.5 274.04,-56.5"/>
<text text-anchor="middle" x="302.04" y="-63.5" font-family="Helvetica,sans-Serif" font-size="10.00">algorithm</text>
</a>
</g>
</g>
<!-- Node7&#45;&gt;Node9 -->
<g id="edge11" class="edge">
<title>Node7&#45;&gt;Node9</title>
<path fill="none" stroke="midnightblue" d="M261.97,-112.08C268.89,-104.3 279.11,-92.8 287.49,-83.37"/>
<polygon fill="midnightblue" stroke="midnightblue" points="290.23,-85.55 294.26,-75.75 285,-80.9 290.23,-85.55"/>
</g>
<!-- Node8&#45;&gt;Node2 -->
<g id="edge10" class="edge">
<title>Node8&#45;&gt;Node2</title>
<path fill="none" stroke="midnightblue" d="M202.49,-56.44C180.01,-47.52 144.55,-33.44 119.06,-23.32"/>
<polygon fill="midnightblue" stroke="midnightblue" points="120.08,-19.95 109.49,-19.52 117.49,-26.46 120.08,-19.95"/>
</g>
</g>
</svg>
