<?xml version="1.0" encoding="UTF-8" standalone="no"?>
<!DOCTYPE svg PUBLIC "-//W3C//DTD SVG 1.1//EN"
 "http://www.w3.org/Graphics/SVG/1.1/DTD/svg11.dtd">
<!-- Generated by graphviz version 2.44.0 ()
 -->
<!-- Title: src/widgets/mxeventhandler.h Pages: 1 -->
<svg width="447pt" height="84pt"
 viewBox="0.00 0.00 446.50 84.00" xmlns="http://www.w3.org/2000/svg" xmlns:xlink="http://www.w3.org/1999/xlink">
<g id="graph0" class="graph" transform="scale(1 1) rotate(0) translate(4 80)">
<title>src/widgets/mxeventhandler.h</title>
<!-- Node1 -->
<g id="node1" class="node">
<title>Node1</title>
<g id="a_node1"><a xlink:title=" ">
<polygon fill="#bfbfbf" stroke="black" points="139,-56.5 139,-75.5 285,-75.5 285,-56.5 139,-56.5"/>
<text text-anchor="middle" x="212" y="-63.5" font-family="Helvetica,sans-Serif" font-size="10.00">src/widgets/mxeventhandler.h</text>
</a>
</g>
</g>
<!-- Node2 -->
<g id="node2" class="node">
<title>Node2</title>
<g id="a_node2"><a xlink:href="mxbutton_8cpp.html" target="_top" xlink:title=" ">
<polygon fill="none" stroke="black" points="0,-0.5 0,-19.5 128,-19.5 128,-0.5 0,-0.5"/>
<text text-anchor="middle" x="64" y="-7.5" font-family="Helvetica,sans-Serif" font-size="10.00">src/widgets/mxbutton.cpp</text>
</a>
</g>
</g>
<!-- Node1&#45;&gt;Node2 -->
<g id="edge1" class="edge">
<title>Node1&#45;&gt;Node2</title>
<path fill="none" stroke="midnightblue" d="M178.85,-52.91C151.03,-42.75 111.98,-28.51 87.34,-19.52"/>
<polygon fill="midnightblue" stroke="midnightblue" points="177.96,-56.3 188.55,-56.44 180.35,-49.73 177.96,-56.3"/>
</g>
<!-- Node3 -->
<g id="node3" class="node">
<title>Node3</title>
<g id="a_node3"><a xlink:href="mxlineedit_8cpp.html" target="_top" xlink:title=" ">
<polygon fill="none" stroke="black" points="146.5,-0.5 146.5,-19.5 277.5,-19.5 277.5,-0.5 146.5,-0.5"/>
<text text-anchor="middle" x="212" y="-7.5" font-family="Helvetica,sans-Serif" font-size="10.00">src/widgets/mxlineedit.cpp</text>
</a>
</g>
</g>
<!-- Node1&#45;&gt;Node3 -->
<g id="edge2" class="edge">
<title>Node1&#45;&gt;Node3</title>
<path fill="none" stroke="midnightblue" d="M212,-45.8C212,-36.91 212,-26.78 212,-19.75"/>
<polygon fill="midnightblue" stroke="midnightblue" points="208.5,-46.08 212,-56.08 215.5,-46.08 208.5,-46.08"/>
</g>
<!-- Node4 -->
<g id="node4" class="node">
<title>Node4</title>
<g id="a_node4"><a xlink:href="mxtextbutton_8cpp.html" target="_top" xlink:title=" ">
<polygon fill="none" stroke="black" points="295.5,-0.5 295.5,-19.5 438.5,-19.5 438.5,-0.5 295.5,-0.5"/>
<text text-anchor="middle" x="367" y="-7.5" font-family="Helvetica,sans-Serif" font-size="10.00">src/widgets/mxtextbutton.cpp</text>
</a>
</g>
</g>
<!-- Node1&#45;&gt;Node4 -->
<g id="edge3" class="edge">
<title>Node1&#45;&gt;Node4</title>
<path fill="none" stroke="midnightblue" d="M246.33,-53.04C275.5,-42.88 316.64,-28.55 342.55,-19.52"/>
<polygon fill="midnightblue" stroke="midnightblue" points="244.85,-49.85 236.56,-56.44 247.16,-56.46 244.85,-49.85"/>
</g>
</g>
</svg>
