<?xml version="1.0" encoding="UTF-8" standalone="no"?>
<!DOCTYPE svg PUBLIC "-//W3C//DTD SVG 1.1//EN"
 "http://www.w3.org/Graphics/SVG/1.1/DTD/svg11.dtd">
<!-- Generated by graphviz version 2.44.0 ()
 -->
<!-- Title: src/renderer/opengl/mxgpuarray.h Pages: 1 -->
<svg width="1826pt" height="508pt"
 viewBox="0.00 0.00 1826.00 508.00" xmlns="http://www.w3.org/2000/svg" xmlns:xlink="http://www.w3.org/1999/xlink">
<g id="graph0" class="graph" transform="scale(1 1) rotate(0) translate(4 504)">
<title>src/renderer/opengl/mxgpuarray.h</title>
<!-- Node1 -->
<g id="node1" class="node">
<title>Node1</title>
<g id="a_node1"><a xlink:title=" ">
<polygon fill="#bfbfbf" stroke="black" points="1584.5,-469.5 1584.5,-499.5 1684.5,-499.5 1684.5,-469.5 1584.5,-469.5"/>
<text text-anchor="start" x="1592.5" y="-487.5" font-family="Helvetica,sans-Serif" font-size="10.00">src/renderer/opengl</text>
<text text-anchor="middle" x="1634.5" y="-476.5" font-family="Helvetica,sans-Serif" font-size="10.00">/mxgpuarray.h</text>
</a>
</g>
</g>
<!-- Node2 -->
<g id="node2" class="node">
<title>Node2</title>
<g id="a_node2"><a xlink:href="mxcachedgpuarray_8h.html" target="_top" xlink:title=" ">
<polygon fill="none" stroke="black" points="1224.5,-402.5 1224.5,-432.5 1332.5,-432.5 1332.5,-402.5 1224.5,-402.5"/>
<text text-anchor="start" x="1232.5" y="-420.5" font-family="Helvetica,sans-Serif" font-size="10.00">src/renderer/opengl</text>
<text text-anchor="middle" x="1278.5" y="-409.5" font-family="Helvetica,sans-Serif" font-size="10.00">/mxcachedgpuarray.h</text>
</a>
</g>
</g>
<!-- Node1&#45;&gt;Node2 -->
<g id="edge1" class="edge">
<title>Node1&#45;&gt;Node2</title>
<path fill="none" stroke="midnightblue" d="M1574.16,-472.48C1506.45,-460.12 1397.61,-440.25 1332.57,-428.37"/>
<polygon fill="midnightblue" stroke="midnightblue" points="1573.78,-475.97 1584.25,-474.32 1575.04,-469.09 1573.78,-475.97"/>
</g>
<!-- Node20 -->
<g id="node20" class="node">
<title>Node20</title>
<g id="a_node20"><a xlink:href="mxgpuarray_8cpp.html" target="_top" xlink:title=" ">
<polygon fill="none" stroke="black" points="1584.5,-134.5 1584.5,-164.5 1684.5,-164.5 1684.5,-134.5 1584.5,-134.5"/>
<text text-anchor="start" x="1592.5" y="-152.5" font-family="Helvetica,sans-Serif" font-size="10.00">src/renderer/opengl</text>
<text text-anchor="middle" x="1634.5" y="-141.5" font-family="Helvetica,sans-Serif" font-size="10.00">/mxgpuarray.cpp</text>
</a>
</g>
</g>
<!-- Node1&#45;&gt;Node20 -->
<g id="edge44" class="edge">
<title>Node1&#45;&gt;Node20</title>
<path fill="none" stroke="midnightblue" d="M1634.5,-458.99C1634.5,-432.49 1634.5,-389 1634.5,-351.5 1634.5,-351.5 1634.5,-351.5 1634.5,-282.5 1634.5,-239.65 1634.5,-188.97 1634.5,-164.76"/>
<polygon fill="midnightblue" stroke="midnightblue" points="1631,-459.24 1634.5,-469.24 1638,-459.24 1631,-459.24"/>
</g>
<!-- Node22 -->
<g id="node22" class="node">
<title>Node22</title>
<g id="a_node22"><a xlink:href="mxshaderprogram_8cpp.html" target="_top" xlink:title=" ">
<polygon fill="none" stroke="black" points="1703,-134.5 1703,-164.5 1818,-164.5 1818,-134.5 1703,-134.5"/>
<text text-anchor="start" x="1711" y="-152.5" font-family="Helvetica,sans-Serif" font-size="10.00">src/renderer/opengl</text>
<text text-anchor="middle" x="1760.5" y="-141.5" font-family="Helvetica,sans-Serif" font-size="10.00">/mxshaderprogram.cpp</text>
</a>
</g>
</g>
<!-- Node1&#45;&gt;Node22 -->
<g id="edge45" class="edge">
<title>Node1&#45;&gt;Node22</title>
<path fill="none" stroke="midnightblue" d="M1658.16,-462.25C1682.38,-438.05 1716.5,-396.05 1716.5,-351.5 1716.5,-351.5 1716.5,-351.5 1716.5,-282.5 1716.5,-237.57 1739.73,-188.25 1752.43,-164.63"/>
<polygon fill="midnightblue" stroke="midnightblue" points="1655.46,-460 1650.7,-469.46 1660.32,-465.03 1655.46,-460"/>
</g>
<!-- Node3 -->
<g id="node3" class="node">
<title>Node3</title>
<g id="a_node3"><a xlink:href="mxtextdraw_8cpp.html" target="_top" xlink:title=" ">
<polygon fill="none" stroke="black" points="1348.5,-341 1348.5,-360 1504.5,-360 1504.5,-341 1348.5,-341"/>
<text text-anchor="middle" x="1426.5" y="-348" font-family="Helvetica,sans-Serif" font-size="10.00">src/gui/textdraw/mxtextdraw.cpp</text>
</a>
</g>
</g>
<!-- Node2&#45;&gt;Node3 -->
<g id="edge2" class="edge">
<title>Node2&#45;&gt;Node3</title>
<path fill="none" stroke="midnightblue" d="M1319.95,-398.3C1348.49,-385.76 1385.1,-369.68 1407.13,-360.01"/>
<polygon fill="midnightblue" stroke="midnightblue" points="1318.36,-395.17 1310.61,-402.4 1321.18,-401.58 1318.36,-395.17"/>
</g>
<!-- Node4 -->
<g id="node4" class="node">
<title>Node4</title>
<g id="a_node4"><a xlink:href="mxquaddraw_8h.html" target="_top" xlink:title=" ">
<polygon fill="none" stroke="black" points="410.5,-335.5 410.5,-365.5 534.5,-365.5 534.5,-335.5 410.5,-335.5"/>
<text text-anchor="start" x="418.5" y="-353.5" font-family="Helvetica,sans-Serif" font-size="10.00">src/renderer/opengl</text>
<text text-anchor="middle" x="472.5" y="-342.5" font-family="Helvetica,sans-Serif" font-size="10.00">/icondraw/mxquaddraw.h</text>
</a>
</g>
</g>
<!-- Node2&#45;&gt;Node4 -->
<g id="edge3" class="edge">
<title>Node2&#45;&gt;Node4</title>
<path fill="none" stroke="midnightblue" d="M1214.28,-411.32C1062.66,-399.09 684.03,-368.56 534.58,-356.51"/>
<polygon fill="midnightblue" stroke="midnightblue" points="1214.12,-414.82 1224.36,-412.13 1214.68,-407.84 1214.12,-414.82"/>
</g>
<!-- Node15 -->
<g id="node15" class="node">
<title>Node15</title>
<g id="a_node15"><a xlink:href="mxcachedgpuarray_8cpp.html" target="_top" xlink:title=" ">
<polygon fill="none" stroke="black" points="1447,-134.5 1447,-164.5 1566,-164.5 1566,-134.5 1447,-134.5"/>
<text text-anchor="start" x="1455" y="-152.5" font-family="Helvetica,sans-Serif" font-size="10.00">src/renderer/opengl</text>
<text text-anchor="middle" x="1506.5" y="-141.5" font-family="Helvetica,sans-Serif" font-size="10.00">/mxcachedgpuarray.cpp</text>
</a>
</g>
</g>
<!-- Node2&#45;&gt;Node15 -->
<g id="edge15" class="edge">
<title>Node2&#45;&gt;Node15</title>
<path fill="none" stroke="midnightblue" d="M1294.59,-393.84C1306.58,-377.25 1323.57,-354.34 1339.5,-335 1393.62,-269.31 1463.34,-195.46 1492.6,-164.91"/>
<polygon fill="midnightblue" stroke="midnightblue" points="1291.47,-392.19 1288.48,-402.35 1297.15,-396.27 1291.47,-392.19"/>
</g>
<!-- Node16 -->
<g id="node16" class="node">
<title>Node16</title>
<g id="a_node16"><a xlink:href="mxrenderer_8h.html" target="_top" xlink:title=" ">
<polygon fill="none" stroke="black" points="1154.5,-201.5 1154.5,-231.5 1254.5,-231.5 1254.5,-201.5 1154.5,-201.5"/>
<text text-anchor="start" x="1162.5" y="-219.5" font-family="Helvetica,sans-Serif" font-size="10.00">src/renderer/opengl</text>
<text text-anchor="middle" x="1204.5" y="-208.5" font-family="Helvetica,sans-Serif" font-size="10.00">/mxrenderer.h</text>
</a>
</g>
</g>
<!-- Node2&#45;&gt;Node16 -->
<g id="edge16" class="edge">
<title>Node2&#45;&gt;Node16</title>
<path fill="none" stroke="midnightblue" d="M1269.69,-392.8C1254.15,-351.01 1222.34,-265.47 1209.77,-231.68"/>
<polygon fill="midnightblue" stroke="midnightblue" points="1266.41,-394.04 1273.18,-402.19 1272.97,-391.6 1266.41,-394.04"/>
</g>
<!-- Node25 -->
<g id="node25" class="node">
<title>Node25</title>
<g id="a_node25"><a xlink:href="mxvectordraw_8h.html" target="_top" xlink:title=" ">
<polygon fill="none" stroke="black" points="1010,-335.5 1010,-365.5 1149,-365.5 1149,-335.5 1010,-335.5"/>
<text text-anchor="start" x="1018" y="-353.5" font-family="Helvetica,sans-Serif" font-size="10.00">src/renderer/opengl</text>
<text text-anchor="middle" x="1079.5" y="-342.5" font-family="Helvetica,sans-Serif" font-size="10.00">/vectordraw/mxvectordraw.h</text>
</a>
</g>
</g>
<!-- Node2&#45;&gt;Node25 -->
<g id="edge31" class="edge">
<title>Node2&#45;&gt;Node25</title>
<path fill="none" stroke="midnightblue" d="M1225.62,-399.23C1193.43,-388.71 1152.83,-375.45 1122.6,-365.58"/>
<polygon fill="midnightblue" stroke="midnightblue" points="1224.73,-402.62 1235.32,-402.4 1226.9,-395.96 1224.73,-402.62"/>
</g>
<!-- Node5 -->
<g id="node5" class="node">
<title>Node5</title>
<g id="a_node5"><a xlink:href="mxicondraw_8h.html" target="_top" xlink:title=" ">
<polygon fill="none" stroke="black" points="201,-268.5 201,-298.5 322,-298.5 322,-268.5 201,-268.5"/>
<text text-anchor="start" x="209" y="-286.5" font-family="Helvetica,sans-Serif" font-size="10.00">src/renderer/opengl</text>
<text text-anchor="middle" x="261.5" y="-275.5" font-family="Helvetica,sans-Serif" font-size="10.00">/icondraw/mxicondraw.h</text>
</a>
</g>
</g>
<!-- Node4&#45;&gt;Node5 -->
<g id="edge4" class="edge">
<title>Node4&#45;&gt;Node5</title>
<path fill="none" stroke="midnightblue" d="M417.13,-332.44C382.93,-321.91 339.57,-308.55 307.31,-298.61"/>
<polygon fill="midnightblue" stroke="midnightblue" points="416.39,-335.88 426.98,-335.48 418.45,-329.19 416.39,-335.88"/>
</g>
<!-- Node14 -->
<g id="node14" class="node">
<title>Node14</title>
<g id="a_node14"><a xlink:href="mxquaddraw_8cpp.html" target="_top" xlink:title=" ">
<polygon fill="none" stroke="black" points="405.5,-268.5 405.5,-298.5 539.5,-298.5 539.5,-268.5 405.5,-268.5"/>
<text text-anchor="start" x="413.5" y="-286.5" font-family="Helvetica,sans-Serif" font-size="10.00">src/renderer/opengl</text>
<text text-anchor="middle" x="472.5" y="-275.5" font-family="Helvetica,sans-Serif" font-size="10.00">/icondraw/mxquaddraw.cpp</text>
</a>
</g>
</g>
<!-- Node4&#45;&gt;Node14 -->
<g id="edge14" class="edge">
<title>Node4&#45;&gt;Node14</title>
<path fill="none" stroke="midnightblue" d="M472.5,-325.11C472.5,-316.15 472.5,-306.32 472.5,-298.58"/>
<polygon fill="midnightblue" stroke="midnightblue" points="469,-325.4 472.5,-335.4 476,-325.4 469,-325.4"/>
</g>
<!-- Node6 -->
<g id="node6" class="node">
<title>Node6</title>
<g id="a_node6"><a xlink:href="mxpainter_8h.html" target="_top" xlink:title=" ">
<polygon fill="none" stroke="black" points="250.5,-207 250.5,-226 348.5,-226 348.5,-207 250.5,-207"/>
<text text-anchor="middle" x="299.5" y="-214" font-family="Helvetica,sans-Serif" font-size="10.00">src/gui/mxpainter.h</text>
</a>
</g>
</g>
<!-- Node5&#45;&gt;Node6 -->
<g id="edge5" class="edge">
<title>Node5&#45;&gt;Node6</title>
<path fill="none" stroke="midnightblue" d="M274.87,-259.63C281.63,-248.07 289.44,-234.71 294.42,-226.19"/>
<polygon fill="midnightblue" stroke="midnightblue" points="271.77,-258 269.75,-268.4 277.81,-261.53 271.77,-258"/>
</g>
<!-- Node12 -->
<g id="node12" class="node">
<title>Node12</title>
<g id="a_node12"><a xlink:href="mxicondraw_8cpp.html" target="_top" xlink:title=" ">
<polygon fill="none" stroke="black" points="0,-134.5 0,-164.5 131,-164.5 131,-134.5 0,-134.5"/>
<text text-anchor="start" x="8" y="-152.5" font-family="Helvetica,sans-Serif" font-size="10.00">src/renderer/opengl</text>
<text text-anchor="middle" x="65.5" y="-141.5" font-family="Helvetica,sans-Serif" font-size="10.00">/icondraw/mxicondraw.cpp</text>
</a>
</g>
</g>
<!-- Node5&#45;&gt;Node12 -->
<g id="edge12" class="edge">
<title>Node5&#45;&gt;Node12</title>
<path fill="none" stroke="midnightblue" d="M231.99,-262.62C191.91,-235.64 121.29,-188.08 86.32,-164.52"/>
<polygon fill="midnightblue" stroke="midnightblue" points="230.28,-265.69 240.52,-268.37 234.19,-259.88 230.28,-265.69"/>
</g>
<!-- Node13 -->
<g id="node13" class="node">
<title>Node13</title>
<g id="a_node13"><a xlink:href="mxiconprogram_8cpp.html" target="_top" xlink:title=" ">
<polygon fill="none" stroke="black" points="149.5,-134.5 149.5,-164.5 295.5,-164.5 295.5,-134.5 149.5,-134.5"/>
<text text-anchor="start" x="157.5" y="-152.5" font-family="Helvetica,sans-Serif" font-size="10.00">src/renderer/opengl</text>
<text text-anchor="middle" x="222.5" y="-141.5" font-family="Helvetica,sans-Serif" font-size="10.00">/icondraw/mxiconprogram.cpp</text>
</a>
</g>
</g>
<!-- Node5&#45;&gt;Node13 -->
<g id="edge13" class="edge">
<title>Node5&#45;&gt;Node13</title>
<path fill="none" stroke="midnightblue" d="M251.21,-258.64C247.84,-250.31 244.26,-240.83 241.5,-232 234.22,-208.7 228.31,-180.88 225.11,-164.51"/>
<polygon fill="midnightblue" stroke="midnightblue" points="248.08,-260.23 255.14,-268.12 254.54,-257.54 248.08,-260.23"/>
</g>
<!-- Node7 -->
<g id="node7" class="node">
<title>Node7</title>
<g id="a_node7"><a xlink:href="mxapplication_8h.html" target="_top" xlink:title=" ">
<polygon fill="none" stroke="black" points="441.5,-140 441.5,-159 573.5,-159 573.5,-140 441.5,-140"/>
<text text-anchor="middle" x="507.5" y="-147" font-family="Helvetica,sans-Serif" font-size="10.00">src/events/mxapplication.h</text>
</a>
</g>
</g>
<!-- Node6&#45;&gt;Node7 -->
<g id="edge6" class="edge">
<title>Node6&#45;&gt;Node7</title>
<path fill="none" stroke="midnightblue" d="M336.79,-203.85C377.99,-190.97 443.35,-170.55 480.1,-159.06"/>
<polygon fill="midnightblue" stroke="midnightblue" points="335.62,-200.55 327.12,-206.87 337.71,-207.23 335.62,-200.55"/>
</g>
<!-- Node11 -->
<g id="node11" class="node">
<title>Node11</title>
<g id="a_node11"><a xlink:href="mxpainter_8cpp.html" target="_top" xlink:title=" ">
<polygon fill="none" stroke="black" points="314,-140 314,-159 423,-159 423,-140 314,-140"/>
<text text-anchor="middle" x="368.5" y="-147" font-family="Helvetica,sans-Serif" font-size="10.00">src/gui/mxpainter.cpp</text>
</a>
</g>
</g>
<!-- Node6&#45;&gt;Node11 -->
<g id="edge11" class="edge">
<title>Node6&#45;&gt;Node11</title>
<path fill="none" stroke="midnightblue" d="M316.11,-199.86C329.67,-187.08 348.34,-169.49 359.34,-159.13"/>
<polygon fill="midnightblue" stroke="midnightblue" points="313.68,-197.33 308.81,-206.73 318.48,-202.42 313.68,-197.33"/>
</g>
<!-- Node8 -->
<g id="node8" class="node">
<title>Node8</title>
<g id="a_node8"><a xlink:href="mxapplication_8cpp.html" target="_top" xlink:title=" ">
<polygon fill="none" stroke="black" points="385,-73 385,-92 528,-92 528,-73 385,-73"/>
<text text-anchor="middle" x="456.5" y="-80" font-family="Helvetica,sans-Serif" font-size="10.00">src/events/mxapplication.cpp</text>
</a>
</g>
</g>
<!-- Node7&#45;&gt;Node8 -->
<g id="edge7" class="edge">
<title>Node7&#45;&gt;Node8</title>
<path fill="none" stroke="midnightblue" d="M494.37,-131.77C484.43,-119.1 471.17,-102.2 463.27,-92.13"/>
<polygon fill="midnightblue" stroke="midnightblue" points="491.7,-134.03 500.62,-139.73 497.2,-129.71 491.7,-134.03"/>
</g>
<!-- Node9 -->
<g id="node9" class="node">
<title>Node9</title>
<g id="a_node9"><a xlink:href="qmewawindow_8cpp.html" target="_top" xlink:title=" ">
<polygon fill="none" stroke="black" points="541.5,-0.5 541.5,-30.5 657.5,-30.5 657.5,-0.5 541.5,-0.5"/>
<text text-anchor="start" x="549.5" y="-18.5" font-family="Helvetica,sans-Serif" font-size="10.00">src/platformabstraction</text>
<text text-anchor="middle" x="599.5" y="-7.5" font-family="Helvetica,sans-Serif" font-size="10.00">/qt/qmewawindow.cpp</text>
</a>
</g>
</g>
<!-- Node7&#45;&gt;Node9 -->
<g id="edge8" class="edge">
<title>Node7&#45;&gt;Node9</title>
<path fill="none" stroke="midnightblue" d="M519.49,-131.3C537.83,-104.98 572.51,-55.23 589.55,-30.78"/>
<polygon fill="midnightblue" stroke="midnightblue" points="516.38,-129.63 513.54,-139.84 522.13,-133.64 516.38,-129.63"/>
</g>
<!-- Node10 -->
<g id="node10" class="node">
<title>Node10</title>
<g id="a_node10"><a xlink:href="qmewawindow_8h.html" target="_top" xlink:title=" ">
<polygon fill="none" stroke="black" points="584.5,-67.5 584.5,-97.5 700.5,-97.5 700.5,-67.5 584.5,-67.5"/>
<text text-anchor="start" x="592.5" y="-85.5" font-family="Helvetica,sans-Serif" font-size="10.00">src/platformabstraction</text>
<text text-anchor="middle" x="642.5" y="-74.5" font-family="Helvetica,sans-Serif" font-size="10.00">/qt/qmewawindow.h</text>
</a>
</g>
</g>
<!-- Node7&#45;&gt;Node10 -->
<g id="edge9" class="edge">
<title>Node7&#45;&gt;Node10</title>
<path fill="none" stroke="midnightblue" d="M534.55,-135.47C557.38,-124.49 589.97,-108.79 613.36,-97.53"/>
<polygon fill="midnightblue" stroke="midnightblue" points="532.92,-132.38 525.43,-139.87 535.96,-138.68 532.92,-132.38"/>
</g>
<!-- Node10&#45;&gt;Node9 -->
<g id="edge10" class="edge">
<title>Node10&#45;&gt;Node9</title>
<path fill="none" stroke="midnightblue" d="M627.53,-58.87C621.3,-49.46 614.27,-38.83 608.81,-30.58"/>
<polygon fill="midnightblue" stroke="midnightblue" points="624.73,-60.99 633.17,-67.4 630.57,-57.12 624.73,-60.99"/>
</g>
<!-- Node16&#45;&gt;Node7 -->
<g id="edge17" class="edge">
<title>Node16&#45;&gt;Node7</title>
<path fill="none" stroke="midnightblue" d="M1144.58,-205.87C1132.02,-204.07 1118.85,-202.34 1106.5,-201 874.42,-175.9 813.97,-195.21 582.5,-165 570.8,-163.47 558.17,-161.25 546.67,-159.01"/>
<polygon fill="midnightblue" stroke="midnightblue" points="1144.09,-209.34 1154.49,-207.33 1145.1,-202.41 1144.09,-209.34"/>
</g>
<!-- Node16&#45;&gt;Node11 -->
<g id="edge18" class="edge">
<title>Node16&#45;&gt;Node11</title>
<path fill="none" stroke="midnightblue" d="M1144.02,-205.65C1131.63,-203.88 1118.67,-202.22 1106.5,-201 808.02,-171.01 729.63,-206.29 432.5,-165 422.23,-163.57 411.18,-161.33 401.19,-159.03"/>
<polygon fill="midnightblue" stroke="midnightblue" points="1143.85,-209.16 1154.25,-207.14 1144.87,-202.23 1143.85,-209.16"/>
</g>
<!-- Node16&#45;&gt;Node12 -->
<g id="edge23" class="edge">
<title>Node16&#45;&gt;Node12</title>
<path fill="none" stroke="midnightblue" d="M1144.03,-205.49C1131.65,-203.74 1118.68,-202.12 1106.5,-201 678.69,-161.5 567.34,-213.92 140.5,-165 137.47,-164.65 134.38,-164.25 131.26,-163.81"/>
<polygon fill="midnightblue" stroke="midnightblue" points="1143.87,-209.01 1154.27,-206.99 1144.88,-202.08 1143.87,-209.01"/>
</g>
<!-- Node16&#45;&gt;Node13 -->
<g id="edge24" class="edge">
<title>Node16&#45;&gt;Node13</title>
<path fill="none" stroke="midnightblue" d="M1144.03,-205.57C1131.64,-203.81 1118.67,-202.17 1106.5,-201 751.34,-166.84 659.15,-204.15 304.5,-165 301.63,-164.68 298.7,-164.33 295.75,-163.94"/>
<polygon fill="midnightblue" stroke="midnightblue" points="1143.86,-209.08 1154.26,-207.06 1144.87,-202.15 1143.86,-209.08"/>
</g>
<!-- Node16&#45;&gt;Node15 -->
<g id="edge25" class="edge">
<title>Node16&#45;&gt;Node15</title>
<path fill="none" stroke="midnightblue" d="M1264.63,-202.56C1317.51,-191.18 1394.07,-174.7 1446.82,-163.34"/>
<polygon fill="midnightblue" stroke="midnightblue" points="1263.75,-199.17 1254.71,-204.69 1265.22,-206.01 1263.75,-199.17"/>
</g>
<!-- Node17 -->
<g id="node17" class="node">
<title>Node17</title>
<g id="a_node17"><a xlink:href="mxiconatlas_8h.html" target="_top" xlink:title=" ">
<polygon fill="none" stroke="black" points="773.5,-140 773.5,-159 907.5,-159 907.5,-140 773.5,-140"/>
<text text-anchor="middle" x="840.5" y="-147" font-family="Helvetica,sans-Serif" font-size="10.00">src/iconatlas/mxiconatlas.h</text>
</a>
</g>
</g>
<!-- Node16&#45;&gt;Node17 -->
<g id="edge19" class="edge">
<title>Node16&#45;&gt;Node17</title>
<path fill="none" stroke="midnightblue" d="M1144.31,-201.75C1143.03,-201.49 1141.76,-201.24 1140.5,-201 1041.5,-181.85 1015.81,-182.45 916.5,-165 906.05,-163.16 894.81,-161.08 884.27,-159.08"/>
<polygon fill="midnightblue" stroke="midnightblue" points="1143.75,-205.21 1154.25,-203.8 1145.17,-198.35 1143.75,-205.21"/>
</g>
<!-- Node19 -->
<g id="node19" class="node">
<title>Node19</title>
<g id="a_node19"><a xlink:href="mxcolorwheelprogram_8cpp.html" target="_top" xlink:title=" ">
<polygon fill="none" stroke="black" points="926,-134.5 926,-164.5 1143,-164.5 1143,-134.5 926,-134.5"/>
<text text-anchor="start" x="934" y="-152.5" font-family="Helvetica,sans-Serif" font-size="10.00">src/renderer/opengl</text>
<text text-anchor="middle" x="1034.5" y="-141.5" font-family="Helvetica,sans-Serif" font-size="10.00">/colorwheelprogram/mxcolorwheelprogram.cpp</text>
</a>
</g>
</g>
<!-- Node16&#45;&gt;Node19 -->
<g id="edge22" class="edge">
<title>Node16&#45;&gt;Node19</title>
<path fill="none" stroke="midnightblue" d="M1158.26,-197.82C1130.93,-187.37 1096.81,-174.32 1071.32,-164.58"/>
<polygon fill="midnightblue" stroke="midnightblue" points="1157.02,-201.09 1167.61,-201.4 1159.52,-194.56 1157.02,-201.09"/>
</g>
<!-- Node16&#45;&gt;Node20 -->
<g id="edge26" class="edge">
<title>Node16&#45;&gt;Node20</title>
<path fill="none" stroke="midnightblue" d="M1264.73,-209.18C1338.21,-201.04 1466.04,-185.45 1574.5,-165 1577.76,-164.38 1581.12,-163.71 1584.49,-162.99"/>
<polygon fill="midnightblue" stroke="midnightblue" points="1264.29,-205.71 1254.73,-210.28 1265.05,-212.67 1264.29,-205.71"/>
</g>
<!-- Node21 -->
<g id="node21" class="node">
<title>Node21</title>
<g id="a_node21"><a xlink:href="mxrenderer_8cpp.html" target="_top" xlink:title=" ">
<polygon fill="none" stroke="black" points="1161.5,-134.5 1161.5,-164.5 1261.5,-164.5 1261.5,-134.5 1161.5,-134.5"/>
<text text-anchor="start" x="1169.5" y="-152.5" font-family="Helvetica,sans-Serif" font-size="10.00">src/renderer/opengl</text>
<text text-anchor="middle" x="1211.5" y="-141.5" font-family="Helvetica,sans-Serif" font-size="10.00">/mxrenderer.cpp</text>
</a>
</g>
</g>
<!-- Node16&#45;&gt;Node21 -->
<g id="edge27" class="edge">
<title>Node16&#45;&gt;Node21</title>
<path fill="none" stroke="midnightblue" d="M1207.1,-191.4C1208.07,-182.37 1209.14,-172.41 1209.98,-164.58"/>
<polygon fill="midnightblue" stroke="midnightblue" points="1203.61,-191.08 1206.02,-201.4 1210.57,-191.83 1203.61,-191.08"/>
</g>
<!-- Node16&#45;&gt;Node22 -->
<g id="edge28" class="edge">
<title>Node16&#45;&gt;Node22</title>
<path fill="none" stroke="midnightblue" d="M1264.74,-211.43C1357.32,-204.68 1539.96,-189.47 1693.5,-165 1696.56,-164.51 1699.68,-163.98 1702.83,-163.4"/>
<polygon fill="midnightblue" stroke="midnightblue" points="1264.44,-207.94 1254.72,-212.15 1264.94,-214.92 1264.44,-207.94"/>
</g>
<!-- Node23 -->
<g id="node23" class="node">
<title>Node23</title>
<g id="a_node23"><a xlink:href="mxvectordraw_8cpp.html" target="_top" xlink:title=" ">
<polygon fill="none" stroke="black" points="1280,-134.5 1280,-164.5 1429,-164.5 1429,-134.5 1280,-134.5"/>
<text text-anchor="start" x="1288" y="-152.5" font-family="Helvetica,sans-Serif" font-size="10.00">src/renderer/opengl</text>
<text text-anchor="middle" x="1354.5" y="-141.5" font-family="Helvetica,sans-Serif" font-size="10.00">/vectordraw/mxvectordraw.cpp</text>
</a>
</g>
</g>
<!-- Node16&#45;&gt;Node23 -->
<g id="edge29" class="edge">
<title>Node16&#45;&gt;Node23</title>
<path fill="none" stroke="midnightblue" d="M1246.25,-197.41C1270.2,-187.03 1299.82,-174.2 1322.02,-164.58"/>
<polygon fill="midnightblue" stroke="midnightblue" points="1244.83,-194.21 1237.05,-201.4 1247.61,-200.63 1244.83,-194.21"/>
</g>
<!-- Node24 -->
<g id="node24" class="node">
<title>Node24</title>
<g id="a_node24"><a xlink:href="mxvectorprogram_8cpp.html" target="_top" xlink:title=" ">
<polygon fill="none" stroke="black" points="591.5,-134.5 591.5,-164.5 755.5,-164.5 755.5,-134.5 591.5,-134.5"/>
<text text-anchor="start" x="599.5" y="-152.5" font-family="Helvetica,sans-Serif" font-size="10.00">src/renderer/opengl</text>
<text text-anchor="middle" x="673.5" y="-141.5" font-family="Helvetica,sans-Serif" font-size="10.00">/vectordraw/mxvectorprogram.cpp</text>
</a>
</g>
</g>
<!-- Node16&#45;&gt;Node24 -->
<g id="edge30" class="edge">
<title>Node16&#45;&gt;Node24</title>
<path fill="none" stroke="midnightblue" d="M1144.33,-201.64C1143.04,-201.42 1141.77,-201.2 1140.5,-201 974.75,-174.4 931.03,-186.22 764.5,-165 761.64,-164.64 758.74,-164.25 755.81,-163.85"/>
<polygon fill="midnightblue" stroke="midnightblue" points="1143.84,-205.11 1154.31,-203.49 1145.12,-198.22 1143.84,-205.11"/>
</g>
<!-- Node17&#45;&gt;Node10 -->
<g id="edge21" class="edge">
<title>Node17&#45;&gt;Node10</title>
<path fill="none" stroke="midnightblue" d="M804.35,-136.63C770.78,-125.61 720.77,-109.19 685.23,-97.53"/>
<polygon fill="midnightblue" stroke="midnightblue" points="803.61,-140.07 814.21,-139.87 805.8,-133.42 803.61,-140.07"/>
</g>
<!-- Node18 -->
<g id="node18" class="node">
<title>Node18</title>
<g id="a_node18"><a xlink:href="mxiconatlas_8cpp.html" target="_top" xlink:title=" ">
<polygon fill="none" stroke="black" points="768,-73 768,-92 913,-92 913,-73 768,-73"/>
<text text-anchor="middle" x="840.5" y="-80" font-family="Helvetica,sans-Serif" font-size="10.00">src/iconatlas/mxiconatlas.cpp</text>
</a>
</g>
</g>
<!-- Node17&#45;&gt;Node18 -->
<g id="edge20" class="edge">
<title>Node17&#45;&gt;Node18</title>
<path fill="none" stroke="midnightblue" d="M840.5,-129.54C840.5,-117.17 840.5,-101.62 840.5,-92.13"/>
<polygon fill="midnightblue" stroke="midnightblue" points="837,-129.73 840.5,-139.73 844,-129.73 837,-129.73"/>
</g>
<!-- Node25&#45;&gt;Node6 -->
<g id="edge32" class="edge">
<title>Node25&#45;&gt;Node6</title>
<path fill="none" stroke="midnightblue" d="M999.76,-338.01C932.24,-328.13 832.93,-313.27 746.5,-299 579.46,-271.42 537.83,-263.6 371.5,-232 361.6,-230.12 350.96,-228.02 340.97,-226.01"/>
<polygon fill="midnightblue" stroke="midnightblue" points="999.5,-341.51 1009.9,-339.49 1000.51,-334.58 999.5,-341.51"/>
</g>
<!-- Node25&#45;&gt;Node23 -->
<g id="edge40" class="edge">
<title>Node25&#45;&gt;Node23</title>
<path fill="none" stroke="midnightblue" d="M1145.3,-332.28C1168.94,-324.33 1195.03,-313.39 1216.5,-299 1265.62,-266.07 1266.13,-244.21 1306.5,-201 1318.06,-188.63 1331.33,-174.68 1340.99,-164.59"/>
<polygon fill="midnightblue" stroke="midnightblue" points="1144.12,-328.98 1135.69,-335.4 1146.28,-335.64 1144.12,-328.98"/>
</g>
<!-- Node26 -->
<g id="node26" class="node">
<title>Node26</title>
<g id="a_node26"><a xlink:href="mxsvgpainter_8cpp.html" target="_top" xlink:title=" ">
<polygon fill="none" stroke="black" points="955,-207 955,-226 1098,-226 1098,-207 955,-207"/>
<text text-anchor="middle" x="1026.5" y="-214" font-family="Helvetica,sans-Serif" font-size="10.00">src/gui/svg/mxsvgpainter.cpp</text>
</a>
</g>
</g>
<!-- Node25&#45;&gt;Node26 -->
<g id="edge33" class="edge">
<title>Node25&#45;&gt;Node26</title>
<path fill="none" stroke="midnightblue" d="M1061.88,-327.13C1055.95,-318.7 1049.76,-308.78 1045.5,-299 1034.59,-273.96 1029.46,-241.74 1027.5,-226.4"/>
<polygon fill="midnightblue" stroke="midnightblue" points="1059.14,-329.31 1067.88,-335.3 1064.78,-325.17 1059.14,-329.31"/>
</g>
<!-- Node27 -->
<g id="node27" class="node">
<title>Node27</title>
<g id="a_node27"><a xlink:href="mxsvgpainter_8h.html" target="_top" xlink:title=" ">
<polygon fill="none" stroke="black" points="756,-274 756,-293 889,-293 889,-274 756,-274"/>
<text text-anchor="middle" x="822.5" y="-281" font-family="Helvetica,sans-Serif" font-size="10.00">src/gui/svg/mxsvgpainter.h</text>
</a>
</g>
</g>
<!-- Node25&#45;&gt;Node27 -->
<g id="edge34" class="edge">
<title>Node25&#45;&gt;Node27</title>
<path fill="none" stroke="midnightblue" d="M1014.22,-332.99C963.86,-320.25 896.23,-303.15 856.22,-293.03"/>
<polygon fill="midnightblue" stroke="midnightblue" points="1013.5,-336.42 1024.05,-335.48 1015.21,-329.63 1013.5,-336.42"/>
</g>
<!-- Node31 -->
<g id="node31" class="node">
<title>Node31</title>
<g id="a_node31"><a xlink:href="mxvectorprogram_8h.html" target="_top" xlink:title=" ">
<polygon fill="none" stroke="black" points="1055,-268.5 1055,-298.5 1208,-298.5 1208,-268.5 1055,-268.5"/>
<text text-anchor="start" x="1063" y="-286.5" font-family="Helvetica,sans-Serif" font-size="10.00">src/renderer/opengl</text>
<text text-anchor="middle" x="1131.5" y="-275.5" font-family="Helvetica,sans-Serif" font-size="10.00">/vectordraw/mxvectorprogram.h</text>
</a>
</g>
</g>
<!-- Node25&#45;&gt;Node31 -->
<g id="edge41" class="edge">
<title>Node25&#45;&gt;Node31</title>
<path fill="none" stroke="midnightblue" d="M1097.14,-327.45C1104.78,-317.9 1113.5,-307 1120.24,-298.58"/>
<polygon fill="midnightblue" stroke="midnightblue" points="1094.3,-325.4 1090.78,-335.4 1099.76,-329.77 1094.3,-325.4"/>
</g>
<!-- Node27&#45;&gt;Node11 -->
<g id="edge35" class="edge">
<title>Node27&#45;&gt;Node11</title>
<path fill="none" stroke="midnightblue" d="M745.75,-273.97C623.5,-260.31 397.86,-234.77 394.5,-232 372.16,-213.57 368.77,-175.93 368.42,-159.04"/>
<polygon fill="midnightblue" stroke="midnightblue" points="745.48,-277.46 755.81,-275.09 746.26,-270.5 745.48,-277.46"/>
</g>
<!-- Node27&#45;&gt;Node26 -->
<g id="edge36" class="edge">
<title>Node27&#45;&gt;Node26</title>
<path fill="none" stroke="midnightblue" d="M859.33,-270.77C899.75,-257.89 963.66,-237.52 999.62,-226.06"/>
<polygon fill="midnightblue" stroke="midnightblue" points="858.06,-267.5 849.59,-273.87 860.18,-274.17 858.06,-267.5"/>
</g>
<!-- Node28 -->
<g id="node28" class="node">
<title>Node28</title>
<g id="a_node28"><a xlink:href="downarrowsvg_8cpp.html" target="_top" xlink:title=" ">
<polygon fill="none" stroke="black" points="762,-207 762,-226 937,-226 937,-207 762,-207"/>
<text text-anchor="middle" x="849.5" y="-214" font-family="Helvetica,sans-Serif" font-size="10.00">src/svg&#45;drawings/downarrowsvg.cpp</text>
</a>
</g>
</g>
<!-- Node27&#45;&gt;Node28 -->
<g id="edge37" class="edge">
<title>Node27&#45;&gt;Node28</title>
<path fill="none" stroke="midnightblue" d="M830.06,-264.29C835.25,-251.81 841.89,-235.81 845.92,-226.13"/>
<polygon fill="midnightblue" stroke="midnightblue" points="826.75,-263.16 826.14,-273.73 833.21,-265.84 826.75,-263.16"/>
</g>
<!-- Node29 -->
<g id="node29" class="node">
<title>Node29</title>
<g id="a_node29"><a xlink:href="heartsvg_8cpp.html" target="_top" xlink:title=" ">
<polygon fill="none" stroke="black" points="404,-207 404,-226 553,-226 553,-207 404,-207"/>
<text text-anchor="middle" x="478.5" y="-214" font-family="Helvetica,sans-Serif" font-size="10.00">src/svg&#45;drawings/heartsvg.cpp</text>
</a>
</g>
</g>
<!-- Node27&#45;&gt;Node29 -->
<g id="edge38" class="edge">
<title>Node27&#45;&gt;Node29</title>
<path fill="none" stroke="midnightblue" d="M767.13,-272.04C699.47,-259.25 586.29,-237.87 523.65,-226.03"/>
<polygon fill="midnightblue" stroke="midnightblue" points="766.7,-275.52 777.17,-273.94 768,-268.64 766.7,-275.52"/>
</g>
<!-- Node30 -->
<g id="node30" class="node">
<title>Node30</title>
<g id="a_node30"><a xlink:href="plusminussvg_8cpp.html" target="_top" xlink:title=" ">
<polygon fill="none" stroke="black" points="571.5,-207 571.5,-226 743.5,-226 743.5,-207 571.5,-207"/>
<text text-anchor="middle" x="657.5" y="-214" font-family="Helvetica,sans-Serif" font-size="10.00">src/svg&#45;drawings/plusminussvg.cpp</text>
</a>
</g>
</g>
<!-- Node27&#45;&gt;Node30 -->
<g id="edge39" class="edge">
<title>Node27&#45;&gt;Node30</title>
<path fill="none" stroke="midnightblue" d="M791.03,-270.1C758.27,-257.2 707.83,-237.33 679.24,-226.06"/>
<polygon fill="midnightblue" stroke="midnightblue" points="790,-273.46 800.59,-273.87 792.57,-266.95 790,-273.46"/>
</g>
<!-- Node31&#45;&gt;Node16 -->
<g id="edge42" class="edge">
<title>Node31&#45;&gt;Node16</title>
<path fill="none" stroke="midnightblue" d="M1154.97,-261.6C1166,-251.78 1178.84,-240.34 1188.69,-231.58"/>
<polygon fill="midnightblue" stroke="midnightblue" points="1152.48,-259.13 1147.34,-268.4 1157.14,-264.36 1152.48,-259.13"/>
</g>
<!-- Node31&#45;&gt;Node24 -->
<g id="edge43" class="edge">
<title>Node31&#45;&gt;Node24</title>
<path fill="none" stroke="midnightblue" d="M1130.9,-258.33C1129.05,-239.69 1123.31,-214.84 1106.5,-201 1047.51,-152.41 840.26,-175.02 764.5,-165 761.65,-164.62 758.74,-164.23 755.81,-163.82"/>
<polygon fill="midnightblue" stroke="midnightblue" points="1127.42,-258.71 1131.59,-268.45 1134.4,-258.23 1127.42,-258.71"/>
</g>
</g>
</svg>
