<?xml version="1.0" encoding="UTF-8" standalone="no"?>
<!DOCTYPE svg PUBLIC "-//W3C//DTD SVG 1.1//EN"
 "http://www.w3.org/Graphics/SVG/1.1/DTD/svg11.dtd">
<!-- Generated by graphviz version 2.44.0 ()
 -->
<!-- Title: src/gui/mxguiaggregation.h Pages: 1 -->
<svg width="756pt" height="196pt"
 viewBox="0.00 0.00 756.00 196.00" xmlns="http://www.w3.org/2000/svg" xmlns:xlink="http://www.w3.org/1999/xlink">
<g id="graph0" class="graph" transform="scale(1 1) rotate(0) translate(4 192)">
<title>src/gui/mxguiaggregation.h</title>
<!-- Node1 -->
<g id="node1" class="node">
<title>Node1</title>
<g id="a_node1"><a xlink:title=" ">
<polygon fill="#bfbfbf" stroke="black" points="311.5,-168.5 311.5,-187.5 443.5,-187.5 443.5,-168.5 311.5,-168.5"/>
<text text-anchor="middle" x="377.5" y="-175.5" font-family="Helvetica,sans-Serif" font-size="10.00">src/gui/mxguiaggregation.h</text>
</a>
</g>
</g>
<!-- Node2 -->
<g id="node2" class="node">
<title>Node2</title>
<g id="a_node2"><a xlink:href="mxapplication_8h.html" target="_top" xlink:title=" ">
<polygon fill="none" stroke="black" points="166.5,-112.5 166.5,-131.5 298.5,-131.5 298.5,-112.5 166.5,-112.5"/>
<text text-anchor="middle" x="232.5" y="-119.5" font-family="Helvetica,sans-Serif" font-size="10.00">src/events/mxapplication.h</text>
</a>
</g>
</g>
<!-- Node1&#45;&gt;Node2 -->
<g id="edge1" class="edge">
<title>Node1&#45;&gt;Node2</title>
<path fill="none" stroke="midnightblue" d="M345.02,-164.91C317.76,-154.75 279.51,-140.51 255.37,-131.52"/>
<polygon fill="midnightblue" stroke="midnightblue" points="343.93,-168.23 354.52,-168.44 346.37,-161.67 343.93,-168.23"/>
</g>
<!-- Node4 -->
<g id="node4" class="node">
<title>Node4</title>
<g id="a_node4"><a xlink:href="mxguiaggregation_8cpp.html" target="_top" xlink:title=" ">
<polygon fill="none" stroke="black" points="0,-56.5 0,-75.5 143,-75.5 143,-56.5 0,-56.5"/>
<text text-anchor="middle" x="71.5" y="-63.5" font-family="Helvetica,sans-Serif" font-size="10.00">src/gui/mxguiaggregation.cpp</text>
</a>
</g>
</g>
<!-- Node1&#45;&gt;Node4 -->
<g id="edge7" class="edge">
<title>Node1&#45;&gt;Node4</title>
<path fill="none" stroke="midnightblue" d="M301.16,-169.85C257.6,-163.73 202.82,-152.48 157.5,-132 125.78,-117.66 94.75,-89.85 80.16,-75.71"/>
<polygon fill="midnightblue" stroke="midnightblue" points="300.75,-173.33 311.12,-171.19 301.68,-166.39 300.75,-173.33"/>
</g>
<!-- Node7 -->
<g id="node7" class="node">
<title>Node7</title>
<g id="a_node7"><a xlink:href="mxlabel_8cpp.html" target="_top" xlink:title=" ">
<polygon fill="none" stroke="black" points="317,-112.5 317,-131.5 438,-131.5 438,-112.5 317,-112.5"/>
<text text-anchor="middle" x="377.5" y="-119.5" font-family="Helvetica,sans-Serif" font-size="10.00">src/widgets/mxlabel.cpp</text>
</a>
</g>
</g>
<!-- Node1&#45;&gt;Node7 -->
<g id="edge8" class="edge">
<title>Node1&#45;&gt;Node7</title>
<path fill="none" stroke="midnightblue" d="M377.5,-157.8C377.5,-148.91 377.5,-138.78 377.5,-131.75"/>
<polygon fill="midnightblue" stroke="midnightblue" points="374,-158.08 377.5,-168.08 381,-158.08 374,-158.08"/>
</g>
<!-- Node8 -->
<g id="node8" class="node">
<title>Node8</title>
<g id="a_node8"><a xlink:href="mxlineedit_8cpp.html" target="_top" xlink:title=" ">
<polygon fill="none" stroke="black" points="456,-112.5 456,-131.5 587,-131.5 587,-112.5 456,-112.5"/>
<text text-anchor="middle" x="521.5" y="-119.5" font-family="Helvetica,sans-Serif" font-size="10.00">src/widgets/mxlineedit.cpp</text>
</a>
</g>
</g>
<!-- Node1&#45;&gt;Node8 -->
<g id="edge9" class="edge">
<title>Node1&#45;&gt;Node8</title>
<path fill="none" stroke="midnightblue" d="M409.75,-164.91C436.82,-154.75 474.82,-140.51 498.79,-131.52"/>
<polygon fill="midnightblue" stroke="midnightblue" points="408.45,-161.66 400.32,-168.44 410.91,-168.21 408.45,-161.66"/>
</g>
<!-- Node9 -->
<g id="node9" class="node">
<title>Node9</title>
<g id="a_node9"><a xlink:href="mxtextbutton_8cpp.html" target="_top" xlink:title=" ">
<polygon fill="none" stroke="black" points="605,-112.5 605,-131.5 748,-131.5 748,-112.5 605,-112.5"/>
<text text-anchor="middle" x="676.5" y="-119.5" font-family="Helvetica,sans-Serif" font-size="10.00">src/widgets/mxtextbutton.cpp</text>
</a>
</g>
</g>
<!-- Node1&#45;&gt;Node9 -->
<g id="edge10" class="edge">
<title>Node1&#45;&gt;Node9</title>
<path fill="none" stroke="midnightblue" d="M434.73,-166.66C491.24,-156.46 576.62,-141.04 629.34,-131.52"/>
<polygon fill="midnightblue" stroke="midnightblue" points="434.1,-163.22 424.88,-168.44 435.34,-170.11 434.1,-163.22"/>
</g>
<!-- Node3 -->
<g id="node3" class="node">
<title>Node3</title>
<g id="a_node3"><a xlink:href="mxapplication_8cpp.html" target="_top" xlink:title=" ">
<polygon fill="none" stroke="black" points="161,-56.5 161,-75.5 304,-75.5 304,-56.5 161,-56.5"/>
<text text-anchor="middle" x="232.5" y="-63.5" font-family="Helvetica,sans-Serif" font-size="10.00">src/events/mxapplication.cpp</text>
</a>
</g>
</g>
<!-- Node2&#45;&gt;Node3 -->
<g id="edge2" class="edge">
<title>Node2&#45;&gt;Node3</title>
<path fill="none" stroke="midnightblue" d="M232.5,-101.8C232.5,-92.91 232.5,-82.78 232.5,-75.75"/>
<polygon fill="midnightblue" stroke="midnightblue" points="229,-102.08 232.5,-112.08 236,-102.08 229,-102.08"/>
</g>
<!-- Node2&#45;&gt;Node4 -->
<g id="edge3" class="edge">
<title>Node2&#45;&gt;Node4</title>
<path fill="none" stroke="midnightblue" d="M197.24,-109.17C166.92,-99 123.93,-84.59 96.89,-75.52"/>
<polygon fill="midnightblue" stroke="midnightblue" points="196.4,-112.58 206.99,-112.44 198.62,-105.95 196.4,-112.58"/>
</g>
<!-- Node5 -->
<g id="node5" class="node">
<title>Node5</title>
<g id="a_node5"><a xlink:href="qmewawindow_8cpp.html" target="_top" xlink:title=" ">
<polygon fill="none" stroke="black" points="303,-0.5 303,-19.5 468,-19.5 468,-0.5 303,-0.5"/>
<text text-anchor="middle" x="385.5" y="-7.5" font-family="Helvetica,sans-Serif" font-size="10.00">src/platform/qt/qmewawindow.cpp</text>
</a>
</g>
</g>
<!-- Node2&#45;&gt;Node5 -->
<g id="edge4" class="edge">
<title>Node2&#45;&gt;Node5</title>
<path fill="none" stroke="midnightblue" d="M259.54,-107.94C275.74,-99.65 296.43,-88.2 313.5,-76 338.43,-58.17 364.3,-32.84 377.18,-19.69"/>
<polygon fill="midnightblue" stroke="midnightblue" points="257.94,-104.83 250.58,-112.45 261.08,-111.08 257.94,-104.83"/>
</g>
<!-- Node6 -->
<g id="node6" class="node">
<title>Node6</title>
<g id="a_node6"><a xlink:href="qmewawindow_8h.html" target="_top" xlink:title=" ">
<polygon fill="none" stroke="black" points="361,-56.5 361,-75.5 516,-75.5 516,-56.5 361,-56.5"/>
<text text-anchor="middle" x="438.5" y="-63.5" font-family="Helvetica,sans-Serif" font-size="10.00">src/platform/qt/qmewawindow.h</text>
</a>
</g>
</g>
<!-- Node2&#45;&gt;Node6 -->
<g id="edge5" class="edge">
<title>Node2&#45;&gt;Node6</title>
<path fill="none" stroke="midnightblue" d="M275.12,-109.83C314.01,-99.63 370.66,-84.78 406.01,-75.52"/>
<polygon fill="midnightblue" stroke="midnightblue" points="273.93,-106.52 265.14,-112.44 275.7,-113.29 273.93,-106.52"/>
</g>
<!-- Node6&#45;&gt;Node5 -->
<g id="edge6" class="edge">
<title>Node6&#45;&gt;Node5</title>
<path fill="none" stroke="midnightblue" d="M422.52,-48.72C413.18,-39.2 401.75,-27.56 394.09,-19.75"/>
<polygon fill="midnightblue" stroke="midnightblue" points="420.25,-51.4 429.75,-56.08 425.24,-46.49 420.25,-51.4"/>
</g>
</g>
</svg>
