<?xml version="1.0" encoding="UTF-8" standalone="no"?>
<!DOCTYPE svg PUBLIC "-//W3C//DTD SVG 1.1//EN"
 "http://www.w3.org/Graphics/SVG/1.1/DTD/svg11.dtd">
<!-- Generated by graphviz version 2.44.0 ()
 -->
<!-- Title: src/gui/mxguiaggregation.cpp Pages: 1 -->
<svg width="1422pt" height="476pt"
 viewBox="0.00 0.00 1421.58 476.00" xmlns="http://www.w3.org/2000/svg" xmlns:xlink="http://www.w3.org/1999/xlink">
<g id="graph0" class="graph" transform="scale(1 1) rotate(0) translate(4 472)">
<title>src/gui/mxguiaggregation.cpp</title>
<!-- Node1 -->
<g id="node1" class="node">
<title>Node1</title>
<g id="a_node1"><a xlink:title=" ">
<polygon fill="#bfbfbf" stroke="black" points="306.5,-448.5 306.5,-467.5 449.5,-467.5 449.5,-448.5 306.5,-448.5"/>
<text text-anchor="middle" x="378" y="-455.5" font-family="Helvetica,sans-Serif" font-size="10.00">src/gui/mxguiaggregation.cpp</text>
</a>
</g>
</g>
<!-- Node2 -->
<g id="node2" class="node">
<title>Node2</title>
<g id="a_node2"><a xlink:href="mxguiaggregation_8h.html" target="_top" xlink:title=" ">
<polygon fill="none" stroke="black" points="328,-336.5 328,-355.5 428,-355.5 428,-336.5 328,-336.5"/>
<text text-anchor="middle" x="378" y="-343.5" font-family="Helvetica,sans-Serif" font-size="10.00">mxguiaggregation.h</text>
</a>
</g>
</g>
<!-- Node1&#45;&gt;Node2 -->
<g id="edge1" class="edge">
<title>Node1&#45;&gt;Node2</title>
<path fill="none" stroke="midnightblue" d="M378,-448.37C378,-430.62 378,-389.67 378,-365.6"/>
<polygon fill="midnightblue" stroke="midnightblue" points="381.5,-365.59 378,-355.59 374.5,-365.59 381.5,-365.59"/>
</g>
<!-- Node3 -->
<g id="node3" class="node">
<title>Node3</title>
<g id="a_node3"><a xlink:title=" ">
<polygon fill="none" stroke="#bfbfbf" points="749.5,-0.5 749.5,-19.5 812.5,-19.5 812.5,-0.5 749.5,-0.5"/>
<text text-anchor="middle" x="781" y="-7.5" font-family="Helvetica,sans-Serif" font-size="10.00">mxdebug.h</text>
</a>
</g>
</g>
<!-- Node1&#45;&gt;Node3 -->
<g id="edge2" class="edge">
<title>Node1&#45;&gt;Node3</title>
<path fill="none" stroke="midnightblue" d="M306.46,-450.85C196.87,-439.43 0,-410.14 0,-347 0,-347 0,-347 0,-121 0,-45.63 577.66,-18.54 739.38,-12.43"/>
<polygon fill="midnightblue" stroke="midnightblue" points="739.55,-15.93 749.42,-12.06 739.29,-8.93 739.55,-15.93"/>
</g>
<!-- Node4 -->
<g id="node4" class="node">
<title>Node4</title>
<g id="a_node4"><a xlink:href="mxapplication_8h.html" target="_top" xlink:title=" ">
<polygon fill="none" stroke="black" points="781.5,-392.5 781.5,-411.5 864.5,-411.5 864.5,-392.5 781.5,-392.5"/>
<text text-anchor="middle" x="823" y="-399.5" font-family="Helvetica,sans-Serif" font-size="10.00">mxapplication.h</text>
</a>
</g>
</g>
<!-- Node1&#45;&gt;Node4 -->
<g id="edge3" class="edge">
<title>Node1&#45;&gt;Node4</title>
<path fill="none" stroke="midnightblue" d="M448.51,-448.44C538.22,-437.56 691.08,-419.01 770.94,-409.32"/>
<polygon fill="midnightblue" stroke="midnightblue" points="771.73,-412.75 781.24,-408.07 770.89,-405.8 771.73,-412.75"/>
</g>
<!-- Node4&#45;&gt;Node2 -->
<g id="edge70" class="edge">
<title>Node4&#45;&gt;Node2</title>
<path fill="none" stroke="midnightblue" d="M781.24,-396.62C712.17,-389.27 569.52,-373.64 438.42,-356.15"/>
<polygon fill="midnightblue" stroke="midnightblue" points="438.57,-352.64 428.19,-354.78 437.64,-359.58 438.57,-352.64"/>
</g>
<!-- Node4&#45;&gt;Node3 -->
<g id="edge4" class="edge">
<title>Node4&#45;&gt;Node3</title>
<path fill="none" stroke="midnightblue" d="M833.63,-392.24C861.96,-367.79 936.18,-295.85 922,-224 916.79,-197.6 912.3,-191.39 899,-168 867.67,-112.91 819.62,-55.05 795.66,-27.48"/>
<polygon fill="midnightblue" stroke="midnightblue" points="798,-24.85 788.77,-19.64 792.74,-29.46 798,-24.85"/>
</g>
<!-- Node5 -->
<g id="node5" class="node">
<title>Node5</title>
<g id="a_node5"><a xlink:href="mxwidgetlist_8h.html" target="_top" xlink:title=" ">
<polygon fill="none" stroke="black" points="1222,-336.5 1222,-355.5 1300,-355.5 1300,-336.5 1222,-336.5"/>
<text text-anchor="middle" x="1261" y="-343.5" font-family="Helvetica,sans-Serif" font-size="10.00">mxwidgetlist.h</text>
</a>
</g>
</g>
<!-- Node4&#45;&gt;Node5 -->
<g id="edge5" class="edge">
<title>Node4&#45;&gt;Node5</title>
<path fill="none" stroke="midnightblue" d="M864.51,-396.63C934.58,-389.14 1080.78,-373 1204,-356 1206.52,-355.65 1209.1,-355.29 1211.7,-354.91"/>
<polygon fill="midnightblue" stroke="midnightblue" points="1212.41,-358.34 1221.78,-353.4 1211.37,-351.42 1212.41,-358.34"/>
</g>
<!-- Node11 -->
<g id="node11" class="node">
<title>Node11</title>
<g id="a_node11"><a xlink:href="mxguirenderer_8h.html" target="_top" xlink:title=" ">
<polygon fill="none" stroke="black" points="446.5,-336.5 446.5,-355.5 531.5,-355.5 531.5,-336.5 446.5,-336.5"/>
<text text-anchor="middle" x="489" y="-343.5" font-family="Helvetica,sans-Serif" font-size="10.00">mxguirenderer.h</text>
</a>
</g>
</g>
<!-- Node4&#45;&gt;Node11 -->
<g id="edge12" class="edge">
<title>Node4&#45;&gt;Node11</title>
<path fill="none" stroke="midnightblue" d="M781.37,-394.27C720.79,-384.47 608.32,-366.29 541.92,-355.56"/>
<polygon fill="midnightblue" stroke="midnightblue" points="542.11,-352.04 531.68,-353.9 540.99,-358.95 542.11,-352.04"/>
</g>
<!-- Node26 -->
<g id="node26" class="node">
<title>Node26</title>
<g id="a_node26"><a xlink:href="mxmouseevent_8h.html" target="_top" xlink:title=" ">
<polygon fill="none" stroke="black" points="1105,-336.5 1105,-355.5 1195,-355.5 1195,-336.5 1105,-336.5"/>
<text text-anchor="middle" x="1150" y="-343.5" font-family="Helvetica,sans-Serif" font-size="10.00">mxmouseevent.h</text>
</a>
</g>
</g>
<!-- Node4&#45;&gt;Node26 -->
<g id="edge40" class="edge">
<title>Node4&#45;&gt;Node26</title>
<path fill="none" stroke="midnightblue" d="M864.75,-394.11C923.26,-384.44 1029.76,-366.86 1094.77,-356.12"/>
<polygon fill="midnightblue" stroke="midnightblue" points="1095.54,-359.54 1104.83,-354.46 1094.4,-352.63 1095.54,-359.54"/>
</g>
<!-- Node28 -->
<g id="node28" class="node">
<title>Node28</title>
<g id="a_node28"><a xlink:href="mxpainter_8h.html" target="_top" xlink:title=" ">
<polygon fill="none" stroke="black" points="790,-336.5 790,-355.5 856,-355.5 856,-336.5 790,-336.5"/>
<text text-anchor="middle" x="823" y="-343.5" font-family="Helvetica,sans-Serif" font-size="10.00">mxpainter.h</text>
</a>
</g>
</g>
<!-- Node4&#45;&gt;Node28 -->
<g id="edge43" class="edge">
<title>Node4&#45;&gt;Node28</title>
<path fill="none" stroke="midnightblue" d="M823,-392.08C823,-385.01 823,-374.86 823,-365.99"/>
<polygon fill="midnightblue" stroke="midnightblue" points="826.5,-365.75 823,-355.75 819.5,-365.75 826.5,-365.75"/>
</g>
<!-- Node6 -->
<g id="node6" class="node">
<title>Node6</title>
<g id="a_node6"><a xlink:href="mxlist_8h.html" target="_top" xlink:title=" ">
<polygon fill="none" stroke="black" points="1246,-112.5 1246,-131.5 1296,-131.5 1296,-112.5 1246,-112.5"/>
<text text-anchor="middle" x="1271" y="-119.5" font-family="Helvetica,sans-Serif" font-size="10.00">mxlist.h</text>
</a>
</g>
</g>
<!-- Node5&#45;&gt;Node6 -->
<g id="edge6" class="edge">
<title>Node5&#45;&gt;Node6</title>
<path fill="none" stroke="midnightblue" d="M1261.39,-336.3C1262.86,-303.63 1268.08,-187.87 1270.15,-141.96"/>
<polygon fill="midnightblue" stroke="midnightblue" points="1273.65,-142.03 1270.6,-131.88 1266.65,-141.72 1273.65,-142.03"/>
</g>
<!-- Node6&#45;&gt;Node3 -->
<g id="edge7" class="edge">
<title>Node6&#45;&gt;Node3</title>
<path fill="none" stroke="midnightblue" d="M1245.84,-118.28C1202.79,-113.16 1112.64,-100.33 1040,-76 1020.77,-69.56 1018.19,-62.54 999,-56 939.4,-35.67 867.36,-22.99 822.85,-16.46"/>
<polygon fill="midnightblue" stroke="midnightblue" points="823.1,-12.96 812.7,-15 822.1,-19.89 823.1,-12.96"/>
</g>
<!-- Node7 -->
<g id="node7" class="node">
<title>Node7</title>
<g id="a_node7"><a xlink:href="mxrefcounter_8h.html" target="_top" xlink:title=" ">
<polygon fill="none" stroke="black" points="1231,-56.5 1231,-75.5 1311,-75.5 1311,-56.5 1231,-56.5"/>
<text text-anchor="middle" x="1271" y="-63.5" font-family="Helvetica,sans-Serif" font-size="10.00">mxrefcounter.h</text>
</a>
</g>
</g>
<!-- Node6&#45;&gt;Node7 -->
<g id="edge8" class="edge">
<title>Node6&#45;&gt;Node7</title>
<path fill="none" stroke="midnightblue" d="M1271,-112.08C1271,-105.01 1271,-94.86 1271,-85.99"/>
<polygon fill="midnightblue" stroke="midnightblue" points="1274.5,-85.75 1271,-75.75 1267.5,-85.75 1274.5,-85.75"/>
</g>
<!-- Node8 -->
<g id="node8" class="node">
<title>Node8</title>
<g id="a_node8"><a xlink:title=" ">
<polygon fill="none" stroke="#bfbfbf" points="1127.5,-0.5 1127.5,-19.5 1174.5,-19.5 1174.5,-0.5 1127.5,-0.5"/>
<text text-anchor="middle" x="1151" y="-7.5" font-family="Helvetica,sans-Serif" font-size="10.00">stdlib.h</text>
</a>
</g>
</g>
<!-- Node6&#45;&gt;Node8 -->
<g id="edge9" class="edge">
<title>Node6&#45;&gt;Node8</title>
<path fill="none" stroke="midnightblue" d="M1296.21,-115.61C1333.82,-106.43 1397.7,-85.85 1373,-56 1320.45,7.5 1271.01,-35.86 1184.61,-19.78"/>
<polygon fill="midnightblue" stroke="midnightblue" points="1185.24,-16.34 1174.74,-17.71 1183.81,-23.19 1185.24,-16.34"/>
</g>
<!-- Node9 -->
<g id="node9" class="node">
<title>Node9</title>
<g id="a_node9"><a xlink:title=" ">
<polygon fill="none" stroke="#bfbfbf" points="1193,-0.5 1193,-19.5 1241,-19.5 1241,-0.5 1193,-0.5"/>
<text text-anchor="middle" x="1217" y="-7.5" font-family="Helvetica,sans-Serif" font-size="10.00">string.h</text>
</a>
</g>
</g>
<!-- Node6&#45;&gt;Node9 -->
<g id="edge10" class="edge">
<title>Node6&#45;&gt;Node9</title>
<path fill="none" stroke="midnightblue" d="M1296.24,-118.46C1343.66,-112.7 1438.57,-95.92 1407,-56 1387.95,-31.91 1300.67,-19.38 1251.3,-14.11"/>
<polygon fill="midnightblue" stroke="midnightblue" points="1251.39,-10.6 1241.09,-13.07 1250.68,-17.56 1251.39,-10.6"/>
</g>
<!-- Node10 -->
<g id="node10" class="node">
<title>Node10</title>
<g id="a_node10"><a xlink:title=" ">
<polygon fill="none" stroke="#bfbfbf" points="1329.5,-56.5 1329.5,-75.5 1364.5,-75.5 1364.5,-56.5 1329.5,-56.5"/>
<text text-anchor="middle" x="1347" y="-63.5" font-family="Helvetica,sans-Serif" font-size="10.00">new</text>
</a>
</g>
</g>
<!-- Node6&#45;&gt;Node10 -->
<g id="edge11" class="edge">
<title>Node6&#45;&gt;Node10</title>
<path fill="none" stroke="midnightblue" d="M1283.21,-112.32C1294.78,-104.11 1312.38,-91.6 1326.16,-81.81"/>
<polygon fill="midnightblue" stroke="midnightblue" points="1328.44,-84.48 1334.57,-75.83 1324.39,-78.77 1328.44,-84.48"/>
</g>
<!-- Node12 -->
<g id="node12" class="node">
<title>Node12</title>
<g id="a_node12"><a xlink:href="mxbuffer_8h.html" target="_top" xlink:title=" ">
<polygon fill="none" stroke="black" points="488.5,-280.5 488.5,-299.5 549.5,-299.5 549.5,-280.5 488.5,-280.5"/>
<text text-anchor="middle" x="519" y="-287.5" font-family="Helvetica,sans-Serif" font-size="10.00">mxbuffer.h</text>
</a>
</g>
</g>
<!-- Node11&#45;&gt;Node12 -->
<g id="edge13" class="edge">
<title>Node11&#45;&gt;Node12</title>
<path fill="none" stroke="midnightblue" d="M493.95,-336.08C498.1,-328.61 504.15,-317.72 509.27,-308.52"/>
<polygon fill="midnightblue" stroke="midnightblue" points="512.34,-310.19 514.14,-299.75 506.22,-306.79 512.34,-310.19"/>
</g>
<!-- Node13 -->
<g id="node13" class="node">
<title>Node13</title>
<g id="a_node13"><a xlink:href="mxrenderer_8h.html" target="_top" xlink:title=" ">
<polygon fill="none" stroke="black" points="360,-280.5 360,-299.5 432,-299.5 432,-280.5 360,-280.5"/>
<text text-anchor="middle" x="396" y="-287.5" font-family="Helvetica,sans-Serif" font-size="10.00">mxrenderer.h</text>
</a>
</g>
</g>
<!-- Node11&#45;&gt;Node13 -->
<g id="edge14" class="edge">
<title>Node11&#45;&gt;Node13</title>
<path fill="none" stroke="midnightblue" d="M474.06,-336.32C459.41,-327.82 436.87,-314.73 419.76,-304.8"/>
<polygon fill="midnightblue" stroke="midnightblue" points="421.31,-301.65 410.9,-299.65 417.8,-307.7 421.31,-301.65"/>
</g>
<!-- Node21 -->
<g id="node21" class="node">
<title>Node21</title>
<g id="a_node21"><a xlink:href="mxvectorprogram_8h.html" target="_top" xlink:title=" ">
<polygon fill="none" stroke="black" points="242.5,-280.5 242.5,-299.5 341.5,-299.5 341.5,-280.5 242.5,-280.5"/>
<text text-anchor="middle" x="292" y="-287.5" font-family="Helvetica,sans-Serif" font-size="10.00">mxvectorprogram.h</text>
</a>
</g>
</g>
<!-- Node11&#45;&gt;Node21 -->
<g id="edge25" class="edge">
<title>Node11&#45;&gt;Node21</title>
<path fill="none" stroke="midnightblue" d="M457.78,-336.44C424.07,-327.2 370.2,-312.44 333.07,-302.26"/>
<polygon fill="midnightblue" stroke="midnightblue" points="333.64,-298.78 323.07,-299.52 331.79,-305.54 333.64,-298.78"/>
</g>
<!-- Node25 -->
<g id="node25" class="node">
<title>Node25</title>
<g id="a_node25"><a xlink:href="mxiconprogram_8h.html" target="_top" xlink:title=" ">
<polygon fill="none" stroke="black" points="358,-224.5 358,-243.5 448,-243.5 448,-224.5 358,-224.5"/>
<text text-anchor="middle" x="403" y="-231.5" font-family="Helvetica,sans-Serif" font-size="10.00">mxiconprogram.h</text>
</a>
</g>
</g>
<!-- Node11&#45;&gt;Node25 -->
<g id="edge33" class="edge">
<title>Node11&#45;&gt;Node25</title>
<path fill="none" stroke="midnightblue" d="M482.96,-336.45C474.02,-323.9 456.65,-299.81 441,-280 433.39,-270.37 424.57,-259.88 417.34,-251.45"/>
<polygon fill="midnightblue" stroke="midnightblue" points="419.93,-249.1 410.74,-243.82 414.63,-253.68 419.93,-249.1"/>
</g>
<!-- Node13&#45;&gt;Node6 -->
<g id="edge15" class="edge">
<title>Node13&#45;&gt;Node6</title>
<path fill="none" stroke="midnightblue" d="M432.34,-284.87C446.85,-283.27 463.71,-281.47 479,-280 668.57,-261.73 725.59,-305.04 906,-244 965.44,-223.89 966.6,-190.96 1025,-168 1096.52,-139.88 1186.75,-129.13 1235.62,-125.18"/>
<polygon fill="midnightblue" stroke="midnightblue" points="1235.98,-128.66 1245.69,-124.41 1235.45,-121.68 1235.98,-128.66"/>
</g>
<!-- Node14 -->
<g id="node14" class="node">
<title>Node14</title>
<g id="a_node14"><a xlink:href="mxgpuarray_8h.html" target="_top" xlink:title=" ">
<polygon fill="none" stroke="black" points="190,-224.5 190,-243.5 264,-243.5 264,-224.5 190,-224.5"/>
<text text-anchor="middle" x="227" y="-231.5" font-family="Helvetica,sans-Serif" font-size="10.00">mxgpuarray.h</text>
</a>
</g>
</g>
<!-- Node13&#45;&gt;Node14 -->
<g id="edge16" class="edge">
<title>Node13&#45;&gt;Node14</title>
<path fill="none" stroke="midnightblue" d="M369.22,-280.44C340.67,-271.32 295.27,-256.81 263.46,-246.65"/>
<polygon fill="midnightblue" stroke="midnightblue" points="264.24,-243.23 253.65,-243.52 262.11,-249.89 264.24,-243.23"/>
</g>
<!-- Node17 -->
<g id="node17" class="node">
<title>Node17</title>
<g id="a_node17"><a xlink:href="mxmatrix_8h.html" target="_top" xlink:title=" ">
<polygon fill="none" stroke="black" points="301.5,-168.5 301.5,-187.5 364.5,-187.5 364.5,-168.5 301.5,-168.5"/>
<text text-anchor="middle" x="333" y="-175.5" font-family="Helvetica,sans-Serif" font-size="10.00">mxmatrix.h</text>
</a>
</g>
</g>
<!-- Node13&#45;&gt;Node17 -->
<g id="edge20" class="edge">
<title>Node13&#45;&gt;Node17</title>
<path fill="none" stroke="midnightblue" d="M383.71,-280.43C372.95,-272.29 357.71,-259.06 349,-244 340.73,-229.69 336.71,-211.23 334.77,-197.64"/>
<polygon fill="midnightblue" stroke="midnightblue" points="338.23,-197.09 333.58,-187.56 331.28,-197.9 338.23,-197.09"/>
</g>
<!-- Node18 -->
<g id="node18" class="node">
<title>Node18</title>
<g id="a_node18"><a xlink:href="mxopenglfunctions_8h.html" target="_top" xlink:title=" ">
<polygon fill="none" stroke="black" points="28.5,-224.5 28.5,-243.5 133.5,-243.5 133.5,-224.5 28.5,-224.5"/>
<text text-anchor="middle" x="81" y="-231.5" font-family="Helvetica,sans-Serif" font-size="10.00">mxopenglfunctions.h</text>
</a>
</g>
</g>
<!-- Node13&#45;&gt;Node18 -->
<g id="edge21" class="edge">
<title>Node13&#45;&gt;Node18</title>
<path fill="none" stroke="midnightblue" d="M359.86,-281.83C356.53,-281.2 353.2,-280.58 350,-280 279.53,-267.21 198.43,-253.83 143.86,-245.01"/>
<polygon fill="midnightblue" stroke="midnightblue" points="144.08,-241.51 133.65,-243.37 142.97,-248.42 144.08,-241.51"/>
</g>
<!-- Node20 -->
<g id="node20" class="node">
<title>Node20</title>
<g id="a_node20"><a xlink:href="mxvector_8h.html" target="_top" xlink:title=" ">
<polygon fill="none" stroke="black" points="699,-112.5 699,-131.5 763,-131.5 763,-112.5 699,-112.5"/>
<text text-anchor="middle" x="731" y="-119.5" font-family="Helvetica,sans-Serif" font-size="10.00">mxvector.h</text>
</a>
</g>
</g>
<!-- Node13&#45;&gt;Node20 -->
<g id="edge23" class="edge">
<title>Node13&#45;&gt;Node20</title>
<path fill="none" stroke="midnightblue" d="M432.14,-282.84C466.24,-276.17 518.23,-263.76 560,-244 621.34,-214.99 684.1,-163.99 713.63,-138.47"/>
<polygon fill="midnightblue" stroke="midnightblue" points="716.15,-140.92 721.37,-131.7 711.54,-135.65 716.15,-140.92"/>
</g>
<!-- Node15 -->
<g id="node15" class="node">
<title>Node15</title>
<g id="a_node15"><a xlink:href="mxgpuprogram_8h.html" target="_top" xlink:title=" ">
<polygon fill="none" stroke="black" points="195,-168.5 195,-187.5 283,-187.5 283,-168.5 195,-168.5"/>
<text text-anchor="middle" x="239" y="-175.5" font-family="Helvetica,sans-Serif" font-size="10.00">mxgpuprogram.h</text>
</a>
</g>
</g>
<!-- Node14&#45;&gt;Node15 -->
<g id="edge17" class="edge">
<title>Node14&#45;&gt;Node15</title>
<path fill="none" stroke="midnightblue" d="M228.98,-224.08C230.57,-216.93 232.86,-206.64 234.85,-197.69"/>
<polygon fill="midnightblue" stroke="midnightblue" points="238.3,-198.27 237.06,-187.75 231.47,-196.75 238.3,-198.27"/>
</g>
<!-- Node15&#45;&gt;Node3 -->
<g id="edge18" class="edge">
<title>Node15&#45;&gt;Node3</title>
<path fill="none" stroke="midnightblue" d="M246.11,-168.33C265.54,-145.33 322.3,-82.7 385,-56 448.09,-29.13 650.84,-16.9 739.19,-12.74"/>
<polygon fill="midnightblue" stroke="midnightblue" points="739.56,-16.23 749.38,-12.27 739.23,-9.23 739.56,-16.23"/>
</g>
<!-- Node16 -->
<g id="node16" class="node">
<title>Node16</title>
<g id="a_node16"><a xlink:title=" ">
<polygon fill="none" stroke="#bfbfbf" points="427.5,-112.5 427.5,-131.5 492.5,-131.5 492.5,-112.5 427.5,-112.5"/>
<text text-anchor="middle" x="460" y="-119.5" font-family="Helvetica,sans-Serif" font-size="10.00">mxopengl.h</text>
</a>
</g>
</g>
<!-- Node15&#45;&gt;Node16 -->
<g id="edge19" class="edge">
<title>Node15&#45;&gt;Node16</title>
<path fill="none" stroke="midnightblue" d="M274.02,-168.44C312.92,-158.94 375.74,-143.59 417.45,-133.4"/>
<polygon fill="midnightblue" stroke="midnightblue" points="418.42,-136.76 427.31,-130.99 416.76,-129.96 418.42,-136.76"/>
</g>
<!-- Node19 -->
<g id="node19" class="node">
<title>Node19</title>
<g id="a_node19"><a xlink:title=" ">
<polygon fill="none" stroke="#bfbfbf" points="28.5,-168.5 28.5,-187.5 153.5,-187.5 153.5,-168.5 28.5,-168.5"/>
<text text-anchor="middle" x="91" y="-175.5" font-family="Helvetica,sans-Serif" font-size="10.00">QOpenGLExtraFunctions</text>
</a>
</g>
</g>
<!-- Node18&#45;&gt;Node19 -->
<g id="edge22" class="edge">
<title>Node18&#45;&gt;Node19</title>
<path fill="none" stroke="midnightblue" d="M82.65,-224.08C83.98,-216.93 85.88,-206.64 87.54,-197.69"/>
<polygon fill="midnightblue" stroke="midnightblue" points="91,-198.22 89.38,-187.75 84.12,-196.95 91,-198.22"/>
</g>
<!-- Node20&#45;&gt;Node3 -->
<g id="edge24" class="edge">
<title>Node20&#45;&gt;Node3</title>
<path fill="none" stroke="midnightblue" d="M734.92,-112.37C743.07,-94.46 761.94,-52.92 772.84,-28.95"/>
<polygon fill="midnightblue" stroke="midnightblue" points="776.14,-30.14 777.09,-19.59 769.77,-27.25 776.14,-30.14"/>
</g>
<!-- Node21&#45;&gt;Node15 -->
<g id="edge26" class="edge">
<title>Node21&#45;&gt;Node15</title>
<path fill="none" stroke="midnightblue" d="M242.25,-281.69C219.57,-275.6 194.77,-264.44 181,-244 168.05,-224.77 191.41,-205.26 212.24,-192.7"/>
<polygon fill="midnightblue" stroke="midnightblue" points="214.23,-195.6 221.19,-187.61 210.77,-189.51 214.23,-195.6"/>
</g>
<!-- Node21&#45;&gt;Node17 -->
<g id="edge27" class="edge">
<title>Node21&#45;&gt;Node17</title>
<path fill="none" stroke="midnightblue" d="M295.24,-280.16C299.83,-267.65 308.51,-244.06 316,-224 319.29,-215.19 322.98,-205.42 326.07,-197.24"/>
<polygon fill="midnightblue" stroke="midnightblue" points="329.45,-198.21 329.72,-187.62 322.9,-195.73 329.45,-198.21"/>
</g>
<!-- Node22 -->
<g id="node22" class="node">
<title>Node22</title>
<g id="a_node22"><a xlink:href="mxvectordraw_8h.html" target="_top" xlink:title=" ">
<polygon fill="none" stroke="black" points="466.5,-224.5 466.5,-243.5 551.5,-243.5 551.5,-224.5 466.5,-224.5"/>
<text text-anchor="middle" x="509" y="-231.5" font-family="Helvetica,sans-Serif" font-size="10.00">mxvectordraw.h</text>
</a>
</g>
</g>
<!-- Node21&#45;&gt;Node22 -->
<g id="edge28" class="edge">
<title>Node21&#45;&gt;Node22</title>
<path fill="none" stroke="midnightblue" d="M326.38,-280.44C363.92,-271.1 424.13,-256.12 465.07,-245.93"/>
<polygon fill="midnightblue" stroke="midnightblue" points="465.92,-249.33 474.78,-243.52 464.23,-242.53 465.92,-249.33"/>
</g>
<!-- Node23 -->
<g id="node23" class="node">
<title>Node23</title>
<g id="a_node23"><a xlink:href="mxrect_8h.html" target="_top" xlink:title=" ">
<polygon fill="none" stroke="black" points="541.5,-168.5 541.5,-187.5 594.5,-187.5 594.5,-168.5 541.5,-168.5"/>
<text text-anchor="middle" x="568" y="-175.5" font-family="Helvetica,sans-Serif" font-size="10.00">mxrect.h</text>
</a>
</g>
</g>
<!-- Node22&#45;&gt;Node23 -->
<g id="edge29" class="edge">
<title>Node22&#45;&gt;Node23</title>
<path fill="none" stroke="midnightblue" d="M518.48,-224.32C527.2,-216.34 540.34,-204.31 550.9,-194.65"/>
<polygon fill="midnightblue" stroke="midnightblue" points="553.33,-197.17 558.35,-187.83 548.61,-192 553.33,-197.17"/>
</g>
<!-- Node23&#45;&gt;Node3 -->
<g id="edge30" class="edge">
<title>Node23&#45;&gt;Node3</title>
<path fill="none" stroke="midnightblue" d="M568.41,-168.43C569.46,-154.98 573.27,-128.72 587,-112 626.57,-63.81 695.2,-35.89 739.32,-22.06"/>
<polygon fill="midnightblue" stroke="midnightblue" points="740.61,-25.33 749.16,-19.08 738.58,-18.63 740.61,-25.33"/>
</g>
<!-- Node23&#45;&gt;Node20 -->
<g id="edge31" class="edge">
<title>Node23&#45;&gt;Node20</title>
<path fill="none" stroke="midnightblue" d="M593.83,-168.44C621.25,-159.36 664.78,-144.94 695.43,-134.78"/>
<polygon fill="midnightblue" stroke="midnightblue" points="696.9,-137.98 705.29,-131.52 694.7,-131.34 696.9,-137.98"/>
</g>
<!-- Node24 -->
<g id="node24" class="node">
<title>Node24</title>
<g id="a_node24"><a xlink:title=" ">
<polygon fill="none" stroke="#bfbfbf" points="596,-112.5 596,-131.5 652,-131.5 652,-112.5 596,-112.5"/>
<text text-anchor="middle" x="624" y="-119.5" font-family="Helvetica,sans-Serif" font-size="10.00">algorithm</text>
</a>
</g>
</g>
<!-- Node23&#45;&gt;Node24 -->
<g id="edge32" class="edge">
<title>Node23&#45;&gt;Node24</title>
<path fill="none" stroke="midnightblue" d="M577,-168.32C585.19,-160.42 597.51,-148.55 607.47,-138.94"/>
<polygon fill="midnightblue" stroke="midnightblue" points="610.07,-141.29 614.84,-131.83 605.21,-136.26 610.07,-141.29"/>
</g>
<!-- Node25&#45;&gt;Node3 -->
<g id="edge34" class="edge">
<title>Node25&#45;&gt;Node3</title>
<path fill="none" stroke="midnightblue" d="M401.18,-224.42C397.09,-202.69 389.67,-144.87 418,-112 460.17,-63.08 653.27,-29.53 739.37,-16.75"/>
<polygon fill="midnightblue" stroke="midnightblue" points="739.93,-20.21 749.32,-15.3 738.92,-13.28 739.93,-20.21"/>
</g>
<!-- Node25&#45;&gt;Node15 -->
<g id="edge38" class="edge">
<title>Node25&#45;&gt;Node15</title>
<path fill="none" stroke="midnightblue" d="M377.01,-224.44C349.3,-215.32 305.25,-200.81 274.38,-190.65"/>
<polygon fill="midnightblue" stroke="midnightblue" points="275.46,-187.32 264.86,-187.52 273.27,-193.97 275.46,-187.32"/>
</g>
<!-- Node25&#45;&gt;Node16 -->
<g id="edge37" class="edge">
<title>Node25&#45;&gt;Node16</title>
<path fill="none" stroke="midnightblue" d="M407.47,-224.37C416.8,-206.38 438.47,-164.55 450.87,-140.63"/>
<polygon fill="midnightblue" stroke="midnightblue" points="454.05,-142.08 455.55,-131.59 447.84,-138.86 454.05,-142.08"/>
</g>
<!-- Node25&#45;&gt;Node17 -->
<g id="edge35" class="edge">
<title>Node25&#45;&gt;Node17</title>
<path fill="none" stroke="midnightblue" d="M391.75,-224.32C381.2,-216.18 365.2,-203.84 352.56,-194.09"/>
<polygon fill="midnightblue" stroke="midnightblue" points="354.51,-191.17 344.45,-187.83 350.23,-196.71 354.51,-191.17"/>
</g>
<!-- Node25&#45;&gt;Node20 -->
<g id="edge36" class="edge">
<title>Node25&#45;&gt;Node20</title>
<path fill="none" stroke="midnightblue" d="M417.19,-224.39C440.41,-210.64 488.33,-183.67 532,-168 584.71,-149.08 648.21,-136.37 689.08,-129.41"/>
<polygon fill="midnightblue" stroke="midnightblue" points="689.67,-132.86 698.96,-127.76 688.52,-125.96 689.67,-132.86"/>
</g>
<!-- Node25&#45;&gt;Node23 -->
<g id="edge39" class="edge">
<title>Node25&#45;&gt;Node23</title>
<path fill="none" stroke="midnightblue" d="M429.14,-224.44C457.02,-215.32 501.35,-200.81 532.4,-190.65"/>
<polygon fill="midnightblue" stroke="midnightblue" points="533.56,-193.95 541.98,-187.52 531.38,-187.3 533.56,-193.95"/>
</g>
<!-- Node26&#45;&gt;Node20 -->
<g id="edge41" class="edge">
<title>Node26&#45;&gt;Node20</title>
<path fill="none" stroke="midnightblue" d="M1137.28,-336.41C1096.7,-309.25 966.14,-223.71 850,-168 822.99,-155.04 791.2,-143.19 767.27,-134.9"/>
<polygon fill="midnightblue" stroke="midnightblue" points="768.13,-131.49 757.54,-131.57 765.87,-138.12 768.13,-131.49"/>
</g>
<!-- Node27 -->
<g id="node27" class="node">
<title>Node27</title>
<g id="a_node27"><a xlink:title=" ">
<polygon fill="none" stroke="#bfbfbf" points="1105,-280.5 1105,-299.5 1243,-299.5 1243,-280.5 1105,-280.5"/>
<text text-anchor="middle" x="1174" y="-287.5" font-family="Helvetica,sans-Serif" font-size="10.00">mxmouseeventabstraction.h</text>
</a>
</g>
</g>
<!-- Node26&#45;&gt;Node27 -->
<g id="edge42" class="edge">
<title>Node26&#45;&gt;Node27</title>
<path fill="none" stroke="midnightblue" d="M1153.96,-336.08C1157.21,-328.77 1161.92,-318.18 1165.95,-309.1"/>
<polygon fill="midnightblue" stroke="midnightblue" points="1169.25,-310.31 1170.11,-299.75 1162.85,-307.47 1169.25,-310.31"/>
</g>
<!-- Node28&#45;&gt;Node3 -->
<g id="edge44" class="edge">
<title>Node28&#45;&gt;Node3</title>
<path fill="none" stroke="midnightblue" d="M836.55,-336.32C863.67,-317.76 920.8,-271.95 906,-224 882.51,-147.91 841.51,-146.77 805,-76 797.24,-60.97 790.77,-42.84 786.5,-29.55"/>
<polygon fill="midnightblue" stroke="midnightblue" points="789.76,-28.22 783.46,-19.7 783.07,-30.28 789.76,-28.22"/>
</g>
<!-- Node28&#45;&gt;Node6 -->
<g id="edge46" class="edge">
<title>Node28&#45;&gt;Node6</title>
<path fill="none" stroke="midnightblue" d="M856.01,-337.96C887.79,-330.59 936.82,-317.61 977,-300 1086.47,-252.01 1204.93,-170.53 1251.05,-137.53"/>
<polygon fill="midnightblue" stroke="midnightblue" points="1253.22,-140.28 1259.29,-131.6 1249.13,-134.6 1253.22,-140.28"/>
</g>
<!-- Node28&#45;&gt;Node22 -->
<g id="edge45" class="edge">
<title>Node28&#45;&gt;Node22</title>
<path fill="none" stroke="midnightblue" d="M789.87,-338.86C753.29,-331.59 692.96,-318.14 643,-300 603.17,-285.54 559.43,-262.96 533.1,-248.58"/>
<polygon fill="midnightblue" stroke="midnightblue" points="534.67,-245.45 524.22,-243.68 531.29,-251.58 534.67,-245.45"/>
</g>
<!-- Node29 -->
<g id="node29" class="node">
<title>Node29</title>
<g id="a_node29"><a xlink:href="mxtextdraw_8h.html" target="_top" xlink:title=" ">
<polygon fill="none" stroke="black" points="823,-224.5 823,-243.5 897,-243.5 897,-224.5 823,-224.5"/>
<text text-anchor="middle" x="860" y="-231.5" font-family="Helvetica,sans-Serif" font-size="10.00">mxtextdraw.h</text>
</a>
</g>
</g>
<!-- Node28&#45;&gt;Node29 -->
<g id="edge47" class="edge">
<title>Node28&#45;&gt;Node29</title>
<path fill="none" stroke="midnightblue" d="M825.9,-336.37C831.9,-318.54 845.77,-277.3 853.85,-253.27"/>
<polygon fill="midnightblue" stroke="midnightblue" points="857.24,-254.19 857.11,-243.59 850.6,-251.95 857.24,-254.19"/>
</g>
<!-- Node34 -->
<g id="node34" class="node">
<title>Node34</title>
<g id="a_node34"><a xlink:href="mxicondraw_8h.html" target="_top" xlink:title=" ">
<polygon fill="none" stroke="black" points="652,-280.5 652,-299.5 728,-299.5 728,-280.5 652,-280.5"/>
<text text-anchor="middle" x="690" y="-287.5" font-family="Helvetica,sans-Serif" font-size="10.00">mxicondraw.h</text>
</a>
</g>
</g>
<!-- Node28&#45;&gt;Node34 -->
<g id="edge62" class="edge">
<title>Node28&#45;&gt;Node34</title>
<path fill="none" stroke="midnightblue" d="M801.93,-336.44C779.94,-327.52 745.27,-313.44 720.34,-303.32"/>
<polygon fill="midnightblue" stroke="midnightblue" points="721.56,-300.04 710.98,-299.52 718.92,-306.52 721.56,-300.04"/>
</g>
<!-- Node36 -->
<g id="node36" class="node">
<title>Node36</title>
<g id="a_node36"><a xlink:href="mxstaticfont_8h.html" target="_top" xlink:title=" ">
<polygon fill="none" stroke="black" points="750.5,-280.5 750.5,-299.5 827.5,-299.5 827.5,-280.5 750.5,-280.5"/>
<text text-anchor="middle" x="789" y="-287.5" font-family="Helvetica,sans-Serif" font-size="10.00">mxstaticfont.h</text>
</a>
</g>
</g>
<!-- Node28&#45;&gt;Node36 -->
<g id="edge65" class="edge">
<title>Node28&#45;&gt;Node36</title>
<path fill="none" stroke="midnightblue" d="M817.39,-336.08C812.63,-328.53 805.68,-317.49 799.85,-308.23"/>
<polygon fill="midnightblue" stroke="midnightblue" points="802.8,-306.35 794.51,-299.75 796.88,-310.08 802.8,-306.35"/>
</g>
<!-- Node29&#45;&gt;Node20 -->
<g id="edge48" class="edge">
<title>Node29&#45;&gt;Node20</title>
<path fill="none" stroke="midnightblue" d="M857.91,-224.3C854.23,-210.66 845.38,-184.15 829,-168 813.56,-152.78 792.03,-142.12 773.08,-135.01"/>
<polygon fill="midnightblue" stroke="midnightblue" points="774.05,-131.64 763.46,-131.61 771.72,-138.24 774.05,-131.64"/>
</g>
<!-- Node29&#45;&gt;Node23 -->
<g id="edge61" class="edge">
<title>Node29&#45;&gt;Node23</title>
<path fill="none" stroke="midnightblue" d="M822.8,-225.85C819.49,-225.22 816.18,-224.6 813,-224 739.15,-210.15 652.68,-194.37 604.75,-185.66"/>
<polygon fill="midnightblue" stroke="midnightblue" points="605.3,-182.2 594.84,-183.86 604.05,-189.09 605.3,-182.2"/>
</g>
<!-- Node30 -->
<g id="node30" class="node">
<title>Node30</title>
<g id="a_node30"><a xlink:href="mxstring_8h.html" target="_top" xlink:title=" ">
<polygon fill="none" stroke="black" points="759.5,-168.5 759.5,-187.5 820.5,-187.5 820.5,-168.5 759.5,-168.5"/>
<text text-anchor="middle" x="790" y="-175.5" font-family="Helvetica,sans-Serif" font-size="10.00">mxstring.h</text>
</a>
</g>
</g>
<!-- Node29&#45;&gt;Node30 -->
<g id="edge49" class="edge">
<title>Node29&#45;&gt;Node30</title>
<path fill="none" stroke="midnightblue" d="M848.75,-224.32C838.2,-216.18 822.2,-203.84 809.56,-194.09"/>
<polygon fill="midnightblue" stroke="midnightblue" points="811.51,-191.17 801.45,-187.83 807.23,-196.71 811.51,-191.17"/>
</g>
<!-- Node31 -->
<g id="node31" class="node">
<title>Node31</title>
<g id="a_node31"><a xlink:href="mxgenericstring_8h.html" target="_top" xlink:title=" ">
<polygon fill="none" stroke="black" points="1047,-112.5 1047,-131.5 1139,-131.5 1139,-112.5 1047,-112.5"/>
<text text-anchor="middle" x="1093" y="-119.5" font-family="Helvetica,sans-Serif" font-size="10.00">mxgenericstring.h</text>
</a>
</g>
</g>
<!-- Node30&#45;&gt;Node31 -->
<g id="edge50" class="edge">
<title>Node30&#45;&gt;Node31</title>
<path fill="none" stroke="midnightblue" d="M820.72,-171.53C871.42,-162.49 973.32,-144.33 1037.07,-132.97"/>
<polygon fill="midnightblue" stroke="midnightblue" points="1037.73,-136.41 1046.96,-131.2 1036.5,-129.51 1037.73,-136.41"/>
</g>
<!-- Node31&#45;&gt;Node3 -->
<g id="edge51" class="edge">
<title>Node31&#45;&gt;Node3</title>
<path fill="none" stroke="midnightblue" d="M1076.47,-112.41C1044.31,-95.73 975.47,-60.24 964,-56 916.87,-38.59 860.44,-25.87 822.82,-18.49"/>
<polygon fill="midnightblue" stroke="midnightblue" points="823.21,-15 812.73,-16.54 821.89,-21.87 823.21,-15"/>
</g>
<!-- Node31&#45;&gt;Node7 -->
<g id="edge52" class="edge">
<title>Node31&#45;&gt;Node7</title>
<path fill="none" stroke="midnightblue" d="M1121.2,-112.44C1151.41,-103.28 1199.51,-88.69 1233.03,-78.52"/>
<polygon fill="midnightblue" stroke="midnightblue" points="1234.37,-81.77 1242.93,-75.52 1232.34,-75.07 1234.37,-81.77"/>
</g>
<!-- Node31&#45;&gt;Node8 -->
<g id="edge59" class="edge">
<title>Node31&#45;&gt;Node8</title>
<path fill="none" stroke="midnightblue" d="M1108.15,-112.44C1120.37,-104.64 1136.81,-91.93 1145,-76 1152.37,-61.67 1153.4,-43.2 1152.86,-29.62"/>
<polygon fill="midnightblue" stroke="midnightblue" points="1156.35,-29.28 1152.15,-19.56 1149.37,-29.78 1156.35,-29.28"/>
</g>
<!-- Node31&#45;&gt;Node9 -->
<g id="edge60" class="edge">
<title>Node31&#45;&gt;Node9</title>
<path fill="none" stroke="midnightblue" d="M1109.26,-112.44C1124.11,-104.21 1146.23,-90.84 1163,-76 1179.4,-61.48 1195.04,-41.79 1205.23,-27.9"/>
<polygon fill="midnightblue" stroke="midnightblue" points="1208.11,-29.89 1211.08,-19.72 1202.42,-25.81 1208.11,-29.89"/>
</g>
<!-- Node32 -->
<g id="node32" class="node">
<title>Node32</title>
<g id="a_node32"><a xlink:href="mxbytearrayref_8h.html" target="_top" xlink:title=" ">
<polygon fill="none" stroke="black" points="1049.5,-56.5 1049.5,-75.5 1136.5,-75.5 1136.5,-56.5 1049.5,-56.5"/>
<text text-anchor="middle" x="1093" y="-63.5" font-family="Helvetica,sans-Serif" font-size="10.00">mxbytearrayref.h</text>
</a>
</g>
</g>
<!-- Node31&#45;&gt;Node32 -->
<g id="edge53" class="edge">
<title>Node31&#45;&gt;Node32</title>
<path fill="none" stroke="midnightblue" d="M1093,-112.08C1093,-105.01 1093,-94.86 1093,-85.99"/>
<polygon fill="midnightblue" stroke="midnightblue" points="1096.5,-85.75 1093,-75.75 1089.5,-85.75 1096.5,-85.75"/>
</g>
<!-- Node33 -->
<g id="node33" class="node">
<title>Node33</title>
<g id="a_node33"><a xlink:href="mxgenericsubstring_8h.html" target="_top" xlink:title=" ">
<polygon fill="none" stroke="black" points="847,-56.5 847,-75.5 955,-75.5 955,-56.5 847,-56.5"/>
<text text-anchor="middle" x="901" y="-63.5" font-family="Helvetica,sans-Serif" font-size="10.00">mxgenericsubstring.h</text>
</a>
</g>
</g>
<!-- Node31&#45;&gt;Node33 -->
<g id="edge57" class="edge">
<title>Node31&#45;&gt;Node33</title>
<path fill="none" stroke="midnightblue" d="M1062.58,-112.44C1029.72,-103.2 977.22,-88.44 941.03,-78.26"/>
<polygon fill="midnightblue" stroke="midnightblue" points="941.85,-74.85 931.28,-75.52 939.96,-81.59 941.85,-74.85"/>
</g>
<!-- Node32&#45;&gt;Node3 -->
<g id="edge54" class="edge">
<title>Node32&#45;&gt;Node3</title>
<path fill="none" stroke="midnightblue" d="M1049.29,-57.43C989.17,-47.03 881.72,-28.43 822.68,-18.21"/>
<polygon fill="midnightblue" stroke="midnightblue" points="823.05,-14.73 812.59,-16.47 821.85,-21.62 823.05,-14.73"/>
</g>
<!-- Node32&#45;&gt;Node8 -->
<g id="edge55" class="edge">
<title>Node32&#45;&gt;Node8</title>
<path fill="none" stroke="midnightblue" d="M1102.32,-56.32C1110.89,-48.34 1123.81,-36.31 1134.19,-26.65"/>
<polygon fill="midnightblue" stroke="midnightblue" points="1136.58,-29.21 1141.51,-19.83 1131.81,-24.09 1136.58,-29.21"/>
</g>
<!-- Node32&#45;&gt;Node9 -->
<g id="edge56" class="edge">
<title>Node32&#45;&gt;Node9</title>
<path fill="none" stroke="midnightblue" d="M1112.65,-56.44C1132.96,-47.6 1164.9,-33.69 1188.1,-23.59"/>
<polygon fill="midnightblue" stroke="midnightblue" points="1189.67,-26.72 1197.44,-19.52 1186.88,-20.3 1189.67,-26.72"/>
</g>
<!-- Node33&#45;&gt;Node3 -->
<g id="edge58" class="edge">
<title>Node33&#45;&gt;Node3</title>
<path fill="none" stroke="midnightblue" d="M881.99,-56.44C862.41,-47.64 831.69,-33.81 809.27,-23.72"/>
<polygon fill="midnightblue" stroke="midnightblue" points="810.48,-20.43 799.93,-19.52 807.61,-26.81 810.48,-20.43"/>
</g>
<!-- Node34&#45;&gt;Node23 -->
<g id="edge64" class="edge">
<title>Node34&#45;&gt;Node23</title>
<path fill="none" stroke="midnightblue" d="M679.3,-280.19C668.5,-271.23 651.39,-256.88 637,-244 618.54,-227.49 597.95,-207.93 584.1,-194.61"/>
<polygon fill="midnightblue" stroke="midnightblue" points="586.42,-191.99 576.8,-187.56 581.56,-197.03 586.42,-191.99"/>
</g>
<!-- Node35 -->
<g id="node35" class="node">
<title>Node35</title>
<g id="a_node35"><a xlink:href="mxthemeicons_8h.html" target="_top" xlink:title=" ">
<polygon fill="none" stroke="black" points="646.5,-224.5 646.5,-243.5 733.5,-243.5 733.5,-224.5 646.5,-224.5"/>
<text text-anchor="middle" x="690" y="-231.5" font-family="Helvetica,sans-Serif" font-size="10.00">mxthemeicons.h</text>
</a>
</g>
</g>
<!-- Node34&#45;&gt;Node35 -->
<g id="edge63" class="edge">
<title>Node34&#45;&gt;Node35</title>
<path fill="none" stroke="midnightblue" d="M690,-280.08C690,-273.01 690,-262.86 690,-253.99"/>
<polygon fill="midnightblue" stroke="midnightblue" points="693.5,-253.75 690,-243.75 686.5,-253.75 693.5,-253.75"/>
</g>
<!-- Node37 -->
<g id="node37" class="node">
<title>Node37</title>
<g id="a_node37"><a xlink:href="mxfont_8h.html" target="_top" xlink:title=" ">
<polygon fill="none" stroke="black" points="751.5,-224.5 751.5,-243.5 804.5,-243.5 804.5,-224.5 751.5,-224.5"/>
<text text-anchor="middle" x="778" y="-231.5" font-family="Helvetica,sans-Serif" font-size="10.00">mxfont.h</text>
</a>
</g>
</g>
<!-- Node36&#45;&gt;Node37 -->
<g id="edge66" class="edge">
<title>Node36&#45;&gt;Node37</title>
<path fill="none" stroke="midnightblue" d="M787.18,-280.08C785.73,-272.93 783.63,-262.64 781.81,-253.69"/>
<polygon fill="midnightblue" stroke="midnightblue" points="785.21,-252.85 779.78,-243.75 778.35,-254.25 785.21,-252.85"/>
</g>
<!-- Node37&#45;&gt;Node16 -->
<g id="edge69" class="edge">
<title>Node37&#45;&gt;Node16</title>
<path fill="none" stroke="midnightblue" d="M751.32,-226.09C748.18,-225.35 745.03,-224.64 742,-224 649.33,-204.5 617.18,-229.36 532,-188 508.45,-176.56 486.94,-155.04 473.69,-139.9"/>
<polygon fill="midnightblue" stroke="midnightblue" points="476.01,-137.23 466.89,-131.85 470.67,-141.75 476.01,-137.23"/>
</g>
<!-- Node37&#45;&gt;Node20 -->
<g id="edge67" class="edge">
<title>Node37&#45;&gt;Node20</title>
<path fill="none" stroke="midnightblue" d="M771.68,-224.43C765.44,-215.66 756.01,-201.44 750,-188 743.25,-172.91 738.18,-154.78 734.99,-141.51"/>
<polygon fill="midnightblue" stroke="midnightblue" points="738.38,-140.65 732.75,-131.68 731.56,-142.2 738.38,-140.65"/>
</g>
<!-- Node37&#45;&gt;Node30 -->
<g id="edge68" class="edge">
<title>Node37&#45;&gt;Node30</title>
<path fill="none" stroke="midnightblue" d="M779.98,-224.08C781.57,-216.93 783.86,-206.64 785.85,-197.69"/>
<polygon fill="midnightblue" stroke="midnightblue" points="789.3,-198.27 788.06,-187.75 782.47,-196.75 789.3,-198.27"/>
</g>
</g>
</svg>
