<?xml version="1.0" encoding="UTF-8" standalone="no"?>
<!DOCTYPE svg PUBLIC "-//W3C//DTD SVG 1.1//EN"
 "http://www.w3.org/Graphics/SVG/1.1/DTD/svg11.dtd">
<!-- Generated by graphviz version 2.44.0 ()
 -->
<!-- Title: src/gui/mxguirenderer.h Pages: 1 -->
<svg width="998pt" height="262pt"
 viewBox="0.00 0.00 998.00 262.00" xmlns="http://www.w3.org/2000/svg" xmlns:xlink="http://www.w3.org/1999/xlink">
<g id="graph0" class="graph" transform="scale(1 1) rotate(0) translate(4 258)">
<title>src/gui/mxguirenderer.h</title>
<!-- Node1 -->
<g id="node1" class="node">
<title>Node1</title>
<g id="a_node1"><a xlink:title=" ">
<polygon fill="#bfbfbf" stroke="black" points="485,-234.5 485,-253.5 602,-253.5 602,-234.5 485,-234.5"/>
<text text-anchor="middle" x="543.5" y="-241.5" font-family="Helvetica,sans-Serif" font-size="10.00">src/gui/mxguirenderer.h</text>
</a>
</g>
</g>
<!-- Node2 -->
<g id="node2" class="node">
<title>Node2</title>
<g id="a_node2"><a xlink:href="mxapplication_8h.html" target="_top" xlink:title=" ">
<polygon fill="none" stroke="black" points="215.5,-167.5 215.5,-186.5 347.5,-186.5 347.5,-167.5 215.5,-167.5"/>
<text text-anchor="middle" x="281.5" y="-174.5" font-family="Helvetica,sans-Serif" font-size="10.00">src/events/mxapplication.h</text>
</a>
</g>
</g>
<!-- Node1&#45;&gt;Node2 -->
<g id="edge1" class="edge">
<title>Node1&#45;&gt;Node2</title>
<path fill="none" stroke="midnightblue" d="M499.1,-231.98C447.42,-219.16 363.17,-198.26 316.1,-186.58"/>
<polygon fill="midnightblue" stroke="midnightblue" points="498.43,-235.42 508.98,-234.44 500.12,-228.63 498.43,-235.42"/>
</g>
<!-- Node12 -->
<g id="node12" class="node">
<title>Node12</title>
<g id="a_node12"><a xlink:href="mxguirenderer_8cpp.html" target="_top" xlink:title=" ">
<polygon fill="none" stroke="black" points="411.5,-167.5 411.5,-186.5 539.5,-186.5 539.5,-167.5 411.5,-167.5"/>
<text text-anchor="middle" x="475.5" y="-174.5" font-family="Helvetica,sans-Serif" font-size="10.00">src/gui/mxguirenderer.cpp</text>
</a>
</g>
</g>
<!-- Node1&#45;&gt;Node12 -->
<g id="edge12" class="edge">
<title>Node1&#45;&gt;Node12</title>
<path fill="none" stroke="midnightblue" d="M526.76,-227C513.42,-214.25 495.27,-196.89 484.53,-186.63"/>
<polygon fill="midnightblue" stroke="midnightblue" points="524.68,-229.85 534.33,-234.23 529.52,-224.79 524.68,-229.85"/>
</g>
<!-- Node13 -->
<g id="node13" class="node">
<title>Node13</title>
<g id="a_node13"><a xlink:href="mxpainter_8cpp.html" target="_top" xlink:title=" ">
<polygon fill="none" stroke="black" points="558,-167.5 558,-186.5 667,-186.5 667,-167.5 558,-167.5"/>
<text text-anchor="middle" x="612.5" y="-174.5" font-family="Helvetica,sans-Serif" font-size="10.00">src/gui/mxpainter.cpp</text>
</a>
</g>
</g>
<!-- Node1&#45;&gt;Node13 -->
<g id="edge13" class="edge">
<title>Node1&#45;&gt;Node13</title>
<path fill="none" stroke="midnightblue" d="M560.11,-227.36C573.67,-214.58 592.34,-196.99 603.34,-186.63"/>
<polygon fill="midnightblue" stroke="midnightblue" points="557.68,-224.83 552.81,-234.23 562.48,-229.92 557.68,-224.83"/>
</g>
<!-- Node14 -->
<g id="node14" class="node">
<title>Node14</title>
<g id="a_node14"><a xlink:href="testwindow_8h.html" target="_top" xlink:title=" ">
<polygon fill="none" stroke="black" points="708.5,-156.5 708.5,-197.5 836.5,-197.5 836.5,-156.5 708.5,-156.5"/>
<text text-anchor="start" x="716.5" y="-185.5" font-family="Helvetica,sans-Serif" font-size="10.00">src/renderer/opengl</text>
<text text-anchor="start" x="716.5" y="-174.5" font-family="Helvetica,sans-Serif" font-size="10.00">/colorwheelprogram/test</text>
<text text-anchor="middle" x="772.5" y="-163.5" font-family="Helvetica,sans-Serif" font-size="10.00">_colorwheel/testwindow.h</text>
</a>
</g>
</g>
<!-- Node1&#45;&gt;Node14 -->
<g id="edge14" class="edge">
<title>Node1&#45;&gt;Node14</title>
<path fill="none" stroke="midnightblue" d="M583.6,-231.62C617.97,-221.86 668.12,-207.63 708.11,-196.28"/>
<polygon fill="midnightblue" stroke="midnightblue" points="582.57,-228.27 573.91,-234.37 584.49,-235 582.57,-228.27"/>
</g>
<!-- Node3 -->
<g id="node3" class="node">
<title>Node3</title>
<g id="a_node3"><a xlink:href="mxapplication_8cpp.html" target="_top" xlink:title=" ">
<polygon fill="none" stroke="black" points="0,-89.5 0,-108.5 143,-108.5 143,-89.5 0,-89.5"/>
<text text-anchor="middle" x="71.5" y="-96.5" font-family="Helvetica,sans-Serif" font-size="10.00">src/events/mxapplication.cpp</text>
</a>
</g>
</g>
<!-- Node2&#45;&gt;Node3 -->
<g id="edge2" class="edge">
<title>Node2&#45;&gt;Node3</title>
<path fill="none" stroke="midnightblue" d="M248.16,-163.94C205.45,-148.48 132.48,-122.07 95.09,-108.54"/>
<polygon fill="midnightblue" stroke="midnightblue" points="247.22,-167.32 257.82,-167.43 249.61,-160.74 247.22,-167.32"/>
</g>
<!-- Node4 -->
<g id="node4" class="node">
<title>Node4</title>
<g id="a_node4"><a xlink:href="qmewawindow_8cpp.html" target="_top" xlink:title=" ">
<polygon fill="none" stroke="black" points="90.5,-6 90.5,-36 206.5,-36 206.5,-6 90.5,-6"/>
<text text-anchor="start" x="98.5" y="-24" font-family="Helvetica,sans-Serif" font-size="10.00">src/platformabstraction</text>
<text text-anchor="middle" x="148.5" y="-13" font-family="Helvetica,sans-Serif" font-size="10.00">/qt/qmewawindow.cpp</text>
</a>
</g>
</g>
<!-- Node2&#45;&gt;Node4 -->
<g id="edge3" class="edge">
<title>Node2&#45;&gt;Node4</title>
<path fill="none" stroke="midnightblue" d="M251.03,-163.17C231.56,-153.66 206.96,-139.07 190.5,-120 168.73,-94.78 156.81,-56.57 151.65,-36.11"/>
<polygon fill="midnightblue" stroke="midnightblue" points="249.58,-166.35 260.12,-167.42 252.55,-160.01 249.58,-166.35"/>
</g>
<!-- Node5 -->
<g id="node5" class="node">
<title>Node5</title>
<g id="a_node5"><a xlink:href="qmewawindow_8h.html" target="_top" xlink:title=" ">
<polygon fill="none" stroke="black" points="199.5,-84 199.5,-114 315.5,-114 315.5,-84 199.5,-84"/>
<text text-anchor="start" x="207.5" y="-102" font-family="Helvetica,sans-Serif" font-size="10.00">src/platformabstraction</text>
<text text-anchor="middle" x="257.5" y="-91" font-family="Helvetica,sans-Serif" font-size="10.00">/qt/qmewawindow.h</text>
</a>
</g>
</g>
<!-- Node2&#45;&gt;Node5 -->
<g id="edge4" class="edge">
<title>Node2&#45;&gt;Node5</title>
<path fill="none" stroke="midnightblue" d="M275.72,-157.68C271.48,-144.26 265.81,-126.31 261.93,-114.02"/>
<polygon fill="midnightblue" stroke="midnightblue" points="272.4,-158.8 278.75,-167.28 279.07,-156.69 272.4,-158.8"/>
</g>
<!-- Node6 -->
<g id="node6" class="node">
<title>Node6</title>
<g id="a_node6"><a xlink:href="randomtextureapp_8h.html" target="_top" xlink:title=" ">
<polygon fill="none" stroke="black" points="333,-78.5 333,-119.5 492,-119.5 492,-78.5 333,-78.5"/>
<text text-anchor="start" x="341" y="-107.5" font-family="Helvetica,sans-Serif" font-size="10.00">src/renderer/direct12</text>
<text text-anchor="start" x="341" y="-96.5" font-family="Helvetica,sans-Serif" font-size="10.00">/iconprogram/test_randomtexture</text>
<text text-anchor="middle" x="412.5" y="-85.5" font-family="Helvetica,sans-Serif" font-size="10.00">/randomtextureapp.h</text>
</a>
</g>
</g>
<!-- Node2&#45;&gt;Node6 -->
<g id="edge6" class="edge">
<title>Node2&#45;&gt;Node6</title>
<path fill="none" stroke="midnightblue" d="M304.98,-162.38C325.53,-150.46 355.61,-133 378.74,-119.59"/>
<polygon fill="midnightblue" stroke="midnightblue" points="303.17,-159.38 296.27,-167.43 306.68,-165.44 303.17,-159.38"/>
</g>
<!-- Node9 -->
<g id="node9" class="node">
<title>Node9</title>
<g id="a_node9"><a xlink:href="triangleapp_8h.html" target="_top" xlink:title=" ">
<polygon fill="none" stroke="black" points="555.5,-78.5 555.5,-119.5 693.5,-119.5 693.5,-78.5 555.5,-78.5"/>
<text text-anchor="start" x="563.5" y="-107.5" font-family="Helvetica,sans-Serif" font-size="10.00">src/renderer/direct12</text>
<text text-anchor="start" x="563.5" y="-96.5" font-family="Helvetica,sans-Serif" font-size="10.00">/vectorprogram/test_triangle</text>
<text text-anchor="middle" x="624.5" y="-85.5" font-family="Helvetica,sans-Serif" font-size="10.00">/triangleapp.h</text>
</a>
</g>
</g>
<!-- Node2&#45;&gt;Node9 -->
<g id="edge9" class="edge">
<title>Node2&#45;&gt;Node9</title>
<path fill="none" stroke="midnightblue" d="M329.97,-165.26C388.86,-152.21 488.59,-130.11 555.48,-115.29"/>
<polygon fill="midnightblue" stroke="midnightblue" points="329.19,-161.85 320.18,-167.43 330.7,-168.68 329.19,-161.85"/>
</g>
<!-- Node5&#45;&gt;Node4 -->
<g id="edge5" class="edge">
<title>Node5&#45;&gt;Node4</title>
<path fill="none" stroke="midnightblue" d="M228.97,-78.11C210.02,-64.89 185.58,-47.86 168.64,-36.04"/>
<polygon fill="midnightblue" stroke="midnightblue" points="227.05,-81.03 237.25,-83.88 231.05,-75.29 227.05,-81.03"/>
</g>
<!-- Node7 -->
<g id="node7" class="node">
<title>Node7</title>
<g id="a_node7"><a xlink:href="direct12_2iconprogram_2test__randomtexture_2main_8cpp.html" target="_top" xlink:title=" ">
<polygon fill="none" stroke="black" points="224,-0.5 224,-41.5 383,-41.5 383,-0.5 224,-0.5"/>
<text text-anchor="start" x="232" y="-29.5" font-family="Helvetica,sans-Serif" font-size="10.00">src/renderer/direct12</text>
<text text-anchor="start" x="232" y="-18.5" font-family="Helvetica,sans-Serif" font-size="10.00">/iconprogram/test_randomtexture</text>
<text text-anchor="middle" x="303.5" y="-7.5" font-family="Helvetica,sans-Serif" font-size="10.00">/main.cpp</text>
</a>
</g>
</g>
<!-- Node6&#45;&gt;Node7 -->
<g id="edge7" class="edge">
<title>Node6&#45;&gt;Node7</title>
<path fill="none" stroke="midnightblue" d="M376.12,-72.64C361.57,-62.49 345.07,-50.98 331.48,-41.51"/>
<polygon fill="midnightblue" stroke="midnightblue" points="374.23,-75.58 384.43,-78.43 378.23,-69.84 374.23,-75.58"/>
</g>
<!-- Node8 -->
<g id="node8" class="node">
<title>Node8</title>
<g id="a_node8"><a xlink:href="randomtextureapp_8cpp.html" target="_top" xlink:title=" ">
<polygon fill="none" stroke="black" points="401,-0.5 401,-41.5 560,-41.5 560,-0.5 401,-0.5"/>
<text text-anchor="start" x="409" y="-29.5" font-family="Helvetica,sans-Serif" font-size="10.00">src/renderer/direct12</text>
<text text-anchor="start" x="409" y="-18.5" font-family="Helvetica,sans-Serif" font-size="10.00">/iconprogram/test_randomtexture</text>
<text text-anchor="middle" x="480.5" y="-7.5" font-family="Helvetica,sans-Serif" font-size="10.00">/randomtextureapp.cpp</text>
</a>
</g>
</g>
<!-- Node6&#45;&gt;Node8 -->
<g id="edge8" class="edge">
<title>Node6&#45;&gt;Node8</title>
<path fill="none" stroke="midnightblue" d="M436.73,-70.92C445.42,-61.2 455.04,-50.45 463.05,-41.51"/>
<polygon fill="midnightblue" stroke="midnightblue" points="434.07,-68.64 430.01,-78.43 439.29,-73.31 434.07,-68.64"/>
</g>
<!-- Node10 -->
<g id="node10" class="node">
<title>Node10</title>
<g id="a_node10"><a xlink:href="direct12_2vectorprogram_2test__triangle_2main_8cpp.html" target="_top" xlink:title=" ">
<polygon fill="none" stroke="black" points="578.5,-0.5 578.5,-41.5 716.5,-41.5 716.5,-0.5 578.5,-0.5"/>
<text text-anchor="start" x="586.5" y="-29.5" font-family="Helvetica,sans-Serif" font-size="10.00">src/renderer/direct12</text>
<text text-anchor="start" x="586.5" y="-18.5" font-family="Helvetica,sans-Serif" font-size="10.00">/vectorprogram/test_triangle</text>
<text text-anchor="middle" x="647.5" y="-7.5" font-family="Helvetica,sans-Serif" font-size="10.00">/main.cpp</text>
</a>
</g>
</g>
<!-- Node9&#45;&gt;Node10 -->
<g id="edge10" class="edge">
<title>Node9&#45;&gt;Node10</title>
<path fill="none" stroke="midnightblue" d="M633.4,-68.59C636.15,-59.51 639.1,-49.74 641.6,-41.51"/>
<polygon fill="midnightblue" stroke="midnightblue" points="629.97,-67.84 630.42,-78.43 636.67,-69.87 629.97,-67.84"/>
</g>
<!-- Node11 -->
<g id="node11" class="node">
<title>Node11</title>
<g id="a_node11"><a xlink:href="triangleapp_8cpp.html" target="_top" xlink:title=" ">
<polygon fill="none" stroke="black" points="734.5,-0.5 734.5,-41.5 872.5,-41.5 872.5,-0.5 734.5,-0.5"/>
<text text-anchor="start" x="742.5" y="-29.5" font-family="Helvetica,sans-Serif" font-size="10.00">src/renderer/direct12</text>
<text text-anchor="start" x="742.5" y="-18.5" font-family="Helvetica,sans-Serif" font-size="10.00">/vectorprogram/test_triangle</text>
<text text-anchor="middle" x="803.5" y="-7.5" font-family="Helvetica,sans-Serif" font-size="10.00">/triangleapp.cpp</text>
</a>
</g>
</g>
<!-- Node9&#45;&gt;Node11 -->
<g id="edge11" class="edge">
<title>Node9&#45;&gt;Node11</title>
<path fill="none" stroke="midnightblue" d="M679.92,-74.47C704.83,-63.89 733.88,-51.56 757.56,-41.51"/>
<polygon fill="midnightblue" stroke="midnightblue" points="678.43,-71.3 670.6,-78.43 681.17,-77.74 678.43,-71.3"/>
</g>
<!-- Node15 -->
<g id="node15" class="node">
<title>Node15</title>
<g id="a_node15"><a xlink:href="opengl_2colorwheelprogram_2test__colorwheel_2main_8cpp.html" target="_top" xlink:title=" ">
<polygon fill="none" stroke="black" points="712,-78.5 712,-119.5 833,-119.5 833,-78.5 712,-78.5"/>
<text text-anchor="start" x="720" y="-107.5" font-family="Helvetica,sans-Serif" font-size="10.00">src/renderer/opengl</text>
<text text-anchor="start" x="720" y="-96.5" font-family="Helvetica,sans-Serif" font-size="10.00">/colorwheelprogram/test</text>
<text text-anchor="middle" x="772.5" y="-85.5" font-family="Helvetica,sans-Serif" font-size="10.00">_colorwheel/main.cpp</text>
</a>
</g>
</g>
<!-- Node14&#45;&gt;Node15 -->
<g id="edge15" class="edge">
<title>Node14&#45;&gt;Node15</title>
<path fill="none" stroke="midnightblue" d="M772.5,-146.3C772.5,-137.3 772.5,-127.65 772.5,-119.51"/>
<polygon fill="midnightblue" stroke="midnightblue" points="769,-146.43 772.5,-156.43 776,-146.43 769,-146.43"/>
</g>
<!-- Node16 -->
<g id="node16" class="node">
<title>Node16</title>
<g id="a_node16"><a xlink:href="testwindow_8cpp.html" target="_top" xlink:title=" ">
<polygon fill="none" stroke="black" points="851,-78.5 851,-119.5 990,-119.5 990,-78.5 851,-78.5"/>
<text text-anchor="start" x="859" y="-107.5" font-family="Helvetica,sans-Serif" font-size="10.00">src/renderer/opengl</text>
<text text-anchor="start" x="859" y="-96.5" font-family="Helvetica,sans-Serif" font-size="10.00">/colorwheelprogram/test</text>
<text text-anchor="middle" x="920.5" y="-85.5" font-family="Helvetica,sans-Serif" font-size="10.00">_colorwheel/testwindow.cpp</text>
</a>
</g>
</g>
<!-- Node14&#45;&gt;Node16 -->
<g id="edge16" class="edge">
<title>Node14&#45;&gt;Node16</title>
<path fill="none" stroke="midnightblue" d="M819.69,-151.77C839.98,-141.35 863.37,-129.34 882.52,-119.51"/>
<polygon fill="midnightblue" stroke="midnightblue" points="817.91,-148.75 810.61,-156.43 821.11,-154.97 817.91,-148.75"/>
</g>
</g>
</svg>
