<?xml version="1.0" encoding="UTF-8" standalone="no"?>
<!DOCTYPE svg PUBLIC "-//W3C//DTD SVG 1.1//EN"
 "http://www.w3.org/Graphics/SVG/1.1/DTD/svg11.dtd">
<!-- Generated by graphviz version 2.44.0 ()
 -->
<!-- Title: src/gui/mxguiaggregation.h Pages: 1 -->
<svg width="407pt" height="218pt"
 viewBox="0.00 0.00 407.00 218.00" xmlns="http://www.w3.org/2000/svg" xmlns:xlink="http://www.w3.org/1999/xlink">
<g id="graph0" class="graph" transform="scale(1 1) rotate(0) translate(4 214)">
<title>src/gui/mxguiaggregation.h</title>
<!-- Node1 -->
<g id="node1" class="node">
<title>Node1</title>
<g id="a_node1"><a xlink:title=" ">
<polygon fill="#bfbfbf" stroke="black" points="183.5,-190.5 183.5,-209.5 315.5,-209.5 315.5,-190.5 183.5,-190.5"/>
<text text-anchor="middle" x="249.5" y="-197.5" font-family="Helvetica,sans-Serif" font-size="10.00">src/gui/mxguiaggregation.h</text>
</a>
</g>
</g>
<!-- Node2 -->
<g id="node2" class="node">
<title>Node2</title>
<g id="a_node2"><a xlink:href="mxapplication_8h.html" target="_top" xlink:title=" ">
<polygon fill="none" stroke="black" points="105.5,-134.5 105.5,-153.5 237.5,-153.5 237.5,-134.5 105.5,-134.5"/>
<text text-anchor="middle" x="171.5" y="-141.5" font-family="Helvetica,sans-Serif" font-size="10.00">src/events/mxapplication.h</text>
</a>
</g>
</g>
<!-- Node1&#45;&gt;Node2 -->
<g id="edge1" class="edge">
<title>Node1&#45;&gt;Node2</title>
<path fill="none" stroke="midnightblue" d="M228.73,-184.62C214.48,-174.76 196.04,-161.99 184,-153.65"/>
<polygon fill="midnightblue" stroke="midnightblue" points="226.75,-187.51 236.97,-190.32 230.74,-181.75 226.75,-187.51"/>
</g>
<!-- Node6 -->
<g id="node6" class="node">
<title>Node6</title>
<g id="a_node6"><a xlink:href="mxguiaggregation_8cpp.html" target="_top" xlink:title=" ">
<polygon fill="none" stroke="black" points="256,-134.5 256,-153.5 399,-153.5 399,-134.5 256,-134.5"/>
<text text-anchor="middle" x="327.5" y="-141.5" font-family="Helvetica,sans-Serif" font-size="10.00">src/gui/mxguiaggregation.cpp</text>
</a>
</g>
</g>
<!-- Node1&#45;&gt;Node6 -->
<g id="edge6" class="edge">
<title>Node1&#45;&gt;Node6</title>
<path fill="none" stroke="midnightblue" d="M270.27,-184.62C284.52,-174.76 302.96,-161.99 315,-153.65"/>
<polygon fill="midnightblue" stroke="midnightblue" points="268.26,-181.75 262.03,-190.32 272.25,-187.51 268.26,-181.75"/>
</g>
<!-- Node3 -->
<g id="node3" class="node">
<title>Node3</title>
<g id="a_node3"><a xlink:href="mxapplication_8cpp.html" target="_top" xlink:title=" ">
<polygon fill="none" stroke="black" points="0,-73 0,-92 143,-92 143,-73 0,-73"/>
<text text-anchor="middle" x="71.5" y="-80" font-family="Helvetica,sans-Serif" font-size="10.00">src/events/mxapplication.cpp</text>
</a>
</g>
</g>
<!-- Node2&#45;&gt;Node3 -->
<g id="edge2" class="edge">
<title>Node2&#45;&gt;Node3</title>
<path fill="none" stroke="midnightblue" d="M148.38,-129.24C129.06,-117.75 102.13,-101.72 85.8,-92.01"/>
<polygon fill="midnightblue" stroke="midnightblue" points="146.79,-132.37 157.17,-134.48 150.37,-126.35 146.79,-132.37"/>
</g>
<!-- Node4 -->
<g id="node4" class="node">
<title>Node4</title>
<g id="a_node4"><a xlink:href="qmewawindow_8cpp.html" target="_top" xlink:title=" ">
<polygon fill="none" stroke="black" points="156.5,-0.5 156.5,-30.5 272.5,-30.5 272.5,-0.5 156.5,-0.5"/>
<text text-anchor="start" x="164.5" y="-18.5" font-family="Helvetica,sans-Serif" font-size="10.00">src/platformabstraction</text>
<text text-anchor="middle" x="214.5" y="-7.5" font-family="Helvetica,sans-Serif" font-size="10.00">/qt/qmewawindow.cpp</text>
</a>
</g>
</g>
<!-- Node2&#45;&gt;Node4 -->
<g id="edge3" class="edge">
<title>Node2&#45;&gt;Node4</title>
<path fill="none" stroke="midnightblue" d="M175.05,-124.48C178.3,-108.9 183.63,-86.16 190.5,-67 195.02,-54.39 201.64,-40.7 206.79,-30.76"/>
<polygon fill="midnightblue" stroke="midnightblue" points="171.6,-123.91 173.07,-134.4 178.46,-125.28 171.6,-123.91"/>
</g>
<!-- Node5 -->
<g id="node5" class="node">
<title>Node5</title>
<g id="a_node5"><a xlink:href="qmewawindow_8h.html" target="_top" xlink:title=" ">
<polygon fill="none" stroke="black" points="199.5,-67.5 199.5,-97.5 315.5,-97.5 315.5,-67.5 199.5,-67.5"/>
<text text-anchor="start" x="207.5" y="-85.5" font-family="Helvetica,sans-Serif" font-size="10.00">src/platformabstraction</text>
<text text-anchor="middle" x="257.5" y="-74.5" font-family="Helvetica,sans-Serif" font-size="10.00">/qt/qmewawindow.h</text>
</a>
</g>
</g>
<!-- Node2&#45;&gt;Node5 -->
<g id="edge4" class="edge">
<title>Node2&#45;&gt;Node5</title>
<path fill="none" stroke="midnightblue" d="M192.11,-128.74C205.78,-119.28 223.63,-106.93 237.23,-97.52"/>
<polygon fill="midnightblue" stroke="midnightblue" points="190.05,-125.91 183.82,-134.48 194.04,-131.66 190.05,-125.91"/>
</g>
<!-- Node5&#45;&gt;Node4 -->
<g id="edge5" class="edge">
<title>Node5&#45;&gt;Node4</title>
<path fill="none" stroke="midnightblue" d="M242.53,-58.87C236.3,-49.46 229.27,-38.83 223.81,-30.58"/>
<polygon fill="midnightblue" stroke="midnightblue" points="239.73,-60.99 248.17,-67.4 245.57,-57.12 239.73,-60.99"/>
</g>
</g>
</svg>
