<?xml version="1.0" encoding="UTF-8" standalone="no"?>
<!DOCTYPE svg PUBLIC "-//W3C//DTD SVG 1.1//EN"
 "http://www.w3.org/Graphics/SVG/1.1/DTD/svg11.dtd">
<!-- Generated by graphviz version 2.44.0 ()
 -->
<!-- Title: src/gui/mxguiaggregation.cpp Pages: 1 -->
<svg width="1421pt" height="476pt"
 viewBox="0.00 0.00 1421.42 476.00" xmlns="http://www.w3.org/2000/svg" xmlns:xlink="http://www.w3.org/1999/xlink">
<g id="graph0" class="graph" transform="scale(1 1) rotate(0) translate(4 472)">
<title>src/gui/mxguiaggregation.cpp</title>
<!-- Node1 -->
<g id="node1" class="node">
<title>Node1</title>
<g id="a_node1"><a xlink:title=" ">
<polygon fill="#bfbfbf" stroke="black" points="186.5,-448.5 186.5,-467.5 329.5,-467.5 329.5,-448.5 186.5,-448.5"/>
<text text-anchor="middle" x="258" y="-455.5" font-family="Helvetica,sans-Serif" font-size="10.00">src/gui/mxguiaggregation.cpp</text>
</a>
</g>
</g>
<!-- Node2 -->
<g id="node2" class="node">
<title>Node2</title>
<g id="a_node2"><a xlink:href="mxguiaggregation_8h.html" target="_top" xlink:title=" ">
<polygon fill="none" stroke="black" points="208,-336.5 208,-355.5 308,-355.5 308,-336.5 208,-336.5"/>
<text text-anchor="middle" x="258" y="-343.5" font-family="Helvetica,sans-Serif" font-size="10.00">mxguiaggregation.h</text>
</a>
</g>
</g>
<!-- Node1&#45;&gt;Node2 -->
<g id="edge1" class="edge">
<title>Node1&#45;&gt;Node2</title>
<path fill="none" stroke="midnightblue" d="M258,-448.37C258,-430.62 258,-389.67 258,-365.6"/>
<polygon fill="midnightblue" stroke="midnightblue" points="261.5,-365.59 258,-355.59 254.5,-365.59 261.5,-365.59"/>
</g>
<!-- Node3 -->
<g id="node3" class="node">
<title>Node3</title>
<g id="a_node3"><a xlink:title=" ">
<polygon fill="none" stroke="#bfbfbf" points="767.5,-0.5 767.5,-19.5 830.5,-19.5 830.5,-0.5 767.5,-0.5"/>
<text text-anchor="middle" x="799" y="-7.5" font-family="Helvetica,sans-Serif" font-size="10.00">mxdebug.h</text>
</a>
</g>
</g>
<!-- Node1&#45;&gt;Node3 -->
<g id="edge2" class="edge">
<title>Node1&#45;&gt;Node3</title>
<path fill="none" stroke="midnightblue" d="M186.48,-455.87C110.12,-450.42 0,-428.44 0,-347 0,-347 0,-347 0,-121 0,-53.61 71.79,-73.03 137,-56 255.03,-25.18 630.88,-14.55 757.16,-11.8"/>
<polygon fill="midnightblue" stroke="midnightblue" points="757.28,-15.3 767.21,-11.59 757.13,-8.3 757.28,-15.3"/>
</g>
<!-- Node4 -->
<g id="node4" class="node">
<title>Node4</title>
<g id="a_node4"><a xlink:href="mxapplication_8h.html" target="_top" xlink:title=" ">
<polygon fill="none" stroke="black" points="533.5,-392.5 533.5,-411.5 616.5,-411.5 616.5,-392.5 533.5,-392.5"/>
<text text-anchor="middle" x="575" y="-399.5" font-family="Helvetica,sans-Serif" font-size="10.00">mxapplication.h</text>
</a>
</g>
</g>
<!-- Node1&#45;&gt;Node4 -->
<g id="edge3" class="edge">
<title>Node1&#45;&gt;Node4</title>
<path fill="none" stroke="midnightblue" d="M308.23,-448.44C366.98,-438.44 463.75,-421.95 523.18,-411.83"/>
<polygon fill="midnightblue" stroke="midnightblue" points="523.83,-415.27 533.1,-410.14 522.66,-408.37 523.83,-415.27"/>
</g>
<!-- Node4&#45;&gt;Node2 -->
<g id="edge71" class="edge">
<title>Node4&#45;&gt;Node2</title>
<path fill="none" stroke="midnightblue" d="M533.23,-393.88C478.21,-384.51 381.07,-367.96 318.14,-357.24"/>
<polygon fill="midnightblue" stroke="midnightblue" points="318.41,-353.74 307.96,-355.51 317.23,-360.64 318.41,-353.74"/>
</g>
<!-- Node4&#45;&gt;Node3 -->
<g id="edge4" class="edge">
<title>Node4&#45;&gt;Node3</title>
<path fill="none" stroke="midnightblue" d="M616.58,-399.51C697.54,-396 872.96,-385.17 925,-356 977.91,-326.34 987.04,-302.52 1003,-244 1008.51,-223.81 998.65,-173.98 995,-168 956.4,-104.77 912.87,-123.48 856,-76 838.8,-61.64 822.27,-41.92 811.49,-27.98"/>
<polygon fill="midnightblue" stroke="midnightblue" points="814.1,-25.63 805.28,-19.77 808.52,-29.85 814.1,-25.63"/>
</g>
<!-- Node5 -->
<g id="node5" class="node">
<title>Node5</title>
<g id="a_node5"><a xlink:href="mxwidgetlist_8h.html" target="_top" xlink:title=" ">
<polygon fill="none" stroke="black" points="1090,-336.5 1090,-355.5 1168,-355.5 1168,-336.5 1090,-336.5"/>
<text text-anchor="middle" x="1129" y="-343.5" font-family="Helvetica,sans-Serif" font-size="10.00">mxwidgetlist.h</text>
</a>
</g>
</g>
<!-- Node4&#45;&gt;Node5 -->
<g id="edge5" class="edge">
<title>Node4&#45;&gt;Node5</title>
<path fill="none" stroke="midnightblue" d="M616.59,-397.42C699.62,-390.21 891.79,-373.13 1053,-356 1061.74,-355.07 1071.03,-354.02 1080.01,-352.98"/>
<polygon fill="midnightblue" stroke="midnightblue" points="1080.44,-356.45 1089.97,-351.8 1079.63,-349.5 1080.44,-356.45"/>
</g>
<!-- Node11 -->
<g id="node11" class="node">
<title>Node11</title>
<g id="a_node11"><a xlink:href="mxguirenderer_8h.html" target="_top" xlink:title=" ">
<polygon fill="none" stroke="black" points="326.5,-336.5 326.5,-355.5 411.5,-355.5 411.5,-336.5 326.5,-336.5"/>
<text text-anchor="middle" x="369" y="-343.5" font-family="Helvetica,sans-Serif" font-size="10.00">mxguirenderer.h</text>
</a>
</g>
</g>
<!-- Node4&#45;&gt;Node11 -->
<g id="edge12" class="edge">
<title>Node4&#45;&gt;Node11</title>
<path fill="none" stroke="midnightblue" d="M542.36,-392.44C506.95,-383.16 450.29,-368.31 411.45,-358.13"/>
<polygon fill="midnightblue" stroke="midnightblue" points="412.05,-354.67 401.49,-355.52 410.27,-361.44 412.05,-354.67"/>
</g>
<!-- Node26 -->
<g id="node26" class="node">
<title>Node26</title>
<g id="a_node26"><a xlink:href="mxmouseevent_8h.html" target="_top" xlink:title=" ">
<polygon fill="none" stroke="black" points="530,-336.5 530,-355.5 620,-355.5 620,-336.5 530,-336.5"/>
<text text-anchor="middle" x="575" y="-343.5" font-family="Helvetica,sans-Serif" font-size="10.00">mxmouseevent.h</text>
</a>
</g>
</g>
<!-- Node4&#45;&gt;Node26 -->
<g id="edge41" class="edge">
<title>Node4&#45;&gt;Node26</title>
<path fill="none" stroke="midnightblue" d="M575,-392.08C575,-385.01 575,-374.86 575,-365.99"/>
<polygon fill="midnightblue" stroke="midnightblue" points="578.5,-365.75 575,-355.75 571.5,-365.75 578.5,-365.75"/>
</g>
<!-- Node28 -->
<g id="node28" class="node">
<title>Node28</title>
<g id="a_node28"><a xlink:href="mxpainter_8h.html" target="_top" xlink:title=" ">
<polygon fill="none" stroke="black" points="850,-336.5 850,-355.5 916,-355.5 916,-336.5 850,-336.5"/>
<text text-anchor="middle" x="883" y="-343.5" font-family="Helvetica,sans-Serif" font-size="10.00">mxpainter.h</text>
</a>
</g>
</g>
<!-- Node4&#45;&gt;Node28 -->
<g id="edge44" class="edge">
<title>Node4&#45;&gt;Node28</title>
<path fill="none" stroke="midnightblue" d="M616.54,-393.72C674.78,-383.51 780.21,-365.02 839.5,-354.63"/>
<polygon fill="midnightblue" stroke="midnightblue" points="840.41,-358.02 849.65,-352.85 839.2,-351.13 840.41,-358.02"/>
</g>
<!-- Node6 -->
<g id="node6" class="node">
<title>Node6</title>
<g id="a_node6"><a xlink:href="mxlist_8h.html" target="_top" xlink:title=" ">
<polygon fill="none" stroke="black" points="1149,-112.5 1149,-131.5 1199,-131.5 1199,-112.5 1149,-112.5"/>
<text text-anchor="middle" x="1174" y="-119.5" font-family="Helvetica,sans-Serif" font-size="10.00">mxlist.h</text>
</a>
</g>
</g>
<!-- Node5&#45;&gt;Node6 -->
<g id="edge6" class="edge">
<title>Node5&#45;&gt;Node6</title>
<path fill="none" stroke="midnightblue" d="M1130.76,-336.3C1137.39,-303.63 1160.85,-187.87 1170.16,-141.96"/>
<polygon fill="midnightblue" stroke="midnightblue" points="1173.64,-142.38 1172.2,-131.88 1166.78,-140.99 1173.64,-142.38"/>
</g>
<!-- Node6&#45;&gt;Node3 -->
<g id="edge7" class="edge">
<title>Node6&#45;&gt;Node3</title>
<path fill="none" stroke="midnightblue" d="M1174.39,-112.27C1174.51,-98.1 1172.47,-70.25 1156,-56 1109.67,-15.93 924.82,-10.84 840.86,-10.66"/>
<polygon fill="midnightblue" stroke="midnightblue" points="840.66,-7.16 830.66,-10.66 840.66,-14.16 840.66,-7.16"/>
</g>
<!-- Node7 -->
<g id="node7" class="node">
<title>Node7</title>
<g id="a_node7"><a xlink:href="mxrefcounter_8h.html" target="_top" xlink:title=" ">
<polygon fill="none" stroke="black" points="1067,-56.5 1067,-75.5 1147,-75.5 1147,-56.5 1067,-56.5"/>
<text text-anchor="middle" x="1107" y="-63.5" font-family="Helvetica,sans-Serif" font-size="10.00">mxrefcounter.h</text>
</a>
</g>
</g>
<!-- Node6&#45;&gt;Node7 -->
<g id="edge8" class="edge">
<title>Node6&#45;&gt;Node7</title>
<path fill="none" stroke="midnightblue" d="M1163.24,-112.32C1153.23,-104.26 1138.11,-92.08 1126.07,-82.37"/>
<polygon fill="midnightblue" stroke="midnightblue" points="1127.94,-79.38 1117.96,-75.83 1123.55,-84.83 1127.94,-79.38"/>
</g>
<!-- Node8 -->
<g id="node8" class="node">
<title>Node8</title>
<g id="a_node8"><a xlink:title=" ">
<polygon fill="none" stroke="#bfbfbf" points="1223.5,-0.5 1223.5,-19.5 1270.5,-19.5 1270.5,-0.5 1223.5,-0.5"/>
<text text-anchor="middle" x="1247" y="-7.5" font-family="Helvetica,sans-Serif" font-size="10.00">stdlib.h</text>
</a>
</g>
</g>
<!-- Node6&#45;&gt;Node8 -->
<g id="edge9" class="edge">
<title>Node6&#45;&gt;Node8</title>
<path fill="none" stroke="midnightblue" d="M1199.06,-119.64C1250.88,-116.25 1367.02,-105.47 1391,-76 1396.61,-69.11 1396.27,-63.16 1391,-56 1384.28,-46.86 1320.66,-29.47 1280.26,-19.19"/>
<polygon fill="midnightblue" stroke="midnightblue" points="1281.09,-15.79 1270.54,-16.74 1279.38,-22.58 1281.09,-15.79"/>
</g>
<!-- Node9 -->
<g id="node9" class="node">
<title>Node9</title>
<g id="a_node9"><a xlink:title=" ">
<polygon fill="none" stroke="#bfbfbf" points="1295,-0.5 1295,-19.5 1343,-19.5 1343,-0.5 1295,-0.5"/>
<text text-anchor="middle" x="1319" y="-7.5" font-family="Helvetica,sans-Serif" font-size="10.00">string.h</text>
</a>
</g>
</g>
<!-- Node6&#45;&gt;Node9 -->
<g id="edge10" class="edge">
<title>Node6&#45;&gt;Node9</title>
<path fill="none" stroke="midnightblue" d="M1199.32,-120.04C1254.29,-117.37 1381.72,-107.82 1408,-76 1427.99,-51.8 1385.82,-31.93 1352.95,-20.77"/>
<polygon fill="midnightblue" stroke="midnightblue" points="1353.71,-17.34 1343.12,-17.59 1351.56,-24 1353.71,-17.34"/>
</g>
<!-- Node10 -->
<g id="node10" class="node">
<title>Node10</title>
<g id="a_node10"><a xlink:title=" ">
<polygon fill="none" stroke="#bfbfbf" points="1347.5,-56.5 1347.5,-75.5 1382.5,-75.5 1382.5,-56.5 1347.5,-56.5"/>
<text text-anchor="middle" x="1365" y="-63.5" font-family="Helvetica,sans-Serif" font-size="10.00">new</text>
</a>
</g>
</g>
<!-- Node6&#45;&gt;Node10 -->
<g id="edge11" class="edge">
<title>Node6&#45;&gt;Node10</title>
<path fill="none" stroke="midnightblue" d="M1199.36,-113.83C1235.2,-103.7 1300.4,-85.26 1337.41,-74.8"/>
<polygon fill="midnightblue" stroke="midnightblue" points="1338.82,-78.04 1347.49,-71.95 1336.91,-71.3 1338.82,-78.04"/>
</g>
<!-- Node12 -->
<g id="node12" class="node">
<title>Node12</title>
<g id="a_node12"><a xlink:href="mxbuffer_8h.html" target="_top" xlink:title=" ">
<polygon fill="none" stroke="black" points="279.5,-280.5 279.5,-299.5 340.5,-299.5 340.5,-280.5 279.5,-280.5"/>
<text text-anchor="middle" x="310" y="-287.5" font-family="Helvetica,sans-Serif" font-size="10.00">mxbuffer.h</text>
</a>
</g>
</g>
<!-- Node11&#45;&gt;Node12 -->
<g id="edge13" class="edge">
<title>Node11&#45;&gt;Node12</title>
<path fill="none" stroke="midnightblue" d="M359.52,-336.32C350.8,-328.34 337.66,-316.31 327.1,-306.65"/>
<polygon fill="midnightblue" stroke="midnightblue" points="329.39,-304 319.65,-299.83 324.67,-309.17 329.39,-304"/>
</g>
<!-- Node13 -->
<g id="node13" class="node">
<title>Node13</title>
<g id="a_node13"><a xlink:href="mxrenderer_8h.html" target="_top" xlink:title=" ">
<polygon fill="none" stroke="black" points="397,-280.5 397,-299.5 469,-299.5 469,-280.5 397,-280.5"/>
<text text-anchor="middle" x="433" y="-287.5" font-family="Helvetica,sans-Serif" font-size="10.00">mxrenderer.h</text>
</a>
</g>
</g>
<!-- Node11&#45;&gt;Node13 -->
<g id="edge14" class="edge">
<title>Node11&#45;&gt;Node13</title>
<path fill="none" stroke="midnightblue" d="M379.28,-336.32C388.84,-328.26 403.28,-316.08 414.78,-306.37"/>
<polygon fill="midnightblue" stroke="midnightblue" points="417.14,-308.96 422.53,-299.83 412.63,-303.61 417.14,-308.96"/>
</g>
<!-- Node17 -->
<g id="node17" class="node">
<title>Node17</title>
<g id="a_node17"><a xlink:href="mxmatrix_8h.html" target="_top" xlink:title=" ">
<polygon fill="none" stroke="black" points="279.5,-168.5 279.5,-187.5 342.5,-187.5 342.5,-168.5 279.5,-168.5"/>
<text text-anchor="middle" x="311" y="-175.5" font-family="Helvetica,sans-Serif" font-size="10.00">mxmatrix.h</text>
</a>
</g>
</g>
<!-- Node11&#45;&gt;Node17 -->
<g id="edge40" class="edge">
<title>Node11&#45;&gt;Node17</title>
<path fill="none" stroke="midnightblue" d="M366.45,-336.11C362.81,-323.54 355.79,-299.89 349,-280 338.99,-250.7 326.06,-217.13 318.16,-197.02"/>
<polygon fill="midnightblue" stroke="midnightblue" points="321.36,-195.6 314.43,-187.58 314.85,-198.17 321.36,-195.6"/>
</g>
<!-- Node21 -->
<g id="node21" class="node">
<title>Node21</title>
<g id="a_node21"><a xlink:href="mxvectorprogram_8h.html" target="_top" xlink:title=" ">
<polygon fill="none" stroke="black" points="162.5,-280.5 162.5,-299.5 261.5,-299.5 261.5,-280.5 162.5,-280.5"/>
<text text-anchor="middle" x="212" y="-287.5" font-family="Helvetica,sans-Serif" font-size="10.00">mxvectorprogram.h</text>
</a>
</g>
</g>
<!-- Node11&#45;&gt;Node21 -->
<g id="edge25" class="edge">
<title>Node11&#45;&gt;Node21</title>
<path fill="none" stroke="midnightblue" d="M344.12,-336.44C317.71,-327.36 275.78,-312.94 246.26,-302.78"/>
<polygon fill="midnightblue" stroke="midnightblue" points="247.36,-299.46 236.76,-299.52 245.08,-306.08 247.36,-299.46"/>
</g>
<!-- Node25 -->
<g id="node25" class="node">
<title>Node25</title>
<g id="a_node25"><a xlink:href="mxiconprogram_8h.html" target="_top" xlink:title=" ">
<polygon fill="none" stroke="black" points="158,-224.5 158,-243.5 248,-243.5 248,-224.5 158,-224.5"/>
<text text-anchor="middle" x="203" y="-231.5" font-family="Helvetica,sans-Serif" font-size="10.00">mxiconprogram.h</text>
</a>
</g>
</g>
<!-- Node11&#45;&gt;Node25 -->
<g id="edge33" class="edge">
<title>Node11&#45;&gt;Node25</title>
<path fill="none" stroke="midnightblue" d="M326.41,-337.54C265.06,-326.6 158.49,-306.75 153,-300 138.98,-282.76 160.65,-262.38 179.69,-249.09"/>
<polygon fill="midnightblue" stroke="midnightblue" points="181.71,-251.96 188.12,-243.53 177.85,-246.12 181.71,-251.96"/>
</g>
<!-- Node13&#45;&gt;Node6 -->
<g id="edge15" class="edge">
<title>Node13&#45;&gt;Node6</title>
<path fill="none" stroke="midnightblue" d="M469.22,-286.09C591.1,-276.28 978.94,-245.02 982,-244 1018.82,-231.71 1112.71,-166.66 1154,-137.34"/>
<polygon fill="midnightblue" stroke="midnightblue" points="1156.08,-140.16 1162.2,-131.5 1152.02,-134.45 1156.08,-140.16"/>
</g>
<!-- Node14 -->
<g id="node14" class="node">
<title>Node14</title>
<g id="a_node14"><a xlink:href="mxgpuarray_8h.html" target="_top" xlink:title=" ">
<polygon fill="none" stroke="black" points="66,-224.5 66,-243.5 140,-243.5 140,-224.5 66,-224.5"/>
<text text-anchor="middle" x="103" y="-231.5" font-family="Helvetica,sans-Serif" font-size="10.00">mxgpuarray.h</text>
</a>
</g>
</g>
<!-- Node13&#45;&gt;Node14 -->
<g id="edge16" class="edge">
<title>Node13&#45;&gt;Node14</title>
<path fill="none" stroke="midnightblue" d="M396.62,-283.66C344.37,-275.91 244.83,-260.78 150.17,-244.16"/>
<polygon fill="midnightblue" stroke="midnightblue" points="150.59,-240.68 140.14,-242.38 149.37,-247.57 150.59,-240.68"/>
</g>
<!-- Node13&#45;&gt;Node17 -->
<g id="edge20" class="edge">
<title>Node13&#45;&gt;Node17</title>
<path fill="none" stroke="midnightblue" d="M419.6,-280.4C406.64,-271.83 386.71,-257.96 371,-244 353.89,-228.79 336.36,-209.26 324.71,-195.59"/>
<polygon fill="midnightblue" stroke="midnightblue" points="327.38,-193.33 318.26,-187.93 322.02,-197.83 327.38,-193.33"/>
</g>
<!-- Node18 -->
<g id="node18" class="node">
<title>Node18</title>
<g id="a_node18"><a xlink:href="mxopenglfunctions_8h.html" target="_top" xlink:title=" ">
<polygon fill="none" stroke="black" points="380.5,-224.5 380.5,-243.5 485.5,-243.5 485.5,-224.5 380.5,-224.5"/>
<text text-anchor="middle" x="433" y="-231.5" font-family="Helvetica,sans-Serif" font-size="10.00">mxopenglfunctions.h</text>
</a>
</g>
</g>
<!-- Node13&#45;&gt;Node18 -->
<g id="edge21" class="edge">
<title>Node13&#45;&gt;Node18</title>
<path fill="none" stroke="midnightblue" d="M433,-280.08C433,-273.01 433,-262.86 433,-253.99"/>
<polygon fill="midnightblue" stroke="midnightblue" points="436.5,-253.75 433,-243.75 429.5,-253.75 436.5,-253.75"/>
</g>
<!-- Node20 -->
<g id="node20" class="node">
<title>Node20</title>
<g id="a_node20"><a xlink:href="mxvector_8h.html" target="_top" xlink:title=" ">
<polygon fill="none" stroke="black" points="595,-112.5 595,-131.5 659,-131.5 659,-112.5 595,-112.5"/>
<text text-anchor="middle" x="627" y="-119.5" font-family="Helvetica,sans-Serif" font-size="10.00">mxvector.h</text>
</a>
</g>
</g>
<!-- Node13&#45;&gt;Node20 -->
<g id="edge23" class="edge">
<title>Node13&#45;&gt;Node20</title>
<path fill="none" stroke="midnightblue" d="M447.9,-280.45C461.16,-272.32 480.48,-259.1 494,-244 520.03,-214.92 509.63,-194.81 538,-168 553.18,-153.65 573.83,-142.83 591.41,-135.4"/>
<polygon fill="midnightblue" stroke="midnightblue" points="592.83,-138.6 600.81,-131.62 590.22,-132.11 592.83,-138.6"/>
</g>
<!-- Node15 -->
<g id="node15" class="node">
<title>Node15</title>
<g id="a_node15"><a xlink:href="mxgpuprogram_8h.html" target="_top" xlink:title=" ">
<polygon fill="none" stroke="black" points="59,-168.5 59,-187.5 147,-187.5 147,-168.5 59,-168.5"/>
<text text-anchor="middle" x="103" y="-175.5" font-family="Helvetica,sans-Serif" font-size="10.00">mxgpuprogram.h</text>
</a>
</g>
</g>
<!-- Node14&#45;&gt;Node15 -->
<g id="edge17" class="edge">
<title>Node14&#45;&gt;Node15</title>
<path fill="none" stroke="midnightblue" d="M103,-224.08C103,-217.01 103,-206.86 103,-197.99"/>
<polygon fill="midnightblue" stroke="midnightblue" points="106.5,-197.75 103,-187.75 99.5,-197.75 106.5,-197.75"/>
</g>
<!-- Node15&#45;&gt;Node3 -->
<g id="edge18" class="edge">
<title>Node15&#45;&gt;Node3</title>
<path fill="none" stroke="midnightblue" d="M104.18,-168.38C107.81,-145.49 121.12,-83.11 161,-56 210.12,-22.61 622.78,-13.6 757,-11.54"/>
<polygon fill="midnightblue" stroke="midnightblue" points="757.33,-15.04 767.28,-11.39 757.23,-8.04 757.33,-15.04"/>
</g>
<!-- Node16 -->
<g id="node16" class="node">
<title>Node16</title>
<g id="a_node16"><a xlink:title=" ">
<polygon fill="none" stroke="#bfbfbf" points="203.5,-112.5 203.5,-131.5 268.5,-131.5 268.5,-112.5 203.5,-112.5"/>
<text text-anchor="middle" x="236" y="-119.5" font-family="Helvetica,sans-Serif" font-size="10.00">mxopengl.h</text>
</a>
</g>
</g>
<!-- Node15&#45;&gt;Node16 -->
<g id="edge19" class="edge">
<title>Node15&#45;&gt;Node16</title>
<path fill="none" stroke="midnightblue" d="M124.07,-168.44C146.06,-159.52 180.73,-145.44 205.66,-135.32"/>
<polygon fill="midnightblue" stroke="midnightblue" points="207.08,-138.52 215.02,-131.52 204.44,-132.04 207.08,-138.52"/>
</g>
<!-- Node19 -->
<g id="node19" class="node">
<title>Node19</title>
<g id="a_node19"><a xlink:title=" ">
<polygon fill="none" stroke="#bfbfbf" points="360.5,-168.5 360.5,-187.5 485.5,-187.5 485.5,-168.5 360.5,-168.5"/>
<text text-anchor="middle" x="423" y="-175.5" font-family="Helvetica,sans-Serif" font-size="10.00">QOpenGLExtraFunctions</text>
</a>
</g>
</g>
<!-- Node18&#45;&gt;Node19 -->
<g id="edge22" class="edge">
<title>Node18&#45;&gt;Node19</title>
<path fill="none" stroke="midnightblue" d="M431.35,-224.08C430.02,-216.93 428.12,-206.64 426.46,-197.69"/>
<polygon fill="midnightblue" stroke="midnightblue" points="429.88,-196.95 424.62,-187.75 423,-198.22 429.88,-196.95"/>
</g>
<!-- Node20&#45;&gt;Node3 -->
<g id="edge24" class="edge">
<title>Node20&#45;&gt;Node3</title>
<path fill="none" stroke="midnightblue" d="M640.5,-112.37C670.01,-93.49 740.54,-48.38 776.74,-25.24"/>
<polygon fill="midnightblue" stroke="midnightblue" points="779.03,-27.93 785.57,-19.59 775.26,-22.03 779.03,-27.93"/>
</g>
<!-- Node21&#45;&gt;Node15 -->
<g id="edge26" class="edge">
<title>Node21&#45;&gt;Node15</title>
<path fill="none" stroke="midnightblue" d="M162.37,-281.19C122.03,-273.7 69.79,-261.03 57,-244 44.16,-226.9 63.63,-206.73 81.06,-193.45"/>
<polygon fill="midnightblue" stroke="midnightblue" points="83.22,-196.2 89.29,-187.52 79.13,-190.52 83.22,-196.2"/>
</g>
<!-- Node21&#45;&gt;Node17 -->
<g id="edge27" class="edge">
<title>Node21&#45;&gt;Node17</title>
<path fill="none" stroke="midnightblue" d="M221.21,-280.27C230.49,-271.38 245.09,-257.06 257,-244 271.6,-227.99 287.32,-208.83 298.01,-195.47"/>
<polygon fill="midnightblue" stroke="midnightblue" points="300.77,-197.63 304.25,-187.63 295.29,-193.27 300.77,-197.63"/>
</g>
<!-- Node22 -->
<g id="node22" class="node">
<title>Node22</title>
<g id="a_node22"><a xlink:href="mxvectordraw_8h.html" target="_top" xlink:title=" ">
<polygon fill="none" stroke="black" points="651.5,-224.5 651.5,-243.5 736.5,-243.5 736.5,-224.5 651.5,-224.5"/>
<text text-anchor="middle" x="694" y="-231.5" font-family="Helvetica,sans-Serif" font-size="10.00">mxvectordraw.h</text>
</a>
</g>
</g>
<!-- Node21&#45;&gt;Node22 -->
<g id="edge28" class="edge">
<title>Node21&#45;&gt;Node22</title>
<path fill="none" stroke="midnightblue" d="M261.65,-281.1C264.47,-280.71 267.27,-280.34 270,-280 431.59,-259.66 475.67,-265.92 641.42,-243.97"/>
<polygon fill="midnightblue" stroke="midnightblue" points="642.03,-247.42 651.47,-242.63 641.1,-240.49 642.03,-247.42"/>
</g>
<!-- Node23 -->
<g id="node23" class="node">
<title>Node23</title>
<g id="a_node23"><a xlink:href="mxrect_8h.html" target="_top" xlink:title=" ">
<polygon fill="none" stroke="black" points="678.5,-168.5 678.5,-187.5 731.5,-187.5 731.5,-168.5 678.5,-168.5"/>
<text text-anchor="middle" x="705" y="-175.5" font-family="Helvetica,sans-Serif" font-size="10.00">mxrect.h</text>
</a>
</g>
</g>
<!-- Node22&#45;&gt;Node23 -->
<g id="edge29" class="edge">
<title>Node22&#45;&gt;Node23</title>
<path fill="none" stroke="midnightblue" d="M695.82,-224.08C697.27,-216.93 699.37,-206.64 701.19,-197.69"/>
<polygon fill="midnightblue" stroke="midnightblue" points="704.65,-198.25 703.22,-187.75 697.79,-196.85 704.65,-198.25"/>
</g>
<!-- Node23&#45;&gt;Node3 -->
<g id="edge30" class="edge">
<title>Node23&#45;&gt;Node3</title>
<path fill="none" stroke="midnightblue" d="M713.36,-168.2C721.36,-159.48 733.45,-145.5 742,-132 763.85,-97.47 782.59,-53.24 792.18,-28.96"/>
<polygon fill="midnightblue" stroke="midnightblue" points="795.46,-30.18 795.81,-19.59 788.93,-27.65 795.46,-30.18"/>
</g>
<!-- Node23&#45;&gt;Node20 -->
<g id="edge31" class="edge">
<title>Node23&#45;&gt;Node20</title>
<path fill="none" stroke="midnightblue" d="M692.47,-168.32C680.41,-159.98 661.97,-147.21 647.73,-137.35"/>
<polygon fill="midnightblue" stroke="midnightblue" points="649.72,-134.47 639.5,-131.65 645.73,-140.22 649.72,-134.47"/>
</g>
<!-- Node24 -->
<g id="node24" class="node">
<title>Node24</title>
<g id="a_node24"><a xlink:title=" ">
<polygon fill="none" stroke="#bfbfbf" points="677,-112.5 677,-131.5 733,-131.5 733,-112.5 677,-112.5"/>
<text text-anchor="middle" x="705" y="-119.5" font-family="Helvetica,sans-Serif" font-size="10.00">algorithm</text>
</a>
</g>
</g>
<!-- Node23&#45;&gt;Node24 -->
<g id="edge32" class="edge">
<title>Node23&#45;&gt;Node24</title>
<path fill="none" stroke="midnightblue" d="M705,-168.08C705,-161.01 705,-150.86 705,-141.99"/>
<polygon fill="midnightblue" stroke="midnightblue" points="708.5,-141.75 705,-131.75 701.5,-141.75 708.5,-141.75"/>
</g>
<!-- Node25&#45;&gt;Node3 -->
<g id="edge34" class="edge">
<title>Node25&#45;&gt;Node3</title>
<path fill="none" stroke="midnightblue" d="M198.75,-224.43C188.65,-202.72 166.09,-144.95 194,-112 266.72,-26.13 631.7,-13.21 756.83,-11.31"/>
<polygon fill="midnightblue" stroke="midnightblue" points="757.19,-14.8 767.14,-11.17 757.1,-7.81 757.19,-14.8"/>
</g>
<!-- Node25&#45;&gt;Node15 -->
<g id="edge38" class="edge">
<title>Node25&#45;&gt;Node15</title>
<path fill="none" stroke="midnightblue" d="M186.93,-224.32C171.04,-215.74 146.49,-202.49 128.04,-192.52"/>
<polygon fill="midnightblue" stroke="midnightblue" points="129.49,-189.33 119.03,-187.65 126.16,-195.49 129.49,-189.33"/>
</g>
<!-- Node25&#45;&gt;Node16 -->
<g id="edge37" class="edge">
<title>Node25&#45;&gt;Node16</title>
<path fill="none" stroke="midnightblue" d="M205.59,-224.37C210.94,-206.54 223.31,-165.3 230.52,-141.27"/>
<polygon fill="midnightblue" stroke="midnightblue" points="233.9,-142.18 233.42,-131.59 227.2,-140.16 233.9,-142.18"/>
</g>
<!-- Node25&#45;&gt;Node17 -->
<g id="edge35" class="edge">
<title>Node25&#45;&gt;Node17</title>
<path fill="none" stroke="midnightblue" d="M220.35,-224.32C237.67,-215.66 264.52,-202.24 284.5,-192.25"/>
<polygon fill="midnightblue" stroke="midnightblue" points="286.31,-195.26 293.69,-187.65 283.18,-189 286.31,-195.26"/>
</g>
<!-- Node25&#45;&gt;Node20 -->
<g id="edge36" class="edge">
<title>Node25&#45;&gt;Node20</title>
<path fill="none" stroke="midnightblue" d="M208.86,-224.47C219.28,-210.06 242.54,-181.19 270,-168 324.81,-141.67 502.7,-129.36 584.79,-124.98"/>
<polygon fill="midnightblue" stroke="midnightblue" points="584.98,-128.47 594.78,-124.46 584.61,-121.48 584.98,-128.47"/>
</g>
<!-- Node25&#45;&gt;Node23 -->
<g id="edge39" class="edge">
<title>Node25&#45;&gt;Node23</title>
<path fill="none" stroke="midnightblue" d="M248.43,-228.11C346.87,-217.52 578.19,-192.64 668.23,-182.96"/>
<polygon fill="midnightblue" stroke="midnightblue" points="668.67,-186.43 678.24,-181.88 667.93,-179.47 668.67,-186.43"/>
</g>
<!-- Node26&#45;&gt;Node20 -->
<g id="edge42" class="edge">
<title>Node26&#45;&gt;Node20</title>
<path fill="none" stroke="midnightblue" d="M567.33,-336.46C560.22,-327.93 550.15,-314.09 546,-300 543.49,-291.47 544.15,-288.69 546,-280 557.83,-224.48 594.89,-167.18 614.52,-139.69"/>
<polygon fill="midnightblue" stroke="midnightblue" points="617.38,-141.7 620.44,-131.56 611.73,-137.58 617.38,-141.7"/>
</g>
<!-- Node27 -->
<g id="node27" class="node">
<title>Node27</title>
<g id="a_node27"><a xlink:title=" ">
<polygon fill="none" stroke="#bfbfbf" points="555,-280.5 555,-299.5 693,-299.5 693,-280.5 555,-280.5"/>
<text text-anchor="middle" x="624" y="-287.5" font-family="Helvetica,sans-Serif" font-size="10.00">mxmouseeventabstraction.h</text>
</a>
</g>
</g>
<!-- Node26&#45;&gt;Node27 -->
<g id="edge43" class="edge">
<title>Node26&#45;&gt;Node27</title>
<path fill="none" stroke="midnightblue" d="M583.09,-336.08C590.16,-328.3 600.59,-316.8 609.15,-307.37"/>
<polygon fill="midnightblue" stroke="midnightblue" points="611.93,-309.51 616.06,-299.75 606.75,-304.8 611.93,-309.51"/>
</g>
<!-- Node28&#45;&gt;Node3 -->
<g id="edge45" class="edge">
<title>Node28&#45;&gt;Node3</title>
<path fill="none" stroke="midnightblue" d="M898.53,-336.49C912.38,-328.39 932.62,-315.19 947,-300 988.24,-256.46 1007.64,-218.31 975,-168 964.26,-151.44 835.57,-91.22 823,-76 812,-62.68 805.79,-43.85 802.46,-29.88"/>
<polygon fill="midnightblue" stroke="midnightblue" points="805.85,-28.99 800.36,-19.92 798.99,-30.43 805.85,-28.99"/>
</g>
<!-- Node28&#45;&gt;Node6 -->
<g id="edge47" class="edge">
<title>Node28&#45;&gt;Node6</title>
<path fill="none" stroke="midnightblue" d="M916.01,-338.67C944.05,-332.19 984.49,-320.15 1015,-300 1082.42,-255.47 1139.64,-175.65 1162.89,-140.47"/>
<polygon fill="midnightblue" stroke="midnightblue" points="1166.01,-142.09 1168.52,-131.8 1160.14,-138.27 1166.01,-142.09"/>
</g>
<!-- Node28&#45;&gt;Node22 -->
<g id="edge46" class="edge">
<title>Node28&#45;&gt;Node22</title>
<path fill="none" stroke="midnightblue" d="M873.22,-336.38C857.8,-323.08 826.56,-297.3 797,-280 774.71,-266.95 747.94,-255.37 727.28,-247.22"/>
<polygon fill="midnightblue" stroke="midnightblue" points="728.26,-243.85 717.67,-243.51 725.74,-250.38 728.26,-243.85"/>
</g>
<!-- Node29 -->
<g id="node29" class="node">
<title>Node29</title>
<g id="a_node29"><a xlink:href="mxtextdraw_8h.html" target="_top" xlink:title=" ">
<polygon fill="none" stroke="black" points="899,-224.5 899,-243.5 973,-243.5 973,-224.5 899,-224.5"/>
<text text-anchor="middle" x="936" y="-231.5" font-family="Helvetica,sans-Serif" font-size="10.00">mxtextdraw.h</text>
</a>
</g>
</g>
<!-- Node28&#45;&gt;Node29 -->
<g id="edge48" class="edge">
<title>Node28&#45;&gt;Node29</title>
<path fill="none" stroke="midnightblue" d="M896.27,-336.41C907.37,-328.43 922.54,-315.46 930,-300 936.93,-285.65 938.05,-267.45 937.66,-253.96"/>
<polygon fill="midnightblue" stroke="midnightblue" points="941.15,-253.7 937.07,-243.93 934.17,-254.12 941.15,-253.7"/>
</g>
<!-- Node34 -->
<g id="node34" class="node">
<title>Node34</title>
<g id="a_node34"><a xlink:href="mxicondraw_8h.html" target="_top" xlink:title=" ">
<polygon fill="none" stroke="black" points="845,-280.5 845,-299.5 921,-299.5 921,-280.5 845,-280.5"/>
<text text-anchor="middle" x="883" y="-287.5" font-family="Helvetica,sans-Serif" font-size="10.00">mxicondraw.h</text>
</a>
</g>
</g>
<!-- Node28&#45;&gt;Node34 -->
<g id="edge63" class="edge">
<title>Node28&#45;&gt;Node34</title>
<path fill="none" stroke="midnightblue" d="M883,-336.08C883,-329.01 883,-318.86 883,-309.99"/>
<polygon fill="midnightblue" stroke="midnightblue" points="886.5,-309.75 883,-299.75 879.5,-309.75 886.5,-309.75"/>
</g>
<!-- Node36 -->
<g id="node36" class="node">
<title>Node36</title>
<g id="a_node36"><a xlink:href="mxstaticfont_8h.html" target="_top" xlink:title=" ">
<polygon fill="none" stroke="black" points="711.5,-280.5 711.5,-299.5 788.5,-299.5 788.5,-280.5 711.5,-280.5"/>
<text text-anchor="middle" x="750" y="-287.5" font-family="Helvetica,sans-Serif" font-size="10.00">mxstaticfont.h</text>
</a>
</g>
</g>
<!-- Node28&#45;&gt;Node36 -->
<g id="edge66" class="edge">
<title>Node28&#45;&gt;Node36</title>
<path fill="none" stroke="midnightblue" d="M861.93,-336.44C839.94,-327.52 805.27,-313.44 780.34,-303.32"/>
<polygon fill="midnightblue" stroke="midnightblue" points="781.56,-300.04 770.98,-299.52 778.92,-306.52 781.56,-300.04"/>
</g>
<!-- Node29&#45;&gt;Node20 -->
<g id="edge49" class="edge">
<title>Node29&#45;&gt;Node20</title>
<path fill="none" stroke="midnightblue" d="M912.01,-224.46C857.36,-205.01 723.51,-157.36 660.64,-134.98"/>
<polygon fill="midnightblue" stroke="midnightblue" points="661.78,-131.67 651.19,-131.61 659.43,-138.26 661.78,-131.67"/>
</g>
<!-- Node29&#45;&gt;Node23 -->
<g id="edge62" class="edge">
<title>Node29&#45;&gt;Node23</title>
<path fill="none" stroke="midnightblue" d="M899.4,-224.44C856.17,-214.34 784.71,-197.63 741.52,-187.54"/>
<polygon fill="midnightblue" stroke="midnightblue" points="742.24,-184.11 731.71,-185.24 740.65,-190.93 742.24,-184.11"/>
</g>
<!-- Node30 -->
<g id="node30" class="node">
<title>Node30</title>
<g id="a_node30"><a xlink:href="mxstring_8h.html" target="_top" xlink:title=" ">
<polygon fill="none" stroke="black" points="905.5,-168.5 905.5,-187.5 966.5,-187.5 966.5,-168.5 905.5,-168.5"/>
<text text-anchor="middle" x="936" y="-175.5" font-family="Helvetica,sans-Serif" font-size="10.00">mxstring.h</text>
</a>
</g>
</g>
<!-- Node29&#45;&gt;Node30 -->
<g id="edge50" class="edge">
<title>Node29&#45;&gt;Node30</title>
<path fill="none" stroke="midnightblue" d="M936,-224.08C936,-217.01 936,-206.86 936,-197.99"/>
<polygon fill="midnightblue" stroke="midnightblue" points="939.5,-197.75 936,-187.75 932.5,-197.75 939.5,-197.75"/>
</g>
<!-- Node31 -->
<g id="node31" class="node">
<title>Node31</title>
<g id="a_node31"><a xlink:href="mxgenericstring_8h.html" target="_top" xlink:title=" ">
<polygon fill="none" stroke="black" points="993,-112.5 993,-131.5 1085,-131.5 1085,-112.5 993,-112.5"/>
<text text-anchor="middle" x="1039" y="-119.5" font-family="Helvetica,sans-Serif" font-size="10.00">mxgenericstring.h</text>
</a>
</g>
</g>
<!-- Node30&#45;&gt;Node31 -->
<g id="edge51" class="edge">
<title>Node30&#45;&gt;Node31</title>
<path fill="none" stroke="midnightblue" d="M952.55,-168.32C968.99,-159.7 994.43,-146.36 1013.47,-136.39"/>
<polygon fill="midnightblue" stroke="midnightblue" points="1015.26,-139.4 1022.49,-131.65 1012.01,-133.2 1015.26,-139.4"/>
</g>
<!-- Node31&#45;&gt;Node3 -->
<g id="edge52" class="edge">
<title>Node31&#45;&gt;Node3</title>
<path fill="none" stroke="midnightblue" d="M1033.9,-112.33C1025.14,-98.24 1005.86,-70.5 982,-56 938.24,-29.41 879.58,-18.51 840.6,-14.06"/>
<polygon fill="midnightblue" stroke="midnightblue" points="840.96,-10.58 830.65,-13.01 840.23,-17.54 840.96,-10.58"/>
</g>
<!-- Node31&#45;&gt;Node7 -->
<g id="edge53" class="edge">
<title>Node31&#45;&gt;Node7</title>
<path fill="none" stroke="midnightblue" d="M1049.93,-112.32C1060.17,-104.18 1075.72,-91.84 1088,-82.09"/>
<polygon fill="midnightblue" stroke="midnightblue" points="1090.22,-84.79 1095.88,-75.83 1085.87,-79.31 1090.22,-84.79"/>
</g>
<!-- Node31&#45;&gt;Node8 -->
<g id="edge60" class="edge">
<title>Node31&#45;&gt;Node8</title>
<path fill="none" stroke="midnightblue" d="M1038.93,-112.46C1039.3,-98.55 1042.15,-71.07 1058,-56 1080.09,-35 1165.2,-21.22 1213.33,-14.94"/>
<polygon fill="midnightblue" stroke="midnightblue" points="1213.8,-18.4 1223.29,-13.67 1212.92,-11.46 1213.8,-18.4"/>
</g>
<!-- Node31&#45;&gt;Node9 -->
<g id="edge61" class="edge">
<title>Node31&#45;&gt;Node9</title>
<path fill="none" stroke="midnightblue" d="M1085.09,-115.66C1155.44,-107.13 1283.16,-89.94 1299,-76 1312.14,-64.44 1316.76,-44.47 1318.33,-29.71"/>
<polygon fill="midnightblue" stroke="midnightblue" points="1321.83,-29.88 1319.03,-19.67 1314.85,-29.4 1321.83,-29.88"/>
</g>
<!-- Node32 -->
<g id="node32" class="node">
<title>Node32</title>
<g id="a_node32"><a xlink:href="mxbytearrayref_8h.html" target="_top" xlink:title=" ">
<polygon fill="none" stroke="black" points="1203.5,-56.5 1203.5,-75.5 1290.5,-75.5 1290.5,-56.5 1203.5,-56.5"/>
<text text-anchor="middle" x="1247" y="-63.5" font-family="Helvetica,sans-Serif" font-size="10.00">mxbytearrayref.h</text>
</a>
</g>
</g>
<!-- Node31&#45;&gt;Node32 -->
<g id="edge54" class="edge">
<title>Node31&#45;&gt;Node32</title>
<path fill="none" stroke="midnightblue" d="M1071.96,-112.44C1107.79,-103.14 1165.16,-88.25 1204.39,-78.06"/>
<polygon fill="midnightblue" stroke="midnightblue" points="1205.4,-81.42 1214.2,-75.52 1203.64,-74.64 1205.4,-81.42"/>
</g>
<!-- Node33 -->
<g id="node33" class="node">
<title>Node33</title>
<g id="a_node33"><a xlink:href="mxgenericsubstring_8h.html" target="_top" xlink:title=" ">
<polygon fill="none" stroke="black" points="865,-56.5 865,-75.5 973,-75.5 973,-56.5 865,-56.5"/>
<text text-anchor="middle" x="919" y="-63.5" font-family="Helvetica,sans-Serif" font-size="10.00">mxgenericsubstring.h</text>
</a>
</g>
</g>
<!-- Node31&#45;&gt;Node33 -->
<g id="edge58" class="edge">
<title>Node31&#45;&gt;Node33</title>
<path fill="none" stroke="midnightblue" d="M1019.99,-112.44C1000.41,-103.64 969.69,-89.81 947.27,-79.72"/>
<polygon fill="midnightblue" stroke="midnightblue" points="948.48,-76.43 937.93,-75.52 945.61,-82.81 948.48,-76.43"/>
</g>
<!-- Node32&#45;&gt;Node3 -->
<g id="edge55" class="edge">
<title>Node32&#45;&gt;Node3</title>
<path fill="none" stroke="midnightblue" d="M1203.32,-58.04C1198.49,-57.32 1193.65,-56.63 1189,-56 1062.6,-38.91 912.59,-22.76 841.03,-15.31"/>
<polygon fill="midnightblue" stroke="midnightblue" points="840.96,-11.78 830.65,-14.23 840.23,-18.74 840.96,-11.78"/>
</g>
<!-- Node32&#45;&gt;Node8 -->
<g id="edge56" class="edge">
<title>Node32&#45;&gt;Node8</title>
<path fill="none" stroke="midnightblue" d="M1247,-56.08C1247,-49.01 1247,-38.86 1247,-29.99"/>
<polygon fill="midnightblue" stroke="midnightblue" points="1250.5,-29.75 1247,-19.75 1243.5,-29.75 1250.5,-29.75"/>
</g>
<!-- Node32&#45;&gt;Node9 -->
<g id="edge57" class="edge">
<title>Node32&#45;&gt;Node9</title>
<path fill="none" stroke="midnightblue" d="M1258.57,-56.32C1269.42,-48.18 1285.88,-35.84 1298.88,-26.09"/>
<polygon fill="midnightblue" stroke="midnightblue" points="1301.32,-28.63 1307.22,-19.83 1297.12,-23.03 1301.32,-28.63"/>
</g>
<!-- Node33&#45;&gt;Node3 -->
<g id="edge59" class="edge">
<title>Node33&#45;&gt;Node3</title>
<path fill="none" stroke="midnightblue" d="M899.99,-56.44C880.41,-47.64 849.69,-33.81 827.27,-23.72"/>
<polygon fill="midnightblue" stroke="midnightblue" points="828.48,-20.43 817.93,-19.52 825.61,-26.81 828.48,-20.43"/>
</g>
<!-- Node34&#45;&gt;Node23 -->
<g id="edge65" class="edge">
<title>Node34&#45;&gt;Node23</title>
<path fill="none" stroke="midnightblue" d="M859.72,-280.43C839.09,-272.37 808.51,-259.28 784,-244 760.86,-229.57 737.05,-209.06 721.71,-194.96"/>
<polygon fill="midnightblue" stroke="midnightblue" points="723.81,-192.13 714.11,-187.87 719.03,-197.25 723.81,-192.13"/>
</g>
<!-- Node35 -->
<g id="node35" class="node">
<title>Node35</title>
<g id="a_node35"><a xlink:href="mxthemeicons_8h.html" target="_top" xlink:title=" ">
<polygon fill="none" stroke="black" points="793.5,-224.5 793.5,-243.5 880.5,-243.5 880.5,-224.5 793.5,-224.5"/>
<text text-anchor="middle" x="837" y="-231.5" font-family="Helvetica,sans-Serif" font-size="10.00">mxthemeicons.h</text>
</a>
</g>
</g>
<!-- Node34&#45;&gt;Node35 -->
<g id="edge64" class="edge">
<title>Node34&#45;&gt;Node35</title>
<path fill="none" stroke="midnightblue" d="M875.4,-280.08C868.77,-272.3 858.98,-260.8 850.94,-251.37"/>
<polygon fill="midnightblue" stroke="midnightblue" points="853.6,-249.09 844.45,-243.75 848.27,-253.63 853.6,-249.09"/>
</g>
<!-- Node37 -->
<g id="node37" class="node">
<title>Node37</title>
<g id="a_node37"><a xlink:href="mxfont_8h.html" target="_top" xlink:title=" ">
<polygon fill="none" stroke="black" points="580.5,-224.5 580.5,-243.5 633.5,-243.5 633.5,-224.5 580.5,-224.5"/>
<text text-anchor="middle" x="607" y="-231.5" font-family="Helvetica,sans-Serif" font-size="10.00">mxfont.h</text>
</a>
</g>
</g>
<!-- Node36&#45;&gt;Node37 -->
<g id="edge67" class="edge">
<title>Node36&#45;&gt;Node37</title>
<path fill="none" stroke="midnightblue" d="M727.34,-280.44C703.6,-271.48 666.09,-257.31 639.26,-247.18"/>
<polygon fill="midnightblue" stroke="midnightblue" points="640.14,-243.77 629.55,-243.52 637.67,-250.32 640.14,-243.77"/>
</g>
<!-- Node37&#45;&gt;Node16 -->
<g id="edge70" class="edge">
<title>Node37&#45;&gt;Node16</title>
<path fill="none" stroke="midnightblue" d="M595.15,-224.29C575.3,-210.15 533.58,-182.33 494,-168 421.21,-141.65 331.11,-130.44 278.93,-125.89"/>
<polygon fill="midnightblue" stroke="midnightblue" points="278.96,-122.38 268.71,-125.05 278.38,-129.36 278.96,-122.38"/>
</g>
<!-- Node37&#45;&gt;Node20 -->
<g id="edge68" class="edge">
<title>Node37&#45;&gt;Node20</title>
<path fill="none" stroke="midnightblue" d="M608.57,-224.37C611.8,-206.62 619.24,-165.67 623.62,-141.6"/>
<polygon fill="midnightblue" stroke="midnightblue" points="627.09,-142.06 625.44,-131.59 620.21,-140.8 627.09,-142.06"/>
</g>
<!-- Node37&#45;&gt;Node30 -->
<g id="edge69" class="edge">
<title>Node37&#45;&gt;Node30</title>
<path fill="none" stroke="midnightblue" d="M633.69,-225.84C636.49,-225.18 639.3,-224.55 642,-224 731.77,-205.64 838.35,-191.11 895.31,-183.92"/>
<polygon fill="midnightblue" stroke="midnightblue" points="895.86,-187.38 905.35,-182.67 894.99,-180.43 895.86,-187.38"/>
</g>
</g>
</svg>
