<?xml version="1.0" encoding="UTF-8" standalone="no"?>
<!DOCTYPE svg PUBLIC "-//W3C//DTD SVG 1.1//EN"
 "http://www.w3.org/Graphics/SVG/1.1/DTD/svg11.dtd">
<!-- Generated by graphviz version 2.44.0 ()
 -->
<!-- Title: src/gui/mxguirenderer.h Pages: 1 -->
<svg width="911pt" height="308pt"
 viewBox="0.00 0.00 911.00 308.00" xmlns="http://www.w3.org/2000/svg" xmlns:xlink="http://www.w3.org/1999/xlink">
<g id="graph0" class="graph" transform="scale(1 1) rotate(0) translate(4 304)">
<title>src/gui/mxguirenderer.h</title>
<!-- Node1 -->
<g id="node1" class="node">
<title>Node1</title>
<g id="a_node1"><a xlink:title=" ">
<polygon fill="#bfbfbf" stroke="black" points="181,-280.5 181,-299.5 298,-299.5 298,-280.5 181,-280.5"/>
<text text-anchor="middle" x="239.5" y="-287.5" font-family="Helvetica,sans-Serif" font-size="10.00">src/gui/mxguirenderer.h</text>
</a>
</g>
</g>
<!-- Node2 -->
<g id="node2" class="node">
<title>Node2</title>
<g id="a_node2"><a xlink:href="mxbuffer_8h.html" target="_top" xlink:title=" ">
<polygon fill="none" stroke="black" points="72,-224.5 72,-243.5 133,-243.5 133,-224.5 72,-224.5"/>
<text text-anchor="middle" x="102.5" y="-231.5" font-family="Helvetica,sans-Serif" font-size="10.00">mxbuffer.h</text>
</a>
</g>
</g>
<!-- Node1&#45;&gt;Node2 -->
<g id="edge1" class="edge">
<title>Node1&#45;&gt;Node2</title>
<path fill="none" stroke="midnightblue" d="M217.79,-280.44C195.15,-271.52 159.43,-257.44 133.75,-247.32"/>
<polygon fill="midnightblue" stroke="midnightblue" points="134.69,-243.93 124.11,-243.52 132.13,-250.44 134.69,-243.93"/>
</g>
<!-- Node3 -->
<g id="node3" class="node">
<title>Node3</title>
<g id="a_node3"><a xlink:href="mxrenderer_8h.html" target="_top" xlink:title=" ">
<polygon fill="none" stroke="black" points="372.5,-224.5 372.5,-243.5 444.5,-243.5 444.5,-224.5 372.5,-224.5"/>
<text text-anchor="middle" x="408.5" y="-231.5" font-family="Helvetica,sans-Serif" font-size="10.00">mxrenderer.h</text>
</a>
</g>
</g>
<!-- Node1&#45;&gt;Node3 -->
<g id="edge2" class="edge">
<title>Node1&#45;&gt;Node3</title>
<path fill="none" stroke="midnightblue" d="M266.28,-280.44C294.83,-271.32 340.23,-256.81 372.04,-246.65"/>
<polygon fill="midnightblue" stroke="midnightblue" points="373.39,-249.89 381.85,-243.52 371.26,-243.23 373.39,-249.89"/>
</g>
<!-- Node17 -->
<g id="node17" class="node">
<title>Node17</title>
<g id="a_node17"><a xlink:href="mxvectorprogram_8h.html" target="_top" xlink:title=" ">
<polygon fill="none" stroke="black" points="151,-224.5 151,-243.5 250,-243.5 250,-224.5 151,-224.5"/>
<text text-anchor="middle" x="200.5" y="-231.5" font-family="Helvetica,sans-Serif" font-size="10.00">mxvectorprogram.h</text>
</a>
</g>
</g>
<!-- Node1&#45;&gt;Node17 -->
<g id="edge19" class="edge">
<title>Node1&#45;&gt;Node17</title>
<path fill="none" stroke="midnightblue" d="M233.06,-280.08C227.55,-272.46 219.47,-261.26 212.74,-251.94"/>
<polygon fill="midnightblue" stroke="midnightblue" points="215.51,-249.81 206.82,-243.75 209.84,-253.91 215.51,-249.81"/>
</g>
<!-- Node21 -->
<g id="node21" class="node">
<title>Node21</title>
<g id="a_node21"><a xlink:href="mxiconprogram_8h.html" target="_top" xlink:title=" ">
<polygon fill="none" stroke="black" points="233.5,-168.5 233.5,-187.5 323.5,-187.5 323.5,-168.5 233.5,-168.5"/>
<text text-anchor="middle" x="278.5" y="-175.5" font-family="Helvetica,sans-Serif" font-size="10.00">mxiconprogram.h</text>
</a>
</g>
</g>
<!-- Node1&#45;&gt;Node21 -->
<g id="edge27" class="edge">
<title>Node1&#45;&gt;Node21</title>
<path fill="none" stroke="midnightblue" d="M243.4,-280.48C247.44,-271.5 253.8,-256.91 258.5,-244 264.18,-228.4 269.65,-210.32 273.43,-197.2"/>
<polygon fill="midnightblue" stroke="midnightblue" points="276.82,-198.08 276.18,-187.5 270.09,-196.17 276.82,-198.08"/>
</g>
<!-- Node4 -->
<g id="node4" class="node">
<title>Node4</title>
<g id="a_node4"><a xlink:href="mxlist_8h.html" target="_top" xlink:title=" ">
<polygon fill="none" stroke="black" points="552.5,-168.5 552.5,-187.5 602.5,-187.5 602.5,-168.5 552.5,-168.5"/>
<text text-anchor="middle" x="577.5" y="-175.5" font-family="Helvetica,sans-Serif" font-size="10.00">mxlist.h</text>
</a>
</g>
</g>
<!-- Node3&#45;&gt;Node4 -->
<g id="edge3" class="edge">
<title>Node3&#45;&gt;Node4</title>
<path fill="none" stroke="midnightblue" d="M435.28,-224.44C464.34,-215.16 510.84,-200.3 542.71,-190.12"/>
<polygon fill="midnightblue" stroke="midnightblue" points="544.04,-193.37 552.5,-186.99 541.91,-186.7 544.04,-193.37"/>
</g>
<!-- Node10 -->
<g id="node10" class="node">
<title>Node10</title>
<g id="a_node10"><a xlink:href="mxgpuarray_8h.html" target="_top" xlink:title=" ">
<polygon fill="none" stroke="black" points="141.5,-168.5 141.5,-187.5 215.5,-187.5 215.5,-168.5 141.5,-168.5"/>
<text text-anchor="middle" x="178.5" y="-175.5" font-family="Helvetica,sans-Serif" font-size="10.00">mxgpuarray.h</text>
</a>
</g>
</g>
<!-- Node3&#45;&gt;Node10 -->
<g id="edge9" class="edge">
<title>Node3&#45;&gt;Node10</title>
<path fill="none" stroke="midnightblue" d="M372.31,-224.5C332.41,-215.13 268.11,-200.04 224.62,-189.83"/>
<polygon fill="midnightblue" stroke="midnightblue" points="225.39,-186.41 214.86,-187.54 223.79,-193.23 225.39,-186.41"/>
</g>
<!-- Node13 -->
<g id="node13" class="node">
<title>Node13</title>
<g id="a_node13"><a xlink:href="mxmatrix_8h.html" target="_top" xlink:title=" ">
<polygon fill="none" stroke="black" points="336,-112.5 336,-131.5 399,-131.5 399,-112.5 336,-112.5"/>
<text text-anchor="middle" x="367.5" y="-119.5" font-family="Helvetica,sans-Serif" font-size="10.00">mxmatrix.h</text>
</a>
</g>
</g>
<!-- Node3&#45;&gt;Node13 -->
<g id="edge12" class="edge">
<title>Node3&#45;&gt;Node13</title>
<path fill="none" stroke="midnightblue" d="M405.28,-224.37C398.64,-206.54 383.26,-165.3 374.31,-141.27"/>
<polygon fill="midnightblue" stroke="midnightblue" points="377.47,-139.74 370.7,-131.59 370.92,-142.18 377.47,-139.74"/>
</g>
<!-- Node14 -->
<g id="node14" class="node">
<title>Node14</title>
<g id="a_node14"><a xlink:href="mxvector_8h.html" target="_top" xlink:title=" ">
<polygon fill="none" stroke="black" points="297.5,-56.5 297.5,-75.5 361.5,-75.5 361.5,-56.5 297.5,-56.5"/>
<text text-anchor="middle" x="329.5" y="-63.5" font-family="Helvetica,sans-Serif" font-size="10.00">mxvector.h</text>
</a>
</g>
</g>
<!-- Node3&#45;&gt;Node14 -->
<g id="edge18" class="edge">
<title>Node3&#45;&gt;Node14</title>
<path fill="none" stroke="midnightblue" d="M411.15,-224.33C417.02,-203.34 428.98,-148.84 407.5,-112 398.76,-97.01 382.94,-86.56 367.82,-79.53"/>
<polygon fill="midnightblue" stroke="midnightblue" points="369.14,-76.29 358.57,-75.59 366.4,-82.73 369.14,-76.29"/>
</g>
<!-- Node15 -->
<g id="node15" class="node">
<title>Node15</title>
<g id="a_node15"><a xlink:href="mxopenglfunctions_8h.html" target="_top" xlink:title=" ">
<polygon fill="none" stroke="black" points="723,-168.5 723,-187.5 828,-187.5 828,-168.5 723,-168.5"/>
<text text-anchor="middle" x="775.5" y="-175.5" font-family="Helvetica,sans-Serif" font-size="10.00">mxopenglfunctions.h</text>
</a>
</g>
</g>
<!-- Node3&#45;&gt;Node15 -->
<g id="edge16" class="edge">
<title>Node3&#45;&gt;Node15</title>
<path fill="none" stroke="midnightblue" d="M444.69,-227.67C507.08,-218.49 635.6,-199.58 712.8,-188.23"/>
<polygon fill="midnightblue" stroke="midnightblue" points="713.49,-191.66 722.87,-186.74 712.47,-184.74 713.49,-191.66"/>
</g>
<!-- Node5 -->
<g id="node5" class="node">
<title>Node5</title>
<g id="a_node5"><a xlink:title=" ">
<polygon fill="none" stroke="#bfbfbf" points="298,-0.5 298,-19.5 361,-19.5 361,-0.5 298,-0.5"/>
<text text-anchor="middle" x="329.5" y="-7.5" font-family="Helvetica,sans-Serif" font-size="10.00">mxdebug.h</text>
</a>
</g>
</g>
<!-- Node4&#45;&gt;Node5 -->
<g id="edge4" class="edge">
<title>Node4&#45;&gt;Node5</title>
<path fill="none" stroke="midnightblue" d="M602.52,-175.47C654.33,-171.38 765.72,-157.19 730.5,-112 686.2,-55.16 464.76,-25.35 371.26,-15.14"/>
<polygon fill="midnightblue" stroke="midnightblue" points="371.36,-11.63 361.04,-14.04 370.61,-18.59 371.36,-11.63"/>
</g>
<!-- Node6 -->
<g id="node6" class="node">
<title>Node6</title>
<g id="a_node6"><a xlink:href="mxrefcounter_8h.html" target="_top" xlink:title=" ">
<polygon fill="none" stroke="black" points="575.5,-112.5 575.5,-131.5 655.5,-131.5 655.5,-112.5 575.5,-112.5"/>
<text text-anchor="middle" x="615.5" y="-119.5" font-family="Helvetica,sans-Serif" font-size="10.00">mxrefcounter.h</text>
</a>
</g>
</g>
<!-- Node4&#45;&gt;Node6 -->
<g id="edge5" class="edge">
<title>Node4&#45;&gt;Node6</title>
<path fill="none" stroke="midnightblue" d="M583.77,-168.08C589.14,-160.46 597.02,-149.26 603.58,-139.94"/>
<polygon fill="midnightblue" stroke="midnightblue" points="606.45,-141.94 609.34,-131.75 600.72,-137.91 606.45,-141.94"/>
</g>
<!-- Node7 -->
<g id="node7" class="node">
<title>Node7</title>
<g id="a_node7"><a xlink:title=" ">
<polygon fill="none" stroke="#bfbfbf" points="674,-112.5 674,-131.5 721,-131.5 721,-112.5 674,-112.5"/>
<text text-anchor="middle" x="697.5" y="-119.5" font-family="Helvetica,sans-Serif" font-size="10.00">stdlib.h</text>
</a>
</g>
</g>
<!-- Node4&#45;&gt;Node7 -->
<g id="edge6" class="edge">
<title>Node4&#45;&gt;Node7</title>
<path fill="none" stroke="midnightblue" d="M596.51,-168.44C616.09,-159.64 646.81,-145.81 669.23,-135.72"/>
<polygon fill="midnightblue" stroke="midnightblue" points="670.89,-138.81 678.57,-131.52 668.02,-132.43 670.89,-138.81"/>
</g>
<!-- Node8 -->
<g id="node8" class="node">
<title>Node8</title>
<g id="a_node8"><a xlink:title=" ">
<polygon fill="none" stroke="#bfbfbf" points="455.5,-112.5 455.5,-131.5 503.5,-131.5 503.5,-112.5 455.5,-112.5"/>
<text text-anchor="middle" x="479.5" y="-119.5" font-family="Helvetica,sans-Serif" font-size="10.00">string.h</text>
</a>
</g>
</g>
<!-- Node4&#45;&gt;Node8 -->
<g id="edge7" class="edge">
<title>Node4&#45;&gt;Node8</title>
<path fill="none" stroke="midnightblue" d="M561.75,-168.32C546.18,-159.74 522.12,-146.49 504.04,-136.52"/>
<polygon fill="midnightblue" stroke="midnightblue" points="505.65,-133.42 495.21,-131.65 502.28,-139.55 505.65,-133.42"/>
</g>
<!-- Node9 -->
<g id="node9" class="node">
<title>Node9</title>
<g id="a_node9"><a xlink:title=" ">
<polygon fill="none" stroke="#bfbfbf" points="522,-112.5 522,-131.5 557,-131.5 557,-112.5 522,-112.5"/>
<text text-anchor="middle" x="539.5" y="-119.5" font-family="Helvetica,sans-Serif" font-size="10.00">new</text>
</a>
</g>
</g>
<!-- Node4&#45;&gt;Node9 -->
<g id="edge8" class="edge">
<title>Node4&#45;&gt;Node9</title>
<path fill="none" stroke="midnightblue" d="M571.23,-168.08C565.86,-160.46 557.98,-149.26 551.42,-139.94"/>
<polygon fill="midnightblue" stroke="midnightblue" points="554.28,-137.91 545.66,-131.75 548.55,-141.94 554.28,-137.91"/>
</g>
<!-- Node11 -->
<g id="node11" class="node">
<title>Node11</title>
<g id="a_node11"><a xlink:href="mxgpuprogram_8h.html" target="_top" xlink:title=" ">
<polygon fill="none" stroke="black" points="115.5,-112.5 115.5,-131.5 203.5,-131.5 203.5,-112.5 115.5,-112.5"/>
<text text-anchor="middle" x="159.5" y="-119.5" font-family="Helvetica,sans-Serif" font-size="10.00">mxgpuprogram.h</text>
</a>
</g>
</g>
<!-- Node10&#45;&gt;Node11 -->
<g id="edge10" class="edge">
<title>Node10&#45;&gt;Node11</title>
<path fill="none" stroke="midnightblue" d="M175.36,-168.08C172.82,-160.85 169.14,-150.41 165.97,-141.4"/>
<polygon fill="midnightblue" stroke="midnightblue" points="169.2,-140.02 162.58,-131.75 162.6,-142.35 169.2,-140.02"/>
</g>
<!-- Node12 -->
<g id="node12" class="node">
<title>Node12</title>
<g id="a_node12"><a xlink:title=" ">
<polygon fill="none" stroke="#bfbfbf" points="171,-56.5 171,-75.5 236,-75.5 236,-56.5 171,-56.5"/>
<text text-anchor="middle" x="203.5" y="-63.5" font-family="Helvetica,sans-Serif" font-size="10.00">mxopengl.h</text>
</a>
</g>
</g>
<!-- Node11&#45;&gt;Node12 -->
<g id="edge11" class="edge">
<title>Node11&#45;&gt;Node12</title>
<path fill="none" stroke="midnightblue" d="M166.77,-112.08C173.04,-104.38 182.29,-93.03 189.93,-83.65"/>
<polygon fill="midnightblue" stroke="midnightblue" points="192.77,-85.71 196.37,-75.75 187.34,-81.29 192.77,-85.71"/>
</g>
<!-- Node13&#45;&gt;Node5 -->
<g id="edge13" class="edge">
<title>Node13&#45;&gt;Node5</title>
<path fill="none" stroke="midnightblue" d="M370.08,-112.23C373.38,-99.39 377.84,-74.96 370.5,-56 366.05,-44.5 357.13,-34.13 348.75,-26.25"/>
<polygon fill="midnightblue" stroke="midnightblue" points="350.87,-23.46 341.04,-19.51 346.26,-28.73 350.87,-23.46"/>
</g>
<!-- Node13&#45;&gt;Node14 -->
<g id="edge14" class="edge">
<title>Node13&#45;&gt;Node14</title>
<path fill="none" stroke="midnightblue" d="M361.23,-112.08C355.86,-104.46 347.98,-93.26 341.42,-83.94"/>
<polygon fill="midnightblue" stroke="midnightblue" points="344.28,-81.91 335.66,-75.75 338.55,-85.94 344.28,-81.91"/>
</g>
<!-- Node14&#45;&gt;Node5 -->
<g id="edge15" class="edge">
<title>Node14&#45;&gt;Node5</title>
<path fill="none" stroke="midnightblue" d="M329.5,-56.08C329.5,-49.01 329.5,-38.86 329.5,-29.99"/>
<polygon fill="midnightblue" stroke="midnightblue" points="333,-29.75 329.5,-19.75 326,-29.75 333,-29.75"/>
</g>
<!-- Node16 -->
<g id="node16" class="node">
<title>Node16</title>
<g id="a_node16"><a xlink:title=" ">
<polygon fill="none" stroke="#bfbfbf" points="778,-112.5 778,-131.5 903,-131.5 903,-112.5 778,-112.5"/>
<text text-anchor="middle" x="840.5" y="-119.5" font-family="Helvetica,sans-Serif" font-size="10.00">QOpenGLExtraFunctions</text>
</a>
</g>
</g>
<!-- Node15&#45;&gt;Node16 -->
<g id="edge17" class="edge">
<title>Node15&#45;&gt;Node16</title>
<path fill="none" stroke="midnightblue" d="M785.94,-168.32C795.65,-160.26 810.32,-148.08 822,-138.37"/>
<polygon fill="midnightblue" stroke="midnightblue" points="824.41,-140.92 829.87,-131.83 819.94,-135.53 824.41,-140.92"/>
</g>
<!-- Node17&#45;&gt;Node11 -->
<g id="edge20" class="edge">
<title>Node17&#45;&gt;Node11</title>
<path fill="none" stroke="midnightblue" d="M177.05,-224.41C161.34,-217.28 141.88,-205.46 132.5,-188 123.96,-172.11 134.25,-152.92 144.5,-139.53"/>
<polygon fill="midnightblue" stroke="midnightblue" points="147.33,-141.59 151.02,-131.66 141.94,-137.13 147.33,-141.59"/>
</g>
<!-- Node17&#45;&gt;Node13 -->
<g id="edge21" class="edge">
<title>Node17&#45;&gt;Node13</title>
<path fill="none" stroke="midnightblue" d="M250.04,-225.23C276.88,-218.93 309.22,-207.72 332.5,-188 346.84,-175.85 356.24,-156.3 361.65,-141.81"/>
<polygon fill="midnightblue" stroke="midnightblue" points="365.1,-142.51 365.02,-131.92 358.48,-140.25 365.1,-142.51"/>
</g>
<!-- Node18 -->
<g id="node18" class="node">
<title>Node18</title>
<g id="a_node18"><a xlink:href="mxvectordraw_8h.html" target="_top" xlink:title=" ">
<polygon fill="none" stroke="black" points="0,-168.5 0,-187.5 85,-187.5 85,-168.5 0,-168.5"/>
<text text-anchor="middle" x="42.5" y="-175.5" font-family="Helvetica,sans-Serif" font-size="10.00">mxvectordraw.h</text>
</a>
</g>
</g>
<!-- Node17&#45;&gt;Node18 -->
<g id="edge22" class="edge">
<title>Node17&#45;&gt;Node18</title>
<path fill="none" stroke="midnightblue" d="M175.46,-224.44C148.88,-215.36 106.69,-200.94 76.98,-190.78"/>
<polygon fill="midnightblue" stroke="midnightblue" points="78.01,-187.44 67.42,-187.52 75.75,-194.06 78.01,-187.44"/>
</g>
<!-- Node19 -->
<g id="node19" class="node">
<title>Node19</title>
<g id="a_node19"><a xlink:href="mxrect_8h.html" target="_top" xlink:title=" ">
<polygon fill="none" stroke="black" points="45,-112.5 45,-131.5 98,-131.5 98,-112.5 45,-112.5"/>
<text text-anchor="middle" x="71.5" y="-119.5" font-family="Helvetica,sans-Serif" font-size="10.00">mxrect.h</text>
</a>
</g>
</g>
<!-- Node18&#45;&gt;Node19 -->
<g id="edge23" class="edge">
<title>Node18&#45;&gt;Node19</title>
<path fill="none" stroke="midnightblue" d="M47.29,-168.08C51.26,-160.69 57.03,-149.95 61.93,-140.81"/>
<polygon fill="midnightblue" stroke="midnightblue" points="65.15,-142.22 66.8,-131.75 58.99,-138.91 65.15,-142.22"/>
</g>
<!-- Node19&#45;&gt;Node5 -->
<g id="edge24" class="edge">
<title>Node19&#45;&gt;Node5</title>
<path fill="none" stroke="midnightblue" d="M81.25,-112.08C96.99,-98.14 129.47,-71.22 161.5,-56 202.46,-36.54 253.17,-24.42 288.11,-17.73"/>
<polygon fill="midnightblue" stroke="midnightblue" points="288.77,-21.17 297.97,-15.91 287.5,-14.29 288.77,-21.17"/>
</g>
<!-- Node19&#45;&gt;Node14 -->
<g id="edge25" class="edge">
<title>Node19&#45;&gt;Node14</title>
<path fill="none" stroke="midnightblue" d="M98.22,-113.98C101.01,-113.29 103.81,-112.62 106.5,-112 169.18,-97.63 242.33,-83.33 287.29,-74.83"/>
<polygon fill="midnightblue" stroke="midnightblue" points="288.08,-78.25 297.26,-72.95 286.78,-71.37 288.08,-78.25"/>
</g>
<!-- Node20 -->
<g id="node20" class="node">
<title>Node20</title>
<g id="a_node20"><a xlink:title=" ">
<polygon fill="none" stroke="#bfbfbf" points="43.5,-56.5 43.5,-75.5 99.5,-75.5 99.5,-56.5 43.5,-56.5"/>
<text text-anchor="middle" x="71.5" y="-63.5" font-family="Helvetica,sans-Serif" font-size="10.00">algorithm</text>
</a>
</g>
</g>
<!-- Node19&#45;&gt;Node20 -->
<g id="edge26" class="edge">
<title>Node19&#45;&gt;Node20</title>
<path fill="none" stroke="midnightblue" d="M71.5,-112.08C71.5,-105.01 71.5,-94.86 71.5,-85.99"/>
<polygon fill="midnightblue" stroke="midnightblue" points="75,-85.75 71.5,-75.75 68,-85.75 75,-85.75"/>
</g>
<!-- Node21&#45;&gt;Node5 -->
<g id="edge28" class="edge">
<title>Node21&#45;&gt;Node5</title>
<path fill="none" stroke="midnightblue" d="M277.38,-168.33C275.1,-147.81 271.5,-95.04 288.5,-56 293.42,-44.69 302.38,-34.34 310.67,-26.43"/>
<polygon fill="midnightblue" stroke="midnightblue" points="313.14,-28.91 318.25,-19.63 308.47,-23.7 313.14,-28.91"/>
</g>
<!-- Node21&#45;&gt;Node11 -->
<g id="edge32" class="edge">
<title>Node21&#45;&gt;Node11</title>
<path fill="none" stroke="midnightblue" d="M259.64,-168.44C240.23,-159.64 209.77,-145.81 187.54,-135.72"/>
<polygon fill="midnightblue" stroke="midnightblue" points="188.82,-132.46 178.27,-131.52 185.93,-138.84 188.82,-132.46"/>
</g>
<!-- Node21&#45;&gt;Node12 -->
<g id="edge31" class="edge">
<title>Node21&#45;&gt;Node12</title>
<path fill="none" stroke="midnightblue" d="M272.61,-168.37C260.24,-150.22 231.32,-107.8 215.08,-83.99"/>
<polygon fill="midnightblue" stroke="midnightblue" points="217.88,-81.88 209.36,-75.59 212.1,-85.83 217.88,-81.88"/>
</g>
<!-- Node21&#45;&gt;Node13 -->
<g id="edge29" class="edge">
<title>Node21&#45;&gt;Node13</title>
<path fill="none" stroke="midnightblue" d="M292.8,-168.32C306.68,-159.9 327.99,-146.97 344.3,-137.07"/>
<polygon fill="midnightblue" stroke="midnightblue" points="346.5,-139.83 353.24,-131.65 342.87,-133.85 346.5,-139.83"/>
</g>
<!-- Node21&#45;&gt;Node14 -->
<g id="edge30" class="edge">
<title>Node21&#45;&gt;Node14</title>
<path fill="none" stroke="midnightblue" d="M282.5,-168.37C290.81,-150.46 310.06,-108.92 321.18,-84.95"/>
<polygon fill="midnightblue" stroke="midnightblue" points="324.49,-86.14 325.52,-75.59 318.14,-83.19 324.49,-86.14"/>
</g>
<!-- Node21&#45;&gt;Node19 -->
<g id="edge33" class="edge">
<title>Node21&#45;&gt;Node19</title>
<path fill="none" stroke="midnightblue" d="M245.7,-168.44C208.24,-158.67 147.1,-142.72 108.11,-132.55"/>
<polygon fill="midnightblue" stroke="midnightblue" points="108.78,-129.11 98.22,-129.97 107.01,-135.88 108.78,-129.11"/>
</g>
</g>
</svg>
