<?xml version="1.0" encoding="UTF-8" standalone="no"?>
<!DOCTYPE svg PUBLIC "-//W3C//DTD SVG 1.1//EN"
 "http://www.w3.org/Graphics/SVG/1.1/DTD/svg11.dtd">
<!-- Generated by graphviz version 2.44.0 ()
 -->
<!-- Title: src/gui/icondraw/mxiconprogram.cpp Pages: 1 -->
<svg width="1023pt" height="476pt"
 viewBox="0.00 0.00 1023.16 476.00" xmlns="http://www.w3.org/2000/svg" xmlns:xlink="http://www.w3.org/1999/xlink">
<g id="graph0" class="graph" transform="scale(1 1) rotate(0) translate(4 472)">
<title>src/gui/icondraw/mxiconprogram.cpp</title>
<!-- Node1 -->
<g id="node1" class="node">
<title>Node1</title>
<g id="a_node1"><a xlink:title=" ">
<polygon fill="#bfbfbf" stroke="black" points="633,-448.5 633,-467.5 808,-467.5 808,-448.5 633,-448.5"/>
<text text-anchor="middle" x="720.5" y="-455.5" font-family="Helvetica,sans-Serif" font-size="10.00">src/gui/icondraw/mxiconprogram.cpp</text>
</a>
</g>
</g>
<!-- Node2 -->
<g id="node2" class="node">
<title>Node2</title>
<g id="a_node2"><a xlink:href="mxiconprogram_8h.html" target="_top" xlink:title=" ">
<polygon fill="none" stroke="black" points="619.5,-224.5 619.5,-243.5 709.5,-243.5 709.5,-224.5 619.5,-224.5"/>
<text text-anchor="middle" x="664.5" y="-231.5" font-family="Helvetica,sans-Serif" font-size="10.00">mxiconprogram.h</text>
</a>
</g>
</g>
<!-- Node1&#45;&gt;Node2 -->
<g id="edge1" class="edge">
<title>Node1&#45;&gt;Node2</title>
<path fill="none" stroke="midnightblue" d="M808.23,-454.02C876.69,-449.63 963.86,-438.79 986.5,-412 1024.37,-367.19 1025.01,-324.26 986.5,-280 952.61,-241.05 802.75,-234.79 719.95,-234.39"/>
<polygon fill="midnightblue" stroke="midnightblue" points="719.71,-230.89 709.71,-234.36 719.7,-237.89 719.71,-230.89"/>
</g>
<!-- Node10 -->
<g id="node10" class="node">
<title>Node10</title>
<g id="a_node10"><a xlink:href="mxrect_8h.html" target="_top" xlink:title=" ">
<polygon fill="none" stroke="black" points="400,-168.5 400,-187.5 453,-187.5 453,-168.5 400,-168.5"/>
<text text-anchor="middle" x="426.5" y="-175.5" font-family="Helvetica,sans-Serif" font-size="10.00">mxrect.h</text>
</a>
</g>
</g>
<!-- Node1&#45;&gt;Node10 -->
<g id="edge16" class="edge">
<title>Node1&#45;&gt;Node10</title>
<path fill="none" stroke="midnightblue" d="M751.14,-448.45C829.04,-425.31 1023.7,-357.95 953.5,-280 902.21,-223.05 685.26,-260.88 610.5,-244 554.01,-231.25 490.93,-206.55 455.24,-191.54"/>
<polygon fill="midnightblue" stroke="midnightblue" points="456.5,-188.27 445.93,-187.58 453.76,-194.71 456.5,-188.27"/>
</g>
<!-- Node12 -->
<g id="node12" class="node">
<title>Node12</title>
<g id="a_node12"><a xlink:href="mxicondraw_8h.html" target="_top" xlink:title=" ">
<polygon fill="none" stroke="black" points="102.5,-336.5 102.5,-355.5 178.5,-355.5 178.5,-336.5 102.5,-336.5"/>
<text text-anchor="middle" x="140.5" y="-343.5" font-family="Helvetica,sans-Serif" font-size="10.00">mxicondraw.h</text>
</a>
</g>
</g>
<!-- Node1&#45;&gt;Node12 -->
<g id="edge17" class="edge">
<title>Node1&#45;&gt;Node12</title>
<path fill="none" stroke="midnightblue" d="M654.79,-448.49C594.44,-440.34 502.65,-427.06 423.5,-412 337.95,-395.72 238.99,-371.81 183.68,-357.99"/>
<polygon fill="midnightblue" stroke="midnightblue" points="184.42,-354.56 173.87,-355.53 182.72,-361.35 184.42,-354.56"/>
</g>
<!-- Node17 -->
<g id="node17" class="node">
<title>Node17</title>
<g id="a_node17"><a xlink:href="mxrenderer_8h.html" target="_top" xlink:title=" ">
<polygon fill="none" stroke="black" points="432.5,-392.5 432.5,-411.5 504.5,-411.5 504.5,-392.5 432.5,-392.5"/>
<text text-anchor="middle" x="468.5" y="-399.5" font-family="Helvetica,sans-Serif" font-size="10.00">mxrenderer.h</text>
</a>
</g>
</g>
<!-- Node1&#45;&gt;Node17 -->
<g id="edge25" class="edge">
<title>Node1&#45;&gt;Node17</title>
<path fill="none" stroke="midnightblue" d="M680.57,-448.44C635.45,-438.77 562.11,-423.06 514.59,-412.88"/>
<polygon fill="midnightblue" stroke="midnightblue" points="515.08,-409.4 504.57,-410.73 513.61,-416.25 515.08,-409.4"/>
</g>
<!-- Node3 -->
<g id="node3" class="node">
<title>Node3</title>
<g id="a_node3"><a xlink:href="mxdebug_8h.html" target="_top" xlink:title=" ">
<polygon fill="none" stroke="black" points="542,-56.5 542,-75.5 605,-75.5 605,-56.5 542,-56.5"/>
<text text-anchor="middle" x="573.5" y="-63.5" font-family="Helvetica,sans-Serif" font-size="10.00">mxdebug.h</text>
</a>
</g>
</g>
<!-- Node2&#45;&gt;Node3 -->
<g id="edge2" class="edge">
<title>Node2&#45;&gt;Node3</title>
<path fill="none" stroke="midnightblue" d="M672.41,-224.3C690.57,-203.25 731.7,-148.62 705.5,-112 685.12,-83.52 645.63,-72.86 615.13,-68.97"/>
<polygon fill="midnightblue" stroke="midnightblue" points="615.49,-65.49 605.17,-67.9 614.74,-72.45 615.49,-65.49"/>
</g>
<!-- Node5 -->
<g id="node5" class="node">
<title>Node5</title>
<g id="a_node5"><a xlink:href="mxmatrix_8h.html" target="_top" xlink:title=" ">
<polygon fill="none" stroke="black" points="472,-168.5 472,-187.5 535,-187.5 535,-168.5 472,-168.5"/>
<text text-anchor="middle" x="503.5" y="-175.5" font-family="Helvetica,sans-Serif" font-size="10.00">mxmatrix.h</text>
</a>
</g>
</g>
<!-- Node2&#45;&gt;Node5 -->
<g id="edge4" class="edge">
<title>Node2&#45;&gt;Node5</title>
<path fill="none" stroke="midnightblue" d="M638.99,-224.44C611.9,-215.36 568.91,-200.94 538.63,-190.78"/>
<polygon fill="midnightblue" stroke="midnightblue" points="539.49,-187.38 528.89,-187.52 537.26,-194.01 539.49,-187.38"/>
</g>
<!-- Node7 -->
<g id="node7" class="node">
<title>Node7</title>
<g id="a_node7"><a xlink:href="mxvector_8h.html" target="_top" xlink:title=" ">
<polygon fill="none" stroke="black" points="632.5,-112.5 632.5,-131.5 696.5,-131.5 696.5,-112.5 632.5,-112.5"/>
<text text-anchor="middle" x="664.5" y="-119.5" font-family="Helvetica,sans-Serif" font-size="10.00">mxvector.h</text>
</a>
</g>
</g>
<!-- Node2&#45;&gt;Node7 -->
<g id="edge6" class="edge">
<title>Node2&#45;&gt;Node7</title>
<path fill="none" stroke="midnightblue" d="M664.5,-224.37C664.5,-206.62 664.5,-165.67 664.5,-141.6"/>
<polygon fill="midnightblue" stroke="midnightblue" points="668,-141.59 664.5,-131.59 661,-141.59 668,-141.59"/>
</g>
<!-- Node8 -->
<g id="node8" class="node">
<title>Node8</title>
<g id="a_node8"><a xlink:href="mxopengl_8h.html" target="_top" xlink:title=" ">
<polygon fill="none" stroke="black" points="219,-56.5 219,-75.5 284,-75.5 284,-56.5 219,-56.5"/>
<text text-anchor="middle" x="251.5" y="-63.5" font-family="Helvetica,sans-Serif" font-size="10.00">mxopengl.h</text>
</a>
</g>
</g>
<!-- Node2&#45;&gt;Node8 -->
<g id="edge8" class="edge">
<title>Node2&#45;&gt;Node8</title>
<path fill="none" stroke="midnightblue" d="M661.75,-224.45C653.96,-201.73 629.41,-139.72 585.5,-112 537.91,-81.96 373.26,-71.66 294.33,-68.39"/>
<polygon fill="midnightblue" stroke="midnightblue" points="294.37,-64.89 284.24,-67.99 294.09,-71.88 294.37,-64.89"/>
</g>
<!-- Node9 -->
<g id="node9" class="node">
<title>Node9</title>
<g id="a_node9"><a xlink:href="mxshaderprogram_8h.html" target="_top" xlink:title=" ">
<polygon fill="none" stroke="black" points="241,-112.5 241,-131.5 342,-131.5 342,-112.5 241,-112.5"/>
<text text-anchor="middle" x="291.5" y="-119.5" font-family="Helvetica,sans-Serif" font-size="10.00">mxshaderprogram.h</text>
</a>
</g>
</g>
<!-- Node2&#45;&gt;Node9 -->
<g id="edge9" class="edge">
<title>Node2&#45;&gt;Node9</title>
<path fill="none" stroke="midnightblue" d="M651.82,-224.34C630.6,-210.26 586.1,-182.54 544.5,-168 480.93,-145.78 404.37,-134.12 352.24,-128.29"/>
<polygon fill="midnightblue" stroke="midnightblue" points="352.47,-124.8 342.15,-127.2 351.72,-131.76 352.47,-124.8"/>
</g>
<!-- Node2&#45;&gt;Node10 -->
<g id="edge12" class="edge">
<title>Node2&#45;&gt;Node10</title>
<path fill="none" stroke="midnightblue" d="M625.17,-224.42C584.61,-215.52 519.56,-201.09 463.5,-188 463.4,-187.98 463.29,-187.95 463.19,-187.93"/>
<polygon fill="midnightblue" stroke="midnightblue" points="463.7,-184.45 453.16,-185.55 462.08,-191.26 463.7,-184.45"/>
</g>
<!-- Node4 -->
<g id="node4" class="node">
<title>Node4</title>
<g id="a_node4"><a xlink:title=" ">
<polygon fill="none" stroke="#bfbfbf" points="547.5,-0.5 547.5,-19.5 599.5,-19.5 599.5,-0.5 547.5,-0.5"/>
<text text-anchor="middle" x="573.5" y="-7.5" font-family="Helvetica,sans-Serif" font-size="10.00">QDebug</text>
</a>
</g>
</g>
<!-- Node3&#45;&gt;Node4 -->
<g id="edge3" class="edge">
<title>Node3&#45;&gt;Node4</title>
<path fill="none" stroke="midnightblue" d="M573.5,-56.08C573.5,-49.01 573.5,-38.86 573.5,-29.99"/>
<polygon fill="midnightblue" stroke="midnightblue" points="577,-29.75 573.5,-19.75 570,-29.75 577,-29.75"/>
</g>
<!-- Node6 -->
<g id="node6" class="node">
<title>Node6</title>
<g id="a_node6"><a xlink:title=" ">
<polygon fill="none" stroke="#bfbfbf" points="511,-112.5 511,-131.5 576,-131.5 576,-112.5 511,-112.5"/>
<text text-anchor="middle" x="543.5" y="-119.5" font-family="Helvetica,sans-Serif" font-size="10.00">QMatrix4x4</text>
</a>
</g>
</g>
<!-- Node5&#45;&gt;Node6 -->
<g id="edge5" class="edge">
<title>Node5&#45;&gt;Node6</title>
<path fill="none" stroke="midnightblue" d="M510.11,-168.08C515.76,-160.46 524.04,-149.26 530.95,-139.94"/>
<polygon fill="midnightblue" stroke="midnightblue" points="533.88,-141.87 537.02,-131.75 528.25,-137.7 533.88,-141.87"/>
</g>
<!-- Node7&#45;&gt;Node3 -->
<g id="edge7" class="edge">
<title>Node7&#45;&gt;Node3</title>
<path fill="none" stroke="midnightblue" d="M649.88,-112.32C635.55,-103.82 613.49,-90.73 596.75,-80.8"/>
<polygon fill="midnightblue" stroke="midnightblue" points="598.47,-77.75 588.08,-75.65 594.9,-83.77 598.47,-77.75"/>
</g>
<!-- Node9&#45;&gt;Node3 -->
<g id="edge10" class="edge">
<title>Node9&#45;&gt;Node3</title>
<path fill="none" stroke="midnightblue" d="M336.18,-112.44C389.91,-102.16 479.37,-85.02 531.75,-74.99"/>
<polygon fill="midnightblue" stroke="midnightblue" points="532.55,-78.4 541.72,-73.09 531.24,-71.53 532.55,-78.4"/>
</g>
<!-- Node9&#45;&gt;Node8 -->
<g id="edge11" class="edge">
<title>Node9&#45;&gt;Node8</title>
<path fill="none" stroke="midnightblue" d="M284.89,-112.08C279.24,-104.46 270.96,-93.26 264.05,-83.94"/>
<polygon fill="midnightblue" stroke="midnightblue" points="266.75,-81.7 257.98,-75.75 261.12,-85.87 266.75,-81.7"/>
</g>
<!-- Node10&#45;&gt;Node3 -->
<g id="edge13" class="edge">
<title>Node10&#45;&gt;Node3</title>
<path fill="none" stroke="midnightblue" d="M435.97,-168.12C450,-155.16 477.36,-130.57 502.5,-112 517.81,-100.69 535.95,-89.22 550.06,-80.7"/>
<polygon fill="midnightblue" stroke="midnightblue" points="551.89,-83.68 558.68,-75.55 548.3,-77.67 551.89,-83.68"/>
</g>
<!-- Node10&#45;&gt;Node7 -->
<g id="edge14" class="edge">
<title>Node10&#45;&gt;Node7</title>
<path fill="none" stroke="midnightblue" d="M453.16,-170.45C456.64,-169.62 460.15,-168.78 463.5,-168 518.39,-155.18 581.9,-141.09 622.6,-132.15"/>
<polygon fill="midnightblue" stroke="midnightblue" points="623.41,-135.55 632.43,-129.99 621.91,-128.71 623.41,-135.55"/>
</g>
<!-- Node11 -->
<g id="node11" class="node">
<title>Node11</title>
<g id="a_node11"><a xlink:title=" ">
<polygon fill="none" stroke="#bfbfbf" points="398.5,-112.5 398.5,-131.5 454.5,-131.5 454.5,-112.5 398.5,-112.5"/>
<text text-anchor="middle" x="426.5" y="-119.5" font-family="Helvetica,sans-Serif" font-size="10.00">algorithm</text>
</a>
</g>
</g>
<!-- Node10&#45;&gt;Node11 -->
<g id="edge15" class="edge">
<title>Node10&#45;&gt;Node11</title>
<path fill="none" stroke="midnightblue" d="M426.5,-168.08C426.5,-161.01 426.5,-150.86 426.5,-141.99"/>
<polygon fill="midnightblue" stroke="midnightblue" points="430,-141.75 426.5,-131.75 423,-141.75 430,-141.75"/>
</g>
<!-- Node13 -->
<g id="node13" class="node">
<title>Node13</title>
<g id="a_node13"><a xlink:href="mxquaddraw_8h.html" target="_top" xlink:title=" ">
<polygon fill="none" stroke="black" points="0,-280.5 0,-299.5 79,-299.5 79,-280.5 0,-280.5"/>
<text text-anchor="middle" x="39.5" y="-287.5" font-family="Helvetica,sans-Serif" font-size="10.00">mxquaddraw.h</text>
</a>
</g>
</g>
<!-- Node12&#45;&gt;Node13 -->
<g id="edge18" class="edge">
<title>Node12&#45;&gt;Node13</title>
<path fill="none" stroke="midnightblue" d="M124.27,-336.32C108.15,-327.7 83.2,-314.36 64.54,-304.39"/>
<polygon fill="midnightblue" stroke="midnightblue" points="66.16,-301.28 55.69,-299.65 62.86,-307.46 66.16,-301.28"/>
</g>
<!-- Node16 -->
<g id="node16" class="node">
<title>Node16</title>
<g id="a_node16"><a xlink:href="mxthemeicons_8h.html" target="_top" xlink:title=" ">
<polygon fill="none" stroke="black" points="97,-280.5 97,-299.5 184,-299.5 184,-280.5 97,-280.5"/>
<text text-anchor="middle" x="140.5" y="-287.5" font-family="Helvetica,sans-Serif" font-size="10.00">mxthemeicons.h</text>
</a>
</g>
</g>
<!-- Node12&#45;&gt;Node16 -->
<g id="edge24" class="edge">
<title>Node12&#45;&gt;Node16</title>
<path fill="none" stroke="midnightblue" d="M140.5,-336.08C140.5,-329.01 140.5,-318.86 140.5,-309.99"/>
<polygon fill="midnightblue" stroke="midnightblue" points="144,-309.75 140.5,-299.75 137,-309.75 144,-309.75"/>
</g>
<!-- Node13&#45;&gt;Node10 -->
<g id="edge23" class="edge">
<title>Node13&#45;&gt;Node10</title>
<path fill="none" stroke="midnightblue" d="M48.67,-280.36C64.44,-266.07 98.3,-237.7 132.5,-224 220.09,-188.92 332.42,-180.99 389.55,-179.33"/>
<polygon fill="midnightblue" stroke="midnightblue" points="389.98,-182.82 399.89,-179.08 389.81,-175.82 389.98,-182.82"/>
</g>
<!-- Node14 -->
<g id="node14" class="node">
<title>Node14</title>
<g id="a_node14"><a xlink:href="gpubuffer_8h.html" target="_top" xlink:title=" ">
<polygon fill="none" stroke="black" points="141.5,-224.5 141.5,-243.5 205.5,-243.5 205.5,-224.5 141.5,-224.5"/>
<text text-anchor="middle" x="173.5" y="-231.5" font-family="Helvetica,sans-Serif" font-size="10.00">gpubuffer.h</text>
</a>
</g>
</g>
<!-- Node13&#45;&gt;Node14 -->
<g id="edge19" class="edge">
<title>Node13&#45;&gt;Node14</title>
<path fill="none" stroke="midnightblue" d="M60.73,-280.44C82.88,-271.52 117.82,-257.44 142.94,-247.32"/>
<polygon fill="midnightblue" stroke="midnightblue" points="144.4,-250.5 152.37,-243.52 141.78,-244.01 144.4,-250.5"/>
</g>
<!-- Node15 -->
<g id="node15" class="node">
<title>Node15</title>
<g id="a_node15"><a xlink:href="gpuvbo_8h.html" target="_top" xlink:title=" ">
<polygon fill="none" stroke="black" points="128.5,-168.5 128.5,-187.5 184.5,-187.5 184.5,-168.5 128.5,-168.5"/>
<text text-anchor="middle" x="156.5" y="-175.5" font-family="Helvetica,sans-Serif" font-size="10.00">gpuvbo.h</text>
</a>
</g>
</g>
<!-- Node14&#45;&gt;Node15 -->
<g id="edge20" class="edge">
<title>Node14&#45;&gt;Node15</title>
<path fill="none" stroke="midnightblue" d="M170.69,-224.08C168.42,-216.85 165.13,-206.41 162.29,-197.4"/>
<polygon fill="midnightblue" stroke="midnightblue" points="165.6,-196.24 159.25,-187.75 158.92,-198.34 165.6,-196.24"/>
</g>
<!-- Node15&#45;&gt;Node8 -->
<g id="edge21" class="edge">
<title>Node15&#45;&gt;Node8</title>
<path fill="none" stroke="midnightblue" d="M160.96,-168.45C167.95,-155.48 182.37,-130.38 198.5,-112 208.2,-100.94 220.68,-90.21 231.09,-82.01"/>
<polygon fill="midnightblue" stroke="midnightblue" points="233.44,-84.62 239.24,-75.76 229.18,-79.06 233.44,-84.62"/>
</g>
<!-- Node15&#45;&gt;Node9 -->
<g id="edge22" class="edge">
<title>Node15&#45;&gt;Node9</title>
<path fill="none" stroke="midnightblue" d="M177.89,-168.44C200.21,-159.52 235.4,-145.44 260.71,-135.32"/>
<polygon fill="midnightblue" stroke="midnightblue" points="262.22,-138.48 270.21,-131.52 259.62,-131.98 262.22,-138.48"/>
</g>
<!-- Node17&#45;&gt;Node2 -->
<g id="edge47" class="edge">
<title>Node17&#45;&gt;Node2</title>
<path fill="none" stroke="midnightblue" d="M467.05,-392.34C463.92,-370.41 459,-312.17 488.5,-280 504.75,-262.28 564.07,-249.7 609.4,-242.43"/>
<polygon fill="midnightblue" stroke="midnightblue" points="610.08,-245.87 619.42,-240.87 609,-238.95 610.08,-245.87"/>
</g>
<!-- Node17&#45;&gt;Node14 -->
<g id="edge46" class="edge">
<title>Node17&#45;&gt;Node14</title>
<path fill="none" stroke="midnightblue" d="M432.17,-395.86C397.36,-389.88 344.12,-377.89 302.5,-356 252.2,-329.55 207.21,-278.1 186.14,-251.62"/>
<polygon fill="midnightblue" stroke="midnightblue" points="188.84,-249.41 179.93,-243.67 183.33,-253.71 188.84,-249.41"/>
</g>
<!-- Node18 -->
<g id="node18" class="node">
<title>Node18</title>
<g id="a_node18"><a xlink:href="mxopenglfunctions_8h.html" target="_top" xlink:title=" ">
<polygon fill="none" stroke="black" points="760,-336.5 760,-355.5 865,-355.5 865,-336.5 760,-336.5"/>
<text text-anchor="middle" x="812.5" y="-343.5" font-family="Helvetica,sans-Serif" font-size="10.00">mxopenglfunctions.h</text>
</a>
</g>
</g>
<!-- Node17&#45;&gt;Node18 -->
<g id="edge26" class="edge">
<title>Node17&#45;&gt;Node18</title>
<path fill="none" stroke="midnightblue" d="M504.66,-395.32C562.78,-386.2 677.72,-368.16 749.52,-356.89"/>
<polygon fill="midnightblue" stroke="midnightblue" points="750.46,-360.28 759.79,-355.27 749.37,-353.37 750.46,-360.28"/>
</g>
<!-- Node20 -->
<g id="node20" class="node">
<title>Node20</title>
<g id="a_node20"><a xlink:href="mxcolorwheelprogram_8h.html" target="_top" xlink:title=" ">
<polygon fill="none" stroke="black" points="279,-224.5 279,-243.5 398,-243.5 398,-224.5 279,-224.5"/>
<text text-anchor="middle" x="338.5" y="-231.5" font-family="Helvetica,sans-Serif" font-size="10.00">mxcolorwheelprogram.h</text>
</a>
</g>
</g>
<!-- Node17&#45;&gt;Node20 -->
<g id="edge28" class="edge">
<title>Node17&#45;&gt;Node20</title>
<path fill="none" stroke="midnightblue" d="M432.43,-394.38C393.68,-386.54 335.63,-372.46 320.5,-356 297.36,-330.82 298.59,-312.73 308.5,-280 311.62,-269.7 317.95,-259.61 324,-251.6"/>
<polygon fill="midnightblue" stroke="midnightblue" points="326.73,-253.8 330.29,-243.82 321.28,-249.4 326.73,-253.8"/>
</g>
<!-- Node21 -->
<g id="node21" class="node">
<title>Node21</title>
<g id="a_node21"><a xlink:href="mxvectorprogram_8h.html" target="_top" xlink:title=" ">
<polygon fill="none" stroke="black" points="329,-336.5 329,-355.5 428,-355.5 428,-336.5 329,-336.5"/>
<text text-anchor="middle" x="378.5" y="-343.5" font-family="Helvetica,sans-Serif" font-size="10.00">mxvectorprogram.h</text>
</a>
</g>
</g>
<!-- Node17&#45;&gt;Node21 -->
<g id="edge34" class="edge">
<title>Node17&#45;&gt;Node21</title>
<path fill="none" stroke="midnightblue" d="M454.04,-392.32C440,-383.9 418.45,-370.97 401.96,-361.07"/>
<polygon fill="midnightblue" stroke="midnightblue" points="403.3,-357.8 392.92,-355.65 399.7,-363.8 403.3,-357.8"/>
</g>
<!-- Node23 -->
<g id="node23" class="node">
<title>Node23</title>
<g id="a_node23"><a xlink:href="mxlist_8h.html" target="_top" xlink:title=" ">
<polygon fill="none" stroke="black" points="591.5,-336.5 591.5,-355.5 641.5,-355.5 641.5,-336.5 591.5,-336.5"/>
<text text-anchor="middle" x="616.5" y="-343.5" font-family="Helvetica,sans-Serif" font-size="10.00">mxlist.h</text>
</a>
</g>
</g>
<!-- Node17&#45;&gt;Node23 -->
<g id="edge40" class="edge">
<title>Node17&#45;&gt;Node23</title>
<path fill="none" stroke="midnightblue" d="M491.95,-392.44C516.63,-383.44 555.69,-369.19 583.48,-359.05"/>
<polygon fill="midnightblue" stroke="midnightblue" points="584.96,-362.23 593.16,-355.52 582.56,-355.66 584.96,-362.23"/>
</g>
<!-- Node19 -->
<g id="node19" class="node">
<title>Node19</title>
<g id="a_node19"><a xlink:title=" ">
<polygon fill="none" stroke="#bfbfbf" points="819,-280.5 819,-299.5 944,-299.5 944,-280.5 819,-280.5"/>
<text text-anchor="middle" x="881.5" y="-287.5" font-family="Helvetica,sans-Serif" font-size="10.00">QOpenGLExtraFunctions</text>
</a>
</g>
</g>
<!-- Node18&#45;&gt;Node19 -->
<g id="edge27" class="edge">
<title>Node18&#45;&gt;Node19</title>
<path fill="none" stroke="midnightblue" d="M823.59,-336.32C833.99,-328.18 849.76,-315.84 862.22,-306.09"/>
<polygon fill="midnightblue" stroke="midnightblue" points="864.49,-308.75 870.21,-299.83 860.18,-303.24 864.49,-308.75"/>
</g>
<!-- Node20&#45;&gt;Node3 -->
<g id="edge29" class="edge">
<title>Node20&#45;&gt;Node3</title>
<path fill="none" stroke="midnightblue" d="M339.49,-224.44C342.52,-202.25 353.76,-142.46 389.5,-112 429.33,-78.05 490.75,-68.92 531.52,-66.87"/>
<polygon fill="midnightblue" stroke="midnightblue" points="531.81,-70.36 541.67,-66.49 531.55,-63.37 531.81,-70.36"/>
</g>
<!-- Node20&#45;&gt;Node5 -->
<g id="edge32" class="edge">
<title>Node20&#45;&gt;Node5</title>
<path fill="none" stroke="midnightblue" d="M364.64,-224.44C392.52,-215.32 436.85,-200.81 467.9,-190.65"/>
<polygon fill="midnightblue" stroke="midnightblue" points="469.06,-193.95 477.48,-187.52 466.88,-187.3 469.06,-193.95"/>
</g>
<!-- Node20&#45;&gt;Node8 -->
<g id="edge30" class="edge">
<title>Node20&#45;&gt;Node8</title>
<path fill="none" stroke="midnightblue" d="M323.63,-224.47C299.15,-209.45 251.22,-175.69 232.5,-132 225.79,-116.35 232.76,-97.6 240.07,-84.27"/>
<polygon fill="midnightblue" stroke="midnightblue" points="243.11,-86.01 245.27,-75.64 237.11,-82.4 243.11,-86.01"/>
</g>
<!-- Node20&#45;&gt;Node9 -->
<g id="edge31" class="edge">
<title>Node20&#45;&gt;Node9</title>
<path fill="none" stroke="midnightblue" d="M334.81,-224.37C327.16,-206.46 309.41,-164.92 299.17,-140.95"/>
<polygon fill="midnightblue" stroke="midnightblue" points="302.32,-139.41 295.17,-131.59 295.88,-142.16 302.32,-139.41"/>
</g>
<!-- Node20&#45;&gt;Node10 -->
<g id="edge33" class="edge">
<title>Node20&#45;&gt;Node10</title>
<path fill="none" stroke="midnightblue" d="M352.64,-224.32C366.37,-215.9 387.44,-202.97 403.56,-193.07"/>
<polygon fill="midnightblue" stroke="midnightblue" points="405.7,-195.87 412.4,-187.65 402.04,-189.9 405.7,-195.87"/>
</g>
<!-- Node21&#45;&gt;Node5 -->
<g id="edge36" class="edge">
<title>Node21&#45;&gt;Node5</title>
<path fill="none" stroke="midnightblue" d="M385.22,-336.08C405.24,-309.49 464.69,-230.54 490.88,-195.76"/>
<polygon fill="midnightblue" stroke="midnightblue" points="493.83,-197.66 497.05,-187.57 488.24,-193.45 493.83,-197.66"/>
</g>
<!-- Node21&#45;&gt;Node9 -->
<g id="edge35" class="edge">
<title>Node21&#45;&gt;Node9</title>
<path fill="none" stroke="midnightblue" d="M361.01,-336.35C345.95,-328.32 324.22,-315.33 308.5,-300 286.97,-279 279.33,-272.75 270.5,-244 259.54,-208.32 273.39,-164.84 283.25,-140.93"/>
<polygon fill="midnightblue" stroke="midnightblue" points="286.49,-142.25 287.27,-131.68 280.07,-139.46 286.49,-142.25"/>
</g>
<!-- Node22 -->
<g id="node22" class="node">
<title>Node22</title>
<g id="a_node22"><a xlink:href="mxvectordraw_8h.html" target="_top" xlink:title=" ">
<polygon fill="none" stroke="black" points="317,-280.5 317,-299.5 402,-299.5 402,-280.5 317,-280.5"/>
<text text-anchor="middle" x="359.5" y="-287.5" font-family="Helvetica,sans-Serif" font-size="10.00">mxvectordraw.h</text>
</a>
</g>
</g>
<!-- Node21&#45;&gt;Node22 -->
<g id="edge37" class="edge">
<title>Node21&#45;&gt;Node22</title>
<path fill="none" stroke="midnightblue" d="M375.36,-336.08C372.82,-328.85 369.14,-318.41 365.97,-309.4"/>
<polygon fill="midnightblue" stroke="midnightblue" points="369.2,-308.02 362.58,-299.75 362.6,-310.35 369.2,-308.02"/>
</g>
<!-- Node22&#45;&gt;Node10 -->
<g id="edge39" class="edge">
<title>Node22&#45;&gt;Node10</title>
<path fill="none" stroke="midnightblue" d="M371.9,-280.4C382.79,-272.23 398.29,-258.99 407.5,-244 416.25,-229.76 421.14,-211.28 423.76,-197.67"/>
<polygon fill="midnightblue" stroke="midnightblue" points="427.25,-198.03 425.46,-187.58 420.35,-196.86 427.25,-198.03"/>
</g>
<!-- Node22&#45;&gt;Node14 -->
<g id="edge38" class="edge">
<title>Node22&#45;&gt;Node14</title>
<path fill="none" stroke="midnightblue" d="M330.03,-280.44C298.33,-271.24 247.77,-256.56 212.73,-246.39"/>
<polygon fill="midnightblue" stroke="midnightblue" points="213.41,-242.94 202.83,-243.52 211.46,-249.67 213.41,-242.94"/>
</g>
<!-- Node23&#45;&gt;Node3 -->
<g id="edge41" class="edge">
<title>Node23&#45;&gt;Node3</title>
<path fill="none" stroke="midnightblue" d="M641.64,-344.8C675.74,-343.14 736.4,-335.04 771.5,-300 792.8,-278.74 790.5,-265.1 790.5,-235 790.5,-235 790.5,-235 790.5,-177 790.5,-99.18 678.1,-76.4 615.09,-69.74"/>
<polygon fill="midnightblue" stroke="midnightblue" points="615.34,-66.25 605.05,-68.77 614.67,-73.22 615.34,-66.25"/>
</g>
<!-- Node24 -->
<g id="node24" class="node">
<title>Node24</title>
<g id="a_node24"><a xlink:href="mxrefcounter_8h.html" target="_top" xlink:title=" ">
<polygon fill="none" stroke="black" points="682.5,-280.5 682.5,-299.5 762.5,-299.5 762.5,-280.5 682.5,-280.5"/>
<text text-anchor="middle" x="722.5" y="-287.5" font-family="Helvetica,sans-Serif" font-size="10.00">mxrefcounter.h</text>
</a>
</g>
</g>
<!-- Node23&#45;&gt;Node24 -->
<g id="edge42" class="edge">
<title>Node23&#45;&gt;Node24</title>
<path fill="none" stroke="midnightblue" d="M633.53,-336.32C650.53,-327.66 676.88,-314.24 696.49,-304.25"/>
<polygon fill="midnightblue" stroke="midnightblue" points="698.19,-307.31 705.51,-299.65 695.01,-301.08 698.19,-307.31"/>
</g>
<!-- Node25 -->
<g id="node25" class="node">
<title>Node25</title>
<g id="a_node25"><a xlink:title=" ">
<polygon fill="none" stroke="#bfbfbf" points="497,-280.5 497,-299.5 544,-299.5 544,-280.5 497,-280.5"/>
<text text-anchor="middle" x="520.5" y="-287.5" font-family="Helvetica,sans-Serif" font-size="10.00">stdlib.h</text>
</a>
</g>
</g>
<!-- Node23&#45;&gt;Node25 -->
<g id="edge43" class="edge">
<title>Node23&#45;&gt;Node25</title>
<path fill="none" stroke="midnightblue" d="M601.08,-336.32C585.96,-327.82 562.68,-314.73 545.03,-304.8"/>
<polygon fill="midnightblue" stroke="midnightblue" points="546.32,-301.51 535.89,-299.65 542.89,-307.61 546.32,-301.51"/>
</g>
<!-- Node26 -->
<g id="node26" class="node">
<title>Node26</title>
<g id="a_node26"><a xlink:title=" ">
<polygon fill="none" stroke="#bfbfbf" points="562.5,-280.5 562.5,-299.5 610.5,-299.5 610.5,-280.5 562.5,-280.5"/>
<text text-anchor="middle" x="586.5" y="-287.5" font-family="Helvetica,sans-Serif" font-size="10.00">string.h</text>
</a>
</g>
</g>
<!-- Node23&#45;&gt;Node26 -->
<g id="edge44" class="edge">
<title>Node23&#45;&gt;Node26</title>
<path fill="none" stroke="midnightblue" d="M611.55,-336.08C607.4,-328.61 601.35,-317.72 596.23,-308.52"/>
<polygon fill="midnightblue" stroke="midnightblue" points="599.28,-306.79 591.36,-299.75 593.16,-310.19 599.28,-306.79"/>
</g>
<!-- Node27 -->
<g id="node27" class="node">
<title>Node27</title>
<g id="a_node27"><a xlink:title=" ">
<polygon fill="none" stroke="#bfbfbf" points="629,-280.5 629,-299.5 664,-299.5 664,-280.5 629,-280.5"/>
<text text-anchor="middle" x="646.5" y="-287.5" font-family="Helvetica,sans-Serif" font-size="10.00">new</text>
</a>
</g>
</g>
<!-- Node23&#45;&gt;Node27 -->
<g id="edge45" class="edge">
<title>Node23&#45;&gt;Node27</title>
<path fill="none" stroke="midnightblue" d="M621.45,-336.08C625.6,-328.61 631.65,-317.72 636.77,-308.52"/>
<polygon fill="midnightblue" stroke="midnightblue" points="639.84,-310.19 641.64,-299.75 633.72,-306.79 639.84,-310.19"/>
</g>
</g>
</svg>
