<?xml version="1.0" encoding="UTF-8" standalone="no"?>
<!DOCTYPE svg PUBLIC "-//W3C//DTD SVG 1.1//EN"
 "http://www.w3.org/Graphics/SVG/1.1/DTD/svg11.dtd">
<!-- Generated by graphviz version 2.44.0 ()
 -->
<!-- Title: src/iconatlas/mxiconatlas.h Pages: 1 -->
<svg width="814pt" height="252pt"
 viewBox="0.00 0.00 814.00 252.00" xmlns="http://www.w3.org/2000/svg" xmlns:xlink="http://www.w3.org/1999/xlink">
<g id="graph0" class="graph" transform="scale(1 1) rotate(0) translate(4 248)">
<title>src/iconatlas/mxiconatlas.h</title>
<!-- Node1 -->
<g id="node1" class="node">
<title>Node1</title>
<g id="a_node1"><a xlink:title=" ">
<polygon fill="#bfbfbf" stroke="black" points="278.5,-224.5 278.5,-243.5 412.5,-243.5 412.5,-224.5 278.5,-224.5"/>
<text text-anchor="middle" x="345.5" y="-231.5" font-family="Helvetica,sans-Serif" font-size="10.00">src/iconatlas/mxiconatlas.h</text>
</a>
</g>
</g>
<!-- Node2 -->
<g id="node2" class="node">
<title>Node2</title>
<g id="a_node2"><a xlink:href="mxabstractatlas_8h.html" target="_top" xlink:title=" ">
<polygon fill="none" stroke="black" points="58,-168.5 58,-187.5 151,-187.5 151,-168.5 58,-168.5"/>
<text text-anchor="middle" x="104.5" y="-175.5" font-family="Helvetica,sans-Serif" font-size="10.00">mxabstractatlas.h</text>
</a>
</g>
</g>
<!-- Node1&#45;&gt;Node2 -->
<g id="edge1" class="edge">
<title>Node1&#45;&gt;Node2</title>
<path fill="none" stroke="midnightblue" d="M307.31,-224.44C265.36,-215.04 197.91,-199.93 152.43,-189.74"/>
<polygon fill="midnightblue" stroke="midnightblue" points="153.03,-186.29 142.51,-187.52 151.5,-193.12 153.03,-186.29"/>
</g>
<!-- Node9 -->
<g id="node9" class="node">
<title>Node9</title>
<g id="a_node9"><a xlink:href="mxlist_8h.html" target="_top" xlink:title=" ">
<polygon fill="none" stroke="black" points="599.5,-112.5 599.5,-131.5 649.5,-131.5 649.5,-112.5 599.5,-112.5"/>
<text text-anchor="middle" x="624.5" y="-119.5" font-family="Helvetica,sans-Serif" font-size="10.00">mxlist.h</text>
</a>
</g>
</g>
<!-- Node1&#45;&gt;Node9 -->
<g id="edge10" class="edge">
<title>Node1&#45;&gt;Node9</title>
<path fill="none" stroke="midnightblue" d="M353.96,-224.37C368.21,-210.35 398.51,-182.69 429.5,-168 481.95,-143.13 548.99,-131.56 589.24,-126.52"/>
<polygon fill="midnightblue" stroke="midnightblue" points="589.84,-129.97 599.36,-125.32 589.02,-123.02 589.84,-129.97"/>
</g>
<!-- Node14 -->
<g id="node14" class="node">
<title>Node14</title>
<g id="a_node14"><a xlink:href="mxrenderer_8h.html" target="_top" xlink:title=" ">
<polygon fill="none" stroke="black" points="309.5,-168.5 309.5,-187.5 381.5,-187.5 381.5,-168.5 309.5,-168.5"/>
<text text-anchor="middle" x="345.5" y="-175.5" font-family="Helvetica,sans-Serif" font-size="10.00">mxrenderer.h</text>
</a>
</g>
</g>
<!-- Node1&#45;&gt;Node14 -->
<g id="edge16" class="edge">
<title>Node1&#45;&gt;Node14</title>
<path fill="none" stroke="midnightblue" d="M345.5,-224.08C345.5,-217.01 345.5,-206.86 345.5,-197.99"/>
<polygon fill="midnightblue" stroke="midnightblue" points="349,-197.75 345.5,-187.75 342,-197.75 349,-197.75"/>
</g>
<!-- Node20 -->
<g id="node20" class="node">
<title>Node20</title>
<g id="a_node20"><a xlink:href="mximage_8h.html" target="_top" xlink:title=" ">
<polygon fill="none" stroke="black" points="208,-168.5 208,-187.5 271,-187.5 271,-168.5 208,-168.5"/>
<text text-anchor="middle" x="239.5" y="-175.5" font-family="Helvetica,sans-Serif" font-size="10.00">mximage.h</text>
</a>
</g>
</g>
<!-- Node1&#45;&gt;Node20 -->
<g id="edge27" class="edge">
<title>Node1&#45;&gt;Node20</title>
<path fill="none" stroke="midnightblue" d="M328.47,-224.32C311.47,-215.66 285.12,-202.24 265.51,-192.25"/>
<polygon fill="midnightblue" stroke="midnightblue" points="266.99,-189.08 256.49,-187.65 263.81,-195.31 266.99,-189.08"/>
</g>
<!-- Node21 -->
<g id="node21" class="node">
<title>Node21</title>
<g id="a_node21"><a xlink:href="mxthemeicons_8h.html" target="_top" xlink:title=" ">
<polygon fill="none" stroke="black" points="438,-168.5 438,-187.5 525,-187.5 525,-168.5 438,-168.5"/>
<text text-anchor="middle" x="481.5" y="-175.5" font-family="Helvetica,sans-Serif" font-size="10.00">mxthemeicons.h</text>
</a>
</g>
</g>
<!-- Node1&#45;&gt;Node21 -->
<g id="edge29" class="edge">
<title>Node1&#45;&gt;Node21</title>
<path fill="none" stroke="midnightblue" d="M367.05,-224.44C389.53,-215.52 424.99,-201.44 450.48,-191.32"/>
<polygon fill="midnightblue" stroke="midnightblue" points="452.05,-194.46 460.05,-187.52 449.47,-187.95 452.05,-194.46"/>
</g>
<!-- Node3 -->
<g id="node3" class="node">
<title>Node3</title>
<g id="a_node3"><a xlink:href="mxrect_8h.html" target="_top" xlink:title=" ">
<polygon fill="none" stroke="black" points="0,-112.5 0,-131.5 53,-131.5 53,-112.5 0,-112.5"/>
<text text-anchor="middle" x="26.5" y="-119.5" font-family="Helvetica,sans-Serif" font-size="10.00">mxrect.h</text>
</a>
</g>
</g>
<!-- Node2&#45;&gt;Node3 -->
<g id="edge2" class="edge">
<title>Node2&#45;&gt;Node3</title>
<path fill="none" stroke="midnightblue" d="M91.97,-168.32C79.91,-159.98 61.47,-147.21 47.23,-137.35"/>
<polygon fill="midnightblue" stroke="midnightblue" points="49.22,-134.47 39,-131.65 45.23,-140.22 49.22,-134.47"/>
</g>
<!-- Node7 -->
<g id="node7" class="node">
<title>Node7</title>
<g id="a_node7"><a xlink:href="mxtexture_8h.html" target="_top" xlink:title=" ">
<polygon fill="none" stroke="black" points="71.5,-112.5 71.5,-131.5 137.5,-131.5 137.5,-112.5 71.5,-112.5"/>
<text text-anchor="middle" x="104.5" y="-119.5" font-family="Helvetica,sans-Serif" font-size="10.00">mxtexture.h</text>
</a>
</g>
</g>
<!-- Node2&#45;&gt;Node7 -->
<g id="edge7" class="edge">
<title>Node2&#45;&gt;Node7</title>
<path fill="none" stroke="midnightblue" d="M104.5,-168.08C104.5,-161.01 104.5,-150.86 104.5,-141.99"/>
<polygon fill="midnightblue" stroke="midnightblue" points="108,-141.75 104.5,-131.75 101,-141.75 108,-141.75"/>
</g>
<!-- Node4 -->
<g id="node4" class="node">
<title>Node4</title>
<g id="a_node4"><a xlink:title=" ">
<polygon fill="none" stroke="#bfbfbf" points="164,-0.5 164,-19.5 227,-19.5 227,-0.5 164,-0.5"/>
<text text-anchor="middle" x="195.5" y="-7.5" font-family="Helvetica,sans-Serif" font-size="10.00">mxdebug.h</text>
</a>
</g>
</g>
<!-- Node3&#45;&gt;Node4 -->
<g id="edge3" class="edge">
<title>Node3&#45;&gt;Node4</title>
<path fill="none" stroke="midnightblue" d="M20.69,-112.43C12.36,-98.98 -0.6,-72.72 12.5,-56 29.71,-34.05 105.16,-21.38 153.65,-15.36"/>
<polygon fill="midnightblue" stroke="midnightblue" points="154.34,-18.8 163.85,-14.14 153.51,-11.85 154.34,-18.8"/>
</g>
<!-- Node5 -->
<g id="node5" class="node">
<title>Node5</title>
<g id="a_node5"><a xlink:href="mxvector_8h.html" target="_top" xlink:title=" ">
<polygon fill="none" stroke="black" points="133.5,-56.5 133.5,-75.5 197.5,-75.5 197.5,-56.5 133.5,-56.5"/>
<text text-anchor="middle" x="165.5" y="-63.5" font-family="Helvetica,sans-Serif" font-size="10.00">mxvector.h</text>
</a>
</g>
</g>
<!-- Node3&#45;&gt;Node5 -->
<g id="edge4" class="edge">
<title>Node3&#45;&gt;Node5</title>
<path fill="none" stroke="midnightblue" d="M48.52,-112.44C71.6,-103.48 108.06,-89.31 134.14,-79.18"/>
<polygon fill="midnightblue" stroke="midnightblue" points="135.52,-82.4 143.58,-75.52 132.99,-75.88 135.52,-82.4"/>
</g>
<!-- Node6 -->
<g id="node6" class="node">
<title>Node6</title>
<g id="a_node6"><a xlink:title=" ">
<polygon fill="none" stroke="#bfbfbf" points="21.5,-56.5 21.5,-75.5 77.5,-75.5 77.5,-56.5 21.5,-56.5"/>
<text text-anchor="middle" x="49.5" y="-63.5" font-family="Helvetica,sans-Serif" font-size="10.00">algorithm</text>
</a>
</g>
</g>
<!-- Node3&#45;&gt;Node6 -->
<g id="edge6" class="edge">
<title>Node3&#45;&gt;Node6</title>
<path fill="none" stroke="midnightblue" d="M30.3,-112.08C33.41,-104.77 37.92,-94.18 41.79,-85.1"/>
<polygon fill="midnightblue" stroke="midnightblue" points="45.07,-86.32 45.77,-75.75 38.63,-83.58 45.07,-86.32"/>
</g>
<!-- Node5&#45;&gt;Node4 -->
<g id="edge5" class="edge">
<title>Node5&#45;&gt;Node4</title>
<path fill="none" stroke="midnightblue" d="M170.45,-56.08C174.6,-48.61 180.65,-37.72 185.77,-28.52"/>
<polygon fill="midnightblue" stroke="midnightblue" points="188.84,-30.19 190.64,-19.75 182.72,-26.79 188.84,-30.19"/>
</g>
<!-- Node7&#45;&gt;Node5 -->
<g id="edge8" class="edge">
<title>Node7&#45;&gt;Node5</title>
<path fill="none" stroke="midnightblue" d="M114.3,-112.32C123.32,-104.34 136.91,-92.31 147.82,-82.65"/>
<polygon fill="midnightblue" stroke="midnightblue" points="150.35,-85.08 155.52,-75.83 145.71,-79.84 150.35,-85.08"/>
</g>
<!-- Node8 -->
<g id="node8" class="node">
<title>Node8</title>
<g id="a_node8"><a xlink:title=" ">
<polygon fill="none" stroke="#bfbfbf" points="326,-0.5 326,-19.5 391,-19.5 391,-0.5 326,-0.5"/>
<text text-anchor="middle" x="358.5" y="-7.5" font-family="Helvetica,sans-Serif" font-size="10.00">mxopengl.h</text>
</a>
</g>
</g>
<!-- Node7&#45;&gt;Node8 -->
<g id="edge9" class="edge">
<title>Node7&#45;&gt;Node8</title>
<path fill="none" stroke="midnightblue" d="M104.5,-112.37C105,-98.33 108.15,-70.66 124.5,-56 152.1,-31.24 255.76,-19.09 315.44,-14.03"/>
<polygon fill="midnightblue" stroke="midnightblue" points="316.01,-17.5 325.69,-13.2 315.44,-10.52 316.01,-17.5"/>
</g>
<!-- Node9&#45;&gt;Node4 -->
<g id="edge11" class="edge">
<title>Node9&#45;&gt;Node4</title>
<path fill="none" stroke="midnightblue" d="M649.66,-115.08C686.75,-105.25 749.09,-83.86 723.5,-56 719.39,-51.52 361.4,-23.71 237.3,-14.19"/>
<polygon fill="midnightblue" stroke="midnightblue" points="237.29,-10.68 227.06,-13.4 236.76,-17.66 237.29,-10.68"/>
</g>
<!-- Node10 -->
<g id="node10" class="node">
<title>Node10</title>
<g id="a_node10"><a xlink:href="mxrefcounter_8h.html" target="_top" xlink:title=" ">
<polygon fill="none" stroke="black" points="502.5,-56.5 502.5,-75.5 582.5,-75.5 582.5,-56.5 502.5,-56.5"/>
<text text-anchor="middle" x="542.5" y="-63.5" font-family="Helvetica,sans-Serif" font-size="10.00">mxrefcounter.h</text>
</a>
</g>
</g>
<!-- Node9&#45;&gt;Node10 -->
<g id="edge12" class="edge">
<title>Node9&#45;&gt;Node10</title>
<path fill="none" stroke="midnightblue" d="M611.33,-112.32C598.65,-103.98 579.27,-91.21 564.29,-81.35"/>
<polygon fill="midnightblue" stroke="midnightblue" points="565.92,-78.23 555.64,-75.65 562.07,-84.08 565.92,-78.23"/>
</g>
<!-- Node11 -->
<g id="node11" class="node">
<title>Node11</title>
<g id="a_node11"><a xlink:title=" ">
<polygon fill="none" stroke="#bfbfbf" points="601,-56.5 601,-75.5 648,-75.5 648,-56.5 601,-56.5"/>
<text text-anchor="middle" x="624.5" y="-63.5" font-family="Helvetica,sans-Serif" font-size="10.00">stdlib.h</text>
</a>
</g>
</g>
<!-- Node9&#45;&gt;Node11 -->
<g id="edge13" class="edge">
<title>Node9&#45;&gt;Node11</title>
<path fill="none" stroke="midnightblue" d="M624.5,-112.08C624.5,-105.01 624.5,-94.86 624.5,-85.99"/>
<polygon fill="midnightblue" stroke="midnightblue" points="628,-85.75 624.5,-75.75 621,-85.75 628,-85.75"/>
</g>
<!-- Node12 -->
<g id="node12" class="node">
<title>Node12</title>
<g id="a_node12"><a xlink:title=" ">
<polygon fill="none" stroke="#bfbfbf" points="666.5,-56.5 666.5,-75.5 714.5,-75.5 714.5,-56.5 666.5,-56.5"/>
<text text-anchor="middle" x="690.5" y="-63.5" font-family="Helvetica,sans-Serif" font-size="10.00">string.h</text>
</a>
</g>
</g>
<!-- Node9&#45;&gt;Node12 -->
<g id="edge14" class="edge">
<title>Node9&#45;&gt;Node12</title>
<path fill="none" stroke="midnightblue" d="M635.1,-112.32C644.96,-104.26 659.85,-92.08 671.72,-82.37"/>
<polygon fill="midnightblue" stroke="midnightblue" points="674.18,-84.88 679.7,-75.83 669.75,-79.46 674.18,-84.88"/>
</g>
<!-- Node13 -->
<g id="node13" class="node">
<title>Node13</title>
<g id="a_node13"><a xlink:title=" ">
<polygon fill="none" stroke="#bfbfbf" points="771,-56.5 771,-75.5 806,-75.5 806,-56.5 771,-56.5"/>
<text text-anchor="middle" x="788.5" y="-63.5" font-family="Helvetica,sans-Serif" font-size="10.00">new</text>
</a>
</g>
</g>
<!-- Node9&#45;&gt;Node13 -->
<g id="edge15" class="edge">
<title>Node9&#45;&gt;Node13</title>
<path fill="none" stroke="midnightblue" d="M649.77,-112.68C679.8,-102.79 729.74,-86.35 760.8,-76.12"/>
<polygon fill="midnightblue" stroke="midnightblue" points="762.15,-79.36 770.55,-72.91 759.96,-72.71 762.15,-79.36"/>
</g>
<!-- Node14&#45;&gt;Node5 -->
<g id="edge26" class="edge">
<title>Node14&#45;&gt;Node5</title>
<path fill="none" stroke="midnightblue" d="M309.42,-168.69C283.91,-161.66 249.72,-149.85 223.5,-132 204.63,-119.15 187.85,-98.86 177.25,-84.37"/>
<polygon fill="midnightblue" stroke="midnightblue" points="179.85,-81.97 171.22,-75.82 174.13,-86.01 179.85,-81.97"/>
</g>
<!-- Node14&#45;&gt;Node9 -->
<g id="edge17" class="edge">
<title>Node14&#45;&gt;Node9</title>
<path fill="none" stroke="midnightblue" d="M381.69,-170C435.46,-159.59 535.82,-140.16 589.12,-129.85"/>
<polygon fill="midnightblue" stroke="midnightblue" points="589.97,-133.25 599.12,-127.91 588.64,-126.38 589.97,-133.25"/>
</g>
<!-- Node15 -->
<g id="node15" class="node">
<title>Node15</title>
<g id="a_node15"><a xlink:href="mxgpuarray_8h.html" target="_top" xlink:title=" ">
<polygon fill="none" stroke="black" points="436.5,-112.5 436.5,-131.5 510.5,-131.5 510.5,-112.5 436.5,-112.5"/>
<text text-anchor="middle" x="473.5" y="-119.5" font-family="Helvetica,sans-Serif" font-size="10.00">mxgpuarray.h</text>
</a>
</g>
</g>
<!-- Node14&#45;&gt;Node15 -->
<g id="edge18" class="edge">
<title>Node14&#45;&gt;Node15</title>
<path fill="none" stroke="midnightblue" d="M365.78,-168.44C386.85,-159.56 420.02,-145.56 443.99,-135.45"/>
<polygon fill="midnightblue" stroke="midnightblue" points="445.46,-138.63 453.31,-131.52 442.74,-132.18 445.46,-138.63"/>
</g>
<!-- Node17 -->
<g id="node17" class="node">
<title>Node17</title>
<g id="a_node17"><a xlink:href="mxmatrix_8h.html" target="_top" xlink:title=" ">
<polygon fill="none" stroke="black" points="232,-112.5 232,-131.5 295,-131.5 295,-112.5 232,-112.5"/>
<text text-anchor="middle" x="263.5" y="-119.5" font-family="Helvetica,sans-Serif" font-size="10.00">mxmatrix.h</text>
</a>
</g>
</g>
<!-- Node14&#45;&gt;Node17 -->
<g id="edge21" class="edge">
<title>Node14&#45;&gt;Node17</title>
<path fill="none" stroke="midnightblue" d="M332.33,-168.32C319.65,-159.98 300.27,-147.21 285.29,-137.35"/>
<polygon fill="midnightblue" stroke="midnightblue" points="286.92,-134.23 276.64,-131.65 283.07,-140.08 286.92,-134.23"/>
</g>
<!-- Node18 -->
<g id="node18" class="node">
<title>Node18</title>
<g id="a_node18"><a xlink:href="mxopenglfunctions_8h.html" target="_top" xlink:title=" ">
<polygon fill="none" stroke="black" points="313,-112.5 313,-131.5 418,-131.5 418,-112.5 313,-112.5"/>
<text text-anchor="middle" x="365.5" y="-119.5" font-family="Helvetica,sans-Serif" font-size="10.00">mxopenglfunctions.h</text>
</a>
</g>
</g>
<!-- Node14&#45;&gt;Node18 -->
<g id="edge24" class="edge">
<title>Node14&#45;&gt;Node18</title>
<path fill="none" stroke="midnightblue" d="M348.8,-168.08C351.48,-160.85 355.35,-150.41 358.69,-141.4"/>
<polygon fill="midnightblue" stroke="midnightblue" points="362.07,-142.34 362.26,-131.75 355.5,-139.91 362.07,-142.34"/>
</g>
<!-- Node16 -->
<g id="node16" class="node">
<title>Node16</title>
<g id="a_node16"><a xlink:href="mxgpuprogram_8h.html" target="_top" xlink:title=" ">
<polygon fill="none" stroke="black" points="396.5,-56.5 396.5,-75.5 484.5,-75.5 484.5,-56.5 396.5,-56.5"/>
<text text-anchor="middle" x="440.5" y="-63.5" font-family="Helvetica,sans-Serif" font-size="10.00">mxgpuprogram.h</text>
</a>
</g>
</g>
<!-- Node15&#45;&gt;Node16 -->
<g id="edge19" class="edge">
<title>Node15&#45;&gt;Node16</title>
<path fill="none" stroke="midnightblue" d="M468.05,-112.08C463.49,-104.61 456.83,-93.72 451.21,-84.52"/>
<polygon fill="midnightblue" stroke="midnightblue" points="454.05,-82.46 445.85,-75.75 448.08,-86.11 454.05,-82.46"/>
</g>
<!-- Node16&#45;&gt;Node8 -->
<g id="edge20" class="edge">
<title>Node16&#45;&gt;Node8</title>
<path fill="none" stroke="midnightblue" d="M427.33,-56.32C414.65,-47.98 395.27,-35.21 380.29,-25.35"/>
<polygon fill="midnightblue" stroke="midnightblue" points="381.92,-22.23 371.64,-19.65 378.07,-28.08 381.92,-22.23"/>
</g>
<!-- Node17&#45;&gt;Node4 -->
<g id="edge22" class="edge">
<title>Node17&#45;&gt;Node4</title>
<path fill="none" stroke="midnightblue" d="M258.16,-112.37C246.99,-94.3 220.95,-52.18 206.2,-28.31"/>
<polygon fill="midnightblue" stroke="midnightblue" points="209.05,-26.26 200.81,-19.59 203.09,-29.94 209.05,-26.26"/>
</g>
<!-- Node17&#45;&gt;Node5 -->
<g id="edge23" class="edge">
<title>Node17&#45;&gt;Node5</title>
<path fill="none" stroke="midnightblue" d="M247.75,-112.32C232.18,-103.74 208.12,-90.49 190.04,-80.52"/>
<polygon fill="midnightblue" stroke="midnightblue" points="191.65,-77.42 181.21,-75.65 188.28,-83.55 191.65,-77.42"/>
</g>
<!-- Node19 -->
<g id="node19" class="node">
<title>Node19</title>
<g id="a_node19"><a xlink:title=" ">
<polygon fill="none" stroke="#bfbfbf" points="254,-56.5 254,-75.5 379,-75.5 379,-56.5 254,-56.5"/>
<text text-anchor="middle" x="316.5" y="-63.5" font-family="Helvetica,sans-Serif" font-size="10.00">QOpenGLExtraFunctions</text>
</a>
</g>
</g>
<!-- Node18&#45;&gt;Node19 -->
<g id="edge25" class="edge">
<title>Node18&#45;&gt;Node19</title>
<path fill="none" stroke="midnightblue" d="M357.41,-112.08C350.34,-104.3 339.91,-92.8 331.35,-83.37"/>
<polygon fill="midnightblue" stroke="midnightblue" points="333.75,-80.8 324.44,-75.75 328.57,-85.51 333.75,-80.8"/>
</g>
<!-- Node20&#45;&gt;Node5 -->
<g id="edge28" class="edge">
<title>Node20&#45;&gt;Node5</title>
<path fill="none" stroke="midnightblue" d="M226.82,-168.35C215.64,-160.15 199.59,-146.89 189.5,-132 179.8,-117.7 173.43,-98.99 169.71,-85.32"/>
<polygon fill="midnightblue" stroke="midnightblue" points="173.1,-84.46 167.28,-75.61 166.31,-86.16 173.1,-84.46"/>
</g>
</g>
</svg>
