<?xml version="1.0" encoding="UTF-8" standalone="no"?>
<!DOCTYPE svg PUBLIC "-//W3C//DTD SVG 1.1//EN"
 "http://www.w3.org/Graphics/SVG/1.1/DTD/svg11.dtd">
<!-- Generated by graphviz version 2.44.0 ()
 -->
<!-- Title: src/iconatlas/mxiconatlas.cpp Pages: 1 -->
<svg width="945pt" height="532pt"
 viewBox="0.00 0.00 944.63 532.00" xmlns="http://www.w3.org/2000/svg" xmlns:xlink="http://www.w3.org/1999/xlink">
<g id="graph0" class="graph" transform="scale(1 1) rotate(0) translate(4 528)">
<title>src/iconatlas/mxiconatlas.cpp</title>
<!-- Node1 -->
<g id="node1" class="node">
<title>Node1</title>
<g id="a_node1"><a xlink:title=" ">
<polygon fill="#bfbfbf" stroke="black" points="690.13,-504.5 690.13,-523.5 835.13,-523.5 835.13,-504.5 690.13,-504.5"/>
<text text-anchor="middle" x="762.63" y="-511.5" font-family="Helvetica,sans-Serif" font-size="10.00">src/iconatlas/mxiconatlas.cpp</text>
</a>
</g>
</g>
<!-- Node2 -->
<g id="node2" class="node">
<title>Node2</title>
<g id="a_node2"><a xlink:href="mxiconatlas_8h.html" target="_top" xlink:title=" ">
<polygon fill="none" stroke="black" points="628.63,-448.5 628.63,-467.5 704.63,-467.5 704.63,-448.5 628.63,-448.5"/>
<text text-anchor="middle" x="666.63" y="-455.5" font-family="Helvetica,sans-Serif" font-size="10.00">mxiconatlas.h</text>
</a>
</g>
</g>
<!-- Node1&#45;&gt;Node2 -->
<g id="edge1" class="edge">
<title>Node1&#45;&gt;Node2</title>
<path fill="none" stroke="midnightblue" d="M747.21,-504.32C732.09,-495.82 708.81,-482.73 691.16,-472.8"/>
<polygon fill="midnightblue" stroke="midnightblue" points="692.45,-469.51 682.02,-467.65 689.01,-475.61 692.45,-469.51"/>
</g>
<!-- Node30 -->
<g id="node30" class="node">
<title>Node30</title>
<g id="a_node30"><a xlink:href="mxmathutils_8h.html" target="_top" xlink:title=" ">
<polygon fill="none" stroke="black" points="824.13,-448.5 824.13,-467.5 901.13,-467.5 901.13,-448.5 824.13,-448.5"/>
<text text-anchor="middle" x="862.63" y="-455.5" font-family="Helvetica,sans-Serif" font-size="10.00">mxmathutils.h</text>
</a>
</g>
</g>
<!-- Node1&#45;&gt;Node30 -->
<g id="edge49" class="edge">
<title>Node1&#45;&gt;Node30</title>
<path fill="none" stroke="midnightblue" d="M778.7,-504.32C794.59,-495.74 819.14,-482.49 837.59,-472.52"/>
<polygon fill="midnightblue" stroke="midnightblue" points="839.47,-475.49 846.6,-467.65 836.14,-469.33 839.47,-475.49"/>
</g>
<!-- Node3 -->
<g id="node3" class="node">
<title>Node3</title>
<g id="a_node3"><a xlink:title=" ">
<polygon fill="none" stroke="#bfbfbf" points="728.13,-392.5 728.13,-411.5 779.13,-411.5 779.13,-392.5 728.13,-392.5"/>
<text text-anchor="middle" x="753.63" y="-399.5" font-family="Helvetica,sans-Serif" font-size="10.00">QImage</text>
</a>
</g>
</g>
<!-- Node2&#45;&gt;Node3 -->
<g id="edge2" class="edge">
<title>Node2&#45;&gt;Node3</title>
<path fill="none" stroke="midnightblue" d="M680.61,-448.32C694.18,-439.9 715.01,-426.97 730.95,-417.07"/>
<polygon fill="midnightblue" stroke="midnightblue" points="733.04,-419.9 739.69,-411.65 729.34,-413.95 733.04,-419.9"/>
</g>
<!-- Node4 -->
<g id="node4" class="node">
<title>Node4</title>
<g id="a_node4"><a xlink:href="mxabstractatlas_8h.html" target="_top" xlink:title=" ">
<polygon fill="none" stroke="black" points="629.13,-336.5 629.13,-355.5 722.13,-355.5 722.13,-336.5 629.13,-336.5"/>
<text text-anchor="middle" x="675.63" y="-343.5" font-family="Helvetica,sans-Serif" font-size="10.00">mxabstractatlas.h</text>
</a>
</g>
</g>
<!-- Node2&#45;&gt;Node4 -->
<g id="edge3" class="edge">
<title>Node2&#45;&gt;Node4</title>
<path fill="none" stroke="midnightblue" d="M650.59,-448.41C631.07,-436.74 602.06,-414.7 613.63,-392 620.63,-378.27 634,-367.75 646.53,-360.35"/>
<polygon fill="midnightblue" stroke="midnightblue" points="648.3,-363.37 655.41,-355.51 644.95,-357.22 648.3,-363.37"/>
</g>
<!-- Node10 -->
<g id="node10" class="node">
<title>Node10</title>
<g id="a_node10"><a xlink:href="mxlist_8h.html" target="_top" xlink:title=" ">
<polygon fill="none" stroke="black" points="531.63,-336.5 531.63,-355.5 581.63,-355.5 581.63,-336.5 531.63,-336.5"/>
<text text-anchor="middle" x="556.63" y="-343.5" font-family="Helvetica,sans-Serif" font-size="10.00">mxlist.h</text>
</a>
</g>
</g>
<!-- Node2&#45;&gt;Node10 -->
<g id="edge10" class="edge">
<title>Node2&#45;&gt;Node10</title>
<path fill="none" stroke="midnightblue" d="M653.2,-448.23C640.72,-439.74 621.94,-426.11 607.63,-412 592.53,-397.1 577.86,-377.73 568.16,-364.02"/>
<polygon fill="midnightblue" stroke="midnightblue" points="570.86,-361.78 562.29,-355.56 565.11,-365.77 570.86,-361.78"/>
</g>
<!-- Node15 -->
<g id="node15" class="node">
<title>Node15</title>
<g id="a_node15"><a xlink:href="mxrenderer_8h.html" target="_top" xlink:title=" ">
<polygon fill="none" stroke="black" points="203.63,-392.5 203.63,-411.5 275.63,-411.5 275.63,-392.5 203.63,-392.5"/>
<text text-anchor="middle" x="239.63" y="-399.5" font-family="Helvetica,sans-Serif" font-size="10.00">mxrenderer.h</text>
</a>
</g>
</g>
<!-- Node2&#45;&gt;Node15 -->
<g id="edge16" class="edge">
<title>Node2&#45;&gt;Node15</title>
<path fill="none" stroke="midnightblue" d="M628.36,-452.16C549.86,-442.23 370.86,-419.6 285.96,-408.86"/>
<polygon fill="midnightblue" stroke="midnightblue" points="286.2,-405.36 275.84,-407.58 285.32,-412.31 286.2,-405.36"/>
</g>
<!-- Node28 -->
<g id="node28" class="node">
<title>Node28</title>
<g id="a_node28"><a xlink:href="mximage_8h.html" target="_top" xlink:title=" ">
<polygon fill="none" stroke="black" points="771.13,-224.5 771.13,-243.5 834.13,-243.5 834.13,-224.5 771.13,-224.5"/>
<text text-anchor="middle" x="802.63" y="-231.5" font-family="Helvetica,sans-Serif" font-size="10.00">mximage.h</text>
</a>
</g>
</g>
<!-- Node2&#45;&gt;Node28 -->
<g id="edge46" class="edge">
<title>Node2&#45;&gt;Node28</title>
<path fill="none" stroke="midnightblue" d="M704.63,-453.45C732.26,-448.73 768.11,-437.7 787.63,-412 823.48,-364.8 813.96,-288.7 806.98,-253.71"/>
<polygon fill="midnightblue" stroke="midnightblue" points="810.39,-252.92 804.87,-243.88 803.55,-254.39 810.39,-252.92"/>
</g>
<!-- Node29 -->
<g id="node29" class="node">
<title>Node29</title>
<g id="a_node29"><a xlink:href="mxthemeicons_8h.html" target="_top" xlink:title=" ">
<polygon fill="none" stroke="black" points="623.13,-392.5 623.13,-411.5 710.13,-411.5 710.13,-392.5 623.13,-392.5"/>
<text text-anchor="middle" x="666.63" y="-399.5" font-family="Helvetica,sans-Serif" font-size="10.00">mxthemeicons.h</text>
</a>
</g>
</g>
<!-- Node2&#45;&gt;Node29 -->
<g id="edge48" class="edge">
<title>Node2&#45;&gt;Node29</title>
<path fill="none" stroke="midnightblue" d="M666.63,-448.08C666.63,-441.01 666.63,-430.86 666.63,-421.99"/>
<polygon fill="midnightblue" stroke="midnightblue" points="670.13,-421.75 666.63,-411.75 663.13,-421.75 670.13,-421.75"/>
</g>
<!-- Node5 -->
<g id="node5" class="node">
<title>Node5</title>
<g id="a_node5"><a xlink:href="mxrect_8h.html" target="_top" xlink:title=" ">
<polygon fill="none" stroke="black" points="489.13,-168.5 489.13,-187.5 542.13,-187.5 542.13,-168.5 489.13,-168.5"/>
<text text-anchor="middle" x="515.63" y="-175.5" font-family="Helvetica,sans-Serif" font-size="10.00">mxrect.h</text>
</a>
</g>
</g>
<!-- Node4&#45;&gt;Node5 -->
<g id="edge4" class="edge">
<title>Node4&#45;&gt;Node5</title>
<path fill="none" stroke="midnightblue" d="M680.23,-336.37C686.52,-323.29 695.91,-298.06 685.63,-280 657.08,-229.83 592.7,-202 551.87,-188.8"/>
<polygon fill="midnightblue" stroke="midnightblue" points="552.87,-185.44 542.29,-185.83 550.8,-192.13 552.87,-185.44"/>
</g>
<!-- Node6 -->
<g id="node6" class="node">
<title>Node6</title>
<g id="a_node6"><a xlink:href="mxdebug_8h.html" target="_top" xlink:title=" ">
<polygon fill="none" stroke="black" points="540.13,-56.5 540.13,-75.5 603.13,-75.5 603.13,-56.5 540.13,-56.5"/>
<text text-anchor="middle" x="571.63" y="-63.5" font-family="Helvetica,sans-Serif" font-size="10.00">mxdebug.h</text>
</a>
</g>
</g>
<!-- Node5&#45;&gt;Node6 -->
<g id="edge5" class="edge">
<title>Node5&#45;&gt;Node6</title>
<path fill="none" stroke="midnightblue" d="M524.46,-168.48C532.82,-159.96 545.16,-146.13 552.63,-132 560.36,-117.38 565.33,-99.21 568.24,-85.8"/>
<polygon fill="midnightblue" stroke="midnightblue" points="571.7,-86.33 570.21,-75.84 564.84,-84.97 571.7,-86.33"/>
</g>
<!-- Node8 -->
<g id="node8" class="node">
<title>Node8</title>
<g id="a_node8"><a xlink:href="mxvector_8h.html" target="_top" xlink:title=" ">
<polygon fill="none" stroke="black" points="599.63,-112.5 599.63,-131.5 663.63,-131.5 663.63,-112.5 599.63,-112.5"/>
<text text-anchor="middle" x="631.63" y="-119.5" font-family="Helvetica,sans-Serif" font-size="10.00">mxvector.h</text>
</a>
</g>
</g>
<!-- Node5&#45;&gt;Node8 -->
<g id="edge7" class="edge">
<title>Node5&#45;&gt;Node8</title>
<path fill="none" stroke="midnightblue" d="M534.01,-168.44C552.85,-159.68 582.36,-145.94 604.01,-135.86"/>
<polygon fill="midnightblue" stroke="midnightblue" points="605.75,-138.91 613.33,-131.52 602.79,-132.56 605.75,-138.91"/>
</g>
<!-- Node9 -->
<g id="node9" class="node">
<title>Node9</title>
<g id="a_node9"><a xlink:title=" ">
<polygon fill="none" stroke="#bfbfbf" points="487.63,-112.5 487.63,-131.5 543.63,-131.5 543.63,-112.5 487.63,-112.5"/>
<text text-anchor="middle" x="515.63" y="-119.5" font-family="Helvetica,sans-Serif" font-size="10.00">algorithm</text>
</a>
</g>
</g>
<!-- Node5&#45;&gt;Node9 -->
<g id="edge9" class="edge">
<title>Node5&#45;&gt;Node9</title>
<path fill="none" stroke="midnightblue" d="M515.63,-168.08C515.63,-161.01 515.63,-150.86 515.63,-141.99"/>
<polygon fill="midnightblue" stroke="midnightblue" points="519.13,-141.75 515.63,-131.75 512.13,-141.75 519.13,-141.75"/>
</g>
<!-- Node7 -->
<g id="node7" class="node">
<title>Node7</title>
<g id="a_node7"><a xlink:title=" ">
<polygon fill="none" stroke="#bfbfbf" points="545.63,-0.5 545.63,-19.5 597.63,-19.5 597.63,-0.5 545.63,-0.5"/>
<text text-anchor="middle" x="571.63" y="-7.5" font-family="Helvetica,sans-Serif" font-size="10.00">QDebug</text>
</a>
</g>
</g>
<!-- Node6&#45;&gt;Node7 -->
<g id="edge6" class="edge">
<title>Node6&#45;&gt;Node7</title>
<path fill="none" stroke="midnightblue" d="M571.63,-56.08C571.63,-49.01 571.63,-38.86 571.63,-29.99"/>
<polygon fill="midnightblue" stroke="midnightblue" points="575.13,-29.75 571.63,-19.75 568.13,-29.75 575.13,-29.75"/>
</g>
<!-- Node8&#45;&gt;Node6 -->
<g id="edge8" class="edge">
<title>Node8&#45;&gt;Node6</title>
<path fill="none" stroke="midnightblue" d="M621.99,-112.32C613.12,-104.34 599.75,-92.31 589.02,-82.65"/>
<polygon fill="midnightblue" stroke="midnightblue" points="591.22,-79.92 581.44,-75.83 586.54,-85.13 591.22,-79.92"/>
</g>
<!-- Node10&#45;&gt;Node6 -->
<g id="edge11" class="edge">
<title>Node10&#45;&gt;Node6</title>
<path fill="none" stroke="midnightblue" d="M581.71,-341.94C632.48,-334.21 742.63,-308.91 742.63,-235 742.63,-235 742.63,-235 742.63,-177 742.63,-115.74 664.05,-86.99 613.42,-74.82"/>
<polygon fill="midnightblue" stroke="midnightblue" points="613.92,-71.34 603.39,-72.53 612.37,-78.17 613.92,-71.34"/>
</g>
<!-- Node11 -->
<g id="node11" class="node">
<title>Node11</title>
<g id="a_node11"><a xlink:href="mxrefcounter_8h.html" target="_top" xlink:title=" ">
<polygon fill="none" stroke="black" points="596.63,-280.5 596.63,-299.5 676.63,-299.5 676.63,-280.5 596.63,-280.5"/>
<text text-anchor="middle" x="636.63" y="-287.5" font-family="Helvetica,sans-Serif" font-size="10.00">mxrefcounter.h</text>
</a>
</g>
</g>
<!-- Node10&#45;&gt;Node11 -->
<g id="edge12" class="edge">
<title>Node10&#45;&gt;Node11</title>
<path fill="none" stroke="midnightblue" d="M569.48,-336.32C581.85,-327.98 600.76,-315.21 615.37,-305.35"/>
<polygon fill="midnightblue" stroke="midnightblue" points="617.48,-308.15 623.81,-299.65 613.56,-302.35 617.48,-308.15"/>
</g>
<!-- Node12 -->
<g id="node12" class="node">
<title>Node12</title>
<g id="a_node12"><a xlink:title=" ">
<polygon fill="none" stroke="#bfbfbf" points="411.13,-280.5 411.13,-299.5 458.13,-299.5 458.13,-280.5 411.13,-280.5"/>
<text text-anchor="middle" x="434.63" y="-287.5" font-family="Helvetica,sans-Serif" font-size="10.00">stdlib.h</text>
</a>
</g>
</g>
<!-- Node10&#45;&gt;Node12 -->
<g id="edge13" class="edge">
<title>Node10&#45;&gt;Node12</title>
<path fill="none" stroke="midnightblue" d="M537.3,-336.44C517.31,-327.6 485.89,-313.69 463.07,-303.59"/>
<polygon fill="midnightblue" stroke="midnightblue" points="464.43,-300.36 453.87,-299.52 461.6,-306.76 464.43,-300.36"/>
</g>
<!-- Node13 -->
<g id="node13" class="node">
<title>Node13</title>
<g id="a_node13"><a xlink:title=" ">
<polygon fill="none" stroke="#bfbfbf" points="476.63,-280.5 476.63,-299.5 524.63,-299.5 524.63,-280.5 476.63,-280.5"/>
<text text-anchor="middle" x="500.63" y="-287.5" font-family="Helvetica,sans-Serif" font-size="10.00">string.h</text>
</a>
</g>
</g>
<!-- Node10&#45;&gt;Node13 -->
<g id="edge14" class="edge">
<title>Node10&#45;&gt;Node13</title>
<path fill="none" stroke="midnightblue" d="M547.63,-336.32C539.43,-328.42 527.12,-316.55 517.16,-306.94"/>
<polygon fill="midnightblue" stroke="midnightblue" points="519.42,-304.26 509.79,-299.83 514.56,-309.29 519.42,-304.26"/>
</g>
<!-- Node14 -->
<g id="node14" class="node">
<title>Node14</title>
<g id="a_node14"><a xlink:title=" ">
<polygon fill="none" stroke="#bfbfbf" points="543.13,-280.5 543.13,-299.5 578.13,-299.5 578.13,-280.5 543.13,-280.5"/>
<text text-anchor="middle" x="560.63" y="-287.5" font-family="Helvetica,sans-Serif" font-size="10.00">new</text>
</a>
</g>
</g>
<!-- Node10&#45;&gt;Node14 -->
<g id="edge15" class="edge">
<title>Node10&#45;&gt;Node14</title>
<path fill="none" stroke="midnightblue" d="M557.29,-336.08C557.81,-329.01 558.57,-318.86 559.22,-309.99"/>
<polygon fill="midnightblue" stroke="midnightblue" points="562.73,-309.98 559.98,-299.75 555.75,-309.47 562.73,-309.98"/>
</g>
<!-- Node15&#45;&gt;Node10 -->
<g id="edge37" class="edge">
<title>Node15&#45;&gt;Node10</title>
<path fill="none" stroke="midnightblue" d="M275.68,-394.86C337.05,-384.41 461.01,-363.29 521.64,-352.96"/>
<polygon fill="midnightblue" stroke="midnightblue" points="522.23,-356.41 531.5,-351.28 521.05,-349.51 522.23,-356.41"/>
</g>
<!-- Node16 -->
<g id="node16" class="node">
<title>Node16</title>
<g id="a_node16"><a xlink:href="mxopenglfunctions_8h.html" target="_top" xlink:title=" ">
<polygon fill="none" stroke="black" points="273.13,-336.5 273.13,-355.5 378.13,-355.5 378.13,-336.5 273.13,-336.5"/>
<text text-anchor="middle" x="325.63" y="-343.5" font-family="Helvetica,sans-Serif" font-size="10.00">mxopenglfunctions.h</text>
</a>
</g>
</g>
<!-- Node15&#45;&gt;Node16 -->
<g id="edge17" class="edge">
<title>Node15&#45;&gt;Node16</title>
<path fill="none" stroke="midnightblue" d="M253.45,-392.32C266.86,-383.9 287.45,-370.97 303.21,-361.07"/>
<polygon fill="midnightblue" stroke="midnightblue" points="305.24,-363.94 311.85,-355.65 301.52,-358.01 305.24,-363.94"/>
</g>
<!-- Node18 -->
<g id="node18" class="node">
<title>Node18</title>
<g id="a_node18"><a xlink:href="mxcolorwheelprogram_8h.html" target="_top" xlink:title=" ">
<polygon fill="none" stroke="black" points="207.13,-224.5 207.13,-243.5 326.13,-243.5 326.13,-224.5 207.13,-224.5"/>
<text text-anchor="middle" x="266.63" y="-231.5" font-family="Helvetica,sans-Serif" font-size="10.00">mxcolorwheelprogram.h</text>
</a>
</g>
</g>
<!-- Node15&#45;&gt;Node18 -->
<g id="edge19" class="edge">
<title>Node15&#45;&gt;Node18</title>
<path fill="none" stroke="midnightblue" d="M235.96,-392.44C227.84,-372.14 210.2,-319.83 225.63,-280 230.08,-268.5 239,-258.13 247.38,-250.25"/>
<polygon fill="midnightblue" stroke="midnightblue" points="249.87,-252.73 255.09,-243.51 245.26,-247.46 249.87,-252.73"/>
</g>
<!-- Node23 -->
<g id="node23" class="node">
<title>Node23</title>
<g id="a_node23"><a xlink:href="mxvectorprogram_8h.html" target="_top" xlink:title=" ">
<polygon fill="none" stroke="black" points="74.13,-336.5 74.13,-355.5 173.13,-355.5 173.13,-336.5 74.13,-336.5"/>
<text text-anchor="middle" x="123.63" y="-343.5" font-family="Helvetica,sans-Serif" font-size="10.00">mxvectorprogram.h</text>
</a>
</g>
</g>
<!-- Node15&#45;&gt;Node23 -->
<g id="edge28" class="edge">
<title>Node15&#45;&gt;Node23</title>
<path fill="none" stroke="midnightblue" d="M221.25,-392.44C202.41,-383.68 172.9,-369.94 151.25,-359.86"/>
<polygon fill="midnightblue" stroke="midnightblue" points="152.47,-356.56 141.92,-355.52 149.51,-362.91 152.47,-356.56"/>
</g>
<!-- Node25 -->
<g id="node25" class="node">
<title>Node25</title>
<g id="a_node25"><a xlink:href="gpubuffer_8h.html" target="_top" xlink:title=" ">
<polygon fill="none" stroke="black" points="22.63,-224.5 22.63,-243.5 86.63,-243.5 86.63,-224.5 22.63,-224.5"/>
<text text-anchor="middle" x="54.63" y="-231.5" font-family="Helvetica,sans-Serif" font-size="10.00">gpubuffer.h</text>
</a>
</g>
</g>
<!-- Node15&#45;&gt;Node25 -->
<g id="edge38" class="edge">
<title>Node15&#45;&gt;Node25</title>
<path fill="none" stroke="midnightblue" d="M203.27,-399.49C145.62,-394.79 36.32,-375.82 2.63,-300 -6.06,-280.43 12.73,-261.74 30.1,-249.47"/>
<polygon fill="midnightblue" stroke="midnightblue" points="32.48,-252.09 38.9,-243.66 28.62,-246.24 32.48,-252.09"/>
</g>
<!-- Node27 -->
<g id="node27" class="node">
<title>Node27</title>
<g id="a_node27"><a xlink:href="mxiconprogram_8h.html" target="_top" xlink:title=" ">
<polygon fill="none" stroke="black" points="372.63,-224.5 372.63,-243.5 462.63,-243.5 462.63,-224.5 372.63,-224.5"/>
<text text-anchor="middle" x="417.63" y="-231.5" font-family="Helvetica,sans-Serif" font-size="10.00">mxiconprogram.h</text>
</a>
</g>
</g>
<!-- Node15&#45;&gt;Node27 -->
<g id="edge39" class="edge">
<title>Node15&#45;&gt;Node27</title>
<path fill="none" stroke="midnightblue" d="M238.15,-392.39C234.92,-370.59 229.71,-312.62 258.63,-280 272.53,-264.32 322.36,-251.88 362.58,-244.09"/>
<polygon fill="midnightblue" stroke="midnightblue" points="363.39,-247.5 372.57,-242.21 362.1,-240.62 363.39,-247.5"/>
</g>
<!-- Node17 -->
<g id="node17" class="node">
<title>Node17</title>
<g id="a_node17"><a xlink:title=" ">
<polygon fill="none" stroke="#bfbfbf" points="268.13,-280.5 268.13,-299.5 393.13,-299.5 393.13,-280.5 268.13,-280.5"/>
<text text-anchor="middle" x="330.63" y="-287.5" font-family="Helvetica,sans-Serif" font-size="10.00">QOpenGLExtraFunctions</text>
</a>
</g>
</g>
<!-- Node16&#45;&gt;Node17 -->
<g id="edge18" class="edge">
<title>Node16&#45;&gt;Node17</title>
<path fill="none" stroke="midnightblue" d="M326.45,-336.08C327.11,-329.01 328.05,-318.86 328.87,-309.99"/>
<polygon fill="midnightblue" stroke="midnightblue" points="332.38,-310.03 329.82,-299.75 325.41,-309.39 332.38,-310.03"/>
</g>
<!-- Node18&#45;&gt;Node5 -->
<g id="edge27" class="edge">
<title>Node18&#45;&gt;Node5</title>
<path fill="none" stroke="midnightblue" d="M306.08,-224.44C353.64,-214.13 432.9,-196.94 479.1,-186.92"/>
<polygon fill="midnightblue" stroke="midnightblue" points="479.96,-190.32 488.99,-184.78 478.48,-183.48 479.96,-190.32"/>
</g>
<!-- Node18&#45;&gt;Node6 -->
<g id="edge20" class="edge">
<title>Node18&#45;&gt;Node6</title>
<path fill="none" stroke="midnightblue" d="M278.82,-224.27C308.65,-203.17 388.09,-148.43 459.63,-112 484.84,-99.16 514.61,-87.35 537.12,-79.05"/>
<polygon fill="midnightblue" stroke="midnightblue" points="538.4,-82.31 546.6,-75.6 536.01,-75.73 538.4,-82.31"/>
</g>
<!-- Node19 -->
<g id="node19" class="node">
<title>Node19</title>
<g id="a_node19"><a xlink:href="mxopengl_8h.html" target="_top" xlink:title=" ">
<polygon fill="none" stroke="black" points="150.13,-56.5 150.13,-75.5 215.13,-75.5 215.13,-56.5 150.13,-56.5"/>
<text text-anchor="middle" x="182.63" y="-63.5" font-family="Helvetica,sans-Serif" font-size="10.00">mxopengl.h</text>
</a>
</g>
</g>
<!-- Node18&#45;&gt;Node19 -->
<g id="edge21" class="edge">
<title>Node18&#45;&gt;Node19</title>
<path fill="none" stroke="midnightblue" d="M251.89,-224.43C227.64,-209.35 180.15,-175.52 161.63,-132 154.9,-116.19 162.51,-97.47 170.39,-84.18"/>
<polygon fill="midnightblue" stroke="midnightblue" points="173.45,-85.88 175.97,-75.59 167.58,-82.07 173.45,-85.88"/>
</g>
<!-- Node20 -->
<g id="node20" class="node">
<title>Node20</title>
<g id="a_node20"><a xlink:href="mxshaderprogram_8h.html" target="_top" xlink:title=" ">
<polygon fill="none" stroke="black" points="171.13,-112.5 171.13,-131.5 272.13,-131.5 272.13,-112.5 171.13,-112.5"/>
<text text-anchor="middle" x="221.63" y="-119.5" font-family="Helvetica,sans-Serif" font-size="10.00">mxshaderprogram.h</text>
</a>
</g>
</g>
<!-- Node18&#45;&gt;Node20 -->
<g id="edge22" class="edge">
<title>Node18&#45;&gt;Node20</title>
<path fill="none" stroke="midnightblue" d="M260.8,-224.36C255.04,-215.53 246.31,-201.27 240.63,-188 234.13,-172.8 229.04,-154.68 225.77,-141.44"/>
<polygon fill="midnightblue" stroke="midnightblue" points="229.16,-140.57 223.46,-131.64 222.34,-142.18 229.16,-140.57"/>
</g>
<!-- Node21 -->
<g id="node21" class="node">
<title>Node21</title>
<g id="a_node21"><a xlink:href="mxmatrix_8h.html" target="_top" xlink:title=" ">
<polygon fill="none" stroke="black" points="250.13,-168.5 250.13,-187.5 313.13,-187.5 313.13,-168.5 250.13,-168.5"/>
<text text-anchor="middle" x="281.63" y="-175.5" font-family="Helvetica,sans-Serif" font-size="10.00">mxmatrix.h</text>
</a>
</g>
</g>
<!-- Node18&#45;&gt;Node21 -->
<g id="edge25" class="edge">
<title>Node18&#45;&gt;Node21</title>
<path fill="none" stroke="midnightblue" d="M269.11,-224.08C271.12,-216.85 274.02,-206.41 276.52,-197.4"/>
<polygon fill="midnightblue" stroke="midnightblue" points="279.89,-198.32 279.2,-187.75 273.15,-196.45 279.89,-198.32"/>
</g>
<!-- Node20&#45;&gt;Node6 -->
<g id="edge23" class="edge">
<title>Node20&#45;&gt;Node6</title>
<path fill="none" stroke="midnightblue" d="M272.15,-113.21C341.55,-102.5 465.1,-83.44 529.68,-73.47"/>
<polygon fill="midnightblue" stroke="midnightblue" points="530.54,-76.88 539.89,-71.9 529.48,-69.96 530.54,-76.88"/>
</g>
<!-- Node20&#45;&gt;Node19 -->
<g id="edge24" class="edge">
<title>Node20&#45;&gt;Node19</title>
<path fill="none" stroke="midnightblue" d="M215.19,-112.08C209.68,-104.46 201.6,-93.26 194.86,-83.94"/>
<polygon fill="midnightblue" stroke="midnightblue" points="197.64,-81.81 188.95,-75.75 191.97,-85.91 197.64,-81.81"/>
</g>
<!-- Node22 -->
<g id="node22" class="node">
<title>Node22</title>
<g id="a_node22"><a xlink:title=" ">
<polygon fill="none" stroke="#bfbfbf" points="290.13,-112.5 290.13,-131.5 355.13,-131.5 355.13,-112.5 290.13,-112.5"/>
<text text-anchor="middle" x="322.63" y="-119.5" font-family="Helvetica,sans-Serif" font-size="10.00">QMatrix4x4</text>
</a>
</g>
</g>
<!-- Node21&#45;&gt;Node22 -->
<g id="edge26" class="edge">
<title>Node21&#45;&gt;Node22</title>
<path fill="none" stroke="midnightblue" d="M288.4,-168.08C294.19,-160.46 302.69,-149.26 309.77,-139.94"/>
<polygon fill="midnightblue" stroke="midnightblue" points="312.73,-141.83 315.98,-131.75 307.15,-137.6 312.73,-141.83"/>
</g>
<!-- Node23&#45;&gt;Node20 -->
<g id="edge29" class="edge">
<title>Node23&#45;&gt;Node20</title>
<path fill="none" stroke="midnightblue" d="M125.25,-336.4C127.76,-323.78 133.11,-299.6 140.63,-280 160.96,-226.97 194.26,-168.52 211.13,-140.23"/>
<polygon fill="midnightblue" stroke="midnightblue" points="214.2,-141.91 216.36,-131.54 208.2,-138.3 214.2,-141.91"/>
</g>
<!-- Node23&#45;&gt;Node21 -->
<g id="edge30" class="edge">
<title>Node23&#45;&gt;Node21</title>
<path fill="none" stroke="midnightblue" d="M127.03,-336.32C135.8,-314.85 161.11,-258.49 197.63,-224 212.31,-210.14 232.08,-199.26 248.76,-191.68"/>
<polygon fill="midnightblue" stroke="midnightblue" points="250.38,-194.79 258.16,-187.6 247.59,-188.37 250.38,-194.79"/>
</g>
<!-- Node24 -->
<g id="node24" class="node">
<title>Node24</title>
<g id="a_node24"><a xlink:href="mxvectordraw_8h.html" target="_top" xlink:title=" ">
<polygon fill="none" stroke="black" points="12.13,-280.5 12.13,-299.5 97.13,-299.5 97.13,-280.5 12.13,-280.5"/>
<text text-anchor="middle" x="54.63" y="-287.5" font-family="Helvetica,sans-Serif" font-size="10.00">mxvectordraw.h</text>
</a>
</g>
</g>
<!-- Node23&#45;&gt;Node24 -->
<g id="edge31" class="edge">
<title>Node23&#45;&gt;Node24</title>
<path fill="none" stroke="midnightblue" d="M112.54,-336.32C102.14,-328.18 86.37,-315.84 73.91,-306.09"/>
<polygon fill="midnightblue" stroke="midnightblue" points="75.95,-303.24 65.92,-299.83 71.64,-308.75 75.95,-303.24"/>
</g>
<!-- Node24&#45;&gt;Node5 -->
<g id="edge36" class="edge">
<title>Node24&#45;&gt;Node5</title>
<path fill="none" stroke="midnightblue" d="M97.15,-286.44C196.91,-280.14 440,-263.03 471.63,-244 489.47,-233.27 501.68,-212.2 508.63,-196.95"/>
<polygon fill="midnightblue" stroke="midnightblue" points="511.95,-198.1 512.61,-187.53 505.5,-195.38 511.95,-198.1"/>
</g>
<!-- Node24&#45;&gt;Node25 -->
<g id="edge32" class="edge">
<title>Node24&#45;&gt;Node25</title>
<path fill="none" stroke="midnightblue" d="M54.63,-280.08C54.63,-273.01 54.63,-262.86 54.63,-253.99"/>
<polygon fill="midnightblue" stroke="midnightblue" points="58.13,-253.75 54.63,-243.75 51.13,-253.75 58.13,-253.75"/>
</g>
<!-- Node26 -->
<g id="node26" class="node">
<title>Node26</title>
<g id="a_node26"><a xlink:href="gpuvbo_8h.html" target="_top" xlink:title=" ">
<polygon fill="none" stroke="black" points="41.63,-168.5 41.63,-187.5 97.63,-187.5 97.63,-168.5 41.63,-168.5"/>
<text text-anchor="middle" x="69.63" y="-175.5" font-family="Helvetica,sans-Serif" font-size="10.00">gpuvbo.h</text>
</a>
</g>
</g>
<!-- Node25&#45;&gt;Node26 -->
<g id="edge33" class="edge">
<title>Node25&#45;&gt;Node26</title>
<path fill="none" stroke="midnightblue" d="M57.11,-224.08C59.12,-216.85 62.02,-206.41 64.52,-197.4"/>
<polygon fill="midnightblue" stroke="midnightblue" points="67.89,-198.32 67.2,-187.75 61.15,-196.45 67.89,-198.32"/>
</g>
<!-- Node26&#45;&gt;Node19 -->
<g id="edge34" class="edge">
<title>Node26&#45;&gt;Node19</title>
<path fill="none" stroke="midnightblue" d="M76.91,-168.23C87.7,-155.41 108.83,-130.98 128.63,-112 139.75,-101.34 153.04,-90.25 163.65,-81.75"/>
<polygon fill="midnightblue" stroke="midnightblue" points="165.82,-84.49 171.49,-75.54 161.48,-79 165.82,-84.49"/>
</g>
<!-- Node26&#45;&gt;Node20 -->
<g id="edge35" class="edge">
<title>Node26&#45;&gt;Node20</title>
<path fill="none" stroke="midnightblue" d="M93.71,-168.44C119.17,-159.4 159.52,-145.06 188.09,-134.92"/>
<polygon fill="midnightblue" stroke="midnightblue" points="189.41,-138.16 197.66,-131.52 187.06,-131.57 189.41,-138.16"/>
</g>
<!-- Node27&#45;&gt;Node5 -->
<g id="edge45" class="edge">
<title>Node27&#45;&gt;Node5</title>
<path fill="none" stroke="midnightblue" d="M433.37,-224.32C448.95,-215.74 473.01,-202.49 491.09,-192.52"/>
<polygon fill="midnightblue" stroke="midnightblue" points="492.85,-195.55 499.92,-187.65 489.48,-189.42 492.85,-195.55"/>
</g>
<!-- Node27&#45;&gt;Node6 -->
<g id="edge40" class="edge">
<title>Node27&#45;&gt;Node6</title>
<path fill="none" stroke="midnightblue" d="M419.92,-224.22C426,-202.51 444.42,-145.66 478.63,-112 493.69,-97.18 514.59,-86.47 532.76,-79.22"/>
<polygon fill="midnightblue" stroke="midnightblue" points="534.12,-82.45 542.25,-75.65 531.65,-75.9 534.12,-82.45"/>
</g>
<!-- Node27&#45;&gt;Node8 -->
<g id="edge42" class="edge">
<title>Node27&#45;&gt;Node8</title>
<path fill="none" stroke="midnightblue" d="M453.76,-224.46C481.35,-217.08 519.74,-204.93 550.63,-188 575.18,-174.55 599.74,-153.51 615.27,-139.03"/>
<polygon fill="midnightblue" stroke="midnightblue" points="618.09,-141.18 622.92,-131.75 613.26,-136.11 618.09,-141.18"/>
</g>
<!-- Node27&#45;&gt;Node19 -->
<g id="edge43" class="edge">
<title>Node27&#45;&gt;Node19</title>
<path fill="none" stroke="midnightblue" d="M416.41,-224.44C412.78,-202.24 399.95,-142.43 363.63,-112 324.67,-79.36 265.43,-69.83 225.44,-67.34"/>
<polygon fill="midnightblue" stroke="midnightblue" points="225.37,-63.83 215.2,-66.83 225.02,-70.82 225.37,-63.83"/>
</g>
<!-- Node27&#45;&gt;Node20 -->
<g id="edge44" class="edge">
<title>Node27&#45;&gt;Node20</title>
<path fill="none" stroke="midnightblue" d="M406.22,-224.32C388.64,-211.17 353.62,-185.85 321.63,-168 299.34,-155.56 272.97,-143.81 252.91,-135.44"/>
<polygon fill="midnightblue" stroke="midnightblue" points="254.19,-132.18 243.61,-131.61 251.53,-138.65 254.19,-132.18"/>
</g>
<!-- Node27&#45;&gt;Node21 -->
<g id="edge41" class="edge">
<title>Node27&#45;&gt;Node21</title>
<path fill="none" stroke="midnightblue" d="M396.08,-224.44C373.6,-215.52 338.14,-201.44 312.65,-191.32"/>
<polygon fill="midnightblue" stroke="midnightblue" points="313.66,-187.95 303.08,-187.52 311.08,-194.46 313.66,-187.95"/>
</g>
<!-- Node28&#45;&gt;Node8 -->
<g id="edge47" class="edge">
<title>Node28&#45;&gt;Node8</title>
<path fill="none" stroke="midnightblue" d="M789.21,-224.37C759.87,-205.49 689.75,-160.38 653.76,-137.24"/>
<polygon fill="midnightblue" stroke="midnightblue" points="655.29,-134.06 644.99,-131.59 651.5,-139.95 655.29,-134.06"/>
</g>
<!-- Node30&#45;&gt;Node6 -->
<g id="edge50" class="edge">
<title>Node30&#45;&gt;Node6</title>
<path fill="none" stroke="midnightblue" d="M862.63,-448.44C862.63,-429.94 862.63,-384.81 862.63,-347 862.63,-347 862.63,-347 862.63,-177 862.63,-124.41 694.21,-88.17 613.63,-73.84"/>
<polygon fill="midnightblue" stroke="midnightblue" points="613.78,-70.32 603.33,-72.05 612.58,-77.21 613.78,-70.32"/>
</g>
<!-- Node31 -->
<g id="node31" class="node">
<title>Node31</title>
<g id="a_node31"><a xlink:title=" ">
<polygon fill="none" stroke="#bfbfbf" points="890.63,-392.5 890.63,-411.5 936.63,-411.5 936.63,-392.5 890.63,-392.5"/>
<text text-anchor="middle" x="913.63" y="-399.5" font-family="Helvetica,sans-Serif" font-size="10.00">math.h</text>
</a>
</g>
</g>
<!-- Node30&#45;&gt;Node31 -->
<g id="edge51" class="edge">
<title>Node30&#45;&gt;Node31</title>
<path fill="none" stroke="midnightblue" d="M871.05,-448.08C878.48,-440.22 889.48,-428.57 898.44,-419.08"/>
<polygon fill="midnightblue" stroke="midnightblue" points="901.04,-421.42 905.36,-411.75 895.95,-416.62 901.04,-421.42"/>
</g>
</g>
</svg>
