<?xml version="1.0" encoding="UTF-8" standalone="no"?>
<!DOCTYPE svg PUBLIC "-//W3C//DTD SVG 1.1//EN"
 "http://www.w3.org/Graphics/SVG/1.1/DTD/svg11.dtd">
<!-- Generated by graphviz version 2.44.0 ()
 -->
<!-- Title: src/renderer/opengl/iconprogram/mxiconprogram.h Pages: 1 -->
<svg width="379pt" height="207pt"
 viewBox="0.00 0.00 379.29 207.00" xmlns="http://www.w3.org/2000/svg" xmlns:xlink="http://www.w3.org/1999/xlink">
<g id="graph0" class="graph" transform="scale(1 1) rotate(0) translate(4 203)">
<title>src/renderer/opengl/iconprogram/mxiconprogram.h</title>
<!-- Node1 -->
<g id="node1" class="node">
<title>Node1</title>
<g id="a_node1"><a xlink:title=" ">
<polygon fill="#bfbfbf" stroke="black" points="112.79,-168.5 112.79,-198.5 261.79,-198.5 261.79,-168.5 112.79,-168.5"/>
<text text-anchor="start" x="120.79" y="-186.5" font-family="Helvetica,sans-Serif" font-size="10.00">src/renderer/opengl</text>
<text text-anchor="middle" x="187.29" y="-175.5" font-family="Helvetica,sans-Serif" font-size="10.00">/iconprogram/mxiconprogram.h</text>
</a>
</g>
</g>
<!-- Node2 -->
<g id="node2" class="node">
<title>Node2</title>
<g id="a_node2"><a xlink:title=" ">
<polygon fill="none" stroke="#bfbfbf" points="117.79,-0.5 117.79,-19.5 180.79,-19.5 180.79,-0.5 117.79,-0.5"/>
<text text-anchor="middle" x="149.29" y="-7.5" font-family="Helvetica,sans-Serif" font-size="10.00">mxdebug.h</text>
</a>
</g>
</g>
<!-- Node1&#45;&gt;Node2 -->
<g id="edge1" class="edge">
<title>Node1&#45;&gt;Node2</title>
<path fill="none" stroke="midnightblue" d="M192.01,-168.39C196.14,-154.11 200.97,-131.43 197.29,-112 191.33,-80.51 173.09,-47.62 160.89,-28.25"/>
<polygon fill="midnightblue" stroke="midnightblue" points="163.69,-26.13 155.31,-19.65 157.82,-29.94 163.69,-26.13"/>
</g>
<!-- Node3 -->
<g id="node3" class="node">
<title>Node3</title>
<g id="a_node3"><a xlink:href="mxmatrix_8h.html" target="_top" xlink:title=" ">
<polygon fill="none" stroke="black" points="125.79,-112.5 125.79,-131.5 188.79,-131.5 188.79,-112.5 125.79,-112.5"/>
<text text-anchor="middle" x="157.29" y="-119.5" font-family="Helvetica,sans-Serif" font-size="10.00">mxmatrix.h</text>
</a>
</g>
</g>
<!-- Node1&#45;&gt;Node3 -->
<g id="edge2" class="edge">
<title>Node1&#45;&gt;Node3</title>
<path fill="none" stroke="midnightblue" d="M180.18,-168.4C176,-160.11 170.68,-149.55 166.22,-140.71"/>
<polygon fill="midnightblue" stroke="midnightblue" points="169.28,-139.01 161.66,-131.66 163.03,-142.16 169.28,-139.01"/>
</g>
<!-- Node4 -->
<g id="node4" class="node">
<title>Node4</title>
<g id="a_node4"><a xlink:href="mxvector_8h.html" target="_top" xlink:title=" ">
<polygon fill="none" stroke="black" points="87.29,-56.5 87.29,-75.5 151.29,-75.5 151.29,-56.5 87.29,-56.5"/>
<text text-anchor="middle" x="119.29" y="-63.5" font-family="Helvetica,sans-Serif" font-size="10.00">mxvector.h</text>
</a>
</g>
</g>
<!-- Node1&#45;&gt;Node4 -->
<g id="edge6" class="edge">
<title>Node1&#45;&gt;Node4</title>
<path fill="none" stroke="midnightblue" d="M155.14,-168.34C140.46,-160.03 124.54,-148 116.29,-132 108.85,-117.58 110.7,-98.89 113.76,-85.25"/>
<polygon fill="midnightblue" stroke="midnightblue" points="117.15,-86.14 116.32,-75.57 110.38,-84.35 117.15,-86.14"/>
</g>
<!-- Node5 -->
<g id="node5" class="node">
<title>Node5</title>
<g id="a_node5"><a xlink:title=" ">
<polygon fill="none" stroke="#bfbfbf" points="270.79,-56.5 270.79,-75.5 335.79,-75.5 335.79,-56.5 270.79,-56.5"/>
<text text-anchor="middle" x="303.29" y="-63.5" font-family="Helvetica,sans-Serif" font-size="10.00">mxopengl.h</text>
</a>
</g>
</g>
<!-- Node1&#45;&gt;Node5 -->
<g id="edge7" class="edge">
<title>Node1&#45;&gt;Node5</title>
<path fill="none" stroke="midnightblue" d="M201.51,-168.34C223.27,-146.68 264.67,-105.45 287.39,-82.83"/>
<polygon fill="midnightblue" stroke="midnightblue" points="289.97,-85.21 294.58,-75.67 285.03,-80.25 289.97,-85.21"/>
</g>
<!-- Node6 -->
<g id="node6" class="node">
<title>Node6</title>
<g id="a_node6"><a xlink:href="mxgpuprogram_8h.html" target="_top" xlink:title=" ">
<polygon fill="none" stroke="black" points="283.29,-112.5 283.29,-131.5 371.29,-131.5 371.29,-112.5 283.29,-112.5"/>
<text text-anchor="middle" x="327.29" y="-119.5" font-family="Helvetica,sans-Serif" font-size="10.00">mxgpuprogram.h</text>
</a>
</g>
</g>
<!-- Node1&#45;&gt;Node6 -->
<g id="edge8" class="edge">
<title>Node1&#45;&gt;Node6</title>
<path fill="none" stroke="midnightblue" d="M220.47,-168.4C243.85,-158.46 274.9,-145.26 297.5,-135.66"/>
<polygon fill="midnightblue" stroke="midnightblue" points="299.08,-138.79 306.92,-131.66 296.35,-132.35 299.08,-138.79"/>
</g>
<!-- Node7 -->
<g id="node7" class="node">
<title>Node7</title>
<g id="a_node7"><a xlink:href="mxrect_8h.html" target="_top" xlink:title=" ">
<polygon fill="none" stroke="black" points="15.79,-112.5 15.79,-131.5 68.79,-131.5 68.79,-112.5 15.79,-112.5"/>
<text text-anchor="middle" x="42.29" y="-119.5" font-family="Helvetica,sans-Serif" font-size="10.00">mxrect.h</text>
</a>
</g>
</g>
<!-- Node1&#45;&gt;Node7 -->
<g id="edge10" class="edge">
<title>Node1&#45;&gt;Node7</title>
<path fill="none" stroke="midnightblue" d="M152.93,-168.4C128.6,-158.42 96.26,-145.15 72.83,-135.53"/>
<polygon fill="midnightblue" stroke="midnightblue" points="73.97,-132.22 63.39,-131.66 71.31,-138.69 73.97,-132.22"/>
</g>
<!-- Node3&#45;&gt;Node2 -->
<g id="edge3" class="edge">
<title>Node3&#45;&gt;Node2</title>
<path fill="none" stroke="midnightblue" d="M158.63,-112.13C160.31,-99.59 162.69,-75.96 160.29,-56 159.22,-47.11 157,-37.43 154.83,-29.34"/>
<polygon fill="midnightblue" stroke="midnightblue" points="158.13,-28.17 152.02,-19.51 151.4,-30.09 158.13,-28.17"/>
</g>
<!-- Node3&#45;&gt;Node4 -->
<g id="edge4" class="edge">
<title>Node3&#45;&gt;Node4</title>
<path fill="none" stroke="midnightblue" d="M151.02,-112.08C145.65,-104.46 137.77,-93.26 131.21,-83.94"/>
<polygon fill="midnightblue" stroke="midnightblue" points="134.07,-81.91 125.45,-75.75 128.34,-85.94 134.07,-81.91"/>
</g>
<!-- Node4&#45;&gt;Node2 -->
<g id="edge5" class="edge">
<title>Node4&#45;&gt;Node2</title>
<path fill="none" stroke="midnightblue" d="M124.24,-56.08C128.39,-48.61 134.44,-37.72 139.56,-28.52"/>
<polygon fill="midnightblue" stroke="midnightblue" points="142.63,-30.19 144.43,-19.75 136.51,-26.79 142.63,-30.19"/>
</g>
<!-- Node6&#45;&gt;Node5 -->
<g id="edge9" class="edge">
<title>Node6&#45;&gt;Node5</title>
<path fill="none" stroke="midnightblue" d="M323.33,-112.08C320.08,-104.77 315.37,-94.18 311.34,-85.1"/>
<polygon fill="midnightblue" stroke="midnightblue" points="314.44,-83.47 307.18,-75.75 308.04,-86.31 314.44,-83.47"/>
</g>
<!-- Node7&#45;&gt;Node2 -->
<g id="edge11" class="edge">
<title>Node7&#45;&gt;Node2</title>
<path fill="none" stroke="midnightblue" d="M30.8,-112.44C15.06,-99.65 -9.74,-75.05 4.29,-56 27.81,-24.08 73.76,-14.13 107.66,-11.36"/>
<polygon fill="midnightblue" stroke="midnightblue" points="107.99,-14.85 117.75,-10.71 107.55,-7.86 107.99,-14.85"/>
</g>
<!-- Node7&#45;&gt;Node4 -->
<g id="edge12" class="edge">
<title>Node7&#45;&gt;Node4</title>
<path fill="none" stroke="midnightblue" d="M54.66,-112.32C66.45,-104.06 84.42,-91.45 98.43,-81.63"/>
<polygon fill="midnightblue" stroke="midnightblue" points="100.77,-84.26 106.95,-75.65 96.75,-78.53 100.77,-84.26"/>
</g>
<!-- Node8 -->
<g id="node8" class="node">
<title>Node8</title>
<g id="a_node8"><a xlink:title=" ">
<polygon fill="none" stroke="#bfbfbf" points="13.29,-56.5 13.29,-75.5 69.29,-75.5 69.29,-56.5 13.29,-56.5"/>
<text text-anchor="middle" x="41.29" y="-63.5" font-family="Helvetica,sans-Serif" font-size="10.00">algorithm</text>
</a>
</g>
</g>
<!-- Node7&#45;&gt;Node8 -->
<g id="edge13" class="edge">
<title>Node7&#45;&gt;Node8</title>
<path fill="none" stroke="midnightblue" d="M42.12,-112.08C41.99,-105.01 41.81,-94.86 41.64,-85.99"/>
<polygon fill="midnightblue" stroke="midnightblue" points="45.14,-85.68 41.45,-75.75 38.14,-85.81 45.14,-85.68"/>
</g>
</g>
</svg>
