<?xml version="1.0" encoding="UTF-8" standalone="no"?>
<!DOCTYPE svg PUBLIC "-//W3C//DTD SVG 1.1//EN"
 "http://www.w3.org/Graphics/SVG/1.1/DTD/svg11.dtd">
<!-- Generated by graphviz version 2.44.0 ()
 -->
<!-- Title: src/renderer/opengl/icondraw/mxiconprogram.cpp Pages: 1 -->
<svg width="548pt" height="375pt"
 viewBox="0.00 0.00 548.00 375.00" xmlns="http://www.w3.org/2000/svg" xmlns:xlink="http://www.w3.org/1999/xlink">
<g id="graph0" class="graph" transform="scale(1 1) rotate(0) translate(4 371)">
<title>src/renderer/opengl/icondraw/mxiconprogram.cpp</title>
<!-- Node1 -->
<g id="node1" class="node">
<title>Node1</title>
<g id="a_node1"><a xlink:title=" ">
<polygon fill="#bfbfbf" stroke="black" points="145,-336.5 145,-366.5 291,-366.5 291,-336.5 145,-336.5"/>
<text text-anchor="start" x="153" y="-354.5" font-family="Helvetica,sans-Serif" font-size="10.00">src/renderer/opengl</text>
<text text-anchor="middle" x="218" y="-343.5" font-family="Helvetica,sans-Serif" font-size="10.00">/icondraw/mxiconprogram.cpp</text>
</a>
</g>
</g>
<!-- Node2 -->
<g id="node2" class="node">
<title>Node2</title>
<g id="a_node2"><a xlink:href="mxiconprogram_8h.html" target="_top" xlink:title=" ">
<polygon fill="none" stroke="black" points="177,-168.5 177,-187.5 267,-187.5 267,-168.5 177,-168.5"/>
<text text-anchor="middle" x="222" y="-175.5" font-family="Helvetica,sans-Serif" font-size="10.00">mxiconprogram.h</text>
</a>
</g>
</g>
<!-- Node1&#45;&gt;Node2 -->
<g id="edge1" class="edge">
<title>Node1&#45;&gt;Node2</title>
<path fill="none" stroke="midnightblue" d="M213.26,-336.1C210.22,-326.1 206.57,-312.39 205,-300 200.76,-266.49 198.93,-257.23 205,-224 206.69,-214.76 210.17,-204.95 213.55,-196.85"/>
<polygon fill="midnightblue" stroke="midnightblue" points="216.76,-198.25 217.63,-187.69 210.37,-195.4 216.76,-198.25"/>
</g>
<!-- Node9 -->
<g id="node9" class="node">
<title>Node9</title>
<g id="a_node9"><a xlink:href="mxrect_8h.html" target="_top" xlink:title=" ">
<polygon fill="none" stroke="black" points="84.5,-112.5 84.5,-131.5 137.5,-131.5 137.5,-112.5 84.5,-112.5"/>
<text text-anchor="middle" x="111" y="-119.5" font-family="Helvetica,sans-Serif" font-size="10.00">mxrect.h</text>
</a>
</g>
</g>
<!-- Node1&#45;&gt;Node9 -->
<g id="edge15" class="edge">
<title>Node1&#45;&gt;Node9</title>
<path fill="none" stroke="midnightblue" d="M211.31,-336.27C192.67,-296.64 140.2,-185.08 119.52,-141.12"/>
<polygon fill="midnightblue" stroke="midnightblue" points="122.62,-139.49 115.2,-131.93 116.29,-142.47 122.62,-139.49"/>
</g>
<!-- Node11 -->
<g id="node11" class="node">
<title>Node11</title>
<g id="a_node11"><a xlink:href="mxicondraw_8h.html" target="_top" xlink:title=" ">
<polygon fill="none" stroke="black" points="214,-280.5 214,-299.5 290,-299.5 290,-280.5 214,-280.5"/>
<text text-anchor="middle" x="252" y="-287.5" font-family="Helvetica,sans-Serif" font-size="10.00">mxicondraw.h</text>
</a>
</g>
</g>
<!-- Node1&#45;&gt;Node11 -->
<g id="edge16" class="edge">
<title>Node1&#45;&gt;Node11</title>
<path fill="none" stroke="midnightblue" d="M226.06,-336.4C230.85,-328.02 236.96,-317.33 242.04,-308.42"/>
<polygon fill="midnightblue" stroke="midnightblue" points="245.13,-310.08 247.05,-299.66 239.05,-306.6 245.13,-310.08"/>
</g>
<!-- Node16 -->
<g id="node16" class="node">
<title>Node16</title>
<g id="a_node16"><a xlink:title=" ">
<polygon fill="none" stroke="#bfbfbf" points="308,-280.5 308,-299.5 380,-299.5 380,-280.5 308,-280.5"/>
<text text-anchor="middle" x="344" y="-287.5" font-family="Helvetica,sans-Serif" font-size="10.00">mxrenderer.h</text>
</a>
</g>
</g>
<!-- Node1&#45;&gt;Node16 -->
<g id="edge24" class="edge">
<title>Node1&#45;&gt;Node16</title>
<path fill="none" stroke="midnightblue" d="M247.86,-336.4C268.62,-326.59 296.1,-313.62 316.36,-304.05"/>
<polygon fill="midnightblue" stroke="midnightblue" points="318.12,-307.09 325.67,-299.66 315.13,-300.76 318.12,-307.09"/>
</g>
<!-- Node3 -->
<g id="node3" class="node">
<title>Node3</title>
<g id="a_node3"><a xlink:title=" ">
<polygon fill="none" stroke="#bfbfbf" points="142.5,-0.5 142.5,-19.5 205.5,-19.5 205.5,-0.5 142.5,-0.5"/>
<text text-anchor="middle" x="174" y="-7.5" font-family="Helvetica,sans-Serif" font-size="10.00">mxdebug.h</text>
</a>
</g>
</g>
<!-- Node2&#45;&gt;Node3 -->
<g id="edge2" class="edge">
<title>Node2&#45;&gt;Node3</title>
<path fill="none" stroke="midnightblue" d="M219.42,-168.08C211.86,-141.95 189.68,-65.21 179.37,-29.58"/>
<polygon fill="midnightblue" stroke="midnightblue" points="182.62,-28.2 176.48,-19.57 175.89,-30.15 182.62,-28.2"/>
</g>
<!-- Node4 -->
<g id="node4" class="node">
<title>Node4</title>
<g id="a_node4"><a xlink:href="mxmatrix_8h.html" target="_top" xlink:title=" ">
<polygon fill="none" stroke="black" points="233.5,-112.5 233.5,-131.5 296.5,-131.5 296.5,-112.5 233.5,-112.5"/>
<text text-anchor="middle" x="265" y="-119.5" font-family="Helvetica,sans-Serif" font-size="10.00">mxmatrix.h</text>
</a>
</g>
</g>
<!-- Node2&#45;&gt;Node4 -->
<g id="edge3" class="edge">
<title>Node2&#45;&gt;Node4</title>
<path fill="none" stroke="midnightblue" d="M229.1,-168.08C235.24,-160.38 244.27,-149.03 251.74,-139.65"/>
<polygon fill="midnightblue" stroke="midnightblue" points="254.54,-141.75 258.03,-131.75 249.06,-137.39 254.54,-141.75"/>
</g>
<!-- Node6 -->
<g id="node6" class="node">
<title>Node6</title>
<g id="a_node6"><a xlink:href="mxvector_8h.html" target="_top" xlink:title=" ">
<polygon fill="none" stroke="black" points="112,-56.5 112,-75.5 176,-75.5 176,-56.5 112,-56.5"/>
<text text-anchor="middle" x="144" y="-63.5" font-family="Helvetica,sans-Serif" font-size="10.00">mxvector.h</text>
</a>
</g>
</g>
<!-- Node2&#45;&gt;Node6 -->
<g id="edge5" class="edge">
<title>Node2&#45;&gt;Node6</title>
<path fill="none" stroke="midnightblue" d="M215.86,-168.38C209.41,-159.32 198.99,-144.67 190,-132 178.54,-115.85 165.51,-97.42 156.24,-84.32"/>
<polygon fill="midnightblue" stroke="midnightblue" points="158.87,-81.98 150.24,-75.84 153.16,-86.02 158.87,-81.98"/>
</g>
<!-- Node7 -->
<g id="node7" class="node">
<title>Node7</title>
<g id="a_node7"><a xlink:href="mxopengl_8h.html" target="_top" xlink:title=" ">
<polygon fill="none" stroke="black" points="412.5,-0.5 412.5,-19.5 477.5,-19.5 477.5,-0.5 412.5,-0.5"/>
<text text-anchor="middle" x="445" y="-7.5" font-family="Helvetica,sans-Serif" font-size="10.00">mxopengl.h</text>
</a>
</g>
</g>
<!-- Node2&#45;&gt;Node7 -->
<g id="edge7" class="edge">
<title>Node2&#45;&gt;Node7</title>
<path fill="none" stroke="midnightblue" d="M261.18,-168.49C307.79,-156.26 384.5,-129.08 426,-76 436.4,-62.7 441.11,-43.87 443.24,-29.89"/>
<polygon fill="midnightblue" stroke="midnightblue" points="446.72,-30.28 444.46,-19.93 439.77,-29.43 446.72,-30.28"/>
</g>
<!-- Node8 -->
<g id="node8" class="node">
<title>Node8</title>
<g id="a_node8"><a xlink:href="mxshaderprogram_8h.html" target="_top" xlink:title=" ">
<polygon fill="none" stroke="black" points="315.5,-56.5 315.5,-75.5 416.5,-75.5 416.5,-56.5 315.5,-56.5"/>
<text text-anchor="middle" x="366" y="-63.5" font-family="Helvetica,sans-Serif" font-size="10.00">mxshaderprogram.h</text>
</a>
</g>
</g>
<!-- Node2&#45;&gt;Node8 -->
<g id="edge8" class="edge">
<title>Node2&#45;&gt;Node8</title>
<path fill="none" stroke="midnightblue" d="M242.48,-168.37C260.23,-160.37 286.11,-147.39 306,-132 324.31,-117.83 341.85,-97.82 353.19,-83.75"/>
<polygon fill="midnightblue" stroke="midnightblue" points="355.96,-85.89 359.4,-75.87 350.46,-81.56 355.96,-85.89"/>
</g>
<!-- Node2&#45;&gt;Node9 -->
<g id="edge11" class="edge">
<title>Node2&#45;&gt;Node9</title>
<path fill="none" stroke="midnightblue" d="M204.17,-168.32C186.28,-159.62 158.52,-146.12 137.95,-136.11"/>
<polygon fill="midnightblue" stroke="midnightblue" points="139.31,-132.88 128.79,-131.65 136.25,-139.18 139.31,-132.88"/>
</g>
<!-- Node5 -->
<g id="node5" class="node">
<title>Node5</title>
<g id="a_node5"><a xlink:title=" ">
<polygon fill="none" stroke="#bfbfbf" points="232.5,-56.5 232.5,-75.5 297.5,-75.5 297.5,-56.5 232.5,-56.5"/>
<text text-anchor="middle" x="265" y="-63.5" font-family="Helvetica,sans-Serif" font-size="10.00">QMatrix4x4</text>
</a>
</g>
</g>
<!-- Node4&#45;&gt;Node5 -->
<g id="edge4" class="edge">
<title>Node4&#45;&gt;Node5</title>
<path fill="none" stroke="midnightblue" d="M265,-112.08C265,-105.01 265,-94.86 265,-85.99"/>
<polygon fill="midnightblue" stroke="midnightblue" points="268.5,-85.75 265,-75.75 261.5,-85.75 268.5,-85.75"/>
</g>
<!-- Node6&#45;&gt;Node3 -->
<g id="edge6" class="edge">
<title>Node6&#45;&gt;Node3</title>
<path fill="none" stroke="midnightblue" d="M148.95,-56.08C153.1,-48.61 159.15,-37.72 164.27,-28.52"/>
<polygon fill="midnightblue" stroke="midnightblue" points="167.34,-30.19 169.14,-19.75 161.22,-26.79 167.34,-30.19"/>
</g>
<!-- Node8&#45;&gt;Node3 -->
<g id="edge9" class="edge">
<title>Node8&#45;&gt;Node3</title>
<path fill="none" stroke="midnightblue" d="M335.58,-56.44C302.72,-47.2 250.22,-32.44 214.03,-22.26"/>
<polygon fill="midnightblue" stroke="midnightblue" points="214.85,-18.85 204.28,-19.52 212.96,-25.59 214.85,-18.85"/>
</g>
<!-- Node8&#45;&gt;Node7 -->
<g id="edge10" class="edge">
<title>Node8&#45;&gt;Node7</title>
<path fill="none" stroke="midnightblue" d="M378.69,-56.32C390.9,-47.98 409.58,-35.21 424,-25.35"/>
<polygon fill="midnightblue" stroke="midnightblue" points="426.06,-28.19 432.34,-19.65 422.11,-22.41 426.06,-28.19"/>
</g>
<!-- Node9&#45;&gt;Node3 -->
<g id="edge12" class="edge">
<title>Node9&#45;&gt;Node3</title>
<path fill="none" stroke="midnightblue" d="M106.88,-112.39C101.28,-99.33 93.03,-74.13 103,-56 110.89,-41.66 125.49,-31.25 139.4,-24.08"/>
<polygon fill="midnightblue" stroke="midnightblue" points="141.29,-27.06 148.84,-19.62 138.3,-20.73 141.29,-27.06"/>
</g>
<!-- Node9&#45;&gt;Node6 -->
<g id="edge13" class="edge">
<title>Node9&#45;&gt;Node6</title>
<path fill="none" stroke="midnightblue" d="M116.45,-112.08C121.01,-104.61 127.67,-93.72 133.29,-84.52"/>
<polygon fill="midnightblue" stroke="midnightblue" points="136.42,-86.11 138.65,-75.75 130.45,-82.46 136.42,-86.11"/>
</g>
<!-- Node10 -->
<g id="node10" class="node">
<title>Node10</title>
<g id="a_node10"><a xlink:title=" ">
<polygon fill="none" stroke="#bfbfbf" points="0,-56.5 0,-75.5 56,-75.5 56,-56.5 0,-56.5"/>
<text text-anchor="middle" x="28" y="-63.5" font-family="Helvetica,sans-Serif" font-size="10.00">algorithm</text>
</a>
</g>
</g>
<!-- Node9&#45;&gt;Node10 -->
<g id="edge14" class="edge">
<title>Node9&#45;&gt;Node10</title>
<path fill="none" stroke="midnightblue" d="M97.66,-112.32C84.84,-103.98 65.22,-91.21 50.06,-81.35"/>
<polygon fill="midnightblue" stroke="midnightblue" points="51.59,-78.17 41.3,-75.65 47.78,-84.04 51.59,-78.17"/>
</g>
<!-- Node12 -->
<g id="node12" class="node">
<title>Node12</title>
<g id="a_node12"><a xlink:href="mxquaddraw_8h.html" target="_top" xlink:title=" ">
<polygon fill="none" stroke="black" points="213.5,-224.5 213.5,-243.5 292.5,-243.5 292.5,-224.5 213.5,-224.5"/>
<text text-anchor="middle" x="253" y="-231.5" font-family="Helvetica,sans-Serif" font-size="10.00">mxquaddraw.h</text>
</a>
</g>
</g>
<!-- Node11&#45;&gt;Node12 -->
<g id="edge17" class="edge">
<title>Node11&#45;&gt;Node12</title>
<path fill="none" stroke="midnightblue" d="M252.17,-280.08C252.3,-273.01 252.48,-262.86 252.65,-253.99"/>
<polygon fill="midnightblue" stroke="midnightblue" points="256.15,-253.81 252.84,-243.75 249.15,-253.68 256.15,-253.81"/>
</g>
<!-- Node15 -->
<g id="node15" class="node">
<title>Node15</title>
<g id="a_node15"><a xlink:href="mxthemeicons_8h.html" target="_top" xlink:title=" ">
<polygon fill="none" stroke="black" points="310.5,-224.5 310.5,-243.5 397.5,-243.5 397.5,-224.5 310.5,-224.5"/>
<text text-anchor="middle" x="354" y="-231.5" font-family="Helvetica,sans-Serif" font-size="10.00">mxthemeicons.h</text>
</a>
</g>
</g>
<!-- Node11&#45;&gt;Node15 -->
<g id="edge23" class="edge">
<title>Node11&#45;&gt;Node15</title>
<path fill="none" stroke="midnightblue" d="M268.39,-280.32C284.67,-271.7 309.87,-258.36 328.72,-248.39"/>
<polygon fill="midnightblue" stroke="midnightblue" points="330.45,-251.43 337.65,-243.65 327.18,-245.24 330.45,-251.43"/>
</g>
<!-- Node12&#45;&gt;Node9 -->
<g id="edge22" class="edge">
<title>Node12&#45;&gt;Node9</title>
<path fill="none" stroke="midnightblue" d="M231.81,-224.39C213.8,-216.48 187.78,-203.63 168,-188 150.42,-174.1 133.96,-154.31 123.29,-140.22"/>
<polygon fill="midnightblue" stroke="midnightblue" points="125.91,-137.88 117.16,-131.91 120.28,-142.03 125.91,-137.88"/>
</g>
<!-- Node13 -->
<g id="node13" class="node">
<title>Node13</title>
<g id="a_node13"><a xlink:href="mxcachedgpuarray_8h.html" target="_top" xlink:title=" ">
<polygon fill="none" stroke="black" points="364.5,-168.5 364.5,-187.5 469.5,-187.5 469.5,-168.5 364.5,-168.5"/>
<text text-anchor="middle" x="417" y="-175.5" font-family="Helvetica,sans-Serif" font-size="10.00">mxcachedgpuarray.h</text>
</a>
</g>
</g>
<!-- Node12&#45;&gt;Node13 -->
<g id="edge18" class="edge">
<title>Node12&#45;&gt;Node13</title>
<path fill="none" stroke="midnightblue" d="M278.99,-224.44C306.7,-215.32 350.75,-200.81 381.62,-190.65"/>
<polygon fill="midnightblue" stroke="midnightblue" points="382.73,-193.97 391.14,-187.52 380.54,-187.32 382.73,-193.97"/>
</g>
<!-- Node14 -->
<g id="node14" class="node">
<title>Node14</title>
<g id="a_node14"><a xlink:href="opengl_2mxgpuarray_8h.html" target="_top" xlink:title=" ">
<polygon fill="none" stroke="black" points="466,-112.5 466,-131.5 540,-131.5 540,-112.5 466,-112.5"/>
<text text-anchor="middle" x="503" y="-119.5" font-family="Helvetica,sans-Serif" font-size="10.00">mxgpuarray.h</text>
</a>
</g>
</g>
<!-- Node13&#45;&gt;Node14 -->
<g id="edge19" class="edge">
<title>Node13&#45;&gt;Node14</title>
<path fill="none" stroke="midnightblue" d="M430.82,-168.32C444.23,-159.9 464.82,-146.97 480.59,-137.07"/>
<polygon fill="midnightblue" stroke="midnightblue" points="482.61,-139.94 489.22,-131.65 478.89,-134.01 482.61,-139.94"/>
</g>
<!-- Node14&#45;&gt;Node7 -->
<g id="edge20" class="edge">
<title>Node14&#45;&gt;Node7</title>
<path fill="none" stroke="midnightblue" d="M498.45,-112.37C488.96,-94.38 466.91,-52.55 454.29,-28.63"/>
<polygon fill="midnightblue" stroke="midnightblue" points="457.29,-26.8 449.53,-19.59 451.1,-30.07 457.29,-26.8"/>
</g>
<!-- Node14&#45;&gt;Node8 -->
<g id="edge21" class="edge">
<title>Node14&#45;&gt;Node8</title>
<path fill="none" stroke="midnightblue" d="M481.29,-112.44C458.65,-103.52 422.93,-89.44 397.25,-79.32"/>
<polygon fill="midnightblue" stroke="midnightblue" points="398.19,-75.93 387.61,-75.52 395.63,-82.44 398.19,-75.93"/>
</g>
</g>
</svg>
