<?xml version="1.0" encoding="UTF-8" standalone="no"?>
<!DOCTYPE svg PUBLIC "-//W3C//DTD SVG 1.1//EN"
 "http://www.w3.org/Graphics/SVG/1.1/DTD/svg11.dtd">
<!-- Generated by graphviz version 2.44.0 ()
 -->
<!-- Title: src/renderer/opengl/iconprogram/mxiconprogram.h Pages: 1 -->
<svg width="395pt" height="207pt"
 viewBox="0.00 0.00 394.78 207.00" xmlns="http://www.w3.org/2000/svg" xmlns:xlink="http://www.w3.org/1999/xlink">
<g id="graph0" class="graph" transform="scale(1 1) rotate(0) translate(4 203)">
<title>src/renderer/opengl/iconprogram/mxiconprogram.h</title>
<!-- Node1 -->
<g id="node1" class="node">
<title>Node1</title>
<g id="a_node1"><a xlink:title=" ">
<polygon fill="#bfbfbf" stroke="black" points="70.28,-168.5 70.28,-198.5 219.28,-198.5 219.28,-168.5 70.28,-168.5"/>
<text text-anchor="start" x="78.28" y="-186.5" font-family="Helvetica,sans-Serif" font-size="10.00">src/renderer/opengl</text>
<text text-anchor="middle" x="144.78" y="-175.5" font-family="Helvetica,sans-Serif" font-size="10.00">/iconprogram/mxiconprogram.h</text>
</a>
</g>
</g>
<!-- Node2 -->
<g id="node2" class="node">
<title>Node2</title>
<g id="a_node2"><a xlink:title=" ">
<polygon fill="none" stroke="#bfbfbf" points="133.28,-0.5 133.28,-19.5 196.28,-19.5 196.28,-0.5 133.28,-0.5"/>
<text text-anchor="middle" x="164.78" y="-7.5" font-family="Helvetica,sans-Serif" font-size="10.00">mxdebug.h</text>
</a>
</g>
</g>
<!-- Node1&#45;&gt;Node2 -->
<g id="edge1" class="edge">
<title>Node1&#45;&gt;Node2</title>
<path fill="none" stroke="midnightblue" d="M70.28,-170.11C48.8,-162.71 27.7,-150.88 14.78,-132 -4.29,-104.12 -5.38,-83.1 14.78,-56 39.52,-22.75 87.99,-13.14 123.16,-10.81"/>
<polygon fill="midnightblue" stroke="midnightblue" points="123.33,-14.3 133.14,-10.32 122.98,-7.31 123.33,-14.3"/>
</g>
<!-- Node3 -->
<g id="node3" class="node">
<title>Node3</title>
<g id="a_node3"><a xlink:href="mxmatrix_8h.html" target="_top" xlink:title=" ">
<polygon fill="none" stroke="black" points="23.28,-112.5 23.28,-131.5 86.28,-131.5 86.28,-112.5 23.28,-112.5"/>
<text text-anchor="middle" x="54.78" y="-119.5" font-family="Helvetica,sans-Serif" font-size="10.00">mxmatrix.h</text>
</a>
</g>
</g>
<!-- Node1&#45;&gt;Node3 -->
<g id="edge2" class="edge">
<title>Node1&#45;&gt;Node3</title>
<path fill="none" stroke="midnightblue" d="M123.45,-168.4C109.3,-159.04 90.77,-146.79 76.53,-137.38"/>
<polygon fill="midnightblue" stroke="midnightblue" points="78.15,-134.25 67.88,-131.66 74.29,-140.09 78.15,-134.25"/>
</g>
<!-- Node5 -->
<g id="node5" class="node">
<title>Node5</title>
<g id="a_node5"><a xlink:href="mxvector_8h.html" target="_top" xlink:title=" ">
<polygon fill="none" stroke="black" points="132.78,-56.5 132.78,-75.5 196.78,-75.5 196.78,-56.5 132.78,-56.5"/>
<text text-anchor="middle" x="164.78" y="-63.5" font-family="Helvetica,sans-Serif" font-size="10.00">mxvector.h</text>
</a>
</g>
</g>
<!-- Node1&#45;&gt;Node5 -->
<g id="edge4" class="edge">
<title>Node1&#45;&gt;Node5</title>
<path fill="none" stroke="midnightblue" d="M139.29,-168.45C134.46,-154.02 129.02,-131.05 134.78,-112 137.9,-101.7 144.23,-91.61 150.28,-83.6"/>
<polygon fill="midnightblue" stroke="midnightblue" points="153.01,-85.8 156.57,-75.82 147.56,-81.4 153.01,-85.8"/>
</g>
<!-- Node6 -->
<g id="node6" class="node">
<title>Node6</title>
<g id="a_node6"><a xlink:href="mxopengl_8h.html" target="_top" xlink:title=" ">
<polygon fill="none" stroke="black" points="143.28,-112.5 143.28,-131.5 208.28,-131.5 208.28,-112.5 143.28,-112.5"/>
<text text-anchor="middle" x="175.78" y="-119.5" font-family="Helvetica,sans-Serif" font-size="10.00">mxopengl.h</text>
</a>
</g>
</g>
<!-- Node1&#45;&gt;Node6 -->
<g id="edge6" class="edge">
<title>Node1&#45;&gt;Node6</title>
<path fill="none" stroke="midnightblue" d="M152.13,-168.4C156.45,-160.11 161.95,-149.55 166.56,-140.71"/>
<polygon fill="midnightblue" stroke="midnightblue" points="169.76,-142.14 171.27,-131.66 163.55,-138.91 169.76,-142.14"/>
</g>
<!-- Node7 -->
<g id="node7" class="node">
<title>Node7</title>
<g id="a_node7"><a xlink:title=" ">
<polygon fill="none" stroke="#bfbfbf" points="226.78,-112.5 226.78,-131.5 314.78,-131.5 314.78,-112.5 226.78,-112.5"/>
<text text-anchor="middle" x="270.78" y="-119.5" font-family="Helvetica,sans-Serif" font-size="10.00">mxgpuprogram.h</text>
</a>
</g>
</g>
<!-- Node1&#45;&gt;Node7 -->
<g id="edge7" class="edge">
<title>Node1&#45;&gt;Node7</title>
<path fill="none" stroke="midnightblue" d="M174.64,-168.4C195.41,-158.59 222.88,-145.62 243.14,-136.05"/>
<polygon fill="midnightblue" stroke="midnightblue" points="244.9,-139.09 252.45,-131.66 241.91,-132.76 244.9,-139.09"/>
</g>
<!-- Node8 -->
<g id="node8" class="node">
<title>Node8</title>
<g id="a_node8"><a xlink:href="mxrect_8h.html" target="_top" xlink:title=" ">
<polygon fill="none" stroke="black" points="332.28,-112.5 332.28,-131.5 385.28,-131.5 385.28,-112.5 332.28,-112.5"/>
<text text-anchor="middle" x="358.78" y="-119.5" font-family="Helvetica,sans-Serif" font-size="10.00">mxrect.h</text>
</a>
</g>
</g>
<!-- Node1&#45;&gt;Node8 -->
<g id="edge8" class="edge">
<title>Node1&#45;&gt;Node8</title>
<path fill="none" stroke="midnightblue" d="M195.23,-168.47C234.25,-157.62 287.37,-142.86 322.34,-133.13"/>
<polygon fill="midnightblue" stroke="midnightblue" points="323.43,-136.46 332.13,-130.41 321.56,-129.72 323.43,-136.46"/>
</g>
<!-- Node4 -->
<g id="node4" class="node">
<title>Node4</title>
<g id="a_node4"><a xlink:title=" ">
<polygon fill="none" stroke="#bfbfbf" points="23.28,-56.5 23.28,-75.5 88.28,-75.5 88.28,-56.5 23.28,-56.5"/>
<text text-anchor="middle" x="55.78" y="-63.5" font-family="Helvetica,sans-Serif" font-size="10.00">QMatrix4x4</text>
</a>
</g>
</g>
<!-- Node3&#45;&gt;Node4 -->
<g id="edge3" class="edge">
<title>Node3&#45;&gt;Node4</title>
<path fill="none" stroke="midnightblue" d="M54.95,-112.08C55.08,-105.01 55.27,-94.86 55.43,-85.99"/>
<polygon fill="midnightblue" stroke="midnightblue" points="58.93,-85.81 55.62,-75.75 51.94,-85.68 58.93,-85.81"/>
</g>
<!-- Node5&#45;&gt;Node2 -->
<g id="edge5" class="edge">
<title>Node5&#45;&gt;Node2</title>
<path fill="none" stroke="midnightblue" d="M164.78,-56.08C164.78,-49.01 164.78,-38.86 164.78,-29.99"/>
<polygon fill="midnightblue" stroke="midnightblue" points="168.28,-29.75 164.78,-19.75 161.28,-29.75 168.28,-29.75"/>
</g>
<!-- Node8&#45;&gt;Node2 -->
<g id="edge9" class="edge">
<title>Node8&#45;&gt;Node2</title>
<path fill="none" stroke="midnightblue" d="M343.56,-112.37C309.99,-93.33 229.36,-47.62 188.86,-24.65"/>
<polygon fill="midnightblue" stroke="midnightblue" points="190.36,-21.48 179.93,-19.59 186.91,-27.57 190.36,-21.48"/>
</g>
<!-- Node8&#45;&gt;Node5 -->
<g id="edge10" class="edge">
<title>Node8&#45;&gt;Node5</title>
<path fill="none" stroke="midnightblue" d="M332.21,-113.6C299.44,-104.48 243.41,-88.89 205.27,-78.27"/>
<polygon fill="midnightblue" stroke="midnightblue" points="206.07,-74.86 195.5,-75.55 204.2,-81.6 206.07,-74.86"/>
</g>
<!-- Node9 -->
<g id="node9" class="node">
<title>Node9</title>
<g id="a_node9"><a xlink:title=" ">
<polygon fill="none" stroke="#bfbfbf" points="330.78,-56.5 330.78,-75.5 386.78,-75.5 386.78,-56.5 330.78,-56.5"/>
<text text-anchor="middle" x="358.78" y="-63.5" font-family="Helvetica,sans-Serif" font-size="10.00">algorithm</text>
</a>
</g>
</g>
<!-- Node8&#45;&gt;Node9 -->
<g id="edge11" class="edge">
<title>Node8&#45;&gt;Node9</title>
<path fill="none" stroke="midnightblue" d="M358.78,-112.08C358.78,-105.01 358.78,-94.86 358.78,-85.99"/>
<polygon fill="midnightblue" stroke="midnightblue" points="362.28,-85.75 358.78,-75.75 355.28,-85.75 362.28,-85.75"/>
</g>
</g>
</svg>
