<?xml version="1.0" encoding="UTF-8" standalone="no"?>
<!DOCTYPE svg PUBLIC "-//W3C//DTD SVG 1.1//EN"
 "http://www.w3.org/Graphics/SVG/1.1/DTD/svg11.dtd">
<!-- Generated by graphviz version 2.44.0 ()
 -->
<!-- Title: src/renderer/opengl/iconprogram/mxiconprogram.h Pages: 1 -->
<svg width="448pt" height="207pt"
 viewBox="0.00 0.00 448.00 207.00" xmlns="http://www.w3.org/2000/svg" xmlns:xlink="http://www.w3.org/1999/xlink">
<g id="graph0" class="graph" transform="scale(1 1) rotate(0) translate(4 203)">
<title>src/renderer/opengl/iconprogram/mxiconprogram.h</title>
<!-- Node1 -->
<g id="node1" class="node">
<title>Node1</title>
<g id="a_node1"><a xlink:title=" ">
<polygon fill="#bfbfbf" stroke="black" points="142.5,-168.5 142.5,-198.5 291.5,-198.5 291.5,-168.5 142.5,-168.5"/>
<text text-anchor="start" x="150.5" y="-186.5" font-family="Helvetica,sans-Serif" font-size="10.00">src/renderer/opengl</text>
<text text-anchor="middle" x="217" y="-175.5" font-family="Helvetica,sans-Serif" font-size="10.00">/iconprogram/mxiconprogram.h</text>
</a>
</g>
</g>
<!-- Node2 -->
<g id="node2" class="node">
<title>Node2</title>
<g id="a_node2"><a xlink:title=" ">
<polygon fill="none" stroke="#bfbfbf" points="234.5,-0.5 234.5,-19.5 297.5,-19.5 297.5,-0.5 234.5,-0.5"/>
<text text-anchor="middle" x="266" y="-7.5" font-family="Helvetica,sans-Serif" font-size="10.00">mxdebug.h</text>
</a>
</g>
</g>
<!-- Node1&#45;&gt;Node2 -->
<g id="edge1" class="edge">
<title>Node1&#45;&gt;Node2</title>
<path fill="none" stroke="midnightblue" d="M221.01,-168.47C229.84,-137.57 250.95,-63.69 260.79,-29.25"/>
<polygon fill="midnightblue" stroke="midnightblue" points="264.17,-30.14 263.55,-19.56 257.44,-28.21 264.17,-30.14"/>
</g>
<!-- Node3 -->
<g id="node3" class="node">
<title>Node3</title>
<g id="a_node3"><a xlink:href="mxmatrix_8h.html" target="_top" xlink:title=" ">
<polygon fill="none" stroke="black" points="106.5,-112.5 106.5,-131.5 169.5,-131.5 169.5,-112.5 106.5,-112.5"/>
<text text-anchor="middle" x="138" y="-119.5" font-family="Helvetica,sans-Serif" font-size="10.00">mxmatrix.h</text>
</a>
</g>
</g>
<!-- Node1&#45;&gt;Node3 -->
<g id="edge2" class="edge">
<title>Node1&#45;&gt;Node3</title>
<path fill="none" stroke="midnightblue" d="M198.28,-168.4C186.09,-159.22 170.21,-147.26 157.81,-137.92"/>
<polygon fill="midnightblue" stroke="midnightblue" points="159.59,-134.88 149.5,-131.66 155.38,-140.47 159.59,-134.88"/>
</g>
<!-- Node4 -->
<g id="node4" class="node">
<title>Node4</title>
<g id="a_node4"><a xlink:href="mxvector_8h.html" target="_top" xlink:title=" ">
<polygon fill="none" stroke="black" points="264,-56.5 264,-75.5 328,-75.5 328,-56.5 264,-56.5"/>
<text text-anchor="middle" x="296" y="-63.5" font-family="Helvetica,sans-Serif" font-size="10.00">mxvector.h</text>
</a>
</g>
</g>
<!-- Node1&#45;&gt;Node4 -->
<g id="edge3" class="edge">
<title>Node1&#45;&gt;Node4</title>
<path fill="none" stroke="midnightblue" d="M226.69,-168.34C241.24,-147.05 268.72,-106.89 284.35,-84.03"/>
<polygon fill="midnightblue" stroke="midnightblue" points="287.31,-85.9 290.07,-75.67 281.54,-81.95 287.31,-85.9"/>
</g>
<!-- Node5 -->
<g id="node5" class="node">
<title>Node5</title>
<g id="a_node5"><a xlink:title=" ">
<polygon fill="none" stroke="#bfbfbf" points="125.5,-56.5 125.5,-75.5 190.5,-75.5 190.5,-56.5 125.5,-56.5"/>
<text text-anchor="middle" x="158" y="-63.5" font-family="Helvetica,sans-Serif" font-size="10.00">mxopengl.h</text>
</a>
</g>
</g>
<!-- Node1&#45;&gt;Node5 -->
<g id="edge5" class="edge">
<title>Node1&#45;&gt;Node5</title>
<path fill="none" stroke="midnightblue" d="M209.77,-168.34C198.99,-147.24 178.74,-107.6 167.02,-84.65"/>
<polygon fill="midnightblue" stroke="midnightblue" points="170.09,-82.98 162.43,-75.67 163.86,-86.17 170.09,-82.98"/>
</g>
<!-- Node6 -->
<g id="node6" class="node">
<title>Node6</title>
<g id="a_node6"><a xlink:href="mxgpuprogram_8h.html" target="_top" xlink:title=" ">
<polygon fill="none" stroke="black" points="0,-112.5 0,-131.5 88,-131.5 88,-112.5 0,-112.5"/>
<text text-anchor="middle" x="44" y="-119.5" font-family="Helvetica,sans-Serif" font-size="10.00">mxgpuprogram.h</text>
</a>
</g>
</g>
<!-- Node1&#45;&gt;Node6 -->
<g id="edge6" class="edge">
<title>Node1&#45;&gt;Node6</title>
<path fill="none" stroke="midnightblue" d="M176,-168.4C146.37,-158.21 106.77,-144.59 78.7,-134.93"/>
<polygon fill="midnightblue" stroke="midnightblue" points="79.52,-131.51 68.92,-131.57 77.24,-138.13 79.52,-131.51"/>
</g>
<!-- Node7 -->
<g id="node7" class="node">
<title>Node7</title>
<g id="a_node7"><a xlink:href="mxrect_8h.html" target="_top" xlink:title=" ">
<polygon fill="none" stroke="black" points="321.5,-112.5 321.5,-131.5 374.5,-131.5 374.5,-112.5 321.5,-112.5"/>
<text text-anchor="middle" x="348" y="-119.5" font-family="Helvetica,sans-Serif" font-size="10.00">mxrect.h</text>
</a>
</g>
</g>
<!-- Node1&#45;&gt;Node7 -->
<g id="edge9" class="edge">
<title>Node1&#45;&gt;Node7</title>
<path fill="none" stroke="midnightblue" d="M248.05,-168.4C269.73,-158.55 298.46,-145.5 319.55,-135.92"/>
<polygon fill="midnightblue" stroke="midnightblue" points="321.28,-138.98 328.94,-131.66 318.39,-132.61 321.28,-138.98"/>
</g>
<!-- Node4&#45;&gt;Node2 -->
<g id="edge4" class="edge">
<title>Node4&#45;&gt;Node2</title>
<path fill="none" stroke="midnightblue" d="M291.05,-56.08C286.9,-48.61 280.85,-37.72 275.73,-28.52"/>
<polygon fill="midnightblue" stroke="midnightblue" points="278.78,-26.79 270.86,-19.75 272.66,-30.19 278.78,-26.79"/>
</g>
<!-- Node6&#45;&gt;Node2 -->
<g id="edge7" class="edge">
<title>Node6&#45;&gt;Node2</title>
<path fill="none" stroke="midnightblue" d="M51.61,-112.09C63.96,-98.16 89.76,-71.25 117,-56 150.79,-37.08 193.44,-25.24 224.44,-18.49"/>
<polygon fill="midnightblue" stroke="midnightblue" points="225.41,-21.86 234.48,-16.39 223.97,-15.01 225.41,-21.86"/>
</g>
<!-- Node6&#45;&gt;Node5 -->
<g id="edge8" class="edge">
<title>Node6&#45;&gt;Node5</title>
<path fill="none" stroke="midnightblue" d="M62.06,-112.44C80.57,-103.68 109.58,-89.94 130.86,-79.86"/>
<polygon fill="midnightblue" stroke="midnightblue" points="132.48,-82.96 140.02,-75.52 129.49,-76.63 132.48,-82.96"/>
</g>
<!-- Node7&#45;&gt;Node2 -->
<g id="edge10" class="edge">
<title>Node7&#45;&gt;Node2</title>
<path fill="none" stroke="midnightblue" d="M348.67,-112.19C349.23,-98.88 348.53,-73.35 337,-56 327.59,-41.84 312.04,-31.25 297.89,-23.91"/>
<polygon fill="midnightblue" stroke="midnightblue" points="299.4,-20.76 288.87,-19.56 296.35,-27.06 299.4,-20.76"/>
</g>
<!-- Node7&#45;&gt;Node4 -->
<g id="edge11" class="edge">
<title>Node7&#45;&gt;Node4</title>
<path fill="none" stroke="midnightblue" d="M339.41,-112.08C331.84,-104.22 320.62,-92.57 311.49,-83.08"/>
<polygon fill="midnightblue" stroke="midnightblue" points="313.88,-80.53 304.43,-75.75 308.84,-85.38 313.88,-80.53"/>
</g>
<!-- Node8 -->
<g id="node8" class="node">
<title>Node8</title>
<g id="a_node8"><a xlink:title=" ">
<polygon fill="none" stroke="#bfbfbf" points="384,-56.5 384,-75.5 440,-75.5 440,-56.5 384,-56.5"/>
<text text-anchor="middle" x="412" y="-63.5" font-family="Helvetica,sans-Serif" font-size="10.00">algorithm</text>
</a>
</g>
</g>
<!-- Node7&#45;&gt;Node8 -->
<g id="edge12" class="edge">
<title>Node7&#45;&gt;Node8</title>
<path fill="none" stroke="midnightblue" d="M358.28,-112.32C367.84,-104.26 382.28,-92.08 393.78,-82.37"/>
<polygon fill="midnightblue" stroke="midnightblue" points="396.14,-84.96 401.53,-75.83 391.63,-79.61 396.14,-84.96"/>
</g>
</g>
</svg>
