<?xml version="1.0" encoding="UTF-8" standalone="no"?>
<!DOCTYPE svg PUBLIC "-//W3C//DTD SVG 1.1//EN"
 "http://www.w3.org/Graphics/SVG/1.1/DTD/svg11.dtd">
<!-- Generated by graphviz version 2.44.0 ()
 -->
<!-- Title: src/gui/icondraw/mxiconprogram.cpp Pages: 1 -->
<svg width="1023pt" height="420pt"
 viewBox="0.00 0.00 1023.16 420.00" xmlns="http://www.w3.org/2000/svg" xmlns:xlink="http://www.w3.org/1999/xlink">
<g id="graph0" class="graph" transform="scale(1 1) rotate(0) translate(4 416)">
<title>src/gui/icondraw/mxiconprogram.cpp</title>
<!-- Node1 -->
<g id="node1" class="node">
<title>Node1</title>
<g id="a_node1"><a xlink:title=" ">
<polygon fill="#bfbfbf" stroke="black" points="633,-392.5 633,-411.5 808,-411.5 808,-392.5 633,-392.5"/>
<text text-anchor="middle" x="720.5" y="-399.5" font-family="Helvetica,sans-Serif" font-size="10.00">src/gui/icondraw/mxiconprogram.cpp</text>
</a>
</g>
</g>
<!-- Node2 -->
<g id="node2" class="node">
<title>Node2</title>
<g id="a_node2"><a xlink:href="mxiconprogram_8h.html" target="_top" xlink:title=" ">
<polygon fill="none" stroke="black" points="619.5,-168.5 619.5,-187.5 709.5,-187.5 709.5,-168.5 619.5,-168.5"/>
<text text-anchor="middle" x="664.5" y="-175.5" font-family="Helvetica,sans-Serif" font-size="10.00">mxiconprogram.h</text>
</a>
</g>
</g>
<!-- Node1&#45;&gt;Node2 -->
<g id="edge1" class="edge">
<title>Node1&#45;&gt;Node2</title>
<path fill="none" stroke="midnightblue" d="M808.23,-398.02C876.69,-393.63 963.86,-382.79 986.5,-356 1024.37,-311.19 1025.01,-268.26 986.5,-224 952.61,-185.05 802.75,-178.79 719.95,-178.39"/>
<polygon fill="midnightblue" stroke="midnightblue" points="719.71,-174.89 709.71,-178.36 719.7,-181.89 719.71,-174.89"/>
</g>
<!-- Node9 -->
<g id="node9" class="node">
<title>Node9</title>
<g id="a_node9"><a xlink:href="mxrect_8h.html" target="_top" xlink:title=" ">
<polygon fill="none" stroke="black" points="400,-112.5 400,-131.5 453,-131.5 453,-112.5 400,-112.5"/>
<text text-anchor="middle" x="426.5" y="-119.5" font-family="Helvetica,sans-Serif" font-size="10.00">mxrect.h</text>
</a>
</g>
</g>
<!-- Node1&#45;&gt;Node9 -->
<g id="edge15" class="edge">
<title>Node1&#45;&gt;Node9</title>
<path fill="none" stroke="midnightblue" d="M751.14,-392.45C829.04,-369.31 1023.7,-301.95 953.5,-224 902.21,-167.05 685.26,-204.88 610.5,-188 554.01,-175.25 490.93,-150.55 455.24,-135.54"/>
<polygon fill="midnightblue" stroke="midnightblue" points="456.5,-132.27 445.93,-131.58 453.76,-138.71 456.5,-132.27"/>
</g>
<!-- Node11 -->
<g id="node11" class="node">
<title>Node11</title>
<g id="a_node11"><a xlink:href="mxicondraw_8h.html" target="_top" xlink:title=" ">
<polygon fill="none" stroke="black" points="102.5,-280.5 102.5,-299.5 178.5,-299.5 178.5,-280.5 102.5,-280.5"/>
<text text-anchor="middle" x="140.5" y="-287.5" font-family="Helvetica,sans-Serif" font-size="10.00">mxicondraw.h</text>
</a>
</g>
</g>
<!-- Node1&#45;&gt;Node11 -->
<g id="edge16" class="edge">
<title>Node1&#45;&gt;Node11</title>
<path fill="none" stroke="midnightblue" d="M654.79,-392.49C594.44,-384.34 502.65,-371.06 423.5,-356 337.95,-339.72 238.99,-315.81 183.68,-301.99"/>
<polygon fill="midnightblue" stroke="midnightblue" points="184.42,-298.56 173.87,-299.53 182.72,-305.35 184.42,-298.56"/>
</g>
<!-- Node16 -->
<g id="node16" class="node">
<title>Node16</title>
<g id="a_node16"><a xlink:href="mxrenderer_8h.html" target="_top" xlink:title=" ">
<polygon fill="none" stroke="black" points="432.5,-336.5 432.5,-355.5 504.5,-355.5 504.5,-336.5 432.5,-336.5"/>
<text text-anchor="middle" x="468.5" y="-343.5" font-family="Helvetica,sans-Serif" font-size="10.00">mxrenderer.h</text>
</a>
</g>
</g>
<!-- Node1&#45;&gt;Node16 -->
<g id="edge24" class="edge">
<title>Node1&#45;&gt;Node16</title>
<path fill="none" stroke="midnightblue" d="M680.57,-392.44C635.45,-382.77 562.11,-367.06 514.59,-356.88"/>
<polygon fill="midnightblue" stroke="midnightblue" points="515.08,-353.4 504.57,-354.73 513.61,-360.25 515.08,-353.4"/>
</g>
<!-- Node3 -->
<g id="node3" class="node">
<title>Node3</title>
<g id="a_node3"><a xlink:title=" ">
<polygon fill="none" stroke="#bfbfbf" points="542,-0.5 542,-19.5 605,-19.5 605,-0.5 542,-0.5"/>
<text text-anchor="middle" x="573.5" y="-7.5" font-family="Helvetica,sans-Serif" font-size="10.00">mxdebug.h</text>
</a>
</g>
</g>
<!-- Node2&#45;&gt;Node3 -->
<g id="edge2" class="edge">
<title>Node2&#45;&gt;Node3</title>
<path fill="none" stroke="midnightblue" d="M672.41,-168.3C690.57,-147.25 731.7,-92.62 705.5,-56 685.12,-27.52 645.63,-16.86 615.13,-12.97"/>
<polygon fill="midnightblue" stroke="midnightblue" points="615.49,-9.49 605.17,-11.9 614.74,-16.45 615.49,-9.49"/>
</g>
<!-- Node4 -->
<g id="node4" class="node">
<title>Node4</title>
<g id="a_node4"><a xlink:href="mxmatrix_8h.html" target="_top" xlink:title=" ">
<polygon fill="none" stroke="black" points="472,-112.5 472,-131.5 535,-131.5 535,-112.5 472,-112.5"/>
<text text-anchor="middle" x="503.5" y="-119.5" font-family="Helvetica,sans-Serif" font-size="10.00">mxmatrix.h</text>
</a>
</g>
</g>
<!-- Node2&#45;&gt;Node4 -->
<g id="edge3" class="edge">
<title>Node2&#45;&gt;Node4</title>
<path fill="none" stroke="midnightblue" d="M638.99,-168.44C611.9,-159.36 568.91,-144.94 538.63,-134.78"/>
<polygon fill="midnightblue" stroke="midnightblue" points="539.49,-131.38 528.89,-131.52 537.26,-138.01 539.49,-131.38"/>
</g>
<!-- Node6 -->
<g id="node6" class="node">
<title>Node6</title>
<g id="a_node6"><a xlink:href="mxvector_8h.html" target="_top" xlink:title=" ">
<polygon fill="none" stroke="black" points="632.5,-56.5 632.5,-75.5 696.5,-75.5 696.5,-56.5 632.5,-56.5"/>
<text text-anchor="middle" x="664.5" y="-63.5" font-family="Helvetica,sans-Serif" font-size="10.00">mxvector.h</text>
</a>
</g>
</g>
<!-- Node2&#45;&gt;Node6 -->
<g id="edge5" class="edge">
<title>Node2&#45;&gt;Node6</title>
<path fill="none" stroke="midnightblue" d="M664.5,-168.37C664.5,-150.62 664.5,-109.67 664.5,-85.6"/>
<polygon fill="midnightblue" stroke="midnightblue" points="668,-85.59 664.5,-75.59 661,-85.59 668,-85.59"/>
</g>
<!-- Node7 -->
<g id="node7" class="node">
<title>Node7</title>
<g id="a_node7"><a xlink:href="mxopengl_8h.html" target="_top" xlink:title=" ">
<polygon fill="none" stroke="black" points="219,-0.5 219,-19.5 284,-19.5 284,-0.5 219,-0.5"/>
<text text-anchor="middle" x="251.5" y="-7.5" font-family="Helvetica,sans-Serif" font-size="10.00">mxopengl.h</text>
</a>
</g>
</g>
<!-- Node2&#45;&gt;Node7 -->
<g id="edge7" class="edge">
<title>Node2&#45;&gt;Node7</title>
<path fill="none" stroke="midnightblue" d="M661.75,-168.45C653.96,-145.73 629.41,-83.72 585.5,-56 537.91,-25.96 373.26,-15.66 294.33,-12.39"/>
<polygon fill="midnightblue" stroke="midnightblue" points="294.37,-8.89 284.24,-11.99 294.09,-15.88 294.37,-8.89"/>
</g>
<!-- Node8 -->
<g id="node8" class="node">
<title>Node8</title>
<g id="a_node8"><a xlink:href="mxshaderprogram_8h.html" target="_top" xlink:title=" ">
<polygon fill="none" stroke="black" points="241,-56.5 241,-75.5 342,-75.5 342,-56.5 241,-56.5"/>
<text text-anchor="middle" x="291.5" y="-63.5" font-family="Helvetica,sans-Serif" font-size="10.00">mxshaderprogram.h</text>
</a>
</g>
</g>
<!-- Node2&#45;&gt;Node8 -->
<g id="edge8" class="edge">
<title>Node2&#45;&gt;Node8</title>
<path fill="none" stroke="midnightblue" d="M651.82,-168.34C630.6,-154.26 586.1,-126.54 544.5,-112 480.93,-89.78 404.37,-78.12 352.24,-72.29"/>
<polygon fill="midnightblue" stroke="midnightblue" points="352.47,-68.8 342.15,-71.2 351.72,-75.76 352.47,-68.8"/>
</g>
<!-- Node2&#45;&gt;Node9 -->
<g id="edge11" class="edge">
<title>Node2&#45;&gt;Node9</title>
<path fill="none" stroke="midnightblue" d="M625.17,-168.42C584.61,-159.52 519.56,-145.09 463.5,-132 463.4,-131.98 463.29,-131.95 463.19,-131.93"/>
<polygon fill="midnightblue" stroke="midnightblue" points="463.7,-128.45 453.16,-129.55 462.08,-135.26 463.7,-128.45"/>
</g>
<!-- Node5 -->
<g id="node5" class="node">
<title>Node5</title>
<g id="a_node5"><a xlink:title=" ">
<polygon fill="none" stroke="#bfbfbf" points="511,-56.5 511,-75.5 576,-75.5 576,-56.5 511,-56.5"/>
<text text-anchor="middle" x="543.5" y="-63.5" font-family="Helvetica,sans-Serif" font-size="10.00">QMatrix4x4</text>
</a>
</g>
</g>
<!-- Node4&#45;&gt;Node5 -->
<g id="edge4" class="edge">
<title>Node4&#45;&gt;Node5</title>
<path fill="none" stroke="midnightblue" d="M510.11,-112.08C515.76,-104.46 524.04,-93.26 530.95,-83.94"/>
<polygon fill="midnightblue" stroke="midnightblue" points="533.88,-85.87 537.02,-75.75 528.25,-81.7 533.88,-85.87"/>
</g>
<!-- Node6&#45;&gt;Node3 -->
<g id="edge6" class="edge">
<title>Node6&#45;&gt;Node3</title>
<path fill="none" stroke="midnightblue" d="M649.88,-56.32C635.55,-47.82 613.49,-34.73 596.75,-24.8"/>
<polygon fill="midnightblue" stroke="midnightblue" points="598.47,-21.75 588.08,-19.65 594.9,-27.77 598.47,-21.75"/>
</g>
<!-- Node8&#45;&gt;Node3 -->
<g id="edge9" class="edge">
<title>Node8&#45;&gt;Node3</title>
<path fill="none" stroke="midnightblue" d="M336.18,-56.44C389.91,-46.16 479.37,-29.02 531.75,-18.99"/>
<polygon fill="midnightblue" stroke="midnightblue" points="532.55,-22.4 541.72,-17.09 531.24,-15.53 532.55,-22.4"/>
</g>
<!-- Node8&#45;&gt;Node7 -->
<g id="edge10" class="edge">
<title>Node8&#45;&gt;Node7</title>
<path fill="none" stroke="midnightblue" d="M284.89,-56.08C279.24,-48.46 270.96,-37.26 264.05,-27.94"/>
<polygon fill="midnightblue" stroke="midnightblue" points="266.75,-25.7 257.98,-19.75 261.12,-29.87 266.75,-25.7"/>
</g>
<!-- Node9&#45;&gt;Node3 -->
<g id="edge12" class="edge">
<title>Node9&#45;&gt;Node3</title>
<path fill="none" stroke="midnightblue" d="M435.97,-112.12C450,-99.16 477.36,-74.57 502.5,-56 517.81,-44.69 535.95,-33.22 550.06,-24.7"/>
<polygon fill="midnightblue" stroke="midnightblue" points="551.89,-27.68 558.68,-19.55 548.3,-21.67 551.89,-27.68"/>
</g>
<!-- Node9&#45;&gt;Node6 -->
<g id="edge13" class="edge">
<title>Node9&#45;&gt;Node6</title>
<path fill="none" stroke="midnightblue" d="M453.16,-114.45C456.64,-113.62 460.15,-112.78 463.5,-112 518.39,-99.18 581.9,-85.09 622.6,-76.15"/>
<polygon fill="midnightblue" stroke="midnightblue" points="623.41,-79.55 632.43,-73.99 621.91,-72.71 623.41,-79.55"/>
</g>
<!-- Node10 -->
<g id="node10" class="node">
<title>Node10</title>
<g id="a_node10"><a xlink:title=" ">
<polygon fill="none" stroke="#bfbfbf" points="398.5,-56.5 398.5,-75.5 454.5,-75.5 454.5,-56.5 398.5,-56.5"/>
<text text-anchor="middle" x="426.5" y="-63.5" font-family="Helvetica,sans-Serif" font-size="10.00">algorithm</text>
</a>
</g>
</g>
<!-- Node9&#45;&gt;Node10 -->
<g id="edge14" class="edge">
<title>Node9&#45;&gt;Node10</title>
<path fill="none" stroke="midnightblue" d="M426.5,-112.08C426.5,-105.01 426.5,-94.86 426.5,-85.99"/>
<polygon fill="midnightblue" stroke="midnightblue" points="430,-85.75 426.5,-75.75 423,-85.75 430,-85.75"/>
</g>
<!-- Node12 -->
<g id="node12" class="node">
<title>Node12</title>
<g id="a_node12"><a xlink:href="mxquaddraw_8h.html" target="_top" xlink:title=" ">
<polygon fill="none" stroke="black" points="0,-224.5 0,-243.5 79,-243.5 79,-224.5 0,-224.5"/>
<text text-anchor="middle" x="39.5" y="-231.5" font-family="Helvetica,sans-Serif" font-size="10.00">mxquaddraw.h</text>
</a>
</g>
</g>
<!-- Node11&#45;&gt;Node12 -->
<g id="edge17" class="edge">
<title>Node11&#45;&gt;Node12</title>
<path fill="none" stroke="midnightblue" d="M124.27,-280.32C108.15,-271.7 83.2,-258.36 64.54,-248.39"/>
<polygon fill="midnightblue" stroke="midnightblue" points="66.16,-245.28 55.69,-243.65 62.86,-251.46 66.16,-245.28"/>
</g>
<!-- Node15 -->
<g id="node15" class="node">
<title>Node15</title>
<g id="a_node15"><a xlink:href="mxthemeicons_8h.html" target="_top" xlink:title=" ">
<polygon fill="none" stroke="black" points="97,-224.5 97,-243.5 184,-243.5 184,-224.5 97,-224.5"/>
<text text-anchor="middle" x="140.5" y="-231.5" font-family="Helvetica,sans-Serif" font-size="10.00">mxthemeicons.h</text>
</a>
</g>
</g>
<!-- Node11&#45;&gt;Node15 -->
<g id="edge23" class="edge">
<title>Node11&#45;&gt;Node15</title>
<path fill="none" stroke="midnightblue" d="M140.5,-280.08C140.5,-273.01 140.5,-262.86 140.5,-253.99"/>
<polygon fill="midnightblue" stroke="midnightblue" points="144,-253.75 140.5,-243.75 137,-253.75 144,-253.75"/>
</g>
<!-- Node12&#45;&gt;Node9 -->
<g id="edge22" class="edge">
<title>Node12&#45;&gt;Node9</title>
<path fill="none" stroke="midnightblue" d="M48.67,-224.36C64.44,-210.07 98.3,-181.7 132.5,-168 220.09,-132.92 332.42,-124.99 389.55,-123.33"/>
<polygon fill="midnightblue" stroke="midnightblue" points="389.98,-126.82 399.89,-123.08 389.81,-119.82 389.98,-126.82"/>
</g>
<!-- Node13 -->
<g id="node13" class="node">
<title>Node13</title>
<g id="a_node13"><a xlink:href="gpubuffer_8h.html" target="_top" xlink:title=" ">
<polygon fill="none" stroke="black" points="141.5,-168.5 141.5,-187.5 205.5,-187.5 205.5,-168.5 141.5,-168.5"/>
<text text-anchor="middle" x="173.5" y="-175.5" font-family="Helvetica,sans-Serif" font-size="10.00">gpubuffer.h</text>
</a>
</g>
</g>
<!-- Node12&#45;&gt;Node13 -->
<g id="edge18" class="edge">
<title>Node12&#45;&gt;Node13</title>
<path fill="none" stroke="midnightblue" d="M60.73,-224.44C82.88,-215.52 117.82,-201.44 142.94,-191.32"/>
<polygon fill="midnightblue" stroke="midnightblue" points="144.4,-194.5 152.37,-187.52 141.78,-188.01 144.4,-194.5"/>
</g>
<!-- Node14 -->
<g id="node14" class="node">
<title>Node14</title>
<g id="a_node14"><a xlink:href="gpuvbo_8h.html" target="_top" xlink:title=" ">
<polygon fill="none" stroke="black" points="128.5,-112.5 128.5,-131.5 184.5,-131.5 184.5,-112.5 128.5,-112.5"/>
<text text-anchor="middle" x="156.5" y="-119.5" font-family="Helvetica,sans-Serif" font-size="10.00">gpuvbo.h</text>
</a>
</g>
</g>
<!-- Node13&#45;&gt;Node14 -->
<g id="edge19" class="edge">
<title>Node13&#45;&gt;Node14</title>
<path fill="none" stroke="midnightblue" d="M170.69,-168.08C168.42,-160.85 165.13,-150.41 162.29,-141.4"/>
<polygon fill="midnightblue" stroke="midnightblue" points="165.6,-140.24 159.25,-131.75 158.92,-142.34 165.6,-140.24"/>
</g>
<!-- Node14&#45;&gt;Node7 -->
<g id="edge20" class="edge">
<title>Node14&#45;&gt;Node7</title>
<path fill="none" stroke="midnightblue" d="M160.96,-112.45C167.95,-99.48 182.37,-74.38 198.5,-56 208.2,-44.94 220.68,-34.21 231.09,-26.01"/>
<polygon fill="midnightblue" stroke="midnightblue" points="233.44,-28.62 239.24,-19.76 229.18,-23.06 233.44,-28.62"/>
</g>
<!-- Node14&#45;&gt;Node8 -->
<g id="edge21" class="edge">
<title>Node14&#45;&gt;Node8</title>
<path fill="none" stroke="midnightblue" d="M177.89,-112.44C200.21,-103.52 235.4,-89.44 260.71,-79.32"/>
<polygon fill="midnightblue" stroke="midnightblue" points="262.22,-82.48 270.21,-75.52 259.62,-75.98 262.22,-82.48"/>
</g>
<!-- Node16&#45;&gt;Node2 -->
<g id="edge46" class="edge">
<title>Node16&#45;&gt;Node2</title>
<path fill="none" stroke="midnightblue" d="M467.05,-336.34C463.92,-314.41 459,-256.17 488.5,-224 504.75,-206.28 564.07,-193.7 609.4,-186.43"/>
<polygon fill="midnightblue" stroke="midnightblue" points="610.08,-189.87 619.42,-184.87 609,-182.95 610.08,-189.87"/>
</g>
<!-- Node16&#45;&gt;Node13 -->
<g id="edge45" class="edge">
<title>Node16&#45;&gt;Node13</title>
<path fill="none" stroke="midnightblue" d="M432.17,-339.86C397.36,-333.88 344.12,-321.89 302.5,-300 252.2,-273.55 207.21,-222.1 186.14,-195.62"/>
<polygon fill="midnightblue" stroke="midnightblue" points="188.84,-193.41 179.93,-187.67 183.33,-197.71 188.84,-193.41"/>
</g>
<!-- Node17 -->
<g id="node17" class="node">
<title>Node17</title>
<g id="a_node17"><a xlink:href="mxopenglfunctions_8h.html" target="_top" xlink:title=" ">
<polygon fill="none" stroke="black" points="760,-280.5 760,-299.5 865,-299.5 865,-280.5 760,-280.5"/>
<text text-anchor="middle" x="812.5" y="-287.5" font-family="Helvetica,sans-Serif" font-size="10.00">mxopenglfunctions.h</text>
</a>
</g>
</g>
<!-- Node16&#45;&gt;Node17 -->
<g id="edge25" class="edge">
<title>Node16&#45;&gt;Node17</title>
<path fill="none" stroke="midnightblue" d="M504.66,-339.32C562.78,-330.2 677.72,-312.16 749.52,-300.89"/>
<polygon fill="midnightblue" stroke="midnightblue" points="750.46,-304.28 759.79,-299.27 749.37,-297.37 750.46,-304.28"/>
</g>
<!-- Node19 -->
<g id="node19" class="node">
<title>Node19</title>
<g id="a_node19"><a xlink:href="mxcolorwheelprogram_8h.html" target="_top" xlink:title=" ">
<polygon fill="none" stroke="black" points="279,-168.5 279,-187.5 398,-187.5 398,-168.5 279,-168.5"/>
<text text-anchor="middle" x="338.5" y="-175.5" font-family="Helvetica,sans-Serif" font-size="10.00">mxcolorwheelprogram.h</text>
</a>
</g>
</g>
<!-- Node16&#45;&gt;Node19 -->
<g id="edge27" class="edge">
<title>Node16&#45;&gt;Node19</title>
<path fill="none" stroke="midnightblue" d="M432.43,-338.38C393.68,-330.54 335.63,-316.46 320.5,-300 297.36,-274.82 298.59,-256.73 308.5,-224 311.62,-213.7 317.95,-203.61 324,-195.6"/>
<polygon fill="midnightblue" stroke="midnightblue" points="326.73,-197.8 330.29,-187.82 321.28,-193.4 326.73,-197.8"/>
</g>
<!-- Node20 -->
<g id="node20" class="node">
<title>Node20</title>
<g id="a_node20"><a xlink:href="mxvectorprogram_8h.html" target="_top" xlink:title=" ">
<polygon fill="none" stroke="black" points="329,-280.5 329,-299.5 428,-299.5 428,-280.5 329,-280.5"/>
<text text-anchor="middle" x="378.5" y="-287.5" font-family="Helvetica,sans-Serif" font-size="10.00">mxvectorprogram.h</text>
</a>
</g>
</g>
<!-- Node16&#45;&gt;Node20 -->
<g id="edge33" class="edge">
<title>Node16&#45;&gt;Node20</title>
<path fill="none" stroke="midnightblue" d="M454.04,-336.32C440,-327.9 418.45,-314.97 401.96,-305.07"/>
<polygon fill="midnightblue" stroke="midnightblue" points="403.3,-301.8 392.92,-299.65 399.7,-307.8 403.3,-301.8"/>
</g>
<!-- Node22 -->
<g id="node22" class="node">
<title>Node22</title>
<g id="a_node22"><a xlink:href="mxlist_8h.html" target="_top" xlink:title=" ">
<polygon fill="none" stroke="black" points="591.5,-280.5 591.5,-299.5 641.5,-299.5 641.5,-280.5 591.5,-280.5"/>
<text text-anchor="middle" x="616.5" y="-287.5" font-family="Helvetica,sans-Serif" font-size="10.00">mxlist.h</text>
</a>
</g>
</g>
<!-- Node16&#45;&gt;Node22 -->
<g id="edge39" class="edge">
<title>Node16&#45;&gt;Node22</title>
<path fill="none" stroke="midnightblue" d="M491.95,-336.44C516.63,-327.44 555.69,-313.19 583.48,-303.05"/>
<polygon fill="midnightblue" stroke="midnightblue" points="584.96,-306.23 593.16,-299.52 582.56,-299.66 584.96,-306.23"/>
</g>
<!-- Node18 -->
<g id="node18" class="node">
<title>Node18</title>
<g id="a_node18"><a xlink:title=" ">
<polygon fill="none" stroke="#bfbfbf" points="819,-224.5 819,-243.5 944,-243.5 944,-224.5 819,-224.5"/>
<text text-anchor="middle" x="881.5" y="-231.5" font-family="Helvetica,sans-Serif" font-size="10.00">QOpenGLExtraFunctions</text>
</a>
</g>
</g>
<!-- Node17&#45;&gt;Node18 -->
<g id="edge26" class="edge">
<title>Node17&#45;&gt;Node18</title>
<path fill="none" stroke="midnightblue" d="M823.59,-280.32C833.99,-272.18 849.76,-259.84 862.22,-250.09"/>
<polygon fill="midnightblue" stroke="midnightblue" points="864.49,-252.75 870.21,-243.83 860.18,-247.24 864.49,-252.75"/>
</g>
<!-- Node19&#45;&gt;Node3 -->
<g id="edge28" class="edge">
<title>Node19&#45;&gt;Node3</title>
<path fill="none" stroke="midnightblue" d="M339.49,-168.44C342.52,-146.25 353.76,-86.46 389.5,-56 429.33,-22.05 490.75,-12.92 531.52,-10.87"/>
<polygon fill="midnightblue" stroke="midnightblue" points="531.81,-14.36 541.67,-10.49 531.55,-7.37 531.81,-14.36"/>
</g>
<!-- Node19&#45;&gt;Node4 -->
<g id="edge31" class="edge">
<title>Node19&#45;&gt;Node4</title>
<path fill="none" stroke="midnightblue" d="M364.64,-168.44C392.52,-159.32 436.85,-144.81 467.9,-134.65"/>
<polygon fill="midnightblue" stroke="midnightblue" points="469.06,-137.95 477.48,-131.52 466.88,-131.3 469.06,-137.95"/>
</g>
<!-- Node19&#45;&gt;Node7 -->
<g id="edge29" class="edge">
<title>Node19&#45;&gt;Node7</title>
<path fill="none" stroke="midnightblue" d="M323.63,-168.47C299.15,-153.45 251.22,-119.69 232.5,-76 225.79,-60.35 232.76,-41.6 240.07,-28.27"/>
<polygon fill="midnightblue" stroke="midnightblue" points="243.11,-30.01 245.27,-19.64 237.11,-26.4 243.11,-30.01"/>
</g>
<!-- Node19&#45;&gt;Node8 -->
<g id="edge30" class="edge">
<title>Node19&#45;&gt;Node8</title>
<path fill="none" stroke="midnightblue" d="M334.81,-168.37C327.16,-150.46 309.41,-108.92 299.17,-84.95"/>
<polygon fill="midnightblue" stroke="midnightblue" points="302.32,-83.41 295.17,-75.59 295.88,-86.16 302.32,-83.41"/>
</g>
<!-- Node19&#45;&gt;Node9 -->
<g id="edge32" class="edge">
<title>Node19&#45;&gt;Node9</title>
<path fill="none" stroke="midnightblue" d="M352.64,-168.32C366.37,-159.9 387.44,-146.97 403.56,-137.07"/>
<polygon fill="midnightblue" stroke="midnightblue" points="405.7,-139.87 412.4,-131.65 402.04,-133.9 405.7,-139.87"/>
</g>
<!-- Node20&#45;&gt;Node4 -->
<g id="edge35" class="edge">
<title>Node20&#45;&gt;Node4</title>
<path fill="none" stroke="midnightblue" d="M385.22,-280.08C405.24,-253.49 464.69,-174.54 490.88,-139.76"/>
<polygon fill="midnightblue" stroke="midnightblue" points="493.83,-141.66 497.05,-131.57 488.24,-137.45 493.83,-141.66"/>
</g>
<!-- Node20&#45;&gt;Node8 -->
<g id="edge34" class="edge">
<title>Node20&#45;&gt;Node8</title>
<path fill="none" stroke="midnightblue" d="M361.01,-280.35C345.95,-272.32 324.22,-259.33 308.5,-244 286.97,-223 279.33,-216.75 270.5,-188 259.54,-152.32 273.39,-108.84 283.25,-84.93"/>
<polygon fill="midnightblue" stroke="midnightblue" points="286.49,-86.25 287.27,-75.68 280.07,-83.46 286.49,-86.25"/>
</g>
<!-- Node21 -->
<g id="node21" class="node">
<title>Node21</title>
<g id="a_node21"><a xlink:href="mxvectordraw_8h.html" target="_top" xlink:title=" ">
<polygon fill="none" stroke="black" points="317,-224.5 317,-243.5 402,-243.5 402,-224.5 317,-224.5"/>
<text text-anchor="middle" x="359.5" y="-231.5" font-family="Helvetica,sans-Serif" font-size="10.00">mxvectordraw.h</text>
</a>
</g>
</g>
<!-- Node20&#45;&gt;Node21 -->
<g id="edge36" class="edge">
<title>Node20&#45;&gt;Node21</title>
<path fill="none" stroke="midnightblue" d="M375.36,-280.08C372.82,-272.85 369.14,-262.41 365.97,-253.4"/>
<polygon fill="midnightblue" stroke="midnightblue" points="369.2,-252.02 362.58,-243.75 362.6,-254.35 369.2,-252.02"/>
</g>
<!-- Node21&#45;&gt;Node9 -->
<g id="edge38" class="edge">
<title>Node21&#45;&gt;Node9</title>
<path fill="none" stroke="midnightblue" d="M371.9,-224.4C382.79,-216.23 398.29,-202.99 407.5,-188 416.25,-173.76 421.14,-155.28 423.76,-141.67"/>
<polygon fill="midnightblue" stroke="midnightblue" points="427.25,-142.03 425.46,-131.58 420.35,-140.86 427.25,-142.03"/>
</g>
<!-- Node21&#45;&gt;Node13 -->
<g id="edge37" class="edge">
<title>Node21&#45;&gt;Node13</title>
<path fill="none" stroke="midnightblue" d="M330.03,-224.44C298.33,-215.24 247.77,-200.56 212.73,-190.39"/>
<polygon fill="midnightblue" stroke="midnightblue" points="213.41,-186.94 202.83,-187.52 211.46,-193.67 213.41,-186.94"/>
</g>
<!-- Node22&#45;&gt;Node3 -->
<g id="edge40" class="edge">
<title>Node22&#45;&gt;Node3</title>
<path fill="none" stroke="midnightblue" d="M641.64,-288.8C675.74,-287.14 736.4,-279.04 771.5,-244 792.8,-222.74 790.5,-209.1 790.5,-179 790.5,-179 790.5,-179 790.5,-121 790.5,-43.18 678.1,-20.4 615.09,-13.74"/>
<polygon fill="midnightblue" stroke="midnightblue" points="615.34,-10.25 605.05,-12.77 614.67,-17.22 615.34,-10.25"/>
</g>
<!-- Node23 -->
<g id="node23" class="node">
<title>Node23</title>
<g id="a_node23"><a xlink:href="mxrefcounter_8h.html" target="_top" xlink:title=" ">
<polygon fill="none" stroke="black" points="682.5,-224.5 682.5,-243.5 762.5,-243.5 762.5,-224.5 682.5,-224.5"/>
<text text-anchor="middle" x="722.5" y="-231.5" font-family="Helvetica,sans-Serif" font-size="10.00">mxrefcounter.h</text>
</a>
</g>
</g>
<!-- Node22&#45;&gt;Node23 -->
<g id="edge41" class="edge">
<title>Node22&#45;&gt;Node23</title>
<path fill="none" stroke="midnightblue" d="M633.53,-280.32C650.53,-271.66 676.88,-258.24 696.49,-248.25"/>
<polygon fill="midnightblue" stroke="midnightblue" points="698.19,-251.31 705.51,-243.65 695.01,-245.08 698.19,-251.31"/>
</g>
<!-- Node24 -->
<g id="node24" class="node">
<title>Node24</title>
<g id="a_node24"><a xlink:title=" ">
<polygon fill="none" stroke="#bfbfbf" points="497,-224.5 497,-243.5 544,-243.5 544,-224.5 497,-224.5"/>
<text text-anchor="middle" x="520.5" y="-231.5" font-family="Helvetica,sans-Serif" font-size="10.00">stdlib.h</text>
</a>
</g>
</g>
<!-- Node22&#45;&gt;Node24 -->
<g id="edge42" class="edge">
<title>Node22&#45;&gt;Node24</title>
<path fill="none" stroke="midnightblue" d="M601.08,-280.32C585.96,-271.82 562.68,-258.73 545.03,-248.8"/>
<polygon fill="midnightblue" stroke="midnightblue" points="546.32,-245.51 535.89,-243.65 542.89,-251.61 546.32,-245.51"/>
</g>
<!-- Node25 -->
<g id="node25" class="node">
<title>Node25</title>
<g id="a_node25"><a xlink:title=" ">
<polygon fill="none" stroke="#bfbfbf" points="562.5,-224.5 562.5,-243.5 610.5,-243.5 610.5,-224.5 562.5,-224.5"/>
<text text-anchor="middle" x="586.5" y="-231.5" font-family="Helvetica,sans-Serif" font-size="10.00">string.h</text>
</a>
</g>
</g>
<!-- Node22&#45;&gt;Node25 -->
<g id="edge43" class="edge">
<title>Node22&#45;&gt;Node25</title>
<path fill="none" stroke="midnightblue" d="M611.55,-280.08C607.4,-272.61 601.35,-261.72 596.23,-252.52"/>
<polygon fill="midnightblue" stroke="midnightblue" points="599.28,-250.79 591.36,-243.75 593.16,-254.19 599.28,-250.79"/>
</g>
<!-- Node26 -->
<g id="node26" class="node">
<title>Node26</title>
<g id="a_node26"><a xlink:title=" ">
<polygon fill="none" stroke="#bfbfbf" points="629,-224.5 629,-243.5 664,-243.5 664,-224.5 629,-224.5"/>
<text text-anchor="middle" x="646.5" y="-231.5" font-family="Helvetica,sans-Serif" font-size="10.00">new</text>
</a>
</g>
</g>
<!-- Node22&#45;&gt;Node26 -->
<g id="edge44" class="edge">
<title>Node22&#45;&gt;Node26</title>
<path fill="none" stroke="midnightblue" d="M621.45,-280.08C625.6,-272.61 631.65,-261.72 636.77,-252.52"/>
<polygon fill="midnightblue" stroke="midnightblue" points="639.84,-254.19 641.64,-243.75 633.72,-250.79 639.84,-254.19"/>
</g>
</g>
</svg>
