<?xml version="1.0" encoding="UTF-8" standalone="no"?>
<!DOCTYPE svg PUBLIC "-//W3C//DTD SVG 1.1//EN"
 "http://www.w3.org/Graphics/SVG/1.1/DTD/svg11.dtd">
<!-- Generated by graphviz version 2.44.0 ()
 -->
<!-- Title: src/containers/mxlist.h Pages: 1 -->
<svg width="2067pt" height="352pt"
 viewBox="0.00 0.00 2067.00 352.00" xmlns="http://www.w3.org/2000/svg" xmlns:xlink="http://www.w3.org/1999/xlink">
<g id="graph0" class="graph" transform="scale(1 1) rotate(0) translate(4 348)">
<title>src/containers/mxlist.h</title>
<!-- Node1 -->
<g id="node1" class="node">
<title>Node1</title>
<g id="a_node1"><a xlink:title=" ">
<polygon fill="#bfbfbf" stroke="black" points="400,-324.5 400,-343.5 514,-343.5 514,-324.5 400,-324.5"/>
<text text-anchor="middle" x="457" y="-331.5" font-family="Helvetica,sans-Serif" font-size="10.00">src/containers/mxlist.h</text>
</a>
</g>
</g>
<!-- Node2 -->
<g id="node2" class="node">
<title>Node2</title>
<g id="a_node2"><a xlink:href="mxpainter_8h.html" target="_top" xlink:title=" ">
<polygon fill="none" stroke="black" points="458,-196 458,-215 556,-215 556,-196 458,-196"/>
<text text-anchor="middle" x="507" y="-203" font-family="Helvetica,sans-Serif" font-size="10.00">src/gui/mxpainter.h</text>
</a>
</g>
</g>
<!-- Node1&#45;&gt;Node2 -->
<g id="edge1" class="edge">
<title>Node1&#45;&gt;Node2</title>
<path fill="none" stroke="midnightblue" d="M464.24,-314.67C475.17,-287.03 495.45,-235.72 503.54,-215.26"/>
<polygon fill="midnightblue" stroke="midnightblue" points="460.86,-313.72 460.44,-324.31 467.37,-316.29 460.86,-313.72"/>
</g>
<!-- Node8 -->
<g id="node8" class="node">
<title>Node8</title>
<g id="a_node8"><a xlink:href="mxwidgetlist_8h.html" target="_top" xlink:title=" ">
<polygon fill="none" stroke="black" points="178,-196 178,-215 288,-215 288,-196 178,-196"/>
<text text-anchor="middle" x="233" y="-203" font-family="Helvetica,sans-Serif" font-size="10.00">src/gui/mxwidgetlist.h</text>
</a>
</g>
</g>
<!-- Node1&#45;&gt;Node8 -->
<g id="edge8" class="edge">
<title>Node1&#45;&gt;Node8</title>
<path fill="none" stroke="midnightblue" d="M432.83,-319.35C386.5,-293.18 286.38,-236.65 248.21,-215.09"/>
<polygon fill="midnightblue" stroke="midnightblue" points="431.18,-322.44 441.6,-324.31 434.62,-316.34 431.18,-322.44"/>
</g>
<!-- Node12 -->
<g id="node12" class="node">
<title>Node12</title>
<g id="a_node12"><a xlink:href="mxiconatlas_8h.html" target="_top" xlink:title=" ">
<polygon fill="none" stroke="black" points="306,-196 306,-215 440,-215 440,-196 306,-196"/>
<text text-anchor="middle" x="373" y="-203" font-family="Helvetica,sans-Serif" font-size="10.00">src/iconatlas/mxiconatlas.h</text>
</a>
</g>
</g>
<!-- Node1&#45;&gt;Node12 -->
<g id="edge14" class="edge">
<title>Node1&#45;&gt;Node12</title>
<path fill="none" stroke="midnightblue" d="M445.55,-315.76C427.38,-288.4 392.58,-235.99 378.81,-215.26"/>
<polygon fill="midnightblue" stroke="midnightblue" points="442.78,-317.91 451.23,-324.31 448.61,-314.04 442.78,-317.91"/>
</g>
<!-- Node14 -->
<g id="node14" class="node">
<title>Node14</title>
<g id="a_node14"><a xlink:href="mxrenderer_8h.html" target="_top" xlink:title=" ">
<polygon fill="none" stroke="black" points="1152,-257.5 1152,-287.5 1252,-287.5 1252,-257.5 1152,-257.5"/>
<text text-anchor="start" x="1160" y="-275.5" font-family="Helvetica,sans-Serif" font-size="10.00">src/renderer/opengl</text>
<text text-anchor="middle" x="1202" y="-264.5" font-family="Helvetica,sans-Serif" font-size="10.00">/mxrenderer.h</text>
</a>
</g>
</g>
<!-- Node1&#45;&gt;Node14 -->
<g id="edge17" class="edge">
<title>Node1&#45;&gt;Node14</title>
<path fill="none" stroke="midnightblue" d="M524.5,-327.61C672.15,-315.82 1021.04,-287.95 1151.56,-277.53"/>
<polygon fill="midnightblue" stroke="midnightblue" points="523.91,-324.14 514.22,-328.43 524.47,-331.12 523.91,-324.14"/>
</g>
<!-- Node3 -->
<g id="node3" class="node">
<title>Node3</title>
<g id="a_node3"><a xlink:href="mxapplication_8h.html" target="_top" xlink:title=" ">
<polygon fill="none" stroke="black" points="470,-134.5 470,-153.5 602,-153.5 602,-134.5 470,-134.5"/>
<text text-anchor="middle" x="536" y="-141.5" font-family="Helvetica,sans-Serif" font-size="10.00">src/events/mxapplication.h</text>
</a>
</g>
</g>
<!-- Node2&#45;&gt;Node3 -->
<g id="edge2" class="edge">
<title>Node2&#45;&gt;Node3</title>
<path fill="none" stroke="midnightblue" d="M515.61,-186.83C520.97,-175.83 527.63,-162.16 531.85,-153.51"/>
<polygon fill="midnightblue" stroke="midnightblue" points="512.39,-185.45 511.15,-195.98 518.68,-188.52 512.39,-185.45"/>
</g>
<!-- Node7 -->
<g id="node7" class="node">
<title>Node7</title>
<g id="a_node7"><a xlink:href="mxpainter_8cpp.html" target="_top" xlink:title=" ">
<polygon fill="none" stroke="black" points="631.5,-134.5 631.5,-153.5 740.5,-153.5 740.5,-134.5 631.5,-134.5"/>
<text text-anchor="middle" x="686" y="-141.5" font-family="Helvetica,sans-Serif" font-size="10.00">src/gui/mxpainter.cpp</text>
</a>
</g>
</g>
<!-- Node2&#45;&gt;Node7 -->
<g id="edge7" class="edge">
<title>Node2&#45;&gt;Node7</title>
<path fill="none" stroke="midnightblue" d="M542.4,-192.73C577.2,-181.17 629.45,-163.8 660.4,-153.51"/>
<polygon fill="midnightblue" stroke="midnightblue" points="541.03,-189.5 532.65,-195.98 543.24,-196.14 541.03,-189.5"/>
</g>
<!-- Node4 -->
<g id="node4" class="node">
<title>Node4</title>
<g id="a_node4"><a xlink:href="mxapplication_8cpp.html" target="_top" xlink:title=" ">
<polygon fill="none" stroke="black" points="293.5,-73 293.5,-92 436.5,-92 436.5,-73 293.5,-73"/>
<text text-anchor="middle" x="365" y="-80" font-family="Helvetica,sans-Serif" font-size="10.00">src/events/mxapplication.cpp</text>
</a>
</g>
</g>
<!-- Node3&#45;&gt;Node4 -->
<g id="edge3" class="edge">
<title>Node3&#45;&gt;Node4</title>
<path fill="none" stroke="midnightblue" d="M501.75,-131.08C468.51,-119.52 418.89,-102.25 389.45,-92.01"/>
<polygon fill="midnightblue" stroke="midnightblue" points="500.91,-134.49 511.5,-134.48 503.21,-127.88 500.91,-134.49"/>
</g>
<!-- Node5 -->
<g id="node5" class="node">
<title>Node5</title>
<g id="a_node5"><a xlink:href="qmewawindow_8cpp.html" target="_top" xlink:title=" ">
<polygon fill="none" stroke="black" points="498,-0.5 498,-30.5 614,-30.5 614,-0.5 498,-0.5"/>
<text text-anchor="start" x="506" y="-18.5" font-family="Helvetica,sans-Serif" font-size="10.00">src/platformabstraction</text>
<text text-anchor="middle" x="556" y="-7.5" font-family="Helvetica,sans-Serif" font-size="10.00">/qt/qmewawindow.cpp</text>
</a>
</g>
</g>
<!-- Node3&#45;&gt;Node5 -->
<g id="edge4" class="edge">
<title>Node3&#45;&gt;Node5</title>
<path fill="none" stroke="midnightblue" d="M556.71,-127.95C565.67,-120.14 575.2,-109.77 580,-98 589.35,-75.05 576.1,-47.13 565.87,-30.64"/>
<polygon fill="midnightblue" stroke="midnightblue" points="554.35,-125.36 548.78,-134.37 558.75,-130.8 554.35,-125.36"/>
</g>
<!-- Node6 -->
<g id="node6" class="node">
<title>Node6</title>
<g id="a_node6"><a xlink:href="qmewawindow_8h.html" target="_top" xlink:title=" ">
<polygon fill="none" stroke="black" points="455,-67.5 455,-97.5 571,-97.5 571,-67.5 455,-67.5"/>
<text text-anchor="start" x="463" y="-85.5" font-family="Helvetica,sans-Serif" font-size="10.00">src/platformabstraction</text>
<text text-anchor="middle" x="513" y="-74.5" font-family="Helvetica,sans-Serif" font-size="10.00">/qt/qmewawindow.h</text>
</a>
</g>
</g>
<!-- Node3&#45;&gt;Node6 -->
<g id="edge5" class="edge">
<title>Node3&#45;&gt;Node6</title>
<path fill="none" stroke="midnightblue" d="M529.08,-125.1C525.67,-116.27 521.61,-105.77 518.42,-97.52"/>
<polygon fill="midnightblue" stroke="midnightblue" points="525.83,-126.41 532.7,-134.48 532.36,-123.89 525.83,-126.41"/>
</g>
<!-- Node6&#45;&gt;Node5 -->
<g id="edge6" class="edge">
<title>Node6&#45;&gt;Node5</title>
<path fill="none" stroke="midnightblue" d="M527.97,-58.87C534.2,-49.46 541.23,-38.83 546.69,-30.58"/>
<polygon fill="midnightblue" stroke="midnightblue" points="524.93,-57.12 522.33,-67.4 530.77,-60.99 524.93,-57.12"/>
</g>
<!-- Node8&#45;&gt;Node3 -->
<g id="edge9" class="edge">
<title>Node8&#45;&gt;Node3</title>
<path fill="none" stroke="midnightblue" d="M279.36,-193.79C285.29,-192.48 291.28,-191.19 297,-190 362.94,-176.33 439.49,-162.22 487.83,-153.53"/>
<polygon fill="midnightblue" stroke="midnightblue" points="278.5,-190.39 269.5,-195.99 280.02,-197.22 278.5,-190.39"/>
</g>
<!-- Node9 -->
<g id="node9" class="node">
<title>Node9</title>
<g id="a_node9"><a xlink:href="mxwidget_8h.html" target="_top" xlink:title=" ">
<polygon fill="none" stroke="black" points="152,-134.5 152,-153.5 250,-153.5 250,-134.5 152,-134.5"/>
<text text-anchor="middle" x="201" y="-141.5" font-family="Helvetica,sans-Serif" font-size="10.00">src/gui/mxwidget.h</text>
</a>
</g>
</g>
<!-- Node8&#45;&gt;Node9 -->
<g id="edge10" class="edge">
<title>Node8&#45;&gt;Node9</title>
<path fill="none" stroke="midnightblue" d="M223.5,-186.83C217.58,-175.83 210.23,-162.16 205.58,-153.51"/>
<polygon fill="midnightblue" stroke="midnightblue" points="220.6,-188.83 228.42,-195.98 226.76,-185.51 220.6,-188.83"/>
</g>
<!-- Node9&#45;&gt;Node4 -->
<g id="edge11" class="edge">
<title>Node9&#45;&gt;Node4</title>
<path fill="none" stroke="midnightblue" d="M234.26,-130.93C266.14,-119.37 313.43,-102.21 341.55,-92.01"/>
<polygon fill="midnightblue" stroke="midnightblue" points="232.7,-127.77 224.5,-134.48 235.09,-134.35 232.7,-127.77"/>
</g>
<!-- Node10 -->
<g id="node10" class="node">
<title>Node10</title>
<g id="a_node10"><a xlink:href="mxmouseevent_8cpp.html" target="_top" xlink:title=" ">
<polygon fill="none" stroke="black" points="126.5,-73 126.5,-92 275.5,-92 275.5,-73 126.5,-73"/>
<text text-anchor="middle" x="201" y="-80" font-family="Helvetica,sans-Serif" font-size="10.00">src/events/mxmouseevent.cpp</text>
</a>
</g>
</g>
<!-- Node9&#45;&gt;Node10 -->
<g id="edge12" class="edge">
<title>Node9&#45;&gt;Node10</title>
<path fill="none" stroke="midnightblue" d="M201,-124.32C201,-113.5 201,-100.4 201,-92.01"/>
<polygon fill="midnightblue" stroke="midnightblue" points="197.5,-124.48 201,-134.48 204.5,-124.48 197.5,-124.48"/>
</g>
<!-- Node11 -->
<g id="node11" class="node">
<title>Node11</title>
<g id="a_node11"><a xlink:href="mxwidget_8cpp.html" target="_top" xlink:title=" ">
<polygon fill="none" stroke="black" points="0,-73 0,-92 108,-92 108,-73 0,-73"/>
<text text-anchor="middle" x="54" y="-80" font-family="Helvetica,sans-Serif" font-size="10.00">src/gui/mxwidget.cpp</text>
</a>
</g>
</g>
<!-- Node9&#45;&gt;Node11 -->
<g id="edge13" class="edge">
<title>Node9&#45;&gt;Node11</title>
<path fill="none" stroke="midnightblue" d="M170.44,-130.63C141.88,-119.07 100,-102.12 75.02,-92.01"/>
<polygon fill="midnightblue" stroke="midnightblue" points="169.36,-133.97 179.94,-134.48 171.98,-127.48 169.36,-133.97"/>
</g>
<!-- Node12&#45;&gt;Node6 -->
<g id="edge16" class="edge">
<title>Node12&#45;&gt;Node6</title>
<path fill="none" stroke="midnightblue" d="M341.36,-191.69C313.23,-178.44 279.11,-156.55 297,-134 299.51,-130.83 391.75,-110.07 454.87,-96.18"/>
<polygon fill="midnightblue" stroke="midnightblue" points="340.03,-194.93 350.59,-195.84 342.91,-188.55 340.03,-194.93"/>
</g>
<!-- Node13 -->
<g id="node13" class="node">
<title>Node13</title>
<g id="a_node13"><a xlink:href="mxiconatlas_8cpp.html" target="_top" xlink:title=" ">
<polygon fill="none" stroke="black" points="306.5,-134.5 306.5,-153.5 451.5,-153.5 451.5,-134.5 306.5,-134.5"/>
<text text-anchor="middle" x="379" y="-141.5" font-family="Helvetica,sans-Serif" font-size="10.00">src/iconatlas/mxiconatlas.cpp</text>
</a>
</g>
</g>
<!-- Node12&#45;&gt;Node13 -->
<g id="edge15" class="edge">
<title>Node12&#45;&gt;Node13</title>
<path fill="none" stroke="midnightblue" d="M374.88,-185.82C375.98,-175 377.3,-161.9 378.14,-153.51"/>
<polygon fill="midnightblue" stroke="midnightblue" points="371.38,-185.67 373.86,-195.98 378.35,-186.38 371.38,-185.67"/>
</g>
<!-- Node14&#45;&gt;Node12 -->
<g id="edge24" class="edge">
<title>Node14&#45;&gt;Node12</title>
<path fill="none" stroke="midnightblue" d="M1141.56,-269.94C1013.42,-266.08 705.22,-253.91 449,-221 437.14,-219.48 424.34,-217.26 412.69,-215.02"/>
<polygon fill="midnightblue" stroke="midnightblue" points="1141.47,-273.44 1151.57,-270.23 1141.67,-266.44 1141.47,-273.44"/>
</g>
<!-- Node15 -->
<g id="node15" class="node">
<title>Node15</title>
<g id="a_node15"><a xlink:href="mxguirenderer_8h.html" target="_top" xlink:title=" ">
<polygon fill="none" stroke="black" points="770.5,-196 770.5,-215 887.5,-215 887.5,-196 770.5,-196"/>
<text text-anchor="middle" x="829" y="-203" font-family="Helvetica,sans-Serif" font-size="10.00">src/gui/mxguirenderer.h</text>
</a>
</g>
</g>
<!-- Node14&#45;&gt;Node15 -->
<g id="edge18" class="edge">
<title>Node14&#45;&gt;Node15</title>
<path fill="none" stroke="midnightblue" d="M1142.01,-262.4C1080.4,-252.86 981.8,-237.05 897,-221 887.39,-219.18 877.06,-217.06 867.42,-215.01"/>
<polygon fill="midnightblue" stroke="midnightblue" points="1141.53,-265.87 1151.95,-263.94 1142.6,-258.95 1141.53,-265.87"/>
</g>
<!-- Node17 -->
<g id="node17" class="node">
<title>Node17</title>
<g id="a_node17"><a xlink:href="mxicondraw_8cpp.html" target="_top" xlink:title=" ">
<polygon fill="none" stroke="black" points="905.5,-196 905.5,-215 1024.5,-215 1024.5,-196 905.5,-196"/>
<text text-anchor="middle" x="965" y="-203" font-family="Helvetica,sans-Serif" font-size="10.00">src/gui/mxicondraw.cpp</text>
</a>
</g>
</g>
<!-- Node14&#45;&gt;Node17 -->
<g id="edge22" class="edge">
<title>Node14&#45;&gt;Node17</title>
<path fill="none" stroke="midnightblue" d="M1141.81,-254.99C1095.46,-242.28 1033.26,-225.22 996.33,-215.09"/>
<polygon fill="midnightblue" stroke="midnightblue" points="1141.17,-258.45 1151.74,-257.72 1143.02,-251.69 1141.17,-258.45"/>
</g>
<!-- Node18 -->
<g id="node18" class="node">
<title>Node18</title>
<g id="a_node18"><a xlink:href="mxvectordraw_8cpp.html" target="_top" xlink:title=" ">
<polygon fill="none" stroke="black" points="1043,-196 1043,-215 1171,-215 1171,-196 1043,-196"/>
<text text-anchor="middle" x="1107" y="-203" font-family="Helvetica,sans-Serif" font-size="10.00">src/gui/mxvectordraw.cpp</text>
</a>
</g>
</g>
<!-- Node14&#45;&gt;Node18 -->
<g id="edge23" class="edge">
<title>Node14&#45;&gt;Node18</title>
<path fill="none" stroke="midnightblue" d="M1172.98,-251.64C1155.05,-239.37 1132.96,-224.26 1119.43,-215.01"/>
<polygon fill="midnightblue" stroke="midnightblue" points="1171.16,-254.64 1181.39,-257.4 1175.11,-248.86 1171.16,-254.64"/>
</g>
<!-- Node19 -->
<g id="node19" class="node">
<title>Node19</title>
<g id="a_node19"><a xlink:href="mxcolorwheelprogram_8cpp.html" target="_top" xlink:title=" ">
<polygon fill="none" stroke="black" points="1189.5,-190.5 1189.5,-220.5 1406.5,-220.5 1406.5,-190.5 1189.5,-190.5"/>
<text text-anchor="start" x="1197.5" y="-208.5" font-family="Helvetica,sans-Serif" font-size="10.00">src/renderer/opengl</text>
<text text-anchor="middle" x="1298" y="-197.5" font-family="Helvetica,sans-Serif" font-size="10.00">/colorwheelprogram/mxcolorwheelprogram.cpp</text>
</a>
</g>
</g>
<!-- Node14&#45;&gt;Node19 -->
<g id="edge25" class="edge">
<title>Node14&#45;&gt;Node19</title>
<path fill="none" stroke="midnightblue" d="M1231.19,-251.73C1246.05,-241.68 1263.76,-229.68 1277.21,-220.58"/>
<polygon fill="midnightblue" stroke="midnightblue" points="1229.15,-248.89 1222.83,-257.4 1233.07,-254.69 1229.15,-248.89"/>
</g>
<!-- Node20 -->
<g id="node20" class="node">
<title>Node20</title>
<g id="a_node20"><a xlink:href="mxiconprogram_8cpp.html" target="_top" xlink:title=" ">
<polygon fill="none" stroke="black" points="1425,-190.5 1425,-220.5 1585,-220.5 1585,-190.5 1425,-190.5"/>
<text text-anchor="start" x="1433" y="-208.5" font-family="Helvetica,sans-Serif" font-size="10.00">src/renderer/opengl</text>
<text text-anchor="middle" x="1505" y="-197.5" font-family="Helvetica,sans-Serif" font-size="10.00">/iconprogram/mxiconprogram.cpp</text>
</a>
</g>
</g>
<!-- Node14&#45;&gt;Node20 -->
<g id="edge26" class="edge">
<title>Node14&#45;&gt;Node20</title>
<path fill="none" stroke="midnightblue" d="M1261.97,-258.64C1313.2,-247.64 1386.77,-231.86 1439.53,-220.55"/>
<polygon fill="midnightblue" stroke="midnightblue" points="1261.08,-255.25 1252.03,-260.77 1262.55,-262.09 1261.08,-255.25"/>
</g>
<!-- Node21 -->
<g id="node21" class="node">
<title>Node21</title>
<g id="a_node21"><a xlink:href="mxgpuarray_8cpp.html" target="_top" xlink:title=" ">
<polygon fill="none" stroke="black" points="1603,-190.5 1603,-220.5 1703,-220.5 1703,-190.5 1603,-190.5"/>
<text text-anchor="start" x="1611" y="-208.5" font-family="Helvetica,sans-Serif" font-size="10.00">src/renderer/opengl</text>
<text text-anchor="middle" x="1653" y="-197.5" font-family="Helvetica,sans-Serif" font-size="10.00">/mxgpuarray.cpp</text>
</a>
</g>
</g>
<!-- Node14&#45;&gt;Node21 -->
<g id="edge27" class="edge">
<title>Node14&#45;&gt;Node21</title>
<path fill="none" stroke="midnightblue" d="M1262.12,-265.88C1339.34,-258.18 1477.32,-242.78 1594,-221 1596.9,-220.46 1599.88,-219.86 1602.87,-219.23"/>
<polygon fill="midnightblue" stroke="midnightblue" points="1261.7,-262.41 1252.1,-266.87 1262.39,-269.37 1261.7,-262.41"/>
</g>
<!-- Node22 -->
<g id="node22" class="node">
<title>Node22</title>
<g id="a_node22"><a xlink:href="mxgpuprogram_8cpp.html" target="_top" xlink:title=" ">
<polygon fill="none" stroke="black" points="1721.5,-190.5 1721.5,-220.5 1822.5,-220.5 1822.5,-190.5 1721.5,-190.5"/>
<text text-anchor="start" x="1729.5" y="-208.5" font-family="Helvetica,sans-Serif" font-size="10.00">src/renderer/opengl</text>
<text text-anchor="middle" x="1772" y="-197.5" font-family="Helvetica,sans-Serif" font-size="10.00">/mxgpuprogram.cpp</text>
</a>
</g>
</g>
<!-- Node14&#45;&gt;Node22 -->
<g id="edge28" class="edge">
<title>Node14&#45;&gt;Node22</title>
<path fill="none" stroke="midnightblue" d="M1262.34,-268.24C1358.15,-262.45 1550.76,-248.33 1712,-221 1715.06,-220.48 1718.2,-219.89 1721.36,-219.26"/>
<polygon fill="midnightblue" stroke="midnightblue" points="1262.03,-264.75 1252.26,-268.84 1262.45,-271.74 1262.03,-264.75"/>
</g>
<!-- Node23 -->
<g id="node23" class="node">
<title>Node23</title>
<g id="a_node23"><a xlink:href="mxrenderer_8cpp.html" target="_top" xlink:title=" ">
<polygon fill="none" stroke="black" points="1841,-190.5 1841,-220.5 1941,-220.5 1941,-190.5 1841,-190.5"/>
<text text-anchor="start" x="1849" y="-208.5" font-family="Helvetica,sans-Serif" font-size="10.00">src/renderer/opengl</text>
<text text-anchor="middle" x="1891" y="-197.5" font-family="Helvetica,sans-Serif" font-size="10.00">/mxrenderer.cpp</text>
</a>
</g>
</g>
<!-- Node14&#45;&gt;Node23 -->
<g id="edge29" class="edge">
<title>Node14&#45;&gt;Node23</title>
<path fill="none" stroke="midnightblue" d="M1262.29,-269.89C1374.89,-266.18 1624.55,-254.58 1832,-221 1834.92,-220.53 1837.9,-219.99 1840.9,-219.39"/>
<polygon fill="midnightblue" stroke="midnightblue" points="1262.03,-266.4 1252.15,-270.22 1262.25,-273.4 1262.03,-266.4"/>
</g>
<!-- Node24 -->
<g id="node24" class="node">
<title>Node24</title>
<g id="a_node24"><a xlink:href="mxtexture_8cpp.html" target="_top" xlink:title=" ">
<polygon fill="none" stroke="black" points="1959,-190.5 1959,-220.5 2059,-220.5 2059,-190.5 1959,-190.5"/>
<text text-anchor="start" x="1967" y="-208.5" font-family="Helvetica,sans-Serif" font-size="10.00">src/renderer/opengl</text>
<text text-anchor="middle" x="2009" y="-197.5" font-family="Helvetica,sans-Serif" font-size="10.00">/mxtexture.cpp</text>
</a>
</g>
</g>
<!-- Node14&#45;&gt;Node24 -->
<g id="edge30" class="edge">
<title>Node14&#45;&gt;Node24</title>
<path fill="none" stroke="midnightblue" d="M1262.58,-270.96C1390.38,-269.05 1696.68,-260.37 1950,-221 1952.92,-220.55 1955.9,-220.02 1958.91,-219.44"/>
<polygon fill="midnightblue" stroke="midnightblue" points="1262.18,-267.47 1252.23,-271.11 1262.28,-274.47 1262.18,-267.47"/>
</g>
<!-- Node25 -->
<g id="node25" class="node">
<title>Node25</title>
<g id="a_node25"><a xlink:href="mxvectorprogram_8cpp.html" target="_top" xlink:title=" ">
<polygon fill="none" stroke="black" points="574,-190.5 574,-220.5 752,-220.5 752,-190.5 574,-190.5"/>
<text text-anchor="start" x="582" y="-208.5" font-family="Helvetica,sans-Serif" font-size="10.00">src/renderer/opengl</text>
<text text-anchor="middle" x="663" y="-197.5" font-family="Helvetica,sans-Serif" font-size="10.00">/vectorprogram/mxvectorprogram.cpp</text>
</a>
</g>
</g>
<!-- Node14&#45;&gt;Node25 -->
<g id="edge31" class="edge">
<title>Node14&#45;&gt;Node25</title>
<path fill="none" stroke="midnightblue" d="M1141.82,-265.19C1057.02,-256.17 897.54,-238.7 762,-221 758.73,-220.57 755.4,-220.13 752.03,-219.67"/>
<polygon fill="midnightblue" stroke="midnightblue" points="1141.47,-268.68 1151.79,-266.25 1142.21,-261.72 1141.47,-268.68"/>
</g>
<!-- Node15&#45;&gt;Node3 -->
<g id="edge19" class="edge">
<title>Node15&#45;&gt;Node3</title>
<path fill="none" stroke="midnightblue" d="M779.24,-193.81C773.1,-192.52 766.91,-191.22 761,-190 698,-176.98 624.94,-162.48 579.59,-153.55"/>
<polygon fill="midnightblue" stroke="midnightblue" points="778.96,-197.33 789.46,-195.98 780.41,-190.48 778.96,-197.33"/>
</g>
<!-- Node15&#45;&gt;Node7 -->
<g id="edge21" class="edge">
<title>Node15&#45;&gt;Node7</title>
<path fill="none" stroke="midnightblue" d="M799.27,-192.13C771.49,-180.57 730.75,-163.62 706.45,-153.51"/>
<polygon fill="midnightblue" stroke="midnightblue" points="797.93,-195.36 808.51,-195.98 800.62,-188.9 797.93,-195.36"/>
</g>
<!-- Node16 -->
<g id="node16" class="node">
<title>Node16</title>
<g id="a_node16"><a xlink:href="mxguirenderer_8cpp.html" target="_top" xlink:title=" ">
<polygon fill="none" stroke="black" points="765,-134.5 765,-153.5 893,-153.5 893,-134.5 765,-134.5"/>
<text text-anchor="middle" x="829" y="-141.5" font-family="Helvetica,sans-Serif" font-size="10.00">src/gui/mxguirenderer.cpp</text>
</a>
</g>
</g>
<!-- Node15&#45;&gt;Node16 -->
<g id="edge20" class="edge">
<title>Node15&#45;&gt;Node16</title>
<path fill="none" stroke="midnightblue" d="M829,-185.82C829,-175 829,-161.9 829,-153.51"/>
<polygon fill="midnightblue" stroke="midnightblue" points="825.5,-185.98 829,-195.98 832.5,-185.98 825.5,-185.98"/>
</g>
</g>
</svg>
