<?xml version="1.0" encoding="UTF-8" standalone="no"?>
<!DOCTYPE svg PUBLIC "-//W3C//DTD SVG 1.1//EN"
 "http://www.w3.org/Graphics/SVG/1.1/DTD/svg11.dtd">
<!-- Generated by graphviz version 2.44.0 ()
 -->
<!-- Title: src/containers/mxlist.h Pages: 1 -->
<svg width="1528pt" height="318pt"
 viewBox="0.00 0.00 1527.50 318.00" xmlns="http://www.w3.org/2000/svg" xmlns:xlink="http://www.w3.org/1999/xlink">
<g id="graph0" class="graph" transform="scale(1 1) rotate(0) translate(4 314)">
<title>src/containers/mxlist.h</title>
<!-- Node1 -->
<g id="node1" class="node">
<title>Node1</title>
<g id="a_node1"><a xlink:title=" ">
<polygon fill="#bfbfbf" stroke="black" points="760.5,-290.5 760.5,-309.5 874.5,-309.5 874.5,-290.5 760.5,-290.5"/>
<text text-anchor="middle" x="817.5" y="-297.5" font-family="Helvetica,sans-Serif" font-size="10.00">src/containers/mxlist.h</text>
</a>
</g>
</g>
<!-- Node2 -->
<g id="node2" class="node">
<title>Node2</title>
<g id="a_node2"><a xlink:href="mxpainter_8h.html" target="_top" xlink:title=" ">
<polygon fill="none" stroke="black" points="609.5,-229 609.5,-248 707.5,-248 707.5,-229 609.5,-229"/>
<text text-anchor="middle" x="658.5" y="-236" font-family="Helvetica,sans-Serif" font-size="10.00">src/gui/mxpainter.h</text>
</a>
</g>
</g>
<!-- Node1&#45;&gt;Node2 -->
<g id="edge1" class="edge">
<title>Node1&#45;&gt;Node2</title>
<path fill="none" stroke="midnightblue" d="M785.25,-286.93C754.35,-275.37 708.49,-258.21 681.24,-248.01"/>
<polygon fill="midnightblue" stroke="midnightblue" points="784.13,-290.25 794.72,-290.48 786.58,-283.69 784.13,-290.25"/>
</g>
<!-- Node11 -->
<g id="node11" class="node">
<title>Node11</title>
<g id="a_node11"><a xlink:href="mxwidgetlist_8h.html" target="_top" xlink:title=" ">
<polygon fill="none" stroke="black" points="464.5,-229 464.5,-248 574.5,-248 574.5,-229 464.5,-229"/>
<text text-anchor="middle" x="519.5" y="-236" font-family="Helvetica,sans-Serif" font-size="10.00">src/gui/mxwidgetlist.h</text>
</a>
</g>
</g>
<!-- Node1&#45;&gt;Node11 -->
<g id="edge11" class="edge">
<title>Node1&#45;&gt;Node11</title>
<path fill="none" stroke="midnightblue" d="M764.78,-288.47C707.03,-276.94 615.52,-258.67 562.12,-248.01"/>
<polygon fill="midnightblue" stroke="midnightblue" points="764.31,-291.95 774.8,-290.48 765.68,-285.08 764.31,-291.95"/>
</g>
<!-- Node15 -->
<g id="node15" class="node">
<title>Node15</title>
<g id="a_node15"><a xlink:href="mxiconatlas_8h.html" target="_top" xlink:title=" ">
<polygon fill="none" stroke="black" points="750.5,-229 750.5,-248 884.5,-248 884.5,-229 750.5,-229"/>
<text text-anchor="middle" x="817.5" y="-236" font-family="Helvetica,sans-Serif" font-size="10.00">src/iconatlas/mxiconatlas.h</text>
</a>
</g>
</g>
<!-- Node1&#45;&gt;Node15 -->
<g id="edge17" class="edge">
<title>Node1&#45;&gt;Node15</title>
<path fill="none" stroke="midnightblue" d="M817.5,-280.32C817.5,-269.5 817.5,-256.4 817.5,-248.01"/>
<polygon fill="midnightblue" stroke="midnightblue" points="814,-280.48 817.5,-290.48 821,-280.48 814,-280.48"/>
</g>
<!-- Node17 -->
<g id="node17" class="node">
<title>Node17</title>
<g id="a_node17"><a xlink:href="direct12_2mxrenderer_8h.html" target="_top" xlink:title=" ">
<polygon fill="none" stroke="black" points="933.5,-223.5 933.5,-253.5 1039.5,-253.5 1039.5,-223.5 933.5,-223.5"/>
<text text-anchor="start" x="941.5" y="-241.5" font-family="Helvetica,sans-Serif" font-size="10.00">src/renderer/direct12</text>
<text text-anchor="middle" x="986.5" y="-230.5" font-family="Helvetica,sans-Serif" font-size="10.00">/mxrenderer.h</text>
</a>
</g>
</g>
<!-- Node1&#45;&gt;Node17 -->
<g id="edge20" class="edge">
<title>Node1&#45;&gt;Node17</title>
<path fill="none" stroke="midnightblue" d="M851.29,-287.1C878.79,-277.42 917.66,-263.74 946.67,-253.52"/>
<polygon fill="midnightblue" stroke="midnightblue" points="849.98,-283.85 841.71,-290.48 852.31,-290.46 849.98,-283.85"/>
</g>
<!-- Node20 -->
<g id="node20" class="node">
<title>Node20</title>
<g id="a_node20"><a xlink:href="opengl_2mxrenderer_8h.html" target="_top" xlink:title=" ">
<polygon fill="none" stroke="black" points="1241.5,-223.5 1241.5,-253.5 1341.5,-253.5 1341.5,-223.5 1241.5,-223.5"/>
<text text-anchor="start" x="1249.5" y="-241.5" font-family="Helvetica,sans-Serif" font-size="10.00">src/renderer/opengl</text>
<text text-anchor="middle" x="1291.5" y="-230.5" font-family="Helvetica,sans-Serif" font-size="10.00">/mxrenderer.h</text>
</a>
</g>
</g>
<!-- Node1&#45;&gt;Node20 -->
<g id="edge23" class="edge">
<title>Node1&#45;&gt;Node20</title>
<path fill="none" stroke="midnightblue" d="M884.87,-290.54C981.08,-278.47 1155.65,-256.55 1241.33,-245.8"/>
<polygon fill="midnightblue" stroke="midnightblue" points="884.16,-287.1 874.68,-291.82 885.03,-294.05 884.16,-287.1"/>
</g>
<!-- Node3 -->
<g id="node3" class="node">
<title>Node3</title>
<g id="a_node3"><a xlink:href="mxapplication_8h.html" target="_top" xlink:title=" ">
<polygon fill="none" stroke="black" points="453.5,-162 453.5,-181 585.5,-181 585.5,-162 453.5,-162"/>
<text text-anchor="middle" x="519.5" y="-169" font-family="Helvetica,sans-Serif" font-size="10.00">src/events/mxapplication.h</text>
</a>
</g>
</g>
<!-- Node2&#45;&gt;Node3 -->
<g id="edge2" class="edge">
<title>Node2&#45;&gt;Node3</title>
<path fill="none" stroke="midnightblue" d="M630.94,-224.61C603.41,-211.74 561.85,-192.31 538.03,-181.17"/>
<polygon fill="midnightblue" stroke="midnightblue" points="629.5,-227.8 640.04,-228.87 632.47,-221.46 629.5,-227.8"/>
</g>
<!-- Node10 -->
<g id="node10" class="node">
<title>Node10</title>
<g id="a_node10"><a xlink:href="mxpainter_8cpp.html" target="_top" xlink:title=" ">
<polygon fill="none" stroke="black" points="604,-162 604,-181 713,-181 713,-162 604,-162"/>
<text text-anchor="middle" x="658.5" y="-169" font-family="Helvetica,sans-Serif" font-size="10.00">src/gui/mxpainter.cpp</text>
</a>
</g>
</g>
<!-- Node2&#45;&gt;Node10 -->
<g id="edge10" class="edge">
<title>Node2&#45;&gt;Node10</title>
<path fill="none" stroke="midnightblue" d="M658.5,-218.54C658.5,-206.17 658.5,-190.62 658.5,-181.13"/>
<polygon fill="midnightblue" stroke="midnightblue" points="655,-218.73 658.5,-228.73 662,-218.73 655,-218.73"/>
</g>
<!-- Node4 -->
<g id="node4" class="node">
<title>Node4</title>
<g id="a_node4"><a xlink:href="mxapplication_8cpp.html" target="_top" xlink:title=" ">
<polygon fill="none" stroke="black" points="294,-89.5 294,-108.5 437,-108.5 437,-89.5 294,-89.5"/>
<text text-anchor="middle" x="365.5" y="-96.5" font-family="Helvetica,sans-Serif" font-size="10.00">src/events/mxapplication.cpp</text>
</a>
</g>
</g>
<!-- Node3&#45;&gt;Node4 -->
<g id="edge3" class="edge">
<title>Node3&#45;&gt;Node4</title>
<path fill="none" stroke="midnightblue" d="M491.5,-157.68C460.35,-143.42 410.89,-120.78 384.14,-108.53"/>
<polygon fill="midnightblue" stroke="midnightblue" points="490.37,-161.02 500.92,-162 493.29,-154.65 490.37,-161.02"/>
</g>
<!-- Node5 -->
<g id="node5" class="node">
<title>Node5</title>
<g id="a_node5"><a xlink:href="qmewawindow_8cpp.html" target="_top" xlink:title=" ">
<polygon fill="none" stroke="black" points="659.5,-6 659.5,-36 775.5,-36 775.5,-6 659.5,-6"/>
<text text-anchor="start" x="667.5" y="-24" font-family="Helvetica,sans-Serif" font-size="10.00">src/platformabstraction</text>
<text text-anchor="middle" x="717.5" y="-13" font-family="Helvetica,sans-Serif" font-size="10.00">/qt/qmewawindow.cpp</text>
</a>
</g>
</g>
<!-- Node3&#45;&gt;Node5 -->
<g id="edge4" class="edge">
<title>Node3&#45;&gt;Node5</title>
<path fill="none" stroke="midnightblue" d="M552.54,-158.1C573.69,-149.27 601.08,-136.14 622.5,-120 642.61,-104.85 643.07,-96.16 660.5,-78 674.52,-63.39 691.09,-47.23 702.74,-36.04"/>
<polygon fill="midnightblue" stroke="midnightblue" points="550.96,-154.96 543.01,-161.96 553.59,-161.45 550.96,-154.96"/>
</g>
<!-- Node6 -->
<g id="node6" class="node">
<title>Node6</title>
<g id="a_node6"><a xlink:href="qmewawindow_8h.html" target="_top" xlink:title=" ">
<polygon fill="none" stroke="black" points="669.5,-84 669.5,-114 785.5,-114 785.5,-84 669.5,-84"/>
<text text-anchor="start" x="677.5" y="-102" font-family="Helvetica,sans-Serif" font-size="10.00">src/platformabstraction</text>
<text text-anchor="middle" x="727.5" y="-91" font-family="Helvetica,sans-Serif" font-size="10.00">/qt/qmewawindow.h</text>
</a>
</g>
</g>
<!-- Node3&#45;&gt;Node6 -->
<g id="edge5" class="edge">
<title>Node3&#45;&gt;Node6</title>
<path fill="none" stroke="midnightblue" d="M554.26,-158.72C590.58,-146.41 647.57,-127.09 686.18,-114.01"/>
<polygon fill="midnightblue" stroke="midnightblue" points="552.94,-155.47 544.59,-162 555.18,-162.1 552.94,-155.47"/>
</g>
<!-- Node7 -->
<g id="node7" class="node">
<title>Node7</title>
<g id="a_node7"><a xlink:href="randomtextureapp_8h.html" target="_top" xlink:title=" ">
<polygon fill="none" stroke="black" points="455,-78.5 455,-119.5 614,-119.5 614,-78.5 455,-78.5"/>
<text text-anchor="start" x="463" y="-107.5" font-family="Helvetica,sans-Serif" font-size="10.00">src/renderer/direct12</text>
<text text-anchor="start" x="463" y="-96.5" font-family="Helvetica,sans-Serif" font-size="10.00">/iconprogram/test_randomtexture</text>
<text text-anchor="middle" x="534.5" y="-85.5" font-family="Helvetica,sans-Serif" font-size="10.00">/randomtextureapp.h</text>
</a>
</g>
</g>
<!-- Node3&#45;&gt;Node7 -->
<g id="edge7" class="edge">
<title>Node3&#45;&gt;Node7</title>
<path fill="none" stroke="midnightblue" d="M523.47,-151.85C525.58,-141.93 528.17,-129.73 530.32,-119.66"/>
<polygon fill="midnightblue" stroke="midnightblue" points="520,-151.35 521.34,-161.86 526.84,-152.8 520,-151.35"/>
</g>
<!-- Node6&#45;&gt;Node5 -->
<g id="edge6" class="edge">
<title>Node6&#45;&gt;Node5</title>
<path fill="none" stroke="midnightblue" d="M724.29,-73.59C722.67,-61.26 720.75,-46.72 719.37,-36.23"/>
<polygon fill="midnightblue" stroke="midnightblue" points="720.84,-74.25 725.62,-83.7 727.78,-73.33 720.84,-74.25"/>
</g>
<!-- Node8 -->
<g id="node8" class="node">
<title>Node8</title>
<g id="a_node8"><a xlink:href="direct12_2iconprogram_2test__randomtexture_2main_8cpp.html" target="_top" xlink:title=" ">
<polygon fill="none" stroke="black" points="287,-0.5 287,-41.5 446,-41.5 446,-0.5 287,-0.5"/>
<text text-anchor="start" x="295" y="-29.5" font-family="Helvetica,sans-Serif" font-size="10.00">src/renderer/direct12</text>
<text text-anchor="start" x="295" y="-18.5" font-family="Helvetica,sans-Serif" font-size="10.00">/iconprogram/test_randomtexture</text>
<text text-anchor="middle" x="366.5" y="-7.5" font-family="Helvetica,sans-Serif" font-size="10.00">/main.cpp</text>
</a>
</g>
</g>
<!-- Node7&#45;&gt;Node8 -->
<g id="edge8" class="edge">
<title>Node7&#45;&gt;Node8</title>
<path fill="none" stroke="midnightblue" d="M481.87,-74.19C458.62,-63.67 431.64,-51.47 409.62,-41.51"/>
<polygon fill="midnightblue" stroke="midnightblue" points="480.68,-77.5 491.24,-78.43 483.57,-71.12 480.68,-77.5"/>
</g>
<!-- Node9 -->
<g id="node9" class="node">
<title>Node9</title>
<g id="a_node9"><a xlink:href="randomtextureapp_8cpp.html" target="_top" xlink:title=" ">
<polygon fill="none" stroke="black" points="464,-0.5 464,-41.5 623,-41.5 623,-0.5 464,-0.5"/>
<text text-anchor="start" x="472" y="-29.5" font-family="Helvetica,sans-Serif" font-size="10.00">src/renderer/direct12</text>
<text text-anchor="start" x="472" y="-18.5" font-family="Helvetica,sans-Serif" font-size="10.00">/iconprogram/test_randomtexture</text>
<text text-anchor="middle" x="543.5" y="-7.5" font-family="Helvetica,sans-Serif" font-size="10.00">/randomtextureapp.cpp</text>
</a>
</g>
</g>
<!-- Node7&#45;&gt;Node9 -->
<g id="edge9" class="edge">
<title>Node7&#45;&gt;Node9</title>
<path fill="none" stroke="midnightblue" d="M538.02,-68.3C539.08,-59.3 540.23,-49.65 541.19,-41.51"/>
<polygon fill="midnightblue" stroke="midnightblue" points="534.52,-68.09 536.82,-78.43 541.47,-68.91 534.52,-68.09"/>
</g>
<!-- Node11&#45;&gt;Node3 -->
<g id="edge12" class="edge">
<title>Node11&#45;&gt;Node3</title>
<path fill="none" stroke="midnightblue" d="M519.5,-218.54C519.5,-206.17 519.5,-190.62 519.5,-181.13"/>
<polygon fill="midnightblue" stroke="midnightblue" points="516,-218.73 519.5,-228.73 523,-218.73 516,-218.73"/>
</g>
<!-- Node12 -->
<g id="node12" class="node">
<title>Node12</title>
<g id="a_node12"><a xlink:href="mxwidget_8h.html" target="_top" xlink:title=" ">
<polygon fill="none" stroke="black" points="244.5,-162 244.5,-181 342.5,-181 342.5,-162 244.5,-162"/>
<text text-anchor="middle" x="293.5" y="-169" font-family="Helvetica,sans-Serif" font-size="10.00">src/gui/mxwidget.h</text>
</a>
</g>
</g>
<!-- Node11&#45;&gt;Node12 -->
<g id="edge13" class="edge">
<title>Node11&#45;&gt;Node12</title>
<path fill="none" stroke="midnightblue" d="M479.83,-226.09C435.12,-213.23 363.45,-192.62 323.28,-181.06"/>
<polygon fill="midnightblue" stroke="midnightblue" points="478.91,-229.47 489.49,-228.87 480.85,-222.74 478.91,-229.47"/>
</g>
<!-- Node12&#45;&gt;Node4 -->
<g id="edge14" class="edge">
<title>Node12&#45;&gt;Node4</title>
<path fill="none" stroke="midnightblue" d="M309.64,-154.69C324.15,-140.49 344.9,-120.17 356.6,-108.72"/>
<polygon fill="midnightblue" stroke="midnightblue" points="307.03,-152.36 302.33,-161.86 311.92,-157.36 307.03,-152.36"/>
</g>
<!-- Node13 -->
<g id="node13" class="node">
<title>Node13</title>
<g id="a_node13"><a xlink:href="mxmouseevent_8cpp.html" target="_top" xlink:title=" ">
<polygon fill="none" stroke="black" points="0,-89.5 0,-108.5 149,-108.5 149,-89.5 0,-89.5"/>
<text text-anchor="middle" x="74.5" y="-96.5" font-family="Helvetica,sans-Serif" font-size="10.00">src/events/mxmouseevent.cpp</text>
</a>
</g>
</g>
<!-- Node12&#45;&gt;Node13 -->
<g id="edge15" class="edge">
<title>Node12&#45;&gt;Node13</title>
<path fill="none" stroke="midnightblue" d="M257.37,-158.87C213.37,-144.71 140.12,-121.12 101.01,-108.53"/>
<polygon fill="midnightblue" stroke="midnightblue" points="256.49,-162.26 267.08,-162 258.64,-155.6 256.49,-162.26"/>
</g>
<!-- Node14 -->
<g id="node14" class="node">
<title>Node14</title>
<g id="a_node14"><a xlink:href="mxwidget_8cpp.html" target="_top" xlink:title=" ">
<polygon fill="none" stroke="black" points="167.5,-89.5 167.5,-108.5 275.5,-108.5 275.5,-89.5 167.5,-89.5"/>
<text text-anchor="middle" x="221.5" y="-96.5" font-family="Helvetica,sans-Serif" font-size="10.00">src/gui/mxwidget.cpp</text>
</a>
</g>
</g>
<!-- Node12&#45;&gt;Node14 -->
<g id="edge16" class="edge">
<title>Node12&#45;&gt;Node14</title>
<path fill="none" stroke="midnightblue" d="M277.36,-154.69C262.85,-140.49 242.1,-120.17 230.4,-108.72"/>
<polygon fill="midnightblue" stroke="midnightblue" points="275.08,-157.36 284.67,-161.86 279.97,-152.36 275.08,-157.36"/>
</g>
<!-- Node15&#45;&gt;Node6 -->
<g id="edge19" class="edge">
<title>Node15&#45;&gt;Node6</title>
<path fill="none" stroke="midnightblue" d="M796.42,-222.86C784.53,-213.7 770.17,-201.01 760.5,-187 744.62,-164 735.13,-132.36 730.65,-114.25"/>
<polygon fill="midnightblue" stroke="midnightblue" points="794.42,-225.73 804.53,-228.87 798.58,-220.1 794.42,-225.73"/>
</g>
<!-- Node16 -->
<g id="node16" class="node">
<title>Node16</title>
<g id="a_node16"><a xlink:href="mxiconatlas_8cpp.html" target="_top" xlink:title=" ">
<polygon fill="none" stroke="black" points="770,-162 770,-181 915,-181 915,-162 770,-162"/>
<text text-anchor="middle" x="842.5" y="-169" font-family="Helvetica,sans-Serif" font-size="10.00">src/iconatlas/mxiconatlas.cpp</text>
</a>
</g>
</g>
<!-- Node15&#45;&gt;Node16 -->
<g id="edge18" class="edge">
<title>Node15&#45;&gt;Node16</title>
<path fill="none" stroke="midnightblue" d="M824.5,-219.29C829.3,-206.81 835.46,-190.81 839.18,-181.13"/>
<polygon fill="midnightblue" stroke="midnightblue" points="821.19,-218.14 820.87,-228.73 827.73,-220.66 821.19,-218.14"/>
</g>
<!-- Node18 -->
<g id="node18" class="node">
<title>Node18</title>
<g id="a_node18"><a xlink:href="direct12_2mxrenderer_8cpp.html" target="_top" xlink:title=" ">
<polygon fill="none" stroke="black" points="933.5,-156.5 933.5,-186.5 1039.5,-186.5 1039.5,-156.5 933.5,-156.5"/>
<text text-anchor="start" x="941.5" y="-174.5" font-family="Helvetica,sans-Serif" font-size="10.00">src/renderer/direct12</text>
<text text-anchor="middle" x="986.5" y="-163.5" font-family="Helvetica,sans-Serif" font-size="10.00">/mxrenderer.cpp</text>
</a>
</g>
</g>
<!-- Node17&#45;&gt;Node18 -->
<g id="edge21" class="edge">
<title>Node17&#45;&gt;Node18</title>
<path fill="none" stroke="midnightblue" d="M986.5,-213.11C986.5,-204.15 986.5,-194.32 986.5,-186.58"/>
<polygon fill="midnightblue" stroke="midnightblue" points="983,-213.4 986.5,-223.4 990,-213.4 983,-213.4"/>
</g>
<!-- Node19 -->
<g id="node19" class="node">
<title>Node19</title>
<g id="a_node19"><a xlink:href="mxtexture_8cpp.html" target="_top" xlink:title=" ">
<polygon fill="none" stroke="black" points="1057.5,-156.5 1057.5,-186.5 1163.5,-186.5 1163.5,-156.5 1057.5,-156.5"/>
<text text-anchor="start" x="1065.5" y="-174.5" font-family="Helvetica,sans-Serif" font-size="10.00">src/renderer/direct12</text>
<text text-anchor="middle" x="1110.5" y="-163.5" font-family="Helvetica,sans-Serif" font-size="10.00">/mxtexture.cpp</text>
</a>
</g>
</g>
<!-- Node17&#45;&gt;Node19 -->
<g id="edge22" class="edge">
<title>Node17&#45;&gt;Node19</title>
<path fill="none" stroke="midnightblue" d="M1022.34,-218.71C1041.89,-208.46 1065.7,-195.98 1083.65,-186.58"/>
<polygon fill="midnightblue" stroke="midnightblue" points="1020.64,-215.65 1013.41,-223.4 1023.89,-221.85 1020.64,-215.65"/>
</g>
<!-- Node21 -->
<g id="node21" class="node">
<title>Node21</title>
<g id="a_node21"><a xlink:href="opengl_2mxgpuarray_8cpp.html" target="_top" xlink:title=" ">
<polygon fill="none" stroke="black" points="1419.5,-156.5 1419.5,-186.5 1519.5,-186.5 1519.5,-156.5 1419.5,-156.5"/>
<text text-anchor="start" x="1427.5" y="-174.5" font-family="Helvetica,sans-Serif" font-size="10.00">src/renderer/opengl</text>
<text text-anchor="middle" x="1469.5" y="-163.5" font-family="Helvetica,sans-Serif" font-size="10.00">/mxgpuarray.cpp</text>
</a>
</g>
</g>
<!-- Node20&#45;&gt;Node21 -->
<g id="edge24" class="edge">
<title>Node20&#45;&gt;Node21</title>
<path fill="none" stroke="midnightblue" d="M1339.55,-219.96C1368.22,-209.48 1404.14,-196.37 1430.95,-186.58"/>
<polygon fill="midnightblue" stroke="midnightblue" points="1338.32,-216.68 1330.12,-223.4 1340.72,-223.25 1338.32,-216.68"/>
</g>
<!-- Node22 -->
<g id="node22" class="node">
<title>Node22</title>
<g id="a_node22"><a xlink:href="opengl_2mxgpuprogram_8cpp.html" target="_top" xlink:title=" ">
<polygon fill="none" stroke="black" points="1182,-156.5 1182,-186.5 1283,-186.5 1283,-156.5 1182,-156.5"/>
<text text-anchor="start" x="1190" y="-174.5" font-family="Helvetica,sans-Serif" font-size="10.00">src/renderer/opengl</text>
<text text-anchor="middle" x="1232.5" y="-163.5" font-family="Helvetica,sans-Serif" font-size="10.00">/mxgpuprogram.cpp</text>
</a>
</g>
</g>
<!-- Node20&#45;&gt;Node22 -->
<g id="edge25" class="edge">
<title>Node20&#45;&gt;Node22</title>
<path fill="none" stroke="midnightblue" d="M1271.75,-215.74C1263.02,-206.12 1253,-195.09 1245.28,-186.58"/>
<polygon fill="midnightblue" stroke="midnightblue" points="1269.39,-218.34 1278.7,-223.4 1274.57,-213.64 1269.39,-218.34"/>
</g>
<!-- Node23 -->
<g id="node23" class="node">
<title>Node23</title>
<g id="a_node23"><a xlink:href="opengl_2mxrenderer_8cpp.html" target="_top" xlink:title=" ">
<polygon fill="none" stroke="black" points="1301.5,-156.5 1301.5,-186.5 1401.5,-186.5 1401.5,-156.5 1301.5,-156.5"/>
<text text-anchor="start" x="1309.5" y="-174.5" font-family="Helvetica,sans-Serif" font-size="10.00">src/renderer/opengl</text>
<text text-anchor="middle" x="1351.5" y="-163.5" font-family="Helvetica,sans-Serif" font-size="10.00">/mxrenderer.cpp</text>
</a>
</g>
</g>
<!-- Node20&#45;&gt;Node23 -->
<g id="edge26" class="edge">
<title>Node20&#45;&gt;Node23</title>
<path fill="none" stroke="midnightblue" d="M1311.32,-216.02C1320.26,-206.34 1330.57,-195.17 1338.51,-186.58"/>
<polygon fill="midnightblue" stroke="midnightblue" points="1308.73,-213.67 1304.52,-223.4 1313.87,-218.42 1308.73,-213.67"/>
</g>
</g>
</svg>
