<?xml version="1.0" encoding="UTF-8" standalone="no"?>
<!DOCTYPE svg PUBLIC "-//W3C//DTD SVG 1.1//EN"
 "http://www.w3.org/Graphics/SVG/1.1/DTD/svg11.dtd">
<!-- Generated by graphviz version 2.44.0 ()
 -->
<!-- Title: src/containers/mxlist.h Pages: 1 -->
<svg width="2006pt" height="296pt"
 viewBox="0.00 0.00 2006.00 296.00" xmlns="http://www.w3.org/2000/svg" xmlns:xlink="http://www.w3.org/1999/xlink">
<g id="graph0" class="graph" transform="scale(1 1) rotate(0) translate(4 292)">
<title>src/containers/mxlist.h</title>
<!-- Node1 -->
<g id="node1" class="node">
<title>Node1</title>
<g id="a_node1"><a xlink:title=" ">
<polygon fill="#bfbfbf" stroke="black" points="545.5,-268.5 545.5,-287.5 659.5,-287.5 659.5,-268.5 545.5,-268.5"/>
<text text-anchor="middle" x="602.5" y="-275.5" font-family="Helvetica,sans-Serif" font-size="10.00">src/containers/mxlist.h</text>
</a>
</g>
</g>
<!-- Node2 -->
<g id="node2" class="node">
<title>Node2</title>
<g id="a_node2"><a xlink:href="mxpainter_8h.html" target="_top" xlink:title=" ">
<polygon fill="none" stroke="black" points="483.5,-207 483.5,-226 581.5,-226 581.5,-207 483.5,-207"/>
<text text-anchor="middle" x="532.5" y="-214" font-family="Helvetica,sans-Serif" font-size="10.00">src/gui/mxpainter.h</text>
</a>
</g>
</g>
<!-- Node1&#45;&gt;Node2 -->
<g id="edge1" class="edge">
<title>Node1&#45;&gt;Node2</title>
<path fill="none" stroke="midnightblue" d="M584.82,-261.97C571.43,-250.59 553.52,-235.37 542.51,-226.01"/>
<polygon fill="midnightblue" stroke="midnightblue" points="582.58,-264.67 592.47,-268.48 587.12,-259.33 582.58,-264.67"/>
</g>
<!-- Node8 -->
<g id="node8" class="node">
<title>Node8</title>
<g id="a_node8"><a xlink:href="mxwidgetlist_8h.html" target="_top" xlink:title=" ">
<polygon fill="none" stroke="black" points="338.5,-207 338.5,-226 448.5,-226 448.5,-207 338.5,-207"/>
<text text-anchor="middle" x="393.5" y="-214" font-family="Helvetica,sans-Serif" font-size="10.00">src/gui/mxwidgetlist.h</text>
</a>
</g>
</g>
<!-- Node1&#45;&gt;Node8 -->
<g id="edge8" class="edge">
<title>Node1&#45;&gt;Node8</title>
<path fill="none" stroke="midnightblue" d="M562.72,-265.68C522.11,-254.11 459.99,-236.43 423.39,-226.01"/>
<polygon fill="midnightblue" stroke="midnightblue" points="561.98,-269.1 572.56,-268.48 563.9,-262.37 561.98,-269.1"/>
</g>
<!-- Node12 -->
<g id="node12" class="node">
<title>Node12</title>
<g id="a_node12"><a xlink:href="mxiconatlas_8h.html" target="_top" xlink:title=" ">
<polygon fill="none" stroke="black" points="605.5,-140 605.5,-159 739.5,-159 739.5,-140 605.5,-140"/>
<text text-anchor="middle" x="672.5" y="-147" font-family="Helvetica,sans-Serif" font-size="10.00">src/iconatlas/mxiconatlas.h</text>
</a>
</g>
</g>
<!-- Node1&#45;&gt;Node12 -->
<g id="edge14" class="edge">
<title>Node1&#45;&gt;Node12</title>
<path fill="none" stroke="midnightblue" d="M612.24,-259.4C627.43,-231.94 656.23,-179.9 667.65,-159.26"/>
<polygon fill="midnightblue" stroke="midnightblue" points="609.09,-257.86 607.31,-268.31 615.22,-261.25 609.09,-257.86"/>
</g>
<!-- Node14 -->
<g id="node14" class="node">
<title>Node14</title>
<g id="a_node14"><a xlink:href="mxrenderer_8h.html" target="_top" xlink:title=" ">
<polygon fill="none" stroke="black" points="1005.5,-201.5 1005.5,-231.5 1105.5,-231.5 1105.5,-201.5 1005.5,-201.5"/>
<text text-anchor="start" x="1013.5" y="-219.5" font-family="Helvetica,sans-Serif" font-size="10.00">src/renderer/opengl</text>
<text text-anchor="middle" x="1055.5" y="-208.5" font-family="Helvetica,sans-Serif" font-size="10.00">/mxrenderer.h</text>
</a>
</g>
</g>
<!-- Node1&#45;&gt;Node14 -->
<g id="edge17" class="edge">
<title>Node1&#45;&gt;Node14</title>
<path fill="none" stroke="midnightblue" d="M669.88,-268.15C761.52,-256.11 923.4,-234.85 1005.2,-224.11"/>
<polygon fill="midnightblue" stroke="midnightblue" points="669.33,-264.69 659.87,-269.46 670.24,-271.63 669.33,-264.69"/>
</g>
<!-- Node3 -->
<g id="node3" class="node">
<title>Node3</title>
<g id="a_node3"><a xlink:href="mxapplication_8h.html" target="_top" xlink:title=" ">
<polygon fill="none" stroke="black" points="327.5,-140 327.5,-159 459.5,-159 459.5,-140 327.5,-140"/>
<text text-anchor="middle" x="393.5" y="-147" font-family="Helvetica,sans-Serif" font-size="10.00">src/events/mxapplication.h</text>
</a>
</g>
</g>
<!-- Node2&#45;&gt;Node3 -->
<g id="edge2" class="edge">
<title>Node2&#45;&gt;Node3</title>
<path fill="none" stroke="midnightblue" d="M504.94,-202.61C477.41,-189.74 435.85,-170.31 412.03,-159.17"/>
<polygon fill="midnightblue" stroke="midnightblue" points="503.5,-205.8 514.04,-206.87 506.47,-199.46 503.5,-205.8"/>
</g>
<!-- Node7 -->
<g id="node7" class="node">
<title>Node7</title>
<g id="a_node7"><a xlink:href="mxpainter_8cpp.html" target="_top" xlink:title=" ">
<polygon fill="none" stroke="black" points="478,-140 478,-159 587,-159 587,-140 478,-140"/>
<text text-anchor="middle" x="532.5" y="-147" font-family="Helvetica,sans-Serif" font-size="10.00">src/gui/mxpainter.cpp</text>
</a>
</g>
</g>
<!-- Node2&#45;&gt;Node7 -->
<g id="edge7" class="edge">
<title>Node2&#45;&gt;Node7</title>
<path fill="none" stroke="midnightblue" d="M532.5,-196.54C532.5,-184.17 532.5,-168.62 532.5,-159.13"/>
<polygon fill="midnightblue" stroke="midnightblue" points="529,-196.73 532.5,-206.73 536,-196.73 529,-196.73"/>
</g>
<!-- Node4 -->
<g id="node4" class="node">
<title>Node4</title>
<g id="a_node4"><a xlink:href="mxapplication_8cpp.html" target="_top" xlink:title=" ">
<polygon fill="none" stroke="black" points="294,-73 294,-92 437,-92 437,-73 294,-73"/>
<text text-anchor="middle" x="365.5" y="-80" font-family="Helvetica,sans-Serif" font-size="10.00">src/events/mxapplication.cpp</text>
</a>
</g>
</g>
<!-- Node3&#45;&gt;Node4 -->
<g id="edge3" class="edge">
<title>Node3&#45;&gt;Node4</title>
<path fill="none" stroke="midnightblue" d="M385.66,-130.29C380.28,-117.81 373.39,-101.81 369.22,-92.13"/>
<polygon fill="midnightblue" stroke="midnightblue" points="382.55,-131.93 389.72,-139.73 388.98,-129.16 382.55,-131.93"/>
</g>
<!-- Node5 -->
<g id="node5" class="node">
<title>Node5</title>
<g id="a_node5"><a xlink:href="qmewawindow_8cpp.html" target="_top" xlink:title=" ">
<polygon fill="none" stroke="black" points="450.5,-0.5 450.5,-30.5 566.5,-30.5 566.5,-0.5 450.5,-0.5"/>
<text text-anchor="start" x="458.5" y="-18.5" font-family="Helvetica,sans-Serif" font-size="10.00">src/platformabstraction</text>
<text text-anchor="middle" x="508.5" y="-7.5" font-family="Helvetica,sans-Serif" font-size="10.00">/qt/qmewawindow.cpp</text>
</a>
</g>
</g>
<!-- Node3&#45;&gt;Node5 -->
<g id="edge4" class="edge">
<title>Node3&#45;&gt;Node5</title>
<path fill="none" stroke="midnightblue" d="M410.73,-132.93C421.16,-123.23 434.52,-110.29 445.5,-98 465.63,-75.46 486.64,-47.16 498.59,-30.53"/>
<polygon fill="midnightblue" stroke="midnightblue" points="408.1,-130.6 403.1,-139.94 412.83,-135.75 408.1,-130.6"/>
</g>
<!-- Node6 -->
<g id="node6" class="node">
<title>Node6</title>
<g id="a_node6"><a xlink:href="qmewawindow_8h.html" target="_top" xlink:title=" ">
<polygon fill="none" stroke="black" points="493.5,-67.5 493.5,-97.5 609.5,-97.5 609.5,-67.5 493.5,-67.5"/>
<text text-anchor="start" x="501.5" y="-85.5" font-family="Helvetica,sans-Serif" font-size="10.00">src/platformabstraction</text>
<text text-anchor="middle" x="551.5" y="-74.5" font-family="Helvetica,sans-Serif" font-size="10.00">/qt/qmewawindow.h</text>
</a>
</g>
</g>
<!-- Node3&#45;&gt;Node6 -->
<g id="edge5" class="edge">
<title>Node3&#45;&gt;Node6</title>
<path fill="none" stroke="midnightblue" d="M423.74,-136.06C450.51,-125.05 489.53,-108.99 517.4,-97.53"/>
<polygon fill="midnightblue" stroke="midnightblue" points="422.4,-132.83 414.48,-139.87 425.06,-139.3 422.4,-132.83"/>
</g>
<!-- Node6&#45;&gt;Node5 -->
<g id="edge6" class="edge">
<title>Node6&#45;&gt;Node5</title>
<path fill="none" stroke="midnightblue" d="M536.53,-58.87C530.3,-49.46 523.27,-38.83 517.81,-30.58"/>
<polygon fill="midnightblue" stroke="midnightblue" points="533.73,-60.99 542.17,-67.4 539.57,-57.12 533.73,-60.99"/>
</g>
<!-- Node8&#45;&gt;Node3 -->
<g id="edge9" class="edge">
<title>Node8&#45;&gt;Node3</title>
<path fill="none" stroke="midnightblue" d="M393.5,-196.54C393.5,-184.17 393.5,-168.62 393.5,-159.13"/>
<polygon fill="midnightblue" stroke="midnightblue" points="390,-196.73 393.5,-206.73 397,-196.73 390,-196.73"/>
</g>
<!-- Node9 -->
<g id="node9" class="node">
<title>Node9</title>
<g id="a_node9"><a xlink:href="mxwidget_8h.html" target="_top" xlink:title=" ">
<polygon fill="none" stroke="black" points="206.5,-140 206.5,-159 304.5,-159 304.5,-140 206.5,-140"/>
<text text-anchor="middle" x="255.5" y="-147" font-family="Helvetica,sans-Serif" font-size="10.00">src/gui/mxwidget.h</text>
</a>
</g>
</g>
<!-- Node8&#45;&gt;Node9 -->
<g id="edge10" class="edge">
<title>Node8&#45;&gt;Node9</title>
<path fill="none" stroke="midnightblue" d="M365.78,-202.44C338.45,-189.57 297.45,-170.26 273.9,-159.17"/>
<polygon fill="midnightblue" stroke="midnightblue" points="364.64,-205.77 375.17,-206.87 367.62,-199.44 364.64,-205.77"/>
</g>
<!-- Node9&#45;&gt;Node4 -->
<g id="edge11" class="edge">
<title>Node9&#45;&gt;Node4</title>
<path fill="none" stroke="midnightblue" d="M279,-134.62C300.79,-121.74 332.54,-102.98 350.9,-92.13"/>
<polygon fill="midnightblue" stroke="midnightblue" points="277.16,-131.63 270.34,-139.73 280.72,-137.66 277.16,-131.63"/>
</g>
<!-- Node10 -->
<g id="node10" class="node">
<title>Node10</title>
<g id="a_node10"><a xlink:href="mxmouseevent_8cpp.html" target="_top" xlink:title=" ">
<polygon fill="none" stroke="black" points="0,-73 0,-92 149,-92 149,-73 0,-73"/>
<text text-anchor="middle" x="74.5" y="-80" font-family="Helvetica,sans-Serif" font-size="10.00">src/events/mxmouseevent.cpp</text>
</a>
</g>
</g>
<!-- Node9&#45;&gt;Node10 -->
<g id="edge12" class="edge">
<title>Node9&#45;&gt;Node10</title>
<path fill="none" stroke="midnightblue" d="M221.91,-136.44C186,-123.54 129.98,-103.42 98.35,-92.06"/>
<polygon fill="midnightblue" stroke="midnightblue" points="220.87,-139.78 231.46,-139.87 223.24,-133.19 220.87,-139.78"/>
</g>
<!-- Node11 -->
<g id="node11" class="node">
<title>Node11</title>
<g id="a_node11"><a xlink:href="mxwidget_8cpp.html" target="_top" xlink:title=" ">
<polygon fill="none" stroke="black" points="167.5,-73 167.5,-92 275.5,-92 275.5,-73 167.5,-73"/>
<text text-anchor="middle" x="221.5" y="-80" font-family="Helvetica,sans-Serif" font-size="10.00">src/gui/mxwidget.cpp</text>
</a>
</g>
</g>
<!-- Node9&#45;&gt;Node11 -->
<g id="edge13" class="edge">
<title>Node9&#45;&gt;Node11</title>
<path fill="none" stroke="midnightblue" d="M246.17,-130.66C239.61,-118.13 231.13,-101.91 226.01,-92.13"/>
<polygon fill="midnightblue" stroke="midnightblue" points="243.18,-132.5 250.91,-139.73 249.38,-129.25 243.18,-132.5"/>
</g>
<!-- Node12&#45;&gt;Node6 -->
<g id="edge16" class="edge">
<title>Node12&#45;&gt;Node6</title>
<path fill="none" stroke="midnightblue" d="M647.19,-134.9C626.83,-123.97 598.32,-108.65 577.73,-97.59"/>
<polygon fill="midnightblue" stroke="midnightblue" points="645.72,-138.08 656.18,-139.73 649.03,-131.92 645.72,-138.08"/>
</g>
<!-- Node13 -->
<g id="node13" class="node">
<title>Node13</title>
<g id="a_node13"><a xlink:href="mxiconatlas_8cpp.html" target="_top" xlink:title=" ">
<polygon fill="none" stroke="black" points="628,-73 628,-92 773,-92 773,-73 628,-73"/>
<text text-anchor="middle" x="700.5" y="-80" font-family="Helvetica,sans-Serif" font-size="10.00">src/iconatlas/mxiconatlas.cpp</text>
</a>
</g>
</g>
<!-- Node12&#45;&gt;Node13 -->
<g id="edge15" class="edge">
<title>Node12&#45;&gt;Node13</title>
<path fill="none" stroke="midnightblue" d="M680.34,-130.29C685.72,-117.81 692.61,-101.81 696.78,-92.13"/>
<polygon fill="midnightblue" stroke="midnightblue" points="677.02,-129.16 676.28,-139.73 683.45,-131.93 677.02,-129.16"/>
</g>
<!-- Node14&#45;&gt;Node3 -->
<g id="edge18" class="edge">
<title>Node14&#45;&gt;Node3</title>
<path fill="none" stroke="midnightblue" d="M995.2,-212.41C888.57,-206.48 659.93,-191.66 468.5,-165 457.07,-163.41 444.75,-161.22 433.46,-159.03"/>
<polygon fill="midnightblue" stroke="midnightblue" points="995.26,-215.92 1005.44,-212.97 995.65,-208.93 995.26,-215.92"/>
</g>
<!-- Node14&#45;&gt;Node7 -->
<g id="edge22" class="edge">
<title>Node14&#45;&gt;Node7</title>
<path fill="none" stroke="midnightblue" d="M995.25,-211.06C907.24,-204.08 738.53,-188.82 596.5,-165 586.84,-163.38 576.44,-161.21 566.9,-159.05"/>
<polygon fill="midnightblue" stroke="midnightblue" points="995.08,-214.56 1005.32,-211.85 995.63,-207.58 995.08,-214.56"/>
</g>
<!-- Node14&#45;&gt;Node12 -->
<g id="edge25" class="edge">
<title>Node14&#45;&gt;Node12</title>
<path fill="none" stroke="midnightblue" d="M995.46,-206.09C933.52,-196.27 834.14,-180.21 748.5,-165 738.05,-163.14 726.81,-161.05 716.27,-159.05"/>
<polygon fill="midnightblue" stroke="midnightblue" points="995.02,-209.56 1005.45,-207.67 996.12,-202.65 995.02,-209.56"/>
</g>
<!-- Node15 -->
<g id="node15" class="node">
<title>Node15</title>
<g id="a_node15"><a xlink:href="mxcolorwheelprogram_8cpp.html" target="_top" xlink:title=" ">
<polygon fill="none" stroke="black" points="1493.5,-134.5 1493.5,-164.5 1625.5,-164.5 1625.5,-134.5 1493.5,-134.5"/>
<text text-anchor="start" x="1501.5" y="-152.5" font-family="Helvetica,sans-Serif" font-size="10.00">src/gui/colorselector</text>
<text text-anchor="middle" x="1559.5" y="-141.5" font-family="Helvetica,sans-Serif" font-size="10.00">/mxcolorwheelprogram.cpp</text>
</a>
</g>
</g>
<!-- Node14&#45;&gt;Node15 -->
<g id="edge19" class="edge">
<title>Node14&#45;&gt;Node15</title>
<path fill="none" stroke="midnightblue" d="M1115.55,-209.84C1198.69,-201.69 1353.43,-185.36 1484.5,-165 1487.38,-164.55 1490.32,-164.07 1493.29,-163.57"/>
<polygon fill="midnightblue" stroke="midnightblue" points="1115.14,-206.37 1105.53,-210.82 1115.82,-213.33 1115.14,-206.37"/>
</g>
<!-- Node16 -->
<g id="node16" class="node">
<title>Node16</title>
<g id="a_node16"><a xlink:href="mxicondraw_8cpp.html" target="_top" xlink:title=" ">
<polygon fill="none" stroke="black" points="1644,-140 1644,-159 1805,-159 1805,-140 1644,-140"/>
<text text-anchor="middle" x="1724.5" y="-147" font-family="Helvetica,sans-Serif" font-size="10.00">src/gui/icondraw/mxicondraw.cpp</text>
</a>
</g>
</g>
<!-- Node14&#45;&gt;Node16 -->
<g id="edge20" class="edge">
<title>Node14&#45;&gt;Node16</title>
<path fill="none" stroke="midnightblue" d="M1115.71,-211.7C1221.1,-204.72 1445.77,-188.4 1634.5,-165 1647.85,-163.34 1662.26,-161.19 1675.55,-159.05"/>
<polygon fill="midnightblue" stroke="midnightblue" points="1115.33,-208.21 1105.58,-212.36 1115.79,-215.2 1115.33,-208.21"/>
</g>
<!-- Node17 -->
<g id="node17" class="node">
<title>Node17</title>
<g id="a_node17"><a xlink:href="mxiconprogram_8cpp.html" target="_top" xlink:title=" ">
<polygon fill="none" stroke="black" points="1823,-140 1823,-159 1998,-159 1998,-140 1823,-140"/>
<text text-anchor="middle" x="1910.5" y="-147" font-family="Helvetica,sans-Serif" font-size="10.00">src/gui/icondraw/mxiconprogram.cpp</text>
</a>
</g>
</g>
<!-- Node14&#45;&gt;Node17 -->
<g id="edge21" class="edge">
<title>Node14&#45;&gt;Node17</title>
<path fill="none" stroke="midnightblue" d="M1115.86,-213.2C1244.55,-207.91 1555.33,-193.15 1814.5,-165 1829.08,-163.42 1844.84,-161.24 1859.29,-159.04"/>
<polygon fill="midnightblue" stroke="midnightblue" points="1115.66,-209.7 1105.81,-213.61 1115.94,-216.7 1115.66,-209.7"/>
</g>
<!-- Node18 -->
<g id="node18" class="node">
<title>Node18</title>
<g id="a_node18"><a xlink:href="mxvectordraw_8cpp.html" target="_top" xlink:title=" ">
<polygon fill="none" stroke="black" points="757.5,-134.5 757.5,-164.5 855.5,-164.5 855.5,-134.5 757.5,-134.5"/>
<text text-anchor="start" x="765.5" y="-152.5" font-family="Helvetica,sans-Serif" font-size="10.00">src/gui/vectordraw</text>
<text text-anchor="middle" x="806.5" y="-141.5" font-family="Helvetica,sans-Serif" font-size="10.00">/mxvectordraw.cpp</text>
</a>
</g>
</g>
<!-- Node14&#45;&gt;Node18 -->
<g id="edge23" class="edge">
<title>Node14&#45;&gt;Node18</title>
<path fill="none" stroke="midnightblue" d="M995.67,-199.88C952.83,-188.7 895.85,-173.82 855.66,-163.33"/>
<polygon fill="midnightblue" stroke="midnightblue" points="994.85,-203.29 1005.41,-202.42 996.62,-196.51 994.85,-203.29"/>
</g>
<!-- Node19 -->
<g id="node19" class="node">
<title>Node19</title>
<g id="a_node19"><a xlink:href="mxvectorprogram_8cpp.html" target="_top" xlink:title=" ">
<polygon fill="none" stroke="black" points="874,-134.5 874,-164.5 987,-164.5 987,-134.5 874,-134.5"/>
<text text-anchor="start" x="882" y="-152.5" font-family="Helvetica,sans-Serif" font-size="10.00">src/gui/vectordraw</text>
<text text-anchor="middle" x="930.5" y="-141.5" font-family="Helvetica,sans-Serif" font-size="10.00">/mxvectorprogram.cpp</text>
</a>
</g>
</g>
<!-- Node14&#45;&gt;Node19 -->
<g id="edge24" class="edge">
<title>Node14&#45;&gt;Node19</title>
<path fill="none" stroke="midnightblue" d="M1019.37,-196.71C999.66,-186.46 975.66,-173.98 957.57,-164.58"/>
<polygon fill="midnightblue" stroke="midnightblue" points="1017.89,-199.89 1028.38,-201.4 1021.12,-193.68 1017.89,-199.89"/>
</g>
<!-- Node20 -->
<g id="node20" class="node">
<title>Node20</title>
<g id="a_node20"><a xlink:href="gpubuffer_8cpp.html" target="_top" xlink:title=" ">
<polygon fill="none" stroke="black" points="1005.5,-134.5 1005.5,-164.5 1105.5,-164.5 1105.5,-134.5 1005.5,-134.5"/>
<text text-anchor="start" x="1013.5" y="-152.5" font-family="Helvetica,sans-Serif" font-size="10.00">src/renderer/opengl</text>
<text text-anchor="middle" x="1055.5" y="-141.5" font-family="Helvetica,sans-Serif" font-size="10.00">/gpubuffer.cpp</text>
</a>
</g>
</g>
<!-- Node14&#45;&gt;Node20 -->
<g id="edge26" class="edge">
<title>Node14&#45;&gt;Node20</title>
<path fill="none" stroke="midnightblue" d="M1055.5,-191.11C1055.5,-182.15 1055.5,-172.32 1055.5,-164.58"/>
<polygon fill="midnightblue" stroke="midnightblue" points="1052,-191.4 1055.5,-201.4 1059,-191.4 1052,-191.4"/>
</g>
<!-- Node21 -->
<g id="node21" class="node">
<title>Node21</title>
<g id="a_node21"><a xlink:href="gpuvbo_8cpp.html" target="_top" xlink:title=" ">
<polygon fill="none" stroke="black" points="1123.5,-134.5 1123.5,-164.5 1223.5,-164.5 1223.5,-134.5 1123.5,-134.5"/>
<text text-anchor="start" x="1131.5" y="-152.5" font-family="Helvetica,sans-Serif" font-size="10.00">src/renderer/opengl</text>
<text text-anchor="middle" x="1173.5" y="-141.5" font-family="Helvetica,sans-Serif" font-size="10.00">/gpuvbo.cpp</text>
</a>
</g>
</g>
<!-- Node14&#45;&gt;Node21 -->
<g id="edge27" class="edge">
<title>Node14&#45;&gt;Node21</title>
<path fill="none" stroke="midnightblue" d="M1090.11,-196.44C1108.62,-186.24 1131.02,-173.9 1147.95,-164.58"/>
<polygon fill="midnightblue" stroke="midnightblue" points="1088.17,-193.51 1081.1,-201.4 1091.55,-199.64 1088.17,-193.51"/>
</g>
<!-- Node22 -->
<g id="node22" class="node">
<title>Node22</title>
<g id="a_node22"><a xlink:href="mxrenderer_8cpp.html" target="_top" xlink:title=" ">
<polygon fill="none" stroke="black" points="1241.5,-134.5 1241.5,-164.5 1341.5,-164.5 1341.5,-134.5 1241.5,-134.5"/>
<text text-anchor="start" x="1249.5" y="-152.5" font-family="Helvetica,sans-Serif" font-size="10.00">src/renderer/opengl</text>
<text text-anchor="middle" x="1291.5" y="-141.5" font-family="Helvetica,sans-Serif" font-size="10.00">/mxrenderer.cpp</text>
</a>
</g>
</g>
<!-- Node14&#45;&gt;Node22 -->
<g id="edge28" class="edge">
<title>Node14&#45;&gt;Node22</title>
<path fill="none" stroke="midnightblue" d="M1115.67,-198.93C1154.49,-188.24 1204.4,-174.49 1241.12,-164.38"/>
<polygon fill="midnightblue" stroke="midnightblue" points="1114.26,-195.69 1105.55,-201.72 1116.12,-202.43 1114.26,-195.69"/>
</g>
<!-- Node23 -->
<g id="node23" class="node">
<title>Node23</title>
<g id="a_node23"><a xlink:href="mxshaderprogram_8cpp.html" target="_top" xlink:title=" ">
<polygon fill="none" stroke="black" points="1360,-134.5 1360,-164.5 1475,-164.5 1475,-134.5 1360,-134.5"/>
<text text-anchor="start" x="1368" y="-152.5" font-family="Helvetica,sans-Serif" font-size="10.00">src/renderer/opengl</text>
<text text-anchor="middle" x="1417.5" y="-141.5" font-family="Helvetica,sans-Serif" font-size="10.00">/mxshaderprogram.cpp</text>
</a>
</g>
</g>
<!-- Node14&#45;&gt;Node23 -->
<g id="edge29" class="edge">
<title>Node14&#45;&gt;Node23</title>
<path fill="none" stroke="midnightblue" d="M1115.74,-205.98C1175.46,-196.35 1269.49,-180.69 1350.5,-165 1353.54,-164.41 1356.65,-163.79 1359.79,-163.16"/>
<polygon fill="midnightblue" stroke="midnightblue" points="1115.05,-202.54 1105.73,-207.59 1116.16,-209.45 1115.05,-202.54"/>
</g>
</g>
</svg>
