<?xml version="1.0" encoding="UTF-8" standalone="no"?>
<!DOCTYPE svg PUBLIC "-//W3C//DTD SVG 1.1//EN"
 "http://www.w3.org/Graphics/SVG/1.1/DTD/svg11.dtd">
<!-- Generated by graphviz version 2.44.0 ()
 -->
<!-- Title: src/containers/mxlist.h Pages: 1 -->
<svg width="1541pt" height="218pt"
 viewBox="0.00 0.00 1541.00 218.00" xmlns="http://www.w3.org/2000/svg" xmlns:xlink="http://www.w3.org/1999/xlink">
<g id="graph0" class="graph" transform="scale(1 1) rotate(0) translate(4 214)">
<title>src/containers/mxlist.h</title>
<!-- Node1 -->
<g id="node1" class="node">
<title>Node1</title>
<g id="a_node1"><a xlink:title=" ">
<polygon fill="#bfbfbf" stroke="black" points="438.5,-190.5 438.5,-209.5 552.5,-209.5 552.5,-190.5 438.5,-190.5"/>
<text text-anchor="middle" x="495.5" y="-197.5" font-family="Helvetica,sans-Serif" font-size="10.00">src/containers/mxlist.h</text>
</a>
</g>
</g>
<!-- Node2 -->
<g id="node2" class="node">
<title>Node2</title>
<g id="a_node2"><a xlink:href="mxpainter_8h.html" target="_top" xlink:title=" ">
<polygon fill="none" stroke="black" points="446.5,-134.5 446.5,-153.5 544.5,-153.5 544.5,-134.5 446.5,-134.5"/>
<text text-anchor="middle" x="495.5" y="-141.5" font-family="Helvetica,sans-Serif" font-size="10.00">src/gui/mxpainter.h</text>
</a>
</g>
</g>
<!-- Node1&#45;&gt;Node2 -->
<g id="edge1" class="edge">
<title>Node1&#45;&gt;Node2</title>
<path fill="none" stroke="midnightblue" d="M495.5,-179.8C495.5,-170.91 495.5,-160.78 495.5,-153.75"/>
<polygon fill="midnightblue" stroke="midnightblue" points="492,-180.08 495.5,-190.08 499,-180.08 492,-180.08"/>
</g>
<!-- Node7 -->
<g id="node7" class="node">
<title>Node7</title>
<g id="a_node7"><a xlink:href="mxwidgetlist_8h.html" target="_top" xlink:title=" ">
<polygon fill="none" stroke="black" points="310.5,-134.5 310.5,-153.5 420.5,-153.5 420.5,-134.5 310.5,-134.5"/>
<text text-anchor="middle" x="365.5" y="-141.5" font-family="Helvetica,sans-Serif" font-size="10.00">src/gui/mxwidgetlist.h</text>
</a>
</g>
</g>
<!-- Node1&#45;&gt;Node7 -->
<g id="edge6" class="edge">
<title>Node1&#45;&gt;Node7</title>
<path fill="none" stroke="midnightblue" d="M465.41,-186.5C441.04,-176.38 407.36,-162.39 386,-153.52"/>
<polygon fill="midnightblue" stroke="midnightblue" points="464.32,-189.84 474.9,-190.44 467.01,-183.38 464.32,-189.84"/>
</g>
<!-- Node11 -->
<g id="node11" class="node">
<title>Node11</title>
<g id="a_node11"><a xlink:href="mxrenderer_8h.html" target="_top" xlink:title=" ">
<polygon fill="none" stroke="black" points="777,-134.5 777,-153.5 920,-153.5 920,-134.5 777,-134.5"/>
<text text-anchor="middle" x="848.5" y="-141.5" font-family="Helvetica,sans-Serif" font-size="10.00">src/gui/renderer/mxrenderer.h</text>
</a>
</g>
</g>
<!-- Node1&#45;&gt;Node11 -->
<g id="edge12" class="edge">
<title>Node1&#45;&gt;Node11</title>
<path fill="none" stroke="midnightblue" d="M561.42,-188.92C628.1,-178.71 730.07,-163.12 792.83,-153.52"/>
<polygon fill="midnightblue" stroke="midnightblue" points="560.79,-185.47 551.43,-190.44 561.85,-192.39 560.79,-185.47"/>
</g>
<!-- Node3 -->
<g id="node3" class="node">
<title>Node3</title>
<g id="a_node3"><a xlink:href="mxapplication_8h.html" target="_top" xlink:title=" ">
<polygon fill="none" stroke="black" points="299.5,-73 299.5,-92 431.5,-92 431.5,-73 299.5,-73"/>
<text text-anchor="middle" x="365.5" y="-80" font-family="Helvetica,sans-Serif" font-size="10.00">src/events/mxapplication.h</text>
</a>
</g>
</g>
<!-- Node2&#45;&gt;Node3 -->
<g id="edge2" class="edge">
<title>Node2&#45;&gt;Node3</title>
<path fill="none" stroke="midnightblue" d="M467.48,-130.17C442.25,-118.63 405.89,-101.99 384.09,-92.01"/>
<polygon fill="midnightblue" stroke="midnightblue" points="466.32,-133.5 476.87,-134.48 469.24,-127.13 466.32,-133.5"/>
</g>
<!-- Node6 -->
<g id="node6" class="node">
<title>Node6</title>
<g id="a_node6"><a xlink:href="mxpainter_8cpp.html" target="_top" xlink:title=" ">
<polygon fill="none" stroke="black" points="450,-73 450,-92 559,-92 559,-73 450,-73"/>
<text text-anchor="middle" x="504.5" y="-80" font-family="Helvetica,sans-Serif" font-size="10.00">src/gui/mxpainter.cpp</text>
</a>
</g>
</g>
<!-- Node2&#45;&gt;Node6 -->
<g id="edge5" class="edge">
<title>Node2&#45;&gt;Node6</title>
<path fill="none" stroke="midnightblue" d="M498.33,-124.32C499.96,-113.5 501.94,-100.4 503.21,-92.01"/>
<polygon fill="midnightblue" stroke="midnightblue" points="494.82,-124.06 496.79,-134.48 501.75,-125.11 494.82,-124.06"/>
</g>
<!-- Node4 -->
<g id="node4" class="node">
<title>Node4</title>
<g id="a_node4"><a xlink:href="mxapplication_8cpp.html" target="_top" xlink:title=" ">
<polygon fill="none" stroke="black" points="294,-6 294,-25 437,-25 437,-6 294,-6"/>
<text text-anchor="middle" x="365.5" y="-13" font-family="Helvetica,sans-Serif" font-size="10.00">src/events/mxapplication.cpp</text>
</a>
</g>
</g>
<!-- Node3&#45;&gt;Node4 -->
<g id="edge3" class="edge">
<title>Node3&#45;&gt;Node4</title>
<path fill="none" stroke="midnightblue" d="M365.5,-62.54C365.5,-50.17 365.5,-34.62 365.5,-25.13"/>
<polygon fill="midnightblue" stroke="midnightblue" points="362,-62.73 365.5,-72.73 369,-62.73 362,-62.73"/>
</g>
<!-- Node5 -->
<g id="node5" class="node">
<title>Node5</title>
<g id="a_node5"><a xlink:href="qmewawindow_8cpp.html" target="_top" xlink:title=" ">
<polygon fill="none" stroke="black" points="455.5,-0.5 455.5,-30.5 571.5,-30.5 571.5,-0.5 455.5,-0.5"/>
<text text-anchor="start" x="463.5" y="-18.5" font-family="Helvetica,sans-Serif" font-size="10.00">src/platformabstraction</text>
<text text-anchor="middle" x="513.5" y="-7.5" font-family="Helvetica,sans-Serif" font-size="10.00">/qt/qmewawindow.cpp</text>
</a>
</g>
</g>
<!-- Node3&#45;&gt;Node5 -->
<g id="edge4" class="edge">
<title>Node3&#45;&gt;Node5</title>
<path fill="none" stroke="midnightblue" d="M394.49,-68.77C419.54,-57.77 455.69,-41.89 481.56,-30.53"/>
<polygon fill="midnightblue" stroke="midnightblue" points="392.9,-65.64 385.15,-72.87 395.72,-72.05 392.9,-65.64"/>
</g>
<!-- Node7&#45;&gt;Node3 -->
<g id="edge7" class="edge">
<title>Node7&#45;&gt;Node3</title>
<path fill="none" stroke="midnightblue" d="M365.5,-124.32C365.5,-113.5 365.5,-100.4 365.5,-92.01"/>
<polygon fill="midnightblue" stroke="midnightblue" points="362,-124.48 365.5,-134.48 369,-124.48 362,-124.48"/>
</g>
<!-- Node8 -->
<g id="node8" class="node">
<title>Node8</title>
<g id="a_node8"><a xlink:href="mxwidget_8h.html" target="_top" xlink:title=" ">
<polygon fill="none" stroke="black" points="178.5,-73 178.5,-92 276.5,-92 276.5,-73 178.5,-73"/>
<text text-anchor="middle" x="227.5" y="-80" font-family="Helvetica,sans-Serif" font-size="10.00">src/gui/mxwidget.h</text>
</a>
</g>
</g>
<!-- Node7&#45;&gt;Node8 -->
<g id="edge8" class="edge">
<title>Node7&#45;&gt;Node8</title>
<path fill="none" stroke="midnightblue" d="M336.46,-130.48C309.66,-118.92 270.58,-102.08 247.24,-92.01"/>
<polygon fill="midnightblue" stroke="midnightblue" points="335.16,-133.73 345.73,-134.48 337.93,-127.3 335.16,-133.73"/>
</g>
<!-- Node8&#45;&gt;Node4 -->
<g id="edge9" class="edge">
<title>Node8&#45;&gt;Node4</title>
<path fill="none" stroke="midnightblue" d="M255.22,-68.44C282.55,-55.57 323.55,-36.26 347.1,-25.17"/>
<polygon fill="midnightblue" stroke="midnightblue" points="253.38,-65.44 245.83,-72.87 256.36,-71.77 253.38,-65.44"/>
</g>
<!-- Node9 -->
<g id="node9" class="node">
<title>Node9</title>
<g id="a_node9"><a xlink:href="mxmouseevent_8cpp.html" target="_top" xlink:title=" ">
<polygon fill="none" stroke="black" points="0,-6 0,-25 149,-25 149,-6 0,-6"/>
<text text-anchor="middle" x="74.5" y="-13" font-family="Helvetica,sans-Serif" font-size="10.00">src/events/mxmouseevent.cpp</text>
</a>
</g>
</g>
<!-- Node8&#45;&gt;Node9 -->
<g id="edge10" class="edge">
<title>Node8&#45;&gt;Node9</title>
<path fill="none" stroke="midnightblue" d="M197.96,-68.95C167.66,-56.08 121.35,-36.4 94.9,-25.17"/>
<polygon fill="midnightblue" stroke="midnightblue" points="196.61,-72.18 207.18,-72.87 199.35,-65.74 196.61,-72.18"/>
</g>
<!-- Node10 -->
<g id="node10" class="node">
<title>Node10</title>
<g id="a_node10"><a xlink:href="mxwidget_8cpp.html" target="_top" xlink:title=" ">
<polygon fill="none" stroke="black" points="167.5,-6 167.5,-25 275.5,-25 275.5,-6 167.5,-6"/>
<text text-anchor="middle" x="221.5" y="-13" font-family="Helvetica,sans-Serif" font-size="10.00">src/gui/mxwidget.cpp</text>
</a>
</g>
</g>
<!-- Node8&#45;&gt;Node10 -->
<g id="edge11" class="edge">
<title>Node8&#45;&gt;Node10</title>
<path fill="none" stroke="midnightblue" d="M225.75,-62.54C224.61,-50.17 223.17,-34.62 222.3,-25.13"/>
<polygon fill="midnightblue" stroke="midnightblue" points="222.29,-63.1 226.69,-72.73 229.26,-62.45 222.29,-63.1"/>
</g>
<!-- Node11&#45;&gt;Node3 -->
<g id="edge13" class="edge">
<title>Node11&#45;&gt;Node3</title>
<path fill="none" stroke="midnightblue" d="M766.71,-135.95C684.15,-128.36 553.12,-115.07 440.5,-98 429.35,-96.31 417.34,-94.14 406.27,-92"/>
<polygon fill="midnightblue" stroke="midnightblue" points="766.5,-139.44 776.78,-136.86 767.14,-132.47 766.5,-139.44"/>
</g>
<!-- Node11&#45;&gt;Node6 -->
<g id="edge17" class="edge">
<title>Node11&#45;&gt;Node6</title>
<path fill="none" stroke="midnightblue" d="M778.55,-133.02C721.78,-124.61 639.75,-111.78 568.5,-98 559.33,-96.23 549.47,-94.1 540.3,-92.03"/>
<polygon fill="midnightblue" stroke="midnightblue" points="778.09,-136.49 788.5,-134.48 779.11,-129.56 778.09,-136.49"/>
</g>
<!-- Node12 -->
<g id="node12" class="node">
<title>Node12</title>
<g id="a_node12"><a xlink:href="mxcolorwheelprogram_8cpp.html" target="_top" xlink:title=" ">
<polygon fill="none" stroke="black" points="1275.5,-67.5 1275.5,-97.5 1407.5,-97.5 1407.5,-67.5 1275.5,-67.5"/>
<text text-anchor="start" x="1283.5" y="-85.5" font-family="Helvetica,sans-Serif" font-size="10.00">src/gui/colorselector</text>
<text text-anchor="middle" x="1341.5" y="-74.5" font-family="Helvetica,sans-Serif" font-size="10.00">/mxcolorwheelprogram.cpp</text>
</a>
</g>
</g>
<!-- Node11&#45;&gt;Node12 -->
<g id="edge14" class="edge">
<title>Node11&#45;&gt;Node12</title>
<path fill="none" stroke="midnightblue" d="M930.15,-136.25C1014.59,-128.79 1150.15,-115.48 1266.5,-98 1269.39,-97.57 1272.33,-97.1 1275.3,-96.61"/>
<polygon fill="midnightblue" stroke="midnightblue" points="929.76,-132.77 920.11,-137.13 930.37,-139.74 929.76,-132.77"/>
</g>
<!-- Node13 -->
<g id="node13" class="node">
<title>Node13</title>
<g id="a_node13"><a xlink:href="gpubuffer_8cpp.html" target="_top" xlink:title=" ">
<polygon fill="none" stroke="black" points="1426,-73 1426,-92 1533,-92 1533,-73 1426,-73"/>
<text text-anchor="middle" x="1479.5" y="-80" font-family="Helvetica,sans-Serif" font-size="10.00">src/gui/gpubuffer.cpp</text>
</a>
</g>
</g>
<!-- Node11&#45;&gt;Node13 -->
<g id="edge15" class="edge">
<title>Node11&#45;&gt;Node13</title>
<path fill="none" stroke="midnightblue" d="M930.27,-140.3C1041.03,-135.78 1244.66,-124.44 1416.5,-98 1426.37,-96.48 1437,-94.27 1446.65,-92.02"/>
<polygon fill="midnightblue" stroke="midnightblue" points="930.03,-136.81 920.18,-140.7 930.31,-143.8 930.03,-136.81"/>
</g>
<!-- Node14 -->
<g id="node14" class="node">
<title>Node14</title>
<g id="a_node14"><a xlink:href="gpuvbo_8cpp.html" target="_top" xlink:title=" ">
<polygon fill="none" stroke="black" points="577.5,-73 577.5,-92 675.5,-92 675.5,-73 577.5,-73"/>
<text text-anchor="middle" x="626.5" y="-80" font-family="Helvetica,sans-Serif" font-size="10.00">src/gui/gpuvbo.cpp</text>
</a>
</g>
</g>
<!-- Node11&#45;&gt;Node14 -->
<g id="edge16" class="edge">
<title>Node11&#45;&gt;Node14</title>
<path fill="none" stroke="midnightblue" d="M806.8,-131.82C763.67,-120.26 697.29,-102.47 658.25,-92.01"/>
<polygon fill="midnightblue" stroke="midnightblue" points="806.13,-135.27 816.69,-134.48 807.94,-128.51 806.13,-135.27"/>
</g>
<!-- Node15 -->
<g id="node15" class="node">
<title>Node15</title>
<g id="a_node15"><a xlink:href="mxshaderprogram_8cpp.html" target="_top" xlink:title=" ">
<polygon fill="none" stroke="black" points="693.5,-73 693.5,-92 837.5,-92 837.5,-73 693.5,-73"/>
<text text-anchor="middle" x="765.5" y="-80" font-family="Helvetica,sans-Serif" font-size="10.00">src/gui/mxshaderprogram.cpp</text>
</a>
</g>
</g>
<!-- Node11&#45;&gt;Node15 -->
<g id="edge18" class="edge">
<title>Node11&#45;&gt;Node15</title>
<path fill="none" stroke="midnightblue" d="M828.43,-128.61C812.47,-117.17 790.67,-101.55 777.37,-92.01"/>
<polygon fill="midnightblue" stroke="midnightblue" points="826.44,-131.49 836.61,-134.48 830.52,-125.8 826.44,-131.49"/>
</g>
<!-- Node16 -->
<g id="node16" class="node">
<title>Node16</title>
<g id="a_node16"><a xlink:href="mxrenderer_8cpp.html" target="_top" xlink:title=" ">
<polygon fill="none" stroke="black" points="856,-73 856,-92 1009,-92 1009,-73 856,-73"/>
<text text-anchor="middle" x="932.5" y="-80" font-family="Helvetica,sans-Serif" font-size="10.00">src/gui/renderer/mxrenderer.cpp</text>
</a>
</g>
</g>
<!-- Node11&#45;&gt;Node16 -->
<g id="edge19" class="edge">
<title>Node11&#45;&gt;Node16</title>
<path fill="none" stroke="midnightblue" d="M868.81,-128.61C884.97,-117.17 907.02,-101.55 920.49,-92.01"/>
<polygon fill="midnightblue" stroke="midnightblue" points="866.67,-125.84 860.54,-134.48 870.72,-131.55 866.67,-125.84"/>
</g>
<!-- Node17 -->
<g id="node17" class="node">
<title>Node17</title>
<g id="a_node17"><a xlink:href="mxvectordraw_8cpp.html" target="_top" xlink:title=" ">
<polygon fill="none" stroke="black" points="1027.5,-67.5 1027.5,-97.5 1125.5,-97.5 1125.5,-67.5 1027.5,-67.5"/>
<text text-anchor="start" x="1035.5" y="-85.5" font-family="Helvetica,sans-Serif" font-size="10.00">src/gui/vectordraw</text>
<text text-anchor="middle" x="1076.5" y="-74.5" font-family="Helvetica,sans-Serif" font-size="10.00">/mxvectordraw.cpp</text>
</a>
</g>
</g>
<!-- Node11&#45;&gt;Node17 -->
<g id="edge20" class="edge">
<title>Node11&#45;&gt;Node17</title>
<path fill="none" stroke="midnightblue" d="M891.05,-131.9C929.63,-121.83 986.52,-106.98 1027.1,-96.39"/>
<polygon fill="midnightblue" stroke="midnightblue" points="889.96,-128.56 881.17,-134.48 891.73,-135.34 889.96,-128.56"/>
</g>
<!-- Node18 -->
<g id="node18" class="node">
<title>Node18</title>
<g id="a_node18"><a xlink:href="mxvectorprogram_8cpp.html" target="_top" xlink:title=" ">
<polygon fill="none" stroke="black" points="1144,-67.5 1144,-97.5 1257,-97.5 1257,-67.5 1144,-67.5"/>
<text text-anchor="start" x="1152" y="-85.5" font-family="Helvetica,sans-Serif" font-size="10.00">src/gui/vectordraw</text>
<text text-anchor="middle" x="1200.5" y="-74.5" font-family="Helvetica,sans-Serif" font-size="10.00">/mxvectorprogram.cpp</text>
</a>
</g>
</g>
<!-- Node11&#45;&gt;Node18 -->
<g id="edge21" class="edge">
<title>Node11&#45;&gt;Node18</title>
<path fill="none" stroke="midnightblue" d="M919.65,-133.02C977.64,-124.59 1061.58,-111.73 1134.5,-98 1137.5,-97.44 1140.57,-96.84 1143.66,-96.21"/>
<polygon fill="midnightblue" stroke="midnightblue" points="918.89,-129.59 909.5,-134.49 919.89,-136.52 918.89,-129.59"/>
</g>
</g>
</svg>
