<?xml version="1.0" encoding="UTF-8" standalone="no"?>
<!DOCTYPE svg PUBLIC "-//W3C//DTD SVG 1.1//EN"
 "http://www.w3.org/Graphics/SVG/1.1/DTD/svg11.dtd">
<!-- Generated by graphviz version 2.44.0 ()
 -->
<!-- Title: src/widgets/mxlineedit.cpp Pages: 1 -->
<svg width="1468pt" height="476pt"
 viewBox="0.00 0.00 1468.00 476.00" xmlns="http://www.w3.org/2000/svg" xmlns:xlink="http://www.w3.org/1999/xlink">
<g id="graph0" class="graph" transform="scale(1 1) rotate(0) translate(4 472)">
<title>src/widgets/mxlineedit.cpp</title>
<!-- Node1 -->
<g id="node1" class="node">
<title>Node1</title>
<g id="a_node1"><a xlink:title=" ">
<polygon fill="#bfbfbf" stroke="black" points="791.5,-448.5 791.5,-467.5 922.5,-467.5 922.5,-448.5 791.5,-448.5"/>
<text text-anchor="middle" x="857" y="-455.5" font-family="Helvetica,sans-Serif" font-size="10.00">src/widgets/mxlineedit.cpp</text>
</a>
</g>
</g>
<!-- Node2 -->
<g id="node2" class="node">
<title>Node2</title>
<g id="a_node2"><a xlink:href="mxlineedit_8h.html" target="_top" xlink:title=" ">
<polygon fill="none" stroke="black" points="235,-336.5 235,-355.5 303,-355.5 303,-336.5 235,-336.5"/>
<text text-anchor="middle" x="269" y="-343.5" font-family="Helvetica,sans-Serif" font-size="10.00">mxlineedit.h</text>
</a>
</g>
</g>
<!-- Node1&#45;&gt;Node2 -->
<g id="edge1" class="edge">
<title>Node1&#45;&gt;Node2</title>
<path fill="none" stroke="midnightblue" d="M811.35,-448.46C701.17,-427.85 421.78,-375.58 313.15,-355.26"/>
<polygon fill="midnightblue" stroke="midnightblue" points="313.66,-351.79 303.18,-353.39 312.37,-358.67 313.66,-351.79"/>
</g>
<!-- Node19 -->
<g id="node19" class="node">
<title>Node19</title>
<g id="a_node19"><a xlink:href="mxmouseevent_8h.html" target="_top" xlink:title=" ">
<polygon fill="none" stroke="black" points="989,-336.5 989,-355.5 1079,-355.5 1079,-336.5 989,-336.5"/>
<text text-anchor="middle" x="1034" y="-343.5" font-family="Helvetica,sans-Serif" font-size="10.00">mxmouseevent.h</text>
</a>
</g>
</g>
<!-- Node1&#45;&gt;Node19 -->
<g id="edge31" class="edge">
<title>Node1&#45;&gt;Node19</title>
<path fill="none" stroke="midnightblue" d="M893.07,-448.49C918.13,-441.43 951.47,-429.65 977,-412 995.64,-399.12 1012.11,-378.83 1022.5,-364.35"/>
<polygon fill="midnightblue" stroke="midnightblue" points="1025.59,-366.02 1028.4,-355.81 1019.84,-362.04 1025.59,-366.02"/>
</g>
<!-- Node21 -->
<g id="node21" class="node">
<title>Node21</title>
<g id="a_node21"><a xlink:href="mxfont_8h.html" target="_top" xlink:title=" ">
<polygon fill="none" stroke="black" points="815.5,-224.5 815.5,-243.5 868.5,-243.5 868.5,-224.5 815.5,-224.5"/>
<text text-anchor="middle" x="842" y="-231.5" font-family="Helvetica,sans-Serif" font-size="10.00">mxfont.h</text>
</a>
</g>
</g>
<!-- Node1&#45;&gt;Node21 -->
<g id="edge34" class="edge">
<title>Node1&#45;&gt;Node21</title>
<path fill="none" stroke="midnightblue" d="M856.41,-448.3C854.2,-415.63 846.38,-299.87 843.28,-253.96"/>
<polygon fill="midnightblue" stroke="midnightblue" points="846.77,-253.63 842.6,-243.88 839.78,-254.1 846.77,-253.63"/>
</g>
<!-- Node23 -->
<g id="node23" class="node">
<title>Node23</title>
<g id="a_node23"><a xlink:href="mxeventhandler_8h.html" target="_top" xlink:title=" ">
<polygon fill="none" stroke="black" points="1228,-392.5 1228,-411.5 1320,-411.5 1320,-392.5 1228,-392.5"/>
<text text-anchor="middle" x="1274" y="-399.5" font-family="Helvetica,sans-Serif" font-size="10.00">mxeventhandler.h</text>
</a>
</g>
</g>
<!-- Node1&#45;&gt;Node23 -->
<g id="edge38" class="edge">
<title>Node1&#45;&gt;Node23</title>
<path fill="none" stroke="midnightblue" d="M922.61,-448.5C1003.94,-437.97 1141.15,-420.2 1217.84,-410.27"/>
<polygon fill="midnightblue" stroke="midnightblue" points="1218.32,-413.74 1227.79,-408.98 1217.42,-406.8 1218.32,-413.74"/>
</g>
<!-- Node24 -->
<g id="node24" class="node">
<title>Node24</title>
<g id="a_node24"><a xlink:href="mxapplication_8h.html" target="_top" xlink:title=" ">
<polygon fill="none" stroke="black" points="885.5,-392.5 885.5,-411.5 968.5,-411.5 968.5,-392.5 885.5,-392.5"/>
<text text-anchor="middle" x="927" y="-399.5" font-family="Helvetica,sans-Serif" font-size="10.00">mxapplication.h</text>
</a>
</g>
</g>
<!-- Node1&#45;&gt;Node24 -->
<g id="edge40" class="edge">
<title>Node1&#45;&gt;Node24</title>
<path fill="none" stroke="midnightblue" d="M868.25,-448.32C878.8,-440.18 894.8,-427.84 907.44,-418.09"/>
<polygon fill="midnightblue" stroke="midnightblue" points="909.77,-420.71 915.55,-411.83 905.49,-415.17 909.77,-420.71"/>
</g>
<!-- Node36 -->
<g id="node36" class="node">
<title>Node36</title>
<g id="a_node36"><a xlink:href="mxpainter_8h.html" target="_top" xlink:title=" ">
<polygon fill="none" stroke="black" points="622,-336.5 622,-355.5 688,-355.5 688,-336.5 622,-336.5"/>
<text text-anchor="middle" x="655" y="-343.5" font-family="Helvetica,sans-Serif" font-size="10.00">mxpainter.h</text>
</a>
</g>
</g>
<!-- Node1&#45;&gt;Node36 -->
<g id="edge81" class="edge">
<title>Node1&#45;&gt;Node36</title>
<path fill="none" stroke="midnightblue" d="M810.64,-448.45C781.83,-441.67 744.9,-430.24 716,-412 696.06,-399.41 678.25,-378.78 667.09,-364.14"/>
<polygon fill="midnightblue" stroke="midnightblue" points="669.79,-361.91 661.05,-355.93 664.15,-366.06 669.79,-361.91"/>
</g>
<!-- Node41 -->
<g id="node41" class="node">
<title>Node41</title>
<g id="a_node41"><a xlink:href="widgets_2mxthemecolors_8h.html" target="_top" xlink:title=" ">
<polygon fill="none" stroke="black" points="725,-392.5 725,-411.5 815,-411.5 815,-392.5 725,-392.5"/>
<text text-anchor="middle" x="770" y="-399.5" font-family="Helvetica,sans-Serif" font-size="10.00">mxthemecolors.h</text>
</a>
</g>
</g>
<!-- Node1&#45;&gt;Node41 -->
<g id="edge82" class="edge">
<title>Node1&#45;&gt;Node41</title>
<path fill="none" stroke="midnightblue" d="M843.02,-448.32C829.45,-439.9 808.62,-426.97 792.68,-417.07"/>
<polygon fill="midnightblue" stroke="midnightblue" points="794.29,-413.95 783.94,-411.65 790.59,-419.9 794.29,-413.95"/>
</g>
<!-- Node3 -->
<g id="node3" class="node">
<title>Node3</title>
<g id="a_node3"><a xlink:href="mxwidget_8h.html" target="_top" xlink:title=" ">
<polygon fill="none" stroke="black" points="236.5,-280.5 236.5,-299.5 301.5,-299.5 301.5,-280.5 236.5,-280.5"/>
<text text-anchor="middle" x="269" y="-287.5" font-family="Helvetica,sans-Serif" font-size="10.00">mxwidget.h</text>
</a>
</g>
</g>
<!-- Node2&#45;&gt;Node3 -->
<g id="edge2" class="edge">
<title>Node2&#45;&gt;Node3</title>
<path fill="none" stroke="midnightblue" d="M269,-336.08C269,-329.01 269,-318.86 269,-309.99"/>
<polygon fill="midnightblue" stroke="midnightblue" points="272.5,-309.75 269,-299.75 265.5,-309.75 272.5,-309.75"/>
</g>
<!-- Node15 -->
<g id="node15" class="node">
<title>Node15</title>
<g id="a_node15"><a xlink:href="mxstring_8h.html" target="_top" xlink:title=" ">
<polygon fill="none" stroke="black" points="368.5,-168.5 368.5,-187.5 429.5,-187.5 429.5,-168.5 368.5,-168.5"/>
<text text-anchor="middle" x="399" y="-175.5" font-family="Helvetica,sans-Serif" font-size="10.00">mxstring.h</text>
</a>
</g>
</g>
<!-- Node2&#45;&gt;Node15 -->
<g id="edge19" class="edge">
<title>Node2&#45;&gt;Node15</title>
<path fill="none" stroke="midnightblue" d="M251.18,-336.49C212.54,-316.93 127.31,-267.14 163,-224 187.32,-194.61 297.37,-184.24 358.23,-180.72"/>
<polygon fill="midnightblue" stroke="midnightblue" points="358.47,-184.21 368.27,-180.18 358.09,-177.22 358.47,-184.21"/>
</g>
<!-- Node4 -->
<g id="node4" class="node">
<title>Node4</title>
<g id="a_node4"><a xlink:href="mxrect_8h.html" target="_top" xlink:title=" ">
<polygon fill="none" stroke="black" points="591.5,-168.5 591.5,-187.5 644.5,-187.5 644.5,-168.5 591.5,-168.5"/>
<text text-anchor="middle" x="618" y="-175.5" font-family="Helvetica,sans-Serif" font-size="10.00">mxrect.h</text>
</a>
</g>
</g>
<!-- Node3&#45;&gt;Node4 -->
<g id="edge3" class="edge">
<title>Node3&#45;&gt;Node4</title>
<path fill="none" stroke="midnightblue" d="M277.36,-280.17C291.48,-265.85 321.59,-237.78 353,-224 429.36,-190.5 528.23,-181.84 580.99,-179.67"/>
<polygon fill="midnightblue" stroke="midnightblue" points="581.34,-183.16 591.21,-179.31 581.09,-176.16 581.34,-183.16"/>
</g>
<!-- Node6 -->
<g id="node6" class="node">
<title>Node6</title>
<g id="a_node6"><a xlink:href="mxvector_8h.html" target="_top" xlink:title=" ">
<polygon fill="none" stroke="black" points="755,-112.5 755,-131.5 819,-131.5 819,-112.5 755,-112.5"/>
<text text-anchor="middle" x="787" y="-119.5" font-family="Helvetica,sans-Serif" font-size="10.00">mxvector.h</text>
</a>
</g>
</g>
<!-- Node3&#45;&gt;Node6 -->
<g id="edge8" class="edge">
<title>Node3&#45;&gt;Node6</title>
<path fill="none" stroke="midnightblue" d="M301.78,-280.69C337.14,-271.71 395.09,-256.95 445,-244 478.81,-235.23 487.01,-232.04 521,-224 596.58,-206.11 620.58,-218.51 692,-188 721.37,-175.45 751.1,-153.23 769.29,-138.31"/>
<polygon fill="midnightblue" stroke="midnightblue" points="771.83,-140.75 777.24,-131.65 767.33,-135.39 771.83,-140.75"/>
</g>
<!-- Node8 -->
<g id="node8" class="node">
<title>Node8</title>
<g id="a_node8"><a xlink:href="mxwidgetlist_8h.html" target="_top" xlink:title=" ">
<polygon fill="none" stroke="black" points="0,-224.5 0,-243.5 78,-243.5 78,-224.5 0,-224.5"/>
<text text-anchor="middle" x="39" y="-231.5" font-family="Helvetica,sans-Serif" font-size="10.00">mxwidgetlist.h</text>
</a>
</g>
</g>
<!-- Node3&#45;&gt;Node8 -->
<g id="edge9" class="edge">
<title>Node3&#45;&gt;Node8</title>
<path fill="none" stroke="midnightblue" d="M236.05,-281.26C196.44,-271.96 129.73,-256.3 85.05,-245.81"/>
<polygon fill="midnightblue" stroke="midnightblue" points="85.84,-242.4 75.31,-243.52 84.24,-249.22 85.84,-242.4"/>
</g>
<!-- Node14 -->
<g id="node14" class="node">
<title>Node14</title>
<g id="a_node14"><a xlink:href="mxclippedwidget_8h.html" target="_top" xlink:title=" ">
<polygon fill="none" stroke="black" points="172,-224.5 172,-243.5 268,-243.5 268,-224.5 172,-224.5"/>
<text text-anchor="middle" x="220" y="-231.5" font-family="Helvetica,sans-Serif" font-size="10.00">mxclippedwidget.h</text>
</a>
</g>
</g>
<!-- Node3&#45;&gt;Node14 -->
<g id="edge16" class="edge">
<title>Node3&#45;&gt;Node14</title>
<path fill="none" stroke="midnightblue" d="M260.91,-280.08C253.84,-272.3 243.41,-260.8 234.85,-251.37"/>
<polygon fill="midnightblue" stroke="midnightblue" points="237.25,-248.8 227.94,-243.75 232.07,-253.51 237.25,-248.8"/>
</g>
<!-- Node5 -->
<g id="node5" class="node">
<title>Node5</title>
<g id="a_node5"><a xlink:title=" ">
<polygon fill="none" stroke="#bfbfbf" points="680.5,-0.5 680.5,-19.5 743.5,-19.5 743.5,-0.5 680.5,-0.5"/>
<text text-anchor="middle" x="712" y="-7.5" font-family="Helvetica,sans-Serif" font-size="10.00">mxdebug.h</text>
</a>
</g>
</g>
<!-- Node4&#45;&gt;Node5 -->
<g id="edge4" class="edge">
<title>Node4&#45;&gt;Node5</title>
<path fill="none" stroke="midnightblue" d="M626.36,-168.2C634.36,-159.48 646.45,-145.5 655,-132 676.85,-97.47 695.59,-53.24 705.18,-28.96"/>
<polygon fill="midnightblue" stroke="midnightblue" points="708.46,-30.18 708.81,-19.59 701.93,-27.65 708.46,-30.18"/>
</g>
<!-- Node4&#45;&gt;Node6 -->
<g id="edge5" class="edge">
<title>Node4&#45;&gt;Node6</title>
<path fill="none" stroke="midnightblue" d="M644.78,-168.44C673.33,-159.32 718.73,-144.81 750.54,-134.65"/>
<polygon fill="midnightblue" stroke="midnightblue" points="751.89,-137.89 760.35,-131.52 749.76,-131.23 751.89,-137.89"/>
</g>
<!-- Node7 -->
<g id="node7" class="node">
<title>Node7</title>
<g id="a_node7"><a xlink:title=" ">
<polygon fill="none" stroke="#bfbfbf" points="590,-112.5 590,-131.5 646,-131.5 646,-112.5 590,-112.5"/>
<text text-anchor="middle" x="618" y="-119.5" font-family="Helvetica,sans-Serif" font-size="10.00">algorithm</text>
</a>
</g>
</g>
<!-- Node4&#45;&gt;Node7 -->
<g id="edge7" class="edge">
<title>Node4&#45;&gt;Node7</title>
<path fill="none" stroke="midnightblue" d="M618,-168.08C618,-161.01 618,-150.86 618,-141.99"/>
<polygon fill="midnightblue" stroke="midnightblue" points="621.5,-141.75 618,-131.75 614.5,-141.75 621.5,-141.75"/>
</g>
<!-- Node6&#45;&gt;Node5 -->
<g id="edge6" class="edge">
<title>Node6&#45;&gt;Node5</title>
<path fill="none" stroke="midnightblue" d="M781.11,-112.37C768.74,-94.22 739.82,-51.8 723.58,-27.99"/>
<polygon fill="midnightblue" stroke="midnightblue" points="726.38,-25.88 717.86,-19.59 720.6,-29.83 726.38,-25.88"/>
</g>
<!-- Node9 -->
<g id="node9" class="node">
<title>Node9</title>
<g id="a_node9"><a xlink:href="mxlist_8h.html" target="_top" xlink:title=" ">
<polygon fill="none" stroke="black" points="181,-168.5 181,-187.5 231,-187.5 231,-168.5 181,-168.5"/>
<text text-anchor="middle" x="206" y="-175.5" font-family="Helvetica,sans-Serif" font-size="10.00">mxlist.h</text>
</a>
</g>
</g>
<!-- Node8&#45;&gt;Node9 -->
<g id="edge10" class="edge">
<title>Node8&#45;&gt;Node9</title>
<path fill="none" stroke="midnightblue" d="M65.46,-224.44C94.01,-215.21 139.6,-200.47 171.07,-190.29"/>
<polygon fill="midnightblue" stroke="midnightblue" points="172.32,-193.57 180.76,-187.16 170.16,-186.91 172.32,-193.57"/>
</g>
<!-- Node9&#45;&gt;Node5 -->
<g id="edge11" class="edge">
<title>Node9&#45;&gt;Node5</title>
<path fill="none" stroke="midnightblue" d="M231.28,-174.64C297.49,-167.66 480.16,-143.23 615,-76 643.82,-61.63 674.22,-40.07 693.14,-25.77"/>
<polygon fill="midnightblue" stroke="midnightblue" points="695.41,-28.44 701.22,-19.58 691.15,-22.89 695.41,-28.44"/>
</g>
<!-- Node10 -->
<g id="node10" class="node">
<title>Node10</title>
<g id="a_node10"><a xlink:href="mxrefcounter_8h.html" target="_top" xlink:title=" ">
<polygon fill="none" stroke="black" points="182,-56.5 182,-75.5 262,-75.5 262,-56.5 182,-56.5"/>
<text text-anchor="middle" x="222" y="-63.5" font-family="Helvetica,sans-Serif" font-size="10.00">mxrefcounter.h</text>
</a>
</g>
</g>
<!-- Node9&#45;&gt;Node10 -->
<g id="edge12" class="edge">
<title>Node9&#45;&gt;Node10</title>
<path fill="none" stroke="midnightblue" d="M207.26,-168.37C209.84,-150.62 215.79,-109.67 219.29,-85.6"/>
<polygon fill="midnightblue" stroke="midnightblue" points="222.77,-85.99 220.75,-75.59 215.85,-84.98 222.77,-85.99"/>
</g>
<!-- Node11 -->
<g id="node11" class="node">
<title>Node11</title>
<g id="a_node11"><a xlink:title=" ">
<polygon fill="none" stroke="#bfbfbf" points="318.5,-0.5 318.5,-19.5 365.5,-19.5 365.5,-0.5 318.5,-0.5"/>
<text text-anchor="middle" x="342" y="-7.5" font-family="Helvetica,sans-Serif" font-size="10.00">stdlib.h</text>
</a>
</g>
</g>
<!-- Node9&#45;&gt;Node11 -->
<g id="edge13" class="edge">
<title>Node9&#45;&gt;Node11</title>
<path fill="none" stroke="midnightblue" d="M199.11,-168.41C182.95,-147.14 145.91,-91.2 173,-56 209.28,-8.87 244.95,-33.51 308.24,-19.92"/>
<polygon fill="midnightblue" stroke="midnightblue" points="309.31,-23.26 318.21,-17.51 307.67,-16.46 309.31,-23.26"/>
</g>
<!-- Node12 -->
<g id="node12" class="node">
<title>Node12</title>
<g id="a_node12"><a xlink:title=" ">
<polygon fill="none" stroke="#bfbfbf" points="252,-0.5 252,-19.5 300,-19.5 300,-0.5 252,-0.5"/>
<text text-anchor="middle" x="276" y="-7.5" font-family="Helvetica,sans-Serif" font-size="10.00">string.h</text>
</a>
</g>
</g>
<!-- Node9&#45;&gt;Node12 -->
<g id="edge14" class="edge">
<title>Node9&#45;&gt;Node12</title>
<path fill="none" stroke="midnightblue" d="M183.54,-168.38C168.23,-161.18 149.14,-149.29 140,-132 124.22,-102.14 120.22,-83.38 140,-56 163.03,-24.12 209.5,-14.46 241.66,-11.72"/>
<polygon fill="midnightblue" stroke="midnightblue" points="242.22,-15.2 251.97,-11.04 241.76,-8.21 242.22,-15.2"/>
</g>
<!-- Node13 -->
<g id="node13" class="node">
<title>Node13</title>
<g id="a_node13"><a xlink:title=" ">
<polygon fill="none" stroke="#bfbfbf" points="234.5,-112.5 234.5,-131.5 269.5,-131.5 269.5,-112.5 234.5,-112.5"/>
<text text-anchor="middle" x="252" y="-119.5" font-family="Helvetica,sans-Serif" font-size="10.00">new</text>
</a>
</g>
</g>
<!-- Node9&#45;&gt;Node13 -->
<g id="edge15" class="edge">
<title>Node9&#45;&gt;Node13</title>
<path fill="none" stroke="midnightblue" d="M213.6,-168.08C220.23,-160.3 230.02,-148.8 238.06,-139.37"/>
<polygon fill="midnightblue" stroke="midnightblue" points="240.73,-141.63 244.55,-131.75 235.4,-137.09 240.73,-141.63"/>
</g>
<!-- Node14&#45;&gt;Node4 -->
<g id="edge17" class="edge">
<title>Node14&#45;&gt;Node4</title>
<path fill="none" stroke="midnightblue" d="M268.06,-225.97C272.77,-225.3 277.48,-224.63 282,-224 390.83,-208.81 519.63,-191.84 581.39,-183.77"/>
<polygon fill="midnightblue" stroke="midnightblue" points="581.95,-187.22 591.42,-182.46 581.05,-180.28 581.95,-187.22"/>
</g>
<!-- Node14&#45;&gt;Node9 -->
<g id="edge18" class="edge">
<title>Node14&#45;&gt;Node9</title>
<path fill="none" stroke="midnightblue" d="M217.69,-224.08C215.83,-216.93 213.16,-206.64 210.85,-197.69"/>
<polygon fill="midnightblue" stroke="midnightblue" points="214.17,-196.55 208.27,-187.75 207.39,-198.31 214.17,-196.55"/>
</g>
<!-- Node16 -->
<g id="node16" class="node">
<title>Node16</title>
<g id="a_node16"><a xlink:href="mxgenericstring_8h.html" target="_top" xlink:title=" ">
<polygon fill="none" stroke="black" points="353,-112.5 353,-131.5 445,-131.5 445,-112.5 353,-112.5"/>
<text text-anchor="middle" x="399" y="-119.5" font-family="Helvetica,sans-Serif" font-size="10.00">mxgenericstring.h</text>
</a>
</g>
</g>
<!-- Node15&#45;&gt;Node16 -->
<g id="edge20" class="edge">
<title>Node15&#45;&gt;Node16</title>
<path fill="none" stroke="midnightblue" d="M399,-168.08C399,-161.01 399,-150.86 399,-141.99"/>
<polygon fill="midnightblue" stroke="midnightblue" points="402.5,-141.75 399,-131.75 395.5,-141.75 402.5,-141.75"/>
</g>
<!-- Node16&#45;&gt;Node5 -->
<g id="edge21" class="edge">
<title>Node16&#45;&gt;Node5</title>
<path fill="none" stroke="midnightblue" d="M444.16,-112.45C481.05,-104.82 534.21,-92.34 579,-76 589.76,-72.08 650.01,-42.11 685.62,-24.26"/>
<polygon fill="midnightblue" stroke="midnightblue" points="687.58,-27.19 694.95,-19.58 684.44,-20.94 687.58,-27.19"/>
</g>
<!-- Node16&#45;&gt;Node10 -->
<g id="edge22" class="edge">
<title>Node16&#45;&gt;Node10</title>
<path fill="none" stroke="midnightblue" d="M370.95,-112.44C340.92,-103.28 293.09,-88.69 259.76,-78.52"/>
<polygon fill="midnightblue" stroke="midnightblue" points="260.5,-75.09 249.91,-75.52 258.46,-81.78 260.5,-75.09"/>
</g>
<!-- Node16&#45;&gt;Node11 -->
<g id="edge29" class="edge">
<title>Node16&#45;&gt;Node11</title>
<path fill="none" stroke="midnightblue" d="M383.78,-112.47C371.53,-104.69 355.06,-91.99 347,-76 339.75,-61.63 339.01,-43.17 339.79,-29.6"/>
<polygon fill="midnightblue" stroke="midnightblue" points="343.28,-29.81 340.69,-19.54 336.31,-29.19 343.28,-29.81"/>
</g>
<!-- Node16&#45;&gt;Node12 -->
<g id="edge30" class="edge">
<title>Node16&#45;&gt;Node12</title>
<path fill="none" stroke="midnightblue" d="M385.88,-112.31C373.18,-103.67 353.6,-89.75 338,-76 320.56,-60.63 302.41,-41.12 290.29,-27.51"/>
<polygon fill="midnightblue" stroke="midnightblue" points="292.81,-25.08 283.58,-19.88 287.56,-29.7 292.81,-25.08"/>
</g>
<!-- Node17 -->
<g id="node17" class="node">
<title>Node17</title>
<g id="a_node17"><a xlink:href="mxbytearrayref_8h.html" target="_top" xlink:title=" ">
<polygon fill="none" stroke="black" points="356.5,-56.5 356.5,-75.5 443.5,-75.5 443.5,-56.5 356.5,-56.5"/>
<text text-anchor="middle" x="400" y="-63.5" font-family="Helvetica,sans-Serif" font-size="10.00">mxbytearrayref.h</text>
</a>
</g>
</g>
<!-- Node16&#45;&gt;Node17 -->
<g id="edge23" class="edge">
<title>Node16&#45;&gt;Node17</title>
<path fill="none" stroke="midnightblue" d="M399.17,-112.08C399.3,-105.01 399.48,-94.86 399.65,-85.99"/>
<polygon fill="midnightblue" stroke="midnightblue" points="403.15,-85.81 399.84,-75.75 396.15,-85.68 403.15,-85.81"/>
</g>
<!-- Node18 -->
<g id="node18" class="node">
<title>Node18</title>
<g id="a_node18"><a xlink:href="mxgenericsubstring_8h.html" target="_top" xlink:title=" ">
<polygon fill="none" stroke="black" points="462,-56.5 462,-75.5 570,-75.5 570,-56.5 462,-56.5"/>
<text text-anchor="middle" x="516" y="-63.5" font-family="Helvetica,sans-Serif" font-size="10.00">mxgenericsubstring.h</text>
</a>
</g>
</g>
<!-- Node16&#45;&gt;Node18 -->
<g id="edge27" class="edge">
<title>Node16&#45;&gt;Node18</title>
<path fill="none" stroke="midnightblue" d="M417.54,-112.44C436.62,-103.64 466.57,-89.81 488.44,-79.72"/>
<polygon fill="midnightblue" stroke="midnightblue" points="489.93,-82.88 497.55,-75.52 487,-76.53 489.93,-82.88"/>
</g>
<!-- Node17&#45;&gt;Node5 -->
<g id="edge24" class="edge">
<title>Node17&#45;&gt;Node5</title>
<path fill="none" stroke="midnightblue" d="M443.71,-57.43C503.83,-47.03 611.28,-28.43 670.32,-18.21"/>
<polygon fill="midnightblue" stroke="midnightblue" points="671.15,-21.62 680.41,-16.47 669.95,-14.73 671.15,-21.62"/>
</g>
<!-- Node17&#45;&gt;Node11 -->
<g id="edge25" class="edge">
<title>Node17&#45;&gt;Node11</title>
<path fill="none" stroke="midnightblue" d="M390.68,-56.32C382.11,-48.34 369.19,-36.31 358.81,-26.65"/>
<polygon fill="midnightblue" stroke="midnightblue" points="361.19,-24.09 351.49,-19.83 356.42,-29.21 361.19,-24.09"/>
</g>
<!-- Node17&#45;&gt;Node12 -->
<g id="edge26" class="edge">
<title>Node17&#45;&gt;Node12</title>
<path fill="none" stroke="midnightblue" d="M380.35,-56.44C360.04,-47.6 328.1,-33.69 304.9,-23.59"/>
<polygon fill="midnightblue" stroke="midnightblue" points="306.12,-20.3 295.56,-19.52 303.33,-26.72 306.12,-20.3"/>
</g>
<!-- Node18&#45;&gt;Node5 -->
<g id="edge28" class="edge">
<title>Node18&#45;&gt;Node5</title>
<path fill="none" stroke="midnightblue" d="M547.06,-56.44C580.6,-47.2 634.2,-32.44 671.14,-22.26"/>
<polygon fill="midnightblue" stroke="midnightblue" points="672.38,-25.55 681.09,-19.52 670.52,-18.8 672.38,-25.55"/>
</g>
<!-- Node19&#45;&gt;Node6 -->
<g id="edge32" class="edge">
<title>Node19&#45;&gt;Node6</title>
<path fill="none" stroke="midnightblue" d="M1024.32,-336.3C987.04,-302.8 852.51,-181.88 804.32,-138.57"/>
<polygon fill="midnightblue" stroke="midnightblue" points="806.39,-135.72 796.62,-131.64 801.71,-140.93 806.39,-135.72"/>
</g>
<!-- Node20 -->
<g id="node20" class="node">
<title>Node20</title>
<g id="a_node20"><a xlink:title=" ">
<polygon fill="none" stroke="#bfbfbf" points="1249,-280.5 1249,-299.5 1387,-299.5 1387,-280.5 1249,-280.5"/>
<text text-anchor="middle" x="1318" y="-287.5" font-family="Helvetica,sans-Serif" font-size="10.00">mxmouseeventabstraction.h</text>
</a>
</g>
</g>
<!-- Node19&#45;&gt;Node20 -->
<g id="edge33" class="edge">
<title>Node19&#45;&gt;Node20</title>
<path fill="none" stroke="midnightblue" d="M1079,-336.44C1128.96,-326.94 1209.6,-311.61 1263.2,-301.42"/>
<polygon fill="midnightblue" stroke="midnightblue" points="1264.04,-304.82 1273.21,-299.52 1262.73,-297.95 1264.04,-304.82"/>
</g>
<!-- Node21&#45;&gt;Node6 -->
<g id="edge35" class="edge">
<title>Node21&#45;&gt;Node6</title>
<path fill="none" stroke="midnightblue" d="M837.68,-224.37C828.69,-206.38 807.78,-164.55 795.81,-140.63"/>
<polygon fill="midnightblue" stroke="midnightblue" points="798.9,-138.97 791.3,-131.59 792.64,-142.1 798.9,-138.97"/>
</g>
<!-- Node21&#45;&gt;Node15 -->
<g id="edge36" class="edge">
<title>Node21&#45;&gt;Node15</title>
<path fill="none" stroke="midnightblue" d="M815.29,-229.74C740.52,-220.63 528.81,-194.82 439.52,-183.94"/>
<polygon fill="midnightblue" stroke="midnightblue" points="439.86,-180.45 429.51,-182.72 439.01,-187.4 439.86,-180.45"/>
</g>
<!-- Node22 -->
<g id="node22" class="node">
<title>Node22</title>
<g id="a_node22"><a xlink:title=" ">
<polygon fill="none" stroke="#bfbfbf" points="1043.5,-112.5 1043.5,-131.5 1108.5,-131.5 1108.5,-112.5 1043.5,-112.5"/>
<text text-anchor="middle" x="1076" y="-119.5" font-family="Helvetica,sans-Serif" font-size="10.00">mxopengl.h</text>
</a>
</g>
</g>
<!-- Node21&#45;&gt;Node22 -->
<g id="edge37" class="edge">
<title>Node21&#45;&gt;Node22</title>
<path fill="none" stroke="midnightblue" d="M860.36,-224.37C901.29,-205.13 1000.17,-158.65 1048.49,-135.93"/>
<polygon fill="midnightblue" stroke="midnightblue" points="1050.16,-139.01 1057.72,-131.59 1047.18,-132.68 1050.16,-139.01"/>
</g>
<!-- Node23&#45;&gt;Node5 -->
<g id="edge39" class="edge">
<title>Node23&#45;&gt;Node5</title>
<path fill="none" stroke="midnightblue" d="M1320.46,-394.18C1375.55,-383.16 1460,-355.72 1460,-291 1460,-291 1460,-291 1460,-121 1460,-43.01 1372.97,-73.64 1297,-56 1193.44,-31.96 869.84,-17.21 753.87,-12.58"/>
<polygon fill="midnightblue" stroke="midnightblue" points="753.76,-9.07 743.63,-12.17 753.49,-16.06 753.76,-9.07"/>
</g>
<!-- Node24&#45;&gt;Node5 -->
<g id="edge41" class="edge">
<title>Node24&#45;&gt;Node5</title>
<path fill="none" stroke="midnightblue" d="M968.78,-400.58C1088.11,-398.27 1422,-383.55 1422,-291 1422,-291 1422,-291 1422,-121 1422,-53.01 907.05,-21.05 754.25,-13.06"/>
<polygon fill="midnightblue" stroke="midnightblue" points="754.05,-9.54 743.89,-12.52 753.69,-16.53 754.05,-9.54"/>
</g>
<!-- Node24&#45;&gt;Node8 -->
<g id="edge42" class="edge">
<title>Node24&#45;&gt;Node8</title>
<path fill="none" stroke="midnightblue" d="M885.42,-397.11C866.67,-395.42 844.23,-393.49 824,-392 691.23,-382.2 352.49,-397.53 226,-356 156.15,-333.07 86.91,-277.46 55.9,-250.36"/>
<polygon fill="midnightblue" stroke="midnightblue" points="58,-247.54 48.2,-243.52 53.35,-252.78 58,-247.54"/>
</g>
<!-- Node24&#45;&gt;Node19 -->
<g id="edge67" class="edge">
<title>Node24&#45;&gt;Node19</title>
<path fill="none" stroke="midnightblue" d="M944.19,-392.32C961.35,-383.66 987.95,-370.24 1007.75,-360.25"/>
<polygon fill="midnightblue" stroke="midnightblue" points="1009.5,-363.28 1016.85,-355.65 1006.35,-357.04 1009.5,-363.28"/>
</g>
<!-- Node25 -->
<g id="node25" class="node">
<title>Node25</title>
<g id="a_node25"><a xlink:href="mxguirenderer_8h.html" target="_top" xlink:title=" ">
<polygon fill="none" stroke="black" points="885.5,-336.5 885.5,-355.5 970.5,-355.5 970.5,-336.5 885.5,-336.5"/>
<text text-anchor="middle" x="928" y="-343.5" font-family="Helvetica,sans-Serif" font-size="10.00">mxguirenderer.h</text>
</a>
</g>
</g>
<!-- Node24&#45;&gt;Node25 -->
<g id="edge43" class="edge">
<title>Node24&#45;&gt;Node25</title>
<path fill="none" stroke="midnightblue" d="M927.17,-392.08C927.3,-385.01 927.48,-374.86 927.65,-365.99"/>
<polygon fill="midnightblue" stroke="midnightblue" points="931.15,-365.81 927.84,-355.75 924.15,-365.68 931.15,-365.81"/>
</g>
<!-- Node24&#45;&gt;Node36 -->
<g id="edge68" class="edge">
<title>Node24&#45;&gt;Node36</title>
<path fill="none" stroke="midnightblue" d="M885.39,-392.74C834.71,-382.68 749.53,-365.77 698.16,-355.57"/>
<polygon fill="midnightblue" stroke="midnightblue" points="698.53,-352.07 688.04,-353.56 697.17,-358.94 698.53,-352.07"/>
</g>
<!-- Node26 -->
<g id="node26" class="node">
<title>Node26</title>
<g id="a_node26"><a xlink:href="mxbuffer_8h.html" target="_top" xlink:title=" ">
<polygon fill="none" stroke="black" points="885.5,-280.5 885.5,-299.5 946.5,-299.5 946.5,-280.5 885.5,-280.5"/>
<text text-anchor="middle" x="916" y="-287.5" font-family="Helvetica,sans-Serif" font-size="10.00">mxbuffer.h</text>
</a>
</g>
</g>
<!-- Node25&#45;&gt;Node26 -->
<g id="edge44" class="edge">
<title>Node25&#45;&gt;Node26</title>
<path fill="none" stroke="midnightblue" d="M926.02,-336.08C924.43,-328.93 922.14,-318.64 920.15,-309.69"/>
<polygon fill="midnightblue" stroke="midnightblue" points="923.53,-308.75 917.94,-299.75 916.7,-310.27 923.53,-308.75"/>
</g>
<!-- Node27 -->
<g id="node27" class="node">
<title>Node27</title>
<g id="a_node27"><a xlink:href="mxrenderer_8h.html" target="_top" xlink:title=" ">
<polygon fill="none" stroke="black" points="1159,-280.5 1159,-299.5 1231,-299.5 1231,-280.5 1159,-280.5"/>
<text text-anchor="middle" x="1195" y="-287.5" font-family="Helvetica,sans-Serif" font-size="10.00">mxrenderer.h</text>
</a>
</g>
</g>
<!-- Node25&#45;&gt;Node27 -->
<g id="edge45" class="edge">
<title>Node25&#45;&gt;Node27</title>
<path fill="none" stroke="midnightblue" d="M970.31,-336.44C1019.01,-326.59 1098.72,-310.47 1148.94,-300.31"/>
<polygon fill="midnightblue" stroke="midnightblue" points="1149.78,-303.72 1158.88,-298.3 1148.39,-296.86 1149.78,-303.72"/>
</g>
<!-- Node33 -->
<g id="node33" class="node">
<title>Node33</title>
<g id="a_node33"><a xlink:href="mxvectorprogram_8h.html" target="_top" xlink:title=" ">
<polygon fill="none" stroke="black" points="1041.5,-280.5 1041.5,-299.5 1140.5,-299.5 1140.5,-280.5 1041.5,-280.5"/>
<text text-anchor="middle" x="1091" y="-287.5" font-family="Helvetica,sans-Serif" font-size="10.00">mxvectorprogram.h</text>
</a>
</g>
</g>
<!-- Node25&#45;&gt;Node33 -->
<g id="edge55" class="edge">
<title>Node25&#45;&gt;Node33</title>
<path fill="none" stroke="midnightblue" d="M953.83,-336.44C981.25,-327.36 1024.78,-312.94 1055.43,-302.78"/>
<polygon fill="midnightblue" stroke="midnightblue" points="1056.9,-305.98 1065.29,-299.52 1054.7,-299.34 1056.9,-305.98"/>
</g>
<!-- Node35 -->
<g id="node35" class="node">
<title>Node35</title>
<g id="a_node35"><a xlink:href="mxiconprogram_8h.html" target="_top" xlink:title=" ">
<polygon fill="none" stroke="black" points="968,-224.5 968,-243.5 1058,-243.5 1058,-224.5 968,-224.5"/>
<text text-anchor="middle" x="1013" y="-231.5" font-family="Helvetica,sans-Serif" font-size="10.00">mxiconprogram.h</text>
</a>
</g>
</g>
<!-- Node25&#45;&gt;Node35 -->
<g id="edge60" class="edge">
<title>Node25&#45;&gt;Node35</title>
<path fill="none" stroke="midnightblue" d="M934.67,-336.37C948.76,-318.14 981.76,-275.43 1000.11,-251.68"/>
<polygon fill="midnightblue" stroke="midnightblue" points="1003.02,-253.64 1006.36,-243.59 997.48,-249.36 1003.02,-253.64"/>
</g>
<!-- Node27&#45;&gt;Node6 -->
<g id="edge54" class="edge">
<title>Node27&#45;&gt;Node6</title>
<path fill="none" stroke="midnightblue" d="M1158.84,-281.91C1155.52,-281.26 1152.2,-280.62 1149,-280 1064.6,-263.75 1035.73,-282.72 959,-244 914.64,-221.61 917.86,-196.28 877,-168 858.46,-155.16 835.73,-143.83 817.75,-135.75"/>
<polygon fill="midnightblue" stroke="midnightblue" points="818.88,-132.42 808.31,-131.6 816.06,-138.83 818.88,-132.42"/>
</g>
<!-- Node27&#45;&gt;Node9 -->
<g id="edge46" class="edge">
<title>Node27&#45;&gt;Node9</title>
<path fill="none" stroke="midnightblue" d="M1158.92,-281.42C1155.58,-280.87 1152.23,-280.39 1149,-280 973.19,-258.94 525.38,-284.5 353,-244 307.07,-233.21 257.69,-208.32 229.45,-192.66"/>
<polygon fill="midnightblue" stroke="midnightblue" points="230.82,-189.41 220.39,-187.55 227.38,-195.51 230.82,-189.41"/>
</g>
<!-- Node28 -->
<g id="node28" class="node">
<title>Node28</title>
<g id="a_node28"><a xlink:href="mxgpuarray_8h.html" target="_top" xlink:title=" ">
<polygon fill="none" stroke="black" points="1190,-224.5 1190,-243.5 1264,-243.5 1264,-224.5 1190,-224.5"/>
<text text-anchor="middle" x="1227" y="-231.5" font-family="Helvetica,sans-Serif" font-size="10.00">mxgpuarray.h</text>
</a>
</g>
</g>
<!-- Node27&#45;&gt;Node28 -->
<g id="edge47" class="edge">
<title>Node27&#45;&gt;Node28</title>
<path fill="none" stroke="midnightblue" d="M1200.28,-280.08C1204.71,-272.61 1211.16,-261.72 1216.62,-252.52"/>
<polygon fill="midnightblue" stroke="midnightblue" points="1219.73,-254.14 1221.81,-243.75 1213.71,-250.57 1219.73,-254.14"/>
</g>
<!-- Node30 -->
<g id="node30" class="node">
<title>Node30</title>
<g id="a_node30"><a xlink:href="mxmatrix_8h.html" target="_top" xlink:title=" ">
<polygon fill="none" stroke="black" points="1081.5,-168.5 1081.5,-187.5 1144.5,-187.5 1144.5,-168.5 1081.5,-168.5"/>
<text text-anchor="middle" x="1113" y="-175.5" font-family="Helvetica,sans-Serif" font-size="10.00">mxmatrix.h</text>
</a>
</g>
</g>
<!-- Node27&#45;&gt;Node30 -->
<g id="edge51" class="edge">
<title>Node27&#45;&gt;Node30</title>
<path fill="none" stroke="midnightblue" d="M1188.57,-280.37C1174.97,-262.14 1143.14,-219.43 1125.43,-195.68"/>
<polygon fill="midnightblue" stroke="midnightblue" points="1128.19,-193.52 1119.4,-187.59 1122.58,-197.7 1128.19,-193.52"/>
</g>
<!-- Node31 -->
<g id="node31" class="node">
<title>Node31</title>
<g id="a_node31"><a xlink:href="mxopenglfunctions_8h.html" target="_top" xlink:title=" ">
<polygon fill="none" stroke="black" points="1282.5,-224.5 1282.5,-243.5 1387.5,-243.5 1387.5,-224.5 1282.5,-224.5"/>
<text text-anchor="middle" x="1335" y="-231.5" font-family="Helvetica,sans-Serif" font-size="10.00">mxopenglfunctions.h</text>
</a>
</g>
</g>
<!-- Node27&#45;&gt;Node31 -->
<g id="edge52" class="edge">
<title>Node27&#45;&gt;Node31</title>
<path fill="none" stroke="midnightblue" d="M1217.18,-280.44C1240.43,-271.48 1277.15,-257.31 1303.42,-247.18"/>
<polygon fill="midnightblue" stroke="midnightblue" points="1304.85,-250.38 1312.92,-243.52 1302.33,-243.85 1304.85,-250.38"/>
</g>
<!-- Node29 -->
<g id="node29" class="node">
<title>Node29</title>
<g id="a_node29"><a xlink:href="mxgpuprogram_8h.html" target="_top" xlink:title=" ">
<polygon fill="none" stroke="black" points="1163,-168.5 1163,-187.5 1251,-187.5 1251,-168.5 1163,-168.5"/>
<text text-anchor="middle" x="1207" y="-175.5" font-family="Helvetica,sans-Serif" font-size="10.00">mxgpuprogram.h</text>
</a>
</g>
</g>
<!-- Node28&#45;&gt;Node29 -->
<g id="edge48" class="edge">
<title>Node28&#45;&gt;Node29</title>
<path fill="none" stroke="midnightblue" d="M1223.7,-224.08C1221.02,-216.85 1217.15,-206.41 1213.81,-197.4"/>
<polygon fill="midnightblue" stroke="midnightblue" points="1217,-195.91 1210.24,-187.75 1210.43,-198.34 1217,-195.91"/>
</g>
<!-- Node29&#45;&gt;Node5 -->
<g id="edge49" class="edge">
<title>Node29&#45;&gt;Node5</title>
<path fill="none" stroke="midnightblue" d="M1197.91,-168.34C1173.16,-145.37 1101.56,-82.8 1029,-56 934.85,-21.22 815.82,-13.12 753.84,-11.36"/>
<polygon fill="midnightblue" stroke="midnightblue" points="753.75,-7.86 743.67,-11.11 753.58,-14.85 753.75,-7.86"/>
</g>
<!-- Node29&#45;&gt;Node22 -->
<g id="edge50" class="edge">
<title>Node29&#45;&gt;Node22</title>
<path fill="none" stroke="midnightblue" d="M1186.24,-168.44C1164.68,-159.56 1130.74,-145.56 1106.21,-135.45"/>
<polygon fill="midnightblue" stroke="midnightblue" points="1107.24,-132.09 1096.66,-131.52 1104.57,-138.56 1107.24,-132.09"/>
</g>
<!-- Node32 -->
<g id="node32" class="node">
<title>Node32</title>
<g id="a_node32"><a xlink:title=" ">
<polygon fill="none" stroke="#bfbfbf" points="1268.5,-168.5 1268.5,-187.5 1393.5,-187.5 1393.5,-168.5 1268.5,-168.5"/>
<text text-anchor="middle" x="1331" y="-175.5" font-family="Helvetica,sans-Serif" font-size="10.00">QOpenGLExtraFunctions</text>
</a>
</g>
</g>
<!-- Node31&#45;&gt;Node32 -->
<g id="edge53" class="edge">
<title>Node31&#45;&gt;Node32</title>
<path fill="none" stroke="midnightblue" d="M1334.34,-224.08C1333.82,-217.01 1333.06,-206.86 1332.41,-197.99"/>
<polygon fill="midnightblue" stroke="midnightblue" points="1335.88,-197.47 1331.65,-187.75 1328.9,-197.98 1335.88,-197.47"/>
</g>
<!-- Node33&#45;&gt;Node29 -->
<g id="edge56" class="edge">
<title>Node33&#45;&gt;Node29</title>
<path fill="none" stroke="midnightblue" d="M1100.1,-280.37C1119.58,-261.89 1165.56,-218.29 1190.4,-194.74"/>
<polygon fill="midnightblue" stroke="midnightblue" points="1193.09,-197.01 1197.94,-187.59 1188.28,-191.93 1193.09,-197.01"/>
</g>
<!-- Node33&#45;&gt;Node30 -->
<g id="edge57" class="edge">
<title>Node33&#45;&gt;Node30</title>
<path fill="none" stroke="midnightblue" d="M1092.73,-280.37C1096.28,-262.62 1104.47,-221.67 1109.28,-197.6"/>
<polygon fill="midnightblue" stroke="midnightblue" points="1112.75,-198.08 1111.28,-187.59 1105.89,-196.71 1112.75,-198.08"/>
</g>
<!-- Node34 -->
<g id="node34" class="node">
<title>Node34</title>
<g id="a_node34"><a xlink:href="mxvectordraw_8h.html" target="_top" xlink:title=" ">
<polygon fill="none" stroke="black" points="635.5,-224.5 635.5,-243.5 720.5,-243.5 720.5,-224.5 635.5,-224.5"/>
<text text-anchor="middle" x="678" y="-231.5" font-family="Helvetica,sans-Serif" font-size="10.00">mxvectordraw.h</text>
</a>
</g>
</g>
<!-- Node33&#45;&gt;Node34 -->
<g id="edge58" class="edge">
<title>Node33&#45;&gt;Node34</title>
<path fill="none" stroke="midnightblue" d="M1041.18,-282.49C962.75,-272.23 811.16,-252.41 730.87,-241.91"/>
<polygon fill="midnightblue" stroke="midnightblue" points="730.87,-238.38 720.5,-240.56 729.96,-245.32 730.87,-238.38"/>
</g>
<!-- Node34&#45;&gt;Node4 -->
<g id="edge59" class="edge">
<title>Node34&#45;&gt;Node4</title>
<path fill="none" stroke="midnightblue" d="M668.36,-224.32C659.49,-216.34 646.13,-204.31 635.39,-194.65"/>
<polygon fill="midnightblue" stroke="midnightblue" points="637.59,-191.92 627.82,-187.83 632.91,-197.13 637.59,-191.92"/>
</g>
<!-- Node35&#45;&gt;Node4 -->
<g id="edge66" class="edge">
<title>Node35&#45;&gt;Node4</title>
<path fill="none" stroke="midnightblue" d="M967.69,-226.81C888.69,-216.01 727.27,-193.94 654.74,-184.02"/>
<polygon fill="midnightblue" stroke="midnightblue" points="655.08,-180.54 644.7,-182.65 654.13,-187.47 655.08,-180.54"/>
</g>
<!-- Node35&#45;&gt;Node5 -->
<g id="edge61" class="edge">
<title>Node35&#45;&gt;Node5</title>
<path fill="none" stroke="midnightblue" d="M1010.43,-224.49C1006.03,-211.12 995.96,-184.95 980,-168 911.1,-94.82 800.45,-44.97 745.38,-23.28"/>
<polygon fill="midnightblue" stroke="midnightblue" points="746.35,-19.9 735.77,-19.55 743.83,-26.43 746.35,-19.9"/>
</g>
<!-- Node35&#45;&gt;Node6 -->
<g id="edge63" class="edge">
<title>Node35&#45;&gt;Node6</title>
<path fill="none" stroke="midnightblue" d="M1007.47,-224.4C998.03,-210.41 977.43,-182.81 953,-168 914.66,-144.75 864.17,-133.29 828.99,-127.79"/>
<polygon fill="midnightblue" stroke="midnightblue" points="829.45,-124.32 819.04,-126.33 828.43,-131.25 829.45,-124.32"/>
</g>
<!-- Node35&#45;&gt;Node22 -->
<g id="edge64" class="edge">
<title>Node35&#45;&gt;Node22</title>
<path fill="none" stroke="midnightblue" d="M1017.94,-224.37C1028.29,-206.3 1052.42,-164.18 1066.09,-140.31"/>
<polygon fill="midnightblue" stroke="midnightblue" points="1069.15,-142.01 1071.08,-131.59 1063.07,-138.53 1069.15,-142.01"/>
</g>
<!-- Node35&#45;&gt;Node29 -->
<g id="edge65" class="edge">
<title>Node35&#45;&gt;Node29</title>
<path fill="none" stroke="midnightblue" d="M1043.74,-224.44C1076.94,-215.2 1129.99,-200.44 1166.56,-190.26"/>
<polygon fill="midnightblue" stroke="midnightblue" points="1167.71,-193.57 1176.4,-187.52 1165.83,-186.83 1167.71,-193.57"/>
</g>
<!-- Node35&#45;&gt;Node30 -->
<g id="edge62" class="edge">
<title>Node35&#45;&gt;Node30</title>
<path fill="none" stroke="midnightblue" d="M1029.07,-224.32C1044.96,-215.74 1069.51,-202.49 1087.96,-192.52"/>
<polygon fill="midnightblue" stroke="midnightblue" points="1089.84,-195.49 1096.97,-187.65 1086.51,-189.33 1089.84,-195.49"/>
</g>
<!-- Node36&#45;&gt;Node5 -->
<g id="edge69" class="edge">
<title>Node36&#45;&gt;Node5</title>
<path fill="none" stroke="midnightblue" d="M664.39,-336.4C681.25,-320.26 716.09,-283.46 729,-244 754.01,-167.54 730.06,-69.69 718,-29.49"/>
<polygon fill="midnightblue" stroke="midnightblue" points="721.28,-28.26 714.97,-19.75 714.6,-30.34 721.28,-28.26"/>
</g>
<!-- Node36&#45;&gt;Node9 -->
<g id="edge71" class="edge">
<title>Node36&#45;&gt;Node9</title>
<path fill="none" stroke="midnightblue" d="M621.75,-344.09C533.96,-341.27 297.87,-330.95 227,-300 192.36,-284.87 178.62,-278.42 163,-244 154.65,-225.6 170.68,-206.55 185.48,-193.86"/>
<polygon fill="midnightblue" stroke="midnightblue" points="187.79,-196.5 193.42,-187.52 183.42,-191.03 187.79,-196.5"/>
</g>
<!-- Node36&#45;&gt;Node34 -->
<g id="edge70" class="edge">
<title>Node36&#45;&gt;Node34</title>
<path fill="none" stroke="midnightblue" d="M656.8,-336.37C660.52,-318.62 669.08,-277.67 674.11,-253.6"/>
<polygon fill="midnightblue" stroke="midnightblue" points="677.58,-254.1 676.2,-243.59 670.73,-252.66 677.58,-254.1"/>
</g>
<!-- Node37 -->
<g id="node37" class="node">
<title>Node37</title>
<g id="a_node37"><a xlink:href="mxtextdraw_8h.html" target="_top" xlink:title=" ">
<polygon fill="none" stroke="black" points="362,-224.5 362,-243.5 436,-243.5 436,-224.5 362,-224.5"/>
<text text-anchor="middle" x="399" y="-231.5" font-family="Helvetica,sans-Serif" font-size="10.00">mxtextdraw.h</text>
</a>
</g>
</g>
<!-- Node36&#45;&gt;Node37 -->
<g id="edge72" class="edge">
<title>Node36&#45;&gt;Node37</title>
<path fill="none" stroke="midnightblue" d="M627.13,-336.38C600.93,-327.99 560.79,-314.44 527,-300 490.02,-284.19 448.79,-262.48 423.37,-248.59"/>
<polygon fill="midnightblue" stroke="midnightblue" points="424.9,-245.44 414.45,-243.68 421.52,-251.57 424.9,-245.44"/>
</g>
<!-- Node38 -->
<g id="node38" class="node">
<title>Node38</title>
<g id="a_node38"><a xlink:href="mxicondraw_8h.html" target="_top" xlink:title=" ">
<polygon fill="none" stroke="black" points="536,-280.5 536,-299.5 612,-299.5 612,-280.5 536,-280.5"/>
<text text-anchor="middle" x="574" y="-287.5" font-family="Helvetica,sans-Serif" font-size="10.00">mxicondraw.h</text>
</a>
</g>
</g>
<!-- Node36&#45;&gt;Node38 -->
<g id="edge76" class="edge">
<title>Node36&#45;&gt;Node38</title>
<path fill="none" stroke="midnightblue" d="M641.99,-336.32C629.47,-327.98 610.32,-315.21 595.53,-305.35"/>
<polygon fill="midnightblue" stroke="midnightblue" points="597.24,-302.29 586.98,-299.65 593.36,-308.11 597.24,-302.29"/>
</g>
<!-- Node40 -->
<g id="node40" class="node">
<title>Node40</title>
<g id="a_node40"><a xlink:href="mxstaticfont_8h.html" target="_top" xlink:title=" ">
<polygon fill="none" stroke="black" points="751.5,-280.5 751.5,-299.5 828.5,-299.5 828.5,-280.5 751.5,-280.5"/>
<text text-anchor="middle" x="790" y="-287.5" font-family="Helvetica,sans-Serif" font-size="10.00">mxstaticfont.h</text>
</a>
</g>
</g>
<!-- Node36&#45;&gt;Node40 -->
<g id="edge79" class="edge">
<title>Node36&#45;&gt;Node40</title>
<path fill="none" stroke="midnightblue" d="M676.39,-336.44C698.71,-327.52 733.9,-313.44 759.21,-303.32"/>
<polygon fill="midnightblue" stroke="midnightblue" points="760.72,-306.48 768.71,-299.52 758.12,-299.98 760.72,-306.48"/>
</g>
<!-- Node37&#45;&gt;Node4 -->
<g id="edge75" class="edge">
<title>Node37&#45;&gt;Node4</title>
<path fill="none" stroke="midnightblue" d="M433.7,-224.44C474.06,-214.49 540.39,-198.14 581.51,-188"/>
<polygon fill="midnightblue" stroke="midnightblue" points="582.51,-191.36 591.38,-185.56 580.84,-184.56 582.51,-191.36"/>
</g>
<!-- Node37&#45;&gt;Node6 -->
<g id="edge73" class="edge">
<title>Node37&#45;&gt;Node6</title>
<path fill="none" stroke="midnightblue" d="M436.09,-226.45C506.44,-214.01 652.35,-188.21 653,-188 693.75,-174.79 737.87,-151.46 763.94,-136.64"/>
<polygon fill="midnightblue" stroke="midnightblue" points="765.77,-139.62 772.68,-131.6 762.27,-133.56 765.77,-139.62"/>
</g>
<!-- Node37&#45;&gt;Node15 -->
<g id="edge74" class="edge">
<title>Node37&#45;&gt;Node15</title>
<path fill="none" stroke="midnightblue" d="M399,-224.08C399,-217.01 399,-206.86 399,-197.99"/>
<polygon fill="midnightblue" stroke="midnightblue" points="402.5,-197.75 399,-187.75 395.5,-197.75 402.5,-197.75"/>
</g>
<!-- Node38&#45;&gt;Node4 -->
<g id="edge78" class="edge">
<title>Node38&#45;&gt;Node4</title>
<path fill="none" stroke="midnightblue" d="M558.01,-280.46C537.78,-268.48 507.13,-245.72 521,-224 534.28,-203.2 559.93,-191.87 581.52,-185.78"/>
<polygon fill="midnightblue" stroke="midnightblue" points="582.57,-189.12 591.4,-183.26 580.85,-182.34 582.57,-189.12"/>
</g>
<!-- Node39 -->
<g id="node39" class="node">
<title>Node39</title>
<g id="a_node39"><a xlink:href="mxthemeicons_8h.html" target="_top" xlink:title=" ">
<polygon fill="none" stroke="black" points="530.5,-224.5 530.5,-243.5 617.5,-243.5 617.5,-224.5 530.5,-224.5"/>
<text text-anchor="middle" x="574" y="-231.5" font-family="Helvetica,sans-Serif" font-size="10.00">mxthemeicons.h</text>
</a>
</g>
</g>
<!-- Node38&#45;&gt;Node39 -->
<g id="edge77" class="edge">
<title>Node38&#45;&gt;Node39</title>
<path fill="none" stroke="midnightblue" d="M574,-280.08C574,-273.01 574,-262.86 574,-253.99"/>
<polygon fill="midnightblue" stroke="midnightblue" points="577.5,-253.75 574,-243.75 570.5,-253.75 577.5,-253.75"/>
</g>
<!-- Node40&#45;&gt;Node21 -->
<g id="edge80" class="edge">
<title>Node40&#45;&gt;Node21</title>
<path fill="none" stroke="midnightblue" d="M798.59,-280.08C806.16,-272.22 817.38,-260.57 826.51,-251.08"/>
<polygon fill="midnightblue" stroke="midnightblue" points="829.16,-253.38 833.57,-243.75 824.12,-248.53 829.16,-253.38"/>
</g>
<!-- Node41&#45;&gt;Node6 -->
<g id="edge83" class="edge">
<title>Node41&#45;&gt;Node6</title>
<path fill="none" stroke="midnightblue" d="M766.71,-392.25C760.38,-374.94 746.76,-334.98 742,-300 740.8,-291.19 739.68,-288.58 742,-280 746.83,-262.12 756.44,-261.32 763,-244 776.16,-209.25 782.51,-166.01 785.23,-141.76"/>
<polygon fill="midnightblue" stroke="midnightblue" points="788.71,-142.09 786.26,-131.78 781.75,-141.37 788.71,-142.09"/>
</g>
</g>
</svg>
