<?xml version="1.0" encoding="UTF-8" standalone="no"?>
<!DOCTYPE svg PUBLIC "-//W3C//DTD SVG 1.1//EN"
 "http://www.w3.org/Graphics/SVG/1.1/DTD/svg11.dtd">
<!-- Generated by graphviz version 2.44.0 ()
 -->
<!-- Title: src/widgets/mxlinearlayout.cpp Pages: 1 -->
<svg width="993pt" height="420pt"
 viewBox="0.00 0.00 993.00 420.00" xmlns="http://www.w3.org/2000/svg" xmlns:xlink="http://www.w3.org/1999/xlink">
<g id="graph0" class="graph" transform="scale(1 1) rotate(0) translate(4 416)">
<title>src/widgets/mxlinearlayout.cpp</title>
<!-- Node1 -->
<g id="node1" class="node">
<title>Node1</title>
<g id="a_node1"><a xlink:title=" ">
<polygon fill="#bfbfbf" stroke="black" points="166.5,-392.5 166.5,-411.5 315.5,-411.5 315.5,-392.5 166.5,-392.5"/>
<text text-anchor="middle" x="241" y="-399.5" font-family="Helvetica,sans-Serif" font-size="10.00">src/widgets/mxlinearlayout.cpp</text>
</a>
</g>
</g>
<!-- Node2 -->
<g id="node2" class="node">
<title>Node2</title>
<g id="a_node2"><a xlink:href="mxlinearlayout_8h.html" target="_top" xlink:title=" ">
<polygon fill="none" stroke="black" points="16,-336.5 16,-355.5 102,-355.5 102,-336.5 16,-336.5"/>
<text text-anchor="middle" x="59" y="-343.5" font-family="Helvetica,sans-Serif" font-size="10.00">mxlinearlayout.h</text>
</a>
</g>
</g>
<!-- Node1&#45;&gt;Node2 -->
<g id="edge1" class="edge">
<title>Node1&#45;&gt;Node2</title>
<path fill="none" stroke="midnightblue" d="M212.16,-392.44C181.14,-383.24 131.67,-368.56 97.38,-358.39"/>
<polygon fill="midnightblue" stroke="midnightblue" points="98.29,-355.01 87.7,-355.52 96.29,-361.72 98.29,-355.01"/>
</g>
<!-- Node16 -->
<g id="node16" class="node">
<title>Node16</title>
<g id="a_node16"><a xlink:href="mxpainter_8h.html" target="_top" xlink:title=" ">
<polygon fill="none" stroke="black" points="415,-336.5 415,-355.5 481,-355.5 481,-336.5 415,-336.5"/>
<text text-anchor="middle" x="448" y="-343.5" font-family="Helvetica,sans-Serif" font-size="10.00">mxpainter.h</text>
</a>
</g>
</g>
<!-- Node1&#45;&gt;Node16 -->
<g id="edge22" class="edge">
<title>Node1&#45;&gt;Node16</title>
<path fill="none" stroke="midnightblue" d="M273.8,-392.44C309.38,-383.16 366.31,-368.31 405.35,-358.13"/>
<polygon fill="midnightblue" stroke="midnightblue" points="406.56,-361.43 415.35,-355.52 404.79,-354.65 406.56,-361.43"/>
</g>
<!-- Node3 -->
<g id="node3" class="node">
<title>Node3</title>
<g id="a_node3"><a xlink:title=" ">
<polygon fill="none" stroke="#bfbfbf" points="371.5,-0.5 371.5,-19.5 434.5,-19.5 434.5,-0.5 371.5,-0.5"/>
<text text-anchor="middle" x="403" y="-7.5" font-family="Helvetica,sans-Serif" font-size="10.00">mxdebug.h</text>
</a>
</g>
</g>
<!-- Node2&#45;&gt;Node3 -->
<g id="edge2" class="edge">
<title>Node2&#45;&gt;Node3</title>
<path fill="none" stroke="midnightblue" d="M49.07,-336.3C40.02,-327.86 26.9,-314.27 19,-300 4.42,-273.67 0,-265.1 0,-235 0,-235 0,-235 0,-121 0,-81.08 26.41,-74.08 62,-56 113.52,-29.82 282.07,-17.5 361.23,-13.05"/>
<polygon fill="midnightblue" stroke="midnightblue" points="361.54,-16.54 371.33,-12.5 361.16,-9.55 361.54,-16.54"/>
</g>
<!-- Node4 -->
<g id="node4" class="node">
<title>Node4</title>
<g id="a_node4"><a xlink:href="mxlayout_8h.html" target="_top" xlink:title=" ">
<polygon fill="none" stroke="black" points="28,-280.5 28,-299.5 90,-299.5 90,-280.5 28,-280.5"/>
<text text-anchor="middle" x="59" y="-287.5" font-family="Helvetica,sans-Serif" font-size="10.00">mxlayout.h</text>
</a>
</g>
</g>
<!-- Node2&#45;&gt;Node4 -->
<g id="edge3" class="edge">
<title>Node2&#45;&gt;Node4</title>
<path fill="none" stroke="midnightblue" d="M59,-336.08C59,-329.01 59,-318.86 59,-309.99"/>
<polygon fill="midnightblue" stroke="midnightblue" points="62.5,-309.75 59,-299.75 55.5,-309.75 62.5,-309.75"/>
</g>
<!-- Node4&#45;&gt;Node3 -->
<g id="edge4" class="edge">
<title>Node4&#45;&gt;Node3</title>
<path fill="none" stroke="midnightblue" d="M59,-280.44C59,-261.94 59,-216.81 59,-179 59,-179 59,-179 59,-121 59,-90.2 59.02,-75.33 83,-56 124.98,-22.16 284.31,-13.77 361.11,-11.69"/>
<polygon fill="midnightblue" stroke="midnightblue" points="361.47,-15.18 371.38,-11.43 361.3,-8.18 361.47,-15.18"/>
</g>
<!-- Node5 -->
<g id="node5" class="node">
<title>Node5</title>
<g id="a_node5"><a xlink:href="mxwidget_8h.html" target="_top" xlink:title=" ">
<polygon fill="none" stroke="black" points="140.5,-224.5 140.5,-243.5 205.5,-243.5 205.5,-224.5 140.5,-224.5"/>
<text text-anchor="middle" x="173" y="-231.5" font-family="Helvetica,sans-Serif" font-size="10.00">mxwidget.h</text>
</a>
</g>
</g>
<!-- Node4&#45;&gt;Node5 -->
<g id="edge5" class="edge">
<title>Node4&#45;&gt;Node5</title>
<path fill="none" stroke="midnightblue" d="M77.06,-280.44C95.57,-271.68 124.58,-257.94 145.86,-247.86"/>
<polygon fill="midnightblue" stroke="midnightblue" points="147.48,-250.96 155.02,-243.52 144.49,-244.63 147.48,-250.96"/>
</g>
<!-- Node6 -->
<g id="node6" class="node">
<title>Node6</title>
<g id="a_node6"><a xlink:href="mxrect_8h.html" target="_top" xlink:title=" ">
<polygon fill="none" stroke="black" points="298.5,-112.5 298.5,-131.5 351.5,-131.5 351.5,-112.5 298.5,-112.5"/>
<text text-anchor="middle" x="325" y="-119.5" font-family="Helvetica,sans-Serif" font-size="10.00">mxrect.h</text>
</a>
</g>
</g>
<!-- Node5&#45;&gt;Node6 -->
<g id="edge6" class="edge">
<title>Node5&#45;&gt;Node6</title>
<path fill="none" stroke="midnightblue" d="M173.11,-224.17C173.76,-210.36 177.03,-183.61 192,-168 217.28,-141.64 258.53,-130.72 288.39,-126.2"/>
<polygon fill="midnightblue" stroke="midnightblue" points="288.99,-129.65 298.44,-124.85 288.06,-122.71 288.99,-129.65"/>
</g>
<!-- Node7 -->
<g id="node7" class="node">
<title>Node7</title>
<g id="a_node7"><a xlink:href="mxvector_8h.html" target="_top" xlink:title=" ">
<polygon fill="none" stroke="black" points="371,-56.5 371,-75.5 435,-75.5 435,-56.5 371,-56.5"/>
<text text-anchor="middle" x="403" y="-63.5" font-family="Helvetica,sans-Serif" font-size="10.00">mxvector.h</text>
</a>
</g>
</g>
<!-- Node5&#45;&gt;Node7 -->
<g id="edge11" class="edge">
<title>Node5&#45;&gt;Node7</title>
<path fill="none" stroke="midnightblue" d="M170.96,-224.15C168.42,-210.78 165.65,-185.16 177,-168 198.85,-134.96 306.41,-97.14 364.92,-78.55"/>
<polygon fill="midnightblue" stroke="midnightblue" points="366.07,-81.85 374.56,-75.52 363.97,-75.18 366.07,-81.85"/>
</g>
<!-- Node9 -->
<g id="node9" class="node">
<title>Node9</title>
<g id="a_node9"><a xlink:href="mxwidgetlist_8h.html" target="_top" xlink:title=" ">
<polygon fill="none" stroke="black" points="353,-168.5 353,-187.5 431,-187.5 431,-168.5 353,-168.5"/>
<text text-anchor="middle" x="392" y="-175.5" font-family="Helvetica,sans-Serif" font-size="10.00">mxwidgetlist.h</text>
</a>
</g>
</g>
<!-- Node5&#45;&gt;Node9 -->
<g id="edge12" class="edge">
<title>Node5&#45;&gt;Node9</title>
<path fill="none" stroke="midnightblue" d="M205.79,-224.92C243.38,-215.65 305.21,-200.4 347.21,-190.04"/>
<polygon fill="midnightblue" stroke="midnightblue" points="348.31,-193.38 357.18,-187.59 346.63,-186.58 348.31,-193.38"/>
</g>
<!-- Node15 -->
<g id="node15" class="node">
<title>Node15</title>
<g id="a_node15"><a xlink:href="mxclippedwidget_8h.html" target="_top" xlink:title=" ">
<polygon fill="none" stroke="black" points="201,-168.5 201,-187.5 297,-187.5 297,-168.5 201,-168.5"/>
<text text-anchor="middle" x="249" y="-175.5" font-family="Helvetica,sans-Serif" font-size="10.00">mxclippedwidget.h</text>
</a>
</g>
</g>
<!-- Node5&#45;&gt;Node15 -->
<g id="edge19" class="edge">
<title>Node5&#45;&gt;Node15</title>
<path fill="none" stroke="midnightblue" d="M185.21,-224.32C196.78,-216.11 214.38,-203.6 228.16,-193.81"/>
<polygon fill="midnightblue" stroke="midnightblue" points="230.44,-196.48 236.57,-187.83 226.39,-190.77 230.44,-196.48"/>
</g>
<!-- Node6&#45;&gt;Node3 -->
<g id="edge7" class="edge">
<title>Node6&#45;&gt;Node3</title>
<path fill="none" stroke="midnightblue" d="M313.67,-112.32C298.47,-99.6 274.82,-75.3 288,-56 304.38,-32 335.64,-20.8 361.44,-15.57"/>
<polygon fill="midnightblue" stroke="midnightblue" points="362.15,-19 371.38,-13.79 360.92,-12.11 362.15,-19"/>
</g>
<!-- Node6&#45;&gt;Node7 -->
<g id="edge8" class="edge">
<title>Node6&#45;&gt;Node7</title>
<path fill="none" stroke="midnightblue" d="M337.53,-112.32C349.59,-103.98 368.03,-91.21 382.27,-81.35"/>
<polygon fill="midnightblue" stroke="midnightblue" points="384.27,-84.22 390.5,-75.65 380.28,-78.47 384.27,-84.22"/>
</g>
<!-- Node8 -->
<g id="node8" class="node">
<title>Node8</title>
<g id="a_node8"><a xlink:title=" ">
<polygon fill="none" stroke="#bfbfbf" points="297,-56.5 297,-75.5 353,-75.5 353,-56.5 297,-56.5"/>
<text text-anchor="middle" x="325" y="-63.5" font-family="Helvetica,sans-Serif" font-size="10.00">algorithm</text>
</a>
</g>
</g>
<!-- Node6&#45;&gt;Node8 -->
<g id="edge10" class="edge">
<title>Node6&#45;&gt;Node8</title>
<path fill="none" stroke="midnightblue" d="M325,-112.08C325,-105.01 325,-94.86 325,-85.99"/>
<polygon fill="midnightblue" stroke="midnightblue" points="328.5,-85.75 325,-75.75 321.5,-85.75 328.5,-85.75"/>
</g>
<!-- Node7&#45;&gt;Node3 -->
<g id="edge9" class="edge">
<title>Node7&#45;&gt;Node3</title>
<path fill="none" stroke="midnightblue" d="M403,-56.08C403,-49.01 403,-38.86 403,-29.99"/>
<polygon fill="midnightblue" stroke="midnightblue" points="406.5,-29.75 403,-19.75 399.5,-29.75 406.5,-29.75"/>
</g>
<!-- Node10 -->
<g id="node10" class="node">
<title>Node10</title>
<g id="a_node10"><a xlink:href="mxlist_8h.html" target="_top" xlink:title=" ">
<polygon fill="none" stroke="black" points="600,-112.5 600,-131.5 650,-131.5 650,-112.5 600,-112.5"/>
<text text-anchor="middle" x="625" y="-119.5" font-family="Helvetica,sans-Serif" font-size="10.00">mxlist.h</text>
</a>
</g>
</g>
<!-- Node9&#45;&gt;Node10 -->
<g id="edge13" class="edge">
<title>Node9&#45;&gt;Node10</title>
<path fill="none" stroke="midnightblue" d="M428.92,-168.44C473.11,-158.2 546.57,-141.18 589.93,-131.13"/>
<polygon fill="midnightblue" stroke="midnightblue" points="590.79,-134.52 599.74,-128.85 589.21,-127.7 590.79,-134.52"/>
</g>
<!-- Node10&#45;&gt;Node3 -->
<g id="edge14" class="edge">
<title>Node10&#45;&gt;Node3</title>
<path fill="none" stroke="midnightblue" d="M608.49,-112.46C584.17,-99.92 537.23,-75.84 497,-56 474.61,-44.96 449.06,-32.75 430.25,-23.84"/>
<polygon fill="midnightblue" stroke="midnightblue" points="431.62,-20.61 421.08,-19.5 428.62,-26.94 431.62,-20.61"/>
</g>
<!-- Node11 -->
<g id="node11" class="node">
<title>Node11</title>
<g id="a_node11"><a xlink:href="mxrefcounter_8h.html" target="_top" xlink:title=" ">
<polygon fill="none" stroke="black" points="583,-56.5 583,-75.5 663,-75.5 663,-56.5 583,-56.5"/>
<text text-anchor="middle" x="623" y="-63.5" font-family="Helvetica,sans-Serif" font-size="10.00">mxrefcounter.h</text>
</a>
</g>
</g>
<!-- Node10&#45;&gt;Node11 -->
<g id="edge15" class="edge">
<title>Node10&#45;&gt;Node11</title>
<path fill="none" stroke="midnightblue" d="M624.67,-112.08C624.41,-105.01 624.03,-94.86 623.7,-85.99"/>
<polygon fill="midnightblue" stroke="midnightblue" points="627.19,-85.61 623.32,-75.75 620.2,-85.87 627.19,-85.61"/>
</g>
<!-- Node12 -->
<g id="node12" class="node">
<title>Node12</title>
<g id="a_node12"><a xlink:title=" ">
<polygon fill="none" stroke="#bfbfbf" points="865.5,-0.5 865.5,-19.5 912.5,-19.5 912.5,-0.5 865.5,-0.5"/>
<text text-anchor="middle" x="889" y="-7.5" font-family="Helvetica,sans-Serif" font-size="10.00">stdlib.h</text>
</a>
</g>
</g>
<!-- Node10&#45;&gt;Node12 -->
<g id="edge16" class="edge">
<title>Node10&#45;&gt;Node12</title>
<path fill="none" stroke="midnightblue" d="M609.71,-112.37C589.17,-99.72 557.08,-75.5 574,-56 610.14,-14.33 781.55,-10.29 855.22,-10.53"/>
<polygon fill="midnightblue" stroke="midnightblue" points="855.33,-14.03 865.35,-10.59 855.37,-7.03 855.33,-14.03"/>
</g>
<!-- Node13 -->
<g id="node13" class="node">
<title>Node13</title>
<g id="a_node13"><a xlink:title=" ">
<polygon fill="none" stroke="#bfbfbf" points="937,-0.5 937,-19.5 985,-19.5 985,-0.5 937,-0.5"/>
<text text-anchor="middle" x="961" y="-7.5" font-family="Helvetica,sans-Serif" font-size="10.00">string.h</text>
</a>
</g>
</g>
<!-- Node10&#45;&gt;Node13 -->
<g id="edge17" class="edge">
<title>Node10&#45;&gt;Node13</title>
<path fill="none" stroke="midnightblue" d="M650.14,-118.99C721.23,-113.1 919.97,-95.08 942,-76 955.17,-64.59 959.46,-44.61 960.74,-29.8"/>
<polygon fill="midnightblue" stroke="midnightblue" points="964.24,-29.87 961.22,-19.71 957.25,-29.53 964.24,-29.87"/>
</g>
<!-- Node14 -->
<g id="node14" class="node">
<title>Node14</title>
<g id="a_node14"><a xlink:title=" ">
<polygon fill="none" stroke="#bfbfbf" points="453.5,-56.5 453.5,-75.5 488.5,-75.5 488.5,-56.5 453.5,-56.5"/>
<text text-anchor="middle" x="471" y="-63.5" font-family="Helvetica,sans-Serif" font-size="10.00">new</text>
</a>
</g>
</g>
<!-- Node10&#45;&gt;Node14 -->
<g id="edge18" class="edge">
<title>Node10&#45;&gt;Node14</title>
<path fill="none" stroke="midnightblue" d="M600.6,-112.44C572.68,-102.65 527.09,-86.67 498.09,-76.5"/>
<polygon fill="midnightblue" stroke="midnightblue" points="499.18,-73.17 488.58,-73.16 496.86,-79.78 499.18,-73.17"/>
</g>
<!-- Node15&#45;&gt;Node6 -->
<g id="edge20" class="edge">
<title>Node15&#45;&gt;Node6</title>
<path fill="none" stroke="midnightblue" d="M261.21,-168.32C272.78,-160.11 290.38,-147.6 304.16,-137.81"/>
<polygon fill="midnightblue" stroke="midnightblue" points="306.44,-140.48 312.57,-131.83 302.39,-134.77 306.44,-140.48"/>
</g>
<!-- Node15&#45;&gt;Node10 -->
<g id="edge21" class="edge">
<title>Node15&#45;&gt;Node10</title>
<path fill="none" stroke="midnightblue" d="M297,-170.11C373.68,-159.09 522.02,-137.79 589.74,-128.06"/>
<polygon fill="midnightblue" stroke="midnightblue" points="590.5,-131.49 599.9,-126.61 589.5,-124.56 590.5,-131.49"/>
</g>
<!-- Node16&#45;&gt;Node3 -->
<g id="edge23" class="edge">
<title>Node16&#45;&gt;Node3</title>
<path fill="none" stroke="midnightblue" d="M414.95,-339.64C340.58,-326.8 163.94,-291.8 131,-244 58.82,-139.26 275.71,-53.12 365.75,-22.75"/>
<polygon fill="midnightblue" stroke="midnightblue" points="366.93,-26.04 375.32,-19.57 364.73,-19.4 366.93,-26.04"/>
</g>
<!-- Node16&#45;&gt;Node10 -->
<g id="edge26" class="edge">
<title>Node16&#45;&gt;Node10</title>
<path fill="none" stroke="midnightblue" d="M470.84,-336.41C504.6,-322.48 567.21,-291.6 599,-244 620.01,-212.54 624.42,-167.13 625.12,-141.83"/>
<polygon fill="midnightblue" stroke="midnightblue" points="628.62,-141.78 625.23,-131.75 621.62,-141.71 628.62,-141.78"/>
</g>
<!-- Node17 -->
<g id="node17" class="node">
<title>Node17</title>
<g id="a_node17"><a xlink:href="mxvectordraw_8h.html" target="_top" xlink:title=" ">
<polygon fill="none" stroke="black" points="287.5,-280.5 287.5,-299.5 372.5,-299.5 372.5,-280.5 287.5,-280.5"/>
<text text-anchor="middle" x="330" y="-287.5" font-family="Helvetica,sans-Serif" font-size="10.00">mxvectordraw.h</text>
</a>
</g>
</g>
<!-- Node16&#45;&gt;Node17 -->
<g id="edge24" class="edge">
<title>Node16&#45;&gt;Node17</title>
<path fill="none" stroke="midnightblue" d="M429.3,-336.44C410.06,-327.64 379.85,-313.81 357.8,-303.72"/>
<polygon fill="midnightblue" stroke="midnightblue" points="359.16,-300.5 348.61,-299.52 356.25,-306.86 359.16,-300.5"/>
</g>
<!-- Node18 -->
<g id="node18" class="node">
<title>Node18</title>
<g id="a_node18"><a xlink:href="mxtextdraw_8h.html" target="_top" xlink:title=" ">
<polygon fill="none" stroke="black" points="516,-224.5 516,-243.5 590,-243.5 590,-224.5 516,-224.5"/>
<text text-anchor="middle" x="553" y="-231.5" font-family="Helvetica,sans-Serif" font-size="10.00">mxtextdraw.h</text>
</a>
</g>
</g>
<!-- Node16&#45;&gt;Node18 -->
<g id="edge27" class="edge">
<title>Node16&#45;&gt;Node18</title>
<path fill="none" stroke="midnightblue" d="M457.57,-336.25C467.22,-327.33 482.45,-313 495,-300 510.51,-283.93 527.42,-264.78 538.96,-251.44"/>
<polygon fill="midnightblue" stroke="midnightblue" points="541.83,-253.47 545.7,-243.61 536.53,-248.91 541.83,-253.47"/>
</g>
<!-- Node23 -->
<g id="node23" class="node">
<title>Node23</title>
<g id="a_node23"><a xlink:href="mxicondraw_8h.html" target="_top" xlink:title=" ">
<polygon fill="none" stroke="black" points="410,-280.5 410,-299.5 486,-299.5 486,-280.5 410,-280.5"/>
<text text-anchor="middle" x="448" y="-287.5" font-family="Helvetica,sans-Serif" font-size="10.00">mxicondraw.h</text>
</a>
</g>
</g>
<!-- Node16&#45;&gt;Node23 -->
<g id="edge42" class="edge">
<title>Node16&#45;&gt;Node23</title>
<path fill="none" stroke="midnightblue" d="M448,-336.08C448,-329.01 448,-318.86 448,-309.99"/>
<polygon fill="midnightblue" stroke="midnightblue" points="451.5,-309.75 448,-299.75 444.5,-309.75 451.5,-309.75"/>
</g>
<!-- Node25 -->
<g id="node25" class="node">
<title>Node25</title>
<g id="a_node25"><a xlink:href="mxstaticfont_8h.html" target="_top" xlink:title=" ">
<polygon fill="none" stroke="black" points="646.5,-280.5 646.5,-299.5 723.5,-299.5 723.5,-280.5 646.5,-280.5"/>
<text text-anchor="middle" x="685" y="-287.5" font-family="Helvetica,sans-Serif" font-size="10.00">mxstaticfont.h</text>
</a>
</g>
</g>
<!-- Node16&#45;&gt;Node25 -->
<g id="edge45" class="edge">
<title>Node16&#45;&gt;Node25</title>
<path fill="none" stroke="midnightblue" d="M481.2,-337.43C521.91,-328.16 591.19,-312.37 637.52,-301.82"/>
<polygon fill="midnightblue" stroke="midnightblue" points="638.36,-305.22 647.33,-299.58 636.8,-298.39 638.36,-305.22"/>
</g>
<!-- Node17&#45;&gt;Node6 -->
<g id="edge25" class="edge">
<title>Node17&#45;&gt;Node6</title>
<path fill="none" stroke="midnightblue" d="M329.73,-280.08C328.94,-253.95 326.63,-177.21 325.56,-141.58"/>
<polygon fill="midnightblue" stroke="midnightblue" points="329.06,-141.46 325.26,-131.57 322.06,-141.67 329.06,-141.46"/>
</g>
<!-- Node18&#45;&gt;Node6 -->
<g id="edge41" class="edge">
<title>Node18&#45;&gt;Node6</title>
<path fill="none" stroke="midnightblue" d="M544.47,-224.14C530.68,-210.28 502.07,-183.46 473,-168 437.32,-149.02 392.44,-136.81 361.51,-129.96"/>
<polygon fill="midnightblue" stroke="midnightblue" points="362.1,-126.51 351.59,-127.84 360.64,-133.35 362.1,-126.51"/>
</g>
<!-- Node18&#45;&gt;Node7 -->
<g id="edge28" class="edge">
<title>Node18&#45;&gt;Node7</title>
<path fill="none" stroke="midnightblue" d="M546.69,-224.35C537.33,-211.66 519.03,-187.4 502,-168 474.38,-136.53 439.64,-102.18 419.51,-82.74"/>
<polygon fill="midnightblue" stroke="midnightblue" points="421.71,-80.01 412.08,-75.6 416.87,-85.06 421.71,-80.01"/>
</g>
<!-- Node19 -->
<g id="node19" class="node">
<title>Node19</title>
<g id="a_node19"><a xlink:href="mxstring_8h.html" target="_top" xlink:title=" ">
<polygon fill="none" stroke="black" points="648.5,-168.5 648.5,-187.5 709.5,-187.5 709.5,-168.5 648.5,-168.5"/>
<text text-anchor="middle" x="679" y="-175.5" font-family="Helvetica,sans-Serif" font-size="10.00">mxstring.h</text>
</a>
</g>
</g>
<!-- Node18&#45;&gt;Node19 -->
<g id="edge29" class="edge">
<title>Node18&#45;&gt;Node19</title>
<path fill="none" stroke="midnightblue" d="M572.97,-224.44C593.61,-215.6 626.06,-201.69 649.63,-191.59"/>
<polygon fill="midnightblue" stroke="midnightblue" points="651.32,-194.67 659.13,-187.52 648.56,-188.24 651.32,-194.67"/>
</g>
<!-- Node20 -->
<g id="node20" class="node">
<title>Node20</title>
<g id="a_node20"><a xlink:href="mxgenericstring_8h.html" target="_top" xlink:title=" ">
<polygon fill="none" stroke="black" points="771,-112.5 771,-131.5 863,-131.5 863,-112.5 771,-112.5"/>
<text text-anchor="middle" x="817" y="-119.5" font-family="Helvetica,sans-Serif" font-size="10.00">mxgenericstring.h</text>
</a>
</g>
</g>
<!-- Node19&#45;&gt;Node20 -->
<g id="edge30" class="edge">
<title>Node19&#45;&gt;Node20</title>
<path fill="none" stroke="midnightblue" d="M700.87,-168.44C723.78,-159.48 759.98,-145.31 785.87,-135.18"/>
<polygon fill="midnightblue" stroke="midnightblue" points="787.2,-138.42 795.24,-131.52 784.65,-131.9 787.2,-138.42"/>
</g>
<!-- Node20&#45;&gt;Node3 -->
<g id="edge31" class="edge">
<title>Node20&#45;&gt;Node3</title>
<path fill="none" stroke="midnightblue" d="M817.27,-112.24C817.18,-98.02 814.73,-70.09 798,-56 771.35,-33.56 540.98,-18.52 444.85,-13.17"/>
<polygon fill="midnightblue" stroke="midnightblue" points="444.8,-9.66 434.63,-12.61 444.42,-16.65 444.8,-9.66"/>
</g>
<!-- Node20&#45;&gt;Node11 -->
<g id="edge32" class="edge">
<title>Node20&#45;&gt;Node11</title>
<path fill="none" stroke="midnightblue" d="M786.26,-112.44C753.06,-103.2 700.01,-88.44 663.44,-78.26"/>
<polygon fill="midnightblue" stroke="midnightblue" points="664.17,-74.83 653.6,-75.52 662.29,-81.57 664.17,-74.83"/>
</g>
<!-- Node20&#45;&gt;Node12 -->
<g id="edge39" class="edge">
<title>Node20&#45;&gt;Node12</title>
<path fill="none" stroke="midnightblue" d="M863,-117.31C890.81,-112.43 924.23,-101.29 942,-76 954.92,-57.61 932.99,-37.77 913.54,-24.91"/>
<polygon fill="midnightblue" stroke="midnightblue" points="915.25,-21.85 904.91,-19.52 911.54,-27.78 915.25,-21.85"/>
</g>
<!-- Node20&#45;&gt;Node13 -->
<g id="edge40" class="edge">
<title>Node20&#45;&gt;Node13</title>
<path fill="none" stroke="midnightblue" d="M863,-119.12C894.68,-115.19 934.91,-104.42 957,-76 967.07,-63.04 967.01,-43.87 965.06,-29.71"/>
<polygon fill="midnightblue" stroke="midnightblue" points="968.47,-28.86 963.26,-19.63 961.58,-30.1 968.47,-28.86"/>
</g>
<!-- Node21 -->
<g id="node21" class="node">
<title>Node21</title>
<g id="a_node21"><a xlink:href="mxbytearrayref_8h.html" target="_top" xlink:title=" ">
<polygon fill="none" stroke="black" points="845.5,-56.5 845.5,-75.5 932.5,-75.5 932.5,-56.5 845.5,-56.5"/>
<text text-anchor="middle" x="889" y="-63.5" font-family="Helvetica,sans-Serif" font-size="10.00">mxbytearrayref.h</text>
</a>
</g>
</g>
<!-- Node20&#45;&gt;Node21 -->
<g id="edge33" class="edge">
<title>Node20&#45;&gt;Node21</title>
<path fill="none" stroke="midnightblue" d="M828.57,-112.32C839.42,-104.18 855.88,-91.84 868.88,-82.09"/>
<polygon fill="midnightblue" stroke="midnightblue" points="871.32,-84.63 877.22,-75.83 867.12,-79.03 871.32,-84.63"/>
</g>
<!-- Node22 -->
<g id="node22" class="node">
<title>Node22</title>
<g id="a_node22"><a xlink:href="mxgenericsubstring_8h.html" target="_top" xlink:title=" ">
<polygon fill="none" stroke="black" points="681,-56.5 681,-75.5 789,-75.5 789,-56.5 681,-56.5"/>
<text text-anchor="middle" x="735" y="-63.5" font-family="Helvetica,sans-Serif" font-size="10.00">mxgenericsubstring.h</text>
</a>
</g>
</g>
<!-- Node20&#45;&gt;Node22 -->
<g id="edge37" class="edge">
<title>Node20&#45;&gt;Node22</title>
<path fill="none" stroke="midnightblue" d="M803.83,-112.32C791.15,-103.98 771.77,-91.21 756.79,-81.35"/>
<polygon fill="midnightblue" stroke="midnightblue" points="758.42,-78.23 748.14,-75.65 754.57,-84.08 758.42,-78.23"/>
</g>
<!-- Node21&#45;&gt;Node3 -->
<g id="edge34" class="edge">
<title>Node21&#45;&gt;Node3</title>
<path fill="none" stroke="midnightblue" d="M845.33,-57.99C840.5,-57.28 835.65,-56.6 831,-56 689.83,-37.64 521.7,-21.68 444.95,-14.72"/>
<polygon fill="midnightblue" stroke="midnightblue" points="445.02,-11.21 434.74,-13.8 444.39,-18.18 445.02,-11.21"/>
</g>
<!-- Node21&#45;&gt;Node12 -->
<g id="edge35" class="edge">
<title>Node21&#45;&gt;Node12</title>
<path fill="none" stroke="midnightblue" d="M889,-56.08C889,-49.01 889,-38.86 889,-29.99"/>
<polygon fill="midnightblue" stroke="midnightblue" points="892.5,-29.75 889,-19.75 885.5,-29.75 892.5,-29.75"/>
</g>
<!-- Node21&#45;&gt;Node13 -->
<g id="edge36" class="edge">
<title>Node21&#45;&gt;Node13</title>
<path fill="none" stroke="midnightblue" d="M900.57,-56.32C911.42,-48.18 927.88,-35.84 940.88,-26.09"/>
<polygon fill="midnightblue" stroke="midnightblue" points="943.32,-28.63 949.22,-19.83 939.12,-23.03 943.32,-28.63"/>
</g>
<!-- Node22&#45;&gt;Node3 -->
<g id="edge38" class="edge">
<title>Node22&#45;&gt;Node3</title>
<path fill="none" stroke="midnightblue" d="M682.39,-56.44C616.54,-45.73 505.08,-27.6 444.77,-17.79"/>
<polygon fill="midnightblue" stroke="midnightblue" points="445.26,-14.33 434.83,-16.18 444.14,-21.24 445.26,-14.33"/>
</g>
<!-- Node23&#45;&gt;Node6 -->
<g id="edge44" class="edge">
<title>Node23&#45;&gt;Node6</title>
<path fill="none" stroke="midnightblue" d="M433.92,-280.26C422.65,-272.35 407.65,-259.58 401,-244 397.51,-235.83 397.43,-232.14 401,-224 410.46,-202.39 430.54,-209.61 440,-188 443.57,-179.86 445.01,-175.34 440,-168 422.61,-142.52 388.43,-131.47 361.84,-126.67"/>
<polygon fill="midnightblue" stroke="midnightblue" points="362.13,-123.17 351.7,-125.07 361.04,-130.09 362.13,-123.17"/>
</g>
<!-- Node24 -->
<g id="node24" class="node">
<title>Node24</title>
<g id="a_node24"><a xlink:href="mxthemeicons_8h.html" target="_top" xlink:title=" ">
<polygon fill="none" stroke="black" points="410.5,-224.5 410.5,-243.5 497.5,-243.5 497.5,-224.5 410.5,-224.5"/>
<text text-anchor="middle" x="454" y="-231.5" font-family="Helvetica,sans-Serif" font-size="10.00">mxthemeicons.h</text>
</a>
</g>
</g>
<!-- Node23&#45;&gt;Node24 -->
<g id="edge43" class="edge">
<title>Node23&#45;&gt;Node24</title>
<path fill="none" stroke="midnightblue" d="M448.99,-280.08C449.79,-272.93 450.93,-262.64 451.92,-253.69"/>
<polygon fill="midnightblue" stroke="midnightblue" points="455.4,-254.08 453.03,-243.75 448.44,-253.3 455.4,-254.08"/>
</g>
<!-- Node26 -->
<g id="node26" class="node">
<title>Node26</title>
<g id="a_node26"><a xlink:href="mxfont_8h.html" target="_top" xlink:title=" ">
<polygon fill="none" stroke="black" points="654.5,-224.5 654.5,-243.5 707.5,-243.5 707.5,-224.5 654.5,-224.5"/>
<text text-anchor="middle" x="681" y="-231.5" font-family="Helvetica,sans-Serif" font-size="10.00">mxfont.h</text>
</a>
</g>
</g>
<!-- Node25&#45;&gt;Node26 -->
<g id="edge46" class="edge">
<title>Node25&#45;&gt;Node26</title>
<path fill="none" stroke="midnightblue" d="M684.34,-280.08C683.82,-273.01 683.06,-262.86 682.41,-253.99"/>
<polygon fill="midnightblue" stroke="midnightblue" points="685.88,-253.47 681.65,-243.75 678.9,-253.98 685.88,-253.47"/>
</g>
<!-- Node26&#45;&gt;Node7 -->
<g id="edge47" class="edge">
<title>Node26&#45;&gt;Node7</title>
<path fill="none" stroke="midnightblue" d="M666.44,-224.31C621.03,-197.19 481.68,-113.98 426.17,-80.83"/>
<polygon fill="midnightblue" stroke="midnightblue" points="427.79,-77.73 417.41,-75.61 424.2,-83.74 427.79,-77.73"/>
</g>
<!-- Node26&#45;&gt;Node19 -->
<g id="edge48" class="edge">
<title>Node26&#45;&gt;Node19</title>
<path fill="none" stroke="midnightblue" d="M680.67,-224.08C680.41,-217.01 680.03,-206.86 679.7,-197.99"/>
<polygon fill="midnightblue" stroke="midnightblue" points="683.19,-197.61 679.32,-187.75 676.2,-197.87 683.19,-197.61"/>
</g>
<!-- Node27 -->
<g id="node27" class="node">
<title>Node27</title>
<g id="a_node27"><a xlink:title=" ">
<polygon fill="none" stroke="#bfbfbf" points="727.5,-168.5 727.5,-187.5 792.5,-187.5 792.5,-168.5 727.5,-168.5"/>
<text text-anchor="middle" x="760" y="-175.5" font-family="Helvetica,sans-Serif" font-size="10.00">mxopengl.h</text>
</a>
</g>
</g>
<!-- Node26&#45;&gt;Node27 -->
<g id="edge49" class="edge">
<title>Node26&#45;&gt;Node27</title>
<path fill="none" stroke="midnightblue" d="M693.69,-224.32C705.9,-215.98 724.58,-203.21 739,-193.35"/>
<polygon fill="midnightblue" stroke="midnightblue" points="741.06,-196.19 747.34,-187.65 737.11,-190.41 741.06,-196.19"/>
</g>
</g>
</svg>
