<?xml version="1.0" encoding="UTF-8" standalone="no"?>
<!DOCTYPE svg PUBLIC "-//W3C//DTD SVG 1.1//EN"
 "http://www.w3.org/Graphics/SVG/1.1/DTD/svg11.dtd">
<!-- Generated by graphviz version 2.44.0 ()
 -->
<!-- Title: src/widgets/mxlineedit.cpp Pages: 1 -->
<svg width="1416pt" height="476pt"
 viewBox="0.00 0.00 1416.46 476.00" xmlns="http://www.w3.org/2000/svg" xmlns:xlink="http://www.w3.org/1999/xlink">
<g id="graph0" class="graph" transform="scale(1 1) rotate(0) translate(4 472)">
<title>src/widgets/mxlineedit.cpp</title>
<!-- Node1 -->
<g id="node1" class="node">
<title>Node1</title>
<g id="a_node1"><a xlink:title=" ">
<polygon fill="#bfbfbf" stroke="black" points="732.96,-448.5 732.96,-467.5 863.96,-467.5 863.96,-448.5 732.96,-448.5"/>
<text text-anchor="middle" x="798.46" y="-455.5" font-family="Helvetica,sans-Serif" font-size="10.00">src/widgets/mxlineedit.cpp</text>
</a>
</g>
</g>
<!-- Node2 -->
<g id="node2" class="node">
<title>Node2</title>
<g id="a_node2"><a xlink:href="mxlineedit_8h.html" target="_top" xlink:title=" ">
<polygon fill="none" stroke="black" points="43.46,-336.5 43.46,-355.5 111.46,-355.5 111.46,-336.5 43.46,-336.5"/>
<text text-anchor="middle" x="77.46" y="-343.5" font-family="Helvetica,sans-Serif" font-size="10.00">mxlineedit.h</text>
</a>
</g>
</g>
<!-- Node1&#45;&gt;Node2 -->
<g id="edge1" class="edge">
<title>Node1&#45;&gt;Node2</title>
<path fill="none" stroke="midnightblue" d="M736.64,-448.49C617.95,-431.98 350.02,-393.89 125.46,-356 124.19,-355.79 122.91,-355.57 121.61,-355.34"/>
<polygon fill="midnightblue" stroke="midnightblue" points="121.98,-351.85 111.52,-353.54 120.76,-358.74 121.98,-351.85"/>
</g>
<!-- Node19 -->
<g id="node19" class="node">
<title>Node19</title>
<g id="a_node19"><a xlink:href="mxmouseevent_8h.html" target="_top" xlink:title=" ">
<polygon fill="none" stroke="black" points="840.46,-336.5 840.46,-355.5 930.46,-355.5 930.46,-336.5 840.46,-336.5"/>
<text text-anchor="middle" x="885.46" y="-343.5" font-family="Helvetica,sans-Serif" font-size="10.00">mxmouseevent.h</text>
</a>
</g>
</g>
<!-- Node1&#45;&gt;Node19 -->
<g id="edge31" class="edge">
<title>Node1&#45;&gt;Node19</title>
<path fill="none" stroke="midnightblue" d="M811.77,-448.26C823.59,-440 840.75,-426.7 852.46,-412 863.9,-397.65 872.97,-378.69 878.69,-364.96"/>
<polygon fill="midnightblue" stroke="midnightblue" points="881.95,-366.22 882.38,-355.64 875.44,-363.64 881.95,-366.22"/>
</g>
<!-- Node21 -->
<g id="node21" class="node">
<title>Node21</title>
<g id="a_node21"><a xlink:href="mxfont_8h.html" target="_top" xlink:title=" ">
<polygon fill="none" stroke="black" points="681.96,-224.5 681.96,-243.5 734.96,-243.5 734.96,-224.5 681.96,-224.5"/>
<text text-anchor="middle" x="708.46" y="-231.5" font-family="Helvetica,sans-Serif" font-size="10.00">mxfont.h</text>
</a>
</g>
</g>
<!-- Node1&#45;&gt;Node21 -->
<g id="edge34" class="edge">
<title>Node1&#45;&gt;Node21</title>
<path fill="none" stroke="midnightblue" d="M783.18,-448.33C770.78,-440.46 753.85,-427.72 744.46,-412 713.97,-360.94 708.9,-288.4 708.32,-254.22"/>
<polygon fill="midnightblue" stroke="midnightblue" points="711.82,-253.81 708.27,-243.83 704.82,-253.85 711.82,-253.81"/>
</g>
<!-- Node23 -->
<g id="node23" class="node">
<title>Node23</title>
<g id="a_node23"><a xlink:href="mxeventhandler_8h.html" target="_top" xlink:title=" ">
<polygon fill="none" stroke="black" points="1181.46,-392.5 1181.46,-411.5 1273.46,-411.5 1273.46,-392.5 1181.46,-392.5"/>
<text text-anchor="middle" x="1227.46" y="-399.5" font-family="Helvetica,sans-Serif" font-size="10.00">mxeventhandler.h</text>
</a>
</g>
</g>
<!-- Node1&#45;&gt;Node23 -->
<g id="edge38" class="edge">
<title>Node1&#45;&gt;Node23</title>
<path fill="none" stroke="midnightblue" d="M864.09,-448.74C947.99,-438.18 1091.85,-420.07 1171.06,-410.1"/>
<polygon fill="midnightblue" stroke="midnightblue" points="1171.84,-413.53 1181.32,-408.81 1170.97,-406.58 1171.84,-413.53"/>
</g>
<!-- Node24 -->
<g id="node24" class="node">
<title>Node24</title>
<g id="a_node24"><a xlink:href="mxapplication_8h.html" target="_top" xlink:title=" ">
<polygon fill="none" stroke="black" points="899.96,-392.5 899.96,-411.5 982.96,-411.5 982.96,-392.5 899.96,-392.5"/>
<text text-anchor="middle" x="941.46" y="-399.5" font-family="Helvetica,sans-Serif" font-size="10.00">mxapplication.h</text>
</a>
</g>
</g>
<!-- Node1&#45;&gt;Node24 -->
<g id="edge40" class="edge">
<title>Node1&#45;&gt;Node24</title>
<path fill="none" stroke="midnightblue" d="M821.12,-448.44C844.87,-439.48 882.37,-425.31 909.2,-415.18"/>
<polygon fill="midnightblue" stroke="midnightblue" points="910.79,-418.32 918.91,-411.52 908.32,-411.77 910.79,-418.32"/>
</g>
<!-- Node36 -->
<g id="node36" class="node">
<title>Node36</title>
<g id="a_node36"><a xlink:href="mxpainter_8h.html" target="_top" xlink:title=" ">
<polygon fill="none" stroke="black" points="554.46,-336.5 554.46,-355.5 620.46,-355.5 620.46,-336.5 554.46,-336.5"/>
<text text-anchor="middle" x="587.46" y="-343.5" font-family="Helvetica,sans-Serif" font-size="10.00">mxpainter.h</text>
</a>
</g>
</g>
<!-- Node1&#45;&gt;Node36 -->
<g id="edge82" class="edge">
<title>Node1&#45;&gt;Node36</title>
<path fill="none" stroke="midnightblue" d="M781.77,-448.4C764.25,-439.36 735.9,-424.72 711.46,-412 677.25,-394.18 637.79,-373.47 612.75,-360.31"/>
<polygon fill="midnightblue" stroke="midnightblue" points="614.38,-357.21 603.9,-355.65 611.12,-363.4 614.38,-357.21"/>
</g>
<!-- Node41 -->
<g id="node41" class="node">
<title>Node41</title>
<g id="a_node41"><a xlink:href="widgets_2mxthemecolors_8h.html" target="_top" xlink:title=" ">
<polygon fill="none" stroke="black" points="753.46,-392.5 753.46,-411.5 843.46,-411.5 843.46,-392.5 753.46,-392.5"/>
<text text-anchor="middle" x="798.46" y="-399.5" font-family="Helvetica,sans-Serif" font-size="10.00">mxthemecolors.h</text>
</a>
</g>
</g>
<!-- Node1&#45;&gt;Node41 -->
<g id="edge83" class="edge">
<title>Node1&#45;&gt;Node41</title>
<path fill="none" stroke="midnightblue" d="M798.46,-448.08C798.46,-441.01 798.46,-430.86 798.46,-421.99"/>
<polygon fill="midnightblue" stroke="midnightblue" points="801.96,-421.75 798.46,-411.75 794.96,-421.75 801.96,-421.75"/>
</g>
<!-- Node3 -->
<g id="node3" class="node">
<title>Node3</title>
<g id="a_node3"><a xlink:href="mxwidget_8h.html" target="_top" xlink:title=" ">
<polygon fill="none" stroke="black" points="167.96,-280.5 167.96,-299.5 232.96,-299.5 232.96,-280.5 167.96,-280.5"/>
<text text-anchor="middle" x="200.46" y="-287.5" font-family="Helvetica,sans-Serif" font-size="10.00">mxwidget.h</text>
</a>
</g>
</g>
<!-- Node2&#45;&gt;Node3 -->
<g id="edge2" class="edge">
<title>Node2&#45;&gt;Node3</title>
<path fill="none" stroke="midnightblue" d="M96.95,-336.44C117.11,-327.6 148.79,-313.69 171.79,-303.59"/>
<polygon fill="midnightblue" stroke="midnightblue" points="173.32,-306.74 181.07,-299.52 170.5,-300.33 173.32,-306.74"/>
</g>
<!-- Node15 -->
<g id="node15" class="node">
<title>Node15</title>
<g id="a_node15"><a xlink:href="mxstring_8h.html" target="_top" xlink:title=" ">
<polygon fill="none" stroke="black" points="333.96,-168.5 333.96,-187.5 394.96,-187.5 394.96,-168.5 333.96,-168.5"/>
<text text-anchor="middle" x="364.46" y="-175.5" font-family="Helvetica,sans-Serif" font-size="10.00">mxstring.h</text>
</a>
</g>
</g>
<!-- Node2&#45;&gt;Node15 -->
<g id="edge19" class="edge">
<title>Node2&#45;&gt;Node15</title>
<path fill="none" stroke="midnightblue" d="M65.77,-336.31C38.83,-315.28 -22.88,-260.7 9.46,-224 19.78,-212.29 232.75,-191.23 323.78,-182.72"/>
<polygon fill="midnightblue" stroke="midnightblue" points="324.11,-186.2 333.74,-181.79 323.46,-179.23 324.11,-186.2"/>
</g>
<!-- Node4 -->
<g id="node4" class="node">
<title>Node4</title>
<g id="a_node4"><a xlink:href="mxrect_8h.html" target="_top" xlink:title=" ">
<polygon fill="none" stroke="black" points="444.96,-168.5 444.96,-187.5 497.96,-187.5 497.96,-168.5 444.96,-168.5"/>
<text text-anchor="middle" x="471.46" y="-175.5" font-family="Helvetica,sans-Serif" font-size="10.00">mxrect.h</text>
</a>
</g>
</g>
<!-- Node3&#45;&gt;Node4 -->
<g id="edge3" class="edge">
<title>Node3&#45;&gt;Node4</title>
<path fill="none" stroke="midnightblue" d="M209.31,-280.43C224.19,-266.49 255.75,-238.96 287.46,-224 335.58,-201.3 396.37,-189.32 434.6,-183.58"/>
<polygon fill="midnightblue" stroke="midnightblue" points="435.35,-187 444.75,-182.12 434.36,-180.07 435.35,-187"/>
</g>
<!-- Node6 -->
<g id="node6" class="node">
<title>Node6</title>
<g id="a_node6"><a xlink:href="mxvector_8h.html" target="_top" xlink:title=" ">
<polygon fill="none" stroke="black" points="741.46,-112.5 741.46,-131.5 805.46,-131.5 805.46,-112.5 741.46,-112.5"/>
<text text-anchor="middle" x="773.46" y="-119.5" font-family="Helvetica,sans-Serif" font-size="10.00">mxvector.h</text>
</a>
</g>
</g>
<!-- Node3&#45;&gt;Node6 -->
<g id="edge8" class="edge">
<title>Node3&#45;&gt;Node6</title>
<path fill="none" stroke="midnightblue" d="M233.12,-286.02C305.27,-279.2 476.23,-261.68 531.46,-244 549.64,-238.18 552.47,-232.68 569.46,-224 632.74,-191.69 707.74,-154.96 746.8,-135.94"/>
<polygon fill="midnightblue" stroke="midnightblue" points="748.46,-139.02 755.93,-131.5 745.4,-132.73 748.46,-139.02"/>
</g>
<!-- Node8 -->
<g id="node8" class="node">
<title>Node8</title>
<g id="a_node8"><a xlink:href="mxwidgetlist_8h.html" target="_top" xlink:title=" ">
<polygon fill="none" stroke="black" points="18.46,-224.5 18.46,-243.5 96.46,-243.5 96.46,-224.5 18.46,-224.5"/>
<text text-anchor="middle" x="57.46" y="-231.5" font-family="Helvetica,sans-Serif" font-size="10.00">mxwidgetlist.h</text>
</a>
</g>
</g>
<!-- Node3&#45;&gt;Node8 -->
<g id="edge9" class="edge">
<title>Node3&#45;&gt;Node8</title>
<path fill="none" stroke="midnightblue" d="M177.8,-280.44C154.06,-271.48 116.55,-257.31 89.73,-247.18"/>
<polygon fill="midnightblue" stroke="midnightblue" points="90.61,-243.77 80.02,-243.52 88.14,-250.32 90.61,-243.77"/>
</g>
<!-- Node14 -->
<g id="node14" class="node">
<title>Node14</title>
<g id="a_node14"><a xlink:href="mxclippedwidget_8h.html" target="_top" xlink:title=" ">
<polygon fill="none" stroke="black" points="114.46,-224.5 114.46,-243.5 210.46,-243.5 210.46,-224.5 114.46,-224.5"/>
<text text-anchor="middle" x="162.46" y="-231.5" font-family="Helvetica,sans-Serif" font-size="10.00">mxclippedwidget.h</text>
</a>
</g>
</g>
<!-- Node3&#45;&gt;Node14 -->
<g id="edge16" class="edge">
<title>Node3&#45;&gt;Node14</title>
<path fill="none" stroke="midnightblue" d="M194.19,-280.08C188.82,-272.46 180.95,-261.26 174.38,-251.94"/>
<polygon fill="midnightblue" stroke="midnightblue" points="177.24,-249.91 168.62,-243.75 171.51,-253.94 177.24,-249.91"/>
</g>
<!-- Node5 -->
<g id="node5" class="node">
<title>Node5</title>
<g id="a_node5"><a xlink:title=" ">
<polygon fill="none" stroke="#bfbfbf" points="741.96,-0.5 741.96,-19.5 804.96,-19.5 804.96,-0.5 741.96,-0.5"/>
<text text-anchor="middle" x="773.46" y="-7.5" font-family="Helvetica,sans-Serif" font-size="10.00">mxdebug.h</text>
</a>
</g>
</g>
<!-- Node4&#45;&gt;Node5 -->
<g id="edge4" class="edge">
<title>Node4&#45;&gt;Node5</title>
<path fill="none" stroke="midnightblue" d="M498.22,-171.88C556.57,-160.68 690.38,-134.77 694.46,-132 732.23,-106.4 756.21,-56.11 766.93,-29.13"/>
<polygon fill="midnightblue" stroke="midnightblue" points="770.22,-30.32 770.5,-19.73 763.67,-27.83 770.22,-30.32"/>
</g>
<!-- Node4&#45;&gt;Node6 -->
<g id="edge5" class="edge">
<title>Node4&#45;&gt;Node6</title>
<path fill="none" stroke="midnightblue" d="M498.33,-170.9C503.03,-169.89 507.88,-168.89 512.46,-168 607.59,-149.61 632.14,-149.3 727.46,-132 728.72,-131.77 730,-131.54 731.3,-131.3"/>
<polygon fill="midnightblue" stroke="midnightblue" points="732.14,-134.7 741.31,-129.41 730.84,-127.82 732.14,-134.7"/>
</g>
<!-- Node7 -->
<g id="node7" class="node">
<title>Node7</title>
<g id="a_node7"><a xlink:title=" ">
<polygon fill="none" stroke="#bfbfbf" points="629.46,-112.5 629.46,-131.5 685.46,-131.5 685.46,-112.5 629.46,-112.5"/>
<text text-anchor="middle" x="657.46" y="-119.5" font-family="Helvetica,sans-Serif" font-size="10.00">algorithm</text>
</a>
</g>
</g>
<!-- Node4&#45;&gt;Node7 -->
<g id="edge7" class="edge">
<title>Node4&#45;&gt;Node7</title>
<path fill="none" stroke="midnightblue" d="M498.11,-169.26C529.97,-160.01 583.51,-144.47 619.65,-133.98"/>
<polygon fill="midnightblue" stroke="midnightblue" points="620.71,-137.31 629.34,-131.16 618.76,-130.59 620.71,-137.31"/>
</g>
<!-- Node6&#45;&gt;Node5 -->
<g id="edge6" class="edge">
<title>Node6&#45;&gt;Node5</title>
<path fill="none" stroke="midnightblue" d="M773.46,-112.37C773.46,-94.62 773.46,-53.67 773.46,-29.6"/>
<polygon fill="midnightblue" stroke="midnightblue" points="776.96,-29.59 773.46,-19.59 769.96,-29.59 776.96,-29.59"/>
</g>
<!-- Node9 -->
<g id="node9" class="node">
<title>Node9</title>
<g id="a_node9"><a xlink:href="mxlist_8h.html" target="_top" xlink:title=" ">
<polygon fill="none" stroke="black" points="193.46,-168.5 193.46,-187.5 243.46,-187.5 243.46,-168.5 193.46,-168.5"/>
<text text-anchor="middle" x="218.46" y="-175.5" font-family="Helvetica,sans-Serif" font-size="10.00">mxlist.h</text>
</a>
</g>
</g>
<!-- Node8&#45;&gt;Node9 -->
<g id="edge10" class="edge">
<title>Node8&#45;&gt;Node9</title>
<path fill="none" stroke="midnightblue" d="M82.97,-224.44C110.14,-215.33 153.31,-200.85 183.6,-190.69"/>
<polygon fill="midnightblue" stroke="midnightblue" points="184.97,-193.93 193.34,-187.43 182.74,-187.29 184.97,-193.93"/>
</g>
<!-- Node9&#45;&gt;Node5 -->
<g id="edge11" class="edge">
<title>Node9&#45;&gt;Node5</title>
<path fill="none" stroke="midnightblue" d="M243.54,-174.6C290.8,-169.65 396.02,-156.68 481.46,-132 583.03,-102.67 697.1,-48.96 747.33,-24.17"/>
<polygon fill="midnightblue" stroke="midnightblue" points="749.11,-27.2 756.51,-19.62 745.99,-20.93 749.11,-27.2"/>
</g>
<!-- Node10 -->
<g id="node10" class="node">
<title>Node10</title>
<g id="a_node10"><a xlink:href="mxrefcounter_8h.html" target="_top" xlink:title=" ">
<polygon fill="none" stroke="black" points="455.46,-56.5 455.46,-75.5 535.46,-75.5 535.46,-56.5 455.46,-56.5"/>
<text text-anchor="middle" x="495.46" y="-63.5" font-family="Helvetica,sans-Serif" font-size="10.00">mxrefcounter.h</text>
</a>
</g>
</g>
<!-- Node9&#45;&gt;Node10 -->
<g id="edge12" class="edge">
<title>Node9&#45;&gt;Node10</title>
<path fill="none" stroke="midnightblue" d="M243.52,-173.7C279.5,-168.33 347.29,-155.82 400.46,-132 429.61,-118.94 459.4,-96.85 477.66,-82.09"/>
<polygon fill="midnightblue" stroke="midnightblue" points="480.16,-84.57 485.65,-75.51 475.7,-79.17 480.16,-84.57"/>
</g>
<!-- Node11 -->
<g id="node11" class="node">
<title>Node11</title>
<g id="a_node11"><a xlink:title=" ">
<polygon fill="none" stroke="#bfbfbf" points="95.96,-0.5 95.96,-19.5 142.96,-19.5 142.96,-0.5 95.96,-0.5"/>
<text text-anchor="middle" x="119.46" y="-7.5" font-family="Helvetica,sans-Serif" font-size="10.00">stdlib.h</text>
</a>
</g>
</g>
<!-- Node9&#45;&gt;Node11 -->
<g id="edge13" class="edge">
<title>Node9&#45;&gt;Node11</title>
<path fill="none" stroke="midnightblue" d="M205.52,-168.26C183.71,-152.7 140.3,-117.84 122.46,-76 116.23,-61.39 115.94,-43.21 116.95,-29.8"/>
<polygon fill="midnightblue" stroke="midnightblue" points="120.43,-30.15 117.99,-19.84 113.47,-29.42 120.43,-30.15"/>
</g>
<!-- Node12 -->
<g id="node12" class="node">
<title>Node12</title>
<g id="a_node12"><a xlink:title=" ">
<polygon fill="none" stroke="#bfbfbf" points="239.46,-0.5 239.46,-19.5 287.46,-19.5 287.46,-0.5 239.46,-0.5"/>
<text text-anchor="middle" x="263.46" y="-7.5" font-family="Helvetica,sans-Serif" font-size="10.00">string.h</text>
</a>
</g>
</g>
<!-- Node9&#45;&gt;Node12 -->
<g id="edge14" class="edge">
<title>Node9&#45;&gt;Node12</title>
<path fill="none" stroke="midnightblue" d="M243.59,-173.44C314.28,-162.82 511.83,-128.8 544.46,-76 549.14,-68.44 550.23,-62.76 544.46,-56 513.12,-19.24 365.72,-12.38 297.84,-11.19"/>
<polygon fill="midnightblue" stroke="midnightblue" points="297.71,-7.69 287.66,-11.05 297.6,-14.69 297.71,-7.69"/>
</g>
<!-- Node13 -->
<g id="node13" class="node">
<title>Node13</title>
<g id="a_node13"><a xlink:title=" ">
<polygon fill="none" stroke="#bfbfbf" points="200.96,-112.5 200.96,-131.5 235.96,-131.5 235.96,-112.5 200.96,-112.5"/>
<text text-anchor="middle" x="218.46" y="-119.5" font-family="Helvetica,sans-Serif" font-size="10.00">new</text>
</a>
</g>
</g>
<!-- Node9&#45;&gt;Node13 -->
<g id="edge15" class="edge">
<title>Node9&#45;&gt;Node13</title>
<path fill="none" stroke="midnightblue" d="M218.46,-168.08C218.46,-161.01 218.46,-150.86 218.46,-141.99"/>
<polygon fill="midnightblue" stroke="midnightblue" points="221.96,-141.75 218.46,-131.75 214.96,-141.75 221.96,-141.75"/>
</g>
<!-- Node14&#45;&gt;Node4 -->
<g id="edge17" class="edge">
<title>Node14&#45;&gt;Node4</title>
<path fill="none" stroke="midnightblue" d="M210.74,-224.56C272.62,-213.75 378.53,-195.24 434.42,-185.47"/>
<polygon fill="midnightblue" stroke="midnightblue" points="435.33,-188.87 444.58,-183.7 434.13,-181.97 435.33,-188.87"/>
</g>
<!-- Node14&#45;&gt;Node9 -->
<g id="edge18" class="edge">
<title>Node14&#45;&gt;Node9</title>
<path fill="none" stroke="midnightblue" d="M171.46,-224.32C179.66,-216.42 191.97,-204.55 201.94,-194.94"/>
<polygon fill="midnightblue" stroke="midnightblue" points="204.53,-197.29 209.3,-187.83 199.67,-192.26 204.53,-197.29"/>
</g>
<!-- Node16 -->
<g id="node16" class="node">
<title>Node16</title>
<g id="a_node16"><a xlink:href="mxgenericstring_8h.html" target="_top" xlink:title=" ">
<polygon fill="none" stroke="black" points="299.46,-112.5 299.46,-131.5 391.46,-131.5 391.46,-112.5 299.46,-112.5"/>
<text text-anchor="middle" x="345.46" y="-119.5" font-family="Helvetica,sans-Serif" font-size="10.00">mxgenericstring.h</text>
</a>
</g>
</g>
<!-- Node15&#45;&gt;Node16 -->
<g id="edge20" class="edge">
<title>Node15&#45;&gt;Node16</title>
<path fill="none" stroke="midnightblue" d="M361.33,-168.08C358.78,-160.85 355.11,-150.41 351.94,-141.4"/>
<polygon fill="midnightblue" stroke="midnightblue" points="355.16,-140.02 348.54,-131.75 348.56,-142.35 355.16,-140.02"/>
</g>
<!-- Node16&#45;&gt;Node5 -->
<g id="edge21" class="edge">
<title>Node16&#45;&gt;Node5</title>
<path fill="none" stroke="midnightblue" d="M357.37,-112.4C379.77,-96.38 427.59,-62.98 446.46,-56 544.22,-19.84 668.12,-12.35 731.68,-11.04"/>
<polygon fill="midnightblue" stroke="midnightblue" points="731.78,-14.54 741.72,-10.87 731.66,-7.54 731.78,-14.54"/>
</g>
<!-- Node16&#45;&gt;Node10 -->
<g id="edge22" class="edge">
<title>Node16&#45;&gt;Node10</title>
<path fill="none" stroke="midnightblue" d="M369.23,-112.44C394.36,-103.4 434.17,-89.06 462.36,-78.92"/>
<polygon fill="midnightblue" stroke="midnightblue" points="463.58,-82.2 471.81,-75.52 461.21,-75.61 463.58,-82.2"/>
</g>
<!-- Node16&#45;&gt;Node11 -->
<g id="edge29" class="edge">
<title>Node16&#45;&gt;Node11</title>
<path fill="none" stroke="midnightblue" d="M299.29,-116.45C245.6,-110.24 161.4,-97.38 138.46,-76 125.84,-64.24 121.45,-44.6 119.99,-29.98"/>
<polygon fill="midnightblue" stroke="midnightblue" points="123.46,-29.35 119.36,-19.58 116.48,-29.77 123.46,-29.35"/>
</g>
<!-- Node16&#45;&gt;Node12 -->
<g id="edge30" class="edge">
<title>Node16&#45;&gt;Node12</title>
<path fill="none" stroke="midnightblue" d="M327.44,-112.39C313.24,-104.73 293.98,-92.22 282.46,-76 272.78,-62.37 268,-43.83 265.65,-30.04"/>
<polygon fill="midnightblue" stroke="midnightblue" points="269.07,-29.19 264.2,-19.78 262.14,-30.17 269.07,-29.19"/>
</g>
<!-- Node17 -->
<g id="node17" class="node">
<title>Node17</title>
<g id="a_node17"><a xlink:href="mxbytearrayref_8h.html" target="_top" xlink:title=" ">
<polygon fill="none" stroke="black" points="147.96,-56.5 147.96,-75.5 234.96,-75.5 234.96,-56.5 147.96,-56.5"/>
<text text-anchor="middle" x="191.46" y="-63.5" font-family="Helvetica,sans-Serif" font-size="10.00">mxbytearrayref.h</text>
</a>
</g>
</g>
<!-- Node16&#45;&gt;Node17 -->
<g id="edge23" class="edge">
<title>Node16&#45;&gt;Node17</title>
<path fill="none" stroke="midnightblue" d="M321.06,-112.44C295.27,-103.4 254.39,-89.06 225.45,-78.92"/>
<polygon fill="midnightblue" stroke="midnightblue" points="226.35,-75.52 215.75,-75.52 224.03,-82.13 226.35,-75.52"/>
</g>
<!-- Node18 -->
<g id="node18" class="node">
<title>Node18</title>
<g id="a_node18"><a xlink:href="mxgenericsubstring_8h.html" target="_top" xlink:title=" ">
<polygon fill="none" stroke="black" points="291.46,-56.5 291.46,-75.5 399.46,-75.5 399.46,-56.5 291.46,-56.5"/>
<text text-anchor="middle" x="345.46" y="-63.5" font-family="Helvetica,sans-Serif" font-size="10.00">mxgenericsubstring.h</text>
</a>
</g>
</g>
<!-- Node16&#45;&gt;Node18 -->
<g id="edge27" class="edge">
<title>Node16&#45;&gt;Node18</title>
<path fill="none" stroke="midnightblue" d="M345.46,-112.08C345.46,-105.01 345.46,-94.86 345.46,-85.99"/>
<polygon fill="midnightblue" stroke="midnightblue" points="348.96,-85.75 345.46,-75.75 341.96,-85.75 348.96,-85.75"/>
</g>
<!-- Node17&#45;&gt;Node5 -->
<g id="edge24" class="edge">
<title>Node17&#45;&gt;Node5</title>
<path fill="none" stroke="midnightblue" d="M234.97,-60.63C250.01,-59.14 266.98,-57.48 282.46,-56 448.93,-40.14 647.25,-22.28 731.88,-14.71"/>
<polygon fill="midnightblue" stroke="midnightblue" points="732.21,-18.19 741.86,-13.82 731.59,-11.22 732.21,-18.19"/>
</g>
<!-- Node17&#45;&gt;Node11 -->
<g id="edge25" class="edge">
<title>Node17&#45;&gt;Node11</title>
<path fill="none" stroke="midnightblue" d="M179.9,-56.32C169.04,-48.18 152.58,-35.84 139.58,-26.09"/>
<polygon fill="midnightblue" stroke="midnightblue" points="141.34,-23.03 131.24,-19.83 137.14,-28.63 141.34,-23.03"/>
</g>
<!-- Node17&#45;&gt;Node12 -->
<g id="edge26" class="edge">
<title>Node17&#45;&gt;Node12</title>
<path fill="none" stroke="midnightblue" d="M203.03,-56.32C213.88,-48.18 230.34,-35.84 243.35,-26.09"/>
<polygon fill="midnightblue" stroke="midnightblue" points="245.79,-28.63 251.69,-19.83 241.59,-23.03 245.79,-28.63"/>
</g>
<!-- Node18&#45;&gt;Node5 -->
<g id="edge28" class="edge">
<title>Node18&#45;&gt;Node5</title>
<path fill="none" stroke="midnightblue" d="M399.65,-57.79C404.32,-57.18 408.98,-56.58 413.46,-56 528.5,-41.2 664.32,-24.41 731.49,-16.15"/>
<polygon fill="midnightblue" stroke="midnightblue" points="732.17,-19.59 741.67,-14.9 731.32,-12.64 732.17,-19.59"/>
</g>
<!-- Node19&#45;&gt;Node6 -->
<g id="edge32" class="edge">
<title>Node19&#45;&gt;Node6</title>
<path fill="none" stroke="midnightblue" d="M866.45,-336.45C851.77,-328.9 832.06,-316.51 820.46,-300 785.49,-250.21 776.54,-175.95 774.25,-141.63"/>
<polygon fill="midnightblue" stroke="midnightblue" points="777.74,-141.41 773.7,-131.61 770.75,-141.79 777.74,-141.41"/>
</g>
<!-- Node20 -->
<g id="node20" class="node">
<title>Node20</title>
<g id="a_node20"><a xlink:title=" ">
<polygon fill="none" stroke="#bfbfbf" points="829.46,-280.5 829.46,-299.5 967.46,-299.5 967.46,-280.5 829.46,-280.5"/>
<text text-anchor="middle" x="898.46" y="-287.5" font-family="Helvetica,sans-Serif" font-size="10.00">mxmouseeventabstraction.h</text>
</a>
</g>
</g>
<!-- Node19&#45;&gt;Node20 -->
<g id="edge33" class="edge">
<title>Node19&#45;&gt;Node20</title>
<path fill="none" stroke="midnightblue" d="M887.61,-336.08C889.33,-328.93 891.81,-318.64 893.96,-309.69"/>
<polygon fill="midnightblue" stroke="midnightblue" points="897.42,-310.29 896.36,-299.75 890.61,-308.65 897.42,-310.29"/>
</g>
<!-- Node21&#45;&gt;Node6 -->
<g id="edge35" class="edge">
<title>Node21&#45;&gt;Node6</title>
<path fill="none" stroke="midnightblue" d="M708.45,-224.38C708.8,-211.32 710.92,-186.1 721.46,-168 728.51,-155.91 740,-145.46 750.39,-137.68"/>
<polygon fill="midnightblue" stroke="midnightblue" points="752.58,-140.42 758.74,-131.8 748.55,-134.7 752.58,-140.42"/>
</g>
<!-- Node21&#45;&gt;Node15 -->
<g id="edge36" class="edge">
<title>Node21&#45;&gt;Node15</title>
<path fill="none" stroke="midnightblue" d="M681.79,-226.02C678.66,-225.29 675.5,-224.6 672.46,-224 622.06,-214.04 476.61,-194.05 405.11,-184.42"/>
<polygon fill="midnightblue" stroke="midnightblue" points="405.5,-180.94 395.12,-183.08 404.57,-187.88 405.5,-180.94"/>
</g>
<!-- Node22 -->
<g id="node22" class="node">
<title>Node22</title>
<g id="a_node22"><a xlink:title=" ">
<polygon fill="none" stroke="#bfbfbf" points="1151.96,-112.5 1151.96,-131.5 1216.96,-131.5 1216.96,-112.5 1151.96,-112.5"/>
<text text-anchor="middle" x="1184.46" y="-119.5" font-family="Helvetica,sans-Serif" font-size="10.00">mxopengl.h</text>
</a>
</g>
</g>
<!-- Node21&#45;&gt;Node22 -->
<g id="edge37" class="edge">
<title>Node21&#45;&gt;Node22</title>
<path fill="none" stroke="midnightblue" d="M730.7,-224.43C766.99,-210.73 841.43,-183.83 906.46,-168 988.58,-148.01 1086.55,-134.5 1141.53,-127.83"/>
<polygon fill="midnightblue" stroke="midnightblue" points="1142.09,-131.29 1151.6,-126.63 1141.26,-124.34 1142.09,-131.29"/>
</g>
<!-- Node23&#45;&gt;Node5 -->
<g id="edge39" class="edge">
<title>Node23&#45;&gt;Node5</title>
<path fill="none" stroke="midnightblue" d="M1273.61,-393.57C1327.23,-382 1408.46,-354.06 1408.46,-291 1408.46,-291 1408.46,-291 1408.46,-121 1408.46,-43.42 1321.85,-74.31 1246.46,-56 1090.41,-18.11 898.17,-11.82 815.02,-10.99"/>
<polygon fill="midnightblue" stroke="midnightblue" points="814.99,-7.49 804.97,-10.91 814.94,-14.49 814.99,-7.49"/>
</g>
<!-- Node24&#45;&gt;Node5 -->
<g id="edge41" class="edge">
<title>Node24&#45;&gt;Node5</title>
<path fill="none" stroke="midnightblue" d="M982.99,-399.18C1090.65,-393.33 1370.46,-370.48 1370.46,-291 1370.46,-291 1370.46,-291 1370.46,-121 1370.46,-64.44 950.72,-25.39 815.14,-14.25"/>
<polygon fill="midnightblue" stroke="midnightblue" points="815.39,-10.76 805.14,-13.44 814.82,-17.74 815.39,-10.76"/>
</g>
<!-- Node24&#45;&gt;Node8 -->
<g id="edge42" class="edge">
<title>Node24&#45;&gt;Node8</title>
<path fill="none" stroke="midnightblue" d="M899.72,-396.74C747.63,-381.07 228.47,-326.17 158.46,-300 126.79,-288.16 94.72,-265.24 75.46,-250.02"/>
<polygon fill="midnightblue" stroke="midnightblue" points="77.54,-247.21 67.56,-243.64 73.14,-252.65 77.54,-247.21"/>
</g>
<!-- Node24&#45;&gt;Node19 -->
<g id="edge68" class="edge">
<title>Node24&#45;&gt;Node19</title>
<path fill="none" stroke="midnightblue" d="M932.47,-392.32C924.27,-384.42 911.96,-372.55 901.99,-362.94"/>
<polygon fill="midnightblue" stroke="midnightblue" points="904.25,-360.26 894.62,-355.83 899.39,-365.29 904.25,-360.26"/>
</g>
<!-- Node25 -->
<g id="node25" class="node">
<title>Node25</title>
<g id="a_node25"><a xlink:href="mxguirenderer_8h.html" target="_top" xlink:title=" ">
<polygon fill="none" stroke="black" points="1058.96,-336.5 1058.96,-355.5 1143.96,-355.5 1143.96,-336.5 1058.96,-336.5"/>
<text text-anchor="middle" x="1101.46" y="-343.5" font-family="Helvetica,sans-Serif" font-size="10.00">mxguirenderer.h</text>
</a>
</g>
</g>
<!-- Node24&#45;&gt;Node25 -->
<g id="edge43" class="edge">
<title>Node24&#45;&gt;Node25</title>
<path fill="none" stroke="midnightblue" d="M966.82,-392.44C993.73,-383.36 1036.46,-368.94 1066.55,-358.78"/>
<polygon fill="midnightblue" stroke="midnightblue" points="1067.87,-362.03 1076.23,-355.52 1065.64,-355.4 1067.87,-362.03"/>
</g>
<!-- Node24&#45;&gt;Node36 -->
<g id="edge69" class="edge">
<title>Node24&#45;&gt;Node36</title>
<path fill="none" stroke="midnightblue" d="M899.81,-394.65C832.19,-384.33 699.18,-364.04 630.61,-353.58"/>
<polygon fill="midnightblue" stroke="midnightblue" points="630.99,-350.1 620.57,-352.05 629.93,-357.02 630.99,-350.1"/>
</g>
<!-- Node26 -->
<g id="node26" class="node">
<title>Node26</title>
<g id="a_node26"><a xlink:href="mxbuffer_8h.html" target="_top" xlink:title=" ">
<polygon fill="none" stroke="black" points="985.96,-280.5 985.96,-299.5 1046.96,-299.5 1046.96,-280.5 985.96,-280.5"/>
<text text-anchor="middle" x="1016.46" y="-287.5" font-family="Helvetica,sans-Serif" font-size="10.00">mxbuffer.h</text>
</a>
</g>
</g>
<!-- Node25&#45;&gt;Node26 -->
<g id="edge44" class="edge">
<title>Node25&#45;&gt;Node26</title>
<path fill="none" stroke="midnightblue" d="M1087.81,-336.32C1074.55,-327.9 1054.2,-314.97 1038.62,-305.07"/>
<polygon fill="midnightblue" stroke="midnightblue" points="1040.4,-302.06 1030.09,-299.65 1036.65,-307.97 1040.4,-302.06"/>
</g>
<!-- Node27 -->
<g id="node27" class="node">
<title>Node27</title>
<g id="a_node27"><a xlink:href="mxrenderer_8h.html" target="_top" xlink:title=" ">
<polygon fill="none" stroke="black" points="1065.46,-280.5 1065.46,-299.5 1137.46,-299.5 1137.46,-280.5 1065.46,-280.5"/>
<text text-anchor="middle" x="1101.46" y="-287.5" font-family="Helvetica,sans-Serif" font-size="10.00">mxrenderer.h</text>
</a>
</g>
</g>
<!-- Node25&#45;&gt;Node27 -->
<g id="edge45" class="edge">
<title>Node25&#45;&gt;Node27</title>
<path fill="none" stroke="midnightblue" d="M1101.46,-336.08C1101.46,-329.01 1101.46,-318.86 1101.46,-309.99"/>
<polygon fill="midnightblue" stroke="midnightblue" points="1104.96,-309.75 1101.46,-299.75 1097.96,-309.75 1104.96,-309.75"/>
</g>
<!-- Node33 -->
<g id="node33" class="node">
<title>Node33</title>
<g id="a_node33"><a xlink:href="mxvectorprogram_8h.html" target="_top" xlink:title=" ">
<polygon fill="none" stroke="black" points="1155.96,-280.5 1155.96,-299.5 1254.96,-299.5 1254.96,-280.5 1155.96,-280.5"/>
<text text-anchor="middle" x="1205.46" y="-287.5" font-family="Helvetica,sans-Serif" font-size="10.00">mxvectorprogram.h</text>
</a>
</g>
</g>
<!-- Node25&#45;&gt;Node33 -->
<g id="edge56" class="edge">
<title>Node25&#45;&gt;Node33</title>
<path fill="none" stroke="midnightblue" d="M1118.17,-336.32C1134.78,-327.7 1160.47,-314.36 1179.68,-304.39"/>
<polygon fill="midnightblue" stroke="midnightblue" points="1181.53,-307.37 1188.8,-299.65 1178.31,-301.16 1181.53,-307.37"/>
</g>
<!-- Node35 -->
<g id="node35" class="node">
<title>Node35</title>
<g id="a_node35"><a xlink:href="mxiconprogram_8h.html" target="_top" xlink:title=" ">
<polygon fill="none" stroke="black" points="1238.46,-224.5 1238.46,-243.5 1328.46,-243.5 1328.46,-224.5 1238.46,-224.5"/>
<text text-anchor="middle" x="1283.46" y="-231.5" font-family="Helvetica,sans-Serif" font-size="10.00">mxiconprogram.h</text>
</a>
</g>
</g>
<!-- Node25&#45;&gt;Node35 -->
<g id="edge61" class="edge">
<title>Node25&#45;&gt;Node35</title>
<path fill="none" stroke="midnightblue" d="M1144.2,-344.07C1180.51,-341 1231.66,-330.94 1263.46,-300 1275.75,-288.05 1280.53,-268.74 1282.37,-254.27"/>
<polygon fill="midnightblue" stroke="midnightblue" points="1285.89,-254.21 1283.3,-243.94 1278.92,-253.58 1285.89,-254.21"/>
</g>
<!-- Node27&#45;&gt;Node6 -->
<g id="edge55" class="edge">
<title>Node27&#45;&gt;Node6</title>
<path fill="none" stroke="midnightblue" d="M1065.16,-281.44C1009.02,-269.68 906.79,-247.93 899.46,-244 850.21,-217.59 806.58,-166.51 786,-139.95"/>
<polygon fill="midnightblue" stroke="midnightblue" points="788.54,-137.52 779.7,-131.67 782.96,-141.75 788.54,-137.52"/>
</g>
<!-- Node27&#45;&gt;Node9 -->
<g id="edge46" class="edge">
<title>Node27&#45;&gt;Node9</title>
<path fill="none" stroke="midnightblue" d="M1065.38,-281.46C1062.04,-280.91 1058.69,-280.41 1055.46,-280 783.39,-245.59 704.06,-316.12 439.46,-244 420.67,-238.88 418.71,-230.83 400.46,-224 350.87,-205.44 290.8,-192.29 253.6,-185.18"/>
<polygon fill="midnightblue" stroke="midnightblue" points="254.22,-181.73 243.74,-183.33 252.93,-188.61 254.22,-181.73"/>
</g>
<!-- Node28 -->
<g id="node28" class="node">
<title>Node28</title>
<g id="a_node28"><a xlink:href="mxgpuarray_8h.html" target="_top" xlink:title=" ">
<polygon fill="none" stroke="black" points="1070.46,-224.5 1070.46,-243.5 1144.46,-243.5 1144.46,-224.5 1070.46,-224.5"/>
<text text-anchor="middle" x="1107.46" y="-231.5" font-family="Helvetica,sans-Serif" font-size="10.00">mxgpuarray.h</text>
</a>
</g>
</g>
<!-- Node27&#45;&gt;Node28 -->
<g id="edge47" class="edge">
<title>Node27&#45;&gt;Node28</title>
<path fill="none" stroke="midnightblue" d="M1102.45,-280.08C1103.25,-272.93 1104.39,-262.64 1105.39,-253.69"/>
<polygon fill="midnightblue" stroke="midnightblue" points="1108.87,-254.08 1106.49,-243.75 1101.91,-253.3 1108.87,-254.08"/>
</g>
<!-- Node30 -->
<g id="node30" class="node">
<title>Node30</title>
<g id="a_node30"><a xlink:href="mxmatrix_8h.html" target="_top" xlink:title=" ">
<polygon fill="none" stroke="black" points="1058.96,-168.5 1058.96,-187.5 1121.96,-187.5 1121.96,-168.5 1058.96,-168.5"/>
<text text-anchor="middle" x="1090.46" y="-175.5" font-family="Helvetica,sans-Serif" font-size="10.00">mxmatrix.h</text>
</a>
</g>
</g>
<!-- Node27&#45;&gt;Node30 -->
<g id="edge50" class="edge">
<title>Node27&#45;&gt;Node30</title>
<path fill="none" stroke="midnightblue" d="M1090.2,-280.43C1080.5,-272.27 1067.18,-259.05 1061.46,-244 1055.11,-227.3 1065.19,-208.72 1075.17,-195.72"/>
<polygon fill="midnightblue" stroke="midnightblue" points="1078.14,-197.62 1081.85,-187.7 1072.76,-193.14 1078.14,-197.62"/>
</g>
<!-- Node31 -->
<g id="node31" class="node">
<title>Node31</title>
<g id="a_node31"><a xlink:href="mxopenglfunctions_8h.html" target="_top" xlink:title=" ">
<polygon fill="none" stroke="black" points="908.96,-224.5 908.96,-243.5 1013.96,-243.5 1013.96,-224.5 908.96,-224.5"/>
<text text-anchor="middle" x="961.46" y="-231.5" font-family="Helvetica,sans-Serif" font-size="10.00">mxopenglfunctions.h</text>
</a>
</g>
</g>
<!-- Node27&#45;&gt;Node31 -->
<g id="edge53" class="edge">
<title>Node27&#45;&gt;Node31</title>
<path fill="none" stroke="midnightblue" d="M1079.28,-280.44C1056.04,-271.48 1019.31,-257.31 993.05,-247.18"/>
<polygon fill="midnightblue" stroke="midnightblue" points="994.13,-243.85 983.54,-243.52 991.61,-250.38 994.13,-243.85"/>
</g>
<!-- Node29 -->
<g id="node29" class="node">
<title>Node29</title>
<g id="a_node29"><a xlink:href="mxgpuprogram_8h.html" target="_top" xlink:title=" ">
<polygon fill="none" stroke="black" points="1140.46,-168.5 1140.46,-187.5 1228.46,-187.5 1228.46,-168.5 1140.46,-168.5"/>
<text text-anchor="middle" x="1184.46" y="-175.5" font-family="Helvetica,sans-Serif" font-size="10.00">mxgpuprogram.h</text>
</a>
</g>
</g>
<!-- Node28&#45;&gt;Node29 -->
<g id="edge48" class="edge">
<title>Node28&#45;&gt;Node29</title>
<path fill="none" stroke="midnightblue" d="M1119.83,-224.32C1131.62,-216.06 1149.6,-203.45 1163.6,-193.63"/>
<polygon fill="midnightblue" stroke="midnightblue" points="1165.95,-196.26 1172.12,-187.65 1161.93,-190.53 1165.95,-196.26"/>
</g>
<!-- Node29&#45;&gt;Node22 -->
<g id="edge49" class="edge">
<title>Node29&#45;&gt;Node22</title>
<path fill="none" stroke="midnightblue" d="M1184.46,-168.08C1184.46,-161.01 1184.46,-150.86 1184.46,-141.99"/>
<polygon fill="midnightblue" stroke="midnightblue" points="1187.96,-141.75 1184.46,-131.75 1180.96,-141.75 1187.96,-141.75"/>
</g>
<!-- Node30&#45;&gt;Node5 -->
<g id="edge51" class="edge">
<title>Node30&#45;&gt;Node5</title>
<path fill="none" stroke="midnightblue" d="M1079.08,-168.36C1050.5,-146.99 972.9,-90.84 901.46,-56 873.15,-42.19 839.48,-30.53 813.78,-22.54"/>
<polygon fill="midnightblue" stroke="midnightblue" points="814.59,-19.12 804,-19.55 812.55,-25.82 814.59,-19.12"/>
</g>
<!-- Node30&#45;&gt;Node6 -->
<g id="edge52" class="edge">
<title>Node30&#45;&gt;Node6</title>
<path fill="none" stroke="midnightblue" d="M1058.71,-169.85C1055.59,-169.2 1052.47,-168.57 1049.46,-168 967.03,-152.25 870.08,-137.25 815.8,-129.17"/>
<polygon fill="midnightblue" stroke="midnightblue" points="816.26,-125.7 805.86,-127.7 815.24,-132.62 816.26,-125.7"/>
</g>
<!-- Node32 -->
<g id="node32" class="node">
<title>Node32</title>
<g id="a_node32"><a xlink:title=" ">
<polygon fill="none" stroke="#bfbfbf" points="915.96,-168.5 915.96,-187.5 1040.96,-187.5 1040.96,-168.5 915.96,-168.5"/>
<text text-anchor="middle" x="978.46" y="-175.5" font-family="Helvetica,sans-Serif" font-size="10.00">QOpenGLExtraFunctions</text>
</a>
</g>
</g>
<!-- Node31&#45;&gt;Node32 -->
<g id="edge54" class="edge">
<title>Node31&#45;&gt;Node32</title>
<path fill="none" stroke="midnightblue" d="M964.27,-224.08C966.55,-216.85 969.83,-206.41 972.67,-197.4"/>
<polygon fill="midnightblue" stroke="midnightblue" points="976.04,-198.34 975.71,-187.75 969.37,-196.24 976.04,-198.34"/>
</g>
<!-- Node33&#45;&gt;Node29 -->
<g id="edge57" class="edge">
<title>Node33&#45;&gt;Node29</title>
<path fill="none" stroke="midnightblue" d="M1203.82,-280.37C1200.43,-262.62 1192.61,-221.67 1188.01,-197.6"/>
<polygon fill="midnightblue" stroke="midnightblue" points="1191.42,-196.76 1186.1,-187.59 1184.54,-198.07 1191.42,-196.76"/>
</g>
<!-- Node33&#45;&gt;Node30 -->
<g id="edge58" class="edge">
<title>Node33&#45;&gt;Node30</title>
<path fill="none" stroke="midnightblue" d="M1199.73,-280.38C1190.79,-267.31 1172.56,-242.08 1153.46,-224 1141.21,-212.4 1125.83,-201.35 1113.33,-193.11"/>
<polygon fill="midnightblue" stroke="midnightblue" points="1115.13,-190.11 1104.82,-187.64 1111.34,-195.99 1115.13,-190.11"/>
</g>
<!-- Node34 -->
<g id="node34" class="node">
<title>Node34</title>
<g id="a_node34"><a xlink:href="mxvectordraw_8h.html" target="_top" xlink:title=" ">
<polygon fill="none" stroke="black" points="578.96,-224.5 578.96,-243.5 663.96,-243.5 663.96,-224.5 578.96,-224.5"/>
<text text-anchor="middle" x="621.46" y="-231.5" font-family="Helvetica,sans-Serif" font-size="10.00">mxvectordraw.h</text>
</a>
</g>
</g>
<!-- Node33&#45;&gt;Node34 -->
<g id="edge59" class="edge">
<title>Node33&#45;&gt;Node34</title>
<path fill="none" stroke="midnightblue" d="M1155.93,-281.17C1152.73,-280.75 1149.55,-280.35 1146.46,-280 939.83,-256.43 883.82,-269.95 674.1,-244.09"/>
<polygon fill="midnightblue" stroke="midnightblue" points="674.35,-240.6 663.99,-242.83 673.48,-247.54 674.35,-240.6"/>
</g>
<!-- Node34&#45;&gt;Node4 -->
<g id="edge60" class="edge">
<title>Node34&#45;&gt;Node4</title>
<path fill="none" stroke="midnightblue" d="M597.7,-224.44C572.57,-215.4 532.75,-201.06 504.56,-190.92"/>
<polygon fill="midnightblue" stroke="midnightblue" points="505.71,-187.61 495.12,-187.52 503.34,-194.2 505.71,-187.61"/>
</g>
<!-- Node35&#45;&gt;Node4 -->
<g id="edge67" class="edge">
<title>Node35&#45;&gt;Node4</title>
<path fill="none" stroke="midnightblue" d="M1238.34,-229.84C1213.33,-228.1 1181.68,-225.91 1153.46,-224 907.05,-207.34 610.51,-188.02 508.23,-181.38"/>
<polygon fill="midnightblue" stroke="midnightblue" points="508.32,-177.88 498.11,-180.73 507.87,-184.87 508.32,-177.88"/>
</g>
<!-- Node35&#45;&gt;Node5 -->
<g id="edge62" class="edge">
<title>Node35&#45;&gt;Node5</title>
<path fill="none" stroke="midnightblue" d="M1286.96,-224.13C1291.5,-211.16 1297.89,-186.58 1289.46,-168 1273.85,-133.58 1259.17,-129.09 1225.46,-112 1086.03,-41.29 897.66,-19.73 815.12,-13.45"/>
<polygon fill="midnightblue" stroke="midnightblue" points="815.35,-9.95 805.13,-12.72 814.85,-16.93 815.35,-9.95"/>
</g>
<!-- Node35&#45;&gt;Node6 -->
<g id="edge64" class="edge">
<title>Node35&#45;&gt;Node6</title>
<path fill="none" stroke="midnightblue" d="M1280.21,-224.44C1274.21,-209.98 1259.94,-181.04 1237.46,-168 1166.39,-126.76 916.12,-122.63 815.66,-122.69"/>
<polygon fill="midnightblue" stroke="midnightblue" points="815.57,-119.19 805.57,-122.71 815.58,-126.19 815.57,-119.19"/>
</g>
<!-- Node35&#45;&gt;Node22 -->
<g id="edge65" class="edge">
<title>Node35&#45;&gt;Node22</title>
<path fill="none" stroke="midnightblue" d="M1283.97,-224.49C1284.32,-211.11 1283.16,-184.95 1270.46,-168 1259.14,-152.89 1241.27,-142.39 1224.73,-135.36"/>
<polygon fill="midnightblue" stroke="midnightblue" points="1225.8,-132.02 1215.22,-131.61 1223.24,-138.53 1225.8,-132.02"/>
</g>
<!-- Node35&#45;&gt;Node29 -->
<g id="edge66" class="edge">
<title>Node35&#45;&gt;Node29</title>
<path fill="none" stroke="midnightblue" d="M1267.56,-224.32C1251.83,-215.74 1227.52,-202.49 1209.25,-192.52"/>
<polygon fill="midnightblue" stroke="midnightblue" points="1210.79,-189.37 1200.33,-187.65 1207.43,-195.52 1210.79,-189.37"/>
</g>
<!-- Node35&#45;&gt;Node30 -->
<g id="edge63" class="edge">
<title>Node35&#45;&gt;Node30</title>
<path fill="none" stroke="midnightblue" d="M1252.88,-224.44C1219.85,-215.2 1167.08,-200.44 1130.7,-190.26"/>
<polygon fill="midnightblue" stroke="midnightblue" points="1131.48,-186.84 1120.9,-187.52 1129.59,-193.58 1131.48,-186.84"/>
</g>
<!-- Node36&#45;&gt;Node5 -->
<g id="edge70" class="edge">
<title>Node36&#45;&gt;Node5</title>
<path fill="none" stroke="midnightblue" d="M604.05,-336.44C620.48,-327.78 646.18,-313.75 667.46,-300 750.79,-246.15 786.81,-227.28 814.46,-132 825.33,-94.56 801.94,-51.48 786.22,-28.17"/>
<polygon fill="midnightblue" stroke="midnightblue" points="788.89,-25.88 780.27,-19.72 783.17,-29.91 788.89,-25.88"/>
</g>
<!-- Node36&#45;&gt;Node9 -->
<g id="edge72" class="edge">
<title>Node36&#45;&gt;Node9</title>
<path fill="none" stroke="midnightblue" d="M554.13,-345C440.52,-344.17 72.1,-334.45 9.46,-244 4.4,-236.69 3.88,-230.92 9.46,-224 30.89,-197.47 129.23,-185.84 183.04,-181.39"/>
<polygon fill="midnightblue" stroke="midnightblue" points="183.47,-184.87 193.17,-180.59 182.93,-177.89 183.47,-184.87"/>
</g>
<!-- Node36&#45;&gt;Node34 -->
<g id="edge71" class="edge">
<title>Node36&#45;&gt;Node34</title>
<path fill="none" stroke="midnightblue" d="M582.07,-336.26C574.9,-323.47 564.08,-299.09 572.46,-280 577.85,-267.73 588.42,-257.34 598.37,-249.65"/>
<polygon fill="midnightblue" stroke="midnightblue" points="600.72,-252.27 606.8,-243.6 596.64,-246.58 600.72,-252.27"/>
</g>
<!-- Node37 -->
<g id="node37" class="node">
<title>Node37</title>
<g id="a_node37"><a xlink:href="mxtextdraw_8h.html" target="_top" xlink:title=" ">
<polygon fill="none" stroke="black" points="448.46,-224.5 448.46,-243.5 522.46,-243.5 522.46,-224.5 448.46,-224.5"/>
<text text-anchor="middle" x="485.46" y="-231.5" font-family="Helvetica,sans-Serif" font-size="10.00">mxtextdraw.h</text>
</a>
</g>
</g>
<!-- Node36&#45;&gt;Node37 -->
<g id="edge73" class="edge">
<title>Node36&#45;&gt;Node37</title>
<path fill="none" stroke="midnightblue" d="M579.46,-336.37C562.4,-317.97 522.25,-274.67 500.35,-251.05"/>
<polygon fill="midnightblue" stroke="midnightblue" points="502.8,-248.54 493.43,-243.59 497.66,-253.3 502.8,-248.54"/>
</g>
<!-- Node38 -->
<g id="node38" class="node">
<title>Node38</title>
<g id="a_node38"><a xlink:href="mxicondraw_8h.html" target="_top" xlink:title=" ">
<polygon fill="none" stroke="black" points="310.46,-280.5 310.46,-299.5 386.46,-299.5 386.46,-280.5 310.46,-280.5"/>
<text text-anchor="middle" x="348.46" y="-287.5" font-family="Helvetica,sans-Serif" font-size="10.00">mxicondraw.h</text>
</a>
</g>
</g>
<!-- Node36&#45;&gt;Node38 -->
<g id="edge77" class="edge">
<title>Node36&#45;&gt;Node38</title>
<path fill="none" stroke="midnightblue" d="M554.23,-337.49C513.13,-328.2 442.86,-312.33 396.04,-301.75"/>
<polygon fill="midnightblue" stroke="midnightblue" points="396.66,-298.3 386.14,-299.51 395.12,-305.13 396.66,-298.3"/>
</g>
<!-- Node40 -->
<g id="node40" class="node">
<title>Node40</title>
<g id="a_node40"><a xlink:href="mxstaticfont_8h.html" target="_top" xlink:title=" ">
<polygon fill="none" stroke="black" points="581.96,-280.5 581.96,-299.5 658.96,-299.5 658.96,-280.5 581.96,-280.5"/>
<text text-anchor="middle" x="620.46" y="-287.5" font-family="Helvetica,sans-Serif" font-size="10.00">mxstaticfont.h</text>
</a>
</g>
</g>
<!-- Node36&#45;&gt;Node40 -->
<g id="edge80" class="edge">
<title>Node36&#45;&gt;Node40</title>
<path fill="none" stroke="midnightblue" d="M592.91,-336.08C597.48,-328.61 604.13,-317.72 609.76,-308.52"/>
<polygon fill="midnightblue" stroke="midnightblue" points="612.89,-310.11 615.12,-299.75 606.91,-306.46 612.89,-310.11"/>
</g>
<!-- Node37&#45;&gt;Node4 -->
<g id="edge76" class="edge">
<title>Node37&#45;&gt;Node4</title>
<path fill="none" stroke="midnightblue" d="M483.15,-224.08C481.3,-216.93 478.63,-206.64 476.31,-197.69"/>
<polygon fill="midnightblue" stroke="midnightblue" points="479.63,-196.55 473.73,-187.75 472.85,-198.31 479.63,-196.55"/>
</g>
<!-- Node37&#45;&gt;Node6 -->
<g id="edge74" class="edge">
<title>Node37&#45;&gt;Node6</title>
<path fill="none" stroke="midnightblue" d="M491.52,-224.22C501.84,-209.99 524.3,-182.03 550.46,-168 552.47,-166.92 667.57,-143.99 731.59,-131.29"/>
<polygon fill="midnightblue" stroke="midnightblue" points="732.28,-134.73 741.4,-129.35 730.91,-127.86 732.28,-134.73"/>
</g>
<!-- Node37&#45;&gt;Node15 -->
<g id="edge75" class="edge">
<title>Node37&#45;&gt;Node15</title>
<path fill="none" stroke="midnightblue" d="M466.29,-224.44C446.55,-215.64 415.58,-201.81 392.97,-191.72"/>
<polygon fill="midnightblue" stroke="midnightblue" points="394.1,-188.4 383.55,-187.52 391.25,-194.79 394.1,-188.4"/>
</g>
<!-- Node38&#45;&gt;Node4 -->
<g id="edge79" class="edge">
<title>Node38&#45;&gt;Node4</title>
<path fill="none" stroke="midnightblue" d="M332.62,-280.48C311.76,-268.16 279.48,-244.59 295.46,-224 304.06,-212.92 385.66,-195.52 434.68,-185.92"/>
<polygon fill="midnightblue" stroke="midnightblue" points="435.45,-189.34 444.6,-184 434.12,-182.47 435.45,-189.34"/>
</g>
<!-- Node39 -->
<g id="node39" class="node">
<title>Node39</title>
<g id="a_node39"><a xlink:href="mxthemeicons_8h.html" target="_top" xlink:title=" ">
<polygon fill="none" stroke="black" points="304.96,-224.5 304.96,-243.5 391.96,-243.5 391.96,-224.5 304.96,-224.5"/>
<text text-anchor="middle" x="348.46" y="-231.5" font-family="Helvetica,sans-Serif" font-size="10.00">mxthemeicons.h</text>
</a>
</g>
</g>
<!-- Node38&#45;&gt;Node39 -->
<g id="edge78" class="edge">
<title>Node38&#45;&gt;Node39</title>
<path fill="none" stroke="midnightblue" d="M348.46,-280.08C348.46,-273.01 348.46,-262.86 348.46,-253.99"/>
<polygon fill="midnightblue" stroke="midnightblue" points="351.96,-253.75 348.46,-243.75 344.96,-253.75 351.96,-253.75"/>
</g>
<!-- Node40&#45;&gt;Node21 -->
<g id="edge81" class="edge">
<title>Node40&#45;&gt;Node21</title>
<path fill="none" stroke="midnightblue" d="M634.6,-280.32C648.33,-271.9 669.4,-258.97 685.53,-249.07"/>
<polygon fill="midnightblue" stroke="midnightblue" points="687.67,-251.87 694.36,-243.65 684.01,-245.9 687.67,-251.87"/>
</g>
<!-- Node41&#45;&gt;Node6 -->
<g id="edge84" class="edge">
<title>Node41&#45;&gt;Node6</title>
<path fill="none" stroke="midnightblue" d="M797.04,-392.1C792.46,-362.94 778.12,-267.54 773.46,-188 772.56,-172.49 772.63,-154.86 772.88,-141.88"/>
<polygon fill="midnightblue" stroke="midnightblue" points="776.38,-141.93 773.14,-131.84 769.38,-141.75 776.38,-141.93"/>
</g>
</g>
</svg>
