<?xml version="1.0" encoding="UTF-8" standalone="no"?>
<!DOCTYPE svg PUBLIC "-//W3C//DTD SVG 1.1//EN"
 "http://www.w3.org/Graphics/SVG/1.1/DTD/svg11.dtd">
<!-- Generated by graphviz version 2.44.0 ()
 -->
<!-- Title: src/geometry/mxmatrix.h Pages: 1 -->
<svg width="846pt" height="229pt"
 viewBox="0.00 0.00 845.50 229.00" xmlns="http://www.w3.org/2000/svg" xmlns:xlink="http://www.w3.org/1999/xlink">
<g id="graph0" class="graph" transform="scale(1 1) rotate(0) translate(4 225)">
<title>src/geometry/mxmatrix.h</title>
<!-- Node1 -->
<g id="node1" class="node">
<title>Node1</title>
<g id="a_node1"><a xlink:title=" ">
<polygon fill="#bfbfbf" stroke="black" points="347.5,-201.5 347.5,-220.5 469.5,-220.5 469.5,-201.5 347.5,-201.5"/>
<text text-anchor="middle" x="408.5" y="-208.5" font-family="Helvetica,sans-Serif" font-size="10.00">src/geometry/mxmatrix.h</text>
</a>
</g>
</g>
<!-- Node2 -->
<g id="node2" class="node">
<title>Node2</title>
<g id="a_node2"><a xlink:href="mxcolorwheelprogram_8h.html" target="_top" xlink:title=" ">
<polygon fill="none" stroke="black" points="109.5,-134.5 109.5,-164.5 315.5,-164.5 315.5,-134.5 109.5,-134.5"/>
<text text-anchor="start" x="117.5" y="-152.5" font-family="Helvetica,sans-Serif" font-size="10.00">src/renderer/opengl</text>
<text text-anchor="middle" x="212.5" y="-141.5" font-family="Helvetica,sans-Serif" font-size="10.00">/colorwheelprogram/mxcolorwheelprogram.h</text>
</a>
</g>
</g>
<!-- Node1&#45;&gt;Node2 -->
<g id="edge1" class="edge">
<title>Node1&#45;&gt;Node2</title>
<path fill="none" stroke="midnightblue" d="M370.56,-198.48C338.61,-188.78 292.78,-174.87 258.69,-164.52"/>
<polygon fill="midnightblue" stroke="midnightblue" points="369.83,-201.92 380.42,-201.48 371.87,-195.22 369.83,-201.92"/>
</g>
<!-- Node8 -->
<g id="node8" class="node">
<title>Node8</title>
<g id="a_node8"><a xlink:href="mxiconprogram_8h.html" target="_top" xlink:title=" ">
<polygon fill="none" stroke="black" points="334,-134.5 334,-164.5 483,-164.5 483,-134.5 334,-134.5"/>
<text text-anchor="start" x="342" y="-152.5" font-family="Helvetica,sans-Serif" font-size="10.00">src/renderer/opengl</text>
<text text-anchor="middle" x="408.5" y="-141.5" font-family="Helvetica,sans-Serif" font-size="10.00">/iconprogram/mxiconprogram.h</text>
</a>
</g>
</g>
<!-- Node1&#45;&gt;Node8 -->
<g id="edge7" class="edge">
<title>Node1&#45;&gt;Node8</title>
<path fill="none" stroke="midnightblue" d="M408.5,-191.23C408.5,-182.59 408.5,-172.5 408.5,-164.52"/>
<polygon fill="midnightblue" stroke="midnightblue" points="405,-191.48 408.5,-201.48 412,-191.48 405,-191.48"/>
</g>
<!-- Node11 -->
<g id="node11" class="node">
<title>Node11</title>
<g id="a_node11"><a xlink:href="mxvectorprogram_8h.html" target="_top" xlink:title=" ">
<polygon fill="none" stroke="black" points="501,-134.5 501,-164.5 668,-164.5 668,-134.5 501,-134.5"/>
<text text-anchor="start" x="509" y="-152.5" font-family="Helvetica,sans-Serif" font-size="10.00">src/renderer/opengl</text>
<text text-anchor="middle" x="584.5" y="-141.5" font-family="Helvetica,sans-Serif" font-size="10.00">/vectorprogram/mxvectorprogram.h</text>
</a>
</g>
</g>
<!-- Node1&#45;&gt;Node11 -->
<g id="edge11" class="edge">
<title>Node1&#45;&gt;Node11</title>
<path fill="none" stroke="midnightblue" d="M443.31,-198.23C471.97,-188.54 512.68,-174.78 543.02,-164.52"/>
<polygon fill="midnightblue" stroke="midnightblue" points="442.07,-194.96 433.72,-201.48 444.31,-201.59 442.07,-194.96"/>
</g>
<!-- Node3 -->
<g id="node3" class="node">
<title>Node3</title>
<g id="a_node3"><a xlink:href="mxcolorwheelprogram_8cpp.html" target="_top" xlink:title=" ">
<polygon fill="none" stroke="black" points="0,-67.5 0,-97.5 217,-97.5 217,-67.5 0,-67.5"/>
<text text-anchor="start" x="8" y="-85.5" font-family="Helvetica,sans-Serif" font-size="10.00">src/renderer/opengl</text>
<text text-anchor="middle" x="108.5" y="-74.5" font-family="Helvetica,sans-Serif" font-size="10.00">/colorwheelprogram/mxcolorwheelprogram.cpp</text>
</a>
</g>
</g>
<!-- Node2&#45;&gt;Node3 -->
<g id="edge2" class="edge">
<title>Node2&#45;&gt;Node3</title>
<path fill="none" stroke="midnightblue" d="M181.32,-129.02C165.14,-118.9 145.73,-106.77 131.02,-97.58"/>
<polygon fill="midnightblue" stroke="midnightblue" points="179.6,-132.06 189.93,-134.4 183.31,-126.13 179.6,-132.06"/>
</g>
<!-- Node4 -->
<g id="node4" class="node">
<title>Node4</title>
<g id="a_node4"><a xlink:href="opengl_2mxrenderer_8h.html" target="_top" xlink:title=" ">
<polygon fill="none" stroke="black" points="235.5,-67.5 235.5,-97.5 335.5,-97.5 335.5,-67.5 235.5,-67.5"/>
<text text-anchor="start" x="243.5" y="-85.5" font-family="Helvetica,sans-Serif" font-size="10.00">src/renderer/opengl</text>
<text text-anchor="middle" x="285.5" y="-74.5" font-family="Helvetica,sans-Serif" font-size="10.00">/mxrenderer.h</text>
</a>
</g>
</g>
<!-- Node2&#45;&gt;Node4 -->
<g id="edge3" class="edge">
<title>Node2&#45;&gt;Node4</title>
<path fill="none" stroke="midnightblue" d="M235.97,-127.6C247,-117.78 259.84,-106.34 269.69,-97.58"/>
<polygon fill="midnightblue" stroke="midnightblue" points="233.48,-125.13 228.34,-134.4 238.14,-130.36 233.48,-125.13"/>
</g>
<!-- Node5 -->
<g id="node5" class="node">
<title>Node5</title>
<g id="a_node5"><a xlink:href="opengl_2mxgpuarray_8cpp.html" target="_top" xlink:title=" ">
<polygon fill="none" stroke="black" points="117.5,-0.5 117.5,-30.5 217.5,-30.5 217.5,-0.5 117.5,-0.5"/>
<text text-anchor="start" x="125.5" y="-18.5" font-family="Helvetica,sans-Serif" font-size="10.00">src/renderer/opengl</text>
<text text-anchor="middle" x="167.5" y="-7.5" font-family="Helvetica,sans-Serif" font-size="10.00">/mxgpuarray.cpp</text>
</a>
</g>
</g>
<!-- Node4&#45;&gt;Node5 -->
<g id="edge4" class="edge">
<title>Node4&#45;&gt;Node5</title>
<path fill="none" stroke="midnightblue" d="M250.89,-62.44C232.38,-52.24 209.98,-39.9 193.05,-30.58"/>
<polygon fill="midnightblue" stroke="midnightblue" points="249.45,-65.64 259.9,-67.4 252.83,-59.51 249.45,-65.64"/>
</g>
<!-- Node6 -->
<g id="node6" class="node">
<title>Node6</title>
<g id="a_node6"><a xlink:href="opengl_2mxrenderer_8cpp.html" target="_top" xlink:title=" ">
<polygon fill="none" stroke="black" points="235.5,-0.5 235.5,-30.5 335.5,-30.5 335.5,-0.5 235.5,-0.5"/>
<text text-anchor="start" x="243.5" y="-18.5" font-family="Helvetica,sans-Serif" font-size="10.00">src/renderer/opengl</text>
<text text-anchor="middle" x="285.5" y="-7.5" font-family="Helvetica,sans-Serif" font-size="10.00">/mxrenderer.cpp</text>
</a>
</g>
</g>
<!-- Node4&#45;&gt;Node6 -->
<g id="edge5" class="edge">
<title>Node4&#45;&gt;Node6</title>
<path fill="none" stroke="midnightblue" d="M285.5,-57.11C285.5,-48.15 285.5,-38.32 285.5,-30.58"/>
<polygon fill="midnightblue" stroke="midnightblue" points="282,-57.4 285.5,-67.4 289,-57.4 282,-57.4"/>
</g>
<!-- Node7 -->
<g id="node7" class="node">
<title>Node7</title>
<g id="a_node7"><a xlink:href="mxshaderprogram_8cpp.html" target="_top" xlink:title=" ">
<polygon fill="none" stroke="black" points="354,-0.5 354,-30.5 469,-30.5 469,-0.5 354,-0.5"/>
<text text-anchor="start" x="362" y="-18.5" font-family="Helvetica,sans-Serif" font-size="10.00">src/renderer/opengl</text>
<text text-anchor="middle" x="411.5" y="-7.5" font-family="Helvetica,sans-Serif" font-size="10.00">/mxshaderprogram.cpp</text>
</a>
</g>
</g>
<!-- Node4&#45;&gt;Node7 -->
<g id="edge6" class="edge">
<title>Node4&#45;&gt;Node7</title>
<path fill="none" stroke="midnightblue" d="M321.92,-62.71C341.79,-52.46 365.98,-39.98 384.21,-30.58"/>
<polygon fill="midnightblue" stroke="midnightblue" points="320.12,-59.7 312.84,-67.4 323.33,-65.92 320.12,-59.7"/>
</g>
<!-- Node8&#45;&gt;Node4 -->
<g id="edge10" class="edge">
<title>Node8&#45;&gt;Node4</title>
<path fill="none" stroke="midnightblue" d="M372.95,-129.71C353.55,-119.46 329.94,-106.98 312.14,-97.58"/>
<polygon fill="midnightblue" stroke="midnightblue" points="371.33,-132.82 381.81,-134.4 374.6,-126.63 371.33,-132.82"/>
</g>
<!-- Node9 -->
<g id="node9" class="node">
<title>Node9</title>
<g id="a_node9"><a xlink:href="mxpainter_8cpp.html" target="_top" xlink:title=" ">
<polygon fill="none" stroke="black" points="354,-73 354,-92 463,-92 463,-73 354,-73"/>
<text text-anchor="middle" x="408.5" y="-80" font-family="Helvetica,sans-Serif" font-size="10.00">src/gui/mxpainter.cpp</text>
</a>
</g>
</g>
<!-- Node8&#45;&gt;Node9 -->
<g id="edge8" class="edge">
<title>Node8&#45;&gt;Node9</title>
<path fill="none" stroke="midnightblue" d="M408.5,-124.25C408.5,-113.02 408.5,-100.38 408.5,-92.19"/>
<polygon fill="midnightblue" stroke="midnightblue" points="405,-124.4 408.5,-134.4 412,-124.4 405,-124.4"/>
</g>
<!-- Node10 -->
<g id="node10" class="node">
<title>Node10</title>
<g id="a_node10"><a xlink:href="mxiconprogram_8cpp.html" target="_top" xlink:title=" ">
<polygon fill="none" stroke="black" points="481.5,-67.5 481.5,-97.5 641.5,-97.5 641.5,-67.5 481.5,-67.5"/>
<text text-anchor="start" x="489.5" y="-85.5" font-family="Helvetica,sans-Serif" font-size="10.00">src/renderer/opengl</text>
<text text-anchor="middle" x="561.5" y="-74.5" font-family="Helvetica,sans-Serif" font-size="10.00">/iconprogram/mxiconprogram.cpp</text>
</a>
</g>
</g>
<!-- Node8&#45;&gt;Node10 -->
<g id="edge9" class="edge">
<title>Node8&#45;&gt;Node10</title>
<path fill="none" stroke="midnightblue" d="M451.09,-130.41C475.52,-120.03 505.72,-107.2 528.37,-97.58"/>
<polygon fill="midnightblue" stroke="midnightblue" points="449.53,-127.26 441.7,-134.4 452.27,-133.71 449.53,-127.26"/>
</g>
<!-- Node11&#45;&gt;Node4 -->
<g id="edge12" class="edge">
<title>Node11&#45;&gt;Node4</title>
<path fill="none" stroke="midnightblue" d="M504.72,-132.41C457.95,-122.81 397.78,-110.15 344.5,-98 341.62,-97.34 338.67,-96.66 335.68,-95.96"/>
<polygon fill="midnightblue" stroke="midnightblue" points="504.29,-135.9 514.79,-134.48 505.69,-129.04 504.29,-135.9"/>
</g>
<!-- Node12 -->
<g id="node12" class="node">
<title>Node12</title>
<g id="a_node12"><a xlink:href="mxvectorprogram_8cpp.html" target="_top" xlink:title=" ">
<polygon fill="none" stroke="black" points="659.5,-67.5 659.5,-97.5 837.5,-97.5 837.5,-67.5 659.5,-67.5"/>
<text text-anchor="start" x="667.5" y="-85.5" font-family="Helvetica,sans-Serif" font-size="10.00">src/renderer/opengl</text>
<text text-anchor="middle" x="748.5" y="-74.5" font-family="Helvetica,sans-Serif" font-size="10.00">/vectorprogram/mxvectorprogram.cpp</text>
</a>
</g>
</g>
<!-- Node11&#45;&gt;Node12 -->
<g id="edge13" class="edge">
<title>Node11&#45;&gt;Node12</title>
<path fill="none" stroke="midnightblue" d="M629.46,-130.68C655.76,-120.26 688.5,-107.28 712.98,-97.58"/>
<polygon fill="midnightblue" stroke="midnightblue" points="628.09,-127.46 620.09,-134.4 630.67,-133.97 628.09,-127.46"/>
</g>
</g>
</svg>
