<?xml version="1.0" encoding="UTF-8" standalone="no"?>
<!DOCTYPE svg PUBLIC "-//W3C//DTD SVG 1.1//EN"
 "http://www.w3.org/Graphics/SVG/1.1/DTD/svg11.dtd">
<!-- Generated by graphviz version 2.44.0 ()
 -->
<!-- Title: src/geometry/mxmatrix.h Pages: 1 -->
<svg width="131pt" height="140pt"
 viewBox="0.00 0.00 131.00 140.00" xmlns="http://www.w3.org/2000/svg" xmlns:xlink="http://www.w3.org/1999/xlink">
<g id="graph0" class="graph" transform="scale(1 1) rotate(0) translate(4 136)">
<title>src/geometry/mxmatrix.h</title>
<!-- Node1 -->
<g id="node1" class="node">
<title>Node1</title>
<g id="a_node1"><a xlink:title=" ">
<polygon fill="#bfbfbf" stroke="black" points="0,-112.5 0,-131.5 122,-131.5 122,-112.5 0,-112.5"/>
<text text-anchor="middle" x="61" y="-119.5" font-family="Helvetica,sans-Serif" font-size="10.00">src/geometry/mxmatrix.h</text>
</a>
</g>
</g>
<!-- Node2 -->
<g id="node2" class="node">
<title>Node2</title>
<g id="a_node2"><a xlink:title=" ">
<polygon fill="none" stroke="#bfbfbf" points="29.5,-0.5 29.5,-19.5 92.5,-19.5 92.5,-0.5 29.5,-0.5"/>
<text text-anchor="middle" x="61" y="-7.5" font-family="Helvetica,sans-Serif" font-size="10.00">mxdebug.h</text>
</a>
</g>
</g>
<!-- Node1&#45;&gt;Node2 -->
<g id="edge1" class="edge">
<title>Node1&#45;&gt;Node2</title>
<path fill="none" stroke="midnightblue" d="M58.27,-112.49C55.55,-103.52 51.56,-88.94 50,-76 48.1,-60.2 51.51,-42.38 55.02,-29.41"/>
<polygon fill="midnightblue" stroke="midnightblue" points="58.38,-30.38 57.88,-19.79 51.67,-28.38 58.38,-30.38"/>
</g>
<!-- Node3 -->
<g id="node3" class="node">
<title>Node3</title>
<g id="a_node3"><a xlink:href="mxvector_8h.html" target="_top" xlink:title=" ">
<polygon fill="none" stroke="black" points="59,-56.5 59,-75.5 123,-75.5 123,-56.5 59,-56.5"/>
<text text-anchor="middle" x="91" y="-63.5" font-family="Helvetica,sans-Serif" font-size="10.00">mxvector.h</text>
</a>
</g>
</g>
<!-- Node1&#45;&gt;Node3 -->
<g id="edge2" class="edge">
<title>Node1&#45;&gt;Node3</title>
<path fill="none" stroke="midnightblue" d="M65.95,-112.08C70.1,-104.61 76.15,-93.72 81.27,-84.52"/>
<polygon fill="midnightblue" stroke="midnightblue" points="84.34,-86.19 86.14,-75.75 78.22,-82.79 84.34,-86.19"/>
</g>
<!-- Node3&#45;&gt;Node2 -->
<g id="edge3" class="edge">
<title>Node3&#45;&gt;Node2</title>
<path fill="none" stroke="midnightblue" d="M86.05,-56.08C81.9,-48.61 75.85,-37.72 70.73,-28.52"/>
<polygon fill="midnightblue" stroke="midnightblue" points="73.78,-26.79 65.86,-19.75 67.66,-30.19 73.78,-26.79"/>
</g>
</g>
</svg>
