<?xml version="1.0" encoding="UTF-8" standalone="no"?>
<!DOCTYPE svg PUBLIC "-//W3C//DTD SVG 1.1//EN"
 "http://www.w3.org/Graphics/SVG/1.1/DTD/svg11.dtd">
<!-- Generated by graphviz version 2.44.0 ()
 -->
<!-- Title: src/geometry/mxmatrix.h Pages: 1 -->
<svg width="1903pt" height="330pt"
 viewBox="0.00 0.00 1902.50 330.00" xmlns="http://www.w3.org/2000/svg" xmlns:xlink="http://www.w3.org/1999/xlink">
<g id="graph0" class="graph" transform="scale(1 1) rotate(0) translate(4 326)">
<title>src/geometry/mxmatrix.h</title>
<!-- Node1 -->
<g id="node1" class="node">
<title>Node1</title>
<g id="a_node1"><a xlink:title=" ">
<polygon fill="#bfbfbf" stroke="black" points="401.5,-302.5 401.5,-321.5 523.5,-321.5 523.5,-302.5 401.5,-302.5"/>
<text text-anchor="middle" x="462.5" y="-309.5" font-family="Helvetica,sans-Serif" font-size="10.00">src/geometry/mxmatrix.h</text>
</a>
</g>
</g>
<!-- Node2 -->
<g id="node2" class="node">
<title>Node2</title>
<g id="a_node2"><a xlink:href="mxmatrix_8cpp.html" target="_top" xlink:title=" ">
<polygon fill="none" stroke="black" points="12,-241 12,-260 145,-260 145,-241 12,-241"/>
<text text-anchor="middle" x="78.5" y="-248" font-family="Helvetica,sans-Serif" font-size="10.00">src/geometry/mxmatrix.cpp</text>
</a>
</g>
</g>
<!-- Node1&#45;&gt;Node2 -->
<g id="edge1" class="edge">
<title>Node1&#45;&gt;Node2</title>
<path fill="none" stroke="midnightblue" d="M391.16,-301.47C328.65,-292.91 235.39,-279.62 154.5,-266 143.77,-264.19 132.22,-262.08 121.45,-260.03"/>
<polygon fill="midnightblue" stroke="midnightblue" points="390.93,-304.97 401.31,-302.86 391.87,-298.04 390.93,-304.97"/>
</g>
<!-- Node3 -->
<g id="node3" class="node">
<title>Node3</title>
<g id="a_node3"><a xlink:href="mxcolorwheelprogram_8h.html" target="_top" xlink:title=" ">
<polygon fill="none" stroke="black" points="163.5,-235.5 163.5,-265.5 369.5,-265.5 369.5,-235.5 163.5,-235.5"/>
<text text-anchor="start" x="171.5" y="-253.5" font-family="Helvetica,sans-Serif" font-size="10.00">src/renderer/opengl</text>
<text text-anchor="middle" x="266.5" y="-242.5" font-family="Helvetica,sans-Serif" font-size="10.00">/colorwheelprogram/mxcolorwheelprogram.h</text>
</a>
</g>
</g>
<!-- Node1&#45;&gt;Node3 -->
<g id="edge2" class="edge">
<title>Node1&#45;&gt;Node3</title>
<path fill="none" stroke="midnightblue" d="M424.56,-299.48C392.61,-289.78 346.78,-275.87 312.69,-265.52"/>
<polygon fill="midnightblue" stroke="midnightblue" points="423.83,-302.92 434.42,-302.48 425.87,-296.22 423.83,-302.92"/>
</g>
<!-- Node5 -->
<g id="node5" class="node">
<title>Node5</title>
<g id="a_node5"><a xlink:href="mxiconprogram_8h.html" target="_top" xlink:title=" ">
<polygon fill="none" stroke="black" points="388,-235.5 388,-265.5 537,-265.5 537,-235.5 388,-235.5"/>
<text text-anchor="start" x="396" y="-253.5" font-family="Helvetica,sans-Serif" font-size="10.00">src/renderer/opengl</text>
<text text-anchor="middle" x="462.5" y="-242.5" font-family="Helvetica,sans-Serif" font-size="10.00">/iconprogram/mxiconprogram.h</text>
</a>
</g>
</g>
<!-- Node1&#45;&gt;Node5 -->
<g id="edge4" class="edge">
<title>Node1&#45;&gt;Node5</title>
<path fill="none" stroke="midnightblue" d="M462.5,-292.23C462.5,-283.59 462.5,-273.5 462.5,-265.52"/>
<polygon fill="midnightblue" stroke="midnightblue" points="459,-292.48 462.5,-302.48 466,-292.48 459,-292.48"/>
</g>
<!-- Node19 -->
<g id="node19" class="node">
<title>Node19</title>
<g id="a_node19"><a xlink:href="mxrenderer_8h.html" target="_top" xlink:title=" ">
<polygon fill="none" stroke="black" points="997.5,-235.5 997.5,-265.5 1097.5,-265.5 1097.5,-235.5 997.5,-235.5"/>
<text text-anchor="start" x="1005.5" y="-253.5" font-family="Helvetica,sans-Serif" font-size="10.00">src/renderer/opengl</text>
<text text-anchor="middle" x="1047.5" y="-242.5" font-family="Helvetica,sans-Serif" font-size="10.00">/mxrenderer.h</text>
</a>
</g>
</g>
<!-- Node1&#45;&gt;Node19 -->
<g id="edge19" class="edge">
<title>Node1&#45;&gt;Node19</title>
<path fill="none" stroke="midnightblue" d="M533.91,-303.74C653.96,-291.53 893.29,-267.18 997.3,-256.61"/>
<polygon fill="midnightblue" stroke="midnightblue" points="533.32,-300.28 523.72,-304.77 534.03,-307.24 533.32,-300.28"/>
</g>
<!-- Node30 -->
<g id="node30" class="node">
<title>Node30</title>
<g id="a_node30"><a xlink:href="mxvectorprogram_8h.html" target="_top" xlink:title=" ">
<polygon fill="none" stroke="black" points="555,-235.5 555,-265.5 722,-265.5 722,-235.5 555,-235.5"/>
<text text-anchor="start" x="563" y="-253.5" font-family="Helvetica,sans-Serif" font-size="10.00">src/renderer/opengl</text>
<text text-anchor="middle" x="638.5" y="-242.5" font-family="Helvetica,sans-Serif" font-size="10.00">/vectorprogram/mxvectorprogram.h</text>
</a>
</g>
</g>
<!-- Node1&#45;&gt;Node30 -->
<g id="edge34" class="edge">
<title>Node1&#45;&gt;Node30</title>
<path fill="none" stroke="midnightblue" d="M497.31,-299.23C525.97,-289.54 566.68,-275.78 597.02,-265.52"/>
<polygon fill="midnightblue" stroke="midnightblue" points="496.07,-295.96 487.72,-302.48 498.31,-302.59 496.07,-295.96"/>
</g>
<!-- Node4 -->
<g id="node4" class="node">
<title>Node4</title>
<g id="a_node4"><a xlink:href="mxcolorwheelprogram_8cpp.html" target="_top" xlink:title=" ">
<polygon fill="none" stroke="black" points="79,-168.5 79,-198.5 296,-198.5 296,-168.5 79,-168.5"/>
<text text-anchor="start" x="87" y="-186.5" font-family="Helvetica,sans-Serif" font-size="10.00">src/renderer/opengl</text>
<text text-anchor="middle" x="187.5" y="-175.5" font-family="Helvetica,sans-Serif" font-size="10.00">/colorwheelprogram/mxcolorwheelprogram.cpp</text>
</a>
</g>
</g>
<!-- Node3&#45;&gt;Node4 -->
<g id="edge3" class="edge">
<title>Node3&#45;&gt;Node4</title>
<path fill="none" stroke="midnightblue" d="M241.44,-228.88C229.44,-219.01 215.37,-207.43 204.61,-198.58"/>
<polygon fill="midnightblue" stroke="midnightblue" points="239.41,-231.75 249.36,-235.4 243.86,-226.34 239.41,-231.75"/>
</g>
<!-- Node6 -->
<g id="node6" class="node">
<title>Node6</title>
<g id="a_node6"><a xlink:href="mxguirenderer_8h.html" target="_top" xlink:title=" ">
<polygon fill="none" stroke="black" points="493,-174 493,-193 610,-193 610,-174 493,-174"/>
<text text-anchor="middle" x="551.5" y="-181" font-family="Helvetica,sans-Serif" font-size="10.00">src/gui/mxguirenderer.h</text>
</a>
</g>
</g>
<!-- Node5&#45;&gt;Node6 -->
<g id="edge5" class="edge">
<title>Node5&#45;&gt;Node6</title>
<path fill="none" stroke="midnightblue" d="M490.15,-229.31C506.86,-217.1 527.3,-202.18 539.85,-193.01"/>
<polygon fill="midnightblue" stroke="midnightblue" points="487.82,-226.67 481.81,-235.4 491.95,-232.32 487.82,-226.67"/>
</g>
<!-- Node18 -->
<g id="node18" class="node">
<title>Node18</title>
<g id="a_node18"><a xlink:href="mxiconprogram_8cpp.html" target="_top" xlink:title=" ">
<polygon fill="none" stroke="black" points="314.5,-168.5 314.5,-198.5 474.5,-198.5 474.5,-168.5 314.5,-168.5"/>
<text text-anchor="start" x="322.5" y="-186.5" font-family="Helvetica,sans-Serif" font-size="10.00">src/renderer/opengl</text>
<text text-anchor="middle" x="394.5" y="-175.5" font-family="Helvetica,sans-Serif" font-size="10.00">/iconprogram/mxiconprogram.cpp</text>
</a>
</g>
</g>
<!-- Node5&#45;&gt;Node18 -->
<g id="edge18" class="edge">
<title>Node5&#45;&gt;Node18</title>
<path fill="none" stroke="midnightblue" d="M440.33,-228.31C430.13,-218.56 418.31,-207.26 409.23,-198.58"/>
<polygon fill="midnightblue" stroke="midnightblue" points="438.1,-231.02 447.75,-235.4 442.93,-225.96 438.1,-231.02"/>
</g>
<!-- Node7 -->
<g id="node7" class="node">
<title>Node7</title>
<g id="a_node7"><a xlink:href="mxapplication_8h.html" target="_top" xlink:title=" ">
<polygon fill="none" stroke="black" points="489.5,-112.5 489.5,-131.5 621.5,-131.5 621.5,-112.5 489.5,-112.5"/>
<text text-anchor="middle" x="555.5" y="-119.5" font-family="Helvetica,sans-Serif" font-size="10.00">src/events/mxapplication.h</text>
</a>
</g>
</g>
<!-- Node6&#45;&gt;Node7 -->
<g id="edge6" class="edge">
<title>Node6&#45;&gt;Node7</title>
<path fill="none" stroke="midnightblue" d="M552.76,-163.82C553.48,-153 554.36,-139.9 554.93,-131.51"/>
<polygon fill="midnightblue" stroke="midnightblue" points="549.25,-163.76 552.07,-173.98 556.24,-164.23 549.25,-163.76"/>
</g>
<!-- Node14 -->
<g id="node14" class="node">
<title>Node14</title>
<g id="a_node14"><a xlink:href="mxguirenderer_8cpp.html" target="_top" xlink:title=" ">
<polygon fill="none" stroke="black" points="149.5,-112.5 149.5,-131.5 277.5,-131.5 277.5,-112.5 149.5,-112.5"/>
<text text-anchor="middle" x="213.5" y="-119.5" font-family="Helvetica,sans-Serif" font-size="10.00">src/gui/mxguirenderer.cpp</text>
</a>
</g>
</g>
<!-- Node6&#45;&gt;Node14 -->
<g id="edge14" class="edge">
<title>Node6&#45;&gt;Node14</title>
<path fill="none" stroke="midnightblue" d="M502.95,-171.87C496.42,-170.52 489.8,-169.2 483.5,-168 409.62,-153.97 323.9,-140.09 269.22,-131.54"/>
<polygon fill="midnightblue" stroke="midnightblue" points="502.58,-175.37 513.08,-173.99 504.01,-168.52 502.58,-175.37"/>
</g>
<!-- Node15 -->
<g id="node15" class="node">
<title>Node15</title>
<g id="a_node15"><a xlink:href="mxpainter_8cpp.html" target="_top" xlink:title=" ">
<polygon fill="none" stroke="black" points="640,-112.5 640,-131.5 749,-131.5 749,-112.5 640,-112.5"/>
<text text-anchor="middle" x="694.5" y="-119.5" font-family="Helvetica,sans-Serif" font-size="10.00">src/gui/mxpainter.cpp</text>
</a>
</g>
</g>
<!-- Node6&#45;&gt;Node15 -->
<g id="edge15" class="edge">
<title>Node6&#45;&gt;Node15</title>
<path fill="none" stroke="midnightblue" d="M581.23,-170.13C609.01,-158.57 649.75,-141.62 674.05,-131.51"/>
<polygon fill="midnightblue" stroke="midnightblue" points="579.88,-166.9 571.99,-173.98 582.57,-173.36 579.88,-166.9"/>
</g>
<!-- Node16 -->
<g id="node16" class="node">
<title>Node16</title>
<g id="a_node16"><a xlink:href="qmewapluginwindow_8h.html" target="_top" xlink:title=" ">
<polygon fill="none" stroke="black" points="296,-112.5 296,-131.5 471,-131.5 471,-112.5 296,-112.5"/>
<text text-anchor="middle" x="383.5" y="-119.5" font-family="Helvetica,sans-Serif" font-size="10.00">src/pluginsdk/qmewapluginwindow.h</text>
</a>
</g>
</g>
<!-- Node6&#45;&gt;Node16 -->
<g id="edge16" class="edge">
<title>Node6&#45;&gt;Node16</title>
<path fill="none" stroke="midnightblue" d="M517.85,-170.58C485.2,-159.02 436.45,-141.75 407.53,-131.51"/>
<polygon fill="midnightblue" stroke="midnightblue" points="516.83,-173.94 527.43,-173.98 519.17,-167.34 516.83,-173.94"/>
</g>
<!-- Node8 -->
<g id="node8" class="node">
<title>Node8</title>
<g id="a_node8"><a xlink:href="mxapplication_8cpp.html" target="_top" xlink:title=" ">
<polygon fill="none" stroke="black" points="652,-56.5 652,-75.5 795,-75.5 795,-56.5 652,-56.5"/>
<text text-anchor="middle" x="723.5" y="-63.5" font-family="Helvetica,sans-Serif" font-size="10.00">src/events/mxapplication.cpp</text>
</a>
</g>
</g>
<!-- Node7&#45;&gt;Node8 -->
<g id="edge7" class="edge">
<title>Node7&#45;&gt;Node8</title>
<path fill="none" stroke="midnightblue" d="M591.89,-109.3C623.54,-99.13 668.67,-84.62 697,-75.52"/>
<polygon fill="midnightblue" stroke="midnightblue" points="590.57,-106.05 582.12,-112.44 592.71,-112.72 590.57,-106.05"/>
</g>
<!-- Node9 -->
<g id="node9" class="node">
<title>Node9</title>
<g id="a_node9"><a xlink:href="qmewawindow_8cpp.html" target="_top" xlink:title=" ">
<polygon fill="none" stroke="black" points="794,-0.5 794,-19.5 959,-19.5 959,-0.5 794,-0.5"/>
<text text-anchor="middle" x="876.5" y="-7.5" font-family="Helvetica,sans-Serif" font-size="10.00">src/platform/qt/qmewawindow.cpp</text>
</a>
</g>
</g>
<!-- Node7&#45;&gt;Node9 -->
<g id="edge8" class="edge">
<title>Node7&#45;&gt;Node9</title>
<path fill="none" stroke="midnightblue" d="M631.67,-111.89C693.35,-103.67 774.71,-90.63 804.5,-76 832.61,-62.19 857.88,-34.13 869.6,-19.82"/>
<polygon fill="midnightblue" stroke="midnightblue" points="631.02,-108.45 621.57,-113.22 631.94,-115.39 631.02,-108.45"/>
</g>
<!-- Node10 -->
<g id="node10" class="node">
<title>Node10</title>
<g id="a_node10"><a xlink:href="qmewawindow_8h.html" target="_top" xlink:title=" ">
<polygon fill="none" stroke="black" points="852,-56.5 852,-75.5 1007,-75.5 1007,-56.5 852,-56.5"/>
<text text-anchor="middle" x="929.5" y="-63.5" font-family="Helvetica,sans-Serif" font-size="10.00">src/platform/qt/qmewawindow.h</text>
</a>
</g>
</g>
<!-- Node7&#45;&gt;Node10 -->
<g id="edge9" class="edge">
<title>Node7&#45;&gt;Node10</title>
<path fill="none" stroke="midnightblue" d="M624.9,-110.98C695.55,-100.78 803.88,-85.14 870.52,-75.52"/>
<polygon fill="midnightblue" stroke="midnightblue" points="624.16,-107.55 614.76,-112.44 625.16,-114.48 624.16,-107.55"/>
</g>
<!-- Node11 -->
<g id="node11" class="node">
<title>Node11</title>
<g id="a_node11"><a xlink:href="mxlabel_8cpp.html" target="_top" xlink:title=" ">
<polygon fill="none" stroke="black" points="203,-56.5 203,-75.5 324,-75.5 324,-56.5 203,-56.5"/>
<text text-anchor="middle" x="263.5" y="-63.5" font-family="Helvetica,sans-Serif" font-size="10.00">src/widgets/mxlabel.cpp</text>
</a>
</g>
</g>
<!-- Node7&#45;&gt;Node11 -->
<g id="edge11" class="edge">
<title>Node7&#45;&gt;Node11</title>
<path fill="none" stroke="midnightblue" d="M499.27,-110.6C444.08,-100.4 360.94,-85.02 309.55,-75.52"/>
<polygon fill="midnightblue" stroke="midnightblue" points="498.76,-114.07 509.23,-112.44 500.03,-107.18 498.76,-114.07"/>
</g>
<!-- Node12 -->
<g id="node12" class="node">
<title>Node12</title>
<g id="a_node12"><a xlink:href="mxlineedit_8cpp.html" target="_top" xlink:title=" ">
<polygon fill="none" stroke="black" points="342,-56.5 342,-75.5 473,-75.5 473,-56.5 342,-56.5"/>
<text text-anchor="middle" x="407.5" y="-63.5" font-family="Helvetica,sans-Serif" font-size="10.00">src/widgets/mxlineedit.cpp</text>
</a>
</g>
</g>
<!-- Node7&#45;&gt;Node12 -->
<g id="edge12" class="edge">
<title>Node7&#45;&gt;Node12</title>
<path fill="none" stroke="midnightblue" d="M522.35,-108.91C494.53,-98.75 455.48,-84.51 430.84,-75.52"/>
<polygon fill="midnightblue" stroke="midnightblue" points="521.46,-112.3 532.05,-112.44 523.85,-105.73 521.46,-112.3"/>
</g>
<!-- Node13 -->
<g id="node13" class="node">
<title>Node13</title>
<g id="a_node13"><a xlink:href="mxtextbutton_8cpp.html" target="_top" xlink:title=" ">
<polygon fill="none" stroke="black" points="491,-56.5 491,-75.5 634,-75.5 634,-56.5 491,-56.5"/>
<text text-anchor="middle" x="562.5" y="-63.5" font-family="Helvetica,sans-Serif" font-size="10.00">src/widgets/mxtextbutton.cpp</text>
</a>
</g>
</g>
<!-- Node7&#45;&gt;Node13 -->
<g id="edge13" class="edge">
<title>Node7&#45;&gt;Node13</title>
<path fill="none" stroke="midnightblue" d="M557.95,-102.1C559.11,-93.14 560.44,-82.86 561.37,-75.75"/>
<polygon fill="midnightblue" stroke="midnightblue" points="554.47,-101.72 556.66,-112.08 561.41,-102.62 554.47,-101.72"/>
</g>
<!-- Node10&#45;&gt;Node9 -->
<g id="edge10" class="edge">
<title>Node10&#45;&gt;Node9</title>
<path fill="none" stroke="midnightblue" d="M913.52,-48.72C904.18,-39.2 892.75,-27.56 885.09,-19.75"/>
<polygon fill="midnightblue" stroke="midnightblue" points="911.25,-51.4 920.75,-56.08 916.24,-46.49 911.25,-51.4"/>
</g>
<!-- Node17 -->
<g id="node17" class="node">
<title>Node17</title>
<g id="a_node17"><a xlink:href="qmewapluginwindow_8cpp.html" target="_top" xlink:title=" ">
<polygon fill="none" stroke="black" points="0,-56.5 0,-75.5 185,-75.5 185,-56.5 0,-56.5"/>
<text text-anchor="middle" x="92.5" y="-63.5" font-family="Helvetica,sans-Serif" font-size="10.00">src/pluginsdk/qmewapluginwindow.cpp</text>
</a>
</g>
</g>
<!-- Node16&#45;&gt;Node17 -->
<g id="edge17" class="edge">
<title>Node16&#45;&gt;Node17</title>
<path fill="none" stroke="midnightblue" d="M327.46,-110.6C272.46,-100.4 189.6,-85.02 138.39,-75.52"/>
<polygon fill="midnightblue" stroke="midnightblue" points="326.92,-114.06 337.39,-112.44 328.2,-107.18 326.92,-114.06"/>
</g>
<!-- Node19&#45;&gt;Node4 -->
<g id="edge27" class="edge">
<title>Node19&#45;&gt;Node4</title>
<path fill="none" stroke="midnightblue" d="M987.24,-246.51C860.75,-239.99 558.35,-223.12 305.5,-199 302.42,-198.71 299.29,-198.4 296.14,-198.07"/>
<polygon fill="midnightblue" stroke="midnightblue" points="987.32,-250.02 997.49,-247.04 987.68,-243.03 987.32,-250.02"/>
</g>
<!-- Node19&#45;&gt;Node6 -->
<g id="edge21" class="edge">
<title>Node19&#45;&gt;Node6</title>
<path fill="none" stroke="midnightblue" d="M987.36,-241.85C910.74,-232.07 774.25,-214.54 657.5,-199 642.13,-196.95 625.5,-194.7 610.08,-192.59"/>
<polygon fill="midnightblue" stroke="midnightblue" points="986.95,-245.32 997.31,-243.12 987.83,-238.38 986.95,-245.32"/>
</g>
<!-- Node19&#45;&gt;Node18 -->
<g id="edge28" class="edge">
<title>Node19&#45;&gt;Node18</title>
<path fill="none" stroke="midnightblue" d="M987.06,-245.48C883.8,-238.3 666.9,-221.85 484.5,-199 481.36,-198.61 478.16,-198.19 474.93,-197.75"/>
<polygon fill="midnightblue" stroke="midnightblue" points="987.07,-248.99 997.29,-246.19 987.55,-242 987.07,-248.99"/>
</g>
<!-- Node20 -->
<g id="node20" class="node">
<title>Node20</title>
<g id="a_node20"><a xlink:href="mxstaticfont__image_8cpp.html" target="_top" xlink:title=" ">
<polygon fill="none" stroke="black" points="1132.5,-168.5 1132.5,-198.5 1254.5,-198.5 1254.5,-168.5 1132.5,-168.5"/>
<text text-anchor="start" x="1140.5" y="-186.5" font-family="Helvetica,sans-Serif" font-size="10.00">src/font/staticfont</text>
<text text-anchor="middle" x="1193.5" y="-175.5" font-family="Helvetica,sans-Serif" font-size="10.00">/mxstaticfont_image.cpp</text>
</a>
</g>
</g>
<!-- Node19&#45;&gt;Node20 -->
<g id="edge20" class="edge">
<title>Node19&#45;&gt;Node20</title>
<path fill="none" stroke="midnightblue" d="M1088.45,-231.27C1111.7,-220.92 1140.37,-208.15 1161.88,-198.58"/>
<polygon fill="midnightblue" stroke="midnightblue" points="1086.89,-228.13 1079.18,-235.4 1089.74,-234.53 1086.89,-228.13"/>
</g>
<!-- Node21 -->
<g id="node21" class="node">
<title>Node21</title>
<g id="a_node21"><a xlink:href="mxicondraw_8cpp.html" target="_top" xlink:title=" ">
<polygon fill="none" stroke="black" points="1273,-174 1273,-193 1392,-193 1392,-174 1273,-174"/>
<text text-anchor="middle" x="1332.5" y="-181" font-family="Helvetica,sans-Serif" font-size="10.00">src/gui/mxicondraw.cpp</text>
</a>
</g>
</g>
<!-- Node19&#45;&gt;Node21 -->
<g id="edge22" class="edge">
<title>Node19&#45;&gt;Node21</title>
<path fill="none" stroke="midnightblue" d="M1107.69,-235.77C1164.3,-222.86 1247.26,-203.94 1294.97,-193.06"/>
<polygon fill="midnightblue" stroke="midnightblue" points="1106.77,-232.39 1097.8,-238.03 1108.32,-239.22 1106.77,-232.39"/>
</g>
<!-- Node22 -->
<g id="node22" class="node">
<title>Node22</title>
<g id="a_node22"><a xlink:href="mxvectordraw_8cpp.html" target="_top" xlink:title=" ">
<polygon fill="none" stroke="black" points="1410.5,-174 1410.5,-193 1538.5,-193 1538.5,-174 1410.5,-174"/>
<text text-anchor="middle" x="1474.5" y="-181" font-family="Helvetica,sans-Serif" font-size="10.00">src/gui/mxvectordraw.cpp</text>
</a>
</g>
</g>
<!-- Node19&#45;&gt;Node22 -->
<g id="edge23" class="edge">
<title>Node19&#45;&gt;Node22</title>
<path fill="none" stroke="midnightblue" d="M1107.8,-241.91C1178.38,-232.8 1298.7,-216.53 1401.5,-199 1411.94,-197.22 1423.19,-195.09 1433.65,-193.02"/>
<polygon fill="midnightblue" stroke="midnightblue" points="1107.23,-238.46 1097.76,-243.21 1108.12,-245.4 1107.23,-238.46"/>
</g>
<!-- Node23 -->
<g id="node23" class="node">
<title>Node23</title>
<g id="a_node23"><a xlink:href="mxiconatlas_8h.html" target="_top" xlink:title=" ">
<polygon fill="none" stroke="black" points="980.5,-174 980.5,-193 1114.5,-193 1114.5,-174 980.5,-174"/>
<text text-anchor="middle" x="1047.5" y="-181" font-family="Helvetica,sans-Serif" font-size="10.00">src/iconatlas/mxiconatlas.h</text>
</a>
</g>
</g>
<!-- Node19&#45;&gt;Node23 -->
<g id="edge24" class="edge">
<title>Node19&#45;&gt;Node23</title>
<path fill="none" stroke="midnightblue" d="M1047.5,-225.25C1047.5,-214.02 1047.5,-201.38 1047.5,-193.19"/>
<polygon fill="midnightblue" stroke="midnightblue" points="1044,-225.4 1047.5,-235.4 1051,-225.4 1044,-225.4"/>
</g>
<!-- Node25 -->
<g id="node25" class="node">
<title>Node25</title>
<g id="a_node25"><a xlink:href="mxgpuarray_8cpp.html" target="_top" xlink:title=" ">
<polygon fill="none" stroke="black" points="1556.5,-168.5 1556.5,-198.5 1656.5,-198.5 1656.5,-168.5 1556.5,-168.5"/>
<text text-anchor="start" x="1564.5" y="-186.5" font-family="Helvetica,sans-Serif" font-size="10.00">src/renderer/opengl</text>
<text text-anchor="middle" x="1606.5" y="-175.5" font-family="Helvetica,sans-Serif" font-size="10.00">/mxgpuarray.cpp</text>
</a>
</g>
</g>
<!-- Node19&#45;&gt;Node25 -->
<g id="edge29" class="edge">
<title>Node19&#45;&gt;Node25</title>
<path fill="none" stroke="midnightblue" d="M1108.07,-246.13C1202.49,-240.27 1390.25,-226.13 1547.5,-199 1550.41,-198.5 1553.39,-197.93 1556.39,-197.32"/>
<polygon fill="midnightblue" stroke="midnightblue" points="1107.62,-242.65 1097.85,-246.76 1108.04,-249.64 1107.62,-242.65"/>
</g>
<!-- Node26 -->
<g id="node26" class="node">
<title>Node26</title>
<g id="a_node26"><a xlink:href="mxgpuprogram_8cpp.html" target="_top" xlink:title=" ">
<polygon fill="none" stroke="black" points="1675,-168.5 1675,-198.5 1776,-198.5 1776,-168.5 1675,-168.5"/>
<text text-anchor="start" x="1683" y="-186.5" font-family="Helvetica,sans-Serif" font-size="10.00">src/renderer/opengl</text>
<text text-anchor="middle" x="1725.5" y="-175.5" font-family="Helvetica,sans-Serif" font-size="10.00">/mxgpuprogram.cpp</text>
</a>
</g>
</g>
<!-- Node19&#45;&gt;Node26 -->
<g id="edge30" class="edge">
<title>Node19&#45;&gt;Node26</title>
<path fill="none" stroke="midnightblue" d="M1107.89,-247.68C1218.92,-243.65 1462.71,-231.59 1665.5,-199 1668.57,-198.51 1671.71,-197.94 1674.87,-197.32"/>
<polygon fill="midnightblue" stroke="midnightblue" points="1107.75,-244.18 1097.88,-248.04 1108,-251.18 1107.75,-244.18"/>
</g>
<!-- Node27 -->
<g id="node27" class="node">
<title>Node27</title>
<g id="a_node27"><a xlink:href="mxrenderer_8cpp.html" target="_top" xlink:title=" ">
<polygon fill="none" stroke="black" points="1794.5,-168.5 1794.5,-198.5 1894.5,-198.5 1894.5,-168.5 1794.5,-168.5"/>
<text text-anchor="start" x="1802.5" y="-186.5" font-family="Helvetica,sans-Serif" font-size="10.00">src/renderer/opengl</text>
<text text-anchor="middle" x="1844.5" y="-175.5" font-family="Helvetica,sans-Serif" font-size="10.00">/mxrenderer.cpp</text>
</a>
</g>
</g>
<!-- Node19&#45;&gt;Node27 -->
<g id="edge31" class="edge">
<title>Node19&#45;&gt;Node27</title>
<path fill="none" stroke="midnightblue" d="M1108.21,-248.88C1234.85,-246.82 1536.19,-237.87 1785.5,-199 1788.42,-198.55 1791.4,-198.02 1794.41,-197.43"/>
<polygon fill="midnightblue" stroke="midnightblue" points="1107.89,-245.39 1097.94,-249.04 1108,-252.39 1107.89,-245.39"/>
</g>
<!-- Node28 -->
<g id="node28" class="node">
<title>Node28</title>
<g id="a_node28"><a xlink:href="mxtexture_8cpp.html" target="_top" xlink:title=" ">
<polygon fill="none" stroke="black" points="862.5,-168.5 862.5,-198.5 962.5,-198.5 962.5,-168.5 862.5,-168.5"/>
<text text-anchor="start" x="870.5" y="-186.5" font-family="Helvetica,sans-Serif" font-size="10.00">src/renderer/opengl</text>
<text text-anchor="middle" x="912.5" y="-175.5" font-family="Helvetica,sans-Serif" font-size="10.00">/mxtexture.cpp</text>
</a>
</g>
</g>
<!-- Node19&#45;&gt;Node28 -->
<g id="edge32" class="edge">
<title>Node19&#45;&gt;Node28</title>
<path fill="none" stroke="midnightblue" d="M1009.06,-230.99C987.66,-220.69 961.45,-208.07 941.74,-198.58"/>
<polygon fill="midnightblue" stroke="midnightblue" points="1007.68,-234.21 1018.21,-235.4 1010.72,-227.9 1007.68,-234.21"/>
</g>
<!-- Node29 -->
<g id="node29" class="node">
<title>Node29</title>
<g id="a_node29"><a xlink:href="mxvectorprogram_8cpp.html" target="_top" xlink:title=" ">
<polygon fill="none" stroke="black" points="666.5,-168.5 666.5,-198.5 844.5,-198.5 844.5,-168.5 666.5,-168.5"/>
<text text-anchor="start" x="674.5" y="-186.5" font-family="Helvetica,sans-Serif" font-size="10.00">src/renderer/opengl</text>
<text text-anchor="middle" x="755.5" y="-175.5" font-family="Helvetica,sans-Serif" font-size="10.00">/vectorprogram/mxvectorprogram.cpp</text>
</a>
</g>
</g>
<!-- Node19&#45;&gt;Node29 -->
<g id="edge33" class="edge">
<title>Node19&#45;&gt;Node29</title>
<path fill="none" stroke="midnightblue" d="M987.42,-236.13C938.14,-225.16 868.58,-209.67 818.52,-198.53"/>
<polygon fill="midnightblue" stroke="midnightblue" points="986.78,-239.57 997.3,-238.33 988.3,-232.74 986.78,-239.57"/>
</g>
<!-- Node23&#45;&gt;Node10 -->
<g id="edge26" class="edge">
<title>Node23&#45;&gt;Node10</title>
<path fill="none" stroke="midnightblue" d="M1018.95,-169.21C1002.21,-160.39 981.47,-147.58 966.5,-132 950.13,-114.96 938.33,-89.29 932.88,-75.88"/>
<polygon fill="midnightblue" stroke="midnightblue" points="1017.77,-172.54 1028.28,-173.94 1020.94,-166.3 1017.77,-172.54"/>
</g>
<!-- Node24 -->
<g id="node24" class="node">
<title>Node24</title>
<g id="a_node24"><a xlink:href="mxiconatlas_8cpp.html" target="_top" xlink:title=" ">
<polygon fill="none" stroke="black" points="975,-112.5 975,-131.5 1120,-131.5 1120,-112.5 975,-112.5"/>
<text text-anchor="middle" x="1047.5" y="-119.5" font-family="Helvetica,sans-Serif" font-size="10.00">src/iconatlas/mxiconatlas.cpp</text>
</a>
</g>
</g>
<!-- Node23&#45;&gt;Node24 -->
<g id="edge25" class="edge">
<title>Node23&#45;&gt;Node24</title>
<path fill="none" stroke="midnightblue" d="M1047.5,-163.82C1047.5,-153 1047.5,-139.9 1047.5,-131.51"/>
<polygon fill="midnightblue" stroke="midnightblue" points="1044,-163.98 1047.5,-173.98 1051,-163.98 1044,-163.98"/>
</g>
<!-- Node30&#45;&gt;Node6 -->
<g id="edge35" class="edge">
<title>Node30&#45;&gt;Node6</title>
<path fill="none" stroke="midnightblue" d="M611.52,-229.34C595.28,-217.21 575.44,-202.39 563.14,-193.19"/>
<polygon fill="midnightblue" stroke="midnightblue" points="609.52,-232.21 619.62,-235.4 613.71,-226.61 609.52,-232.21"/>
</g>
<!-- Node30&#45;&gt;Node15 -->
<g id="edge36" class="edge">
<title>Node30&#45;&gt;Node15</title>
<path fill="none" stroke="midnightblue" d="M641.2,-225.2C643.75,-208.46 648.58,-186.06 657.5,-168 664.48,-153.85 676.7,-140.24 685.17,-131.76"/>
<polygon fill="midnightblue" stroke="midnightblue" points="637.7,-224.91 639.83,-235.29 644.64,-225.85 637.7,-224.91"/>
</g>
<!-- Node30&#45;&gt;Node29 -->
<g id="edge37" class="edge">
<title>Node30&#45;&gt;Node29</title>
<path fill="none" stroke="midnightblue" d="M672.82,-230.44C691.17,-220.24 713.38,-207.9 730.16,-198.58"/>
<polygon fill="midnightblue" stroke="midnightblue" points="670.93,-227.48 663.89,-235.4 674.33,-233.6 670.93,-227.48"/>
</g>
</g>
</svg>
