<?xml version="1.0" encoding="UTF-8" standalone="no"?>
<!DOCTYPE svg PUBLIC "-//W3C//DTD SVG 1.1//EN"
 "http://www.w3.org/Graphics/SVG/1.1/DTD/svg11.dtd">
<!-- Generated by graphviz version 2.44.0 ()
 -->
<!-- Title: src/geometry/mxmatrix.h Pages: 1 -->
<svg width="1765pt" height="352pt"
 viewBox="0.00 0.00 1764.50 352.00" xmlns="http://www.w3.org/2000/svg" xmlns:xlink="http://www.w3.org/1999/xlink">
<g id="graph0" class="graph" transform="scale(1 1) rotate(0) translate(4 348)">
<title>src/geometry/mxmatrix.h</title>
<!-- Node1 -->
<g id="node1" class="node">
<title>Node1</title>
<g id="a_node1"><a xlink:title=" ">
<polygon fill="#bfbfbf" stroke="black" points="946,-324.5 946,-343.5 1068,-343.5 1068,-324.5 946,-324.5"/>
<text text-anchor="middle" x="1007" y="-331.5" font-family="Helvetica,sans-Serif" font-size="10.00">src/geometry/mxmatrix.h</text>
</a>
</g>
</g>
<!-- Node2 -->
<g id="node2" class="node">
<title>Node2</title>
<g id="a_node2"><a xlink:href="mxcolorwheelprogram_8h.html" target="_top" xlink:title=" ">
<polygon fill="none" stroke="black" points="785,-257.5 785,-287.5 907,-287.5 907,-257.5 785,-257.5"/>
<text text-anchor="start" x="793" y="-275.5" font-family="Helvetica,sans-Serif" font-size="10.00">src/gui/colorselector</text>
<text text-anchor="middle" x="846" y="-264.5" font-family="Helvetica,sans-Serif" font-size="10.00">/mxcolorwheelprogram.h</text>
</a>
</g>
</g>
<!-- Node1&#45;&gt;Node2 -->
<g id="edge1" class="edge">
<title>Node1&#45;&gt;Node2</title>
<path fill="none" stroke="midnightblue" d="M974.46,-320.98C948.29,-311.3 911.46,-297.69 883.94,-287.52"/>
<polygon fill="midnightblue" stroke="midnightblue" points="973.34,-324.29 983.93,-324.48 975.77,-317.73 973.34,-324.29"/>
</g>
<!-- Node20 -->
<g id="node20" class="node">
<title>Node20</title>
<g id="a_node20"><a xlink:href="mxiconprogram_8h.html" target="_top" xlink:title=" ">
<polygon fill="none" stroke="black" points="925,-263 925,-282 1089,-282 1089,-263 925,-263"/>
<text text-anchor="middle" x="1007" y="-270" font-family="Helvetica,sans-Serif" font-size="10.00">src/gui/icondraw/mxiconprogram.h</text>
</a>
</g>
</g>
<!-- Node1&#45;&gt;Node20 -->
<g id="edge22" class="edge">
<title>Node1&#45;&gt;Node20</title>
<path fill="none" stroke="midnightblue" d="M1007,-314.32C1007,-303.5 1007,-290.4 1007,-282.01"/>
<polygon fill="midnightblue" stroke="midnightblue" points="1003.5,-314.48 1007,-324.48 1010.5,-314.48 1003.5,-314.48"/>
</g>
<!-- Node21 -->
<g id="node21" class="node">
<title>Node21</title>
<g id="a_node21"><a xlink:href="mxvectorprogram_8h.html" target="_top" xlink:title=" ">
<polygon fill="none" stroke="black" points="1107,-257.5 1107,-287.5 1209,-287.5 1209,-257.5 1107,-257.5"/>
<text text-anchor="start" x="1115" y="-275.5" font-family="Helvetica,sans-Serif" font-size="10.00">src/gui/vectordraw</text>
<text text-anchor="middle" x="1158" y="-264.5" font-family="Helvetica,sans-Serif" font-size="10.00">/mxvectorprogram.h</text>
</a>
</g>
</g>
<!-- Node1&#45;&gt;Node21 -->
<g id="edge25" class="edge">
<title>Node1&#45;&gt;Node21</title>
<path fill="none" stroke="midnightblue" d="M1038.17,-320.72C1062.67,-311.06 1096.83,-297.6 1122.41,-287.52"/>
<polygon fill="midnightblue" stroke="midnightblue" points="1036.66,-317.55 1028.63,-324.48 1039.22,-324.07 1036.66,-317.55"/>
</g>
<!-- Node3 -->
<g id="node3" class="node">
<title>Node3</title>
<g id="a_node3"><a xlink:href="mxcolorwheelprogram_8cpp.html" target="_top" xlink:title=" ">
<polygon fill="none" stroke="black" points="0,-134.5 0,-164.5 132,-164.5 132,-134.5 0,-134.5"/>
<text text-anchor="start" x="8" y="-152.5" font-family="Helvetica,sans-Serif" font-size="10.00">src/gui/colorselector</text>
<text text-anchor="middle" x="66" y="-141.5" font-family="Helvetica,sans-Serif" font-size="10.00">/mxcolorwheelprogram.cpp</text>
</a>
</g>
</g>
<!-- Node2&#45;&gt;Node3 -->
<g id="edge2" class="edge">
<title>Node2&#45;&gt;Node3</title>
<path fill="none" stroke="midnightblue" d="M774.54,-261.69C647.03,-243.98 372.02,-204.76 141,-165 138.12,-164.51 135.19,-163.99 132.23,-163.46"/>
<polygon fill="midnightblue" stroke="midnightblue" points="774.18,-265.18 784.57,-263.08 775.14,-258.24 774.18,-265.18"/>
</g>
<!-- Node4 -->
<g id="node4" class="node">
<title>Node4</title>
<g id="a_node4"><a xlink:href="mxrenderer_8h.html" target="_top" xlink:title=" ">
<polygon fill="none" stroke="black" points="855.5,-201.5 855.5,-220.5 998.5,-220.5 998.5,-201.5 855.5,-201.5"/>
<text text-anchor="middle" x="927" y="-208.5" font-family="Helvetica,sans-Serif" font-size="10.00">src/gui/renderer/mxrenderer.h</text>
</a>
</g>
</g>
<!-- Node2&#45;&gt;Node4 -->
<g id="edge3" class="edge">
<title>Node2&#45;&gt;Node4</title>
<path fill="none" stroke="midnightblue" d="M873.65,-251.19C887.83,-240.77 904.36,-228.63 915.21,-220.66"/>
<polygon fill="midnightblue" stroke="midnightblue" points="871.18,-248.66 865.2,-257.4 875.33,-254.3 871.18,-248.66"/>
</g>
<!-- Node4&#45;&gt;Node3 -->
<g id="edge9" class="edge">
<title>Node4&#45;&gt;Node3</title>
<path fill="none" stroke="midnightblue" d="M845.43,-208.92C702.3,-206.22 396.8,-196.9 141,-165 138.1,-164.64 135.15,-164.23 132.18,-163.79"/>
<polygon fill="midnightblue" stroke="midnightblue" points="845.39,-212.42 855.45,-209.1 845.52,-205.42 845.39,-212.42"/>
</g>
<!-- Node5 -->
<g id="node5" class="node">
<title>Node5</title>
<g id="a_node5"><a xlink:href="mxapplication_8h.html" target="_top" xlink:title=" ">
<polygon fill="none" stroke="black" points="150,-140 150,-159 282,-159 282,-140 150,-140"/>
<text text-anchor="middle" x="216" y="-147" font-family="Helvetica,sans-Serif" font-size="10.00">src/events/mxapplication.h</text>
</a>
</g>
</g>
<!-- Node4&#45;&gt;Node5 -->
<g id="edge4" class="edge">
<title>Node4&#45;&gt;Node5</title>
<path fill="none" stroke="midnightblue" d="M844.85,-207.35C723.36,-202.71 488.82,-191.02 291,-165 279.43,-163.48 266.95,-161.29 255.56,-159.07"/>
<polygon fill="midnightblue" stroke="midnightblue" points="845.06,-210.86 855.18,-207.73 845.32,-203.86 845.06,-210.86"/>
</g>
<!-- Node9 -->
<g id="node9" class="node">
<title>Node9</title>
<g id="a_node9"><a xlink:href="gpubuffer_8cpp.html" target="_top" xlink:title=" ">
<polygon fill="none" stroke="black" points="452.5,-140 452.5,-159 559.5,-159 559.5,-140 452.5,-140"/>
<text text-anchor="middle" x="506" y="-147" font-family="Helvetica,sans-Serif" font-size="10.00">src/gui/gpubuffer.cpp</text>
</a>
</g>
</g>
<!-- Node4&#45;&gt;Node9 -->
<g id="edge10" class="edge">
<title>Node4&#45;&gt;Node9</title>
<path fill="none" stroke="midnightblue" d="M845.43,-202.24C772.43,-194.72 662.63,-181.95 568,-165 558.75,-163.34 548.81,-161.19 539.65,-159.05"/>
<polygon fill="midnightblue" stroke="midnightblue" points="845.18,-205.74 855.49,-203.27 845.89,-198.77 845.18,-205.74"/>
</g>
<!-- Node10 -->
<g id="node10" class="node">
<title>Node10</title>
<g id="a_node10"><a xlink:href="gpuvbo_8cpp.html" target="_top" xlink:title=" ">
<polygon fill="none" stroke="black" points="577,-140 577,-159 675,-159 675,-140 577,-140"/>
<text text-anchor="middle" x="626" y="-147" font-family="Helvetica,sans-Serif" font-size="10.00">src/gui/gpuvbo.cpp</text>
</a>
</g>
</g>
<!-- Node4&#45;&gt;Node10 -->
<g id="edge11" class="edge">
<title>Node4&#45;&gt;Node10</title>
<path fill="none" stroke="midnightblue" d="M865.75,-199.74C816.49,-191.23 745.58,-178.39 684,-165 675.78,-163.21 666.96,-161.11 658.74,-159.06"/>
<polygon fill="midnightblue" stroke="midnightblue" points="865.17,-203.19 875.62,-201.44 866.35,-196.29 865.17,-203.19"/>
</g>
<!-- Node11 -->
<g id="node11" class="node">
<title>Node11</title>
<g id="a_node11"><a xlink:href="mxicondraw_8cpp.html" target="_top" xlink:title=" ">
<polygon fill="none" stroke="black" points="693.5,-140 693.5,-159 854.5,-159 854.5,-140 693.5,-140"/>
<text text-anchor="middle" x="774" y="-147" font-family="Helvetica,sans-Serif" font-size="10.00">src/gui/icondraw/mxicondraw.cpp</text>
</a>
</g>
</g>
<!-- Node4&#45;&gt;Node11 -->
<g id="edge12" class="edge">
<title>Node4&#45;&gt;Node11</title>
<path fill="none" stroke="midnightblue" d="M895.58,-197.78C865.85,-186.22 821.99,-169.16 795.88,-159.01"/>
<polygon fill="midnightblue" stroke="midnightblue" points="894.49,-201.11 905.08,-201.48 897.03,-194.59 894.49,-201.11"/>
</g>
<!-- Node12 -->
<g id="node12" class="node">
<title>Node12</title>
<g id="a_node12"><a xlink:href="mxiconprogram_8cpp.html" target="_top" xlink:title=" ">
<polygon fill="none" stroke="black" points="1450.5,-140 1450.5,-159 1625.5,-159 1625.5,-140 1450.5,-140"/>
<text text-anchor="middle" x="1538" y="-147" font-family="Helvetica,sans-Serif" font-size="10.00">src/gui/icondraw/mxiconprogram.cpp</text>
</a>
</g>
</g>
<!-- Node4&#45;&gt;Node12 -->
<g id="edge13" class="edge">
<title>Node4&#45;&gt;Node12</title>
<path fill="none" stroke="midnightblue" d="M1008.84,-204.38C1110.39,-197.06 1288.78,-183.02 1441,-165 1455.29,-163.31 1470.71,-161.15 1484.97,-159.03"/>
<polygon fill="midnightblue" stroke="midnightblue" points="1008.38,-200.91 998.65,-205.11 1008.88,-207.89 1008.38,-200.91"/>
</g>
<!-- Node13 -->
<g id="node13" class="node">
<title>Node13</title>
<g id="a_node13"><a xlink:href="mxpainter_8cpp.html" target="_top" xlink:title=" ">
<polygon fill="none" stroke="black" points="872.5,-140 872.5,-159 981.5,-159 981.5,-140 872.5,-140"/>
<text text-anchor="middle" x="927" y="-147" font-family="Helvetica,sans-Serif" font-size="10.00">src/gui/mxpainter.cpp</text>
</a>
</g>
</g>
<!-- Node4&#45;&gt;Node13 -->
<g id="edge14" class="edge">
<title>Node4&#45;&gt;Node13</title>
<path fill="none" stroke="midnightblue" d="M927,-191.32C927,-180.5 927,-167.4 927,-159.01"/>
<polygon fill="midnightblue" stroke="midnightblue" points="923.5,-191.48 927,-201.48 930.5,-191.48 923.5,-191.48"/>
</g>
<!-- Node14 -->
<g id="node14" class="node">
<title>Node14</title>
<g id="a_node14"><a xlink:href="mxshaderprogram_8cpp.html" target="_top" xlink:title=" ">
<polygon fill="none" stroke="black" points="1000,-140 1000,-159 1144,-159 1144,-140 1000,-140"/>
<text text-anchor="middle" x="1072" y="-147" font-family="Helvetica,sans-Serif" font-size="10.00">src/gui/mxshaderprogram.cpp</text>
</a>
</g>
</g>
<!-- Node4&#45;&gt;Node14 -->
<g id="edge15" class="edge">
<title>Node4&#45;&gt;Node14</title>
<path fill="none" stroke="midnightblue" d="M957.14,-197.63C985.31,-186.07 1026.62,-169.12 1051.26,-159.01"/>
<polygon fill="midnightblue" stroke="midnightblue" points="955.7,-194.44 947.77,-201.48 958.36,-200.92 955.7,-194.44"/>
</g>
<!-- Node15 -->
<g id="node15" class="node">
<title>Node15</title>
<g id="a_node15"><a xlink:href="mxrenderer_8cpp.html" target="_top" xlink:title=" ">
<polygon fill="none" stroke="black" points="1162.5,-140 1162.5,-159 1315.5,-159 1315.5,-140 1162.5,-140"/>
<text text-anchor="middle" x="1239" y="-147" font-family="Helvetica,sans-Serif" font-size="10.00">src/gui/renderer/mxrenderer.cpp</text>
</a>
</g>
</g>
<!-- Node4&#45;&gt;Node15 -->
<g id="edge16" class="edge">
<title>Node4&#45;&gt;Node15</title>
<path fill="none" stroke="midnightblue" d="M981.82,-199.55C1042.26,-188.02 1138.35,-169.69 1194.38,-159.01"/>
<polygon fill="midnightblue" stroke="midnightblue" points="980.87,-196.16 971.7,-201.48 982.18,-203.04 980.87,-196.16"/>
</g>
<!-- Node16 -->
<g id="node16" class="node">
<title>Node16</title>
<g id="a_node16"><a xlink:href="mxvectordraw_8cpp.html" target="_top" xlink:title=" ">
<polygon fill="none" stroke="black" points="1334,-134.5 1334,-164.5 1432,-164.5 1432,-134.5 1334,-134.5"/>
<text text-anchor="start" x="1342" y="-152.5" font-family="Helvetica,sans-Serif" font-size="10.00">src/gui/vectordraw</text>
<text text-anchor="middle" x="1383" y="-141.5" font-family="Helvetica,sans-Serif" font-size="10.00">/mxvectordraw.cpp</text>
</a>
</g>
</g>
<!-- Node4&#45;&gt;Node16 -->
<g id="edge17" class="edge">
<title>Node4&#45;&gt;Node16</title>
<path fill="none" stroke="midnightblue" d="M1008.7,-203.95C1089.48,-197.21 1216.39,-184.63 1325,-165 1327.86,-164.48 1330.79,-163.91 1333.74,-163.29"/>
<polygon fill="midnightblue" stroke="midnightblue" points="1008.27,-200.47 998.59,-204.78 1008.84,-207.45 1008.27,-200.47"/>
</g>
<!-- Node17 -->
<g id="node17" class="node">
<title>Node17</title>
<g id="a_node17"><a xlink:href="mxvectorprogram_8cpp.html" target="_top" xlink:title=" ">
<polygon fill="none" stroke="black" points="1643.5,-134.5 1643.5,-164.5 1756.5,-164.5 1756.5,-134.5 1643.5,-134.5"/>
<text text-anchor="start" x="1651.5" y="-152.5" font-family="Helvetica,sans-Serif" font-size="10.00">src/gui/vectordraw</text>
<text text-anchor="middle" x="1700" y="-141.5" font-family="Helvetica,sans-Serif" font-size="10.00">/mxvectorprogram.cpp</text>
</a>
</g>
</g>
<!-- Node4&#45;&gt;Node17 -->
<g id="edge18" class="edge">
<title>Node4&#45;&gt;Node17</title>
<path fill="none" stroke="midnightblue" d="M1008.78,-208.94C1141.04,-206.29 1409.8,-197.08 1635,-165 1637.75,-164.61 1640.55,-164.16 1643.38,-163.68"/>
<polygon fill="midnightblue" stroke="midnightblue" points="1008.66,-205.44 998.73,-209.13 1008.79,-212.44 1008.66,-205.44"/>
</g>
<!-- Node18 -->
<g id="node18" class="node">
<title>Node18</title>
<g id="a_node18"><a xlink:href="mxiconatlas_8h.html" target="_top" xlink:title=" ">
<polygon fill="none" stroke="black" points="300,-140 300,-159 434,-159 434,-140 300,-140"/>
<text text-anchor="middle" x="367" y="-147" font-family="Helvetica,sans-Serif" font-size="10.00">src/iconatlas/mxiconatlas.h</text>
</a>
</g>
</g>
<!-- Node4&#45;&gt;Node18 -->
<g id="edge19" class="edge">
<title>Node4&#45;&gt;Node18</title>
<path fill="none" stroke="midnightblue" d="M845.14,-204.79C748.67,-198.1 583.68,-184.91 443,-165 431.56,-163.38 419.23,-161.21 407.9,-159.05"/>
<polygon fill="midnightblue" stroke="midnightblue" points="845.19,-208.3 855.4,-205.5 845.67,-201.32 845.19,-208.3"/>
</g>
<!-- Node6 -->
<g id="node6" class="node">
<title>Node6</title>
<g id="a_node6"><a xlink:href="mxapplication_8cpp.html" target="_top" xlink:title=" ">
<polygon fill="none" stroke="black" points="44.5,-73 44.5,-92 187.5,-92 187.5,-73 44.5,-73"/>
<text text-anchor="middle" x="116" y="-80" font-family="Helvetica,sans-Serif" font-size="10.00">src/events/mxapplication.cpp</text>
</a>
</g>
</g>
<!-- Node5&#45;&gt;Node6 -->
<g id="edge5" class="edge">
<title>Node5&#45;&gt;Node6</title>
<path fill="none" stroke="midnightblue" d="M194.11,-134.27C174.31,-121.4 145.81,-102.88 129.27,-92.13"/>
<polygon fill="midnightblue" stroke="midnightblue" points="192.22,-137.22 202.51,-139.73 196.04,-131.35 192.22,-137.22"/>
</g>
<!-- Node7 -->
<g id="node7" class="node">
<title>Node7</title>
<g id="a_node7"><a xlink:href="qmewawindow_8cpp.html" target="_top" xlink:title=" ">
<polygon fill="none" stroke="black" points="201,-0.5 201,-30.5 317,-30.5 317,-0.5 201,-0.5"/>
<text text-anchor="start" x="209" y="-18.5" font-family="Helvetica,sans-Serif" font-size="10.00">src/platformabstraction</text>
<text text-anchor="middle" x="259" y="-7.5" font-family="Helvetica,sans-Serif" font-size="10.00">/qt/qmewawindow.cpp</text>
</a>
</g>
</g>
<!-- Node5&#45;&gt;Node7 -->
<g id="edge6" class="edge">
<title>Node5&#45;&gt;Node7</title>
<path fill="none" stroke="midnightblue" d="M219.2,-129.64C222.33,-112.91 227.68,-87.95 235,-67 239.42,-54.35 246.05,-40.67 251.22,-30.74"/>
<polygon fill="midnightblue" stroke="midnightblue" points="215.71,-129.3 217.4,-139.76 222.6,-130.53 215.71,-129.3"/>
</g>
<!-- Node8 -->
<g id="node8" class="node">
<title>Node8</title>
<g id="a_node8"><a xlink:href="qmewawindow_8h.html" target="_top" xlink:title=" ">
<polygon fill="none" stroke="black" points="244,-67.5 244,-97.5 360,-97.5 360,-67.5 244,-67.5"/>
<text text-anchor="start" x="252" y="-85.5" font-family="Helvetica,sans-Serif" font-size="10.00">src/platformabstraction</text>
<text text-anchor="middle" x="302" y="-74.5" font-family="Helvetica,sans-Serif" font-size="10.00">/qt/qmewawindow.h</text>
</a>
</g>
</g>
<!-- Node5&#45;&gt;Node8 -->
<g id="edge7" class="edge">
<title>Node5&#45;&gt;Node8</title>
<path fill="none" stroke="midnightblue" d="M235.79,-133.54C250.1,-122.73 269.32,-108.2 283.36,-97.59"/>
<polygon fill="midnightblue" stroke="midnightblue" points="233.47,-130.91 227.6,-139.73 237.69,-136.5 233.47,-130.91"/>
</g>
<!-- Node8&#45;&gt;Node7 -->
<g id="edge8" class="edge">
<title>Node8&#45;&gt;Node7</title>
<path fill="none" stroke="midnightblue" d="M287.03,-58.87C280.8,-49.46 273.77,-38.83 268.31,-30.58"/>
<polygon fill="midnightblue" stroke="midnightblue" points="284.23,-60.99 292.67,-67.4 290.07,-57.12 284.23,-60.99"/>
</g>
<!-- Node18&#45;&gt;Node8 -->
<g id="edge21" class="edge">
<title>Node18&#45;&gt;Node8</title>
<path fill="none" stroke="midnightblue" d="M351.12,-132.62C340.41,-121.91 326.4,-107.9 316.09,-97.59"/>
<polygon fill="midnightblue" stroke="midnightblue" points="348.69,-135.14 358.23,-139.73 353.64,-130.19 348.69,-135.14"/>
</g>
<!-- Node19 -->
<g id="node19" class="node">
<title>Node19</title>
<g id="a_node19"><a xlink:href="mxiconatlas_8cpp.html" target="_top" xlink:title=" ">
<polygon fill="none" stroke="black" points="378.5,-73 378.5,-92 523.5,-92 523.5,-73 378.5,-73"/>
<text text-anchor="middle" x="451" y="-80" font-family="Helvetica,sans-Serif" font-size="10.00">src/iconatlas/mxiconatlas.cpp</text>
</a>
</g>
</g>
<!-- Node18&#45;&gt;Node19 -->
<g id="edge20" class="edge">
<title>Node18&#45;&gt;Node19</title>
<path fill="none" stroke="midnightblue" d="M386.3,-133.57C402.88,-120.74 426.21,-102.69 439.85,-92.13"/>
<polygon fill="midnightblue" stroke="midnightblue" points="384.1,-130.85 378.33,-139.73 388.38,-136.38 384.1,-130.85"/>
</g>
<!-- Node20&#45;&gt;Node4 -->
<g id="edge24" class="edge">
<title>Node20&#45;&gt;Node4</title>
<path fill="none" stroke="midnightblue" d="M987.23,-256.79C971.88,-245.38 951.14,-229.96 938.44,-220.51"/>
<polygon fill="midnightblue" stroke="midnightblue" points="985.43,-259.82 995.54,-262.98 989.6,-254.2 985.43,-259.82"/>
</g>
<!-- Node20&#45;&gt;Node12 -->
<g id="edge23" class="edge">
<title>Node20&#45;&gt;Node12</title>
<path fill="none" stroke="midnightblue" d="M1054.25,-260.73C1158.36,-237.01 1405.77,-180.63 1500.35,-159.08"/>
<polygon fill="midnightblue" stroke="midnightblue" points="1053.31,-257.36 1044.34,-262.99 1054.87,-264.18 1053.31,-257.36"/>
</g>
<!-- Node21&#45;&gt;Node4 -->
<g id="edge26" class="edge">
<title>Node21&#45;&gt;Node4</title>
<path fill="none" stroke="midnightblue" d="M1097.05,-255.8C1053.27,-244.53 995.93,-229.75 960.28,-220.57"/>
<polygon fill="midnightblue" stroke="midnightblue" points="1096.18,-259.19 1106.73,-258.3 1097.92,-252.41 1096.18,-259.19"/>
</g>
<!-- Node21&#45;&gt;Node17 -->
<g id="edge27" class="edge">
<title>Node21&#45;&gt;Node17</title>
<path fill="none" stroke="midnightblue" d="M1219.37,-257.8C1325.23,-234.17 1540.61,-186.08 1643.21,-163.18"/>
<polygon fill="midnightblue" stroke="midnightblue" points="1218.48,-254.41 1209.48,-260.01 1220,-261.24 1218.48,-254.41"/>
</g>
</g>
</svg>
