<?xml version="1.0" encoding="UTF-8" standalone="no"?>
<!DOCTYPE svg PUBLIC "-//W3C//DTD SVG 1.1//EN"
 "http://www.w3.org/Graphics/SVG/1.1/DTD/svg11.dtd">
<!-- Generated by graphviz version 2.44.0 ()
 -->
<!-- Title: src/geometry/mxmatrix.h Pages: 1 -->
<svg width="690pt" height="229pt"
 viewBox="0.00 0.00 689.50 229.00" xmlns="http://www.w3.org/2000/svg" xmlns:xlink="http://www.w3.org/1999/xlink">
<g id="graph0" class="graph" transform="scale(1 1) rotate(0) translate(4 225)">
<title>src/geometry/mxmatrix.h</title>
<!-- Node1 -->
<g id="node1" class="node">
<title>Node1</title>
<g id="a_node1"><a xlink:title=" ">
<polygon fill="#bfbfbf" stroke="black" points="300.5,-201.5 300.5,-220.5 422.5,-220.5 422.5,-201.5 300.5,-201.5"/>
<text text-anchor="middle" x="361.5" y="-208.5" font-family="Helvetica,sans-Serif" font-size="10.00">src/geometry/mxmatrix.h</text>
</a>
</g>
</g>
<!-- Node2 -->
<g id="node2" class="node">
<title>Node2</title>
<g id="a_node2"><a xlink:href="mxcolorwheelprogram_8h.html" target="_top" xlink:title=" ">
<polygon fill="none" stroke="black" points="69.5,-134.5 69.5,-164.5 275.5,-164.5 275.5,-134.5 69.5,-134.5"/>
<text text-anchor="start" x="77.5" y="-152.5" font-family="Helvetica,sans-Serif" font-size="10.00">src/renderer/opengl</text>
<text text-anchor="middle" x="172.5" y="-141.5" font-family="Helvetica,sans-Serif" font-size="10.00">/colorwheelprogram/mxcolorwheelprogram.h</text>
</a>
</g>
</g>
<!-- Node1&#45;&gt;Node2 -->
<g id="edge1" class="edge">
<title>Node1&#45;&gt;Node2</title>
<path fill="none" stroke="midnightblue" d="M324.52,-198.36C293.72,-188.66 249.77,-174.83 217.04,-164.52"/>
<polygon fill="midnightblue" stroke="midnightblue" points="323.83,-201.81 334.42,-201.48 325.93,-195.13 323.83,-201.81"/>
</g>
<!-- Node8 -->
<g id="node8" class="node">
<title>Node8</title>
<g id="a_node8"><a xlink:href="mxiconprogram_8h.html" target="_top" xlink:title=" ">
<polygon fill="none" stroke="black" points="294,-134.5 294,-164.5 429,-164.5 429,-134.5 294,-134.5"/>
<text text-anchor="start" x="302" y="-152.5" font-family="Helvetica,sans-Serif" font-size="10.00">src/renderer/opengl</text>
<text text-anchor="middle" x="361.5" y="-141.5" font-family="Helvetica,sans-Serif" font-size="10.00">/icondraw/mxiconprogram.h</text>
</a>
</g>
</g>
<!-- Node1&#45;&gt;Node8 -->
<g id="edge7" class="edge">
<title>Node1&#45;&gt;Node8</title>
<path fill="none" stroke="midnightblue" d="M361.5,-191.23C361.5,-182.59 361.5,-172.5 361.5,-164.52"/>
<polygon fill="midnightblue" stroke="midnightblue" points="358,-191.48 361.5,-201.48 365,-191.48 358,-191.48"/>
</g>
<!-- Node10 -->
<g id="node10" class="node">
<title>Node10</title>
<g id="a_node10"><a xlink:href="mxvectorprogram_8h.html" target="_top" xlink:title=" ">
<polygon fill="none" stroke="black" points="447,-134.5 447,-164.5 600,-164.5 600,-134.5 447,-134.5"/>
<text text-anchor="start" x="455" y="-152.5" font-family="Helvetica,sans-Serif" font-size="10.00">src/renderer/opengl</text>
<text text-anchor="middle" x="523.5" y="-141.5" font-family="Helvetica,sans-Serif" font-size="10.00">/vectordraw/mxvectorprogram.h</text>
</a>
</g>
</g>
<!-- Node1&#45;&gt;Node10 -->
<g id="edge10" class="edge">
<title>Node1&#45;&gt;Node10</title>
<path fill="none" stroke="midnightblue" d="M394.24,-197.98C420.58,-188.3 457.63,-174.69 485.32,-164.52"/>
<polygon fill="midnightblue" stroke="midnightblue" points="392.89,-194.74 384.71,-201.48 395.3,-201.31 392.89,-194.74"/>
</g>
<!-- Node3 -->
<g id="node3" class="node">
<title>Node3</title>
<g id="a_node3"><a xlink:href="mxcolorwheelprogram_8cpp.html" target="_top" xlink:title=" ">
<polygon fill="none" stroke="black" points="0,-67.5 0,-97.5 217,-97.5 217,-67.5 0,-67.5"/>
<text text-anchor="start" x="8" y="-85.5" font-family="Helvetica,sans-Serif" font-size="10.00">src/renderer/opengl</text>
<text text-anchor="middle" x="108.5" y="-74.5" font-family="Helvetica,sans-Serif" font-size="10.00">/colorwheelprogram/mxcolorwheelprogram.cpp</text>
</a>
</g>
</g>
<!-- Node2&#45;&gt;Node3 -->
<g id="edge2" class="edge">
<title>Node2&#45;&gt;Node3</title>
<path fill="none" stroke="midnightblue" d="M151.35,-127.02C141.82,-117.34 130.83,-106.17 122.36,-97.58"/>
<polygon fill="midnightblue" stroke="midnightblue" points="149.1,-129.73 158.61,-134.4 154.09,-124.81 149.1,-129.73"/>
</g>
<!-- Node4 -->
<g id="node4" class="node">
<title>Node4</title>
<g id="a_node4"><a xlink:href="opengl_2mxrenderer_8h.html" target="_top" xlink:title=" ">
<polygon fill="none" stroke="black" points="235.5,-67.5 235.5,-97.5 335.5,-97.5 335.5,-67.5 235.5,-67.5"/>
<text text-anchor="start" x="243.5" y="-85.5" font-family="Helvetica,sans-Serif" font-size="10.00">src/renderer/opengl</text>
<text text-anchor="middle" x="285.5" y="-74.5" font-family="Helvetica,sans-Serif" font-size="10.00">/mxrenderer.h</text>
</a>
</g>
</g>
<!-- Node2&#45;&gt;Node4 -->
<g id="edge3" class="edge">
<title>Node2&#45;&gt;Node4</title>
<path fill="none" stroke="midnightblue" d="M205.89,-129.3C223.57,-119.12 244.9,-106.85 261.03,-97.58"/>
<polygon fill="midnightblue" stroke="midnightblue" points="203.94,-126.38 197.02,-134.4 207.43,-132.44 203.94,-126.38"/>
</g>
<!-- Node5 -->
<g id="node5" class="node">
<title>Node5</title>
<g id="a_node5"><a xlink:href="opengl_2mxgpuarray_8cpp.html" target="_top" xlink:title=" ">
<polygon fill="none" stroke="black" points="117.5,-0.5 117.5,-30.5 217.5,-30.5 217.5,-0.5 117.5,-0.5"/>
<text text-anchor="start" x="125.5" y="-18.5" font-family="Helvetica,sans-Serif" font-size="10.00">src/renderer/opengl</text>
<text text-anchor="middle" x="167.5" y="-7.5" font-family="Helvetica,sans-Serif" font-size="10.00">/mxgpuarray.cpp</text>
</a>
</g>
</g>
<!-- Node4&#45;&gt;Node5 -->
<g id="edge4" class="edge">
<title>Node4&#45;&gt;Node5</title>
<path fill="none" stroke="midnightblue" d="M250.89,-62.44C232.38,-52.24 209.98,-39.9 193.05,-30.58"/>
<polygon fill="midnightblue" stroke="midnightblue" points="249.45,-65.64 259.9,-67.4 252.83,-59.51 249.45,-65.64"/>
</g>
<!-- Node6 -->
<g id="node6" class="node">
<title>Node6</title>
<g id="a_node6"><a xlink:href="opengl_2mxrenderer_8cpp.html" target="_top" xlink:title=" ">
<polygon fill="none" stroke="black" points="235.5,-0.5 235.5,-30.5 335.5,-30.5 335.5,-0.5 235.5,-0.5"/>
<text text-anchor="start" x="243.5" y="-18.5" font-family="Helvetica,sans-Serif" font-size="10.00">src/renderer/opengl</text>
<text text-anchor="middle" x="285.5" y="-7.5" font-family="Helvetica,sans-Serif" font-size="10.00">/mxrenderer.cpp</text>
</a>
</g>
</g>
<!-- Node4&#45;&gt;Node6 -->
<g id="edge5" class="edge">
<title>Node4&#45;&gt;Node6</title>
<path fill="none" stroke="midnightblue" d="M285.5,-57.11C285.5,-48.15 285.5,-38.32 285.5,-30.58"/>
<polygon fill="midnightblue" stroke="midnightblue" points="282,-57.4 285.5,-67.4 289,-57.4 282,-57.4"/>
</g>
<!-- Node7 -->
<g id="node7" class="node">
<title>Node7</title>
<g id="a_node7"><a xlink:href="mxshaderprogram_8cpp.html" target="_top" xlink:title=" ">
<polygon fill="none" stroke="black" points="354,-0.5 354,-30.5 469,-30.5 469,-0.5 354,-0.5"/>
<text text-anchor="start" x="362" y="-18.5" font-family="Helvetica,sans-Serif" font-size="10.00">src/renderer/opengl</text>
<text text-anchor="middle" x="411.5" y="-7.5" font-family="Helvetica,sans-Serif" font-size="10.00">/mxshaderprogram.cpp</text>
</a>
</g>
</g>
<!-- Node4&#45;&gt;Node7 -->
<g id="edge6" class="edge">
<title>Node4&#45;&gt;Node7</title>
<path fill="none" stroke="midnightblue" d="M321.92,-62.71C341.79,-52.46 365.98,-39.98 384.21,-30.58"/>
<polygon fill="midnightblue" stroke="midnightblue" points="320.12,-59.7 312.84,-67.4 323.33,-65.92 320.12,-59.7"/>
</g>
<!-- Node8&#45;&gt;Node4 -->
<g id="edge9" class="edge">
<title>Node8&#45;&gt;Node4</title>
<path fill="none" stroke="midnightblue" d="M337.39,-127.88C325.84,-118.01 312.31,-106.43 301.96,-97.58"/>
<polygon fill="midnightblue" stroke="midnightblue" points="335.13,-130.56 345.01,-134.4 339.68,-125.24 335.13,-130.56"/>
</g>
<!-- Node9 -->
<g id="node9" class="node">
<title>Node9</title>
<g id="a_node9"><a xlink:href="mxiconprogram_8cpp.html" target="_top" xlink:title=" ">
<polygon fill="none" stroke="black" points="353.5,-67.5 353.5,-97.5 499.5,-97.5 499.5,-67.5 353.5,-67.5"/>
<text text-anchor="start" x="361.5" y="-85.5" font-family="Helvetica,sans-Serif" font-size="10.00">src/renderer/opengl</text>
<text text-anchor="middle" x="426.5" y="-74.5" font-family="Helvetica,sans-Serif" font-size="10.00">/icondraw/mxiconprogram.cpp</text>
</a>
</g>
</g>
<!-- Node8&#45;&gt;Node9 -->
<g id="edge8" class="edge">
<title>Node8&#45;&gt;Node9</title>
<path fill="none" stroke="midnightblue" d="M382.69,-127.31C392.44,-117.56 403.74,-106.26 412.42,-97.58"/>
<polygon fill="midnightblue" stroke="midnightblue" points="380.2,-124.85 375.6,-134.4 385.15,-129.8 380.2,-124.85"/>
</g>
<!-- Node10&#45;&gt;Node4 -->
<g id="edge11" class="edge">
<title>Node10&#45;&gt;Node4</title>
<path fill="none" stroke="midnightblue" d="M462.4,-131.81C423.04,-121.06 372.5,-107.26 335.53,-97.16"/>
<polygon fill="midnightblue" stroke="midnightblue" points="461.58,-135.22 472.15,-134.48 463.43,-128.46 461.58,-135.22"/>
</g>
<!-- Node11 -->
<g id="node11" class="node">
<title>Node11</title>
<g id="a_node11"><a xlink:href="mxvectorprogram_8cpp.html" target="_top" xlink:title=" ">
<polygon fill="none" stroke="black" points="517.5,-67.5 517.5,-97.5 681.5,-97.5 681.5,-67.5 517.5,-67.5"/>
<text text-anchor="start" x="525.5" y="-85.5" font-family="Helvetica,sans-Serif" font-size="10.00">src/renderer/opengl</text>
<text text-anchor="middle" x="599.5" y="-74.5" font-family="Helvetica,sans-Serif" font-size="10.00">/vectordraw/mxvectorprogram.cpp</text>
</a>
</g>
</g>
<!-- Node10&#45;&gt;Node11 -->
<g id="edge12" class="edge">
<title>Node10&#45;&gt;Node11</title>
<path fill="none" stroke="midnightblue" d="M547.61,-127.88C559.16,-118.01 572.69,-106.43 583.04,-97.58"/>
<polygon fill="midnightblue" stroke="midnightblue" points="545.32,-125.24 539.99,-134.4 549.87,-130.56 545.32,-125.24"/>
</g>
</g>
</svg>
