<?xml version="1.0" encoding="UTF-8" standalone="no"?>
<!DOCTYPE svg PUBLIC "-//W3C//DTD SVG 1.1//EN"
 "http://www.w3.org/Graphics/SVG/1.1/DTD/svg11.dtd">
<!-- Generated by graphviz version 2.44.0 ()
 -->
<!-- Title: src/events/mxmouseevent.cpp Pages: 1 -->
<svg width="521pt" height="308pt"
 viewBox="0.00 0.00 520.50 308.00" xmlns="http://www.w3.org/2000/svg" xmlns:xlink="http://www.w3.org/1999/xlink">
<g id="graph0" class="graph" transform="scale(1 1) rotate(0) translate(4 304)">
<title>src/events/mxmouseevent.cpp</title>
<!-- Node1 -->
<g id="node1" class="node">
<title>Node1</title>
<g id="a_node1"><a xlink:title=" ">
<polygon fill="#bfbfbf" stroke="black" points="184.5,-280.5 184.5,-299.5 333.5,-299.5 333.5,-280.5 184.5,-280.5"/>
<text text-anchor="middle" x="259" y="-287.5" font-family="Helvetica,sans-Serif" font-size="10.00">src/events/mxmouseevent.cpp</text>
</a>
</g>
</g>
<!-- Node2 -->
<g id="node2" class="node">
<title>Node2</title>
<g id="a_node2"><a xlink:href="mxmouseevent_8h.html" target="_top" xlink:title=" ">
<polygon fill="none" stroke="black" points="118,-224.5 118,-243.5 208,-243.5 208,-224.5 118,-224.5"/>
<text text-anchor="middle" x="163" y="-231.5" font-family="Helvetica,sans-Serif" font-size="10.00">mxmouseevent.h</text>
</a>
</g>
</g>
<!-- Node1&#45;&gt;Node2 -->
<g id="edge1" class="edge">
<title>Node1&#45;&gt;Node2</title>
<path fill="none" stroke="midnightblue" d="M243.58,-280.32C228.46,-271.82 205.18,-258.73 187.53,-248.8"/>
<polygon fill="midnightblue" stroke="midnightblue" points="188.82,-245.51 178.39,-243.65 185.39,-251.61 188.82,-245.51"/>
</g>
<!-- Node8 -->
<g id="node8" class="node">
<title>Node8</title>
<g id="a_node8"><a xlink:href="mxwidget_8h.html" target="_top" xlink:title=" ">
<polygon fill="none" stroke="black" points="226.5,-224.5 226.5,-243.5 291.5,-243.5 291.5,-224.5 226.5,-224.5"/>
<text text-anchor="middle" x="259" y="-231.5" font-family="Helvetica,sans-Serif" font-size="10.00">mxwidget.h</text>
</a>
</g>
</g>
<!-- Node1&#45;&gt;Node8 -->
<g id="edge7" class="edge">
<title>Node1&#45;&gt;Node8</title>
<path fill="none" stroke="midnightblue" d="M259,-280.08C259,-273.01 259,-262.86 259,-253.99"/>
<polygon fill="midnightblue" stroke="midnightblue" points="262.5,-253.75 259,-243.75 255.5,-253.75 262.5,-253.75"/>
</g>
<!-- Node17 -->
<g id="node17" class="node">
<title>Node17</title>
<g id="a_node17"><a xlink:title=" ">
<polygon fill="none" stroke="#bfbfbf" points="310,-224.5 310,-243.5 356,-243.5 356,-224.5 310,-224.5"/>
<text text-anchor="middle" x="333" y="-231.5" font-family="Helvetica,sans-Serif" font-size="10.00">math.h</text>
</a>
</g>
</g>
<!-- Node1&#45;&gt;Node17 -->
<g id="edge20" class="edge">
<title>Node1&#45;&gt;Node17</title>
<path fill="none" stroke="midnightblue" d="M270.89,-280.32C282.15,-272.11 299.29,-259.6 312.71,-249.81"/>
<polygon fill="midnightblue" stroke="midnightblue" points="314.88,-252.56 320.89,-243.83 310.75,-246.9 314.88,-252.56"/>
</g>
<!-- Node3 -->
<g id="node3" class="node">
<title>Node3</title>
<g id="a_node3"><a xlink:href="mxvector_8h.html" target="_top" xlink:title=" ">
<polygon fill="none" stroke="black" points="150,-112.5 150,-131.5 214,-131.5 214,-112.5 150,-112.5"/>
<text text-anchor="middle" x="182" y="-119.5" font-family="Helvetica,sans-Serif" font-size="10.00">mxvector.h</text>
</a>
</g>
</g>
<!-- Node2&#45;&gt;Node3 -->
<g id="edge2" class="edge">
<title>Node2&#45;&gt;Node3</title>
<path fill="none" stroke="midnightblue" d="M164.49,-224.37C167.56,-206.62 174.63,-165.67 178.79,-141.6"/>
<polygon fill="midnightblue" stroke="midnightblue" points="182.26,-142.04 180.52,-131.59 175.36,-140.85 182.26,-142.04"/>
</g>
<!-- Node6 -->
<g id="node6" class="node">
<title>Node6</title>
<g id="a_node6"><a xlink:href="mxmouseeventabstraction_8h.html" target="_top" xlink:title=" ">
<polygon fill="none" stroke="black" points="0,-168.5 0,-187.5 138,-187.5 138,-168.5 0,-168.5"/>
<text text-anchor="middle" x="69" y="-175.5" font-family="Helvetica,sans-Serif" font-size="10.00">mxmouseeventabstraction.h</text>
</a>
</g>
</g>
<!-- Node2&#45;&gt;Node6 -->
<g id="edge5" class="edge">
<title>Node2&#45;&gt;Node6</title>
<path fill="none" stroke="midnightblue" d="M147.9,-224.32C133.1,-215.82 110.31,-202.73 93.02,-192.8"/>
<polygon fill="midnightblue" stroke="midnightblue" points="94.48,-189.6 84.07,-187.65 90.99,-195.67 94.48,-189.6"/>
</g>
<!-- Node4 -->
<g id="node4" class="node">
<title>Node4</title>
<g id="a_node4"><a xlink:href="mxdebug_8h.html" target="_top" xlink:title=" ">
<polygon fill="none" stroke="black" points="165.5,-56.5 165.5,-75.5 228.5,-75.5 228.5,-56.5 165.5,-56.5"/>
<text text-anchor="middle" x="197" y="-63.5" font-family="Helvetica,sans-Serif" font-size="10.00">mxdebug.h</text>
</a>
</g>
</g>
<!-- Node3&#45;&gt;Node4 -->
<g id="edge3" class="edge">
<title>Node3&#45;&gt;Node4</title>
<path fill="none" stroke="midnightblue" d="M184.48,-112.08C186.49,-104.85 189.39,-94.41 191.89,-85.4"/>
<polygon fill="midnightblue" stroke="midnightblue" points="195.26,-86.32 194.57,-75.75 188.52,-84.45 195.26,-86.32"/>
</g>
<!-- Node5 -->
<g id="node5" class="node">
<title>Node5</title>
<g id="a_node5"><a xlink:title=" ">
<polygon fill="none" stroke="#bfbfbf" points="171,-0.5 171,-19.5 223,-19.5 223,-0.5 171,-0.5"/>
<text text-anchor="middle" x="197" y="-7.5" font-family="Helvetica,sans-Serif" font-size="10.00">QDebug</text>
</a>
</g>
</g>
<!-- Node4&#45;&gt;Node5 -->
<g id="edge4" class="edge">
<title>Node4&#45;&gt;Node5</title>
<path fill="none" stroke="midnightblue" d="M197,-56.08C197,-49.01 197,-38.86 197,-29.99"/>
<polygon fill="midnightblue" stroke="midnightblue" points="200.5,-29.75 197,-19.75 193.5,-29.75 200.5,-29.75"/>
</g>
<!-- Node7 -->
<g id="node7" class="node">
<title>Node7</title>
<g id="a_node7"><a xlink:title=" ">
<polygon fill="none" stroke="#bfbfbf" points="54.5,-112.5 54.5,-131.5 83.5,-131.5 83.5,-112.5 54.5,-112.5"/>
<text text-anchor="middle" x="69" y="-119.5" font-family="Helvetica,sans-Serif" font-size="10.00">Qt</text>
</a>
</g>
</g>
<!-- Node6&#45;&gt;Node7 -->
<g id="edge6" class="edge">
<title>Node6&#45;&gt;Node7</title>
<path fill="none" stroke="midnightblue" d="M69,-168.08C69,-161.01 69,-150.86 69,-141.99"/>
<polygon fill="midnightblue" stroke="midnightblue" points="72.5,-141.75 69,-131.75 65.5,-141.75 72.5,-141.75"/>
</g>
<!-- Node8&#45;&gt;Node3 -->
<g id="edge12" class="edge">
<title>Node8&#45;&gt;Node3</title>
<path fill="none" stroke="midnightblue" d="M251.53,-224.26C244.03,-215.36 232.28,-201.04 223,-188 211.79,-172.26 200.14,-153.52 192.14,-140.22"/>
<polygon fill="midnightblue" stroke="midnightblue" points="195.14,-138.41 187.01,-131.61 189.12,-141.99 195.14,-138.41"/>
</g>
<!-- Node9 -->
<g id="node9" class="node">
<title>Node9</title>
<g id="a_node9"><a xlink:href="mxrect_8h.html" target="_top" xlink:title=" ">
<polygon fill="none" stroke="black" points="232.5,-168.5 232.5,-187.5 285.5,-187.5 285.5,-168.5 232.5,-168.5"/>
<text text-anchor="middle" x="259" y="-175.5" font-family="Helvetica,sans-Serif" font-size="10.00">mxrect.h</text>
</a>
</g>
</g>
<!-- Node8&#45;&gt;Node9 -->
<g id="edge8" class="edge">
<title>Node8&#45;&gt;Node9</title>
<path fill="none" stroke="midnightblue" d="M259,-224.08C259,-217.01 259,-206.86 259,-197.99"/>
<polygon fill="midnightblue" stroke="midnightblue" points="262.5,-197.75 259,-187.75 255.5,-197.75 262.5,-197.75"/>
</g>
<!-- Node11 -->
<g id="node11" class="node">
<title>Node11</title>
<g id="a_node11"><a xlink:href="mxwidgetlist_8h.html" target="_top" xlink:title=" ">
<polygon fill="none" stroke="black" points="317,-168.5 317,-187.5 395,-187.5 395,-168.5 317,-168.5"/>
<text text-anchor="middle" x="356" y="-175.5" font-family="Helvetica,sans-Serif" font-size="10.00">mxwidgetlist.h</text>
</a>
</g>
</g>
<!-- Node8&#45;&gt;Node11 -->
<g id="edge13" class="edge">
<title>Node8&#45;&gt;Node11</title>
<path fill="none" stroke="midnightblue" d="M274.58,-224.32C290,-215.74 313.81,-202.49 331.71,-192.52"/>
<polygon fill="midnightblue" stroke="midnightblue" points="333.42,-195.58 340.45,-187.65 330.01,-189.46 333.42,-195.58"/>
</g>
<!-- Node9&#45;&gt;Node3 -->
<g id="edge10" class="edge">
<title>Node9&#45;&gt;Node3</title>
<path fill="none" stroke="midnightblue" d="M246.63,-168.32C234.84,-160.06 216.87,-147.45 202.86,-137.63"/>
<polygon fill="midnightblue" stroke="midnightblue" points="204.54,-134.53 194.34,-131.65 200.52,-140.26 204.54,-134.53"/>
</g>
<!-- Node9&#45;&gt;Node4 -->
<g id="edge9" class="edge">
<title>Node9&#45;&gt;Node4</title>
<path fill="none" stroke="midnightblue" d="M254.16,-168.14C247.29,-155.6 234.31,-131.99 223,-112 217.83,-102.86 211.98,-92.72 207.14,-84.39"/>
<polygon fill="midnightblue" stroke="midnightblue" points="210.09,-82.48 202.03,-75.6 204.04,-86 210.09,-82.48"/>
</g>
<!-- Node10 -->
<g id="node10" class="node">
<title>Node10</title>
<g id="a_node10"><a xlink:title=" ">
<polygon fill="none" stroke="#bfbfbf" points="270,-112.5 270,-131.5 326,-131.5 326,-112.5 270,-112.5"/>
<text text-anchor="middle" x="298" y="-119.5" font-family="Helvetica,sans-Serif" font-size="10.00">algorithm</text>
</a>
</g>
</g>
<!-- Node9&#45;&gt;Node10 -->
<g id="edge11" class="edge">
<title>Node9&#45;&gt;Node10</title>
<path fill="none" stroke="midnightblue" d="M265.44,-168.08C270.95,-160.46 279.03,-149.26 285.76,-139.94"/>
<polygon fill="midnightblue" stroke="midnightblue" points="288.66,-141.91 291.68,-131.75 282.99,-137.81 288.66,-141.91"/>
</g>
<!-- Node12 -->
<g id="node12" class="node">
<title>Node12</title>
<g id="a_node12"><a xlink:href="mxlist_8h.html" target="_top" xlink:title=" ">
<polygon fill="none" stroke="black" points="344,-112.5 344,-131.5 394,-131.5 394,-112.5 344,-112.5"/>
<text text-anchor="middle" x="369" y="-119.5" font-family="Helvetica,sans-Serif" font-size="10.00">mxlist.h</text>
</a>
</g>
</g>
<!-- Node11&#45;&gt;Node12 -->
<g id="edge14" class="edge">
<title>Node11&#45;&gt;Node12</title>
<path fill="none" stroke="midnightblue" d="M358.15,-168.08C359.87,-160.93 362.35,-150.64 364.5,-141.69"/>
<polygon fill="midnightblue" stroke="midnightblue" points="367.96,-142.29 366.89,-131.75 361.15,-140.65 367.96,-142.29"/>
</g>
<!-- Node12&#45;&gt;Node4 -->
<g id="edge15" class="edge">
<title>Node12&#45;&gt;Node4</title>
<path fill="none" stroke="midnightblue" d="M343.99,-113.15C315.11,-104.08 267.33,-89.08 234.12,-78.65"/>
<polygon fill="midnightblue" stroke="midnightblue" points="234.9,-75.23 224.31,-75.58 232.81,-81.91 234.9,-75.23"/>
</g>
<!-- Node13 -->
<g id="node13" class="node">
<title>Node13</title>
<g id="a_node13"><a xlink:href="mxrefcounter_8h.html" target="_top" xlink:title=" ">
<polygon fill="none" stroke="black" points="247,-56.5 247,-75.5 327,-75.5 327,-56.5 247,-56.5"/>
<text text-anchor="middle" x="287" y="-63.5" font-family="Helvetica,sans-Serif" font-size="10.00">mxrefcounter.h</text>
</a>
</g>
</g>
<!-- Node12&#45;&gt;Node13 -->
<g id="edge16" class="edge">
<title>Node12&#45;&gt;Node13</title>
<path fill="none" stroke="midnightblue" d="M355.83,-112.32C343.15,-103.98 323.77,-91.21 308.79,-81.35"/>
<polygon fill="midnightblue" stroke="midnightblue" points="310.42,-78.23 300.14,-75.65 306.57,-84.08 310.42,-78.23"/>
</g>
<!-- Node14 -->
<g id="node14" class="node">
<title>Node14</title>
<g id="a_node14"><a xlink:title=" ">
<polygon fill="none" stroke="#bfbfbf" points="345.5,-56.5 345.5,-75.5 392.5,-75.5 392.5,-56.5 345.5,-56.5"/>
<text text-anchor="middle" x="369" y="-63.5" font-family="Helvetica,sans-Serif" font-size="10.00">stdlib.h</text>
</a>
</g>
</g>
<!-- Node12&#45;&gt;Node14 -->
<g id="edge17" class="edge">
<title>Node12&#45;&gt;Node14</title>
<path fill="none" stroke="midnightblue" d="M369,-112.08C369,-105.01 369,-94.86 369,-85.99"/>
<polygon fill="midnightblue" stroke="midnightblue" points="372.5,-85.75 369,-75.75 365.5,-85.75 372.5,-85.75"/>
</g>
<!-- Node15 -->
<g id="node15" class="node">
<title>Node15</title>
<g id="a_node15"><a xlink:title=" ">
<polygon fill="none" stroke="#bfbfbf" points="411,-56.5 411,-75.5 459,-75.5 459,-56.5 411,-56.5"/>
<text text-anchor="middle" x="435" y="-63.5" font-family="Helvetica,sans-Serif" font-size="10.00">string.h</text>
</a>
</g>
</g>
<!-- Node12&#45;&gt;Node15 -->
<g id="edge18" class="edge">
<title>Node12&#45;&gt;Node15</title>
<path fill="none" stroke="midnightblue" d="M379.6,-112.32C389.46,-104.26 404.35,-92.08 416.22,-82.37"/>
<polygon fill="midnightblue" stroke="midnightblue" points="418.68,-84.88 424.2,-75.83 414.25,-79.46 418.68,-84.88"/>
</g>
<!-- Node16 -->
<g id="node16" class="node">
<title>Node16</title>
<g id="a_node16"><a xlink:title=" ">
<polygon fill="none" stroke="#bfbfbf" points="477.5,-56.5 477.5,-75.5 512.5,-75.5 512.5,-56.5 477.5,-56.5"/>
<text text-anchor="middle" x="495" y="-63.5" font-family="Helvetica,sans-Serif" font-size="10.00">new</text>
</a>
</g>
</g>
<!-- Node12&#45;&gt;Node16 -->
<g id="edge19" class="edge">
<title>Node12&#45;&gt;Node16</title>
<path fill="none" stroke="midnightblue" d="M388.97,-112.44C410.22,-103.34 443.98,-88.86 467.69,-78.71"/>
<polygon fill="midnightblue" stroke="midnightblue" points="469.35,-81.8 477.17,-74.64 466.6,-75.37 469.35,-81.8"/>
</g>
</g>
</svg>
