<?xml version="1.0" encoding="UTF-8" standalone="no"?>
<!DOCTYPE svg PUBLIC "-//W3C//DTD SVG 1.1//EN"
 "http://www.w3.org/Graphics/SVG/1.1/DTD/svg11.dtd">
<!-- Generated by graphviz version 2.44.0 ()
 -->
<!-- Title: src/platformabstraction/qt/mxopengl.h Pages: 1 -->
<svg width="609pt" height="307pt"
 viewBox="0.00 0.00 609.00 307.00" xmlns="http://www.w3.org/2000/svg" xmlns:xlink="http://www.w3.org/1999/xlink">
<g id="graph0" class="graph" transform="scale(1 1) rotate(0) translate(4 303)">
<title>src/platformabstraction/qt/mxopengl.h</title>
<!-- Node1 -->
<g id="node1" class="node">
<title>Node1</title>
<g id="a_node1"><a xlink:title=" ">
<polygon fill="#bfbfbf" stroke="black" points="257.5,-268.5 257.5,-298.5 373.5,-298.5 373.5,-268.5 257.5,-268.5"/>
<text text-anchor="start" x="265.5" y="-286.5" font-family="Helvetica,sans-Serif" font-size="10.00">src/platformabstraction</text>
<text text-anchor="middle" x="315.5" y="-275.5" font-family="Helvetica,sans-Serif" font-size="10.00">/qt/mxopengl.h</text>
</a>
</g>
</g>
<!-- Node2 -->
<g id="node2" class="node">
<title>Node2</title>
<g id="a_node2"><a xlink:href="mxiconprogram_8h.html" target="_top" xlink:title=" ">
<polygon fill="none" stroke="black" points="136,-201.5 136,-231.5 285,-231.5 285,-201.5 136,-201.5"/>
<text text-anchor="start" x="144" y="-219.5" font-family="Helvetica,sans-Serif" font-size="10.00">src/renderer/opengl</text>
<text text-anchor="middle" x="210.5" y="-208.5" font-family="Helvetica,sans-Serif" font-size="10.00">/iconprogram/mxiconprogram.h</text>
</a>
</g>
</g>
<!-- Node1&#45;&gt;Node2 -->
<g id="edge1" class="edge">
<title>Node1&#45;&gt;Node2</title>
<path fill="none" stroke="midnightblue" d="M284.02,-263.02C267.68,-252.9 248.09,-240.77 233.24,-231.58"/>
<polygon fill="midnightblue" stroke="midnightblue" points="282.37,-266.11 292.72,-268.4 286.06,-260.16 282.37,-266.11"/>
</g>
<!-- Node6 -->
<g id="node6" class="node">
<title>Node6</title>
<g id="a_node6"><a xlink:href="opengl_2mxgpuarray_8cpp.html" target="_top" xlink:title=" ">
<polygon fill="none" stroke="black" points="263.5,-0.5 263.5,-30.5 363.5,-30.5 363.5,-0.5 263.5,-0.5"/>
<text text-anchor="start" x="271.5" y="-18.5" font-family="Helvetica,sans-Serif" font-size="10.00">src/renderer/opengl</text>
<text text-anchor="middle" x="313.5" y="-7.5" font-family="Helvetica,sans-Serif" font-size="10.00">/mxgpuarray.cpp</text>
</a>
</g>
</g>
<!-- Node1&#45;&gt;Node6 -->
<g id="edge8" class="edge">
<title>Node1&#45;&gt;Node6</title>
<path fill="none" stroke="midnightblue" d="M315.32,-258.07C314.91,-203.57 313.93,-73.52 313.61,-30.55"/>
<polygon fill="midnightblue" stroke="midnightblue" points="311.82,-258.23 315.39,-268.2 318.82,-258.17 311.82,-258.23"/>
</g>
<!-- Node9 -->
<g id="node9" class="node">
<title>Node9</title>
<g id="a_node9"><a xlink:href="opengl_2mxgpuprogram_8h.html" target="_top" xlink:title=" ">
<polygon fill="none" stroke="black" points="381.5,-201.5 381.5,-231.5 481.5,-231.5 481.5,-201.5 381.5,-201.5"/>
<text text-anchor="start" x="389.5" y="-219.5" font-family="Helvetica,sans-Serif" font-size="10.00">src/renderer/opengl</text>
<text text-anchor="middle" x="431.5" y="-208.5" font-family="Helvetica,sans-Serif" font-size="10.00">/mxgpuprogram.h</text>
</a>
</g>
</g>
<!-- Node1&#45;&gt;Node9 -->
<g id="edge9" class="edge">
<title>Node1&#45;&gt;Node9</title>
<path fill="none" stroke="midnightblue" d="M349.77,-263.3C367.92,-253.12 389.82,-240.85 406.38,-231.58"/>
<polygon fill="midnightblue" stroke="midnightblue" points="347.68,-260.45 340.67,-268.4 351.1,-266.56 347.68,-260.45"/>
</g>
<!-- Node3 -->
<g id="node3" class="node">
<title>Node3</title>
<g id="a_node3"><a xlink:href="mxpainter_8cpp.html" target="_top" xlink:title=" ">
<polygon fill="none" stroke="black" points="0,-140 0,-159 109,-159 109,-140 0,-140"/>
<text text-anchor="middle" x="54.5" y="-147" font-family="Helvetica,sans-Serif" font-size="10.00">src/gui/mxpainter.cpp</text>
</a>
</g>
</g>
<!-- Node2&#45;&gt;Node3 -->
<g id="edge2" class="edge">
<title>Node2&#45;&gt;Node3</title>
<path fill="none" stroke="midnightblue" d="M167.2,-197.46C137.06,-184.9 98.24,-168.72 74.92,-159.01"/>
<polygon fill="midnightblue" stroke="midnightblue" points="166.07,-200.78 176.65,-201.4 168.77,-194.32 166.07,-200.78"/>
</g>
<!-- Node4 -->
<g id="node4" class="node">
<title>Node4</title>
<g id="a_node4"><a xlink:href="mxiconprogram_8cpp.html" target="_top" xlink:title=" ">
<polygon fill="none" stroke="black" points="127.5,-134.5 127.5,-164.5 287.5,-164.5 287.5,-134.5 127.5,-134.5"/>
<text text-anchor="start" x="135.5" y="-152.5" font-family="Helvetica,sans-Serif" font-size="10.00">src/renderer/opengl</text>
<text text-anchor="middle" x="207.5" y="-141.5" font-family="Helvetica,sans-Serif" font-size="10.00">/iconprogram/mxiconprogram.cpp</text>
</a>
</g>
</g>
<!-- Node2&#45;&gt;Node4 -->
<g id="edge3" class="edge">
<title>Node2&#45;&gt;Node4</title>
<path fill="none" stroke="midnightblue" d="M209.39,-191.4C208.97,-182.37 208.51,-172.41 208.15,-164.58"/>
<polygon fill="midnightblue" stroke="midnightblue" points="205.89,-191.57 209.85,-201.4 212.88,-191.25 205.89,-191.57"/>
</g>
<!-- Node5 -->
<g id="node5" class="node">
<title>Node5</title>
<g id="a_node5"><a xlink:href="opengl_2mxrenderer_8h.html" target="_top" xlink:title=" ">
<polygon fill="none" stroke="black" points="381.5,-67.5 381.5,-97.5 481.5,-97.5 481.5,-67.5 381.5,-67.5"/>
<text text-anchor="start" x="389.5" y="-85.5" font-family="Helvetica,sans-Serif" font-size="10.00">src/renderer/opengl</text>
<text text-anchor="middle" x="431.5" y="-74.5" font-family="Helvetica,sans-Serif" font-size="10.00">/mxrenderer.h</text>
</a>
</g>
</g>
<!-- Node2&#45;&gt;Node5 -->
<g id="edge4" class="edge">
<title>Node2&#45;&gt;Node5</title>
<path fill="none" stroke="midnightblue" d="M243.62,-196.18C259.62,-186.81 279.09,-175.37 296.5,-165 335.78,-141.61 381.26,-114.05 408.14,-97.72"/>
<polygon fill="midnightblue" stroke="midnightblue" points="241.51,-193.36 234.64,-201.43 245.04,-199.4 241.51,-193.36"/>
</g>
<!-- Node5&#45;&gt;Node6 -->
<g id="edge5" class="edge">
<title>Node5&#45;&gt;Node6</title>
<path fill="none" stroke="midnightblue" d="M396.89,-62.44C378.38,-52.24 355.98,-39.9 339.05,-30.58"/>
<polygon fill="midnightblue" stroke="midnightblue" points="395.45,-65.64 405.9,-67.4 398.83,-59.51 395.45,-65.64"/>
</g>
<!-- Node7 -->
<g id="node7" class="node">
<title>Node7</title>
<g id="a_node7"><a xlink:href="opengl_2mxgpuprogram_8cpp.html" target="_top" xlink:title=" ">
<polygon fill="none" stroke="black" points="500,-0.5 500,-30.5 601,-30.5 601,-0.5 500,-0.5"/>
<text text-anchor="start" x="508" y="-18.5" font-family="Helvetica,sans-Serif" font-size="10.00">src/renderer/opengl</text>
<text text-anchor="middle" x="550.5" y="-7.5" font-family="Helvetica,sans-Serif" font-size="10.00">/mxgpuprogram.cpp</text>
</a>
</g>
</g>
<!-- Node5&#45;&gt;Node7 -->
<g id="edge6" class="edge">
<title>Node5&#45;&gt;Node7</title>
<path fill="none" stroke="midnightblue" d="M466.15,-62.57C484.87,-52.35 507.59,-39.94 524.73,-30.58"/>
<polygon fill="midnightblue" stroke="midnightblue" points="464.42,-59.53 457.32,-67.4 467.78,-65.67 464.42,-59.53"/>
</g>
<!-- Node8 -->
<g id="node8" class="node">
<title>Node8</title>
<g id="a_node8"><a xlink:href="opengl_2mxrenderer_8cpp.html" target="_top" xlink:title=" ">
<polygon fill="none" stroke="black" points="381.5,-0.5 381.5,-30.5 481.5,-30.5 481.5,-0.5 381.5,-0.5"/>
<text text-anchor="start" x="389.5" y="-18.5" font-family="Helvetica,sans-Serif" font-size="10.00">src/renderer/opengl</text>
<text text-anchor="middle" x="431.5" y="-7.5" font-family="Helvetica,sans-Serif" font-size="10.00">/mxrenderer.cpp</text>
</a>
</g>
</g>
<!-- Node5&#45;&gt;Node8 -->
<g id="edge7" class="edge">
<title>Node5&#45;&gt;Node8</title>
<path fill="none" stroke="midnightblue" d="M431.5,-57.11C431.5,-48.15 431.5,-38.32 431.5,-30.58"/>
<polygon fill="midnightblue" stroke="midnightblue" points="428,-57.4 431.5,-67.4 435,-57.4 428,-57.4"/>
</g>
<!-- Node9&#45;&gt;Node7 -->
<g id="edge14" class="edge">
<title>Node9&#45;&gt;Node7</title>
<path fill="none" stroke="midnightblue" d="M460.73,-195.12C471.18,-186.73 482.36,-176.32 490.5,-165 521.99,-121.2 540.21,-58.51 547.19,-30.71"/>
<polygon fill="midnightblue" stroke="midnightblue" points="458.37,-192.52 452.59,-201.39 462.65,-198.06 458.37,-192.52"/>
</g>
<!-- Node10 -->
<g id="node10" class="node">
<title>Node10</title>
<g id="a_node10"><a xlink:href="opengl_2mxgpuarray_8h.html" target="_top" xlink:title=" ">
<polygon fill="none" stroke="black" points="381.5,-134.5 381.5,-164.5 481.5,-164.5 481.5,-134.5 381.5,-134.5"/>
<text text-anchor="start" x="389.5" y="-152.5" font-family="Helvetica,sans-Serif" font-size="10.00">src/renderer/opengl</text>
<text text-anchor="middle" x="431.5" y="-141.5" font-family="Helvetica,sans-Serif" font-size="10.00">/mxgpuarray.h</text>
</a>
</g>
</g>
<!-- Node9&#45;&gt;Node10 -->
<g id="edge10" class="edge">
<title>Node9&#45;&gt;Node10</title>
<path fill="none" stroke="midnightblue" d="M431.5,-191.11C431.5,-182.15 431.5,-172.32 431.5,-164.58"/>
<polygon fill="midnightblue" stroke="midnightblue" points="428,-191.4 431.5,-201.4 435,-191.4 428,-191.4"/>
</g>
<!-- Node10&#45;&gt;Node5 -->
<g id="edge13" class="edge">
<title>Node10&#45;&gt;Node5</title>
<path fill="none" stroke="midnightblue" d="M431.5,-124.11C431.5,-115.15 431.5,-105.32 431.5,-97.58"/>
<polygon fill="midnightblue" stroke="midnightblue" points="428,-124.4 431.5,-134.4 435,-124.4 428,-124.4"/>
</g>
<!-- Node10&#45;&gt;Node6 -->
<g id="edge11" class="edge">
<title>Node10&#45;&gt;Node6</title>
<path fill="none" stroke="midnightblue" d="M404.6,-127.76C394.08,-119.08 382.23,-108.56 372.5,-98 352.37,-76.17 332.96,-47.39 322.19,-30.52"/>
<polygon fill="midnightblue" stroke="midnightblue" points="402.71,-130.73 412.69,-134.29 407.11,-125.28 402.71,-130.73"/>
</g>
<!-- Node10&#45;&gt;Node7 -->
<g id="edge12" class="edge">
<title>Node10&#45;&gt;Node7</title>
<path fill="none" stroke="midnightblue" d="M457.81,-128.17C468.45,-119.4 480.55,-108.7 490.5,-98 510.83,-76.12 530.62,-47.36 541.62,-30.51"/>
<polygon fill="midnightblue" stroke="midnightblue" points="455.59,-125.46 450.01,-134.47 459.99,-130.91 455.59,-125.46"/>
</g>
</g>
</svg>
