<?xml version="1.0" encoding="UTF-8" standalone="no"?>
<!DOCTYPE svg PUBLIC "-//W3C//DTD SVG 1.1//EN"
 "http://www.w3.org/Graphics/SVG/1.1/DTD/svg11.dtd">
<!-- Generated by graphviz version 2.44.0 ()
 -->
<!-- Title: src/platformabstraction/qt/mxopengl.h Pages: 1 -->
<svg width="1865pt" height="553pt"
 viewBox="0.00 0.00 1865.00 553.00" xmlns="http://www.w3.org/2000/svg" xmlns:xlink="http://www.w3.org/1999/xlink">
<g id="graph0" class="graph" transform="scale(1 1) rotate(0) translate(4 549)">
<title>src/platformabstraction/qt/mxopengl.h</title>
<!-- Node1 -->
<g id="node1" class="node">
<title>Node1</title>
<g id="a_node1"><a xlink:title=" ">
<polygon fill="#bfbfbf" stroke="black" points="1567,-514.5 1567,-544.5 1683,-544.5 1683,-514.5 1567,-514.5"/>
<text text-anchor="start" x="1575" y="-532.5" font-family="Helvetica,sans-Serif" font-size="10.00">src/platformabstraction</text>
<text text-anchor="middle" x="1625" y="-521.5" font-family="Helvetica,sans-Serif" font-size="10.00">/qt/mxopengl.h</text>
</a>
</g>
</g>
<!-- Node2 -->
<g id="node2" class="node">
<title>Node2</title>
<g id="a_node2"><a xlink:href="mxcolorwheelprogram_8h.html" target="_top" xlink:title=" ">
<polygon fill="none" stroke="black" points="81,-335.5 81,-365.5 203,-365.5 203,-335.5 81,-335.5"/>
<text text-anchor="start" x="89" y="-353.5" font-family="Helvetica,sans-Serif" font-size="10.00">src/gui/colorselector</text>
<text text-anchor="middle" x="142" y="-342.5" font-family="Helvetica,sans-Serif" font-size="10.00">/mxcolorwheelprogram.h</text>
</a>
</g>
</g>
<!-- Node1&#45;&gt;Node2 -->
<g id="edge1" class="edge">
<title>Node1&#45;&gt;Node2</title>
<path fill="none" stroke="midnightblue" d="M1556.69,-527.67C1301.9,-524.35 415.35,-510.55 293,-478 241.13,-464.2 225.36,-458.49 186,-422 168.54,-405.82 155.31,-381.21 148.11,-365.76"/>
<polygon fill="midnightblue" stroke="midnightblue" points="1556.87,-531.18 1566.92,-527.81 1556.96,-524.18 1556.87,-531.18"/>
</g>
<!-- Node13 -->
<g id="node13" class="node">
<title>Node13</title>
<g id="a_node13"><a xlink:href="gpubuffer_8cpp.html" target="_top" xlink:title=" ">
<polygon fill="none" stroke="black" points="1634.5,-73 1634.5,-92 1741.5,-92 1741.5,-73 1634.5,-73"/>
<text text-anchor="middle" x="1688" y="-80" font-family="Helvetica,sans-Serif" font-size="10.00">src/gui/gpubuffer.cpp</text>
</a>
</g>
</g>
<!-- Node1&#45;&gt;Node13 -->
<g id="edge20" class="edge">
<title>Node1&#45;&gt;Node13</title>
<path fill="none" stroke="midnightblue" d="M1675.32,-510.35C1715.11,-492.4 1764,-460.64 1764,-413 1764,-413 1764,-413 1764,-215.5 1764,-162.61 1717.61,-111.8 1697.32,-92.09"/>
<polygon fill="midnightblue" stroke="midnightblue" points="1673.74,-507.22 1665.95,-514.41 1676.52,-513.65 1673.74,-507.22"/>
</g>
<!-- Node14 -->
<g id="node14" class="node">
<title>Node14</title>
<g id="a_node14"><a xlink:href="gpuvbo_8cpp.html" target="_top" xlink:title=" ">
<polygon fill="none" stroke="black" points="1759,-73 1759,-92 1857,-92 1857,-73 1759,-73"/>
<text text-anchor="middle" x="1808" y="-80" font-family="Helvetica,sans-Serif" font-size="10.00">src/gui/gpuvbo.cpp</text>
</a>
</g>
</g>
<!-- Node1&#45;&gt;Node14 -->
<g id="edge21" class="edge">
<title>Node1&#45;&gt;Node14</title>
<path fill="none" stroke="midnightblue" d="M1693.09,-520.54C1756.08,-508.94 1840,-480.77 1840,-413 1840,-413 1840,-413 1840,-215.5 1840,-167.87 1820.08,-113.22 1811.67,-92.28"/>
<polygon fill="midnightblue" stroke="midnightblue" points="1692.43,-517.11 1683.18,-522.27 1693.63,-524 1692.43,-517.11"/>
</g>
<!-- Node18 -->
<g id="node18" class="node">
<title>Node18</title>
<g id="a_node18"><a xlink:href="mxvectordraw_8cpp.html" target="_top" xlink:title=" ">
<polygon fill="none" stroke="black" points="1519,-67.5 1519,-97.5 1617,-97.5 1617,-67.5 1519,-67.5"/>
<text text-anchor="start" x="1527" y="-85.5" font-family="Helvetica,sans-Serif" font-size="10.00">src/gui/vectordraw</text>
<text text-anchor="middle" x="1568" y="-74.5" font-family="Helvetica,sans-Serif" font-size="10.00">/mxvectordraw.cpp</text>
</a>
</g>
</g>
<!-- Node1&#45;&gt;Node18 -->
<g id="edge52" class="edge">
<title>Node1&#45;&gt;Node18</title>
<path fill="none" stroke="midnightblue" d="M1658.38,-508.98C1687.79,-488.98 1726,-454.94 1726,-413 1726,-413 1726,-413 1726,-215.5 1726,-154.74 1656.33,-116.46 1609.51,-97.61"/>
<polygon fill="midnightblue" stroke="midnightblue" points="1656.42,-506.08 1649.97,-514.48 1660.25,-511.93 1656.42,-506.08"/>
</g>
<!-- Node20 -->
<g id="node20" class="node">
<title>Node20</title>
<g id="a_node20"><a xlink:href="gpuvbo_8h.html" target="_top" xlink:title=" ">
<polygon fill="none" stroke="black" points="861,-402.5 861,-421.5 949,-421.5 949,-402.5 861,-402.5"/>
<text text-anchor="middle" x="905" y="-409.5" font-family="Helvetica,sans-Serif" font-size="10.00">src/gui/gpuvbo.h</text>
</a>
</g>
</g>
<!-- Node1&#45;&gt;Node20 -->
<g id="edge22" class="edge">
<title>Node1&#45;&gt;Node20</title>
<path fill="none" stroke="midnightblue" d="M1556.81,-517.56C1410.67,-494.12 1070.7,-439.58 949.17,-420.09"/>
<polygon fill="midnightblue" stroke="midnightblue" points="1556.57,-521.07 1566.99,-519.19 1557.67,-514.15 1556.57,-521.07"/>
</g>
<!-- Node33 -->
<g id="node33" class="node">
<title>Node33</title>
<g id="a_node33"><a xlink:href="mxshaderprogram_8h.html" target="_top" xlink:title=" ">
<polygon fill="none" stroke="black" points="302,-458.5 302,-477.5 436,-477.5 436,-458.5 302,-458.5"/>
<text text-anchor="middle" x="369" y="-465.5" font-family="Helvetica,sans-Serif" font-size="10.00">src/gui/mxshaderprogram.h</text>
</a>
</g>
</g>
<!-- Node1&#45;&gt;Node33 -->
<g id="edge47" class="edge">
<title>Node1&#45;&gt;Node33</title>
<path fill="none" stroke="midnightblue" d="M1556.87,-525.27C1337.89,-514.9 653.72,-482.49 436.15,-472.18"/>
<polygon fill="midnightblue" stroke="midnightblue" points="1556.79,-528.77 1566.94,-525.75 1557.12,-521.78 1556.79,-528.77"/>
</g>
<!-- Node3 -->
<g id="node3" class="node">
<title>Node3</title>
<g id="a_node3"><a xlink:href="mxcolorwheelprogram_8cpp.html" target="_top" xlink:title=" ">
<polygon fill="none" stroke="black" points="0,-67.5 0,-97.5 132,-97.5 132,-67.5 0,-67.5"/>
<text text-anchor="start" x="8" y="-85.5" font-family="Helvetica,sans-Serif" font-size="10.00">src/gui/colorselector</text>
<text text-anchor="middle" x="66" y="-74.5" font-family="Helvetica,sans-Serif" font-size="10.00">/mxcolorwheelprogram.cpp</text>
</a>
</g>
</g>
<!-- Node2&#45;&gt;Node3 -->
<g id="edge2" class="edge">
<title>Node2&#45;&gt;Node3</title>
<path fill="none" stroke="midnightblue" d="M135.12,-325.41C119.6,-271.12 82.32,-140.61 70.01,-97.55"/>
<polygon fill="midnightblue" stroke="midnightblue" points="131.8,-326.54 137.91,-335.2 138.53,-324.62 131.8,-326.54"/>
</g>
<!-- Node4 -->
<g id="node4" class="node">
<title>Node4</title>
<g id="a_node4"><a xlink:href="mxrenderer_8h.html" target="_top" xlink:title=" ">
<polygon fill="none" stroke="black" points="297.5,-140 297.5,-159 440.5,-159 440.5,-140 297.5,-140"/>
<text text-anchor="middle" x="369" y="-147" font-family="Helvetica,sans-Serif" font-size="10.00">src/gui/renderer/mxrenderer.h</text>
</a>
</g>
</g>
<!-- Node2&#45;&gt;Node4 -->
<g id="edge3" class="edge">
<title>Node2&#45;&gt;Node4</title>
<path fill="none" stroke="midnightblue" d="M165.06,-328.64C197.11,-299.72 257.07,-245.93 309,-201 326.09,-186.21 346.25,-169.37 358.3,-159.35"/>
<polygon fill="midnightblue" stroke="midnightblue" points="162.61,-326.14 157.53,-335.44 167.3,-331.33 162.61,-326.14"/>
</g>
<!-- Node4&#45;&gt;Node3 -->
<g id="edge9" class="edge">
<title>Node4&#45;&gt;Node3</title>
<path fill="none" stroke="midnightblue" d="M319.23,-137.82C267.99,-126.83 187.9,-109.65 131.54,-97.56"/>
<polygon fill="midnightblue" stroke="midnightblue" points="318.56,-141.26 329.08,-139.94 320.03,-134.42 318.56,-141.26"/>
</g>
<!-- Node5 -->
<g id="node5" class="node">
<title>Node5</title>
<g id="a_node5"><a xlink:href="mxapplication_8h.html" target="_top" xlink:title=" ">
<polygon fill="none" stroke="black" points="964,-73 964,-92 1096,-92 1096,-73 964,-73"/>
<text text-anchor="middle" x="1030" y="-80" font-family="Helvetica,sans-Serif" font-size="10.00">src/events/mxapplication.h</text>
</a>
</g>
</g>
<!-- Node4&#45;&gt;Node5 -->
<g id="edge4" class="edge">
<title>Node4&#45;&gt;Node5</title>
<path fill="none" stroke="midnightblue" d="M422.71,-138.18C431.8,-136.64 441.15,-135.17 450,-134 635.36,-109.39 855.71,-93.98 963.68,-87.32"/>
<polygon fill="midnightblue" stroke="midnightblue" points="421.85,-134.78 412.61,-139.95 423.06,-141.68 421.85,-134.78"/>
</g>
<!-- Node10 -->
<g id="node10" class="node">
<title>Node10</title>
<g id="a_node10"><a xlink:href="gui_2colorselector_2test__colorwheel_2testwindow_8h.html" target="_top" xlink:title=" ">
<polygon fill="none" stroke="black" points="615,-67.5 615,-97.5 763,-97.5 763,-67.5 615,-67.5"/>
<text text-anchor="start" x="623" y="-85.5" font-family="Helvetica,sans-Serif" font-size="10.00">src/gui/colorselector</text>
<text text-anchor="middle" x="689" y="-74.5" font-family="Helvetica,sans-Serif" font-size="10.00">/test_colorwheel/testwindow.h</text>
</a>
</g>
</g>
<!-- Node4&#45;&gt;Node10 -->
<g id="edge10" class="edge">
<title>Node4&#45;&gt;Node10</title>
<path fill="none" stroke="midnightblue" d="M421.23,-137.89C475.32,-126.9 560.13,-109.68 619.79,-97.56"/>
<polygon fill="midnightblue" stroke="midnightblue" points="420.27,-134.51 411.16,-139.94 421.66,-141.37 420.27,-134.51"/>
</g>
<!-- Node4&#45;&gt;Node13 -->
<g id="edge13" class="edge">
<title>Node4&#45;&gt;Node13</title>
<path fill="none" stroke="midnightblue" d="M420.14,-138.18C430.01,-136.51 440.3,-135.01 450,-134 970.09,-79.78 1107.51,-165.88 1626,-98 1636.19,-96.67 1647.16,-94.39 1657,-92.03"/>
<polygon fill="midnightblue" stroke="midnightblue" points="419.28,-134.77 410.04,-139.95 420.5,-141.67 419.28,-134.77"/>
</g>
<!-- Node4&#45;&gt;Node14 -->
<g id="edge14" class="edge">
<title>Node4&#45;&gt;Node14</title>
<path fill="none" stroke="midnightblue" d="M420.13,-138.15C430.01,-136.49 440.3,-135 450,-134 1025.41,-74.87 1178.09,-177.79 1751,-98 1760.41,-96.69 1770.5,-94.42 1779.54,-92.06"/>
<polygon fill="midnightblue" stroke="midnightblue" points="419.28,-134.75 410.04,-139.93 420.49,-141.64 419.28,-134.75"/>
</g>
<!-- Node15 -->
<g id="node15" class="node">
<title>Node15</title>
<g id="a_node15"><a xlink:href="mxpainter_8cpp.html" target="_top" xlink:title=" ">
<polygon fill="none" stroke="black" points="1125.5,-73 1125.5,-92 1234.5,-92 1234.5,-73 1125.5,-73"/>
<text text-anchor="middle" x="1180" y="-80" font-family="Helvetica,sans-Serif" font-size="10.00">src/gui/mxpainter.cpp</text>
</a>
</g>
</g>
<!-- Node4&#45;&gt;Node15 -->
<g id="edge15" class="edge">
<title>Node4&#45;&gt;Node15</title>
<path fill="none" stroke="midnightblue" d="M420.8,-138.26C430.47,-136.62 440.52,-135.1 450,-134 739.59,-100.25 815.65,-133.75 1105,-98 1116.85,-96.54 1129.63,-94.31 1141.23,-92.04"/>
<polygon fill="midnightblue" stroke="midnightblue" points="420.14,-134.82 410.9,-139.99 421.35,-141.71 420.14,-134.82"/>
</g>
<!-- Node16 -->
<g id="node16" class="node">
<title>Node16</title>
<g id="a_node16"><a xlink:href="mxshaderprogram_8cpp.html" target="_top" xlink:title=" ">
<polygon fill="none" stroke="black" points="150,-73 150,-92 294,-92 294,-73 150,-73"/>
<text text-anchor="middle" x="222" y="-80" font-family="Helvetica,sans-Serif" font-size="10.00">src/gui/mxshaderprogram.cpp</text>
</a>
</g>
</g>
<!-- Node4&#45;&gt;Node16 -->
<g id="edge16" class="edge">
<title>Node4&#45;&gt;Node16</title>
<path fill="none" stroke="midnightblue" d="M340.24,-135.78C311.12,-122.91 266.9,-103.35 241.6,-92.17"/>
<polygon fill="midnightblue" stroke="midnightblue" points="338.92,-139.03 349.48,-139.87 341.75,-132.62 338.92,-139.03"/>
</g>
<!-- Node17 -->
<g id="node17" class="node">
<title>Node17</title>
<g id="a_node17"><a xlink:href="mxrenderer_8cpp.html" target="_top" xlink:title=" ">
<polygon fill="none" stroke="black" points="443.5,-73 443.5,-92 596.5,-92 596.5,-73 443.5,-73"/>
<text text-anchor="middle" x="520" y="-80" font-family="Helvetica,sans-Serif" font-size="10.00">src/gui/renderer/mxrenderer.cpp</text>
</a>
</g>
</g>
<!-- Node4&#45;&gt;Node17 -->
<g id="edge17" class="edge">
<title>Node4&#45;&gt;Node17</title>
<path fill="none" stroke="midnightblue" d="M398.55,-135.78C428.45,-122.91 473.88,-103.35 499.87,-92.17"/>
<polygon fill="midnightblue" stroke="midnightblue" points="396.85,-132.7 389.05,-139.87 399.62,-139.13 396.85,-132.7"/>
</g>
<!-- Node4&#45;&gt;Node18 -->
<g id="edge18" class="edge">
<title>Node4&#45;&gt;Node18</title>
<path fill="none" stroke="midnightblue" d="M420.47,-138.24C430.24,-136.58 440.41,-135.07 450,-134 456.74,-133.25 1303.86,-95.32 1518.84,-85.7"/>
<polygon fill="midnightblue" stroke="midnightblue" points="419.71,-134.81 410.47,-139.99 420.92,-141.71 419.71,-134.81"/>
</g>
<!-- Node19 -->
<g id="node19" class="node">
<title>Node19</title>
<g id="a_node19"><a xlink:href="mxvectorprogram_8cpp.html" target="_top" xlink:title=" ">
<polygon fill="none" stroke="black" points="312.5,-67.5 312.5,-97.5 425.5,-97.5 425.5,-67.5 312.5,-67.5"/>
<text text-anchor="start" x="320.5" y="-85.5" font-family="Helvetica,sans-Serif" font-size="10.00">src/gui/vectordraw</text>
<text text-anchor="middle" x="369" y="-74.5" font-family="Helvetica,sans-Serif" font-size="10.00">/mxvectorprogram.cpp</text>
</a>
</g>
</g>
<!-- Node4&#45;&gt;Node19 -->
<g id="edge19" class="edge">
<title>Node4&#45;&gt;Node19</title>
<path fill="none" stroke="midnightblue" d="M369,-129.41C369,-119.22 369,-106.9 369,-97.59"/>
<polygon fill="midnightblue" stroke="midnightblue" points="365.5,-129.73 369,-139.73 372.5,-129.73 365.5,-129.73"/>
</g>
<!-- Node6 -->
<g id="node6" class="node">
<title>Node6</title>
<g id="a_node6"><a xlink:href="mxapplication_8cpp.html" target="_top" xlink:title=" ">
<polygon fill="none" stroke="black" points="1115.5,-6 1115.5,-25 1258.5,-25 1258.5,-6 1115.5,-6"/>
<text text-anchor="middle" x="1187" y="-13" font-family="Helvetica,sans-Serif" font-size="10.00">src/events/mxapplication.cpp</text>
</a>
</g>
</g>
<!-- Node5&#45;&gt;Node6 -->
<g id="edge5" class="edge">
<title>Node5&#45;&gt;Node6</title>
<path fill="none" stroke="midnightblue" d="M1060.32,-68.95C1091.4,-56.08 1138.93,-36.4 1166.07,-25.17"/>
<polygon fill="midnightblue" stroke="midnightblue" points="1058.75,-65.81 1050.85,-72.87 1061.43,-72.28 1058.75,-65.81"/>
</g>
<!-- Node7 -->
<g id="node7" class="node">
<title>Node7</title>
<g id="a_node7"><a xlink:href="qmewawindow_8cpp.html" target="_top" xlink:title=" ">
<polygon fill="none" stroke="black" points="1277,-0.5 1277,-30.5 1393,-30.5 1393,-0.5 1277,-0.5"/>
<text text-anchor="start" x="1285" y="-18.5" font-family="Helvetica,sans-Serif" font-size="10.00">src/platformabstraction</text>
<text text-anchor="middle" x="1335" y="-7.5" font-family="Helvetica,sans-Serif" font-size="10.00">/qt/qmewawindow.cpp</text>
</a>
</g>
</g>
<!-- Node5&#45;&gt;Node7 -->
<g id="edge6" class="edge">
<title>Node5&#45;&gt;Node7</title>
<path fill="none" stroke="midnightblue" d="M1080.3,-70.89C1128.48,-60.71 1203.22,-44.88 1268,-31 1270.91,-30.38 1273.89,-29.74 1276.9,-29.09"/>
<polygon fill="midnightblue" stroke="midnightblue" points="1079.5,-67.48 1070.44,-72.97 1080.94,-74.33 1079.5,-67.48"/>
</g>
<!-- Node8 -->
<g id="node8" class="node">
<title>Node8</title>
<g id="a_node8"><a xlink:href="storewindow_2test__storebuttons_2main_8cpp.html" target="_top" xlink:title=" ">
<polygon fill="none" stroke="black" points="815,-0.5 815,-30.5 933,-30.5 933,-0.5 815,-0.5"/>
<text text-anchor="start" x="823" y="-18.5" font-family="Helvetica,sans-Serif" font-size="10.00">src/storewindow/test</text>
<text text-anchor="middle" x="874" y="-7.5" font-family="Helvetica,sans-Serif" font-size="10.00">_storebuttons/main.cpp</text>
</a>
</g>
</g>
<!-- Node5&#45;&gt;Node8 -->
<g id="edge7" class="edge">
<title>Node5&#45;&gt;Node8</title>
<path fill="none" stroke="midnightblue" d="M999.79,-68.91C973.37,-57.91 935.06,-41.94 907.67,-30.53"/>
<polygon fill="midnightblue" stroke="midnightblue" points="998.71,-72.25 1009.28,-72.87 1001.4,-65.79 998.71,-72.25"/>
</g>
<!-- Node9 -->
<g id="node9" class="node">
<title>Node9</title>
<g id="a_node9"><a xlink:href="storewindow_2test__storebuttons_2testwindow_8cpp.html" target="_top" xlink:title=" ">
<polygon fill="none" stroke="black" points="951,-0.5 951,-30.5 1097,-30.5 1097,-0.5 951,-0.5"/>
<text text-anchor="start" x="959" y="-18.5" font-family="Helvetica,sans-Serif" font-size="10.00">src/storewindow/test</text>
<text text-anchor="middle" x="1024" y="-7.5" font-family="Helvetica,sans-Serif" font-size="10.00">_storebuttons/testwindow.cpp</text>
</a>
</g>
</g>
<!-- Node5&#45;&gt;Node9 -->
<g id="edge8" class="edge">
<title>Node5&#45;&gt;Node9</title>
<path fill="none" stroke="midnightblue" d="M1028.27,-62.74C1027.32,-52.49 1026.17,-40 1025.3,-30.59"/>
<polygon fill="midnightblue" stroke="midnightblue" points="1024.79,-63.1 1029.19,-72.73 1031.76,-62.45 1024.79,-63.1"/>
</g>
<!-- Node11 -->
<g id="node11" class="node">
<title>Node11</title>
<g id="a_node11"><a xlink:href="gui_2colorselector_2test__colorwheel_2main_8cpp.html" target="_top" xlink:title=" ">
<polygon fill="none" stroke="black" points="468,-0.5 468,-30.5 598,-30.5 598,-0.5 468,-0.5"/>
<text text-anchor="start" x="476" y="-18.5" font-family="Helvetica,sans-Serif" font-size="10.00">src/gui/colorselector</text>
<text text-anchor="middle" x="533" y="-7.5" font-family="Helvetica,sans-Serif" font-size="10.00">/test_colorwheel/main.cpp</text>
</a>
</g>
</g>
<!-- Node10&#45;&gt;Node11 -->
<g id="edge11" class="edge">
<title>Node10&#45;&gt;Node11</title>
<path fill="none" stroke="midnightblue" d="M645.91,-63.54C620.94,-53.14 589.97,-40.24 566.78,-30.58"/>
<polygon fill="midnightblue" stroke="midnightblue" points="644.57,-66.78 655.15,-67.4 647.27,-60.32 644.57,-66.78"/>
</g>
<!-- Node12 -->
<g id="node12" class="node">
<title>Node12</title>
<g id="a_node12"><a xlink:href="gui_2colorselector_2test__colorwheel_2testwindow_8cpp.html" target="_top" xlink:title=" ">
<polygon fill="none" stroke="black" points="616,-0.5 616,-30.5 774,-30.5 774,-0.5 616,-0.5"/>
<text text-anchor="start" x="624" y="-18.5" font-family="Helvetica,sans-Serif" font-size="10.00">src/gui/colorselector</text>
<text text-anchor="middle" x="695" y="-7.5" font-family="Helvetica,sans-Serif" font-size="10.00">/test_colorwheel/testwindow.cpp</text>
</a>
</g>
</g>
<!-- Node10&#45;&gt;Node12 -->
<g id="edge12" class="edge">
<title>Node10&#45;&gt;Node12</title>
<path fill="none" stroke="midnightblue" d="M691.22,-57.4C692.06,-48.37 692.98,-38.41 693.7,-30.58"/>
<polygon fill="midnightblue" stroke="midnightblue" points="687.74,-57.12 690.3,-67.4 694.71,-57.76 687.74,-57.12"/>
</g>
<!-- Node20&#45;&gt;Node14 -->
<g id="edge45" class="edge">
<title>Node20&#45;&gt;Node14</title>
<path fill="none" stroke="midnightblue" d="M959.22,-405.79C1080.53,-392.34 1380.37,-348.89 1600,-232 1681.86,-188.43 1768.69,-117.02 1797.82,-92.27"/>
<polygon fill="midnightblue" stroke="midnightblue" points="958.64,-402.34 949.08,-406.9 959.4,-409.3 958.64,-402.34"/>
</g>
<!-- Node20&#45;&gt;Node16 -->
<g id="edge46" class="edge">
<title>Node20&#45;&gt;Node16</title>
<path fill="none" stroke="midnightblue" d="M850.62,-407.77C738.02,-398.5 475.98,-363.29 309,-232 259.44,-193.03 232.47,-117.42 224.53,-92.04"/>
<polygon fill="midnightblue" stroke="midnightblue" points="850.47,-411.27 860.72,-408.56 851.02,-404.29 850.47,-411.27"/>
</g>
<!-- Node21 -->
<g id="node21" class="node">
<title>Node21</title>
<g id="a_node21"><a xlink:href="gpubuffer_8h.html" target="_top" xlink:title=" ">
<polygon fill="none" stroke="black" points="857,-341 857,-360 953,-360 953,-341 857,-341"/>
<text text-anchor="middle" x="905" y="-348" font-family="Helvetica,sans-Serif" font-size="10.00">src/gui/gpubuffer.h</text>
</a>
</g>
</g>
<!-- Node20&#45;&gt;Node21 -->
<g id="edge23" class="edge">
<title>Node20&#45;&gt;Node21</title>
<path fill="none" stroke="midnightblue" d="M905,-392.32C905,-381.5 905,-368.4 905,-360.01"/>
<polygon fill="midnightblue" stroke="midnightblue" points="901.5,-392.48 905,-402.48 908.5,-392.48 901.5,-392.48"/>
</g>
<!-- Node21&#45;&gt;Node4 -->
<g id="edge25" class="edge">
<title>Node21&#45;&gt;Node4</title>
<path fill="none" stroke="midnightblue" d="M892.26,-333C877.05,-314.43 849.89,-284.7 820,-268 749.1,-228.38 512.06,-178.64 413.05,-159.02"/>
<polygon fill="midnightblue" stroke="midnightblue" points="889.58,-335.25 898.55,-340.88 895.05,-330.88 889.58,-335.25"/>
</g>
<!-- Node21&#45;&gt;Node13 -->
<g id="edge24" class="edge">
<title>Node21&#45;&gt;Node13</title>
<path fill="none" stroke="midnightblue" d="M963.56,-348.21C1081.48,-343.67 1353.89,-323.27 1560,-232 1604.62,-212.24 1615.92,-202.63 1647,-165 1666.26,-141.67 1679.61,-107.79 1685.14,-92.08"/>
<polygon fill="midnightblue" stroke="midnightblue" points="963.17,-344.72 953.31,-348.58 963.43,-351.72 963.17,-344.72"/>
</g>
<!-- Node22 -->
<g id="node22" class="node">
<title>Node22</title>
<g id="a_node22"><a xlink:href="mxtextdraw_8cpp.html" target="_top" xlink:title=" ">
<polygon fill="none" stroke="black" points="655,-274 655,-293 811,-293 811,-274 655,-274"/>
<text text-anchor="middle" x="733" y="-281" font-family="Helvetica,sans-Serif" font-size="10.00">src/gui/textdraw/mxtextdraw.cpp</text>
</a>
</g>
</g>
<!-- Node21&#45;&gt;Node22 -->
<g id="edge26" class="edge">
<title>Node21&#45;&gt;Node22</title>
<path fill="none" stroke="midnightblue" d="M872.64,-337.27C838.5,-324.37 785.59,-304.38 755.66,-293.06"/>
<polygon fill="midnightblue" stroke="midnightblue" points="871.57,-340.61 882.16,-340.87 874.04,-334.06 871.57,-340.61"/>
</g>
<!-- Node23 -->
<g id="node23" class="node">
<title>Node23</title>
<g id="a_node23"><a xlink:href="mxvectordraw_8h.html" target="_top" xlink:title=" ">
<polygon fill="none" stroke="black" points="923.5,-268.5 923.5,-298.5 1020.5,-298.5 1020.5,-268.5 923.5,-268.5"/>
<text text-anchor="start" x="931.5" y="-286.5" font-family="Helvetica,sans-Serif" font-size="10.00">src/gui/vectordraw</text>
<text text-anchor="middle" x="972" y="-275.5" font-family="Helvetica,sans-Serif" font-size="10.00">/mxvectordraw.h</text>
</a>
</g>
</g>
<!-- Node21&#45;&gt;Node23 -->
<g id="edge27" class="edge">
<title>Node21&#45;&gt;Node23</title>
<path fill="none" stroke="midnightblue" d="M921.37,-333.62C932.41,-322.91 946.85,-308.9 957.48,-298.59"/>
<polygon fill="midnightblue" stroke="midnightblue" points="918.78,-331.26 914.04,-340.73 923.65,-336.28 918.78,-331.26"/>
</g>
<!-- Node23&#45;&gt;Node18 -->
<g id="edge40" class="edge">
<title>Node23&#45;&gt;Node18</title>
<path fill="none" stroke="midnightblue" d="M1030.79,-282.09C1179.48,-279.59 1563.49,-263.54 1631,-165 1638.79,-153.63 1636.96,-146.42 1631,-134 1623.54,-118.46 1608.7,-106.19 1595.3,-97.64"/>
<polygon fill="midnightblue" stroke="midnightblue" points="1030.45,-278.59 1020.5,-282.25 1030.55,-285.59 1030.45,-278.59"/>
</g>
<!-- Node24 -->
<g id="node24" class="node">
<title>Node24</title>
<g id="a_node24"><a xlink:href="mxpainter_8h.html" target="_top" xlink:title=" ">
<polygon fill="none" stroke="black" points="1351,-207 1351,-226 1449,-226 1449,-207 1351,-207"/>
<text text-anchor="middle" x="1400" y="-214" font-family="Helvetica,sans-Serif" font-size="10.00">src/gui/mxpainter.h</text>
</a>
</g>
</g>
<!-- Node23&#45;&gt;Node24 -->
<g id="edge28" class="edge">
<title>Node23&#45;&gt;Node24</title>
<path fill="none" stroke="midnightblue" d="M1030.68,-273.59C1115.63,-260.69 1271.36,-237.04 1350.71,-224.99"/>
<polygon fill="midnightblue" stroke="midnightblue" points="1030.04,-270.15 1020.68,-275.11 1031.09,-277.07 1030.04,-270.15"/>
</g>
<!-- Node25 -->
<g id="node25" class="node">
<title>Node25</title>
<g id="a_node25"><a xlink:href="mxstoreview_8cpp.html" target="_top" xlink:title=" ">
<polygon fill="none" stroke="black" points="1208,-140 1208,-159 1372,-159 1372,-140 1208,-140"/>
<text text-anchor="middle" x="1290" y="-147" font-family="Helvetica,sans-Serif" font-size="10.00">src/storewindow/mxstoreview.cpp</text>
</a>
</g>
</g>
<!-- Node23&#45;&gt;Node25 -->
<g id="edge44" class="edge">
<title>Node23&#45;&gt;Node25</title>
<path fill="none" stroke="midnightblue" d="M1015.06,-264.62C1084.34,-235.87 1217.94,-180.41 1269.24,-159.12"/>
<polygon fill="midnightblue" stroke="midnightblue" points="1013.62,-261.43 1005.73,-268.5 1016.31,-267.9 1013.62,-261.43"/>
</g>
<!-- Node27 -->
<g id="node27" class="node">
<title>Node27</title>
<g id="a_node27"><a xlink:href="mxsvgpainter_8cpp.html" target="_top" xlink:title=" ">
<polygon fill="none" stroke="black" points="458.5,-140 458.5,-159 601.5,-159 601.5,-140 458.5,-140"/>
<text text-anchor="middle" x="530" y="-147" font-family="Helvetica,sans-Serif" font-size="10.00">src/gui/svg/mxsvgpainter.cpp</text>
</a>
</g>
</g>
<!-- Node23&#45;&gt;Node27 -->
<g id="edge33" class="edge">
<title>Node23&#45;&gt;Node27</title>
<path fill="none" stroke="midnightblue" d="M942.28,-262.7C928.47,-253.44 911.85,-242.23 897,-232 877.3,-218.43 875.21,-209.89 853,-201 752.05,-160.59 718.31,-182.58 611,-165 599.72,-163.15 587.58,-161.04 576.22,-159.02"/>
<polygon fill="midnightblue" stroke="midnightblue" points="940.65,-265.82 950.91,-268.47 944.54,-260 940.65,-265.82"/>
</g>
<!-- Node28 -->
<g id="node28" class="node">
<title>Node28</title>
<g id="a_node28"><a xlink:href="mxsvgpainter_8h.html" target="_top" xlink:title=" ">
<polygon fill="none" stroke="black" points="905.5,-207 905.5,-226 1038.5,-226 1038.5,-207 905.5,-207"/>
<text text-anchor="middle" x="972" y="-214" font-family="Helvetica,sans-Serif" font-size="10.00">src/gui/svg/mxsvgpainter.h</text>
</a>
</g>
</g>
<!-- Node23&#45;&gt;Node28 -->
<g id="edge34" class="edge">
<title>Node23&#45;&gt;Node28</title>
<path fill="none" stroke="midnightblue" d="M972,-258.25C972,-247.02 972,-234.38 972,-226.19"/>
<polygon fill="midnightblue" stroke="midnightblue" points="968.5,-258.4 972,-268.4 975.5,-258.4 968.5,-258.4"/>
</g>
<!-- Node32 -->
<g id="node32" class="node">
<title>Node32</title>
<g id="a_node32"><a xlink:href="mxvectorprogram_8h.html" target="_top" xlink:title=" ">
<polygon fill="none" stroke="black" points="318,-201.5 318,-231.5 420,-231.5 420,-201.5 318,-201.5"/>
<text text-anchor="start" x="326" y="-219.5" font-family="Helvetica,sans-Serif" font-size="10.00">src/gui/vectordraw</text>
<text text-anchor="middle" x="369" y="-208.5" font-family="Helvetica,sans-Serif" font-size="10.00">/mxvectorprogram.h</text>
</a>
</g>
</g>
<!-- Node23&#45;&gt;Node32 -->
<g id="edge41" class="edge">
<title>Node23&#45;&gt;Node32</title>
<path fill="none" stroke="midnightblue" d="M913.14,-276.16C795.11,-263.43 531.31,-235 420.05,-223"/>
<polygon fill="midnightblue" stroke="midnightblue" points="913.1,-279.67 923.42,-277.26 913.85,-272.71 913.1,-279.67"/>
</g>
<!-- Node24&#45;&gt;Node5 -->
<g id="edge29" class="edge">
<title>Node24&#45;&gt;Node5</title>
<path fill="none" stroke="midnightblue" d="M1401.24,-196.81C1401.37,-178.07 1398.34,-149.79 1381,-134 1337.22,-94.14 1175.54,-106.87 1117,-98 1104.89,-96.17 1091.85,-94.06 1079.65,-92.04"/>
<polygon fill="midnightblue" stroke="midnightblue" points="1397.74,-196.69 1400.86,-206.81 1404.73,-196.95 1397.74,-196.69"/>
</g>
<!-- Node24&#45;&gt;Node15 -->
<g id="edge30" class="edge">
<title>Node24&#45;&gt;Node15</title>
<path fill="none" stroke="midnightblue" d="M1410.19,-197.92C1419.12,-179.93 1428.61,-152.1 1414,-134 1391.88,-106.59 1296.47,-93.34 1234.52,-87.51"/>
<polygon fill="midnightblue" stroke="midnightblue" points="1407.07,-196.32 1405.43,-206.79 1413.24,-199.63 1407.07,-196.32"/>
</g>
<!-- Node24&#45;&gt;Node25 -->
<g id="edge31" class="edge">
<title>Node24&#45;&gt;Node25</title>
<path fill="none" stroke="midnightblue" d="M1376.5,-201.62C1354.71,-188.74 1322.96,-169.98 1304.6,-159.13"/>
<polygon fill="midnightblue" stroke="midnightblue" points="1374.78,-204.66 1385.16,-206.73 1378.34,-198.63 1374.78,-204.66"/>
</g>
<!-- Node26 -->
<g id="node26" class="node">
<title>Node26</title>
<g id="a_node26"><a xlink:href="teststoreview_8cpp.html" target="_top" xlink:title=" ">
<polygon fill="none" stroke="black" points="1466.5,-134.5 1466.5,-164.5 1621.5,-164.5 1621.5,-134.5 1466.5,-134.5"/>
<text text-anchor="start" x="1474.5" y="-152.5" font-family="Helvetica,sans-Serif" font-size="10.00">src/storewindow/test</text>
<text text-anchor="middle" x="1544" y="-141.5" font-family="Helvetica,sans-Serif" font-size="10.00">_storebuttons/teststoreview.cpp</text>
</a>
</g>
</g>
<!-- Node24&#45;&gt;Node26 -->
<g id="edge32" class="edge">
<title>Node24&#45;&gt;Node26</title>
<path fill="none" stroke="midnightblue" d="M1428.53,-202.62C1452.89,-191.63 1487.86,-175.84 1512.92,-164.53"/>
<polygon fill="midnightblue" stroke="midnightblue" points="1426.8,-199.56 1419.12,-206.87 1429.68,-205.94 1426.8,-199.56"/>
</g>
<!-- Node28&#45;&gt;Node15 -->
<g id="edge35" class="edge">
<title>Node28&#45;&gt;Node15</title>
<path fill="none" stroke="midnightblue" d="M1039.28,-205.19C1086.81,-196.55 1144.97,-182.77 1162,-165 1181.35,-144.81 1181.76,-108.74 1180.78,-92.21"/>
<polygon fill="midnightblue" stroke="midnightblue" points="1038.55,-201.76 1029.32,-206.96 1039.77,-208.66 1038.55,-201.76"/>
</g>
<!-- Node28&#45;&gt;Node27 -->
<g id="edge36" class="edge">
<title>Node28&#45;&gt;Node27</title>
<path fill="none" stroke="midnightblue" d="M916.7,-205.23C908.11,-203.74 899.32,-202.28 891,-201 766.99,-181.94 735.01,-184.06 611,-165 599.42,-163.22 586.95,-161.09 575.35,-159.02"/>
<polygon fill="midnightblue" stroke="midnightblue" points="916.2,-208.69 926.65,-206.98 917.41,-201.8 916.2,-208.69"/>
</g>
<!-- Node29 -->
<g id="node29" class="node">
<title>Node29</title>
<g id="a_node29"><a xlink:href="downarrowsvg_8cpp.html" target="_top" xlink:title=" ">
<polygon fill="none" stroke="black" points="810.5,-140 810.5,-159 985.5,-159 985.5,-140 810.5,-140"/>
<text text-anchor="middle" x="898" y="-147" font-family="Helvetica,sans-Serif" font-size="10.00">src/svg&#45;drawings/downarrowsvg.cpp</text>
</a>
</g>
</g>
<!-- Node28&#45;&gt;Node29 -->
<g id="edge37" class="edge">
<title>Node28&#45;&gt;Node29</title>
<path fill="none" stroke="midnightblue" d="M954.19,-199.86C939.64,-187.08 919.62,-169.49 907.82,-159.13"/>
<polygon fill="midnightblue" stroke="midnightblue" points="952.2,-202.76 962.02,-206.73 956.82,-197.5 952.2,-202.76"/>
</g>
<!-- Node30 -->
<g id="node30" class="node">
<title>Node30</title>
<g id="a_node30"><a xlink:href="heartsvg_8cpp.html" target="_top" xlink:title=" ">
<polygon fill="none" stroke="black" points="1003.5,-140 1003.5,-159 1152.5,-159 1152.5,-140 1003.5,-140"/>
<text text-anchor="middle" x="1078" y="-147" font-family="Helvetica,sans-Serif" font-size="10.00">src/svg&#45;drawings/heartsvg.cpp</text>
</a>
</g>
</g>
<!-- Node28&#45;&gt;Node30 -->
<g id="edge38" class="edge">
<title>Node28&#45;&gt;Node30</title>
<path fill="none" stroke="midnightblue" d="M994.92,-201.44C1015.92,-188.57 1046.32,-169.93 1063.93,-159.13"/>
<polygon fill="midnightblue" stroke="midnightblue" points="992.99,-198.52 986.3,-206.73 996.65,-204.49 992.99,-198.52"/>
</g>
<!-- Node31 -->
<g id="node31" class="node">
<title>Node31</title>
<g id="a_node31"><a xlink:href="plusminussvg_8cpp.html" target="_top" xlink:title=" ">
<polygon fill="none" stroke="black" points="620,-140 620,-159 792,-159 792,-140 620,-140"/>
<text text-anchor="middle" x="706" y="-147" font-family="Helvetica,sans-Serif" font-size="10.00">src/svg&#45;drawings/plusminussvg.cpp</text>
</a>
</g>
</g>
<!-- Node28&#45;&gt;Node31 -->
<g id="edge39" class="edge">
<title>Node28&#45;&gt;Node31</title>
<path fill="none" stroke="midnightblue" d="M926.92,-204.48C874.45,-191.66 788.91,-170.76 741.13,-159.08"/>
<polygon fill="midnightblue" stroke="midnightblue" points="926.41,-207.96 936.95,-206.94 928.07,-201.16 926.41,-207.96"/>
</g>
<!-- Node32&#45;&gt;Node4 -->
<g id="edge42" class="edge">
<title>Node32&#45;&gt;Node4</title>
<path fill="none" stroke="midnightblue" d="M369,-191.25C369,-180.02 369,-167.38 369,-159.19"/>
<polygon fill="midnightblue" stroke="midnightblue" points="365.5,-191.4 369,-201.4 372.5,-191.4 365.5,-191.4"/>
</g>
<!-- Node32&#45;&gt;Node19 -->
<g id="edge43" class="edge">
<title>Node32&#45;&gt;Node19</title>
<path fill="none" stroke="midnightblue" d="M322.16,-196.53C309.07,-188.8 296.41,-178.44 289,-165 282.35,-152.93 282.35,-146.07 289,-134 298.12,-117.46 315.19,-105.59 331.23,-97.53"/>
<polygon fill="midnightblue" stroke="midnightblue" points="320.77,-199.76 331.23,-201.47 324.12,-193.61 320.77,-199.76"/>
</g>
<!-- Node33&#45;&gt;Node2 -->
<g id="edge48" class="edge">
<title>Node33&#45;&gt;Node2</title>
<path fill="none" stroke="midnightblue" d="M309.38,-456.14C280.23,-449.17 245.4,-438.3 217,-422 191.12,-407.14 167.09,-381.67 153.51,-365.75"/>
<polygon fill="midnightblue" stroke="midnightblue" points="308.91,-459.62 319.44,-458.44 310.47,-452.79 308.91,-459.62"/>
</g>
<!-- Node33&#45;&gt;Node16 -->
<g id="edge50" class="edge">
<title>Node33&#45;&gt;Node16</title>
<path fill="none" stroke="midnightblue" d="M359.46,-449.52C335.07,-404.03 269.94,-277.71 236,-165 228.22,-139.16 224.32,-107.32 222.79,-92.23"/>
<polygon fill="midnightblue" stroke="midnightblue" points="356.44,-451.27 364.27,-458.41 362.59,-447.95 356.44,-451.27"/>
</g>
<!-- Node33&#45;&gt;Node20 -->
<g id="edge49" class="edge">
<title>Node33&#45;&gt;Node20</title>
<path fill="none" stroke="midnightblue" d="M446.12,-459.23C560.07,-447.75 769.74,-426.63 860.83,-417.45"/>
<polygon fill="midnightblue" stroke="midnightblue" points="445.67,-455.76 436.07,-460.24 446.37,-462.72 445.67,-455.76"/>
</g>
<!-- Node33&#45;&gt;Node32 -->
<g id="edge51" class="edge">
<title>Node33&#45;&gt;Node32</title>
<path fill="none" stroke="midnightblue" d="M369,-448.23C369,-400.24 369,-273.87 369,-231.54"/>
<polygon fill="midnightblue" stroke="midnightblue" points="365.5,-448.41 369,-458.41 372.5,-448.41 365.5,-448.41"/>
</g>
</g>
</svg>
