<?xml version="1.0" encoding="UTF-8" standalone="no"?>
<!DOCTYPE svg PUBLIC "-//W3C//DTD SVG 1.1//EN"
 "http://www.w3.org/Graphics/SVG/1.1/DTD/svg11.dtd">
<!-- Generated by graphviz version 2.44.0 ()
 -->
<!-- Title: src/platformabstraction/qt/mxopenglfunctions.h Pages: 1 -->
<svg width="1826pt" height="296pt"
 viewBox="0.00 0.00 1826.00 296.00" xmlns="http://www.w3.org/2000/svg" xmlns:xlink="http://www.w3.org/1999/xlink">
<g id="graph0" class="graph" transform="scale(1 1) rotate(0) translate(4 292)">
<title>src/platformabstraction/qt/mxopenglfunctions.h</title>
<!-- Node1 -->
<g id="node1" class="node">
<title>Node1</title>
<g id="a_node1"><a xlink:title=" ">
<polygon fill="#bfbfbf" stroke="black" points="884,-257.5 884,-287.5 1003,-287.5 1003,-257.5 884,-257.5"/>
<text text-anchor="start" x="892" y="-275.5" font-family="Helvetica,sans-Serif" font-size="10.00">src/platformabstraction</text>
<text text-anchor="middle" x="943.5" y="-264.5" font-family="Helvetica,sans-Serif" font-size="10.00">/qt/mxopenglfunctions.h</text>
</a>
</g>
</g>
<!-- Node2 -->
<g id="node2" class="node">
<title>Node2</title>
<g id="a_node2"><a xlink:href="mxrenderer_8h.html" target="_top" xlink:title=" ">
<polygon fill="none" stroke="black" points="872,-201.5 872,-220.5 1015,-220.5 1015,-201.5 872,-201.5"/>
<text text-anchor="middle" x="943.5" y="-208.5" font-family="Helvetica,sans-Serif" font-size="10.00">src/gui/renderer/mxrenderer.h</text>
</a>
</g>
</g>
<!-- Node1&#45;&gt;Node2 -->
<g id="edge1" class="edge">
<title>Node1&#45;&gt;Node2</title>
<path fill="none" stroke="midnightblue" d="M943.5,-247.29C943.5,-237.86 943.5,-227.65 943.5,-220.66"/>
<polygon fill="midnightblue" stroke="midnightblue" points="940,-247.4 943.5,-257.4 947,-247.4 940,-247.4"/>
</g>
<!-- Node3 -->
<g id="node3" class="node">
<title>Node3</title>
<g id="a_node3"><a xlink:href="mxapplication_8h.html" target="_top" xlink:title=" ">
<polygon fill="none" stroke="black" points="55.5,-140 55.5,-159 187.5,-159 187.5,-140 55.5,-140"/>
<text text-anchor="middle" x="121.5" y="-147" font-family="Helvetica,sans-Serif" font-size="10.00">src/events/mxapplication.h</text>
</a>
</g>
</g>
<!-- Node2&#45;&gt;Node3 -->
<g id="edge2" class="edge">
<title>Node2&#45;&gt;Node3</title>
<path fill="none" stroke="midnightblue" d="M861.83,-208.57C724.11,-205.38 437.16,-195.38 196.5,-165 184.79,-163.52 172.16,-161.32 160.66,-159.07"/>
<polygon fill="midnightblue" stroke="midnightblue" points="861.81,-212.07 871.88,-208.8 861.96,-205.07 861.81,-212.07"/>
</g>
<!-- Node7 -->
<g id="node7" class="node">
<title>Node7</title>
<g id="a_node7"><a xlink:href="mxcolorwheelprogram_8cpp.html" target="_top" xlink:title=" ">
<polygon fill="none" stroke="black" points="205.5,-134.5 205.5,-164.5 337.5,-164.5 337.5,-134.5 205.5,-134.5"/>
<text text-anchor="start" x="213.5" y="-152.5" font-family="Helvetica,sans-Serif" font-size="10.00">src/gui/colorselector</text>
<text text-anchor="middle" x="271.5" y="-141.5" font-family="Helvetica,sans-Serif" font-size="10.00">/mxcolorwheelprogram.cpp</text>
</a>
</g>
</g>
<!-- Node2&#45;&gt;Node7 -->
<g id="edge7" class="edge">
<title>Node2&#45;&gt;Node7</title>
<path fill="none" stroke="midnightblue" d="M861.37,-206.82C745.99,-201.67 529.5,-189.5 346.5,-165 343.61,-164.61 340.66,-164.19 337.69,-163.73"/>
<polygon fill="midnightblue" stroke="midnightblue" points="861.4,-210.32 871.54,-207.27 861.71,-203.33 861.4,-210.32"/>
</g>
<!-- Node8 -->
<g id="node8" class="node">
<title>Node8</title>
<g id="a_node8"><a xlink:href="gpubuffer_8cpp.html" target="_top" xlink:title=" ">
<polygon fill="none" stroke="black" points="356,-140 356,-159 463,-159 463,-140 356,-140"/>
<text text-anchor="middle" x="409.5" y="-147" font-family="Helvetica,sans-Serif" font-size="10.00">src/gui/gpubuffer.cpp</text>
</a>
</g>
</g>
<!-- Node2&#45;&gt;Node8 -->
<g id="edge8" class="edge">
<title>Node2&#45;&gt;Node8</title>
<path fill="none" stroke="midnightblue" d="M861.89,-205.57C767.45,-199.66 607.48,-187.28 471.5,-165 461.9,-163.43 451.57,-161.22 442.16,-159.01"/>
<polygon fill="midnightblue" stroke="midnightblue" points="861.75,-209.06 871.95,-206.19 862.18,-202.08 861.75,-209.06"/>
</g>
<!-- Node9 -->
<g id="node9" class="node">
<title>Node9</title>
<g id="a_node9"><a xlink:href="gpuvbo_8cpp.html" target="_top" xlink:title=" ">
<polygon fill="none" stroke="black" points="480.5,-140 480.5,-159 578.5,-159 578.5,-140 480.5,-140"/>
<text text-anchor="middle" x="529.5" y="-147" font-family="Helvetica,sans-Serif" font-size="10.00">src/gui/gpuvbo.cpp</text>
</a>
</g>
</g>
<!-- Node2&#45;&gt;Node9 -->
<g id="edge9" class="edge">
<title>Node2&#45;&gt;Node9</title>
<path fill="none" stroke="midnightblue" d="M861.88,-202.48C789.44,-195.14 680.92,-182.52 587.5,-165 578.73,-163.35 569.3,-161.18 560.65,-159.01"/>
<polygon fill="midnightblue" stroke="midnightblue" points="861.55,-205.96 871.85,-203.48 862.25,-199 861.55,-205.96"/>
</g>
<!-- Node10 -->
<g id="node10" class="node">
<title>Node10</title>
<g id="a_node10"><a xlink:href="mxicondraw_8cpp.html" target="_top" xlink:title=" ">
<polygon fill="none" stroke="black" points="597,-140 597,-159 758,-159 758,-140 597,-140"/>
<text text-anchor="middle" x="677.5" y="-147" font-family="Helvetica,sans-Serif" font-size="10.00">src/gui/icondraw/mxicondraw.cpp</text>
</a>
</g>
</g>
<!-- Node2&#45;&gt;Node10 -->
<g id="edge10" class="edge">
<title>Node2&#45;&gt;Node10</title>
<path fill="none" stroke="midnightblue" d="M895.48,-199.26C843.88,-187.72 762.91,-169.61 715.54,-159.01"/>
<polygon fill="midnightblue" stroke="midnightblue" points="894.87,-202.71 905.39,-201.48 896.39,-195.88 894.87,-202.71"/>
</g>
<!-- Node11 -->
<g id="node11" class="node">
<title>Node11</title>
<g id="a_node11"><a xlink:href="mxiconprogram_8cpp.html" target="_top" xlink:title=" ">
<polygon fill="none" stroke="black" points="776,-140 776,-159 951,-159 951,-140 776,-140"/>
<text text-anchor="middle" x="863.5" y="-147" font-family="Helvetica,sans-Serif" font-size="10.00">src/gui/icondraw/mxiconprogram.cpp</text>
</a>
</g>
</g>
<!-- Node2&#45;&gt;Node11 -->
<g id="edge11" class="edge">
<title>Node2&#45;&gt;Node11</title>
<path fill="none" stroke="midnightblue" d="M923.73,-195.29C908.38,-183.88 887.64,-168.46 874.94,-159.01"/>
<polygon fill="midnightblue" stroke="midnightblue" points="921.93,-198.32 932.04,-201.48 926.1,-192.7 921.93,-198.32"/>
</g>
<!-- Node12 -->
<g id="node12" class="node">
<title>Node12</title>
<g id="a_node12"><a xlink:href="mxpainter_8cpp.html" target="_top" xlink:title=" ">
<polygon fill="none" stroke="black" points="969,-140 969,-159 1078,-159 1078,-140 969,-140"/>
<text text-anchor="middle" x="1023.5" y="-147" font-family="Helvetica,sans-Serif" font-size="10.00">src/gui/mxpainter.cpp</text>
</a>
</g>
</g>
<!-- Node2&#45;&gt;Node12 -->
<g id="edge12" class="edge">
<title>Node2&#45;&gt;Node12</title>
<path fill="none" stroke="midnightblue" d="M963.27,-195.29C978.62,-183.88 999.36,-168.46 1012.06,-159.01"/>
<polygon fill="midnightblue" stroke="midnightblue" points="960.9,-192.7 954.96,-201.48 965.07,-198.32 960.9,-192.7"/>
</g>
<!-- Node13 -->
<g id="node13" class="node">
<title>Node13</title>
<g id="a_node13"><a xlink:href="mxshaderprogram_8cpp.html" target="_top" xlink:title=" ">
<polygon fill="none" stroke="black" points="1096.5,-140 1096.5,-159 1240.5,-159 1240.5,-140 1096.5,-140"/>
<text text-anchor="middle" x="1168.5" y="-147" font-family="Helvetica,sans-Serif" font-size="10.00">src/gui/mxshaderprogram.cpp</text>
</a>
</g>
</g>
<!-- Node2&#45;&gt;Node13 -->
<g id="edge13" class="edge">
<title>Node2&#45;&gt;Node13</title>
<path fill="none" stroke="midnightblue" d="M985.49,-198.9C1029.19,-187.34 1096.67,-169.5 1136.32,-159.01"/>
<polygon fill="midnightblue" stroke="midnightblue" points="984.51,-195.53 975.74,-201.48 986.3,-202.3 984.51,-195.53"/>
</g>
<!-- Node14 -->
<g id="node14" class="node">
<title>Node14</title>
<g id="a_node14"><a xlink:href="mxrenderer_8cpp.html" target="_top" xlink:title=" ">
<polygon fill="none" stroke="black" points="1259,-140 1259,-159 1412,-159 1412,-140 1259,-140"/>
<text text-anchor="middle" x="1335.5" y="-147" font-family="Helvetica,sans-Serif" font-size="10.00">src/gui/renderer/mxrenderer.cpp</text>
</a>
</g>
</g>
<!-- Node2&#45;&gt;Node14 -->
<g id="edge14" class="edge">
<title>Node2&#45;&gt;Node14</title>
<path fill="none" stroke="midnightblue" d="M1014.01,-200.06C1076.07,-191.21 1168.86,-177.73 1249.5,-165 1261.32,-163.14 1274.03,-161.04 1285.96,-159.04"/>
<polygon fill="midnightblue" stroke="midnightblue" points="1013.35,-196.62 1003.94,-201.49 1014.33,-203.55 1013.35,-196.62"/>
</g>
<!-- Node15 -->
<g id="node15" class="node">
<title>Node15</title>
<g id="a_node15"><a xlink:href="mxvectordraw_8cpp.html" target="_top" xlink:title=" ">
<polygon fill="none" stroke="black" points="1430.5,-134.5 1430.5,-164.5 1528.5,-164.5 1528.5,-134.5 1430.5,-134.5"/>
<text text-anchor="start" x="1438.5" y="-152.5" font-family="Helvetica,sans-Serif" font-size="10.00">src/gui/vectordraw</text>
<text text-anchor="middle" x="1479.5" y="-141.5" font-family="Helvetica,sans-Serif" font-size="10.00">/mxvectordraw.cpp</text>
</a>
</g>
</g>
<!-- Node2&#45;&gt;Node15 -->
<g id="edge15" class="edge">
<title>Node2&#45;&gt;Node15</title>
<path fill="none" stroke="midnightblue" d="M1025.2,-205.95C1120.57,-200.38 1282.81,-188.28 1420.5,-165 1423.72,-164.45 1427.03,-163.83 1430.36,-163.15"/>
<polygon fill="midnightblue" stroke="midnightblue" points="1024.83,-202.47 1015.04,-206.53 1025.23,-209.46 1024.83,-202.47"/>
</g>
<!-- Node16 -->
<g id="node16" class="node">
<title>Node16</title>
<g id="a_node16"><a xlink:href="mxvectorprogram_8cpp.html" target="_top" xlink:title=" ">
<polygon fill="none" stroke="black" points="1547,-134.5 1547,-164.5 1660,-164.5 1660,-134.5 1547,-134.5"/>
<text text-anchor="start" x="1555" y="-152.5" font-family="Helvetica,sans-Serif" font-size="10.00">src/gui/vectordraw</text>
<text text-anchor="middle" x="1603.5" y="-141.5" font-family="Helvetica,sans-Serif" font-size="10.00">/mxvectorprogram.cpp</text>
</a>
</g>
</g>
<!-- Node2&#45;&gt;Node16 -->
<g id="edge16" class="edge">
<title>Node2&#45;&gt;Node16</title>
<path fill="none" stroke="midnightblue" d="M1025.3,-207.44C1140.22,-203.02 1355.74,-191.72 1537.5,-165 1540.52,-164.56 1543.6,-164.05 1546.71,-163.51"/>
<polygon fill="midnightblue" stroke="midnightblue" points="1025.04,-203.95 1015.18,-207.82 1025.3,-210.94 1025.04,-203.95"/>
</g>
<!-- Node17 -->
<g id="node17" class="node">
<title>Node17</title>
<g id="a_node17"><a xlink:href="mxiconatlas_8h.html" target="_top" xlink:title=" ">
<polygon fill="none" stroke="black" points="1678.5,-140 1678.5,-159 1812.5,-159 1812.5,-140 1678.5,-140"/>
<text text-anchor="middle" x="1745.5" y="-147" font-family="Helvetica,sans-Serif" font-size="10.00">src/iconatlas/mxiconatlas.h</text>
</a>
</g>
</g>
<!-- Node2&#45;&gt;Node17 -->
<g id="edge17" class="edge">
<title>Node2&#45;&gt;Node17</title>
<path fill="none" stroke="midnightblue" d="M1025.38,-208.3C1160.17,-204.75 1437.03,-194.26 1669.5,-165 1681.36,-163.51 1694.16,-161.3 1705.81,-159.05"/>
<polygon fill="midnightblue" stroke="midnightblue" points="1025.05,-204.81 1015.14,-208.56 1025.23,-211.8 1025.05,-204.81"/>
</g>
<!-- Node4 -->
<g id="node4" class="node">
<title>Node4</title>
<g id="a_node4"><a xlink:href="mxapplication_8cpp.html" target="_top" xlink:title=" ">
<polygon fill="none" stroke="black" points="0,-73 0,-92 143,-92 143,-73 0,-73"/>
<text text-anchor="middle" x="71.5" y="-80" font-family="Helvetica,sans-Serif" font-size="10.00">src/events/mxapplication.cpp</text>
</a>
</g>
</g>
<!-- Node3&#45;&gt;Node4 -->
<g id="edge3" class="edge">
<title>Node3&#45;&gt;Node4</title>
<path fill="none" stroke="midnightblue" d="M108.63,-131.77C98.88,-119.1 85.89,-102.2 78.14,-92.13"/>
<polygon fill="midnightblue" stroke="midnightblue" points="105.89,-133.94 114.76,-139.73 111.43,-129.67 105.89,-133.94"/>
</g>
<!-- Node5 -->
<g id="node5" class="node">
<title>Node5</title>
<g id="a_node5"><a xlink:href="qmewawindow_8cpp.html" target="_top" xlink:title=" ">
<polygon fill="none" stroke="black" points="156.5,-0.5 156.5,-30.5 272.5,-30.5 272.5,-0.5 156.5,-0.5"/>
<text text-anchor="start" x="164.5" y="-18.5" font-family="Helvetica,sans-Serif" font-size="10.00">src/platformabstraction</text>
<text text-anchor="middle" x="214.5" y="-7.5" font-family="Helvetica,sans-Serif" font-size="10.00">/qt/qmewawindow.cpp</text>
</a>
</g>
</g>
<!-- Node3&#45;&gt;Node5 -->
<g id="edge4" class="edge">
<title>Node3&#45;&gt;Node5</title>
<path fill="none" stroke="midnightblue" d="M133.38,-131.64C151.85,-105.42 187.14,-55.33 204.44,-30.78"/>
<polygon fill="midnightblue" stroke="midnightblue" points="130.5,-129.65 127.6,-139.84 136.22,-133.68 130.5,-129.65"/>
</g>
<!-- Node6 -->
<g id="node6" class="node">
<title>Node6</title>
<g id="a_node6"><a xlink:href="qmewawindow_8h.html" target="_top" xlink:title=" ">
<polygon fill="none" stroke="black" points="199.5,-67.5 199.5,-97.5 315.5,-97.5 315.5,-67.5 199.5,-67.5"/>
<text text-anchor="start" x="207.5" y="-85.5" font-family="Helvetica,sans-Serif" font-size="10.00">src/platformabstraction</text>
<text text-anchor="middle" x="257.5" y="-74.5" font-family="Helvetica,sans-Serif" font-size="10.00">/qt/qmewawindow.h</text>
</a>
</g>
</g>
<!-- Node3&#45;&gt;Node6 -->
<g id="edge5" class="edge">
<title>Node3&#45;&gt;Node6</title>
<path fill="none" stroke="midnightblue" d="M148.75,-135.47C171.75,-124.49 204.58,-108.79 228.15,-97.53"/>
<polygon fill="midnightblue" stroke="midnightblue" points="147.07,-132.4 139.56,-139.87 150.09,-138.71 147.07,-132.4"/>
</g>
<!-- Node6&#45;&gt;Node5 -->
<g id="edge6" class="edge">
<title>Node6&#45;&gt;Node5</title>
<path fill="none" stroke="midnightblue" d="M242.53,-58.87C236.3,-49.46 229.27,-38.83 223.81,-30.58"/>
<polygon fill="midnightblue" stroke="midnightblue" points="239.73,-60.99 248.17,-67.4 245.57,-57.12 239.73,-60.99"/>
</g>
<!-- Node17&#45;&gt;Node6 -->
<g id="edge19" class="edge">
<title>Node17&#45;&gt;Node6</title>
<path fill="none" stroke="midnightblue" d="M1696.95,-138.1C1687.87,-136.47 1678.42,-135 1669.5,-134 1400.61,-103.72 546.46,-88.12 315.53,-84.39"/>
<polygon fill="midnightblue" stroke="midnightblue" points="1696.54,-141.58 1707.01,-139.97 1697.82,-134.7 1696.54,-141.58"/>
</g>
<!-- Node18 -->
<g id="node18" class="node">
<title>Node18</title>
<g id="a_node18"><a xlink:href="mxiconatlas_8cpp.html" target="_top" xlink:title=" ">
<polygon fill="none" stroke="black" points="1673,-73 1673,-92 1818,-92 1818,-73 1673,-73"/>
<text text-anchor="middle" x="1745.5" y="-80" font-family="Helvetica,sans-Serif" font-size="10.00">src/iconatlas/mxiconatlas.cpp</text>
</a>
</g>
</g>
<!-- Node17&#45;&gt;Node18 -->
<g id="edge18" class="edge">
<title>Node17&#45;&gt;Node18</title>
<path fill="none" stroke="midnightblue" d="M1745.5,-129.54C1745.5,-117.17 1745.5,-101.62 1745.5,-92.13"/>
<polygon fill="midnightblue" stroke="midnightblue" points="1742,-129.73 1745.5,-139.73 1749,-129.73 1742,-129.73"/>
</g>
</g>
</svg>
