<?xml version="1.0" encoding="UTF-8" standalone="no"?>
<!DOCTYPE svg PUBLIC "-//W3C//DTD SVG 1.1//EN"
 "http://www.w3.org/Graphics/SVG/1.1/DTD/svg11.dtd">
<!-- Generated by graphviz version 2.44.0 ()
 -->
<!-- Title: src/platform/qt/mxopenglfunctions.h Pages: 1 -->
<svg width="2184pt" height="330pt"
 viewBox="0.00 0.00 2183.50 330.00" xmlns="http://www.w3.org/2000/svg" xmlns:xlink="http://www.w3.org/1999/xlink">
<g id="graph0" class="graph" transform="scale(1 1) rotate(0) translate(4 326)">
<title>src/platform/qt/mxopenglfunctions.h</title>
<!-- Node1 -->
<g id="node1" class="node">
<title>Node1</title>
<g id="a_node1"><a xlink:title=" ">
<polygon fill="#bfbfbf" stroke="black" points="1133,-302.5 1133,-321.5 1304,-321.5 1304,-302.5 1133,-302.5"/>
<text text-anchor="middle" x="1218.5" y="-309.5" font-family="Helvetica,sans-Serif" font-size="10.00">src/platform/qt/mxopenglfunctions.h</text>
</a>
</g>
</g>
<!-- Node2 -->
<g id="node2" class="node">
<title>Node2</title>
<g id="a_node2"><a xlink:href="mxrenderer_8h.html" target="_top" xlink:title=" ">
<polygon fill="none" stroke="black" points="1168.5,-235.5 1168.5,-265.5 1268.5,-265.5 1268.5,-235.5 1168.5,-235.5"/>
<text text-anchor="start" x="1176.5" y="-253.5" font-family="Helvetica,sans-Serif" font-size="10.00">src/renderer/opengl</text>
<text text-anchor="middle" x="1218.5" y="-242.5" font-family="Helvetica,sans-Serif" font-size="10.00">/mxrenderer.h</text>
</a>
</g>
</g>
<!-- Node1&#45;&gt;Node2 -->
<g id="edge1" class="edge">
<title>Node1&#45;&gt;Node2</title>
<path fill="none" stroke="midnightblue" d="M1218.5,-292.23C1218.5,-283.59 1218.5,-273.5 1218.5,-265.52"/>
<polygon fill="midnightblue" stroke="midnightblue" points="1215,-292.48 1218.5,-302.48 1222,-292.48 1215,-292.48"/>
</g>
<!-- Node3 -->
<g id="node3" class="node">
<title>Node3</title>
<g id="a_node3"><a xlink:href="mxstaticfont__image_8cpp.html" target="_top" xlink:title=" ">
<polygon fill="none" stroke="black" points="205.5,-168.5 205.5,-198.5 327.5,-198.5 327.5,-168.5 205.5,-168.5"/>
<text text-anchor="start" x="213.5" y="-186.5" font-family="Helvetica,sans-Serif" font-size="10.00">src/font/staticfont</text>
<text text-anchor="middle" x="266.5" y="-175.5" font-family="Helvetica,sans-Serif" font-size="10.00">/mxstaticfont_image.cpp</text>
</a>
</g>
</g>
<!-- Node2&#45;&gt;Node3 -->
<g id="edge2" class="edge">
<title>Node2&#45;&gt;Node3</title>
<path fill="none" stroke="midnightblue" d="M1157.69,-249.09C1014.15,-247.46 643.22,-239.33 336.5,-199 333.67,-198.63 330.78,-198.21 327.87,-197.75"/>
<polygon fill="midnightblue" stroke="midnightblue" points="1158,-252.59 1168.04,-249.2 1158.08,-245.59 1158,-252.59"/>
</g>
<!-- Node4 -->
<g id="node4" class="node">
<title>Node4</title>
<g id="a_node4"><a xlink:href="mxguirenderer_8h.html" target="_top" xlink:title=" ">
<polygon fill="none" stroke="black" points="346,-174 346,-193 463,-193 463,-174 346,-174"/>
<text text-anchor="middle" x="404.5" y="-181" font-family="Helvetica,sans-Serif" font-size="10.00">src/gui/mxguirenderer.h</text>
</a>
</g>
</g>
<!-- Node2&#45;&gt;Node4 -->
<g id="edge3" class="edge">
<title>Node2&#45;&gt;Node4</title>
<path fill="none" stroke="midnightblue" d="M1158.09,-248.39C1030.61,-245.41 725,-234.81 471.5,-199 461.01,-197.52 449.72,-195.31 439.45,-193.07"/>
<polygon fill="midnightblue" stroke="midnightblue" points="1158.33,-251.9 1168.41,-248.63 1158.49,-244.9 1158.33,-251.9"/>
</g>
<!-- Node14 -->
<g id="node14" class="node">
<title>Node14</title>
<g id="a_node14"><a xlink:href="mxicondraw_8cpp.html" target="_top" xlink:title=" ">
<polygon fill="none" stroke="black" points="481,-174 481,-193 600,-193 600,-174 481,-174"/>
<text text-anchor="middle" x="540.5" y="-181" font-family="Helvetica,sans-Serif" font-size="10.00">src/gui/mxicondraw.cpp</text>
</a>
</g>
</g>
<!-- Node2&#45;&gt;Node14 -->
<g id="edge14" class="edge">
<title>Node2&#45;&gt;Node14</title>
<path fill="none" stroke="midnightblue" d="M1157.91,-246.98C1048.1,-241.85 809.08,-228.13 609.5,-199 598.84,-197.44 587.36,-195.24 576.87,-193.03"/>
<polygon fill="midnightblue" stroke="midnightblue" points="1157.98,-250.48 1168.13,-247.45 1158.3,-243.49 1157.98,-250.48"/>
</g>
<!-- Node15 -->
<g id="node15" class="node">
<title>Node15</title>
<g id="a_node15"><a xlink:href="mxvectordraw_8cpp.html" target="_top" xlink:title=" ">
<polygon fill="none" stroke="black" points="618.5,-174 618.5,-193 746.5,-193 746.5,-174 618.5,-174"/>
<text text-anchor="middle" x="682.5" y="-181" font-family="Helvetica,sans-Serif" font-size="10.00">src/gui/mxvectordraw.cpp</text>
</a>
</g>
</g>
<!-- Node2&#45;&gt;Node15 -->
<g id="edge15" class="edge">
<title>Node2&#45;&gt;Node15</title>
<path fill="none" stroke="midnightblue" d="M1158.17,-244.62C1069.59,-237.06 899.26,-221.07 755.5,-199 744.64,-197.33 732.95,-195.17 722.17,-193.03"/>
<polygon fill="midnightblue" stroke="midnightblue" points="1158.04,-248.12 1168.3,-245.47 1158.63,-241.14 1158.04,-248.12"/>
</g>
<!-- Node16 -->
<g id="node16" class="node">
<title>Node16</title>
<g id="a_node16"><a xlink:href="mxiconatlas_8h.html" target="_top" xlink:title=" ">
<polygon fill="none" stroke="black" points="764.5,-174 764.5,-193 898.5,-193 898.5,-174 764.5,-174"/>
<text text-anchor="middle" x="831.5" y="-181" font-family="Helvetica,sans-Serif" font-size="10.00">src/iconatlas/mxiconatlas.h</text>
</a>
</g>
</g>
<!-- Node2&#45;&gt;Node16 -->
<g id="edge16" class="edge">
<title>Node2&#45;&gt;Node16</title>
<path fill="none" stroke="midnightblue" d="M1158.15,-240.12C1095.63,-230.3 995.11,-214.21 908.5,-199 897.92,-197.14 886.53,-195.05 875.85,-193.04"/>
<polygon fill="midnightblue" stroke="midnightblue" points="1157.81,-243.61 1168.23,-241.7 1158.9,-236.69 1157.81,-243.61"/>
</g>
<!-- Node18 -->
<g id="node18" class="node">
<title>Node18</title>
<g id="a_node18"><a xlink:href="qmewapluginwindow_8h.html" target="_top" xlink:title=" ">
<polygon fill="none" stroke="black" points="917,-174 917,-193 1092,-193 1092,-174 917,-174"/>
<text text-anchor="middle" x="1004.5" y="-181" font-family="Helvetica,sans-Serif" font-size="10.00">src/pluginsdk/qmewapluginwindow.h</text>
</a>
</g>
</g>
<!-- Node2&#45;&gt;Node18 -->
<g id="edge19" class="edge">
<title>Node2&#45;&gt;Node18</title>
<path fill="none" stroke="midnightblue" d="M1162.56,-232.51C1120.8,-219.83 1065.48,-203.02 1032.58,-193.03"/>
<polygon fill="midnightblue" stroke="midnightblue" points="1161.74,-235.92 1172.33,-235.48 1163.78,-229.22 1161.74,-235.92"/>
</g>
<!-- Node20 -->
<g id="node20" class="node">
<title>Node20</title>
<g id="a_node20"><a xlink:href="mxcolorwheelprogram_8cpp.html" target="_top" xlink:title=" ">
<polygon fill="none" stroke="black" points="1110,-168.5 1110,-198.5 1327,-198.5 1327,-168.5 1110,-168.5"/>
<text text-anchor="start" x="1118" y="-186.5" font-family="Helvetica,sans-Serif" font-size="10.00">src/renderer/opengl</text>
<text text-anchor="middle" x="1218.5" y="-175.5" font-family="Helvetica,sans-Serif" font-size="10.00">/colorwheelprogram/mxcolorwheelprogram.cpp</text>
</a>
</g>
</g>
<!-- Node2&#45;&gt;Node20 -->
<g id="edge21" class="edge">
<title>Node2&#45;&gt;Node20</title>
<path fill="none" stroke="midnightblue" d="M1218.5,-225.11C1218.5,-216.15 1218.5,-206.32 1218.5,-198.58"/>
<polygon fill="midnightblue" stroke="midnightblue" points="1215,-225.4 1218.5,-235.4 1222,-225.4 1215,-225.4"/>
</g>
<!-- Node21 -->
<g id="node21" class="node">
<title>Node21</title>
<g id="a_node21"><a xlink:href="mxiconprogram_8cpp.html" target="_top" xlink:title=" ">
<polygon fill="none" stroke="black" points="1345.5,-168.5 1345.5,-198.5 1505.5,-198.5 1505.5,-168.5 1345.5,-168.5"/>
<text text-anchor="start" x="1353.5" y="-186.5" font-family="Helvetica,sans-Serif" font-size="10.00">src/renderer/opengl</text>
<text text-anchor="middle" x="1425.5" y="-175.5" font-family="Helvetica,sans-Serif" font-size="10.00">/iconprogram/mxiconprogram.cpp</text>
</a>
</g>
</g>
<!-- Node2&#45;&gt;Node21 -->
<g id="edge22" class="edge">
<title>Node2&#45;&gt;Node21</title>
<path fill="none" stroke="midnightblue" d="M1272.82,-232.44C1306.37,-221.91 1348.91,-208.55 1380.56,-198.61"/>
<polygon fill="midnightblue" stroke="midnightblue" points="1271.65,-229.14 1263.16,-235.48 1273.75,-235.82 1271.65,-229.14"/>
</g>
<!-- Node22 -->
<g id="node22" class="node">
<title>Node22</title>
<g id="a_node22"><a xlink:href="mxgpuarray_8cpp.html" target="_top" xlink:title=" ">
<polygon fill="none" stroke="black" points="1523.5,-168.5 1523.5,-198.5 1623.5,-198.5 1623.5,-168.5 1523.5,-168.5"/>
<text text-anchor="start" x="1531.5" y="-186.5" font-family="Helvetica,sans-Serif" font-size="10.00">src/renderer/opengl</text>
<text text-anchor="middle" x="1573.5" y="-175.5" font-family="Helvetica,sans-Serif" font-size="10.00">/mxgpuarray.cpp</text>
</a>
</g>
</g>
<!-- Node2&#45;&gt;Node22 -->
<g id="edge23" class="edge">
<title>Node2&#45;&gt;Node22</title>
<path fill="none" stroke="midnightblue" d="M1278.78,-240.52C1338.76,-231.28 1433.32,-215.88 1514.5,-199 1517.39,-198.4 1520.36,-197.76 1523.34,-197.09"/>
<polygon fill="midnightblue" stroke="midnightblue" points="1278.08,-237.09 1268.72,-242.06 1279.14,-244 1278.08,-237.09"/>
</g>
<!-- Node23 -->
<g id="node23" class="node">
<title>Node23</title>
<g id="a_node23"><a xlink:href="mxgpuprogram_8cpp.html" target="_top" xlink:title=" ">
<polygon fill="none" stroke="black" points="1642,-168.5 1642,-198.5 1743,-198.5 1743,-168.5 1642,-168.5"/>
<text text-anchor="start" x="1650" y="-186.5" font-family="Helvetica,sans-Serif" font-size="10.00">src/renderer/opengl</text>
<text text-anchor="middle" x="1692.5" y="-175.5" font-family="Helvetica,sans-Serif" font-size="10.00">/mxgpuprogram.cpp</text>
</a>
</g>
</g>
<!-- Node2&#45;&gt;Node23 -->
<g id="edge24" class="edge">
<title>Node2&#45;&gt;Node23</title>
<path fill="none" stroke="midnightblue" d="M1278.81,-244.35C1359.71,-236.94 1507.64,-221.62 1632.5,-199 1635.56,-198.45 1638.69,-197.83 1641.85,-197.18"/>
<polygon fill="midnightblue" stroke="midnightblue" points="1278.45,-240.87 1268.81,-245.26 1279.08,-247.84 1278.45,-240.87"/>
</g>
<!-- Node24 -->
<g id="node24" class="node">
<title>Node24</title>
<g id="a_node24"><a xlink:href="mxrenderer_8cpp.html" target="_top" xlink:title=" ">
<polygon fill="none" stroke="black" points="1761.5,-168.5 1761.5,-198.5 1861.5,-198.5 1861.5,-168.5 1761.5,-168.5"/>
<text text-anchor="start" x="1769.5" y="-186.5" font-family="Helvetica,sans-Serif" font-size="10.00">src/renderer/opengl</text>
<text text-anchor="middle" x="1811.5" y="-175.5" font-family="Helvetica,sans-Serif" font-size="10.00">/mxrenderer.cpp</text>
</a>
</g>
</g>
<!-- Node2&#45;&gt;Node24 -->
<g id="edge25" class="edge">
<title>Node2&#45;&gt;Node24</title>
<path fill="none" stroke="midnightblue" d="M1278.65,-246.69C1377.92,-241.42 1582.02,-227.85 1752.5,-199 1755.41,-198.51 1758.39,-197.95 1761.39,-197.34"/>
<polygon fill="midnightblue" stroke="midnightblue" points="1278.32,-243.21 1268.51,-247.22 1278.68,-250.2 1278.32,-243.21"/>
</g>
<!-- Node25 -->
<g id="node25" class="node">
<title>Node25</title>
<g id="a_node25"><a xlink:href="mxtexture_8cpp.html" target="_top" xlink:title=" ">
<polygon fill="none" stroke="black" points="1879.5,-168.5 1879.5,-198.5 1979.5,-198.5 1979.5,-168.5 1879.5,-168.5"/>
<text text-anchor="start" x="1887.5" y="-186.5" font-family="Helvetica,sans-Serif" font-size="10.00">src/renderer/opengl</text>
<text text-anchor="middle" x="1929.5" y="-175.5" font-family="Helvetica,sans-Serif" font-size="10.00">/mxtexture.cpp</text>
</a>
</g>
</g>
<!-- Node2&#45;&gt;Node25 -->
<g id="edge26" class="edge">
<title>Node2&#45;&gt;Node25</title>
<path fill="none" stroke="midnightblue" d="M1278.78,-248.12C1394.29,-244.76 1654.5,-233.67 1870.5,-199 1873.42,-198.53 1876.4,-197.99 1879.4,-197.4"/>
<polygon fill="midnightblue" stroke="midnightblue" points="1278.62,-244.63 1268.73,-248.41 1278.82,-251.62 1278.62,-244.63"/>
</g>
<!-- Node26 -->
<g id="node26" class="node">
<title>Node26</title>
<g id="a_node26"><a xlink:href="mxvectorprogram_8cpp.html" target="_top" xlink:title=" ">
<polygon fill="none" stroke="black" points="1997.5,-168.5 1997.5,-198.5 2175.5,-198.5 2175.5,-168.5 1997.5,-168.5"/>
<text text-anchor="start" x="2005.5" y="-186.5" font-family="Helvetica,sans-Serif" font-size="10.00">src/renderer/opengl</text>
<text text-anchor="middle" x="2086.5" y="-175.5" font-family="Helvetica,sans-Serif" font-size="10.00">/vectorprogram/mxvectorprogram.cpp</text>
</a>
</g>
</g>
<!-- Node2&#45;&gt;Node26 -->
<g id="edge27" class="edge">
<title>Node2&#45;&gt;Node26</title>
<path fill="none" stroke="midnightblue" d="M1278.76,-247.22C1408.71,-241.93 1724.88,-227.1 1988.5,-199 1991.41,-198.69 1994.36,-198.36 1997.34,-198.01"/>
<polygon fill="midnightblue" stroke="midnightblue" points="1278.47,-243.73 1268.62,-247.63 1278.75,-250.72 1278.47,-243.73"/>
</g>
<!-- Node5 -->
<g id="node5" class="node">
<title>Node5</title>
<g id="a_node5"><a xlink:href="mxapplication_8h.html" target="_top" xlink:title=" ">
<polygon fill="none" stroke="black" points="194.5,-112.5 194.5,-131.5 326.5,-131.5 326.5,-112.5 194.5,-112.5"/>
<text text-anchor="middle" x="260.5" y="-119.5" font-family="Helvetica,sans-Serif" font-size="10.00">src/events/mxapplication.h</text>
</a>
</g>
</g>
<!-- Node4&#45;&gt;Node5 -->
<g id="edge4" class="edge">
<title>Node4&#45;&gt;Node5</title>
<path fill="none" stroke="midnightblue" d="M374.57,-170.13C346.59,-158.57 305.56,-141.62 281.09,-131.51"/>
<polygon fill="midnightblue" stroke="midnightblue" points="373.29,-173.39 383.87,-173.98 375.96,-166.92 373.29,-173.39"/>
</g>
<!-- Node12 -->
<g id="node12" class="node">
<title>Node12</title>
<g id="a_node12"><a xlink:href="mxguirenderer_8cpp.html" target="_top" xlink:title=" ">
<polygon fill="none" stroke="black" points="344.5,-112.5 344.5,-131.5 472.5,-131.5 472.5,-112.5 344.5,-112.5"/>
<text text-anchor="middle" x="408.5" y="-119.5" font-family="Helvetica,sans-Serif" font-size="10.00">src/gui/mxguirenderer.cpp</text>
</a>
</g>
</g>
<!-- Node4&#45;&gt;Node12 -->
<g id="edge12" class="edge">
<title>Node4&#45;&gt;Node12</title>
<path fill="none" stroke="midnightblue" d="M405.76,-163.82C406.48,-153 407.36,-139.9 407.93,-131.51"/>
<polygon fill="midnightblue" stroke="midnightblue" points="402.25,-163.76 405.07,-173.98 409.24,-164.23 402.25,-163.76"/>
</g>
<!-- Node13 -->
<g id="node13" class="node">
<title>Node13</title>
<g id="a_node13"><a xlink:href="mxpainter_8cpp.html" target="_top" xlink:title=" ">
<polygon fill="none" stroke="black" points="491,-112.5 491,-131.5 600,-131.5 600,-112.5 491,-112.5"/>
<text text-anchor="middle" x="545.5" y="-119.5" font-family="Helvetica,sans-Serif" font-size="10.00">src/gui/mxpainter.cpp</text>
</a>
</g>
</g>
<!-- Node4&#45;&gt;Node13 -->
<g id="edge13" class="edge">
<title>Node4&#45;&gt;Node13</title>
<path fill="none" stroke="midnightblue" d="M434.17,-169.98C461.55,-158.42 501.48,-141.58 525.34,-131.51"/>
<polygon fill="midnightblue" stroke="midnightblue" points="432.55,-166.86 424.7,-173.98 435.28,-173.31 432.55,-166.86"/>
</g>
<!-- Node6 -->
<g id="node6" class="node">
<title>Node6</title>
<g id="a_node6"><a xlink:href="mxapplication_8cpp.html" target="_top" xlink:title=" ">
<polygon fill="none" stroke="black" points="0,-56.5 0,-75.5 143,-75.5 143,-56.5 0,-56.5"/>
<text text-anchor="middle" x="71.5" y="-63.5" font-family="Helvetica,sans-Serif" font-size="10.00">src/events/mxapplication.cpp</text>
</a>
</g>
</g>
<!-- Node5&#45;&gt;Node6 -->
<g id="edge5" class="edge">
<title>Node5&#45;&gt;Node6</title>
<path fill="none" stroke="midnightblue" d="M220.49,-109.57C184.83,-99.38 133.46,-84.7 101.31,-75.52"/>
<polygon fill="midnightblue" stroke="midnightblue" points="219.98,-113.06 230.55,-112.44 221.9,-106.33 219.98,-113.06"/>
</g>
<!-- Node7 -->
<g id="node7" class="node">
<title>Node7</title>
<g id="a_node7"><a xlink:href="qmewawindow_8cpp.html" target="_top" xlink:title=" ">
<polygon fill="none" stroke="black" points="366,-0.5 366,-19.5 531,-19.5 531,-0.5 366,-0.5"/>
<text text-anchor="middle" x="448.5" y="-7.5" font-family="Helvetica,sans-Serif" font-size="10.00">src/platform/qt/qmewawindow.cpp</text>
</a>
</g>
</g>
<!-- Node5&#45;&gt;Node7 -->
<g id="edge6" class="edge">
<title>Node5&#45;&gt;Node7</title>
<path fill="none" stroke="midnightblue" d="M229.55,-108.24C203.77,-95.8 173.77,-75.9 190.5,-56 212.66,-29.64 298.95,-18.72 365.71,-14.19"/>
<polygon fill="midnightblue" stroke="midnightblue" points="228.21,-111.48 238.76,-112.47 231.14,-105.11 228.21,-111.48"/>
</g>
<!-- Node8 -->
<g id="node8" class="node">
<title>Node8</title>
<g id="a_node8"><a xlink:href="qmewawindow_8h.html" target="_top" xlink:title=" ">
<polygon fill="none" stroke="black" points="649,-56.5 649,-75.5 804,-75.5 804,-56.5 649,-56.5"/>
<text text-anchor="middle" x="726.5" y="-63.5" font-family="Helvetica,sans-Serif" font-size="10.00">src/platform/qt/qmewawindow.h</text>
</a>
</g>
</g>
<!-- Node5&#45;&gt;Node8 -->
<g id="edge7" class="edge">
<title>Node5&#45;&gt;Node8</title>
<path fill="none" stroke="midnightblue" d="M336.85,-111.85C452.61,-98.26 575.04,-84.24 651.53,-75.52"/>
<polygon fill="midnightblue" stroke="midnightblue" points="336.27,-108.39 326.75,-113.03 337.09,-115.34 336.27,-108.39"/>
</g>
<!-- Node9 -->
<g id="node9" class="node">
<title>Node9</title>
<g id="a_node9"><a xlink:href="mxlabel_8cpp.html" target="_top" xlink:title=" ">
<polygon fill="none" stroke="black" points="200,-56.5 200,-75.5 321,-75.5 321,-56.5 200,-56.5"/>
<text text-anchor="middle" x="260.5" y="-63.5" font-family="Helvetica,sans-Serif" font-size="10.00">src/widgets/mxlabel.cpp</text>
</a>
</g>
</g>
<!-- Node5&#45;&gt;Node9 -->
<g id="edge9" class="edge">
<title>Node5&#45;&gt;Node9</title>
<path fill="none" stroke="midnightblue" d="M260.5,-101.8C260.5,-92.91 260.5,-82.78 260.5,-75.75"/>
<polygon fill="midnightblue" stroke="midnightblue" points="257,-102.08 260.5,-112.08 264,-102.08 257,-102.08"/>
</g>
<!-- Node10 -->
<g id="node10" class="node">
<title>Node10</title>
<g id="a_node10"><a xlink:href="mxlineedit_8cpp.html" target="_top" xlink:title=" ">
<polygon fill="none" stroke="black" points="339,-56.5 339,-75.5 470,-75.5 470,-56.5 339,-56.5"/>
<text text-anchor="middle" x="404.5" y="-63.5" font-family="Helvetica,sans-Serif" font-size="10.00">src/widgets/mxlineedit.cpp</text>
</a>
</g>
</g>
<!-- Node5&#45;&gt;Node10 -->
<g id="edge10" class="edge">
<title>Node5&#45;&gt;Node10</title>
<path fill="none" stroke="midnightblue" d="M292.75,-108.91C319.82,-98.75 357.82,-84.51 381.79,-75.52"/>
<polygon fill="midnightblue" stroke="midnightblue" points="291.45,-105.66 283.32,-112.44 293.91,-112.21 291.45,-105.66"/>
</g>
<!-- Node11 -->
<g id="node11" class="node">
<title>Node11</title>
<g id="a_node11"><a xlink:href="mxtextbutton_8cpp.html" target="_top" xlink:title=" ">
<polygon fill="none" stroke="black" points="488,-56.5 488,-75.5 631,-75.5 631,-56.5 488,-56.5"/>
<text text-anchor="middle" x="559.5" y="-63.5" font-family="Helvetica,sans-Serif" font-size="10.00">src/widgets/mxtextbutton.cpp</text>
</a>
</g>
</g>
<!-- Node5&#45;&gt;Node11 -->
<g id="edge11" class="edge">
<title>Node5&#45;&gt;Node11</title>
<path fill="none" stroke="midnightblue" d="M317.73,-110.66C374.24,-100.46 459.62,-85.04 512.34,-75.52"/>
<polygon fill="midnightblue" stroke="midnightblue" points="317.1,-107.22 307.88,-112.44 318.34,-114.11 317.1,-107.22"/>
</g>
<!-- Node8&#45;&gt;Node7 -->
<g id="edge8" class="edge">
<title>Node8&#45;&gt;Node7</title>
<path fill="none" stroke="midnightblue" d="M672.31,-54.47C619.77,-44.27 541.06,-28.98 492.34,-19.52"/>
<polygon fill="midnightblue" stroke="midnightblue" points="671.97,-57.97 682.45,-56.44 673.3,-51.1 671.97,-57.97"/>
</g>
<!-- Node16&#45;&gt;Node8 -->
<g id="edge18" class="edge">
<title>Node16&#45;&gt;Node8</title>
<path fill="none" stroke="midnightblue" d="M799.54,-169.6C782.28,-161.19 761.84,-148.66 748.5,-132 734.95,-115.08 729.54,-89.36 727.55,-75.91"/>
<polygon fill="midnightblue" stroke="midnightblue" points="798.18,-172.83 808.73,-173.85 801.12,-166.48 798.18,-172.83"/>
</g>
<!-- Node17 -->
<g id="node17" class="node">
<title>Node17</title>
<g id="a_node17"><a xlink:href="mxiconatlas_8cpp.html" target="_top" xlink:title=" ">
<polygon fill="none" stroke="black" points="758,-112.5 758,-131.5 903,-131.5 903,-112.5 758,-112.5"/>
<text text-anchor="middle" x="830.5" y="-119.5" font-family="Helvetica,sans-Serif" font-size="10.00">src/iconatlas/mxiconatlas.cpp</text>
</a>
</g>
</g>
<!-- Node16&#45;&gt;Node17 -->
<g id="edge17" class="edge">
<title>Node16&#45;&gt;Node17</title>
<path fill="none" stroke="midnightblue" d="M831.19,-163.82C831,-153 830.78,-139.9 830.64,-131.51"/>
<polygon fill="midnightblue" stroke="midnightblue" points="827.69,-164.04 831.36,-173.98 834.69,-163.92 827.69,-164.04"/>
</g>
<!-- Node19 -->
<g id="node19" class="node">
<title>Node19</title>
<g id="a_node19"><a xlink:href="qmewapluginwindow_8cpp.html" target="_top" xlink:title=" ">
<polygon fill="none" stroke="black" points="921,-112.5 921,-131.5 1106,-131.5 1106,-112.5 921,-112.5"/>
<text text-anchor="middle" x="1013.5" y="-119.5" font-family="Helvetica,sans-Serif" font-size="10.00">src/pluginsdk/qmewapluginwindow.cpp</text>
</a>
</g>
</g>
<!-- Node18&#45;&gt;Node19 -->
<g id="edge20" class="edge">
<title>Node18&#45;&gt;Node19</title>
<path fill="none" stroke="midnightblue" d="M1007.33,-163.82C1008.96,-153 1010.94,-139.9 1012.21,-131.51"/>
<polygon fill="midnightblue" stroke="midnightblue" points="1003.82,-163.56 1005.79,-173.98 1010.75,-164.61 1003.82,-163.56"/>
</g>
</g>
</svg>
