<?xml version="1.0" encoding="UTF-8" standalone="no"?>
<!DOCTYPE svg PUBLIC "-//W3C//DTD SVG 1.1//EN"
 "http://www.w3.org/Graphics/SVG/1.1/DTD/svg11.dtd">
<!-- Generated by graphviz version 2.44.0 ()
 -->
<!-- Title: src/platformabstraction/qt/mxopengl.h Pages: 1 -->
<svg width="1708pt" height="642pt"
 viewBox="0.00 0.00 1707.50 642.00" xmlns="http://www.w3.org/2000/svg" xmlns:xlink="http://www.w3.org/1999/xlink">
<g id="graph0" class="graph" transform="scale(1 1) rotate(0) translate(4 638)">
<title>src/platformabstraction/qt/mxopengl.h</title>
<!-- Node1 -->
<g id="node1" class="node">
<title>Node1</title>
<g id="a_node1"><a xlink:title=" ">
<polygon fill="#bfbfbf" stroke="black" points="729.5,-603.5 729.5,-633.5 845.5,-633.5 845.5,-603.5 729.5,-603.5"/>
<text text-anchor="start" x="737.5" y="-621.5" font-family="Helvetica,sans-Serif" font-size="10.00">src/platformabstraction</text>
<text text-anchor="middle" x="787.5" y="-610.5" font-family="Helvetica,sans-Serif" font-size="10.00">/qt/mxopengl.h</text>
</a>
</g>
</g>
<!-- Node2 -->
<g id="node2" class="node">
<title>Node2</title>
<g id="a_node2"><a xlink:href="mxcolorwheelprogram_8h.html" target="_top" xlink:title=" ">
<polygon fill="none" stroke="black" points="151.5,-402.5 151.5,-432.5 273.5,-432.5 273.5,-402.5 151.5,-402.5"/>
<text text-anchor="start" x="159.5" y="-420.5" font-family="Helvetica,sans-Serif" font-size="10.00">src/gui/colorselector</text>
<text text-anchor="middle" x="212.5" y="-409.5" font-family="Helvetica,sans-Serif" font-size="10.00">/mxcolorwheelprogram.h</text>
</a>
</g>
</g>
<!-- Node1&#45;&gt;Node2 -->
<g id="edge1" class="edge">
<title>Node1&#45;&gt;Node2</title>
<path fill="none" stroke="midnightblue" d="M718.79,-616.91C605.32,-614.82 384.74,-605.73 318.5,-567 264.08,-535.19 230.22,-463.1 217.83,-432.58"/>
<polygon fill="midnightblue" stroke="midnightblue" points="719.03,-620.41 729.09,-617.08 719.15,-613.41 719.03,-620.41"/>
</g>
<!-- Node12 -->
<g id="node12" class="node">
<title>Node12</title>
<g id="a_node12"><a xlink:href="mxvectordraw_8cpp.html" target="_top" xlink:title=" ">
<polygon fill="none" stroke="black" points="1345.5,-134.5 1345.5,-164.5 1443.5,-164.5 1443.5,-134.5 1345.5,-134.5"/>
<text text-anchor="start" x="1353.5" y="-152.5" font-family="Helvetica,sans-Serif" font-size="10.00">src/gui/vectordraw</text>
<text text-anchor="middle" x="1394.5" y="-141.5" font-family="Helvetica,sans-Serif" font-size="10.00">/mxvectordraw.cpp</text>
</a>
</g>
</g>
<!-- Node1&#45;&gt;Node12 -->
<g id="edge25" class="edge">
<title>Node1&#45;&gt;Node12</title>
<path fill="none" stroke="midnightblue" d="M855.67,-611.75C1031.28,-596.02 1485.5,-549.17 1485.5,-485.5 1485.5,-485.5 1485.5,-485.5 1485.5,-282.5 1485.5,-231.84 1439.51,-186.5 1412.92,-164.51"/>
<polygon fill="midnightblue" stroke="midnightblue" points="855.16,-608.28 845.51,-612.65 855.78,-615.25 855.16,-608.28"/>
</g>
<!-- Node16 -->
<g id="node16" class="node">
<title>Node16</title>
<g id="a_node16"><a xlink:href="mxcachedgpuarray_8cpp.html" target="_top" xlink:title=" ">
<polygon fill="none" stroke="black" points="1462,-134.5 1462,-164.5 1581,-164.5 1581,-134.5 1462,-134.5"/>
<text text-anchor="start" x="1470" y="-152.5" font-family="Helvetica,sans-Serif" font-size="10.00">src/renderer/opengl</text>
<text text-anchor="middle" x="1521.5" y="-141.5" font-family="Helvetica,sans-Serif" font-size="10.00">/mxcachedgpuarray.cpp</text>
</a>
</g>
</g>
<!-- Node1&#45;&gt;Node16 -->
<g id="edge26" class="edge">
<title>Node1&#45;&gt;Node16</title>
<path fill="none" stroke="midnightblue" d="M855.77,-616.29C958.71,-613.31 1159.29,-602.96 1325.5,-567 1433.96,-543.54 1561.5,-596.47 1561.5,-485.5 1561.5,-485.5 1561.5,-485.5 1561.5,-282.5 1561.5,-237.96 1540.38,-188.46 1528.84,-164.72"/>
<polygon fill="midnightblue" stroke="midnightblue" points="855.42,-612.8 845.52,-616.58 855.61,-619.8 855.42,-612.8"/>
</g>
<!-- Node17 -->
<g id="node17" class="node">
<title>Node17</title>
<g id="a_node17"><a xlink:href="mxgpuarray_8cpp.html" target="_top" xlink:title=" ">
<polygon fill="none" stroke="black" points="1599.5,-134.5 1599.5,-164.5 1699.5,-164.5 1699.5,-134.5 1599.5,-134.5"/>
<text text-anchor="start" x="1607.5" y="-152.5" font-family="Helvetica,sans-Serif" font-size="10.00">src/renderer/opengl</text>
<text text-anchor="middle" x="1649.5" y="-141.5" font-family="Helvetica,sans-Serif" font-size="10.00">/mxgpuarray.cpp</text>
</a>
</g>
</g>
<!-- Node1&#45;&gt;Node17 -->
<g id="edge27" class="edge">
<title>Node1&#45;&gt;Node17</title>
<path fill="none" stroke="midnightblue" d="M855.77,-614.98C1001.2,-609.18 1337.35,-593.32 1448.5,-567 1541.5,-544.98 1647.5,-581.07 1647.5,-485.5 1647.5,-485.5 1647.5,-485.5 1647.5,-282.5 1647.5,-239.64 1648.57,-188.96 1649.14,-164.76"/>
<polygon fill="midnightblue" stroke="midnightblue" points="855.49,-611.49 845.63,-615.38 855.76,-618.49 855.49,-611.49"/>
</g>
<!-- Node20 -->
<g id="node20" class="node">
<title>Node20</title>
<g id="a_node20"><a xlink:href="mxiconprogram_8h.html" target="_top" xlink:title=" ">
<polygon fill="none" stroke="black" points="392.5,-475 392.5,-494 556.5,-494 556.5,-475 392.5,-475"/>
<text text-anchor="middle" x="474.5" y="-482" font-family="Helvetica,sans-Serif" font-size="10.00">src/gui/icondraw/mxiconprogram.h</text>
</a>
</g>
</g>
<!-- Node1&#45;&gt;Node20 -->
<g id="edge22" class="edge">
<title>Node1&#45;&gt;Node20</title>
<path fill="none" stroke="midnightblue" d="M744.69,-599.45C676.39,-570.64 545.32,-515.37 494.93,-494.12"/>
<polygon fill="midnightblue" stroke="midnightblue" points="743.73,-602.84 754.3,-603.5 746.45,-596.39 743.73,-602.84"/>
</g>
<!-- Node21 -->
<g id="node21" class="node">
<title>Node21</title>
<g id="a_node21"><a xlink:href="mxgpuarray_8h.html" target="_top" xlink:title=" ">
<polygon fill="none" stroke="black" points="737.5,-469.5 737.5,-499.5 837.5,-499.5 837.5,-469.5 737.5,-469.5"/>
<text text-anchor="start" x="745.5" y="-487.5" font-family="Helvetica,sans-Serif" font-size="10.00">src/renderer/opengl</text>
<text text-anchor="middle" x="787.5" y="-476.5" font-family="Helvetica,sans-Serif" font-size="10.00">/mxgpuarray.h</text>
</a>
</g>
</g>
<!-- Node1&#45;&gt;Node21 -->
<g id="edge28" class="edge">
<title>Node1&#45;&gt;Node21</title>
<path fill="none" stroke="midnightblue" d="M787.5,-593.02C787.5,-565.51 787.5,-521.79 787.5,-499.52"/>
<polygon fill="midnightblue" stroke="midnightblue" points="784,-593.37 787.5,-603.37 791,-593.37 784,-593.37"/>
</g>
<!-- Node35 -->
<g id="node35" class="node">
<title>Node35</title>
<g id="a_node35"><a xlink:href="mxshaderprogram_8h.html" target="_top" xlink:title=" ">
<polygon fill="none" stroke="black" points="327.5,-536.5 327.5,-566.5 431.5,-566.5 431.5,-536.5 327.5,-536.5"/>
<text text-anchor="start" x="335.5" y="-554.5" font-family="Helvetica,sans-Serif" font-size="10.00">src/renderer/opengl</text>
<text text-anchor="middle" x="379.5" y="-543.5" font-family="Helvetica,sans-Serif" font-size="10.00">/mxshaderprogram.h</text>
</a>
</g>
</g>
<!-- Node1&#45;&gt;Node35 -->
<g id="edge56" class="edge">
<title>Node1&#45;&gt;Node35</title>
<path fill="none" stroke="midnightblue" d="M719.37,-606.65C638.3,-593.73 504.73,-572.45 431.51,-560.79"/>
<polygon fill="midnightblue" stroke="midnightblue" points="719.05,-610.14 729.48,-608.26 720.15,-603.23 719.05,-610.14"/>
</g>
<!-- Node3 -->
<g id="node3" class="node">
<title>Node3</title>
<g id="a_node3"><a xlink:href="mxcolorwheelprogram_8cpp.html" target="_top" xlink:title=" ">
<polygon fill="none" stroke="black" points="133.5,-134.5 133.5,-164.5 265.5,-164.5 265.5,-134.5 133.5,-134.5"/>
<text text-anchor="start" x="141.5" y="-152.5" font-family="Helvetica,sans-Serif" font-size="10.00">src/gui/colorselector</text>
<text text-anchor="middle" x="199.5" y="-141.5" font-family="Helvetica,sans-Serif" font-size="10.00">/mxcolorwheelprogram.cpp</text>
</a>
</g>
</g>
<!-- Node2&#45;&gt;Node3 -->
<g id="edge2" class="edge">
<title>Node2&#45;&gt;Node3</title>
<path fill="none" stroke="midnightblue" d="M211.31,-392.07C208.64,-337.57 202.29,-207.52 200.19,-164.55"/>
<polygon fill="midnightblue" stroke="midnightblue" points="207.82,-392.38 211.8,-402.2 214.81,-392.04 207.82,-392.38"/>
</g>
<!-- Node4 -->
<g id="node4" class="node">
<title>Node4</title>
<g id="a_node4"><a xlink:href="mxrenderer_8h.html" target="_top" xlink:title=" ">
<polygon fill="none" stroke="black" points="330.5,-201.5 330.5,-231.5 430.5,-231.5 430.5,-201.5 330.5,-201.5"/>
<text text-anchor="start" x="338.5" y="-219.5" font-family="Helvetica,sans-Serif" font-size="10.00">src/renderer/opengl</text>
<text text-anchor="middle" x="380.5" y="-208.5" font-family="Helvetica,sans-Serif" font-size="10.00">/mxrenderer.h</text>
</a>
</g>
</g>
<!-- Node2&#45;&gt;Node4 -->
<g id="edge3" class="edge">
<title>Node2&#45;&gt;Node4</title>
<path fill="none" stroke="midnightblue" d="M226.7,-393.52C246.01,-363.17 282.49,-308.8 320.5,-268 333.03,-254.55 349.03,-241.24 361.36,-231.67"/>
<polygon fill="midnightblue" stroke="midnightblue" points="223.65,-391.8 221.28,-402.13 229.57,-395.53 223.65,-391.8"/>
</g>
<!-- Node4&#45;&gt;Node3 -->
<g id="edge9" class="edge">
<title>Node4&#45;&gt;Node3</title>
<path fill="none" stroke="midnightblue" d="M331.64,-197.96C302.49,-187.48 265.96,-174.37 238.7,-164.58"/>
<polygon fill="midnightblue" stroke="midnightblue" points="330.63,-201.31 341.23,-201.4 333,-194.72 330.63,-201.31"/>
</g>
<!-- Node5 -->
<g id="node5" class="node">
<title>Node5</title>
<g id="a_node5"><a xlink:href="mxapplication_8h.html" target="_top" xlink:title=" ">
<polygon fill="none" stroke="black" points="1015.5,-140 1015.5,-159 1147.5,-159 1147.5,-140 1015.5,-140"/>
<text text-anchor="middle" x="1081.5" y="-147" font-family="Helvetica,sans-Serif" font-size="10.00">src/events/mxapplication.h</text>
</a>
</g>
</g>
<!-- Node4&#45;&gt;Node5 -->
<g id="edge4" class="edge">
<title>Node4&#45;&gt;Node5</title>
<path fill="none" stroke="midnightblue" d="M440.71,-201.01C690.89,-163.61 759.33,-196.61 1006.5,-165 1018.21,-163.5 1030.84,-161.29 1042.34,-159.05"/>
<polygon fill="midnightblue" stroke="midnightblue" points="439.95,-197.59 430.59,-202.55 441,-204.51 439.95,-197.59"/>
</g>
<!-- Node9 -->
<g id="node9" class="node">
<title>Node9</title>
<g id="a_node9"><a xlink:href="mxicondraw_8cpp.html" target="_top" xlink:title=" ">
<polygon fill="none" stroke="black" points="1166,-140 1166,-159 1327,-159 1327,-140 1166,-140"/>
<text text-anchor="middle" x="1246.5" y="-147" font-family="Helvetica,sans-Serif" font-size="10.00">src/gui/icondraw/mxicondraw.cpp</text>
</a>
</g>
</g>
<!-- Node4&#45;&gt;Node9 -->
<g id="edge10" class="edge">
<title>Node4&#45;&gt;Node9</title>
<path fill="none" stroke="midnightblue" d="M440.49,-201.06C756.94,-155.6 842.44,-198.08 1156.5,-165 1170.67,-163.51 1185.99,-161.27 1199.92,-159"/>
<polygon fill="midnightblue" stroke="midnightblue" points="439.98,-197.6 430.58,-202.5 440.98,-204.53 439.98,-197.6"/>
</g>
<!-- Node10 -->
<g id="node10" class="node">
<title>Node10</title>
<g id="a_node10"><a xlink:href="mxiconprogram_8cpp.html" target="_top" xlink:title=" ">
<polygon fill="none" stroke="black" points="415,-140 415,-159 590,-159 590,-140 415,-140"/>
<text text-anchor="middle" x="502.5" y="-147" font-family="Helvetica,sans-Serif" font-size="10.00">src/gui/icondraw/mxiconprogram.cpp</text>
</a>
</g>
</g>
<!-- Node4&#45;&gt;Node10 -->
<g id="edge11" class="edge">
<title>Node4&#45;&gt;Node10</title>
<path fill="none" stroke="midnightblue" d="M415.9,-196.64C439.24,-184.2 468.69,-168.51 486.53,-159.01"/>
<polygon fill="midnightblue" stroke="midnightblue" points="414.15,-193.6 406.97,-201.4 417.44,-199.78 414.15,-193.6"/>
</g>
<!-- Node11 -->
<g id="node11" class="node">
<title>Node11</title>
<g id="a_node11"><a xlink:href="mxpainter_8cpp.html" target="_top" xlink:title=" ">
<polygon fill="none" stroke="black" points="888,-140 888,-159 997,-159 997,-140 888,-140"/>
<text text-anchor="middle" x="942.5" y="-147" font-family="Helvetica,sans-Serif" font-size="10.00">src/gui/mxpainter.cpp</text>
</a>
</g>
</g>
<!-- Node4&#45;&gt;Node11 -->
<g id="edge12" class="edge">
<title>Node4&#45;&gt;Node11</title>
<path fill="none" stroke="midnightblue" d="M440.63,-200.99C630.54,-170.75 682.84,-191.27 869.5,-165 880.63,-163.43 892.63,-161.26 903.62,-159.07"/>
<polygon fill="midnightblue" stroke="midnightblue" points="439.91,-197.56 430.6,-202.62 441.03,-204.47 439.91,-197.56"/>
</g>
<!-- Node4&#45;&gt;Node12 -->
<g id="edge13" class="edge">
<title>Node4&#45;&gt;Node12</title>
<path fill="none" stroke="midnightblue" d="M440.58,-201.07C836.35,-146.37 944.84,-221.21 1336.5,-165 1339.38,-164.59 1342.32,-164.09 1345.28,-163.54"/>
<polygon fill="midnightblue" stroke="midnightblue" points="440,-197.61 430.58,-202.47 440.97,-204.55 440,-197.61"/>
</g>
<!-- Node13 -->
<g id="node13" class="node">
<title>Node13</title>
<g id="a_node13"><a xlink:href="mxvectorprogram_8cpp.html" target="_top" xlink:title=" ">
<polygon fill="none" stroke="black" points="284,-134.5 284,-164.5 397,-164.5 397,-134.5 284,-134.5"/>
<text text-anchor="start" x="292" y="-152.5" font-family="Helvetica,sans-Serif" font-size="10.00">src/gui/vectordraw</text>
<text text-anchor="middle" x="340.5" y="-141.5" font-family="Helvetica,sans-Serif" font-size="10.00">/mxvectorprogram.cpp</text>
</a>
</g>
</g>
<!-- Node4&#45;&gt;Node13 -->
<g id="edge14" class="edge">
<title>Node4&#45;&gt;Node13</title>
<path fill="none" stroke="midnightblue" d="M366.57,-192.87C360.78,-183.46 354.24,-172.83 349.16,-164.58"/>
<polygon fill="midnightblue" stroke="midnightblue" points="363.6,-194.71 371.82,-201.4 369.56,-191.05 363.6,-194.71"/>
</g>
<!-- Node14 -->
<g id="node14" class="node">
<title>Node14</title>
<g id="a_node14"><a xlink:href="mxiconatlas_8h.html" target="_top" xlink:title=" ">
<polygon fill="none" stroke="black" points="726.5,-140 726.5,-159 860.5,-159 860.5,-140 726.5,-140"/>
<text text-anchor="middle" x="793.5" y="-147" font-family="Helvetica,sans-Serif" font-size="10.00">src/iconatlas/mxiconatlas.h</text>
</a>
</g>
</g>
<!-- Node4&#45;&gt;Node14 -->
<g id="edge15" class="edge">
<title>Node4&#45;&gt;Node14</title>
<path fill="none" stroke="midnightblue" d="M440.81,-200.89C563.74,-178.43 597.72,-184.16 717.5,-165 728.51,-163.24 740.37,-161.1 751.37,-159"/>
<polygon fill="midnightblue" stroke="midnightblue" points="439.82,-197.51 430.63,-202.77 441.1,-204.39 439.82,-197.51"/>
</g>
<!-- Node4&#45;&gt;Node16 -->
<g id="edge18" class="edge">
<title>Node4&#45;&gt;Node16</title>
<path fill="none" stroke="midnightblue" d="M440.52,-201.08C887.48,-140.09 1008.58,-219.13 1452.5,-165 1455.54,-164.63 1458.64,-164.19 1461.77,-163.71"/>
<polygon fill="midnightblue" stroke="midnightblue" points="440,-197.62 430.58,-202.45 440.96,-204.55 440,-197.62"/>
</g>
<!-- Node4&#45;&gt;Node17 -->
<g id="edge19" class="edge">
<title>Node4&#45;&gt;Node17</title>
<path fill="none" stroke="midnightblue" d="M440.73,-201.06C948.39,-132.89 1086.77,-234 1590.5,-165 1593.43,-164.6 1596.42,-164.11 1599.43,-163.56"/>
<polygon fill="midnightblue" stroke="midnightblue" points="440.01,-197.62 430.57,-202.44 440.95,-204.56 440.01,-197.62"/>
</g>
<!-- Node18 -->
<g id="node18" class="node">
<title>Node18</title>
<g id="a_node18"><a xlink:href="mxrenderer_8cpp.html" target="_top" xlink:title=" ">
<polygon fill="none" stroke="black" points="608.5,-134.5 608.5,-164.5 708.5,-164.5 708.5,-134.5 608.5,-134.5"/>
<text text-anchor="start" x="616.5" y="-152.5" font-family="Helvetica,sans-Serif" font-size="10.00">src/renderer/opengl</text>
<text text-anchor="middle" x="658.5" y="-141.5" font-family="Helvetica,sans-Serif" font-size="10.00">/mxrenderer.cpp</text>
</a>
</g>
</g>
<!-- Node4&#45;&gt;Node18 -->
<g id="edge20" class="edge">
<title>Node4&#45;&gt;Node18</title>
<path fill="none" stroke="midnightblue" d="M440.64,-200.76C512.1,-184.05 531.6,-180.98 599.5,-165 602.37,-164.32 605.33,-163.62 608.3,-162.91"/>
<polygon fill="midnightblue" stroke="midnightblue" points="439.63,-197.4 430.7,-203.09 441.23,-204.21 439.63,-197.4"/>
</g>
<!-- Node19 -->
<g id="node19" class="node">
<title>Node19</title>
<g id="a_node19"><a xlink:href="mxshaderprogram_8cpp.html" target="_top" xlink:title=" ">
<polygon fill="none" stroke="black" points="0,-134.5 0,-164.5 115,-164.5 115,-134.5 0,-134.5"/>
<text text-anchor="start" x="8" y="-152.5" font-family="Helvetica,sans-Serif" font-size="10.00">src/renderer/opengl</text>
<text text-anchor="middle" x="57.5" y="-141.5" font-family="Helvetica,sans-Serif" font-size="10.00">/mxshaderprogram.cpp</text>
</a>
</g>
</g>
<!-- Node4&#45;&gt;Node19 -->
<g id="edge21" class="edge">
<title>Node4&#45;&gt;Node19</title>
<path fill="none" stroke="midnightblue" d="M320.37,-203.96C268.45,-193.92 191.46,-178.85 124.5,-165 121.47,-164.37 118.36,-163.72 115.23,-163.06"/>
<polygon fill="midnightblue" stroke="midnightblue" points="319.93,-207.44 330.41,-205.9 321.26,-200.57 319.93,-207.44"/>
</g>
<!-- Node6 -->
<g id="node6" class="node">
<title>Node6</title>
<g id="a_node6"><a xlink:href="mxapplication_8cpp.html" target="_top" xlink:title=" ">
<polygon fill="none" stroke="black" points="1010,-73 1010,-92 1153,-92 1153,-73 1010,-73"/>
<text text-anchor="middle" x="1081.5" y="-80" font-family="Helvetica,sans-Serif" font-size="10.00">src/events/mxapplication.cpp</text>
</a>
</g>
</g>
<!-- Node5&#45;&gt;Node6 -->
<g id="edge5" class="edge">
<title>Node5&#45;&gt;Node6</title>
<path fill="none" stroke="midnightblue" d="M1081.5,-129.54C1081.5,-117.17 1081.5,-101.62 1081.5,-92.13"/>
<polygon fill="midnightblue" stroke="midnightblue" points="1078,-129.73 1081.5,-139.73 1085,-129.73 1078,-129.73"/>
</g>
<!-- Node7 -->
<g id="node7" class="node">
<title>Node7</title>
<g id="a_node7"><a xlink:href="qmewawindow_8cpp.html" target="_top" xlink:title=" ">
<polygon fill="none" stroke="black" points="999.5,-0.5 999.5,-30.5 1115.5,-30.5 1115.5,-0.5 999.5,-0.5"/>
<text text-anchor="start" x="1007.5" y="-18.5" font-family="Helvetica,sans-Serif" font-size="10.00">src/platformabstraction</text>
<text text-anchor="middle" x="1057.5" y="-7.5" font-family="Helvetica,sans-Serif" font-size="10.00">/qt/qmewawindow.cpp</text>
</a>
</g>
</g>
<!-- Node5&#45;&gt;Node7 -->
<g id="edge6" class="edge">
<title>Node5&#45;&gt;Node7</title>
<path fill="none" stroke="midnightblue" d="M1116.99,-135.91C1133.99,-127.87 1152.73,-115.61 1162.5,-98 1169.19,-85.95 1169.83,-78.66 1162.5,-67 1151.63,-49.7 1132.99,-38.2 1114.41,-30.6"/>
<polygon fill="midnightblue" stroke="midnightblue" points="1115.55,-132.72 1107.8,-139.94 1118.36,-139.13 1115.55,-132.72"/>
</g>
<!-- Node8 -->
<g id="node8" class="node">
<title>Node8</title>
<g id="a_node8"><a xlink:href="qmewawindow_8h.html" target="_top" xlink:title=" ">
<polygon fill="none" stroke="black" points="875.5,-67.5 875.5,-97.5 991.5,-97.5 991.5,-67.5 875.5,-67.5"/>
<text text-anchor="start" x="883.5" y="-85.5" font-family="Helvetica,sans-Serif" font-size="10.00">src/platformabstraction</text>
<text text-anchor="middle" x="933.5" y="-74.5" font-family="Helvetica,sans-Serif" font-size="10.00">/qt/qmewawindow.h</text>
</a>
</g>
</g>
<!-- Node5&#45;&gt;Node8 -->
<g id="edge7" class="edge">
<title>Node5&#45;&gt;Node8</title>
<path fill="none" stroke="midnightblue" d="M1052.51,-135.77C1027.46,-124.77 991.31,-108.89 965.44,-97.53"/>
<polygon fill="midnightblue" stroke="midnightblue" points="1051.28,-139.05 1061.85,-139.87 1054.1,-132.64 1051.28,-139.05"/>
</g>
<!-- Node8&#45;&gt;Node7 -->
<g id="edge8" class="edge">
<title>Node8&#45;&gt;Node7</title>
<path fill="none" stroke="midnightblue" d="M969.34,-62.71C988.89,-52.46 1012.7,-39.98 1030.65,-30.58"/>
<polygon fill="midnightblue" stroke="midnightblue" points="967.64,-59.65 960.41,-67.4 970.89,-65.85 967.64,-59.65"/>
</g>
<!-- Node14&#45;&gt;Node8 -->
<g id="edge17" class="edge">
<title>Node14&#45;&gt;Node8</title>
<path fill="none" stroke="midnightblue" d="M821.24,-135.62C844.92,-124.63 878.92,-108.84 903.29,-97.53"/>
<polygon fill="midnightblue" stroke="midnightblue" points="819.69,-132.48 812.09,-139.87 822.63,-138.83 819.69,-132.48"/>
</g>
<!-- Node15 -->
<g id="node15" class="node">
<title>Node15</title>
<g id="a_node15"><a xlink:href="mxiconatlas_8cpp.html" target="_top" xlink:title=" ">
<polygon fill="none" stroke="black" points="712,-73 712,-92 857,-92 857,-73 712,-73"/>
<text text-anchor="middle" x="784.5" y="-80" font-family="Helvetica,sans-Serif" font-size="10.00">src/iconatlas/mxiconatlas.cpp</text>
</a>
</g>
</g>
<!-- Node14&#45;&gt;Node15 -->
<g id="edge16" class="edge">
<title>Node14&#45;&gt;Node15</title>
<path fill="none" stroke="midnightblue" d="M790.87,-129.54C789.16,-117.17 787.01,-101.62 785.69,-92.13"/>
<polygon fill="midnightblue" stroke="midnightblue" points="787.45,-130.31 792.29,-139.73 794.38,-129.35 787.45,-130.31"/>
</g>
<!-- Node20&#45;&gt;Node4 -->
<g id="edge24" class="edge">
<title>Node20&#45;&gt;Node4</title>
<path fill="none" stroke="midnightblue" d="M475.77,-464.55C477.54,-425.18 477.1,-332.85 440.5,-268 432,-252.94 417.17,-240.4 404.38,-231.57"/>
<polygon fill="midnightblue" stroke="midnightblue" points="472.27,-464.4 475.21,-474.58 479.26,-464.79 472.27,-464.4"/>
</g>
<!-- Node20&#45;&gt;Node10 -->
<g id="edge23" class="edge">
<title>Node20&#45;&gt;Node10</title>
<path fill="none" stroke="midnightblue" d="M454.73,-468.56C399.11,-424.75 249.89,-293.87 321.5,-201 336.64,-181.36 397.61,-167.24 444.65,-159.01"/>
<polygon fill="midnightblue" stroke="midnightblue" points="452.76,-471.46 462.8,-474.82 457.05,-465.93 452.76,-471.46"/>
</g>
<!-- Node21&#45;&gt;Node17 -->
<g id="edge54" class="edge">
<title>Node21&#45;&gt;Node17</title>
<path fill="none" stroke="midnightblue" d="M847.57,-480.11C1035.92,-468.69 1602.5,-427.99 1602.5,-351.5 1602.5,-351.5 1602.5,-351.5 1602.5,-282.5 1602.5,-237.25 1627.31,-188.07 1640.88,-164.56"/>
<polygon fill="midnightblue" stroke="midnightblue" points="847.33,-476.62 837.56,-480.71 847.75,-483.61 847.33,-476.62"/>
</g>
<!-- Node21&#45;&gt;Node19 -->
<g id="edge55" class="edge">
<title>Node21&#45;&gt;Node19</title>
<path fill="none" stroke="midnightblue" d="M736.8,-466.07C650.01,-435.65 468.04,-369.39 320.5,-299 228.69,-255.2 124.99,-192.5 80.15,-164.7"/>
<polygon fill="midnightblue" stroke="midnightblue" points="735.81,-469.43 746.41,-469.42 738.12,-462.82 735.81,-469.43"/>
</g>
<!-- Node22 -->
<g id="node22" class="node">
<title>Node22</title>
<g id="a_node22"><a xlink:href="mxcachedgpuarray_8h.html" target="_top" xlink:title=" ">
<polygon fill="none" stroke="black" points="893.5,-402.5 893.5,-432.5 1001.5,-432.5 1001.5,-402.5 893.5,-402.5"/>
<text text-anchor="start" x="901.5" y="-420.5" font-family="Helvetica,sans-Serif" font-size="10.00">src/renderer/opengl</text>
<text text-anchor="middle" x="947.5" y="-409.5" font-family="Helvetica,sans-Serif" font-size="10.00">/mxcachedgpuarray.h</text>
</a>
</g>
</g>
<!-- Node21&#45;&gt;Node22 -->
<g id="edge29" class="edge">
<title>Node21&#45;&gt;Node22</title>
<path fill="none" stroke="midnightblue" d="M831.7,-465.54C857.3,-455.14 889.07,-442.24 912.85,-432.58"/>
<polygon fill="midnightblue" stroke="midnightblue" points="830.16,-462.39 822.22,-469.4 832.8,-468.87 830.16,-462.39"/>
</g>
<!-- Node22&#45;&gt;Node4 -->
<g id="edge53" class="edge">
<title>Node22&#45;&gt;Node4</title>
<path fill="none" stroke="midnightblue" d="M891.78,-399.42C861.19,-389.89 822.64,-377.63 788.5,-366 650.79,-319.09 488.82,-258.51 417.45,-231.53"/>
<polygon fill="midnightblue" stroke="midnightblue" points="890.82,-402.79 901.41,-402.42 892.9,-396.11 890.82,-402.79"/>
</g>
<!-- Node22&#45;&gt;Node16 -->
<g id="edge52" class="edge">
<title>Node22&#45;&gt;Node16</title>
<path fill="none" stroke="midnightblue" d="M1011.61,-410.11C1135.47,-396.51 1401.23,-360.76 1466.5,-299 1505.84,-261.77 1517.2,-193.9 1520.35,-164.6"/>
<polygon fill="midnightblue" stroke="midnightblue" points="1011.07,-406.65 1001.51,-411.21 1011.83,-413.61 1011.07,-406.65"/>
</g>
<!-- Node23 -->
<g id="node23" class="node">
<title>Node23</title>
<g id="a_node23"><a xlink:href="mxquaddraw_8h.html" target="_top" xlink:title=" ">
<polygon fill="none" stroke="black" points="1087,-341 1087,-360 1240,-360 1240,-341 1087,-341"/>
<text text-anchor="middle" x="1163.5" y="-348" font-family="Helvetica,sans-Serif" font-size="10.00">src/gui/icondraw/mxquaddraw.h</text>
</a>
</g>
</g>
<!-- Node22&#45;&gt;Node23 -->
<g id="edge30" class="edge">
<title>Node22&#45;&gt;Node23</title>
<path fill="none" stroke="midnightblue" d="M1003.69,-399.59C1045.88,-386.9 1101.88,-370.04 1135.16,-360.03"/>
<polygon fill="midnightblue" stroke="midnightblue" points="1002.67,-396.24 994.1,-402.48 1004.69,-402.95 1002.67,-396.24"/>
</g>
<!-- Node27 -->
<g id="node27" class="node">
<title>Node27</title>
<g id="a_node27"><a xlink:href="mxtextdraw_8cpp.html" target="_top" xlink:title=" ">
<polygon fill="none" stroke="black" points="797.5,-341 797.5,-360 953.5,-360 953.5,-341 797.5,-341"/>
<text text-anchor="middle" x="875.5" y="-348" font-family="Helvetica,sans-Serif" font-size="10.00">src/gui/textdraw/mxtextdraw.cpp</text>
</a>
</g>
</g>
<!-- Node22&#45;&gt;Node27 -->
<g id="edge38" class="edge">
<title>Node22&#45;&gt;Node27</title>
<path fill="none" stroke="midnightblue" d="M924.43,-395.67C911.14,-383.67 895.13,-369.22 885.13,-360.19"/>
<polygon fill="midnightblue" stroke="midnightblue" points="922.11,-398.29 931.88,-402.4 926.8,-393.1 922.11,-398.29"/>
</g>
<!-- Node28 -->
<g id="node28" class="node">
<title>Node28</title>
<g id="a_node28"><a xlink:href="mxvectordraw_8h.html" target="_top" xlink:title=" ">
<polygon fill="none" stroke="black" points="972,-335.5 972,-365.5 1069,-365.5 1069,-335.5 972,-335.5"/>
<text text-anchor="start" x="980" y="-353.5" font-family="Helvetica,sans-Serif" font-size="10.00">src/gui/vectordraw</text>
<text text-anchor="middle" x="1020.5" y="-342.5" font-family="Helvetica,sans-Serif" font-size="10.00">/mxvectordraw.h</text>
</a>
</g>
</g>
<!-- Node22&#45;&gt;Node28 -->
<g id="edge39" class="edge">
<title>Node22&#45;&gt;Node28</title>
<path fill="none" stroke="midnightblue" d="M970.97,-395.6C982,-385.78 994.84,-374.34 1004.69,-365.58"/>
<polygon fill="midnightblue" stroke="midnightblue" points="968.48,-393.13 963.34,-402.4 973.14,-398.36 968.48,-393.13"/>
</g>
<!-- Node24 -->
<g id="node24" class="node">
<title>Node24</title>
<g id="a_node24"><a xlink:href="mxicondraw_8h.html" target="_top" xlink:title=" ">
<polygon fill="none" stroke="black" points="1087.5,-274 1087.5,-293 1237.5,-293 1237.5,-274 1087.5,-274"/>
<text text-anchor="middle" x="1162.5" y="-281" font-family="Helvetica,sans-Serif" font-size="10.00">src/gui/icondraw/mxicondraw.h</text>
</a>
</g>
</g>
<!-- Node23&#45;&gt;Node24 -->
<g id="edge31" class="edge">
<title>Node23&#45;&gt;Node24</title>
<path fill="none" stroke="midnightblue" d="M1163.21,-330.54C1163.02,-318.17 1162.78,-302.62 1162.63,-293.13"/>
<polygon fill="midnightblue" stroke="midnightblue" points="1159.71,-330.79 1163.37,-340.73 1166.71,-330.68 1159.71,-330.79"/>
</g>
<!-- Node26 -->
<g id="node26" class="node">
<title>Node26</title>
<g id="a_node26"><a xlink:href="mxquaddraw_8cpp.html" target="_top" xlink:title=" ">
<polygon fill="none" stroke="black" points="1293.5,-274 1293.5,-293 1457.5,-293 1457.5,-274 1293.5,-274"/>
<text text-anchor="middle" x="1375.5" y="-281" font-family="Helvetica,sans-Serif" font-size="10.00">src/gui/icondraw/mxquaddraw.cpp</text>
</a>
</g>
</g>
<!-- Node23&#45;&gt;Node26 -->
<g id="edge37" class="edge">
<title>Node23&#45;&gt;Node26</title>
<path fill="none" stroke="midnightblue" d="M1201.24,-337.93C1243.22,-325.06 1310.04,-304.57 1347.57,-293.06"/>
<polygon fill="midnightblue" stroke="midnightblue" points="1200.19,-334.59 1191.65,-340.87 1202.24,-341.28 1200.19,-334.59"/>
</g>
<!-- Node24&#45;&gt;Node9 -->
<g id="edge32" class="edge">
<title>Node24&#45;&gt;Node9</title>
<path fill="none" stroke="midnightblue" d="M1212.64,-271.76C1263.35,-260.4 1335.41,-242.66 1343.5,-232 1351.83,-221.03 1350.65,-212.78 1343.5,-201 1330.3,-179.25 1304.34,-166.43 1282.6,-159.16"/>
<polygon fill="midnightblue" stroke="midnightblue" points="1211.81,-268.36 1202.8,-273.95 1213.32,-275.19 1211.81,-268.36"/>
</g>
<!-- Node24&#45;&gt;Node10 -->
<g id="edge33" class="edge">
<title>Node24&#45;&gt;Node10</title>
<path fill="none" stroke="midnightblue" d="M1176.7,-265.72C1190.26,-247.59 1206.35,-218.91 1189.5,-201 1144.5,-153.17 664.82,-171.86 599.5,-165 584.6,-163.43 568.48,-161.23 553.74,-159.02"/>
<polygon fill="midnightblue" stroke="midnightblue" points="1173.86,-263.66 1170.4,-273.67 1179.35,-268.01 1173.86,-263.66"/>
</g>
<!-- Node25 -->
<g id="node25" class="node">
<title>Node25</title>
<g id="a_node25"><a xlink:href="mxpainter_8h.html" target="_top" xlink:title=" ">
<polygon fill="none" stroke="black" points="1236.5,-207 1236.5,-226 1334.5,-226 1334.5,-207 1236.5,-207"/>
<text text-anchor="middle" x="1285.5" y="-214" font-family="Helvetica,sans-Serif" font-size="10.00">src/gui/mxpainter.h</text>
</a>
</g>
</g>
<!-- Node24&#45;&gt;Node25 -->
<g id="edge34" class="edge">
<title>Node24&#45;&gt;Node25</title>
<path fill="none" stroke="midnightblue" d="M1187.85,-269.1C1212.21,-256.23 1248.3,-237.16 1269.1,-226.17"/>
<polygon fill="midnightblue" stroke="midnightblue" points="1186.04,-266.1 1178.83,-273.87 1189.31,-272.29 1186.04,-266.1"/>
</g>
<!-- Node25&#45;&gt;Node5 -->
<g id="edge35" class="edge">
<title>Node25&#45;&gt;Node5</title>
<path fill="none" stroke="midnightblue" d="M1248.67,-203.77C1208.25,-190.89 1144.34,-170.52 1108.38,-159.06"/>
<polygon fill="midnightblue" stroke="midnightblue" points="1247.82,-207.17 1258.41,-206.87 1249.94,-200.5 1247.82,-207.17"/>
</g>
<!-- Node25&#45;&gt;Node11 -->
<g id="edge36" class="edge">
<title>Node25&#45;&gt;Node11</title>
<path fill="none" stroke="midnightblue" d="M1240.33,-204.75C1234.35,-203.43 1228.28,-202.15 1222.5,-201 1127.03,-182.08 1102,-183.76 1006.5,-165 997.44,-163.22 987.71,-161.12 978.64,-159.07"/>
<polygon fill="midnightblue" stroke="midnightblue" points="1239.74,-208.21 1250.26,-206.99 1241.28,-201.38 1239.74,-208.21"/>
</g>
<!-- Node28&#45;&gt;Node12 -->
<g id="edge48" class="edge">
<title>Node28&#45;&gt;Node12</title>
<path fill="none" stroke="midnightblue" d="M1079.21,-334.97C1154.99,-318.83 1180.49,-330.7 1246.5,-299 1266.15,-289.56 1266.1,-279.69 1284.5,-268 1315.71,-248.17 1333.91,-258.69 1359.5,-232 1377.94,-212.77 1387.44,-182.31 1391.66,-164.58"/>
<polygon fill="midnightblue" stroke="midnightblue" points="1078.2,-331.61 1069.21,-337.2 1079.73,-338.44 1078.2,-331.61"/>
</g>
<!-- Node28&#45;&gt;Node25 -->
<g id="edge40" class="edge">
<title>Node28&#45;&gt;Node25</title>
<path fill="none" stroke="midnightblue" d="M1031.2,-326.31C1040.94,-307.76 1057.08,-282.52 1078.5,-268 1103.91,-250.77 1183.41,-234.65 1236.16,-225.45"/>
<polygon fill="midnightblue" stroke="midnightblue" points="1028.04,-324.8 1026.69,-335.31 1034.3,-327.93 1028.04,-324.8"/>
</g>
<!-- Node29 -->
<g id="node29" class="node">
<title>Node29</title>
<g id="a_node29"><a xlink:href="mxsvgpainter_8cpp.html" target="_top" xlink:title=" ">
<polygon fill="none" stroke="black" points="1037,-207 1037,-226 1180,-226 1180,-207 1037,-207"/>
<text text-anchor="middle" x="1108.5" y="-214" font-family="Helvetica,sans-Serif" font-size="10.00">src/gui/svg/mxsvgpainter.cpp</text>
</a>
</g>
</g>
<!-- Node28&#45;&gt;Node29 -->
<g id="edge41" class="edge">
<title>Node28&#45;&gt;Node29</title>
<path fill="none" stroke="midnightblue" d="M1024.06,-325.12C1027.45,-308 1033.84,-285.18 1045.5,-268 1057.86,-249.79 1078.76,-234.92 1093.07,-226.15"/>
<polygon fill="midnightblue" stroke="midnightblue" points="1020.53,-324.98 1022.24,-335.44 1027.42,-326.2 1020.53,-324.98"/>
</g>
<!-- Node30 -->
<g id="node30" class="node">
<title>Node30</title>
<g id="a_node30"><a xlink:href="mxsvgpainter_8h.html" target="_top" xlink:title=" ">
<polygon fill="none" stroke="black" points="851,-274 851,-293 984,-293 984,-274 851,-274"/>
<text text-anchor="middle" x="917.5" y="-281" font-family="Helvetica,sans-Serif" font-size="10.00">src/gui/svg/mxsvgpainter.h</text>
</a>
</g>
</g>
<!-- Node28&#45;&gt;Node30 -->
<g id="edge42" class="edge">
<title>Node28&#45;&gt;Node30</title>
<path fill="none" stroke="midnightblue" d="M989.56,-329.97C970.03,-317.65 945.78,-302.35 930.98,-293.01"/>
<polygon fill="midnightblue" stroke="midnightblue" points="987.83,-333.02 998.15,-335.4 991.56,-327.1 987.83,-333.02"/>
</g>
<!-- Node34 -->
<g id="node34" class="node">
<title>Node34</title>
<g id="a_node34"><a xlink:href="mxvectorprogram_8h.html" target="_top" xlink:title=" ">
<polygon fill="none" stroke="black" points="329.5,-268.5 329.5,-298.5 431.5,-298.5 431.5,-268.5 329.5,-268.5"/>
<text text-anchor="start" x="337.5" y="-286.5" font-family="Helvetica,sans-Serif" font-size="10.00">src/gui/vectordraw</text>
<text text-anchor="middle" x="380.5" y="-275.5" font-family="Helvetica,sans-Serif" font-size="10.00">/mxvectorprogram.h</text>
</a>
</g>
</g>
<!-- Node28&#45;&gt;Node34 -->
<g id="edge49" class="edge">
<title>Node28&#45;&gt;Node34</title>
<path fill="none" stroke="midnightblue" d="M962.01,-335.11C760.67,-302.1 532.03,-290.18 431.83,-286.22"/>
<polygon fill="midnightblue" stroke="midnightblue" points="961.45,-338.57 971.88,-336.75 962.59,-331.66 961.45,-338.57"/>
</g>
<!-- Node30&#45;&gt;Node11 -->
<g id="edge43" class="edge">
<title>Node30&#45;&gt;Node11</title>
<path fill="none" stroke="midnightblue" d="M949.18,-269.28C964.63,-261.01 981.73,-248.73 990.5,-232 996.9,-219.8 995.61,-213.79 990.5,-201 983.41,-183.25 966.79,-168.18 955.1,-159.23"/>
<polygon fill="midnightblue" stroke="midnightblue" points="947.26,-266.32 939.86,-273.91 950.37,-272.59 947.26,-266.32"/>
</g>
<!-- Node30&#45;&gt;Node29 -->
<g id="edge44" class="edge">
<title>Node30&#45;&gt;Node29</title>
<path fill="none" stroke="midnightblue" d="M952.46,-270.6C990.33,-257.71 1049.81,-237.47 1083.34,-226.06"/>
<polygon fill="midnightblue" stroke="midnightblue" points="951.2,-267.33 942.86,-273.87 953.46,-273.96 951.2,-267.33"/>
</g>
<!-- Node31 -->
<g id="node31" class="node">
<title>Node31</title>
<g id="a_node31"><a xlink:href="downarrowsvg_8cpp.html" target="_top" xlink:title=" ">
<polygon fill="none" stroke="black" points="639,-207 639,-226 814,-226 814,-207 639,-207"/>
<text text-anchor="middle" x="726.5" y="-214" font-family="Helvetica,sans-Serif" font-size="10.00">src/svg&#45;drawings/downarrowsvg.cpp</text>
</a>
</g>
</g>
<!-- Node30&#45;&gt;Node31 -->
<g id="edge45" class="edge">
<title>Node30&#45;&gt;Node31</title>
<path fill="none" stroke="midnightblue" d="M882.54,-270.6C844.67,-257.71 785.19,-237.47 751.66,-226.06"/>
<polygon fill="midnightblue" stroke="midnightblue" points="881.54,-273.96 892.14,-273.87 883.8,-267.33 881.54,-273.96"/>
</g>
<!-- Node32 -->
<g id="node32" class="node">
<title>Node32</title>
<g id="a_node32"><a xlink:href="heartsvg_8cpp.html" target="_top" xlink:title=" ">
<polygon fill="none" stroke="black" points="832,-207 832,-226 981,-226 981,-207 832,-207"/>
<text text-anchor="middle" x="906.5" y="-214" font-family="Helvetica,sans-Serif" font-size="10.00">src/svg&#45;drawings/heartsvg.cpp</text>
</a>
</g>
</g>
<!-- Node30&#45;&gt;Node32 -->
<g id="edge46" class="edge">
<title>Node30&#45;&gt;Node32</title>
<path fill="none" stroke="midnightblue" d="M914.29,-263.54C912.2,-251.17 909.57,-235.62 907.96,-226.13"/>
<polygon fill="midnightblue" stroke="midnightblue" points="910.9,-264.46 916.02,-273.73 917.8,-263.29 910.9,-264.46"/>
</g>
<!-- Node33 -->
<g id="node33" class="node">
<title>Node33</title>
<g id="a_node33"><a xlink:href="plusminussvg_8cpp.html" target="_top" xlink:title=" ">
<polygon fill="none" stroke="black" points="448.5,-207 448.5,-226 620.5,-226 620.5,-207 448.5,-207"/>
<text text-anchor="middle" x="534.5" y="-214" font-family="Helvetica,sans-Serif" font-size="10.00">src/svg&#45;drawings/plusminussvg.cpp</text>
</a>
</g>
</g>
<!-- Node30&#45;&gt;Node33 -->
<g id="edge47" class="edge">
<title>Node30&#45;&gt;Node33</title>
<path fill="none" stroke="midnightblue" d="M856.78,-272.19C781.56,-259.43 654.8,-237.92 584.77,-226.03"/>
<polygon fill="midnightblue" stroke="midnightblue" points="856.59,-275.71 867.04,-273.94 857.76,-268.81 856.59,-275.71"/>
</g>
<!-- Node34&#45;&gt;Node4 -->
<g id="edge51" class="edge">
<title>Node34&#45;&gt;Node4</title>
<path fill="none" stroke="midnightblue" d="M380.5,-258.11C380.5,-249.15 380.5,-239.32 380.5,-231.58"/>
<polygon fill="midnightblue" stroke="midnightblue" points="377,-258.4 380.5,-268.4 384,-258.4 377,-258.4"/>
</g>
<!-- Node34&#45;&gt;Node13 -->
<g id="edge50" class="edge">
<title>Node34&#45;&gt;Node13</title>
<path fill="none" stroke="midnightblue" d="M347.33,-262.41C337.1,-254.35 327.06,-244.08 321.5,-232 311.23,-209.7 322.8,-181.32 331.85,-164.61"/>
<polygon fill="midnightblue" stroke="midnightblue" points="345.36,-265.3 355.5,-268.39 349.5,-259.66 345.36,-265.3"/>
</g>
<!-- Node35&#45;&gt;Node2 -->
<g id="edge57" class="edge">
<title>Node35&#45;&gt;Node2</title>
<path fill="none" stroke="midnightblue" d="M353.49,-529.94C319.2,-502.84 259.79,-455.88 230.24,-432.52"/>
<polygon fill="midnightblue" stroke="midnightblue" points="351.61,-532.92 361.63,-536.37 355.95,-527.43 351.61,-532.92"/>
</g>
<!-- Node35&#45;&gt;Node19 -->
<g id="edge61" class="edge">
<title>Node35&#45;&gt;Node19</title>
<path fill="none" stroke="midnightblue" d="M317.45,-545.32C241.68,-535.2 123.5,-505.48 123.5,-418.5 123.5,-418.5 123.5,-418.5 123.5,-282.5 123.5,-235.36 89.4,-187.79 70.23,-164.76"/>
<polygon fill="midnightblue" stroke="midnightblue" points="317.03,-548.79 327.39,-546.56 317.9,-541.85 317.03,-548.79"/>
</g>
<!-- Node35&#45;&gt;Node20 -->
<g id="edge58" class="edge">
<title>Node35&#45;&gt;Node20</title>
<path fill="none" stroke="midnightblue" d="M408.52,-530.64C426.45,-518.37 448.54,-503.26 462.07,-494.01"/>
<polygon fill="midnightblue" stroke="midnightblue" points="406.39,-527.86 400.11,-536.4 410.34,-533.64 406.39,-527.86"/>
</g>
<!-- Node35&#45;&gt;Node21 -->
<g id="edge60" class="edge">
<title>Node35&#45;&gt;Node21</title>
<path fill="none" stroke="midnightblue" d="M441.65,-540.6C522.64,-527.7 662.71,-505.38 737.32,-493.49"/>
<polygon fill="midnightblue" stroke="midnightblue" points="440.91,-537.17 431.59,-542.2 442.01,-544.08 440.91,-537.17"/>
</g>
<!-- Node35&#45;&gt;Node34 -->
<g id="edge59" class="edge">
<title>Node35&#45;&gt;Node34</title>
<path fill="none" stroke="midnightblue" d="M379.59,-526.07C379.8,-471.57 380.29,-341.52 380.45,-298.55"/>
<polygon fill="midnightblue" stroke="midnightblue" points="376.09,-526.19 379.55,-536.2 383.09,-526.21 376.09,-526.19"/>
</g>
</g>
</svg>
