<?xml version="1.0" encoding="UTF-8" standalone="no"?>
<!DOCTYPE svg PUBLIC "-//W3C//DTD SVG 1.1//EN"
 "http://www.w3.org/Graphics/SVG/1.1/DTD/svg11.dtd">
<!-- Generated by graphviz version 2.44.0 ()
 -->
<!-- Title: src/gui/mxorthotransform.h Pages: 1 -->
<svg width="189pt" height="252pt"
 viewBox="0.00 0.00 189.00 252.00" xmlns="http://www.w3.org/2000/svg" xmlns:xlink="http://www.w3.org/1999/xlink">
<g id="graph0" class="graph" transform="scale(1 1) rotate(0) translate(4 248)">
<title>src/gui/mxorthotransform.h</title>
<!-- Node1 -->
<g id="node1" class="node">
<title>Node1</title>
<g id="a_node1"><a xlink:title=" ">
<polygon fill="#bfbfbf" stroke="black" points="0,-224.5 0,-243.5 132,-243.5 132,-224.5 0,-224.5"/>
<text text-anchor="middle" x="66" y="-231.5" font-family="Helvetica,sans-Serif" font-size="10.00">src/gui/mxorthotransform.h</text>
</a>
</g>
</g>
<!-- Node2 -->
<g id="node2" class="node">
<title>Node2</title>
<g id="a_node2"><a xlink:href="mxvector_8h.html" target="_top" xlink:title=" ">
<polygon fill="none" stroke="black" points="5,-112.5 5,-131.5 69,-131.5 69,-112.5 5,-112.5"/>
<text text-anchor="middle" x="37" y="-119.5" font-family="Helvetica,sans-Serif" font-size="10.00">mxvector.h</text>
</a>
</g>
</g>
<!-- Node1&#45;&gt;Node2 -->
<g id="edge1" class="edge">
<title>Node1&#45;&gt;Node2</title>
<path fill="none" stroke="midnightblue" d="M63.72,-224.37C59.02,-206.54 48.15,-165.3 41.82,-141.27"/>
<polygon fill="midnightblue" stroke="midnightblue" points="45.2,-140.37 39.27,-131.59 38.43,-142.15 45.2,-140.37"/>
</g>
<!-- Node5 -->
<g id="node5" class="node">
<title>Node5</title>
<g id="a_node5"><a xlink:href="mxrect_8h.html" target="_top" xlink:title=" ">
<polygon fill="none" stroke="black" points="68.5,-168.5 68.5,-187.5 121.5,-187.5 121.5,-168.5 68.5,-168.5"/>
<text text-anchor="middle" x="95" y="-175.5" font-family="Helvetica,sans-Serif" font-size="10.00">mxrect.h</text>
</a>
</g>
</g>
<!-- Node1&#45;&gt;Node5 -->
<g id="edge4" class="edge">
<title>Node1&#45;&gt;Node5</title>
<path fill="none" stroke="midnightblue" d="M70.79,-224.08C74.76,-216.69 80.53,-205.95 85.43,-196.81"/>
<polygon fill="midnightblue" stroke="midnightblue" points="88.65,-198.22 90.3,-187.75 82.49,-194.91 88.65,-198.22"/>
</g>
<!-- Node3 -->
<g id="node3" class="node">
<title>Node3</title>
<g id="a_node3"><a xlink:href="mxdebug_8h.html" target="_top" xlink:title=" ">
<polygon fill="none" stroke="black" points="35.5,-56.5 35.5,-75.5 98.5,-75.5 98.5,-56.5 35.5,-56.5"/>
<text text-anchor="middle" x="67" y="-63.5" font-family="Helvetica,sans-Serif" font-size="10.00">mxdebug.h</text>
</a>
</g>
</g>
<!-- Node2&#45;&gt;Node3 -->
<g id="edge2" class="edge">
<title>Node2&#45;&gt;Node3</title>
<path fill="none" stroke="midnightblue" d="M41.95,-112.08C46.1,-104.61 52.15,-93.72 57.27,-84.52"/>
<polygon fill="midnightblue" stroke="midnightblue" points="60.34,-86.19 62.14,-75.75 54.22,-82.79 60.34,-86.19"/>
</g>
<!-- Node4 -->
<g id="node4" class="node">
<title>Node4</title>
<g id="a_node4"><a xlink:title=" ">
<polygon fill="none" stroke="#bfbfbf" points="41,-0.5 41,-19.5 93,-19.5 93,-0.5 41,-0.5"/>
<text text-anchor="middle" x="67" y="-7.5" font-family="Helvetica,sans-Serif" font-size="10.00">QDebug</text>
</a>
</g>
</g>
<!-- Node3&#45;&gt;Node4 -->
<g id="edge3" class="edge">
<title>Node3&#45;&gt;Node4</title>
<path fill="none" stroke="midnightblue" d="M67,-56.08C67,-49.01 67,-38.86 67,-29.99"/>
<polygon fill="midnightblue" stroke="midnightblue" points="70.5,-29.75 67,-19.75 63.5,-29.75 70.5,-29.75"/>
</g>
<!-- Node5&#45;&gt;Node2 -->
<g id="edge6" class="edge">
<title>Node5&#45;&gt;Node2</title>
<path fill="none" stroke="midnightblue" d="M85.68,-168.32C77.11,-160.34 64.19,-148.31 53.81,-138.65"/>
<polygon fill="midnightblue" stroke="midnightblue" points="56.19,-136.09 46.49,-131.83 51.42,-141.21 56.19,-136.09"/>
</g>
<!-- Node5&#45;&gt;Node3 -->
<g id="edge5" class="edge">
<title>Node5&#45;&gt;Node3</title>
<path fill="none" stroke="midnightblue" d="M92.8,-168.37C88.28,-150.62 77.86,-109.67 71.73,-85.6"/>
<polygon fill="midnightblue" stroke="midnightblue" points="75.05,-84.42 69.19,-75.59 68.26,-86.15 75.05,-84.42"/>
</g>
<!-- Node6 -->
<g id="node6" class="node">
<title>Node6</title>
<g id="a_node6"><a xlink:title=" ">
<polygon fill="none" stroke="#bfbfbf" points="125,-112.5 125,-131.5 181,-131.5 181,-112.5 125,-112.5"/>
<text text-anchor="middle" x="153" y="-119.5" font-family="Helvetica,sans-Serif" font-size="10.00">algorithm</text>
</a>
</g>
</g>
<!-- Node5&#45;&gt;Node6 -->
<g id="edge7" class="edge">
<title>Node5&#45;&gt;Node6</title>
<path fill="none" stroke="midnightblue" d="M104.32,-168.32C112.89,-160.34 125.81,-148.31 136.19,-138.65"/>
<polygon fill="midnightblue" stroke="midnightblue" points="138.58,-141.21 143.51,-131.83 133.81,-136.09 138.58,-141.21"/>
</g>
</g>
</svg>
