<?xml version="1.0" encoding="UTF-8" standalone="no"?>
<!DOCTYPE svg PUBLIC "-//W3C//DTD SVG 1.1//EN"
 "http://www.w3.org/Graphics/SVG/1.1/DTD/svg11.dtd">
<!-- Generated by graphviz version 2.44.0 ()
 -->
<!-- Title: src/gui/mxpainter.cpp Pages: 1 -->
<svg width="1586pt" height="364pt"
 viewBox="0.00 0.00 1586.00 364.00" xmlns="http://www.w3.org/2000/svg" xmlns:xlink="http://www.w3.org/1999/xlink">
<g id="graph0" class="graph" transform="scale(1 1) rotate(0) translate(4 360)">
<title>src/gui/mxpainter.cpp</title>
<!-- Node1 -->
<g id="node1" class="node">
<title>Node1</title>
<g id="a_node1"><a xlink:title=" ">
<polygon fill="#bfbfbf" stroke="black" points="945,-336.5 945,-355.5 1054,-355.5 1054,-336.5 945,-336.5"/>
<text text-anchor="middle" x="999.5" y="-343.5" font-family="Helvetica,sans-Serif" font-size="10.00">src/gui/mxpainter.cpp</text>
</a>
</g>
</g>
<!-- Node2 -->
<g id="node2" class="node">
<title>Node2</title>
<g id="a_node2"><a xlink:href="mxpainter_8h.html" target="_top" xlink:title=" ">
<polygon fill="none" stroke="black" points="551.5,-280.5 551.5,-299.5 617.5,-299.5 617.5,-280.5 551.5,-280.5"/>
<text text-anchor="middle" x="584.5" y="-287.5" font-family="Helvetica,sans-Serif" font-size="10.00">mxpainter.h</text>
</a>
</g>
</g>
<!-- Node1&#45;&gt;Node2 -->
<g id="edge1" class="edge">
<title>Node1&#45;&gt;Node2</title>
<path fill="none" stroke="midnightblue" d="M944.82,-337.88C861.37,-327.03 703.91,-306.54 627.82,-296.64"/>
<polygon fill="midnightblue" stroke="midnightblue" points="628.01,-293.13 617.64,-295.31 627.11,-300.07 628.01,-293.13"/>
</g>
<!-- Node20 -->
<g id="node20" class="node">
<title>Node20</title>
<g id="a_node20"><a xlink:href="mxabstractsvg_8h.html" target="_top" xlink:title=" ">
<polygon fill="none" stroke="black" points="1028.5,-280.5 1028.5,-299.5 1116.5,-299.5 1116.5,-280.5 1028.5,-280.5"/>
<text text-anchor="middle" x="1072.5" y="-287.5" font-family="Helvetica,sans-Serif" font-size="10.00">mxabstractsvg.h</text>
</a>
</g>
</g>
<!-- Node1&#45;&gt;Node20 -->
<g id="edge33" class="edge">
<title>Node1&#45;&gt;Node20</title>
<path fill="none" stroke="midnightblue" d="M1011.23,-336.32C1022.34,-328.11 1039.24,-315.6 1052.48,-305.81"/>
<polygon fill="midnightblue" stroke="midnightblue" points="1054.6,-308.59 1060.56,-299.83 1050.44,-302.97 1054.6,-308.59"/>
</g>
<!-- Node21 -->
<g id="node21" class="node">
<title>Node21</title>
<g id="a_node21"><a xlink:href="mxsvgpainter_8h.html" target="_top" xlink:title=" ">
<polygon fill="none" stroke="black" points="776.5,-224.5 776.5,-243.5 858.5,-243.5 858.5,-224.5 776.5,-224.5"/>
<text text-anchor="middle" x="817.5" y="-231.5" font-family="Helvetica,sans-Serif" font-size="10.00">mxsvgpainter.h</text>
</a>
</g>
</g>
<!-- Node1&#45;&gt;Node21 -->
<g id="edge35" class="edge">
<title>Node1&#45;&gt;Node21</title>
<path fill="none" stroke="midnightblue" d="M949.72,-336.47C922.29,-329.93 888.79,-318.72 863.5,-300 846.89,-287.7 833.99,-267.6 826.13,-253"/>
<polygon fill="midnightblue" stroke="midnightblue" points="829.18,-251.26 821.52,-243.94 822.94,-254.44 829.18,-251.26"/>
</g>
<!-- Node22 -->
<g id="node22" class="node">
<title>Node22</title>
<g id="a_node22"><a xlink:href="mxguirenderer_8h.html" target="_top" xlink:title=" ">
<polygon fill="none" stroke="black" points="1199,-280.5 1199,-299.5 1284,-299.5 1284,-280.5 1199,-280.5"/>
<text text-anchor="middle" x="1241.5" y="-287.5" font-family="Helvetica,sans-Serif" font-size="10.00">mxguirenderer.h</text>
</a>
</g>
</g>
<!-- Node1&#45;&gt;Node22 -->
<g id="edge38" class="edge">
<title>Node1&#45;&gt;Node22</title>
<path fill="none" stroke="midnightblue" d="M1037.85,-336.44C1079.97,-327.04 1147.71,-311.93 1193.37,-301.74"/>
<polygon fill="midnightblue" stroke="midnightblue" points="1194.34,-305.11 1203.33,-299.52 1192.81,-298.28 1194.34,-305.11"/>
</g>
<!-- Node31 -->
<g id="node31" class="node">
<title>Node31</title>
<g id="a_node31"><a xlink:href="mxvectorprogram_8h.html" target="_top" xlink:title=" ">
<polygon fill="none" stroke="black" points="1347,-224.5 1347,-243.5 1446,-243.5 1446,-224.5 1347,-224.5"/>
<text text-anchor="middle" x="1396.5" y="-231.5" font-family="Helvetica,sans-Serif" font-size="10.00">mxvectorprogram.h</text>
</a>
</g>
</g>
<!-- Node1&#45;&gt;Node31 -->
<g id="edge69" class="edge">
<title>Node1&#45;&gt;Node31</title>
<path fill="none" stroke="midnightblue" d="M1054.01,-343.3C1114.32,-339.92 1213.56,-329.85 1293.5,-300 1325.62,-288 1358.38,-265.12 1378.08,-249.96"/>
<polygon fill="midnightblue" stroke="midnightblue" points="1380.46,-252.54 1386.16,-243.61 1376.13,-247.04 1380.46,-252.54"/>
</g>
<!-- Node33 -->
<g id="node33" class="node">
<title>Node33</title>
<g id="a_node33"><a xlink:href="mxthemecolors_8h.html" target="_top" xlink:title=" ">
<polygon fill="none" stroke="black" points="872.5,-280.5 872.5,-299.5 962.5,-299.5 962.5,-280.5 872.5,-280.5"/>
<text text-anchor="middle" x="917.5" y="-287.5" font-family="Helvetica,sans-Serif" font-size="10.00">mxthemecolors.h</text>
</a>
</g>
</g>
<!-- Node1&#45;&gt;Node33 -->
<g id="edge62" class="edge">
<title>Node1&#45;&gt;Node33</title>
<path fill="none" stroke="midnightblue" d="M986.33,-336.32C973.65,-327.98 954.27,-315.21 939.29,-305.35"/>
<polygon fill="midnightblue" stroke="midnightblue" points="940.92,-302.23 930.64,-299.65 937.07,-308.08 940.92,-302.23"/>
</g>
<!-- Node34 -->
<g id="node34" class="node">
<title>Node34</title>
<g id="a_node34"><a xlink:href="mxabstractatlas_8h.html" target="_top" xlink:title=" ">
<polygon fill="none" stroke="black" points="953,-168.5 953,-187.5 1046,-187.5 1046,-168.5 953,-168.5"/>
<text text-anchor="middle" x="999.5" y="-175.5" font-family="Helvetica,sans-Serif" font-size="10.00">mxabstractatlas.h</text>
</a>
</g>
</g>
<!-- Node1&#45;&gt;Node34 -->
<g id="edge64" class="edge">
<title>Node1&#45;&gt;Node34</title>
<path fill="none" stroke="midnightblue" d="M999.5,-336.08C999.5,-309.95 999.5,-233.21 999.5,-197.58"/>
<polygon fill="midnightblue" stroke="midnightblue" points="1003,-197.57 999.5,-187.57 996,-197.57 1003,-197.57"/>
</g>
<!-- Node3 -->
<g id="node3" class="node">
<title>Node3</title>
<g id="a_node3"><a xlink:title=" ">
<polygon fill="none" stroke="#bfbfbf" points="566,-0.5 566,-19.5 629,-19.5 629,-0.5 566,-0.5"/>
<text text-anchor="middle" x="597.5" y="-7.5" font-family="Helvetica,sans-Serif" font-size="10.00">mxdebug.h</text>
</a>
</g>
</g>
<!-- Node2&#45;&gt;Node3 -->
<g id="edge2" class="edge">
<title>Node2&#45;&gt;Node3</title>
<path fill="none" stroke="midnightblue" d="M551.59,-280.47C496.46,-264.38 394.39,-225.9 425.5,-168 443.03,-135.37 539.85,-103.65 564.5,-76 576.71,-62.3 585.68,-43.26 591.16,-29.33"/>
<polygon fill="midnightblue" stroke="midnightblue" points="594.48,-30.44 594.66,-19.84 587.91,-28.01 594.48,-30.44"/>
</g>
<!-- Node4 -->
<g id="node4" class="node">
<title>Node4</title>
<g id="a_node4"><a xlink:href="mxvectordraw_8h.html" target="_top" xlink:title=" ">
<polygon fill="none" stroke="black" points="735,-168.5 735,-187.5 820,-187.5 820,-168.5 735,-168.5"/>
<text text-anchor="middle" x="777.5" y="-175.5" font-family="Helvetica,sans-Serif" font-size="10.00">mxvectordraw.h</text>
</a>
</g>
</g>
<!-- Node2&#45;&gt;Node4 -->
<g id="edge3" class="edge">
<title>Node2&#45;&gt;Node4</title>
<path fill="none" stroke="midnightblue" d="M605.42,-280.45C625.4,-272.02 656.13,-258.35 681.5,-244 709.03,-228.43 738.93,-207.49 757.92,-193.63"/>
<polygon fill="midnightblue" stroke="midnightblue" points="760.09,-196.38 766.07,-187.63 755.94,-190.74 760.09,-196.38"/>
</g>
<!-- Node8 -->
<g id="node8" class="node">
<title>Node8</title>
<g id="a_node8"><a xlink:href="mxlist_8h.html" target="_top" xlink:title=" ">
<polygon fill="none" stroke="black" points="408.5,-112.5 408.5,-131.5 458.5,-131.5 458.5,-112.5 408.5,-112.5"/>
<text text-anchor="middle" x="433.5" y="-119.5" font-family="Helvetica,sans-Serif" font-size="10.00">mxlist.h</text>
</a>
</g>
</g>
<!-- Node2&#45;&gt;Node8 -->
<g id="edge9" class="edge">
<title>Node2&#45;&gt;Node8</title>
<path fill="none" stroke="midnightblue" d="M551.31,-286.1C501.71,-281 411.96,-268.55 392.5,-244 371.52,-217.53 380.3,-199.5 392.5,-168 396.95,-156.5 405.87,-146.13 414.25,-138.25"/>
<polygon fill="midnightblue" stroke="midnightblue" points="416.74,-140.73 421.96,-131.51 412.13,-135.46 416.74,-140.73"/>
</g>
<!-- Node13 -->
<g id="node13" class="node">
<title>Node13</title>
<g id="a_node13"><a xlink:href="mxtextdraw_8h.html" target="_top" xlink:title=" ">
<polygon fill="none" stroke="black" points="496.5,-224.5 496.5,-243.5 570.5,-243.5 570.5,-224.5 496.5,-224.5"/>
<text text-anchor="middle" x="533.5" y="-231.5" font-family="Helvetica,sans-Serif" font-size="10.00">mxtextdraw.h</text>
</a>
</g>
</g>
<!-- Node2&#45;&gt;Node13 -->
<g id="edge15" class="edge">
<title>Node2&#45;&gt;Node13</title>
<path fill="none" stroke="midnightblue" d="M576.08,-280.08C568.65,-272.22 557.65,-260.57 548.69,-251.08"/>
<polygon fill="midnightblue" stroke="midnightblue" points="551.18,-248.62 541.76,-243.75 546.09,-253.42 551.18,-248.62"/>
</g>
<!-- Node18 -->
<g id="node18" class="node">
<title>Node18</title>
<g id="a_node18"><a xlink:href="mxicondraw_8h.html" target="_top" xlink:title=" ">
<polygon fill="none" stroke="black" points="596.5,-224.5 596.5,-243.5 672.5,-243.5 672.5,-224.5 596.5,-224.5"/>
<text text-anchor="middle" x="634.5" y="-231.5" font-family="Helvetica,sans-Serif" font-size="10.00">mxicondraw.h</text>
</a>
</g>
</g>
<!-- Node2&#45;&gt;Node18 -->
<g id="edge30" class="edge">
<title>Node2&#45;&gt;Node18</title>
<path fill="none" stroke="midnightblue" d="M592.76,-280.08C599.96,-272.3 610.61,-260.8 619.35,-251.37"/>
<polygon fill="midnightblue" stroke="midnightblue" points="622.17,-253.47 626.4,-243.75 617.03,-248.71 622.17,-253.47"/>
</g>
<!-- Node5 -->
<g id="node5" class="node">
<title>Node5</title>
<g id="a_node5"><a xlink:href="mxrect_8h.html" target="_top" xlink:title=" ">
<polygon fill="none" stroke="black" points="751,-112.5 751,-131.5 804,-131.5 804,-112.5 751,-112.5"/>
<text text-anchor="middle" x="777.5" y="-119.5" font-family="Helvetica,sans-Serif" font-size="10.00">mxrect.h</text>
</a>
</g>
</g>
<!-- Node4&#45;&gt;Node5 -->
<g id="edge4" class="edge">
<title>Node4&#45;&gt;Node5</title>
<path fill="none" stroke="midnightblue" d="M777.5,-168.08C777.5,-161.01 777.5,-150.86 777.5,-141.99"/>
<polygon fill="midnightblue" stroke="midnightblue" points="781,-141.75 777.5,-131.75 774,-141.75 781,-141.75"/>
</g>
<!-- Node5&#45;&gt;Node3 -->
<g id="edge5" class="edge">
<title>Node5&#45;&gt;Node3</title>
<path fill="none" stroke="midnightblue" d="M777.49,-112.08C776.97,-98.13 773.89,-71.21 758.5,-56 726.94,-24.81 675.64,-14.82 639.44,-11.84"/>
<polygon fill="midnightblue" stroke="midnightblue" points="639.41,-8.33 629.2,-11.15 638.94,-15.31 639.41,-8.33"/>
</g>
<!-- Node6 -->
<g id="node6" class="node">
<title>Node6</title>
<g id="a_node6"><a xlink:href="mxvector_8h.html" target="_top" xlink:title=" ">
<polygon fill="none" stroke="black" points="854.5,-56.5 854.5,-75.5 918.5,-75.5 918.5,-56.5 854.5,-56.5"/>
<text text-anchor="middle" x="886.5" y="-63.5" font-family="Helvetica,sans-Serif" font-size="10.00">mxvector.h</text>
</a>
</g>
</g>
<!-- Node5&#45;&gt;Node6 -->
<g id="edge6" class="edge">
<title>Node5&#45;&gt;Node6</title>
<path fill="none" stroke="midnightblue" d="M795.01,-112.32C812.57,-103.62 839.83,-90.12 860.03,-80.11"/>
<polygon fill="midnightblue" stroke="midnightblue" points="861.62,-83.23 869.03,-75.65 858.52,-76.96 861.62,-83.23"/>
</g>
<!-- Node7 -->
<g id="node7" class="node">
<title>Node7</title>
<g id="a_node7"><a xlink:title=" ">
<polygon fill="none" stroke="#bfbfbf" points="693.5,-56.5 693.5,-75.5 749.5,-75.5 749.5,-56.5 693.5,-56.5"/>
<text text-anchor="middle" x="721.5" y="-63.5" font-family="Helvetica,sans-Serif" font-size="10.00">algorithm</text>
</a>
</g>
</g>
<!-- Node5&#45;&gt;Node7 -->
<g id="edge8" class="edge">
<title>Node5&#45;&gt;Node7</title>
<path fill="none" stroke="midnightblue" d="M768.5,-112.32C760.31,-104.42 747.99,-92.55 738.03,-82.94"/>
<polygon fill="midnightblue" stroke="midnightblue" points="740.29,-80.26 730.66,-75.83 735.43,-85.29 740.29,-80.26"/>
</g>
<!-- Node6&#45;&gt;Node3 -->
<g id="edge7" class="edge">
<title>Node6&#45;&gt;Node3</title>
<path fill="none" stroke="midnightblue" d="M854.47,-59.01C801.92,-49.2 697.46,-29.68 639.21,-18.79"/>
<polygon fill="midnightblue" stroke="midnightblue" points="639.71,-15.33 629.24,-16.93 638.42,-22.21 639.71,-15.33"/>
</g>
<!-- Node8&#45;&gt;Node3 -->
<g id="edge10" class="edge">
<title>Node8&#45;&gt;Node3</title>
<path fill="none" stroke="midnightblue" d="M458.66,-113.8C481.2,-106.58 514.48,-93.94 539.5,-76 558.05,-62.7 574.89,-42.49 585.59,-28.14"/>
<polygon fill="midnightblue" stroke="midnightblue" points="588.67,-29.84 591.68,-19.69 583,-25.75 588.67,-29.84"/>
</g>
<!-- Node9 -->
<g id="node9" class="node">
<title>Node9</title>
<g id="a_node9"><a xlink:href="mxrefcounter_8h.html" target="_top" xlink:title=" ">
<polygon fill="none" stroke="black" points="359.5,-56.5 359.5,-75.5 439.5,-75.5 439.5,-56.5 359.5,-56.5"/>
<text text-anchor="middle" x="399.5" y="-63.5" font-family="Helvetica,sans-Serif" font-size="10.00">mxrefcounter.h</text>
</a>
</g>
</g>
<!-- Node8&#45;&gt;Node9 -->
<g id="edge11" class="edge">
<title>Node8&#45;&gt;Node9</title>
<path fill="none" stroke="midnightblue" d="M427.89,-112.08C423.13,-104.53 416.18,-93.49 410.35,-84.23"/>
<polygon fill="midnightblue" stroke="midnightblue" points="413.3,-82.35 405.01,-75.75 407.38,-86.08 413.3,-82.35"/>
</g>
<!-- Node10 -->
<g id="node10" class="node">
<title>Node10</title>
<g id="a_node10"><a xlink:title=" ">
<polygon fill="none" stroke="#bfbfbf" points="0,-0.5 0,-19.5 47,-19.5 47,-0.5 0,-0.5"/>
<text text-anchor="middle" x="23.5" y="-7.5" font-family="Helvetica,sans-Serif" font-size="10.00">stdlib.h</text>
</a>
</g>
</g>
<!-- Node8&#45;&gt;Node10 -->
<g id="edge12" class="edge">
<title>Node8&#45;&gt;Node10</title>
<path fill="none" stroke="midnightblue" d="M408.21,-119.7C326.09,-115.25 70.51,-99.62 42.5,-76 29.18,-64.77 24.91,-44.75 23.68,-29.89"/>
<polygon fill="midnightblue" stroke="midnightblue" points="27.17,-29.6 23.23,-19.76 20.18,-29.91 27.17,-29.6"/>
</g>
<!-- Node11 -->
<g id="node11" class="node">
<title>Node11</title>
<g id="a_node11"><a xlink:title=" ">
<polygon fill="none" stroke="#bfbfbf" points="143.5,-0.5 143.5,-19.5 191.5,-19.5 191.5,-0.5 143.5,-0.5"/>
<text text-anchor="middle" x="167.5" y="-7.5" font-family="Helvetica,sans-Serif" font-size="10.00">string.h</text>
</a>
</g>
</g>
<!-- Node8&#45;&gt;Node11 -->
<g id="edge13" class="edge">
<title>Node8&#45;&gt;Node11</title>
<path fill="none" stroke="midnightblue" d="M439.67,-112.32C448.53,-98.7 462.33,-72.22 448.5,-56 417.16,-19.24 269.75,-12.38 201.87,-11.19"/>
<polygon fill="midnightblue" stroke="midnightblue" points="201.74,-7.69 191.69,-11.05 201.64,-14.69 201.74,-7.69"/>
</g>
<!-- Node12 -->
<g id="node12" class="node">
<title>Node12</title>
<g id="a_node12"><a xlink:title=" ">
<polygon fill="none" stroke="#bfbfbf" points="496,-56.5 496,-75.5 531,-75.5 531,-56.5 496,-56.5"/>
<text text-anchor="middle" x="513.5" y="-63.5" font-family="Helvetica,sans-Serif" font-size="10.00">new</text>
</a>
</g>
</g>
<!-- Node8&#45;&gt;Node12 -->
<g id="edge14" class="edge">
<title>Node8&#45;&gt;Node12</title>
<path fill="none" stroke="midnightblue" d="M446.35,-112.32C458.72,-103.98 477.63,-91.21 492.24,-81.35"/>
<polygon fill="midnightblue" stroke="midnightblue" points="494.35,-84.15 500.68,-75.65 490.43,-78.35 494.35,-84.15"/>
</g>
<!-- Node13&#45;&gt;Node5 -->
<g id="edge17" class="edge">
<title>Node13&#45;&gt;Node5</title>
<path fill="none" stroke="midnightblue" d="M537.41,-224.29C544.23,-210.14 559.68,-182.3 581.5,-168 630.36,-135.98 699.08,-126.59 740.82,-123.93"/>
<polygon fill="midnightblue" stroke="midnightblue" points="741.03,-127.42 750.83,-123.39 740.65,-120.43 741.03,-127.42"/>
</g>
<!-- Node13&#45;&gt;Node6 -->
<g id="edge16" class="edge">
<title>Node13&#45;&gt;Node6</title>
<path fill="none" stroke="midnightblue" d="M534.31,-224.08C536.06,-210.13 541.42,-183.21 557.5,-168 638.23,-91.66 775.27,-72.93 844.22,-68.4"/>
<polygon fill="midnightblue" stroke="midnightblue" points="844.5,-71.89 854.28,-67.81 844.09,-64.9 844.5,-71.89"/>
</g>
<!-- Node14 -->
<g id="node14" class="node">
<title>Node14</title>
<g id="a_node14"><a xlink:href="mxstring_8h.html" target="_top" xlink:title=" ">
<polygon fill="none" stroke="black" points="435,-168.5 435,-187.5 496,-187.5 496,-168.5 435,-168.5"/>
<text text-anchor="middle" x="465.5" y="-175.5" font-family="Helvetica,sans-Serif" font-size="10.00">mxstring.h</text>
</a>
</g>
</g>
<!-- Node13&#45;&gt;Node14 -->
<g id="edge18" class="edge">
<title>Node13&#45;&gt;Node14</title>
<path fill="none" stroke="midnightblue" d="M522.57,-224.32C512.33,-216.18 496.78,-203.84 484.5,-194.09"/>
<polygon fill="midnightblue" stroke="midnightblue" points="486.63,-191.31 476.62,-187.83 482.28,-196.79 486.63,-191.31"/>
</g>
<!-- Node15 -->
<g id="node15" class="node">
<title>Node15</title>
<g id="a_node15"><a xlink:href="mxgenericstring_8h.html" target="_top" xlink:title=" ">
<polygon fill="none" stroke="black" points="159.5,-112.5 159.5,-131.5 251.5,-131.5 251.5,-112.5 159.5,-112.5"/>
<text text-anchor="middle" x="205.5" y="-119.5" font-family="Helvetica,sans-Serif" font-size="10.00">mxgenericstring.h</text>
</a>
</g>
</g>
<!-- Node14&#45;&gt;Node15 -->
<g id="edge19" class="edge">
<title>Node14&#45;&gt;Node15</title>
<path fill="none" stroke="midnightblue" d="M434.91,-170.65C391.02,-161.53 309.65,-144.63 256.55,-133.6"/>
<polygon fill="midnightblue" stroke="midnightblue" points="257.16,-130.15 246.66,-131.55 255.73,-137.01 257.16,-130.15"/>
</g>
<!-- Node15&#45;&gt;Node3 -->
<g id="edge20" class="edge">
<title>Node15&#45;&gt;Node3</title>
<path fill="none" stroke="midnightblue" d="M205.24,-112.25C205.35,-98.05 207.82,-70.14 224.5,-56 273.63,-14.34 468.98,-10.18 555.68,-10.45"/>
<polygon fill="midnightblue" stroke="midnightblue" points="555.93,-13.95 565.94,-10.5 555.96,-6.95 555.93,-13.95"/>
</g>
<!-- Node15&#45;&gt;Node9 -->
<g id="edge21" class="edge">
<title>Node15&#45;&gt;Node9</title>
<path fill="none" stroke="midnightblue" d="M236.24,-112.44C269.44,-103.2 322.49,-88.44 359.06,-78.26"/>
<polygon fill="midnightblue" stroke="midnightblue" points="360.21,-81.57 368.9,-75.52 358.33,-74.83 360.21,-81.57"/>
</g>
<!-- Node15&#45;&gt;Node10 -->
<g id="edge28" class="edge">
<title>Node15&#45;&gt;Node10</title>
<path fill="none" stroke="midnightblue" d="M159.34,-116.94C107.41,-111.3 27.88,-99.08 9.5,-76 -1.25,-62.5 5.33,-42.6 12.66,-28.38"/>
<polygon fill="midnightblue" stroke="midnightblue" points="15.76,-30.01 17.66,-19.59 9.68,-26.55 15.76,-30.01"/>
</g>
<!-- Node15&#45;&gt;Node11 -->
<g id="edge29" class="edge">
<title>Node15&#45;&gt;Node11</title>
<path fill="none" stroke="midnightblue" d="M202.52,-112.37C196.36,-94.54 182.11,-53.3 173.81,-29.27"/>
<polygon fill="midnightblue" stroke="midnightblue" points="177.04,-27.9 170.47,-19.59 170.43,-30.19 177.04,-27.9"/>
</g>
<!-- Node16 -->
<g id="node16" class="node">
<title>Node16</title>
<g id="a_node16"><a xlink:href="mxbytearrayref_8h.html" target="_top" xlink:title=" ">
<polygon fill="none" stroke="black" points="52,-56.5 52,-75.5 139,-75.5 139,-56.5 52,-56.5"/>
<text text-anchor="middle" x="95.5" y="-63.5" font-family="Helvetica,sans-Serif" font-size="10.00">mxbytearrayref.h</text>
</a>
</g>
</g>
<!-- Node15&#45;&gt;Node16 -->
<g id="edge22" class="edge">
<title>Node15&#45;&gt;Node16</title>
<path fill="none" stroke="midnightblue" d="M187.83,-112.32C170.11,-103.62 142.6,-90.12 122.21,-80.11"/>
<polygon fill="midnightblue" stroke="midnightblue" points="123.65,-76.92 113.13,-75.65 120.56,-83.2 123.65,-76.92"/>
</g>
<!-- Node17 -->
<g id="node17" class="node">
<title>Node17</title>
<g id="a_node17"><a xlink:href="mxgenericsubstring_8h.html" target="_top" xlink:title=" ">
<polygon fill="none" stroke="black" points="233.5,-56.5 233.5,-75.5 341.5,-75.5 341.5,-56.5 233.5,-56.5"/>
<text text-anchor="middle" x="287.5" y="-63.5" font-family="Helvetica,sans-Serif" font-size="10.00">mxgenericsubstring.h</text>
</a>
</g>
</g>
<!-- Node15&#45;&gt;Node17 -->
<g id="edge26" class="edge">
<title>Node15&#45;&gt;Node17</title>
<path fill="none" stroke="midnightblue" d="M218.67,-112.32C231.35,-103.98 250.73,-91.21 265.71,-81.35"/>
<polygon fill="midnightblue" stroke="midnightblue" points="267.93,-84.08 274.36,-75.65 264.08,-78.23 267.93,-84.08"/>
</g>
<!-- Node16&#45;&gt;Node3 -->
<g id="edge23" class="edge">
<title>Node16&#45;&gt;Node3</title>
<path fill="none" stroke="midnightblue" d="M139.17,-60.3C234.93,-50 462.3,-25.54 556.02,-15.46"/>
<polygon fill="midnightblue" stroke="midnightblue" points="556.41,-18.94 565.98,-14.39 555.66,-11.98 556.41,-18.94"/>
</g>
<!-- Node16&#45;&gt;Node10 -->
<g id="edge24" class="edge">
<title>Node16&#45;&gt;Node10</title>
<path fill="none" stroke="midnightblue" d="M83.93,-56.32C73.08,-48.18 56.62,-35.84 43.62,-26.09"/>
<polygon fill="midnightblue" stroke="midnightblue" points="45.38,-23.03 35.28,-19.83 41.18,-28.63 45.38,-23.03"/>
</g>
<!-- Node16&#45;&gt;Node11 -->
<g id="edge25" class="edge">
<title>Node16&#45;&gt;Node11</title>
<path fill="none" stroke="midnightblue" d="M107.07,-56.32C117.92,-48.18 134.38,-35.84 147.38,-26.09"/>
<polygon fill="midnightblue" stroke="midnightblue" points="149.82,-28.63 155.72,-19.83 145.62,-23.03 149.82,-28.63"/>
</g>
<!-- Node17&#45;&gt;Node3 -->
<g id="edge27" class="edge">
<title>Node17&#45;&gt;Node3</title>
<path fill="none" stroke="midnightblue" d="M336.62,-56.44C397.05,-45.92 498.61,-28.23 555.55,-18.31"/>
<polygon fill="midnightblue" stroke="midnightblue" points="556.39,-21.71 565.65,-16.55 555.19,-14.82 556.39,-21.71"/>
</g>
<!-- Node18&#45;&gt;Node5 -->
<g id="edge32" class="edge">
<title>Node18&#45;&gt;Node5</title>
<path fill="none" stroke="midnightblue" d="M645.72,-224.37C670.05,-205.65 727.9,-161.15 758.22,-137.83"/>
<polygon fill="midnightblue" stroke="midnightblue" points="760.54,-140.46 766.33,-131.59 756.27,-134.91 760.54,-140.46"/>
</g>
<!-- Node19 -->
<g id="node19" class="node">
<title>Node19</title>
<g id="a_node19"><a xlink:href="mxthemeicons_8h.html" target="_top" xlink:title=" ">
<polygon fill="none" stroke="black" points="591,-168.5 591,-187.5 678,-187.5 678,-168.5 591,-168.5"/>
<text text-anchor="middle" x="634.5" y="-175.5" font-family="Helvetica,sans-Serif" font-size="10.00">mxthemeicons.h</text>
</a>
</g>
</g>
<!-- Node18&#45;&gt;Node19 -->
<g id="edge31" class="edge">
<title>Node18&#45;&gt;Node19</title>
<path fill="none" stroke="midnightblue" d="M634.5,-224.08C634.5,-217.01 634.5,-206.86 634.5,-197.99"/>
<polygon fill="midnightblue" stroke="midnightblue" points="638,-197.75 634.5,-187.75 631,-197.75 638,-197.75"/>
</g>
<!-- Node20&#45;&gt;Node6 -->
<g id="edge34" class="edge">
<title>Node20&#45;&gt;Node6</title>
<path fill="none" stroke="midnightblue" d="M1073.68,-280.2C1076.05,-258.94 1079.31,-203.88 1055.5,-168 1046.44,-154.34 956.04,-104.43 911.31,-80.27"/>
<polygon fill="midnightblue" stroke="midnightblue" points="912.97,-77.19 902.5,-75.53 909.65,-83.35 912.97,-77.19"/>
</g>
<!-- Node21&#45;&gt;Node4 -->
<g id="edge37" class="edge">
<title>Node21&#45;&gt;Node4</title>
<path fill="none" stroke="midnightblue" d="M810.89,-224.08C805.24,-216.46 796.96,-205.26 790.05,-195.94"/>
<polygon fill="midnightblue" stroke="midnightblue" points="792.75,-193.7 783.98,-187.75 787.12,-197.87 792.75,-193.7"/>
</g>
<!-- Node21&#45;&gt;Node6 -->
<g id="edge36" class="edge">
<title>Node21&#45;&gt;Node6</title>
<path fill="none" stroke="midnightblue" d="M821.21,-224.08C832.12,-197.83 864.24,-120.55 878.97,-85.12"/>
<polygon fill="midnightblue" stroke="midnightblue" points="882.33,-86.15 882.94,-75.57 875.87,-83.46 882.33,-86.15"/>
</g>
<!-- Node23 -->
<g id="node23" class="node">
<title>Node23</title>
<g id="a_node23"><a xlink:href="mxbuffer_8h.html" target="_top" xlink:title=" ">
<polygon fill="none" stroke="black" points="1268,-224.5 1268,-243.5 1329,-243.5 1329,-224.5 1268,-224.5"/>
<text text-anchor="middle" x="1298.5" y="-231.5" font-family="Helvetica,sans-Serif" font-size="10.00">mxbuffer.h</text>
</a>
</g>
</g>
<!-- Node22&#45;&gt;Node23 -->
<g id="edge39" class="edge">
<title>Node22&#45;&gt;Node23</title>
<path fill="none" stroke="midnightblue" d="M1250.66,-280.32C1259,-272.42 1271.53,-260.55 1281.68,-250.94"/>
<polygon fill="midnightblue" stroke="midnightblue" points="1284.32,-253.25 1289.18,-243.83 1279.51,-248.17 1284.32,-253.25"/>
</g>
<!-- Node24 -->
<g id="node24" class="node">
<title>Node24</title>
<g id="a_node24"><a xlink:href="mxrenderer_8h.html" target="_top" xlink:title=" ">
<polygon fill="none" stroke="black" points="1177.5,-224.5 1177.5,-243.5 1249.5,-243.5 1249.5,-224.5 1177.5,-224.5"/>
<text text-anchor="middle" x="1213.5" y="-231.5" font-family="Helvetica,sans-Serif" font-size="10.00">mxrenderer.h</text>
</a>
</g>
</g>
<!-- Node22&#45;&gt;Node24 -->
<g id="edge40" class="edge">
<title>Node22&#45;&gt;Node24</title>
<path fill="none" stroke="midnightblue" d="M1236.88,-280.08C1233.04,-272.69 1227.48,-261.95 1222.74,-252.81"/>
<polygon fill="midnightblue" stroke="midnightblue" points="1225.75,-251.02 1218.04,-243.75 1219.53,-254.24 1225.75,-251.02"/>
</g>
<!-- Node28 -->
<g id="node28" class="node">
<title>Node28</title>
<g id="a_node28"><a xlink:href="mxmatrix_8h.html" target="_top" xlink:title=" ">
<polygon fill="none" stroke="black" points="1515,-112.5 1515,-131.5 1578,-131.5 1578,-112.5 1515,-112.5"/>
<text text-anchor="middle" x="1546.5" y="-119.5" font-family="Helvetica,sans-Serif" font-size="10.00">mxmatrix.h</text>
</a>
</g>
</g>
<!-- Node22&#45;&gt;Node28 -->
<g id="edge61" class="edge">
<title>Node22&#45;&gt;Node28</title>
<path fill="none" stroke="midnightblue" d="M1284.19,-284.47C1328.33,-278.78 1398.6,-266.85 1455.5,-244 1499.22,-226.44 1522.3,-229.01 1545.5,-188 1553.4,-174.03 1552.83,-155.53 1550.77,-141.84"/>
<polygon fill="midnightblue" stroke="midnightblue" points="1554.14,-140.84 1548.83,-131.67 1547.26,-142.15 1554.14,-140.84"/>
</g>
<!-- Node22&#45;&gt;Node31 -->
<g id="edge50" class="edge">
<title>Node22&#45;&gt;Node31</title>
<path fill="none" stroke="midnightblue" d="M1266.06,-280.44C1292.02,-271.4 1333.17,-257.06 1362.3,-246.92"/>
<polygon fill="midnightblue" stroke="midnightblue" points="1363.76,-250.11 1372.05,-243.52 1361.46,-243.5 1363.76,-250.11"/>
</g>
<!-- Node32 -->
<g id="node32" class="node">
<title>Node32</title>
<g id="a_node32"><a xlink:href="mxiconprogram_8h.html" target="_top" xlink:title=" ">
<polygon fill="none" stroke="black" points="1140.5,-168.5 1140.5,-187.5 1230.5,-187.5 1230.5,-168.5 1140.5,-168.5"/>
<text text-anchor="middle" x="1185.5" y="-175.5" font-family="Helvetica,sans-Serif" font-size="10.00">mxiconprogram.h</text>
</a>
</g>
</g>
<!-- Node22&#45;&gt;Node32 -->
<g id="edge54" class="edge">
<title>Node22&#45;&gt;Node32</title>
<path fill="none" stroke="midnightblue" d="M1215.29,-280.41C1198.65,-273.44 1178.44,-261.81 1168.5,-244 1160.17,-229.08 1166.94,-209.96 1174.25,-196.33"/>
<polygon fill="midnightblue" stroke="midnightblue" points="1177.39,-197.9 1179.47,-187.51 1171.36,-194.33 1177.39,-197.9"/>
</g>
<!-- Node24&#45;&gt;Node6 -->
<g id="edge49" class="edge">
<title>Node24&#45;&gt;Node6</title>
<path fill="none" stroke="midnightblue" d="M1189.98,-224.38C1172.19,-216.93 1148.09,-204.71 1131.5,-188 1104.46,-160.76 1121.13,-135.12 1090.5,-112 1043.2,-76.3 973.17,-67.84 928.7,-66.39"/>
<polygon fill="midnightblue" stroke="midnightblue" points="928.59,-62.89 918.52,-66.17 928.44,-69.88 928.59,-62.89"/>
</g>
<!-- Node24&#45;&gt;Node8 -->
<g id="edge41" class="edge">
<title>Node24&#45;&gt;Node8</title>
<path fill="none" stroke="midnightblue" d="M1177.37,-227.03C1125.73,-218.48 1027.82,-202.21 944.5,-188 893.36,-179.28 880.85,-175.38 829.5,-168 696.88,-148.95 538.32,-132.97 468.94,-126.32"/>
<polygon fill="midnightblue" stroke="midnightblue" points="468.87,-122.8 458.58,-125.33 468.21,-129.76 468.87,-122.8"/>
</g>
<!-- Node25 -->
<g id="node25" class="node">
<title>Node25</title>
<g id="a_node25"><a xlink:href="mxgpuarray_8h.html" target="_top" xlink:title=" ">
<polygon fill="none" stroke="black" points="1248.5,-168.5 1248.5,-187.5 1322.5,-187.5 1322.5,-168.5 1248.5,-168.5"/>
<text text-anchor="middle" x="1285.5" y="-175.5" font-family="Helvetica,sans-Serif" font-size="10.00">mxgpuarray.h</text>
</a>
</g>
</g>
<!-- Node24&#45;&gt;Node25 -->
<g id="edge42" class="edge">
<title>Node24&#45;&gt;Node25</title>
<path fill="none" stroke="midnightblue" d="M1225.07,-224.32C1235.92,-216.18 1252.38,-203.84 1265.38,-194.09"/>
<polygon fill="midnightblue" stroke="midnightblue" points="1267.82,-196.63 1273.72,-187.83 1263.62,-191.03 1267.82,-196.63"/>
</g>
<!-- Node24&#45;&gt;Node28 -->
<g id="edge46" class="edge">
<title>Node24&#45;&gt;Node28</title>
<path fill="none" stroke="midnightblue" d="M1249.63,-225.79C1252.97,-225.16 1256.29,-224.56 1259.5,-224 1363.15,-205.89 1402.17,-240.26 1493.5,-188 1512.78,-176.97 1527.91,-156 1536.98,-140.85"/>
<polygon fill="midnightblue" stroke="midnightblue" points="1540.17,-142.33 1542.05,-131.91 1534.08,-138.88 1540.17,-142.33"/>
</g>
<!-- Node29 -->
<g id="node29" class="node">
<title>Node29</title>
<g id="a_node29"><a xlink:href="mxopenglfunctions_8h.html" target="_top" xlink:title=" ">
<polygon fill="none" stroke="black" points="1379,-168.5 1379,-187.5 1484,-187.5 1484,-168.5 1379,-168.5"/>
<text text-anchor="middle" x="1431.5" y="-175.5" font-family="Helvetica,sans-Serif" font-size="10.00">mxopenglfunctions.h</text>
</a>
</g>
</g>
<!-- Node24&#45;&gt;Node29 -->
<g id="edge47" class="edge">
<title>Node24&#45;&gt;Node29</title>
<path fill="none" stroke="midnightblue" d="M1248.04,-224.44C1285.75,-215.1 1346.24,-200.12 1387.36,-189.93"/>
<polygon fill="midnightblue" stroke="midnightblue" points="1388.25,-193.32 1397.12,-187.52 1386.57,-186.52 1388.25,-193.32"/>
</g>
<!-- Node26 -->
<g id="node26" class="node">
<title>Node26</title>
<g id="a_node26"><a xlink:href="mxgpuprogram_8h.html" target="_top" xlink:title=" ">
<polygon fill="none" stroke="black" points="1251.5,-112.5 1251.5,-131.5 1339.5,-131.5 1339.5,-112.5 1251.5,-112.5"/>
<text text-anchor="middle" x="1295.5" y="-119.5" font-family="Helvetica,sans-Serif" font-size="10.00">mxgpuprogram.h</text>
</a>
</g>
</g>
<!-- Node25&#45;&gt;Node26 -->
<g id="edge43" class="edge">
<title>Node25&#45;&gt;Node26</title>
<path fill="none" stroke="midnightblue" d="M1287.15,-168.08C1288.48,-160.93 1290.38,-150.64 1292.04,-141.69"/>
<polygon fill="midnightblue" stroke="midnightblue" points="1295.5,-142.22 1293.88,-131.75 1288.62,-140.95 1295.5,-142.22"/>
</g>
<!-- Node26&#45;&gt;Node3 -->
<g id="edge44" class="edge">
<title>Node26&#45;&gt;Node3</title>
<path fill="none" stroke="midnightblue" d="M1296.73,-112.24C1298.17,-98.03 1298.6,-70.11 1282.5,-56 1234.18,-13.66 781.26,-10.72 639.62,-10.85"/>
<polygon fill="midnightblue" stroke="midnightblue" points="639.19,-7.35 629.2,-10.86 639.2,-14.35 639.19,-7.35"/>
</g>
<!-- Node27 -->
<g id="node27" class="node">
<title>Node27</title>
<g id="a_node27"><a xlink:href="mxopengl_8h.html" target="_top" xlink:title=" ">
<polygon fill="none" stroke="black" points="1208,-56.5 1208,-75.5 1273,-75.5 1273,-56.5 1208,-56.5"/>
<text text-anchor="middle" x="1240.5" y="-63.5" font-family="Helvetica,sans-Serif" font-size="10.00">mxopengl.h</text>
</a>
</g>
</g>
<!-- Node26&#45;&gt;Node27 -->
<g id="edge45" class="edge">
<title>Node26&#45;&gt;Node27</title>
<path fill="none" stroke="midnightblue" d="M1286.42,-112.08C1278.33,-104.14 1266.3,-92.34 1256.59,-82.8"/>
<polygon fill="midnightblue" stroke="midnightblue" points="1259,-80.26 1249.41,-75.75 1254.1,-85.25 1259,-80.26"/>
</g>
<!-- Node30 -->
<g id="node30" class="node">
<title>Node30</title>
<g id="a_node30"><a xlink:title=" ">
<polygon fill="none" stroke="#bfbfbf" points="1369,-112.5 1369,-131.5 1494,-131.5 1494,-112.5 1369,-112.5"/>
<text text-anchor="middle" x="1431.5" y="-119.5" font-family="Helvetica,sans-Serif" font-size="10.00">QOpenGLExtraFunctions</text>
</a>
</g>
</g>
<!-- Node29&#45;&gt;Node30 -->
<g id="edge48" class="edge">
<title>Node29&#45;&gt;Node30</title>
<path fill="none" stroke="midnightblue" d="M1431.5,-168.08C1431.5,-161.01 1431.5,-150.86 1431.5,-141.99"/>
<polygon fill="midnightblue" stroke="midnightblue" points="1435,-141.75 1431.5,-131.75 1428,-141.75 1435,-141.75"/>
</g>
<!-- Node31&#45;&gt;Node4 -->
<g id="edge53" class="edge">
<title>Node31&#45;&gt;Node4</title>
<path fill="none" stroke="midnightblue" d="M1346.86,-225.05C1344.03,-224.67 1341.23,-224.32 1338.5,-224 1152.22,-202.11 929.88,-187.74 830.29,-181.93"/>
<polygon fill="midnightblue" stroke="midnightblue" points="830.37,-178.43 820.18,-181.34 829.96,-185.42 830.37,-178.43"/>
</g>
<!-- Node31&#45;&gt;Node26 -->
<g id="edge51" class="edge">
<title>Node31&#45;&gt;Node26</title>
<path fill="none" stroke="midnightblue" d="M1388.57,-224.37C1371.69,-205.97 1331.93,-162.67 1310.24,-139.05"/>
<polygon fill="midnightblue" stroke="midnightblue" points="1312.73,-136.59 1303.39,-131.59 1307.57,-141.32 1312.73,-136.59"/>
</g>
<!-- Node31&#45;&gt;Node28 -->
<g id="edge52" class="edge">
<title>Node31&#45;&gt;Node28</title>
<path fill="none" stroke="midnightblue" d="M1446.21,-226.86C1473.27,-221.06 1505.43,-209.82 1526.5,-188 1538.41,-175.67 1543.24,-156.42 1545.2,-142.06"/>
<polygon fill="midnightblue" stroke="midnightblue" points="1548.71,-142.12 1546.23,-131.82 1541.74,-141.42 1548.71,-142.12"/>
</g>
<!-- Node32&#45;&gt;Node3 -->
<g id="edge55" class="edge">
<title>Node32&#45;&gt;Node3</title>
<path fill="none" stroke="midnightblue" d="M1183.16,-168.36C1178.9,-154.32 1168.51,-126.64 1149.5,-112 1069.02,-50.05 753.5,-22.01 639.16,-13.74"/>
<polygon fill="midnightblue" stroke="midnightblue" points="639.28,-10.24 629.06,-13.03 638.78,-17.23 639.28,-10.24"/>
</g>
<!-- Node32&#45;&gt;Node5 -->
<g id="edge60" class="edge">
<title>Node32&#45;&gt;Node5</title>
<path fill="none" stroke="midnightblue" d="M1140.28,-171.01C1058.9,-160.24 889.32,-137.8 814.42,-127.89"/>
<polygon fill="midnightblue" stroke="midnightblue" points="814.45,-124.36 804.08,-126.52 813.53,-131.3 814.45,-124.36"/>
</g>
<!-- Node32&#45;&gt;Node6 -->
<g id="edge57" class="edge">
<title>Node32&#45;&gt;Node6</title>
<path fill="none" stroke="midnightblue" d="M1179.84,-168.19C1170.16,-153.89 1148.98,-125.86 1123.5,-112 1061.51,-78.27 978.44,-69.45 928.9,-67.36"/>
<polygon fill="midnightblue" stroke="midnightblue" points="928.97,-63.86 918.86,-67.01 928.73,-70.85 928.97,-63.86"/>
</g>
<!-- Node32&#45;&gt;Node26 -->
<g id="edge59" class="edge">
<title>Node32&#45;&gt;Node26</title>
<path fill="none" stroke="midnightblue" d="M1203.17,-168.32C1220.89,-159.62 1248.4,-146.12 1268.79,-136.11"/>
<polygon fill="midnightblue" stroke="midnightblue" points="1270.44,-139.2 1277.87,-131.65 1267.35,-132.92 1270.44,-139.2"/>
</g>
<!-- Node32&#45;&gt;Node27 -->
<g id="edge58" class="edge">
<title>Node32&#45;&gt;Node27</title>
<path fill="none" stroke="midnightblue" d="M1189.82,-168.37C1198.81,-150.38 1219.72,-108.55 1231.69,-84.63"/>
<polygon fill="midnightblue" stroke="midnightblue" points="1234.86,-86.1 1236.2,-75.59 1228.6,-82.97 1234.86,-86.1"/>
</g>
<!-- Node32&#45;&gt;Node28 -->
<g id="edge56" class="edge">
<title>Node32&#45;&gt;Node28</title>
<path fill="none" stroke="midnightblue" d="M1230.57,-169.39C1233.59,-168.91 1236.59,-168.44 1239.5,-168 1356.58,-150.26 1386.81,-152.14 1503.5,-132 1503.84,-131.94 1504.18,-131.88 1504.52,-131.82"/>
<polygon fill="midnightblue" stroke="midnightblue" points="1505.43,-135.21 1514.61,-129.94 1504.14,-128.33 1505.43,-135.21"/>
</g>
<!-- Node33&#45;&gt;Node6 -->
<g id="edge63" class="edge">
<title>Node33&#45;&gt;Node6</title>
<path fill="none" stroke="midnightblue" d="M916.28,-280.3C911.72,-247.63 895.56,-131.87 889.15,-85.96"/>
<polygon fill="midnightblue" stroke="midnightblue" points="892.59,-85.3 887.74,-75.88 885.66,-86.27 892.59,-85.3"/>
</g>
<!-- Node34&#45;&gt;Node5 -->
<g id="edge65" class="edge">
<title>Node34&#45;&gt;Node5</title>
<path fill="none" stroke="midnightblue" d="M964.32,-168.44C923.21,-158.44 855.51,-141.98 813.89,-131.85"/>
<polygon fill="midnightblue" stroke="midnightblue" points="814.69,-128.45 804.15,-129.48 813.04,-135.25 814.69,-128.45"/>
</g>
<!-- Node35 -->
<g id="node35" class="node">
<title>Node35</title>
<g id="a_node35"><a xlink:href="mxtexture_8h.html" target="_top" xlink:title=" ">
<polygon fill="none" stroke="black" points="1015.5,-112.5 1015.5,-131.5 1081.5,-131.5 1081.5,-112.5 1015.5,-112.5"/>
<text text-anchor="middle" x="1048.5" y="-119.5" font-family="Helvetica,sans-Serif" font-size="10.00">mxtexture.h</text>
</a>
</g>
</g>
<!-- Node34&#45;&gt;Node35 -->
<g id="edge66" class="edge">
<title>Node34&#45;&gt;Node35</title>
<path fill="none" stroke="midnightblue" d="M1007.59,-168.08C1014.66,-160.3 1025.09,-148.8 1033.65,-139.37"/>
<polygon fill="midnightblue" stroke="midnightblue" points="1036.43,-141.51 1040.56,-131.75 1031.25,-136.8 1036.43,-141.51"/>
</g>
<!-- Node35&#45;&gt;Node6 -->
<g id="edge67" class="edge">
<title>Node35&#45;&gt;Node6</title>
<path fill="none" stroke="midnightblue" d="M1022.83,-112.44C995.58,-103.36 952.32,-88.94 921.85,-78.78"/>
<polygon fill="midnightblue" stroke="midnightblue" points="922.64,-75.36 912.05,-75.52 920.43,-82 922.64,-75.36"/>
</g>
<!-- Node35&#45;&gt;Node27 -->
<g id="edge68" class="edge">
<title>Node35&#45;&gt;Node27</title>
<path fill="none" stroke="midnightblue" d="M1078.92,-112.44C1111.78,-103.2 1164.28,-88.44 1200.47,-78.26"/>
<polygon fill="midnightblue" stroke="midnightblue" points="1201.54,-81.59 1210.22,-75.52 1199.65,-74.85 1201.54,-81.59"/>
</g>
</g>
</svg>
