<?xml version="1.0" encoding="UTF-8" standalone="no"?>
<!DOCTYPE svg PUBLIC "-//W3C//DTD SVG 1.1//EN"
 "http://www.w3.org/Graphics/SVG/1.1/DTD/svg11.dtd">
<!-- Generated by graphviz version 2.44.0 ()
 -->
<!-- Title: src/gui/mxpainter.h Pages: 1 -->
<svg width="718pt" height="308pt"
 viewBox="0.00 0.00 717.77 308.00" xmlns="http://www.w3.org/2000/svg" xmlns:xlink="http://www.w3.org/1999/xlink">
<g id="graph0" class="graph" transform="scale(1 1) rotate(0) translate(4 304)">
<title>src/gui/mxpainter.h</title>
<!-- Node1 -->
<g id="node1" class="node">
<title>Node1</title>
<g id="a_node1"><a xlink:title=" ">
<polygon fill="#bfbfbf" stroke="black" points="136.77,-280.5 136.77,-299.5 234.77,-299.5 234.77,-280.5 136.77,-280.5"/>
<text text-anchor="middle" x="185.77" y="-287.5" font-family="Helvetica,sans-Serif" font-size="10.00">src/gui/mxpainter.h</text>
</a>
</g>
</g>
<!-- Node2 -->
<g id="node2" class="node">
<title>Node2</title>
<g id="a_node2"><a xlink:title=" ">
<polygon fill="none" stroke="#bfbfbf" points="201.27,-0.5 201.27,-19.5 264.27,-19.5 264.27,-0.5 201.27,-0.5"/>
<text text-anchor="middle" x="232.77" y="-7.5" font-family="Helvetica,sans-Serif" font-size="10.00">mxdebug.h</text>
</a>
</g>
</g>
<!-- Node1&#45;&gt;Node2 -->
<g id="edge1" class="edge">
<title>Node1&#45;&gt;Node2</title>
<path fill="none" stroke="midnightblue" d="M136.68,-285.56C103.09,-280.85 59.44,-269.81 29.77,-244 5.9,-223.24 0.77,-210.63 0.77,-179 0.77,-179 0.77,-179 0.77,-121 0.77,-90.9 -2.31,-76.46 19.77,-56 44.25,-33.32 136.34,-20.51 191.09,-14.75"/>
<polygon fill="midnightblue" stroke="midnightblue" points="191.59,-18.22 201.18,-13.73 190.88,-11.26 191.59,-18.22"/>
</g>
<!-- Node3 -->
<g id="node3" class="node">
<title>Node3</title>
<g id="a_node3"><a xlink:href="mxvectordraw_8h.html" target="_top" xlink:title=" ">
<polygon fill="none" stroke="black" points="39.27,-224.5 39.27,-243.5 124.27,-243.5 124.27,-224.5 39.27,-224.5"/>
<text text-anchor="middle" x="81.77" y="-231.5" font-family="Helvetica,sans-Serif" font-size="10.00">mxvectordraw.h</text>
</a>
</g>
</g>
<!-- Node1&#45;&gt;Node3 -->
<g id="edge2" class="edge">
<title>Node1&#45;&gt;Node3</title>
<path fill="none" stroke="midnightblue" d="M169.06,-280.32C152.46,-271.7 126.77,-258.36 107.55,-248.39"/>
<polygon fill="midnightblue" stroke="midnightblue" points="108.93,-245.16 98.44,-243.65 105.7,-251.37 108.93,-245.16"/>
</g>
<!-- Node7 -->
<g id="node7" class="node">
<title>Node7</title>
<g id="a_node7"><a xlink:href="mxicondraw_8h.html" target="_top" xlink:title=" ">
<polygon fill="none" stroke="black" points="147.77,-224.5 147.77,-243.5 223.77,-243.5 223.77,-224.5 147.77,-224.5"/>
<text text-anchor="middle" x="185.77" y="-231.5" font-family="Helvetica,sans-Serif" font-size="10.00">mxicondraw.h</text>
</a>
</g>
</g>
<!-- Node1&#45;&gt;Node7 -->
<g id="edge8" class="edge">
<title>Node1&#45;&gt;Node7</title>
<path fill="none" stroke="midnightblue" d="M185.77,-280.08C185.77,-273.01 185.77,-262.86 185.77,-253.99"/>
<polygon fill="midnightblue" stroke="midnightblue" points="189.27,-253.75 185.77,-243.75 182.27,-253.75 189.27,-253.75"/>
</g>
<!-- Node10 -->
<g id="node10" class="node">
<title>Node10</title>
<g id="a_node10"><a xlink:href="mxlist_8h.html" target="_top" xlink:title=" ">
<polygon fill="none" stroke="black" points="568.77,-56.5 568.77,-75.5 618.77,-75.5 618.77,-56.5 568.77,-56.5"/>
<text text-anchor="middle" x="593.77" y="-63.5" font-family="Helvetica,sans-Serif" font-size="10.00">mxlist.h</text>
</a>
</g>
</g>
<!-- Node1&#45;&gt;Node10 -->
<g id="edge12" class="edge">
<title>Node1&#45;&gt;Node10</title>
<path fill="none" stroke="midnightblue" d="M233.23,-280.48C266.82,-273.39 312.36,-261.58 349.77,-244 444,-199.72 539.14,-117.36 576.86,-82.85"/>
<polygon fill="midnightblue" stroke="midnightblue" points="579.43,-85.24 584.41,-75.88 574.69,-80.1 579.43,-85.24"/>
</g>
<!-- Node15 -->
<g id="node15" class="node">
<title>Node15</title>
<g id="a_node15"><a xlink:href="mxtextdraw_8h.html" target="_top" xlink:title=" ">
<polygon fill="none" stroke="black" points="266.77,-224.5 266.77,-243.5 340.77,-243.5 340.77,-224.5 266.77,-224.5"/>
<text text-anchor="middle" x="303.77" y="-231.5" font-family="Helvetica,sans-Serif" font-size="10.00">mxtextdraw.h</text>
</a>
</g>
</g>
<!-- Node1&#45;&gt;Node15 -->
<g id="edge18" class="edge">
<title>Node1&#45;&gt;Node15</title>
<path fill="none" stroke="midnightblue" d="M204.47,-280.44C223.71,-271.64 253.92,-257.81 275.97,-247.72"/>
<polygon fill="midnightblue" stroke="midnightblue" points="277.52,-250.86 285.16,-243.52 274.61,-244.5 277.52,-250.86"/>
</g>
<!-- Node4 -->
<g id="node4" class="node">
<title>Node4</title>
<g id="a_node4"><a xlink:href="mxrect_8h.html" target="_top" xlink:title=" ">
<polygon fill="none" stroke="black" points="85.27,-112.5 85.27,-131.5 138.27,-131.5 138.27,-112.5 85.27,-112.5"/>
<text text-anchor="middle" x="111.77" y="-119.5" font-family="Helvetica,sans-Serif" font-size="10.00">mxrect.h</text>
</a>
</g>
</g>
<!-- Node3&#45;&gt;Node4 -->
<g id="edge3" class="edge">
<title>Node3&#45;&gt;Node4</title>
<path fill="none" stroke="midnightblue" d="M75.74,-224.33C67.69,-211.62 55.39,-187.34 63.77,-168 69.04,-155.84 79.39,-145.46 89.13,-137.74"/>
<polygon fill="midnightblue" stroke="midnightblue" points="91.41,-140.41 97.4,-131.67 87.27,-134.77 91.41,-140.41"/>
</g>
<!-- Node4&#45;&gt;Node2 -->
<g id="edge4" class="edge">
<title>Node4&#45;&gt;Node2</title>
<path fill="none" stroke="midnightblue" d="M112.21,-112.33C113.33,-98.73 117.36,-72.26 131.77,-56 147.2,-38.59 170.65,-27.58 191.07,-20.81"/>
<polygon fill="midnightblue" stroke="midnightblue" points="192.27,-24.1 200.8,-17.82 190.22,-17.41 192.27,-24.1"/>
</g>
<!-- Node5 -->
<g id="node5" class="node">
<title>Node5</title>
<g id="a_node5"><a xlink:href="mxvector_8h.html" target="_top" xlink:title=" ">
<polygon fill="none" stroke="black" points="140.77,-56.5 140.77,-75.5 204.77,-75.5 204.77,-56.5 140.77,-56.5"/>
<text text-anchor="middle" x="172.77" y="-63.5" font-family="Helvetica,sans-Serif" font-size="10.00">mxvector.h</text>
</a>
</g>
</g>
<!-- Node4&#45;&gt;Node5 -->
<g id="edge5" class="edge">
<title>Node4&#45;&gt;Node5</title>
<path fill="none" stroke="midnightblue" d="M121.57,-112.32C130.59,-104.34 144.18,-92.31 155.09,-82.65"/>
<polygon fill="midnightblue" stroke="midnightblue" points="157.62,-85.08 162.79,-75.83 152.98,-79.84 157.62,-85.08"/>
</g>
<!-- Node6 -->
<g id="node6" class="node">
<title>Node6</title>
<g id="a_node6"><a xlink:title=" ">
<polygon fill="none" stroke="#bfbfbf" points="28.77,-56.5 28.77,-75.5 84.77,-75.5 84.77,-56.5 28.77,-56.5"/>
<text text-anchor="middle" x="56.77" y="-63.5" font-family="Helvetica,sans-Serif" font-size="10.00">algorithm</text>
</a>
</g>
</g>
<!-- Node4&#45;&gt;Node6 -->
<g id="edge7" class="edge">
<title>Node4&#45;&gt;Node6</title>
<path fill="none" stroke="midnightblue" d="M102.69,-112.08C94.6,-104.14 82.57,-92.34 72.86,-82.8"/>
<polygon fill="midnightblue" stroke="midnightblue" points="75.27,-80.26 65.68,-75.75 70.37,-85.25 75.27,-80.26"/>
</g>
<!-- Node5&#45;&gt;Node2 -->
<g id="edge6" class="edge">
<title>Node5&#45;&gt;Node2</title>
<path fill="none" stroke="midnightblue" d="M182.41,-56.32C191.28,-48.34 204.64,-36.31 215.38,-26.65"/>
<polygon fill="midnightblue" stroke="midnightblue" points="217.86,-29.13 222.95,-19.83 213.18,-23.92 217.86,-29.13"/>
</g>
<!-- Node8 -->
<g id="node8" class="node">
<title>Node8</title>
<g id="a_node8"><a xlink:href="mxquaddraw_8h.html" target="_top" xlink:title=" ">
<polygon fill="none" stroke="black" points="72.27,-168.5 72.27,-187.5 151.27,-187.5 151.27,-168.5 72.27,-168.5"/>
<text text-anchor="middle" x="111.77" y="-175.5" font-family="Helvetica,sans-Serif" font-size="10.00">mxquaddraw.h</text>
</a>
</g>
</g>
<!-- Node7&#45;&gt;Node8 -->
<g id="edge9" class="edge">
<title>Node7&#45;&gt;Node8</title>
<path fill="none" stroke="midnightblue" d="M173.88,-224.32C162.62,-216.11 145.48,-203.6 132.06,-193.81"/>
<polygon fill="midnightblue" stroke="midnightblue" points="134.02,-190.9 123.88,-187.83 129.89,-196.56 134.02,-190.9"/>
</g>
<!-- Node9 -->
<g id="node9" class="node">
<title>Node9</title>
<g id="a_node9"><a xlink:href="mxthemeicons_8h.html" target="_top" xlink:title=" ">
<polygon fill="none" stroke="black" points="169.27,-168.5 169.27,-187.5 256.27,-187.5 256.27,-168.5 169.27,-168.5"/>
<text text-anchor="middle" x="212.77" y="-175.5" font-family="Helvetica,sans-Serif" font-size="10.00">mxthemeicons.h</text>
</a>
</g>
</g>
<!-- Node7&#45;&gt;Node9 -->
<g id="edge11" class="edge">
<title>Node7&#45;&gt;Node9</title>
<path fill="none" stroke="midnightblue" d="M190.23,-224.08C193.92,-216.69 199.29,-205.95 203.86,-196.81"/>
<polygon fill="midnightblue" stroke="midnightblue" points="207.05,-198.26 208.39,-187.75 200.79,-195.13 207.05,-198.26"/>
</g>
<!-- Node8&#45;&gt;Node4 -->
<g id="edge10" class="edge">
<title>Node8&#45;&gt;Node4</title>
<path fill="none" stroke="midnightblue" d="M111.77,-168.08C111.77,-161.01 111.77,-150.86 111.77,-141.99"/>
<polygon fill="midnightblue" stroke="midnightblue" points="115.27,-141.75 111.77,-131.75 108.27,-141.75 115.27,-141.75"/>
</g>
<!-- Node10&#45;&gt;Node2 -->
<g id="edge13" class="edge">
<title>Node10&#45;&gt;Node2</title>
<path fill="none" stroke="midnightblue" d="M568.67,-61.25C507.51,-52.1 350.25,-28.57 274.62,-17.26"/>
<polygon fill="midnightblue" stroke="midnightblue" points="274.92,-13.77 264.51,-15.75 273.88,-20.69 274.92,-13.77"/>
</g>
<!-- Node11 -->
<g id="node11" class="node">
<title>Node11</title>
<g id="a_node11"><a xlink:href="mxrefcounter_8h.html" target="_top" xlink:title=" ">
<polygon fill="none" stroke="black" points="629.77,-0.5 629.77,-19.5 709.77,-19.5 709.77,-0.5 629.77,-0.5"/>
<text text-anchor="middle" x="669.77" y="-7.5" font-family="Helvetica,sans-Serif" font-size="10.00">mxrefcounter.h</text>
</a>
</g>
</g>
<!-- Node10&#45;&gt;Node11 -->
<g id="edge14" class="edge">
<title>Node10&#45;&gt;Node11</title>
<path fill="none" stroke="midnightblue" d="M605.98,-56.32C617.55,-48.11 635.14,-35.6 648.93,-25.81"/>
<polygon fill="midnightblue" stroke="midnightblue" points="651.21,-28.48 657.34,-19.83 647.16,-22.77 651.21,-28.48"/>
</g>
<!-- Node12 -->
<g id="node12" class="node">
<title>Node12</title>
<g id="a_node12"><a xlink:title=" ">
<polygon fill="none" stroke="#bfbfbf" points="444.27,-0.5 444.27,-19.5 491.27,-19.5 491.27,-0.5 444.27,-0.5"/>
<text text-anchor="middle" x="467.77" y="-7.5" font-family="Helvetica,sans-Serif" font-size="10.00">stdlib.h</text>
</a>
</g>
</g>
<!-- Node10&#45;&gt;Node12 -->
<g id="edge15" class="edge">
<title>Node10&#45;&gt;Node12</title>
<path fill="none" stroke="midnightblue" d="M573.8,-56.44C553.16,-47.6 520.71,-33.69 497.14,-23.59"/>
<polygon fill="midnightblue" stroke="midnightblue" points="498.21,-20.24 487.64,-19.52 495.45,-26.67 498.21,-20.24"/>
</g>
<!-- Node13 -->
<g id="node13" class="node">
<title>Node13</title>
<g id="a_node13"><a xlink:title=" ">
<polygon fill="none" stroke="#bfbfbf" points="509.77,-0.5 509.77,-19.5 557.77,-19.5 557.77,-0.5 509.77,-0.5"/>
<text text-anchor="middle" x="533.77" y="-7.5" font-family="Helvetica,sans-Serif" font-size="10.00">string.h</text>
</a>
</g>
</g>
<!-- Node10&#45;&gt;Node13 -->
<g id="edge16" class="edge">
<title>Node10&#45;&gt;Node13</title>
<path fill="none" stroke="midnightblue" d="M584.13,-56.32C575.26,-48.34 561.89,-36.31 551.16,-26.65"/>
<polygon fill="midnightblue" stroke="midnightblue" points="553.36,-23.92 543.58,-19.83 548.68,-29.13 553.36,-23.92"/>
</g>
<!-- Node14 -->
<g id="node14" class="node">
<title>Node14</title>
<g id="a_node14"><a xlink:title=" ">
<polygon fill="none" stroke="#bfbfbf" points="576.27,-0.5 576.27,-19.5 611.27,-19.5 611.27,-0.5 576.27,-0.5"/>
<text text-anchor="middle" x="593.77" y="-7.5" font-family="Helvetica,sans-Serif" font-size="10.00">new</text>
</a>
</g>
</g>
<!-- Node10&#45;&gt;Node14 -->
<g id="edge17" class="edge">
<title>Node10&#45;&gt;Node14</title>
<path fill="none" stroke="midnightblue" d="M593.77,-56.08C593.77,-49.01 593.77,-38.86 593.77,-29.99"/>
<polygon fill="midnightblue" stroke="midnightblue" points="597.27,-29.75 593.77,-19.75 590.27,-29.75 597.27,-29.75"/>
</g>
<!-- Node15&#45;&gt;Node4 -->
<g id="edge20" class="edge">
<title>Node15&#45;&gt;Node4</title>
<path fill="none" stroke="midnightblue" d="M301.1,-224.43C296.31,-210.5 284.93,-182.97 265.77,-168 231.7,-141.39 182.34,-130.51 148.75,-126.06"/>
<polygon fill="midnightblue" stroke="midnightblue" points="148.78,-122.54 138.43,-124.83 147.95,-129.49 148.78,-122.54"/>
</g>
<!-- Node15&#45;&gt;Node5 -->
<g id="edge19" class="edge">
<title>Node15&#45;&gt;Node5</title>
<path fill="none" stroke="midnightblue" d="M303.28,-224.38C302.2,-211.3 298.75,-186.08 287.77,-168 264.57,-129.8 222.23,-98.21 195.9,-81.02"/>
<polygon fill="midnightblue" stroke="midnightblue" points="197.63,-77.97 187.31,-75.55 193.87,-83.88 197.63,-77.97"/>
</g>
<!-- Node16 -->
<g id="node16" class="node">
<title>Node16</title>
<g id="a_node16"><a xlink:href="mxstring_8h.html" target="_top" xlink:title=" ">
<polygon fill="none" stroke="black" points="359.27,-168.5 359.27,-187.5 420.27,-187.5 420.27,-168.5 359.27,-168.5"/>
<text text-anchor="middle" x="389.77" y="-175.5" font-family="Helvetica,sans-Serif" font-size="10.00">mxstring.h</text>
</a>
</g>
</g>
<!-- Node15&#45;&gt;Node16 -->
<g id="edge21" class="edge">
<title>Node15&#45;&gt;Node16</title>
<path fill="none" stroke="midnightblue" d="M317.59,-224.32C331,-215.9 351.59,-202.97 367.35,-193.07"/>
<polygon fill="midnightblue" stroke="midnightblue" points="369.38,-195.94 375.99,-187.65 365.66,-190.01 369.38,-195.94"/>
</g>
<!-- Node17 -->
<g id="node17" class="node">
<title>Node17</title>
<g id="a_node17"><a xlink:href="mxgenericstring_8h.html" target="_top" xlink:title=" ">
<polygon fill="none" stroke="black" points="350.77,-112.5 350.77,-131.5 442.77,-131.5 442.77,-112.5 350.77,-112.5"/>
<text text-anchor="middle" x="396.77" y="-119.5" font-family="Helvetica,sans-Serif" font-size="10.00">mxgenericstring.h</text>
</a>
</g>
</g>
<!-- Node16&#45;&gt;Node17 -->
<g id="edge22" class="edge">
<title>Node16&#45;&gt;Node17</title>
<path fill="none" stroke="midnightblue" d="M390.93,-168.08C391.85,-160.93 393.19,-150.64 394.35,-141.69"/>
<polygon fill="midnightblue" stroke="midnightblue" points="397.82,-142.12 395.63,-131.75 390.88,-141.22 397.82,-142.12"/>
</g>
<!-- Node17&#45;&gt;Node2 -->
<g id="edge23" class="edge">
<title>Node17&#45;&gt;Node2</title>
<path fill="none" stroke="midnightblue" d="M354.28,-112.47C316.88,-104.16 266.19,-90.66 251.77,-76 239.8,-63.83 235.3,-44.56 233.64,-30.15"/>
<polygon fill="midnightblue" stroke="midnightblue" points="237.1,-29.57 232.83,-19.87 230.13,-30.12 237.1,-29.57"/>
</g>
<!-- Node17&#45;&gt;Node11 -->
<g id="edge24" class="edge">
<title>Node17&#45;&gt;Node11</title>
<path fill="none" stroke="midnightblue" d="M442.87,-116.32C501.36,-109.67 598.2,-96 627.77,-76 644.59,-64.62 656.19,-44.03 662.87,-29.06"/>
<polygon fill="midnightblue" stroke="midnightblue" points="666.12,-30.36 666.71,-19.78 659.65,-27.68 666.12,-30.36"/>
</g>
<!-- Node17&#45;&gt;Node12 -->
<g id="edge31" class="edge">
<title>Node17&#45;&gt;Node12</title>
<path fill="none" stroke="midnightblue" d="M397.9,-112.37C399.92,-99.29 405.12,-74.05 416.77,-56 424.37,-44.22 435.9,-33.68 446.07,-25.78"/>
<polygon fill="midnightblue" stroke="midnightblue" points="448.22,-28.54 454.18,-19.78 444.05,-22.91 448.22,-28.54"/>
</g>
<!-- Node17&#45;&gt;Node13 -->
<g id="edge32" class="edge">
<title>Node17&#45;&gt;Node13</title>
<path fill="none" stroke="midnightblue" d="M442.78,-115.83C469.69,-110.36 502.14,-99.12 521.77,-76 532.55,-63.3 534.96,-44.1 535.03,-29.85"/>
<polygon fill="midnightblue" stroke="midnightblue" points="538.53,-29.59 534.7,-19.71 531.53,-29.82 538.53,-29.59"/>
</g>
<!-- Node18 -->
<g id="node18" class="node">
<title>Node18</title>
<g id="a_node18"><a xlink:href="mxbytearrayref_8h.html" target="_top" xlink:title=" ">
<polygon fill="none" stroke="black" points="425.27,-56.5 425.27,-75.5 512.27,-75.5 512.27,-56.5 425.27,-56.5"/>
<text text-anchor="middle" x="468.77" y="-63.5" font-family="Helvetica,sans-Serif" font-size="10.00">mxbytearrayref.h</text>
</a>
</g>
</g>
<!-- Node17&#45;&gt;Node18 -->
<g id="edge25" class="edge">
<title>Node17&#45;&gt;Node18</title>
<path fill="none" stroke="midnightblue" d="M408.34,-112.32C419.19,-104.18 435.65,-91.84 448.65,-82.09"/>
<polygon fill="midnightblue" stroke="midnightblue" points="451.09,-84.63 456.99,-75.83 446.89,-79.03 451.09,-84.63"/>
</g>
<!-- Node19 -->
<g id="node19" class="node">
<title>Node19</title>
<g id="a_node19"><a xlink:href="mxgenericsubstring_8h.html" target="_top" xlink:title=" ">
<polygon fill="none" stroke="black" points="260.77,-56.5 260.77,-75.5 368.77,-75.5 368.77,-56.5 260.77,-56.5"/>
<text text-anchor="middle" x="314.77" y="-63.5" font-family="Helvetica,sans-Serif" font-size="10.00">mxgenericsubstring.h</text>
</a>
</g>
</g>
<!-- Node17&#45;&gt;Node19 -->
<g id="edge29" class="edge">
<title>Node17&#45;&gt;Node19</title>
<path fill="none" stroke="midnightblue" d="M383.59,-112.32C370.92,-103.98 351.54,-91.21 336.56,-81.35"/>
<polygon fill="midnightblue" stroke="midnightblue" points="338.19,-78.23 327.91,-75.65 334.34,-84.08 338.19,-78.23"/>
</g>
<!-- Node18&#45;&gt;Node2 -->
<g id="edge26" class="edge">
<title>Node18&#45;&gt;Node2</title>
<path fill="none" stroke="midnightblue" d="M431.37,-56.44C388.57,-46.65 318.66,-30.65 274.22,-20.48"/>
<polygon fill="midnightblue" stroke="midnightblue" points="274.85,-17.04 264.32,-18.22 273.29,-23.86 274.85,-17.04"/>
</g>
<!-- Node18&#45;&gt;Node12 -->
<g id="edge27" class="edge">
<title>Node18&#45;&gt;Node12</title>
<path fill="none" stroke="midnightblue" d="M468.6,-56.08C468.47,-49.01 468.29,-38.86 468.12,-29.99"/>
<polygon fill="midnightblue" stroke="midnightblue" points="471.62,-29.68 467.93,-19.75 464.62,-29.81 471.62,-29.68"/>
</g>
<!-- Node18&#45;&gt;Node13 -->
<g id="edge28" class="edge">
<title>Node18&#45;&gt;Node13</title>
<path fill="none" stroke="midnightblue" d="M479.21,-56.32C488.92,-48.26 503.58,-36.08 515.27,-26.37"/>
<polygon fill="midnightblue" stroke="midnightblue" points="517.68,-28.92 523.14,-19.83 513.21,-23.53 517.68,-28.92"/>
</g>
<!-- Node19&#45;&gt;Node2 -->
<g id="edge30" class="edge">
<title>Node19&#45;&gt;Node2</title>
<path fill="none" stroke="midnightblue" d="M301.59,-56.32C288.92,-47.98 269.54,-35.21 254.56,-25.35"/>
<polygon fill="midnightblue" stroke="midnightblue" points="256.19,-22.23 245.91,-19.65 252.34,-28.08 256.19,-22.23"/>
</g>
</g>
</svg>
