<?xml version="1.0" encoding="UTF-8" standalone="no"?>
<!DOCTYPE svg PUBLIC "-//W3C//DTD SVG 1.1//EN"
 "http://www.w3.org/Graphics/SVG/1.1/DTD/svg11.dtd">
<!-- Generated by graphviz version 2.44.0 ()
 -->
<!-- Title: src/gui/icondraw/mxquaddraw.h Pages: 1 -->
<svg width="553pt" height="330pt"
 viewBox="0.00 0.00 553.00 330.00" xmlns="http://www.w3.org/2000/svg" xmlns:xlink="http://www.w3.org/1999/xlink">
<g id="graph0" class="graph" transform="scale(1 1) rotate(0) translate(4 326)">
<title>src/gui/icondraw/mxquaddraw.h</title>
<!-- Node1 -->
<g id="node1" class="node">
<title>Node1</title>
<g id="a_node1"><a xlink:title=" ">
<polygon fill="#bfbfbf" stroke="black" points="277,-302.5 277,-321.5 430,-321.5 430,-302.5 277,-302.5"/>
<text text-anchor="middle" x="353.5" y="-309.5" font-family="Helvetica,sans-Serif" font-size="10.00">src/gui/icondraw/mxquaddraw.h</text>
</a>
</g>
</g>
<!-- Node2 -->
<g id="node2" class="node">
<title>Node2</title>
<g id="a_node2"><a xlink:href="mxicondraw_8h.html" target="_top" xlink:title=" ">
<polygon fill="none" stroke="black" points="191.5,-246.5 191.5,-265.5 341.5,-265.5 341.5,-246.5 191.5,-246.5"/>
<text text-anchor="middle" x="266.5" y="-253.5" font-family="Helvetica,sans-Serif" font-size="10.00">src/gui/icondraw/mxicondraw.h</text>
</a>
</g>
</g>
<!-- Node1&#45;&gt;Node2 -->
<g id="edge1" class="edge">
<title>Node1&#45;&gt;Node2</title>
<path fill="none" stroke="midnightblue" d="M330.78,-296.9C314.83,-287 294,-274.07 280.44,-265.65"/>
<polygon fill="midnightblue" stroke="midnightblue" points="329.18,-300.02 339.52,-302.32 332.87,-294.08 329.18,-300.02"/>
</g>
<!-- Node11 -->
<g id="node11" class="node">
<title>Node11</title>
<g id="a_node11"><a xlink:href="mxquaddraw_8cpp.html" target="_top" xlink:title=" ">
<polygon fill="none" stroke="black" points="359.5,-246.5 359.5,-265.5 523.5,-265.5 523.5,-246.5 359.5,-246.5"/>
<text text-anchor="middle" x="441.5" y="-253.5" font-family="Helvetica,sans-Serif" font-size="10.00">src/gui/icondraw/mxquaddraw.cpp</text>
</a>
</g>
</g>
<!-- Node1&#45;&gt;Node11 -->
<g id="edge11" class="edge">
<title>Node1&#45;&gt;Node11</title>
<path fill="none" stroke="midnightblue" d="M376.48,-296.9C392.61,-287 413.68,-274.07 427.4,-265.65"/>
<polygon fill="midnightblue" stroke="midnightblue" points="374.33,-294.11 367.64,-302.32 377.99,-300.08 374.33,-294.11"/>
</g>
<!-- Node3 -->
<g id="node3" class="node">
<title>Node3</title>
<g id="a_node3"><a xlink:href="mxicondraw_8cpp.html" target="_top" xlink:title=" ">
<polygon fill="none" stroke="black" points="0,-190.5 0,-209.5 161,-209.5 161,-190.5 0,-190.5"/>
<text text-anchor="middle" x="80.5" y="-197.5" font-family="Helvetica,sans-Serif" font-size="10.00">src/gui/icondraw/mxicondraw.cpp</text>
</a>
</g>
</g>
<!-- Node2&#45;&gt;Node3 -->
<g id="edge2" class="edge">
<title>Node2&#45;&gt;Node3</title>
<path fill="none" stroke="midnightblue" d="M227.12,-243.57C192.03,-233.38 141.48,-218.7 109.83,-209.52"/>
<polygon fill="midnightblue" stroke="midnightblue" points="226.45,-247.02 237.03,-246.44 228.4,-240.29 226.45,-247.02"/>
</g>
<!-- Node4 -->
<g id="node4" class="node">
<title>Node4</title>
<g id="a_node4"><a xlink:href="mxiconprogram_8cpp.html" target="_top" xlink:title=" ">
<polygon fill="none" stroke="black" points="179,-190.5 179,-209.5 354,-209.5 354,-190.5 179,-190.5"/>
<text text-anchor="middle" x="266.5" y="-197.5" font-family="Helvetica,sans-Serif" font-size="10.00">src/gui/icondraw/mxiconprogram.cpp</text>
</a>
</g>
</g>
<!-- Node2&#45;&gt;Node4 -->
<g id="edge3" class="edge">
<title>Node2&#45;&gt;Node4</title>
<path fill="none" stroke="midnightblue" d="M266.5,-235.8C266.5,-226.91 266.5,-216.78 266.5,-209.75"/>
<polygon fill="midnightblue" stroke="midnightblue" points="263,-236.08 266.5,-246.08 270,-236.08 263,-236.08"/>
</g>
<!-- Node5 -->
<g id="node5" class="node">
<title>Node5</title>
<g id="a_node5"><a xlink:href="mxpainter_8h.html" target="_top" xlink:title=" ">
<polygon fill="none" stroke="black" points="372.5,-190.5 372.5,-209.5 470.5,-209.5 470.5,-190.5 372.5,-190.5"/>
<text text-anchor="middle" x="421.5" y="-197.5" font-family="Helvetica,sans-Serif" font-size="10.00">src/gui/mxpainter.h</text>
</a>
</g>
</g>
<!-- Node2&#45;&gt;Node5 -->
<g id="edge4" class="edge">
<title>Node2&#45;&gt;Node5</title>
<path fill="none" stroke="midnightblue" d="M300.83,-243.04C330,-232.88 371.14,-218.55 397.05,-209.52"/>
<polygon fill="midnightblue" stroke="midnightblue" points="299.35,-239.85 291.06,-246.44 301.66,-246.46 299.35,-239.85"/>
</g>
<!-- Node6 -->
<g id="node6" class="node">
<title>Node6</title>
<g id="a_node6"><a xlink:href="mxapplication_8h.html" target="_top" xlink:title=" ">
<polygon fill="none" stroke="black" points="285.5,-134.5 285.5,-153.5 417.5,-153.5 417.5,-134.5 285.5,-134.5"/>
<text text-anchor="middle" x="351.5" y="-141.5" font-family="Helvetica,sans-Serif" font-size="10.00">src/events/mxapplication.h</text>
</a>
</g>
</g>
<!-- Node5&#45;&gt;Node6 -->
<g id="edge5" class="edge">
<title>Node5&#45;&gt;Node6</title>
<path fill="none" stroke="midnightblue" d="M402.19,-184.1C389.59,-174.38 373.57,-162.03 362.95,-153.83"/>
<polygon fill="midnightblue" stroke="midnightblue" points="400.2,-186.99 410.25,-190.32 404.47,-181.44 400.2,-186.99"/>
</g>
<!-- Node10 -->
<g id="node10" class="node">
<title>Node10</title>
<g id="a_node10"><a xlink:href="mxpainter_8cpp.html" target="_top" xlink:title=" ">
<polygon fill="none" stroke="black" points="436,-134.5 436,-153.5 545,-153.5 545,-134.5 436,-134.5"/>
<text text-anchor="middle" x="490.5" y="-141.5" font-family="Helvetica,sans-Serif" font-size="10.00">src/gui/mxpainter.cpp</text>
</a>
</g>
</g>
<!-- Node5&#45;&gt;Node10 -->
<g id="edge10" class="edge">
<title>Node5&#45;&gt;Node10</title>
<path fill="none" stroke="midnightblue" d="M440.54,-184.1C452.96,-174.38 468.74,-162.03 479.21,-153.83"/>
<polygon fill="midnightblue" stroke="midnightblue" points="438.3,-181.4 432.59,-190.32 442.62,-186.92 438.3,-181.4"/>
</g>
<!-- Node7 -->
<g id="node7" class="node">
<title>Node7</title>
<g id="a_node7"><a xlink:href="mxapplication_8cpp.html" target="_top" xlink:title=" ">
<polygon fill="none" stroke="black" points="180,-73 180,-92 323,-92 323,-73 180,-73"/>
<text text-anchor="middle" x="251.5" y="-80" font-family="Helvetica,sans-Serif" font-size="10.00">src/events/mxapplication.cpp</text>
</a>
</g>
</g>
<!-- Node6&#45;&gt;Node7 -->
<g id="edge6" class="edge">
<title>Node6&#45;&gt;Node7</title>
<path fill="none" stroke="midnightblue" d="M328.38,-129.24C309.06,-117.75 282.13,-101.72 265.8,-92.01"/>
<polygon fill="midnightblue" stroke="midnightblue" points="326.79,-132.37 337.17,-134.48 330.37,-126.35 326.79,-132.37"/>
</g>
<!-- Node8 -->
<g id="node8" class="node">
<title>Node8</title>
<g id="a_node8"><a xlink:href="qmewawindow_8cpp.html" target="_top" xlink:title=" ">
<polygon fill="none" stroke="black" points="336.5,-0.5 336.5,-30.5 452.5,-30.5 452.5,-0.5 336.5,-0.5"/>
<text text-anchor="start" x="344.5" y="-18.5" font-family="Helvetica,sans-Serif" font-size="10.00">src/platformabstraction</text>
<text text-anchor="middle" x="394.5" y="-7.5" font-family="Helvetica,sans-Serif" font-size="10.00">/qt/qmewawindow.cpp</text>
</a>
</g>
</g>
<!-- Node6&#45;&gt;Node8 -->
<g id="edge7" class="edge">
<title>Node6&#45;&gt;Node8</title>
<path fill="none" stroke="midnightblue" d="M355.05,-124.48C358.3,-108.9 363.63,-86.16 370.5,-67 375.02,-54.39 381.64,-40.7 386.79,-30.76"/>
<polygon fill="midnightblue" stroke="midnightblue" points="351.6,-123.91 353.07,-134.4 358.46,-125.28 351.6,-123.91"/>
</g>
<!-- Node9 -->
<g id="node9" class="node">
<title>Node9</title>
<g id="a_node9"><a xlink:href="qmewawindow_8h.html" target="_top" xlink:title=" ">
<polygon fill="none" stroke="black" points="379.5,-67.5 379.5,-97.5 495.5,-97.5 495.5,-67.5 379.5,-67.5"/>
<text text-anchor="start" x="387.5" y="-85.5" font-family="Helvetica,sans-Serif" font-size="10.00">src/platformabstraction</text>
<text text-anchor="middle" x="437.5" y="-74.5" font-family="Helvetica,sans-Serif" font-size="10.00">/qt/qmewawindow.h</text>
</a>
</g>
</g>
<!-- Node6&#45;&gt;Node9 -->
<g id="edge8" class="edge">
<title>Node6&#45;&gt;Node9</title>
<path fill="none" stroke="midnightblue" d="M372.11,-128.74C385.78,-119.28 403.63,-106.93 417.23,-97.52"/>
<polygon fill="midnightblue" stroke="midnightblue" points="370.05,-125.91 363.82,-134.48 374.04,-131.66 370.05,-125.91"/>
</g>
<!-- Node9&#45;&gt;Node8 -->
<g id="edge9" class="edge">
<title>Node9&#45;&gt;Node8</title>
<path fill="none" stroke="midnightblue" d="M422.53,-58.87C416.3,-49.46 409.27,-38.83 403.81,-30.58"/>
<polygon fill="midnightblue" stroke="midnightblue" points="419.73,-60.99 428.17,-67.4 425.57,-57.12 419.73,-60.99"/>
</g>
</g>
</svg>
