<?xml version="1.0" encoding="UTF-8" standalone="no"?>
<!DOCTYPE svg PUBLIC "-//W3C//DTD SVG 1.1//EN"
 "http://www.w3.org/Graphics/SVG/1.1/DTD/svg11.dtd">
<!-- Generated by graphviz version 2.44.0 ()
 -->
<!-- Title: src/geometry/mxrect.h Pages: 1 -->
<svg width="2345pt" height="363pt"
 viewBox="0.00 0.00 2345.00 363.00" xmlns="http://www.w3.org/2000/svg" xmlns:xlink="http://www.w3.org/1999/xlink">
<g id="graph0" class="graph" transform="scale(1 1) rotate(0) translate(4 359)">
<title>src/geometry/mxrect.h</title>
<!-- Node1 -->
<g id="node1" class="node">
<title>Node1</title>
<g id="a_node1"><a xlink:title=" ">
<polygon fill="#bfbfbf" stroke="black" points="1636.5,-335.5 1636.5,-354.5 1749.5,-354.5 1749.5,-335.5 1636.5,-335.5"/>
<text text-anchor="middle" x="1693" y="-342.5" font-family="Helvetica,sans-Serif" font-size="10.00">src/geometry/mxrect.h</text>
</a>
</g>
</g>
<!-- Node2 -->
<g id="node2" class="node">
<title>Node2</title>
<g id="a_node2"><a xlink:href="mxcolorwheelprogram_8h.html" target="_top" xlink:title=" ">
<polygon fill="none" stroke="black" points="258,-201.5 258,-231.5 380,-231.5 380,-201.5 258,-201.5"/>
<text text-anchor="start" x="266" y="-219.5" font-family="Helvetica,sans-Serif" font-size="10.00">src/gui/colorselector</text>
<text text-anchor="middle" x="319" y="-208.5" font-family="Helvetica,sans-Serif" font-size="10.00">/mxcolorwheelprogram.h</text>
</a>
</g>
</g>
<!-- Node1&#45;&gt;Node2 -->
<g id="edge1" class="edge">
<title>Node1&#45;&gt;Node2</title>
<path fill="none" stroke="midnightblue" d="M1626.2,-340.72C1434.02,-330.76 863.45,-297.43 394,-232 389.53,-231.38 384.93,-230.66 380.31,-229.9"/>
<polygon fill="midnightblue" stroke="midnightblue" points="1626.25,-344.23 1636.42,-341.25 1626.61,-337.24 1626.25,-344.23"/>
</g>
<!-- Node7 -->
<g id="node7" class="node">
<title>Node7</title>
<g id="a_node7"><a xlink:href="qmewawindow_8cpp.html" target="_top" xlink:title=" ">
<polygon fill="none" stroke="black" points="2044,-0.5 2044,-30.5 2160,-30.5 2160,-0.5 2044,-0.5"/>
<text text-anchor="start" x="2052" y="-18.5" font-family="Helvetica,sans-Serif" font-size="10.00">src/platformabstraction</text>
<text text-anchor="middle" x="2102" y="-7.5" font-family="Helvetica,sans-Serif" font-size="10.00">/qt/qmewawindow.cpp</text>
</a>
</g>
</g>
<!-- Node1&#45;&gt;Node7 -->
<g id="edge51" class="edge">
<title>Node1&#45;&gt;Node7</title>
<path fill="none" stroke="midnightblue" d="M1759.58,-342.3C1903.97,-336.8 2233,-313.71 2233,-217.5 2233,-217.5 2233,-217.5 2233,-148.5 2233,-91.84 2171.43,-50.83 2132.71,-30.64"/>
<polygon fill="midnightblue" stroke="midnightblue" points="1759.38,-338.8 1749.51,-342.66 1759.64,-345.8 1759.38,-338.8"/>
</g>
<!-- Node9 -->
<g id="node9" class="node">
<title>Node9</title>
<g id="a_node9"><a xlink:href="storewindow_2test__storebuttons_2testwindow_8cpp.html" target="_top" xlink:title=" ">
<polygon fill="none" stroke="black" points="2191,-0.5 2191,-30.5 2337,-30.5 2337,-0.5 2191,-0.5"/>
<text text-anchor="start" x="2199" y="-18.5" font-family="Helvetica,sans-Serif" font-size="10.00">src/storewindow/test</text>
<text text-anchor="middle" x="2264" y="-7.5" font-family="Helvetica,sans-Serif" font-size="10.00">_storebuttons/testwindow.cpp</text>
</a>
</g>
</g>
<!-- Node1&#45;&gt;Node9 -->
<g id="edge52" class="edge">
<title>Node1&#45;&gt;Node9</title>
<path fill="none" stroke="midnightblue" d="M1759.96,-342.53C1873.65,-339.24 2099.18,-329.04 2172,-299 2224.69,-277.27 2271,-274.49 2271,-217.5 2271,-217.5 2271,-217.5 2271,-148.5 2271,-105.59 2267.26,-54.93 2265.25,-30.75"/>
<polygon fill="midnightblue" stroke="midnightblue" points="1759.55,-339.04 1749.65,-342.82 1759.74,-346.04 1759.55,-339.04"/>
</g>
<!-- Node12 -->
<g id="node12" class="node">
<title>Node12</title>
<g id="a_node12"><a xlink:href="gui_2colorselector_2test__colorwheel_2testwindow_8cpp.html" target="_top" xlink:title=" ">
<polygon fill="none" stroke="black" points="1050,-0.5 1050,-30.5 1208,-30.5 1208,-0.5 1050,-0.5"/>
<text text-anchor="start" x="1058" y="-18.5" font-family="Helvetica,sans-Serif" font-size="10.00">src/gui/colorselector</text>
<text text-anchor="middle" x="1129" y="-7.5" font-family="Helvetica,sans-Serif" font-size="10.00">/test_colorwheel/testwindow.cpp</text>
</a>
</g>
</g>
<!-- Node1&#45;&gt;Node12 -->
<g id="edge20" class="edge">
<title>Node1&#45;&gt;Node12</title>
<path fill="none" stroke="midnightblue" d="M1697.74,-325.68C1706.94,-285.45 1722.34,-188.63 1674,-134 1613.27,-65.36 1344.15,-33.97 1208.19,-22.29"/>
<polygon fill="midnightblue" stroke="midnightblue" points="1694.32,-324.9 1695.36,-335.44 1701.13,-326.55 1694.32,-324.9"/>
</g>
<!-- Node20 -->
<g id="node20" class="node">
<title>Node20</title>
<g id="a_node20"><a xlink:href="mxwidget_8h.html" target="_top" xlink:title=" ">
<polygon fill="none" stroke="black" points="1875,-274 1875,-293 1973,-293 1973,-274 1875,-274"/>
<text text-anchor="middle" x="1924" y="-281" font-family="Helvetica,sans-Serif" font-size="10.00">src/gui/mxwidget.h</text>
</a>
</g>
</g>
<!-- Node1&#45;&gt;Node20 -->
<g id="edge21" class="edge">
<title>Node1&#45;&gt;Node20</title>
<path fill="none" stroke="midnightblue" d="M1735.83,-332.97C1780.68,-321.41 1850.17,-303.52 1890.96,-293.01"/>
<polygon fill="midnightblue" stroke="midnightblue" points="1734.91,-329.59 1726.1,-335.48 1736.65,-336.37 1734.91,-329.59"/>
</g>
<!-- Node27 -->
<g id="node27" class="node">
<title>Node27</title>
<g id="a_node27"><a xlink:href="mxtextdraw_8h.html" target="_top" xlink:title=" ">
<polygon fill="none" stroke="black" points="1514,-274 1514,-293 1660,-293 1660,-274 1514,-274"/>
<text text-anchor="middle" x="1587" y="-281" font-family="Helvetica,sans-Serif" font-size="10.00">src/gui/textdraw/mxtextdraw.h</text>
</a>
</g>
</g>
<!-- Node1&#45;&gt;Node27 -->
<g id="edge30" class="edge">
<title>Node1&#45;&gt;Node27</title>
<path fill="none" stroke="midnightblue" d="M1669.05,-330.56C1648.54,-319.04 1619.62,-302.81 1602.16,-293.01"/>
<polygon fill="midnightblue" stroke="midnightblue" points="1667.38,-333.63 1677.81,-335.48 1670.81,-327.53 1667.38,-333.63"/>
</g>
<!-- Node30 -->
<g id="node30" class="node">
<title>Node30</title>
<g id="a_node30"><a xlink:href="mxvectordraw_8h.html" target="_top" xlink:title=" ">
<polygon fill="none" stroke="black" points="1248.5,-268.5 1248.5,-298.5 1345.5,-298.5 1345.5,-268.5 1248.5,-268.5"/>
<text text-anchor="start" x="1256.5" y="-286.5" font-family="Helvetica,sans-Serif" font-size="10.00">src/gui/vectordraw</text>
<text text-anchor="middle" x="1297" y="-275.5" font-family="Helvetica,sans-Serif" font-size="10.00">/mxvectordraw.h</text>
</a>
</g>
</g>
<!-- Node1&#45;&gt;Node30 -->
<g id="edge37" class="edge">
<title>Node1&#45;&gt;Node30</title>
<path fill="none" stroke="midnightblue" d="M1626.36,-333.99C1546.9,-322.05 1416.01,-302.38 1345.54,-291.79"/>
<polygon fill="midnightblue" stroke="midnightblue" points="1625.85,-337.45 1636.26,-335.48 1626.89,-330.53 1625.85,-337.45"/>
</g>
<!-- Node3 -->
<g id="node3" class="node">
<title>Node3</title>
<g id="a_node3"><a xlink:href="mxcolorwheelprogram_8cpp.html" target="_top" xlink:title=" ">
<polygon fill="none" stroke="black" points="0,-67.5 0,-97.5 132,-97.5 132,-67.5 0,-67.5"/>
<text text-anchor="start" x="8" y="-85.5" font-family="Helvetica,sans-Serif" font-size="10.00">src/gui/colorselector</text>
<text text-anchor="middle" x="66" y="-74.5" font-family="Helvetica,sans-Serif" font-size="10.00">/mxcolorwheelprogram.cpp</text>
</a>
</g>
</g>
<!-- Node2&#45;&gt;Node3 -->
<g id="edge2" class="edge">
<title>Node2&#45;&gt;Node3</title>
<path fill="none" stroke="midnightblue" d="M282.84,-196.63C231.48,-169.84 138.59,-121.37 92.88,-97.52"/>
<polygon fill="midnightblue" stroke="midnightblue" points="281.44,-199.85 291.92,-201.37 284.68,-193.64 281.44,-199.85"/>
</g>
<!-- Node4 -->
<g id="node4" class="node">
<title>Node4</title>
<g id="a_node4"><a xlink:href="mxrenderer_8h.html" target="_top" xlink:title=" ">
<polygon fill="none" stroke="black" points="436.5,-140 436.5,-159 579.5,-159 579.5,-140 436.5,-140"/>
<text text-anchor="middle" x="508" y="-147" font-family="Helvetica,sans-Serif" font-size="10.00">src/gui/renderer/mxrenderer.h</text>
</a>
</g>
</g>
<!-- Node2&#45;&gt;Node4 -->
<g id="edge3" class="edge">
<title>Node2&#45;&gt;Node4</title>
<path fill="none" stroke="midnightblue" d="M369.57,-198.11C406.34,-185.46 454.52,-168.89 483.26,-159.01"/>
<polygon fill="midnightblue" stroke="midnightblue" points="368.33,-194.83 360.01,-201.4 370.6,-201.45 368.33,-194.83"/>
</g>
<!-- Node4&#45;&gt;Node3 -->
<g id="edge9" class="edge">
<title>Node4&#45;&gt;Node3</title>
<path fill="none" stroke="midnightblue" d="M427.57,-138.71C353.09,-129.34 239.33,-114.26 141,-98 138.12,-97.52 135.18,-97.02 132.22,-96.5"/>
<polygon fill="midnightblue" stroke="midnightblue" points="427.46,-142.22 437.81,-139.99 428.33,-135.27 427.46,-142.22"/>
</g>
<!-- Node5 -->
<g id="node5" class="node">
<title>Node5</title>
<g id="a_node5"><a xlink:href="mxapplication_8h.html" target="_top" xlink:title=" ">
<polygon fill="none" stroke="black" points="1657,-73 1657,-92 1789,-92 1789,-73 1657,-73"/>
<text text-anchor="middle" x="1723" y="-80" font-family="Helvetica,sans-Serif" font-size="10.00">src/events/mxapplication.h</text>
</a>
</g>
</g>
<!-- Node4&#45;&gt;Node5 -->
<g id="edge4" class="edge">
<title>Node4&#45;&gt;Node5</title>
<path fill="none" stroke="midnightblue" d="M580.36,-138.72C595.42,-136.94 611.21,-135.25 626,-134 828.09,-116.96 1451.93,-93.36 1656.95,-85.88"/>
<polygon fill="midnightblue" stroke="midnightblue" points="579.57,-135.29 570.07,-139.97 580.42,-142.24 579.57,-135.29"/>
</g>
<!-- Node10 -->
<g id="node10" class="node">
<title>Node10</title>
<g id="a_node10"><a xlink:href="gui_2colorselector_2test__colorwheel_2testwindow_8h.html" target="_top" xlink:title=" ">
<polygon fill="none" stroke="black" points="438,-67.5 438,-97.5 586,-97.5 586,-67.5 438,-67.5"/>
<text text-anchor="start" x="446" y="-85.5" font-family="Helvetica,sans-Serif" font-size="10.00">src/gui/colorselector</text>
<text text-anchor="middle" x="512" y="-74.5" font-family="Helvetica,sans-Serif" font-size="10.00">/test_colorwheel/testwindow.h</text>
</a>
</g>
</g>
<!-- Node4&#45;&gt;Node10 -->
<g id="edge10" class="edge">
<title>Node4&#45;&gt;Node10</title>
<path fill="none" stroke="midnightblue" d="M509.15,-129.74C509.79,-119.49 510.55,-107 511.13,-97.59"/>
<polygon fill="midnightblue" stroke="midnightblue" points="505.66,-129.54 508.54,-139.73 512.65,-129.97 505.66,-129.54"/>
</g>
<!-- Node13 -->
<g id="node13" class="node">
<title>Node13</title>
<g id="a_node13"><a xlink:href="gpubuffer_8cpp.html" target="_top" xlink:title=" ">
<polygon fill="none" stroke="black" points="604.5,-73 604.5,-92 711.5,-92 711.5,-73 604.5,-73"/>
<text text-anchor="middle" x="658" y="-80" font-family="Helvetica,sans-Serif" font-size="10.00">src/gui/gpubuffer.cpp</text>
</a>
</g>
</g>
<!-- Node4&#45;&gt;Node13 -->
<g id="edge13" class="edge">
<title>Node4&#45;&gt;Node13</title>
<path fill="none" stroke="midnightblue" d="M537.35,-135.78C567.06,-122.91 612.18,-103.35 638,-92.17"/>
<polygon fill="midnightblue" stroke="midnightblue" points="535.7,-132.68 527.92,-139.87 538.49,-139.1 535.7,-132.68"/>
</g>
<!-- Node14 -->
<g id="node14" class="node">
<title>Node14</title>
<g id="a_node14"><a xlink:href="gpuvbo_8cpp.html" target="_top" xlink:title=" ">
<polygon fill="none" stroke="black" points="729,-73 729,-92 827,-92 827,-73 729,-73"/>
<text text-anchor="middle" x="778" y="-80" font-family="Helvetica,sans-Serif" font-size="10.00">src/gui/gpuvbo.cpp</text>
</a>
</g>
</g>
<!-- Node4&#45;&gt;Node14 -->
<g id="edge14" class="edge">
<title>Node4&#45;&gt;Node14</title>
<path fill="none" stroke="midnightblue" d="M554.3,-137.63C597.27,-127.5 663,-111.91 720,-98 727.76,-96.1 736.1,-94.04 743.97,-92.07"/>
<polygon fill="midnightblue" stroke="midnightblue" points="553.35,-134.26 544.42,-139.96 554.95,-141.07 553.35,-134.26"/>
</g>
<!-- Node15 -->
<g id="node15" class="node">
<title>Node15</title>
<g id="a_node15"><a xlink:href="mxpainter_8cpp.html" target="_top" xlink:title=" ">
<polygon fill="none" stroke="black" points="1142.5,-73 1142.5,-92 1251.5,-92 1251.5,-73 1142.5,-73"/>
<text text-anchor="middle" x="1197" y="-80" font-family="Helvetica,sans-Serif" font-size="10.00">src/gui/mxpainter.cpp</text>
</a>
</g>
</g>
<!-- Node4&#45;&gt;Node15 -->
<g id="edge15" class="edge">
<title>Node4&#45;&gt;Node15</title>
<path fill="none" stroke="midnightblue" d="M582.85,-138.72C597.16,-137.02 612.03,-135.36 626,-134 849.08,-112.33 907.09,-129.45 1129,-98 1139.64,-96.49 1151.1,-94.28 1161.52,-92.04"/>
<polygon fill="midnightblue" stroke="midnightblue" points="582.05,-135.29 572.55,-139.97 582.89,-142.24 582.05,-135.29"/>
</g>
<!-- Node16 -->
<g id="node16" class="node">
<title>Node16</title>
<g id="a_node16"><a xlink:href="mxshaderprogram_8cpp.html" target="_top" xlink:title=" ">
<polygon fill="none" stroke="black" points="845,-73 845,-92 989,-92 989,-73 845,-73"/>
<text text-anchor="middle" x="917" y="-80" font-family="Helvetica,sans-Serif" font-size="10.00">src/gui/mxshaderprogram.cpp</text>
</a>
</g>
</g>
<!-- Node4&#45;&gt;Node16 -->
<g id="edge16" class="edge">
<title>Node4&#45;&gt;Node16</title>
<path fill="none" stroke="midnightblue" d="M567.47,-138.32C576.36,-136.84 585.42,-135.36 594,-134 701.4,-116.96 728.69,-115.58 836,-98 847.28,-96.15 859.42,-94.04 870.78,-92.02"/>
<polygon fill="midnightblue" stroke="midnightblue" points="566.83,-134.88 557.54,-139.98 567.98,-141.78 566.83,-134.88"/>
</g>
<!-- Node17 -->
<g id="node17" class="node">
<title>Node17</title>
<g id="a_node17"><a xlink:href="mxrenderer_8cpp.html" target="_top" xlink:title=" ">
<polygon fill="none" stroke="black" points="266.5,-73 266.5,-92 419.5,-92 419.5,-73 266.5,-73"/>
<text text-anchor="middle" x="343" y="-80" font-family="Helvetica,sans-Serif" font-size="10.00">src/gui/renderer/mxrenderer.cpp</text>
</a>
</g>
</g>
<!-- Node4&#45;&gt;Node17 -->
<g id="edge17" class="edge">
<title>Node4&#45;&gt;Node17</title>
<path fill="none" stroke="midnightblue" d="M476.53,-136.1C443.77,-123.2 393.33,-103.33 364.74,-92.06"/>
<polygon fill="midnightblue" stroke="midnightblue" points="475.5,-139.46 486.09,-139.87 478.07,-132.95 475.5,-139.46"/>
</g>
<!-- Node18 -->
<g id="node18" class="node">
<title>Node18</title>
<g id="a_node18"><a xlink:href="mxvectordraw_8cpp.html" target="_top" xlink:title=" ">
<polygon fill="none" stroke="black" points="150,-67.5 150,-97.5 248,-97.5 248,-67.5 150,-67.5"/>
<text text-anchor="start" x="158" y="-85.5" font-family="Helvetica,sans-Serif" font-size="10.00">src/gui/vectordraw</text>
<text text-anchor="middle" x="199" y="-74.5" font-family="Helvetica,sans-Serif" font-size="10.00">/mxvectordraw.cpp</text>
</a>
</g>
</g>
<!-- Node4&#45;&gt;Node18 -->
<g id="edge18" class="edge">
<title>Node4&#45;&gt;Node18</title>
<path fill="none" stroke="midnightblue" d="M452.23,-138.05C401.26,-128.32 323.87,-113.08 257,-98 254.06,-97.34 251.05,-96.64 248.01,-95.92"/>
<polygon fill="midnightblue" stroke="midnightblue" points="451.58,-141.49 462.06,-139.92 452.89,-134.61 451.58,-141.49"/>
</g>
<!-- Node19 -->
<g id="node19" class="node">
<title>Node19</title>
<g id="a_node19"><a xlink:href="mxvectorprogram_8cpp.html" target="_top" xlink:title=" ">
<polygon fill="none" stroke="black" points="1007.5,-67.5 1007.5,-97.5 1120.5,-97.5 1120.5,-67.5 1007.5,-67.5"/>
<text text-anchor="start" x="1015.5" y="-85.5" font-family="Helvetica,sans-Serif" font-size="10.00">src/gui/vectordraw</text>
<text text-anchor="middle" x="1064" y="-74.5" font-family="Helvetica,sans-Serif" font-size="10.00">/mxvectorprogram.cpp</text>
</a>
</g>
</g>
<!-- Node4&#45;&gt;Node19 -->
<g id="edge19" class="edge">
<title>Node4&#45;&gt;Node19</title>
<path fill="none" stroke="midnightblue" d="M564.77,-138.28C574.5,-136.72 584.53,-135.22 594,-134 772.79,-111 819.83,-125.4 998,-98 1001.01,-97.54 1004.1,-97.02 1007.2,-96.46"/>
<polygon fill="midnightblue" stroke="midnightblue" points="564.06,-134.85 554.77,-139.93 565.2,-141.76 564.06,-134.85"/>
</g>
<!-- Node6 -->
<g id="node6" class="node">
<title>Node6</title>
<g id="a_node6"><a xlink:href="mxapplication_8cpp.html" target="_top" xlink:title=" ">
<polygon fill="none" stroke="black" points="1857.5,-6 1857.5,-25 2000.5,-25 2000.5,-6 1857.5,-6"/>
<text text-anchor="middle" x="1929" y="-13" font-family="Helvetica,sans-Serif" font-size="10.00">src/events/mxapplication.cpp</text>
</a>
</g>
</g>
<!-- Node5&#45;&gt;Node6 -->
<g id="edge5" class="edge">
<title>Node5&#45;&gt;Node6</title>
<path fill="none" stroke="midnightblue" d="M1759.93,-69.85C1800.73,-56.97 1865.47,-36.55 1901.86,-25.06"/>
<polygon fill="midnightblue" stroke="midnightblue" points="1758.84,-66.52 1750.36,-72.87 1760.94,-73.2 1758.84,-66.52"/>
</g>
<!-- Node5&#45;&gt;Node7 -->
<g id="edge6" class="edge">
<title>Node5&#45;&gt;Node7</title>
<path fill="none" stroke="midnightblue" d="M1776.1,-71.05C1783.45,-69.66 1790.91,-68.27 1798,-67 1883.44,-51.65 1982.69,-35.47 2043.93,-25.68"/>
<polygon fill="midnightblue" stroke="midnightblue" points="1775.36,-67.63 1766.19,-72.95 1776.67,-74.51 1775.36,-67.63"/>
</g>
<!-- Node8 -->
<g id="node8" class="node">
<title>Node8</title>
<g id="a_node8"><a xlink:href="storewindow_2test__storebuttons_2main_8cpp.html" target="_top" xlink:title=" ">
<polygon fill="none" stroke="black" points="1670,-0.5 1670,-30.5 1788,-30.5 1788,-0.5 1670,-0.5"/>
<text text-anchor="start" x="1678" y="-18.5" font-family="Helvetica,sans-Serif" font-size="10.00">src/storewindow/test</text>
<text text-anchor="middle" x="1729" y="-7.5" font-family="Helvetica,sans-Serif" font-size="10.00">_storebuttons/main.cpp</text>
</a>
</g>
</g>
<!-- Node5&#45;&gt;Node8 -->
<g id="edge7" class="edge">
<title>Node5&#45;&gt;Node8</title>
<path fill="none" stroke="midnightblue" d="M1724.73,-62.74C1725.68,-52.49 1726.83,-40 1727.7,-30.59"/>
<polygon fill="midnightblue" stroke="midnightblue" points="1721.24,-62.45 1723.81,-72.73 1728.21,-63.1 1721.24,-62.45"/>
</g>
<!-- Node5&#45;&gt;Node9 -->
<g id="edge8" class="edge">
<title>Node5&#45;&gt;Node9</title>
<path fill="none" stroke="midnightblue" d="M1773.26,-71.11C1781.51,-69.6 1789.98,-68.16 1798,-67 1961.95,-43.25 2004.61,-51.51 2169,-31 2176.12,-30.11 2183.53,-29.11 2190.93,-28.07"/>
<polygon fill="midnightblue" stroke="midnightblue" points="1772.54,-67.68 1763.36,-72.97 1773.84,-74.56 1772.54,-67.68"/>
</g>
<!-- Node11 -->
<g id="node11" class="node">
<title>Node11</title>
<g id="a_node11"><a xlink:href="gui_2colorselector_2test__colorwheel_2main_8cpp.html" target="_top" xlink:title=" ">
<polygon fill="none" stroke="black" points="447,-0.5 447,-30.5 577,-30.5 577,-0.5 447,-0.5"/>
<text text-anchor="start" x="455" y="-18.5" font-family="Helvetica,sans-Serif" font-size="10.00">src/gui/colorselector</text>
<text text-anchor="middle" x="512" y="-7.5" font-family="Helvetica,sans-Serif" font-size="10.00">/test_colorwheel/main.cpp</text>
</a>
</g>
</g>
<!-- Node10&#45;&gt;Node11 -->
<g id="edge11" class="edge">
<title>Node10&#45;&gt;Node11</title>
<path fill="none" stroke="midnightblue" d="M512,-57.11C512,-48.15 512,-38.32 512,-30.58"/>
<polygon fill="midnightblue" stroke="midnightblue" points="508.5,-57.4 512,-67.4 515.5,-57.4 508.5,-57.4"/>
</g>
<!-- Node10&#45;&gt;Node12 -->
<g id="edge12" class="edge">
<title>Node10&#45;&gt;Node12</title>
<path fill="none" stroke="midnightblue" d="M596.13,-66.91C763.18,-44.78 947.16,-29.65 1049.61,-22.05"/>
<polygon fill="midnightblue" stroke="midnightblue" points="595.62,-63.45 586.17,-68.25 596.54,-70.39 595.62,-63.45"/>
</g>
<!-- Node20&#45;&gt;Node6 -->
<g id="edge22" class="edge">
<title>Node20&#45;&gt;Node6</title>
<path fill="none" stroke="midnightblue" d="M1961.94,-270.01C1979.56,-262.08 1998.83,-249.87 2009,-232 2045.56,-167.75 2027,-129.8 1988,-67 1976.76,-48.9 1956.92,-33.91 1943.38,-25.08"/>
<polygon fill="midnightblue" stroke="midnightblue" points="1960.27,-266.91 1952.38,-273.98 1962.96,-273.37 1960.27,-266.91"/>
</g>
<!-- Node21 -->
<g id="node21" class="node">
<title>Node21</title>
<g id="a_node21"><a xlink:href="mxmouseevent_8cpp.html" target="_top" xlink:title=" ">
<polygon fill="none" stroke="black" points="2056.5,-207 2056.5,-226 2205.5,-226 2205.5,-207 2056.5,-207"/>
<text text-anchor="middle" x="2131" y="-214" font-family="Helvetica,sans-Serif" font-size="10.00">src/events/mxmouseevent.cpp</text>
</a>
</g>
</g>
<!-- Node20&#45;&gt;Node21 -->
<g id="edge23" class="edge">
<title>Node20&#45;&gt;Node21</title>
<path fill="none" stroke="midnightblue" d="M1961.11,-270.85C2002.11,-257.97 2067.16,-237.55 2103.73,-226.06"/>
<polygon fill="midnightblue" stroke="midnightblue" points="1959.98,-267.53 1951.49,-273.87 1962.08,-274.21 1959.98,-267.53"/>
</g>
<!-- Node22 -->
<g id="node22" class="node">
<title>Node22</title>
<g id="a_node22"><a xlink:href="mxwidget_8cpp.html" target="_top" xlink:title=" ">
<polygon fill="none" stroke="black" points="1721,-207 1721,-226 1829,-226 1829,-207 1721,-207"/>
<text text-anchor="middle" x="1775" y="-214" font-family="Helvetica,sans-Serif" font-size="10.00">src/gui/mxwidget.cpp</text>
</a>
</g>
</g>
<!-- Node20&#45;&gt;Node22 -->
<g id="edge24" class="edge">
<title>Node20&#45;&gt;Node22</title>
<path fill="none" stroke="midnightblue" d="M1894.84,-269.78C1865.34,-256.91 1820.51,-237.35 1794.87,-226.17"/>
<polygon fill="midnightblue" stroke="midnightblue" points="1893.65,-273.08 1904.21,-273.87 1896.45,-266.66 1893.65,-273.08"/>
</g>
<!-- Node23 -->
<g id="node23" class="node">
<title>Node23</title>
<g id="a_node23"><a xlink:href="mxstoreview_8h.html" target="_top" xlink:title=" ">
<polygon fill="none" stroke="black" points="1847.5,-207 1847.5,-226 2000.5,-226 2000.5,-207 1847.5,-207"/>
<text text-anchor="middle" x="1924" y="-214" font-family="Helvetica,sans-Serif" font-size="10.00">src/storewindow/mxstoreview.h</text>
</a>
</g>
</g>
<!-- Node20&#45;&gt;Node23 -->
<g id="edge25" class="edge">
<title>Node20&#45;&gt;Node23</title>
<path fill="none" stroke="midnightblue" d="M1924,-263.54C1924,-251.17 1924,-235.62 1924,-226.13"/>
<polygon fill="midnightblue" stroke="midnightblue" points="1920.5,-263.73 1924,-273.73 1927.5,-263.73 1920.5,-263.73"/>
</g>
<!-- Node24 -->
<g id="node24" class="node">
<title>Node24</title>
<g id="a_node24"><a xlink:href="mxstoreview_8cpp.html" target="_top" xlink:title=" ">
<polygon fill="none" stroke="black" points="1501,-140 1501,-159 1665,-159 1665,-140 1501,-140"/>
<text text-anchor="middle" x="1583" y="-147" font-family="Helvetica,sans-Serif" font-size="10.00">src/storewindow/mxstoreview.cpp</text>
</a>
</g>
</g>
<!-- Node23&#45;&gt;Node24 -->
<g id="edge26" class="edge">
<title>Node23&#45;&gt;Node24</title>
<path fill="none" stroke="midnightblue" d="M1869.11,-205.04C1802.04,-192.25 1689.85,-170.87 1627.76,-159.03"/>
<polygon fill="midnightblue" stroke="midnightblue" points="1868.59,-208.5 1879.07,-206.94 1869.9,-201.62 1868.59,-208.5"/>
</g>
<!-- Node25 -->
<g id="node25" class="node">
<title>Node25</title>
<g id="a_node25"><a xlink:href="teststoreview_8h.html" target="_top" xlink:title=" ">
<polygon fill="none" stroke="black" points="1851.5,-134.5 1851.5,-164.5 1996.5,-164.5 1996.5,-134.5 1851.5,-134.5"/>
<text text-anchor="start" x="1859.5" y="-152.5" font-family="Helvetica,sans-Serif" font-size="10.00">src/storewindow/test</text>
<text text-anchor="middle" x="1924" y="-141.5" font-family="Helvetica,sans-Serif" font-size="10.00">_storebuttons/teststoreview.h</text>
</a>
</g>
</g>
<!-- Node23&#45;&gt;Node25 -->
<g id="edge27" class="edge">
<title>Node23&#45;&gt;Node25</title>
<path fill="none" stroke="midnightblue" d="M1924,-196.41C1924,-186.22 1924,-173.9 1924,-164.59"/>
<polygon fill="midnightblue" stroke="midnightblue" points="1920.5,-196.73 1924,-206.73 1927.5,-196.73 1920.5,-196.73"/>
</g>
<!-- Node25&#45;&gt;Node8 -->
<g id="edge28" class="edge">
<title>Node25&#45;&gt;Node8</title>
<path fill="none" stroke="midnightblue" d="M1949.91,-127.5C1967.97,-110.31 1986.33,-85.85 1971,-67 1959.46,-52.8 1855.95,-35.12 1788.09,-24.89"/>
<polygon fill="midnightblue" stroke="midnightblue" points="1947.36,-125.08 1942.28,-134.38 1952.05,-130.28 1947.36,-125.08"/>
</g>
<!-- Node26 -->
<g id="node26" class="node">
<title>Node26</title>
<g id="a_node26"><a xlink:href="teststoreview_8cpp.html" target="_top" xlink:title=" ">
<polygon fill="none" stroke="black" points="1807.5,-67.5 1807.5,-97.5 1962.5,-97.5 1962.5,-67.5 1807.5,-67.5"/>
<text text-anchor="start" x="1815.5" y="-85.5" font-family="Helvetica,sans-Serif" font-size="10.00">src/storewindow/test</text>
<text text-anchor="middle" x="1885" y="-74.5" font-family="Helvetica,sans-Serif" font-size="10.00">_storebuttons/teststoreview.cpp</text>
</a>
</g>
</g>
<!-- Node25&#45;&gt;Node26 -->
<g id="edge29" class="edge">
<title>Node25&#45;&gt;Node26</title>
<path fill="none" stroke="midnightblue" d="M1910.25,-125.58C1904.64,-116.24 1898.35,-105.75 1893.45,-97.58"/>
<polygon fill="midnightblue" stroke="midnightblue" points="1907.39,-127.62 1915.54,-134.4 1913.39,-124.02 1907.39,-127.62"/>
</g>
<!-- Node28 -->
<g id="node28" class="node">
<title>Node28</title>
<g id="a_node28"><a xlink:href="mxpainter_8h.html" target="_top" xlink:title=" ">
<polygon fill="none" stroke="black" points="1355,-207 1355,-226 1453,-226 1453,-207 1355,-207"/>
<text text-anchor="middle" x="1404" y="-214" font-family="Helvetica,sans-Serif" font-size="10.00">src/gui/mxpainter.h</text>
</a>
</g>
</g>
<!-- Node27&#45;&gt;Node28 -->
<g id="edge31" class="edge">
<title>Node27&#45;&gt;Node28</title>
<path fill="none" stroke="midnightblue" d="M1553.04,-270.44C1516.73,-257.54 1460.09,-237.42 1428.11,-226.06"/>
<polygon fill="midnightblue" stroke="midnightblue" points="1552.1,-273.82 1562.7,-273.87 1554.45,-267.22 1552.1,-273.82"/>
</g>
<!-- Node29 -->
<g id="node29" class="node">
<title>Node29</title>
<g id="a_node29"><a xlink:href="mxtextdraw_8cpp.html" target="_top" xlink:title=" ">
<polygon fill="none" stroke="black" points="1509,-207 1509,-226 1665,-226 1665,-207 1509,-207"/>
<text text-anchor="middle" x="1587" y="-214" font-family="Helvetica,sans-Serif" font-size="10.00">src/gui/textdraw/mxtextdraw.cpp</text>
</a>
</g>
</g>
<!-- Node27&#45;&gt;Node29 -->
<g id="edge36" class="edge">
<title>Node27&#45;&gt;Node29</title>
<path fill="none" stroke="midnightblue" d="M1587,-263.54C1587,-251.17 1587,-235.62 1587,-226.13"/>
<polygon fill="midnightblue" stroke="midnightblue" points="1583.5,-263.73 1587,-273.73 1590.5,-263.73 1583.5,-263.73"/>
</g>
<!-- Node28&#45;&gt;Node5 -->
<g id="edge32" class="edge">
<title>Node28&#45;&gt;Node5</title>
<path fill="none" stroke="midnightblue" d="M1411.07,-197.64C1419.53,-178.71 1435.56,-149.46 1459,-134 1490.84,-113 1589.7,-98.22 1656.98,-90.29"/>
<polygon fill="midnightblue" stroke="midnightblue" points="1407.81,-196.37 1407.15,-206.94 1414.26,-199.09 1407.81,-196.37"/>
</g>
<!-- Node28&#45;&gt;Node15 -->
<g id="edge33" class="edge">
<title>Node28&#45;&gt;Node15</title>
<path fill="none" stroke="midnightblue" d="M1402.76,-196.89C1400.54,-178.41 1394.32,-150.54 1377,-134 1343.43,-101.95 1291.2,-89.95 1251.63,-85.6"/>
<polygon fill="midnightblue" stroke="midnightblue" points="1399.29,-197.35 1403.7,-206.99 1406.26,-196.71 1399.29,-197.35"/>
</g>
<!-- Node28&#45;&gt;Node24 -->
<g id="edge34" class="edge">
<title>Node28&#45;&gt;Node24</title>
<path fill="none" stroke="midnightblue" d="M1437.22,-203.44C1472.73,-190.54 1528.13,-170.42 1559.42,-159.06"/>
<polygon fill="midnightblue" stroke="midnightblue" points="1435.97,-200.17 1427.77,-206.87 1438.36,-206.75 1435.97,-200.17"/>
</g>
<!-- Node28&#45;&gt;Node26 -->
<g id="edge35" class="edge">
<title>Node28&#45;&gt;Node26</title>
<path fill="none" stroke="midnightblue" d="M1420.93,-200.05C1431.83,-190.08 1446.28,-176.81 1459,-165 1473.74,-151.31 1473.76,-142.49 1492,-134 1616.15,-76.21 1662.42,-117.26 1798,-98 1801.03,-97.57 1804.12,-97.12 1807.24,-96.65"/>
<polygon fill="midnightblue" stroke="midnightblue" points="1418.39,-197.62 1413.37,-206.95 1423.11,-202.79 1418.39,-197.62"/>
</g>
<!-- Node30&#45;&gt;Node18 -->
<g id="edge46" class="edge">
<title>Node30&#45;&gt;Node18</title>
<path fill="none" stroke="midnightblue" d="M1238.24,-281.07C1085.5,-276.95 678.8,-263.29 548,-232 420.24,-201.44 279.66,-128.32 223.83,-97.54"/>
<polygon fill="midnightblue" stroke="midnightblue" points="1238.27,-284.57 1248.36,-281.34 1238.45,-277.57 1238.27,-284.57"/>
</g>
<!-- Node30&#45;&gt;Node24 -->
<g id="edge50" class="edge">
<title>Node30&#45;&gt;Node24</title>
<path fill="none" stroke="midnightblue" d="M1355.35,-270.5C1387.94,-262.38 1428.6,-249.85 1462,-232 1481.22,-221.73 1482.2,-213.58 1500,-201 1522.72,-184.93 1550.64,-168.6 1567.61,-159.02"/>
<polygon fill="midnightblue" stroke="midnightblue" points="1354.41,-267.13 1345.51,-272.88 1356.05,-273.93 1354.41,-267.13"/>
</g>
<!-- Node30&#45;&gt;Node28 -->
<g id="edge38" class="edge">
<title>Node30&#45;&gt;Node28</title>
<path fill="none" stroke="midnightblue" d="M1328.87,-263.14C1349.2,-250.79 1374.55,-235.39 1390,-226.01"/>
<polygon fill="midnightblue" stroke="midnightblue" points="1326.95,-260.21 1320.22,-268.4 1330.58,-266.2 1326.95,-260.21"/>
</g>
<!-- Node31 -->
<g id="node31" class="node">
<title>Node31</title>
<g id="a_node31"><a xlink:href="mxsvgpainter_8cpp.html" target="_top" xlink:title=" ">
<polygon fill="none" stroke="black" points="1225.5,-140 1225.5,-159 1368.5,-159 1368.5,-140 1225.5,-140"/>
<text text-anchor="middle" x="1297" y="-147" font-family="Helvetica,sans-Serif" font-size="10.00">src/gui/svg/mxsvgpainter.cpp</text>
</a>
</g>
</g>
<!-- Node30&#45;&gt;Node31 -->
<g id="edge39" class="edge">
<title>Node30&#45;&gt;Node31</title>
<path fill="none" stroke="midnightblue" d="M1297,-258.32C1297,-228.38 1297,-178.91 1297,-159.1"/>
<polygon fill="midnightblue" stroke="midnightblue" points="1293.5,-258.37 1297,-268.37 1300.5,-258.37 1293.5,-258.37"/>
</g>
<!-- Node32 -->
<g id="node32" class="node">
<title>Node32</title>
<g id="a_node32"><a xlink:href="mxsvgpainter_8h.html" target="_top" xlink:title=" ">
<polygon fill="none" stroke="black" points="1072.5,-207 1072.5,-226 1205.5,-226 1205.5,-207 1072.5,-207"/>
<text text-anchor="middle" x="1139" y="-214" font-family="Helvetica,sans-Serif" font-size="10.00">src/gui/svg/mxsvgpainter.h</text>
</a>
</g>
</g>
<!-- Node30&#45;&gt;Node32 -->
<g id="edge40" class="edge">
<title>Node30&#45;&gt;Node32</title>
<path fill="none" stroke="midnightblue" d="M1253.15,-264.46C1222.62,-251.9 1183.3,-235.72 1159.68,-226.01"/>
<polygon fill="midnightblue" stroke="midnightblue" points="1252.14,-267.83 1262.72,-268.4 1254.8,-261.35 1252.14,-267.83"/>
</g>
<!-- Node36 -->
<g id="node36" class="node">
<title>Node36</title>
<g id="a_node36"><a xlink:href="mxvectorprogram_8h.html" target="_top" xlink:title=" ">
<polygon fill="none" stroke="black" points="557,-201.5 557,-231.5 659,-231.5 659,-201.5 557,-201.5"/>
<text text-anchor="start" x="565" y="-219.5" font-family="Helvetica,sans-Serif" font-size="10.00">src/gui/vectordraw</text>
<text text-anchor="middle" x="608" y="-208.5" font-family="Helvetica,sans-Serif" font-size="10.00">/mxvectorprogram.h</text>
</a>
</g>
</g>
<!-- Node30&#45;&gt;Node36 -->
<g id="edge47" class="edge">
<title>Node30&#45;&gt;Node36</title>
<path fill="none" stroke="midnightblue" d="M1238.29,-276.96C1105.58,-264.44 784.31,-234.13 659.13,-222.32"/>
<polygon fill="midnightblue" stroke="midnightblue" points="1237.99,-280.45 1248.28,-277.9 1238.65,-273.48 1237.99,-280.45"/>
</g>
<!-- Node32&#45;&gt;Node15 -->
<g id="edge41" class="edge">
<title>Node32&#45;&gt;Node15</title>
<path fill="none" stroke="midnightblue" d="M1153.94,-199.22C1161.84,-189.83 1171.1,-177.45 1177,-165 1188.74,-140.25 1194.02,-107.9 1196,-92.46"/>
<polygon fill="midnightblue" stroke="midnightblue" points="1151.16,-197.09 1147.21,-206.92 1156.43,-201.7 1151.16,-197.09"/>
</g>
<!-- Node32&#45;&gt;Node31 -->
<g id="edge42" class="edge">
<title>Node32&#45;&gt;Node31</title>
<path fill="none" stroke="midnightblue" d="M1169.51,-202.95C1200.79,-190.08 1248.62,-170.4 1275.93,-159.17"/>
<polygon fill="midnightblue" stroke="midnightblue" points="1167.9,-199.83 1159.98,-206.87 1170.56,-206.3 1167.9,-199.83"/>
</g>
<!-- Node33 -->
<g id="node33" class="node">
<title>Node33</title>
<g id="a_node33"><a xlink:href="downarrowsvg_8cpp.html" target="_top" xlink:title=" ">
<polygon fill="none" stroke="black" points="993.5,-140 993.5,-159 1168.5,-159 1168.5,-140 993.5,-140"/>
<text text-anchor="middle" x="1081" y="-147" font-family="Helvetica,sans-Serif" font-size="10.00">src/svg&#45;drawings/downarrowsvg.cpp</text>
</a>
</g>
</g>
<!-- Node32&#45;&gt;Node33 -->
<g id="edge43" class="edge">
<title>Node32&#45;&gt;Node33</title>
<path fill="none" stroke="midnightblue" d="M1124.4,-199.13C1113.05,-186.42 1097.77,-169.3 1088.7,-159.13"/>
<polygon fill="midnightblue" stroke="midnightblue" points="1121.91,-201.6 1131.18,-206.73 1127.13,-196.94 1121.91,-201.6"/>
</g>
<!-- Node34 -->
<g id="node34" class="node">
<title>Node34</title>
<g id="a_node34"><a xlink:href="heartsvg_8cpp.html" target="_top" xlink:title=" ">
<polygon fill="none" stroke="black" points="635.5,-140 635.5,-159 784.5,-159 784.5,-140 635.5,-140"/>
<text text-anchor="middle" x="710" y="-147" font-family="Helvetica,sans-Serif" font-size="10.00">src/svg&#45;drawings/heartsvg.cpp</text>
</a>
</g>
</g>
<!-- Node32&#45;&gt;Node34 -->
<g id="edge44" class="edge">
<title>Node32&#45;&gt;Node34</title>
<path fill="none" stroke="midnightblue" d="M1067.53,-205.58C997.7,-195.76 888.44,-180.06 794,-165 782.45,-163.16 770.04,-161.07 758.38,-159.07"/>
<polygon fill="midnightblue" stroke="midnightblue" points="1067.15,-209.06 1077.54,-206.99 1068.13,-202.13 1067.15,-209.06"/>
</g>
<!-- Node35 -->
<g id="node35" class="node">
<title>Node35</title>
<g id="a_node35"><a xlink:href="plusminussvg_8cpp.html" target="_top" xlink:title=" ">
<polygon fill="none" stroke="black" points="803,-140 803,-159 975,-159 975,-140 803,-140"/>
<text text-anchor="middle" x="889" y="-147" font-family="Helvetica,sans-Serif" font-size="10.00">src/svg&#45;drawings/plusminussvg.cpp</text>
</a>
</g>
</g>
<!-- Node32&#45;&gt;Node35 -->
<g id="edge45" class="edge">
<title>Node32&#45;&gt;Node35</title>
<path fill="none" stroke="midnightblue" d="M1096.32,-204.4C1046.98,-191.58 966.83,-170.74 922.01,-159.08"/>
<polygon fill="midnightblue" stroke="midnightblue" points="1095.5,-207.81 1106.06,-206.94 1097.26,-201.03 1095.5,-207.81"/>
</g>
<!-- Node36&#45;&gt;Node4 -->
<g id="edge48" class="edge">
<title>Node36&#45;&gt;Node4</title>
<path fill="none" stroke="midnightblue" d="M577.7,-195.81C558.79,-183.51 535.39,-168.3 521.09,-159.01"/>
<polygon fill="midnightblue" stroke="midnightblue" points="576.01,-198.88 586.3,-201.4 579.82,-193.01 576.01,-198.88"/>
</g>
<!-- Node36&#45;&gt;Node19 -->
<g id="edge49" class="edge">
<title>Node36&#45;&gt;Node19</title>
<path fill="none" stroke="midnightblue" d="M606.34,-191.17C606.52,-172.66 610.13,-148.06 626,-134 688.17,-78.93 915.96,-110.93 998,-98 1001.01,-97.52 1004.09,-97 1007.2,-96.43"/>
<polygon fill="midnightblue" stroke="midnightblue" points="602.84,-191.32 606.56,-201.24 609.84,-191.16 602.84,-191.32"/>
</g>
</g>
</svg>
