<?xml version="1.0" encoding="UTF-8" standalone="no"?>
<!DOCTYPE svg PUBLIC "-//W3C//DTD SVG 1.1//EN"
 "http://www.w3.org/Graphics/SVG/1.1/DTD/svg11.dtd">
<!-- Generated by graphviz version 2.44.0 ()
 -->
<!-- Title: src/gui/renderer/mxrenderer.h Pages: 1 -->
<svg width="986pt" height="420pt"
 viewBox="0.00 0.00 986.00 420.00" xmlns="http://www.w3.org/2000/svg" xmlns:xlink="http://www.w3.org/1999/xlink">
<g id="graph0" class="graph" transform="scale(1 1) rotate(0) translate(4 416)">
<title>src/gui/renderer/mxrenderer.h</title>
<!-- Node1 -->
<g id="node1" class="node">
<title>Node1</title>
<g id="a_node1"><a xlink:title=" ">
<polygon fill="#bfbfbf" stroke="black" points="191,-392.5 191,-411.5 334,-411.5 334,-392.5 191,-392.5"/>
<text text-anchor="middle" x="262.5" y="-399.5" font-family="Helvetica,sans-Serif" font-size="10.00">src/gui/renderer/mxrenderer.h</text>
</a>
</g>
</g>
<!-- Node2 -->
<g id="node2" class="node">
<title>Node2</title>
<g id="a_node2"><a xlink:href="mxopenglfunctions_8h.html" target="_top" xlink:title=" ">
<polygon fill="none" stroke="black" points="15,-336.5 15,-355.5 120,-355.5 120,-336.5 15,-336.5"/>
<text text-anchor="middle" x="67.5" y="-343.5" font-family="Helvetica,sans-Serif" font-size="10.00">mxopenglfunctions.h</text>
</a>
</g>
</g>
<!-- Node1&#45;&gt;Node2 -->
<g id="edge1" class="edge">
<title>Node1&#45;&gt;Node2</title>
<path fill="none" stroke="midnightblue" d="M231.6,-392.44C198.23,-383.2 144.91,-368.44 108.15,-358.26"/>
<polygon fill="midnightblue" stroke="midnightblue" points="108.83,-354.81 98.25,-355.52 106.96,-361.56 108.83,-354.81"/>
</g>
<!-- Node4 -->
<g id="node4" class="node">
<title>Node4</title>
<g id="a_node4"><a xlink:href="mxcolorwheelprogram_8h.html" target="_top" xlink:title=" ">
<polygon fill="none" stroke="black" points="242,-224.5 242,-243.5 361,-243.5 361,-224.5 242,-224.5"/>
<text text-anchor="middle" x="301.5" y="-231.5" font-family="Helvetica,sans-Serif" font-size="10.00">mxcolorwheelprogram.h</text>
</a>
</g>
</g>
<!-- Node1&#45;&gt;Node4 -->
<g id="edge3" class="edge">
<title>Node1&#45;&gt;Node4</title>
<path fill="none" stroke="midnightblue" d="M253.28,-392.36C232.6,-371.89 186.13,-319.24 210.5,-280 220.22,-264.36 237.16,-253.98 253.82,-247.19"/>
<polygon fill="midnightblue" stroke="midnightblue" points="255.37,-250.35 263.53,-243.59 252.94,-243.78 255.37,-250.35"/>
</g>
<!-- Node14 -->
<g id="node14" class="node">
<title>Node14</title>
<g id="a_node14"><a xlink:href="mxvectorprogram_8h.html" target="_top" xlink:title=" ">
<polygon fill="none" stroke="black" points="252,-336.5 252,-355.5 351,-355.5 351,-336.5 252,-336.5"/>
<text text-anchor="middle" x="301.5" y="-343.5" font-family="Helvetica,sans-Serif" font-size="10.00">mxvectorprogram.h</text>
</a>
</g>
</g>
<!-- Node1&#45;&gt;Node14 -->
<g id="edge17" class="edge">
<title>Node1&#45;&gt;Node14</title>
<path fill="none" stroke="midnightblue" d="M268.94,-392.08C274.45,-384.46 282.53,-373.26 289.26,-363.94"/>
<polygon fill="midnightblue" stroke="midnightblue" points="292.16,-365.91 295.18,-355.75 286.49,-361.81 292.16,-365.91"/>
</g>
<!-- Node16 -->
<g id="node16" class="node">
<title>Node16</title>
<g id="a_node16"><a xlink:href="gpubuffer_8h.html" target="_top" xlink:title=" ">
<polygon fill="none" stroke="black" points="121.5,-224.5 121.5,-243.5 185.5,-243.5 185.5,-224.5 121.5,-224.5"/>
<text text-anchor="middle" x="153.5" y="-231.5" font-family="Helvetica,sans-Serif" font-size="10.00">gpubuffer.h</text>
</a>
</g>
</g>
<!-- Node1&#45;&gt;Node16 -->
<g id="edge32" class="edge">
<title>Node1&#45;&gt;Node16</title>
<path fill="none" stroke="midnightblue" d="M249.04,-392.38C237.12,-384.19 219.89,-370.95 208.5,-356 183.76,-323.55 166.96,-278.2 158.93,-253.25"/>
<polygon fill="midnightblue" stroke="midnightblue" points="162.25,-252.14 155.94,-243.62 155.56,-254.21 162.25,-252.14"/>
</g>
<!-- Node18 -->
<g id="node18" class="node">
<title>Node18</title>
<g id="a_node18"><a xlink:href="mxlist_8h.html" target="_top" xlink:title=" ">
<polygon fill="none" stroke="black" points="768.5,-336.5 768.5,-355.5 818.5,-355.5 818.5,-336.5 768.5,-336.5"/>
<text text-anchor="middle" x="793.5" y="-343.5" font-family="Helvetica,sans-Serif" font-size="10.00">mxlist.h</text>
</a>
</g>
</g>
<!-- Node1&#45;&gt;Node18 -->
<g id="edge26" class="edge">
<title>Node1&#45;&gt;Node18</title>
<path fill="none" stroke="midnightblue" d="M334.11,-393.72C449.47,-381.99 672.21,-359.33 758.32,-350.58"/>
<polygon fill="midnightblue" stroke="midnightblue" points="758.77,-354.05 768.36,-349.56 758.06,-347.09 758.77,-354.05"/>
</g>
<!-- Node23 -->
<g id="node23" class="node">
<title>Node23</title>
<g id="a_node23"><a xlink:href="mxiconprogram_8h.html" target="_top" xlink:title=" ">
<polygon fill="none" stroke="black" points="455.5,-224.5 455.5,-243.5 545.5,-243.5 545.5,-224.5 455.5,-224.5"/>
<text text-anchor="middle" x="500.5" y="-231.5" font-family="Helvetica,sans-Serif" font-size="10.00">mxiconprogram.h</text>
</a>
</g>
</g>
<!-- Node1&#45;&gt;Node23 -->
<g id="edge33" class="edge">
<title>Node1&#45;&gt;Node23</title>
<path fill="none" stroke="midnightblue" d="M285.37,-392.47C305.63,-384.44 335.61,-371.37 359.5,-356 409.43,-323.87 460.46,-275.38 485.19,-250.68"/>
<polygon fill="midnightblue" stroke="midnightblue" points="487.71,-253.11 492.26,-243.54 482.74,-248.18 487.71,-253.11"/>
</g>
<!-- Node3 -->
<g id="node3" class="node">
<title>Node3</title>
<g id="a_node3"><a xlink:title=" ">
<polygon fill="none" stroke="#bfbfbf" points="0,-280.5 0,-299.5 125,-299.5 125,-280.5 0,-280.5"/>
<text text-anchor="middle" x="62.5" y="-287.5" font-family="Helvetica,sans-Serif" font-size="10.00">QOpenGLExtraFunctions</text>
</a>
</g>
</g>
<!-- Node2&#45;&gt;Node3 -->
<g id="edge2" class="edge">
<title>Node2&#45;&gt;Node3</title>
<path fill="none" stroke="midnightblue" d="M66.67,-336.08C66.02,-329.01 65.08,-318.86 64.26,-309.99"/>
<polygon fill="midnightblue" stroke="midnightblue" points="67.72,-309.39 63.31,-299.75 60.75,-310.03 67.72,-309.39"/>
</g>
<!-- Node5 -->
<g id="node5" class="node">
<title>Node5</title>
<g id="a_node5"><a xlink:href="mxdebug_8h.html" target="_top" xlink:title=" ">
<polygon fill="none" stroke="black" points="525,-56.5 525,-75.5 588,-75.5 588,-56.5 525,-56.5"/>
<text text-anchor="middle" x="556.5" y="-63.5" font-family="Helvetica,sans-Serif" font-size="10.00">mxdebug.h</text>
</a>
</g>
</g>
<!-- Node4&#45;&gt;Node5 -->
<g id="edge4" class="edge">
<title>Node4&#45;&gt;Node5</title>
<path fill="none" stroke="midnightblue" d="M299.08,-224.32C293.53,-202.35 282.5,-144.03 311.5,-112 338.05,-82.68 451.74,-72.29 514.49,-68.74"/>
<polygon fill="midnightblue" stroke="midnightblue" points="515.04,-72.22 524.84,-68.19 514.67,-65.23 515.04,-72.22"/>
</g>
<!-- Node7 -->
<g id="node7" class="node">
<title>Node7</title>
<g id="a_node7"><a xlink:href="mxopengl_8h.html" target="_top" xlink:title=" ">
<polygon fill="none" stroke="black" points="142,-56.5 142,-75.5 207,-75.5 207,-56.5 142,-56.5"/>
<text text-anchor="middle" x="174.5" y="-63.5" font-family="Helvetica,sans-Serif" font-size="10.00">mxopengl.h</text>
</a>
</g>
</g>
<!-- Node4&#45;&gt;Node7 -->
<g id="edge6" class="edge">
<title>Node4&#45;&gt;Node7</title>
<path fill="none" stroke="midnightblue" d="M241.92,-226.47C193.92,-219.83 131.97,-207.69 116.5,-188 90.13,-154.45 131.19,-106.96 156.69,-82.66"/>
<polygon fill="midnightblue" stroke="midnightblue" points="159.33,-84.98 164.31,-75.63 154.59,-79.83 159.33,-84.98"/>
</g>
<!-- Node8 -->
<g id="node8" class="node">
<title>Node8</title>
<g id="a_node8"><a xlink:href="mxshaderprogram_8h.html" target="_top" xlink:title=" ">
<polygon fill="none" stroke="black" points="163,-112.5 163,-131.5 264,-131.5 264,-112.5 163,-112.5"/>
<text text-anchor="middle" x="213.5" y="-119.5" font-family="Helvetica,sans-Serif" font-size="10.00">mxshaderprogram.h</text>
</a>
</g>
</g>
<!-- Node4&#45;&gt;Node8 -->
<g id="edge7" class="edge">
<title>Node4&#45;&gt;Node8</title>
<path fill="none" stroke="midnightblue" d="M294.59,-224.37C280.01,-206.14 245.84,-163.43 226.84,-139.68"/>
<polygon fill="midnightblue" stroke="midnightblue" points="229.35,-137.21 220.37,-131.59 223.89,-141.59 229.35,-137.21"/>
</g>
<!-- Node9 -->
<g id="node9" class="node">
<title>Node9</title>
<g id="a_node9"><a xlink:href="mxmatrix_8h.html" target="_top" xlink:title=" ">
<polygon fill="none" stroke="black" points="321,-168.5 321,-187.5 384,-187.5 384,-168.5 321,-168.5"/>
<text text-anchor="middle" x="352.5" y="-175.5" font-family="Helvetica,sans-Serif" font-size="10.00">mxmatrix.h</text>
</a>
</g>
</g>
<!-- Node4&#45;&gt;Node9 -->
<g id="edge10" class="edge">
<title>Node4&#45;&gt;Node9</title>
<path fill="none" stroke="midnightblue" d="M309.92,-224.08C317.35,-216.22 328.35,-204.57 337.31,-195.08"/>
<polygon fill="midnightblue" stroke="midnightblue" points="339.91,-197.42 344.24,-187.75 334.82,-192.62 339.91,-197.42"/>
</g>
<!-- Node11 -->
<g id="node11" class="node">
<title>Node11</title>
<g id="a_node11"><a xlink:href="mxrect_8h.html" target="_top" xlink:title=" ">
<polygon fill="none" stroke="black" points="479,-168.5 479,-187.5 532,-187.5 532,-168.5 479,-168.5"/>
<text text-anchor="middle" x="505.5" y="-175.5" font-family="Helvetica,sans-Serif" font-size="10.00">mxrect.h</text>
</a>
</g>
</g>
<!-- Node4&#45;&gt;Node11 -->
<g id="edge12" class="edge">
<title>Node4&#45;&gt;Node11</title>
<path fill="none" stroke="midnightblue" d="M333.82,-224.44C370.64,-214.7 430.66,-198.81 469.1,-188.64"/>
<polygon fill="midnightblue" stroke="midnightblue" points="470.08,-192 478.85,-186.05 468.29,-185.23 470.08,-192"/>
</g>
<!-- Node6 -->
<g id="node6" class="node">
<title>Node6</title>
<g id="a_node6"><a xlink:title=" ">
<polygon fill="none" stroke="#bfbfbf" points="530.5,-0.5 530.5,-19.5 582.5,-19.5 582.5,-0.5 530.5,-0.5"/>
<text text-anchor="middle" x="556.5" y="-7.5" font-family="Helvetica,sans-Serif" font-size="10.00">QDebug</text>
</a>
</g>
</g>
<!-- Node5&#45;&gt;Node6 -->
<g id="edge5" class="edge">
<title>Node5&#45;&gt;Node6</title>
<path fill="none" stroke="midnightblue" d="M556.5,-56.08C556.5,-49.01 556.5,-38.86 556.5,-29.99"/>
<polygon fill="midnightblue" stroke="midnightblue" points="560,-29.75 556.5,-19.75 553,-29.75 560,-29.75"/>
</g>
<!-- Node8&#45;&gt;Node5 -->
<g id="edge8" class="edge">
<title>Node8&#45;&gt;Node5</title>
<path fill="none" stroke="midnightblue" d="M264.11,-113.03C332.07,-102.33 451.57,-83.52 514.7,-73.58"/>
<polygon fill="midnightblue" stroke="midnightblue" points="515.36,-77.02 524.7,-72.01 514.28,-70.1 515.36,-77.02"/>
</g>
<!-- Node8&#45;&gt;Node7 -->
<g id="edge9" class="edge">
<title>Node8&#45;&gt;Node7</title>
<path fill="none" stroke="midnightblue" d="M207.06,-112.08C201.55,-104.46 193.47,-93.26 186.74,-83.94"/>
<polygon fill="midnightblue" stroke="midnightblue" points="189.51,-81.81 180.82,-75.75 183.84,-85.91 189.51,-81.81"/>
</g>
<!-- Node10 -->
<g id="node10" class="node">
<title>Node10</title>
<g id="a_node10"><a xlink:title=" ">
<polygon fill="none" stroke="#bfbfbf" points="321,-112.5 321,-131.5 386,-131.5 386,-112.5 321,-112.5"/>
<text text-anchor="middle" x="353.5" y="-119.5" font-family="Helvetica,sans-Serif" font-size="10.00">QMatrix4x4</text>
</a>
</g>
</g>
<!-- Node9&#45;&gt;Node10 -->
<g id="edge11" class="edge">
<title>Node9&#45;&gt;Node10</title>
<path fill="none" stroke="midnightblue" d="M352.67,-168.08C352.8,-161.01 352.98,-150.86 353.15,-141.99"/>
<polygon fill="midnightblue" stroke="midnightblue" points="356.65,-141.81 353.34,-131.75 349.65,-141.68 356.65,-141.81"/>
</g>
<!-- Node11&#45;&gt;Node5 -->
<g id="edge13" class="edge">
<title>Node11&#45;&gt;Node5</title>
<path fill="none" stroke="midnightblue" d="M509.5,-168.37C517.81,-150.46 537.06,-108.92 548.18,-84.95"/>
<polygon fill="midnightblue" stroke="midnightblue" points="551.49,-86.14 552.52,-75.59 545.14,-83.19 551.49,-86.14"/>
</g>
<!-- Node12 -->
<g id="node12" class="node">
<title>Node12</title>
<g id="a_node12"><a xlink:href="mxvector_8h.html" target="_top" xlink:title=" ">
<polygon fill="none" stroke="black" points="554.5,-112.5 554.5,-131.5 618.5,-131.5 618.5,-112.5 554.5,-112.5"/>
<text text-anchor="middle" x="586.5" y="-119.5" font-family="Helvetica,sans-Serif" font-size="10.00">mxvector.h</text>
</a>
</g>
</g>
<!-- Node11&#45;&gt;Node12 -->
<g id="edge14" class="edge">
<title>Node11&#45;&gt;Node12</title>
<path fill="none" stroke="midnightblue" d="M518.51,-168.32C531.03,-159.98 550.18,-147.21 564.97,-137.35"/>
<polygon fill="midnightblue" stroke="midnightblue" points="567.14,-140.11 573.52,-131.65 563.26,-134.29 567.14,-140.11"/>
</g>
<!-- Node13 -->
<g id="node13" class="node">
<title>Node13</title>
<g id="a_node13"><a xlink:title=" ">
<polygon fill="none" stroke="#bfbfbf" points="442.5,-112.5 442.5,-131.5 498.5,-131.5 498.5,-112.5 442.5,-112.5"/>
<text text-anchor="middle" x="470.5" y="-119.5" font-family="Helvetica,sans-Serif" font-size="10.00">algorithm</text>
</a>
</g>
</g>
<!-- Node11&#45;&gt;Node13 -->
<g id="edge16" class="edge">
<title>Node11&#45;&gt;Node13</title>
<path fill="none" stroke="midnightblue" d="M499.72,-168.08C494.83,-160.53 487.67,-149.49 481.67,-140.23"/>
<polygon fill="midnightblue" stroke="midnightblue" points="484.55,-138.24 476.17,-131.75 478.67,-142.05 484.55,-138.24"/>
</g>
<!-- Node12&#45;&gt;Node5 -->
<g id="edge15" class="edge">
<title>Node12&#45;&gt;Node5</title>
<path fill="none" stroke="midnightblue" d="M581.55,-112.08C577.4,-104.61 571.35,-93.72 566.23,-84.52"/>
<polygon fill="midnightblue" stroke="midnightblue" points="569.28,-82.79 561.36,-75.75 563.16,-86.19 569.28,-82.79"/>
</g>
<!-- Node14&#45;&gt;Node8 -->
<g id="edge18" class="edge">
<title>Node14&#45;&gt;Node8</title>
<path fill="none" stroke="midnightblue" d="M306.78,-336.24C314.01,-322.98 324.88,-297.51 313.5,-280 292.03,-246.97 256.47,-275.26 232.5,-244 209.61,-214.15 209.28,-167.77 211.27,-141.96"/>
<polygon fill="midnightblue" stroke="midnightblue" points="214.78,-141.98 212.27,-131.69 207.81,-141.3 214.78,-141.98"/>
</g>
<!-- Node14&#45;&gt;Node9 -->
<g id="edge19" class="edge">
<title>Node14&#45;&gt;Node9</title>
<path fill="none" stroke="midnightblue" d="M312.67,-336.41C322.9,-328.06 337.87,-314.53 347.5,-300 362.27,-277.71 364.52,-270.27 369.5,-244 372.55,-227.9 367.13,-209.9 361.63,-196.93"/>
<polygon fill="midnightblue" stroke="midnightblue" points="364.74,-195.33 357.35,-187.74 358.4,-198.29 364.74,-195.33"/>
</g>
<!-- Node15 -->
<g id="node15" class="node">
<title>Node15</title>
<g id="a_node15"><a xlink:href="mxvectordraw_8h.html" target="_top" xlink:title=" ">
<polygon fill="none" stroke="black" points="220,-280.5 220,-299.5 305,-299.5 305,-280.5 220,-280.5"/>
<text text-anchor="middle" x="262.5" y="-287.5" font-family="Helvetica,sans-Serif" font-size="10.00">mxvectordraw.h</text>
</a>
</g>
</g>
<!-- Node14&#45;&gt;Node15 -->
<g id="edge20" class="edge">
<title>Node14&#45;&gt;Node15</title>
<path fill="none" stroke="midnightblue" d="M295.06,-336.08C289.55,-328.46 281.47,-317.26 274.74,-307.94"/>
<polygon fill="midnightblue" stroke="midnightblue" points="277.51,-305.81 268.82,-299.75 271.84,-309.91 277.51,-305.81"/>
</g>
<!-- Node15&#45;&gt;Node11 -->
<g id="edge25" class="edge">
<title>Node15&#45;&gt;Node11</title>
<path fill="none" stroke="midnightblue" d="M283.54,-280.5C305.21,-271.66 339.9,-257.29 369.5,-244 407.77,-226.82 451.44,-205.67 478.74,-192.25"/>
<polygon fill="midnightblue" stroke="midnightblue" points="480.6,-195.24 488.02,-187.68 477.5,-188.96 480.6,-195.24"/>
</g>
<!-- Node15&#45;&gt;Node16 -->
<g id="edge21" class="edge">
<title>Node15&#45;&gt;Node16</title>
<path fill="none" stroke="midnightblue" d="M244.99,-280.32C227.43,-271.62 200.17,-258.12 179.97,-248.11"/>
<polygon fill="midnightblue" stroke="midnightblue" points="181.48,-244.96 170.97,-243.65 178.38,-251.23 181.48,-244.96"/>
</g>
<!-- Node17 -->
<g id="node17" class="node">
<title>Node17</title>
<g id="a_node17"><a xlink:href="gpuvbo_8h.html" target="_top" xlink:title=" ">
<polygon fill="none" stroke="black" points="125.5,-168.5 125.5,-187.5 181.5,-187.5 181.5,-168.5 125.5,-168.5"/>
<text text-anchor="middle" x="153.5" y="-175.5" font-family="Helvetica,sans-Serif" font-size="10.00">gpuvbo.h</text>
</a>
</g>
</g>
<!-- Node16&#45;&gt;Node17 -->
<g id="edge22" class="edge">
<title>Node16&#45;&gt;Node17</title>
<path fill="none" stroke="midnightblue" d="M153.5,-224.08C153.5,-217.01 153.5,-206.86 153.5,-197.99"/>
<polygon fill="midnightblue" stroke="midnightblue" points="157,-197.75 153.5,-187.75 150,-197.75 157,-197.75"/>
</g>
<!-- Node17&#45;&gt;Node7 -->
<g id="edge23" class="edge">
<title>Node17&#45;&gt;Node7</title>
<path fill="none" stroke="midnightblue" d="M152.34,-168.46C150.89,-155.91 149.1,-131.83 153.5,-112 155.62,-102.43 160.01,-92.48 164.22,-84.37"/>
<polygon fill="midnightblue" stroke="midnightblue" points="167.32,-86 169.12,-75.56 161.2,-82.6 167.32,-86"/>
</g>
<!-- Node17&#45;&gt;Node8 -->
<g id="edge24" class="edge">
<title>Node17&#45;&gt;Node8</title>
<path fill="none" stroke="midnightblue" d="M163.14,-168.32C172.01,-160.34 185.37,-148.31 196.11,-138.65"/>
<polygon fill="midnightblue" stroke="midnightblue" points="198.59,-141.13 203.68,-131.83 193.91,-135.92 198.59,-141.13"/>
</g>
<!-- Node18&#45;&gt;Node5 -->
<g id="edge27" class="edge">
<title>Node18&#45;&gt;Node5</title>
<path fill="none" stroke="midnightblue" d="M768.22,-338.46C747.94,-331.95 720.18,-319.98 703.5,-300 684.21,-276.9 684.5,-265.1 684.5,-235 684.5,-235 684.5,-235 684.5,-177 684.5,-127.64 629.08,-95.61 591.17,-79.48"/>
<polygon fill="midnightblue" stroke="midnightblue" points="592.07,-76.06 581.48,-75.53 589.43,-82.55 592.07,-76.06"/>
</g>
<!-- Node19 -->
<g id="node19" class="node">
<title>Node19</title>
<g id="a_node19"><a xlink:href="mxrefcounter_8h.html" target="_top" xlink:title=" ">
<polygon fill="none" stroke="black" points="712.5,-280.5 712.5,-299.5 792.5,-299.5 792.5,-280.5 712.5,-280.5"/>
<text text-anchor="middle" x="752.5" y="-287.5" font-family="Helvetica,sans-Serif" font-size="10.00">mxrefcounter.h</text>
</a>
</g>
</g>
<!-- Node18&#45;&gt;Node19 -->
<g id="edge28" class="edge">
<title>Node18&#45;&gt;Node19</title>
<path fill="none" stroke="midnightblue" d="M786.73,-336.08C780.94,-328.46 772.44,-317.26 765.36,-307.94"/>
<polygon fill="midnightblue" stroke="midnightblue" points="767.98,-305.6 759.14,-299.75 762.4,-309.83 767.98,-305.6"/>
</g>
<!-- Node20 -->
<g id="node20" class="node">
<title>Node20</title>
<g id="a_node20"><a xlink:title=" ">
<polygon fill="none" stroke="#bfbfbf" points="811,-280.5 811,-299.5 858,-299.5 858,-280.5 811,-280.5"/>
<text text-anchor="middle" x="834.5" y="-287.5" font-family="Helvetica,sans-Serif" font-size="10.00">stdlib.h</text>
</a>
</g>
</g>
<!-- Node18&#45;&gt;Node20 -->
<g id="edge29" class="edge">
<title>Node18&#45;&gt;Node20</title>
<path fill="none" stroke="midnightblue" d="M800.27,-336.08C806.06,-328.46 814.56,-317.26 821.64,-307.94"/>
<polygon fill="midnightblue" stroke="midnightblue" points="824.6,-309.83 827.86,-299.75 819.02,-305.6 824.6,-309.83"/>
</g>
<!-- Node21 -->
<g id="node21" class="node">
<title>Node21</title>
<g id="a_node21"><a xlink:title=" ">
<polygon fill="none" stroke="#bfbfbf" points="876.5,-280.5 876.5,-299.5 924.5,-299.5 924.5,-280.5 876.5,-280.5"/>
<text text-anchor="middle" x="900.5" y="-287.5" font-family="Helvetica,sans-Serif" font-size="10.00">string.h</text>
</a>
</g>
</g>
<!-- Node18&#45;&gt;Node21 -->
<g id="edge30" class="edge">
<title>Node18&#45;&gt;Node21</title>
<path fill="none" stroke="midnightblue" d="M810.69,-336.32C827.85,-327.66 854.45,-314.24 874.25,-304.25"/>
<polygon fill="midnightblue" stroke="midnightblue" points="876,-307.28 883.35,-299.65 872.85,-301.04 876,-307.28"/>
</g>
<!-- Node22 -->
<g id="node22" class="node">
<title>Node22</title>
<g id="a_node22"><a xlink:title=" ">
<polygon fill="none" stroke="#bfbfbf" points="943,-280.5 943,-299.5 978,-299.5 978,-280.5 943,-280.5"/>
<text text-anchor="middle" x="960.5" y="-287.5" font-family="Helvetica,sans-Serif" font-size="10.00">new</text>
</a>
</g>
</g>
<!-- Node18&#45;&gt;Node22 -->
<g id="edge31" class="edge">
<title>Node18&#45;&gt;Node22</title>
<path fill="none" stroke="midnightblue" d="M818.56,-337.03C844.79,-328.68 887.4,-315.05 933.27,-300.05"/>
<polygon fill="midnightblue" stroke="midnightblue" points="934.38,-303.37 942.79,-296.93 932.2,-296.72 934.38,-303.37"/>
</g>
<!-- Node23&#45;&gt;Node5 -->
<g id="edge34" class="edge">
<title>Node23&#45;&gt;Node5</title>
<path fill="none" stroke="midnightblue" d="M520.35,-224.48C550.35,-210.34 606.02,-178.86 627.5,-132 637.84,-109.43 612.28,-91.17 589,-79.82"/>
<polygon fill="midnightblue" stroke="midnightblue" points="590.15,-76.5 579.6,-75.52 587.24,-82.86 590.15,-76.5"/>
</g>
<!-- Node23&#45;&gt;Node7 -->
<g id="edge37" class="edge">
<title>Node23&#45;&gt;Node7</title>
<path fill="none" stroke="midnightblue" d="M494.19,-224.47C475.46,-199.41 419.97,-126.81 394.5,-112 339.04,-79.76 263.98,-70.37 217.43,-67.78"/>
<polygon fill="midnightblue" stroke="midnightblue" points="217.53,-64.28 207.38,-67.3 217.2,-71.28 217.53,-64.28"/>
</g>
<!-- Node23&#45;&gt;Node8 -->
<g id="edge38" class="edge">
<title>Node23&#45;&gt;Node8</title>
<path fill="none" stroke="midnightblue" d="M488.81,-224.36C469.64,-210.57 429.88,-183.54 392.5,-168 354.39,-152.16 309.33,-140.87 273.95,-133.56"/>
<polygon fill="midnightblue" stroke="midnightblue" points="274.26,-130.05 263.77,-131.51 272.88,-136.91 274.26,-130.05"/>
</g>
<!-- Node23&#45;&gt;Node9 -->
<g id="edge35" class="edge">
<title>Node23&#45;&gt;Node9</title>
<path fill="none" stroke="midnightblue" d="M477.05,-224.44C452.37,-215.44 413.31,-201.19 385.52,-191.05"/>
<polygon fill="midnightblue" stroke="midnightblue" points="386.44,-187.66 375.84,-187.52 384.04,-194.23 386.44,-187.66"/>
</g>
<!-- Node23&#45;&gt;Node11 -->
<g id="edge39" class="edge">
<title>Node23&#45;&gt;Node11</title>
<path fill="none" stroke="midnightblue" d="M501.33,-224.08C501.98,-217.01 502.92,-206.86 503.74,-197.99"/>
<polygon fill="midnightblue" stroke="midnightblue" points="507.25,-198.03 504.69,-187.75 500.28,-197.39 507.25,-198.03"/>
</g>
<!-- Node23&#45;&gt;Node12 -->
<g id="edge36" class="edge">
<title>Node23&#45;&gt;Node12</title>
<path fill="none" stroke="midnightblue" d="M508.77,-224.29C517.07,-215.4 530.1,-201.1 540.5,-188 552.95,-172.32 566.04,-153.58 575.06,-140.25"/>
<polygon fill="midnightblue" stroke="midnightblue" points="578.18,-141.89 580.84,-131.63 572.36,-137.99 578.18,-141.89"/>
</g>
</g>
</svg>
