<?xml version="1.0" encoding="UTF-8" standalone="no"?>
<!DOCTYPE svg PUBLIC "-//W3C//DTD SVG 1.1//EN"
 "http://www.w3.org/Graphics/SVG/1.1/DTD/svg11.dtd">
<!-- Generated by graphviz version 2.44.0 ()
 -->
<!-- Title: src/containers/mxrefcounter.h Pages: 1 -->
<svg width="2897pt" height="498pt"
 viewBox="0.00 0.00 2896.50 498.00" xmlns="http://www.w3.org/2000/svg" xmlns:xlink="http://www.w3.org/1999/xlink">
<g id="graph0" class="graph" transform="scale(1 1) rotate(0) translate(4 494)">
<title>src/containers/mxrefcounter.h</title>
<!-- Node1 -->
<g id="node1" class="node">
<title>Node1</title>
<g id="a_node1"><a xlink:title=" ">
<polygon fill="#bfbfbf" stroke="black" points="690,-470.5 690,-489.5 835,-489.5 835,-470.5 690,-470.5"/>
<text text-anchor="middle" x="762.5" y="-477.5" font-family="Helvetica,sans-Serif" font-size="10.00">src/containers/mxrefcounter.h</text>
</a>
</g>
</g>
<!-- Node2 -->
<g id="node2" class="node">
<title>Node2</title>
<g id="a_node2"><a xlink:href="mxgenericstring_8h.html" target="_top" xlink:title=" ">
<polygon fill="none" stroke="black" points="530,-414.5 530,-433.5 687,-433.5 687,-414.5 530,-414.5"/>
<text text-anchor="middle" x="608.5" y="-421.5" font-family="Helvetica,sans-Serif" font-size="10.00">src/containers/mxgenericstring.h</text>
</a>
</g>
</g>
<!-- Node1&#45;&gt;Node2 -->
<g id="edge1" class="edge">
<title>Node1&#45;&gt;Node2</title>
<path fill="none" stroke="midnightblue" d="M728.39,-467.04C699.41,-456.88 658.54,-442.55 632.79,-433.52"/>
<polygon fill="midnightblue" stroke="midnightblue" points="727.5,-470.44 738.1,-470.44 729.82,-463.83 727.5,-470.44"/>
</g>
<!-- Node28 -->
<g id="node27" class="node">
<title>Node28</title>
<g id="a_node27"><a xlink:href="mxlist_8h.html" target="_top" xlink:title=" ">
<polygon fill="none" stroke="black" points="923.5,-358.5 923.5,-377.5 1037.5,-377.5 1037.5,-358.5 923.5,-358.5"/>
<text text-anchor="middle" x="980.5" y="-365.5" font-family="Helvetica,sans-Serif" font-size="10.00">src/containers/mxlist.h</text>
</a>
</g>
</g>
<!-- Node1&#45;&gt;Node28 -->
<g id="edge33" class="edge">
<title>Node1&#45;&gt;Node28</title>
<path fill="none" stroke="midnightblue" d="M763.38,-460.03C765.09,-445.42 769.8,-425.78 782.5,-414 802.72,-395.24 872.22,-382.6 923.18,-375.61"/>
<polygon fill="midnightblue" stroke="midnightblue" points="759.85,-460.18 762.56,-470.43 766.83,-460.73 759.85,-460.18"/>
</g>
<!-- Node56 -->
<g id="node50" class="node">
<title>Node56</title>
<g id="a_node50"><a xlink:href="mxrefcounter_8cpp.html" target="_top" xlink:title=" ">
<polygon fill="none" stroke="black" points="791,-414.5 791,-433.5 946,-433.5 946,-414.5 791,-414.5"/>
<text text-anchor="middle" x="868.5" y="-421.5" font-family="Helvetica,sans-Serif" font-size="10.00">src/containers/mxrefcounter.cpp</text>
</a>
</g>
</g>
<!-- Node1&#45;&gt;Node56 -->
<g id="edge67" class="edge">
<title>Node1&#45;&gt;Node56</title>
<path fill="none" stroke="midnightblue" d="M788.56,-465.73C808.18,-455.73 834.53,-442.31 851.51,-433.65"/>
<polygon fill="midnightblue" stroke="midnightblue" points="786.85,-462.67 779.53,-470.32 790.03,-468.9 786.85,-462.67"/>
</g>
<!-- Node3 -->
<g id="node3" class="node">
<title>Node3</title>
<g id="a_node3"><a xlink:href="mxgenericstring_8cpp.html" target="_top" xlink:title=" ">
<polygon fill="none" stroke="black" points="525,-358.5 525,-377.5 692,-377.5 692,-358.5 525,-358.5"/>
<text text-anchor="middle" x="608.5" y="-365.5" font-family="Helvetica,sans-Serif" font-size="10.00">src/containers/mxgenericstring.cpp</text>
</a>
</g>
</g>
<!-- Node2&#45;&gt;Node3 -->
<g id="edge2" class="edge">
<title>Node2&#45;&gt;Node3</title>
<path fill="none" stroke="midnightblue" d="M608.5,-403.8C608.5,-394.91 608.5,-384.78 608.5,-377.75"/>
<polygon fill="midnightblue" stroke="midnightblue" points="605,-404.08 608.5,-414.08 612,-404.08 605,-404.08"/>
</g>
<!-- Node4 -->
<g id="node4" class="node">
<title>Node4</title>
<g id="a_node4"><a xlink:href="mxstring_8h.html" target="_top" xlink:title=" ">
<polygon fill="none" stroke="black" points="361,-358.5 361,-377.5 486,-377.5 486,-358.5 361,-358.5"/>
<text text-anchor="middle" x="423.5" y="-365.5" font-family="Helvetica,sans-Serif" font-size="10.00">src/containers/mxstring.h</text>
</a>
</g>
</g>
<!-- Node2&#45;&gt;Node4 -->
<g id="edge3" class="edge">
<title>Node2&#45;&gt;Node4</title>
<path fill="none" stroke="midnightblue" d="M569.33,-411.57C534.43,-401.38 484.15,-386.7 452.68,-377.52"/>
<polygon fill="midnightblue" stroke="midnightblue" points="568.61,-415 579.19,-414.44 570.57,-408.28 568.61,-415"/>
</g>
<!-- Node5 -->
<g id="node5" class="node">
<title>Node5</title>
<g id="a_node5"><a xlink:href="mxstring_8cpp.html" target="_top" xlink:title=" ">
<polygon fill="none" stroke="black" points="215.5,-302.5 215.5,-321.5 351.5,-321.5 351.5,-302.5 215.5,-302.5"/>
<text text-anchor="middle" x="283.5" y="-309.5" font-family="Helvetica,sans-Serif" font-size="10.00">src/containers/mxstring.cpp</text>
</a>
</g>
</g>
<!-- Node4&#45;&gt;Node5 -->
<g id="edge4" class="edge">
<title>Node4&#45;&gt;Node5</title>
<path fill="none" stroke="midnightblue" d="M391.8,-354.77C365.5,-344.63 328.78,-330.47 305.58,-321.52"/>
<polygon fill="midnightblue" stroke="midnightblue" points="390.73,-358.11 401.32,-358.44 393.25,-351.58 390.73,-358.11"/>
</g>
<!-- Node6 -->
<g id="node6" class="node">
<title>Node6</title>
<g id="a_node6"><a xlink:href="mxfont_8h.html" target="_top" xlink:title=" ">
<polygon fill="none" stroke="black" points="519,-302.5 519,-321.5 608,-321.5 608,-302.5 519,-302.5"/>
<text text-anchor="middle" x="563.5" y="-309.5" font-family="Helvetica,sans-Serif" font-size="10.00">src/font/mxfont.h</text>
</a>
</g>
</g>
<!-- Node4&#45;&gt;Node6 -->
<g id="edge5" class="edge">
<title>Node4&#45;&gt;Node6</title>
<path fill="none" stroke="midnightblue" d="M455.2,-354.77C481.5,-344.63 518.22,-330.47 541.42,-321.52"/>
<polygon fill="midnightblue" stroke="midnightblue" points="453.75,-351.58 445.68,-358.44 456.27,-358.11 453.75,-351.58"/>
</g>
<!-- Node25 -->
<g id="node24" class="node">
<title>Node25</title>
<g id="a_node24"><a xlink:href="mxtextdraw_8h.html" target="_top" xlink:title=" ">
<polygon fill="none" stroke="black" points="625.5,-302.5 625.5,-321.5 731.5,-321.5 731.5,-302.5 625.5,-302.5"/>
<text text-anchor="middle" x="678.5" y="-309.5" font-family="Helvetica,sans-Serif" font-size="10.00">src/gui/mxtextdraw.h</text>
</a>
</g>
</g>
<!-- Node4&#45;&gt;Node25 -->
<g id="edge26" class="edge">
<title>Node4&#45;&gt;Node25</title>
<path fill="none" stroke="midnightblue" d="M473.81,-356.35C522,-346.14 593.78,-330.94 638.28,-321.52"/>
<polygon fill="midnightblue" stroke="midnightblue" points="472.96,-352.95 463.91,-358.44 474.41,-359.8 472.96,-352.95"/>
</g>
<!-- Node26 -->
<g id="node25" class="node">
<title>Node26</title>
<g id="a_node25"><a xlink:href="mxlineedit_8h.html" target="_top" xlink:title=" ">
<polygon fill="none" stroke="black" points="325,-174 325,-193 446,-193 446,-174 325,-174"/>
<text text-anchor="middle" x="385.5" y="-181" font-family="Helvetica,sans-Serif" font-size="10.00">src/widgets/mxlineedit.h</text>
</a>
</g>
</g>
<!-- Node4&#45;&gt;Node26 -->
<g id="edge29" class="edge">
<title>Node4&#45;&gt;Node26</title>
<path fill="none" stroke="midnightblue" d="M350.65,-361.61C294.89,-355.79 224.56,-344.19 206.5,-322 157.4,-261.67 292.06,-212.23 355.03,-193.06"/>
<polygon fill="midnightblue" stroke="midnightblue" points="350.58,-365.12 360.88,-362.63 351.28,-358.15 350.58,-365.12"/>
</g>
<!-- Node27 -->
<g id="node26" class="node">
<title>Node27</title>
<g id="a_node26"><a xlink:href="mxtextbutton_8h.html" target="_top" xlink:title=" ">
<polygon fill="none" stroke="black" points="0,-112.5 0,-131.5 133,-131.5 133,-112.5 0,-112.5"/>
<text text-anchor="middle" x="66.5" y="-119.5" font-family="Helvetica,sans-Serif" font-size="10.00">src/widgets/mxtextbutton.h</text>
</a>
</g>
</g>
<!-- Node4&#45;&gt;Node27 -->
<g id="edge31" class="edge">
<title>Node4&#45;&gt;Node27</title>
<path fill="none" stroke="midnightblue" d="M350.61,-365.3C302.97,-361.29 241.02,-350.37 193.5,-322 116.78,-276.2 78.63,-164.1 68.99,-131.83"/>
<polygon fill="midnightblue" stroke="midnightblue" points="350.61,-368.82 360.85,-366.08 351.14,-361.83 350.61,-368.82"/>
</g>
<!-- Node7 -->
<g id="node7" class="node">
<title>Node7</title>
<g id="a_node7"><a xlink:href="mxstaticfont_8h.html" target="_top" xlink:title=" ">
<polygon fill="none" stroke="red" points="541,-235.5 541,-265.5 634,-265.5 634,-235.5 541,-235.5"/>
<text text-anchor="start" x="549" y="-253.5" font-family="Helvetica,sans-Serif" font-size="10.00">src/font/staticfont</text>
<text text-anchor="middle" x="587.5" y="-242.5" font-family="Helvetica,sans-Serif" font-size="10.00">/mxstaticfont.h</text>
</a>
</g>
</g>
<!-- Node6&#45;&gt;Node7 -->
<g id="edge6" class="edge">
<title>Node6&#45;&gt;Node7</title>
<path fill="none" stroke="midnightblue" d="M570.72,-293.1C574.28,-284.27 578.52,-273.77 581.84,-265.52"/>
<polygon fill="midnightblue" stroke="midnightblue" points="567.43,-291.89 566.94,-302.48 573.93,-294.51 567.43,-291.89"/>
</g>
<!-- Node21 -->
<g id="node20" class="node">
<title>Node21</title>
<g id="a_node20"><a xlink:href="mxlineedit_8cpp.html" target="_top" xlink:title=" ">
<polygon fill="none" stroke="black" points="320,-112.5 320,-131.5 451,-131.5 451,-112.5 320,-112.5"/>
<text text-anchor="middle" x="385.5" y="-119.5" font-family="Helvetica,sans-Serif" font-size="10.00">src/widgets/mxlineedit.cpp</text>
</a>
</g>
</g>
<!-- Node6&#45;&gt;Node21 -->
<g id="edge24" class="edge">
<title>Node6&#45;&gt;Node21</title>
<path fill="none" stroke="midnightblue" d="M551.1,-294.08C525,-258.54 465.84,-178.53 454.5,-168 438.37,-153.01 416.67,-139.77 401.95,-131.6"/>
<polygon fill="midnightblue" stroke="midnightblue" points="548.52,-296.46 557.25,-302.46 554.16,-292.32 548.52,-296.46"/>
</g>
<!-- Node23 -->
<g id="node22" class="node">
<title>Node23</title>
<g id="a_node22"><a xlink:href="mxtextbutton_8cpp.html" target="_top" xlink:title=" ">
<polygon fill="none" stroke="black" points="90,-56.5 90,-75.5 233,-75.5 233,-56.5 90,-56.5"/>
<text text-anchor="middle" x="161.5" y="-63.5" font-family="Helvetica,sans-Serif" font-size="10.00">src/widgets/mxtextbutton.cpp</text>
</a>
</g>
</g>
<!-- Node6&#45;&gt;Node23 -->
<g id="edge25" class="edge">
<title>Node6&#45;&gt;Node23</title>
<path fill="none" stroke="midnightblue" d="M508.69,-301.51C466.41,-293.62 406.7,-281.24 355.5,-266 275.68,-242.24 232.48,-264.07 180.5,-199 150.59,-161.56 156.63,-98.36 160.03,-75.54"/>
<polygon fill="midnightblue" stroke="midnightblue" points="508.31,-305 518.78,-303.37 509.58,-298.11 508.31,-305"/>
</g>
<!-- Node24 -->
<g id="node23" class="node">
<title>Node24</title>
<g id="a_node23"><a xlink:href="mxtextdraw_8cpp.html" target="_top" xlink:title=" ">
<polygon fill="none" stroke="black" points="651.5,-241 651.5,-260 767.5,-260 767.5,-241 651.5,-241"/>
<text text-anchor="middle" x="709.5" y="-248" font-family="Helvetica,sans-Serif" font-size="10.00">src/gui/mxtextdraw.cpp</text>
</a>
</g>
</g>
<!-- Node6&#45;&gt;Node24 -->
<g id="edge23" class="edge">
<title>Node6&#45;&gt;Node24</title>
<path fill="none" stroke="midnightblue" d="M593.85,-298.63C622.21,-287.07 663.81,-270.12 688.62,-260.01"/>
<polygon fill="midnightblue" stroke="midnightblue" points="592.36,-295.46 584.42,-302.48 595,-301.94 592.36,-295.46"/>
</g>
<!-- Node9 -->
<g id="node8" class="node">
<title>Node9</title>
<g id="a_node8"><a xlink:href="mxstaticfont__image_8cpp.html" target="_top" xlink:title=" ">
<polygon fill="none" stroke="black" points="985.5,-168.5 985.5,-198.5 1107.5,-198.5 1107.5,-168.5 985.5,-168.5"/>
<text text-anchor="start" x="993.5" y="-186.5" font-family="Helvetica,sans-Serif" font-size="10.00">src/font/staticfont</text>
<text text-anchor="middle" x="1046.5" y="-175.5" font-family="Helvetica,sans-Serif" font-size="10.00">/mxstaticfont_image.cpp</text>
</a>
</g>
</g>
<!-- Node7&#45;&gt;Node9 -->
<g id="edge7" class="edge">
<title>Node7&#45;&gt;Node9</title>
<path fill="none" stroke="midnightblue" d="M644.04,-234.85C770.12,-210.96 907.69,-196.61 985.18,-189.6"/>
<polygon fill="midnightblue" stroke="midnightblue" points="643.37,-231.41 634.21,-236.73 644.69,-238.28 643.37,-231.41"/>
</g>
<!-- Node10 -->
<g id="node9" class="node">
<title>Node10</title>
<g id="a_node9"><a xlink:href="mxpainter_8h.html" target="_top" xlink:title=" ">
<polygon fill="none" stroke="black" points="746.5,-174 746.5,-193 844.5,-193 844.5,-174 746.5,-174"/>
<text text-anchor="middle" x="795.5" y="-181" font-family="Helvetica,sans-Serif" font-size="10.00">src/gui/mxpainter.h</text>
</a>
</g>
</g>
<!-- Node7&#45;&gt;Node10 -->
<g id="edge8" class="edge">
<title>Node7&#45;&gt;Node10</title>
<path fill="none" stroke="midnightblue" d="M642.12,-232.43C682.69,-219.75 736.3,-203 768.21,-193.03"/>
<polygon fill="midnightblue" stroke="midnightblue" points="640.88,-229.15 632.38,-235.48 642.97,-235.83 640.88,-229.15"/>
</g>
<!-- Node11 -->
<g id="node10" class="node">
<title>Node11</title>
<g id="a_node10"><a xlink:href="mxapplication_8h.html" target="_top" xlink:title=" ">
<polygon fill="none" stroke="black" points="1222.5,-112.5 1222.5,-131.5 1354.5,-131.5 1354.5,-112.5 1222.5,-112.5"/>
<text text-anchor="middle" x="1288.5" y="-119.5" font-family="Helvetica,sans-Serif" font-size="10.00">src/events/mxapplication.h</text>
</a>
</g>
</g>
<!-- Node10&#45;&gt;Node11 -->
<g id="edge9" class="edge">
<title>Node10&#45;&gt;Node11</title>
<path fill="none" stroke="midnightblue" d="M854.6,-175.37C947.07,-164.21 1125.37,-142.69 1222.13,-131.01"/>
<polygon fill="midnightblue" stroke="midnightblue" points="854.08,-171.9 844.57,-176.58 854.92,-178.85 854.08,-171.9"/>
</g>
<!-- Node16 -->
<g id="node15" class="node">
<title>Node16</title>
<g id="a_node15"><a xlink:href="mxpainter_8cpp.html" target="_top" xlink:title=" ">
<polygon fill="none" stroke="black" points="1095,-112.5 1095,-131.5 1204,-131.5 1204,-112.5 1095,-112.5"/>
<text text-anchor="middle" x="1149.5" y="-119.5" font-family="Helvetica,sans-Serif" font-size="10.00">src/gui/mxpainter.cpp</text>
</a>
</g>
</g>
<!-- Node10&#45;&gt;Node16 -->
<g id="edge15" class="edge">
<title>Node10&#45;&gt;Node16</title>
<path fill="none" stroke="midnightblue" d="M854.89,-172.52C923.21,-161.03 1034.22,-142.38 1098.69,-131.54"/>
<polygon fill="midnightblue" stroke="midnightblue" points="854,-169.12 844.72,-174.23 855.16,-176.02 854,-169.12"/>
</g>
<!-- Node17 -->
<g id="node16" class="node">
<title>Node17</title>
<g id="a_node16"><a xlink:href="mxlabel_8h.html" target="_top" xlink:title=" ">
<polygon fill="none" stroke="black" points="469.5,-112.5 469.5,-131.5 579.5,-131.5 579.5,-112.5 469.5,-112.5"/>
<text text-anchor="middle" x="524.5" y="-119.5" font-family="Helvetica,sans-Serif" font-size="10.00">src/widgets/mxlabel.h</text>
</a>
</g>
</g>
<!-- Node10&#45;&gt;Node17 -->
<g id="edge16" class="edge">
<title>Node10&#45;&gt;Node17</title>
<path fill="none" stroke="midnightblue" d="M746.9,-171.83C694.35,-160.29 611.62,-142.13 563.26,-131.51"/>
<polygon fill="midnightblue" stroke="midnightblue" points="746.15,-175.25 756.67,-173.98 747.66,-168.41 746.15,-175.25"/>
</g>
<!-- Node19 -->
<g id="node18" class="node">
<title>Node19</title>
<g id="a_node18"><a xlink:href="mxlayout_8cpp.html" target="_top" xlink:title=" ">
<polygon fill="none" stroke="black" points="783.5,-112.5 783.5,-131.5 909.5,-131.5 909.5,-112.5 783.5,-112.5"/>
<text text-anchor="middle" x="846.5" y="-119.5" font-family="Helvetica,sans-Serif" font-size="10.00">src/widgets/mxlayout.cpp</text>
</a>
</g>
</g>
<!-- Node10&#45;&gt;Node19 -->
<g id="edge18" class="edge">
<title>Node10&#45;&gt;Node19</title>
<path fill="none" stroke="midnightblue" d="M809.5,-166.17C819.11,-154.95 831.49,-140.52 839.21,-131.51"/>
<polygon fill="midnightblue" stroke="midnightblue" points="806.66,-164.1 802.81,-173.98 811.97,-168.66 806.66,-164.1"/>
</g>
<!-- Node20 -->
<g id="node19" class="node">
<title>Node20</title>
<g id="a_node19"><a xlink:href="mxlinearlayout_8cpp.html" target="_top" xlink:title=" ">
<polygon fill="none" stroke="black" points="928,-112.5 928,-131.5 1077,-131.5 1077,-112.5 928,-112.5"/>
<text text-anchor="middle" x="1002.5" y="-119.5" font-family="Helvetica,sans-Serif" font-size="10.00">src/widgets/mxlinearlayout.cpp</text>
</a>
</g>
</g>
<!-- Node10&#45;&gt;Node20 -->
<g id="edge19" class="edge">
<title>Node10&#45;&gt;Node20</title>
<path fill="none" stroke="midnightblue" d="M834.9,-171.18C875.12,-159.61 936.65,-141.93 972.9,-131.51"/>
<polygon fill="midnightblue" stroke="midnightblue" points="833.8,-167.85 825.16,-173.98 835.74,-174.58 833.8,-167.85"/>
</g>
<!-- Node10&#45;&gt;Node21 -->
<g id="edge20" class="edge">
<title>Node10&#45;&gt;Node21</title>
<path fill="none" stroke="midnightblue" d="M736.31,-173.91C658.31,-162.59 521.94,-142.8 444.19,-131.52"/>
<polygon fill="midnightblue" stroke="midnightblue" points="736.05,-177.41 746.45,-175.38 737.06,-170.48 736.05,-177.41"/>
</g>
<!-- Node22 -->
<g id="node21" class="node">
<title>Node22</title>
<g id="a_node21"><a xlink:href="mxspacer_8cpp.html" target="_top" xlink:title=" ">
<polygon fill="none" stroke="black" points="635.5,-112.5 635.5,-131.5 765.5,-131.5 765.5,-112.5 635.5,-112.5"/>
<text text-anchor="middle" x="700.5" y="-119.5" font-family="Helvetica,sans-Serif" font-size="10.00">src/widgets/mxspacer.cpp</text>
</a>
</g>
</g>
<!-- Node10&#45;&gt;Node22 -->
<g id="edge21" class="edge">
<title>Node10&#45;&gt;Node22</title>
<path fill="none" stroke="midnightblue" d="M773.29,-168.59C754.95,-157.1 729.52,-141.18 714.09,-131.51"/>
<polygon fill="midnightblue" stroke="midnightblue" points="771.56,-171.63 781.89,-173.98 775.27,-165.7 771.56,-171.63"/>
</g>
<!-- Node10&#45;&gt;Node23 -->
<g id="edge22" class="edge">
<title>Node10&#45;&gt;Node23</title>
<path fill="none" stroke="midnightblue" d="M749.74,-171.4C715.26,-162.43 667.14,-148.58 626.5,-132 608.83,-124.79 606.76,-117.54 588.5,-112 467.42,-75.24 319.17,-67.45 233.02,-66.36"/>
<polygon fill="midnightblue" stroke="midnightblue" points="748.97,-174.82 759.53,-173.92 750.71,-168.04 748.97,-174.82"/>
</g>
<!-- Node12 -->
<g id="node11" class="node">
<title>Node12</title>
<g id="a_node11"><a xlink:href="mxapplication_8cpp.html" target="_top" xlink:title=" ">
<polygon fill="none" stroke="black" points="1217,-56.5 1217,-75.5 1360,-75.5 1360,-56.5 1217,-56.5"/>
<text text-anchor="middle" x="1288.5" y="-63.5" font-family="Helvetica,sans-Serif" font-size="10.00">src/events/mxapplication.cpp</text>
</a>
</g>
</g>
<!-- Node11&#45;&gt;Node12 -->
<g id="edge10" class="edge">
<title>Node11&#45;&gt;Node12</title>
<path fill="none" stroke="midnightblue" d="M1288.5,-101.8C1288.5,-92.91 1288.5,-82.78 1288.5,-75.75"/>
<polygon fill="midnightblue" stroke="midnightblue" points="1285,-102.08 1288.5,-112.08 1292,-102.08 1285,-102.08"/>
</g>
<!-- Node13 -->
<g id="node12" class="node">
<title>Node13</title>
<g id="a_node12"><a xlink:href="mxguiaggregation_8cpp.html" target="_top" xlink:title=" ">
<polygon fill="none" stroke="black" points="1378,-56.5 1378,-75.5 1521,-75.5 1521,-56.5 1378,-56.5"/>
<text text-anchor="middle" x="1449.5" y="-63.5" font-family="Helvetica,sans-Serif" font-size="10.00">src/gui/mxguiaggregation.cpp</text>
</a>
</g>
</g>
<!-- Node11&#45;&gt;Node13 -->
<g id="edge11" class="edge">
<title>Node11&#45;&gt;Node13</title>
<path fill="none" stroke="midnightblue" d="M1323.76,-109.17C1354.08,-99 1397.07,-84.59 1424.11,-75.52"/>
<polygon fill="midnightblue" stroke="midnightblue" points="1322.38,-105.95 1314.01,-112.44 1324.6,-112.58 1322.38,-105.95"/>
</g>
<!-- Node14 -->
<g id="node13" class="node">
<title>Node14</title>
<g id="a_node13"><a xlink:href="qmewawindow_8cpp.html" target="_top" xlink:title=" ">
<polygon fill="none" stroke="black" points="1320,-0.5 1320,-19.5 1485,-19.5 1485,-0.5 1320,-0.5"/>
<text text-anchor="middle" x="1402.5" y="-7.5" font-family="Helvetica,sans-Serif" font-size="10.00">src/platform/qt/qmewawindow.cpp</text>
</a>
</g>
</g>
<!-- Node11&#45;&gt;Node14 -->
<g id="edge12" class="edge">
<title>Node11&#45;&gt;Node14</title>
<path fill="none" stroke="midnightblue" d="M1252.9,-108.77C1224.2,-96.96 1191.25,-77.71 1208.5,-56 1222.94,-37.83 1275.59,-26.34 1322.4,-19.52"/>
<polygon fill="midnightblue" stroke="midnightblue" points="1251.8,-112.1 1262.39,-112.48 1254.35,-105.58 1251.8,-112.1"/>
</g>
<!-- Node15 -->
<g id="node14" class="node">
<title>Node15</title>
<g id="a_node14"><a xlink:href="qmewawindow_8h.html" target="_top" xlink:title=" ">
<polygon fill="none" stroke="black" points="1539,-56.5 1539,-75.5 1694,-75.5 1694,-56.5 1539,-56.5"/>
<text text-anchor="middle" x="1616.5" y="-63.5" font-family="Helvetica,sans-Serif" font-size="10.00">src/platform/qt/qmewawindow.h</text>
</a>
</g>
</g>
<!-- Node11&#45;&gt;Node15 -->
<g id="edge13" class="edge">
<title>Node11&#45;&gt;Node15</title>
<path fill="none" stroke="midnightblue" d="M1350.51,-110.79C1412.49,-100.59 1506.69,-85.08 1564.77,-75.52"/>
<polygon fill="midnightblue" stroke="midnightblue" points="1349.77,-107.37 1340.47,-112.44 1350.91,-114.27 1349.77,-107.37"/>
</g>
<!-- Node15&#45;&gt;Node14 -->
<g id="edge14" class="edge">
<title>Node15&#45;&gt;Node14</title>
<path fill="none" stroke="midnightblue" d="M1572.74,-53.96C1532.33,-43.76 1473.13,-28.82 1436.25,-19.52"/>
<polygon fill="midnightblue" stroke="midnightblue" points="1572.04,-57.39 1582.59,-56.44 1573.75,-50.6 1572.04,-57.39"/>
</g>
<!-- Node18 -->
<g id="node17" class="node">
<title>Node18</title>
<g id="a_node17"><a xlink:href="mxlabel_8cpp.html" target="_top" xlink:title=" ">
<polygon fill="none" stroke="black" points="464,-56.5 464,-75.5 585,-75.5 585,-56.5 464,-56.5"/>
<text text-anchor="middle" x="524.5" y="-63.5" font-family="Helvetica,sans-Serif" font-size="10.00">src/widgets/mxlabel.cpp</text>
</a>
</g>
</g>
<!-- Node17&#45;&gt;Node18 -->
<g id="edge17" class="edge">
<title>Node17&#45;&gt;Node18</title>
<path fill="none" stroke="midnightblue" d="M524.5,-101.8C524.5,-92.91 524.5,-82.78 524.5,-75.75"/>
<polygon fill="midnightblue" stroke="midnightblue" points="521,-102.08 524.5,-112.08 528,-102.08 521,-102.08"/>
</g>
<!-- Node25&#45;&gt;Node10 -->
<g id="edge27" class="edge">
<title>Node25&#45;&gt;Node10</title>
<path fill="none" stroke="midnightblue" d="M725.82,-299.07C744.09,-292.22 763.65,-281.73 776.5,-266 794.14,-244.39 796.01,-209.35 795.84,-193.18"/>
<polygon fill="midnightblue" stroke="midnightblue" points="724.44,-295.84 716.13,-302.42 726.73,-302.46 724.44,-295.84"/>
</g>
<!-- Node25&#45;&gt;Node24 -->
<g id="edge28" class="edge">
<title>Node25&#45;&gt;Node24</title>
<path fill="none" stroke="midnightblue" d="M687.7,-293.33C693.44,-282.33 700.56,-268.66 705.07,-260.01"/>
<polygon fill="midnightblue" stroke="midnightblue" points="684.46,-291.99 682.94,-302.48 690.67,-295.22 684.46,-291.99"/>
</g>
<!-- Node26&#45;&gt;Node21 -->
<g id="edge30" class="edge">
<title>Node26&#45;&gt;Node21</title>
<path fill="none" stroke="midnightblue" d="M385.5,-163.82C385.5,-153 385.5,-139.9 385.5,-131.51"/>
<polygon fill="midnightblue" stroke="midnightblue" points="382,-163.98 385.5,-173.98 389,-163.98 382,-163.98"/>
</g>
<!-- Node27&#45;&gt;Node23 -->
<g id="edge32" class="edge">
<title>Node27&#45;&gt;Node23</title>
<path fill="none" stroke="midnightblue" d="M90.82,-107.18C108.3,-97.24 131.33,-84.15 146.27,-75.65"/>
<polygon fill="midnightblue" stroke="midnightblue" points="88.73,-104.34 81.76,-112.32 92.19,-110.43 88.73,-104.34"/>
</g>
<!-- Node28&#45;&gt;Node10 -->
<g id="edge35" class="edge">
<title>Node28&#45;&gt;Node10</title>
<path fill="none" stroke="midnightblue" d="M964.41,-351.13C926.67,-313.89 833.45,-221.93 804.33,-193.21"/>
<polygon fill="midnightblue" stroke="midnightblue" points="962,-353.67 971.58,-358.2 966.92,-348.68 962,-353.67"/>
</g>
<!-- Node29 -->
<g id="node28" class="node">
<title>Node29</title>
<g id="a_node28"><a xlink:href="mxfixedsizelist_8h.html" target="_top" xlink:title=" ">
<polygon fill="none" stroke="black" points="750,-302.5 750,-321.5 901,-321.5 901,-302.5 750,-302.5"/>
<text text-anchor="middle" x="825.5" y="-309.5" font-family="Helvetica,sans-Serif" font-size="10.00">src/containers/mxfixedsizelist.h</text>
</a>
</g>
</g>
<!-- Node28&#45;&gt;Node29 -->
<g id="edge34" class="edge">
<title>Node28&#45;&gt;Node29</title>
<path fill="none" stroke="midnightblue" d="M946.17,-355.04C917,-344.88 875.86,-330.55 849.95,-321.52"/>
<polygon fill="midnightblue" stroke="midnightblue" points="945.34,-358.46 955.94,-358.44 947.65,-351.85 945.34,-358.46"/>
</g>
<!-- Node30 -->
<g id="node29" class="node">
<title>Node30</title>
<g id="a_node29"><a xlink:href="gui_2mxwidgetlist_8h.html" target="_top" xlink:title=" ">
<polygon fill="none" stroke="black" points="1124.5,-302.5 1124.5,-321.5 1234.5,-321.5 1234.5,-302.5 1124.5,-302.5"/>
<text text-anchor="middle" x="1179.5" y="-309.5" font-family="Helvetica,sans-Serif" font-size="10.00">src/gui/mxwidgetlist.h</text>
</a>
</g>
</g>
<!-- Node28&#45;&gt;Node30 -->
<g id="edge36" class="edge">
<title>Node28&#45;&gt;Node30</title>
<path fill="none" stroke="midnightblue" d="M1022.15,-355.7C1059.71,-345.51 1114.11,-330.74 1148.12,-321.52"/>
<polygon fill="midnightblue" stroke="midnightblue" points="1020.77,-352.45 1012.03,-358.44 1022.6,-359.2 1020.77,-352.45"/>
</g>
<!-- Node33 -->
<g id="node32" class="node">
<title>Node33</title>
<g id="a_node32"><a xlink:href="mxiconatlas_8h.html" target="_top" xlink:title=" ">
<polygon fill="none" stroke="black" points="2754.5,-174 2754.5,-193 2888.5,-193 2888.5,-174 2754.5,-174"/>
<text text-anchor="middle" x="2821.5" y="-181" font-family="Helvetica,sans-Serif" font-size="10.00">src/iconatlas/mxiconatlas.h</text>
</a>
</g>
</g>
<!-- Node28&#45;&gt;Node33 -->
<g id="edge39" class="edge">
<title>Node28&#45;&gt;Node33</title>
<path fill="none" stroke="midnightblue" d="M1047.91,-361.12C1144.29,-352.68 1326.99,-336.54 1482.5,-322 2044.04,-269.49 2187.25,-279.27 2745.5,-199 2756.93,-197.36 2769.26,-195.18 2780.59,-193.02"/>
<polygon fill="midnightblue" stroke="midnightblue" points="1047.39,-357.66 1037.73,-362.01 1048,-364.63 1047.39,-357.66"/>
</g>
<!-- Node35 -->
<g id="node34" class="node">
<title>Node35</title>
<g id="a_node34"><a xlink:href="mxrenderer_8h.html" target="_top" xlink:title=" ">
<polygon fill="none" stroke="black" points="1936.5,-235.5 1936.5,-265.5 2036.5,-265.5 2036.5,-235.5 1936.5,-235.5"/>
<text text-anchor="start" x="1944.5" y="-253.5" font-family="Helvetica,sans-Serif" font-size="10.00">src/renderer/opengl</text>
<text text-anchor="middle" x="1986.5" y="-242.5" font-family="Helvetica,sans-Serif" font-size="10.00">/mxrenderer.h</text>
</a>
</g>
</g>
<!-- Node28&#45;&gt;Node35 -->
<g id="edge42" class="edge">
<title>Node28&#45;&gt;Node35</title>
<path fill="none" stroke="midnightblue" d="M1047.92,-359.26C1237.11,-337.54 1769.95,-276.36 1936.26,-257.27"/>
<polygon fill="midnightblue" stroke="midnightblue" points="1047.37,-355.8 1037.83,-360.42 1048.17,-362.75 1047.37,-355.8"/>
</g>
<!-- Node47 -->
<g id="node46" class="node">
<title>Node47</title>
<g id="a_node46"><a xlink:href="mxclippedwidget_8h.html" target="_top" xlink:title=" ">
<polygon fill="none" stroke="black" points="957,-302.5 957,-321.5 1106,-321.5 1106,-302.5 957,-302.5"/>
<text text-anchor="middle" x="1031.5" y="-309.5" font-family="Helvetica,sans-Serif" font-size="10.00">src/widgets/mxclippedwidget.h</text>
</a>
</g>
</g>
<!-- Node28&#45;&gt;Node47 -->
<g id="edge58" class="edge">
<title>Node28&#45;&gt;Node47</title>
<path fill="none" stroke="midnightblue" d="M995.88,-350.72C1004.87,-341.2 1015.86,-329.56 1023.24,-321.75"/>
<polygon fill="midnightblue" stroke="midnightblue" points="993.24,-348.41 988.92,-358.08 998.33,-353.22 993.24,-348.41"/>
</g>
<!-- Node55 -->
<g id="node49" class="node">
<title>Node55</title>
<g id="a_node49"><a xlink:href="widgets_2mxwidgetlist_8h.html" target="_top" xlink:title=" ">
<polygon fill="none" stroke="black" points="370,-302.5 370,-321.5 501,-321.5 501,-302.5 370,-302.5"/>
<text text-anchor="middle" x="435.5" y="-309.5" font-family="Helvetica,sans-Serif" font-size="10.00">src/widgets/mxwidgetlist.h</text>
</a>
</g>
</g>
<!-- Node28&#45;&gt;Node55 -->
<g id="edge65" class="edge">
<title>Node28&#45;&gt;Node55</title>
<path fill="none" stroke="midnightblue" d="M912.94,-361.1C821.43,-352.97 653.01,-337.58 509.5,-322 506.8,-321.71 504.04,-321.4 501.26,-321.09"/>
<polygon fill="midnightblue" stroke="midnightblue" points="912.9,-364.61 923.17,-362 913.52,-357.63 912.9,-364.61"/>
</g>
<!-- Node31 -->
<g id="node30" class="node">
<title>Node31</title>
<g id="a_node30"><a xlink:href="gui_2mxwidget_8h.html" target="_top" xlink:title=" ">
<polygon fill="none" stroke="black" points="1130.5,-241 1130.5,-260 1228.5,-260 1228.5,-241 1130.5,-241"/>
<text text-anchor="middle" x="1179.5" y="-248" font-family="Helvetica,sans-Serif" font-size="10.00">src/gui/mxwidget.h</text>
</a>
</g>
</g>
<!-- Node30&#45;&gt;Node31 -->
<g id="edge37" class="edge">
<title>Node30&#45;&gt;Node31</title>
<path fill="none" stroke="midnightblue" d="M1179.5,-292.32C1179.5,-281.5 1179.5,-268.4 1179.5,-260.01"/>
<polygon fill="midnightblue" stroke="midnightblue" points="1176,-292.48 1179.5,-302.48 1183,-292.48 1176,-292.48"/>
</g>
<!-- Node32 -->
<g id="node31" class="node">
<title>Node32</title>
<g id="a_node31"><a xlink:href="gui_2mxwidget_8cpp.html" target="_top" xlink:title=" ">
<polygon fill="none" stroke="black" points="1125.5,-174 1125.5,-193 1233.5,-193 1233.5,-174 1125.5,-174"/>
<text text-anchor="middle" x="1179.5" y="-181" font-family="Helvetica,sans-Serif" font-size="10.00">src/gui/mxwidget.cpp</text>
</a>
</g>
</g>
<!-- Node31&#45;&gt;Node32 -->
<g id="edge38" class="edge">
<title>Node31&#45;&gt;Node32</title>
<path fill="none" stroke="midnightblue" d="M1179.5,-230.54C1179.5,-218.17 1179.5,-202.62 1179.5,-193.13"/>
<polygon fill="midnightblue" stroke="midnightblue" points="1176,-230.73 1179.5,-240.73 1183,-230.73 1176,-230.73"/>
</g>
<!-- Node33&#45;&gt;Node15 -->
<g id="edge41" class="edge">
<title>Node33&#45;&gt;Node15</title>
<path fill="none" stroke="midnightblue" d="M2822.13,-163.76C2821.56,-147.32 2817.81,-124.19 2802.5,-112 2759.16,-77.47 1951.16,-69.2 1694.24,-67.43"/>
<polygon fill="midnightblue" stroke="midnightblue" points="2818.63,-163.85 2822.12,-173.85 2825.63,-163.86 2818.63,-163.85"/>
</g>
<!-- Node34 -->
<g id="node33" class="node">
<title>Node34</title>
<g id="a_node33"><a xlink:href="mxiconatlas_8cpp.html" target="_top" xlink:title=" ">
<polygon fill="none" stroke="black" points="2648,-112.5 2648,-131.5 2793,-131.5 2793,-112.5 2648,-112.5"/>
<text text-anchor="middle" x="2720.5" y="-119.5" font-family="Helvetica,sans-Serif" font-size="10.00">src/iconatlas/mxiconatlas.cpp</text>
</a>
</g>
</g>
<!-- Node33&#45;&gt;Node34 -->
<g id="edge40" class="edge">
<title>Node33&#45;&gt;Node34</title>
<path fill="none" stroke="midnightblue" d="M2798.15,-168.74C2778.64,-157.25 2751.43,-141.22 2734.94,-131.51"/>
<polygon fill="midnightblue" stroke="midnightblue" points="2796.64,-171.91 2807.03,-173.98 2800.19,-165.88 2796.64,-171.91"/>
</g>
<!-- Node35&#45;&gt;Node9 -->
<g id="edge43" class="edge">
<title>Node35&#45;&gt;Node9</title>
<path fill="none" stroke="midnightblue" d="M1926,-249.03C1784.04,-247.25 1418.68,-238.85 1116.5,-199 1113.67,-198.63 1110.78,-198.2 1107.87,-197.74"/>
<polygon fill="midnightblue" stroke="midnightblue" points="1926.2,-252.53 1936.24,-249.15 1926.28,-245.53 1926.2,-252.53"/>
</g>
<!-- Node35&#45;&gt;Node33 -->
<g id="edge50" class="edge">
<title>Node35&#45;&gt;Node33</title>
<path fill="none" stroke="midnightblue" d="M2046.95,-247.98C2175.82,-244.2 2486.92,-232.14 2745.5,-199 2757.36,-197.48 2770.16,-195.26 2781.81,-193.02"/>
<polygon fill="midnightblue" stroke="midnightblue" points="2046.78,-244.49 2036.88,-248.27 2046.98,-251.48 2046.78,-244.49"/>
</g>
<!-- Node36 -->
<g id="node35" class="node">
<title>Node36</title>
<g id="a_node35"><a xlink:href="mxguirenderer_8h.html" target="_top" xlink:title=" ">
<polygon fill="none" stroke="black" points="1252,-174 1252,-193 1369,-193 1369,-174 1252,-174"/>
<text text-anchor="middle" x="1310.5" y="-181" font-family="Helvetica,sans-Serif" font-size="10.00">src/gui/mxguirenderer.h</text>
</a>
</g>
</g>
<!-- Node35&#45;&gt;Node36 -->
<g id="edge44" class="edge">
<title>Node35&#45;&gt;Node36</title>
<path fill="none" stroke="midnightblue" d="M1926,-247.03C1816.36,-241.98 1577.71,-228.39 1378.5,-199 1367.99,-197.45 1356.67,-195.25 1346.34,-193.03"/>
<polygon fill="midnightblue" stroke="midnightblue" points="1926.06,-250.53 1936.21,-247.49 1926.37,-243.54 1926.06,-250.53"/>
</g>
<!-- Node38 -->
<g id="node37" class="node">
<title>Node38</title>
<g id="a_node37"><a xlink:href="mxicondraw_8cpp.html" target="_top" xlink:title=" ">
<polygon fill="none" stroke="black" points="1387,-174 1387,-193 1506,-193 1506,-174 1387,-174"/>
<text text-anchor="middle" x="1446.5" y="-181" font-family="Helvetica,sans-Serif" font-size="10.00">src/gui/mxicondraw.cpp</text>
</a>
</g>
</g>
<!-- Node35&#45;&gt;Node38 -->
<g id="edge48" class="edge">
<title>Node35&#45;&gt;Node38</title>
<path fill="none" stroke="midnightblue" d="M1926.44,-245C1836.68,-237.84 1662.35,-222.24 1515.5,-199 1505.1,-197.35 1493.9,-195.18 1483.62,-193.01"/>
<polygon fill="midnightblue" stroke="midnightblue" points="1926.19,-248.49 1936.44,-245.79 1926.74,-241.52 1926.19,-248.49"/>
</g>
<!-- Node39 -->
<g id="node38" class="node">
<title>Node39</title>
<g id="a_node38"><a xlink:href="mxvectordraw_8cpp.html" target="_top" xlink:title=" ">
<polygon fill="none" stroke="black" points="1524.5,-174 1524.5,-193 1652.5,-193 1652.5,-174 1524.5,-174"/>
<text text-anchor="middle" x="1588.5" y="-181" font-family="Helvetica,sans-Serif" font-size="10.00">src/gui/mxvectordraw.cpp</text>
</a>
</g>
</g>
<!-- Node35&#45;&gt;Node39 -->
<g id="edge49" class="edge">
<title>Node35&#45;&gt;Node39</title>
<path fill="none" stroke="midnightblue" d="M1926.36,-240.84C1861.22,-231.3 1754.31,-215.14 1662.5,-199 1652.19,-197.19 1641.09,-195.09 1630.71,-193.07"/>
<polygon fill="midnightblue" stroke="midnightblue" points="1926.05,-244.33 1936.45,-242.31 1927.06,-237.41 1926.05,-244.33"/>
</g>
<!-- Node40 -->
<g id="node39" class="node">
<title>Node40</title>
<g id="a_node39"><a xlink:href="mxcolorwheelprogram_8cpp.html" target="_top" xlink:title=" ">
<polygon fill="none" stroke="black" points="1671,-168.5 1671,-198.5 1888,-198.5 1888,-168.5 1671,-168.5"/>
<text text-anchor="start" x="1679" y="-186.5" font-family="Helvetica,sans-Serif" font-size="10.00">src/renderer/opengl</text>
<text text-anchor="middle" x="1779.5" y="-175.5" font-family="Helvetica,sans-Serif" font-size="10.00">/colorwheelprogram/mxcolorwheelprogram.cpp</text>
</a>
</g>
</g>
<!-- Node35&#45;&gt;Node40 -->
<g id="edge51" class="edge">
<title>Node35&#45;&gt;Node40</title>
<path fill="none" stroke="midnightblue" d="M1932.18,-232.44C1898.63,-221.91 1856.09,-208.55 1824.44,-198.61"/>
<polygon fill="midnightblue" stroke="midnightblue" points="1931.25,-235.82 1941.84,-235.48 1933.35,-229.14 1931.25,-235.82"/>
</g>
<!-- Node41 -->
<g id="node40" class="node">
<title>Node41</title>
<g id="a_node40"><a xlink:href="mxiconprogram_8cpp.html" target="_top" xlink:title=" ">
<polygon fill="none" stroke="black" points="1906.5,-168.5 1906.5,-198.5 2066.5,-198.5 2066.5,-168.5 1906.5,-168.5"/>
<text text-anchor="start" x="1914.5" y="-186.5" font-family="Helvetica,sans-Serif" font-size="10.00">src/renderer/opengl</text>
<text text-anchor="middle" x="1986.5" y="-175.5" font-family="Helvetica,sans-Serif" font-size="10.00">/iconprogram/mxiconprogram.cpp</text>
</a>
</g>
</g>
<!-- Node35&#45;&gt;Node41 -->
<g id="edge52" class="edge">
<title>Node35&#45;&gt;Node41</title>
<path fill="none" stroke="midnightblue" d="M1986.5,-225.11C1986.5,-216.15 1986.5,-206.32 1986.5,-198.58"/>
<polygon fill="midnightblue" stroke="midnightblue" points="1983,-225.4 1986.5,-235.4 1990,-225.4 1983,-225.4"/>
</g>
<!-- Node42 -->
<g id="node41" class="node">
<title>Node42</title>
<g id="a_node41"><a xlink:href="mxgpuarray_8cpp.html" target="_top" xlink:title=" ">
<polygon fill="none" stroke="black" points="2084.5,-168.5 2084.5,-198.5 2184.5,-198.5 2184.5,-168.5 2084.5,-168.5"/>
<text text-anchor="start" x="2092.5" y="-186.5" font-family="Helvetica,sans-Serif" font-size="10.00">src/renderer/opengl</text>
<text text-anchor="middle" x="2134.5" y="-175.5" font-family="Helvetica,sans-Serif" font-size="10.00">/mxgpuarray.cpp</text>
</a>
</g>
</g>
<!-- Node35&#45;&gt;Node42 -->
<g id="edge53" class="edge">
<title>Node35&#45;&gt;Node42</title>
<path fill="none" stroke="midnightblue" d="M2028.01,-231.27C2051.58,-220.92 2080.64,-208.15 2102.45,-198.58"/>
<polygon fill="midnightblue" stroke="midnightblue" points="2026.36,-228.17 2018.61,-235.4 2029.18,-234.58 2026.36,-228.17"/>
</g>
<!-- Node43 -->
<g id="node42" class="node">
<title>Node43</title>
<g id="a_node42"><a xlink:href="mxgpuprogram_8cpp.html" target="_top" xlink:title=" ">
<polygon fill="none" stroke="black" points="2203,-168.5 2203,-198.5 2304,-198.5 2304,-168.5 2203,-168.5"/>
<text text-anchor="start" x="2211" y="-186.5" font-family="Helvetica,sans-Serif" font-size="10.00">src/renderer/opengl</text>
<text text-anchor="middle" x="2253.5" y="-175.5" font-family="Helvetica,sans-Serif" font-size="10.00">/mxgpuprogram.cpp</text>
</a>
</g>
</g>
<!-- Node35&#45;&gt;Node43 -->
<g id="edge54" class="edge">
<title>Node35&#45;&gt;Node43</title>
<path fill="none" stroke="midnightblue" d="M2046.47,-234.9C2093.45,-223.46 2158.11,-207.72 2202.6,-196.89"/>
<polygon fill="midnightblue" stroke="midnightblue" points="2045.61,-231.51 2036.72,-237.27 2047.26,-238.31 2045.61,-231.51"/>
</g>
<!-- Node44 -->
<g id="node43" class="node">
<title>Node44</title>
<g id="a_node43"><a xlink:href="mxrenderer_8cpp.html" target="_top" xlink:title=" ">
<polygon fill="none" stroke="black" points="2322.5,-168.5 2322.5,-198.5 2422.5,-198.5 2422.5,-168.5 2322.5,-168.5"/>
<text text-anchor="start" x="2330.5" y="-186.5" font-family="Helvetica,sans-Serif" font-size="10.00">src/renderer/opengl</text>
<text text-anchor="middle" x="2372.5" y="-175.5" font-family="Helvetica,sans-Serif" font-size="10.00">/mxrenderer.cpp</text>
</a>
</g>
</g>
<!-- Node35&#45;&gt;Node44 -->
<g id="edge55" class="edge">
<title>Node35&#45;&gt;Node44</title>
<path fill="none" stroke="midnightblue" d="M2046.79,-241.8C2112.61,-233.03 2221,-217.47 2313.5,-199 2316.4,-198.42 2319.36,-197.8 2322.35,-197.14"/>
<polygon fill="midnightblue" stroke="midnightblue" points="2046.05,-238.37 2036.6,-243.15 2046.97,-245.31 2046.05,-238.37"/>
</g>
<!-- Node45 -->
<g id="node44" class="node">
<title>Node45</title>
<g id="a_node44"><a xlink:href="mxtexture_8cpp.html" target="_top" xlink:title=" ">
<polygon fill="none" stroke="black" points="2440.5,-168.5 2440.5,-198.5 2540.5,-198.5 2540.5,-168.5 2440.5,-168.5"/>
<text text-anchor="start" x="2448.5" y="-186.5" font-family="Helvetica,sans-Serif" font-size="10.00">src/renderer/opengl</text>
<text text-anchor="middle" x="2490.5" y="-175.5" font-family="Helvetica,sans-Serif" font-size="10.00">/mxtexture.cpp</text>
</a>
</g>
</g>
<!-- Node35&#45;&gt;Node45 -->
<g id="edge56" class="edge">
<title>Node35&#45;&gt;Node45</title>
<path fill="none" stroke="midnightblue" d="M2046.6,-245.14C2132.44,-238.35 2294.88,-223.44 2431.5,-199 2434.41,-198.48 2437.38,-197.9 2440.38,-197.28"/>
<polygon fill="midnightblue" stroke="midnightblue" points="2046.22,-241.65 2036.52,-245.92 2046.76,-248.63 2046.22,-241.65"/>
</g>
<!-- Node46 -->
<g id="node45" class="node">
<title>Node46</title>
<g id="a_node45"><a xlink:href="mxvectorprogram_8cpp.html" target="_top" xlink:title=" ">
<polygon fill="none" stroke="black" points="2558.5,-168.5 2558.5,-198.5 2736.5,-198.5 2736.5,-168.5 2558.5,-168.5"/>
<text text-anchor="start" x="2566.5" y="-186.5" font-family="Helvetica,sans-Serif" font-size="10.00">src/renderer/opengl</text>
<text text-anchor="middle" x="2647.5" y="-175.5" font-family="Helvetica,sans-Serif" font-size="10.00">/vectorprogram/mxvectorprogram.cpp</text>
</a>
</g>
</g>
<!-- Node35&#45;&gt;Node46 -->
<g id="edge57" class="edge">
<title>Node35&#45;&gt;Node46</title>
<path fill="none" stroke="midnightblue" d="M2046.91,-245.23C2150.12,-237.67 2366.96,-220.67 2549.5,-199 2552.4,-198.66 2555.35,-198.29 2558.33,-197.92"/>
<polygon fill="midnightblue" stroke="midnightblue" points="2046.41,-241.75 2036.69,-245.97 2046.91,-248.73 2046.41,-241.75"/>
</g>
<!-- Node36&#45;&gt;Node11 -->
<g id="edge45" class="edge">
<title>Node36&#45;&gt;Node11</title>
<path fill="none" stroke="midnightblue" d="M1303.84,-164.5C1299.8,-153.55 1294.81,-140.07 1291.65,-131.51"/>
<polygon fill="midnightblue" stroke="midnightblue" points="1300.6,-165.81 1307.35,-173.98 1307.16,-163.38 1300.6,-165.81"/>
</g>
<!-- Node36&#45;&gt;Node16 -->
<g id="edge47" class="edge">
<title>Node36&#45;&gt;Node16</title>
<path fill="none" stroke="midnightblue" d="M1277.85,-170.43C1246.56,-158.87 1200.12,-141.71 1172.52,-131.51"/>
<polygon fill="midnightblue" stroke="midnightblue" points="1276.84,-173.79 1287.43,-173.98 1279.27,-167.23 1276.84,-173.79"/>
</g>
<!-- Node37 -->
<g id="node36" class="node">
<title>Node37</title>
<g id="a_node36"><a xlink:href="mxguirenderer_8cpp.html" target="_top" xlink:title=" ">
<polygon fill="none" stroke="black" points="1372.5,-112.5 1372.5,-131.5 1500.5,-131.5 1500.5,-112.5 1372.5,-112.5"/>
<text text-anchor="middle" x="1436.5" y="-119.5" font-family="Helvetica,sans-Serif" font-size="10.00">src/gui/mxguirenderer.cpp</text>
</a>
</g>
</g>
<!-- Node36&#45;&gt;Node37 -->
<g id="edge46" class="edge">
<title>Node36&#45;&gt;Node37</title>
<path fill="none" stroke="midnightblue" d="M1337.66,-169.67C1362.11,-158.13 1397.35,-141.49 1418.48,-131.51"/>
<polygon fill="midnightblue" stroke="midnightblue" points="1336.1,-166.54 1328.55,-173.98 1339.09,-172.87 1336.1,-166.54"/>
</g>
<!-- Node47&#45;&gt;Node11 -->
<g id="edge59" class="edge">
<title>Node47&#45;&gt;Node11</title>
<path fill="none" stroke="midnightblue" d="M1015.54,-294.69C989.4,-266.03 943.53,-206.06 976.5,-168 980.51,-163.37 1131.87,-143.16 1222.27,-131.46"/>
<polygon fill="midnightblue" stroke="midnightblue" points="1013.21,-297.32 1022.6,-302.21 1018.31,-292.53 1013.21,-297.32"/>
</g>
<!-- Node48 -->
<g id="node47" class="node">
<title>Node48</title>
<g id="a_node47"><a xlink:href="widgets_2mxwidget_8h.html" target="_top" xlink:title=" ">
<polygon fill="none" stroke="red" points="365,-241 365,-260 484,-260 484,-241 365,-241"/>
<text text-anchor="middle" x="424.5" y="-248" font-family="Helvetica,sans-Serif" font-size="10.00">src/widgets/mxwidget.h</text>
</a>
</g>
</g>
<!-- Node47&#45;&gt;Node48 -->
<g id="edge60" class="edge">
<title>Node47&#45;&gt;Node48</title>
<path fill="none" stroke="midnightblue" d="M946.85,-304.55C847.31,-296.69 677.19,-282.42 531.5,-266 516.04,-264.26 499.36,-262.12 483.87,-260.03"/>
<polygon fill="midnightblue" stroke="midnightblue" points="946.61,-308.04 956.85,-305.33 947.15,-301.06 946.61,-308.04"/>
</g>
<!-- Node48&#45;&gt;Node17 -->
<g id="edge63" class="edge">
<title>Node48&#45;&gt;Node17</title>
<path fill="none" stroke="midnightblue" d="M437.84,-232.62C459.4,-205.36 501.12,-152.58 517.58,-131.76"/>
<polygon fill="midnightblue" stroke="midnightblue" points="434.83,-230.79 431.37,-240.81 440.32,-235.13 434.83,-230.79"/>
</g>
<!-- Node48&#45;&gt;Node26 -->
<g id="edge64" class="edge">
<title>Node48&#45;&gt;Node26</title>
<path fill="none" stroke="midnightblue" d="M414.02,-232.03C406.47,-219.45 396.6,-203.01 390.68,-193.13"/>
<polygon fill="midnightblue" stroke="midnightblue" points="411.09,-233.96 419.24,-240.73 417.1,-230.36 411.09,-233.96"/>
</g>
<!-- Node49 -->
<g id="node48" class="node">
<title>Node49</title>
<g id="a_node48"><a xlink:href="mxbutton_8h.html" target="_top" xlink:title=" ">
<polygon fill="none" stroke="red" points="190,-174 190,-193 307,-193 307,-174 190,-174"/>
<text text-anchor="middle" x="248.5" y="-181" font-family="Helvetica,sans-Serif" font-size="10.00">src/widgets/mxbutton.h</text>
</a>
</g>
</g>
<!-- Node48&#45;&gt;Node49 -->
<g id="edge61" class="edge">
<title>Node48&#45;&gt;Node49</title>
<path fill="none" stroke="midnightblue" d="M391.39,-237.27C356.46,-224.37 302.32,-204.38 271.69,-193.06"/>
<polygon fill="midnightblue" stroke="midnightblue" points="390.54,-240.69 401.13,-240.87 392.96,-234.12 390.54,-240.69"/>
</g>
<!-- Node49&#45;&gt;Node27 -->
<g id="edge62" class="edge">
<title>Node49&#45;&gt;Node27</title>
<path fill="none" stroke="midnightblue" d="M212.5,-170.73C177.13,-159.17 124,-141.8 92.53,-131.51"/>
<polygon fill="midnightblue" stroke="midnightblue" points="211.83,-174.19 222.42,-173.98 214.01,-167.54 211.83,-174.19"/>
</g>
<!-- Node55&#45;&gt;Node48 -->
<g id="edge66" class="edge">
<title>Node55&#45;&gt;Node48</title>
<path fill="none" stroke="midnightblue" d="M432.05,-292.32C430.05,-281.5 427.62,-268.4 426.07,-260.01"/>
<polygon fill="midnightblue" stroke="midnightblue" points="428.66,-293.28 433.92,-302.48 435.55,-292.01 428.66,-293.28"/>
</g>
</g>
</svg>
