<?xml version="1.0" encoding="UTF-8" standalone="no"?>
<!DOCTYPE svg PUBLIC "-//W3C//DTD SVG 1.1//EN"
 "http://www.w3.org/Graphics/SVG/1.1/DTD/svg11.dtd">
<!-- Generated by graphviz version 2.44.0 ()
 -->
<!-- Title: src/containers/mxrefcounter.h Pages: 1 -->
<svg width="1542pt" height="486pt"
 viewBox="0.00 0.00 1541.50 486.00" xmlns="http://www.w3.org/2000/svg" xmlns:xlink="http://www.w3.org/1999/xlink">
<g id="graph0" class="graph" transform="scale(1 1) rotate(0) translate(4 482)">
<title>src/containers/mxrefcounter.h</title>
<!-- Node1 -->
<g id="node1" class="node">
<title>Node1</title>
<g id="a_node1"><a xlink:title=" ">
<polygon fill="#bfbfbf" stroke="black" points="593,-458.5 593,-477.5 738,-477.5 738,-458.5 593,-458.5"/>
<text text-anchor="middle" x="665.5" y="-465.5" font-family="Helvetica,sans-Serif" font-size="10.00">src/containers/mxrefcounter.h</text>
</a>
</g>
</g>
<!-- Node2 -->
<g id="node2" class="node">
<title>Node2</title>
<g id="a_node2"><a xlink:href="mxgenericstring_8h.html" target="_top" xlink:title=" ">
<polygon fill="none" stroke="black" points="468,-402.5 468,-421.5 625,-421.5 625,-402.5 468,-402.5"/>
<text text-anchor="middle" x="546.5" y="-409.5" font-family="Helvetica,sans-Serif" font-size="10.00">src/containers/mxgenericstring.h</text>
</a>
</g>
</g>
<!-- Node1&#45;&gt;Node2 -->
<g id="edge1" class="edge">
<title>Node1&#45;&gt;Node2</title>
<path fill="none" stroke="midnightblue" d="M637.36,-454.23C615.1,-444.13 584.64,-430.31 565.27,-421.52"/>
<polygon fill="midnightblue" stroke="midnightblue" points="636.09,-457.5 646.64,-458.44 638.98,-451.12 636.09,-457.5"/>
</g>
<!-- Node17 -->
<g id="node17" class="node">
<title>Node17</title>
<g id="a_node17"><a xlink:href="mxlist_8h.html" target="_top" xlink:title=" ">
<polygon fill="none" stroke="black" points="620.5,-290.5 620.5,-309.5 734.5,-309.5 734.5,-290.5 620.5,-290.5"/>
<text text-anchor="middle" x="677.5" y="-297.5" font-family="Helvetica,sans-Serif" font-size="10.00">src/containers/mxlist.h</text>
</a>
</g>
</g>
<!-- Node1&#45;&gt;Node17 -->
<g id="edge17" class="edge">
<title>Node1&#45;&gt;Node17</title>
<path fill="none" stroke="midnightblue" d="M666.88,-447.93C669.48,-411.92 675.03,-335.23 676.88,-309.57"/>
<polygon fill="midnightblue" stroke="midnightblue" points="663.38,-447.85 666.15,-458.08 670.36,-448.35 663.38,-447.85"/>
</g>
<!-- Node32 -->
<g id="node32" class="node">
<title>Node32</title>
<g id="a_node32"><a xlink:href="mxrefcounter_8cpp.html" target="_top" xlink:title=" ">
<polygon fill="none" stroke="black" points="694,-402.5 694,-421.5 849,-421.5 849,-402.5 694,-402.5"/>
<text text-anchor="middle" x="771.5" y="-409.5" font-family="Helvetica,sans-Serif" font-size="10.00">src/containers/mxrefcounter.cpp</text>
</a>
</g>
</g>
<!-- Node1&#45;&gt;Node32 -->
<g id="edge36" class="edge">
<title>Node1&#45;&gt;Node32</title>
<path fill="none" stroke="midnightblue" d="M691.56,-453.73C711.18,-443.73 737.53,-430.31 754.51,-421.65"/>
<polygon fill="midnightblue" stroke="midnightblue" points="689.85,-450.67 682.53,-458.32 693.03,-456.9 689.85,-450.67"/>
</g>
<!-- Node3 -->
<g id="node3" class="node">
<title>Node3</title>
<g id="a_node3"><a xlink:href="mxgenericstring_8cpp.html" target="_top" xlink:title=" ">
<polygon fill="none" stroke="black" points="299,-346.5 299,-365.5 466,-365.5 466,-346.5 299,-346.5"/>
<text text-anchor="middle" x="382.5" y="-353.5" font-family="Helvetica,sans-Serif" font-size="10.00">src/containers/mxgenericstring.cpp</text>
</a>
</g>
</g>
<!-- Node2&#45;&gt;Node3 -->
<g id="edge2" class="edge">
<title>Node2&#45;&gt;Node3</title>
<path fill="none" stroke="midnightblue" d="M510.98,-399.3C480.08,-389.13 436.03,-374.62 408.36,-365.52"/>
<polygon fill="midnightblue" stroke="midnightblue" points="509.92,-402.64 520.51,-402.44 512.11,-395.99 509.92,-402.64"/>
</g>
<!-- Node4 -->
<g id="node4" class="node">
<title>Node4</title>
<g id="a_node4"><a xlink:href="mxstring_8h.html" target="_top" xlink:title=" ">
<polygon fill="none" stroke="black" points="484,-346.5 484,-365.5 609,-365.5 609,-346.5 484,-346.5"/>
<text text-anchor="middle" x="546.5" y="-353.5" font-family="Helvetica,sans-Serif" font-size="10.00">src/containers/mxstring.h</text>
</a>
</g>
</g>
<!-- Node2&#45;&gt;Node4 -->
<g id="edge3" class="edge">
<title>Node2&#45;&gt;Node4</title>
<path fill="none" stroke="midnightblue" d="M546.5,-391.8C546.5,-382.91 546.5,-372.78 546.5,-365.75"/>
<polygon fill="midnightblue" stroke="midnightblue" points="543,-392.08 546.5,-402.08 550,-392.08 543,-392.08"/>
</g>
<!-- Node5 -->
<g id="node5" class="node">
<title>Node5</title>
<g id="a_node5"><a xlink:href="mxstring_8cpp.html" target="_top" xlink:title=" ">
<polygon fill="none" stroke="black" points="339.5,-290.5 339.5,-309.5 475.5,-309.5 475.5,-290.5 339.5,-290.5"/>
<text text-anchor="middle" x="407.5" y="-297.5" font-family="Helvetica,sans-Serif" font-size="10.00">src/containers/mxstring.cpp</text>
</a>
</g>
</g>
<!-- Node4&#45;&gt;Node5 -->
<g id="edge4" class="edge">
<title>Node4&#45;&gt;Node5</title>
<path fill="none" stroke="midnightblue" d="M515.02,-342.77C488.91,-332.63 452.46,-318.47 429.42,-309.52"/>
<polygon fill="midnightblue" stroke="midnightblue" points="513.89,-346.08 524.48,-346.44 516.42,-339.56 513.89,-346.08"/>
</g>
<!-- Node6 -->
<g id="node6" class="node">
<title>Node6</title>
<g id="a_node6"><a xlink:href="mxtextdraw_8h.html" target="_top" xlink:title=" ">
<polygon fill="none" stroke="black" points="493.5,-290.5 493.5,-309.5 599.5,-309.5 599.5,-290.5 493.5,-290.5"/>
<text text-anchor="middle" x="546.5" y="-297.5" font-family="Helvetica,sans-Serif" font-size="10.00">src/gui/mxtextdraw.h</text>
</a>
</g>
</g>
<!-- Node4&#45;&gt;Node6 -->
<g id="edge5" class="edge">
<title>Node4&#45;&gt;Node6</title>
<path fill="none" stroke="midnightblue" d="M546.5,-335.8C546.5,-326.91 546.5,-316.78 546.5,-309.75"/>
<polygon fill="midnightblue" stroke="midnightblue" points="543,-336.08 546.5,-346.08 550,-336.08 543,-336.08"/>
</g>
<!-- Node7 -->
<g id="node7" class="node">
<title>Node7</title>
<g id="a_node7"><a xlink:href="mxpainter_8h.html" target="_top" xlink:title=" ">
<polygon fill="none" stroke="black" points="497.5,-229 497.5,-248 595.5,-248 595.5,-229 497.5,-229"/>
<text text-anchor="middle" x="546.5" y="-236" font-family="Helvetica,sans-Serif" font-size="10.00">src/gui/mxpainter.h</text>
</a>
</g>
</g>
<!-- Node6&#45;&gt;Node7 -->
<g id="edge6" class="edge">
<title>Node6&#45;&gt;Node7</title>
<path fill="none" stroke="midnightblue" d="M546.5,-280.32C546.5,-269.5 546.5,-256.4 546.5,-248.01"/>
<polygon fill="midnightblue" stroke="midnightblue" points="543,-280.48 546.5,-290.48 550,-280.48 543,-280.48"/>
</g>
<!-- Node16 -->
<g id="node16" class="node">
<title>Node16</title>
<g id="a_node16"><a xlink:href="mxtextdraw_8cpp.html" target="_top" xlink:title=" ">
<polygon fill="none" stroke="black" points="230.5,-229 230.5,-248 346.5,-248 346.5,-229 230.5,-229"/>
<text text-anchor="middle" x="288.5" y="-236" font-family="Helvetica,sans-Serif" font-size="10.00">src/gui/mxtextdraw.cpp</text>
</a>
</g>
</g>
<!-- Node6&#45;&gt;Node16 -->
<g id="edge16" class="edge">
<title>Node6&#45;&gt;Node16</title>
<path fill="none" stroke="midnightblue" d="M499.61,-288.19C449.55,-276.64 371.25,-258.58 325.4,-248.01"/>
<polygon fill="midnightblue" stroke="midnightblue" points="499,-291.64 509.53,-290.48 500.58,-284.82 499,-291.64"/>
</g>
<!-- Node8 -->
<g id="node8" class="node">
<title>Node8</title>
<g id="a_node8"><a xlink:href="mxapplication_8h.html" target="_top" xlink:title=" ">
<polygon fill="none" stroke="black" points="349.5,-162 349.5,-181 481.5,-181 481.5,-162 349.5,-162"/>
<text text-anchor="middle" x="415.5" y="-169" font-family="Helvetica,sans-Serif" font-size="10.00">src/events/mxapplication.h</text>
</a>
</g>
</g>
<!-- Node7&#45;&gt;Node8 -->
<g id="edge7" class="edge">
<title>Node7&#45;&gt;Node8</title>
<path fill="none" stroke="midnightblue" d="M519.84,-224.27C493.9,-211.4 455.22,-192.21 432.97,-181.17"/>
<polygon fill="midnightblue" stroke="midnightblue" points="518.59,-227.56 529.1,-228.87 521.7,-221.29 518.59,-227.56"/>
</g>
<!-- Node15 -->
<g id="node15" class="node">
<title>Node15</title>
<g id="a_node15"><a xlink:href="mxpainter_8cpp.html" target="_top" xlink:title=" ">
<polygon fill="none" stroke="black" points="500,-162 500,-181 609,-181 609,-162 500,-162"/>
<text text-anchor="middle" x="554.5" y="-169" font-family="Helvetica,sans-Serif" font-size="10.00">src/gui/mxpainter.cpp</text>
</a>
</g>
</g>
<!-- Node7&#45;&gt;Node15 -->
<g id="edge15" class="edge">
<title>Node7&#45;&gt;Node15</title>
<path fill="none" stroke="midnightblue" d="M548.83,-218.54C550.36,-206.17 552.27,-190.62 553.44,-181.13"/>
<polygon fill="midnightblue" stroke="midnightblue" points="545.33,-218.38 547.58,-228.73 552.27,-219.24 545.33,-218.38"/>
</g>
<!-- Node9 -->
<g id="node9" class="node">
<title>Node9</title>
<g id="a_node9"><a xlink:href="mxapplication_8cpp.html" target="_top" xlink:title=" ">
<polygon fill="none" stroke="black" points="294,-89.5 294,-108.5 437,-108.5 437,-89.5 294,-89.5"/>
<text text-anchor="middle" x="365.5" y="-96.5" font-family="Helvetica,sans-Serif" font-size="10.00">src/events/mxapplication.cpp</text>
</a>
</g>
</g>
<!-- Node8&#45;&gt;Node9 -->
<g id="edge8" class="edge">
<title>Node8&#45;&gt;Node9</title>
<path fill="none" stroke="midnightblue" d="M403.44,-153.5C393.42,-139.37 379.58,-119.85 371.68,-108.72"/>
<polygon fill="midnightblue" stroke="midnightblue" points="400.73,-155.72 409.37,-161.86 406.44,-151.67 400.73,-155.72"/>
</g>
<!-- Node10 -->
<g id="node10" class="node">
<title>Node10</title>
<g id="a_node10"><a xlink:href="qmewawindow_8cpp.html" target="_top" xlink:title=" ">
<polygon fill="none" stroke="black" points="450.5,-6 450.5,-36 566.5,-36 566.5,-6 450.5,-6"/>
<text text-anchor="start" x="458.5" y="-24" font-family="Helvetica,sans-Serif" font-size="10.00">src/platformabstraction</text>
<text text-anchor="middle" x="508.5" y="-13" font-family="Helvetica,sans-Serif" font-size="10.00">/qt/qmewawindow.cpp</text>
</a>
</g>
</g>
<!-- Node8&#45;&gt;Node10 -->
<g id="edge9" class="edge">
<title>Node8&#45;&gt;Node10</title>
<path fill="none" stroke="midnightblue" d="M426.58,-152.81C445.18,-123.11 482.31,-63.82 499.45,-36.45"/>
<polygon fill="midnightblue" stroke="midnightblue" points="423.38,-151.32 421.04,-161.66 429.31,-155.04 423.38,-151.32"/>
</g>
<!-- Node11 -->
<g id="node11" class="node">
<title>Node11</title>
<g id="a_node11"><a xlink:href="qmewawindow_8h.html" target="_top" xlink:title=" ">
<polygon fill="none" stroke="black" points="493.5,-84 493.5,-114 609.5,-114 609.5,-84 493.5,-84"/>
<text text-anchor="start" x="501.5" y="-102" font-family="Helvetica,sans-Serif" font-size="10.00">src/platformabstraction</text>
<text text-anchor="middle" x="551.5" y="-91" font-family="Helvetica,sans-Serif" font-size="10.00">/qt/qmewawindow.h</text>
</a>
</g>
</g>
<!-- Node8&#45;&gt;Node11 -->
<g id="edge10" class="edge">
<title>Node8&#45;&gt;Node11</title>
<path fill="none" stroke="midnightblue" d="M441.02,-157.27C464.83,-144.93 500.21,-126.59 524.48,-114.01"/>
<polygon fill="midnightblue" stroke="midnightblue" points="439.17,-154.29 431.9,-162 442.39,-160.5 439.17,-154.29"/>
</g>
<!-- Node12 -->
<g id="node12" class="node">
<title>Node12</title>
<g id="a_node12"><a xlink:href="randomtextureapp_8h.html" target="_top" xlink:title=" ">
<polygon fill="none" stroke="black" points="627,-78.5 627,-119.5 786,-119.5 786,-78.5 627,-78.5"/>
<text text-anchor="start" x="635" y="-107.5" font-family="Helvetica,sans-Serif" font-size="10.00">src/renderer/direct12</text>
<text text-anchor="start" x="635" y="-96.5" font-family="Helvetica,sans-Serif" font-size="10.00">/iconprogram/test_randomtexture</text>
<text text-anchor="middle" x="706.5" y="-85.5" font-family="Helvetica,sans-Serif" font-size="10.00">/randomtextureapp.h</text>
</a>
</g>
</g>
<!-- Node8&#45;&gt;Node12 -->
<g id="edge12" class="edge">
<title>Node8&#45;&gt;Node12</title>
<path fill="none" stroke="midnightblue" d="M460.49,-159.6C504.76,-148.88 573.31,-132.27 626.81,-119.31"/>
<polygon fill="midnightblue" stroke="midnightblue" points="459.5,-156.24 450.6,-162 461.14,-163.04 459.5,-156.24"/>
</g>
<!-- Node11&#45;&gt;Node10 -->
<g id="edge11" class="edge">
<title>Node11&#45;&gt;Node10</title>
<path fill="none" stroke="midnightblue" d="M538.32,-74.7C531.21,-62.14 522.67,-47.04 516.55,-36.23"/>
<polygon fill="midnightblue" stroke="midnightblue" points="535.44,-76.73 543.41,-83.7 541.53,-73.28 535.44,-76.73"/>
</g>
<!-- Node13 -->
<g id="node13" class="node">
<title>Node13</title>
<g id="a_node13"><a xlink:href="direct12_2iconprogram_2test__randomtexture_2main_8cpp.html" target="_top" xlink:title=" ">
<polygon fill="none" stroke="black" points="605,-0.5 605,-41.5 764,-41.5 764,-0.5 605,-0.5"/>
<text text-anchor="start" x="613" y="-29.5" font-family="Helvetica,sans-Serif" font-size="10.00">src/renderer/direct12</text>
<text text-anchor="start" x="613" y="-18.5" font-family="Helvetica,sans-Serif" font-size="10.00">/iconprogram/test_randomtexture</text>
<text text-anchor="middle" x="684.5" y="-7.5" font-family="Helvetica,sans-Serif" font-size="10.00">/main.cpp</text>
</a>
</g>
</g>
<!-- Node12&#45;&gt;Node13 -->
<g id="edge13" class="edge">
<title>Node12&#45;&gt;Node13</title>
<path fill="none" stroke="midnightblue" d="M697.99,-68.59C695.36,-59.51 692.53,-49.74 690.15,-41.51"/>
<polygon fill="midnightblue" stroke="midnightblue" points="694.69,-69.8 700.83,-78.43 701.42,-67.85 694.69,-69.8"/>
</g>
<!-- Node14 -->
<g id="node14" class="node">
<title>Node14</title>
<g id="a_node14"><a xlink:href="randomtextureapp_8cpp.html" target="_top" xlink:title=" ">
<polygon fill="none" stroke="black" points="782,-0.5 782,-41.5 941,-41.5 941,-0.5 782,-0.5"/>
<text text-anchor="start" x="790" y="-29.5" font-family="Helvetica,sans-Serif" font-size="10.00">src/renderer/direct12</text>
<text text-anchor="start" x="790" y="-18.5" font-family="Helvetica,sans-Serif" font-size="10.00">/iconprogram/test_randomtexture</text>
<text text-anchor="middle" x="861.5" y="-7.5" font-family="Helvetica,sans-Serif" font-size="10.00">/randomtextureapp.cpp</text>
</a>
</g>
</g>
<!-- Node12&#45;&gt;Node14 -->
<g id="edge14" class="edge">
<title>Node12&#45;&gt;Node14</title>
<path fill="none" stroke="midnightblue" d="M755.63,-73.91C776.95,-63.46 801.58,-51.38 821.72,-41.51"/>
<polygon fill="midnightblue" stroke="midnightblue" points="753.85,-70.88 746.42,-78.43 756.94,-77.17 753.85,-70.88"/>
</g>
<!-- Node17&#45;&gt;Node7 -->
<g id="edge18" class="edge">
<title>Node17&#45;&gt;Node7</title>
<path fill="none" stroke="midnightblue" d="M649.6,-286.33C624.17,-274.78 587.3,-258.03 565.23,-248.01"/>
<polygon fill="midnightblue" stroke="midnightblue" points="648.18,-289.53 658.73,-290.48 651.07,-283.15 648.18,-289.53"/>
</g>
<!-- Node18 -->
<g id="node18" class="node">
<title>Node18</title>
<g id="a_node18"><a xlink:href="mxwidgetlist_8h.html" target="_top" xlink:title=" ">
<polygon fill="none" stroke="black" points="364.5,-229 364.5,-248 474.5,-248 474.5,-229 364.5,-229"/>
<text text-anchor="middle" x="419.5" y="-236" font-family="Helvetica,sans-Serif" font-size="10.00">src/gui/mxwidgetlist.h</text>
</a>
</g>
</g>
<!-- Node17&#45;&gt;Node18 -->
<g id="edge19" class="edge">
<title>Node17&#45;&gt;Node18</title>
<path fill="none" stroke="midnightblue" d="M630.61,-288.19C580.55,-276.64 502.25,-258.58 456.4,-248.01"/>
<polygon fill="midnightblue" stroke="midnightblue" points="630,-291.64 640.53,-290.48 631.58,-284.82 630,-291.64"/>
</g>
<!-- Node22 -->
<g id="node22" class="node">
<title>Node22</title>
<g id="a_node22"><a xlink:href="mxiconatlas_8h.html" target="_top" xlink:title=" ">
<polygon fill="none" stroke="black" points="613.5,-229 613.5,-248 747.5,-248 747.5,-229 613.5,-229"/>
<text text-anchor="middle" x="680.5" y="-236" font-family="Helvetica,sans-Serif" font-size="10.00">src/iconatlas/mxiconatlas.h</text>
</a>
</g>
</g>
<!-- Node17&#45;&gt;Node22 -->
<g id="edge25" class="edge">
<title>Node17&#45;&gt;Node22</title>
<path fill="none" stroke="midnightblue" d="M678.44,-280.32C678.99,-269.5 679.65,-256.4 680.07,-248.01"/>
<polygon fill="midnightblue" stroke="midnightblue" points="674.94,-280.31 677.93,-290.48 681.93,-280.66 674.94,-280.31"/>
</g>
<!-- Node24 -->
<g id="node24" class="node">
<title>Node24</title>
<g id="a_node24"><a xlink:href="direct12_2mxrenderer_8h.html" target="_top" xlink:title=" ">
<polygon fill="none" stroke="black" points="829.5,-223.5 829.5,-253.5 935.5,-253.5 935.5,-223.5 829.5,-223.5"/>
<text text-anchor="start" x="837.5" y="-241.5" font-family="Helvetica,sans-Serif" font-size="10.00">src/renderer/direct12</text>
<text text-anchor="middle" x="882.5" y="-230.5" font-family="Helvetica,sans-Serif" font-size="10.00">/mxrenderer.h</text>
</a>
</g>
</g>
<!-- Node17&#45;&gt;Node24 -->
<g id="edge28" class="edge">
<title>Node17&#45;&gt;Node24</title>
<path fill="none" stroke="midnightblue" d="M716.75,-287.61C750.19,-277.9 798.38,-263.92 834.19,-253.52"/>
<polygon fill="midnightblue" stroke="midnightblue" points="715.5,-284.33 706.87,-290.48 717.45,-291.05 715.5,-284.33"/>
</g>
<!-- Node27 -->
<g id="node27" class="node">
<title>Node27</title>
<g id="a_node27"><a xlink:href="opengl_2mxrenderer_8h.html" target="_top" xlink:title=" ">
<polygon fill="none" stroke="black" points="1196.5,-223.5 1196.5,-253.5 1296.5,-253.5 1296.5,-223.5 1196.5,-223.5"/>
<text text-anchor="start" x="1204.5" y="-241.5" font-family="Helvetica,sans-Serif" font-size="10.00">src/renderer/opengl</text>
<text text-anchor="middle" x="1246.5" y="-230.5" font-family="Helvetica,sans-Serif" font-size="10.00">/mxrenderer.h</text>
</a>
</g>
</g>
<!-- Node17&#45;&gt;Node27 -->
<g id="edge31" class="edge">
<title>Node17&#45;&gt;Node27</title>
<path fill="none" stroke="midnightblue" d="M744.8,-291.96C860.34,-279.88 1093.89,-255.46 1196.37,-244.74"/>
<polygon fill="midnightblue" stroke="midnightblue" points="744.24,-288.5 734.66,-293.02 744.97,-295.46 744.24,-288.5"/>
</g>
<!-- Node18&#45;&gt;Node8 -->
<g id="edge20" class="edge">
<title>Node18&#45;&gt;Node8</title>
<path fill="none" stroke="midnightblue" d="M418.33,-218.54C417.57,-206.17 416.62,-190.62 416.03,-181.13"/>
<polygon fill="midnightblue" stroke="midnightblue" points="414.85,-218.97 418.96,-228.73 421.84,-218.54 414.85,-218.97"/>
</g>
<!-- Node19 -->
<g id="node19" class="node">
<title>Node19</title>
<g id="a_node19"><a xlink:href="mxwidget_8h.html" target="_top" xlink:title=" ">
<polygon fill="none" stroke="black" points="228.5,-162 228.5,-181 326.5,-181 326.5,-162 228.5,-162"/>
<text text-anchor="middle" x="277.5" y="-169" font-family="Helvetica,sans-Serif" font-size="10.00">src/gui/mxwidget.h</text>
</a>
</g>
</g>
<!-- Node18&#45;&gt;Node19 -->
<g id="edge21" class="edge">
<title>Node18&#45;&gt;Node19</title>
<path fill="none" stroke="midnightblue" d="M391.35,-224.61C363.22,-211.74 320.77,-192.31 296.43,-181.17"/>
<polygon fill="midnightblue" stroke="midnightblue" points="390.09,-227.89 400.64,-228.87 393.01,-221.52 390.09,-227.89"/>
</g>
<!-- Node19&#45;&gt;Node9 -->
<g id="edge22" class="edge">
<title>Node19&#45;&gt;Node9</title>
<path fill="none" stroke="midnightblue" d="M296.26,-155.47C314.01,-141.25 340.06,-120.38 354.62,-108.72"/>
<polygon fill="midnightblue" stroke="midnightblue" points="293.91,-152.87 288.29,-161.86 298.28,-158.33 293.91,-152.87"/>
</g>
<!-- Node20 -->
<g id="node20" class="node">
<title>Node20</title>
<g id="a_node20"><a xlink:href="mxmouseevent_8cpp.html" target="_top" xlink:title=" ">
<polygon fill="none" stroke="black" points="0,-89.5 0,-108.5 149,-108.5 149,-89.5 0,-89.5"/>
<text text-anchor="middle" x="74.5" y="-96.5" font-family="Helvetica,sans-Serif" font-size="10.00">src/events/mxmouseevent.cpp</text>
</a>
</g>
</g>
<!-- Node19&#45;&gt;Node20 -->
<g id="edge23" class="edge">
<title>Node19&#45;&gt;Node20</title>
<path fill="none" stroke="midnightblue" d="M243.49,-158.69C202.65,-144.51 135.17,-121.07 99.07,-108.53"/>
<polygon fill="midnightblue" stroke="midnightblue" points="242.42,-162.02 253.01,-162 244.72,-155.41 242.42,-162.02"/>
</g>
<!-- Node21 -->
<g id="node21" class="node">
<title>Node21</title>
<g id="a_node21"><a xlink:href="mxwidget_8cpp.html" target="_top" xlink:title=" ">
<polygon fill="none" stroke="black" points="167.5,-89.5 167.5,-108.5 275.5,-108.5 275.5,-89.5 167.5,-89.5"/>
<text text-anchor="middle" x="221.5" y="-96.5" font-family="Helvetica,sans-Serif" font-size="10.00">src/gui/mxwidget.cpp</text>
</a>
</g>
</g>
<!-- Node19&#45;&gt;Node21 -->
<g id="edge24" class="edge">
<title>Node19&#45;&gt;Node21</title>
<path fill="none" stroke="midnightblue" d="M264.31,-153.9C253.07,-139.74 237.35,-119.96 228.42,-108.72"/>
<polygon fill="midnightblue" stroke="midnightblue" points="261.67,-156.2 270.63,-161.86 267.15,-151.85 261.67,-156.2"/>
</g>
<!-- Node22&#45;&gt;Node11 -->
<g id="edge27" class="edge">
<title>Node22&#45;&gt;Node11</title>
<path fill="none" stroke="midnightblue" d="M669.24,-220.49C657.53,-203.37 638.19,-176.61 618.5,-156 603.63,-140.43 584.64,-124.91 570.68,-114.16"/>
<polygon fill="midnightblue" stroke="midnightblue" points="666.42,-222.58 674.91,-228.91 672.23,-218.66 666.42,-222.58"/>
</g>
<!-- Node23 -->
<g id="node23" class="node">
<title>Node23</title>
<g id="a_node23"><a xlink:href="mxiconatlas_8cpp.html" target="_top" xlink:title=" ">
<polygon fill="none" stroke="black" points="666,-162 666,-181 811,-181 811,-162 666,-162"/>
<text text-anchor="middle" x="738.5" y="-169" font-family="Helvetica,sans-Serif" font-size="10.00">src/iconatlas/mxiconatlas.cpp</text>
</a>
</g>
</g>
<!-- Node22&#45;&gt;Node23 -->
<g id="edge26" class="edge">
<title>Node22&#45;&gt;Node23</title>
<path fill="none" stroke="midnightblue" d="M695.1,-221.13C706.45,-208.42 721.73,-191.3 730.8,-181.13"/>
<polygon fill="midnightblue" stroke="midnightblue" points="692.37,-218.94 688.32,-228.73 697.59,-223.6 692.37,-218.94"/>
</g>
<!-- Node25 -->
<g id="node25" class="node">
<title>Node25</title>
<g id="a_node25"><a xlink:href="direct12_2mxrenderer_8cpp.html" target="_top" xlink:title=" ">
<polygon fill="none" stroke="black" points="829.5,-156.5 829.5,-186.5 935.5,-186.5 935.5,-156.5 829.5,-156.5"/>
<text text-anchor="start" x="837.5" y="-174.5" font-family="Helvetica,sans-Serif" font-size="10.00">src/renderer/direct12</text>
<text text-anchor="middle" x="882.5" y="-163.5" font-family="Helvetica,sans-Serif" font-size="10.00">/mxrenderer.cpp</text>
</a>
</g>
</g>
<!-- Node24&#45;&gt;Node25 -->
<g id="edge29" class="edge">
<title>Node24&#45;&gt;Node25</title>
<path fill="none" stroke="midnightblue" d="M882.5,-213.11C882.5,-204.15 882.5,-194.32 882.5,-186.58"/>
<polygon fill="midnightblue" stroke="midnightblue" points="879,-213.4 882.5,-223.4 886,-213.4 879,-213.4"/>
</g>
<!-- Node26 -->
<g id="node26" class="node">
<title>Node26</title>
<g id="a_node26"><a xlink:href="direct12_2mxtexture_8cpp.html" target="_top" xlink:title=" ">
<polygon fill="none" stroke="black" points="953.5,-156.5 953.5,-186.5 1059.5,-186.5 1059.5,-156.5 953.5,-156.5"/>
<text text-anchor="start" x="961.5" y="-174.5" font-family="Helvetica,sans-Serif" font-size="10.00">src/renderer/direct12</text>
<text text-anchor="middle" x="1006.5" y="-163.5" font-family="Helvetica,sans-Serif" font-size="10.00">/mxtexture.cpp</text>
</a>
</g>
</g>
<!-- Node24&#45;&gt;Node26 -->
<g id="edge30" class="edge">
<title>Node24&#45;&gt;Node26</title>
<path fill="none" stroke="midnightblue" d="M918.34,-218.71C937.89,-208.46 961.7,-195.98 979.65,-186.58"/>
<polygon fill="midnightblue" stroke="midnightblue" points="916.64,-215.65 909.41,-223.4 919.89,-221.85 916.64,-215.65"/>
</g>
<!-- Node28 -->
<g id="node28" class="node">
<title>Node28</title>
<g id="a_node28"><a xlink:href="opengl_2mxgpuarray_8cpp.html" target="_top" xlink:title=" ">
<polygon fill="none" stroke="black" points="1077.5,-156.5 1077.5,-186.5 1177.5,-186.5 1177.5,-156.5 1077.5,-156.5"/>
<text text-anchor="start" x="1085.5" y="-174.5" font-family="Helvetica,sans-Serif" font-size="10.00">src/renderer/opengl</text>
<text text-anchor="middle" x="1127.5" y="-163.5" font-family="Helvetica,sans-Serif" font-size="10.00">/mxgpuarray.cpp</text>
</a>
</g>
</g>
<!-- Node27&#45;&gt;Node28 -->
<g id="edge32" class="edge">
<title>Node27&#45;&gt;Node28</title>
<path fill="none" stroke="midnightblue" d="M1211.85,-218.57C1193.13,-208.35 1170.41,-195.94 1153.27,-186.58"/>
<polygon fill="midnightblue" stroke="midnightblue" points="1210.22,-221.67 1220.68,-223.4 1213.58,-215.53 1210.22,-221.67"/>
</g>
<!-- Node29 -->
<g id="node29" class="node">
<title>Node29</title>
<g id="a_node29"><a xlink:href="opengl_2mxgpuprogram_8cpp.html" target="_top" xlink:title=" ">
<polygon fill="none" stroke="black" points="1196,-156.5 1196,-186.5 1297,-186.5 1297,-156.5 1196,-156.5"/>
<text text-anchor="start" x="1204" y="-174.5" font-family="Helvetica,sans-Serif" font-size="10.00">src/renderer/opengl</text>
<text text-anchor="middle" x="1246.5" y="-163.5" font-family="Helvetica,sans-Serif" font-size="10.00">/mxgpuprogram.cpp</text>
</a>
</g>
</g>
<!-- Node27&#45;&gt;Node29 -->
<g id="edge33" class="edge">
<title>Node27&#45;&gt;Node29</title>
<path fill="none" stroke="midnightblue" d="M1246.5,-213.11C1246.5,-204.15 1246.5,-194.32 1246.5,-186.58"/>
<polygon fill="midnightblue" stroke="midnightblue" points="1243,-213.4 1246.5,-223.4 1250,-213.4 1243,-213.4"/>
</g>
<!-- Node30 -->
<g id="node30" class="node">
<title>Node30</title>
<g id="a_node30"><a xlink:href="opengl_2mxrenderer_8cpp.html" target="_top" xlink:title=" ">
<polygon fill="none" stroke="black" points="1315.5,-156.5 1315.5,-186.5 1415.5,-186.5 1415.5,-156.5 1315.5,-156.5"/>
<text text-anchor="start" x="1323.5" y="-174.5" font-family="Helvetica,sans-Serif" font-size="10.00">src/renderer/opengl</text>
<text text-anchor="middle" x="1365.5" y="-163.5" font-family="Helvetica,sans-Serif" font-size="10.00">/mxrenderer.cpp</text>
</a>
</g>
</g>
<!-- Node27&#45;&gt;Node30 -->
<g id="edge34" class="edge">
<title>Node27&#45;&gt;Node30</title>
<path fill="none" stroke="midnightblue" d="M1281.15,-218.57C1299.87,-208.35 1322.59,-195.94 1339.73,-186.58"/>
<polygon fill="midnightblue" stroke="midnightblue" points="1279.42,-215.53 1272.32,-223.4 1282.78,-221.67 1279.42,-215.53"/>
</g>
<!-- Node31 -->
<g id="node31" class="node">
<title>Node31</title>
<g id="a_node31"><a xlink:href="opengl_2mxtexture_8cpp.html" target="_top" xlink:title=" ">
<polygon fill="none" stroke="black" points="1433.5,-156.5 1433.5,-186.5 1533.5,-186.5 1533.5,-156.5 1433.5,-156.5"/>
<text text-anchor="start" x="1441.5" y="-174.5" font-family="Helvetica,sans-Serif" font-size="10.00">src/renderer/opengl</text>
<text text-anchor="middle" x="1483.5" y="-163.5" font-family="Helvetica,sans-Serif" font-size="10.00">/mxtexture.cpp</text>
</a>
</g>
</g>
<!-- Node27&#45;&gt;Node31 -->
<g id="edge35" class="edge">
<title>Node27&#45;&gt;Node31</title>
<path fill="none" stroke="midnightblue" d="M1306.46,-221.05C1345.65,-210.31 1396.25,-196.43 1433.31,-186.26"/>
<polygon fill="midnightblue" stroke="midnightblue" points="1305.48,-217.69 1296.76,-223.72 1307.33,-224.45 1305.48,-217.69"/>
</g>
</g>
</svg>
