<?xml version="1.0" encoding="UTF-8" standalone="no"?>
<!DOCTYPE svg PUBLIC "-//W3C//DTD SVG 1.1//EN"
 "http://www.w3.org/Graphics/SVG/1.1/DTD/svg11.dtd">
<!-- Generated by graphviz version 2.44.0 ()
 -->
<!-- Title: src/renderer/opengl/mxrenderer.h Pages: 1 -->
<svg width="1004pt" height="431pt"
 viewBox="0.00 0.00 1004.00 431.00" xmlns="http://www.w3.org/2000/svg" xmlns:xlink="http://www.w3.org/1999/xlink">
<g id="graph0" class="graph" transform="scale(1 1) rotate(0) translate(4 427)">
<title>src/renderer/opengl/mxrenderer.h</title>
<!-- Node1 -->
<g id="node1" class="node">
<title>Node1</title>
<g id="a_node1"><a xlink:title=" ">
<polygon fill="#bfbfbf" stroke="black" points="212.5,-392.5 212.5,-422.5 312.5,-422.5 312.5,-392.5 212.5,-392.5"/>
<text text-anchor="start" x="220.5" y="-410.5" font-family="Helvetica,sans-Serif" font-size="10.00">src/renderer/opengl</text>
<text text-anchor="middle" x="262.5" y="-399.5" font-family="Helvetica,sans-Serif" font-size="10.00">/mxrenderer.h</text>
</a>
</g>
</g>
<!-- Node2 -->
<g id="node2" class="node">
<title>Node2</title>
<g id="a_node2"><a xlink:href="mxopenglfunctions_8h.html" target="_top" xlink:title=" ">
<polygon fill="none" stroke="black" points="15,-336.5 15,-355.5 120,-355.5 120,-336.5 15,-336.5"/>
<text text-anchor="middle" x="67.5" y="-343.5" font-family="Helvetica,sans-Serif" font-size="10.00">mxopenglfunctions.h</text>
</a>
</g>
</g>
<!-- Node1&#45;&gt;Node2 -->
<g id="edge1" class="edge">
<title>Node1&#45;&gt;Node2</title>
<path fill="none" stroke="midnightblue" d="M216.29,-392.4C182.45,-382.07 137.08,-368.23 105.37,-358.56"/>
<polygon fill="midnightblue" stroke="midnightblue" points="106.18,-355.14 95.59,-355.57 104.13,-361.84 106.18,-355.14"/>
</g>
<!-- Node4 -->
<g id="node4" class="node">
<title>Node4</title>
<g id="a_node4"><a xlink:href="mxcolorwheelprogram_8h.html" target="_top" xlink:title=" ">
<polygon fill="none" stroke="black" points="263,-224.5 263,-243.5 382,-243.5 382,-224.5 263,-224.5"/>
<text text-anchor="middle" x="322.5" y="-231.5" font-family="Helvetica,sans-Serif" font-size="10.00">mxcolorwheelprogram.h</text>
</a>
</g>
</g>
<!-- Node1&#45;&gt;Node4 -->
<g id="edge3" class="edge">
<title>Node1&#45;&gt;Node4</title>
<path fill="none" stroke="midnightblue" d="M248.15,-392.29C225.26,-367.87 185.5,-316.98 210.5,-280 221.49,-263.74 239.44,-253.35 257.77,-246.72"/>
<polygon fill="midnightblue" stroke="midnightblue" points="258.95,-250.02 267.36,-243.58 256.77,-243.36 258.95,-250.02"/>
</g>
<!-- Node14 -->
<g id="node14" class="node">
<title>Node14</title>
<g id="a_node14"><a xlink:href="mxvectorprogram_8h.html" target="_top" xlink:title=" ">
<polygon fill="none" stroke="black" points="252,-336.5 252,-355.5 351,-355.5 351,-336.5 252,-336.5"/>
<text text-anchor="middle" x="301.5" y="-343.5" font-family="Helvetica,sans-Serif" font-size="10.00">mxvectorprogram.h</text>
</a>
</g>
</g>
<!-- Node1&#45;&gt;Node14 -->
<g id="edge17" class="edge">
<title>Node1&#45;&gt;Node14</title>
<path fill="none" stroke="midnightblue" d="M271.74,-392.4C277.29,-383.93 284.39,-373.1 290.27,-364.14"/>
<polygon fill="midnightblue" stroke="midnightblue" points="293.27,-365.94 295.83,-355.66 287.42,-362.1 293.27,-365.94"/>
</g>
<!-- Node16 -->
<g id="node16" class="node">
<title>Node16</title>
<g id="a_node16"><a xlink:href="mxcachedgpuarray_8h.html" target="_top" xlink:title=" ">
<polygon fill="none" stroke="black" points="101,-224.5 101,-243.5 206,-243.5 206,-224.5 101,-224.5"/>
<text text-anchor="middle" x="153.5" y="-231.5" font-family="Helvetica,sans-Serif" font-size="10.00">mxcachedgpuarray.h</text>
</a>
</g>
</g>
<!-- Node1&#45;&gt;Node16 -->
<g id="edge32" class="edge">
<title>Node1&#45;&gt;Node16</title>
<path fill="none" stroke="midnightblue" d="M242.93,-392.3C231.18,-383 216.61,-370.01 206.5,-356 182.88,-323.26 166.68,-278.33 158.87,-253.46"/>
<polygon fill="midnightblue" stroke="midnightblue" points="162.12,-252.11 155.87,-243.56 155.42,-254.14 162.12,-252.11"/>
</g>
<!-- Node18 -->
<g id="node18" class="node">
<title>Node18</title>
<g id="a_node18"><a xlink:href="mxlist_8h.html" target="_top" xlink:title=" ">
<polygon fill="none" stroke="black" points="786.5,-336.5 786.5,-355.5 836.5,-355.5 836.5,-336.5 786.5,-336.5"/>
<text text-anchor="middle" x="811.5" y="-343.5" font-family="Helvetica,sans-Serif" font-size="10.00">mxlist.h</text>
</a>
</g>
</g>
<!-- Node1&#45;&gt;Node18 -->
<g id="edge26" class="edge">
<title>Node1&#45;&gt;Node18</title>
<path fill="none" stroke="midnightblue" d="M312.68,-401.06C422.4,-389.17 681.42,-361.1 776.08,-350.84"/>
<polygon fill="midnightblue" stroke="midnightblue" points="776.7,-354.29 786.27,-349.73 775.95,-347.33 776.7,-354.29"/>
</g>
<!-- Node23 -->
<g id="node23" class="node">
<title>Node23</title>
<g id="a_node23"><a xlink:href="mxiconprogram_8h.html" target="_top" xlink:title=" ">
<polygon fill="none" stroke="black" points="476.5,-224.5 476.5,-243.5 566.5,-243.5 566.5,-224.5 476.5,-224.5"/>
<text text-anchor="middle" x="521.5" y="-231.5" font-family="Helvetica,sans-Serif" font-size="10.00">mxiconprogram.h</text>
</a>
</g>
</g>
<!-- Node1&#45;&gt;Node23 -->
<g id="edge33" class="edge">
<title>Node1&#45;&gt;Node23</title>
<path fill="none" stroke="midnightblue" d="M292.48,-392.46C312.01,-382.93 337.79,-369.63 359.5,-356 414.19,-321.65 473.94,-274.18 503.23,-250.19"/>
<polygon fill="midnightblue" stroke="midnightblue" points="505.81,-252.6 511.3,-243.54 501.36,-247.2 505.81,-252.6"/>
</g>
<!-- Node3 -->
<g id="node3" class="node">
<title>Node3</title>
<g id="a_node3"><a xlink:title=" ">
<polygon fill="none" stroke="#bfbfbf" points="0,-280.5 0,-299.5 125,-299.5 125,-280.5 0,-280.5"/>
<text text-anchor="middle" x="62.5" y="-287.5" font-family="Helvetica,sans-Serif" font-size="10.00">QOpenGLExtraFunctions</text>
</a>
</g>
</g>
<!-- Node2&#45;&gt;Node3 -->
<g id="edge2" class="edge">
<title>Node2&#45;&gt;Node3</title>
<path fill="none" stroke="midnightblue" d="M66.67,-336.08C66.02,-329.01 65.08,-318.86 64.26,-309.99"/>
<polygon fill="midnightblue" stroke="midnightblue" points="67.72,-309.39 63.31,-299.75 60.75,-310.03 67.72,-309.39"/>
</g>
<!-- Node5 -->
<g id="node5" class="node">
<title>Node5</title>
<g id="a_node5"><a xlink:href="mxdebug_8h.html" target="_top" xlink:title=" ">
<polygon fill="none" stroke="black" points="543,-56.5 543,-75.5 606,-75.5 606,-56.5 543,-56.5"/>
<text text-anchor="middle" x="574.5" y="-63.5" font-family="Helvetica,sans-Serif" font-size="10.00">mxdebug.h</text>
</a>
</g>
</g>
<!-- Node4&#45;&gt;Node5 -->
<g id="edge4" class="edge">
<title>Node4&#45;&gt;Node5</title>
<path fill="none" stroke="midnightblue" d="M319.82,-224.36C313.63,-202.47 300.94,-144.33 329.5,-112 355.68,-82.35 469.53,-72.1 532.4,-68.66"/>
<polygon fill="midnightblue" stroke="midnightblue" points="532.97,-72.14 542.77,-68.13 532.61,-65.15 532.97,-72.14"/>
</g>
<!-- Node7 -->
<g id="node7" class="node">
<title>Node7</title>
<g id="a_node7"><a xlink:href="mxopengl_8h.html" target="_top" xlink:title=" ">
<polygon fill="none" stroke="black" points="160,-56.5 160,-75.5 225,-75.5 225,-56.5 160,-56.5"/>
<text text-anchor="middle" x="192.5" y="-63.5" font-family="Helvetica,sans-Serif" font-size="10.00">mxopengl.h</text>
</a>
</g>
</g>
<!-- Node4&#45;&gt;Node7 -->
<g id="edge6" class="edge">
<title>Node4&#45;&gt;Node7</title>
<path fill="none" stroke="midnightblue" d="M262.77,-227.62C210.65,-221.53 140.72,-209.55 123.5,-188 95.74,-153.27 143.44,-106.01 172.53,-82.14"/>
<polygon fill="midnightblue" stroke="midnightblue" points="174.87,-84.75 180.51,-75.79 170.51,-79.28 174.87,-84.75"/>
</g>
<!-- Node8 -->
<g id="node8" class="node">
<title>Node8</title>
<g id="a_node8"><a xlink:href="mxshaderprogram_8h.html" target="_top" xlink:title=" ">
<polygon fill="none" stroke="black" points="181,-112.5 181,-131.5 282,-131.5 282,-112.5 181,-112.5"/>
<text text-anchor="middle" x="231.5" y="-119.5" font-family="Helvetica,sans-Serif" font-size="10.00">mxshaderprogram.h</text>
</a>
</g>
</g>
<!-- Node4&#45;&gt;Node8 -->
<g id="edge7" class="edge">
<title>Node4&#45;&gt;Node8</title>
<path fill="none" stroke="midnightblue" d="M315.36,-224.37C300.21,-206.05 264.63,-163.05 245.04,-139.36"/>
<polygon fill="midnightblue" stroke="midnightblue" points="247.68,-137.07 238.61,-131.59 242.28,-141.53 247.68,-137.07"/>
</g>
<!-- Node9 -->
<g id="node9" class="node">
<title>Node9</title>
<g id="a_node9"><a xlink:href="mxmatrix_8h.html" target="_top" xlink:title=" ">
<polygon fill="none" stroke="black" points="339,-168.5 339,-187.5 402,-187.5 402,-168.5 339,-168.5"/>
<text text-anchor="middle" x="370.5" y="-175.5" font-family="Helvetica,sans-Serif" font-size="10.00">mxmatrix.h</text>
</a>
</g>
</g>
<!-- Node4&#45;&gt;Node9 -->
<g id="edge10" class="edge">
<title>Node4&#45;&gt;Node9</title>
<path fill="none" stroke="midnightblue" d="M330.43,-224.08C337.35,-216.3 347.57,-204.8 355.95,-195.37"/>
<polygon fill="midnightblue" stroke="midnightblue" points="358.69,-197.55 362.72,-187.75 353.46,-192.9 358.69,-197.55"/>
</g>
<!-- Node11 -->
<g id="node11" class="node">
<title>Node11</title>
<g id="a_node11"><a xlink:href="mxrect_8h.html" target="_top" xlink:title=" ">
<polygon fill="none" stroke="black" points="497,-168.5 497,-187.5 550,-187.5 550,-168.5 497,-168.5"/>
<text text-anchor="middle" x="523.5" y="-175.5" font-family="Helvetica,sans-Serif" font-size="10.00">mxrect.h</text>
</a>
</g>
</g>
<!-- Node4&#45;&gt;Node11 -->
<g id="edge12" class="edge">
<title>Node4&#45;&gt;Node11</title>
<path fill="none" stroke="midnightblue" d="M354.35,-224.44C390.37,-214.77 448.93,-199.03 486.83,-188.85"/>
<polygon fill="midnightblue" stroke="midnightblue" points="488.19,-192.11 496.94,-186.14 486.37,-185.35 488.19,-192.11"/>
</g>
<!-- Node6 -->
<g id="node6" class="node">
<title>Node6</title>
<g id="a_node6"><a xlink:title=" ">
<polygon fill="none" stroke="#bfbfbf" points="548.5,-0.5 548.5,-19.5 600.5,-19.5 600.5,-0.5 548.5,-0.5"/>
<text text-anchor="middle" x="574.5" y="-7.5" font-family="Helvetica,sans-Serif" font-size="10.00">QDebug</text>
</a>
</g>
</g>
<!-- Node5&#45;&gt;Node6 -->
<g id="edge5" class="edge">
<title>Node5&#45;&gt;Node6</title>
<path fill="none" stroke="midnightblue" d="M574.5,-56.08C574.5,-49.01 574.5,-38.86 574.5,-29.99"/>
<polygon fill="midnightblue" stroke="midnightblue" points="578,-29.75 574.5,-19.75 571,-29.75 578,-29.75"/>
</g>
<!-- Node8&#45;&gt;Node5 -->
<g id="edge8" class="edge">
<title>Node8&#45;&gt;Node5</title>
<path fill="none" stroke="midnightblue" d="M282.11,-113.03C350.07,-102.33 469.57,-83.52 532.7,-73.58"/>
<polygon fill="midnightblue" stroke="midnightblue" points="533.36,-77.02 542.7,-72.01 532.28,-70.1 533.36,-77.02"/>
</g>
<!-- Node8&#45;&gt;Node7 -->
<g id="edge9" class="edge">
<title>Node8&#45;&gt;Node7</title>
<path fill="none" stroke="midnightblue" d="M225.06,-112.08C219.55,-104.46 211.47,-93.26 204.74,-83.94"/>
<polygon fill="midnightblue" stroke="midnightblue" points="207.51,-81.81 198.82,-75.75 201.84,-85.91 207.51,-81.81"/>
</g>
<!-- Node10 -->
<g id="node10" class="node">
<title>Node10</title>
<g id="a_node10"><a xlink:title=" ">
<polygon fill="none" stroke="#bfbfbf" points="339,-112.5 339,-131.5 404,-131.5 404,-112.5 339,-112.5"/>
<text text-anchor="middle" x="371.5" y="-119.5" font-family="Helvetica,sans-Serif" font-size="10.00">QMatrix4x4</text>
</a>
</g>
</g>
<!-- Node9&#45;&gt;Node10 -->
<g id="edge11" class="edge">
<title>Node9&#45;&gt;Node10</title>
<path fill="none" stroke="midnightblue" d="M370.67,-168.08C370.8,-161.01 370.98,-150.86 371.15,-141.99"/>
<polygon fill="midnightblue" stroke="midnightblue" points="374.65,-141.81 371.34,-131.75 367.65,-141.68 374.65,-141.81"/>
</g>
<!-- Node11&#45;&gt;Node5 -->
<g id="edge13" class="edge">
<title>Node11&#45;&gt;Node5</title>
<path fill="none" stroke="midnightblue" d="M527.5,-168.37C535.81,-150.46 555.06,-108.92 566.18,-84.95"/>
<polygon fill="midnightblue" stroke="midnightblue" points="569.49,-86.14 570.52,-75.59 563.14,-83.19 569.49,-86.14"/>
</g>
<!-- Node12 -->
<g id="node12" class="node">
<title>Node12</title>
<g id="a_node12"><a xlink:href="mxvector_8h.html" target="_top" xlink:title=" ">
<polygon fill="none" stroke="black" points="572.5,-112.5 572.5,-131.5 636.5,-131.5 636.5,-112.5 572.5,-112.5"/>
<text text-anchor="middle" x="604.5" y="-119.5" font-family="Helvetica,sans-Serif" font-size="10.00">mxvector.h</text>
</a>
</g>
</g>
<!-- Node11&#45;&gt;Node12 -->
<g id="edge14" class="edge">
<title>Node11&#45;&gt;Node12</title>
<path fill="none" stroke="midnightblue" d="M536.51,-168.32C549.03,-159.98 568.18,-147.21 582.97,-137.35"/>
<polygon fill="midnightblue" stroke="midnightblue" points="585.14,-140.11 591.52,-131.65 581.26,-134.29 585.14,-140.11"/>
</g>
<!-- Node13 -->
<g id="node13" class="node">
<title>Node13</title>
<g id="a_node13"><a xlink:title=" ">
<polygon fill="none" stroke="#bfbfbf" points="460.5,-112.5 460.5,-131.5 516.5,-131.5 516.5,-112.5 460.5,-112.5"/>
<text text-anchor="middle" x="488.5" y="-119.5" font-family="Helvetica,sans-Serif" font-size="10.00">algorithm</text>
</a>
</g>
</g>
<!-- Node11&#45;&gt;Node13 -->
<g id="edge16" class="edge">
<title>Node11&#45;&gt;Node13</title>
<path fill="none" stroke="midnightblue" d="M517.72,-168.08C512.83,-160.53 505.67,-149.49 499.67,-140.23"/>
<polygon fill="midnightblue" stroke="midnightblue" points="502.55,-138.24 494.17,-131.75 496.67,-142.05 502.55,-138.24"/>
</g>
<!-- Node12&#45;&gt;Node5 -->
<g id="edge15" class="edge">
<title>Node12&#45;&gt;Node5</title>
<path fill="none" stroke="midnightblue" d="M599.55,-112.08C595.4,-104.61 589.35,-93.72 584.23,-84.52"/>
<polygon fill="midnightblue" stroke="midnightblue" points="587.28,-82.79 579.36,-75.75 581.16,-86.19 587.28,-82.79"/>
</g>
<!-- Node14&#45;&gt;Node8 -->
<g id="edge18" class="edge">
<title>Node14&#45;&gt;Node8</title>
<path fill="none" stroke="midnightblue" d="M306.51,-336.4C313.38,-323.36 323.79,-298.17 313.5,-280 298.18,-252.94 271.19,-269.58 253.5,-244 232.01,-212.94 229.72,-167.02 230.35,-141.62"/>
<polygon fill="midnightblue" stroke="midnightblue" points="233.85,-141.66 230.79,-131.52 226.86,-141.35 233.85,-141.66"/>
</g>
<!-- Node14&#45;&gt;Node9 -->
<g id="edge19" class="edge">
<title>Node14&#45;&gt;Node9</title>
<path fill="none" stroke="midnightblue" d="M313.68,-336.46C334.55,-320.94 376.29,-285.82 390.5,-244 395.89,-228.14 389.16,-209.9 382.1,-196.79"/>
<polygon fill="midnightblue" stroke="midnightblue" points="384.93,-194.7 376.82,-187.88 378.91,-198.27 384.93,-194.7"/>
</g>
<!-- Node15 -->
<g id="node15" class="node">
<title>Node15</title>
<g id="a_node15"><a xlink:href="mxvectordraw_8h.html" target="_top" xlink:title=" ">
<polygon fill="none" stroke="black" points="220,-280.5 220,-299.5 305,-299.5 305,-280.5 220,-280.5"/>
<text text-anchor="middle" x="262.5" y="-287.5" font-family="Helvetica,sans-Serif" font-size="10.00">mxvectordraw.h</text>
</a>
</g>
</g>
<!-- Node14&#45;&gt;Node15 -->
<g id="edge20" class="edge">
<title>Node14&#45;&gt;Node15</title>
<path fill="none" stroke="midnightblue" d="M295.06,-336.08C289.55,-328.46 281.47,-317.26 274.74,-307.94"/>
<polygon fill="midnightblue" stroke="midnightblue" points="277.51,-305.81 268.82,-299.75 271.84,-309.91 277.51,-305.81"/>
</g>
<!-- Node15&#45;&gt;Node11 -->
<g id="edge25" class="edge">
<title>Node15&#45;&gt;Node11</title>
<path fill="none" stroke="midnightblue" d="M289.82,-280.42C315.97,-271.97 356.38,-258.28 390.5,-244 428.93,-227.92 472.02,-206.14 498.45,-192.33"/>
<polygon fill="midnightblue" stroke="midnightblue" points="500.18,-195.38 507.4,-187.63 496.92,-189.18 500.18,-195.38"/>
</g>
<!-- Node15&#45;&gt;Node16 -->
<g id="edge21" class="edge">
<title>Node15&#45;&gt;Node16</title>
<path fill="none" stroke="midnightblue" d="M244.99,-280.32C227.43,-271.62 200.17,-258.12 179.97,-248.11"/>
<polygon fill="midnightblue" stroke="midnightblue" points="181.48,-244.96 170.97,-243.65 178.38,-251.23 181.48,-244.96"/>
</g>
<!-- Node17 -->
<g id="node17" class="node">
<title>Node17</title>
<g id="a_node17"><a xlink:href="mxgpuarray_8h.html" target="_top" xlink:title=" ">
<polygon fill="none" stroke="black" points="132.5,-168.5 132.5,-187.5 206.5,-187.5 206.5,-168.5 132.5,-168.5"/>
<text text-anchor="middle" x="169.5" y="-175.5" font-family="Helvetica,sans-Serif" font-size="10.00">mxgpuarray.h</text>
</a>
</g>
</g>
<!-- Node16&#45;&gt;Node17 -->
<g id="edge22" class="edge">
<title>Node16&#45;&gt;Node17</title>
<path fill="none" stroke="midnightblue" d="M156.14,-224.08C158.29,-216.85 161.38,-206.41 164.05,-197.4"/>
<polygon fill="midnightblue" stroke="midnightblue" points="167.42,-198.33 166.91,-187.75 160.71,-196.34 167.42,-198.33"/>
</g>
<!-- Node17&#45;&gt;Node7 -->
<g id="edge23" class="edge">
<title>Node17&#45;&gt;Node7</title>
<path fill="none" stroke="midnightblue" d="M168.68,-168.44C167.72,-155.87 166.79,-131.77 171.5,-112 173.77,-102.46 178.17,-92.51 182.36,-84.4"/>
<polygon fill="midnightblue" stroke="midnightblue" points="185.46,-86.03 187.2,-75.58 179.32,-82.66 185.46,-86.03"/>
</g>
<!-- Node17&#45;&gt;Node8 -->
<g id="edge24" class="edge">
<title>Node17&#45;&gt;Node8</title>
<path fill="none" stroke="midnightblue" d="M179.46,-168.32C188.63,-160.34 202.44,-148.31 213.53,-138.65"/>
<polygon fill="midnightblue" stroke="midnightblue" points="216.12,-141.04 221.36,-131.83 211.52,-135.76 216.12,-141.04"/>
</g>
<!-- Node18&#45;&gt;Node5 -->
<g id="edge27" class="edge">
<title>Node18&#45;&gt;Node5</title>
<path fill="none" stroke="midnightblue" d="M786.22,-338.46C765.94,-331.95 738.18,-319.98 721.5,-300 702.21,-276.9 702.5,-265.1 702.5,-235 702.5,-235 702.5,-235 702.5,-177 702.5,-127.64 647.08,-95.61 609.17,-79.48"/>
<polygon fill="midnightblue" stroke="midnightblue" points="610.07,-76.06 599.48,-75.53 607.43,-82.55 610.07,-76.06"/>
</g>
<!-- Node19 -->
<g id="node19" class="node">
<title>Node19</title>
<g id="a_node19"><a xlink:href="mxrefcounter_8h.html" target="_top" xlink:title=" ">
<polygon fill="none" stroke="black" points="730.5,-280.5 730.5,-299.5 810.5,-299.5 810.5,-280.5 730.5,-280.5"/>
<text text-anchor="middle" x="770.5" y="-287.5" font-family="Helvetica,sans-Serif" font-size="10.00">mxrefcounter.h</text>
</a>
</g>
</g>
<!-- Node18&#45;&gt;Node19 -->
<g id="edge28" class="edge">
<title>Node18&#45;&gt;Node19</title>
<path fill="none" stroke="midnightblue" d="M804.73,-336.08C798.94,-328.46 790.44,-317.26 783.36,-307.94"/>
<polygon fill="midnightblue" stroke="midnightblue" points="785.98,-305.6 777.14,-299.75 780.4,-309.83 785.98,-305.6"/>
</g>
<!-- Node20 -->
<g id="node20" class="node">
<title>Node20</title>
<g id="a_node20"><a xlink:title=" ">
<polygon fill="none" stroke="#bfbfbf" points="829,-280.5 829,-299.5 876,-299.5 876,-280.5 829,-280.5"/>
<text text-anchor="middle" x="852.5" y="-287.5" font-family="Helvetica,sans-Serif" font-size="10.00">stdlib.h</text>
</a>
</g>
</g>
<!-- Node18&#45;&gt;Node20 -->
<g id="edge29" class="edge">
<title>Node18&#45;&gt;Node20</title>
<path fill="none" stroke="midnightblue" d="M818.27,-336.08C824.06,-328.46 832.56,-317.26 839.64,-307.94"/>
<polygon fill="midnightblue" stroke="midnightblue" points="842.6,-309.83 845.86,-299.75 837.02,-305.6 842.6,-309.83"/>
</g>
<!-- Node21 -->
<g id="node21" class="node">
<title>Node21</title>
<g id="a_node21"><a xlink:title=" ">
<polygon fill="none" stroke="#bfbfbf" points="894.5,-280.5 894.5,-299.5 942.5,-299.5 942.5,-280.5 894.5,-280.5"/>
<text text-anchor="middle" x="918.5" y="-287.5" font-family="Helvetica,sans-Serif" font-size="10.00">string.h</text>
</a>
</g>
</g>
<!-- Node18&#45;&gt;Node21 -->
<g id="edge30" class="edge">
<title>Node18&#45;&gt;Node21</title>
<path fill="none" stroke="midnightblue" d="M828.69,-336.32C845.85,-327.66 872.45,-314.24 892.25,-304.25"/>
<polygon fill="midnightblue" stroke="midnightblue" points="894,-307.28 901.35,-299.65 890.85,-301.04 894,-307.28"/>
</g>
<!-- Node22 -->
<g id="node22" class="node">
<title>Node22</title>
<g id="a_node22"><a xlink:title=" ">
<polygon fill="none" stroke="#bfbfbf" points="961,-280.5 961,-299.5 996,-299.5 996,-280.5 961,-280.5"/>
<text text-anchor="middle" x="978.5" y="-287.5" font-family="Helvetica,sans-Serif" font-size="10.00">new</text>
</a>
</g>
</g>
<!-- Node18&#45;&gt;Node22 -->
<g id="edge31" class="edge">
<title>Node18&#45;&gt;Node22</title>
<path fill="none" stroke="midnightblue" d="M836.56,-337.03C862.79,-328.68 905.4,-315.05 951.27,-300.05"/>
<polygon fill="midnightblue" stroke="midnightblue" points="952.38,-303.37 960.79,-296.93 950.2,-296.72 952.38,-303.37"/>
</g>
<!-- Node23&#45;&gt;Node5 -->
<g id="edge34" class="edge">
<title>Node23&#45;&gt;Node5</title>
<path fill="none" stroke="midnightblue" d="M540.83,-224.31C570.06,-209.95 624.33,-178.19 645.5,-132 655.84,-109.43 630.28,-91.17 607,-79.82"/>
<polygon fill="midnightblue" stroke="midnightblue" points="608.15,-76.5 597.6,-75.52 605.24,-82.86 608.15,-76.5"/>
</g>
<!-- Node23&#45;&gt;Node7 -->
<g id="edge37" class="edge">
<title>Node23&#45;&gt;Node7</title>
<path fill="none" stroke="midnightblue" d="M514.98,-224.47C495.65,-199.41 438.39,-126.81 412.5,-112 356.82,-80.14 281.82,-70.65 235.34,-67.93"/>
<polygon fill="midnightblue" stroke="midnightblue" points="235.47,-64.43 225.31,-67.42 235.12,-71.42 235.47,-64.43"/>
</g>
<!-- Node23&#45;&gt;Node8 -->
<g id="edge38" class="edge">
<title>Node23&#45;&gt;Node8</title>
<path fill="none" stroke="midnightblue" d="M509.45,-224.38C489.68,-210.62 448.74,-183.63 410.5,-168 372.03,-152.28 326.6,-140.93 291.13,-133.57"/>
<polygon fill="midnightblue" stroke="midnightblue" points="291.43,-130.06 280.93,-131.51 290.04,-136.92 291.43,-130.06"/>
</g>
<!-- Node23&#45;&gt;Node9 -->
<g id="edge35" class="edge">
<title>Node23&#45;&gt;Node9</title>
<path fill="none" stroke="midnightblue" d="M497.57,-224.44C472.28,-215.4 432.2,-201.06 403.82,-190.92"/>
<polygon fill="midnightblue" stroke="midnightblue" points="404.91,-187.59 394.31,-187.52 402.55,-194.18 404.91,-187.59"/>
</g>
<!-- Node23&#45;&gt;Node11 -->
<g id="edge39" class="edge">
<title>Node23&#45;&gt;Node11</title>
<path fill="none" stroke="midnightblue" d="M521.83,-224.08C522.09,-217.01 522.47,-206.86 522.8,-197.99"/>
<polygon fill="midnightblue" stroke="midnightblue" points="526.3,-197.87 523.18,-187.75 519.31,-197.61 526.3,-197.87"/>
</g>
<!-- Node23&#45;&gt;Node12 -->
<g id="edge36" class="edge">
<title>Node23&#45;&gt;Node12</title>
<path fill="none" stroke="midnightblue" d="M529.06,-224.19C536.68,-215.23 548.68,-200.86 558.5,-188 570.65,-172.08 583.78,-153.37 592.89,-140.12"/>
<polygon fill="midnightblue" stroke="midnightblue" points="595.99,-141.79 598.74,-131.55 590.21,-137.84 595.99,-141.79"/>
</g>
</g>
</svg>
