<?xml version="1.0" encoding="UTF-8" standalone="no"?>
<!DOCTYPE svg PUBLIC "-//W3C//DTD SVG 1.1//EN"
 "http://www.w3.org/Graphics/SVG/1.1/DTD/svg11.dtd">
<!-- Generated by graphviz version 2.44.0 ()
 -->
<!-- Title: src/containers/mxrefcounter.h Pages: 1 -->
<svg width="1717pt" height="352pt"
 viewBox="0.00 0.00 1716.50 352.00" xmlns="http://www.w3.org/2000/svg" xmlns:xlink="http://www.w3.org/1999/xlink">
<g id="graph0" class="graph" transform="scale(1 1) rotate(0) translate(4 348)">
<title>src/containers/mxrefcounter.h</title>
<!-- Node1 -->
<g id="node1" class="node">
<title>Node1</title>
<g id="a_node1"><a xlink:title=" ">
<polygon fill="#bfbfbf" stroke="black" points="618.5,-324.5 618.5,-343.5 763.5,-343.5 763.5,-324.5 618.5,-324.5"/>
<text text-anchor="middle" x="691" y="-331.5" font-family="Helvetica,sans-Serif" font-size="10.00">src/containers/mxrefcounter.h</text>
</a>
</g>
</g>
<!-- Node2 -->
<g id="node2" class="node">
<title>Node2</title>
<g id="a_node2"><a xlink:href="mxgenericstring_8h.html" target="_top" xlink:title=" ">
<polygon fill="none" stroke="black" points="153.5,-268.5 153.5,-287.5 310.5,-287.5 310.5,-268.5 153.5,-268.5"/>
<text text-anchor="middle" x="232" y="-275.5" font-family="Helvetica,sans-Serif" font-size="10.00">src/containers/mxgenericstring.h</text>
</a>
</g>
</g>
<!-- Node1&#45;&gt;Node2 -->
<g id="edge1" class="edge">
<title>Node1&#45;&gt;Node2</title>
<path fill="none" stroke="midnightblue" d="M608.47,-323.29C521.88,-313.1 387.09,-297.25 304.47,-287.53"/>
<polygon fill="midnightblue" stroke="midnightblue" points="608.18,-326.78 618.52,-324.47 609,-319.83 608.18,-326.78"/>
</g>
<!-- Node6 -->
<g id="node6" class="node">
<title>Node6</title>
<g id="a_node6"><a xlink:href="mxlist_8h.html" target="_top" xlink:title=" ">
<polygon fill="none" stroke="black" points="634,-268.5 634,-287.5 748,-287.5 748,-268.5 634,-268.5"/>
<text text-anchor="middle" x="691" y="-275.5" font-family="Helvetica,sans-Serif" font-size="10.00">src/containers/mxlist.h</text>
</a>
</g>
</g>
<!-- Node1&#45;&gt;Node6 -->
<g id="edge5" class="edge">
<title>Node1&#45;&gt;Node6</title>
<path fill="none" stroke="midnightblue" d="M691,-313.8C691,-304.91 691,-294.78 691,-287.75"/>
<polygon fill="midnightblue" stroke="midnightblue" points="687.5,-314.08 691,-324.08 694.5,-314.08 687.5,-314.08"/>
</g>
<!-- Node27 -->
<g id="node27" class="node">
<title>Node27</title>
<g id="a_node27"><a xlink:href="mxrefcounter_8cpp.html" target="_top" xlink:title=" ">
<polygon fill="none" stroke="black" points="766.5,-268.5 766.5,-287.5 921.5,-287.5 921.5,-268.5 766.5,-268.5"/>
<text text-anchor="middle" x="844" y="-275.5" font-family="Helvetica,sans-Serif" font-size="10.00">src/containers/mxrefcounter.cpp</text>
</a>
</g>
</g>
<!-- Node1&#45;&gt;Node27 -->
<g id="edge30" class="edge">
<title>Node1&#45;&gt;Node27</title>
<path fill="none" stroke="midnightblue" d="M724.89,-321.04C753.68,-310.88 794.29,-296.55 819.87,-287.52"/>
<polygon fill="midnightblue" stroke="midnightblue" points="723.51,-317.81 715.24,-324.44 725.84,-324.42 723.51,-317.81"/>
</g>
<!-- Node3 -->
<g id="node3" class="node">
<title>Node3</title>
<g id="a_node3"><a xlink:href="mxgenericstring_8cpp.html" target="_top" xlink:title=" ">
<polygon fill="none" stroke="black" points="148.5,-207 148.5,-226 315.5,-226 315.5,-207 148.5,-207"/>
<text text-anchor="middle" x="232" y="-214" font-family="Helvetica,sans-Serif" font-size="10.00">src/containers/mxgenericstring.cpp</text>
</a>
</g>
</g>
<!-- Node2&#45;&gt;Node3 -->
<g id="edge2" class="edge">
<title>Node2&#45;&gt;Node3</title>
<path fill="none" stroke="midnightblue" d="M232,-258.32C232,-247.5 232,-234.4 232,-226.01"/>
<polygon fill="midnightblue" stroke="midnightblue" points="228.5,-258.48 232,-268.48 235.5,-258.48 228.5,-258.48"/>
</g>
<!-- Node4 -->
<g id="node4" class="node">
<title>Node4</title>
<g id="a_node4"><a xlink:href="mxstring_8h.html" target="_top" xlink:title=" ">
<polygon fill="none" stroke="black" points="5.5,-207 5.5,-226 130.5,-226 130.5,-207 5.5,-207"/>
<text text-anchor="middle" x="68" y="-214" font-family="Helvetica,sans-Serif" font-size="10.00">src/containers/mxstring.h</text>
</a>
</g>
</g>
<!-- Node2&#45;&gt;Node4 -->
<g id="edge3" class="edge">
<title>Node2&#45;&gt;Node4</title>
<path fill="none" stroke="midnightblue" d="M198.74,-264.93C166.86,-253.37 119.57,-236.21 91.45,-226.01"/>
<polygon fill="midnightblue" stroke="midnightblue" points="197.91,-268.35 208.5,-268.48 200.3,-261.77 197.91,-268.35"/>
</g>
<!-- Node5 -->
<g id="node5" class="node">
<title>Node5</title>
<g id="a_node5"><a xlink:href="mxstring_8cpp.html" target="_top" xlink:title=" ">
<polygon fill="none" stroke="black" points="0,-140 0,-159 136,-159 136,-140 0,-140"/>
<text text-anchor="middle" x="68" y="-147" font-family="Helvetica,sans-Serif" font-size="10.00">src/containers/mxstring.cpp</text>
</a>
</g>
</g>
<!-- Node4&#45;&gt;Node5 -->
<g id="edge4" class="edge">
<title>Node4&#45;&gt;Node5</title>
<path fill="none" stroke="midnightblue" d="M68,-196.54C68,-184.17 68,-168.62 68,-159.13"/>
<polygon fill="midnightblue" stroke="midnightblue" points="64.5,-196.73 68,-206.73 71.5,-196.73 64.5,-196.73"/>
</g>
<!-- Node7 -->
<g id="node7" class="node">
<title>Node7</title>
<g id="a_node7"><a xlink:href="mxpainter_8h.html" target="_top" xlink:title=" ">
<polygon fill="none" stroke="black" points="1155,-207 1155,-226 1253,-226 1253,-207 1155,-207"/>
<text text-anchor="middle" x="1204" y="-214" font-family="Helvetica,sans-Serif" font-size="10.00">src/gui/mxpainter.h</text>
</a>
</g>
</g>
<!-- Node6&#45;&gt;Node7 -->
<g id="edge6" class="edge">
<title>Node6&#45;&gt;Node7</title>
<path fill="none" stroke="midnightblue" d="M758.57,-267.83C908.97,-249.18 1074.11,-231.27 1154.68,-222.7"/>
<polygon fill="midnightblue" stroke="midnightblue" points="757.72,-264.41 748.23,-269.11 758.58,-271.35 757.72,-264.41"/>
</g>
<!-- Node13 -->
<g id="node13" class="node">
<title>Node13</title>
<g id="a_node13"><a xlink:href="mxwidgetlist_8h.html" target="_top" xlink:title=" ">
<polygon fill="none" stroke="black" points="1288,-207 1288,-226 1398,-226 1398,-207 1288,-207"/>
<text text-anchor="middle" x="1343" y="-214" font-family="Helvetica,sans-Serif" font-size="10.00">src/gui/mxwidgetlist.h</text>
</a>
</g>
</g>
<!-- Node6&#45;&gt;Node13 -->
<g id="edge13" class="edge">
<title>Node6&#45;&gt;Node13</title>
<path fill="none" stroke="midnightblue" d="M758.32,-267.93C982.55,-245.22 1041.99,-259.46 1262,-232 1274.47,-230.44 1287.94,-228.24 1300.25,-226.03"/>
<polygon fill="midnightblue" stroke="midnightblue" points="757.8,-264.47 748.21,-268.97 758.52,-271.43 757.8,-264.47"/>
</g>
<!-- Node17 -->
<g id="node17" class="node">
<title>Node17</title>
<g id="a_node17"><a xlink:href="mxiconatlas_8h.html" target="_top" xlink:title=" ">
<polygon fill="none" stroke="black" points="334,-207 334,-226 468,-226 468,-207 334,-207"/>
<text text-anchor="middle" x="401" y="-214" font-family="Helvetica,sans-Serif" font-size="10.00">src/iconatlas/mxiconatlas.h</text>
</a>
</g>
</g>
<!-- Node6&#45;&gt;Node17 -->
<g id="edge19" class="edge">
<title>Node6&#45;&gt;Node17</title>
<path fill="none" stroke="midnightblue" d="M639.35,-266.4C583.13,-254.87 494.34,-236.65 442.47,-226.01"/>
<polygon fill="midnightblue" stroke="midnightblue" points="638.95,-269.89 649.45,-268.48 640.36,-263.04 638.95,-269.89"/>
</g>
<!-- Node19 -->
<g id="node19" class="node">
<title>Node19</title>
<g id="a_node19"><a xlink:href="direct12_2mxrenderer_8h.html" target="_top" xlink:title=" ">
<polygon fill="none" stroke="black" points="519,-201.5 519,-231.5 625,-231.5 625,-201.5 519,-201.5"/>
<text text-anchor="start" x="527" y="-219.5" font-family="Helvetica,sans-Serif" font-size="10.00">src/renderer/direct12</text>
<text text-anchor="middle" x="572" y="-208.5" font-family="Helvetica,sans-Serif" font-size="10.00">/mxrenderer.h</text>
</a>
</g>
</g>
<!-- Node6&#45;&gt;Node19 -->
<g id="edge22" class="edge">
<title>Node6&#45;&gt;Node19</title>
<path fill="none" stroke="midnightblue" d="M664.88,-263.94C645.69,-254.35 619.67,-241.33 600.05,-231.52"/>
<polygon fill="midnightblue" stroke="midnightblue" points="663.44,-267.13 673.95,-268.48 666.57,-260.87 663.44,-267.13"/>
</g>
<!-- Node22 -->
<g id="node22" class="node">
<title>Node22</title>
<g id="a_node22"><a xlink:href="opengl_2mxrenderer_8h.html" target="_top" xlink:title=" ">
<polygon fill="none" stroke="black" points="761,-201.5 761,-231.5 861,-231.5 861,-201.5 761,-201.5"/>
<text text-anchor="start" x="769" y="-219.5" font-family="Helvetica,sans-Serif" font-size="10.00">src/renderer/opengl</text>
<text text-anchor="middle" x="811" y="-208.5" font-family="Helvetica,sans-Serif" font-size="10.00">/mxrenderer.h</text>
</a>
</g>
</g>
<!-- Node6&#45;&gt;Node22 -->
<g id="edge25" class="edge">
<title>Node6&#45;&gt;Node22</title>
<path fill="none" stroke="midnightblue" d="M717.34,-263.94C736.69,-254.35 762.93,-241.33 782.72,-231.52"/>
<polygon fill="midnightblue" stroke="midnightblue" points="715.6,-260.9 708.19,-268.48 718.71,-267.17 715.6,-260.9"/>
</g>
<!-- Node8 -->
<g id="node8" class="node">
<title>Node8</title>
<g id="a_node8"><a xlink:href="mxapplication_8h.html" target="_top" xlink:title=" ">
<polygon fill="none" stroke="black" points="1277,-140 1277,-159 1409,-159 1409,-140 1277,-140"/>
<text text-anchor="middle" x="1343" y="-147" font-family="Helvetica,sans-Serif" font-size="10.00">src/events/mxapplication.h</text>
</a>
</g>
</g>
<!-- Node7&#45;&gt;Node8 -->
<g id="edge7" class="edge">
<title>Node7&#45;&gt;Node8</title>
<path fill="none" stroke="midnightblue" d="M1231.56,-202.61C1259.09,-189.74 1300.65,-170.31 1324.47,-159.17"/>
<polygon fill="midnightblue" stroke="midnightblue" points="1230.03,-199.46 1222.46,-206.87 1233,-205.8 1230.03,-199.46"/>
</g>
<!-- Node12 -->
<g id="node12" class="node">
<title>Node12</title>
<g id="a_node12"><a xlink:href="mxpainter_8cpp.html" target="_top" xlink:title=" ">
<polygon fill="none" stroke="black" points="1149.5,-140 1149.5,-159 1258.5,-159 1258.5,-140 1149.5,-140"/>
<text text-anchor="middle" x="1204" y="-147" font-family="Helvetica,sans-Serif" font-size="10.00">src/gui/mxpainter.cpp</text>
</a>
</g>
</g>
<!-- Node7&#45;&gt;Node12 -->
<g id="edge12" class="edge">
<title>Node7&#45;&gt;Node12</title>
<path fill="none" stroke="midnightblue" d="M1204,-196.54C1204,-184.17 1204,-168.62 1204,-159.13"/>
<polygon fill="midnightblue" stroke="midnightblue" points="1200.5,-196.73 1204,-206.73 1207.5,-196.73 1200.5,-196.73"/>
</g>
<!-- Node9 -->
<g id="node9" class="node">
<title>Node9</title>
<g id="a_node9"><a xlink:href="mxapplication_8cpp.html" target="_top" xlink:title=" ">
<polygon fill="none" stroke="black" points="1271.5,-73 1271.5,-92 1414.5,-92 1414.5,-73 1271.5,-73"/>
<text text-anchor="middle" x="1343" y="-80" font-family="Helvetica,sans-Serif" font-size="10.00">src/events/mxapplication.cpp</text>
</a>
</g>
</g>
<!-- Node8&#45;&gt;Node9 -->
<g id="edge8" class="edge">
<title>Node8&#45;&gt;Node9</title>
<path fill="none" stroke="midnightblue" d="M1343,-129.54C1343,-117.17 1343,-101.62 1343,-92.13"/>
<polygon fill="midnightblue" stroke="midnightblue" points="1339.5,-129.73 1343,-139.73 1346.5,-129.73 1339.5,-129.73"/>
</g>
<!-- Node10 -->
<g id="node10" class="node">
<title>Node10</title>
<g id="a_node10"><a xlink:href="qmewawindow_8cpp.html" target="_top" xlink:title=" ">
<polygon fill="none" stroke="black" points="1142,-0.5 1142,-30.5 1258,-30.5 1258,-0.5 1142,-0.5"/>
<text text-anchor="start" x="1150" y="-18.5" font-family="Helvetica,sans-Serif" font-size="10.00">src/platformabstraction</text>
<text text-anchor="middle" x="1200" y="-7.5" font-family="Helvetica,sans-Serif" font-size="10.00">/qt/qmewawindow.cpp</text>
</a>
</g>
</g>
<!-- Node8&#45;&gt;Node10 -->
<g id="edge9" class="edge">
<title>Node8&#45;&gt;Node10</title>
<path fill="none" stroke="midnightblue" d="M1316.81,-135.06C1300.36,-125.9 1279.25,-112.78 1263,-98 1240.37,-77.43 1219.87,-47.97 1208.74,-30.68"/>
<polygon fill="midnightblue" stroke="midnightblue" points="1315.43,-138.29 1325.89,-139.98 1318.77,-132.14 1315.43,-138.29"/>
</g>
<!-- Node11 -->
<g id="node11" class="node">
<title>Node11</title>
<g id="a_node11"><a xlink:href="qmewawindow_8h.html" target="_top" xlink:title=" ">
<polygon fill="none" stroke="black" points="1099,-67.5 1099,-97.5 1215,-97.5 1215,-67.5 1099,-67.5"/>
<text text-anchor="start" x="1107" y="-85.5" font-family="Helvetica,sans-Serif" font-size="10.00">src/platformabstraction</text>
<text text-anchor="middle" x="1157" y="-74.5" font-family="Helvetica,sans-Serif" font-size="10.00">/qt/qmewawindow.h</text>
</a>
</g>
</g>
<!-- Node8&#45;&gt;Node11 -->
<g id="edge10" class="edge">
<title>Node8&#45;&gt;Node11</title>
<path fill="none" stroke="midnightblue" d="M1308.63,-136.49C1277.1,-125.47 1230.38,-109.14 1197.14,-97.53"/>
<polygon fill="midnightblue" stroke="midnightblue" points="1307.71,-139.87 1318.3,-139.87 1310.02,-133.27 1307.71,-139.87"/>
</g>
<!-- Node11&#45;&gt;Node10 -->
<g id="edge11" class="edge">
<title>Node11&#45;&gt;Node10</title>
<path fill="none" stroke="midnightblue" d="M1171.97,-58.87C1178.2,-49.46 1185.23,-38.83 1190.69,-30.58"/>
<polygon fill="midnightblue" stroke="midnightblue" points="1168.93,-57.12 1166.33,-67.4 1174.77,-60.99 1168.93,-57.12"/>
</g>
<!-- Node13&#45;&gt;Node8 -->
<g id="edge14" class="edge">
<title>Node13&#45;&gt;Node8</title>
<path fill="none" stroke="midnightblue" d="M1343,-196.54C1343,-184.17 1343,-168.62 1343,-159.13"/>
<polygon fill="midnightblue" stroke="midnightblue" points="1339.5,-196.73 1343,-206.73 1346.5,-196.73 1339.5,-196.73"/>
</g>
<!-- Node14 -->
<g id="node14" class="node">
<title>Node14</title>
<g id="a_node14"><a xlink:href="mxwidget_8h.html" target="_top" xlink:title=" ">
<polygon fill="none" stroke="black" points="1433,-140 1433,-159 1531,-159 1531,-140 1433,-140"/>
<text text-anchor="middle" x="1482" y="-147" font-family="Helvetica,sans-Serif" font-size="10.00">src/gui/mxwidget.h</text>
</a>
</g>
</g>
<!-- Node13&#45;&gt;Node14 -->
<g id="edge15" class="edge">
<title>Node13&#45;&gt;Node14</title>
<path fill="none" stroke="midnightblue" d="M1370.56,-202.61C1398.09,-189.74 1439.65,-170.31 1463.47,-159.17"/>
<polygon fill="midnightblue" stroke="midnightblue" points="1369.03,-199.46 1361.46,-206.87 1372,-205.8 1369.03,-199.46"/>
</g>
<!-- Node14&#45;&gt;Node9 -->
<g id="edge16" class="edge">
<title>Node14&#45;&gt;Node9</title>
<path fill="none" stroke="midnightblue" d="M1454.44,-135.61C1426.91,-122.74 1385.35,-103.31 1361.53,-92.17"/>
<polygon fill="midnightblue" stroke="midnightblue" points="1453,-138.8 1463.54,-139.87 1455.97,-132.46 1453,-138.8"/>
</g>
<!-- Node15 -->
<g id="node15" class="node">
<title>Node15</title>
<g id="a_node15"><a xlink:href="mxmouseevent_8cpp.html" target="_top" xlink:title=" ">
<polygon fill="none" stroke="black" points="1559.5,-73 1559.5,-92 1708.5,-92 1708.5,-73 1559.5,-73"/>
<text text-anchor="middle" x="1634" y="-80" font-family="Helvetica,sans-Serif" font-size="10.00">src/events/mxmouseevent.cpp</text>
</a>
</g>
</g>
<!-- Node14&#45;&gt;Node15 -->
<g id="edge17" class="edge">
<title>Node14&#45;&gt;Node15</title>
<path fill="none" stroke="midnightblue" d="M1511.74,-135.78C1541.84,-122.91 1587.57,-103.35 1613.73,-92.17"/>
<polygon fill="midnightblue" stroke="midnightblue" points="1510,-132.72 1502.18,-139.87 1512.76,-139.15 1510,-132.72"/>
</g>
<!-- Node16 -->
<g id="node16" class="node">
<title>Node16</title>
<g id="a_node16"><a xlink:href="mxwidget_8cpp.html" target="_top" xlink:title=" ">
<polygon fill="none" stroke="black" points="1433,-73 1433,-92 1541,-92 1541,-73 1433,-73"/>
<text text-anchor="middle" x="1487" y="-80" font-family="Helvetica,sans-Serif" font-size="10.00">src/gui/mxwidget.cpp</text>
</a>
</g>
</g>
<!-- Node14&#45;&gt;Node16 -->
<g id="edge18" class="edge">
<title>Node14&#45;&gt;Node16</title>
<path fill="none" stroke="midnightblue" d="M1483.46,-129.54C1484.41,-117.17 1485.61,-101.62 1486.34,-92.13"/>
<polygon fill="midnightblue" stroke="midnightblue" points="1479.95,-129.49 1482.67,-139.73 1486.93,-130.03 1479.95,-129.49"/>
</g>
<!-- Node17&#45;&gt;Node11 -->
<g id="edge21" class="edge">
<title>Node17&#45;&gt;Node11</title>
<path fill="none" stroke="midnightblue" d="M390.26,-198.03C380.51,-179.68 369.91,-151.18 386,-134 434.43,-82.3 927.94,-81.54 1099,-82.85"/>
<polygon fill="midnightblue" stroke="midnightblue" points="387.27,-199.86 395.27,-206.8 393.35,-196.38 387.27,-199.86"/>
</g>
<!-- Node18 -->
<g id="node18" class="node">
<title>Node18</title>
<g id="a_node18"><a xlink:href="mxiconatlas_8cpp.html" target="_top" xlink:title=" ">
<polygon fill="none" stroke="black" points="193.5,-140 193.5,-159 338.5,-159 338.5,-140 193.5,-140"/>
<text text-anchor="middle" x="266" y="-147" font-family="Helvetica,sans-Serif" font-size="10.00">src/iconatlas/mxiconatlas.cpp</text>
</a>
</g>
</g>
<!-- Node17&#45;&gt;Node18 -->
<g id="edge20" class="edge">
<title>Node17&#45;&gt;Node18</title>
<path fill="none" stroke="midnightblue" d="M373.88,-202.44C347.14,-189.57 307.03,-170.26 284,-159.17"/>
<polygon fill="midnightblue" stroke="midnightblue" points="372.54,-205.68 383.07,-206.87 375.58,-199.38 372.54,-205.68"/>
</g>
<!-- Node20 -->
<g id="node20" class="node">
<title>Node20</title>
<g id="a_node20"><a xlink:href="direct12_2mxrenderer_8cpp.html" target="_top" xlink:title=" ">
<polygon fill="none" stroke="black" points="519,-134.5 519,-164.5 625,-164.5 625,-134.5 519,-134.5"/>
<text text-anchor="start" x="527" y="-152.5" font-family="Helvetica,sans-Serif" font-size="10.00">src/renderer/direct12</text>
<text text-anchor="middle" x="572" y="-141.5" font-family="Helvetica,sans-Serif" font-size="10.00">/mxrenderer.cpp</text>
</a>
</g>
</g>
<!-- Node19&#45;&gt;Node20 -->
<g id="edge23" class="edge">
<title>Node19&#45;&gt;Node20</title>
<path fill="none" stroke="midnightblue" d="M572,-191.11C572,-182.15 572,-172.32 572,-164.58"/>
<polygon fill="midnightblue" stroke="midnightblue" points="568.5,-191.4 572,-201.4 575.5,-191.4 568.5,-191.4"/>
</g>
<!-- Node21 -->
<g id="node21" class="node">
<title>Node21</title>
<g id="a_node21"><a xlink:href="mxtexture_8cpp.html" target="_top" xlink:title=" ">
<polygon fill="none" stroke="black" points="395,-134.5 395,-164.5 501,-164.5 501,-134.5 395,-134.5"/>
<text text-anchor="start" x="403" y="-152.5" font-family="Helvetica,sans-Serif" font-size="10.00">src/renderer/direct12</text>
<text text-anchor="middle" x="448" y="-141.5" font-family="Helvetica,sans-Serif" font-size="10.00">/mxtexture.cpp</text>
</a>
</g>
</g>
<!-- Node19&#45;&gt;Node21 -->
<g id="edge24" class="edge">
<title>Node19&#45;&gt;Node21</title>
<path fill="none" stroke="midnightblue" d="M536.16,-196.71C516.61,-186.46 492.8,-173.98 474.85,-164.58"/>
<polygon fill="midnightblue" stroke="midnightblue" points="534.61,-199.85 545.09,-201.4 537.86,-193.65 534.61,-199.85"/>
</g>
<!-- Node23 -->
<g id="node23" class="node">
<title>Node23</title>
<g id="a_node23"><a xlink:href="mxcachedgpuarray_8cpp.html" target="_top" xlink:title=" ">
<polygon fill="none" stroke="black" points="1012.5,-134.5 1012.5,-164.5 1131.5,-164.5 1131.5,-134.5 1012.5,-134.5"/>
<text text-anchor="start" x="1020.5" y="-152.5" font-family="Helvetica,sans-Serif" font-size="10.00">src/renderer/opengl</text>
<text text-anchor="middle" x="1072" y="-141.5" font-family="Helvetica,sans-Serif" font-size="10.00">/mxcachedgpuarray.cpp</text>
</a>
</g>
</g>
<!-- Node22&#45;&gt;Node23 -->
<g id="edge26" class="edge">
<title>Node22&#45;&gt;Node23</title>
<path fill="none" stroke="midnightblue" d="M870.88,-200.59C914.31,-189.77 972.68,-175.23 1015.35,-164.61"/>
<polygon fill="midnightblue" stroke="midnightblue" points="869.87,-197.23 861.01,-203.04 871.56,-204.02 869.87,-197.23"/>
</g>
<!-- Node24 -->
<g id="node24" class="node">
<title>Node24</title>
<g id="a_node24"><a xlink:href="opengl_2mxgpuarray_8cpp.html" target="_top" xlink:title=" ">
<polygon fill="none" stroke="black" points="643,-134.5 643,-164.5 743,-164.5 743,-134.5 643,-134.5"/>
<text text-anchor="start" x="651" y="-152.5" font-family="Helvetica,sans-Serif" font-size="10.00">src/renderer/opengl</text>
<text text-anchor="middle" x="693" y="-141.5" font-family="Helvetica,sans-Serif" font-size="10.00">/mxgpuarray.cpp</text>
</a>
</g>
</g>
<!-- Node22&#45;&gt;Node24 -->
<g id="edge27" class="edge">
<title>Node22&#45;&gt;Node24</title>
<path fill="none" stroke="midnightblue" d="M776.39,-196.44C757.88,-186.24 735.48,-173.9 718.55,-164.58"/>
<polygon fill="midnightblue" stroke="midnightblue" points="774.95,-199.64 785.4,-201.4 778.33,-193.51 774.95,-199.64"/>
</g>
<!-- Node25 -->
<g id="node25" class="node">
<title>Node25</title>
<g id="a_node25"><a xlink:href="opengl_2mxrenderer_8cpp.html" target="_top" xlink:title=" ">
<polygon fill="none" stroke="black" points="761,-134.5 761,-164.5 861,-164.5 861,-134.5 761,-134.5"/>
<text text-anchor="start" x="769" y="-152.5" font-family="Helvetica,sans-Serif" font-size="10.00">src/renderer/opengl</text>
<text text-anchor="middle" x="811" y="-141.5" font-family="Helvetica,sans-Serif" font-size="10.00">/mxrenderer.cpp</text>
</a>
</g>
</g>
<!-- Node22&#45;&gt;Node25 -->
<g id="edge28" class="edge">
<title>Node22&#45;&gt;Node25</title>
<path fill="none" stroke="midnightblue" d="M811,-191.11C811,-182.15 811,-172.32 811,-164.58"/>
<polygon fill="midnightblue" stroke="midnightblue" points="807.5,-191.4 811,-201.4 814.5,-191.4 807.5,-191.4"/>
</g>
<!-- Node26 -->
<g id="node26" class="node">
<title>Node26</title>
<g id="a_node26"><a xlink:href="mxshaderprogram_8cpp.html" target="_top" xlink:title=" ">
<polygon fill="none" stroke="black" points="879.5,-134.5 879.5,-164.5 994.5,-164.5 994.5,-134.5 879.5,-134.5"/>
<text text-anchor="start" x="887.5" y="-152.5" font-family="Helvetica,sans-Serif" font-size="10.00">src/renderer/opengl</text>
<text text-anchor="middle" x="937" y="-141.5" font-family="Helvetica,sans-Serif" font-size="10.00">/mxshaderprogram.cpp</text>
</a>
</g>
</g>
<!-- Node22&#45;&gt;Node26 -->
<g id="edge29" class="edge">
<title>Node22&#45;&gt;Node26</title>
<path fill="none" stroke="midnightblue" d="M847.42,-196.71C867.29,-186.46 891.48,-173.98 909.71,-164.58"/>
<polygon fill="midnightblue" stroke="midnightblue" points="845.62,-193.7 838.34,-201.4 848.83,-199.92 845.62,-193.7"/>
</g>
</g>
</svg>
