<?xml version="1.0" encoding="UTF-8" standalone="no"?>
<!DOCTYPE svg PUBLIC "-//W3C//DTD SVG 1.1//EN"
 "http://www.w3.org/Graphics/SVG/1.1/DTD/svg11.dtd">
<!-- Generated by graphviz version 2.44.0 ()
 -->
<!-- Title: src/geometry/mxrect.h Pages: 1 -->
<svg width="3188pt" height="397pt"
 viewBox="0.00 0.00 3188.00 397.00" xmlns="http://www.w3.org/2000/svg" xmlns:xlink="http://www.w3.org/1999/xlink">
<g id="graph0" class="graph" transform="scale(1 1) rotate(0) translate(4 393)">
<title>src/geometry/mxrect.h</title>
<!-- Node1 -->
<g id="node1" class="node">
<title>Node1</title>
<g id="a_node1"><a xlink:title=" ">
<polygon fill="#bfbfbf" stroke="black" points="1903,-369.5 1903,-388.5 2016,-388.5 2016,-369.5 1903,-369.5"/>
<text text-anchor="middle" x="1959.5" y="-376.5" font-family="Helvetica,sans-Serif" font-size="10.00">src/geometry/mxrect.h</text>
</a>
</g>
</g>
<!-- Node2 -->
<g id="node2" class="node">
<title>Node2</title>
<g id="a_node2"><a xlink:href="mxgeometryutils_8h.html" target="_top" xlink:title=" ">
<polygon fill="none" stroke="black" points="301.5,-308 301.5,-327 455.5,-327 455.5,-308 301.5,-308"/>
<text text-anchor="middle" x="378.5" y="-315" font-family="Helvetica,sans-Serif" font-size="10.00">src/geometry/mxgeometryutils.h</text>
</a>
</g>
</g>
<!-- Node1&#45;&gt;Node2 -->
<g id="edge1" class="edge">
<title>Node1&#45;&gt;Node2</title>
<path fill="none" stroke="midnightblue" d="M1892.88,-377.21C1641.09,-374.03 747.57,-360.99 464.5,-333 450.64,-331.63 435.63,-329.37 422.09,-327.04"/>
<polygon fill="midnightblue" stroke="midnightblue" points="1892.93,-380.71 1902.97,-377.34 1893.02,-373.71 1892.93,-380.71"/>
</g>
<!-- Node5 -->
<g id="node5" class="node">
<title>Node5</title>
<g id="a_node5"><a xlink:href="mxicondraw_8h.html" target="_top" xlink:title=" ">
<polygon fill="none" stroke="black" points="1823.5,-308 1823.5,-327 1931.5,-327 1931.5,-308 1823.5,-308"/>
<text text-anchor="middle" x="1877.5" y="-315" font-family="Helvetica,sans-Serif" font-size="10.00">src/gui/mxicondraw.h</text>
</a>
</g>
</g>
<!-- Node1&#45;&gt;Node5 -->
<g id="edge4" class="edge">
<title>Node1&#45;&gt;Node5</title>
<path fill="none" stroke="midnightblue" d="M1939.23,-363.29C1923.5,-351.88 1902.25,-336.46 1889.23,-327.01"/>
<polygon fill="midnightblue" stroke="midnightblue" points="1937.6,-366.43 1947.75,-369.48 1941.71,-360.77 1937.6,-366.43"/>
</g>
<!-- Node19 -->
<g id="node18" class="node">
<title>Node19</title>
<g id="a_node18"><a xlink:href="mxiconprogram_8cpp.html" target="_top" xlink:title=" ">
<polygon fill="none" stroke="black" points="1690.5,-235.5 1690.5,-265.5 1850.5,-265.5 1850.5,-235.5 1690.5,-235.5"/>
<text text-anchor="start" x="1698.5" y="-253.5" font-family="Helvetica,sans-Serif" font-size="10.00">src/renderer/opengl</text>
<text text-anchor="middle" x="1770.5" y="-242.5" font-family="Helvetica,sans-Serif" font-size="10.00">/iconprogram/mxiconprogram.cpp</text>
</a>
</g>
</g>
<!-- Node1&#45;&gt;Node19 -->
<g id="edge54" class="edge">
<title>Node1&#45;&gt;Node19</title>
<path fill="none" stroke="midnightblue" d="M1892.65,-368.51C1866.06,-362.04 1836.61,-351.19 1814.5,-333 1792.89,-315.23 1780.33,-283.96 1774.5,-265.76"/>
<polygon fill="midnightblue" stroke="midnightblue" points="1892.15,-371.99 1902.67,-370.78 1893.69,-365.16 1892.15,-371.99"/>
</g>
<!-- Node20 -->
<g id="node19" class="node">
<title>Node20</title>
<g id="a_node19"><a xlink:href="mxorthotransform_8h.html" target="_top" xlink:title=" ">
<polygon fill="none" stroke="black" points="2680.5,-308 2680.5,-327 2812.5,-327 2812.5,-308 2680.5,-308"/>
<text text-anchor="middle" x="2746.5" y="-315" font-family="Helvetica,sans-Serif" font-size="10.00">src/gui/mxorthotransform.h</text>
</a>
</g>
</g>
<!-- Node1&#45;&gt;Node20 -->
<g id="edge22" class="edge">
<title>Node1&#45;&gt;Node20</title>
<path fill="none" stroke="midnightblue" d="M2026.3,-376.32C2152.03,-372.6 2432.27,-361.58 2666.5,-333 2678.97,-331.48 2692.44,-329.26 2704.7,-327.02"/>
<polygon fill="midnightblue" stroke="midnightblue" points="2025.96,-372.83 2016.07,-376.62 2026.16,-379.83 2025.96,-372.83"/>
</g>
<!-- Node21 -->
<g id="node20" class="node">
<title>Node21</title>
<g id="a_node20"><a xlink:href="mxquaddraw_8h.html" target="_top" xlink:title=" ">
<polygon fill="none" stroke="black" points="2831,-308 2831,-327 2942,-327 2942,-308 2831,-308"/>
<text text-anchor="middle" x="2886.5" y="-315" font-family="Helvetica,sans-Serif" font-size="10.00">src/gui/mxquaddraw.h</text>
</a>
</g>
</g>
<!-- Node1&#45;&gt;Node21 -->
<g id="edge23" class="edge">
<title>Node1&#45;&gt;Node21</title>
<path fill="none" stroke="midnightblue" d="M2026.12,-378.3C2171.33,-378.14 2526.98,-373.25 2821.5,-333 2831.92,-331.58 2843.15,-329.33 2853.29,-327.03"/>
<polygon fill="midnightblue" stroke="midnightblue" points="2026.03,-374.8 2016.03,-378.31 2026.03,-381.8 2026.03,-374.8"/>
</g>
<!-- Node23 -->
<g id="node22" class="node">
<title>Node23</title>
<g id="a_node22"><a xlink:href="mxtextdraw_8h.html" target="_top" xlink:title=" ">
<polygon fill="none" stroke="black" points="1906.5,-241 1906.5,-260 2012.5,-260 2012.5,-241 1906.5,-241"/>
<text text-anchor="middle" x="1959.5" y="-248" font-family="Helvetica,sans-Serif" font-size="10.00">src/gui/mxtextdraw.h</text>
</a>
</g>
</g>
<!-- Node1&#45;&gt;Node23 -->
<g id="edge25" class="edge">
<title>Node1&#45;&gt;Node23</title>
<path fill="none" stroke="midnightblue" d="M1959.5,-358.94C1959.5,-331.12 1959.5,-280.54 1959.5,-260.26"/>
<polygon fill="midnightblue" stroke="midnightblue" points="1956,-359.31 1959.5,-369.31 1963,-359.31 1956,-359.31"/>
</g>
<!-- Node25 -->
<g id="node24" class="node">
<title>Node25</title>
<g id="a_node24"><a xlink:href="mxvectordraw_8h.html" target="_top" xlink:title=" ">
<polygon fill="none" stroke="black" points="1303,-308 1303,-327 1420,-327 1420,-308 1303,-308"/>
<text text-anchor="middle" x="1361.5" y="-315" font-family="Helvetica,sans-Serif" font-size="10.00">src/gui/mxvectordraw.h</text>
</a>
</g>
</g>
<!-- Node1&#45;&gt;Node25 -->
<g id="edge28" class="edge">
<title>Node1&#45;&gt;Node25</title>
<path fill="none" stroke="midnightblue" d="M1893.01,-371.38C1775.28,-359.67 1532.08,-335.47 1420.18,-324.34"/>
<polygon fill="midnightblue" stroke="midnightblue" points="1892.67,-374.87 1902.97,-372.38 1893.37,-367.9 1892.67,-374.87"/>
</g>
<!-- Node38 -->
<g id="node35" class="node">
<title>Node38</title>
<g id="a_node35"><a xlink:href="mxabstractatlas_8h.html" target="_top" xlink:title=" ">
<polygon fill="none" stroke="black" points="473.5,-308 473.5,-327 625.5,-327 625.5,-308 473.5,-308"/>
<text text-anchor="middle" x="549.5" y="-315" font-family="Helvetica,sans-Serif" font-size="10.00">src/iconatlas/mxabstractatlas.h</text>
</a>
</g>
</g>
<!-- Node1&#45;&gt;Node38 -->
<g id="edge45" class="edge">
<title>Node1&#45;&gt;Node38</title>
<path fill="none" stroke="midnightblue" d="M1892.84,-375.19C1658.58,-365.3 873.86,-332.19 625.53,-321.71"/>
<polygon fill="midnightblue" stroke="midnightblue" points="1892.78,-378.69 1902.92,-375.61 1893.08,-371.69 1892.78,-378.69"/>
</g>
<!-- Node42 -->
<g id="node39" class="node">
<title>Node42</title>
<g id="a_node39"><a xlink:href="mxcolorwheelprogram_8h.html" target="_top" xlink:title=" ">
<polygon fill="none" stroke="black" points="2965.5,-302.5 2965.5,-332.5 3171.5,-332.5 3171.5,-302.5 2965.5,-302.5"/>
<text text-anchor="start" x="2973.5" y="-320.5" font-family="Helvetica,sans-Serif" font-size="10.00">src/renderer/opengl</text>
<text text-anchor="middle" x="3068.5" y="-309.5" font-family="Helvetica,sans-Serif" font-size="10.00">/colorwheelprogram/mxcolorwheelprogram.h</text>
</a>
</g>
</g>
<!-- Node1&#45;&gt;Node42 -->
<g id="edge52" class="edge">
<title>Node1&#45;&gt;Node42</title>
<path fill="none" stroke="midnightblue" d="M2026.17,-376.74C2185.96,-373.34 2603.3,-362.17 2950.5,-333 2955.33,-332.59 2960.27,-332.14 2965.26,-331.65"/>
<polygon fill="midnightblue" stroke="midnightblue" points="2025.95,-373.25 2016.02,-376.95 2026.1,-380.24 2025.95,-373.25"/>
</g>
<!-- Node44 -->
<g id="node41" class="node">
<title>Node44</title>
<g id="a_node41"><a xlink:href="mxiconprogram_8h.html" target="_top" xlink:title=" ">
<polygon fill="none" stroke="black" points="1619,-302.5 1619,-332.5 1768,-332.5 1768,-302.5 1619,-302.5"/>
<text text-anchor="start" x="1627" y="-320.5" font-family="Helvetica,sans-Serif" font-size="10.00">src/renderer/opengl</text>
<text text-anchor="middle" x="1693.5" y="-309.5" font-family="Helvetica,sans-Serif" font-size="10.00">/iconprogram/mxiconprogram.h</text>
</a>
</g>
</g>
<!-- Node1&#45;&gt;Node44 -->
<g id="edge55" class="edge">
<title>Node1&#45;&gt;Node44</title>
<path fill="none" stroke="midnightblue" d="M1911.63,-367.29C1868.16,-357.57 1803.76,-343.16 1756.19,-332.52"/>
<polygon fill="midnightblue" stroke="midnightblue" points="1910.87,-370.71 1921.39,-369.48 1912.39,-363.88 1910.87,-370.71"/>
</g>
<!-- Node45 -->
<g id="node42" class="node">
<title>Node45</title>
<g id="a_node42"><a xlink:href="mxbutton_8cpp.html" target="_top" xlink:title=" ">
<polygon fill="none" stroke="black" points="2791.5,-112.5 2791.5,-131.5 2919.5,-131.5 2919.5,-112.5 2791.5,-112.5"/>
<text text-anchor="middle" x="2855.5" y="-119.5" font-family="Helvetica,sans-Serif" font-size="10.00">src/widgets/mxbutton.cpp</text>
</a>
</g>
</g>
<!-- Node1&#45;&gt;Node45 -->
<g id="edge58" class="edge">
<title>Node1&#45;&gt;Node45</title>
<path fill="none" stroke="midnightblue" d="M2026.15,-377.02C2124.39,-374.48 2313.39,-365.39 2470.5,-333 2517.03,-323.41 2848.67,-237.5 2876.5,-199 2891.58,-178.14 2873.18,-146.93 2862.35,-131.82"/>
<polygon fill="midnightblue" stroke="midnightblue" points="2025.98,-373.52 2016.07,-377.27 2026.15,-380.52 2025.98,-373.52"/>
</g>
<!-- Node46 -->
<g id="node43" class="node">
<title>Node46</title>
<g id="a_node43"><a xlink:href="mxclippedwidget_8h.html" target="_top" xlink:title=" ">
<polygon fill="none" stroke="black" points="2313,-308 2313,-327 2462,-327 2462,-308 2313,-308"/>
<text text-anchor="middle" x="2387.5" y="-315" font-family="Helvetica,sans-Serif" font-size="10.00">src/widgets/mxclippedwidget.h</text>
</a>
</g>
</g>
<!-- Node1&#45;&gt;Node46 -->
<g id="edge59" class="edge">
<title>Node1&#45;&gt;Node46</title>
<path fill="none" stroke="midnightblue" d="M2026.31,-368.71C2108.47,-357.29 2246.77,-338.06 2326.27,-327.01"/>
<polygon fill="midnightblue" stroke="midnightblue" points="2025.76,-365.26 2016.34,-370.1 2026.72,-372.19 2025.76,-365.26"/>
</g>
<!-- Node47 -->
<g id="node44" class="node">
<title>Node47</title>
<g id="a_node44"><a xlink:href="mxwidget_8h.html" target="_top" xlink:title=" ">
<polygon fill="none" stroke="black" points="2401,-241 2401,-260 2520,-260 2520,-241 2401,-241"/>
<text text-anchor="middle" x="2460.5" y="-248" font-family="Helvetica,sans-Serif" font-size="10.00">src/widgets/mxwidget.h</text>
</a>
</g>
</g>
<!-- Node1&#45;&gt;Node47 -->
<g id="edge74" class="edge">
<title>Node1&#45;&gt;Node47</title>
<path fill="none" stroke="midnightblue" d="M2003.47,-366.9C2101.99,-342.02 2338.68,-282.26 2426.74,-260.02"/>
<polygon fill="midnightblue" stroke="midnightblue" points="2002.38,-363.56 1993.54,-369.4 2004.09,-370.35 2002.38,-363.56"/>
</g>
<!-- Node3 -->
<g id="node3" class="node">
<title>Node3</title>
<g id="a_node3"><a xlink:href="mxmatrix_8cpp.html" target="_top" xlink:title=" ">
<polygon fill="none" stroke="black" points="0,-241 0,-260 133,-260 133,-241 0,-241"/>
<text text-anchor="middle" x="66.5" y="-248" font-family="Helvetica,sans-Serif" font-size="10.00">src/geometry/mxmatrix.cpp</text>
</a>
</g>
</g>
<!-- Node2&#45;&gt;Node3 -->
<g id="edge2" class="edge">
<title>Node2&#45;&gt;Node3</title>
<path fill="none" stroke="midnightblue" d="M327.53,-305.88C266.18,-293.1 164.33,-271.88 107.7,-260.08"/>
<polygon fill="midnightblue" stroke="midnightblue" points="326.89,-309.32 337.39,-307.94 328.31,-302.47 326.89,-309.32"/>
</g>
<!-- Node4 -->
<g id="node4" class="node">
<title>Node4</title>
<g id="a_node4"><a xlink:href="mxicondraw_8cpp.html" target="_top" xlink:title=" ">
<polygon fill="none" stroke="black" points="332,-241 332,-260 451,-260 451,-241 332,-241"/>
<text text-anchor="middle" x="391.5" y="-248" font-family="Helvetica,sans-Serif" font-size="10.00">src/gui/mxicondraw.cpp</text>
</a>
</g>
</g>
<!-- Node2&#45;&gt;Node4 -->
<g id="edge3" class="edge">
<title>Node2&#45;&gt;Node4</title>
<path fill="none" stroke="midnightblue" d="M382.22,-297.91C384.7,-285.49 387.86,-269.72 389.77,-260.13"/>
<polygon fill="midnightblue" stroke="midnightblue" points="378.78,-297.24 380.25,-307.73 385.65,-298.61 378.78,-297.24"/>
</g>
<!-- Node5&#45;&gt;Node4 -->
<g id="edge5" class="edge">
<title>Node5&#45;&gt;Node4</title>
<path fill="none" stroke="midnightblue" d="M1815.99,-306.52C1802.98,-304.73 1789.31,-303.09 1776.5,-302 1193.5,-252.34 1041.59,-334.44 460.5,-266 449.19,-264.67 437,-262.39 426.05,-260.03"/>
<polygon fill="midnightblue" stroke="midnightblue" points="1815.86,-310.03 1826.25,-307.97 1816.84,-303.1 1815.86,-310.03"/>
</g>
<!-- Node6 -->
<g id="node6" class="node">
<title>Node6</title>
<g id="a_node6"><a xlink:href="mxpainter_8h.html" target="_top" xlink:title=" ">
<polygon fill="none" stroke="black" points="1762.5,-174 1762.5,-193 1860.5,-193 1860.5,-174 1762.5,-174"/>
<text text-anchor="middle" x="1811.5" y="-181" font-family="Helvetica,sans-Serif" font-size="10.00">src/gui/mxpainter.h</text>
</a>
</g>
</g>
<!-- Node5&#45;&gt;Node6 -->
<g id="edge6" class="edge">
<title>Node5&#45;&gt;Node6</title>
<path fill="none" stroke="midnightblue" d="M1876.21,-297.5C1874.38,-280.32 1870,-254.75 1859.5,-235 1850.41,-217.91 1833.94,-202.46 1822.85,-193.27"/>
<polygon fill="midnightblue" stroke="midnightblue" points="1872.76,-298.23 1877.11,-307.89 1879.73,-297.62 1872.76,-298.23"/>
</g>
<!-- Node5&#45;&gt;Node19 -->
<g id="edge21" class="edge">
<title>Node5&#45;&gt;Node19</title>
<path fill="none" stroke="midnightblue" d="M1854.38,-302.45C1836.43,-291.55 1811.66,-276.5 1793.69,-265.59"/>
<polygon fill="midnightblue" stroke="midnightblue" points="1852.71,-305.53 1863.07,-307.73 1856.34,-299.55 1852.71,-305.53"/>
</g>
<!-- Node7 -->
<g id="node7" class="node">
<title>Node7</title>
<g id="a_node7"><a xlink:href="mxapplication_8h.html" target="_top" xlink:title=" ">
<polygon fill="none" stroke="red" points="1622.5,-112.5 1622.5,-131.5 1754.5,-131.5 1754.5,-112.5 1622.5,-112.5"/>
<text text-anchor="middle" x="1688.5" y="-119.5" font-family="Helvetica,sans-Serif" font-size="10.00">src/events/mxapplication.h</text>
</a>
</g>
</g>
<!-- Node6&#45;&gt;Node7 -->
<g id="edge7" class="edge">
<title>Node6&#45;&gt;Node7</title>
<path fill="none" stroke="midnightblue" d="M1784.67,-169.52C1760.81,-157.98 1726.63,-141.44 1706.09,-131.51"/>
<polygon fill="midnightblue" stroke="midnightblue" points="1783.35,-172.77 1793.88,-173.98 1786.4,-166.47 1783.35,-172.77"/>
</g>
<!-- Node12 -->
<g id="node11" class="node">
<title>Node12</title>
<g id="a_node11"><a xlink:href="mxlineedit_8cpp.html" target="_top" xlink:title=" ">
<polygon fill="none" stroke="black" points="1922,-56.5 1922,-75.5 2053,-75.5 2053,-56.5 1922,-56.5"/>
<text text-anchor="middle" x="1987.5" y="-63.5" font-family="Helvetica,sans-Serif" font-size="10.00">src/widgets/mxlineedit.cpp</text>
</a>
</g>
</g>
<!-- Node6&#45;&gt;Node12 -->
<g id="edge18" class="edge">
<title>Node6&#45;&gt;Node12</title>
<path fill="none" stroke="midnightblue" d="M1851.14,-170.94C1885.63,-160.32 1932.4,-144.4 1947.5,-132 1966.34,-116.53 1978.76,-89.72 1984.26,-75.86"/>
<polygon fill="midnightblue" stroke="midnightblue" points="1849.87,-167.67 1841.32,-173.92 1851.91,-174.36 1849.87,-167.67"/>
</g>
<!-- Node13 -->
<g id="node12" class="node">
<title>Node13</title>
<g id="a_node12"><a xlink:href="mxtextbutton_8cpp.html" target="_top" xlink:title=" ">
<polygon fill="none" stroke="black" points="1750,-56.5 1750,-75.5 1893,-75.5 1893,-56.5 1750,-56.5"/>
<text text-anchor="middle" x="1821.5" y="-63.5" font-family="Helvetica,sans-Serif" font-size="10.00">src/widgets/mxtextbutton.cpp</text>
</a>
</g>
</g>
<!-- Node6&#45;&gt;Node13 -->
<g id="edge20" class="edge">
<title>Node6&#45;&gt;Node13</title>
<path fill="none" stroke="midnightblue" d="M1851.16,-170.87C1882.06,-160.92 1921.22,-146.02 1930.5,-132 1949.72,-102.97 1903.69,-85.02 1865.64,-75.52"/>
<polygon fill="midnightblue" stroke="midnightblue" points="1849.96,-167.58 1841.47,-173.92 1852.06,-174.26 1849.96,-167.58"/>
</g>
<!-- Node14 -->
<g id="node13" class="node">
<title>Node14</title>
<g id="a_node13"><a xlink:href="mxpainter_8cpp.html" target="_top" xlink:title=" ">
<polygon fill="none" stroke="black" points="1348,-112.5 1348,-131.5 1457,-131.5 1457,-112.5 1348,-112.5"/>
<text text-anchor="middle" x="1402.5" y="-119.5" font-family="Helvetica,sans-Serif" font-size="10.00">src/gui/mxpainter.cpp</text>
</a>
</g>
</g>
<!-- Node6&#45;&gt;Node14 -->
<g id="edge14" class="edge">
<title>Node6&#45;&gt;Node14</title>
<path fill="none" stroke="midnightblue" d="M1769.65,-171.58C1763.91,-170.27 1758.07,-169.03 1752.5,-168 1626.97,-144.73 1594.07,-148.76 1467.5,-132 1464.11,-131.55 1460.63,-131.08 1457.11,-130.61"/>
<polygon fill="midnightblue" stroke="midnightblue" points="1769.26,-175.09 1779.8,-174 1770.88,-168.28 1769.26,-175.09"/>
</g>
<!-- Node15 -->
<g id="node14" class="node">
<title>Node15</title>
<g id="a_node14"><a xlink:href="mxlabel_8h.html" target="_top" xlink:title=" ">
<polygon fill="none" stroke="red" points="2308.5,-112.5 2308.5,-131.5 2418.5,-131.5 2418.5,-112.5 2308.5,-112.5"/>
<text text-anchor="middle" x="2363.5" y="-119.5" font-family="Helvetica,sans-Serif" font-size="10.00">src/widgets/mxlabel.h</text>
</a>
</g>
</g>
<!-- Node6&#45;&gt;Node15 -->
<g id="edge15" class="edge">
<title>Node6&#45;&gt;Node15</title>
<path fill="none" stroke="midnightblue" d="M1851.57,-171.59C1857.55,-170.22 1863.66,-168.97 1869.5,-168 2058.7,-136.64 2108.91,-153.36 2299.5,-132 2302.4,-131.68 2305.37,-131.32 2308.37,-130.95"/>
<polygon fill="midnightblue" stroke="midnightblue" points="1850.61,-168.22 1841.71,-173.97 1852.25,-175.03 1850.61,-168.22"/>
</g>
<!-- Node16 -->
<g id="node15" class="node">
<title>Node16</title>
<g id="a_node15"><a xlink:href="mxlayout_8cpp.html" target="_top" xlink:title=" ">
<polygon fill="none" stroke="black" points="2016.5,-112.5 2016.5,-131.5 2142.5,-131.5 2142.5,-112.5 2016.5,-112.5"/>
<text text-anchor="middle" x="2079.5" y="-119.5" font-family="Helvetica,sans-Serif" font-size="10.00">src/widgets/mxlayout.cpp</text>
</a>
</g>
</g>
<!-- Node6&#45;&gt;Node16 -->
<g id="edge16" class="edge">
<title>Node6&#45;&gt;Node16</title>
<path fill="none" stroke="midnightblue" d="M1854.88,-171.48C1859.81,-170.28 1864.76,-169.1 1869.5,-168 1927.61,-154.51 1995.12,-140.31 2037.57,-131.55"/>
<polygon fill="midnightblue" stroke="midnightblue" points="1853.76,-168.16 1844.88,-173.95 1855.43,-174.95 1853.76,-168.16"/>
</g>
<!-- Node17 -->
<g id="node16" class="node">
<title>Node17</title>
<g id="a_node16"><a xlink:href="mxlinearlayout_8cpp.html" target="_top" xlink:title=" ">
<polygon fill="none" stroke="black" points="1773,-112.5 1773,-131.5 1922,-131.5 1922,-112.5 1773,-112.5"/>
<text text-anchor="middle" x="1847.5" y="-119.5" font-family="Helvetica,sans-Serif" font-size="10.00">src/widgets/mxlinearlayout.cpp</text>
</a>
</g>
</g>
<!-- Node6&#45;&gt;Node17 -->
<g id="edge17" class="edge">
<title>Node6&#45;&gt;Node17</title>
<path fill="none" stroke="midnightblue" d="M1821.98,-165.17C1828.68,-154.11 1837.06,-140.25 1842.35,-131.51"/>
<polygon fill="midnightblue" stroke="midnightblue" points="1818.84,-163.61 1816.66,-173.98 1824.83,-167.23 1818.84,-163.61"/>
</g>
<!-- Node18 -->
<g id="node17" class="node">
<title>Node18</title>
<g id="a_node17"><a xlink:href="mxspacer_8cpp.html" target="_top" xlink:title=" ">
<polygon fill="none" stroke="black" points="2160.5,-112.5 2160.5,-131.5 2290.5,-131.5 2290.5,-112.5 2160.5,-112.5"/>
<text text-anchor="middle" x="2225.5" y="-119.5" font-family="Helvetica,sans-Serif" font-size="10.00">src/widgets/mxspacer.cpp</text>
</a>
</g>
</g>
<!-- Node6&#45;&gt;Node18 -->
<g id="edge19" class="edge">
<title>Node6&#45;&gt;Node18</title>
<path fill="none" stroke="midnightblue" d="M1852.64,-171.57C1858.28,-170.26 1864.02,-169.03 1869.5,-168 1883.58,-165.36 2061.33,-143.27 2160.2,-131.05"/>
<polygon fill="midnightblue" stroke="midnightblue" points="1851.55,-168.24 1842.65,-173.99 1853.2,-175.04 1851.55,-168.24"/>
</g>
<!-- Node8 -->
<g id="node8" class="node">
<title>Node8</title>
<g id="a_node8"><a xlink:href="mxapplication_8cpp.html" target="_top" xlink:title=" ">
<polygon fill="none" stroke="black" points="2311,-56.5 2311,-75.5 2454,-75.5 2454,-56.5 2311,-56.5"/>
<text text-anchor="middle" x="2382.5" y="-63.5" font-family="Helvetica,sans-Serif" font-size="10.00">src/events/mxapplication.cpp</text>
</a>
</g>
</g>
<!-- Node7&#45;&gt;Node8 -->
<g id="edge8" class="edge">
<title>Node7&#45;&gt;Node8</title>
<path fill="none" stroke="midnightblue" d="M1764.75,-111.92C1968.9,-92.46 2197.41,-77.87 2310.92,-71.11"/>
<polygon fill="midnightblue" stroke="midnightblue" points="1764.36,-108.44 1754.74,-112.88 1765.02,-115.41 1764.36,-108.44"/>
</g>
<!-- Node9 -->
<g id="node9" class="node">
<title>Node9</title>
<g id="a_node9"><a xlink:href="qmewawindow_8cpp.html" target="_top" xlink:title=" ">
<polygon fill="none" stroke="black" points="1617,-0.5 1617,-19.5 1782,-19.5 1782,-0.5 1617,-0.5"/>
<text text-anchor="middle" x="1699.5" y="-7.5" font-family="Helvetica,sans-Serif" font-size="10.00">src/platform/qt/qmewawindow.cpp</text>
</a>
</g>
</g>
<!-- Node7&#45;&gt;Node9 -->
<g id="edge9" class="edge">
<title>Node7&#45;&gt;Node9</title>
<path fill="none" stroke="midnightblue" d="M1690.37,-102.35C1692.77,-78.25 1696.87,-37.31 1698.64,-19.59"/>
<polygon fill="midnightblue" stroke="midnightblue" points="1686.88,-102.07 1689.36,-112.37 1693.84,-102.77 1686.88,-102.07"/>
</g>
<!-- Node10 -->
<g id="node10" class="node">
<title>Node10</title>
<g id="a_node10"><a xlink:href="qmewawindow_8h.html" target="_top" xlink:title=" ">
<polygon fill="none" stroke="black" points="1516,-56.5 1516,-75.5 1671,-75.5 1671,-56.5 1516,-56.5"/>
<text text-anchor="middle" x="1593.5" y="-63.5" font-family="Helvetica,sans-Serif" font-size="10.00">src/platform/qt/qmewawindow.h</text>
</a>
</g>
</g>
<!-- Node7&#45;&gt;Node10 -->
<g id="edge10" class="edge">
<title>Node7&#45;&gt;Node10</title>
<path fill="none" stroke="midnightblue" d="M1664.18,-107.18C1646.7,-97.24 1623.67,-84.15 1608.73,-75.65"/>
<polygon fill="midnightblue" stroke="midnightblue" points="1662.81,-110.43 1673.24,-112.32 1666.27,-104.34 1662.81,-110.43"/>
</g>
<!-- Node7&#45;&gt;Node12 -->
<g id="edge12" class="edge">
<title>Node7&#45;&gt;Node12</title>
<path fill="none" stroke="midnightblue" d="M1745.73,-110.66C1802.24,-100.46 1887.62,-85.04 1940.34,-75.52"/>
<polygon fill="midnightblue" stroke="midnightblue" points="1745.1,-107.22 1735.88,-112.44 1746.34,-114.11 1745.1,-107.22"/>
</g>
<!-- Node7&#45;&gt;Node13 -->
<g id="edge13" class="edge">
<title>Node7&#45;&gt;Node13</title>
<path fill="none" stroke="midnightblue" d="M1718.95,-108.64C1743.91,-98.5 1778.58,-84.43 1800.52,-75.52"/>
<polygon fill="midnightblue" stroke="midnightblue" points="1717.52,-105.44 1709.57,-112.44 1720.16,-111.92 1717.52,-105.44"/>
</g>
<!-- Node10&#45;&gt;Node9 -->
<g id="edge11" class="edge">
<title>Node10&#45;&gt;Node9</title>
<path fill="none" stroke="midnightblue" d="M1619.56,-51.73C1639.18,-41.73 1665.53,-28.31 1682.51,-19.65"/>
<polygon fill="midnightblue" stroke="midnightblue" points="1617.85,-48.67 1610.53,-56.32 1621.03,-54.9 1617.85,-48.67"/>
</g>
<!-- Node22 -->
<g id="node21" class="node">
<title>Node22</title>
<g id="a_node21"><a xlink:href="mxquaddraw_8cpp.html" target="_top" xlink:title=" ">
<polygon fill="none" stroke="black" points="2822.5,-241 2822.5,-260 2944.5,-260 2944.5,-241 2822.5,-241"/>
<text text-anchor="middle" x="2883.5" y="-248" font-family="Helvetica,sans-Serif" font-size="10.00">src/gui/mxquaddraw.cpp</text>
</a>
</g>
</g>
<!-- Node21&#45;&gt;Node22 -->
<g id="edge24" class="edge">
<title>Node21&#45;&gt;Node22</title>
<path fill="none" stroke="midnightblue" d="M2885.62,-297.54C2885.05,-285.17 2884.34,-269.62 2883.9,-260.13"/>
<polygon fill="midnightblue" stroke="midnightblue" points="2882.14,-297.91 2886.1,-307.73 2889.13,-297.58 2882.14,-297.91"/>
</g>
<!-- Node23&#45;&gt;Node6 -->
<g id="edge26" class="edge">
<title>Node23&#45;&gt;Node6</title>
<path fill="none" stroke="midnightblue" d="M1930.54,-236.78C1901.23,-223.91 1856.71,-204.35 1831.23,-193.17"/>
<polygon fill="midnightblue" stroke="midnightblue" points="1929.28,-240.05 1939.85,-240.87 1932.1,-233.64 1929.28,-240.05"/>
</g>
<!-- Node24 -->
<g id="node23" class="node">
<title>Node24</title>
<g id="a_node23"><a xlink:href="mxtextdraw_8cpp.html" target="_top" xlink:title=" ">
<polygon fill="none" stroke="black" points="1878.5,-174 1878.5,-193 1994.5,-193 1994.5,-174 1878.5,-174"/>
<text text-anchor="middle" x="1936.5" y="-181" font-family="Helvetica,sans-Serif" font-size="10.00">src/gui/mxtextdraw.cpp</text>
</a>
</g>
</g>
<!-- Node23&#45;&gt;Node24 -->
<g id="edge27" class="edge">
<title>Node23&#45;&gt;Node24</title>
<path fill="none" stroke="midnightblue" d="M1953.06,-231.29C1948.64,-218.81 1942.98,-202.81 1939.55,-193.13"/>
<polygon fill="midnightblue" stroke="midnightblue" points="1949.76,-232.47 1956.4,-240.73 1956.36,-230.14 1949.76,-232.47"/>
</g>
<!-- Node25&#45;&gt;Node6 -->
<g id="edge29" class="edge">
<title>Node25&#45;&gt;Node6</title>
<path fill="none" stroke="midnightblue" d="M1403.04,-305.29C1439.98,-295.24 1495.44,-279.97 1543.5,-266 1631.76,-240.34 1735.77,-208.15 1784.17,-193.05"/>
<polygon fill="midnightblue" stroke="midnightblue" points="1401.86,-301.98 1393.13,-307.98 1403.7,-308.73 1401.86,-301.98"/>
</g>
<!-- Node26 -->
<g id="node25" class="node">
<title>Node26</title>
<g id="a_node25"><a xlink:href="mxsvgpainter_8cpp.html" target="_top" xlink:title=" ">
<polygon fill="none" stroke="black" points="660,-174 660,-193 785,-193 785,-174 660,-174"/>
<text text-anchor="middle" x="722.5" y="-181" font-family="Helvetica,sans-Serif" font-size="10.00">src/gui/mxsvgpainter.cpp</text>
</a>
</g>
</g>
<!-- Node25&#45;&gt;Node26 -->
<g id="edge30" class="edge">
<title>Node25&#45;&gt;Node26</title>
<path fill="none" stroke="midnightblue" d="M1292.49,-307.81C1226.45,-299.02 1124.21,-284.15 1036.5,-266 930.33,-244.03 806.29,-209.02 751.28,-193"/>
<polygon fill="midnightblue" stroke="midnightblue" points="1292.39,-311.33 1302.77,-309.17 1293.31,-304.39 1292.39,-311.33"/>
</g>
<!-- Node27 -->
<g id="node26" class="node">
<title>Node27</title>
<g id="a_node26"><a xlink:href="mxsvgpainter_8h.html" target="_top" xlink:title=" ">
<polygon fill="none" stroke="black" points="1191.5,-241 1191.5,-260 1305.5,-260 1305.5,-241 1191.5,-241"/>
<text text-anchor="middle" x="1248.5" y="-248" font-family="Helvetica,sans-Serif" font-size="10.00">src/gui/mxsvgpainter.h</text>
</a>
</g>
</g>
<!-- Node25&#45;&gt;Node27 -->
<g id="edge31" class="edge">
<title>Node25&#45;&gt;Node27</title>
<path fill="none" stroke="midnightblue" d="M1337.36,-302.62C1314.97,-289.74 1282.36,-270.98 1263.5,-260.13"/>
<polygon fill="midnightblue" stroke="midnightblue" points="1335.85,-305.78 1346.26,-307.73 1339.34,-299.71 1335.85,-305.78"/>
</g>
<!-- Node31 -->
<g id="node30" class="node">
<title>Node31</title>
<g id="a_node30"><a xlink:href="mxvectordraw_8cpp.html" target="_top" xlink:title=" ">
<polygon fill="none" stroke="black" points="1045.5,-241 1045.5,-260 1173.5,-260 1173.5,-241 1045.5,-241"/>
<text text-anchor="middle" x="1109.5" y="-248" font-family="Helvetica,sans-Serif" font-size="10.00">src/gui/mxvectordraw.cpp</text>
</a>
</g>
</g>
<!-- Node25&#45;&gt;Node31 -->
<g id="edge37" class="edge">
<title>Node25&#45;&gt;Node31</title>
<path fill="none" stroke="midnightblue" d="M1318.48,-305.4C1268.75,-292.58 1187.95,-271.74 1142.78,-260.08"/>
<polygon fill="midnightblue" stroke="midnightblue" points="1317.74,-308.83 1328.3,-307.94 1319.49,-302.05 1317.74,-308.83"/>
</g>
<!-- Node32 -->
<g id="node31" class="node">
<title>Node32</title>
<g id="a_node31"><a xlink:href="mxvectorprogram_8h.html" target="_top" xlink:title=" ">
<polygon fill="none" stroke="black" points="1368,-235.5 1368,-265.5 1535,-265.5 1535,-235.5 1368,-235.5"/>
<text text-anchor="start" x="1376" y="-253.5" font-family="Helvetica,sans-Serif" font-size="10.00">src/renderer/opengl</text>
<text text-anchor="middle" x="1451.5" y="-242.5" font-family="Helvetica,sans-Serif" font-size="10.00">/vectorprogram/mxvectorprogram.h</text>
</a>
</g>
</g>
<!-- Node25&#45;&gt;Node32 -->
<g id="edge38" class="edge">
<title>Node25&#45;&gt;Node32</title>
<path fill="none" stroke="midnightblue" d="M1381.79,-301.85C1396.81,-291 1417.16,-276.3 1431.99,-265.59"/>
<polygon fill="midnightblue" stroke="midnightblue" points="1379.7,-299.04 1373.64,-307.73 1383.79,-304.72 1379.7,-299.04"/>
</g>
<!-- Node27&#45;&gt;Node14 -->
<g id="edge32" class="edge">
<title>Node27&#45;&gt;Node14</title>
<path fill="none" stroke="midnightblue" d="M1280.35,-236.96C1300.13,-228.2 1325.34,-215.19 1344.5,-199 1368.33,-178.86 1388.44,-147.31 1397.44,-131.98"/>
<polygon fill="midnightblue" stroke="midnightblue" points="1278.94,-233.76 1271.13,-240.92 1281.7,-240.19 1278.94,-233.76"/>
</g>
<!-- Node27&#45;&gt;Node26 -->
<g id="edge33" class="edge">
<title>Node27&#45;&gt;Node26</title>
<path fill="none" stroke="midnightblue" d="M1203.36,-238.81C1196.4,-237.38 1189.28,-236.05 1182.5,-235 1010.93,-208.32 965.26,-224.41 793.5,-199 782.67,-197.4 771,-195.21 760.32,-193.02"/>
<polygon fill="midnightblue" stroke="midnightblue" points="1202.86,-242.28 1213.37,-240.94 1204.32,-235.43 1202.86,-242.28"/>
</g>
<!-- Node28 -->
<g id="node27" class="node">
<title>Node28</title>
<g id="a_node27"><a xlink:href="downarrowsvg_8cpp.html" target="_top" xlink:title=" ">
<polygon fill="none" stroke="black" points="1161,-174 1161,-193 1336,-193 1336,-174 1161,-174"/>
<text text-anchor="middle" x="1248.5" y="-181" font-family="Helvetica,sans-Serif" font-size="10.00">src/svg&#45;drawings/downarrowsvg.cpp</text>
</a>
</g>
</g>
<!-- Node27&#45;&gt;Node28 -->
<g id="edge34" class="edge">
<title>Node27&#45;&gt;Node28</title>
<path fill="none" stroke="midnightblue" d="M1248.5,-230.54C1248.5,-218.17 1248.5,-202.62 1248.5,-193.13"/>
<polygon fill="midnightblue" stroke="midnightblue" points="1245,-230.73 1248.5,-240.73 1252,-230.73 1245,-230.73"/>
</g>
<!-- Node29 -->
<g id="node28" class="node">
<title>Node29</title>
<g id="a_node28"><a xlink:href="heartsvg_8cpp.html" target="_top" xlink:title=" ">
<polygon fill="none" stroke="black" points="803,-174 803,-193 952,-193 952,-174 803,-174"/>
<text text-anchor="middle" x="877.5" y="-181" font-family="Helvetica,sans-Serif" font-size="10.00">src/svg&#45;drawings/heartsvg.cpp</text>
</a>
</g>
</g>
<!-- Node27&#45;&gt;Node29 -->
<g id="edge35" class="edge">
<title>Node27&#45;&gt;Node29</title>
<path fill="none" stroke="midnightblue" d="M1201.39,-238.82C1195.05,-237.48 1188.63,-236.17 1182.5,-235 1084.75,-216.32 1059.65,-215.46 961.5,-199 950.12,-197.09 937.87,-195 926.35,-193.01"/>
<polygon fill="midnightblue" stroke="midnightblue" points="1200.71,-242.26 1211.23,-240.94 1202.19,-235.41 1200.71,-242.26"/>
</g>
<!-- Node30 -->
<g id="node29" class="node">
<title>Node30</title>
<g id="a_node29"><a xlink:href="plusminussvg_8cpp.html" target="_top" xlink:title=" ">
<polygon fill="none" stroke="black" points="970.5,-174 970.5,-193 1142.5,-193 1142.5,-174 970.5,-174"/>
<text text-anchor="middle" x="1056.5" y="-181" font-family="Helvetica,sans-Serif" font-size="10.00">src/svg&#45;drawings/plusminussvg.cpp</text>
</a>
</g>
</g>
<!-- Node27&#45;&gt;Node30 -->
<g id="edge36" class="edge">
<title>Node27&#45;&gt;Node30</title>
<path fill="none" stroke="midnightblue" d="M1213.35,-237.6C1175.29,-224.71 1115.5,-204.47 1081.8,-193.06"/>
<polygon fill="midnightblue" stroke="midnightblue" points="1212.41,-240.98 1223,-240.87 1214.65,-234.35 1212.41,-240.98"/>
</g>
<!-- Node32&#45;&gt;Node14 -->
<g id="edge43" class="edge">
<title>Node32&#45;&gt;Node14</title>
<path fill="none" stroke="midnightblue" d="M1436.19,-226.94C1430.95,-218.46 1425.43,-208.56 1421.5,-199 1411.87,-175.61 1406.2,-146.09 1403.82,-131.69"/>
<polygon fill="midnightblue" stroke="midnightblue" points="1433.33,-228.96 1441.67,-235.5 1439.22,-225.19 1433.33,-228.96"/>
</g>
<!-- Node33 -->
<g id="node32" class="node">
<title>Node33</title>
<g id="a_node32"><a xlink:href="mxguirenderer_8h.html" target="_top" xlink:title=" ">
<polygon fill="none" stroke="red" points="1627,-174 1627,-193 1744,-193 1744,-174 1627,-174"/>
<text text-anchor="middle" x="1685.5" y="-181" font-family="Helvetica,sans-Serif" font-size="10.00">src/gui/mxguirenderer.h</text>
</a>
</g>
</g>
<!-- Node32&#45;&gt;Node33 -->
<g id="edge39" class="edge">
<title>Node32&#45;&gt;Node33</title>
<path fill="none" stroke="midnightblue" d="M1511.8,-232.75C1557.56,-220.04 1618.59,-203.09 1654.8,-193.03"/>
<polygon fill="midnightblue" stroke="midnightblue" points="1510.68,-229.43 1501.99,-235.48 1512.56,-236.17 1510.68,-229.43"/>
</g>
<!-- Node37 -->
<g id="node34" class="node">
<title>Node37</title>
<g id="a_node34"><a xlink:href="mxvectorprogram_8cpp.html" target="_top" xlink:title=" ">
<polygon fill="none" stroke="black" points="1430.5,-168.5 1430.5,-198.5 1608.5,-198.5 1608.5,-168.5 1430.5,-168.5"/>
<text text-anchor="start" x="1438.5" y="-186.5" font-family="Helvetica,sans-Serif" font-size="10.00">src/renderer/opengl</text>
<text text-anchor="middle" x="1519.5" y="-175.5" font-family="Helvetica,sans-Serif" font-size="10.00">/vectorprogram/mxvectorprogram.cpp</text>
</a>
</g>
</g>
<!-- Node32&#45;&gt;Node37 -->
<g id="edge44" class="edge">
<title>Node32&#45;&gt;Node37</title>
<path fill="none" stroke="midnightblue" d="M1473.67,-228.31C1483.87,-218.56 1495.69,-207.26 1504.77,-198.58"/>
<polygon fill="midnightblue" stroke="midnightblue" points="1471.07,-225.96 1466.25,-235.4 1475.9,-231.02 1471.07,-225.96"/>
</g>
<!-- Node33&#45;&gt;Node7 -->
<g id="edge40" class="edge">
<title>Node33&#45;&gt;Node7</title>
<path fill="none" stroke="midnightblue" d="M1686.44,-163.82C1686.99,-153 1687.65,-139.9 1688.07,-131.51"/>
<polygon fill="midnightblue" stroke="midnightblue" points="1682.94,-163.81 1685.93,-173.98 1689.93,-164.16 1682.94,-163.81"/>
</g>
<!-- Node33&#45;&gt;Node14 -->
<g id="edge42" class="edge">
<title>Node33&#45;&gt;Node14</title>
<path fill="none" stroke="midnightblue" d="M1635.49,-171.81C1629.43,-170.53 1623.33,-169.23 1617.5,-168 1557.06,-155.23 1487.01,-140.6 1443.73,-131.58"/>
<polygon fill="midnightblue" stroke="midnightblue" points="1635.08,-175.31 1645.59,-173.96 1636.54,-168.46 1635.08,-175.31"/>
</g>
<!-- Node34 -->
<g id="node33" class="node">
<title>Node34</title>
<g id="a_node33"><a xlink:href="mxguirenderer_8cpp.html" target="_top" xlink:title=" ">
<polygon fill="none" stroke="black" points="1476.5,-112.5 1476.5,-131.5 1604.5,-131.5 1604.5,-112.5 1476.5,-112.5"/>
<text text-anchor="middle" x="1540.5" y="-119.5" font-family="Helvetica,sans-Serif" font-size="10.00">src/gui/mxguirenderer.cpp</text>
</a>
</g>
</g>
<!-- Node33&#45;&gt;Node34 -->
<g id="edge41" class="edge">
<title>Node33&#45;&gt;Node34</title>
<path fill="none" stroke="midnightblue" d="M1655.36,-170.13C1627.19,-158.57 1585.88,-141.62 1561.24,-131.51"/>
<polygon fill="midnightblue" stroke="midnightblue" points="1654.14,-173.42 1664.73,-173.98 1656.8,-166.94 1654.14,-173.42"/>
</g>
<!-- Node38&#45;&gt;Node4 -->
<g id="edge46" class="edge">
<title>Node38&#45;&gt;Node4</title>
<path fill="none" stroke="midnightblue" d="M518.99,-303.95C487.71,-291.08 439.88,-271.4 412.57,-260.17"/>
<polygon fill="midnightblue" stroke="midnightblue" points="517.94,-307.3 528.52,-307.87 520.6,-300.83 517.94,-307.3"/>
</g>
<!-- Node38&#45;&gt;Node14 -->
<g id="edge47" class="edge">
<title>Node38&#45;&gt;Node14</title>
<path fill="none" stroke="midnightblue" d="M572.68,-302.35C585.85,-293.33 601.79,-280.61 612.5,-266 640.12,-228.32 612.76,-195.53 650.5,-168 706.43,-127.19 1184.33,-123.1 1347.88,-122.91"/>
<polygon fill="midnightblue" stroke="midnightblue" points="570.54,-299.57 564.11,-307.99 574.39,-305.42 570.54,-299.57"/>
</g>
<!-- Node39 -->
<g id="node36" class="node">
<title>Node39</title>
<g id="a_node36"><a xlink:href="mxabstractatlas_8cpp.html" target="_top" xlink:title=" ">
<polygon fill="none" stroke="black" points="151.5,-241 151.5,-260 313.5,-260 313.5,-241 151.5,-241"/>
<text text-anchor="middle" x="232.5" y="-248" font-family="Helvetica,sans-Serif" font-size="10.00">src/iconatlas/mxabstractatlas.cpp</text>
</a>
</g>
</g>
<!-- Node38&#45;&gt;Node39 -->
<g id="edge48" class="edge">
<title>Node38&#45;&gt;Node39</title>
<path fill="none" stroke="midnightblue" d="M497.7,-305.88C435.27,-293.08 331.59,-271.82 274.11,-260.03"/>
<polygon fill="midnightblue" stroke="midnightblue" points="497.23,-309.36 507.73,-307.94 498.64,-302.5 497.23,-309.36"/>
</g>
<!-- Node40 -->
<g id="node37" class="node">
<title>Node40</title>
<g id="a_node37"><a xlink:href="mxiconatlas_8h.html" target="_top" xlink:title=" ">
<polygon fill="none" stroke="black" points="469.5,-241 469.5,-260 603.5,-260 603.5,-241 469.5,-241"/>
<text text-anchor="middle" x="536.5" y="-248" font-family="Helvetica,sans-Serif" font-size="10.00">src/iconatlas/mxiconatlas.h</text>
</a>
</g>
</g>
<!-- Node38&#45;&gt;Node40 -->
<g id="edge49" class="edge">
<title>Node38&#45;&gt;Node40</title>
<path fill="none" stroke="midnightblue" d="M545.78,-297.91C543.3,-285.49 540.14,-269.72 538.23,-260.13"/>
<polygon fill="midnightblue" stroke="midnightblue" points="542.35,-298.61 547.75,-307.73 549.22,-297.24 542.35,-298.61"/>
</g>
<!-- Node40&#45;&gt;Node10 -->
<g id="edge51" class="edge">
<title>Node40&#45;&gt;Node10</title>
<path fill="none" stroke="midnightblue" d="M505.29,-236.93C471.25,-221.49 424.59,-194.11 448.5,-168 520.47,-89.4 1269.64,-71.65 1515.69,-67.92"/>
<polygon fill="midnightblue" stroke="midnightblue" points="503.93,-240.15 514.49,-240.96 506.74,-233.74 503.93,-240.15"/>
</g>
<!-- Node41 -->
<g id="node38" class="node">
<title>Node41</title>
<g id="a_node38"><a xlink:href="mxiconatlas_8cpp.html" target="_top" xlink:title=" ">
<polygon fill="none" stroke="black" points="458,-174 458,-193 603,-193 603,-174 458,-174"/>
<text text-anchor="middle" x="530.5" y="-181" font-family="Helvetica,sans-Serif" font-size="10.00">src/iconatlas/mxiconatlas.cpp</text>
</a>
</g>
</g>
<!-- Node40&#45;&gt;Node41 -->
<g id="edge50" class="edge">
<title>Node40&#45;&gt;Node41</title>
<path fill="none" stroke="midnightblue" d="M534.75,-230.54C533.61,-218.17 532.17,-202.62 531.3,-193.13"/>
<polygon fill="midnightblue" stroke="midnightblue" points="531.29,-231.1 535.69,-240.73 538.26,-230.45 531.29,-231.1"/>
</g>
<!-- Node43 -->
<g id="node40" class="node">
<title>Node43</title>
<g id="a_node40"><a xlink:href="mxcolorwheelprogram_8cpp.html" target="_top" xlink:title=" ">
<polygon fill="none" stroke="black" points="2963,-235.5 2963,-265.5 3180,-265.5 3180,-235.5 2963,-235.5"/>
<text text-anchor="start" x="2971" y="-253.5" font-family="Helvetica,sans-Serif" font-size="10.00">src/renderer/opengl</text>
<text text-anchor="middle" x="3071.5" y="-242.5" font-family="Helvetica,sans-Serif" font-size="10.00">/colorwheelprogram/mxcolorwheelprogram.cpp</text>
</a>
</g>
</g>
<!-- Node42&#45;&gt;Node43 -->
<g id="edge53" class="edge">
<title>Node42&#45;&gt;Node43</title>
<path fill="none" stroke="midnightblue" d="M3069.61,-292.4C3070.03,-283.37 3070.49,-273.41 3070.85,-265.58"/>
<polygon fill="midnightblue" stroke="midnightblue" points="3066.12,-292.25 3069.15,-302.4 3073.11,-292.57 3066.12,-292.25"/>
</g>
<!-- Node44&#45;&gt;Node19 -->
<g id="edge57" class="edge">
<title>Node44&#45;&gt;Node19</title>
<path fill="none" stroke="midnightblue" d="M1717.92,-295.88C1729.62,-286.01 1743.34,-274.43 1753.82,-265.58"/>
<polygon fill="midnightblue" stroke="midnightblue" points="1715.59,-293.27 1710.21,-302.4 1720.11,-298.62 1715.59,-293.27"/>
</g>
<!-- Node44&#45;&gt;Node33 -->
<g id="edge56" class="edge">
<title>Node44&#45;&gt;Node33</title>
<path fill="none" stroke="midnightblue" d="M1686.54,-292.31C1684.49,-284.04 1682.52,-274.68 1681.5,-266 1678.4,-239.55 1682.01,-207.99 1684.15,-193.1"/>
<polygon fill="midnightblue" stroke="midnightblue" points="1683.18,-293.3 1689.12,-302.08 1689.95,-291.51 1683.18,-293.3"/>
</g>
<!-- Node46&#45;&gt;Node47 -->
<g id="edge60" class="edge">
<title>Node46&#45;&gt;Node47</title>
<path fill="none" stroke="midnightblue" d="M2405.07,-300.86C2419.42,-288.08 2439.17,-270.49 2450.81,-260.13"/>
<polygon fill="midnightblue" stroke="midnightblue" points="2402.49,-298.47 2397.35,-307.73 2407.14,-303.7 2402.49,-298.47"/>
</g>
<!-- Node47&#45;&gt;Node8 -->
<g id="edge61" class="edge">
<title>Node47&#45;&gt;Node8</title>
<path fill="none" stroke="midnightblue" d="M2530.4,-246.65C2601.25,-240.74 2696.25,-222.71 2664.5,-168 2622.74,-96.03 2523.02,-74.57 2454.11,-68.6"/>
<polygon fill="midnightblue" stroke="midnightblue" points="2529.84,-243.18 2520.14,-247.44 2530.37,-250.16 2529.84,-243.18"/>
</g>
<!-- Node47&#45;&gt;Node9 -->
<g id="edge63" class="edge">
<title>Node47&#45;&gt;Node9</title>
<path fill="none" stroke="midnightblue" d="M2530.43,-243.01C2588.2,-236.03 2663.66,-222.61 2682.5,-199 2709.91,-164.65 2671.95,-136.55 2635.5,-112 2497.15,-18.8 1984.33,-10.01 1782.18,-10.28"/>
<polygon fill="midnightblue" stroke="midnightblue" points="2529.76,-239.56 2520.24,-244.2 2530.57,-246.51 2529.76,-239.56"/>
</g>
<!-- Node47&#45;&gt;Node15 -->
<g id="edge66" class="edge">
<title>Node47&#45;&gt;Node15</title>
<path fill="none" stroke="midnightblue" d="M2459.99,-230.75C2458.63,-213 2454.23,-186.39 2440.5,-168 2427.53,-150.63 2405.72,-138.8 2388.61,-131.65"/>
<polygon fill="midnightblue" stroke="midnightblue" points="2456.51,-231.16 2460.51,-240.97 2463.5,-230.8 2456.51,-231.16"/>
</g>
<!-- Node48 -->
<g id="node45" class="node">
<title>Node48</title>
<g id="a_node45"><a xlink:href="mxmouseevent_8cpp.html" target="_top" xlink:title=" ">
<polygon fill="none" stroke="black" points="2012,-174 2012,-193 2161,-193 2161,-174 2012,-174"/>
<text text-anchor="middle" x="2086.5" y="-181" font-family="Helvetica,sans-Serif" font-size="10.00">src/events/mxmouseevent.cpp</text>
</a>
</g>
</g>
<!-- Node47&#45;&gt;Node48 -->
<g id="edge62" class="edge">
<title>Node47&#45;&gt;Node48</title>
<path fill="none" stroke="midnightblue" d="M2401.11,-239.21C2342.3,-229.02 2249.68,-212.96 2169.5,-199 2158.4,-197.07 2146.47,-194.99 2135.21,-193.02"/>
<polygon fill="midnightblue" stroke="midnightblue" points="2400.88,-242.72 2411.33,-240.98 2402.07,-235.83 2400.88,-242.72"/>
</g>
<!-- Node49 -->
<g id="node46" class="node">
<title>Node49</title>
<g id="a_node46"><a xlink:href="mxbutton_8h.html" target="_top" xlink:title=" ">
<polygon fill="none" stroke="red" points="2751,-174 2751,-193 2868,-193 2868,-174 2751,-174"/>
<text text-anchor="middle" x="2809.5" y="-181" font-family="Helvetica,sans-Serif" font-size="10.00">src/widgets/mxbutton.h</text>
</a>
</g>
</g>
<!-- Node47&#45;&gt;Node49 -->
<g id="edge64" class="edge">
<title>Node47&#45;&gt;Node49</title>
<path fill="none" stroke="midnightblue" d="M2518.47,-239.16C2574.35,-229.12 2661.27,-213.35 2736.5,-199 2746.4,-197.11 2757.04,-195.03 2767.06,-193.04"/>
<polygon fill="midnightblue" stroke="midnightblue" points="2517.63,-235.75 2508.41,-240.96 2518.87,-242.64 2517.63,-235.75"/>
</g>
<!-- Node51 -->
<g id="node47" class="node">
<title>Node51</title>
<g id="a_node47"><a xlink:href="mxlayout_8h.html" target="_top" xlink:title=" ">
<polygon fill="none" stroke="red" points="2178.5,-174 2178.5,-193 2294.5,-193 2294.5,-174 2178.5,-174"/>
<text text-anchor="middle" x="2236.5" y="-181" font-family="Helvetica,sans-Serif" font-size="10.00">src/widgets/mxlayout.h</text>
</a>
</g>
</g>
<!-- Node47&#45;&gt;Node51 -->
<g id="edge67" class="edge">
<title>Node47&#45;&gt;Node51</title>
<path fill="none" stroke="midnightblue" d="M2420.9,-238.01C2376.57,-225.15 2305.75,-204.59 2266.01,-193.06"/>
<polygon fill="midnightblue" stroke="midnightblue" points="2420.18,-241.44 2430.75,-240.87 2422.13,-234.72 2420.18,-241.44"/>
</g>
<!-- Node53 -->
<g id="node48" class="node">
<title>Node53</title>
<g id="a_node48"><a xlink:href="mxlineedit_8h.html" target="_top" xlink:title=" ">
<polygon fill="none" stroke="black" points="2437,-112.5 2437,-131.5 2558,-131.5 2558,-112.5 2437,-112.5"/>
<text text-anchor="middle" x="2497.5" y="-119.5" font-family="Helvetica,sans-Serif" font-size="10.00">src/widgets/mxlineedit.h</text>
</a>
</g>
</g>
<!-- Node47&#45;&gt;Node53 -->
<g id="edge69" class="edge">
<title>Node47&#45;&gt;Node53</title>
<path fill="none" stroke="midnightblue" d="M2465.86,-231.17C2473.95,-203.53 2488.95,-152.22 2494.94,-131.76"/>
<polygon fill="midnightblue" stroke="midnightblue" points="2462.49,-230.22 2463.04,-240.81 2469.21,-232.19 2462.49,-230.22"/>
</g>
<!-- Node54 -->
<g id="node49" class="node">
<title>Node54</title>
<g id="a_node49"><a xlink:href="mxspacer_8h.html" target="_top" xlink:title=" ">
<polygon fill="none" stroke="black" points="2313,-174 2313,-193 2432,-193 2432,-174 2313,-174"/>
<text text-anchor="middle" x="2372.5" y="-181" font-family="Helvetica,sans-Serif" font-size="10.00">src/widgets/mxspacer.h</text>
</a>
</g>
</g>
<!-- Node47&#45;&gt;Node54 -->
<g id="edge71" class="edge">
<title>Node47&#45;&gt;Node54</title>
<path fill="none" stroke="midnightblue" d="M2440.28,-234.57C2422.91,-221.74 2398.47,-203.69 2384.18,-193.13"/>
<polygon fill="midnightblue" stroke="midnightblue" points="2438.51,-237.61 2448.63,-240.73 2442.67,-231.98 2438.51,-237.61"/>
</g>
<!-- Node55 -->
<g id="node50" class="node">
<title>Node55</title>
<g id="a_node50"><a xlink:href="mxwidget_8cpp.html" target="_top" xlink:title=" ">
<polygon fill="none" stroke="black" points="2527,-174 2527,-193 2656,-193 2656,-174 2527,-174"/>
<text text-anchor="middle" x="2591.5" y="-181" font-family="Helvetica,sans-Serif" font-size="10.00">src/widgets/mxwidget.cpp</text>
</a>
</g>
</g>
<!-- Node47&#45;&gt;Node55 -->
<g id="edge73" class="edge">
<title>Node47&#45;&gt;Node55</title>
<path fill="none" stroke="midnightblue" d="M2487.16,-236.27C2513.1,-223.4 2551.78,-204.21 2574.03,-193.17"/>
<polygon fill="midnightblue" stroke="midnightblue" points="2485.3,-233.29 2477.9,-240.87 2488.41,-239.56 2485.3,-233.29"/>
</g>
<!-- Node49&#45;&gt;Node45 -->
<g id="edge65" class="edge">
<title>Node49&#45;&gt;Node45</title>
<path fill="none" stroke="midnightblue" d="M2822.38,-165.84C2831.02,-154.67 2842.03,-140.43 2848.92,-131.51"/>
<polygon fill="midnightblue" stroke="midnightblue" points="2819.44,-163.92 2816.09,-173.98 2824.98,-168.2 2819.44,-163.92"/>
</g>
<!-- Node51&#45;&gt;Node16 -->
<g id="edge68" class="edge">
<title>Node51&#45;&gt;Node16</title>
<path fill="none" stroke="midnightblue" d="M2204.26,-170.28C2173.75,-158.72 2128.75,-141.66 2101.95,-131.51"/>
<polygon fill="midnightblue" stroke="midnightblue" points="2203.41,-173.7 2214.01,-173.98 2205.9,-167.16 2203.41,-173.7"/>
</g>
<!-- Node53&#45;&gt;Node12 -->
<g id="edge70" class="edge">
<title>Node53&#45;&gt;Node12</title>
<path fill="none" stroke="midnightblue" d="M2426.8,-111.95C2287.52,-95.97 2137.18,-81.21 2053.16,-73.18"/>
<polygon fill="midnightblue" stroke="midnightblue" points="2426.47,-115.43 2436.81,-113.1 2427.27,-108.48 2426.47,-115.43"/>
</g>
<!-- Node54&#45;&gt;Node18 -->
<g id="edge72" class="edge">
<title>Node54&#45;&gt;Node18</title>
<path fill="none" stroke="midnightblue" d="M2341.94,-170.13C2313.38,-158.57 2271.5,-141.62 2246.52,-131.51"/>
<polygon fill="midnightblue" stroke="midnightblue" points="2340.86,-173.47 2351.44,-173.98 2343.48,-166.98 2340.86,-173.47"/>
</g>
</g>
</svg>
