<?xml version="1.0" encoding="UTF-8" standalone="no"?>
<!DOCTYPE svg PUBLIC "-//W3C//DTD SVG 1.1//EN"
 "http://www.w3.org/Graphics/SVG/1.1/DTD/svg11.dtd">
<!-- Generated by graphviz version 2.44.0 ()
 -->
<!-- Title: src/geometry/mxrect.h Pages: 1 -->
<svg width="2461pt" height="430pt"
 viewBox="0.00 0.00 2460.50 430.00" xmlns="http://www.w3.org/2000/svg" xmlns:xlink="http://www.w3.org/1999/xlink">
<g id="graph0" class="graph" transform="scale(1 1) rotate(0) translate(4 426)">
<title>src/geometry/mxrect.h</title>
<!-- Node1 -->
<g id="node1" class="node">
<title>Node1</title>
<g id="a_node1"><a xlink:title=" ">
<polygon fill="#bfbfbf" stroke="black" points="765,-402.5 765,-421.5 878,-421.5 878,-402.5 765,-402.5"/>
<text text-anchor="middle" x="821.5" y="-409.5" font-family="Helvetica,sans-Serif" font-size="10.00">src/geometry/mxrect.h</text>
</a>
</g>
</g>
<!-- Node2 -->
<g id="node2" class="node">
<title>Node2</title>
<g id="a_node2"><a xlink:href="mxgeometryutils_8h.html" target="_top" xlink:title=" ">
<polygon fill="none" stroke="black" points="475.5,-341 475.5,-360 629.5,-360 629.5,-341 475.5,-341"/>
<text text-anchor="middle" x="552.5" y="-348" font-family="Helvetica,sans-Serif" font-size="10.00">src/geometry/mxgeometryutils.h</text>
</a>
</g>
</g>
<!-- Node1&#45;&gt;Node2 -->
<g id="edge1" class="edge">
<title>Node1&#45;&gt;Node2</title>
<path fill="none" stroke="midnightblue" d="M772.94,-400.26C720.75,-388.72 638.88,-370.61 590.97,-360.01"/>
<polygon fill="midnightblue" stroke="midnightblue" points="772.44,-403.73 782.96,-402.48 773.95,-396.9 772.44,-403.73"/>
</g>
<!-- Node4 -->
<g id="node4" class="node">
<title>Node4</title>
<g id="a_node4"><a xlink:href="mxorthotransform_8h.html" target="_top" xlink:title=" ">
<polygon fill="none" stroke="black" points="287.5,-341 287.5,-360 419.5,-360 419.5,-341 287.5,-341"/>
<text text-anchor="middle" x="353.5" y="-348" font-family="Helvetica,sans-Serif" font-size="10.00">src/gui/mxorthotransform.h</text>
</a>
</g>
</g>
<!-- Node1&#45;&gt;Node4 -->
<g id="edge3" class="edge">
<title>Node1&#45;&gt;Node4</title>
<path fill="none" stroke="midnightblue" d="M754.71,-404.56C677.26,-396.79 545.84,-382.68 433.5,-366 421.91,-364.28 409.43,-362.15 397.85,-360.06"/>
<polygon fill="midnightblue" stroke="midnightblue" points="754.51,-408.06 764.8,-405.57 755.2,-401.09 754.51,-408.06"/>
</g>
<!-- Node5 -->
<g id="node5" class="node">
<title>Node5</title>
<g id="a_node5"><a xlink:href="mxwidget_8h.html" target="_top" xlink:title=" ">
<polygon fill="none" stroke="black" points="171.5,-341 171.5,-360 269.5,-360 269.5,-341 171.5,-341"/>
<text text-anchor="middle" x="220.5" y="-348" font-family="Helvetica,sans-Serif" font-size="10.00">src/gui/mxwidget.h</text>
</a>
</g>
</g>
<!-- Node1&#45;&gt;Node5 -->
<g id="edge4" class="edge">
<title>Node1&#45;&gt;Node5</title>
<path fill="none" stroke="midnightblue" d="M754.6,-408.95C651.69,-405.01 448.58,-394.12 278.5,-366 269.39,-364.49 259.6,-362.28 250.71,-360.04"/>
<polygon fill="midnightblue" stroke="midnightblue" points="754.72,-412.45 764.85,-409.33 754.98,-405.46 754.72,-412.45"/>
</g>
<!-- Node9 -->
<g id="node9" class="node">
<title>Node9</title>
<g id="a_node9"><a xlink:href="mxtextdraw_8h.html" target="_top" xlink:title=" ">
<polygon fill="none" stroke="black" points="647.5,-341 647.5,-360 793.5,-360 793.5,-341 647.5,-341"/>
<text text-anchor="middle" x="720.5" y="-348" font-family="Helvetica,sans-Serif" font-size="10.00">src/gui/textdraw/mxtextdraw.h</text>
</a>
</g>
</g>
<!-- Node1&#45;&gt;Node9 -->
<g id="edge8" class="edge">
<title>Node1&#45;&gt;Node9</title>
<path fill="none" stroke="midnightblue" d="M798.15,-397.24C778.64,-385.75 751.43,-369.72 734.94,-360.01"/>
<polygon fill="midnightblue" stroke="midnightblue" points="796.64,-400.41 807.03,-402.48 800.19,-394.38 796.64,-400.41"/>
</g>
<!-- Node12 -->
<g id="node12" class="node">
<title>Node12</title>
<g id="a_node12"><a xlink:href="qmewawindow_8cpp.html" target="_top" xlink:title=" ">
<polygon fill="none" stroke="black" points="697.5,-0.5 697.5,-30.5 813.5,-30.5 813.5,-0.5 697.5,-0.5"/>
<text text-anchor="start" x="705.5" y="-18.5" font-family="Helvetica,sans-Serif" font-size="10.00">src/platformabstraction</text>
<text text-anchor="middle" x="755.5" y="-7.5" font-family="Helvetica,sans-Serif" font-size="10.00">/qt/qmewawindow.cpp</text>
</a>
</g>
</g>
<!-- Node1&#45;&gt;Node12 -->
<g id="edge24" class="edge">
<title>Node1&#45;&gt;Node12</title>
<path fill="none" stroke="midnightblue" d="M888.19,-409.38C1194.59,-401.5 2452.5,-364.31 2452.5,-284.5 2452.5,-284.5 2452.5,-284.5 2452.5,-148.5 2452.5,-64.46 1112.32,-25.54 813.91,-17.92"/>
<polygon fill="midnightblue" stroke="midnightblue" points="888.02,-405.88 878.12,-409.64 888.2,-412.88 888.02,-405.88"/>
</g>
<!-- Node16 -->
<g id="node16" class="node">
<title>Node16</title>
<g id="a_node16"><a xlink:href="mxabstractatlas_8h.html" target="_top" xlink:title=" ">
<polygon fill="none" stroke="black" points="372.5,-274 372.5,-293 524.5,-293 524.5,-274 372.5,-274"/>
<text text-anchor="middle" x="448.5" y="-281" font-family="Helvetica,sans-Serif" font-size="10.00">src/iconatlas/mxabstractatlas.h</text>
</a>
</g>
</g>
<!-- Node1&#45;&gt;Node16 -->
<g id="edge17" class="edge">
<title>Node1&#45;&gt;Node16</title>
<path fill="none" stroke="midnightblue" d="M754.66,-411.4C663.67,-410.5 507.43,-403.35 466.5,-366 445.74,-347.05 446.11,-310.02 447.5,-293.19"/>
<polygon fill="midnightblue" stroke="midnightblue" points="754.86,-414.9 764.88,-411.48 754.91,-407.9 754.86,-414.9"/>
</g>
<!-- Node20 -->
<g id="node20" class="node">
<title>Node20</title>
<g id="a_node20"><a xlink:href="mxcolorwheelprogram_8h.html" target="_top" xlink:title=" ">
<polygon fill="none" stroke="black" points="1029.5,-335.5 1029.5,-365.5 1235.5,-365.5 1235.5,-335.5 1029.5,-335.5"/>
<text text-anchor="start" x="1037.5" y="-353.5" font-family="Helvetica,sans-Serif" font-size="10.00">src/renderer/opengl</text>
<text text-anchor="middle" x="1132.5" y="-342.5" font-family="Helvetica,sans-Serif" font-size="10.00">/colorwheelprogram/mxcolorwheelprogram.h</text>
</a>
</g>
</g>
<!-- Node1&#45;&gt;Node20 -->
<g id="edge25" class="edge">
<title>Node1&#45;&gt;Node20</title>
<path fill="none" stroke="midnightblue" d="M876.19,-400.54C927.03,-390.81 1003.12,-376.25 1059.2,-365.52"/>
<polygon fill="midnightblue" stroke="midnightblue" points="875.22,-397.16 866.06,-402.48 876.54,-404.03 875.22,-397.16"/>
</g>
<!-- Node27 -->
<g id="node27" class="node">
<title>Node27</title>
<g id="a_node27"><a xlink:href="mxiconprogram_8cpp.html" target="_top" xlink:title=" ">
<polygon fill="none" stroke="black" points="970.5,-201.5 970.5,-231.5 1116.5,-231.5 1116.5,-201.5 970.5,-201.5"/>
<text text-anchor="start" x="978.5" y="-219.5" font-family="Helvetica,sans-Serif" font-size="10.00">src/renderer/opengl</text>
<text text-anchor="middle" x="1043.5" y="-208.5" font-family="Helvetica,sans-Serif" font-size="10.00">/icondraw/mxiconprogram.cpp</text>
</a>
</g>
</g>
<!-- Node1&#45;&gt;Node27 -->
<g id="edge32" class="edge">
<title>Node1&#45;&gt;Node27</title>
<path fill="none" stroke="midnightblue" d="M814.94,-392.54C805.65,-362.8 792.8,-303.96 821.5,-268 826.35,-261.93 909,-244.26 972.05,-231.53"/>
<polygon fill="midnightblue" stroke="midnightblue" points="811.74,-394.03 818.23,-402.41 818.38,-391.82 811.74,-394.03"/>
</g>
<!-- Node28 -->
<g id="node28" class="node">
<title>Node28</title>
<g id="a_node28"><a xlink:href="mxiconprogram_8h.html" target="_top" xlink:title=" ">
<polygon fill="none" stroke="black" points="1396,-268.5 1396,-298.5 1531,-298.5 1531,-268.5 1396,-268.5"/>
<text text-anchor="start" x="1404" y="-286.5" font-family="Helvetica,sans-Serif" font-size="10.00">src/renderer/opengl</text>
<text text-anchor="middle" x="1463.5" y="-275.5" font-family="Helvetica,sans-Serif" font-size="10.00">/icondraw/mxiconprogram.h</text>
</a>
</g>
</g>
<!-- Node1&#45;&gt;Node28 -->
<g id="edge33" class="edge">
<title>Node1&#45;&gt;Node28</title>
<path fill="none" stroke="midnightblue" d="M888.2,-409.05C972.28,-405.42 1120.8,-395.11 1244.5,-366 1314,-349.64 1391.45,-317.26 1433.07,-298.61"/>
<polygon fill="midnightblue" stroke="midnightblue" points="887.86,-405.56 878.02,-409.47 888.15,-412.55 887.86,-405.56"/>
</g>
<!-- Node29 -->
<g id="node29" class="node">
<title>Node29</title>
<g id="a_node29"><a xlink:href="mxquaddraw_8h.html" target="_top" xlink:title=" ">
<polygon fill="none" stroke="black" points="849.5,-335.5 849.5,-365.5 973.5,-365.5 973.5,-335.5 849.5,-335.5"/>
<text text-anchor="start" x="857.5" y="-353.5" font-family="Helvetica,sans-Serif" font-size="10.00">src/renderer/opengl</text>
<text text-anchor="middle" x="911.5" y="-342.5" font-family="Helvetica,sans-Serif" font-size="10.00">/icondraw/mxquaddraw.h</text>
</a>
</g>
</g>
<!-- Node1&#45;&gt;Node29 -->
<g id="edge36" class="edge">
<title>Node1&#45;&gt;Node29</title>
<path fill="none" stroke="midnightblue" d="M843.07,-396.74C857.38,-387.28 876.06,-374.93 890.29,-365.52"/>
<polygon fill="midnightblue" stroke="midnightblue" points="840.81,-394.04 834.39,-402.48 844.67,-399.88 840.81,-394.04"/>
</g>
<!-- Node32 -->
<g id="node32" class="node">
<title>Node32</title>
<g id="a_node32"><a xlink:href="mxvectordraw_8h.html" target="_top" xlink:title=" ">
<polygon fill="none" stroke="black" points="1709,-335.5 1709,-365.5 1848,-365.5 1848,-335.5 1709,-335.5"/>
<text text-anchor="start" x="1717" y="-353.5" font-family="Helvetica,sans-Serif" font-size="10.00">src/renderer/opengl</text>
<text text-anchor="middle" x="1778.5" y="-342.5" font-family="Helvetica,sans-Serif" font-size="10.00">/vectordraw/mxvectordraw.h</text>
</a>
</g>
</g>
<!-- Node1&#45;&gt;Node32 -->
<g id="edge42" class="edge">
<title>Node1&#45;&gt;Node32</title>
<path fill="none" stroke="midnightblue" d="M888.21,-406.85C1062.65,-396.01 1531.06,-366.88 1708.8,-355.83"/>
<polygon fill="midnightblue" stroke="midnightblue" points="887.91,-403.36 878.14,-407.48 888.34,-410.35 887.91,-403.36"/>
</g>
<!-- Node3 -->
<g id="node3" class="node">
<title>Node3</title>
<g id="a_node3"><a xlink:href="mxicondraw_8cpp.html" target="_top" xlink:title=" ">
<polygon fill="none" stroke="black" points="705,-201.5 705,-231.5 836,-231.5 836,-201.5 705,-201.5"/>
<text text-anchor="start" x="713" y="-219.5" font-family="Helvetica,sans-Serif" font-size="10.00">src/renderer/opengl</text>
<text text-anchor="middle" x="770.5" y="-208.5" font-family="Helvetica,sans-Serif" font-size="10.00">/icondraw/mxicondraw.cpp</text>
</a>
</g>
</g>
<!-- Node2&#45;&gt;Node3 -->
<g id="edge2" class="edge">
<title>Node2&#45;&gt;Node3</title>
<path fill="none" stroke="midnightblue" d="M558.43,-331.29C565.39,-312.72 578.7,-284.4 599.5,-268 616.15,-254.88 663.96,-241.34 704.8,-231.58"/>
<polygon fill="midnightblue" stroke="midnightblue" points="555.06,-330.33 555.06,-340.93 561.66,-332.64 555.06,-330.33"/>
</g>
<!-- Node6 -->
<g id="node6" class="node">
<title>Node6</title>
<g id="a_node6"><a xlink:href="mxapplication_8cpp.html" target="_top" xlink:title=" ">
<polygon fill="none" stroke="black" points="295,-73 295,-92 438,-92 438,-73 295,-73"/>
<text text-anchor="middle" x="366.5" y="-80" font-family="Helvetica,sans-Serif" font-size="10.00">src/events/mxapplication.cpp</text>
</a>
</g>
</g>
<!-- Node5&#45;&gt;Node6 -->
<g id="edge5" class="edge">
<title>Node5&#45;&gt;Node6</title>
<path fill="none" stroke="midnightblue" d="M244.34,-335.28C257.69,-326.3 273.75,-313.65 284.5,-299 297.73,-280.97 350.36,-130.17 363.51,-92.17"/>
<polygon fill="midnightblue" stroke="midnightblue" points="242.15,-332.53 235.64,-340.89 245.94,-338.42 242.15,-332.53"/>
</g>
<!-- Node7 -->
<g id="node7" class="node">
<title>Node7</title>
<g id="a_node7"><a xlink:href="mxmouseevent_8cpp.html" target="_top" xlink:title=" ">
<polygon fill="none" stroke="black" points="0,-274 0,-293 149,-293 149,-274 0,-274"/>
<text text-anchor="middle" x="74.5" y="-281" font-family="Helvetica,sans-Serif" font-size="10.00">src/events/mxmouseevent.cpp</text>
</a>
</g>
</g>
<!-- Node5&#45;&gt;Node7 -->
<g id="edge6" class="edge">
<title>Node5&#45;&gt;Node7</title>
<path fill="none" stroke="midnightblue" d="M191.93,-336.78C163.02,-323.91 119.1,-304.35 93.97,-293.17"/>
<polygon fill="midnightblue" stroke="midnightblue" points="190.55,-340 201.11,-340.87 193.4,-333.6 190.55,-340"/>
</g>
<!-- Node8 -->
<g id="node8" class="node">
<title>Node8</title>
<g id="a_node8"><a xlink:href="mxwidget_8cpp.html" target="_top" xlink:title=" ">
<polygon fill="none" stroke="black" points="167.5,-274 167.5,-293 275.5,-293 275.5,-274 167.5,-274"/>
<text text-anchor="middle" x="221.5" y="-281" font-family="Helvetica,sans-Serif" font-size="10.00">src/gui/mxwidget.cpp</text>
</a>
</g>
</g>
<!-- Node5&#45;&gt;Node8 -->
<g id="edge7" class="edge">
<title>Node5&#45;&gt;Node8</title>
<path fill="none" stroke="midnightblue" d="M220.79,-330.54C220.98,-318.17 221.22,-302.62 221.37,-293.13"/>
<polygon fill="midnightblue" stroke="midnightblue" points="217.29,-330.68 220.63,-340.73 224.29,-330.79 217.29,-330.68"/>
</g>
<!-- Node10 -->
<g id="node10" class="node">
<title>Node10</title>
<g id="a_node10"><a xlink:href="mxpainter_8h.html" target="_top" xlink:title=" ">
<polygon fill="none" stroke="black" points="854.5,-207 854.5,-226 952.5,-226 952.5,-207 854.5,-207"/>
<text text-anchor="middle" x="903.5" y="-214" font-family="Helvetica,sans-Serif" font-size="10.00">src/gui/mxpainter.h</text>
</a>
</g>
</g>
<!-- Node9&#45;&gt;Node10 -->
<g id="edge9" class="edge">
<title>Node9&#45;&gt;Node10</title>
<path fill="none" stroke="midnightblue" d="M680.23,-337.81C638.72,-323.78 583.48,-298.31 609.5,-268 643.91,-227.91 792.69,-242.31 844.5,-232 853.09,-230.29 862.31,-228.17 870.85,-226.07"/>
<polygon fill="midnightblue" stroke="midnightblue" points="679.3,-341.19 689.9,-340.96 681.47,-334.53 679.3,-341.19"/>
</g>
<!-- Node15 -->
<g id="node15" class="node">
<title>Node15</title>
<g id="a_node15"><a xlink:href="mxtextdraw_8cpp.html" target="_top" xlink:title=" ">
<polygon fill="none" stroke="black" points="618.5,-274 618.5,-293 774.5,-293 774.5,-274 618.5,-274"/>
<text text-anchor="middle" x="696.5" y="-281" font-family="Helvetica,sans-Serif" font-size="10.00">src/gui/textdraw/mxtextdraw.cpp</text>
</a>
</g>
</g>
<!-- Node9&#45;&gt;Node15 -->
<g id="edge16" class="edge">
<title>Node9&#45;&gt;Node15</title>
<path fill="none" stroke="midnightblue" d="M713.78,-331.29C709.17,-318.81 703.26,-302.81 699.69,-293.13"/>
<polygon fill="midnightblue" stroke="midnightblue" points="710.52,-332.57 717.26,-340.73 717.08,-330.14 710.52,-332.57"/>
</g>
<!-- Node11 -->
<g id="node11" class="node">
<title>Node11</title>
<g id="a_node11"><a xlink:href="mxapplication_8h.html" target="_top" xlink:title=" ">
<polygon fill="none" stroke="black" points="646.5,-140 646.5,-159 778.5,-159 778.5,-140 646.5,-140"/>
<text text-anchor="middle" x="712.5" y="-147" font-family="Helvetica,sans-Serif" font-size="10.00">src/events/mxapplication.h</text>
</a>
</g>
</g>
<!-- Node10&#45;&gt;Node11 -->
<g id="edge10" class="edge">
<title>Node10&#45;&gt;Node11</title>
<path fill="none" stroke="midnightblue" d="M868.54,-203.6C830.67,-190.71 771.19,-170.47 737.66,-159.06"/>
<polygon fill="midnightblue" stroke="midnightblue" points="867.54,-206.96 878.14,-206.87 869.8,-200.33 867.54,-206.96"/>
</g>
<!-- Node14 -->
<g id="node14" class="node">
<title>Node14</title>
<g id="a_node14"><a xlink:href="mxpainter_8cpp.html" target="_top" xlink:title=" ">
<polygon fill="none" stroke="black" points="849,-140 849,-159 958,-159 958,-140 849,-140"/>
<text text-anchor="middle" x="903.5" y="-147" font-family="Helvetica,sans-Serif" font-size="10.00">src/gui/mxpainter.cpp</text>
</a>
</g>
</g>
<!-- Node10&#45;&gt;Node14 -->
<g id="edge15" class="edge">
<title>Node10&#45;&gt;Node14</title>
<path fill="none" stroke="midnightblue" d="M903.5,-196.54C903.5,-184.17 903.5,-168.62 903.5,-159.13"/>
<polygon fill="midnightblue" stroke="midnightblue" points="900,-196.73 903.5,-206.73 907,-196.73 900,-196.73"/>
</g>
<!-- Node11&#45;&gt;Node6 -->
<g id="edge11" class="edge">
<title>Node11&#45;&gt;Node6</title>
<path fill="none" stroke="midnightblue" d="M656.81,-138.04C588.75,-125.25 474.92,-103.87 411.92,-92.03"/>
<polygon fill="midnightblue" stroke="midnightblue" points="656.44,-141.53 666.91,-139.94 657.73,-134.65 656.44,-141.53"/>
</g>
<!-- Node11&#45;&gt;Node12 -->
<g id="edge12" class="edge">
<title>Node11&#45;&gt;Node12</title>
<path fill="none" stroke="midnightblue" d="M721.99,-130.94C726.85,-121.41 732.55,-109.29 736.5,-98 744.56,-74.96 750.22,-47.06 753.16,-30.6"/>
<polygon fill="midnightblue" stroke="midnightblue" points="718.89,-129.32 717.34,-139.8 725.09,-132.57 718.89,-129.32"/>
</g>
<!-- Node13 -->
<g id="node13" class="node">
<title>Node13</title>
<g id="a_node13"><a xlink:href="qmewawindow_8h.html" target="_top" xlink:title=" ">
<polygon fill="none" stroke="black" points="611.5,-67.5 611.5,-97.5 727.5,-97.5 727.5,-67.5 611.5,-67.5"/>
<text text-anchor="start" x="619.5" y="-85.5" font-family="Helvetica,sans-Serif" font-size="10.00">src/platformabstraction</text>
<text text-anchor="middle" x="669.5" y="-74.5" font-family="Helvetica,sans-Serif" font-size="10.00">/qt/qmewawindow.h</text>
</a>
</g>
</g>
<!-- Node11&#45;&gt;Node13 -->
<g id="edge13" class="edge">
<title>Node11&#45;&gt;Node13</title>
<path fill="none" stroke="midnightblue" d="M701.16,-131.35C694.19,-120.82 685.38,-107.5 678.82,-97.59"/>
<polygon fill="midnightblue" stroke="midnightblue" points="698.26,-133.32 706.7,-139.73 704.1,-129.46 698.26,-133.32"/>
</g>
<!-- Node13&#45;&gt;Node12 -->
<g id="edge14" class="edge">
<title>Node13&#45;&gt;Node12</title>
<path fill="none" stroke="midnightblue" d="M696.4,-61.17C709.55,-51.23 725.05,-39.51 736.88,-30.58"/>
<polygon fill="midnightblue" stroke="midnightblue" points="694.03,-58.57 688.16,-67.4 698.25,-64.16 694.03,-58.57"/>
</g>
<!-- Node16&#45;&gt;Node3 -->
<g id="edge23" class="edge">
<title>Node16&#45;&gt;Node3</title>
<path fill="none" stroke="midnightblue" d="M500.92,-271.92C556.55,-260.69 644.57,-242.92 704.8,-230.76"/>
<polygon fill="midnightblue" stroke="midnightblue" points="500.04,-268.53 490.93,-273.94 501.42,-275.39 500.04,-268.53"/>
</g>
<!-- Node16&#45;&gt;Node14 -->
<g id="edge18" class="edge">
<title>Node16&#45;&gt;Node14</title>
<path fill="none" stroke="midnightblue" d="M526.41,-272.19C567,-264.75 616.57,-252.31 657.5,-232 677.02,-222.31 675.98,-210.7 695.5,-201 744.25,-176.77 805.32,-163.73 848.65,-157.02"/>
<polygon fill="midnightblue" stroke="midnightblue" points="525.8,-268.75 516.56,-273.93 527.02,-275.64 525.8,-268.75"/>
</g>
<!-- Node17 -->
<g id="node17" class="node">
<title>Node17</title>
<g id="a_node17"><a xlink:href="mxabstractatlas_8cpp.html" target="_top" xlink:title=" ">
<polygon fill="none" stroke="black" points="486.5,-207 486.5,-226 648.5,-226 648.5,-207 486.5,-207"/>
<text text-anchor="middle" x="567.5" y="-214" font-family="Helvetica,sans-Serif" font-size="10.00">src/iconatlas/mxabstractatlas.cpp</text>
</a>
</g>
</g>
<!-- Node16&#45;&gt;Node17 -->
<g id="edge19" class="edge">
<title>Node16&#45;&gt;Node17</title>
<path fill="none" stroke="midnightblue" d="M473.61,-268.79C497.19,-255.9 531.76,-237.02 551.71,-226.13"/>
<polygon fill="midnightblue" stroke="midnightblue" points="471.65,-265.87 464.55,-273.73 475,-272.01 471.65,-265.87"/>
</g>
<!-- Node18 -->
<g id="node18" class="node">
<title>Node18</title>
<g id="a_node18"><a xlink:href="mxiconatlas_8h.html" target="_top" xlink:title=" ">
<polygon fill="none" stroke="black" points="334.5,-207 334.5,-226 468.5,-226 468.5,-207 334.5,-207"/>
<text text-anchor="middle" x="401.5" y="-214" font-family="Helvetica,sans-Serif" font-size="10.00">src/iconatlas/mxiconatlas.h</text>
</a>
</g>
</g>
<!-- Node16&#45;&gt;Node18 -->
<g id="edge20" class="edge">
<title>Node16&#45;&gt;Node18</title>
<path fill="none" stroke="midnightblue" d="M436.14,-265.4C427.01,-252.77 414.95,-236.1 407.74,-226.13"/>
<polygon fill="midnightblue" stroke="midnightblue" points="433.47,-267.68 442.16,-273.73 439.14,-263.58 433.47,-267.68"/>
</g>
<!-- Node18&#45;&gt;Node13 -->
<g id="edge22" class="edge">
<title>Node18&#45;&gt;Node13</title>
<path fill="none" stroke="midnightblue" d="M400.48,-196.77C400.55,-178.21 403.76,-150.26 420.5,-134 447.16,-108.11 546.6,-94.42 611.46,-88.09"/>
<polygon fill="midnightblue" stroke="midnightblue" points="396.98,-197.03 400.75,-206.93 403.98,-196.84 396.98,-197.03"/>
</g>
<!-- Node19 -->
<g id="node19" class="node">
<title>Node19</title>
<g id="a_node19"><a xlink:href="mxiconatlas_8cpp.html" target="_top" xlink:title=" ">
<polygon fill="none" stroke="black" points="430,-140 430,-159 575,-159 575,-140 430,-140"/>
<text text-anchor="middle" x="502.5" y="-147" font-family="Helvetica,sans-Serif" font-size="10.00">src/iconatlas/mxiconatlas.cpp</text>
</a>
</g>
</g>
<!-- Node18&#45;&gt;Node19 -->
<g id="edge21" class="edge">
<title>Node18&#45;&gt;Node19</title>
<path fill="none" stroke="midnightblue" d="M423.61,-201.27C443.61,-188.4 472.39,-169.88 489.09,-159.13"/>
<polygon fill="midnightblue" stroke="midnightblue" points="421.64,-198.38 415.12,-206.73 425.42,-204.27 421.64,-198.38"/>
</g>
<!-- Node21 -->
<g id="node21" class="node">
<title>Node21</title>
<g id="a_node21"><a xlink:href="mxcolorwheelprogram_8cpp.html" target="_top" xlink:title=" ">
<polygon fill="none" stroke="black" points="1161,-268.5 1161,-298.5 1378,-298.5 1378,-268.5 1161,-268.5"/>
<text text-anchor="start" x="1169" y="-286.5" font-family="Helvetica,sans-Serif" font-size="10.00">src/renderer/opengl</text>
<text text-anchor="middle" x="1269.5" y="-275.5" font-family="Helvetica,sans-Serif" font-size="10.00">/colorwheelprogram/mxcolorwheelprogram.cpp</text>
</a>
</g>
</g>
<!-- Node20&#45;&gt;Node21 -->
<g id="edge26" class="edge">
<title>Node20&#45;&gt;Node21</title>
<path fill="none" stroke="midnightblue" d="M1171.51,-330.99C1193.22,-320.69 1219.83,-308.07 1239.83,-298.58"/>
<polygon fill="midnightblue" stroke="midnightblue" points="1169.76,-327.95 1162.23,-335.4 1172.76,-334.27 1169.76,-327.95"/>
</g>
<!-- Node22 -->
<g id="node22" class="node">
<title>Node22</title>
<g id="a_node22"><a xlink:href="opengl_2mxrenderer_8h.html" target="_top" xlink:title=" ">
<polygon fill="none" stroke="black" points="1392.5,-201.5 1392.5,-231.5 1492.5,-231.5 1492.5,-201.5 1392.5,-201.5"/>
<text text-anchor="start" x="1400.5" y="-219.5" font-family="Helvetica,sans-Serif" font-size="10.00">src/renderer/opengl</text>
<text text-anchor="middle" x="1442.5" y="-208.5" font-family="Helvetica,sans-Serif" font-size="10.00">/mxrenderer.h</text>
</a>
</g>
</g>
<!-- Node20&#45;&gt;Node22 -->
<g id="edge27" class="edge">
<title>Node20&#45;&gt;Node22</title>
<path fill="none" stroke="midnightblue" d="M1131.8,-325.18C1132.66,-306.85 1137,-282.48 1152.5,-268 1186.49,-236.26 1318.72,-224.12 1392.33,-219.76"/>
<polygon fill="midnightblue" stroke="midnightblue" points="1128.3,-325.36 1131.64,-335.41 1135.3,-325.47 1128.3,-325.36"/>
</g>
<!-- Node23 -->
<g id="node23" class="node">
<title>Node23</title>
<g id="a_node23"><a xlink:href="mxcachedgpuarray_8cpp.html" target="_top" xlink:title=" ">
<polygon fill="none" stroke="black" points="1451,-134.5 1451,-164.5 1570,-164.5 1570,-134.5 1451,-134.5"/>
<text text-anchor="start" x="1459" y="-152.5" font-family="Helvetica,sans-Serif" font-size="10.00">src/renderer/opengl</text>
<text text-anchor="middle" x="1510.5" y="-141.5" font-family="Helvetica,sans-Serif" font-size="10.00">/mxcachedgpuarray.cpp</text>
</a>
</g>
</g>
<!-- Node22&#45;&gt;Node23 -->
<g id="edge28" class="edge">
<title>Node22&#45;&gt;Node23</title>
<path fill="none" stroke="midnightblue" d="M1464.67,-194.31C1474.87,-184.56 1486.69,-173.26 1495.77,-164.58"/>
<polygon fill="midnightblue" stroke="midnightblue" points="1462.07,-191.96 1457.25,-201.4 1466.9,-197.02 1462.07,-191.96"/>
</g>
<!-- Node24 -->
<g id="node24" class="node">
<title>Node24</title>
<g id="a_node24"><a xlink:href="opengl_2mxgpuarray_8cpp.html" target="_top" xlink:title=" ">
<polygon fill="none" stroke="black" points="1588.5,-134.5 1588.5,-164.5 1688.5,-164.5 1688.5,-134.5 1588.5,-134.5"/>
<text text-anchor="start" x="1596.5" y="-152.5" font-family="Helvetica,sans-Serif" font-size="10.00">src/renderer/opengl</text>
<text text-anchor="middle" x="1638.5" y="-141.5" font-family="Helvetica,sans-Serif" font-size="10.00">/mxgpuarray.cpp</text>
</a>
</g>
</g>
<!-- Node22&#45;&gt;Node24 -->
<g id="edge29" class="edge">
<title>Node22&#45;&gt;Node24</title>
<path fill="none" stroke="midnightblue" d="M1494.58,-198.23C1526.29,-187.71 1566.28,-174.45 1596.05,-164.58"/>
<polygon fill="midnightblue" stroke="midnightblue" points="1493.42,-194.93 1485.03,-201.4 1495.62,-201.57 1493.42,-194.93"/>
</g>
<!-- Node25 -->
<g id="node25" class="node">
<title>Node25</title>
<g id="a_node25"><a xlink:href="opengl_2mxrenderer_8cpp.html" target="_top" xlink:title=" ">
<polygon fill="none" stroke="black" points="1199.5,-134.5 1199.5,-164.5 1299.5,-164.5 1299.5,-134.5 1199.5,-134.5"/>
<text text-anchor="start" x="1207.5" y="-152.5" font-family="Helvetica,sans-Serif" font-size="10.00">src/renderer/opengl</text>
<text text-anchor="middle" x="1249.5" y="-141.5" font-family="Helvetica,sans-Serif" font-size="10.00">/mxrenderer.cpp</text>
</a>
</g>
</g>
<!-- Node22&#45;&gt;Node25 -->
<g id="edge30" class="edge">
<title>Node22&#45;&gt;Node25</title>
<path fill="none" stroke="midnightblue" d="M1390.81,-198.09C1359.66,-187.6 1320.49,-174.41 1291.3,-164.58"/>
<polygon fill="midnightblue" stroke="midnightblue" points="1390.03,-201.52 1400.62,-201.4 1392.26,-194.89 1390.03,-201.52"/>
</g>
<!-- Node26 -->
<g id="node26" class="node">
<title>Node26</title>
<g id="a_node26"><a xlink:href="mxshaderprogram_8cpp.html" target="_top" xlink:title=" ">
<polygon fill="none" stroke="black" points="1318,-134.5 1318,-164.5 1433,-164.5 1433,-134.5 1318,-134.5"/>
<text text-anchor="start" x="1326" y="-152.5" font-family="Helvetica,sans-Serif" font-size="10.00">src/renderer/opengl</text>
<text text-anchor="middle" x="1375.5" y="-141.5" font-family="Helvetica,sans-Serif" font-size="10.00">/mxshaderprogram.cpp</text>
</a>
</g>
</g>
<!-- Node22&#45;&gt;Node26 -->
<g id="edge31" class="edge">
<title>Node22&#45;&gt;Node26</title>
<path fill="none" stroke="midnightblue" d="M1420.66,-194.31C1410.61,-184.56 1398.96,-173.26 1390.01,-164.58"/>
<polygon fill="midnightblue" stroke="midnightblue" points="1418.35,-196.94 1427.96,-201.4 1423.22,-191.92 1418.35,-196.94"/>
</g>
<!-- Node28&#45;&gt;Node22 -->
<g id="edge35" class="edge">
<title>Node28&#45;&gt;Node22</title>
<path fill="none" stroke="midnightblue" d="M1455.81,-258.7C1452.87,-249.59 1449.61,-239.49 1447.05,-231.58"/>
<polygon fill="midnightblue" stroke="midnightblue" points="1452.54,-259.96 1458.94,-268.4 1459.2,-257.8 1452.54,-259.96"/>
</g>
<!-- Node28&#45;&gt;Node27 -->
<g id="edge34" class="edge">
<title>Node28&#45;&gt;Node27</title>
<path fill="none" stroke="midnightblue" d="M1385.84,-267.76C1287.23,-251.27 1184.21,-236.59 1116.79,-227.33"/>
<polygon fill="midnightblue" stroke="midnightblue" points="1385.54,-271.26 1395.98,-269.46 1386.7,-264.35 1385.54,-271.26"/>
</g>
<!-- Node30 -->
<g id="node30" class="node">
<title>Node30</title>
<g id="a_node30"><a xlink:href="mxicondraw_8h.html" target="_top" xlink:title=" ">
<polygon fill="none" stroke="black" points="983,-268.5 983,-298.5 1104,-298.5 1104,-268.5 983,-268.5"/>
<text text-anchor="start" x="991" y="-286.5" font-family="Helvetica,sans-Serif" font-size="10.00">src/renderer/opengl</text>
<text text-anchor="middle" x="1043.5" y="-275.5" font-family="Helvetica,sans-Serif" font-size="10.00">/icondraw/mxicondraw.h</text>
</a>
</g>
</g>
<!-- Node29&#45;&gt;Node30 -->
<g id="edge37" class="edge">
<title>Node29&#45;&gt;Node30</title>
<path fill="none" stroke="midnightblue" d="M949.37,-330.85C970.24,-320.58 995.73,-308.03 1014.91,-298.58"/>
<polygon fill="midnightblue" stroke="midnightblue" points="947.57,-327.84 940.14,-335.4 950.66,-334.12 947.57,-327.84"/>
</g>
<!-- Node31 -->
<g id="node31" class="node">
<title>Node31</title>
<g id="a_node31"><a xlink:href="mxquaddraw_8cpp.html" target="_top" xlink:title=" ">
<polygon fill="none" stroke="black" points="830.5,-268.5 830.5,-298.5 964.5,-298.5 964.5,-268.5 830.5,-268.5"/>
<text text-anchor="start" x="838.5" y="-286.5" font-family="Helvetica,sans-Serif" font-size="10.00">src/renderer/opengl</text>
<text text-anchor="middle" x="897.5" y="-275.5" font-family="Helvetica,sans-Serif" font-size="10.00">/icondraw/mxquaddraw.cpp</text>
</a>
</g>
</g>
<!-- Node29&#45;&gt;Node31 -->
<g id="edge41" class="edge">
<title>Node29&#45;&gt;Node31</title>
<path fill="none" stroke="midnightblue" d="M906.31,-325.4C904.36,-316.37 902.22,-306.41 900.53,-298.58"/>
<polygon fill="midnightblue" stroke="midnightblue" points="902.94,-326.36 908.46,-335.4 909.78,-324.88 902.94,-326.36"/>
</g>
<!-- Node30&#45;&gt;Node3 -->
<g id="edge39" class="edge">
<title>Node30&#45;&gt;Node3</title>
<path fill="none" stroke="midnightblue" d="M974.7,-266.12C930.03,-255.48 872.4,-241.76 829.77,-231.61"/>
<polygon fill="midnightblue" stroke="midnightblue" points="974.06,-269.56 984.6,-268.48 975.68,-262.75 974.06,-269.56"/>
</g>
<!-- Node30&#45;&gt;Node10 -->
<g id="edge38" class="edge">
<title>Node30&#45;&gt;Node10</title>
<path fill="none" stroke="midnightblue" d="M1003.94,-264.13C976.99,-251.62 942.57,-235.64 921.82,-226.01"/>
<polygon fill="midnightblue" stroke="midnightblue" points="1002.58,-267.36 1013.12,-268.4 1005.53,-261.01 1002.58,-267.36"/>
</g>
<!-- Node30&#45;&gt;Node27 -->
<g id="edge40" class="edge">
<title>Node30&#45;&gt;Node27</title>
<path fill="none" stroke="midnightblue" d="M1043.5,-258.11C1043.5,-249.15 1043.5,-239.32 1043.5,-231.58"/>
<polygon fill="midnightblue" stroke="midnightblue" points="1040,-258.4 1043.5,-268.4 1047,-258.4 1040,-258.4"/>
</g>
<!-- Node32&#45;&gt;Node10 -->
<g id="edge43" class="edge">
<title>Node32&#45;&gt;Node10</title>
<path fill="none" stroke="midnightblue" d="M1762.21,-327.11C1745.84,-305.33 1721.14,-274.61 1707.5,-268 1632.82,-231.82 1043.6,-244.12 961.5,-232 952.05,-230.61 941.91,-228.34 932.78,-226.01"/>
<polygon fill="midnightblue" stroke="midnightblue" points="1759.47,-329.29 1768.24,-335.22 1765.09,-325.11 1759.47,-329.29"/>
</g>
<!-- Node33 -->
<g id="node33" class="node">
<title>Node33</title>
<g id="a_node33"><a xlink:href="mxsvgpainter_8cpp.html" target="_top" xlink:title=" ">
<polygon fill="none" stroke="black" points="1693,-207 1693,-226 1836,-226 1836,-207 1693,-207"/>
<text text-anchor="middle" x="1764.5" y="-214" font-family="Helvetica,sans-Serif" font-size="10.00">src/gui/svg/mxsvgpainter.cpp</text>
</a>
</g>
</g>
<!-- Node32&#45;&gt;Node33 -->
<g id="edge44" class="edge">
<title>Node32&#45;&gt;Node33</title>
<path fill="none" stroke="midnightblue" d="M1856.32,-332.58C1898.74,-319.54 1938.52,-298.52 1916.5,-268 1903.57,-250.07 1848.06,-234.93 1807.86,-226.03"/>
<polygon fill="midnightblue" stroke="midnightblue" points="1855.29,-329.24 1846.68,-335.41 1857.26,-335.96 1855.29,-329.24"/>
</g>
<!-- Node34 -->
<g id="node34" class="node">
<title>Node34</title>
<g id="a_node34"><a xlink:href="mxsvgpainter_8h.html" target="_top" xlink:title=" ">
<polygon fill="none" stroke="black" points="1964,-274 1964,-293 2097,-293 2097,-274 1964,-274"/>
<text text-anchor="middle" x="2030.5" y="-281" font-family="Helvetica,sans-Serif" font-size="10.00">src/gui/svg/mxsvgpainter.h</text>
</a>
</g>
</g>
<!-- Node32&#45;&gt;Node34 -->
<g id="edge45" class="edge">
<title>Node32&#45;&gt;Node34</title>
<path fill="none" stroke="midnightblue" d="M1842.82,-332.91C1892.17,-320.18 1958.28,-303.13 1997.44,-293.03"/>
<polygon fill="midnightblue" stroke="midnightblue" points="1841.68,-329.59 1832.87,-335.48 1843.43,-336.37 1841.68,-329.59"/>
</g>
<!-- Node38 -->
<g id="node38" class="node">
<title>Node38</title>
<g id="a_node38"><a xlink:href="mxvectordraw_8cpp.html" target="_top" xlink:title=" ">
<polygon fill="none" stroke="black" points="1549,-268.5 1549,-298.5 1698,-298.5 1698,-268.5 1549,-268.5"/>
<text text-anchor="start" x="1557" y="-286.5" font-family="Helvetica,sans-Serif" font-size="10.00">src/renderer/opengl</text>
<text text-anchor="middle" x="1623.5" y="-275.5" font-family="Helvetica,sans-Serif" font-size="10.00">/vectordraw/mxvectordraw.cpp</text>
</a>
</g>
</g>
<!-- Node32&#45;&gt;Node38 -->
<g id="edge51" class="edge">
<title>Node32&#45;&gt;Node38</title>
<path fill="none" stroke="midnightblue" d="M1735.35,-331.41C1710.61,-321.03 1680,-308.2 1657.07,-298.58"/>
<polygon fill="midnightblue" stroke="midnightblue" points="1734.29,-334.76 1744.87,-335.4 1737,-328.3 1734.29,-334.76"/>
</g>
<!-- Node39 -->
<g id="node39" class="node">
<title>Node39</title>
<g id="a_node39"><a xlink:href="mxvectorprogram_8h.html" target="_top" xlink:title=" ">
<polygon fill="none" stroke="black" points="1754,-268.5 1754,-298.5 1907,-298.5 1907,-268.5 1754,-268.5"/>
<text text-anchor="start" x="1762" y="-286.5" font-family="Helvetica,sans-Serif" font-size="10.00">src/renderer/opengl</text>
<text text-anchor="middle" x="1830.5" y="-275.5" font-family="Helvetica,sans-Serif" font-size="10.00">/vectordraw/mxvectorprogram.h</text>
</a>
</g>
</g>
<!-- Node32&#45;&gt;Node39 -->
<g id="edge52" class="edge">
<title>Node32&#45;&gt;Node39</title>
<path fill="none" stroke="midnightblue" d="M1796.14,-327.45C1803.78,-317.9 1812.5,-307 1819.24,-298.58"/>
<polygon fill="midnightblue" stroke="midnightblue" points="1793.3,-325.4 1789.78,-335.4 1798.76,-329.77 1793.3,-325.4"/>
</g>
<!-- Node34&#45;&gt;Node14 -->
<g id="edge46" class="edge">
<title>Node34&#45;&gt;Node14</title>
<path fill="none" stroke="midnightblue" d="M2032.27,-263.8C2032.92,-244.81 2030.5,-216.12 2012.5,-201 1977.5,-171.6 1236.16,-167.15 1190.5,-165 1109.64,-161.19 1015.99,-156.38 958.25,-153.38"/>
<polygon fill="midnightblue" stroke="midnightblue" points="2028.77,-263.71 2031.61,-273.92 2035.75,-264.17 2028.77,-263.71"/>
</g>
<!-- Node34&#45;&gt;Node33 -->
<g id="edge47" class="edge">
<title>Node34&#45;&gt;Node33</title>
<path fill="none" stroke="midnightblue" d="M1985.42,-271.48C1932.95,-258.66 1847.41,-237.76 1799.63,-226.08"/>
<polygon fill="midnightblue" stroke="midnightblue" points="1984.91,-274.96 1995.45,-273.94 1986.57,-268.16 1984.91,-274.96"/>
</g>
<!-- Node35 -->
<g id="node35" class="node">
<title>Node35</title>
<g id="a_node35"><a xlink:href="downarrowsvg_8cpp.html" target="_top" xlink:title=" ">
<polygon fill="none" stroke="black" points="2249,-207 2249,-226 2424,-226 2424,-207 2249,-207"/>
<text text-anchor="middle" x="2336.5" y="-214" font-family="Helvetica,sans-Serif" font-size="10.00">src/svg&#45;drawings/downarrowsvg.cpp</text>
</a>
</g>
</g>
<!-- Node34&#45;&gt;Node35 -->
<g id="edge48" class="edge">
<title>Node34&#45;&gt;Node35</title>
<path fill="none" stroke="midnightblue" d="M2080.86,-271.8C2141.08,-259.01 2240.66,-237.86 2296.09,-226.08"/>
<polygon fill="midnightblue" stroke="midnightblue" points="2079.87,-268.43 2070.82,-273.94 2081.33,-275.28 2079.87,-268.43"/>
</g>
<!-- Node36 -->
<g id="node36" class="node">
<title>Node36</title>
<g id="a_node36"><a xlink:href="heartsvg_8cpp.html" target="_top" xlink:title=" ">
<polygon fill="none" stroke="black" points="1854,-207 1854,-226 2003,-226 2003,-207 1854,-207"/>
<text text-anchor="middle" x="1928.5" y="-214" font-family="Helvetica,sans-Serif" font-size="10.00">src/svg&#45;drawings/heartsvg.cpp</text>
</a>
</g>
</g>
<!-- Node34&#45;&gt;Node36 -->
<g id="edge49" class="edge">
<title>Node34&#45;&gt;Node36</title>
<path fill="none" stroke="midnightblue" d="M2008.17,-268.27C1987.98,-255.4 1958.91,-236.88 1942.04,-226.13"/>
<polygon fill="midnightblue" stroke="midnightblue" points="2006.43,-271.31 2016.74,-273.73 2010.19,-265.41 2006.43,-271.31"/>
</g>
<!-- Node37 -->
<g id="node37" class="node">
<title>Node37</title>
<g id="a_node37"><a xlink:href="plusminussvg_8cpp.html" target="_top" xlink:title=" ">
<polygon fill="none" stroke="black" points="2058.5,-207 2058.5,-226 2230.5,-226 2230.5,-207 2058.5,-207"/>
<text text-anchor="middle" x="2144.5" y="-214" font-family="Helvetica,sans-Serif" font-size="10.00">src/svg&#45;drawings/plusminussvg.cpp</text>
</a>
</g>
</g>
<!-- Node34&#45;&gt;Node37 -->
<g id="edge50" class="edge">
<title>Node34&#45;&gt;Node37</title>
<path fill="none" stroke="midnightblue" d="M2054.85,-268.62C2077.44,-255.74 2110.34,-236.98 2129.37,-226.13"/>
<polygon fill="midnightblue" stroke="midnightblue" points="2052.83,-265.74 2045.87,-273.73 2056.3,-271.82 2052.83,-265.74"/>
</g>
<!-- Node39&#45;&gt;Node22 -->
<g id="edge53" class="edge">
<title>Node39&#45;&gt;Node22</title>
<path fill="none" stroke="midnightblue" d="M1743.4,-268.61C1742.09,-268.4 1740.79,-268.2 1739.5,-268 1633.79,-251.58 1606.44,-252.79 1501.5,-232 1498.6,-231.43 1495.63,-230.8 1492.64,-230.15"/>
<polygon fill="midnightblue" stroke="midnightblue" points="1743.13,-272.11 1753.55,-270.2 1744.21,-265.19 1743.13,-272.11"/>
</g>
<!-- Node40 -->
<g id="node40" class="node">
<title>Node40</title>
<g id="a_node40"><a xlink:href="mxvectorprogram_8cpp.html" target="_top" xlink:title=" ">
<polygon fill="none" stroke="black" points="1510.5,-201.5 1510.5,-231.5 1674.5,-231.5 1674.5,-201.5 1510.5,-201.5"/>
<text text-anchor="start" x="1518.5" y="-219.5" font-family="Helvetica,sans-Serif" font-size="10.00">src/renderer/opengl</text>
<text text-anchor="middle" x="1592.5" y="-208.5" font-family="Helvetica,sans-Serif" font-size="10.00">/vectordraw/mxvectorprogram.cpp</text>
</a>
</g>
</g>
<!-- Node39&#45;&gt;Node40 -->
<g id="edge54" class="edge">
<title>Node39&#45;&gt;Node40</title>
<path fill="none" stroke="midnightblue" d="M1769.04,-265.71C1730.31,-255.14 1680.87,-241.63 1644.17,-231.61"/>
<polygon fill="midnightblue" stroke="midnightblue" points="1768.58,-269.22 1779.15,-268.48 1770.43,-262.46 1768.58,-269.22"/>
</g>
</g>
</svg>
