<?xml version="1.0" encoding="UTF-8" standalone="no"?>
<!DOCTYPE svg PUBLIC "-//W3C//DTD SVG 1.1//EN"
 "http://www.w3.org/Graphics/SVG/1.1/DTD/svg11.dtd">
<!-- Generated by graphviz version 2.44.0 ()
 -->
<!-- Title: src/geometry/mxrect.h Pages: 1 -->
<svg width="1920pt" height="352pt"
 viewBox="0.00 0.00 1920.00 352.00" xmlns="http://www.w3.org/2000/svg" xmlns:xlink="http://www.w3.org/1999/xlink">
<g id="graph0" class="graph" transform="scale(1 1) rotate(0) translate(4 348)">
<title>src/geometry/mxrect.h</title>
<!-- Node1 -->
<g id="node1" class="node">
<title>Node1</title>
<g id="a_node1"><a xlink:title=" ">
<polygon fill="#bfbfbf" stroke="black" points="1328.5,-324.5 1328.5,-343.5 1441.5,-343.5 1441.5,-324.5 1328.5,-324.5"/>
<text text-anchor="middle" x="1385" y="-331.5" font-family="Helvetica,sans-Serif" font-size="10.00">src/geometry/mxrect.h</text>
</a>
</g>
</g>
<!-- Node2 -->
<g id="node2" class="node">
<title>Node2</title>
<g id="a_node2"><a xlink:href="mxcolorwheelprogram_8h.html" target="_top" xlink:title=" ">
<polygon fill="none" stroke="black" points="167,-190.5 167,-220.5 289,-220.5 289,-190.5 167,-190.5"/>
<text text-anchor="start" x="175" y="-208.5" font-family="Helvetica,sans-Serif" font-size="10.00">src/gui/colorselector</text>
<text text-anchor="middle" x="228" y="-197.5" font-family="Helvetica,sans-Serif" font-size="10.00">/mxcolorwheelprogram.h</text>
</a>
</g>
</g>
<!-- Node1&#45;&gt;Node2 -->
<g id="edge1" class="edge">
<title>Node1&#45;&gt;Node2</title>
<path fill="none" stroke="midnightblue" d="M1317.88,-330.18C1200.18,-324.82 949,-311.55 738,-288 543.59,-266.31 495.73,-254.46 303,-221 298.56,-220.23 293.97,-219.41 289.36,-218.56"/>
<polygon fill="midnightblue" stroke="midnightblue" points="1318.02,-333.69 1328.17,-330.64 1318.34,-326.7 1318.02,-333.69"/>
</g>
<!-- Node7 -->
<g id="node7" class="node">
<title>Node7</title>
<g id="a_node7"><a xlink:href="qmewawindow_8cpp.html" target="_top" xlink:title=" ">
<polygon fill="none" stroke="black" points="1547,-0.5 1547,-30.5 1663,-30.5 1663,-0.5 1547,-0.5"/>
<text text-anchor="start" x="1555" y="-18.5" font-family="Helvetica,sans-Serif" font-size="10.00">src/platformabstraction</text>
<text text-anchor="middle" x="1605" y="-7.5" font-family="Helvetica,sans-Serif" font-size="10.00">/qt/qmewawindow.cpp</text>
</a>
</g>
</g>
<!-- Node1&#45;&gt;Node7 -->
<g id="edge38" class="edge">
<title>Node1&#45;&gt;Node7</title>
<path fill="none" stroke="midnightblue" d="M1451.49,-323.98C1557.25,-307.75 1752,-269.34 1752,-206.5 1752,-206.5 1752,-206.5 1752,-143 1752,-85.93 1687.56,-48.98 1644.01,-30.52"/>
<polygon fill="midnightblue" stroke="midnightblue" points="1450.91,-320.53 1441.54,-325.48 1451.95,-327.45 1450.91,-320.53"/>
</g>
<!-- Node15 -->
<g id="node15" class="node">
<title>Node15</title>
<g id="a_node15"><a xlink:href="mxorthotransform_8h.html" target="_top" xlink:title=" ">
<polygon fill="none" stroke="black" points="1780,-263 1780,-282 1912,-282 1912,-263 1780,-263"/>
<text text-anchor="middle" x="1846" y="-270" font-family="Helvetica,sans-Serif" font-size="10.00">src/gui/mxorthotransform.h</text>
</a>
</g>
</g>
<!-- Node1&#45;&gt;Node15 -->
<g id="edge15" class="edge">
<title>Node1&#45;&gt;Node15</title>
<path fill="none" stroke="midnightblue" d="M1452.03,-326.35C1528.26,-318.49 1656.37,-304.39 1766,-288 1777.59,-286.27 1790.07,-284.13 1801.65,-282.04"/>
<polygon fill="midnightblue" stroke="midnightblue" points="1451.22,-322.91 1441.63,-327.42 1451.93,-329.88 1451.22,-322.91"/>
</g>
<!-- Node16 -->
<g id="node16" class="node">
<title>Node16</title>
<g id="a_node16"><a xlink:href="mxwidget_8h.html" target="_top" xlink:title=" ">
<polygon fill="none" stroke="black" points="1440,-263 1440,-282 1538,-282 1538,-263 1440,-263"/>
<text text-anchor="middle" x="1489" y="-270" font-family="Helvetica,sans-Serif" font-size="10.00">src/gui/mxwidget.h</text>
</a>
</g>
</g>
<!-- Node1&#45;&gt;Node16 -->
<g id="edge16" class="edge">
<title>Node1&#45;&gt;Node16</title>
<path fill="none" stroke="midnightblue" d="M1408.77,-319.4C1428.88,-307.9 1457.07,-291.77 1474.13,-282.01"/>
<polygon fill="midnightblue" stroke="midnightblue" points="1406.84,-316.47 1399.9,-324.48 1410.32,-322.55 1406.84,-316.47"/>
</g>
<!-- Node19 -->
<g id="node19" class="node">
<title>Node19</title>
<g id="a_node19"><a xlink:href="mxtextdraw_8h.html" target="_top" xlink:title=" ">
<polygon fill="none" stroke="black" points="1242,-263 1242,-282 1388,-282 1388,-263 1242,-263"/>
<text text-anchor="middle" x="1315" y="-270" font-family="Helvetica,sans-Serif" font-size="10.00">src/gui/textdraw/mxtextdraw.h</text>
</a>
</g>
</g>
<!-- Node1&#45;&gt;Node19 -->
<g id="edge20" class="edge">
<title>Node1&#45;&gt;Node19</title>
<path fill="none" stroke="midnightblue" d="M1367.32,-317.97C1353.93,-306.59 1336.02,-291.37 1325.01,-282.01"/>
<polygon fill="midnightblue" stroke="midnightblue" points="1365.08,-320.67 1374.97,-324.48 1369.62,-315.33 1365.08,-320.67"/>
</g>
<!-- Node22 -->
<g id="node22" class="node">
<title>Node22</title>
<g id="a_node22"><a xlink:href="mxvectordraw_8h.html" target="_top" xlink:title=" ">
<polygon fill="none" stroke="black" points="747.5,-257.5 747.5,-287.5 844.5,-287.5 844.5,-257.5 747.5,-257.5"/>
<text text-anchor="start" x="755.5" y="-275.5" font-family="Helvetica,sans-Serif" font-size="10.00">src/gui/vectordraw</text>
<text text-anchor="middle" x="796" y="-264.5" font-family="Helvetica,sans-Serif" font-size="10.00">/mxvectordraw.h</text>
</a>
</g>
</g>
<!-- Node1&#45;&gt;Node22 -->
<g id="edge25" class="edge">
<title>Node1&#45;&gt;Node22</title>
<path fill="none" stroke="midnightblue" d="M1318.12,-326.24C1198.32,-314.14 949.87,-289.04 844.71,-278.42"/>
<polygon fill="midnightblue" stroke="midnightblue" points="1317.96,-329.75 1328.26,-327.27 1318.66,-322.78 1317.96,-329.75"/>
</g>
<!-- Node3 -->
<g id="node3" class="node">
<title>Node3</title>
<g id="a_node3"><a xlink:href="mxcolorwheelprogram_8cpp.html" target="_top" xlink:title=" ">
<polygon fill="none" stroke="black" points="0,-67.5 0,-97.5 132,-97.5 132,-67.5 0,-67.5"/>
<text text-anchor="start" x="8" y="-85.5" font-family="Helvetica,sans-Serif" font-size="10.00">src/gui/colorselector</text>
<text text-anchor="middle" x="66" y="-74.5" font-family="Helvetica,sans-Serif" font-size="10.00">/mxcolorwheelprogram.cpp</text>
</a>
</g>
</g>
<!-- Node2&#45;&gt;Node3 -->
<g id="edge2" class="edge">
<title>Node2&#45;&gt;Node3</title>
<path fill="none" stroke="midnightblue" d="M200.83,-184.21C167.92,-159.63 113.36,-118.88 84.78,-97.53"/>
<polygon fill="midnightblue" stroke="midnightblue" points="198.99,-187.2 209.1,-190.38 203.18,-181.59 198.99,-187.2"/>
</g>
<!-- Node4 -->
<g id="node4" class="node">
<title>Node4</title>
<g id="a_node4"><a xlink:href="mxrenderer_8h.html" target="_top" xlink:title=" ">
<polygon fill="none" stroke="black" points="345.5,-134.5 345.5,-153.5 488.5,-153.5 488.5,-134.5 345.5,-134.5"/>
<text text-anchor="middle" x="417" y="-141.5" font-family="Helvetica,sans-Serif" font-size="10.00">src/gui/renderer/mxrenderer.h</text>
</a>
</g>
</g>
<!-- Node2&#45;&gt;Node4 -->
<g id="edge3" class="edge">
<title>Node2&#45;&gt;Node4</title>
<path fill="none" stroke="midnightblue" d="M282.44,-187.36C317.6,-176.29 361.84,-162.37 389.77,-153.57"/>
<polygon fill="midnightblue" stroke="midnightblue" points="281.28,-184.06 272.79,-190.4 283.38,-190.73 281.28,-184.06"/>
</g>
<!-- Node4&#45;&gt;Node3 -->
<g id="edge7" class="edge">
<title>Node4&#45;&gt;Node3</title>
<path fill="none" stroke="midnightblue" d="M351.54,-132.88C295.56,-124.1 212.88,-110.81 141,-98 138.13,-97.49 135.19,-96.96 132.23,-96.41"/>
<polygon fill="midnightblue" stroke="midnightblue" points="351.25,-136.38 361.67,-134.47 352.34,-129.46 351.25,-136.38"/>
</g>
<!-- Node5 -->
<g id="node5" class="node">
<title>Node5</title>
<g id="a_node5"><a xlink:href="mxapplication_8h.html" target="_top" xlink:title=" ">
<polygon fill="none" stroke="black" points="1133,-73 1133,-92 1265,-92 1265,-73 1133,-73"/>
<text text-anchor="middle" x="1199" y="-80" font-family="Helvetica,sans-Serif" font-size="10.00">src/events/mxapplication.h</text>
</a>
</g>
</g>
<!-- Node4&#45;&gt;Node5 -->
<g id="edge4" class="edge">
<title>Node4&#45;&gt;Node5</title>
<path fill="none" stroke="midnightblue" d="M498.8,-136.78C654.4,-124.94 990.18,-99.39 1132.78,-88.54"/>
<polygon fill="midnightblue" stroke="midnightblue" points="498.52,-133.29 488.82,-137.54 499.06,-140.27 498.52,-133.29"/>
</g>
<!-- Node8 -->
<g id="node8" class="node">
<title>Node8</title>
<g id="a_node8"><a xlink:href="gpubuffer_8cpp.html" target="_top" xlink:title=" ">
<polygon fill="none" stroke="black" points="437.5,-73 437.5,-92 544.5,-92 544.5,-73 437.5,-73"/>
<text text-anchor="middle" x="491" y="-80" font-family="Helvetica,sans-Serif" font-size="10.00">src/gui/gpubuffer.cpp</text>
</a>
</g>
</g>
<!-- Node4&#45;&gt;Node8 -->
<g id="edge8" class="edge">
<title>Node4&#45;&gt;Node8</title>
<path fill="none" stroke="midnightblue" d="M435.69,-127.97C449.84,-116.59 468.78,-101.37 480.42,-92.01"/>
<polygon fill="midnightblue" stroke="midnightblue" points="433.2,-125.48 427.6,-134.48 437.59,-130.94 433.2,-125.48"/>
</g>
<!-- Node9 -->
<g id="node9" class="node">
<title>Node9</title>
<g id="a_node9"><a xlink:href="gpuvbo_8cpp.html" target="_top" xlink:title=" ">
<polygon fill="none" stroke="black" points="562,-73 562,-92 660,-92 660,-73 562,-73"/>
<text text-anchor="middle" x="611" y="-80" font-family="Helvetica,sans-Serif" font-size="10.00">src/gui/gpuvbo.cpp</text>
</a>
</g>
</g>
<!-- Node4&#45;&gt;Node9 -->
<g id="edge9" class="edge">
<title>Node4&#45;&gt;Node9</title>
<path fill="none" stroke="midnightblue" d="M454.4,-131.53C492.11,-119.96 549.43,-102.38 583.26,-92.01"/>
<polygon fill="midnightblue" stroke="midnightblue" points="453.33,-128.2 444.8,-134.48 455.38,-134.89 453.33,-128.2"/>
</g>
<!-- Node10 -->
<g id="node10" class="node">
<title>Node10</title>
<g id="a_node10"><a xlink:href="mxpainter_8cpp.html" target="_top" xlink:title=" ">
<polygon fill="none" stroke="black" points="1283.5,-73 1283.5,-92 1392.5,-92 1392.5,-73 1283.5,-73"/>
<text text-anchor="middle" x="1338" y="-80" font-family="Helvetica,sans-Serif" font-size="10.00">src/gui/mxpainter.cpp</text>
</a>
</g>
</g>
<!-- Node4&#45;&gt;Node10 -->
<g id="edge10" class="edge">
<title>Node4&#45;&gt;Node10</title>
<path fill="none" stroke="midnightblue" d="M499.04,-136.51C511.42,-135.61 524.05,-134.74 536,-134 863.76,-113.62 948.63,-142.45 1274,-98 1284.27,-96.6 1295.33,-94.36 1305.31,-92.06"/>
<polygon fill="midnightblue" stroke="midnightblue" points="498.43,-133.04 488.72,-137.26 498.95,-140.02 498.43,-133.04"/>
</g>
<!-- Node11 -->
<g id="node11" class="node">
<title>Node11</title>
<g id="a_node11"><a xlink:href="mxshaderprogram_8cpp.html" target="_top" xlink:title=" ">
<polygon fill="none" stroke="black" points="678,-73 678,-92 822,-92 822,-73 678,-73"/>
<text text-anchor="middle" x="750" y="-80" font-family="Helvetica,sans-Serif" font-size="10.00">src/gui/mxshaderprogram.cpp</text>
</a>
</g>
</g>
<!-- Node4&#45;&gt;Node11 -->
<g id="edge11" class="edge">
<title>Node4&#45;&gt;Node11</title>
<path fill="none" stroke="midnightblue" d="M474.71,-132.7C525.79,-123.59 602.35,-109.92 669,-98 679.83,-96.06 691.47,-93.98 702.46,-92.01"/>
<polygon fill="midnightblue" stroke="midnightblue" points="474.07,-129.26 464.84,-134.46 475.3,-136.15 474.07,-129.26"/>
</g>
<!-- Node12 -->
<g id="node12" class="node">
<title>Node12</title>
<g id="a_node12"><a xlink:href="mxrenderer_8cpp.html" target="_top" xlink:title=" ">
<polygon fill="none" stroke="black" points="266.5,-73 266.5,-92 419.5,-92 419.5,-73 266.5,-73"/>
<text text-anchor="middle" x="343" y="-80" font-family="Helvetica,sans-Serif" font-size="10.00">src/gui/renderer/mxrenderer.cpp</text>
</a>
</g>
</g>
<!-- Node4&#45;&gt;Node12 -->
<g id="edge12" class="edge">
<title>Node4&#45;&gt;Node12</title>
<path fill="none" stroke="midnightblue" d="M398.31,-127.97C384.16,-116.59 365.22,-101.37 353.58,-92.01"/>
<polygon fill="midnightblue" stroke="midnightblue" points="396.41,-130.94 406.4,-134.48 400.8,-125.48 396.41,-130.94"/>
</g>
<!-- Node13 -->
<g id="node13" class="node">
<title>Node13</title>
<g id="a_node13"><a xlink:href="mxvectordraw_8cpp.html" target="_top" xlink:title=" ">
<polygon fill="none" stroke="black" points="150,-67.5 150,-97.5 248,-97.5 248,-67.5 150,-67.5"/>
<text text-anchor="start" x="158" y="-85.5" font-family="Helvetica,sans-Serif" font-size="10.00">src/gui/vectordraw</text>
<text text-anchor="middle" x="199" y="-74.5" font-family="Helvetica,sans-Serif" font-size="10.00">/mxvectordraw.cpp</text>
</a>
</g>
</g>
<!-- Node4&#45;&gt;Node13 -->
<g id="edge13" class="edge">
<title>Node4&#45;&gt;Node13</title>
<path fill="none" stroke="midnightblue" d="M376.01,-131.81C339.77,-121.92 286.83,-107.47 248.29,-96.95"/>
<polygon fill="midnightblue" stroke="midnightblue" points="375.2,-135.22 385.77,-134.48 377.04,-128.47 375.2,-135.22"/>
</g>
<!-- Node14 -->
<g id="node14" class="node">
<title>Node14</title>
<g id="a_node14"><a xlink:href="mxvectorprogram_8cpp.html" target="_top" xlink:title=" ">
<polygon fill="none" stroke="black" points="840.5,-67.5 840.5,-97.5 953.5,-97.5 953.5,-67.5 840.5,-67.5"/>
<text text-anchor="start" x="848.5" y="-85.5" font-family="Helvetica,sans-Serif" font-size="10.00">src/gui/vectordraw</text>
<text text-anchor="middle" x="897" y="-74.5" font-family="Helvetica,sans-Serif" font-size="10.00">/mxvectorprogram.cpp</text>
</a>
</g>
</g>
<!-- Node4&#45;&gt;Node14 -->
<g id="edge14" class="edge">
<title>Node4&#45;&gt;Node14</title>
<path fill="none" stroke="midnightblue" d="M499.02,-134.31C615.04,-121.99 814.88,-100.64 831,-98 834.01,-97.51 837.09,-96.96 840.19,-96.39"/>
<polygon fill="midnightblue" stroke="midnightblue" points="498.33,-130.87 488.75,-135.4 499.07,-137.83 498.33,-130.87"/>
</g>
<!-- Node6 -->
<g id="node6" class="node">
<title>Node6</title>
<g id="a_node6"><a xlink:href="mxapplication_8cpp.html" target="_top" xlink:title=" ">
<polygon fill="none" stroke="black" points="1238.5,-6 1238.5,-25 1381.5,-25 1381.5,-6 1238.5,-6"/>
<text text-anchor="middle" x="1310" y="-13" font-family="Helvetica,sans-Serif" font-size="10.00">src/events/mxapplication.cpp</text>
</a>
</g>
</g>
<!-- Node5&#45;&gt;Node6 -->
<g id="edge5" class="edge">
<title>Node5&#45;&gt;Node6</title>
<path fill="none" stroke="midnightblue" d="M1222.71,-67.62C1244.7,-54.74 1276.74,-35.98 1295.27,-25.13"/>
<polygon fill="midnightblue" stroke="midnightblue" points="1220.83,-64.66 1213.97,-72.73 1224.37,-70.7 1220.83,-64.66"/>
</g>
<!-- Node5&#45;&gt;Node7 -->
<g id="edge6" class="edge">
<title>Node5&#45;&gt;Node7</title>
<path fill="none" stroke="midnightblue" d="M1251.81,-71.02C1259.25,-69.62 1266.81,-68.24 1274,-67 1369.37,-50.51 1480.7,-34.11 1546.89,-24.66"/>
<polygon fill="midnightblue" stroke="midnightblue" points="1250.95,-67.62 1241.78,-72.93 1252.26,-74.5 1250.95,-67.62"/>
</g>
<!-- Node16&#45;&gt;Node6 -->
<g id="edge17" class="edge">
<title>Node16&#45;&gt;Node6</title>
<path fill="none" stroke="midnightblue" d="M1469.76,-256.13C1459.5,-246.96 1447.48,-234.49 1440,-221 1405.82,-159.34 1444.96,-122.89 1402,-67 1386.01,-46.2 1358.9,-32.82 1338.24,-25.1"/>
<polygon fill="midnightblue" stroke="midnightblue" points="1467.62,-258.9 1477.49,-262.73 1472.16,-253.58 1467.62,-258.9"/>
</g>
<!-- Node17 -->
<g id="node17" class="node">
<title>Node17</title>
<g id="a_node17"><a xlink:href="mxmouseevent_8cpp.html" target="_top" xlink:title=" ">
<polygon fill="none" stroke="black" points="1448.5,-196 1448.5,-215 1597.5,-215 1597.5,-196 1448.5,-196"/>
<text text-anchor="middle" x="1523" y="-203" font-family="Helvetica,sans-Serif" font-size="10.00">src/events/mxmouseevent.cpp</text>
</a>
</g>
</g>
<!-- Node16&#45;&gt;Node17 -->
<g id="edge18" class="edge">
<title>Node16&#45;&gt;Node17</title>
<path fill="none" stroke="midnightblue" d="M1498.33,-253.66C1504.89,-241.13 1513.37,-224.91 1518.49,-215.13"/>
<polygon fill="midnightblue" stroke="midnightblue" points="1495.12,-252.25 1493.59,-262.73 1501.32,-255.5 1495.12,-252.25"/>
</g>
<!-- Node18 -->
<g id="node18" class="node">
<title>Node18</title>
<g id="a_node18"><a xlink:href="mxwidget_8cpp.html" target="_top" xlink:title=" ">
<polygon fill="none" stroke="black" points="1616,-196 1616,-215 1724,-215 1724,-196 1616,-196"/>
<text text-anchor="middle" x="1670" y="-203" font-family="Helvetica,sans-Serif" font-size="10.00">src/gui/mxwidget.cpp</text>
</a>
</g>
</g>
<!-- Node16&#45;&gt;Node18 -->
<g id="edge19" class="edge">
<title>Node16&#45;&gt;Node18</title>
<path fill="none" stroke="midnightblue" d="M1522.59,-259.44C1558.5,-246.54 1614.52,-226.42 1646.15,-215.06"/>
<polygon fill="midnightblue" stroke="midnightblue" points="1521.26,-256.19 1513.04,-262.87 1523.63,-262.78 1521.26,-256.19"/>
</g>
<!-- Node20 -->
<g id="node20" class="node">
<title>Node20</title>
<g id="a_node20"><a xlink:href="mxpainter_8h.html" target="_top" xlink:title=" ">
<polygon fill="none" stroke="black" points="1295,-134.5 1295,-153.5 1393,-153.5 1393,-134.5 1295,-134.5"/>
<text text-anchor="middle" x="1344" y="-141.5" font-family="Helvetica,sans-Serif" font-size="10.00">src/gui/mxpainter.h</text>
</a>
</g>
</g>
<!-- Node19&#45;&gt;Node20 -->
<g id="edge21" class="edge">
<title>Node19&#45;&gt;Node20</title>
<path fill="none" stroke="midnightblue" d="M1275.43,-258.89C1257.61,-251.01 1238.29,-238.88 1228,-221 1221.13,-209.06 1220.22,-201.37 1228,-190 1243.01,-168.08 1270.38,-156.83 1294.76,-151.07"/>
<polygon fill="midnightblue" stroke="midnightblue" points="1274.53,-262.3 1285.11,-262.84 1277.18,-255.82 1274.53,-262.3"/>
</g>
<!-- Node21 -->
<g id="node21" class="node">
<title>Node21</title>
<g id="a_node21"><a xlink:href="mxtextdraw_8cpp.html" target="_top" xlink:title=" ">
<polygon fill="none" stroke="black" points="1237,-196 1237,-215 1393,-215 1393,-196 1237,-196"/>
<text text-anchor="middle" x="1315" y="-203" font-family="Helvetica,sans-Serif" font-size="10.00">src/gui/textdraw/mxtextdraw.cpp</text>
</a>
</g>
</g>
<!-- Node19&#45;&gt;Node21 -->
<g id="edge24" class="edge">
<title>Node19&#45;&gt;Node21</title>
<path fill="none" stroke="midnightblue" d="M1315,-252.54C1315,-240.17 1315,-224.62 1315,-215.13"/>
<polygon fill="midnightblue" stroke="midnightblue" points="1311.5,-252.73 1315,-262.73 1318.5,-252.73 1311.5,-252.73"/>
</g>
<!-- Node20&#45;&gt;Node5 -->
<g id="edge22" class="edge">
<title>Node20&#45;&gt;Node5</title>
<path fill="none" stroke="midnightblue" d="M1313.86,-130.63C1285.69,-119.07 1244.38,-102.12 1219.74,-92.01"/>
<polygon fill="midnightblue" stroke="midnightblue" points="1312.64,-133.92 1323.23,-134.48 1315.3,-127.44 1312.64,-133.92"/>
</g>
<!-- Node20&#45;&gt;Node10 -->
<g id="edge23" class="edge">
<title>Node20&#45;&gt;Node10</title>
<path fill="none" stroke="midnightblue" d="M1342.12,-124.32C1341.02,-113.5 1339.7,-100.4 1338.86,-92.01"/>
<polygon fill="midnightblue" stroke="midnightblue" points="1338.65,-124.88 1343.14,-134.48 1345.62,-124.17 1338.65,-124.88"/>
</g>
<!-- Node22&#45;&gt;Node13 -->
<g id="edge34" class="edge">
<title>Node22&#45;&gt;Node13</title>
<path fill="none" stroke="midnightblue" d="M737.21,-265.19C654.39,-255.88 507.79,-237.76 457,-221 362.77,-189.9 262,-126.11 219.63,-97.7"/>
<polygon fill="midnightblue" stroke="midnightblue" points="736.9,-268.68 747.23,-266.31 737.68,-261.72 736.9,-268.68"/>
</g>
<!-- Node22&#45;&gt;Node20 -->
<g id="edge26" class="edge">
<title>Node22&#45;&gt;Node20</title>
<path fill="none" stroke="midnightblue" d="M854.51,-257.99C967.67,-231.87 1213.59,-175.1 1306.99,-153.54"/>
<polygon fill="midnightblue" stroke="midnightblue" points="853.59,-254.61 844.63,-260.27 855.16,-261.43 853.59,-254.61"/>
</g>
<!-- Node23 -->
<g id="node23" class="node">
<title>Node23</title>
<g id="a_node23"><a xlink:href="mxsvgpainter_8cpp.html" target="_top" xlink:title=" ">
<polygon fill="none" stroke="black" points="545.5,-134.5 545.5,-153.5 688.5,-153.5 688.5,-134.5 545.5,-134.5"/>
<text text-anchor="middle" x="617" y="-141.5" font-family="Helvetica,sans-Serif" font-size="10.00">src/gui/svg/mxsvgpainter.cpp</text>
</a>
</g>
</g>
<!-- Node22&#45;&gt;Node23 -->
<g id="edge27" class="edge">
<title>Node22&#45;&gt;Node23</title>
<path fill="none" stroke="midnightblue" d="M767.74,-251.53C728.15,-223.55 657.86,-173.87 629.44,-153.79"/>
<polygon fill="midnightblue" stroke="midnightblue" points="765.97,-254.57 776.16,-257.48 770.01,-248.85 765.97,-254.57"/>
</g>
<!-- Node24 -->
<g id="node24" class="node">
<title>Node24</title>
<g id="a_node24"><a xlink:href="mxsvgpainter_8h.html" target="_top" xlink:title=" ">
<polygon fill="none" stroke="black" points="797.5,-196 797.5,-215 930.5,-215 930.5,-196 797.5,-196"/>
<text text-anchor="middle" x="864" y="-203" font-family="Helvetica,sans-Serif" font-size="10.00">src/gui/svg/mxsvgpainter.h</text>
</a>
</g>
</g>
<!-- Node22&#45;&gt;Node24 -->
<g id="edge28" class="edge">
<title>Node22&#45;&gt;Node24</title>
<path fill="none" stroke="midnightblue" d="M818.14,-250.34C830.63,-238.4 845.55,-224.14 854.9,-215.19"/>
<polygon fill="midnightblue" stroke="midnightblue" points="815.57,-247.96 810.75,-257.4 820.4,-253.02 815.57,-247.96"/>
</g>
<!-- Node28 -->
<g id="node28" class="node">
<title>Node28</title>
<g id="a_node28"><a xlink:href="mxvectorprogram_8h.html" target="_top" xlink:title=" ">
<polygon fill="none" stroke="black" points="466,-190.5 466,-220.5 568,-220.5 568,-190.5 466,-190.5"/>
<text text-anchor="start" x="474" y="-208.5" font-family="Helvetica,sans-Serif" font-size="10.00">src/gui/vectordraw</text>
<text text-anchor="middle" x="517" y="-197.5" font-family="Helvetica,sans-Serif" font-size="10.00">/mxvectorprogram.h</text>
</a>
</g>
</g>
<!-- Node22&#45;&gt;Node28 -->
<g id="edge35" class="edge">
<title>Node22&#45;&gt;Node28</title>
<path fill="none" stroke="midnightblue" d="M737.38,-257.84C687.36,-246.19 616.15,-229.6 568.35,-218.46"/>
<polygon fill="midnightblue" stroke="midnightblue" points="736.87,-261.32 747.4,-260.18 738.46,-254.5 736.87,-261.32"/>
</g>
<!-- Node24&#45;&gt;Node10 -->
<g id="edge29" class="edge">
<title>Node24&#45;&gt;Node10</title>
<path fill="none" stroke="midnightblue" d="M940.99,-196.58C1044.93,-185.55 1220.36,-165.61 1248,-154 1282.77,-139.4 1315.5,-107.64 1330.07,-92.23"/>
<polygon fill="midnightblue" stroke="midnightblue" points="940.43,-193.12 930.86,-197.65 941.17,-200.08 940.43,-193.12"/>
</g>
<!-- Node24&#45;&gt;Node23 -->
<g id="edge30" class="edge">
<title>Node24&#45;&gt;Node23</title>
<path fill="none" stroke="midnightblue" d="M818.81,-193.61C770.87,-182.07 696.13,-164.06 652.32,-153.51"/>
<polygon fill="midnightblue" stroke="midnightblue" points="818.07,-197.04 828.61,-195.98 819.71,-190.23 818.07,-197.04"/>
</g>
<!-- Node25 -->
<g id="node25" class="node">
<title>Node25</title>
<g id="a_node25"><a xlink:href="downarrowsvg_8cpp.html" target="_top" xlink:title=" ">
<polygon fill="none" stroke="black" points="706.5,-134.5 706.5,-153.5 881.5,-153.5 881.5,-134.5 706.5,-134.5"/>
<text text-anchor="middle" x="794" y="-141.5" font-family="Helvetica,sans-Serif" font-size="10.00">src/svg&#45;drawings/downarrowsvg.cpp</text>
</a>
</g>
</g>
<!-- Node24&#45;&gt;Node25 -->
<g id="edge31" class="edge">
<title>Node24&#45;&gt;Node25</title>
<path fill="none" stroke="midnightblue" d="M846.32,-189.47C832.93,-178.09 815.02,-162.87 804.01,-153.51"/>
<polygon fill="midnightblue" stroke="midnightblue" points="844.08,-192.17 853.97,-195.98 848.62,-186.83 844.08,-192.17"/>
</g>
<!-- Node26 -->
<g id="node26" class="node">
<title>Node26</title>
<g id="a_node26"><a xlink:href="heartsvg_8cpp.html" target="_top" xlink:title=" ">
<polygon fill="none" stroke="black" points="899.5,-134.5 899.5,-153.5 1048.5,-153.5 1048.5,-134.5 899.5,-134.5"/>
<text text-anchor="middle" x="974" y="-141.5" font-family="Helvetica,sans-Serif" font-size="10.00">src/svg&#45;drawings/heartsvg.cpp</text>
</a>
</g>
</g>
<!-- Node24&#45;&gt;Node26 -->
<g id="edge32" class="edge">
<title>Node24&#45;&gt;Node26</title>
<path fill="none" stroke="midnightblue" d="M888.57,-191.21C909.87,-179.69 940.07,-163.36 958.27,-153.51"/>
<polygon fill="midnightblue" stroke="midnightblue" points="886.89,-188.14 879.76,-195.98 890.22,-194.3 886.89,-188.14"/>
</g>
<!-- Node27 -->
<g id="node27" class="node">
<title>Node27</title>
<g id="a_node27"><a xlink:href="plusminussvg_8cpp.html" target="_top" xlink:title=" ">
<polygon fill="none" stroke="black" points="1067,-134.5 1067,-153.5 1239,-153.5 1239,-134.5 1067,-134.5"/>
<text text-anchor="middle" x="1153" y="-141.5" font-family="Helvetica,sans-Serif" font-size="10.00">src/svg&#45;drawings/plusminussvg.cpp</text>
</a>
</g>
</g>
<!-- Node24&#45;&gt;Node27 -->
<g id="edge33" class="edge">
<title>Node24&#45;&gt;Node27</title>
<path fill="none" stroke="midnightblue" d="M915.47,-193.9C971.5,-182.37 1059.99,-164.15 1111.67,-153.51"/>
<polygon fill="midnightblue" stroke="midnightblue" points="914.5,-190.53 905.41,-195.98 915.91,-197.39 914.5,-190.53"/>
</g>
<!-- Node28&#45;&gt;Node4 -->
<g id="edge36" class="edge">
<title>Node28&#45;&gt;Node4</title>
<path fill="none" stroke="midnightblue" d="M484.34,-185.07C466.52,-174.46 445.33,-161.86 431.55,-153.66"/>
<polygon fill="midnightblue" stroke="midnightblue" points="482.92,-188.29 493.3,-190.4 486.5,-182.28 482.92,-188.29"/>
</g>
<!-- Node28&#45;&gt;Node14 -->
<g id="edge37" class="edge">
<title>Node28&#45;&gt;Node14</title>
<path fill="none" stroke="midnightblue" d="M516.99,-180.44C518.34,-164.86 522.85,-145.41 536,-134 585.89,-90.73 765.9,-109.1 831,-98 834.01,-97.49 837.08,-96.93 840.19,-96.34"/>
<polygon fill="midnightblue" stroke="midnightblue" points="513.49,-180.31 516.48,-190.47 520.48,-180.66 513.49,-180.31"/>
</g>
</g>
</svg>
