<?xml version="1.0" encoding="UTF-8" standalone="no"?>
<!DOCTYPE svg PUBLIC "-//W3C//DTD SVG 1.1//EN"
 "http://www.w3.org/Graphics/SVG/1.1/DTD/svg11.dtd">
<!-- Generated by graphviz version 2.44.0 ()
 -->
<!-- Title: src/geometry/mxrect.h Pages: 1 -->
<svg width="2884pt" height="341pt"
 viewBox="0.00 0.00 2883.50 341.00" xmlns="http://www.w3.org/2000/svg" xmlns:xlink="http://www.w3.org/1999/xlink">
<g id="graph0" class="graph" transform="scale(1 1) rotate(0) translate(4 337)">
<title>src/geometry/mxrect.h</title>
<!-- Node1 -->
<g id="node1" class="node">
<title>Node1</title>
<g id="a_node1"><a xlink:title=" ">
<polygon fill="#bfbfbf" stroke="black" points="1799.5,-313.5 1799.5,-332.5 1912.5,-332.5 1912.5,-313.5 1799.5,-313.5"/>
<text text-anchor="middle" x="1856" y="-320.5" font-family="Helvetica,sans-Serif" font-size="10.00">src/geometry/mxrect.h</text>
</a>
</g>
</g>
<!-- Node2 -->
<g id="node2" class="node">
<title>Node2</title>
<g id="a_node2"><a xlink:href="mxgeometryutils_8h.html" target="_top" xlink:title=" ">
<polygon fill="none" stroke="black" points="853,-252 853,-271 1007,-271 1007,-252 853,-252"/>
<text text-anchor="middle" x="930" y="-259" font-family="Helvetica,sans-Serif" font-size="10.00">src/geometry/mxgeometryutils.h</text>
</a>
</g>
</g>
<!-- Node1&#45;&gt;Node2 -->
<g id="edge1" class="edge">
<title>Node1&#45;&gt;Node2</title>
<path fill="none" stroke="midnightblue" d="M1789.32,-317.72C1622.03,-306.97 1185.24,-278.9 1007.21,-267.46"/>
<polygon fill="midnightblue" stroke="midnightblue" points="1789.26,-321.22 1799.47,-318.37 1789.71,-314.23 1789.26,-321.22"/>
</g>
<!-- Node4 -->
<g id="node4" class="node">
<title>Node4</title>
<g id="a_node4"><a xlink:href="mxicondraw_8h.html" target="_top" xlink:title=" ">
<polygon fill="none" stroke="black" points="1496,-252 1496,-271 1604,-271 1604,-252 1496,-252"/>
<text text-anchor="middle" x="1550" y="-259" font-family="Helvetica,sans-Serif" font-size="10.00">src/gui/mxicondraw.h</text>
</a>
</g>
</g>
<!-- Node1&#45;&gt;Node4 -->
<g id="edge3" class="edge">
<title>Node1&#45;&gt;Node4</title>
<path fill="none" stroke="midnightblue" d="M1802.23,-311.55C1742.95,-300.02 1648.71,-281.69 1593.76,-271.01"/>
<polygon fill="midnightblue" stroke="midnightblue" points="1801.67,-315 1812.16,-313.48 1803.01,-308.13 1801.67,-315"/>
</g>
<!-- Node19 -->
<g id="node17" class="node">
<title>Node19</title>
<g id="a_node17"><a xlink:href="mxiconprogram_8cpp.html" target="_top" xlink:title=" ">
<polygon fill="none" stroke="black" points="1674,-179.5 1674,-209.5 1834,-209.5 1834,-179.5 1674,-179.5"/>
<text text-anchor="start" x="1682" y="-197.5" font-family="Helvetica,sans-Serif" font-size="10.00">src/renderer/opengl</text>
<text text-anchor="middle" x="1754" y="-186.5" font-family="Helvetica,sans-Serif" font-size="10.00">/iconprogram/mxiconprogram.cpp</text>
</a>
</g>
</g>
<!-- Node1&#45;&gt;Node19 -->
<g id="edge50" class="edge">
<title>Node1&#45;&gt;Node19</title>
<path fill="none" stroke="midnightblue" d="M1817.51,-309.64C1801.19,-302.55 1783.36,-291.99 1772,-277 1756.95,-257.13 1754,-227.17 1753.68,-209.65"/>
<polygon fill="midnightblue" stroke="midnightblue" points="1816.3,-312.93 1826.89,-313.43 1818.93,-306.44 1816.3,-312.93"/>
</g>
<!-- Node20 -->
<g id="node18" class="node">
<title>Node20</title>
<g id="a_node18"><a xlink:href="mxorthotransform_8h.html" target="_top" xlink:title=" ">
<polygon fill="none" stroke="black" points="2376,-252 2376,-271 2508,-271 2508,-252 2376,-252"/>
<text text-anchor="middle" x="2442" y="-259" font-family="Helvetica,sans-Serif" font-size="10.00">src/gui/mxorthotransform.h</text>
</a>
</g>
</g>
<!-- Node1&#45;&gt;Node20 -->
<g id="edge18" class="edge">
<title>Node1&#45;&gt;Node20</title>
<path fill="none" stroke="midnightblue" d="M1922.97,-317.98C2020.04,-311.72 2205.36,-298.12 2362,-277 2374.03,-275.38 2387.01,-273.21 2398.93,-271.04"/>
<polygon fill="midnightblue" stroke="midnightblue" points="1922.48,-314.51 1912.72,-318.64 1922.92,-321.49 1922.48,-314.51"/>
</g>
<!-- Node21 -->
<g id="node19" class="node">
<title>Node21</title>
<g id="a_node19"><a xlink:href="mxquaddraw_8h.html" target="_top" xlink:title=" ">
<polygon fill="none" stroke="black" points="2526.5,-252 2526.5,-271 2637.5,-271 2637.5,-252 2526.5,-252"/>
<text text-anchor="middle" x="2582" y="-259" font-family="Helvetica,sans-Serif" font-size="10.00">src/gui/mxquaddraw.h</text>
</a>
</g>
</g>
<!-- Node1&#45;&gt;Node21 -->
<g id="edge19" class="edge">
<title>Node1&#45;&gt;Node21</title>
<path fill="none" stroke="midnightblue" d="M1923.01,-320.79C2042.79,-317.88 2301.31,-308.22 2517,-277 2527.3,-275.51 2538.39,-273.27 2548.44,-271"/>
<polygon fill="midnightblue" stroke="midnightblue" points="1922.81,-317.29 1912.89,-321.02 1922.97,-324.29 1922.81,-317.29"/>
</g>
<!-- Node23 -->
<g id="node21" class="node">
<title>Node23</title>
<g id="a_node21"><a xlink:href="mxtextdraw_8h.html" target="_top" xlink:title=" ">
<polygon fill="none" stroke="black" points="1550,-185 1550,-204 1656,-204 1656,-185 1550,-185"/>
<text text-anchor="middle" x="1603" y="-192" font-family="Helvetica,sans-Serif" font-size="10.00">src/gui/mxtextdraw.h</text>
</a>
</g>
</g>
<!-- Node1&#45;&gt;Node23 -->
<g id="edge21" class="edge">
<title>Node1&#45;&gt;Node23</title>
<path fill="none" stroke="midnightblue" d="M1826.35,-309.47C1806.08,-300.74 1778.7,-288.62 1755,-277 1704.18,-252.1 1645.55,-219.54 1618.34,-204.21"/>
<polygon fill="midnightblue" stroke="midnightblue" points="1825.11,-312.74 1835.68,-313.46 1827.86,-306.31 1825.11,-312.74"/>
</g>
<!-- Node25 -->
<g id="node23" class="node">
<title>Node25</title>
<g id="a_node23"><a xlink:href="mxvectordraw_8h.html" target="_top" xlink:title=" ">
<polygon fill="none" stroke="black" points="1278.5,-252 1278.5,-271 1395.5,-271 1395.5,-252 1278.5,-252"/>
<text text-anchor="middle" x="1337" y="-259" font-family="Helvetica,sans-Serif" font-size="10.00">src/gui/mxvectordraw.h</text>
</a>
</g>
</g>
<!-- Node1&#45;&gt;Node25 -->
<g id="edge24" class="edge">
<title>Node1&#45;&gt;Node25</title>
<path fill="none" stroke="midnightblue" d="M1789.26,-314.35C1687,-302.62 1493.16,-280.4 1395.84,-269.25"/>
<polygon fill="midnightblue" stroke="midnightblue" points="1789.14,-317.86 1799.47,-315.52 1789.93,-310.9 1789.14,-317.86"/>
</g>
<!-- Node36 -->
<g id="node34" class="node">
<title>Node36</title>
<g id="a_node34"><a xlink:href="mxabstractatlas_8h.html" target="_top" xlink:title=" ">
<polygon fill="none" stroke="black" points="266,-252 266,-271 418,-271 418,-252 266,-252"/>
<text text-anchor="middle" x="342" y="-259" font-family="Helvetica,sans-Serif" font-size="10.00">src/iconatlas/mxabstractatlas.h</text>
</a>
</g>
</g>
<!-- Node1&#45;&gt;Node36 -->
<g id="edge41" class="edge">
<title>Node1&#45;&gt;Node36</title>
<path fill="none" stroke="midnightblue" d="M1789.15,-319.37C1541.96,-309.66 680.54,-275.8 418.32,-265.5"/>
<polygon fill="midnightblue" stroke="midnightblue" points="1789.28,-322.88 1799.41,-319.78 1789.56,-315.89 1789.28,-322.88"/>
</g>
<!-- Node40 -->
<g id="node38" class="node">
<title>Node40</title>
<g id="a_node38"><a xlink:href="mxcolorwheelprogram_8h.html" target="_top" xlink:title=" ">
<polygon fill="none" stroke="black" points="2661,-246.5 2661,-276.5 2867,-276.5 2867,-246.5 2661,-246.5"/>
<text text-anchor="start" x="2669" y="-264.5" font-family="Helvetica,sans-Serif" font-size="10.00">src/renderer/opengl</text>
<text text-anchor="middle" x="2764" y="-253.5" font-family="Helvetica,sans-Serif" font-size="10.00">/colorwheelprogram/mxcolorwheelprogram.h</text>
</a>
</g>
</g>
<!-- Node1&#45;&gt;Node40 -->
<g id="edge48" class="edge">
<title>Node1&#45;&gt;Node40</title>
<path fill="none" stroke="midnightblue" d="M1922.88,-319.67C2059.14,-314.59 2378.63,-301.02 2646,-277 2650.83,-276.57 2655.77,-276.09 2660.75,-275.58"/>
<polygon fill="midnightblue" stroke="midnightblue" points="1922.47,-316.18 1912.61,-320.05 1922.73,-323.17 1922.47,-316.18"/>
</g>
<!-- Node42 -->
<g id="node40" class="node">
<title>Node42</title>
<g id="a_node40"><a xlink:href="mxiconprogram_8h.html" target="_top" xlink:title=" ">
<polygon fill="none" stroke="black" points="1781.5,-246.5 1781.5,-276.5 1930.5,-276.5 1930.5,-246.5 1781.5,-246.5"/>
<text text-anchor="start" x="1789.5" y="-264.5" font-family="Helvetica,sans-Serif" font-size="10.00">src/renderer/opengl</text>
<text text-anchor="middle" x="1856" y="-253.5" font-family="Helvetica,sans-Serif" font-size="10.00">/iconprogram/mxiconprogram.h</text>
</a>
</g>
</g>
<!-- Node1&#45;&gt;Node42 -->
<g id="edge51" class="edge">
<title>Node1&#45;&gt;Node42</title>
<path fill="none" stroke="midnightblue" d="M1856,-303.23C1856,-294.59 1856,-284.5 1856,-276.52"/>
<polygon fill="midnightblue" stroke="midnightblue" points="1852.5,-303.48 1856,-313.48 1859.5,-303.48 1852.5,-303.48"/>
</g>
<!-- Node43 -->
<g id="node41" class="node">
<title>Node43</title>
<g id="a_node41"><a xlink:href="mxbutton_8cpp.html" target="_top" xlink:title=" ">
<polygon fill="none" stroke="black" points="2565,-56.5 2565,-75.5 2693,-75.5 2693,-56.5 2565,-56.5"/>
<text text-anchor="middle" x="2629" y="-63.5" font-family="Helvetica,sans-Serif" font-size="10.00">src/widgets/mxbutton.cpp</text>
</a>
</g>
</g>
<!-- Node1&#45;&gt;Node43 -->
<g id="edge54" class="edge">
<title>Node1&#45;&gt;Node43</title>
<path fill="none" stroke="midnightblue" d="M1922.55,-312.66C1977.8,-304.5 2058.34,-291.69 2128,-277 2128,-277 2649,-143 2649,-143 2664.72,-122.73 2646.56,-91.24 2635.81,-75.95"/>
<polygon fill="midnightblue" stroke="midnightblue" points="1921.92,-309.21 1912.53,-314.13 1922.93,-316.14 1921.92,-309.21"/>
</g>
<!-- Node44 -->
<g id="node42" class="node">
<title>Node44</title>
<g id="a_node42"><a xlink:href="mxclippedwidget_8h.html" target="_top" xlink:title=" ">
<polygon fill="none" stroke="black" points="1948.5,-252 1948.5,-271 2097.5,-271 2097.5,-252 1948.5,-252"/>
<text text-anchor="middle" x="2023" y="-259" font-family="Helvetica,sans-Serif" font-size="10.00">src/widgets/mxclippedwidget.h</text>
</a>
</g>
</g>
<!-- Node1&#45;&gt;Node44 -->
<g id="edge55" class="edge">
<title>Node1&#45;&gt;Node44</title>
<path fill="none" stroke="midnightblue" d="M1889.45,-310.08C1921.91,-298.52 1970.37,-281.25 1999.12,-271.01"/>
<polygon fill="midnightblue" stroke="midnightblue" points="1888.17,-306.82 1879.93,-313.48 1890.52,-313.42 1888.17,-306.82"/>
</g>
<!-- Node45 -->
<g id="node43" class="node">
<title>Node45</title>
<g id="a_node43"><a xlink:href="mxwidget_8h.html" target="_top" xlink:title=" ">
<polygon fill="none" stroke="black" points="2065.5,-185 2065.5,-204 2184.5,-204 2184.5,-185 2065.5,-185"/>
<text text-anchor="middle" x="2125" y="-192" font-family="Helvetica,sans-Serif" font-size="10.00">src/widgets/mxwidget.h</text>
</a>
</g>
</g>
<!-- Node1&#45;&gt;Node45 -->
<g id="edge71" class="edge">
<title>Node1&#45;&gt;Node45</title>
<path fill="none" stroke="midnightblue" d="M1922.94,-318.12C1987.87,-312.97 2080.25,-301.48 2106,-277 2126.43,-257.58 2126.81,-220.79 2125.79,-204.11"/>
<polygon fill="midnightblue" stroke="midnightblue" points="1922.48,-314.65 1912.77,-318.9 1923.01,-321.63 1922.48,-314.65"/>
</g>
<!-- Node3 -->
<g id="node3" class="node">
<title>Node3</title>
<g id="a_node3"><a xlink:href="mxicondraw_8cpp.html" target="_top" xlink:title=" ">
<polygon fill="none" stroke="black" points="671.5,-185 671.5,-204 790.5,-204 790.5,-185 671.5,-185"/>
<text text-anchor="middle" x="731" y="-192" font-family="Helvetica,sans-Serif" font-size="10.00">src/gui/mxicondraw.cpp</text>
</a>
</g>
</g>
<!-- Node2&#45;&gt;Node3 -->
<g id="edge2" class="edge">
<title>Node2&#45;&gt;Node3</title>
<path fill="none" stroke="midnightblue" d="M893.82,-248.68C854.38,-235.8 792.22,-215.5 757.22,-204.06"/>
<polygon fill="midnightblue" stroke="midnightblue" points="892.98,-252.09 903.57,-251.87 895.16,-245.44 892.98,-252.09"/>
</g>
<!-- Node4&#45;&gt;Node3 -->
<g id="edge4" class="edge">
<title>Node4&#45;&gt;Node3</title>
<path fill="none" stroke="midnightblue" d="M1485.7,-253.56C1460.28,-250.96 1430.78,-248.13 1404,-246 1135.92,-224.71 1066.53,-245.75 800,-210 789.08,-208.54 777.31,-206.31 766.64,-204.04"/>
<polygon fill="midnightblue" stroke="midnightblue" points="1485.66,-257.08 1495.96,-254.62 1486.38,-250.11 1485.66,-257.08"/>
</g>
<!-- Node5 -->
<g id="node5" class="node">
<title>Node5</title>
<g id="a_node5"><a xlink:href="mxpainter_8h.html" target="_top" xlink:title=" ">
<polygon fill="none" stroke="black" points="1472,-118 1472,-137 1570,-137 1570,-118 1472,-118"/>
<text text-anchor="middle" x="1521" y="-125" font-family="Helvetica,sans-Serif" font-size="10.00">src/gui/mxpainter.h</text>
</a>
</g>
</g>
<!-- Node4&#45;&gt;Node5 -->
<g id="edge5" class="edge">
<title>Node4&#45;&gt;Node5</title>
<path fill="none" stroke="midnightblue" d="M1545.89,-241.78C1539.51,-212.75 1527.49,-158.04 1522.87,-137.02"/>
<polygon fill="midnightblue" stroke="midnightblue" points="1542.53,-242.82 1548.1,-251.84 1549.37,-241.32 1542.53,-242.82"/>
</g>
<!-- Node4&#45;&gt;Node19 -->
<g id="edge17" class="edge">
<title>Node4&#45;&gt;Node19</title>
<path fill="none" stroke="midnightblue" d="M1586.8,-248.77C1621.39,-237.75 1673.2,-221.24 1709.97,-209.53"/>
<polygon fill="midnightblue" stroke="midnightblue" points="1585.56,-245.5 1577.09,-251.87 1587.68,-252.17 1585.56,-245.5"/>
</g>
<!-- Node6 -->
<g id="node6" class="node">
<title>Node6</title>
<g id="a_node6"><a xlink:href="mxapplication_8h.html" target="_top" xlink:title=" ">
<polygon fill="none" stroke="red" points="1329,-56.5 1329,-75.5 1461,-75.5 1461,-56.5 1329,-56.5"/>
<text text-anchor="middle" x="1395" y="-63.5" font-family="Helvetica,sans-Serif" font-size="10.00">src/events/mxapplication.h</text>
</a>
</g>
</g>
<!-- Node5&#45;&gt;Node6 -->
<g id="edge6" class="edge">
<title>Node5&#45;&gt;Node6</title>
<path fill="none" stroke="midnightblue" d="M1493.84,-113.67C1469.39,-102.13 1434.15,-85.49 1413.02,-75.51"/>
<polygon fill="midnightblue" stroke="midnightblue" points="1492.41,-116.87 1502.95,-117.98 1495.4,-110.54 1492.41,-116.87"/>
</g>
<!-- Node11 -->
<g id="node9" class="node">
<title>Node11</title>
<g id="a_node9"><a xlink:href="mxpainter_8cpp.html" target="_top" xlink:title=" ">
<polygon fill="none" stroke="black" points="1055.5,-56.5 1055.5,-75.5 1164.5,-75.5 1164.5,-56.5 1055.5,-56.5"/>
<text text-anchor="middle" x="1110" y="-63.5" font-family="Helvetica,sans-Serif" font-size="10.00">src/gui/mxpainter.cpp</text>
</a>
</g>
</g>
<!-- Node5&#45;&gt;Node11 -->
<g id="edge9" class="edge">
<title>Node5&#45;&gt;Node11</title>
<path fill="none" stroke="midnightblue" d="M1479.15,-115.58C1473.41,-114.27 1467.58,-113.03 1462,-112 1335.15,-88.57 1301.87,-92.98 1174,-76 1171,-75.6 1167.92,-75.19 1164.81,-74.76"/>
<polygon fill="midnightblue" stroke="midnightblue" points="1478.76,-119.08 1489.3,-117.99 1480.38,-112.27 1478.76,-119.08"/>
</g>
<!-- Node12 -->
<g id="node10" class="node">
<title>Node12</title>
<g id="a_node10"><a xlink:href="mxlabel_8h.html" target="_top" xlink:title=" ">
<polygon fill="none" stroke="black" points="1684,-56.5 1684,-75.5 1794,-75.5 1794,-56.5 1684,-56.5"/>
<text text-anchor="middle" x="1739" y="-63.5" font-family="Helvetica,sans-Serif" font-size="10.00">src/widgets/mxlabel.h</text>
</a>
</g>
</g>
<!-- Node5&#45;&gt;Node12 -->
<g id="edge10" class="edge">
<title>Node5&#45;&gt;Node12</title>
<path fill="none" stroke="midnightblue" d="M1561.95,-115.32C1604.3,-103.76 1669.48,-85.97 1707.82,-75.51"/>
<polygon fill="midnightblue" stroke="midnightblue" points="1560.96,-111.97 1552.23,-117.98 1562.8,-118.72 1560.96,-111.97"/>
</g>
<!-- Node14 -->
<g id="node12" class="node">
<title>Node14</title>
<g id="a_node12"><a xlink:href="mxlayout_8cpp.html" target="_top" xlink:title=" ">
<polygon fill="none" stroke="black" points="2183,-56.5 2183,-75.5 2309,-75.5 2309,-56.5 2183,-56.5"/>
<text text-anchor="middle" x="2246" y="-63.5" font-family="Helvetica,sans-Serif" font-size="10.00">src/widgets/mxlayout.cpp</text>
</a>
</g>
</g>
<!-- Node5&#45;&gt;Node14 -->
<g id="edge12" class="edge">
<title>Node5&#45;&gt;Node14</title>
<path fill="none" stroke="midnightblue" d="M1560.65,-115.57C1566.76,-114.18 1573.02,-112.93 1579,-112 1831.59,-72.84 1898.2,-96.31 2153,-76 2162.7,-75.23 2172.96,-74.32 2182.99,-73.39"/>
<polygon fill="midnightblue" stroke="midnightblue" points="1559.49,-112.25 1550.59,-118 1561.13,-119.06 1559.49,-112.25"/>
</g>
<!-- Node15 -->
<g id="node13" class="node">
<title>Node15</title>
<g id="a_node13"><a xlink:href="mxlinearlayout_8cpp.html" target="_top" xlink:title=" ">
<polygon fill="none" stroke="black" points="1479.5,-56.5 1479.5,-75.5 1628.5,-75.5 1628.5,-56.5 1479.5,-56.5"/>
<text text-anchor="middle" x="1554" y="-63.5" font-family="Helvetica,sans-Serif" font-size="10.00">src/widgets/mxlinearlayout.cpp</text>
</a>
</g>
</g>
<!-- Node5&#45;&gt;Node15 -->
<g id="edge13" class="edge">
<title>Node5&#45;&gt;Node15</title>
<path fill="none" stroke="midnightblue" d="M1530.61,-109.17C1536.75,-98.11 1544.43,-84.25 1549.28,-75.51"/>
<polygon fill="midnightblue" stroke="midnightblue" points="1527.52,-107.53 1525.73,-117.98 1533.64,-110.93 1527.52,-107.53"/>
</g>
<!-- Node16 -->
<g id="node14" class="node">
<title>Node16</title>
<g id="a_node14"><a xlink:href="mxlineedit_8cpp.html" target="_top" xlink:title=" ">
<polygon fill="none" stroke="black" points="1823.5,-56.5 1823.5,-75.5 1954.5,-75.5 1954.5,-56.5 1823.5,-56.5"/>
<text text-anchor="middle" x="1889" y="-63.5" font-family="Helvetica,sans-Serif" font-size="10.00">src/widgets/mxlineedit.cpp</text>
</a>
</g>
</g>
<!-- Node5&#45;&gt;Node16 -->
<g id="edge14" class="edge">
<title>Node5&#45;&gt;Node16</title>
<path fill="none" stroke="midnightblue" d="M1562.55,-115.58C1568.06,-114.28 1573.65,-113.05 1579,-112 1662.77,-95.49 1760.39,-82.31 1823.36,-74.58"/>
<polygon fill="midnightblue" stroke="midnightblue" points="1561.68,-112.19 1552.78,-117.94 1563.32,-118.99 1561.68,-112.19"/>
</g>
<!-- Node17 -->
<g id="node15" class="node">
<title>Node17</title>
<g id="a_node15"><a xlink:href="mxspacer_8cpp.html" target="_top" xlink:title=" ">
<polygon fill="none" stroke="black" points="2014,-56.5 2014,-75.5 2144,-75.5 2144,-56.5 2014,-56.5"/>
<text text-anchor="middle" x="2079" y="-63.5" font-family="Helvetica,sans-Serif" font-size="10.00">src/widgets/mxspacer.cpp</text>
</a>
</g>
</g>
<!-- Node5&#45;&gt;Node17 -->
<g id="edge15" class="edge">
<title>Node5&#45;&gt;Node17</title>
<path fill="none" stroke="midnightblue" d="M1561.28,-115.58C1567.19,-114.22 1573.23,-112.97 1579,-112 1620.79,-104.94 1887.7,-82.63 2013.53,-72.32"/>
<polygon fill="midnightblue" stroke="midnightblue" points="1560.42,-112.18 1551.52,-117.93 1562.06,-118.99 1560.42,-112.18"/>
</g>
<!-- Node18 -->
<g id="node16" class="node">
<title>Node18</title>
<g id="a_node16"><a xlink:href="mxtextbutton_8cpp.html" target="_top" xlink:title=" ">
<polygon fill="none" stroke="black" points="1584.5,-0.5 1584.5,-19.5 1727.5,-19.5 1727.5,-0.5 1584.5,-0.5"/>
<text text-anchor="middle" x="1656" y="-7.5" font-family="Helvetica,sans-Serif" font-size="10.00">src/widgets/mxtextbutton.cpp</text>
</a>
</g>
</g>
<!-- Node5&#45;&gt;Node18 -->
<g id="edge16" class="edge">
<title>Node5&#45;&gt;Node18</title>
<path fill="none" stroke="midnightblue" d="M1556.98,-114.62C1586.76,-104.13 1625.91,-88.59 1637,-76 1651.3,-59.77 1654.86,-33.29 1655.73,-19.68"/>
<polygon fill="midnightblue" stroke="midnightblue" points="1555.6,-111.4 1547.3,-117.97 1557.89,-118.01 1555.6,-111.4"/>
</g>
<!-- Node7 -->
<g id="node7" class="node">
<title>Node7</title>
<g id="a_node7"><a xlink:href="mxapplication_8cpp.html" target="_top" xlink:title=" ">
<polygon fill="none" stroke="black" points="1373.5,-0.5 1373.5,-19.5 1516.5,-19.5 1516.5,-0.5 1373.5,-0.5"/>
<text text-anchor="middle" x="1445" y="-7.5" font-family="Helvetica,sans-Serif" font-size="10.00">src/events/mxapplication.cpp</text>
</a>
</g>
</g>
<!-- Node6&#45;&gt;Node7 -->
<g id="edge7" class="edge">
<title>Node6&#45;&gt;Node7</title>
<path fill="none" stroke="midnightblue" d="M1410.08,-48.72C1418.89,-39.2 1429.67,-27.56 1436.9,-19.75"/>
<polygon fill="midnightblue" stroke="midnightblue" points="1407.48,-46.37 1403.26,-56.08 1412.62,-51.12 1407.48,-46.37"/>
</g>
<!-- Node10 -->
<g id="node8" class="node">
<title>Node10</title>
<g id="a_node8"><a xlink:href="qmewawindow_8h.html" target="_top" xlink:title=" ">
<polygon fill="none" stroke="red" points="620.5,-0.5 620.5,-19.5 775.5,-19.5 775.5,-0.5 620.5,-0.5"/>
<text text-anchor="middle" x="698" y="-7.5" font-family="Helvetica,sans-Serif" font-size="10.00">src/platform/qt/qmewawindow.h</text>
</a>
</g>
</g>
<!-- Node6&#45;&gt;Node10 -->
<g id="edge8" class="edge">
<title>Node6&#45;&gt;Node10</title>
<path fill="none" stroke="midnightblue" d="M1318.57,-55.9C1116.76,-36.71 891.54,-22.32 775.67,-15.44"/>
<polygon fill="midnightblue" stroke="midnightblue" points="1318.48,-59.41 1328.76,-56.88 1319.14,-52.44 1318.48,-59.41"/>
</g>
<!-- Node13 -->
<g id="node11" class="node">
<title>Node13</title>
<g id="a_node11"><a xlink:href="mxlabel_8cpp.html" target="_top" xlink:title=" ">
<polygon fill="none" stroke="black" points="1745.5,-0.5 1745.5,-19.5 1866.5,-19.5 1866.5,-0.5 1745.5,-0.5"/>
<text text-anchor="middle" x="1806" y="-7.5" font-family="Helvetica,sans-Serif" font-size="10.00">src/widgets/mxlabel.cpp</text>
</a>
</g>
</g>
<!-- Node12&#45;&gt;Node13 -->
<g id="edge11" class="edge">
<title>Node12&#45;&gt;Node13</title>
<path fill="none" stroke="midnightblue" d="M1757.83,-49.82C1769.84,-40.15 1784.97,-27.95 1795.04,-19.83"/>
<polygon fill="midnightblue" stroke="midnightblue" points="1755.35,-47.32 1749.76,-56.32 1759.75,-52.77 1755.35,-47.32"/>
</g>
<!-- Node22 -->
<g id="node20" class="node">
<title>Node22</title>
<g id="a_node20"><a xlink:href="mxquaddraw_8cpp.html" target="_top" xlink:title=" ">
<polygon fill="none" stroke="black" points="2518,-185 2518,-204 2640,-204 2640,-185 2518,-185"/>
<text text-anchor="middle" x="2579" y="-192" font-family="Helvetica,sans-Serif" font-size="10.00">src/gui/mxquaddraw.cpp</text>
</a>
</g>
</g>
<!-- Node21&#45;&gt;Node22 -->
<g id="edge20" class="edge">
<title>Node21&#45;&gt;Node22</title>
<path fill="none" stroke="midnightblue" d="M2581.12,-241.54C2580.55,-229.17 2579.84,-213.62 2579.4,-204.13"/>
<polygon fill="midnightblue" stroke="midnightblue" points="2577.64,-241.91 2581.6,-251.73 2584.63,-241.58 2577.64,-241.91"/>
</g>
<!-- Node23&#45;&gt;Node5 -->
<g id="edge22" class="edge">
<title>Node23&#45;&gt;Node5</title>
<path fill="none" stroke="midnightblue" d="M1583.72,-178.21C1567.56,-165.41 1545.08,-147.59 1531.88,-137.13"/>
<polygon fill="midnightblue" stroke="midnightblue" points="1581.93,-181.26 1591.94,-184.73 1586.28,-175.78 1581.93,-181.26"/>
</g>
<!-- Node24 -->
<g id="node22" class="node">
<title>Node24</title>
<g id="a_node22"><a xlink:href="mxtextdraw_8cpp.html" target="_top" xlink:title=" ">
<polygon fill="none" stroke="black" points="1588,-118 1588,-137 1704,-137 1704,-118 1588,-118"/>
<text text-anchor="middle" x="1646" y="-125" font-family="Helvetica,sans-Serif" font-size="10.00">src/gui/mxtextdraw.cpp</text>
</a>
</g>
</g>
<!-- Node23&#45;&gt;Node24 -->
<g id="edge23" class="edge">
<title>Node23&#45;&gt;Node24</title>
<path fill="none" stroke="midnightblue" d="M1614.55,-176.03C1622.88,-163.45 1633.76,-147.01 1640.29,-137.13"/>
<polygon fill="midnightblue" stroke="midnightblue" points="1611.4,-174.46 1608.8,-184.73 1617.24,-178.32 1611.4,-174.46"/>
</g>
<!-- Node25&#45;&gt;Node5 -->
<g id="edge25" class="edge">
<title>Node25&#45;&gt;Node5</title>
<path fill="none" stroke="midnightblue" d="M1384.67,-249.04C1410.39,-241.14 1441.57,-228.65 1465,-210 1490.79,-189.47 1509.39,-153.89 1517.09,-137.39"/>
<polygon fill="midnightblue" stroke="midnightblue" points="1383.37,-245.78 1374.75,-251.94 1385.33,-252.49 1383.37,-245.78"/>
</g>
<!-- Node26 -->
<g id="node24" class="node">
<title>Node26</title>
<g id="a_node24"><a xlink:href="mxsvgpainter_8cpp.html" target="_top" xlink:title=" ">
<polygon fill="none" stroke="black" points="958.5,-118 958.5,-137 1083.5,-137 1083.5,-118 958.5,-118"/>
<text text-anchor="middle" x="1021" y="-125" font-family="Helvetica,sans-Serif" font-size="10.00">src/gui/mxsvgpainter.cpp</text>
</a>
</g>
</g>
<!-- Node25&#45;&gt;Node26 -->
<g id="edge26" class="edge">
<title>Node25&#45;&gt;Node26</title>
<path fill="none" stroke="midnightblue" d="M1268.19,-250.31C1227.55,-242.64 1175.84,-229.95 1133,-210 1090.71,-190.3 1048.2,-153.66 1030.08,-137.06"/>
<polygon fill="midnightblue" stroke="midnightblue" points="1267.81,-253.8 1278.27,-252.15 1269.06,-246.91 1267.81,-253.8"/>
</g>
<!-- Node27 -->
<g id="node25" class="node">
<title>Node27</title>
<g id="a_node25"><a xlink:href="mxsvgpainter_8h.html" target="_top" xlink:title=" ">
<polygon fill="none" stroke="black" points="809,-185 809,-204 923,-204 923,-185 809,-185"/>
<text text-anchor="middle" x="866" y="-192" font-family="Helvetica,sans-Serif" font-size="10.00">src/gui/mxsvgpainter.h</text>
</a>
</g>
</g>
<!-- Node25&#45;&gt;Node27 -->
<g id="edge27" class="edge">
<title>Node25&#45;&gt;Node27</title>
<path fill="none" stroke="midnightblue" d="M1268.12,-250.99C1174.84,-238.12 1010.06,-215.38 923.23,-203.4"/>
<polygon fill="midnightblue" stroke="midnightblue" points="1267.92,-254.5 1278.3,-252.4 1268.87,-247.56 1267.92,-254.5"/>
</g>
<!-- Node31 -->
<g id="node29" class="node">
<title>Node31</title>
<g id="a_node29"><a xlink:href="mxvectordraw_8cpp.html" target="_top" xlink:title=" ">
<polygon fill="none" stroke="black" points="1328,-185 1328,-204 1456,-204 1456,-185 1328,-185"/>
<text text-anchor="middle" x="1392" y="-192" font-family="Helvetica,sans-Serif" font-size="10.00">src/gui/mxvectordraw.cpp</text>
</a>
</g>
</g>
<!-- Node25&#45;&gt;Node31 -->
<g id="edge33" class="edge">
<title>Node25&#45;&gt;Node31</title>
<path fill="none" stroke="midnightblue" d="M1351.16,-243.77C1361.88,-231.1 1376.18,-214.2 1384.7,-204.13"/>
<polygon fill="midnightblue" stroke="midnightblue" points="1348.21,-241.84 1344.42,-251.73 1353.55,-246.36 1348.21,-241.84"/>
</g>
<!-- Node32 -->
<g id="node30" class="node">
<title>Node32</title>
<g id="a_node30"><a xlink:href="mxvectorprogram_8h.html" target="_top" xlink:title=" ">
<polygon fill="none" stroke="black" points="1142.5,-179.5 1142.5,-209.5 1309.5,-209.5 1309.5,-179.5 1142.5,-179.5"/>
<text text-anchor="start" x="1150.5" y="-197.5" font-family="Helvetica,sans-Serif" font-size="10.00">src/renderer/opengl</text>
<text text-anchor="middle" x="1226" y="-186.5" font-family="Helvetica,sans-Serif" font-size="10.00">/vectorprogram/mxvectorprogram.h</text>
</a>
</g>
</g>
<!-- Node25&#45;&gt;Node32 -->
<g id="edge34" class="edge">
<title>Node25&#45;&gt;Node32</title>
<path fill="none" stroke="midnightblue" d="M1313.27,-246.6C1294.63,-235.69 1268.78,-220.55 1250.06,-209.59"/>
<polygon fill="midnightblue" stroke="midnightblue" points="1311.63,-249.7 1322.03,-251.73 1315.17,-243.66 1311.63,-249.7"/>
</g>
<!-- Node27&#45;&gt;Node11 -->
<g id="edge28" class="edge">
<title>Node27&#45;&gt;Node11</title>
<path fill="none" stroke="midnightblue" d="M820.17,-182.8C813.11,-181.38 805.88,-180.05 799,-179 754.89,-172.27 429.11,-175.94 399,-143 389.7,-132.83 389.57,-122.05 399,-112 421.39,-88.15 892.64,-72.98 1055.34,-68.44"/>
<polygon fill="midnightblue" stroke="midnightblue" points="819.83,-186.3 830.34,-184.93 821.27,-179.45 819.83,-186.3"/>
</g>
<!-- Node27&#45;&gt;Node26 -->
<g id="edge29" class="edge">
<title>Node27&#45;&gt;Node26</title>
<path fill="none" stroke="midnightblue" d="M895.93,-180.95C926.62,-168.08 973.54,-148.4 1000.33,-137.17"/>
<polygon fill="midnightblue" stroke="midnightblue" points="894.45,-177.77 886.58,-184.87 897.16,-184.23 894.45,-177.77"/>
</g>
<!-- Node28 -->
<g id="node26" class="node">
<title>Node28</title>
<g id="a_node26"><a xlink:href="downarrowsvg_8cpp.html" target="_top" xlink:title=" ">
<polygon fill="none" stroke="black" points="598.5,-118 598.5,-137 773.5,-137 773.5,-118 598.5,-118"/>
<text text-anchor="middle" x="686" y="-125" font-family="Helvetica,sans-Serif" font-size="10.00">src/svg&#45;drawings/downarrowsvg.cpp</text>
</a>
</g>
</g>
<!-- Node27&#45;&gt;Node28 -->
<g id="edge30" class="edge">
<title>Node27&#45;&gt;Node28</title>
<path fill="none" stroke="midnightblue" d="M832.59,-181.44C796.88,-168.54 741.17,-148.42 709.71,-137.06"/>
<polygon fill="midnightblue" stroke="midnightblue" points="831.5,-184.76 842.1,-184.87 833.88,-178.18 831.5,-184.76"/>
</g>
<!-- Node29 -->
<g id="node27" class="node">
<title>Node29</title>
<g id="a_node27"><a xlink:href="heartsvg_8cpp.html" target="_top" xlink:title=" ">
<polygon fill="none" stroke="black" points="791.5,-118 791.5,-137 940.5,-137 940.5,-118 791.5,-118"/>
<text text-anchor="middle" x="866" y="-125" font-family="Helvetica,sans-Serif" font-size="10.00">src/svg&#45;drawings/heartsvg.cpp</text>
</a>
</g>
</g>
<!-- Node27&#45;&gt;Node29 -->
<g id="edge31" class="edge">
<title>Node27&#45;&gt;Node29</title>
<path fill="none" stroke="midnightblue" d="M866,-174.54C866,-162.17 866,-146.62 866,-137.13"/>
<polygon fill="midnightblue" stroke="midnightblue" points="862.5,-174.73 866,-184.73 869.5,-174.73 862.5,-174.73"/>
</g>
<!-- Node30 -->
<g id="node28" class="node">
<title>Node30</title>
<g id="a_node28"><a xlink:href="plusminussvg_8cpp.html" target="_top" xlink:title=" ">
<polygon fill="none" stroke="black" points="408,-118 408,-137 580,-137 580,-118 408,-118"/>
<text text-anchor="middle" x="494" y="-125" font-family="Helvetica,sans-Serif" font-size="10.00">src/svg&#45;drawings/plusminussvg.cpp</text>
</a>
</g>
</g>
<!-- Node27&#45;&gt;Node30 -->
<g id="edge32" class="edge">
<title>Node27&#45;&gt;Node30</title>
<path fill="none" stroke="midnightblue" d="M818.17,-182.85C811.74,-181.5 805.21,-180.19 799,-179 712.67,-162.52 611.99,-146.46 550.64,-137.03"/>
<polygon fill="midnightblue" stroke="midnightblue" points="817.64,-186.32 828.15,-184.97 819.1,-179.47 817.64,-186.32"/>
</g>
<!-- Node32&#45;&gt;Node11 -->
<g id="edge39" class="edge">
<title>Node32&#45;&gt;Node11</title>
<path fill="none" stroke="midnightblue" d="M1173.86,-175.2C1158.15,-167.43 1142.14,-156.89 1131,-143 1114.73,-122.71 1111.04,-90.67 1110.22,-75.5"/>
<polygon fill="midnightblue" stroke="midnightblue" points="1172.49,-178.42 1183.03,-179.46 1175.44,-172.07 1172.49,-178.42"/>
</g>
<!-- Node33 -->
<g id="node31" class="node">
<title>Node33</title>
<g id="a_node31"><a xlink:href="mxguirenderer_8h.html" target="_top" xlink:title=" ">
<polygon fill="none" stroke="black" points="1336.5,-118 1336.5,-137 1453.5,-137 1453.5,-118 1336.5,-118"/>
<text text-anchor="middle" x="1395" y="-125" font-family="Helvetica,sans-Serif" font-size="10.00">src/gui/mxguirenderer.h</text>
</a>
</g>
</g>
<!-- Node32&#45;&gt;Node33 -->
<g id="edge35" class="edge">
<title>Node32&#45;&gt;Node33</title>
<path fill="none" stroke="midnightblue" d="M1272.06,-175.78C1304.83,-163.18 1347.4,-146.81 1372.88,-137.01"/>
<polygon fill="midnightblue" stroke="midnightblue" points="1270.75,-172.54 1262.67,-179.4 1273.26,-179.07 1270.75,-172.54"/>
</g>
<!-- Node35 -->
<g id="node33" class="node">
<title>Node35</title>
<g id="a_node33"><a xlink:href="mxvectorprogram_8cpp.html" target="_top" xlink:title=" ">
<polygon fill="none" stroke="black" points="1140,-112.5 1140,-142.5 1318,-142.5 1318,-112.5 1140,-112.5"/>
<text text-anchor="start" x="1148" y="-130.5" font-family="Helvetica,sans-Serif" font-size="10.00">src/renderer/opengl</text>
<text text-anchor="middle" x="1229" y="-119.5" font-family="Helvetica,sans-Serif" font-size="10.00">/vectorprogram/mxvectorprogram.cpp</text>
</a>
</g>
</g>
<!-- Node32&#45;&gt;Node35 -->
<g id="edge40" class="edge">
<title>Node32&#45;&gt;Node35</title>
<path fill="none" stroke="midnightblue" d="M1227.11,-169.4C1227.53,-160.37 1227.99,-150.41 1228.35,-142.58"/>
<polygon fill="midnightblue" stroke="midnightblue" points="1223.62,-169.25 1226.65,-179.4 1230.61,-169.57 1223.62,-169.25"/>
</g>
<!-- Node33&#45;&gt;Node6 -->
<g id="edge36" class="edge">
<title>Node33&#45;&gt;Node6</title>
<path fill="none" stroke="midnightblue" d="M1395,-107.82C1395,-97 1395,-83.9 1395,-75.51"/>
<polygon fill="midnightblue" stroke="midnightblue" points="1391.5,-107.98 1395,-117.98 1398.5,-107.98 1391.5,-107.98"/>
</g>
<!-- Node33&#45;&gt;Node11 -->
<g id="edge38" class="edge">
<title>Node33&#45;&gt;Node11</title>
<path fill="none" stroke="midnightblue" d="M1344.99,-115.8C1338.93,-114.52 1332.83,-113.23 1327,-112 1266,-99.17 1195.31,-84.56 1151.61,-75.56"/>
<polygon fill="midnightblue" stroke="midnightblue" points="1344.59,-119.3 1355.1,-117.95 1346.04,-112.45 1344.59,-119.3"/>
</g>
<!-- Node34 -->
<g id="node32" class="node">
<title>Node34</title>
<g id="a_node32"><a xlink:href="mxguirenderer_8cpp.html" target="_top" xlink:title=" ">
<polygon fill="none" stroke="black" points="1183,-56.5 1183,-75.5 1311,-75.5 1311,-56.5 1183,-56.5"/>
<text text-anchor="middle" x="1247" y="-63.5" font-family="Helvetica,sans-Serif" font-size="10.00">src/gui/mxguirenderer.cpp</text>
</a>
</g>
</g>
<!-- Node33&#45;&gt;Node34 -->
<g id="edge37" class="edge">
<title>Node33&#45;&gt;Node34</title>
<path fill="none" stroke="midnightblue" d="M1364.23,-114.13C1335.48,-102.57 1293.32,-85.62 1268.17,-75.51"/>
<polygon fill="midnightblue" stroke="midnightblue" points="1363.21,-117.49 1373.8,-117.98 1365.82,-111 1363.21,-117.49"/>
</g>
<!-- Node36&#45;&gt;Node3 -->
<g id="edge42" class="edge">
<title>Node36&#45;&gt;Node3</title>
<path fill="none" stroke="midnightblue" d="M403.21,-250.27C479.55,-237.52 608.67,-215.94 679.94,-204.03"/>
<polygon fill="midnightblue" stroke="midnightblue" points="402.54,-246.84 393.25,-251.94 403.7,-253.74 402.54,-246.84"/>
</g>
<!-- Node36&#45;&gt;Node11 -->
<g id="edge43" class="edge">
<title>Node36&#45;&gt;Node11</title>
<path fill="none" stroke="midnightblue" d="M341.56,-241.69C341.95,-209.31 347.94,-143.5 388,-112 440.05,-71.08 896.25,-67.04 1055.46,-66.89"/>
<polygon fill="midnightblue" stroke="midnightblue" points="338.07,-242 341.62,-251.98 345.07,-241.96 338.07,-242"/>
</g>
<!-- Node37 -->
<g id="node35" class="node">
<title>Node37</title>
<g id="a_node35"><a xlink:href="mxabstractatlas_8cpp.html" target="_top" xlink:title=" ">
<polygon fill="none" stroke="black" points="152,-185 152,-204 314,-204 314,-185 152,-185"/>
<text text-anchor="middle" x="233" y="-192" font-family="Helvetica,sans-Serif" font-size="10.00">src/iconatlas/mxabstractatlas.cpp</text>
</a>
</g>
</g>
<!-- Node36&#45;&gt;Node37 -->
<g id="edge44" class="edge">
<title>Node36&#45;&gt;Node37</title>
<path fill="none" stroke="midnightblue" d="M318.43,-246.44C296.84,-233.57 265.58,-214.93 247.47,-204.13"/>
<polygon fill="midnightblue" stroke="midnightblue" points="316.92,-249.62 327.3,-251.73 320.5,-243.61 316.92,-249.62"/>
</g>
<!-- Node38 -->
<g id="node36" class="node">
<title>Node38</title>
<g id="a_node36"><a xlink:href="mxiconatlas_8h.html" target="_top" xlink:title=" ">
<polygon fill="none" stroke="black" points="0,-185 0,-204 134,-204 134,-185 0,-185"/>
<text text-anchor="middle" x="67" y="-192" font-family="Helvetica,sans-Serif" font-size="10.00">src/iconatlas/mxiconatlas.h</text>
</a>
</g>
</g>
<!-- Node36&#45;&gt;Node38 -->
<g id="edge45" class="edge">
<title>Node36&#45;&gt;Node38</title>
<path fill="none" stroke="midnightblue" d="M295.73,-249.56C241.52,-236.75 152.82,-215.78 103.31,-204.08"/>
<polygon fill="midnightblue" stroke="midnightblue" points="295.23,-253.04 305.77,-251.94 296.84,-246.23 295.23,-253.04"/>
</g>
<!-- Node38&#45;&gt;Node10 -->
<g id="edge47" class="edge">
<title>Node38&#45;&gt;Node10</title>
<path fill="none" stroke="midnightblue" d="M65.85,-174.65C65.83,-155.98 68.96,-127.96 86,-112 162.09,-40.73 473.18,-19.49 620.26,-13.37"/>
<polygon fill="midnightblue" stroke="midnightblue" points="62.36,-174.98 66.18,-184.86 69.36,-174.76 62.36,-174.98"/>
</g>
<!-- Node39 -->
<g id="node37" class="node">
<title>Node39</title>
<g id="a_node37"><a xlink:href="mxiconatlas_8cpp.html" target="_top" xlink:title=" ">
<polygon fill="none" stroke="black" points="95.5,-118 95.5,-137 240.5,-137 240.5,-118 95.5,-118"/>
<text text-anchor="middle" x="168" y="-125" font-family="Helvetica,sans-Serif" font-size="10.00">src/iconatlas/mxiconatlas.cpp</text>
</a>
</g>
</g>
<!-- Node38&#45;&gt;Node39 -->
<g id="edge46" class="edge">
<title>Node38&#45;&gt;Node39</title>
<path fill="none" stroke="midnightblue" d="M89.11,-179.27C109.11,-166.4 137.89,-147.88 154.59,-137.13"/>
<polygon fill="midnightblue" stroke="midnightblue" points="87.14,-176.38 80.62,-184.73 90.92,-182.27 87.14,-176.38"/>
</g>
<!-- Node41 -->
<g id="node39" class="node">
<title>Node41</title>
<g id="a_node39"><a xlink:href="mxcolorwheelprogram_8cpp.html" target="_top" xlink:title=" ">
<polygon fill="none" stroke="black" points="2658.5,-179.5 2658.5,-209.5 2875.5,-209.5 2875.5,-179.5 2658.5,-179.5"/>
<text text-anchor="start" x="2666.5" y="-197.5" font-family="Helvetica,sans-Serif" font-size="10.00">src/renderer/opengl</text>
<text text-anchor="middle" x="2767" y="-186.5" font-family="Helvetica,sans-Serif" font-size="10.00">/colorwheelprogram/mxcolorwheelprogram.cpp</text>
</a>
</g>
</g>
<!-- Node40&#45;&gt;Node41 -->
<g id="edge49" class="edge">
<title>Node40&#45;&gt;Node41</title>
<path fill="none" stroke="midnightblue" d="M2765.11,-236.4C2765.53,-227.37 2765.99,-217.41 2766.35,-209.58"/>
<polygon fill="midnightblue" stroke="midnightblue" points="2761.62,-236.25 2764.65,-246.4 2768.61,-236.57 2761.62,-236.25"/>
</g>
<!-- Node42&#45;&gt;Node19 -->
<g id="edge53" class="edge">
<title>Node42&#45;&gt;Node19</title>
<path fill="none" stroke="midnightblue" d="M1825.42,-241.02C1809.55,-230.9 1790.52,-218.77 1776.09,-209.58"/>
<polygon fill="midnightblue" stroke="midnightblue" points="1823.55,-243.97 1833.87,-246.4 1827.32,-238.07 1823.55,-243.97"/>
</g>
<!-- Node42&#45;&gt;Node33 -->
<g id="edge52" class="edge">
<title>Node42&#45;&gt;Node33</title>
<path fill="none" stroke="midnightblue" d="M1859.31,-236.33C1860.35,-217.91 1858.29,-193.34 1843,-179 1781.14,-120.96 1546.84,-155.87 1463,-143 1452.62,-141.41 1441.44,-139.22 1431.21,-137.03"/>
<polygon fill="midnightblue" stroke="midnightblue" points="1855.82,-236.07 1858.41,-246.34 1862.79,-236.69 1855.82,-236.07"/>
</g>
<!-- Node44&#45;&gt;Node45 -->
<g id="edge56" class="edge">
<title>Node44&#45;&gt;Node45</title>
<path fill="none" stroke="midnightblue" d="M2045.33,-246.27C2065.52,-233.4 2094.59,-214.88 2111.46,-204.13"/>
<polygon fill="midnightblue" stroke="midnightblue" points="2043.31,-243.41 2036.76,-251.73 2047.07,-249.31 2043.31,-243.41"/>
</g>
<!-- Node45&#45;&gt;Node7 -->
<g id="edge57" class="edge">
<title>Node45&#45;&gt;Node7</title>
<path fill="none" stroke="midnightblue" d="M2194.93,-185.3C2246.9,-177.59 2311.54,-164.06 2328,-143 2340.08,-127.54 2324.42,-61.64 2318,-56 2286.96,-28.71 1616.25,-22.43 1575,-20 1556.03,-18.88 1535.51,-17.53 1516.5,-16.22"/>
<polygon fill="midnightblue" stroke="midnightblue" points="2194.12,-181.88 2184.72,-186.76 2195.11,-188.81 2194.12,-181.88"/>
</g>
<!-- Node45&#45;&gt;Node12 -->
<g id="edge63" class="edge">
<title>Node45&#45;&gt;Node12</title>
<path fill="none" stroke="midnightblue" d="M2054.84,-188.58C1952.3,-180.73 1771.27,-164.06 1750,-143 1731.91,-125.08 1734.69,-91.6 1737.27,-75.75"/>
<polygon fill="midnightblue" stroke="midnightblue" points="2054.89,-192.1 2065.12,-189.36 2055.42,-185.12 2054.89,-192.1"/>
</g>
<!-- Node46 -->
<g id="node44" class="node">
<title>Node46</title>
<g id="a_node44"><a xlink:href="mxmouseevent_8cpp.html" target="_top" xlink:title=" ">
<polygon fill="none" stroke="black" points="1759.5,-118 1759.5,-137 1908.5,-137 1908.5,-118 1759.5,-118"/>
<text text-anchor="middle" x="1834" y="-125" font-family="Helvetica,sans-Serif" font-size="10.00">src/events/mxmouseevent.cpp</text>
</a>
</g>
</g>
<!-- Node45&#45;&gt;Node46 -->
<g id="edge58" class="edge">
<title>Node45&#45;&gt;Node46</title>
<path fill="none" stroke="midnightblue" d="M2076.75,-182.72C2019.45,-169.92 1925.03,-148.83 1872.43,-137.08"/>
<polygon fill="midnightblue" stroke="midnightblue" points="2076.14,-186.17 2086.66,-184.94 2077.66,-179.34 2076.14,-186.17"/>
</g>
<!-- Node47 -->
<g id="node45" class="node">
<title>Node47</title>
<g id="a_node45"><a xlink:href="mxbutton_8h.html" target="_top" xlink:title=" ">
<polygon fill="none" stroke="black" points="2375.5,-118 2375.5,-137 2492.5,-137 2492.5,-118 2375.5,-118"/>
<text text-anchor="middle" x="2434" y="-125" font-family="Helvetica,sans-Serif" font-size="10.00">src/widgets/mxbutton.h</text>
</a>
</g>
</g>
<!-- Node45&#45;&gt;Node47 -->
<g id="edge59" class="edge">
<title>Node45&#45;&gt;Node47</title>
<path fill="none" stroke="midnightblue" d="M2175.85,-182.8C2236.66,-170.01 2337.22,-148.86 2393.2,-137.08"/>
<polygon fill="midnightblue" stroke="midnightblue" points="2174.78,-179.45 2165.71,-184.94 2176.22,-186.3 2174.78,-179.45"/>
</g>
<!-- Node49 -->
<g id="node47" class="node">
<title>Node49</title>
<g id="a_node47"><a xlink:href="mxlayout_8h.html" target="_top" xlink:title=" ">
<polygon fill="none" stroke="red" points="2203,-118 2203,-137 2319,-137 2319,-118 2203,-118"/>
<text text-anchor="middle" x="2261" y="-125" font-family="Helvetica,sans-Serif" font-size="10.00">src/widgets/mxlayout.h</text>
</a>
</g>
</g>
<!-- Node45&#45;&gt;Node49 -->
<g id="edge64" class="edge">
<title>Node45&#45;&gt;Node49</title>
<path fill="none" stroke="midnightblue" d="M2152.32,-180.44C2179.26,-167.57 2219.66,-148.26 2242.87,-137.17"/>
<polygon fill="midnightblue" stroke="midnightblue" points="2150.57,-177.4 2143.06,-184.87 2153.59,-183.71 2150.57,-177.4"/>
</g>
<!-- Node51 -->
<g id="node48" class="node">
<title>Node51</title>
<g id="a_node48"><a xlink:href="mxlineedit_8h.html" target="_top" xlink:title=" ">
<polygon fill="none" stroke="black" points="1926.5,-118 1926.5,-137 2047.5,-137 2047.5,-118 1926.5,-118"/>
<text text-anchor="middle" x="1987" y="-125" font-family="Helvetica,sans-Serif" font-size="10.00">src/widgets/mxlineedit.h</text>
</a>
</g>
</g>
<!-- Node45&#45;&gt;Node51 -->
<g id="edge66" class="edge">
<title>Node45&#45;&gt;Node51</title>
<path fill="none" stroke="midnightblue" d="M2097.28,-180.44C2069.95,-167.57 2028.95,-148.26 2005.4,-137.17"/>
<polygon fill="midnightblue" stroke="midnightblue" points="2096.14,-183.77 2106.67,-184.87 2099.12,-177.44 2096.14,-183.77"/>
</g>
<!-- Node52 -->
<g id="node49" class="node">
<title>Node52</title>
<g id="a_node49"><a xlink:href="mxspacer_8h.html" target="_top" xlink:title=" ">
<polygon fill="none" stroke="black" points="2065.5,-118 2065.5,-137 2184.5,-137 2184.5,-118 2065.5,-118"/>
<text text-anchor="middle" x="2125" y="-125" font-family="Helvetica,sans-Serif" font-size="10.00">src/widgets/mxspacer.h</text>
</a>
</g>
</g>
<!-- Node45&#45;&gt;Node52 -->
<g id="edge68" class="edge">
<title>Node45&#45;&gt;Node52</title>
<path fill="none" stroke="midnightblue" d="M2125,-174.54C2125,-162.17 2125,-146.62 2125,-137.13"/>
<polygon fill="midnightblue" stroke="midnightblue" points="2121.5,-174.73 2125,-184.73 2128.5,-174.73 2121.5,-174.73"/>
</g>
<!-- Node53 -->
<g id="node50" class="node">
<title>Node53</title>
<g id="a_node50"><a xlink:href="mxwidget_8cpp.html" target="_top" xlink:title=" ">
<polygon fill="none" stroke="black" points="2510.5,-118 2510.5,-137 2639.5,-137 2639.5,-118 2510.5,-118"/>
<text text-anchor="middle" x="2575" y="-125" font-family="Helvetica,sans-Serif" font-size="10.00">src/widgets/mxwidget.cpp</text>
</a>
</g>
</g>
<!-- Node45&#45;&gt;Node53 -->
<g id="edge70" class="edge">
<title>Node45&#45;&gt;Node53</title>
<path fill="none" stroke="midnightblue" d="M2195.1,-185.36C2270.76,-176.28 2394.71,-160.53 2501,-143 2511.59,-141.25 2522.99,-139.14 2533.59,-137.07"/>
<polygon fill="midnightblue" stroke="midnightblue" points="2194.26,-181.93 2184.75,-186.6 2195.1,-188.89 2194.26,-181.93"/>
</g>
<!-- Node47&#45;&gt;Node43 -->
<g id="edge60" class="edge">
<title>Node47&#45;&gt;Node43</title>
<path fill="none" stroke="midnightblue" d="M2471.6,-115.03C2509.49,-103.46 2567.11,-85.88 2601.11,-75.51"/>
<polygon fill="midnightblue" stroke="midnightblue" points="2470.48,-111.71 2461.94,-117.98 2472.52,-118.4 2470.48,-111.71"/>
</g>
<!-- Node48 -->
<g id="node46" class="node">
<title>Node48</title>
<g id="a_node46"><a xlink:href="mxtextbutton_8h.html" target="_top" xlink:title=" ">
<polygon fill="none" stroke="black" points="2375.5,-56.5 2375.5,-75.5 2508.5,-75.5 2508.5,-56.5 2375.5,-56.5"/>
<text text-anchor="middle" x="2442" y="-63.5" font-family="Helvetica,sans-Serif" font-size="10.00">src/widgets/mxtextbutton.h</text>
</a>
</g>
</g>
<!-- Node47&#45;&gt;Node48 -->
<g id="edge61" class="edge">
<title>Node47&#45;&gt;Node48</title>
<path fill="none" stroke="midnightblue" d="M2436.51,-107.82C2437.97,-97 2439.73,-83.9 2440.86,-75.51"/>
<polygon fill="midnightblue" stroke="midnightblue" points="2433.01,-107.6 2435.15,-117.98 2439.95,-108.53 2433.01,-107.6"/>
</g>
<!-- Node48&#45;&gt;Node18 -->
<g id="edge62" class="edge">
<title>Node48&#45;&gt;Node18</title>
<path fill="none" stroke="midnightblue" d="M2364.96,-56.34C2363.63,-56.22 2362.31,-56.11 2361,-56 2083.75,-32.63 2013.24,-43.56 1736,-20 1733.21,-19.76 1730.38,-19.51 1727.51,-19.24"/>
<polygon fill="midnightblue" stroke="midnightblue" points="2365,-59.86 2375.28,-57.3 2365.65,-52.89 2365,-59.86"/>
</g>
<!-- Node49&#45;&gt;Node14 -->
<g id="edge65" class="edge">
<title>Node49&#45;&gt;Node14</title>
<path fill="none" stroke="midnightblue" d="M2256.38,-108.16C2253.63,-97.27 2250.28,-83.99 2248.15,-75.51"/>
<polygon fill="midnightblue" stroke="midnightblue" points="2253.01,-109.13 2258.85,-117.98 2259.8,-107.42 2253.01,-109.13"/>
</g>
<!-- Node51&#45;&gt;Node16 -->
<g id="edge67" class="edge">
<title>Node51&#45;&gt;Node16</title>
<path fill="none" stroke="midnightblue" d="M1964.34,-112.74C1945.41,-101.25 1919.01,-85.22 1903.01,-75.51"/>
<polygon fill="midnightblue" stroke="midnightblue" points="1962.59,-115.78 1972.96,-117.98 1966.23,-109.79 1962.59,-115.78"/>
</g>
<!-- Node52&#45;&gt;Node17 -->
<g id="edge69" class="edge">
<title>Node52&#45;&gt;Node17</title>
<path fill="none" stroke="midnightblue" d="M2112.12,-109.84C2103.48,-98.67 2092.47,-84.43 2085.58,-75.51"/>
<polygon fill="midnightblue" stroke="midnightblue" points="2109.52,-112.2 2118.41,-117.98 2115.06,-107.92 2109.52,-112.2"/>
</g>
</g>
</svg>
