<?xml version="1.0" encoding="UTF-8" standalone="no"?>
<!DOCTYPE svg PUBLIC "-//W3C//DTD SVG 1.1//EN"
 "http://www.w3.org/Graphics/SVG/1.1/DTD/svg11.dtd">
<!-- Generated by graphviz version 2.44.0 ()
 -->
<!-- Title: src/renderer/opengl/mxrenderer.h Pages: 1 -->
<svg width="1940pt" height="274pt"
 viewBox="0.00 0.00 1939.50 274.00" xmlns="http://www.w3.org/2000/svg" xmlns:xlink="http://www.w3.org/1999/xlink">
<g id="graph0" class="graph" transform="scale(1 1) rotate(0) translate(4 270)">
<title>src/renderer/opengl/mxrenderer.h</title>
<!-- Node1 -->
<g id="node1" class="node">
<title>Node1</title>
<g id="a_node1"><a xlink:title=" ">
<polygon fill="#bfbfbf" stroke="black" points="1027.5,-235.5 1027.5,-265.5 1127.5,-265.5 1127.5,-235.5 1027.5,-235.5"/>
<text text-anchor="start" x="1035.5" y="-253.5" font-family="Helvetica,sans-Serif" font-size="10.00">src/renderer/opengl</text>
<text text-anchor="middle" x="1077.5" y="-242.5" font-family="Helvetica,sans-Serif" font-size="10.00">/mxrenderer.h</text>
</a>
</g>
</g>
<!-- Node2 -->
<g id="node2" class="node">
<title>Node2</title>
<g id="a_node2"><a xlink:href="mxstaticfont__image_8cpp.html" target="_top" xlink:title=" ">
<polygon fill="none" stroke="black" points="154.5,-168.5 154.5,-198.5 276.5,-198.5 276.5,-168.5 154.5,-168.5"/>
<text text-anchor="start" x="162.5" y="-186.5" font-family="Helvetica,sans-Serif" font-size="10.00">src/font/staticfont</text>
<text text-anchor="middle" x="215.5" y="-175.5" font-family="Helvetica,sans-Serif" font-size="10.00">/mxstaticfont_image.cpp</text>
</a>
</g>
</g>
<!-- Node1&#45;&gt;Node2 -->
<g id="edge1" class="edge">
<title>Node1&#45;&gt;Node2</title>
<path fill="none" stroke="midnightblue" d="M1016.85,-248.54C883.83,-245.78 556.71,-235.55 285.5,-199 282.67,-198.62 279.79,-198.19 276.88,-197.72"/>
<polygon fill="midnightblue" stroke="midnightblue" points="1017.15,-252.04 1027.22,-248.74 1017.29,-245.04 1017.15,-252.04"/>
</g>
<!-- Node3 -->
<g id="node3" class="node">
<title>Node3</title>
<g id="a_node3"><a xlink:href="mxguirenderer_8h.html" target="_top" xlink:title=" ">
<polygon fill="none" stroke="black" points="295,-174 295,-193 412,-193 412,-174 295,-174"/>
<text text-anchor="middle" x="353.5" y="-181" font-family="Helvetica,sans-Serif" font-size="10.00">src/gui/mxguirenderer.h</text>
</a>
</g>
</g>
<!-- Node1&#45;&gt;Node3 -->
<g id="edge2" class="edge">
<title>Node1&#45;&gt;Node3</title>
<path fill="none" stroke="midnightblue" d="M1017.28,-247.62C901.26,-243.39 638.89,-230.87 420.5,-199 410.02,-197.47 398.73,-195.25 388.46,-193.01"/>
<polygon fill="midnightblue" stroke="midnightblue" points="1017.26,-251.12 1027.38,-247.98 1017.51,-244.12 1017.26,-251.12"/>
</g>
<!-- Node11 -->
<g id="node11" class="node">
<title>Node11</title>
<g id="a_node11"><a xlink:href="mxicondraw_8cpp.html" target="_top" xlink:title=" ">
<polygon fill="none" stroke="black" points="430,-174 430,-193 549,-193 549,-174 430,-174"/>
<text text-anchor="middle" x="489.5" y="-181" font-family="Helvetica,sans-Serif" font-size="10.00">src/gui/mxicondraw.cpp</text>
</a>
</g>
</g>
<!-- Node1&#45;&gt;Node11 -->
<g id="edge11" class="edge">
<title>Node1&#45;&gt;Node11</title>
<path fill="none" stroke="midnightblue" d="M1016.96,-245.78C919.84,-239.33 723.41,-224.27 558.5,-199 547.97,-197.39 536.63,-195.2 526.25,-193.01"/>
<polygon fill="midnightblue" stroke="midnightblue" points="1016.96,-249.29 1027.17,-246.45 1017.42,-242.3 1016.96,-249.29"/>
</g>
<!-- Node12 -->
<g id="node12" class="node">
<title>Node12</title>
<g id="a_node12"><a xlink:href="mxvectordraw_8cpp.html" target="_top" xlink:title=" ">
<polygon fill="none" stroke="black" points="567.5,-174 567.5,-193 695.5,-193 695.5,-174 567.5,-174"/>
<text text-anchor="middle" x="631.5" y="-181" font-family="Helvetica,sans-Serif" font-size="10.00">src/gui/mxvectordraw.cpp</text>
</a>
</g>
</g>
<!-- Node1&#45;&gt;Node12 -->
<g id="edge12" class="edge">
<title>Node1&#45;&gt;Node12</title>
<path fill="none" stroke="midnightblue" d="M1017.22,-242.5C943.34,-233.65 814.39,-217.33 704.5,-199 694.05,-197.26 682.8,-195.14 672.34,-193.07"/>
<polygon fill="midnightblue" stroke="midnightblue" points="1016.93,-245.99 1027.28,-243.7 1017.76,-239.04 1016.93,-245.99"/>
</g>
<!-- Node13 -->
<g id="node13" class="node">
<title>Node13</title>
<g id="a_node13"><a xlink:href="mxiconatlas_8h.html" target="_top" xlink:title=" ">
<polygon fill="none" stroke="black" points="713.5,-174 713.5,-193 847.5,-193 847.5,-174 713.5,-174"/>
<text text-anchor="middle" x="780.5" y="-181" font-family="Helvetica,sans-Serif" font-size="10.00">src/iconatlas/mxiconatlas.h</text>
</a>
</g>
</g>
<!-- Node1&#45;&gt;Node13 -->
<g id="edge13" class="edge">
<title>Node1&#45;&gt;Node13</title>
<path fill="none" stroke="midnightblue" d="M1017.5,-236.37C958.39,-223.43 869.82,-204.05 819.37,-193.01"/>
<polygon fill="midnightblue" stroke="midnightblue" points="1016.94,-239.83 1027.45,-238.55 1018.43,-232.99 1016.94,-239.83"/>
</g>
<!-- Node15 -->
<g id="node15" class="node">
<title>Node15</title>
<g id="a_node15"><a xlink:href="mxcolorwheelprogram_8cpp.html" target="_top" xlink:title=" ">
<polygon fill="none" stroke="black" points="866,-168.5 866,-198.5 1083,-198.5 1083,-168.5 866,-168.5"/>
<text text-anchor="start" x="874" y="-186.5" font-family="Helvetica,sans-Serif" font-size="10.00">src/renderer/opengl</text>
<text text-anchor="middle" x="974.5" y="-175.5" font-family="Helvetica,sans-Serif" font-size="10.00">/colorwheelprogram/mxcolorwheelprogram.cpp</text>
</a>
</g>
</g>
<!-- Node1&#45;&gt;Node15 -->
<g id="edge16" class="edge">
<title>Node1&#45;&gt;Node15</title>
<path fill="none" stroke="midnightblue" d="M1046.62,-230.02C1030.6,-219.9 1011.37,-207.77 996.81,-198.58"/>
<polygon fill="midnightblue" stroke="midnightblue" points="1044.83,-233.02 1055.15,-235.4 1048.56,-227.1 1044.83,-233.02"/>
</g>
<!-- Node16 -->
<g id="node16" class="node">
<title>Node16</title>
<g id="a_node16"><a xlink:href="mxiconprogram_8cpp.html" target="_top" xlink:title=" ">
<polygon fill="none" stroke="black" points="1101.5,-168.5 1101.5,-198.5 1261.5,-198.5 1261.5,-168.5 1101.5,-168.5"/>
<text text-anchor="start" x="1109.5" y="-186.5" font-family="Helvetica,sans-Serif" font-size="10.00">src/renderer/opengl</text>
<text text-anchor="middle" x="1181.5" y="-175.5" font-family="Helvetica,sans-Serif" font-size="10.00">/iconprogram/mxiconprogram.cpp</text>
</a>
</g>
</g>
<!-- Node1&#45;&gt;Node16 -->
<g id="edge17" class="edge">
<title>Node1&#45;&gt;Node16</title>
<path fill="none" stroke="midnightblue" d="M1108.68,-230.02C1124.86,-219.9 1144.27,-207.77 1158.98,-198.58"/>
<polygon fill="midnightblue" stroke="midnightblue" points="1106.69,-227.13 1100.07,-235.4 1110.4,-233.06 1106.69,-227.13"/>
</g>
<!-- Node17 -->
<g id="node17" class="node">
<title>Node17</title>
<g id="a_node17"><a xlink:href="mxgpuarray_8cpp.html" target="_top" xlink:title=" ">
<polygon fill="none" stroke="black" points="1279.5,-168.5 1279.5,-198.5 1379.5,-198.5 1379.5,-168.5 1279.5,-168.5"/>
<text text-anchor="start" x="1287.5" y="-186.5" font-family="Helvetica,sans-Serif" font-size="10.00">src/renderer/opengl</text>
<text text-anchor="middle" x="1329.5" y="-175.5" font-family="Helvetica,sans-Serif" font-size="10.00">/mxgpuarray.cpp</text>
</a>
</g>
</g>
<!-- Node1&#45;&gt;Node17 -->
<g id="edge18" class="edge">
<title>Node1&#45;&gt;Node17</title>
<path fill="none" stroke="midnightblue" d="M1137.4,-234.05C1180.59,-222.91 1238.23,-208.04 1279.08,-197.51"/>
<polygon fill="midnightblue" stroke="midnightblue" points="1136.4,-230.69 1127.59,-236.58 1138.15,-237.47 1136.4,-230.69"/>
</g>
<!-- Node18 -->
<g id="node18" class="node">
<title>Node18</title>
<g id="a_node18"><a xlink:href="mxgpuprogram_8cpp.html" target="_top" xlink:title=" ">
<polygon fill="none" stroke="black" points="1398,-168.5 1398,-198.5 1499,-198.5 1499,-168.5 1398,-168.5"/>
<text text-anchor="start" x="1406" y="-186.5" font-family="Helvetica,sans-Serif" font-size="10.00">src/renderer/opengl</text>
<text text-anchor="middle" x="1448.5" y="-175.5" font-family="Helvetica,sans-Serif" font-size="10.00">/mxgpuprogram.cpp</text>
</a>
</g>
</g>
<!-- Node1&#45;&gt;Node18 -->
<g id="edge19" class="edge">
<title>Node1&#45;&gt;Node18</title>
<path fill="none" stroke="midnightblue" d="M1137.66,-241.12C1200.49,-232.04 1301.77,-216.49 1388.5,-199 1391.55,-198.39 1394.67,-197.72 1397.82,-197.03"/>
<polygon fill="midnightblue" stroke="midnightblue" points="1136.94,-237.69 1127.54,-242.57 1137.93,-244.62 1136.94,-237.69"/>
</g>
<!-- Node19 -->
<g id="node19" class="node">
<title>Node19</title>
<g id="a_node19"><a xlink:href="mxrenderer_8cpp.html" target="_top" xlink:title=" ">
<polygon fill="none" stroke="black" points="1517.5,-168.5 1517.5,-198.5 1617.5,-198.5 1617.5,-168.5 1517.5,-168.5"/>
<text text-anchor="start" x="1525.5" y="-186.5" font-family="Helvetica,sans-Serif" font-size="10.00">src/renderer/opengl</text>
<text text-anchor="middle" x="1567.5" y="-175.5" font-family="Helvetica,sans-Serif" font-size="10.00">/mxrenderer.cpp</text>
</a>
</g>
</g>
<!-- Node1&#45;&gt;Node19 -->
<g id="edge20" class="edge">
<title>Node1&#45;&gt;Node19</title>
<path fill="none" stroke="midnightblue" d="M1137.65,-244.83C1221.28,-237.8 1377.19,-222.73 1508.5,-199 1511.41,-198.47 1514.38,-197.89 1517.38,-197.27"/>
<polygon fill="midnightblue" stroke="midnightblue" points="1137.25,-241.35 1127.57,-245.67 1137.83,-248.33 1137.25,-241.35"/>
</g>
<!-- Node20 -->
<g id="node20" class="node">
<title>Node20</title>
<g id="a_node20"><a xlink:href="mxtexture_8cpp.html" target="_top" xlink:title=" ">
<polygon fill="none" stroke="black" points="1635.5,-168.5 1635.5,-198.5 1735.5,-198.5 1735.5,-168.5 1635.5,-168.5"/>
<text text-anchor="start" x="1643.5" y="-186.5" font-family="Helvetica,sans-Serif" font-size="10.00">src/renderer/opengl</text>
<text text-anchor="middle" x="1685.5" y="-175.5" font-family="Helvetica,sans-Serif" font-size="10.00">/mxtexture.cpp</text>
</a>
</g>
</g>
<!-- Node1&#45;&gt;Node20 -->
<g id="edge21" class="edge">
<title>Node1&#45;&gt;Node20</title>
<path fill="none" stroke="midnightblue" d="M1137.84,-246.9C1239.33,-241.86 1450.37,-228.57 1626.5,-199 1629.41,-198.51 1632.39,-197.96 1635.39,-197.35"/>
<polygon fill="midnightblue" stroke="midnightblue" points="1137.6,-243.41 1127.78,-247.39 1137.94,-250.4 1137.6,-243.41"/>
</g>
<!-- Node21 -->
<g id="node21" class="node">
<title>Node21</title>
<g id="a_node21"><a xlink:href="mxvectorprogram_8cpp.html" target="_top" xlink:title=" ">
<polygon fill="none" stroke="black" points="1753.5,-168.5 1753.5,-198.5 1931.5,-198.5 1931.5,-168.5 1753.5,-168.5"/>
<text text-anchor="start" x="1761.5" y="-186.5" font-family="Helvetica,sans-Serif" font-size="10.00">src/renderer/opengl</text>
<text text-anchor="middle" x="1842.5" y="-175.5" font-family="Helvetica,sans-Serif" font-size="10.00">/vectorprogram/mxvectorprogram.cpp</text>
</a>
</g>
</g>
<!-- Node1&#45;&gt;Node21 -->
<g id="edge22" class="edge">
<title>Node1&#45;&gt;Node21</title>
<path fill="none" stroke="midnightblue" d="M1138.02,-246.37C1255.29,-239.98 1521.56,-223.9 1744.5,-199 1747.41,-198.68 1750.36,-198.33 1753.34,-197.97"/>
<polygon fill="midnightblue" stroke="midnightblue" points="1137.61,-242.88 1127.82,-246.92 1137.99,-249.87 1137.61,-242.88"/>
</g>
<!-- Node4 -->
<g id="node4" class="node">
<title>Node4</title>
<g id="a_node4"><a xlink:href="mxapplication_8h.html" target="_top" xlink:title=" ">
<polygon fill="none" stroke="black" points="166.5,-112.5 166.5,-131.5 298.5,-131.5 298.5,-112.5 166.5,-112.5"/>
<text text-anchor="middle" x="232.5" y="-119.5" font-family="Helvetica,sans-Serif" font-size="10.00">src/events/mxapplication.h</text>
</a>
</g>
</g>
<!-- Node3&#45;&gt;Node4 -->
<g id="edge3" class="edge">
<title>Node3&#45;&gt;Node4</title>
<path fill="none" stroke="midnightblue" d="M327.11,-169.52C303.64,-157.98 270.01,-141.44 249.8,-131.51"/>
<polygon fill="midnightblue" stroke="midnightblue" points="325.65,-172.7 336.16,-173.98 328.73,-166.42 325.65,-172.7"/>
</g>
<!-- Node9 -->
<g id="node9" class="node">
<title>Node9</title>
<g id="a_node9"><a xlink:href="mxguirenderer_8cpp.html" target="_top" xlink:title=" ">
<polygon fill="none" stroke="black" points="316.5,-112.5 316.5,-131.5 444.5,-131.5 444.5,-112.5 316.5,-112.5"/>
<text text-anchor="middle" x="380.5" y="-119.5" font-family="Helvetica,sans-Serif" font-size="10.00">src/gui/mxguirenderer.cpp</text>
</a>
</g>
</g>
<!-- Node3&#45;&gt;Node9 -->
<g id="edge9" class="edge">
<title>Node3&#45;&gt;Node9</title>
<path fill="none" stroke="midnightblue" d="M361.52,-164.83C366.51,-153.83 372.71,-140.16 376.64,-131.51"/>
<polygon fill="midnightblue" stroke="midnightblue" points="358.31,-163.42 357.37,-173.98 364.69,-166.32 358.31,-163.42"/>
</g>
<!-- Node10 -->
<g id="node10" class="node">
<title>Node10</title>
<g id="a_node10"><a xlink:href="mxpainter_8cpp.html" target="_top" xlink:title=" ">
<polygon fill="none" stroke="black" points="463,-112.5 463,-131.5 572,-131.5 572,-112.5 463,-112.5"/>
<text text-anchor="middle" x="517.5" y="-119.5" font-family="Helvetica,sans-Serif" font-size="10.00">src/gui/mxpainter.cpp</text>
</a>
</g>
</g>
<!-- Node3&#45;&gt;Node10 -->
<g id="edge10" class="edge">
<title>Node3&#45;&gt;Node10</title>
<path fill="none" stroke="midnightblue" d="M386.76,-170.43C418.64,-158.87 465.93,-141.71 494.05,-131.51"/>
<polygon fill="midnightblue" stroke="midnightblue" points="385.2,-167.27 377,-173.98 387.59,-173.85 385.2,-167.27"/>
</g>
<!-- Node5 -->
<g id="node5" class="node">
<title>Node5</title>
<g id="a_node5"><a xlink:href="mxapplication_8cpp.html" target="_top" xlink:title=" ">
<polygon fill="none" stroke="black" points="0,-56.5 0,-75.5 143,-75.5 143,-56.5 0,-56.5"/>
<text text-anchor="middle" x="71.5" y="-63.5" font-family="Helvetica,sans-Serif" font-size="10.00">src/events/mxapplication.cpp</text>
</a>
</g>
</g>
<!-- Node4&#45;&gt;Node5 -->
<g id="edge4" class="edge">
<title>Node4&#45;&gt;Node5</title>
<path fill="none" stroke="midnightblue" d="M197.24,-109.17C166.92,-99 123.93,-84.59 96.89,-75.52"/>
<polygon fill="midnightblue" stroke="midnightblue" points="196.4,-112.58 206.99,-112.44 198.62,-105.95 196.4,-112.58"/>
</g>
<!-- Node6 -->
<g id="node6" class="node">
<title>Node6</title>
<g id="a_node6"><a xlink:href="mxguiaggregation_8cpp.html" target="_top" xlink:title=" ">
<polygon fill="none" stroke="black" points="161,-56.5 161,-75.5 304,-75.5 304,-56.5 161,-56.5"/>
<text text-anchor="middle" x="232.5" y="-63.5" font-family="Helvetica,sans-Serif" font-size="10.00">src/gui/mxguiaggregation.cpp</text>
</a>
</g>
</g>
<!-- Node4&#45;&gt;Node6 -->
<g id="edge5" class="edge">
<title>Node4&#45;&gt;Node6</title>
<path fill="none" stroke="midnightblue" d="M232.5,-101.8C232.5,-92.91 232.5,-82.78 232.5,-75.75"/>
<polygon fill="midnightblue" stroke="midnightblue" points="229,-102.08 232.5,-112.08 236,-102.08 229,-102.08"/>
</g>
<!-- Node7 -->
<g id="node7" class="node">
<title>Node7</title>
<g id="a_node7"><a xlink:href="qmewawindow_8cpp.html" target="_top" xlink:title=" ">
<polygon fill="none" stroke="black" points="303,-0.5 303,-19.5 468,-19.5 468,-0.5 303,-0.5"/>
<text text-anchor="middle" x="385.5" y="-7.5" font-family="Helvetica,sans-Serif" font-size="10.00">src/platform/qt/qmewawindow.cpp</text>
</a>
</g>
</g>
<!-- Node4&#45;&gt;Node7 -->
<g id="edge6" class="edge">
<title>Node4&#45;&gt;Node7</title>
<path fill="none" stroke="midnightblue" d="M259.61,-107.62C275.53,-99.31 295.74,-87.96 312.5,-76 337.64,-58.06 363.93,-32.77 377.03,-19.66"/>
<polygon fill="midnightblue" stroke="midnightblue" points="257.63,-104.7 250.32,-112.38 260.82,-110.93 257.63,-104.7"/>
</g>
<!-- Node8 -->
<g id="node8" class="node">
<title>Node8</title>
<g id="a_node8"><a xlink:href="qmewawindow_8h.html" target="_top" xlink:title=" ">
<polygon fill="none" stroke="black" points="361,-56.5 361,-75.5 516,-75.5 516,-56.5 361,-56.5"/>
<text text-anchor="middle" x="438.5" y="-63.5" font-family="Helvetica,sans-Serif" font-size="10.00">src/platform/qt/qmewawindow.h</text>
</a>
</g>
</g>
<!-- Node4&#45;&gt;Node8 -->
<g id="edge7" class="edge">
<title>Node4&#45;&gt;Node8</title>
<path fill="none" stroke="midnightblue" d="M275.12,-109.83C314.01,-99.63 370.66,-84.78 406.01,-75.52"/>
<polygon fill="midnightblue" stroke="midnightblue" points="273.93,-106.52 265.14,-112.44 275.7,-113.29 273.93,-106.52"/>
</g>
<!-- Node8&#45;&gt;Node7 -->
<g id="edge8" class="edge">
<title>Node8&#45;&gt;Node7</title>
<path fill="none" stroke="midnightblue" d="M422.52,-48.72C413.18,-39.2 401.75,-27.56 394.09,-19.75"/>
<polygon fill="midnightblue" stroke="midnightblue" points="420.25,-51.4 429.75,-56.08 425.24,-46.49 420.25,-51.4"/>
</g>
<!-- Node13&#45;&gt;Node8 -->
<g id="edge15" class="edge">
<title>Node13&#45;&gt;Node8</title>
<path fill="none" stroke="midnightblue" d="M747.46,-170.49C707.9,-156.19 639.56,-131.76 580.5,-112 541.02,-98.79 495.03,-84.4 466.34,-75.53"/>
<polygon fill="midnightblue" stroke="midnightblue" points="746.28,-173.79 756.88,-173.9 748.67,-167.2 746.28,-173.79"/>
</g>
<!-- Node14 -->
<g id="node14" class="node">
<title>Node14</title>
<g id="a_node14"><a xlink:href="mxiconatlas_8cpp.html" target="_top" xlink:title=" ">
<polygon fill="none" stroke="black" points="708,-112.5 708,-131.5 853,-131.5 853,-112.5 708,-112.5"/>
<text text-anchor="middle" x="780.5" y="-119.5" font-family="Helvetica,sans-Serif" font-size="10.00">src/iconatlas/mxiconatlas.cpp</text>
</a>
</g>
</g>
<!-- Node13&#45;&gt;Node14 -->
<g id="edge14" class="edge">
<title>Node13&#45;&gt;Node14</title>
<path fill="none" stroke="midnightblue" d="M780.5,-163.82C780.5,-153 780.5,-139.9 780.5,-131.51"/>
<polygon fill="midnightblue" stroke="midnightblue" points="777,-163.98 780.5,-173.98 784,-163.98 777,-163.98"/>
</g>
</g>
</svg>
