<?xml version="1.0" encoding="UTF-8" standalone="no"?>
<!DOCTYPE svg PUBLIC "-//W3C//DTD SVG 1.1//EN"
 "http://www.w3.org/Graphics/SVG/1.1/DTD/svg11.dtd">
<!-- Generated by graphviz version 2.44.0 ()
 -->
<!-- Title: src/renderer/opengl/mxrenderer.cpp Pages: 1 -->
<svg width="862pt" height="487pt"
 viewBox="0.00 0.00 862.42 487.00" xmlns="http://www.w3.org/2000/svg" xmlns:xlink="http://www.w3.org/1999/xlink">
<g id="graph0" class="graph" transform="scale(1 1) rotate(0) translate(4 483)">
<title>src/renderer/opengl/mxrenderer.cpp</title>
<!-- Node1 -->
<g id="node1" class="node">
<title>Node1</title>
<g id="a_node1"><a xlink:title=" ">
<polygon fill="#bfbfbf" stroke="black" points="499,-448.5 499,-478.5 599,-478.5 599,-448.5 499,-448.5"/>
<text text-anchor="start" x="507" y="-466.5" font-family="Helvetica,sans-Serif" font-size="10.00">src/renderer/opengl</text>
<text text-anchor="middle" x="549" y="-455.5" font-family="Helvetica,sans-Serif" font-size="10.00">/mxrenderer.cpp</text>
</a>
</g>
</g>
<!-- Node2 -->
<g id="node2" class="node">
<title>Node2</title>
<g id="a_node2"><a xlink:href="mxrenderer_8h.html" target="_top" xlink:title=" ">
<polygon fill="none" stroke="black" points="464,-392.5 464,-411.5 536,-411.5 536,-392.5 464,-392.5"/>
<text text-anchor="middle" x="500" y="-399.5" font-family="Helvetica,sans-Serif" font-size="10.00">mxrenderer.h</text>
</a>
</g>
</g>
<!-- Node1&#45;&gt;Node2 -->
<g id="edge1" class="edge">
<title>Node1&#45;&gt;Node2</title>
<path fill="none" stroke="midnightblue" d="M537.39,-448.4C530.27,-439.75 521.12,-428.64 513.65,-419.58"/>
<polygon fill="midnightblue" stroke="midnightblue" points="516.19,-417.15 507.13,-411.66 510.79,-421.6 516.19,-417.15"/>
</g>
<!-- Node25 -->
<g id="node25" class="node">
<title>Node25</title>
<g id="a_node25"><a xlink:href="mxthemecolors_8h.html" target="_top" xlink:title=" ">
<polygon fill="none" stroke="black" points="686,-392.5 686,-411.5 776,-411.5 776,-392.5 686,-392.5"/>
<text text-anchor="middle" x="731" y="-399.5" font-family="Helvetica,sans-Serif" font-size="10.00">mxthemecolors.h</text>
</a>
</g>
</g>
<!-- Node1&#45;&gt;Node25 -->
<g id="edge41" class="edge">
<title>Node1&#45;&gt;Node25</title>
<path fill="none" stroke="midnightblue" d="M592.13,-448.4C623.58,-438.12 665.69,-424.35 695.27,-414.68"/>
<polygon fill="midnightblue" stroke="midnightblue" points="696.37,-418.01 704.78,-411.57 694.19,-411.35 696.37,-418.01"/>
</g>
<!-- Node3 -->
<g id="node3" class="node">
<title>Node3</title>
<g id="a_node3"><a xlink:href="mxopenglfunctions_8h.html" target="_top" xlink:title=" ">
<polygon fill="none" stroke="black" points="715.5,-336.5 715.5,-355.5 820.5,-355.5 820.5,-336.5 715.5,-336.5"/>
<text text-anchor="middle" x="768" y="-343.5" font-family="Helvetica,sans-Serif" font-size="10.00">mxopenglfunctions.h</text>
</a>
</g>
</g>
<!-- Node2&#45;&gt;Node3 -->
<g id="edge2" class="edge">
<title>Node2&#45;&gt;Node3</title>
<path fill="none" stroke="midnightblue" d="M536.14,-393.72C582.32,-384.41 662.57,-368.24 715.49,-357.58"/>
<polygon fill="midnightblue" stroke="midnightblue" points="716.26,-361 725.37,-355.59 714.87,-354.13 716.26,-361"/>
</g>
<!-- Node5 -->
<g id="node5" class="node">
<title>Node5</title>
<g id="a_node5"><a xlink:href="mxcolorwheelprogram_8h.html" target="_top" xlink:title=" ">
<polygon fill="none" stroke="black" points="172.5,-224.5 172.5,-243.5 291.5,-243.5 291.5,-224.5 172.5,-224.5"/>
<text text-anchor="middle" x="232" y="-231.5" font-family="Helvetica,sans-Serif" font-size="10.00">mxcolorwheelprogram.h</text>
</a>
</g>
</g>
<!-- Node2&#45;&gt;Node5 -->
<g id="edge4" class="edge">
<title>Node2&#45;&gt;Node5</title>
<path fill="none" stroke="midnightblue" d="M463.96,-398.77C399.58,-394.18 268.1,-381.86 231,-356 200.93,-335.04 187.6,-314.83 199,-280 202.49,-269.34 209.57,-259.12 216.29,-251.12"/>
<polygon fill="midnightblue" stroke="midnightblue" points="218.9,-253.44 222.98,-243.66 213.7,-248.76 218.9,-253.44"/>
</g>
<!-- Node15 -->
<g id="node15" class="node">
<title>Node15</title>
<g id="a_node15"><a xlink:href="mxvectorprogram_8h.html" target="_top" xlink:title=" ">
<polygon fill="none" stroke="black" points="240.5,-336.5 240.5,-355.5 339.5,-355.5 339.5,-336.5 240.5,-336.5"/>
<text text-anchor="middle" x="290" y="-343.5" font-family="Helvetica,sans-Serif" font-size="10.00">mxvectorprogram.h</text>
</a>
</g>
</g>
<!-- Node2&#45;&gt;Node15 -->
<g id="edge18" class="edge">
<title>Node2&#45;&gt;Node15</title>
<path fill="none" stroke="midnightblue" d="M466.72,-392.44C430.55,-383.14 372.62,-368.25 333.02,-358.06"/>
<polygon fill="midnightblue" stroke="midnightblue" points="333.68,-354.62 323.12,-355.52 331.93,-361.4 333.68,-354.62"/>
</g>
<!-- Node17 -->
<g id="node17" class="node">
<title>Node17</title>
<g id="a_node17"><a xlink:href="mxcachedgpuarray_8h.html" target="_top" xlink:title=" ">
<polygon fill="none" stroke="black" points="8.5,-224.5 8.5,-243.5 113.5,-243.5 113.5,-224.5 8.5,-224.5"/>
<text text-anchor="middle" x="61" y="-231.5" font-family="Helvetica,sans-Serif" font-size="10.00">mxcachedgpuarray.h</text>
</a>
</g>
</g>
<!-- Node2&#45;&gt;Node17 -->
<g id="edge33" class="edge">
<title>Node2&#45;&gt;Node17</title>
<path fill="none" stroke="midnightblue" d="M463.58,-400.92C406.37,-399.6 292.93,-392.15 205,-356 148.59,-332.81 97.84,-279.04 74.52,-251.67"/>
<polygon fill="midnightblue" stroke="midnightblue" points="77.03,-249.21 67.94,-243.78 71.65,-253.7 77.03,-249.21"/>
</g>
<!-- Node19 -->
<g id="node19" class="node">
<title>Node19</title>
<g id="a_node19"><a xlink:href="mxlist_8h.html" target="_top" xlink:title=" ">
<polygon fill="none" stroke="black" points="475,-336.5 475,-355.5 525,-355.5 525,-336.5 475,-336.5"/>
<text text-anchor="middle" x="500" y="-343.5" font-family="Helvetica,sans-Serif" font-size="10.00">mxlist.h</text>
</a>
</g>
</g>
<!-- Node2&#45;&gt;Node19 -->
<g id="edge27" class="edge">
<title>Node2&#45;&gt;Node19</title>
<path fill="none" stroke="midnightblue" d="M500,-392.08C500,-385.01 500,-374.86 500,-365.99"/>
<polygon fill="midnightblue" stroke="midnightblue" points="503.5,-365.75 500,-355.75 496.5,-365.75 503.5,-365.75"/>
</g>
<!-- Node24 -->
<g id="node24" class="node">
<title>Node24</title>
<g id="a_node24"><a xlink:href="mxiconprogram_8h.html" target="_top" xlink:title=" ">
<polygon fill="none" stroke="black" points="425,-224.5 425,-243.5 515,-243.5 515,-224.5 425,-224.5"/>
<text text-anchor="middle" x="470" y="-231.5" font-family="Helvetica,sans-Serif" font-size="10.00">mxiconprogram.h</text>
</a>
</g>
</g>
<!-- Node2&#45;&gt;Node24 -->
<g id="edge34" class="edge">
<title>Node2&#45;&gt;Node24</title>
<path fill="none" stroke="midnightblue" d="M522.21,-392.4C566.97,-373.82 660.82,-327.7 625,-280 612.81,-263.77 564.77,-251.5 525.36,-243.9"/>
<polygon fill="midnightblue" stroke="midnightblue" points="525.77,-240.42 515.3,-242.02 524.49,-247.3 525.77,-240.42"/>
</g>
<!-- Node4 -->
<g id="node4" class="node">
<title>Node4</title>
<g id="a_node4"><a xlink:title=" ">
<polygon fill="none" stroke="#bfbfbf" points="710.5,-280.5 710.5,-299.5 835.5,-299.5 835.5,-280.5 710.5,-280.5"/>
<text text-anchor="middle" x="773" y="-287.5" font-family="Helvetica,sans-Serif" font-size="10.00">QOpenGLExtraFunctions</text>
</a>
</g>
</g>
<!-- Node3&#45;&gt;Node4 -->
<g id="edge3" class="edge">
<title>Node3&#45;&gt;Node4</title>
<path fill="none" stroke="midnightblue" d="M768.83,-336.08C769.48,-329.01 770.42,-318.86 771.24,-309.99"/>
<polygon fill="midnightblue" stroke="midnightblue" points="774.75,-310.03 772.19,-299.75 767.78,-309.39 774.75,-310.03"/>
</g>
<!-- Node6 -->
<g id="node6" class="node">
<title>Node6</title>
<g id="a_node6"><a xlink:href="mxdebug_8h.html" target="_top" xlink:title=" ">
<polygon fill="none" stroke="black" points="489.5,-56.5 489.5,-75.5 552.5,-75.5 552.5,-56.5 489.5,-56.5"/>
<text text-anchor="middle" x="521" y="-63.5" font-family="Helvetica,sans-Serif" font-size="10.00">mxdebug.h</text>
</a>
</g>
</g>
<!-- Node5&#45;&gt;Node6 -->
<g id="edge5" class="edge">
<title>Node5&#45;&gt;Node6</title>
<path fill="none" stroke="midnightblue" d="M232.36,-224.36C233.77,-201.96 240.84,-141.73 276,-112 306.05,-86.6 417.17,-74.57 478.93,-69.74"/>
<polygon fill="midnightblue" stroke="midnightblue" points="479.41,-73.21 489.12,-68.97 478.89,-66.23 479.41,-73.21"/>
</g>
<!-- Node8 -->
<g id="node8" class="node">
<title>Node8</title>
<g id="a_node8"><a xlink:href="mxopengl_8h.html" target="_top" xlink:title=" ">
<polygon fill="none" stroke="black" points="106.5,-56.5 106.5,-75.5 171.5,-75.5 171.5,-56.5 106.5,-56.5"/>
<text text-anchor="middle" x="139" y="-63.5" font-family="Helvetica,sans-Serif" font-size="10.00">mxopengl.h</text>
</a>
</g>
</g>
<!-- Node5&#45;&gt;Node8 -->
<g id="edge7" class="edge">
<title>Node5&#45;&gt;Node8</title>
<path fill="none" stroke="midnightblue" d="M215.19,-224.3C188.67,-209.49 138.08,-176.61 118,-132 110.95,-116.34 118.6,-97.59 126.57,-84.26"/>
<polygon fill="midnightblue" stroke="midnightblue" points="129.67,-85.92 132.23,-75.64 123.82,-82.08 129.67,-85.92"/>
</g>
<!-- Node9 -->
<g id="node9" class="node">
<title>Node9</title>
<g id="a_node9"><a xlink:href="mxshaderprogram_8h.html" target="_top" xlink:title=" ">
<polygon fill="none" stroke="black" points="127.5,-112.5 127.5,-131.5 228.5,-131.5 228.5,-112.5 127.5,-112.5"/>
<text text-anchor="middle" x="178" y="-119.5" font-family="Helvetica,sans-Serif" font-size="10.00">mxshaderprogram.h</text>
</a>
</g>
</g>
<!-- Node5&#45;&gt;Node9 -->
<g id="edge8" class="edge">
<title>Node5&#45;&gt;Node9</title>
<path fill="none" stroke="midnightblue" d="M227.76,-224.37C218.93,-206.38 198.4,-164.55 186.65,-140.63"/>
<polygon fill="midnightblue" stroke="midnightblue" points="189.77,-139.03 182.22,-131.59 183.48,-142.11 189.77,-139.03"/>
</g>
<!-- Node10 -->
<g id="node10" class="node">
<title>Node10</title>
<g id="a_node10"><a xlink:href="mxmatrix_8h.html" target="_top" xlink:title=" ">
<polygon fill="none" stroke="black" points="285.5,-168.5 285.5,-187.5 348.5,-187.5 348.5,-168.5 285.5,-168.5"/>
<text text-anchor="middle" x="317" y="-175.5" font-family="Helvetica,sans-Serif" font-size="10.00">mxmatrix.h</text>
</a>
</g>
</g>
<!-- Node5&#45;&gt;Node10 -->
<g id="edge11" class="edge">
<title>Node5&#45;&gt;Node10</title>
<path fill="none" stroke="midnightblue" d="M245.66,-224.32C258.92,-215.9 279.27,-202.97 294.85,-193.07"/>
<polygon fill="midnightblue" stroke="midnightblue" points="296.81,-195.97 303.38,-187.65 293.06,-190.06 296.81,-195.97"/>
</g>
<!-- Node12 -->
<g id="node12" class="node">
<title>Node12</title>
<g id="a_node12"><a xlink:href="mxrect_8h.html" target="_top" xlink:title=" ">
<polygon fill="none" stroke="black" points="443.5,-168.5 443.5,-187.5 496.5,-187.5 496.5,-168.5 443.5,-168.5"/>
<text text-anchor="middle" x="470" y="-175.5" font-family="Helvetica,sans-Serif" font-size="10.00">mxrect.h</text>
</a>
</g>
</g>
<!-- Node5&#45;&gt;Node12 -->
<g id="edge13" class="edge">
<title>Node5&#45;&gt;Node12</title>
<path fill="none" stroke="midnightblue" d="M269.71,-224.44C314.58,-214.26 388.99,-197.38 433.38,-187.31"/>
<polygon fill="midnightblue" stroke="midnightblue" points="434.2,-190.71 443.17,-185.09 432.65,-183.89 434.2,-190.71"/>
</g>
<!-- Node7 -->
<g id="node7" class="node">
<title>Node7</title>
<g id="a_node7"><a xlink:title=" ">
<polygon fill="none" stroke="#bfbfbf" points="495,-0.5 495,-19.5 547,-19.5 547,-0.5 495,-0.5"/>
<text text-anchor="middle" x="521" y="-7.5" font-family="Helvetica,sans-Serif" font-size="10.00">QDebug</text>
</a>
</g>
</g>
<!-- Node6&#45;&gt;Node7 -->
<g id="edge6" class="edge">
<title>Node6&#45;&gt;Node7</title>
<path fill="none" stroke="midnightblue" d="M521,-56.08C521,-49.01 521,-38.86 521,-29.99"/>
<polygon fill="midnightblue" stroke="midnightblue" points="524.5,-29.75 521,-19.75 517.5,-29.75 524.5,-29.75"/>
</g>
<!-- Node9&#45;&gt;Node6 -->
<g id="edge9" class="edge">
<title>Node9&#45;&gt;Node6</title>
<path fill="none" stroke="midnightblue" d="M228.61,-113.03C296.57,-102.33 416.07,-83.52 479.2,-73.58"/>
<polygon fill="midnightblue" stroke="midnightblue" points="479.86,-77.02 489.2,-72.01 478.78,-70.1 479.86,-77.02"/>
</g>
<!-- Node9&#45;&gt;Node8 -->
<g id="edge10" class="edge">
<title>Node9&#45;&gt;Node8</title>
<path fill="none" stroke="midnightblue" d="M171.56,-112.08C166.05,-104.46 157.97,-93.26 151.24,-83.94"/>
<polygon fill="midnightblue" stroke="midnightblue" points="154.01,-81.81 145.32,-75.75 148.34,-85.91 154.01,-81.81"/>
</g>
<!-- Node11 -->
<g id="node11" class="node">
<title>Node11</title>
<g id="a_node11"><a xlink:title=" ">
<polygon fill="none" stroke="#bfbfbf" points="285.5,-112.5 285.5,-131.5 350.5,-131.5 350.5,-112.5 285.5,-112.5"/>
<text text-anchor="middle" x="318" y="-119.5" font-family="Helvetica,sans-Serif" font-size="10.00">QMatrix4x4</text>
</a>
</g>
</g>
<!-- Node10&#45;&gt;Node11 -->
<g id="edge12" class="edge">
<title>Node10&#45;&gt;Node11</title>
<path fill="none" stroke="midnightblue" d="M317.17,-168.08C317.3,-161.01 317.48,-150.86 317.65,-141.99"/>
<polygon fill="midnightblue" stroke="midnightblue" points="321.15,-141.81 317.84,-131.75 314.15,-141.68 321.15,-141.81"/>
</g>
<!-- Node12&#45;&gt;Node6 -->
<g id="edge14" class="edge">
<title>Node12&#45;&gt;Node6</title>
<path fill="none" stroke="midnightblue" d="M474,-168.37C482.31,-150.46 501.56,-108.92 512.68,-84.95"/>
<polygon fill="midnightblue" stroke="midnightblue" points="515.99,-86.14 517.02,-75.59 509.64,-83.19 515.99,-86.14"/>
</g>
<!-- Node13 -->
<g id="node13" class="node">
<title>Node13</title>
<g id="a_node13"><a xlink:href="mxvector_8h.html" target="_top" xlink:title=" ">
<polygon fill="none" stroke="black" points="519,-112.5 519,-131.5 583,-131.5 583,-112.5 519,-112.5"/>
<text text-anchor="middle" x="551" y="-119.5" font-family="Helvetica,sans-Serif" font-size="10.00">mxvector.h</text>
</a>
</g>
</g>
<!-- Node12&#45;&gt;Node13 -->
<g id="edge15" class="edge">
<title>Node12&#45;&gt;Node13</title>
<path fill="none" stroke="midnightblue" d="M483.01,-168.32C495.53,-159.98 514.68,-147.21 529.47,-137.35"/>
<polygon fill="midnightblue" stroke="midnightblue" points="531.64,-140.11 538.02,-131.65 527.76,-134.29 531.64,-140.11"/>
</g>
<!-- Node14 -->
<g id="node14" class="node">
<title>Node14</title>
<g id="a_node14"><a xlink:title=" ">
<polygon fill="none" stroke="#bfbfbf" points="407,-112.5 407,-131.5 463,-131.5 463,-112.5 407,-112.5"/>
<text text-anchor="middle" x="435" y="-119.5" font-family="Helvetica,sans-Serif" font-size="10.00">algorithm</text>
</a>
</g>
</g>
<!-- Node12&#45;&gt;Node14 -->
<g id="edge17" class="edge">
<title>Node12&#45;&gt;Node14</title>
<path fill="none" stroke="midnightblue" d="M464.22,-168.08C459.33,-160.53 452.17,-149.49 446.17,-140.23"/>
<polygon fill="midnightblue" stroke="midnightblue" points="449.05,-138.24 440.67,-131.75 443.17,-142.05 449.05,-138.24"/>
</g>
<!-- Node13&#45;&gt;Node6 -->
<g id="edge16" class="edge">
<title>Node13&#45;&gt;Node6</title>
<path fill="none" stroke="midnightblue" d="M546.05,-112.08C541.9,-104.61 535.85,-93.72 530.73,-84.52"/>
<polygon fill="midnightblue" stroke="midnightblue" points="533.78,-82.79 525.86,-75.75 527.66,-86.19 533.78,-82.79"/>
</g>
<!-- Node15&#45;&gt;Node9 -->
<g id="edge19" class="edge">
<title>Node15&#45;&gt;Node9</title>
<path fill="none" stroke="midnightblue" d="M263.85,-336.41C244.35,-329.04 217.92,-316.91 199,-300 176.94,-280.28 171.34,-272.39 163,-244 152.6,-208.6 163.32,-165.31 171.22,-141.29"/>
<polygon fill="midnightblue" stroke="midnightblue" points="174.57,-142.3 174.56,-131.7 167.96,-139.99 174.57,-142.3"/>
</g>
<!-- Node15&#45;&gt;Node10 -->
<g id="edge20" class="edge">
<title>Node15&#45;&gt;Node10</title>
<path fill="none" stroke="midnightblue" d="M292.65,-336.45C295.36,-327.46 299.5,-312.86 302,-300 308.98,-264.11 313.37,-221.56 315.49,-197.68"/>
<polygon fill="midnightblue" stroke="midnightblue" points="318.99,-197.83 316.34,-187.57 312.01,-197.24 318.99,-197.83"/>
</g>
<!-- Node16 -->
<g id="node16" class="node">
<title>Node16</title>
<g id="a_node16"><a xlink:href="mxvectordraw_8h.html" target="_top" xlink:title=" ">
<polygon fill="none" stroke="black" points="208.5,-280.5 208.5,-299.5 293.5,-299.5 293.5,-280.5 208.5,-280.5"/>
<text text-anchor="middle" x="251" y="-287.5" font-family="Helvetica,sans-Serif" font-size="10.00">mxvectordraw.h</text>
</a>
</g>
</g>
<!-- Node15&#45;&gt;Node16 -->
<g id="edge21" class="edge">
<title>Node15&#45;&gt;Node16</title>
<path fill="none" stroke="midnightblue" d="M283.56,-336.08C278.05,-328.46 269.97,-317.26 263.24,-307.94"/>
<polygon fill="midnightblue" stroke="midnightblue" points="266.01,-305.81 257.32,-299.75 260.34,-309.91 266.01,-305.81"/>
</g>
<!-- Node16&#45;&gt;Node12 -->
<g id="edge26" class="edge">
<title>Node16&#45;&gt;Node12</title>
<path fill="none" stroke="midnightblue" d="M268.18,-280.37C306.32,-261.21 398.26,-215.04 443.69,-192.22"/>
<polygon fill="midnightblue" stroke="midnightblue" points="445.53,-195.21 452.9,-187.59 442.39,-188.95 445.53,-195.21"/>
</g>
<!-- Node16&#45;&gt;Node17 -->
<g id="edge22" class="edge">
<title>Node16&#45;&gt;Node17</title>
<path fill="none" stroke="midnightblue" d="M220.89,-280.44C188.37,-271.2 136.42,-256.44 100.61,-246.26"/>
<polygon fill="midnightblue" stroke="midnightblue" points="101.54,-242.88 90.97,-243.52 99.63,-249.62 101.54,-242.88"/>
</g>
<!-- Node18 -->
<g id="node18" class="node">
<title>Node18</title>
<g id="a_node18"><a xlink:href="mxgpuarray_8h.html" target="_top" xlink:title=" ">
<polygon fill="none" stroke="black" points="0,-168.5 0,-187.5 74,-187.5 74,-168.5 0,-168.5"/>
<text text-anchor="middle" x="37" y="-175.5" font-family="Helvetica,sans-Serif" font-size="10.00">mxgpuarray.h</text>
</a>
</g>
</g>
<!-- Node17&#45;&gt;Node18 -->
<g id="edge23" class="edge">
<title>Node17&#45;&gt;Node18</title>
<path fill="none" stroke="midnightblue" d="M57.04,-224.08C53.79,-216.77 49.08,-206.18 45.05,-197.1"/>
<polygon fill="midnightblue" stroke="midnightblue" points="48.15,-195.47 40.89,-187.75 41.75,-198.31 48.15,-195.47"/>
</g>
<!-- Node18&#45;&gt;Node8 -->
<g id="edge24" class="edge">
<title>Node18&#45;&gt;Node8</title>
<path fill="none" stroke="midnightblue" d="M42.6,-168.07C50.98,-155.04 67.68,-130.37 85,-112 95.33,-101.04 108.26,-90.19 118.87,-81.89"/>
<polygon fill="midnightblue" stroke="midnightblue" points="121.32,-84.42 127.13,-75.57 117.06,-78.86 121.32,-84.42"/>
</g>
<!-- Node18&#45;&gt;Node9 -->
<g id="edge25" class="edge">
<title>Node18&#45;&gt;Node9</title>
<path fill="none" stroke="midnightblue" d="M59.34,-168.44C82.75,-159.48 119.74,-145.31 146.19,-135.18"/>
<polygon fill="midnightblue" stroke="midnightblue" points="147.68,-138.36 155.76,-131.52 145.17,-131.82 147.68,-138.36"/>
</g>
<!-- Node19&#45;&gt;Node6 -->
<g id="edge28" class="edge">
<title>Node19&#45;&gt;Node6</title>
<path fill="none" stroke="midnightblue" d="M525.21,-344.04C554.73,-341.4 602.45,-332.08 625,-300 638.58,-280.68 709.25,-262.19 607,-112 596.46,-96.51 578.85,-85.99 562.3,-79.04"/>
<polygon fill="midnightblue" stroke="midnightblue" points="563.34,-75.69 552.75,-75.35 560.82,-82.22 563.34,-75.69"/>
</g>
<!-- Node20 -->
<g id="node20" class="node">
<title>Node20</title>
<g id="a_node20"><a xlink:href="mxrefcounter_8h.html" target="_top" xlink:title=" ">
<polygon fill="none" stroke="black" points="536,-280.5 536,-299.5 616,-299.5 616,-280.5 536,-280.5"/>
<text text-anchor="middle" x="576" y="-287.5" font-family="Helvetica,sans-Serif" font-size="10.00">mxrefcounter.h</text>
</a>
</g>
</g>
<!-- Node19&#45;&gt;Node20 -->
<g id="edge29" class="edge">
<title>Node19&#45;&gt;Node20</title>
<path fill="none" stroke="midnightblue" d="M512.21,-336.32C523.78,-328.11 541.38,-315.6 555.16,-305.81"/>
<polygon fill="midnightblue" stroke="midnightblue" points="557.44,-308.48 563.57,-299.83 553.39,-302.77 557.44,-308.48"/>
</g>
<!-- Node21 -->
<g id="node21" class="node">
<title>Node21</title>
<g id="a_node21"><a xlink:title=" ">
<polygon fill="none" stroke="#bfbfbf" points="350.5,-280.5 350.5,-299.5 397.5,-299.5 397.5,-280.5 350.5,-280.5"/>
<text text-anchor="middle" x="374" y="-287.5" font-family="Helvetica,sans-Serif" font-size="10.00">stdlib.h</text>
</a>
</g>
</g>
<!-- Node19&#45;&gt;Node21 -->
<g id="edge30" class="edge">
<title>Node19&#45;&gt;Node21</title>
<path fill="none" stroke="midnightblue" d="M480.03,-336.44C459.39,-327.6 426.94,-313.69 403.37,-303.59"/>
<polygon fill="midnightblue" stroke="midnightblue" points="404.44,-300.24 393.87,-299.52 401.68,-306.67 404.44,-300.24"/>
</g>
<!-- Node22 -->
<g id="node22" class="node">
<title>Node22</title>
<g id="a_node22"><a xlink:title=" ">
<polygon fill="none" stroke="#bfbfbf" points="416,-280.5 416,-299.5 464,-299.5 464,-280.5 416,-280.5"/>
<text text-anchor="middle" x="440" y="-287.5" font-family="Helvetica,sans-Serif" font-size="10.00">string.h</text>
</a>
</g>
</g>
<!-- Node19&#45;&gt;Node22 -->
<g id="edge31" class="edge">
<title>Node19&#45;&gt;Node22</title>
<path fill="none" stroke="midnightblue" d="M490.36,-336.32C481.49,-328.34 468.13,-316.31 457.39,-306.65"/>
<polygon fill="midnightblue" stroke="midnightblue" points="459.59,-303.92 449.82,-299.83 454.91,-309.13 459.59,-303.92"/>
</g>
<!-- Node23 -->
<g id="node23" class="node">
<title>Node23</title>
<g id="a_node23"><a xlink:title=" ">
<polygon fill="none" stroke="#bfbfbf" points="482.5,-280.5 482.5,-299.5 517.5,-299.5 517.5,-280.5 482.5,-280.5"/>
<text text-anchor="middle" x="500" y="-287.5" font-family="Helvetica,sans-Serif" font-size="10.00">new</text>
</a>
</g>
</g>
<!-- Node19&#45;&gt;Node23 -->
<g id="edge32" class="edge">
<title>Node19&#45;&gt;Node23</title>
<path fill="none" stroke="midnightblue" d="M500,-336.08C500,-329.01 500,-318.86 500,-309.99"/>
<polygon fill="midnightblue" stroke="midnightblue" points="503.5,-309.75 500,-299.75 496.5,-309.75 503.5,-309.75"/>
</g>
<!-- Node24&#45;&gt;Node6 -->
<g id="edge35" class="edge">
<title>Node24&#45;&gt;Node6</title>
<path fill="none" stroke="midnightblue" d="M488.48,-224.42C517.02,-210 570.74,-177.91 592,-132 602.43,-109.47 576.85,-91.21 553.54,-79.84"/>
<polygon fill="midnightblue" stroke="midnightblue" points="554.69,-76.51 544.14,-75.54 551.78,-82.88 554.69,-76.51"/>
</g>
<!-- Node24&#45;&gt;Node8 -->
<g id="edge38" class="edge">
<title>Node24&#45;&gt;Node8</title>
<path fill="none" stroke="midnightblue" d="M463.34,-224.47C443.61,-199.41 385.17,-126.82 359,-112 303.17,-80.4 228.22,-70.83 181.79,-68.03"/>
<polygon fill="midnightblue" stroke="midnightblue" points="181.94,-64.53 171.77,-67.5 181.57,-71.52 181.94,-64.53"/>
</g>
<!-- Node24&#45;&gt;Node9 -->
<g id="edge39" class="edge">
<title>Node24&#45;&gt;Node9</title>
<path fill="none" stroke="midnightblue" d="M457.7,-224.39C437.54,-210.65 395.82,-183.69 357,-168 318.33,-152.37 272.72,-141 237.21,-133.6"/>
<polygon fill="midnightblue" stroke="midnightblue" points="237.5,-130.09 227.01,-131.53 236.11,-136.95 237.5,-130.09"/>
</g>
<!-- Node24&#45;&gt;Node10 -->
<g id="edge36" class="edge">
<title>Node24&#45;&gt;Node10</title>
<path fill="none" stroke="midnightblue" d="M445.76,-224.44C420.13,-215.4 379.51,-201.06 350.76,-190.92"/>
<polygon fill="midnightblue" stroke="midnightblue" points="351.72,-187.54 341.13,-187.52 349.39,-194.15 351.72,-187.54"/>
</g>
<!-- Node24&#45;&gt;Node12 -->
<g id="edge40" class="edge">
<title>Node24&#45;&gt;Node12</title>
<path fill="none" stroke="midnightblue" d="M470,-224.08C470,-217.01 470,-206.86 470,-197.99"/>
<polygon fill="midnightblue" stroke="midnightblue" points="473.5,-197.75 470,-187.75 466.5,-197.75 473.5,-197.75"/>
</g>
<!-- Node24&#45;&gt;Node13 -->
<g id="edge37" class="edge">
<title>Node24&#45;&gt;Node13</title>
<path fill="none" stroke="midnightblue" d="M476.83,-224.46C483.97,-215.48 495.44,-200.88 505,-188 516.93,-171.92 530.09,-153.23 539.26,-140.03"/>
<polygon fill="midnightblue" stroke="midnightblue" points="542.35,-141.72 545.17,-131.5 536.6,-137.73 542.35,-141.72"/>
</g>
<!-- Node25&#45;&gt;Node13 -->
<g id="edge42" class="edge">
<title>Node25&#45;&gt;Node13</title>
<path fill="none" stroke="midnightblue" d="M768.3,-392.48C789.24,-385.86 814.26,-374.58 830,-356 852.26,-329.73 862.71,-309.53 845,-280 789.81,-187.96 660.26,-146.87 593.07,-131.22"/>
<polygon fill="midnightblue" stroke="midnightblue" points="593.76,-127.79 583.24,-129.01 592.23,-134.62 593.76,-127.79"/>
</g>
</g>
</svg>
