<?xml version="1.0" encoding="UTF-8" standalone="no"?>
<!DOCTYPE svg PUBLIC "-//W3C//DTD SVG 1.1//EN"
 "http://www.w3.org/Graphics/SVG/1.1/DTD/svg11.dtd">
<!-- Generated by graphviz version 2.44.0 ()
 -->
<!-- Title: src/geometry/mxrect.h Pages: 1 -->
<svg width="2037pt" height="441pt"
 viewBox="0.00 0.00 2036.50 441.00" xmlns="http://www.w3.org/2000/svg" xmlns:xlink="http://www.w3.org/1999/xlink">
<g id="graph0" class="graph" transform="scale(1 1) rotate(0) translate(4 437)">
<title>src/geometry/mxrect.h</title>
<!-- Node1 -->
<g id="node1" class="node">
<title>Node1</title>
<g id="a_node1"><a xlink:title=" ">
<polygon fill="#bfbfbf" stroke="black" points="1046.5,-413.5 1046.5,-432.5 1159.5,-432.5 1159.5,-413.5 1046.5,-413.5"/>
<text text-anchor="middle" x="1103" y="-420.5" font-family="Helvetica,sans-Serif" font-size="10.00">src/geometry/mxrect.h</text>
</a>
</g>
</g>
<!-- Node2 -->
<g id="node2" class="node">
<title>Node2</title>
<g id="a_node2"><a xlink:href="mxgeometryutils_8h.html" target="_top" xlink:title=" ">
<polygon fill="none" stroke="black" points="407,-346.5 407,-365.5 561,-365.5 561,-346.5 407,-346.5"/>
<text text-anchor="middle" x="484" y="-353.5" font-family="Helvetica,sans-Serif" font-size="10.00">src/geometry/mxgeometryutils.h</text>
</a>
</g>
</g>
<!-- Node1&#45;&gt;Node2 -->
<g id="edge1" class="edge">
<title>Node1&#45;&gt;Node2</title>
<path fill="none" stroke="midnightblue" d="M1036.18,-419.06C935.81,-414.02 740.38,-401.78 576,-377 556.77,-374.1 535.53,-369.58 518.32,-365.56"/>
<polygon fill="midnightblue" stroke="midnightblue" points="1036.02,-422.55 1046.18,-419.55 1036.36,-415.56 1036.02,-422.55"/>
</g>
<!-- Node4 -->
<g id="node4" class="node">
<title>Node4</title>
<g id="a_node4"><a xlink:href="mxorthotransform_8h.html" target="_top" xlink:title=" ">
<polygon fill="none" stroke="black" points="1515,-346.5 1515,-365.5 1647,-365.5 1647,-346.5 1515,-346.5"/>
<text text-anchor="middle" x="1581" y="-353.5" font-family="Helvetica,sans-Serif" font-size="10.00">src/gui/mxorthotransform.h</text>
</a>
</g>
</g>
<!-- Node1&#45;&gt;Node4 -->
<g id="edge3" class="edge">
<title>Node1&#45;&gt;Node4</title>
<path fill="none" stroke="midnightblue" d="M1169.77,-417.61C1250.08,-411.63 1388.73,-399.06 1506,-377 1521.76,-374.04 1539.07,-369.51 1553.09,-365.51"/>
<polygon fill="midnightblue" stroke="midnightblue" points="1169.51,-414.12 1159.79,-418.34 1170.02,-421.1 1169.51,-414.12"/>
</g>
<!-- Node5 -->
<g id="node5" class="node">
<title>Node5</title>
<g id="a_node5"><a xlink:href="mxquaddraw_8h.html" target="_top" xlink:title=" ">
<polygon fill="none" stroke="black" points="804.5,-346.5 804.5,-365.5 915.5,-365.5 915.5,-346.5 804.5,-346.5"/>
<text text-anchor="middle" x="860" y="-353.5" font-family="Helvetica,sans-Serif" font-size="10.00">src/gui/mxquaddraw.h</text>
</a>
</g>
</g>
<!-- Node1&#45;&gt;Node5 -->
<g id="edge4" class="edge">
<title>Node1&#45;&gt;Node5</title>
<path fill="none" stroke="midnightblue" d="M1061.22,-410.82C1013.23,-397.99 935.56,-377.21 892.09,-365.58"/>
<polygon fill="midnightblue" stroke="midnightblue" points="1060.42,-414.23 1070.98,-413.44 1062.23,-407.47 1060.42,-414.23"/>
</g>
<!-- Node10 -->
<g id="node10" class="node">
<title>Node10</title>
<g id="a_node10"><a xlink:href="qmewawindow_8cpp.html" target="_top" xlink:title=" ">
<polygon fill="none" stroke="black" points="122,-0.5 122,-30.5 238,-30.5 238,-0.5 122,-0.5"/>
<text text-anchor="start" x="130" y="-18.5" font-family="Helvetica,sans-Serif" font-size="10.00">src/platformabstraction</text>
<text text-anchor="middle" x="180" y="-7.5" font-family="Helvetica,sans-Serif" font-size="10.00">/qt/qmewawindow.cpp</text>
</a>
</g>
</g>
<!-- Node1&#45;&gt;Node10 -->
<g id="edge42" class="edge">
<title>Node1&#45;&gt;Node10</title>
<path fill="none" stroke="midnightblue" d="M1036.12,-420.74C797.21,-415.35 0,-389.5 0,-284.5 0,-284.5 0,-284.5 0,-148.5 0,-84.75 74.32,-48.43 127.45,-30.6"/>
<polygon fill="midnightblue" stroke="midnightblue" points="1036.33,-424.24 1046.4,-420.96 1036.48,-417.24 1036.33,-424.24"/>
</g>
<!-- Node13 -->
<g id="node13" class="node">
<title>Node13</title>
<g id="a_node13"><a xlink:href="opengl_2iconprogram_2mxiconprogram_8cpp.html" target="_top" xlink:title=" ">
<polygon fill="none" stroke="black" points="1399,-201.5 1399,-231.5 1559,-231.5 1559,-201.5 1399,-201.5"/>
<text text-anchor="start" x="1407" y="-219.5" font-family="Helvetica,sans-Serif" font-size="10.00">src/renderer/opengl</text>
<text text-anchor="middle" x="1479" y="-208.5" font-family="Helvetica,sans-Serif" font-size="10.00">/iconprogram/mxiconprogram.cpp</text>
</a>
</g>
</g>
<!-- Node1&#45;&gt;Node13 -->
<g id="edge46" class="edge">
<title>Node1&#45;&gt;Node13</title>
<path fill="none" stroke="midnightblue" d="M1140.38,-410.18C1196.32,-391.53 1303.93,-351.88 1385,-299 1416.12,-278.7 1447.85,-248.89 1465.33,-231.51"/>
<polygon fill="midnightblue" stroke="midnightblue" points="1138.95,-406.97 1130.55,-413.42 1141.14,-413.61 1138.95,-406.97"/>
</g>
<!-- Node15 -->
<g id="node15" class="node">
<title>Node15</title>
<g id="a_node15"><a xlink:href="mxtextdraw_8h.html" target="_top" xlink:title=" ">
<polygon fill="none" stroke="black" points="585,-346.5 585,-365.5 691,-365.5 691,-346.5 585,-346.5"/>
<text text-anchor="middle" x="638" y="-353.5" font-family="Helvetica,sans-Serif" font-size="10.00">src/gui/mxtextdraw.h</text>
</a>
</g>
</g>
<!-- Node1&#45;&gt;Node15 -->
<g id="edge16" class="edge">
<title>Node1&#45;&gt;Node15</title>
<path fill="none" stroke="midnightblue" d="M1036.31,-412.68C943.3,-399.68 776.51,-376.36 691.29,-364.45"/>
<polygon fill="midnightblue" stroke="midnightblue" points="1036.06,-416.18 1046.45,-414.09 1037.03,-409.24 1036.06,-416.18"/>
</g>
<!-- Node17 -->
<g id="node17" class="node">
<title>Node17</title>
<g id="a_node17"><a xlink:href="mxvectordraw_8h.html" target="_top" xlink:title=" ">
<polygon fill="none" stroke="black" points="932.5,-274 932.5,-293 1049.5,-293 1049.5,-274 932.5,-274"/>
<text text-anchor="middle" x="991" y="-281" font-family="Helvetica,sans-Serif" font-size="10.00">src/gui/mxvectordraw.h</text>
</a>
</g>
</g>
<!-- Node1&#45;&gt;Node17 -->
<g id="edge19" class="edge">
<title>Node1&#45;&gt;Node17</title>
<path fill="none" stroke="midnightblue" d="M1089.41,-405.31C1065.38,-375.81 1016.23,-315.47 998,-293.1"/>
<polygon fill="midnightblue" stroke="midnightblue" points="1086.96,-407.86 1095.99,-413.4 1092.39,-403.43 1086.96,-407.86"/>
</g>
<!-- Node26 -->
<g id="node26" class="node">
<title>Node26</title>
<g id="a_node26"><a xlink:href="mxwidget_8h.html" target="_top" xlink:title=" ">
<polygon fill="none" stroke="black" points="1113,-346.5 1113,-365.5 1211,-365.5 1211,-346.5 1113,-346.5"/>
<text text-anchor="middle" x="1162" y="-353.5" font-family="Helvetica,sans-Serif" font-size="10.00">src/gui/mxwidget.h</text>
</a>
</g>
</g>
<!-- Node1&#45;&gt;Node26 -->
<g id="edge31" class="edge">
<title>Node1&#45;&gt;Node26</title>
<path fill="none" stroke="midnightblue" d="M1117.85,-405.63C1129.39,-392.92 1144.94,-375.8 1154.17,-365.63"/>
<polygon fill="midnightblue" stroke="midnightblue" points="1115.09,-403.48 1110.96,-413.23 1120.27,-408.18 1115.09,-403.48"/>
</g>
<!-- Node29 -->
<g id="node29" class="node">
<title>Node29</title>
<g id="a_node29"><a xlink:href="mxabstractatlas_8h.html" target="_top" xlink:title=" ">
<polygon fill="none" stroke="black" points="286,-274 286,-293 438,-293 438,-274 286,-274"/>
<text text-anchor="middle" x="362" y="-281" font-family="Helvetica,sans-Serif" font-size="10.00">src/iconatlas/mxabstractatlas.h</text>
</a>
</g>
</g>
<!-- Node1&#45;&gt;Node29 -->
<g id="edge35" class="edge">
<title>Node1&#45;&gt;Node29</title>
<path fill="none" stroke="midnightblue" d="M1036.15,-421.77C870.12,-420.64 448.72,-414.11 398,-377 370.33,-356.75 363.92,-312.09 362.44,-293.2"/>
<polygon fill="midnightblue" stroke="midnightblue" points="1036.21,-425.27 1046.23,-421.84 1036.26,-418.27 1036.21,-425.27"/>
</g>
<!-- Node33 -->
<g id="node33" class="node">
<title>Node33</title>
<g id="a_node33"><a xlink:href="opengl_2colorwheelprogram_2mxcolorwheelprogram_8h.html" target="_top" xlink:title=" ">
<polygon fill="none" stroke="black" points="1665,-341 1665,-371 1871,-371 1871,-341 1665,-341"/>
<text text-anchor="start" x="1673" y="-359" font-family="Helvetica,sans-Serif" font-size="10.00">src/renderer/opengl</text>
<text text-anchor="middle" x="1768" y="-348" font-family="Helvetica,sans-Serif" font-size="10.00">/colorwheelprogram/mxcolorwheelprogram.h</text>
</a>
</g>
</g>
<!-- Node1&#45;&gt;Node33 -->
<g id="edge43" class="edge">
<title>Node1&#45;&gt;Node33</title>
<path fill="none" stroke="midnightblue" d="M1169.77,-418.63C1273.93,-412.91 1481.28,-399.66 1656,-377 1668.73,-375.35 1682.22,-373.25 1695.26,-371.03"/>
<polygon fill="midnightblue" stroke="midnightblue" points="1169.5,-415.14 1159.71,-419.18 1169.88,-422.13 1169.5,-415.14"/>
</g>
<!-- Node35 -->
<g id="node35" class="node">
<title>Node35</title>
<g id="a_node35"><a xlink:href="testwindow_8cpp.html" target="_top" xlink:title=" ">
<polygon fill="none" stroke="black" points="1889.5,-335.5 1889.5,-376.5 2028.5,-376.5 2028.5,-335.5 1889.5,-335.5"/>
<text text-anchor="start" x="1897.5" y="-364.5" font-family="Helvetica,sans-Serif" font-size="10.00">src/renderer/opengl</text>
<text text-anchor="start" x="1897.5" y="-353.5" font-family="Helvetica,sans-Serif" font-size="10.00">/colorwheelprogram/test</text>
<text text-anchor="middle" x="1959" y="-342.5" font-family="Helvetica,sans-Serif" font-size="10.00">_colorwheel/testwindow.cpp</text>
</a>
</g>
</g>
<!-- Node1&#45;&gt;Node35 -->
<g id="edge45" class="edge">
<title>Node1&#45;&gt;Node35</title>
<path fill="none" stroke="midnightblue" d="M1170.13,-422.39C1305.32,-422.23 1619.69,-417.12 1880,-377 1883.08,-376.53 1886.21,-375.99 1889.36,-375.39"/>
<polygon fill="midnightblue" stroke="midnightblue" points="1169.93,-418.89 1159.93,-422.39 1169.93,-425.89 1169.93,-418.89"/>
</g>
<!-- Node36 -->
<g id="node36" class="node">
<title>Node36</title>
<g id="a_node36"><a xlink:href="opengl_2iconprogram_2mxiconprogram_8h.html" target="_top" xlink:title=" ">
<polygon fill="none" stroke="black" points="1347.5,-341 1347.5,-371 1496.5,-371 1496.5,-341 1347.5,-341"/>
<text text-anchor="start" x="1355.5" y="-359" font-family="Helvetica,sans-Serif" font-size="10.00">src/renderer/opengl</text>
<text text-anchor="middle" x="1422" y="-348" font-family="Helvetica,sans-Serif" font-size="10.00">/iconprogram/mxiconprogram.h</text>
</a>
</g>
</g>
<!-- Node1&#45;&gt;Node36 -->
<g id="edge47" class="edge">
<title>Node1&#45;&gt;Node36</title>
<path fill="none" stroke="midnightblue" d="M1159.05,-411.59C1205.89,-402.76 1274.41,-389.57 1334,-377 1342.89,-375.12 1352.27,-373.07 1361.46,-371.02"/>
<polygon fill="midnightblue" stroke="midnightblue" points="1158.29,-408.17 1149.1,-413.46 1159.58,-415.05 1158.29,-408.17"/>
</g>
<!-- Node3 -->
<g id="node3" class="node">
<title>Node3</title>
<g id="a_node3"><a xlink:href="mxicondraw_8cpp.html" target="_top" xlink:title=" ">
<polygon fill="none" stroke="black" points="406.5,-207 406.5,-226 525.5,-226 525.5,-207 406.5,-207"/>
<text text-anchor="middle" x="466" y="-214" font-family="Helvetica,sans-Serif" font-size="10.00">src/gui/mxicondraw.cpp</text>
</a>
</g>
</g>
<!-- Node2&#45;&gt;Node3 -->
<g id="edge2" class="edge">
<title>Node2&#45;&gt;Node3</title>
<path fill="none" stroke="midnightblue" d="M481.56,-336.36C477.62,-306.23 469.99,-247.99 467.13,-226.1"/>
<polygon fill="midnightblue" stroke="midnightblue" points="478.11,-336.94 482.87,-346.4 485.05,-336.03 478.11,-336.94"/>
</g>
<!-- Node6 -->
<g id="node6" class="node">
<title>Node6</title>
<g id="a_node6"><a xlink:href="mxicondraw_8h.html" target="_top" xlink:title=" ">
<polygon fill="none" stroke="black" points="806,-274 806,-293 914,-293 914,-274 806,-274"/>
<text text-anchor="middle" x="860" y="-281" font-family="Helvetica,sans-Serif" font-size="10.00">src/gui/mxicondraw.h</text>
</a>
</g>
</g>
<!-- Node5&#45;&gt;Node6 -->
<g id="edge5" class="edge">
<title>Node5&#45;&gt;Node6</title>
<path fill="none" stroke="midnightblue" d="M860,-335.94C860,-322.03 860,-303.82 860,-293.22"/>
<polygon fill="midnightblue" stroke="midnightblue" points="856.5,-336.36 860,-346.36 863.5,-336.36 856.5,-336.36"/>
</g>
<!-- Node14 -->
<g id="node14" class="node">
<title>Node14</title>
<g id="a_node14"><a xlink:href="mxquaddraw_8cpp.html" target="_top" xlink:title=" ">
<polygon fill="none" stroke="black" points="666,-274 666,-293 788,-293 788,-274 666,-274"/>
<text text-anchor="middle" x="727" y="-281" font-family="Helvetica,sans-Serif" font-size="10.00">src/gui/mxquaddraw.cpp</text>
</a>
</g>
</g>
<!-- Node5&#45;&gt;Node14 -->
<g id="edge15" class="edge">
<title>Node5&#45;&gt;Node14</title>
<path fill="none" stroke="midnightblue" d="M835.12,-341.81C808.18,-327.53 766,-305.17 743.1,-293.03"/>
<polygon fill="midnightblue" stroke="midnightblue" points="833.48,-344.9 843.96,-346.5 836.76,-338.72 833.48,-344.9"/>
</g>
<!-- Node6&#45;&gt;Node3 -->
<g id="edge6" class="edge">
<title>Node6&#45;&gt;Node3</title>
<path fill="none" stroke="midnightblue" d="M815.06,-271.73C809.01,-270.4 802.86,-269.12 797,-268 702.65,-249.97 592.18,-234.17 525.72,-225.24"/>
<polygon fill="midnightblue" stroke="midnightblue" points="814.59,-275.21 825.11,-273.98 816.12,-268.38 814.59,-275.21"/>
</g>
<!-- Node7 -->
<g id="node7" class="node">
<title>Node7</title>
<g id="a_node7"><a xlink:href="mxpainter_8h.html" target="_top" xlink:title=" ">
<polygon fill="none" stroke="black" points="589,-207 589,-226 687,-226 687,-207 589,-207"/>
<text text-anchor="middle" x="638" y="-214" font-family="Helvetica,sans-Serif" font-size="10.00">src/gui/mxpainter.h</text>
</a>
</g>
</g>
<!-- Node6&#45;&gt;Node7 -->
<g id="edge7" class="edge">
<title>Node6&#45;&gt;Node7</title>
<path fill="none" stroke="midnightblue" d="M820.76,-271.01C776.82,-258.15 706.63,-237.59 667.25,-226.06"/>
<polygon fill="midnightblue" stroke="midnightblue" points="819.94,-274.42 830.52,-273.87 821.91,-267.7 819.94,-274.42"/>
</g>
<!-- Node6&#45;&gt;Node13 -->
<g id="edge14" class="edge">
<title>Node6&#45;&gt;Node13</title>
<path fill="none" stroke="midnightblue" d="M903.31,-271.7C909.88,-270.3 916.6,-269.01 923,-268 1104.56,-239.32 1152,-249.21 1335,-232 1355.64,-230.06 1377.93,-227.86 1398.67,-225.78"/>
<polygon fill="midnightblue" stroke="midnightblue" points="902.18,-268.37 893.18,-273.95 903.7,-275.2 902.18,-268.37"/>
</g>
<!-- Node8 -->
<g id="node8" class="node">
<title>Node8</title>
<g id="a_node8"><a xlink:href="mxapplication_8h.html" target="_top" xlink:title=" ">
<polygon fill="none" stroke="black" points="376,-140 376,-159 508,-159 508,-140 376,-140"/>
<text text-anchor="middle" x="442" y="-147" font-family="Helvetica,sans-Serif" font-size="10.00">src/events/mxapplication.h</text>
</a>
</g>
</g>
<!-- Node7&#45;&gt;Node8 -->
<g id="edge8" class="edge">
<title>Node7&#45;&gt;Node8</title>
<path fill="none" stroke="midnightblue" d="M602.12,-203.6C563.26,-190.71 502.23,-170.47 467.82,-159.06"/>
<polygon fill="midnightblue" stroke="midnightblue" points="601.38,-207.04 611.97,-206.87 603.58,-200.4 601.38,-207.04"/>
</g>
<!-- Node12 -->
<g id="node12" class="node">
<title>Node12</title>
<g id="a_node12"><a xlink:href="mxpainter_8cpp.html" target="_top" xlink:title=" ">
<polygon fill="none" stroke="black" points="248.5,-140 248.5,-159 357.5,-159 357.5,-140 248.5,-140"/>
<text text-anchor="middle" x="303" y="-147" font-family="Helvetica,sans-Serif" font-size="10.00">src/gui/mxpainter.cpp</text>
</a>
</g>
</g>
<!-- Node7&#45;&gt;Node12 -->
<g id="edge13" class="edge">
<title>Node7&#45;&gt;Node12</title>
<path fill="none" stroke="midnightblue" d="M579.02,-205.18C524.03,-195.41 439.81,-180.03 367,-165 358.07,-163.16 348.48,-161.05 339.5,-159.02"/>
<polygon fill="midnightblue" stroke="midnightblue" points="578.47,-208.64 588.93,-206.94 579.7,-201.75 578.47,-208.64"/>
</g>
<!-- Node9 -->
<g id="node9" class="node">
<title>Node9</title>
<g id="a_node9"><a xlink:href="mxapplication_8cpp.html" target="_top" xlink:title=" ">
<polygon fill="none" stroke="black" points="443.5,-73 443.5,-92 586.5,-92 586.5,-73 443.5,-73"/>
<text text-anchor="middle" x="515" y="-80" font-family="Helvetica,sans-Serif" font-size="10.00">src/events/mxapplication.cpp</text>
</a>
</g>
</g>
<!-- Node8&#45;&gt;Node9 -->
<g id="edge9" class="edge">
<title>Node8&#45;&gt;Node9</title>
<path fill="none" stroke="midnightblue" d="M459.57,-132.86C473.92,-120.08 493.67,-102.49 505.31,-92.13"/>
<polygon fill="midnightblue" stroke="midnightblue" points="456.99,-130.47 451.85,-139.73 461.64,-135.7 456.99,-130.47"/>
</g>
<!-- Node8&#45;&gt;Node10 -->
<g id="edge10" class="edge">
<title>Node8&#45;&gt;Node10</title>
<path fill="none" stroke="midnightblue" d="M415.67,-135.24C365.99,-110.2 258.82,-56.21 207.93,-30.57"/>
<polygon fill="midnightblue" stroke="midnightblue" points="414.3,-138.47 424.81,-139.84 417.45,-132.21 414.3,-138.47"/>
</g>
<!-- Node11 -->
<g id="node11" class="node">
<title>Node11</title>
<g id="a_node11"><a xlink:href="qmewawindow_8h.html" target="_top" xlink:title=" ">
<polygon fill="none" stroke="black" points="122,-67.5 122,-97.5 238,-97.5 238,-67.5 122,-67.5"/>
<text text-anchor="start" x="130" y="-85.5" font-family="Helvetica,sans-Serif" font-size="10.00">src/platformabstraction</text>
<text text-anchor="middle" x="180" y="-74.5" font-family="Helvetica,sans-Serif" font-size="10.00">/qt/qmewawindow.h</text>
</a>
</g>
</g>
<!-- Node8&#45;&gt;Node11 -->
<g id="edge11" class="edge">
<title>Node8&#45;&gt;Node11</title>
<path fill="none" stroke="midnightblue" d="M397.57,-137.48C353.22,-126.47 284.9,-109.52 236.67,-97.56"/>
<polygon fill="midnightblue" stroke="midnightblue" points="396.93,-140.92 407.48,-139.94 398.62,-134.13 396.93,-140.92"/>
</g>
<!-- Node11&#45;&gt;Node10 -->
<g id="edge12" class="edge">
<title>Node11&#45;&gt;Node10</title>
<path fill="none" stroke="midnightblue" d="M180,-57.11C180,-48.15 180,-38.32 180,-30.58"/>
<polygon fill="midnightblue" stroke="midnightblue" points="176.5,-57.4 180,-67.4 183.5,-57.4 176.5,-57.4"/>
</g>
<!-- Node15&#45;&gt;Node7 -->
<g id="edge17" class="edge">
<title>Node15&#45;&gt;Node7</title>
<path fill="none" stroke="midnightblue" d="M638,-336.36C638,-306.23 638,-247.99 638,-226.1"/>
<polygon fill="midnightblue" stroke="midnightblue" points="634.5,-336.4 638,-346.4 641.5,-336.4 634.5,-336.4"/>
</g>
<!-- Node16 -->
<g id="node16" class="node">
<title>Node16</title>
<g id="a_node16"><a xlink:href="mxtextdraw_8cpp.html" target="_top" xlink:title=" ">
<polygon fill="none" stroke="black" points="494,-274 494,-293 610,-293 610,-274 494,-274"/>
<text text-anchor="middle" x="552" y="-281" font-family="Helvetica,sans-Serif" font-size="10.00">src/gui/mxtextdraw.cpp</text>
</a>
</g>
</g>
<!-- Node15&#45;&gt;Node16 -->
<g id="edge18" class="edge">
<title>Node15&#45;&gt;Node16</title>
<path fill="none" stroke="midnightblue" d="M619.67,-339.97C602.32,-325.75 576.86,-304.88 562.63,-293.22"/>
<polygon fill="midnightblue" stroke="midnightblue" points="617.5,-342.72 627.45,-346.36 621.94,-337.31 617.5,-342.72"/>
</g>
<!-- Node17&#45;&gt;Node7 -->
<g id="edge20" class="edge">
<title>Node17&#45;&gt;Node7</title>
<path fill="none" stroke="midnightblue" d="M942.2,-271.88C935.75,-270.54 929.22,-269.21 923,-268 840.39,-251.88 743.87,-235.23 687.01,-225.65"/>
<polygon fill="midnightblue" stroke="midnightblue" points="941.7,-275.35 952.21,-273.99 943.15,-268.5 941.7,-275.35"/>
</g>
<!-- Node18 -->
<g id="node18" class="node">
<title>Node18</title>
<g id="a_node18"><a xlink:href="mxsvgpainter_8cpp.html" target="_top" xlink:title=" ">
<polygon fill="none" stroke="black" points="1077.5,-140 1077.5,-159 1202.5,-159 1202.5,-140 1077.5,-140"/>
<text text-anchor="middle" x="1140" y="-147" font-family="Helvetica,sans-Serif" font-size="10.00">src/gui/mxsvgpainter.cpp</text>
</a>
</g>
</g>
<!-- Node17&#45;&gt;Node18 -->
<g id="edge21" class="edge">
<title>Node17&#45;&gt;Node18</title>
<path fill="none" stroke="midnightblue" d="M1008.36,-267.12C1039.93,-239.16 1105.71,-180.88 1130.38,-159.02"/>
<polygon fill="midnightblue" stroke="midnightblue" points="1005.94,-264.59 1000.78,-273.84 1010.58,-269.83 1005.94,-264.59"/>
</g>
<!-- Node19 -->
<g id="node19" class="node">
<title>Node19</title>
<g id="a_node19"><a xlink:href="mxsvgpainter_8h.html" target="_top" xlink:title=" ">
<polygon fill="none" stroke="black" points="916,-207 916,-226 1030,-226 1030,-207 916,-207"/>
<text text-anchor="middle" x="973" y="-214" font-family="Helvetica,sans-Serif" font-size="10.00">src/gui/mxsvgpainter.h</text>
</a>
</g>
</g>
<!-- Node17&#45;&gt;Node19 -->
<g id="edge22" class="edge">
<title>Node17&#45;&gt;Node19</title>
<path fill="none" stroke="midnightblue" d="M985.85,-263.91C982.41,-251.49 978.04,-235.72 975.39,-226.13"/>
<polygon fill="midnightblue" stroke="midnightblue" points="982.53,-265.03 988.57,-273.73 989.28,-263.16 982.53,-265.03"/>
</g>
<!-- Node23 -->
<g id="node23" class="node">
<title>Node23</title>
<g id="a_node23"><a xlink:href="mxvectordraw_8cpp.html" target="_top" xlink:title=" ">
<polygon fill="none" stroke="black" points="770,-207 770,-226 898,-226 898,-207 770,-207"/>
<text text-anchor="middle" x="834" y="-214" font-family="Helvetica,sans-Serif" font-size="10.00">src/gui/mxvectordraw.cpp</text>
</a>
</g>
</g>
<!-- Node17&#45;&gt;Node23 -->
<g id="edge28" class="edge">
<title>Node17&#45;&gt;Node23</title>
<path fill="none" stroke="midnightblue" d="M960.68,-269.95C929.6,-257.08 882.07,-237.4 854.93,-226.17"/>
<polygon fill="midnightblue" stroke="midnightblue" points="959.57,-273.28 970.15,-273.87 962.25,-266.81 959.57,-273.28"/>
</g>
<!-- Node24 -->
<g id="node24" class="node">
<title>Node24</title>
<g id="a_node24"><a xlink:href="opengl_2vectorprogram_2mxvectorprogram_8h.html" target="_top" xlink:title=" ">
<polygon fill="none" stroke="black" points="1158.5,-201.5 1158.5,-231.5 1325.5,-231.5 1325.5,-201.5 1158.5,-201.5"/>
<text text-anchor="start" x="1166.5" y="-219.5" font-family="Helvetica,sans-Serif" font-size="10.00">src/renderer/opengl</text>
<text text-anchor="middle" x="1242" y="-208.5" font-family="Helvetica,sans-Serif" font-size="10.00">/vectorprogram/mxvectorprogram.h</text>
</a>
</g>
</g>
<!-- Node17&#45;&gt;Node24 -->
<g id="edge29" class="edge">
<title>Node17&#45;&gt;Node24</title>
<path fill="none" stroke="midnightblue" d="M1033.83,-271.41C1076.33,-260.4 1141.6,-243.5 1187.71,-231.56"/>
<polygon fill="midnightblue" stroke="midnightblue" points="1032.88,-268.04 1024.07,-273.94 1034.63,-274.82 1032.88,-268.04"/>
</g>
<!-- Node19&#45;&gt;Node12 -->
<g id="edge23" class="edge">
<title>Node19&#45;&gt;Node12</title>
<path fill="none" stroke="midnightblue" d="M929.1,-204.9C921.75,-203.4 914.19,-202.02 907,-201 668.87,-167.1 605.02,-199.68 367,-165 356.85,-163.52 345.93,-161.29 336.03,-159.02"/>
<polygon fill="midnightblue" stroke="midnightblue" points="928.41,-208.33 938.92,-206.99 929.87,-201.48 928.41,-208.33"/>
</g>
<!-- Node19&#45;&gt;Node18 -->
<g id="edge24" class="edge">
<title>Node19&#45;&gt;Node18</title>
<path fill="none" stroke="midnightblue" d="M1004.85,-203.1C1038.01,-190.2 1089.06,-170.33 1118,-159.06"/>
<polygon fill="midnightblue" stroke="midnightblue" points="1003.23,-199.98 995.18,-206.87 1005.76,-206.5 1003.23,-199.98"/>
</g>
<!-- Node20 -->
<g id="node20" class="node">
<title>Node20</title>
<g id="a_node20"><a xlink:href="downarrowsvg_8cpp.html" target="_top" xlink:title=" ">
<polygon fill="none" stroke="black" points="526.5,-140 526.5,-159 701.5,-159 701.5,-140 526.5,-140"/>
<text text-anchor="middle" x="614" y="-147" font-family="Helvetica,sans-Serif" font-size="10.00">src/svg&#45;drawings/downarrowsvg.cpp</text>
</a>
</g>
</g>
<!-- Node19&#45;&gt;Node20 -->
<g id="edge25" class="edge">
<title>Node19&#45;&gt;Node20</title>
<path fill="none" stroke="midnightblue" d="M925.88,-204.87C919.54,-203.53 913.12,-202.2 907,-201 823.8,-184.7 726.75,-168.53 667.87,-159.03"/>
<polygon fill="midnightblue" stroke="midnightblue" points="925.2,-208.31 935.71,-207 926.68,-201.47 925.2,-208.31"/>
</g>
<!-- Node21 -->
<g id="node21" class="node">
<title>Node21</title>
<g id="a_node21"><a xlink:href="heartsvg_8cpp.html" target="_top" xlink:title=" ">
<polygon fill="none" stroke="black" points="719.5,-140 719.5,-159 868.5,-159 868.5,-140 719.5,-140"/>
<text text-anchor="middle" x="794" y="-147" font-family="Helvetica,sans-Serif" font-size="10.00">src/svg&#45;drawings/heartsvg.cpp</text>
</a>
</g>
</g>
<!-- Node19&#45;&gt;Node21 -->
<g id="edge26" class="edge">
<title>Node19&#45;&gt;Node21</title>
<path fill="none" stroke="midnightblue" d="M939.78,-203.44C904.27,-190.54 848.87,-170.42 817.58,-159.06"/>
<polygon fill="midnightblue" stroke="midnightblue" points="938.64,-206.75 949.23,-206.87 941.03,-200.17 938.64,-206.75"/>
</g>
<!-- Node22 -->
<g id="node22" class="node">
<title>Node22</title>
<g id="a_node22"><a xlink:href="plusminussvg_8cpp.html" target="_top" xlink:title=" ">
<polygon fill="none" stroke="black" points="887,-140 887,-159 1059,-159 1059,-140 887,-140"/>
<text text-anchor="middle" x="973" y="-147" font-family="Helvetica,sans-Serif" font-size="10.00">src/svg&#45;drawings/plusminussvg.cpp</text>
</a>
</g>
</g>
<!-- Node19&#45;&gt;Node22 -->
<g id="edge27" class="edge">
<title>Node19&#45;&gt;Node22</title>
<path fill="none" stroke="midnightblue" d="M973,-196.54C973,-184.17 973,-168.62 973,-159.13"/>
<polygon fill="midnightblue" stroke="midnightblue" points="969.5,-196.73 973,-206.73 976.5,-196.73 969.5,-196.73"/>
</g>
<!-- Node25 -->
<g id="node25" class="node">
<title>Node25</title>
<g id="a_node25"><a xlink:href="opengl_2vectorprogram_2mxvectorprogram_8cpp.html" target="_top" xlink:title=" ">
<polygon fill="none" stroke="black" points="1220,-134.5 1220,-164.5 1398,-164.5 1398,-134.5 1220,-134.5"/>
<text text-anchor="start" x="1228" y="-152.5" font-family="Helvetica,sans-Serif" font-size="10.00">src/renderer/opengl</text>
<text text-anchor="middle" x="1309" y="-141.5" font-family="Helvetica,sans-Serif" font-size="10.00">/vectorprogram/mxvectorprogram.cpp</text>
</a>
</g>
</g>
<!-- Node24&#45;&gt;Node25 -->
<g id="edge30" class="edge">
<title>Node24&#45;&gt;Node25</title>
<path fill="none" stroke="midnightblue" d="M1263.84,-194.31C1273.89,-184.56 1285.54,-173.26 1294.49,-164.58"/>
<polygon fill="midnightblue" stroke="midnightblue" points="1261.28,-191.92 1256.54,-201.4 1266.15,-196.94 1261.28,-191.92"/>
</g>
<!-- Node26&#45;&gt;Node9 -->
<g id="edge32" class="edge">
<title>Node26&#45;&gt;Node9</title>
<path fill="none" stroke="midnightblue" d="M1199.07,-343.45C1208.19,-340.65 1217.94,-337.69 1227,-335 1282.84,-318.44 1310.15,-338.44 1353,-299 1387.25,-267.47 1371.82,-243.86 1390,-201 1396.91,-184.71 1403.13,-182.27 1407,-165 1410.01,-151.56 1416.46,-144.01 1407,-134 1378.97,-104.34 793.94,-89.31 586.86,-84.91"/>
<polygon fill="midnightblue" stroke="midnightblue" points="1198,-340.12 1189.48,-346.41 1200.07,-346.81 1198,-340.12"/>
</g>
<!-- Node27 -->
<g id="node27" class="node">
<title>Node27</title>
<g id="a_node27"><a xlink:href="mxmouseevent_8cpp.html" target="_top" xlink:title=" ">
<polygon fill="none" stroke="black" points="1194.5,-274 1194.5,-293 1343.5,-293 1343.5,-274 1194.5,-274"/>
<text text-anchor="middle" x="1269" y="-281" font-family="Helvetica,sans-Serif" font-size="10.00">src/events/mxmouseevent.cpp</text>
</a>
</g>
</g>
<!-- Node26&#45;&gt;Node27 -->
<g id="edge33" class="edge">
<title>Node26&#45;&gt;Node27</title>
<path fill="none" stroke="midnightblue" d="M1183.64,-340.74C1205.24,-326.51 1237.75,-305.09 1255.77,-293.22"/>
<polygon fill="midnightblue" stroke="midnightblue" points="1181.55,-337.93 1175.12,-346.36 1185.4,-343.78 1181.55,-337.93"/>
</g>
<!-- Node28 -->
<g id="node28" class="node">
<title>Node28</title>
<g id="a_node28"><a xlink:href="mxwidget_8cpp.html" target="_top" xlink:title=" ">
<polygon fill="none" stroke="black" points="1068,-274 1068,-293 1176,-293 1176,-274 1068,-274"/>
<text text-anchor="middle" x="1122" y="-281" font-family="Helvetica,sans-Serif" font-size="10.00">src/gui/mxwidget.cpp</text>
</a>
</g>
</g>
<!-- Node26&#45;&gt;Node28 -->
<g id="edge34" class="edge">
<title>Node26&#45;&gt;Node28</title>
<path fill="none" stroke="midnightblue" d="M1152.12,-337.59C1144.13,-323.5 1133.2,-304.24 1126.94,-293.22"/>
<polygon fill="midnightblue" stroke="midnightblue" points="1149.12,-339.38 1157.1,-346.36 1155.2,-335.93 1149.12,-339.38"/>
</g>
<!-- Node29&#45;&gt;Node3 -->
<g id="edge36" class="edge">
<title>Node29&#45;&gt;Node3</title>
<path fill="none" stroke="midnightblue" d="M384.77,-268.27C405.36,-255.4 434.99,-236.88 452.2,-226.13"/>
<polygon fill="midnightblue" stroke="midnightblue" points="382.65,-265.47 376.03,-273.73 386.36,-271.4 382.65,-265.47"/>
</g>
<!-- Node29&#45;&gt;Node12 -->
<g id="edge37" class="edge">
<title>Node29&#45;&gt;Node12</title>
<path fill="none" stroke="midnightblue" d="M362.68,-263.56C362.57,-246.42 360.53,-220.87 351,-201 342.63,-183.55 325.97,-168.19 314.66,-159.12"/>
<polygon fill="midnightblue" stroke="midnightblue" points="359.18,-263.87 362.52,-273.92 366.18,-263.97 359.18,-263.87"/>
</g>
<!-- Node30 -->
<g id="node30" class="node">
<title>Node30</title>
<g id="a_node30"><a xlink:href="mxabstractatlas_8cpp.html" target="_top" xlink:title=" ">
<polygon fill="none" stroke="black" points="28,-207 28,-226 190,-226 190,-207 28,-207"/>
<text text-anchor="middle" x="109" y="-214" font-family="Helvetica,sans-Serif" font-size="10.00">src/iconatlas/mxabstractatlas.cpp</text>
</a>
</g>
</g>
<!-- Node29&#45;&gt;Node30 -->
<g id="edge38" class="edge">
<title>Node29&#45;&gt;Node30</title>
<path fill="none" stroke="midnightblue" d="M318.81,-271.4C268.88,-258.58 187.77,-237.74 142.41,-226.08"/>
<polygon fill="midnightblue" stroke="midnightblue" points="318.11,-274.84 328.66,-273.94 319.85,-268.06 318.11,-274.84"/>
</g>
<!-- Node31 -->
<g id="node31" class="node">
<title>Node31</title>
<g id="a_node31"><a xlink:href="mxiconatlas_8h.html" target="_top" xlink:title=" ">
<polygon fill="none" stroke="black" points="208,-207 208,-226 342,-226 342,-207 208,-207"/>
<text text-anchor="middle" x="275" y="-214" font-family="Helvetica,sans-Serif" font-size="10.00">src/iconatlas/mxiconatlas.h</text>
</a>
</g>
</g>
<!-- Node29&#45;&gt;Node31 -->
<g id="edge39" class="edge">
<title>Node29&#45;&gt;Node31</title>
<path fill="none" stroke="midnightblue" d="M342.01,-267.57C324.84,-254.74 300.68,-236.69 286.55,-226.13"/>
<polygon fill="midnightblue" stroke="midnightblue" points="340.16,-270.55 350.27,-273.73 344.35,-264.94 340.16,-270.55"/>
</g>
<!-- Node31&#45;&gt;Node11 -->
<g id="edge41" class="edge">
<title>Node31&#45;&gt;Node11</title>
<path fill="none" stroke="midnightblue" d="M219.17,-204.96C163.48,-193.87 84.94,-176.49 76,-165 53.75,-136.39 98.58,-112.05 136.16,-97.61"/>
<polygon fill="midnightblue" stroke="midnightblue" points="218.79,-208.45 229.28,-206.95 220.14,-201.58 218.79,-208.45"/>
</g>
<!-- Node32 -->
<g id="node32" class="node">
<title>Node32</title>
<g id="a_node32"><a xlink:href="mxiconatlas_8cpp.html" target="_top" xlink:title=" ">
<polygon fill="none" stroke="black" points="85.5,-140 85.5,-159 230.5,-159 230.5,-140 85.5,-140"/>
<text text-anchor="middle" x="158" y="-147" font-family="Helvetica,sans-Serif" font-size="10.00">src/iconatlas/mxiconatlas.cpp</text>
</a>
</g>
</g>
<!-- Node31&#45;&gt;Node32 -->
<g id="edge40" class="edge">
<title>Node31&#45;&gt;Node32</title>
<path fill="none" stroke="midnightblue" d="M250.32,-201.79C227.13,-188.9 193.14,-170.02 173.53,-159.13"/>
<polygon fill="midnightblue" stroke="midnightblue" points="248.78,-204.94 259.22,-206.73 252.18,-198.82 248.78,-204.94"/>
</g>
<!-- Node34 -->
<g id="node34" class="node">
<title>Node34</title>
<g id="a_node34"><a xlink:href="mxcolorwheelprogram_8cpp.html" target="_top" xlink:title=" ">
<polygon fill="none" stroke="black" points="1659.5,-268.5 1659.5,-298.5 1876.5,-298.5 1876.5,-268.5 1659.5,-268.5"/>
<text text-anchor="start" x="1667.5" y="-286.5" font-family="Helvetica,sans-Serif" font-size="10.00">src/renderer/opengl</text>
<text text-anchor="middle" x="1768" y="-275.5" font-family="Helvetica,sans-Serif" font-size="10.00">/colorwheelprogram/mxcolorwheelprogram.cpp</text>
</a>
</g>
</g>
<!-- Node33&#45;&gt;Node34 -->
<g id="edge44" class="edge">
<title>Node33&#45;&gt;Node34</title>
<path fill="none" stroke="midnightblue" d="M1768,-330.73C1768,-320.07 1768,-307.91 1768,-298.75"/>
<polygon fill="midnightblue" stroke="midnightblue" points="1764.5,-330.73 1768,-340.73 1771.5,-330.73 1764.5,-330.73"/>
</g>
<!-- Node36&#45;&gt;Node13 -->
<g id="edge48" class="edge">
<title>Node36&#45;&gt;Node13</title>
<path fill="none" stroke="midnightblue" d="M1431.73,-331.54C1443.58,-302.93 1463.25,-255.48 1473.06,-231.83"/>
<polygon fill="midnightblue" stroke="midnightblue" points="1428.48,-330.22 1427.89,-340.8 1434.95,-332.91 1428.48,-330.22"/>
</g>
</g>
</svg>
