<?xml version="1.0" encoding="UTF-8" standalone="no"?>
<!DOCTYPE svg PUBLIC "-//W3C//DTD SVG 1.1//EN"
 "http://www.w3.org/Graphics/SVG/1.1/DTD/svg11.dtd">
<!-- Generated by graphviz version 2.44.0 ()
 -->
<!-- Title: src/containers/mxrefcounter.h Pages: 1 -->
<svg width="1598pt" height="352pt"
 viewBox="0.00 0.00 1597.50 352.00" xmlns="http://www.w3.org/2000/svg" xmlns:xlink="http://www.w3.org/1999/xlink">
<g id="graph0" class="graph" transform="scale(1 1) rotate(0) translate(4 348)">
<title>src/containers/mxrefcounter.h</title>
<!-- Node1 -->
<g id="node1" class="node">
<title>Node1</title>
<g id="a_node1"><a xlink:title=" ">
<polygon fill="#bfbfbf" stroke="black" points="621.5,-324.5 621.5,-343.5 766.5,-343.5 766.5,-324.5 621.5,-324.5"/>
<text text-anchor="middle" x="694" y="-331.5" font-family="Helvetica,sans-Serif" font-size="10.00">src/containers/mxrefcounter.h</text>
</a>
</g>
</g>
<!-- Node2 -->
<g id="node2" class="node">
<title>Node2</title>
<g id="a_node2"><a xlink:href="mxgenericstring_8h.html" target="_top" xlink:title=" ">
<polygon fill="none" stroke="black" points="153.5,-268.5 153.5,-287.5 310.5,-287.5 310.5,-268.5 153.5,-268.5"/>
<text text-anchor="middle" x="232" y="-275.5" font-family="Helvetica,sans-Serif" font-size="10.00">src/containers/mxgenericstring.h</text>
</a>
</g>
</g>
<!-- Node1&#45;&gt;Node2 -->
<g id="edge1" class="edge">
<title>Node1&#45;&gt;Node2</title>
<path fill="none" stroke="midnightblue" d="M611.19,-323.32C524.07,-313.14 388.28,-297.27 305.03,-287.54"/>
<polygon fill="midnightblue" stroke="midnightblue" points="610.97,-326.82 621.3,-324.5 611.78,-319.87 610.97,-326.82"/>
</g>
<!-- Node6 -->
<g id="node6" class="node">
<title>Node6</title>
<g id="a_node6"><a xlink:href="mxlist_8h.html" target="_top" xlink:title=" ">
<polygon fill="none" stroke="black" points="637,-268.5 637,-287.5 751,-287.5 751,-268.5 637,-268.5"/>
<text text-anchor="middle" x="694" y="-275.5" font-family="Helvetica,sans-Serif" font-size="10.00">src/containers/mxlist.h</text>
</a>
</g>
</g>
<!-- Node1&#45;&gt;Node6 -->
<g id="edge5" class="edge">
<title>Node1&#45;&gt;Node6</title>
<path fill="none" stroke="midnightblue" d="M694,-313.8C694,-304.91 694,-294.78 694,-287.75"/>
<polygon fill="midnightblue" stroke="midnightblue" points="690.5,-314.08 694,-324.08 697.5,-314.08 690.5,-314.08"/>
</g>
<!-- Node26 -->
<g id="node26" class="node">
<title>Node26</title>
<g id="a_node26"><a xlink:href="mxrefcounter_8cpp.html" target="_top" xlink:title=" ">
<polygon fill="none" stroke="black" points="769.5,-268.5 769.5,-287.5 924.5,-287.5 924.5,-268.5 769.5,-268.5"/>
<text text-anchor="middle" x="847" y="-275.5" font-family="Helvetica,sans-Serif" font-size="10.00">src/containers/mxrefcounter.cpp</text>
</a>
</g>
</g>
<!-- Node1&#45;&gt;Node26 -->
<g id="edge29" class="edge">
<title>Node1&#45;&gt;Node26</title>
<path fill="none" stroke="midnightblue" d="M727.89,-321.04C756.68,-310.88 797.29,-296.55 822.87,-287.52"/>
<polygon fill="midnightblue" stroke="midnightblue" points="726.51,-317.81 718.24,-324.44 728.84,-324.42 726.51,-317.81"/>
</g>
<!-- Node3 -->
<g id="node3" class="node">
<title>Node3</title>
<g id="a_node3"><a xlink:href="mxgenericstring_8cpp.html" target="_top" xlink:title=" ">
<polygon fill="none" stroke="black" points="148.5,-207 148.5,-226 315.5,-226 315.5,-207 148.5,-207"/>
<text text-anchor="middle" x="232" y="-214" font-family="Helvetica,sans-Serif" font-size="10.00">src/containers/mxgenericstring.cpp</text>
</a>
</g>
</g>
<!-- Node2&#45;&gt;Node3 -->
<g id="edge2" class="edge">
<title>Node2&#45;&gt;Node3</title>
<path fill="none" stroke="midnightblue" d="M232,-258.32C232,-247.5 232,-234.4 232,-226.01"/>
<polygon fill="midnightblue" stroke="midnightblue" points="228.5,-258.48 232,-268.48 235.5,-258.48 228.5,-258.48"/>
</g>
<!-- Node4 -->
<g id="node4" class="node">
<title>Node4</title>
<g id="a_node4"><a xlink:href="mxstring_8h.html" target="_top" xlink:title=" ">
<polygon fill="none" stroke="black" points="5.5,-207 5.5,-226 130.5,-226 130.5,-207 5.5,-207"/>
<text text-anchor="middle" x="68" y="-214" font-family="Helvetica,sans-Serif" font-size="10.00">src/containers/mxstring.h</text>
</a>
</g>
</g>
<!-- Node2&#45;&gt;Node4 -->
<g id="edge3" class="edge">
<title>Node2&#45;&gt;Node4</title>
<path fill="none" stroke="midnightblue" d="M198.74,-264.93C166.86,-253.37 119.57,-236.21 91.45,-226.01"/>
<polygon fill="midnightblue" stroke="midnightblue" points="197.91,-268.35 208.5,-268.48 200.3,-261.77 197.91,-268.35"/>
</g>
<!-- Node5 -->
<g id="node5" class="node">
<title>Node5</title>
<g id="a_node5"><a xlink:href="mxstring_8cpp.html" target="_top" xlink:title=" ">
<polygon fill="none" stroke="black" points="0,-140 0,-159 136,-159 136,-140 0,-140"/>
<text text-anchor="middle" x="68" y="-147" font-family="Helvetica,sans-Serif" font-size="10.00">src/containers/mxstring.cpp</text>
</a>
</g>
</g>
<!-- Node4&#45;&gt;Node5 -->
<g id="edge4" class="edge">
<title>Node4&#45;&gt;Node5</title>
<path fill="none" stroke="midnightblue" d="M68,-196.54C68,-184.17 68,-168.62 68,-159.13"/>
<polygon fill="midnightblue" stroke="midnightblue" points="64.5,-196.73 68,-206.73 71.5,-196.73 64.5,-196.73"/>
</g>
<!-- Node7 -->
<g id="node7" class="node">
<title>Node7</title>
<g id="a_node7"><a xlink:href="mxpainter_8h.html" target="_top" xlink:title=" ">
<polygon fill="none" stroke="black" points="1036,-207 1036,-226 1134,-226 1134,-207 1036,-207"/>
<text text-anchor="middle" x="1085" y="-214" font-family="Helvetica,sans-Serif" font-size="10.00">src/gui/mxpainter.h</text>
</a>
</g>
</g>
<!-- Node6&#45;&gt;Node7 -->
<g id="edge6" class="edge">
<title>Node6&#45;&gt;Node7</title>
<path fill="none" stroke="midnightblue" d="M760.22,-266.92C838.27,-255.05 966.15,-235.59 1035.88,-224.97"/>
<polygon fill="midnightblue" stroke="midnightblue" points="759.38,-263.51 750.02,-268.48 760.43,-270.43 759.38,-263.51"/>
</g>
<!-- Node13 -->
<g id="node13" class="node">
<title>Node13</title>
<g id="a_node13"><a xlink:href="mxwidgetlist_8h.html" target="_top" xlink:title=" ">
<polygon fill="none" stroke="black" points="1169,-207 1169,-226 1279,-226 1279,-207 1169,-207"/>
<text text-anchor="middle" x="1224" y="-214" font-family="Helvetica,sans-Serif" font-size="10.00">src/gui/mxwidgetlist.h</text>
</a>
</g>
</g>
<!-- Node6&#45;&gt;Node13 -->
<g id="edge13" class="edge">
<title>Node6&#45;&gt;Node13</title>
<path fill="none" stroke="midnightblue" d="M760.69,-268.04C760.8,-268.02 760.9,-268.01 761,-268 930.43,-248.64 974.03,-255.04 1143,-232 1155.03,-230.36 1168,-228.21 1179.96,-226.07"/>
<polygon fill="midnightblue" stroke="midnightblue" points="760.52,-264.53 751,-269.19 761.34,-271.48 760.52,-264.53"/>
</g>
<!-- Node17 -->
<g id="node17" class="node">
<title>Node17</title>
<g id="a_node17"><a xlink:href="mxiconatlas_8h.html" target="_top" xlink:title=" ">
<polygon fill="none" stroke="black" points="334,-207 334,-226 468,-226 468,-207 334,-207"/>
<text text-anchor="middle" x="401" y="-214" font-family="Helvetica,sans-Serif" font-size="10.00">src/iconatlas/mxiconatlas.h</text>
</a>
</g>
</g>
<!-- Node6&#45;&gt;Node17 -->
<g id="edge19" class="edge">
<title>Node6&#45;&gt;Node17</title>
<path fill="none" stroke="midnightblue" d="M642.17,-266.47C585.38,-254.94 495.41,-236.67 442.9,-226.01"/>
<polygon fill="midnightblue" stroke="midnightblue" points="641.52,-269.91 652.02,-268.48 642.92,-263.05 641.52,-269.91"/>
</g>
<!-- Node19 -->
<g id="node19" class="node">
<title>Node19</title>
<g id="a_node19"><a xlink:href="direct12_2mxrenderer_8h.html" target="_top" xlink:title=" ">
<polygon fill="none" stroke="black" points="551,-201.5 551,-231.5 657,-231.5 657,-201.5 551,-201.5"/>
<text text-anchor="start" x="559" y="-219.5" font-family="Helvetica,sans-Serif" font-size="10.00">src/renderer/direct12</text>
<text text-anchor="middle" x="604" y="-208.5" font-family="Helvetica,sans-Serif" font-size="10.00">/mxrenderer.h</text>
</a>
</g>
</g>
<!-- Node6&#45;&gt;Node19 -->
<g id="edge22" class="edge">
<title>Node6&#45;&gt;Node19</title>
<path fill="none" stroke="midnightblue" d="M672.43,-262.74C658.12,-253.28 639.44,-240.93 625.21,-231.52"/>
<polygon fill="midnightblue" stroke="midnightblue" points="670.83,-265.88 681.11,-268.48 674.69,-260.04 670.83,-265.88"/>
</g>
<!-- Node22 -->
<g id="node22" class="node">
<title>Node22</title>
<g id="a_node22"><a xlink:href="opengl_2mxrenderer_8h.html" target="_top" xlink:title=" ">
<polygon fill="none" stroke="black" points="734,-201.5 734,-231.5 834,-231.5 834,-201.5 734,-201.5"/>
<text text-anchor="start" x="742" y="-219.5" font-family="Helvetica,sans-Serif" font-size="10.00">src/renderer/opengl</text>
<text text-anchor="middle" x="784" y="-208.5" font-family="Helvetica,sans-Serif" font-size="10.00">/mxrenderer.h</text>
</a>
</g>
</g>
<!-- Node6&#45;&gt;Node22 -->
<g id="edge25" class="edge">
<title>Node6&#45;&gt;Node22</title>
<path fill="none" stroke="midnightblue" d="M715.57,-262.74C729.88,-253.28 748.56,-240.93 762.79,-231.52"/>
<polygon fill="midnightblue" stroke="midnightblue" points="713.31,-260.04 706.89,-268.48 717.17,-265.88 713.31,-260.04"/>
</g>
<!-- Node8 -->
<g id="node8" class="node">
<title>Node8</title>
<g id="a_node8"><a xlink:href="mxapplication_8h.html" target="_top" xlink:title=" ">
<polygon fill="none" stroke="black" points="1158,-140 1158,-159 1290,-159 1290,-140 1158,-140"/>
<text text-anchor="middle" x="1224" y="-147" font-family="Helvetica,sans-Serif" font-size="10.00">src/events/mxapplication.h</text>
</a>
</g>
</g>
<!-- Node7&#45;&gt;Node8 -->
<g id="edge7" class="edge">
<title>Node7&#45;&gt;Node8</title>
<path fill="none" stroke="midnightblue" d="M1112.56,-202.61C1140.09,-189.74 1181.65,-170.31 1205.47,-159.17"/>
<polygon fill="midnightblue" stroke="midnightblue" points="1111.03,-199.46 1103.46,-206.87 1114,-205.8 1111.03,-199.46"/>
</g>
<!-- Node12 -->
<g id="node12" class="node">
<title>Node12</title>
<g id="a_node12"><a xlink:href="mxpainter_8cpp.html" target="_top" xlink:title=" ">
<polygon fill="none" stroke="black" points="1030.5,-140 1030.5,-159 1139.5,-159 1139.5,-140 1030.5,-140"/>
<text text-anchor="middle" x="1085" y="-147" font-family="Helvetica,sans-Serif" font-size="10.00">src/gui/mxpainter.cpp</text>
</a>
</g>
</g>
<!-- Node7&#45;&gt;Node12 -->
<g id="edge12" class="edge">
<title>Node7&#45;&gt;Node12</title>
<path fill="none" stroke="midnightblue" d="M1085,-196.54C1085,-184.17 1085,-168.62 1085,-159.13"/>
<polygon fill="midnightblue" stroke="midnightblue" points="1081.5,-196.73 1085,-206.73 1088.5,-196.73 1081.5,-196.73"/>
</g>
<!-- Node9 -->
<g id="node9" class="node">
<title>Node9</title>
<g id="a_node9"><a xlink:href="mxapplication_8cpp.html" target="_top" xlink:title=" ">
<polygon fill="none" stroke="black" points="1152.5,-73 1152.5,-92 1295.5,-92 1295.5,-73 1152.5,-73"/>
<text text-anchor="middle" x="1224" y="-80" font-family="Helvetica,sans-Serif" font-size="10.00">src/events/mxapplication.cpp</text>
</a>
</g>
</g>
<!-- Node8&#45;&gt;Node9 -->
<g id="edge8" class="edge">
<title>Node8&#45;&gt;Node9</title>
<path fill="none" stroke="midnightblue" d="M1224,-129.54C1224,-117.17 1224,-101.62 1224,-92.13"/>
<polygon fill="midnightblue" stroke="midnightblue" points="1220.5,-129.73 1224,-139.73 1227.5,-129.73 1220.5,-129.73"/>
</g>
<!-- Node10 -->
<g id="node10" class="node">
<title>Node10</title>
<g id="a_node10"><a xlink:href="qmewawindow_8cpp.html" target="_top" xlink:title=" ">
<polygon fill="none" stroke="black" points="1023,-0.5 1023,-30.5 1139,-30.5 1139,-0.5 1023,-0.5"/>
<text text-anchor="start" x="1031" y="-18.5" font-family="Helvetica,sans-Serif" font-size="10.00">src/platformabstraction</text>
<text text-anchor="middle" x="1081" y="-7.5" font-family="Helvetica,sans-Serif" font-size="10.00">/qt/qmewawindow.cpp</text>
</a>
</g>
</g>
<!-- Node8&#45;&gt;Node10 -->
<g id="edge9" class="edge">
<title>Node8&#45;&gt;Node10</title>
<path fill="none" stroke="midnightblue" d="M1197.81,-135.06C1181.36,-125.9 1160.25,-112.78 1144,-98 1121.37,-77.43 1100.87,-47.97 1089.74,-30.68"/>
<polygon fill="midnightblue" stroke="midnightblue" points="1196.43,-138.29 1206.89,-139.98 1199.77,-132.14 1196.43,-138.29"/>
</g>
<!-- Node11 -->
<g id="node11" class="node">
<title>Node11</title>
<g id="a_node11"><a xlink:href="qmewawindow_8h.html" target="_top" xlink:title=" ">
<polygon fill="none" stroke="black" points="980,-67.5 980,-97.5 1096,-97.5 1096,-67.5 980,-67.5"/>
<text text-anchor="start" x="988" y="-85.5" font-family="Helvetica,sans-Serif" font-size="10.00">src/platformabstraction</text>
<text text-anchor="middle" x="1038" y="-74.5" font-family="Helvetica,sans-Serif" font-size="10.00">/qt/qmewawindow.h</text>
</a>
</g>
</g>
<!-- Node8&#45;&gt;Node11 -->
<g id="edge10" class="edge">
<title>Node8&#45;&gt;Node11</title>
<path fill="none" stroke="midnightblue" d="M1189.63,-136.49C1158.1,-125.47 1111.38,-109.14 1078.14,-97.53"/>
<polygon fill="midnightblue" stroke="midnightblue" points="1188.71,-139.87 1199.3,-139.87 1191.02,-133.27 1188.71,-139.87"/>
</g>
<!-- Node11&#45;&gt;Node10 -->
<g id="edge11" class="edge">
<title>Node11&#45;&gt;Node10</title>
<path fill="none" stroke="midnightblue" d="M1052.97,-58.87C1059.2,-49.46 1066.23,-38.83 1071.69,-30.58"/>
<polygon fill="midnightblue" stroke="midnightblue" points="1049.93,-57.12 1047.33,-67.4 1055.77,-60.99 1049.93,-57.12"/>
</g>
<!-- Node13&#45;&gt;Node8 -->
<g id="edge14" class="edge">
<title>Node13&#45;&gt;Node8</title>
<path fill="none" stroke="midnightblue" d="M1224,-196.54C1224,-184.17 1224,-168.62 1224,-159.13"/>
<polygon fill="midnightblue" stroke="midnightblue" points="1220.5,-196.73 1224,-206.73 1227.5,-196.73 1220.5,-196.73"/>
</g>
<!-- Node14 -->
<g id="node14" class="node">
<title>Node14</title>
<g id="a_node14"><a xlink:href="mxwidget_8h.html" target="_top" xlink:title=" ">
<polygon fill="none" stroke="black" points="1314,-140 1314,-159 1412,-159 1412,-140 1314,-140"/>
<text text-anchor="middle" x="1363" y="-147" font-family="Helvetica,sans-Serif" font-size="10.00">src/gui/mxwidget.h</text>
</a>
</g>
</g>
<!-- Node13&#45;&gt;Node14 -->
<g id="edge15" class="edge">
<title>Node13&#45;&gt;Node14</title>
<path fill="none" stroke="midnightblue" d="M1251.56,-202.61C1279.09,-189.74 1320.65,-170.31 1344.47,-159.17"/>
<polygon fill="midnightblue" stroke="midnightblue" points="1250.03,-199.46 1242.46,-206.87 1253,-205.8 1250.03,-199.46"/>
</g>
<!-- Node14&#45;&gt;Node9 -->
<g id="edge16" class="edge">
<title>Node14&#45;&gt;Node9</title>
<path fill="none" stroke="midnightblue" d="M1335.44,-135.61C1307.91,-122.74 1266.35,-103.31 1242.53,-92.17"/>
<polygon fill="midnightblue" stroke="midnightblue" points="1334,-138.8 1344.54,-139.87 1336.97,-132.46 1334,-138.8"/>
</g>
<!-- Node15 -->
<g id="node15" class="node">
<title>Node15</title>
<g id="a_node15"><a xlink:href="mxmouseevent_8cpp.html" target="_top" xlink:title=" ">
<polygon fill="none" stroke="black" points="1440.5,-73 1440.5,-92 1589.5,-92 1589.5,-73 1440.5,-73"/>
<text text-anchor="middle" x="1515" y="-80" font-family="Helvetica,sans-Serif" font-size="10.00">src/events/mxmouseevent.cpp</text>
</a>
</g>
</g>
<!-- Node14&#45;&gt;Node15 -->
<g id="edge17" class="edge">
<title>Node14&#45;&gt;Node15</title>
<path fill="none" stroke="midnightblue" d="M1392.74,-135.78C1422.84,-122.91 1468.57,-103.35 1494.73,-92.17"/>
<polygon fill="midnightblue" stroke="midnightblue" points="1391,-132.72 1383.18,-139.87 1393.76,-139.15 1391,-132.72"/>
</g>
<!-- Node16 -->
<g id="node16" class="node">
<title>Node16</title>
<g id="a_node16"><a xlink:href="mxwidget_8cpp.html" target="_top" xlink:title=" ">
<polygon fill="none" stroke="black" points="1314,-73 1314,-92 1422,-92 1422,-73 1314,-73"/>
<text text-anchor="middle" x="1368" y="-80" font-family="Helvetica,sans-Serif" font-size="10.00">src/gui/mxwidget.cpp</text>
</a>
</g>
</g>
<!-- Node14&#45;&gt;Node16 -->
<g id="edge18" class="edge">
<title>Node14&#45;&gt;Node16</title>
<path fill="none" stroke="midnightblue" d="M1364.46,-129.54C1365.41,-117.17 1366.61,-101.62 1367.34,-92.13"/>
<polygon fill="midnightblue" stroke="midnightblue" points="1360.95,-129.49 1363.67,-139.73 1367.93,-130.03 1360.95,-129.49"/>
</g>
<!-- Node17&#45;&gt;Node11 -->
<g id="edge21" class="edge">
<title>Node17&#45;&gt;Node11</title>
<path fill="none" stroke="midnightblue" d="M343.88,-204.75C289.84,-192.21 221.49,-168.67 254,-134 278.78,-107.57 802.62,-90.22 979.93,-85.09"/>
<polygon fill="midnightblue" stroke="midnightblue" points="343.25,-208.2 353.77,-206.97 344.78,-201.37 343.25,-208.2"/>
</g>
<!-- Node18 -->
<g id="node18" class="node">
<title>Node18</title>
<g id="a_node18"><a xlink:href="mxiconatlas_8cpp.html" target="_top" xlink:title=" ">
<polygon fill="none" stroke="black" points="263.5,-140 263.5,-159 408.5,-159 408.5,-140 263.5,-140"/>
<text text-anchor="middle" x="336" y="-147" font-family="Helvetica,sans-Serif" font-size="10.00">src/iconatlas/mxiconatlas.cpp</text>
</a>
</g>
</g>
<!-- Node17&#45;&gt;Node18 -->
<g id="edge20" class="edge">
<title>Node17&#45;&gt;Node18</title>
<path fill="none" stroke="midnightblue" d="M385,-199.5C372.25,-186.75 354.89,-169.39 344.63,-159.13"/>
<polygon fill="midnightblue" stroke="midnightblue" points="382.69,-202.14 392.23,-206.73 387.64,-197.19 382.69,-202.14"/>
</g>
<!-- Node20 -->
<g id="node20" class="node">
<title>Node20</title>
<g id="a_node20"><a xlink:href="direct12_2mxrenderer_8cpp.html" target="_top" xlink:title=" ">
<polygon fill="none" stroke="black" points="427,-134.5 427,-164.5 533,-164.5 533,-134.5 427,-134.5"/>
<text text-anchor="start" x="435" y="-152.5" font-family="Helvetica,sans-Serif" font-size="10.00">src/renderer/direct12</text>
<text text-anchor="middle" x="480" y="-141.5" font-family="Helvetica,sans-Serif" font-size="10.00">/mxrenderer.cpp</text>
</a>
</g>
</g>
<!-- Node19&#45;&gt;Node20 -->
<g id="edge23" class="edge">
<title>Node19&#45;&gt;Node20</title>
<path fill="none" stroke="midnightblue" d="M568.16,-196.71C548.61,-186.46 524.8,-173.98 506.85,-164.58"/>
<polygon fill="midnightblue" stroke="midnightblue" points="566.61,-199.85 577.09,-201.4 569.86,-193.65 566.61,-199.85"/>
</g>
<!-- Node21 -->
<g id="node21" class="node">
<title>Node21</title>
<g id="a_node21"><a xlink:href="mxtexture_8cpp.html" target="_top" xlink:title=" ">
<polygon fill="none" stroke="black" points="551,-134.5 551,-164.5 657,-164.5 657,-134.5 551,-134.5"/>
<text text-anchor="start" x="559" y="-152.5" font-family="Helvetica,sans-Serif" font-size="10.00">src/renderer/direct12</text>
<text text-anchor="middle" x="604" y="-141.5" font-family="Helvetica,sans-Serif" font-size="10.00">/mxtexture.cpp</text>
</a>
</g>
</g>
<!-- Node19&#45;&gt;Node21 -->
<g id="edge24" class="edge">
<title>Node19&#45;&gt;Node21</title>
<path fill="none" stroke="midnightblue" d="M604,-191.11C604,-182.15 604,-172.32 604,-164.58"/>
<polygon fill="midnightblue" stroke="midnightblue" points="600.5,-191.4 604,-201.4 607.5,-191.4 600.5,-191.4"/>
</g>
<!-- Node23 -->
<g id="node23" class="node">
<title>Node23</title>
<g id="a_node23"><a xlink:href="opengl_2mxgpuarray_8cpp.html" target="_top" xlink:title=" ">
<polygon fill="none" stroke="black" points="793,-134.5 793,-164.5 893,-164.5 893,-134.5 793,-134.5"/>
<text text-anchor="start" x="801" y="-152.5" font-family="Helvetica,sans-Serif" font-size="10.00">src/renderer/opengl</text>
<text text-anchor="middle" x="843" y="-141.5" font-family="Helvetica,sans-Serif" font-size="10.00">/mxgpuarray.cpp</text>
</a>
</g>
</g>
<!-- Node22&#45;&gt;Node23 -->
<g id="edge26" class="edge">
<title>Node22&#45;&gt;Node23</title>
<path fill="none" stroke="midnightblue" d="M803.75,-193.74C812.48,-184.12 822.5,-173.09 830.22,-164.58"/>
<polygon fill="midnightblue" stroke="midnightblue" points="800.93,-191.64 796.8,-201.4 806.11,-196.34 800.93,-191.64"/>
</g>
<!-- Node24 -->
<g id="node24" class="node">
<title>Node24</title>
<g id="a_node24"><a xlink:href="opengl_2mxgpuprogram_8cpp.html" target="_top" xlink:title=" ">
<polygon fill="none" stroke="black" points="911.5,-134.5 911.5,-164.5 1012.5,-164.5 1012.5,-134.5 911.5,-134.5"/>
<text text-anchor="start" x="919.5" y="-152.5" font-family="Helvetica,sans-Serif" font-size="10.00">src/renderer/opengl</text>
<text text-anchor="middle" x="962" y="-141.5" font-family="Helvetica,sans-Serif" font-size="10.00">/mxgpuprogram.cpp</text>
</a>
</g>
</g>
<!-- Node22&#45;&gt;Node24 -->
<g id="edge27" class="edge">
<title>Node22&#45;&gt;Node24</title>
<path fill="none" stroke="midnightblue" d="M832.05,-197.96C860.72,-187.48 896.64,-174.37 923.45,-164.58"/>
<polygon fill="midnightblue" stroke="midnightblue" points="830.82,-194.68 822.62,-201.4 833.22,-201.25 830.82,-194.68"/>
</g>
<!-- Node25 -->
<g id="node25" class="node">
<title>Node25</title>
<g id="a_node25"><a xlink:href="opengl_2mxrenderer_8cpp.html" target="_top" xlink:title=" ">
<polygon fill="none" stroke="black" points="675,-134.5 675,-164.5 775,-164.5 775,-134.5 675,-134.5"/>
<text text-anchor="start" x="683" y="-152.5" font-family="Helvetica,sans-Serif" font-size="10.00">src/renderer/opengl</text>
<text text-anchor="middle" x="725" y="-141.5" font-family="Helvetica,sans-Serif" font-size="10.00">/mxrenderer.cpp</text>
</a>
</g>
</g>
<!-- Node22&#45;&gt;Node25 -->
<g id="edge28" class="edge">
<title>Node22&#45;&gt;Node25</title>
<path fill="none" stroke="midnightblue" d="M764.25,-193.74C755.52,-184.12 745.5,-173.09 737.78,-164.58"/>
<polygon fill="midnightblue" stroke="midnightblue" points="761.89,-196.34 771.2,-201.4 767.07,-191.64 761.89,-196.34"/>
</g>
</g>
</svg>
