<?xml version="1.0" encoding="UTF-8" standalone="no"?>
<!DOCTYPE svg PUBLIC "-//W3C//DTD SVG 1.1//EN"
 "http://www.w3.org/Graphics/SVG/1.1/DTD/svg11.dtd">
<!-- Generated by graphviz version 2.44.0 ()
 -->
<!-- Title: src/renderer/opengl/mxrenderer.h Pages: 1 -->
<svg width="2119pt" height="274pt"
 viewBox="0.00 0.00 2118.50 274.00" xmlns="http://www.w3.org/2000/svg" xmlns:xlink="http://www.w3.org/1999/xlink">
<g id="graph0" class="graph" transform="scale(1 1) rotate(0) translate(4 270)">
<title>src/renderer/opengl/mxrenderer.h</title>
<!-- Node1 -->
<g id="node1" class="node">
<title>Node1</title>
<g id="a_node1"><a xlink:title=" ">
<polygon fill="#bfbfbf" stroke="black" points="1206.5,-235.5 1206.5,-265.5 1306.5,-265.5 1306.5,-235.5 1206.5,-235.5"/>
<text text-anchor="start" x="1214.5" y="-253.5" font-family="Helvetica,sans-Serif" font-size="10.00">src/renderer/opengl</text>
<text text-anchor="middle" x="1256.5" y="-242.5" font-family="Helvetica,sans-Serif" font-size="10.00">/mxrenderer.h</text>
</a>
</g>
</g>
<!-- Node2 -->
<g id="node2" class="node">
<title>Node2</title>
<g id="a_node2"><a xlink:href="mxstaticfont__image_8cpp.html" target="_top" xlink:title=" ">
<polygon fill="none" stroke="black" points="333.5,-168.5 333.5,-198.5 455.5,-198.5 455.5,-168.5 333.5,-168.5"/>
<text text-anchor="start" x="341.5" y="-186.5" font-family="Helvetica,sans-Serif" font-size="10.00">src/font/staticfont</text>
<text text-anchor="middle" x="394.5" y="-175.5" font-family="Helvetica,sans-Serif" font-size="10.00">/mxstaticfont_image.cpp</text>
</a>
</g>
</g>
<!-- Node1&#45;&gt;Node2 -->
<g id="edge1" class="edge">
<title>Node1&#45;&gt;Node2</title>
<path fill="none" stroke="midnightblue" d="M1195.93,-248.47C1063.1,-245.6 736.41,-235.14 465.5,-199 462.26,-198.57 458.94,-198.07 455.6,-197.53"/>
<polygon fill="midnightblue" stroke="midnightblue" points="1196.22,-251.98 1206.29,-248.69 1196.37,-244.98 1196.22,-251.98"/>
</g>
<!-- Node3 -->
<g id="node3" class="node">
<title>Node3</title>
<g id="a_node3"><a xlink:href="mxguirenderer_8h.html" target="_top" xlink:title=" ">
<polygon fill="none" stroke="black" points="474,-174 474,-193 591,-193 591,-174 474,-174"/>
<text text-anchor="middle" x="532.5" y="-181" font-family="Helvetica,sans-Serif" font-size="10.00">src/gui/mxguirenderer.h</text>
</a>
</g>
</g>
<!-- Node1&#45;&gt;Node3 -->
<g id="edge2" class="edge">
<title>Node1&#45;&gt;Node3</title>
<path fill="none" stroke="midnightblue" d="M1196.38,-247.55C1080.55,-243.21 818.61,-230.51 600.5,-199 589.87,-197.46 578.41,-195.24 567.98,-193"/>
<polygon fill="midnightblue" stroke="midnightblue" points="1196.34,-251.05 1206.46,-247.92 1196.6,-244.06 1196.34,-251.05"/>
</g>
<!-- Node15 -->
<g id="node15" class="node">
<title>Node15</title>
<g id="a_node15"><a xlink:href="mxicondraw_8cpp.html" target="_top" xlink:title=" ">
<polygon fill="none" stroke="black" points="609,-174 609,-193 728,-193 728,-174 609,-174"/>
<text text-anchor="middle" x="668.5" y="-181" font-family="Helvetica,sans-Serif" font-size="10.00">src/gui/mxicondraw.cpp</text>
</a>
</g>
</g>
<!-- Node1&#45;&gt;Node15 -->
<g id="edge15" class="edge">
<title>Node1&#45;&gt;Node15</title>
<path fill="none" stroke="midnightblue" d="M1195.96,-245.78C1098.84,-239.33 902.41,-224.27 737.5,-199 726.97,-197.39 715.63,-195.2 705.25,-193.01"/>
<polygon fill="midnightblue" stroke="midnightblue" points="1195.96,-249.29 1206.17,-246.45 1196.42,-242.3 1195.96,-249.29"/>
</g>
<!-- Node16 -->
<g id="node16" class="node">
<title>Node16</title>
<g id="a_node16"><a xlink:href="mxvectordraw_8cpp.html" target="_top" xlink:title=" ">
<polygon fill="none" stroke="black" points="746.5,-174 746.5,-193 874.5,-193 874.5,-174 746.5,-174"/>
<text text-anchor="middle" x="810.5" y="-181" font-family="Helvetica,sans-Serif" font-size="10.00">src/gui/mxvectordraw.cpp</text>
</a>
</g>
</g>
<!-- Node1&#45;&gt;Node16 -->
<g id="edge16" class="edge">
<title>Node1&#45;&gt;Node16</title>
<path fill="none" stroke="midnightblue" d="M1196.22,-242.5C1122.34,-233.65 993.39,-217.33 883.5,-199 873.05,-197.26 861.8,-195.14 851.34,-193.07"/>
<polygon fill="midnightblue" stroke="midnightblue" points="1195.93,-245.99 1206.28,-243.7 1196.76,-239.04 1195.93,-245.99"/>
</g>
<!-- Node17 -->
<g id="node17" class="node">
<title>Node17</title>
<g id="a_node17"><a xlink:href="mxiconatlas_8h.html" target="_top" xlink:title=" ">
<polygon fill="none" stroke="black" points="892.5,-174 892.5,-193 1026.5,-193 1026.5,-174 892.5,-174"/>
<text text-anchor="middle" x="959.5" y="-181" font-family="Helvetica,sans-Serif" font-size="10.00">src/iconatlas/mxiconatlas.h</text>
</a>
</g>
</g>
<!-- Node1&#45;&gt;Node17 -->
<g id="edge17" class="edge">
<title>Node1&#45;&gt;Node17</title>
<path fill="none" stroke="midnightblue" d="M1196.5,-236.37C1137.39,-223.43 1048.82,-204.05 998.37,-193.01"/>
<polygon fill="midnightblue" stroke="midnightblue" points="1195.94,-239.83 1206.45,-238.55 1197.43,-232.99 1195.94,-239.83"/>
</g>
<!-- Node19 -->
<g id="node19" class="node">
<title>Node19</title>
<g id="a_node19"><a xlink:href="mxcolorwheelprogram_8cpp.html" target="_top" xlink:title=" ">
<polygon fill="none" stroke="black" points="1045,-168.5 1045,-198.5 1262,-198.5 1262,-168.5 1045,-168.5"/>
<text text-anchor="start" x="1053" y="-186.5" font-family="Helvetica,sans-Serif" font-size="10.00">src/renderer/opengl</text>
<text text-anchor="middle" x="1153.5" y="-175.5" font-family="Helvetica,sans-Serif" font-size="10.00">/colorwheelprogram/mxcolorwheelprogram.cpp</text>
</a>
</g>
</g>
<!-- Node1&#45;&gt;Node19 -->
<g id="edge20" class="edge">
<title>Node1&#45;&gt;Node19</title>
<path fill="none" stroke="midnightblue" d="M1225.62,-230.02C1209.6,-219.9 1190.37,-207.77 1175.81,-198.58"/>
<polygon fill="midnightblue" stroke="midnightblue" points="1223.83,-233.02 1234.15,-235.4 1227.56,-227.1 1223.83,-233.02"/>
</g>
<!-- Node20 -->
<g id="node20" class="node">
<title>Node20</title>
<g id="a_node20"><a xlink:href="mxiconprogram_8cpp.html" target="_top" xlink:title=" ">
<polygon fill="none" stroke="black" points="1280.5,-168.5 1280.5,-198.5 1440.5,-198.5 1440.5,-168.5 1280.5,-168.5"/>
<text text-anchor="start" x="1288.5" y="-186.5" font-family="Helvetica,sans-Serif" font-size="10.00">src/renderer/opengl</text>
<text text-anchor="middle" x="1360.5" y="-175.5" font-family="Helvetica,sans-Serif" font-size="10.00">/iconprogram/mxiconprogram.cpp</text>
</a>
</g>
</g>
<!-- Node1&#45;&gt;Node20 -->
<g id="edge21" class="edge">
<title>Node1&#45;&gt;Node20</title>
<path fill="none" stroke="midnightblue" d="M1287.68,-230.02C1303.86,-219.9 1323.27,-207.77 1337.98,-198.58"/>
<polygon fill="midnightblue" stroke="midnightblue" points="1285.69,-227.13 1279.07,-235.4 1289.4,-233.06 1285.69,-227.13"/>
</g>
<!-- Node21 -->
<g id="node21" class="node">
<title>Node21</title>
<g id="a_node21"><a xlink:href="mxgpuarray_8cpp.html" target="_top" xlink:title=" ">
<polygon fill="none" stroke="black" points="1458.5,-168.5 1458.5,-198.5 1558.5,-198.5 1558.5,-168.5 1458.5,-168.5"/>
<text text-anchor="start" x="1466.5" y="-186.5" font-family="Helvetica,sans-Serif" font-size="10.00">src/renderer/opengl</text>
<text text-anchor="middle" x="1508.5" y="-175.5" font-family="Helvetica,sans-Serif" font-size="10.00">/mxgpuarray.cpp</text>
</a>
</g>
</g>
<!-- Node1&#45;&gt;Node21 -->
<g id="edge22" class="edge">
<title>Node1&#45;&gt;Node21</title>
<path fill="none" stroke="midnightblue" d="M1316.4,-234.05C1359.59,-222.91 1417.23,-208.04 1458.08,-197.51"/>
<polygon fill="midnightblue" stroke="midnightblue" points="1315.4,-230.69 1306.59,-236.58 1317.15,-237.47 1315.4,-230.69"/>
</g>
<!-- Node22 -->
<g id="node22" class="node">
<title>Node22</title>
<g id="a_node22"><a xlink:href="mxgpuprogram_8cpp.html" target="_top" xlink:title=" ">
<polygon fill="none" stroke="black" points="1577,-168.5 1577,-198.5 1678,-198.5 1678,-168.5 1577,-168.5"/>
<text text-anchor="start" x="1585" y="-186.5" font-family="Helvetica,sans-Serif" font-size="10.00">src/renderer/opengl</text>
<text text-anchor="middle" x="1627.5" y="-175.5" font-family="Helvetica,sans-Serif" font-size="10.00">/mxgpuprogram.cpp</text>
</a>
</g>
</g>
<!-- Node1&#45;&gt;Node22 -->
<g id="edge23" class="edge">
<title>Node1&#45;&gt;Node22</title>
<path fill="none" stroke="midnightblue" d="M1316.66,-241.12C1379.49,-232.04 1480.77,-216.49 1567.5,-199 1570.55,-198.39 1573.67,-197.72 1576.82,-197.03"/>
<polygon fill="midnightblue" stroke="midnightblue" points="1315.94,-237.69 1306.54,-242.57 1316.93,-244.62 1315.94,-237.69"/>
</g>
<!-- Node23 -->
<g id="node23" class="node">
<title>Node23</title>
<g id="a_node23"><a xlink:href="mxrenderer_8cpp.html" target="_top" xlink:title=" ">
<polygon fill="none" stroke="black" points="1696.5,-168.5 1696.5,-198.5 1796.5,-198.5 1796.5,-168.5 1696.5,-168.5"/>
<text text-anchor="start" x="1704.5" y="-186.5" font-family="Helvetica,sans-Serif" font-size="10.00">src/renderer/opengl</text>
<text text-anchor="middle" x="1746.5" y="-175.5" font-family="Helvetica,sans-Serif" font-size="10.00">/mxrenderer.cpp</text>
</a>
</g>
</g>
<!-- Node1&#45;&gt;Node23 -->
<g id="edge24" class="edge">
<title>Node1&#45;&gt;Node23</title>
<path fill="none" stroke="midnightblue" d="M1316.65,-244.83C1400.28,-237.8 1556.19,-222.73 1687.5,-199 1690.41,-198.47 1693.38,-197.89 1696.38,-197.27"/>
<polygon fill="midnightblue" stroke="midnightblue" points="1316.25,-241.35 1306.57,-245.67 1316.83,-248.33 1316.25,-241.35"/>
</g>
<!-- Node24 -->
<g id="node24" class="node">
<title>Node24</title>
<g id="a_node24"><a xlink:href="mxtexture_8cpp.html" target="_top" xlink:title=" ">
<polygon fill="none" stroke="black" points="1814.5,-168.5 1814.5,-198.5 1914.5,-198.5 1914.5,-168.5 1814.5,-168.5"/>
<text text-anchor="start" x="1822.5" y="-186.5" font-family="Helvetica,sans-Serif" font-size="10.00">src/renderer/opengl</text>
<text text-anchor="middle" x="1864.5" y="-175.5" font-family="Helvetica,sans-Serif" font-size="10.00">/mxtexture.cpp</text>
</a>
</g>
</g>
<!-- Node1&#45;&gt;Node24 -->
<g id="edge25" class="edge">
<title>Node1&#45;&gt;Node24</title>
<path fill="none" stroke="midnightblue" d="M1316.84,-246.9C1418.33,-241.86 1629.37,-228.57 1805.5,-199 1808.41,-198.51 1811.39,-197.96 1814.39,-197.35"/>
<polygon fill="midnightblue" stroke="midnightblue" points="1316.6,-243.41 1306.78,-247.39 1316.94,-250.4 1316.6,-243.41"/>
</g>
<!-- Node25 -->
<g id="node25" class="node">
<title>Node25</title>
<g id="a_node25"><a xlink:href="mxvectorprogram_8cpp.html" target="_top" xlink:title=" ">
<polygon fill="none" stroke="black" points="1932.5,-168.5 1932.5,-198.5 2110.5,-198.5 2110.5,-168.5 1932.5,-168.5"/>
<text text-anchor="start" x="1940.5" y="-186.5" font-family="Helvetica,sans-Serif" font-size="10.00">src/renderer/opengl</text>
<text text-anchor="middle" x="2021.5" y="-175.5" font-family="Helvetica,sans-Serif" font-size="10.00">/vectorprogram/mxvectorprogram.cpp</text>
</a>
</g>
</g>
<!-- Node1&#45;&gt;Node25 -->
<g id="edge26" class="edge">
<title>Node1&#45;&gt;Node25</title>
<path fill="none" stroke="midnightblue" d="M1317.02,-246.37C1434.29,-239.98 1700.56,-223.9 1923.5,-199 1926.41,-198.68 1929.36,-198.33 1932.34,-197.97"/>
<polygon fill="midnightblue" stroke="midnightblue" points="1316.61,-242.88 1306.82,-246.92 1316.99,-249.87 1316.61,-242.88"/>
</g>
<!-- Node4 -->
<g id="node4" class="node">
<title>Node4</title>
<g id="a_node4"><a xlink:href="mxapplication_8h.html" target="_top" xlink:title=" ">
<polygon fill="none" stroke="black" points="496.5,-112.5 496.5,-131.5 628.5,-131.5 628.5,-112.5 496.5,-112.5"/>
<text text-anchor="middle" x="562.5" y="-119.5" font-family="Helvetica,sans-Serif" font-size="10.00">src/events/mxapplication.h</text>
</a>
</g>
</g>
<!-- Node3&#45;&gt;Node4 -->
<g id="edge3" class="edge">
<title>Node3&#45;&gt;Node4</title>
<path fill="none" stroke="midnightblue" d="M541.41,-164.83C546.96,-153.83 553.85,-140.16 558.21,-131.51"/>
<polygon fill="midnightblue" stroke="midnightblue" points="538.18,-163.47 536.8,-173.98 544.43,-166.62 538.18,-163.47"/>
</g>
<!-- Node11 -->
<g id="node11" class="node">
<title>Node11</title>
<g id="a_node11"><a xlink:href="mxguirenderer_8cpp.html" target="_top" xlink:title=" ">
<polygon fill="none" stroke="black" points="646.5,-112.5 646.5,-131.5 774.5,-131.5 774.5,-112.5 646.5,-112.5"/>
<text text-anchor="middle" x="710.5" y="-119.5" font-family="Helvetica,sans-Serif" font-size="10.00">src/gui/mxguirenderer.cpp</text>
</a>
</g>
</g>
<!-- Node3&#45;&gt;Node11 -->
<g id="edge11" class="edge">
<title>Node3&#45;&gt;Node11</title>
<path fill="none" stroke="midnightblue" d="M567.71,-170.73C602.31,-159.17 654.27,-141.8 685.04,-131.51"/>
<polygon fill="midnightblue" stroke="midnightblue" points="566.38,-167.49 558,-173.98 568.6,-174.12 566.38,-167.49"/>
</g>
<!-- Node12 -->
<g id="node12" class="node">
<title>Node12</title>
<g id="a_node12"><a xlink:href="mxpainter_8cpp.html" target="_top" xlink:title=" ">
<polygon fill="none" stroke="black" points="176,-112.5 176,-131.5 285,-131.5 285,-112.5 176,-112.5"/>
<text text-anchor="middle" x="230.5" y="-119.5" font-family="Helvetica,sans-Serif" font-size="10.00">src/gui/mxpainter.cpp</text>
</a>
</g>
</g>
<!-- Node3&#45;&gt;Node12 -->
<g id="edge12" class="edge">
<title>Node3&#45;&gt;Node12</title>
<path fill="none" stroke="midnightblue" d="M482.75,-171.77C476.61,-170.48 470.41,-169.2 464.5,-168 399.22,-154.77 323.5,-140.38 276.29,-131.52"/>
<polygon fill="midnightblue" stroke="midnightblue" points="482.47,-175.29 492.97,-173.93 483.91,-168.44 482.47,-175.29"/>
</g>
<!-- Node13 -->
<g id="node13" class="node">
<title>Node13</title>
<g id="a_node13"><a xlink:href="qmewapluginwindow_8h.html" target="_top" xlink:title=" ">
<polygon fill="none" stroke="black" points="303,-112.5 303,-131.5 478,-131.5 478,-112.5 303,-112.5"/>
<text text-anchor="middle" x="390.5" y="-119.5" font-family="Helvetica,sans-Serif" font-size="10.00">src/pluginsdk/qmewapluginwindow.h</text>
</a>
</g>
</g>
<!-- Node3&#45;&gt;Node13 -->
<g id="edge13" class="edge">
<title>Node3&#45;&gt;Node13</title>
<path fill="none" stroke="midnightblue" d="M502.62,-169.98C475.04,-158.42 434.83,-141.58 410.81,-131.51"/>
<polygon fill="midnightblue" stroke="midnightblue" points="501.58,-173.34 512.15,-173.98 504.28,-166.88 501.58,-173.34"/>
</g>
<!-- Node5 -->
<g id="node5" class="node">
<title>Node5</title>
<g id="a_node5"><a xlink:href="mxapplication_8cpp.html" target="_top" xlink:title=" ">
<polygon fill="none" stroke="black" points="652,-56.5 652,-75.5 795,-75.5 795,-56.5 652,-56.5"/>
<text text-anchor="middle" x="723.5" y="-63.5" font-family="Helvetica,sans-Serif" font-size="10.00">src/events/mxapplication.cpp</text>
</a>
</g>
</g>
<!-- Node4&#45;&gt;Node5 -->
<g id="edge4" class="edge">
<title>Node4&#45;&gt;Node5</title>
<path fill="none" stroke="midnightblue" d="M597.76,-109.17C628.08,-99 671.07,-84.59 698.11,-75.52"/>
<polygon fill="midnightblue" stroke="midnightblue" points="596.38,-105.95 588.01,-112.44 598.6,-112.58 596.38,-105.95"/>
</g>
<!-- Node6 -->
<g id="node6" class="node">
<title>Node6</title>
<g id="a_node6"><a xlink:href="qmewawindow_8cpp.html" target="_top" xlink:title=" ">
<polygon fill="none" stroke="black" points="794,-0.5 794,-19.5 959,-19.5 959,-0.5 794,-0.5"/>
<text text-anchor="middle" x="876.5" y="-7.5" font-family="Helvetica,sans-Serif" font-size="10.00">src/platform/qt/qmewawindow.cpp</text>
</a>
</g>
</g>
<!-- Node4&#45;&gt;Node6 -->
<g id="edge5" class="edge">
<title>Node4&#45;&gt;Node6</title>
<path fill="none" stroke="midnightblue" d="M638.88,-111.4C698.53,-103.06 775.94,-90.12 804.5,-76 832.58,-62.12 857.86,-34.1 869.59,-19.81"/>
<polygon fill="midnightblue" stroke="midnightblue" points="638.15,-107.97 628.72,-112.8 639.11,-114.9 638.15,-107.97"/>
</g>
<!-- Node7 -->
<g id="node7" class="node">
<title>Node7</title>
<g id="a_node7"><a xlink:href="qmewawindow_8h.html" target="_top" xlink:title=" ">
<polygon fill="none" stroke="black" points="852,-56.5 852,-75.5 1007,-75.5 1007,-56.5 852,-56.5"/>
<text text-anchor="middle" x="929.5" y="-63.5" font-family="Helvetica,sans-Serif" font-size="10.00">src/platform/qt/qmewawindow.h</text>
</a>
</g>
</g>
<!-- Node4&#45;&gt;Node7 -->
<g id="edge6" class="edge">
<title>Node4&#45;&gt;Node7</title>
<path fill="none" stroke="midnightblue" d="M630.6,-110.98C699.93,-100.78 806.23,-85.14 871.62,-75.52"/>
<polygon fill="midnightblue" stroke="midnightblue" points="630.04,-107.53 620.65,-112.44 631.06,-114.45 630.04,-107.53"/>
</g>
<!-- Node8 -->
<g id="node8" class="node">
<title>Node8</title>
<g id="a_node8"><a xlink:href="mxlabel_8cpp.html" target="_top" xlink:title=" ">
<polygon fill="none" stroke="black" points="203,-56.5 203,-75.5 324,-75.5 324,-56.5 203,-56.5"/>
<text text-anchor="middle" x="263.5" y="-63.5" font-family="Helvetica,sans-Serif" font-size="10.00">src/widgets/mxlabel.cpp</text>
</a>
</g>
</g>
<!-- Node4&#45;&gt;Node8 -->
<g id="edge8" class="edge">
<title>Node4&#45;&gt;Node8</title>
<path fill="none" stroke="midnightblue" d="M505.27,-110.66C448.76,-100.46 363.38,-85.04 310.66,-75.52"/>
<polygon fill="midnightblue" stroke="midnightblue" points="504.66,-114.11 515.12,-112.44 505.9,-107.22 504.66,-114.11"/>
</g>
<!-- Node9 -->
<g id="node9" class="node">
<title>Node9</title>
<g id="a_node9"><a xlink:href="mxlineedit_8cpp.html" target="_top" xlink:title=" ">
<polygon fill="none" stroke="black" points="342,-56.5 342,-75.5 473,-75.5 473,-56.5 342,-56.5"/>
<text text-anchor="middle" x="407.5" y="-63.5" font-family="Helvetica,sans-Serif" font-size="10.00">src/widgets/mxlineedit.cpp</text>
</a>
</g>
</g>
<!-- Node4&#45;&gt;Node9 -->
<g id="edge9" class="edge">
<title>Node4&#45;&gt;Node9</title>
<path fill="none" stroke="midnightblue" d="M528.17,-109.04C499,-98.88 457.86,-84.55 431.95,-75.52"/>
<polygon fill="midnightblue" stroke="midnightblue" points="527.34,-112.46 537.94,-112.44 529.65,-105.85 527.34,-112.46"/>
</g>
<!-- Node10 -->
<g id="node10" class="node">
<title>Node10</title>
<g id="a_node10"><a xlink:href="mxtextbutton_8cpp.html" target="_top" xlink:title=" ">
<polygon fill="none" stroke="black" points="491,-56.5 491,-75.5 634,-75.5 634,-56.5 491,-56.5"/>
<text text-anchor="middle" x="562.5" y="-63.5" font-family="Helvetica,sans-Serif" font-size="10.00">src/widgets/mxtextbutton.cpp</text>
</a>
</g>
</g>
<!-- Node4&#45;&gt;Node10 -->
<g id="edge10" class="edge">
<title>Node4&#45;&gt;Node10</title>
<path fill="none" stroke="midnightblue" d="M562.5,-101.8C562.5,-92.91 562.5,-82.78 562.5,-75.75"/>
<polygon fill="midnightblue" stroke="midnightblue" points="559,-102.08 562.5,-112.08 566,-102.08 559,-102.08"/>
</g>
<!-- Node7&#45;&gt;Node6 -->
<g id="edge7" class="edge">
<title>Node7&#45;&gt;Node6</title>
<path fill="none" stroke="midnightblue" d="M913.52,-48.72C904.18,-39.2 892.75,-27.56 885.09,-19.75"/>
<polygon fill="midnightblue" stroke="midnightblue" points="911.25,-51.4 920.75,-56.08 916.24,-46.49 911.25,-51.4"/>
</g>
<!-- Node14 -->
<g id="node14" class="node">
<title>Node14</title>
<g id="a_node14"><a xlink:href="qmewapluginwindow_8cpp.html" target="_top" xlink:title=" ">
<polygon fill="none" stroke="black" points="0,-56.5 0,-75.5 185,-75.5 185,-56.5 0,-56.5"/>
<text text-anchor="middle" x="92.5" y="-63.5" font-family="Helvetica,sans-Serif" font-size="10.00">src/pluginsdk/qmewapluginwindow.cpp</text>
</a>
</g>
</g>
<!-- Node13&#45;&gt;Node14 -->
<g id="edge14" class="edge">
<title>Node13&#45;&gt;Node14</title>
<path fill="none" stroke="midnightblue" d="M333.11,-110.6C276.79,-100.4 191.94,-85.02 139.5,-75.52"/>
<polygon fill="midnightblue" stroke="midnightblue" points="332.82,-114.1 343.28,-112.44 334.07,-107.22 332.82,-114.1"/>
</g>
<!-- Node17&#45;&gt;Node7 -->
<g id="edge19" class="edge">
<title>Node17&#45;&gt;Node7</title>
<path fill="none" stroke="midnightblue" d="M954.7,-164C948.14,-138.76 936.65,-94.52 931.78,-75.78"/>
<polygon fill="midnightblue" stroke="midnightblue" points="951.34,-165.02 957.25,-173.82 958.12,-163.26 951.34,-165.02"/>
</g>
<!-- Node18 -->
<g id="node18" class="node">
<title>Node18</title>
<g id="a_node18"><a xlink:href="mxiconatlas_8cpp.html" target="_top" xlink:title=" ">
<polygon fill="none" stroke="black" points="958,-112.5 958,-131.5 1103,-131.5 1103,-112.5 958,-112.5"/>
<text text-anchor="middle" x="1030.5" y="-119.5" font-family="Helvetica,sans-Serif" font-size="10.00">src/iconatlas/mxiconatlas.cpp</text>
</a>
</g>
</g>
<!-- Node17&#45;&gt;Node18 -->
<g id="edge18" class="edge">
<title>Node17&#45;&gt;Node18</title>
<path fill="none" stroke="midnightblue" d="M977.43,-167.47C991.01,-156.09 1009.18,-140.87 1020.35,-131.51"/>
<polygon fill="midnightblue" stroke="midnightblue" points="975.09,-164.87 969.67,-173.98 979.59,-170.23 975.09,-164.87"/>
</g>
</g>
</svg>
