<?xml version="1.0" encoding="UTF-8" standalone="no"?>
<!DOCTYPE svg PUBLIC "-//W3C//DTD SVG 1.1//EN"
 "http://www.w3.org/Graphics/SVG/1.1/DTD/svg11.dtd">
<!-- Generated by graphviz version 2.44.0 ()
 -->
<!-- Title: src/geometry/mxrect.h Pages: 1 -->
<svg width="2338pt" height="430pt"
 viewBox="0.00 0.00 2337.98 430.00" xmlns="http://www.w3.org/2000/svg" xmlns:xlink="http://www.w3.org/1999/xlink">
<g id="graph0" class="graph" transform="scale(1 1) rotate(0) translate(4 426)">
<title>src/geometry/mxrect.h</title>
<!-- Node1 -->
<g id="node1" class="node">
<title>Node1</title>
<g id="a_node1"><a xlink:title=" ">
<polygon fill="#bfbfbf" stroke="black" points="1257.5,-402.5 1257.5,-421.5 1370.5,-421.5 1370.5,-402.5 1257.5,-402.5"/>
<text text-anchor="middle" x="1314" y="-409.5" font-family="Helvetica,sans-Serif" font-size="10.00">src/geometry/mxrect.h</text>
</a>
</g>
</g>
<!-- Node2 -->
<g id="node2" class="node">
<title>Node2</title>
<g id="a_node2"><a xlink:href="mxgeometryutils_8h.html" target="_top" xlink:title=" ">
<polygon fill="none" stroke="black" points="191,-341 191,-360 345,-360 345,-341 191,-341"/>
<text text-anchor="middle" x="268" y="-348" font-family="Helvetica,sans-Serif" font-size="10.00">src/geometry/mxgeometryutils.h</text>
</a>
</g>
</g>
<!-- Node1&#45;&gt;Node2 -->
<g id="edge1" class="edge">
<title>Node1&#45;&gt;Node2</title>
<path fill="none" stroke="midnightblue" d="M1247.01,-407.48C1107.59,-400.13 776.08,-382.43 498,-366 447.08,-362.99 389.83,-359.38 345.18,-356.52"/>
<polygon fill="midnightblue" stroke="midnightblue" points="1246.94,-410.99 1257.11,-408.02 1247.31,-404 1246.94,-410.99"/>
</g>
<!-- Node4 -->
<g id="node4" class="node">
<title>Node4</title>
<g id="a_node4"><a xlink:href="mxorthotransform_8h.html" target="_top" xlink:title=" ">
<polygon fill="none" stroke="black" points="2179,-341 2179,-360 2311,-360 2311,-341 2179,-341"/>
<text text-anchor="middle" x="2245" y="-348" font-family="Helvetica,sans-Serif" font-size="10.00">src/gui/mxorthotransform.h</text>
</a>
</g>
</g>
<!-- Node1&#45;&gt;Node4 -->
<g id="edge3" class="edge">
<title>Node1&#45;&gt;Node4</title>
<path fill="none" stroke="midnightblue" d="M1380.61,-410.63C1524.98,-409.14 1877.35,-401.81 2170,-366 2181.85,-364.55 2194.63,-362.33 2206.24,-360.06"/>
<polygon fill="midnightblue" stroke="midnightblue" points="1380.54,-407.13 1370.57,-410.73 1380.61,-414.13 1380.54,-407.13"/>
</g>
<!-- Node5 -->
<g id="node5" class="node">
<title>Node5</title>
<g id="a_node5"><a xlink:href="mxwidget_8h.html" target="_top" xlink:title=" ">
<polygon fill="none" stroke="black" points="2063,-341 2063,-360 2161,-360 2161,-341 2063,-341"/>
<text text-anchor="middle" x="2112" y="-348" font-family="Helvetica,sans-Serif" font-size="10.00">src/gui/mxwidget.h</text>
</a>
</g>
</g>
<!-- Node1&#45;&gt;Node5 -->
<g id="edge4" class="edge">
<title>Node1&#45;&gt;Node5</title>
<path fill="none" stroke="midnightblue" d="M1381.04,-408.99C1507.24,-404.7 1788.56,-392.79 2024,-366 2037.54,-364.46 2052.17,-362.26 2065.54,-360.05"/>
<polygon fill="midnightblue" stroke="midnightblue" points="1380.65,-405.5 1370.77,-409.33 1380.88,-412.49 1380.65,-405.5"/>
</g>
<!-- Node9 -->
<g id="node9" class="node">
<title>Node9</title>
<g id="a_node9"><a xlink:href="mxtextdraw_8h.html" target="_top" xlink:title=" ">
<polygon fill="none" stroke="black" points="1463,-341 1463,-360 1609,-360 1609,-341 1463,-341"/>
<text text-anchor="middle" x="1536" y="-348" font-family="Helvetica,sans-Serif" font-size="10.00">src/gui/textdraw/mxtextdraw.h</text>
</a>
</g>
</g>
<!-- Node1&#45;&gt;Node9 -->
<g id="edge8" class="edge">
<title>Node1&#45;&gt;Node9</title>
<path fill="none" stroke="midnightblue" d="M1355.7,-399.82C1398.83,-388.26 1465.21,-370.47 1504.25,-360.01"/>
<polygon fill="midnightblue" stroke="midnightblue" points="1354.56,-396.51 1345.81,-402.48 1356.37,-403.27 1354.56,-396.51"/>
</g>
<!-- Node12 -->
<g id="node12" class="node">
<title>Node12</title>
<g id="a_node12"><a xlink:href="qmewawindow_8cpp.html" target="_top" xlink:title=" ">
<polygon fill="none" stroke="black" points="970,-0.5 970,-30.5 1086,-30.5 1086,-0.5 970,-0.5"/>
<text text-anchor="start" x="978" y="-18.5" font-family="Helvetica,sans-Serif" font-size="10.00">src/platformabstraction</text>
<text text-anchor="middle" x="1028" y="-7.5" font-family="Helvetica,sans-Serif" font-size="10.00">/qt/qmewawindow.cpp</text>
</a>
</g>
</g>
<!-- Node1&#45;&gt;Node12 -->
<g id="edge24" class="edge">
<title>Node1&#45;&gt;Node12</title>
<path fill="none" stroke="midnightblue" d="M1247.08,-409.82C1019.73,-405.61 285.37,-390.24 182,-366 95.71,-345.76 0,-373.13 0,-284.5 0,-284.5 0,-284.5 0,-148.5 0,-49.98 752.32,-23.42 969.78,-17.8"/>
<polygon fill="midnightblue" stroke="midnightblue" points="1247.14,-413.32 1257.2,-410.01 1247.27,-406.32 1247.14,-413.32"/>
</g>
<!-- Node16 -->
<g id="node16" class="node">
<title>Node16</title>
<g id="a_node16"><a xlink:href="mxabstractatlas_8h.html" target="_top" xlink:title=" ">
<polygon fill="none" stroke="black" points="349,-207 349,-226 501,-226 501,-207 349,-207"/>
<text text-anchor="middle" x="425" y="-214" font-family="Helvetica,sans-Serif" font-size="10.00">src/iconatlas/mxabstractatlas.h</text>
</a>
</g>
</g>
<!-- Node1&#45;&gt;Node16 -->
<g id="edge17" class="edge">
<title>Node1&#45;&gt;Node16</title>
<path fill="none" stroke="midnightblue" d="M1247.16,-410.31C1112.96,-406.94 802.99,-389.13 562,-299 511.71,-280.19 458.97,-243.09 436.37,-226.22"/>
<polygon fill="midnightblue" stroke="midnightblue" points="1247.21,-413.81 1257.29,-410.54 1247.37,-406.81 1247.21,-413.81"/>
</g>
<!-- Node20 -->
<g id="node20" class="node">
<title>Node20</title>
<g id="a_node20"><a xlink:href="mxcolorwheelprogram_8h.html" target="_top" xlink:title=" ">
<polygon fill="none" stroke="black" points="571,-268.5 571,-298.5 777,-298.5 777,-268.5 571,-268.5"/>
<text text-anchor="start" x="579" y="-286.5" font-family="Helvetica,sans-Serif" font-size="10.00">src/renderer/opengl</text>
<text text-anchor="middle" x="674" y="-275.5" font-family="Helvetica,sans-Serif" font-size="10.00">/colorwheelprogram/mxcolorwheelprogram.h</text>
</a>
</g>
</g>
<!-- Node1&#45;&gt;Node20 -->
<g id="edge25" class="edge">
<title>Node1&#45;&gt;Node20</title>
<path fill="none" stroke="midnightblue" d="M1260.79,-400.48C1145.85,-377.76 874.33,-324.1 744.94,-298.52"/>
<polygon fill="midnightblue" stroke="midnightblue" points="1260.28,-403.95 1270.76,-402.45 1261.63,-397.08 1260.28,-403.95"/>
</g>
<!-- Node23 -->
<g id="node23" class="node">
<title>Node23</title>
<g id="a_node23"><a xlink:href="mxiconprogram_8cpp.html" target="_top" xlink:title=" ">
<polygon fill="none" stroke="black" points="1880,-134.5 1880,-164.5 2026,-164.5 2026,-134.5 1880,-134.5"/>
<text text-anchor="start" x="1888" y="-152.5" font-family="Helvetica,sans-Serif" font-size="10.00">src/renderer/opengl</text>
<text text-anchor="middle" x="1953" y="-141.5" font-family="Helvetica,sans-Serif" font-size="10.00">/icondraw/mxiconprogram.cpp</text>
</a>
</g>
</g>
<!-- Node1&#45;&gt;Node23 -->
<g id="edge40" class="edge">
<title>Node1&#45;&gt;Node23</title>
<path fill="none" stroke="midnightblue" d="M1380.62,-403.13C1442.44,-395.36 1536.86,-382.3 1618,-366 1672.71,-355.01 2068.76,-276.82 2102,-232 2127.65,-197.43 2075.58,-175.78 2026.09,-163.56"/>
<polygon fill="midnightblue" stroke="midnightblue" points="1380.1,-399.67 1370.61,-404.38 1380.96,-406.62 1380.1,-399.67"/>
</g>
<!-- Node30 -->
<g id="node30" class="node">
<title>Node30</title>
<g id="a_node30"><a xlink:href="mxiconprogram_8h.html" target="_top" xlink:title=" ">
<polygon fill="none" stroke="black" points="1372.5,-268.5 1372.5,-298.5 1507.5,-298.5 1507.5,-268.5 1372.5,-268.5"/>
<text text-anchor="start" x="1380.5" y="-286.5" font-family="Helvetica,sans-Serif" font-size="10.00">src/renderer/opengl</text>
<text text-anchor="middle" x="1440" y="-275.5" font-family="Helvetica,sans-Serif" font-size="10.00">/icondraw/mxiconprogram.h</text>
</a>
</g>
</g>
<!-- Node1&#45;&gt;Node30 -->
<g id="edge41" class="edge">
<title>Node1&#45;&gt;Node30</title>
<path fill="none" stroke="midnightblue" d="M1345.16,-398.03C1360.85,-390.39 1379.38,-379.55 1393,-366 1412.92,-346.19 1427.29,-316.21 1434.57,-298.67"/>
<polygon fill="midnightblue" stroke="midnightblue" points="1343.41,-394.98 1335.82,-402.37 1346.37,-401.33 1343.41,-394.98"/>
</g>
<!-- Node31 -->
<g id="node31" class="node">
<title>Node31</title>
<g id="a_node31"><a xlink:href="mxquaddraw_8h.html" target="_top" xlink:title=" ">
<polygon fill="none" stroke="black" points="1102,-335.5 1102,-365.5 1226,-365.5 1226,-335.5 1102,-335.5"/>
<text text-anchor="start" x="1110" y="-353.5" font-family="Helvetica,sans-Serif" font-size="10.00">src/renderer/opengl</text>
<text text-anchor="middle" x="1164" y="-342.5" font-family="Helvetica,sans-Serif" font-size="10.00">/icondraw/mxquaddraw.h</text>
</a>
</g>
</g>
<!-- Node1&#45;&gt;Node31 -->
<g id="edge44" class="edge">
<title>Node1&#45;&gt;Node31</title>
<path fill="none" stroke="midnightblue" d="M1283.04,-398.72C1258.69,-389.06 1224.76,-375.6 1199.35,-365.52"/>
<polygon fill="midnightblue" stroke="midnightblue" points="1281.92,-402.04 1292.51,-402.48 1284.5,-395.53 1281.92,-402.04"/>
</g>
<!-- Node34 -->
<g id="node34" class="node">
<title>Node34</title>
<g id="a_node34"><a xlink:href="mxvectordraw_8h.html" target="_top" xlink:title=" ">
<polygon fill="none" stroke="black" points="1244.5,-335.5 1244.5,-365.5 1383.5,-365.5 1383.5,-335.5 1244.5,-335.5"/>
<text text-anchor="start" x="1252.5" y="-353.5" font-family="Helvetica,sans-Serif" font-size="10.00">src/renderer/opengl</text>
<text text-anchor="middle" x="1314" y="-342.5" font-family="Helvetica,sans-Serif" font-size="10.00">/vectordraw/mxvectordraw.h</text>
</a>
</g>
</g>
<!-- Node1&#45;&gt;Node34 -->
<g id="edge50" class="edge">
<title>Node1&#45;&gt;Node34</title>
<path fill="none" stroke="midnightblue" d="M1314,-392.23C1314,-383.59 1314,-373.5 1314,-365.52"/>
<polygon fill="midnightblue" stroke="midnightblue" points="1310.5,-392.48 1314,-402.48 1317.5,-392.48 1310.5,-392.48"/>
</g>
<!-- Node3 -->
<g id="node3" class="node">
<title>Node3</title>
<g id="a_node3"><a xlink:href="mxicondraw_8cpp.html" target="_top" xlink:title=" ">
<polygon fill="none" stroke="black" points="28.5,-134.5 28.5,-164.5 159.5,-164.5 159.5,-134.5 28.5,-134.5"/>
<text text-anchor="start" x="36.5" y="-152.5" font-family="Helvetica,sans-Serif" font-size="10.00">src/renderer/opengl</text>
<text text-anchor="middle" x="94" y="-141.5" font-family="Helvetica,sans-Serif" font-size="10.00">/icondraw/mxicondraw.cpp</text>
</a>
</g>
</g>
<!-- Node2&#45;&gt;Node3 -->
<g id="edge2" class="edge">
<title>Node2&#45;&gt;Node3</title>
<path fill="none" stroke="midnightblue" d="M253.86,-333.33C220.56,-295.24 137.63,-200.39 106.27,-164.53"/>
<polygon fill="midnightblue" stroke="midnightblue" points="251.31,-335.72 260.52,-340.95 256.58,-331.12 251.31,-335.72"/>
</g>
<!-- Node6 -->
<g id="node6" class="node">
<title>Node6</title>
<g id="a_node6"><a xlink:href="mxapplication_8cpp.html" target="_top" xlink:title=" ">
<polygon fill="none" stroke="black" points="1759.5,-73 1759.5,-92 1902.5,-92 1902.5,-73 1759.5,-73"/>
<text text-anchor="middle" x="1831" y="-80" font-family="Helvetica,sans-Serif" font-size="10.00">src/events/mxapplication.cpp</text>
</a>
</g>
</g>
<!-- Node5&#45;&gt;Node6 -->
<g id="edge5" class="edge">
<title>Node5&#45;&gt;Node6</title>
<path fill="none" stroke="midnightblue" d="M2155.59,-338.54C2160.45,-337.34 2165.33,-336.14 2170,-335 2241.73,-317.54 2361.65,-330.27 2322,-268 2231.64,-126.09 2015.98,-92.91 1902.93,-85.44"/>
<polygon fill="midnightblue" stroke="midnightblue" points="2154.58,-335.19 2145.72,-341 2156.27,-341.98 2154.58,-335.19"/>
</g>
<!-- Node7 -->
<g id="node7" class="node">
<title>Node7</title>
<g id="a_node7"><a xlink:href="mxmouseevent_8cpp.html" target="_top" xlink:title=" ">
<polygon fill="none" stroke="black" points="2037.5,-274 2037.5,-293 2186.5,-293 2186.5,-274 2037.5,-274"/>
<text text-anchor="middle" x="2112" y="-281" font-family="Helvetica,sans-Serif" font-size="10.00">src/events/mxmouseevent.cpp</text>
</a>
</g>
</g>
<!-- Node5&#45;&gt;Node7 -->
<g id="edge6" class="edge">
<title>Node5&#45;&gt;Node7</title>
<path fill="none" stroke="midnightblue" d="M2112,-330.54C2112,-318.17 2112,-302.62 2112,-293.13"/>
<polygon fill="midnightblue" stroke="midnightblue" points="2108.5,-330.73 2112,-340.73 2115.5,-330.73 2108.5,-330.73"/>
</g>
<!-- Node8 -->
<g id="node8" class="node">
<title>Node8</title>
<g id="a_node8"><a xlink:href="mxwidget_8cpp.html" target="_top" xlink:title=" ">
<polygon fill="none" stroke="black" points="2205,-274 2205,-293 2313,-293 2313,-274 2205,-274"/>
<text text-anchor="middle" x="2259" y="-281" font-family="Helvetica,sans-Serif" font-size="10.00">src/gui/mxwidget.cpp</text>
</a>
</g>
</g>
<!-- Node5&#45;&gt;Node8 -->
<g id="edge7" class="edge">
<title>Node5&#45;&gt;Node8</title>
<path fill="none" stroke="midnightblue" d="M2140.76,-336.78C2169.88,-323.91 2214.1,-304.35 2239.4,-293.17"/>
<polygon fill="midnightblue" stroke="midnightblue" points="2139.25,-333.62 2131.52,-340.87 2142.08,-340.03 2139.25,-333.62"/>
</g>
<!-- Node10 -->
<g id="node10" class="node">
<title>Node10</title>
<g id="a_node10"><a xlink:href="mxpainter_8h.html" target="_top" xlink:title=" ">
<polygon fill="none" stroke="black" points="1168,-207 1168,-226 1266,-226 1266,-207 1168,-207"/>
<text text-anchor="middle" x="1217" y="-214" font-family="Helvetica,sans-Serif" font-size="10.00">src/gui/mxpainter.h</text>
</a>
</g>
</g>
<!-- Node9&#45;&gt;Node10 -->
<g id="edge9" class="edge">
<title>Node9&#45;&gt;Node10</title>
<path fill="none" stroke="midnightblue" d="M1537.14,-330.66C1537.15,-312 1534.01,-283.98 1517,-268 1512.44,-263.72 1350.25,-238.1 1266.29,-225.09"/>
<polygon fill="midnightblue" stroke="midnightblue" points="1533.63,-330.76 1536.81,-340.87 1540.63,-330.99 1533.63,-330.76"/>
</g>
<!-- Node15 -->
<g id="node15" class="node">
<title>Node15</title>
<g id="a_node15"><a xlink:href="mxtextdraw_8cpp.html" target="_top" xlink:title=" ">
<polygon fill="none" stroke="black" points="1716,-274 1716,-293 1872,-293 1872,-274 1716,-274"/>
<text text-anchor="middle" x="1794" y="-281" font-family="Helvetica,sans-Serif" font-size="10.00">src/gui/textdraw/mxtextdraw.cpp</text>
</a>
</g>
</g>
<!-- Node9&#45;&gt;Node15 -->
<g id="edge16" class="edge">
<title>Node9&#45;&gt;Node15</title>
<path fill="none" stroke="midnightblue" d="M1579.72,-338.48C1630.62,-325.66 1713.58,-304.76 1759.93,-293.08"/>
<polygon fill="midnightblue" stroke="midnightblue" points="1578.84,-335.1 1569.99,-340.94 1580.55,-341.89 1578.84,-335.1"/>
</g>
<!-- Node11 -->
<g id="node11" class="node">
<title>Node11</title>
<g id="a_node11"><a xlink:href="mxapplication_8h.html" target="_top" xlink:title=" ">
<polygon fill="none" stroke="black" points="1602,-140 1602,-159 1734,-159 1734,-140 1602,-140"/>
<text text-anchor="middle" x="1668" y="-147" font-family="Helvetica,sans-Serif" font-size="10.00">src/events/mxapplication.h</text>
</a>
</g>
</g>
<!-- Node10&#45;&gt;Node11 -->
<g id="edge10" class="edge">
<title>Node10&#45;&gt;Node11</title>
<path fill="none" stroke="midnightblue" d="M1260.78,-204.76C1267.21,-203.38 1273.76,-202.07 1280,-201 1418,-177.26 1454.6,-186.31 1593,-165 1604.01,-163.31 1615.87,-161.16 1626.84,-159.05"/>
<polygon fill="midnightblue" stroke="midnightblue" points="1259.86,-201.38 1250.86,-206.97 1261.39,-208.21 1259.86,-201.38"/>
</g>
<!-- Node14 -->
<g id="node14" class="node">
<title>Node14</title>
<g id="a_node14"><a xlink:href="mxpainter_8cpp.html" target="_top" xlink:title=" ">
<polygon fill="none" stroke="black" points="1752.5,-140 1752.5,-159 1861.5,-159 1861.5,-140 1752.5,-140"/>
<text text-anchor="middle" x="1807" y="-147" font-family="Helvetica,sans-Serif" font-size="10.00">src/gui/mxpainter.cpp</text>
</a>
</g>
</g>
<!-- Node10&#45;&gt;Node14 -->
<g id="edge15" class="edge">
<title>Node10&#45;&gt;Node14</title>
<path fill="none" stroke="midnightblue" d="M1260.08,-204.69C1266.72,-203.29 1273.52,-201.99 1280,-201 1484.02,-169.77 1538.92,-195.88 1743,-165 1753.03,-163.48 1763.82,-161.27 1773.63,-159.02"/>
<polygon fill="midnightblue" stroke="midnightblue" points="1258.85,-201.38 1249.85,-206.97 1260.37,-208.21 1258.85,-201.38"/>
</g>
<!-- Node11&#45;&gt;Node6 -->
<g id="edge11" class="edge">
<title>Node11&#45;&gt;Node6</title>
<path fill="none" stroke="midnightblue" d="M1699.08,-136.1C1731.45,-123.2 1781.28,-103.33 1809.52,-92.06"/>
<polygon fill="midnightblue" stroke="midnightblue" points="1697.64,-132.91 1689.65,-139.87 1700.23,-139.42 1697.64,-132.91"/>
</g>
<!-- Node11&#45;&gt;Node12 -->
<g id="edge12" class="edge">
<title>Node11&#45;&gt;Node12</title>
<path fill="none" stroke="midnightblue" d="M1616.66,-137.91C1499.03,-113.65 1210.63,-54.17 1086.44,-28.55"/>
<polygon fill="midnightblue" stroke="midnightblue" points="1616,-141.35 1626.5,-139.94 1617.41,-134.49 1616,-141.35"/>
</g>
<!-- Node13 -->
<g id="node13" class="node">
<title>Node13</title>
<g id="a_node13"><a xlink:href="qmewawindow_8h.html" target="_top" xlink:title=" ">
<polygon fill="none" stroke="black" points="970,-67.5 970,-97.5 1086,-97.5 1086,-67.5 970,-67.5"/>
<text text-anchor="start" x="978" y="-85.5" font-family="Helvetica,sans-Serif" font-size="10.00">src/platformabstraction</text>
<text text-anchor="middle" x="1028" y="-74.5" font-family="Helvetica,sans-Serif" font-size="10.00">/qt/qmewawindow.h</text>
</a>
</g>
</g>
<!-- Node11&#45;&gt;Node13 -->
<g id="edge13" class="edge">
<title>Node11&#45;&gt;Node13</title>
<path fill="none" stroke="midnightblue" d="M1618.03,-138.11C1609.7,-136.58 1601.12,-135.15 1593,-134 1408.94,-108.05 1189.15,-92.91 1086.38,-86.75"/>
<polygon fill="midnightblue" stroke="midnightblue" points="1617.56,-141.58 1628.04,-139.99 1618.86,-134.7 1617.56,-141.58"/>
</g>
<!-- Node13&#45;&gt;Node12 -->
<g id="edge14" class="edge">
<title>Node13&#45;&gt;Node12</title>
<path fill="none" stroke="midnightblue" d="M1028,-57.11C1028,-48.15 1028,-38.32 1028,-30.58"/>
<polygon fill="midnightblue" stroke="midnightblue" points="1024.5,-57.4 1028,-67.4 1031.5,-57.4 1024.5,-57.4"/>
</g>
<!-- Node16&#45;&gt;Node3 -->
<g id="edge23" class="edge">
<title>Node16&#45;&gt;Node3</title>
<path fill="none" stroke="midnightblue" d="M371.37,-204.97C313.63,-193.63 221.73,-175.58 159.7,-163.4"/>
<polygon fill="midnightblue" stroke="midnightblue" points="370.9,-208.44 381.39,-206.94 372.25,-201.57 370.9,-208.44"/>
</g>
<!-- Node16&#45;&gt;Node14 -->
<g id="edge18" class="edge">
<title>Node16&#45;&gt;Node14</title>
<path fill="none" stroke="midnightblue" d="M511.4,-213.12C785.05,-205.44 1621.75,-180.92 1743,-165 1753.39,-163.64 1764.58,-161.38 1774.65,-159.05"/>
<polygon fill="midnightblue" stroke="midnightblue" points="511.03,-209.63 501.13,-213.4 511.22,-216.62 511.03,-209.63"/>
</g>
<!-- Node17 -->
<g id="node17" class="node">
<title>Node17</title>
<g id="a_node17"><a xlink:href="mxabstractatlas_8cpp.html" target="_top" xlink:title=" ">
<polygon fill="none" stroke="black" points="178,-140 178,-159 340,-159 340,-140 178,-140"/>
<text text-anchor="middle" x="259" y="-147" font-family="Helvetica,sans-Serif" font-size="10.00">src/iconatlas/mxabstractatlas.cpp</text>
</a>
</g>
</g>
<!-- Node16&#45;&gt;Node17 -->
<g id="edge19" class="edge">
<title>Node16&#45;&gt;Node17</title>
<path fill="none" stroke="midnightblue" d="M393.34,-203.1C360.38,-190.2 309.64,-170.33 280.87,-159.06"/>
<polygon fill="midnightblue" stroke="midnightblue" points="392.37,-206.48 402.96,-206.87 394.92,-199.96 392.37,-206.48"/>
</g>
<!-- Node18 -->
<g id="node18" class="node">
<title>Node18</title>
<g id="a_node18"><a xlink:href="mxiconatlas_8h.html" target="_top" xlink:title=" ">
<polygon fill="none" stroke="black" points="358,-140 358,-159 492,-159 492,-140 358,-140"/>
<text text-anchor="middle" x="425" y="-147" font-family="Helvetica,sans-Serif" font-size="10.00">src/iconatlas/mxiconatlas.h</text>
</a>
</g>
</g>
<!-- Node16&#45;&gt;Node18 -->
<g id="edge20" class="edge">
<title>Node16&#45;&gt;Node18</title>
<path fill="none" stroke="midnightblue" d="M425,-196.54C425,-184.17 425,-168.62 425,-159.13"/>
<polygon fill="midnightblue" stroke="midnightblue" points="421.5,-196.73 425,-206.73 428.5,-196.73 421.5,-196.73"/>
</g>
<!-- Node18&#45;&gt;Node13 -->
<g id="edge22" class="edge">
<title>Node18&#45;&gt;Node13</title>
<path fill="none" stroke="midnightblue" d="M475.93,-138.11C484.29,-136.6 492.87,-135.16 501,-134 670.46,-109.77 872.29,-94.07 969.69,-87.31"/>
<polygon fill="midnightblue" stroke="midnightblue" points="475.09,-134.7 465.9,-139.97 476.37,-141.58 475.09,-134.7"/>
</g>
<!-- Node19 -->
<g id="node19" class="node">
<title>Node19</title>
<g id="a_node19"><a xlink:href="mxiconatlas_8cpp.html" target="_top" xlink:title=" ">
<polygon fill="none" stroke="black" points="352.5,-73 352.5,-92 497.5,-92 497.5,-73 352.5,-73"/>
<text text-anchor="middle" x="425" y="-80" font-family="Helvetica,sans-Serif" font-size="10.00">src/iconatlas/mxiconatlas.cpp</text>
</a>
</g>
</g>
<!-- Node18&#45;&gt;Node19 -->
<g id="edge21" class="edge">
<title>Node18&#45;&gt;Node19</title>
<path fill="none" stroke="midnightblue" d="M425,-129.54C425,-117.17 425,-101.62 425,-92.13"/>
<polygon fill="midnightblue" stroke="midnightblue" points="421.5,-129.73 425,-139.73 428.5,-129.73 421.5,-129.73"/>
</g>
<!-- Node21 -->
<g id="node21" class="node">
<title>Node21</title>
<g id="a_node21"><a xlink:href="mxcolorwheelprogram_8cpp.html" target="_top" xlink:title=" ">
<polygon fill="none" stroke="black" points="510.5,-134.5 510.5,-164.5 727.5,-164.5 727.5,-134.5 510.5,-134.5"/>
<text text-anchor="start" x="518.5" y="-152.5" font-family="Helvetica,sans-Serif" font-size="10.00">src/renderer/opengl</text>
<text text-anchor="middle" x="619" y="-141.5" font-family="Helvetica,sans-Serif" font-size="10.00">/colorwheelprogram/mxcolorwheelprogram.cpp</text>
</a>
</g>
</g>
<!-- Node20&#45;&gt;Node21 -->
<g id="edge26" class="edge">
<title>Node20&#45;&gt;Node21</title>
<path fill="none" stroke="midnightblue" d="M664.26,-259.12C652.83,-231.68 634.24,-187.09 624.84,-164.52"/>
<polygon fill="midnightblue" stroke="midnightblue" points="661.04,-260.49 668.11,-268.37 667.5,-257.8 661.04,-260.49"/>
</g>
<!-- Node22 -->
<g id="node22" class="node">
<title>Node22</title>
<g id="a_node22"><a xlink:href="mxrenderer_8h.html" target="_top" xlink:title=" ">
<polygon fill="none" stroke="black" points="1012,-201.5 1012,-231.5 1112,-231.5 1112,-201.5 1012,-201.5"/>
<text text-anchor="start" x="1020" y="-219.5" font-family="Helvetica,sans-Serif" font-size="10.00">src/renderer/opengl</text>
<text text-anchor="middle" x="1062" y="-208.5" font-family="Helvetica,sans-Serif" font-size="10.00">/mxrenderer.h</text>
</a>
</g>
</g>
<!-- Node20&#45;&gt;Node22 -->
<g id="edge27" class="edge">
<title>Node20&#45;&gt;Node22</title>
<path fill="none" stroke="midnightblue" d="M767.88,-266.77C844.71,-253.9 950.39,-236.2 1011.93,-225.89"/>
<polygon fill="midnightblue" stroke="midnightblue" points="767,-263.37 757.71,-268.48 768.15,-270.28 767,-263.37"/>
</g>
<!-- Node22&#45;&gt;Node3 -->
<g id="edge32" class="edge">
<title>Node22&#45;&gt;Node3</title>
<path fill="none" stroke="midnightblue" d="M1001.52,-214.88C857.03,-212.79 480.57,-203.75 169,-165 165.97,-164.62 162.88,-164.2 159.77,-163.73"/>
<polygon fill="midnightblue" stroke="midnightblue" points="1001.88,-218.39 1011.93,-215.02 1001.98,-211.39 1001.88,-218.39"/>
</g>
<!-- Node22&#45;&gt;Node11 -->
<g id="edge28" class="edge">
<title>Node22&#45;&gt;Node11</title>
<path fill="none" stroke="midnightblue" d="M1122.3,-205.86C1134.43,-204.1 1147.11,-202.38 1159,-201 1351.26,-178.68 1401.26,-191.41 1593,-165 1604.43,-163.43 1616.75,-161.25 1628.04,-159.06"/>
<polygon fill="midnightblue" stroke="midnightblue" points="1121.64,-202.42 1112.26,-207.35 1122.67,-209.34 1121.64,-202.42"/>
</g>
<!-- Node22&#45;&gt;Node14 -->
<g id="edge29" class="edge">
<title>Node22&#45;&gt;Node14</title>
<path fill="none" stroke="midnightblue" d="M1122.27,-205.66C1134.41,-203.91 1147.09,-202.25 1159,-201 1417.62,-173.75 1485.58,-201.85 1743,-165 1753.15,-163.55 1764.07,-161.32 1773.97,-159.05"/>
<polygon fill="midnightblue" stroke="midnightblue" points="1121.62,-202.22 1112.24,-207.14 1122.64,-209.14 1121.62,-202.22"/>
</g>
<!-- Node22&#45;&gt;Node18 -->
<g id="edge30" class="edge">
<title>Node22&#45;&gt;Node18</title>
<path fill="none" stroke="midnightblue" d="M1001.7,-212.03C898.7,-205.67 682.41,-190.41 501,-165 489.56,-163.4 477.23,-161.24 465.9,-159.07"/>
<polygon fill="midnightblue" stroke="midnightblue" points="1001.71,-215.54 1011.9,-212.66 1002.13,-208.55 1001.71,-215.54"/>
</g>
<!-- Node22&#45;&gt;Node21 -->
<g id="edge31" class="edge">
<title>Node22&#45;&gt;Node21</title>
<path fill="none" stroke="midnightblue" d="M1001.55,-206.63C927.69,-195.79 801.84,-177.33 714.76,-164.55"/>
<polygon fill="midnightblue" stroke="midnightblue" points="1001.21,-210.12 1011.61,-208.11 1002.23,-203.19 1001.21,-210.12"/>
</g>
<!-- Node22&#45;&gt;Node23 -->
<g id="edge33" class="edge">
<title>Node22&#45;&gt;Node23</title>
<path fill="none" stroke="midnightblue" d="M1122.26,-205.56C1134.4,-203.82 1147.09,-202.19 1159,-201 1474.28,-169.54 1556.16,-200.66 1871,-165 1873.87,-164.67 1876.8,-164.31 1879.75,-163.92"/>
<polygon fill="midnightblue" stroke="midnightblue" points="1121.61,-202.12 1112.23,-207.04 1122.63,-209.04 1121.61,-202.12"/>
</g>
<!-- Node24 -->
<g id="node24" class="node">
<title>Node24</title>
<g id="a_node24"><a xlink:href="mxcachedgpuarray_8cpp.html" target="_top" xlink:title=" ">
<polygon fill="none" stroke="black" points="1282.5,-134.5 1282.5,-164.5 1401.5,-164.5 1401.5,-134.5 1282.5,-134.5"/>
<text text-anchor="start" x="1290.5" y="-152.5" font-family="Helvetica,sans-Serif" font-size="10.00">src/renderer/opengl</text>
<text text-anchor="middle" x="1342" y="-141.5" font-family="Helvetica,sans-Serif" font-size="10.00">/mxcachedgpuarray.cpp</text>
</a>
</g>
</g>
<!-- Node22&#45;&gt;Node24 -->
<g id="edge34" class="edge">
<title>Node22&#45;&gt;Node24</title>
<path fill="none" stroke="midnightblue" d="M1121.88,-201.6C1169.26,-190.6 1235.1,-175.32 1282.41,-164.33"/>
<polygon fill="midnightblue" stroke="midnightblue" points="1121.01,-198.21 1112.06,-203.88 1122.59,-205.03 1121.01,-198.21"/>
</g>
<!-- Node25 -->
<g id="node25" class="node">
<title>Node25</title>
<g id="a_node25"><a xlink:href="mxgpuarray_8cpp.html" target="_top" xlink:title=" ">
<polygon fill="none" stroke="black" points="913,-134.5 913,-164.5 1013,-164.5 1013,-134.5 913,-134.5"/>
<text text-anchor="start" x="921" y="-152.5" font-family="Helvetica,sans-Serif" font-size="10.00">src/renderer/opengl</text>
<text text-anchor="middle" x="963" y="-141.5" font-family="Helvetica,sans-Serif" font-size="10.00">/mxgpuarray.cpp</text>
</a>
</g>
</g>
<!-- Node22&#45;&gt;Node25 -->
<g id="edge35" class="edge">
<title>Node22&#45;&gt;Node25</title>
<path fill="none" stroke="midnightblue" d="M1031.89,-195.73C1016.58,-185.68 998.31,-173.68 984.44,-164.58"/>
<polygon fill="midnightblue" stroke="midnightblue" points="1030.24,-198.83 1040.52,-201.4 1034.08,-192.98 1030.24,-198.83"/>
</g>
<!-- Node26 -->
<g id="node26" class="node">
<title>Node26</title>
<g id="a_node26"><a xlink:href="mxrenderer_8cpp.html" target="_top" xlink:title=" ">
<polygon fill="none" stroke="black" points="1031,-134.5 1031,-164.5 1131,-164.5 1131,-134.5 1031,-134.5"/>
<text text-anchor="start" x="1039" y="-152.5" font-family="Helvetica,sans-Serif" font-size="10.00">src/renderer/opengl</text>
<text text-anchor="middle" x="1081" y="-141.5" font-family="Helvetica,sans-Serif" font-size="10.00">/mxrenderer.cpp</text>
</a>
</g>
</g>
<!-- Node22&#45;&gt;Node26 -->
<g id="edge36" class="edge">
<title>Node22&#45;&gt;Node26</title>
<path fill="none" stroke="midnightblue" d="M1068.96,-191.7C1071.62,-182.59 1074.57,-172.49 1076.89,-164.58"/>
<polygon fill="midnightblue" stroke="midnightblue" points="1065.57,-190.82 1066.12,-201.4 1072.29,-192.78 1065.57,-190.82"/>
</g>
<!-- Node27 -->
<g id="node27" class="node">
<title>Node27</title>
<g id="a_node27"><a xlink:href="mxshaderprogram_8cpp.html" target="_top" xlink:title=" ">
<polygon fill="none" stroke="black" points="1149.5,-134.5 1149.5,-164.5 1264.5,-164.5 1264.5,-134.5 1149.5,-134.5"/>
<text text-anchor="start" x="1157.5" y="-152.5" font-family="Helvetica,sans-Serif" font-size="10.00">src/renderer/opengl</text>
<text text-anchor="middle" x="1207" y="-141.5" font-family="Helvetica,sans-Serif" font-size="10.00">/mxshaderprogram.cpp</text>
</a>
</g>
</g>
<!-- Node22&#45;&gt;Node27 -->
<g id="edge37" class="edge">
<title>Node22&#45;&gt;Node27</title>
<path fill="none" stroke="midnightblue" d="M1102.67,-197.27C1125.76,-186.92 1154.24,-174.15 1175.6,-164.58"/>
<polygon fill="midnightblue" stroke="midnightblue" points="1101.16,-194.11 1093.46,-201.4 1104.02,-200.5 1101.16,-194.11"/>
</g>
<!-- Node28 -->
<g id="node28" class="node">
<title>Node28</title>
<g id="a_node28"><a xlink:href="mxvectordraw_8cpp.html" target="_top" xlink:title=" ">
<polygon fill="none" stroke="black" points="745.5,-134.5 745.5,-164.5 894.5,-164.5 894.5,-134.5 745.5,-134.5"/>
<text text-anchor="start" x="753.5" y="-152.5" font-family="Helvetica,sans-Serif" font-size="10.00">src/renderer/opengl</text>
<text text-anchor="middle" x="820" y="-141.5" font-family="Helvetica,sans-Serif" font-size="10.00">/vectordraw/mxvectordraw.cpp</text>
</a>
</g>
</g>
<!-- Node22&#45;&gt;Node28 -->
<g id="edge38" class="edge">
<title>Node22&#45;&gt;Node28</title>
<path fill="none" stroke="midnightblue" d="M1002,-199.38C962.14,-188.68 910.31,-174.76 872.17,-164.51"/>
<polygon fill="midnightblue" stroke="midnightblue" points="1001.29,-202.82 1011.86,-202.03 1003.11,-196.06 1001.29,-202.82"/>
</g>
<!-- Node29 -->
<g id="node29" class="node">
<title>Node29</title>
<g id="a_node29"><a xlink:href="mxvectorprogram_8cpp.html" target="_top" xlink:title=" ">
<polygon fill="none" stroke="black" points="1420,-134.5 1420,-164.5 1584,-164.5 1584,-134.5 1420,-134.5"/>
<text text-anchor="start" x="1428" y="-152.5" font-family="Helvetica,sans-Serif" font-size="10.00">src/renderer/opengl</text>
<text text-anchor="middle" x="1502" y="-141.5" font-family="Helvetica,sans-Serif" font-size="10.00">/vectordraw/mxvectorprogram.cpp</text>
</a>
</g>
</g>
<!-- Node22&#45;&gt;Node29 -->
<g id="edge39" class="edge">
<title>Node22&#45;&gt;Node29</title>
<path fill="none" stroke="midnightblue" d="M1122.18,-201.69C1123.46,-201.45 1124.74,-201.22 1126,-201 1251.74,-178.87 1284.61,-183.05 1411,-165 1413.85,-164.59 1416.75,-164.17 1419.68,-163.74"/>
<polygon fill="midnightblue" stroke="midnightblue" points="1121.36,-198.28 1112.22,-203.64 1122.7,-205.15 1121.36,-198.28"/>
</g>
<!-- Node30&#45;&gt;Node22 -->
<g id="edge43" class="edge">
<title>Node30&#45;&gt;Node22</title>
<path fill="none" stroke="midnightblue" d="M1362.55,-269.18C1287.57,-256.29 1176.11,-237.12 1112.1,-226.11"/>
<polygon fill="midnightblue" stroke="midnightblue" points="1361.97,-272.63 1372.42,-270.88 1363.16,-265.74 1361.97,-272.63"/>
</g>
<!-- Node30&#45;&gt;Node23 -->
<g id="edge42" class="edge">
<title>Node30&#45;&gt;Node23</title>
<path fill="none" stroke="midnightblue" d="M1461.53,-261.48C1482.68,-242.21 1516.82,-214.67 1552,-201 1684.99,-149.31 1729.79,-185.43 1871,-165 1873.86,-164.59 1876.78,-164.15 1879.72,-163.69"/>
<polygon fill="midnightblue" stroke="midnightblue" points="1459.01,-259.04 1454.08,-268.41 1463.78,-264.16 1459.01,-259.04"/>
</g>
<!-- Node32 -->
<g id="node32" class="node">
<title>Node32</title>
<g id="a_node32"><a xlink:href="mxicondraw_8h.html" target="_top" xlink:title=" ">
<polygon fill="none" stroke="black" points="1156.5,-268.5 1156.5,-298.5 1277.5,-298.5 1277.5,-268.5 1156.5,-268.5"/>
<text text-anchor="start" x="1164.5" y="-286.5" font-family="Helvetica,sans-Serif" font-size="10.00">src/renderer/opengl</text>
<text text-anchor="middle" x="1217" y="-275.5" font-family="Helvetica,sans-Serif" font-size="10.00">/icondraw/mxicondraw.h</text>
</a>
</g>
</g>
<!-- Node31&#45;&gt;Node32 -->
<g id="edge45" class="edge">
<title>Node31&#45;&gt;Node32</title>
<path fill="none" stroke="midnightblue" d="M1181.98,-327.45C1189.77,-317.9 1198.65,-307 1205.52,-298.58"/>
<polygon fill="midnightblue" stroke="midnightblue" points="1179.11,-325.43 1175.5,-335.4 1184.53,-329.86 1179.11,-325.43"/>
</g>
<!-- Node33 -->
<g id="node33" class="node">
<title>Node33</title>
<g id="a_node33"><a xlink:href="mxquaddraw_8cpp.html" target="_top" xlink:title=" ">
<polygon fill="none" stroke="black" points="795,-268.5 795,-298.5 929,-298.5 929,-268.5 795,-268.5"/>
<text text-anchor="start" x="803" y="-286.5" font-family="Helvetica,sans-Serif" font-size="10.00">src/renderer/opengl</text>
<text text-anchor="middle" x="862" y="-275.5" font-family="Helvetica,sans-Serif" font-size="10.00">/icondraw/mxquaddraw.cpp</text>
</a>
</g>
</g>
<!-- Node31&#45;&gt;Node33 -->
<g id="edge49" class="edge">
<title>Node31&#45;&gt;Node33</title>
<path fill="none" stroke="midnightblue" d="M1092.01,-334C1041.95,-323.23 975.78,-308.99 927.26,-298.55"/>
<polygon fill="midnightblue" stroke="midnightblue" points="1091.28,-337.43 1101.79,-336.11 1092.75,-330.58 1091.28,-337.43"/>
</g>
<!-- Node32&#45;&gt;Node3 -->
<g id="edge47" class="edge">
<title>Node32&#45;&gt;Node3</title>
<path fill="none" stroke="midnightblue" d="M1146.05,-267.89C789.54,-224.25 690.24,-296.54 340,-232 261.24,-217.49 173.08,-183.75 126.66,-164.55"/>
<polygon fill="midnightblue" stroke="midnightblue" points="1145.78,-271.39 1156.14,-269.15 1146.65,-264.44 1145.78,-271.39"/>
</g>
<!-- Node32&#45;&gt;Node10 -->
<g id="edge46" class="edge">
<title>Node32&#45;&gt;Node10</title>
<path fill="none" stroke="midnightblue" d="M1217,-258.25C1217,-247.02 1217,-234.38 1217,-226.19"/>
<polygon fill="midnightblue" stroke="midnightblue" points="1213.5,-258.4 1217,-268.4 1220.5,-258.4 1213.5,-258.4"/>
</g>
<!-- Node32&#45;&gt;Node23 -->
<g id="edge48" class="edge">
<title>Node32&#45;&gt;Node23</title>
<path fill="none" stroke="midnightblue" d="M1240.92,-261.76C1268.21,-238.19 1309.66,-202.74 1314,-201 1429.11,-154.8 1747.85,-179.82 1871,-165 1873.87,-164.65 1876.79,-164.27 1879.74,-163.87"/>
<polygon fill="midnightblue" stroke="midnightblue" points="1238.58,-259.16 1233.3,-268.35 1243.16,-264.45 1238.58,-259.16"/>
</g>
<!-- Node34&#45;&gt;Node10 -->
<g id="edge51" class="edge">
<title>Node34&#45;&gt;Node10</title>
<path fill="none" stroke="midnightblue" d="M1310.12,-325.42C1306.42,-308.15 1299.48,-285.02 1287,-268 1273.26,-249.27 1250.5,-234.71 1234.67,-226.13"/>
<polygon fill="midnightblue" stroke="midnightblue" points="1306.7,-326.15 1312.03,-335.31 1313.57,-324.83 1306.7,-326.15"/>
</g>
<!-- Node34&#45;&gt;Node28 -->
<g id="edge59" class="edge">
<title>Node34&#45;&gt;Node28</title>
<path fill="none" stroke="midnightblue" d="M1234.29,-335C1118.5,-318.27 1078.49,-347.79 977,-299 959.63,-290.65 868.98,-200.01 833.89,-164.58"/>
<polygon fill="midnightblue" stroke="midnightblue" points="1233.83,-338.47 1244.24,-336.53 1234.89,-331.55 1233.83,-338.47"/>
</g>
<!-- Node35 -->
<g id="node35" class="node">
<title>Node35</title>
<g id="a_node35"><a xlink:href="mxsvgpainter_8cpp.html" target="_top" xlink:title=" ">
<polygon fill="none" stroke="black" points="1322.5,-207 1322.5,-226 1465.5,-226 1465.5,-207 1322.5,-207"/>
<text text-anchor="middle" x="1394" y="-214" font-family="Helvetica,sans-Serif" font-size="10.00">src/gui/svg/mxsvgpainter.cpp</text>
</a>
</g>
</g>
<!-- Node34&#45;&gt;Node35 -->
<g id="edge52" class="edge">
<title>Node34&#45;&gt;Node35</title>
<path fill="none" stroke="midnightblue" d="M1327.95,-326.49C1346.01,-296.68 1376.62,-246.17 1388.79,-226.1"/>
<polygon fill="midnightblue" stroke="midnightblue" points="1324.75,-325.01 1322.56,-335.37 1330.74,-328.64 1324.75,-325.01"/>
</g>
<!-- Node36 -->
<g id="node36" class="node">
<title>Node36</title>
<g id="a_node36"><a xlink:href="mxsvgpainter_8h.html" target="_top" xlink:title=" ">
<polygon fill="none" stroke="black" points="1564.5,-274 1564.5,-293 1697.5,-293 1697.5,-274 1564.5,-274"/>
<text text-anchor="middle" x="1631" y="-281" font-family="Helvetica,sans-Serif" font-size="10.00">src/gui/svg/mxsvgpainter.h</text>
</a>
</g>
</g>
<!-- Node34&#45;&gt;Node36 -->
<g id="edge53" class="edge">
<title>Node34&#45;&gt;Node36</title>
<path fill="none" stroke="midnightblue" d="M1392.2,-333.47C1454.55,-320.68 1539.44,-303.27 1589.41,-293.03"/>
<polygon fill="midnightblue" stroke="midnightblue" points="1391.49,-330.04 1382.39,-335.48 1392.89,-336.9 1391.49,-330.04"/>
</g>
<!-- Node40 -->
<g id="node40" class="node">
<title>Node40</title>
<g id="a_node40"><a xlink:href="mxvectorprogram_8h.html" target="_top" xlink:title=" ">
<polygon fill="none" stroke="black" points="985.5,-268.5 985.5,-298.5 1138.5,-298.5 1138.5,-268.5 985.5,-268.5"/>
<text text-anchor="start" x="993.5" y="-286.5" font-family="Helvetica,sans-Serif" font-size="10.00">src/renderer/opengl</text>
<text text-anchor="middle" x="1062" y="-275.5" font-family="Helvetica,sans-Serif" font-size="10.00">/vectordraw/mxvectorprogram.h</text>
</a>
</g>
</g>
<!-- Node34&#45;&gt;Node40 -->
<g id="edge60" class="edge">
<title>Node34&#45;&gt;Node40</title>
<path fill="none" stroke="midnightblue" d="M1249.71,-332.92C1208.59,-322.31 1155.82,-308.7 1116.71,-298.61"/>
<polygon fill="midnightblue" stroke="midnightblue" points="1249.07,-336.37 1259.63,-335.48 1250.82,-329.59 1249.07,-336.37"/>
</g>
<!-- Node36&#45;&gt;Node14 -->
<g id="edge54" class="edge">
<title>Node36&#45;&gt;Node14</title>
<path fill="none" stroke="midnightblue" d="M1602.23,-269.42C1571.77,-253.8 1530.8,-226.57 1552,-201 1579.57,-167.75 1700.71,-173.77 1743,-165 1751.92,-163.15 1761.52,-161.04 1770.5,-159.01"/>
<polygon fill="midnightblue" stroke="midnightblue" points="1600.75,-272.59 1611.26,-273.88 1603.84,-266.32 1600.75,-272.59"/>
</g>
<!-- Node36&#45;&gt;Node35 -->
<g id="edge55" class="edge">
<title>Node36&#45;&gt;Node35</title>
<path fill="none" stroke="midnightblue" d="M1589.7,-271.17C1542.83,-258.32 1467.44,-237.64 1425.22,-226.06"/>
<polygon fill="midnightblue" stroke="midnightblue" points="1588.96,-274.6 1599.53,-273.87 1590.81,-267.85 1588.96,-274.6"/>
</g>
<!-- Node37 -->
<g id="node37" class="node">
<title>Node37</title>
<g id="a_node37"><a xlink:href="downarrowsvg_8cpp.html" target="_top" xlink:title=" ">
<polygon fill="none" stroke="black" points="1560.5,-207 1560.5,-226 1735.5,-226 1735.5,-207 1560.5,-207"/>
<text text-anchor="middle" x="1648" y="-214" font-family="Helvetica,sans-Serif" font-size="10.00">src/svg&#45;drawings/downarrowsvg.cpp</text>
</a>
</g>
</g>
<!-- Node36&#45;&gt;Node37 -->
<g id="edge56" class="edge">
<title>Node36&#45;&gt;Node37</title>
<path fill="none" stroke="midnightblue" d="M1635.86,-263.91C1639.11,-251.49 1643.24,-235.72 1645.74,-226.13"/>
<polygon fill="midnightblue" stroke="midnightblue" points="1632.44,-263.17 1633.29,-273.73 1639.21,-264.94 1632.44,-263.17"/>
</g>
<!-- Node38 -->
<g id="node38" class="node">
<title>Node38</title>
<g id="a_node38"><a xlink:href="heartsvg_8cpp.html" target="_top" xlink:title=" ">
<polygon fill="none" stroke="black" points="1753.5,-207 1753.5,-226 1902.5,-226 1902.5,-207 1753.5,-207"/>
<text text-anchor="middle" x="1828" y="-214" font-family="Helvetica,sans-Serif" font-size="10.00">src/svg&#45;drawings/heartsvg.cpp</text>
</a>
</g>
</g>
<!-- Node36&#45;&gt;Node38 -->
<g id="edge57" class="edge">
<title>Node36&#45;&gt;Node38</title>
<path fill="none" stroke="midnightblue" d="M1667.06,-270.6C1706.12,-257.71 1767.47,-237.47 1802.05,-226.06"/>
<polygon fill="midnightblue" stroke="midnightblue" points="1665.56,-267.41 1657.16,-273.87 1667.75,-274.06 1665.56,-267.41"/>
</g>
<!-- Node39 -->
<g id="node39" class="node">
<title>Node39</title>
<g id="a_node39"><a xlink:href="plusminussvg_8cpp.html" target="_top" xlink:title=" ">
<polygon fill="none" stroke="black" points="1921,-207 1921,-226 2093,-226 2093,-207 1921,-207"/>
<text text-anchor="middle" x="2007" y="-214" font-family="Helvetica,sans-Serif" font-size="10.00">src/svg&#45;drawings/plusminussvg.cpp</text>
</a>
</g>
</g>
<!-- Node36&#45;&gt;Node39 -->
<g id="edge58" class="edge">
<title>Node36&#45;&gt;Node39</title>
<path fill="none" stroke="midnightblue" d="M1684.82,-272.08C1692.26,-270.68 1699.82,-269.29 1707,-268 1793.55,-252.46 1894.42,-235.77 1954.37,-226"/>
<polygon fill="midnightblue" stroke="midnightblue" points="1683.95,-268.68 1674.78,-273.98 1685.25,-275.56 1683.95,-268.68"/>
</g>
<!-- Node40&#45;&gt;Node22 -->
<g id="edge61" class="edge">
<title>Node40&#45;&gt;Node22</title>
<path fill="none" stroke="midnightblue" d="M1062,-258.11C1062,-249.15 1062,-239.32 1062,-231.58"/>
<polygon fill="midnightblue" stroke="midnightblue" points="1058.5,-258.4 1062,-268.4 1065.5,-258.4 1058.5,-258.4"/>
</g>
<!-- Node40&#45;&gt;Node29 -->
<g id="edge62" class="edge">
<title>Node40&#45;&gt;Node29</title>
<path fill="none" stroke="midnightblue" d="M1086.66,-261.49C1114.69,-237.66 1156.86,-201.95 1159,-201 1262.29,-154.83 1299.13,-181.9 1411,-165 1413.85,-164.57 1416.74,-164.13 1419.67,-163.68"/>
<polygon fill="midnightblue" stroke="midnightblue" points="1084.18,-259.01 1078.83,-268.16 1088.71,-264.34 1084.18,-259.01"/>
</g>
</g>
</svg>
