<?xml version="1.0" encoding="UTF-8" standalone="no"?>
<!DOCTYPE svg PUBLIC "-//W3C//DTD SVG 1.1//EN"
 "http://www.w3.org/Graphics/SVG/1.1/DTD/svg11.dtd">
<!-- Generated by graphviz version 2.44.0 ()
 -->
<!-- Title: src/renderer/opengl/mxrenderer.cpp Pages: 1 -->
<svg width="646pt" height="263pt"
 viewBox="0.00 0.00 646.00 263.00" xmlns="http://www.w3.org/2000/svg" xmlns:xlink="http://www.w3.org/1999/xlink">
<g id="graph0" class="graph" transform="scale(1 1) rotate(0) translate(4 259)">
<title>src/renderer/opengl/mxrenderer.cpp</title>
<!-- Node1 -->
<g id="node1" class="node">
<title>Node1</title>
<g id="a_node1"><a xlink:title=" ">
<polygon fill="#bfbfbf" stroke="black" points="97.5,-224.5 97.5,-254.5 197.5,-254.5 197.5,-224.5 97.5,-224.5"/>
<text text-anchor="start" x="105.5" y="-242.5" font-family="Helvetica,sans-Serif" font-size="10.00">src/renderer/opengl</text>
<text text-anchor="middle" x="147.5" y="-231.5" font-family="Helvetica,sans-Serif" font-size="10.00">/mxrenderer.cpp</text>
</a>
</g>
</g>
<!-- Node2 -->
<g id="node2" class="node">
<title>Node2</title>
<g id="a_node2"><a xlink:href="mxrenderer_8h.html" target="_top" xlink:title=" ">
<polygon fill="none" stroke="black" points="227.5,-168.5 227.5,-187.5 299.5,-187.5 299.5,-168.5 227.5,-168.5"/>
<text text-anchor="middle" x="263.5" y="-175.5" font-family="Helvetica,sans-Serif" font-size="10.00">mxrenderer.h</text>
</a>
</g>
</g>
<!-- Node1&#45;&gt;Node2 -->
<g id="edge1" class="edge">
<title>Node1&#45;&gt;Node2</title>
<path fill="none" stroke="midnightblue" d="M174.99,-224.4C193.93,-214.68 218.94,-201.86 237.54,-192.31"/>
<polygon fill="midnightblue" stroke="midnightblue" points="239.32,-195.34 246.62,-187.66 236.13,-189.11 239.32,-195.34"/>
</g>
<!-- Node16 -->
<g id="node16" class="node">
<title>Node16</title>
<g id="a_node16"><a xlink:href="mxthemecolors_8h.html" target="_top" xlink:title=" ">
<polygon fill="none" stroke="black" points="102.5,-168.5 102.5,-187.5 192.5,-187.5 192.5,-168.5 102.5,-168.5"/>
<text text-anchor="middle" x="147.5" y="-175.5" font-family="Helvetica,sans-Serif" font-size="10.00">mxthemecolors.h</text>
</a>
</g>
</g>
<!-- Node1&#45;&gt;Node16 -->
<g id="edge17" class="edge">
<title>Node1&#45;&gt;Node16</title>
<path fill="none" stroke="midnightblue" d="M147.5,-224.4C147.5,-216.47 147.5,-206.46 147.5,-197.86"/>
<polygon fill="midnightblue" stroke="midnightblue" points="151,-197.66 147.5,-187.66 144,-197.66 151,-197.66"/>
</g>
<!-- Node17 -->
<g id="node17" class="node">
<title>Node17</title>
<g id="a_node17"><a xlink:href="mxtexture_8h.html" target="_top" xlink:title=" ">
<polygon fill="none" stroke="black" points="18.5,-168.5 18.5,-187.5 84.5,-187.5 84.5,-168.5 18.5,-168.5"/>
<text text-anchor="middle" x="51.5" y="-175.5" font-family="Helvetica,sans-Serif" font-size="10.00">mxtexture.h</text>
</a>
</g>
</g>
<!-- Node1&#45;&gt;Node17 -->
<g id="edge19" class="edge">
<title>Node1&#45;&gt;Node17</title>
<path fill="none" stroke="midnightblue" d="M124.75,-224.4C109.51,-214.95 89.51,-202.56 74.26,-193.11"/>
<polygon fill="midnightblue" stroke="midnightblue" points="75.81,-189.95 65.47,-187.66 72.12,-195.9 75.81,-189.95"/>
</g>
<!-- Node3 -->
<g id="node3" class="node">
<title>Node3</title>
<g id="a_node3"><a xlink:href="mxlist_8h.html" target="_top" xlink:title=" ">
<polygon fill="none" stroke="black" points="255.5,-112.5 255.5,-131.5 305.5,-131.5 305.5,-112.5 255.5,-112.5"/>
<text text-anchor="middle" x="280.5" y="-119.5" font-family="Helvetica,sans-Serif" font-size="10.00">mxlist.h</text>
</a>
</g>
</g>
<!-- Node2&#45;&gt;Node3 -->
<g id="edge2" class="edge">
<title>Node2&#45;&gt;Node3</title>
<path fill="none" stroke="midnightblue" d="M266.31,-168.08C268.58,-160.85 271.87,-150.41 274.71,-141.4"/>
<polygon fill="midnightblue" stroke="midnightblue" points="278.08,-142.34 277.75,-131.75 271.4,-140.24 278.08,-142.34"/>
</g>
<!-- Node9 -->
<g id="node9" class="node">
<title>Node9</title>
<g id="a_node9"><a xlink:href="mxgpuarray_8h.html" target="_top" xlink:title=" ">
<polygon fill="none" stroke="black" points="154.5,-112.5 154.5,-131.5 228.5,-131.5 228.5,-112.5 154.5,-112.5"/>
<text text-anchor="middle" x="191.5" y="-119.5" font-family="Helvetica,sans-Serif" font-size="10.00">mxgpuarray.h</text>
</a>
</g>
</g>
<!-- Node2&#45;&gt;Node9 -->
<g id="edge8" class="edge">
<title>Node2&#45;&gt;Node9</title>
<path fill="none" stroke="midnightblue" d="M251.93,-168.32C241.08,-160.18 224.62,-147.84 211.62,-138.09"/>
<polygon fill="midnightblue" stroke="midnightblue" points="213.38,-135.03 203.28,-131.83 209.18,-140.63 213.38,-135.03"/>
</g>
<!-- Node12 -->
<g id="node12" class="node">
<title>Node12</title>
<g id="a_node12"><a xlink:href="mxmatrix_8h.html" target="_top" xlink:title=" ">
<polygon fill="none" stroke="black" points="324,-112.5 324,-131.5 387,-131.5 387,-112.5 324,-112.5"/>
<text text-anchor="middle" x="355.5" y="-119.5" font-family="Helvetica,sans-Serif" font-size="10.00">mxmatrix.h</text>
</a>
</g>
</g>
<!-- Node2&#45;&gt;Node12 -->
<g id="edge12" class="edge">
<title>Node2&#45;&gt;Node12</title>
<path fill="none" stroke="midnightblue" d="M278.28,-168.32C292.77,-159.82 315.07,-146.73 331.99,-136.8"/>
<polygon fill="midnightblue" stroke="midnightblue" points="333.9,-139.74 340.76,-131.65 330.36,-133.7 333.9,-139.74"/>
</g>
<!-- Node13 -->
<g id="node13" class="node">
<title>Node13</title>
<g id="a_node13"><a xlink:href="mxopenglfunctions_8h.html" target="_top" xlink:title=" ">
<polygon fill="none" stroke="black" points="464,-112.5 464,-131.5 569,-131.5 569,-112.5 464,-112.5"/>
<text text-anchor="middle" x="516.5" y="-119.5" font-family="Helvetica,sans-Serif" font-size="10.00">mxopenglfunctions.h</text>
</a>
</g>
</g>
<!-- Node2&#45;&gt;Node13 -->
<g id="edge13" class="edge">
<title>Node2&#45;&gt;Node13</title>
<path fill="none" stroke="midnightblue" d="M299.75,-169.26C343.59,-159.9 417.62,-144.1 466.77,-133.61"/>
<polygon fill="midnightblue" stroke="midnightblue" points="467.51,-137.03 476.56,-131.52 466.05,-130.19 467.51,-137.03"/>
</g>
<!-- Node15 -->
<g id="node15" class="node">
<title>Node15</title>
<g id="a_node15"><a xlink:href="mxvector_8h.html" target="_top" xlink:title=" ">
<polygon fill="none" stroke="black" points="55.5,-112.5 55.5,-131.5 119.5,-131.5 119.5,-112.5 55.5,-112.5"/>
<text text-anchor="middle" x="87.5" y="-119.5" font-family="Helvetica,sans-Serif" font-size="10.00">mxvector.h</text>
</a>
</g>
</g>
<!-- Node2&#45;&gt;Node15 -->
<g id="edge15" class="edge">
<title>Node2&#45;&gt;Node15</title>
<path fill="none" stroke="midnightblue" d="M235.61,-168.44C205.75,-159.28 158.19,-144.69 125.04,-134.52"/>
<polygon fill="midnightblue" stroke="midnightblue" points="125.84,-131.1 115.26,-131.52 123.79,-137.8 125.84,-131.1"/>
</g>
<!-- Node4 -->
<g id="node4" class="node">
<title>Node4</title>
<g id="a_node4"><a xlink:title=" ">
<polygon fill="none" stroke="#bfbfbf" points="97,-0.5 97,-19.5 160,-19.5 160,-0.5 97,-0.5"/>
<text text-anchor="middle" x="128.5" y="-7.5" font-family="Helvetica,sans-Serif" font-size="10.00">mxdebug.h</text>
</a>
</g>
</g>
<!-- Node3&#45;&gt;Node4 -->
<g id="edge3" class="edge">
<title>Node3&#45;&gt;Node4</title>
<path fill="none" stroke="midnightblue" d="M305.77,-113.77C338.49,-103.17 388.92,-81.83 367.5,-56 342.91,-26.35 231.98,-16.11 170.26,-12.67"/>
<polygon fill="midnightblue" stroke="midnightblue" points="170.24,-9.16 160.07,-12.14 169.88,-16.15 170.24,-9.16"/>
</g>
<!-- Node5 -->
<g id="node5" class="node">
<title>Node5</title>
<g id="a_node5"><a xlink:href="mxrefcounter_8h.html" target="_top" xlink:title=" ">
<polygon fill="none" stroke="black" points="414.5,-56.5 414.5,-75.5 494.5,-75.5 494.5,-56.5 414.5,-56.5"/>
<text text-anchor="middle" x="454.5" y="-63.5" font-family="Helvetica,sans-Serif" font-size="10.00">mxrefcounter.h</text>
</a>
</g>
</g>
<!-- Node3&#45;&gt;Node5 -->
<g id="edge4" class="edge">
<title>Node3&#45;&gt;Node5</title>
<path fill="none" stroke="midnightblue" d="M305.8,-113.15C335.01,-104.08 383.35,-89.08 416.95,-78.65"/>
<polygon fill="midnightblue" stroke="midnightblue" points="418.35,-81.88 426.87,-75.58 416.28,-75.2 418.35,-81.88"/>
</g>
<!-- Node6 -->
<g id="node6" class="node">
<title>Node6</title>
<g id="a_node6"><a xlink:title=" ">
<polygon fill="none" stroke="#bfbfbf" points="191,-56.5 191,-75.5 238,-75.5 238,-56.5 191,-56.5"/>
<text text-anchor="middle" x="214.5" y="-63.5" font-family="Helvetica,sans-Serif" font-size="10.00">stdlib.h</text>
</a>
</g>
</g>
<!-- Node3&#45;&gt;Node6 -->
<g id="edge5" class="edge">
<title>Node3&#45;&gt;Node6</title>
<path fill="none" stroke="midnightblue" d="M269.9,-112.32C260.04,-104.26 245.15,-92.08 233.28,-82.37"/>
<polygon fill="midnightblue" stroke="midnightblue" points="235.25,-79.46 225.3,-75.83 230.82,-84.88 235.25,-79.46"/>
</g>
<!-- Node7 -->
<g id="node7" class="node">
<title>Node7</title>
<g id="a_node7"><a xlink:title=" ">
<polygon fill="none" stroke="#bfbfbf" points="256.5,-56.5 256.5,-75.5 304.5,-75.5 304.5,-56.5 256.5,-56.5"/>
<text text-anchor="middle" x="280.5" y="-63.5" font-family="Helvetica,sans-Serif" font-size="10.00">string.h</text>
</a>
</g>
</g>
<!-- Node3&#45;&gt;Node7 -->
<g id="edge6" class="edge">
<title>Node3&#45;&gt;Node7</title>
<path fill="none" stroke="midnightblue" d="M280.5,-112.08C280.5,-105.01 280.5,-94.86 280.5,-85.99"/>
<polygon fill="midnightblue" stroke="midnightblue" points="284,-85.75 280.5,-75.75 277,-85.75 284,-85.75"/>
</g>
<!-- Node8 -->
<g id="node8" class="node">
<title>Node8</title>
<g id="a_node8"><a xlink:title=" ">
<polygon fill="none" stroke="#bfbfbf" points="323,-56.5 323,-75.5 358,-75.5 358,-56.5 323,-56.5"/>
<text text-anchor="middle" x="340.5" y="-63.5" font-family="Helvetica,sans-Serif" font-size="10.00">new</text>
</a>
</g>
</g>
<!-- Node3&#45;&gt;Node8 -->
<g id="edge7" class="edge">
<title>Node3&#45;&gt;Node8</title>
<path fill="none" stroke="midnightblue" d="M290.14,-112.32C299.01,-104.34 312.37,-92.31 323.11,-82.65"/>
<polygon fill="midnightblue" stroke="midnightblue" points="325.59,-85.13 330.68,-75.83 320.91,-79.92 325.59,-85.13"/>
</g>
<!-- Node10 -->
<g id="node10" class="node">
<title>Node10</title>
<g id="a_node10"><a xlink:href="mxgpuprogram_8h.html" target="_top" xlink:title=" ">
<polygon fill="none" stroke="black" points="84.5,-56.5 84.5,-75.5 172.5,-75.5 172.5,-56.5 84.5,-56.5"/>
<text text-anchor="middle" x="128.5" y="-63.5" font-family="Helvetica,sans-Serif" font-size="10.00">mxgpuprogram.h</text>
</a>
</g>
</g>
<!-- Node9&#45;&gt;Node10 -->
<g id="edge9" class="edge">
<title>Node9&#45;&gt;Node10</title>
<path fill="none" stroke="midnightblue" d="M181.38,-112.32C171.97,-104.26 157.76,-92.08 146.43,-82.37"/>
<polygon fill="midnightblue" stroke="midnightblue" points="148.68,-79.68 138.81,-75.83 144.12,-85 148.68,-79.68"/>
</g>
<!-- Node10&#45;&gt;Node4 -->
<g id="edge10" class="edge">
<title>Node10&#45;&gt;Node4</title>
<path fill="none" stroke="midnightblue" d="M128.5,-56.08C128.5,-49.01 128.5,-38.86 128.5,-29.99"/>
<polygon fill="midnightblue" stroke="midnightblue" points="132,-29.75 128.5,-19.75 125,-29.75 132,-29.75"/>
</g>
<!-- Node11 -->
<g id="node11" class="node">
<title>Node11</title>
<g id="a_node11"><a xlink:href="mxopengl_8h.html" target="_top" xlink:title=" ">
<polygon fill="none" stroke="black" points="0,-0.5 0,-19.5 65,-19.5 65,-0.5 0,-0.5"/>
<text text-anchor="middle" x="32.5" y="-7.5" font-family="Helvetica,sans-Serif" font-size="10.00">mxopengl.h</text>
</a>
</g>
</g>
<!-- Node10&#45;&gt;Node11 -->
<g id="edge11" class="edge">
<title>Node10&#45;&gt;Node11</title>
<path fill="none" stroke="midnightblue" d="M113.08,-56.32C97.96,-47.82 74.68,-34.73 57.03,-24.8"/>
<polygon fill="midnightblue" stroke="midnightblue" points="58.32,-21.51 47.89,-19.65 54.89,-27.61 58.32,-21.51"/>
</g>
<!-- Node14 -->
<g id="node14" class="node">
<title>Node14</title>
<g id="a_node14"><a xlink:title=" ">
<polygon fill="none" stroke="#bfbfbf" points="513,-56.5 513,-75.5 638,-75.5 638,-56.5 513,-56.5"/>
<text text-anchor="middle" x="575.5" y="-63.5" font-family="Helvetica,sans-Serif" font-size="10.00">QOpenGLExtraFunctions</text>
</a>
</g>
</g>
<!-- Node13&#45;&gt;Node14 -->
<g id="edge14" class="edge">
<title>Node13&#45;&gt;Node14</title>
<path fill="none" stroke="midnightblue" d="M525.98,-112.32C534.7,-104.34 547.84,-92.31 558.4,-82.65"/>
<polygon fill="midnightblue" stroke="midnightblue" points="560.83,-85.17 565.85,-75.83 556.11,-80 560.83,-85.17"/>
</g>
<!-- Node15&#45;&gt;Node4 -->
<g id="edge16" class="edge">
<title>Node15&#45;&gt;Node4</title>
<path fill="none" stroke="midnightblue" d="M82.66,-112.17C76.28,-99.27 66.82,-74.75 75.5,-56 81.42,-43.21 92.97,-32.72 103.78,-25.1"/>
<polygon fill="midnightblue" stroke="midnightblue" points="105.71,-28.02 112.17,-19.61 101.88,-22.16 105.71,-28.02"/>
</g>
<!-- Node16&#45;&gt;Node15 -->
<g id="edge18" class="edge">
<title>Node16&#45;&gt;Node15</title>
<path fill="none" stroke="midnightblue" d="M137.86,-168.32C128.99,-160.34 115.63,-148.31 104.89,-138.65"/>
<polygon fill="midnightblue" stroke="midnightblue" points="107.09,-135.92 97.32,-131.83 102.41,-141.13 107.09,-135.92"/>
</g>
<!-- Node17&#45;&gt;Node11 -->
<g id="edge21" class="edge">
<title>Node17&#45;&gt;Node11</title>
<path fill="none" stroke="midnightblue" d="M50.48,-168.08C47.49,-141.95 38.7,-65.21 34.63,-29.58"/>
<polygon fill="midnightblue" stroke="midnightblue" points="38.1,-29.11 33.48,-19.57 31.14,-29.9 38.1,-29.11"/>
</g>
<!-- Node17&#45;&gt;Node15 -->
<g id="edge20" class="edge">
<title>Node17&#45;&gt;Node15</title>
<path fill="none" stroke="midnightblue" d="M57.44,-168.08C62.48,-160.53 69.84,-149.49 76.01,-140.23"/>
<polygon fill="midnightblue" stroke="midnightblue" points="79.03,-142.01 81.67,-131.75 73.21,-138.13 79.03,-142.01"/>
</g>
</g>
</svg>
