<?xml version="1.0" encoding="UTF-8" standalone="no"?>
<!DOCTYPE svg PUBLIC "-//W3C//DTD SVG 1.1//EN"
 "http://www.w3.org/Graphics/SVG/1.1/DTD/svg11.dtd">
<!-- Generated by graphviz version 2.44.0 ()
 -->
<!-- Title: src/containers/mxrefcounter.h Pages: 1 -->
<svg width="2095pt" height="464pt"
 viewBox="0.00 0.00 2095.00 464.00" xmlns="http://www.w3.org/2000/svg" xmlns:xlink="http://www.w3.org/1999/xlink">
<g id="graph0" class="graph" transform="scale(1 1) rotate(0) translate(4 460)">
<title>src/containers/mxrefcounter.h</title>
<!-- Node1 -->
<g id="node1" class="node">
<title>Node1</title>
<g id="a_node1"><a xlink:title=" ">
<polygon fill="#bfbfbf" stroke="black" points="631.5,-436.5 631.5,-455.5 776.5,-455.5 776.5,-436.5 631.5,-436.5"/>
<text text-anchor="middle" x="704" y="-443.5" font-family="Helvetica,sans-Serif" font-size="10.00">src/containers/mxrefcounter.h</text>
</a>
</g>
</g>
<!-- Node2 -->
<g id="node2" class="node">
<title>Node2</title>
<g id="a_node2"><a xlink:href="mxgenericstring_8h.html" target="_top" xlink:title=" ">
<polygon fill="none" stroke="black" points="364.5,-380.5 364.5,-399.5 521.5,-399.5 521.5,-380.5 364.5,-380.5"/>
<text text-anchor="middle" x="443" y="-387.5" font-family="Helvetica,sans-Serif" font-size="10.00">src/containers/mxgenericstring.h</text>
</a>
</g>
</g>
<!-- Node1&#45;&gt;Node2 -->
<g id="edge1" class="edge">
<title>Node1&#45;&gt;Node2</title>
<path fill="none" stroke="midnightblue" d="M652.81,-434.41C603.49,-424.2 529.81,-408.96 484.16,-399.52"/>
<polygon fill="midnightblue" stroke="midnightblue" points="652.14,-437.84 662.64,-436.44 653.56,-430.99 652.14,-437.84"/>
</g>
<!-- Node14 -->
<g id="node14" class="node">
<title>Node14</title>
<g id="a_node14"><a xlink:href="mxlist_8h.html" target="_top" xlink:title=" ">
<polygon fill="none" stroke="black" points="922,-324.5 922,-343.5 1036,-343.5 1036,-324.5 922,-324.5"/>
<text text-anchor="middle" x="979" y="-331.5" font-family="Helvetica,sans-Serif" font-size="10.00">src/containers/mxlist.h</text>
</a>
</g>
</g>
<!-- Node1&#45;&gt;Node14 -->
<g id="edge14" class="edge">
<title>Node1&#45;&gt;Node14</title>
<path fill="none" stroke="midnightblue" d="M704.36,-426.32C705.7,-411.58 710.02,-391.62 723,-380 751.66,-354.34 855.7,-342.9 922,-338.12"/>
<polygon fill="midnightblue" stroke="midnightblue" points="700.87,-426.18 703.83,-436.35 707.86,-426.55 700.87,-426.18"/>
</g>
<!-- Node33 -->
<g id="node33" class="node">
<title>Node33</title>
<g id="a_node33"><a xlink:href="mxrefcounter_8cpp.html" target="_top" xlink:title=" ">
<polygon fill="none" stroke="black" points="732.5,-380.5 732.5,-399.5 887.5,-399.5 887.5,-380.5 732.5,-380.5"/>
<text text-anchor="middle" x="810" y="-387.5" font-family="Helvetica,sans-Serif" font-size="10.00">src/containers/mxrefcounter.cpp</text>
</a>
</g>
</g>
<!-- Node1&#45;&gt;Node33 -->
<g id="edge40" class="edge">
<title>Node1&#45;&gt;Node33</title>
<path fill="none" stroke="midnightblue" d="M730.06,-431.73C749.68,-421.73 776.03,-408.31 793.01,-399.65"/>
<polygon fill="midnightblue" stroke="midnightblue" points="728.35,-428.67 721.03,-436.32 731.53,-434.9 728.35,-428.67"/>
</g>
<!-- Node3 -->
<g id="node3" class="node">
<title>Node3</title>
<g id="a_node3"><a xlink:href="mxgenericstring_8cpp.html" target="_top" xlink:title=" ">
<polygon fill="none" stroke="black" points="195.5,-324.5 195.5,-343.5 362.5,-343.5 362.5,-324.5 195.5,-324.5"/>
<text text-anchor="middle" x="279" y="-331.5" font-family="Helvetica,sans-Serif" font-size="10.00">src/containers/mxgenericstring.cpp</text>
</a>
</g>
</g>
<!-- Node2&#45;&gt;Node3 -->
<g id="edge2" class="edge">
<title>Node2&#45;&gt;Node3</title>
<path fill="none" stroke="midnightblue" d="M407.48,-377.3C376.58,-367.13 332.53,-352.62 304.86,-343.52"/>
<polygon fill="midnightblue" stroke="midnightblue" points="406.42,-380.64 417.01,-380.44 408.61,-373.99 406.42,-380.64"/>
</g>
<!-- Node4 -->
<g id="node4" class="node">
<title>Node4</title>
<g id="a_node4"><a xlink:href="mxstring_8h.html" target="_top" xlink:title=" ">
<polygon fill="none" stroke="black" points="380.5,-324.5 380.5,-343.5 505.5,-343.5 505.5,-324.5 380.5,-324.5"/>
<text text-anchor="middle" x="443" y="-331.5" font-family="Helvetica,sans-Serif" font-size="10.00">src/containers/mxstring.h</text>
</a>
</g>
</g>
<!-- Node2&#45;&gt;Node4 -->
<g id="edge3" class="edge">
<title>Node2&#45;&gt;Node4</title>
<path fill="none" stroke="midnightblue" d="M443,-369.8C443,-360.91 443,-350.78 443,-343.75"/>
<polygon fill="midnightblue" stroke="midnightblue" points="439.5,-370.08 443,-380.08 446.5,-370.08 439.5,-370.08"/>
</g>
<!-- Node5 -->
<g id="node5" class="node">
<title>Node5</title>
<g id="a_node5"><a xlink:href="mxstring_8cpp.html" target="_top" xlink:title=" ">
<polygon fill="none" stroke="black" points="375,-263 375,-282 511,-282 511,-263 375,-263"/>
<text text-anchor="middle" x="443" y="-270" font-family="Helvetica,sans-Serif" font-size="10.00">src/containers/mxstring.cpp</text>
</a>
</g>
</g>
<!-- Node4&#45;&gt;Node5 -->
<g id="edge4" class="edge">
<title>Node4&#45;&gt;Node5</title>
<path fill="none" stroke="midnightblue" d="M443,-314.32C443,-303.5 443,-290.4 443,-282.01"/>
<polygon fill="midnightblue" stroke="midnightblue" points="439.5,-314.48 443,-324.48 446.5,-314.48 439.5,-314.48"/>
</g>
<!-- Node6 -->
<g id="node6" class="node">
<title>Node6</title>
<g id="a_node6"><a xlink:href="mxtextdraw_8h.html" target="_top" xlink:title=" ">
<polygon fill="none" stroke="black" points="130,-263 130,-282 236,-282 236,-263 130,-263"/>
<text text-anchor="middle" x="183" y="-270" font-family="Helvetica,sans-Serif" font-size="10.00">src/gui/mxtextdraw.h</text>
</a>
</g>
</g>
<!-- Node4&#45;&gt;Node6 -->
<g id="edge5" class="edge">
<title>Node4&#45;&gt;Node6</title>
<path fill="none" stroke="midnightblue" d="M395.75,-322.19C345.3,-310.64 266.39,-292.58 220.18,-282.01"/>
<polygon fill="midnightblue" stroke="midnightblue" points="395.22,-325.66 405.75,-324.48 396.78,-318.83 395.22,-325.66"/>
</g>
<!-- Node7 -->
<g id="node7" class="node">
<title>Node7</title>
<g id="a_node7"><a xlink:href="mxpainter_8h.html" target="_top" xlink:title=" ">
<polygon fill="none" stroke="black" points="134,-196 134,-215 232,-215 232,-196 134,-196"/>
<text text-anchor="middle" x="183" y="-203" font-family="Helvetica,sans-Serif" font-size="10.00">src/gui/mxpainter.h</text>
</a>
</g>
</g>
<!-- Node6&#45;&gt;Node7 -->
<g id="edge6" class="edge">
<title>Node6&#45;&gt;Node7</title>
<path fill="none" stroke="midnightblue" d="M183,-252.54C183,-240.17 183,-224.62 183,-215.13"/>
<polygon fill="midnightblue" stroke="midnightblue" points="179.5,-252.73 183,-262.73 186.5,-252.73 179.5,-252.73"/>
</g>
<!-- Node13 -->
<g id="node13" class="node">
<title>Node13</title>
<g id="a_node13"><a xlink:href="mxtextdraw_8cpp.html" target="_top" xlink:title=" ">
<polygon fill="none" stroke="black" points="0,-196 0,-215 116,-215 116,-196 0,-196"/>
<text text-anchor="middle" x="58" y="-203" font-family="Helvetica,sans-Serif" font-size="10.00">src/gui/mxtextdraw.cpp</text>
</a>
</g>
</g>
<!-- Node6&#45;&gt;Node13 -->
<g id="edge13" class="edge">
<title>Node6&#45;&gt;Node13</title>
<path fill="none" stroke="midnightblue" d="M157.24,-258.1C132.48,-245.23 95.81,-226.16 74.67,-215.17"/>
<polygon fill="midnightblue" stroke="midnightblue" points="155.91,-261.36 166.4,-262.87 159.14,-255.15 155.91,-261.36"/>
</g>
<!-- Node8 -->
<g id="node8" class="node">
<title>Node8</title>
<g id="a_node8"><a xlink:href="mxapplication_8h.html" target="_top" xlink:title=" ">
<polygon fill="none" stroke="black" points="1038,-134.5 1038,-153.5 1170,-153.5 1170,-134.5 1038,-134.5"/>
<text text-anchor="middle" x="1104" y="-141.5" font-family="Helvetica,sans-Serif" font-size="10.00">src/events/mxapplication.h</text>
</a>
</g>
</g>
<!-- Node7&#45;&gt;Node8 -->
<g id="edge7" class="edge">
<title>Node7&#45;&gt;Node8</title>
<path fill="none" stroke="midnightblue" d="M222.64,-193.52C228.75,-192.14 235.02,-190.9 241,-190 394.48,-167.03 863.47,-151.8 1037.82,-146.8"/>
<polygon fill="midnightblue" stroke="midnightblue" points="221.49,-190.19 212.58,-195.94 223.12,-197 221.49,-190.19"/>
</g>
<!-- Node12 -->
<g id="node12" class="node">
<title>Node12</title>
<g id="a_node12"><a xlink:href="mxpainter_8cpp.html" target="_top" xlink:title=" ">
<polygon fill="none" stroke="black" points="582.5,-134.5 582.5,-153.5 691.5,-153.5 691.5,-134.5 582.5,-134.5"/>
<text text-anchor="middle" x="637" y="-141.5" font-family="Helvetica,sans-Serif" font-size="10.00">src/gui/mxpainter.cpp</text>
</a>
</g>
</g>
<!-- Node7&#45;&gt;Node12 -->
<g id="edge12" class="edge">
<title>Node7&#45;&gt;Node12</title>
<path fill="none" stroke="midnightblue" d="M223.93,-193.56C229.64,-192.24 235.45,-191.01 241,-190 361.85,-168.13 505.49,-154.95 582.22,-148.93"/>
<polygon fill="midnightblue" stroke="midnightblue" points="222.74,-190.24 213.84,-195.99 224.38,-197.05 222.74,-190.24"/>
</g>
<!-- Node9 -->
<g id="node9" class="node">
<title>Node9</title>
<g id="a_node9"><a xlink:href="mxapplication_8cpp.html" target="_top" xlink:title=" ">
<polygon fill="none" stroke="black" points="1432.5,-73 1432.5,-92 1575.5,-92 1575.5,-73 1432.5,-73"/>
<text text-anchor="middle" x="1504" y="-80" font-family="Helvetica,sans-Serif" font-size="10.00">src/events/mxapplication.cpp</text>
</a>
</g>
</g>
<!-- Node8&#45;&gt;Node9 -->
<g id="edge8" class="edge">
<title>Node8&#45;&gt;Node9</title>
<path fill="none" stroke="midnightblue" d="M1171.42,-132.97C1248.71,-121.47 1374.07,-102.83 1446.8,-92.01"/>
<polygon fill="midnightblue" stroke="midnightblue" points="1170.69,-129.54 1161.31,-134.48 1171.72,-136.47 1170.69,-129.54"/>
</g>
<!-- Node10 -->
<g id="node10" class="node">
<title>Node10</title>
<g id="a_node10"><a xlink:href="qmewawindow_8cpp.html" target="_top" xlink:title=" ">
<polygon fill="none" stroke="black" points="1089,-0.5 1089,-30.5 1205,-30.5 1205,-0.5 1089,-0.5"/>
<text text-anchor="start" x="1097" y="-18.5" font-family="Helvetica,sans-Serif" font-size="10.00">src/platformabstraction</text>
<text text-anchor="middle" x="1147" y="-7.5" font-family="Helvetica,sans-Serif" font-size="10.00">/qt/qmewawindow.cpp</text>
</a>
</g>
</g>
<!-- Node8&#45;&gt;Node10 -->
<g id="edge9" class="edge">
<title>Node8&#45;&gt;Node10</title>
<path fill="none" stroke="midnightblue" d="M1107.55,-124.48C1110.8,-108.9 1116.13,-86.16 1123,-67 1127.52,-54.39 1134.14,-40.7 1139.29,-30.76"/>
<polygon fill="midnightblue" stroke="midnightblue" points="1104.1,-123.91 1105.57,-134.4 1110.96,-125.28 1104.1,-123.91"/>
</g>
<!-- Node11 -->
<g id="node11" class="node">
<title>Node11</title>
<g id="a_node11"><a xlink:href="qmewawindow_8h.html" target="_top" xlink:title=" ">
<polygon fill="none" stroke="black" points="1132,-67.5 1132,-97.5 1248,-97.5 1248,-67.5 1132,-67.5"/>
<text text-anchor="start" x="1140" y="-85.5" font-family="Helvetica,sans-Serif" font-size="10.00">src/platformabstraction</text>
<text text-anchor="middle" x="1190" y="-74.5" font-family="Helvetica,sans-Serif" font-size="10.00">/qt/qmewawindow.h</text>
</a>
</g>
</g>
<!-- Node8&#45;&gt;Node11 -->
<g id="edge10" class="edge">
<title>Node8&#45;&gt;Node11</title>
<path fill="none" stroke="midnightblue" d="M1124.61,-128.74C1138.28,-119.28 1156.13,-106.93 1169.73,-97.52"/>
<polygon fill="midnightblue" stroke="midnightblue" points="1122.55,-125.91 1116.32,-134.48 1126.54,-131.66 1122.55,-125.91"/>
</g>
<!-- Node11&#45;&gt;Node10 -->
<g id="edge11" class="edge">
<title>Node11&#45;&gt;Node10</title>
<path fill="none" stroke="midnightblue" d="M1175.03,-58.87C1168.8,-49.46 1161.77,-38.83 1156.31,-30.58"/>
<polygon fill="midnightblue" stroke="midnightblue" points="1172.23,-60.99 1180.67,-67.4 1178.07,-57.12 1172.23,-60.99"/>
</g>
<!-- Node14&#45;&gt;Node7 -->
<g id="edge15" class="edge">
<title>Node14&#45;&gt;Node7</title>
<path fill="none" stroke="midnightblue" d="M920.91,-322.7C833.9,-307.42 664.51,-278.28 520,-257 396.31,-238.79 363.86,-244.2 241,-221 232.33,-219.36 223.02,-217.21 214.46,-215.07"/>
<polygon fill="midnightblue" stroke="midnightblue" points="920.39,-326.16 930.85,-324.44 921.61,-319.27 920.39,-326.16"/>
</g>
<!-- Node15 -->
<g id="node15" class="node">
<title>Node15</title>
<g id="a_node15"><a xlink:href="mxwidgetlist_8h.html" target="_top" xlink:title=" ">
<polygon fill="none" stroke="black" points="1905,-196 1905,-215 2015,-215 2015,-196 1905,-196"/>
<text text-anchor="middle" x="1960" y="-203" font-family="Helvetica,sans-Serif" font-size="10.00">src/gui/mxwidgetlist.h</text>
</a>
</g>
</g>
<!-- Node14&#45;&gt;Node15 -->
<g id="edge16" class="edge">
<title>Node14&#45;&gt;Node15</title>
<path fill="none" stroke="midnightblue" d="M1046.37,-327.59C1198.65,-314.73 1580.68,-279.05 1896,-221 1905.3,-219.29 1915.3,-217.16 1924.56,-215.07"/>
<polygon fill="midnightblue" stroke="midnightblue" points="1045.91,-324.11 1036.24,-328.44 1046.5,-331.09 1045.91,-324.11"/>
</g>
<!-- Node19 -->
<g id="node19" class="node">
<title>Node19</title>
<g id="a_node19"><a xlink:href="mxiconatlas_8h.html" target="_top" xlink:title=" ">
<polygon fill="none" stroke="black" points="1753,-196 1753,-215 1887,-215 1887,-196 1753,-196"/>
<text text-anchor="middle" x="1820" y="-203" font-family="Helvetica,sans-Serif" font-size="10.00">src/iconatlas/mxiconatlas.h</text>
</a>
</g>
</g>
<!-- Node14&#45;&gt;Node19 -->
<g id="edge22" class="edge">
<title>Node14&#45;&gt;Node19</title>
<path fill="none" stroke="midnightblue" d="M1046.3,-324.14C1179.69,-306.36 1486.96,-264.31 1744,-221 1754.73,-219.19 1766.28,-217.08 1777.05,-215.03"/>
<polygon fill="midnightblue" stroke="midnightblue" points="1045.68,-320.69 1036.23,-325.48 1046.61,-327.63 1045.68,-320.69"/>
</g>
<!-- Node21 -->
<g id="node21" class="node">
<title>Node21</title>
<g id="a_node21"><a xlink:href="mxrenderer_8h.html" target="_top" xlink:title=" ">
<polygon fill="none" stroke="black" points="929,-257.5 929,-287.5 1029,-287.5 1029,-257.5 929,-257.5"/>
<text text-anchor="start" x="937" y="-275.5" font-family="Helvetica,sans-Serif" font-size="10.00">src/renderer/opengl</text>
<text text-anchor="middle" x="979" y="-264.5" font-family="Helvetica,sans-Serif" font-size="10.00">/mxrenderer.h</text>
</a>
</g>
</g>
<!-- Node14&#45;&gt;Node21 -->
<g id="edge25" class="edge">
<title>Node14&#45;&gt;Node21</title>
<path fill="none" stroke="midnightblue" d="M979,-314.23C979,-305.59 979,-295.5 979,-287.52"/>
<polygon fill="midnightblue" stroke="midnightblue" points="975.5,-314.48 979,-324.48 982.5,-314.48 975.5,-314.48"/>
</g>
<!-- Node15&#45;&gt;Node8 -->
<g id="edge17" class="edge">
<title>Node15&#45;&gt;Node8</title>
<path fill="none" stroke="midnightblue" d="M1917.2,-193.73C1910.16,-192.27 1902.9,-190.95 1896,-190 1579.9,-146.59 1496.92,-181.02 1179,-154 1176.13,-153.76 1173.19,-153.49 1170.23,-153.2"/>
<polygon fill="midnightblue" stroke="midnightblue" points="1916.79,-197.23 1927.31,-195.95 1918.29,-190.39 1916.79,-197.23"/>
</g>
<!-- Node16 -->
<g id="node16" class="node">
<title>Node16</title>
<g id="a_node16"><a xlink:href="mxwidget_8h.html" target="_top" xlink:title=" ">
<polygon fill="none" stroke="black" points="1911,-134.5 1911,-153.5 2009,-153.5 2009,-134.5 1911,-134.5"/>
<text text-anchor="middle" x="1960" y="-141.5" font-family="Helvetica,sans-Serif" font-size="10.00">src/gui/mxwidget.h</text>
</a>
</g>
</g>
<!-- Node15&#45;&gt;Node16 -->
<g id="edge18" class="edge">
<title>Node15&#45;&gt;Node16</title>
<path fill="none" stroke="midnightblue" d="M1960,-185.82C1960,-175 1960,-161.9 1960,-153.51"/>
<polygon fill="midnightblue" stroke="midnightblue" points="1956.5,-185.98 1960,-195.98 1963.5,-185.98 1956.5,-185.98"/>
</g>
<!-- Node16&#45;&gt;Node9 -->
<g id="edge19" class="edge">
<title>Node16&#45;&gt;Node9</title>
<path fill="none" stroke="midnightblue" d="M1900.86,-133.87C1780.81,-117.04 1653.18,-101.3 1575.62,-91.98"/>
<polygon fill="midnightblue" stroke="midnightblue" points="1900.58,-137.37 1910.97,-135.29 1901.55,-130.43 1900.58,-137.37"/>
</g>
<!-- Node17 -->
<g id="node17" class="node">
<title>Node17</title>
<g id="a_node17"><a xlink:href="mxmouseevent_8cpp.html" target="_top" xlink:title=" ">
<polygon fill="none" stroke="black" points="1811.5,-73 1811.5,-92 1960.5,-92 1960.5,-73 1811.5,-73"/>
<text text-anchor="middle" x="1886" y="-80" font-family="Helvetica,sans-Serif" font-size="10.00">src/events/mxmouseevent.cpp</text>
</a>
</g>
</g>
<!-- Node16&#45;&gt;Node17 -->
<g id="edge20" class="edge">
<title>Node16&#45;&gt;Node17</title>
<path fill="none" stroke="midnightblue" d="M1941.31,-127.97C1927.16,-116.59 1908.22,-101.37 1896.58,-92.01"/>
<polygon fill="midnightblue" stroke="midnightblue" points="1939.41,-130.94 1949.4,-134.48 1943.8,-125.48 1939.41,-130.94"/>
</g>
<!-- Node18 -->
<g id="node18" class="node">
<title>Node18</title>
<g id="a_node18"><a xlink:href="mxwidget_8cpp.html" target="_top" xlink:title=" ">
<polygon fill="none" stroke="black" points="1979,-73 1979,-92 2087,-92 2087,-73 1979,-73"/>
<text text-anchor="middle" x="2033" y="-80" font-family="Helvetica,sans-Serif" font-size="10.00">src/gui/mxwidget.cpp</text>
</a>
</g>
</g>
<!-- Node16&#45;&gt;Node18 -->
<g id="edge21" class="edge">
<title>Node16&#45;&gt;Node18</title>
<path fill="none" stroke="midnightblue" d="M1978.44,-127.97C1992.4,-116.59 2011.08,-101.37 2022.56,-92.01"/>
<polygon fill="midnightblue" stroke="midnightblue" points="1976,-125.44 1970.46,-134.48 1980.42,-130.87 1976,-125.44"/>
</g>
<!-- Node19&#45;&gt;Node11 -->
<g id="edge24" class="edge">
<title>Node19&#45;&gt;Node11</title>
<path fill="none" stroke="midnightblue" d="M1765.82,-194.09C1647.99,-171.46 1369.34,-117.95 1248.07,-94.65"/>
<polygon fill="midnightblue" stroke="midnightblue" points="1765.22,-197.54 1775.7,-195.99 1766.54,-190.67 1765.22,-197.54"/>
</g>
<!-- Node20 -->
<g id="node20" class="node">
<title>Node20</title>
<g id="a_node20"><a xlink:href="mxiconatlas_8cpp.html" target="_top" xlink:title=" ">
<polygon fill="none" stroke="black" points="1747.5,-134.5 1747.5,-153.5 1892.5,-153.5 1892.5,-134.5 1747.5,-134.5"/>
<text text-anchor="middle" x="1820" y="-141.5" font-family="Helvetica,sans-Serif" font-size="10.00">src/iconatlas/mxiconatlas.cpp</text>
</a>
</g>
</g>
<!-- Node19&#45;&gt;Node20 -->
<g id="edge23" class="edge">
<title>Node19&#45;&gt;Node20</title>
<path fill="none" stroke="midnightblue" d="M1820,-185.82C1820,-175 1820,-161.9 1820,-153.51"/>
<polygon fill="midnightblue" stroke="midnightblue" points="1816.5,-185.98 1820,-195.98 1823.5,-185.98 1816.5,-185.98"/>
</g>
<!-- Node21&#45;&gt;Node19 -->
<g id="edge32" class="edge">
<title>Node21&#45;&gt;Node19</title>
<path fill="none" stroke="midnightblue" d="M1039.45,-270.03C1169.04,-266.32 1483.05,-254.38 1744,-221 1755.86,-219.48 1768.66,-217.27 1780.31,-215.02"/>
<polygon fill="midnightblue" stroke="midnightblue" points="1039.23,-266.53 1029.33,-270.31 1039.42,-273.53 1039.23,-266.53"/>
</g>
<!-- Node22 -->
<g id="node22" class="node">
<title>Node22</title>
<g id="a_node22"><a xlink:href="mxguirenderer_8h.html" target="_top" xlink:title=" ">
<polygon fill="none" stroke="black" points="920.5,-196 920.5,-215 1037.5,-215 1037.5,-196 920.5,-196"/>
<text text-anchor="middle" x="979" y="-203" font-family="Helvetica,sans-Serif" font-size="10.00">src/gui/mxguirenderer.h</text>
</a>
</g>
</g>
<!-- Node21&#45;&gt;Node22 -->
<g id="edge26" class="edge">
<title>Node21&#45;&gt;Node22</title>
<path fill="none" stroke="midnightblue" d="M979,-247.25C979,-236.02 979,-223.38 979,-215.19"/>
<polygon fill="midnightblue" stroke="midnightblue" points="975.5,-247.4 979,-257.4 982.5,-247.4 975.5,-247.4"/>
</g>
<!-- Node24 -->
<g id="node24" class="node">
<title>Node24</title>
<g id="a_node24"><a xlink:href="mxicondraw_8cpp.html" target="_top" xlink:title=" ">
<polygon fill="none" stroke="black" points="1055.5,-196 1055.5,-215 1174.5,-215 1174.5,-196 1055.5,-196"/>
<text text-anchor="middle" x="1115" y="-203" font-family="Helvetica,sans-Serif" font-size="10.00">src/gui/mxicondraw.cpp</text>
</a>
</g>
</g>
<!-- Node21&#45;&gt;Node24 -->
<g id="edge30" class="edge">
<title>Node21&#45;&gt;Node24</title>
<path fill="none" stroke="midnightblue" d="M1017.78,-252.97C1043.9,-240.48 1077.13,-224.6 1097.2,-215.01"/>
<polygon fill="midnightblue" stroke="midnightblue" points="1016.02,-249.93 1008.51,-257.4 1019.04,-256.24 1016.02,-249.93"/>
</g>
<!-- Node25 -->
<g id="node25" class="node">
<title>Node25</title>
<g id="a_node25"><a xlink:href="mxvectordraw_8cpp.html" target="_top" xlink:title=" ">
<polygon fill="none" stroke="black" points="1193,-196 1193,-215 1321,-215 1321,-196 1193,-196"/>
<text text-anchor="middle" x="1257" y="-203" font-family="Helvetica,sans-Serif" font-size="10.00">src/gui/mxvectordraw.cpp</text>
</a>
</g>
</g>
<!-- Node21&#45;&gt;Node25 -->
<g id="edge31" class="edge">
<title>Node21&#45;&gt;Node25</title>
<path fill="none" stroke="midnightblue" d="M1039.01,-257.47C1094.13,-244.58 1174.04,-225.9 1220.25,-215.09"/>
<polygon fill="midnightblue" stroke="midnightblue" points="1037.96,-254.12 1029.02,-259.8 1039.56,-260.94 1037.96,-254.12"/>
</g>
<!-- Node26 -->
<g id="node26" class="node">
<title>Node26</title>
<g id="a_node26"><a xlink:href="mxcolorwheelprogram_8cpp.html" target="_top" xlink:title=" ">
<polygon fill="none" stroke="black" points="1339.5,-190.5 1339.5,-220.5 1556.5,-220.5 1556.5,-190.5 1339.5,-190.5"/>
<text text-anchor="start" x="1347.5" y="-208.5" font-family="Helvetica,sans-Serif" font-size="10.00">src/renderer/opengl</text>
<text text-anchor="middle" x="1448" y="-197.5" font-family="Helvetica,sans-Serif" font-size="10.00">/colorwheelprogram/mxcolorwheelprogram.cpp</text>
</a>
</g>
</g>
<!-- Node21&#45;&gt;Node26 -->
<g id="edge33" class="edge">
<title>Node21&#45;&gt;Node26</title>
<path fill="none" stroke="midnightblue" d="M1039.3,-263.14C1117.01,-252.37 1253.26,-233.49 1346.93,-220.51"/>
<polygon fill="midnightblue" stroke="midnightblue" points="1038.62,-259.7 1029.19,-264.54 1039.58,-266.64 1038.62,-259.7"/>
</g>
<!-- Node27 -->
<g id="node27" class="node">
<title>Node27</title>
<g id="a_node27"><a xlink:href="mxiconprogram_8cpp.html" target="_top" xlink:title=" ">
<polygon fill="none" stroke="black" points="1575,-190.5 1575,-220.5 1735,-220.5 1735,-190.5 1575,-190.5"/>
<text text-anchor="start" x="1583" y="-208.5" font-family="Helvetica,sans-Serif" font-size="10.00">src/renderer/opengl</text>
<text text-anchor="middle" x="1655" y="-197.5" font-family="Helvetica,sans-Serif" font-size="10.00">/iconprogram/mxiconprogram.cpp</text>
</a>
</g>
</g>
<!-- Node21&#45;&gt;Node27 -->
<g id="edge34" class="edge">
<title>Node21&#45;&gt;Node27</title>
<path fill="none" stroke="midnightblue" d="M1039.64,-267.8C1146.32,-260.96 1374.44,-244.81 1566,-221 1568.95,-220.63 1571.96,-220.24 1574.99,-219.83"/>
<polygon fill="midnightblue" stroke="midnightblue" points="1039.15,-264.33 1029.39,-268.46 1039.59,-271.31 1039.15,-264.33"/>
</g>
<!-- Node28 -->
<g id="node28" class="node">
<title>Node28</title>
<g id="a_node28"><a xlink:href="mxgpuarray_8cpp.html" target="_top" xlink:title=" ">
<polygon fill="none" stroke="black" points="250,-190.5 250,-220.5 350,-220.5 350,-190.5 250,-190.5"/>
<text text-anchor="start" x="258" y="-208.5" font-family="Helvetica,sans-Serif" font-size="10.00">src/renderer/opengl</text>
<text text-anchor="middle" x="300" y="-197.5" font-family="Helvetica,sans-Serif" font-size="10.00">/mxgpuarray.cpp</text>
</a>
</g>
</g>
<!-- Node21&#45;&gt;Node28 -->
<g id="edge35" class="edge">
<title>Node21&#45;&gt;Node28</title>
<path fill="none" stroke="midnightblue" d="M918.83,-269.79C807.61,-265.92 562.64,-254.1 359,-221 356.08,-220.53 353.1,-219.98 350.1,-219.39"/>
<polygon fill="midnightblue" stroke="midnightblue" points="918.73,-273.29 928.85,-270.13 918.97,-266.29 918.73,-273.29"/>
</g>
<!-- Node29 -->
<g id="node29" class="node">
<title>Node29</title>
<g id="a_node29"><a xlink:href="mxgpuprogram_8cpp.html" target="_top" xlink:title=" ">
<polygon fill="none" stroke="black" points="368.5,-190.5 368.5,-220.5 469.5,-220.5 469.5,-190.5 368.5,-190.5"/>
<text text-anchor="start" x="376.5" y="-208.5" font-family="Helvetica,sans-Serif" font-size="10.00">src/renderer/opengl</text>
<text text-anchor="middle" x="419" y="-197.5" font-family="Helvetica,sans-Serif" font-size="10.00">/mxgpuprogram.cpp</text>
</a>
</g>
</g>
<!-- Node21&#45;&gt;Node29 -->
<g id="edge36" class="edge">
<title>Node21&#45;&gt;Node29</title>
<path fill="none" stroke="midnightblue" d="M918.45,-268.06C824.04,-262.09 636.3,-247.82 479,-221 475.94,-220.48 472.8,-219.89 469.64,-219.25"/>
<polygon fill="midnightblue" stroke="midnightblue" points="918.46,-271.57 928.66,-268.7 918.9,-264.58 918.46,-271.57"/>
</g>
<!-- Node30 -->
<g id="node30" class="node">
<title>Node30</title>
<g id="a_node30"><a xlink:href="mxrenderer_8cpp.html" target="_top" xlink:title=" ">
<polygon fill="none" stroke="black" points="488,-190.5 488,-220.5 588,-220.5 588,-190.5 488,-190.5"/>
<text text-anchor="start" x="496" y="-208.5" font-family="Helvetica,sans-Serif" font-size="10.00">src/renderer/opengl</text>
<text text-anchor="middle" x="538" y="-197.5" font-family="Helvetica,sans-Serif" font-size="10.00">/mxrenderer.cpp</text>
</a>
</g>
</g>
<!-- Node21&#45;&gt;Node30 -->
<g id="edge37" class="edge">
<title>Node21&#45;&gt;Node30</title>
<path fill="none" stroke="midnightblue" d="M918.7,-265.59C843.14,-257.72 709.86,-242.26 597,-221 594.1,-220.45 591.12,-219.85 588.13,-219.22"/>
<polygon fill="midnightblue" stroke="midnightblue" points="918.66,-269.11 928.97,-266.65 919.38,-262.14 918.66,-269.11"/>
</g>
<!-- Node31 -->
<g id="node31" class="node">
<title>Node31</title>
<g id="a_node31"><a xlink:href="mxtexture_8cpp.html" target="_top" xlink:title=" ">
<polygon fill="none" stroke="black" points="606,-190.5 606,-220.5 706,-220.5 706,-190.5 606,-190.5"/>
<text text-anchor="start" x="614" y="-208.5" font-family="Helvetica,sans-Serif" font-size="10.00">src/renderer/opengl</text>
<text text-anchor="middle" x="656" y="-197.5" font-family="Helvetica,sans-Serif" font-size="10.00">/mxtexture.cpp</text>
</a>
</g>
</g>
<!-- Node21&#45;&gt;Node31 -->
<g id="edge38" class="edge">
<title>Node21&#45;&gt;Node31</title>
<path fill="none" stroke="midnightblue" d="M918.7,-260.89C865.07,-251.23 784.6,-236.2 715,-221 712.11,-220.37 709.15,-219.7 706.17,-219.02"/>
<polygon fill="midnightblue" stroke="midnightblue" points="918.26,-264.36 928.72,-262.69 919.5,-257.47 918.26,-264.36"/>
</g>
<!-- Node32 -->
<g id="node32" class="node">
<title>Node32</title>
<g id="a_node32"><a xlink:href="mxvectorprogram_8cpp.html" target="_top" xlink:title=" ">
<polygon fill="none" stroke="black" points="724,-190.5 724,-220.5 902,-220.5 902,-190.5 724,-190.5"/>
<text text-anchor="start" x="732" y="-208.5" font-family="Helvetica,sans-Serif" font-size="10.00">src/renderer/opengl</text>
<text text-anchor="middle" x="813" y="-197.5" font-family="Helvetica,sans-Serif" font-size="10.00">/vectorprogram/mxvectorprogram.cpp</text>
</a>
</g>
</g>
<!-- Node21&#45;&gt;Node32 -->
<g id="edge39" class="edge">
<title>Node21&#45;&gt;Node32</title>
<path fill="none" stroke="midnightblue" d="M933.49,-253.68C906.87,-243.26 873.73,-230.28 848.95,-220.58"/>
<polygon fill="midnightblue" stroke="midnightblue" points="932.39,-257.01 942.98,-257.4 934.95,-250.49 932.39,-257.01"/>
</g>
<!-- Node22&#45;&gt;Node8 -->
<g id="edge27" class="edge">
<title>Node22&#45;&gt;Node8</title>
<path fill="none" stroke="midnightblue" d="M1005.94,-191.67C1030.2,-180.13 1065.16,-163.49 1086.12,-153.51"/>
<polygon fill="midnightblue" stroke="midnightblue" points="1004.43,-188.52 996.91,-195.98 1007.44,-194.84 1004.43,-188.52"/>
</g>
<!-- Node22&#45;&gt;Node12 -->
<g id="edge29" class="edge">
<title>Node22&#45;&gt;Node12</title>
<path fill="none" stroke="midnightblue" d="M930.45,-193.86C923.92,-192.51 917.31,-191.19 911,-190 835.21,-175.7 747.12,-161.7 691.72,-153.21"/>
<polygon fill="midnightblue" stroke="midnightblue" points="930.08,-197.35 940.58,-195.98 931.51,-190.5 930.08,-197.35"/>
</g>
<!-- Node23 -->
<g id="node23" class="node">
<title>Node23</title>
<g id="a_node23"><a xlink:href="mxguirenderer_8cpp.html" target="_top" xlink:title=" ">
<polygon fill="none" stroke="black" points="1188,-134.5 1188,-153.5 1316,-153.5 1316,-134.5 1188,-134.5"/>
<text text-anchor="middle" x="1252" y="-141.5" font-family="Helvetica,sans-Serif" font-size="10.00">src/gui/mxguirenderer.cpp</text>
</a>
</g>
</g>
<!-- Node22&#45;&gt;Node23 -->
<g id="edge28" class="edge">
<title>Node22&#45;&gt;Node23</title>
<path fill="none" stroke="midnightblue" d="M1027.95,-193.83C1080.9,-182.29 1164.24,-164.13 1212.96,-153.51"/>
<polygon fill="midnightblue" stroke="midnightblue" points="1027.14,-190.43 1018.11,-195.98 1028.63,-197.27 1027.14,-190.43"/>
</g>
</g>
</svg>
