<?xml version="1.0" encoding="UTF-8" standalone="no"?>
<!DOCTYPE svg PUBLIC "-//W3C//DTD SVG 1.1//EN"
 "http://www.w3.org/Graphics/SVG/1.1/DTD/svg11.dtd">
<!-- Generated by graphviz version 2.44.0 ()
 -->
<!-- Title: src/renderer/opengl/mxshaderprogram.cpp Pages: 1 -->
<svg width="1016pt" height="375pt"
 viewBox="0.00 0.00 1015.50 375.00" xmlns="http://www.w3.org/2000/svg" xmlns:xlink="http://www.w3.org/1999/xlink">
<g id="graph0" class="graph" transform="scale(1 1) rotate(0) translate(4 371)">
<title>src/renderer/opengl/mxshaderprogram.cpp</title>
<!-- Node1 -->
<g id="node1" class="node">
<title>Node1</title>
<g id="a_node1"><a xlink:title=" ">
<polygon fill="#bfbfbf" stroke="black" points="892,-336.5 892,-366.5 1007,-366.5 1007,-336.5 892,-336.5"/>
<text text-anchor="start" x="900" y="-354.5" font-family="Helvetica,sans-Serif" font-size="10.00">src/renderer/opengl</text>
<text text-anchor="middle" x="949.5" y="-343.5" font-family="Helvetica,sans-Serif" font-size="10.00">/mxshaderprogram.cpp</text>
</a>
</g>
</g>
<!-- Node2 -->
<g id="node2" class="node">
<title>Node2</title>
<g id="a_node2"><a xlink:title=" ">
<polygon fill="none" stroke="#bfbfbf" points="582,-0.5 582,-19.5 645,-19.5 645,-0.5 582,-0.5"/>
<text text-anchor="middle" x="613.5" y="-7.5" font-family="Helvetica,sans-Serif" font-size="10.00">mxdebug.h</text>
</a>
</g>
</g>
<!-- Node1&#45;&gt;Node2 -->
<g id="edge1" class="edge">
<title>Node1&#45;&gt;Node2</title>
<path fill="none" stroke="midnightblue" d="M962.09,-336.34C979.14,-315.63 1007.5,-275.16 1007.5,-235 1007.5,-235 1007.5,-235 1007.5,-121 1007.5,-48.46 756.64,-21.65 655.26,-13.77"/>
<polygon fill="midnightblue" stroke="midnightblue" points="655.31,-10.27 645.08,-13.01 654.79,-17.25 655.31,-10.27"/>
</g>
<!-- Node3 -->
<g id="node3" class="node">
<title>Node3</title>
<g id="a_node3"><a xlink:href="mxshaderprogram_8h.html" target="_top" xlink:title=" ">
<polygon fill="none" stroke="black" points="840,-168.5 840,-187.5 941,-187.5 941,-168.5 840,-168.5"/>
<text text-anchor="middle" x="890.5" y="-175.5" font-family="Helvetica,sans-Serif" font-size="10.00">mxshaderprogram.h</text>
</a>
</g>
</g>
<!-- Node1&#45;&gt;Node3 -->
<g id="edge2" class="edge">
<title>Node1&#45;&gt;Node3</title>
<path fill="none" stroke="midnightblue" d="M953.58,-336.28C959.77,-311.84 968.97,-260.93 950.5,-224 943.77,-210.54 930.89,-200.07 918.79,-192.62"/>
<polygon fill="midnightblue" stroke="midnightblue" points="920.22,-189.41 909.8,-187.52 916.77,-195.5 920.22,-189.41"/>
</g>
<!-- Node5 -->
<g id="node5" class="node">
<title>Node5</title>
<g id="a_node5"><a xlink:href="opengl_2mxgpuarray_8h.html" target="_top" xlink:title=" ">
<polygon fill="none" stroke="black" points="867.5,-224.5 867.5,-243.5 941.5,-243.5 941.5,-224.5 867.5,-224.5"/>
<text text-anchor="middle" x="904.5" y="-231.5" font-family="Helvetica,sans-Serif" font-size="10.00">mxgpuarray.h</text>
</a>
</g>
</g>
<!-- Node1&#45;&gt;Node5 -->
<g id="edge5" class="edge">
<title>Node1&#45;&gt;Node5</title>
<path fill="none" stroke="midnightblue" d="M943.98,-336.34C935.84,-315.43 920.59,-276.31 911.62,-253.27"/>
<polygon fill="midnightblue" stroke="midnightblue" points="914.77,-251.72 907.88,-243.67 908.25,-254.26 914.77,-251.72"/>
</g>
<!-- Node6 -->
<g id="node6" class="node">
<title>Node6</title>
<g id="a_node6"><a xlink:href="opengl_2mxrenderer_8h.html" target="_top" xlink:title=" ">
<polygon fill="none" stroke="black" points="570.5,-280.5 570.5,-299.5 642.5,-299.5 642.5,-280.5 570.5,-280.5"/>
<text text-anchor="middle" x="606.5" y="-287.5" font-family="Helvetica,sans-Serif" font-size="10.00">mxrenderer.h</text>
</a>
</g>
</g>
<!-- Node1&#45;&gt;Node6 -->
<g id="edge7" class="edge">
<title>Node1&#45;&gt;Node6</title>
<path fill="none" stroke="midnightblue" d="M891.7,-340.47C824.42,-328.8 714.66,-309.76 652.76,-299.02"/>
<polygon fill="midnightblue" stroke="midnightblue" points="653.33,-295.57 642.88,-297.31 652.13,-302.47 653.33,-295.57"/>
</g>
<!-- Node3&#45;&gt;Node2 -->
<g id="edge3" class="edge">
<title>Node3&#45;&gt;Node2</title>
<path fill="none" stroke="midnightblue" d="M881.69,-168.27C868.06,-155.06 840.7,-129.66 814.5,-112 757.8,-73.79 684.65,-40.61 644.07,-23.45"/>
<polygon fill="midnightblue" stroke="midnightblue" points="645.29,-20.17 634.72,-19.53 642.59,-26.62 645.29,-20.17"/>
</g>
<!-- Node4 -->
<g id="node4" class="node">
<title>Node4</title>
<g id="a_node4"><a xlink:href="mxopengl_8h.html" target="_top" xlink:title=" ">
<polygon fill="none" stroke="black" points="658,-112.5 658,-131.5 723,-131.5 723,-112.5 658,-112.5"/>
<text text-anchor="middle" x="690.5" y="-119.5" font-family="Helvetica,sans-Serif" font-size="10.00">mxopengl.h</text>
</a>
</g>
</g>
<!-- Node3&#45;&gt;Node4 -->
<g id="edge4" class="edge">
<title>Node3&#45;&gt;Node4</title>
<path fill="none" stroke="midnightblue" d="M858.81,-168.44C824.43,-159.16 769.42,-144.31 731.71,-134.13"/>
<polygon fill="midnightblue" stroke="midnightblue" points="732.61,-130.74 722.04,-131.52 730.78,-137.5 732.61,-130.74"/>
</g>
<!-- Node5&#45;&gt;Node3 -->
<g id="edge6" class="edge">
<title>Node5&#45;&gt;Node3</title>
<path fill="none" stroke="midnightblue" d="M902.19,-224.08C900.33,-216.93 897.66,-206.64 895.35,-197.69"/>
<polygon fill="midnightblue" stroke="midnightblue" points="898.67,-196.55 892.77,-187.75 891.89,-198.31 898.67,-196.55"/>
</g>
<!-- Node6&#45;&gt;Node5 -->
<g id="edge39" class="edge">
<title>Node6&#45;&gt;Node5</title>
<path fill="none" stroke="midnightblue" d="M642.69,-282.65C689.63,-274.38 774.34,-259.36 857.45,-243.99"/>
<polygon fill="midnightblue" stroke="midnightblue" points="858.11,-247.43 867.31,-242.16 856.84,-240.54 858.11,-247.43"/>
</g>
<!-- Node7 -->
<g id="node7" class="node">
<title>Node7</title>
<g id="a_node7"><a xlink:href="mxopenglfunctions_8h.html" target="_top" xlink:title=" ">
<polygon fill="none" stroke="black" points="76,-224.5 76,-243.5 181,-243.5 181,-224.5 76,-224.5"/>
<text text-anchor="middle" x="128.5" y="-231.5" font-family="Helvetica,sans-Serif" font-size="10.00">mxopenglfunctions.h</text>
</a>
</g>
</g>
<!-- Node6&#45;&gt;Node7 -->
<g id="edge8" class="edge">
<title>Node6&#45;&gt;Node7</title>
<path fill="none" stroke="midnightblue" d="M570.18,-284.9C489.09,-275.74 292.47,-253.52 191.15,-242.08"/>
<polygon fill="midnightblue" stroke="midnightblue" points="191.39,-238.58 181.06,-240.94 190.61,-245.54 191.39,-238.58"/>
</g>
<!-- Node9 -->
<g id="node9" class="node">
<title>Node9</title>
<g id="a_node9"><a xlink:href="mxcolorwheelprogram_8h.html" target="_top" xlink:title=" ">
<polygon fill="none" stroke="black" points="730,-224.5 730,-243.5 849,-243.5 849,-224.5 730,-224.5"/>
<text text-anchor="middle" x="789.5" y="-231.5" font-family="Helvetica,sans-Serif" font-size="10.00">mxcolorwheelprogram.h</text>
</a>
</g>
</g>
<!-- Node6&#45;&gt;Node9 -->
<g id="edge10" class="edge">
<title>Node6&#45;&gt;Node9</title>
<path fill="none" stroke="midnightblue" d="M635.5,-280.44C666.68,-271.24 716.43,-256.56 750.91,-246.39"/>
<polygon fill="midnightblue" stroke="midnightblue" points="752.04,-249.7 760.64,-243.52 750.06,-242.99 752.04,-249.7"/>
</g>
<!-- Node15 -->
<g id="node15" class="node">
<title>Node15</title>
<g id="a_node15"><a xlink:href="mxvectorprogram_8h.html" target="_top" xlink:title=" ">
<polygon fill="none" stroke="black" points="613,-224.5 613,-243.5 712,-243.5 712,-224.5 613,-224.5"/>
<text text-anchor="middle" x="662.5" y="-231.5" font-family="Helvetica,sans-Serif" font-size="10.00">mxvectorprogram.h</text>
</a>
</g>
</g>
<!-- Node6&#45;&gt;Node15 -->
<g id="edge20" class="edge">
<title>Node6&#45;&gt;Node15</title>
<path fill="none" stroke="midnightblue" d="M615.5,-280.32C623.69,-272.42 636.01,-260.55 645.97,-250.94"/>
<polygon fill="midnightblue" stroke="midnightblue" points="648.57,-253.29 653.34,-243.83 643.71,-248.26 648.57,-253.29"/>
</g>
<!-- Node17 -->
<g id="node17" class="node">
<title>Node17</title>
<g id="a_node17"><a xlink:href="mxlist_8h.html" target="_top" xlink:title=" ">
<polygon fill="none" stroke="black" points="343.5,-224.5 343.5,-243.5 393.5,-243.5 393.5,-224.5 343.5,-224.5"/>
<text text-anchor="middle" x="368.5" y="-231.5" font-family="Helvetica,sans-Serif" font-size="10.00">mxlist.h</text>
</a>
</g>
</g>
<!-- Node6&#45;&gt;Node17 -->
<g id="edge25" class="edge">
<title>Node6&#45;&gt;Node17</title>
<path fill="none" stroke="midnightblue" d="M570.35,-280.8C525.11,-270.53 448.16,-253.07 403.47,-242.93"/>
<polygon fill="midnightblue" stroke="midnightblue" points="404.17,-239.51 393.65,-240.71 402.63,-246.33 404.17,-239.51"/>
</g>
<!-- Node22 -->
<g id="node22" class="node">
<title>Node22</title>
<g id="a_node22"><a xlink:href="mxiconprogram_8h.html" target="_top" xlink:title=" ">
<polygon fill="none" stroke="black" points="504.5,-224.5 504.5,-243.5 594.5,-243.5 594.5,-224.5 504.5,-224.5"/>
<text text-anchor="middle" x="549.5" y="-231.5" font-family="Helvetica,sans-Serif" font-size="10.00">mxiconprogram.h</text>
</a>
</g>
</g>
<!-- Node6&#45;&gt;Node22 -->
<g id="edge31" class="edge">
<title>Node6&#45;&gt;Node22</title>
<path fill="none" stroke="midnightblue" d="M597.34,-280.32C589,-272.42 576.47,-260.55 566.32,-250.94"/>
<polygon fill="midnightblue" stroke="midnightblue" points="568.49,-248.17 558.82,-243.83 563.68,-253.25 568.49,-248.17"/>
</g>
<!-- Node23 -->
<g id="node23" class="node">
<title>Node23</title>
<g id="a_node23"><a xlink:href="mxbuffer_8h.html" target="_top" xlink:title=" ">
<polygon fill="none" stroke="black" points="264,-224.5 264,-243.5 325,-243.5 325,-224.5 264,-224.5"/>
<text text-anchor="middle" x="294.5" y="-231.5" font-family="Helvetica,sans-Serif" font-size="10.00">mxbuffer.h</text>
</a>
</g>
</g>
<!-- Node6&#45;&gt;Node23 -->
<g id="edge38" class="edge">
<title>Node6&#45;&gt;Node23</title>
<path fill="none" stroke="midnightblue" d="M570.3,-283.69C519.91,-276.14 425.53,-261.48 334.92,-243.98"/>
<polygon fill="midnightblue" stroke="midnightblue" points="335.52,-240.53 325.04,-242.06 334.18,-247.41 335.52,-240.53"/>
</g>
<!-- Node8 -->
<g id="node8" class="node">
<title>Node8</title>
<g id="a_node8"><a xlink:title=" ">
<polygon fill="none" stroke="#bfbfbf" points="0,-168.5 0,-187.5 125,-187.5 125,-168.5 0,-168.5"/>
<text text-anchor="middle" x="62.5" y="-175.5" font-family="Helvetica,sans-Serif" font-size="10.00">QOpenGLExtraFunctions</text>
</a>
</g>
</g>
<!-- Node7&#45;&gt;Node8 -->
<g id="edge9" class="edge">
<title>Node7&#45;&gt;Node8</title>
<path fill="none" stroke="midnightblue" d="M117.9,-224.32C108.04,-216.26 93.15,-204.08 81.28,-194.37"/>
<polygon fill="midnightblue" stroke="midnightblue" points="83.25,-191.46 73.3,-187.83 78.82,-196.88 83.25,-191.46"/>
</g>
<!-- Node9&#45;&gt;Node2 -->
<g id="edge11" class="edge">
<title>Node9&#45;&gt;Node2</title>
<path fill="none" stroke="midnightblue" d="M846.11,-224.44C886.87,-216.98 936.82,-204.73 949.5,-188 954.87,-180.91 953.98,-175.68 949.5,-168 887.46,-61.63 730.58,-26.57 655.2,-15.64"/>
<polygon fill="midnightblue" stroke="midnightblue" points="655.51,-12.14 645.12,-14.25 654.55,-19.08 655.51,-12.14"/>
</g>
<!-- Node9&#45;&gt;Node3 -->
<g id="edge12" class="edge">
<title>Node9&#45;&gt;Node3</title>
<path fill="none" stroke="midnightblue" d="M805.73,-224.32C821.85,-215.7 846.8,-202.36 865.46,-192.39"/>
<polygon fill="midnightblue" stroke="midnightblue" points="867.14,-195.46 874.31,-187.65 863.84,-189.28 867.14,-195.46"/>
</g>
<!-- Node10 -->
<g id="node10" class="node">
<title>Node10</title>
<g id="a_node10"><a xlink:href="mxmatrix_8h.html" target="_top" xlink:title=" ">
<polygon fill="none" stroke="black" points="720,-168.5 720,-187.5 783,-187.5 783,-168.5 720,-168.5"/>
<text text-anchor="middle" x="751.5" y="-175.5" font-family="Helvetica,sans-Serif" font-size="10.00">mxmatrix.h</text>
</a>
</g>
</g>
<!-- Node9&#45;&gt;Node10 -->
<g id="edge13" class="edge">
<title>Node9&#45;&gt;Node10</title>
<path fill="none" stroke="midnightblue" d="M783.23,-224.08C777.86,-216.46 769.98,-205.26 763.42,-195.94"/>
<polygon fill="midnightblue" stroke="midnightblue" points="766.28,-193.91 757.66,-187.75 760.55,-197.94 766.28,-193.91"/>
</g>
<!-- Node12 -->
<g id="node12" class="node">
<title>Node12</title>
<g id="a_node12"><a xlink:href="mxrect_8h.html" target="_top" xlink:title=" ">
<polygon fill="none" stroke="black" points="587,-112.5 587,-131.5 640,-131.5 640,-112.5 587,-112.5"/>
<text text-anchor="middle" x="613.5" y="-119.5" font-family="Helvetica,sans-Serif" font-size="10.00">mxrect.h</text>
</a>
</g>
</g>
<!-- Node9&#45;&gt;Node12 -->
<g id="edge15" class="edge">
<title>Node9&#45;&gt;Node12</title>
<path fill="none" stroke="midnightblue" d="M792.92,-224.36C797.65,-210.8 804.27,-184.38 791.5,-168 753.1,-118.73 715.69,-145.36 650.13,-132.15"/>
<polygon fill="midnightblue" stroke="midnightblue" points="650.78,-128.7 640.25,-129.89 649.22,-135.53 650.78,-128.7"/>
</g>
<!-- Node11 -->
<g id="node11" class="node">
<title>Node11</title>
<g id="a_node11"><a xlink:title=" ">
<polygon fill="none" stroke="#bfbfbf" points="741,-112.5 741,-131.5 806,-131.5 806,-112.5 741,-112.5"/>
<text text-anchor="middle" x="773.5" y="-119.5" font-family="Helvetica,sans-Serif" font-size="10.00">QMatrix4x4</text>
</a>
</g>
</g>
<!-- Node10&#45;&gt;Node11 -->
<g id="edge14" class="edge">
<title>Node10&#45;&gt;Node11</title>
<path fill="none" stroke="midnightblue" d="M755.13,-168.08C758.11,-160.77 762.43,-150.18 766.12,-141.1"/>
<polygon fill="midnightblue" stroke="midnightblue" points="769.4,-142.33 769.93,-131.75 762.92,-139.69 769.4,-142.33"/>
</g>
<!-- Node12&#45;&gt;Node2 -->
<g id="edge16" class="edge">
<title>Node12&#45;&gt;Node2</title>
<path fill="none" stroke="midnightblue" d="M613.5,-112.37C613.5,-94.62 613.5,-53.67 613.5,-29.6"/>
<polygon fill="midnightblue" stroke="midnightblue" points="617,-29.59 613.5,-19.59 610,-29.59 617,-29.59"/>
</g>
<!-- Node13 -->
<g id="node13" class="node">
<title>Node13</title>
<g id="a_node13"><a xlink:href="mxvector_8h.html" target="_top" xlink:title=" ">
<polygon fill="none" stroke="black" points="521.5,-56.5 521.5,-75.5 585.5,-75.5 585.5,-56.5 521.5,-56.5"/>
<text text-anchor="middle" x="553.5" y="-63.5" font-family="Helvetica,sans-Serif" font-size="10.00">mxvector.h</text>
</a>
</g>
</g>
<!-- Node12&#45;&gt;Node13 -->
<g id="edge17" class="edge">
<title>Node12&#45;&gt;Node13</title>
<path fill="none" stroke="midnightblue" d="M603.86,-112.32C594.99,-104.34 581.63,-92.31 570.89,-82.65"/>
<polygon fill="midnightblue" stroke="midnightblue" points="573.09,-79.92 563.32,-75.83 568.41,-85.13 573.09,-79.92"/>
</g>
<!-- Node14 -->
<g id="node14" class="node">
<title>Node14</title>
<g id="a_node14"><a xlink:title=" ">
<polygon fill="none" stroke="#bfbfbf" points="641.5,-56.5 641.5,-75.5 697.5,-75.5 697.5,-56.5 641.5,-56.5"/>
<text text-anchor="middle" x="669.5" y="-63.5" font-family="Helvetica,sans-Serif" font-size="10.00">algorithm</text>
</a>
</g>
</g>
<!-- Node12&#45;&gt;Node14 -->
<g id="edge19" class="edge">
<title>Node12&#45;&gt;Node14</title>
<path fill="none" stroke="midnightblue" d="M622.5,-112.32C630.69,-104.42 643.01,-92.55 652.97,-82.94"/>
<polygon fill="midnightblue" stroke="midnightblue" points="655.57,-85.29 660.34,-75.83 650.71,-80.26 655.57,-85.29"/>
</g>
<!-- Node13&#45;&gt;Node2 -->
<g id="edge18" class="edge">
<title>Node13&#45;&gt;Node2</title>
<path fill="none" stroke="midnightblue" d="M563.14,-56.32C572.01,-48.34 585.37,-36.31 596.11,-26.65"/>
<polygon fill="midnightblue" stroke="midnightblue" points="598.59,-29.13 603.68,-19.83 593.91,-23.92 598.59,-29.13"/>
</g>
<!-- Node15&#45;&gt;Node3 -->
<g id="edge21" class="edge">
<title>Node15&#45;&gt;Node3</title>
<path fill="none" stroke="midnightblue" d="M698.63,-224.44C738.15,-215.08 801.6,-200.06 844.61,-189.87"/>
<polygon fill="midnightblue" stroke="midnightblue" points="845.62,-193.23 854.54,-187.52 844,-186.42 845.62,-193.23"/>
</g>
<!-- Node15&#45;&gt;Node10 -->
<g id="edge22" class="edge">
<title>Node15&#45;&gt;Node10</title>
<path fill="none" stroke="midnightblue" d="M676.8,-224.32C690.68,-215.9 711.99,-202.97 728.3,-193.07"/>
<polygon fill="midnightblue" stroke="midnightblue" points="730.5,-195.83 737.24,-187.65 726.87,-189.85 730.5,-195.83"/>
</g>
<!-- Node16 -->
<g id="node16" class="node">
<title>Node16</title>
<g id="a_node16"><a xlink:href="mxvectordraw_8h.html" target="_top" xlink:title=" ">
<polygon fill="none" stroke="black" points="617,-168.5 617,-187.5 702,-187.5 702,-168.5 617,-168.5"/>
<text text-anchor="middle" x="659.5" y="-175.5" font-family="Helvetica,sans-Serif" font-size="10.00">mxvectordraw.h</text>
</a>
</g>
</g>
<!-- Node15&#45;&gt;Node16 -->
<g id="edge23" class="edge">
<title>Node15&#45;&gt;Node16</title>
<path fill="none" stroke="midnightblue" d="M662,-224.08C661.61,-217.01 661.05,-206.86 660.55,-197.99"/>
<polygon fill="midnightblue" stroke="midnightblue" points="664.04,-197.54 659.99,-187.75 657.05,-197.93 664.04,-197.54"/>
</g>
<!-- Node16&#45;&gt;Node12 -->
<g id="edge24" class="edge">
<title>Node16&#45;&gt;Node12</title>
<path fill="none" stroke="midnightblue" d="M651.9,-168.08C645.27,-160.3 635.48,-148.8 627.44,-139.37"/>
<polygon fill="midnightblue" stroke="midnightblue" points="630.1,-137.09 620.95,-131.75 624.77,-141.63 630.1,-137.09"/>
</g>
<!-- Node17&#45;&gt;Node2 -->
<g id="edge26" class="edge">
<title>Node17&#45;&gt;Node2</title>
<path fill="none" stroke="midnightblue" d="M379.41,-224.43C389.89,-215.88 405.82,-202.02 417.5,-188 461.86,-134.76 447.24,-100.34 500.5,-56 521.14,-38.82 549.16,-27.6 572.14,-20.66"/>
<polygon fill="midnightblue" stroke="midnightblue" points="573.31,-23.97 581.96,-17.86 571.39,-17.24 573.31,-23.97"/>
</g>
<!-- Node18 -->
<g id="node18" class="node">
<title>Node18</title>
<g id="a_node18"><a xlink:href="mxrefcounter_8h.html" target="_top" xlink:title=" ">
<polygon fill="none" stroke="black" points="328.5,-168.5 328.5,-187.5 408.5,-187.5 408.5,-168.5 328.5,-168.5"/>
<text text-anchor="middle" x="368.5" y="-175.5" font-family="Helvetica,sans-Serif" font-size="10.00">mxrefcounter.h</text>
</a>
</g>
</g>
<!-- Node17&#45;&gt;Node18 -->
<g id="edge27" class="edge">
<title>Node17&#45;&gt;Node18</title>
<path fill="none" stroke="midnightblue" d="M368.5,-224.08C368.5,-217.01 368.5,-206.86 368.5,-197.99"/>
<polygon fill="midnightblue" stroke="midnightblue" points="372,-197.75 368.5,-187.75 365,-197.75 372,-197.75"/>
</g>
<!-- Node19 -->
<g id="node19" class="node">
<title>Node19</title>
<g id="a_node19"><a xlink:title=" ">
<polygon fill="none" stroke="#bfbfbf" points="143,-168.5 143,-187.5 190,-187.5 190,-168.5 143,-168.5"/>
<text text-anchor="middle" x="166.5" y="-175.5" font-family="Helvetica,sans-Serif" font-size="10.00">stdlib.h</text>
</a>
</g>
</g>
<!-- Node17&#45;&gt;Node19 -->
<g id="edge28" class="edge">
<title>Node17&#45;&gt;Node19</title>
<path fill="none" stroke="midnightblue" d="M343.29,-226.34C312.06,-218.07 256.97,-203.46 200.16,-188.17"/>
<polygon fill="midnightblue" stroke="midnightblue" points="200.85,-184.73 190.29,-185.51 199.03,-191.49 200.85,-184.73"/>
</g>
<!-- Node20 -->
<g id="node20" class="node">
<title>Node20</title>
<g id="a_node20"><a xlink:title=" ">
<polygon fill="none" stroke="#bfbfbf" points="208.5,-168.5 208.5,-187.5 256.5,-187.5 256.5,-168.5 208.5,-168.5"/>
<text text-anchor="middle" x="232.5" y="-175.5" font-family="Helvetica,sans-Serif" font-size="10.00">string.h</text>
</a>
</g>
</g>
<!-- Node17&#45;&gt;Node20 -->
<g id="edge29" class="edge">
<title>Node17&#45;&gt;Node20</title>
<path fill="none" stroke="midnightblue" d="M346.95,-224.44C324.47,-215.52 289.01,-201.44 263.52,-191.32"/>
<polygon fill="midnightblue" stroke="midnightblue" points="264.53,-187.95 253.95,-187.52 261.95,-194.46 264.53,-187.95"/>
</g>
<!-- Node21 -->
<g id="node21" class="node">
<title>Node21</title>
<g id="a_node21"><a xlink:title=" ">
<polygon fill="none" stroke="#bfbfbf" points="275,-168.5 275,-187.5 310,-187.5 310,-168.5 275,-168.5"/>
<text text-anchor="middle" x="292.5" y="-175.5" font-family="Helvetica,sans-Serif" font-size="10.00">new</text>
</a>
</g>
</g>
<!-- Node17&#45;&gt;Node21 -->
<g id="edge30" class="edge">
<title>Node17&#45;&gt;Node21</title>
<path fill="none" stroke="midnightblue" d="M356.29,-224.32C344.72,-216.11 327.12,-203.6 313.34,-193.81"/>
<polygon fill="midnightblue" stroke="midnightblue" points="315.11,-190.77 304.93,-187.83 311.06,-196.48 315.11,-190.77"/>
</g>
<!-- Node22&#45;&gt;Node2 -->
<g id="edge32" class="edge">
<title>Node22&#45;&gt;Node2</title>
<path fill="none" stroke="midnightblue" d="M543.64,-224.44C525.88,-197.37 476.09,-112.08 512.5,-56 525.58,-35.85 550.02,-24.64 571.58,-18.45"/>
<polygon fill="midnightblue" stroke="midnightblue" points="572.74,-21.77 581.55,-15.88 570.99,-14.99 572.74,-21.77"/>
</g>
<!-- Node22&#45;&gt;Node3 -->
<g id="edge36" class="edge">
<title>Node22&#45;&gt;Node3</title>
<path fill="none" stroke="midnightblue" d="M594.58,-225.45C597.6,-224.96 600.59,-224.47 603.5,-224 681.58,-211.37 771.71,-197.33 829.82,-188.34"/>
<polygon fill="midnightblue" stroke="midnightblue" points="830.58,-191.76 839.93,-186.78 829.51,-184.85 830.58,-191.76"/>
</g>
<!-- Node22&#45;&gt;Node4 -->
<g id="edge35" class="edge">
<title>Node22&#45;&gt;Node4</title>
<path fill="none" stroke="midnightblue" d="M555.83,-224.13C565.71,-210.73 585.92,-185.08 607.5,-168 623.83,-155.07 644.4,-143.89 660.97,-135.91"/>
<polygon fill="midnightblue" stroke="midnightblue" points="662.63,-139 670.21,-131.59 659.67,-132.66 662.63,-139"/>
</g>
<!-- Node22&#45;&gt;Node10 -->
<g id="edge33" class="edge">
<title>Node22&#45;&gt;Node10</title>
<path fill="none" stroke="midnightblue" d="M581.51,-224.44C616.33,-215.13 672.11,-200.22 710.21,-190.04"/>
<polygon fill="midnightblue" stroke="midnightblue" points="711.22,-193.39 719.97,-187.43 709.41,-186.63 711.22,-193.39"/>
</g>
<!-- Node22&#45;&gt;Node12 -->
<g id="edge37" class="edge">
<title>Node22&#45;&gt;Node12</title>
<path fill="none" stroke="midnightblue" d="M551.84,-224.15C555.49,-211.21 563.3,-186.66 574.5,-168 580.81,-157.5 589.63,-147.07 597.29,-138.91"/>
<polygon fill="midnightblue" stroke="midnightblue" points="599.96,-141.19 604.43,-131.58 594.94,-136.3 599.96,-141.19"/>
</g>
<!-- Node22&#45;&gt;Node13 -->
<g id="edge34" class="edge">
<title>Node22&#45;&gt;Node13</title>
<path fill="none" stroke="midnightblue" d="M549.72,-224.08C550.34,-197.95 552.19,-121.21 553.05,-85.58"/>
<polygon fill="midnightblue" stroke="midnightblue" points="556.55,-85.65 553.29,-75.57 549.55,-85.48 556.55,-85.65"/>
</g>
</g>
</svg>
