<?xml version="1.0" encoding="UTF-8" standalone="no"?>
<!DOCTYPE svg PUBLIC "-//W3C//DTD SVG 1.1//EN"
 "http://www.w3.org/Graphics/SVG/1.1/DTD/svg11.dtd">
<!-- Generated by graphviz version 2.44.0 ()
 -->
<!-- Title: src/gui/svg/mxsvgpainter.cpp Pages: 1 -->
<svg width="196pt" height="308pt"
 viewBox="0.00 0.00 196.00 308.00" xmlns="http://www.w3.org/2000/svg" xmlns:xlink="http://www.w3.org/1999/xlink">
<g id="graph0" class="graph" transform="scale(1 1) rotate(0) translate(4 304)">
<title>src/gui/svg/mxsvgpainter.cpp</title>
<!-- Node1 -->
<g id="node1" class="node">
<title>Node1</title>
<g id="a_node1"><a xlink:title=" ">
<polygon fill="#bfbfbf" stroke="black" points="3.5,-280.5 3.5,-299.5 146.5,-299.5 146.5,-280.5 3.5,-280.5"/>
<text text-anchor="middle" x="75" y="-287.5" font-family="Helvetica,sans-Serif" font-size="10.00">src/gui/svg/mxsvgpainter.cpp</text>
</a>
</g>
</g>
<!-- Node2 -->
<g id="node2" class="node">
<title>Node2</title>
<g id="a_node2"><a xlink:href="mxsvgpainter_8h.html" target="_top" xlink:title=" ">
<polygon fill="none" stroke="black" points="0,-224.5 0,-243.5 82,-243.5 82,-224.5 0,-224.5"/>
<text text-anchor="middle" x="41" y="-231.5" font-family="Helvetica,sans-Serif" font-size="10.00">mxsvgpainter.h</text>
</a>
</g>
</g>
<!-- Node1&#45;&gt;Node2 -->
<g id="edge1" class="edge">
<title>Node1&#45;&gt;Node2</title>
<path fill="none" stroke="midnightblue" d="M69.39,-280.08C64.63,-272.53 57.68,-261.49 51.85,-252.23"/>
<polygon fill="midnightblue" stroke="midnightblue" points="54.8,-250.35 46.51,-243.75 48.88,-254.08 54.8,-250.35"/>
</g>
<!-- Node5 -->
<g id="node5" class="node">
<title>Node5</title>
<g id="a_node5"><a xlink:href="mxvectordraw_8h.html" target="_top" xlink:title=" ">
<polygon fill="none" stroke="black" points="67.5,-168.5 67.5,-187.5 152.5,-187.5 152.5,-168.5 67.5,-168.5"/>
<text text-anchor="middle" x="110" y="-175.5" font-family="Helvetica,sans-Serif" font-size="10.00">mxvectordraw.h</text>
</a>
</g>
</g>
<!-- Node1&#45;&gt;Node5 -->
<g id="edge9" class="edge">
<title>Node1&#45;&gt;Node5</title>
<path fill="none" stroke="midnightblue" d="M78.21,-280.42C81.56,-271.41 86.86,-256.78 91,-244 96.03,-228.44 101.21,-210.61 104.88,-197.56"/>
<polygon fill="midnightblue" stroke="midnightblue" points="108.26,-198.45 107.58,-187.88 101.52,-196.57 108.26,-198.45"/>
</g>
<!-- Node3 -->
<g id="node3" class="node">
<title>Node3</title>
<g id="a_node3"><a xlink:href="mxvector_8h.html" target="_top" xlink:title=" ">
<polygon fill="none" stroke="black" points="12,-56.5 12,-75.5 76,-75.5 76,-56.5 12,-56.5"/>
<text text-anchor="middle" x="44" y="-63.5" font-family="Helvetica,sans-Serif" font-size="10.00">mxvector.h</text>
</a>
</g>
</g>
<!-- Node2&#45;&gt;Node3 -->
<g id="edge2" class="edge">
<title>Node2&#45;&gt;Node3</title>
<path fill="none" stroke="midnightblue" d="M41.16,-224.08C41.63,-197.95 43.02,-121.21 43.66,-85.58"/>
<polygon fill="midnightblue" stroke="midnightblue" points="47.16,-85.63 43.85,-75.57 40.16,-85.5 47.16,-85.63"/>
</g>
<!-- Node2&#45;&gt;Node5 -->
<g id="edge4" class="edge">
<title>Node2&#45;&gt;Node5</title>
<path fill="none" stroke="midnightblue" d="M52.09,-224.32C62.49,-216.18 78.26,-203.84 90.72,-194.09"/>
<polygon fill="midnightblue" stroke="midnightblue" points="92.99,-196.75 98.71,-187.83 88.68,-191.24 92.99,-196.75"/>
</g>
<!-- Node4 -->
<g id="node4" class="node">
<title>Node4</title>
<g id="a_node4"><a xlink:title=" ">
<polygon fill="none" stroke="#bfbfbf" points="42.5,-0.5 42.5,-19.5 105.5,-19.5 105.5,-0.5 42.5,-0.5"/>
<text text-anchor="middle" x="74" y="-7.5" font-family="Helvetica,sans-Serif" font-size="10.00">mxdebug.h</text>
</a>
</g>
</g>
<!-- Node3&#45;&gt;Node4 -->
<g id="edge3" class="edge">
<title>Node3&#45;&gt;Node4</title>
<path fill="none" stroke="midnightblue" d="M48.95,-56.08C53.1,-48.61 59.15,-37.72 64.27,-28.52"/>
<polygon fill="midnightblue" stroke="midnightblue" points="67.34,-30.19 69.14,-19.75 61.22,-26.79 67.34,-30.19"/>
</g>
<!-- Node6 -->
<g id="node6" class="node">
<title>Node6</title>
<g id="a_node6"><a xlink:href="mxrect_8h.html" target="_top" xlink:title=" ">
<polygon fill="none" stroke="black" points="80.5,-112.5 80.5,-131.5 133.5,-131.5 133.5,-112.5 80.5,-112.5"/>
<text text-anchor="middle" x="107" y="-119.5" font-family="Helvetica,sans-Serif" font-size="10.00">mxrect.h</text>
</a>
</g>
</g>
<!-- Node5&#45;&gt;Node6 -->
<g id="edge5" class="edge">
<title>Node5&#45;&gt;Node6</title>
<path fill="none" stroke="midnightblue" d="M109.5,-168.08C109.11,-161.01 108.55,-150.86 108.05,-141.99"/>
<polygon fill="midnightblue" stroke="midnightblue" points="111.54,-141.54 107.49,-131.75 104.55,-141.93 111.54,-141.54"/>
</g>
<!-- Node6&#45;&gt;Node3 -->
<g id="edge7" class="edge">
<title>Node6&#45;&gt;Node3</title>
<path fill="none" stroke="midnightblue" d="M96.88,-112.32C87.47,-104.26 73.26,-92.08 61.93,-82.37"/>
<polygon fill="midnightblue" stroke="midnightblue" points="64.18,-79.68 54.31,-75.83 59.62,-85 64.18,-79.68"/>
</g>
<!-- Node6&#45;&gt;Node4 -->
<g id="edge6" class="edge">
<title>Node6&#45;&gt;Node4</title>
<path fill="none" stroke="midnightblue" d="M104.41,-112.37C99.06,-94.54 86.69,-53.3 79.48,-29.27"/>
<polygon fill="midnightblue" stroke="midnightblue" points="82.8,-28.16 76.58,-19.59 76.1,-30.18 82.8,-28.16"/>
</g>
<!-- Node7 -->
<g id="node7" class="node">
<title>Node7</title>
<g id="a_node7"><a xlink:title=" ">
<polygon fill="none" stroke="#bfbfbf" points="132,-56.5 132,-75.5 188,-75.5 188,-56.5 132,-56.5"/>
<text text-anchor="middle" x="160" y="-63.5" font-family="Helvetica,sans-Serif" font-size="10.00">algorithm</text>
</a>
</g>
</g>
<!-- Node6&#45;&gt;Node7 -->
<g id="edge8" class="edge">
<title>Node6&#45;&gt;Node7</title>
<path fill="none" stroke="midnightblue" d="M115.75,-112.08C123.47,-104.22 134.9,-92.57 144.22,-83.08"/>
<polygon fill="midnightblue" stroke="midnightblue" points="146.9,-85.34 151.41,-75.75 141.91,-80.44 146.9,-85.34"/>
</g>
</g>
</svg>
