<?xml version="1.0" encoding="UTF-8" standalone="no"?>
<!DOCTYPE svg PUBLIC "-//W3C//DTD SVG 1.1//EN"
 "http://www.w3.org/Graphics/SVG/1.1/DTD/svg11.dtd">
<!-- Generated by graphviz version 2.44.0 ()
 -->
<!-- Title: src/gui/textdraw/mxtextdraw.cpp Pages: 1 -->
<svg width="201pt" height="252pt"
 viewBox="0.00 0.00 201.00 252.00" xmlns="http://www.w3.org/2000/svg" xmlns:xlink="http://www.w3.org/1999/xlink">
<g id="graph0" class="graph" transform="scale(1 1) rotate(0) translate(4 248)">
<title>src/gui/textdraw/mxtextdraw.cpp</title>
<!-- Node1 -->
<g id="node1" class="node">
<title>Node1</title>
<g id="a_node1"><a xlink:title=" ">
<polygon fill="#bfbfbf" stroke="black" points="0,-224.5 0,-243.5 156,-243.5 156,-224.5 0,-224.5"/>
<text text-anchor="middle" x="78" y="-231.5" font-family="Helvetica,sans-Serif" font-size="10.00">src/gui/textdraw/mxtextdraw.cpp</text>
</a>
</g>
</g>
<!-- Node2 -->
<g id="node2" class="node">
<title>Node2</title>
<g id="a_node2"><a xlink:href="mxtextdraw_8h.html" target="_top" xlink:title=" ">
<polygon fill="none" stroke="black" points="41,-168.5 41,-187.5 115,-187.5 115,-168.5 41,-168.5"/>
<text text-anchor="middle" x="78" y="-175.5" font-family="Helvetica,sans-Serif" font-size="10.00">mxtextdraw.h</text>
</a>
</g>
</g>
<!-- Node1&#45;&gt;Node2 -->
<g id="edge1" class="edge">
<title>Node1&#45;&gt;Node2</title>
<path fill="none" stroke="midnightblue" d="M78,-224.08C78,-217.01 78,-206.86 78,-197.99"/>
<polygon fill="midnightblue" stroke="midnightblue" points="81.5,-197.75 78,-187.75 74.5,-197.75 81.5,-197.75"/>
</g>
<!-- Node3 -->
<g id="node3" class="node">
<title>Node3</title>
<g id="a_node3"><a xlink:href="mxvector_8h.html" target="_top" xlink:title=" ">
<polygon fill="none" stroke="black" points="17,-56.5 17,-75.5 81,-75.5 81,-56.5 17,-56.5"/>
<text text-anchor="middle" x="49" y="-63.5" font-family="Helvetica,sans-Serif" font-size="10.00">mxvector.h</text>
</a>
</g>
</g>
<!-- Node2&#45;&gt;Node3 -->
<g id="edge2" class="edge">
<title>Node2&#45;&gt;Node3</title>
<path fill="none" stroke="midnightblue" d="M75.72,-168.37C71.02,-150.54 60.15,-109.3 53.82,-85.27"/>
<polygon fill="midnightblue" stroke="midnightblue" points="57.2,-84.37 51.27,-75.59 50.43,-86.15 57.2,-84.37"/>
</g>
<!-- Node5 -->
<g id="node5" class="node">
<title>Node5</title>
<g id="a_node5"><a xlink:href="mxrect_8h.html" target="_top" xlink:title=" ">
<polygon fill="none" stroke="black" points="80.5,-112.5 80.5,-131.5 133.5,-131.5 133.5,-112.5 80.5,-112.5"/>
<text text-anchor="middle" x="107" y="-119.5" font-family="Helvetica,sans-Serif" font-size="10.00">mxrect.h</text>
</a>
</g>
</g>
<!-- Node2&#45;&gt;Node5 -->
<g id="edge4" class="edge">
<title>Node2&#45;&gt;Node5</title>
<path fill="none" stroke="midnightblue" d="M82.79,-168.08C86.76,-160.69 92.53,-149.95 97.43,-140.81"/>
<polygon fill="midnightblue" stroke="midnightblue" points="100.65,-142.22 102.3,-131.75 94.49,-138.91 100.65,-142.22"/>
</g>
<!-- Node4 -->
<g id="node4" class="node">
<title>Node4</title>
<g id="a_node4"><a xlink:title=" ">
<polygon fill="none" stroke="#bfbfbf" points="47.5,-0.5 47.5,-19.5 110.5,-19.5 110.5,-0.5 47.5,-0.5"/>
<text text-anchor="middle" x="79" y="-7.5" font-family="Helvetica,sans-Serif" font-size="10.00">mxdebug.h</text>
</a>
</g>
</g>
<!-- Node3&#45;&gt;Node4 -->
<g id="edge3" class="edge">
<title>Node3&#45;&gt;Node4</title>
<path fill="none" stroke="midnightblue" d="M53.95,-56.08C58.1,-48.61 64.15,-37.72 69.27,-28.52"/>
<polygon fill="midnightblue" stroke="midnightblue" points="72.34,-30.19 74.14,-19.75 66.22,-26.79 72.34,-30.19"/>
</g>
<!-- Node5&#45;&gt;Node3 -->
<g id="edge6" class="edge">
<title>Node5&#45;&gt;Node3</title>
<path fill="none" stroke="midnightblue" d="M97.68,-112.32C89.11,-104.34 76.19,-92.31 65.81,-82.65"/>
<polygon fill="midnightblue" stroke="midnightblue" points="68.19,-80.09 58.49,-75.83 63.42,-85.21 68.19,-80.09"/>
</g>
<!-- Node5&#45;&gt;Node4 -->
<g id="edge5" class="edge">
<title>Node5&#45;&gt;Node4</title>
<path fill="none" stroke="midnightblue" d="M104.8,-112.37C100.28,-94.62 89.86,-53.67 83.73,-29.6"/>
<polygon fill="midnightblue" stroke="midnightblue" points="87.05,-28.42 81.19,-19.59 80.26,-30.15 87.05,-28.42"/>
</g>
<!-- Node6 -->
<g id="node6" class="node">
<title>Node6</title>
<g id="a_node6"><a xlink:title=" ">
<polygon fill="none" stroke="#bfbfbf" points="137,-56.5 137,-75.5 193,-75.5 193,-56.5 137,-56.5"/>
<text text-anchor="middle" x="165" y="-63.5" font-family="Helvetica,sans-Serif" font-size="10.00">algorithm</text>
</a>
</g>
</g>
<!-- Node5&#45;&gt;Node6 -->
<g id="edge7" class="edge">
<title>Node5&#45;&gt;Node6</title>
<path fill="none" stroke="midnightblue" d="M116.32,-112.32C124.89,-104.34 137.81,-92.31 148.19,-82.65"/>
<polygon fill="midnightblue" stroke="midnightblue" points="150.58,-85.21 155.51,-75.83 145.81,-80.09 150.58,-85.21"/>
</g>
</g>
</svg>
