<?xml version="1.0" encoding="UTF-8" standalone="no"?>
<!DOCTYPE svg PUBLIC "-//W3C//DTD SVG 1.1//EN"
 "http://www.w3.org/Graphics/SVG/1.1/DTD/svg11.dtd">
<!-- Generated by graphviz version 2.44.0 ()
 -->
<!-- Title: src/gui/mxtextdraw.h Pages: 1 -->
<svg width="1222pt" height="252pt"
 viewBox="0.00 0.00 1221.50 252.00" xmlns="http://www.w3.org/2000/svg" xmlns:xlink="http://www.w3.org/1999/xlink">
<g id="graph0" class="graph" transform="scale(1 1) rotate(0) translate(4 248)">
<title>src/gui/mxtextdraw.h</title>
<!-- Node1 -->
<g id="node1" class="node">
<title>Node1</title>
<g id="a_node1"><a xlink:title=" ">
<polygon fill="#bfbfbf" stroke="black" points="665.5,-224.5 665.5,-243.5 771.5,-243.5 771.5,-224.5 665.5,-224.5"/>
<text text-anchor="middle" x="718.5" y="-231.5" font-family="Helvetica,sans-Serif" font-size="10.00">src/gui/mxtextdraw.h</text>
</a>
</g>
</g>
<!-- Node2 -->
<g id="node2" class="node">
<title>Node2</title>
<g id="a_node2"><a xlink:href="mxpainter_8h.html" target="_top" xlink:title=" ">
<polygon fill="none" stroke="black" points="607.5,-168.5 607.5,-187.5 705.5,-187.5 705.5,-168.5 607.5,-168.5"/>
<text text-anchor="middle" x="656.5" y="-175.5" font-family="Helvetica,sans-Serif" font-size="10.00">src/gui/mxpainter.h</text>
</a>
</g>
</g>
<!-- Node1&#45;&gt;Node2 -->
<g id="edge1" class="edge">
<title>Node1&#45;&gt;Node2</title>
<path fill="none" stroke="midnightblue" d="M700.75,-217.54C689.69,-207.91 675.87,-195.87 666.64,-187.83"/>
<polygon fill="midnightblue" stroke="midnightblue" points="698.7,-220.4 708.54,-224.32 703.3,-215.12 698.7,-220.4"/>
</g>
<!-- Node15 -->
<g id="node15" class="node">
<title>Node15</title>
<g id="a_node15"><a xlink:href="mxtextdraw_8cpp.html" target="_top" xlink:title=" ">
<polygon fill="none" stroke="black" points="723.5,-168.5 723.5,-187.5 839.5,-187.5 839.5,-168.5 723.5,-168.5"/>
<text text-anchor="middle" x="781.5" y="-175.5" font-family="Helvetica,sans-Serif" font-size="10.00">src/gui/mxtextdraw.cpp</text>
</a>
</g>
</g>
<!-- Node1&#45;&gt;Node15 -->
<g id="edge18" class="edge">
<title>Node1&#45;&gt;Node15</title>
<path fill="none" stroke="midnightblue" d="M736.54,-217.54C747.77,-207.91 761.82,-195.87 771.19,-187.83"/>
<polygon fill="midnightblue" stroke="midnightblue" points="733.94,-215.16 728.62,-224.32 738.49,-220.47 733.94,-215.16"/>
</g>
<!-- Node3 -->
<g id="node3" class="node">
<title>Node3</title>
<g id="a_node3"><a xlink:href="mxapplication_8h.html" target="_top" xlink:title=" ">
<polygon fill="none" stroke="black" points="289.5,-112.5 289.5,-131.5 421.5,-131.5 421.5,-112.5 289.5,-112.5"/>
<text text-anchor="middle" x="355.5" y="-119.5" font-family="Helvetica,sans-Serif" font-size="10.00">src/events/mxapplication.h</text>
</a>
</g>
</g>
<!-- Node2&#45;&gt;Node3 -->
<g id="edge2" class="edge">
<title>Node2&#45;&gt;Node3</title>
<path fill="none" stroke="midnightblue" d="M598.89,-166.66C542,-156.46 456.05,-141.04 402.97,-131.52"/>
<polygon fill="midnightblue" stroke="midnightblue" points="598.34,-170.12 608.81,-168.44 599.58,-163.23 598.34,-170.12"/>
</g>
<!-- Node8 -->
<g id="node8" class="node">
<title>Node8</title>
<g id="a_node8"><a xlink:href="mxlineedit_8cpp.html" target="_top" xlink:title=" ">
<polygon fill="none" stroke="black" points="512,-56.5 512,-75.5 643,-75.5 643,-56.5 512,-56.5"/>
<text text-anchor="middle" x="577.5" y="-63.5" font-family="Helvetica,sans-Serif" font-size="10.00">src/widgets/mxlineedit.cpp</text>
</a>
</g>
</g>
<!-- Node2&#45;&gt;Node8 -->
<g id="edge15" class="edge">
<title>Node2&#45;&gt;Node8</title>
<path fill="none" stroke="midnightblue" d="M644.26,-159.96C627.14,-136.12 596.68,-93.71 583.67,-75.59"/>
<polygon fill="midnightblue" stroke="midnightblue" points="641.62,-162.29 650.3,-168.37 647.31,-158.2 641.62,-162.29"/>
</g>
<!-- Node9 -->
<g id="node9" class="node">
<title>Node9</title>
<g id="a_node9"><a xlink:href="mxtextbutton_8cpp.html" target="_top" xlink:title=" ">
<polygon fill="none" stroke="black" points="661,-56.5 661,-75.5 804,-75.5 804,-56.5 661,-56.5"/>
<text text-anchor="middle" x="732.5" y="-63.5" font-family="Helvetica,sans-Serif" font-size="10.00">src/widgets/mxtextbutton.cpp</text>
</a>
</g>
</g>
<!-- Node2&#45;&gt;Node9 -->
<g id="edge17" class="edge">
<title>Node2&#45;&gt;Node9</title>
<path fill="none" stroke="midnightblue" d="M643.38,-159.92C634.54,-146.17 626.06,-126.78 635.5,-112 647.59,-93.07 669.92,-81.98 690.11,-75.55"/>
<polygon fill="midnightblue" stroke="midnightblue" points="640.73,-162.24 649.34,-168.41 646.45,-158.21 640.73,-162.24"/>
</g>
<!-- Node10 -->
<g id="node10" class="node">
<title>Node10</title>
<g id="a_node10"><a xlink:href="mxpainter_8cpp.html" target="_top" xlink:title=" ">
<polygon fill="none" stroke="black" points="644,-112.5 644,-131.5 753,-131.5 753,-112.5 644,-112.5"/>
<text text-anchor="middle" x="698.5" y="-119.5" font-family="Helvetica,sans-Serif" font-size="10.00">src/gui/mxpainter.cpp</text>
</a>
</g>
</g>
<!-- Node2&#45;&gt;Node10 -->
<g id="edge10" class="edge">
<title>Node2&#45;&gt;Node10</title>
<path fill="none" stroke="midnightblue" d="M669.61,-160.14C676.93,-150.74 685.74,-139.4 691.69,-131.75"/>
<polygon fill="midnightblue" stroke="midnightblue" points="666.81,-158.04 663.44,-168.08 672.34,-162.34 666.81,-158.04"/>
</g>
<!-- Node11 -->
<g id="node11" class="node">
<title>Node11</title>
<g id="a_node11"><a xlink:href="mxlabel_8h.html" target="_top" xlink:title=" ">
<polygon fill="none" stroke="black" points="439.5,-112.5 439.5,-131.5 549.5,-131.5 549.5,-112.5 439.5,-112.5"/>
<text text-anchor="middle" x="494.5" y="-119.5" font-family="Helvetica,sans-Serif" font-size="10.00">src/widgets/mxlabel.h</text>
</a>
</g>
</g>
<!-- Node2&#45;&gt;Node11 -->
<g id="edge11" class="edge">
<title>Node2&#45;&gt;Node11</title>
<path fill="none" stroke="midnightblue" d="M621.02,-165.17C590.51,-155 547.26,-140.59 520.05,-131.52"/>
<polygon fill="midnightblue" stroke="midnightblue" points="620.24,-168.6 630.83,-168.44 622.45,-161.96 620.24,-168.6"/>
</g>
<!-- Node12 -->
<g id="node12" class="node">
<title>Node12</title>
<g id="a_node12"><a xlink:href="mxlayout_8cpp.html" target="_top" xlink:title=" ">
<polygon fill="none" stroke="black" points="771.5,-112.5 771.5,-131.5 897.5,-131.5 897.5,-112.5 771.5,-112.5"/>
<text text-anchor="middle" x="834.5" y="-119.5" font-family="Helvetica,sans-Serif" font-size="10.00">src/widgets/mxlayout.cpp</text>
</a>
</g>
</g>
<!-- Node2&#45;&gt;Node12 -->
<g id="edge13" class="edge">
<title>Node2&#45;&gt;Node12</title>
<path fill="none" stroke="midnightblue" d="M694.62,-165.44C728.18,-155.26 776.27,-140.66 806.43,-131.52"/>
<polygon fill="midnightblue" stroke="midnightblue" points="693.26,-162.19 684.7,-168.44 695.29,-168.89 693.26,-162.19"/>
</g>
<!-- Node13 -->
<g id="node13" class="node">
<title>Node13</title>
<g id="a_node13"><a xlink:href="mxlinearlayout_8cpp.html" target="_top" xlink:title=" ">
<polygon fill="none" stroke="black" points="916,-112.5 916,-131.5 1065,-131.5 1065,-112.5 916,-112.5"/>
<text text-anchor="middle" x="990.5" y="-119.5" font-family="Helvetica,sans-Serif" font-size="10.00">src/widgets/mxlinearlayout.cpp</text>
</a>
</g>
</g>
<!-- Node2&#45;&gt;Node13 -->
<g id="edge14" class="edge">
<title>Node2&#45;&gt;Node13</title>
<path fill="none" stroke="midnightblue" d="M715.96,-167.39C778.92,-157.21 877.39,-141.29 937.7,-131.54"/>
<polygon fill="midnightblue" stroke="midnightblue" points="715.1,-163.98 705.78,-169.03 716.21,-170.89 715.1,-163.98"/>
</g>
<!-- Node14 -->
<g id="node14" class="node">
<title>Node14</title>
<g id="a_node14"><a xlink:href="mxspacer_8cpp.html" target="_top" xlink:title=" ">
<polygon fill="none" stroke="black" points="1083.5,-112.5 1083.5,-131.5 1213.5,-131.5 1213.5,-112.5 1083.5,-112.5"/>
<text text-anchor="middle" x="1148.5" y="-119.5" font-family="Helvetica,sans-Serif" font-size="10.00">src/widgets/mxspacer.cpp</text>
</a>
</g>
</g>
<!-- Node2&#45;&gt;Node14 -->
<g id="edge16" class="edge">
<title>Node2&#45;&gt;Node14</title>
<path fill="none" stroke="midnightblue" d="M715.73,-167.91C875.73,-147.74 917.96,-149.34 1074.5,-132 1077.33,-131.69 1080.22,-131.36 1083.14,-131.03"/>
<polygon fill="midnightblue" stroke="midnightblue" points="715,-164.47 705.52,-169.2 715.88,-171.41 715,-164.47"/>
</g>
<!-- Node4 -->
<g id="node4" class="node">
<title>Node4</title>
<g id="a_node4"><a xlink:href="mxapplication_8cpp.html" target="_top" xlink:title=" ">
<polygon fill="none" stroke="black" points="0,-56.5 0,-75.5 143,-75.5 143,-56.5 0,-56.5"/>
<text text-anchor="middle" x="71.5" y="-63.5" font-family="Helvetica,sans-Serif" font-size="10.00">src/events/mxapplication.cpp</text>
</a>
</g>
</g>
<!-- Node3&#45;&gt;Node4 -->
<g id="edge3" class="edge">
<title>Node3&#45;&gt;Node4</title>
<path fill="none" stroke="midnightblue" d="M300.47,-110.54C246.8,-100.33 166.16,-85 116.29,-75.52"/>
<polygon fill="midnightblue" stroke="midnightblue" points="300.02,-114.01 310.5,-112.44 301.33,-107.14 300.02,-114.01"/>
</g>
<!-- Node5 -->
<g id="node5" class="node">
<title>Node5</title>
<g id="a_node5"><a xlink:href="qmewawindow_8cpp.html" target="_top" xlink:title=" ">
<polygon fill="none" stroke="black" points="142,-0.5 142,-19.5 307,-19.5 307,-0.5 142,-0.5"/>
<text text-anchor="middle" x="224.5" y="-7.5" font-family="Helvetica,sans-Serif" font-size="10.00">src/platform/qt/qmewawindow.cpp</text>
</a>
</g>
</g>
<!-- Node3&#45;&gt;Node5 -->
<g id="edge4" class="edge">
<title>Node3&#45;&gt;Node5</title>
<path fill="none" stroke="midnightblue" d="M285.91,-110.64C246.39,-103.18 202.46,-91.66 190.5,-76 176.43,-57.58 199.55,-32.5 214.09,-19.54"/>
<polygon fill="midnightblue" stroke="midnightblue" points="285.37,-114.1 295.84,-112.45 286.63,-107.22 285.37,-114.1"/>
</g>
<!-- Node6 -->
<g id="node6" class="node">
<title>Node6</title>
<g id="a_node6"><a xlink:href="qmewawindow_8h.html" target="_top" xlink:title=" ">
<polygon fill="none" stroke="black" points="200,-56.5 200,-75.5 355,-75.5 355,-56.5 200,-56.5"/>
<text text-anchor="middle" x="277.5" y="-63.5" font-family="Helvetica,sans-Serif" font-size="10.00">src/platform/qt/qmewawindow.h</text>
</a>
</g>
</g>
<!-- Node3&#45;&gt;Node6 -->
<g id="edge5" class="edge">
<title>Node3&#45;&gt;Node6</title>
<path fill="none" stroke="midnightblue" d="M334.73,-106.62C320.48,-96.76 302.04,-83.99 290,-75.65"/>
<polygon fill="midnightblue" stroke="midnightblue" points="332.75,-109.51 342.97,-112.32 336.74,-103.75 332.75,-109.51"/>
</g>
<!-- Node7 -->
<g id="node7" class="node">
<title>Node7</title>
<g id="a_node7"><a xlink:href="mxlabel_8cpp.html" target="_top" xlink:title=" ">
<polygon fill="none" stroke="black" points="373,-56.5 373,-75.5 494,-75.5 494,-56.5 373,-56.5"/>
<text text-anchor="middle" x="433.5" y="-63.5" font-family="Helvetica,sans-Serif" font-size="10.00">src/widgets/mxlabel.cpp</text>
</a>
</g>
</g>
<!-- Node3&#45;&gt;Node7 -->
<g id="edge7" class="edge">
<title>Node3&#45;&gt;Node7</title>
<path fill="none" stroke="midnightblue" d="M376.27,-106.62C390.52,-96.76 408.96,-83.99 421,-75.65"/>
<polygon fill="midnightblue" stroke="midnightblue" points="374.26,-103.75 368.03,-112.32 378.25,-109.51 374.26,-103.75"/>
</g>
<!-- Node3&#45;&gt;Node8 -->
<g id="edge8" class="edge">
<title>Node3&#45;&gt;Node8</title>
<path fill="none" stroke="midnightblue" d="M400.62,-110.02C442.56,-99.82 504.15,-84.84 542.49,-75.52"/>
<polygon fill="midnightblue" stroke="midnightblue" points="399.57,-106.68 390.68,-112.44 401.22,-113.48 399.57,-106.68"/>
</g>
<!-- Node3&#45;&gt;Node9 -->
<g id="edge9" class="edge">
<title>Node3&#45;&gt;Node9</title>
<path fill="none" stroke="midnightblue" d="M425.46,-110.98C496.67,-100.78 605.88,-85.14 673.04,-75.52"/>
<polygon fill="midnightblue" stroke="midnightblue" points="424.64,-107.56 415.24,-112.44 425.63,-114.49 424.64,-107.56"/>
</g>
<!-- Node6&#45;&gt;Node5 -->
<g id="edge6" class="edge">
<title>Node6&#45;&gt;Node5</title>
<path fill="none" stroke="midnightblue" d="M261.52,-48.72C252.18,-39.2 240.75,-27.56 233.09,-19.75"/>
<polygon fill="midnightblue" stroke="midnightblue" points="259.25,-51.4 268.75,-56.08 264.24,-46.49 259.25,-51.4"/>
</g>
<!-- Node11&#45;&gt;Node7 -->
<g id="edge12" class="edge">
<title>Node11&#45;&gt;Node7</title>
<path fill="none" stroke="midnightblue" d="M477.03,-105.54C466.16,-95.91 452.56,-83.87 443.48,-75.83"/>
<polygon fill="midnightblue" stroke="midnightblue" points="474.89,-108.32 484.7,-112.32 479.53,-103.07 474.89,-108.32"/>
</g>
</g>
</svg>
