<?xml version="1.0" encoding="UTF-8" standalone="no"?>
<!DOCTYPE svg PUBLIC "-//W3C//DTD SVG 1.1//EN"
 "http://www.w3.org/Graphics/SVG/1.1/DTD/svg11.dtd">
<!-- Generated by graphviz version 2.44.0 ()
 -->
<!-- Title: src/widgets/mxtextbutton.cpp Pages: 1 -->
<svg width="1913pt" height="476pt"
 viewBox="0.00 0.00 1912.50 476.00" xmlns="http://www.w3.org/2000/svg" xmlns:xlink="http://www.w3.org/1999/xlink">
<g id="graph0" class="graph" transform="scale(1 1) rotate(0) translate(4 472)">
<title>src/widgets/mxtextbutton.cpp</title>
<!-- Node1 -->
<g id="node1" class="node">
<title>Node1</title>
<g id="a_node1"><a xlink:title=" ">
<polygon fill="#bfbfbf" stroke="black" points="579.5,-448.5 579.5,-467.5 722.5,-467.5 722.5,-448.5 579.5,-448.5"/>
<text text-anchor="middle" x="651" y="-455.5" font-family="Helvetica,sans-Serif" font-size="10.00">src/widgets/mxtextbutton.cpp</text>
</a>
</g>
</g>
<!-- Node2 -->
<g id="node2" class="node">
<title>Node2</title>
<g id="a_node2"><a xlink:href="mxtextbutton_8h.html" target="_top" xlink:title=" ">
<polygon fill="none" stroke="black" points="1375,-392.5 1375,-411.5 1455,-411.5 1455,-392.5 1375,-392.5"/>
<text text-anchor="middle" x="1415" y="-399.5" font-family="Helvetica,sans-Serif" font-size="10.00">mxtextbutton.h</text>
</a>
</g>
</g>
<!-- Node1&#45;&gt;Node2 -->
<g id="edge1" class="edge">
<title>Node1&#45;&gt;Node2</title>
<path fill="none" stroke="midnightblue" d="M722.53,-451.94C875.67,-441.12 1232.04,-415.93 1364.35,-406.58"/>
<polygon fill="midnightblue" stroke="midnightblue" points="1364.87,-410.05 1374.6,-405.86 1364.38,-403.07 1364.87,-410.05"/>
</g>
<!-- Node20 -->
<g id="node20" class="node">
<title>Node20</title>
<g id="a_node20"><a xlink:href="mxpainter_8h.html" target="_top" xlink:title=" ">
<polygon fill="none" stroke="black" points="781,-336.5 781,-355.5 847,-355.5 847,-336.5 781,-336.5"/>
<text text-anchor="middle" x="814" y="-343.5" font-family="Helvetica,sans-Serif" font-size="10.00">mxpainter.h</text>
</a>
</g>
</g>
<!-- Node1&#45;&gt;Node20 -->
<g id="edge34" class="edge">
<title>Node1&#45;&gt;Node20</title>
<path fill="none" stroke="midnightblue" d="M663.79,-448.37C691.76,-429.49 758.6,-384.38 792.9,-361.24"/>
<polygon fill="midnightblue" stroke="midnightblue" points="794.94,-364.09 801.27,-355.59 791.02,-358.28 794.94,-364.09"/>
</g>
<!-- Node26 -->
<g id="node26" class="node">
<title>Node26</title>
<g id="a_node26"><a xlink:href="mxfont_8h.html" target="_top" xlink:title=" ">
<polygon fill="none" stroke="black" points="624.5,-224.5 624.5,-243.5 677.5,-243.5 677.5,-224.5 624.5,-224.5"/>
<text text-anchor="middle" x="651" y="-231.5" font-family="Helvetica,sans-Serif" font-size="10.00">mxfont.h</text>
</a>
</g>
</g>
<!-- Node1&#45;&gt;Node26 -->
<g id="edge51" class="edge">
<title>Node1&#45;&gt;Node26</title>
<path fill="none" stroke="midnightblue" d="M651,-448.3C651,-415.63 651,-299.87 651,-253.96"/>
<polygon fill="midnightblue" stroke="midnightblue" points="654.5,-253.88 651,-243.88 647.5,-253.88 654.5,-253.88"/>
</g>
<!-- Node28 -->
<g id="node28" class="node">
<title>Node28</title>
<g id="a_node28"><a xlink:href="mxmouseevent_8h.html" target="_top" xlink:title=" ">
<polygon fill="none" stroke="black" points="245,-336.5 245,-355.5 335,-355.5 335,-336.5 245,-336.5"/>
<text text-anchor="middle" x="290" y="-343.5" font-family="Helvetica,sans-Serif" font-size="10.00">mxmouseevent.h</text>
</a>
</g>
</g>
<!-- Node1&#45;&gt;Node28 -->
<g id="edge52" class="edge">
<title>Node1&#45;&gt;Node28</title>
<path fill="none" stroke="midnightblue" d="M615.42,-448.43C580.68,-439.88 526.43,-426.03 480,-412 424.24,-395.15 360.34,-372.61 322.67,-358.98"/>
<polygon fill="midnightblue" stroke="midnightblue" points="323.82,-355.68 313.22,-355.55 321.43,-362.26 323.82,-355.68"/>
</g>
<!-- Node30 -->
<g id="node30" class="node">
<title>Node30</title>
<g id="a_node30"><a xlink:href="mxeventhandler_8h.html" target="_top" xlink:title=" ">
<polygon fill="none" stroke="black" points="1617,-56.5 1617,-75.5 1709,-75.5 1709,-56.5 1617,-56.5"/>
<text text-anchor="middle" x="1663" y="-63.5" font-family="Helvetica,sans-Serif" font-size="10.00">mxeventhandler.h</text>
</a>
</g>
</g>
<!-- Node1&#45;&gt;Node30 -->
<g id="edge55" class="edge">
<title>Node1&#45;&gt;Node30</title>
<path fill="none" stroke="midnightblue" d="M722.6,-456.56C950,-454.21 1641,-439.46 1641,-347 1641,-347 1641,-347 1641,-177 1641,-144.33 1650.45,-107.24 1656.96,-85.55"/>
<polygon fill="midnightblue" stroke="midnightblue" points="1660.39,-86.31 1660.03,-75.72 1653.71,-84.22 1660.39,-86.31"/>
</g>
<!-- Node31 -->
<g id="node31" class="node">
<title>Node31</title>
<g id="a_node31"><a xlink:href="mxapplication_8h.html" target="_top" xlink:title=" ">
<polygon fill="none" stroke="black" points="489.5,-392.5 489.5,-411.5 572.5,-411.5 572.5,-392.5 489.5,-392.5"/>
<text text-anchor="middle" x="531" y="-399.5" font-family="Helvetica,sans-Serif" font-size="10.00">mxapplication.h</text>
</a>
</g>
</g>
<!-- Node1&#45;&gt;Node31 -->
<g id="edge57" class="edge">
<title>Node1&#45;&gt;Node31</title>
<path fill="none" stroke="midnightblue" d="M631.99,-448.44C612.41,-439.64 581.69,-425.81 559.27,-415.72"/>
<polygon fill="midnightblue" stroke="midnightblue" points="560.48,-412.43 549.93,-411.52 557.61,-418.81 560.48,-412.43"/>
</g>
<!-- Node42 -->
<g id="node42" class="node">
<title>Node42</title>
<g id="a_node42"><a xlink:href="widgets_2mxthemecolors_8h.html" target="_top" xlink:title=" ">
<polygon fill="none" stroke="black" points="45,-392.5 45,-411.5 135,-411.5 135,-392.5 45,-392.5"/>
<text text-anchor="middle" x="90" y="-399.5" font-family="Helvetica,sans-Serif" font-size="10.00">mxthemecolors.h</text>
</a>
</g>
</g>
<!-- Node1&#45;&gt;Node42 -->
<g id="edge86" class="edge">
<title>Node1&#45;&gt;Node42</title>
<path fill="none" stroke="midnightblue" d="M579.38,-450.11C466,-439.19 247.6,-418.17 145.34,-408.33"/>
<polygon fill="midnightblue" stroke="midnightblue" points="145.52,-404.83 135.23,-407.35 144.85,-411.8 145.52,-404.83"/>
</g>
<!-- Node3 -->
<g id="node3" class="node">
<title>Node3</title>
<g id="a_node3"><a xlink:title=" ">
<polygon fill="none" stroke="#bfbfbf" points="1181.5,-0.5 1181.5,-19.5 1244.5,-19.5 1244.5,-0.5 1181.5,-0.5"/>
<text text-anchor="middle" x="1213" y="-7.5" font-family="Helvetica,sans-Serif" font-size="10.00">mxdebug.h</text>
</a>
</g>
</g>
<!-- Node2&#45;&gt;Node3 -->
<g id="edge2" class="edge">
<title>Node2&#45;&gt;Node3</title>
<path fill="none" stroke="midnightblue" d="M1422.1,-392.35C1428.68,-383.74 1438.03,-369.84 1442,-356 1451.31,-323.53 1451.45,-312.71 1443,-280 1411.83,-159.34 1285.68,-61.02 1234.62,-25.38"/>
<polygon fill="midnightblue" stroke="midnightblue" points="1236.49,-22.42 1226.27,-19.65 1232.53,-28.19 1236.49,-22.42"/>
</g>
<!-- Node4 -->
<g id="node4" class="node">
<title>Node4</title>
<g id="a_node4"><a xlink:href="mxbutton_8h.html" target="_top" xlink:title=" ">
<polygon fill="none" stroke="black" points="1353,-336.5 1353,-355.5 1417,-355.5 1417,-336.5 1353,-336.5"/>
<text text-anchor="middle" x="1385" y="-343.5" font-family="Helvetica,sans-Serif" font-size="10.00">mxbutton.h</text>
</a>
</g>
</g>
<!-- Node2&#45;&gt;Node4 -->
<g id="edge3" class="edge">
<title>Node2&#45;&gt;Node4</title>
<path fill="none" stroke="midnightblue" d="M1410.05,-392.08C1405.9,-384.61 1399.85,-373.72 1394.73,-364.52"/>
<polygon fill="midnightblue" stroke="midnightblue" points="1397.78,-362.79 1389.86,-355.75 1391.66,-366.19 1397.78,-362.79"/>
</g>
<!-- Node16 -->
<g id="node16" class="node">
<title>Node16</title>
<g id="a_node16"><a xlink:href="mxstring_8h.html" target="_top" xlink:title=" ">
<polygon fill="none" stroke="black" points="993.5,-168.5 993.5,-187.5 1054.5,-187.5 1054.5,-168.5 993.5,-168.5"/>
<text text-anchor="middle" x="1024" y="-175.5" font-family="Helvetica,sans-Serif" font-size="10.00">mxstring.h</text>
</a>
</g>
</g>
<!-- Node2&#45;&gt;Node16 -->
<g id="edge22" class="edge">
<title>Node2&#45;&gt;Node16</title>
<path fill="none" stroke="midnightblue" d="M1417.73,-392.49C1420.45,-383.52 1424.44,-368.94 1426,-356 1433.3,-295.39 1435.34,-262.55 1388,-224 1363.27,-203.87 1154.37,-187.69 1064.66,-181.6"/>
<polygon fill="midnightblue" stroke="midnightblue" points="1064.8,-178.1 1054.58,-180.93 1064.33,-185.09 1064.8,-178.1"/>
</g>
<!-- Node4&#45;&gt;Node3 -->
<g id="edge4" class="edge">
<title>Node4&#45;&gt;Node3</title>
<path fill="none" stroke="midnightblue" d="M1387.25,-336.45C1392.17,-316.2 1402.31,-263.96 1388,-224 1371.36,-177.53 1267.94,-67.68 1228.37,-26.74"/>
<polygon fill="midnightblue" stroke="midnightblue" points="1230.83,-24.25 1221.36,-19.51 1225.81,-29.12 1230.83,-24.25"/>
</g>
<!-- Node5 -->
<g id="node5" class="node">
<title>Node5</title>
<g id="a_node5"><a xlink:href="mxwidget_8h.html" target="_top" xlink:title=" ">
<polygon fill="none" stroke="black" points="1164.5,-280.5 1164.5,-299.5 1229.5,-299.5 1229.5,-280.5 1164.5,-280.5"/>
<text text-anchor="middle" x="1197" y="-287.5" font-family="Helvetica,sans-Serif" font-size="10.00">mxwidget.h</text>
</a>
</g>
</g>
<!-- Node4&#45;&gt;Node5 -->
<g id="edge5" class="edge">
<title>Node4&#45;&gt;Node5</title>
<path fill="none" stroke="midnightblue" d="M1355.21,-336.44C1323.17,-327.24 1272.07,-312.56 1236.65,-302.39"/>
<polygon fill="midnightblue" stroke="midnightblue" points="1237.23,-298.91 1226.65,-299.52 1235.29,-305.64 1237.23,-298.91"/>
</g>
<!-- Node6 -->
<g id="node6" class="node">
<title>Node6</title>
<g id="a_node6"><a xlink:href="mxrect_8h.html" target="_top" xlink:title=" ">
<polygon fill="none" stroke="black" points="884.5,-168.5 884.5,-187.5 937.5,-187.5 937.5,-168.5 884.5,-168.5"/>
<text text-anchor="middle" x="911" y="-175.5" font-family="Helvetica,sans-Serif" font-size="10.00">mxrect.h</text>
</a>
</g>
</g>
<!-- Node5&#45;&gt;Node6 -->
<g id="edge6" class="edge">
<title>Node5&#45;&gt;Node6</title>
<path fill="none" stroke="midnightblue" d="M1177.46,-280.4C1148.06,-267.57 1090.63,-242.91 1041,-224 1009.53,-212.01 973.3,-199.58 947.09,-190.83"/>
<polygon fill="midnightblue" stroke="midnightblue" points="948.16,-187.5 937.56,-187.66 945.95,-194.14 948.16,-187.5"/>
</g>
<!-- Node7 -->
<g id="node7" class="node">
<title>Node7</title>
<g id="a_node7"><a xlink:href="mxvector_8h.html" target="_top" xlink:title=" ">
<polygon fill="none" stroke="black" points="409,-112.5 409,-131.5 473,-131.5 473,-112.5 409,-112.5"/>
<text text-anchor="middle" x="441" y="-119.5" font-family="Helvetica,sans-Serif" font-size="10.00">mxvector.h</text>
</a>
</g>
</g>
<!-- Node5&#45;&gt;Node7 -->
<g id="edge11" class="edge">
<title>Node5&#45;&gt;Node7</title>
<path fill="none" stroke="midnightblue" d="M1164.25,-287.38C1044.73,-281.33 637.77,-259.67 615,-244 584.21,-222.81 607.05,-192.7 579,-168 564.54,-155.27 518.12,-141.69 483.08,-132.82"/>
<polygon fill="midnightblue" stroke="midnightblue" points="483.63,-129.35 473.08,-130.34 481.94,-136.15 483.63,-129.35"/>
</g>
<!-- Node9 -->
<g id="node9" class="node">
<title>Node9</title>
<g id="a_node9"><a xlink:href="mxwidgetlist_8h.html" target="_top" xlink:title=" ">
<polygon fill="none" stroke="black" points="1301,-224.5 1301,-243.5 1379,-243.5 1379,-224.5 1301,-224.5"/>
<text text-anchor="middle" x="1340" y="-231.5" font-family="Helvetica,sans-Serif" font-size="10.00">mxwidgetlist.h</text>
</a>
</g>
</g>
<!-- Node5&#45;&gt;Node9 -->
<g id="edge12" class="edge">
<title>Node5&#45;&gt;Node9</title>
<path fill="none" stroke="midnightblue" d="M1219.66,-280.44C1243.4,-271.48 1280.91,-257.31 1307.74,-247.18"/>
<polygon fill="midnightblue" stroke="midnightblue" points="1309.33,-250.32 1317.45,-243.52 1306.86,-243.77 1309.33,-250.32"/>
</g>
<!-- Node15 -->
<g id="node15" class="node">
<title>Node15</title>
<g id="a_node15"><a xlink:href="mxclippedwidget_8h.html" target="_top" xlink:title=" ">
<polygon fill="none" stroke="black" points="1149,-224.5 1149,-243.5 1245,-243.5 1245,-224.5 1149,-224.5"/>
<text text-anchor="middle" x="1197" y="-231.5" font-family="Helvetica,sans-Serif" font-size="10.00">mxclippedwidget.h</text>
</a>
</g>
</g>
<!-- Node5&#45;&gt;Node15 -->
<g id="edge19" class="edge">
<title>Node5&#45;&gt;Node15</title>
<path fill="none" stroke="midnightblue" d="M1197,-280.08C1197,-273.01 1197,-262.86 1197,-253.99"/>
<polygon fill="midnightblue" stroke="midnightblue" points="1200.5,-253.75 1197,-243.75 1193.5,-253.75 1200.5,-253.75"/>
</g>
<!-- Node6&#45;&gt;Node3 -->
<g id="edge7" class="edge">
<title>Node6&#45;&gt;Node3</title>
<path fill="none" stroke="midnightblue" d="M911.14,-168.2C911.84,-154.43 915.16,-127.74 930,-112 994.8,-43.3 1109.47,-21.26 1171.07,-14.24"/>
<polygon fill="midnightblue" stroke="midnightblue" points="1171.64,-17.7 1181.21,-13.16 1170.9,-10.74 1171.64,-17.7"/>
</g>
<!-- Node6&#45;&gt;Node7 -->
<g id="edge8" class="edge">
<title>Node6&#45;&gt;Node7</title>
<path fill="none" stroke="midnightblue" d="M884.39,-175.14C817.07,-170.22 634.6,-155.63 484,-132 483.78,-131.97 483.57,-131.93 483.35,-131.9"/>
<polygon fill="midnightblue" stroke="midnightblue" points="483.79,-128.42 473.34,-130.13 482.58,-135.32 483.79,-128.42"/>
</g>
<!-- Node8 -->
<g id="node8" class="node">
<title>Node8</title>
<g id="a_node8"><a xlink:title=" ">
<polygon fill="none" stroke="#bfbfbf" points="939,-112.5 939,-131.5 995,-131.5 995,-112.5 939,-112.5"/>
<text text-anchor="middle" x="967" y="-119.5" font-family="Helvetica,sans-Serif" font-size="10.00">algorithm</text>
</a>
</g>
</g>
<!-- Node6&#45;&gt;Node8 -->
<g id="edge10" class="edge">
<title>Node6&#45;&gt;Node8</title>
<path fill="none" stroke="midnightblue" d="M920,-168.32C928.19,-160.42 940.51,-148.55 950.47,-138.94"/>
<polygon fill="midnightblue" stroke="midnightblue" points="953.07,-141.29 957.84,-131.83 948.21,-136.26 953.07,-141.29"/>
</g>
<!-- Node7&#45;&gt;Node3 -->
<g id="edge9" class="edge">
<title>Node7&#45;&gt;Node3</title>
<path fill="none" stroke="midnightblue" d="M473.36,-113.98C476.94,-113.28 480.54,-112.6 484,-112 744.06,-66.82 1059.13,-28.79 1171.07,-15.79"/>
<polygon fill="midnightblue" stroke="midnightblue" points="1171.73,-19.23 1181.26,-14.61 1170.92,-12.28 1171.73,-19.23"/>
</g>
<!-- Node10 -->
<g id="node10" class="node">
<title>Node10</title>
<g id="a_node10"><a xlink:href="mxlist_8h.html" target="_top" xlink:title=" ">
<polygon fill="none" stroke="black" points="1248,-168.5 1248,-187.5 1298,-187.5 1298,-168.5 1248,-168.5"/>
<text text-anchor="middle" x="1273" y="-175.5" font-family="Helvetica,sans-Serif" font-size="10.00">mxlist.h</text>
</a>
</g>
</g>
<!-- Node9&#45;&gt;Node10 -->
<g id="edge13" class="edge">
<title>Node9&#45;&gt;Node10</title>
<path fill="none" stroke="midnightblue" d="M1329.24,-224.32C1319.23,-216.26 1304.11,-204.08 1292.07,-194.37"/>
<polygon fill="midnightblue" stroke="midnightblue" points="1293.94,-191.38 1283.96,-187.83 1289.55,-196.83 1293.94,-191.38"/>
</g>
<!-- Node10&#45;&gt;Node3 -->
<g id="edge14" class="edge">
<title>Node10&#45;&gt;Node3</title>
<path fill="none" stroke="midnightblue" d="M1269.69,-168.39C1266.23,-159.35 1260.66,-144.7 1256,-132 1242.69,-95.68 1227.67,-53 1219.37,-29.28"/>
<polygon fill="midnightblue" stroke="midnightblue" points="1222.57,-27.82 1215.97,-19.53 1215.96,-30.12 1222.57,-27.82"/>
</g>
<!-- Node11 -->
<g id="node11" class="node">
<title>Node11</title>
<g id="a_node11"><a xlink:href="mxrefcounter_8h.html" target="_top" xlink:title=" ">
<polygon fill="none" stroke="black" points="1355,-56.5 1355,-75.5 1435,-75.5 1435,-56.5 1355,-56.5"/>
<text text-anchor="middle" x="1395" y="-63.5" font-family="Helvetica,sans-Serif" font-size="10.00">mxrefcounter.h</text>
</a>
</g>
</g>
<!-- Node10&#45;&gt;Node11 -->
<g id="edge15" class="edge">
<title>Node10&#45;&gt;Node11</title>
<path fill="none" stroke="midnightblue" d="M1288.77,-168.35C1303.18,-160.06 1324.66,-146.65 1341,-132 1357.31,-117.38 1372.96,-97.7 1383.17,-83.84"/>
<polygon fill="midnightblue" stroke="midnightblue" points="1386.05,-85.84 1389.06,-75.68 1380.37,-81.75 1386.05,-85.84"/>
</g>
<!-- Node12 -->
<g id="node12" class="node">
<title>Node12</title>
<g id="a_node12"><a xlink:title=" ">
<polygon fill="none" stroke="#bfbfbf" points="1857.5,-0.5 1857.5,-19.5 1904.5,-19.5 1904.5,-0.5 1857.5,-0.5"/>
<text text-anchor="middle" x="1881" y="-7.5" font-family="Helvetica,sans-Serif" font-size="10.00">stdlib.h</text>
</a>
</g>
</g>
<!-- Node10&#45;&gt;Node12 -->
<g id="edge16" class="edge">
<title>Node10&#45;&gt;Node12</title>
<path fill="none" stroke="midnightblue" d="M1298.11,-176.32C1399.94,-173.02 1780.69,-155.5 1864,-76 1876.38,-64.18 1880.16,-44.55 1881.12,-29.95"/>
<polygon fill="midnightblue" stroke="midnightblue" points="1884.63,-29.65 1881.4,-19.56 1877.63,-29.46 1884.63,-29.65"/>
</g>
<!-- Node13 -->
<g id="node13" class="node">
<title>Node13</title>
<g id="a_node13"><a xlink:title=" ">
<polygon fill="none" stroke="#bfbfbf" points="1747,-0.5 1747,-19.5 1795,-19.5 1795,-0.5 1747,-0.5"/>
<text text-anchor="middle" x="1771" y="-7.5" font-family="Helvetica,sans-Serif" font-size="10.00">string.h</text>
</a>
</g>
</g>
<!-- Node10&#45;&gt;Node13 -->
<g id="edge17" class="edge">
<title>Node10&#45;&gt;Node13</title>
<path fill="none" stroke="midnightblue" d="M1275.29,-168.39C1281.87,-145.55 1303.15,-83.26 1346,-56 1410.66,-14.85 1647.76,-10.81 1736.86,-10.78"/>
<polygon fill="midnightblue" stroke="midnightblue" points="1736.96,-14.28 1746.97,-10.8 1736.97,-7.28 1736.96,-14.28"/>
</g>
<!-- Node14 -->
<g id="node14" class="node">
<title>Node14</title>
<g id="a_node14"><a xlink:title=" ">
<polygon fill="none" stroke="#bfbfbf" points="1149.5,-112.5 1149.5,-131.5 1184.5,-131.5 1184.5,-112.5 1149.5,-112.5"/>
<text text-anchor="middle" x="1167" y="-119.5" font-family="Helvetica,sans-Serif" font-size="10.00">new</text>
</a>
</g>
</g>
<!-- Node10&#45;&gt;Node14 -->
<g id="edge18" class="edge">
<title>Node10&#45;&gt;Node14</title>
<path fill="none" stroke="midnightblue" d="M1255.97,-168.32C1238.97,-159.66 1212.62,-146.24 1193.01,-136.25"/>
<polygon fill="midnightblue" stroke="midnightblue" points="1194.49,-133.08 1183.99,-131.65 1191.31,-139.31 1194.49,-133.08"/>
</g>
<!-- Node15&#45;&gt;Node6 -->
<g id="edge20" class="edge">
<title>Node15&#45;&gt;Node6</title>
<path fill="none" stroke="midnightblue" d="M1151.68,-224.44C1095.24,-213.79 999.92,-195.79 947.78,-185.95"/>
<polygon fill="midnightblue" stroke="midnightblue" points="948.12,-182.45 937.65,-184.03 946.83,-189.33 948.12,-182.45"/>
</g>
<!-- Node15&#45;&gt;Node10 -->
<g id="edge21" class="edge">
<title>Node15&#45;&gt;Node10</title>
<path fill="none" stroke="midnightblue" d="M1209.21,-224.32C1220.78,-216.11 1238.38,-203.6 1252.16,-193.81"/>
<polygon fill="midnightblue" stroke="midnightblue" points="1254.44,-196.48 1260.57,-187.83 1250.39,-190.77 1254.44,-196.48"/>
</g>
<!-- Node17 -->
<g id="node17" class="node">
<title>Node17</title>
<g id="a_node17"><a xlink:href="mxgenericstring_8h.html" target="_top" xlink:title=" ">
<polygon fill="none" stroke="black" points="1499,-112.5 1499,-131.5 1591,-131.5 1591,-112.5 1499,-112.5"/>
<text text-anchor="middle" x="1545" y="-119.5" font-family="Helvetica,sans-Serif" font-size="10.00">mxgenericstring.h</text>
</a>
</g>
</g>
<!-- Node16&#45;&gt;Node17 -->
<g id="edge23" class="edge">
<title>Node16&#45;&gt;Node17</title>
<path fill="none" stroke="midnightblue" d="M1054.65,-173.82C1139.59,-165.02 1379.01,-140.2 1488.76,-128.83"/>
<polygon fill="midnightblue" stroke="midnightblue" points="1489.38,-132.28 1498.97,-127.77 1488.66,-125.32 1489.38,-132.28"/>
</g>
<!-- Node17&#45;&gt;Node3 -->
<g id="edge24" class="edge">
<title>Node17&#45;&gt;Node3</title>
<path fill="none" stroke="midnightblue" d="M1533.05,-112.49C1510.6,-96.64 1462.67,-63.5 1444,-56 1380.91,-30.65 1302.23,-19.24 1254.89,-14.36"/>
<polygon fill="midnightblue" stroke="midnightblue" points="1255,-10.85 1244.71,-13.36 1254.32,-17.82 1255,-10.85"/>
</g>
<!-- Node17&#45;&gt;Node11 -->
<g id="edge25" class="edge">
<title>Node17&#45;&gt;Node11</title>
<path fill="none" stroke="midnightblue" d="M1521.23,-112.44C1496.11,-103.4 1456.29,-89.06 1428.1,-78.92"/>
<polygon fill="midnightblue" stroke="midnightblue" points="1429.25,-75.61 1418.66,-75.52 1426.88,-82.2 1429.25,-75.61"/>
</g>
<!-- Node17&#45;&gt;Node12 -->
<g id="edge32" class="edge">
<title>Node17&#45;&gt;Node12</title>
<path fill="none" stroke="midnightblue" d="M1591.24,-118.59C1663.7,-114.06 1799.91,-102.25 1840,-76 1856.87,-64.95 1868.11,-44.3 1874.49,-29.23"/>
<polygon fill="midnightblue" stroke="midnightblue" points="1877.76,-30.46 1878.14,-19.87 1871.24,-27.92 1877.76,-30.46"/>
</g>
<!-- Node17&#45;&gt;Node13 -->
<g id="edge33" class="edge">
<title>Node17&#45;&gt;Node13</title>
<path fill="none" stroke="midnightblue" d="M1591.1,-120.47C1662.27,-118.56 1793.77,-110.35 1823,-76 1837.69,-58.74 1814.88,-38.24 1794.99,-24.94"/>
<polygon fill="midnightblue" stroke="midnightblue" points="1796.8,-21.95 1786.49,-19.55 1793.05,-27.86 1796.8,-21.95"/>
</g>
<!-- Node18 -->
<g id="node18" class="node">
<title>Node18</title>
<g id="a_node18"><a xlink:href="mxbytearrayref_8h.html" target="_top" xlink:title=" ">
<polygon fill="none" stroke="black" points="1727.5,-56.5 1727.5,-75.5 1814.5,-75.5 1814.5,-56.5 1727.5,-56.5"/>
<text text-anchor="middle" x="1771" y="-63.5" font-family="Helvetica,sans-Serif" font-size="10.00">mxbytearrayref.h</text>
</a>
</g>
</g>
<!-- Node17&#45;&gt;Node18 -->
<g id="edge26" class="edge">
<title>Node17&#45;&gt;Node18</title>
<path fill="none" stroke="midnightblue" d="M1580.81,-112.44C1619.99,-103.08 1682.88,-88.06 1725.52,-77.87"/>
<polygon fill="midnightblue" stroke="midnightblue" points="1726.44,-81.24 1735.36,-75.52 1724.82,-74.44 1726.44,-81.24"/>
</g>
<!-- Node19 -->
<g id="node19" class="node">
<title>Node19</title>
<g id="a_node19"><a xlink:href="mxgenericsubstring_8h.html" target="_top" xlink:title=" ">
<polygon fill="none" stroke="black" points="1491,-56.5 1491,-75.5 1599,-75.5 1599,-56.5 1491,-56.5"/>
<text text-anchor="middle" x="1545" y="-63.5" font-family="Helvetica,sans-Serif" font-size="10.00">mxgenericsubstring.h</text>
</a>
</g>
</g>
<!-- Node17&#45;&gt;Node19 -->
<g id="edge30" class="edge">
<title>Node17&#45;&gt;Node19</title>
<path fill="none" stroke="midnightblue" d="M1545,-112.08C1545,-105.01 1545,-94.86 1545,-85.99"/>
<polygon fill="midnightblue" stroke="midnightblue" points="1548.5,-85.75 1545,-75.75 1541.5,-85.75 1548.5,-85.75"/>
</g>
<!-- Node18&#45;&gt;Node3 -->
<g id="edge27" class="edge">
<title>Node18&#45;&gt;Node3</title>
<path fill="none" stroke="midnightblue" d="M1727.37,-57.31C1724.2,-56.84 1721.05,-56.39 1718,-56 1546.84,-33.88 1341.63,-19.24 1254.93,-13.61"/>
<polygon fill="midnightblue" stroke="midnightblue" points="1254.91,-10.1 1244.71,-12.95 1254.46,-17.08 1254.91,-10.1"/>
</g>
<!-- Node18&#45;&gt;Node12 -->
<g id="edge28" class="edge">
<title>Node18&#45;&gt;Node12</title>
<path fill="none" stroke="midnightblue" d="M1788.67,-56.32C1806.39,-47.62 1833.9,-34.12 1854.29,-24.11"/>
<polygon fill="midnightblue" stroke="midnightblue" points="1855.94,-27.2 1863.37,-19.65 1852.85,-20.92 1855.94,-27.2"/>
</g>
<!-- Node18&#45;&gt;Node13 -->
<g id="edge29" class="edge">
<title>Node18&#45;&gt;Node13</title>
<path fill="none" stroke="midnightblue" d="M1771,-56.08C1771,-49.01 1771,-38.86 1771,-29.99"/>
<polygon fill="midnightblue" stroke="midnightblue" points="1774.5,-29.75 1771,-19.75 1767.5,-29.75 1774.5,-29.75"/>
</g>
<!-- Node19&#45;&gt;Node3 -->
<g id="edge31" class="edge">
<title>Node19&#45;&gt;Node3</title>
<path fill="none" stroke="midnightblue" d="M1492.39,-56.44C1426.54,-45.73 1315.08,-27.6 1254.77,-17.79"/>
<polygon fill="midnightblue" stroke="midnightblue" points="1255.26,-14.33 1244.83,-16.18 1254.14,-21.24 1255.26,-14.33"/>
</g>
<!-- Node20&#45;&gt;Node3 -->
<g id="edge35" class="edge">
<title>Node20&#45;&gt;Node3</title>
<path fill="none" stroke="midnightblue" d="M847.15,-340.33C926.53,-328.22 1121,-292.68 1121,-235 1121,-235 1121,-235 1121,-121 1121,-78.5 1161.91,-43.77 1189.17,-25.34"/>
<polygon fill="midnightblue" stroke="midnightblue" points="1191.33,-28.11 1197.81,-19.73 1187.51,-22.24 1191.33,-28.11"/>
</g>
<!-- Node20&#45;&gt;Node10 -->
<g id="edge38" class="edge">
<title>Node20&#45;&gt;Node10</title>
<path fill="none" stroke="midnightblue" d="M847.26,-343.58C941.98,-339.25 1208.21,-324.96 1238,-300 1268.21,-274.68 1273.23,-225.03 1273.56,-197.86"/>
<polygon fill="midnightblue" stroke="midnightblue" points="1277.05,-197.7 1273.47,-187.73 1270.05,-197.76 1277.05,-197.7"/>
</g>
<!-- Node21 -->
<g id="node21" class="node">
<title>Node21</title>
<g id="a_node21"><a xlink:href="mxvectordraw_8h.html" target="_top" xlink:title=" ">
<polygon fill="none" stroke="black" points="695.5,-224.5 695.5,-243.5 780.5,-243.5 780.5,-224.5 695.5,-224.5"/>
<text text-anchor="middle" x="738" y="-231.5" font-family="Helvetica,sans-Serif" font-size="10.00">mxvectordraw.h</text>
</a>
</g>
</g>
<!-- Node20&#45;&gt;Node21 -->
<g id="edge36" class="edge">
<title>Node20&#45;&gt;Node21</title>
<path fill="none" stroke="midnightblue" d="M808.56,-336.5C800.53,-324 784.92,-299.98 771,-280 764.41,-270.54 756.82,-260.16 750.58,-251.75"/>
<polygon fill="midnightblue" stroke="midnightblue" points="753.24,-249.46 744.45,-243.54 747.63,-253.65 753.24,-249.46"/>
</g>
<!-- Node22 -->
<g id="node22" class="node">
<title>Node22</title>
<g id="a_node22"><a xlink:href="mxtextdraw_8h.html" target="_top" xlink:title=" ">
<polygon fill="none" stroke="black" points="799,-224.5 799,-243.5 873,-243.5 873,-224.5 799,-224.5"/>
<text text-anchor="middle" x="836" y="-231.5" font-family="Helvetica,sans-Serif" font-size="10.00">mxtextdraw.h</text>
</a>
</g>
</g>
<!-- Node20&#45;&gt;Node22 -->
<g id="edge39" class="edge">
<title>Node20&#45;&gt;Node22</title>
<path fill="none" stroke="midnightblue" d="M815.73,-336.37C819.28,-318.62 827.47,-277.67 832.28,-253.6"/>
<polygon fill="midnightblue" stroke="midnightblue" points="835.75,-254.08 834.28,-243.59 828.89,-252.71 835.75,-254.08"/>
</g>
<!-- Node23 -->
<g id="node23" class="node">
<title>Node23</title>
<g id="a_node23"><a xlink:href="mxicondraw_8h.html" target="_top" xlink:title=" ">
<polygon fill="none" stroke="black" points="935,-280.5 935,-299.5 1011,-299.5 1011,-280.5 935,-280.5"/>
<text text-anchor="middle" x="973" y="-287.5" font-family="Helvetica,sans-Serif" font-size="10.00">mxicondraw.h</text>
</a>
</g>
</g>
<!-- Node20&#45;&gt;Node23 -->
<g id="edge43" class="edge">
<title>Node20&#45;&gt;Node23</title>
<path fill="none" stroke="midnightblue" d="M839.19,-336.44C865.94,-327.36 908.4,-312.94 938.31,-302.78"/>
<polygon fill="midnightblue" stroke="midnightblue" points="939.58,-306.05 947.92,-299.52 937.33,-299.42 939.58,-306.05"/>
</g>
<!-- Node25 -->
<g id="node25" class="node">
<title>Node25</title>
<g id="a_node25"><a xlink:href="mxstaticfont_8h.html" target="_top" xlink:title=" ">
<polygon fill="none" stroke="black" points="685.5,-280.5 685.5,-299.5 762.5,-299.5 762.5,-280.5 685.5,-280.5"/>
<text text-anchor="middle" x="724" y="-287.5" font-family="Helvetica,sans-Serif" font-size="10.00">mxstaticfont.h</text>
</a>
</g>
</g>
<!-- Node20&#45;&gt;Node25 -->
<g id="edge46" class="edge">
<title>Node20&#45;&gt;Node25</title>
<path fill="none" stroke="midnightblue" d="M799.54,-336.32C785.5,-327.9 763.95,-314.97 747.46,-305.07"/>
<polygon fill="midnightblue" stroke="midnightblue" points="748.8,-301.8 738.42,-299.65 745.2,-307.8 748.8,-301.8"/>
</g>
<!-- Node21&#45;&gt;Node6 -->
<g id="edge37" class="edge">
<title>Node21&#45;&gt;Node6</title>
<path fill="none" stroke="midnightblue" d="M765.41,-224.44C794.94,-215.23 842.07,-200.52 874.67,-190.34"/>
<polygon fill="midnightblue" stroke="midnightblue" points="875.78,-193.66 884.28,-187.34 873.7,-186.98 875.78,-193.66"/>
</g>
<!-- Node22&#45;&gt;Node6 -->
<g id="edge42" class="edge">
<title>Node22&#45;&gt;Node6</title>
<path fill="none" stroke="midnightblue" d="M848.05,-224.32C859.46,-216.11 876.83,-203.6 890.43,-193.81"/>
<polygon fill="midnightblue" stroke="midnightblue" points="892.66,-196.52 898.73,-187.83 888.57,-190.84 892.66,-196.52"/>
</g>
<!-- Node22&#45;&gt;Node7 -->
<g id="edge40" class="edge">
<title>Node22&#45;&gt;Node7</title>
<path fill="none" stroke="midnightblue" d="M811.89,-224.41C774.51,-211.26 700.21,-185.81 636,-168 607.63,-160.13 531.39,-142.97 483.07,-132.26"/>
<polygon fill="midnightblue" stroke="midnightblue" points="483.73,-128.82 473.21,-130.07 482.22,-135.65 483.73,-128.82"/>
</g>
<!-- Node22&#45;&gt;Node16 -->
<g id="edge41" class="edge">
<title>Node22&#45;&gt;Node16</title>
<path fill="none" stroke="midnightblue" d="M865.79,-224.44C897.83,-215.24 948.93,-200.56 984.35,-190.39"/>
<polygon fill="midnightblue" stroke="midnightblue" points="985.71,-193.64 994.35,-187.52 983.77,-186.91 985.71,-193.64"/>
</g>
<!-- Node23&#45;&gt;Node6 -->
<g id="edge45" class="edge">
<title>Node23&#45;&gt;Node6</title>
<path fill="none" stroke="midnightblue" d="M988.57,-280.5C1008.68,-268.39 1039.47,-245.27 1025,-224 1007.83,-198.76 974.1,-187.68 947.77,-182.81"/>
<polygon fill="midnightblue" stroke="midnightblue" points="948.16,-179.33 937.73,-181.18 947.04,-186.24 948.16,-179.33"/>
</g>
<!-- Node24 -->
<g id="node24" class="node">
<title>Node24</title>
<g id="a_node24"><a xlink:href="mxthemeicons_8h.html" target="_top" xlink:title=" ">
<polygon fill="none" stroke="black" points="929.5,-224.5 929.5,-243.5 1016.5,-243.5 1016.5,-224.5 929.5,-224.5"/>
<text text-anchor="middle" x="973" y="-231.5" font-family="Helvetica,sans-Serif" font-size="10.00">mxthemeicons.h</text>
</a>
</g>
</g>
<!-- Node23&#45;&gt;Node24 -->
<g id="edge44" class="edge">
<title>Node23&#45;&gt;Node24</title>
<path fill="none" stroke="midnightblue" d="M973,-280.08C973,-273.01 973,-262.86 973,-253.99"/>
<polygon fill="midnightblue" stroke="midnightblue" points="976.5,-253.75 973,-243.75 969.5,-253.75 976.5,-253.75"/>
</g>
<!-- Node25&#45;&gt;Node26 -->
<g id="edge47" class="edge">
<title>Node25&#45;&gt;Node26</title>
<path fill="none" stroke="midnightblue" d="M712.27,-280.32C701.16,-272.11 684.26,-259.6 671.02,-249.81"/>
<polygon fill="midnightblue" stroke="midnightblue" points="673.06,-246.97 662.94,-243.83 668.9,-252.59 673.06,-246.97"/>
</g>
<!-- Node26&#45;&gt;Node7 -->
<g id="edge48" class="edge">
<title>Node26&#45;&gt;Node7</title>
<path fill="none" stroke="midnightblue" d="M648.24,-224.37C643.29,-210.35 631.58,-182.69 612,-168 601.62,-160.21 530.35,-143.08 483.15,-132.34"/>
<polygon fill="midnightblue" stroke="midnightblue" points="483.71,-128.88 473.19,-130.09 482.17,-135.71 483.71,-128.88"/>
</g>
<!-- Node26&#45;&gt;Node16 -->
<g id="edge49" class="edge">
<title>Node26&#45;&gt;Node16</title>
<path fill="none" stroke="midnightblue" d="M677.68,-225.79C680.48,-225.14 683.29,-224.53 686,-224 742.12,-213.09 905.99,-193.02 983.05,-183.83"/>
<polygon fill="midnightblue" stroke="midnightblue" points="983.81,-187.26 993.33,-182.61 982.98,-180.31 983.81,-187.26"/>
</g>
<!-- Node27 -->
<g id="node27" class="node">
<title>Node27</title>
<g id="a_node27"><a xlink:title=" ">
<polygon fill="none" stroke="#bfbfbf" points="493.5,-112.5 493.5,-131.5 558.5,-131.5 558.5,-112.5 493.5,-112.5"/>
<text text-anchor="middle" x="526" y="-119.5" font-family="Helvetica,sans-Serif" font-size="10.00">mxopengl.h</text>
</a>
</g>
</g>
<!-- Node26&#45;&gt;Node27 -->
<g id="edge50" class="edge">
<title>Node26&#45;&gt;Node27</title>
<path fill="none" stroke="midnightblue" d="M653.67,-224.48C657.29,-211.09 662.05,-184.91 650,-168 631.6,-142.17 596.81,-131.12 568.76,-126.41"/>
<polygon fill="midnightblue" stroke="midnightblue" points="569.17,-122.94 558.77,-124.95 568.16,-129.86 569.17,-122.94"/>
</g>
<!-- Node28&#45;&gt;Node7 -->
<g id="edge53" class="edge">
<title>Node28&#45;&gt;Node7</title>
<path fill="none" stroke="midnightblue" d="M281.83,-336.17C268.62,-322.36 241.16,-295.6 213,-280 167.27,-254.66 134.01,-284.55 101,-244 79.61,-217.72 72.64,-193.46 95,-168 114.78,-145.48 310.85,-130.88 398.75,-125.42"/>
<polygon fill="midnightblue" stroke="midnightblue" points="399.15,-128.9 408.92,-124.8 398.72,-121.91 399.15,-128.9"/>
</g>
<!-- Node29 -->
<g id="node29" class="node">
<title>Node29</title>
<g id="a_node29"><a xlink:title=" ">
<polygon fill="none" stroke="#bfbfbf" points="66,-280.5 66,-299.5 204,-299.5 204,-280.5 66,-280.5"/>
<text text-anchor="middle" x="135" y="-287.5" font-family="Helvetica,sans-Serif" font-size="10.00">mxmouseeventabstraction.h</text>
</a>
</g>
</g>
<!-- Node28&#45;&gt;Node29 -->
<g id="edge54" class="edge">
<title>Node28&#45;&gt;Node29</title>
<path fill="none" stroke="midnightblue" d="M265.44,-336.44C239.48,-327.4 198.33,-313.06 169.2,-302.92"/>
<polygon fill="midnightblue" stroke="midnightblue" points="170.04,-299.5 159.45,-299.52 167.74,-306.11 170.04,-299.5"/>
</g>
<!-- Node30&#45;&gt;Node3 -->
<g id="edge56" class="edge">
<title>Node30&#45;&gt;Node3</title>
<path fill="none" stroke="midnightblue" d="M1616.81,-57.27C1613.83,-56.83 1610.88,-56.4 1608,-56 1479.47,-38.17 1326.69,-22.26 1254.59,-15.06"/>
<polygon fill="midnightblue" stroke="midnightblue" points="1254.85,-11.57 1244.56,-14.07 1254.16,-18.54 1254.85,-11.57"/>
</g>
<!-- Node31&#45;&gt;Node3 -->
<g id="edge58" class="edge">
<title>Node31&#45;&gt;Node3</title>
<path fill="none" stroke="midnightblue" d="M489.33,-401.21C364.16,-400.74 0,-390.79 0,-291 0,-291 0,-291 0,-121 0,33.72 188.39,-74.48 342,-56 658.98,-17.87 1044.69,-12.02 1170.87,-11.15"/>
<polygon fill="midnightblue" stroke="midnightblue" points="1171.25,-14.65 1181.23,-11.08 1171.21,-7.65 1171.25,-14.65"/>
</g>
<!-- Node31&#45;&gt;Node9 -->
<g id="edge59" class="edge">
<title>Node31&#45;&gt;Node9</title>
<path fill="none" stroke="midnightblue" d="M572.83,-398.17C708.45,-388.54 1134.47,-354.56 1260,-300 1285.76,-288.8 1310,-266.91 1324.9,-251.64"/>
<polygon fill="midnightblue" stroke="midnightblue" points="1327.85,-253.62 1332.17,-243.95 1322.76,-248.81 1327.85,-253.62"/>
</g>
<!-- Node31&#45;&gt;Node20 -->
<g id="edge85" class="edge">
<title>Node31&#45;&gt;Node20</title>
<path fill="none" stroke="midnightblue" d="M572.76,-393.03C625.91,-382.89 717.28,-365.46 771.01,-355.2"/>
<polygon fill="midnightblue" stroke="midnightblue" points="771.75,-358.63 780.91,-353.31 770.43,-351.75 771.75,-358.63"/>
</g>
<!-- Node31&#45;&gt;Node28 -->
<g id="edge84" class="edge">
<title>Node31&#45;&gt;Node28</title>
<path fill="none" stroke="midnightblue" d="M492.81,-392.44C450.86,-383.04 383.41,-367.93 337.93,-357.74"/>
<polygon fill="midnightblue" stroke="midnightblue" points="338.53,-354.29 328.01,-355.52 337,-361.12 338.53,-354.29"/>
</g>
<!-- Node32 -->
<g id="node32" class="node">
<title>Node32</title>
<g id="a_node32"><a xlink:href="mxguirenderer_8h.html" target="_top" xlink:title=" ">
<polygon fill="none" stroke="black" points="423.5,-336.5 423.5,-355.5 508.5,-355.5 508.5,-336.5 423.5,-336.5"/>
<text text-anchor="middle" x="466" y="-343.5" font-family="Helvetica,sans-Serif" font-size="10.00">mxguirenderer.h</text>
</a>
</g>
</g>
<!-- Node31&#45;&gt;Node32 -->
<g id="edge60" class="edge">
<title>Node31&#45;&gt;Node32</title>
<path fill="none" stroke="midnightblue" d="M520.56,-392.32C510.85,-384.26 496.18,-372.08 484.5,-362.37"/>
<polygon fill="midnightblue" stroke="midnightblue" points="486.56,-359.53 476.63,-355.83 482.09,-364.92 486.56,-359.53"/>
</g>
<!-- Node33 -->
<g id="node33" class="node">
<title>Node33</title>
<g id="a_node33"><a xlink:href="mxbuffer_8h.html" target="_top" xlink:title=" ">
<polygon fill="none" stroke="black" points="376.5,-280.5 376.5,-299.5 437.5,-299.5 437.5,-280.5 376.5,-280.5"/>
<text text-anchor="middle" x="407" y="-287.5" font-family="Helvetica,sans-Serif" font-size="10.00">mxbuffer.h</text>
</a>
</g>
</g>
<!-- Node32&#45;&gt;Node33 -->
<g id="edge61" class="edge">
<title>Node32&#45;&gt;Node33</title>
<path fill="none" stroke="midnightblue" d="M456.52,-336.32C447.8,-328.34 434.66,-316.31 424.1,-306.65"/>
<polygon fill="midnightblue" stroke="midnightblue" points="426.39,-304 416.65,-299.83 421.67,-309.17 426.39,-304"/>
</g>
<!-- Node34 -->
<g id="node34" class="node">
<title>Node34</title>
<g id="a_node34"><a xlink:href="mxrenderer_8h.html" target="_top" xlink:title=" ">
<polygon fill="none" stroke="black" points="267,-280.5 267,-299.5 339,-299.5 339,-280.5 267,-280.5"/>
<text text-anchor="middle" x="303" y="-287.5" font-family="Helvetica,sans-Serif" font-size="10.00">mxrenderer.h</text>
</a>
</g>
</g>
<!-- Node32&#45;&gt;Node34 -->
<g id="edge62" class="edge">
<title>Node32&#45;&gt;Node34</title>
<path fill="none" stroke="midnightblue" d="M440.17,-336.44C412.75,-327.36 369.22,-312.94 338.57,-302.78"/>
<polygon fill="midnightblue" stroke="midnightblue" points="339.3,-299.34 328.71,-299.52 337.1,-305.98 339.3,-299.34"/>
</g>
<!-- Node40 -->
<g id="node40" class="node">
<title>Node40</title>
<g id="a_node40"><a xlink:href="mxvectorprogram_8h.html" target="_top" xlink:title=" ">
<polygon fill="none" stroke="black" points="503.5,-280.5 503.5,-299.5 602.5,-299.5 602.5,-280.5 503.5,-280.5"/>
<text text-anchor="middle" x="553" y="-287.5" font-family="Helvetica,sans-Serif" font-size="10.00">mxvectorprogram.h</text>
</a>
</g>
</g>
<!-- Node32&#45;&gt;Node40 -->
<g id="edge73" class="edge">
<title>Node32&#45;&gt;Node40</title>
<path fill="none" stroke="midnightblue" d="M479.98,-336.32C493.55,-327.9 514.38,-314.97 530.32,-305.07"/>
<polygon fill="midnightblue" stroke="midnightblue" points="532.41,-307.9 539.06,-299.65 528.71,-301.95 532.41,-307.9"/>
</g>
<!-- Node41 -->
<g id="node41" class="node">
<title>Node41</title>
<g id="a_node41"><a xlink:href="mxiconprogram_8h.html" target="_top" xlink:title=" ">
<polygon fill="none" stroke="black" points="348,-224.5 348,-243.5 438,-243.5 438,-224.5 348,-224.5"/>
<text text-anchor="middle" x="393" y="-231.5" font-family="Helvetica,sans-Serif" font-size="10.00">mxiconprogram.h</text>
</a>
</g>
</g>
<!-- Node32&#45;&gt;Node41 -->
<g id="edge77" class="edge">
<title>Node32&#45;&gt;Node41</title>
<path fill="none" stroke="midnightblue" d="M464.92,-336.34C462.94,-323.23 457.82,-297.94 446,-280 438.11,-268.03 426.14,-257.48 415.57,-249.61"/>
<polygon fill="midnightblue" stroke="midnightblue" points="417.32,-246.57 407.14,-243.66 413.29,-252.29 417.32,-246.57"/>
</g>
<!-- Node34&#45;&gt;Node7 -->
<g id="edge72" class="edge">
<title>Node34&#45;&gt;Node7</title>
<path fill="none" stroke="midnightblue" d="M296.93,-280.37C282.71,-259 250.42,-202.85 277,-168 291.71,-148.71 355.11,-135.64 398.63,-128.76"/>
<polygon fill="midnightblue" stroke="midnightblue" points="399.32,-132.19 408.68,-127.22 398.26,-125.27 399.32,-132.19"/>
</g>
<!-- Node34&#45;&gt;Node10 -->
<g id="edge63" class="edge">
<title>Node34&#45;&gt;Node10</title>
<path fill="none" stroke="midnightblue" d="M339.16,-283.47C348.24,-282.2 357.96,-280.95 367,-280 595.19,-256.01 661.31,-306.78 882,-244 900.36,-238.78 901.8,-229.74 920,-224 1032.46,-188.52 1173.46,-180.93 1237.92,-179.37"/>
<polygon fill="midnightblue" stroke="midnightblue" points="1238.03,-182.86 1247.96,-179.16 1237.89,-175.87 1238.03,-182.86"/>
</g>
<!-- Node35 -->
<g id="node35" class="node">
<title>Node35</title>
<g id="a_node35"><a xlink:href="mxgpuarray_8h.html" target="_top" xlink:title=" ">
<polygon fill="none" stroke="black" points="456,-224.5 456,-243.5 530,-243.5 530,-224.5 456,-224.5"/>
<text text-anchor="middle" x="493" y="-231.5" font-family="Helvetica,sans-Serif" font-size="10.00">mxgpuarray.h</text>
</a>
</g>
</g>
<!-- Node34&#45;&gt;Node35 -->
<g id="edge64" class="edge">
<title>Node34&#45;&gt;Node35</title>
<path fill="none" stroke="midnightblue" d="M333.11,-280.44C365.63,-271.2 417.58,-256.44 453.39,-246.26"/>
<polygon fill="midnightblue" stroke="midnightblue" points="454.37,-249.62 463.03,-243.52 452.46,-242.88 454.37,-249.62"/>
</g>
<!-- Node37 -->
<g id="node37" class="node">
<title>Node37</title>
<g id="a_node37"><a xlink:href="mxmatrix_8h.html" target="_top" xlink:title=" ">
<polygon fill="none" stroke="black" points="286.5,-168.5 286.5,-187.5 349.5,-187.5 349.5,-168.5 286.5,-168.5"/>
<text text-anchor="middle" x="318" y="-175.5" font-family="Helvetica,sans-Serif" font-size="10.00">mxmatrix.h</text>
</a>
</g>
</g>
<!-- Node34&#45;&gt;Node37 -->
<g id="edge67" class="edge">
<title>Node34&#45;&gt;Node37</title>
<path fill="none" stroke="midnightblue" d="M302.81,-280.11C302.68,-267.53 302.93,-243.87 306,-224 307.38,-215.1 309.83,-205.43 312.15,-197.34"/>
<polygon fill="midnightblue" stroke="midnightblue" points="315.58,-198.1 315.14,-187.51 308.89,-196.06 315.58,-198.1"/>
</g>
<!-- Node38 -->
<g id="node38" class="node">
<title>Node38</title>
<g id="a_node38"><a xlink:href="mxopenglfunctions_8h.html" target="_top" xlink:title=" ">
<polygon fill="none" stroke="black" points="110.5,-224.5 110.5,-243.5 215.5,-243.5 215.5,-224.5 110.5,-224.5"/>
<text text-anchor="middle" x="163" y="-231.5" font-family="Helvetica,sans-Serif" font-size="10.00">mxopenglfunctions.h</text>
</a>
</g>
</g>
<!-- Node34&#45;&gt;Node38 -->
<g id="edge70" class="edge">
<title>Node34&#45;&gt;Node38</title>
<path fill="none" stroke="midnightblue" d="M280.82,-280.44C257.57,-271.48 220.85,-257.31 194.58,-247.18"/>
<polygon fill="midnightblue" stroke="midnightblue" points="195.67,-243.85 185.08,-243.52 193.15,-250.38 195.67,-243.85"/>
</g>
<!-- Node36 -->
<g id="node36" class="node">
<title>Node36</title>
<g id="a_node36"><a xlink:href="mxgpuprogram_8h.html" target="_top" xlink:title=" ">
<polygon fill="none" stroke="black" points="482,-168.5 482,-187.5 570,-187.5 570,-168.5 482,-168.5"/>
<text text-anchor="middle" x="526" y="-175.5" font-family="Helvetica,sans-Serif" font-size="10.00">mxgpuprogram.h</text>
</a>
</g>
</g>
<!-- Node35&#45;&gt;Node36 -->
<g id="edge65" class="edge">
<title>Node35&#45;&gt;Node36</title>
<path fill="none" stroke="midnightblue" d="M498.45,-224.08C503.01,-216.61 509.67,-205.72 515.29,-196.52"/>
<polygon fill="midnightblue" stroke="midnightblue" points="518.42,-198.11 520.65,-187.75 512.45,-194.46 518.42,-198.11"/>
</g>
<!-- Node36&#45;&gt;Node27 -->
<g id="edge66" class="edge">
<title>Node36&#45;&gt;Node27</title>
<path fill="none" stroke="midnightblue" d="M526,-168.08C526,-161.01 526,-150.86 526,-141.99"/>
<polygon fill="midnightblue" stroke="midnightblue" points="529.5,-141.75 526,-131.75 522.5,-141.75 529.5,-141.75"/>
</g>
<!-- Node37&#45;&gt;Node3 -->
<g id="edge68" class="edge">
<title>Node37&#45;&gt;Node3</title>
<path fill="none" stroke="midnightblue" d="M318.28,-168.41C319.54,-145.61 326.42,-83.42 364,-56 429.56,-8.17 1009.04,-9.31 1171.07,-10.58"/>
<polygon fill="midnightblue" stroke="midnightblue" points="1171.1,-14.08 1181.13,-10.66 1171.16,-7.08 1171.1,-14.08"/>
</g>
<!-- Node37&#45;&gt;Node7 -->
<g id="edge69" class="edge">
<title>Node37&#45;&gt;Node7</title>
<path fill="none" stroke="midnightblue" d="M337.49,-168.44C357.64,-159.6 389.32,-145.69 412.33,-135.59"/>
<polygon fill="midnightblue" stroke="midnightblue" points="413.85,-138.74 421.6,-131.52 411.04,-132.33 413.85,-138.74"/>
</g>
<!-- Node39 -->
<g id="node39" class="node">
<title>Node39</title>
<g id="a_node39"><a xlink:title=" ">
<polygon fill="none" stroke="#bfbfbf" points="104.5,-168.5 104.5,-187.5 229.5,-187.5 229.5,-168.5 104.5,-168.5"/>
<text text-anchor="middle" x="167" y="-175.5" font-family="Helvetica,sans-Serif" font-size="10.00">QOpenGLExtraFunctions</text>
</a>
</g>
</g>
<!-- Node38&#45;&gt;Node39 -->
<g id="edge71" class="edge">
<title>Node38&#45;&gt;Node39</title>
<path fill="none" stroke="midnightblue" d="M163.66,-224.08C164.18,-217.01 164.94,-206.86 165.59,-197.99"/>
<polygon fill="midnightblue" stroke="midnightblue" points="169.1,-197.98 166.35,-187.75 162.12,-197.47 169.1,-197.98"/>
</g>
<!-- Node40&#45;&gt;Node21 -->
<g id="edge76" class="edge">
<title>Node40&#45;&gt;Node21</title>
<path fill="none" stroke="midnightblue" d="M582.31,-280.44C613.84,-271.24 664.13,-256.56 698.99,-246.39"/>
<polygon fill="midnightblue" stroke="midnightblue" points="700.2,-249.68 708.82,-243.52 698.24,-242.96 700.2,-249.68"/>
</g>
<!-- Node40&#45;&gt;Node36 -->
<g id="edge74" class="edge">
<title>Node40&#45;&gt;Node36</title>
<path fill="none" stroke="midnightblue" d="M551.29,-280.12C548.83,-267.57 544.02,-243.93 539,-224 536.76,-215.12 533.98,-205.34 531.56,-197.17"/>
<polygon fill="midnightblue" stroke="midnightblue" points="534.91,-196.14 528.67,-187.58 528.2,-198.16 534.91,-196.14"/>
</g>
<!-- Node40&#45;&gt;Node37 -->
<g id="edge75" class="edge">
<title>Node40&#45;&gt;Node37</title>
<path fill="none" stroke="midnightblue" d="M503.42,-284.32C447.96,-278.12 362.78,-265.4 339,-244 325.93,-232.24 320.96,-212.31 319.08,-197.61"/>
<polygon fill="midnightblue" stroke="midnightblue" points="322.57,-197.25 318.17,-187.61 315.6,-197.89 322.57,-197.25"/>
</g>
<!-- Node41&#45;&gt;Node3 -->
<g id="edge78" class="edge">
<title>Node41&#45;&gt;Node3</title>
<path fill="none" stroke="midnightblue" d="M390.31,-224.34C384.08,-202.43 371.31,-144.21 400,-112 451.85,-53.79 1011.03,-21.21 1170.67,-13.05"/>
<polygon fill="midnightblue" stroke="midnightblue" points="1171.22,-16.53 1181.03,-12.53 1170.87,-9.54 1171.22,-16.53"/>
</g>
<!-- Node41&#45;&gt;Node6 -->
<g id="edge83" class="edge">
<title>Node41&#45;&gt;Node6</title>
<path fill="none" stroke="midnightblue" d="M438.05,-225.26C441.07,-224.81 444.08,-224.38 447,-224 605.25,-203.16 795.06,-187.72 873.88,-181.73"/>
<polygon fill="midnightblue" stroke="midnightblue" points="874.54,-185.19 884.25,-180.95 874.02,-178.21 874.54,-185.19"/>
</g>
<!-- Node41&#45;&gt;Node7 -->
<g id="edge80" class="edge">
<title>Node41&#45;&gt;Node7</title>
<path fill="none" stroke="midnightblue" d="M396.77,-224.37C404.58,-206.46 422.71,-164.92 433.17,-140.95"/>
<polygon fill="midnightblue" stroke="midnightblue" points="436.46,-142.16 437.25,-131.59 430.04,-139.36 436.46,-142.16"/>
</g>
<!-- Node41&#45;&gt;Node27 -->
<g id="edge81" class="edge">
<title>Node41&#45;&gt;Node27</title>
<path fill="none" stroke="midnightblue" d="M403.44,-224.37C425.97,-205.73 479.41,-161.53 507.7,-138.13"/>
<polygon fill="midnightblue" stroke="midnightblue" points="510.14,-140.66 515.61,-131.59 505.68,-135.27 510.14,-140.66"/>
</g>
<!-- Node41&#45;&gt;Node36 -->
<g id="edge82" class="edge">
<title>Node41&#45;&gt;Node36</title>
<path fill="none" stroke="midnightblue" d="M414.07,-224.44C436.06,-215.52 470.73,-201.44 495.66,-191.32"/>
<polygon fill="midnightblue" stroke="midnightblue" points="497.08,-194.52 505.02,-187.52 494.44,-188.04 497.08,-194.52"/>
</g>
<!-- Node41&#45;&gt;Node37 -->
<g id="edge79" class="edge">
<title>Node41&#45;&gt;Node37</title>
<path fill="none" stroke="midnightblue" d="M380.95,-224.32C369.54,-216.11 352.17,-203.6 338.57,-193.81"/>
<polygon fill="midnightblue" stroke="midnightblue" points="340.43,-190.84 330.27,-187.83 336.34,-196.52 340.43,-190.84"/>
</g>
<!-- Node42&#45;&gt;Node7 -->
<g id="edge87" class="edge">
<title>Node42&#45;&gt;Node7</title>
<path fill="none" stroke="midnightblue" d="M82.55,-392.26C68.17,-374.45 38,-332.19 38,-291 38,-291 38,-291 38,-233 38,-198.61 50.87,-186.29 80,-168 132.26,-135.19 315.05,-126.25 398.67,-123.86"/>
<polygon fill="midnightblue" stroke="midnightblue" points="398.93,-127.35 408.83,-123.58 398.74,-120.35 398.93,-127.35"/>
</g>
</g>
</svg>
