<?xml version="1.0" encoding="UTF-8" standalone="no"?>
<!DOCTYPE svg PUBLIC "-//W3C//DTD SVG 1.1//EN"
 "http://www.w3.org/Graphics/SVG/1.1/DTD/svg11.dtd">
<!-- Generated by graphviz version 2.44.0 ()
 -->
<!-- Title: src/gui/mxtextdraw.cpp Pages: 1 -->
<svg width="461pt" height="308pt"
 viewBox="0.00 0.00 461.35 308.00" xmlns="http://www.w3.org/2000/svg" xmlns:xlink="http://www.w3.org/1999/xlink">
<g id="graph0" class="graph" transform="scale(1 1) rotate(0) translate(4 304)">
<title>src/gui/mxtextdraw.cpp</title>
<!-- Node1 -->
<g id="node1" class="node">
<title>Node1</title>
<g id="a_node1"><a xlink:title=" ">
<polygon fill="#bfbfbf" stroke="black" points="59.35,-280.5 59.35,-299.5 175.35,-299.5 175.35,-280.5 59.35,-280.5"/>
<text text-anchor="middle" x="117.35" y="-287.5" font-family="Helvetica,sans-Serif" font-size="10.00">src/gui/mxtextdraw.cpp</text>
</a>
</g>
</g>
<!-- Node2 -->
<g id="node2" class="node">
<title>Node2</title>
<g id="a_node2"><a xlink:href="mxtextdraw_8h.html" target="_top" xlink:title=" ">
<polygon fill="none" stroke="black" points="80.35,-224.5 80.35,-243.5 154.35,-243.5 154.35,-224.5 80.35,-224.5"/>
<text text-anchor="middle" x="117.35" y="-231.5" font-family="Helvetica,sans-Serif" font-size="10.00">mxtextdraw.h</text>
</a>
</g>
</g>
<!-- Node1&#45;&gt;Node2 -->
<g id="edge1" class="edge">
<title>Node1&#45;&gt;Node2</title>
<path fill="none" stroke="midnightblue" d="M117.35,-280.08C117.35,-273.01 117.35,-262.86 117.35,-253.99"/>
<polygon fill="midnightblue" stroke="midnightblue" points="120.85,-253.75 117.35,-243.75 113.85,-253.75 120.85,-253.75"/>
</g>
<!-- Node3 -->
<g id="node3" class="node">
<title>Node3</title>
<g id="a_node3"><a xlink:href="mxvector_8h.html" target="_top" xlink:title=" ">
<polygon fill="none" stroke="black" points="85.35,-112.5 85.35,-131.5 149.35,-131.5 149.35,-112.5 85.35,-112.5"/>
<text text-anchor="middle" x="117.35" y="-119.5" font-family="Helvetica,sans-Serif" font-size="10.00">mxvector.h</text>
</a>
</g>
</g>
<!-- Node2&#45;&gt;Node3 -->
<g id="edge2" class="edge">
<title>Node2&#45;&gt;Node3</title>
<path fill="none" stroke="midnightblue" d="M117.35,-224.37C117.35,-206.62 117.35,-165.67 117.35,-141.6"/>
<polygon fill="midnightblue" stroke="midnightblue" points="120.85,-141.59 117.35,-131.59 113.85,-141.59 120.85,-141.59"/>
</g>
<!-- Node5 -->
<g id="node5" class="node">
<title>Node5</title>
<g id="a_node5"><a xlink:href="mxrect_8h.html" target="_top" xlink:title=" ">
<polygon fill="none" stroke="black" points="24.85,-168.5 24.85,-187.5 77.85,-187.5 77.85,-168.5 24.85,-168.5"/>
<text text-anchor="middle" x="51.35" y="-175.5" font-family="Helvetica,sans-Serif" font-size="10.00">mxrect.h</text>
</a>
</g>
</g>
<!-- Node2&#45;&gt;Node5 -->
<g id="edge4" class="edge">
<title>Node2&#45;&gt;Node5</title>
<path fill="none" stroke="midnightblue" d="M106.75,-224.32C96.9,-216.26 82,-204.08 70.14,-194.37"/>
<polygon fill="midnightblue" stroke="midnightblue" points="72.11,-191.46 62.15,-187.83 67.67,-196.88 72.11,-191.46"/>
</g>
<!-- Node7 -->
<g id="node7" class="node">
<title>Node7</title>
<g id="a_node7"><a xlink:href="mxstring_8h.html" target="_top" xlink:title=" ">
<polygon fill="none" stroke="black" points="185.85,-168.5 185.85,-187.5 246.85,-187.5 246.85,-168.5 185.85,-168.5"/>
<text text-anchor="middle" x="216.35" y="-175.5" font-family="Helvetica,sans-Serif" font-size="10.00">mxstring.h</text>
</a>
</g>
</g>
<!-- Node2&#45;&gt;Node7 -->
<g id="edge8" class="edge">
<title>Node2&#45;&gt;Node7</title>
<path fill="none" stroke="midnightblue" d="M133.26,-224.32C148.99,-215.74 173.29,-202.49 191.56,-192.52"/>
<polygon fill="midnightblue" stroke="midnightblue" points="193.38,-195.52 200.49,-187.65 190.03,-189.37 193.38,-195.52"/>
</g>
<!-- Node4 -->
<g id="node4" class="node">
<title>Node4</title>
<g id="a_node4"><a xlink:title=" ">
<polygon fill="none" stroke="#bfbfbf" points="27.85,-0.5 27.85,-19.5 90.85,-19.5 90.85,-0.5 27.85,-0.5"/>
<text text-anchor="middle" x="59.35" y="-7.5" font-family="Helvetica,sans-Serif" font-size="10.00">mxdebug.h</text>
</a>
</g>
</g>
<!-- Node3&#45;&gt;Node4 -->
<g id="edge3" class="edge">
<title>Node3&#45;&gt;Node4</title>
<path fill="none" stroke="midnightblue" d="M91.85,-112.47C75.37,-105.48 55.21,-93.79 45.35,-76 37.24,-61.36 42.81,-42.44 49.17,-28.8"/>
<polygon fill="midnightblue" stroke="midnightblue" points="52.47,-30.04 53.97,-19.55 46.25,-26.81 52.47,-30.04"/>
</g>
<!-- Node5&#45;&gt;Node3 -->
<g id="edge6" class="edge">
<title>Node5&#45;&gt;Node3</title>
<path fill="none" stroke="midnightblue" d="M61.96,-168.32C71.81,-160.26 86.7,-148.08 98.57,-138.37"/>
<polygon fill="midnightblue" stroke="midnightblue" points="101.03,-140.88 106.56,-131.83 96.6,-135.46 101.03,-140.88"/>
</g>
<!-- Node5&#45;&gt;Node4 -->
<g id="edge5" class="edge">
<title>Node5&#45;&gt;Node4</title>
<path fill="none" stroke="midnightblue" d="M36.69,-168.4C24.95,-160.58 9.32,-147.86 2.35,-132 -1.22,-123.86 0.09,-120.6 2.35,-112 10.84,-79.7 32.25,-46.86 46.28,-27.73"/>
<polygon fill="midnightblue" stroke="midnightblue" points="49.26,-29.6 52.49,-19.51 43.67,-25.39 49.26,-29.6"/>
</g>
<!-- Node6 -->
<g id="node6" class="node">
<title>Node6</title>
<g id="a_node6"><a xlink:title=" ">
<polygon fill="none" stroke="#bfbfbf" points="11.35,-112.5 11.35,-131.5 67.35,-131.5 67.35,-112.5 11.35,-112.5"/>
<text text-anchor="middle" x="39.35" y="-119.5" font-family="Helvetica,sans-Serif" font-size="10.00">algorithm</text>
</a>
</g>
</g>
<!-- Node5&#45;&gt;Node6 -->
<g id="edge7" class="edge">
<title>Node5&#45;&gt;Node6</title>
<path fill="none" stroke="midnightblue" d="M49.37,-168.08C47.78,-160.93 45.49,-150.64 43.51,-141.69"/>
<polygon fill="midnightblue" stroke="midnightblue" points="46.88,-140.75 41.3,-131.75 40.05,-142.27 46.88,-140.75"/>
</g>
<!-- Node8 -->
<g id="node8" class="node">
<title>Node8</title>
<g id="a_node8"><a xlink:href="mxgenericstring_8h.html" target="_top" xlink:title=" ">
<polygon fill="none" stroke="black" points="211.35,-112.5 211.35,-131.5 303.35,-131.5 303.35,-112.5 211.35,-112.5"/>
<text text-anchor="middle" x="257.35" y="-119.5" font-family="Helvetica,sans-Serif" font-size="10.00">mxgenericstring.h</text>
</a>
</g>
</g>
<!-- Node7&#45;&gt;Node8 -->
<g id="edge9" class="edge">
<title>Node7&#45;&gt;Node8</title>
<path fill="none" stroke="midnightblue" d="M223.12,-168.08C228.91,-160.46 237.41,-149.26 244.49,-139.94"/>
<polygon fill="midnightblue" stroke="midnightblue" points="247.45,-141.83 250.71,-131.75 241.87,-137.6 247.45,-141.83"/>
</g>
<!-- Node8&#45;&gt;Node4 -->
<g id="edge10" class="edge">
<title>Node8&#45;&gt;Node4</title>
<path fill="none" stroke="midnightblue" d="M211.1,-114.67C164.59,-107.4 97.17,-94.11 78.35,-76 65.92,-64.03 61.5,-44.42 59.99,-29.87"/>
<polygon fill="midnightblue" stroke="midnightblue" points="63.46,-29.27 59.3,-19.52 56.47,-29.73 63.46,-29.27"/>
</g>
<!-- Node9 -->
<g id="node9" class="node">
<title>Node9</title>
<g id="a_node9"><a xlink:href="mxrefcounter_8h.html" target="_top" xlink:title=" ">
<polygon fill="none" stroke="black" points="319.35,-56.5 319.35,-75.5 399.35,-75.5 399.35,-56.5 319.35,-56.5"/>
<text text-anchor="middle" x="359.35" y="-63.5" font-family="Helvetica,sans-Serif" font-size="10.00">mxrefcounter.h</text>
</a>
</g>
</g>
<!-- Node8&#45;&gt;Node9 -->
<g id="edge11" class="edge">
<title>Node8&#45;&gt;Node9</title>
<path fill="none" stroke="midnightblue" d="M273.74,-112.32C290.02,-103.7 315.22,-90.36 334.07,-80.39"/>
<polygon fill="midnightblue" stroke="midnightblue" points="335.8,-83.43 343,-75.65 332.53,-77.24 335.8,-83.43"/>
</g>
<!-- Node10 -->
<g id="node10" class="node">
<title>Node10</title>
<g id="a_node10"><a xlink:href="mxbytearrayref_8h.html" target="_top" xlink:title=" ">
<polygon fill="none" stroke="black" points="213.85,-56.5 213.85,-75.5 300.85,-75.5 300.85,-56.5 213.85,-56.5"/>
<text text-anchor="middle" x="257.35" y="-63.5" font-family="Helvetica,sans-Serif" font-size="10.00">mxbytearrayref.h</text>
</a>
</g>
</g>
<!-- Node8&#45;&gt;Node10 -->
<g id="edge12" class="edge">
<title>Node8&#45;&gt;Node10</title>
<path fill="none" stroke="midnightblue" d="M257.35,-112.08C257.35,-105.01 257.35,-94.86 257.35,-85.99"/>
<polygon fill="midnightblue" stroke="midnightblue" points="260.85,-85.75 257.35,-75.75 253.85,-85.75 260.85,-85.75"/>
</g>
<!-- Node11 -->
<g id="node11" class="node">
<title>Node11</title>
<g id="a_node11"><a xlink:title=" ">
<polygon fill="none" stroke="#bfbfbf" points="268.85,-0.5 268.85,-19.5 315.85,-19.5 315.85,-0.5 268.85,-0.5"/>
<text text-anchor="middle" x="292.35" y="-7.5" font-family="Helvetica,sans-Serif" font-size="10.00">stdlib.h</text>
</a>
</g>
</g>
<!-- Node8&#45;&gt;Node11 -->
<g id="edge18" class="edge">
<title>Node8&#45;&gt;Node11</title>
<path fill="none" stroke="midnightblue" d="M303.45,-120.98C338.41,-118.22 384.4,-108.13 408.35,-76 432.7,-43.34 368.37,-24.82 326.05,-16.47"/>
<polygon fill="midnightblue" stroke="midnightblue" points="326.56,-13 316.09,-14.61 325.27,-19.88 326.56,-13"/>
</g>
<!-- Node12 -->
<g id="node12" class="node">
<title>Node12</title>
<g id="a_node12"><a xlink:title=" ">
<polygon fill="none" stroke="#bfbfbf" points="405.35,-0.5 405.35,-19.5 453.35,-19.5 453.35,-0.5 405.35,-0.5"/>
<text text-anchor="middle" x="429.35" y="-7.5" font-family="Helvetica,sans-Serif" font-size="10.00">string.h</text>
</a>
</g>
</g>
<!-- Node8&#45;&gt;Node12 -->
<g id="edge19" class="edge">
<title>Node8&#45;&gt;Node12</title>
<path fill="none" stroke="midnightblue" d="M303.72,-114.56C347.62,-107.45 409.02,-94.49 424.35,-76 434.84,-63.35 435.04,-44.14 433.25,-29.88"/>
<polygon fill="midnightblue" stroke="midnightblue" points="436.65,-29.01 431.54,-19.73 429.75,-30.17 436.65,-29.01"/>
</g>
<!-- Node13 -->
<g id="node13" class="node">
<title>Node13</title>
<g id="a_node13"><a xlink:href="mxgenericsubstring_8h.html" target="_top" xlink:title=" ">
<polygon fill="none" stroke="black" points="87.35,-56.5 87.35,-75.5 195.35,-75.5 195.35,-56.5 87.35,-56.5"/>
<text text-anchor="middle" x="141.35" y="-63.5" font-family="Helvetica,sans-Serif" font-size="10.00">mxgenericsubstring.h</text>
</a>
</g>
</g>
<!-- Node8&#45;&gt;Node13 -->
<g id="edge16" class="edge">
<title>Node8&#45;&gt;Node13</title>
<path fill="none" stroke="midnightblue" d="M238.97,-112.44C220.14,-103.68 190.62,-89.94 168.97,-79.86"/>
<polygon fill="midnightblue" stroke="midnightblue" points="170.19,-76.56 159.65,-75.52 167.24,-82.91 170.19,-76.56"/>
</g>
<!-- Node10&#45;&gt;Node4 -->
<g id="edge13" class="edge">
<title>Node10&#45;&gt;Node4</title>
<path fill="none" stroke="midnightblue" d="M225.98,-56.44C192.09,-47.2 137.95,-32.44 100.63,-22.26"/>
<polygon fill="midnightblue" stroke="midnightblue" points="101.15,-18.77 90.58,-19.52 99.31,-25.52 101.15,-18.77"/>
</g>
<!-- Node10&#45;&gt;Node11 -->
<g id="edge14" class="edge">
<title>Node10&#45;&gt;Node11</title>
<path fill="none" stroke="midnightblue" d="M263.13,-56.08C268.02,-48.53 275.18,-37.49 281.18,-28.23"/>
<polygon fill="midnightblue" stroke="midnightblue" points="284.18,-30.05 286.68,-19.75 278.3,-26.24 284.18,-30.05"/>
</g>
<!-- Node10&#45;&gt;Node12 -->
<g id="edge15" class="edge">
<title>Node10&#45;&gt;Node12</title>
<path fill="none" stroke="midnightblue" d="M284.61,-56.44C314.61,-47.02 362.88,-31.87 395.34,-21.68"/>
<polygon fill="midnightblue" stroke="midnightblue" points="396.79,-24.89 405.28,-18.56 394.69,-18.21 396.79,-24.89"/>
</g>
<!-- Node13&#45;&gt;Node4 -->
<g id="edge17" class="edge">
<title>Node13&#45;&gt;Node4</title>
<path fill="none" stroke="midnightblue" d="M128.18,-56.32C115.51,-47.98 96.12,-35.21 81.15,-25.35"/>
<polygon fill="midnightblue" stroke="midnightblue" points="82.77,-22.23 72.49,-19.65 78.92,-28.08 82.77,-22.23"/>
</g>
</g>
</svg>
