<?xml version="1.0" encoding="UTF-8" standalone="no"?>
<!DOCTYPE svg PUBLIC "-//W3C//DTD SVG 1.1//EN"
 "http://www.w3.org/Graphics/SVG/1.1/DTD/svg11.dtd">
<!-- Generated by graphviz version 2.44.0 ()
 -->
<!-- Title: src/gui/textdraw/mxtextdraw.h Pages: 1 -->
<svg width="196pt" height="252pt"
 viewBox="0.00 0.00 196.00 252.00" xmlns="http://www.w3.org/2000/svg" xmlns:xlink="http://www.w3.org/1999/xlink">
<g id="graph0" class="graph" transform="scale(1 1) rotate(0) translate(4 248)">
<title>src/gui/textdraw/mxtextdraw.h</title>
<!-- Node1 -->
<g id="node1" class="node">
<title>Node1</title>
<g id="a_node1"><a xlink:title=" ">
<polygon fill="#bfbfbf" stroke="black" points="0,-224.5 0,-243.5 146,-243.5 146,-224.5 0,-224.5"/>
<text text-anchor="middle" x="73" y="-231.5" font-family="Helvetica,sans-Serif" font-size="10.00">src/gui/textdraw/mxtextdraw.h</text>
</a>
</g>
</g>
<!-- Node2 -->
<g id="node2" class="node">
<title>Node2</title>
<g id="a_node2"><a xlink:href="mxvector_8h.html" target="_top" xlink:title=" ">
<polygon fill="none" stroke="black" points="12,-112.5 12,-131.5 76,-131.5 76,-112.5 12,-112.5"/>
<text text-anchor="middle" x="44" y="-119.5" font-family="Helvetica,sans-Serif" font-size="10.00">mxvector.h</text>
</a>
</g>
</g>
<!-- Node1&#45;&gt;Node2 -->
<g id="edge1" class="edge">
<title>Node1&#45;&gt;Node2</title>
<path fill="none" stroke="midnightblue" d="M70.72,-224.37C66.02,-206.54 55.15,-165.3 48.82,-141.27"/>
<polygon fill="midnightblue" stroke="midnightblue" points="52.2,-140.37 46.27,-131.59 45.43,-142.15 52.2,-140.37"/>
</g>
<!-- Node5 -->
<g id="node5" class="node">
<title>Node5</title>
<g id="a_node5"><a xlink:href="mxrect_8h.html" target="_top" xlink:title=" ">
<polygon fill="none" stroke="black" points="75.5,-168.5 75.5,-187.5 128.5,-187.5 128.5,-168.5 75.5,-168.5"/>
<text text-anchor="middle" x="102" y="-175.5" font-family="Helvetica,sans-Serif" font-size="10.00">mxrect.h</text>
</a>
</g>
</g>
<!-- Node1&#45;&gt;Node5 -->
<g id="edge4" class="edge">
<title>Node1&#45;&gt;Node5</title>
<path fill="none" stroke="midnightblue" d="M77.79,-224.08C81.76,-216.69 87.53,-205.95 92.43,-196.81"/>
<polygon fill="midnightblue" stroke="midnightblue" points="95.65,-198.22 97.3,-187.75 89.49,-194.91 95.65,-198.22"/>
</g>
<!-- Node3 -->
<g id="node3" class="node">
<title>Node3</title>
<g id="a_node3"><a xlink:href="mxdebug_8h.html" target="_top" xlink:title=" ">
<polygon fill="none" stroke="black" points="42.5,-56.5 42.5,-75.5 105.5,-75.5 105.5,-56.5 42.5,-56.5"/>
<text text-anchor="middle" x="74" y="-63.5" font-family="Helvetica,sans-Serif" font-size="10.00">mxdebug.h</text>
</a>
</g>
</g>
<!-- Node2&#45;&gt;Node3 -->
<g id="edge2" class="edge">
<title>Node2&#45;&gt;Node3</title>
<path fill="none" stroke="midnightblue" d="M48.95,-112.08C53.1,-104.61 59.15,-93.72 64.27,-84.52"/>
<polygon fill="midnightblue" stroke="midnightblue" points="67.34,-86.19 69.14,-75.75 61.22,-82.79 67.34,-86.19"/>
</g>
<!-- Node4 -->
<g id="node4" class="node">
<title>Node4</title>
<g id="a_node4"><a xlink:title=" ">
<polygon fill="none" stroke="#bfbfbf" points="48,-0.5 48,-19.5 100,-19.5 100,-0.5 48,-0.5"/>
<text text-anchor="middle" x="74" y="-7.5" font-family="Helvetica,sans-Serif" font-size="10.00">QDebug</text>
</a>
</g>
</g>
<!-- Node3&#45;&gt;Node4 -->
<g id="edge3" class="edge">
<title>Node3&#45;&gt;Node4</title>
<path fill="none" stroke="midnightblue" d="M74,-56.08C74,-49.01 74,-38.86 74,-29.99"/>
<polygon fill="midnightblue" stroke="midnightblue" points="77.5,-29.75 74,-19.75 70.5,-29.75 77.5,-29.75"/>
</g>
<!-- Node5&#45;&gt;Node2 -->
<g id="edge6" class="edge">
<title>Node5&#45;&gt;Node2</title>
<path fill="none" stroke="midnightblue" d="M92.68,-168.32C84.11,-160.34 71.19,-148.31 60.81,-138.65"/>
<polygon fill="midnightblue" stroke="midnightblue" points="63.19,-136.09 53.49,-131.83 58.42,-141.21 63.19,-136.09"/>
</g>
<!-- Node5&#45;&gt;Node3 -->
<g id="edge5" class="edge">
<title>Node5&#45;&gt;Node3</title>
<path fill="none" stroke="midnightblue" d="M99.8,-168.37C95.28,-150.62 84.86,-109.67 78.73,-85.6"/>
<polygon fill="midnightblue" stroke="midnightblue" points="82.05,-84.42 76.19,-75.59 75.26,-86.15 82.05,-84.42"/>
</g>
<!-- Node6 -->
<g id="node6" class="node">
<title>Node6</title>
<g id="a_node6"><a xlink:title=" ">
<polygon fill="none" stroke="#bfbfbf" points="132,-112.5 132,-131.5 188,-131.5 188,-112.5 132,-112.5"/>
<text text-anchor="middle" x="160" y="-119.5" font-family="Helvetica,sans-Serif" font-size="10.00">algorithm</text>
</a>
</g>
</g>
<!-- Node5&#45;&gt;Node6 -->
<g id="edge7" class="edge">
<title>Node5&#45;&gt;Node6</title>
<path fill="none" stroke="midnightblue" d="M111.32,-168.32C119.89,-160.34 132.81,-148.31 143.19,-138.65"/>
<polygon fill="midnightblue" stroke="midnightblue" points="145.58,-141.21 150.51,-131.83 140.81,-136.09 145.58,-141.21"/>
</g>
</g>
</svg>
