<?xml version="1.0" encoding="UTF-8" standalone="no"?>
<!DOCTYPE svg PUBLIC "-//W3C//DTD SVG 1.1//EN"
 "http://www.w3.org/Graphics/SVG/1.1/DTD/svg11.dtd">
<!-- Generated by graphviz version 2.44.0 ()
 -->
<!-- Title: src/renderer/opengl/mxtexture.h Pages: 1 -->
<svg width="686pt" height="274pt"
 viewBox="0.00 0.00 686.00 274.00" xmlns="http://www.w3.org/2000/svg" xmlns:xlink="http://www.w3.org/1999/xlink">
<g id="graph0" class="graph" transform="scale(1 1) rotate(0) translate(4 270)">
<title>src/renderer/opengl/mxtexture.h</title>
<!-- Node1 -->
<g id="node1" class="node">
<title>Node1</title>
<g id="a_node1"><a xlink:title=" ">
<polygon fill="#bfbfbf" stroke="black" points="362.5,-235.5 362.5,-265.5 462.5,-265.5 462.5,-235.5 362.5,-235.5"/>
<text text-anchor="start" x="370.5" y="-253.5" font-family="Helvetica,sans-Serif" font-size="10.00">src/renderer/opengl</text>
<text text-anchor="middle" x="412.5" y="-242.5" font-family="Helvetica,sans-Serif" font-size="10.00">/mxtexture.h</text>
</a>
</g>
</g>
<!-- Node2 -->
<g id="node2" class="node">
<title>Node2</title>
<g id="a_node2"><a xlink:href="mxabstractatlas_8h.html" target="_top" xlink:title=" ">
<polygon fill="none" stroke="black" points="192.5,-174 192.5,-193 344.5,-193 344.5,-174 192.5,-174"/>
<text text-anchor="middle" x="268.5" y="-181" font-family="Helvetica,sans-Serif" font-size="10.00">src/iconatlas/mxabstractatlas.h</text>
</a>
</g>
</g>
<!-- Node1&#45;&gt;Node2 -->
<g id="edge1" class="edge">
<title>Node1&#45;&gt;Node2</title>
<path fill="none" stroke="midnightblue" d="M371.81,-231.13C344.09,-218.62 308.69,-202.64 287.35,-193.01"/>
<polygon fill="midnightblue" stroke="midnightblue" points="370.7,-234.47 381.25,-235.4 373.58,-228.09 370.7,-234.47"/>
</g>
<!-- Node10 -->
<g id="node10" class="node">
<title>Node10</title>
<g id="a_node10"><a xlink:href="mxrenderer_8cpp.html" target="_top" xlink:title=" ">
<polygon fill="none" stroke="black" points="362.5,-168.5 362.5,-198.5 462.5,-198.5 462.5,-168.5 362.5,-168.5"/>
<text text-anchor="start" x="370.5" y="-186.5" font-family="Helvetica,sans-Serif" font-size="10.00">src/renderer/opengl</text>
<text text-anchor="middle" x="412.5" y="-175.5" font-family="Helvetica,sans-Serif" font-size="10.00">/mxrenderer.cpp</text>
</a>
</g>
</g>
<!-- Node1&#45;&gt;Node10 -->
<g id="edge9" class="edge">
<title>Node1&#45;&gt;Node10</title>
<path fill="none" stroke="midnightblue" d="M412.5,-225.11C412.5,-216.15 412.5,-206.32 412.5,-198.58"/>
<polygon fill="midnightblue" stroke="midnightblue" points="409,-225.4 412.5,-235.4 416,-225.4 409,-225.4"/>
</g>
<!-- Node11 -->
<g id="node11" class="node">
<title>Node11</title>
<g id="a_node11"><a xlink:href="mxtexture_8cpp.html" target="_top" xlink:title=" ">
<polygon fill="none" stroke="black" points="480.5,-168.5 480.5,-198.5 580.5,-198.5 580.5,-168.5 480.5,-168.5"/>
<text text-anchor="start" x="488.5" y="-186.5" font-family="Helvetica,sans-Serif" font-size="10.00">src/renderer/opengl</text>
<text text-anchor="middle" x="530.5" y="-175.5" font-family="Helvetica,sans-Serif" font-size="10.00">/mxtexture.cpp</text>
</a>
</g>
</g>
<!-- Node1&#45;&gt;Node11 -->
<g id="edge10" class="edge">
<title>Node1&#45;&gt;Node11</title>
<path fill="none" stroke="midnightblue" d="M447.11,-230.44C465.62,-220.24 488.02,-207.9 504.95,-198.58"/>
<polygon fill="midnightblue" stroke="midnightblue" points="445.17,-227.51 438.1,-235.4 448.55,-233.64 445.17,-227.51"/>
</g>
<!-- Node3 -->
<g id="node3" class="node">
<title>Node3</title>
<g id="a_node3"><a xlink:href="mxicondraw_8cpp.html" target="_top" xlink:title=" ">
<polygon fill="none" stroke="black" points="0,-112.5 0,-131.5 119,-131.5 119,-112.5 0,-112.5"/>
<text text-anchor="middle" x="59.5" y="-119.5" font-family="Helvetica,sans-Serif" font-size="10.00">src/gui/mxicondraw.cpp</text>
</a>
</g>
</g>
<!-- Node2&#45;&gt;Node3 -->
<g id="edge2" class="edge">
<title>Node2&#45;&gt;Node3</title>
<path fill="none" stroke="midnightblue" d="M228.72,-171.18C188.11,-159.61 125.99,-141.93 89.39,-131.51"/>
<polygon fill="midnightblue" stroke="midnightblue" points="227.98,-174.6 238.56,-173.98 229.9,-167.87 227.98,-174.6"/>
</g>
<!-- Node4 -->
<g id="node4" class="node">
<title>Node4</title>
<g id="a_node4"><a xlink:href="mxpainter_8cpp.html" target="_top" xlink:title=" ">
<polygon fill="none" stroke="black" points="137,-112.5 137,-131.5 246,-131.5 246,-112.5 137,-112.5"/>
<text text-anchor="middle" x="191.5" y="-119.5" font-family="Helvetica,sans-Serif" font-size="10.00">src/gui/mxpainter.cpp</text>
</a>
</g>
</g>
<!-- Node2&#45;&gt;Node4 -->
<g id="edge3" class="edge">
<title>Node2&#45;&gt;Node4</title>
<path fill="none" stroke="midnightblue" d="M249.47,-167.79C234.7,-156.38 214.74,-140.96 202.51,-131.51"/>
<polygon fill="midnightblue" stroke="midnightblue" points="247.41,-170.63 257.47,-173.98 251.69,-165.09 247.41,-170.63"/>
</g>
<!-- Node5 -->
<g id="node5" class="node">
<title>Node5</title>
<g id="a_node5"><a xlink:href="mxabstractatlas_8cpp.html" target="_top" xlink:title=" ">
<polygon fill="none" stroke="black" points="264.5,-112.5 264.5,-131.5 426.5,-131.5 426.5,-112.5 264.5,-112.5"/>
<text text-anchor="middle" x="345.5" y="-119.5" font-family="Helvetica,sans-Serif" font-size="10.00">src/iconatlas/mxabstractatlas.cpp</text>
</a>
</g>
</g>
<!-- Node2&#45;&gt;Node5 -->
<g id="edge4" class="edge">
<title>Node2&#45;&gt;Node5</title>
<path fill="none" stroke="midnightblue" d="M287.53,-167.79C302.3,-156.38 322.26,-140.96 334.49,-131.51"/>
<polygon fill="midnightblue" stroke="midnightblue" points="285.31,-165.09 279.53,-173.98 289.59,-170.63 285.31,-165.09"/>
</g>
<!-- Node6 -->
<g id="node6" class="node">
<title>Node6</title>
<g id="a_node6"><a xlink:href="mxiconatlas_8h.html" target="_top" xlink:title=" ">
<polygon fill="none" stroke="black" points="444.5,-112.5 444.5,-131.5 578.5,-131.5 578.5,-112.5 444.5,-112.5"/>
<text text-anchor="middle" x="511.5" y="-119.5" font-family="Helvetica,sans-Serif" font-size="10.00">src/iconatlas/mxiconatlas.h</text>
</a>
</g>
</g>
<!-- Node2&#45;&gt;Node6 -->
<g id="edge5" class="edge">
<title>Node2&#45;&gt;Node6</title>
<path fill="none" stroke="midnightblue" d="M313.26,-171.54C360.43,-159.99 433.74,-142.04 476.75,-131.51"/>
<polygon fill="midnightblue" stroke="midnightblue" points="312.2,-168.2 303.32,-173.98 313.86,-175 312.2,-168.2"/>
</g>
<!-- Node7 -->
<g id="node7" class="node">
<title>Node7</title>
<g id="a_node7"><a xlink:href="mxiconatlas_8cpp.html" target="_top" xlink:title=" ">
<polygon fill="none" stroke="black" points="355,-56.5 355,-75.5 500,-75.5 500,-56.5 355,-56.5"/>
<text text-anchor="middle" x="427.5" y="-63.5" font-family="Helvetica,sans-Serif" font-size="10.00">src/iconatlas/mxiconatlas.cpp</text>
</a>
</g>
</g>
<!-- Node6&#45;&gt;Node7 -->
<g id="edge6" class="edge">
<title>Node6&#45;&gt;Node7</title>
<path fill="none" stroke="midnightblue" d="M489.57,-106.9C474.16,-97 454.05,-84.07 440.96,-75.65"/>
<polygon fill="midnightblue" stroke="midnightblue" points="487.7,-109.86 498,-112.32 491.48,-103.97 487.7,-109.86"/>
</g>
<!-- Node8 -->
<g id="node8" class="node">
<title>Node8</title>
<g id="a_node8"><a xlink:href="qmewawindow_8h.html" target="_top" xlink:title=" ">
<polygon fill="none" stroke="black" points="518,-56.5 518,-75.5 673,-75.5 673,-56.5 518,-56.5"/>
<text text-anchor="middle" x="595.5" y="-63.5" font-family="Helvetica,sans-Serif" font-size="10.00">src/platform/qt/qmewawindow.h</text>
</a>
</g>
</g>
<!-- Node6&#45;&gt;Node8 -->
<g id="edge7" class="edge">
<title>Node6&#45;&gt;Node8</title>
<path fill="none" stroke="midnightblue" d="M533.43,-106.9C548.84,-97 568.95,-84.07 582.04,-75.65"/>
<polygon fill="midnightblue" stroke="midnightblue" points="531.52,-103.97 525,-112.32 535.3,-109.86 531.52,-103.97"/>
</g>
<!-- Node9 -->
<g id="node9" class="node">
<title>Node9</title>
<g id="a_node9"><a xlink:href="qmewawindow_8cpp.html" target="_top" xlink:title=" ">
<polygon fill="none" stroke="black" points="513,-0.5 513,-19.5 678,-19.5 678,-0.5 513,-0.5"/>
<text text-anchor="middle" x="595.5" y="-7.5" font-family="Helvetica,sans-Serif" font-size="10.00">src/platform/qt/qmewawindow.cpp</text>
</a>
</g>
</g>
<!-- Node8&#45;&gt;Node9 -->
<g id="edge8" class="edge">
<title>Node8&#45;&gt;Node9</title>
<path fill="none" stroke="midnightblue" d="M595.5,-45.8C595.5,-36.91 595.5,-26.78 595.5,-19.75"/>
<polygon fill="midnightblue" stroke="midnightblue" points="592,-46.08 595.5,-56.08 599,-46.08 592,-46.08"/>
</g>
</g>
</svg>
