<?xml version="1.0" encoding="UTF-8" standalone="no"?>
<!DOCTYPE svg PUBLIC "-//W3C//DTD SVG 1.1//EN"
 "http://www.w3.org/Graphics/SVG/1.1/DTD/svg11.dtd">
<!-- Generated by graphviz version 2.44.0 ()
 -->
<!-- Title: src/widgets/mxtextbutton.cpp Pages: 1 -->
<svg width="1188pt" height="420pt"
 viewBox="0.00 0.00 1188.30 420.00" xmlns="http://www.w3.org/2000/svg" xmlns:xlink="http://www.w3.org/1999/xlink">
<g id="graph0" class="graph" transform="scale(1 1) rotate(0) translate(4 416)">
<title>src/widgets/mxtextbutton.cpp</title>
<!-- Node1 -->
<g id="node1" class="node">
<title>Node1</title>
<g id="a_node1"><a xlink:title=" ">
<polygon fill="#bfbfbf" stroke="black" points="303.3,-392.5 303.3,-411.5 446.3,-411.5 446.3,-392.5 303.3,-392.5"/>
<text text-anchor="middle" x="374.8" y="-399.5" font-family="Helvetica,sans-Serif" font-size="10.00">src/widgets/mxtextbutton.cpp</text>
</a>
</g>
</g>
<!-- Node2 -->
<g id="node2" class="node">
<title>Node2</title>
<g id="a_node2"><a xlink:href="mxtextbutton_8h.html" target="_top" xlink:title=" ">
<polygon fill="none" stroke="black" points="253.8,-336.5 253.8,-355.5 333.8,-355.5 333.8,-336.5 253.8,-336.5"/>
<text text-anchor="middle" x="293.8" y="-343.5" font-family="Helvetica,sans-Serif" font-size="10.00">mxtextbutton.h</text>
</a>
</g>
</g>
<!-- Node1&#45;&gt;Node2 -->
<g id="edge1" class="edge">
<title>Node1&#45;&gt;Node2</title>
<path fill="none" stroke="midnightblue" d="M361.79,-392.32C349.27,-383.98 330.12,-371.21 315.33,-361.35"/>
<polygon fill="midnightblue" stroke="midnightblue" points="317.04,-358.29 306.78,-355.65 313.16,-364.11 317.04,-358.29"/>
</g>
<!-- Node20 -->
<g id="node20" class="node">
<title>Node20</title>
<g id="a_node20"><a xlink:href="mxpainter_8h.html" target="_top" xlink:title=" ">
<polygon fill="none" stroke="black" points="689.8,-336.5 689.8,-355.5 755.8,-355.5 755.8,-336.5 689.8,-336.5"/>
<text text-anchor="middle" x="722.8" y="-343.5" font-family="Helvetica,sans-Serif" font-size="10.00">mxpainter.h</text>
</a>
</g>
</g>
<!-- Node1&#45;&gt;Node20 -->
<g id="edge34" class="edge">
<title>Node1&#45;&gt;Node20</title>
<path fill="none" stroke="midnightblue" d="M429.94,-392.44C499.11,-381.71 616.28,-363.53 679.41,-353.73"/>
<polygon fill="midnightblue" stroke="midnightblue" points="680.09,-357.17 689.44,-352.18 679.02,-350.25 680.09,-357.17"/>
</g>
<!-- Node26 -->
<g id="node26" class="node">
<title>Node26</title>
<g id="a_node26"><a xlink:href="mxfont_8h.html" target="_top" xlink:title=" ">
<polygon fill="none" stroke="black" points="1004.3,-224.5 1004.3,-243.5 1057.3,-243.5 1057.3,-224.5 1004.3,-224.5"/>
<text text-anchor="middle" x="1030.8" y="-231.5" font-family="Helvetica,sans-Serif" font-size="10.00">mxfont.h</text>
</a>
</g>
</g>
<!-- Node1&#45;&gt;Node26 -->
<g id="edge51" class="edge">
<title>Node1&#45;&gt;Node26</title>
<path fill="none" stroke="midnightblue" d="M446.47,-398.93C545.37,-395.11 728.93,-384.53 882.8,-356 971.88,-339.48 1024.24,-372.33 1078.8,-300 1091.79,-282.77 1071.84,-262.78 1053.84,-249.56"/>
<polygon fill="midnightblue" stroke="midnightblue" points="1055.53,-246.48 1045.32,-243.66 1051.55,-252.23 1055.53,-246.48"/>
</g>
<!-- Node28 -->
<g id="node28" class="node">
<title>Node28</title>
<g id="a_node28"><a xlink:href="mxmouseevent_8h.html" target="_top" xlink:title=" ">
<polygon fill="none" stroke="black" points="133.8,-336.5 133.8,-355.5 223.8,-355.5 223.8,-336.5 133.8,-336.5"/>
<text text-anchor="middle" x="178.8" y="-343.5" font-family="Helvetica,sans-Serif" font-size="10.00">mxmouseevent.h</text>
</a>
</g>
</g>
<!-- Node1&#45;&gt;Node28 -->
<g id="edge52" class="edge">
<title>Node1&#45;&gt;Node28</title>
<path fill="none" stroke="midnightblue" d="M343.74,-392.44C310.2,-383.2 256.6,-368.44 219.66,-358.26"/>
<polygon fill="midnightblue" stroke="midnightblue" points="220.28,-354.8 209.71,-355.52 218.42,-361.55 220.28,-354.8"/>
</g>
<!-- Node30 -->
<g id="node30" class="node">
<title>Node30</title>
<g id="a_node30"><a xlink:href="mxeventhandler_8h.html" target="_top" xlink:title=" ">
<polygon fill="none" stroke="black" points="3.8,-224.5 3.8,-243.5 95.8,-243.5 95.8,-224.5 3.8,-224.5"/>
<text text-anchor="middle" x="49.8" y="-231.5" font-family="Helvetica,sans-Serif" font-size="10.00">mxeventhandler.h</text>
</a>
</g>
</g>
<!-- Node1&#45;&gt;Node30 -->
<g id="edge55" class="edge">
<title>Node1&#45;&gt;Node30</title>
<path fill="none" stroke="midnightblue" d="M303.03,-392.75C204.54,-379.66 35.97,-350.34 3.8,-300 -7.49,-282.34 10.72,-262.81 27.45,-249.81"/>
<polygon fill="midnightblue" stroke="midnightblue" points="29.88,-252.37 35.9,-243.65 25.76,-246.71 29.88,-252.37"/>
</g>
<!-- Node31 -->
<g id="node31" class="node">
<title>Node31</title>
<g id="a_node31"><a xlink:href="mxguiaggregation_8h.html" target="_top" xlink:title=" ">
<polygon fill="none" stroke="black" points="773.8,-336.5 773.8,-355.5 873.8,-355.5 873.8,-336.5 773.8,-336.5"/>
<text text-anchor="middle" x="823.8" y="-343.5" font-family="Helvetica,sans-Serif" font-size="10.00">mxguiaggregation.h</text>
</a>
</g>
</g>
<!-- Node1&#45;&gt;Node31 -->
<g id="edge57" class="edge">
<title>Node1&#45;&gt;Node31</title>
<path fill="none" stroke="midnightblue" d="M446.42,-393.53C522.5,-385.41 646.57,-371.67 763.41,-356.15"/>
<polygon fill="midnightblue" stroke="midnightblue" points="764.16,-359.58 773.61,-354.78 763.23,-352.64 764.16,-359.58"/>
</g>
<!-- Node32 -->
<g id="node32" class="node">
<title>Node32</title>
<g id="a_node32"><a xlink:href="widgets_2mxthemecolors_8h.html" target="_top" xlink:title=" ">
<polygon fill="none" stroke="black" points="330.8,-112.5 330.8,-131.5 420.8,-131.5 420.8,-112.5 330.8,-112.5"/>
<text text-anchor="middle" x="375.8" y="-119.5" font-family="Helvetica,sans-Serif" font-size="10.00">mxthemecolors.h</text>
</a>
</g>
</g>
<!-- Node1&#45;&gt;Node32 -->
<g id="edge58" class="edge">
<title>Node1&#45;&gt;Node32</title>
<path fill="none" stroke="midnightblue" d="M374.8,-392.44C374.8,-373.94 374.8,-328.81 374.8,-291 374.8,-291 374.8,-291 374.8,-233 374.8,-200.95 375.23,-163.64 375.53,-141.75"/>
<polygon fill="midnightblue" stroke="midnightblue" points="379.03,-141.61 375.67,-131.56 372.03,-141.51 379.03,-141.61"/>
</g>
<!-- Node3 -->
<g id="node3" class="node">
<title>Node3</title>
<g id="a_node3"><a xlink:title=" ">
<polygon fill="none" stroke="#bfbfbf" points="447.3,-0.5 447.3,-19.5 510.3,-19.5 510.3,-0.5 447.3,-0.5"/>
<text text-anchor="middle" x="478.8" y="-7.5" font-family="Helvetica,sans-Serif" font-size="10.00">mxdebug.h</text>
</a>
</g>
</g>
<!-- Node2&#45;&gt;Node3 -->
<g id="edge2" class="edge">
<title>Node2&#45;&gt;Node3</title>
<path fill="none" stroke="midnightblue" d="M278.59,-336.44C265.66,-328.48 247.38,-315.53 235.8,-300 201.31,-253.75 188.8,-236.69 188.8,-179 188.8,-179 188.8,-179 188.8,-121 188.8,-85.86 204.28,-75.06 233.8,-56 266.77,-34.71 376.14,-20.99 437,-14.81"/>
<polygon fill="midnightblue" stroke="midnightblue" points="437.45,-18.28 447.06,-13.81 436.76,-11.31 437.45,-18.28"/>
</g>
<!-- Node4 -->
<g id="node4" class="node">
<title>Node4</title>
<g id="a_node4"><a xlink:href="mxbutton_8h.html" target="_top" xlink:title=" ">
<polygon fill="none" stroke="black" points="244.8,-280.5 244.8,-299.5 308.8,-299.5 308.8,-280.5 244.8,-280.5"/>
<text text-anchor="middle" x="276.8" y="-287.5" font-family="Helvetica,sans-Serif" font-size="10.00">mxbutton.h</text>
</a>
</g>
</g>
<!-- Node2&#45;&gt;Node4 -->
<g id="edge3" class="edge">
<title>Node2&#45;&gt;Node4</title>
<path fill="none" stroke="midnightblue" d="M290.99,-336.08C288.71,-328.85 285.43,-318.41 282.59,-309.4"/>
<polygon fill="midnightblue" stroke="midnightblue" points="285.9,-308.24 279.55,-299.75 279.22,-310.34 285.9,-308.24"/>
</g>
<!-- Node16 -->
<g id="node16" class="node">
<title>Node16</title>
<g id="a_node16"><a xlink:href="mxstring_8h.html" target="_top" xlink:title=" ">
<polygon fill="none" stroke="black" points="907.3,-168.5 907.3,-187.5 968.3,-187.5 968.3,-168.5 907.3,-168.5"/>
<text text-anchor="middle" x="937.8" y="-175.5" font-family="Helvetica,sans-Serif" font-size="10.00">mxstring.h</text>
</a>
</g>
</g>
<!-- Node2&#45;&gt;Node16 -->
<g id="edge22" class="edge">
<title>Node2&#45;&gt;Node16</title>
<path fill="none" stroke="midnightblue" d="M334.02,-345.33C420.85,-345.21 631.85,-340.37 802.8,-300 868.82,-284.41 906.63,-300.08 944.8,-244 954.06,-230.39 950.58,-211.34 945.83,-197.38"/>
<polygon fill="midnightblue" stroke="midnightblue" points="949.01,-195.93 942.13,-187.87 942.49,-198.46 949.01,-195.93"/>
</g>
<!-- Node4&#45;&gt;Node3 -->
<g id="edge4" class="edge">
<title>Node4&#45;&gt;Node3</title>
<path fill="none" stroke="midnightblue" d="M271.78,-280.12C253.47,-246.42 194.2,-124.86 250.8,-56 273.88,-27.92 377.42,-17.07 436.72,-13.11"/>
<polygon fill="midnightblue" stroke="midnightblue" points="437.14,-16.59 446.9,-12.47 436.7,-9.61 437.14,-16.59"/>
</g>
<!-- Node5 -->
<g id="node5" class="node">
<title>Node5</title>
<g id="a_node5"><a xlink:href="widgets_2mxwidget_8h.html" target="_top" xlink:title=" ">
<polygon fill="none" stroke="black" points="456.3,-224.5 456.3,-243.5 521.3,-243.5 521.3,-224.5 456.3,-224.5"/>
<text text-anchor="middle" x="488.8" y="-231.5" font-family="Helvetica,sans-Serif" font-size="10.00">mxwidget.h</text>
</a>
</g>
</g>
<!-- Node4&#45;&gt;Node5 -->
<g id="edge5" class="edge">
<title>Node4&#45;&gt;Node5</title>
<path fill="none" stroke="midnightblue" d="M309,-280.8C345.73,-271.44 405.94,-256.11 446.45,-245.79"/>
<polygon fill="midnightblue" stroke="midnightblue" points="447.47,-249.14 456.3,-243.28 445.74,-242.36 447.47,-249.14"/>
</g>
<!-- Node6 -->
<g id="node6" class="node">
<title>Node6</title>
<g id="a_node6"><a xlink:href="mxrect_8h.html" target="_top" xlink:title=" ">
<polygon fill="none" stroke="black" points="538.3,-112.5 538.3,-131.5 591.3,-131.5 591.3,-112.5 538.3,-112.5"/>
<text text-anchor="middle" x="564.8" y="-119.5" font-family="Helvetica,sans-Serif" font-size="10.00">mxrect.h</text>
</a>
</g>
</g>
<!-- Node5&#45;&gt;Node6 -->
<g id="edge6" class="edge">
<title>Node5&#45;&gt;Node6</title>
<path fill="none" stroke="midnightblue" d="M489.64,-224.29C491.28,-211.11 495.83,-185.74 507.8,-168 516.2,-155.55 529.13,-144.94 540.55,-137.15"/>
<polygon fill="midnightblue" stroke="midnightblue" points="542.76,-139.89 549.27,-131.54 538.97,-134.01 542.76,-139.89"/>
</g>
<!-- Node7 -->
<g id="node7" class="node">
<title>Node7</title>
<g id="a_node7"><a xlink:href="mxvector_8h.html" target="_top" xlink:title=" ">
<polygon fill="none" stroke="black" points="416.8,-56.5 416.8,-75.5 480.8,-75.5 480.8,-56.5 416.8,-56.5"/>
<text text-anchor="middle" x="448.8" y="-63.5" font-family="Helvetica,sans-Serif" font-size="10.00">mxvector.h</text>
</a>
</g>
</g>
<!-- Node5&#45;&gt;Node7 -->
<g id="edge11" class="edge">
<title>Node5&#45;&gt;Node7</title>
<path fill="none" stroke="midnightblue" d="M473.02,-224.47C460.6,-216.77 444.19,-204.18 436.8,-188 421.36,-154.22 432.81,-109.71 441.49,-85.18"/>
<polygon fill="midnightblue" stroke="midnightblue" points="444.81,-86.3 445.06,-75.7 438.26,-83.83 444.81,-86.3"/>
</g>
<!-- Node9 -->
<g id="node9" class="node">
<title>Node9</title>
<g id="a_node9"><a xlink:href="widgets_2mxwidgetlist_8h.html" target="_top" xlink:title=" ">
<polygon fill="none" stroke="black" points="630.8,-168.5 630.8,-187.5 708.8,-187.5 708.8,-168.5 630.8,-168.5"/>
<text text-anchor="middle" x="669.8" y="-175.5" font-family="Helvetica,sans-Serif" font-size="10.00">mxwidgetlist.h</text>
</a>
</g>
</g>
<!-- Node5&#45;&gt;Node9 -->
<g id="edge12" class="edge">
<title>Node5&#45;&gt;Node9</title>
<path fill="none" stroke="midnightblue" d="M517.48,-224.44C548.33,-215.24 597.53,-200.56 631.63,-190.39"/>
<polygon fill="midnightblue" stroke="midnightblue" points="632.67,-193.73 641.25,-187.52 630.67,-187.02 632.67,-193.73"/>
</g>
<!-- Node15 -->
<g id="node15" class="node">
<title>Node15</title>
<g id="a_node15"><a xlink:href="mxclippedwidget_8h.html" target="_top" xlink:title=" ">
<polygon fill="none" stroke="black" points="516.8,-168.5 516.8,-187.5 612.8,-187.5 612.8,-168.5 516.8,-168.5"/>
<text text-anchor="middle" x="564.8" y="-175.5" font-family="Helvetica,sans-Serif" font-size="10.00">mxclippedwidget.h</text>
</a>
</g>
</g>
<!-- Node5&#45;&gt;Node15 -->
<g id="edge19" class="edge">
<title>Node5&#45;&gt;Node15</title>
<path fill="none" stroke="midnightblue" d="M501.01,-224.32C512.58,-216.11 530.17,-203.6 543.96,-193.81"/>
<polygon fill="midnightblue" stroke="midnightblue" points="546.24,-196.48 552.37,-187.83 542.19,-190.77 546.24,-196.48"/>
</g>
<!-- Node6&#45;&gt;Node3 -->
<g id="edge7" class="edge">
<title>Node6&#45;&gt;Node3</title>
<path fill="none" stroke="midnightblue" d="M557.6,-112.46C550.06,-103.47 537.94,-88.87 527.8,-76 515.01,-59.76 500.84,-40.86 491.04,-27.64"/>
<polygon fill="midnightblue" stroke="midnightblue" points="493.79,-25.46 485.03,-19.5 488.16,-29.62 493.79,-25.46"/>
</g>
<!-- Node6&#45;&gt;Node7 -->
<g id="edge8" class="edge">
<title>Node6&#45;&gt;Node7</title>
<path fill="none" stroke="midnightblue" d="M546.42,-112.44C527.58,-103.68 498.07,-89.94 476.42,-79.86"/>
<polygon fill="midnightblue" stroke="midnightblue" points="477.64,-76.56 467.09,-75.52 474.68,-82.91 477.64,-76.56"/>
</g>
<!-- Node8 -->
<g id="node8" class="node">
<title>Node8</title>
<g id="a_node8"><a xlink:title=" ">
<polygon fill="none" stroke="#bfbfbf" points="536.8,-56.5 536.8,-75.5 592.8,-75.5 592.8,-56.5 536.8,-56.5"/>
<text text-anchor="middle" x="564.8" y="-63.5" font-family="Helvetica,sans-Serif" font-size="10.00">algorithm</text>
</a>
</g>
</g>
<!-- Node6&#45;&gt;Node8 -->
<g id="edge10" class="edge">
<title>Node6&#45;&gt;Node8</title>
<path fill="none" stroke="midnightblue" d="M564.8,-112.08C564.8,-105.01 564.8,-94.86 564.8,-85.99"/>
<polygon fill="midnightblue" stroke="midnightblue" points="568.3,-85.75 564.8,-75.75 561.3,-85.75 568.3,-85.75"/>
</g>
<!-- Node7&#45;&gt;Node3 -->
<g id="edge9" class="edge">
<title>Node7&#45;&gt;Node3</title>
<path fill="none" stroke="midnightblue" d="M453.75,-56.08C457.9,-48.61 463.95,-37.72 469.07,-28.52"/>
<polygon fill="midnightblue" stroke="midnightblue" points="472.14,-30.19 473.94,-19.75 466.02,-26.79 472.14,-30.19"/>
</g>
<!-- Node10 -->
<g id="node10" class="node">
<title>Node10</title>
<g id="a_node10"><a xlink:href="mxlist_8h.html" target="_top" xlink:title=" ">
<polygon fill="none" stroke="black" points="755.8,-112.5 755.8,-131.5 805.8,-131.5 805.8,-112.5 755.8,-112.5"/>
<text text-anchor="middle" x="780.8" y="-119.5" font-family="Helvetica,sans-Serif" font-size="10.00">mxlist.h</text>
</a>
</g>
</g>
<!-- Node9&#45;&gt;Node10 -->
<g id="edge13" class="edge">
<title>Node9&#45;&gt;Node10</title>
<path fill="none" stroke="midnightblue" d="M687.63,-168.32C705.52,-159.62 733.27,-146.12 753.84,-136.11"/>
<polygon fill="midnightblue" stroke="midnightblue" points="755.55,-139.18 763.01,-131.65 752.49,-132.88 755.55,-139.18"/>
</g>
<!-- Node10&#45;&gt;Node3 -->
<g id="edge14" class="edge">
<title>Node10&#45;&gt;Node3</title>
<path fill="none" stroke="midnightblue" d="M767.04,-112.49C744.53,-98.89 698.08,-72.12 655.8,-56 610.9,-38.88 557.14,-26.26 520.73,-18.81"/>
<polygon fill="midnightblue" stroke="midnightblue" points="520.98,-15.29 510.49,-16.76 519.6,-22.16 520.98,-15.29"/>
</g>
<!-- Node11 -->
<g id="node11" class="node">
<title>Node11</title>
<g id="a_node11"><a xlink:href="mxrefcounter_8h.html" target="_top" xlink:title=" ">
<polygon fill="none" stroke="black" points="740.8,-56.5 740.8,-75.5 820.8,-75.5 820.8,-56.5 740.8,-56.5"/>
<text text-anchor="middle" x="780.8" y="-63.5" font-family="Helvetica,sans-Serif" font-size="10.00">mxrefcounter.h</text>
</a>
</g>
</g>
<!-- Node10&#45;&gt;Node11 -->
<g id="edge15" class="edge">
<title>Node10&#45;&gt;Node11</title>
<path fill="none" stroke="midnightblue" d="M780.8,-112.08C780.8,-105.01 780.8,-94.86 780.8,-85.99"/>
<polygon fill="midnightblue" stroke="midnightblue" points="784.3,-85.75 780.8,-75.75 777.3,-85.75 784.3,-85.75"/>
</g>
<!-- Node12 -->
<g id="node12" class="node">
<title>Node12</title>
<g id="a_node12"><a xlink:title=" ">
<polygon fill="none" stroke="#bfbfbf" points="1133.3,-0.5 1133.3,-19.5 1180.3,-19.5 1180.3,-0.5 1133.3,-0.5"/>
<text text-anchor="middle" x="1156.8" y="-7.5" font-family="Helvetica,sans-Serif" font-size="10.00">stdlib.h</text>
</a>
</g>
</g>
<!-- Node10&#45;&gt;Node12 -->
<g id="edge16" class="edge">
<title>Node10&#45;&gt;Node12</title>
<path fill="none" stroke="midnightblue" d="M806,-118.46C876.8,-111.2 1074.03,-89.93 1099.8,-76 1120.14,-65.01 1136.64,-43.71 1146.55,-28.49"/>
<polygon fill="midnightblue" stroke="midnightblue" points="1149.56,-30.29 1151.85,-19.94 1143.61,-26.6 1149.56,-30.29"/>
</g>
<!-- Node13 -->
<g id="node13" class="node">
<title>Node13</title>
<g id="a_node13"><a xlink:title=" ">
<polygon fill="none" stroke="#bfbfbf" points="1022.8,-0.5 1022.8,-19.5 1070.8,-19.5 1070.8,-0.5 1022.8,-0.5"/>
<text text-anchor="middle" x="1046.8" y="-7.5" font-family="Helvetica,sans-Serif" font-size="10.00">string.h</text>
</a>
</g>
</g>
<!-- Node10&#45;&gt;Node13 -->
<g id="edge17" class="edge">
<title>Node10&#45;&gt;Node13</title>
<path fill="none" stroke="midnightblue" d="M766,-112.3C746.13,-99.55 715.13,-75.22 731.8,-56 767.85,-14.43 938.53,-10.31 1012.49,-10.52"/>
<polygon fill="midnightblue" stroke="midnightblue" points="1012.65,-14.02 1022.67,-10.58 1012.69,-7.03 1012.65,-14.02"/>
</g>
<!-- Node14 -->
<g id="node14" class="node">
<title>Node14</title>
<g id="a_node14"><a xlink:title=" ">
<polygon fill="none" stroke="#bfbfbf" points="611.3,-56.5 611.3,-75.5 646.3,-75.5 646.3,-56.5 611.3,-56.5"/>
<text text-anchor="middle" x="628.8" y="-63.5" font-family="Helvetica,sans-Serif" font-size="10.00">new</text>
</a>
</g>
</g>
<!-- Node10&#45;&gt;Node14 -->
<g id="edge18" class="edge">
<title>Node10&#45;&gt;Node14</title>
<path fill="none" stroke="midnightblue" d="M756.71,-112.44C729.43,-102.75 685.04,-86.98 656.38,-76.8"/>
<polygon fill="midnightblue" stroke="midnightblue" points="657.19,-73.37 646.6,-73.32 654.85,-79.97 657.19,-73.37"/>
</g>
<!-- Node15&#45;&gt;Node6 -->
<g id="edge20" class="edge">
<title>Node15&#45;&gt;Node6</title>
<path fill="none" stroke="midnightblue" d="M564.8,-168.08C564.8,-161.01 564.8,-150.86 564.8,-141.99"/>
<polygon fill="midnightblue" stroke="midnightblue" points="568.3,-141.75 564.8,-131.75 561.3,-141.75 568.3,-141.75"/>
</g>
<!-- Node15&#45;&gt;Node10 -->
<g id="edge21" class="edge">
<title>Node15&#45;&gt;Node10</title>
<path fill="none" stroke="midnightblue" d="M599.03,-168.44C639.16,-158.41 705.34,-141.87 745.8,-131.75"/>
<polygon fill="midnightblue" stroke="midnightblue" points="746.65,-135.14 755.51,-129.32 744.96,-128.35 746.65,-135.14"/>
</g>
<!-- Node17 -->
<g id="node17" class="node">
<title>Node17</title>
<g id="a_node17"><a xlink:href="mxgenericstring_8h.html" target="_top" xlink:title=" ">
<polygon fill="none" stroke="black" points="891.8,-112.5 891.8,-131.5 983.8,-131.5 983.8,-112.5 891.8,-112.5"/>
<text text-anchor="middle" x="937.8" y="-119.5" font-family="Helvetica,sans-Serif" font-size="10.00">mxgenericstring.h</text>
</a>
</g>
</g>
<!-- Node16&#45;&gt;Node17 -->
<g id="edge23" class="edge">
<title>Node16&#45;&gt;Node17</title>
<path fill="none" stroke="midnightblue" d="M937.8,-168.08C937.8,-161.01 937.8,-150.86 937.8,-141.99"/>
<polygon fill="midnightblue" stroke="midnightblue" points="941.3,-141.75 937.8,-131.75 934.3,-141.75 941.3,-141.75"/>
</g>
<!-- Node17&#45;&gt;Node3 -->
<g id="edge24" class="edge">
<title>Node17&#45;&gt;Node3</title>
<path fill="none" stroke="midnightblue" d="M924.04,-112.28C897.26,-95.38 839.88,-59.5 829.8,-56 722.94,-18.84 588.2,-11.86 520.98,-10.86"/>
<polygon fill="midnightblue" stroke="midnightblue" points="520.82,-7.36 510.78,-10.75 520.74,-14.36 520.82,-7.36"/>
</g>
<!-- Node17&#45;&gt;Node11 -->
<g id="edge25" class="edge">
<title>Node17&#45;&gt;Node11</title>
<path fill="none" stroke="midnightblue" d="M912.92,-112.44C886.51,-103.36 844.58,-88.94 815.06,-78.78"/>
<polygon fill="midnightblue" stroke="midnightblue" points="816.15,-75.46 805.56,-75.52 813.88,-82.08 816.15,-75.46"/>
</g>
<!-- Node17&#45;&gt;Node12 -->
<g id="edge32" class="edge">
<title>Node17&#45;&gt;Node12</title>
<path fill="none" stroke="midnightblue" d="M984.04,-118.82C1045.09,-114.87 1147.59,-104.12 1170.8,-76 1181.78,-62.69 1175.16,-42.76 1167.76,-28.48"/>
<polygon fill="midnightblue" stroke="midnightblue" points="1170.71,-26.59 1162.71,-19.65 1164.63,-30.06 1170.71,-26.59"/>
</g>
<!-- Node17&#45;&gt;Node13 -->
<g id="edge33" class="edge">
<title>Node17&#45;&gt;Node13</title>
<path fill="none" stroke="midnightblue" d="M983.9,-114.47C1026.66,-107.36 1085.76,-94.47 1099.8,-76 1113.4,-58.11 1091.33,-38.16 1071.66,-25.14"/>
<polygon fill="midnightblue" stroke="midnightblue" points="1073.26,-22.01 1062.93,-19.68 1069.55,-27.95 1073.26,-22.01"/>
</g>
<!-- Node18 -->
<g id="node18" class="node">
<title>Node18</title>
<g id="a_node18"><a xlink:href="mxbytearrayref_8h.html" target="_top" xlink:title=" ">
<polygon fill="none" stroke="black" points="1003.3,-56.5 1003.3,-75.5 1090.3,-75.5 1090.3,-56.5 1003.3,-56.5"/>
<text text-anchor="middle" x="1046.8" y="-63.5" font-family="Helvetica,sans-Serif" font-size="10.00">mxbytearrayref.h</text>
</a>
</g>
</g>
<!-- Node17&#45;&gt;Node18 -->
<g id="edge26" class="edge">
<title>Node17&#45;&gt;Node18</title>
<path fill="none" stroke="midnightblue" d="M955.31,-112.32C972.87,-103.62 1000.13,-90.12 1020.33,-80.11"/>
<polygon fill="midnightblue" stroke="midnightblue" points="1021.92,-83.23 1029.33,-75.65 1018.82,-76.96 1021.92,-83.23"/>
</g>
<!-- Node19 -->
<g id="node19" class="node">
<title>Node19</title>
<g id="a_node19"><a xlink:href="mxgenericsubstring_8h.html" target="_top" xlink:title=" ">
<polygon fill="none" stroke="black" points="876.8,-56.5 876.8,-75.5 984.8,-75.5 984.8,-56.5 876.8,-56.5"/>
<text text-anchor="middle" x="930.8" y="-63.5" font-family="Helvetica,sans-Serif" font-size="10.00">mxgenericsubstring.h</text>
</a>
</g>
</g>
<!-- Node17&#45;&gt;Node19 -->
<g id="edge30" class="edge">
<title>Node17&#45;&gt;Node19</title>
<path fill="none" stroke="midnightblue" d="M936.64,-112.08C935.72,-104.93 934.38,-94.64 933.22,-85.69"/>
<polygon fill="midnightblue" stroke="midnightblue" points="936.69,-85.22 931.93,-75.75 929.75,-86.12 936.69,-85.22"/>
</g>
<!-- Node18&#45;&gt;Node3 -->
<g id="edge27" class="edge">
<title>Node18&#45;&gt;Node3</title>
<path fill="none" stroke="midnightblue" d="M1003.17,-57.3C1000,-56.83 996.85,-56.39 993.8,-56 818.65,-33.51 608.52,-19.01 520.64,-13.5"/>
<polygon fill="midnightblue" stroke="midnightblue" points="520.74,-10 510.54,-12.87 520.3,-16.99 520.74,-10"/>
</g>
<!-- Node18&#45;&gt;Node12 -->
<g id="edge28" class="edge">
<title>Node18&#45;&gt;Node12</title>
<path fill="none" stroke="midnightblue" d="M1064.47,-56.32C1082.19,-47.62 1109.7,-34.12 1130.09,-24.11"/>
<polygon fill="midnightblue" stroke="midnightblue" points="1131.74,-27.2 1139.17,-19.65 1128.65,-20.92 1131.74,-27.2"/>
</g>
<!-- Node18&#45;&gt;Node13 -->
<g id="edge29" class="edge">
<title>Node18&#45;&gt;Node13</title>
<path fill="none" stroke="midnightblue" d="M1046.8,-56.08C1046.8,-49.01 1046.8,-38.86 1046.8,-29.99"/>
<polygon fill="midnightblue" stroke="midnightblue" points="1050.3,-29.75 1046.8,-19.75 1043.3,-29.75 1050.3,-29.75"/>
</g>
<!-- Node19&#45;&gt;Node3 -->
<g id="edge31" class="edge">
<title>Node19&#45;&gt;Node3</title>
<path fill="none" stroke="midnightblue" d="M876.62,-57.75C871.95,-57.15 867.29,-56.56 862.8,-56 738.62,-40.51 591.66,-23.71 520.95,-15.73"/>
<polygon fill="midnightblue" stroke="midnightblue" points="521.01,-12.22 510.68,-14.57 520.22,-19.17 521.01,-12.22"/>
</g>
<!-- Node20&#45;&gt;Node3 -->
<g id="edge35" class="edge">
<title>Node20&#45;&gt;Node3</title>
<path fill="none" stroke="midnightblue" d="M689.73,-341.24C604.31,-329.41 378.99,-284.2 321.8,-132 300.32,-74.83 384.06,-38.78 437.46,-22.04"/>
<polygon fill="midnightblue" stroke="midnightblue" points="438.49,-25.38 447.05,-19.14 436.47,-18.68 438.49,-25.38"/>
</g>
<!-- Node20&#45;&gt;Node10 -->
<g id="edge38" class="edge">
<title>Node20&#45;&gt;Node10</title>
<path fill="none" stroke="midnightblue" d="M756.21,-337.53C759.11,-336.98 762,-336.46 764.8,-336 834.11,-324.63 1027.4,-347.86 1078.8,-300 1115.86,-265.49 1095.11,-238.43 1099.8,-188 1100.62,-179.15 1105.63,-174.71 1099.8,-168 1090.54,-157.34 897.4,-135.5 816.24,-126.75"/>
<polygon fill="midnightblue" stroke="midnightblue" points="816.32,-123.24 806.01,-125.65 815.58,-130.2 816.32,-123.24"/>
</g>
<!-- Node21 -->
<g id="node21" class="node">
<title>Node21</title>
<g id="a_node21"><a xlink:href="mxvectordraw_8h.html" target="_top" xlink:title=" ">
<polygon fill="none" stroke="black" points="727.3,-168.5 727.3,-187.5 812.3,-187.5 812.3,-168.5 727.3,-168.5"/>
<text text-anchor="middle" x="769.8" y="-175.5" font-family="Helvetica,sans-Serif" font-size="10.00">mxvectordraw.h</text>
</a>
</g>
</g>
<!-- Node20&#45;&gt;Node21 -->
<g id="edge36" class="edge">
<title>Node20&#45;&gt;Node21</title>
<path fill="none" stroke="midnightblue" d="M719.21,-336.44C711.1,-315.7 693.62,-261.7 713.8,-224 720.67,-211.16 732.93,-200.67 744.23,-193.06"/>
<polygon fill="midnightblue" stroke="midnightblue" points="746.35,-195.86 752.96,-187.58 742.63,-189.93 746.35,-195.86"/>
</g>
<!-- Node22 -->
<g id="node22" class="node">
<title>Node22</title>
<g id="a_node22"><a xlink:href="mxtextdraw_8h.html" target="_top" xlink:title=" ">
<polygon fill="none" stroke="black" points="861.8,-224.5 861.8,-243.5 935.8,-243.5 935.8,-224.5 861.8,-224.5"/>
<text text-anchor="middle" x="898.8" y="-231.5" font-family="Helvetica,sans-Serif" font-size="10.00">mxtextdraw.h</text>
</a>
</g>
</g>
<!-- Node20&#45;&gt;Node22 -->
<g id="edge39" class="edge">
<title>Node20&#45;&gt;Node22</title>
<path fill="none" stroke="midnightblue" d="M738.96,-336.42C755.28,-327.63 781.11,-313.41 802.8,-300 829.55,-283.46 859.41,-262.9 878.62,-249.38"/>
<polygon fill="midnightblue" stroke="midnightblue" points="880.74,-252.17 886.89,-243.53 876.7,-246.45 880.74,-252.17"/>
</g>
<!-- Node23 -->
<g id="node23" class="node">
<title>Node23</title>
<g id="a_node23"><a xlink:href="mxicondraw_8h.html" target="_top" xlink:title=" ">
<polygon fill="none" stroke="black" points="717.8,-280.5 717.8,-299.5 793.8,-299.5 793.8,-280.5 717.8,-280.5"/>
<text text-anchor="middle" x="755.8" y="-287.5" font-family="Helvetica,sans-Serif" font-size="10.00">mxicondraw.h</text>
</a>
</g>
</g>
<!-- Node20&#45;&gt;Node23 -->
<g id="edge43" class="edge">
<title>Node20&#45;&gt;Node23</title>
<path fill="none" stroke="midnightblue" d="M728.25,-336.08C732.81,-328.61 739.47,-317.72 745.09,-308.52"/>
<polygon fill="midnightblue" stroke="midnightblue" points="748.22,-310.11 750.45,-299.75 742.25,-306.46 748.22,-310.11"/>
</g>
<!-- Node25 -->
<g id="node25" class="node">
<title>Node25</title>
<g id="a_node25"><a xlink:href="mxstaticfont_8h.html" target="_top" xlink:title=" ">
<polygon fill="none" stroke="black" points="992.3,-280.5 992.3,-299.5 1069.3,-299.5 1069.3,-280.5 992.3,-280.5"/>
<text text-anchor="middle" x="1030.8" y="-287.5" font-family="Helvetica,sans-Serif" font-size="10.00">mxstaticfont.h</text>
</a>
</g>
</g>
<!-- Node20&#45;&gt;Node25 -->
<g id="edge46" class="edge">
<title>Node20&#45;&gt;Node25</title>
<path fill="none" stroke="midnightblue" d="M756.24,-337.7C759.13,-337.11 762.02,-336.53 764.8,-336 859.09,-317.94 883.14,-316.04 977.8,-300 979.09,-299.78 980.41,-299.56 981.73,-299.33"/>
<polygon fill="midnightblue" stroke="midnightblue" points="982.74,-302.71 992.01,-297.59 981.57,-295.81 982.74,-302.71"/>
</g>
<!-- Node21&#45;&gt;Node6 -->
<g id="edge37" class="edge">
<title>Node21&#45;&gt;Node6</title>
<path fill="none" stroke="midnightblue" d="M737.32,-168.44C700.32,-158.7 640,-142.81 601.38,-132.64"/>
<polygon fill="midnightblue" stroke="midnightblue" points="602.14,-129.22 591.58,-130.05 600.36,-135.99 602.14,-129.22"/>
</g>
<!-- Node22&#45;&gt;Node6 -->
<g id="edge42" class="edge">
<title>Node22&#45;&gt;Node6</title>
<path fill="none" stroke="midnightblue" d="M895.53,-224.12C889.73,-209.73 876.21,-181.57 854.8,-168 813.34,-141.72 669.99,-129.51 601.63,-125.07"/>
<polygon fill="midnightblue" stroke="midnightblue" points="601.52,-121.56 591.33,-124.43 601.09,-128.55 601.52,-121.56"/>
</g>
<!-- Node22&#45;&gt;Node7 -->
<g id="edge40" class="edge">
<title>Node22&#45;&gt;Node7</title>
<path fill="none" stroke="midnightblue" d="M861.69,-225.44C858.69,-224.92 855.7,-224.43 852.8,-224 776.57,-212.59 570.96,-232.19 507.8,-188 472.96,-163.62 457.84,-112.78 452.01,-85.4"/>
<polygon fill="midnightblue" stroke="midnightblue" points="455.44,-84.7 450.1,-75.55 448.57,-86.04 455.44,-84.7"/>
</g>
<!-- Node22&#45;&gt;Node16 -->
<g id="edge41" class="edge">
<title>Node22&#45;&gt;Node16</title>
<path fill="none" stroke="midnightblue" d="M905.24,-224.08C910.75,-216.46 918.83,-205.26 925.56,-195.94"/>
<polygon fill="midnightblue" stroke="midnightblue" points="928.46,-197.91 931.48,-187.75 922.79,-193.81 928.46,-197.91"/>
</g>
<!-- Node23&#45;&gt;Node6 -->
<g id="edge45" class="edge">
<title>Node23&#45;&gt;Node6</title>
<path fill="none" stroke="midnightblue" d="M751.43,-280.24C745.5,-267 736.82,-241.54 747.8,-224 767.2,-192.99 802.4,-219.01 821.8,-188 826.51,-180.46 827.52,-174.81 821.8,-168 794.13,-135.06 666.06,-126.23 601.79,-123.86"/>
<polygon fill="midnightblue" stroke="midnightblue" points="601.79,-120.36 591.68,-123.53 601.56,-127.36 601.79,-120.36"/>
</g>
<!-- Node24 -->
<g id="node24" class="node">
<title>Node24</title>
<g id="a_node24"><a xlink:href="mxthemeicons_8h.html" target="_top" xlink:title=" ">
<polygon fill="none" stroke="black" points="756.3,-224.5 756.3,-243.5 843.3,-243.5 843.3,-224.5 756.3,-224.5"/>
<text text-anchor="middle" x="799.8" y="-231.5" font-family="Helvetica,sans-Serif" font-size="10.00">mxthemeicons.h</text>
</a>
</g>
</g>
<!-- Node23&#45;&gt;Node24 -->
<g id="edge44" class="edge">
<title>Node23&#45;&gt;Node24</title>
<path fill="none" stroke="midnightblue" d="M763.06,-280.08C769.34,-272.38 778.59,-261.03 786.23,-251.65"/>
<polygon fill="midnightblue" stroke="midnightblue" points="789.07,-253.71 792.67,-243.75 783.64,-249.29 789.07,-253.71"/>
</g>
<!-- Node25&#45;&gt;Node26 -->
<g id="edge47" class="edge">
<title>Node25&#45;&gt;Node26</title>
<path fill="none" stroke="midnightblue" d="M1030.8,-280.08C1030.8,-273.01 1030.8,-262.86 1030.8,-253.99"/>
<polygon fill="midnightblue" stroke="midnightblue" points="1034.3,-253.75 1030.8,-243.75 1027.3,-253.75 1034.3,-253.75"/>
</g>
<!-- Node26&#45;&gt;Node7 -->
<g id="edge48" class="edge">
<title>Node26&#45;&gt;Node7</title>
<path fill="none" stroke="midnightblue" d="M1026.35,-224.1C1018.63,-209.68 1001.29,-181.47 977.8,-168 887.66,-116.31 848.94,-151.08 746.8,-132 654.98,-114.85 548.2,-90.47 490.68,-76.97"/>
<polygon fill="midnightblue" stroke="midnightblue" points="491.4,-73.54 480.86,-74.66 489.79,-80.36 491.4,-73.54"/>
</g>
<!-- Node26&#45;&gt;Node16 -->
<g id="edge49" class="edge">
<title>Node26&#45;&gt;Node16</title>
<path fill="none" stroke="midnightblue" d="M1015.86,-224.32C1001.21,-215.82 978.67,-202.73 961.56,-192.8"/>
<polygon fill="midnightblue" stroke="midnightblue" points="963.11,-189.65 952.7,-187.65 959.59,-195.7 963.11,-189.65"/>
</g>
<!-- Node27 -->
<g id="node27" class="node">
<title>Node27</title>
<g id="a_node27"><a xlink:title=" ">
<polygon fill="none" stroke="#bfbfbf" points="1025.3,-168.5 1025.3,-187.5 1090.3,-187.5 1090.3,-168.5 1025.3,-168.5"/>
<text text-anchor="middle" x="1057.8" y="-175.5" font-family="Helvetica,sans-Serif" font-size="10.00">mxopengl.h</text>
</a>
</g>
</g>
<!-- Node26&#45;&gt;Node27 -->
<g id="edge50" class="edge">
<title>Node26&#45;&gt;Node27</title>
<path fill="none" stroke="midnightblue" d="M1035.26,-224.08C1038.95,-216.69 1044.32,-205.95 1048.89,-196.81"/>
<polygon fill="midnightblue" stroke="midnightblue" points="1052.08,-198.26 1053.42,-187.75 1045.82,-195.13 1052.08,-198.26"/>
</g>
<!-- Node28&#45;&gt;Node7 -->
<g id="edge53" class="edge">
<title>Node28&#45;&gt;Node7</title>
<path fill="none" stroke="midnightblue" d="M181.67,-336.37C193.36,-302.55 240.64,-177.69 321.8,-112 346.31,-92.16 380.21,-80.74 406.82,-74.37"/>
<polygon fill="midnightblue" stroke="midnightblue" points="407.64,-77.78 416.63,-72.17 406.11,-70.95 407.64,-77.78"/>
</g>
<!-- Node29 -->
<g id="node29" class="node">
<title>Node29</title>
<g id="a_node29"><a xlink:title=" ">
<polygon fill="none" stroke="#bfbfbf" points="12.8,-280.5 12.8,-299.5 150.8,-299.5 150.8,-280.5 12.8,-280.5"/>
<text text-anchor="middle" x="81.8" y="-287.5" font-family="Helvetica,sans-Serif" font-size="10.00">mxmouseeventabstraction.h</text>
</a>
</g>
</g>
<!-- Node28&#45;&gt;Node29 -->
<g id="edge54" class="edge">
<title>Node28&#45;&gt;Node29</title>
<path fill="none" stroke="midnightblue" d="M163.21,-336.32C147.8,-327.74 123.99,-314.49 106.09,-304.52"/>
<polygon fill="midnightblue" stroke="midnightblue" points="107.79,-301.46 97.35,-299.65 104.38,-307.58 107.79,-301.46"/>
</g>
<!-- Node30&#45;&gt;Node3 -->
<g id="edge56" class="edge">
<title>Node30&#45;&gt;Node3</title>
<path fill="none" stroke="midnightblue" d="M53.09,-224.09C64.56,-194.42 105.91,-98.37 174.8,-56 217.95,-29.46 364.38,-17.53 437.11,-13.14"/>
<polygon fill="midnightblue" stroke="midnightblue" points="437.5,-16.63 447.28,-12.55 437.09,-9.64 437.5,-16.63"/>
</g>
<!-- Node32&#45;&gt;Node7 -->
<g id="edge59" class="edge">
<title>Node32&#45;&gt;Node7</title>
<path fill="none" stroke="midnightblue" d="M387.53,-112.32C398.64,-104.11 415.54,-91.6 428.78,-81.81"/>
<polygon fill="midnightblue" stroke="midnightblue" points="430.9,-84.59 436.86,-75.83 426.74,-78.97 430.9,-84.59"/>
</g>
</g>
</svg>
