<?xml version="1.0" encoding="UTF-8" standalone="no"?>
<!DOCTYPE svg PUBLIC "-//W3C//DTD SVG 1.1//EN"
 "http://www.w3.org/Graphics/SVG/1.1/DTD/svg11.dtd">
<!-- Generated by graphviz version 2.44.0 ()
 -->
<!-- Title: src/iconatlas/mxthemeicons.h Pages: 1 -->
<svg width="686pt" height="330pt"
 viewBox="0.00 0.00 686.00 330.00" xmlns="http://www.w3.org/2000/svg" xmlns:xlink="http://www.w3.org/1999/xlink">
<g id="graph0" class="graph" transform="scale(1 1) rotate(0) translate(4 326)">
<title>src/iconatlas/mxthemeicons.h</title>
<!-- Node1 -->
<g id="node1" class="node">
<title>Node1</title>
<g id="a_node1"><a xlink:title=" ">
<polygon fill="#bfbfbf" stroke="black" points="312.5,-302.5 312.5,-321.5 458.5,-321.5 458.5,-302.5 312.5,-302.5"/>
<text text-anchor="middle" x="385.5" y="-309.5" font-family="Helvetica,sans-Serif" font-size="10.00">src/iconatlas/mxthemeicons.h</text>
</a>
</g>
</g>
<!-- Node2 -->
<g id="node2" class="node">
<title>Node2</title>
<g id="a_node2"><a xlink:href="mxicondraw_8h.html" target="_top" xlink:title=" ">
<polygon fill="none" stroke="black" points="230.5,-246.5 230.5,-265.5 380.5,-265.5 380.5,-246.5 230.5,-246.5"/>
<text text-anchor="middle" x="305.5" y="-253.5" font-family="Helvetica,sans-Serif" font-size="10.00">src/gui/icondraw/mxicondraw.h</text>
</a>
</g>
</g>
<!-- Node1&#45;&gt;Node2 -->
<g id="edge1" class="edge">
<title>Node1&#45;&gt;Node2</title>
<path fill="none" stroke="midnightblue" d="M364.2,-296.62C349.58,-286.76 330.67,-273.99 318.32,-265.65"/>
<polygon fill="midnightblue" stroke="midnightblue" points="362.4,-299.63 372.65,-302.32 366.32,-293.83 362.4,-299.63"/>
</g>
<!-- Node11 -->
<g id="node11" class="node">
<title>Node11</title>
<g id="a_node11"><a xlink:href="mxiconatlas_8h.html" target="_top" xlink:title=" ">
<polygon fill="none" stroke="black" points="437.5,-246.5 437.5,-265.5 571.5,-265.5 571.5,-246.5 437.5,-246.5"/>
<text text-anchor="middle" x="504.5" y="-253.5" font-family="Helvetica,sans-Serif" font-size="10.00">src/iconatlas/mxiconatlas.h</text>
</a>
</g>
</g>
<!-- Node1&#45;&gt;Node11 -->
<g id="edge11" class="edge">
<title>Node1&#45;&gt;Node11</title>
<path fill="none" stroke="midnightblue" d="M413.64,-298.23C435.9,-288.13 466.36,-274.31 485.73,-265.52"/>
<polygon fill="midnightblue" stroke="midnightblue" points="412.02,-295.12 404.36,-302.44 414.91,-301.5 412.02,-295.12"/>
</g>
<!-- Node3 -->
<g id="node3" class="node">
<title>Node3</title>
<g id="a_node3"><a xlink:href="mxicondraw_8cpp.html" target="_top" xlink:title=" ">
<polygon fill="none" stroke="black" points="0,-190.5 0,-209.5 161,-209.5 161,-190.5 0,-190.5"/>
<text text-anchor="middle" x="80.5" y="-197.5" font-family="Helvetica,sans-Serif" font-size="10.00">src/gui/icondraw/mxicondraw.cpp</text>
</a>
</g>
</g>
<!-- Node2&#45;&gt;Node3 -->
<g id="edge2" class="edge">
<title>Node2&#45;&gt;Node3</title>
<path fill="none" stroke="midnightblue" d="M260.03,-244.09C217.53,-233.89 154.92,-218.86 115.99,-209.52"/>
<polygon fill="midnightblue" stroke="midnightblue" points="259.31,-247.51 269.85,-246.44 260.94,-240.71 259.31,-247.51"/>
</g>
<!-- Node4 -->
<g id="node4" class="node">
<title>Node4</title>
<g id="a_node4"><a xlink:href="mxiconprogram_8cpp.html" target="_top" xlink:title=" ">
<polygon fill="none" stroke="black" points="179,-190.5 179,-209.5 354,-209.5 354,-190.5 179,-190.5"/>
<text text-anchor="middle" x="266.5" y="-197.5" font-family="Helvetica,sans-Serif" font-size="10.00">src/gui/icondraw/mxiconprogram.cpp</text>
</a>
</g>
</g>
<!-- Node2&#45;&gt;Node4 -->
<g id="edge3" class="edge">
<title>Node2&#45;&gt;Node4</title>
<path fill="none" stroke="midnightblue" d="M293.12,-237.86C286.36,-228.5 278.29,-217.33 272.82,-209.75"/>
<polygon fill="midnightblue" stroke="midnightblue" points="290.37,-240.03 299.06,-246.08 296.04,-235.93 290.37,-240.03"/>
</g>
<!-- Node5 -->
<g id="node5" class="node">
<title>Node5</title>
<g id="a_node5"><a xlink:href="mxpainter_8h.html" target="_top" xlink:title=" ">
<polygon fill="none" stroke="black" points="372.5,-190.5 372.5,-209.5 470.5,-209.5 470.5,-190.5 372.5,-190.5"/>
<text text-anchor="middle" x="421.5" y="-197.5" font-family="Helvetica,sans-Serif" font-size="10.00">src/gui/mxpainter.h</text>
</a>
</g>
</g>
<!-- Node2&#45;&gt;Node5 -->
<g id="edge4" class="edge">
<title>Node2&#45;&gt;Node5</title>
<path fill="none" stroke="midnightblue" d="M333.22,-242.1C354.89,-232.01 384.4,-218.27 403.21,-209.52"/>
<polygon fill="midnightblue" stroke="midnightblue" points="331.47,-239.05 323.88,-246.44 334.42,-245.4 331.47,-239.05"/>
</g>
<!-- Node6 -->
<g id="node6" class="node">
<title>Node6</title>
<g id="a_node6"><a xlink:href="mxapplication_8h.html" target="_top" xlink:title=" ">
<polygon fill="none" stroke="black" points="216.5,-134.5 216.5,-153.5 348.5,-153.5 348.5,-134.5 216.5,-134.5"/>
<text text-anchor="middle" x="282.5" y="-141.5" font-family="Helvetica,sans-Serif" font-size="10.00">src/events/mxapplication.h</text>
</a>
</g>
</g>
<!-- Node5&#45;&gt;Node6 -->
<g id="edge5" class="edge">
<title>Node5&#45;&gt;Node6</title>
<path fill="none" stroke="midnightblue" d="M390.02,-186.77C363.91,-176.63 327.46,-162.47 304.42,-153.52"/>
<polygon fill="midnightblue" stroke="midnightblue" points="388.89,-190.08 399.48,-190.44 391.42,-183.56 388.89,-190.08"/>
</g>
<!-- Node10 -->
<g id="node10" class="node">
<title>Node10</title>
<g id="a_node10"><a xlink:href="mxpainter_8cpp.html" target="_top" xlink:title=" ">
<polygon fill="none" stroke="black" points="367,-134.5 367,-153.5 476,-153.5 476,-134.5 367,-134.5"/>
<text text-anchor="middle" x="421.5" y="-141.5" font-family="Helvetica,sans-Serif" font-size="10.00">src/gui/mxpainter.cpp</text>
</a>
</g>
</g>
<!-- Node5&#45;&gt;Node10 -->
<g id="edge10" class="edge">
<title>Node5&#45;&gt;Node10</title>
<path fill="none" stroke="midnightblue" d="M421.5,-179.8C421.5,-170.91 421.5,-160.78 421.5,-153.75"/>
<polygon fill="midnightblue" stroke="midnightblue" points="418,-180.08 421.5,-190.08 425,-180.08 418,-180.08"/>
</g>
<!-- Node7 -->
<g id="node7" class="node">
<title>Node7</title>
<g id="a_node7"><a xlink:href="mxapplication_8cpp.html" target="_top" xlink:title=" ">
<polygon fill="none" stroke="black" points="161,-73 161,-92 304,-92 304,-73 161,-73"/>
<text text-anchor="middle" x="232.5" y="-80" font-family="Helvetica,sans-Serif" font-size="10.00">src/events/mxapplication.cpp</text>
</a>
</g>
</g>
<!-- Node6&#45;&gt;Node7 -->
<g id="edge6" class="edge">
<title>Node6&#45;&gt;Node7</title>
<path fill="none" stroke="midnightblue" d="M268.78,-126.67C259.35,-115.45 247.22,-101.02 239.65,-92.01"/>
<polygon fill="midnightblue" stroke="midnightblue" points="266.22,-129.07 275.34,-134.48 271.58,-124.57 266.22,-129.07"/>
</g>
<!-- Node8 -->
<g id="node8" class="node">
<title>Node8</title>
<g id="a_node8"><a xlink:href="qmewawindow_8cpp.html" target="_top" xlink:title=" ">
<polygon fill="none" stroke="black" points="317.5,-0.5 317.5,-30.5 433.5,-30.5 433.5,-0.5 317.5,-0.5"/>
<text text-anchor="start" x="325.5" y="-18.5" font-family="Helvetica,sans-Serif" font-size="10.00">src/platformabstraction</text>
<text text-anchor="middle" x="375.5" y="-7.5" font-family="Helvetica,sans-Serif" font-size="10.00">/qt/qmewawindow.cpp</text>
</a>
</g>
</g>
<!-- Node6&#45;&gt;Node8 -->
<g id="edge7" class="edge">
<title>Node6&#45;&gt;Node8</title>
<path fill="none" stroke="midnightblue" d="M294.9,-126.13C313.33,-101.07 347.61,-54.43 364.92,-30.89"/>
<polygon fill="midnightblue" stroke="midnightblue" points="292,-124.17 288.89,-134.31 297.64,-128.32 292,-124.17"/>
</g>
<!-- Node9 -->
<g id="node9" class="node">
<title>Node9</title>
<g id="a_node9"><a xlink:href="qmewawindow_8h.html" target="_top" xlink:title=" ">
<polygon fill="none" stroke="black" points="360.5,-67.5 360.5,-97.5 476.5,-97.5 476.5,-67.5 360.5,-67.5"/>
<text text-anchor="start" x="368.5" y="-85.5" font-family="Helvetica,sans-Serif" font-size="10.00">src/platformabstraction</text>
<text text-anchor="middle" x="418.5" y="-74.5" font-family="Helvetica,sans-Serif" font-size="10.00">/qt/qmewawindow.h</text>
</a>
</g>
</g>
<!-- Node6&#45;&gt;Node9 -->
<g id="edge8" class="edge">
<title>Node6&#45;&gt;Node9</title>
<path fill="none" stroke="midnightblue" d="M311.16,-130.46C333.19,-120.82 363.61,-107.51 386.45,-97.52"/>
<polygon fill="midnightblue" stroke="midnightblue" points="309.74,-127.26 301.99,-134.48 312.55,-133.67 309.74,-127.26"/>
</g>
<!-- Node9&#45;&gt;Node8 -->
<g id="edge9" class="edge">
<title>Node9&#45;&gt;Node8</title>
<path fill="none" stroke="midnightblue" d="M403.53,-58.87C397.3,-49.46 390.27,-38.83 384.81,-30.58"/>
<polygon fill="midnightblue" stroke="midnightblue" points="400.73,-60.99 409.17,-67.4 406.57,-57.12 400.73,-60.99"/>
</g>
<!-- Node11&#45;&gt;Node9 -->
<g id="edge13" class="edge">
<title>Node11&#45;&gt;Node9</title>
<path fill="none" stroke="midnightblue" d="M505.52,-236.03C505.99,-210.88 503.71,-165.99 484.5,-134 475.29,-118.66 459.52,-106.33 445.7,-97.7"/>
<polygon fill="midnightblue" stroke="midnightblue" points="502.01,-236.23 505.14,-246.35 509,-236.49 502.01,-236.23"/>
</g>
<!-- Node12 -->
<g id="node12" class="node">
<title>Node12</title>
<g id="a_node12"><a xlink:href="mxiconatlas_8cpp.html" target="_top" xlink:title=" ">
<polygon fill="none" stroke="black" points="533,-190.5 533,-209.5 678,-209.5 678,-190.5 533,-190.5"/>
<text text-anchor="middle" x="605.5" y="-197.5" font-family="Helvetica,sans-Serif" font-size="10.00">src/iconatlas/mxiconatlas.cpp</text>
</a>
</g>
</g>
<!-- Node11&#45;&gt;Node12 -->
<g id="edge12" class="edge">
<title>Node11&#45;&gt;Node12</title>
<path fill="none" stroke="midnightblue" d="M529.58,-241.59C548.26,-231.61 573.2,-218.27 589.31,-209.65"/>
<polygon fill="midnightblue" stroke="midnightblue" points="527.9,-238.52 520.73,-246.32 531.2,-244.7 527.9,-238.52"/>
</g>
</g>
</svg>
