<?xml version="1.0" encoding="UTF-8" standalone="no"?>
<!DOCTYPE svg PUBLIC "-//W3C//DTD SVG 1.1//EN"
 "http://www.w3.org/Graphics/SVG/1.1/DTD/svg11.dtd">
<!-- Generated by graphviz version 2.44.0 ()
 -->
<!-- Title: src/iconatlas/mxthemeicons.h Pages: 1 -->
<svg width="968pt" height="363pt"
 viewBox="0.00 0.00 967.50 363.00" xmlns="http://www.w3.org/2000/svg" xmlns:xlink="http://www.w3.org/1999/xlink">
<g id="graph0" class="graph" transform="scale(1 1) rotate(0) translate(4 359)">
<title>src/iconatlas/mxthemeicons.h</title>
<!-- Node1 -->
<g id="node1" class="node">
<title>Node1</title>
<g id="a_node1"><a xlink:title=" ">
<polygon fill="#bfbfbf" stroke="black" points="453,-335.5 453,-354.5 599,-354.5 599,-335.5 453,-335.5"/>
<text text-anchor="middle" x="526" y="-342.5" font-family="Helvetica,sans-Serif" font-size="10.00">src/iconatlas/mxthemeicons.h</text>
</a>
</g>
</g>
<!-- Node2 -->
<g id="node2" class="node">
<title>Node2</title>
<g id="a_node2"><a xlink:href="mxicondraw_8h.html" target="_top" xlink:title=" ">
<polygon fill="none" stroke="black" points="362,-279.5 362,-298.5 470,-298.5 470,-279.5 362,-279.5"/>
<text text-anchor="middle" x="416" y="-286.5" font-family="Helvetica,sans-Serif" font-size="10.00">src/gui/mxicondraw.h</text>
</a>
</g>
</g>
<!-- Node1&#45;&gt;Node2 -->
<g id="edge1" class="edge">
<title>Node1&#45;&gt;Node2</title>
<path fill="none" stroke="midnightblue" d="M499.24,-330.86C478.84,-320.85 451.33,-307.35 433.63,-298.65"/>
<polygon fill="midnightblue" stroke="midnightblue" points="497.81,-334.06 508.33,-335.32 500.89,-327.78 497.81,-334.06"/>
</g>
<!-- Node15 -->
<g id="node15" class="node">
<title>Node15</title>
<g id="a_node15"><a xlink:href="mxiconatlas_8h.html" target="_top" xlink:title=" ">
<polygon fill="none" stroke="black" points="570,-279.5 570,-298.5 704,-298.5 704,-279.5 570,-279.5"/>
<text text-anchor="middle" x="637" y="-286.5" font-family="Helvetica,sans-Serif" font-size="10.00">src/iconatlas/mxiconatlas.h</text>
</a>
</g>
</g>
<!-- Node1&#45;&gt;Node15 -->
<g id="edge15" class="edge">
<title>Node1&#45;&gt;Node15</title>
<path fill="none" stroke="midnightblue" d="M553.01,-330.86C573.59,-320.85 601.34,-307.35 619.21,-298.65"/>
<polygon fill="midnightblue" stroke="midnightblue" points="551.3,-327.8 543.83,-335.32 554.36,-334.1 551.3,-327.8"/>
</g>
<!-- Node3 -->
<g id="node3" class="node">
<title>Node3</title>
<g id="a_node3"><a xlink:href="mxicondraw_8cpp.html" target="_top" xlink:title=" ">
<polygon fill="none" stroke="black" points="356.5,-218 356.5,-237 475.5,-237 475.5,-218 356.5,-218"/>
<text text-anchor="middle" x="416" y="-225" font-family="Helvetica,sans-Serif" font-size="10.00">src/gui/mxicondraw.cpp</text>
</a>
</g>
</g>
<!-- Node2&#45;&gt;Node3 -->
<g id="edge2" class="edge">
<title>Node2&#45;&gt;Node3</title>
<path fill="none" stroke="midnightblue" d="M416,-269.32C416,-258.5 416,-245.4 416,-237.01"/>
<polygon fill="midnightblue" stroke="midnightblue" points="412.5,-269.48 416,-279.48 419.5,-269.48 412.5,-269.48"/>
</g>
<!-- Node4 -->
<g id="node4" class="node">
<title>Node4</title>
<g id="a_node4"><a xlink:href="mxpainter_8h.html" target="_top" xlink:title=" ">
<polygon fill="none" stroke="black" points="494,-218 494,-237 592,-237 592,-218 494,-218"/>
<text text-anchor="middle" x="543" y="-225" font-family="Helvetica,sans-Serif" font-size="10.00">src/gui/mxpainter.h</text>
</a>
</g>
</g>
<!-- Node2&#45;&gt;Node4 -->
<g id="edge3" class="edge">
<title>Node2&#45;&gt;Node4</title>
<path fill="none" stroke="midnightblue" d="M443.38,-275.17C468.02,-263.63 503.54,-246.99 524.84,-237.01"/>
<polygon fill="midnightblue" stroke="midnightblue" points="441.77,-272.06 434.2,-279.48 444.74,-278.4 441.77,-272.06"/>
</g>
<!-- Node13 -->
<g id="node13" class="node">
<title>Node13</title>
<g id="a_node13"><a xlink:href="direct12_2iconprogram_2mxiconprogram_8cpp.html" target="_top" xlink:title=" ">
<polygon fill="none" stroke="black" points="0,-212.5 0,-242.5 160,-242.5 160,-212.5 0,-212.5"/>
<text text-anchor="start" x="8" y="-230.5" font-family="Helvetica,sans-Serif" font-size="10.00">src/renderer/direct12</text>
<text text-anchor="middle" x="80" y="-219.5" font-family="Helvetica,sans-Serif" font-size="10.00">/iconprogram/mxiconprogram.cpp</text>
</a>
</g>
</g>
<!-- Node2&#45;&gt;Node13 -->
<g id="edge13" class="edge">
<title>Node2&#45;&gt;Node13</title>
<path fill="none" stroke="midnightblue" d="M357.94,-277.72C303.02,-267.99 220.15,-253.32 159.19,-242.52"/>
<polygon fill="midnightblue" stroke="midnightblue" points="357.4,-281.18 367.86,-279.48 358.62,-274.28 357.4,-281.18"/>
</g>
<!-- Node14 -->
<g id="node14" class="node">
<title>Node14</title>
<g id="a_node14"><a xlink:href="opengl_2iconprogram_2mxiconprogram_8cpp.html" target="_top" xlink:title=" ">
<polygon fill="none" stroke="black" points="178,-212.5 178,-242.5 338,-242.5 338,-212.5 178,-212.5"/>
<text text-anchor="start" x="186" y="-230.5" font-family="Helvetica,sans-Serif" font-size="10.00">src/renderer/opengl</text>
<text text-anchor="middle" x="258" y="-219.5" font-family="Helvetica,sans-Serif" font-size="10.00">/iconprogram/mxiconprogram.cpp</text>
</a>
</g>
</g>
<!-- Node2&#45;&gt;Node14 -->
<g id="edge14" class="edge">
<title>Node2&#45;&gt;Node14</title>
<path fill="none" stroke="midnightblue" d="M383.73,-275.85C358.06,-266.18 322.12,-252.65 295.24,-242.52"/>
<polygon fill="midnightblue" stroke="midnightblue" points="382.77,-279.23 393.36,-279.48 385.24,-272.68 382.77,-279.23"/>
</g>
<!-- Node5 -->
<g id="node5" class="node">
<title>Node5</title>
<g id="a_node5"><a xlink:href="mxapplication_8h.html" target="_top" xlink:title=" ">
<polygon fill="none" stroke="black" points="477,-156.5 477,-175.5 609,-175.5 609,-156.5 477,-156.5"/>
<text text-anchor="middle" x="543" y="-163.5" font-family="Helvetica,sans-Serif" font-size="10.00">src/events/mxapplication.h</text>
</a>
</g>
</g>
<!-- Node4&#45;&gt;Node5 -->
<g id="edge4" class="edge">
<title>Node4&#45;&gt;Node5</title>
<path fill="none" stroke="midnightblue" d="M543,-207.82C543,-197 543,-183.9 543,-175.51"/>
<polygon fill="midnightblue" stroke="midnightblue" points="539.5,-207.98 543,-217.98 546.5,-207.98 539.5,-207.98"/>
</g>
<!-- Node12 -->
<g id="node12" class="node">
<title>Node12</title>
<g id="a_node12"><a xlink:href="mxpainter_8cpp.html" target="_top" xlink:title=" ">
<polygon fill="none" stroke="black" points="349.5,-156.5 349.5,-175.5 458.5,-175.5 458.5,-156.5 349.5,-156.5"/>
<text text-anchor="middle" x="404" y="-163.5" font-family="Helvetica,sans-Serif" font-size="10.00">src/gui/mxpainter.cpp</text>
</a>
</g>
</g>
<!-- Node4&#45;&gt;Node12 -->
<g id="edge12" class="edge">
<title>Node4&#45;&gt;Node12</title>
<path fill="none" stroke="midnightblue" d="M513.75,-213.98C486.75,-202.42 447.4,-185.58 423.88,-175.51"/>
<polygon fill="midnightblue" stroke="midnightblue" points="512.51,-217.26 523.08,-217.98 515.27,-210.82 512.51,-217.26"/>
</g>
<!-- Node6 -->
<g id="node6" class="node">
<title>Node6</title>
<g id="a_node6"><a xlink:href="mxapplication_8cpp.html" target="_top" xlink:title=" ">
<polygon fill="none" stroke="black" points="417.5,-89.5 417.5,-108.5 560.5,-108.5 560.5,-89.5 417.5,-89.5"/>
<text text-anchor="middle" x="489" y="-96.5" font-family="Helvetica,sans-Serif" font-size="10.00">src/events/mxapplication.cpp</text>
</a>
</g>
</g>
<!-- Node5&#45;&gt;Node6 -->
<g id="edge5" class="edge">
<title>Node5&#45;&gt;Node6</title>
<path fill="none" stroke="midnightblue" d="M529.1,-148.27C518.57,-135.6 504.54,-118.7 496.17,-108.63"/>
<polygon fill="midnightblue" stroke="midnightblue" points="526.63,-150.78 535.72,-156.23 532.02,-146.31 526.63,-150.78"/>
</g>
<!-- Node7 -->
<g id="node7" class="node">
<title>Node7</title>
<g id="a_node7"><a xlink:href="qmewawindow_8cpp.html" target="_top" xlink:title=" ">
<polygon fill="none" stroke="black" points="455,-6 455,-36 571,-36 571,-6 455,-6"/>
<text text-anchor="start" x="463" y="-24" font-family="Helvetica,sans-Serif" font-size="10.00">src/platformabstraction</text>
<text text-anchor="middle" x="513" y="-13" font-family="Helvetica,sans-Serif" font-size="10.00">/qt/qmewawindow.cpp</text>
</a>
</g>
</g>
<!-- Node5&#45;&gt;Node7 -->
<g id="edge6" class="edge">
<title>Node5&#45;&gt;Node7</title>
<path fill="none" stroke="midnightblue" d="M490.65,-154.17C457.12,-146.04 418.06,-133.95 408,-120 397.09,-104.86 398.4,-94.01 408,-78 420.06,-57.89 442.07,-44.61 462.83,-36.05"/>
<polygon fill="midnightblue" stroke="midnightblue" points="489.86,-157.57 500.39,-156.45 491.46,-150.76 489.86,-157.57"/>
</g>
<!-- Node8 -->
<g id="node8" class="node">
<title>Node8</title>
<g id="a_node8"><a xlink:href="qmewawindow_8h.html" target="_top" xlink:title=" ">
<polygon fill="none" stroke="black" points="579,-84 579,-114 695,-114 695,-84 579,-84"/>
<text text-anchor="start" x="587" y="-102" font-family="Helvetica,sans-Serif" font-size="10.00">src/platformabstraction</text>
<text text-anchor="middle" x="637" y="-91" font-family="Helvetica,sans-Serif" font-size="10.00">/qt/qmewawindow.h</text>
</a>
</g>
</g>
<!-- Node5&#45;&gt;Node8 -->
<g id="edge7" class="edge">
<title>Node5&#45;&gt;Node8</title>
<path fill="none" stroke="midnightblue" d="M564.19,-150.35C579.88,-139.5 601.13,-124.8 616.63,-114.09"/>
<polygon fill="midnightblue" stroke="midnightblue" points="561.91,-147.67 555.68,-156.23 565.89,-153.43 561.91,-147.67"/>
</g>
<!-- Node9 -->
<g id="node9" class="node">
<title>Node9</title>
<g id="a_node9"><a xlink:href="randomtextureapp_8h.html" target="_top" xlink:title=" ">
<polygon fill="none" stroke="black" points="712.5,-78.5 712.5,-119.5 871.5,-119.5 871.5,-78.5 712.5,-78.5"/>
<text text-anchor="start" x="720.5" y="-107.5" font-family="Helvetica,sans-Serif" font-size="10.00">src/renderer/direct12</text>
<text text-anchor="start" x="720.5" y="-96.5" font-family="Helvetica,sans-Serif" font-size="10.00">/iconprogram/test_randomtexture</text>
<text text-anchor="middle" x="792" y="-85.5" font-family="Helvetica,sans-Serif" font-size="10.00">/randomtextureapp.h</text>
</a>
</g>
</g>
<!-- Node5&#45;&gt;Node9 -->
<g id="edge9" class="edge">
<title>Node5&#45;&gt;Node9</title>
<path fill="none" stroke="midnightblue" d="M585.52,-153.9C621.56,-144.49 674.12,-130.77 717.18,-119.53"/>
<polygon fill="midnightblue" stroke="midnightblue" points="584.6,-150.52 575.81,-156.44 586.37,-157.3 584.6,-150.52"/>
</g>
<!-- Node8&#45;&gt;Node7 -->
<g id="edge8" class="edge">
<title>Node8&#45;&gt;Node7</title>
<path fill="none" stroke="midnightblue" d="M605.42,-78.64C583.73,-65.35 555.45,-48.02 535.91,-36.04"/>
<polygon fill="midnightblue" stroke="midnightblue" points="603.61,-81.64 613.97,-83.88 607.27,-75.67 603.61,-81.64"/>
</g>
<!-- Node10 -->
<g id="node10" class="node">
<title>Node10</title>
<g id="a_node10"><a xlink:href="direct12_2iconprogram_2test__randomtexture_2main_8cpp.html" target="_top" xlink:title=" ">
<polygon fill="none" stroke="black" points="623.5,-0.5 623.5,-41.5 782.5,-41.5 782.5,-0.5 623.5,-0.5"/>
<text text-anchor="start" x="631.5" y="-29.5" font-family="Helvetica,sans-Serif" font-size="10.00">src/renderer/direct12</text>
<text text-anchor="start" x="631.5" y="-18.5" font-family="Helvetica,sans-Serif" font-size="10.00">/iconprogram/test_randomtexture</text>
<text text-anchor="middle" x="703" y="-7.5" font-family="Helvetica,sans-Serif" font-size="10.00">/main.cpp</text>
</a>
</g>
</g>
<!-- Node9&#45;&gt;Node10 -->
<g id="edge10" class="edge">
<title>Node9&#45;&gt;Node10</title>
<path fill="none" stroke="midnightblue" d="M761.29,-71.78C749.66,-61.84 736.63,-50.72 725.84,-41.51"/>
<polygon fill="midnightblue" stroke="midnightblue" points="759.2,-74.6 769.08,-78.43 763.75,-69.27 759.2,-74.6"/>
</g>
<!-- Node11 -->
<g id="node11" class="node">
<title>Node11</title>
<g id="a_node11"><a xlink:href="randomtextureapp_8cpp.html" target="_top" xlink:title=" ">
<polygon fill="none" stroke="black" points="800.5,-0.5 800.5,-41.5 959.5,-41.5 959.5,-0.5 800.5,-0.5"/>
<text text-anchor="start" x="808.5" y="-29.5" font-family="Helvetica,sans-Serif" font-size="10.00">src/renderer/direct12</text>
<text text-anchor="start" x="808.5" y="-18.5" font-family="Helvetica,sans-Serif" font-size="10.00">/iconprogram/test_randomtexture</text>
<text text-anchor="middle" x="880" y="-7.5" font-family="Helvetica,sans-Serif" font-size="10.00">/randomtextureapp.cpp</text>
</a>
</g>
</g>
<!-- Node9&#45;&gt;Node11 -->
<g id="edge11" class="edge">
<title>Node9&#45;&gt;Node11</title>
<path fill="none" stroke="midnightblue" d="M822.36,-71.78C833.87,-61.84 846.75,-50.72 857.41,-41.51"/>
<polygon fill="midnightblue" stroke="midnightblue" points="819.94,-69.24 814.66,-78.43 824.52,-74.54 819.94,-69.24"/>
</g>
<!-- Node15&#45;&gt;Node8 -->
<g id="edge17" class="edge">
<title>Node15&#45;&gt;Node8</title>
<path fill="none" stroke="midnightblue" d="M637,-269.38C637,-231.83 637,-147.74 637,-114.2"/>
<polygon fill="midnightblue" stroke="midnightblue" points="633.5,-269.43 637,-279.43 640.5,-269.43 633.5,-269.43"/>
</g>
<!-- Node16 -->
<g id="node16" class="node">
<title>Node16</title>
<g id="a_node16"><a xlink:href="mxiconatlas_8cpp.html" target="_top" xlink:title=" ">
<polygon fill="none" stroke="black" points="665.5,-218 665.5,-237 810.5,-237 810.5,-218 665.5,-218"/>
<text text-anchor="middle" x="738" y="-225" font-family="Helvetica,sans-Serif" font-size="10.00">src/iconatlas/mxiconatlas.cpp</text>
</a>
</g>
</g>
<!-- Node15&#45;&gt;Node16 -->
<g id="edge16" class="edge">
<title>Node15&#45;&gt;Node16</title>
<path fill="none" stroke="midnightblue" d="M660.35,-274.24C679.86,-262.75 707.07,-246.72 723.56,-237.01"/>
<polygon fill="midnightblue" stroke="midnightblue" points="658.31,-271.38 651.47,-279.48 661.86,-277.41 658.31,-271.38"/>
</g>
</g>
</svg>
