<?xml version="1.0" encoding="UTF-8" standalone="no"?>
<!DOCTYPE svg PUBLIC "-//W3C//DTD SVG 1.1//EN"
 "http://www.w3.org/Graphics/SVG/1.1/DTD/svg11.dtd">
<!-- Generated by graphviz version 2.44.0 ()
 -->
<!-- Title: src/gui/vectordraw/mxvectorprogram.h Pages: 1 -->
<svg width="1694pt" height="229pt"
 viewBox="0.00 0.00 1694.00 229.00" xmlns="http://www.w3.org/2000/svg" xmlns:xlink="http://www.w3.org/1999/xlink">
<g id="graph0" class="graph" transform="scale(1 1) rotate(0) translate(4 225)">
<title>src/gui/vectordraw/mxvectorprogram.h</title>
<!-- Node1 -->
<g id="node1" class="node">
<title>Node1</title>
<g id="a_node1"><a xlink:title=" ">
<polygon fill="#bfbfbf" stroke="black" points="1048.5,-190.5 1048.5,-220.5 1150.5,-220.5 1150.5,-190.5 1048.5,-190.5"/>
<text text-anchor="start" x="1056.5" y="-208.5" font-family="Helvetica,sans-Serif" font-size="10.00">src/gui/vectordraw</text>
<text text-anchor="middle" x="1099.5" y="-197.5" font-family="Helvetica,sans-Serif" font-size="10.00">/mxvectorprogram.h</text>
</a>
</g>
</g>
<!-- Node2 -->
<g id="node2" class="node">
<title>Node2</title>
<g id="a_node2"><a xlink:href="mxrenderer_8h.html" target="_top" xlink:title=" ">
<polygon fill="none" stroke="black" points="978,-134.5 978,-153.5 1121,-153.5 1121,-134.5 978,-134.5"/>
<text text-anchor="middle" x="1049.5" y="-141.5" font-family="Helvetica,sans-Serif" font-size="10.00">src/gui/renderer/mxrenderer.h</text>
</a>
</g>
</g>
<!-- Node1&#45;&gt;Node2 -->
<g id="edge1" class="edge">
<title>Node1&#45;&gt;Node2</title>
<path fill="none" stroke="midnightblue" d="M1081.18,-182.7C1072.72,-172.64 1063.16,-161.26 1056.78,-153.66"/>
<polygon fill="midnightblue" stroke="midnightblue" points="1078.54,-185 1087.65,-190.4 1083.9,-180.49 1078.54,-185"/>
</g>
<!-- Node18 -->
<g id="node18" class="node">
<title>Node18</title>
<g id="a_node18"><a xlink:href="mxvectorprogram_8cpp.html" target="_top" xlink:title=" ">
<polygon fill="none" stroke="black" points="1573,-67.5 1573,-97.5 1686,-97.5 1686,-67.5 1573,-67.5"/>
<text text-anchor="start" x="1581" y="-85.5" font-family="Helvetica,sans-Serif" font-size="10.00">src/gui/vectordraw</text>
<text text-anchor="middle" x="1629.5" y="-74.5" font-family="Helvetica,sans-Serif" font-size="10.00">/mxvectorprogram.cpp</text>
</a>
</g>
</g>
<!-- Node1&#45;&gt;Node18 -->
<g id="edge18" class="edge">
<title>Node1&#45;&gt;Node18</title>
<path fill="none" stroke="midnightblue" d="M1160.78,-190.51C1264.26,-166.88 1472.15,-119.42 1572.6,-96.49"/>
<polygon fill="midnightblue" stroke="midnightblue" points="1159.77,-187.15 1150.8,-192.79 1161.33,-193.97 1159.77,-187.15"/>
</g>
<!-- Node3 -->
<g id="node3" class="node">
<title>Node3</title>
<g id="a_node3"><a xlink:href="mxapplication_8h.html" target="_top" xlink:title=" ">
<polygon fill="none" stroke="black" points="287.5,-73 287.5,-92 419.5,-92 419.5,-73 287.5,-73"/>
<text text-anchor="middle" x="353.5" y="-80" font-family="Helvetica,sans-Serif" font-size="10.00">src/events/mxapplication.h</text>
</a>
</g>
</g>
<!-- Node2&#45;&gt;Node3 -->
<g id="edge2" class="edge">
<title>Node2&#45;&gt;Node3</title>
<path fill="none" stroke="midnightblue" d="M967.85,-140.17C848.82,-135.35 620.87,-123.47 428.5,-98 416.93,-96.47 404.45,-94.28 393.06,-92.06"/>
<polygon fill="midnightblue" stroke="midnightblue" points="967.84,-143.67 977.97,-140.58 968.12,-136.68 967.84,-143.67"/>
</g>
<!-- Node8 -->
<g id="node8" class="node">
<title>Node8</title>
<g id="a_node8"><a xlink:href="mxcolorwheelprogram_8cpp.html" target="_top" xlink:title=" ">
<polygon fill="none" stroke="black" points="437.5,-67.5 437.5,-97.5 569.5,-97.5 569.5,-67.5 437.5,-67.5"/>
<text text-anchor="start" x="445.5" y="-85.5" font-family="Helvetica,sans-Serif" font-size="10.00">src/gui/colorselector</text>
<text text-anchor="middle" x="503.5" y="-74.5" font-family="Helvetica,sans-Serif" font-size="10.00">/mxcolorwheelprogram.cpp</text>
</a>
</g>
</g>
<!-- Node2&#45;&gt;Node8 -->
<g id="edge7" class="edge">
<title>Node2&#45;&gt;Node8</title>
<path fill="none" stroke="midnightblue" d="M967.8,-137.58C873.65,-130.78 714.41,-117.58 578.5,-98 575.61,-97.58 572.67,-97.13 569.7,-96.65"/>
<polygon fill="midnightblue" stroke="midnightblue" points="967.61,-141.07 977.83,-138.3 968.11,-134.09 967.61,-141.07"/>
</g>
<!-- Node9 -->
<g id="node9" class="node">
<title>Node9</title>
<g id="a_node9"><a xlink:href="gui_2colorselector_2test__colorwheel_2testwindow_8h.html" target="_top" xlink:title=" ">
<polygon fill="none" stroke="black" points="587.5,-67.5 587.5,-97.5 735.5,-97.5 735.5,-67.5 587.5,-67.5"/>
<text text-anchor="start" x="595.5" y="-85.5" font-family="Helvetica,sans-Serif" font-size="10.00">src/gui/colorselector</text>
<text text-anchor="middle" x="661.5" y="-74.5" font-family="Helvetica,sans-Serif" font-size="10.00">/test_colorwheel/testwindow.h</text>
</a>
</g>
</g>
<!-- Node2&#45;&gt;Node9 -->
<g id="edge8" class="edge">
<title>Node2&#45;&gt;Node9</title>
<path fill="none" stroke="midnightblue" d="M978.33,-133.04C916.47,-124.26 824.47,-110.88 744.5,-98 741.61,-97.53 738.67,-97.05 735.7,-96.56"/>
<polygon fill="midnightblue" stroke="midnightblue" points="977.98,-136.53 988.38,-134.47 978.97,-129.6 977.98,-136.53"/>
</g>
<!-- Node12 -->
<g id="node12" class="node">
<title>Node12</title>
<g id="a_node12"><a xlink:href="gpubuffer_8cpp.html" target="_top" xlink:title=" ">
<polygon fill="none" stroke="black" points="754,-73 754,-92 861,-92 861,-73 754,-73"/>
<text text-anchor="middle" x="807.5" y="-80" font-family="Helvetica,sans-Serif" font-size="10.00">src/gui/gpubuffer.cpp</text>
</a>
</g>
</g>
<!-- Node2&#45;&gt;Node12 -->
<g id="edge11" class="edge">
<title>Node2&#45;&gt;Node12</title>
<path fill="none" stroke="midnightblue" d="M1004.93,-132.04C957.95,-120.49 884.94,-102.54 842.11,-92.01"/>
<polygon fill="midnightblue" stroke="midnightblue" points="1004.28,-135.49 1014.83,-134.48 1005.95,-128.69 1004.28,-135.49"/>
</g>
<!-- Node13 -->
<g id="node13" class="node">
<title>Node13</title>
<g id="a_node13"><a xlink:href="gpuvbo_8cpp.html" target="_top" xlink:title=" ">
<polygon fill="none" stroke="black" points="878.5,-73 878.5,-92 976.5,-92 976.5,-73 878.5,-73"/>
<text text-anchor="middle" x="927.5" y="-80" font-family="Helvetica,sans-Serif" font-size="10.00">src/gui/gpuvbo.cpp</text>
</a>
</g>
</g>
<!-- Node2&#45;&gt;Node13 -->
<g id="edge12" class="edge">
<title>Node2&#45;&gt;Node13</title>
<path fill="none" stroke="midnightblue" d="M1022.89,-130.02C999.23,-118.48 965.32,-101.94 944.95,-92.01"/>
<polygon fill="midnightblue" stroke="midnightblue" points="1021.5,-133.24 1032.02,-134.48 1024.57,-126.95 1021.5,-133.24"/>
</g>
<!-- Node14 -->
<g id="node14" class="node">
<title>Node14</title>
<g id="a_node14"><a xlink:href="mxpainter_8cpp.html" target="_top" xlink:title=" ">
<polygon fill="none" stroke="black" points="995,-73 995,-92 1104,-92 1104,-73 995,-73"/>
<text text-anchor="middle" x="1049.5" y="-80" font-family="Helvetica,sans-Serif" font-size="10.00">src/gui/mxpainter.cpp</text>
</a>
</g>
</g>
<!-- Node2&#45;&gt;Node14 -->
<g id="edge13" class="edge">
<title>Node2&#45;&gt;Node14</title>
<path fill="none" stroke="midnightblue" d="M1049.5,-124.32C1049.5,-113.5 1049.5,-100.4 1049.5,-92.01"/>
<polygon fill="midnightblue" stroke="midnightblue" points="1046,-124.48 1049.5,-134.48 1053,-124.48 1046,-124.48"/>
</g>
<!-- Node15 -->
<g id="node15" class="node">
<title>Node15</title>
<g id="a_node15"><a xlink:href="mxshaderprogram_8cpp.html" target="_top" xlink:title=" ">
<polygon fill="none" stroke="black" points="1122.5,-73 1122.5,-92 1266.5,-92 1266.5,-73 1122.5,-73"/>
<text text-anchor="middle" x="1194.5" y="-80" font-family="Helvetica,sans-Serif" font-size="10.00">src/gui/mxshaderprogram.cpp</text>
</a>
</g>
</g>
<!-- Node2&#45;&gt;Node15 -->
<g id="edge14" class="edge">
<title>Node2&#45;&gt;Node15</title>
<path fill="none" stroke="midnightblue" d="M1079.64,-130.63C1107.81,-119.07 1149.12,-102.12 1173.76,-92.01"/>
<polygon fill="midnightblue" stroke="midnightblue" points="1078.2,-127.44 1070.27,-134.48 1080.86,-133.92 1078.2,-127.44"/>
</g>
<!-- Node16 -->
<g id="node16" class="node">
<title>Node16</title>
<g id="a_node16"><a xlink:href="mxrenderer_8cpp.html" target="_top" xlink:title=" ">
<polygon fill="none" stroke="black" points="1285,-73 1285,-92 1438,-92 1438,-73 1285,-73"/>
<text text-anchor="middle" x="1361.5" y="-80" font-family="Helvetica,sans-Serif" font-size="10.00">src/gui/renderer/mxrenderer.cpp</text>
</a>
</g>
</g>
<!-- Node2&#45;&gt;Node16 -->
<g id="edge15" class="edge">
<title>Node2&#45;&gt;Node16</title>
<path fill="none" stroke="midnightblue" d="M1104.32,-132.55C1164.76,-121.02 1260.85,-102.69 1316.88,-92.01"/>
<polygon fill="midnightblue" stroke="midnightblue" points="1103.37,-129.16 1094.2,-134.48 1104.68,-136.04 1103.37,-129.16"/>
</g>
<!-- Node17 -->
<g id="node17" class="node">
<title>Node17</title>
<g id="a_node17"><a xlink:href="mxvectordraw_8cpp.html" target="_top" xlink:title=" ">
<polygon fill="none" stroke="black" points="1456.5,-67.5 1456.5,-97.5 1554.5,-97.5 1554.5,-67.5 1456.5,-67.5"/>
<text text-anchor="start" x="1464.5" y="-85.5" font-family="Helvetica,sans-Serif" font-size="10.00">src/gui/vectordraw</text>
<text text-anchor="middle" x="1505.5" y="-74.5" font-family="Helvetica,sans-Serif" font-size="10.00">/mxvectordraw.cpp</text>
</a>
</g>
</g>
<!-- Node2&#45;&gt;Node17 -->
<g id="edge16" class="edge">
<title>Node2&#45;&gt;Node17</title>
<path fill="none" stroke="midnightblue" d="M1131.34,-136.81C1211.92,-129.99 1338.29,-117.35 1446.5,-98 1449.72,-97.42 1453.02,-96.78 1456.35,-96.08"/>
<polygon fill="midnightblue" stroke="midnightblue" points="1130.93,-133.33 1121.26,-137.65 1131.51,-140.3 1130.93,-133.33"/>
</g>
<!-- Node2&#45;&gt;Node18 -->
<g id="edge17" class="edge">
<title>Node2&#45;&gt;Node18</title>
<path fill="none" stroke="midnightblue" d="M1131.57,-139.08C1233.36,-133.48 1411.97,-121.18 1563.5,-98 1566.52,-97.54 1569.6,-97.02 1572.71,-96.46"/>
<polygon fill="midnightblue" stroke="midnightblue" points="1131.15,-135.6 1121.36,-139.64 1131.53,-142.59 1131.15,-135.6"/>
</g>
<!-- Node4 -->
<g id="node4" class="node">
<title>Node4</title>
<g id="a_node4"><a xlink:href="mxapplication_8cpp.html" target="_top" xlink:title=" ">
<polygon fill="none" stroke="black" points="0,-6 0,-25 143,-25 143,-6 0,-6"/>
<text text-anchor="middle" x="71.5" y="-13" font-family="Helvetica,sans-Serif" font-size="10.00">src/events/mxapplication.cpp</text>
</a>
</g>
</g>
<!-- Node3&#45;&gt;Node4 -->
<g id="edge3" class="edge">
<title>Node3&#45;&gt;Node4</title>
<path fill="none" stroke="midnightblue" d="M306.4,-70.64C250.84,-57.84 159.61,-36.81 108.74,-25.08"/>
<polygon fill="midnightblue" stroke="midnightblue" points="305.81,-74.1 316.34,-72.94 307.39,-67.28 305.81,-74.1"/>
</g>
<!-- Node5 -->
<g id="node5" class="node">
<title>Node5</title>
<g id="a_node5"><a xlink:href="qmewawindow_8cpp.html" target="_top" xlink:title=" ">
<polygon fill="none" stroke="black" points="161.5,-0.5 161.5,-30.5 277.5,-30.5 277.5,-0.5 161.5,-0.5"/>
<text text-anchor="start" x="169.5" y="-18.5" font-family="Helvetica,sans-Serif" font-size="10.00">src/platformabstraction</text>
<text text-anchor="middle" x="219.5" y="-7.5" font-family="Helvetica,sans-Serif" font-size="10.00">/qt/qmewawindow.cpp</text>
</a>
</g>
</g>
<!-- Node3&#45;&gt;Node5 -->
<g id="edge4" class="edge">
<title>Node3&#45;&gt;Node5</title>
<path fill="none" stroke="midnightblue" d="M326.65,-68.47C303.99,-57.49 271.64,-41.79 248.42,-30.53"/>
<polygon fill="midnightblue" stroke="midnightblue" points="325.18,-71.65 335.71,-72.87 328.24,-65.35 325.18,-71.65"/>
</g>
<!-- Node6 -->
<g id="node6" class="node">
<title>Node6</title>
<g id="a_node6"><a xlink:href="storewindow_2test__storebuttons_2main_8cpp.html" target="_top" xlink:title=" ">
<polygon fill="none" stroke="black" points="295.5,-0.5 295.5,-30.5 413.5,-30.5 413.5,-0.5 295.5,-0.5"/>
<text text-anchor="start" x="303.5" y="-18.5" font-family="Helvetica,sans-Serif" font-size="10.00">src/storewindow/test</text>
<text text-anchor="middle" x="354.5" y="-7.5" font-family="Helvetica,sans-Serif" font-size="10.00">_storebuttons/main.cpp</text>
</a>
</g>
</g>
<!-- Node3&#45;&gt;Node6 -->
<g id="edge5" class="edge">
<title>Node3&#45;&gt;Node6</title>
<path fill="none" stroke="midnightblue" d="M353.79,-62.41C353.95,-52.22 354.14,-39.9 354.28,-30.59"/>
<polygon fill="midnightblue" stroke="midnightblue" points="350.29,-62.68 353.63,-72.73 357.29,-62.79 350.29,-62.68"/>
</g>
<!-- Node7 -->
<g id="node7" class="node">
<title>Node7</title>
<g id="a_node7"><a xlink:href="storewindow_2test__storebuttons_2testwindow_8cpp.html" target="_top" xlink:title=" ">
<polygon fill="none" stroke="black" points="431.5,-0.5 431.5,-30.5 577.5,-30.5 577.5,-0.5 431.5,-0.5"/>
<text text-anchor="start" x="439.5" y="-18.5" font-family="Helvetica,sans-Serif" font-size="10.00">src/storewindow/test</text>
<text text-anchor="middle" x="504.5" y="-7.5" font-family="Helvetica,sans-Serif" font-size="10.00">_storebuttons/testwindow.cpp</text>
</a>
</g>
</g>
<!-- Node3&#45;&gt;Node7 -->
<g id="edge6" class="edge">
<title>Node3&#45;&gt;Node7</title>
<path fill="none" stroke="midnightblue" d="M382.74,-68.91C408.31,-57.91 445.4,-41.94 471.91,-30.53"/>
<polygon fill="midnightblue" stroke="midnightblue" points="381.35,-65.7 373.55,-72.87 384.12,-72.13 381.35,-65.7"/>
</g>
<!-- Node10 -->
<g id="node10" class="node">
<title>Node10</title>
<g id="a_node10"><a xlink:href="gui_2colorselector_2test__colorwheel_2main_8cpp.html" target="_top" xlink:title=" ">
<polygon fill="none" stroke="black" points="596.5,-0.5 596.5,-30.5 726.5,-30.5 726.5,-0.5 596.5,-0.5"/>
<text text-anchor="start" x="604.5" y="-18.5" font-family="Helvetica,sans-Serif" font-size="10.00">src/gui/colorselector</text>
<text text-anchor="middle" x="661.5" y="-7.5" font-family="Helvetica,sans-Serif" font-size="10.00">/test_colorwheel/main.cpp</text>
</a>
</g>
</g>
<!-- Node9&#45;&gt;Node10 -->
<g id="edge9" class="edge">
<title>Node9&#45;&gt;Node10</title>
<path fill="none" stroke="midnightblue" d="M661.5,-57.11C661.5,-48.15 661.5,-38.32 661.5,-30.58"/>
<polygon fill="midnightblue" stroke="midnightblue" points="658,-57.4 661.5,-67.4 665,-57.4 658,-57.4"/>
</g>
<!-- Node11 -->
<g id="node11" class="node">
<title>Node11</title>
<g id="a_node11"><a xlink:href="gui_2colorselector_2test__colorwheel_2testwindow_8cpp.html" target="_top" xlink:title=" ">
<polygon fill="none" stroke="black" points="744.5,-0.5 744.5,-30.5 902.5,-30.5 902.5,-0.5 744.5,-0.5"/>
<text text-anchor="start" x="752.5" y="-18.5" font-family="Helvetica,sans-Serif" font-size="10.00">src/gui/colorselector</text>
<text text-anchor="middle" x="823.5" y="-7.5" font-family="Helvetica,sans-Serif" font-size="10.00">/test_colorwheel/testwindow.cpp</text>
</a>
</g>
</g>
<!-- Node9&#45;&gt;Node11 -->
<g id="edge10" class="edge">
<title>Node9&#45;&gt;Node11</title>
<path fill="none" stroke="midnightblue" d="M706.25,-63.54C732.17,-53.14 764.34,-40.24 788.42,-30.58"/>
<polygon fill="midnightblue" stroke="midnightblue" points="704.63,-60.42 696.65,-67.4 707.24,-66.92 704.63,-60.42"/>
</g>
</g>
</svg>
