<?xml version="1.0" encoding="UTF-8" standalone="no"?>
<!DOCTYPE svg PUBLIC "-//W3C//DTD SVG 1.1//EN"
 "http://www.w3.org/Graphics/SVG/1.1/DTD/svg11.dtd">
<!-- Generated by graphviz version 2.44.0 ()
 -->
<!-- Title: src/gui/vectordraw/mxvectorprogram.cpp Pages: 1 -->
<svg width="794pt" height="487pt"
 viewBox="0.00 0.00 793.50 487.00" xmlns="http://www.w3.org/2000/svg" xmlns:xlink="http://www.w3.org/1999/xlink">
<g id="graph0" class="graph" transform="scale(1 1) rotate(0) translate(4 483)">
<title>src/gui/vectordraw/mxvectorprogram.cpp</title>
<!-- Node1 -->
<g id="node1" class="node">
<title>Node1</title>
<g id="a_node1"><a xlink:title=" ">
<polygon fill="#bfbfbf" stroke="black" points="489,-448.5 489,-478.5 602,-478.5 602,-448.5 489,-448.5"/>
<text text-anchor="start" x="497" y="-466.5" font-family="Helvetica,sans-Serif" font-size="10.00">src/gui/vectordraw</text>
<text text-anchor="middle" x="545.5" y="-455.5" font-family="Helvetica,sans-Serif" font-size="10.00">/mxvectorprogram.cpp</text>
</a>
</g>
</g>
<!-- Node2 -->
<g id="node2" class="node">
<title>Node2</title>
<g id="a_node2"><a xlink:href="mxvectorprogram_8h.html" target="_top" xlink:title=" ">
<polygon fill="none" stroke="black" points="542,-336.5 542,-355.5 641,-355.5 641,-336.5 542,-336.5"/>
<text text-anchor="middle" x="591.5" y="-343.5" font-family="Helvetica,sans-Serif" font-size="10.00">mxvectorprogram.h</text>
</a>
</g>
</g>
<!-- Node1&#45;&gt;Node2 -->
<g id="edge1" class="edge">
<title>Node1&#45;&gt;Node2</title>
<path fill="none" stroke="midnightblue" d="M551.14,-448.34C559.47,-427.43 575.05,-388.31 584.22,-365.27"/>
<polygon fill="midnightblue" stroke="midnightblue" points="587.6,-366.25 588.05,-355.67 581.1,-363.66 587.6,-366.25"/>
</g>
<!-- Node15 -->
<g id="node15" class="node">
<title>Node15</title>
<g id="a_node15"><a xlink:href="mxrenderer_8h.html" target="_top" xlink:title=" ">
<polygon fill="none" stroke="black" points="477.5,-392.5 477.5,-411.5 549.5,-411.5 549.5,-392.5 477.5,-392.5"/>
<text text-anchor="middle" x="513.5" y="-399.5" font-family="Helvetica,sans-Serif" font-size="10.00">mxrenderer.h</text>
</a>
</g>
</g>
<!-- Node1&#45;&gt;Node15 -->
<g id="edge18" class="edge">
<title>Node1&#45;&gt;Node15</title>
<path fill="none" stroke="midnightblue" d="M537.92,-448.4C533.46,-440.11 527.78,-429.55 523.02,-420.71"/>
<polygon fill="midnightblue" stroke="midnightblue" points="525.98,-418.81 518.16,-411.66 519.81,-422.12 525.98,-418.81"/>
</g>
<!-- Node3 -->
<g id="node3" class="node">
<title>Node3</title>
<g id="a_node3"><a xlink:href="mxshaderprogram_8h.html" target="_top" xlink:title=" ">
<polygon fill="none" stroke="black" points="576,-112.5 576,-131.5 677,-131.5 677,-112.5 576,-112.5"/>
<text text-anchor="middle" x="626.5" y="-119.5" font-family="Helvetica,sans-Serif" font-size="10.00">mxshaderprogram.h</text>
</a>
</g>
</g>
<!-- Node2&#45;&gt;Node3 -->
<g id="edge2" class="edge">
<title>Node2&#45;&gt;Node3</title>
<path fill="none" stroke="midnightblue" d="M610.8,-336.48C624.93,-329.08 643.06,-316.89 651.5,-300 678.05,-246.9 650.96,-174.32 635.57,-141.03"/>
<polygon fill="midnightblue" stroke="midnightblue" points="638.56,-139.17 631.07,-131.67 632.25,-142.2 638.56,-139.17"/>
</g>
<!-- Node7 -->
<g id="node7" class="node">
<title>Node7</title>
<g id="a_node7"><a xlink:href="mxmatrix_8h.html" target="_top" xlink:title=" ">
<polygon fill="none" stroke="black" points="526,-168.5 526,-187.5 589,-187.5 589,-168.5 526,-168.5"/>
<text text-anchor="middle" x="557.5" y="-175.5" font-family="Helvetica,sans-Serif" font-size="10.00">mxmatrix.h</text>
</a>
</g>
</g>
<!-- Node2&#45;&gt;Node7 -->
<g id="edge6" class="edge">
<title>Node2&#45;&gt;Node7</title>
<path fill="none" stroke="midnightblue" d="M604.56,-336.44C615.41,-328.47 630.07,-315.52 636.5,-300 644.28,-281.22 633.73,-234.92 626.5,-224 617.33,-210.14 602.27,-199.6 588.55,-192.21"/>
<polygon fill="midnightblue" stroke="midnightblue" points="589.87,-188.95 579.36,-187.6 586.73,-195.21 589.87,-188.95"/>
</g>
<!-- Node9 -->
<g id="node9" class="node">
<title>Node9</title>
<g id="a_node9"><a xlink:href="mxvectordraw_8h.html" target="_top" xlink:title=" ">
<polygon fill="none" stroke="black" points="542,-280.5 542,-299.5 627,-299.5 627,-280.5 542,-280.5"/>
<text text-anchor="middle" x="584.5" y="-287.5" font-family="Helvetica,sans-Serif" font-size="10.00">mxvectordraw.h</text>
</a>
</g>
</g>
<!-- Node2&#45;&gt;Node9 -->
<g id="edge8" class="edge">
<title>Node2&#45;&gt;Node9</title>
<path fill="none" stroke="midnightblue" d="M590.34,-336.08C589.42,-328.93 588.08,-318.64 586.92,-309.69"/>
<polygon fill="midnightblue" stroke="midnightblue" points="590.39,-309.22 585.63,-299.75 583.45,-310.12 590.39,-309.22"/>
</g>
<!-- Node4 -->
<g id="node4" class="node">
<title>Node4</title>
<g id="a_node4"><a xlink:href="mxdebug_8h.html" target="_top" xlink:title=" ">
<polygon fill="none" stroke="black" points="253,-56.5 253,-75.5 316,-75.5 316,-56.5 253,-56.5"/>
<text text-anchor="middle" x="284.5" y="-63.5" font-family="Helvetica,sans-Serif" font-size="10.00">mxdebug.h</text>
</a>
</g>
</g>
<!-- Node3&#45;&gt;Node4 -->
<g id="edge3" class="edge">
<title>Node3&#45;&gt;Node4</title>
<path fill="none" stroke="midnightblue" d="M575.67,-112.97C507.81,-102.26 388.89,-83.48 326.08,-73.57"/>
<polygon fill="midnightblue" stroke="midnightblue" points="326.56,-70.1 316.13,-71.99 325.47,-77.01 326.56,-70.1"/>
</g>
<!-- Node6 -->
<g id="node6" class="node">
<title>Node6</title>
<g id="a_node6"><a xlink:href="mxopengl_8h.html" target="_top" xlink:title=" ">
<polygon fill="none" stroke="black" points="633,-56.5 633,-75.5 698,-75.5 698,-56.5 633,-56.5"/>
<text text-anchor="middle" x="665.5" y="-63.5" font-family="Helvetica,sans-Serif" font-size="10.00">mxopengl.h</text>
</a>
</g>
</g>
<!-- Node3&#45;&gt;Node6 -->
<g id="edge5" class="edge">
<title>Node3&#45;&gt;Node6</title>
<path fill="none" stroke="midnightblue" d="M632.94,-112.08C638.45,-104.46 646.53,-93.26 653.26,-83.94"/>
<polygon fill="midnightblue" stroke="midnightblue" points="656.16,-85.91 659.18,-75.75 650.49,-81.81 656.16,-85.91"/>
</g>
<!-- Node5 -->
<g id="node5" class="node">
<title>Node5</title>
<g id="a_node5"><a xlink:title=" ">
<polygon fill="none" stroke="#bfbfbf" points="258.5,-0.5 258.5,-19.5 310.5,-19.5 310.5,-0.5 258.5,-0.5"/>
<text text-anchor="middle" x="284.5" y="-7.5" font-family="Helvetica,sans-Serif" font-size="10.00">QDebug</text>
</a>
</g>
</g>
<!-- Node4&#45;&gt;Node5 -->
<g id="edge4" class="edge">
<title>Node4&#45;&gt;Node5</title>
<path fill="none" stroke="midnightblue" d="M284.5,-56.08C284.5,-49.01 284.5,-38.86 284.5,-29.99"/>
<polygon fill="midnightblue" stroke="midnightblue" points="288,-29.75 284.5,-19.75 281,-29.75 288,-29.75"/>
</g>
<!-- Node8 -->
<g id="node8" class="node">
<title>Node8</title>
<g id="a_node8"><a xlink:title=" ">
<polygon fill="none" stroke="#bfbfbf" points="493,-112.5 493,-131.5 558,-131.5 558,-112.5 493,-112.5"/>
<text text-anchor="middle" x="525.5" y="-119.5" font-family="Helvetica,sans-Serif" font-size="10.00">QMatrix4x4</text>
</a>
</g>
</g>
<!-- Node7&#45;&gt;Node8 -->
<g id="edge7" class="edge">
<title>Node7&#45;&gt;Node8</title>
<path fill="none" stroke="midnightblue" d="M552.22,-168.08C547.79,-160.61 541.34,-149.72 535.88,-140.52"/>
<polygon fill="midnightblue" stroke="midnightblue" points="538.79,-138.57 530.69,-131.75 532.77,-142.14 538.79,-138.57"/>
</g>
<!-- Node10 -->
<g id="node10" class="node">
<title>Node10</title>
<g id="a_node10"><a xlink:href="gpubuffer_8h.html" target="_top" xlink:title=" ">
<polygon fill="none" stroke="black" points="721.5,-224.5 721.5,-243.5 785.5,-243.5 785.5,-224.5 721.5,-224.5"/>
<text text-anchor="middle" x="753.5" y="-231.5" font-family="Helvetica,sans-Serif" font-size="10.00">gpubuffer.h</text>
</a>
</g>
</g>
<!-- Node9&#45;&gt;Node10 -->
<g id="edge9" class="edge">
<title>Node9&#45;&gt;Node10</title>
<path fill="none" stroke="midnightblue" d="M611.28,-280.44C639.83,-271.32 685.23,-256.81 717.04,-246.65"/>
<polygon fill="midnightblue" stroke="midnightblue" points="718.39,-249.89 726.85,-243.52 716.26,-243.23 718.39,-249.89"/>
</g>
<!-- Node12 -->
<g id="node12" class="node">
<title>Node12</title>
<g id="a_node12"><a xlink:href="mxrect_8h.html" target="_top" xlink:title=" ">
<polygon fill="none" stroke="black" points="338,-168.5 338,-187.5 391,-187.5 391,-168.5 338,-168.5"/>
<text text-anchor="middle" x="364.5" y="-175.5" font-family="Helvetica,sans-Serif" font-size="10.00">mxrect.h</text>
</a>
</g>
</g>
<!-- Node9&#45;&gt;Node12 -->
<g id="edge13" class="edge">
<title>Node9&#45;&gt;Node12</title>
<path fill="none" stroke="midnightblue" d="M541.61,-284.84C488.71,-278.83 403.02,-265.98 380.5,-244 368.29,-232.09 364.82,-212.47 364.09,-197.9"/>
<polygon fill="midnightblue" stroke="midnightblue" points="367.58,-197.49 363.96,-187.54 360.58,-197.58 367.58,-197.49"/>
</g>
<!-- Node11 -->
<g id="node11" class="node">
<title>Node11</title>
<g id="a_node11"><a xlink:href="gpuvbo_8h.html" target="_top" xlink:title=" ">
<polygon fill="none" stroke="black" points="721.5,-168.5 721.5,-187.5 777.5,-187.5 777.5,-168.5 721.5,-168.5"/>
<text text-anchor="middle" x="749.5" y="-175.5" font-family="Helvetica,sans-Serif" font-size="10.00">gpuvbo.h</text>
</a>
</g>
</g>
<!-- Node10&#45;&gt;Node11 -->
<g id="edge10" class="edge">
<title>Node10&#45;&gt;Node11</title>
<path fill="none" stroke="midnightblue" d="M752.84,-224.08C752.32,-217.01 751.56,-206.86 750.91,-197.99"/>
<polygon fill="midnightblue" stroke="midnightblue" points="754.38,-197.47 750.15,-187.75 747.4,-197.98 754.38,-197.47"/>
</g>
<!-- Node11&#45;&gt;Node3 -->
<g id="edge12" class="edge">
<title>Node11&#45;&gt;Node3</title>
<path fill="none" stroke="midnightblue" d="M730.01,-168.44C709.86,-159.6 678.18,-145.69 655.17,-135.59"/>
<polygon fill="midnightblue" stroke="midnightblue" points="656.46,-132.33 645.9,-131.52 653.65,-138.74 656.46,-132.33"/>
</g>
<!-- Node11&#45;&gt;Node6 -->
<g id="edge11" class="edge">
<title>Node11&#45;&gt;Node6</title>
<path fill="none" stroke="midnightblue" d="M746.88,-168.35C742.62,-155.23 733.27,-129.95 719.5,-112 710.48,-100.23 697.85,-89.5 687.08,-81.47"/>
<polygon fill="midnightblue" stroke="midnightblue" points="689.11,-78.61 678.94,-75.64 685.03,-84.3 689.11,-78.61"/>
</g>
<!-- Node12&#45;&gt;Node4 -->
<g id="edge14" class="edge">
<title>Node12&#45;&gt;Node4</title>
<path fill="none" stroke="midnightblue" d="M358.22,-168.37C345.02,-150.22 314.17,-107.8 296.86,-83.99"/>
<polygon fill="midnightblue" stroke="midnightblue" points="299.46,-81.62 290.75,-75.59 293.8,-85.74 299.46,-81.62"/>
</g>
<!-- Node13 -->
<g id="node13" class="node">
<title>Node13</title>
<g id="a_node13"><a xlink:href="mxvector_8h.html" target="_top" xlink:title=" ">
<polygon fill="none" stroke="black" points="222.5,-112.5 222.5,-131.5 286.5,-131.5 286.5,-112.5 222.5,-112.5"/>
<text text-anchor="middle" x="254.5" y="-119.5" font-family="Helvetica,sans-Serif" font-size="10.00">mxvector.h</text>
</a>
</g>
</g>
<!-- Node12&#45;&gt;Node13 -->
<g id="edge15" class="edge">
<title>Node12&#45;&gt;Node13</title>
<path fill="none" stroke="midnightblue" d="M346.83,-168.32C329.11,-159.62 301.6,-146.12 281.21,-136.11"/>
<polygon fill="midnightblue" stroke="midnightblue" points="282.65,-132.92 272.13,-131.65 279.56,-139.2 282.65,-132.92"/>
</g>
<!-- Node14 -->
<g id="node14" class="node">
<title>Node14</title>
<g id="a_node14"><a xlink:title=" ">
<polygon fill="none" stroke="#bfbfbf" points="342.5,-112.5 342.5,-131.5 398.5,-131.5 398.5,-112.5 342.5,-112.5"/>
<text text-anchor="middle" x="370.5" y="-119.5" font-family="Helvetica,sans-Serif" font-size="10.00">algorithm</text>
</a>
</g>
</g>
<!-- Node12&#45;&gt;Node14 -->
<g id="edge17" class="edge">
<title>Node12&#45;&gt;Node14</title>
<path fill="none" stroke="midnightblue" d="M365.49,-168.08C366.29,-160.93 367.43,-150.64 368.42,-141.69"/>
<polygon fill="midnightblue" stroke="midnightblue" points="371.9,-142.08 369.53,-131.75 364.94,-141.3 371.9,-142.08"/>
</g>
<!-- Node13&#45;&gt;Node4 -->
<g id="edge16" class="edge">
<title>Node13&#45;&gt;Node4</title>
<path fill="none" stroke="midnightblue" d="M259.45,-112.08C263.6,-104.61 269.65,-93.72 274.77,-84.52"/>
<polygon fill="midnightblue" stroke="midnightblue" points="277.84,-86.19 279.64,-75.75 271.72,-82.79 277.84,-86.19"/>
</g>
<!-- Node15&#45;&gt;Node2 -->
<g id="edge27" class="edge">
<title>Node15&#45;&gt;Node2</title>
<path fill="none" stroke="midnightblue" d="M526.03,-392.32C538.09,-383.98 556.53,-371.21 570.77,-361.35"/>
<polygon fill="midnightblue" stroke="midnightblue" points="572.77,-364.22 579,-355.65 568.78,-358.47 572.77,-364.22"/>
</g>
<!-- Node15&#45;&gt;Node10 -->
<g id="edge34" class="edge">
<title>Node15&#45;&gt;Node10</title>
<path fill="none" stroke="midnightblue" d="M549.76,-393.88C578.56,-387.14 619.07,-375.14 650.5,-356 693.54,-329.79 727.6,-279.38 743.58,-252.65"/>
<polygon fill="midnightblue" stroke="midnightblue" points="746.8,-254.07 748.8,-243.66 740.75,-250.55 746.8,-254.07"/>
</g>
<!-- Node16 -->
<g id="node16" class="node">
<title>Node16</title>
<g id="a_node16"><a xlink:href="mxopenglfunctions_8h.html" target="_top" xlink:title=" ">
<polygon fill="none" stroke="black" points="83,-336.5 83,-355.5 188,-355.5 188,-336.5 83,-336.5"/>
<text text-anchor="middle" x="135.5" y="-343.5" font-family="Helvetica,sans-Serif" font-size="10.00">mxopenglfunctions.h</text>
</a>
</g>
</g>
<!-- Node15&#45;&gt;Node16 -->
<g id="edge19" class="edge">
<title>Node15&#45;&gt;Node16</title>
<path fill="none" stroke="midnightblue" d="M477.26,-395.82C412.84,-386.62 277.72,-367.32 198.03,-355.93"/>
<polygon fill="midnightblue" stroke="midnightblue" points="198.51,-352.47 188.12,-354.52 197.52,-359.4 198.51,-352.47"/>
</g>
<!-- Node18 -->
<g id="node18" class="node">
<title>Node18</title>
<g id="a_node18"><a xlink:href="mxcolorwheelprogram_8h.html" target="_top" xlink:title=" ">
<polygon fill="none" stroke="black" points="498,-224.5 498,-243.5 617,-243.5 617,-224.5 498,-224.5"/>
<text text-anchor="middle" x="557.5" y="-231.5" font-family="Helvetica,sans-Serif" font-size="10.00">mxcolorwheelprogram.h</text>
</a>
</g>
</g>
<!-- Node15&#45;&gt;Node18 -->
<g id="edge21" class="edge">
<title>Node15&#45;&gt;Node18</title>
<path fill="none" stroke="midnightblue" d="M513.97,-392.26C515.27,-372.01 519.76,-320.53 533.5,-280 536.77,-270.36 541.94,-260.3 546.65,-252.14"/>
<polygon fill="midnightblue" stroke="midnightblue" points="549.65,-253.95 551.83,-243.58 543.66,-250.33 549.65,-253.95"/>
</g>
<!-- Node19 -->
<g id="node19" class="node">
<title>Node19</title>
<g id="a_node19"><a xlink:href="mxlist_8h.html" target="_top" xlink:title=" ">
<polygon fill="none" stroke="black" points="311.5,-336.5 311.5,-355.5 361.5,-355.5 361.5,-336.5 311.5,-336.5"/>
<text text-anchor="middle" x="336.5" y="-343.5" font-family="Helvetica,sans-Serif" font-size="10.00">mxlist.h</text>
</a>
</g>
</g>
<!-- Node15&#45;&gt;Node19 -->
<g id="edge28" class="edge">
<title>Node15&#45;&gt;Node19</title>
<path fill="none" stroke="midnightblue" d="M485.45,-392.44C454.53,-383.01 404.76,-367.82 371.35,-357.63"/>
<polygon fill="midnightblue" stroke="midnightblue" points="372.14,-354.21 361.55,-354.64 370.1,-360.91 372.14,-354.21"/>
</g>
<!-- Node24 -->
<g id="node24" class="node">
<title>Node24</title>
<g id="a_node24"><a xlink:href="mxiconprogram_8h.html" target="_top" xlink:title=" ">
<polygon fill="none" stroke="black" points="389.5,-224.5 389.5,-243.5 479.5,-243.5 479.5,-224.5 389.5,-224.5"/>
<text text-anchor="middle" x="434.5" y="-231.5" font-family="Helvetica,sans-Serif" font-size="10.00">mxiconprogram.h</text>
</a>
</g>
</g>
<!-- Node15&#45;&gt;Node24 -->
<g id="edge35" class="edge">
<title>Node15&#45;&gt;Node24</title>
<path fill="none" stroke="midnightblue" d="M509.53,-392.47C500.32,-372.67 476.7,-322.08 456.5,-280 452.17,-270.97 447.28,-260.96 443.21,-252.67"/>
<polygon fill="midnightblue" stroke="midnightblue" points="446.31,-251.04 438.75,-243.61 440.03,-254.13 446.31,-251.04"/>
</g>
<!-- Node17 -->
<g id="node17" class="node">
<title>Node17</title>
<g id="a_node17"><a xlink:title=" ">
<polygon fill="none" stroke="#bfbfbf" points="0,-280.5 0,-299.5 125,-299.5 125,-280.5 0,-280.5"/>
<text text-anchor="middle" x="62.5" y="-287.5" font-family="Helvetica,sans-Serif" font-size="10.00">QOpenGLExtraFunctions</text>
</a>
</g>
</g>
<!-- Node16&#45;&gt;Node17 -->
<g id="edge20" class="edge">
<title>Node16&#45;&gt;Node17</title>
<path fill="none" stroke="midnightblue" d="M123.77,-336.32C112.66,-328.11 95.76,-315.6 82.52,-305.81"/>
<polygon fill="midnightblue" stroke="midnightblue" points="84.56,-302.97 74.44,-299.83 80.4,-308.59 84.56,-302.97"/>
</g>
<!-- Node18&#45;&gt;Node3 -->
<g id="edge24" class="edge">
<title>Node18&#45;&gt;Node3</title>
<path fill="none" stroke="midnightblue" d="M566.95,-224.43C575.95,-215.89 589.45,-202.03 598.5,-188 607.96,-173.33 615.54,-154.93 620.42,-141.46"/>
<polygon fill="midnightblue" stroke="midnightblue" points="623.77,-142.47 623.73,-131.87 617.16,-140.18 623.77,-142.47"/>
</g>
<!-- Node18&#45;&gt;Node4 -->
<g id="edge22" class="edge">
<title>Node18&#45;&gt;Node4</title>
<path fill="none" stroke="midnightblue" d="M548.8,-224.21C526.89,-202.49 466.91,-145.6 407.5,-112 381.76,-97.44 350.42,-86.06 325.82,-78.38"/>
<polygon fill="midnightblue" stroke="midnightblue" points="326.65,-74.98 316.06,-75.42 324.62,-81.68 326.65,-74.98"/>
</g>
<!-- Node18&#45;&gt;Node6 -->
<g id="edge23" class="edge">
<title>Node18&#45;&gt;Node6</title>
<path fill="none" stroke="midnightblue" d="M578.02,-224.28C608.43,-210.07 664.24,-178.74 686.5,-132 693.89,-116.49 686.19,-97.72 678.12,-84.35"/>
<polygon fill="midnightblue" stroke="midnightblue" points="680.82,-82.09 672.38,-75.69 674.98,-85.96 680.82,-82.09"/>
</g>
<!-- Node18&#45;&gt;Node7 -->
<g id="edge25" class="edge">
<title>Node18&#45;&gt;Node7</title>
<path fill="none" stroke="midnightblue" d="M557.5,-224.08C557.5,-217.01 557.5,-206.86 557.5,-197.99"/>
<polygon fill="midnightblue" stroke="midnightblue" points="561,-197.75 557.5,-187.75 554,-197.75 561,-197.75"/>
</g>
<!-- Node18&#45;&gt;Node12 -->
<g id="edge26" class="edge">
<title>Node18&#45;&gt;Node12</title>
<path fill="none" stroke="midnightblue" d="M526.92,-224.44C492.72,-214.87 437.36,-199.39 400.95,-189.2"/>
<polygon fill="midnightblue" stroke="midnightblue" points="401.78,-185.8 391.21,-186.47 399.9,-192.54 401.78,-185.8"/>
</g>
<!-- Node19&#45;&gt;Node4 -->
<g id="edge29" class="edge">
<title>Node19&#45;&gt;Node4</title>
<path fill="none" stroke="midnightblue" d="M311.44,-345.3C275.71,-344.33 210.28,-337.16 172.5,-300 151.04,-278.89 153.5,-265.1 153.5,-235 153.5,-235 153.5,-235 153.5,-177 153.5,-127.04 210.08,-95.23 248.87,-79.3"/>
<polygon fill="midnightblue" stroke="midnightblue" points="250.28,-82.51 258.31,-75.59 247.72,-76 250.28,-82.51"/>
</g>
<!-- Node20 -->
<g id="node20" class="node">
<title>Node20</title>
<g id="a_node20"><a xlink:href="mxrefcounter_8h.html" target="_top" xlink:title=" ">
<polygon fill="none" stroke="black" points="181.5,-280.5 181.5,-299.5 261.5,-299.5 261.5,-280.5 181.5,-280.5"/>
<text text-anchor="middle" x="221.5" y="-287.5" font-family="Helvetica,sans-Serif" font-size="10.00">mxrefcounter.h</text>
</a>
</g>
</g>
<!-- Node19&#45;&gt;Node20 -->
<g id="edge30" class="edge">
<title>Node19&#45;&gt;Node20</title>
<path fill="none" stroke="midnightblue" d="M318.28,-336.44C299.6,-327.68 270.34,-313.94 248.88,-303.86"/>
<polygon fill="midnightblue" stroke="midnightblue" points="250.18,-300.6 239.64,-299.52 247.2,-306.93 250.18,-300.6"/>
</g>
<!-- Node21 -->
<g id="node21" class="node">
<title>Node21</title>
<g id="a_node21"><a xlink:title=" ">
<polygon fill="none" stroke="#bfbfbf" points="280,-280.5 280,-299.5 327,-299.5 327,-280.5 280,-280.5"/>
<text text-anchor="middle" x="303.5" y="-287.5" font-family="Helvetica,sans-Serif" font-size="10.00">stdlib.h</text>
</a>
</g>
</g>
<!-- Node19&#45;&gt;Node21 -->
<g id="edge31" class="edge">
<title>Node19&#45;&gt;Node21</title>
<path fill="none" stroke="midnightblue" d="M331.05,-336.08C326.49,-328.61 319.83,-317.72 314.21,-308.52"/>
<polygon fill="midnightblue" stroke="midnightblue" points="317.05,-306.46 308.85,-299.75 311.08,-310.11 317.05,-306.46"/>
</g>
<!-- Node22 -->
<g id="node22" class="node">
<title>Node22</title>
<g id="a_node22"><a xlink:title=" ">
<polygon fill="none" stroke="#bfbfbf" points="345.5,-280.5 345.5,-299.5 393.5,-299.5 393.5,-280.5 345.5,-280.5"/>
<text text-anchor="middle" x="369.5" y="-287.5" font-family="Helvetica,sans-Serif" font-size="10.00">string.h</text>
</a>
</g>
</g>
<!-- Node19&#45;&gt;Node22 -->
<g id="edge32" class="edge">
<title>Node19&#45;&gt;Node22</title>
<path fill="none" stroke="midnightblue" d="M341.95,-336.08C346.51,-328.61 353.17,-317.72 358.79,-308.52"/>
<polygon fill="midnightblue" stroke="midnightblue" points="361.92,-310.11 364.15,-299.75 355.95,-306.46 361.92,-310.11"/>
</g>
<!-- Node23 -->
<g id="node23" class="node">
<title>Node23</title>
<g id="a_node23"><a xlink:title=" ">
<polygon fill="none" stroke="#bfbfbf" points="412,-280.5 412,-299.5 447,-299.5 447,-280.5 412,-280.5"/>
<text text-anchor="middle" x="429.5" y="-287.5" font-family="Helvetica,sans-Serif" font-size="10.00">new</text>
</a>
</g>
</g>
<!-- Node19&#45;&gt;Node23 -->
<g id="edge33" class="edge">
<title>Node19&#45;&gt;Node23</title>
<path fill="none" stroke="midnightblue" d="M351.44,-336.32C366.09,-327.82 388.63,-314.73 405.74,-304.8"/>
<polygon fill="midnightblue" stroke="midnightblue" points="407.7,-307.7 414.6,-299.65 404.19,-301.65 407.7,-307.7"/>
</g>
<!-- Node24&#45;&gt;Node3 -->
<g id="edge40" class="edge">
<title>Node24&#45;&gt;Node3</title>
<path fill="none" stroke="midnightblue" d="M443.6,-224.49C458.26,-211.12 488.41,-184.97 517.5,-168 540.66,-154.49 568.64,-143.03 590.46,-135.06"/>
<polygon fill="midnightblue" stroke="midnightblue" points="591.77,-138.3 600.01,-131.64 589.41,-131.71 591.77,-138.3"/>
</g>
<!-- Node24&#45;&gt;Node4 -->
<g id="edge36" class="edge">
<title>Node24&#45;&gt;Node4</title>
<path fill="none" stroke="midnightblue" d="M389.38,-228.07C335.33,-219.38 247.81,-195.69 213.5,-132 201.61,-109.92 228.06,-91.39 251.98,-79.83"/>
<polygon fill="midnightblue" stroke="midnightblue" points="253.63,-82.93 261.28,-75.61 250.73,-76.56 253.63,-82.93"/>
</g>
<!-- Node24&#45;&gt;Node6 -->
<g id="edge39" class="edge">
<title>Node24&#45;&gt;Node6</title>
<path fill="none" stroke="midnightblue" d="M435.42,-224.45C438.27,-202.29 449.03,-142.57 484.5,-112 523.08,-78.75 582.59,-69.37 622.74,-67.08"/>
<polygon fill="midnightblue" stroke="midnightblue" points="622.93,-70.58 632.76,-66.63 622.61,-63.58 622.93,-70.58"/>
</g>
<!-- Node24&#45;&gt;Node7 -->
<g id="edge37" class="edge">
<title>Node24&#45;&gt;Node7</title>
<path fill="none" stroke="midnightblue" d="M453.99,-224.44C474.14,-215.6 505.82,-201.69 528.83,-191.59"/>
<polygon fill="midnightblue" stroke="midnightblue" points="530.35,-194.74 538.1,-187.52 527.54,-188.33 530.35,-194.74"/>
</g>
<!-- Node24&#45;&gt;Node12 -->
<g id="edge41" class="edge">
<title>Node24&#45;&gt;Node12</title>
<path fill="none" stroke="midnightblue" d="M423.25,-224.32C412.7,-216.18 396.7,-203.84 384.06,-194.09"/>
<polygon fill="midnightblue" stroke="midnightblue" points="386.01,-191.17 375.95,-187.83 381.73,-196.71 386.01,-191.17"/>
</g>
<!-- Node24&#45;&gt;Node13 -->
<g id="edge38" class="edge">
<title>Node24&#45;&gt;Node13</title>
<path fill="none" stroke="midnightblue" d="M408.09,-224.45C385.92,-216.66 353.89,-203.96 328.5,-188 306.23,-174 284.01,-153.36 269.82,-139.11"/>
<polygon fill="midnightblue" stroke="midnightblue" points="271.93,-136.27 262.45,-131.56 266.92,-141.16 271.93,-136.27"/>
</g>
</g>
</svg>
