<?xml version="1.0" encoding="UTF-8" standalone="no"?>
<!DOCTYPE svg PUBLIC "-//W3C//DTD SVG 1.1//EN"
 "http://www.w3.org/Graphics/SVG/1.1/DTD/svg11.dtd">
<!-- Generated by graphviz version 2.44.0 ()
 -->
<!-- Title: src/gui/vectordraw/mxvectorprogram.cpp Pages: 1 -->
<svg width="794pt" height="431pt"
 viewBox="0.00 0.00 793.50 431.00" xmlns="http://www.w3.org/2000/svg" xmlns:xlink="http://www.w3.org/1999/xlink">
<g id="graph0" class="graph" transform="scale(1 1) rotate(0) translate(4 427)">
<title>src/gui/vectordraw/mxvectorprogram.cpp</title>
<!-- Node1 -->
<g id="node1" class="node">
<title>Node1</title>
<g id="a_node1"><a xlink:title=" ">
<polygon fill="#bfbfbf" stroke="black" points="489,-392.5 489,-422.5 602,-422.5 602,-392.5 489,-392.5"/>
<text text-anchor="start" x="497" y="-410.5" font-family="Helvetica,sans-Serif" font-size="10.00">src/gui/vectordraw</text>
<text text-anchor="middle" x="545.5" y="-399.5" font-family="Helvetica,sans-Serif" font-size="10.00">/mxvectorprogram.cpp</text>
</a>
</g>
</g>
<!-- Node2 -->
<g id="node2" class="node">
<title>Node2</title>
<g id="a_node2"><a xlink:href="mxvectorprogram_8h.html" target="_top" xlink:title=" ">
<polygon fill="none" stroke="black" points="542,-280.5 542,-299.5 641,-299.5 641,-280.5 542,-280.5"/>
<text text-anchor="middle" x="591.5" y="-287.5" font-family="Helvetica,sans-Serif" font-size="10.00">mxvectorprogram.h</text>
</a>
</g>
</g>
<!-- Node1&#45;&gt;Node2 -->
<g id="edge1" class="edge">
<title>Node1&#45;&gt;Node2</title>
<path fill="none" stroke="midnightblue" d="M551.14,-392.34C559.47,-371.43 575.05,-332.31 584.22,-309.27"/>
<polygon fill="midnightblue" stroke="midnightblue" points="587.6,-310.25 588.05,-299.67 581.1,-307.66 587.6,-310.25"/>
</g>
<!-- Node14 -->
<g id="node14" class="node">
<title>Node14</title>
<g id="a_node14"><a xlink:href="mxrenderer_8h.html" target="_top" xlink:title=" ">
<polygon fill="none" stroke="black" points="477.5,-336.5 477.5,-355.5 549.5,-355.5 549.5,-336.5 477.5,-336.5"/>
<text text-anchor="middle" x="513.5" y="-343.5" font-family="Helvetica,sans-Serif" font-size="10.00">mxrenderer.h</text>
</a>
</g>
</g>
<!-- Node1&#45;&gt;Node14 -->
<g id="edge17" class="edge">
<title>Node1&#45;&gt;Node14</title>
<path fill="none" stroke="midnightblue" d="M537.92,-392.4C533.46,-384.11 527.78,-373.55 523.02,-364.71"/>
<polygon fill="midnightblue" stroke="midnightblue" points="525.98,-362.81 518.16,-355.66 519.81,-366.12 525.98,-362.81"/>
</g>
<!-- Node3 -->
<g id="node3" class="node">
<title>Node3</title>
<g id="a_node3"><a xlink:href="mxshaderprogram_8h.html" target="_top" xlink:title=" ">
<polygon fill="none" stroke="black" points="576,-56.5 576,-75.5 677,-75.5 677,-56.5 576,-56.5"/>
<text text-anchor="middle" x="626.5" y="-63.5" font-family="Helvetica,sans-Serif" font-size="10.00">mxshaderprogram.h</text>
</a>
</g>
</g>
<!-- Node2&#45;&gt;Node3 -->
<g id="edge2" class="edge">
<title>Node2&#45;&gt;Node3</title>
<path fill="none" stroke="midnightblue" d="M610.8,-280.48C624.93,-273.08 643.06,-260.89 651.5,-244 678.05,-190.9 650.96,-118.32 635.57,-85.03"/>
<polygon fill="midnightblue" stroke="midnightblue" points="638.56,-83.17 631.07,-75.67 632.25,-86.2 638.56,-83.17"/>
</g>
<!-- Node6 -->
<g id="node6" class="node">
<title>Node6</title>
<g id="a_node6"><a xlink:href="mxmatrix_8h.html" target="_top" xlink:title=" ">
<polygon fill="none" stroke="black" points="526,-112.5 526,-131.5 589,-131.5 589,-112.5 526,-112.5"/>
<text text-anchor="middle" x="557.5" y="-119.5" font-family="Helvetica,sans-Serif" font-size="10.00">mxmatrix.h</text>
</a>
</g>
</g>
<!-- Node2&#45;&gt;Node6 -->
<g id="edge5" class="edge">
<title>Node2&#45;&gt;Node6</title>
<path fill="none" stroke="midnightblue" d="M604.56,-280.44C615.41,-272.47 630.07,-259.52 636.5,-244 644.28,-225.22 633.73,-178.92 626.5,-168 617.33,-154.14 602.27,-143.6 588.55,-136.21"/>
<polygon fill="midnightblue" stroke="midnightblue" points="589.87,-132.95 579.36,-131.6 586.73,-139.21 589.87,-132.95"/>
</g>
<!-- Node8 -->
<g id="node8" class="node">
<title>Node8</title>
<g id="a_node8"><a xlink:href="mxvectordraw_8h.html" target="_top" xlink:title=" ">
<polygon fill="none" stroke="black" points="542,-224.5 542,-243.5 627,-243.5 627,-224.5 542,-224.5"/>
<text text-anchor="middle" x="584.5" y="-231.5" font-family="Helvetica,sans-Serif" font-size="10.00">mxvectordraw.h</text>
</a>
</g>
</g>
<!-- Node2&#45;&gt;Node8 -->
<g id="edge7" class="edge">
<title>Node2&#45;&gt;Node8</title>
<path fill="none" stroke="midnightblue" d="M590.34,-280.08C589.42,-272.93 588.08,-262.64 586.92,-253.69"/>
<polygon fill="midnightblue" stroke="midnightblue" points="590.39,-253.22 585.63,-243.75 583.45,-254.12 590.39,-253.22"/>
</g>
<!-- Node4 -->
<g id="node4" class="node">
<title>Node4</title>
<g id="a_node4"><a xlink:title=" ">
<polygon fill="none" stroke="#bfbfbf" points="253,-0.5 253,-19.5 316,-19.5 316,-0.5 253,-0.5"/>
<text text-anchor="middle" x="284.5" y="-7.5" font-family="Helvetica,sans-Serif" font-size="10.00">mxdebug.h</text>
</a>
</g>
</g>
<!-- Node3&#45;&gt;Node4 -->
<g id="edge3" class="edge">
<title>Node3&#45;&gt;Node4</title>
<path fill="none" stroke="midnightblue" d="M575.67,-56.97C507.81,-46.26 388.89,-27.48 326.08,-17.57"/>
<polygon fill="midnightblue" stroke="midnightblue" points="326.56,-14.1 316.13,-15.99 325.47,-21.01 326.56,-14.1"/>
</g>
<!-- Node5 -->
<g id="node5" class="node">
<title>Node5</title>
<g id="a_node5"><a xlink:href="mxopengl_8h.html" target="_top" xlink:title=" ">
<polygon fill="none" stroke="black" points="633,-0.5 633,-19.5 698,-19.5 698,-0.5 633,-0.5"/>
<text text-anchor="middle" x="665.5" y="-7.5" font-family="Helvetica,sans-Serif" font-size="10.00">mxopengl.h</text>
</a>
</g>
</g>
<!-- Node3&#45;&gt;Node5 -->
<g id="edge4" class="edge">
<title>Node3&#45;&gt;Node5</title>
<path fill="none" stroke="midnightblue" d="M632.94,-56.08C638.45,-48.46 646.53,-37.26 653.26,-27.94"/>
<polygon fill="midnightblue" stroke="midnightblue" points="656.16,-29.91 659.18,-19.75 650.49,-25.81 656.16,-29.91"/>
</g>
<!-- Node7 -->
<g id="node7" class="node">
<title>Node7</title>
<g id="a_node7"><a xlink:title=" ">
<polygon fill="none" stroke="#bfbfbf" points="493,-56.5 493,-75.5 558,-75.5 558,-56.5 493,-56.5"/>
<text text-anchor="middle" x="525.5" y="-63.5" font-family="Helvetica,sans-Serif" font-size="10.00">QMatrix4x4</text>
</a>
</g>
</g>
<!-- Node6&#45;&gt;Node7 -->
<g id="edge6" class="edge">
<title>Node6&#45;&gt;Node7</title>
<path fill="none" stroke="midnightblue" d="M552.22,-112.08C547.79,-104.61 541.34,-93.72 535.88,-84.52"/>
<polygon fill="midnightblue" stroke="midnightblue" points="538.79,-82.57 530.69,-75.75 532.77,-86.14 538.79,-82.57"/>
</g>
<!-- Node9 -->
<g id="node9" class="node">
<title>Node9</title>
<g id="a_node9"><a xlink:href="gpubuffer_8h.html" target="_top" xlink:title=" ">
<polygon fill="none" stroke="black" points="721.5,-168.5 721.5,-187.5 785.5,-187.5 785.5,-168.5 721.5,-168.5"/>
<text text-anchor="middle" x="753.5" y="-175.5" font-family="Helvetica,sans-Serif" font-size="10.00">gpubuffer.h</text>
</a>
</g>
</g>
<!-- Node8&#45;&gt;Node9 -->
<g id="edge8" class="edge">
<title>Node8&#45;&gt;Node9</title>
<path fill="none" stroke="midnightblue" d="M611.28,-224.44C639.83,-215.32 685.23,-200.81 717.04,-190.65"/>
<polygon fill="midnightblue" stroke="midnightblue" points="718.39,-193.89 726.85,-187.52 716.26,-187.23 718.39,-193.89"/>
</g>
<!-- Node11 -->
<g id="node11" class="node">
<title>Node11</title>
<g id="a_node11"><a xlink:href="mxrect_8h.html" target="_top" xlink:title=" ">
<polygon fill="none" stroke="black" points="338,-112.5 338,-131.5 391,-131.5 391,-112.5 338,-112.5"/>
<text text-anchor="middle" x="364.5" y="-119.5" font-family="Helvetica,sans-Serif" font-size="10.00">mxrect.h</text>
</a>
</g>
</g>
<!-- Node8&#45;&gt;Node11 -->
<g id="edge12" class="edge">
<title>Node8&#45;&gt;Node11</title>
<path fill="none" stroke="midnightblue" d="M541.61,-228.84C488.71,-222.83 403.02,-209.98 380.5,-188 368.29,-176.09 364.82,-156.47 364.09,-141.9"/>
<polygon fill="midnightblue" stroke="midnightblue" points="367.58,-141.49 363.96,-131.54 360.58,-141.58 367.58,-141.49"/>
</g>
<!-- Node10 -->
<g id="node10" class="node">
<title>Node10</title>
<g id="a_node10"><a xlink:href="gpuvbo_8h.html" target="_top" xlink:title=" ">
<polygon fill="none" stroke="black" points="721.5,-112.5 721.5,-131.5 777.5,-131.5 777.5,-112.5 721.5,-112.5"/>
<text text-anchor="middle" x="749.5" y="-119.5" font-family="Helvetica,sans-Serif" font-size="10.00">gpuvbo.h</text>
</a>
</g>
</g>
<!-- Node9&#45;&gt;Node10 -->
<g id="edge9" class="edge">
<title>Node9&#45;&gt;Node10</title>
<path fill="none" stroke="midnightblue" d="M752.84,-168.08C752.32,-161.01 751.56,-150.86 750.91,-141.99"/>
<polygon fill="midnightblue" stroke="midnightblue" points="754.38,-141.47 750.15,-131.75 747.4,-141.98 754.38,-141.47"/>
</g>
<!-- Node10&#45;&gt;Node3 -->
<g id="edge11" class="edge">
<title>Node10&#45;&gt;Node3</title>
<path fill="none" stroke="midnightblue" d="M730.01,-112.44C709.86,-103.6 678.18,-89.69 655.17,-79.59"/>
<polygon fill="midnightblue" stroke="midnightblue" points="656.46,-76.33 645.9,-75.52 653.65,-82.74 656.46,-76.33"/>
</g>
<!-- Node10&#45;&gt;Node5 -->
<g id="edge10" class="edge">
<title>Node10&#45;&gt;Node5</title>
<path fill="none" stroke="midnightblue" d="M746.88,-112.35C742.62,-99.23 733.27,-73.95 719.5,-56 710.48,-44.23 697.85,-33.5 687.08,-25.47"/>
<polygon fill="midnightblue" stroke="midnightblue" points="689.11,-22.61 678.94,-19.64 685.03,-28.3 689.11,-22.61"/>
</g>
<!-- Node11&#45;&gt;Node4 -->
<g id="edge13" class="edge">
<title>Node11&#45;&gt;Node4</title>
<path fill="none" stroke="midnightblue" d="M358.22,-112.37C345.02,-94.22 314.17,-51.8 296.86,-27.99"/>
<polygon fill="midnightblue" stroke="midnightblue" points="299.46,-25.62 290.75,-19.59 293.8,-29.74 299.46,-25.62"/>
</g>
<!-- Node12 -->
<g id="node12" class="node">
<title>Node12</title>
<g id="a_node12"><a xlink:href="mxvector_8h.html" target="_top" xlink:title=" ">
<polygon fill="none" stroke="black" points="222.5,-56.5 222.5,-75.5 286.5,-75.5 286.5,-56.5 222.5,-56.5"/>
<text text-anchor="middle" x="254.5" y="-63.5" font-family="Helvetica,sans-Serif" font-size="10.00">mxvector.h</text>
</a>
</g>
</g>
<!-- Node11&#45;&gt;Node12 -->
<g id="edge14" class="edge">
<title>Node11&#45;&gt;Node12</title>
<path fill="none" stroke="midnightblue" d="M346.83,-112.32C329.11,-103.62 301.6,-90.12 281.21,-80.11"/>
<polygon fill="midnightblue" stroke="midnightblue" points="282.65,-76.92 272.13,-75.65 279.56,-83.2 282.65,-76.92"/>
</g>
<!-- Node13 -->
<g id="node13" class="node">
<title>Node13</title>
<g id="a_node13"><a xlink:title=" ">
<polygon fill="none" stroke="#bfbfbf" points="342.5,-56.5 342.5,-75.5 398.5,-75.5 398.5,-56.5 342.5,-56.5"/>
<text text-anchor="middle" x="370.5" y="-63.5" font-family="Helvetica,sans-Serif" font-size="10.00">algorithm</text>
</a>
</g>
</g>
<!-- Node11&#45;&gt;Node13 -->
<g id="edge16" class="edge">
<title>Node11&#45;&gt;Node13</title>
<path fill="none" stroke="midnightblue" d="M365.49,-112.08C366.29,-104.93 367.43,-94.64 368.42,-85.69"/>
<polygon fill="midnightblue" stroke="midnightblue" points="371.9,-86.08 369.53,-75.75 364.94,-85.3 371.9,-86.08"/>
</g>
<!-- Node12&#45;&gt;Node4 -->
<g id="edge15" class="edge">
<title>Node12&#45;&gt;Node4</title>
<path fill="none" stroke="midnightblue" d="M259.45,-56.08C263.6,-48.61 269.65,-37.72 274.77,-28.52"/>
<polygon fill="midnightblue" stroke="midnightblue" points="277.84,-30.19 279.64,-19.75 271.72,-26.79 277.84,-30.19"/>
</g>
<!-- Node14&#45;&gt;Node2 -->
<g id="edge26" class="edge">
<title>Node14&#45;&gt;Node2</title>
<path fill="none" stroke="midnightblue" d="M526.03,-336.32C538.09,-327.98 556.53,-315.21 570.77,-305.35"/>
<polygon fill="midnightblue" stroke="midnightblue" points="572.77,-308.22 579,-299.65 568.78,-302.47 572.77,-308.22"/>
</g>
<!-- Node14&#45;&gt;Node9 -->
<g id="edge33" class="edge">
<title>Node14&#45;&gt;Node9</title>
<path fill="none" stroke="midnightblue" d="M549.76,-337.88C578.56,-331.14 619.07,-319.14 650.5,-300 693.54,-273.79 727.6,-223.38 743.58,-196.65"/>
<polygon fill="midnightblue" stroke="midnightblue" points="746.8,-198.07 748.8,-187.66 740.75,-194.55 746.8,-198.07"/>
</g>
<!-- Node15 -->
<g id="node15" class="node">
<title>Node15</title>
<g id="a_node15"><a xlink:href="mxopenglfunctions_8h.html" target="_top" xlink:title=" ">
<polygon fill="none" stroke="black" points="83,-280.5 83,-299.5 188,-299.5 188,-280.5 83,-280.5"/>
<text text-anchor="middle" x="135.5" y="-287.5" font-family="Helvetica,sans-Serif" font-size="10.00">mxopenglfunctions.h</text>
</a>
</g>
</g>
<!-- Node14&#45;&gt;Node15 -->
<g id="edge18" class="edge">
<title>Node14&#45;&gt;Node15</title>
<path fill="none" stroke="midnightblue" d="M477.26,-339.82C412.84,-330.62 277.72,-311.32 198.03,-299.93"/>
<polygon fill="midnightblue" stroke="midnightblue" points="198.51,-296.47 188.12,-298.52 197.52,-303.4 198.51,-296.47"/>
</g>
<!-- Node17 -->
<g id="node17" class="node">
<title>Node17</title>
<g id="a_node17"><a xlink:href="mxcolorwheelprogram_8h.html" target="_top" xlink:title=" ">
<polygon fill="none" stroke="black" points="498,-168.5 498,-187.5 617,-187.5 617,-168.5 498,-168.5"/>
<text text-anchor="middle" x="557.5" y="-175.5" font-family="Helvetica,sans-Serif" font-size="10.00">mxcolorwheelprogram.h</text>
</a>
</g>
</g>
<!-- Node14&#45;&gt;Node17 -->
<g id="edge20" class="edge">
<title>Node14&#45;&gt;Node17</title>
<path fill="none" stroke="midnightblue" d="M513.97,-336.26C515.27,-316.01 519.76,-264.53 533.5,-224 536.77,-214.36 541.94,-204.3 546.65,-196.14"/>
<polygon fill="midnightblue" stroke="midnightblue" points="549.65,-197.95 551.83,-187.58 543.66,-194.33 549.65,-197.95"/>
</g>
<!-- Node18 -->
<g id="node18" class="node">
<title>Node18</title>
<g id="a_node18"><a xlink:href="mxlist_8h.html" target="_top" xlink:title=" ">
<polygon fill="none" stroke="black" points="311.5,-280.5 311.5,-299.5 361.5,-299.5 361.5,-280.5 311.5,-280.5"/>
<text text-anchor="middle" x="336.5" y="-287.5" font-family="Helvetica,sans-Serif" font-size="10.00">mxlist.h</text>
</a>
</g>
</g>
<!-- Node14&#45;&gt;Node18 -->
<g id="edge27" class="edge">
<title>Node14&#45;&gt;Node18</title>
<path fill="none" stroke="midnightblue" d="M485.45,-336.44C454.53,-327.01 404.76,-311.82 371.35,-301.63"/>
<polygon fill="midnightblue" stroke="midnightblue" points="372.14,-298.21 361.55,-298.64 370.1,-304.91 372.14,-298.21"/>
</g>
<!-- Node23 -->
<g id="node23" class="node">
<title>Node23</title>
<g id="a_node23"><a xlink:href="mxiconprogram_8h.html" target="_top" xlink:title=" ">
<polygon fill="none" stroke="black" points="389.5,-168.5 389.5,-187.5 479.5,-187.5 479.5,-168.5 389.5,-168.5"/>
<text text-anchor="middle" x="434.5" y="-175.5" font-family="Helvetica,sans-Serif" font-size="10.00">mxiconprogram.h</text>
</a>
</g>
</g>
<!-- Node14&#45;&gt;Node23 -->
<g id="edge34" class="edge">
<title>Node14&#45;&gt;Node23</title>
<path fill="none" stroke="midnightblue" d="M509.53,-336.47C500.32,-316.67 476.7,-266.08 456.5,-224 452.17,-214.97 447.28,-204.96 443.21,-196.67"/>
<polygon fill="midnightblue" stroke="midnightblue" points="446.31,-195.04 438.75,-187.61 440.03,-198.13 446.31,-195.04"/>
</g>
<!-- Node16 -->
<g id="node16" class="node">
<title>Node16</title>
<g id="a_node16"><a xlink:title=" ">
<polygon fill="none" stroke="#bfbfbf" points="0,-224.5 0,-243.5 125,-243.5 125,-224.5 0,-224.5"/>
<text text-anchor="middle" x="62.5" y="-231.5" font-family="Helvetica,sans-Serif" font-size="10.00">QOpenGLExtraFunctions</text>
</a>
</g>
</g>
<!-- Node15&#45;&gt;Node16 -->
<g id="edge19" class="edge">
<title>Node15&#45;&gt;Node16</title>
<path fill="none" stroke="midnightblue" d="M123.77,-280.32C112.66,-272.11 95.76,-259.6 82.52,-249.81"/>
<polygon fill="midnightblue" stroke="midnightblue" points="84.56,-246.97 74.44,-243.83 80.4,-252.59 84.56,-246.97"/>
</g>
<!-- Node17&#45;&gt;Node3 -->
<g id="edge23" class="edge">
<title>Node17&#45;&gt;Node3</title>
<path fill="none" stroke="midnightblue" d="M566.95,-168.43C575.95,-159.89 589.45,-146.03 598.5,-132 607.96,-117.33 615.54,-98.93 620.42,-85.46"/>
<polygon fill="midnightblue" stroke="midnightblue" points="623.77,-86.47 623.73,-75.87 617.16,-84.18 623.77,-86.47"/>
</g>
<!-- Node17&#45;&gt;Node4 -->
<g id="edge21" class="edge">
<title>Node17&#45;&gt;Node4</title>
<path fill="none" stroke="midnightblue" d="M548.8,-168.21C526.89,-146.49 466.91,-89.6 407.5,-56 381.76,-41.44 350.42,-30.06 325.82,-22.38"/>
<polygon fill="midnightblue" stroke="midnightblue" points="326.65,-18.98 316.06,-19.42 324.62,-25.68 326.65,-18.98"/>
</g>
<!-- Node17&#45;&gt;Node5 -->
<g id="edge22" class="edge">
<title>Node17&#45;&gt;Node5</title>
<path fill="none" stroke="midnightblue" d="M578.02,-168.28C608.43,-154.07 664.24,-122.74 686.5,-76 693.89,-60.49 686.19,-41.72 678.12,-28.35"/>
<polygon fill="midnightblue" stroke="midnightblue" points="680.82,-26.09 672.38,-19.69 674.98,-29.96 680.82,-26.09"/>
</g>
<!-- Node17&#45;&gt;Node6 -->
<g id="edge24" class="edge">
<title>Node17&#45;&gt;Node6</title>
<path fill="none" stroke="midnightblue" d="M557.5,-168.08C557.5,-161.01 557.5,-150.86 557.5,-141.99"/>
<polygon fill="midnightblue" stroke="midnightblue" points="561,-141.75 557.5,-131.75 554,-141.75 561,-141.75"/>
</g>
<!-- Node17&#45;&gt;Node11 -->
<g id="edge25" class="edge">
<title>Node17&#45;&gt;Node11</title>
<path fill="none" stroke="midnightblue" d="M526.92,-168.44C492.72,-158.87 437.36,-143.39 400.95,-133.2"/>
<polygon fill="midnightblue" stroke="midnightblue" points="401.78,-129.8 391.21,-130.47 399.9,-136.54 401.78,-129.8"/>
</g>
<!-- Node18&#45;&gt;Node4 -->
<g id="edge28" class="edge">
<title>Node18&#45;&gt;Node4</title>
<path fill="none" stroke="midnightblue" d="M311.44,-289.3C275.71,-288.33 210.28,-281.16 172.5,-244 151.04,-222.89 153.5,-209.1 153.5,-179 153.5,-179 153.5,-179 153.5,-121 153.5,-71.04 210.08,-39.23 248.87,-23.3"/>
<polygon fill="midnightblue" stroke="midnightblue" points="250.28,-26.51 258.31,-19.59 247.72,-20 250.28,-26.51"/>
</g>
<!-- Node19 -->
<g id="node19" class="node">
<title>Node19</title>
<g id="a_node19"><a xlink:href="mxrefcounter_8h.html" target="_top" xlink:title=" ">
<polygon fill="none" stroke="black" points="181.5,-224.5 181.5,-243.5 261.5,-243.5 261.5,-224.5 181.5,-224.5"/>
<text text-anchor="middle" x="221.5" y="-231.5" font-family="Helvetica,sans-Serif" font-size="10.00">mxrefcounter.h</text>
</a>
</g>
</g>
<!-- Node18&#45;&gt;Node19 -->
<g id="edge29" class="edge">
<title>Node18&#45;&gt;Node19</title>
<path fill="none" stroke="midnightblue" d="M318.28,-280.44C299.6,-271.68 270.34,-257.94 248.88,-247.86"/>
<polygon fill="midnightblue" stroke="midnightblue" points="250.18,-244.6 239.64,-243.52 247.2,-250.93 250.18,-244.6"/>
</g>
<!-- Node20 -->
<g id="node20" class="node">
<title>Node20</title>
<g id="a_node20"><a xlink:title=" ">
<polygon fill="none" stroke="#bfbfbf" points="280,-224.5 280,-243.5 327,-243.5 327,-224.5 280,-224.5"/>
<text text-anchor="middle" x="303.5" y="-231.5" font-family="Helvetica,sans-Serif" font-size="10.00">stdlib.h</text>
</a>
</g>
</g>
<!-- Node18&#45;&gt;Node20 -->
<g id="edge30" class="edge">
<title>Node18&#45;&gt;Node20</title>
<path fill="none" stroke="midnightblue" d="M331.05,-280.08C326.49,-272.61 319.83,-261.72 314.21,-252.52"/>
<polygon fill="midnightblue" stroke="midnightblue" points="317.05,-250.46 308.85,-243.75 311.08,-254.11 317.05,-250.46"/>
</g>
<!-- Node21 -->
<g id="node21" class="node">
<title>Node21</title>
<g id="a_node21"><a xlink:title=" ">
<polygon fill="none" stroke="#bfbfbf" points="345.5,-224.5 345.5,-243.5 393.5,-243.5 393.5,-224.5 345.5,-224.5"/>
<text text-anchor="middle" x="369.5" y="-231.5" font-family="Helvetica,sans-Serif" font-size="10.00">string.h</text>
</a>
</g>
</g>
<!-- Node18&#45;&gt;Node21 -->
<g id="edge31" class="edge">
<title>Node18&#45;&gt;Node21</title>
<path fill="none" stroke="midnightblue" d="M341.95,-280.08C346.51,-272.61 353.17,-261.72 358.79,-252.52"/>
<polygon fill="midnightblue" stroke="midnightblue" points="361.92,-254.11 364.15,-243.75 355.95,-250.46 361.92,-254.11"/>
</g>
<!-- Node22 -->
<g id="node22" class="node">
<title>Node22</title>
<g id="a_node22"><a xlink:title=" ">
<polygon fill="none" stroke="#bfbfbf" points="412,-224.5 412,-243.5 447,-243.5 447,-224.5 412,-224.5"/>
<text text-anchor="middle" x="429.5" y="-231.5" font-family="Helvetica,sans-Serif" font-size="10.00">new</text>
</a>
</g>
</g>
<!-- Node18&#45;&gt;Node22 -->
<g id="edge32" class="edge">
<title>Node18&#45;&gt;Node22</title>
<path fill="none" stroke="midnightblue" d="M351.44,-280.32C366.09,-271.82 388.63,-258.73 405.74,-248.8"/>
<polygon fill="midnightblue" stroke="midnightblue" points="407.7,-251.7 414.6,-243.65 404.19,-245.65 407.7,-251.7"/>
</g>
<!-- Node23&#45;&gt;Node3 -->
<g id="edge39" class="edge">
<title>Node23&#45;&gt;Node3</title>
<path fill="none" stroke="midnightblue" d="M443.6,-168.49C458.26,-155.12 488.41,-128.97 517.5,-112 540.66,-98.49 568.64,-87.03 590.46,-79.06"/>
<polygon fill="midnightblue" stroke="midnightblue" points="591.77,-82.3 600.01,-75.64 589.41,-75.71 591.77,-82.3"/>
</g>
<!-- Node23&#45;&gt;Node4 -->
<g id="edge35" class="edge">
<title>Node23&#45;&gt;Node4</title>
<path fill="none" stroke="midnightblue" d="M389.38,-172.07C335.33,-163.38 247.81,-139.69 213.5,-76 201.61,-53.92 228.06,-35.39 251.98,-23.83"/>
<polygon fill="midnightblue" stroke="midnightblue" points="253.63,-26.93 261.28,-19.61 250.73,-20.56 253.63,-26.93"/>
</g>
<!-- Node23&#45;&gt;Node5 -->
<g id="edge38" class="edge">
<title>Node23&#45;&gt;Node5</title>
<path fill="none" stroke="midnightblue" d="M435.42,-168.45C438.27,-146.29 449.03,-86.57 484.5,-56 523.08,-22.75 582.59,-13.37 622.74,-11.08"/>
<polygon fill="midnightblue" stroke="midnightblue" points="622.93,-14.58 632.76,-10.63 622.61,-7.58 622.93,-14.58"/>
</g>
<!-- Node23&#45;&gt;Node6 -->
<g id="edge36" class="edge">
<title>Node23&#45;&gt;Node6</title>
<path fill="none" stroke="midnightblue" d="M453.99,-168.44C474.14,-159.6 505.82,-145.69 528.83,-135.59"/>
<polygon fill="midnightblue" stroke="midnightblue" points="530.35,-138.74 538.1,-131.52 527.54,-132.33 530.35,-138.74"/>
</g>
<!-- Node23&#45;&gt;Node11 -->
<g id="edge40" class="edge">
<title>Node23&#45;&gt;Node11</title>
<path fill="none" stroke="midnightblue" d="M423.25,-168.32C412.7,-160.18 396.7,-147.84 384.06,-138.09"/>
<polygon fill="midnightblue" stroke="midnightblue" points="386.01,-135.17 375.95,-131.83 381.73,-140.71 386.01,-135.17"/>
</g>
<!-- Node23&#45;&gt;Node12 -->
<g id="edge37" class="edge">
<title>Node23&#45;&gt;Node12</title>
<path fill="none" stroke="midnightblue" d="M408.09,-168.45C385.92,-160.66 353.89,-147.96 328.5,-132 306.23,-118 284.01,-97.36 269.82,-83.11"/>
<polygon fill="midnightblue" stroke="midnightblue" points="271.93,-80.27 262.45,-75.56 266.92,-85.16 271.93,-80.27"/>
</g>
</g>
</svg>
