<?xml version="1.0" encoding="UTF-8" standalone="no"?>
<!DOCTYPE svg PUBLIC "-//W3C//DTD SVG 1.1//EN"
 "http://www.w3.org/Graphics/SVG/1.1/DTD/svg11.dtd">
<!-- Generated by graphviz version 2.44.0 ()
 -->
<!-- Title: src/renderer/opengl/vectordraw/mxvectordraw.h Pages: 1 -->
<svg width="1991pt" height="374pt"
 viewBox="0.00 0.00 1990.64 374.00" xmlns="http://www.w3.org/2000/svg" xmlns:xlink="http://www.w3.org/1999/xlink">
<g id="graph0" class="graph" transform="scale(1 1) rotate(0) translate(4 370)">
<title>src/renderer/opengl/vectordraw/mxvectordraw.h</title>
<!-- Node1 -->
<g id="node1" class="node">
<title>Node1</title>
<g id="a_node1"><a xlink:title=" ">
<polygon fill="#bfbfbf" stroke="black" points="1236.5,-335.5 1236.5,-365.5 1375.5,-365.5 1375.5,-335.5 1236.5,-335.5"/>
<text text-anchor="start" x="1244.5" y="-353.5" font-family="Helvetica,sans-Serif" font-size="10.00">src/renderer/opengl</text>
<text text-anchor="middle" x="1306" y="-342.5" font-family="Helvetica,sans-Serif" font-size="10.00">/vectordraw/mxvectordraw.h</text>
</a>
</g>
</g>
<!-- Node2 -->
<g id="node2" class="node">
<title>Node2</title>
<g id="a_node2"><a xlink:href="mxpainter_8h.html" target="_top" xlink:title=" ">
<polygon fill="none" stroke="black" points="1118,-207 1118,-226 1216,-226 1216,-207 1118,-207"/>
<text text-anchor="middle" x="1167" y="-214" font-family="Helvetica,sans-Serif" font-size="10.00">src/gui/mxpainter.h</text>
</a>
</g>
</g>
<!-- Node1&#45;&gt;Node2 -->
<g id="edge1" class="edge">
<title>Node1&#45;&gt;Node2</title>
<path fill="none" stroke="midnightblue" d="M1283.78,-328.39C1252.7,-298.88 1197.65,-246.61 1176.05,-226.1"/>
<polygon fill="midnightblue" stroke="midnightblue" points="1281.46,-331.03 1291.12,-335.37 1286.28,-325.95 1281.46,-331.03"/>
</g>
<!-- Node8 -->
<g id="node8" class="node">
<title>Node8</title>
<g id="a_node8"><a xlink:href="mxsvgpainter_8cpp.html" target="_top" xlink:title=" ">
<polygon fill="none" stroke="black" points="1234.5,-207 1234.5,-226 1377.5,-226 1377.5,-207 1234.5,-207"/>
<text text-anchor="middle" x="1306" y="-214" font-family="Helvetica,sans-Serif" font-size="10.00">src/gui/svg/mxsvgpainter.cpp</text>
</a>
</g>
</g>
<!-- Node1&#45;&gt;Node8 -->
<g id="edge8" class="edge">
<title>Node1&#45;&gt;Node8</title>
<path fill="none" stroke="midnightblue" d="M1306,-325.32C1306,-295.38 1306,-245.91 1306,-226.1"/>
<polygon fill="midnightblue" stroke="midnightblue" points="1302.5,-325.37 1306,-335.37 1309.5,-325.37 1302.5,-325.37"/>
</g>
<!-- Node9 -->
<g id="node9" class="node">
<title>Node9</title>
<g id="a_node9"><a xlink:href="mxsvgpainter_8h.html" target="_top" xlink:title=" ">
<polygon fill="none" stroke="black" points="1472.5,-274 1472.5,-293 1605.5,-293 1605.5,-274 1472.5,-274"/>
<text text-anchor="middle" x="1539" y="-281" font-family="Helvetica,sans-Serif" font-size="10.00">src/gui/svg/mxsvgpainter.h</text>
</a>
</g>
</g>
<!-- Node1&#45;&gt;Node9 -->
<g id="edge9" class="edge">
<title>Node1&#45;&gt;Node9</title>
<path fill="none" stroke="midnightblue" d="M1366.04,-332.75C1411.61,-320.04 1472.38,-303.09 1508.43,-293.03"/>
<polygon fill="midnightblue" stroke="midnightblue" points="1364.96,-329.42 1356.27,-335.48 1366.84,-336.16 1364.96,-329.42"/>
</g>
<!-- Node13 -->
<g id="node13" class="node">
<title>Node13</title>
<g id="a_node13"><a xlink:href="mxvectordraw_8cpp.html" target="_top" xlink:title=" ">
<polygon fill="none" stroke="black" points="1794.5,-134.5 1794.5,-164.5 1943.5,-164.5 1943.5,-134.5 1794.5,-134.5"/>
<text text-anchor="start" x="1802.5" y="-152.5" font-family="Helvetica,sans-Serif" font-size="10.00">src/renderer/opengl</text>
<text text-anchor="middle" x="1869" y="-141.5" font-family="Helvetica,sans-Serif" font-size="10.00">/vectordraw/mxvectordraw.cpp</text>
</a>
</g>
</g>
<!-- Node1&#45;&gt;Node13 -->
<g id="edge15" class="edge">
<title>Node1&#45;&gt;Node13</title>
<path fill="none" stroke="midnightblue" d="M1385.89,-347.86C1547,-342.69 1901.84,-321.19 1976,-232 1999.66,-203.54 1953.01,-179.08 1914.04,-164.58"/>
<polygon fill="midnightblue" stroke="midnightblue" points="1385.45,-344.37 1375.56,-348.18 1385.67,-351.37 1385.45,-344.37"/>
</g>
<!-- Node14 -->
<g id="node14" class="node">
<title>Node14</title>
<g id="a_node14"><a xlink:href="mxvectorprogram_8h.html" target="_top" xlink:title=" ">
<polygon fill="none" stroke="black" points="901.5,-268.5 901.5,-298.5 1054.5,-298.5 1054.5,-268.5 901.5,-268.5"/>
<text text-anchor="start" x="909.5" y="-286.5" font-family="Helvetica,sans-Serif" font-size="10.00">src/renderer/opengl</text>
<text text-anchor="middle" x="978" y="-275.5" font-family="Helvetica,sans-Serif" font-size="10.00">/vectordraw/mxvectorprogram.h</text>
</a>
</g>
</g>
<!-- Node1&#45;&gt;Node14 -->
<g id="edge16" class="edge">
<title>Node1&#45;&gt;Node14</title>
<path fill="none" stroke="midnightblue" d="M1226.52,-333.75C1172.32,-323.01 1101.15,-308.91 1048.87,-298.55"/>
<polygon fill="midnightblue" stroke="midnightblue" points="1225.95,-337.2 1236.44,-335.72 1227.31,-330.34 1225.95,-337.2"/>
</g>
<!-- Node3 -->
<g id="node3" class="node">
<title>Node3</title>
<g id="a_node3"><a xlink:href="mxapplication_8h.html" target="_top" xlink:title=" ">
<polygon fill="none" stroke="black" points="1391,-140 1391,-159 1523,-159 1523,-140 1391,-140"/>
<text text-anchor="middle" x="1457" y="-147" font-family="Helvetica,sans-Serif" font-size="10.00">src/events/mxapplication.h</text>
</a>
</g>
</g>
<!-- Node2&#45;&gt;Node3 -->
<g id="edge2" class="edge">
<title>Node2&#45;&gt;Node3</title>
<path fill="none" stroke="midnightblue" d="M1210.74,-204.62C1215.88,-203.38 1221.05,-202.15 1226,-201 1292.58,-185.54 1370.27,-168.83 1416.45,-159.03"/>
<polygon fill="midnightblue" stroke="midnightblue" points="1209.86,-201.23 1200.97,-206.99 1211.52,-208.03 1209.86,-201.23"/>
</g>
<!-- Node7 -->
<g id="node7" class="node">
<title>Node7</title>
<g id="a_node7"><a xlink:href="mxpainter_8cpp.html" target="_top" xlink:title=" ">
<polygon fill="none" stroke="black" points="1541.5,-140 1541.5,-159 1650.5,-159 1650.5,-140 1541.5,-140"/>
<text text-anchor="middle" x="1596" y="-147" font-family="Helvetica,sans-Serif" font-size="10.00">src/gui/mxpainter.cpp</text>
</a>
</g>
</g>
<!-- Node2&#45;&gt;Node7 -->
<g id="edge7" class="edge">
<title>Node2&#45;&gt;Node7</title>
<path fill="none" stroke="midnightblue" d="M1208.84,-204.54C1214.58,-203.23 1220.42,-202.01 1226,-201 1360.75,-176.61 1397.04,-188.16 1532,-165 1541.54,-163.36 1551.81,-161.21 1561.26,-159.07"/>
<polygon fill="midnightblue" stroke="midnightblue" points="1207.61,-201.23 1198.69,-206.95 1209.23,-208.05 1207.61,-201.23"/>
</g>
<!-- Node4 -->
<g id="node4" class="node">
<title>Node4</title>
<g id="a_node4"><a xlink:href="mxapplication_8cpp.html" target="_top" xlink:title=" ">
<polygon fill="none" stroke="black" points="1385.5,-73 1385.5,-92 1528.5,-92 1528.5,-73 1385.5,-73"/>
<text text-anchor="middle" x="1457" y="-80" font-family="Helvetica,sans-Serif" font-size="10.00">src/events/mxapplication.cpp</text>
</a>
</g>
</g>
<!-- Node3&#45;&gt;Node4 -->
<g id="edge3" class="edge">
<title>Node3&#45;&gt;Node4</title>
<path fill="none" stroke="midnightblue" d="M1457,-129.54C1457,-117.17 1457,-101.62 1457,-92.13"/>
<polygon fill="midnightblue" stroke="midnightblue" points="1453.5,-129.73 1457,-139.73 1460.5,-129.73 1453.5,-129.73"/>
</g>
<!-- Node5 -->
<g id="node5" class="node">
<title>Node5</title>
<g id="a_node5"><a xlink:href="qmewawindow_8cpp.html" target="_top" xlink:title=" ">
<polygon fill="none" stroke="black" points="1375,-0.5 1375,-30.5 1491,-30.5 1491,-0.5 1375,-0.5"/>
<text text-anchor="start" x="1383" y="-18.5" font-family="Helvetica,sans-Serif" font-size="10.00">src/platformabstraction</text>
<text text-anchor="middle" x="1433" y="-7.5" font-family="Helvetica,sans-Serif" font-size="10.00">/qt/qmewawindow.cpp</text>
</a>
</g>
</g>
<!-- Node3&#45;&gt;Node5 -->
<g id="edge4" class="edge">
<title>Node3&#45;&gt;Node5</title>
<path fill="none" stroke="midnightblue" d="M1492.49,-135.91C1509.49,-127.87 1528.23,-115.61 1538,-98 1544.69,-85.95 1545.33,-78.66 1538,-67 1527.13,-49.7 1508.49,-38.2 1489.91,-30.6"/>
<polygon fill="midnightblue" stroke="midnightblue" points="1491.05,-132.72 1483.3,-139.94 1493.86,-139.13 1491.05,-132.72"/>
</g>
<!-- Node6 -->
<g id="node6" class="node">
<title>Node6</title>
<g id="a_node6"><a xlink:href="qmewawindow_8h.html" target="_top" xlink:title=" ">
<polygon fill="none" stroke="black" points="1251,-67.5 1251,-97.5 1367,-97.5 1367,-67.5 1251,-67.5"/>
<text text-anchor="start" x="1259" y="-85.5" font-family="Helvetica,sans-Serif" font-size="10.00">src/platformabstraction</text>
<text text-anchor="middle" x="1309" y="-74.5" font-family="Helvetica,sans-Serif" font-size="10.00">/qt/qmewawindow.h</text>
</a>
</g>
</g>
<!-- Node3&#45;&gt;Node6 -->
<g id="edge5" class="edge">
<title>Node3&#45;&gt;Node6</title>
<path fill="none" stroke="midnightblue" d="M1428.01,-135.77C1402.96,-124.77 1366.81,-108.89 1340.94,-97.53"/>
<polygon fill="midnightblue" stroke="midnightblue" points="1426.78,-139.05 1437.35,-139.87 1429.6,-132.64 1426.78,-139.05"/>
</g>
<!-- Node6&#45;&gt;Node5 -->
<g id="edge6" class="edge">
<title>Node6&#45;&gt;Node5</title>
<path fill="none" stroke="midnightblue" d="M1344.84,-62.71C1364.39,-52.46 1388.2,-39.98 1406.15,-30.58"/>
<polygon fill="midnightblue" stroke="midnightblue" points="1343.14,-59.65 1335.91,-67.4 1346.39,-65.85 1343.14,-59.65"/>
</g>
<!-- Node9&#45;&gt;Node7 -->
<g id="edge10" class="edge">
<title>Node9&#45;&gt;Node7</title>
<path fill="none" stroke="midnightblue" d="M1554,-266.25C1561.92,-256.87 1571.17,-244.48 1577,-232 1588.56,-207.25 1593.39,-174.9 1595.14,-159.46"/>
<polygon fill="midnightblue" stroke="midnightblue" points="1551.22,-264.12 1547.24,-273.94 1556.47,-268.74 1551.22,-264.12"/>
</g>
<!-- Node9&#45;&gt;Node8 -->
<g id="edge11" class="edge">
<title>Node9&#45;&gt;Node8</title>
<path fill="none" stroke="midnightblue" d="M1498.39,-271.17C1452.32,-258.32 1378.2,-237.64 1336.7,-226.06"/>
<polygon fill="midnightblue" stroke="midnightblue" points="1497.49,-274.55 1508.06,-273.87 1499.37,-267.81 1497.49,-274.55"/>
</g>
<!-- Node10 -->
<g id="node10" class="node">
<title>Node10</title>
<g id="a_node10"><a xlink:href="downarrowsvg_8cpp.html" target="_top" xlink:title=" ">
<polygon fill="none" stroke="black" points="1624.5,-207 1624.5,-226 1799.5,-226 1799.5,-207 1624.5,-207"/>
<text text-anchor="middle" x="1712" y="-214" font-family="Helvetica,sans-Serif" font-size="10.00">src/svg&#45;drawings/downarrowsvg.cpp</text>
</a>
</g>
</g>
<!-- Node9&#45;&gt;Node10 -->
<g id="edge12" class="edge">
<title>Node9&#45;&gt;Node10</title>
<path fill="none" stroke="midnightblue" d="M1571.55,-270.27C1605.88,-257.37 1659.1,-237.38 1689.21,-226.06"/>
<polygon fill="midnightblue" stroke="midnightblue" points="1570.1,-267.07 1561.97,-273.87 1572.57,-273.63 1570.1,-267.07"/>
</g>
<!-- Node11 -->
<g id="node11" class="node">
<title>Node11</title>
<g id="a_node11"><a xlink:href="heartsvg_8cpp.html" target="_top" xlink:title=" ">
<polygon fill="none" stroke="black" points="1817.5,-207 1817.5,-226 1966.5,-226 1966.5,-207 1817.5,-207"/>
<text text-anchor="middle" x="1892" y="-214" font-family="Helvetica,sans-Serif" font-size="10.00">src/svg&#45;drawings/heartsvg.cpp</text>
</a>
</g>
</g>
<!-- Node9&#45;&gt;Node11 -->
<g id="edge13" class="edge">
<title>Node9&#45;&gt;Node11</title>
<path fill="none" stroke="midnightblue" d="M1595.39,-272.12C1664.77,-259.34 1781.26,-237.89 1845.67,-226.03"/>
<polygon fill="midnightblue" stroke="midnightblue" points="1594.71,-268.68 1585.51,-273.94 1595.98,-275.57 1594.71,-268.68"/>
</g>
<!-- Node12 -->
<g id="node12" class="node">
<title>Node12</title>
<g id="a_node12"><a xlink:href="plusminussvg_8cpp.html" target="_top" xlink:title=" ">
<polygon fill="none" stroke="black" points="1396,-207 1396,-226 1568,-226 1568,-207 1396,-207"/>
<text text-anchor="middle" x="1482" y="-214" font-family="Helvetica,sans-Serif" font-size="10.00">src/svg&#45;drawings/plusminussvg.cpp</text>
</a>
</g>
</g>
<!-- Node9&#45;&gt;Node12 -->
<g id="edge14" class="edge">
<title>Node9&#45;&gt;Node12</title>
<path fill="none" stroke="midnightblue" d="M1524.65,-266.13C1513.5,-253.42 1498.48,-236.3 1489.57,-226.13"/>
<polygon fill="midnightblue" stroke="midnightblue" points="1522.09,-268.52 1531.31,-273.73 1527.35,-263.91 1522.09,-268.52"/>
</g>
<!-- Node15 -->
<g id="node15" class="node">
<title>Node15</title>
<g id="a_node15"><a xlink:href="mxrenderer_8h.html" target="_top" xlink:title=" ">
<polygon fill="none" stroke="black" points="928,-201.5 928,-231.5 1028,-231.5 1028,-201.5 928,-201.5"/>
<text text-anchor="start" x="936" y="-219.5" font-family="Helvetica,sans-Serif" font-size="10.00">src/renderer/opengl</text>
<text text-anchor="middle" x="978" y="-208.5" font-family="Helvetica,sans-Serif" font-size="10.00">/mxrenderer.h</text>
</a>
</g>
</g>
<!-- Node14&#45;&gt;Node15 -->
<g id="edge17" class="edge">
<title>Node14&#45;&gt;Node15</title>
<path fill="none" stroke="midnightblue" d="M978,-258.11C978,-249.15 978,-239.32 978,-231.58"/>
<polygon fill="midnightblue" stroke="midnightblue" points="974.5,-258.4 978,-268.4 981.5,-258.4 974.5,-258.4"/>
</g>
<!-- Node25 -->
<g id="node25" class="node">
<title>Node25</title>
<g id="a_node25"><a xlink:href="mxvectorprogram_8cpp.html" target="_top" xlink:title=" ">
<polygon fill="none" stroke="black" points="0,-134.5 0,-164.5 164,-164.5 164,-134.5 0,-134.5"/>
<text text-anchor="start" x="8" y="-152.5" font-family="Helvetica,sans-Serif" font-size="10.00">src/renderer/opengl</text>
<text text-anchor="middle" x="82" y="-141.5" font-family="Helvetica,sans-Serif" font-size="10.00">/vectordraw/mxvectorprogram.cpp</text>
</a>
</g>
</g>
<!-- Node14&#45;&gt;Node25 -->
<g id="edge32" class="edge">
<title>Node14&#45;&gt;Node25</title>
<path fill="none" stroke="midnightblue" d="M891.45,-270.25C743.94,-249.27 434.37,-204.9 173,-165 170.15,-164.57 167.26,-164.12 164.33,-163.67"/>
<polygon fill="midnightblue" stroke="midnightblue" points="890.97,-273.71 901.36,-271.65 891.96,-266.78 890.97,-273.71"/>
</g>
<!-- Node15&#45;&gt;Node3 -->
<g id="edge18" class="edge">
<title>Node15&#45;&gt;Node3</title>
<path fill="none" stroke="midnightblue" d="M1038.32,-208.46C1134.23,-197.18 1317.26,-175.29 1382,-165 1392.87,-163.27 1404.58,-161.14 1415.43,-159.05"/>
<polygon fill="midnightblue" stroke="midnightblue" points="1037.72,-205.01 1028.2,-209.65 1038.54,-211.96 1037.72,-205.01"/>
</g>
<!-- Node15&#45;&gt;Node7 -->
<g id="edge19" class="edge">
<title>Node15&#45;&gt;Node7</title>
<path fill="none" stroke="midnightblue" d="M1038.03,-208.53C1060.31,-206.03 1085.8,-203.27 1109,-201 1296.78,-182.62 1345.55,-193.91 1532,-165 1541.91,-163.46 1552.57,-161.27 1562.29,-159.05"/>
<polygon fill="midnightblue" stroke="midnightblue" points="1037.59,-205.06 1028.05,-209.66 1038.37,-212.02 1037.59,-205.06"/>
</g>
<!-- Node15&#45;&gt;Node13 -->
<g id="edge30" class="edge">
<title>Node15&#45;&gt;Node13</title>
<path fill="none" stroke="midnightblue" d="M1038.01,-208.28C1060.28,-205.76 1085.77,-203.04 1109,-201 1353.47,-179.5 1415.14,-181.49 1660,-165 1704.45,-162.01 1754.22,-158.56 1794.04,-155.77"/>
<polygon fill="midnightblue" stroke="midnightblue" points="1037.56,-204.81 1028.02,-209.43 1038.36,-211.77 1037.56,-204.81"/>
</g>
<!-- Node16 -->
<g id="node16" class="node">
<title>Node16</title>
<g id="a_node16"><a xlink:href="mxiconatlas_8h.html" target="_top" xlink:title=" ">
<polygon fill="none" stroke="black" points="1239,-140 1239,-159 1373,-159 1373,-140 1239,-140"/>
<text text-anchor="middle" x="1306" y="-147" font-family="Helvetica,sans-Serif" font-size="10.00">src/iconatlas/mxiconatlas.h</text>
</a>
</g>
</g>
<!-- Node15&#45;&gt;Node16 -->
<g id="edge20" class="edge">
<title>Node15&#45;&gt;Node16</title>
<path fill="none" stroke="midnightblue" d="M1038.29,-203.55C1103.38,-190.65 1205.42,-170.43 1262.9,-159.04"/>
<polygon fill="midnightblue" stroke="midnightblue" points="1037.3,-200.18 1028.17,-205.56 1038.66,-207.05 1037.3,-200.18"/>
</g>
<!-- Node18 -->
<g id="node18" class="node">
<title>Node18</title>
<g id="a_node18"><a xlink:href="mxcolorwheelprogram_8cpp.html" target="_top" xlink:title=" ">
<polygon fill="none" stroke="black" points="182.5,-134.5 182.5,-164.5 399.5,-164.5 399.5,-134.5 182.5,-134.5"/>
<text text-anchor="start" x="190.5" y="-152.5" font-family="Helvetica,sans-Serif" font-size="10.00">src/renderer/opengl</text>
<text text-anchor="middle" x="291" y="-141.5" font-family="Helvetica,sans-Serif" font-size="10.00">/colorwheelprogram/mxcolorwheelprogram.cpp</text>
</a>
</g>
</g>
<!-- Node15&#45;&gt;Node18 -->
<g id="edge23" class="edge">
<title>Node15&#45;&gt;Node18</title>
<path fill="none" stroke="midnightblue" d="M917.61,-210.85C813.48,-202.67 593.48,-184.7 408,-165 405.25,-164.71 402.47,-164.41 399.66,-164.1"/>
<polygon fill="midnightblue" stroke="midnightblue" points="917.38,-214.34 927.62,-211.63 917.92,-207.36 917.38,-214.34"/>
</g>
<!-- Node19 -->
<g id="node19" class="node">
<title>Node19</title>
<g id="a_node19"><a xlink:href="mxicondraw_8cpp.html" target="_top" xlink:title=" ">
<polygon fill="none" stroke="black" points="417.5,-134.5 417.5,-164.5 548.5,-164.5 548.5,-134.5 417.5,-134.5"/>
<text text-anchor="start" x="425.5" y="-152.5" font-family="Helvetica,sans-Serif" font-size="10.00">src/renderer/opengl</text>
<text text-anchor="middle" x="483" y="-141.5" font-family="Helvetica,sans-Serif" font-size="10.00">/icondraw/mxicondraw.cpp</text>
</a>
</g>
</g>
<!-- Node15&#45;&gt;Node19 -->
<g id="edge24" class="edge">
<title>Node15&#45;&gt;Node19</title>
<path fill="none" stroke="midnightblue" d="M917.63,-209.61C835.87,-201.32 685.51,-184.97 558,-165 554.99,-164.53 551.91,-164.02 548.8,-163.5"/>
<polygon fill="midnightblue" stroke="midnightblue" points="917.44,-213.11 927.74,-210.63 918.14,-206.14 917.44,-213.11"/>
</g>
<!-- Node20 -->
<g id="node20" class="node">
<title>Node20</title>
<g id="a_node20"><a xlink:href="mxiconprogram_8cpp.html" target="_top" xlink:title=" ">
<polygon fill="none" stroke="black" points="567,-134.5 567,-164.5 713,-164.5 713,-134.5 567,-134.5"/>
<text text-anchor="start" x="575" y="-152.5" font-family="Helvetica,sans-Serif" font-size="10.00">src/renderer/opengl</text>
<text text-anchor="middle" x="640" y="-141.5" font-family="Helvetica,sans-Serif" font-size="10.00">/icondraw/mxiconprogram.cpp</text>
</a>
</g>
</g>
<!-- Node15&#45;&gt;Node20 -->
<g id="edge25" class="edge">
<title>Node15&#45;&gt;Node20</title>
<path fill="none" stroke="midnightblue" d="M917.77,-203.92C860.49,-192.9 774.22,-176.31 713.04,-164.55"/>
<polygon fill="midnightblue" stroke="midnightblue" points="917.28,-207.39 927.76,-205.84 918.6,-200.51 917.28,-207.39"/>
</g>
<!-- Node21 -->
<g id="node21" class="node">
<title>Node21</title>
<g id="a_node21"><a xlink:href="mxcachedgpuarray_8cpp.html" target="_top" xlink:title=" ">
<polygon fill="none" stroke="black" points="731.5,-134.5 731.5,-164.5 850.5,-164.5 850.5,-134.5 731.5,-134.5"/>
<text text-anchor="start" x="739.5" y="-152.5" font-family="Helvetica,sans-Serif" font-size="10.00">src/renderer/opengl</text>
<text text-anchor="middle" x="791" y="-141.5" font-family="Helvetica,sans-Serif" font-size="10.00">/mxcachedgpuarray.cpp</text>
</a>
</g>
</g>
<!-- Node15&#45;&gt;Node21 -->
<g id="edge26" class="edge">
<title>Node15&#45;&gt;Node21</title>
<path fill="none" stroke="midnightblue" d="M927.92,-198.09C897.73,-187.6 859.78,-174.41 831.5,-164.58"/>
<polygon fill="midnightblue" stroke="midnightblue" points="926.83,-201.42 937.42,-201.4 929.13,-194.81 926.83,-201.42"/>
</g>
<!-- Node22 -->
<g id="node22" class="node">
<title>Node22</title>
<g id="a_node22"><a xlink:href="mxgpuarray_8cpp.html" target="_top" xlink:title=" ">
<polygon fill="none" stroke="black" points="869,-134.5 869,-164.5 969,-164.5 969,-134.5 869,-134.5"/>
<text text-anchor="start" x="877" y="-152.5" font-family="Helvetica,sans-Serif" font-size="10.00">src/renderer/opengl</text>
<text text-anchor="middle" x="919" y="-141.5" font-family="Helvetica,sans-Serif" font-size="10.00">/mxgpuarray.cpp</text>
</a>
</g>
</g>
<!-- Node15&#45;&gt;Node22 -->
<g id="edge27" class="edge">
<title>Node15&#45;&gt;Node22</title>
<path fill="none" stroke="midnightblue" d="M958.25,-193.74C949.52,-184.12 939.5,-173.09 931.78,-164.58"/>
<polygon fill="midnightblue" stroke="midnightblue" points="955.89,-196.34 965.2,-201.4 961.07,-191.64 955.89,-196.34"/>
</g>
<!-- Node23 -->
<g id="node23" class="node">
<title>Node23</title>
<g id="a_node23"><a xlink:href="mxrenderer_8cpp.html" target="_top" xlink:title=" ">
<polygon fill="none" stroke="black" points="987,-134.5 987,-164.5 1087,-164.5 1087,-134.5 987,-134.5"/>
<text text-anchor="start" x="995" y="-152.5" font-family="Helvetica,sans-Serif" font-size="10.00">src/renderer/opengl</text>
<text text-anchor="middle" x="1037" y="-141.5" font-family="Helvetica,sans-Serif" font-size="10.00">/mxrenderer.cpp</text>
</a>
</g>
</g>
<!-- Node15&#45;&gt;Node23 -->
<g id="edge28" class="edge">
<title>Node15&#45;&gt;Node23</title>
<path fill="none" stroke="midnightblue" d="M997.75,-193.74C1006.48,-184.12 1016.5,-173.09 1024.22,-164.58"/>
<polygon fill="midnightblue" stroke="midnightblue" points="994.93,-191.64 990.8,-201.4 1000.11,-196.34 994.93,-191.64"/>
</g>
<!-- Node24 -->
<g id="node24" class="node">
<title>Node24</title>
<g id="a_node24"><a xlink:href="mxshaderprogram_8cpp.html" target="_top" xlink:title=" ">
<polygon fill="none" stroke="black" points="1105.5,-134.5 1105.5,-164.5 1220.5,-164.5 1220.5,-134.5 1105.5,-134.5"/>
<text text-anchor="start" x="1113.5" y="-152.5" font-family="Helvetica,sans-Serif" font-size="10.00">src/renderer/opengl</text>
<text text-anchor="middle" x="1163" y="-141.5" font-family="Helvetica,sans-Serif" font-size="10.00">/mxshaderprogram.cpp</text>
</a>
</g>
</g>
<!-- Node15&#45;&gt;Node24 -->
<g id="edge29" class="edge">
<title>Node15&#45;&gt;Node24</title>
<path fill="none" stroke="midnightblue" d="M1027.94,-197.96C1057.74,-187.48 1095.07,-174.37 1122.94,-164.58"/>
<polygon fill="midnightblue" stroke="midnightblue" points="1026.42,-194.78 1018.14,-201.4 1028.74,-201.38 1026.42,-194.78"/>
</g>
<!-- Node15&#45;&gt;Node25 -->
<g id="edge31" class="edge">
<title>Node15&#45;&gt;Node25</title>
<path fill="none" stroke="midnightblue" d="M917.86,-213.69C783.8,-209.22 450.4,-195.73 173,-165 170.14,-164.68 167.23,-164.34 164.29,-163.97"/>
<polygon fill="midnightblue" stroke="midnightblue" points="917.82,-217.19 927.93,-214.02 918.05,-210.19 917.82,-217.19"/>
</g>
<!-- Node16&#45;&gt;Node6 -->
<g id="edge22" class="edge">
<title>Node16&#45;&gt;Node6</title>
<path fill="none" stroke="midnightblue" d="M1306.87,-129.74C1307.34,-119.49 1307.92,-107 1308.35,-97.59"/>
<polygon fill="midnightblue" stroke="midnightblue" points="1303.37,-129.58 1306.4,-139.73 1310.36,-129.91 1303.37,-129.58"/>
</g>
<!-- Node17 -->
<g id="node17" class="node">
<title>Node17</title>
<g id="a_node17"><a xlink:href="mxiconatlas_8cpp.html" target="_top" xlink:title=" ">
<polygon fill="none" stroke="black" points="1087.5,-73 1087.5,-92 1232.5,-92 1232.5,-73 1087.5,-73"/>
<text text-anchor="middle" x="1160" y="-80" font-family="Helvetica,sans-Serif" font-size="10.00">src/iconatlas/mxiconatlas.cpp</text>
</a>
</g>
</g>
<!-- Node16&#45;&gt;Node17 -->
<g id="edge21" class="edge">
<title>Node16&#45;&gt;Node17</title>
<path fill="none" stroke="midnightblue" d="M1277.43,-135.78C1248.52,-122.91 1204.6,-103.35 1179.47,-92.17"/>
<polygon fill="midnightblue" stroke="midnightblue" points="1276.05,-139 1286.61,-139.87 1278.9,-132.6 1276.05,-139"/>
</g>
</g>
</svg>
