<?xml version="1.0" encoding="UTF-8" standalone="no"?>
<!DOCTYPE svg PUBLIC "-//W3C//DTD SVG 1.1//EN"
 "http://www.w3.org/Graphics/SVG/1.1/DTD/svg11.dtd">
<!-- Generated by graphviz version 2.44.0 ()
 -->
<!-- Title: src/gui/vectordraw/mxvectorprogram.cpp Pages: 1 -->
<svg width="604pt" height="487pt"
 viewBox="0.00 0.00 604.00 487.00" xmlns="http://www.w3.org/2000/svg" xmlns:xlink="http://www.w3.org/1999/xlink">
<g id="graph0" class="graph" transform="scale(1 1) rotate(0) translate(4 483)">
<title>src/gui/vectordraw/mxvectorprogram.cpp</title>
<!-- Node1 -->
<g id="node1" class="node">
<title>Node1</title>
<g id="a_node1"><a xlink:title=" ">
<polygon fill="#bfbfbf" stroke="black" points="133.5,-448.5 133.5,-478.5 246.5,-478.5 246.5,-448.5 133.5,-448.5"/>
<text text-anchor="start" x="141.5" y="-466.5" font-family="Helvetica,sans-Serif" font-size="10.00">src/gui/vectordraw</text>
<text text-anchor="middle" x="190" y="-455.5" font-family="Helvetica,sans-Serif" font-size="10.00">/mxvectorprogram.cpp</text>
</a>
</g>
</g>
<!-- Node2 -->
<g id="node2" class="node">
<title>Node2</title>
<g id="a_node2"><a xlink:href="mxvectorprogram_8h.html" target="_top" xlink:title=" ">
<polygon fill="none" stroke="black" points="101.5,-336.5 101.5,-355.5 200.5,-355.5 200.5,-336.5 101.5,-336.5"/>
<text text-anchor="middle" x="151" y="-343.5" font-family="Helvetica,sans-Serif" font-size="10.00">mxvectorprogram.h</text>
</a>
</g>
</g>
<!-- Node1&#45;&gt;Node2 -->
<g id="edge1" class="edge">
<title>Node1&#45;&gt;Node2</title>
<path fill="none" stroke="midnightblue" d="M185.22,-448.34C178.16,-427.43 164.95,-388.31 157.17,-365.27"/>
<polygon fill="midnightblue" stroke="midnightblue" points="160.44,-364.02 153.93,-355.67 153.81,-366.26 160.44,-364.02"/>
</g>
<!-- Node15 -->
<g id="node15" class="node">
<title>Node15</title>
<g id="a_node15"><a xlink:href="mxrenderer_8h.html" target="_top" xlink:title=" ">
<polygon fill="none" stroke="black" points="189,-392.5 189,-411.5 261,-411.5 261,-392.5 189,-392.5"/>
<text text-anchor="middle" x="225" y="-399.5" font-family="Helvetica,sans-Serif" font-size="10.00">mxrenderer.h</text>
</a>
</g>
</g>
<!-- Node1&#45;&gt;Node15 -->
<g id="edge18" class="edge">
<title>Node1&#45;&gt;Node15</title>
<path fill="none" stroke="midnightblue" d="M198.29,-448.4C203.22,-440.02 209.51,-429.33 214.75,-420.42"/>
<polygon fill="midnightblue" stroke="midnightblue" points="217.85,-422.05 219.91,-411.66 211.82,-418.5 217.85,-422.05"/>
</g>
<!-- Node3 -->
<g id="node3" class="node">
<title>Node3</title>
<g id="a_node3"><a xlink:href="mxshaderprogram_8h.html" target="_top" xlink:title=" ">
<polygon fill="none" stroke="black" points="49.5,-112.5 49.5,-131.5 150.5,-131.5 150.5,-112.5 49.5,-112.5"/>
<text text-anchor="middle" x="100" y="-119.5" font-family="Helvetica,sans-Serif" font-size="10.00">mxshaderprogram.h</text>
</a>
</g>
</g>
<!-- Node2&#45;&gt;Node3 -->
<g id="edge2" class="edge">
<title>Node2&#45;&gt;Node3</title>
<path fill="none" stroke="midnightblue" d="M149,-336.3C141.48,-303.56 114.79,-187.38 104.29,-141.67"/>
<polygon fill="midnightblue" stroke="midnightblue" points="107.69,-140.85 102.04,-131.88 100.87,-142.41 107.69,-140.85"/>
</g>
<!-- Node7 -->
<g id="node7" class="node">
<title>Node7</title>
<g id="a_node7"><a xlink:href="mxmatrix_8h.html" target="_top" xlink:title=" ">
<polygon fill="none" stroke="black" points="439.5,-168.5 439.5,-187.5 502.5,-187.5 502.5,-168.5 439.5,-168.5"/>
<text text-anchor="middle" x="471" y="-175.5" font-family="Helvetica,sans-Serif" font-size="10.00">mxmatrix.h</text>
</a>
</g>
</g>
<!-- Node2&#45;&gt;Node7 -->
<g id="edge6" class="edge">
<title>Node2&#45;&gt;Node7</title>
<path fill="none" stroke="midnightblue" d="M162.55,-336.34C180.34,-323.23 215.76,-297.94 248,-280 313.81,-243.38 395.35,-209.06 439.32,-191.41"/>
<polygon fill="midnightblue" stroke="midnightblue" points="440.9,-194.55 448.89,-187.59 438.3,-188.05 440.9,-194.55"/>
</g>
<!-- Node9 -->
<g id="node9" class="node">
<title>Node9</title>
<g id="a_node9"><a xlink:href="mxvectordraw_8h.html" target="_top" xlink:title=" ">
<polygon fill="none" stroke="black" points="13.5,-280.5 13.5,-299.5 98.5,-299.5 98.5,-280.5 13.5,-280.5"/>
<text text-anchor="middle" x="56" y="-287.5" font-family="Helvetica,sans-Serif" font-size="10.00">mxvectordraw.h</text>
</a>
</g>
</g>
<!-- Node2&#45;&gt;Node9 -->
<g id="edge8" class="edge">
<title>Node2&#45;&gt;Node9</title>
<path fill="none" stroke="midnightblue" d="M135.74,-336.32C120.78,-327.82 97.75,-314.73 80.27,-304.8"/>
<polygon fill="midnightblue" stroke="midnightblue" points="81.65,-301.55 71.23,-299.65 78.19,-307.64 81.65,-301.55"/>
</g>
<!-- Node4 -->
<g id="node4" class="node">
<title>Node4</title>
<g id="a_node4"><a xlink:href="mxdebug_8h.html" target="_top" xlink:title=" ">
<polygon fill="none" stroke="black" points="319.5,-56.5 319.5,-75.5 382.5,-75.5 382.5,-56.5 319.5,-56.5"/>
<text text-anchor="middle" x="351" y="-63.5" font-family="Helvetica,sans-Serif" font-size="10.00">mxdebug.h</text>
</a>
</g>
</g>
<!-- Node3&#45;&gt;Node4 -->
<g id="edge3" class="edge">
<title>Node3&#45;&gt;Node4</title>
<path fill="none" stroke="midnightblue" d="M139.77,-112.44C186.13,-102.47 262.39,-86.06 309.49,-75.93"/>
<polygon fill="midnightblue" stroke="midnightblue" points="310.32,-79.33 319.36,-73.81 308.85,-72.49 310.32,-79.33"/>
</g>
<!-- Node6 -->
<g id="node6" class="node">
<title>Node6</title>
<g id="a_node6"><a xlink:href="mxopengl_8h.html" target="_top" xlink:title=" ">
<polygon fill="none" stroke="black" points="67.5,-56.5 67.5,-75.5 132.5,-75.5 132.5,-56.5 67.5,-56.5"/>
<text text-anchor="middle" x="100" y="-63.5" font-family="Helvetica,sans-Serif" font-size="10.00">mxopengl.h</text>
</a>
</g>
</g>
<!-- Node3&#45;&gt;Node6 -->
<g id="edge5" class="edge">
<title>Node3&#45;&gt;Node6</title>
<path fill="none" stroke="midnightblue" d="M100,-112.08C100,-105.01 100,-94.86 100,-85.99"/>
<polygon fill="midnightblue" stroke="midnightblue" points="103.5,-85.75 100,-75.75 96.5,-85.75 103.5,-85.75"/>
</g>
<!-- Node5 -->
<g id="node5" class="node">
<title>Node5</title>
<g id="a_node5"><a xlink:title=" ">
<polygon fill="none" stroke="#bfbfbf" points="325,-0.5 325,-19.5 377,-19.5 377,-0.5 325,-0.5"/>
<text text-anchor="middle" x="351" y="-7.5" font-family="Helvetica,sans-Serif" font-size="10.00">QDebug</text>
</a>
</g>
</g>
<!-- Node4&#45;&gt;Node5 -->
<g id="edge4" class="edge">
<title>Node4&#45;&gt;Node5</title>
<path fill="none" stroke="midnightblue" d="M351,-56.08C351,-49.01 351,-38.86 351,-29.99"/>
<polygon fill="midnightblue" stroke="midnightblue" points="354.5,-29.75 351,-19.75 347.5,-29.75 354.5,-29.75"/>
</g>
<!-- Node8 -->
<g id="node8" class="node">
<title>Node8</title>
<g id="a_node8"><a xlink:title=" ">
<polygon fill="none" stroke="#bfbfbf" points="439.5,-112.5 439.5,-131.5 504.5,-131.5 504.5,-112.5 439.5,-112.5"/>
<text text-anchor="middle" x="472" y="-119.5" font-family="Helvetica,sans-Serif" font-size="10.00">QMatrix4x4</text>
</a>
</g>
</g>
<!-- Node7&#45;&gt;Node8 -->
<g id="edge7" class="edge">
<title>Node7&#45;&gt;Node8</title>
<path fill="none" stroke="midnightblue" d="M471.17,-168.08C471.3,-161.01 471.48,-150.86 471.65,-141.99"/>
<polygon fill="midnightblue" stroke="midnightblue" points="475.15,-141.81 471.84,-131.75 468.15,-141.68 475.15,-141.81"/>
</g>
<!-- Node10 -->
<g id="node10" class="node">
<title>Node10</title>
<g id="a_node10"><a xlink:href="gpubuffer_8h.html" target="_top" xlink:title=" ">
<polygon fill="none" stroke="black" points="0,-224.5 0,-243.5 64,-243.5 64,-224.5 0,-224.5"/>
<text text-anchor="middle" x="32" y="-231.5" font-family="Helvetica,sans-Serif" font-size="10.00">gpubuffer.h</text>
</a>
</g>
</g>
<!-- Node9&#45;&gt;Node10 -->
<g id="edge9" class="edge">
<title>Node9&#45;&gt;Node10</title>
<path fill="none" stroke="midnightblue" d="M52.04,-280.08C48.79,-272.77 44.08,-262.18 40.05,-253.1"/>
<polygon fill="midnightblue" stroke="midnightblue" points="43.15,-251.47 35.89,-243.75 36.75,-254.31 43.15,-251.47"/>
</g>
<!-- Node12 -->
<g id="node12" class="node">
<title>Node12</title>
<g id="a_node12"><a xlink:href="mxrect_8h.html" target="_top" xlink:title=" ">
<polygon fill="none" stroke="black" points="208.5,-168.5 208.5,-187.5 261.5,-187.5 261.5,-168.5 208.5,-168.5"/>
<text text-anchor="middle" x="235" y="-175.5" font-family="Helvetica,sans-Serif" font-size="10.00">mxrect.h</text>
</a>
</g>
</g>
<!-- Node9&#45;&gt;Node12 -->
<g id="edge13" class="edge">
<title>Node9&#45;&gt;Node12</title>
<path fill="none" stroke="midnightblue" d="M69.75,-280.3C89.6,-267.75 127.5,-243.91 160,-224 177.21,-213.46 196.76,-201.74 211.59,-192.9"/>
<polygon fill="midnightblue" stroke="midnightblue" points="213.77,-195.67 220.58,-187.55 210.19,-189.66 213.77,-195.67"/>
</g>
<!-- Node11 -->
<g id="node11" class="node">
<title>Node11</title>
<g id="a_node11"><a xlink:href="gpuvbo_8h.html" target="_top" xlink:title=" ">
<polygon fill="none" stroke="black" points="4,-168.5 4,-187.5 60,-187.5 60,-168.5 4,-168.5"/>
<text text-anchor="middle" x="32" y="-175.5" font-family="Helvetica,sans-Serif" font-size="10.00">gpuvbo.h</text>
</a>
</g>
</g>
<!-- Node10&#45;&gt;Node11 -->
<g id="edge10" class="edge">
<title>Node10&#45;&gt;Node11</title>
<path fill="none" stroke="midnightblue" d="M32,-224.08C32,-217.01 32,-206.86 32,-197.99"/>
<polygon fill="midnightblue" stroke="midnightblue" points="35.5,-197.75 32,-187.75 28.5,-197.75 35.5,-197.75"/>
</g>
<!-- Node11&#45;&gt;Node3 -->
<g id="edge12" class="edge">
<title>Node11&#45;&gt;Node3</title>
<path fill="none" stroke="midnightblue" d="M42.93,-168.32C53.17,-160.18 68.72,-147.84 81,-138.09"/>
<polygon fill="midnightblue" stroke="midnightblue" points="83.22,-140.79 88.88,-131.83 78.87,-135.31 83.22,-140.79"/>
</g>
<!-- Node11&#45;&gt;Node6 -->
<g id="edge11" class="edge">
<title>Node11&#45;&gt;Node6</title>
<path fill="none" stroke="midnightblue" d="M31.02,-168.34C29.96,-155.21 29.63,-129.91 40,-112 47.64,-98.8 60.85,-88.26 72.94,-80.71"/>
<polygon fill="midnightblue" stroke="midnightblue" points="74.97,-83.57 81.85,-75.52 71.44,-77.53 74.97,-83.57"/>
</g>
<!-- Node12&#45;&gt;Node4 -->
<g id="edge14" class="edge">
<title>Node12&#45;&gt;Node4</title>
<path fill="none" stroke="midnightblue" d="M244.1,-168.37C263.58,-149.89 309.56,-106.29 334.4,-82.74"/>
<polygon fill="midnightblue" stroke="midnightblue" points="337.09,-85.01 341.94,-75.59 332.28,-79.93 337.09,-85.01"/>
</g>
<!-- Node13 -->
<g id="node13" class="node">
<title>Node13</title>
<g id="a_node13"><a xlink:href="mxvector_8h.html" target="_top" xlink:title=" ">
<polygon fill="none" stroke="black" points="319,-112.5 319,-131.5 383,-131.5 383,-112.5 319,-112.5"/>
<text text-anchor="middle" x="351" y="-119.5" font-family="Helvetica,sans-Serif" font-size="10.00">mxvector.h</text>
</a>
</g>
</g>
<!-- Node12&#45;&gt;Node13 -->
<g id="edge15" class="edge">
<title>Node12&#45;&gt;Node13</title>
<path fill="none" stroke="midnightblue" d="M253.38,-168.44C272.22,-159.68 301.73,-145.94 323.38,-135.86"/>
<polygon fill="midnightblue" stroke="midnightblue" points="325.12,-138.91 332.71,-131.52 322.16,-132.56 325.12,-138.91"/>
</g>
<!-- Node14 -->
<g id="node14" class="node">
<title>Node14</title>
<g id="a_node14"><a xlink:title=" ">
<polygon fill="none" stroke="#bfbfbf" points="207,-112.5 207,-131.5 263,-131.5 263,-112.5 207,-112.5"/>
<text text-anchor="middle" x="235" y="-119.5" font-family="Helvetica,sans-Serif" font-size="10.00">algorithm</text>
</a>
</g>
</g>
<!-- Node12&#45;&gt;Node14 -->
<g id="edge17" class="edge">
<title>Node12&#45;&gt;Node14</title>
<path fill="none" stroke="midnightblue" d="M235,-168.08C235,-161.01 235,-150.86 235,-141.99"/>
<polygon fill="midnightblue" stroke="midnightblue" points="238.5,-141.75 235,-131.75 231.5,-141.75 238.5,-141.75"/>
</g>
<!-- Node13&#45;&gt;Node4 -->
<g id="edge16" class="edge">
<title>Node13&#45;&gt;Node4</title>
<path fill="none" stroke="midnightblue" d="M351,-112.08C351,-105.01 351,-94.86 351,-85.99"/>
<polygon fill="midnightblue" stroke="midnightblue" points="354.5,-85.75 351,-75.75 347.5,-85.75 354.5,-85.75"/>
</g>
<!-- Node15&#45;&gt;Node2 -->
<g id="edge27" class="edge">
<title>Node15&#45;&gt;Node2</title>
<path fill="none" stroke="midnightblue" d="M213.11,-392.32C201.85,-384.11 184.71,-371.6 171.29,-361.81"/>
<polygon fill="midnightblue" stroke="midnightblue" points="173.25,-358.9 163.11,-355.83 169.12,-364.56 173.25,-358.9"/>
</g>
<!-- Node15&#45;&gt;Node10 -->
<g id="edge33" class="edge">
<title>Node15&#45;&gt;Node10</title>
<path fill="none" stroke="midnightblue" d="M188.67,-397.31C136.01,-389.71 40.74,-366.93 4,-300 -4.73,-284.1 5.93,-264.91 16.51,-251.53"/>
<polygon fill="midnightblue" stroke="midnightblue" points="19.4,-253.53 23.25,-243.66 14.08,-248.98 19.4,-253.53"/>
</g>
<!-- Node16 -->
<g id="node16" class="node">
<title>Node16</title>
<g id="a_node16"><a xlink:href="mxopenglfunctions_8h.html" target="_top" xlink:title=" ">
<polygon fill="none" stroke="black" points="262.5,-336.5 262.5,-355.5 367.5,-355.5 367.5,-336.5 262.5,-336.5"/>
<text text-anchor="middle" x="315" y="-343.5" font-family="Helvetica,sans-Serif" font-size="10.00">mxopenglfunctions.h</text>
</a>
</g>
</g>
<!-- Node15&#45;&gt;Node16 -->
<g id="edge19" class="edge">
<title>Node15&#45;&gt;Node16</title>
<path fill="none" stroke="midnightblue" d="M239.46,-392.32C253.5,-383.9 275.05,-370.97 291.54,-361.07"/>
<polygon fill="midnightblue" stroke="midnightblue" points="293.8,-363.8 300.58,-355.65 290.2,-357.8 293.8,-363.8"/>
</g>
<!-- Node18 -->
<g id="node18" class="node">
<title>Node18</title>
<g id="a_node18"><a xlink:href="mxcolorwheelprogram_8h.html" target="_top" xlink:title=" ">
<polygon fill="none" stroke="black" points="169.5,-224.5 169.5,-243.5 288.5,-243.5 288.5,-224.5 169.5,-224.5"/>
<text text-anchor="middle" x="229" y="-231.5" font-family="Helvetica,sans-Serif" font-size="10.00">mxcolorwheelprogram.h</text>
</a>
</g>
</g>
<!-- Node15&#45;&gt;Node18 -->
<g id="edge21" class="edge">
<title>Node15&#45;&gt;Node18</title>
<path fill="none" stroke="midnightblue" d="M225.22,-392.08C225.84,-365.95 227.69,-289.21 228.55,-253.58"/>
<polygon fill="midnightblue" stroke="midnightblue" points="232.05,-253.65 228.79,-243.57 225.05,-253.48 232.05,-253.65"/>
</g>
<!-- Node19 -->
<g id="node19" class="node">
<title>Node19</title>
<g id="a_node19"><a xlink:href="mxlist_8h.html" target="_top" xlink:title=" ">
<polygon fill="none" stroke="black" points="460,-336.5 460,-355.5 510,-355.5 510,-336.5 460,-336.5"/>
<text text-anchor="middle" x="485" y="-343.5" font-family="Helvetica,sans-Serif" font-size="10.00">mxlist.h</text>
</a>
</g>
</g>
<!-- Node15&#45;&gt;Node19 -->
<g id="edge28" class="edge">
<title>Node15&#45;&gt;Node19</title>
<path fill="none" stroke="midnightblue" d="M261.15,-393.49C311.04,-383.13 400.43,-364.57 449.81,-354.31"/>
<polygon fill="midnightblue" stroke="midnightblue" points="450.63,-357.71 459.71,-352.25 449.21,-350.86 450.63,-357.71"/>
</g>
<!-- Node17 -->
<g id="node17" class="node">
<title>Node17</title>
<g id="a_node17"><a xlink:title=" ">
<polygon fill="none" stroke="#bfbfbf" points="257.5,-280.5 257.5,-299.5 382.5,-299.5 382.5,-280.5 257.5,-280.5"/>
<text text-anchor="middle" x="320" y="-287.5" font-family="Helvetica,sans-Serif" font-size="10.00">QOpenGLExtraFunctions</text>
</a>
</g>
</g>
<!-- Node16&#45;&gt;Node17 -->
<g id="edge20" class="edge">
<title>Node16&#45;&gt;Node17</title>
<path fill="none" stroke="midnightblue" d="M315.83,-336.08C316.48,-329.01 317.42,-318.86 318.24,-309.99"/>
<polygon fill="midnightblue" stroke="midnightblue" points="321.75,-310.03 319.19,-299.75 314.78,-309.39 321.75,-310.03"/>
</g>
<!-- Node18&#45;&gt;Node3 -->
<g id="edge24" class="edge">
<title>Node18&#45;&gt;Node3</title>
<path fill="none" stroke="midnightblue" d="M215.27,-224.34C201.96,-215.72 181.43,-201.81 165,-188 146.79,-172.69 127.75,-153.17 115.02,-139.54"/>
<polygon fill="midnightblue" stroke="midnightblue" points="117.32,-136.87 107.97,-131.9 112.18,-141.62 117.32,-136.87"/>
</g>
<!-- Node18&#45;&gt;Node4 -->
<g id="edge22" class="edge">
<title>Node18&#45;&gt;Node4</title>
<path fill="none" stroke="midnightblue" d="M258.79,-224.46C297.52,-211.57 363.58,-183.05 392,-132 401.75,-114.49 385.95,-95.16 371.22,-82.16"/>
<polygon fill="midnightblue" stroke="midnightblue" points="373.26,-79.31 363.32,-75.65 368.81,-84.71 373.26,-79.31"/>
</g>
<!-- Node18&#45;&gt;Node6 -->
<g id="edge23" class="edge">
<title>Node18&#45;&gt;Node6</title>
<path fill="none" stroke="midnightblue" d="M222.75,-224.21C216.48,-215.26 206.68,-200.91 199,-188 179.5,-155.19 183.64,-141.15 159,-112 148.79,-99.93 134.81,-89.09 123.02,-81.07"/>
<polygon fill="midnightblue" stroke="midnightblue" points="124.82,-78.07 114.54,-75.52 120.99,-83.93 124.82,-78.07"/>
</g>
<!-- Node18&#45;&gt;Node7 -->
<g id="edge25" class="edge">
<title>Node18&#45;&gt;Node7</title>
<path fill="none" stroke="midnightblue" d="M267.35,-224.44C311.58,-214.57 384.04,-198.4 429.55,-188.25"/>
<polygon fill="midnightblue" stroke="midnightblue" points="430.39,-191.65 439.39,-186.05 428.87,-184.82 430.39,-191.65"/>
</g>
<!-- Node18&#45;&gt;Node12 -->
<g id="edge26" class="edge">
<title>Node18&#45;&gt;Node12</title>
<path fill="none" stroke="midnightblue" d="M229.99,-224.08C230.79,-216.93 231.93,-206.64 232.92,-197.69"/>
<polygon fill="midnightblue" stroke="midnightblue" points="236.4,-198.08 234.03,-187.75 229.44,-197.3 236.4,-198.08"/>
</g>
<!-- Node19&#45;&gt;Node4 -->
<g id="edge29" class="edge">
<title>Node19&#45;&gt;Node4</title>
<path fill="none" stroke="midnightblue" d="M510.07,-338.6C530.57,-332.12 558.87,-320.13 576,-300 595.59,-276.98 596,-265.23 596,-235 596,-235 596,-235 596,-177 596,-88.97 462.73,-70.95 392.77,-67.56"/>
<polygon fill="midnightblue" stroke="midnightblue" points="392.66,-64.05 382.53,-67.15 392.38,-71.05 392.66,-64.05"/>
</g>
<!-- Node20 -->
<g id="node20" class="node">
<title>Node20</title>
<g id="a_node20"><a xlink:title=" ">
<polygon fill="none" stroke="#bfbfbf" points="520.5,-280.5 520.5,-299.5 567.5,-299.5 567.5,-280.5 520.5,-280.5"/>
<text text-anchor="middle" x="544" y="-287.5" font-family="Helvetica,sans-Serif" font-size="10.00">stdlib.h</text>
</a>
</g>
</g>
<!-- Node19&#45;&gt;Node20 -->
<g id="edge30" class="edge">
<title>Node19&#45;&gt;Node20</title>
<path fill="none" stroke="midnightblue" d="M494.48,-336.32C503.2,-328.34 516.34,-316.31 526.9,-306.65"/>
<polygon fill="midnightblue" stroke="midnightblue" points="529.33,-309.17 534.35,-299.83 524.61,-304 529.33,-309.17"/>
</g>
<!-- Node21 -->
<g id="node21" class="node">
<title>Node21</title>
<g id="a_node21"><a xlink:title=" ">
<polygon fill="none" stroke="#bfbfbf" points="401,-280.5 401,-299.5 449,-299.5 449,-280.5 401,-280.5"/>
<text text-anchor="middle" x="425" y="-287.5" font-family="Helvetica,sans-Serif" font-size="10.00">string.h</text>
</a>
</g>
</g>
<!-- Node19&#45;&gt;Node21 -->
<g id="edge31" class="edge">
<title>Node19&#45;&gt;Node21</title>
<path fill="none" stroke="midnightblue" d="M475.36,-336.32C466.49,-328.34 453.13,-316.31 442.39,-306.65"/>
<polygon fill="midnightblue" stroke="midnightblue" points="444.59,-303.92 434.82,-299.83 439.91,-309.13 444.59,-303.92"/>
</g>
<!-- Node22 -->
<g id="node22" class="node">
<title>Node22</title>
<g id="a_node22"><a xlink:title=" ">
<polygon fill="none" stroke="#bfbfbf" points="467.5,-280.5 467.5,-299.5 502.5,-299.5 502.5,-280.5 467.5,-280.5"/>
<text text-anchor="middle" x="485" y="-287.5" font-family="Helvetica,sans-Serif" font-size="10.00">new</text>
</a>
</g>
</g>
<!-- Node19&#45;&gt;Node22 -->
<g id="edge32" class="edge">
<title>Node19&#45;&gt;Node22</title>
<path fill="none" stroke="midnightblue" d="M485,-336.08C485,-329.01 485,-318.86 485,-309.99"/>
<polygon fill="midnightblue" stroke="midnightblue" points="488.5,-309.75 485,-299.75 481.5,-309.75 488.5,-309.75"/>
</g>
</g>
</svg>
