<?xml version="1.0" encoding="UTF-8" standalone="no"?>
<!DOCTYPE svg PUBLIC "-//W3C//DTD SVG 1.1//EN"
 "http://www.w3.org/Graphics/SVG/1.1/DTD/svg11.dtd">
<!-- Generated by graphviz version 2.44.0 ()
 -->
<!-- Title: src/gui/vectordraw/mxvectordraw.cpp Pages: 1 -->
<svg width="851pt" height="487pt"
 viewBox="0.00 0.00 850.50 487.00" xmlns="http://www.w3.org/2000/svg" xmlns:xlink="http://www.w3.org/1999/xlink">
<g id="graph0" class="graph" transform="scale(1 1) rotate(0) translate(4 483)">
<title>src/gui/vectordraw/mxvectordraw.cpp</title>
<!-- Node1 -->
<g id="node1" class="node">
<title>Node1</title>
<g id="a_node1"><a xlink:title=" ">
<polygon fill="#bfbfbf" stroke="black" points="79,-448.5 79,-478.5 177,-478.5 177,-448.5 79,-448.5"/>
<text text-anchor="start" x="87" y="-466.5" font-family="Helvetica,sans-Serif" font-size="10.00">src/gui/vectordraw</text>
<text text-anchor="middle" x="128" y="-455.5" font-family="Helvetica,sans-Serif" font-size="10.00">/mxvectordraw.cpp</text>
</a>
</g>
</g>
<!-- Node2 -->
<g id="node2" class="node">
<title>Node2</title>
<g id="a_node2"><a xlink:href="mxvectordraw_8h.html" target="_top" xlink:title=" ">
<polygon fill="none" stroke="black" points="98.5,-280.5 98.5,-299.5 183.5,-299.5 183.5,-280.5 98.5,-280.5"/>
<text text-anchor="middle" x="141" y="-287.5" font-family="Helvetica,sans-Serif" font-size="10.00">mxvectordraw.h</text>
</a>
</g>
</g>
<!-- Node1&#45;&gt;Node2 -->
<g id="edge1" class="edge">
<title>Node1&#45;&gt;Node2</title>
<path fill="none" stroke="midnightblue" d="M129.06,-448.47C131.4,-417.7 136.96,-344.33 139.58,-309.7"/>
<polygon fill="midnightblue" stroke="midnightblue" points="143.09,-309.8 140.35,-299.56 136.11,-309.27 143.09,-309.8"/>
</g>
<!-- Node5 -->
<g id="node5" class="node">
<title>Node5</title>
<g id="a_node5"><a xlink:href="mxopengl_8h.html" target="_top" xlink:title=" ">
<polygon fill="none" stroke="black" points="45.5,-56.5 45.5,-75.5 110.5,-75.5 110.5,-56.5 45.5,-56.5"/>
<text text-anchor="middle" x="78" y="-63.5" font-family="Helvetica,sans-Serif" font-size="10.00">mxopengl.h</text>
</a>
</g>
</g>
<!-- Node1&#45;&gt;Node5 -->
<g id="edge14" class="edge">
<title>Node1&#45;&gt;Node5</title>
<path fill="none" stroke="midnightblue" d="M92.34,-448.45C54.47,-430.91 0,-396.99 0,-347 0,-347 0,-347 0,-177 0,-136.97 34.8,-101.34 57.91,-82.09"/>
<polygon fill="midnightblue" stroke="midnightblue" points="60.2,-84.74 65.81,-75.76 55.82,-79.28 60.2,-84.74"/>
</g>
<!-- Node12 -->
<g id="node12" class="node">
<title>Node12</title>
<g id="a_node12"><a xlink:href="mxrenderer_8h.html" target="_top" xlink:title=" ">
<polygon fill="none" stroke="black" points="176,-392.5 176,-411.5 248,-411.5 248,-392.5 176,-392.5"/>
<text text-anchor="middle" x="212" y="-399.5" font-family="Helvetica,sans-Serif" font-size="10.00">mxrenderer.h</text>
</a>
</g>
</g>
<!-- Node1&#45;&gt;Node12 -->
<g id="edge15" class="edge">
<title>Node1&#45;&gt;Node12</title>
<path fill="none" stroke="midnightblue" d="M147.91,-448.4C160.99,-439.13 178.08,-427.03 191.32,-417.65"/>
<polygon fill="midnightblue" stroke="midnightblue" points="193.64,-420.29 199.78,-411.66 189.59,-414.58 193.64,-420.29"/>
</g>
<!-- Node23 -->
<g id="node23" class="node">
<title>Node23</title>
<g id="a_node23"><a xlink:title=" ">
<polygon fill="none" stroke="#bfbfbf" points="266,-392.5 266,-411.5 310,-411.5 310,-392.5 266,-392.5"/>
<text text-anchor="middle" x="288" y="-399.5" font-family="Helvetica,sans-Serif" font-size="10.00">cmath</text>
</a>
</g>
</g>
<!-- Node1&#45;&gt;Node23 -->
<g id="edge35" class="edge">
<title>Node1&#45;&gt;Node23</title>
<path fill="none" stroke="midnightblue" d="M165.92,-448.4C193.45,-438.16 230.28,-424.46 256.26,-414.8"/>
<polygon fill="midnightblue" stroke="midnightblue" points="257.49,-418.08 265.65,-411.31 255.05,-411.52 257.49,-418.08"/>
</g>
<!-- Node3 -->
<g id="node3" class="node">
<title>Node3</title>
<g id="a_node3"><a xlink:href="gpubuffer_8h.html" target="_top" xlink:title=" ">
<polygon fill="none" stroke="black" points="38,-224.5 38,-243.5 102,-243.5 102,-224.5 38,-224.5"/>
<text text-anchor="middle" x="70" y="-231.5" font-family="Helvetica,sans-Serif" font-size="10.00">gpubuffer.h</text>
</a>
</g>
</g>
<!-- Node2&#45;&gt;Node3 -->
<g id="edge2" class="edge">
<title>Node2&#45;&gt;Node3</title>
<path fill="none" stroke="midnightblue" d="M129.59,-280.32C118.89,-272.18 102.66,-259.84 89.84,-250.09"/>
<polygon fill="midnightblue" stroke="midnightblue" points="91.69,-247.1 81.61,-243.83 87.46,-252.67 91.69,-247.1"/>
</g>
<!-- Node9 -->
<g id="node9" class="node">
<title>Node9</title>
<g id="a_node9"><a xlink:href="mxrect_8h.html" target="_top" xlink:title=" ">
<polygon fill="none" stroke="black" points="230.5,-168.5 230.5,-187.5 283.5,-187.5 283.5,-168.5 230.5,-168.5"/>
<text text-anchor="middle" x="257" y="-175.5" font-family="Helvetica,sans-Serif" font-size="10.00">mxrect.h</text>
</a>
</g>
</g>
<!-- Node2&#45;&gt;Node9 -->
<g id="edge9" class="edge">
<title>Node2&#45;&gt;Node9</title>
<path fill="none" stroke="midnightblue" d="M145.91,-280.23C153.64,-266.96 169.65,-241.48 188,-224 200.95,-211.65 217.73,-200.63 231.5,-192.58"/>
<polygon fill="midnightblue" stroke="midnightblue" points="233.48,-195.47 240.46,-187.5 230.03,-189.38 233.48,-195.47"/>
</g>
<!-- Node4 -->
<g id="node4" class="node">
<title>Node4</title>
<g id="a_node4"><a xlink:href="gpuvbo_8h.html" target="_top" xlink:title=" ">
<polygon fill="none" stroke="black" points="42,-168.5 42,-187.5 98,-187.5 98,-168.5 42,-168.5"/>
<text text-anchor="middle" x="70" y="-175.5" font-family="Helvetica,sans-Serif" font-size="10.00">gpuvbo.h</text>
</a>
</g>
</g>
<!-- Node3&#45;&gt;Node4 -->
<g id="edge3" class="edge">
<title>Node3&#45;&gt;Node4</title>
<path fill="none" stroke="midnightblue" d="M70,-224.08C70,-217.01 70,-206.86 70,-197.99"/>
<polygon fill="midnightblue" stroke="midnightblue" points="73.5,-197.75 70,-187.75 66.5,-197.75 73.5,-197.75"/>
</g>
<!-- Node4&#45;&gt;Node5 -->
<g id="edge4" class="edge">
<title>Node4&#45;&gt;Node5</title>
<path fill="none" stroke="midnightblue" d="M65.88,-168.14C60.58,-155.61 52.56,-132 57,-112 59.12,-102.43 63.51,-92.48 67.72,-84.37"/>
<polygon fill="midnightblue" stroke="midnightblue" points="70.82,-86 72.62,-75.56 64.7,-82.6 70.82,-86"/>
</g>
<!-- Node6 -->
<g id="node6" class="node">
<title>Node6</title>
<g id="a_node6"><a xlink:href="mxshaderprogram_8h.html" target="_top" xlink:title=" ">
<polygon fill="none" stroke="black" points="66.5,-112.5 66.5,-131.5 167.5,-131.5 167.5,-112.5 66.5,-112.5"/>
<text text-anchor="middle" x="117" y="-119.5" font-family="Helvetica,sans-Serif" font-size="10.00">mxshaderprogram.h</text>
</a>
</g>
</g>
<!-- Node4&#45;&gt;Node6 -->
<g id="edge5" class="edge">
<title>Node4&#45;&gt;Node6</title>
<path fill="none" stroke="midnightblue" d="M77.76,-168.08C84.54,-160.3 94.54,-148.8 102.76,-139.37"/>
<polygon fill="midnightblue" stroke="midnightblue" points="105.46,-141.59 109.38,-131.75 100.18,-137 105.46,-141.59"/>
</g>
<!-- Node6&#45;&gt;Node5 -->
<g id="edge8" class="edge">
<title>Node6&#45;&gt;Node5</title>
<path fill="none" stroke="midnightblue" d="M110.56,-112.08C105.05,-104.46 96.97,-93.26 90.24,-83.94"/>
<polygon fill="midnightblue" stroke="midnightblue" points="93.01,-81.81 84.32,-75.75 87.34,-85.91 93.01,-81.81"/>
</g>
<!-- Node7 -->
<g id="node7" class="node">
<title>Node7</title>
<g id="a_node7"><a xlink:href="mxdebug_8h.html" target="_top" xlink:title=" ">
<polygon fill="none" stroke="black" points="262.5,-56.5 262.5,-75.5 325.5,-75.5 325.5,-56.5 262.5,-56.5"/>
<text text-anchor="middle" x="294" y="-63.5" font-family="Helvetica,sans-Serif" font-size="10.00">mxdebug.h</text>
</a>
</g>
</g>
<!-- Node6&#45;&gt;Node7 -->
<g id="edge6" class="edge">
<title>Node6&#45;&gt;Node7</title>
<path fill="none" stroke="midnightblue" d="M145.05,-112.44C175.08,-103.28 222.91,-88.69 256.24,-78.52"/>
<polygon fill="midnightblue" stroke="midnightblue" points="257.54,-81.78 266.09,-75.52 255.5,-75.09 257.54,-81.78"/>
</g>
<!-- Node8 -->
<g id="node8" class="node">
<title>Node8</title>
<g id="a_node8"><a xlink:title=" ">
<polygon fill="none" stroke="#bfbfbf" points="268,-0.5 268,-19.5 320,-19.5 320,-0.5 268,-0.5"/>
<text text-anchor="middle" x="294" y="-7.5" font-family="Helvetica,sans-Serif" font-size="10.00">QDebug</text>
</a>
</g>
</g>
<!-- Node7&#45;&gt;Node8 -->
<g id="edge7" class="edge">
<title>Node7&#45;&gt;Node8</title>
<path fill="none" stroke="midnightblue" d="M294,-56.08C294,-49.01 294,-38.86 294,-29.99"/>
<polygon fill="midnightblue" stroke="midnightblue" points="297.5,-29.75 294,-19.75 290.5,-29.75 297.5,-29.75"/>
</g>
<!-- Node9&#45;&gt;Node7 -->
<g id="edge10" class="edge">
<title>Node9&#45;&gt;Node7</title>
<path fill="none" stroke="midnightblue" d="M254.21,-168.23C250.61,-155.4 245.65,-130.98 253,-112 257.45,-100.5 266.37,-90.13 274.75,-82.25"/>
<polygon fill="midnightblue" stroke="midnightblue" points="277.24,-84.73 282.46,-75.51 272.63,-79.46 277.24,-84.73"/>
</g>
<!-- Node10 -->
<g id="node10" class="node">
<title>Node10</title>
<g id="a_node10"><a xlink:href="mxvector_8h.html" target="_top" xlink:title=" ">
<polygon fill="none" stroke="black" points="262,-112.5 262,-131.5 326,-131.5 326,-112.5 262,-112.5"/>
<text text-anchor="middle" x="294" y="-119.5" font-family="Helvetica,sans-Serif" font-size="10.00">mxvector.h</text>
</a>
</g>
</g>
<!-- Node9&#45;&gt;Node10 -->
<g id="edge11" class="edge">
<title>Node9&#45;&gt;Node10</title>
<path fill="none" stroke="midnightblue" d="M263.11,-168.08C268.28,-160.53 275.85,-149.49 282.19,-140.23"/>
<polygon fill="midnightblue" stroke="midnightblue" points="285.24,-141.98 288,-131.75 279.46,-138.02 285.24,-141.98"/>
</g>
<!-- Node11 -->
<g id="node11" class="node">
<title>Node11</title>
<g id="a_node11"><a xlink:title=" ">
<polygon fill="none" stroke="#bfbfbf" points="344,-112.5 344,-131.5 400,-131.5 400,-112.5 344,-112.5"/>
<text text-anchor="middle" x="372" y="-119.5" font-family="Helvetica,sans-Serif" font-size="10.00">algorithm</text>
</a>
</g>
</g>
<!-- Node9&#45;&gt;Node11 -->
<g id="edge13" class="edge">
<title>Node9&#45;&gt;Node11</title>
<path fill="none" stroke="midnightblue" d="M275.22,-168.44C293.9,-159.68 323.16,-145.94 344.62,-135.86"/>
<polygon fill="midnightblue" stroke="midnightblue" points="346.3,-138.93 353.86,-131.52 343.32,-132.6 346.3,-138.93"/>
</g>
<!-- Node10&#45;&gt;Node7 -->
<g id="edge12" class="edge">
<title>Node10&#45;&gt;Node7</title>
<path fill="none" stroke="midnightblue" d="M294,-112.08C294,-105.01 294,-94.86 294,-85.99"/>
<polygon fill="midnightblue" stroke="midnightblue" points="297.5,-85.75 294,-75.75 290.5,-85.75 297.5,-85.75"/>
</g>
<!-- Node12&#45;&gt;Node3 -->
<g id="edge34" class="edge">
<title>Node12&#45;&gt;Node3</title>
<path fill="none" stroke="midnightblue" d="M196.22,-392.34C169.98,-377.13 117.48,-343.11 89,-300 79.79,-286.05 74.95,-267.55 72.46,-253.85"/>
<polygon fill="midnightblue" stroke="midnightblue" points="75.88,-253.03 70.89,-243.68 68.96,-254.1 75.88,-253.03"/>
</g>
<!-- Node13 -->
<g id="node13" class="node">
<title>Node13</title>
<g id="a_node13"><a xlink:href="mxopenglfunctions_8h.html" target="_top" xlink:title=" ">
<polygon fill="none" stroke="black" points="453.5,-336.5 453.5,-355.5 558.5,-355.5 558.5,-336.5 453.5,-336.5"/>
<text text-anchor="middle" x="506" y="-343.5" font-family="Helvetica,sans-Serif" font-size="10.00">mxopenglfunctions.h</text>
</a>
</g>
</g>
<!-- Node12&#45;&gt;Node13 -->
<g id="edge16" class="edge">
<title>Node12&#45;&gt;Node13</title>
<path fill="none" stroke="midnightblue" d="M248.34,-393.67C251.27,-393.1 254.18,-392.54 257,-392 322,-379.63 396.71,-366.24 447.2,-357.31"/>
<polygon fill="midnightblue" stroke="midnightblue" points="448.04,-360.71 457.28,-355.53 446.83,-353.82 448.04,-360.71"/>
</g>
<!-- Node15 -->
<g id="node15" class="node">
<title>Node15</title>
<g id="a_node15"><a xlink:href="mxcolorwheelprogram_8h.html" target="_top" xlink:title=" ">
<polygon fill="none" stroke="black" points="197.5,-224.5 197.5,-243.5 316.5,-243.5 316.5,-224.5 197.5,-224.5"/>
<text text-anchor="middle" x="257" y="-231.5" font-family="Helvetica,sans-Serif" font-size="10.00">mxcolorwheelprogram.h</text>
</a>
</g>
</g>
<!-- Node12&#45;&gt;Node15 -->
<g id="edge18" class="edge">
<title>Node12&#45;&gt;Node15</title>
<path fill="none" stroke="midnightblue" d="M214.42,-392.08C221.5,-365.95 242.3,-289.21 251.96,-253.58"/>
<polygon fill="midnightblue" stroke="midnightblue" points="255.44,-254.14 254.68,-243.57 248.68,-252.3 255.44,-254.14"/>
</g>
<!-- Node18 -->
<g id="node18" class="node">
<title>Node18</title>
<g id="a_node18"><a xlink:href="mxvectorprogram_8h.html" target="_top" xlink:title=" ">
<polygon fill="none" stroke="black" points="240.5,-336.5 240.5,-355.5 339.5,-355.5 339.5,-336.5 240.5,-336.5"/>
<text text-anchor="middle" x="290" y="-343.5" font-family="Helvetica,sans-Serif" font-size="10.00">mxvectorprogram.h</text>
</a>
</g>
</g>
<!-- Node12&#45;&gt;Node18 -->
<g id="edge25" class="edge">
<title>Node12&#45;&gt;Node18</title>
<path fill="none" stroke="midnightblue" d="M224.53,-392.32C236.59,-383.98 255.03,-371.21 269.27,-361.35"/>
<polygon fill="midnightblue" stroke="midnightblue" points="271.27,-364.22 277.5,-355.65 267.28,-358.47 271.27,-364.22"/>
</g>
<!-- Node19 -->
<g id="node19" class="node">
<title>Node19</title>
<g id="a_node19"><a xlink:href="mxlist_8h.html" target="_top" xlink:title=" ">
<polygon fill="none" stroke="black" points="674,-336.5 674,-355.5 724,-355.5 724,-336.5 674,-336.5"/>
<text text-anchor="middle" x="699" y="-343.5" font-family="Helvetica,sans-Serif" font-size="10.00">mxlist.h</text>
</a>
</g>
</g>
<!-- Node12&#45;&gt;Node19 -->
<g id="edge29" class="edge">
<title>Node12&#45;&gt;Node19</title>
<path fill="none" stroke="midnightblue" d="M248.3,-393.43C251.24,-392.91 254.16,-392.43 257,-392 407.48,-369.34 588.55,-354.88 663.67,-349.44"/>
<polygon fill="midnightblue" stroke="midnightblue" points="664.25,-352.91 673.97,-348.7 663.75,-345.93 664.25,-352.91"/>
</g>
<!-- Node14 -->
<g id="node14" class="node">
<title>Node14</title>
<g id="a_node14"><a xlink:title=" ">
<polygon fill="none" stroke="#bfbfbf" points="532.5,-280.5 532.5,-299.5 657.5,-299.5 657.5,-280.5 532.5,-280.5"/>
<text text-anchor="middle" x="595" y="-287.5" font-family="Helvetica,sans-Serif" font-size="10.00">QOpenGLExtraFunctions</text>
</a>
</g>
</g>
<!-- Node13&#45;&gt;Node14 -->
<g id="edge17" class="edge">
<title>Node13&#45;&gt;Node14</title>
<path fill="none" stroke="midnightblue" d="M520.3,-336.32C534.18,-327.9 555.49,-314.97 571.8,-305.07"/>
<polygon fill="midnightblue" stroke="midnightblue" points="574,-307.83 580.74,-299.65 570.37,-301.85 574,-307.83"/>
</g>
<!-- Node15&#45;&gt;Node5 -->
<g id="edge20" class="edge">
<title>Node15&#45;&gt;Node5</title>
<path fill="none" stroke="midnightblue" d="M249.45,-224.32C241.89,-215.46 230.1,-201.17 221,-188 198.68,-155.71 205.16,-138.28 176,-112 159.34,-96.99 136.82,-86.18 117.57,-78.92"/>
<polygon fill="midnightblue" stroke="midnightblue" points="118.73,-75.62 108.13,-75.54 116.37,-82.21 118.73,-75.62"/>
</g>
<!-- Node15&#45;&gt;Node6 -->
<g id="edge21" class="edge">
<title>Node15&#45;&gt;Node6</title>
<path fill="none" stroke="midnightblue" d="M242.26,-224.35C227.95,-215.74 205.86,-201.85 188,-188 168.13,-172.59 147.09,-152.84 133.12,-139.17"/>
<polygon fill="midnightblue" stroke="midnightblue" points="135.34,-136.45 125.77,-131.91 130.42,-141.43 135.34,-136.45"/>
</g>
<!-- Node15&#45;&gt;Node7 -->
<g id="edge19" class="edge">
<title>Node15&#45;&gt;Node7</title>
<path fill="none" stroke="midnightblue" d="M283.31,-224.43C319.27,-211.12 382.35,-181.7 409,-132 426.65,-99.09 375.32,-81.75 335.62,-73.48"/>
<polygon fill="midnightblue" stroke="midnightblue" points="336.06,-70 325.58,-71.53 334.72,-76.88 336.06,-70"/>
</g>
<!-- Node15&#45;&gt;Node9 -->
<g id="edge24" class="edge">
<title>Node15&#45;&gt;Node9</title>
<path fill="none" stroke="midnightblue" d="M257,-224.08C257,-217.01 257,-206.86 257,-197.99"/>
<polygon fill="midnightblue" stroke="midnightblue" points="260.5,-197.75 257,-187.75 253.5,-197.75 260.5,-197.75"/>
</g>
<!-- Node16 -->
<g id="node16" class="node">
<title>Node16</title>
<g id="a_node16"><a xlink:href="mxmatrix_8h.html" target="_top" xlink:title=" ">
<polygon fill="none" stroke="black" points="494.5,-168.5 494.5,-187.5 557.5,-187.5 557.5,-168.5 494.5,-168.5"/>
<text text-anchor="middle" x="526" y="-175.5" font-family="Helvetica,sans-Serif" font-size="10.00">mxmatrix.h</text>
</a>
</g>
</g>
<!-- Node15&#45;&gt;Node16 -->
<g id="edge22" class="edge">
<title>Node15&#45;&gt;Node16</title>
<path fill="none" stroke="midnightblue" d="M299.62,-224.44C350.21,-214.29 434.02,-197.47 484.23,-187.39"/>
<polygon fill="midnightblue" stroke="midnightblue" points="484.99,-190.8 494.11,-185.4 483.61,-183.94 484.99,-190.8"/>
</g>
<!-- Node17 -->
<g id="node17" class="node">
<title>Node17</title>
<g id="a_node17"><a xlink:title=" ">
<polygon fill="none" stroke="#bfbfbf" points="494.5,-112.5 494.5,-131.5 559.5,-131.5 559.5,-112.5 494.5,-112.5"/>
<text text-anchor="middle" x="527" y="-119.5" font-family="Helvetica,sans-Serif" font-size="10.00">QMatrix4x4</text>
</a>
</g>
</g>
<!-- Node16&#45;&gt;Node17 -->
<g id="edge23" class="edge">
<title>Node16&#45;&gt;Node17</title>
<path fill="none" stroke="midnightblue" d="M526.17,-168.08C526.3,-161.01 526.48,-150.86 526.65,-141.99"/>
<polygon fill="midnightblue" stroke="midnightblue" points="530.15,-141.81 526.84,-131.75 523.15,-141.68 530.15,-141.81"/>
</g>
<!-- Node18&#45;&gt;Node2 -->
<g id="edge28" class="edge">
<title>Node18&#45;&gt;Node2</title>
<path fill="none" stroke="midnightblue" d="M266.39,-336.44C241.54,-327.44 202.23,-313.19 174.25,-303.05"/>
<polygon fill="midnightblue" stroke="midnightblue" points="175.09,-299.63 164.5,-299.52 172.71,-306.21 175.09,-299.63"/>
</g>
<!-- Node18&#45;&gt;Node6 -->
<g id="edge26" class="edge">
<title>Node18&#45;&gt;Node6</title>
<path fill="none" stroke="midnightblue" d="M279.57,-336.3C260.05,-319.71 217.35,-281.79 188,-244 161.59,-210 137.8,-165.27 125.61,-140.83"/>
<polygon fill="midnightblue" stroke="midnightblue" points="128.67,-139.13 121.12,-131.69 122.38,-142.21 128.67,-139.13"/>
</g>
<!-- Node18&#45;&gt;Node16 -->
<g id="edge27" class="edge">
<title>Node18&#45;&gt;Node16</title>
<path fill="none" stroke="midnightblue" d="M302.36,-336.31C340.67,-309.36 457.75,-227.01 505.45,-193.46"/>
<polygon fill="midnightblue" stroke="midnightblue" points="507.6,-196.22 513.77,-187.61 503.57,-190.5 507.6,-196.22"/>
</g>
<!-- Node19&#45;&gt;Node7 -->
<g id="edge30" class="edge">
<title>Node19&#45;&gt;Node7</title>
<path fill="none" stroke="midnightblue" d="M673.62,-344.5C613.23,-341.85 466,-326.03 466,-235 466,-235 466,-235 466,-177 466,-115.19 386.2,-86.55 335.31,-74.57"/>
<polygon fill="midnightblue" stroke="midnightblue" points="336.07,-71.15 325.55,-72.39 334.54,-77.98 336.07,-71.15"/>
</g>
<!-- Node20 -->
<g id="node20" class="node">
<title>Node20</title>
<g id="a_node20"><a xlink:title=" ">
<polygon fill="none" stroke="#bfbfbf" points="675.5,-280.5 675.5,-299.5 722.5,-299.5 722.5,-280.5 675.5,-280.5"/>
<text text-anchor="middle" x="699" y="-287.5" font-family="Helvetica,sans-Serif" font-size="10.00">stdlib.h</text>
</a>
</g>
</g>
<!-- Node19&#45;&gt;Node20 -->
<g id="edge31" class="edge">
<title>Node19&#45;&gt;Node20</title>
<path fill="none" stroke="midnightblue" d="M699,-336.08C699,-329.01 699,-318.86 699,-309.99"/>
<polygon fill="midnightblue" stroke="midnightblue" points="702.5,-309.75 699,-299.75 695.5,-309.75 702.5,-309.75"/>
</g>
<!-- Node21 -->
<g id="node21" class="node">
<title>Node21</title>
<g id="a_node21"><a xlink:title=" ">
<polygon fill="none" stroke="#bfbfbf" points="741,-280.5 741,-299.5 789,-299.5 789,-280.5 741,-280.5"/>
<text text-anchor="middle" x="765" y="-287.5" font-family="Helvetica,sans-Serif" font-size="10.00">string.h</text>
</a>
</g>
</g>
<!-- Node19&#45;&gt;Node21 -->
<g id="edge32" class="edge">
<title>Node19&#45;&gt;Node21</title>
<path fill="none" stroke="midnightblue" d="M709.6,-336.32C719.46,-328.26 734.35,-316.08 746.22,-306.37"/>
<polygon fill="midnightblue" stroke="midnightblue" points="748.68,-308.88 754.2,-299.83 744.25,-303.46 748.68,-308.88"/>
</g>
<!-- Node22 -->
<g id="node22" class="node">
<title>Node22</title>
<g id="a_node22"><a xlink:title=" ">
<polygon fill="none" stroke="#bfbfbf" points="807.5,-280.5 807.5,-299.5 842.5,-299.5 842.5,-280.5 807.5,-280.5"/>
<text text-anchor="middle" x="825" y="-287.5" font-family="Helvetica,sans-Serif" font-size="10.00">new</text>
</a>
</g>
</g>
<!-- Node19&#45;&gt;Node22 -->
<g id="edge33" class="edge">
<title>Node19&#45;&gt;Node22</title>
<path fill="none" stroke="midnightblue" d="M718.97,-336.44C740.22,-327.34 773.98,-312.86 797.69,-302.71"/>
<polygon fill="midnightblue" stroke="midnightblue" points="799.35,-305.8 807.17,-298.64 796.6,-299.37 799.35,-305.8"/>
</g>
</g>
</svg>
