<?xml version="1.0" encoding="UTF-8" standalone="no"?>
<!DOCTYPE svg PUBLIC "-//W3C//DTD SVG 1.1//EN"
 "http://www.w3.org/Graphics/SVG/1.1/DTD/svg11.dtd">
<!-- Generated by graphviz version 2.44.0 ()
 -->
<!-- Title: src/gui/vectordraw/mxvectorprogram.h Pages: 1 -->
<svg width="342pt" height="375pt"
 viewBox="0.00 0.00 341.50 375.00" xmlns="http://www.w3.org/2000/svg" xmlns:xlink="http://www.w3.org/1999/xlink">
<g id="graph0" class="graph" transform="scale(1 1) rotate(0) translate(4 371)">
<title>src/gui/vectordraw/mxvectorprogram.h</title>
<!-- Node1 -->
<g id="node1" class="node">
<title>Node1</title>
<g id="a_node1"><a xlink:title=" ">
<polygon fill="#bfbfbf" stroke="black" points="88.5,-336.5 88.5,-366.5 190.5,-366.5 190.5,-336.5 88.5,-336.5"/>
<text text-anchor="start" x="96.5" y="-354.5" font-family="Helvetica,sans-Serif" font-size="10.00">src/gui/vectordraw</text>
<text text-anchor="middle" x="139.5" y="-343.5" font-family="Helvetica,sans-Serif" font-size="10.00">/mxvectorprogram.h</text>
</a>
</g>
</g>
<!-- Node2 -->
<g id="node2" class="node">
<title>Node2</title>
<g id="a_node2"><a xlink:href="mxshaderprogram_8h.html" target="_top" xlink:title=" ">
<polygon fill="none" stroke="black" points="0,-112.5 0,-131.5 101,-131.5 101,-112.5 0,-112.5"/>
<text text-anchor="middle" x="50.5" y="-119.5" font-family="Helvetica,sans-Serif" font-size="10.00">mxshaderprogram.h</text>
</a>
</g>
</g>
<!-- Node1&#45;&gt;Node2 -->
<g id="edge1" class="edge">
<title>Node1&#45;&gt;Node2</title>
<path fill="none" stroke="midnightblue" d="M120.5,-336.38C109.51,-327.21 96.34,-314.32 88.5,-300 59.88,-247.72 52.81,-175.77 51.07,-141.98"/>
<polygon fill="midnightblue" stroke="midnightblue" points="54.55,-141.56 50.65,-131.71 47.56,-141.84 54.55,-141.56"/>
</g>
<!-- Node6 -->
<g id="node6" class="node">
<title>Node6</title>
<g id="a_node6"><a xlink:href="mxmatrix_8h.html" target="_top" xlink:title=" ">
<polygon fill="none" stroke="black" points="204,-280.5 204,-299.5 267,-299.5 267,-280.5 204,-280.5"/>
<text text-anchor="middle" x="235.5" y="-287.5" font-family="Helvetica,sans-Serif" font-size="10.00">mxmatrix.h</text>
</a>
</g>
</g>
<!-- Node1&#45;&gt;Node6 -->
<g id="edge5" class="edge">
<title>Node1&#45;&gt;Node6</title>
<path fill="none" stroke="midnightblue" d="M162.25,-336.4C177.49,-326.95 197.49,-314.56 212.74,-305.11"/>
<polygon fill="midnightblue" stroke="midnightblue" points="214.88,-307.9 221.53,-299.66 211.19,-301.95 214.88,-307.9"/>
</g>
<!-- Node8 -->
<g id="node8" class="node">
<title>Node8</title>
<g id="a_node8"><a xlink:href="mxvectordraw_8h.html" target="_top" xlink:title=" ">
<polygon fill="none" stroke="black" points="97,-280.5 97,-299.5 182,-299.5 182,-280.5 97,-280.5"/>
<text text-anchor="middle" x="139.5" y="-287.5" font-family="Helvetica,sans-Serif" font-size="10.00">mxvectordraw.h</text>
</a>
</g>
</g>
<!-- Node1&#45;&gt;Node8 -->
<g id="edge7" class="edge">
<title>Node1&#45;&gt;Node8</title>
<path fill="none" stroke="midnightblue" d="M139.5,-336.4C139.5,-328.47 139.5,-318.46 139.5,-309.86"/>
<polygon fill="midnightblue" stroke="midnightblue" points="143,-309.66 139.5,-299.66 136,-309.66 143,-309.66"/>
</g>
<!-- Node3 -->
<g id="node3" class="node">
<title>Node3</title>
<g id="a_node3"><a xlink:href="mxdebug_8h.html" target="_top" xlink:title=" ">
<polygon fill="none" stroke="black" points="158,-56.5 158,-75.5 221,-75.5 221,-56.5 158,-56.5"/>
<text text-anchor="middle" x="189.5" y="-63.5" font-family="Helvetica,sans-Serif" font-size="10.00">mxdebug.h</text>
</a>
</g>
</g>
<!-- Node2&#45;&gt;Node3 -->
<g id="edge2" class="edge">
<title>Node2&#45;&gt;Node3</title>
<path fill="none" stroke="midnightblue" d="M72.52,-112.44C95.6,-103.48 132.06,-89.31 158.14,-79.18"/>
<polygon fill="midnightblue" stroke="midnightblue" points="159.52,-82.4 167.58,-75.52 156.99,-75.88 159.52,-82.4"/>
</g>
<!-- Node5 -->
<g id="node5" class="node">
<title>Node5</title>
<g id="a_node5"><a xlink:href="mxopengl_8h.html" target="_top" xlink:title=" ">
<polygon fill="none" stroke="black" points="47,-56.5 47,-75.5 112,-75.5 112,-56.5 47,-56.5"/>
<text text-anchor="middle" x="79.5" y="-63.5" font-family="Helvetica,sans-Serif" font-size="10.00">mxopengl.h</text>
</a>
</g>
</g>
<!-- Node2&#45;&gt;Node5 -->
<g id="edge4" class="edge">
<title>Node2&#45;&gt;Node5</title>
<path fill="none" stroke="midnightblue" d="M55.29,-112.08C59.26,-104.69 65.03,-93.95 69.93,-84.81"/>
<polygon fill="midnightblue" stroke="midnightblue" points="73.15,-86.22 74.8,-75.75 66.99,-82.91 73.15,-86.22"/>
</g>
<!-- Node4 -->
<g id="node4" class="node">
<title>Node4</title>
<g id="a_node4"><a xlink:title=" ">
<polygon fill="none" stroke="#bfbfbf" points="163.5,-0.5 163.5,-19.5 215.5,-19.5 215.5,-0.5 163.5,-0.5"/>
<text text-anchor="middle" x="189.5" y="-7.5" font-family="Helvetica,sans-Serif" font-size="10.00">QDebug</text>
</a>
</g>
</g>
<!-- Node3&#45;&gt;Node4 -->
<g id="edge3" class="edge">
<title>Node3&#45;&gt;Node4</title>
<path fill="none" stroke="midnightblue" d="M189.5,-56.08C189.5,-49.01 189.5,-38.86 189.5,-29.99"/>
<polygon fill="midnightblue" stroke="midnightblue" points="193,-29.75 189.5,-19.75 186,-29.75 193,-29.75"/>
</g>
<!-- Node7 -->
<g id="node7" class="node">
<title>Node7</title>
<g id="a_node7"><a xlink:title=" ">
<polygon fill="none" stroke="#bfbfbf" points="211,-224.5 211,-243.5 276,-243.5 276,-224.5 211,-224.5"/>
<text text-anchor="middle" x="243.5" y="-231.5" font-family="Helvetica,sans-Serif" font-size="10.00">QMatrix4x4</text>
</a>
</g>
</g>
<!-- Node6&#45;&gt;Node7 -->
<g id="edge6" class="edge">
<title>Node6&#45;&gt;Node7</title>
<path fill="none" stroke="midnightblue" d="M236.82,-280.08C237.88,-272.93 239.41,-262.64 240.73,-253.69"/>
<polygon fill="midnightblue" stroke="midnightblue" points="244.2,-254.16 242.2,-243.75 237.28,-253.13 244.2,-254.16"/>
</g>
<!-- Node9 -->
<g id="node9" class="node">
<title>Node9</title>
<g id="a_node9"><a xlink:href="gpubuffer_8h.html" target="_top" xlink:title=" ">
<polygon fill="none" stroke="black" points="90.5,-224.5 90.5,-243.5 154.5,-243.5 154.5,-224.5 90.5,-224.5"/>
<text text-anchor="middle" x="122.5" y="-231.5" font-family="Helvetica,sans-Serif" font-size="10.00">gpubuffer.h</text>
</a>
</g>
</g>
<!-- Node8&#45;&gt;Node9 -->
<g id="edge8" class="edge">
<title>Node8&#45;&gt;Node9</title>
<path fill="none" stroke="midnightblue" d="M136.69,-280.08C134.42,-272.85 131.13,-262.41 128.29,-253.4"/>
<polygon fill="midnightblue" stroke="midnightblue" points="131.6,-252.24 125.25,-243.75 124.92,-254.34 131.6,-252.24"/>
</g>
<!-- Node11 -->
<g id="node11" class="node">
<title>Node11</title>
<g id="a_node11"><a xlink:href="mxrect_8h.html" target="_top" xlink:title=" ">
<polygon fill="none" stroke="black" points="170,-168.5 170,-187.5 223,-187.5 223,-168.5 170,-168.5"/>
<text text-anchor="middle" x="196.5" y="-175.5" font-family="Helvetica,sans-Serif" font-size="10.00">mxrect.h</text>
</a>
</g>
</g>
<!-- Node8&#45;&gt;Node11 -->
<g id="edge12" class="edge">
<title>Node8&#45;&gt;Node11</title>
<path fill="none" stroke="midnightblue" d="M144.15,-280.4C149.03,-271.36 156.88,-256.72 163.5,-244 171.71,-228.23 180.84,-210.2 187.42,-197.14"/>
<polygon fill="midnightblue" stroke="midnightblue" points="190.71,-198.37 192.07,-187.86 184.46,-195.23 190.71,-198.37"/>
</g>
<!-- Node10 -->
<g id="node10" class="node">
<title>Node10</title>
<g id="a_node10"><a xlink:href="gpuvbo_8h.html" target="_top" xlink:title=" ">
<polygon fill="none" stroke="black" points="94.5,-168.5 94.5,-187.5 150.5,-187.5 150.5,-168.5 94.5,-168.5"/>
<text text-anchor="middle" x="122.5" y="-175.5" font-family="Helvetica,sans-Serif" font-size="10.00">gpuvbo.h</text>
</a>
</g>
</g>
<!-- Node9&#45;&gt;Node10 -->
<g id="edge9" class="edge">
<title>Node9&#45;&gt;Node10</title>
<path fill="none" stroke="midnightblue" d="M122.5,-224.08C122.5,-217.01 122.5,-206.86 122.5,-197.99"/>
<polygon fill="midnightblue" stroke="midnightblue" points="126,-197.75 122.5,-187.75 119,-197.75 126,-197.75"/>
</g>
<!-- Node10&#45;&gt;Node2 -->
<g id="edge11" class="edge">
<title>Node10&#45;&gt;Node2</title>
<path fill="none" stroke="midnightblue" d="M110.93,-168.32C100.08,-160.18 83.62,-147.84 70.62,-138.09"/>
<polygon fill="midnightblue" stroke="midnightblue" points="72.38,-135.03 62.28,-131.83 68.18,-140.63 72.38,-135.03"/>
</g>
<!-- Node10&#45;&gt;Node5 -->
<g id="edge10" class="edge">
<title>Node10&#45;&gt;Node5</title>
<path fill="none" stroke="midnightblue" d="M122.05,-168.26C121.13,-155.46 118.41,-131.08 110.5,-112 106.29,-101.83 99.52,-91.64 93.39,-83.53"/>
<polygon fill="midnightblue" stroke="midnightblue" points="96.09,-81.3 87.13,-75.65 90.61,-85.65 96.09,-81.3"/>
</g>
<!-- Node11&#45;&gt;Node3 -->
<g id="edge13" class="edge">
<title>Node11&#45;&gt;Node3</title>
<path fill="none" stroke="midnightblue" d="M206.33,-168.46C219.05,-156.31 238.69,-133.14 230.5,-112 226.05,-100.5 217.13,-90.13 208.75,-82.25"/>
<polygon fill="midnightblue" stroke="midnightblue" points="210.87,-79.46 201.04,-75.51 206.26,-84.73 210.87,-79.46"/>
</g>
<!-- Node12 -->
<g id="node12" class="node">
<title>Node12</title>
<g id="a_node12"><a xlink:href="mxvector_8h.html" target="_top" xlink:title=" ">
<polygon fill="none" stroke="black" points="157.5,-112.5 157.5,-131.5 221.5,-131.5 221.5,-112.5 157.5,-112.5"/>
<text text-anchor="middle" x="189.5" y="-119.5" font-family="Helvetica,sans-Serif" font-size="10.00">mxvector.h</text>
</a>
</g>
</g>
<!-- Node11&#45;&gt;Node12 -->
<g id="edge14" class="edge">
<title>Node11&#45;&gt;Node12</title>
<path fill="none" stroke="midnightblue" d="M195.34,-168.08C194.42,-160.93 193.08,-150.64 191.92,-141.69"/>
<polygon fill="midnightblue" stroke="midnightblue" points="195.39,-141.22 190.63,-131.75 188.45,-142.12 195.39,-141.22"/>
</g>
<!-- Node13 -->
<g id="node13" class="node">
<title>Node13</title>
<g id="a_node13"><a xlink:title=" ">
<polygon fill="none" stroke="#bfbfbf" points="277.5,-112.5 277.5,-131.5 333.5,-131.5 333.5,-112.5 277.5,-112.5"/>
<text text-anchor="middle" x="305.5" y="-119.5" font-family="Helvetica,sans-Serif" font-size="10.00">algorithm</text>
</a>
</g>
</g>
<!-- Node11&#45;&gt;Node13 -->
<g id="edge16" class="edge">
<title>Node11&#45;&gt;Node13</title>
<path fill="none" stroke="midnightblue" d="M214.01,-168.32C231.57,-159.62 258.83,-146.12 279.03,-136.11"/>
<polygon fill="midnightblue" stroke="midnightblue" points="280.62,-139.23 288.03,-131.65 277.52,-132.96 280.62,-139.23"/>
</g>
<!-- Node12&#45;&gt;Node3 -->
<g id="edge15" class="edge">
<title>Node12&#45;&gt;Node3</title>
<path fill="none" stroke="midnightblue" d="M189.5,-112.08C189.5,-105.01 189.5,-94.86 189.5,-85.99"/>
<polygon fill="midnightblue" stroke="midnightblue" points="193,-85.75 189.5,-75.75 186,-85.75 193,-85.75"/>
</g>
</g>
</svg>
