<?xml version="1.0" encoding="UTF-8" standalone="no"?>
<!DOCTYPE svg PUBLIC "-//W3C//DTD SVG 1.1//EN"
 "http://www.w3.org/Graphics/SVG/1.1/DTD/svg11.dtd">
<!-- Generated by graphviz version 2.44.0 ()
 -->
<!-- Title: src/gui/vectordraw/mxvectorprogram.h Pages: 1 -->
<svg width="342pt" height="319pt"
 viewBox="0.00 0.00 341.50 319.00" xmlns="http://www.w3.org/2000/svg" xmlns:xlink="http://www.w3.org/1999/xlink">
<g id="graph0" class="graph" transform="scale(1 1) rotate(0) translate(4 315)">
<title>src/gui/vectordraw/mxvectorprogram.h</title>
<!-- Node1 -->
<g id="node1" class="node">
<title>Node1</title>
<g id="a_node1"><a xlink:title=" ">
<polygon fill="#bfbfbf" stroke="black" points="88.5,-280.5 88.5,-310.5 190.5,-310.5 190.5,-280.5 88.5,-280.5"/>
<text text-anchor="start" x="96.5" y="-298.5" font-family="Helvetica,sans-Serif" font-size="10.00">src/gui/vectordraw</text>
<text text-anchor="middle" x="139.5" y="-287.5" font-family="Helvetica,sans-Serif" font-size="10.00">/mxvectorprogram.h</text>
</a>
</g>
</g>
<!-- Node2 -->
<g id="node2" class="node">
<title>Node2</title>
<g id="a_node2"><a xlink:href="mxshaderprogram_8h.html" target="_top" xlink:title=" ">
<polygon fill="none" stroke="black" points="0,-56.5 0,-75.5 101,-75.5 101,-56.5 0,-56.5"/>
<text text-anchor="middle" x="50.5" y="-63.5" font-family="Helvetica,sans-Serif" font-size="10.00">mxshaderprogram.h</text>
</a>
</g>
</g>
<!-- Node1&#45;&gt;Node2 -->
<g id="edge1" class="edge">
<title>Node1&#45;&gt;Node2</title>
<path fill="none" stroke="midnightblue" d="M120.5,-280.38C109.51,-271.21 96.34,-258.32 88.5,-244 59.88,-191.72 52.81,-119.77 51.07,-85.98"/>
<polygon fill="midnightblue" stroke="midnightblue" points="54.55,-85.56 50.65,-75.71 47.56,-85.84 54.55,-85.56"/>
</g>
<!-- Node5 -->
<g id="node5" class="node">
<title>Node5</title>
<g id="a_node5"><a xlink:href="mxmatrix_8h.html" target="_top" xlink:title=" ">
<polygon fill="none" stroke="black" points="204,-224.5 204,-243.5 267,-243.5 267,-224.5 204,-224.5"/>
<text text-anchor="middle" x="235.5" y="-231.5" font-family="Helvetica,sans-Serif" font-size="10.00">mxmatrix.h</text>
</a>
</g>
</g>
<!-- Node1&#45;&gt;Node5 -->
<g id="edge4" class="edge">
<title>Node1&#45;&gt;Node5</title>
<path fill="none" stroke="midnightblue" d="M162.25,-280.4C177.49,-270.95 197.49,-258.56 212.74,-249.11"/>
<polygon fill="midnightblue" stroke="midnightblue" points="214.88,-251.9 221.53,-243.66 211.19,-245.95 214.88,-251.9"/>
</g>
<!-- Node7 -->
<g id="node7" class="node">
<title>Node7</title>
<g id="a_node7"><a xlink:href="mxvectordraw_8h.html" target="_top" xlink:title=" ">
<polygon fill="none" stroke="black" points="97,-224.5 97,-243.5 182,-243.5 182,-224.5 97,-224.5"/>
<text text-anchor="middle" x="139.5" y="-231.5" font-family="Helvetica,sans-Serif" font-size="10.00">mxvectordraw.h</text>
</a>
</g>
</g>
<!-- Node1&#45;&gt;Node7 -->
<g id="edge6" class="edge">
<title>Node1&#45;&gt;Node7</title>
<path fill="none" stroke="midnightblue" d="M139.5,-280.4C139.5,-272.47 139.5,-262.46 139.5,-253.86"/>
<polygon fill="midnightblue" stroke="midnightblue" points="143,-253.66 139.5,-243.66 136,-253.66 143,-253.66"/>
</g>
<!-- Node3 -->
<g id="node3" class="node">
<title>Node3</title>
<g id="a_node3"><a xlink:title=" ">
<polygon fill="none" stroke="#bfbfbf" points="158,-0.5 158,-19.5 221,-19.5 221,-0.5 158,-0.5"/>
<text text-anchor="middle" x="189.5" y="-7.5" font-family="Helvetica,sans-Serif" font-size="10.00">mxdebug.h</text>
</a>
</g>
</g>
<!-- Node2&#45;&gt;Node3 -->
<g id="edge2" class="edge">
<title>Node2&#45;&gt;Node3</title>
<path fill="none" stroke="midnightblue" d="M72.52,-56.44C95.6,-47.48 132.06,-33.31 158.14,-23.18"/>
<polygon fill="midnightblue" stroke="midnightblue" points="159.52,-26.4 167.58,-19.52 156.99,-19.88 159.52,-26.4"/>
</g>
<!-- Node4 -->
<g id="node4" class="node">
<title>Node4</title>
<g id="a_node4"><a xlink:href="mxopengl_8h.html" target="_top" xlink:title=" ">
<polygon fill="none" stroke="black" points="47,-0.5 47,-19.5 112,-19.5 112,-0.5 47,-0.5"/>
<text text-anchor="middle" x="79.5" y="-7.5" font-family="Helvetica,sans-Serif" font-size="10.00">mxopengl.h</text>
</a>
</g>
</g>
<!-- Node2&#45;&gt;Node4 -->
<g id="edge3" class="edge">
<title>Node2&#45;&gt;Node4</title>
<path fill="none" stroke="midnightblue" d="M55.29,-56.08C59.26,-48.69 65.03,-37.95 69.93,-28.81"/>
<polygon fill="midnightblue" stroke="midnightblue" points="73.15,-30.22 74.8,-19.75 66.99,-26.91 73.15,-30.22"/>
</g>
<!-- Node6 -->
<g id="node6" class="node">
<title>Node6</title>
<g id="a_node6"><a xlink:title=" ">
<polygon fill="none" stroke="#bfbfbf" points="211,-168.5 211,-187.5 276,-187.5 276,-168.5 211,-168.5"/>
<text text-anchor="middle" x="243.5" y="-175.5" font-family="Helvetica,sans-Serif" font-size="10.00">QMatrix4x4</text>
</a>
</g>
</g>
<!-- Node5&#45;&gt;Node6 -->
<g id="edge5" class="edge">
<title>Node5&#45;&gt;Node6</title>
<path fill="none" stroke="midnightblue" d="M236.82,-224.08C237.88,-216.93 239.41,-206.64 240.73,-197.69"/>
<polygon fill="midnightblue" stroke="midnightblue" points="244.2,-198.16 242.2,-187.75 237.28,-197.13 244.2,-198.16"/>
</g>
<!-- Node8 -->
<g id="node8" class="node">
<title>Node8</title>
<g id="a_node8"><a xlink:href="gpubuffer_8h.html" target="_top" xlink:title=" ">
<polygon fill="none" stroke="black" points="90.5,-168.5 90.5,-187.5 154.5,-187.5 154.5,-168.5 90.5,-168.5"/>
<text text-anchor="middle" x="122.5" y="-175.5" font-family="Helvetica,sans-Serif" font-size="10.00">gpubuffer.h</text>
</a>
</g>
</g>
<!-- Node7&#45;&gt;Node8 -->
<g id="edge7" class="edge">
<title>Node7&#45;&gt;Node8</title>
<path fill="none" stroke="midnightblue" d="M136.69,-224.08C134.42,-216.85 131.13,-206.41 128.29,-197.4"/>
<polygon fill="midnightblue" stroke="midnightblue" points="131.6,-196.24 125.25,-187.75 124.92,-198.34 131.6,-196.24"/>
</g>
<!-- Node10 -->
<g id="node10" class="node">
<title>Node10</title>
<g id="a_node10"><a xlink:href="mxrect_8h.html" target="_top" xlink:title=" ">
<polygon fill="none" stroke="black" points="170,-112.5 170,-131.5 223,-131.5 223,-112.5 170,-112.5"/>
<text text-anchor="middle" x="196.5" y="-119.5" font-family="Helvetica,sans-Serif" font-size="10.00">mxrect.h</text>
</a>
</g>
</g>
<!-- Node7&#45;&gt;Node10 -->
<g id="edge11" class="edge">
<title>Node7&#45;&gt;Node10</title>
<path fill="none" stroke="midnightblue" d="M144.15,-224.4C149.03,-215.36 156.88,-200.72 163.5,-188 171.71,-172.23 180.84,-154.2 187.42,-141.14"/>
<polygon fill="midnightblue" stroke="midnightblue" points="190.71,-142.37 192.07,-131.86 184.46,-139.23 190.71,-142.37"/>
</g>
<!-- Node9 -->
<g id="node9" class="node">
<title>Node9</title>
<g id="a_node9"><a xlink:href="gpuvbo_8h.html" target="_top" xlink:title=" ">
<polygon fill="none" stroke="black" points="94.5,-112.5 94.5,-131.5 150.5,-131.5 150.5,-112.5 94.5,-112.5"/>
<text text-anchor="middle" x="122.5" y="-119.5" font-family="Helvetica,sans-Serif" font-size="10.00">gpuvbo.h</text>
</a>
</g>
</g>
<!-- Node8&#45;&gt;Node9 -->
<g id="edge8" class="edge">
<title>Node8&#45;&gt;Node9</title>
<path fill="none" stroke="midnightblue" d="M122.5,-168.08C122.5,-161.01 122.5,-150.86 122.5,-141.99"/>
<polygon fill="midnightblue" stroke="midnightblue" points="126,-141.75 122.5,-131.75 119,-141.75 126,-141.75"/>
</g>
<!-- Node9&#45;&gt;Node2 -->
<g id="edge10" class="edge">
<title>Node9&#45;&gt;Node2</title>
<path fill="none" stroke="midnightblue" d="M110.93,-112.32C100.08,-104.18 83.62,-91.84 70.62,-82.09"/>
<polygon fill="midnightblue" stroke="midnightblue" points="72.38,-79.03 62.28,-75.83 68.18,-84.63 72.38,-79.03"/>
</g>
<!-- Node9&#45;&gt;Node4 -->
<g id="edge9" class="edge">
<title>Node9&#45;&gt;Node4</title>
<path fill="none" stroke="midnightblue" d="M122.05,-112.26C121.13,-99.46 118.41,-75.08 110.5,-56 106.29,-45.83 99.52,-35.64 93.39,-27.53"/>
<polygon fill="midnightblue" stroke="midnightblue" points="96.09,-25.3 87.13,-19.65 90.61,-29.65 96.09,-25.3"/>
</g>
<!-- Node10&#45;&gt;Node3 -->
<g id="edge12" class="edge">
<title>Node10&#45;&gt;Node3</title>
<path fill="none" stroke="midnightblue" d="M206.33,-112.46C219.05,-100.31 238.69,-77.14 230.5,-56 226.05,-44.5 217.13,-34.13 208.75,-26.25"/>
<polygon fill="midnightblue" stroke="midnightblue" points="210.87,-23.46 201.04,-19.51 206.26,-28.73 210.87,-23.46"/>
</g>
<!-- Node11 -->
<g id="node11" class="node">
<title>Node11</title>
<g id="a_node11"><a xlink:href="mxvector_8h.html" target="_top" xlink:title=" ">
<polygon fill="none" stroke="black" points="157.5,-56.5 157.5,-75.5 221.5,-75.5 221.5,-56.5 157.5,-56.5"/>
<text text-anchor="middle" x="189.5" y="-63.5" font-family="Helvetica,sans-Serif" font-size="10.00">mxvector.h</text>
</a>
</g>
</g>
<!-- Node10&#45;&gt;Node11 -->
<g id="edge13" class="edge">
<title>Node10&#45;&gt;Node11</title>
<path fill="none" stroke="midnightblue" d="M195.34,-112.08C194.42,-104.93 193.08,-94.64 191.92,-85.69"/>
<polygon fill="midnightblue" stroke="midnightblue" points="195.39,-85.22 190.63,-75.75 188.45,-86.12 195.39,-85.22"/>
</g>
<!-- Node12 -->
<g id="node12" class="node">
<title>Node12</title>
<g id="a_node12"><a xlink:title=" ">
<polygon fill="none" stroke="#bfbfbf" points="277.5,-56.5 277.5,-75.5 333.5,-75.5 333.5,-56.5 277.5,-56.5"/>
<text text-anchor="middle" x="305.5" y="-63.5" font-family="Helvetica,sans-Serif" font-size="10.00">algorithm</text>
</a>
</g>
</g>
<!-- Node10&#45;&gt;Node12 -->
<g id="edge15" class="edge">
<title>Node10&#45;&gt;Node12</title>
<path fill="none" stroke="midnightblue" d="M214.01,-112.32C231.57,-103.62 258.83,-90.12 279.03,-80.11"/>
<polygon fill="midnightblue" stroke="midnightblue" points="280.62,-83.23 288.03,-75.65 277.52,-76.96 280.62,-83.23"/>
</g>
<!-- Node11&#45;&gt;Node3 -->
<g id="edge14" class="edge">
<title>Node11&#45;&gt;Node3</title>
<path fill="none" stroke="midnightblue" d="M189.5,-56.08C189.5,-49.01 189.5,-38.86 189.5,-29.99"/>
<polygon fill="midnightblue" stroke="midnightblue" points="193,-29.75 189.5,-19.75 186,-29.75 193,-29.75"/>
</g>
</g>
</svg>
