<?xml version="1.0" encoding="UTF-8" standalone="no"?>
<!DOCTYPE svg PUBLIC "-//W3C//DTD SVG 1.1//EN"
 "http://www.w3.org/Graphics/SVG/1.1/DTD/svg11.dtd">
<!-- Generated by graphviz version 2.44.0 ()
 -->
<!-- Title: src/gui/mxvectordraw.h Pages: 1 -->
<svg width="1381pt" height="296pt"
 viewBox="0.00 0.00 1380.50 296.00" xmlns="http://www.w3.org/2000/svg" xmlns:xlink="http://www.w3.org/1999/xlink">
<g id="graph0" class="graph" transform="scale(1 1) rotate(0) translate(4 292)">
<title>src/gui/mxvectordraw.h</title>
<!-- Node1 -->
<g id="node1" class="node">
<title>Node1</title>
<g id="a_node1"><a xlink:title=" ">
<polygon fill="#bfbfbf" stroke="black" points="514,-268.5 514,-287.5 631,-287.5 631,-268.5 514,-268.5"/>
<text text-anchor="middle" x="572.5" y="-275.5" font-family="Helvetica,sans-Serif" font-size="10.00">src/gui/mxvectordraw.h</text>
</a>
</g>
</g>
<!-- Node2 -->
<g id="node2" class="node">
<title>Node2</title>
<g id="a_node2"><a xlink:href="mxpainter_8h.html" target="_top" xlink:title=" ">
<polygon fill="none" stroke="black" points="261.5,-207 261.5,-226 359.5,-226 359.5,-207 261.5,-207"/>
<text text-anchor="middle" x="310.5" y="-214" font-family="Helvetica,sans-Serif" font-size="10.00">src/gui/mxpainter.h</text>
</a>
</g>
</g>
<!-- Node1&#45;&gt;Node2 -->
<g id="edge1" class="edge">
<title>Node1&#45;&gt;Node2</title>
<path fill="none" stroke="midnightblue" d="M525.2,-266.26C474.38,-254.72 394.63,-236.61 347.97,-226.01"/>
<polygon fill="midnightblue" stroke="midnightblue" points="524.43,-269.67 534.96,-268.48 525.99,-262.85 524.43,-269.67"/>
</g>
<!-- Node8 -->
<g id="node8" class="node">
<title>Node8</title>
<g id="a_node8"><a xlink:href="mxsvgpainter_8cpp.html" target="_top" xlink:title=" ">
<polygon fill="none" stroke="black" points="383,-140 383,-159 508,-159 508,-140 383,-140"/>
<text text-anchor="middle" x="445.5" y="-147" font-family="Helvetica,sans-Serif" font-size="10.00">src/gui/mxsvgpainter.cpp</text>
</a>
</g>
</g>
<!-- Node1&#45;&gt;Node8 -->
<g id="edge8" class="edge">
<title>Node1&#45;&gt;Node8</title>
<path fill="none" stroke="midnightblue" d="M548.09,-263.07C534.98,-254.95 519,-243.96 506.5,-232 482.11,-208.66 460.16,-174.78 450.58,-159.08"/>
<polygon fill="midnightblue" stroke="midnightblue" points="546.67,-266.3 557.04,-268.45 550.28,-260.3 546.67,-266.3"/>
</g>
<!-- Node9 -->
<g id="node9" class="node">
<title>Node9</title>
<g id="a_node9"><a xlink:href="mxsvgpainter_8h.html" target="_top" xlink:title=" ">
<polygon fill="none" stroke="black" points="515.5,-207 515.5,-226 629.5,-226 629.5,-207 515.5,-207"/>
<text text-anchor="middle" x="572.5" y="-214" font-family="Helvetica,sans-Serif" font-size="10.00">src/gui/mxsvgpainter.h</text>
</a>
</g>
</g>
<!-- Node1&#45;&gt;Node9 -->
<g id="edge9" class="edge">
<title>Node1&#45;&gt;Node9</title>
<path fill="none" stroke="midnightblue" d="M572.5,-258.32C572.5,-247.5 572.5,-234.4 572.5,-226.01"/>
<polygon fill="midnightblue" stroke="midnightblue" points="569,-258.48 572.5,-268.48 576,-258.48 569,-258.48"/>
</g>
<!-- Node13 -->
<g id="node13" class="node">
<title>Node13</title>
<g id="a_node13"><a xlink:href="mxvectordraw_8cpp.html" target="_top" xlink:title=" ">
<polygon fill="none" stroke="black" points="647.5,-207 647.5,-226 775.5,-226 775.5,-207 647.5,-207"/>
<text text-anchor="middle" x="711.5" y="-214" font-family="Helvetica,sans-Serif" font-size="10.00">src/gui/mxvectordraw.cpp</text>
</a>
</g>
</g>
<!-- Node1&#45;&gt;Node13 -->
<g id="edge15" class="edge">
<title>Node1&#45;&gt;Node13</title>
<path fill="none" stroke="midnightblue" d="M601.75,-264.48C628.75,-252.92 668.1,-236.08 691.62,-226.01"/>
<polygon fill="midnightblue" stroke="midnightblue" points="600.23,-261.32 592.42,-268.48 602.99,-267.76 600.23,-261.32"/>
</g>
<!-- Node14 -->
<g id="node14" class="node">
<title>Node14</title>
<g id="a_node14"><a xlink:href="mxvectorprogram_8h.html" target="_top" xlink:title=" ">
<polygon fill="none" stroke="black" points="1043,-201.5 1043,-231.5 1210,-231.5 1210,-201.5 1043,-201.5"/>
<text text-anchor="start" x="1051" y="-219.5" font-family="Helvetica,sans-Serif" font-size="10.00">src/renderer/opengl</text>
<text text-anchor="middle" x="1126.5" y="-208.5" font-family="Helvetica,sans-Serif" font-size="10.00">/vectorprogram/mxvectorprogram.h</text>
</a>
</g>
</g>
<!-- Node1&#45;&gt;Node14 -->
<g id="edge16" class="edge">
<title>Node1&#45;&gt;Node14</title>
<path fill="none" stroke="midnightblue" d="M641.15,-269.63C742.76,-258.71 932.97,-238.29 1042.67,-226.5"/>
<polygon fill="midnightblue" stroke="midnightblue" points="640.57,-266.17 631,-270.72 641.32,-273.13 640.57,-266.17"/>
</g>
<!-- Node3 -->
<g id="node3" class="node">
<title>Node3</title>
<g id="a_node3"><a xlink:href="mxapplication_8h.html" target="_top" xlink:title=" ">
<polygon fill="none" stroke="black" points="105.5,-140 105.5,-159 237.5,-159 237.5,-140 105.5,-140"/>
<text text-anchor="middle" x="171.5" y="-147" font-family="Helvetica,sans-Serif" font-size="10.00">src/events/mxapplication.h</text>
</a>
</g>
</g>
<!-- Node2&#45;&gt;Node3 -->
<g id="edge2" class="edge">
<title>Node2&#45;&gt;Node3</title>
<path fill="none" stroke="midnightblue" d="M282.94,-202.61C255.41,-189.74 213.85,-170.31 190.03,-159.17"/>
<polygon fill="midnightblue" stroke="midnightblue" points="281.5,-205.8 292.04,-206.87 284.47,-199.46 281.5,-205.8"/>
</g>
<!-- Node7 -->
<g id="node7" class="node">
<title>Node7</title>
<g id="a_node7"><a xlink:href="mxpainter_8cpp.html" target="_top" xlink:title=" ">
<polygon fill="none" stroke="black" points="256,-140 256,-159 365,-159 365,-140 256,-140"/>
<text text-anchor="middle" x="310.5" y="-147" font-family="Helvetica,sans-Serif" font-size="10.00">src/gui/mxpainter.cpp</text>
</a>
</g>
</g>
<!-- Node2&#45;&gt;Node7 -->
<g id="edge7" class="edge">
<title>Node2&#45;&gt;Node7</title>
<path fill="none" stroke="midnightblue" d="M310.5,-196.54C310.5,-184.17 310.5,-168.62 310.5,-159.13"/>
<polygon fill="midnightblue" stroke="midnightblue" points="307,-196.73 310.5,-206.73 314,-196.73 307,-196.73"/>
</g>
<!-- Node4 -->
<g id="node4" class="node">
<title>Node4</title>
<g id="a_node4"><a xlink:href="mxapplication_8cpp.html" target="_top" xlink:title=" ">
<polygon fill="none" stroke="black" points="0,-73 0,-92 143,-92 143,-73 0,-73"/>
<text text-anchor="middle" x="71.5" y="-80" font-family="Helvetica,sans-Serif" font-size="10.00">src/events/mxapplication.cpp</text>
</a>
</g>
</g>
<!-- Node3&#45;&gt;Node4 -->
<g id="edge3" class="edge">
<title>Node3&#45;&gt;Node4</title>
<path fill="none" stroke="midnightblue" d="M149.61,-134.27C129.81,-121.4 101.31,-102.88 84.77,-92.13"/>
<polygon fill="midnightblue" stroke="midnightblue" points="147.72,-137.22 158.01,-139.73 151.54,-131.35 147.72,-137.22"/>
</g>
<!-- Node5 -->
<g id="node5" class="node">
<title>Node5</title>
<g id="a_node5"><a xlink:href="qmewawindow_8cpp.html" target="_top" xlink:title=" ">
<polygon fill="none" stroke="black" points="156.5,-0.5 156.5,-30.5 272.5,-30.5 272.5,-0.5 156.5,-0.5"/>
<text text-anchor="start" x="164.5" y="-18.5" font-family="Helvetica,sans-Serif" font-size="10.00">src/platformabstraction</text>
<text text-anchor="middle" x="214.5" y="-7.5" font-family="Helvetica,sans-Serif" font-size="10.00">/qt/qmewawindow.cpp</text>
</a>
</g>
</g>
<!-- Node3&#45;&gt;Node5 -->
<g id="edge4" class="edge">
<title>Node3&#45;&gt;Node5</title>
<path fill="none" stroke="midnightblue" d="M174.7,-129.64C177.83,-112.91 183.18,-87.95 190.5,-67 194.92,-54.35 201.55,-40.67 206.72,-30.74"/>
<polygon fill="midnightblue" stroke="midnightblue" points="171.21,-129.3 172.9,-139.76 178.1,-130.53 171.21,-129.3"/>
</g>
<!-- Node6 -->
<g id="node6" class="node">
<title>Node6</title>
<g id="a_node6"><a xlink:href="qmewawindow_8h.html" target="_top" xlink:title=" ">
<polygon fill="none" stroke="black" points="199.5,-67.5 199.5,-97.5 315.5,-97.5 315.5,-67.5 199.5,-67.5"/>
<text text-anchor="start" x="207.5" y="-85.5" font-family="Helvetica,sans-Serif" font-size="10.00">src/platformabstraction</text>
<text text-anchor="middle" x="257.5" y="-74.5" font-family="Helvetica,sans-Serif" font-size="10.00">/qt/qmewawindow.h</text>
</a>
</g>
</g>
<!-- Node3&#45;&gt;Node6 -->
<g id="edge5" class="edge">
<title>Node3&#45;&gt;Node6</title>
<path fill="none" stroke="midnightblue" d="M191.29,-133.54C205.6,-122.73 224.82,-108.2 238.86,-97.59"/>
<polygon fill="midnightblue" stroke="midnightblue" points="188.97,-130.91 183.1,-139.73 193.19,-136.5 188.97,-130.91"/>
</g>
<!-- Node6&#45;&gt;Node5 -->
<g id="edge6" class="edge">
<title>Node6&#45;&gt;Node5</title>
<path fill="none" stroke="midnightblue" d="M242.53,-58.87C236.3,-49.46 229.27,-38.83 223.81,-30.58"/>
<polygon fill="midnightblue" stroke="midnightblue" points="239.73,-60.99 248.17,-67.4 245.57,-57.12 239.73,-60.99"/>
</g>
<!-- Node9&#45;&gt;Node7 -->
<g id="edge10" class="edge">
<title>Node9&#45;&gt;Node7</title>
<path fill="none" stroke="midnightblue" d="M528.1,-204.48C476.42,-191.66 392.17,-170.76 345.1,-159.08"/>
<polygon fill="midnightblue" stroke="midnightblue" points="527.43,-207.92 537.98,-206.94 529.12,-201.13 527.43,-207.92"/>
</g>
<!-- Node9&#45;&gt;Node8 -->
<g id="edge11" class="edge">
<title>Node9&#45;&gt;Node8</title>
<path fill="none" stroke="midnightblue" d="M546.66,-202.27C521.5,-189.4 484.01,-170.21 462.43,-159.17"/>
<polygon fill="midnightblue" stroke="midnightblue" points="545.14,-205.43 555.64,-206.87 548.33,-199.2 545.14,-205.43"/>
</g>
<!-- Node10 -->
<g id="node10" class="node">
<title>Node10</title>
<g id="a_node10"><a xlink:href="downarrowsvg_8cpp.html" target="_top" xlink:title=" ">
<polygon fill="none" stroke="black" points="526,-140 526,-159 701,-159 701,-140 526,-140"/>
<text text-anchor="middle" x="613.5" y="-147" font-family="Helvetica,sans-Serif" font-size="10.00">src/svg&#45;drawings/downarrowsvg.cpp</text>
</a>
</g>
</g>
<!-- Node9&#45;&gt;Node10 -->
<g id="edge12" class="edge">
<title>Node9&#45;&gt;Node10</title>
<path fill="none" stroke="midnightblue" d="M583.52,-198.03C591.45,-185.45 601.83,-169.01 608.06,-159.13"/>
<polygon fill="midnightblue" stroke="midnightblue" points="580.4,-196.41 578.03,-206.73 586.32,-200.14 580.4,-196.41"/>
</g>
<!-- Node11 -->
<g id="node11" class="node">
<title>Node11</title>
<g id="a_node11"><a xlink:href="heartsvg_8cpp.html" target="_top" xlink:title=" ">
<polygon fill="none" stroke="black" points="719,-140 719,-159 868,-159 868,-140 719,-140"/>
<text text-anchor="middle" x="793.5" y="-147" font-family="Helvetica,sans-Serif" font-size="10.00">src/svg&#45;drawings/heartsvg.cpp</text>
</a>
</g>
</g>
<!-- Node9&#45;&gt;Node11 -->
<g id="edge13" class="edge">
<title>Node9&#45;&gt;Node11</title>
<path fill="none" stroke="midnightblue" d="M611.57,-204.01C655.31,-191.15 725.18,-170.59 764.38,-159.06"/>
<polygon fill="midnightblue" stroke="midnightblue" points="610.45,-200.69 601.85,-206.87 612.43,-207.4 610.45,-200.69"/>
</g>
<!-- Node12 -->
<g id="node12" class="node">
<title>Node12</title>
<g id="a_node12"><a xlink:href="plusminussvg_8cpp.html" target="_top" xlink:title=" ">
<polygon fill="none" stroke="black" points="886.5,-140 886.5,-159 1058.5,-159 1058.5,-140 886.5,-140"/>
<text text-anchor="middle" x="972.5" y="-147" font-family="Helvetica,sans-Serif" font-size="10.00">src/svg&#45;drawings/plusminussvg.cpp</text>
</a>
</g>
</g>
<!-- Node9&#45;&gt;Node12 -->
<g id="edge14" class="edge">
<title>Node9&#45;&gt;Node12</title>
<path fill="none" stroke="midnightblue" d="M619.36,-204.8C625.78,-203.46 632.29,-202.15 638.5,-201 640.2,-200.68 821.44,-173.31 916.19,-159"/>
<polygon fill="midnightblue" stroke="midnightblue" points="618.46,-201.42 609.41,-206.94 619.93,-208.26 618.46,-201.42"/>
</g>
<!-- Node15 -->
<g id="node15" class="node">
<title>Node15</title>
<g id="a_node15"><a xlink:href="opengl_2mxrenderer_8h.html" target="_top" xlink:title=" ">
<polygon fill="none" stroke="black" points="1076.5,-134.5 1076.5,-164.5 1176.5,-164.5 1176.5,-134.5 1076.5,-134.5"/>
<text text-anchor="start" x="1084.5" y="-152.5" font-family="Helvetica,sans-Serif" font-size="10.00">src/renderer/opengl</text>
<text text-anchor="middle" x="1126.5" y="-141.5" font-family="Helvetica,sans-Serif" font-size="10.00">/mxrenderer.h</text>
</a>
</g>
</g>
<!-- Node14&#45;&gt;Node15 -->
<g id="edge17" class="edge">
<title>Node14&#45;&gt;Node15</title>
<path fill="none" stroke="midnightblue" d="M1126.5,-191.11C1126.5,-182.15 1126.5,-172.32 1126.5,-164.58"/>
<polygon fill="midnightblue" stroke="midnightblue" points="1123,-191.4 1126.5,-201.4 1130,-191.4 1123,-191.4"/>
</g>
<!-- Node19 -->
<g id="node19" class="node">
<title>Node19</title>
<g id="a_node19"><a xlink:href="mxvectorprogram_8cpp.html" target="_top" xlink:title=" ">
<polygon fill="none" stroke="black" points="1194.5,-134.5 1194.5,-164.5 1372.5,-164.5 1372.5,-134.5 1194.5,-134.5"/>
<text text-anchor="start" x="1202.5" y="-152.5" font-family="Helvetica,sans-Serif" font-size="10.00">src/renderer/opengl</text>
<text text-anchor="middle" x="1283.5" y="-141.5" font-family="Helvetica,sans-Serif" font-size="10.00">/vectorprogram/mxvectorprogram.cpp</text>
</a>
</g>
</g>
<!-- Node14&#45;&gt;Node19 -->
<g id="edge21" class="edge">
<title>Node14&#45;&gt;Node19</title>
<path fill="none" stroke="midnightblue" d="M1169.87,-197.54C1194.99,-187.14 1226.16,-174.24 1249.5,-164.58"/>
<polygon fill="midnightblue" stroke="midnightblue" points="1168.47,-194.34 1160.57,-201.4 1171.14,-200.8 1168.47,-194.34"/>
</g>
<!-- Node16 -->
<g id="node16" class="node">
<title>Node16</title>
<g id="a_node16"><a xlink:href="opengl_2mxgpuarray_8cpp.html" target="_top" xlink:title=" ">
<polygon fill="none" stroke="black" points="957.5,-67.5 957.5,-97.5 1057.5,-97.5 1057.5,-67.5 957.5,-67.5"/>
<text text-anchor="start" x="965.5" y="-85.5" font-family="Helvetica,sans-Serif" font-size="10.00">src/renderer/opengl</text>
<text text-anchor="middle" x="1007.5" y="-74.5" font-family="Helvetica,sans-Serif" font-size="10.00">/mxgpuarray.cpp</text>
</a>
</g>
</g>
<!-- Node15&#45;&gt;Node16 -->
<g id="edge18" class="edge">
<title>Node15&#45;&gt;Node16</title>
<path fill="none" stroke="midnightblue" d="M1091.85,-129.57C1073.13,-119.35 1050.41,-106.94 1033.27,-97.58"/>
<polygon fill="midnightblue" stroke="midnightblue" points="1090.22,-132.67 1100.68,-134.4 1093.58,-126.53 1090.22,-132.67"/>
</g>
<!-- Node17 -->
<g id="node17" class="node">
<title>Node17</title>
<g id="a_node17"><a xlink:href="opengl_2mxgpuprogram_8cpp.html" target="_top" xlink:title=" ">
<polygon fill="none" stroke="black" points="1076,-67.5 1076,-97.5 1177,-97.5 1177,-67.5 1076,-67.5"/>
<text text-anchor="start" x="1084" y="-85.5" font-family="Helvetica,sans-Serif" font-size="10.00">src/renderer/opengl</text>
<text text-anchor="middle" x="1126.5" y="-74.5" font-family="Helvetica,sans-Serif" font-size="10.00">/mxgpuprogram.cpp</text>
</a>
</g>
</g>
<!-- Node15&#45;&gt;Node17 -->
<g id="edge19" class="edge">
<title>Node15&#45;&gt;Node17</title>
<path fill="none" stroke="midnightblue" d="M1126.5,-124.11C1126.5,-115.15 1126.5,-105.32 1126.5,-97.58"/>
<polygon fill="midnightblue" stroke="midnightblue" points="1123,-124.4 1126.5,-134.4 1130,-124.4 1123,-124.4"/>
</g>
<!-- Node18 -->
<g id="node18" class="node">
<title>Node18</title>
<g id="a_node18"><a xlink:href="opengl_2mxrenderer_8cpp.html" target="_top" xlink:title=" ">
<polygon fill="none" stroke="black" points="1195.5,-67.5 1195.5,-97.5 1295.5,-97.5 1295.5,-67.5 1195.5,-67.5"/>
<text text-anchor="start" x="1203.5" y="-85.5" font-family="Helvetica,sans-Serif" font-size="10.00">src/renderer/opengl</text>
<text text-anchor="middle" x="1245.5" y="-74.5" font-family="Helvetica,sans-Serif" font-size="10.00">/mxrenderer.cpp</text>
</a>
</g>
</g>
<!-- Node15&#45;&gt;Node18 -->
<g id="edge20" class="edge">
<title>Node15&#45;&gt;Node18</title>
<path fill="none" stroke="midnightblue" d="M1161.15,-129.57C1179.87,-119.35 1202.59,-106.94 1219.73,-97.58"/>
<polygon fill="midnightblue" stroke="midnightblue" points="1159.42,-126.53 1152.32,-134.4 1162.78,-132.67 1159.42,-126.53"/>
</g>
</g>
</svg>
