<?xml version="1.0" encoding="UTF-8" standalone="no"?>
<!DOCTYPE svg PUBLIC "-//W3C//DTD SVG 1.1//EN"
 "http://www.w3.org/Graphics/SVG/1.1/DTD/svg11.dtd">
<!-- Generated by graphviz version 2.44.0 ()
 -->
<!-- Title: src/renderer/opengl/vectordraw/mxvectordraw.cpp Pages: 1 -->
<svg width="428pt" height="263pt"
 viewBox="0.00 0.00 427.50 263.00" xmlns="http://www.w3.org/2000/svg" xmlns:xlink="http://www.w3.org/1999/xlink">
<g id="graph0" class="graph" transform="scale(1 1) rotate(0) translate(4 259)">
<title>src/renderer/opengl/vectordraw/mxvectordraw.cpp</title>
<!-- Node1 -->
<g id="node1" class="node">
<title>Node1</title>
<g id="a_node1"><a xlink:title=" ">
<polygon fill="#bfbfbf" stroke="black" points="167,-224.5 167,-254.5 316,-254.5 316,-224.5 167,-224.5"/>
<text text-anchor="start" x="175" y="-242.5" font-family="Helvetica,sans-Serif" font-size="10.00">src/renderer/opengl</text>
<text text-anchor="middle" x="241.5" y="-231.5" font-family="Helvetica,sans-Serif" font-size="10.00">/vectordraw/mxvectordraw.cpp</text>
</a>
</g>
</g>
<!-- Node2 -->
<g id="node2" class="node">
<title>Node2</title>
<g id="a_node2"><a xlink:href="mxvectordraw_8h.html" target="_top" xlink:title=" ">
<polygon fill="none" stroke="black" points="19,-168.5 19,-187.5 104,-187.5 104,-168.5 19,-168.5"/>
<text text-anchor="middle" x="61.5" y="-175.5" font-family="Helvetica,sans-Serif" font-size="10.00">mxvectordraw.h</text>
</a>
</g>
</g>
<!-- Node1&#45;&gt;Node2 -->
<g id="edge1" class="edge">
<title>Node1&#45;&gt;Node2</title>
<path fill="none" stroke="midnightblue" d="M198.84,-224.4C167.87,-214.16 126.45,-200.47 97.22,-190.81"/>
<polygon fill="midnightblue" stroke="midnightblue" points="98.02,-187.39 87.43,-187.57 95.83,-194.03 98.02,-187.39"/>
</g>
<!-- Node7 -->
<g id="node7" class="node">
<title>Node7</title>
<g id="a_node7"><a xlink:href="mxopengl_8h.html" target="_top" xlink:title=" ">
<polygon fill="none" stroke="black" points="122,-168.5 122,-187.5 187,-187.5 187,-168.5 122,-168.5"/>
<text text-anchor="middle" x="154.5" y="-175.5" font-family="Helvetica,sans-Serif" font-size="10.00">mxopengl.h</text>
</a>
</g>
</g>
<!-- Node1&#45;&gt;Node7 -->
<g id="edge7" class="edge">
<title>Node1&#45;&gt;Node7</title>
<path fill="none" stroke="midnightblue" d="M220.88,-224.4C207.2,-215.04 189.29,-202.79 175.52,-193.38"/>
<polygon fill="midnightblue" stroke="midnightblue" points="177.39,-190.41 167.16,-187.66 173.44,-196.19 177.39,-190.41"/>
</g>
<!-- Node8 -->
<g id="node8" class="node">
<title>Node8</title>
<g id="a_node8"><a xlink:title=" ">
<polygon fill="none" stroke="#bfbfbf" points="205.5,-168.5 205.5,-187.5 277.5,-187.5 277.5,-168.5 205.5,-168.5"/>
<text text-anchor="middle" x="241.5" y="-175.5" font-family="Helvetica,sans-Serif" font-size="10.00">mxrenderer.h</text>
</a>
</g>
</g>
<!-- Node1&#45;&gt;Node8 -->
<g id="edge8" class="edge">
<title>Node1&#45;&gt;Node8</title>
<path fill="none" stroke="midnightblue" d="M241.5,-224.4C241.5,-216.47 241.5,-206.46 241.5,-197.86"/>
<polygon fill="midnightblue" stroke="midnightblue" points="245,-197.66 241.5,-187.66 238,-197.66 245,-197.66"/>
</g>
<!-- Node9 -->
<g id="node9" class="node">
<title>Node9</title>
<g id="a_node9"><a xlink:href="mxbuffer_8h.html" target="_top" xlink:title=" ">
<polygon fill="none" stroke="black" points="296,-168.5 296,-187.5 357,-187.5 357,-168.5 296,-168.5"/>
<text text-anchor="middle" x="326.5" y="-175.5" font-family="Helvetica,sans-Serif" font-size="10.00">mxbuffer.h</text>
</a>
</g>
</g>
<!-- Node1&#45;&gt;Node9 -->
<g id="edge9" class="edge">
<title>Node1&#45;&gt;Node9</title>
<path fill="none" stroke="midnightblue" d="M261.64,-224.4C274.89,-215.13 292.18,-203.03 305.58,-193.65"/>
<polygon fill="midnightblue" stroke="midnightblue" points="307.95,-196.26 314.13,-187.66 303.93,-190.53 307.95,-196.26"/>
</g>
<!-- Node10 -->
<g id="node10" class="node">
<title>Node10</title>
<g id="a_node10"><a xlink:title=" ">
<polygon fill="none" stroke="#bfbfbf" points="375.5,-168.5 375.5,-187.5 419.5,-187.5 419.5,-168.5 375.5,-168.5"/>
<text text-anchor="middle" x="397.5" y="-175.5" font-family="Helvetica,sans-Serif" font-size="10.00">cmath</text>
</a>
</g>
</g>
<!-- Node1&#45;&gt;Node10 -->
<g id="edge10" class="edge">
<title>Node1&#45;&gt;Node10</title>
<path fill="none" stroke="midnightblue" d="M278.47,-224.4C305.04,-214.27 340.48,-200.75 365.77,-191.1"/>
<polygon fill="midnightblue" stroke="midnightblue" points="367.16,-194.32 375.26,-187.48 364.66,-187.78 367.16,-194.32"/>
</g>
<!-- Node3 -->
<g id="node3" class="node">
<title>Node3</title>
<g id="a_node3"><a xlink:href="mxrect_8h.html" target="_top" xlink:title=" ">
<polygon fill="none" stroke="black" points="35,-112.5 35,-131.5 88,-131.5 88,-112.5 35,-112.5"/>
<text text-anchor="middle" x="61.5" y="-119.5" font-family="Helvetica,sans-Serif" font-size="10.00">mxrect.h</text>
</a>
</g>
</g>
<!-- Node2&#45;&gt;Node3 -->
<g id="edge2" class="edge">
<title>Node2&#45;&gt;Node3</title>
<path fill="none" stroke="midnightblue" d="M61.5,-168.08C61.5,-161.01 61.5,-150.86 61.5,-141.99"/>
<polygon fill="midnightblue" stroke="midnightblue" points="65,-141.75 61.5,-131.75 58,-141.75 65,-141.75"/>
</g>
<!-- Node4 -->
<g id="node4" class="node">
<title>Node4</title>
<g id="a_node4"><a xlink:title=" ">
<polygon fill="none" stroke="#bfbfbf" points="0,-0.5 0,-19.5 63,-19.5 63,-0.5 0,-0.5"/>
<text text-anchor="middle" x="31.5" y="-7.5" font-family="Helvetica,sans-Serif" font-size="10.00">mxdebug.h</text>
</a>
</g>
</g>
<!-- Node3&#45;&gt;Node4 -->
<g id="edge3" class="edge">
<title>Node3&#45;&gt;Node4</title>
<path fill="none" stroke="midnightblue" d="M49.96,-112.49C40.02,-104.38 26.38,-91.18 20.5,-76 14.63,-60.84 18.66,-42.49 23.41,-29.16"/>
<polygon fill="midnightblue" stroke="midnightblue" points="26.73,-30.29 27.2,-19.71 20.23,-27.69 26.73,-30.29"/>
</g>
<!-- Node5 -->
<g id="node5" class="node">
<title>Node5</title>
<g id="a_node5"><a xlink:href="mxvector_8h.html" target="_top" xlink:title=" ">
<polygon fill="none" stroke="black" points="29.5,-56.5 29.5,-75.5 93.5,-75.5 93.5,-56.5 29.5,-56.5"/>
<text text-anchor="middle" x="61.5" y="-63.5" font-family="Helvetica,sans-Serif" font-size="10.00">mxvector.h</text>
</a>
</g>
</g>
<!-- Node3&#45;&gt;Node5 -->
<g id="edge4" class="edge">
<title>Node3&#45;&gt;Node5</title>
<path fill="none" stroke="midnightblue" d="M61.5,-112.08C61.5,-105.01 61.5,-94.86 61.5,-85.99"/>
<polygon fill="midnightblue" stroke="midnightblue" points="65,-85.75 61.5,-75.75 58,-85.75 65,-85.75"/>
</g>
<!-- Node6 -->
<g id="node6" class="node">
<title>Node6</title>
<g id="a_node6"><a xlink:title=" ">
<polygon fill="none" stroke="#bfbfbf" points="111.5,-56.5 111.5,-75.5 167.5,-75.5 167.5,-56.5 111.5,-56.5"/>
<text text-anchor="middle" x="139.5" y="-63.5" font-family="Helvetica,sans-Serif" font-size="10.00">algorithm</text>
</a>
</g>
</g>
<!-- Node3&#45;&gt;Node6 -->
<g id="edge6" class="edge">
<title>Node3&#45;&gt;Node6</title>
<path fill="none" stroke="midnightblue" d="M74.03,-112.32C86.09,-103.98 104.53,-91.21 118.77,-81.35"/>
<polygon fill="midnightblue" stroke="midnightblue" points="120.77,-84.22 127,-75.65 116.78,-78.47 120.77,-84.22"/>
</g>
<!-- Node5&#45;&gt;Node4 -->
<g id="edge5" class="edge">
<title>Node5&#45;&gt;Node4</title>
<path fill="none" stroke="midnightblue" d="M56.55,-56.08C52.4,-48.61 46.35,-37.72 41.23,-28.52"/>
<polygon fill="midnightblue" stroke="midnightblue" points="44.28,-26.79 36.36,-19.75 38.16,-30.19 44.28,-26.79"/>
</g>
</g>
</svg>
