<?xml version="1.0" encoding="UTF-8" standalone="no"?>
<!DOCTYPE svg PUBLIC "-//W3C//DTD SVG 1.1//EN"
 "http://www.w3.org/Graphics/SVG/1.1/DTD/svg11.dtd">
<!-- Generated by graphviz version 2.44.0 ()
 -->
<!-- Title: src/renderer/opengl/vectordraw/mxvectordraw.h Pages: 1 -->
<svg width="1385pt" height="307pt"
 viewBox="0.00 0.00 1384.50 307.00" xmlns="http://www.w3.org/2000/svg" xmlns:xlink="http://www.w3.org/1999/xlink">
<g id="graph0" class="graph" transform="scale(1 1) rotate(0) translate(4 303)">
<title>src/renderer/opengl/vectordraw/mxvectordraw.h</title>
<!-- Node1 -->
<g id="node1" class="node">
<title>Node1</title>
<g id="a_node1"><a xlink:title=" ">
<polygon fill="#bfbfbf" stroke="black" points="521,-268.5 521,-298.5 660,-298.5 660,-268.5 521,-268.5"/>
<text text-anchor="start" x="529" y="-286.5" font-family="Helvetica,sans-Serif" font-size="10.00">src/renderer/opengl</text>
<text text-anchor="middle" x="590.5" y="-275.5" font-family="Helvetica,sans-Serif" font-size="10.00">/vectordraw/mxvectordraw.h</text>
</a>
</g>
</g>
<!-- Node2 -->
<g id="node2" class="node">
<title>Node2</title>
<g id="a_node2"><a xlink:href="mxpainter_8h.html" target="_top" xlink:title=" ">
<polygon fill="none" stroke="black" points="261.5,-207 261.5,-226 359.5,-226 359.5,-207 261.5,-207"/>
<text text-anchor="middle" x="310.5" y="-214" font-family="Helvetica,sans-Serif" font-size="10.00">src/gui/mxpainter.h</text>
</a>
</g>
</g>
<!-- Node1&#45;&gt;Node2 -->
<g id="edge1" class="edge">
<title>Node1&#45;&gt;Node2</title>
<path fill="none" stroke="midnightblue" d="M520.06,-266.15C465.12,-253.39 391.01,-236.19 347.24,-226.03"/>
<polygon fill="midnightblue" stroke="midnightblue" points="519.56,-269.62 530.09,-268.48 521.14,-262.81 519.56,-269.62"/>
</g>
<!-- Node8 -->
<g id="node8" class="node">
<title>Node8</title>
<g id="a_node8"><a xlink:href="mxsvgpainter_8cpp.html" target="_top" xlink:title=" ">
<polygon fill="none" stroke="black" points="383,-140 383,-159 526,-159 526,-140 383,-140"/>
<text text-anchor="middle" x="454.5" y="-147" font-family="Helvetica,sans-Serif" font-size="10.00">src/gui/svg/mxsvgpainter.cpp</text>
</a>
</g>
</g>
<!-- Node1&#45;&gt;Node8 -->
<g id="edge8" class="edge">
<title>Node1&#45;&gt;Node8</title>
<path fill="none" stroke="midnightblue" d="M555.88,-263.09C542.19,-254.53 526.82,-243.74 514.5,-232 490.21,-208.85 468.76,-174.88 459.44,-159.12"/>
<polygon fill="midnightblue" stroke="midnightblue" points="554.22,-266.17 564.58,-268.38 557.86,-260.19 554.22,-266.17"/>
</g>
<!-- Node9 -->
<g id="node9" class="node">
<title>Node9</title>
<g id="a_node9"><a xlink:href="mxsvgpainter_8h.html" target="_top" xlink:title=" ">
<polygon fill="none" stroke="black" points="524,-207 524,-226 657,-226 657,-207 524,-207"/>
<text text-anchor="middle" x="590.5" y="-214" font-family="Helvetica,sans-Serif" font-size="10.00">src/gui/svg/mxsvgpainter.h</text>
</a>
</g>
</g>
<!-- Node1&#45;&gt;Node9 -->
<g id="edge9" class="edge">
<title>Node1&#45;&gt;Node9</title>
<path fill="none" stroke="midnightblue" d="M590.5,-258.25C590.5,-247.02 590.5,-234.38 590.5,-226.19"/>
<polygon fill="midnightblue" stroke="midnightblue" points="587,-258.4 590.5,-268.4 594,-258.4 587,-258.4"/>
</g>
<!-- Node13 -->
<g id="node13" class="node">
<title>Node13</title>
<g id="a_node13"><a xlink:href="mxvectordraw_8cpp.html" target="_top" xlink:title=" ">
<polygon fill="none" stroke="black" points="675,-201.5 675,-231.5 824,-231.5 824,-201.5 675,-201.5"/>
<text text-anchor="start" x="683" y="-219.5" font-family="Helvetica,sans-Serif" font-size="10.00">src/renderer/opengl</text>
<text text-anchor="middle" x="749.5" y="-208.5" font-family="Helvetica,sans-Serif" font-size="10.00">/vectordraw/mxvectordraw.cpp</text>
</a>
</g>
</g>
<!-- Node1&#45;&gt;Node13 -->
<g id="edge15" class="edge">
<title>Node1&#45;&gt;Node13</title>
<path fill="none" stroke="midnightblue" d="M634.42,-264.54C659.87,-254.14 691.43,-241.24 715.07,-231.58"/>
<polygon fill="midnightblue" stroke="midnightblue" points="632.93,-261.37 625,-268.4 635.58,-267.85 632.93,-261.37"/>
</g>
<!-- Node14 -->
<g id="node14" class="node">
<title>Node14</title>
<g id="a_node14"><a xlink:href="mxvectorprogram_8h.html" target="_top" xlink:title=" ">
<polygon fill="none" stroke="black" points="1068,-201.5 1068,-231.5 1221,-231.5 1221,-201.5 1068,-201.5"/>
<text text-anchor="start" x="1076" y="-219.5" font-family="Helvetica,sans-Serif" font-size="10.00">src/renderer/opengl</text>
<text text-anchor="middle" x="1144.5" y="-208.5" font-family="Helvetica,sans-Serif" font-size="10.00">/vectordraw/mxvectorprogram.h</text>
</a>
</g>
</g>
<!-- Node1&#45;&gt;Node14 -->
<g id="edge16" class="edge">
<title>Node1&#45;&gt;Node14</title>
<path fill="none" stroke="midnightblue" d="M670.12,-273.16C776.27,-260.7 962.89,-238.81 1067.63,-226.52"/>
<polygon fill="midnightblue" stroke="midnightblue" points="669.63,-269.69 660.1,-274.33 670.44,-276.64 669.63,-269.69"/>
</g>
<!-- Node3 -->
<g id="node3" class="node">
<title>Node3</title>
<g id="a_node3"><a xlink:href="mxapplication_8h.html" target="_top" xlink:title=" ">
<polygon fill="none" stroke="black" points="105.5,-140 105.5,-159 237.5,-159 237.5,-140 105.5,-140"/>
<text text-anchor="middle" x="171.5" y="-147" font-family="Helvetica,sans-Serif" font-size="10.00">src/events/mxapplication.h</text>
</a>
</g>
</g>
<!-- Node2&#45;&gt;Node3 -->
<g id="edge2" class="edge">
<title>Node2&#45;&gt;Node3</title>
<path fill="none" stroke="midnightblue" d="M282.94,-202.61C255.41,-189.74 213.85,-170.31 190.03,-159.17"/>
<polygon fill="midnightblue" stroke="midnightblue" points="281.5,-205.8 292.04,-206.87 284.47,-199.46 281.5,-205.8"/>
</g>
<!-- Node7 -->
<g id="node7" class="node">
<title>Node7</title>
<g id="a_node7"><a xlink:href="mxpainter_8cpp.html" target="_top" xlink:title=" ">
<polygon fill="none" stroke="black" points="256,-140 256,-159 365,-159 365,-140 256,-140"/>
<text text-anchor="middle" x="310.5" y="-147" font-family="Helvetica,sans-Serif" font-size="10.00">src/gui/mxpainter.cpp</text>
</a>
</g>
</g>
<!-- Node2&#45;&gt;Node7 -->
<g id="edge7" class="edge">
<title>Node2&#45;&gt;Node7</title>
<path fill="none" stroke="midnightblue" d="M310.5,-196.54C310.5,-184.17 310.5,-168.62 310.5,-159.13"/>
<polygon fill="midnightblue" stroke="midnightblue" points="307,-196.73 310.5,-206.73 314,-196.73 307,-196.73"/>
</g>
<!-- Node4 -->
<g id="node4" class="node">
<title>Node4</title>
<g id="a_node4"><a xlink:href="mxapplication_8cpp.html" target="_top" xlink:title=" ">
<polygon fill="none" stroke="black" points="0,-73 0,-92 143,-92 143,-73 0,-73"/>
<text text-anchor="middle" x="71.5" y="-80" font-family="Helvetica,sans-Serif" font-size="10.00">src/events/mxapplication.cpp</text>
</a>
</g>
</g>
<!-- Node3&#45;&gt;Node4 -->
<g id="edge3" class="edge">
<title>Node3&#45;&gt;Node4</title>
<path fill="none" stroke="midnightblue" d="M149.61,-134.27C129.81,-121.4 101.31,-102.88 84.77,-92.13"/>
<polygon fill="midnightblue" stroke="midnightblue" points="147.72,-137.22 158.01,-139.73 151.54,-131.35 147.72,-137.22"/>
</g>
<!-- Node5 -->
<g id="node5" class="node">
<title>Node5</title>
<g id="a_node5"><a xlink:href="qmewawindow_8cpp.html" target="_top" xlink:title=" ">
<polygon fill="none" stroke="black" points="156.5,-0.5 156.5,-30.5 272.5,-30.5 272.5,-0.5 156.5,-0.5"/>
<text text-anchor="start" x="164.5" y="-18.5" font-family="Helvetica,sans-Serif" font-size="10.00">src/platformabstraction</text>
<text text-anchor="middle" x="214.5" y="-7.5" font-family="Helvetica,sans-Serif" font-size="10.00">/qt/qmewawindow.cpp</text>
</a>
</g>
</g>
<!-- Node3&#45;&gt;Node5 -->
<g id="edge4" class="edge">
<title>Node3&#45;&gt;Node5</title>
<path fill="none" stroke="midnightblue" d="M174.7,-129.64C177.83,-112.91 183.18,-87.95 190.5,-67 194.92,-54.35 201.55,-40.67 206.72,-30.74"/>
<polygon fill="midnightblue" stroke="midnightblue" points="171.21,-129.3 172.9,-139.76 178.1,-130.53 171.21,-129.3"/>
</g>
<!-- Node6 -->
<g id="node6" class="node">
<title>Node6</title>
<g id="a_node6"><a xlink:href="qmewawindow_8h.html" target="_top" xlink:title=" ">
<polygon fill="none" stroke="black" points="199.5,-67.5 199.5,-97.5 315.5,-97.5 315.5,-67.5 199.5,-67.5"/>
<text text-anchor="start" x="207.5" y="-85.5" font-family="Helvetica,sans-Serif" font-size="10.00">src/platformabstraction</text>
<text text-anchor="middle" x="257.5" y="-74.5" font-family="Helvetica,sans-Serif" font-size="10.00">/qt/qmewawindow.h</text>
</a>
</g>
</g>
<!-- Node3&#45;&gt;Node6 -->
<g id="edge5" class="edge">
<title>Node3&#45;&gt;Node6</title>
<path fill="none" stroke="midnightblue" d="M191.29,-133.54C205.6,-122.73 224.82,-108.2 238.86,-97.59"/>
<polygon fill="midnightblue" stroke="midnightblue" points="188.97,-130.91 183.1,-139.73 193.19,-136.5 188.97,-130.91"/>
</g>
<!-- Node6&#45;&gt;Node5 -->
<g id="edge6" class="edge">
<title>Node6&#45;&gt;Node5</title>
<path fill="none" stroke="midnightblue" d="M242.53,-58.87C236.3,-49.46 229.27,-38.83 223.81,-30.58"/>
<polygon fill="midnightblue" stroke="midnightblue" points="239.73,-60.99 248.17,-67.4 245.57,-57.12 239.73,-60.99"/>
</g>
<!-- Node9&#45;&gt;Node7 -->
<g id="edge10" class="edge">
<title>Node9&#45;&gt;Node7</title>
<path fill="none" stroke="midnightblue" d="M543.74,-204.64C488.57,-191.84 397.99,-170.81 347.47,-159.08"/>
<polygon fill="midnightblue" stroke="midnightblue" points="543.07,-208.08 553.61,-206.94 544.66,-201.26 543.07,-208.08"/>
</g>
<!-- Node9&#45;&gt;Node8 -->
<g id="edge11" class="edge">
<title>Node9&#45;&gt;Node8</title>
<path fill="none" stroke="midnightblue" d="M563.18,-202.44C536.24,-189.57 495.84,-170.26 472.63,-159.17"/>
<polygon fill="midnightblue" stroke="midnightblue" points="561.91,-205.71 572.44,-206.87 564.93,-199.4 561.91,-205.71"/>
</g>
<!-- Node10 -->
<g id="node10" class="node">
<title>Node10</title>
<g id="a_node10"><a xlink:href="downarrowsvg_8cpp.html" target="_top" xlink:title=" ">
<polygon fill="none" stroke="black" points="544,-140 544,-159 719,-159 719,-140 544,-140"/>
<text text-anchor="middle" x="631.5" y="-147" font-family="Helvetica,sans-Serif" font-size="10.00">src/svg&#45;drawings/downarrowsvg.cpp</text>
</a>
</g>
</g>
<!-- Node9&#45;&gt;Node10 -->
<g id="edge12" class="edge">
<title>Node9&#45;&gt;Node10</title>
<path fill="none" stroke="midnightblue" d="M601.52,-198.03C609.45,-185.45 619.83,-169.01 626.06,-159.13"/>
<polygon fill="midnightblue" stroke="midnightblue" points="598.4,-196.41 596.03,-206.73 604.32,-200.14 598.4,-196.41"/>
</g>
<!-- Node11 -->
<g id="node11" class="node">
<title>Node11</title>
<g id="a_node11"><a xlink:href="heartsvg_8cpp.html" target="_top" xlink:title=" ">
<polygon fill="none" stroke="black" points="737,-140 737,-159 886,-159 886,-140 737,-140"/>
<text text-anchor="middle" x="811.5" y="-147" font-family="Helvetica,sans-Serif" font-size="10.00">src/svg&#45;drawings/heartsvg.cpp</text>
</a>
</g>
</g>
<!-- Node9&#45;&gt;Node11 -->
<g id="edge13" class="edge">
<title>Node9&#45;&gt;Node11</title>
<path fill="none" stroke="midnightblue" d="M629.57,-204.01C673.31,-191.15 743.18,-170.59 782.38,-159.06"/>
<polygon fill="midnightblue" stroke="midnightblue" points="628.45,-200.69 619.85,-206.87 630.43,-207.4 628.45,-200.69"/>
</g>
<!-- Node12 -->
<g id="node12" class="node">
<title>Node12</title>
<g id="a_node12"><a xlink:href="plusminussvg_8cpp.html" target="_top" xlink:title=" ">
<polygon fill="none" stroke="black" points="904.5,-140 904.5,-159 1076.5,-159 1076.5,-140 904.5,-140"/>
<text text-anchor="middle" x="990.5" y="-147" font-family="Helvetica,sans-Serif" font-size="10.00">src/svg&#45;drawings/plusminussvg.cpp</text>
</a>
</g>
</g>
<!-- Node9&#45;&gt;Node12 -->
<g id="edge14" class="edge">
<title>Node9&#45;&gt;Node12</title>
<path fill="none" stroke="midnightblue" d="M643.31,-205.04C650.75,-203.64 658.31,-202.25 665.5,-201 715.92,-192.21 855.07,-170.97 933.97,-159.03"/>
<polygon fill="midnightblue" stroke="midnightblue" points="642.45,-201.64 633.28,-206.95 643.76,-208.51 642.45,-201.64"/>
</g>
<!-- Node15 -->
<g id="node15" class="node">
<title>Node15</title>
<g id="a_node15"><a xlink:href="opengl_2mxrenderer_8h.html" target="_top" xlink:title=" ">
<polygon fill="none" stroke="black" points="1094.5,-134.5 1094.5,-164.5 1194.5,-164.5 1194.5,-134.5 1094.5,-134.5"/>
<text text-anchor="start" x="1102.5" y="-152.5" font-family="Helvetica,sans-Serif" font-size="10.00">src/renderer/opengl</text>
<text text-anchor="middle" x="1144.5" y="-141.5" font-family="Helvetica,sans-Serif" font-size="10.00">/mxrenderer.h</text>
</a>
</g>
</g>
<!-- Node14&#45;&gt;Node15 -->
<g id="edge17" class="edge">
<title>Node14&#45;&gt;Node15</title>
<path fill="none" stroke="midnightblue" d="M1144.5,-191.11C1144.5,-182.15 1144.5,-172.32 1144.5,-164.58"/>
<polygon fill="midnightblue" stroke="midnightblue" points="1141,-191.4 1144.5,-201.4 1148,-191.4 1141,-191.4"/>
</g>
<!-- Node19 -->
<g id="node19" class="node">
<title>Node19</title>
<g id="a_node19"><a xlink:href="mxvectorprogram_8cpp.html" target="_top" xlink:title=" ">
<polygon fill="none" stroke="black" points="1212.5,-134.5 1212.5,-164.5 1376.5,-164.5 1376.5,-134.5 1212.5,-134.5"/>
<text text-anchor="start" x="1220.5" y="-152.5" font-family="Helvetica,sans-Serif" font-size="10.00">src/renderer/opengl</text>
<text text-anchor="middle" x="1294.5" y="-141.5" font-family="Helvetica,sans-Serif" font-size="10.00">/vectordraw/mxvectorprogram.cpp</text>
</a>
</g>
</g>
<!-- Node14&#45;&gt;Node19 -->
<g id="edge21" class="edge">
<title>Node14&#45;&gt;Node19</title>
<path fill="none" stroke="midnightblue" d="M1186.25,-197.41C1210.2,-187.03 1239.82,-174.2 1262.02,-164.58"/>
<polygon fill="midnightblue" stroke="midnightblue" points="1184.83,-194.21 1177.05,-201.4 1187.61,-200.63 1184.83,-194.21"/>
</g>
<!-- Node16 -->
<g id="node16" class="node">
<title>Node16</title>
<g id="a_node16"><a xlink:href="opengl_2mxgpuarray_8cpp.html" target="_top" xlink:title=" ">
<polygon fill="none" stroke="black" points="976.5,-67.5 976.5,-97.5 1076.5,-97.5 1076.5,-67.5 976.5,-67.5"/>
<text text-anchor="start" x="984.5" y="-85.5" font-family="Helvetica,sans-Serif" font-size="10.00">src/renderer/opengl</text>
<text text-anchor="middle" x="1026.5" y="-74.5" font-family="Helvetica,sans-Serif" font-size="10.00">/mxgpuarray.cpp</text>
</a>
</g>
</g>
<!-- Node15&#45;&gt;Node16 -->
<g id="edge18" class="edge">
<title>Node15&#45;&gt;Node16</title>
<path fill="none" stroke="midnightblue" d="M1109.89,-129.44C1091.38,-119.24 1068.98,-106.9 1052.05,-97.58"/>
<polygon fill="midnightblue" stroke="midnightblue" points="1108.45,-132.64 1118.9,-134.4 1111.83,-126.51 1108.45,-132.64"/>
</g>
<!-- Node17 -->
<g id="node17" class="node">
<title>Node17</title>
<g id="a_node17"><a xlink:href="opengl_2mxrenderer_8cpp.html" target="_top" xlink:title=" ">
<polygon fill="none" stroke="black" points="1094.5,-67.5 1094.5,-97.5 1194.5,-97.5 1194.5,-67.5 1094.5,-67.5"/>
<text text-anchor="start" x="1102.5" y="-85.5" font-family="Helvetica,sans-Serif" font-size="10.00">src/renderer/opengl</text>
<text text-anchor="middle" x="1144.5" y="-74.5" font-family="Helvetica,sans-Serif" font-size="10.00">/mxrenderer.cpp</text>
</a>
</g>
</g>
<!-- Node15&#45;&gt;Node17 -->
<g id="edge19" class="edge">
<title>Node15&#45;&gt;Node17</title>
<path fill="none" stroke="midnightblue" d="M1144.5,-124.11C1144.5,-115.15 1144.5,-105.32 1144.5,-97.58"/>
<polygon fill="midnightblue" stroke="midnightblue" points="1141,-124.4 1144.5,-134.4 1148,-124.4 1141,-124.4"/>
</g>
<!-- Node18 -->
<g id="node18" class="node">
<title>Node18</title>
<g id="a_node18"><a xlink:href="mxshaderprogram_8cpp.html" target="_top" xlink:title=" ">
<polygon fill="none" stroke="black" points="1213,-67.5 1213,-97.5 1328,-97.5 1328,-67.5 1213,-67.5"/>
<text text-anchor="start" x="1221" y="-85.5" font-family="Helvetica,sans-Serif" font-size="10.00">src/renderer/opengl</text>
<text text-anchor="middle" x="1270.5" y="-74.5" font-family="Helvetica,sans-Serif" font-size="10.00">/mxshaderprogram.cpp</text>
</a>
</g>
</g>
<!-- Node15&#45;&gt;Node18 -->
<g id="edge20" class="edge">
<title>Node15&#45;&gt;Node18</title>
<path fill="none" stroke="midnightblue" d="M1180.92,-129.71C1200.79,-119.46 1224.98,-106.98 1243.21,-97.58"/>
<polygon fill="midnightblue" stroke="midnightblue" points="1179.12,-126.7 1171.84,-134.4 1182.33,-132.92 1179.12,-126.7"/>
</g>
</g>
</svg>
