<?xml version="1.0" encoding="UTF-8" standalone="no"?>
<!DOCTYPE svg PUBLIC "-//W3C//DTD SVG 1.1//EN"
 "http://www.w3.org/Graphics/SVG/1.1/DTD/svg11.dtd">
<!-- Generated by graphviz version 2.44.0 ()
 -->
<!-- Title: src/gui/mxvectordraw.h Pages: 1 -->
<svg width="1603pt" height="330pt"
 viewBox="0.00 0.00 1602.50 330.00" xmlns="http://www.w3.org/2000/svg" xmlns:xlink="http://www.w3.org/1999/xlink">
<g id="graph0" class="graph" transform="scale(1 1) rotate(0) translate(4 326)">
<title>src/gui/mxvectordraw.h</title>
<!-- Node1 -->
<g id="node1" class="node">
<title>Node1</title>
<g id="a_node1"><a xlink:title=" ">
<polygon fill="#bfbfbf" stroke="black" points="622.5,-302.5 622.5,-321.5 739.5,-321.5 739.5,-302.5 622.5,-302.5"/>
<text text-anchor="middle" x="681" y="-309.5" font-family="Helvetica,sans-Serif" font-size="10.00">src/gui/mxvectordraw.h</text>
</a>
</g>
</g>
<!-- Node2 -->
<g id="node2" class="node">
<title>Node2</title>
<g id="a_node2"><a xlink:href="mxpainter_8h.html" target="_top" xlink:title=" ">
<polygon fill="none" stroke="black" points="1107,-174 1107,-193 1205,-193 1205,-174 1107,-174"/>
<text text-anchor="middle" x="1156" y="-181" font-family="Helvetica,sans-Serif" font-size="10.00">src/gui/mxpainter.h</text>
</a>
</g>
</g>
<!-- Node1&#45;&gt;Node2 -->
<g id="edge1" class="edge">
<title>Node1&#45;&gt;Node2</title>
<path fill="none" stroke="midnightblue" d="M703.1,-296.62C716.08,-288 732.69,-276.68 747,-266 764.46,-252.96 764.92,-243.48 785,-235 914.01,-180.55 960.23,-224.03 1098,-199 1106.88,-197.39 1116.43,-195.19 1125.16,-193"/>
<polygon fill="midnightblue" stroke="midnightblue" points="700.81,-293.94 694.38,-302.36 704.66,-299.78 700.81,-293.94"/>
</g>
<!-- Node16 -->
<g id="node16" class="node">
<title>Node16</title>
<g id="a_node16"><a xlink:href="mxsvgpainter_8cpp.html" target="_top" xlink:title=" ">
<polygon fill="none" stroke="black" points="374.5,-174 374.5,-193 499.5,-193 499.5,-174 374.5,-174"/>
<text text-anchor="middle" x="437" y="-181" font-family="Helvetica,sans-Serif" font-size="10.00">src/gui/mxsvgpainter.cpp</text>
</a>
</g>
</g>
<!-- Node1&#45;&gt;Node16 -->
<g id="edge16" class="edge">
<title>Node1&#45;&gt;Node16</title>
<path fill="none" stroke="midnightblue" d="M655.3,-297.68C605.11,-271.66 495.32,-214.74 453.57,-193.09"/>
<polygon fill="midnightblue" stroke="midnightblue" points="653.74,-300.81 664.23,-302.31 656.96,-294.6 653.74,-300.81"/>
</g>
<!-- Node17 -->
<g id="node17" class="node">
<title>Node17</title>
<g id="a_node17"><a xlink:href="mxsvgpainter_8h.html" target="_top" xlink:title=" ">
<polygon fill="none" stroke="black" points="624,-241 624,-260 738,-260 738,-241 624,-241"/>
<text text-anchor="middle" x="681" y="-248" font-family="Helvetica,sans-Serif" font-size="10.00">src/gui/mxsvgpainter.h</text>
</a>
</g>
</g>
<!-- Node1&#45;&gt;Node17 -->
<g id="edge17" class="edge">
<title>Node1&#45;&gt;Node17</title>
<path fill="none" stroke="midnightblue" d="M681,-292.32C681,-281.5 681,-268.4 681,-260.01"/>
<polygon fill="midnightblue" stroke="midnightblue" points="677.5,-292.48 681,-302.48 684.5,-292.48 677.5,-292.48"/>
</g>
<!-- Node21 -->
<g id="node21" class="node">
<title>Node21</title>
<g id="a_node21"><a xlink:href="mxvectordraw_8cpp.html" target="_top" xlink:title=" ">
<polygon fill="none" stroke="black" points="794,-241 794,-260 922,-260 922,-241 794,-241"/>
<text text-anchor="middle" x="858" y="-248" font-family="Helvetica,sans-Serif" font-size="10.00">src/gui/mxvectordraw.cpp</text>
</a>
</g>
</g>
<!-- Node1&#45;&gt;Node21 -->
<g id="edge23" class="edge">
<title>Node1&#45;&gt;Node21</title>
<path fill="none" stroke="midnightblue" d="M716.01,-299.23C750.41,-287.67 802.08,-270.3 832.69,-260.01"/>
<polygon fill="midnightblue" stroke="midnightblue" points="714.72,-295.97 706.36,-302.48 716.95,-302.61 714.72,-295.97"/>
</g>
<!-- Node22 -->
<g id="node22" class="node">
<title>Node22</title>
<g id="a_node22"><a xlink:href="mxvectorprogram_8h.html" target="_top" xlink:title=" ">
<polygon fill="none" stroke="black" points="126.5,-235.5 126.5,-265.5 293.5,-265.5 293.5,-235.5 126.5,-235.5"/>
<text text-anchor="start" x="134.5" y="-253.5" font-family="Helvetica,sans-Serif" font-size="10.00">src/renderer/opengl</text>
<text text-anchor="middle" x="210" y="-242.5" font-family="Helvetica,sans-Serif" font-size="10.00">/vectorprogram/mxvectorprogram.h</text>
</a>
</g>
</g>
<!-- Node1&#45;&gt;Node22 -->
<g id="edge24" class="edge">
<title>Node1&#45;&gt;Node22</title>
<path fill="none" stroke="midnightblue" d="M612.3,-302.32C527.83,-291.65 384.53,-273.55 293.71,-262.08"/>
<polygon fill="midnightblue" stroke="midnightblue" points="611.94,-305.8 622.3,-303.58 612.82,-298.86 611.94,-305.8"/>
</g>
<!-- Node3 -->
<g id="node3" class="node">
<title>Node3</title>
<g id="a_node3"><a xlink:href="mxapplication_8h.html" target="_top" xlink:title=" ">
<polygon fill="none" stroke="black" points="273,-112.5 273,-131.5 405,-131.5 405,-112.5 273,-112.5"/>
<text text-anchor="middle" x="339" y="-119.5" font-family="Helvetica,sans-Serif" font-size="10.00">src/events/mxapplication.h</text>
</a>
</g>
</g>
<!-- Node2&#45;&gt;Node3 -->
<g id="edge2" class="edge">
<title>Node2&#45;&gt;Node3</title>
<path fill="none" stroke="midnightblue" d="M1116.35,-171.55C1110.25,-170.17 1103.98,-168.92 1098,-168 1030.6,-157.67 577.54,-134.7 405.29,-126.22"/>
<polygon fill="midnightblue" stroke="midnightblue" points="1115.87,-175.04 1126.41,-173.98 1117.51,-168.23 1115.87,-175.04"/>
</g>
<!-- Node8 -->
<g id="node8" class="node">
<title>Node8</title>
<g id="a_node8"><a xlink:href="mxpainter_8cpp.html" target="_top" xlink:title=" ">
<polygon fill="none" stroke="black" points="532.5,-112.5 532.5,-131.5 641.5,-131.5 641.5,-112.5 532.5,-112.5"/>
<text text-anchor="middle" x="587" y="-119.5" font-family="Helvetica,sans-Serif" font-size="10.00">src/gui/mxpainter.cpp</text>
</a>
</g>
</g>
<!-- Node2&#45;&gt;Node8 -->
<g id="edge8" class="edge">
<title>Node2&#45;&gt;Node8</title>
<path fill="none" stroke="midnightblue" d="M1115.93,-171.61C1109.95,-170.24 1103.84,-168.98 1098,-168 1053.87,-160.59 764.02,-137.07 641.51,-127.31"/>
<polygon fill="midnightblue" stroke="midnightblue" points="1115.24,-175.05 1125.79,-173.99 1116.89,-168.24 1115.24,-175.05"/>
</g>
<!-- Node9 -->
<g id="node9" class="node">
<title>Node9</title>
<g id="a_node9"><a xlink:href="mxlabel_8h.html" target="_top" xlink:title=" ">
<polygon fill="none" stroke="black" points="1173,-112.5 1173,-131.5 1283,-131.5 1283,-112.5 1173,-112.5"/>
<text text-anchor="middle" x="1228" y="-119.5" font-family="Helvetica,sans-Serif" font-size="10.00">src/widgets/mxlabel.h</text>
</a>
</g>
</g>
<!-- Node2&#45;&gt;Node9 -->
<g id="edge9" class="edge">
<title>Node2&#45;&gt;Node9</title>
<path fill="none" stroke="midnightblue" d="M1174.18,-167.47C1187.96,-156.09 1206.38,-140.87 1217.7,-131.51"/>
<polygon fill="midnightblue" stroke="midnightblue" points="1171.79,-164.91 1166.32,-173.98 1176.25,-170.3 1171.79,-164.91"/>
</g>
<!-- Node11 -->
<g id="node11" class="node">
<title>Node11</title>
<g id="a_node11"><a xlink:href="mxlayout_8cpp.html" target="_top" xlink:title=" ">
<polygon fill="none" stroke="black" points="1301,-112.5 1301,-131.5 1427,-131.5 1427,-112.5 1301,-112.5"/>
<text text-anchor="middle" x="1364" y="-119.5" font-family="Helvetica,sans-Serif" font-size="10.00">src/widgets/mxlayout.cpp</text>
</a>
</g>
</g>
<!-- Node2&#45;&gt;Node11 -->
<g id="edge11" class="edge">
<title>Node2&#45;&gt;Node11</title>
<path fill="none" stroke="midnightblue" d="M1195.59,-171.18C1236,-159.61 1297.83,-141.93 1334.25,-131.51"/>
<polygon fill="midnightblue" stroke="midnightblue" points="1194.45,-167.86 1185.8,-173.98 1196.38,-174.59 1194.45,-167.86"/>
</g>
<!-- Node12 -->
<g id="node12" class="node">
<title>Node12</title>
<g id="a_node12"><a xlink:href="mxlinearlayout_8cpp.html" target="_top" xlink:title=" ">
<polygon fill="none" stroke="black" points="1445.5,-112.5 1445.5,-131.5 1594.5,-131.5 1594.5,-112.5 1445.5,-112.5"/>
<text text-anchor="middle" x="1520" y="-119.5" font-family="Helvetica,sans-Serif" font-size="10.00">src/widgets/mxlinearlayout.cpp</text>
</a>
</g>
</g>
<!-- Node2&#45;&gt;Node12 -->
<g id="edge12" class="edge">
<title>Node2&#45;&gt;Node12</title>
<path fill="none" stroke="midnightblue" d="M1215.09,-172.84C1285.2,-161.38 1400.97,-142.46 1467.87,-131.52"/>
<polygon fill="midnightblue" stroke="midnightblue" points="1214.4,-169.41 1205.09,-174.48 1215.52,-176.32 1214.4,-169.41"/>
</g>
<!-- Node13 -->
<g id="node13" class="node">
<title>Node13</title>
<g id="a_node13"><a xlink:href="mxlineedit_8cpp.html" target="_top" xlink:title=" ">
<polygon fill="none" stroke="black" points="713.5,-112.5 713.5,-131.5 844.5,-131.5 844.5,-112.5 713.5,-112.5"/>
<text text-anchor="middle" x="779" y="-119.5" font-family="Helvetica,sans-Serif" font-size="10.00">src/widgets/mxlineedit.cpp</text>
</a>
</g>
</g>
<!-- Node2&#45;&gt;Node13 -->
<g id="edge13" class="edge">
<title>Node2&#45;&gt;Node13</title>
<path fill="none" stroke="midnightblue" d="M1114.65,-171.6C1109.08,-170.3 1103.41,-169.06 1098,-168 1050.86,-158.81 923.39,-141.7 844.59,-131.43"/>
<polygon fill="midnightblue" stroke="midnightblue" points="1113.98,-175.04 1124.53,-173.99 1115.63,-168.24 1113.98,-175.04"/>
</g>
<!-- Node14 -->
<g id="node14" class="node">
<title>Node14</title>
<g id="a_node14"><a xlink:href="mxspacer_8cpp.html" target="_top" xlink:title=" ">
<polygon fill="none" stroke="black" points="863,-112.5 863,-131.5 993,-131.5 993,-112.5 863,-112.5"/>
<text text-anchor="middle" x="928" y="-119.5" font-family="Helvetica,sans-Serif" font-size="10.00">src/widgets/mxspacer.cpp</text>
</a>
</g>
</g>
<!-- Node2&#45;&gt;Node14 -->
<g id="edge14" class="edge">
<title>Node2&#45;&gt;Node14</title>
<path fill="none" stroke="midnightblue" d="M1113.45,-171.4C1069.17,-159.84 1000.79,-142 960.61,-131.51"/>
<polygon fill="midnightblue" stroke="midnightblue" points="1112.77,-174.84 1123.33,-173.98 1114.54,-168.06 1112.77,-174.84"/>
</g>
<!-- Node15 -->
<g id="node15" class="node">
<title>Node15</title>
<g id="a_node15"><a xlink:href="mxtextbutton_8cpp.html" target="_top" xlink:title=" ">
<polygon fill="none" stroke="black" points="1011.5,-112.5 1011.5,-131.5 1154.5,-131.5 1154.5,-112.5 1011.5,-112.5"/>
<text text-anchor="middle" x="1083" y="-119.5" font-family="Helvetica,sans-Serif" font-size="10.00">src/widgets/mxtextbutton.cpp</text>
</a>
</g>
</g>
<!-- Node2&#45;&gt;Node15 -->
<g id="edge15" class="edge">
<title>Node2&#45;&gt;Node15</title>
<path fill="none" stroke="midnightblue" d="M1137.56,-167.47C1123.6,-156.09 1104.92,-140.87 1093.44,-131.51"/>
<polygon fill="midnightblue" stroke="midnightblue" points="1135.58,-170.37 1145.54,-173.98 1140,-164.94 1135.58,-170.37"/>
</g>
<!-- Node4 -->
<g id="node4" class="node">
<title>Node4</title>
<g id="a_node4"><a xlink:href="mxapplication_8cpp.html" target="_top" xlink:title=" ">
<polygon fill="none" stroke="black" points="187.5,-56.5 187.5,-75.5 330.5,-75.5 330.5,-56.5 187.5,-56.5"/>
<text text-anchor="middle" x="259" y="-63.5" font-family="Helvetica,sans-Serif" font-size="10.00">src/events/mxapplication.cpp</text>
</a>
</g>
</g>
<!-- Node3&#45;&gt;Node4 -->
<g id="edge3" class="edge">
<title>Node3&#45;&gt;Node4</title>
<path fill="none" stroke="midnightblue" d="M317.7,-106.62C303.08,-96.76 284.17,-83.99 271.82,-75.65"/>
<polygon fill="midnightblue" stroke="midnightblue" points="315.9,-109.63 326.15,-112.32 319.82,-103.83 315.9,-109.63"/>
</g>
<!-- Node5 -->
<g id="node5" class="node">
<title>Node5</title>
<g id="a_node5"><a xlink:href="mxguiaggregation_8cpp.html" target="_top" xlink:title=" ">
<polygon fill="none" stroke="black" points="348.5,-56.5 348.5,-75.5 491.5,-75.5 491.5,-56.5 348.5,-56.5"/>
<text text-anchor="middle" x="420" y="-63.5" font-family="Helvetica,sans-Serif" font-size="10.00">src/gui/mxguiaggregation.cpp</text>
</a>
</g>
</g>
<!-- Node3&#45;&gt;Node5 -->
<g id="edge4" class="edge">
<title>Node3&#45;&gt;Node5</title>
<path fill="none" stroke="midnightblue" d="M360.57,-106.62C375.36,-96.76 394.51,-83.99 407.02,-75.65"/>
<polygon fill="midnightblue" stroke="midnightblue" points="358.39,-103.86 352.01,-112.32 362.28,-109.69 358.39,-103.86"/>
</g>
<!-- Node6 -->
<g id="node6" class="node">
<title>Node6</title>
<g id="a_node6"><a xlink:href="qmewawindow_8cpp.html" target="_top" xlink:title=" ">
<polygon fill="none" stroke="black" points="290.5,-0.5 290.5,-19.5 455.5,-19.5 455.5,-0.5 290.5,-0.5"/>
<text text-anchor="middle" x="373" y="-7.5" font-family="Helvetica,sans-Serif" font-size="10.00">src/platform/qt/qmewawindow.cpp</text>
</a>
</g>
</g>
<!-- Node3&#45;&gt;Node6 -->
<g id="edge5" class="edge">
<title>Node3&#45;&gt;Node6</title>
<path fill="none" stroke="midnightblue" d="M262.94,-114.77C208.78,-107.29 150.13,-91.03 178,-56 192.49,-37.78 245.24,-26.31 292.22,-19.51"/>
<polygon fill="midnightblue" stroke="midnightblue" points="262.61,-118.26 272.98,-116.07 263.51,-111.32 262.61,-118.26"/>
</g>
<!-- Node7 -->
<g id="node7" class="node">
<title>Node7</title>
<g id="a_node7"><a xlink:href="qmewawindow_8h.html" target="_top" xlink:title=" ">
<polygon fill="none" stroke="black" points="509.5,-56.5 509.5,-75.5 664.5,-75.5 664.5,-56.5 509.5,-56.5"/>
<text text-anchor="middle" x="587" y="-63.5" font-family="Helvetica,sans-Serif" font-size="10.00">src/platform/qt/qmewawindow.h</text>
</a>
</g>
</g>
<!-- Node3&#45;&gt;Node7 -->
<g id="edge6" class="edge">
<title>Node3&#45;&gt;Node7</title>
<path fill="none" stroke="midnightblue" d="M388.23,-110.28C435.09,-100.08 504.7,-84.92 547.89,-75.52"/>
<polygon fill="midnightblue" stroke="midnightblue" points="387.32,-106.9 378.3,-112.44 388.81,-113.74 387.32,-106.9"/>
</g>
<!-- Node7&#45;&gt;Node6 -->
<g id="edge7" class="edge">
<title>Node7&#45;&gt;Node6</title>
<path fill="none" stroke="midnightblue" d="M543.24,-53.96C502.83,-43.76 443.63,-28.82 406.75,-19.52"/>
<polygon fill="midnightblue" stroke="midnightblue" points="542.54,-57.39 553.09,-56.44 544.25,-50.6 542.54,-57.39"/>
</g>
<!-- Node10 -->
<g id="node10" class="node">
<title>Node10</title>
<g id="a_node10"><a xlink:href="mxlabel_8cpp.html" target="_top" xlink:title=" ">
<polygon fill="none" stroke="black" points="1167.5,-56.5 1167.5,-75.5 1288.5,-75.5 1288.5,-56.5 1167.5,-56.5"/>
<text text-anchor="middle" x="1228" y="-63.5" font-family="Helvetica,sans-Serif" font-size="10.00">src/widgets/mxlabel.cpp</text>
</a>
</g>
</g>
<!-- Node9&#45;&gt;Node10 -->
<g id="edge10" class="edge">
<title>Node9&#45;&gt;Node10</title>
<path fill="none" stroke="midnightblue" d="M1228,-101.8C1228,-92.91 1228,-82.78 1228,-75.75"/>
<polygon fill="midnightblue" stroke="midnightblue" points="1224.5,-102.08 1228,-112.08 1231.5,-102.08 1224.5,-102.08"/>
</g>
<!-- Node17&#45;&gt;Node8 -->
<g id="edge18" class="edge">
<title>Node17&#45;&gt;Node8</title>
<path fill="none" stroke="midnightblue" d="M732.68,-238.74C784.49,-227.44 857.74,-209.82 866,-199 874.36,-188.05 874.93,-178.49 866,-168 851.65,-151.14 718.83,-135.69 641.74,-128.04"/>
<polygon fill="midnightblue" stroke="midnightblue" points="731.67,-235.38 722.63,-240.91 733.15,-242.22 731.67,-235.38"/>
</g>
<!-- Node17&#45;&gt;Node16 -->
<g id="edge19" class="edge">
<title>Node17&#45;&gt;Node16</title>
<path fill="none" stroke="midnightblue" d="M639.04,-238.32C590.87,-225.49 512.87,-204.71 469.22,-193.08"/>
<polygon fill="midnightblue" stroke="midnightblue" points="638.29,-241.74 648.85,-240.94 640.09,-234.98 638.29,-241.74"/>
</g>
<!-- Node18 -->
<g id="node18" class="node">
<title>Node18</title>
<g id="a_node18"><a xlink:href="downarrowsvg_8cpp.html" target="_top" xlink:title=" ">
<polygon fill="none" stroke="black" points="913.5,-174 913.5,-193 1088.5,-193 1088.5,-174 913.5,-174"/>
<text text-anchor="middle" x="1001" y="-181" font-family="Helvetica,sans-Serif" font-size="10.00">src/svg&#45;drawings/downarrowsvg.cpp</text>
</a>
</g>
</g>
<!-- Node17&#45;&gt;Node18 -->
<g id="edge20" class="edge">
<title>Node17&#45;&gt;Node18</title>
<path fill="none" stroke="midnightblue" d="M732.75,-238.92C739.23,-237.6 745.77,-236.27 752,-235 824.61,-220.22 909.16,-203.09 958.7,-193.06"/>
<polygon fill="midnightblue" stroke="midnightblue" points="731.77,-235.55 722.67,-240.98 733.17,-242.41 731.77,-235.55"/>
</g>
<!-- Node19 -->
<g id="node19" class="node">
<title>Node19</title>
<g id="a_node19"><a xlink:href="heartsvg_8cpp.html" target="_top" xlink:title=" ">
<polygon fill="none" stroke="black" points="517.5,-174 517.5,-193 666.5,-193 666.5,-174 517.5,-174"/>
<text text-anchor="middle" x="592" y="-181" font-family="Helvetica,sans-Serif" font-size="10.00">src/svg&#45;drawings/heartsvg.cpp</text>
</a>
</g>
</g>
<!-- Node17&#45;&gt;Node19 -->
<g id="edge21" class="edge">
<title>Node17&#45;&gt;Node19</title>
<path fill="none" stroke="midnightblue" d="M660.55,-234.57C642.99,-221.74 618.27,-203.69 603.81,-193.13"/>
<polygon fill="midnightblue" stroke="midnightblue" points="658.86,-237.66 669,-240.73 662.99,-232.01 658.86,-237.66"/>
</g>
<!-- Node20 -->
<g id="node20" class="node">
<title>Node20</title>
<g id="a_node20"><a xlink:href="plusminussvg_8cpp.html" target="_top" xlink:title=" ">
<polygon fill="none" stroke="black" points="685,-174 685,-193 857,-193 857,-174 685,-174"/>
<text text-anchor="middle" x="771" y="-181" font-family="Helvetica,sans-Serif" font-size="10.00">src/svg&#45;drawings/plusminussvg.cpp</text>
</a>
</g>
</g>
<!-- Node17&#45;&gt;Node20 -->
<g id="edge22" class="edge">
<title>Node17&#45;&gt;Node20</title>
<path fill="none" stroke="midnightblue" d="M701.68,-234.57C719.44,-221.74 744.44,-203.69 759.05,-193.13"/>
<polygon fill="midnightblue" stroke="midnightblue" points="699.2,-232.04 693.14,-240.73 703.29,-237.72 699.2,-232.04"/>
</g>
<!-- Node22&#45;&gt;Node8 -->
<g id="edge29" class="edge">
<title>Node22&#45;&gt;Node8</title>
<path fill="none" stroke="midnightblue" d="M186.71,-227.9C170.47,-210.27 154.29,-185.49 170,-168 181.96,-154.67 421.85,-135.25 532.25,-126.97"/>
<polygon fill="midnightblue" stroke="midnightblue" points="184.57,-230.73 194.06,-235.45 189.59,-225.84 184.57,-230.73"/>
</g>
<!-- Node23 -->
<g id="node23" class="node">
<title>Node23</title>
<g id="a_node23"><a xlink:href="mxguirenderer_8h.html" target="_top" xlink:title=" ">
<polygon fill="none" stroke="black" points="5.5,-174 5.5,-193 122.5,-193 122.5,-174 5.5,-174"/>
<text text-anchor="middle" x="64" y="-181" font-family="Helvetica,sans-Serif" font-size="10.00">src/gui/mxguirenderer.h</text>
</a>
</g>
</g>
<!-- Node22&#45;&gt;Node23 -->
<g id="edge25" class="edge">
<title>Node22&#45;&gt;Node23</title>
<path fill="none" stroke="midnightblue" d="M169.11,-231.3C140.95,-218.76 104.84,-202.68 83.11,-193.01"/>
<polygon fill="midnightblue" stroke="midnightblue" points="167.76,-234.53 178.32,-235.4 170.61,-228.13 167.76,-234.53"/>
</g>
<!-- Node25 -->
<g id="node25" class="node">
<title>Node25</title>
<g id="a_node25"><a xlink:href="mxvectorprogram_8cpp.html" target="_top" xlink:title=" ">
<polygon fill="none" stroke="black" points="179,-168.5 179,-198.5 357,-198.5 357,-168.5 179,-168.5"/>
<text text-anchor="start" x="187" y="-186.5" font-family="Helvetica,sans-Serif" font-size="10.00">src/renderer/opengl</text>
<text text-anchor="middle" x="268" y="-175.5" font-family="Helvetica,sans-Serif" font-size="10.00">/vectorprogram/mxvectorprogram.cpp</text>
</a>
</g>
</g>
<!-- Node22&#45;&gt;Node25 -->
<g id="edge30" class="edge">
<title>Node22&#45;&gt;Node25</title>
<path fill="none" stroke="midnightblue" d="M229.42,-227.74C238,-218.12 247.84,-207.09 255.44,-198.58"/>
<polygon fill="midnightblue" stroke="midnightblue" points="226.63,-225.6 222.59,-235.4 231.85,-230.26 226.63,-225.6"/>
</g>
<!-- Node23&#45;&gt;Node3 -->
<g id="edge26" class="edge">
<title>Node23&#45;&gt;Node3</title>
<path fill="none" stroke="midnightblue" d="M113.31,-171.83C166.64,-160.29 250.59,-142.13 299.67,-131.51"/>
<polygon fill="midnightblue" stroke="midnightblue" points="112.43,-168.44 103.4,-173.98 113.91,-175.28 112.43,-168.44"/>
</g>
<!-- Node23&#45;&gt;Node8 -->
<g id="edge28" class="edge">
<title>Node23&#45;&gt;Node8</title>
<path fill="none" stroke="midnightblue" d="M113.18,-172.06C121.12,-170.57 129.27,-169.15 137,-168 278.92,-146.86 447.54,-132.97 532.41,-126.75"/>
<polygon fill="midnightblue" stroke="midnightblue" points="112.43,-168.64 103.28,-173.98 113.76,-175.51 112.43,-168.64"/>
</g>
<!-- Node24 -->
<g id="node24" class="node">
<title>Node24</title>
<g id="a_node24"><a xlink:href="mxguirenderer_8cpp.html" target="_top" xlink:title=" ">
<polygon fill="none" stroke="black" points="0,-112.5 0,-131.5 128,-131.5 128,-112.5 0,-112.5"/>
<text text-anchor="middle" x="64" y="-119.5" font-family="Helvetica,sans-Serif" font-size="10.00">src/gui/mxguirenderer.cpp</text>
</a>
</g>
</g>
<!-- Node23&#45;&gt;Node24 -->
<g id="edge27" class="edge">
<title>Node23&#45;&gt;Node24</title>
<path fill="none" stroke="midnightblue" d="M64,-163.82C64,-153 64,-139.9 64,-131.51"/>
<polygon fill="midnightblue" stroke="midnightblue" points="60.5,-163.98 64,-173.98 67.5,-163.98 60.5,-163.98"/>
</g>
</g>
</svg>
