<?xml version="1.0" encoding="UTF-8" standalone="no"?>
<!DOCTYPE svg PUBLIC "-//W3C//DTD SVG 1.1//EN"
 "http://www.w3.org/Graphics/SVG/1.1/DTD/svg11.dtd">
<!-- Generated by graphviz version 2.44.0 ()
 -->
<!-- Title: src/gui/vectordraw/mxvectordraw.h Pages: 1 -->
<svg width="1927pt" height="307pt"
 viewBox="0.00 0.00 1926.50 307.00" xmlns="http://www.w3.org/2000/svg" xmlns:xlink="http://www.w3.org/1999/xlink">
<g id="graph0" class="graph" transform="scale(1 1) rotate(0) translate(4 303)">
<title>src/gui/vectordraw/mxvectordraw.h</title>
<!-- Node1 -->
<g id="node1" class="node">
<title>Node1</title>
<g id="a_node1"><a xlink:title=" ">
<polygon fill="#bfbfbf" stroke="black" points="559.5,-268.5 559.5,-298.5 656.5,-298.5 656.5,-268.5 559.5,-268.5"/>
<text text-anchor="start" x="567.5" y="-286.5" font-family="Helvetica,sans-Serif" font-size="10.00">src/gui/vectordraw</text>
<text text-anchor="middle" x="608" y="-275.5" font-family="Helvetica,sans-Serif" font-size="10.00">/mxvectordraw.h</text>
</a>
</g>
</g>
<!-- Node2 -->
<g id="node2" class="node">
<title>Node2</title>
<g id="a_node2"><a xlink:href="mxpainter_8h.html" target="_top" xlink:title=" ">
<polygon fill="none" stroke="black" points="157,-207 157,-226 255,-226 255,-207 157,-207"/>
<text text-anchor="middle" x="206" y="-214" font-family="Helvetica,sans-Serif" font-size="10.00">src/gui/mxpainter.h</text>
</a>
</g>
</g>
<!-- Node1&#45;&gt;Node2 -->
<g id="edge1" class="edge">
<title>Node1&#45;&gt;Node2</title>
<path fill="none" stroke="midnightblue" d="M548.77,-272.92C469.2,-260.06 329.24,-237.43 255.18,-225.45"/>
<polygon fill="midnightblue" stroke="midnightblue" points="548.68,-276.45 559.11,-274.59 549.8,-269.54 548.68,-276.45"/>
</g>
<!-- Node9 -->
<g id="node9" class="node">
<title>Node9</title>
<g id="a_node9"><a xlink:href="mxstoreview_8cpp.html" target="_top" xlink:title=" ">
<polygon fill="none" stroke="black" points="302,-140 302,-159 466,-159 466,-140 302,-140"/>
<text text-anchor="middle" x="384" y="-147" font-family="Helvetica,sans-Serif" font-size="10.00">src/storewindow/mxstoreview.cpp</text>
</a>
</g>
</g>
<!-- Node1&#45;&gt;Node9 -->
<g id="edge33" class="edge">
<title>Node1&#45;&gt;Node9</title>
<path fill="none" stroke="midnightblue" d="M575.31,-263.24C525.89,-234.11 434.13,-180.04 398.59,-159.1"/>
<polygon fill="midnightblue" stroke="midnightblue" points="573.64,-266.31 584.03,-268.37 577.19,-260.28 573.64,-266.31"/>
</g>
<!-- Node11 -->
<g id="node11" class="node">
<title>Node11</title>
<g id="a_node11"><a xlink:href="mxsvgpainter_8cpp.html" target="_top" xlink:title=" ">
<polygon fill="none" stroke="black" points="484.5,-140 484.5,-159 627.5,-159 627.5,-140 484.5,-140"/>
<text text-anchor="middle" x="556" y="-147" font-family="Helvetica,sans-Serif" font-size="10.00">src/gui/svg/mxsvgpainter.cpp</text>
</a>
</g>
</g>
<!-- Node1&#45;&gt;Node11 -->
<g id="edge10" class="edge">
<title>Node1&#45;&gt;Node11</title>
<path fill="none" stroke="midnightblue" d="M598.63,-258.71C586.85,-228.81 567.23,-179 559.39,-159.1"/>
<polygon fill="midnightblue" stroke="midnightblue" points="595.51,-260.35 602.44,-268.37 602.03,-257.79 595.51,-260.35"/>
</g>
<!-- Node12 -->
<g id="node12" class="node">
<title>Node12</title>
<g id="a_node12"><a xlink:href="mxsvgpainter_8h.html" target="_top" xlink:title=" ">
<polygon fill="none" stroke="black" points="647.5,-207 647.5,-226 780.5,-226 780.5,-207 647.5,-207"/>
<text text-anchor="middle" x="714" y="-214" font-family="Helvetica,sans-Serif" font-size="10.00">src/gui/svg/mxsvgpainter.h</text>
</a>
</g>
</g>
<!-- Node1&#45;&gt;Node12 -->
<g id="edge11" class="edge">
<title>Node1&#45;&gt;Node12</title>
<path fill="none" stroke="midnightblue" d="M639.57,-263.14C659.72,-250.79 684.83,-235.39 700.13,-226.01"/>
<polygon fill="midnightblue" stroke="midnightblue" points="637.7,-260.18 631,-268.4 641.35,-266.15 637.7,-260.18"/>
</g>
<!-- Node16 -->
<g id="node16" class="node">
<title>Node16</title>
<g id="a_node16"><a xlink:href="mxvectordraw_8cpp.html" target="_top" xlink:title=" ">
<polygon fill="none" stroke="black" points="799,-67.5 799,-97.5 897,-97.5 897,-67.5 799,-67.5"/>
<text text-anchor="start" x="807" y="-85.5" font-family="Helvetica,sans-Serif" font-size="10.00">src/gui/vectordraw</text>
<text text-anchor="middle" x="848" y="-74.5" font-family="Helvetica,sans-Serif" font-size="10.00">/mxvectordraw.cpp</text>
</a>
</g>
</g>
<!-- Node1&#45;&gt;Node16 -->
<g id="edge17" class="edge">
<title>Node1&#45;&gt;Node16</title>
<path fill="none" stroke="midnightblue" d="M667.06,-280.47C807.57,-274.28 1155.26,-250.46 1226,-165 1234.79,-154.39 1235.18,-144.27 1226,-134 1178.31,-80.65 976.42,-110.71 906,-98 903.14,-97.48 900.21,-96.91 897.26,-96.29"/>
<polygon fill="midnightblue" stroke="midnightblue" points="666.76,-276.98 656.91,-280.9 667.05,-283.98 666.76,-276.98"/>
</g>
<!-- Node17 -->
<g id="node17" class="node">
<title>Node17</title>
<g id="a_node17"><a xlink:href="mxvectorprogram_8h.html" target="_top" xlink:title=" ">
<polygon fill="none" stroke="black" points="1294,-201.5 1294,-231.5 1396,-231.5 1396,-201.5 1294,-201.5"/>
<text text-anchor="start" x="1302" y="-219.5" font-family="Helvetica,sans-Serif" font-size="10.00">src/gui/vectordraw</text>
<text text-anchor="middle" x="1345" y="-208.5" font-family="Helvetica,sans-Serif" font-size="10.00">/mxvectorprogram.h</text>
</a>
</g>
</g>
<!-- Node1&#45;&gt;Node17 -->
<g id="edge18" class="edge">
<title>Node1&#45;&gt;Node17</title>
<path fill="none" stroke="midnightblue" d="M667.03,-279.7C781.52,-273.87 1041.6,-258.7 1259,-232 1270.27,-230.62 1282.32,-228.8 1293.72,-226.92"/>
<polygon fill="midnightblue" stroke="midnightblue" points="666.55,-276.22 656.74,-280.22 666.9,-283.21 666.55,-276.22"/>
</g>
<!-- Node3 -->
<g id="node3" class="node">
<title>Node3</title>
<g id="a_node3"><a xlink:href="mxapplication_8h.html" target="_top" xlink:title=" ">
<polygon fill="none" stroke="black" points="224,-73 224,-92 356,-92 356,-73 224,-73"/>
<text text-anchor="middle" x="290" y="-80" font-family="Helvetica,sans-Serif" font-size="10.00">src/events/mxapplication.h</text>
</a>
</g>
</g>
<!-- Node2&#45;&gt;Node3 -->
<g id="edge2" class="edge">
<title>Node2&#45;&gt;Node3</title>
<path fill="none" stroke="midnightblue" d="M160.85,-204.11C117.01,-190.85 60.53,-166.54 86,-134 102.98,-112.31 170.9,-98.64 223.76,-91.07"/>
<polygon fill="midnightblue" stroke="midnightblue" points="159.96,-207.5 170.54,-206.93 161.92,-200.78 159.96,-207.5"/>
</g>
<!-- Node8 -->
<g id="node8" class="node">
<title>Node8</title>
<g id="a_node8"><a xlink:href="mxpainter_8cpp.html" target="_top" xlink:title=" ">
<polygon fill="none" stroke="black" points="601.5,-73 601.5,-92 710.5,-92 710.5,-73 601.5,-73"/>
<text text-anchor="middle" x="656" y="-80" font-family="Helvetica,sans-Serif" font-size="10.00">src/gui/mxpainter.cpp</text>
</a>
</g>
</g>
<!-- Node2&#45;&gt;Node8 -->
<g id="edge7" class="edge">
<title>Node2&#45;&gt;Node8</title>
<path fill="none" stroke="midnightblue" d="M174.7,-202.7C141.07,-187.19 95.41,-159.91 119,-134 135.09,-116.32 467.34,-94.71 601.01,-86.69"/>
<polygon fill="midnightblue" stroke="midnightblue" points="173.67,-206.07 184.23,-206.94 176.51,-199.68 173.67,-206.07"/>
</g>
<!-- Node2&#45;&gt;Node9 -->
<g id="edge8" class="edge">
<title>Node2&#45;&gt;Node9</title>
<path fill="none" stroke="midnightblue" d="M239.04,-203.44C274.35,-190.54 329.44,-170.42 360.55,-159.06"/>
<polygon fill="midnightblue" stroke="midnightblue" points="237.83,-200.15 229.64,-206.87 240.23,-206.73 237.83,-200.15"/>
</g>
<!-- Node10 -->
<g id="node10" class="node">
<title>Node10</title>
<g id="a_node10"><a xlink:href="teststoreview_8cpp.html" target="_top" xlink:title=" ">
<polygon fill="none" stroke="black" points="128.5,-134.5 128.5,-164.5 283.5,-164.5 283.5,-134.5 128.5,-134.5"/>
<text text-anchor="start" x="136.5" y="-152.5" font-family="Helvetica,sans-Serif" font-size="10.00">src/storewindow/test</text>
<text text-anchor="middle" x="206" y="-141.5" font-family="Helvetica,sans-Serif" font-size="10.00">_storebuttons/teststoreview.cpp</text>
</a>
</g>
</g>
<!-- Node2&#45;&gt;Node10 -->
<g id="edge9" class="edge">
<title>Node2&#45;&gt;Node10</title>
<path fill="none" stroke="midnightblue" d="M206,-196.41C206,-186.22 206,-173.9 206,-164.59"/>
<polygon fill="midnightblue" stroke="midnightblue" points="202.5,-196.73 206,-206.73 209.5,-196.73 202.5,-196.73"/>
</g>
<!-- Node4 -->
<g id="node4" class="node">
<title>Node4</title>
<g id="a_node4"><a xlink:href="mxapplication_8cpp.html" target="_top" xlink:title=" ">
<polygon fill="none" stroke="black" points="300.5,-6 300.5,-25 443.5,-25 443.5,-6 300.5,-6"/>
<text text-anchor="middle" x="372" y="-13" font-family="Helvetica,sans-Serif" font-size="10.00">src/events/mxapplication.cpp</text>
</a>
</g>
</g>
<!-- Node3&#45;&gt;Node4 -->
<g id="edge3" class="edge">
<title>Node3&#45;&gt;Node4</title>
<path fill="none" stroke="midnightblue" d="M309.28,-66.21C325.44,-53.41 347.92,-35.59 361.12,-25.13"/>
<polygon fill="midnightblue" stroke="midnightblue" points="306.72,-63.78 301.06,-72.73 311.07,-69.26 306.72,-63.78"/>
</g>
<!-- Node5 -->
<g id="node5" class="node">
<title>Node5</title>
<g id="a_node5"><a xlink:href="qmewawindow_8cpp.html" target="_top" xlink:title=" ">
<polygon fill="none" stroke="black" points="462,-0.5 462,-30.5 578,-30.5 578,-0.5 462,-0.5"/>
<text text-anchor="start" x="470" y="-18.5" font-family="Helvetica,sans-Serif" font-size="10.00">src/platformabstraction</text>
<text text-anchor="middle" x="520" y="-7.5" font-family="Helvetica,sans-Serif" font-size="10.00">/qt/qmewawindow.cpp</text>
</a>
</g>
</g>
<!-- Node3&#45;&gt;Node5 -->
<g id="edge4" class="edge">
<title>Node3&#45;&gt;Node5</title>
<path fill="none" stroke="midnightblue" d="M330.49,-70.06C369.48,-59.04 428.55,-42.34 470.36,-30.53"/>
<polygon fill="midnightblue" stroke="midnightblue" points="329.21,-66.78 320.54,-72.87 331.12,-73.52 329.21,-66.78"/>
</g>
<!-- Node6 -->
<g id="node6" class="node">
<title>Node6</title>
<g id="a_node6"><a xlink:href="storewindow_2test__storebuttons_2main_8cpp.html" target="_top" xlink:title=" ">
<polygon fill="none" stroke="black" points="0,-0.5 0,-30.5 118,-30.5 118,-0.5 0,-0.5"/>
<text text-anchor="start" x="8" y="-18.5" font-family="Helvetica,sans-Serif" font-size="10.00">src/storewindow/test</text>
<text text-anchor="middle" x="59" y="-7.5" font-family="Helvetica,sans-Serif" font-size="10.00">_storebuttons/main.cpp</text>
</a>
</g>
</g>
<!-- Node3&#45;&gt;Node6 -->
<g id="edge5" class="edge">
<title>Node3&#45;&gt;Node6</title>
<path fill="none" stroke="midnightblue" d="M249.58,-70.13C210.42,-59.11 150.94,-42.37 108.85,-30.53"/>
<polygon fill="midnightblue" stroke="midnightblue" points="248.75,-73.53 259.32,-72.87 250.65,-66.79 248.75,-73.53"/>
</g>
<!-- Node7 -->
<g id="node7" class="node">
<title>Node7</title>
<g id="a_node7"><a xlink:href="storewindow_2test__storebuttons_2testwindow_8cpp.html" target="_top" xlink:title=" ">
<polygon fill="none" stroke="black" points="136,-0.5 136,-30.5 282,-30.5 282,-0.5 136,-0.5"/>
<text text-anchor="start" x="144" y="-18.5" font-family="Helvetica,sans-Serif" font-size="10.00">src/storewindow/test</text>
<text text-anchor="middle" x="209" y="-7.5" font-family="Helvetica,sans-Serif" font-size="10.00">_storebuttons/testwindow.cpp</text>
</a>
</g>
</g>
<!-- Node3&#45;&gt;Node7 -->
<g id="edge6" class="edge">
<title>Node3&#45;&gt;Node7</title>
<path fill="none" stroke="midnightblue" d="M270.98,-66.24C257.54,-55.45 239.66,-41.1 226.56,-30.59"/>
<polygon fill="midnightblue" stroke="midnightblue" points="269.09,-69.2 279.08,-72.73 273.47,-63.75 269.09,-69.2"/>
</g>
<!-- Node12&#45;&gt;Node8 -->
<g id="edge12" class="edge">
<title>Node12&#45;&gt;Node8</title>
<path fill="none" stroke="midnightblue" d="M698.59,-199.31C690.46,-189.95 680.97,-177.56 675,-165 663.28,-140.33 658.53,-107.94 656.83,-92.47"/>
<polygon fill="midnightblue" stroke="midnightblue" points="696.22,-201.92 705.53,-206.98 701.41,-197.22 696.22,-201.92"/>
</g>
<!-- Node12&#45;&gt;Node11 -->
<g id="edge13" class="edge">
<title>Node12&#45;&gt;Node11</title>
<path fill="none" stroke="midnightblue" d="M683.49,-202.95C652.21,-190.08 604.38,-170.4 577.07,-159.17"/>
<polygon fill="midnightblue" stroke="midnightblue" points="682.44,-206.3 693.02,-206.87 685.1,-199.83 682.44,-206.3"/>
</g>
<!-- Node13 -->
<g id="node13" class="node">
<title>Node13</title>
<g id="a_node13"><a xlink:href="downarrowsvg_8cpp.html" target="_top" xlink:title=" ">
<polygon fill="none" stroke="black" points="684.5,-140 684.5,-159 859.5,-159 859.5,-140 684.5,-140"/>
<text text-anchor="middle" x="772" y="-147" font-family="Helvetica,sans-Serif" font-size="10.00">src/svg&#45;drawings/downarrowsvg.cpp</text>
</a>
</g>
</g>
<!-- Node12&#45;&gt;Node13 -->
<g id="edge14" class="edge">
<title>Node12&#45;&gt;Node13</title>
<path fill="none" stroke="midnightblue" d="M728.6,-199.13C739.95,-186.42 755.23,-169.3 764.3,-159.13"/>
<polygon fill="midnightblue" stroke="midnightblue" points="725.87,-196.94 721.82,-206.73 731.09,-201.6 725.87,-196.94"/>
</g>
<!-- Node14 -->
<g id="node14" class="node">
<title>Node14</title>
<g id="a_node14"><a xlink:href="heartsvg_8cpp.html" target="_top" xlink:title=" ">
<polygon fill="none" stroke="black" points="877.5,-140 877.5,-159 1026.5,-159 1026.5,-140 877.5,-140"/>
<text text-anchor="middle" x="952" y="-147" font-family="Helvetica,sans-Serif" font-size="10.00">src/svg&#45;drawings/heartsvg.cpp</text>
</a>
</g>
</g>
<!-- Node12&#45;&gt;Node14 -->
<g id="edge15" class="edge">
<title>Node12&#45;&gt;Node14</title>
<path fill="none" stroke="midnightblue" d="M755.48,-204.17C802.54,-191.32 878.25,-170.64 920.64,-159.06"/>
<polygon fill="midnightblue" stroke="midnightblue" points="754.33,-200.86 745.6,-206.87 756.17,-207.61 754.33,-200.86"/>
</g>
<!-- Node15 -->
<g id="node15" class="node">
<title>Node15</title>
<g id="a_node15"><a xlink:href="plusminussvg_8cpp.html" target="_top" xlink:title=" ">
<polygon fill="none" stroke="black" points="1045,-140 1045,-159 1217,-159 1217,-140 1045,-140"/>
<text text-anchor="middle" x="1131" y="-147" font-family="Helvetica,sans-Serif" font-size="10.00">src/svg&#45;drawings/plusminussvg.cpp</text>
</a>
</g>
</g>
<!-- Node12&#45;&gt;Node15 -->
<g id="edge16" class="edge">
<title>Node12&#45;&gt;Node15</title>
<path fill="none" stroke="midnightblue" d="M778.86,-205.39C860.6,-192.65 999.63,-170.98 1076.27,-159.03"/>
<polygon fill="midnightblue" stroke="midnightblue" points="778.29,-201.94 768.94,-206.94 779.36,-208.85 778.29,-201.94"/>
</g>
<!-- Node18 -->
<g id="node18" class="node">
<title>Node18</title>
<g id="a_node18"><a xlink:href="mxrenderer_8h.html" target="_top" xlink:title=" ">
<polygon fill="none" stroke="black" points="1273.5,-140 1273.5,-159 1416.5,-159 1416.5,-140 1273.5,-140"/>
<text text-anchor="middle" x="1345" y="-147" font-family="Helvetica,sans-Serif" font-size="10.00">src/gui/renderer/mxrenderer.h</text>
</a>
</g>
</g>
<!-- Node17&#45;&gt;Node18 -->
<g id="edge19" class="edge">
<title>Node17&#45;&gt;Node18</title>
<path fill="none" stroke="midnightblue" d="M1345,-191.25C1345,-180.02 1345,-167.38 1345,-159.19"/>
<polygon fill="midnightblue" stroke="midnightblue" points="1341.5,-191.4 1345,-201.4 1348.5,-191.4 1341.5,-191.4"/>
</g>
<!-- Node27 -->
<g id="node27" class="node">
<title>Node27</title>
<g id="a_node27"><a xlink:href="mxvectorprogram_8cpp.html" target="_top" xlink:title=" ">
<polygon fill="none" stroke="black" points="1805.5,-67.5 1805.5,-97.5 1918.5,-97.5 1918.5,-67.5 1805.5,-67.5"/>
<text text-anchor="start" x="1813.5" y="-85.5" font-family="Helvetica,sans-Serif" font-size="10.00">src/gui/vectordraw</text>
<text text-anchor="middle" x="1862" y="-74.5" font-family="Helvetica,sans-Serif" font-size="10.00">/mxvectorprogram.cpp</text>
</a>
</g>
</g>
<!-- Node17&#45;&gt;Node27 -->
<g id="edge32" class="edge">
<title>Node17&#45;&gt;Node27</title>
<path fill="none" stroke="midnightblue" d="M1406.27,-199.86C1507.83,-173.93 1709.5,-122.44 1806.86,-97.58"/>
<polygon fill="midnightblue" stroke="midnightblue" points="1405.29,-196.5 1396.46,-202.36 1407.02,-203.28 1405.29,-196.5"/>
</g>
<!-- Node18&#45;&gt;Node3 -->
<g id="edge20" class="edge">
<title>Node18&#45;&gt;Node3</title>
<path fill="none" stroke="midnightblue" d="M1271.5,-138.76C1256.47,-136.99 1240.74,-135.29 1226,-134 1140.13,-126.46 555.25,-96.81 356.18,-86.81"/>
<polygon fill="midnightblue" stroke="midnightblue" points="1271.43,-142.28 1281.78,-139.99 1272.27,-135.33 1271.43,-142.28"/>
</g>
<!-- Node18&#45;&gt;Node8 -->
<g id="edge27" class="edge">
<title>Node18&#45;&gt;Node8</title>
<path fill="none" stroke="midnightblue" d="M1268.74,-138.76C1254.54,-137.08 1239.83,-135.41 1226,-134 1032.57,-114.24 983.56,-116.46 790,-98 763.91,-95.51 735,-92.43 710.73,-89.74"/>
<polygon fill="midnightblue" stroke="midnightblue" points="1268.61,-142.27 1278.96,-139.99 1269.45,-135.32 1268.61,-142.27"/>
</g>
<!-- Node18&#45;&gt;Node16 -->
<g id="edge30" class="edge">
<title>Node18&#45;&gt;Node16</title>
<path fill="none" stroke="midnightblue" d="M1287.88,-138.33C1278.25,-136.77 1268.35,-135.26 1259,-134 1102.72,-112.88 1061.34,-125.19 906,-98 903.14,-97.5 900.21,-96.93 897.26,-96.33"/>
<polygon fill="midnightblue" stroke="midnightblue" points="1287.33,-141.79 1297.77,-139.97 1288.47,-134.88 1287.33,-141.79"/>
</g>
<!-- Node19 -->
<g id="node19" class="node">
<title>Node19</title>
<g id="a_node19"><a xlink:href="mxcolorwheelprogram_8cpp.html" target="_top" xlink:title=" ">
<polygon fill="none" stroke="black" points="915,-67.5 915,-97.5 1047,-97.5 1047,-67.5 915,-67.5"/>
<text text-anchor="start" x="923" y="-85.5" font-family="Helvetica,sans-Serif" font-size="10.00">src/gui/colorselector</text>
<text text-anchor="middle" x="981" y="-74.5" font-family="Helvetica,sans-Serif" font-size="10.00">/mxcolorwheelprogram.cpp</text>
</a>
</g>
</g>
<!-- Node18&#45;&gt;Node19 -->
<g id="edge21" class="edge">
<title>Node18&#45;&gt;Node19</title>
<path fill="none" stroke="midnightblue" d="M1284.39,-138.24C1225.88,-128.25 1134.8,-112.5 1056,-98 1053.13,-97.47 1050.2,-96.93 1047.24,-96.37"/>
<polygon fill="midnightblue" stroke="midnightblue" points="1284.12,-141.74 1294.57,-139.97 1285.3,-134.84 1284.12,-141.74"/>
</g>
<!-- Node20 -->
<g id="node20" class="node">
<title>Node20</title>
<g id="a_node20"><a xlink:href="gui_2colorselector_2test__colorwheel_2testwindow_8h.html" target="_top" xlink:title=" ">
<polygon fill="none" stroke="black" points="1065,-67.5 1065,-97.5 1213,-97.5 1213,-67.5 1065,-67.5"/>
<text text-anchor="start" x="1073" y="-85.5" font-family="Helvetica,sans-Serif" font-size="10.00">src/gui/colorselector</text>
<text text-anchor="middle" x="1139" y="-74.5" font-family="Helvetica,sans-Serif" font-size="10.00">/test_colorwheel/testwindow.h</text>
</a>
</g>
</g>
<!-- Node18&#45;&gt;Node20 -->
<g id="edge22" class="edge">
<title>Node18&#45;&gt;Node20</title>
<path fill="none" stroke="midnightblue" d="M1307.84,-136.77C1272.91,-125.75 1220.59,-109.24 1183.46,-97.53"/>
<polygon fill="midnightblue" stroke="midnightblue" points="1307.06,-140.2 1317.64,-139.87 1309.16,-133.52 1307.06,-140.2"/>
</g>
<!-- Node23 -->
<g id="node23" class="node">
<title>Node23</title>
<g id="a_node23"><a xlink:href="gpubuffer_8cpp.html" target="_top" xlink:title=" ">
<polygon fill="none" stroke="black" points="1231.5,-73 1231.5,-92 1338.5,-92 1338.5,-73 1231.5,-73"/>
<text text-anchor="middle" x="1285" y="-80" font-family="Helvetica,sans-Serif" font-size="10.00">src/gui/gpubuffer.cpp</text>
</a>
</g>
</g>
<!-- Node18&#45;&gt;Node23 -->
<g id="edge25" class="edge">
<title>Node18&#45;&gt;Node23</title>
<path fill="none" stroke="midnightblue" d="M1329.89,-132.13C1318.16,-119.42 1302.35,-102.3 1292.96,-92.13"/>
<polygon fill="midnightblue" stroke="midnightblue" points="1327.55,-134.76 1336.91,-139.73 1332.7,-130.01 1327.55,-134.76"/>
</g>
<!-- Node24 -->
<g id="node24" class="node">
<title>Node24</title>
<g id="a_node24"><a xlink:href="gpuvbo_8cpp.html" target="_top" xlink:title=" ">
<polygon fill="none" stroke="black" points="1356,-73 1356,-92 1454,-92 1454,-73 1356,-73"/>
<text text-anchor="middle" x="1405" y="-80" font-family="Helvetica,sans-Serif" font-size="10.00">src/gui/gpuvbo.cpp</text>
</a>
</g>
</g>
<!-- Node18&#45;&gt;Node24 -->
<g id="edge26" class="edge">
<title>Node18&#45;&gt;Node24</title>
<path fill="none" stroke="midnightblue" d="M1360.11,-132.13C1371.84,-119.42 1387.65,-102.3 1397.04,-92.13"/>
<polygon fill="midnightblue" stroke="midnightblue" points="1357.3,-130.01 1353.09,-139.73 1362.45,-134.76 1357.3,-130.01"/>
</g>
<!-- Node25 -->
<g id="node25" class="node">
<title>Node25</title>
<g id="a_node25"><a xlink:href="mxshaderprogram_8cpp.html" target="_top" xlink:title=" ">
<polygon fill="none" stroke="black" points="1472,-73 1472,-92 1616,-92 1616,-73 1472,-73"/>
<text text-anchor="middle" x="1544" y="-80" font-family="Helvetica,sans-Serif" font-size="10.00">src/gui/mxshaderprogram.cpp</text>
</a>
</g>
</g>
<!-- Node18&#45;&gt;Node25 -->
<g id="edge28" class="edge">
<title>Node18&#45;&gt;Node25</title>
<path fill="none" stroke="midnightblue" d="M1381.18,-136.68C1420.62,-123.8 1482.78,-103.5 1517.78,-92.06"/>
<polygon fill="midnightblue" stroke="midnightblue" points="1379.84,-133.44 1371.43,-139.87 1382.02,-140.09 1379.84,-133.44"/>
</g>
<!-- Node26 -->
<g id="node26" class="node">
<title>Node26</title>
<g id="a_node26"><a xlink:href="mxrenderer_8cpp.html" target="_top" xlink:title=" ">
<polygon fill="none" stroke="black" points="1634.5,-73 1634.5,-92 1787.5,-92 1787.5,-73 1634.5,-73"/>
<text text-anchor="middle" x="1711" y="-80" font-family="Helvetica,sans-Serif" font-size="10.00">src/gui/renderer/mxrenderer.cpp</text>
</a>
</g>
</g>
<!-- Node18&#45;&gt;Node26 -->
<g id="edge29" class="edge">
<title>Node18&#45;&gt;Node26</title>
<path fill="none" stroke="midnightblue" d="M1403.47,-138.12C1475.41,-125.34 1596.18,-103.89 1662.96,-92.03"/>
<polygon fill="midnightblue" stroke="midnightblue" points="1402.46,-134.74 1393.22,-139.94 1403.68,-141.63 1402.46,-134.74"/>
</g>
<!-- Node18&#45;&gt;Node27 -->
<g id="edge31" class="edge">
<title>Node18&#45;&gt;Node27</title>
<path fill="none" stroke="midnightblue" d="M1426.8,-142.04C1517.62,-134.25 1668.39,-119.47 1797,-98 1799.74,-97.54 1802.53,-97.04 1805.35,-96.52"/>
<polygon fill="midnightblue" stroke="midnightblue" points="1426.24,-138.58 1416.57,-142.91 1426.83,-145.55 1426.24,-138.58"/>
</g>
<!-- Node21 -->
<g id="node21" class="node">
<title>Node21</title>
<g id="a_node21"><a xlink:href="gui_2colorselector_2test__colorwheel_2main_8cpp.html" target="_top" xlink:title=" ">
<polygon fill="none" stroke="black" points="993,-0.5 993,-30.5 1123,-30.5 1123,-0.5 993,-0.5"/>
<text text-anchor="start" x="1001" y="-18.5" font-family="Helvetica,sans-Serif" font-size="10.00">src/gui/colorselector</text>
<text text-anchor="middle" x="1058" y="-7.5" font-family="Helvetica,sans-Serif" font-size="10.00">/test_colorwheel/main.cpp</text>
</a>
</g>
</g>
<!-- Node20&#45;&gt;Node21 -->
<g id="edge23" class="edge">
<title>Node20&#45;&gt;Node21</title>
<path fill="none" stroke="midnightblue" d="M1113.31,-60.88C1101,-51.01 1086.57,-39.43 1075.54,-30.58"/>
<polygon fill="midnightblue" stroke="midnightblue" points="1111.43,-63.87 1121.42,-67.4 1115.82,-58.41 1111.43,-63.87"/>
</g>
<!-- Node22 -->
<g id="node22" class="node">
<title>Node22</title>
<g id="a_node22"><a xlink:href="gui_2colorselector_2test__colorwheel_2testwindow_8cpp.html" target="_top" xlink:title=" ">
<polygon fill="none" stroke="black" points="1141,-0.5 1141,-30.5 1299,-30.5 1299,-0.5 1141,-0.5"/>
<text text-anchor="start" x="1149" y="-18.5" font-family="Helvetica,sans-Serif" font-size="10.00">src/gui/colorselector</text>
<text text-anchor="middle" x="1220" y="-7.5" font-family="Helvetica,sans-Serif" font-size="10.00">/test_colorwheel/testwindow.cpp</text>
</a>
</g>
</g>
<!-- Node20&#45;&gt;Node22 -->
<g id="edge24" class="edge">
<title>Node20&#45;&gt;Node22</title>
<path fill="none" stroke="midnightblue" d="M1164.69,-60.88C1177,-51.01 1191.43,-39.43 1202.46,-30.58"/>
<polygon fill="midnightblue" stroke="midnightblue" points="1162.18,-58.41 1156.58,-67.4 1166.57,-63.87 1162.18,-58.41"/>
</g>
</g>
</svg>
