<?xml version="1.0" encoding="UTF-8" standalone="no"?>
<!DOCTYPE svg PUBLIC "-//W3C//DTD SVG 1.1//EN"
 "http://www.w3.org/Graphics/SVG/1.1/DTD/svg11.dtd">
<!-- Generated by graphviz version 2.44.0 ()
 -->
<!-- Title: src/gui/mxvectordraw.h Pages: 1 -->
<svg width="1397pt" height="318pt"
 viewBox="0.00 0.00 1396.50 318.00" xmlns="http://www.w3.org/2000/svg" xmlns:xlink="http://www.w3.org/1999/xlink">
<g id="graph0" class="graph" transform="scale(1 1) rotate(0) translate(4 314)">
<title>src/gui/mxvectordraw.h</title>
<!-- Node1 -->
<g id="node1" class="node">
<title>Node1</title>
<g id="a_node1"><a xlink:title=" ">
<polygon fill="#bfbfbf" stroke="black" points="737,-290.5 737,-309.5 854,-309.5 854,-290.5 737,-290.5"/>
<text text-anchor="middle" x="795.5" y="-297.5" font-family="Helvetica,sans-Serif" font-size="10.00">src/gui/mxvectordraw.h</text>
</a>
</g>
</g>
<!-- Node2 -->
<g id="node2" class="node">
<title>Node2</title>
<g id="a_node2"><a xlink:href="mxpainter_8h.html" target="_top" xlink:title=" ">
<polygon fill="none" stroke="black" points="395.5,-229 395.5,-248 493.5,-248 493.5,-229 395.5,-229"/>
<text text-anchor="middle" x="444.5" y="-236" font-family="Helvetica,sans-Serif" font-size="10.00">src/gui/mxpainter.h</text>
</a>
</g>
</g>
<!-- Node1&#45;&gt;Node2 -->
<g id="edge1" class="edge">
<title>Node1&#45;&gt;Node2</title>
<path fill="none" stroke="midnightblue" d="M735.03,-288.75C666.7,-277.17 556.8,-258.54 493.56,-247.82"/>
<polygon fill="midnightblue" stroke="midnightblue" points="734.77,-292.25 745.21,-290.48 735.94,-285.35 734.77,-292.25"/>
</g>
<!-- Node14 -->
<g id="node14" class="node">
<title>Node14</title>
<g id="a_node14"><a xlink:href="mxsvgpainter_8cpp.html" target="_top" xlink:title=" ">
<polygon fill="none" stroke="black" points="517,-162 517,-181 642,-181 642,-162 517,-162"/>
<text text-anchor="middle" x="579.5" y="-169" font-family="Helvetica,sans-Serif" font-size="10.00">src/gui/mxsvgpainter.cpp</text>
</a>
</g>
</g>
<!-- Node1&#45;&gt;Node14 -->
<g id="edge14" class="edge">
<title>Node1&#45;&gt;Node14</title>
<path fill="none" stroke="midnightblue" d="M743.97,-287.88C717.7,-280.76 686.01,-269.82 660.5,-254 627.78,-233.71 598.36,-197.69 585.86,-181.19"/>
<polygon fill="midnightblue" stroke="midnightblue" points="743.19,-291.3 753.75,-290.43 744.96,-284.52 743.19,-291.3"/>
</g>
<!-- Node15 -->
<g id="node15" class="node">
<title>Node15</title>
<g id="a_node15"><a xlink:href="mxsvgpainter_8h.html" target="_top" xlink:title=" ">
<polygon fill="none" stroke="black" points="669.5,-229 669.5,-248 783.5,-248 783.5,-229 669.5,-229"/>
<text text-anchor="middle" x="726.5" y="-236" font-family="Helvetica,sans-Serif" font-size="10.00">src/gui/mxsvgpainter.h</text>
</a>
</g>
</g>
<!-- Node1&#45;&gt;Node15 -->
<g id="edge15" class="edge">
<title>Node1&#45;&gt;Node15</title>
<path fill="none" stroke="midnightblue" d="M777.7,-283.65C764.54,-272.31 747.12,-257.28 736.37,-248.01"/>
<polygon fill="midnightblue" stroke="midnightblue" points="775.76,-286.6 785.61,-290.48 780.33,-281.29 775.76,-286.6"/>
</g>
<!-- Node19 -->
<g id="node19" class="node">
<title>Node19</title>
<g id="a_node19"><a xlink:href="mxvectordraw_8cpp.html" target="_top" xlink:title=" ">
<polygon fill="none" stroke="black" points="801.5,-229 801.5,-248 929.5,-248 929.5,-229 801.5,-229"/>
<text text-anchor="middle" x="865.5" y="-236" font-family="Helvetica,sans-Serif" font-size="10.00">src/gui/mxvectordraw.cpp</text>
</a>
</g>
</g>
<!-- Node1&#45;&gt;Node19 -->
<g id="edge21" class="edge">
<title>Node1&#45;&gt;Node19</title>
<path fill="none" stroke="midnightblue" d="M813.18,-283.97C826.57,-272.59 844.48,-257.37 855.49,-248.01"/>
<polygon fill="midnightblue" stroke="midnightblue" points="810.88,-281.33 805.53,-290.48 815.42,-286.67 810.88,-281.33"/>
</g>
<!-- Node20 -->
<g id="node20" class="node">
<title>Node20</title>
<g id="a_node20"><a xlink:href="direct12_2vectorprogram_2mxvectorprogram_8cpp.html" target="_top" xlink:title=" ">
<polygon fill="none" stroke="black" points="947.5,-223.5 947.5,-253.5 1125.5,-253.5 1125.5,-223.5 947.5,-223.5"/>
<text text-anchor="start" x="955.5" y="-241.5" font-family="Helvetica,sans-Serif" font-size="10.00">src/renderer/direct12</text>
<text text-anchor="middle" x="1036.5" y="-230.5" font-family="Helvetica,sans-Serif" font-size="10.00">/vectorprogram/mxvectorprogram.cpp</text>
</a>
</g>
</g>
<!-- Node1&#45;&gt;Node20 -->
<g id="edge22" class="edge">
<title>Node1&#45;&gt;Node20</title>
<path fill="none" stroke="midnightblue" d="M839.87,-288.05C879.24,-278.33 936.97,-264.07 979.7,-253.52"/>
<polygon fill="midnightblue" stroke="midnightblue" points="838.9,-284.68 830.03,-290.48 840.58,-291.48 838.9,-284.68"/>
</g>
<!-- Node21 -->
<g id="node21" class="node">
<title>Node21</title>
<g id="a_node21"><a xlink:href="opengl_2vectorprogram_2mxvectorprogram_8h.html" target="_top" xlink:title=" ">
<polygon fill="none" stroke="black" points="1190,-223.5 1190,-253.5 1357,-253.5 1357,-223.5 1190,-223.5"/>
<text text-anchor="start" x="1198" y="-241.5" font-family="Helvetica,sans-Serif" font-size="10.00">src/renderer/opengl</text>
<text text-anchor="middle" x="1273.5" y="-230.5" font-family="Helvetica,sans-Serif" font-size="10.00">/vectorprogram/mxvectorprogram.h</text>
</a>
</g>
</g>
<!-- Node1&#45;&gt;Node21 -->
<g id="edge23" class="edge">
<title>Node1&#45;&gt;Node21</title>
<path fill="none" stroke="midnightblue" d="M864.29,-290.44C950.3,-279.73 1097.45,-261.41 1189.88,-249.91"/>
<polygon fill="midnightblue" stroke="midnightblue" points="863.6,-287 854.11,-291.7 864.47,-293.94 863.6,-287"/>
</g>
<!-- Node3 -->
<g id="node3" class="node">
<title>Node3</title>
<g id="a_node3"><a xlink:href="mxapplication_8h.html" target="_top" xlink:title=" ">
<polygon fill="none" stroke="black" points="239.5,-162 239.5,-181 371.5,-181 371.5,-162 239.5,-162"/>
<text text-anchor="middle" x="305.5" y="-169" font-family="Helvetica,sans-Serif" font-size="10.00">src/events/mxapplication.h</text>
</a>
</g>
</g>
<!-- Node2&#45;&gt;Node3 -->
<g id="edge2" class="edge">
<title>Node2&#45;&gt;Node3</title>
<path fill="none" stroke="midnightblue" d="M416.94,-224.61C389.41,-211.74 347.85,-192.31 324.03,-181.17"/>
<polygon fill="midnightblue" stroke="midnightblue" points="415.5,-227.8 426.04,-228.87 418.47,-221.46 415.5,-227.8"/>
</g>
<!-- Node13 -->
<g id="node13" class="node">
<title>Node13</title>
<g id="a_node13"><a xlink:href="mxpainter_8cpp.html" target="_top" xlink:title=" ">
<polygon fill="none" stroke="black" points="390,-162 390,-181 499,-181 499,-162 390,-162"/>
<text text-anchor="middle" x="444.5" y="-169" font-family="Helvetica,sans-Serif" font-size="10.00">src/gui/mxpainter.cpp</text>
</a>
</g>
</g>
<!-- Node2&#45;&gt;Node13 -->
<g id="edge13" class="edge">
<title>Node2&#45;&gt;Node13</title>
<path fill="none" stroke="midnightblue" d="M444.5,-218.54C444.5,-206.17 444.5,-190.62 444.5,-181.13"/>
<polygon fill="midnightblue" stroke="midnightblue" points="441,-218.73 444.5,-228.73 448,-218.73 441,-218.73"/>
</g>
<!-- Node4 -->
<g id="node4" class="node">
<title>Node4</title>
<g id="a_node4"><a xlink:href="mxapplication_8cpp.html" target="_top" xlink:title=" ">
<polygon fill="none" stroke="black" points="0,-89.5 0,-108.5 143,-108.5 143,-89.5 0,-89.5"/>
<text text-anchor="middle" x="71.5" y="-96.5" font-family="Helvetica,sans-Serif" font-size="10.00">src/events/mxapplication.cpp</text>
</a>
</g>
</g>
<!-- Node3&#45;&gt;Node4 -->
<g id="edge3" class="edge">
<title>Node3&#45;&gt;Node4</title>
<path fill="none" stroke="midnightblue" d="M267.48,-159.05C220.54,-144.9 141.79,-121.18 99.83,-108.53"/>
<polygon fill="midnightblue" stroke="midnightblue" points="266.69,-162.46 277.27,-162 268.71,-155.76 266.69,-162.46"/>
</g>
<!-- Node5 -->
<g id="node5" class="node">
<title>Node5</title>
<g id="a_node5"><a xlink:href="qmewawindow_8cpp.html" target="_top" xlink:title=" ">
<polygon fill="none" stroke="black" points="161.5,-6 161.5,-36 277.5,-36 277.5,-6 161.5,-6"/>
<text text-anchor="start" x="169.5" y="-24" font-family="Helvetica,sans-Serif" font-size="10.00">src/platformabstraction</text>
<text text-anchor="middle" x="219.5" y="-13" font-family="Helvetica,sans-Serif" font-size="10.00">/qt/qmewawindow.cpp</text>
</a>
</g>
</g>
<!-- Node3&#45;&gt;Node5 -->
<g id="edge4" class="edge">
<title>Node3&#45;&gt;Node5</title>
<path fill="none" stroke="midnightblue" d="M305.23,-151.83C304.16,-132.17 300.21,-100.94 286.5,-78 276.08,-60.56 258.21,-46.04 243.55,-36.15"/>
<polygon fill="midnightblue" stroke="midnightblue" points="301.73,-152.05 305.57,-161.92 308.73,-151.81 301.73,-152.05"/>
</g>
<!-- Node6 -->
<g id="node6" class="node">
<title>Node6</title>
<g id="a_node6"><a xlink:href="qmewawindow_8h.html" target="_top" xlink:title=" ">
<polygon fill="none" stroke="black" points="161.5,-84 161.5,-114 277.5,-114 277.5,-84 161.5,-84"/>
<text text-anchor="start" x="169.5" y="-102" font-family="Helvetica,sans-Serif" font-size="10.00">src/platformabstraction</text>
<text text-anchor="middle" x="219.5" y="-91" font-family="Helvetica,sans-Serif" font-size="10.00">/qt/qmewawindow.h</text>
</a>
</g>
</g>
<!-- Node3&#45;&gt;Node6 -->
<g id="edge5" class="edge">
<title>Node3&#45;&gt;Node6</title>
<path fill="none" stroke="midnightblue" d="M286.94,-155.28C272.02,-143.05 251.21,-126 236.67,-114.08"/>
<polygon fill="midnightblue" stroke="midnightblue" points="285,-158.22 294.95,-161.86 289.44,-152.81 285,-158.22"/>
</g>
<!-- Node7 -->
<g id="node7" class="node">
<title>Node7</title>
<g id="a_node7"><a xlink:href="randomtextureapp_8h.html" target="_top" xlink:title=" ">
<polygon fill="none" stroke="black" points="333,-78.5 333,-119.5 492,-119.5 492,-78.5 333,-78.5"/>
<text text-anchor="start" x="341" y="-107.5" font-family="Helvetica,sans-Serif" font-size="10.00">src/renderer/direct12</text>
<text text-anchor="start" x="341" y="-96.5" font-family="Helvetica,sans-Serif" font-size="10.00">/iconprogram/test_randomtexture</text>
<text text-anchor="middle" x="412.5" y="-85.5" font-family="Helvetica,sans-Serif" font-size="10.00">/randomtextureapp.h</text>
</a>
</g>
</g>
<!-- Node3&#45;&gt;Node7 -->
<g id="edge7" class="edge">
<title>Node3&#45;&gt;Node7</title>
<path fill="none" stroke="midnightblue" d="M327.26,-156.17C343.21,-145.65 365.07,-131.25 382.66,-119.66"/>
<polygon fill="midnightblue" stroke="midnightblue" points="325.05,-153.43 318.62,-161.86 328.9,-159.28 325.05,-153.43"/>
</g>
<!-- Node10 -->
<g id="node10" class="node">
<title>Node10</title>
<g id="a_node10"><a xlink:href="triangleapp_8h.html" target="_top" xlink:title=" ">
<polygon fill="none" stroke="black" points="649.5,-78.5 649.5,-119.5 787.5,-119.5 787.5,-78.5 649.5,-78.5"/>
<text text-anchor="start" x="657.5" y="-107.5" font-family="Helvetica,sans-Serif" font-size="10.00">src/renderer/direct12</text>
<text text-anchor="start" x="657.5" y="-96.5" font-family="Helvetica,sans-Serif" font-size="10.00">/vectorprogram/test_triangle</text>
<text text-anchor="middle" x="718.5" y="-85.5" font-family="Helvetica,sans-Serif" font-size="10.00">/triangleapp.h</text>
</a>
</g>
</g>
<!-- Node3&#45;&gt;Node10 -->
<g id="edge10" class="edge">
<title>Node3&#45;&gt;Node10</title>
<path fill="none" stroke="midnightblue" d="M358.6,-160.05C365.95,-158.66 373.41,-157.27 380.5,-156 473.44,-139.32 581.09,-121.79 649.46,-110.88"/>
<polygon fill="midnightblue" stroke="midnightblue" points="357.86,-156.63 348.69,-161.94 359.17,-163.51 357.86,-156.63"/>
</g>
<!-- Node6&#45;&gt;Node5 -->
<g id="edge6" class="edge">
<title>Node6&#45;&gt;Node5</title>
<path fill="none" stroke="midnightblue" d="M219.5,-73.59C219.5,-61.26 219.5,-46.72 219.5,-36.23"/>
<polygon fill="midnightblue" stroke="midnightblue" points="216,-73.7 219.5,-83.7 223,-73.71 216,-73.7"/>
</g>
<!-- Node8 -->
<g id="node8" class="node">
<title>Node8</title>
<g id="a_node8"><a xlink:href="direct12_2iconprogram_2test__randomtexture_2main_8cpp.html" target="_top" xlink:title=" ">
<polygon fill="none" stroke="black" points="472,-0.5 472,-41.5 631,-41.5 631,-0.5 472,-0.5"/>
<text text-anchor="start" x="480" y="-29.5" font-family="Helvetica,sans-Serif" font-size="10.00">src/renderer/direct12</text>
<text text-anchor="start" x="480" y="-18.5" font-family="Helvetica,sans-Serif" font-size="10.00">/iconprogram/test_randomtexture</text>
<text text-anchor="middle" x="551.5" y="-7.5" font-family="Helvetica,sans-Serif" font-size="10.00">/main.cpp</text>
</a>
</g>
</g>
<!-- Node7&#45;&gt;Node8 -->
<g id="edge8" class="edge">
<title>Node7&#45;&gt;Node8</title>
<path fill="none" stroke="midnightblue" d="M457.08,-73.63C476.07,-63.24 497.93,-51.29 515.83,-41.51"/>
<polygon fill="midnightblue" stroke="midnightblue" points="455.39,-70.56 448.3,-78.43 458.75,-76.7 455.39,-70.56"/>
</g>
<!-- Node9 -->
<g id="node9" class="node">
<title>Node9</title>
<g id="a_node9"><a xlink:href="randomtextureapp_8cpp.html" target="_top" xlink:title=" ">
<polygon fill="none" stroke="black" points="295,-0.5 295,-41.5 454,-41.5 454,-0.5 295,-0.5"/>
<text text-anchor="start" x="303" y="-29.5" font-family="Helvetica,sans-Serif" font-size="10.00">src/renderer/direct12</text>
<text text-anchor="start" x="303" y="-18.5" font-family="Helvetica,sans-Serif" font-size="10.00">/iconprogram/test_randomtexture</text>
<text text-anchor="middle" x="374.5" y="-7.5" font-family="Helvetica,sans-Serif" font-size="10.00">/randomtextureapp.cpp</text>
</a>
</g>
</g>
<!-- Node7&#45;&gt;Node9 -->
<g id="edge9" class="edge">
<title>Node7&#45;&gt;Node9</title>
<path fill="none" stroke="midnightblue" d="M398.23,-69.47C393.57,-60.14 388.5,-50.01 384.25,-41.51"/>
<polygon fill="midnightblue" stroke="midnightblue" points="395.11,-71.05 402.71,-78.43 401.37,-67.92 395.11,-71.05"/>
</g>
<!-- Node11 -->
<g id="node11" class="node">
<title>Node11</title>
<g id="a_node11"><a xlink:href="direct12_2vectorprogram_2test__triangle_2main_8cpp.html" target="_top" xlink:title=" ">
<polygon fill="none" stroke="black" points="805.5,-0.5 805.5,-41.5 943.5,-41.5 943.5,-0.5 805.5,-0.5"/>
<text text-anchor="start" x="813.5" y="-29.5" font-family="Helvetica,sans-Serif" font-size="10.00">src/renderer/direct12</text>
<text text-anchor="start" x="813.5" y="-18.5" font-family="Helvetica,sans-Serif" font-size="10.00">/vectorprogram/test_triangle</text>
<text text-anchor="middle" x="874.5" y="-7.5" font-family="Helvetica,sans-Serif" font-size="10.00">/main.cpp</text>
</a>
</g>
</g>
<!-- Node10&#45;&gt;Node11 -->
<g id="edge11" class="edge">
<title>Node10&#45;&gt;Node11</title>
<path fill="none" stroke="midnightblue" d="M767.95,-73.91C789.4,-63.46 814.19,-51.38 834.46,-41.51"/>
<polygon fill="midnightblue" stroke="midnightblue" points="766.13,-70.9 758.67,-78.43 769.2,-77.19 766.13,-70.9"/>
</g>
<!-- Node12 -->
<g id="node12" class="node">
<title>Node12</title>
<g id="a_node12"><a xlink:href="triangleapp_8cpp.html" target="_top" xlink:title=" ">
<polygon fill="none" stroke="black" points="649.5,-0.5 649.5,-41.5 787.5,-41.5 787.5,-0.5 649.5,-0.5"/>
<text text-anchor="start" x="657.5" y="-29.5" font-family="Helvetica,sans-Serif" font-size="10.00">src/renderer/direct12</text>
<text text-anchor="start" x="657.5" y="-18.5" font-family="Helvetica,sans-Serif" font-size="10.00">/vectorprogram/test_triangle</text>
<text text-anchor="middle" x="718.5" y="-7.5" font-family="Helvetica,sans-Serif" font-size="10.00">/triangleapp.cpp</text>
</a>
</g>
</g>
<!-- Node10&#45;&gt;Node12 -->
<g id="edge12" class="edge">
<title>Node10&#45;&gt;Node12</title>
<path fill="none" stroke="midnightblue" d="M718.5,-68.3C718.5,-59.3 718.5,-49.65 718.5,-41.51"/>
<polygon fill="midnightblue" stroke="midnightblue" points="715,-68.43 718.5,-78.43 722,-68.43 715,-68.43"/>
</g>
<!-- Node15&#45;&gt;Node13 -->
<g id="edge16" class="edge">
<title>Node15&#45;&gt;Node13</title>
<path fill="none" stroke="midnightblue" d="M679.4,-226.64C623.84,-213.84 532.61,-192.81 481.74,-181.08"/>
<polygon fill="midnightblue" stroke="midnightblue" points="678.81,-230.1 689.34,-228.94 680.39,-223.28 678.81,-230.1"/>
</g>
<!-- Node15&#45;&gt;Node14 -->
<g id="edge17" class="edge">
<title>Node15&#45;&gt;Node14</title>
<path fill="none" stroke="midnightblue" d="M697.74,-224.78C668.62,-211.91 624.4,-192.35 599.1,-181.17"/>
<polygon fill="midnightblue" stroke="midnightblue" points="696.42,-228.03 706.98,-228.87 699.25,-221.62 696.42,-228.03"/>
</g>
<!-- Node16 -->
<g id="node16" class="node">
<title>Node16</title>
<g id="a_node16"><a xlink:href="downarrowsvg_8cpp.html" target="_top" xlink:title=" ">
<polygon fill="none" stroke="black" points="660,-162 660,-181 835,-181 835,-162 660,-162"/>
<text text-anchor="middle" x="747.5" y="-169" font-family="Helvetica,sans-Serif" font-size="10.00">src/svg&#45;drawings/downarrowsvg.cpp</text>
</a>
</g>
</g>
<!-- Node15&#45;&gt;Node16 -->
<g id="edge18" class="edge">
<title>Node15&#45;&gt;Node16</title>
<path fill="none" stroke="midnightblue" d="M732.5,-218.91C736.52,-206.49 741.61,-190.72 744.71,-181.13"/>
<polygon fill="midnightblue" stroke="midnightblue" points="729.08,-218.14 729.33,-228.73 735.74,-220.29 729.08,-218.14"/>
</g>
<!-- Node17 -->
<g id="node17" class="node">
<title>Node17</title>
<g id="a_node17"><a xlink:href="heartsvg_8cpp.html" target="_top" xlink:title=" ">
<polygon fill="none" stroke="black" points="853,-162 853,-181 1002,-181 1002,-162 853,-162"/>
<text text-anchor="middle" x="927.5" y="-169" font-family="Helvetica,sans-Serif" font-size="10.00">src/svg&#45;drawings/heartsvg.cpp</text>
</a>
</g>
</g>
<!-- Node15&#45;&gt;Node17 -->
<g id="edge19" class="edge">
<title>Node15&#45;&gt;Node17</title>
<path fill="none" stroke="midnightblue" d="M762.79,-225.77C802.61,-212.89 865.59,-192.52 901.02,-181.06"/>
<polygon fill="midnightblue" stroke="midnightblue" points="761.63,-222.46 753.19,-228.87 763.78,-229.12 761.63,-222.46"/>
</g>
<!-- Node18 -->
<g id="node18" class="node">
<title>Node18</title>
<g id="a_node18"><a xlink:href="plusminussvg_8cpp.html" target="_top" xlink:title=" ">
<polygon fill="none" stroke="black" points="1020.5,-162 1020.5,-181 1192.5,-181 1192.5,-162 1020.5,-162"/>
<text text-anchor="middle" x="1106.5" y="-169" font-family="Helvetica,sans-Serif" font-size="10.00">src/svg&#45;drawings/plusminussvg.cpp</text>
</a>
</g>
</g>
<!-- Node15&#45;&gt;Node18 -->
<g id="edge20" class="edge">
<title>Node15&#45;&gt;Node18</title>
<path fill="none" stroke="midnightblue" d="M773.61,-226.81C779.95,-225.47 786.37,-224.16 792.5,-223 840.98,-213.78 974.85,-192.82 1051.22,-181"/>
<polygon fill="midnightblue" stroke="midnightblue" points="772.81,-223.4 763.77,-228.92 774.28,-230.24 772.81,-223.4"/>
</g>
<!-- Node22 -->
<g id="node22" class="node">
<title>Node22</title>
<g id="a_node22"><a xlink:href="opengl_2vectorprogram_2mxvectorprogram_8cpp.html" target="_top" xlink:title=" ">
<polygon fill="none" stroke="black" points="1210.5,-156.5 1210.5,-186.5 1388.5,-186.5 1388.5,-156.5 1210.5,-156.5"/>
<text text-anchor="start" x="1218.5" y="-174.5" font-family="Helvetica,sans-Serif" font-size="10.00">src/renderer/opengl</text>
<text text-anchor="middle" x="1299.5" y="-163.5" font-family="Helvetica,sans-Serif" font-size="10.00">/vectorprogram/mxvectorprogram.cpp</text>
</a>
</g>
</g>
<!-- Node21&#45;&gt;Node22 -->
<g id="edge24" class="edge">
<title>Node21&#45;&gt;Node22</title>
<path fill="none" stroke="midnightblue" d="M1282.9,-213.99C1286.58,-204.8 1290.67,-194.58 1293.87,-186.58"/>
<polygon fill="midnightblue" stroke="midnightblue" points="1279.61,-212.81 1279.14,-223.4 1286.11,-215.41 1279.61,-212.81"/>
</g>
</g>
</svg>
