<?xml version="1.0" encoding="UTF-8" standalone="no"?>
<!DOCTYPE svg PUBLIC "-//W3C//DTD SVG 1.1//EN"
 "http://www.w3.org/Graphics/SVG/1.1/DTD/svg11.dtd">
<!-- Generated by graphviz version 2.44.0 ()
 -->
<!-- Title: src/renderer/opengl/vectorprogram/mxvectorprogram.h Pages: 1 -->
<svg width="1170pt" height="274pt"
 viewBox="0.00 0.00 1169.50 274.00" xmlns="http://www.w3.org/2000/svg" xmlns:xlink="http://www.w3.org/1999/xlink">
<g id="graph0" class="graph" transform="scale(1 1) rotate(0) translate(4 270)">
<title>src/renderer/opengl/vectorprogram/mxvectorprogram.h</title>
<!-- Node1 -->
<g id="node1" class="node">
<title>Node1</title>
<g id="a_node1"><a xlink:title=" ">
<polygon fill="#bfbfbf" stroke="black" points="872,-235.5 872,-265.5 1039,-265.5 1039,-235.5 872,-235.5"/>
<text text-anchor="start" x="880" y="-253.5" font-family="Helvetica,sans-Serif" font-size="10.00">src/renderer/opengl</text>
<text text-anchor="middle" x="955.5" y="-242.5" font-family="Helvetica,sans-Serif" font-size="10.00">/vectorprogram/mxvectorprogram.h</text>
</a>
</g>
</g>
<!-- Node2 -->
<g id="node2" class="node">
<title>Node2</title>
<g id="a_node2"><a xlink:href="mxguirenderer_8h.html" target="_top" xlink:title=" ">
<polygon fill="none" stroke="black" points="774,-174 774,-193 891,-193 891,-174 774,-174"/>
<text text-anchor="middle" x="832.5" y="-181" font-family="Helvetica,sans-Serif" font-size="10.00">src/gui/mxguirenderer.h</text>
</a>
</g>
</g>
<!-- Node1&#45;&gt;Node2 -->
<g id="edge1" class="edge">
<title>Node1&#45;&gt;Node2</title>
<path fill="none" stroke="midnightblue" d="M919.81,-230.64C896.28,-218.2 866.59,-202.51 848.6,-193.01"/>
<polygon fill="midnightblue" stroke="midnightblue" points="918.33,-233.82 928.81,-235.4 921.6,-227.63 918.33,-233.82"/>
</g>
<!-- Node11 -->
<g id="node11" class="node">
<title>Node11</title>
<g id="a_node11"><a xlink:href="mxpainter_8cpp.html" target="_top" xlink:title=" ">
<polygon fill="none" stroke="black" points="938,-112.5 938,-131.5 1047,-131.5 1047,-112.5 938,-112.5"/>
<text text-anchor="middle" x="992.5" y="-119.5" font-family="Helvetica,sans-Serif" font-size="10.00">src/gui/mxpainter.cpp</text>
</a>
</g>
</g>
<!-- Node1&#45;&gt;Node11 -->
<g id="edge14" class="edge">
<title>Node1&#45;&gt;Node11</title>
<path fill="none" stroke="midnightblue" d="M960.07,-225.64C963.45,-209.25 968.49,-187.1 974.5,-168 978.54,-155.16 984.56,-140.79 988.51,-131.82"/>
<polygon fill="midnightblue" stroke="midnightblue" points="956.63,-224.99 958.1,-235.48 963.49,-226.37 956.63,-224.99"/>
</g>
<!-- Node14 -->
<g id="node14" class="node">
<title>Node14</title>
<g id="a_node14"><a xlink:href="mxvectorprogram_8cpp.html" target="_top" xlink:title=" ">
<polygon fill="none" stroke="black" points="983.5,-168.5 983.5,-198.5 1161.5,-198.5 1161.5,-168.5 983.5,-168.5"/>
<text text-anchor="start" x="991.5" y="-186.5" font-family="Helvetica,sans-Serif" font-size="10.00">src/renderer/opengl</text>
<text text-anchor="middle" x="1072.5" y="-175.5" font-family="Helvetica,sans-Serif" font-size="10.00">/vectorprogram/mxvectorprogram.cpp</text>
</a>
</g>
</g>
<!-- Node1&#45;&gt;Node14 -->
<g id="edge15" class="edge">
<title>Node1&#45;&gt;Node14</title>
<path fill="none" stroke="midnightblue" d="M989.82,-230.44C1008.17,-220.24 1030.38,-207.9 1047.16,-198.58"/>
<polygon fill="midnightblue" stroke="midnightblue" points="987.93,-227.48 980.89,-235.4 991.33,-233.6 987.93,-227.48"/>
</g>
<!-- Node3 -->
<g id="node3" class="node">
<title>Node3</title>
<g id="a_node3"><a xlink:href="mxapplication_8h.html" target="_top" xlink:title=" ">
<polygon fill="none" stroke="black" points="367.5,-112.5 367.5,-131.5 499.5,-131.5 499.5,-112.5 367.5,-112.5"/>
<text text-anchor="middle" x="433.5" y="-119.5" font-family="Helvetica,sans-Serif" font-size="10.00">src/events/mxapplication.h</text>
</a>
</g>
</g>
<!-- Node2&#45;&gt;Node3 -->
<g id="edge2" class="edge">
<title>Node2&#45;&gt;Node3</title>
<path fill="none" stroke="midnightblue" d="M765.25,-172.47C688.15,-160.97 563.1,-142.33 490.56,-131.51"/>
<polygon fill="midnightblue" stroke="midnightblue" points="764.93,-175.96 775.33,-173.98 765.96,-169.04 764.93,-175.96"/>
</g>
<!-- Node10 -->
<g id="node10" class="node">
<title>Node10</title>
<g id="a_node10"><a xlink:href="mxguirenderer_8cpp.html" target="_top" xlink:title=" ">
<polygon fill="none" stroke="black" points="598.5,-112.5 598.5,-131.5 726.5,-131.5 726.5,-112.5 598.5,-112.5"/>
<text text-anchor="middle" x="662.5" y="-119.5" font-family="Helvetica,sans-Serif" font-size="10.00">src/gui/mxguirenderer.cpp</text>
</a>
</g>
</g>
<!-- Node2&#45;&gt;Node10 -->
<g id="edge10" class="edge">
<title>Node2&#45;&gt;Node10</title>
<path fill="none" stroke="midnightblue" d="M798.45,-170.58C765.41,-159.02 716.08,-141.75 686.81,-131.51"/>
<polygon fill="midnightblue" stroke="midnightblue" points="797.55,-173.98 808.14,-173.98 799.86,-167.37 797.55,-173.98"/>
</g>
<!-- Node2&#45;&gt;Node11 -->
<g id="edge11" class="edge">
<title>Node2&#45;&gt;Node11</title>
<path fill="none" stroke="midnightblue" d="M864.95,-170.43C896.05,-158.87 942.19,-141.71 969.62,-131.51"/>
<polygon fill="midnightblue" stroke="midnightblue" points="863.58,-167.21 855.42,-173.98 866.02,-173.77 863.58,-167.21"/>
</g>
<!-- Node12 -->
<g id="node12" class="node">
<title>Node12</title>
<g id="a_node12"><a xlink:href="qmewapluginwindow_8h.html" target="_top" xlink:title=" ">
<polygon fill="none" stroke="black" points="745,-112.5 745,-131.5 920,-131.5 920,-112.5 745,-112.5"/>
<text text-anchor="middle" x="832.5" y="-119.5" font-family="Helvetica,sans-Serif" font-size="10.00">src/pluginsdk/qmewapluginwindow.h</text>
</a>
</g>
</g>
<!-- Node2&#45;&gt;Node12 -->
<g id="edge12" class="edge">
<title>Node2&#45;&gt;Node12</title>
<path fill="none" stroke="midnightblue" d="M832.5,-163.82C832.5,-153 832.5,-139.9 832.5,-131.51"/>
<polygon fill="midnightblue" stroke="midnightblue" points="829,-163.98 832.5,-173.98 836,-163.98 829,-163.98"/>
</g>
<!-- Node4 -->
<g id="node4" class="node">
<title>Node4</title>
<g id="a_node4"><a xlink:href="mxapplication_8cpp.html" target="_top" xlink:title=" ">
<polygon fill="none" stroke="black" points="0,-56.5 0,-75.5 143,-75.5 143,-56.5 0,-56.5"/>
<text text-anchor="middle" x="71.5" y="-63.5" font-family="Helvetica,sans-Serif" font-size="10.00">src/events/mxapplication.cpp</text>
</a>
</g>
</g>
<!-- Node3&#45;&gt;Node4 -->
<g id="edge3" class="edge">
<title>Node3&#45;&gt;Node4</title>
<path fill="none" stroke="midnightblue" d="M365.9,-110.92C297.52,-100.71 192.95,-85.12 128.59,-75.52"/>
<polygon fill="midnightblue" stroke="midnightblue" points="365.73,-114.43 376.14,-112.44 366.77,-107.51 365.73,-114.43"/>
</g>
<!-- Node5 -->
<g id="node5" class="node">
<title>Node5</title>
<g id="a_node5"><a xlink:href="qmewawindow_8cpp.html" target="_top" xlink:title=" ">
<polygon fill="none" stroke="black" points="142,-0.5 142,-19.5 307,-19.5 307,-0.5 142,-0.5"/>
<text text-anchor="middle" x="224.5" y="-7.5" font-family="Helvetica,sans-Serif" font-size="10.00">src/platform/qt/qmewawindow.cpp</text>
</a>
</g>
</g>
<!-- Node3&#45;&gt;Node5 -->
<g id="edge4" class="edge">
<title>Node3&#45;&gt;Node5</title>
<path fill="none" stroke="midnightblue" d="M357.02,-117.24C293.91,-112.34 211.45,-101.19 190.5,-76 175.68,-58.18 199.12,-32.85 213.9,-19.69"/>
<polygon fill="midnightblue" stroke="midnightblue" points="357.14,-120.76 367.37,-118 357.65,-113.77 357.14,-120.76"/>
</g>
<!-- Node6 -->
<g id="node6" class="node">
<title>Node6</title>
<g id="a_node6"><a xlink:href="qmewawindow_8h.html" target="_top" xlink:title=" ">
<polygon fill="none" stroke="black" points="200,-56.5 200,-75.5 355,-75.5 355,-56.5 200,-56.5"/>
<text text-anchor="middle" x="277.5" y="-63.5" font-family="Helvetica,sans-Serif" font-size="10.00">src/platform/qt/qmewawindow.h</text>
</a>
</g>
</g>
<!-- Node3&#45;&gt;Node6 -->
<g id="edge5" class="edge">
<title>Node3&#45;&gt;Node6</title>
<path fill="none" stroke="midnightblue" d="M399.33,-109.17C369.96,-99 328.3,-84.59 302.1,-75.52"/>
<polygon fill="midnightblue" stroke="midnightblue" points="398.19,-112.48 408.78,-112.44 400.48,-105.86 398.19,-112.48"/>
</g>
<!-- Node7 -->
<g id="node7" class="node">
<title>Node7</title>
<g id="a_node7"><a xlink:href="mxlabel_8cpp.html" target="_top" xlink:title=" ">
<polygon fill="none" stroke="black" points="373,-56.5 373,-75.5 494,-75.5 494,-56.5 373,-56.5"/>
<text text-anchor="middle" x="433.5" y="-63.5" font-family="Helvetica,sans-Serif" font-size="10.00">src/widgets/mxlabel.cpp</text>
</a>
</g>
</g>
<!-- Node3&#45;&gt;Node7 -->
<g id="edge7" class="edge">
<title>Node3&#45;&gt;Node7</title>
<path fill="none" stroke="midnightblue" d="M433.5,-101.8C433.5,-92.91 433.5,-82.78 433.5,-75.75"/>
<polygon fill="midnightblue" stroke="midnightblue" points="430,-102.08 433.5,-112.08 437,-102.08 430,-102.08"/>
</g>
<!-- Node8 -->
<g id="node8" class="node">
<title>Node8</title>
<g id="a_node8"><a xlink:href="mxlineedit_8cpp.html" target="_top" xlink:title=" ">
<polygon fill="none" stroke="black" points="512,-56.5 512,-75.5 643,-75.5 643,-56.5 512,-56.5"/>
<text text-anchor="middle" x="577.5" y="-63.5" font-family="Helvetica,sans-Serif" font-size="10.00">src/widgets/mxlineedit.cpp</text>
</a>
</g>
</g>
<!-- Node3&#45;&gt;Node8 -->
<g id="edge8" class="edge">
<title>Node3&#45;&gt;Node8</title>
<path fill="none" stroke="midnightblue" d="M465.75,-108.91C492.82,-98.75 530.82,-84.51 554.79,-75.52"/>
<polygon fill="midnightblue" stroke="midnightblue" points="464.45,-105.66 456.32,-112.44 466.91,-112.21 464.45,-105.66"/>
</g>
<!-- Node9 -->
<g id="node9" class="node">
<title>Node9</title>
<g id="a_node9"><a xlink:href="mxtextbutton_8cpp.html" target="_top" xlink:title=" ">
<polygon fill="none" stroke="black" points="661,-56.5 661,-75.5 804,-75.5 804,-56.5 661,-56.5"/>
<text text-anchor="middle" x="732.5" y="-63.5" font-family="Helvetica,sans-Serif" font-size="10.00">src/widgets/mxtextbutton.cpp</text>
</a>
</g>
</g>
<!-- Node3&#45;&gt;Node9 -->
<g id="edge9" class="edge">
<title>Node3&#45;&gt;Node9</title>
<path fill="none" stroke="midnightblue" d="M490.73,-110.66C547.24,-100.46 632.62,-85.04 685.34,-75.52"/>
<polygon fill="midnightblue" stroke="midnightblue" points="490.1,-107.22 480.88,-112.44 491.34,-114.11 490.1,-107.22"/>
</g>
<!-- Node6&#45;&gt;Node5 -->
<g id="edge6" class="edge">
<title>Node6&#45;&gt;Node5</title>
<path fill="none" stroke="midnightblue" d="M261.52,-48.72C252.18,-39.2 240.75,-27.56 233.09,-19.75"/>
<polygon fill="midnightblue" stroke="midnightblue" points="259.25,-51.4 268.75,-56.08 264.24,-46.49 259.25,-51.4"/>
</g>
<!-- Node13 -->
<g id="node13" class="node">
<title>Node13</title>
<g id="a_node13"><a xlink:href="qmewapluginwindow_8cpp.html" target="_top" xlink:title=" ">
<polygon fill="none" stroke="black" points="822,-56.5 822,-75.5 1007,-75.5 1007,-56.5 822,-56.5"/>
<text text-anchor="middle" x="914.5" y="-63.5" font-family="Helvetica,sans-Serif" font-size="10.00">src/pluginsdk/qmewapluginwindow.cpp</text>
</a>
</g>
</g>
<!-- Node12&#45;&gt;Node13 -->
<g id="edge13" class="edge">
<title>Node12&#45;&gt;Node13</title>
<path fill="none" stroke="midnightblue" d="M854.33,-106.62C869.31,-96.76 888.7,-83.99 901.36,-75.65"/>
<polygon fill="midnightblue" stroke="midnightblue" points="852.1,-103.9 845.67,-112.32 855.95,-109.75 852.1,-103.9"/>
</g>
</g>
</svg>
