<?xml version="1.0" encoding="UTF-8" standalone="no"?>
<!DOCTYPE svg PUBLIC "-//W3C//DTD SVG 1.1//EN"
 "http://www.w3.org/Graphics/SVG/1.1/DTD/svg11.dtd">
<!-- Generated by graphviz version 2.44.0 ()
 -->
<!-- Title: src/gui/vectordraw/mxvectordraw.h Pages: 1 -->
<svg width="1530pt" height="296pt"
 viewBox="0.00 0.00 1530.49 296.00" xmlns="http://www.w3.org/2000/svg" xmlns:xlink="http://www.w3.org/1999/xlink">
<g id="graph0" class="graph" transform="scale(1 1) rotate(0) translate(4 292)">
<title>src/gui/vectordraw/mxvectordraw.h</title>
<!-- Node1 -->
<g id="node1" class="node">
<title>Node1</title>
<g id="a_node1"><a xlink:title=" ">
<polygon fill="#bfbfbf" stroke="black" points="796,-257.5 796,-287.5 893,-287.5 893,-257.5 796,-257.5"/>
<text text-anchor="start" x="804" y="-275.5" font-family="Helvetica,sans-Serif" font-size="10.00">src/gui/vectordraw</text>
<text text-anchor="middle" x="844.5" y="-264.5" font-family="Helvetica,sans-Serif" font-size="10.00">/mxvectordraw.h</text>
</a>
</g>
</g>
<!-- Node2 -->
<g id="node2" class="node">
<title>Node2</title>
<g id="a_node2"><a xlink:href="mxpainter_8h.html" target="_top" xlink:title=" ">
<polygon fill="none" stroke="black" points="656.5,-134.5 656.5,-153.5 754.5,-153.5 754.5,-134.5 656.5,-134.5"/>
<text text-anchor="middle" x="705.5" y="-141.5" font-family="Helvetica,sans-Serif" font-size="10.00">src/gui/mxpainter.h</text>
</a>
</g>
</g>
<!-- Node1&#45;&gt;Node2 -->
<g id="edge1" class="edge">
<title>Node1&#45;&gt;Node2</title>
<path fill="none" stroke="midnightblue" d="M821.38,-250.46C790.44,-222.3 736.95,-173.62 715.16,-153.79"/>
<polygon fill="midnightblue" stroke="midnightblue" points="819.34,-253.34 829.09,-257.48 824.05,-248.16 819.34,-253.34"/>
</g>
<!-- Node7 -->
<g id="node7" class="node">
<title>Node7</title>
<g id="a_node7"><a xlink:href="mxsvgpainter_8cpp.html" target="_top" xlink:title=" ">
<polygon fill="none" stroke="black" points="773,-134.5 773,-153.5 916,-153.5 916,-134.5 773,-134.5"/>
<text text-anchor="middle" x="844.5" y="-141.5" font-family="Helvetica,sans-Serif" font-size="10.00">src/gui/svg/mxsvgpainter.cpp</text>
</a>
</g>
</g>
<!-- Node1&#45;&gt;Node7 -->
<g id="edge6" class="edge">
<title>Node1&#45;&gt;Node7</title>
<path fill="none" stroke="midnightblue" d="M844.5,-247.14C844.5,-218.62 844.5,-172.86 844.5,-153.79"/>
<polygon fill="midnightblue" stroke="midnightblue" points="841,-247.48 844.5,-257.48 848,-247.48 841,-247.48"/>
</g>
<!-- Node8 -->
<g id="node8" class="node">
<title>Node8</title>
<g id="a_node8"><a xlink:href="mxsvgpainter_8h.html" target="_top" xlink:title=" ">
<polygon fill="none" stroke="black" points="1011,-196 1011,-215 1144,-215 1144,-196 1011,-196"/>
<text text-anchor="middle" x="1077.5" y="-203" font-family="Helvetica,sans-Serif" font-size="10.00">src/gui/svg/mxsvgpainter.h</text>
</a>
</g>
</g>
<!-- Node1&#45;&gt;Node8 -->
<g id="edge7" class="edge">
<title>Node1&#45;&gt;Node8</title>
<path fill="none" stroke="midnightblue" d="M902.84,-255.22C948.54,-242.48 1010.29,-225.25 1046.8,-215.06"/>
<polygon fill="midnightblue" stroke="midnightblue" points="901.75,-251.89 893.06,-257.95 903.63,-258.64 901.75,-251.89"/>
</g>
<!-- Node12 -->
<g id="node12" class="node">
<title>Node12</title>
<g id="a_node12"><a xlink:href="mxvectordraw_8cpp.html" target="_top" xlink:title=" ">
<polygon fill="none" stroke="black" points="1308.5,-67.5 1308.5,-97.5 1406.5,-97.5 1406.5,-67.5 1308.5,-67.5"/>
<text text-anchor="start" x="1316.5" y="-85.5" font-family="Helvetica,sans-Serif" font-size="10.00">src/gui/vectordraw</text>
<text text-anchor="middle" x="1357.5" y="-74.5" font-family="Helvetica,sans-Serif" font-size="10.00">/mxvectordraw.cpp</text>
</a>
</g>
</g>
<!-- Node1&#45;&gt;Node12 -->
<g id="edge13" class="edge">
<title>Node1&#45;&gt;Node12</title>
<path fill="none" stroke="midnightblue" d="M903.49,-270.48C1052.36,-266.52 1436.94,-247.28 1514.5,-154 1547.55,-114.25 1464.23,-96.03 1406.73,-88.39"/>
<polygon fill="midnightblue" stroke="midnightblue" points="903.1,-266.98 893.19,-270.74 903.28,-273.98 903.1,-266.98"/>
</g>
<!-- Node13 -->
<g id="node13" class="node">
<title>Node13</title>
<g id="a_node13"><a xlink:href="mxvectorprogram_8h.html" target="_top" xlink:title=" ">
<polygon fill="none" stroke="black" points="515.5,-190.5 515.5,-220.5 617.5,-220.5 617.5,-190.5 515.5,-190.5"/>
<text text-anchor="start" x="523.5" y="-208.5" font-family="Helvetica,sans-Serif" font-size="10.00">src/gui/vectordraw</text>
<text text-anchor="middle" x="566.5" y="-197.5" font-family="Helvetica,sans-Serif" font-size="10.00">/mxvectorprogram.h</text>
</a>
</g>
</g>
<!-- Node1&#45;&gt;Node13 -->
<g id="edge14" class="edge">
<title>Node1&#45;&gt;Node13</title>
<path fill="none" stroke="midnightblue" d="M785.77,-257.77C735.9,-246.11 665.07,-229.55 617.54,-218.43"/>
<polygon fill="midnightblue" stroke="midnightblue" points="785.22,-261.23 795.76,-260.1 786.82,-254.42 785.22,-261.23"/>
</g>
<!-- Node3 -->
<g id="node3" class="node">
<title>Node3</title>
<g id="a_node3"><a xlink:href="mxapplication_8h.html" target="_top" xlink:title=" ">
<polygon fill="none" stroke="black" points="855.5,-73 855.5,-92 987.5,-92 987.5,-73 855.5,-73"/>
<text text-anchor="middle" x="921.5" y="-80" font-family="Helvetica,sans-Serif" font-size="10.00">src/events/mxapplication.h</text>
</a>
</g>
</g>
<!-- Node2&#45;&gt;Node3 -->
<g id="edge2" class="edge">
<title>Node2&#45;&gt;Node3</title>
<path fill="none" stroke="midnightblue" d="M746.34,-131.75C788.31,-120.19 852.7,-102.45 890.61,-92.01"/>
<polygon fill="midnightblue" stroke="midnightblue" points="745.16,-128.44 736.45,-134.48 747.02,-135.19 745.16,-128.44"/>
</g>
<!-- Node6 -->
<g id="node6" class="node">
<title>Node6</title>
<g id="a_node6"><a xlink:href="mxpainter_8cpp.html" target="_top" xlink:title=" ">
<polygon fill="none" stroke="black" points="1006,-73 1006,-92 1115,-92 1115,-73 1006,-73"/>
<text text-anchor="middle" x="1060.5" y="-80" font-family="Helvetica,sans-Serif" font-size="10.00">src/gui/mxpainter.cpp</text>
</a>
</g>
</g>
<!-- Node2&#45;&gt;Node6 -->
<g id="edge5" class="edge">
<title>Node2&#45;&gt;Node6</title>
<path fill="none" stroke="midnightblue" d="M764.56,-133.97C846.31,-121.47 985.22,-100.15 996.5,-98 1005.68,-96.25 1015.54,-94.14 1024.71,-92.07"/>
<polygon fill="midnightblue" stroke="midnightblue" points="764,-130.52 754.65,-135.49 765.06,-137.44 764,-130.52"/>
</g>
<!-- Node4 -->
<g id="node4" class="node">
<title>Node4</title>
<g id="a_node4"><a xlink:href="mxapplication_8cpp.html" target="_top" xlink:title=" ">
<polygon fill="none" stroke="black" points="776,-6 776,-25 919,-25 919,-6 776,-6"/>
<text text-anchor="middle" x="847.5" y="-13" font-family="Helvetica,sans-Serif" font-size="10.00">src/events/mxapplication.cpp</text>
</a>
</g>
</g>
<!-- Node3&#45;&gt;Node4 -->
<g id="edge3" class="edge">
<title>Node3&#45;&gt;Node4</title>
<path fill="none" stroke="midnightblue" d="M903.69,-65.86C889.14,-53.08 869.12,-35.49 857.32,-25.13"/>
<polygon fill="midnightblue" stroke="midnightblue" points="901.7,-68.76 911.52,-72.73 906.32,-63.5 901.7,-68.76"/>
</g>
<!-- Node5 -->
<g id="node5" class="node">
<title>Node5</title>
<g id="a_node5"><a xlink:href="qmewawindow_8cpp.html" target="_top" xlink:title=" ">
<polygon fill="none" stroke="black" points="937.5,-0.5 937.5,-30.5 1053.5,-30.5 1053.5,-0.5 937.5,-0.5"/>
<text text-anchor="start" x="945.5" y="-18.5" font-family="Helvetica,sans-Serif" font-size="10.00">src/platformabstraction</text>
<text text-anchor="middle" x="995.5" y="-7.5" font-family="Helvetica,sans-Serif" font-size="10.00">/qt/qmewawindow.cpp</text>
</a>
</g>
</g>
<!-- Node3&#45;&gt;Node5 -->
<g id="edge4" class="edge">
<title>Node3&#45;&gt;Node5</title>
<path fill="none" stroke="midnightblue" d="M939.23,-65.93C951.47,-55.18 967.6,-41 979.46,-30.59"/>
<polygon fill="midnightblue" stroke="midnightblue" points="936.68,-63.5 931.48,-72.73 941.3,-68.76 936.68,-63.5"/>
</g>
<!-- Node8&#45;&gt;Node6 -->
<g id="edge8" class="edge">
<title>Node8&#45;&gt;Node6</title>
<path fill="none" stroke="midnightblue" d="M1095.46,-188.59C1109.04,-174.54 1124,-153.33 1115.5,-134 1107.36,-115.49 1088.72,-100.78 1075.4,-92.12"/>
<polygon fill="midnightblue" stroke="midnightblue" points="1092.97,-186.14 1088.22,-195.61 1097.84,-191.16 1092.97,-186.14"/>
</g>
<!-- Node8&#45;&gt;Node7 -->
<g id="edge9" class="edge">
<title>Node8&#45;&gt;Node7</title>
<path fill="none" stroke="midnightblue" d="M1034.3,-193.47C989.06,-181.91 918.97,-164.02 877.82,-153.51"/>
<polygon fill="midnightblue" stroke="midnightblue" points="1033.56,-196.89 1044.12,-195.98 1035.29,-190.11 1033.56,-196.89"/>
</g>
<!-- Node9 -->
<g id="node9" class="node">
<title>Node9</title>
<g id="a_node9"><a xlink:href="downarrowsvg_8cpp.html" target="_top" xlink:title=" ">
<polygon fill="none" stroke="black" points="1163,-134.5 1163,-153.5 1338,-153.5 1338,-134.5 1163,-134.5"/>
<text text-anchor="middle" x="1250.5" y="-141.5" font-family="Helvetica,sans-Serif" font-size="10.00">src/svg&#45;drawings/downarrowsvg.cpp</text>
</a>
</g>
</g>
<!-- Node8&#45;&gt;Node9 -->
<g id="edge10" class="edge">
<title>Node8&#45;&gt;Node9</title>
<path fill="none" stroke="midnightblue" d="M1112.15,-192.58C1145.78,-181.02 1195.98,-163.75 1225.76,-153.51"/>
<polygon fill="midnightblue" stroke="midnightblue" points="1110.6,-189.41 1102.29,-195.98 1112.88,-196.03 1110.6,-189.41"/>
</g>
<!-- Node10 -->
<g id="node10" class="node">
<title>Node10</title>
<g id="a_node10"><a xlink:href="heartsvg_8cpp.html" target="_top" xlink:title=" ">
<polygon fill="none" stroke="black" points="1356,-134.5 1356,-153.5 1505,-153.5 1505,-134.5 1356,-134.5"/>
<text text-anchor="middle" x="1430.5" y="-141.5" font-family="Helvetica,sans-Serif" font-size="10.00">src/svg&#45;drawings/heartsvg.cpp</text>
</a>
</g>
</g>
<!-- Node8&#45;&gt;Node10 -->
<g id="edge11" class="edge">
<title>Node8&#45;&gt;Node10</title>
<path fill="none" stroke="midnightblue" d="M1138.26,-194.26C1206.56,-182.75 1316.23,-164.26 1380.02,-153.51"/>
<polygon fill="midnightblue" stroke="midnightblue" points="1137.36,-190.86 1128.08,-195.98 1138.52,-197.76 1137.36,-190.86"/>
</g>
<!-- Node11 -->
<g id="node11" class="node">
<title>Node11</title>
<g id="a_node11"><a xlink:href="plusminussvg_8cpp.html" target="_top" xlink:title=" ">
<polygon fill="none" stroke="black" points="934.5,-134.5 934.5,-153.5 1106.5,-153.5 1106.5,-134.5 934.5,-134.5"/>
<text text-anchor="middle" x="1020.5" y="-141.5" font-family="Helvetica,sans-Serif" font-size="10.00">src/svg&#45;drawings/plusminussvg.cpp</text>
</a>
</g>
</g>
<!-- Node8&#45;&gt;Node11 -->
<g id="edge12" class="edge">
<title>Node8&#45;&gt;Node11</title>
<path fill="none" stroke="midnightblue" d="M1062.17,-188.5C1051.38,-177.24 1037.36,-162.6 1028.65,-153.51"/>
<polygon fill="midnightblue" stroke="midnightblue" points="1059.89,-191.18 1069.33,-195.98 1064.94,-186.33 1059.89,-191.18"/>
</g>
<!-- Node14 -->
<g id="node14" class="node">
<title>Node14</title>
<g id="a_node14"><a xlink:href="mxrenderer_8h.html" target="_top" xlink:title=" ">
<polygon fill="none" stroke="black" points="495,-134.5 495,-153.5 638,-153.5 638,-134.5 495,-134.5"/>
<text text-anchor="middle" x="566.5" y="-141.5" font-family="Helvetica,sans-Serif" font-size="10.00">src/gui/renderer/mxrenderer.h</text>
</a>
</g>
</g>
<!-- Node13&#45;&gt;Node14 -->
<g id="edge15" class="edge">
<title>Node13&#45;&gt;Node14</title>
<path fill="none" stroke="midnightblue" d="M566.5,-180.29C566.5,-170.86 566.5,-160.65 566.5,-153.66"/>
<polygon fill="midnightblue" stroke="midnightblue" points="563,-180.4 566.5,-190.4 570,-180.4 563,-180.4"/>
</g>
<!-- Node20 -->
<g id="node20" class="node">
<title>Node20</title>
<g id="a_node20"><a xlink:href="mxvectorprogram_8cpp.html" target="_top" xlink:title=" ">
<polygon fill="none" stroke="black" points="0,-67.5 0,-97.5 113,-97.5 113,-67.5 0,-67.5"/>
<text text-anchor="start" x="8" y="-85.5" font-family="Helvetica,sans-Serif" font-size="10.00">src/gui/vectordraw</text>
<text text-anchor="middle" x="56.5" y="-74.5" font-family="Helvetica,sans-Serif" font-size="10.00">/mxvectorprogram.cpp</text>
</a>
</g>
</g>
<!-- Node13&#45;&gt;Node20 -->
<g id="edge25" class="edge">
<title>Node13&#45;&gt;Node20</title>
<path fill="none" stroke="midnightblue" d="M505.35,-189.99C405.7,-166.35 209.75,-119.86 113.12,-96.93"/>
<polygon fill="midnightblue" stroke="midnightblue" points="504.73,-193.44 515.26,-192.34 506.34,-186.63 504.73,-193.44"/>
</g>
<!-- Node14&#45;&gt;Node3 -->
<g id="edge16" class="edge">
<title>Node14&#45;&gt;Node3</title>
<path fill="none" stroke="midnightblue" d="M632.83,-132.94C689.63,-124.19 773.55,-110.91 846.5,-98 856.95,-96.15 868.19,-94.04 878.71,-92.02"/>
<polygon fill="midnightblue" stroke="midnightblue" points="632.25,-129.49 622.9,-134.47 633.32,-136.41 632.25,-129.49"/>
</g>
<!-- Node14&#45;&gt;Node6 -->
<g id="edge20" class="edge">
<title>Node14&#45;&gt;Node6</title>
<path fill="none" stroke="midnightblue" d="M648.02,-133.96C804.24,-117.62 845.78,-122.75 996.5,-98 1006.28,-96.39 1016.81,-94.2 1026.44,-92.01"/>
<polygon fill="midnightblue" stroke="midnightblue" points="647.63,-130.49 638.05,-135.02 648.36,-137.45 647.63,-130.49"/>
</g>
<!-- Node14&#45;&gt;Node12 -->
<g id="edge23" class="edge">
<title>Node14&#45;&gt;Node12</title>
<path fill="none" stroke="midnightblue" d="M648.18,-133.98C794.71,-121.03 1173.08,-95.7 1308.49,-86.73"/>
<polygon fill="midnightblue" stroke="midnightblue" points="647.68,-130.52 638.04,-134.9 648.31,-137.49 647.68,-130.52"/>
</g>
<!-- Node15 -->
<g id="node15" class="node">
<title>Node15</title>
<g id="a_node15"><a xlink:href="mxcolorwheelprogram_8cpp.html" target="_top" xlink:title=" ">
<polygon fill="none" stroke="black" points="302.5,-67.5 302.5,-97.5 434.5,-97.5 434.5,-67.5 302.5,-67.5"/>
<text text-anchor="start" x="310.5" y="-85.5" font-family="Helvetica,sans-Serif" font-size="10.00">src/gui/colorselector</text>
<text text-anchor="middle" x="368.5" y="-74.5" font-family="Helvetica,sans-Serif" font-size="10.00">/mxcolorwheelprogram.cpp</text>
</a>
</g>
</g>
<!-- Node14&#45;&gt;Node15 -->
<g id="edge17" class="edge">
<title>Node14&#45;&gt;Node15</title>
<path fill="none" stroke="midnightblue" d="M528.18,-131.48C495.89,-121.78 449.6,-107.87 415.16,-97.52"/>
<polygon fill="midnightblue" stroke="midnightblue" points="527.55,-134.95 538.13,-134.48 529.56,-128.25 527.55,-134.95"/>
</g>
<!-- Node16 -->
<g id="node16" class="node">
<title>Node16</title>
<g id="a_node16"><a xlink:href="gpubuffer_8cpp.html" target="_top" xlink:title=" ">
<polygon fill="none" stroke="black" points="453,-73 453,-92 560,-92 560,-73 453,-73"/>
<text text-anchor="middle" x="506.5" y="-80" font-family="Helvetica,sans-Serif" font-size="10.00">src/gui/gpubuffer.cpp</text>
</a>
</g>
</g>
<!-- Node14&#45;&gt;Node16 -->
<g id="edge18" class="edge">
<title>Node14&#45;&gt;Node16</title>
<path fill="none" stroke="midnightblue" d="M550.69,-127.32C539.29,-116.02 524.34,-101.19 515.08,-92.01"/>
<polygon fill="midnightblue" stroke="midnightblue" points="548.34,-129.92 557.9,-134.48 553.27,-124.95 548.34,-129.92"/>
</g>
<!-- Node17 -->
<g id="node17" class="node">
<title>Node17</title>
<g id="a_node17"><a xlink:href="gpuvbo_8cpp.html" target="_top" xlink:title=" ">
<polygon fill="none" stroke="black" points="577.5,-73 577.5,-92 675.5,-92 675.5,-73 577.5,-73"/>
<text text-anchor="middle" x="626.5" y="-80" font-family="Helvetica,sans-Serif" font-size="10.00">src/gui/gpuvbo.cpp</text>
</a>
</g>
</g>
<!-- Node14&#45;&gt;Node17 -->
<g id="edge19" class="edge">
<title>Node14&#45;&gt;Node17</title>
<path fill="none" stroke="midnightblue" d="M582.31,-127.32C593.71,-116.02 608.66,-101.19 617.92,-92.01"/>
<polygon fill="midnightblue" stroke="midnightblue" points="579.73,-124.95 575.1,-134.48 584.66,-129.92 579.73,-124.95"/>
</g>
<!-- Node18 -->
<g id="node18" class="node">
<title>Node18</title>
<g id="a_node18"><a xlink:href="mxshaderprogram_8cpp.html" target="_top" xlink:title=" ">
<polygon fill="none" stroke="black" points="693.5,-73 693.5,-92 837.5,-92 837.5,-73 693.5,-73"/>
<text text-anchor="middle" x="765.5" y="-80" font-family="Helvetica,sans-Serif" font-size="10.00">src/gui/mxshaderprogram.cpp</text>
</a>
</g>
</g>
<!-- Node14&#45;&gt;Node18 -->
<g id="edge21" class="edge">
<title>Node14&#45;&gt;Node18</title>
<path fill="none" stroke="midnightblue" d="M604.87,-131.53C643.54,-119.96 702.34,-102.38 737.04,-92.01"/>
<polygon fill="midnightblue" stroke="midnightblue" points="603.59,-128.26 595.01,-134.48 605.6,-134.96 603.59,-128.26"/>
</g>
<!-- Node19 -->
<g id="node19" class="node">
<title>Node19</title>
<g id="a_node19"><a xlink:href="mxrenderer_8cpp.html" target="_top" xlink:title=" ">
<polygon fill="none" stroke="black" points="131,-73 131,-92 284,-92 284,-73 131,-73"/>
<text text-anchor="middle" x="207.5" y="-80" font-family="Helvetica,sans-Serif" font-size="10.00">src/gui/renderer/mxrenderer.cpp</text>
</a>
</g>
</g>
<!-- Node14&#45;&gt;Node19 -->
<g id="edge22" class="edge">
<title>Node14&#45;&gt;Node19</title>
<path fill="none" stroke="midnightblue" d="M504.41,-132.83C449.07,-123.75 365.87,-110.07 293.5,-98 282,-96.08 269.64,-94.01 257.97,-92.04"/>
<polygon fill="midnightblue" stroke="midnightblue" points="503.97,-136.31 514.41,-134.47 505.11,-129.4 503.97,-136.31"/>
</g>
<!-- Node14&#45;&gt;Node20 -->
<g id="edge24" class="edge">
<title>Node14&#45;&gt;Node20</title>
<path fill="none" stroke="midnightblue" d="M484.78,-137.66C395.23,-131.13 247.54,-118.36 121.5,-98 118.76,-97.56 115.96,-97.07 113.14,-96.55"/>
<polygon fill="midnightblue" stroke="midnightblue" points="484.64,-141.16 494.87,-138.39 485.15,-134.18 484.64,-141.16"/>
</g>
</g>
</svg>
