<?xml version="1.0" encoding="UTF-8" standalone="no"?>
<!DOCTYPE svg PUBLIC "-//W3C//DTD SVG 1.1//EN"
 "http://www.w3.org/Graphics/SVG/1.1/DTD/svg11.dtd">
<!-- Generated by graphviz version 2.44.0 ()
 -->
<!-- Title: src/renderer/opengl/vectorprogram/mxvectorprogram.h Pages: 1 -->
<svg width="285pt" height="263pt"
 viewBox="0.00 0.00 285.00 263.00" xmlns="http://www.w3.org/2000/svg" xmlns:xlink="http://www.w3.org/1999/xlink">
<g id="graph0" class="graph" transform="scale(1 1) rotate(0) translate(4 259)">
<title>src/renderer/opengl/vectorprogram/mxvectorprogram.h</title>
<!-- Node1 -->
<g id="node1" class="node">
<title>Node1</title>
<g id="a_node1"><a xlink:title=" ">
<polygon fill="#bfbfbf" stroke="black" points="54.5,-224.5 54.5,-254.5 221.5,-254.5 221.5,-224.5 54.5,-224.5"/>
<text text-anchor="start" x="62.5" y="-242.5" font-family="Helvetica,sans-Serif" font-size="10.00">src/renderer/opengl</text>
<text text-anchor="middle" x="138" y="-231.5" font-family="Helvetica,sans-Serif" font-size="10.00">/vectorprogram/mxvectorprogram.h</text>
</a>
</g>
</g>
<!-- Node2 -->
<g id="node2" class="node">
<title>Node2</title>
<g id="a_node2"><a xlink:href="mxgpuprogram_8h.html" target="_top" xlink:title=" ">
<polygon fill="none" stroke="black" points="0,-168.5 0,-187.5 88,-187.5 88,-168.5 0,-168.5"/>
<text text-anchor="middle" x="44" y="-175.5" font-family="Helvetica,sans-Serif" font-size="10.00">mxgpuprogram.h</text>
</a>
</g>
</g>
<!-- Node1&#45;&gt;Node2 -->
<g id="edge1" class="edge">
<title>Node1&#45;&gt;Node2</title>
<path fill="none" stroke="midnightblue" d="M115.72,-224.4C100.8,-214.95 81.22,-202.56 66.29,-193.11"/>
<polygon fill="midnightblue" stroke="midnightblue" points="68,-190.05 57.68,-187.66 64.26,-195.96 68,-190.05"/>
</g>
<!-- Node5 -->
<g id="node5" class="node">
<title>Node5</title>
<g id="a_node5"><a xlink:href="mxmatrix_8h.html" target="_top" xlink:title=" ">
<polygon fill="none" stroke="black" points="106.5,-168.5 106.5,-187.5 169.5,-187.5 169.5,-168.5 106.5,-168.5"/>
<text text-anchor="middle" x="138" y="-175.5" font-family="Helvetica,sans-Serif" font-size="10.00">mxmatrix.h</text>
</a>
</g>
</g>
<!-- Node1&#45;&gt;Node5 -->
<g id="edge4" class="edge">
<title>Node1&#45;&gt;Node5</title>
<path fill="none" stroke="midnightblue" d="M138,-224.4C138,-216.47 138,-206.46 138,-197.86"/>
<polygon fill="midnightblue" stroke="midnightblue" points="141.5,-197.66 138,-187.66 134.5,-197.66 141.5,-197.66"/>
</g>
<!-- Node6 -->
<g id="node6" class="node">
<title>Node6</title>
<g id="a_node6"><a xlink:href="mxvectordraw_8h.html" target="_top" xlink:title=" ">
<polygon fill="none" stroke="black" points="187.5,-168.5 187.5,-187.5 272.5,-187.5 272.5,-168.5 187.5,-168.5"/>
<text text-anchor="middle" x="230" y="-175.5" font-family="Helvetica,sans-Serif" font-size="10.00">mxvectordraw.h</text>
</a>
</g>
</g>
<!-- Node1&#45;&gt;Node6 -->
<g id="edge5" class="edge">
<title>Node1&#45;&gt;Node6</title>
<path fill="none" stroke="midnightblue" d="M159.8,-224.4C174.41,-214.95 193.57,-202.56 208.18,-193.11"/>
<polygon fill="midnightblue" stroke="midnightblue" points="210.12,-196.03 216.61,-187.66 206.32,-190.15 210.12,-196.03"/>
</g>
<!-- Node3 -->
<g id="node3" class="node">
<title>Node3</title>
<g id="a_node3"><a xlink:title=" ">
<polygon fill="none" stroke="#bfbfbf" points="79.5,-0.5 79.5,-19.5 142.5,-19.5 142.5,-0.5 79.5,-0.5"/>
<text text-anchor="middle" x="111" y="-7.5" font-family="Helvetica,sans-Serif" font-size="10.00">mxdebug.h</text>
</a>
</g>
</g>
<!-- Node2&#45;&gt;Node3 -->
<g id="edge2" class="edge">
<title>Node2&#45;&gt;Node3</title>
<path fill="none" stroke="midnightblue" d="M46.23,-168.46C49.58,-155.91 56.37,-131.84 64,-112 75.47,-82.18 91.71,-48.78 101.78,-28.85"/>
<polygon fill="midnightblue" stroke="midnightblue" points="105,-30.24 106.43,-19.74 98.77,-27.06 105,-30.24"/>
</g>
<!-- Node4 -->
<g id="node4" class="node">
<title>Node4</title>
<g id="a_node4"><a xlink:title=" ">
<polygon fill="none" stroke="#bfbfbf" points="72.5,-112.5 72.5,-131.5 137.5,-131.5 137.5,-112.5 72.5,-112.5"/>
<text text-anchor="middle" x="105" y="-119.5" font-family="Helvetica,sans-Serif" font-size="10.00">mxopengl.h</text>
</a>
</g>
</g>
<!-- Node2&#45;&gt;Node4 -->
<g id="edge3" class="edge">
<title>Node2&#45;&gt;Node4</title>
<path fill="none" stroke="midnightblue" d="M53.8,-168.32C62.82,-160.34 76.41,-148.31 87.32,-138.65"/>
<polygon fill="midnightblue" stroke="midnightblue" points="89.85,-141.08 95.02,-131.83 85.21,-135.84 89.85,-141.08"/>
</g>
<!-- Node7 -->
<g id="node7" class="node">
<title>Node7</title>
<g id="a_node7"><a xlink:href="mxrect_8h.html" target="_top" xlink:title=" ">
<polygon fill="none" stroke="black" points="174.5,-112.5 174.5,-131.5 227.5,-131.5 227.5,-112.5 174.5,-112.5"/>
<text text-anchor="middle" x="201" y="-119.5" font-family="Helvetica,sans-Serif" font-size="10.00">mxrect.h</text>
</a>
</g>
</g>
<!-- Node6&#45;&gt;Node7 -->
<g id="edge6" class="edge">
<title>Node6&#45;&gt;Node7</title>
<path fill="none" stroke="midnightblue" d="M225.21,-168.08C221.24,-160.69 215.47,-149.95 210.57,-140.81"/>
<polygon fill="midnightblue" stroke="midnightblue" points="213.51,-138.91 205.7,-131.75 207.35,-142.22 213.51,-138.91"/>
</g>
<!-- Node7&#45;&gt;Node3 -->
<g id="edge7" class="edge">
<title>Node7&#45;&gt;Node3</title>
<path fill="none" stroke="midnightblue" d="M179.71,-112.49C163.81,-105.1 142.72,-92.91 130,-76 119.95,-62.64 115.2,-44.07 112.97,-30.2"/>
<polygon fill="midnightblue" stroke="midnightblue" points="116.38,-29.33 111.62,-19.87 109.44,-30.24 116.38,-29.33"/>
</g>
<!-- Node8 -->
<g id="node8" class="node">
<title>Node8</title>
<g id="a_node8"><a xlink:href="mxvector_8h.html" target="_top" xlink:title=" ">
<polygon fill="none" stroke="black" points="139,-56.5 139,-75.5 203,-75.5 203,-56.5 139,-56.5"/>
<text text-anchor="middle" x="171" y="-63.5" font-family="Helvetica,sans-Serif" font-size="10.00">mxvector.h</text>
</a>
</g>
</g>
<!-- Node7&#45;&gt;Node8 -->
<g id="edge8" class="edge">
<title>Node7&#45;&gt;Node8</title>
<path fill="none" stroke="midnightblue" d="M196.05,-112.08C191.9,-104.61 185.85,-93.72 180.73,-84.52"/>
<polygon fill="midnightblue" stroke="midnightblue" points="183.78,-82.79 175.86,-75.75 177.66,-86.19 183.78,-82.79"/>
</g>
<!-- Node9 -->
<g id="node9" class="node">
<title>Node9</title>
<g id="a_node9"><a xlink:title=" ">
<polygon fill="none" stroke="#bfbfbf" points="221,-56.5 221,-75.5 277,-75.5 277,-56.5 221,-56.5"/>
<text text-anchor="middle" x="249" y="-63.5" font-family="Helvetica,sans-Serif" font-size="10.00">algorithm</text>
</a>
</g>
</g>
<!-- Node7&#45;&gt;Node9 -->
<g id="edge10" class="edge">
<title>Node7&#45;&gt;Node9</title>
<path fill="none" stroke="midnightblue" d="M208.93,-112.08C215.85,-104.3 226.07,-92.8 234.45,-83.37"/>
<polygon fill="midnightblue" stroke="midnightblue" points="237.19,-85.55 241.22,-75.75 231.96,-80.9 237.19,-85.55"/>
</g>
<!-- Node8&#45;&gt;Node3 -->
<g id="edge9" class="edge">
<title>Node8&#45;&gt;Node3</title>
<path fill="none" stroke="midnightblue" d="M161.36,-56.32C152.49,-48.34 139.13,-36.31 128.39,-26.65"/>
<polygon fill="midnightblue" stroke="midnightblue" points="130.59,-23.92 120.82,-19.83 125.91,-29.13 130.59,-23.92"/>
</g>
</g>
</svg>
