<?xml version="1.0" encoding="UTF-8" standalone="no"?>
<!DOCTYPE svg PUBLIC "-//W3C//DTD SVG 1.1//EN"
 "http://www.w3.org/Graphics/SVG/1.1/DTD/svg11.dtd">
<!-- Generated by graphviz version 2.44.0 ()
 -->
<!-- Title: src/renderer/opengl/mxrenderer.h Pages: 1 -->
<svg width="360pt" height="106pt"
 viewBox="0.00 0.00 359.50 106.00" xmlns="http://www.w3.org/2000/svg" xmlns:xlink="http://www.w3.org/1999/xlink">
<g id="graph0" class="graph" transform="scale(1 1) rotate(0) translate(4 102)">
<title>src/renderer/opengl/mxrenderer.h</title>
<!-- Node1 -->
<g id="node1" class="node">
<title>Node1</title>
<g id="a_node1"><a xlink:title=" ">
<polygon fill="#bfbfbf" stroke="black" points="118,-67.5 118,-97.5 218,-97.5 218,-67.5 118,-67.5"/>
<text text-anchor="start" x="126" y="-85.5" font-family="Helvetica,sans-Serif" font-size="10.00">src/renderer/opengl</text>
<text text-anchor="middle" x="168" y="-74.5" font-family="Helvetica,sans-Serif" font-size="10.00">/mxrenderer.h</text>
</a>
</g>
</g>
<!-- Node2 -->
<g id="node2" class="node">
<title>Node2</title>
<g id="a_node2"><a xlink:href="opengl_2mxgpuarray_8cpp.html" target="_top" xlink:title=" ">
<polygon fill="none" stroke="black" points="0,-0.5 0,-30.5 100,-30.5 100,-0.5 0,-0.5"/>
<text text-anchor="start" x="8" y="-18.5" font-family="Helvetica,sans-Serif" font-size="10.00">src/renderer/opengl</text>
<text text-anchor="middle" x="50" y="-7.5" font-family="Helvetica,sans-Serif" font-size="10.00">/mxgpuarray.cpp</text>
</a>
</g>
</g>
<!-- Node1&#45;&gt;Node2 -->
<g id="edge1" class="edge">
<title>Node1&#45;&gt;Node2</title>
<path fill="none" stroke="midnightblue" d="M133.39,-62.44C114.88,-52.24 92.48,-39.9 75.55,-30.58"/>
<polygon fill="midnightblue" stroke="midnightblue" points="131.95,-65.64 142.4,-67.4 135.33,-59.51 131.95,-65.64"/>
</g>
<!-- Node3 -->
<g id="node3" class="node">
<title>Node3</title>
<g id="a_node3"><a xlink:href="opengl_2mxrenderer_8cpp.html" target="_top" xlink:title=" ">
<polygon fill="none" stroke="black" points="118,-0.5 118,-30.5 218,-30.5 218,-0.5 118,-0.5"/>
<text text-anchor="start" x="126" y="-18.5" font-family="Helvetica,sans-Serif" font-size="10.00">src/renderer/opengl</text>
<text text-anchor="middle" x="168" y="-7.5" font-family="Helvetica,sans-Serif" font-size="10.00">/mxrenderer.cpp</text>
</a>
</g>
</g>
<!-- Node1&#45;&gt;Node3 -->
<g id="edge2" class="edge">
<title>Node1&#45;&gt;Node3</title>
<path fill="none" stroke="midnightblue" d="M168,-57.11C168,-48.15 168,-38.32 168,-30.58"/>
<polygon fill="midnightblue" stroke="midnightblue" points="164.5,-57.4 168,-67.4 171.5,-57.4 164.5,-57.4"/>
</g>
<!-- Node4 -->
<g id="node4" class="node">
<title>Node4</title>
<g id="a_node4"><a xlink:href="mxshaderprogram_8cpp.html" target="_top" xlink:title=" ">
<polygon fill="none" stroke="black" points="236.5,-0.5 236.5,-30.5 351.5,-30.5 351.5,-0.5 236.5,-0.5"/>
<text text-anchor="start" x="244.5" y="-18.5" font-family="Helvetica,sans-Serif" font-size="10.00">src/renderer/opengl</text>
<text text-anchor="middle" x="294" y="-7.5" font-family="Helvetica,sans-Serif" font-size="10.00">/mxshaderprogram.cpp</text>
</a>
</g>
</g>
<!-- Node1&#45;&gt;Node4 -->
<g id="edge3" class="edge">
<title>Node1&#45;&gt;Node4</title>
<path fill="none" stroke="midnightblue" d="M204.42,-62.71C224.29,-52.46 248.48,-39.98 266.71,-30.58"/>
<polygon fill="midnightblue" stroke="midnightblue" points="202.62,-59.7 195.34,-67.4 205.83,-65.92 202.62,-59.7"/>
</g>
</g>
</svg>
