<?xml version="1.0" encoding="UTF-8" standalone="no"?>
<!DOCTYPE svg PUBLIC "-//W3C//DTD SVG 1.1//EN"
 "http://www.w3.org/Graphics/SVG/1.1/DTD/svg11.dtd">
<!-- Generated by graphviz version 2.44.0 ()
 -->
<!-- Title: src/renderer/opengl/mxgpuprogram.h Pages: 1 -->
<svg width="464pt" height="240pt"
 viewBox="0.00 0.00 463.50 240.00" xmlns="http://www.w3.org/2000/svg" xmlns:xlink="http://www.w3.org/1999/xlink">
<g id="graph0" class="graph" transform="scale(1 1) rotate(0) translate(4 236)">
<title>src/renderer/opengl/mxgpuprogram.h</title>
<!-- Node1 -->
<g id="node1" class="node">
<title>Node1</title>
<g id="a_node1"><a xlink:title=" ">
<polygon fill="#bfbfbf" stroke="black" points="40.5,-201.5 40.5,-231.5 140.5,-231.5 140.5,-201.5 40.5,-201.5"/>
<text text-anchor="start" x="48.5" y="-219.5" font-family="Helvetica,sans-Serif" font-size="10.00">src/renderer/opengl</text>
<text text-anchor="middle" x="90.5" y="-208.5" font-family="Helvetica,sans-Serif" font-size="10.00">/mxgpuprogram.h</text>
</a>
</g>
</g>
<!-- Node2 -->
<g id="node2" class="node">
<title>Node2</title>
<g id="a_node2"><a xlink:href="opengl_2mxgpuarray_8h.html" target="_top" xlink:title=" ">
<polygon fill="none" stroke="black" points="98.5,-134.5 98.5,-164.5 198.5,-164.5 198.5,-134.5 98.5,-134.5"/>
<text text-anchor="start" x="106.5" y="-152.5" font-family="Helvetica,sans-Serif" font-size="10.00">src/renderer/opengl</text>
<text text-anchor="middle" x="148.5" y="-141.5" font-family="Helvetica,sans-Serif" font-size="10.00">/mxgpuarray.h</text>
</a>
</g>
</g>
<!-- Node1&#45;&gt;Node2 -->
<g id="edge1" class="edge">
<title>Node1&#45;&gt;Node2</title>
<path fill="none" stroke="midnightblue" d="M109.92,-193.74C118.5,-184.12 128.34,-173.09 135.94,-164.58"/>
<polygon fill="midnightblue" stroke="midnightblue" points="107.13,-191.6 103.09,-201.4 112.35,-196.26 107.13,-191.6"/>
</g>
<!-- Node4 -->
<g id="node4" class="node">
<title>Node4</title>
<g id="a_node4"><a xlink:href="opengl_2mxgpuprogram_8cpp.html" target="_top" xlink:title=" ">
<polygon fill="none" stroke="black" points="0,-0.5 0,-30.5 101,-30.5 101,-0.5 0,-0.5"/>
<text text-anchor="start" x="8" y="-18.5" font-family="Helvetica,sans-Serif" font-size="10.00">src/renderer/opengl</text>
<text text-anchor="middle" x="50.5" y="-7.5" font-family="Helvetica,sans-Serif" font-size="10.00">/mxgpuprogram.cpp</text>
</a>
</g>
</g>
<!-- Node1&#45;&gt;Node4 -->
<g id="edge9" class="edge">
<title>Node1&#45;&gt;Node4</title>
<path fill="none" stroke="midnightblue" d="M85.63,-191.27C77.19,-149.29 60.11,-64.33 53.35,-30.68"/>
<polygon fill="midnightblue" stroke="midnightblue" points="82.22,-192.07 87.62,-201.19 89.08,-190.69 82.22,-192.07"/>
</g>
<!-- Node3 -->
<g id="node3" class="node">
<title>Node3</title>
<g id="a_node3"><a xlink:href="opengl_2mxgpuarray_8cpp.html" target="_top" xlink:title=" ">
<polygon fill="none" stroke="black" points="355.5,-0.5 355.5,-30.5 455.5,-30.5 455.5,-0.5 355.5,-0.5"/>
<text text-anchor="start" x="363.5" y="-18.5" font-family="Helvetica,sans-Serif" font-size="10.00">src/renderer/opengl</text>
<text text-anchor="middle" x="405.5" y="-7.5" font-family="Helvetica,sans-Serif" font-size="10.00">/mxgpuarray.cpp</text>
</a>
</g>
</g>
<!-- Node2&#45;&gt;Node3 -->
<g id="edge2" class="edge">
<title>Node2&#45;&gt;Node3</title>
<path fill="none" stroke="midnightblue" d="M184.91,-129.8C237.01,-103.04 331.67,-54.42 378.19,-30.52"/>
<polygon fill="midnightblue" stroke="midnightblue" points="183.3,-126.69 176,-134.37 186.5,-132.92 183.3,-126.69"/>
</g>
<!-- Node2&#45;&gt;Node4 -->
<g id="edge3" class="edge">
<title>Node2&#45;&gt;Node4</title>
<path fill="none" stroke="midnightblue" d="M131.61,-126.16C125.01,-117.4 117.38,-107.24 110.5,-98 92.98,-74.46 72.79,-46.95 60.86,-30.67"/>
<polygon fill="midnightblue" stroke="midnightblue" points="129,-128.51 137.81,-134.38 134.58,-124.29 129,-128.51"/>
</g>
<!-- Node5 -->
<g id="node5" class="node">
<title>Node5</title>
<g id="a_node5"><a xlink:href="opengl_2mxrenderer_8h.html" target="_top" xlink:title=" ">
<polygon fill="none" stroke="black" points="119.5,-67.5 119.5,-97.5 219.5,-97.5 219.5,-67.5 119.5,-67.5"/>
<text text-anchor="start" x="127.5" y="-85.5" font-family="Helvetica,sans-Serif" font-size="10.00">src/renderer/opengl</text>
<text text-anchor="middle" x="169.5" y="-74.5" font-family="Helvetica,sans-Serif" font-size="10.00">/mxrenderer.h</text>
</a>
</g>
</g>
<!-- Node2&#45;&gt;Node5 -->
<g id="edge4" class="edge">
<title>Node2&#45;&gt;Node5</title>
<path fill="none" stroke="midnightblue" d="M156.19,-124.7C159.13,-115.59 162.39,-105.49 164.95,-97.58"/>
<polygon fill="midnightblue" stroke="midnightblue" points="152.8,-123.8 153.06,-134.4 159.46,-125.96 152.8,-123.8"/>
</g>
<!-- Node5&#45;&gt;Node3 -->
<g id="edge5" class="edge">
<title>Node5&#45;&gt;Node3</title>
<path fill="none" stroke="midnightblue" d="M229.67,-64.93C268.49,-54.24 318.4,-40.49 355.12,-30.38"/>
<polygon fill="midnightblue" stroke="midnightblue" points="228.26,-61.69 219.55,-67.72 230.12,-68.43 228.26,-61.69"/>
</g>
<!-- Node5&#45;&gt;Node4 -->
<g id="edge6" class="edge">
<title>Node5&#45;&gt;Node4</title>
<path fill="none" stroke="midnightblue" d="M134.85,-62.57C116.13,-52.35 93.41,-39.94 76.27,-30.58"/>
<polygon fill="midnightblue" stroke="midnightblue" points="133.22,-65.67 143.68,-67.4 136.58,-59.53 133.22,-65.67"/>
</g>
<!-- Node6 -->
<g id="node6" class="node">
<title>Node6</title>
<g id="a_node6"><a xlink:href="opengl_2mxrenderer_8cpp.html" target="_top" xlink:title=" ">
<polygon fill="none" stroke="black" points="119.5,-0.5 119.5,-30.5 219.5,-30.5 219.5,-0.5 119.5,-0.5"/>
<text text-anchor="start" x="127.5" y="-18.5" font-family="Helvetica,sans-Serif" font-size="10.00">src/renderer/opengl</text>
<text text-anchor="middle" x="169.5" y="-7.5" font-family="Helvetica,sans-Serif" font-size="10.00">/mxrenderer.cpp</text>
</a>
</g>
</g>
<!-- Node5&#45;&gt;Node6 -->
<g id="edge7" class="edge">
<title>Node5&#45;&gt;Node6</title>
<path fill="none" stroke="midnightblue" d="M169.5,-57.11C169.5,-48.15 169.5,-38.32 169.5,-30.58"/>
<polygon fill="midnightblue" stroke="midnightblue" points="166,-57.4 169.5,-67.4 173,-57.4 166,-57.4"/>
</g>
<!-- Node7 -->
<g id="node7" class="node">
<title>Node7</title>
<g id="a_node7"><a xlink:href="opengl_2mxtexture_8cpp.html" target="_top" xlink:title=" ">
<polygon fill="none" stroke="black" points="237.5,-0.5 237.5,-30.5 337.5,-30.5 337.5,-0.5 237.5,-0.5"/>
<text text-anchor="start" x="245.5" y="-18.5" font-family="Helvetica,sans-Serif" font-size="10.00">src/renderer/opengl</text>
<text text-anchor="middle" x="287.5" y="-7.5" font-family="Helvetica,sans-Serif" font-size="10.00">/mxtexture.cpp</text>
</a>
</g>
</g>
<!-- Node5&#45;&gt;Node7 -->
<g id="edge8" class="edge">
<title>Node5&#45;&gt;Node7</title>
<path fill="none" stroke="midnightblue" d="M204.11,-62.44C222.62,-52.24 245.02,-39.9 261.95,-30.58"/>
<polygon fill="midnightblue" stroke="midnightblue" points="202.17,-59.51 195.1,-67.4 205.55,-65.64 202.17,-59.51"/>
</g>
</g>
</svg>
