<?xml version="1.0" encoding="UTF-8" standalone="no"?>
<!DOCTYPE svg PUBLIC "-//W3C//DTD SVG 1.1//EN"
 "http://www.w3.org/Graphics/SVG/1.1/DTD/svg11.dtd">
<!-- Generated by graphviz version 2.44.0 ()
 -->
<!-- Title: src/renderer/opengl/colorwheelprogram/mxcolorwheelprogram.h Pages: 1 -->
<svg width="301pt" height="207pt"
 viewBox="0.00 0.00 301.13 207.00" xmlns="http://www.w3.org/2000/svg" xmlns:xlink="http://www.w3.org/1999/xlink">
<g id="graph0" class="graph" transform="scale(1 1) rotate(0) translate(4 203)">
<title>src/renderer/opengl/colorwheelprogram/mxcolorwheelprogram.h</title>
<!-- Node1 -->
<g id="node1" class="node">
<title>Node1</title>
<g id="a_node1"><a xlink:title=" ">
<polygon fill="#bfbfbf" stroke="black" points="0.13,-168.5 0.13,-198.5 206.13,-198.5 206.13,-168.5 0.13,-168.5"/>
<text text-anchor="start" x="8.13" y="-186.5" font-family="Helvetica,sans-Serif" font-size="10.00">src/renderer/opengl</text>
<text text-anchor="middle" x="103.13" y="-175.5" font-family="Helvetica,sans-Serif" font-size="10.00">/colorwheelprogram/mxcolorwheelprogram.h</text>
</a>
</g>
</g>
<!-- Node2 -->
<g id="node2" class="node">
<title>Node2</title>
<g id="a_node2"><a xlink:title=" ">
<polygon fill="none" stroke="#bfbfbf" points="95.63,-0.5 95.63,-19.5 158.63,-19.5 158.63,-0.5 95.63,-0.5"/>
<text text-anchor="middle" x="127.13" y="-7.5" font-family="Helvetica,sans-Serif" font-size="10.00">mxdebug.h</text>
</a>
</g>
</g>
<!-- Node1&#45;&gt;Node2 -->
<g id="edge1" class="edge">
<title>Node1&#45;&gt;Node2</title>
<path fill="none" stroke="midnightblue" d="M51.61,-168.49C21.02,-157.16 -9.55,-138.67 3.13,-112 22.91,-70.36 69.19,-40.25 99.28,-24.23"/>
<polygon fill="midnightblue" stroke="midnightblue" points="101.13,-27.21 108.42,-19.52 97.93,-20.99 101.13,-27.21"/>
</g>
<!-- Node3 -->
<g id="node3" class="node">
<title>Node3</title>
<g id="a_node3"><a xlink:title=" ">
<polygon fill="none" stroke="#bfbfbf" points="12.13,-112.5 12.13,-131.5 100.13,-131.5 100.13,-112.5 12.13,-112.5"/>
<text text-anchor="middle" x="56.13" y="-119.5" font-family="Helvetica,sans-Serif" font-size="10.00">mxgpuprogram.h</text>
</a>
</g>
</g>
<!-- Node1&#45;&gt;Node3 -->
<g id="edge2" class="edge">
<title>Node1&#45;&gt;Node3</title>
<path fill="none" stroke="midnightblue" d="M91.99,-168.4C85.16,-159.75 76.38,-148.64 69.22,-139.58"/>
<polygon fill="midnightblue" stroke="midnightblue" points="71.91,-137.34 62.97,-131.66 66.42,-141.67 71.91,-137.34"/>
</g>
<!-- Node4 -->
<g id="node4" class="node">
<title>Node4</title>
<g id="a_node4"><a xlink:href="mxmatrix_8h.html" target="_top" xlink:title=" ">
<polygon fill="none" stroke="black" points="118.63,-112.5 118.63,-131.5 181.63,-131.5 181.63,-112.5 118.63,-112.5"/>
<text text-anchor="middle" x="150.13" y="-119.5" font-family="Helvetica,sans-Serif" font-size="10.00">mxmatrix.h</text>
</a>
</g>
</g>
<!-- Node1&#45;&gt;Node4 -->
<g id="edge3" class="edge">
<title>Node1&#45;&gt;Node4</title>
<path fill="none" stroke="midnightblue" d="M114.27,-168.4C121.1,-159.75 129.87,-148.64 137.03,-139.58"/>
<polygon fill="midnightblue" stroke="midnightblue" points="139.84,-141.67 143.29,-131.66 134.34,-137.34 139.84,-141.67"/>
</g>
<!-- Node5 -->
<g id="node5" class="node">
<title>Node5</title>
<g id="a_node5"><a xlink:href="mxrect_8h.html" target="_top" xlink:title=" ">
<polygon fill="none" stroke="black" points="199.63,-112.5 199.63,-131.5 252.63,-131.5 252.63,-112.5 199.63,-112.5"/>
<text text-anchor="middle" x="226.13" y="-119.5" font-family="Helvetica,sans-Serif" font-size="10.00">mxrect.h</text>
</a>
</g>
</g>
<!-- Node1&#45;&gt;Node5 -->
<g id="edge4" class="edge">
<title>Node1&#45;&gt;Node5</title>
<path fill="none" stroke="midnightblue" d="M132.28,-168.4C152.55,-158.59 179.37,-145.62 199.15,-136.05"/>
<polygon fill="midnightblue" stroke="midnightblue" points="200.75,-139.16 208.23,-131.66 197.7,-132.86 200.75,-139.16"/>
</g>
<!-- Node5&#45;&gt;Node2 -->
<g id="edge5" class="edge">
<title>Node5&#45;&gt;Node2</title>
<path fill="none" stroke="midnightblue" d="M200.28,-112.41C182.63,-105.29 160.01,-93.47 146.13,-76 135.51,-62.64 130.82,-43.52 128.76,-29.48"/>
<polygon fill="midnightblue" stroke="midnightblue" points="132.23,-29.04 127.6,-19.51 125.28,-29.85 132.23,-29.04"/>
</g>
<!-- Node6 -->
<g id="node6" class="node">
<title>Node6</title>
<g id="a_node6"><a xlink:href="mxvector_8h.html" target="_top" xlink:title=" ">
<polygon fill="none" stroke="black" points="155.13,-56.5 155.13,-75.5 219.13,-75.5 219.13,-56.5 155.13,-56.5"/>
<text text-anchor="middle" x="187.13" y="-63.5" font-family="Helvetica,sans-Serif" font-size="10.00">mxvector.h</text>
</a>
</g>
</g>
<!-- Node5&#45;&gt;Node6 -->
<g id="edge6" class="edge">
<title>Node5&#45;&gt;Node6</title>
<path fill="none" stroke="midnightblue" d="M219.69,-112.08C214.18,-104.46 206.1,-93.26 199.36,-83.94"/>
<polygon fill="midnightblue" stroke="midnightblue" points="202.14,-81.81 193.45,-75.75 196.46,-85.91 202.14,-81.81"/>
</g>
<!-- Node7 -->
<g id="node7" class="node">
<title>Node7</title>
<g id="a_node7"><a xlink:title=" ">
<polygon fill="none" stroke="#bfbfbf" points="237.13,-56.5 237.13,-75.5 293.13,-75.5 293.13,-56.5 237.13,-56.5"/>
<text text-anchor="middle" x="265.13" y="-63.5" font-family="Helvetica,sans-Serif" font-size="10.00">algorithm</text>
</a>
</g>
</g>
<!-- Node5&#45;&gt;Node7 -->
<g id="edge8" class="edge">
<title>Node5&#45;&gt;Node7</title>
<path fill="none" stroke="midnightblue" d="M232.57,-112.08C238.08,-104.46 246.16,-93.26 252.89,-83.94"/>
<polygon fill="midnightblue" stroke="midnightblue" points="255.79,-85.91 258.81,-75.75 250.11,-81.81 255.79,-85.91"/>
</g>
<!-- Node6&#45;&gt;Node2 -->
<g id="edge7" class="edge">
<title>Node6&#45;&gt;Node2</title>
<path fill="none" stroke="midnightblue" d="M177.49,-56.32C168.62,-48.34 155.25,-36.31 144.52,-26.65"/>
<polygon fill="midnightblue" stroke="midnightblue" points="146.72,-23.92 136.94,-19.83 142.03,-29.13 146.72,-23.92"/>
</g>
</g>
</svg>
