<?xml version="1.0" encoding="UTF-8" standalone="no"?>
<!DOCTYPE svg PUBLIC "-//W3C//DTD SVG 1.1//EN"
 "http://www.w3.org/Graphics/SVG/1.1/DTD/svg11.dtd">
<!-- Generated by graphviz version 2.44.0 ()
 -->
<!-- Title: src/renderer/opengl/mxrenderer.cpp Pages: 1 -->
<svg width="912pt" height="375pt"
 viewBox="0.00 0.00 911.86 375.00" xmlns="http://www.w3.org/2000/svg" xmlns:xlink="http://www.w3.org/1999/xlink">
<g id="graph0" class="graph" transform="scale(1 1) rotate(0) translate(4 371)">
<title>src/renderer/opengl/mxrenderer.cpp</title>
<!-- Node1 -->
<g id="node1" class="node">
<title>Node1</title>
<g id="a_node1"><a xlink:title=" ">
<polygon fill="#bfbfbf" stroke="black" points="156.92,-336.5 156.92,-366.5 256.92,-366.5 256.92,-336.5 156.92,-336.5"/>
<text text-anchor="start" x="164.92" y="-354.5" font-family="Helvetica,sans-Serif" font-size="10.00">src/renderer/opengl</text>
<text text-anchor="middle" x="206.92" y="-343.5" font-family="Helvetica,sans-Serif" font-size="10.00">/mxrenderer.cpp</text>
</a>
</g>
</g>
<!-- Node2 -->
<g id="node2" class="node">
<title>Node2</title>
<g id="a_node2"><a xlink:href="opengl_2mxrenderer_8h.html" target="_top" xlink:title=" ">
<polygon fill="none" stroke="black" points="366.92,-280.5 366.92,-299.5 438.92,-299.5 438.92,-280.5 366.92,-280.5"/>
<text text-anchor="middle" x="402.92" y="-287.5" font-family="Helvetica,sans-Serif" font-size="10.00">mxrenderer.h</text>
</a>
</g>
</g>
<!-- Node1&#45;&gt;Node2 -->
<g id="edge1" class="edge">
<title>Node1&#45;&gt;Node2</title>
<path fill="none" stroke="midnightblue" d="M253.37,-336.4C287.38,-326.07 332.98,-312.23 364.85,-302.56"/>
<polygon fill="midnightblue" stroke="midnightblue" points="366.13,-305.82 374.68,-299.57 364.1,-299.13 366.13,-305.82"/>
</g>
<!-- Node24 -->
<g id="node24" class="node">
<title>Node24</title>
<g id="a_node24"><a xlink:href="mxthemecolors_8h.html" target="_top" xlink:title=" ">
<polygon fill="none" stroke="black" points="112.92,-280.5 112.92,-299.5 202.92,-299.5 202.92,-280.5 112.92,-280.5"/>
<text text-anchor="middle" x="157.92" y="-287.5" font-family="Helvetica,sans-Serif" font-size="10.00">mxthemecolors.h</text>
</a>
</g>
</g>
<!-- Node1&#45;&gt;Node24 -->
<g id="edge37" class="edge">
<title>Node1&#45;&gt;Node24</title>
<path fill="none" stroke="midnightblue" d="M195.3,-336.4C188.18,-327.75 179.03,-316.64 171.57,-307.58"/>
<polygon fill="midnightblue" stroke="midnightblue" points="174.1,-305.15 165.05,-299.66 168.7,-309.6 174.1,-305.15"/>
</g>
<!-- Node3 -->
<g id="node3" class="node">
<title>Node3</title>
<g id="a_node3"><a xlink:href="mxopenglfunctions_8h.html" target="_top" xlink:title=" ">
<polygon fill="none" stroke="black" points="391.42,-224.5 391.42,-243.5 496.42,-243.5 496.42,-224.5 391.42,-224.5"/>
<text text-anchor="middle" x="443.92" y="-231.5" font-family="Helvetica,sans-Serif" font-size="10.00">mxopenglfunctions.h</text>
</a>
</g>
</g>
<!-- Node2&#45;&gt;Node3 -->
<g id="edge2" class="edge">
<title>Node2&#45;&gt;Node3</title>
<path fill="none" stroke="midnightblue" d="M409.69,-280.08C415.48,-272.46 423.97,-261.26 431.05,-251.94"/>
<polygon fill="midnightblue" stroke="midnightblue" points="434.01,-253.83 437.27,-243.75 428.44,-249.6 434.01,-253.83"/>
</g>
<!-- Node5 -->
<g id="node5" class="node">
<title>Node5</title>
<g id="a_node5"><a xlink:href="mxcolorwheelprogram_8h.html" target="_top" xlink:title=" ">
<polygon fill="none" stroke="black" points="303.42,-168.5 303.42,-187.5 422.42,-187.5 422.42,-168.5 303.42,-168.5"/>
<text text-anchor="middle" x="362.92" y="-175.5" font-family="Helvetica,sans-Serif" font-size="10.00">mxcolorwheelprogram.h</text>
</a>
</g>
</g>
<!-- Node2&#45;&gt;Node5 -->
<g id="edge4" class="edge">
<title>Node2&#45;&gt;Node5</title>
<path fill="none" stroke="midnightblue" d="M398.32,-280.21C393.77,-271.26 386.78,-256.91 381.92,-244 376.08,-228.53 370.93,-210.44 367.46,-197.28"/>
<polygon fill="midnightblue" stroke="midnightblue" points="370.84,-196.37 364.97,-187.55 364.06,-198.1 370.84,-196.37"/>
</g>
<!-- Node14 -->
<g id="node14" class="node">
<title>Node14</title>
<g id="a_node14"><a xlink:href="mxvectorprogram_8h.html" target="_top" xlink:title=" ">
<polygon fill="none" stroke="black" points="206.42,-224.5 206.42,-243.5 305.42,-243.5 305.42,-224.5 206.42,-224.5"/>
<text text-anchor="middle" x="255.92" y="-231.5" font-family="Helvetica,sans-Serif" font-size="10.00">mxvectorprogram.h</text>
</a>
</g>
</g>
<!-- Node2&#45;&gt;Node14 -->
<g id="edge16" class="edge">
<title>Node2&#45;&gt;Node14</title>
<path fill="none" stroke="midnightblue" d="M379.62,-280.44C355.11,-271.44 316.32,-257.19 288.72,-247.05"/>
<polygon fill="midnightblue" stroke="midnightblue" points="289.69,-243.68 279.1,-243.52 287.28,-250.25 289.69,-243.68"/>
</g>
<!-- Node16 -->
<g id="node16" class="node">
<title>Node16</title>
<g id="a_node16"><a xlink:href="mxlist_8h.html" target="_top" xlink:title=" ">
<polygon fill="none" stroke="black" points="716.92,-224.5 716.92,-243.5 766.92,-243.5 766.92,-224.5 716.92,-224.5"/>
<text text-anchor="middle" x="741.92" y="-231.5" font-family="Helvetica,sans-Serif" font-size="10.00">mxlist.h</text>
</a>
</g>
</g>
<!-- Node2&#45;&gt;Node16 -->
<g id="edge21" class="edge">
<title>Node2&#45;&gt;Node16</title>
<path fill="none" stroke="midnightblue" d="M439.19,-283.22C504.72,-272.78 642.01,-250.91 706.73,-240.6"/>
<polygon fill="midnightblue" stroke="midnightblue" points="707.52,-244.02 716.84,-238.99 706.42,-237.11 707.52,-244.02"/>
</g>
<!-- Node21 -->
<g id="node21" class="node">
<title>Node21</title>
<g id="a_node21"><a xlink:href="mxiconprogram_8h.html" target="_top" xlink:title=" ">
<polygon fill="none" stroke="black" points="14.92,-168.5 14.92,-187.5 104.92,-187.5 104.92,-168.5 14.92,-168.5"/>
<text text-anchor="middle" x="59.92" y="-175.5" font-family="Helvetica,sans-Serif" font-size="10.00">mxiconprogram.h</text>
</a>
</g>
</g>
<!-- Node2&#45;&gt;Node21 -->
<g id="edge27" class="edge">
<title>Node2&#45;&gt;Node21</title>
<path fill="none" stroke="midnightblue" d="M366.89,-283.69C325.23,-276.96 254.94,-263.81 196.92,-244 155.87,-229.98 110.91,-207.08 84.07,-192.54"/>
<polygon fill="midnightblue" stroke="midnightblue" points="85.5,-189.33 75.05,-187.59 82.14,-195.47 85.5,-189.33"/>
</g>
<!-- Node22 -->
<g id="node22" class="node">
<title>Node22</title>
<g id="a_node22"><a xlink:href="mxbuffer_8h.html" target="_top" xlink:title=" ">
<polygon fill="none" stroke="black" points="607.42,-224.5 607.42,-243.5 668.42,-243.5 668.42,-224.5 607.42,-224.5"/>
<text text-anchor="middle" x="637.92" y="-231.5" font-family="Helvetica,sans-Serif" font-size="10.00">mxbuffer.h</text>
</a>
</g>
</g>
<!-- Node2&#45;&gt;Node22 -->
<g id="edge34" class="edge">
<title>Node2&#45;&gt;Node22</title>
<path fill="none" stroke="midnightblue" d="M439.12,-280.68C481.88,-270.85 552.82,-254.55 597.38,-244.31"/>
<polygon fill="midnightblue" stroke="midnightblue" points="598.33,-247.69 607.29,-242.04 596.76,-240.87 598.33,-247.69"/>
</g>
<!-- Node23 -->
<g id="node23" class="node">
<title>Node23</title>
<g id="a_node23"><a xlink:href="opengl_2mxgpuarray_8h.html" target="_top" xlink:title=" ">
<polygon fill="none" stroke="black" points="514.92,-224.5 514.92,-243.5 588.92,-243.5 588.92,-224.5 514.92,-224.5"/>
<text text-anchor="middle" x="551.92" y="-231.5" font-family="Helvetica,sans-Serif" font-size="10.00">mxgpuarray.h</text>
</a>
</g>
</g>
<!-- Node2&#45;&gt;Node23 -->
<g id="edge35" class="edge">
<title>Node2&#45;&gt;Node23</title>
<path fill="none" stroke="midnightblue" d="M426.53,-280.44C451.37,-271.44 490.69,-257.19 518.67,-247.05"/>
<polygon fill="midnightblue" stroke="midnightblue" points="520.21,-250.21 528.42,-243.52 517.82,-243.63 520.21,-250.21"/>
</g>
<!-- Node4 -->
<g id="node4" class="node">
<title>Node4</title>
<g id="a_node4"><a xlink:title=" ">
<polygon fill="none" stroke="#bfbfbf" points="440.42,-168.5 440.42,-187.5 565.42,-187.5 565.42,-168.5 440.42,-168.5"/>
<text text-anchor="middle" x="502.92" y="-175.5" font-family="Helvetica,sans-Serif" font-size="10.00">QOpenGLExtraFunctions</text>
</a>
</g>
</g>
<!-- Node3&#45;&gt;Node4 -->
<g id="edge3" class="edge">
<title>Node3&#45;&gt;Node4</title>
<path fill="none" stroke="midnightblue" d="M453.4,-224.32C462.12,-216.34 475.26,-204.31 485.81,-194.65"/>
<polygon fill="midnightblue" stroke="midnightblue" points="488.25,-197.17 493.26,-187.83 483.52,-192 488.25,-197.17"/>
</g>
<!-- Node6 -->
<g id="node6" class="node">
<title>Node6</title>
<g id="a_node6"><a xlink:title=" ">
<polygon fill="none" stroke="#bfbfbf" points="266.42,-0.5 266.42,-19.5 329.42,-19.5 329.42,-0.5 266.42,-0.5"/>
<text text-anchor="middle" x="297.92" y="-7.5" font-family="Helvetica,sans-Serif" font-size="10.00">mxdebug.h</text>
</a>
</g>
</g>
<!-- Node5&#45;&gt;Node6 -->
<g id="edge5" class="edge">
<title>Node5&#45;&gt;Node6</title>
<path fill="none" stroke="midnightblue" d="M379.55,-168.46C392.4,-160.84 409.26,-148.36 416.92,-132 428.09,-108.14 400.49,-59.88 396.92,-56 381.61,-39.36 358.96,-28.44 339.18,-21.53"/>
<polygon fill="midnightblue" stroke="midnightblue" points="340.05,-18.13 329.45,-18.36 337.88,-24.79 340.05,-18.13"/>
</g>
<!-- Node7 -->
<g id="node7" class="node">
<title>Node7</title>
<g id="a_node7"><a xlink:href="mxshaderprogram_8h.html" target="_top" xlink:title=" ">
<polygon fill="none" stroke="black" points="307.42,-112.5 307.42,-131.5 408.42,-131.5 408.42,-112.5 307.42,-112.5"/>
<text text-anchor="middle" x="357.92" y="-119.5" font-family="Helvetica,sans-Serif" font-size="10.00">mxshaderprogram.h</text>
</a>
</g>
</g>
<!-- Node5&#45;&gt;Node7 -->
<g id="edge6" class="edge">
<title>Node5&#45;&gt;Node7</title>
<path fill="none" stroke="midnightblue" d="M362.09,-168.08C361.44,-161.01 360.5,-150.86 359.67,-141.99"/>
<polygon fill="midnightblue" stroke="midnightblue" points="363.13,-141.39 358.73,-131.75 356.16,-142.03 363.13,-141.39"/>
</g>
<!-- Node9 -->
<g id="node9" class="node">
<title>Node9</title>
<g id="a_node9"><a xlink:href="mxmatrix_8h.html" target="_top" xlink:title=" ">
<polygon fill="none" stroke="black" points="224.42,-112.5 224.42,-131.5 287.42,-131.5 287.42,-112.5 224.42,-112.5"/>
<text text-anchor="middle" x="255.92" y="-119.5" font-family="Helvetica,sans-Serif" font-size="10.00">mxmatrix.h</text>
</a>
</g>
</g>
<!-- Node5&#45;&gt;Node9 -->
<g id="edge9" class="edge">
<title>Node5&#45;&gt;Node9</title>
<path fill="none" stroke="midnightblue" d="M345.72,-168.32C328.57,-159.66 301.97,-146.24 282.17,-136.25"/>
<polygon fill="midnightblue" stroke="midnightblue" points="283.57,-133.04 273.06,-131.65 280.42,-139.28 283.57,-133.04"/>
</g>
<!-- Node11 -->
<g id="node11" class="node">
<title>Node11</title>
<g id="a_node11"><a xlink:href="mxrect_8h.html" target="_top" xlink:title=" ">
<polygon fill="none" stroke="black" points="113.42,-112.5 113.42,-131.5 166.42,-131.5 166.42,-112.5 113.42,-112.5"/>
<text text-anchor="middle" x="139.92" y="-119.5" font-family="Helvetica,sans-Serif" font-size="10.00">mxrect.h</text>
</a>
</g>
</g>
<!-- Node5&#45;&gt;Node11 -->
<g id="edge11" class="edge">
<title>Node5&#45;&gt;Node11</title>
<path fill="none" stroke="midnightblue" d="M327.58,-168.44C286.28,-158.44 218.28,-141.98 176.47,-131.85"/>
<polygon fill="midnightblue" stroke="midnightblue" points="177.23,-128.43 166.69,-129.48 175.58,-135.24 177.23,-128.43"/>
</g>
<!-- Node7&#45;&gt;Node6 -->
<g id="edge7" class="edge">
<title>Node7&#45;&gt;Node6</title>
<path fill="none" stroke="midnightblue" d="M365.71,-112.11C376.09,-99.13 391.94,-74.51 380.92,-56 371.75,-40.6 355.28,-30.15 339.41,-23.23"/>
<polygon fill="midnightblue" stroke="midnightblue" points="340.27,-19.8 329.68,-19.36 337.68,-26.31 340.27,-19.8"/>
</g>
<!-- Node8 -->
<g id="node8" class="node">
<title>Node8</title>
<g id="a_node8"><a xlink:href="mxopengl_8h.html" target="_top" xlink:title=" ">
<polygon fill="none" stroke="black" points="307.42,-56.5 307.42,-75.5 372.42,-75.5 372.42,-56.5 307.42,-56.5"/>
<text text-anchor="middle" x="339.92" y="-63.5" font-family="Helvetica,sans-Serif" font-size="10.00">mxopengl.h</text>
</a>
</g>
</g>
<!-- Node7&#45;&gt;Node8 -->
<g id="edge8" class="edge">
<title>Node7&#45;&gt;Node8</title>
<path fill="none" stroke="midnightblue" d="M354.94,-112.08C352.53,-104.85 349.05,-94.41 346.05,-85.4"/>
<polygon fill="midnightblue" stroke="midnightblue" points="349.32,-84.13 342.83,-75.75 342.68,-86.34 349.32,-84.13"/>
</g>
<!-- Node10 -->
<g id="node10" class="node">
<title>Node10</title>
<g id="a_node10"><a xlink:title=" ">
<polygon fill="none" stroke="#bfbfbf" points="224.42,-56.5 224.42,-75.5 289.42,-75.5 289.42,-56.5 224.42,-56.5"/>
<text text-anchor="middle" x="256.92" y="-63.5" font-family="Helvetica,sans-Serif" font-size="10.00">QMatrix4x4</text>
</a>
</g>
</g>
<!-- Node9&#45;&gt;Node10 -->
<g id="edge10" class="edge">
<title>Node9&#45;&gt;Node10</title>
<path fill="none" stroke="midnightblue" d="M256.08,-112.08C256.21,-105.01 256.4,-94.86 256.56,-85.99"/>
<polygon fill="midnightblue" stroke="midnightblue" points="260.07,-85.81 256.75,-75.75 253.07,-85.68 260.07,-85.81"/>
</g>
<!-- Node11&#45;&gt;Node6 -->
<g id="edge12" class="edge">
<title>Node11&#45;&gt;Node6</title>
<path fill="none" stroke="midnightblue" d="M148.63,-112.32C162.1,-99.17 189.13,-73.85 214.92,-56 232.49,-43.83 253.7,-32.39 270.28,-24.08"/>
<polygon fill="midnightblue" stroke="midnightblue" points="272.01,-27.13 279.44,-19.57 268.92,-20.85 272.01,-27.13"/>
</g>
<!-- Node12 -->
<g id="node12" class="node">
<title>Node12</title>
<g id="a_node12"><a xlink:href="mxvector_8h.html" target="_top" xlink:title=" ">
<polygon fill="none" stroke="black" points="29.92,-56.5 29.92,-75.5 93.92,-75.5 93.92,-56.5 29.92,-56.5"/>
<text text-anchor="middle" x="61.92" y="-63.5" font-family="Helvetica,sans-Serif" font-size="10.00">mxvector.h</text>
</a>
</g>
</g>
<!-- Node11&#45;&gt;Node12 -->
<g id="edge13" class="edge">
<title>Node11&#45;&gt;Node12</title>
<path fill="none" stroke="midnightblue" d="M127.38,-112.32C115.33,-103.98 96.89,-91.21 82.65,-81.35"/>
<polygon fill="midnightblue" stroke="midnightblue" points="84.63,-78.47 74.42,-75.65 80.65,-84.22 84.63,-78.47"/>
</g>
<!-- Node13 -->
<g id="node13" class="node">
<title>Node13</title>
<g id="a_node13"><a xlink:title=" ">
<polygon fill="none" stroke="#bfbfbf" points="111.92,-56.5 111.92,-75.5 167.92,-75.5 167.92,-56.5 111.92,-56.5"/>
<text text-anchor="middle" x="139.92" y="-63.5" font-family="Helvetica,sans-Serif" font-size="10.00">algorithm</text>
</a>
</g>
</g>
<!-- Node11&#45;&gt;Node13 -->
<g id="edge15" class="edge">
<title>Node11&#45;&gt;Node13</title>
<path fill="none" stroke="midnightblue" d="M139.92,-112.08C139.92,-105.01 139.92,-94.86 139.92,-85.99"/>
<polygon fill="midnightblue" stroke="midnightblue" points="143.42,-85.75 139.92,-75.75 136.42,-85.75 143.42,-85.75"/>
</g>
<!-- Node12&#45;&gt;Node6 -->
<g id="edge14" class="edge">
<title>Node12&#45;&gt;Node6</title>
<path fill="none" stroke="midnightblue" d="M94.24,-57.6C136.37,-47.96 210.12,-31.09 256.37,-20.51"/>
<polygon fill="midnightblue" stroke="midnightblue" points="257.4,-23.86 266.36,-18.22 255.83,-17.04 257.4,-23.86"/>
</g>
<!-- Node14&#45;&gt;Node7 -->
<g id="edge17" class="edge">
<title>Node14&#45;&gt;Node7</title>
<path fill="none" stroke="midnightblue" d="M259.57,-224.24C265.4,-210.98 277.81,-185.51 293.92,-168 305.24,-155.69 320.47,-144.81 333.24,-136.84"/>
<polygon fill="midnightblue" stroke="midnightblue" points="335.24,-139.72 342,-131.56 331.63,-133.72 335.24,-139.72"/>
</g>
<!-- Node14&#45;&gt;Node9 -->
<g id="edge18" class="edge">
<title>Node14&#45;&gt;Node9</title>
<path fill="none" stroke="midnightblue" d="M255.92,-224.37C255.92,-206.62 255.92,-165.67 255.92,-141.6"/>
<polygon fill="midnightblue" stroke="midnightblue" points="259.42,-141.59 255.92,-131.59 252.42,-141.59 259.42,-141.59"/>
</g>
<!-- Node15 -->
<g id="node15" class="node">
<title>Node15</title>
<g id="a_node15"><a xlink:href="mxvectordraw_8h.html" target="_top" xlink:title=" ">
<polygon fill="none" stroke="black" points="123.42,-168.5 123.42,-187.5 208.42,-187.5 208.42,-168.5 123.42,-168.5"/>
<text text-anchor="middle" x="165.92" y="-175.5" font-family="Helvetica,sans-Serif" font-size="10.00">mxvectordraw.h</text>
</a>
</g>
</g>
<!-- Node14&#45;&gt;Node15 -->
<g id="edge19" class="edge">
<title>Node14&#45;&gt;Node15</title>
<path fill="none" stroke="midnightblue" d="M241.46,-224.32C227.42,-215.9 205.87,-202.97 189.37,-193.07"/>
<polygon fill="midnightblue" stroke="midnightblue" points="190.72,-189.8 180.34,-187.65 187.11,-195.8 190.72,-189.8"/>
</g>
<!-- Node15&#45;&gt;Node11 -->
<g id="edge20" class="edge">
<title>Node15&#45;&gt;Node11</title>
<path fill="none" stroke="midnightblue" d="M161.62,-168.08C158.06,-160.69 152.89,-149.95 148.49,-140.81"/>
<polygon fill="midnightblue" stroke="midnightblue" points="151.62,-139.24 144.13,-131.75 145.31,-142.28 151.62,-139.24"/>
</g>
<!-- Node16&#45;&gt;Node6 -->
<g id="edge22" class="edge">
<title>Node16&#45;&gt;Node6</title>
<path fill="none" stroke="midnightblue" d="M767.22,-231.58C819.62,-227.68 932.3,-213.86 896.92,-168 827.51,-78.06 464.47,-29.62 339.91,-15.46"/>
<polygon fill="midnightblue" stroke="midnightblue" points="339.97,-11.94 329.64,-14.3 339.19,-18.9 339.97,-11.94"/>
</g>
<!-- Node17 -->
<g id="node17" class="node">
<title>Node17</title>
<g id="a_node17"><a xlink:href="mxrefcounter_8h.html" target="_top" xlink:title=" ">
<polygon fill="none" stroke="black" points="807.92,-168.5 807.92,-187.5 887.92,-187.5 887.92,-168.5 807.92,-168.5"/>
<text text-anchor="middle" x="847.92" y="-175.5" font-family="Helvetica,sans-Serif" font-size="10.00">mxrefcounter.h</text>
</a>
</g>
</g>
<!-- Node16&#45;&gt;Node17 -->
<g id="edge23" class="edge">
<title>Node16&#45;&gt;Node17</title>
<path fill="none" stroke="midnightblue" d="M758.95,-224.32C775.95,-215.66 802.29,-202.24 821.91,-192.25"/>
<polygon fill="midnightblue" stroke="midnightblue" points="823.61,-195.31 830.93,-187.65 820.43,-189.08 823.61,-195.31"/>
</g>
<!-- Node18 -->
<g id="node18" class="node">
<title>Node18</title>
<g id="a_node18"><a xlink:title=" ">
<polygon fill="none" stroke="#bfbfbf" points="622.42,-168.5 622.42,-187.5 669.42,-187.5 669.42,-168.5 622.42,-168.5"/>
<text text-anchor="middle" x="645.92" y="-175.5" font-family="Helvetica,sans-Serif" font-size="10.00">stdlib.h</text>
</a>
</g>
</g>
<!-- Node16&#45;&gt;Node18 -->
<g id="edge24" class="edge">
<title>Node16&#45;&gt;Node18</title>
<path fill="none" stroke="midnightblue" d="M726.49,-224.32C711.38,-215.82 688.1,-202.73 670.44,-192.8"/>
<polygon fill="midnightblue" stroke="midnightblue" points="671.73,-189.51 661.3,-187.65 668.3,-195.61 671.73,-189.51"/>
</g>
<!-- Node19 -->
<g id="node19" class="node">
<title>Node19</title>
<g id="a_node19"><a xlink:title=" ">
<polygon fill="none" stroke="#bfbfbf" points="687.92,-168.5 687.92,-187.5 735.92,-187.5 735.92,-168.5 687.92,-168.5"/>
<text text-anchor="middle" x="711.92" y="-175.5" font-family="Helvetica,sans-Serif" font-size="10.00">string.h</text>
</a>
</g>
</g>
<!-- Node16&#45;&gt;Node19 -->
<g id="edge25" class="edge">
<title>Node16&#45;&gt;Node19</title>
<path fill="none" stroke="midnightblue" d="M736.96,-224.08C732.81,-216.61 726.76,-205.72 721.65,-196.52"/>
<polygon fill="midnightblue" stroke="midnightblue" points="724.69,-194.79 716.78,-187.75 718.57,-198.19 724.69,-194.79"/>
</g>
<!-- Node20 -->
<g id="node20" class="node">
<title>Node20</title>
<g id="a_node20"><a xlink:title=" ">
<polygon fill="none" stroke="#bfbfbf" points="754.42,-168.5 754.42,-187.5 789.42,-187.5 789.42,-168.5 754.42,-168.5"/>
<text text-anchor="middle" x="771.92" y="-175.5" font-family="Helvetica,sans-Serif" font-size="10.00">new</text>
</a>
</g>
</g>
<!-- Node16&#45;&gt;Node20 -->
<g id="edge26" class="edge">
<title>Node16&#45;&gt;Node20</title>
<path fill="none" stroke="midnightblue" d="M746.87,-224.08C751.02,-216.61 757.07,-205.72 762.18,-196.52"/>
<polygon fill="midnightblue" stroke="midnightblue" points="765.26,-198.19 767.05,-187.75 759.14,-194.79 765.26,-198.19"/>
</g>
<!-- Node21&#45;&gt;Node6 -->
<g id="edge28" class="edge">
<title>Node21&#45;&gt;Node6</title>
<path fill="none" stroke="midnightblue" d="M52.13,-168.3C33.83,-146.77 -8.26,-90.3 20.92,-56 50.6,-21.1 186.2,-13.19 256.05,-11.45"/>
<polygon fill="midnightblue" stroke="midnightblue" points="256.34,-14.95 266.27,-11.23 256.19,-7.95 256.34,-14.95"/>
</g>
<!-- Node21&#45;&gt;Node7 -->
<g id="edge32" class="edge">
<title>Node21&#45;&gt;Node7</title>
<path fill="none" stroke="midnightblue" d="M105.18,-168.8C157.55,-159.31 243.88,-143.66 300.83,-133.35"/>
<polygon fill="midnightblue" stroke="midnightblue" points="301.54,-136.77 310.75,-131.55 300.29,-129.89 301.54,-136.77"/>
</g>
<!-- Node21&#45;&gt;Node8 -->
<g id="edge31" class="edge">
<title>Node21&#45;&gt;Node8</title>
<path fill="none" stroke="midnightblue" d="M83.52,-168.48C106.95,-159.85 143.77,-145.85 174.92,-132 193.08,-123.93 196.64,-119.82 214.92,-112 244.3,-99.42 278.51,-87.27 303.7,-78.77"/>
<polygon fill="midnightblue" stroke="midnightblue" points="304.85,-82.08 313.23,-75.59 302.63,-75.44 304.85,-82.08"/>
</g>
<!-- Node21&#45;&gt;Node9 -->
<g id="edge29" class="edge">
<title>Node21&#45;&gt;Node9</title>
<path fill="none" stroke="midnightblue" d="M90.97,-168.44C124.52,-159.2 178.11,-144.44 215.06,-134.26"/>
<polygon fill="midnightblue" stroke="midnightblue" points="216.29,-137.55 225,-131.52 214.43,-130.8 216.29,-137.55"/>
</g>
<!-- Node21&#45;&gt;Node11 -->
<g id="edge33" class="edge">
<title>Node21&#45;&gt;Node11</title>
<path fill="none" stroke="midnightblue" d="M72.77,-168.32C85.13,-159.98 104.05,-147.21 118.65,-137.35"/>
<polygon fill="midnightblue" stroke="midnightblue" points="120.76,-140.15 127.09,-131.65 116.85,-134.35 120.76,-140.15"/>
</g>
<!-- Node21&#45;&gt;Node12 -->
<g id="edge30" class="edge">
<title>Node21&#45;&gt;Node12</title>
<path fill="none" stroke="midnightblue" d="M60.07,-168.37C60.4,-150.62 61.14,-109.67 61.58,-85.6"/>
<polygon fill="midnightblue" stroke="midnightblue" points="65.08,-85.65 61.76,-75.59 58.08,-85.53 65.08,-85.65"/>
</g>
<!-- Node23&#45;&gt;Node7 -->
<g id="edge36" class="edge">
<title>Node23&#45;&gt;Node7</title>
<path fill="none" stroke="midnightblue" d="M559.8,-224.06C570.7,-210.58 587.6,-184.82 573.92,-168 554.62,-144.27 475.38,-132.64 418.46,-127.24"/>
<polygon fill="midnightblue" stroke="midnightblue" points="418.75,-123.75 408.47,-126.34 418.11,-130.72 418.75,-123.75"/>
</g>
<!-- Node24&#45;&gt;Node12 -->
<g id="edge38" class="edge">
<title>Node24&#45;&gt;Node12</title>
<path fill="none" stroke="midnightblue" d="M131.6,-280.43C95.64,-267.12 32.56,-237.7 5.92,-188 -13.84,-151.16 22.14,-106.08 45.06,-82.72"/>
<polygon fill="midnightblue" stroke="midnightblue" points="47.55,-85.18 52.23,-75.68 42.64,-80.19 47.55,-85.18"/>
</g>
</g>
</svg>
