<?xml version="1.0" encoding="UTF-8" standalone="no"?>
<!DOCTYPE svg PUBLIC "-//W3C//DTD SVG 1.1//EN"
 "http://www.w3.org/Graphics/SVG/1.1/DTD/svg11.dtd">
<!-- Generated by graphviz version 2.44.0 ()
 -->
<!-- Title: src/renderer/opengl/mxrenderer.h Pages: 1 -->
<svg width="929pt" height="319pt"
 viewBox="0.00 0.00 929.00 319.00" xmlns="http://www.w3.org/2000/svg" xmlns:xlink="http://www.w3.org/1999/xlink">
<g id="graph0" class="graph" transform="scale(1 1) rotate(0) translate(4 315)">
<title>src/renderer/opengl/mxrenderer.h</title>
<!-- Node1 -->
<g id="node1" class="node">
<title>Node1</title>
<g id="a_node1"><a xlink:title=" ">
<polygon fill="#bfbfbf" stroke="black" points="317.5,-280.5 317.5,-310.5 417.5,-310.5 417.5,-280.5 317.5,-280.5"/>
<text text-anchor="start" x="325.5" y="-298.5" font-family="Helvetica,sans-Serif" font-size="10.00">src/renderer/opengl</text>
<text text-anchor="middle" x="367.5" y="-287.5" font-family="Helvetica,sans-Serif" font-size="10.00">/mxrenderer.h</text>
</a>
</g>
</g>
<!-- Node2 -->
<g id="node2" class="node">
<title>Node2</title>
<g id="a_node2"><a xlink:href="mxopenglfunctions_8h.html" target="_top" xlink:title=" ">
<polygon fill="none" stroke="black" points="17,-224.5 17,-243.5 122,-243.5 122,-224.5 17,-224.5"/>
<text text-anchor="middle" x="69.5" y="-231.5" font-family="Helvetica,sans-Serif" font-size="10.00">mxopenglfunctions.h</text>
</a>
</g>
</g>
<!-- Node1&#45;&gt;Node2 -->
<g id="edge1" class="edge">
<title>Node1&#45;&gt;Node2</title>
<path fill="none" stroke="midnightblue" d="M317.29,-284.47C263.1,-273.65 177.19,-256.5 122.1,-245.5"/>
<polygon fill="midnightblue" stroke="midnightblue" points="122.67,-242.05 112.18,-243.52 121.3,-248.91 122.67,-242.05"/>
</g>
<!-- Node4 -->
<g id="node4" class="node">
<title>Node4</title>
<g id="a_node4"><a xlink:href="mxcolorwheelprogram_8h.html" target="_top" xlink:title=" ">
<polygon fill="none" stroke="black" points="182,-168.5 182,-187.5 301,-187.5 301,-168.5 182,-168.5"/>
<text text-anchor="middle" x="241.5" y="-175.5" font-family="Helvetica,sans-Serif" font-size="10.00">mxcolorwheelprogram.h</text>
</a>
</g>
</g>
<!-- Node1&#45;&gt;Node4 -->
<g id="edge3" class="edge">
<title>Node1&#45;&gt;Node4</title>
<path fill="none" stroke="midnightblue" d="M350.47,-280.41C338.56,-270.43 322.35,-256.62 308.5,-244 290.65,-227.73 270.87,-208.37 257.46,-195.03"/>
<polygon fill="midnightblue" stroke="midnightblue" points="259.56,-192.18 250.01,-187.59 254.61,-197.13 259.56,-192.18"/>
</g>
<!-- Node13 -->
<g id="node13" class="node">
<title>Node13</title>
<g id="a_node13"><a xlink:href="mxvectorprogram_8h.html" target="_top" xlink:title=" ">
<polygon fill="none" stroke="black" points="318,-224.5 318,-243.5 417,-243.5 417,-224.5 318,-224.5"/>
<text text-anchor="middle" x="367.5" y="-231.5" font-family="Helvetica,sans-Serif" font-size="10.00">mxvectorprogram.h</text>
</a>
</g>
</g>
<!-- Node1&#45;&gt;Node13 -->
<g id="edge15" class="edge">
<title>Node1&#45;&gt;Node13</title>
<path fill="none" stroke="midnightblue" d="M367.5,-280.4C367.5,-272.47 367.5,-262.46 367.5,-253.86"/>
<polygon fill="midnightblue" stroke="midnightblue" points="371,-253.66 367.5,-243.66 364,-253.66 371,-253.66"/>
</g>
<!-- Node15 -->
<g id="node15" class="node">
<title>Node15</title>
<g id="a_node15"><a xlink:href="mxlist_8h.html" target="_top" xlink:title=" ">
<polygon fill="none" stroke="black" points="654.5,-224.5 654.5,-243.5 704.5,-243.5 704.5,-224.5 654.5,-224.5"/>
<text text-anchor="middle" x="679.5" y="-231.5" font-family="Helvetica,sans-Serif" font-size="10.00">mxlist.h</text>
</a>
</g>
</g>
<!-- Node1&#45;&gt;Node15 -->
<g id="edge20" class="edge">
<title>Node1&#45;&gt;Node15</title>
<path fill="none" stroke="midnightblue" d="M417.63,-284.94C481.06,-272.84 588.72,-252.31 644.17,-241.74"/>
<polygon fill="midnightblue" stroke="midnightblue" points="645.05,-245.13 654.22,-239.82 643.74,-238.26 645.05,-245.13"/>
</g>
<!-- Node20 -->
<g id="node20" class="node">
<title>Node20</title>
<g id="a_node20"><a xlink:href="mxiconprogram_8h.html" target="_top" xlink:title=" ">
<polygon fill="none" stroke="black" points="499.5,-168.5 499.5,-187.5 589.5,-187.5 589.5,-168.5 499.5,-168.5"/>
<text text-anchor="middle" x="544.5" y="-175.5" font-family="Helvetica,sans-Serif" font-size="10.00">mxiconprogram.h</text>
</a>
</g>
</g>
<!-- Node1&#45;&gt;Node20 -->
<g id="edge26" class="edge">
<title>Node1&#45;&gt;Node20</title>
<path fill="none" stroke="midnightblue" d="M389.2,-280.34C423.12,-258.2 488.34,-215.64 522.47,-193.38"/>
<polygon fill="midnightblue" stroke="midnightblue" points="524.75,-196.07 531.21,-187.67 520.93,-190.2 524.75,-196.07"/>
</g>
<!-- Node21 -->
<g id="node21" class="node">
<title>Node21</title>
<g id="a_node21"><a xlink:href="mxbuffer_8h.html" target="_top" xlink:title=" ">
<polygon fill="none" stroke="black" points="723,-224.5 723,-243.5 784,-243.5 784,-224.5 723,-224.5"/>
<text text-anchor="middle" x="753.5" y="-231.5" font-family="Helvetica,sans-Serif" font-size="10.00">mxbuffer.h</text>
</a>
</g>
</g>
<!-- Node1&#45;&gt;Node21 -->
<g id="edge33" class="edge">
<title>Node1&#45;&gt;Node21</title>
<path fill="none" stroke="midnightblue" d="M417.55,-288.42C483.03,-280.18 601.54,-264.36 712.91,-243.98"/>
<polygon fill="midnightblue" stroke="midnightblue" points="713.78,-247.38 722.97,-242.12 712.51,-240.49 713.78,-247.38"/>
</g>
<!-- Node22 -->
<g id="node22" class="node">
<title>Node22</title>
<g id="a_node22"><a xlink:href="opengl_2mxgpuarray_8h.html" target="_top" xlink:title=" ">
<polygon fill="none" stroke="black" points="167.5,-224.5 167.5,-243.5 241.5,-243.5 241.5,-224.5 167.5,-224.5"/>
<text text-anchor="middle" x="204.5" y="-231.5" font-family="Helvetica,sans-Serif" font-size="10.00">mxgpuarray.h</text>
</a>
</g>
</g>
<!-- Node1&#45;&gt;Node22 -->
<g id="edge34" class="edge">
<title>Node1&#45;&gt;Node22</title>
<path fill="none" stroke="midnightblue" d="M328.87,-280.4C301.16,-270.28 264.19,-256.79 237.78,-247.15"/>
<polygon fill="midnightblue" stroke="midnightblue" points="238.81,-243.8 228.22,-243.66 236.41,-250.37 238.81,-243.8"/>
</g>
<!-- Node3 -->
<g id="node3" class="node">
<title>Node3</title>
<g id="a_node3"><a xlink:title=" ">
<polygon fill="none" stroke="#bfbfbf" points="0,-168.5 0,-187.5 125,-187.5 125,-168.5 0,-168.5"/>
<text text-anchor="middle" x="62.5" y="-175.5" font-family="Helvetica,sans-Serif" font-size="10.00">QOpenGLExtraFunctions</text>
</a>
</g>
</g>
<!-- Node2&#45;&gt;Node3 -->
<g id="edge2" class="edge">
<title>Node2&#45;&gt;Node3</title>
<path fill="none" stroke="midnightblue" d="M68.34,-224.08C67.42,-216.93 66.08,-206.64 64.92,-197.69"/>
<polygon fill="midnightblue" stroke="midnightblue" points="68.39,-197.22 63.63,-187.75 61.45,-198.12 68.39,-197.22"/>
</g>
<!-- Node5 -->
<g id="node5" class="node">
<title>Node5</title>
<g id="a_node5"><a xlink:title=" ">
<polygon fill="none" stroke="#bfbfbf" points="468,-0.5 468,-19.5 531,-19.5 531,-0.5 468,-0.5"/>
<text text-anchor="middle" x="499.5" y="-7.5" font-family="Helvetica,sans-Serif" font-size="10.00">mxdebug.h</text>
</a>
</g>
</g>
<!-- Node4&#45;&gt;Node5 -->
<g id="edge4" class="edge">
<title>Node4&#45;&gt;Node5</title>
<path fill="none" stroke="midnightblue" d="M224.3,-168.39C211.25,-160.79 194.27,-148.39 186.5,-132 176.32,-110.51 194.28,-62.45 201.5,-56 238.54,-22.89 384.62,-14.14 457.58,-11.83"/>
<polygon fill="midnightblue" stroke="midnightblue" points="457.89,-15.32 467.79,-11.53 457.69,-8.32 457.89,-15.32"/>
</g>
<!-- Node6 -->
<g id="node6" class="node">
<title>Node6</title>
<g id="a_node6"><a xlink:href="mxshaderprogram_8h.html" target="_top" xlink:title=" ">
<polygon fill="none" stroke="black" points="196,-112.5 196,-131.5 297,-131.5 297,-112.5 196,-112.5"/>
<text text-anchor="middle" x="246.5" y="-119.5" font-family="Helvetica,sans-Serif" font-size="10.00">mxshaderprogram.h</text>
</a>
</g>
</g>
<!-- Node4&#45;&gt;Node6 -->
<g id="edge5" class="edge">
<title>Node4&#45;&gt;Node6</title>
<path fill="none" stroke="midnightblue" d="M242.33,-168.08C242.98,-161.01 243.92,-150.86 244.74,-141.99"/>
<polygon fill="midnightblue" stroke="midnightblue" points="248.25,-142.03 245.69,-131.75 241.28,-141.39 248.25,-142.03"/>
</g>
<!-- Node8 -->
<g id="node8" class="node">
<title>Node8</title>
<g id="a_node8"><a xlink:href="mxmatrix_8h.html" target="_top" xlink:title=" ">
<polygon fill="none" stroke="black" points="321,-112.5 321,-131.5 384,-131.5 384,-112.5 321,-112.5"/>
<text text-anchor="middle" x="352.5" y="-119.5" font-family="Helvetica,sans-Serif" font-size="10.00">mxmatrix.h</text>
</a>
</g>
</g>
<!-- Node4&#45;&gt;Node8 -->
<g id="edge8" class="edge">
<title>Node4&#45;&gt;Node8</title>
<path fill="none" stroke="midnightblue" d="M259.33,-168.32C277.22,-159.62 304.98,-146.12 325.55,-136.11"/>
<polygon fill="midnightblue" stroke="midnightblue" points="327.25,-139.18 334.71,-131.65 324.19,-132.88 327.25,-139.18"/>
</g>
<!-- Node10 -->
<g id="node10" class="node">
<title>Node10</title>
<g id="a_node10"><a xlink:href="mxrect_8h.html" target="_top" xlink:title=" ">
<polygon fill="none" stroke="black" points="442,-112.5 442,-131.5 495,-131.5 495,-112.5 442,-112.5"/>
<text text-anchor="middle" x="468.5" y="-119.5" font-family="Helvetica,sans-Serif" font-size="10.00">mxrect.h</text>
</a>
</g>
</g>
<!-- Node4&#45;&gt;Node10 -->
<g id="edge10" class="edge">
<title>Node4&#45;&gt;Node10</title>
<path fill="none" stroke="midnightblue" d="M277.47,-168.44C319.74,-158.39 389.49,-141.79 431.99,-131.68"/>
<polygon fill="midnightblue" stroke="midnightblue" points="433,-135.04 441.92,-129.32 431.38,-128.23 433,-135.04"/>
</g>
<!-- Node6&#45;&gt;Node5 -->
<g id="edge6" class="edge">
<title>Node6&#45;&gt;Node5</title>
<path fill="none" stroke="midnightblue" d="M235.16,-112.34C219.31,-99.23 194.12,-73.95 209.5,-56 240.98,-19.26 385.35,-12.27 457.79,-11.1"/>
<polygon fill="midnightblue" stroke="midnightblue" points="457.98,-14.6 467.93,-10.97 457.89,-7.6 457.98,-14.6"/>
</g>
<!-- Node7 -->
<g id="node7" class="node">
<title>Node7</title>
<g id="a_node7"><a xlink:href="mxopengl_8h.html" target="_top" xlink:title=" ">
<polygon fill="none" stroke="black" points="219,-56.5 219,-75.5 284,-75.5 284,-56.5 219,-56.5"/>
<text text-anchor="middle" x="251.5" y="-63.5" font-family="Helvetica,sans-Serif" font-size="10.00">mxopengl.h</text>
</a>
</g>
</g>
<!-- Node6&#45;&gt;Node7 -->
<g id="edge7" class="edge">
<title>Node6&#45;&gt;Node7</title>
<path fill="none" stroke="midnightblue" d="M247.33,-112.08C247.98,-105.01 248.92,-94.86 249.74,-85.99"/>
<polygon fill="midnightblue" stroke="midnightblue" points="253.25,-86.03 250.69,-75.75 246.28,-85.39 253.25,-86.03"/>
</g>
<!-- Node9 -->
<g id="node9" class="node">
<title>Node9</title>
<g id="a_node9"><a xlink:title=" ">
<polygon fill="none" stroke="#bfbfbf" points="302,-56.5 302,-75.5 367,-75.5 367,-56.5 302,-56.5"/>
<text text-anchor="middle" x="334.5" y="-63.5" font-family="Helvetica,sans-Serif" font-size="10.00">QMatrix4x4</text>
</a>
</g>
</g>
<!-- Node8&#45;&gt;Node9 -->
<g id="edge9" class="edge">
<title>Node8&#45;&gt;Node9</title>
<path fill="none" stroke="midnightblue" d="M349.53,-112.08C347.12,-104.85 343.64,-94.41 340.63,-85.4"/>
<polygon fill="midnightblue" stroke="midnightblue" points="343.9,-84.13 337.42,-75.75 337.26,-86.34 343.9,-84.13"/>
</g>
<!-- Node10&#45;&gt;Node5 -->
<g id="edge11" class="edge">
<title>Node10&#45;&gt;Node5</title>
<path fill="none" stroke="midnightblue" d="M470.93,-112.37C475.96,-94.54 487.58,-53.3 494.35,-29.27"/>
<polygon fill="midnightblue" stroke="midnightblue" points="497.73,-30.17 497.08,-19.59 491,-28.27 497.73,-30.17"/>
</g>
<!-- Node11 -->
<g id="node11" class="node">
<title>Node11</title>
<g id="a_node11"><a xlink:href="mxvector_8h.html" target="_top" xlink:title=" ">
<polygon fill="none" stroke="black" points="497.5,-56.5 497.5,-75.5 561.5,-75.5 561.5,-56.5 497.5,-56.5"/>
<text text-anchor="middle" x="529.5" y="-63.5" font-family="Helvetica,sans-Serif" font-size="10.00">mxvector.h</text>
</a>
</g>
</g>
<!-- Node10&#45;&gt;Node11 -->
<g id="edge12" class="edge">
<title>Node10&#45;&gt;Node11</title>
<path fill="none" stroke="midnightblue" d="M478.3,-112.32C487.32,-104.34 500.91,-92.31 511.82,-82.65"/>
<polygon fill="midnightblue" stroke="midnightblue" points="514.35,-85.08 519.52,-75.83 509.71,-79.84 514.35,-85.08"/>
</g>
<!-- Node12 -->
<g id="node12" class="node">
<title>Node12</title>
<g id="a_node12"><a xlink:title=" ">
<polygon fill="none" stroke="#bfbfbf" points="385.5,-56.5 385.5,-75.5 441.5,-75.5 441.5,-56.5 385.5,-56.5"/>
<text text-anchor="middle" x="413.5" y="-63.5" font-family="Helvetica,sans-Serif" font-size="10.00">algorithm</text>
</a>
</g>
</g>
<!-- Node10&#45;&gt;Node12 -->
<g id="edge14" class="edge">
<title>Node10&#45;&gt;Node12</title>
<path fill="none" stroke="midnightblue" d="M459.42,-112.08C451.33,-104.14 439.3,-92.34 429.59,-82.8"/>
<polygon fill="midnightblue" stroke="midnightblue" points="432,-80.26 422.41,-75.75 427.1,-85.25 432,-80.26"/>
</g>
<!-- Node11&#45;&gt;Node5 -->
<g id="edge13" class="edge">
<title>Node11&#45;&gt;Node5</title>
<path fill="none" stroke="midnightblue" d="M524.55,-56.08C520.4,-48.61 514.35,-37.72 509.23,-28.52"/>
<polygon fill="midnightblue" stroke="midnightblue" points="512.28,-26.79 504.36,-19.75 506.16,-30.19 512.28,-26.79"/>
</g>
<!-- Node13&#45;&gt;Node6 -->
<g id="edge16" class="edge">
<title>Node13&#45;&gt;Node6</title>
<path fill="none" stroke="midnightblue" d="M360.9,-224.45C350.66,-211.48 329.99,-186.38 309.5,-168 296.86,-156.66 281.35,-145.55 268.89,-137.21"/>
<polygon fill="midnightblue" stroke="midnightblue" points="270.71,-134.22 260.43,-131.66 266.87,-140.07 270.71,-134.22"/>
</g>
<!-- Node13&#45;&gt;Node8 -->
<g id="edge17" class="edge">
<title>Node13&#45;&gt;Node8</title>
<path fill="none" stroke="midnightblue" d="M366.32,-224.37C363.9,-206.62 358.32,-165.67 355.04,-141.6"/>
<polygon fill="midnightblue" stroke="midnightblue" points="358.49,-141.03 353.67,-131.59 351.55,-141.97 358.49,-141.03"/>
</g>
<!-- Node14 -->
<g id="node14" class="node">
<title>Node14</title>
<g id="a_node14"><a xlink:href="mxvectordraw_8h.html" target="_top" xlink:title=" ">
<polygon fill="none" stroke="black" points="396,-168.5 396,-187.5 481,-187.5 481,-168.5 396,-168.5"/>
<text text-anchor="middle" x="438.5" y="-175.5" font-family="Helvetica,sans-Serif" font-size="10.00">mxvectordraw.h</text>
</a>
</g>
</g>
<!-- Node13&#45;&gt;Node14 -->
<g id="edge18" class="edge">
<title>Node13&#45;&gt;Node14</title>
<path fill="none" stroke="midnightblue" d="M378.91,-224.32C389.61,-216.18 405.84,-203.84 418.66,-194.09"/>
<polygon fill="midnightblue" stroke="midnightblue" points="421.04,-196.67 426.89,-187.83 416.81,-191.1 421.04,-196.67"/>
</g>
<!-- Node14&#45;&gt;Node10 -->
<g id="edge19" class="edge">
<title>Node14&#45;&gt;Node10</title>
<path fill="none" stroke="midnightblue" d="M443.45,-168.08C447.6,-160.61 453.65,-149.72 458.77,-140.52"/>
<polygon fill="midnightblue" stroke="midnightblue" points="461.84,-142.19 463.64,-131.75 455.72,-138.79 461.84,-142.19"/>
</g>
<!-- Node15&#45;&gt;Node5 -->
<g id="edge21" class="edge">
<title>Node15&#45;&gt;Node5</title>
<path fill="none" stroke="midnightblue" d="M672.33,-224.43C665.2,-215.65 654.25,-201.43 646.5,-188 614.47,-132.5 632.57,-102.52 588.5,-56 574.43,-41.15 554.4,-30.43 536.9,-23.18"/>
<polygon fill="midnightblue" stroke="midnightblue" points="538.08,-19.88 527.49,-19.51 535.53,-26.4 538.08,-19.88"/>
</g>
<!-- Node16 -->
<g id="node16" class="node">
<title>Node16</title>
<g id="a_node16"><a xlink:href="mxrefcounter_8h.html" target="_top" xlink:title=" ">
<polygon fill="none" stroke="black" points="775.5,-168.5 775.5,-187.5 855.5,-187.5 855.5,-168.5 775.5,-168.5"/>
<text text-anchor="middle" x="815.5" y="-175.5" font-family="Helvetica,sans-Serif" font-size="10.00">mxrefcounter.h</text>
</a>
</g>
</g>
<!-- Node15&#45;&gt;Node16 -->
<g id="edge22" class="edge">
<title>Node15&#45;&gt;Node16</title>
<path fill="none" stroke="midnightblue" d="M701.05,-224.44C723.53,-215.52 758.99,-201.44 784.48,-191.32"/>
<polygon fill="midnightblue" stroke="midnightblue" points="786.05,-194.46 794.05,-187.52 783.47,-187.95 786.05,-194.46"/>
</g>
<!-- Node17 -->
<g id="node17" class="node">
<title>Node17</title>
<g id="a_node17"><a xlink:title=" ">
<polygon fill="none" stroke="#bfbfbf" points="874,-168.5 874,-187.5 921,-187.5 921,-168.5 874,-168.5"/>
<text text-anchor="middle" x="897.5" y="-175.5" font-family="Helvetica,sans-Serif" font-size="10.00">stdlib.h</text>
</a>
</g>
</g>
<!-- Node15&#45;&gt;Node17 -->
<g id="edge23" class="edge">
<title>Node15&#45;&gt;Node17</title>
<path fill="none" stroke="midnightblue" d="M704.72,-226.46C708.01,-225.63 711.33,-224.79 714.5,-224 778.05,-208.21 796.46,-205.27 863.88,-188.1"/>
<polygon fill="midnightblue" stroke="midnightblue" points="864.91,-191.45 873.73,-185.58 863.17,-184.66 864.91,-191.45"/>
</g>
<!-- Node18 -->
<g id="node18" class="node">
<title>Node18</title>
<g id="a_node18"><a xlink:title=" ">
<polygon fill="none" stroke="#bfbfbf" points="655.5,-168.5 655.5,-187.5 703.5,-187.5 703.5,-168.5 655.5,-168.5"/>
<text text-anchor="middle" x="679.5" y="-175.5" font-family="Helvetica,sans-Serif" font-size="10.00">string.h</text>
</a>
</g>
</g>
<!-- Node15&#45;&gt;Node18 -->
<g id="edge24" class="edge">
<title>Node15&#45;&gt;Node18</title>
<path fill="none" stroke="midnightblue" d="M679.5,-224.08C679.5,-217.01 679.5,-206.86 679.5,-197.99"/>
<polygon fill="midnightblue" stroke="midnightblue" points="683,-197.75 679.5,-187.75 676,-197.75 683,-197.75"/>
</g>
<!-- Node19 -->
<g id="node19" class="node">
<title>Node19</title>
<g id="a_node19"><a xlink:title=" ">
<polygon fill="none" stroke="#bfbfbf" points="722,-168.5 722,-187.5 757,-187.5 757,-168.5 722,-168.5"/>
<text text-anchor="middle" x="739.5" y="-175.5" font-family="Helvetica,sans-Serif" font-size="10.00">new</text>
</a>
</g>
</g>
<!-- Node15&#45;&gt;Node19 -->
<g id="edge25" class="edge">
<title>Node15&#45;&gt;Node19</title>
<path fill="none" stroke="midnightblue" d="M689.14,-224.32C698.01,-216.34 711.37,-204.31 722.11,-194.65"/>
<polygon fill="midnightblue" stroke="midnightblue" points="724.59,-197.13 729.68,-187.83 719.91,-191.92 724.59,-197.13"/>
</g>
<!-- Node20&#45;&gt;Node5 -->
<g id="edge27" class="edge">
<title>Node20&#45;&gt;Node5</title>
<path fill="none" stroke="midnightblue" d="M550.28,-168.2C563.14,-147.38 591.42,-94.03 570.5,-56 562.61,-41.66 548.01,-31.25 534.1,-24.08"/>
<polygon fill="midnightblue" stroke="midnightblue" points="535.2,-20.73 524.66,-19.62 532.21,-27.06 535.2,-20.73"/>
</g>
<!-- Node20&#45;&gt;Node6 -->
<g id="edge31" class="edge">
<title>Node20&#45;&gt;Node6</title>
<path fill="none" stroke="midnightblue" d="M499.24,-168.8C446.86,-159.31 360.53,-143.66 303.59,-133.35"/>
<polygon fill="midnightblue" stroke="midnightblue" points="304.13,-129.89 293.67,-131.55 302.88,-136.77 304.13,-129.89"/>
</g>
<!-- Node20&#45;&gt;Node7 -->
<g id="edge30" class="edge">
<title>Node20&#45;&gt;Node7</title>
<path fill="none" stroke="midnightblue" d="M521.53,-168.4C498.73,-159.72 462.88,-145.67 432.5,-132 414.37,-123.84 410.91,-119.49 392.5,-112 359.6,-98.62 321.13,-86.57 292.69,-78.32"/>
<polygon fill="midnightblue" stroke="midnightblue" points="293.65,-74.95 283.08,-75.56 291.72,-81.68 293.65,-74.95"/>
</g>
<!-- Node20&#45;&gt;Node8 -->
<g id="edge28" class="edge">
<title>Node20&#45;&gt;Node8</title>
<path fill="none" stroke="midnightblue" d="M514.08,-168.44C481.22,-159.2 428.72,-144.44 392.53,-134.26"/>
<polygon fill="midnightblue" stroke="midnightblue" points="393.35,-130.85 382.78,-131.52 391.46,-137.59 393.35,-130.85"/>
</g>
<!-- Node20&#45;&gt;Node10 -->
<g id="edge32" class="edge">
<title>Node20&#45;&gt;Node10</title>
<path fill="none" stroke="midnightblue" d="M532.29,-168.32C520.72,-160.11 503.12,-147.6 489.34,-137.81"/>
<polygon fill="midnightblue" stroke="midnightblue" points="491.11,-134.77 480.93,-131.83 487.06,-140.48 491.11,-134.77"/>
</g>
<!-- Node20&#45;&gt;Node11 -->
<g id="edge29" class="edge">
<title>Node20&#45;&gt;Node11</title>
<path fill="none" stroke="midnightblue" d="M543.32,-168.37C540.9,-150.62 535.32,-109.67 532.04,-85.6"/>
<polygon fill="midnightblue" stroke="midnightblue" points="535.49,-85.03 530.67,-75.59 528.55,-85.97 535.49,-85.03"/>
</g>
<!-- Node22&#45;&gt;Node6 -->
<g id="edge35" class="edge">
<title>Node22&#45;&gt;Node6</title>
<path fill="none" stroke="midnightblue" d="M194.78,-224.43C181.73,-211.85 161.4,-187.73 172.5,-168 180.72,-153.38 195.83,-142.95 210.26,-135.85"/>
<polygon fill="midnightblue" stroke="midnightblue" points="211.9,-138.95 219.57,-131.64 209.02,-132.57 211.9,-138.95"/>
</g>
</g>
</svg>
