<?xml version="1.0" encoding="UTF-8" standalone="no"?>
<!DOCTYPE svg PUBLIC "-//W3C//DTD SVG 1.1//EN"
 "http://www.w3.org/Graphics/SVG/1.1/DTD/svg11.dtd">
<!-- Generated by graphviz version 2.44.0 ()
 -->
<!-- Title: src/renderer/opengl/mxrenderer.h Pages: 1 -->
<svg width="1004pt" height="375pt"
 viewBox="0.00 0.00 1004.00 375.00" xmlns="http://www.w3.org/2000/svg" xmlns:xlink="http://www.w3.org/1999/xlink">
<g id="graph0" class="graph" transform="scale(1 1) rotate(0) translate(4 371)">
<title>src/renderer/opengl/mxrenderer.h</title>
<!-- Node1 -->
<g id="node1" class="node">
<title>Node1</title>
<g id="a_node1"><a xlink:title=" ">
<polygon fill="#bfbfbf" stroke="black" points="212.5,-336.5 212.5,-366.5 312.5,-366.5 312.5,-336.5 212.5,-336.5"/>
<text text-anchor="start" x="220.5" y="-354.5" font-family="Helvetica,sans-Serif" font-size="10.00">src/renderer/opengl</text>
<text text-anchor="middle" x="262.5" y="-343.5" font-family="Helvetica,sans-Serif" font-size="10.00">/mxrenderer.h</text>
</a>
</g>
</g>
<!-- Node2 -->
<g id="node2" class="node">
<title>Node2</title>
<g id="a_node2"><a xlink:href="mxopenglfunctions_8h.html" target="_top" xlink:title=" ">
<polygon fill="none" stroke="black" points="15,-280.5 15,-299.5 120,-299.5 120,-280.5 15,-280.5"/>
<text text-anchor="middle" x="67.5" y="-287.5" font-family="Helvetica,sans-Serif" font-size="10.00">mxopenglfunctions.h</text>
</a>
</g>
</g>
<!-- Node1&#45;&gt;Node2 -->
<g id="edge1" class="edge">
<title>Node1&#45;&gt;Node2</title>
<path fill="none" stroke="midnightblue" d="M216.29,-336.4C182.45,-326.07 137.08,-312.23 105.37,-302.56"/>
<polygon fill="midnightblue" stroke="midnightblue" points="106.18,-299.14 95.59,-299.57 104.13,-305.84 106.18,-299.14"/>
</g>
<!-- Node4 -->
<g id="node4" class="node">
<title>Node4</title>
<g id="a_node4"><a xlink:href="mxcolorwheelprogram_8h.html" target="_top" xlink:title=" ">
<polygon fill="none" stroke="black" points="263,-168.5 263,-187.5 382,-187.5 382,-168.5 263,-168.5"/>
<text text-anchor="middle" x="322.5" y="-175.5" font-family="Helvetica,sans-Serif" font-size="10.00">mxcolorwheelprogram.h</text>
</a>
</g>
</g>
<!-- Node1&#45;&gt;Node4 -->
<g id="edge3" class="edge">
<title>Node1&#45;&gt;Node4</title>
<path fill="none" stroke="midnightblue" d="M248.15,-336.29C225.26,-311.87 185.5,-260.98 210.5,-224 221.49,-207.74 239.44,-197.35 257.77,-190.72"/>
<polygon fill="midnightblue" stroke="midnightblue" points="258.95,-194.02 267.36,-187.58 256.77,-187.36 258.95,-194.02"/>
</g>
<!-- Node13 -->
<g id="node13" class="node">
<title>Node13</title>
<g id="a_node13"><a xlink:href="mxvectorprogram_8h.html" target="_top" xlink:title=" ">
<polygon fill="none" stroke="black" points="252,-280.5 252,-299.5 351,-299.5 351,-280.5 252,-280.5"/>
<text text-anchor="middle" x="301.5" y="-287.5" font-family="Helvetica,sans-Serif" font-size="10.00">mxvectorprogram.h</text>
</a>
</g>
</g>
<!-- Node1&#45;&gt;Node13 -->
<g id="edge16" class="edge">
<title>Node1&#45;&gt;Node13</title>
<path fill="none" stroke="midnightblue" d="M271.74,-336.4C277.29,-327.93 284.39,-317.1 290.27,-308.14"/>
<polygon fill="midnightblue" stroke="midnightblue" points="293.27,-309.94 295.83,-299.66 287.42,-306.1 293.27,-309.94"/>
</g>
<!-- Node15 -->
<g id="node15" class="node">
<title>Node15</title>
<g id="a_node15"><a xlink:href="mxcachedgpuarray_8h.html" target="_top" xlink:title=" ">
<polygon fill="none" stroke="black" points="101,-168.5 101,-187.5 206,-187.5 206,-168.5 101,-168.5"/>
<text text-anchor="middle" x="153.5" y="-175.5" font-family="Helvetica,sans-Serif" font-size="10.00">mxcachedgpuarray.h</text>
</a>
</g>
</g>
<!-- Node1&#45;&gt;Node15 -->
<g id="edge31" class="edge">
<title>Node1&#45;&gt;Node15</title>
<path fill="none" stroke="midnightblue" d="M242.93,-336.3C231.18,-327 216.61,-314.01 206.5,-300 182.88,-267.26 166.68,-222.33 158.87,-197.46"/>
<polygon fill="midnightblue" stroke="midnightblue" points="162.12,-196.11 155.87,-187.56 155.42,-198.14 162.12,-196.11"/>
</g>
<!-- Node17 -->
<g id="node17" class="node">
<title>Node17</title>
<g id="a_node17"><a xlink:href="mxlist_8h.html" target="_top" xlink:title=" ">
<polygon fill="none" stroke="black" points="786.5,-280.5 786.5,-299.5 836.5,-299.5 836.5,-280.5 786.5,-280.5"/>
<text text-anchor="middle" x="811.5" y="-287.5" font-family="Helvetica,sans-Serif" font-size="10.00">mxlist.h</text>
</a>
</g>
</g>
<!-- Node1&#45;&gt;Node17 -->
<g id="edge25" class="edge">
<title>Node1&#45;&gt;Node17</title>
<path fill="none" stroke="midnightblue" d="M312.68,-345.06C422.4,-333.17 681.42,-305.1 776.08,-294.84"/>
<polygon fill="midnightblue" stroke="midnightblue" points="776.7,-298.29 786.27,-293.73 775.95,-291.33 776.7,-298.29"/>
</g>
<!-- Node22 -->
<g id="node22" class="node">
<title>Node22</title>
<g id="a_node22"><a xlink:href="mxiconprogram_8h.html" target="_top" xlink:title=" ">
<polygon fill="none" stroke="black" points="476.5,-168.5 476.5,-187.5 566.5,-187.5 566.5,-168.5 476.5,-168.5"/>
<text text-anchor="middle" x="521.5" y="-175.5" font-family="Helvetica,sans-Serif" font-size="10.00">mxiconprogram.h</text>
</a>
</g>
</g>
<!-- Node1&#45;&gt;Node22 -->
<g id="edge32" class="edge">
<title>Node1&#45;&gt;Node22</title>
<path fill="none" stroke="midnightblue" d="M292.48,-336.46C312.01,-326.93 337.79,-313.63 359.5,-300 414.19,-265.65 473.94,-218.18 503.23,-194.19"/>
<polygon fill="midnightblue" stroke="midnightblue" points="505.81,-196.6 511.3,-187.54 501.36,-191.2 505.81,-196.6"/>
</g>
<!-- Node3 -->
<g id="node3" class="node">
<title>Node3</title>
<g id="a_node3"><a xlink:title=" ">
<polygon fill="none" stroke="#bfbfbf" points="0,-224.5 0,-243.5 125,-243.5 125,-224.5 0,-224.5"/>
<text text-anchor="middle" x="62.5" y="-231.5" font-family="Helvetica,sans-Serif" font-size="10.00">QOpenGLExtraFunctions</text>
</a>
</g>
</g>
<!-- Node2&#45;&gt;Node3 -->
<g id="edge2" class="edge">
<title>Node2&#45;&gt;Node3</title>
<path fill="none" stroke="midnightblue" d="M66.67,-280.08C66.02,-273.01 65.08,-262.86 64.26,-253.99"/>
<polygon fill="midnightblue" stroke="midnightblue" points="67.72,-253.39 63.31,-243.75 60.75,-254.03 67.72,-253.39"/>
</g>
<!-- Node5 -->
<g id="node5" class="node">
<title>Node5</title>
<g id="a_node5"><a xlink:title=" ">
<polygon fill="none" stroke="#bfbfbf" points="543,-0.5 543,-19.5 606,-19.5 606,-0.5 543,-0.5"/>
<text text-anchor="middle" x="574.5" y="-7.5" font-family="Helvetica,sans-Serif" font-size="10.00">mxdebug.h</text>
</a>
</g>
</g>
<!-- Node4&#45;&gt;Node5 -->
<g id="edge4" class="edge">
<title>Node4&#45;&gt;Node5</title>
<path fill="none" stroke="midnightblue" d="M319.82,-168.36C313.63,-146.47 300.94,-88.33 329.5,-56 355.68,-26.35 469.53,-16.1 532.4,-12.66"/>
<polygon fill="midnightblue" stroke="midnightblue" points="532.97,-16.14 542.77,-12.13 532.61,-9.15 532.97,-16.14"/>
</g>
<!-- Node6 -->
<g id="node6" class="node">
<title>Node6</title>
<g id="a_node6"><a xlink:href="mxopengl_8h.html" target="_top" xlink:title=" ">
<polygon fill="none" stroke="black" points="160,-0.5 160,-19.5 225,-19.5 225,-0.5 160,-0.5"/>
<text text-anchor="middle" x="192.5" y="-7.5" font-family="Helvetica,sans-Serif" font-size="10.00">mxopengl.h</text>
</a>
</g>
</g>
<!-- Node4&#45;&gt;Node6 -->
<g id="edge5" class="edge">
<title>Node4&#45;&gt;Node6</title>
<path fill="none" stroke="midnightblue" d="M262.77,-171.62C210.65,-165.53 140.72,-153.55 123.5,-132 95.74,-97.27 143.44,-50.01 172.53,-26.14"/>
<polygon fill="midnightblue" stroke="midnightblue" points="174.87,-28.75 180.51,-19.79 170.51,-23.28 174.87,-28.75"/>
</g>
<!-- Node7 -->
<g id="node7" class="node">
<title>Node7</title>
<g id="a_node7"><a xlink:href="mxshaderprogram_8h.html" target="_top" xlink:title=" ">
<polygon fill="none" stroke="black" points="181,-56.5 181,-75.5 282,-75.5 282,-56.5 181,-56.5"/>
<text text-anchor="middle" x="231.5" y="-63.5" font-family="Helvetica,sans-Serif" font-size="10.00">mxshaderprogram.h</text>
</a>
</g>
</g>
<!-- Node4&#45;&gt;Node7 -->
<g id="edge6" class="edge">
<title>Node4&#45;&gt;Node7</title>
<path fill="none" stroke="midnightblue" d="M315.36,-168.37C300.21,-150.05 264.63,-107.05 245.04,-83.36"/>
<polygon fill="midnightblue" stroke="midnightblue" points="247.68,-81.07 238.61,-75.59 242.28,-85.53 247.68,-81.07"/>
</g>
<!-- Node8 -->
<g id="node8" class="node">
<title>Node8</title>
<g id="a_node8"><a xlink:href="mxmatrix_8h.html" target="_top" xlink:title=" ">
<polygon fill="none" stroke="black" points="339,-112.5 339,-131.5 402,-131.5 402,-112.5 339,-112.5"/>
<text text-anchor="middle" x="370.5" y="-119.5" font-family="Helvetica,sans-Serif" font-size="10.00">mxmatrix.h</text>
</a>
</g>
</g>
<!-- Node4&#45;&gt;Node8 -->
<g id="edge9" class="edge">
<title>Node4&#45;&gt;Node8</title>
<path fill="none" stroke="midnightblue" d="M330.43,-168.08C337.35,-160.3 347.57,-148.8 355.95,-139.37"/>
<polygon fill="midnightblue" stroke="midnightblue" points="358.69,-141.55 362.72,-131.75 353.46,-136.9 358.69,-141.55"/>
</g>
<!-- Node10 -->
<g id="node10" class="node">
<title>Node10</title>
<g id="a_node10"><a xlink:href="mxrect_8h.html" target="_top" xlink:title=" ">
<polygon fill="none" stroke="black" points="497,-112.5 497,-131.5 550,-131.5 550,-112.5 497,-112.5"/>
<text text-anchor="middle" x="523.5" y="-119.5" font-family="Helvetica,sans-Serif" font-size="10.00">mxrect.h</text>
</a>
</g>
</g>
<!-- Node4&#45;&gt;Node10 -->
<g id="edge11" class="edge">
<title>Node4&#45;&gt;Node10</title>
<path fill="none" stroke="midnightblue" d="M354.35,-168.44C390.37,-158.77 448.93,-143.03 486.83,-132.85"/>
<polygon fill="midnightblue" stroke="midnightblue" points="488.19,-136.11 496.94,-130.14 486.37,-129.35 488.19,-136.11"/>
</g>
<!-- Node7&#45;&gt;Node5 -->
<g id="edge7" class="edge">
<title>Node7&#45;&gt;Node5</title>
<path fill="none" stroke="midnightblue" d="M282.11,-57.03C350.07,-46.33 469.57,-27.52 532.7,-17.58"/>
<polygon fill="midnightblue" stroke="midnightblue" points="533.36,-21.02 542.7,-16.01 532.28,-14.1 533.36,-21.02"/>
</g>
<!-- Node7&#45;&gt;Node6 -->
<g id="edge8" class="edge">
<title>Node7&#45;&gt;Node6</title>
<path fill="none" stroke="midnightblue" d="M225.06,-56.08C219.55,-48.46 211.47,-37.26 204.74,-27.94"/>
<polygon fill="midnightblue" stroke="midnightblue" points="207.51,-25.81 198.82,-19.75 201.84,-29.91 207.51,-25.81"/>
</g>
<!-- Node9 -->
<g id="node9" class="node">
<title>Node9</title>
<g id="a_node9"><a xlink:title=" ">
<polygon fill="none" stroke="#bfbfbf" points="339,-56.5 339,-75.5 404,-75.5 404,-56.5 339,-56.5"/>
<text text-anchor="middle" x="371.5" y="-63.5" font-family="Helvetica,sans-Serif" font-size="10.00">QMatrix4x4</text>
</a>
</g>
</g>
<!-- Node8&#45;&gt;Node9 -->
<g id="edge10" class="edge">
<title>Node8&#45;&gt;Node9</title>
<path fill="none" stroke="midnightblue" d="M370.67,-112.08C370.8,-105.01 370.98,-94.86 371.15,-85.99"/>
<polygon fill="midnightblue" stroke="midnightblue" points="374.65,-85.81 371.34,-75.75 367.65,-85.68 374.65,-85.81"/>
</g>
<!-- Node10&#45;&gt;Node5 -->
<g id="edge12" class="edge">
<title>Node10&#45;&gt;Node5</title>
<path fill="none" stroke="midnightblue" d="M527.5,-112.37C535.81,-94.46 555.06,-52.92 566.18,-28.95"/>
<polygon fill="midnightblue" stroke="midnightblue" points="569.49,-30.14 570.52,-19.59 563.14,-27.19 569.49,-30.14"/>
</g>
<!-- Node11 -->
<g id="node11" class="node">
<title>Node11</title>
<g id="a_node11"><a xlink:href="mxvector_8h.html" target="_top" xlink:title=" ">
<polygon fill="none" stroke="black" points="572.5,-56.5 572.5,-75.5 636.5,-75.5 636.5,-56.5 572.5,-56.5"/>
<text text-anchor="middle" x="604.5" y="-63.5" font-family="Helvetica,sans-Serif" font-size="10.00">mxvector.h</text>
</a>
</g>
</g>
<!-- Node10&#45;&gt;Node11 -->
<g id="edge13" class="edge">
<title>Node10&#45;&gt;Node11</title>
<path fill="none" stroke="midnightblue" d="M536.51,-112.32C549.03,-103.98 568.18,-91.21 582.97,-81.35"/>
<polygon fill="midnightblue" stroke="midnightblue" points="585.14,-84.11 591.52,-75.65 581.26,-78.29 585.14,-84.11"/>
</g>
<!-- Node12 -->
<g id="node12" class="node">
<title>Node12</title>
<g id="a_node12"><a xlink:title=" ">
<polygon fill="none" stroke="#bfbfbf" points="460.5,-56.5 460.5,-75.5 516.5,-75.5 516.5,-56.5 460.5,-56.5"/>
<text text-anchor="middle" x="488.5" y="-63.5" font-family="Helvetica,sans-Serif" font-size="10.00">algorithm</text>
</a>
</g>
</g>
<!-- Node10&#45;&gt;Node12 -->
<g id="edge15" class="edge">
<title>Node10&#45;&gt;Node12</title>
<path fill="none" stroke="midnightblue" d="M517.72,-112.08C512.83,-104.53 505.67,-93.49 499.67,-84.23"/>
<polygon fill="midnightblue" stroke="midnightblue" points="502.55,-82.24 494.17,-75.75 496.67,-86.05 502.55,-82.24"/>
</g>
<!-- Node11&#45;&gt;Node5 -->
<g id="edge14" class="edge">
<title>Node11&#45;&gt;Node5</title>
<path fill="none" stroke="midnightblue" d="M599.55,-56.08C595.4,-48.61 589.35,-37.72 584.23,-28.52"/>
<polygon fill="midnightblue" stroke="midnightblue" points="587.28,-26.79 579.36,-19.75 581.16,-30.19 587.28,-26.79"/>
</g>
<!-- Node13&#45;&gt;Node7 -->
<g id="edge17" class="edge">
<title>Node13&#45;&gt;Node7</title>
<path fill="none" stroke="midnightblue" d="M306.51,-280.4C313.38,-267.36 323.79,-242.17 313.5,-224 298.18,-196.94 271.19,-213.58 253.5,-188 232.01,-156.94 229.72,-111.02 230.35,-85.62"/>
<polygon fill="midnightblue" stroke="midnightblue" points="233.85,-85.66 230.79,-75.52 226.86,-85.35 233.85,-85.66"/>
</g>
<!-- Node13&#45;&gt;Node8 -->
<g id="edge18" class="edge">
<title>Node13&#45;&gt;Node8</title>
<path fill="none" stroke="midnightblue" d="M313.68,-280.46C334.55,-264.94 376.29,-229.82 390.5,-188 395.89,-172.14 389.16,-153.9 382.1,-140.79"/>
<polygon fill="midnightblue" stroke="midnightblue" points="384.93,-138.7 376.82,-131.88 378.91,-142.27 384.93,-138.7"/>
</g>
<!-- Node14 -->
<g id="node14" class="node">
<title>Node14</title>
<g id="a_node14"><a xlink:href="mxvectordraw_8h.html" target="_top" xlink:title=" ">
<polygon fill="none" stroke="black" points="220,-224.5 220,-243.5 305,-243.5 305,-224.5 220,-224.5"/>
<text text-anchor="middle" x="262.5" y="-231.5" font-family="Helvetica,sans-Serif" font-size="10.00">mxvectordraw.h</text>
</a>
</g>
</g>
<!-- Node13&#45;&gt;Node14 -->
<g id="edge19" class="edge">
<title>Node13&#45;&gt;Node14</title>
<path fill="none" stroke="midnightblue" d="M295.06,-280.08C289.55,-272.46 281.47,-261.26 274.74,-251.94"/>
<polygon fill="midnightblue" stroke="midnightblue" points="277.51,-249.81 268.82,-243.75 271.84,-253.91 277.51,-249.81"/>
</g>
<!-- Node14&#45;&gt;Node10 -->
<g id="edge24" class="edge">
<title>Node14&#45;&gt;Node10</title>
<path fill="none" stroke="midnightblue" d="M289.82,-224.42C315.97,-215.97 356.38,-202.28 390.5,-188 428.93,-171.92 472.02,-150.14 498.45,-136.33"/>
<polygon fill="midnightblue" stroke="midnightblue" points="500.18,-139.38 507.4,-131.63 496.92,-133.18 500.18,-139.38"/>
</g>
<!-- Node14&#45;&gt;Node15 -->
<g id="edge20" class="edge">
<title>Node14&#45;&gt;Node15</title>
<path fill="none" stroke="midnightblue" d="M244.99,-224.32C227.43,-215.62 200.17,-202.12 179.97,-192.11"/>
<polygon fill="midnightblue" stroke="midnightblue" points="181.48,-188.96 170.97,-187.65 178.38,-195.23 181.48,-188.96"/>
</g>
<!-- Node16 -->
<g id="node16" class="node">
<title>Node16</title>
<g id="a_node16"><a xlink:href="opengl_2mxgpuarray_8h.html" target="_top" xlink:title=" ">
<polygon fill="none" stroke="black" points="132.5,-112.5 132.5,-131.5 206.5,-131.5 206.5,-112.5 132.5,-112.5"/>
<text text-anchor="middle" x="169.5" y="-119.5" font-family="Helvetica,sans-Serif" font-size="10.00">mxgpuarray.h</text>
</a>
</g>
</g>
<!-- Node15&#45;&gt;Node16 -->
<g id="edge21" class="edge">
<title>Node15&#45;&gt;Node16</title>
<path fill="none" stroke="midnightblue" d="M156.14,-168.08C158.29,-160.85 161.38,-150.41 164.05,-141.4"/>
<polygon fill="midnightblue" stroke="midnightblue" points="167.42,-142.33 166.91,-131.75 160.71,-140.34 167.42,-142.33"/>
</g>
<!-- Node16&#45;&gt;Node6 -->
<g id="edge22" class="edge">
<title>Node16&#45;&gt;Node6</title>
<path fill="none" stroke="midnightblue" d="M168.68,-112.44C167.72,-99.87 166.79,-75.77 171.5,-56 173.77,-46.46 178.17,-36.51 182.36,-28.4"/>
<polygon fill="midnightblue" stroke="midnightblue" points="185.46,-30.03 187.2,-19.58 179.32,-26.66 185.46,-30.03"/>
</g>
<!-- Node16&#45;&gt;Node7 -->
<g id="edge23" class="edge">
<title>Node16&#45;&gt;Node7</title>
<path fill="none" stroke="midnightblue" d="M179.46,-112.32C188.63,-104.34 202.44,-92.31 213.53,-82.65"/>
<polygon fill="midnightblue" stroke="midnightblue" points="216.12,-85.04 221.36,-75.83 211.52,-79.76 216.12,-85.04"/>
</g>
<!-- Node17&#45;&gt;Node5 -->
<g id="edge26" class="edge">
<title>Node17&#45;&gt;Node5</title>
<path fill="none" stroke="midnightblue" d="M786.22,-282.46C765.94,-275.95 738.18,-263.98 721.5,-244 702.21,-220.9 702.5,-209.1 702.5,-179 702.5,-179 702.5,-179 702.5,-121 702.5,-71.64 647.08,-39.61 609.17,-23.48"/>
<polygon fill="midnightblue" stroke="midnightblue" points="610.07,-20.06 599.48,-19.53 607.43,-26.55 610.07,-20.06"/>
</g>
<!-- Node18 -->
<g id="node18" class="node">
<title>Node18</title>
<g id="a_node18"><a xlink:href="mxrefcounter_8h.html" target="_top" xlink:title=" ">
<polygon fill="none" stroke="black" points="730.5,-224.5 730.5,-243.5 810.5,-243.5 810.5,-224.5 730.5,-224.5"/>
<text text-anchor="middle" x="770.5" y="-231.5" font-family="Helvetica,sans-Serif" font-size="10.00">mxrefcounter.h</text>
</a>
</g>
</g>
<!-- Node17&#45;&gt;Node18 -->
<g id="edge27" class="edge">
<title>Node17&#45;&gt;Node18</title>
<path fill="none" stroke="midnightblue" d="M804.73,-280.08C798.94,-272.46 790.44,-261.26 783.36,-251.94"/>
<polygon fill="midnightblue" stroke="midnightblue" points="785.98,-249.6 777.14,-243.75 780.4,-253.83 785.98,-249.6"/>
</g>
<!-- Node19 -->
<g id="node19" class="node">
<title>Node19</title>
<g id="a_node19"><a xlink:title=" ">
<polygon fill="none" stroke="#bfbfbf" points="829,-224.5 829,-243.5 876,-243.5 876,-224.5 829,-224.5"/>
<text text-anchor="middle" x="852.5" y="-231.5" font-family="Helvetica,sans-Serif" font-size="10.00">stdlib.h</text>
</a>
</g>
</g>
<!-- Node17&#45;&gt;Node19 -->
<g id="edge28" class="edge">
<title>Node17&#45;&gt;Node19</title>
<path fill="none" stroke="midnightblue" d="M818.27,-280.08C824.06,-272.46 832.56,-261.26 839.64,-251.94"/>
<polygon fill="midnightblue" stroke="midnightblue" points="842.6,-253.83 845.86,-243.75 837.02,-249.6 842.6,-253.83"/>
</g>
<!-- Node20 -->
<g id="node20" class="node">
<title>Node20</title>
<g id="a_node20"><a xlink:title=" ">
<polygon fill="none" stroke="#bfbfbf" points="894.5,-224.5 894.5,-243.5 942.5,-243.5 942.5,-224.5 894.5,-224.5"/>
<text text-anchor="middle" x="918.5" y="-231.5" font-family="Helvetica,sans-Serif" font-size="10.00">string.h</text>
</a>
</g>
</g>
<!-- Node17&#45;&gt;Node20 -->
<g id="edge29" class="edge">
<title>Node17&#45;&gt;Node20</title>
<path fill="none" stroke="midnightblue" d="M828.69,-280.32C845.85,-271.66 872.45,-258.24 892.25,-248.25"/>
<polygon fill="midnightblue" stroke="midnightblue" points="894,-251.28 901.35,-243.65 890.85,-245.04 894,-251.28"/>
</g>
<!-- Node21 -->
<g id="node21" class="node">
<title>Node21</title>
<g id="a_node21"><a xlink:title=" ">
<polygon fill="none" stroke="#bfbfbf" points="961,-224.5 961,-243.5 996,-243.5 996,-224.5 961,-224.5"/>
<text text-anchor="middle" x="978.5" y="-231.5" font-family="Helvetica,sans-Serif" font-size="10.00">new</text>
</a>
</g>
</g>
<!-- Node17&#45;&gt;Node21 -->
<g id="edge30" class="edge">
<title>Node17&#45;&gt;Node21</title>
<path fill="none" stroke="midnightblue" d="M836.56,-281.03C862.79,-272.68 905.4,-259.05 951.27,-244.05"/>
<polygon fill="midnightblue" stroke="midnightblue" points="952.38,-247.37 960.79,-240.93 950.2,-240.72 952.38,-247.37"/>
</g>
<!-- Node22&#45;&gt;Node5 -->
<g id="edge33" class="edge">
<title>Node22&#45;&gt;Node5</title>
<path fill="none" stroke="midnightblue" d="M540.83,-168.31C570.06,-153.95 624.33,-122.19 645.5,-76 655.84,-53.43 630.28,-35.17 607,-23.82"/>
<polygon fill="midnightblue" stroke="midnightblue" points="608.15,-20.5 597.6,-19.52 605.24,-26.86 608.15,-20.5"/>
</g>
<!-- Node22&#45;&gt;Node6 -->
<g id="edge36" class="edge">
<title>Node22&#45;&gt;Node6</title>
<path fill="none" stroke="midnightblue" d="M514.98,-168.47C495.65,-143.41 438.39,-70.81 412.5,-56 356.82,-24.14 281.82,-14.65 235.34,-11.93"/>
<polygon fill="midnightblue" stroke="midnightblue" points="235.47,-8.43 225.31,-11.42 235.12,-15.42 235.47,-8.43"/>
</g>
<!-- Node22&#45;&gt;Node7 -->
<g id="edge37" class="edge">
<title>Node22&#45;&gt;Node7</title>
<path fill="none" stroke="midnightblue" d="M509.45,-168.38C489.68,-154.62 448.74,-127.63 410.5,-112 372.03,-96.28 326.6,-84.93 291.13,-77.57"/>
<polygon fill="midnightblue" stroke="midnightblue" points="291.43,-74.06 280.93,-75.51 290.04,-80.92 291.43,-74.06"/>
</g>
<!-- Node22&#45;&gt;Node8 -->
<g id="edge34" class="edge">
<title>Node22&#45;&gt;Node8</title>
<path fill="none" stroke="midnightblue" d="M497.57,-168.44C472.28,-159.4 432.2,-145.06 403.82,-134.92"/>
<polygon fill="midnightblue" stroke="midnightblue" points="404.91,-131.59 394.31,-131.52 402.55,-138.18 404.91,-131.59"/>
</g>
<!-- Node22&#45;&gt;Node10 -->
<g id="edge38" class="edge">
<title>Node22&#45;&gt;Node10</title>
<path fill="none" stroke="midnightblue" d="M521.83,-168.08C522.09,-161.01 522.47,-150.86 522.8,-141.99"/>
<polygon fill="midnightblue" stroke="midnightblue" points="526.3,-141.87 523.18,-131.75 519.31,-141.61 526.3,-141.87"/>
</g>
<!-- Node22&#45;&gt;Node11 -->
<g id="edge35" class="edge">
<title>Node22&#45;&gt;Node11</title>
<path fill="none" stroke="midnightblue" d="M529.06,-168.19C536.68,-159.23 548.68,-144.86 558.5,-132 570.65,-116.08 583.78,-97.37 592.89,-84.12"/>
<polygon fill="midnightblue" stroke="midnightblue" points="595.99,-85.79 598.74,-75.55 590.21,-81.84 595.99,-85.79"/>
</g>
</g>
</svg>
