<?xml version="1.0" encoding="UTF-8" standalone="no"?>
<!DOCTYPE svg PUBLIC "-//W3C//DTD SVG 1.1//EN"
 "http://www.w3.org/Graphics/SVG/1.1/DTD/svg11.dtd">
<!-- Generated by graphviz version 2.44.0 ()
 -->
<!-- Title: src/platformabstraction/qt/qmewawindow.h Pages: 1 -->
<svg width="1076pt" height="487pt"
 viewBox="0.00 0.00 1075.65 487.00" xmlns="http://www.w3.org/2000/svg" xmlns:xlink="http://www.w3.org/1999/xlink">
<g id="graph0" class="graph" transform="scale(1 1) rotate(0) translate(4 483)">
<title>src/platformabstraction/qt/qmewawindow.h</title>
<!-- Node1 -->
<g id="node1" class="node">
<title>Node1</title>
<g id="a_node1"><a xlink:title=" ">
<polygon fill="#bfbfbf" stroke="black" points="255.15,-448.5 255.15,-478.5 371.15,-478.5 371.15,-448.5 255.15,-448.5"/>
<text text-anchor="start" x="263.15" y="-466.5" font-family="Helvetica,sans-Serif" font-size="10.00">src/platformabstraction</text>
<text text-anchor="middle" x="313.15" y="-455.5" font-family="Helvetica,sans-Serif" font-size="10.00">/qt/qmewawindow.h</text>
</a>
</g>
</g>
<!-- Node2 -->
<g id="node2" class="node">
<title>Node2</title>
<g id="a_node2"><a xlink:title=" ">
<polygon fill="none" stroke="#bfbfbf" points="189.65,-392.5 189.65,-411.5 284.65,-411.5 284.65,-392.5 189.65,-392.5"/>
<text text-anchor="middle" x="237.15" y="-399.5" font-family="Helvetica,sans-Serif" font-size="10.00">QOpenGLWindow</text>
</a>
</g>
</g>
<!-- Node1&#45;&gt;Node2 -->
<g id="edge1" class="edge">
<title>Node1&#45;&gt;Node2</title>
<path fill="none" stroke="midnightblue" d="M295.14,-448.4C283.41,-439.22 268.13,-427.26 256.2,-417.92"/>
<polygon fill="midnightblue" stroke="midnightblue" points="258.24,-415.07 248.21,-411.66 253.92,-420.58 258.24,-415.07"/>
</g>
<!-- Node3 -->
<g id="node3" class="node">
<title>Node3</title>
<g id="a_node3"><a xlink:href="mxiconatlas_8h.html" target="_top" xlink:title=" ">
<polygon fill="none" stroke="black" points="190.15,-336.5 190.15,-355.5 266.15,-355.5 266.15,-336.5 190.15,-336.5"/>
<text text-anchor="middle" x="228.15" y="-343.5" font-family="Helvetica,sans-Serif" font-size="10.00">mxiconatlas.h</text>
</a>
</g>
</g>
<!-- Node1&#45;&gt;Node3 -->
<g id="edge2" class="edge">
<title>Node1&#45;&gt;Node3</title>
<path fill="none" stroke="midnightblue" d="M311.96,-448.3C310.08,-433.13 305.28,-408.97 293.15,-392 283.7,-378.79 269.11,-368.18 256.14,-360.59"/>
<polygon fill="midnightblue" stroke="midnightblue" points="257.53,-357.36 247.08,-355.6 254.15,-363.49 257.53,-357.36"/>
</g>
<!-- Node18 -->
<g id="node18" class="node">
<title>Node18</title>
<g id="a_node18"><a xlink:href="mxapplication_8h.html" target="_top" xlink:title=" ">
<polygon fill="none" stroke="black" points="426.65,-392.5 426.65,-411.5 509.65,-411.5 509.65,-392.5 426.65,-392.5"/>
<text text-anchor="middle" x="468.15" y="-399.5" font-family="Helvetica,sans-Serif" font-size="10.00">mxapplication.h</text>
</a>
</g>
</g>
<!-- Node1&#45;&gt;Node18 -->
<g id="edge20" class="edge">
<title>Node1&#45;&gt;Node18</title>
<path fill="none" stroke="midnightblue" d="M349.88,-448.4C376.12,-438.33 411.07,-424.91 436.16,-415.28"/>
<polygon fill="midnightblue" stroke="midnightblue" points="437.51,-418.51 445.59,-411.66 435,-411.97 437.51,-418.51"/>
</g>
<!-- Node4 -->
<g id="node4" class="node">
<title>Node4</title>
<g id="a_node4"><a xlink:title=" ">
<polygon fill="none" stroke="#bfbfbf" points="56.65,-280.5 56.65,-299.5 107.65,-299.5 107.65,-280.5 56.65,-280.5"/>
<text text-anchor="middle" x="82.15" y="-287.5" font-family="Helvetica,sans-Serif" font-size="10.00">QImage</text>
</a>
</g>
</g>
<!-- Node3&#45;&gt;Node4 -->
<g id="edge3" class="edge">
<title>Node3&#45;&gt;Node4</title>
<path fill="none" stroke="midnightblue" d="M205.01,-336.44C180.66,-327.44 142.14,-313.19 114.72,-303.05"/>
<polygon fill="midnightblue" stroke="midnightblue" points="115.77,-299.7 105.17,-299.52 113.34,-306.27 115.77,-299.7"/>
</g>
<!-- Node5 -->
<g id="node5" class="node">
<title>Node5</title>
<g id="a_node5"><a xlink:href="mxabstractatlas_8h.html" target="_top" xlink:title=" ">
<polygon fill="none" stroke="black" points="125.65,-280.5 125.65,-299.5 218.65,-299.5 218.65,-280.5 125.65,-280.5"/>
<text text-anchor="middle" x="172.15" y="-287.5" font-family="Helvetica,sans-Serif" font-size="10.00">mxabstractatlas.h</text>
</a>
</g>
</g>
<!-- Node3&#45;&gt;Node5 -->
<g id="edge4" class="edge">
<title>Node3&#45;&gt;Node5</title>
<path fill="none" stroke="midnightblue" d="M219.15,-336.32C210.95,-328.42 198.64,-316.55 188.67,-306.94"/>
<polygon fill="midnightblue" stroke="midnightblue" points="190.94,-304.26 181.31,-299.83 186.08,-309.29 190.94,-304.26"/>
</g>
<!-- Node10 -->
<g id="node10" class="node">
<title>Node10</title>
<g id="a_node10"><a xlink:href="mxlist_8h.html" target="_top" xlink:title=" ">
<polygon fill="none" stroke="black" points="237.15,-280.5 237.15,-299.5 287.15,-299.5 287.15,-280.5 237.15,-280.5"/>
<text text-anchor="middle" x="262.15" y="-287.5" font-family="Helvetica,sans-Serif" font-size="10.00">mxlist.h</text>
</a>
</g>
</g>
<!-- Node3&#45;&gt;Node10 -->
<g id="edge10" class="edge">
<title>Node3&#45;&gt;Node10</title>
<path fill="none" stroke="midnightblue" d="M233.76,-336.08C238.51,-328.53 245.46,-317.49 251.3,-308.23"/>
<polygon fill="midnightblue" stroke="midnightblue" points="254.27,-310.08 256.64,-299.75 248.35,-306.35 254.27,-310.08"/>
</g>
<!-- Node15 -->
<g id="node15" class="node">
<title>Node15</title>
<g id="a_node15"><a xlink:title=" ">
<polygon fill="none" stroke="#bfbfbf" points="351.15,-280.5 351.15,-299.5 423.15,-299.5 423.15,-280.5 351.15,-280.5"/>
<text text-anchor="middle" x="387.15" y="-287.5" font-family="Helvetica,sans-Serif" font-size="10.00">mxrenderer.h</text>
</a>
</g>
</g>
<!-- Node3&#45;&gt;Node15 -->
<g id="edge16" class="edge">
<title>Node3&#45;&gt;Node15</title>
<path fill="none" stroke="midnightblue" d="M253.34,-336.44C280.09,-327.36 322.55,-312.94 352.45,-302.78"/>
<polygon fill="midnightblue" stroke="midnightblue" points="353.73,-306.05 362.07,-299.52 351.48,-299.42 353.73,-306.05"/>
</g>
<!-- Node16 -->
<g id="node16" class="node">
<title>Node16</title>
<g id="a_node16"><a xlink:href="mximage_8h.html" target="_top" xlink:title=" ">
<polygon fill="none" stroke="black" points="72.65,-168.5 72.65,-187.5 135.65,-187.5 135.65,-168.5 72.65,-168.5"/>
<text text-anchor="middle" x="104.15" y="-175.5" font-family="Helvetica,sans-Serif" font-size="10.00">mximage.h</text>
</a>
</g>
</g>
<!-- Node3&#45;&gt;Node16 -->
<g id="edge17" class="edge">
<title>Node3&#45;&gt;Node16</title>
<path fill="none" stroke="midnightblue" d="M189.95,-342.71C151.22,-338.82 90.92,-328.32 47.15,-300 20.57,-282.81 13.49,-273.91 3.15,-244 0.24,-235.6 -1.69,-231.46 3.15,-224 16.23,-203.85 40.67,-192.64 62.23,-186.45"/>
<polygon fill="midnightblue" stroke="midnightblue" points="63.39,-189.77 72.2,-183.88 61.64,-182.99 63.39,-189.77"/>
</g>
<!-- Node17 -->
<g id="node17" class="node">
<title>Node17</title>
<g id="a_node17"><a xlink:href="mxthemeicons_8h.html" target="_top" xlink:title=" ">
<polygon fill="none" stroke="black" points="434.65,-224.5 434.65,-243.5 521.65,-243.5 521.65,-224.5 434.65,-224.5"/>
<text text-anchor="middle" x="478.15" y="-231.5" font-family="Helvetica,sans-Serif" font-size="10.00">mxthemeicons.h</text>
</a>
</g>
</g>
<!-- Node3&#45;&gt;Node17 -->
<g id="edge19" class="edge">
<title>Node3&#45;&gt;Node17</title>
<path fill="none" stroke="midnightblue" d="M241.38,-336.29C262.17,-322.89 304.06,-296.96 342.15,-280 373,-266.26 409.4,-254.43 436.77,-246.36"/>
<polygon fill="midnightblue" stroke="midnightblue" points="437.79,-249.7 446.42,-243.55 435.84,-242.98 437.79,-249.7"/>
</g>
<!-- Node6 -->
<g id="node6" class="node">
<title>Node6</title>
<g id="a_node6"><a xlink:href="mxrect_8h.html" target="_top" xlink:title=" ">
<polygon fill="none" stroke="black" points="511.65,-168.5 511.65,-187.5 564.65,-187.5 564.65,-168.5 511.65,-168.5"/>
<text text-anchor="middle" x="538.15" y="-175.5" font-family="Helvetica,sans-Serif" font-size="10.00">mxrect.h</text>
</a>
</g>
</g>
<!-- Node5&#45;&gt;Node6 -->
<g id="edge5" class="edge">
<title>Node5&#45;&gt;Node6</title>
<path fill="none" stroke="midnightblue" d="M131.97,-280.41C86.75,-270.35 18.58,-253.8 11.15,-244 5.77,-236.92 5.13,-230.55 11.15,-224 44.2,-188 386.71,-180.76 501.15,-179.34"/>
<polygon fill="midnightblue" stroke="midnightblue" points="501.53,-182.83 511.49,-179.22 501.45,-175.83 501.53,-182.83"/>
</g>
<!-- Node7 -->
<g id="node7" class="node">
<title>Node7</title>
<g id="a_node7"><a xlink:title=" ">
<polygon fill="none" stroke="#bfbfbf" points="581.65,-0.5 581.65,-19.5 644.65,-19.5 644.65,-0.5 581.65,-0.5"/>
<text text-anchor="middle" x="613.15" y="-7.5" font-family="Helvetica,sans-Serif" font-size="10.00">mxdebug.h</text>
</a>
</g>
</g>
<!-- Node6&#45;&gt;Node7 -->
<g id="edge6" class="edge">
<title>Node6&#45;&gt;Node7</title>
<path fill="none" stroke="midnightblue" d="M546.92,-168.44C555.23,-159.9 567.54,-146.05 575.15,-132 593.43,-98.23 604.44,-54.32 609.6,-29.76"/>
<polygon fill="midnightblue" stroke="midnightblue" points="613.09,-30.15 611.61,-19.66 606.22,-28.78 613.09,-30.15"/>
</g>
<!-- Node8 -->
<g id="node8" class="node">
<title>Node8</title>
<g id="a_node8"><a xlink:href="mxvector_8h.html" target="_top" xlink:title=" ">
<polygon fill="none" stroke="black" points="428.15,-112.5 428.15,-131.5 492.15,-131.5 492.15,-112.5 428.15,-112.5"/>
<text text-anchor="middle" x="460.15" y="-119.5" font-family="Helvetica,sans-Serif" font-size="10.00">mxvector.h</text>
</a>
</g>
</g>
<!-- Node6&#45;&gt;Node8 -->
<g id="edge7" class="edge">
<title>Node6&#45;&gt;Node8</title>
<path fill="none" stroke="midnightblue" d="M525.61,-168.32C513.56,-159.98 495.12,-147.21 480.88,-137.35"/>
<polygon fill="midnightblue" stroke="midnightblue" points="482.86,-134.47 472.65,-131.65 478.88,-140.22 482.86,-134.47"/>
</g>
<!-- Node9 -->
<g id="node9" class="node">
<title>Node9</title>
<g id="a_node9"><a xlink:title=" ">
<polygon fill="none" stroke="#bfbfbf" points="510.15,-112.5 510.15,-131.5 566.15,-131.5 566.15,-112.5 510.15,-112.5"/>
<text text-anchor="middle" x="538.15" y="-119.5" font-family="Helvetica,sans-Serif" font-size="10.00">algorithm</text>
</a>
</g>
</g>
<!-- Node6&#45;&gt;Node9 -->
<g id="edge9" class="edge">
<title>Node6&#45;&gt;Node9</title>
<path fill="none" stroke="midnightblue" d="M538.15,-168.08C538.15,-161.01 538.15,-150.86 538.15,-141.99"/>
<polygon fill="midnightblue" stroke="midnightblue" points="541.65,-141.75 538.15,-131.75 534.65,-141.75 541.65,-141.75"/>
</g>
<!-- Node8&#45;&gt;Node7 -->
<g id="edge8" class="edge">
<title>Node8&#45;&gt;Node7</title>
<path fill="none" stroke="midnightblue" d="M472.15,-112.37C498.3,-93.57 560.61,-48.77 592.93,-25.53"/>
<polygon fill="midnightblue" stroke="midnightblue" points="595.12,-28.27 601.2,-19.59 591.03,-22.59 595.12,-28.27"/>
</g>
<!-- Node10&#45;&gt;Node7 -->
<g id="edge11" class="edge">
<title>Node10&#45;&gt;Node7</title>
<path fill="none" stroke="midnightblue" d="M269.6,-280.26C283.98,-262.45 314.15,-220.19 314.15,-179 314.15,-179 314.15,-179 314.15,-121 314.15,-66.83 489.19,-31.16 571.41,-17.39"/>
<polygon fill="midnightblue" stroke="midnightblue" points="572.13,-20.82 581.43,-15.74 571,-13.91 572.13,-20.82"/>
</g>
<!-- Node11 -->
<g id="node11" class="node">
<title>Node11</title>
<g id="a_node11"><a xlink:href="mxrefcounter_8h.html" target="_top" xlink:title=" ">
<polygon fill="none" stroke="black" points="140.15,-224.5 140.15,-243.5 220.15,-243.5 220.15,-224.5 140.15,-224.5"/>
<text text-anchor="middle" x="180.15" y="-231.5" font-family="Helvetica,sans-Serif" font-size="10.00">mxrefcounter.h</text>
</a>
</g>
</g>
<!-- Node10&#45;&gt;Node11 -->
<g id="edge12" class="edge">
<title>Node10&#45;&gt;Node11</title>
<path fill="none" stroke="midnightblue" d="M248.97,-280.32C236.3,-271.98 216.91,-259.21 201.94,-249.35"/>
<polygon fill="midnightblue" stroke="midnightblue" points="203.57,-246.23 193.29,-243.65 199.72,-252.08 203.57,-246.23"/>
</g>
<!-- Node12 -->
<g id="node12" class="node">
<title>Node12</title>
<g id="a_node12"><a xlink:title=" ">
<polygon fill="none" stroke="#bfbfbf" points="238.65,-224.5 238.65,-243.5 285.65,-243.5 285.65,-224.5 238.65,-224.5"/>
<text text-anchor="middle" x="262.15" y="-231.5" font-family="Helvetica,sans-Serif" font-size="10.00">stdlib.h</text>
</a>
</g>
</g>
<!-- Node10&#45;&gt;Node12 -->
<g id="edge13" class="edge">
<title>Node10&#45;&gt;Node12</title>
<path fill="none" stroke="midnightblue" d="M262.15,-280.08C262.15,-273.01 262.15,-262.86 262.15,-253.99"/>
<polygon fill="midnightblue" stroke="midnightblue" points="265.65,-253.75 262.15,-243.75 258.65,-253.75 265.65,-253.75"/>
</g>
<!-- Node13 -->
<g id="node13" class="node">
<title>Node13</title>
<g id="a_node13"><a xlink:title=" ">
<polygon fill="none" stroke="#bfbfbf" points="20.15,-224.5 20.15,-243.5 68.15,-243.5 68.15,-224.5 20.15,-224.5"/>
<text text-anchor="middle" x="44.15" y="-231.5" font-family="Helvetica,sans-Serif" font-size="10.00">string.h</text>
</a>
</g>
</g>
<!-- Node10&#45;&gt;Node13 -->
<g id="edge14" class="edge">
<title>Node10&#45;&gt;Node13</title>
<path fill="none" stroke="midnightblue" d="M236.92,-282.46C233.64,-281.63 230.31,-280.79 227.15,-280 163.6,-264.21 145.19,-261.27 78.08,-244.18"/>
<polygon fill="midnightblue" stroke="midnightblue" points="78.83,-240.76 68.27,-241.67 77.09,-247.54 78.83,-240.76"/>
</g>
<!-- Node14 -->
<g id="node14" class="node">
<title>Node14</title>
<g id="a_node14"><a xlink:title=" ">
<polygon fill="none" stroke="#bfbfbf" points="86.65,-224.5 86.65,-243.5 121.65,-243.5 121.65,-224.5 86.65,-224.5"/>
<text text-anchor="middle" x="104.15" y="-231.5" font-family="Helvetica,sans-Serif" font-size="10.00">new</text>
</a>
</g>
</g>
<!-- Node10&#45;&gt;Node14 -->
<g id="edge15" class="edge">
<title>Node10&#45;&gt;Node14</title>
<path fill="none" stroke="midnightblue" d="M237.11,-280.44C208.31,-270.6 161.18,-254.49 131.46,-244.33"/>
<polygon fill="midnightblue" stroke="midnightblue" points="132.32,-240.93 121.73,-241.01 130.06,-247.55 132.32,-240.93"/>
</g>
<!-- Node16&#45;&gt;Node8 -->
<g id="edge18" class="edge">
<title>Node16&#45;&gt;Node8</title>
<path fill="none" stroke="midnightblue" d="M135.74,-172.21C199.97,-162.47 345.8,-140.35 418.01,-129.39"/>
<polygon fill="midnightblue" stroke="midnightblue" points="418.75,-132.82 428.11,-127.86 417.7,-125.9 418.75,-132.82"/>
</g>
<!-- Node18&#45;&gt;Node7 -->
<g id="edge21" class="edge">
<title>Node18&#45;&gt;Node7</title>
<path fill="none" stroke="midnightblue" d="M509.98,-399.63C621.45,-394.87 917.15,-374.37 917.15,-291 917.15,-291 917.15,-291 917.15,-121 917.15,-65.84 737.94,-30.54 654.71,-17.12"/>
<polygon fill="midnightblue" stroke="midnightblue" points="655.24,-13.66 644.82,-15.55 654.15,-20.57 655.24,-13.66"/>
</g>
<!-- Node18&#45;&gt;Node15 -->
<g id="edge24" class="edge">
<title>Node18&#45;&gt;Node15</title>
<path fill="none" stroke="midnightblue" d="M452.24,-392.47C438.98,-384.62 420.49,-371.8 409.15,-356 399.17,-342.1 393.46,-323.34 390.37,-309.55"/>
<polygon fill="midnightblue" stroke="midnightblue" points="393.81,-308.87 388.43,-299.74 386.94,-310.23 393.81,-308.87"/>
</g>
<!-- Node19 -->
<g id="node19" class="node">
<title>Node19</title>
<g id="a_node19"><a xlink:href="mxwidgetlist_8h.html" target="_top" xlink:title=" ">
<polygon fill="none" stroke="black" points="284.15,-336.5 284.15,-355.5 362.15,-355.5 362.15,-336.5 284.15,-336.5"/>
<text text-anchor="middle" x="323.15" y="-343.5" font-family="Helvetica,sans-Serif" font-size="10.00">mxwidgetlist.h</text>
</a>
</g>
</g>
<!-- Node18&#45;&gt;Node19 -->
<g id="edge22" class="edge">
<title>Node18&#45;&gt;Node19</title>
<path fill="none" stroke="midnightblue" d="M445.17,-392.44C420.99,-383.44 382.73,-369.19 355.5,-359.05"/>
<polygon fill="midnightblue" stroke="midnightblue" points="356.61,-355.73 346.01,-355.52 354.16,-362.29 356.61,-355.73"/>
</g>
<!-- Node20 -->
<g id="node20" class="node">
<title>Node20</title>
<g id="a_node20"><a xlink:href="mxmouseevent_8h.html" target="_top" xlink:title=" ">
<polygon fill="none" stroke="black" points="678.15,-336.5 678.15,-355.5 768.15,-355.5 768.15,-336.5 678.15,-336.5"/>
<text text-anchor="middle" x="723.15" y="-343.5" font-family="Helvetica,sans-Serif" font-size="10.00">mxmouseevent.h</text>
</a>
</g>
</g>
<!-- Node18&#45;&gt;Node20 -->
<g id="edge25" class="edge">
<title>Node18&#45;&gt;Node20</title>
<path fill="none" stroke="midnightblue" d="M508.55,-392.44C553.13,-383 624.91,-367.8 673.04,-357.61"/>
<polygon fill="midnightblue" stroke="midnightblue" points="673.87,-361.01 682.93,-355.52 672.42,-354.16 673.87,-361.01"/>
</g>
<!-- Node22 -->
<g id="node22" class="node">
<title>Node22</title>
<g id="a_node22"><a xlink:href="mxpainter_8h.html" target="_top" xlink:title=" ">
<polygon fill="none" stroke="black" points="536.15,-336.5 536.15,-355.5 602.15,-355.5 602.15,-336.5 536.15,-336.5"/>
<text text-anchor="middle" x="569.15" y="-343.5" font-family="Helvetica,sans-Serif" font-size="10.00">mxpainter.h</text>
</a>
</g>
</g>
<!-- Node18&#45;&gt;Node22 -->
<g id="edge28" class="edge">
<title>Node18&#45;&gt;Node22</title>
<path fill="none" stroke="midnightblue" d="M484.37,-392.32C500.5,-383.7 525.45,-370.36 544.11,-360.39"/>
<polygon fill="midnightblue" stroke="midnightblue" points="545.79,-363.46 552.96,-355.65 542.49,-357.28 545.79,-363.46"/>
</g>
<!-- Node31 -->
<g id="node31" class="node">
<title>Node31</title>
<g id="a_node31"><a xlink:href="mxguiaggregation_8h.html" target="_top" xlink:title=" ">
<polygon fill="none" stroke="black" points="418.15,-336.5 418.15,-355.5 518.15,-355.5 518.15,-336.5 418.15,-336.5"/>
<text text-anchor="middle" x="468.15" y="-343.5" font-family="Helvetica,sans-Serif" font-size="10.00">mxguiaggregation.h</text>
</a>
</g>
</g>
<!-- Node18&#45;&gt;Node31 -->
<g id="edge47" class="edge">
<title>Node18&#45;&gt;Node31</title>
<path fill="none" stroke="midnightblue" d="M468.15,-392.08C468.15,-385.01 468.15,-374.86 468.15,-365.99"/>
<polygon fill="midnightblue" stroke="midnightblue" points="471.65,-365.75 468.15,-355.75 464.65,-365.75 471.65,-365.75"/>
</g>
<!-- Node19&#45;&gt;Node10 -->
<g id="edge23" class="edge">
<title>Node19&#45;&gt;Node10</title>
<path fill="none" stroke="midnightblue" d="M313.35,-336.32C304.33,-328.34 290.74,-316.31 279.83,-306.65"/>
<polygon fill="midnightblue" stroke="midnightblue" points="281.93,-303.84 272.13,-299.83 277.29,-309.08 281.93,-303.84"/>
</g>
<!-- Node20&#45;&gt;Node8 -->
<g id="edge26" class="edge">
<title>Node20&#45;&gt;Node8</title>
<path fill="none" stroke="midnightblue" d="M724.63,-336.2C727.03,-323.32 732.51,-298.84 742.15,-280 751.38,-261.95 762.72,-262.86 770.15,-244 782.55,-212.5 797.47,-193.45 775.15,-168 736.47,-123.91 576.91,-140.86 502.27,-131.8"/>
<polygon fill="midnightblue" stroke="midnightblue" points="502.73,-128.33 492.32,-130.34 501.71,-135.25 502.73,-128.33"/>
</g>
<!-- Node21 -->
<g id="node21" class="node">
<title>Node21</title>
<g id="a_node21"><a xlink:title=" ">
<polygon fill="none" stroke="#bfbfbf" points="751.15,-280.5 751.15,-299.5 889.15,-299.5 889.15,-280.5 751.15,-280.5"/>
<text text-anchor="middle" x="820.15" y="-287.5" font-family="Helvetica,sans-Serif" font-size="10.00">mxmouseeventabstraction.h</text>
</a>
</g>
</g>
<!-- Node20&#45;&gt;Node21 -->
<g id="edge27" class="edge">
<title>Node20&#45;&gt;Node21</title>
<path fill="none" stroke="midnightblue" d="M738.73,-336.32C754.15,-327.74 777.96,-314.49 795.86,-304.52"/>
<polygon fill="midnightblue" stroke="midnightblue" points="797.57,-307.58 804.6,-299.65 794.16,-301.46 797.57,-307.58"/>
</g>
<!-- Node22&#45;&gt;Node7 -->
<g id="edge29" class="edge">
<title>Node22&#45;&gt;Node7</title>
<path fill="none" stroke="midnightblue" d="M581.55,-336.5C592.38,-328.39 607.67,-315.19 616.15,-300 628.55,-277.77 625.46,-269.31 628.15,-244 636.54,-164.75 623.2,-69.81 616.55,-30.02"/>
<polygon fill="midnightblue" stroke="midnightblue" points="619.96,-29.17 614.81,-19.91 613.06,-30.36 619.96,-29.17"/>
</g>
<!-- Node22&#45;&gt;Node10 -->
<g id="edge46" class="edge">
<title>Node22&#45;&gt;Node10</title>
<path fill="none" stroke="midnightblue" d="M535.7,-337.7C532.81,-337.11 529.93,-336.53 527.15,-336 445.21,-320.27 348.47,-304.56 297.57,-296.52"/>
<polygon fill="midnightblue" stroke="midnightblue" points="297.85,-293.02 287.42,-294.92 296.76,-299.94 297.85,-293.02"/>
</g>
<!-- Node23 -->
<g id="node23" class="node">
<title>Node23</title>
<g id="a_node23"><a xlink:href="mxvectordraw_8h.html" target="_top" xlink:title=" ">
<polygon fill="none" stroke="black" points="675.65,-224.5 675.65,-243.5 760.65,-243.5 760.65,-224.5 675.65,-224.5"/>
<text text-anchor="middle" x="718.15" y="-231.5" font-family="Helvetica,sans-Serif" font-size="10.00">mxvectordraw.h</text>
</a>
</g>
</g>
<!-- Node22&#45;&gt;Node23 -->
<g id="edge30" class="edge">
<title>Node22&#45;&gt;Node23</title>
<path fill="none" stroke="midnightblue" d="M592.9,-336.42C612.39,-328.7 640.1,-316.09 661.15,-300 679.14,-286.24 695.73,-266.11 706.32,-251.9"/>
<polygon fill="midnightblue" stroke="midnightblue" points="709.33,-253.7 712.36,-243.55 703.66,-249.6 709.33,-253.7"/>
</g>
<!-- Node28 -->
<g id="node28" class="node">
<title>Node28</title>
<g id="a_node28"><a xlink:href="mxicondraw_8h.html" target="_top" xlink:title=" ">
<polygon fill="none" stroke="black" points="531.15,-280.5 531.15,-299.5 607.15,-299.5 607.15,-280.5 531.15,-280.5"/>
<text text-anchor="middle" x="569.15" y="-287.5" font-family="Helvetica,sans-Serif" font-size="10.00">mxicondraw.h</text>
</a>
</g>
</g>
<!-- Node22&#45;&gt;Node28 -->
<g id="edge38" class="edge">
<title>Node22&#45;&gt;Node28</title>
<path fill="none" stroke="midnightblue" d="M569.15,-336.08C569.15,-329.01 569.15,-318.86 569.15,-309.99"/>
<polygon fill="midnightblue" stroke="midnightblue" points="572.65,-309.75 569.15,-299.75 565.65,-309.75 572.65,-309.75"/>
</g>
<!-- Node30 -->
<g id="node30" class="node">
<title>Node30</title>
<g id="a_node30"><a xlink:href="mxtextdraw_8h.html" target="_top" xlink:title=" ">
<polygon fill="none" stroke="black" points="342.15,-224.5 342.15,-243.5 416.15,-243.5 416.15,-224.5 342.15,-224.5"/>
<text text-anchor="middle" x="379.15" y="-231.5" font-family="Helvetica,sans-Serif" font-size="10.00">mxtextdraw.h</text>
</a>
</g>
</g>
<!-- Node22&#45;&gt;Node30 -->
<g id="edge43" class="edge">
<title>Node22&#45;&gt;Node30</title>
<path fill="none" stroke="midnightblue" d="M554.24,-336.37C521.36,-317.33 442.39,-271.62 402.72,-248.65"/>
<polygon fill="midnightblue" stroke="midnightblue" points="404.39,-245.57 393.99,-243.59 400.89,-251.63 404.39,-245.57"/>
</g>
<!-- Node23&#45;&gt;Node6 -->
<g id="edge37" class="edge">
<title>Node23&#45;&gt;Node6</title>
<path fill="none" stroke="midnightblue" d="M689.62,-224.44C658.54,-215.12 608.72,-200.17 574.76,-189.99"/>
<polygon fill="midnightblue" stroke="midnightblue" points="575.36,-186.51 564.77,-186.99 573.35,-193.21 575.36,-186.51"/>
</g>
<!-- Node24 -->
<g id="node24" class="node">
<title>Node24</title>
<g id="a_node24"><a xlink:href="mxcachedgpuarray_8h.html" target="_top" xlink:title=" ">
<polygon fill="none" stroke="black" points="660.65,-168.5 660.65,-187.5 765.65,-187.5 765.65,-168.5 660.65,-168.5"/>
<text text-anchor="middle" x="713.15" y="-175.5" font-family="Helvetica,sans-Serif" font-size="10.00">mxcachedgpuarray.h</text>
</a>
</g>
</g>
<!-- Node23&#45;&gt;Node24 -->
<g id="edge31" class="edge">
<title>Node23&#45;&gt;Node24</title>
<path fill="none" stroke="midnightblue" d="M717.32,-224.08C716.67,-217.01 715.73,-206.86 714.9,-197.99"/>
<polygon fill="midnightblue" stroke="midnightblue" points="718.36,-197.39 713.96,-187.75 711.39,-198.03 718.36,-197.39"/>
</g>
<!-- Node25 -->
<g id="node25" class="node">
<title>Node25</title>
<g id="a_node25"><a xlink:href="opengl_2mxgpuarray_8h.html" target="_top" xlink:title=" ">
<polygon fill="none" stroke="black" points="959.15,-112.5 959.15,-131.5 1033.15,-131.5 1033.15,-112.5 959.15,-112.5"/>
<text text-anchor="middle" x="996.15" y="-119.5" font-family="Helvetica,sans-Serif" font-size="10.00">mxgpuarray.h</text>
</a>
</g>
</g>
<!-- Node24&#45;&gt;Node25 -->
<g id="edge32" class="edge">
<title>Node24&#45;&gt;Node25</title>
<path fill="none" stroke="midnightblue" d="M757.99,-168.44C810.11,-158.5 895.76,-142.15 948.89,-132.02"/>
<polygon fill="midnightblue" stroke="midnightblue" points="949.58,-135.45 958.74,-130.14 948.27,-128.57 949.58,-135.45"/>
</g>
<!-- Node26 -->
<g id="node26" class="node">
<title>Node26</title>
<g id="a_node26"><a xlink:href="mxopengl_8h.html" target="_top" xlink:title=" ">
<polygon fill="none" stroke="black" points="1002.65,-0.5 1002.65,-19.5 1067.65,-19.5 1067.65,-0.5 1002.65,-0.5"/>
<text text-anchor="middle" x="1035.15" y="-7.5" font-family="Helvetica,sans-Serif" font-size="10.00">mxopengl.h</text>
</a>
</g>
</g>
<!-- Node25&#45;&gt;Node26 -->
<g id="edge33" class="edge">
<title>Node25&#45;&gt;Node26</title>
<path fill="none" stroke="midnightblue" d="M1015.44,-112.48C1029.58,-105.08 1047.7,-92.89 1056.15,-76 1063.9,-60.49 1055.94,-41.48 1047.69,-28.04"/>
<polygon fill="midnightblue" stroke="midnightblue" points="1050.6,-26.09 1042.12,-19.74 1044.79,-29.99 1050.6,-26.09"/>
</g>
<!-- Node27 -->
<g id="node27" class="node">
<title>Node27</title>
<g id="a_node27"><a xlink:href="mxshaderprogram_8h.html" target="_top" xlink:title=" ">
<polygon fill="none" stroke="black" points="945.65,-56.5 945.65,-75.5 1046.65,-75.5 1046.65,-56.5 945.65,-56.5"/>
<text text-anchor="middle" x="996.15" y="-63.5" font-family="Helvetica,sans-Serif" font-size="10.00">mxshaderprogram.h</text>
</a>
</g>
</g>
<!-- Node25&#45;&gt;Node27 -->
<g id="edge34" class="edge">
<title>Node25&#45;&gt;Node27</title>
<path fill="none" stroke="midnightblue" d="M996.15,-112.08C996.15,-105.01 996.15,-94.86 996.15,-85.99"/>
<polygon fill="midnightblue" stroke="midnightblue" points="999.65,-85.75 996.15,-75.75 992.65,-85.75 999.65,-85.75"/>
</g>
<!-- Node27&#45;&gt;Node7 -->
<g id="edge35" class="edge">
<title>Node27&#45;&gt;Node7</title>
<path fill="none" stroke="midnightblue" d="M945.29,-57.83C868.84,-47.05 725.73,-26.87 654.97,-16.9"/>
<polygon fill="midnightblue" stroke="midnightblue" points="655.05,-13.37 644.66,-15.44 654.07,-20.31 655.05,-13.37"/>
</g>
<!-- Node27&#45;&gt;Node26 -->
<g id="edge36" class="edge">
<title>Node27&#45;&gt;Node26</title>
<path fill="none" stroke="midnightblue" d="M1002.59,-56.08C1008.1,-48.46 1016.18,-37.26 1022.91,-27.94"/>
<polygon fill="midnightblue" stroke="midnightblue" points="1025.81,-29.91 1028.83,-19.75 1020.13,-25.81 1025.81,-29.91"/>
</g>
<!-- Node28&#45;&gt;Node17 -->
<g id="edge42" class="edge">
<title>Node28&#45;&gt;Node17</title>
<path fill="none" stroke="midnightblue" d="M554.53,-280.32C540.2,-271.82 518.13,-258.73 501.4,-248.8"/>
<polygon fill="midnightblue" stroke="midnightblue" points="503.12,-245.75 492.73,-243.65 499.54,-251.77 503.12,-245.75"/>
</g>
<!-- Node29 -->
<g id="node29" class="node">
<title>Node29</title>
<g id="a_node29"><a xlink:href="mxquaddraw_8h.html" target="_top" xlink:title=" ">
<polygon fill="none" stroke="black" points="539.65,-224.5 539.65,-243.5 618.65,-243.5 618.65,-224.5 539.65,-224.5"/>
<text text-anchor="middle" x="579.15" y="-231.5" font-family="Helvetica,sans-Serif" font-size="10.00">mxquaddraw.h</text>
</a>
</g>
</g>
<!-- Node28&#45;&gt;Node29 -->
<g id="edge39" class="edge">
<title>Node28&#45;&gt;Node29</title>
<path fill="none" stroke="midnightblue" d="M570.8,-280.08C572.12,-272.93 574.03,-262.64 575.69,-253.69"/>
<polygon fill="midnightblue" stroke="midnightblue" points="579.15,-254.22 577.53,-243.75 572.26,-252.95 579.15,-254.22"/>
</g>
<!-- Node29&#45;&gt;Node6 -->
<g id="edge41" class="edge">
<title>Node29&#45;&gt;Node6</title>
<path fill="none" stroke="midnightblue" d="M572.38,-224.08C566.58,-216.46 558.09,-205.26 551.01,-195.94"/>
<polygon fill="midnightblue" stroke="midnightblue" points="553.63,-193.6 544.79,-187.75 548.05,-197.83 553.63,-193.6"/>
</g>
<!-- Node29&#45;&gt;Node24 -->
<g id="edge40" class="edge">
<title>Node29&#45;&gt;Node24</title>
<path fill="none" stroke="midnightblue" d="M600.38,-224.44C622.53,-215.52 657.47,-201.44 682.58,-191.32"/>
<polygon fill="midnightblue" stroke="midnightblue" points="684.05,-194.5 692.01,-187.52 681.43,-188.01 684.05,-194.5"/>
</g>
<!-- Node30&#45;&gt;Node6 -->
<g id="edge45" class="edge">
<title>Node30&#45;&gt;Node6</title>
<path fill="none" stroke="midnightblue" d="M404.34,-224.44C431.09,-215.36 473.55,-200.94 503.45,-190.78"/>
<polygon fill="midnightblue" stroke="midnightblue" points="504.73,-194.05 513.07,-187.52 502.48,-187.42 504.73,-194.05"/>
</g>
<!-- Node30&#45;&gt;Node8 -->
<g id="edge44" class="edge">
<title>Node30&#45;&gt;Node8</title>
<path fill="none" stroke="midnightblue" d="M385.5,-224.37C398.93,-206.14 430.38,-163.43 447.87,-139.68"/>
<polygon fill="midnightblue" stroke="midnightblue" points="450.71,-141.72 453.82,-131.59 445.07,-137.57 450.71,-141.72"/>
</g>
</g>
</svg>
