<?xml version="1.0" encoding="UTF-8" standalone="no"?>
<!DOCTYPE svg PUBLIC "-//W3C//DTD SVG 1.1//EN"
 "http://www.w3.org/Graphics/SVG/1.1/DTD/svg11.dtd">
<!-- Generated by graphviz version 2.44.0 ()
 -->
<!-- Title: src/platform/qt/qmewawindow.cpp Pages: 1 -->
<svg width="1657pt" height="532pt"
 viewBox="0.00 0.00 1656.53 532.00" xmlns="http://www.w3.org/2000/svg" xmlns:xlink="http://www.w3.org/1999/xlink">
<g id="graph0" class="graph" transform="scale(1 1) rotate(0) translate(4 528)">
<title>src/platform/qt/qmewawindow.cpp</title>
<!-- Node1 -->
<g id="node1" class="node">
<title>Node1</title>
<g id="a_node1"><a xlink:title=" ">
<polygon fill="#bfbfbf" stroke="black" points="727.03,-504.5 727.03,-523.5 892.03,-523.5 892.03,-504.5 727.03,-504.5"/>
<text text-anchor="middle" x="809.53" y="-511.5" font-family="Helvetica,sans-Serif" font-size="10.00">src/platform/qt/qmewawindow.cpp</text>
</a>
</g>
</g>
<!-- Node2 -->
<g id="node2" class="node">
<title>Node2</title>
<g id="a_node2"><a xlink:title=" ">
<polygon fill="none" stroke="#bfbfbf" points="572.53,-448.5 572.53,-467.5 650.53,-467.5 650.53,-448.5 572.53,-448.5"/>
<text text-anchor="middle" x="611.53" y="-455.5" font-family="Helvetica,sans-Serif" font-size="10.00">QMouseEvent</text>
</a>
</g>
</g>
<!-- Node1&#45;&gt;Node2 -->
<g id="edge1" class="edge">
<title>Node1&#45;&gt;Node2</title>
<path fill="none" stroke="midnightblue" d="M778.16,-504.44C744.27,-495.2 690.13,-480.44 652.81,-470.26"/>
<polygon fill="midnightblue" stroke="midnightblue" points="653.33,-466.77 642.76,-467.52 651.48,-473.52 653.33,-466.77"/>
</g>
<!-- Node3 -->
<g id="node3" class="node">
<title>Node3</title>
<g id="a_node3"><a xlink:title=" ">
<polygon fill="none" stroke="#bfbfbf" points="668.53,-448.5 668.53,-467.5 746.53,-467.5 746.53,-448.5 668.53,-448.5"/>
<text text-anchor="middle" x="707.53" y="-455.5" font-family="Helvetica,sans-Serif" font-size="10.00">QResizeEvent</text>
</a>
</g>
</g>
<!-- Node1&#45;&gt;Node3 -->
<g id="edge2" class="edge">
<title>Node1&#45;&gt;Node3</title>
<path fill="none" stroke="midnightblue" d="M793.14,-504.32C776.86,-495.7 751.66,-482.36 732.81,-472.39"/>
<polygon fill="midnightblue" stroke="midnightblue" points="734.35,-469.24 723.88,-467.65 731.08,-475.43 734.35,-469.24"/>
</g>
<!-- Node4 -->
<g id="node4" class="node">
<title>Node4</title>
<g id="a_node4"><a xlink:href="qmewawindow_8h.html" target="_top" xlink:title=" ">
<polygon fill="none" stroke="black" points="765.03,-448.5 765.03,-467.5 854.03,-467.5 854.03,-448.5 765.03,-448.5"/>
<text text-anchor="middle" x="809.53" y="-455.5" font-family="Helvetica,sans-Serif" font-size="10.00">qmewawindow.h</text>
</a>
</g>
</g>
<!-- Node1&#45;&gt;Node4 -->
<g id="edge3" class="edge">
<title>Node1&#45;&gt;Node4</title>
<path fill="none" stroke="midnightblue" d="M809.53,-504.08C809.53,-497.01 809.53,-486.86 809.53,-477.99"/>
<polygon fill="midnightblue" stroke="midnightblue" points="813.03,-477.75 809.53,-467.75 806.03,-477.75 813.03,-477.75"/>
</g>
<!-- Node27 -->
<g id="node27" class="node">
<title>Node27</title>
<g id="a_node27"><a xlink:href="mxapplication_8h.html" target="_top" xlink:title=" ">
<polygon fill="none" stroke="black" points="841.03,-392.5 841.03,-411.5 924.03,-411.5 924.03,-392.5 841.03,-392.5"/>
<text text-anchor="middle" x="882.53" y="-399.5" font-family="Helvetica,sans-Serif" font-size="10.00">mxapplication.h</text>
</a>
</g>
</g>
<!-- Node1&#45;&gt;Node27 -->
<g id="edge82" class="edge">
<title>Node1&#45;&gt;Node27</title>
<path fill="none" stroke="midnightblue" d="M823.99,-504.44C836.23,-496.47 853.36,-483.51 863.53,-468 872.69,-454.02 877.54,-435.52 880.04,-421.83"/>
<polygon fill="midnightblue" stroke="midnightblue" points="883.54,-422.09 881.63,-411.67 876.62,-421.01 883.54,-422.09"/>
</g>
<!-- Node45 -->
<g id="node45" class="node">
<title>Node45</title>
<g id="a_node45"><a xlink:href="mxwidget_8h.html" target="_top" xlink:title=" ">
<polygon fill="none" stroke="black" points="1201.03,-280.5 1201.03,-299.5 1266.03,-299.5 1266.03,-280.5 1201.03,-280.5"/>
<text text-anchor="middle" x="1233.53" y="-287.5" font-family="Helvetica,sans-Serif" font-size="10.00">mxwidget.h</text>
</a>
</g>
</g>
<!-- Node1&#45;&gt;Node45 -->
<g id="edge83" class="edge">
<title>Node1&#45;&gt;Node45</title>
<path fill="none" stroke="midnightblue" d="M825.89,-504.43C890.55,-470.58 1128.56,-345.96 1207.73,-304.51"/>
<polygon fill="midnightblue" stroke="midnightblue" points="1209.75,-307.4 1216.99,-299.66 1206.51,-301.2 1209.75,-307.4"/>
</g>
<!-- Node5 -->
<g id="node5" class="node">
<title>Node5</title>
<g id="a_node5"><a xlink:title=" ">
<polygon fill="none" stroke="#bfbfbf" points="627.03,-392.5 627.03,-411.5 686.03,-411.5 686.03,-392.5 627.03,-392.5"/>
<text text-anchor="middle" x="656.53" y="-399.5" font-family="Helvetica,sans-Serif" font-size="10.00">QWindow</text>
</a>
</g>
</g>
<!-- Node4&#45;&gt;Node5 -->
<g id="edge4" class="edge">
<title>Node4&#45;&gt;Node5</title>
<path fill="none" stroke="midnightblue" d="M785.29,-448.44C759.66,-439.4 719.04,-425.06 690.29,-414.92"/>
<polygon fill="midnightblue" stroke="midnightblue" points="691.25,-411.54 680.66,-411.52 688.92,-418.15 691.25,-411.54"/>
</g>
<!-- Node6 -->
<g id="node6" class="node">
<title>Node6</title>
<g id="a_node6"><a xlink:href="mxiconatlas_8h.html" target="_top" xlink:title=" ">
<polygon fill="none" stroke="black" points="485.53,-280.5 485.53,-299.5 561.53,-299.5 561.53,-280.5 485.53,-280.5"/>
<text text-anchor="middle" x="523.53" y="-287.5" font-family="Helvetica,sans-Serif" font-size="10.00">mxiconatlas.h</text>
</a>
</g>
</g>
<!-- Node4&#45;&gt;Node6 -->
<g id="edge5" class="edge">
<title>Node4&#45;&gt;Node6</title>
<path fill="none" stroke="midnightblue" d="M794.56,-448.31C747.74,-421.14 603.88,-337.64 547.01,-304.63"/>
<polygon fill="midnightblue" stroke="midnightblue" points="548.76,-301.6 538.36,-299.61 545.25,-307.65 548.76,-301.6"/>
</g>
<!-- Node4&#45;&gt;Node27 -->
<g id="edge33" class="edge">
<title>Node4&#45;&gt;Node27</title>
<path fill="none" stroke="midnightblue" d="M821.26,-448.32C832.37,-440.11 849.27,-427.6 862.51,-417.81"/>
<polygon fill="midnightblue" stroke="midnightblue" points="864.63,-420.59 870.59,-411.83 860.47,-414.97 864.63,-420.59"/>
</g>
<!-- Node7 -->
<g id="node7" class="node">
<title>Node7</title>
<g id="a_node7"><a xlink:href="mxabstractatlas_8h.html" target="_top" xlink:title=" ">
<polygon fill="none" stroke="black" points="473.03,-224.5 473.03,-243.5 566.03,-243.5 566.03,-224.5 473.03,-224.5"/>
<text text-anchor="middle" x="519.53" y="-231.5" font-family="Helvetica,sans-Serif" font-size="10.00">mxabstractatlas.h</text>
</a>
</g>
</g>
<!-- Node6&#45;&gt;Node7 -->
<g id="edge6" class="edge">
<title>Node6&#45;&gt;Node7</title>
<path fill="none" stroke="midnightblue" d="M522.87,-280.08C522.35,-273.01 521.59,-262.86 520.94,-253.99"/>
<polygon fill="midnightblue" stroke="midnightblue" points="524.41,-253.47 520.18,-243.75 517.43,-253.98 524.41,-253.47"/>
</g>
<!-- Node14 -->
<g id="node14" class="node">
<title>Node14</title>
<g id="a_node14"><a xlink:href="mxlist_8h.html" target="_top" xlink:title=" ">
<polygon fill="none" stroke="black" points="1261.53,-168.5 1261.53,-187.5 1311.53,-187.5 1311.53,-168.5 1261.53,-168.5"/>
<text text-anchor="middle" x="1286.53" y="-175.5" font-family="Helvetica,sans-Serif" font-size="10.00">mxlist.h</text>
</a>
</g>
</g>
<!-- Node6&#45;&gt;Node14 -->
<g id="edge15" class="edge">
<title>Node6&#45;&gt;Node14</title>
<path fill="none" stroke="midnightblue" d="M561.6,-284.89C577.62,-283.24 596.47,-281.4 613.53,-280 738.48,-269.76 1056.72,-280.9 1176.53,-244 1211.4,-233.26 1246.88,-209.48 1267.78,-193.86"/>
<polygon fill="midnightblue" stroke="midnightblue" points="1269.99,-196.58 1275.81,-187.72 1265.74,-191.02 1269.99,-196.58"/>
</g>
<!-- Node19 -->
<g id="node19" class="node">
<title>Node19</title>
<g id="a_node19"><a xlink:href="mxrenderer_8h.html" target="_top" xlink:title=" ">
<polygon fill="none" stroke="black" points="236.53,-224.5 236.53,-243.5 308.53,-243.5 308.53,-224.5 236.53,-224.5"/>
<text text-anchor="middle" x="272.53" y="-231.5" font-family="Helvetica,sans-Serif" font-size="10.00">mxrenderer.h</text>
</a>
</g>
</g>
<!-- Node6&#45;&gt;Node19 -->
<g id="edge21" class="edge">
<title>Node6&#45;&gt;Node19</title>
<path fill="none" stroke="midnightblue" d="M485.41,-280.8C440.6,-271.16 366.28,-255.17 318.37,-244.86"/>
<polygon fill="midnightblue" stroke="midnightblue" points="319.08,-241.43 308.56,-242.75 317.6,-248.28 319.08,-241.43"/>
</g>
<!-- Node25 -->
<g id="node25" class="node">
<title>Node25</title>
<g id="a_node25"><a xlink:href="mximage_8h.html" target="_top" xlink:title=" ">
<polygon fill="none" stroke="black" points="509.03,-168.5 509.03,-187.5 572.03,-187.5 572.03,-168.5 509.03,-168.5"/>
<text text-anchor="middle" x="540.53" y="-175.5" font-family="Helvetica,sans-Serif" font-size="10.00">mximage.h</text>
</a>
</g>
</g>
<!-- Node6&#45;&gt;Node25 -->
<g id="edge30" class="edge">
<title>Node6&#45;&gt;Node25</title>
<path fill="none" stroke="midnightblue" d="M504.91,-280.4C482.73,-268.88 450.23,-247.18 463.53,-224 472.15,-208.99 487.92,-198.5 502.96,-191.46"/>
<polygon fill="midnightblue" stroke="midnightblue" points="504.35,-194.67 512.16,-187.51 501.59,-188.24 504.35,-194.67"/>
</g>
<!-- Node26 -->
<g id="node26" class="node">
<title>Node26</title>
<g id="a_node26"><a xlink:href="mxthemeicons_8h.html" target="_top" xlink:title=" ">
<polygon fill="none" stroke="black" points="623.03,-224.5 623.03,-243.5 710.03,-243.5 710.03,-224.5 623.03,-224.5"/>
<text text-anchor="middle" x="666.53" y="-231.5" font-family="Helvetica,sans-Serif" font-size="10.00">mxthemeicons.h</text>
</a>
</g>
</g>
<!-- Node6&#45;&gt;Node26 -->
<g id="edge32" class="edge">
<title>Node6&#45;&gt;Node26</title>
<path fill="none" stroke="midnightblue" d="M546.19,-280.44C569.93,-271.48 607.44,-257.31 634.27,-247.18"/>
<polygon fill="midnightblue" stroke="midnightblue" points="635.86,-250.32 643.98,-243.52 633.39,-243.77 635.86,-250.32"/>
</g>
<!-- Node8 -->
<g id="node8" class="node">
<title>Node8</title>
<g id="a_node8"><a xlink:href="mxrect_8h.html" target="_top" xlink:title=" ">
<polygon fill="none" stroke="black" points="854.03,-168.5 854.03,-187.5 907.03,-187.5 907.03,-168.5 854.03,-168.5"/>
<text text-anchor="middle" x="880.53" y="-175.5" font-family="Helvetica,sans-Serif" font-size="10.00">mxrect.h</text>
</a>
</g>
</g>
<!-- Node7&#45;&gt;Node8 -->
<g id="edge7" class="edge">
<title>Node7&#45;&gt;Node8</title>
<path fill="none" stroke="midnightblue" d="M566.35,-226C639.15,-215.11 777.95,-194.34 843.93,-184.47"/>
<polygon fill="midnightblue" stroke="midnightblue" points="844.5,-187.93 853.88,-182.99 843.47,-181.01 844.5,-187.93"/>
</g>
<!-- Node12 -->
<g id="node12" class="node">
<title>Node12</title>
<g id="a_node12"><a xlink:href="mxtexture_8h.html" target="_top" xlink:title=" ">
<polygon fill="none" stroke="black" points="590.53,-168.5 590.53,-187.5 656.53,-187.5 656.53,-168.5 590.53,-168.5"/>
<text text-anchor="middle" x="623.53" y="-175.5" font-family="Helvetica,sans-Serif" font-size="10.00">mxtexture.h</text>
</a>
</g>
</g>
<!-- Node7&#45;&gt;Node12 -->
<g id="edge12" class="edge">
<title>Node7&#45;&gt;Node12</title>
<path fill="none" stroke="midnightblue" d="M536.24,-224.32C552.84,-215.7 578.53,-202.36 597.75,-192.39"/>
<polygon fill="midnightblue" stroke="midnightblue" points="599.6,-195.37 606.86,-187.65 596.37,-189.16 599.6,-195.37"/>
</g>
<!-- Node9 -->
<g id="node9" class="node">
<title>Node9</title>
<g id="a_node9"><a xlink:title=" ">
<polygon fill="none" stroke="#bfbfbf" points="1163.03,-0.5 1163.03,-19.5 1226.03,-19.5 1226.03,-0.5 1163.03,-0.5"/>
<text text-anchor="middle" x="1194.53" y="-7.5" font-family="Helvetica,sans-Serif" font-size="10.00">mxdebug.h</text>
</a>
</g>
</g>
<!-- Node8&#45;&gt;Node9 -->
<g id="edge8" class="edge">
<title>Node8&#45;&gt;Node9</title>
<path fill="none" stroke="midnightblue" d="M880.83,-168.34C881.73,-154.76 885.34,-128.33 899.53,-112 964.62,-37.11 1087.73,-17.68 1152.41,-12.69"/>
<polygon fill="midnightblue" stroke="midnightblue" points="1152.92,-16.16 1162.65,-11.98 1152.44,-9.18 1152.92,-16.16"/>
</g>
<!-- Node10 -->
<g id="node10" class="node">
<title>Node10</title>
<g id="a_node10"><a xlink:href="mxvector_8h.html" target="_top" xlink:title=" ">
<polygon fill="none" stroke="black" points="671.53,-112.5 671.53,-131.5 735.53,-131.5 735.53,-112.5 671.53,-112.5"/>
<text text-anchor="middle" x="703.53" y="-119.5" font-family="Helvetica,sans-Serif" font-size="10.00">mxvector.h</text>
</a>
</g>
</g>
<!-- Node8&#45;&gt;Node10 -->
<g id="edge9" class="edge">
<title>Node8&#45;&gt;Node10</title>
<path fill="none" stroke="midnightblue" d="M853.65,-168.8C823.76,-159.68 775.26,-144.88 741.51,-134.59"/>
<polygon fill="midnightblue" stroke="midnightblue" points="742.13,-131.12 731.54,-131.55 740.09,-137.81 742.13,-131.12"/>
</g>
<!-- Node11 -->
<g id="node11" class="node">
<title>Node11</title>
<g id="a_node11"><a xlink:title=" ">
<polygon fill="none" stroke="#bfbfbf" points="908.53,-112.5 908.53,-131.5 964.53,-131.5 964.53,-112.5 908.53,-112.5"/>
<text text-anchor="middle" x="936.53" y="-119.5" font-family="Helvetica,sans-Serif" font-size="10.00">algorithm</text>
</a>
</g>
</g>
<!-- Node8&#45;&gt;Node11 -->
<g id="edge11" class="edge">
<title>Node8&#45;&gt;Node11</title>
<path fill="none" stroke="midnightblue" d="M889.53,-168.32C897.72,-160.42 910.04,-148.55 920,-138.94"/>
<polygon fill="midnightblue" stroke="midnightblue" points="922.6,-141.29 927.37,-131.83 917.74,-136.26 922.6,-141.29"/>
</g>
<!-- Node10&#45;&gt;Node9 -->
<g id="edge10" class="edge">
<title>Node10&#45;&gt;Node9</title>
<path fill="none" stroke="midnightblue" d="M721.14,-112.32C750.52,-98.22 811.74,-70.45 866.53,-56 967.14,-29.46 1089.47,-17.95 1152.5,-13.49"/>
<polygon fill="midnightblue" stroke="midnightblue" points="1153.09,-16.96 1162.83,-12.78 1152.61,-9.97 1153.09,-16.96"/>
</g>
<!-- Node12&#45;&gt;Node10 -->
<g id="edge13" class="edge">
<title>Node12&#45;&gt;Node10</title>
<path fill="none" stroke="midnightblue" d="M636.38,-168.32C648.75,-159.98 667.66,-147.21 682.27,-137.35"/>
<polygon fill="midnightblue" stroke="midnightblue" points="684.38,-140.15 690.71,-131.65 680.46,-134.35 684.38,-140.15"/>
</g>
<!-- Node13 -->
<g id="node13" class="node">
<title>Node13</title>
<g id="a_node13"><a xlink:title=" ">
<polygon fill="none" stroke="#bfbfbf" points="512.03,-56.5 512.03,-75.5 577.03,-75.5 577.03,-56.5 512.03,-56.5"/>
<text text-anchor="middle" x="544.53" y="-63.5" font-family="Helvetica,sans-Serif" font-size="10.00">mxopengl.h</text>
</a>
</g>
</g>
<!-- Node12&#45;&gt;Node13 -->
<g id="edge14" class="edge">
<title>Node12&#45;&gt;Node13</title>
<path fill="none" stroke="midnightblue" d="M617.33,-168.37C604.29,-150.22 573.83,-107.8 556.73,-83.99"/>
<polygon fill="midnightblue" stroke="midnightblue" points="559.38,-81.67 550.7,-75.59 553.69,-85.76 559.38,-81.67"/>
</g>
<!-- Node14&#45;&gt;Node9 -->
<g id="edge16" class="edge">
<title>Node14&#45;&gt;Node9</title>
<path fill="none" stroke="midnightblue" d="M1261.26,-170.97C1202.23,-156.3 1058.4,-116.92 1033.53,-76 1005.37,-29.69 1096.2,-16.37 1152.75,-12.54"/>
<polygon fill="midnightblue" stroke="midnightblue" points="1153.11,-16.02 1162.88,-11.93 1152.69,-9.04 1153.11,-16.02"/>
</g>
<!-- Node15 -->
<g id="node15" class="node">
<title>Node15</title>
<g id="a_node15"><a xlink:href="mxrefcounter_8h.html" target="_top" xlink:title=" ">
<polygon fill="none" stroke="black" points="1042.53,-56.5 1042.53,-75.5 1122.53,-75.5 1122.53,-56.5 1042.53,-56.5"/>
<text text-anchor="middle" x="1082.53" y="-63.5" font-family="Helvetica,sans-Serif" font-size="10.00">mxrefcounter.h</text>
</a>
</g>
</g>
<!-- Node14&#45;&gt;Node15 -->
<g id="edge17" class="edge">
<title>Node14&#45;&gt;Node15</title>
<path fill="none" stroke="midnightblue" d="M1276.02,-168.33C1259.47,-154.97 1225.96,-129.11 1194.53,-112 1170,-98.65 1140.66,-87 1118.16,-78.9"/>
<polygon fill="midnightblue" stroke="midnightblue" points="1119.25,-75.58 1108.66,-75.55 1116.92,-82.18 1119.25,-75.58"/>
</g>
<!-- Node16 -->
<g id="node16" class="node">
<title>Node16</title>
<g id="a_node16"><a xlink:title=" ">
<polygon fill="none" stroke="#bfbfbf" points="1439.03,-0.5 1439.03,-19.5 1486.03,-19.5 1486.03,-0.5 1439.03,-0.5"/>
<text text-anchor="middle" x="1462.53" y="-7.5" font-family="Helvetica,sans-Serif" font-size="10.00">stdlib.h</text>
</a>
</g>
</g>
<!-- Node14&#45;&gt;Node16 -->
<g id="edge18" class="edge">
<title>Node14&#45;&gt;Node16</title>
<path fill="none" stroke="midnightblue" d="M1311.84,-174.57C1361.17,-168.32 1469.38,-146.8 1515.53,-76 1527.74,-57.28 1506.25,-37.64 1487.09,-24.91"/>
<polygon fill="midnightblue" stroke="midnightblue" points="1488.91,-21.92 1478.58,-19.58 1485.19,-27.86 1488.91,-21.92"/>
</g>
<!-- Node17 -->
<g id="node17" class="node">
<title>Node17</title>
<g id="a_node17"><a xlink:title=" ">
<polygon fill="none" stroke="#bfbfbf" points="1510.53,-0.5 1510.53,-19.5 1558.53,-19.5 1558.53,-0.5 1510.53,-0.5"/>
<text text-anchor="middle" x="1534.53" y="-7.5" font-family="Helvetica,sans-Serif" font-size="10.00">string.h</text>
</a>
</g>
</g>
<!-- Node14&#45;&gt;Node17 -->
<g id="edge19" class="edge">
<title>Node14&#45;&gt;Node17</title>
<path fill="none" stroke="midnightblue" d="M1311.75,-176.08C1350.77,-173.62 1426.98,-164.66 1481.53,-132 1509.91,-115.01 1517.95,-106.59 1530.53,-76 1536.52,-61.44 1537.17,-43.5 1536.53,-30.15"/>
<polygon fill="midnightblue" stroke="midnightblue" points="1539.99,-29.51 1535.73,-19.81 1533.01,-30.05 1539.99,-29.51"/>
</g>
<!-- Node18 -->
<g id="node18" class="node">
<title>Node18</title>
<g id="a_node18"><a xlink:title=" ">
<polygon fill="none" stroke="#bfbfbf" points="1150.03,-112.5 1150.03,-131.5 1185.03,-131.5 1185.03,-112.5 1150.03,-112.5"/>
<text text-anchor="middle" x="1167.53" y="-119.5" font-family="Helvetica,sans-Serif" font-size="10.00">new</text>
</a>
</g>
</g>
<!-- Node14&#45;&gt;Node18 -->
<g id="edge20" class="edge">
<title>Node14&#45;&gt;Node18</title>
<path fill="none" stroke="midnightblue" d="M1267.67,-168.44C1247.92,-159.48 1216.72,-145.32 1194.4,-135.19"/>
<polygon fill="midnightblue" stroke="midnightblue" points="1195.69,-131.93 1185.13,-130.99 1192.79,-138.31 1195.69,-131.93"/>
</g>
<!-- Node19&#45;&gt;Node10 -->
<g id="edge29" class="edge">
<title>Node19&#45;&gt;Node10</title>
<path fill="none" stroke="midnightblue" d="M292.92,-224.47C326.22,-210.83 394.56,-184.01 454.53,-168 526.05,-148.9 611.31,-135.45 661.22,-128.48"/>
<polygon fill="midnightblue" stroke="midnightblue" points="661.89,-131.93 671.32,-127.1 660.94,-124.99 661.89,-131.93"/>
</g>
<!-- Node19&#45;&gt;Node14 -->
<g id="edge22" class="edge">
<title>Node19&#45;&gt;Node14</title>
<path fill="none" stroke="midnightblue" d="M308.8,-225.26C311.75,-224.78 314.68,-224.35 317.53,-224 411.48,-212.49 1087.71,-186.49 1251.08,-180.33"/>
<polygon fill="midnightblue" stroke="midnightblue" points="1251.22,-183.83 1261.08,-179.95 1250.96,-176.83 1251.22,-183.83"/>
</g>
<!-- Node20 -->
<g id="node20" class="node">
<title>Node20</title>
<g id="a_node20"><a xlink:href="mxgpuarray_8h.html" target="_top" xlink:title=" ">
<polygon fill="none" stroke="black" points="144.53,-168.5 144.53,-187.5 218.53,-187.5 218.53,-168.5 144.53,-168.5"/>
<text text-anchor="middle" x="181.53" y="-175.5" font-family="Helvetica,sans-Serif" font-size="10.00">mxgpuarray.h</text>
</a>
</g>
</g>
<!-- Node19&#45;&gt;Node20 -->
<g id="edge23" class="edge">
<title>Node19&#45;&gt;Node20</title>
<path fill="none" stroke="midnightblue" d="M257.91,-224.32C243.58,-215.82 221.52,-202.73 204.78,-192.8"/>
<polygon fill="midnightblue" stroke="midnightblue" points="206.5,-189.75 196.11,-187.65 202.93,-195.77 206.5,-189.75"/>
</g>
<!-- Node22 -->
<g id="node22" class="node">
<title>Node22</title>
<g id="a_node22"><a xlink:href="mxmatrix_8h.html" target="_top" xlink:title=" ">
<polygon fill="none" stroke="black" points="237.03,-168.5 237.03,-187.5 300.03,-187.5 300.03,-168.5 237.03,-168.5"/>
<text text-anchor="middle" x="268.53" y="-175.5" font-family="Helvetica,sans-Serif" font-size="10.00">mxmatrix.h</text>
</a>
</g>
</g>
<!-- Node19&#45;&gt;Node22 -->
<g id="edge26" class="edge">
<title>Node19&#45;&gt;Node22</title>
<path fill="none" stroke="midnightblue" d="M271.87,-224.08C271.35,-217.01 270.59,-206.86 269.94,-197.99"/>
<polygon fill="midnightblue" stroke="midnightblue" points="273.41,-197.47 269.18,-187.75 266.43,-197.98 273.41,-197.47"/>
</g>
<!-- Node23 -->
<g id="node23" class="node">
<title>Node23</title>
<g id="a_node23"><a xlink:href="mxopenglfunctions_8h.html" target="_top" xlink:title=" ">
<polygon fill="none" stroke="black" points="21.03,-168.5 21.03,-187.5 126.03,-187.5 126.03,-168.5 21.03,-168.5"/>
<text text-anchor="middle" x="73.53" y="-175.5" font-family="Helvetica,sans-Serif" font-size="10.00">mxopenglfunctions.h</text>
</a>
</g>
</g>
<!-- Node19&#45;&gt;Node23 -->
<g id="edge27" class="edge">
<title>Node19&#45;&gt;Node23</title>
<path fill="none" stroke="midnightblue" d="M241,-224.44C206.94,-215.2 152.52,-200.44 115.01,-190.26"/>
<polygon fill="midnightblue" stroke="midnightblue" points="115.48,-186.76 104.91,-187.52 113.65,-193.51 115.48,-186.76"/>
</g>
<!-- Node21 -->
<g id="node21" class="node">
<title>Node21</title>
<g id="a_node21"><a xlink:href="mxgpuprogram_8h.html" target="_top" xlink:title=" ">
<polygon fill="none" stroke="black" points="219.53,-112.5 219.53,-131.5 307.53,-131.5 307.53,-112.5 219.53,-112.5"/>
<text text-anchor="middle" x="263.53" y="-119.5" font-family="Helvetica,sans-Serif" font-size="10.00">mxgpuprogram.h</text>
</a>
</g>
</g>
<!-- Node20&#45;&gt;Node21 -->
<g id="edge24" class="edge">
<title>Node20&#45;&gt;Node21</title>
<path fill="none" stroke="midnightblue" d="M194.7,-168.32C207.38,-159.98 226.76,-147.21 241.74,-137.35"/>
<polygon fill="midnightblue" stroke="midnightblue" points="243.96,-140.08 250.39,-131.65 240.11,-134.23 243.96,-140.08"/>
</g>
<!-- Node21&#45;&gt;Node13 -->
<g id="edge25" class="edge">
<title>Node21&#45;&gt;Node13</title>
<path fill="none" stroke="midnightblue" d="M307.75,-112.5C360.92,-102.28 449.56,-85.25 501.98,-75.18"/>
<polygon fill="midnightblue" stroke="midnightblue" points="502.8,-78.58 511.96,-73.26 501.48,-71.71 502.8,-78.58"/>
</g>
<!-- Node24 -->
<g id="node24" class="node">
<title>Node24</title>
<g id="a_node24"><a xlink:title=" ">
<polygon fill="none" stroke="#bfbfbf" points="11.03,-112.5 11.03,-131.5 136.03,-131.5 136.03,-112.5 11.03,-112.5"/>
<text text-anchor="middle" x="73.53" y="-119.5" font-family="Helvetica,sans-Serif" font-size="10.00">QOpenGLExtraFunctions</text>
</a>
</g>
</g>
<!-- Node23&#45;&gt;Node24 -->
<g id="edge28" class="edge">
<title>Node23&#45;&gt;Node24</title>
<path fill="none" stroke="midnightblue" d="M73.53,-168.08C73.53,-161.01 73.53,-150.86 73.53,-141.99"/>
<polygon fill="midnightblue" stroke="midnightblue" points="77.03,-141.75 73.53,-131.75 70.03,-141.75 77.03,-141.75"/>
</g>
<!-- Node25&#45;&gt;Node10 -->
<g id="edge31" class="edge">
<title>Node25&#45;&gt;Node10</title>
<path fill="none" stroke="midnightblue" d="M566.36,-168.44C593.78,-159.36 637.31,-144.94 667.96,-134.78"/>
<polygon fill="midnightblue" stroke="midnightblue" points="669.43,-137.98 677.82,-131.52 667.23,-131.34 669.43,-137.98"/>
</g>
<!-- Node27&#45;&gt;Node9 -->
<g id="edge34" class="edge">
<title>Node27&#45;&gt;Node9</title>
<path fill="none" stroke="midnightblue" d="M924.26,-399.45C1084.1,-392.96 1648.53,-364.81 1648.53,-291 1648.53,-291 1648.53,-291 1648.53,-177 1648.53,-154.87 1340.36,-56.53 1231.81,-22.57"/>
<polygon fill="midnightblue" stroke="midnightblue" points="1232.84,-19.23 1222.25,-19.59 1230.75,-25.91 1232.84,-19.23"/>
</g>
<!-- Node28 -->
<g id="node28" class="node">
<title>Node28</title>
<g id="a_node28"><a xlink:href="mxwidgetlist_8h.html" target="_top" xlink:title=" ">
<polygon fill="none" stroke="black" points="1261.53,-224.5 1261.53,-243.5 1339.53,-243.5 1339.53,-224.5 1261.53,-224.5"/>
<text text-anchor="middle" x="1300.53" y="-231.5" font-family="Helvetica,sans-Serif" font-size="10.00">mxwidgetlist.h</text>
</a>
</g>
</g>
<!-- Node27&#45;&gt;Node28 -->
<g id="edge35" class="edge">
<title>Node27&#45;&gt;Node28</title>
<path fill="none" stroke="midnightblue" d="M924.18,-395.19C1014.22,-381.88 1223.12,-346.68 1275.53,-300 1288.91,-288.08 1295.18,-268.18 1298.08,-253.53"/>
<polygon fill="midnightblue" stroke="midnightblue" points="1301.55,-254 1299.71,-243.57 1294.64,-252.87 1301.55,-254"/>
</g>
<!-- Node29 -->
<g id="node29" class="node">
<title>Node29</title>
<g id="a_node29"><a xlink:href="mxguirenderer_8h.html" target="_top" xlink:title=" ">
<polygon fill="none" stroke="black" points="323.03,-336.5 323.03,-355.5 408.03,-355.5 408.03,-336.5 323.03,-336.5"/>
<text text-anchor="middle" x="365.53" y="-343.5" font-family="Helvetica,sans-Serif" font-size="10.00">mxguirenderer.h</text>
</a>
</g>
</g>
<!-- Node27&#45;&gt;Node29 -->
<g id="edge37" class="edge">
<title>Node27&#45;&gt;Node29</title>
<path fill="none" stroke="midnightblue" d="M840.66,-396.63C747.12,-386.86 521.31,-363.27 418.32,-352.51"/>
<polygon fill="midnightblue" stroke="midnightblue" points="418.46,-349.01 408.15,-351.45 417.74,-355.97 418.46,-349.01"/>
</g>
<!-- Node34 -->
<g id="node34" class="node">
<title>Node34</title>
<g id="a_node34"><a xlink:href="mxmouseevent_8h.html" target="_top" xlink:title=" ">
<polygon fill="none" stroke="black" points="742.53,-336.5 742.53,-355.5 832.53,-355.5 832.53,-336.5 742.53,-336.5"/>
<text text-anchor="middle" x="787.53" y="-343.5" font-family="Helvetica,sans-Serif" font-size="10.00">mxmouseevent.h</text>
</a>
</g>
</g>
<!-- Node27&#45;&gt;Node34 -->
<g id="edge52" class="edge">
<title>Node27&#45;&gt;Node34</title>
<path fill="none" stroke="midnightblue" d="M867.27,-392.32C852.31,-383.82 829.28,-370.73 811.8,-360.8"/>
<polygon fill="midnightblue" stroke="midnightblue" points="813.18,-357.55 802.76,-355.65 809.72,-363.64 813.18,-357.55"/>
</g>
<!-- Node36 -->
<g id="node36" class="node">
<title>Node36</title>
<g id="a_node36"><a xlink:href="mxpainter_8h.html" target="_top" xlink:title=" ">
<polygon fill="none" stroke="black" points="945.53,-336.5 945.53,-355.5 1011.53,-355.5 1011.53,-336.5 945.53,-336.5"/>
<text text-anchor="middle" x="978.53" y="-343.5" font-family="Helvetica,sans-Serif" font-size="10.00">mxpainter.h</text>
</a>
</g>
</g>
<!-- Node27&#45;&gt;Node36 -->
<g id="edge55" class="edge">
<title>Node27&#45;&gt;Node36</title>
<path fill="none" stroke="midnightblue" d="M897.95,-392.32C913.07,-383.82 936.35,-370.73 954,-360.8"/>
<polygon fill="midnightblue" stroke="midnightblue" points="956.14,-363.61 963.14,-355.65 952.71,-357.51 956.14,-363.61"/>
</g>
<!-- Node28&#45;&gt;Node14 -->
<g id="edge36" class="edge">
<title>Node28&#45;&gt;Node14</title>
<path fill="none" stroke="midnightblue" d="M1298.22,-224.08C1296.36,-216.93 1293.69,-206.64 1291.38,-197.69"/>
<polygon fill="midnightblue" stroke="midnightblue" points="1294.7,-196.55 1288.8,-187.75 1287.92,-198.31 1294.7,-196.55"/>
</g>
<!-- Node29&#45;&gt;Node19 -->
<g id="edge39" class="edge">
<title>Node29&#45;&gt;Node19</title>
<path fill="none" stroke="midnightblue" d="M358.23,-336.37C342.75,-318.05 306.39,-275.05 286.36,-251.36"/>
<polygon fill="midnightblue" stroke="midnightblue" points="288.92,-248.97 279.79,-243.59 283.58,-253.49 288.92,-248.97"/>
</g>
<!-- Node30 -->
<g id="node30" class="node">
<title>Node30</title>
<g id="a_node30"><a xlink:href="mxbuffer_8h.html" target="_top" xlink:title=" ">
<polygon fill="none" stroke="black" points="394.03,-280.5 394.03,-299.5 455.03,-299.5 455.03,-280.5 394.03,-280.5"/>
<text text-anchor="middle" x="424.53" y="-287.5" font-family="Helvetica,sans-Serif" font-size="10.00">mxbuffer.h</text>
</a>
</g>
</g>
<!-- Node29&#45;&gt;Node30 -->
<g id="edge38" class="edge">
<title>Node29&#45;&gt;Node30</title>
<path fill="none" stroke="midnightblue" d="M375.01,-336.32C383.73,-328.34 396.87,-316.31 407.43,-306.65"/>
<polygon fill="midnightblue" stroke="midnightblue" points="409.86,-309.17 414.88,-299.83 405.14,-304 409.86,-309.17"/>
</g>
<!-- Node31 -->
<g id="node31" class="node">
<title>Node31</title>
<g id="a_node31"><a xlink:href="mxvectorprogram_8h.html" target="_top" xlink:title=" ">
<polygon fill="none" stroke="black" points="182.03,-280.5 182.03,-299.5 281.03,-299.5 281.03,-280.5 182.03,-280.5"/>
<text text-anchor="middle" x="231.53" y="-287.5" font-family="Helvetica,sans-Serif" font-size="10.00">mxvectorprogram.h</text>
</a>
</g>
</g>
<!-- Node29&#45;&gt;Node31 -->
<g id="edge40" class="edge">
<title>Node29&#45;&gt;Node31</title>
<path fill="none" stroke="midnightblue" d="M344.3,-336.44C322.15,-327.52 287.21,-313.44 262.09,-303.32"/>
<polygon fill="midnightblue" stroke="midnightblue" points="263.25,-300.01 252.66,-299.52 260.63,-306.5 263.25,-300.01"/>
</g>
<!-- Node33 -->
<g id="node33" class="node">
<title>Node33</title>
<g id="a_node33"><a xlink:href="mxiconprogram_8h.html" target="_top" xlink:title=" ">
<polygon fill="none" stroke="black" points="326.53,-224.5 326.53,-243.5 416.53,-243.5 416.53,-224.5 326.53,-224.5"/>
<text text-anchor="middle" x="371.53" y="-231.5" font-family="Helvetica,sans-Serif" font-size="10.00">mxiconprogram.h</text>
</a>
</g>
</g>
<!-- Node29&#45;&gt;Node33 -->
<g id="edge45" class="edge">
<title>Node29&#45;&gt;Node33</title>
<path fill="none" stroke="midnightblue" d="M366,-336.37C366.97,-318.62 369.2,-277.67 370.52,-253.6"/>
<polygon fill="midnightblue" stroke="midnightblue" points="374.01,-253.77 371.06,-243.59 367.02,-253.39 374.01,-253.77"/>
</g>
<!-- Node31&#45;&gt;Node21 -->
<g id="edge41" class="edge">
<title>Node31&#45;&gt;Node21</title>
<path fill="none" stroke="midnightblue" d="M181.75,-281.17C101.85,-266.54 -41.01,-230.75 11.53,-168 24.12,-152.96 139.22,-137.26 209.44,-128.96"/>
<polygon fill="midnightblue" stroke="midnightblue" points="209.93,-132.43 219.45,-127.8 209.12,-125.48 209.93,-132.43"/>
</g>
<!-- Node31&#45;&gt;Node22 -->
<g id="edge42" class="edge">
<title>Node31&#45;&gt;Node22</title>
<path fill="none" stroke="midnightblue" d="M228.74,-280.23C225.14,-267.4 220.18,-242.98 227.53,-224 231.98,-212.5 240.9,-202.13 249.28,-194.25"/>
<polygon fill="midnightblue" stroke="midnightblue" points="251.77,-196.73 256.99,-187.51 247.16,-191.46 251.77,-196.73"/>
</g>
<!-- Node32 -->
<g id="node32" class="node">
<title>Node32</title>
<g id="a_node32"><a xlink:href="mxvectordraw_8h.html" target="_top" xlink:title=" ">
<polygon fill="none" stroke="black" points="838.03,-224.5 838.03,-243.5 923.03,-243.5 923.03,-224.5 838.03,-224.5"/>
<text text-anchor="middle" x="880.53" y="-231.5" font-family="Helvetica,sans-Serif" font-size="10.00">mxvectordraw.h</text>
</a>
</g>
</g>
<!-- Node31&#45;&gt;Node32 -->
<g id="edge43" class="edge">
<title>Node31&#45;&gt;Node32</title>
<path fill="none" stroke="midnightblue" d="M281.12,-285.91C401.15,-278.32 705.86,-258.45 827.81,-244.07"/>
<polygon fill="midnightblue" stroke="midnightblue" points="828.5,-247.52 838,-242.83 827.65,-240.57 828.5,-247.52"/>
</g>
<!-- Node32&#45;&gt;Node8 -->
<g id="edge44" class="edge">
<title>Node32&#45;&gt;Node8</title>
<path fill="none" stroke="midnightblue" d="M880.53,-224.08C880.53,-217.01 880.53,-206.86 880.53,-197.99"/>
<polygon fill="midnightblue" stroke="midnightblue" points="884.03,-197.75 880.53,-187.75 877.03,-197.75 884.03,-197.75"/>
</g>
<!-- Node33&#45;&gt;Node8 -->
<g id="edge51" class="edge">
<title>Node33&#45;&gt;Node8</title>
<path fill="none" stroke="midnightblue" d="M416.7,-228.21C516.17,-217.66 752.5,-192.58 843.73,-182.9"/>
<polygon fill="midnightblue" stroke="midnightblue" points="844.29,-186.36 853.86,-181.83 843.55,-179.4 844.29,-186.36"/>
</g>
<!-- Node33&#45;&gt;Node9 -->
<g id="edge46" class="edge">
<title>Node33&#45;&gt;Node9</title>
<path fill="none" stroke="midnightblue" d="M374.81,-224.27C386.58,-194.29 429.91,-95.31 502.53,-56 559.61,-25.11 1011.5,-14.33 1152.59,-11.7"/>
<polygon fill="midnightblue" stroke="midnightblue" points="1153.04,-15.19 1162.98,-11.51 1152.91,-8.19 1153.04,-15.19"/>
</g>
<!-- Node33&#45;&gt;Node10 -->
<g id="edge48" class="edge">
<title>Node33&#45;&gt;Node10</title>
<path fill="none" stroke="midnightblue" d="M387.92,-224.38C419.81,-207.66 488.09,-172.09 499.53,-168 553.84,-148.58 619.39,-135.92 661.27,-129.12"/>
<polygon fill="midnightblue" stroke="midnightblue" points="662.05,-132.54 671.38,-127.51 660.95,-125.62 662.05,-132.54"/>
</g>
<!-- Node33&#45;&gt;Node13 -->
<g id="edge49" class="edge">
<title>Node33&#45;&gt;Node13</title>
<path fill="none" stroke="midnightblue" d="M380.54,-224.38C390.01,-215.32 405.32,-200.67 418.53,-188 458.06,-150.09 504.52,-105.46 528.46,-82.45"/>
<polygon fill="midnightblue" stroke="midnightblue" points="530.89,-84.97 535.67,-75.51 526.04,-79.92 530.89,-84.97"/>
</g>
<!-- Node33&#45;&gt;Node21 -->
<g id="edge50" class="edge">
<title>Node33&#45;&gt;Node21</title>
<path fill="none" stroke="midnightblue" d="M363.01,-224.13C350.95,-211.57 328.16,-187.93 308.53,-168 298.92,-158.23 288.05,-147.37 279.41,-138.76"/>
<polygon fill="midnightblue" stroke="midnightblue" points="281.76,-136.16 272.2,-131.59 276.82,-141.12 281.76,-136.16"/>
</g>
<!-- Node33&#45;&gt;Node22 -->
<g id="edge47" class="edge">
<title>Node33&#45;&gt;Node22</title>
<path fill="none" stroke="midnightblue" d="M354.98,-224.32C338.54,-215.7 313.1,-202.36 294.06,-192.39"/>
<polygon fill="midnightblue" stroke="midnightblue" points="295.52,-189.2 285.04,-187.65 292.27,-195.4 295.52,-189.2"/>
</g>
<!-- Node34&#45;&gt;Node10 -->
<g id="edge53" class="edge">
<title>Node34&#45;&gt;Node10</title>
<path fill="none" stroke="midnightblue" d="M742.33,-339.58C696.2,-333.01 629.19,-320.23 613.53,-300 606.38,-290.77 596.01,-258.98 614.53,-224 627.51,-199.48 646.77,-208.44 665.53,-188 678.35,-174.03 688.84,-155.03 695.53,-141.18"/>
<polygon fill="midnightblue" stroke="midnightblue" points="698.86,-142.31 699.87,-131.76 692.5,-139.37 698.86,-142.31"/>
</g>
<!-- Node35 -->
<g id="node35" class="node">
<title>Node35</title>
<g id="a_node35"><a xlink:title=" ">
<polygon fill="none" stroke="#bfbfbf" points="622.53,-280.5 622.53,-299.5 760.53,-299.5 760.53,-280.5 622.53,-280.5"/>
<text text-anchor="middle" x="691.53" y="-287.5" font-family="Helvetica,sans-Serif" font-size="10.00">mxmouseeventabstraction.h</text>
</a>
</g>
</g>
<!-- Node34&#45;&gt;Node35 -->
<g id="edge54" class="edge">
<title>Node34&#45;&gt;Node35</title>
<path fill="none" stroke="midnightblue" d="M772.11,-336.32C756.99,-327.82 733.71,-314.73 716.06,-304.8"/>
<polygon fill="midnightblue" stroke="midnightblue" points="717.35,-301.51 706.92,-299.65 713.92,-307.61 717.35,-301.51"/>
</g>
<!-- Node36&#45;&gt;Node9 -->
<g id="edge56" class="edge">
<title>Node36&#45;&gt;Node9</title>
<path fill="none" stroke="midnightblue" d="M1011.53,-343.31C1084.82,-339.11 1258.71,-326.57 1310.53,-300 1341.02,-284.36 1350.85,-275.84 1363.53,-244 1377.33,-209.35 1391.49,-197.02 1342.53,-112 1316.99,-67.65 1263.14,-38.59 1227.93,-23.48"/>
<polygon fill="midnightblue" stroke="midnightblue" points="1229.11,-20.18 1218.53,-19.59 1226.43,-26.65 1229.11,-20.18"/>
</g>
<!-- Node36&#45;&gt;Node14 -->
<g id="edge58" class="edge">
<title>Node36&#45;&gt;Node14</title>
<path fill="none" stroke="midnightblue" d="M1011.62,-345.28C1068.06,-344.63 1185.56,-338.29 1275.53,-300 1313.16,-283.99 1330.44,-280.67 1348.53,-244 1358.87,-223.04 1335.87,-204.35 1315.01,-192.45"/>
<polygon fill="midnightblue" stroke="midnightblue" points="1316.48,-189.27 1306.01,-187.63 1313.17,-195.44 1316.48,-189.27"/>
</g>
<!-- Node36&#45;&gt;Node32 -->
<g id="edge57" class="edge">
<title>Node36&#45;&gt;Node32</title>
<path fill="none" stroke="midnightblue" d="M978.05,-336.5C976.89,-323.13 972.94,-296.97 959.53,-280 948.1,-265.54 930.67,-254.91 915.08,-247.62"/>
<polygon fill="midnightblue" stroke="midnightblue" points="916.24,-244.31 905.68,-243.51 913.44,-250.73 916.24,-244.31"/>
</g>
<!-- Node37 -->
<g id="node37" class="node">
<title>Node37</title>
<g id="a_node37"><a xlink:href="mxtextdraw_8h.html" target="_top" xlink:title=" ">
<polygon fill="none" stroke="black" points="941.53,-224.5 941.53,-243.5 1015.53,-243.5 1015.53,-224.5 941.53,-224.5"/>
<text text-anchor="middle" x="978.53" y="-231.5" font-family="Helvetica,sans-Serif" font-size="10.00">mxtextdraw.h</text>
</a>
</g>
</g>
<!-- Node36&#45;&gt;Node37 -->
<g id="edge59" class="edge">
<title>Node36&#45;&gt;Node37</title>
<path fill="none" stroke="midnightblue" d="M982.5,-336.23C987.64,-323.8 995.62,-300.31 992.53,-280 991.16,-271 988.34,-261.33 985.58,-253.26"/>
<polygon fill="midnightblue" stroke="midnightblue" points="988.84,-251.98 982.13,-243.78 982.26,-254.37 988.84,-251.98"/>
</g>
<!-- Node42 -->
<g id="node42" class="node">
<title>Node42</title>
<g id="a_node42"><a xlink:href="mxicondraw_8h.html" target="_top" xlink:title=" ">
<polygon fill="none" stroke="black" points="778.53,-280.5 778.53,-299.5 854.53,-299.5 854.53,-280.5 778.53,-280.5"/>
<text text-anchor="middle" x="816.53" y="-287.5" font-family="Helvetica,sans-Serif" font-size="10.00">mxicondraw.h</text>
</a>
</g>
</g>
<!-- Node36&#45;&gt;Node42 -->
<g id="edge74" class="edge">
<title>Node36&#45;&gt;Node42</title>
<path fill="none" stroke="midnightblue" d="M952.86,-336.44C925.61,-327.36 882.35,-312.94 851.88,-302.78"/>
<polygon fill="midnightblue" stroke="midnightblue" points="852.67,-299.36 842.08,-299.52 850.46,-306 852.67,-299.36"/>
</g>
<!-- Node43 -->
<g id="node43" class="node">
<title>Node43</title>
<g id="a_node43"><a xlink:href="mxstaticfont_8h.html" target="_top" xlink:title=" ">
<polygon fill="none" stroke="black" points="873.03,-280.5 873.03,-299.5 950.03,-299.5 950.03,-280.5 873.03,-280.5"/>
<text text-anchor="middle" x="911.53" y="-287.5" font-family="Helvetica,sans-Serif" font-size="10.00">mxstaticfont.h</text>
</a>
</g>
</g>
<!-- Node36&#45;&gt;Node43 -->
<g id="edge77" class="edge">
<title>Node36&#45;&gt;Node43</title>
<path fill="none" stroke="midnightblue" d="M967.77,-336.32C957.76,-328.26 942.64,-316.08 930.6,-306.37"/>
<polygon fill="midnightblue" stroke="midnightblue" points="932.47,-303.38 922.49,-299.83 928.08,-308.83 932.47,-303.38"/>
</g>
<!-- Node37&#45;&gt;Node8 -->
<g id="edge73" class="edge">
<title>Node37&#45;&gt;Node8</title>
<path fill="none" stroke="midnightblue" d="M962.78,-224.32C947.21,-215.74 923.15,-202.49 905.07,-192.52"/>
<polygon fill="midnightblue" stroke="midnightblue" points="906.68,-189.42 896.24,-187.65 903.31,-195.55 906.68,-189.42"/>
</g>
<!-- Node37&#45;&gt;Node10 -->
<g id="edge60" class="edge">
<title>Node37&#45;&gt;Node10</title>
<path fill="none" stroke="midnightblue" d="M950.46,-224.43C923.33,-215.93 881.22,-202.16 845.53,-188 804.5,-171.72 758.23,-149.86 729.97,-136.1"/>
<polygon fill="midnightblue" stroke="midnightblue" points="731.29,-132.85 720.77,-131.59 728.21,-139.13 731.29,-132.85"/>
</g>
<!-- Node38 -->
<g id="node38" class="node">
<title>Node38</title>
<g id="a_node38"><a xlink:href="mxstring_8h.html" target="_top" xlink:title=" ">
<polygon fill="none" stroke="black" points="948.03,-168.5 948.03,-187.5 1009.03,-187.5 1009.03,-168.5 948.03,-168.5"/>
<text text-anchor="middle" x="978.53" y="-175.5" font-family="Helvetica,sans-Serif" font-size="10.00">mxstring.h</text>
</a>
</g>
</g>
<!-- Node37&#45;&gt;Node38 -->
<g id="edge61" class="edge">
<title>Node37&#45;&gt;Node38</title>
<path fill="none" stroke="midnightblue" d="M978.53,-224.08C978.53,-217.01 978.53,-206.86 978.53,-197.99"/>
<polygon fill="midnightblue" stroke="midnightblue" points="982.03,-197.75 978.53,-187.75 975.03,-197.75 982.03,-197.75"/>
</g>
<!-- Node39 -->
<g id="node39" class="node">
<title>Node39</title>
<g id="a_node39"><a xlink:href="mxgenericstring_8h.html" target="_top" xlink:title=" ">
<polygon fill="none" stroke="black" points="1241.53,-112.5 1241.53,-131.5 1333.53,-131.5 1333.53,-112.5 1241.53,-112.5"/>
<text text-anchor="middle" x="1287.53" y="-119.5" font-family="Helvetica,sans-Serif" font-size="10.00">mxgenericstring.h</text>
</a>
</g>
</g>
<!-- Node38&#45;&gt;Node39 -->
<g id="edge62" class="edge">
<title>Node38&#45;&gt;Node39</title>
<path fill="none" stroke="midnightblue" d="M1009.29,-171.62C1061.02,-162.58 1166.16,-144.21 1231.35,-132.82"/>
<polygon fill="midnightblue" stroke="midnightblue" points="1232.2,-136.22 1241.45,-131.05 1231,-129.33 1232.2,-136.22"/>
</g>
<!-- Node39&#45;&gt;Node9 -->
<g id="edge63" class="edge">
<title>Node39&#45;&gt;Node9</title>
<path fill="none" stroke="midnightblue" d="M1285.07,-112.21C1281.03,-98.93 1271.95,-73.42 1257.53,-56 1247.12,-43.42 1232.39,-32.64 1219.8,-24.79"/>
<polygon fill="midnightblue" stroke="midnightblue" points="1221.48,-21.72 1211.1,-19.61 1217.9,-27.73 1221.48,-21.72"/>
</g>
<!-- Node39&#45;&gt;Node15 -->
<g id="edge64" class="edge">
<title>Node39&#45;&gt;Node15</title>
<path fill="none" stroke="midnightblue" d="M1255.05,-112.44C1219.81,-103.16 1163.43,-88.31 1124.77,-78.13"/>
<polygon fill="midnightblue" stroke="midnightblue" points="1125.42,-74.68 1114.86,-75.52 1123.64,-81.45 1125.42,-74.68"/>
</g>
<!-- Node39&#45;&gt;Node16 -->
<g id="edge71" class="edge">
<title>Node39&#45;&gt;Node16</title>
<path fill="none" stroke="midnightblue" d="M1301.26,-112.37C1331.42,-93.41 1403.67,-48 1440.35,-24.94"/>
<polygon fill="midnightblue" stroke="midnightblue" points="1442.26,-27.88 1448.86,-19.59 1438.53,-21.95 1442.26,-27.88"/>
</g>
<!-- Node39&#45;&gt;Node17 -->
<g id="edge72" class="edge">
<title>Node39&#45;&gt;Node17</title>
<path fill="none" stroke="midnightblue" d="M1333.74,-117.49C1392.5,-112.1 1489.47,-99.82 1515.53,-76 1528.39,-64.24 1532.73,-44.31 1534.1,-29.61"/>
<polygon fill="midnightblue" stroke="midnightblue" points="1537.6,-29.79 1534.67,-19.61 1530.61,-29.4 1537.6,-29.79"/>
</g>
<!-- Node40 -->
<g id="node40" class="node">
<title>Node40</title>
<g id="a_node40"><a xlink:href="mxbytearrayref_8h.html" target="_top" xlink:title=" ">
<polygon fill="none" stroke="black" points="1419.03,-56.5 1419.03,-75.5 1506.03,-75.5 1506.03,-56.5 1419.03,-56.5"/>
<text text-anchor="middle" x="1462.53" y="-63.5" font-family="Helvetica,sans-Serif" font-size="10.00">mxbytearrayref.h</text>
</a>
</g>
</g>
<!-- Node39&#45;&gt;Node40 -->
<g id="edge65" class="edge">
<title>Node39&#45;&gt;Node40</title>
<path fill="none" stroke="midnightblue" d="M1315.26,-112.44C1344.96,-103.28 1392.25,-88.69 1425.2,-78.52"/>
<polygon fill="midnightblue" stroke="midnightblue" points="1426.41,-81.81 1434.93,-75.52 1424.34,-75.12 1426.41,-81.81"/>
</g>
<!-- Node41 -->
<g id="node41" class="node">
<title>Node41</title>
<g id="a_node41"><a xlink:href="mxgenericsubstring_8h.html" target="_top" xlink:title=" ">
<polygon fill="none" stroke="black" points="1140.53,-56.5 1140.53,-75.5 1248.53,-75.5 1248.53,-56.5 1140.53,-56.5"/>
<text text-anchor="middle" x="1194.53" y="-63.5" font-family="Helvetica,sans-Serif" font-size="10.00">mxgenericsubstring.h</text>
</a>
</g>
</g>
<!-- Node39&#45;&gt;Node41 -->
<g id="edge69" class="edge">
<title>Node39&#45;&gt;Node41</title>
<path fill="none" stroke="midnightblue" d="M1272.59,-112.32C1257.94,-103.82 1235.4,-90.73 1218.29,-80.8"/>
<polygon fill="midnightblue" stroke="midnightblue" points="1219.84,-77.65 1209.44,-75.65 1216.33,-83.7 1219.84,-77.65"/>
</g>
<!-- Node40&#45;&gt;Node9 -->
<g id="edge66" class="edge">
<title>Node40&#45;&gt;Node9</title>
<path fill="none" stroke="midnightblue" d="M1420.06,-56.44C1369.66,-46.29 1286.17,-29.47 1236.15,-19.39"/>
<polygon fill="midnightblue" stroke="midnightblue" points="1236.8,-15.95 1226.31,-17.4 1235.42,-22.81 1236.8,-15.95"/>
</g>
<!-- Node40&#45;&gt;Node16 -->
<g id="edge67" class="edge">
<title>Node40&#45;&gt;Node16</title>
<path fill="none" stroke="midnightblue" d="M1462.53,-56.08C1462.53,-49.01 1462.53,-38.86 1462.53,-29.99"/>
<polygon fill="midnightblue" stroke="midnightblue" points="1466.03,-29.75 1462.53,-19.75 1459.03,-29.75 1466.03,-29.75"/>
</g>
<!-- Node40&#45;&gt;Node17 -->
<g id="edge68" class="edge">
<title>Node40&#45;&gt;Node17</title>
<path fill="none" stroke="midnightblue" d="M1474.1,-56.32C1484.95,-48.18 1501.41,-35.84 1514.41,-26.09"/>
<polygon fill="midnightblue" stroke="midnightblue" points="1516.85,-28.63 1522.75,-19.83 1512.65,-23.03 1516.85,-28.63"/>
</g>
<!-- Node41&#45;&gt;Node9 -->
<g id="edge70" class="edge">
<title>Node41&#45;&gt;Node9</title>
<path fill="none" stroke="midnightblue" d="M1194.53,-56.08C1194.53,-49.01 1194.53,-38.86 1194.53,-29.99"/>
<polygon fill="midnightblue" stroke="midnightblue" points="1198.03,-29.75 1194.53,-19.75 1191.03,-29.75 1198.03,-29.75"/>
</g>
<!-- Node42&#45;&gt;Node8 -->
<g id="edge76" class="edge">
<title>Node42&#45;&gt;Node8</title>
<path fill="none" stroke="midnightblue" d="M798.62,-280.32C776.43,-268.37 743.31,-245.84 758.53,-224 777.62,-196.62 815.35,-185.85 843.82,-181.65"/>
<polygon fill="midnightblue" stroke="midnightblue" points="844.36,-185.11 853.84,-180.38 843.48,-178.16 844.36,-185.11"/>
</g>
<!-- Node42&#45;&gt;Node26 -->
<g id="edge75" class="edge">
<title>Node42&#45;&gt;Node26</title>
<path fill="none" stroke="midnightblue" d="M792.76,-280.44C767.64,-271.4 727.82,-257.06 699.63,-246.92"/>
<polygon fill="midnightblue" stroke="midnightblue" points="700.78,-243.61 690.19,-243.52 698.41,-250.2 700.78,-243.61"/>
</g>
<!-- Node44 -->
<g id="node44" class="node">
<title>Node44</title>
<g id="a_node44"><a xlink:href="mxfont_8h.html" target="_top" xlink:title=" ">
<polygon fill="none" stroke="black" points="767.03,-224.5 767.03,-243.5 820.03,-243.5 820.03,-224.5 767.03,-224.5"/>
<text text-anchor="middle" x="793.53" y="-231.5" font-family="Helvetica,sans-Serif" font-size="10.00">mxfont.h</text>
</a>
</g>
</g>
<!-- Node43&#45;&gt;Node44 -->
<g id="edge78" class="edge">
<title>Node43&#45;&gt;Node44</title>
<path fill="none" stroke="midnightblue" d="M892.83,-280.44C873.59,-271.64 843.38,-257.81 821.33,-247.72"/>
<polygon fill="midnightblue" stroke="midnightblue" points="822.69,-244.5 812.14,-243.52 819.78,-250.86 822.69,-244.5"/>
</g>
<!-- Node44&#45;&gt;Node10 -->
<g id="edge79" class="edge">
<title>Node44&#45;&gt;Node10</title>
<path fill="none" stroke="midnightblue" d="M783.17,-224.29C773.19,-215.63 757.97,-201.7 746.53,-188 733.97,-172.96 721.86,-154.13 713.71,-140.61"/>
<polygon fill="midnightblue" stroke="midnightblue" points="716.62,-138.67 708.52,-131.84 710.6,-142.23 716.62,-138.67"/>
</g>
<!-- Node44&#45;&gt;Node13 -->
<g id="edge81" class="edge">
<title>Node44&#45;&gt;Node13</title>
<path fill="none" stroke="midnightblue" d="M792.73,-224.41C790.16,-202.15 780.13,-142.21 744.53,-112 721.17,-92.18 638.8,-78.67 587.33,-71.94"/>
<polygon fill="midnightblue" stroke="midnightblue" points="587.53,-68.44 577.17,-70.65 586.65,-75.38 587.53,-68.44"/>
</g>
<!-- Node44&#45;&gt;Node38 -->
<g id="edge80" class="edge">
<title>Node44&#45;&gt;Node38</title>
<path fill="none" stroke="midnightblue" d="M820.04,-225.26C851.36,-216.12 903.75,-200.83 939.67,-190.34"/>
<polygon fill="midnightblue" stroke="midnightblue" points="940.71,-193.69 949.33,-187.52 938.75,-186.97 940.71,-193.69"/>
</g>
<!-- Node45&#45;&gt;Node8 -->
<g id="edge84" class="edge">
<title>Node45&#45;&gt;Node8</title>
<path fill="none" stroke="midnightblue" d="M1201.01,-282.75C1166.09,-275.5 1109.31,-262.19 1062.53,-244 1044.74,-237.08 1042.16,-231.32 1024.53,-224 988.83,-209.17 946.43,-196.48 916.92,-188.4"/>
<polygon fill="midnightblue" stroke="midnightblue" points="917.62,-184.96 907.05,-185.73 915.79,-191.72 917.62,-184.96"/>
</g>
<!-- Node45&#45;&gt;Node10 -->
<g id="edge85" class="edge">
<title>Node45&#45;&gt;Node10</title>
<path fill="none" stroke="midnightblue" d="M1227.96,-280.14C1218.83,-266.3 1199.39,-239.5 1176.53,-224 1114.86,-182.19 1090.87,-185.8 1018.53,-168 922.44,-144.36 806.59,-131.77 745.68,-126.34"/>
<polygon fill="midnightblue" stroke="midnightblue" points="745.94,-122.85 735.68,-125.47 745.33,-129.82 745.94,-122.85"/>
</g>
<!-- Node45&#45;&gt;Node28 -->
<g id="edge86" class="edge">
<title>Node45&#45;&gt;Node28</title>
<path fill="none" stroke="midnightblue" d="M1244.29,-280.32C1254.3,-272.26 1269.42,-260.08 1281.46,-250.37"/>
<polygon fill="midnightblue" stroke="midnightblue" points="1283.98,-252.83 1289.57,-243.83 1279.59,-247.38 1283.98,-252.83"/>
</g>
<!-- Node46 -->
<g id="node46" class="node">
<title>Node46</title>
<g id="a_node46"><a xlink:href="mxclippedwidget_8h.html" target="_top" xlink:title=" ">
<polygon fill="none" stroke="black" points="1071.53,-224.5 1071.53,-243.5 1167.53,-243.5 1167.53,-224.5 1071.53,-224.5"/>
<text text-anchor="middle" x="1119.53" y="-231.5" font-family="Helvetica,sans-Serif" font-size="10.00">mxclippedwidget.h</text>
</a>
</g>
</g>
<!-- Node45&#45;&gt;Node46 -->
<g id="edge87" class="edge">
<title>Node45&#45;&gt;Node46</title>
<path fill="none" stroke="midnightblue" d="M1215.47,-280.44C1196.96,-271.68 1167.95,-257.94 1146.67,-247.86"/>
<polygon fill="midnightblue" stroke="midnightblue" points="1148.04,-244.63 1137.51,-243.52 1145.05,-250.96 1148.04,-244.63"/>
</g>
<!-- Node46&#45;&gt;Node8 -->
<g id="edge88" class="edge">
<title>Node46&#45;&gt;Node8</title>
<path fill="none" stroke="midnightblue" d="M1081.66,-224.44C1036.48,-214.24 961.48,-197.29 916.95,-187.23"/>
<polygon fill="midnightblue" stroke="midnightblue" points="917.65,-183.8 907.12,-185.01 916.11,-190.63 917.65,-183.8"/>
</g>
<!-- Node46&#45;&gt;Node14 -->
<g id="edge89" class="edge">
<title>Node46&#45;&gt;Node14</title>
<path fill="none" stroke="midnightblue" d="M1145.99,-224.44C1174.54,-215.21 1220.13,-200.47 1251.6,-190.29"/>
<polygon fill="midnightblue" stroke="midnightblue" points="1252.85,-193.57 1261.29,-187.16 1250.69,-186.91 1252.85,-193.57"/>
</g>
</g>
</svg>
