<?xml version="1.0" encoding="UTF-8" standalone="no"?>
<!DOCTYPE svg PUBLIC "-//W3C//DTD SVG 1.1//EN"
 "http://www.w3.org/Graphics/SVG/1.1/DTD/svg11.dtd">
<!-- Generated by graphviz version 2.44.0 ()
 -->
<!-- Title: src/platformabstraction/qt/qmewawindow.h Pages: 1 -->
<svg width="1696pt" height="431pt"
 viewBox="0.00 0.00 1695.74 431.00" xmlns="http://www.w3.org/2000/svg" xmlns:xlink="http://www.w3.org/1999/xlink">
<g id="graph0" class="graph" transform="scale(1 1) rotate(0) translate(4 427)">
<title>src/platformabstraction/qt/qmewawindow.h</title>
<!-- Node1 -->
<g id="node1" class="node">
<title>Node1</title>
<g id="a_node1"><a xlink:title=" ">
<polygon fill="#bfbfbf" stroke="black" points="588.16,-392.5 588.16,-422.5 704.16,-422.5 704.16,-392.5 588.16,-392.5"/>
<text text-anchor="start" x="596.16" y="-410.5" font-family="Helvetica,sans-Serif" font-size="10.00">src/platformabstraction</text>
<text text-anchor="middle" x="646.16" y="-399.5" font-family="Helvetica,sans-Serif" font-size="10.00">/qt/qmewawindow.h</text>
</a>
</g>
</g>
<!-- Node2 -->
<g id="node2" class="node">
<title>Node2</title>
<g id="a_node2"><a xlink:title=" ">
<polygon fill="none" stroke="#bfbfbf" points="522.66,-336.5 522.66,-355.5 617.66,-355.5 617.66,-336.5 522.66,-336.5"/>
<text text-anchor="middle" x="570.16" y="-343.5" font-family="Helvetica,sans-Serif" font-size="10.00">QOpenGLWindow</text>
</a>
</g>
</g>
<!-- Node1&#45;&gt;Node2 -->
<g id="edge1" class="edge">
<title>Node1&#45;&gt;Node2</title>
<path fill="none" stroke="midnightblue" d="M628.15,-392.4C616.42,-383.22 601.14,-371.26 589.21,-361.92"/>
<polygon fill="midnightblue" stroke="midnightblue" points="591.25,-359.07 581.22,-355.66 586.93,-364.58 591.25,-359.07"/>
</g>
<!-- Node3 -->
<g id="node3" class="node">
<title>Node3</title>
<g id="a_node3"><a xlink:href="mxiconatlas_8h.html" target="_top" xlink:title=" ">
<polygon fill="none" stroke="black" points="323.16,-280.5 323.16,-299.5 399.16,-299.5 399.16,-280.5 323.16,-280.5"/>
<text text-anchor="middle" x="361.16" y="-287.5" font-family="Helvetica,sans-Serif" font-size="10.00">mxiconatlas.h</text>
</a>
</g>
</g>
<!-- Node1&#45;&gt;Node3 -->
<g id="edge2" class="edge">
<title>Node1&#45;&gt;Node3</title>
<path fill="none" stroke="midnightblue" d="M646.55,-392.31C646.18,-376.21 642.92,-350.32 627.16,-336 595.96,-307.65 477.12,-296.92 409.31,-293.05"/>
<polygon fill="midnightblue" stroke="midnightblue" points="409.47,-289.55 399.29,-292.5 409.09,-296.54 409.47,-289.55"/>
</g>
<!-- Node18 -->
<g id="node18" class="node">
<title>Node18</title>
<g id="a_node18"><a xlink:href="mxapplication_8h.html" target="_top" xlink:title=" ">
<polygon fill="none" stroke="black" points="977.66,-336.5 977.66,-355.5 1060.66,-355.5 1060.66,-336.5 977.66,-336.5"/>
<text text-anchor="middle" x="1019.16" y="-343.5" font-family="Helvetica,sans-Serif" font-size="10.00">mxapplication.h</text>
</a>
</g>
</g>
<!-- Node1&#45;&gt;Node18 -->
<g id="edge20" class="edge">
<title>Node1&#45;&gt;Node18</title>
<path fill="none" stroke="midnightblue" d="M704.44,-397.2C776.55,-385.7 898.23,-366.29 967.26,-355.28"/>
<polygon fill="midnightblue" stroke="midnightblue" points="968.13,-358.68 977.46,-353.65 967.03,-351.77 968.13,-358.68"/>
</g>
<!-- Node4 -->
<g id="node4" class="node">
<title>Node4</title>
<g id="a_node4"><a xlink:href="mxabstractatlas_8h.html" target="_top" xlink:title=" ">
<polygon fill="none" stroke="black" points="207.66,-224.5 207.66,-243.5 300.66,-243.5 300.66,-224.5 207.66,-224.5"/>
<text text-anchor="middle" x="254.16" y="-231.5" font-family="Helvetica,sans-Serif" font-size="10.00">mxabstractatlas.h</text>
</a>
</g>
</g>
<!-- Node3&#45;&gt;Node4 -->
<g id="edge3" class="edge">
<title>Node3&#45;&gt;Node4</title>
<path fill="none" stroke="midnightblue" d="M343.97,-280.32C326.81,-271.66 300.21,-258.24 280.41,-248.25"/>
<polygon fill="midnightblue" stroke="midnightblue" points="281.81,-245.04 271.31,-243.65 278.66,-251.28 281.81,-245.04"/>
</g>
<!-- Node10 -->
<g id="node10" class="node">
<title>Node10</title>
<g id="a_node10"><a xlink:href="mxlist_8h.html" target="_top" xlink:title=" ">
<polygon fill="none" stroke="black" points="1456.16,-112.5 1456.16,-131.5 1506.16,-131.5 1506.16,-112.5 1456.16,-112.5"/>
<text text-anchor="middle" x="1481.16" y="-119.5" font-family="Helvetica,sans-Serif" font-size="10.00">mxlist.h</text>
</a>
</g>
</g>
<!-- Node3&#45;&gt;Node10 -->
<g id="edge10" class="edge">
<title>Node3&#45;&gt;Node10</title>
<path fill="none" stroke="midnightblue" d="M399.4,-287.33C542.77,-281 1043.85,-258.07 1114.16,-244 1164.47,-233.93 1283.37,-183.86 1332.16,-168 1371.06,-155.35 1416.06,-141.93 1446.34,-133.07"/>
<polygon fill="midnightblue" stroke="midnightblue" points="1447.39,-136.4 1456.01,-130.24 1445.43,-129.68 1447.39,-136.4"/>
</g>
<!-- Node15 -->
<g id="node15" class="node">
<title>Node15</title>
<g id="a_node15"><a xlink:title=" ">
<polygon fill="none" stroke="#bfbfbf" points="357.16,-224.5 357.16,-243.5 429.16,-243.5 429.16,-224.5 357.16,-224.5"/>
<text text-anchor="middle" x="393.16" y="-231.5" font-family="Helvetica,sans-Serif" font-size="10.00">mxrenderer.h</text>
</a>
</g>
</g>
<!-- Node3&#45;&gt;Node15 -->
<g id="edge16" class="edge">
<title>Node3&#45;&gt;Node15</title>
<path fill="none" stroke="midnightblue" d="M366.44,-280.08C370.87,-272.61 377.32,-261.72 382.78,-252.52"/>
<polygon fill="midnightblue" stroke="midnightblue" points="385.89,-254.14 387.97,-243.75 379.86,-250.57 385.89,-254.14"/>
</g>
<!-- Node16 -->
<g id="node16" class="node">
<title>Node16</title>
<g id="a_node16"><a xlink:href="mximage_8h.html" target="_top" xlink:title=" ">
<polygon fill="none" stroke="black" points="147.66,-168.5 147.66,-187.5 210.66,-187.5 210.66,-168.5 147.66,-168.5"/>
<text text-anchor="middle" x="179.16" y="-175.5" font-family="Helvetica,sans-Serif" font-size="10.00">mximage.h</text>
</a>
</g>
</g>
<!-- Node3&#45;&gt;Node16 -->
<g id="edge17" class="edge">
<title>Node3&#45;&gt;Node16</title>
<path fill="none" stroke="midnightblue" d="M323.01,-288.62C286.24,-286.18 231.41,-276.76 198.16,-244 186,-232.02 181.52,-212.72 179.92,-198.26"/>
<polygon fill="midnightblue" stroke="midnightblue" points="183.39,-197.65 179.17,-187.93 176.41,-198.16 183.39,-197.65"/>
</g>
<!-- Node17 -->
<g id="node17" class="node">
<title>Node17</title>
<g id="a_node17"><a xlink:href="mxthemeicons_8h.html" target="_top" xlink:title=" ">
<polygon fill="none" stroke="black" points="570.66,-168.5 570.66,-187.5 657.66,-187.5 657.66,-168.5 570.66,-168.5"/>
<text text-anchor="middle" x="614.16" y="-175.5" font-family="Helvetica,sans-Serif" font-size="10.00">mxthemeicons.h</text>
</a>
</g>
</g>
<!-- Node3&#45;&gt;Node17 -->
<g id="edge19" class="edge">
<title>Node3&#45;&gt;Node17</title>
<path fill="none" stroke="midnightblue" d="M355.41,-280.31C347.19,-266.68 334.49,-240.17 348.16,-224 374.76,-192.52 490.47,-183.06 560.22,-180.22"/>
<polygon fill="midnightblue" stroke="midnightblue" points="560.72,-183.7 570.58,-179.83 560.46,-176.7 560.72,-183.7"/>
</g>
<!-- Node5 -->
<g id="node5" class="node">
<title>Node5</title>
<g id="a_node5"><a xlink:href="mxrect_8h.html" target="_top" xlink:title=" ">
<polygon fill="none" stroke="black" points="932.66,-168.5 932.66,-187.5 985.66,-187.5 985.66,-168.5 932.66,-168.5"/>
<text text-anchor="middle" x="959.16" y="-175.5" font-family="Helvetica,sans-Serif" font-size="10.00">mxrect.h</text>
</a>
</g>
</g>
<!-- Node4&#45;&gt;Node5 -->
<g id="edge4" class="edge">
<title>Node4&#45;&gt;Node5</title>
<path fill="none" stroke="midnightblue" d="M301,-228.31C316.05,-226.86 332.8,-225.3 348.16,-224 565.78,-205.57 827.39,-187.75 922.41,-181.42"/>
<polygon fill="midnightblue" stroke="midnightblue" points="922.9,-184.9 932.64,-180.74 922.43,-177.92 922.9,-184.9"/>
</g>
<!-- Node9 -->
<g id="node9" class="node">
<title>Node9</title>
<g id="a_node9"><a xlink:title=" ">
<polygon fill="none" stroke="#bfbfbf" points="229.16,-168.5 229.16,-187.5 295.16,-187.5 295.16,-168.5 229.16,-168.5"/>
<text text-anchor="middle" x="262.16" y="-175.5" font-family="Helvetica,sans-Serif" font-size="10.00">mxtexture.h</text>
</a>
</g>
</g>
<!-- Node4&#45;&gt;Node9 -->
<g id="edge9" class="edge">
<title>Node4&#45;&gt;Node9</title>
<path fill="none" stroke="midnightblue" d="M255.48,-224.08C256.54,-216.93 258.06,-206.64 259.39,-197.69"/>
<polygon fill="midnightblue" stroke="midnightblue" points="262.86,-198.16 260.86,-187.75 255.93,-197.13 262.86,-198.16"/>
</g>
<!-- Node6 -->
<g id="node6" class="node">
<title>Node6</title>
<g id="a_node6"><a xlink:title=" ">
<polygon fill="none" stroke="#bfbfbf" points="1100.66,-0.5 1100.66,-19.5 1163.66,-19.5 1163.66,-0.5 1100.66,-0.5"/>
<text text-anchor="middle" x="1132.16" y="-7.5" font-family="Helvetica,sans-Serif" font-size="10.00">mxdebug.h</text>
</a>
</g>
</g>
<!-- Node5&#45;&gt;Node6 -->
<g id="edge5" class="edge">
<title>Node5&#45;&gt;Node6</title>
<path fill="none" stroke="midnightblue" d="M967,-168.39C974.84,-159.58 987,-145.34 996.16,-132 1018.12,-100 1010.85,-82.55 1039.16,-56 1054.8,-41.34 1076.1,-30.56 1094.38,-23.23"/>
<polygon fill="midnightblue" stroke="midnightblue" points="1095.79,-26.44 1103.89,-19.61 1093.3,-19.9 1095.79,-26.44"/>
</g>
<!-- Node7 -->
<g id="node7" class="node">
<title>Node7</title>
<g id="a_node7"><a xlink:href="mxvector_8h.html" target="_top" xlink:title=" ">
<polygon fill="none" stroke="black" points="849.16,-112.5 849.16,-131.5 913.16,-131.5 913.16,-112.5 849.16,-112.5"/>
<text text-anchor="middle" x="881.16" y="-119.5" font-family="Helvetica,sans-Serif" font-size="10.00">mxvector.h</text>
</a>
</g>
</g>
<!-- Node5&#45;&gt;Node7 -->
<g id="edge6" class="edge">
<title>Node5&#45;&gt;Node7</title>
<path fill="none" stroke="midnightblue" d="M946.63,-168.32C934.57,-159.98 916.13,-147.21 901.89,-137.35"/>
<polygon fill="midnightblue" stroke="midnightblue" points="903.87,-134.47 893.66,-131.65 899.89,-140.22 903.87,-134.47"/>
</g>
<!-- Node8 -->
<g id="node8" class="node">
<title>Node8</title>
<g id="a_node8"><a xlink:title=" ">
<polygon fill="none" stroke="#bfbfbf" points="931.16,-112.5 931.16,-131.5 987.16,-131.5 987.16,-112.5 931.16,-112.5"/>
<text text-anchor="middle" x="959.16" y="-119.5" font-family="Helvetica,sans-Serif" font-size="10.00">algorithm</text>
</a>
</g>
</g>
<!-- Node5&#45;&gt;Node8 -->
<g id="edge8" class="edge">
<title>Node5&#45;&gt;Node8</title>
<path fill="none" stroke="midnightblue" d="M959.16,-168.08C959.16,-161.01 959.16,-150.86 959.16,-141.99"/>
<polygon fill="midnightblue" stroke="midnightblue" points="962.66,-141.75 959.16,-131.75 955.66,-141.75 962.66,-141.75"/>
</g>
<!-- Node7&#45;&gt;Node6 -->
<g id="edge7" class="edge">
<title>Node7&#45;&gt;Node6</title>
<path fill="none" stroke="midnightblue" d="M895.18,-112.41C917.2,-99.15 961.46,-73.43 1001.16,-56 1031.33,-42.76 1066.72,-30.8 1093.11,-22.55"/>
<polygon fill="midnightblue" stroke="midnightblue" points="1094.23,-25.86 1102.75,-19.57 1092.17,-19.18 1094.23,-25.86"/>
</g>
<!-- Node10&#45;&gt;Node6 -->
<g id="edge11" class="edge">
<title>Node10&#45;&gt;Node6</title>
<path fill="none" stroke="midnightblue" d="M1456.06,-113.09C1395.43,-93.98 1240.74,-45.22 1169.32,-22.71"/>
<polygon fill="midnightblue" stroke="midnightblue" points="1170,-19.26 1159.41,-19.59 1167.9,-25.93 1170,-19.26"/>
</g>
<!-- Node11 -->
<g id="node11" class="node">
<title>Node11</title>
<g id="a_node11"><a xlink:href="mxrefcounter_8h.html" target="_top" xlink:title=" ">
<polygon fill="none" stroke="black" points="1503.16,-56.5 1503.16,-75.5 1583.16,-75.5 1583.16,-56.5 1503.16,-56.5"/>
<text text-anchor="middle" x="1543.16" y="-63.5" font-family="Helvetica,sans-Serif" font-size="10.00">mxrefcounter.h</text>
</a>
</g>
</g>
<!-- Node10&#45;&gt;Node11 -->
<g id="edge12" class="edge">
<title>Node10&#45;&gt;Node11</title>
<path fill="none" stroke="midnightblue" d="M1491.12,-112.32C1500.29,-104.34 1514.1,-92.31 1525.19,-82.65"/>
<polygon fill="midnightblue" stroke="midnightblue" points="1527.77,-85.04 1533.02,-75.83 1523.18,-79.76 1527.77,-85.04"/>
</g>
<!-- Node12 -->
<g id="node12" class="node">
<title>Node12</title>
<g id="a_node12"><a xlink:title=" ">
<polygon fill="none" stroke="#bfbfbf" points="1379.66,-0.5 1379.66,-19.5 1426.66,-19.5 1426.66,-0.5 1379.66,-0.5"/>
<text text-anchor="middle" x="1403.16" y="-7.5" font-family="Helvetica,sans-Serif" font-size="10.00">stdlib.h</text>
</a>
</g>
</g>
<!-- Node10&#45;&gt;Node12 -->
<g id="edge13" class="edge">
<title>Node10&#45;&gt;Node12</title>
<path fill="none" stroke="midnightblue" d="M1506.24,-119.85C1561.53,-116.44 1685.93,-103.41 1646.16,-56 1616.57,-20.73 1487.27,-29.18 1442.16,-20 1440.47,-19.66 1438.75,-19.3 1437.01,-18.92"/>
<polygon fill="midnightblue" stroke="midnightblue" points="1437.56,-15.46 1427.04,-16.72 1436.05,-22.3 1437.56,-15.46"/>
</g>
<!-- Node13 -->
<g id="node13" class="node">
<title>Node13</title>
<g id="a_node13"><a xlink:title=" ">
<polygon fill="none" stroke="#bfbfbf" points="1451.16,-0.5 1451.16,-19.5 1499.16,-19.5 1499.16,-0.5 1451.16,-0.5"/>
<text text-anchor="middle" x="1475.16" y="-7.5" font-family="Helvetica,sans-Serif" font-size="10.00">string.h</text>
</a>
</g>
</g>
<!-- Node10&#45;&gt;Node13 -->
<g id="edge14" class="edge">
<title>Node10&#45;&gt;Node13</title>
<path fill="none" stroke="midnightblue" d="M1506.21,-121.18C1569.18,-120.78 1725.84,-114.1 1679.16,-56 1658.28,-30.01 1562.19,-18.14 1509.67,-13.52"/>
<polygon fill="midnightblue" stroke="midnightblue" points="1509.74,-10.01 1499.48,-12.66 1509.15,-16.98 1509.74,-10.01"/>
</g>
<!-- Node14 -->
<g id="node14" class="node">
<title>Node14</title>
<g id="a_node14"><a xlink:title=" ">
<polygon fill="none" stroke="#bfbfbf" points="1601.66,-56.5 1601.66,-75.5 1636.66,-75.5 1636.66,-56.5 1601.66,-56.5"/>
<text text-anchor="middle" x="1619.16" y="-63.5" font-family="Helvetica,sans-Serif" font-size="10.00">new</text>
</a>
</g>
</g>
<!-- Node10&#45;&gt;Node14 -->
<g id="edge15" class="edge">
<title>Node10&#45;&gt;Node14</title>
<path fill="none" stroke="midnightblue" d="M1503.03,-112.44C1527.05,-103.04 1565.66,-87.93 1591.7,-77.74"/>
<polygon fill="midnightblue" stroke="midnightblue" points="1593.31,-80.87 1601.34,-73.97 1590.76,-74.36 1593.31,-80.87"/>
</g>
<!-- Node16&#45;&gt;Node7 -->
<g id="edge18" class="edge">
<title>Node16&#45;&gt;Node7</title>
<path fill="none" stroke="midnightblue" d="M210.86,-169.56C213.99,-168.97 217.13,-168.43 220.16,-168 452.16,-134.83 733.58,-125.95 838.79,-123.71"/>
<polygon fill="midnightblue" stroke="midnightblue" points="839.07,-127.21 849,-123.5 838.93,-120.21 839.07,-127.21"/>
</g>
<!-- Node18&#45;&gt;Node6 -->
<g id="edge21" class="edge">
<title>Node18&#45;&gt;Node6</title>
<path fill="none" stroke="midnightblue" d="M1060.76,-339.05C1103.23,-332.02 1164.87,-318.86 1179.16,-300 1242.06,-216.96 1132.3,-177.79 1110.16,-76 1108.27,-67.31 1108.16,-64.66 1110.16,-56 1112.39,-46.36 1116.98,-36.41 1121.4,-28.31"/>
<polygon fill="midnightblue" stroke="midnightblue" points="1124.51,-29.92 1126.52,-19.52 1118.46,-26.4 1124.51,-29.92"/>
</g>
<!-- Node19 -->
<g id="node19" class="node">
<title>Node19</title>
<g id="a_node19"><a xlink:href="mxwidgetlist_8h.html" target="_top" xlink:title=" ">
<polygon fill="none" stroke="black" points="1301.16,-280.5 1301.16,-299.5 1379.16,-299.5 1379.16,-280.5 1301.16,-280.5"/>
<text text-anchor="middle" x="1340.16" y="-287.5" font-family="Helvetica,sans-Serif" font-size="10.00">mxwidgetlist.h</text>
</a>
</g>
</g>
<!-- Node18&#45;&gt;Node19 -->
<g id="edge22" class="edge">
<title>Node18&#45;&gt;Node19</title>
<path fill="none" stroke="midnightblue" d="M1060.8,-338C1119.93,-328.05 1228.04,-309.86 1291.03,-299.27"/>
<polygon fill="midnightblue" stroke="midnightblue" points="1291.83,-302.68 1301.11,-297.57 1290.67,-295.78 1291.83,-302.68"/>
</g>
<!-- Node20 -->
<g id="node20" class="node">
<title>Node20</title>
<g id="a_node20"><a xlink:href="mxguirenderer_8h.html" target="_top" xlink:title=" ">
<polygon fill="none" stroke="black" points="584.66,-280.5 584.66,-299.5 669.66,-299.5 669.66,-280.5 584.66,-280.5"/>
<text text-anchor="middle" x="627.16" y="-287.5" font-family="Helvetica,sans-Serif" font-size="10.00">mxguirenderer.h</text>
</a>
</g>
</g>
<!-- Node18&#45;&gt;Node20 -->
<g id="edge24" class="edge">
<title>Node18&#45;&gt;Node20</title>
<path fill="none" stroke="midnightblue" d="M977.58,-339.27C905.83,-329.39 758.88,-309.15 680,-298.28"/>
<polygon fill="midnightblue" stroke="midnightblue" points="680.18,-294.77 669.79,-296.87 679.22,-301.71 680.18,-294.77"/>
</g>
<!-- Node25 -->
<g id="node25" class="node">
<title>Node25</title>
<g id="a_node25"><a xlink:href="mxmouseevent_8h.html" target="_top" xlink:title=" ">
<polygon fill="none" stroke="black" points="37.16,-280.5 37.16,-299.5 127.16,-299.5 127.16,-280.5 37.16,-280.5"/>
<text text-anchor="middle" x="82.16" y="-287.5" font-family="Helvetica,sans-Serif" font-size="10.00">mxmouseevent.h</text>
</a>
</g>
</g>
<!-- Node18&#45;&gt;Node25 -->
<g id="edge30" class="edge">
<title>Node18&#45;&gt;Node25</title>
<path fill="none" stroke="midnightblue" d="M977.38,-342.59C826.34,-333.89 308.49,-304.04 137.47,-294.19"/>
<polygon fill="midnightblue" stroke="midnightblue" points="137.61,-290.69 127.43,-293.61 137.21,-297.68 137.61,-290.69"/>
</g>
<!-- Node27 -->
<g id="node27" class="node">
<title>Node27</title>
<g id="a_node27"><a xlink:href="mxpainter_8h.html" target="_top" xlink:title=" ">
<polygon fill="none" stroke="black" points="986.16,-280.5 986.16,-299.5 1052.16,-299.5 1052.16,-280.5 986.16,-280.5"/>
<text text-anchor="middle" x="1019.16" y="-287.5" font-family="Helvetica,sans-Serif" font-size="10.00">mxpainter.h</text>
</a>
</g>
</g>
<!-- Node18&#45;&gt;Node27 -->
<g id="edge33" class="edge">
<title>Node18&#45;&gt;Node27</title>
<path fill="none" stroke="midnightblue" d="M1019.16,-336.08C1019.16,-329.01 1019.16,-318.86 1019.16,-309.99"/>
<polygon fill="midnightblue" stroke="midnightblue" points="1022.66,-309.75 1019.16,-299.75 1015.66,-309.75 1022.66,-309.75"/>
</g>
<!-- Node35 -->
<g id="node35" class="node">
<title>Node35</title>
<g id="a_node35"><a xlink:href="mxguiaggregation_8h.html" target="_top" xlink:title=" ">
<polygon fill="none" stroke="black" points="1070.16,-280.5 1070.16,-299.5 1170.16,-299.5 1170.16,-280.5 1070.16,-280.5"/>
<text text-anchor="middle" x="1120.16" y="-287.5" font-family="Helvetica,sans-Serif" font-size="10.00">mxguiaggregation.h</text>
</a>
</g>
</g>
<!-- Node18&#45;&gt;Node35 -->
<g id="edge56" class="edge">
<title>Node18&#45;&gt;Node35</title>
<path fill="none" stroke="midnightblue" d="M1035.39,-336.32C1051.51,-327.7 1076.46,-314.36 1095.12,-304.39"/>
<polygon fill="midnightblue" stroke="midnightblue" points="1096.8,-307.46 1103.97,-299.65 1093.5,-301.28 1096.8,-307.46"/>
</g>
<!-- Node19&#45;&gt;Node10 -->
<g id="edge23" class="edge">
<title>Node19&#45;&gt;Node10</title>
<path fill="none" stroke="midnightblue" d="M1347.74,-280.08C1370.41,-253.38 1437.95,-173.87 1467.3,-139.32"/>
<polygon fill="midnightblue" stroke="midnightblue" points="1470.08,-141.46 1473.88,-131.57 1464.74,-136.92 1470.08,-141.46"/>
</g>
<!-- Node20&#45;&gt;Node15 -->
<g id="edge26" class="edge">
<title>Node20&#45;&gt;Node15</title>
<path fill="none" stroke="midnightblue" d="M590.08,-280.44C549.19,-271.01 483.36,-255.82 439.2,-245.62"/>
<polygon fill="midnightblue" stroke="midnightblue" points="439.83,-242.18 429.29,-243.34 438.25,-249 439.83,-242.18"/>
</g>
<!-- Node21 -->
<g id="node21" class="node">
<title>Node21</title>
<g id="a_node21"><a xlink:href="mxbuffer_8h.html" target="_top" xlink:title=" ">
<polygon fill="none" stroke="black" points="636.66,-224.5 636.66,-243.5 697.66,-243.5 697.66,-224.5 636.66,-224.5"/>
<text text-anchor="middle" x="667.16" y="-231.5" font-family="Helvetica,sans-Serif" font-size="10.00">mxbuffer.h</text>
</a>
</g>
</g>
<!-- Node20&#45;&gt;Node21 -->
<g id="edge25" class="edge">
<title>Node20&#45;&gt;Node21</title>
<path fill="none" stroke="midnightblue" d="M633.76,-280.08C639.41,-272.46 647.7,-261.26 654.61,-251.94"/>
<polygon fill="midnightblue" stroke="midnightblue" points="657.54,-253.87 660.68,-243.75 651.91,-249.7 657.54,-253.87"/>
</g>
<!-- Node22 -->
<g id="node22" class="node">
<title>Node22</title>
<g id="a_node22"><a xlink:title=" ">
<polygon fill="none" stroke="#bfbfbf" points="715.66,-224.5 715.66,-243.5 814.66,-243.5 814.66,-224.5 715.66,-224.5"/>
<text text-anchor="middle" x="765.16" y="-231.5" font-family="Helvetica,sans-Serif" font-size="10.00">mxvectorprogram.h</text>
</a>
</g>
</g>
<!-- Node20&#45;&gt;Node22 -->
<g id="edge27" class="edge">
<title>Node20&#45;&gt;Node22</title>
<path fill="none" stroke="midnightblue" d="M649.03,-280.44C671.94,-271.48 708.13,-257.31 734.03,-247.18"/>
<polygon fill="midnightblue" stroke="midnightblue" points="735.36,-250.42 743.39,-243.52 732.81,-243.9 735.36,-250.42"/>
</g>
<!-- Node23 -->
<g id="node23" class="node">
<title>Node23</title>
<g id="a_node23"><a xlink:title=" ">
<polygon fill="none" stroke="#bfbfbf" points="447.16,-224.5 447.16,-243.5 537.16,-243.5 537.16,-224.5 447.16,-224.5"/>
<text text-anchor="middle" x="492.16" y="-231.5" font-family="Helvetica,sans-Serif" font-size="10.00">mxiconprogram.h</text>
</a>
</g>
</g>
<!-- Node20&#45;&gt;Node23 -->
<g id="edge28" class="edge">
<title>Node20&#45;&gt;Node23</title>
<path fill="none" stroke="midnightblue" d="M605.77,-280.44C583.45,-271.52 548.26,-257.44 522.95,-247.32"/>
<polygon fill="midnightblue" stroke="midnightblue" points="524.03,-243.98 513.45,-243.52 521.44,-250.48 524.03,-243.98"/>
</g>
<!-- Node24 -->
<g id="node24" class="node">
<title>Node24</title>
<g id="a_node24"><a xlink:href="mxmatrix_8h.html" target="_top" xlink:title=" ">
<polygon fill="none" stroke="black" points="555.66,-224.5 555.66,-243.5 618.66,-243.5 618.66,-224.5 555.66,-224.5"/>
<text text-anchor="middle" x="587.16" y="-231.5" font-family="Helvetica,sans-Serif" font-size="10.00">mxmatrix.h</text>
</a>
</g>
</g>
<!-- Node20&#45;&gt;Node24 -->
<g id="edge29" class="edge">
<title>Node20&#45;&gt;Node24</title>
<path fill="none" stroke="midnightblue" d="M620.55,-280.08C614.9,-272.46 606.61,-261.26 599.71,-251.94"/>
<polygon fill="midnightblue" stroke="midnightblue" points="602.41,-249.7 593.64,-243.75 596.78,-253.87 602.41,-249.7"/>
</g>
<!-- Node25&#45;&gt;Node7 -->
<g id="edge31" class="edge">
<title>Node25&#45;&gt;Node7</title>
<path fill="none" stroke="midnightblue" d="M56.29,-280.46C27.63,-269.54 -12.5,-249.02 4.16,-224 39.93,-170.27 75.28,-182.6 138.16,-168 272.96,-136.7 702.24,-126.27 838.93,-123.7"/>
<polygon fill="midnightblue" stroke="midnightblue" points="839.07,-127.2 849,-123.52 838.94,-120.2 839.07,-127.2"/>
</g>
<!-- Node26 -->
<g id="node26" class="node">
<title>Node26</title>
<g id="a_node26"><a xlink:title=" ">
<polygon fill="none" stroke="#bfbfbf" points="13.16,-224.5 13.16,-243.5 151.16,-243.5 151.16,-224.5 13.16,-224.5"/>
<text text-anchor="middle" x="82.16" y="-231.5" font-family="Helvetica,sans-Serif" font-size="10.00">mxmouseeventabstraction.h</text>
</a>
</g>
</g>
<!-- Node25&#45;&gt;Node26 -->
<g id="edge32" class="edge">
<title>Node25&#45;&gt;Node26</title>
<path fill="none" stroke="midnightblue" d="M82.16,-280.08C82.16,-273.01 82.16,-262.86 82.16,-253.99"/>
<polygon fill="midnightblue" stroke="midnightblue" points="85.66,-253.75 82.16,-243.75 78.66,-253.75 85.66,-253.75"/>
</g>
<!-- Node27&#45;&gt;Node6 -->
<g id="edge34" class="edge">
<title>Node27&#45;&gt;Node6</title>
<path fill="none" stroke="midnightblue" d="M1044.51,-280.47C1069.87,-271.38 1106.21,-256.57 1114.16,-244 1118.91,-236.49 1117.83,-232.1 1114.16,-224 1104.16,-201.91 1083.16,-210.09 1073.16,-188 1061.26,-161.72 1016.14,-179.05 1077.16,-56 1083.56,-43.09 1095.57,-32.6 1106.73,-25"/>
<polygon fill="midnightblue" stroke="midnightblue" points="1108.8,-27.83 1115.38,-19.54 1105.06,-21.92 1108.8,-27.83"/>
</g>
<!-- Node27&#45;&gt;Node10 -->
<g id="edge37" class="edge">
<title>Node27&#45;&gt;Node10</title>
<path fill="none" stroke="midnightblue" d="M1052.28,-281.3C1086.04,-273.15 1139.76,-259.37 1185.16,-244 1285.69,-209.97 1401.15,-159.29 1453.17,-135.8"/>
<polygon fill="midnightblue" stroke="midnightblue" points="1454.76,-138.92 1462.42,-131.61 1451.87,-132.55 1454.76,-138.92"/>
</g>
<!-- Node28 -->
<g id="node28" class="node">
<title>Node28</title>
<g id="a_node28"><a xlink:href="mxvectordraw_8h.html" target="_top" xlink:title=" ">
<polygon fill="none" stroke="black" points="927.66,-224.5 927.66,-243.5 1012.66,-243.5 1012.66,-224.5 927.66,-224.5"/>
<text text-anchor="middle" x="970.16" y="-231.5" font-family="Helvetica,sans-Serif" font-size="10.00">mxvectordraw.h</text>
</a>
</g>
</g>
<!-- Node27&#45;&gt;Node28 -->
<g id="edge35" class="edge">
<title>Node27&#45;&gt;Node28</title>
<path fill="none" stroke="midnightblue" d="M1011.07,-280.08C1004,-272.3 993.57,-260.8 985.01,-251.37"/>
<polygon fill="midnightblue" stroke="midnightblue" points="987.41,-248.8 978.1,-243.75 982.23,-253.51 987.41,-248.8"/>
</g>
<!-- Node29 -->
<g id="node29" class="node">
<title>Node29</title>
<g id="a_node29"><a xlink:href="mxtextdraw_8h.html" target="_top" xlink:title=" ">
<polygon fill="none" stroke="black" points="1031.16,-224.5 1031.16,-243.5 1105.16,-243.5 1105.16,-224.5 1031.16,-224.5"/>
<text text-anchor="middle" x="1068.16" y="-231.5" font-family="Helvetica,sans-Serif" font-size="10.00">mxtextdraw.h</text>
</a>
</g>
</g>
<!-- Node27&#45;&gt;Node29 -->
<g id="edge38" class="edge">
<title>Node27&#45;&gt;Node29</title>
<path fill="none" stroke="midnightblue" d="M1027.25,-280.08C1034.31,-272.3 1044.75,-260.8 1053.31,-251.37"/>
<polygon fill="midnightblue" stroke="midnightblue" points="1056.09,-253.51 1060.22,-243.75 1050.91,-248.8 1056.09,-253.51"/>
</g>
<!-- Node34 -->
<g id="node34" class="node">
<title>Node34</title>
<g id="a_node34"><a xlink:href="mxicondraw_8h.html" target="_top" xlink:title=" ">
<polygon fill="none" stroke="black" points="833.16,-224.5 833.16,-243.5 909.16,-243.5 909.16,-224.5 833.16,-224.5"/>
<text text-anchor="middle" x="871.16" y="-231.5" font-family="Helvetica,sans-Serif" font-size="10.00">mxicondraw.h</text>
</a>
</g>
</g>
<!-- Node27&#45;&gt;Node34 -->
<g id="edge53" class="edge">
<title>Node27&#45;&gt;Node34</title>
<path fill="none" stroke="midnightblue" d="M995.71,-280.44C971.03,-271.44 931.97,-257.19 904.18,-247.05"/>
<polygon fill="midnightblue" stroke="midnightblue" points="905.09,-243.66 894.5,-243.52 902.69,-250.23 905.09,-243.66"/>
</g>
<!-- Node28&#45;&gt;Node5 -->
<g id="edge36" class="edge">
<title>Node28&#45;&gt;Node5</title>
<path fill="none" stroke="midnightblue" d="M968.34,-224.08C966.88,-216.93 964.79,-206.64 962.97,-197.69"/>
<polygon fill="midnightblue" stroke="midnightblue" points="966.37,-196.85 960.94,-187.75 959.51,-198.25 966.37,-196.85"/>
</g>
<!-- Node29&#45;&gt;Node5 -->
<g id="edge40" class="edge">
<title>Node29&#45;&gt;Node5</title>
<path fill="none" stroke="midnightblue" d="M1050.65,-224.32C1033.09,-215.62 1005.83,-202.12 985.63,-192.11"/>
<polygon fill="midnightblue" stroke="midnightblue" points="987.14,-188.96 976.63,-187.65 984.04,-195.23 987.14,-188.96"/>
</g>
<!-- Node29&#45;&gt;Node7 -->
<g id="edge39" class="edge">
<title>Node29&#45;&gt;Node7</title>
<path fill="none" stroke="midnightblue" d="M1060.39,-224.35C1047.83,-210.79 1021.75,-184.37 995.16,-168 971.96,-153.72 943.44,-142.47 920.74,-134.78"/>
<polygon fill="midnightblue" stroke="midnightblue" points="921.67,-131.41 911.07,-131.61 919.48,-138.06 921.67,-131.41"/>
</g>
<!-- Node30 -->
<g id="node30" class="node">
<title>Node30</title>
<g id="a_node30"><a xlink:href="mxstring_8h.html" target="_top" xlink:title=" ">
<polygon fill="none" stroke="black" points="1081.66,-168.5 1081.66,-187.5 1142.66,-187.5 1142.66,-168.5 1081.66,-168.5"/>
<text text-anchor="middle" x="1112.16" y="-175.5" font-family="Helvetica,sans-Serif" font-size="10.00">mxstring.h</text>
</a>
</g>
</g>
<!-- Node29&#45;&gt;Node30 -->
<g id="edge41" class="edge">
<title>Node29&#45;&gt;Node30</title>
<path fill="none" stroke="midnightblue" d="M1075.42,-224.08C1081.7,-216.38 1090.95,-205.03 1098.59,-195.65"/>
<polygon fill="midnightblue" stroke="midnightblue" points="1101.43,-197.71 1105.03,-187.75 1096,-193.29 1101.43,-197.71"/>
</g>
<!-- Node31 -->
<g id="node31" class="node">
<title>Node31</title>
<g id="a_node31"><a xlink:href="mxgenericstring_8h.html" target="_top" xlink:title=" ">
<polygon fill="none" stroke="black" points="1285.16,-112.5 1285.16,-131.5 1377.16,-131.5 1377.16,-112.5 1285.16,-112.5"/>
<text text-anchor="middle" x="1331.16" y="-119.5" font-family="Helvetica,sans-Serif" font-size="10.00">mxgenericstring.h</text>
</a>
</g>
</g>
<!-- Node30&#45;&gt;Node31 -->
<g id="edge42" class="edge">
<title>Node30&#45;&gt;Node31</title>
<path fill="none" stroke="midnightblue" d="M1143.07,-169.38C1180.51,-160.15 1243.86,-144.53 1286.58,-133.99"/>
<polygon fill="midnightblue" stroke="midnightblue" points="1287.56,-137.36 1296.43,-131.56 1285.88,-130.56 1287.56,-137.36"/>
</g>
<!-- Node31&#45;&gt;Node6 -->
<g id="edge43" class="edge">
<title>Node31&#45;&gt;Node6</title>
<path fill="none" stroke="midnightblue" d="M1320.2,-112.47C1302.97,-99.29 1268.18,-73.67 1236.16,-56 1213.11,-43.28 1185.74,-31.57 1164.87,-23.28"/>
<polygon fill="midnightblue" stroke="midnightblue" points="1166.07,-19.99 1155.48,-19.61 1163.52,-26.51 1166.07,-19.99"/>
</g>
<!-- Node31&#45;&gt;Node11 -->
<g id="edge44" class="edge">
<title>Node31&#45;&gt;Node11</title>
<path fill="none" stroke="midnightblue" d="M1364.75,-112.44C1401.35,-103.12 1460,-88.18 1499.98,-78"/>
<polygon fill="midnightblue" stroke="midnightblue" points="1500.9,-81.38 1509.72,-75.52 1499.17,-74.59 1500.9,-81.38"/>
</g>
<!-- Node31&#45;&gt;Node12 -->
<g id="edge51" class="edge">
<title>Node31&#45;&gt;Node12</title>
<path fill="none" stroke="midnightblue" d="M1332.26,-112.36C1334.26,-99.26 1339.42,-74 1351.16,-56 1358.9,-44.13 1370.65,-33.58 1381.02,-25.7"/>
<polygon fill="midnightblue" stroke="midnightblue" points="1383.24,-28.41 1389.29,-19.72 1379.14,-22.74 1383.24,-28.41"/>
</g>
<!-- Node31&#45;&gt;Node13 -->
<g id="edge52" class="edge">
<title>Node31&#45;&gt;Node13</title>
<path fill="none" stroke="midnightblue" d="M1377.26,-114.9C1403.7,-109.1 1435.62,-97.84 1456.16,-76 1467.85,-63.57 1472.4,-44.33 1474.14,-30"/>
<polygon fill="midnightblue" stroke="midnightblue" points="1477.64,-30.06 1475.01,-19.79 1470.67,-29.46 1477.64,-30.06"/>
</g>
<!-- Node32 -->
<g id="node32" class="node">
<title>Node32</title>
<g id="a_node32"><a xlink:href="mxbytearrayref_8h.html" target="_top" xlink:title=" ">
<polygon fill="none" stroke="black" points="1359.66,-56.5 1359.66,-75.5 1446.66,-75.5 1446.66,-56.5 1359.66,-56.5"/>
<text text-anchor="middle" x="1403.16" y="-63.5" font-family="Helvetica,sans-Serif" font-size="10.00">mxbytearrayref.h</text>
</a>
</g>
</g>
<!-- Node31&#45;&gt;Node32 -->
<g id="edge45" class="edge">
<title>Node31&#45;&gt;Node32</title>
<path fill="none" stroke="midnightblue" d="M1342.73,-112.32C1353.58,-104.18 1370.04,-91.84 1383.04,-82.09"/>
<polygon fill="midnightblue" stroke="midnightblue" points="1385.48,-84.63 1391.38,-75.83 1381.28,-79.03 1385.48,-84.63"/>
</g>
<!-- Node33 -->
<g id="node33" class="node">
<title>Node33</title>
<g id="a_node33"><a xlink:href="mxgenericsubstring_8h.html" target="_top" xlink:title=" ">
<polygon fill="none" stroke="black" points="1119.16,-56.5 1119.16,-75.5 1227.16,-75.5 1227.16,-56.5 1119.16,-56.5"/>
<text text-anchor="middle" x="1173.16" y="-63.5" font-family="Helvetica,sans-Serif" font-size="10.00">mxgenericsubstring.h</text>
</a>
</g>
</g>
<!-- Node31&#45;&gt;Node33 -->
<g id="edge49" class="edge">
<title>Node31&#45;&gt;Node33</title>
<path fill="none" stroke="midnightblue" d="M1306.12,-112.44C1279.54,-103.36 1237.35,-88.94 1207.64,-78.78"/>
<polygon fill="midnightblue" stroke="midnightblue" points="1208.67,-75.44 1198.08,-75.52 1206.41,-82.06 1208.67,-75.44"/>
</g>
<!-- Node32&#45;&gt;Node6 -->
<g id="edge46" class="edge">
<title>Node32&#45;&gt;Node6</title>
<path fill="none" stroke="midnightblue" d="M1360.22,-56.44C1309.11,-46.26 1224.36,-29.37 1173.83,-19.3"/>
<polygon fill="midnightblue" stroke="midnightblue" points="1174.38,-15.84 1163.89,-17.32 1173.01,-22.71 1174.38,-15.84"/>
</g>
<!-- Node32&#45;&gt;Node12 -->
<g id="edge47" class="edge">
<title>Node32&#45;&gt;Node12</title>
<path fill="none" stroke="midnightblue" d="M1403.16,-56.08C1403.16,-49.01 1403.16,-38.86 1403.16,-29.99"/>
<polygon fill="midnightblue" stroke="midnightblue" points="1406.66,-29.75 1403.16,-19.75 1399.66,-29.75 1406.66,-29.75"/>
</g>
<!-- Node32&#45;&gt;Node13 -->
<g id="edge48" class="edge">
<title>Node32&#45;&gt;Node13</title>
<path fill="none" stroke="midnightblue" d="M1414.73,-56.32C1425.58,-48.18 1442.04,-35.84 1455.04,-26.09"/>
<polygon fill="midnightblue" stroke="midnightblue" points="1457.48,-28.63 1463.38,-19.83 1453.28,-23.03 1457.48,-28.63"/>
</g>
<!-- Node33&#45;&gt;Node6 -->
<g id="edge50" class="edge">
<title>Node33&#45;&gt;Node6</title>
<path fill="none" stroke="midnightblue" d="M1166.39,-56.08C1160.6,-48.46 1152.1,-37.26 1145.02,-27.94"/>
<polygon fill="midnightblue" stroke="midnightblue" points="1147.64,-25.6 1138.8,-19.75 1142.06,-29.83 1147.64,-25.6"/>
</g>
<!-- Node34&#45;&gt;Node5 -->
<g id="edge55" class="edge">
<title>Node34&#45;&gt;Node5</title>
<path fill="none" stroke="midnightblue" d="M885.3,-224.32C899.03,-215.9 920.1,-202.97 936.22,-193.07"/>
<polygon fill="midnightblue" stroke="midnightblue" points="938.36,-195.87 945.06,-187.65 934.7,-189.9 938.36,-195.87"/>
</g>
<!-- Node34&#45;&gt;Node17 -->
<g id="edge54" class="edge">
<title>Node34&#45;&gt;Node17</title>
<path fill="none" stroke="midnightblue" d="M832.96,-224.97C788.22,-215.57 713.95,-199.97 664.53,-189.58"/>
<polygon fill="midnightblue" stroke="midnightblue" points="665.2,-186.15 654.69,-187.52 663.76,-193 665.2,-186.15"/>
</g>
</g>
</svg>
