<?xml version="1.0" encoding="UTF-8" standalone="no"?>
<!DOCTYPE svg PUBLIC "-//W3C//DTD SVG 1.1//EN"
 "http://www.w3.org/Graphics/SVG/1.1/DTD/svg11.dtd">
<!-- Generated by graphviz version 2.44.0 ()
 -->
<!-- Title: src/pluginsdk/qmewapluginwindow.cpp Pages: 1 -->
<svg width="604pt" height="308pt"
 viewBox="0.00 0.00 603.50 308.00" xmlns="http://www.w3.org/2000/svg" xmlns:xlink="http://www.w3.org/1999/xlink">
<g id="graph0" class="graph" transform="scale(1 1) rotate(0) translate(4 304)">
<title>src/pluginsdk/qmewapluginwindow.cpp</title>
<!-- Node1 -->
<g id="node1" class="node">
<title>Node1</title>
<g id="a_node1"><a xlink:title=" ">
<polygon fill="#bfbfbf" stroke="black" points="293.5,-280.5 293.5,-299.5 478.5,-299.5 478.5,-280.5 293.5,-280.5"/>
<text text-anchor="middle" x="386" y="-287.5" font-family="Helvetica,sans-Serif" font-size="10.00">src/pluginsdk/qmewapluginwindow.cpp</text>
</a>
</g>
</g>
<!-- Node2 -->
<g id="node2" class="node">
<title>Node2</title>
<g id="a_node2"><a xlink:title=" ">
<polygon fill="none" stroke="#bfbfbf" points="191,-224.5 191,-243.5 269,-243.5 269,-224.5 191,-224.5"/>
<text text-anchor="middle" x="230" y="-231.5" font-family="Helvetica,sans-Serif" font-size="10.00">QMouseEvent</text>
</a>
</g>
</g>
<!-- Node1&#45;&gt;Node2 -->
<g id="edge1" class="edge">
<title>Node1&#45;&gt;Node2</title>
<path fill="none" stroke="midnightblue" d="M361.28,-280.44C335.15,-271.4 293.74,-257.06 264.42,-246.92"/>
<polygon fill="midnightblue" stroke="midnightblue" points="265.2,-243.48 254.6,-243.52 262.91,-250.1 265.2,-243.48"/>
</g>
<!-- Node3 -->
<g id="node3" class="node">
<title>Node3</title>
<g id="a_node3"><a xlink:href="qmewapluginwindow_8h.html" target="_top" xlink:title=" ">
<polygon fill="none" stroke="black" points="287,-224.5 287,-243.5 401,-243.5 401,-224.5 287,-224.5"/>
<text text-anchor="middle" x="344" y="-231.5" font-family="Helvetica,sans-Serif" font-size="10.00">qmewapluginwindow.h</text>
</a>
</g>
</g>
<!-- Node1&#45;&gt;Node3 -->
<g id="edge2" class="edge">
<title>Node1&#45;&gt;Node3</title>
<path fill="none" stroke="midnightblue" d="M379.06,-280.08C373.07,-272.38 364.25,-261.03 356.95,-251.65"/>
<polygon fill="midnightblue" stroke="midnightblue" points="359.71,-249.5 350.81,-243.75 354.18,-253.79 359.71,-249.5"/>
</g>
<!-- Node19 -->
<g id="node19" class="node">
<title>Node19</title>
<g id="a_node19"><a xlink:href="mxinputs_8h.html" target="_top" xlink:title=" ">
<polygon fill="none" stroke="black" points="409.5,-168.5 409.5,-187.5 472.5,-187.5 472.5,-168.5 409.5,-168.5"/>
<text text-anchor="middle" x="441" y="-175.5" font-family="Helvetica,sans-Serif" font-size="10.00">mxinputs.h</text>
</a>
</g>
</g>
<!-- Node1&#45;&gt;Node19 -->
<g id="edge19" class="edge">
<title>Node1&#45;&gt;Node19</title>
<path fill="none" stroke="midnightblue" d="M390.72,-280.43C395.64,-271.42 403.54,-256.8 410,-244 417.91,-228.32 426.47,-210.28 432.59,-197.19"/>
<polygon fill="midnightblue" stroke="midnightblue" points="435.87,-198.44 436.91,-187.89 429.52,-195.49 435.87,-198.44"/>
</g>
<!-- Node20 -->
<g id="node20" class="node">
<title>Node20</title>
<g id="a_node20"><a xlink:href="mxplugin_8h.html" target="_top" xlink:title=" ">
<polygon fill="none" stroke="black" points="457,-224.5 457,-243.5 519,-243.5 519,-224.5 457,-224.5"/>
<text text-anchor="middle" x="488" y="-231.5" font-family="Helvetica,sans-Serif" font-size="10.00">mxplugin.h</text>
</a>
</g>
</g>
<!-- Node1&#45;&gt;Node20 -->
<g id="edge21" class="edge">
<title>Node1&#45;&gt;Node20</title>
<path fill="none" stroke="midnightblue" d="M402.39,-280.32C418.67,-271.7 443.87,-258.36 462.72,-248.39"/>
<polygon fill="midnightblue" stroke="midnightblue" points="464.45,-251.43 471.65,-243.65 461.18,-245.24 464.45,-251.43"/>
</g>
<!-- Node4 -->
<g id="node4" class="node">
<title>Node4</title>
<g id="a_node4"><a xlink:title=" ">
<polygon fill="none" stroke="#bfbfbf" points="296.5,-168.5 296.5,-187.5 391.5,-187.5 391.5,-168.5 296.5,-168.5"/>
<text text-anchor="middle" x="344" y="-175.5" font-family="Helvetica,sans-Serif" font-size="10.00">QOpenGLWindow</text>
</a>
</g>
</g>
<!-- Node3&#45;&gt;Node4 -->
<g id="edge3" class="edge">
<title>Node3&#45;&gt;Node4</title>
<path fill="none" stroke="midnightblue" d="M344,-224.08C344,-217.01 344,-206.86 344,-197.99"/>
<polygon fill="midnightblue" stroke="midnightblue" points="347.5,-197.75 344,-187.75 340.5,-197.75 347.5,-197.75"/>
</g>
<!-- Node5 -->
<g id="node5" class="node">
<title>Node5</title>
<g id="a_node5"><a xlink:href="mxrenderer_8h.html" target="_top" xlink:title=" ">
<polygon fill="none" stroke="black" points="206,-168.5 206,-187.5 278,-187.5 278,-168.5 206,-168.5"/>
<text text-anchor="middle" x="242" y="-175.5" font-family="Helvetica,sans-Serif" font-size="10.00">mxrenderer.h</text>
</a>
</g>
</g>
<!-- Node3&#45;&gt;Node5 -->
<g id="edge4" class="edge">
<title>Node3&#45;&gt;Node5</title>
<path fill="none" stroke="midnightblue" d="M327.61,-224.32C311.33,-215.7 286.13,-202.36 267.28,-192.39"/>
<polygon fill="midnightblue" stroke="midnightblue" points="268.82,-189.24 258.35,-187.65 265.55,-195.43 268.82,-189.24"/>
</g>
<!-- Node6 -->
<g id="node6" class="node">
<title>Node6</title>
<g id="a_node6"><a xlink:href="mxlist_8h.html" target="_top" xlink:title=" ">
<polygon fill="none" stroke="black" points="329,-112.5 329,-131.5 379,-131.5 379,-112.5 329,-112.5"/>
<text text-anchor="middle" x="354" y="-119.5" font-family="Helvetica,sans-Serif" font-size="10.00">mxlist.h</text>
</a>
</g>
</g>
<!-- Node5&#45;&gt;Node6 -->
<g id="edge5" class="edge">
<title>Node5&#45;&gt;Node6</title>
<path fill="none" stroke="midnightblue" d="M259.99,-168.32C278.04,-159.62 306.05,-146.12 326.8,-136.11"/>
<polygon fill="midnightblue" stroke="midnightblue" points="328.56,-139.15 336.05,-131.65 325.52,-132.84 328.56,-139.15"/>
</g>
<!-- Node12 -->
<g id="node12" class="node">
<title>Node12</title>
<g id="a_node12"><a xlink:href="mxgpuarray_8h.html" target="_top" xlink:title=" ">
<polygon fill="none" stroke="black" points="10,-112.5 10,-131.5 84,-131.5 84,-112.5 10,-112.5"/>
<text text-anchor="middle" x="47" y="-119.5" font-family="Helvetica,sans-Serif" font-size="10.00">mxgpuarray.h</text>
</a>
</g>
</g>
<!-- Node5&#45;&gt;Node12 -->
<g id="edge11" class="edge">
<title>Node5&#45;&gt;Node12</title>
<path fill="none" stroke="midnightblue" d="M211.1,-168.44C177.73,-159.2 124.41,-144.44 87.65,-134.26"/>
<polygon fill="midnightblue" stroke="midnightblue" points="88.33,-130.81 77.75,-131.52 86.46,-137.56 88.33,-130.81"/>
</g>
<!-- Node15 -->
<g id="node15" class="node">
<title>Node15</title>
<g id="a_node15"><a xlink:href="mxmatrix_8h.html" target="_top" xlink:title=" ">
<polygon fill="none" stroke="black" points="108.5,-112.5 108.5,-131.5 171.5,-131.5 171.5,-112.5 108.5,-112.5"/>
<text text-anchor="middle" x="140" y="-119.5" font-family="Helvetica,sans-Serif" font-size="10.00">mxmatrix.h</text>
</a>
</g>
</g>
<!-- Node5&#45;&gt;Node15 -->
<g id="edge14" class="edge">
<title>Node5&#45;&gt;Node15</title>
<path fill="none" stroke="midnightblue" d="M225.61,-168.32C209.33,-159.7 184.13,-146.36 165.28,-136.39"/>
<polygon fill="midnightblue" stroke="midnightblue" points="166.82,-133.24 156.35,-131.65 163.55,-139.43 166.82,-133.24"/>
</g>
<!-- Node16 -->
<g id="node16" class="node">
<title>Node16</title>
<g id="a_node16"><a xlink:href="mxopenglfunctions_8h.html" target="_top" xlink:title=" ">
<polygon fill="none" stroke="black" points="189.5,-112.5 189.5,-131.5 294.5,-131.5 294.5,-112.5 189.5,-112.5"/>
<text text-anchor="middle" x="242" y="-119.5" font-family="Helvetica,sans-Serif" font-size="10.00">mxopenglfunctions.h</text>
</a>
</g>
</g>
<!-- Node5&#45;&gt;Node16 -->
<g id="edge15" class="edge">
<title>Node5&#45;&gt;Node16</title>
<path fill="none" stroke="midnightblue" d="M242,-168.08C242,-161.01 242,-150.86 242,-141.99"/>
<polygon fill="midnightblue" stroke="midnightblue" points="245.5,-141.75 242,-131.75 238.5,-141.75 245.5,-141.75"/>
</g>
<!-- Node18 -->
<g id="node18" class="node">
<title>Node18</title>
<g id="a_node18"><a xlink:href="mxvector_8h.html" target="_top" xlink:title=" ">
<polygon fill="none" stroke="black" points="409,-112.5 409,-131.5 473,-131.5 473,-112.5 409,-112.5"/>
<text text-anchor="middle" x="441" y="-119.5" font-family="Helvetica,sans-Serif" font-size="10.00">mxvector.h</text>
</a>
</g>
</g>
<!-- Node5&#45;&gt;Node18 -->
<g id="edge17" class="edge">
<title>Node5&#45;&gt;Node18</title>
<path fill="none" stroke="midnightblue" d="M273.53,-168.44C307.59,-159.2 362.01,-144.44 399.52,-134.26"/>
<polygon fill="midnightblue" stroke="midnightblue" points="400.88,-137.51 409.62,-131.52 399.05,-130.76 400.88,-137.51"/>
</g>
<!-- Node7 -->
<g id="node7" class="node">
<title>Node7</title>
<g id="a_node7"><a xlink:title=" ">
<polygon fill="none" stroke="#bfbfbf" points="532.5,-56.5 532.5,-75.5 595.5,-75.5 595.5,-56.5 532.5,-56.5"/>
<text text-anchor="middle" x="564" y="-63.5" font-family="Helvetica,sans-Serif" font-size="10.00">mxdebug.h</text>
</a>
</g>
</g>
<!-- Node6&#45;&gt;Node7 -->
<g id="edge6" class="edge">
<title>Node6&#45;&gt;Node7</title>
<path fill="none" stroke="midnightblue" d="M379.33,-114.49C414.88,-105.35 479.99,-88.6 522.62,-77.64"/>
<polygon fill="midnightblue" stroke="midnightblue" points="523.61,-81 532.42,-75.12 521.86,-74.22 523.61,-81"/>
</g>
<!-- Node8 -->
<g id="node8" class="node">
<title>Node8</title>
<g id="a_node8"><a xlink:href="mxrefcounter_8h.html" target="_top" xlink:title=" ">
<polygon fill="none" stroke="black" points="302,-56.5 302,-75.5 382,-75.5 382,-56.5 302,-56.5"/>
<text text-anchor="middle" x="342" y="-63.5" font-family="Helvetica,sans-Serif" font-size="10.00">mxrefcounter.h</text>
</a>
</g>
</g>
<!-- Node6&#45;&gt;Node8 -->
<g id="edge7" class="edge">
<title>Node6&#45;&gt;Node8</title>
<path fill="none" stroke="midnightblue" d="M352.02,-112.08C350.43,-104.93 348.14,-94.64 346.15,-85.69"/>
<polygon fill="midnightblue" stroke="midnightblue" points="349.53,-84.75 343.94,-75.75 342.7,-86.27 349.53,-84.75"/>
</g>
<!-- Node9 -->
<g id="node9" class="node">
<title>Node9</title>
<g id="a_node9"><a xlink:title=" ">
<polygon fill="none" stroke="#bfbfbf" points="400.5,-56.5 400.5,-75.5 447.5,-75.5 447.5,-56.5 400.5,-56.5"/>
<text text-anchor="middle" x="424" y="-63.5" font-family="Helvetica,sans-Serif" font-size="10.00">stdlib.h</text>
</a>
</g>
</g>
<!-- Node6&#45;&gt;Node9 -->
<g id="edge8" class="edge">
<title>Node6&#45;&gt;Node9</title>
<path fill="none" stroke="midnightblue" d="M365.25,-112.32C375.8,-104.18 391.8,-91.84 404.44,-82.09"/>
<polygon fill="midnightblue" stroke="midnightblue" points="406.77,-84.71 412.55,-75.83 402.49,-79.17 406.77,-84.71"/>
</g>
<!-- Node10 -->
<g id="node10" class="node">
<title>Node10</title>
<g id="a_node10"><a xlink:title=" ">
<polygon fill="none" stroke="#bfbfbf" points="466,-56.5 466,-75.5 514,-75.5 514,-56.5 466,-56.5"/>
<text text-anchor="middle" x="490" y="-63.5" font-family="Helvetica,sans-Serif" font-size="10.00">string.h</text>
</a>
</g>
</g>
<!-- Node6&#45;&gt;Node10 -->
<g id="edge9" class="edge">
<title>Node6&#45;&gt;Node10</title>
<path fill="none" stroke="midnightblue" d="M375.55,-112.44C398.03,-103.52 433.49,-89.44 458.98,-79.32"/>
<polygon fill="midnightblue" stroke="midnightblue" points="460.55,-82.46 468.55,-75.52 457.97,-75.95 460.55,-82.46"/>
</g>
<!-- Node11 -->
<g id="node11" class="node">
<title>Node11</title>
<g id="a_node11"><a xlink:title=" ">
<polygon fill="none" stroke="#bfbfbf" points="248.5,-56.5 248.5,-75.5 283.5,-75.5 283.5,-56.5 248.5,-56.5"/>
<text text-anchor="middle" x="266" y="-63.5" font-family="Helvetica,sans-Serif" font-size="10.00">new</text>
</a>
</g>
</g>
<!-- Node6&#45;&gt;Node11 -->
<g id="edge10" class="edge">
<title>Node6&#45;&gt;Node11</title>
<path fill="none" stroke="midnightblue" d="M339.86,-112.32C326.13,-103.9 305.06,-90.97 288.94,-81.07"/>
<polygon fill="midnightblue" stroke="midnightblue" points="290.46,-77.9 280.1,-75.65 286.8,-83.87 290.46,-77.9"/>
</g>
<!-- Node13 -->
<g id="node13" class="node">
<title>Node13</title>
<g id="a_node13"><a xlink:href="mxgpuprogram_8h.html" target="_top" xlink:title=" ">
<polygon fill="none" stroke="black" points="0,-56.5 0,-75.5 88,-75.5 88,-56.5 0,-56.5"/>
<text text-anchor="middle" x="44" y="-63.5" font-family="Helvetica,sans-Serif" font-size="10.00">mxgpuprogram.h</text>
</a>
</g>
</g>
<!-- Node12&#45;&gt;Node13 -->
<g id="edge12" class="edge">
<title>Node12&#45;&gt;Node13</title>
<path fill="none" stroke="midnightblue" d="M46.5,-112.08C46.11,-105.01 45.55,-94.86 45.05,-85.99"/>
<polygon fill="midnightblue" stroke="midnightblue" points="48.54,-85.54 44.49,-75.75 41.55,-85.93 48.54,-85.54"/>
</g>
<!-- Node14 -->
<g id="node14" class="node">
<title>Node14</title>
<g id="a_node14"><a xlink:title=" ">
<polygon fill="none" stroke="#bfbfbf" points="11.5,-0.5 11.5,-19.5 76.5,-19.5 76.5,-0.5 11.5,-0.5"/>
<text text-anchor="middle" x="44" y="-7.5" font-family="Helvetica,sans-Serif" font-size="10.00">mxopengl.h</text>
</a>
</g>
</g>
<!-- Node13&#45;&gt;Node14 -->
<g id="edge13" class="edge">
<title>Node13&#45;&gt;Node14</title>
<path fill="none" stroke="midnightblue" d="M44,-56.08C44,-49.01 44,-38.86 44,-29.99"/>
<polygon fill="midnightblue" stroke="midnightblue" points="47.5,-29.75 44,-19.75 40.5,-29.75 47.5,-29.75"/>
</g>
<!-- Node17 -->
<g id="node17" class="node">
<title>Node17</title>
<g id="a_node17"><a xlink:title=" ">
<polygon fill="none" stroke="#bfbfbf" points="105.5,-56.5 105.5,-75.5 230.5,-75.5 230.5,-56.5 105.5,-56.5"/>
<text text-anchor="middle" x="168" y="-63.5" font-family="Helvetica,sans-Serif" font-size="10.00">QOpenGLExtraFunctions</text>
</a>
</g>
</g>
<!-- Node16&#45;&gt;Node17 -->
<g id="edge16" class="edge">
<title>Node16&#45;&gt;Node17</title>
<path fill="none" stroke="midnightblue" d="M230.11,-112.32C218.85,-104.11 201.71,-91.6 188.29,-81.81"/>
<polygon fill="midnightblue" stroke="midnightblue" points="190.25,-78.9 180.11,-75.83 186.12,-84.56 190.25,-78.9"/>
</g>
<!-- Node18&#45;&gt;Node7 -->
<g id="edge18" class="edge">
<title>Node18&#45;&gt;Node7</title>
<path fill="none" stroke="midnightblue" d="M460.49,-112.44C480.64,-103.6 512.32,-89.69 535.33,-79.59"/>
<polygon fill="midnightblue" stroke="midnightblue" points="536.85,-82.74 544.6,-75.52 534.04,-76.33 536.85,-82.74"/>
</g>
<!-- Node19&#45;&gt;Node18 -->
<g id="edge20" class="edge">
<title>Node19&#45;&gt;Node18</title>
<path fill="none" stroke="midnightblue" d="M441,-168.08C441,-161.01 441,-150.86 441,-141.99"/>
<polygon fill="midnightblue" stroke="midnightblue" points="444.5,-141.75 441,-131.75 437.5,-141.75 444.5,-141.75"/>
</g>
</g>
</svg>
