<?xml version="1.0" encoding="UTF-8" standalone="no"?>
<!DOCTYPE svg PUBLIC "-//W3C//DTD SVG 1.1//EN"
 "http://www.w3.org/Graphics/SVG/1.1/DTD/svg11.dtd">
<!-- Generated by graphviz version 2.44.0 ()
 -->
<!-- Title: src/platformabstraction/qt/qmewawindow.cpp Pages: 1 -->
<svg width="1339pt" height="487pt"
 viewBox="0.00 0.00 1339.00 487.00" xmlns="http://www.w3.org/2000/svg" xmlns:xlink="http://www.w3.org/1999/xlink">
<g id="graph0" class="graph" transform="scale(1 1) rotate(0) translate(4 483)">
<title>src/platformabstraction/qt/qmewawindow.cpp</title>
<!-- Node1 -->
<g id="node1" class="node">
<title>Node1</title>
<g id="a_node1"><a xlink:title=" ">
<polygon fill="#bfbfbf" stroke="black" points="720,-448.5 720,-478.5 836,-478.5 836,-448.5 720,-448.5"/>
<text text-anchor="start" x="728" y="-466.5" font-family="Helvetica,sans-Serif" font-size="10.00">src/platformabstraction</text>
<text text-anchor="middle" x="778" y="-455.5" font-family="Helvetica,sans-Serif" font-size="10.00">/qt/qmewawindow.cpp</text>
</a>
</g>
</g>
<!-- Node2 -->
<g id="node2" class="node">
<title>Node2</title>
<g id="a_node2"><a xlink:title=" ">
<polygon fill="none" stroke="#bfbfbf" points="601,-392.5 601,-411.5 679,-411.5 679,-392.5 601,-392.5"/>
<text text-anchor="middle" x="640" y="-399.5" font-family="Helvetica,sans-Serif" font-size="10.00">QMouseEvent</text>
</a>
</g>
</g>
<!-- Node1&#45;&gt;Node2 -->
<g id="edge1" class="edge">
<title>Node1&#45;&gt;Node2</title>
<path fill="none" stroke="midnightblue" d="M745.3,-448.4C722.25,-438.46 691.64,-425.26 669.37,-415.66"/>
<polygon fill="midnightblue" stroke="midnightblue" points="670.65,-412.4 660.08,-411.66 667.88,-418.83 670.65,-412.4"/>
</g>
<!-- Node3 -->
<g id="node3" class="node">
<title>Node3</title>
<g id="a_node3"><a xlink:href="qmewawindow_8h.html" target="_top" xlink:title=" ">
<polygon fill="none" stroke="black" points="697.5,-392.5 697.5,-411.5 786.5,-411.5 786.5,-392.5 697.5,-392.5"/>
<text text-anchor="middle" x="742" y="-399.5" font-family="Helvetica,sans-Serif" font-size="10.00">qmewawindow.h</text>
</a>
</g>
</g>
<!-- Node1&#45;&gt;Node3 -->
<g id="edge2" class="edge">
<title>Node1&#45;&gt;Node3</title>
<path fill="none" stroke="midnightblue" d="M769.47,-448.4C764.4,-440.02 757.93,-429.33 752.54,-420.42"/>
<polygon fill="midnightblue" stroke="midnightblue" points="755.41,-418.4 747.24,-411.66 749.42,-422.03 755.41,-418.4"/>
</g>
<!-- Node7 -->
<g id="node7" class="node">
<title>Node7</title>
<g id="a_node7"><a xlink:href="mxrect_8h.html" target="_top" xlink:title=" ">
<polygon fill="none" stroke="black" points="1011.5,-168.5 1011.5,-187.5 1064.5,-187.5 1064.5,-168.5 1011.5,-168.5"/>
<text text-anchor="middle" x="1038" y="-175.5" font-family="Helvetica,sans-Serif" font-size="10.00">mxrect.h</text>
</a>
</g>
</g>
<!-- Node1&#45;&gt;Node7 -->
<g id="edge59" class="edge">
<title>Node1&#45;&gt;Node7</title>
<path fill="none" stroke="midnightblue" d="M836.08,-461.63C970.76,-458.05 1293,-439.78 1293,-347 1293,-347 1293,-347 1293,-289 1293,-258.9 1296.28,-244.24 1274,-224 1245.24,-197.87 1133.34,-185.94 1074.55,-181.38"/>
<polygon fill="midnightblue" stroke="midnightblue" points="1074.79,-177.89 1064.56,-180.64 1074.28,-184.87 1074.79,-177.89"/>
</g>
<!-- Node20 -->
<g id="node20" class="node">
<title>Node20</title>
<g id="a_node20"><a xlink:href="mxapplication_8h.html" target="_top" xlink:title=" ">
<polygon fill="none" stroke="black" points="773.5,-336.5 773.5,-355.5 856.5,-355.5 856.5,-336.5 773.5,-336.5"/>
<text text-anchor="middle" x="815" y="-343.5" font-family="Helvetica,sans-Serif" font-size="10.00">mxapplication.h</text>
</a>
</g>
</g>
<!-- Node1&#45;&gt;Node20 -->
<g id="edge60" class="edge">
<title>Node1&#45;&gt;Node20</title>
<path fill="none" stroke="midnightblue" d="M782.86,-448.38C786.32,-438.27 791.03,-424.33 795,-412 800.03,-396.37 805.5,-378.54 809.44,-365.51"/>
<polygon fill="midnightblue" stroke="midnightblue" points="812.82,-366.44 812.36,-355.85 806.12,-364.42 812.82,-366.44"/>
</g>
<!-- Node4 -->
<g id="node4" class="node">
<title>Node4</title>
<g id="a_node4"><a xlink:title=" ">
<polygon fill="none" stroke="#bfbfbf" points="660.5,-336.5 660.5,-355.5 755.5,-355.5 755.5,-336.5 660.5,-336.5"/>
<text text-anchor="middle" x="708" y="-343.5" font-family="Helvetica,sans-Serif" font-size="10.00">QOpenGLWindow</text>
</a>
</g>
</g>
<!-- Node3&#45;&gt;Node4 -->
<g id="edge3" class="edge">
<title>Node3&#45;&gt;Node4</title>
<path fill="none" stroke="midnightblue" d="M736.39,-392.08C731.63,-384.53 724.68,-373.49 718.85,-364.23"/>
<polygon fill="midnightblue" stroke="midnightblue" points="721.8,-362.35 713.51,-355.75 715.88,-366.08 721.8,-362.35"/>
</g>
<!-- Node5 -->
<g id="node5" class="node">
<title>Node5</title>
<g id="a_node5"><a xlink:href="mxiconatlas_8h.html" target="_top" xlink:title=" ">
<polygon fill="none" stroke="black" points="161,-280.5 161,-299.5 237,-299.5 237,-280.5 161,-280.5"/>
<text text-anchor="middle" x="199" y="-287.5" font-family="Helvetica,sans-Serif" font-size="10.00">mxiconatlas.h</text>
</a>
</g>
</g>
<!-- Node3&#45;&gt;Node5 -->
<g id="edge4" class="edge">
<title>Node3&#45;&gt;Node5</title>
<path fill="none" stroke="midnightblue" d="M699.84,-392.46C600.49,-372.33 352.14,-322.02 247.11,-300.75"/>
<polygon fill="midnightblue" stroke="midnightblue" points="247.6,-297.27 237.11,-298.72 246.21,-304.14 247.6,-297.27"/>
</g>
<!-- Node3&#45;&gt;Node20 -->
<g id="edge22" class="edge">
<title>Node3&#45;&gt;Node20</title>
<path fill="none" stroke="midnightblue" d="M753.73,-392.32C764.84,-384.11 781.74,-371.6 794.98,-361.81"/>
<polygon fill="midnightblue" stroke="midnightblue" points="797.1,-364.59 803.06,-355.83 792.94,-358.97 797.1,-364.59"/>
</g>
<!-- Node6 -->
<g id="node6" class="node">
<title>Node6</title>
<g id="a_node6"><a xlink:href="mxabstractatlas_8h.html" target="_top" xlink:title=" ">
<polygon fill="none" stroke="black" points="58.5,-224.5 58.5,-243.5 151.5,-243.5 151.5,-224.5 58.5,-224.5"/>
<text text-anchor="middle" x="105" y="-231.5" font-family="Helvetica,sans-Serif" font-size="10.00">mxabstractatlas.h</text>
</a>
</g>
</g>
<!-- Node5&#45;&gt;Node6 -->
<g id="edge5" class="edge">
<title>Node5&#45;&gt;Node6</title>
<path fill="none" stroke="midnightblue" d="M183.9,-280.32C169.1,-271.82 146.31,-258.73 129.02,-248.8"/>
<polygon fill="midnightblue" stroke="midnightblue" points="130.48,-245.6 120.07,-243.65 126.99,-251.67 130.48,-245.6"/>
</g>
<!-- Node12 -->
<g id="node12" class="node">
<title>Node12</title>
<g id="a_node12"><a xlink:href="mxlist_8h.html" target="_top" xlink:title=" ">
<polygon fill="none" stroke="black" points="289,-112.5 289,-131.5 339,-131.5 339,-112.5 289,-112.5"/>
<text text-anchor="middle" x="314" y="-119.5" font-family="Helvetica,sans-Serif" font-size="10.00">mxlist.h</text>
</a>
</g>
</g>
<!-- Node5&#45;&gt;Node12 -->
<g id="edge12" class="edge">
<title>Node5&#45;&gt;Node12</title>
<path fill="none" stroke="midnightblue" d="M160.82,-289.4C125.45,-287.47 74.56,-278.36 49,-244 35.74,-226.18 45.56,-184.3 63,-168 93.73,-139.28 217.12,-128.4 278.69,-124.7"/>
<polygon fill="midnightblue" stroke="midnightblue" points="278.94,-128.2 288.72,-124.13 278.54,-121.21 278.94,-128.2"/>
</g>
<!-- Node17 -->
<g id="node17" class="node">
<title>Node17</title>
<g id="a_node17"><a xlink:title=" ">
<polygon fill="none" stroke="#bfbfbf" points="246,-224.5 246,-243.5 318,-243.5 318,-224.5 246,-224.5"/>
<text text-anchor="middle" x="282" y="-231.5" font-family="Helvetica,sans-Serif" font-size="10.00">mxrenderer.h</text>
</a>
</g>
</g>
<!-- Node5&#45;&gt;Node17 -->
<g id="edge18" class="edge">
<title>Node5&#45;&gt;Node17</title>
<path fill="none" stroke="midnightblue" d="M212.34,-280.32C225.16,-271.98 244.78,-259.21 259.94,-249.35"/>
<polygon fill="midnightblue" stroke="midnightblue" points="262.22,-252.04 268.7,-243.65 258.41,-246.17 262.22,-252.04"/>
</g>
<!-- Node18 -->
<g id="node18" class="node">
<title>Node18</title>
<g id="a_node18"><a xlink:href="mximage_8h.html" target="_top" xlink:title=" ">
<polygon fill="none" stroke="black" points="617.5,-168.5 617.5,-187.5 680.5,-187.5 680.5,-168.5 617.5,-168.5"/>
<text text-anchor="middle" x="649" y="-175.5" font-family="Helvetica,sans-Serif" font-size="10.00">mximage.h</text>
</a>
</g>
</g>
<!-- Node5&#45;&gt;Node18 -->
<g id="edge19" class="edge">
<title>Node5&#45;&gt;Node18</title>
<path fill="none" stroke="midnightblue" d="M201.39,-280.05C205.78,-265.55 216.6,-237.23 237,-224 297.38,-184.84 514.97,-179.4 607.2,-178.9"/>
<polygon fill="midnightblue" stroke="midnightblue" points="607.31,-182.4 617.29,-178.86 607.28,-175.4 607.31,-182.4"/>
</g>
<!-- Node19 -->
<g id="node19" class="node">
<title>Node19</title>
<g id="a_node19"><a xlink:href="mxthemeicons_8h.html" target="_top" xlink:title=" ">
<polygon fill="none" stroke="black" points="275.5,-168.5 275.5,-187.5 362.5,-187.5 362.5,-168.5 275.5,-168.5"/>
<text text-anchor="middle" x="319" y="-175.5" font-family="Helvetica,sans-Serif" font-size="10.00">mxthemeicons.h</text>
</a>
</g>
</g>
<!-- Node5&#45;&gt;Node19 -->
<g id="edge21" class="edge">
<title>Node5&#45;&gt;Node19</title>
<path fill="none" stroke="midnightblue" d="M197.02,-280.44C194.45,-266.99 191.61,-240.74 204,-224 218.56,-204.34 242.99,-193.26 265.59,-187.03"/>
<polygon fill="midnightblue" stroke="midnightblue" points="266.62,-190.38 275.47,-184.56 264.92,-183.59 266.62,-190.38"/>
</g>
<!-- Node6&#45;&gt;Node7 -->
<g id="edge6" class="edge">
<title>Node6&#45;&gt;Node7</title>
<path fill="none" stroke="midnightblue" d="M151.72,-229.6C176.97,-227.82 208.68,-225.67 237,-224 559.5,-205.01 641.09,-215.26 963,-188 975.43,-186.95 988.98,-185.43 1001.1,-183.95"/>
<polygon fill="midnightblue" stroke="midnightblue" points="1001.83,-187.38 1011.32,-182.66 1000.96,-180.44 1001.83,-187.38"/>
</g>
<!-- Node11 -->
<g id="node11" class="node">
<title>Node11</title>
<g id="a_node11"><a xlink:title=" ">
<polygon fill="none" stroke="#bfbfbf" points="72,-168.5 72,-187.5 138,-187.5 138,-168.5 72,-168.5"/>
<text text-anchor="middle" x="105" y="-175.5" font-family="Helvetica,sans-Serif" font-size="10.00">mxtexture.h</text>
</a>
</g>
</g>
<!-- Node6&#45;&gt;Node11 -->
<g id="edge11" class="edge">
<title>Node6&#45;&gt;Node11</title>
<path fill="none" stroke="midnightblue" d="M105,-224.08C105,-217.01 105,-206.86 105,-197.99"/>
<polygon fill="midnightblue" stroke="midnightblue" points="108.5,-197.75 105,-187.75 101.5,-197.75 108.5,-197.75"/>
</g>
<!-- Node8 -->
<g id="node8" class="node">
<title>Node8</title>
<g id="a_node8"><a xlink:title=" ">
<polygon fill="none" stroke="#bfbfbf" points="814.5,-0.5 814.5,-19.5 877.5,-19.5 877.5,-0.5 814.5,-0.5"/>
<text text-anchor="middle" x="846" y="-7.5" font-family="Helvetica,sans-Serif" font-size="10.00">mxdebug.h</text>
</a>
</g>
</g>
<!-- Node7&#45;&gt;Node8 -->
<g id="edge7" class="edge">
<title>Node7&#45;&gt;Node8</title>
<path fill="none" stroke="midnightblue" d="M1044.92,-168.4C1054.52,-155.36 1069.47,-130.17 1058,-112 1020.64,-52.82 938.05,-27.59 887.69,-17.39"/>
<polygon fill="midnightblue" stroke="midnightblue" points="888.25,-13.94 877.77,-15.49 886.93,-20.81 888.25,-13.94"/>
</g>
<!-- Node9 -->
<g id="node9" class="node">
<title>Node9</title>
<g id="a_node9"><a xlink:href="mxvector_8h.html" target="_top" xlink:title=" ">
<polygon fill="none" stroke="black" points="911,-112.5 911,-131.5 975,-131.5 975,-112.5 911,-112.5"/>
<text text-anchor="middle" x="943" y="-119.5" font-family="Helvetica,sans-Serif" font-size="10.00">mxvector.h</text>
</a>
</g>
</g>
<!-- Node7&#45;&gt;Node9 -->
<g id="edge8" class="edge">
<title>Node7&#45;&gt;Node9</title>
<path fill="none" stroke="midnightblue" d="M1022.74,-168.32C1007.78,-159.82 984.75,-146.73 967.27,-136.8"/>
<polygon fill="midnightblue" stroke="midnightblue" points="968.65,-133.55 958.23,-131.65 965.19,-139.64 968.65,-133.55"/>
</g>
<!-- Node10 -->
<g id="node10" class="node">
<title>Node10</title>
<g id="a_node10"><a xlink:title=" ">
<polygon fill="none" stroke="#bfbfbf" points="993,-112.5 993,-131.5 1049,-131.5 1049,-112.5 993,-112.5"/>
<text text-anchor="middle" x="1021" y="-119.5" font-family="Helvetica,sans-Serif" font-size="10.00">algorithm</text>
</a>
</g>
</g>
<!-- Node7&#45;&gt;Node10 -->
<g id="edge10" class="edge">
<title>Node7&#45;&gt;Node10</title>
<path fill="none" stroke="midnightblue" d="M1035.19,-168.08C1032.92,-160.85 1029.63,-150.41 1026.79,-141.4"/>
<polygon fill="midnightblue" stroke="midnightblue" points="1030.1,-140.24 1023.75,-131.75 1023.42,-142.34 1030.1,-140.24"/>
</g>
<!-- Node9&#45;&gt;Node8 -->
<g id="edge9" class="edge">
<title>Node9&#45;&gt;Node8</title>
<path fill="none" stroke="midnightblue" d="M935.39,-112.37C919.24,-94.05 881.32,-51.05 860.43,-27.36"/>
<polygon fill="midnightblue" stroke="midnightblue" points="862.82,-24.78 853.58,-19.59 857.56,-29.41 862.82,-24.78"/>
</g>
<!-- Node12&#45;&gt;Node8 -->
<g id="edge13" class="edge">
<title>Node12&#45;&gt;Node8</title>
<path fill="none" stroke="midnightblue" d="M339.08,-118.07C389.68,-111.94 507.47,-96.63 605,-76 624.62,-71.85 741.86,-39.72 805.3,-22.24"/>
<polygon fill="midnightblue" stroke="midnightblue" points="806.28,-25.6 814.99,-19.57 804.42,-18.85 806.28,-25.6"/>
</g>
<!-- Node13 -->
<g id="node13" class="node">
<title>Node13</title>
<g id="a_node13"><a xlink:href="mxrefcounter_8h.html" target="_top" xlink:title=" ">
<polygon fill="none" stroke="black" points="373,-56.5 373,-75.5 453,-75.5 453,-56.5 373,-56.5"/>
<text text-anchor="middle" x="413" y="-63.5" font-family="Helvetica,sans-Serif" font-size="10.00">mxrefcounter.h</text>
</a>
</g>
</g>
<!-- Node12&#45;&gt;Node13 -->
<g id="edge14" class="edge">
<title>Node12&#45;&gt;Node13</title>
<path fill="none" stroke="midnightblue" d="M329.91,-112.32C345.64,-103.74 369.94,-90.49 388.21,-80.52"/>
<polygon fill="midnightblue" stroke="midnightblue" points="390.03,-83.52 397.13,-75.65 386.68,-77.37 390.03,-83.52"/>
</g>
<!-- Node14 -->
<g id="node14" class="node">
<title>Node14</title>
<g id="a_node14"><a xlink:title=" ">
<polygon fill="none" stroke="#bfbfbf" points="529.5,-0.5 529.5,-19.5 576.5,-19.5 576.5,-0.5 529.5,-0.5"/>
<text text-anchor="middle" x="553" y="-7.5" font-family="Helvetica,sans-Serif" font-size="10.00">stdlib.h</text>
</a>
</g>
</g>
<!-- Node12&#45;&gt;Node14 -->
<g id="edge15" class="edge">
<title>Node12&#45;&gt;Node14</title>
<path fill="none" stroke="midnightblue" d="M310.06,-112.25C304.55,-98.54 296.63,-71.94 310,-56 339.59,-20.73 468.89,-29.18 514,-20 515.69,-19.66 517.41,-19.3 519.15,-18.92"/>
<polygon fill="midnightblue" stroke="midnightblue" points="520.11,-22.3 529.12,-16.72 518.6,-15.46 520.11,-22.3"/>
</g>
<!-- Node15 -->
<g id="node15" class="node">
<title>Node15</title>
<g id="a_node15"><a xlink:title=" ">
<polygon fill="none" stroke="#bfbfbf" points="457,-0.5 457,-19.5 505,-19.5 505,-0.5 457,-0.5"/>
<text text-anchor="middle" x="481" y="-7.5" font-family="Helvetica,sans-Serif" font-size="10.00">string.h</text>
</a>
</g>
</g>
<!-- Node12&#45;&gt;Node15 -->
<g id="edge16" class="edge">
<title>Node12&#45;&gt;Node15</title>
<path fill="none" stroke="midnightblue" d="M302.8,-112.46C287.14,-99.5 262.2,-74.42 277,-56 297.88,-30.01 393.97,-18.14 446.48,-13.52"/>
<polygon fill="midnightblue" stroke="midnightblue" points="447.01,-16.98 456.68,-12.66 446.42,-10.01 447.01,-16.98"/>
</g>
<!-- Node16 -->
<g id="node16" class="node">
<title>Node16</title>
<g id="a_node16"><a xlink:title=" ">
<polygon fill="none" stroke="#bfbfbf" points="319.5,-56.5 319.5,-75.5 354.5,-75.5 354.5,-56.5 319.5,-56.5"/>
<text text-anchor="middle" x="337" y="-63.5" font-family="Helvetica,sans-Serif" font-size="10.00">new</text>
</a>
</g>
</g>
<!-- Node12&#45;&gt;Node16 -->
<g id="edge17" class="edge">
<title>Node12&#45;&gt;Node16</title>
<path fill="none" stroke="midnightblue" d="M317.8,-112.08C320.91,-104.77 325.42,-94.18 329.29,-85.1"/>
<polygon fill="midnightblue" stroke="midnightblue" points="332.57,-86.32 333.27,-75.75 326.13,-83.58 332.57,-86.32"/>
</g>
<!-- Node18&#45;&gt;Node9 -->
<g id="edge20" class="edge">
<title>Node18&#45;&gt;Node9</title>
<path fill="none" stroke="midnightblue" d="M680.74,-171.17C733.97,-161.39 841.22,-141.69 900.76,-130.76"/>
<polygon fill="midnightblue" stroke="midnightblue" points="901.74,-134.14 910.94,-128.89 900.48,-127.25 901.74,-134.14"/>
</g>
<!-- Node20&#45;&gt;Node8 -->
<g id="edge23" class="edge">
<title>Node20&#45;&gt;Node8</title>
<path fill="none" stroke="midnightblue" d="M856.67,-343.47C921.3,-340.21 1049.12,-330.2 1153,-300 1209.9,-283.46 1226.55,-279.49 1274,-244 1304.77,-220.99 1331,-217.42 1331,-179 1331,-179 1331,-179 1331,-121 1331,-30.48 1005.66,-14.45 887.9,-11.61"/>
<polygon fill="midnightblue" stroke="midnightblue" points="887.9,-8.11 877.82,-11.39 887.74,-15.11 887.9,-8.11"/>
</g>
<!-- Node21 -->
<g id="node21" class="node">
<title>Node21</title>
<g id="a_node21"><a xlink:href="mxwidgetlist_8h.html" target="_top" xlink:title=" ">
<polygon fill="none" stroke="black" points="0,-280.5 0,-299.5 78,-299.5 78,-280.5 0,-280.5"/>
<text text-anchor="middle" x="39" y="-287.5" font-family="Helvetica,sans-Serif" font-size="10.00">mxwidgetlist.h</text>
</a>
</g>
</g>
<!-- Node20&#45;&gt;Node21 -->
<g id="edge24" class="edge">
<title>Node20&#45;&gt;Node21</title>
<path fill="none" stroke="midnightblue" d="M773.31,-337.24C770.17,-336.78 767.04,-336.36 764,-336 493.38,-304.27 423.82,-318.82 152,-300 131.1,-298.55 108.05,-296.75 88.24,-295.14"/>
<polygon fill="midnightblue" stroke="midnightblue" points="88.46,-291.65 78.21,-294.32 87.89,-298.63 88.46,-291.65"/>
</g>
<!-- Node22 -->
<g id="node22" class="node">
<title>Node22</title>
<g id="a_node22"><a xlink:href="mxguirenderer_8h.html" target="_top" xlink:title=" ">
<polygon fill="none" stroke="black" points="504.5,-280.5 504.5,-299.5 589.5,-299.5 589.5,-280.5 504.5,-280.5"/>
<text text-anchor="middle" x="547" y="-287.5" font-family="Helvetica,sans-Serif" font-size="10.00">mxguirenderer.h</text>
</a>
</g>
</g>
<!-- Node20&#45;&gt;Node22 -->
<g id="edge26" class="edge">
<title>Node20&#45;&gt;Node22</title>
<path fill="none" stroke="midnightblue" d="M773.42,-336.62C726.56,-327.18 650.29,-311.81 599.39,-301.56"/>
<polygon fill="midnightblue" stroke="midnightblue" points="600.06,-298.12 589.56,-299.58 598.68,-304.98 600.06,-298.12"/>
</g>
<!-- Node27 -->
<g id="node27" class="node">
<title>Node27</title>
<g id="a_node27"><a xlink:href="mxmouseevent_8h.html" target="_top" xlink:title=" ">
<polygon fill="none" stroke="black" points="1054,-280.5 1054,-299.5 1144,-299.5 1144,-280.5 1054,-280.5"/>
<text text-anchor="middle" x="1099" y="-287.5" font-family="Helvetica,sans-Serif" font-size="10.00">mxmouseevent.h</text>
</a>
</g>
</g>
<!-- Node20&#45;&gt;Node27 -->
<g id="edge32" class="edge">
<title>Node20&#45;&gt;Node27</title>
<path fill="none" stroke="midnightblue" d="M856.6,-337.09C906.2,-327.66 989.28,-311.86 1044.11,-301.44"/>
<polygon fill="midnightblue" stroke="midnightblue" points="1044.83,-304.86 1054,-299.56 1043.53,-297.99 1044.83,-304.86"/>
</g>
<!-- Node29 -->
<g id="node29" class="node">
<title>Node29</title>
<g id="a_node29"><a xlink:href="mxpainter_8h.html" target="_top" xlink:title=" ">
<polygon fill="none" stroke="black" points="832,-280.5 832,-299.5 898,-299.5 898,-280.5 832,-280.5"/>
<text text-anchor="middle" x="865" y="-287.5" font-family="Helvetica,sans-Serif" font-size="10.00">mxpainter.h</text>
</a>
</g>
</g>
<!-- Node20&#45;&gt;Node29 -->
<g id="edge35" class="edge">
<title>Node20&#45;&gt;Node29</title>
<path fill="none" stroke="midnightblue" d="M823.26,-336.08C830.46,-328.3 841.11,-316.8 849.85,-307.37"/>
<polygon fill="midnightblue" stroke="midnightblue" points="852.67,-309.47 856.9,-299.75 847.53,-304.71 852.67,-309.47"/>
</g>
<!-- Node37 -->
<g id="node37" class="node">
<title>Node37</title>
<g id="a_node37"><a xlink:href="mxguiaggregation_8h.html" target="_top" xlink:title=" ">
<polygon fill="none" stroke="black" points="714,-280.5 714,-299.5 814,-299.5 814,-280.5 714,-280.5"/>
<text text-anchor="middle" x="764" y="-287.5" font-family="Helvetica,sans-Serif" font-size="10.00">mxguiaggregation.h</text>
</a>
</g>
</g>
<!-- Node20&#45;&gt;Node37 -->
<g id="edge58" class="edge">
<title>Node20&#45;&gt;Node37</title>
<path fill="none" stroke="midnightblue" d="M806.58,-336.08C799.15,-328.22 788.15,-316.57 779.19,-307.08"/>
<polygon fill="midnightblue" stroke="midnightblue" points="781.68,-304.62 772.26,-299.75 776.59,-309.42 781.68,-304.62"/>
</g>
<!-- Node21&#45;&gt;Node12 -->
<g id="edge25" class="edge">
<title>Node21&#45;&gt;Node12</title>
<path fill="none" stroke="midnightblue" d="M36.24,-280.19C29.86,-257.9 16.87,-198.9 47,-168 78.56,-135.64 213.35,-126.51 278.49,-123.96"/>
<polygon fill="midnightblue" stroke="midnightblue" points="278.82,-127.45 288.69,-123.6 278.57,-120.46 278.82,-127.45"/>
</g>
<!-- Node22&#45;&gt;Node17 -->
<g id="edge28" class="edge">
<title>Node22&#45;&gt;Node17</title>
<path fill="none" stroke="midnightblue" d="M505.01,-280.44C456.81,-270.62 378.01,-254.56 328.13,-244.4"/>
<polygon fill="midnightblue" stroke="midnightblue" points="328.76,-240.96 318.26,-242.39 327.36,-247.81 328.76,-240.96"/>
</g>
<!-- Node23 -->
<g id="node23" class="node">
<title>Node23</title>
<g id="a_node23"><a xlink:href="mxbuffer_8h.html" target="_top" xlink:title=" ">
<polygon fill="none" stroke="black" points="643.5,-224.5 643.5,-243.5 704.5,-243.5 704.5,-224.5 643.5,-224.5"/>
<text text-anchor="middle" x="674" y="-231.5" font-family="Helvetica,sans-Serif" font-size="10.00">mxbuffer.h</text>
</a>
</g>
</g>
<!-- Node22&#45;&gt;Node23 -->
<g id="edge27" class="edge">
<title>Node22&#45;&gt;Node23</title>
<path fill="none" stroke="midnightblue" d="M567.12,-280.44C588.02,-271.56 620.93,-257.56 644.72,-247.45"/>
<polygon fill="midnightblue" stroke="midnightblue" points="646.14,-250.65 653.97,-243.52 643.4,-244.21 646.14,-250.65"/>
</g>
<!-- Node24 -->
<g id="node24" class="node">
<title>Node24</title>
<g id="a_node24"><a xlink:title=" ">
<polygon fill="none" stroke="#bfbfbf" points="336.5,-224.5 336.5,-243.5 435.5,-243.5 435.5,-224.5 336.5,-224.5"/>
<text text-anchor="middle" x="386" y="-231.5" font-family="Helvetica,sans-Serif" font-size="10.00">mxvectorprogram.h</text>
</a>
</g>
</g>
<!-- Node22&#45;&gt;Node24 -->
<g id="edge29" class="edge">
<title>Node22&#45;&gt;Node24</title>
<path fill="none" stroke="midnightblue" d="M521.49,-280.44C494.4,-271.36 451.41,-256.94 421.13,-246.78"/>
<polygon fill="midnightblue" stroke="midnightblue" points="421.99,-243.38 411.39,-243.52 419.76,-250.01 421.99,-243.38"/>
</g>
<!-- Node25 -->
<g id="node25" class="node">
<title>Node25</title>
<g id="a_node25"><a xlink:title=" ">
<polygon fill="none" stroke="#bfbfbf" points="454,-224.5 454,-243.5 544,-243.5 544,-224.5 454,-224.5"/>
<text text-anchor="middle" x="499" y="-231.5" font-family="Helvetica,sans-Serif" font-size="10.00">mxiconprogram.h</text>
</a>
</g>
</g>
<!-- Node22&#45;&gt;Node25 -->
<g id="edge30" class="edge">
<title>Node22&#45;&gt;Node25</title>
<path fill="none" stroke="midnightblue" d="M539.07,-280.08C532.15,-272.3 521.93,-260.8 513.55,-251.37"/>
<polygon fill="midnightblue" stroke="midnightblue" points="516.04,-248.9 506.78,-243.75 510.81,-253.55 516.04,-248.9"/>
</g>
<!-- Node26 -->
<g id="node26" class="node">
<title>Node26</title>
<g id="a_node26"><a xlink:href="mxmatrix_8h.html" target="_top" xlink:title=" ">
<polygon fill="none" stroke="black" points="562.5,-224.5 562.5,-243.5 625.5,-243.5 625.5,-224.5 562.5,-224.5"/>
<text text-anchor="middle" x="594" y="-231.5" font-family="Helvetica,sans-Serif" font-size="10.00">mxmatrix.h</text>
</a>
</g>
</g>
<!-- Node22&#45;&gt;Node26 -->
<g id="edge31" class="edge">
<title>Node22&#45;&gt;Node26</title>
<path fill="none" stroke="midnightblue" d="M554.76,-280.08C561.54,-272.3 571.54,-260.8 579.76,-251.37"/>
<polygon fill="midnightblue" stroke="midnightblue" points="582.46,-253.59 586.38,-243.75 577.18,-249 582.46,-253.59"/>
</g>
<!-- Node27&#45;&gt;Node9 -->
<g id="edge33" class="edge">
<title>Node27&#45;&gt;Node9</title>
<path fill="none" stroke="midnightblue" d="M1099.79,-280.43C1101.31,-258.73 1102.2,-200.98 1073,-168 1061.09,-154.55 1018.29,-141.37 985.01,-132.78"/>
<polygon fill="midnightblue" stroke="midnightblue" points="985.58,-129.32 975.03,-130.27 983.88,-136.11 985.58,-129.32"/>
</g>
<!-- Node28 -->
<g id="node28" class="node">
<title>Node28</title>
<g id="a_node28"><a xlink:title=" ">
<polygon fill="none" stroke="#bfbfbf" points="1127,-224.5 1127,-243.5 1265,-243.5 1265,-224.5 1127,-224.5"/>
<text text-anchor="middle" x="1196" y="-231.5" font-family="Helvetica,sans-Serif" font-size="10.00">mxmouseeventabstraction.h</text>
</a>
</g>
</g>
<!-- Node27&#45;&gt;Node28 -->
<g id="edge34" class="edge">
<title>Node27&#45;&gt;Node28</title>
<path fill="none" stroke="midnightblue" d="M1114.58,-280.32C1130,-271.74 1153.81,-258.49 1171.71,-248.52"/>
<polygon fill="midnightblue" stroke="midnightblue" points="1173.42,-251.58 1180.45,-243.65 1170.01,-245.46 1173.42,-251.58"/>
</g>
<!-- Node29&#45;&gt;Node8 -->
<g id="edge36" class="edge">
<title>Node29&#45;&gt;Node8</title>
<path fill="none" stroke="midnightblue" d="M865,-280.44C865,-261.94 865,-216.81 865,-179 865,-179 865,-179 865,-121 865,-88.49 856.84,-51.35 851.22,-29.61"/>
<polygon fill="midnightblue" stroke="midnightblue" points="854.54,-28.5 848.56,-19.75 847.78,-30.32 854.54,-28.5"/>
</g>
<!-- Node29&#45;&gt;Node12 -->
<g id="edge39" class="edge">
<title>Node29&#45;&gt;Node12</title>
<path fill="none" stroke="midnightblue" d="M859.25,-280.41C849.86,-266.92 830.06,-240.61 808,-224 761.3,-188.84 745.18,-184.13 689,-168 567.56,-133.13 416.48,-125.26 349.18,-123.5"/>
<polygon fill="midnightblue" stroke="midnightblue" points="349.19,-120 339.11,-123.26 349.03,-126.99 349.19,-120"/>
</g>
<!-- Node30 -->
<g id="node30" class="node">
<title>Node30</title>
<g id="a_node30"><a xlink:href="mxvectordraw_8h.html" target="_top" xlink:title=" ">
<polygon fill="none" stroke="black" points="985.5,-224.5 985.5,-243.5 1070.5,-243.5 1070.5,-224.5 985.5,-224.5"/>
<text text-anchor="middle" x="1028" y="-231.5" font-family="Helvetica,sans-Serif" font-size="10.00">mxvectordraw.h</text>
</a>
</g>
</g>
<!-- Node29&#45;&gt;Node30 -->
<g id="edge37" class="edge">
<title>Node29&#45;&gt;Node30</title>
<path fill="none" stroke="midnightblue" d="M890.83,-280.44C918.25,-271.36 961.78,-256.94 992.43,-246.78"/>
<polygon fill="midnightblue" stroke="midnightblue" points="993.9,-249.98 1002.29,-243.52 991.7,-243.34 993.9,-249.98"/>
</g>
<!-- Node31 -->
<g id="node31" class="node">
<title>Node31</title>
<g id="a_node31"><a xlink:href="mxtextdraw_8h.html" target="_top" xlink:title=" ">
<polygon fill="none" stroke="black" points="893,-224.5 893,-243.5 967,-243.5 967,-224.5 893,-224.5"/>
<text text-anchor="middle" x="930" y="-231.5" font-family="Helvetica,sans-Serif" font-size="10.00">mxtextdraw.h</text>
</a>
</g>
</g>
<!-- Node29&#45;&gt;Node31 -->
<g id="edge40" class="edge">
<title>Node29&#45;&gt;Node31</title>
<path fill="none" stroke="midnightblue" d="M875.44,-280.32C885.15,-272.26 899.82,-260.08 911.5,-250.37"/>
<polygon fill="midnightblue" stroke="midnightblue" points="913.91,-252.92 919.37,-243.83 909.44,-247.53 913.91,-252.92"/>
</g>
<!-- Node36 -->
<g id="node36" class="node">
<title>Node36</title>
<g id="a_node36"><a xlink:href="mxicondraw_8h.html" target="_top" xlink:title=" ">
<polygon fill="none" stroke="black" points="723,-224.5 723,-243.5 799,-243.5 799,-224.5 723,-224.5"/>
<text text-anchor="middle" x="761" y="-231.5" font-family="Helvetica,sans-Serif" font-size="10.00">mxicondraw.h</text>
</a>
</g>
</g>
<!-- Node29&#45;&gt;Node36 -->
<g id="edge55" class="edge">
<title>Node29&#45;&gt;Node36</title>
<path fill="none" stroke="midnightblue" d="M848.29,-280.32C831.69,-271.7 806,-258.36 786.78,-248.39"/>
<polygon fill="midnightblue" stroke="midnightblue" points="788.16,-245.16 777.67,-243.65 784.93,-251.37 788.16,-245.16"/>
</g>
<!-- Node30&#45;&gt;Node7 -->
<g id="edge38" class="edge">
<title>Node30&#45;&gt;Node7</title>
<path fill="none" stroke="midnightblue" d="M1029.65,-224.08C1030.98,-216.93 1032.88,-206.64 1034.54,-197.69"/>
<polygon fill="midnightblue" stroke="midnightblue" points="1038,-198.22 1036.38,-187.75 1031.12,-196.95 1038,-198.22"/>
</g>
<!-- Node31&#45;&gt;Node7 -->
<g id="edge42" class="edge">
<title>Node31&#45;&gt;Node7</title>
<path fill="none" stroke="midnightblue" d="M947.35,-224.32C964.67,-215.66 991.52,-202.24 1011.5,-192.25"/>
<polygon fill="midnightblue" stroke="midnightblue" points="1013.31,-195.26 1020.69,-187.65 1010.18,-189 1013.31,-195.26"/>
</g>
<!-- Node31&#45;&gt;Node9 -->
<g id="edge41" class="edge">
<title>Node31&#45;&gt;Node9</title>
<path fill="none" stroke="midnightblue" d="M939.02,-224.34C947.07,-215.93 958.3,-202.36 963,-188 968.21,-172.08 961.51,-153.85 954.49,-140.75"/>
<polygon fill="midnightblue" stroke="midnightblue" points="957.35,-138.71 949.26,-131.86 951.32,-142.26 957.35,-138.71"/>
</g>
<!-- Node32 -->
<g id="node32" class="node">
<title>Node32</title>
<g id="a_node32"><a xlink:href="mxstring_8h.html" target="_top" xlink:title=" ">
<polygon fill="none" stroke="black" points="893.5,-168.5 893.5,-187.5 954.5,-187.5 954.5,-168.5 893.5,-168.5"/>
<text text-anchor="middle" x="924" y="-175.5" font-family="Helvetica,sans-Serif" font-size="10.00">mxstring.h</text>
</a>
</g>
</g>
<!-- Node31&#45;&gt;Node32 -->
<g id="edge43" class="edge">
<title>Node31&#45;&gt;Node32</title>
<path fill="none" stroke="midnightblue" d="M929.01,-224.08C928.21,-216.93 927.07,-206.64 926.08,-197.69"/>
<polygon fill="midnightblue" stroke="midnightblue" points="929.56,-197.3 924.97,-187.75 922.6,-198.08 929.56,-197.3"/>
</g>
<!-- Node33 -->
<g id="node33" class="node">
<title>Node33</title>
<g id="a_node33"><a xlink:href="mxgenericstring_8h.html" target="_top" xlink:title=" ">
<polygon fill="none" stroke="black" points="579,-112.5 579,-131.5 671,-131.5 671,-112.5 579,-112.5"/>
<text text-anchor="middle" x="625" y="-119.5" font-family="Helvetica,sans-Serif" font-size="10.00">mxgenericstring.h</text>
</a>
</g>
</g>
<!-- Node32&#45;&gt;Node33 -->
<g id="edge44" class="edge">
<title>Node32&#45;&gt;Node33</title>
<path fill="none" stroke="midnightblue" d="M893.41,-171.47C843.57,-162.47 744.11,-144.51 681.26,-133.16"/>
<polygon fill="midnightblue" stroke="midnightblue" points="681.58,-129.66 671.11,-131.33 680.33,-136.55 681.58,-129.66"/>
</g>
<!-- Node33&#45;&gt;Node8 -->
<g id="edge45" class="edge">
<title>Node33&#45;&gt;Node8</title>
<path fill="none" stroke="midnightblue" d="M671.34,-119.49C711.11,-116.04 768.15,-105.76 808,-76 823.68,-64.29 834.01,-44.06 839.89,-29.27"/>
<polygon fill="midnightblue" stroke="midnightblue" points="843.26,-30.25 843.4,-19.66 836.68,-27.85 843.26,-30.25"/>
</g>
<!-- Node33&#45;&gt;Node13 -->
<g id="edge46" class="edge">
<title>Node33&#45;&gt;Node13</title>
<path fill="none" stroke="midnightblue" d="M591.41,-112.44C554.81,-103.12 496.16,-88.18 456.17,-78"/>
<polygon fill="midnightblue" stroke="midnightblue" points="456.99,-74.59 446.43,-75.52 455.26,-81.38 456.99,-74.59"/>
</g>
<!-- Node33&#45;&gt;Node14 -->
<g id="edge53" class="edge">
<title>Node33&#45;&gt;Node14</title>
<path fill="none" stroke="midnightblue" d="M623.9,-112.36C621.9,-99.26 616.74,-74 605,-56 597.25,-44.13 585.51,-33.58 575.13,-25.7"/>
<polygon fill="midnightblue" stroke="midnightblue" points="577.02,-22.74 566.86,-19.72 572.92,-28.41 577.02,-22.74"/>
</g>
<!-- Node33&#45;&gt;Node15 -->
<g id="edge54" class="edge">
<title>Node33&#45;&gt;Node15</title>
<path fill="none" stroke="midnightblue" d="M578.89,-114.9C552.46,-109.1 520.54,-97.84 500,-76 488.3,-63.57 483.76,-44.33 482.02,-30"/>
<polygon fill="midnightblue" stroke="midnightblue" points="485.49,-29.46 481.15,-19.79 478.52,-30.06 485.49,-29.46"/>
</g>
<!-- Node34 -->
<g id="node34" class="node">
<title>Node34</title>
<g id="a_node34"><a xlink:href="mxbytearrayref_8h.html" target="_top" xlink:title=" ">
<polygon fill="none" stroke="black" points="509.5,-56.5 509.5,-75.5 596.5,-75.5 596.5,-56.5 509.5,-56.5"/>
<text text-anchor="middle" x="553" y="-63.5" font-family="Helvetica,sans-Serif" font-size="10.00">mxbytearrayref.h</text>
</a>
</g>
</g>
<!-- Node33&#45;&gt;Node34 -->
<g id="edge47" class="edge">
<title>Node33&#45;&gt;Node34</title>
<path fill="none" stroke="midnightblue" d="M613.43,-112.32C602.58,-104.18 586.12,-91.84 573.12,-82.09"/>
<polygon fill="midnightblue" stroke="midnightblue" points="574.88,-79.03 564.78,-75.83 570.68,-84.63 574.88,-79.03"/>
</g>
<!-- Node35 -->
<g id="node35" class="node">
<title>Node35</title>
<g id="a_node35"><a xlink:href="mxgenericsubstring_8h.html" target="_top" xlink:title=" ">
<polygon fill="none" stroke="black" points="691,-56.5 691,-75.5 799,-75.5 799,-56.5 691,-56.5"/>
<text text-anchor="middle" x="745" y="-63.5" font-family="Helvetica,sans-Serif" font-size="10.00">mxgenericsubstring.h</text>
</a>
</g>
</g>
<!-- Node33&#45;&gt;Node35 -->
<g id="edge51" class="edge">
<title>Node33&#45;&gt;Node35</title>
<path fill="none" stroke="midnightblue" d="M644.01,-112.44C663.59,-103.64 694.31,-89.81 716.73,-79.72"/>
<polygon fill="midnightblue" stroke="midnightblue" points="718.39,-82.81 726.07,-75.52 715.52,-76.43 718.39,-82.81"/>
</g>
<!-- Node34&#45;&gt;Node8 -->
<g id="edge48" class="edge">
<title>Node34&#45;&gt;Node8</title>
<path fill="none" stroke="midnightblue" d="M596.55,-56.97C652.56,-46.65 749.17,-28.85 804.28,-18.69"/>
<polygon fill="midnightblue" stroke="midnightblue" points="805.2,-22.08 814.4,-16.82 803.93,-15.19 805.2,-22.08"/>
</g>
<!-- Node34&#45;&gt;Node14 -->
<g id="edge49" class="edge">
<title>Node34&#45;&gt;Node14</title>
<path fill="none" stroke="midnightblue" d="M553,-56.08C553,-49.01 553,-38.86 553,-29.99"/>
<polygon fill="midnightblue" stroke="midnightblue" points="556.5,-29.75 553,-19.75 549.5,-29.75 556.5,-29.75"/>
</g>
<!-- Node34&#45;&gt;Node15 -->
<g id="edge50" class="edge">
<title>Node34&#45;&gt;Node15</title>
<path fill="none" stroke="midnightblue" d="M541.43,-56.32C530.58,-48.18 514.12,-35.84 501.12,-26.09"/>
<polygon fill="midnightblue" stroke="midnightblue" points="502.88,-23.03 492.78,-19.83 498.68,-28.63 502.88,-23.03"/>
</g>
<!-- Node35&#45;&gt;Node8 -->
<g id="edge52" class="edge">
<title>Node35&#45;&gt;Node8</title>
<path fill="none" stroke="midnightblue" d="M761.23,-56.32C777.35,-47.7 802.3,-34.36 820.96,-24.39"/>
<polygon fill="midnightblue" stroke="midnightblue" points="822.64,-27.46 829.81,-19.65 819.34,-21.28 822.64,-27.46"/>
</g>
<!-- Node36&#45;&gt;Node7 -->
<g id="edge57" class="edge">
<title>Node36&#45;&gt;Node7</title>
<path fill="none" stroke="midnightblue" d="M799.22,-225.55C852.65,-215.13 949,-196.35 1001.49,-186.12"/>
<polygon fill="midnightblue" stroke="midnightblue" points="1002.23,-189.54 1011.38,-184.19 1000.89,-182.67 1002.23,-189.54"/>
</g>
<!-- Node36&#45;&gt;Node19 -->
<g id="edge56" class="edge">
<title>Node36&#45;&gt;Node19</title>
<path fill="none" stroke="midnightblue" d="M722.79,-225.58C719.48,-225.02 716.19,-224.48 713,-224 591.9,-205.75 448.86,-191.14 372.84,-183.92"/>
<polygon fill="midnightblue" stroke="midnightblue" points="372.85,-180.4 362.57,-182.95 372.2,-187.37 372.85,-180.4"/>
</g>
</g>
</svg>
