<?xml version="1.0" encoding="UTF-8" standalone="no"?>
<!DOCTYPE svg PUBLIC "-//W3C//DTD SVG 1.1//EN"
 "http://www.w3.org/Graphics/SVG/1.1/DTD/svg11.dtd">
<!-- Generated by graphviz version 2.44.0 ()
 -->
<!-- Title: src/pluginsdk/qmewapluginwindow.cpp Pages: 1 -->
<svg width="574pt" height="308pt"
 viewBox="0.00 0.00 574.47 308.00" xmlns="http://www.w3.org/2000/svg" xmlns:xlink="http://www.w3.org/1999/xlink">
<g id="graph0" class="graph" transform="scale(1 1) rotate(0) translate(4 304)">
<title>src/pluginsdk/qmewapluginwindow.cpp</title>
<!-- Node1 -->
<g id="node1" class="node">
<title>Node1</title>
<g id="a_node1"><a xlink:title=" ">
<polygon fill="#bfbfbf" stroke="black" points="257.5,-280.5 257.5,-299.5 442.5,-299.5 442.5,-280.5 257.5,-280.5"/>
<text text-anchor="middle" x="350" y="-287.5" font-family="Helvetica,sans-Serif" font-size="10.00">src/pluginsdk/qmewapluginwindow.cpp</text>
</a>
</g>
</g>
<!-- Node2 -->
<g id="node2" class="node">
<title>Node2</title>
<g id="a_node2"><a xlink:title=" ">
<polygon fill="none" stroke="#bfbfbf" points="197,-224.5 197,-243.5 275,-243.5 275,-224.5 197,-224.5"/>
<text text-anchor="middle" x="236" y="-231.5" font-family="Helvetica,sans-Serif" font-size="10.00">QMouseEvent</text>
</a>
</g>
</g>
<!-- Node1&#45;&gt;Node2 -->
<g id="edge1" class="edge">
<title>Node1&#45;&gt;Node2</title>
<path fill="none" stroke="midnightblue" d="M331.94,-280.44C313.43,-271.68 284.42,-257.94 263.14,-247.86"/>
<polygon fill="midnightblue" stroke="midnightblue" points="264.51,-244.63 253.98,-243.52 261.52,-250.96 264.51,-244.63"/>
</g>
<!-- Node3 -->
<g id="node3" class="node">
<title>Node3</title>
<g id="a_node3"><a xlink:href="qmewapluginwindow_8h.html" target="_top" xlink:title=" ">
<polygon fill="none" stroke="black" points="293,-224.5 293,-243.5 407,-243.5 407,-224.5 293,-224.5"/>
<text text-anchor="middle" x="350" y="-231.5" font-family="Helvetica,sans-Serif" font-size="10.00">qmewapluginwindow.h</text>
</a>
</g>
</g>
<!-- Node1&#45;&gt;Node3 -->
<g id="edge2" class="edge">
<title>Node1&#45;&gt;Node3</title>
<path fill="none" stroke="midnightblue" d="M350,-280.08C350,-273.01 350,-262.86 350,-253.99"/>
<polygon fill="midnightblue" stroke="midnightblue" points="353.5,-253.75 350,-243.75 346.5,-253.75 353.5,-253.75"/>
</g>
<!-- Node20 -->
<g id="node20" class="node">
<title>Node20</title>
<g id="a_node20"><a xlink:href="mxinputs_8h.html" target="_top" xlink:title=" ">
<polygon fill="none" stroke="black" points="462.5,-224.5 462.5,-243.5 525.5,-243.5 525.5,-224.5 462.5,-224.5"/>
<text text-anchor="middle" x="494" y="-231.5" font-family="Helvetica,sans-Serif" font-size="10.00">mxinputs.h</text>
</a>
</g>
</g>
<!-- Node1&#45;&gt;Node20 -->
<g id="edge21" class="edge">
<title>Node1&#45;&gt;Node20</title>
<path fill="none" stroke="midnightblue" d="M372.82,-280.44C396.83,-271.44 434.83,-257.19 461.87,-247.05"/>
<polygon fill="midnightblue" stroke="midnightblue" points="463.16,-250.3 471.29,-243.52 460.7,-243.75 463.16,-250.3"/>
</g>
<!-- Node4 -->
<g id="node4" class="node">
<title>Node4</title>
<g id="a_node4"><a xlink:title=" ">
<polygon fill="none" stroke="#bfbfbf" points="389.5,-168.5 389.5,-187.5 484.5,-187.5 484.5,-168.5 389.5,-168.5"/>
<text text-anchor="middle" x="437" y="-175.5" font-family="Helvetica,sans-Serif" font-size="10.00">QOpenGLWindow</text>
</a>
</g>
</g>
<!-- Node3&#45;&gt;Node4 -->
<g id="edge3" class="edge">
<title>Node3&#45;&gt;Node4</title>
<path fill="none" stroke="midnightblue" d="M363.98,-224.32C377.55,-215.9 398.38,-202.97 414.32,-193.07"/>
<polygon fill="midnightblue" stroke="midnightblue" points="416.41,-195.9 423.06,-187.65 412.71,-189.95 416.41,-195.9"/>
</g>
<!-- Node5 -->
<g id="node5" class="node">
<title>Node5</title>
<g id="a_node5"><a xlink:href="mxrenderer_8h.html" target="_top" xlink:title=" ">
<polygon fill="none" stroke="black" points="200,-168.5 200,-187.5 272,-187.5 272,-168.5 200,-168.5"/>
<text text-anchor="middle" x="236" y="-175.5" font-family="Helvetica,sans-Serif" font-size="10.00">mxrenderer.h</text>
</a>
</g>
</g>
<!-- Node3&#45;&gt;Node5 -->
<g id="edge4" class="edge">
<title>Node3&#45;&gt;Node5</title>
<path fill="none" stroke="midnightblue" d="M331.94,-224.44C313.43,-215.68 284.42,-201.94 263.14,-191.86"/>
<polygon fill="midnightblue" stroke="midnightblue" points="264.51,-188.63 253.98,-187.52 261.52,-194.96 264.51,-188.63"/>
</g>
<!-- Node19 -->
<g id="node19" class="node">
<title>Node19</title>
<g id="a_node19"><a xlink:title=" ">
<polygon fill="none" stroke="#bfbfbf" points="290.5,-168.5 290.5,-187.5 371.5,-187.5 371.5,-168.5 290.5,-168.5"/>
<text text-anchor="middle" x="331" y="-175.5" font-family="Helvetica,sans-Serif" font-size="10.00">triangleplugin.h</text>
</a>
</g>
</g>
<!-- Node3&#45;&gt;Node19 -->
<g id="edge20" class="edge">
<title>Node3&#45;&gt;Node19</title>
<path fill="none" stroke="midnightblue" d="M346.86,-224.08C344.32,-216.85 340.64,-206.41 337.47,-197.4"/>
<polygon fill="midnightblue" stroke="midnightblue" points="340.7,-196.02 334.08,-187.75 334.1,-198.35 340.7,-196.02"/>
</g>
<!-- Node6 -->
<g id="node6" class="node">
<title>Node6</title>
<g id="a_node6"><a xlink:href="mxlist_8h.html" target="_top" xlink:title=" ">
<polygon fill="none" stroke="black" points="331,-112.5 331,-131.5 381,-131.5 381,-112.5 331,-112.5"/>
<text text-anchor="middle" x="356" y="-119.5" font-family="Helvetica,sans-Serif" font-size="10.00">mxlist.h</text>
</a>
</g>
</g>
<!-- Node5&#45;&gt;Node6 -->
<g id="edge5" class="edge">
<title>Node5&#45;&gt;Node6</title>
<path fill="none" stroke="midnightblue" d="M255.01,-168.44C274.59,-159.64 305.31,-145.81 327.73,-135.72"/>
<polygon fill="midnightblue" stroke="midnightblue" points="329.39,-138.81 337.07,-131.52 326.52,-132.43 329.39,-138.81"/>
</g>
<!-- Node12 -->
<g id="node12" class="node">
<title>Node12</title>
<g id="a_node12"><a xlink:href="mxgpuarray_8h.html" target="_top" xlink:title=" ">
<polygon fill="none" stroke="black" points="9,-112.5 9,-131.5 83,-131.5 83,-112.5 9,-112.5"/>
<text text-anchor="middle" x="46" y="-119.5" font-family="Helvetica,sans-Serif" font-size="10.00">mxgpuarray.h</text>
</a>
</g>
</g>
<!-- Node5&#45;&gt;Node12 -->
<g id="edge11" class="edge">
<title>Node5&#45;&gt;Node12</title>
<path fill="none" stroke="midnightblue" d="M205.89,-168.44C173.37,-159.2 121.42,-144.44 85.61,-134.26"/>
<polygon fill="midnightblue" stroke="midnightblue" points="86.54,-130.88 75.97,-131.52 84.63,-137.62 86.54,-130.88"/>
</g>
<!-- Node15 -->
<g id="node15" class="node">
<title>Node15</title>
<g id="a_node15"><a xlink:href="mxmatrix_8h.html" target="_top" xlink:title=" ">
<polygon fill="none" stroke="black" points="102.5,-112.5 102.5,-131.5 165.5,-131.5 165.5,-112.5 102.5,-112.5"/>
<text text-anchor="middle" x="134" y="-119.5" font-family="Helvetica,sans-Serif" font-size="10.00">mxmatrix.h</text>
</a>
</g>
</g>
<!-- Node5&#45;&gt;Node15 -->
<g id="edge15" class="edge">
<title>Node5&#45;&gt;Node15</title>
<path fill="none" stroke="midnightblue" d="M219.61,-168.32C203.33,-159.7 178.13,-146.36 159.28,-136.39"/>
<polygon fill="midnightblue" stroke="midnightblue" points="160.82,-133.24 150.35,-131.65 157.55,-139.43 160.82,-133.24"/>
</g>
<!-- Node16 -->
<g id="node16" class="node">
<title>Node16</title>
<g id="a_node16"><a xlink:href="mxopenglfunctions_8h.html" target="_top" xlink:title=" ">
<polygon fill="none" stroke="black" points="183.5,-112.5 183.5,-131.5 288.5,-131.5 288.5,-112.5 183.5,-112.5"/>
<text text-anchor="middle" x="236" y="-119.5" font-family="Helvetica,sans-Serif" font-size="10.00">mxopenglfunctions.h</text>
</a>
</g>
</g>
<!-- Node5&#45;&gt;Node16 -->
<g id="edge16" class="edge">
<title>Node5&#45;&gt;Node16</title>
<path fill="none" stroke="midnightblue" d="M236,-168.08C236,-161.01 236,-150.86 236,-141.99"/>
<polygon fill="midnightblue" stroke="midnightblue" points="239.5,-141.75 236,-131.75 232.5,-141.75 239.5,-141.75"/>
</g>
<!-- Node18 -->
<g id="node18" class="node">
<title>Node18</title>
<g id="a_node18"><a xlink:href="mxvector_8h.html" target="_top" xlink:title=" ">
<polygon fill="none" stroke="black" points="481,-112.5 481,-131.5 545,-131.5 545,-112.5 481,-112.5"/>
<text text-anchor="middle" x="513" y="-119.5" font-family="Helvetica,sans-Serif" font-size="10.00">mxvector.h</text>
</a>
</g>
</g>
<!-- Node5&#45;&gt;Node18 -->
<g id="edge18" class="edge">
<title>Node5&#45;&gt;Node18</title>
<path fill="none" stroke="midnightblue" d="M272.16,-169.92C275.49,-169.27 278.81,-168.62 282,-168 347.99,-155.12 424.59,-140.2 470.89,-131.19"/>
<polygon fill="midnightblue" stroke="midnightblue" points="471.71,-134.6 480.86,-129.25 470.38,-127.73 471.71,-134.6"/>
</g>
<!-- Node7 -->
<g id="node7" class="node">
<title>Node7</title>
<g id="a_node7"><a xlink:title=" ">
<polygon fill="none" stroke="#bfbfbf" points="347.5,-0.5 347.5,-19.5 410.5,-19.5 410.5,-0.5 347.5,-0.5"/>
<text text-anchor="middle" x="379" y="-7.5" font-family="Helvetica,sans-Serif" font-size="10.00">mxdebug.h</text>
</a>
</g>
</g>
<!-- Node6&#45;&gt;Node7 -->
<g id="edge6" class="edge">
<title>Node6&#45;&gt;Node7</title>
<path fill="none" stroke="midnightblue" d="M357.8,-112.37C361.52,-94.62 370.08,-53.67 375.11,-29.6"/>
<polygon fill="midnightblue" stroke="midnightblue" points="378.58,-30.1 377.2,-19.59 371.73,-28.66 378.58,-30.1"/>
</g>
<!-- Node8 -->
<g id="node8" class="node">
<title>Node8</title>
<g id="a_node8"><a xlink:href="mxrefcounter_8h.html" target="_top" xlink:title=" ">
<polygon fill="none" stroke="black" points="407,-56.5 407,-75.5 487,-75.5 487,-56.5 407,-56.5"/>
<text text-anchor="middle" x="447" y="-63.5" font-family="Helvetica,sans-Serif" font-size="10.00">mxrefcounter.h</text>
</a>
</g>
</g>
<!-- Node6&#45;&gt;Node8 -->
<g id="edge7" class="edge">
<title>Node6&#45;&gt;Node8</title>
<path fill="none" stroke="midnightblue" d="M370.62,-112.32C384.95,-103.82 407.01,-90.73 423.75,-80.8"/>
<polygon fill="midnightblue" stroke="midnightblue" points="425.6,-83.77 432.42,-75.65 422.03,-77.75 425.6,-83.77"/>
</g>
<!-- Node9 -->
<g id="node9" class="node">
<title>Node9</title>
<g id="a_node9"><a xlink:title=" ">
<polygon fill="none" stroke="#bfbfbf" points="505.5,-56.5 505.5,-75.5 552.5,-75.5 552.5,-56.5 505.5,-56.5"/>
<text text-anchor="middle" x="529" y="-63.5" font-family="Helvetica,sans-Serif" font-size="10.00">stdlib.h</text>
</a>
</g>
</g>
<!-- Node6&#45;&gt;Node9 -->
<g id="edge8" class="edge">
<title>Node6&#45;&gt;Node9</title>
<path fill="none" stroke="midnightblue" d="M381.16,-113.15C411.39,-103.71 462.22,-87.84 495.69,-77.4"/>
<polygon fill="midnightblue" stroke="midnightblue" points="496.98,-80.66 505.48,-74.34 494.89,-73.98 496.98,-80.66"/>
</g>
<!-- Node10 -->
<g id="node10" class="node">
<title>Node10</title>
<g id="a_node10"><a xlink:title=" ">
<polygon fill="none" stroke="#bfbfbf" points="249,-56.5 249,-75.5 297,-75.5 297,-56.5 249,-56.5"/>
<text text-anchor="middle" x="273" y="-63.5" font-family="Helvetica,sans-Serif" font-size="10.00">string.h</text>
</a>
</g>
</g>
<!-- Node6&#45;&gt;Node10 -->
<g id="edge9" class="edge">
<title>Node6&#45;&gt;Node10</title>
<path fill="none" stroke="midnightblue" d="M342.66,-112.32C329.84,-103.98 310.22,-91.21 295.06,-81.35"/>
<polygon fill="midnightblue" stroke="midnightblue" points="296.59,-78.17 286.3,-75.65 292.78,-84.04 296.59,-78.17"/>
</g>
<!-- Node11 -->
<g id="node11" class="node">
<title>Node11</title>
<g id="a_node11"><a xlink:title=" ">
<polygon fill="none" stroke="#bfbfbf" points="315.5,-56.5 315.5,-75.5 350.5,-75.5 350.5,-56.5 315.5,-56.5"/>
<text text-anchor="middle" x="333" y="-63.5" font-family="Helvetica,sans-Serif" font-size="10.00">new</text>
</a>
</g>
</g>
<!-- Node6&#45;&gt;Node11 -->
<g id="edge10" class="edge">
<title>Node6&#45;&gt;Node11</title>
<path fill="none" stroke="midnightblue" d="M352.2,-112.08C349.09,-104.77 344.58,-94.18 340.71,-85.1"/>
<polygon fill="midnightblue" stroke="midnightblue" points="343.87,-83.58 336.73,-75.75 337.43,-86.32 343.87,-83.58"/>
</g>
<!-- Node13 -->
<g id="node13" class="node">
<title>Node13</title>
<g id="a_node13"><a xlink:href="mxgpuprogram_8h.html" target="_top" xlink:title=" ">
<polygon fill="none" stroke="black" points="0,-56.5 0,-75.5 88,-75.5 88,-56.5 0,-56.5"/>
<text text-anchor="middle" x="44" y="-63.5" font-family="Helvetica,sans-Serif" font-size="10.00">mxgpuprogram.h</text>
</a>
</g>
</g>
<!-- Node12&#45;&gt;Node13 -->
<g id="edge12" class="edge">
<title>Node12&#45;&gt;Node13</title>
<path fill="none" stroke="midnightblue" d="M45.67,-112.08C45.41,-105.01 45.03,-94.86 44.7,-85.99"/>
<polygon fill="midnightblue" stroke="midnightblue" points="48.19,-85.61 44.32,-75.75 41.2,-85.87 48.19,-85.61"/>
</g>
<!-- Node13&#45;&gt;Node7 -->
<g id="edge13" class="edge">
<title>Node13&#45;&gt;Node7</title>
<path fill="none" stroke="midnightblue" d="M88.24,-57.45C91.2,-56.96 94.15,-56.47 97,-56 182.25,-41.96 282.11,-26.18 337.19,-17.54"/>
<polygon fill="midnightblue" stroke="midnightblue" points="337.93,-20.97 347.27,-15.96 336.84,-14.05 337.93,-20.97"/>
</g>
<!-- Node14 -->
<g id="node14" class="node">
<title>Node14</title>
<g id="a_node14"><a xlink:title=" ">
<polygon fill="none" stroke="#bfbfbf" points="11.5,-0.5 11.5,-19.5 76.5,-19.5 76.5,-0.5 11.5,-0.5"/>
<text text-anchor="middle" x="44" y="-7.5" font-family="Helvetica,sans-Serif" font-size="10.00">mxopengl.h</text>
</a>
</g>
</g>
<!-- Node13&#45;&gt;Node14 -->
<g id="edge14" class="edge">
<title>Node13&#45;&gt;Node14</title>
<path fill="none" stroke="midnightblue" d="M44,-56.08C44,-49.01 44,-38.86 44,-29.99"/>
<polygon fill="midnightblue" stroke="midnightblue" points="47.5,-29.75 44,-19.75 40.5,-29.75 47.5,-29.75"/>
</g>
<!-- Node17 -->
<g id="node17" class="node">
<title>Node17</title>
<g id="a_node17"><a xlink:title=" ">
<polygon fill="none" stroke="#bfbfbf" points="105.5,-56.5 105.5,-75.5 230.5,-75.5 230.5,-56.5 105.5,-56.5"/>
<text text-anchor="middle" x="168" y="-63.5" font-family="Helvetica,sans-Serif" font-size="10.00">QOpenGLExtraFunctions</text>
</a>
</g>
</g>
<!-- Node16&#45;&gt;Node17 -->
<g id="edge17" class="edge">
<title>Node16&#45;&gt;Node17</title>
<path fill="none" stroke="midnightblue" d="M225.07,-112.32C214.83,-104.18 199.28,-91.84 187,-82.09"/>
<polygon fill="midnightblue" stroke="midnightblue" points="189.13,-79.31 179.12,-75.83 184.78,-84.79 189.13,-79.31"/>
</g>
<!-- Node18&#45;&gt;Node7 -->
<g id="edge19" class="edge">
<title>Node18&#45;&gt;Node7</title>
<path fill="none" stroke="midnightblue" d="M527.87,-112.3C547.43,-99.76 577.61,-75.91 562,-56 544.79,-34.05 469.34,-21.38 420.85,-15.36"/>
<polygon fill="midnightblue" stroke="midnightblue" points="420.99,-11.85 410.65,-14.14 420.16,-18.8 420.99,-11.85"/>
</g>
<!-- Node20&#45;&gt;Node18 -->
<g id="edge22" class="edge">
<title>Node20&#45;&gt;Node18</title>
<path fill="none" stroke="midnightblue" d="M495.49,-224.37C498.56,-206.62 505.63,-165.67 509.79,-141.6"/>
<polygon fill="midnightblue" stroke="midnightblue" points="513.26,-142.04 511.52,-131.59 506.36,-140.85 513.26,-142.04"/>
</g>
</g>
</svg>
