<?xml version="1.0" encoding="UTF-8" standalone="no"?>
<!DOCTYPE svg PUBLIC "-//W3C//DTD SVG 1.1//EN"
 "http://www.w3.org/Graphics/SVG/1.1/DTD/svg11.dtd">
<!-- Generated by graphviz version 2.44.0 ()
 -->
<!-- Title: src/pluginsdk/qmewapluginwindow.cpp Pages: 1 -->
<svg width="1018pt" height="420pt"
 viewBox="0.00 0.00 1018.28 420.00" xmlns="http://www.w3.org/2000/svg" xmlns:xlink="http://www.w3.org/1999/xlink">
<g id="graph0" class="graph" transform="scale(1 1) rotate(0) translate(4 416)">
<title>src/pluginsdk/qmewapluginwindow.cpp</title>
<!-- Node1 -->
<g id="node1" class="node">
<title>Node1</title>
<g id="a_node1"><a xlink:title=" ">
<polygon fill="#bfbfbf" stroke="black" points="97,-392.5 97,-411.5 282,-411.5 282,-392.5 97,-392.5"/>
<text text-anchor="middle" x="189.5" y="-399.5" font-family="Helvetica,sans-Serif" font-size="10.00">src/pluginsdk/qmewapluginwindow.cpp</text>
</a>
</g>
</g>
<!-- Node2 -->
<g id="node2" class="node">
<title>Node2</title>
<g id="a_node2"><a xlink:title=" ">
<polygon fill="none" stroke="#bfbfbf" points="36.5,-336.5 36.5,-355.5 114.5,-355.5 114.5,-336.5 36.5,-336.5"/>
<text text-anchor="middle" x="75.5" y="-343.5" font-family="Helvetica,sans-Serif" font-size="10.00">QMouseEvent</text>
</a>
</g>
</g>
<!-- Node1&#45;&gt;Node2 -->
<g id="edge1" class="edge">
<title>Node1&#45;&gt;Node2</title>
<path fill="none" stroke="midnightblue" d="M171.44,-392.44C152.93,-383.68 123.92,-369.94 102.64,-359.86"/>
<polygon fill="midnightblue" stroke="midnightblue" points="104.01,-356.63 93.48,-355.52 101.02,-362.96 104.01,-356.63"/>
</g>
<!-- Node3 -->
<g id="node3" class="node">
<title>Node3</title>
<g id="a_node3"><a xlink:href="qmewapluginwindow_8h.html" target="_top" xlink:title=" ">
<polygon fill="none" stroke="black" points="132.5,-336.5 132.5,-355.5 246.5,-355.5 246.5,-336.5 132.5,-336.5"/>
<text text-anchor="middle" x="189.5" y="-343.5" font-family="Helvetica,sans-Serif" font-size="10.00">qmewapluginwindow.h</text>
</a>
</g>
</g>
<!-- Node1&#45;&gt;Node3 -->
<g id="edge2" class="edge">
<title>Node1&#45;&gt;Node3</title>
<path fill="none" stroke="midnightblue" d="M189.5,-392.08C189.5,-385.01 189.5,-374.86 189.5,-365.99"/>
<polygon fill="midnightblue" stroke="midnightblue" points="193,-365.75 189.5,-355.75 186,-365.75 193,-365.75"/>
</g>
<!-- Node28 -->
<g id="node28" class="node">
<title>Node28</title>
<g id="a_node28"><a xlink:href="mxplugin_8h.html" target="_top" xlink:title=" ">
<polygon fill="none" stroke="black" points="264.5,-336.5 264.5,-355.5 326.5,-355.5 326.5,-336.5 264.5,-336.5"/>
<text text-anchor="middle" x="295.5" y="-343.5" font-family="Helvetica,sans-Serif" font-size="10.00">mxplugin.h</text>
</a>
</g>
</g>
<!-- Node1&#45;&gt;Node28 -->
<g id="edge39" class="edge">
<title>Node1&#45;&gt;Node28</title>
<path fill="none" stroke="midnightblue" d="M206.53,-392.32C223.53,-383.66 249.88,-370.24 269.49,-360.25"/>
<polygon fill="midnightblue" stroke="midnightblue" points="271.19,-363.31 278.51,-355.65 268.01,-357.08 271.19,-363.31"/>
</g>
<!-- Node4 -->
<g id="node4" class="node">
<title>Node4</title>
<g id="a_node4"><a xlink:title=" ">
<polygon fill="none" stroke="#bfbfbf" points="0,-280.5 0,-299.5 95,-299.5 95,-280.5 0,-280.5"/>
<text text-anchor="middle" x="47.5" y="-287.5" font-family="Helvetica,sans-Serif" font-size="10.00">QOpenGLWindow</text>
</a>
</g>
</g>
<!-- Node3&#45;&gt;Node4 -->
<g id="edge3" class="edge">
<title>Node3&#45;&gt;Node4</title>
<path fill="none" stroke="midnightblue" d="M167,-336.44C143.42,-327.48 106.18,-313.31 79.54,-303.18"/>
<polygon fill="midnightblue" stroke="midnightblue" points="80.49,-299.8 69.9,-299.52 78,-306.34 80.49,-299.8"/>
</g>
<!-- Node5 -->
<g id="node5" class="node">
<title>Node5</title>
<g id="a_node5"><a xlink:title=" ">
<polygon fill="none" stroke="#bfbfbf" points="113,-280.5 113,-299.5 196,-299.5 196,-280.5 113,-280.5"/>
<text text-anchor="middle" x="154.5" y="-287.5" font-family="Helvetica,sans-Serif" font-size="10.00">QElapsedTimer</text>
</a>
</g>
</g>
<!-- Node3&#45;&gt;Node5 -->
<g id="edge4" class="edge">
<title>Node3&#45;&gt;Node5</title>
<path fill="none" stroke="midnightblue" d="M183.72,-336.08C178.83,-328.53 171.67,-317.49 165.67,-308.23"/>
<polygon fill="midnightblue" stroke="midnightblue" points="168.55,-306.24 160.17,-299.75 162.67,-310.05 168.55,-306.24"/>
</g>
<!-- Node6 -->
<g id="node6" class="node">
<title>Node6</title>
<g id="a_node6"><a xlink:href="mxguirenderer_8h.html" target="_top" xlink:title=" ">
<polygon fill="none" stroke="black" points="287,-280.5 287,-299.5 372,-299.5 372,-280.5 287,-280.5"/>
<text text-anchor="middle" x="329.5" y="-287.5" font-family="Helvetica,sans-Serif" font-size="10.00">mxguirenderer.h</text>
</a>
</g>
</g>
<!-- Node3&#45;&gt;Node6 -->
<g id="edge5" class="edge">
<title>Node3&#45;&gt;Node6</title>
<path fill="none" stroke="midnightblue" d="M211.68,-336.44C234.93,-327.48 271.65,-313.31 297.92,-303.18"/>
<polygon fill="midnightblue" stroke="midnightblue" points="299.35,-306.38 307.42,-299.52 296.83,-299.85 299.35,-306.38"/>
</g>
<!-- Node27 -->
<g id="node27" class="node">
<title>Node27</title>
<g id="a_node27"><a xlink:href="mxinputs_8h.html" target="_top" xlink:title=" ">
<polygon fill="none" stroke="black" points="159,-224.5 159,-243.5 222,-243.5 222,-224.5 159,-224.5"/>
<text text-anchor="middle" x="190.5" y="-231.5" font-family="Helvetica,sans-Serif" font-size="10.00">mxinputs.h</text>
</a>
</g>
</g>
<!-- Node3&#45;&gt;Node27 -->
<g id="edge37" class="edge">
<title>Node3&#45;&gt;Node27</title>
<path fill="none" stroke="midnightblue" d="M193.36,-336.25C197.06,-327.33 202.39,-313.01 204.5,-300 207.07,-284.15 202.72,-266.34 198.2,-253.38"/>
<polygon fill="midnightblue" stroke="midnightblue" points="201.37,-251.86 194.52,-243.78 194.84,-254.37 201.37,-251.86"/>
</g>
<!-- Node7 -->
<g id="node7" class="node">
<title>Node7</title>
<g id="a_node7"><a xlink:href="mxbuffer_8h.html" target="_top" xlink:title=" ">
<polygon fill="none" stroke="black" points="240,-224.5 240,-243.5 301,-243.5 301,-224.5 240,-224.5"/>
<text text-anchor="middle" x="270.5" y="-231.5" font-family="Helvetica,sans-Serif" font-size="10.00">mxbuffer.h</text>
</a>
</g>
</g>
<!-- Node6&#45;&gt;Node7 -->
<g id="edge6" class="edge">
<title>Node6&#45;&gt;Node7</title>
<path fill="none" stroke="midnightblue" d="M320.02,-280.32C311.3,-272.34 298.16,-260.31 287.6,-250.65"/>
<polygon fill="midnightblue" stroke="midnightblue" points="289.89,-248 280.15,-243.83 285.17,-253.17 289.89,-248"/>
</g>
<!-- Node8 -->
<g id="node8" class="node">
<title>Node8</title>
<g id="a_node8"><a xlink:href="mxrenderer_8h.html" target="_top" xlink:title=" ">
<polygon fill="none" stroke="black" points="560.5,-224.5 560.5,-243.5 632.5,-243.5 632.5,-224.5 560.5,-224.5"/>
<text text-anchor="middle" x="596.5" y="-231.5" font-family="Helvetica,sans-Serif" font-size="10.00">mxrenderer.h</text>
</a>
</g>
</g>
<!-- Node6&#45;&gt;Node8 -->
<g id="edge7" class="edge">
<title>Node6&#45;&gt;Node8</title>
<path fill="none" stroke="midnightblue" d="M371.81,-280.44C420.51,-270.59 500.22,-254.47 550.44,-244.31"/>
<polygon fill="midnightblue" stroke="midnightblue" points="551.28,-247.72 560.38,-242.3 549.89,-240.86 551.28,-247.72"/>
</g>
<!-- Node22 -->
<g id="node22" class="node">
<title>Node22</title>
<g id="a_node22"><a xlink:href="mxvectorprogram_8h.html" target="_top" xlink:title=" ">
<polygon fill="none" stroke="black" points="358,-224.5 358,-243.5 457,-243.5 457,-224.5 358,-224.5"/>
<text text-anchor="middle" x="407.5" y="-231.5" font-family="Helvetica,sans-Serif" font-size="10.00">mxvectorprogram.h</text>
</a>
</g>
</g>
<!-- Node6&#45;&gt;Node22 -->
<g id="edge22" class="edge">
<title>Node6&#45;&gt;Node22</title>
<path fill="none" stroke="midnightblue" d="M342.03,-280.32C354.09,-271.98 372.53,-259.21 386.77,-249.35"/>
<polygon fill="midnightblue" stroke="midnightblue" points="388.77,-252.22 395,-243.65 384.78,-246.47 388.77,-252.22"/>
</g>
<!-- Node26 -->
<g id="node26" class="node">
<title>Node26</title>
<g id="a_node26"><a xlink:href="mxiconprogram_8h.html" target="_top" xlink:title=" ">
<polygon fill="none" stroke="black" points="272.5,-168.5 272.5,-187.5 362.5,-187.5 362.5,-168.5 272.5,-168.5"/>
<text text-anchor="middle" x="317.5" y="-175.5" font-family="Helvetica,sans-Serif" font-size="10.00">mxiconprogram.h</text>
</a>
</g>
</g>
<!-- Node6&#45;&gt;Node26 -->
<g id="edge30" class="edge">
<title>Node6&#45;&gt;Node26</title>
<path fill="none" stroke="midnightblue" d="M328.56,-280.37C326.62,-262.62 322.15,-221.67 319.53,-197.6"/>
<polygon fill="midnightblue" stroke="midnightblue" points="323,-197.15 318.44,-187.59 316.04,-197.91 323,-197.15"/>
</g>
<!-- Node9 -->
<g id="node9" class="node">
<title>Node9</title>
<g id="a_node9"><a xlink:href="mxlist_8h.html" target="_top" xlink:title=" ">
<polygon fill="none" stroke="black" points="643.5,-168.5 643.5,-187.5 693.5,-187.5 693.5,-168.5 643.5,-168.5"/>
<text text-anchor="middle" x="668.5" y="-175.5" font-family="Helvetica,sans-Serif" font-size="10.00">mxlist.h</text>
</a>
</g>
</g>
<!-- Node8&#45;&gt;Node9 -->
<g id="edge8" class="edge">
<title>Node8&#45;&gt;Node9</title>
<path fill="none" stroke="midnightblue" d="M608.07,-224.32C618.92,-216.18 635.38,-203.84 648.38,-194.09"/>
<polygon fill="midnightblue" stroke="midnightblue" points="650.82,-196.63 656.72,-187.83 646.62,-191.03 650.82,-196.63"/>
</g>
<!-- Node15 -->
<g id="node15" class="node">
<title>Node15</title>
<g id="a_node15"><a xlink:href="mxgpuarray_8h.html" target="_top" xlink:title=" ">
<polygon fill="none" stroke="black" points="518.5,-168.5 518.5,-187.5 592.5,-187.5 592.5,-168.5 518.5,-168.5"/>
<text text-anchor="middle" x="555.5" y="-175.5" font-family="Helvetica,sans-Serif" font-size="10.00">mxgpuarray.h</text>
</a>
</g>
</g>
<!-- Node8&#45;&gt;Node15 -->
<g id="edge14" class="edge">
<title>Node8&#45;&gt;Node15</title>
<path fill="none" stroke="midnightblue" d="M589.73,-224.08C583.94,-216.46 575.44,-205.26 568.36,-195.94"/>
<polygon fill="midnightblue" stroke="midnightblue" points="570.98,-193.6 562.14,-187.75 565.4,-197.83 570.98,-193.6"/>
</g>
<!-- Node18 -->
<g id="node18" class="node">
<title>Node18</title>
<g id="a_node18"><a xlink:href="mxmatrix_8h.html" target="_top" xlink:title=" ">
<polygon fill="none" stroke="black" points="346,-112.5 346,-131.5 409,-131.5 409,-112.5 346,-112.5"/>
<text text-anchor="middle" x="377.5" y="-119.5" font-family="Helvetica,sans-Serif" font-size="10.00">mxmatrix.h</text>
</a>
</g>
</g>
<!-- Node8&#45;&gt;Node18 -->
<g id="edge17" class="edge">
<title>Node8&#45;&gt;Node18</title>
<path fill="none" stroke="midnightblue" d="M579.32,-224.37C541.18,-205.21 449.24,-159.04 403.81,-136.22"/>
<polygon fill="midnightblue" stroke="midnightblue" points="405.11,-132.95 394.6,-131.59 401.97,-139.21 405.11,-132.95"/>
</g>
<!-- Node19 -->
<g id="node19" class="node">
<title>Node19</title>
<g id="a_node19"><a xlink:href="mxopenglfunctions_8h.html" target="_top" xlink:title=" ">
<polygon fill="none" stroke="black" points="769,-168.5 769,-187.5 874,-187.5 874,-168.5 769,-168.5"/>
<text text-anchor="middle" x="821.5" y="-175.5" font-family="Helvetica,sans-Serif" font-size="10.00">mxopenglfunctions.h</text>
</a>
</g>
</g>
<!-- Node8&#45;&gt;Node19 -->
<g id="edge18" class="edge">
<title>Node8&#45;&gt;Node19</title>
<path fill="none" stroke="midnightblue" d="M632.15,-224.44C671.16,-215.08 733.77,-200.06 776.22,-189.87"/>
<polygon fill="midnightblue" stroke="midnightblue" points="777.11,-193.25 786.01,-187.52 775.47,-186.45 777.11,-193.25"/>
</g>
<!-- Node21 -->
<g id="node21" class="node">
<title>Node21</title>
<g id="a_node21"><a xlink:href="mxvector_8h.html" target="_top" xlink:title=" ">
<polygon fill="none" stroke="black" points="187.5,-56.5 187.5,-75.5 251.5,-75.5 251.5,-56.5 187.5,-56.5"/>
<text text-anchor="middle" x="219.5" y="-63.5" font-family="Helvetica,sans-Serif" font-size="10.00">mxvector.h</text>
</a>
</g>
</g>
<!-- Node8&#45;&gt;Node21 -->
<g id="edge20" class="edge">
<title>Node8&#45;&gt;Node21</title>
<path fill="none" stroke="midnightblue" d="M632.51,-233.29C748.05,-233.13 1095.87,-223.61 990.5,-112 966.62,-86.71 400.22,-78.07 365.5,-76 330.62,-73.92 291.05,-71.48 261.92,-69.66"/>
<polygon fill="midnightblue" stroke="midnightblue" points="261.88,-66.15 251.68,-69.02 261.45,-73.14 261.88,-66.15"/>
</g>
<!-- Node10 -->
<g id="node10" class="node">
<title>Node10</title>
<g id="a_node10"><a xlink:title=" ">
<polygon fill="none" stroke="#bfbfbf" points="218,-0.5 218,-19.5 281,-19.5 281,-0.5 218,-0.5"/>
<text text-anchor="middle" x="249.5" y="-7.5" font-family="Helvetica,sans-Serif" font-size="10.00">mxdebug.h</text>
</a>
</g>
</g>
<!-- Node9&#45;&gt;Node10 -->
<g id="edge9" class="edge">
<title>Node9&#45;&gt;Node10</title>
<path fill="none" stroke="midnightblue" d="M693.52,-174.6C742.22,-169 842.18,-152.31 808.5,-112 742.21,-32.66 409.52,-15.53 291.28,-11.93"/>
<polygon fill="midnightblue" stroke="midnightblue" points="291.27,-8.43 281.18,-11.64 291.07,-15.43 291.27,-8.43"/>
</g>
<!-- Node11 -->
<g id="node11" class="node">
<title>Node11</title>
<g id="a_node11"><a xlink:href="mxrefcounter_8h.html" target="_top" xlink:title=" ">
<polygon fill="none" stroke="black" points="587.5,-112.5 587.5,-131.5 667.5,-131.5 667.5,-112.5 587.5,-112.5"/>
<text text-anchor="middle" x="627.5" y="-119.5" font-family="Helvetica,sans-Serif" font-size="10.00">mxrefcounter.h</text>
</a>
</g>
</g>
<!-- Node9&#45;&gt;Node11 -->
<g id="edge10" class="edge">
<title>Node9&#45;&gt;Node11</title>
<path fill="none" stroke="midnightblue" d="M661.73,-168.08C655.94,-160.46 647.44,-149.26 640.36,-139.94"/>
<polygon fill="midnightblue" stroke="midnightblue" points="642.98,-137.6 634.14,-131.75 637.4,-141.83 642.98,-137.6"/>
</g>
<!-- Node12 -->
<g id="node12" class="node">
<title>Node12</title>
<g id="a_node12"><a xlink:title=" ">
<polygon fill="none" stroke="#bfbfbf" points="686,-112.5 686,-131.5 733,-131.5 733,-112.5 686,-112.5"/>
<text text-anchor="middle" x="709.5" y="-119.5" font-family="Helvetica,sans-Serif" font-size="10.00">stdlib.h</text>
</a>
</g>
</g>
<!-- Node9&#45;&gt;Node12 -->
<g id="edge11" class="edge">
<title>Node9&#45;&gt;Node12</title>
<path fill="none" stroke="midnightblue" d="M675.27,-168.08C681.06,-160.46 689.56,-149.26 696.64,-139.94"/>
<polygon fill="midnightblue" stroke="midnightblue" points="699.6,-141.83 702.86,-131.75 694.02,-137.6 699.6,-141.83"/>
</g>
<!-- Node13 -->
<g id="node13" class="node">
<title>Node13</title>
<g id="a_node13"><a xlink:title=" ">
<polygon fill="none" stroke="#bfbfbf" points="751.5,-112.5 751.5,-131.5 799.5,-131.5 799.5,-112.5 751.5,-112.5"/>
<text text-anchor="middle" x="775.5" y="-119.5" font-family="Helvetica,sans-Serif" font-size="10.00">string.h</text>
</a>
</g>
</g>
<!-- Node9&#45;&gt;Node13 -->
<g id="edge12" class="edge">
<title>Node9&#45;&gt;Node13</title>
<path fill="none" stroke="midnightblue" d="M685.69,-168.32C702.85,-159.66 729.45,-146.24 749.25,-136.25"/>
<polygon fill="midnightblue" stroke="midnightblue" points="751,-139.28 758.35,-131.65 747.85,-133.04 751,-139.28"/>
</g>
<!-- Node14 -->
<g id="node14" class="node">
<title>Node14</title>
<g id="a_node14"><a xlink:title=" ">
<polygon fill="none" stroke="#bfbfbf" points="534,-112.5 534,-131.5 569,-131.5 569,-112.5 534,-112.5"/>
<text text-anchor="middle" x="551.5" y="-119.5" font-family="Helvetica,sans-Serif" font-size="10.00">new</text>
</a>
</g>
</g>
<!-- Node9&#45;&gt;Node14 -->
<g id="edge13" class="edge">
<title>Node9&#45;&gt;Node14</title>
<path fill="none" stroke="midnightblue" d="M649.96,-168.44C630.65,-159.53 600.22,-145.49 578.3,-135.37"/>
<polygon fill="midnightblue" stroke="midnightblue" points="579.73,-132.18 569.19,-131.16 576.8,-138.53 579.73,-132.18"/>
</g>
<!-- Node16 -->
<g id="node16" class="node">
<title>Node16</title>
<g id="a_node16"><a xlink:href="mxgpuprogram_8h.html" target="_top" xlink:title=" ">
<polygon fill="none" stroke="black" points="427.5,-112.5 427.5,-131.5 515.5,-131.5 515.5,-112.5 427.5,-112.5"/>
<text text-anchor="middle" x="471.5" y="-119.5" font-family="Helvetica,sans-Serif" font-size="10.00">mxgpuprogram.h</text>
</a>
</g>
</g>
<!-- Node15&#45;&gt;Node16 -->
<g id="edge15" class="edge">
<title>Node15&#45;&gt;Node16</title>
<path fill="none" stroke="midnightblue" d="M542,-168.32C528.9,-159.9 508.79,-146.97 493.39,-137.07"/>
<polygon fill="midnightblue" stroke="midnightblue" points="495.27,-134.12 484.96,-131.65 491.48,-140.01 495.27,-134.12"/>
</g>
<!-- Node17 -->
<g id="node17" class="node">
<title>Node17</title>
<g id="a_node17"><a xlink:title=" ">
<polygon fill="none" stroke="#bfbfbf" points="374,-56.5 374,-75.5 439,-75.5 439,-56.5 374,-56.5"/>
<text text-anchor="middle" x="406.5" y="-63.5" font-family="Helvetica,sans-Serif" font-size="10.00">mxopengl.h</text>
</a>
</g>
</g>
<!-- Node16&#45;&gt;Node17 -->
<g id="edge16" class="edge">
<title>Node16&#45;&gt;Node17</title>
<path fill="none" stroke="midnightblue" d="M461.06,-112.32C451.35,-104.26 436.68,-92.08 425,-82.37"/>
<polygon fill="midnightblue" stroke="midnightblue" points="427.06,-79.53 417.13,-75.83 422.59,-84.92 427.06,-79.53"/>
</g>
<!-- Node20 -->
<g id="node20" class="node">
<title>Node20</title>
<g id="a_node20"><a xlink:title=" ">
<polygon fill="none" stroke="#bfbfbf" points="856,-112.5 856,-131.5 981,-131.5 981,-112.5 856,-112.5"/>
<text text-anchor="middle" x="918.5" y="-119.5" font-family="Helvetica,sans-Serif" font-size="10.00">QOpenGLExtraFunctions</text>
</a>
</g>
</g>
<!-- Node19&#45;&gt;Node20 -->
<g id="edge19" class="edge">
<title>Node19&#45;&gt;Node20</title>
<path fill="none" stroke="midnightblue" d="M837.08,-168.32C852.5,-159.74 876.31,-146.49 894.21,-136.52"/>
<polygon fill="midnightblue" stroke="midnightblue" points="895.92,-139.58 902.95,-131.65 892.51,-133.46 895.92,-139.58"/>
</g>
<!-- Node21&#45;&gt;Node10 -->
<g id="edge21" class="edge">
<title>Node21&#45;&gt;Node10</title>
<path fill="none" stroke="midnightblue" d="M224.45,-56.08C228.6,-48.61 234.65,-37.72 239.77,-28.52"/>
<polygon fill="midnightblue" stroke="midnightblue" points="242.84,-30.19 244.64,-19.75 236.72,-26.79 242.84,-30.19"/>
</g>
<!-- Node22&#45;&gt;Node16 -->
<g id="edge23" class="edge">
<title>Node22&#45;&gt;Node16</title>
<path fill="none" stroke="midnightblue" d="M412.52,-224.37C423.04,-206.3 447.54,-164.18 461.43,-140.31"/>
<polygon fill="midnightblue" stroke="midnightblue" points="464.5,-142 466.5,-131.59 458.45,-138.47 464.5,-142"/>
</g>
<!-- Node22&#45;&gt;Node18 -->
<g id="edge24" class="edge">
<title>Node22&#45;&gt;Node18</title>
<path fill="none" stroke="midnightblue" d="M405.15,-224.37C400.28,-206.54 389.04,-165.3 382.48,-141.27"/>
<polygon fill="midnightblue" stroke="midnightblue" points="385.85,-140.32 379.84,-131.59 379.1,-142.16 385.85,-140.32"/>
</g>
<!-- Node23 -->
<g id="node23" class="node">
<title>Node23</title>
<g id="a_node23"><a xlink:href="mxvectordraw_8h.html" target="_top" xlink:title=" ">
<polygon fill="none" stroke="black" points="90,-168.5 90,-187.5 175,-187.5 175,-168.5 90,-168.5"/>
<text text-anchor="middle" x="132.5" y="-175.5" font-family="Helvetica,sans-Serif" font-size="10.00">mxvectordraw.h</text>
</a>
</g>
</g>
<!-- Node22&#45;&gt;Node23 -->
<g id="edge25" class="edge">
<title>Node22&#45;&gt;Node23</title>
<path fill="none" stroke="midnightblue" d="M363.93,-224.44C315.51,-214.94 237.33,-199.58 185.43,-189.39"/>
<polygon fill="midnightblue" stroke="midnightblue" points="185.91,-185.92 175.42,-187.43 184.56,-192.79 185.91,-185.92"/>
</g>
<!-- Node24 -->
<g id="node24" class="node">
<title>Node24</title>
<g id="a_node24"><a xlink:href="mxrect_8h.html" target="_top" xlink:title=" ">
<polygon fill="none" stroke="black" points="115,-112.5 115,-131.5 168,-131.5 168,-112.5 115,-112.5"/>
<text text-anchor="middle" x="141.5" y="-119.5" font-family="Helvetica,sans-Serif" font-size="10.00">mxrect.h</text>
</a>
</g>
</g>
<!-- Node23&#45;&gt;Node24 -->
<g id="edge26" class="edge">
<title>Node23&#45;&gt;Node24</title>
<path fill="none" stroke="midnightblue" d="M133.99,-168.08C135.18,-160.93 136.89,-150.64 138.38,-141.69"/>
<polygon fill="midnightblue" stroke="midnightblue" points="141.85,-142.19 140.04,-131.75 134.95,-141.04 141.85,-142.19"/>
</g>
<!-- Node24&#45;&gt;Node10 -->
<g id="edge27" class="edge">
<title>Node24&#45;&gt;Node10</title>
<path fill="none" stroke="midnightblue" d="M130.24,-112.4C114.83,-99.58 90.56,-74.92 104.5,-56 128.02,-24.08 173.97,-14.13 207.87,-11.36"/>
<polygon fill="midnightblue" stroke="midnightblue" points="208.2,-14.85 217.96,-10.71 207.76,-7.86 208.2,-14.85"/>
</g>
<!-- Node24&#45;&gt;Node21 -->
<g id="edge28" class="edge">
<title>Node24&#45;&gt;Node21</title>
<path fill="none" stroke="midnightblue" d="M154.03,-112.32C166.09,-103.98 184.53,-91.21 198.77,-81.35"/>
<polygon fill="midnightblue" stroke="midnightblue" points="200.77,-84.22 207,-75.65 196.78,-78.47 200.77,-84.22"/>
</g>
<!-- Node25 -->
<g id="node25" class="node">
<title>Node25</title>
<g id="a_node25"><a xlink:title=" ">
<polygon fill="none" stroke="#bfbfbf" points="113.5,-56.5 113.5,-75.5 169.5,-75.5 169.5,-56.5 113.5,-56.5"/>
<text text-anchor="middle" x="141.5" y="-63.5" font-family="Helvetica,sans-Serif" font-size="10.00">algorithm</text>
</a>
</g>
</g>
<!-- Node24&#45;&gt;Node25 -->
<g id="edge29" class="edge">
<title>Node24&#45;&gt;Node25</title>
<path fill="none" stroke="midnightblue" d="M141.5,-112.08C141.5,-105.01 141.5,-94.86 141.5,-85.99"/>
<polygon fill="midnightblue" stroke="midnightblue" points="145,-85.75 141.5,-75.75 138,-85.75 145,-85.75"/>
</g>
<!-- Node26&#45;&gt;Node10 -->
<g id="edge31" class="edge">
<title>Node26&#45;&gt;Node10</title>
<path fill="none" stroke="midnightblue" d="M313.84,-168.08C303.09,-141.83 271.43,-64.55 256.92,-29.12"/>
<polygon fill="midnightblue" stroke="midnightblue" points="260.04,-27.5 253.01,-19.57 253.56,-30.15 260.04,-27.5"/>
</g>
<!-- Node26&#45;&gt;Node16 -->
<g id="edge35" class="edge">
<title>Node26&#45;&gt;Node16</title>
<path fill="none" stroke="midnightblue" d="M341.9,-168.44C367.7,-159.4 408.58,-145.06 437.52,-134.92"/>
<polygon fill="midnightblue" stroke="midnightblue" points="438.93,-138.13 447.21,-131.52 436.62,-131.52 438.93,-138.13"/>
</g>
<!-- Node26&#45;&gt;Node17 -->
<g id="edge34" class="edge">
<title>Node26&#45;&gt;Node17</title>
<path fill="none" stroke="midnightblue" d="M318.31,-168.15C319.92,-154.78 324.57,-129.16 337.5,-112 347.71,-98.45 363.27,-87.8 377.04,-80.26"/>
<polygon fill="midnightblue" stroke="midnightblue" points="378.9,-83.24 386.19,-75.55 375.7,-77.02 378.9,-83.24"/>
</g>
<!-- Node26&#45;&gt;Node18 -->
<g id="edge32" class="edge">
<title>Node26&#45;&gt;Node18</title>
<path fill="none" stroke="midnightblue" d="M327.14,-168.32C336.01,-160.34 349.37,-148.31 360.11,-138.65"/>
<polygon fill="midnightblue" stroke="midnightblue" points="362.59,-141.13 367.68,-131.83 357.91,-135.92 362.59,-141.13"/>
</g>
<!-- Node26&#45;&gt;Node21 -->
<g id="edge33" class="edge">
<title>Node26&#45;&gt;Node21</title>
<path fill="none" stroke="midnightblue" d="M306.04,-168.41C295.01,-159.84 278.17,-145.97 265.5,-132 252.05,-117.17 239.09,-98.31 230.38,-84.73"/>
<polygon fill="midnightblue" stroke="midnightblue" points="233.12,-82.52 224.84,-75.91 227.19,-86.24 233.12,-82.52"/>
</g>
<!-- Node26&#45;&gt;Node24 -->
<g id="edge36" class="edge">
<title>Node26&#45;&gt;Node24</title>
<path fill="none" stroke="midnightblue" d="M289.61,-168.44C259.39,-159.17 211.06,-144.34 177.88,-134.16"/>
<polygon fill="midnightblue" stroke="midnightblue" points="178.69,-130.75 168.11,-131.16 176.64,-137.44 178.69,-130.75"/>
</g>
<!-- Node27&#45;&gt;Node21 -->
<g id="edge38" class="edge">
<title>Node27&#45;&gt;Node21</title>
<path fill="none" stroke="midnightblue" d="M192.06,-224.08C196.62,-197.95 210.03,-121.21 216.25,-85.58"/>
<polygon fill="midnightblue" stroke="midnightblue" points="219.73,-86.02 218,-75.57 212.83,-84.82 219.73,-86.02"/>
</g>
</g>
</svg>
