<?xml version="1.0" encoding="UTF-8" standalone="no"?>
<!DOCTYPE svg PUBLIC "-//W3C//DTD SVG 1.1//EN"
 "http://www.w3.org/Graphics/SVG/1.1/DTD/svg11.dtd">
<!-- Generated by graphviz version 2.44.0 ()
 -->
<!-- Title: src/platformabstraction/qt/qmewawindow.cpp Pages: 1 -->
<svg width="1627pt" height="599pt"
 viewBox="0.00 0.00 1626.50 599.00" xmlns="http://www.w3.org/2000/svg" xmlns:xlink="http://www.w3.org/1999/xlink">
<g id="graph0" class="graph" transform="scale(1 1) rotate(0) translate(4 595)">
<title>src/platformabstraction/qt/qmewawindow.cpp</title>
<!-- Node1 -->
<g id="node1" class="node">
<title>Node1</title>
<g id="a_node1"><a xlink:title=" ">
<polygon fill="#bfbfbf" stroke="black" points="836.5,-560.5 836.5,-590.5 952.5,-590.5 952.5,-560.5 836.5,-560.5"/>
<text text-anchor="start" x="844.5" y="-578.5" font-family="Helvetica,sans-Serif" font-size="10.00">src/platformabstraction</text>
<text text-anchor="middle" x="894.5" y="-567.5" font-family="Helvetica,sans-Serif" font-size="10.00">/qt/qmewawindow.cpp</text>
</a>
</g>
</g>
<!-- Node2 -->
<g id="node2" class="node">
<title>Node2</title>
<g id="a_node2"><a xlink:title=" ">
<polygon fill="none" stroke="#bfbfbf" points="717.5,-504.5 717.5,-523.5 795.5,-523.5 795.5,-504.5 717.5,-504.5"/>
<text text-anchor="middle" x="756.5" y="-511.5" font-family="Helvetica,sans-Serif" font-size="10.00">QMouseEvent</text>
</a>
</g>
</g>
<!-- Node1&#45;&gt;Node2 -->
<g id="edge1" class="edge">
<title>Node1&#45;&gt;Node2</title>
<path fill="none" stroke="midnightblue" d="M861.8,-560.4C838.75,-550.46 808.14,-537.26 785.87,-527.66"/>
<polygon fill="midnightblue" stroke="midnightblue" points="787.15,-524.4 776.58,-523.66 784.38,-530.83 787.15,-524.4"/>
</g>
<!-- Node3 -->
<g id="node3" class="node">
<title>Node3</title>
<g id="a_node3"><a xlink:href="qmewawindow_8h.html" target="_top" xlink:title=" ">
<polygon fill="none" stroke="black" points="814,-504.5 814,-523.5 903,-523.5 903,-504.5 814,-504.5"/>
<text text-anchor="middle" x="858.5" y="-511.5" font-family="Helvetica,sans-Serif" font-size="10.00">qmewawindow.h</text>
</a>
</g>
</g>
<!-- Node1&#45;&gt;Node3 -->
<g id="edge2" class="edge">
<title>Node1&#45;&gt;Node3</title>
<path fill="none" stroke="midnightblue" d="M885.97,-560.4C880.9,-552.02 874.43,-541.33 869.04,-532.42"/>
<polygon fill="midnightblue" stroke="midnightblue" points="871.91,-530.4 863.74,-523.66 865.92,-534.03 871.91,-530.4"/>
</g>
<!-- Node8 -->
<g id="node8" class="node">
<title>Node8</title>
<g id="a_node8"><a xlink:href="mxrect_8h.html" target="_top" xlink:title=" ">
<polygon fill="none" stroke="black" points="653,-224.5 653,-243.5 706,-243.5 706,-224.5 653,-224.5"/>
<text text-anchor="middle" x="679.5" y="-231.5" font-family="Helvetica,sans-Serif" font-size="10.00">mxrect.h</text>
</a>
</g>
</g>
<!-- Node1&#45;&gt;Node8 -->
<g id="edge74" class="edge">
<title>Node1&#45;&gt;Node8</title>
<path fill="none" stroke="midnightblue" d="M902.17,-560.38C913,-539.07 931.5,-497.11 931.5,-459 931.5,-459 931.5,-459 931.5,-401 931.5,-339.31 912.66,-317.27 863.5,-280 811.98,-240.94 783.82,-258.44 716.06,-243.97"/>
<polygon fill="midnightblue" stroke="midnightblue" points="716.76,-240.54 706.23,-241.7 715.19,-247.36 716.76,-240.54"/>
</g>
<!-- Node33 -->
<g id="node33" class="node">
<title>Node33</title>
<g id="a_node33"><a xlink:href="mxapplication_8h.html" target="_top" xlink:title=" ">
<polygon fill="none" stroke="black" points="1002,-448.5 1002,-467.5 1085,-467.5 1085,-448.5 1002,-448.5"/>
<text text-anchor="middle" x="1043.5" y="-455.5" font-family="Helvetica,sans-Serif" font-size="10.00">mxapplication.h</text>
</a>
</g>
</g>
<!-- Node1&#45;&gt;Node33 -->
<g id="edge75" class="edge">
<title>Node1&#45;&gt;Node33</title>
<path fill="none" stroke="midnightblue" d="M912.77,-560.34C941.08,-538.39 995.29,-496.37 1024.21,-473.95"/>
<polygon fill="midnightblue" stroke="midnightblue" points="1026.56,-476.56 1032.32,-467.67 1022.27,-471.03 1026.56,-476.56"/>
</g>
<!-- Node4 -->
<g id="node4" class="node">
<title>Node4</title>
<g id="a_node4"><a xlink:title=" ">
<polygon fill="none" stroke="#bfbfbf" points="638,-448.5 638,-467.5 733,-467.5 733,-448.5 638,-448.5"/>
<text text-anchor="middle" x="685.5" y="-455.5" font-family="Helvetica,sans-Serif" font-size="10.00">QOpenGLWindow</text>
</a>
</g>
</g>
<!-- Node3&#45;&gt;Node4 -->
<g id="edge3" class="edge">
<title>Node3&#45;&gt;Node4</title>
<path fill="none" stroke="midnightblue" d="M831.09,-504.44C801.73,-495.28 754.98,-480.69 722.4,-470.52"/>
<polygon fill="midnightblue" stroke="midnightblue" points="723.37,-467.16 712.78,-467.52 721.29,-473.84 723.37,-467.16"/>
</g>
<!-- Node5 -->
<g id="node5" class="node">
<title>Node5</title>
<g id="a_node5"><a xlink:href="mxiconatlas_8h.html" target="_top" xlink:title=" ">
<polygon fill="none" stroke="black" points="751.5,-448.5 751.5,-467.5 827.5,-467.5 827.5,-448.5 751.5,-448.5"/>
<text text-anchor="middle" x="789.5" y="-455.5" font-family="Helvetica,sans-Serif" font-size="10.00">mxiconatlas.h</text>
</a>
</g>
</g>
<!-- Node3&#45;&gt;Node5 -->
<g id="edge4" class="edge">
<title>Node3&#45;&gt;Node5</title>
<path fill="none" stroke="midnightblue" d="M847.41,-504.32C837.01,-496.18 821.24,-483.84 808.78,-474.09"/>
<polygon fill="midnightblue" stroke="midnightblue" points="810.82,-471.24 800.79,-467.83 806.51,-476.75 810.82,-471.24"/>
</g>
<!-- Node3&#45;&gt;Node33 -->
<g id="edge52" class="edge">
<title>Node3&#45;&gt;Node33</title>
<path fill="none" stroke="midnightblue" d="M887.81,-504.44C919.34,-495.24 969.63,-480.56 1004.49,-470.39"/>
<polygon fill="midnightblue" stroke="midnightblue" points="1005.7,-473.68 1014.32,-467.52 1003.74,-466.96 1005.7,-473.68"/>
</g>
<!-- Node6 -->
<g id="node6" class="node">
<title>Node6</title>
<g id="a_node6"><a xlink:title=" ">
<polygon fill="none" stroke="#bfbfbf" points="322,-392.5 322,-411.5 373,-411.5 373,-392.5 322,-392.5"/>
<text text-anchor="middle" x="347.5" y="-399.5" font-family="Helvetica,sans-Serif" font-size="10.00">QImage</text>
</a>
</g>
</g>
<!-- Node5&#45;&gt;Node6 -->
<g id="edge5" class="edge">
<title>Node5&#45;&gt;Node6</title>
<path fill="none" stroke="midnightblue" d="M751.3,-449.53C747.99,-448.98 744.69,-448.46 741.5,-448 586.03,-425.67 542.17,-439.46 383.16,-411.83"/>
<polygon fill="midnightblue" stroke="midnightblue" points="383.47,-408.33 373.02,-410.04 382.26,-415.22 383.47,-408.33"/>
</g>
<!-- Node7 -->
<g id="node7" class="node">
<title>Node7</title>
<g id="a_node7"><a xlink:href="mxabstractatlas_8h.html" target="_top" xlink:title=" ">
<polygon fill="none" stroke="black" points="602,-336.5 602,-355.5 695,-355.5 695,-336.5 602,-336.5"/>
<text text-anchor="middle" x="648.5" y="-343.5" font-family="Helvetica,sans-Serif" font-size="10.00">mxabstractatlas.h</text>
</a>
</g>
</g>
<!-- Node5&#45;&gt;Node7 -->
<g id="edge6" class="edge">
<title>Node5&#45;&gt;Node7</title>
<path fill="none" stroke="midnightblue" d="M770.72,-448.47C753.84,-440.35 728.81,-427.14 709.5,-412 691.14,-397.61 673.26,-377.64 661.65,-363.64"/>
<polygon fill="midnightblue" stroke="midnightblue" points="664.31,-361.36 655.29,-355.8 658.87,-365.77 664.31,-361.36"/>
</g>
<!-- Node13 -->
<g id="node13" class="node">
<title>Node13</title>
<g id="a_node13"><a xlink:href="mxlist_8h.html" target="_top" xlink:title=" ">
<polygon fill="none" stroke="black" points="1008.5,-336.5 1008.5,-355.5 1058.5,-355.5 1058.5,-336.5 1008.5,-336.5"/>
<text text-anchor="middle" x="1033.5" y="-343.5" font-family="Helvetica,sans-Serif" font-size="10.00">mxlist.h</text>
</a>
</g>
</g>
<!-- Node5&#45;&gt;Node13 -->
<g id="edge13" class="edge">
<title>Node5&#45;&gt;Node13</title>
<path fill="none" stroke="midnightblue" d="M808.65,-448.37C851.41,-429.09 954.86,-382.45 1005.13,-359.79"/>
<polygon fill="midnightblue" stroke="midnightblue" points="1006.76,-362.89 1014.44,-355.59 1003.89,-356.51 1006.76,-362.89"/>
</g>
<!-- Node18 -->
<g id="node18" class="node">
<title>Node18</title>
<g id="a_node18"><a xlink:href="mxrenderer_8h.html" target="_top" xlink:title=" ">
<polygon fill="none" stroke="black" points="391.5,-392.5 391.5,-411.5 463.5,-411.5 463.5,-392.5 391.5,-392.5"/>
<text text-anchor="middle" x="427.5" y="-399.5" font-family="Helvetica,sans-Serif" font-size="10.00">mxrenderer.h</text>
</a>
</g>
</g>
<!-- Node5&#45;&gt;Node18 -->
<g id="edge19" class="edge">
<title>Node5&#45;&gt;Node18</title>
<path fill="none" stroke="midnightblue" d="M751.27,-449.68C747.97,-449.09 744.68,-448.53 741.5,-448 646.74,-432.33 535.35,-417.13 473.98,-409.03"/>
<polygon fill="midnightblue" stroke="midnightblue" points="474.21,-405.53 463.84,-407.69 473.3,-412.47 474.21,-405.53"/>
</g>
<!-- Node31 -->
<g id="node31" class="node">
<title>Node31</title>
<g id="a_node31"><a xlink:href="mximage_8h.html" target="_top" xlink:title=" ">
<polygon fill="none" stroke="black" points="725,-224.5 725,-243.5 788,-243.5 788,-224.5 725,-224.5"/>
<text text-anchor="middle" x="756.5" y="-231.5" font-family="Helvetica,sans-Serif" font-size="10.00">mximage.h</text>
</a>
</g>
</g>
<!-- Node5&#45;&gt;Node31 -->
<g id="edge49" class="edge">
<title>Node5&#45;&gt;Node31</title>
<path fill="none" stroke="midnightblue" d="M787.24,-448.23C781.25,-424.53 764.98,-357.15 758.5,-300 756.75,-284.56 756.3,-266.92 756.26,-253.92"/>
<polygon fill="midnightblue" stroke="midnightblue" points="759.77,-253.88 756.31,-243.86 752.77,-253.85 759.77,-253.88"/>
</g>
<!-- Node32 -->
<g id="node32" class="node">
<title>Node32</title>
<g id="a_node32"><a xlink:href="mxthemeicons_8h.html" target="_top" xlink:title=" ">
<polygon fill="none" stroke="black" points="768,-280.5 768,-299.5 855,-299.5 855,-280.5 768,-280.5"/>
<text text-anchor="middle" x="811.5" y="-287.5" font-family="Helvetica,sans-Serif" font-size="10.00">mxthemeicons.h</text>
</a>
</g>
</g>
<!-- Node5&#45;&gt;Node32 -->
<g id="edge51" class="edge">
<title>Node5&#45;&gt;Node32</title>
<path fill="none" stroke="midnightblue" d="M800.56,-448.48C819.98,-432.73 859.58,-396.91 874.5,-356 877.55,-347.65 878.57,-343.9 874.5,-336 867.42,-322.25 853.98,-311.77 841.32,-304.39"/>
<polygon fill="midnightblue" stroke="midnightblue" points="842.81,-301.22 832.35,-299.57 839.5,-307.39 842.81,-301.22"/>
</g>
<!-- Node7&#45;&gt;Node8 -->
<g id="edge7" class="edge">
<title>Node7&#45;&gt;Node8</title>
<path fill="none" stroke="midnightblue" d="M657.52,-336.34C665.57,-327.93 676.8,-314.36 681.5,-300 686.39,-285.06 685.37,-267.15 683.42,-253.91"/>
<polygon fill="midnightblue" stroke="midnightblue" points="686.8,-252.91 681.6,-243.68 679.91,-254.14 686.8,-252.91"/>
</g>
<!-- Node9 -->
<g id="node9" class="node">
<title>Node9</title>
<g id="a_node9"><a xlink:href="mxdebug_8h.html" target="_top" xlink:title=" ">
<polygon fill="none" stroke="black" points="689,-56.5 689,-75.5 752,-75.5 752,-56.5 689,-56.5"/>
<text text-anchor="middle" x="720.5" y="-63.5" font-family="Helvetica,sans-Serif" font-size="10.00">mxdebug.h</text>
</a>
</g>
</g>
<!-- Node8&#45;&gt;Node9 -->
<g id="edge8" class="edge">
<title>Node8&#45;&gt;Node9</title>
<path fill="none" stroke="midnightblue" d="M681.7,-224.08C688.16,-197.95 707.11,-121.21 715.91,-85.58"/>
<polygon fill="midnightblue" stroke="midnightblue" points="719.38,-86.12 718.38,-75.57 712.59,-84.44 719.38,-86.12"/>
</g>
<!-- Node11 -->
<g id="node11" class="node">
<title>Node11</title>
<g id="a_node11"><a xlink:href="mxvector_8h.html" target="_top" xlink:title=" ">
<polygon fill="none" stroke="black" points="724.5,-168.5 724.5,-187.5 788.5,-187.5 788.5,-168.5 724.5,-168.5"/>
<text text-anchor="middle" x="756.5" y="-175.5" font-family="Helvetica,sans-Serif" font-size="10.00">mxvector.h</text>
</a>
</g>
</g>
<!-- Node8&#45;&gt;Node11 -->
<g id="edge10" class="edge">
<title>Node8&#45;&gt;Node11</title>
<path fill="none" stroke="midnightblue" d="M691.87,-224.32C703.66,-216.06 721.63,-203.45 735.64,-193.63"/>
<polygon fill="midnightblue" stroke="midnightblue" points="737.98,-196.26 744.16,-187.65 733.96,-190.53 737.98,-196.26"/>
</g>
<!-- Node12 -->
<g id="node12" class="node">
<title>Node12</title>
<g id="a_node12"><a xlink:title=" ">
<polygon fill="none" stroke="#bfbfbf" points="612.5,-168.5 612.5,-187.5 668.5,-187.5 668.5,-168.5 612.5,-168.5"/>
<text text-anchor="middle" x="640.5" y="-175.5" font-family="Helvetica,sans-Serif" font-size="10.00">algorithm</text>
</a>
</g>
</g>
<!-- Node8&#45;&gt;Node12 -->
<g id="edge12" class="edge">
<title>Node8&#45;&gt;Node12</title>
<path fill="none" stroke="midnightblue" d="M673.06,-224.08C667.55,-216.46 659.47,-205.26 652.74,-195.94"/>
<polygon fill="midnightblue" stroke="midnightblue" points="655.51,-193.81 646.82,-187.75 649.84,-197.91 655.51,-193.81"/>
</g>
<!-- Node10 -->
<g id="node10" class="node">
<title>Node10</title>
<g id="a_node10"><a xlink:title=" ">
<polygon fill="none" stroke="#bfbfbf" points="694.5,-0.5 694.5,-19.5 746.5,-19.5 746.5,-0.5 694.5,-0.5"/>
<text text-anchor="middle" x="720.5" y="-7.5" font-family="Helvetica,sans-Serif" font-size="10.00">QDebug</text>
</a>
</g>
</g>
<!-- Node9&#45;&gt;Node10 -->
<g id="edge9" class="edge">
<title>Node9&#45;&gt;Node10</title>
<path fill="none" stroke="midnightblue" d="M720.5,-56.08C720.5,-49.01 720.5,-38.86 720.5,-29.99"/>
<polygon fill="midnightblue" stroke="midnightblue" points="724,-29.75 720.5,-19.75 717,-29.75 724,-29.75"/>
</g>
<!-- Node11&#45;&gt;Node9 -->
<g id="edge11" class="edge">
<title>Node11&#45;&gt;Node9</title>
<path fill="none" stroke="midnightblue" d="M753.68,-168.37C747.84,-150.54 734.34,-109.3 726.48,-85.27"/>
<polygon fill="midnightblue" stroke="midnightblue" points="729.75,-84.01 723.31,-75.59 723.1,-86.18 729.75,-84.01"/>
</g>
<!-- Node13&#45;&gt;Node9 -->
<g id="edge14" class="edge">
<title>Node13&#45;&gt;Node9</title>
<path fill="none" stroke="midnightblue" d="M1058.51,-343.67C1114.26,-340.2 1246.31,-329.04 1278.5,-300 1300.85,-279.84 1297.5,-265.1 1297.5,-235 1297.5,-235 1297.5,-235 1297.5,-177 1297.5,-122.52 895.38,-82.34 762.53,-70.55"/>
<polygon fill="midnightblue" stroke="midnightblue" points="762.61,-67.05 752.34,-69.66 762,-74.02 762.61,-67.05"/>
</g>
<!-- Node14 -->
<g id="node14" class="node">
<title>Node14</title>
<g id="a_node14"><a xlink:href="mxrefcounter_8h.html" target="_top" xlink:title=" ">
<polygon fill="none" stroke="black" points="911.5,-280.5 911.5,-299.5 991.5,-299.5 991.5,-280.5 911.5,-280.5"/>
<text text-anchor="middle" x="951.5" y="-287.5" font-family="Helvetica,sans-Serif" font-size="10.00">mxrefcounter.h</text>
</a>
</g>
</g>
<!-- Node13&#45;&gt;Node14 -->
<g id="edge15" class="edge">
<title>Node13&#45;&gt;Node14</title>
<path fill="none" stroke="midnightblue" d="M1020.33,-336.32C1007.65,-327.98 988.27,-315.21 973.29,-305.35"/>
<polygon fill="midnightblue" stroke="midnightblue" points="974.92,-302.23 964.64,-299.65 971.07,-308.08 974.92,-302.23"/>
</g>
<!-- Node15 -->
<g id="node15" class="node">
<title>Node15</title>
<g id="a_node15"><a xlink:title=" ">
<polygon fill="none" stroke="#bfbfbf" points="1010,-280.5 1010,-299.5 1057,-299.5 1057,-280.5 1010,-280.5"/>
<text text-anchor="middle" x="1033.5" y="-287.5" font-family="Helvetica,sans-Serif" font-size="10.00">stdlib.h</text>
</a>
</g>
</g>
<!-- Node13&#45;&gt;Node15 -->
<g id="edge16" class="edge">
<title>Node13&#45;&gt;Node15</title>
<path fill="none" stroke="midnightblue" d="M1033.5,-336.08C1033.5,-329.01 1033.5,-318.86 1033.5,-309.99"/>
<polygon fill="midnightblue" stroke="midnightblue" points="1037,-309.75 1033.5,-299.75 1030,-309.75 1037,-309.75"/>
</g>
<!-- Node16 -->
<g id="node16" class="node">
<title>Node16</title>
<g id="a_node16"><a xlink:title=" ">
<polygon fill="none" stroke="#bfbfbf" points="1075.5,-280.5 1075.5,-299.5 1123.5,-299.5 1123.5,-280.5 1075.5,-280.5"/>
<text text-anchor="middle" x="1099.5" y="-287.5" font-family="Helvetica,sans-Serif" font-size="10.00">string.h</text>
</a>
</g>
</g>
<!-- Node13&#45;&gt;Node16 -->
<g id="edge17" class="edge">
<title>Node13&#45;&gt;Node16</title>
<path fill="none" stroke="midnightblue" d="M1044.1,-336.32C1053.96,-328.26 1068.85,-316.08 1080.72,-306.37"/>
<polygon fill="midnightblue" stroke="midnightblue" points="1083.18,-308.88 1088.7,-299.83 1078.75,-303.46 1083.18,-308.88"/>
</g>
<!-- Node17 -->
<g id="node17" class="node">
<title>Node17</title>
<g id="a_node17"><a xlink:title=" ">
<polygon fill="none" stroke="#bfbfbf" points="1142,-280.5 1142,-299.5 1177,-299.5 1177,-280.5 1142,-280.5"/>
<text text-anchor="middle" x="1159.5" y="-287.5" font-family="Helvetica,sans-Serif" font-size="10.00">new</text>
</a>
</g>
</g>
<!-- Node13&#45;&gt;Node17 -->
<g id="edge18" class="edge">
<title>Node13&#45;&gt;Node17</title>
<path fill="none" stroke="midnightblue" d="M1053.47,-336.44C1074.72,-327.34 1108.48,-312.86 1132.19,-302.71"/>
<polygon fill="midnightblue" stroke="midnightblue" points="1133.85,-305.8 1141.67,-298.64 1131.1,-299.37 1133.85,-305.8"/>
</g>
<!-- Node18&#45;&gt;Node13 -->
<g id="edge40" class="edge">
<title>Node18&#45;&gt;Node13</title>
<path fill="none" stroke="midnightblue" d="M463.59,-397.78C571.49,-388.17 890.75,-359.72 997.94,-350.17"/>
<polygon fill="midnightblue" stroke="midnightblue" points="998.57,-353.63 1008.22,-349.25 997.95,-346.65 998.57,-353.63"/>
</g>
<!-- Node19 -->
<g id="node19" class="node">
<title>Node19</title>
<g id="a_node19"><a xlink:href="mxopenglfunctions_8h.html" target="_top" xlink:title=" ">
<polygon fill="none" stroke="black" points="272,-336.5 272,-355.5 377,-355.5 377,-336.5 272,-336.5"/>
<text text-anchor="middle" x="324.5" y="-343.5" font-family="Helvetica,sans-Serif" font-size="10.00">mxopenglfunctions.h</text>
</a>
</g>
</g>
<!-- Node18&#45;&gt;Node19 -->
<g id="edge20" class="edge">
<title>Node18&#45;&gt;Node19</title>
<path fill="none" stroke="midnightblue" d="M410.95,-392.32C394.51,-383.7 369.07,-370.36 350.03,-360.39"/>
<polygon fill="midnightblue" stroke="midnightblue" points="351.49,-357.2 341.01,-355.65 348.24,-363.4 351.49,-357.2"/>
</g>
<!-- Node21 -->
<g id="node21" class="node">
<title>Node21</title>
<g id="a_node21"><a xlink:href="mxcolorwheelprogram_8h.html" target="_top" xlink:title=" ">
<polygon fill="none" stroke="black" points="63,-280.5 63,-299.5 182,-299.5 182,-280.5 63,-280.5"/>
<text text-anchor="middle" x="122.5" y="-287.5" font-family="Helvetica,sans-Serif" font-size="10.00">mxcolorwheelprogram.h</text>
</a>
</g>
</g>
<!-- Node18&#45;&gt;Node21 -->
<g id="edge22" class="edge">
<title>Node18&#45;&gt;Node21</title>
<path fill="none" stroke="midnightblue" d="M391.34,-393.92C388.01,-393.27 384.69,-392.62 381.5,-392 299.29,-375.96 271.69,-392.92 196.5,-356 172.41,-344.17 150.05,-322.42 136.35,-307.35"/>
<polygon fill="midnightblue" stroke="midnightblue" points="138.91,-304.97 129.67,-299.78 133.66,-309.59 138.91,-304.97"/>
</g>
<!-- Node26 -->
<g id="node26" class="node">
<title>Node26</title>
<g id="a_node26"><a xlink:href="mxvectorprogram_8h.html" target="_top" xlink:title=" ">
<polygon fill="none" stroke="black" points="0,-336.5 0,-355.5 99,-355.5 99,-336.5 0,-336.5"/>
<text text-anchor="middle" x="49.5" y="-343.5" font-family="Helvetica,sans-Serif" font-size="10.00">mxvectorprogram.h</text>
</a>
</g>
</g>
<!-- Node18&#45;&gt;Node26 -->
<g id="edge31" class="edge">
<title>Node18&#45;&gt;Node26</title>
<path fill="none" stroke="midnightblue" d="M391.38,-393.73C388.04,-393.12 384.71,-392.53 381.5,-392 286.72,-376.32 176.04,-362.14 109.44,-354.05"/>
<polygon fill="midnightblue" stroke="midnightblue" points="109.48,-350.53 99.13,-352.81 108.64,-357.48 109.48,-350.53"/>
</g>
<!-- Node28 -->
<g id="node28" class="node">
<title>Node28</title>
<g id="a_node28"><a xlink:href="mxcachedgpuarray_8h.html" target="_top" xlink:title=" ">
<polygon fill="none" stroke="black" points="451,-224.5 451,-243.5 556,-243.5 556,-224.5 451,-224.5"/>
<text text-anchor="middle" x="503.5" y="-231.5" font-family="Helvetica,sans-Serif" font-size="10.00">mxcachedgpuarray.h</text>
</a>
</g>
</g>
<!-- Node18&#45;&gt;Node28 -->
<g id="edge41" class="edge">
<title>Node18&#45;&gt;Node28</title>
<path fill="none" stroke="midnightblue" d="M391.5,-392.7C346.14,-382.02 272.82,-363.89 262.5,-356 233.24,-333.65 205.66,-308.07 229.5,-280 232.93,-275.96 361.11,-256.21 440.92,-244.26"/>
<polygon fill="midnightblue" stroke="midnightblue" points="441.51,-247.71 450.88,-242.77 440.47,-240.79 441.51,-247.71"/>
</g>
<!-- Node30 -->
<g id="node30" class="node">
<title>Node30</title>
<g id="a_node30"><a xlink:href="mxiconprogram_8h.html" target="_top" xlink:title=" ">
<polygon fill="none" stroke="black" points="382.5,-280.5 382.5,-299.5 472.5,-299.5 472.5,-280.5 382.5,-280.5"/>
<text text-anchor="middle" x="427.5" y="-287.5" font-family="Helvetica,sans-Serif" font-size="10.00">mxiconprogram.h</text>
</a>
</g>
</g>
<!-- Node18&#45;&gt;Node30 -->
<g id="edge42" class="edge">
<title>Node18&#45;&gt;Node30</title>
<path fill="none" stroke="midnightblue" d="M427.5,-392.37C427.5,-374.62 427.5,-333.67 427.5,-309.6"/>
<polygon fill="midnightblue" stroke="midnightblue" points="431,-309.59 427.5,-299.59 424,-309.59 431,-309.59"/>
</g>
<!-- Node20 -->
<g id="node20" class="node">
<title>Node20</title>
<g id="a_node20"><a xlink:title=" ">
<polygon fill="none" stroke="#bfbfbf" points="239,-280.5 239,-299.5 364,-299.5 364,-280.5 239,-280.5"/>
<text text-anchor="middle" x="301.5" y="-287.5" font-family="Helvetica,sans-Serif" font-size="10.00">QOpenGLExtraFunctions</text>
</a>
</g>
</g>
<!-- Node19&#45;&gt;Node20 -->
<g id="edge21" class="edge">
<title>Node19&#45;&gt;Node20</title>
<path fill="none" stroke="midnightblue" d="M320.7,-336.08C317.59,-328.77 313.08,-318.18 309.21,-309.1"/>
<polygon fill="midnightblue" stroke="midnightblue" points="312.37,-307.58 305.23,-299.75 305.93,-310.32 312.37,-307.58"/>
</g>
<!-- Node21&#45;&gt;Node8 -->
<g id="edge30" class="edge">
<title>Node21&#45;&gt;Node8</title>
<path fill="none" stroke="midnightblue" d="M182.11,-283.22C297.5,-272.03 548.31,-247.72 642.64,-238.57"/>
<polygon fill="midnightblue" stroke="midnightblue" points="643.22,-242.03 652.83,-237.59 642.54,-235.07 643.22,-242.03"/>
</g>
<!-- Node21&#45;&gt;Node9 -->
<g id="edge23" class="edge">
<title>Node21&#45;&gt;Node9</title>
<path fill="none" stroke="midnightblue" d="M146.99,-280.38C195.87,-263.13 308.95,-223.03 403.5,-188 508.5,-149.09 632.35,-101.25 689.16,-79.2"/>
<polygon fill="midnightblue" stroke="midnightblue" points="690.6,-82.39 698.65,-75.51 688.06,-75.87 690.6,-82.39"/>
</g>
<!-- Node22 -->
<g id="node22" class="node">
<title>Node22</title>
<g id="a_node22"><a xlink:href="mxopengl_8h.html" target="_top" xlink:title=" ">
<polygon fill="none" stroke="black" points="210,-56.5 210,-75.5 275,-75.5 275,-56.5 210,-56.5"/>
<text text-anchor="middle" x="242.5" y="-63.5" font-family="Helvetica,sans-Serif" font-size="10.00">mxopengl.h</text>
</a>
</g>
</g>
<!-- Node21&#45;&gt;Node22 -->
<g id="edge24" class="edge">
<title>Node21&#45;&gt;Node22</title>
<path fill="none" stroke="midnightblue" d="M111.02,-280.46C101.13,-272.34 87.51,-259.12 81.5,-244 69.02,-212.61 64.11,-197.54 80.5,-168 106.52,-121.11 164.36,-93.15 203.4,-78.92"/>
<polygon fill="midnightblue" stroke="midnightblue" points="204.61,-82.2 212.89,-75.59 202.3,-75.6 204.61,-82.2"/>
</g>
<!-- Node23 -->
<g id="node23" class="node">
<title>Node23</title>
<g id="a_node23"><a xlink:href="mxshaderprogram_8h.html" target="_top" xlink:title=" ">
<polygon fill="none" stroke="black" points="231,-112.5 231,-131.5 332,-131.5 332,-112.5 231,-112.5"/>
<text text-anchor="middle" x="281.5" y="-119.5" font-family="Helvetica,sans-Serif" font-size="10.00">mxshaderprogram.h</text>
</a>
</g>
</g>
<!-- Node21&#45;&gt;Node23 -->
<g id="edge25" class="edge">
<title>Node21&#45;&gt;Node23</title>
<path fill="none" stroke="midnightblue" d="M131.05,-280.08C156.73,-253.27 233.43,-173.19 266.28,-138.89"/>
<polygon fill="midnightblue" stroke="midnightblue" points="268.9,-141.21 273.29,-131.57 263.85,-136.37 268.9,-141.21"/>
</g>
<!-- Node24 -->
<g id="node24" class="node">
<title>Node24</title>
<g id="a_node24"><a xlink:href="mxmatrix_8h.html" target="_top" xlink:title=" ">
<polygon fill="none" stroke="black" points="91,-224.5 91,-243.5 154,-243.5 154,-224.5 91,-224.5"/>
<text text-anchor="middle" x="122.5" y="-231.5" font-family="Helvetica,sans-Serif" font-size="10.00">mxmatrix.h</text>
</a>
</g>
</g>
<!-- Node21&#45;&gt;Node24 -->
<g id="edge28" class="edge">
<title>Node21&#45;&gt;Node24</title>
<path fill="none" stroke="midnightblue" d="M122.5,-280.08C122.5,-273.01 122.5,-262.86 122.5,-253.99"/>
<polygon fill="midnightblue" stroke="midnightblue" points="126,-253.75 122.5,-243.75 119,-253.75 126,-253.75"/>
</g>
<!-- Node23&#45;&gt;Node9 -->
<g id="edge26" class="edge">
<title>Node23&#45;&gt;Node9</title>
<path fill="none" stroke="midnightblue" d="M332.29,-114.75C419.88,-103.98 597.72,-82.1 678.68,-72.14"/>
<polygon fill="midnightblue" stroke="midnightblue" points="679.48,-75.57 688.98,-70.88 678.62,-68.62 679.48,-75.57"/>
</g>
<!-- Node23&#45;&gt;Node22 -->
<g id="edge27" class="edge">
<title>Node23&#45;&gt;Node22</title>
<path fill="none" stroke="midnightblue" d="M275.06,-112.08C269.55,-104.46 261.47,-93.26 254.74,-83.94"/>
<polygon fill="midnightblue" stroke="midnightblue" points="257.51,-81.81 248.82,-75.75 251.84,-85.91 257.51,-81.81"/>
</g>
<!-- Node25 -->
<g id="node25" class="node">
<title>Node25</title>
<g id="a_node25"><a xlink:title=" ">
<polygon fill="none" stroke="#bfbfbf" points="90,-168.5 90,-187.5 155,-187.5 155,-168.5 90,-168.5"/>
<text text-anchor="middle" x="122.5" y="-175.5" font-family="Helvetica,sans-Serif" font-size="10.00">QMatrix4x4</text>
</a>
</g>
</g>
<!-- Node24&#45;&gt;Node25 -->
<g id="edge29" class="edge">
<title>Node24&#45;&gt;Node25</title>
<path fill="none" stroke="midnightblue" d="M122.5,-224.08C122.5,-217.01 122.5,-206.86 122.5,-197.99"/>
<polygon fill="midnightblue" stroke="midnightblue" points="126,-197.75 122.5,-187.75 119,-197.75 126,-197.75"/>
</g>
<!-- Node26&#45;&gt;Node23 -->
<g id="edge32" class="edge">
<title>Node26&#45;&gt;Node23</title>
<path fill="none" stroke="midnightblue" d="M47.81,-336.3C42.71,-307.27 30.79,-213.03 80.5,-168 100.87,-149.55 169.28,-137.03 220.67,-129.97"/>
<polygon fill="midnightblue" stroke="midnightblue" points="221.25,-133.42 230.7,-128.63 220.33,-126.48 221.25,-133.42"/>
</g>
<!-- Node26&#45;&gt;Node24 -->
<g id="edge33" class="edge">
<title>Node26&#45;&gt;Node24</title>
<path fill="none" stroke="midnightblue" d="M47.71,-336.3C45.49,-323.13 43.15,-297.78 53.5,-280 61.74,-265.84 76.43,-255.34 90.14,-248.06"/>
<polygon fill="midnightblue" stroke="midnightblue" points="91.94,-251.08 99.38,-243.53 88.86,-244.79 91.94,-251.08"/>
</g>
<!-- Node27 -->
<g id="node27" class="node">
<title>Node27</title>
<g id="a_node27"><a xlink:href="mxvectordraw_8h.html" target="_top" xlink:title=" ">
<polygon fill="none" stroke="black" points="491,-280.5 491,-299.5 576,-299.5 576,-280.5 491,-280.5"/>
<text text-anchor="middle" x="533.5" y="-287.5" font-family="Helvetica,sans-Serif" font-size="10.00">mxvectordraw.h</text>
</a>
</g>
</g>
<!-- Node26&#45;&gt;Node27 -->
<g id="edge34" class="edge">
<title>Node26&#45;&gt;Node27</title>
<path fill="none" stroke="midnightblue" d="M99.2,-340.92C177.88,-334.23 336.19,-319.78 481.01,-299.98"/>
<polygon fill="midnightblue" stroke="midnightblue" points="481.54,-303.44 490.97,-298.6 480.59,-296.5 481.54,-303.44"/>
</g>
<!-- Node27&#45;&gt;Node8 -->
<g id="edge39" class="edge">
<title>Node27&#45;&gt;Node8</title>
<path fill="none" stroke="midnightblue" d="M556.63,-280.44C580.98,-271.44 619.51,-257.19 646.92,-247.05"/>
<polygon fill="midnightblue" stroke="midnightblue" points="648.31,-250.27 656.47,-243.52 645.88,-243.7 648.31,-250.27"/>
</g>
<!-- Node27&#45;&gt;Node28 -->
<g id="edge35" class="edge">
<title>Node27&#45;&gt;Node28</title>
<path fill="none" stroke="midnightblue" d="M528.55,-280.08C524.4,-272.61 518.35,-261.72 513.23,-252.52"/>
<polygon fill="midnightblue" stroke="midnightblue" points="516.28,-250.79 508.36,-243.75 510.16,-254.19 516.28,-250.79"/>
</g>
<!-- Node29 -->
<g id="node29" class="node">
<title>Node29</title>
<g id="a_node29"><a xlink:href="mxgpuarray_8h.html" target="_top" xlink:title=" ">
<polygon fill="none" stroke="black" points="320.5,-168.5 320.5,-187.5 394.5,-187.5 394.5,-168.5 320.5,-168.5"/>
<text text-anchor="middle" x="357.5" y="-175.5" font-family="Helvetica,sans-Serif" font-size="10.00">mxgpuarray.h</text>
</a>
</g>
</g>
<!-- Node28&#45;&gt;Node29 -->
<g id="edge36" class="edge">
<title>Node28&#45;&gt;Node29</title>
<path fill="none" stroke="midnightblue" d="M480.37,-224.44C456.02,-215.44 417.49,-201.19 390.08,-191.05"/>
<polygon fill="midnightblue" stroke="midnightblue" points="391.12,-187.7 380.53,-187.52 388.69,-194.27 391.12,-187.7"/>
</g>
<!-- Node29&#45;&gt;Node22 -->
<g id="edge37" class="edge">
<title>Node29&#45;&gt;Node22</title>
<path fill="none" stroke="midnightblue" d="M357.5,-168.37C357.04,-154.83 354.29,-128.44 340.5,-112 326.29,-95.07 304.35,-84.18 284.82,-77.37"/>
<polygon fill="midnightblue" stroke="midnightblue" points="285.78,-74 275.19,-74.25 283.62,-80.66 285.78,-74"/>
</g>
<!-- Node29&#45;&gt;Node23 -->
<g id="edge38" class="edge">
<title>Node29&#45;&gt;Node23</title>
<path fill="none" stroke="midnightblue" d="M345.29,-168.32C333.72,-160.11 316.12,-147.6 302.34,-137.81"/>
<polygon fill="midnightblue" stroke="midnightblue" points="304.11,-134.77 293.93,-131.83 300.06,-140.48 304.11,-134.77"/>
</g>
<!-- Node30&#45;&gt;Node8 -->
<g id="edge48" class="edge">
<title>Node30&#45;&gt;Node8</title>
<path fill="none" stroke="midnightblue" d="M467.43,-280.44C515.69,-270.1 596.2,-252.85 642.91,-242.84"/>
<polygon fill="midnightblue" stroke="midnightblue" points="643.85,-246.22 652.9,-240.7 642.39,-239.37 643.85,-246.22"/>
</g>
<!-- Node30&#45;&gt;Node9 -->
<g id="edge43" class="edge">
<title>Node30&#45;&gt;Node9</title>
<path fill="none" stroke="midnightblue" d="M463.44,-280.5C498.63,-271.6 549.13,-257.13 564.5,-244 593.37,-219.34 580.03,-197.84 603.5,-168 631.57,-132.31 673.65,-99.67 698.96,-81.65"/>
<polygon fill="midnightblue" stroke="midnightblue" points="701.28,-84.29 707.46,-75.69 697.27,-78.56 701.28,-84.29"/>
</g>
<!-- Node30&#45;&gt;Node11 -->
<g id="edge45" class="edge">
<title>Node30&#45;&gt;Node11</title>
<path fill="none" stroke="midnightblue" d="M467.09,-280.49C502.1,-272.51 554.33,-259.51 598.5,-244 619.15,-236.75 623.33,-232.49 643.5,-224 670.79,-212.51 702.1,-200.1 724.82,-191.23"/>
<polygon fill="midnightblue" stroke="midnightblue" points="726.26,-194.43 734.31,-187.54 723.72,-187.9 726.26,-194.43"/>
</g>
<!-- Node30&#45;&gt;Node22 -->
<g id="edge46" class="edge">
<title>Node30&#45;&gt;Node22</title>
<path fill="none" stroke="midnightblue" d="M404.67,-280.48C358.8,-261.89 256.79,-212.76 221.5,-132 214.62,-116.26 222.25,-97.52 230.17,-84.22"/>
<polygon fill="midnightblue" stroke="midnightblue" points="233.25,-85.9 235.79,-75.61 227.39,-82.08 233.25,-85.9"/>
</g>
<!-- Node30&#45;&gt;Node23 -->
<g id="edge47" class="edge">
<title>Node30&#45;&gt;Node23</title>
<path fill="none" stroke="midnightblue" d="M414.41,-280.42C391.09,-264.56 341.94,-228.59 311.5,-188 300.79,-173.72 292.66,-155.01 287.58,-141.33"/>
<polygon fill="midnightblue" stroke="midnightblue" points="290.78,-139.89 284.17,-131.62 284.18,-142.21 290.78,-139.89"/>
</g>
<!-- Node30&#45;&gt;Node24 -->
<g id="edge44" class="edge">
<title>Node30&#45;&gt;Node24</title>
<path fill="none" stroke="midnightblue" d="M382.5,-281.03C323.69,-270.62 221.48,-252.52 164.3,-242.4"/>
<polygon fill="midnightblue" stroke="midnightblue" points="164.62,-238.9 154.17,-240.61 163.4,-245.8 164.62,-238.9"/>
</g>
<!-- Node31&#45;&gt;Node11 -->
<g id="edge50" class="edge">
<title>Node31&#45;&gt;Node11</title>
<path fill="none" stroke="midnightblue" d="M756.5,-224.08C756.5,-217.01 756.5,-206.86 756.5,-197.99"/>
<polygon fill="midnightblue" stroke="midnightblue" points="760,-197.75 756.5,-187.75 753,-197.75 760,-197.75"/>
</g>
<!-- Node33&#45;&gt;Node9 -->
<g id="edge53" class="edge">
<title>Node33&#45;&gt;Node9</title>
<path fill="none" stroke="midnightblue" d="M1085.36,-456.87C1181.81,-454.14 1411.5,-432.75 1411.5,-291 1411.5,-291 1411.5,-291 1411.5,-177 1411.5,-100.66 1326.72,-129.87 1252.5,-112 1073.93,-69.01 853.06,-65.61 762.36,-66.27"/>
<polygon fill="midnightblue" stroke="midnightblue" points="762.18,-62.77 752.21,-66.37 762.24,-69.77 762.18,-62.77"/>
</g>
<!-- Node33&#45;&gt;Node18 -->
<g id="edge56" class="edge">
<title>Node33&#45;&gt;Node18</title>
<path fill="none" stroke="midnightblue" d="M1001.64,-453.33C890.7,-443.61 589.66,-417.22 473.81,-407.06"/>
<polygon fill="midnightblue" stroke="midnightblue" points="473.78,-403.54 463.51,-406.16 473.17,-410.52 473.78,-403.54"/>
</g>
<!-- Node34 -->
<g id="node34" class="node">
<title>Node34</title>
<g id="a_node34"><a xlink:href="mxwidgetlist_8h.html" target="_top" xlink:title=" ">
<polygon fill="none" stroke="black" points="1047.5,-392.5 1047.5,-411.5 1125.5,-411.5 1125.5,-392.5 1047.5,-392.5"/>
<text text-anchor="middle" x="1086.5" y="-399.5" font-family="Helvetica,sans-Serif" font-size="10.00">mxwidgetlist.h</text>
</a>
</g>
</g>
<!-- Node33&#45;&gt;Node34 -->
<g id="edge54" class="edge">
<title>Node33&#45;&gt;Node34</title>
<path fill="none" stroke="midnightblue" d="M1050.6,-448.08C1056.74,-440.38 1065.77,-429.03 1073.24,-419.65"/>
<polygon fill="midnightblue" stroke="midnightblue" points="1076.04,-421.75 1079.53,-411.75 1070.56,-417.39 1076.04,-421.75"/>
</g>
<!-- Node35 -->
<g id="node35" class="node">
<title>Node35</title>
<g id="a_node35"><a xlink:href="mxmouseevent_8h.html" target="_top" xlink:title=" ">
<polygon fill="none" stroke="black" points="1504.5,-392.5 1504.5,-411.5 1594.5,-411.5 1594.5,-392.5 1504.5,-392.5"/>
<text text-anchor="middle" x="1549.5" y="-399.5" font-family="Helvetica,sans-Serif" font-size="10.00">mxmouseevent.h</text>
</a>
</g>
</g>
<!-- Node33&#45;&gt;Node35 -->
<g id="edge57" class="edge">
<title>Node33&#45;&gt;Node35</title>
<path fill="none" stroke="midnightblue" d="M1085.05,-453.79C1163.09,-447.55 1337.13,-432.69 1494.14,-412.1"/>
<polygon fill="midnightblue" stroke="midnightblue" points="1495,-415.52 1504.45,-410.74 1494.08,-408.58 1495,-415.52"/>
</g>
<!-- Node38 -->
<g id="node38" class="node">
<title>Node38</title>
<g id="a_node38"><a xlink:href="mxpainter_8h.html" target="_top" xlink:title=" ">
<polygon fill="none" stroke="black" points="963.5,-392.5 963.5,-411.5 1029.5,-411.5 1029.5,-392.5 963.5,-392.5"/>
<text text-anchor="middle" x="996.5" y="-399.5" font-family="Helvetica,sans-Serif" font-size="10.00">mxpainter.h</text>
</a>
</g>
</g>
<!-- Node33&#45;&gt;Node38 -->
<g id="edge61" class="edge">
<title>Node33&#45;&gt;Node38</title>
<path fill="none" stroke="midnightblue" d="M1035.74,-448.08C1028.96,-440.3 1018.96,-428.8 1010.74,-419.37"/>
<polygon fill="midnightblue" stroke="midnightblue" points="1013.32,-417 1004.12,-411.75 1008.04,-421.59 1013.32,-417"/>
</g>
<!-- Node42 -->
<g id="node42" class="node">
<title>Node42</title>
<g id="a_node42"><a xlink:href="mxaggregation_8h.html" target="_top" xlink:title=" ">
<polygon fill="none" stroke="black" points="1399,-392.5 1399,-411.5 1486,-411.5 1486,-392.5 1399,-392.5"/>
<text text-anchor="middle" x="1442.5" y="-399.5" font-family="Helvetica,sans-Serif" font-size="10.00">mxaggregation.h</text>
</a>
</g>
</g>
<!-- Node33&#45;&gt;Node42 -->
<g id="edge73" class="edge">
<title>Node33&#45;&gt;Node42</title>
<path fill="none" stroke="midnightblue" d="M1085.01,-451.83C1149.26,-443.76 1276.63,-427.49 1384.5,-412 1385.95,-411.79 1387.42,-411.58 1388.9,-411.36"/>
<polygon fill="midnightblue" stroke="midnightblue" points="1389.44,-414.82 1398.81,-409.89 1388.41,-407.9 1389.44,-414.82"/>
</g>
<!-- Node34&#45;&gt;Node13 -->
<g id="edge55" class="edge">
<title>Node34&#45;&gt;Node13</title>
<path fill="none" stroke="midnightblue" d="M1077.75,-392.08C1070.03,-384.22 1058.6,-372.57 1049.28,-363.08"/>
<polygon fill="midnightblue" stroke="midnightblue" points="1051.59,-360.44 1042.09,-355.75 1046.6,-365.34 1051.59,-360.44"/>
</g>
<!-- Node35&#45;&gt;Node11 -->
<g id="edge58" class="edge">
<title>Node35&#45;&gt;Node11</title>
<path fill="none" stroke="midnightblue" d="M1533.49,-392.37C1492.33,-370.5 1379.03,-312.41 1278.5,-280 1161.44,-242.26 1128.26,-247.3 1007.5,-224 934.25,-209.87 848.67,-194.84 798.74,-186.22"/>
<polygon fill="midnightblue" stroke="midnightblue" points="799.09,-182.73 788.64,-184.48 797.9,-189.63 799.09,-182.73"/>
</g>
<!-- Node36 -->
<g id="node36" class="node">
<title>Node36</title>
<g id="a_node36"><a xlink:href="mxmouseeventabstraction_8h.html" target="_top" xlink:title=" ">
<polygon fill="none" stroke="black" points="1480.5,-336.5 1480.5,-355.5 1618.5,-355.5 1618.5,-336.5 1480.5,-336.5"/>
<text text-anchor="middle" x="1549.5" y="-343.5" font-family="Helvetica,sans-Serif" font-size="10.00">mxmouseeventabstraction.h</text>
</a>
</g>
</g>
<!-- Node35&#45;&gt;Node36 -->
<g id="edge59" class="edge">
<title>Node35&#45;&gt;Node36</title>
<path fill="none" stroke="midnightblue" d="M1549.5,-392.08C1549.5,-385.01 1549.5,-374.86 1549.5,-365.99"/>
<polygon fill="midnightblue" stroke="midnightblue" points="1553,-365.75 1549.5,-355.75 1546,-365.75 1553,-365.75"/>
</g>
<!-- Node37 -->
<g id="node37" class="node">
<title>Node37</title>
<g id="a_node37"><a xlink:title=" ">
<polygon fill="none" stroke="#bfbfbf" points="1535,-280.5 1535,-299.5 1564,-299.5 1564,-280.5 1535,-280.5"/>
<text text-anchor="middle" x="1549.5" y="-287.5" font-family="Helvetica,sans-Serif" font-size="10.00">Qt</text>
</a>
</g>
</g>
<!-- Node36&#45;&gt;Node37 -->
<g id="edge60" class="edge">
<title>Node36&#45;&gt;Node37</title>
<path fill="none" stroke="midnightblue" d="M1549.5,-336.08C1549.5,-329.01 1549.5,-318.86 1549.5,-309.99"/>
<polygon fill="midnightblue" stroke="midnightblue" points="1553,-309.75 1549.5,-299.75 1546,-309.75 1553,-309.75"/>
</g>
<!-- Node38&#45;&gt;Node9 -->
<g id="edge62" class="edge">
<title>Node38&#45;&gt;Node9</title>
<path fill="none" stroke="midnightblue" d="M1029.63,-393.12C1121.62,-371.01 1373.5,-308.83 1373.5,-291 1373.5,-291 1373.5,-291 1373.5,-177 1373.5,-114.82 907.17,-79.18 762.67,-69.63"/>
<polygon fill="midnightblue" stroke="midnightblue" points="762.64,-66.12 752.44,-68.96 762.19,-73.1 762.64,-66.12"/>
</g>
<!-- Node38&#45;&gt;Node13 -->
<g id="edge72" class="edge">
<title>Node38&#45;&gt;Node13</title>
<path fill="none" stroke="midnightblue" d="M1002.61,-392.08C1007.78,-384.53 1015.35,-373.49 1021.69,-364.23"/>
<polygon fill="midnightblue" stroke="midnightblue" points="1024.74,-365.98 1027.5,-355.75 1018.96,-362.02 1024.74,-365.98"/>
</g>
<!-- Node38&#45;&gt;Node27 -->
<g id="edge63" class="edge">
<title>Node38&#45;&gt;Node27</title>
<path fill="none" stroke="midnightblue" d="M963.45,-394.67C920.97,-386.4 845,-371.2 780.5,-356 770.44,-353.63 644.04,-320.24 576.08,-302.27"/>
<polygon fill="midnightblue" stroke="midnightblue" points="576.66,-298.8 566.1,-299.63 574.87,-305.57 576.66,-298.8"/>
</g>
<!-- Node39 -->
<g id="node39" class="node">
<title>Node39</title>
<g id="a_node39"><a xlink:href="mxicondraw_8h.html" target="_top" xlink:title=" ">
<polygon fill="none" stroke="black" points="789.5,-336.5 789.5,-355.5 865.5,-355.5 865.5,-336.5 789.5,-336.5"/>
<text text-anchor="middle" x="827.5" y="-343.5" font-family="Helvetica,sans-Serif" font-size="10.00">mxicondraw.h</text>
</a>
</g>
</g>
<!-- Node38&#45;&gt;Node39 -->
<g id="edge64" class="edge">
<title>Node38&#45;&gt;Node39</title>
<path fill="none" stroke="midnightblue" d="M969.72,-392.44C941.17,-383.32 895.77,-368.81 863.96,-358.65"/>
<polygon fill="midnightblue" stroke="midnightblue" points="864.74,-355.23 854.15,-355.52 862.61,-361.89 864.74,-355.23"/>
</g>
<!-- Node41 -->
<g id="node41" class="node">
<title>Node41</title>
<g id="a_node41"><a xlink:href="mxtextdraw_8h.html" target="_top" xlink:title=" ">
<polygon fill="none" stroke="black" points="1195.5,-280.5 1195.5,-299.5 1269.5,-299.5 1269.5,-280.5 1195.5,-280.5"/>
<text text-anchor="middle" x="1232.5" y="-287.5" font-family="Helvetica,sans-Serif" font-size="10.00">mxtextdraw.h</text>
</a>
</g>
</g>
<!-- Node38&#45;&gt;Node41 -->
<g id="edge69" class="edge">
<title>Node38&#45;&gt;Node41</title>
<path fill="none" stroke="midnightblue" d="M1015.02,-392.37C1056.29,-373.13 1156.02,-326.65 1204.76,-303.93"/>
<polygon fill="midnightblue" stroke="midnightblue" points="1206.48,-306.99 1214.07,-299.59 1203.53,-300.64 1206.48,-306.99"/>
</g>
<!-- Node39&#45;&gt;Node32 -->
<g id="edge68" class="edge">
<title>Node39&#45;&gt;Node32</title>
<path fill="none" stroke="midnightblue" d="M824.86,-336.08C822.71,-328.85 819.62,-318.41 816.95,-309.4"/>
<polygon fill="midnightblue" stroke="midnightblue" points="820.29,-308.34 814.09,-299.75 813.58,-310.33 820.29,-308.34"/>
</g>
<!-- Node40 -->
<g id="node40" class="node">
<title>Node40</title>
<g id="a_node40"><a xlink:href="mxquaddraw_8h.html" target="_top" xlink:title=" ">
<polygon fill="none" stroke="black" points="594,-280.5 594,-299.5 673,-299.5 673,-280.5 594,-280.5"/>
<text text-anchor="middle" x="633.5" y="-287.5" font-family="Helvetica,sans-Serif" font-size="10.00">mxquaddraw.h</text>
</a>
</g>
</g>
<!-- Node39&#45;&gt;Node40 -->
<g id="edge65" class="edge">
<title>Node39&#45;&gt;Node40</title>
<path fill="none" stroke="midnightblue" d="M796.76,-336.44C763.56,-327.2 710.51,-312.44 673.94,-302.26"/>
<polygon fill="midnightblue" stroke="midnightblue" points="674.67,-298.83 664.1,-299.52 672.79,-305.57 674.67,-298.83"/>
</g>
<!-- Node40&#45;&gt;Node8 -->
<g id="edge67" class="edge">
<title>Node40&#45;&gt;Node8</title>
<path fill="none" stroke="midnightblue" d="M641.1,-280.08C647.73,-272.3 657.52,-260.8 665.56,-251.37"/>
<polygon fill="midnightblue" stroke="midnightblue" points="668.23,-253.63 672.05,-243.75 662.9,-249.09 668.23,-253.63"/>
</g>
<!-- Node40&#45;&gt;Node28 -->
<g id="edge66" class="edge">
<title>Node40&#45;&gt;Node28</title>
<path fill="none" stroke="midnightblue" d="M612.9,-280.44C591.51,-271.56 557.82,-257.56 533.48,-247.45"/>
<polygon fill="midnightblue" stroke="midnightblue" points="534.58,-244.12 524,-243.52 531.89,-250.58 534.58,-244.12"/>
</g>
<!-- Node41&#45;&gt;Node8 -->
<g id="edge71" class="edge">
<title>Node41&#45;&gt;Node8</title>
<path fill="none" stroke="midnightblue" d="M1195.4,-281.36C1192.4,-280.85 1189.4,-280.39 1186.5,-280 981.71,-252.24 924.52,-276.79 716.17,-243.8"/>
<polygon fill="midnightblue" stroke="midnightblue" points="716.56,-240.32 706.13,-242.19 715.45,-247.23 716.56,-240.32"/>
</g>
<!-- Node41&#45;&gt;Node11 -->
<g id="edge70" class="edge">
<title>Node41&#45;&gt;Node11</title>
<path fill="none" stroke="midnightblue" d="M1195.55,-280.46C1108.38,-260.32 890.4,-209.94 798.45,-188.7"/>
<polygon fill="midnightblue" stroke="midnightblue" points="799.19,-185.27 788.66,-186.43 797.61,-192.09 799.19,-185.27"/>
</g>
</g>
</svg>
