<?xml version="1.0" encoding="UTF-8" standalone="no"?>
<!DOCTYPE svg PUBLIC "-//W3C//DTD SVG 1.1//EN"
 "http://www.w3.org/Graphics/SVG/1.1/DTD/svg11.dtd">
<!-- Generated by graphviz version 2.44.0 ()
 -->
<!-- Title: src/platform/qt/qmewawindow.h Pages: 1 -->
<svg width="1333pt" height="476pt"
 viewBox="0.00 0.00 1332.97 476.00" xmlns="http://www.w3.org/2000/svg" xmlns:xlink="http://www.w3.org/1999/xlink">
<g id="graph0" class="graph" transform="scale(1 1) rotate(0) translate(4 472)">
<title>src/platform/qt/qmewawindow.h</title>
<!-- Node1 -->
<g id="node1" class="node">
<title>Node1</title>
<g id="a_node1"><a xlink:title=" ">
<polygon fill="#bfbfbf" stroke="black" points="466.47,-448.5 466.47,-467.5 621.47,-467.5 621.47,-448.5 466.47,-448.5"/>
<text text-anchor="middle" x="543.97" y="-455.5" font-family="Helvetica,sans-Serif" font-size="10.00">src/platform/qt/qmewawindow.h</text>
</a>
</g>
</g>
<!-- Node2 -->
<g id="node2" class="node">
<title>Node2</title>
<g id="a_node2"><a xlink:title=" ">
<polygon fill="none" stroke="#bfbfbf" points="420.47,-392.5 420.47,-411.5 515.47,-411.5 515.47,-392.5 420.47,-392.5"/>
<text text-anchor="middle" x="467.97" y="-399.5" font-family="Helvetica,sans-Serif" font-size="10.00">QOpenGLWindow</text>
</a>
</g>
</g>
<!-- Node1&#45;&gt;Node2 -->
<g id="edge1" class="edge">
<title>Node1&#45;&gt;Node2</title>
<path fill="none" stroke="midnightblue" d="M531.76,-448.32C520.19,-440.11 502.59,-427.6 488.81,-417.81"/>
<polygon fill="midnightblue" stroke="midnightblue" points="490.58,-414.77 480.4,-411.83 486.52,-420.48 490.58,-414.77"/>
</g>
<!-- Node3 -->
<g id="node3" class="node">
<title>Node3</title>
<g id="a_node3"><a xlink:href="mxiconatlas_8h.html" target="_top" xlink:title=" ">
<polygon fill="none" stroke="black" points="535.97,-280.5 535.97,-299.5 611.97,-299.5 611.97,-280.5 535.97,-280.5"/>
<text text-anchor="middle" x="573.97" y="-287.5" font-family="Helvetica,sans-Serif" font-size="10.00">mxiconatlas.h</text>
</a>
</g>
</g>
<!-- Node1&#45;&gt;Node3 -->
<g id="edge2" class="edge">
<title>Node1&#45;&gt;Node3</title>
<path fill="none" stroke="midnightblue" d="M545.06,-448.45C547.65,-428.6 554.57,-377.91 562.97,-336 564.73,-327.22 567.04,-317.56 569.09,-309.45"/>
<polygon fill="midnightblue" stroke="midnightblue" points="572.52,-310.14 571.64,-299.58 565.75,-308.38 572.52,-310.14"/>
</g>
<!-- Node24 -->
<g id="node24" class="node">
<title>Node24</title>
<g id="a_node24"><a xlink:href="mxapplication_8h.html" target="_top" xlink:title=" ">
<polygon fill="none" stroke="black" points="895.47,-392.5 895.47,-411.5 978.47,-411.5 978.47,-392.5 895.47,-392.5"/>
<text text-anchor="middle" x="936.97" y="-399.5" font-family="Helvetica,sans-Serif" font-size="10.00">mxapplication.h</text>
</a>
</g>
</g>
<!-- Node1&#45;&gt;Node24 -->
<g id="edge31" class="edge">
<title>Node1&#45;&gt;Node24</title>
<path fill="none" stroke="midnightblue" d="M606.24,-448.44C683.29,-437.86 813.08,-420.02 885.02,-410.14"/>
<polygon fill="midnightblue" stroke="midnightblue" points="885.77,-413.57 895.2,-408.74 884.82,-406.63 885.77,-413.57"/>
</g>
<!-- Node4 -->
<g id="node4" class="node">
<title>Node4</title>
<g id="a_node4"><a xlink:href="mxabstractatlas_8h.html" target="_top" xlink:title=" ">
<polygon fill="none" stroke="black" points="483.47,-224.5 483.47,-243.5 576.47,-243.5 576.47,-224.5 483.47,-224.5"/>
<text text-anchor="middle" x="529.97" y="-231.5" font-family="Helvetica,sans-Serif" font-size="10.00">mxabstractatlas.h</text>
</a>
</g>
</g>
<!-- Node3&#45;&gt;Node4 -->
<g id="edge3" class="edge">
<title>Node3&#45;&gt;Node4</title>
<path fill="none" stroke="midnightblue" d="M566.7,-280.08C560.42,-272.38 551.18,-261.03 543.54,-251.65"/>
<polygon fill="midnightblue" stroke="midnightblue" points="546.13,-249.29 537.1,-243.75 540.7,-253.71 546.13,-249.29"/>
</g>
<!-- Node11 -->
<g id="node11" class="node">
<title>Node11</title>
<g id="a_node11"><a xlink:href="mxlist_8h.html" target="_top" xlink:title=" ">
<polygon fill="none" stroke="black" points="150.97,-168.5 150.97,-187.5 200.97,-187.5 200.97,-168.5 150.97,-168.5"/>
<text text-anchor="middle" x="175.97" y="-175.5" font-family="Helvetica,sans-Serif" font-size="10.00">mxlist.h</text>
</a>
</g>
</g>
<!-- Node3&#45;&gt;Node11 -->
<g id="edge12" class="edge">
<title>Node3&#45;&gt;Node11</title>
<path fill="none" stroke="midnightblue" d="M535.57,-285.88C483.45,-280.88 387.89,-268.98 309.97,-244 269.18,-230.92 225.07,-207.55 199.01,-192.69"/>
<polygon fill="midnightblue" stroke="midnightblue" points="200.68,-189.61 190.27,-187.63 197.17,-195.67 200.68,-189.61"/>
</g>
<!-- Node16 -->
<g id="node16" class="node">
<title>Node16</title>
<g id="a_node16"><a xlink:href="mxrenderer_8h.html" target="_top" xlink:title=" ">
<polygon fill="none" stroke="black" points="738.97,-224.5 738.97,-243.5 810.97,-243.5 810.97,-224.5 738.97,-224.5"/>
<text text-anchor="middle" x="774.97" y="-231.5" font-family="Helvetica,sans-Serif" font-size="10.00">mxrenderer.h</text>
</a>
</g>
</g>
<!-- Node3&#45;&gt;Node16 -->
<g id="edge18" class="edge">
<title>Node3&#45;&gt;Node16</title>
<path fill="none" stroke="midnightblue" d="M605.82,-280.44C640.36,-271.16 695.65,-256.31 733.55,-246.13"/>
<polygon fill="midnightblue" stroke="midnightblue" points="734.52,-249.49 743.27,-243.52 732.7,-242.73 734.52,-249.49"/>
</g>
<!-- Node22 -->
<g id="node22" class="node">
<title>Node22</title>
<g id="a_node22"><a xlink:href="mximage_8h.html" target="_top" xlink:title=" ">
<polygon fill="none" stroke="black" points="596.47,-168.5 596.47,-187.5 659.47,-187.5 659.47,-168.5 596.47,-168.5"/>
<text text-anchor="middle" x="627.97" y="-175.5" font-family="Helvetica,sans-Serif" font-size="10.00">mximage.h</text>
</a>
</g>
</g>
<!-- Node3&#45;&gt;Node22 -->
<g id="edge28" class="edge">
<title>Node3&#45;&gt;Node22</title>
<path fill="none" stroke="midnightblue" d="M578.2,-280.37C587.04,-262.38 607.57,-220.55 619.31,-196.63"/>
<polygon fill="midnightblue" stroke="midnightblue" points="622.48,-198.11 623.75,-187.59 616.2,-195.03 622.48,-198.11"/>
</g>
<!-- Node23 -->
<g id="node23" class="node">
<title>Node23</title>
<g id="a_node23"><a xlink:href="mxthemeicons_8h.html" target="_top" xlink:title=" ">
<polygon fill="none" stroke="black" points="633.47,-224.5 633.47,-243.5 720.47,-243.5 720.47,-224.5 633.47,-224.5"/>
<text text-anchor="middle" x="676.97" y="-231.5" font-family="Helvetica,sans-Serif" font-size="10.00">mxthemeicons.h</text>
</a>
</g>
</g>
<!-- Node3&#45;&gt;Node23 -->
<g id="edge30" class="edge">
<title>Node3&#45;&gt;Node23</title>
<path fill="none" stroke="midnightblue" d="M590.52,-280.32C606.96,-271.7 632.4,-258.36 651.43,-248.39"/>
<polygon fill="midnightblue" stroke="midnightblue" points="653.23,-251.4 660.46,-243.65 649.98,-245.2 653.23,-251.4"/>
</g>
<!-- Node5 -->
<g id="node5" class="node">
<title>Node5</title>
<g id="a_node5"><a xlink:href="mxrect_8h.html" target="_top" xlink:title=" ">
<polygon fill="none" stroke="black" points="839.47,-168.5 839.47,-187.5 892.47,-187.5 892.47,-168.5 839.47,-168.5"/>
<text text-anchor="middle" x="865.97" y="-175.5" font-family="Helvetica,sans-Serif" font-size="10.00">mxrect.h</text>
</a>
</g>
</g>
<!-- Node4&#45;&gt;Node5 -->
<g id="edge4" class="edge">
<title>Node4&#45;&gt;Node5</title>
<path fill="none" stroke="midnightblue" d="M576.63,-227.54C634,-220.5 734.47,-207.07 829.24,-188.19"/>
<polygon fill="midnightblue" stroke="midnightblue" points="830.17,-191.57 839.28,-186.17 828.78,-184.71 830.17,-191.57"/>
</g>
<!-- Node9 -->
<g id="node9" class="node">
<title>Node9</title>
<g id="a_node9"><a xlink:href="mxtexture_8h.html" target="_top" xlink:title=" ">
<polygon fill="none" stroke="black" points="435.97,-168.5 435.97,-187.5 501.97,-187.5 501.97,-168.5 435.97,-168.5"/>
<text text-anchor="middle" x="468.97" y="-175.5" font-family="Helvetica,sans-Serif" font-size="10.00">mxtexture.h</text>
</a>
</g>
</g>
<!-- Node4&#45;&gt;Node9 -->
<g id="edge9" class="edge">
<title>Node4&#45;&gt;Node9</title>
<path fill="none" stroke="midnightblue" d="M520.17,-224.32C511.15,-216.34 497.56,-204.31 486.65,-194.65"/>
<polygon fill="midnightblue" stroke="midnightblue" points="488.75,-191.84 478.95,-187.83 484.11,-197.08 488.75,-191.84"/>
</g>
<!-- Node6 -->
<g id="node6" class="node">
<title>Node6</title>
<g id="a_node6"><a xlink:title=" ">
<polygon fill="none" stroke="#bfbfbf" points="571.47,-0.5 571.47,-19.5 634.47,-19.5 634.47,-0.5 571.47,-0.5"/>
<text text-anchor="middle" x="602.97" y="-7.5" font-family="Helvetica,sans-Serif" font-size="10.00">mxdebug.h</text>
</a>
</g>
</g>
<!-- Node5&#45;&gt;Node6 -->
<g id="edge5" class="edge">
<title>Node5&#45;&gt;Node6</title>
<path fill="none" stroke="midnightblue" d="M877.16,-168.45C892.51,-155.68 916.68,-131.09 902.97,-112 843.46,-29.18 712.58,-13.36 645.08,-10.92"/>
<polygon fill="midnightblue" stroke="midnightblue" points="644.9,-7.42 634.81,-10.64 644.71,-14.41 644.9,-7.42"/>
</g>
<!-- Node7 -->
<g id="node7" class="node">
<title>Node7</title>
<g id="a_node7"><a xlink:href="mxvector_8h.html" target="_top" xlink:title=" ">
<polygon fill="none" stroke="black" points="612.97,-112.5 612.97,-131.5 676.97,-131.5 676.97,-112.5 612.97,-112.5"/>
<text text-anchor="middle" x="644.97" y="-119.5" font-family="Helvetica,sans-Serif" font-size="10.00">mxvector.h</text>
</a>
</g>
</g>
<!-- Node5&#45;&gt;Node7 -->
<g id="edge6" class="edge">
<title>Node5&#45;&gt;Node7</title>
<path fill="none" stroke="midnightblue" d="M839.22,-170.08C836.44,-169.37 833.65,-168.67 830.97,-168 781.76,-155.72 725.1,-142.09 687.38,-133.08"/>
<polygon fill="midnightblue" stroke="midnightblue" points="687.8,-129.58 677.26,-130.66 686.17,-136.39 687.8,-129.58"/>
</g>
<!-- Node8 -->
<g id="node8" class="node">
<title>Node8</title>
<g id="a_node8"><a xlink:title=" ">
<polygon fill="none" stroke="#bfbfbf" points="837.97,-112.5 837.97,-131.5 893.97,-131.5 893.97,-112.5 837.97,-112.5"/>
<text text-anchor="middle" x="865.97" y="-119.5" font-family="Helvetica,sans-Serif" font-size="10.00">algorithm</text>
</a>
</g>
</g>
<!-- Node5&#45;&gt;Node8 -->
<g id="edge8" class="edge">
<title>Node5&#45;&gt;Node8</title>
<path fill="none" stroke="midnightblue" d="M865.97,-168.08C865.97,-161.01 865.97,-150.86 865.97,-141.99"/>
<polygon fill="midnightblue" stroke="midnightblue" points="869.47,-141.75 865.97,-131.75 862.47,-141.75 869.47,-141.75"/>
</g>
<!-- Node7&#45;&gt;Node6 -->
<g id="edge7" class="edge">
<title>Node7&#45;&gt;Node6</title>
<path fill="none" stroke="midnightblue" d="M646.94,-112.21C649.39,-99.36 652.42,-74.9 644.97,-56 640.45,-44.55 631.5,-34.29 623.01,-26.47"/>
<polygon fill="midnightblue" stroke="midnightblue" points="625.05,-23.61 615.18,-19.76 620.5,-28.93 625.05,-23.61"/>
</g>
<!-- Node9&#45;&gt;Node7 -->
<g id="edge10" class="edge">
<title>Node9&#45;&gt;Node7</title>
<path fill="none" stroke="midnightblue" d="M496.85,-168.44C526.72,-159.28 574.28,-144.69 607.42,-134.52"/>
<polygon fill="midnightblue" stroke="midnightblue" points="608.68,-137.8 617.21,-131.52 606.62,-131.1 608.68,-137.8"/>
</g>
<!-- Node10 -->
<g id="node10" class="node">
<title>Node10</title>
<g id="a_node10"><a xlink:title=" ">
<polygon fill="none" stroke="#bfbfbf" points="570.47,-56.5 570.47,-75.5 635.47,-75.5 635.47,-56.5 570.47,-56.5"/>
<text text-anchor="middle" x="602.97" y="-63.5" font-family="Helvetica,sans-Serif" font-size="10.00">mxopengl.h</text>
</a>
</g>
</g>
<!-- Node9&#45;&gt;Node10 -->
<g id="edge11" class="edge">
<title>Node9&#45;&gt;Node10</title>
<path fill="none" stroke="midnightblue" d="M479.48,-168.37C502.18,-149.73 556.03,-105.53 584.53,-82.13"/>
<polygon fill="midnightblue" stroke="midnightblue" points="586.99,-84.64 592.5,-75.59 582.55,-79.23 586.99,-84.64"/>
</g>
<!-- Node11&#45;&gt;Node6 -->
<g id="edge13" class="edge">
<title>Node11&#45;&gt;Node6</title>
<path fill="none" stroke="midnightblue" d="M201.24,-172.12C236.58,-164.99 302.56,-150.52 356.97,-132 415.75,-111.99 429.27,-103.45 484.97,-76 518.34,-59.55 555.8,-38.44 579.38,-24.82"/>
<polygon fill="midnightblue" stroke="midnightblue" points="581.4,-27.7 588.29,-19.65 577.89,-21.64 581.4,-27.7"/>
</g>
<!-- Node12 -->
<g id="node12" class="node">
<title>Node12</title>
<g id="a_node12"><a xlink:href="mxrefcounter_8h.html" target="_top" xlink:title=" ">
<polygon fill="none" stroke="black" points="11.97,-56.5 11.97,-75.5 91.97,-75.5 91.97,-56.5 11.97,-56.5"/>
<text text-anchor="middle" x="51.97" y="-63.5" font-family="Helvetica,sans-Serif" font-size="10.00">mxrefcounter.h</text>
</a>
</g>
</g>
<!-- Node11&#45;&gt;Node12 -->
<g id="edge14" class="edge">
<title>Node11&#45;&gt;Node12</title>
<path fill="none" stroke="midnightblue" d="M150.94,-169.53C131.03,-162.52 103.51,-150.35 84.97,-132 71.78,-118.95 62.87,-99.52 57.67,-85.31"/>
<polygon fill="midnightblue" stroke="midnightblue" points="60.92,-84 54.4,-75.65 54.29,-86.24 60.92,-84"/>
</g>
<!-- Node13 -->
<g id="node13" class="node">
<title>Node13</title>
<g id="a_node13"><a xlink:title=" ">
<polygon fill="none" stroke="#bfbfbf" points="206.47,-0.5 206.47,-19.5 253.47,-19.5 253.47,-0.5 206.47,-0.5"/>
<text text-anchor="middle" x="229.97" y="-7.5" font-family="Helvetica,sans-Serif" font-size="10.00">stdlib.h</text>
</a>
</g>
</g>
<!-- Node11&#45;&gt;Node13 -->
<g id="edge15" class="edge">
<title>Node11&#45;&gt;Node13</title>
<path fill="none" stroke="midnightblue" d="M173.68,-168.25C168.76,-147.55 158.99,-94.44 176.97,-56 182.94,-43.23 194.49,-32.75 205.29,-25.12"/>
<polygon fill="midnightblue" stroke="midnightblue" points="207.22,-28.04 213.67,-19.63 203.39,-22.19 207.22,-28.04"/>
</g>
<!-- Node14 -->
<g id="node14" class="node">
<title>Node14</title>
<g id="a_node14"><a xlink:title=" ">
<polygon fill="none" stroke="#bfbfbf" points="95.97,-0.5 95.97,-19.5 143.97,-19.5 143.97,-0.5 95.97,-0.5"/>
<text text-anchor="middle" x="119.97" y="-7.5" font-family="Helvetica,sans-Serif" font-size="10.00">string.h</text>
</a>
</g>
</g>
<!-- Node11&#45;&gt;Node14 -->
<g id="edge16" class="edge">
<title>Node11&#45;&gt;Node14</title>
<path fill="none" stroke="midnightblue" d="M150.89,-171.85C109.76,-161.82 29.84,-135.22 2.97,-76 -13.64,-39.4 45.59,-22.59 85.77,-15.53"/>
<polygon fill="midnightblue" stroke="midnightblue" points="86.46,-18.96 95.77,-13.9 85.33,-12.05 86.46,-18.96"/>
</g>
<!-- Node15 -->
<g id="node15" class="node">
<title>Node15</title>
<g id="a_node15"><a xlink:title=" ">
<polygon fill="none" stroke="#bfbfbf" points="94.47,-112.5 94.47,-131.5 129.47,-131.5 129.47,-112.5 94.47,-112.5"/>
<text text-anchor="middle" x="111.97" y="-119.5" font-family="Helvetica,sans-Serif" font-size="10.00">new</text>
</a>
</g>
</g>
<!-- Node11&#45;&gt;Node15 -->
<g id="edge17" class="edge">
<title>Node11&#45;&gt;Node15</title>
<path fill="none" stroke="midnightblue" d="M165.68,-168.32C156.13,-160.26 141.69,-148.08 130.18,-138.37"/>
<polygon fill="midnightblue" stroke="midnightblue" points="132.34,-135.61 122.44,-131.83 127.82,-140.96 132.34,-135.61"/>
</g>
<!-- Node16&#45;&gt;Node7 -->
<g id="edge27" class="edge">
<title>Node16&#45;&gt;Node7</title>
<path fill="none" stroke="midnightblue" d="M760.23,-224.35C746.22,-215.84 724.85,-202.11 707.97,-188 689.79,-172.81 671.18,-152.98 658.95,-139.23"/>
<polygon fill="midnightblue" stroke="midnightblue" points="661.44,-136.77 652.21,-131.56 656.18,-141.38 661.44,-136.77"/>
</g>
<!-- Node16&#45;&gt;Node11 -->
<g id="edge19" class="edge">
<title>Node16&#45;&gt;Node11</title>
<path fill="none" stroke="midnightblue" d="M738.68,-225.37C735.74,-224.86 732.81,-224.4 729.97,-224 628.91,-209.84 316.73,-188.36 211.23,-181.32"/>
<polygon fill="midnightblue" stroke="midnightblue" points="211.31,-177.82 201.1,-180.65 210.85,-184.81 211.31,-177.82"/>
</g>
<!-- Node17 -->
<g id="node17" class="node">
<title>Node17</title>
<g id="a_node17"><a xlink:href="mxgpuarray_8h.html" target="_top" xlink:title=" ">
<polygon fill="none" stroke="black" points="910.97,-168.5 910.97,-187.5 984.97,-187.5 984.97,-168.5 910.97,-168.5"/>
<text text-anchor="middle" x="947.97" y="-175.5" font-family="Helvetica,sans-Serif" font-size="10.00">mxgpuarray.h</text>
</a>
</g>
</g>
<!-- Node16&#45;&gt;Node17 -->
<g id="edge20" class="edge">
<title>Node16&#45;&gt;Node17</title>
<path fill="none" stroke="midnightblue" d="M802.38,-224.44C831.74,-215.28 878.49,-200.69 911.06,-190.52"/>
<polygon fill="midnightblue" stroke="midnightblue" points="912.18,-193.84 920.68,-187.52 910.09,-187.16 912.18,-193.84"/>
</g>
<!-- Node19 -->
<g id="node19" class="node">
<title>Node19</title>
<g id="a_node19"><a xlink:href="mxmatrix_8h.html" target="_top" xlink:title=" ">
<polygon fill="none" stroke="black" points="1003.47,-168.5 1003.47,-187.5 1066.47,-187.5 1066.47,-168.5 1003.47,-168.5"/>
<text text-anchor="middle" x="1034.97" y="-175.5" font-family="Helvetica,sans-Serif" font-size="10.00">mxmatrix.h</text>
</a>
</g>
</g>
<!-- Node16&#45;&gt;Node19 -->
<g id="edge24" class="edge">
<title>Node16&#45;&gt;Node19</title>
<path fill="none" stroke="midnightblue" d="M811.04,-225.74C852.52,-217.36 922.92,-203.04 993.27,-188.13"/>
<polygon fill="midnightblue" stroke="midnightblue" points="994.14,-191.52 1003.19,-186.02 992.68,-184.67 994.14,-191.52"/>
</g>
<!-- Node20 -->
<g id="node20" class="node">
<title>Node20</title>
<g id="a_node20"><a xlink:href="mxopenglfunctions_8h.html" target="_top" xlink:title=" ">
<polygon fill="none" stroke="black" points="716.47,-168.5 716.47,-187.5 821.47,-187.5 821.47,-168.5 716.47,-168.5"/>
<text text-anchor="middle" x="768.97" y="-175.5" font-family="Helvetica,sans-Serif" font-size="10.00">mxopenglfunctions.h</text>
</a>
</g>
</g>
<!-- Node16&#45;&gt;Node20 -->
<g id="edge25" class="edge">
<title>Node16&#45;&gt;Node20</title>
<path fill="none" stroke="midnightblue" d="M773.98,-224.08C773.18,-216.93 772.04,-206.64 771.04,-197.69"/>
<polygon fill="midnightblue" stroke="midnightblue" points="774.52,-197.3 769.94,-187.75 767.56,-198.08 774.52,-197.3"/>
</g>
<!-- Node18 -->
<g id="node18" class="node">
<title>Node18</title>
<g id="a_node18"><a xlink:href="mxgpuprogram_8h.html" target="_top" xlink:title=" ">
<polygon fill="none" stroke="black" points="1128.97,-112.5 1128.97,-131.5 1216.97,-131.5 1216.97,-112.5 1128.97,-112.5"/>
<text text-anchor="middle" x="1172.97" y="-119.5" font-family="Helvetica,sans-Serif" font-size="10.00">mxgpuprogram.h</text>
</a>
</g>
</g>
<!-- Node17&#45;&gt;Node18 -->
<g id="edge21" class="edge">
<title>Node17&#45;&gt;Node18</title>
<path fill="none" stroke="midnightblue" d="M983.62,-168.44C1022.62,-159.08 1085.23,-144.06 1127.68,-133.87"/>
<polygon fill="midnightblue" stroke="midnightblue" points="1128.57,-137.25 1137.48,-131.52 1126.94,-130.45 1128.57,-137.25"/>
</g>
<!-- Node18&#45;&gt;Node6 -->
<g id="edge22" class="edge">
<title>Node18&#45;&gt;Node6</title>
<path fill="none" stroke="midnightblue" d="M1146.24,-112.41C1102.64,-98.69 1013.31,-71.76 935.97,-56 832.27,-34.87 708.33,-21.09 644.9,-14.85"/>
<polygon fill="midnightblue" stroke="midnightblue" points="645.18,-11.36 634.88,-13.88 644.5,-18.33 645.18,-11.36"/>
</g>
<!-- Node18&#45;&gt;Node10 -->
<g id="edge23" class="edge">
<title>Node18&#45;&gt;Node10</title>
<path fill="none" stroke="midnightblue" d="M1128.67,-113.82C1124.05,-113.16 1119.42,-112.54 1114.97,-112 941.53,-90.95 733.9,-75.77 645.83,-69.8"/>
<polygon fill="midnightblue" stroke="midnightblue" points="645.9,-66.3 635.69,-69.12 645.43,-73.28 645.9,-66.3"/>
</g>
<!-- Node21 -->
<g id="node21" class="node">
<title>Node21</title>
<g id="a_node21"><a xlink:title=" ">
<polygon fill="none" stroke="#bfbfbf" points="695.47,-112.5 695.47,-131.5 820.47,-131.5 820.47,-112.5 695.47,-112.5"/>
<text text-anchor="middle" x="757.97" y="-119.5" font-family="Helvetica,sans-Serif" font-size="10.00">QOpenGLExtraFunctions</text>
</a>
</g>
</g>
<!-- Node20&#45;&gt;Node21 -->
<g id="edge26" class="edge">
<title>Node20&#45;&gt;Node21</title>
<path fill="none" stroke="midnightblue" d="M767.15,-168.08C765.69,-160.93 763.6,-150.64 761.77,-141.69"/>
<polygon fill="midnightblue" stroke="midnightblue" points="765.17,-140.85 759.75,-131.75 758.32,-142.25 765.17,-140.85"/>
</g>
<!-- Node22&#45;&gt;Node7 -->
<g id="edge29" class="edge">
<title>Node22&#45;&gt;Node7</title>
<path fill="none" stroke="midnightblue" d="M630.77,-168.08C633.05,-160.85 636.34,-150.41 639.17,-141.4"/>
<polygon fill="midnightblue" stroke="midnightblue" points="642.55,-142.34 642.21,-131.75 635.87,-140.24 642.55,-142.34"/>
</g>
<!-- Node24&#45;&gt;Node6 -->
<g id="edge32" class="edge">
<title>Node24&#45;&gt;Node6</title>
<path fill="none" stroke="midnightblue" d="M978.75,-398.54C1054.77,-393.52 1212.31,-380.44 1260.97,-356 1297.19,-337.8 1324.97,-331.54 1324.97,-291 1324.97,-291 1324.97,-291 1324.97,-121 1324.97,-41.35 1235.59,-73.85 1157.97,-56 970.19,-12.82 738.37,-9.6 644.93,-10.29"/>
<polygon fill="midnightblue" stroke="midnightblue" points="644.71,-6.79 634.75,-10.39 644.78,-13.79 644.71,-6.79"/>
</g>
<!-- Node25 -->
<g id="node25" class="node">
<title>Node25</title>
<g id="a_node25"><a xlink:href="mxwidgetlist_8h.html" target="_top" xlink:title=" ">
<polygon fill="none" stroke="black" points="571.97,-336.5 571.97,-355.5 649.97,-355.5 649.97,-336.5 571.97,-336.5"/>
<text text-anchor="middle" x="610.97" y="-343.5" font-family="Helvetica,sans-Serif" font-size="10.00">mxwidgetlist.h</text>
</a>
</g>
</g>
<!-- Node24&#45;&gt;Node25 -->
<g id="edge33" class="edge">
<title>Node24&#45;&gt;Node25</title>
<path fill="none" stroke="midnightblue" d="M895.47,-394.61C843.05,-386.47 749.82,-371.75 660.06,-356.16"/>
<polygon fill="midnightblue" stroke="midnightblue" points="660.44,-352.67 649.98,-354.4 659.23,-359.57 660.44,-352.67"/>
</g>
<!-- Node26 -->
<g id="node26" class="node">
<title>Node26</title>
<g id="a_node26"><a xlink:href="mxguirenderer_8h.html" target="_top" xlink:title=" ">
<polygon fill="none" stroke="black" points="894.47,-336.5 894.47,-355.5 979.47,-355.5 979.47,-336.5 894.47,-336.5"/>
<text text-anchor="middle" x="936.97" y="-343.5" font-family="Helvetica,sans-Serif" font-size="10.00">mxguirenderer.h</text>
</a>
</g>
</g>
<!-- Node24&#45;&gt;Node26 -->
<g id="edge35" class="edge">
<title>Node24&#45;&gt;Node26</title>
<path fill="none" stroke="midnightblue" d="M936.97,-392.08C936.97,-385.01 936.97,-374.86 936.97,-365.99"/>
<polygon fill="midnightblue" stroke="midnightblue" points="940.47,-365.75 936.97,-355.75 933.47,-365.75 940.47,-365.75"/>
</g>
<!-- Node31 -->
<g id="node31" class="node">
<title>Node31</title>
<g id="a_node31"><a xlink:href="mxmouseevent_8h.html" target="_top" xlink:title=" ">
<polygon fill="none" stroke="black" points="1043.97,-336.5 1043.97,-355.5 1133.97,-355.5 1133.97,-336.5 1043.97,-336.5"/>
<text text-anchor="middle" x="1088.97" y="-343.5" font-family="Helvetica,sans-Serif" font-size="10.00">mxmouseevent.h</text>
</a>
</g>
</g>
<!-- Node24&#45;&gt;Node31 -->
<g id="edge51" class="edge">
<title>Node24&#45;&gt;Node31</title>
<path fill="none" stroke="midnightblue" d="M961.05,-392.44C986.51,-383.4 1026.86,-369.06 1055.43,-358.92"/>
<polygon fill="midnightblue" stroke="midnightblue" points="1056.74,-362.16 1064.99,-355.52 1054.4,-355.57 1056.74,-362.16"/>
</g>
<!-- Node33 -->
<g id="node33" class="node">
<title>Node33</title>
<g id="a_node33"><a xlink:href="mxpainter_8h.html" target="_top" xlink:title=" ">
<polygon fill="none" stroke="black" points="667.97,-336.5 667.97,-355.5 733.97,-355.5 733.97,-336.5 667.97,-336.5"/>
<text text-anchor="middle" x="700.97" y="-343.5" font-family="Helvetica,sans-Serif" font-size="10.00">mxpainter.h</text>
</a>
</g>
</g>
<!-- Node24&#45;&gt;Node33 -->
<g id="edge54" class="edge">
<title>Node24&#45;&gt;Node33</title>
<path fill="none" stroke="midnightblue" d="M899.57,-392.44C857.25,-382.76 788.42,-367.01 743.93,-356.83"/>
<polygon fill="midnightblue" stroke="midnightblue" points="744.53,-353.38 734,-354.56 742.97,-360.2 744.53,-353.38"/>
</g>
<!-- Node42 -->
<g id="node42" class="node">
<title>Node42</title>
<g id="a_node42"><a xlink:href="mxguiaggregation_8h.html" target="_top" xlink:title=" ">
<polygon fill="none" stroke="black" points="1151.97,-336.5 1151.97,-355.5 1251.97,-355.5 1251.97,-336.5 1151.97,-336.5"/>
<text text-anchor="middle" x="1201.97" y="-343.5" font-family="Helvetica,sans-Serif" font-size="10.00">mxguiaggregation.h</text>
</a>
</g>
</g>
<!-- Node24&#45;&gt;Node42 -->
<g id="edge81" class="edge">
<title>Node24&#45;&gt;Node42</title>
<path fill="none" stroke="midnightblue" d="M978.66,-392.5C1025.03,-383.06 1099.97,-367.78 1150.09,-357.57"/>
<polygon fill="midnightblue" stroke="midnightblue" points="1150.98,-360.96 1160.07,-355.54 1149.58,-354.1 1150.98,-360.96"/>
</g>
<!-- Node25&#45;&gt;Node11 -->
<g id="edge34" class="edge">
<title>Node25&#45;&gt;Node11</title>
<path fill="none" stroke="midnightblue" d="M571.76,-343.31C474.32,-338.76 227.08,-324.86 199.97,-300 171.51,-273.91 171.23,-224.58 173.55,-197.66"/>
<polygon fill="midnightblue" stroke="midnightblue" points="177.04,-197.95 174.63,-187.63 170.08,-197.2 177.04,-197.95"/>
</g>
<!-- Node26&#45;&gt;Node16 -->
<g id="edge37" class="edge">
<title>Node26&#45;&gt;Node16</title>
<path fill="none" stroke="midnightblue" d="M911.88,-336.38C891.25,-328.64 861.8,-316.02 838.97,-300 819.21,-286.14 800.3,-265.75 788.23,-251.52"/>
<polygon fill="midnightblue" stroke="midnightblue" points="790.72,-249.04 781.65,-243.56 785.32,-253.5 790.72,-249.04"/>
</g>
<!-- Node26&#45;&gt;Node19 -->
<g id="edge50" class="edge">
<title>Node26&#45;&gt;Node19</title>
<path fill="none" stroke="midnightblue" d="M938.62,-336.2C941.27,-323.34 947.19,-298.87 956.97,-280 974.01,-247.1 1002.08,-214.08 1019.49,-195.14"/>
<polygon fill="midnightblue" stroke="midnightblue" points="1022.17,-197.39 1026.45,-187.7 1017.06,-192.61 1022.17,-197.39"/>
</g>
<!-- Node27 -->
<g id="node27" class="node">
<title>Node27</title>
<g id="a_node27"><a xlink:href="mxbuffer_8h.html" target="_top" xlink:title=" ">
<polygon fill="none" stroke="black" points="847.47,-280.5 847.47,-299.5 908.47,-299.5 908.47,-280.5 847.47,-280.5"/>
<text text-anchor="middle" x="877.97" y="-287.5" font-family="Helvetica,sans-Serif" font-size="10.00">mxbuffer.h</text>
</a>
</g>
</g>
<!-- Node26&#45;&gt;Node27 -->
<g id="edge36" class="edge">
<title>Node26&#45;&gt;Node27</title>
<path fill="none" stroke="midnightblue" d="M927.49,-336.32C918.77,-328.34 905.62,-316.31 895.07,-306.65"/>
<polygon fill="midnightblue" stroke="midnightblue" points="897.36,-304 887.62,-299.83 892.63,-309.17 897.36,-304"/>
</g>
<!-- Node28 -->
<g id="node28" class="node">
<title>Node28</title>
<g id="a_node28"><a xlink:href="mxvectorprogram_8h.html" target="_top" xlink:title=" ">
<polygon fill="none" stroke="black" points="965.47,-280.5 965.47,-299.5 1064.47,-299.5 1064.47,-280.5 965.47,-280.5"/>
<text text-anchor="middle" x="1014.97" y="-287.5" font-family="Helvetica,sans-Serif" font-size="10.00">mxvectorprogram.h</text>
</a>
</g>
</g>
<!-- Node26&#45;&gt;Node28 -->
<g id="edge38" class="edge">
<title>Node26&#45;&gt;Node28</title>
<path fill="none" stroke="midnightblue" d="M949.5,-336.32C961.55,-327.98 979.99,-315.21 994.24,-305.35"/>
<polygon fill="midnightblue" stroke="midnightblue" points="996.24,-308.22 1002.47,-299.65 992.25,-302.47 996.24,-308.22"/>
</g>
<!-- Node30 -->
<g id="node30" class="node">
<title>Node30</title>
<g id="a_node30"><a xlink:href="mxiconprogram_8h.html" target="_top" xlink:title=" ">
<polygon fill="none" stroke="black" points="1049.97,-224.5 1049.97,-243.5 1139.97,-243.5 1139.97,-224.5 1049.97,-224.5"/>
<text text-anchor="middle" x="1094.97" y="-231.5" font-family="Helvetica,sans-Serif" font-size="10.00">mxiconprogram.h</text>
</a>
</g>
</g>
<!-- Node26&#45;&gt;Node30 -->
<g id="edge43" class="edge">
<title>Node26&#45;&gt;Node30</title>
<path fill="none" stroke="midnightblue" d="M979.67,-341.12C1009.76,-336.21 1048.98,-325.11 1073.97,-300 1086.11,-287.8 1091.24,-268.53 1093.4,-254.13"/>
<polygon fill="midnightblue" stroke="midnightblue" points="1096.91,-254.2 1094.57,-243.86 1089.96,-253.4 1096.91,-254.2"/>
</g>
<!-- Node28&#45;&gt;Node18 -->
<g id="edge39" class="edge">
<title>Node28&#45;&gt;Node18</title>
<path fill="none" stroke="midnightblue" d="M1064.57,-283.6C1092.8,-278.05 1126.83,-266.8 1148.97,-244 1175.61,-216.56 1176.76,-168.53 1175.02,-141.98"/>
<polygon fill="midnightblue" stroke="midnightblue" points="1178.48,-141.4 1174.13,-131.74 1171.51,-142.01 1178.48,-141.4"/>
</g>
<!-- Node28&#45;&gt;Node19 -->
<g id="edge40" class="edge">
<title>Node28&#45;&gt;Node19</title>
<path fill="none" stroke="midnightblue" d="M1016.54,-280.37C1019.76,-262.62 1027.21,-221.67 1031.59,-197.6"/>
<polygon fill="midnightblue" stroke="midnightblue" points="1035.06,-198.06 1033.4,-187.59 1028.17,-196.8 1035.06,-198.06"/>
</g>
<!-- Node29 -->
<g id="node29" class="node">
<title>Node29</title>
<g id="a_node29"><a xlink:href="mxvectordraw_8h.html" target="_top" xlink:title=" ">
<polygon fill="none" stroke="black" points="867.47,-224.5 867.47,-243.5 952.47,-243.5 952.47,-224.5 867.47,-224.5"/>
<text text-anchor="middle" x="909.97" y="-231.5" font-family="Helvetica,sans-Serif" font-size="10.00">mxvectordraw.h</text>
</a>
</g>
</g>
<!-- Node28&#45;&gt;Node29 -->
<g id="edge41" class="edge">
<title>Node28&#45;&gt;Node29</title>
<path fill="none" stroke="midnightblue" d="M998.1,-280.32C981.26,-271.66 955.16,-258.24 935.73,-248.25"/>
<polygon fill="midnightblue" stroke="midnightblue" points="937.29,-245.12 926.79,-243.65 934.09,-251.34 937.29,-245.12"/>
</g>
<!-- Node29&#45;&gt;Node5 -->
<g id="edge42" class="edge">
<title>Node29&#45;&gt;Node5</title>
<path fill="none" stroke="midnightblue" d="M902.7,-224.08C896.42,-216.38 887.18,-205.03 879.54,-195.65"/>
<polygon fill="midnightblue" stroke="midnightblue" points="882.13,-193.29 873.1,-187.75 876.7,-197.71 882.13,-193.29"/>
</g>
<!-- Node30&#45;&gt;Node5 -->
<g id="edge49" class="edge">
<title>Node30&#45;&gt;Node5</title>
<path fill="none" stroke="midnightblue" d="M1057.57,-224.46C1020.71,-216.01 962.52,-202.56 902.69,-188.15"/>
<polygon fill="midnightblue" stroke="midnightblue" points="903.23,-184.68 892.69,-185.73 901.59,-191.48 903.23,-184.68"/>
</g>
<!-- Node30&#45;&gt;Node6 -->
<g id="edge44" class="edge">
<title>Node30&#45;&gt;Node6</title>
<path fill="none" stroke="midnightblue" d="M1118.31,-224.44C1165.34,-205.93 1263.91,-159.95 1225.97,-112 1153.8,-20.8 772.93,-11.4 644.95,-10.85"/>
<polygon fill="midnightblue" stroke="midnightblue" points="644.78,-7.35 634.77,-10.82 644.76,-14.35 644.78,-7.35"/>
</g>
<!-- Node30&#45;&gt;Node7 -->
<g id="edge46" class="edge">
<title>Node30&#45;&gt;Node7</title>
<path fill="none" stroke="midnightblue" d="M1095.27,-224.2C1095.22,-209.92 1092.84,-181.91 1075.97,-168 1008.98,-112.78 772.78,-145.12 686.97,-132 686.87,-131.98 686.76,-131.97 686.66,-131.95"/>
<polygon fill="midnightblue" stroke="midnightblue" points="687.45,-128.54 677,-130.27 686.25,-135.43 687.45,-128.54"/>
</g>
<!-- Node30&#45;&gt;Node10 -->
<g id="edge47" class="edge">
<title>Node30&#45;&gt;Node10</title>
<path fill="none" stroke="midnightblue" d="M1098.12,-224.41C1102.47,-210.92 1108.44,-184.6 1095.97,-168 1041.9,-96.01 755.35,-74.47 645.69,-68.81"/>
<polygon fill="midnightblue" stroke="midnightblue" points="645.81,-65.31 635.65,-68.31 645.46,-72.3 645.81,-65.31"/>
</g>
<!-- Node30&#45;&gt;Node18 -->
<g id="edge48" class="edge">
<title>Node30&#45;&gt;Node18</title>
<path fill="none" stroke="midnightblue" d="M1108.07,-224.39C1119.65,-216.22 1136.3,-202.97 1146.97,-188 1157.09,-173.78 1164.04,-155.06 1168.19,-141.36"/>
<polygon fill="midnightblue" stroke="midnightblue" points="1171.59,-142.21 1170.92,-131.64 1164.85,-140.32 1171.59,-142.21"/>
</g>
<!-- Node30&#45;&gt;Node19 -->
<g id="edge45" class="edge">
<title>Node30&#45;&gt;Node19</title>
<path fill="none" stroke="midnightblue" d="M1085.33,-224.32C1076.46,-216.34 1063.09,-204.31 1052.36,-194.65"/>
<polygon fill="midnightblue" stroke="midnightblue" points="1054.56,-191.92 1044.78,-187.83 1049.87,-197.13 1054.56,-191.92"/>
</g>
<!-- Node31&#45;&gt;Node7 -->
<g id="edge52" class="edge">
<title>Node31&#45;&gt;Node7</title>
<path fill="none" stroke="midnightblue" d="M1134.05,-336.64C1184.3,-326.87 1259.64,-310.68 1267.97,-300 1273.43,-292.99 1272.2,-287.81 1267.97,-280 1224.49,-199.81 1182.19,-197.78 1095.97,-168 923.48,-108.44 867.41,-159.17 686.97,-132 686.87,-131.98 686.76,-131.97 686.66,-131.95"/>
<polygon fill="midnightblue" stroke="midnightblue" points="687.44,-128.54 677,-130.29 686.26,-135.44 687.44,-128.54"/>
</g>
<!-- Node32 -->
<g id="node32" class="node">
<title>Node32</title>
<g id="a_node32"><a xlink:title=" ">
<polygon fill="none" stroke="#bfbfbf" points="1120.97,-280.5 1120.97,-299.5 1258.97,-299.5 1258.97,-280.5 1120.97,-280.5"/>
<text text-anchor="middle" x="1189.97" y="-287.5" font-family="Helvetica,sans-Serif" font-size="10.00">mxmouseeventabstraction.h</text>
</a>
</g>
</g>
<!-- Node31&#45;&gt;Node32 -->
<g id="edge53" class="edge">
<title>Node31&#45;&gt;Node32</title>
<path fill="none" stroke="midnightblue" d="M1105.19,-336.32C1121.32,-327.7 1146.27,-314.36 1164.93,-304.39"/>
<polygon fill="midnightblue" stroke="midnightblue" points="1166.61,-307.46 1173.78,-299.65 1163.31,-301.28 1166.61,-307.46"/>
</g>
<!-- Node33&#45;&gt;Node6 -->
<g id="edge55" class="edge">
<title>Node33&#45;&gt;Node6</title>
<path fill="none" stroke="midnightblue" d="M667.55,-337.53C664.65,-336.98 661.76,-336.46 658.97,-336 589.44,-324.61 403.3,-337.99 343.97,-300 319.44,-284.3 317.81,-272.04 309.97,-244 300.35,-209.62 311.15,-193.66 335.97,-168 351.72,-151.71 498.77,-88.04 517.97,-76 542.35,-60.7 568.37,-40.1 585.1,-26.23"/>
<polygon fill="midnightblue" stroke="midnightblue" points="587.53,-28.76 592.94,-19.65 583.03,-23.39 587.53,-28.76"/>
</g>
<!-- Node33&#45;&gt;Node11 -->
<g id="edge57" class="edge">
<title>Node33&#45;&gt;Node11</title>
<path fill="none" stroke="midnightblue" d="M667.56,-337.47C664.66,-336.93 661.77,-336.43 658.97,-336 574.47,-323.02 351.52,-340 275.97,-300 231.56,-276.49 199.25,-224.09 184.65,-196.6"/>
<polygon fill="midnightblue" stroke="midnightblue" points="187.76,-195 180.08,-187.7 181.53,-198.2 187.76,-195"/>
</g>
<!-- Node33&#45;&gt;Node29 -->
<g id="edge56" class="edge">
<title>Node33&#45;&gt;Node29</title>
<path fill="none" stroke="midnightblue" d="M717.37,-336.37C753.69,-317.25 841.13,-271.23 884.58,-248.36"/>
<polygon fill="midnightblue" stroke="midnightblue" points="886.42,-251.35 893.64,-243.59 883.16,-245.15 886.42,-251.35"/>
</g>
<!-- Node34 -->
<g id="node34" class="node">
<title>Node34</title>
<g id="a_node34"><a xlink:href="mxtextdraw_8h.html" target="_top" xlink:title=" ">
<polygon fill="none" stroke="black" points="390.97,-224.5 390.97,-243.5 464.97,-243.5 464.97,-224.5 390.97,-224.5"/>
<text text-anchor="middle" x="427.97" y="-231.5" font-family="Helvetica,sans-Serif" font-size="10.00">mxtextdraw.h</text>
</a>
</g>
</g>
<!-- Node33&#45;&gt;Node34 -->
<g id="edge58" class="edge">
<title>Node33&#45;&gt;Node34</title>
<path fill="none" stroke="midnightblue" d="M667.96,-337.82C624.9,-328.22 552.07,-311.12 526.97,-300 496.81,-286.64 465.57,-264.5 446.45,-249.83"/>
<polygon fill="midnightblue" stroke="midnightblue" points="448.6,-247.07 438.56,-243.67 444.29,-252.58 448.6,-247.07"/>
</g>
<!-- Node39 -->
<g id="node39" class="node">
<title>Node39</title>
<g id="a_node39"><a xlink:href="mxicondraw_8h.html" target="_top" xlink:title=" ">
<polygon fill="none" stroke="black" points="662.97,-280.5 662.97,-299.5 738.97,-299.5 738.97,-280.5 662.97,-280.5"/>
<text text-anchor="middle" x="700.97" y="-287.5" font-family="Helvetica,sans-Serif" font-size="10.00">mxicondraw.h</text>
</a>
</g>
</g>
<!-- Node33&#45;&gt;Node39 -->
<g id="edge73" class="edge">
<title>Node33&#45;&gt;Node39</title>
<path fill="none" stroke="midnightblue" d="M700.97,-336.08C700.97,-329.01 700.97,-318.86 700.97,-309.99"/>
<polygon fill="midnightblue" stroke="midnightblue" points="704.47,-309.75 700.97,-299.75 697.47,-309.75 704.47,-309.75"/>
</g>
<!-- Node40 -->
<g id="node40" class="node">
<title>Node40</title>
<g id="a_node40"><a xlink:href="mxstaticfont_8h.html" target="_top" xlink:title=" ">
<polygon fill="none" stroke="black" points="353.47,-280.5 353.47,-299.5 430.47,-299.5 430.47,-280.5 353.47,-280.5"/>
<text text-anchor="middle" x="391.97" y="-287.5" font-family="Helvetica,sans-Serif" font-size="10.00">mxstaticfont.h</text>
</a>
</g>
</g>
<!-- Node33&#45;&gt;Node40 -->
<g id="edge76" class="edge">
<title>Node33&#45;&gt;Node40</title>
<path fill="none" stroke="midnightblue" d="M667.52,-337.69C664.63,-337.11 661.75,-336.53 658.97,-336 582.84,-321.44 494.02,-306.97 440.44,-298.51"/>
<polygon fill="midnightblue" stroke="midnightblue" points="440.95,-295.05 430.53,-296.95 439.86,-301.96 440.95,-295.05"/>
</g>
<!-- Node34&#45;&gt;Node5 -->
<g id="edge72" class="edge">
<title>Node34&#45;&gt;Node5</title>
<path fill="none" stroke="midnightblue" d="M465.07,-225.43C468.08,-224.91 471.07,-224.43 473.97,-224 628.49,-201.14 672.18,-215.33 829.29,-188.07"/>
<polygon fill="midnightblue" stroke="midnightblue" points="830.06,-191.48 839.3,-186.3 828.85,-184.59 830.06,-191.48"/>
</g>
<!-- Node34&#45;&gt;Node7 -->
<g id="edge59" class="edge">
<title>Node34&#45;&gt;Node7</title>
<path fill="none" stroke="midnightblue" d="M454.42,-224.45C478.37,-216.31 514.32,-203.09 543.97,-188 573.46,-172.99 605.2,-151.61 625.06,-137.53"/>
<polygon fill="midnightblue" stroke="midnightblue" points="627.22,-140.29 633.31,-131.62 623.14,-134.6 627.22,-140.29"/>
</g>
<!-- Node35 -->
<g id="node35" class="node">
<title>Node35</title>
<g id="a_node35"><a xlink:href="mxstring_8h.html" target="_top" xlink:title=" ">
<polygon fill="none" stroke="black" points="356.47,-168.5 356.47,-187.5 417.47,-187.5 417.47,-168.5 356.47,-168.5"/>
<text text-anchor="middle" x="386.97" y="-175.5" font-family="Helvetica,sans-Serif" font-size="10.00">mxstring.h</text>
</a>
</g>
</g>
<!-- Node34&#45;&gt;Node35 -->
<g id="edge60" class="edge">
<title>Node34&#45;&gt;Node35</title>
<path fill="none" stroke="midnightblue" d="M421.2,-224.08C415.4,-216.46 406.91,-205.26 399.83,-195.94"/>
<polygon fill="midnightblue" stroke="midnightblue" points="402.45,-193.6 393.61,-187.75 396.87,-197.83 402.45,-193.6"/>
</g>
<!-- Node36 -->
<g id="node36" class="node">
<title>Node36</title>
<g id="a_node36"><a xlink:href="mxgenericstring_8h.html" target="_top" xlink:title=" ">
<polygon fill="none" stroke="black" points="255.97,-112.5 255.97,-131.5 347.97,-131.5 347.97,-112.5 255.97,-112.5"/>
<text text-anchor="middle" x="301.97" y="-119.5" font-family="Helvetica,sans-Serif" font-size="10.00">mxgenericstring.h</text>
</a>
</g>
</g>
<!-- Node35&#45;&gt;Node36 -->
<g id="edge61" class="edge">
<title>Node35&#45;&gt;Node36</title>
<path fill="none" stroke="midnightblue" d="M373.31,-168.32C360.05,-159.9 339.7,-146.97 324.12,-137.07"/>
<polygon fill="midnightblue" stroke="midnightblue" points="325.91,-134.06 315.59,-131.65 322.15,-139.97 325.91,-134.06"/>
</g>
<!-- Node36&#45;&gt;Node6 -->
<g id="edge62" class="edge">
<title>Node36&#45;&gt;Node6</title>
<path fill="none" stroke="midnightblue" d="M306.98,-112.17C315.6,-97.85 334.69,-69.79 358.97,-56 422.91,-19.67 510.1,-11.78 561.08,-10.56"/>
<polygon fill="midnightblue" stroke="midnightblue" points="561.14,-14.06 571.08,-10.4 561.02,-7.06 561.14,-14.06"/>
</g>
<!-- Node36&#45;&gt;Node12 -->
<g id="edge63" class="edge">
<title>Node36&#45;&gt;Node12</title>
<path fill="none" stroke="midnightblue" d="M262.35,-112.44C218.74,-103.02 148.57,-87.87 101.39,-77.68"/>
<polygon fill="midnightblue" stroke="midnightblue" points="101.91,-74.21 91.39,-75.52 100.43,-81.05 101.91,-74.21"/>
</g>
<!-- Node36&#45;&gt;Node13 -->
<g id="edge70" class="edge">
<title>Node36&#45;&gt;Node13</title>
<path fill="none" stroke="midnightblue" d="M300.86,-112.36C298.86,-99.26 293.71,-74 281.97,-56 274.22,-44.13 262.47,-33.58 252.1,-25.7"/>
<polygon fill="midnightblue" stroke="midnightblue" points="253.99,-22.74 243.83,-19.72 249.89,-28.41 253.99,-22.74"/>
</g>
<!-- Node36&#45;&gt;Node14 -->
<g id="edge71" class="edge">
<title>Node36&#45;&gt;Node14</title>
<path fill="none" stroke="midnightblue" d="M263.26,-112.48C237.29,-105.52 203.17,-93.86 176.97,-76 158.25,-63.24 141.79,-42.93 131.43,-28.41"/>
<polygon fill="midnightblue" stroke="midnightblue" points="134.09,-26.1 125.54,-19.84 128.32,-30.07 134.09,-26.1"/>
</g>
<!-- Node37 -->
<g id="node37" class="node">
<title>Node37</title>
<g id="a_node37"><a xlink:href="mxbytearrayref_8h.html" target="_top" xlink:title=" ">
<polygon fill="none" stroke="black" points="186.47,-56.5 186.47,-75.5 273.47,-75.5 273.47,-56.5 186.47,-56.5"/>
<text text-anchor="middle" x="229.97" y="-63.5" font-family="Helvetica,sans-Serif" font-size="10.00">mxbytearrayref.h</text>
</a>
</g>
</g>
<!-- Node36&#45;&gt;Node37 -->
<g id="edge64" class="edge">
<title>Node36&#45;&gt;Node37</title>
<path fill="none" stroke="midnightblue" d="M290.4,-112.32C279.55,-104.18 263.09,-91.84 250.08,-82.09"/>
<polygon fill="midnightblue" stroke="midnightblue" points="251.85,-79.03 241.75,-75.83 247.65,-84.63 251.85,-79.03"/>
</g>
<!-- Node38 -->
<g id="node38" class="node">
<title>Node38</title>
<g id="a_node38"><a xlink:href="mxgenericsubstring_8h.html" target="_top" xlink:title=" ">
<polygon fill="none" stroke="black" points="367.97,-56.5 367.97,-75.5 475.97,-75.5 475.97,-56.5 367.97,-56.5"/>
<text text-anchor="middle" x="421.97" y="-63.5" font-family="Helvetica,sans-Serif" font-size="10.00">mxgenericsubstring.h</text>
</a>
</g>
</g>
<!-- Node36&#45;&gt;Node38 -->
<g id="edge68" class="edge">
<title>Node36&#45;&gt;Node38</title>
<path fill="none" stroke="midnightblue" d="M320.98,-112.44C340.55,-103.64 371.27,-89.81 393.7,-79.72"/>
<polygon fill="midnightblue" stroke="midnightblue" points="395.36,-82.81 403.04,-75.52 392.49,-76.43 395.36,-82.81"/>
</g>
<!-- Node37&#45;&gt;Node6 -->
<g id="edge65" class="edge">
<title>Node37&#45;&gt;Node6</title>
<path fill="none" stroke="midnightblue" d="M273.48,-58.7C345.93,-48.21 490.3,-27.31 561.42,-17.02"/>
<polygon fill="midnightblue" stroke="midnightblue" points="561.96,-20.47 571.36,-15.58 560.96,-13.54 561.96,-20.47"/>
</g>
<!-- Node37&#45;&gt;Node13 -->
<g id="edge66" class="edge">
<title>Node37&#45;&gt;Node13</title>
<path fill="none" stroke="midnightblue" d="M229.97,-56.08C229.97,-49.01 229.97,-38.86 229.97,-29.99"/>
<polygon fill="midnightblue" stroke="midnightblue" points="233.47,-29.75 229.97,-19.75 226.47,-29.75 233.47,-29.75"/>
</g>
<!-- Node37&#45;&gt;Node14 -->
<g id="edge67" class="edge">
<title>Node37&#45;&gt;Node14</title>
<path fill="none" stroke="midnightblue" d="M212.29,-56.32C194.57,-47.62 167.06,-34.12 146.68,-24.11"/>
<polygon fill="midnightblue" stroke="midnightblue" points="148.12,-20.92 137.6,-19.65 145.03,-27.2 148.12,-20.92"/>
</g>
<!-- Node38&#45;&gt;Node6 -->
<g id="edge69" class="edge">
<title>Node38&#45;&gt;Node6</title>
<path fill="none" stroke="midnightblue" d="M450.65,-56.44C481.49,-47.24 530.7,-32.56 564.8,-22.39"/>
<polygon fill="midnightblue" stroke="midnightblue" points="565.84,-25.73 574.42,-19.52 563.84,-19.02 565.84,-25.73"/>
</g>
<!-- Node39&#45;&gt;Node5 -->
<g id="edge75" class="edge">
<title>Node39&#45;&gt;Node5</title>
<path fill="none" stroke="midnightblue" d="M739.23,-280.72C764.1,-273.93 796.2,-262.38 819.97,-244 836.32,-231.36 849.26,-211.31 857.2,-196.82"/>
<polygon fill="midnightblue" stroke="midnightblue" points="860.36,-198.33 861.87,-187.84 854.15,-195.09 860.36,-198.33"/>
</g>
<!-- Node39&#45;&gt;Node23 -->
<g id="edge74" class="edge">
<title>Node39&#45;&gt;Node23</title>
<path fill="none" stroke="midnightblue" d="M697,-280.08C693.75,-272.77 689.05,-262.18 685.01,-253.1"/>
<polygon fill="midnightblue" stroke="midnightblue" points="688.12,-251.47 680.86,-243.75 681.72,-254.31 688.12,-251.47"/>
</g>
<!-- Node41 -->
<g id="node41" class="node">
<title>Node41</title>
<g id="a_node41"><a xlink:href="mxfont_8h.html" target="_top" xlink:title=" ">
<polygon fill="none" stroke="black" points="319.47,-224.5 319.47,-243.5 372.47,-243.5 372.47,-224.5 319.47,-224.5"/>
<text text-anchor="middle" x="345.97" y="-231.5" font-family="Helvetica,sans-Serif" font-size="10.00">mxfont.h</text>
</a>
</g>
</g>
<!-- Node40&#45;&gt;Node41 -->
<g id="edge77" class="edge">
<title>Node40&#45;&gt;Node41</title>
<path fill="none" stroke="midnightblue" d="M384.37,-280.08C377.74,-272.3 367.95,-260.8 359.91,-251.37"/>
<polygon fill="midnightblue" stroke="midnightblue" points="362.57,-249.09 353.42,-243.75 357.24,-253.63 362.57,-249.09"/>
</g>
<!-- Node41&#45;&gt;Node7 -->
<g id="edge78" class="edge">
<title>Node41&#45;&gt;Node7</title>
<path fill="none" stroke="midnightblue" d="M372.69,-226.15C416.05,-214.96 498.21,-193.48 510.97,-188 526.73,-181.23 528.77,-175.95 543.97,-168 567.06,-155.92 594.07,-143.99 614.35,-135.46"/>
<polygon fill="midnightblue" stroke="midnightblue" points="615.83,-138.63 623.71,-131.55 613.13,-132.17 615.83,-138.63"/>
</g>
<!-- Node41&#45;&gt;Node10 -->
<g id="edge80" class="edge">
<title>Node41&#45;&gt;Node10</title>
<path fill="none" stroke="midnightblue" d="M343.26,-224.46C339.59,-211.03 334.77,-184.8 346.97,-168 375.95,-128.08 405.94,-149.77 451.97,-132 495.27,-115.29 544.48,-93.58 574.63,-79.97"/>
<polygon fill="midnightblue" stroke="midnightblue" points="576.43,-82.99 584.09,-75.68 573.54,-76.62 576.43,-82.99"/>
</g>
<!-- Node41&#45;&gt;Node35 -->
<g id="edge79" class="edge">
<title>Node41&#45;&gt;Node35</title>
<path fill="none" stroke="midnightblue" d="M352.74,-224.08C358.53,-216.46 367.03,-205.26 374.1,-195.94"/>
<polygon fill="midnightblue" stroke="midnightblue" points="377.06,-197.83 380.32,-187.75 371.49,-193.6 377.06,-197.83"/>
</g>
</g>
</svg>
