<?xml version="1.0" encoding="UTF-8" standalone="no"?>
<!DOCTYPE svg PUBLIC "-//W3C//DTD SVG 1.1//EN"
 "http://www.w3.org/Graphics/SVG/1.1/DTD/svg11.dtd">
<!-- Generated by graphviz version 2.44.0 ()
 -->
<!-- Title: src/platformabstraction/qt/qmewawindow.cpp Pages: 1 -->
<svg width="1003pt" height="487pt"
 viewBox="0.00 0.00 1003.00 487.00" xmlns="http://www.w3.org/2000/svg" xmlns:xlink="http://www.w3.org/1999/xlink">
<g id="graph0" class="graph" transform="scale(1 1) rotate(0) translate(4 483)">
<title>src/platformabstraction/qt/qmewawindow.cpp</title>
<!-- Node1 -->
<g id="node1" class="node">
<title>Node1</title>
<g id="a_node1"><a xlink:title=" ">
<polygon fill="#bfbfbf" stroke="black" points="596,-448.5 596,-478.5 712,-478.5 712,-448.5 596,-448.5"/>
<text text-anchor="start" x="604" y="-466.5" font-family="Helvetica,sans-Serif" font-size="10.00">src/platformabstraction</text>
<text text-anchor="middle" x="654" y="-455.5" font-family="Helvetica,sans-Serif" font-size="10.00">/qt/qmewawindow.cpp</text>
</a>
</g>
</g>
<!-- Node2 -->
<g id="node2" class="node">
<title>Node2</title>
<g id="a_node2"><a xlink:title=" ">
<polygon fill="none" stroke="#bfbfbf" points="477,-392.5 477,-411.5 555,-411.5 555,-392.5 477,-392.5"/>
<text text-anchor="middle" x="516" y="-399.5" font-family="Helvetica,sans-Serif" font-size="10.00">QMouseEvent</text>
</a>
</g>
</g>
<!-- Node1&#45;&gt;Node2 -->
<g id="edge1" class="edge">
<title>Node1&#45;&gt;Node2</title>
<path fill="none" stroke="midnightblue" d="M621.3,-448.4C598.25,-438.46 567.64,-425.26 545.37,-415.66"/>
<polygon fill="midnightblue" stroke="midnightblue" points="546.65,-412.4 536.08,-411.66 543.88,-418.83 546.65,-412.4"/>
</g>
<!-- Node3 -->
<g id="node3" class="node">
<title>Node3</title>
<g id="a_node3"><a xlink:href="qmewawindow_8h.html" target="_top" xlink:title=" ">
<polygon fill="none" stroke="black" points="573.5,-392.5 573.5,-411.5 662.5,-411.5 662.5,-392.5 573.5,-392.5"/>
<text text-anchor="middle" x="618" y="-399.5" font-family="Helvetica,sans-Serif" font-size="10.00">qmewawindow.h</text>
</a>
</g>
</g>
<!-- Node1&#45;&gt;Node3 -->
<g id="edge2" class="edge">
<title>Node1&#45;&gt;Node3</title>
<path fill="none" stroke="midnightblue" d="M645.47,-448.4C640.4,-440.02 633.93,-429.33 628.54,-420.42"/>
<polygon fill="midnightblue" stroke="midnightblue" points="631.41,-418.4 623.24,-411.66 625.42,-422.03 631.41,-418.4"/>
</g>
<!-- Node8 -->
<g id="node8" class="node">
<title>Node8</title>
<g id="a_node8"><a xlink:href="mxrect_8h.html" target="_top" xlink:title=" ">
<polygon fill="none" stroke="black" points="786.5,-112.5 786.5,-131.5 839.5,-131.5 839.5,-112.5 786.5,-112.5"/>
<text text-anchor="middle" x="813" y="-119.5" font-family="Helvetica,sans-Serif" font-size="10.00">mxrect.h</text>
</a>
</g>
</g>
<!-- Node1&#45;&gt;Node8 -->
<g id="edge40" class="edge">
<title>Node1&#45;&gt;Node8</title>
<path fill="none" stroke="midnightblue" d="M712.23,-454.99C809.63,-440.78 995,-405.99 995,-347 995,-347 995,-347 995,-289 995,-209.25 898.43,-157.6 845.97,-135.43"/>
<polygon fill="midnightblue" stroke="midnightblue" points="847,-132.07 836.42,-131.51 844.34,-138.55 847,-132.07"/>
</g>
<!-- Node20 -->
<g id="node20" class="node">
<title>Node20</title>
<g id="a_node20"><a xlink:href="mxapplication_8h.html" target="_top" xlink:title=" ">
<polygon fill="none" stroke="black" points="647.5,-336.5 647.5,-355.5 730.5,-355.5 730.5,-336.5 647.5,-336.5"/>
<text text-anchor="middle" x="689" y="-343.5" font-family="Helvetica,sans-Serif" font-size="10.00">mxapplication.h</text>
</a>
</g>
</g>
<!-- Node1&#45;&gt;Node20 -->
<g id="edge41" class="edge">
<title>Node1&#45;&gt;Node20</title>
<path fill="none" stroke="midnightblue" d="M658.97,-448.42C662.48,-438.32 667.2,-424.38 671,-412 675.77,-396.43 680.67,-378.6 684.15,-365.55"/>
<polygon fill="midnightblue" stroke="midnightblue" points="687.54,-366.44 686.71,-355.88 680.77,-364.65 687.54,-366.44"/>
</g>
<!-- Node4 -->
<g id="node4" class="node">
<title>Node4</title>
<g id="a_node4"><a xlink:title=" ">
<polygon fill="none" stroke="#bfbfbf" points="494.5,-336.5 494.5,-355.5 589.5,-355.5 589.5,-336.5 494.5,-336.5"/>
<text text-anchor="middle" x="542" y="-343.5" font-family="Helvetica,sans-Serif" font-size="10.00">QOpenGLWindow</text>
</a>
</g>
</g>
<!-- Node3&#45;&gt;Node4 -->
<g id="edge3" class="edge">
<title>Node3&#45;&gt;Node4</title>
<path fill="none" stroke="midnightblue" d="M605.79,-392.32C594.22,-384.11 576.62,-371.6 562.84,-361.81"/>
<polygon fill="midnightblue" stroke="midnightblue" points="564.61,-358.77 554.43,-355.83 560.56,-364.48 564.61,-358.77"/>
</g>
<!-- Node5 -->
<g id="node5" class="node">
<title>Node5</title>
<g id="a_node5"><a xlink:href="mxiconatlas_8h.html" target="_top" xlink:title=" ">
<polygon fill="none" stroke="black" points="363,-280.5 363,-299.5 439,-299.5 439,-280.5 363,-280.5"/>
<text text-anchor="middle" x="401" y="-287.5" font-family="Helvetica,sans-Serif" font-size="10.00">mxiconatlas.h</text>
</a>
</g>
</g>
<!-- Node3&#45;&gt;Node5 -->
<g id="edge4" class="edge">
<title>Node3&#45;&gt;Node5</title>
<path fill="none" stroke="midnightblue" d="M617.94,-392.43C617.36,-378.49 614.09,-350.94 598,-336 576.72,-316.23 500.54,-303.21 449.39,-296.48"/>
<polygon fill="midnightblue" stroke="midnightblue" points="449.57,-292.97 439.2,-295.18 448.68,-299.91 449.57,-292.97"/>
</g>
<!-- Node3&#45;&gt;Node20 -->
<g id="edge22" class="edge">
<title>Node3&#45;&gt;Node20</title>
<path fill="none" stroke="midnightblue" d="M629.41,-392.32C640.11,-384.18 656.34,-371.84 669.16,-362.09"/>
<polygon fill="midnightblue" stroke="midnightblue" points="671.54,-364.67 677.39,-355.83 667.31,-359.1 671.54,-364.67"/>
</g>
<!-- Node6 -->
<g id="node6" class="node">
<title>Node6</title>
<g id="a_node6"><a xlink:title=" ">
<polygon fill="none" stroke="#bfbfbf" points="90.5,-224.5 90.5,-243.5 141.5,-243.5 141.5,-224.5 90.5,-224.5"/>
<text text-anchor="middle" x="116" y="-231.5" font-family="Helvetica,sans-Serif" font-size="10.00">QImage</text>
</a>
</g>
</g>
<!-- Node5&#45;&gt;Node6 -->
<g id="edge5" class="edge">
<title>Node5&#45;&gt;Node6</title>
<path fill="none" stroke="midnightblue" d="M362.72,-282.45C314.42,-274.08 228.88,-258.89 156,-244 154.56,-243.71 153.1,-243.4 151.62,-243.09"/>
<polygon fill="midnightblue" stroke="midnightblue" points="152.3,-239.66 141.79,-240.96 150.82,-246.5 152.3,-239.66"/>
</g>
<!-- Node7 -->
<g id="node7" class="node">
<title>Node7</title>
<g id="a_node7"><a xlink:href="mxabstractatlas_8h.html" target="_top" xlink:title=" ">
<polygon fill="none" stroke="black" points="557.5,-168.5 557.5,-187.5 650.5,-187.5 650.5,-168.5 557.5,-168.5"/>
<text text-anchor="middle" x="604" y="-175.5" font-family="Helvetica,sans-Serif" font-size="10.00">mxabstractatlas.h</text>
</a>
</g>
</g>
<!-- Node5&#45;&gt;Node7 -->
<g id="edge6" class="edge">
<title>Node5&#45;&gt;Node7</title>
<path fill="none" stroke="midnightblue" d="M409.23,-280.28C422.53,-266.61 450.1,-240.05 478,-224 503.77,-209.17 535.28,-197.92 560.33,-190.38"/>
<polygon fill="midnightblue" stroke="midnightblue" points="561.33,-193.74 569.94,-187.57 559.36,-187.02 561.33,-193.74"/>
</g>
<!-- Node12 -->
<g id="node12" class="node">
<title>Node12</title>
<g id="a_node12"><a xlink:href="mxlist_8h.html" target="_top" xlink:title=" ">
<polygon fill="none" stroke="black" points="376,-224.5 376,-243.5 426,-243.5 426,-224.5 376,-224.5"/>
<text text-anchor="middle" x="401" y="-231.5" font-family="Helvetica,sans-Serif" font-size="10.00">mxlist.h</text>
</a>
</g>
</g>
<!-- Node5&#45;&gt;Node12 -->
<g id="edge12" class="edge">
<title>Node5&#45;&gt;Node12</title>
<path fill="none" stroke="midnightblue" d="M401,-280.08C401,-273.01 401,-262.86 401,-253.99"/>
<polygon fill="midnightblue" stroke="midnightblue" points="404.5,-253.75 401,-243.75 397.5,-253.75 404.5,-253.75"/>
</g>
<!-- Node17 -->
<g id="node17" class="node">
<title>Node17</title>
<g id="a_node17"><a xlink:title=" ">
<polygon fill="none" stroke="#bfbfbf" points="0,-224.5 0,-243.5 72,-243.5 72,-224.5 0,-224.5"/>
<text text-anchor="middle" x="36" y="-231.5" font-family="Helvetica,sans-Serif" font-size="10.00">mxrenderer.h</text>
</a>
</g>
</g>
<!-- Node5&#45;&gt;Node17 -->
<g id="edge18" class="edge">
<title>Node5&#45;&gt;Node17</title>
<path fill="none" stroke="midnightblue" d="M362.96,-284.37C304.72,-277.13 189.72,-262.21 82.35,-244.15"/>
<polygon fill="midnightblue" stroke="midnightblue" points="82.76,-240.67 72.32,-242.45 81.59,-247.57 82.76,-240.67"/>
</g>
<!-- Node18 -->
<g id="node18" class="node">
<title>Node18</title>
<g id="a_node18"><a xlink:href="mximage_8h.html" target="_top" xlink:title=" ">
<polygon fill="none" stroke="black" points="116.5,-112.5 116.5,-131.5 179.5,-131.5 179.5,-112.5 116.5,-112.5"/>
<text text-anchor="middle" x="148" y="-119.5" font-family="Helvetica,sans-Serif" font-size="10.00">mximage.h</text>
</a>
</g>
</g>
<!-- Node5&#45;&gt;Node18 -->
<g id="edge19" class="edge">
<title>Node5&#45;&gt;Node18</title>
<path fill="none" stroke="midnightblue" d="M362.85,-285.06C310.21,-278.92 218.94,-265.47 194,-244 163.3,-217.57 153.03,-168.37 149.64,-141.57"/>
<polygon fill="midnightblue" stroke="midnightblue" points="153.11,-141.16 148.56,-131.59 146.15,-141.9 153.11,-141.16"/>
</g>
<!-- Node19 -->
<g id="node19" class="node">
<title>Node19</title>
<g id="a_node19"><a xlink:href="mxthemeicons_8h.html" target="_top" xlink:title=" ">
<polygon fill="none" stroke="black" points="668.5,-168.5 668.5,-187.5 755.5,-187.5 755.5,-168.5 668.5,-168.5"/>
<text text-anchor="middle" x="712" y="-175.5" font-family="Helvetica,sans-Serif" font-size="10.00">mxthemeicons.h</text>
</a>
</g>
</g>
<!-- Node5&#45;&gt;Node19 -->
<g id="edge21" class="edge">
<title>Node5&#45;&gt;Node19</title>
<path fill="none" stroke="midnightblue" d="M415.8,-280.44C431.34,-271.44 456.45,-256.83 478,-244 492.74,-235.23 495.09,-230.4 511,-224 537.3,-213.42 608.14,-198.68 658.25,-188.99"/>
<polygon fill="midnightblue" stroke="midnightblue" points="659.13,-192.39 668.29,-187.07 657.81,-185.51 659.13,-192.39"/>
</g>
<!-- Node7&#45;&gt;Node8 -->
<g id="edge7" class="edge">
<title>Node7&#45;&gt;Node8</title>
<path fill="none" stroke="midnightblue" d="M637.12,-168.44C675.13,-158.62 737.28,-142.56 776.62,-132.4"/>
<polygon fill="midnightblue" stroke="midnightblue" points="777.53,-135.78 786.34,-129.89 775.78,-129 777.53,-135.78"/>
</g>
<!-- Node9 -->
<g id="node9" class="node">
<title>Node9</title>
<g id="a_node9"><a xlink:title=" ">
<polygon fill="none" stroke="#bfbfbf" points="809.5,-0.5 809.5,-19.5 872.5,-19.5 872.5,-0.5 809.5,-0.5"/>
<text text-anchor="middle" x="841" y="-7.5" font-family="Helvetica,sans-Serif" font-size="10.00">mxdebug.h</text>
</a>
</g>
</g>
<!-- Node8&#45;&gt;Node9 -->
<g id="edge8" class="edge">
<title>Node8&#45;&gt;Node9</title>
<path fill="none" stroke="midnightblue" d="M815.2,-112.37C819.72,-94.62 830.14,-53.67 836.27,-29.6"/>
<polygon fill="midnightblue" stroke="midnightblue" points="839.74,-30.15 838.81,-19.59 832.95,-28.42 839.74,-30.15"/>
</g>
<!-- Node10 -->
<g id="node10" class="node">
<title>Node10</title>
<g id="a_node10"><a xlink:href="mxvector_8h.html" target="_top" xlink:title=" ">
<polygon fill="none" stroke="black" points="154,-56.5 154,-75.5 218,-75.5 218,-56.5 154,-56.5"/>
<text text-anchor="middle" x="186" y="-63.5" font-family="Helvetica,sans-Serif" font-size="10.00">mxvector.h</text>
</a>
</g>
</g>
<!-- Node8&#45;&gt;Node10 -->
<g id="edge9" class="edge">
<title>Node8&#45;&gt;Node10</title>
<path fill="none" stroke="midnightblue" d="M786.46,-118.71C688.72,-110.3 348.29,-80.98 228.27,-70.64"/>
<polygon fill="midnightblue" stroke="midnightblue" points="228.29,-67.13 218.02,-69.76 227.69,-74.1 228.29,-67.13"/>
</g>
<!-- Node11 -->
<g id="node11" class="node">
<title>Node11</title>
<g id="a_node11"><a xlink:title=" ">
<polygon fill="none" stroke="#bfbfbf" points="757,-56.5 757,-75.5 813,-75.5 813,-56.5 757,-56.5"/>
<text text-anchor="middle" x="785" y="-63.5" font-family="Helvetica,sans-Serif" font-size="10.00">algorithm</text>
</a>
</g>
</g>
<!-- Node8&#45;&gt;Node11 -->
<g id="edge11" class="edge">
<title>Node8&#45;&gt;Node11</title>
<path fill="none" stroke="midnightblue" d="M808.38,-112.08C804.54,-104.69 798.98,-93.95 794.24,-84.81"/>
<polygon fill="midnightblue" stroke="midnightblue" points="797.25,-83.02 789.54,-75.75 791.03,-86.24 797.25,-83.02"/>
</g>
<!-- Node10&#45;&gt;Node9 -->
<g id="edge10" class="edge">
<title>Node10&#45;&gt;Node9</title>
<path fill="none" stroke="midnightblue" d="M218.09,-58.21C222.74,-57.38 227.48,-56.61 232,-56 444.14,-27.51 700.45,-15.97 799.32,-12.36"/>
<polygon fill="midnightblue" stroke="midnightblue" points="799.62,-15.85 809.49,-12 799.37,-8.86 799.62,-15.85"/>
</g>
<!-- Node12&#45;&gt;Node9 -->
<g id="edge13" class="edge">
<title>Node12&#45;&gt;Node9</title>
<path fill="none" stroke="midnightblue" d="M375.92,-228.31C340.36,-221.1 278.14,-206.19 265,-188 259.79,-180.79 259.6,-175.06 265,-168 331.26,-81.26 678.35,-30.98 799.35,-15.88"/>
<polygon fill="midnightblue" stroke="midnightblue" points="799.84,-19.34 809.34,-14.65 798.99,-12.39 799.84,-19.34"/>
</g>
<!-- Node13 -->
<g id="node13" class="node">
<title>Node13</title>
<g id="a_node13"><a xlink:href="mxrefcounter_8h.html" target="_top" xlink:title=" ">
<polygon fill="none" stroke="black" points="274,-168.5 274,-187.5 354,-187.5 354,-168.5 274,-168.5"/>
<text text-anchor="middle" x="314" y="-175.5" font-family="Helvetica,sans-Serif" font-size="10.00">mxrefcounter.h</text>
</a>
</g>
</g>
<!-- Node12&#45;&gt;Node13 -->
<g id="edge14" class="edge">
<title>Node12&#45;&gt;Node13</title>
<path fill="none" stroke="midnightblue" d="M387.02,-224.32C373.45,-215.9 352.62,-202.97 336.68,-193.07"/>
<polygon fill="midnightblue" stroke="midnightblue" points="338.29,-189.95 327.94,-187.65 334.59,-195.9 338.29,-189.95"/>
</g>
<!-- Node14 -->
<g id="node14" class="node">
<title>Node14</title>
<g id="a_node14"><a xlink:title=" ">
<polygon fill="none" stroke="#bfbfbf" points="372.5,-168.5 372.5,-187.5 419.5,-187.5 419.5,-168.5 372.5,-168.5"/>
<text text-anchor="middle" x="396" y="-175.5" font-family="Helvetica,sans-Serif" font-size="10.00">stdlib.h</text>
</a>
</g>
</g>
<!-- Node12&#45;&gt;Node14 -->
<g id="edge15" class="edge">
<title>Node12&#45;&gt;Node14</title>
<path fill="none" stroke="midnightblue" d="M400.17,-224.08C399.52,-217.01 398.58,-206.86 397.76,-197.99"/>
<polygon fill="midnightblue" stroke="midnightblue" points="401.22,-197.39 396.81,-187.75 394.25,-198.03 401.22,-197.39"/>
</g>
<!-- Node15 -->
<g id="node15" class="node">
<title>Node15</title>
<g id="a_node15"><a xlink:title=" ">
<polygon fill="none" stroke="#bfbfbf" points="438,-168.5 438,-187.5 486,-187.5 486,-168.5 438,-168.5"/>
<text text-anchor="middle" x="462" y="-175.5" font-family="Helvetica,sans-Serif" font-size="10.00">string.h</text>
</a>
</g>
</g>
<!-- Node12&#45;&gt;Node15 -->
<g id="edge16" class="edge">
<title>Node12&#45;&gt;Node15</title>
<path fill="none" stroke="midnightblue" d="M410.8,-224.32C419.82,-216.34 433.41,-204.31 444.32,-194.65"/>
<polygon fill="midnightblue" stroke="midnightblue" points="446.85,-197.08 452.02,-187.83 442.21,-191.84 446.85,-197.08"/>
</g>
<!-- Node16 -->
<g id="node16" class="node">
<title>Node16</title>
<g id="a_node16"><a xlink:title=" ">
<polygon fill="none" stroke="#bfbfbf" points="504.5,-168.5 504.5,-187.5 539.5,-187.5 539.5,-168.5 504.5,-168.5"/>
<text text-anchor="middle" x="522" y="-175.5" font-family="Helvetica,sans-Serif" font-size="10.00">new</text>
</a>
</g>
</g>
<!-- Node12&#45;&gt;Node16 -->
<g id="edge17" class="edge">
<title>Node12&#45;&gt;Node16</title>
<path fill="none" stroke="midnightblue" d="M420.17,-224.44C440.37,-215.43 472.35,-201.16 495.08,-191.02"/>
<polygon fill="midnightblue" stroke="midnightblue" points="496.78,-194.09 504.49,-186.82 493.93,-187.69 496.78,-194.09"/>
</g>
<!-- Node18&#45;&gt;Node10 -->
<g id="edge20" class="edge">
<title>Node18&#45;&gt;Node10</title>
<path fill="none" stroke="midnightblue" d="M154.27,-112.08C159.64,-104.46 167.52,-93.26 174.08,-83.94"/>
<polygon fill="midnightblue" stroke="midnightblue" points="176.95,-85.94 179.84,-75.75 171.22,-81.91 176.95,-85.94"/>
</g>
<!-- Node20&#45;&gt;Node9 -->
<g id="edge23" class="edge">
<title>Node20&#45;&gt;Node9</title>
<path fill="none" stroke="midnightblue" d="M730.7,-340.44C783.25,-333.93 869.66,-320.45 894,-300 959.35,-245.12 948.23,-195.97 933,-112 928.26,-85.85 928.76,-76.63 912,-56 900.98,-42.44 884.73,-31.71 870.56,-24.14"/>
<polygon fill="midnightblue" stroke="midnightblue" points="872.12,-21.01 861.62,-19.63 868.96,-27.26 872.12,-21.01"/>
</g>
<!-- Node20&#45;&gt;Node17 -->
<g id="edge26" class="edge">
<title>Node20&#45;&gt;Node17</title>
<path fill="none" stroke="midnightblue" d="M647.34,-340.33C583.86,-333 459.16,-317.79 354,-300 256.63,-283.53 143.55,-259.15 81.9,-245.41"/>
<polygon fill="midnightblue" stroke="midnightblue" points="82.62,-241.98 72.09,-243.21 81.09,-248.81 82.62,-241.98"/>
</g>
<!-- Node21 -->
<g id="node21" class="node">
<title>Node21</title>
<g id="a_node21"><a xlink:href="mxwidgetlist_8h.html" target="_top" xlink:title=" ">
<polygon fill="none" stroke="black" points="605,-280.5 605,-299.5 683,-299.5 683,-280.5 605,-280.5"/>
<text text-anchor="middle" x="644" y="-287.5" font-family="Helvetica,sans-Serif" font-size="10.00">mxwidgetlist.h</text>
</a>
</g>
</g>
<!-- Node20&#45;&gt;Node21 -->
<g id="edge24" class="edge">
<title>Node20&#45;&gt;Node21</title>
<path fill="none" stroke="midnightblue" d="M681.57,-336.08C675.15,-328.38 665.69,-317.03 657.88,-307.65"/>
<polygon fill="midnightblue" stroke="midnightblue" points="660.38,-305.19 651.29,-299.75 655.01,-309.67 660.38,-305.19"/>
</g>
<!-- Node22 -->
<g id="node22" class="node">
<title>Node22</title>
<g id="a_node22"><a xlink:href="mxmouseevent_8h.html" target="_top" xlink:title=" ">
<polygon fill="none" stroke="black" points="497,-280.5 497,-299.5 587,-299.5 587,-280.5 497,-280.5"/>
<text text-anchor="middle" x="542" y="-287.5" font-family="Helvetica,sans-Serif" font-size="10.00">mxmouseevent.h</text>
</a>
</g>
</g>
<!-- Node20&#45;&gt;Node22 -->
<g id="edge27" class="edge">
<title>Node20&#45;&gt;Node22</title>
<path fill="none" stroke="midnightblue" d="M665.71,-336.44C641.19,-327.44 602.4,-313.19 574.8,-303.05"/>
<polygon fill="midnightblue" stroke="midnightblue" points="575.78,-299.68 565.18,-299.52 573.36,-306.25 575.78,-299.68"/>
</g>
<!-- Node24 -->
<g id="node24" class="node">
<title>Node24</title>
<g id="a_node24"><a xlink:href="mxpainter_8h.html" target="_top" xlink:title=" ">
<polygon fill="none" stroke="black" points="701,-280.5 701,-299.5 767,-299.5 767,-280.5 701,-280.5"/>
<text text-anchor="middle" x="734" y="-287.5" font-family="Helvetica,sans-Serif" font-size="10.00">mxpainter.h</text>
</a>
</g>
</g>
<!-- Node20&#45;&gt;Node24 -->
<g id="edge30" class="edge">
<title>Node20&#45;&gt;Node24</title>
<path fill="none" stroke="midnightblue" d="M696.43,-336.08C702.85,-328.38 712.31,-317.03 720.12,-307.65"/>
<polygon fill="midnightblue" stroke="midnightblue" points="722.99,-309.67 726.71,-299.75 717.62,-305.19 722.99,-309.67"/>
</g>
<!-- Node28 -->
<g id="node28" class="node">
<title>Node28</title>
<g id="a_node28"><a xlink:href="mxguiaggregation_8h.html" target="_top" xlink:title=" ">
<polygon fill="none" stroke="black" points="785,-280.5 785,-299.5 885,-299.5 885,-280.5 785,-280.5"/>
<text text-anchor="middle" x="835" y="-287.5" font-family="Helvetica,sans-Serif" font-size="10.00">mxguiaggregation.h</text>
</a>
</g>
</g>
<!-- Node20&#45;&gt;Node28 -->
<g id="edge39" class="edge">
<title>Node20&#45;&gt;Node28</title>
<path fill="none" stroke="midnightblue" d="M712.13,-336.44C736.48,-327.44 775.01,-313.19 802.42,-303.05"/>
<polygon fill="midnightblue" stroke="midnightblue" points="803.81,-306.27 811.97,-299.52 801.38,-299.7 803.81,-306.27"/>
</g>
<!-- Node21&#45;&gt;Node12 -->
<g id="edge25" class="edge">
<title>Node21&#45;&gt;Node12</title>
<path fill="none" stroke="midnightblue" d="M605.5,-280.44C558.94,-270.1 481.23,-252.83 436.21,-242.82"/>
<polygon fill="midnightblue" stroke="midnightblue" points="436.83,-239.38 426.31,-240.62 435.31,-246.21 436.83,-239.38"/>
</g>
<!-- Node22&#45;&gt;Node10 -->
<g id="edge28" class="edge">
<title>Node22&#45;&gt;Node10</title>
<path fill="none" stroke="midnightblue" d="M500.36,-280.47C424.89,-264.21 269.8,-226.94 232,-188 204.05,-159.2 192.71,-111.7 188.41,-85.61"/>
<polygon fill="midnightblue" stroke="midnightblue" points="191.85,-84.94 186.93,-75.56 184.92,-85.96 191.85,-84.94"/>
</g>
<!-- Node23 -->
<g id="node23" class="node">
<title>Node23</title>
<g id="a_node23"><a xlink:title=" ">
<polygon fill="none" stroke="#bfbfbf" points="520,-224.5 520,-243.5 658,-243.5 658,-224.5 520,-224.5"/>
<text text-anchor="middle" x="589" y="-231.5" font-family="Helvetica,sans-Serif" font-size="10.00">mxmouseeventabstraction.h</text>
</a>
</g>
</g>
<!-- Node22&#45;&gt;Node23 -->
<g id="edge29" class="edge">
<title>Node22&#45;&gt;Node23</title>
<path fill="none" stroke="midnightblue" d="M549.76,-280.08C556.54,-272.3 566.54,-260.8 574.76,-251.37"/>
<polygon fill="midnightblue" stroke="midnightblue" points="577.46,-253.59 581.38,-243.75 572.18,-249 577.46,-253.59"/>
</g>
<!-- Node24&#45;&gt;Node9 -->
<g id="edge31" class="edge">
<title>Node24&#45;&gt;Node9</title>
<path fill="none" stroke="midnightblue" d="M767.24,-281.33C811.28,-270.92 884.53,-252.62 894,-244 916.88,-223.15 919,-209.95 919,-179 919,-179 919,-179 919,-121 919,-80.97 884.2,-45.34 861.09,-26.09"/>
<polygon fill="midnightblue" stroke="midnightblue" points="863.18,-23.28 853.19,-19.76 858.8,-28.74 863.18,-23.28"/>
</g>
<!-- Node24&#45;&gt;Node12 -->
<g id="edge38" class="edge">
<title>Node24&#45;&gt;Node12</title>
<path fill="none" stroke="midnightblue" d="M700.56,-281.65C697.67,-281.07 694.79,-280.51 692,-280 600.14,-263.07 491.16,-247.38 436.3,-239.79"/>
<polygon fill="midnightblue" stroke="midnightblue" points="436.77,-236.32 426.38,-238.42 435.81,-243.25 436.77,-236.32"/>
</g>
<!-- Node25 -->
<g id="node25" class="node">
<title>Node25</title>
<g id="a_node25"><a xlink:href="mxvectordraw_8h.html" target="_top" xlink:title=" ">
<polygon fill="none" stroke="black" points="800.5,-224.5 800.5,-243.5 885.5,-243.5 885.5,-224.5 800.5,-224.5"/>
<text text-anchor="middle" x="843" y="-231.5" font-family="Helvetica,sans-Serif" font-size="10.00">mxvectordraw.h</text>
</a>
</g>
</g>
<!-- Node24&#45;&gt;Node25 -->
<g id="edge32" class="edge">
<title>Node24&#45;&gt;Node25</title>
<path fill="none" stroke="midnightblue" d="M751.51,-280.32C769.07,-271.62 796.33,-258.12 816.53,-248.11"/>
<polygon fill="midnightblue" stroke="midnightblue" points="818.12,-251.23 825.53,-243.65 815.02,-244.96 818.12,-251.23"/>
</g>
<!-- Node26 -->
<g id="node26" class="node">
<title>Node26</title>
<g id="a_node26"><a xlink:href="mxicondraw_8h.html" target="_top" xlink:title=" ">
<polygon fill="none" stroke="black" points="696,-224.5 696,-243.5 772,-243.5 772,-224.5 696,-224.5"/>
<text text-anchor="middle" x="734" y="-231.5" font-family="Helvetica,sans-Serif" font-size="10.00">mxicondraw.h</text>
</a>
</g>
</g>
<!-- Node24&#45;&gt;Node26 -->
<g id="edge34" class="edge">
<title>Node24&#45;&gt;Node26</title>
<path fill="none" stroke="midnightblue" d="M734,-280.08C734,-273.01 734,-262.86 734,-253.99"/>
<polygon fill="midnightblue" stroke="midnightblue" points="737.5,-253.75 734,-243.75 730.5,-253.75 737.5,-253.75"/>
</g>
<!-- Node25&#45;&gt;Node8 -->
<g id="edge33" class="edge">
<title>Node25&#45;&gt;Node8</title>
<path fill="none" stroke="midnightblue" d="M849.03,-224.33C857.08,-211.62 869.38,-187.34 861,-168 855.73,-155.84 845.38,-145.46 835.64,-137.74"/>
<polygon fill="midnightblue" stroke="midnightblue" points="837.5,-134.77 827.37,-131.67 833.36,-140.41 837.5,-134.77"/>
</g>
<!-- Node26&#45;&gt;Node19 -->
<g id="edge37" class="edge">
<title>Node26&#45;&gt;Node19</title>
<path fill="none" stroke="midnightblue" d="M730.37,-224.08C727.39,-216.77 723.07,-206.18 719.38,-197.1"/>
<polygon fill="midnightblue" stroke="midnightblue" points="722.58,-195.69 715.57,-187.75 716.1,-198.33 722.58,-195.69"/>
</g>
<!-- Node27 -->
<g id="node27" class="node">
<title>Node27</title>
<g id="a_node27"><a xlink:href="mxquaddraw_8h.html" target="_top" xlink:title=" ">
<polygon fill="none" stroke="black" points="773.5,-168.5 773.5,-187.5 852.5,-187.5 852.5,-168.5 773.5,-168.5"/>
<text text-anchor="middle" x="813" y="-175.5" font-family="Helvetica,sans-Serif" font-size="10.00">mxquaddraw.h</text>
</a>
</g>
</g>
<!-- Node26&#45;&gt;Node27 -->
<g id="edge35" class="edge">
<title>Node26&#45;&gt;Node27</title>
<path fill="none" stroke="midnightblue" d="M746.69,-224.32C758.9,-215.98 777.58,-203.21 792,-193.35"/>
<polygon fill="midnightblue" stroke="midnightblue" points="794.06,-196.19 800.34,-187.65 790.11,-190.41 794.06,-196.19"/>
</g>
<!-- Node27&#45;&gt;Node8 -->
<g id="edge36" class="edge">
<title>Node27&#45;&gt;Node8</title>
<path fill="none" stroke="midnightblue" d="M813,-168.08C813,-161.01 813,-150.86 813,-141.99"/>
<polygon fill="midnightblue" stroke="midnightblue" points="816.5,-141.75 813,-131.75 809.5,-141.75 816.5,-141.75"/>
</g>
</g>
</svg>
