<?xml version="1.0" encoding="UTF-8" standalone="no"?>
<!DOCTYPE svg PUBLIC "-//W3C//DTD SVG 1.1//EN"
 "http://www.w3.org/Graphics/SVG/1.1/DTD/svg11.dtd">
<!-- Generated by graphviz version 2.44.0 ()
 -->
<!-- Title: src/pluginsdk/qmewapluginwindow.cpp Pages: 1 -->
<svg width="604pt" height="308pt"
 viewBox="0.00 0.00 603.50 308.00" xmlns="http://www.w3.org/2000/svg" xmlns:xlink="http://www.w3.org/1999/xlink">
<g id="graph0" class="graph" transform="scale(1 1) rotate(0) translate(4 304)">
<title>src/pluginsdk/qmewapluginwindow.cpp</title>
<!-- Node1 -->
<g id="node1" class="node">
<title>Node1</title>
<g id="a_node1"><a xlink:title=" ">
<polygon fill="#bfbfbf" stroke="black" points="263.5,-280.5 263.5,-299.5 448.5,-299.5 448.5,-280.5 263.5,-280.5"/>
<text text-anchor="middle" x="356" y="-287.5" font-family="Helvetica,sans-Serif" font-size="10.00">src/pluginsdk/qmewapluginwindow.cpp</text>
</a>
</g>
</g>
<!-- Node2 -->
<g id="node2" class="node">
<title>Node2</title>
<g id="a_node2"><a xlink:title=" ">
<polygon fill="none" stroke="#bfbfbf" points="203,-224.5 203,-243.5 281,-243.5 281,-224.5 203,-224.5"/>
<text text-anchor="middle" x="242" y="-231.5" font-family="Helvetica,sans-Serif" font-size="10.00">QMouseEvent</text>
</a>
</g>
</g>
<!-- Node1&#45;&gt;Node2 -->
<g id="edge1" class="edge">
<title>Node1&#45;&gt;Node2</title>
<path fill="none" stroke="midnightblue" d="M337.94,-280.44C319.43,-271.68 290.42,-257.94 269.14,-247.86"/>
<polygon fill="midnightblue" stroke="midnightblue" points="270.51,-244.63 259.98,-243.52 267.52,-250.96 270.51,-244.63"/>
</g>
<!-- Node3 -->
<g id="node3" class="node">
<title>Node3</title>
<g id="a_node3"><a xlink:href="qmewapluginwindow_8h.html" target="_top" xlink:title=" ">
<polygon fill="none" stroke="black" points="299,-224.5 299,-243.5 413,-243.5 413,-224.5 299,-224.5"/>
<text text-anchor="middle" x="356" y="-231.5" font-family="Helvetica,sans-Serif" font-size="10.00">qmewapluginwindow.h</text>
</a>
</g>
</g>
<!-- Node1&#45;&gt;Node3 -->
<g id="edge2" class="edge">
<title>Node1&#45;&gt;Node3</title>
<path fill="none" stroke="midnightblue" d="M356,-280.08C356,-273.01 356,-262.86 356,-253.99"/>
<polygon fill="midnightblue" stroke="midnightblue" points="359.5,-253.75 356,-243.75 352.5,-253.75 359.5,-253.75"/>
</g>
<!-- Node20 -->
<g id="node20" class="node">
<title>Node20</title>
<g id="a_node20"><a xlink:href="mxinputs_8h.html" target="_top" xlink:title=" ">
<polygon fill="none" stroke="black" points="468.5,-224.5 468.5,-243.5 531.5,-243.5 531.5,-224.5 468.5,-224.5"/>
<text text-anchor="middle" x="500" y="-231.5" font-family="Helvetica,sans-Serif" font-size="10.00">mxinputs.h</text>
</a>
</g>
</g>
<!-- Node1&#45;&gt;Node20 -->
<g id="edge20" class="edge">
<title>Node1&#45;&gt;Node20</title>
<path fill="none" stroke="midnightblue" d="M378.82,-280.44C402.83,-271.44 440.83,-257.19 467.87,-247.05"/>
<polygon fill="midnightblue" stroke="midnightblue" points="469.16,-250.3 477.29,-243.52 466.7,-243.75 469.16,-250.3"/>
</g>
<!-- Node4 -->
<g id="node4" class="node">
<title>Node4</title>
<g id="a_node4"><a xlink:title=" ">
<polygon fill="none" stroke="#bfbfbf" points="395.5,-168.5 395.5,-187.5 490.5,-187.5 490.5,-168.5 395.5,-168.5"/>
<text text-anchor="middle" x="443" y="-175.5" font-family="Helvetica,sans-Serif" font-size="10.00">QOpenGLWindow</text>
</a>
</g>
</g>
<!-- Node3&#45;&gt;Node4 -->
<g id="edge3" class="edge">
<title>Node3&#45;&gt;Node4</title>
<path fill="none" stroke="midnightblue" d="M369.98,-224.32C383.55,-215.9 404.38,-202.97 420.32,-193.07"/>
<polygon fill="midnightblue" stroke="midnightblue" points="422.41,-195.9 429.06,-187.65 418.71,-189.95 422.41,-195.9"/>
</g>
<!-- Node5 -->
<g id="node5" class="node">
<title>Node5</title>
<g id="a_node5"><a xlink:href="mxrenderer_8h.html" target="_top" xlink:title=" ">
<polygon fill="none" stroke="black" points="206,-168.5 206,-187.5 278,-187.5 278,-168.5 206,-168.5"/>
<text text-anchor="middle" x="242" y="-175.5" font-family="Helvetica,sans-Serif" font-size="10.00">mxrenderer.h</text>
</a>
</g>
</g>
<!-- Node3&#45;&gt;Node5 -->
<g id="edge4" class="edge">
<title>Node3&#45;&gt;Node5</title>
<path fill="none" stroke="midnightblue" d="M337.94,-224.44C319.43,-215.68 290.42,-201.94 269.14,-191.86"/>
<polygon fill="midnightblue" stroke="midnightblue" points="270.51,-188.63 259.98,-187.52 267.52,-194.96 270.51,-188.63"/>
</g>
<!-- Node19 -->
<g id="node19" class="node">
<title>Node19</title>
<g id="a_node19"><a xlink:title=" ">
<polygon fill="none" stroke="#bfbfbf" points="296.5,-168.5 296.5,-187.5 377.5,-187.5 377.5,-168.5 296.5,-168.5"/>
<text text-anchor="middle" x="337" y="-175.5" font-family="Helvetica,sans-Serif" font-size="10.00">triangleplugin.h</text>
</a>
</g>
</g>
<!-- Node3&#45;&gt;Node19 -->
<g id="edge19" class="edge">
<title>Node3&#45;&gt;Node19</title>
<path fill="none" stroke="midnightblue" d="M352.86,-224.08C350.32,-216.85 346.64,-206.41 343.47,-197.4"/>
<polygon fill="midnightblue" stroke="midnightblue" points="346.7,-196.02 340.08,-187.75 340.1,-198.35 346.7,-196.02"/>
</g>
<!-- Node6 -->
<g id="node6" class="node">
<title>Node6</title>
<g id="a_node6"><a xlink:href="mxlist_8h.html" target="_top" xlink:title=" ">
<polygon fill="none" stroke="black" points="358,-112.5 358,-131.5 408,-131.5 408,-112.5 358,-112.5"/>
<text text-anchor="middle" x="383" y="-119.5" font-family="Helvetica,sans-Serif" font-size="10.00">mxlist.h</text>
</a>
</g>
</g>
<!-- Node5&#45;&gt;Node6 -->
<g id="edge5" class="edge">
<title>Node5&#45;&gt;Node6</title>
<path fill="none" stroke="midnightblue" d="M264.34,-168.44C287.75,-159.48 324.74,-145.31 351.19,-135.18"/>
<polygon fill="midnightblue" stroke="midnightblue" points="352.68,-138.36 360.76,-131.52 350.17,-131.82 352.68,-138.36"/>
</g>
<!-- Node12 -->
<g id="node12" class="node">
<title>Node12</title>
<g id="a_node12"><a xlink:href="mxgpuarray_8h.html" target="_top" xlink:title=" ">
<polygon fill="none" stroke="black" points="13,-112.5 13,-131.5 87,-131.5 87,-112.5 13,-112.5"/>
<text text-anchor="middle" x="50" y="-119.5" font-family="Helvetica,sans-Serif" font-size="10.00">mxgpuarray.h</text>
</a>
</g>
</g>
<!-- Node5&#45;&gt;Node12 -->
<g id="edge11" class="edge">
<title>Node5&#45;&gt;Node12</title>
<path fill="none" stroke="midnightblue" d="M211.58,-168.44C178.72,-159.2 126.22,-144.44 90.03,-134.26"/>
<polygon fill="midnightblue" stroke="midnightblue" points="90.85,-130.85 80.28,-131.52 88.96,-137.59 90.85,-130.85"/>
</g>
<!-- Node15 -->
<g id="node15" class="node">
<title>Node15</title>
<g id="a_node15"><a xlink:href="mxmatrix_8h.html" target="_top" xlink:title=" ">
<polygon fill="none" stroke="black" points="108.5,-112.5 108.5,-131.5 171.5,-131.5 171.5,-112.5 108.5,-112.5"/>
<text text-anchor="middle" x="140" y="-119.5" font-family="Helvetica,sans-Serif" font-size="10.00">mxmatrix.h</text>
</a>
</g>
</g>
<!-- Node5&#45;&gt;Node15 -->
<g id="edge14" class="edge">
<title>Node5&#45;&gt;Node15</title>
<path fill="none" stroke="midnightblue" d="M225.61,-168.32C209.33,-159.7 184.13,-146.36 165.28,-136.39"/>
<polygon fill="midnightblue" stroke="midnightblue" points="166.82,-133.24 156.35,-131.65 163.55,-139.43 166.82,-133.24"/>
</g>
<!-- Node16 -->
<g id="node16" class="node">
<title>Node16</title>
<g id="a_node16"><a xlink:href="mxopenglfunctions_8h.html" target="_top" xlink:title=" ">
<polygon fill="none" stroke="black" points="189.5,-112.5 189.5,-131.5 294.5,-131.5 294.5,-112.5 189.5,-112.5"/>
<text text-anchor="middle" x="242" y="-119.5" font-family="Helvetica,sans-Serif" font-size="10.00">mxopenglfunctions.h</text>
</a>
</g>
</g>
<!-- Node5&#45;&gt;Node16 -->
<g id="edge15" class="edge">
<title>Node5&#45;&gt;Node16</title>
<path fill="none" stroke="midnightblue" d="M242,-168.08C242,-161.01 242,-150.86 242,-141.99"/>
<polygon fill="midnightblue" stroke="midnightblue" points="245.5,-141.75 242,-131.75 238.5,-141.75 245.5,-141.75"/>
</g>
<!-- Node18 -->
<g id="node18" class="node">
<title>Node18</title>
<g id="a_node18"><a xlink:href="mxvector_8h.html" target="_top" xlink:title=" ">
<polygon fill="none" stroke="black" points="487,-112.5 487,-131.5 551,-131.5 551,-112.5 487,-112.5"/>
<text text-anchor="middle" x="519" y="-119.5" font-family="Helvetica,sans-Serif" font-size="10.00">mxvector.h</text>
</a>
</g>
</g>
<!-- Node5&#45;&gt;Node18 -->
<g id="edge17" class="edge">
<title>Node5&#45;&gt;Node18</title>
<path fill="none" stroke="midnightblue" d="M278.16,-169.92C281.49,-169.27 284.81,-168.62 288,-168 353.99,-155.12 430.59,-140.2 476.89,-131.19"/>
<polygon fill="midnightblue" stroke="midnightblue" points="477.71,-134.6 486.86,-129.25 476.38,-127.73 477.71,-134.6"/>
</g>
<!-- Node7 -->
<g id="node7" class="node">
<title>Node7</title>
<g id="a_node7"><a xlink:title=" ">
<polygon fill="none" stroke="#bfbfbf" points="532.5,-56.5 532.5,-75.5 595.5,-75.5 595.5,-56.5 532.5,-56.5"/>
<text text-anchor="middle" x="564" y="-63.5" font-family="Helvetica,sans-Serif" font-size="10.00">mxdebug.h</text>
</a>
</g>
</g>
<!-- Node6&#45;&gt;Node7 -->
<g id="edge6" class="edge">
<title>Node6&#45;&gt;Node7</title>
<path fill="none" stroke="midnightblue" d="M408.17,-113.49C438.58,-104.42 490.07,-89.06 525.49,-78.49"/>
<polygon fill="midnightblue" stroke="midnightblue" points="526.89,-81.72 535.47,-75.51 524.89,-75.02 526.89,-81.72"/>
</g>
<!-- Node8 -->
<g id="node8" class="node">
<title>Node8</title>
<g id="a_node8"><a xlink:href="mxrefcounter_8h.html" target="_top" xlink:title=" ">
<polygon fill="none" stroke="black" points="302,-56.5 302,-75.5 382,-75.5 382,-56.5 302,-56.5"/>
<text text-anchor="middle" x="342" y="-63.5" font-family="Helvetica,sans-Serif" font-size="10.00">mxrefcounter.h</text>
</a>
</g>
</g>
<!-- Node6&#45;&gt;Node8 -->
<g id="edge7" class="edge">
<title>Node6&#45;&gt;Node8</title>
<path fill="none" stroke="midnightblue" d="M376.23,-112.08C370.44,-104.46 361.94,-93.26 354.86,-83.94"/>
<polygon fill="midnightblue" stroke="midnightblue" points="357.48,-81.6 348.64,-75.75 351.9,-85.83 357.48,-81.6"/>
</g>
<!-- Node9 -->
<g id="node9" class="node">
<title>Node9</title>
<g id="a_node9"><a xlink:title=" ">
<polygon fill="none" stroke="#bfbfbf" points="400.5,-56.5 400.5,-75.5 447.5,-75.5 447.5,-56.5 400.5,-56.5"/>
<text text-anchor="middle" x="424" y="-63.5" font-family="Helvetica,sans-Serif" font-size="10.00">stdlib.h</text>
</a>
</g>
</g>
<!-- Node6&#45;&gt;Node9 -->
<g id="edge8" class="edge">
<title>Node6&#45;&gt;Node9</title>
<path fill="none" stroke="midnightblue" d="M389.77,-112.08C395.56,-104.46 404.06,-93.26 411.14,-83.94"/>
<polygon fill="midnightblue" stroke="midnightblue" points="414.1,-85.83 417.36,-75.75 408.52,-81.6 414.1,-85.83"/>
</g>
<!-- Node10 -->
<g id="node10" class="node">
<title>Node10</title>
<g id="a_node10"><a xlink:title=" ">
<polygon fill="none" stroke="#bfbfbf" points="466,-56.5 466,-75.5 514,-75.5 514,-56.5 466,-56.5"/>
<text text-anchor="middle" x="490" y="-63.5" font-family="Helvetica,sans-Serif" font-size="10.00">string.h</text>
</a>
</g>
</g>
<!-- Node6&#45;&gt;Node10 -->
<g id="edge9" class="edge">
<title>Node6&#45;&gt;Node10</title>
<path fill="none" stroke="midnightblue" d="M400.19,-112.32C417.35,-103.66 443.95,-90.24 463.75,-80.25"/>
<polygon fill="midnightblue" stroke="midnightblue" points="465.5,-83.28 472.85,-75.65 462.35,-77.04 465.5,-83.28"/>
</g>
<!-- Node11 -->
<g id="node11" class="node">
<title>Node11</title>
<g id="a_node11"><a xlink:title=" ">
<polygon fill="none" stroke="#bfbfbf" points="248.5,-56.5 248.5,-75.5 283.5,-75.5 283.5,-56.5 248.5,-56.5"/>
<text text-anchor="middle" x="266" y="-63.5" font-family="Helvetica,sans-Serif" font-size="10.00">new</text>
</a>
</g>
</g>
<!-- Node6&#45;&gt;Node11 -->
<g id="edge10" class="edge">
<title>Node6&#45;&gt;Node11</title>
<path fill="none" stroke="midnightblue" d="M364.46,-112.44C345.15,-103.53 314.72,-89.49 292.8,-79.37"/>
<polygon fill="midnightblue" stroke="midnightblue" points="294.23,-76.18 283.69,-75.16 291.3,-82.53 294.23,-76.18"/>
</g>
<!-- Node13 -->
<g id="node13" class="node">
<title>Node13</title>
<g id="a_node13"><a xlink:href="mxgpuprogram_8h.html" target="_top" xlink:title=" ">
<polygon fill="none" stroke="black" points="0,-56.5 0,-75.5 88,-75.5 88,-56.5 0,-56.5"/>
<text text-anchor="middle" x="44" y="-63.5" font-family="Helvetica,sans-Serif" font-size="10.00">mxgpuprogram.h</text>
</a>
</g>
</g>
<!-- Node12&#45;&gt;Node13 -->
<g id="edge12" class="edge">
<title>Node12&#45;&gt;Node13</title>
<path fill="none" stroke="midnightblue" d="M49.01,-112.08C48.21,-104.93 47.07,-94.64 46.08,-85.69"/>
<polygon fill="midnightblue" stroke="midnightblue" points="49.56,-85.3 44.97,-75.75 42.6,-86.08 49.56,-85.3"/>
</g>
<!-- Node14 -->
<g id="node14" class="node">
<title>Node14</title>
<g id="a_node14"><a xlink:title=" ">
<polygon fill="none" stroke="#bfbfbf" points="11.5,-0.5 11.5,-19.5 76.5,-19.5 76.5,-0.5 11.5,-0.5"/>
<text text-anchor="middle" x="44" y="-7.5" font-family="Helvetica,sans-Serif" font-size="10.00">mxopengl.h</text>
</a>
</g>
</g>
<!-- Node13&#45;&gt;Node14 -->
<g id="edge13" class="edge">
<title>Node13&#45;&gt;Node14</title>
<path fill="none" stroke="midnightblue" d="M44,-56.08C44,-49.01 44,-38.86 44,-29.99"/>
<polygon fill="midnightblue" stroke="midnightblue" points="47.5,-29.75 44,-19.75 40.5,-29.75 47.5,-29.75"/>
</g>
<!-- Node17 -->
<g id="node17" class="node">
<title>Node17</title>
<g id="a_node17"><a xlink:title=" ">
<polygon fill="none" stroke="#bfbfbf" points="105.5,-56.5 105.5,-75.5 230.5,-75.5 230.5,-56.5 105.5,-56.5"/>
<text text-anchor="middle" x="168" y="-63.5" font-family="Helvetica,sans-Serif" font-size="10.00">QOpenGLExtraFunctions</text>
</a>
</g>
</g>
<!-- Node16&#45;&gt;Node17 -->
<g id="edge16" class="edge">
<title>Node16&#45;&gt;Node17</title>
<path fill="none" stroke="midnightblue" d="M230.11,-112.32C218.85,-104.11 201.71,-91.6 188.29,-81.81"/>
<polygon fill="midnightblue" stroke="midnightblue" points="190.25,-78.9 180.11,-75.83 186.12,-84.56 190.25,-78.9"/>
</g>
<!-- Node18&#45;&gt;Node7 -->
<g id="edge18" class="edge">
<title>Node18&#45;&gt;Node7</title>
<path fill="none" stroke="midnightblue" d="M526.43,-112.08C532.85,-104.38 542.31,-93.03 550.12,-83.65"/>
<polygon fill="midnightblue" stroke="midnightblue" points="552.99,-85.67 556.71,-75.75 547.62,-81.19 552.99,-85.67"/>
</g>
<!-- Node20&#45;&gt;Node18 -->
<g id="edge21" class="edge">
<title>Node20&#45;&gt;Node18</title>
<path fill="none" stroke="midnightblue" d="M501.49,-224.37C504.56,-206.62 511.63,-165.67 515.79,-141.6"/>
<polygon fill="midnightblue" stroke="midnightblue" points="519.26,-142.04 517.52,-131.59 512.36,-140.85 519.26,-142.04"/>
</g>
</g>
</svg>
