<?xml version="1.0" encoding="UTF-8" standalone="no"?>
<!DOCTYPE svg PUBLIC "-//W3C//DTD SVG 1.1//EN"
 "http://www.w3.org/Graphics/SVG/1.1/DTD/svg11.dtd">
<!-- Generated by graphviz version 2.44.0 ()
 -->
<!-- Title: src/platform/qt/qmewawindow.h Pages: 1 -->
<svg width="1334pt" height="476pt"
 viewBox="0.00 0.00 1334.42 476.00" xmlns="http://www.w3.org/2000/svg" xmlns:xlink="http://www.w3.org/1999/xlink">
<g id="graph0" class="graph" transform="scale(1 1) rotate(0) translate(4 472)">
<title>src/platform/qt/qmewawindow.h</title>
<!-- Node1 -->
<g id="node1" class="node">
<title>Node1</title>
<g id="a_node1"><a xlink:title=" ">
<polygon fill="#bfbfbf" stroke="black" points="188.86,-448.5 188.86,-467.5 343.86,-467.5 343.86,-448.5 188.86,-448.5"/>
<text text-anchor="middle" x="266.36" y="-455.5" font-family="Helvetica,sans-Serif" font-size="10.00">src/platform/qt/qmewawindow.h</text>
</a>
</g>
</g>
<!-- Node2 -->
<g id="node2" class="node">
<title>Node2</title>
<g id="a_node2"><a xlink:title=" ">
<polygon fill="none" stroke="#bfbfbf" points="178.86,-392.5 178.86,-411.5 237.86,-411.5 237.86,-392.5 178.86,-392.5"/>
<text text-anchor="middle" x="208.36" y="-399.5" font-family="Helvetica,sans-Serif" font-size="10.00">QWindow</text>
</a>
</g>
</g>
<!-- Node1&#45;&gt;Node2 -->
<g id="edge1" class="edge">
<title>Node1&#45;&gt;Node2</title>
<path fill="none" stroke="midnightblue" d="M257.04,-448.32C248.46,-440.34 235.54,-428.31 225.17,-418.65"/>
<polygon fill="midnightblue" stroke="midnightblue" points="227.55,-416.09 217.84,-411.83 222.78,-421.21 227.55,-416.09"/>
</g>
<!-- Node3 -->
<g id="node3" class="node">
<title>Node3</title>
<g id="a_node3"><a xlink:href="mxiconatlas_8h.html" target="_top" xlink:title=" ">
<polygon fill="none" stroke="black" points="587.36,-280.5 587.36,-299.5 663.36,-299.5 663.36,-280.5 587.36,-280.5"/>
<text text-anchor="middle" x="625.36" y="-287.5" font-family="Helvetica,sans-Serif" font-size="10.00">mxiconatlas.h</text>
</a>
</g>
</g>
<!-- Node1&#45;&gt;Node3 -->
<g id="edge2" class="edge">
<title>Node1&#45;&gt;Node3</title>
<path fill="none" stroke="midnightblue" d="M285.15,-448.31C344.4,-420.91 527.49,-336.26 597.62,-303.82"/>
<polygon fill="midnightblue" stroke="midnightblue" points="599.14,-306.98 606.75,-299.61 596.2,-300.63 599.14,-306.98"/>
</g>
<!-- Node24 -->
<g id="node24" class="node">
<title>Node24</title>
<g id="a_node24"><a xlink:href="mxapplication_8h.html" target="_top" xlink:title=" ">
<polygon fill="none" stroke="black" points="490.86,-392.5 490.86,-411.5 573.86,-411.5 573.86,-392.5 490.86,-392.5"/>
<text text-anchor="middle" x="532.36" y="-399.5" font-family="Helvetica,sans-Serif" font-size="10.00">mxapplication.h</text>
</a>
</g>
</g>
<!-- Node1&#45;&gt;Node24 -->
<g id="edge32" class="edge">
<title>Node1&#45;&gt;Node24</title>
<path fill="none" stroke="midnightblue" d="M308.5,-448.44C355.24,-438.96 430.64,-423.65 480.84,-413.46"/>
<polygon fill="midnightblue" stroke="midnightblue" points="481.74,-416.85 490.84,-411.43 480.35,-409.99 481.74,-416.85"/>
</g>
<!-- Node4 -->
<g id="node4" class="node">
<title>Node4</title>
<g id="a_node4"><a xlink:href="mxabstractatlas_8h.html" target="_top" xlink:title=" ">
<polygon fill="none" stroke="black" points="603.86,-224.5 603.86,-243.5 696.86,-243.5 696.86,-224.5 603.86,-224.5"/>
<text text-anchor="middle" x="650.36" y="-231.5" font-family="Helvetica,sans-Serif" font-size="10.00">mxabstractatlas.h</text>
</a>
</g>
</g>
<!-- Node3&#45;&gt;Node4 -->
<g id="edge3" class="edge">
<title>Node3&#45;&gt;Node4</title>
<path fill="none" stroke="midnightblue" d="M629.48,-280.08C632.87,-272.77 637.77,-262.18 641.98,-253.1"/>
<polygon fill="midnightblue" stroke="midnightblue" points="645.28,-254.3 646.3,-243.75 638.93,-251.36 645.28,-254.3"/>
</g>
<!-- Node11 -->
<g id="node11" class="node">
<title>Node11</title>
<g id="a_node11"><a xlink:href="mxlist_8h.html" target="_top" xlink:title=" ">
<polygon fill="none" stroke="black" points="165.36,-168.5 165.36,-187.5 215.36,-187.5 215.36,-168.5 165.36,-168.5"/>
<text text-anchor="middle" x="190.36" y="-175.5" font-family="Helvetica,sans-Serif" font-size="10.00">mxlist.h</text>
</a>
</g>
</g>
<!-- Node3&#45;&gt;Node11 -->
<g id="edge12" class="edge">
<title>Node3&#45;&gt;Node11</title>
<path fill="none" stroke="midnightblue" d="M587.14,-284.57C536.19,-278.16 443.48,-264.76 366.36,-244 313.25,-229.71 253.64,-206 219.2,-191.5"/>
<polygon fill="midnightblue" stroke="midnightblue" points="220.35,-188.19 209.77,-187.5 217.61,-194.63 220.35,-188.19"/>
</g>
<!-- Node16 -->
<g id="node16" class="node">
<title>Node16</title>
<g id="a_node16"><a xlink:href="mxrenderer_8h.html" target="_top" xlink:title=" ">
<polygon fill="none" stroke="black" points="475.36,-224.5 475.36,-243.5 547.36,-243.5 547.36,-224.5 475.36,-224.5"/>
<text text-anchor="middle" x="511.36" y="-231.5" font-family="Helvetica,sans-Serif" font-size="10.00">mxrenderer.h</text>
</a>
</g>
</g>
<!-- Node3&#45;&gt;Node16 -->
<g id="edge18" class="edge">
<title>Node3&#45;&gt;Node16</title>
<path fill="none" stroke="midnightblue" d="M607.29,-280.44C588.78,-271.68 559.78,-257.94 538.5,-247.86"/>
<polygon fill="midnightblue" stroke="midnightblue" points="539.87,-244.63 529.34,-243.52 536.87,-250.96 539.87,-244.63"/>
</g>
<!-- Node22 -->
<g id="node22" class="node">
<title>Node22</title>
<g id="a_node22"><a xlink:href="mximage_8h.html" target="_top" xlink:title=" ">
<polygon fill="none" stroke="black" points="840.86,-168.5 840.86,-187.5 903.86,-187.5 903.86,-168.5 840.86,-168.5"/>
<text text-anchor="middle" x="872.36" y="-175.5" font-family="Helvetica,sans-Serif" font-size="10.00">mximage.h</text>
</a>
</g>
</g>
<!-- Node3&#45;&gt;Node22 -->
<g id="edge29" class="edge">
<title>Node3&#45;&gt;Node22</title>
<path fill="none" stroke="midnightblue" d="M640.5,-280.33C667.69,-264.83 723.82,-233.15 744.36,-224 773.8,-210.89 808.34,-198.93 834.11,-190.65"/>
<polygon fill="midnightblue" stroke="midnightblue" points="835.41,-193.91 843.88,-187.55 833.29,-187.24 835.41,-193.91"/>
</g>
<!-- Node23 -->
<g id="node23" class="node">
<title>Node23</title>
<g id="a_node23"><a xlink:href="mxthemeicons_8h.html" target="_top" xlink:title=" ">
<polygon fill="none" stroke="black" points="753.86,-224.5 753.86,-243.5 840.86,-243.5 840.86,-224.5 753.86,-224.5"/>
<text text-anchor="middle" x="797.36" y="-231.5" font-family="Helvetica,sans-Serif" font-size="10.00">mxthemeicons.h</text>
</a>
</g>
</g>
<!-- Node3&#45;&gt;Node23 -->
<g id="edge31" class="edge">
<title>Node3&#45;&gt;Node23</title>
<path fill="none" stroke="midnightblue" d="M652.61,-280.44C681.8,-271.28 728.28,-256.69 760.67,-246.52"/>
<polygon fill="midnightblue" stroke="midnightblue" points="761.74,-249.85 770.23,-243.52 759.64,-243.17 761.74,-249.85"/>
</g>
<!-- Node5 -->
<g id="node5" class="node">
<title>Node5</title>
<g id="a_node5"><a xlink:href="mxrect_8h.html" target="_top" xlink:title=" ">
<polygon fill="none" stroke="black" points="960.86,-168.5 960.86,-187.5 1013.86,-187.5 1013.86,-168.5 960.86,-168.5"/>
<text text-anchor="middle" x="987.36" y="-175.5" font-family="Helvetica,sans-Serif" font-size="10.00">mxrect.h</text>
</a>
</g>
</g>
<!-- Node4&#45;&gt;Node5 -->
<g id="edge4" class="edge">
<title>Node4&#45;&gt;Node5</title>
<path fill="none" stroke="midnightblue" d="M696.86,-225.55C764.62,-214.69 889.12,-194.74 950.78,-184.86"/>
<polygon fill="midnightblue" stroke="midnightblue" points="951.5,-188.29 960.82,-183.25 950.4,-181.38 951.5,-188.29"/>
</g>
<!-- Node9 -->
<g id="node9" class="node">
<title>Node9</title>
<g id="a_node9"><a xlink:href="mxtexture_8h.html" target="_top" xlink:title=" ">
<polygon fill="none" stroke="black" points="680.36,-168.5 680.36,-187.5 746.36,-187.5 746.36,-168.5 680.36,-168.5"/>
<text text-anchor="middle" x="713.36" y="-175.5" font-family="Helvetica,sans-Serif" font-size="10.00">mxtexture.h</text>
</a>
</g>
</g>
<!-- Node4&#45;&gt;Node9 -->
<g id="edge9" class="edge">
<title>Node4&#45;&gt;Node9</title>
<path fill="none" stroke="midnightblue" d="M660.48,-224.32C669.88,-216.26 684.1,-204.08 695.43,-194.37"/>
<polygon fill="midnightblue" stroke="midnightblue" points="697.74,-197 703.05,-187.83 693.18,-191.68 697.74,-197"/>
</g>
<!-- Node6 -->
<g id="node6" class="node">
<title>Node6</title>
<g id="a_node6"><a xlink:title=" ">
<polygon fill="none" stroke="#bfbfbf" points="677.86,-0.5 677.86,-19.5 740.86,-19.5 740.86,-0.5 677.86,-0.5"/>
<text text-anchor="middle" x="709.36" y="-7.5" font-family="Helvetica,sans-Serif" font-size="10.00">mxdebug.h</text>
</a>
</g>
</g>
<!-- Node5&#45;&gt;Node6 -->
<g id="edge5" class="edge">
<title>Node5&#45;&gt;Node6</title>
<path fill="none" stroke="midnightblue" d="M985.84,-168.2C983.19,-154.9 976.67,-129.38 963.36,-112 937.18,-77.84 923.4,-74.1 884.36,-56 841.1,-35.94 787.52,-23.84 751.12,-17.32"/>
<polygon fill="midnightblue" stroke="midnightblue" points="751.32,-13.8 740.87,-15.54 750.13,-20.7 751.32,-13.8"/>
</g>
<!-- Node7 -->
<g id="node7" class="node">
<title>Node7</title>
<g id="a_node7"><a xlink:href="mxvector_8h.html" target="_top" xlink:title=" ">
<polygon fill="none" stroke="black" points="1010.36,-112.5 1010.36,-131.5 1074.36,-131.5 1074.36,-112.5 1010.36,-112.5"/>
<text text-anchor="middle" x="1042.36" y="-119.5" font-family="Helvetica,sans-Serif" font-size="10.00">mxvector.h</text>
</a>
</g>
</g>
<!-- Node5&#45;&gt;Node7 -->
<g id="edge6" class="edge">
<title>Node5&#45;&gt;Node7</title>
<path fill="none" stroke="midnightblue" d="M996.44,-168.08C1004.53,-160.14 1016.55,-148.34 1026.27,-138.8"/>
<polygon fill="midnightblue" stroke="midnightblue" points="1028.76,-141.25 1033.44,-131.75 1023.86,-136.26 1028.76,-141.25"/>
</g>
<!-- Node8 -->
<g id="node8" class="node">
<title>Node8</title>
<g id="a_node8"><a xlink:title=" ">
<polygon fill="none" stroke="#bfbfbf" points="898.36,-112.5 898.36,-131.5 954.36,-131.5 954.36,-112.5 898.36,-112.5"/>
<text text-anchor="middle" x="926.36" y="-119.5" font-family="Helvetica,sans-Serif" font-size="10.00">algorithm</text>
</a>
</g>
</g>
<!-- Node5&#45;&gt;Node8 -->
<g id="edge8" class="edge">
<title>Node5&#45;&gt;Node8</title>
<path fill="none" stroke="midnightblue" d="M977.56,-168.32C968.54,-160.34 954.95,-148.31 944.04,-138.65"/>
<polygon fill="midnightblue" stroke="midnightblue" points="946.14,-135.84 936.34,-131.83 941.5,-141.08 946.14,-135.84"/>
</g>
<!-- Node7&#45;&gt;Node6 -->
<g id="edge7" class="edge">
<title>Node7&#45;&gt;Node6</title>
<path fill="none" stroke="midnightblue" d="M1038.82,-112.12C1032.59,-97.73 1018.21,-69.55 996.36,-56 956.2,-31.09 821.07,-18.54 751.51,-13.6"/>
<polygon fill="midnightblue" stroke="midnightblue" points="751.55,-10.09 741.34,-12.9 751.07,-17.08 751.55,-10.09"/>
</g>
<!-- Node9&#45;&gt;Node7 -->
<g id="edge10" class="edge">
<title>Node9&#45;&gt;Node7</title>
<path fill="none" stroke="midnightblue" d="M746.46,-170.53C751.12,-169.66 755.86,-168.79 760.36,-168 845.22,-153.11 944.83,-137.69 1000.05,-129.33"/>
<polygon fill="midnightblue" stroke="midnightblue" points="1000.8,-132.76 1010.16,-127.81 999.75,-125.84 1000.8,-132.76"/>
</g>
<!-- Node10 -->
<g id="node10" class="node">
<title>Node10</title>
<g id="a_node10"><a xlink:title=" ">
<polygon fill="none" stroke="#bfbfbf" points="648.86,-56.5 648.86,-75.5 713.86,-75.5 713.86,-56.5 648.86,-56.5"/>
<text text-anchor="middle" x="681.36" y="-63.5" font-family="Helvetica,sans-Serif" font-size="10.00">mxopengl.h</text>
</a>
</g>
</g>
<!-- Node9&#45;&gt;Node10 -->
<g id="edge11" class="edge">
<title>Node9&#45;&gt;Node10</title>
<path fill="none" stroke="midnightblue" d="M710.85,-168.37C705.66,-150.54 693.66,-109.3 686.67,-85.27"/>
<polygon fill="midnightblue" stroke="midnightblue" points="690.01,-84.22 683.86,-75.59 683.29,-86.17 690.01,-84.22"/>
</g>
<!-- Node11&#45;&gt;Node6 -->
<g id="edge13" class="edge">
<title>Node11&#45;&gt;Node6</title>
<path fill="none" stroke="midnightblue" d="M215.61,-169.76C243.52,-161.53 289.67,-147.24 328.36,-132 347.97,-124.27 351.66,-119.51 371.36,-112 422.98,-92.3 438.56,-95.26 490.36,-76 510.87,-68.37 514.69,-63.21 535.36,-56 579.73,-40.52 632.13,-27.68 667.74,-19.73"/>
<polygon fill="midnightblue" stroke="midnightblue" points="668.76,-23.09 677.78,-17.52 667.26,-16.25 668.76,-23.09"/>
</g>
<!-- Node12 -->
<g id="node12" class="node">
<title>Node12</title>
<g id="a_node12"><a xlink:href="mxrefcounter_8h.html" target="_top" xlink:title=" ">
<polygon fill="none" stroke="black" points="57.36,-56.5 57.36,-75.5 137.36,-75.5 137.36,-56.5 57.36,-56.5"/>
<text text-anchor="middle" x="97.36" y="-63.5" font-family="Helvetica,sans-Serif" font-size="10.00">mxrefcounter.h</text>
</a>
</g>
</g>
<!-- Node11&#45;&gt;Node12 -->
<g id="edge14" class="edge">
<title>Node11&#45;&gt;Node12</title>
<path fill="none" stroke="midnightblue" d="M183.06,-168.37C167.58,-150.05 131.22,-107.05 111.19,-83.36"/>
<polygon fill="midnightblue" stroke="midnightblue" points="113.75,-80.97 104.62,-75.59 108.4,-85.49 113.75,-80.97"/>
</g>
<!-- Node13 -->
<g id="node13" class="node">
<title>Node13</title>
<g id="a_node13"><a xlink:title=" ">
<polygon fill="none" stroke="#bfbfbf" points="213.86,-0.5 213.86,-19.5 260.86,-19.5 260.86,-0.5 213.86,-0.5"/>
<text text-anchor="middle" x="237.36" y="-7.5" font-family="Helvetica,sans-Serif" font-size="10.00">stdlib.h</text>
</a>
</g>
</g>
<!-- Node11&#45;&gt;Node13 -->
<g id="edge15" class="edge">
<title>Node11&#45;&gt;Node13</title>
<path fill="none" stroke="midnightblue" d="M165.29,-168.8C114.75,-150.96 8.71,-106.2 48.36,-56 48.97,-55.23 149.48,-31.58 203.66,-18.89"/>
<polygon fill="midnightblue" stroke="midnightblue" points="204.58,-22.27 213.52,-16.58 202.98,-15.45 204.58,-22.27"/>
</g>
<!-- Node14 -->
<g id="node14" class="node">
<title>Node14</title>
<g id="a_node14"><a xlink:title=" ">
<polygon fill="none" stroke="#bfbfbf" points="141.36,-0.5 141.36,-19.5 189.36,-19.5 189.36,-0.5 141.36,-0.5"/>
<text text-anchor="middle" x="165.36" y="-7.5" font-family="Helvetica,sans-Serif" font-size="10.00">string.h</text>
</a>
</g>
</g>
<!-- Node11&#45;&gt;Node14 -->
<g id="edge16" class="edge">
<title>Node11&#45;&gt;Node14</title>
<path fill="none" stroke="midnightblue" d="M165.1,-174.27C121.17,-168.93 33.62,-155.55 15.36,-132 -5.34,-105.31 -4.81,-83.1 15.36,-56 41.83,-20.42 95.47,-11.91 130.91,-10.42"/>
<polygon fill="midnightblue" stroke="midnightblue" points="131.36,-13.91 141.27,-10.16 131.18,-6.91 131.36,-13.91"/>
</g>
<!-- Node15 -->
<g id="node15" class="node">
<title>Node15</title>
<g id="a_node15"><a xlink:title=" ">
<polygon fill="none" stroke="#bfbfbf" points="172.86,-112.5 172.86,-131.5 207.86,-131.5 207.86,-112.5 172.86,-112.5"/>
<text text-anchor="middle" x="190.36" y="-119.5" font-family="Helvetica,sans-Serif" font-size="10.00">new</text>
</a>
</g>
</g>
<!-- Node11&#45;&gt;Node15 -->
<g id="edge17" class="edge">
<title>Node11&#45;&gt;Node15</title>
<path fill="none" stroke="midnightblue" d="M190.36,-168.08C190.36,-161.01 190.36,-150.86 190.36,-141.99"/>
<polygon fill="midnightblue" stroke="midnightblue" points="193.86,-141.75 190.36,-131.75 186.86,-141.75 193.86,-141.75"/>
</g>
<!-- Node16&#45;&gt;Node7 -->
<g id="edge28" class="edge">
<title>Node16&#45;&gt;Node7</title>
<path fill="none" stroke="midnightblue" d="M547.51,-228.38C611.92,-219.94 743.94,-201.65 788.36,-188 808.5,-181.81 811.37,-174.68 831.36,-168 888.46,-148.9 957.04,-136.05 1000.17,-129.12"/>
<polygon fill="midnightblue" stroke="midnightblue" points="1000.97,-132.54 1010.3,-127.53 999.88,-125.63 1000.97,-132.54"/>
</g>
<!-- Node16&#45;&gt;Node11 -->
<g id="edge19" class="edge">
<title>Node16&#45;&gt;Node11</title>
<path fill="none" stroke="midnightblue" d="M475.16,-226.91C413,-216.45 286.77,-195.22 225.41,-184.9"/>
<polygon fill="midnightblue" stroke="midnightblue" points="225.88,-181.43 215.44,-183.22 224.72,-188.33 225.88,-181.43"/>
</g>
<!-- Node17 -->
<g id="node17" class="node">
<title>Node17</title>
<g id="a_node17"><a xlink:href="mxgpuarray_8h.html" target="_top" xlink:title=" ">
<polygon fill="none" stroke="black" points="512.36,-168.5 512.36,-187.5 586.36,-187.5 586.36,-168.5 512.36,-168.5"/>
<text text-anchor="middle" x="549.36" y="-175.5" font-family="Helvetica,sans-Serif" font-size="10.00">mxgpuarray.h</text>
</a>
</g>
</g>
<!-- Node16&#45;&gt;Node17 -->
<g id="edge20" class="edge">
<title>Node16&#45;&gt;Node17</title>
<path fill="none" stroke="midnightblue" d="M517.63,-224.08C523,-216.46 530.87,-205.26 537.43,-195.94"/>
<polygon fill="midnightblue" stroke="midnightblue" points="540.31,-197.94 543.2,-187.75 534.58,-193.91 540.31,-197.94"/>
</g>
<!-- Node19 -->
<g id="node19" class="node">
<title>Node19</title>
<g id="a_node19"><a xlink:href="mxmatrix_8h.html" target="_top" xlink:title=" ">
<polygon fill="none" stroke="black" points="1070.86,-168.5 1070.86,-187.5 1133.86,-187.5 1133.86,-168.5 1070.86,-168.5"/>
<text text-anchor="middle" x="1102.36" y="-175.5" font-family="Helvetica,sans-Serif" font-size="10.00">mxmatrix.h</text>
</a>
</g>
</g>
<!-- Node16&#45;&gt;Node19 -->
<g id="edge23" class="edge">
<title>Node16&#45;&gt;Node19</title>
<path fill="none" stroke="midnightblue" d="M547.7,-228.87C562.2,-227.27 579.06,-225.47 594.36,-224 784.81,-205.69 832.95,-206.83 1023.36,-188 1035.36,-186.81 1048.38,-185.39 1060.32,-184.02"/>
<polygon fill="midnightblue" stroke="midnightblue" points="1060.94,-187.48 1070.48,-182.85 1060.14,-180.52 1060.94,-187.48"/>
</g>
<!-- Node20 -->
<g id="node20" class="node">
<title>Node20</title>
<g id="a_node20"><a xlink:href="mxopenglfunctions_8h.html" target="_top" xlink:title=" ">
<polygon fill="none" stroke="black" points="388.86,-168.5 388.86,-187.5 493.86,-187.5 493.86,-168.5 388.86,-168.5"/>
<text text-anchor="middle" x="441.36" y="-175.5" font-family="Helvetica,sans-Serif" font-size="10.00">mxopenglfunctions.h</text>
</a>
</g>
</g>
<!-- Node16&#45;&gt;Node20 -->
<g id="edge26" class="edge">
<title>Node16&#45;&gt;Node20</title>
<path fill="none" stroke="midnightblue" d="M500.11,-224.32C489.56,-216.18 473.56,-203.84 460.91,-194.09"/>
<polygon fill="midnightblue" stroke="midnightblue" points="462.86,-191.17 452.81,-187.83 458.59,-196.71 462.86,-191.17"/>
</g>
<!-- Node18 -->
<g id="node18" class="node">
<title>Node18</title>
<g id="a_node18"><a xlink:href="mxgpuprogram_8h.html" target="_top" xlink:title=" ">
<polygon fill="none" stroke="black" points="596.36,-112.5 596.36,-131.5 684.36,-131.5 684.36,-112.5 596.36,-112.5"/>
<text text-anchor="middle" x="640.36" y="-119.5" font-family="Helvetica,sans-Serif" font-size="10.00">mxgpuprogram.h</text>
</a>
</g>
</g>
<!-- Node17&#45;&gt;Node18 -->
<g id="edge21" class="edge">
<title>Node17&#45;&gt;Node18</title>
<path fill="none" stroke="midnightblue" d="M563.98,-168.32C578.31,-159.82 600.37,-146.73 617.1,-136.8"/>
<polygon fill="midnightblue" stroke="midnightblue" points="618.96,-139.77 625.77,-131.65 615.39,-133.75 618.96,-139.77"/>
</g>
<!-- Node18&#45;&gt;Node10 -->
<g id="edge22" class="edge">
<title>Node18&#45;&gt;Node10</title>
<path fill="none" stroke="midnightblue" d="M647.13,-112.08C652.92,-104.46 661.41,-93.26 668.49,-83.94"/>
<polygon fill="midnightblue" stroke="midnightblue" points="671.45,-85.83 674.71,-75.75 665.88,-81.6 671.45,-85.83"/>
</g>
<!-- Node19&#45;&gt;Node6 -->
<g id="edge24" class="edge">
<title>Node19&#45;&gt;Node6</title>
<path fill="none" stroke="midnightblue" d="M1101.38,-168.38C1099.58,-155.31 1094.8,-130.08 1083.36,-112 1063.32,-80.34 1054.33,-71.79 1020.36,-56 973.32,-34.13 824.58,-19.92 751.17,-14.06"/>
<polygon fill="midnightblue" stroke="midnightblue" points="751.15,-10.55 740.9,-13.26 750.6,-17.53 751.15,-10.55"/>
</g>
<!-- Node19&#45;&gt;Node7 -->
<g id="edge25" class="edge">
<title>Node19&#45;&gt;Node7</title>
<path fill="none" stroke="midnightblue" d="M1092.72,-168.32C1083.85,-160.34 1070.48,-148.31 1059.75,-138.65"/>
<polygon fill="midnightblue" stroke="midnightblue" points="1061.95,-135.92 1052.17,-131.83 1057.26,-141.13 1061.95,-135.92"/>
</g>
<!-- Node21 -->
<g id="node21" class="node">
<title>Node21</title>
<g id="a_node21"><a xlink:title=" ">
<polygon fill="none" stroke="#bfbfbf" points="451.86,-112.5 451.86,-131.5 576.86,-131.5 576.86,-112.5 451.86,-112.5"/>
<text text-anchor="middle" x="514.36" y="-119.5" font-family="Helvetica,sans-Serif" font-size="10.00">QOpenGLExtraFunctions</text>
</a>
</g>
</g>
<!-- Node20&#45;&gt;Node21 -->
<g id="edge27" class="edge">
<title>Node20&#45;&gt;Node21</title>
<path fill="none" stroke="midnightblue" d="M453.08,-168.32C464.19,-160.11 481.1,-147.6 494.34,-137.81"/>
<polygon fill="midnightblue" stroke="midnightblue" points="496.46,-140.59 502.41,-131.83 492.29,-134.97 496.46,-140.59"/>
</g>
<!-- Node22&#45;&gt;Node7 -->
<g id="edge30" class="edge">
<title>Node22&#45;&gt;Node7</title>
<path fill="none" stroke="midnightblue" d="M899.29,-168.44C928.02,-159.32 973.68,-144.81 1005.68,-134.65"/>
<polygon fill="midnightblue" stroke="midnightblue" points="1007.07,-137.88 1015.55,-131.52 1004.95,-131.21 1007.07,-137.88"/>
</g>
<!-- Node24&#45;&gt;Node6 -->
<g id="edge33" class="edge">
<title>Node24&#45;&gt;Node6</title>
<path fill="none" stroke="midnightblue" d="M509.07,-392.49C437.15,-364.86 227.25,-273.34 292.36,-168 311.17,-137.57 332.81,-148.88 364.36,-132 380.15,-123.55 382.83,-118.92 399.36,-112 453.86,-89.17 471.05,-93.95 527.36,-76 580.54,-59.05 641.46,-36.68 677.6,-23.09"/>
<polygon fill="midnightblue" stroke="midnightblue" points="678.99,-26.31 687.11,-19.5 676.52,-19.76 678.99,-26.31"/>
</g>
<!-- Node25 -->
<g id="node25" class="node">
<title>Node25</title>
<g id="a_node25"><a xlink:href="mxwidgetlist_8h.html" target="_top" xlink:title=" ">
<polygon fill="none" stroke="black" points="156.36,-336.5 156.36,-355.5 234.36,-355.5 234.36,-336.5 156.36,-336.5"/>
<text text-anchor="middle" x="195.36" y="-343.5" font-family="Helvetica,sans-Serif" font-size="10.00">mxwidgetlist.h</text>
</a>
</g>
</g>
<!-- Node24&#45;&gt;Node25 -->
<g id="edge34" class="edge">
<title>Node24&#45;&gt;Node25</title>
<path fill="none" stroke="midnightblue" d="M490.7,-394.32C428.43,-384.35 311.31,-365.58 244.8,-354.92"/>
<polygon fill="midnightblue" stroke="midnightblue" points="245,-351.41 234.57,-353.28 243.89,-358.32 245,-351.41"/>
</g>
<!-- Node26 -->
<g id="node26" class="node">
<title>Node26</title>
<g id="a_node26"><a xlink:href="mxguirenderer_8h.html" target="_top" xlink:title=" ">
<polygon fill="none" stroke="black" points="929.86,-336.5 929.86,-355.5 1014.86,-355.5 1014.86,-336.5 929.86,-336.5"/>
<text text-anchor="middle" x="972.36" y="-343.5" font-family="Helvetica,sans-Serif" font-size="10.00">mxguirenderer.h</text>
</a>
</g>
</g>
<!-- Node24&#45;&gt;Node26 -->
<g id="edge36" class="edge">
<title>Node24&#45;&gt;Node26</title>
<path fill="none" stroke="midnightblue" d="M574.15,-395.87C654.62,-385.99 830.95,-364.35 919.46,-353.49"/>
<polygon fill="midnightblue" stroke="midnightblue" points="920.05,-356.95 929.55,-352.25 919.2,-350 920.05,-356.95"/>
</g>
<!-- Node31 -->
<g id="node31" class="node">
<title>Node31</title>
<g id="a_node31"><a xlink:href="mxmouseevent_8h.html" target="_top" xlink:title=" ">
<polygon fill="none" stroke="black" points="1200.36,-336.5 1200.36,-355.5 1290.36,-355.5 1290.36,-336.5 1200.36,-336.5"/>
<text text-anchor="middle" x="1245.36" y="-343.5" font-family="Helvetica,sans-Serif" font-size="10.00">mxmouseevent.h</text>
</a>
</g>
</g>
<!-- Node24&#45;&gt;Node31 -->
<g id="edge51" class="edge">
<title>Node24&#45;&gt;Node31</title>
<path fill="none" stroke="midnightblue" d="M574.03,-397.84C695.96,-388.61 1052.02,-361.64 1189.91,-351.2"/>
<polygon fill="midnightblue" stroke="midnightblue" points="1190.53,-354.66 1200.24,-350.42 1190,-347.68 1190.53,-354.66"/>
</g>
<!-- Node33 -->
<g id="node33" class="node">
<title>Node33</title>
<g id="a_node33"><a xlink:href="mxpainter_8h.html" target="_top" xlink:title=" ">
<polygon fill="none" stroke="black" points="710.36,-336.5 710.36,-355.5 776.36,-355.5 776.36,-336.5 710.36,-336.5"/>
<text text-anchor="middle" x="743.36" y="-343.5" font-family="Helvetica,sans-Serif" font-size="10.00">mxpainter.h</text>
</a>
</g>
</g>
<!-- Node24&#45;&gt;Node33 -->
<g id="edge54" class="edge">
<title>Node24&#45;&gt;Node33</title>
<path fill="none" stroke="midnightblue" d="M565.79,-392.44C602.21,-383.12 660.59,-368.18 700.39,-358"/>
<polygon fill="midnightblue" stroke="midnightblue" points="701.26,-361.39 710.08,-355.52 699.52,-354.61 701.26,-361.39"/>
</g>
<!-- Node25&#45;&gt;Node11 -->
<g id="edge35" class="edge">
<title>Node25&#45;&gt;Node11</title>
<path fill="none" stroke="midnightblue" d="M195.09,-336.08C194.3,-309.95 191.99,-233.21 190.92,-197.58"/>
<polygon fill="midnightblue" stroke="midnightblue" points="194.41,-197.46 190.61,-187.57 187.42,-197.67 194.41,-197.46"/>
</g>
<!-- Node26&#45;&gt;Node16 -->
<g id="edge38" class="edge">
<title>Node26&#45;&gt;Node16</title>
<path fill="none" stroke="midnightblue" d="M929.66,-343.58C840.95,-340.07 639.81,-329.08 578.36,-300 555.33,-289.11 535.33,-267.09 523.31,-251.72"/>
<polygon fill="midnightblue" stroke="midnightblue" points="526,-249.46 517.2,-243.56 520.4,-253.66 526,-249.46"/>
</g>
<!-- Node27 -->
<g id="node27" class="node">
<title>Node27</title>
<g id="a_node27"><a xlink:href="mxbuffer_8h.html" target="_top" xlink:title=" ">
<polygon fill="none" stroke="black" points="941.86,-280.5 941.86,-299.5 1002.86,-299.5 1002.86,-280.5 941.86,-280.5"/>
<text text-anchor="middle" x="972.36" y="-287.5" font-family="Helvetica,sans-Serif" font-size="10.00">mxbuffer.h</text>
</a>
</g>
</g>
<!-- Node26&#45;&gt;Node27 -->
<g id="edge37" class="edge">
<title>Node26&#45;&gt;Node27</title>
<path fill="none" stroke="midnightblue" d="M972.36,-336.08C972.36,-329.01 972.36,-318.86 972.36,-309.99"/>
<polygon fill="midnightblue" stroke="midnightblue" points="975.86,-309.75 972.36,-299.75 968.86,-309.75 975.86,-309.75"/>
</g>
<!-- Node28 -->
<g id="node28" class="node">
<title>Node28</title>
<g id="a_node28"><a xlink:href="mxvectorprogram_8h.html" target="_top" xlink:title=" ">
<polygon fill="none" stroke="black" points="1020.86,-280.5 1020.86,-299.5 1119.86,-299.5 1119.86,-280.5 1020.86,-280.5"/>
<text text-anchor="middle" x="1070.36" y="-287.5" font-family="Helvetica,sans-Serif" font-size="10.00">mxvectorprogram.h</text>
</a>
</g>
</g>
<!-- Node26&#45;&gt;Node28 -->
<g id="edge39" class="edge">
<title>Node26&#45;&gt;Node28</title>
<path fill="none" stroke="midnightblue" d="M988.1,-336.32C1003.67,-327.74 1027.73,-314.49 1045.82,-304.52"/>
<polygon fill="midnightblue" stroke="midnightblue" points="1047.58,-307.55 1054.65,-299.65 1044.2,-301.42 1047.58,-307.55"/>
</g>
<!-- Node30 -->
<g id="node30" class="node">
<title>Node30</title>
<g id="a_node30"><a xlink:href="mxiconprogram_8h.html" target="_top" xlink:title=" ">
<polygon fill="none" stroke="black" points="1169.36,-224.5 1169.36,-243.5 1259.36,-243.5 1259.36,-224.5 1169.36,-224.5"/>
<text text-anchor="middle" x="1214.36" y="-231.5" font-family="Helvetica,sans-Serif" font-size="10.00">mxiconprogram.h</text>
</a>
</g>
</g>
<!-- Node26&#45;&gt;Node30 -->
<g id="edge44" class="edge">
<title>Node26&#45;&gt;Node30</title>
<path fill="none" stroke="midnightblue" d="M1014.93,-337.3C1047.45,-330.37 1092.75,-318.41 1129.36,-300 1155.36,-286.92 1181.38,-265.5 1197.65,-250.85"/>
<polygon fill="midnightblue" stroke="midnightblue" points="1200.23,-253.23 1205.21,-243.89 1195.49,-248.08 1200.23,-253.23"/>
</g>
<!-- Node28&#45;&gt;Node18 -->
<g id="edge40" class="edge">
<title>Node28&#45;&gt;Node18</title>
<path fill="none" stroke="midnightblue" d="M1020.71,-281.07C1017.89,-280.69 1015.09,-280.33 1012.36,-280 966.07,-274.42 625.87,-278.35 594.36,-244 580.02,-228.38 611.8,-170.06 629.51,-140.46"/>
<polygon fill="midnightblue" stroke="midnightblue" points="632.68,-141.99 634.89,-131.63 626.7,-138.35 632.68,-141.99"/>
</g>
<!-- Node28&#45;&gt;Node19 -->
<g id="edge41" class="edge">
<title>Node28&#45;&gt;Node19</title>
<path fill="none" stroke="midnightblue" d="M1086.14,-280.47C1098.56,-272.77 1114.96,-260.18 1122.36,-244 1129.47,-228.45 1122.13,-209.68 1114.41,-196.32"/>
<polygon fill="midnightblue" stroke="midnightblue" points="1117.24,-194.25 1108.93,-187.67 1111.33,-197.99 1117.24,-194.25"/>
</g>
<!-- Node29 -->
<g id="node29" class="node">
<title>Node29</title>
<g id="a_node29"><a xlink:href="mxvectordraw_8h.html" target="_top" xlink:title=" ">
<polygon fill="none" stroke="black" points="1027.86,-224.5 1027.86,-243.5 1112.86,-243.5 1112.86,-224.5 1027.86,-224.5"/>
<text text-anchor="middle" x="1070.36" y="-231.5" font-family="Helvetica,sans-Serif" font-size="10.00">mxvectordraw.h</text>
</a>
</g>
</g>
<!-- Node28&#45;&gt;Node29 -->
<g id="edge42" class="edge">
<title>Node28&#45;&gt;Node29</title>
<path fill="none" stroke="midnightblue" d="M1070.36,-280.08C1070.36,-273.01 1070.36,-262.86 1070.36,-253.99"/>
<polygon fill="midnightblue" stroke="midnightblue" points="1073.86,-253.75 1070.36,-243.75 1066.86,-253.75 1073.86,-253.75"/>
</g>
<!-- Node29&#45;&gt;Node5 -->
<g id="edge43" class="edge">
<title>Node29&#45;&gt;Node5</title>
<path fill="none" stroke="midnightblue" d="M1057.02,-224.32C1044.19,-215.98 1024.57,-203.21 1009.42,-193.35"/>
<polygon fill="midnightblue" stroke="midnightblue" points="1010.95,-190.17 1000.66,-187.65 1007.13,-196.04 1010.95,-190.17"/>
</g>
<!-- Node30&#45;&gt;Node5 -->
<g id="edge50" class="edge">
<title>Node30&#45;&gt;Node5</title>
<path fill="none" stroke="midnightblue" d="M1178.39,-224.44C1136.12,-214.39 1066.36,-197.79 1023.86,-187.68"/>
<polygon fill="midnightblue" stroke="midnightblue" points="1024.47,-184.23 1013.94,-185.32 1022.85,-191.04 1024.47,-184.23"/>
</g>
<!-- Node30&#45;&gt;Node6 -->
<g id="edge45" class="edge">
<title>Node30&#45;&gt;Node6</title>
<path fill="none" stroke="midnightblue" d="M1212.87,-224.29C1210.3,-211.11 1204.01,-185.73 1191.36,-168 1144.87,-102.86 1124.03,-87.26 1050.36,-56 997.22,-33.46 829.88,-19.3 751.12,-13.72"/>
<polygon fill="midnightblue" stroke="midnightblue" points="751.28,-10.22 741.06,-13.02 750.79,-17.2 751.28,-10.22"/>
</g>
<!-- Node30&#45;&gt;Node7 -->
<g id="edge47" class="edge">
<title>Node30&#45;&gt;Node7</title>
<path fill="none" stroke="midnightblue" d="M1206.77,-224.47C1194.5,-211.06 1169.07,-184.86 1143.36,-168 1122.66,-154.43 1097.2,-143.12 1077.02,-135.23"/>
<polygon fill="midnightblue" stroke="midnightblue" points="1078.17,-131.92 1067.58,-131.64 1075.68,-138.47 1078.17,-131.92"/>
</g>
<!-- Node30&#45;&gt;Node10 -->
<g id="edge48" class="edge">
<title>Node30&#45;&gt;Node10</title>
<path fill="none" stroke="midnightblue" d="M1209.74,-224.21C1202.46,-210.92 1187.27,-185.41 1169.36,-168 1136.65,-136.21 1126.29,-127.4 1083.36,-112 1017.94,-88.54 813.4,-74.46 723.95,-69.28"/>
<polygon fill="midnightblue" stroke="midnightblue" points="724.06,-65.78 713.88,-68.7 723.67,-72.77 724.06,-65.78"/>
</g>
<!-- Node30&#45;&gt;Node18 -->
<g id="edge49" class="edge">
<title>Node30&#45;&gt;Node18</title>
<path fill="none" stroke="midnightblue" d="M1168.98,-228.4C1154.13,-226.94 1137.54,-225.35 1122.36,-224 1072.28,-219.55 712.77,-216.5 671.36,-188 655.78,-177.28 647.78,-156.53 643.85,-141.35"/>
<polygon fill="midnightblue" stroke="midnightblue" points="647.25,-140.5 641.66,-131.5 640.42,-142.02 647.25,-140.5"/>
</g>
<!-- Node30&#45;&gt;Node19 -->
<g id="edge46" class="edge">
<title>Node30&#45;&gt;Node19</title>
<path fill="none" stroke="midnightblue" d="M1196.36,-224.32C1178.32,-215.62 1150.31,-202.12 1129.55,-192.11"/>
<polygon fill="midnightblue" stroke="midnightblue" points="1130.83,-188.84 1120.31,-187.65 1127.79,-195.15 1130.83,-188.84"/>
</g>
<!-- Node31&#45;&gt;Node7 -->
<g id="edge52" class="edge">
<title>Node31&#45;&gt;Node7</title>
<path fill="none" stroke="midnightblue" d="M1274.48,-336.44C1292,-329.62 1312.88,-318.14 1323.36,-300 1327.8,-292.3 1326.72,-288.23 1323.36,-280 1283.92,-183.57 1152.9,-144.33 1084.6,-130.12"/>
<polygon fill="midnightblue" stroke="midnightblue" points="1085.09,-126.65 1074.6,-128.12 1083.72,-133.51 1085.09,-126.65"/>
</g>
<!-- Node32 -->
<g id="node32" class="node">
<title>Node32</title>
<g id="a_node32"><a xlink:title=" ">
<polygon fill="none" stroke="#bfbfbf" points="1176.36,-280.5 1176.36,-299.5 1314.36,-299.5 1314.36,-280.5 1176.36,-280.5"/>
<text text-anchor="middle" x="1245.36" y="-287.5" font-family="Helvetica,sans-Serif" font-size="10.00">mxmouseeventabstraction.h</text>
</a>
</g>
</g>
<!-- Node31&#45;&gt;Node32 -->
<g id="edge53" class="edge">
<title>Node31&#45;&gt;Node32</title>
<path fill="none" stroke="midnightblue" d="M1245.36,-336.08C1245.36,-329.01 1245.36,-318.86 1245.36,-309.99"/>
<polygon fill="midnightblue" stroke="midnightblue" points="1248.86,-309.75 1245.36,-299.75 1241.86,-309.75 1248.86,-309.75"/>
</g>
<!-- Node33&#45;&gt;Node6 -->
<g id="edge55" class="edge">
<title>Node33&#45;&gt;Node6</title>
<path fill="none" stroke="midnightblue" d="M743.59,-336.29C744.41,-322.64 747.91,-296.1 762.36,-280 790.31,-248.86 813.89,-266.21 849.36,-244 881.11,-224.12 897.01,-222.18 912.36,-188 916,-179.89 916.27,-175.98 912.36,-168 876.25,-94.44 787.25,-45.54 739.99,-23.84"/>
<polygon fill="midnightblue" stroke="midnightblue" points="741.13,-20.51 730.57,-19.62 738.27,-26.9 741.13,-20.51"/>
</g>
<!-- Node33&#45;&gt;Node11 -->
<g id="edge57" class="edge">
<title>Node33&#45;&gt;Node11</title>
<path fill="none" stroke="midnightblue" d="M710.35,-345.74C645.06,-346.16 495.71,-341.97 379.36,-300 310.01,-274.98 239.93,-220.85 208.08,-194.3"/>
<polygon fill="midnightblue" stroke="midnightblue" points="210.04,-191.38 200.14,-187.59 205.52,-196.72 210.04,-191.38"/>
</g>
<!-- Node33&#45;&gt;Node29 -->
<g id="edge56" class="edge">
<title>Node33&#45;&gt;Node29</title>
<path fill="none" stroke="midnightblue" d="M774.86,-336.46C804.49,-328.14 849.93,-314.63 888.36,-300 908.43,-292.36 912.34,-287.79 932.36,-280 965.2,-267.23 1003.33,-254.98 1031.18,-246.5"/>
<polygon fill="midnightblue" stroke="midnightblue" points="1032.39,-249.79 1040.95,-243.55 1030.36,-243.09 1032.39,-249.79"/>
</g>
<!-- Node34 -->
<g id="node34" class="node">
<title>Node34</title>
<g id="a_node34"><a xlink:href="mxtextdraw_8h.html" target="_top" xlink:title=" ">
<polygon fill="none" stroke="black" points="935.36,-224.5 935.36,-243.5 1009.36,-243.5 1009.36,-224.5 935.36,-224.5"/>
<text text-anchor="middle" x="972.36" y="-231.5" font-family="Helvetica,sans-Serif" font-size="10.00">mxtextdraw.h</text>
</a>
</g>
</g>
<!-- Node33&#45;&gt;Node34 -->
<g id="edge58" class="edge">
<title>Node33&#45;&gt;Node34</title>
<path fill="none" stroke="midnightblue" d="M767.56,-336.42C790.71,-327.96 826.43,-314.27 856.36,-300 889.69,-284.11 926.66,-262.7 949.7,-248.87"/>
<polygon fill="midnightblue" stroke="midnightblue" points="951.64,-251.79 958.39,-243.62 948.02,-245.8 951.64,-251.79"/>
</g>
<!-- Node39 -->
<g id="node39" class="node">
<title>Node39</title>
<g id="a_node39"><a xlink:href="mxicondraw_8h.html" target="_top" xlink:title=" ">
<polygon fill="none" stroke="black" points="771.36,-280.5 771.36,-299.5 847.36,-299.5 847.36,-280.5 771.36,-280.5"/>
<text text-anchor="middle" x="809.36" y="-287.5" font-family="Helvetica,sans-Serif" font-size="10.00">mxicondraw.h</text>
</a>
</g>
</g>
<!-- Node33&#45;&gt;Node39 -->
<g id="edge73" class="edge">
<title>Node33&#45;&gt;Node39</title>
<path fill="none" stroke="midnightblue" d="M753.96,-336.32C763.81,-328.26 778.71,-316.08 790.57,-306.37"/>
<polygon fill="midnightblue" stroke="midnightblue" points="793.04,-308.88 798.56,-299.83 788.6,-303.46 793.04,-308.88"/>
</g>
<!-- Node40 -->
<g id="node40" class="node">
<title>Node40</title>
<g id="a_node40"><a xlink:href="mxstaticfont_8h.html" target="_top" xlink:title=" ">
<polygon fill="none" stroke="black" points="388.86,-280.5 388.86,-299.5 465.86,-299.5 465.86,-280.5 388.86,-280.5"/>
<text text-anchor="middle" x="427.36" y="-287.5" font-family="Helvetica,sans-Serif" font-size="10.00">mxstaticfont.h</text>
</a>
</g>
</g>
<!-- Node33&#45;&gt;Node40 -->
<g id="edge76" class="edge">
<title>Node33&#45;&gt;Node40</title>
<path fill="none" stroke="midnightblue" d="M710.14,-339.32C654.18,-329.76 540.91,-310.4 475.99,-299.31"/>
<polygon fill="midnightblue" stroke="midnightblue" points="476.45,-295.84 466,-297.6 475.27,-302.74 476.45,-295.84"/>
</g>
<!-- Node34&#45;&gt;Node5 -->
<g id="edge72" class="edge">
<title>Node34&#45;&gt;Node5</title>
<path fill="none" stroke="midnightblue" d="M974.83,-224.08C976.84,-216.85 979.74,-206.41 982.25,-197.4"/>
<polygon fill="midnightblue" stroke="midnightblue" points="985.62,-198.32 984.93,-187.75 978.88,-196.45 985.62,-198.32"/>
</g>
<!-- Node34&#45;&gt;Node7 -->
<g id="edge59" class="edge">
<title>Node34&#45;&gt;Node7</title>
<path fill="none" stroke="midnightblue" d="M986,-224.25C997.56,-216.17 1013.73,-203.15 1023.36,-188 1032.32,-173.89 1037.19,-155.4 1039.75,-141.75"/>
<polygon fill="midnightblue" stroke="midnightblue" points="1043.24,-142.06 1041.39,-131.63 1036.33,-140.94 1043.24,-142.06"/>
</g>
<!-- Node35 -->
<g id="node35" class="node">
<title>Node35</title>
<g id="a_node35"><a xlink:href="mxstring_8h.html" target="_top" xlink:title=" ">
<polygon fill="none" stroke="black" points="309.86,-168.5 309.86,-187.5 370.86,-187.5 370.86,-168.5 309.86,-168.5"/>
<text text-anchor="middle" x="340.36" y="-175.5" font-family="Helvetica,sans-Serif" font-size="10.00">mxstring.h</text>
</a>
</g>
</g>
<!-- Node34&#45;&gt;Node35 -->
<g id="edge60" class="edge">
<title>Node34&#45;&gt;Node35</title>
<path fill="none" stroke="midnightblue" d="M935.35,-230.27C816.71,-221.5 450.05,-194.32 381.2,-187.66"/>
<polygon fill="midnightblue" stroke="midnightblue" points="381.25,-184.14 370.93,-186.51 380.48,-191.1 381.25,-184.14"/>
</g>
<!-- Node36 -->
<g id="node36" class="node">
<title>Node36</title>
<g id="a_node36"><a xlink:href="mxgenericstring_8h.html" target="_top" xlink:title=" ">
<polygon fill="none" stroke="black" points="227.36,-112.5 227.36,-131.5 319.36,-131.5 319.36,-112.5 227.36,-112.5"/>
<text text-anchor="middle" x="273.36" y="-119.5" font-family="Helvetica,sans-Serif" font-size="10.00">mxgenericstring.h</text>
</a>
</g>
</g>
<!-- Node35&#45;&gt;Node36 -->
<g id="edge61" class="edge">
<title>Node35&#45;&gt;Node36</title>
<path fill="none" stroke="midnightblue" d="M329.59,-168.32C319.59,-160.26 304.47,-148.08 292.43,-138.37"/>
<polygon fill="midnightblue" stroke="midnightblue" points="294.3,-135.38 284.32,-131.83 289.91,-140.83 294.3,-135.38"/>
</g>
<!-- Node36&#45;&gt;Node6 -->
<g id="edge62" class="edge">
<title>Node36&#45;&gt;Node6</title>
<path fill="none" stroke="midnightblue" d="M317.57,-112.49C354.65,-104.76 408.71,-92.12 454.36,-76 474.23,-68.98 477.36,-62.68 497.36,-56 555.01,-36.75 624.32,-23.87 667.62,-17"/>
<polygon fill="midnightblue" stroke="midnightblue" points="668.17,-20.45 677.51,-15.46 667.09,-13.54 668.17,-20.45"/>
</g>
<!-- Node36&#45;&gt;Node12 -->
<g id="edge63" class="edge">
<title>Node36&#45;&gt;Node12</title>
<path fill="none" stroke="midnightblue" d="M245.47,-112.44C215.6,-103.28 168.04,-88.69 134.9,-78.52"/>
<polygon fill="midnightblue" stroke="midnightblue" points="135.7,-75.1 125.11,-75.52 133.65,-81.8 135.7,-75.1"/>
</g>
<!-- Node36&#45;&gt;Node13 -->
<g id="edge70" class="edge">
<title>Node36&#45;&gt;Node13</title>
<path fill="none" stroke="midnightblue" d="M279.05,-112.25C286.61,-99.43 298.05,-75.03 289.36,-56 283.58,-43.36 272.3,-32.91 261.73,-25.27"/>
<polygon fill="midnightblue" stroke="midnightblue" points="263.4,-22.18 253.14,-19.53 259.51,-28 263.4,-22.18"/>
</g>
<!-- Node36&#45;&gt;Node14 -->
<g id="edge71" class="edge">
<title>Node36&#45;&gt;Node14</title>
<path fill="none" stroke="midnightblue" d="M242.52,-112.39C223.23,-105.51 199.3,-93.97 184.36,-76 173.44,-62.87 168.8,-43.73 166.82,-29.61"/>
<polygon fill="midnightblue" stroke="midnightblue" points="170.29,-29.15 165.74,-19.58 163.33,-29.9 170.29,-29.15"/>
</g>
<!-- Node37 -->
<g id="node37" class="node">
<title>Node37</title>
<g id="a_node37"><a xlink:href="mxbytearrayref_8h.html" target="_top" xlink:title=" ">
<polygon fill="none" stroke="black" points="193.86,-56.5 193.86,-75.5 280.86,-75.5 280.86,-56.5 193.86,-56.5"/>
<text text-anchor="middle" x="237.36" y="-63.5" font-family="Helvetica,sans-Serif" font-size="10.00">mxbytearrayref.h</text>
</a>
</g>
</g>
<!-- Node36&#45;&gt;Node37 -->
<g id="edge64" class="edge">
<title>Node36&#45;&gt;Node37</title>
<path fill="none" stroke="midnightblue" d="M267.41,-112.08C262.38,-104.53 255.02,-93.49 248.84,-84.23"/>
<polygon fill="midnightblue" stroke="midnightblue" points="251.65,-82.13 243.19,-75.75 245.83,-86.01 251.65,-82.13"/>
</g>
<!-- Node38 -->
<g id="node38" class="node">
<title>Node38</title>
<g id="a_node38"><a xlink:href="mxgenericsubstring_8h.html" target="_top" xlink:title=" ">
<polygon fill="none" stroke="black" points="337.36,-56.5 337.36,-75.5 445.36,-75.5 445.36,-56.5 337.36,-56.5"/>
<text text-anchor="middle" x="391.36" y="-63.5" font-family="Helvetica,sans-Serif" font-size="10.00">mxgenericsubstring.h</text>
</a>
</g>
</g>
<!-- Node36&#45;&gt;Node38 -->
<g id="edge68" class="edge">
<title>Node36&#45;&gt;Node38</title>
<path fill="none" stroke="midnightblue" d="M292.05,-112.44C311.3,-103.64 341.51,-89.81 363.56,-79.72"/>
<polygon fill="midnightblue" stroke="midnightblue" points="365.11,-82.86 372.75,-75.52 362.2,-76.5 365.11,-82.86"/>
</g>
<!-- Node37&#45;&gt;Node6 -->
<g id="edge65" class="edge">
<title>Node37&#45;&gt;Node6</title>
<path fill="none" stroke="midnightblue" d="M280.91,-60.02C371.47,-49.66 578.99,-25.92 667.79,-15.76"/>
<polygon fill="midnightblue" stroke="midnightblue" points="668.23,-19.23 677.77,-14.61 667.44,-12.27 668.23,-19.23"/>
</g>
<!-- Node37&#45;&gt;Node13 -->
<g id="edge66" class="edge">
<title>Node37&#45;&gt;Node13</title>
<path fill="none" stroke="midnightblue" d="M237.36,-56.08C237.36,-49.01 237.36,-38.86 237.36,-29.99"/>
<polygon fill="midnightblue" stroke="midnightblue" points="240.86,-29.75 237.36,-19.75 233.86,-29.75 240.86,-29.75"/>
</g>
<!-- Node37&#45;&gt;Node14 -->
<g id="edge67" class="edge">
<title>Node37&#45;&gt;Node14</title>
<path fill="none" stroke="midnightblue" d="M225.79,-56.32C214.94,-48.18 198.48,-35.84 185.47,-26.09"/>
<polygon fill="midnightblue" stroke="midnightblue" points="187.23,-23.03 177.13,-19.83 183.03,-28.63 187.23,-23.03"/>
</g>
<!-- Node38&#45;&gt;Node6 -->
<g id="edge69" class="edge">
<title>Node38&#45;&gt;Node6</title>
<path fill="none" stroke="midnightblue" d="M441.74,-56.44C504.19,-45.84 609.46,-27.96 667.62,-18.09"/>
<polygon fill="midnightblue" stroke="midnightblue" points="668.29,-21.52 677.56,-16.4 667.12,-14.62 668.29,-21.52"/>
</g>
<!-- Node39&#45;&gt;Node5 -->
<g id="edge75" class="edge">
<title>Node39&#45;&gt;Node5</title>
<path fill="none" stroke="midnightblue" d="M823.57,-280.42C838.5,-271.41 862.62,-256.78 883.36,-244 911.62,-226.58 944.03,-206.26 965.06,-193.05"/>
<polygon fill="midnightblue" stroke="midnightblue" points="966.99,-195.96 973.59,-187.68 963.27,-190.04 966.99,-195.96"/>
</g>
<!-- Node39&#45;&gt;Node23 -->
<g id="edge74" class="edge">
<title>Node39&#45;&gt;Node23</title>
<path fill="none" stroke="midnightblue" d="M807.37,-280.08C805.78,-272.93 803.5,-262.64 801.51,-253.69"/>
<polygon fill="midnightblue" stroke="midnightblue" points="804.89,-252.75 799.3,-243.75 798.05,-254.27 804.89,-252.75"/>
</g>
<!-- Node41 -->
<g id="node41" class="node">
<title>Node41</title>
<g id="a_node41"><a xlink:href="mxfont_8h.html" target="_top" xlink:title=" ">
<polygon fill="none" stroke="black" points="375.86,-224.5 375.86,-243.5 428.86,-243.5 428.86,-224.5 375.86,-224.5"/>
<text text-anchor="middle" x="402.36" y="-231.5" font-family="Helvetica,sans-Serif" font-size="10.00">mxfont.h</text>
</a>
</g>
</g>
<!-- Node40&#45;&gt;Node41 -->
<g id="edge77" class="edge">
<title>Node40&#45;&gt;Node41</title>
<path fill="none" stroke="midnightblue" d="M423.23,-280.08C419.84,-272.77 414.94,-262.18 410.74,-253.1"/>
<polygon fill="midnightblue" stroke="midnightblue" points="413.79,-251.36 406.41,-243.75 407.43,-254.3 413.79,-251.36"/>
</g>
<!-- Node41&#45;&gt;Node7 -->
<g id="edge78" class="edge">
<title>Node41&#45;&gt;Node7</title>
<path fill="none" stroke="midnightblue" d="M429.12,-229.14C440.58,-227.51 454.12,-225.62 466.36,-224 594.67,-206.99 633.09,-230.48 755.36,-188 771.56,-182.37 772.31,-174.04 788.36,-168 826.39,-153.68 938.17,-137.05 1000.01,-128.58"/>
<polygon fill="midnightblue" stroke="midnightblue" points="1000.77,-132 1010.21,-127.19 999.83,-125.07 1000.77,-132"/>
</g>
<!-- Node41&#45;&gt;Node10 -->
<g id="edge80" class="edge">
<title>Node41&#45;&gt;Node10</title>
<path fill="none" stroke="midnightblue" d="M375.61,-227.55C338.57,-218.73 278.55,-199.13 300.36,-168 327.22,-129.65 356.09,-149.89 399.36,-132 418.83,-123.95 422.29,-118.44 442.36,-112 509.21,-90.53 590.06,-77.97 638.51,-71.8"/>
<polygon fill="midnightblue" stroke="midnightblue" points="639.14,-75.24 648.64,-70.54 638.28,-68.3 639.14,-75.24"/>
</g>
<!-- Node41&#45;&gt;Node35 -->
<g id="edge79" class="edge">
<title>Node41&#45;&gt;Node35</title>
<path fill="none" stroke="midnightblue" d="M392.39,-224.32C383.23,-216.34 369.42,-204.31 358.33,-194.65"/>
<polygon fill="midnightblue" stroke="midnightblue" points="360.34,-191.76 350.5,-187.83 355.74,-197.04 360.34,-191.76"/>
</g>
</g>
</svg>
