<?xml version="1.0" encoding="UTF-8" standalone="no"?>
<!DOCTYPE svg PUBLIC "-//W3C//DTD SVG 1.1//EN"
 "http://www.w3.org/Graphics/SVG/1.1/DTD/svg11.dtd">
<!-- Generated by graphviz version 2.44.0 ()
 -->
<!-- Title: src/renderer/direct12/iconprogram/test_randomtexture/testshaderprogram.h Pages: 1 -->
<svg width="432pt" height="206pt"
 viewBox="0.00 0.00 432.00 206.00" xmlns="http://www.w3.org/2000/svg" xmlns:xlink="http://www.w3.org/1999/xlink">
<g id="graph0" class="graph" transform="scale(1 1) rotate(0) translate(4 202)">
<title>src/renderer/direct12/iconprogram/test_randomtexture/testshaderprogram.h</title>
<!-- Node1 -->
<g id="node1" class="node">
<title>Node1</title>
<g id="a_node1"><a xlink:title=" ">
<polygon fill="#bfbfbf" stroke="black" points="176,-156.5 176,-197.5 335,-197.5 335,-156.5 176,-156.5"/>
<text text-anchor="start" x="184" y="-185.5" font-family="Helvetica,sans-Serif" font-size="10.00">src/renderer/direct12</text>
<text text-anchor="start" x="184" y="-174.5" font-family="Helvetica,sans-Serif" font-size="10.00">/iconprogram/test_randomtexture</text>
<text text-anchor="middle" x="255.5" y="-163.5" font-family="Helvetica,sans-Serif" font-size="10.00">/testshaderprogram.h</text>
</a>
</g>
</g>
<!-- Node2 -->
<g id="node2" class="node">
<title>Node2</title>
<g id="a_node2"><a xlink:href="randomtextureapp_8h.html" target="_top" xlink:title=" ">
<polygon fill="none" stroke="black" points="88,-78.5 88,-119.5 247,-119.5 247,-78.5 88,-78.5"/>
<text text-anchor="start" x="96" y="-107.5" font-family="Helvetica,sans-Serif" font-size="10.00">src/renderer/direct12</text>
<text text-anchor="start" x="96" y="-96.5" font-family="Helvetica,sans-Serif" font-size="10.00">/iconprogram/test_randomtexture</text>
<text text-anchor="middle" x="167.5" y="-85.5" font-family="Helvetica,sans-Serif" font-size="10.00">/randomtextureapp.h</text>
</a>
</g>
</g>
<!-- Node1&#45;&gt;Node2 -->
<g id="edge1" class="edge">
<title>Node1&#45;&gt;Node2</title>
<path fill="none" stroke="midnightblue" d="M225.14,-149.78C213.63,-139.84 200.75,-128.72 190.09,-119.51"/>
<polygon fill="midnightblue" stroke="midnightblue" points="222.98,-152.54 232.84,-156.43 227.56,-147.24 222.98,-152.54"/>
</g>
<!-- Node5 -->
<g id="node5" class="node">
<title>Node5</title>
<g id="a_node5"><a xlink:href="testshaderprogram_8cpp.html" target="_top" xlink:title=" ">
<polygon fill="none" stroke="black" points="265,-78.5 265,-119.5 424,-119.5 424,-78.5 265,-78.5"/>
<text text-anchor="start" x="273" y="-107.5" font-family="Helvetica,sans-Serif" font-size="10.00">src/renderer/direct12</text>
<text text-anchor="start" x="273" y="-96.5" font-family="Helvetica,sans-Serif" font-size="10.00">/iconprogram/test_randomtexture</text>
<text text-anchor="middle" x="344.5" y="-85.5" font-family="Helvetica,sans-Serif" font-size="10.00">/testshaderprogram.cpp</text>
</a>
</g>
</g>
<!-- Node1&#45;&gt;Node5 -->
<g id="edge4" class="edge">
<title>Node1&#45;&gt;Node5</title>
<path fill="none" stroke="midnightblue" d="M286.21,-149.78C297.84,-139.84 310.87,-128.72 321.66,-119.51"/>
<polygon fill="midnightblue" stroke="midnightblue" points="283.75,-147.27 278.42,-156.43 288.3,-152.6 283.75,-147.27"/>
</g>
<!-- Node3 -->
<g id="node3" class="node">
<title>Node3</title>
<g id="a_node3"><a xlink:href="direct12_2iconprogram_2test__randomtexture_2main_8cpp.html" target="_top" xlink:title=" ">
<polygon fill="none" stroke="black" points="0,-0.5 0,-41.5 159,-41.5 159,-0.5 0,-0.5"/>
<text text-anchor="start" x="8" y="-29.5" font-family="Helvetica,sans-Serif" font-size="10.00">src/renderer/direct12</text>
<text text-anchor="start" x="8" y="-18.5" font-family="Helvetica,sans-Serif" font-size="10.00">/iconprogram/test_randomtexture</text>
<text text-anchor="middle" x="79.5" y="-7.5" font-family="Helvetica,sans-Serif" font-size="10.00">/main.cpp</text>
</a>
</g>
</g>
<!-- Node2&#45;&gt;Node3 -->
<g id="edge2" class="edge">
<title>Node2&#45;&gt;Node3</title>
<path fill="none" stroke="midnightblue" d="M137.14,-71.78C125.63,-61.84 112.75,-50.72 102.09,-41.51"/>
<polygon fill="midnightblue" stroke="midnightblue" points="134.98,-74.54 144.84,-78.43 139.56,-69.24 134.98,-74.54"/>
</g>
<!-- Node4 -->
<g id="node4" class="node">
<title>Node4</title>
<g id="a_node4"><a xlink:href="randomtextureapp_8cpp.html" target="_top" xlink:title=" ">
<polygon fill="none" stroke="black" points="177,-0.5 177,-41.5 336,-41.5 336,-0.5 177,-0.5"/>
<text text-anchor="start" x="185" y="-29.5" font-family="Helvetica,sans-Serif" font-size="10.00">src/renderer/direct12</text>
<text text-anchor="start" x="185" y="-18.5" font-family="Helvetica,sans-Serif" font-size="10.00">/iconprogram/test_randomtexture</text>
<text text-anchor="middle" x="256.5" y="-7.5" font-family="Helvetica,sans-Serif" font-size="10.00">/randomtextureapp.cpp</text>
</a>
</g>
</g>
<!-- Node2&#45;&gt;Node4 -->
<g id="edge3" class="edge">
<title>Node2&#45;&gt;Node4</title>
<path fill="none" stroke="midnightblue" d="M198.21,-71.78C209.84,-61.84 222.87,-50.72 233.66,-41.51"/>
<polygon fill="midnightblue" stroke="midnightblue" points="195.75,-69.27 190.42,-78.43 200.3,-74.6 195.75,-69.27"/>
</g>
</g>
</svg>
