<?xml version="1.0" encoding="UTF-8" standalone="no"?>
<!DOCTYPE svg PUBLIC "-//W3C//DTD SVG 1.1//EN"
 "http://www.w3.org/Graphics/SVG/1.1/DTD/svg11.dtd">
<!-- Generated by graphviz version 2.44.0 ()
 -->
<!-- Title: src/renderer/direct12/iconprogram/test_randomtexture/testshaderprogram.cpp Pages: 1 -->
<svg width="809pt" height="330pt"
 viewBox="0.00 0.00 809.00 330.00" xmlns="http://www.w3.org/2000/svg" xmlns:xlink="http://www.w3.org/1999/xlink">
<g id="graph0" class="graph" transform="scale(1 1) rotate(0) translate(4 326)">
<title>src/renderer/direct12/iconprogram/test_randomtexture/testshaderprogram.cpp</title>
<!-- Node1 -->
<g id="node1" class="node">
<title>Node1</title>
<g id="a_node1"><a xlink:title=" ">
<polygon fill="#bfbfbf" stroke="black" points="351,-280.5 351,-321.5 510,-321.5 510,-280.5 351,-280.5"/>
<text text-anchor="start" x="359" y="-309.5" font-family="Helvetica,sans-Serif" font-size="10.00">src/renderer/direct12</text>
<text text-anchor="start" x="359" y="-298.5" font-family="Helvetica,sans-Serif" font-size="10.00">/iconprogram/test_randomtexture</text>
<text text-anchor="middle" x="430.5" y="-287.5" font-family="Helvetica,sans-Serif" font-size="10.00">/testshaderprogram.cpp</text>
</a>
</g>
</g>
<!-- Node2 -->
<g id="node2" class="node">
<title>Node2</title>
<g id="a_node2"><a xlink:href="testshaderprogram_8h.html" target="_top" xlink:title=" ">
<polygon fill="none" stroke="black" points="0,-224.5 0,-243.5 105,-243.5 105,-224.5 0,-224.5"/>
<text text-anchor="middle" x="52.5" y="-231.5" font-family="Helvetica,sans-Serif" font-size="10.00">testshaderprogram.h</text>
</a>
</g>
</g>
<!-- Node1&#45;&gt;Node2 -->
<g id="edge1" class="edge">
<title>Node1&#45;&gt;Node2</title>
<path fill="none" stroke="midnightblue" d="M350.8,-286.29C279.45,-274.03 176.45,-256.31 112.05,-245.24"/>
<polygon fill="midnightblue" stroke="midnightblue" points="112.5,-241.77 102.05,-243.52 111.32,-248.67 112.5,-241.77"/>
</g>
<!-- Node5 -->
<g id="node5" class="node">
<title>Node5</title>
<g id="a_node5"><a xlink:title=" ">
<polygon fill="none" stroke="#bfbfbf" points="208,-0.5 208,-19.5 271,-19.5 271,-0.5 208,-0.5"/>
<text text-anchor="middle" x="239.5" y="-7.5" font-family="Helvetica,sans-Serif" font-size="10.00">mxdebug.h</text>
</a>
</g>
</g>
<!-- Node1&#45;&gt;Node5 -->
<g id="edge4" class="edge">
<title>Node1&#45;&gt;Node5</title>
<path fill="none" stroke="midnightblue" d="M350.74,-291.07C283.22,-282.12 193.01,-266.43 164.5,-244 139.35,-224.21 133.5,-211.01 133.5,-179 133.5,-179 133.5,-179 133.5,-121 133.5,-75.81 180.45,-42.05 211.86,-24.52"/>
<polygon fill="midnightblue" stroke="midnightblue" points="213.87,-27.41 221.04,-19.61 210.57,-21.24 213.87,-27.41"/>
</g>
<!-- Node6 -->
<g id="node6" class="node">
<title>Node6</title>
<g id="a_node6"><a xlink:title=" ">
<polygon fill="none" stroke="#bfbfbf" points="351.5,-224.5 351.5,-243.5 423.5,-243.5 423.5,-224.5 351.5,-224.5"/>
<text text-anchor="middle" x="387.5" y="-231.5" font-family="Helvetica,sans-Serif" font-size="10.00">mxrenderer.h</text>
</a>
</g>
</g>
<!-- Node1&#45;&gt;Node6 -->
<g id="edge5" class="edge">
<title>Node1&#45;&gt;Node6</title>
<path fill="none" stroke="midnightblue" d="M417.6,-280.5C411.64,-271.49 404.63,-260.89 398.87,-252.19"/>
<polygon fill="midnightblue" stroke="midnightblue" points="401.66,-250.06 393.22,-243.65 395.82,-253.92 401.66,-250.06"/>
</g>
<!-- Node7 -->
<g id="node7" class="node">
<title>Node7</title>
<g id="a_node7"><a xlink:href="mxtexture_8h.html" target="_top" xlink:title=" ">
<polygon fill="none" stroke="black" points="173.5,-224.5 173.5,-243.5 239.5,-243.5 239.5,-224.5 173.5,-224.5"/>
<text text-anchor="middle" x="206.5" y="-231.5" font-family="Helvetica,sans-Serif" font-size="10.00">mxtexture.h</text>
</a>
</g>
</g>
<!-- Node1&#45;&gt;Node7 -->
<g id="edge6" class="edge">
<title>Node1&#45;&gt;Node7</title>
<path fill="none" stroke="midnightblue" d="M363.29,-280.5C325.04,-269.4 278.43,-255.87 246.02,-246.47"/>
<polygon fill="midnightblue" stroke="midnightblue" points="246.6,-242.99 236.02,-243.57 244.65,-249.72 246.6,-242.99"/>
</g>
<!-- Node9 -->
<g id="node9" class="node">
<title>Node9</title>
<g id="a_node9"><a xlink:href="mxmatrix_8h.html" target="_top" xlink:title=" ">
<polygon fill="none" stroke="black" points="442,-224.5 442,-243.5 505,-243.5 505,-224.5 442,-224.5"/>
<text text-anchor="middle" x="473.5" y="-231.5" font-family="Helvetica,sans-Serif" font-size="10.00">mxmatrix.h</text>
</a>
</g>
</g>
<!-- Node1&#45;&gt;Node9 -->
<g id="edge10" class="edge">
<title>Node1&#45;&gt;Node9</title>
<path fill="none" stroke="midnightblue" d="M443.4,-280.5C449.36,-271.49 456.37,-260.89 462.13,-252.19"/>
<polygon fill="midnightblue" stroke="midnightblue" points="465.18,-253.92 467.78,-243.65 459.34,-250.06 465.18,-253.92"/>
</g>
<!-- Node10 -->
<g id="node10" class="node">
<title>Node10</title>
<g id="a_node10"><a xlink:href="mxicondraw_8h.html" target="_top" xlink:title=" ">
<polygon fill="none" stroke="black" points="257.5,-224.5 257.5,-243.5 333.5,-243.5 333.5,-224.5 257.5,-224.5"/>
<text text-anchor="middle" x="295.5" y="-231.5" font-family="Helvetica,sans-Serif" font-size="10.00">mxicondraw.h</text>
</a>
</g>
</g>
<!-- Node1&#45;&gt;Node10 -->
<g id="edge11" class="edge">
<title>Node1&#45;&gt;Node10</title>
<path fill="none" stroke="midnightblue" d="M390,-280.5C368.2,-270.01 341.92,-257.35 322.61,-248.05"/>
<polygon fill="midnightblue" stroke="midnightblue" points="324,-244.84 313.47,-243.65 320.96,-251.14 324,-244.84"/>
</g>
<!-- Node15 -->
<g id="node15" class="node">
<title>Node15</title>
<g id="a_node15"><a xlink:href="mxbuffer_8h.html" target="_top" xlink:title=" ">
<polygon fill="none" stroke="black" points="523,-224.5 523,-243.5 584,-243.5 584,-224.5 523,-224.5"/>
<text text-anchor="middle" x="553.5" y="-231.5" font-family="Helvetica,sans-Serif" font-size="10.00">mxbuffer.h</text>
</a>
</g>
</g>
<!-- Node1&#45;&gt;Node15 -->
<g id="edge18" class="edge">
<title>Node1&#45;&gt;Node15</title>
<path fill="none" stroke="midnightblue" d="M467.4,-280.5C486.99,-270.15 510.55,-257.69 528.08,-248.43"/>
<polygon fill="midnightblue" stroke="midnightblue" points="529.92,-251.42 537.13,-243.65 526.65,-245.23 529.92,-251.42"/>
</g>
<!-- Node16 -->
<g id="node16" class="node">
<title>Node16</title>
<g id="a_node16"><a xlink:title=" ">
<polygon fill="none" stroke="#bfbfbf" points="602,-224.5 602,-243.5 679,-243.5 679,-224.5 602,-224.5"/>
<text text-anchor="middle" x="640.5" y="-231.5" font-family="Helvetica,sans-Serif" font-size="10.00">d3dcompiler.h</text>
</a>
</g>
</g>
<!-- Node1&#45;&gt;Node16 -->
<g id="edge19" class="edge">
<title>Node1&#45;&gt;Node16</title>
<path fill="none" stroke="midnightblue" d="M493.51,-280.5C529.22,-269.44 572.69,-255.99 603.06,-246.59"/>
<polygon fill="midnightblue" stroke="midnightblue" points="604.3,-249.87 612.82,-243.57 602.23,-243.18 604.3,-249.87"/>
</g>
<!-- Node17 -->
<g id="node17" class="node">
<title>Node17</title>
<g id="a_node17"><a xlink:title=" ">
<polygon fill="none" stroke="#bfbfbf" points="697.5,-224.5 697.5,-243.5 741.5,-243.5 741.5,-224.5 697.5,-224.5"/>
<text text-anchor="middle" x="719.5" y="-231.5" font-family="Helvetica,sans-Serif" font-size="10.00">vector</text>
</a>
</g>
</g>
<!-- Node1&#45;&gt;Node17 -->
<g id="edge20" class="edge">
<title>Node1&#45;&gt;Node17</title>
<path fill="none" stroke="midnightblue" d="M510.16,-284.19C558.82,-274.18 622.5,-260.47 687.22,-244.2"/>
<polygon fill="midnightblue" stroke="midnightblue" points="688.36,-247.52 697.2,-241.67 686.65,-240.74 688.36,-247.52"/>
</g>
<!-- Node18 -->
<g id="node18" class="node">
<title>Node18</title>
<g id="a_node18"><a xlink:title=" ">
<polygon fill="none" stroke="#bfbfbf" points="760,-224.5 760,-243.5 801,-243.5 801,-224.5 760,-224.5"/>
<text text-anchor="middle" x="780.5" y="-231.5" font-family="Helvetica,sans-Serif" font-size="10.00">string</text>
</a>
</g>
</g>
<!-- Node1&#45;&gt;Node18 -->
<g id="edge21" class="edge">
<title>Node1&#45;&gt;Node18</title>
<path fill="none" stroke="midnightblue" d="M510.26,-288.72C572.98,-279.24 662.65,-264.31 750.11,-243.85"/>
<polygon fill="midnightblue" stroke="midnightblue" points="751,-247.23 759.93,-241.52 749.39,-240.42 751,-247.23"/>
</g>
<!-- Node3 -->
<g id="node3" class="node">
<title>Node3</title>
<g id="a_node3"><a xlink:title=" ">
<polygon fill="none" stroke="#bfbfbf" points="8.5,-168.5 8.5,-187.5 96.5,-187.5 96.5,-168.5 8.5,-168.5"/>
<text text-anchor="middle" x="52.5" y="-175.5" font-family="Helvetica,sans-Serif" font-size="10.00">mxgpuprogram.h</text>
</a>
</g>
</g>
<!-- Node2&#45;&gt;Node3 -->
<g id="edge2" class="edge">
<title>Node2&#45;&gt;Node3</title>
<path fill="none" stroke="midnightblue" d="M52.5,-224.08C52.5,-217.01 52.5,-206.86 52.5,-197.99"/>
<polygon fill="midnightblue" stroke="midnightblue" points="56,-197.75 52.5,-187.75 49,-197.75 56,-197.75"/>
</g>
<!-- Node4 -->
<g id="node4" class="node">
<title>Node4</title>
<g id="a_node4"><a xlink:title=" ">
<polygon fill="none" stroke="#bfbfbf" points="161.5,-168.5 161.5,-187.5 211.5,-187.5 211.5,-168.5 161.5,-168.5"/>
<text text-anchor="middle" x="186.5" y="-175.5" font-family="Helvetica,sans-Serif" font-size="10.00">d3d12.h</text>
</a>
</g>
</g>
<!-- Node2&#45;&gt;Node4 -->
<g id="edge3" class="edge">
<title>Node2&#45;&gt;Node4</title>
<path fill="none" stroke="midnightblue" d="M73.73,-224.44C95.88,-215.52 130.82,-201.44 155.94,-191.32"/>
<polygon fill="midnightblue" stroke="midnightblue" points="157.4,-194.5 165.37,-187.52 154.78,-188.01 157.4,-194.5"/>
</g>
<!-- Node7&#45;&gt;Node4 -->
<g id="edge9" class="edge">
<title>Node7&#45;&gt;Node4</title>
<path fill="none" stroke="midnightblue" d="M203.2,-224.08C200.52,-216.85 196.65,-206.41 193.31,-197.4"/>
<polygon fill="midnightblue" stroke="midnightblue" points="196.5,-195.91 189.74,-187.75 189.93,-198.34 196.5,-195.91"/>
</g>
<!-- Node8 -->
<g id="node8" class="node">
<title>Node8</title>
<g id="a_node8"><a xlink:href="mxvector_8h.html" target="_top" xlink:title=" ">
<polygon fill="none" stroke="black" points="207.5,-56.5 207.5,-75.5 271.5,-75.5 271.5,-56.5 207.5,-56.5"/>
<text text-anchor="middle" x="239.5" y="-63.5" font-family="Helvetica,sans-Serif" font-size="10.00">mxvector.h</text>
</a>
</g>
</g>
<!-- Node7&#45;&gt;Node8 -->
<g id="edge7" class="edge">
<title>Node7&#45;&gt;Node8</title>
<path fill="none" stroke="midnightblue" d="M209.56,-224.48C212.69,-215.5 217.5,-200.91 220.5,-188 228.83,-152.23 234.57,-109.64 237.42,-85.72"/>
<polygon fill="midnightblue" stroke="midnightblue" points="240.92,-85.93 238.59,-75.59 233.97,-85.12 240.92,-85.93"/>
</g>
<!-- Node8&#45;&gt;Node5 -->
<g id="edge8" class="edge">
<title>Node8&#45;&gt;Node5</title>
<path fill="none" stroke="midnightblue" d="M239.5,-56.08C239.5,-49.01 239.5,-38.86 239.5,-29.99"/>
<polygon fill="midnightblue" stroke="midnightblue" points="243,-29.75 239.5,-19.75 236,-29.75 243,-29.75"/>
</g>
<!-- Node11 -->
<g id="node11" class="node">
<title>Node11</title>
<g id="a_node11"><a xlink:href="mxquaddraw_8h.html" target="_top" xlink:title=" ">
<polygon fill="none" stroke="black" points="268,-168.5 268,-187.5 347,-187.5 347,-168.5 268,-168.5"/>
<text text-anchor="middle" x="307.5" y="-175.5" font-family="Helvetica,sans-Serif" font-size="10.00">mxquaddraw.h</text>
</a>
</g>
</g>
<!-- Node10&#45;&gt;Node11 -->
<g id="edge12" class="edge">
<title>Node10&#45;&gt;Node11</title>
<path fill="none" stroke="midnightblue" d="M297.48,-224.08C299.07,-216.93 301.36,-206.64 303.35,-197.69"/>
<polygon fill="midnightblue" stroke="midnightblue" points="306.8,-198.27 305.56,-187.75 299.97,-196.75 306.8,-198.27"/>
</g>
<!-- Node14 -->
<g id="node14" class="node">
<title>Node14</title>
<g id="a_node14"><a xlink:href="mxthemeicons_8h.html" target="_top" xlink:title=" ">
<polygon fill="none" stroke="black" points="365,-168.5 365,-187.5 452,-187.5 452,-168.5 365,-168.5"/>
<text text-anchor="middle" x="408.5" y="-175.5" font-family="Helvetica,sans-Serif" font-size="10.00">mxthemeicons.h</text>
</a>
</g>
</g>
<!-- Node10&#45;&gt;Node14 -->
<g id="edge17" class="edge">
<title>Node10&#45;&gt;Node14</title>
<path fill="none" stroke="midnightblue" d="M313.41,-224.44C331.75,-215.68 360.51,-201.94 381.59,-191.86"/>
<polygon fill="midnightblue" stroke="midnightblue" points="383.17,-194.99 390.68,-187.52 380.15,-188.67 383.17,-194.99"/>
</g>
<!-- Node12 -->
<g id="node12" class="node">
<title>Node12</title>
<g id="a_node12"><a xlink:href="mxrect_8h.html" target="_top" xlink:title=" ">
<polygon fill="none" stroke="black" points="277,-112.5 277,-131.5 330,-131.5 330,-112.5 277,-112.5"/>
<text text-anchor="middle" x="303.5" y="-119.5" font-family="Helvetica,sans-Serif" font-size="10.00">mxrect.h</text>
</a>
</g>
</g>
<!-- Node11&#45;&gt;Node12 -->
<g id="edge13" class="edge">
<title>Node11&#45;&gt;Node12</title>
<path fill="none" stroke="midnightblue" d="M306.84,-168.08C306.32,-161.01 305.56,-150.86 304.91,-141.99"/>
<polygon fill="midnightblue" stroke="midnightblue" points="308.38,-141.47 304.15,-131.75 301.4,-141.98 308.38,-141.47"/>
</g>
<!-- Node12&#45;&gt;Node5 -->
<g id="edge14" class="edge">
<title>Node12&#45;&gt;Node5</title>
<path fill="none" stroke="midnightblue" d="M301.55,-112.1C298.44,-99.11 291.57,-74.49 280.5,-56 274.15,-45.39 265.04,-35.08 257.02,-27.01"/>
<polygon fill="midnightblue" stroke="midnightblue" points="259.13,-24.18 249.5,-19.76 254.27,-29.22 259.13,-24.18"/>
</g>
<!-- Node12&#45;&gt;Node8 -->
<g id="edge15" class="edge">
<title>Node12&#45;&gt;Node8</title>
<path fill="none" stroke="midnightblue" d="M293.22,-112.32C283.66,-104.26 269.22,-92.08 257.72,-82.37"/>
<polygon fill="midnightblue" stroke="midnightblue" points="259.87,-79.61 249.97,-75.83 255.36,-84.96 259.87,-79.61"/>
</g>
<!-- Node13 -->
<g id="node13" class="node">
<title>Node13</title>
<g id="a_node13"><a xlink:title=" ">
<polygon fill="none" stroke="#bfbfbf" points="327.5,-56.5 327.5,-75.5 383.5,-75.5 383.5,-56.5 327.5,-56.5"/>
<text text-anchor="middle" x="355.5" y="-63.5" font-family="Helvetica,sans-Serif" font-size="10.00">algorithm</text>
</a>
</g>
</g>
<!-- Node12&#45;&gt;Node13 -->
<g id="edge16" class="edge">
<title>Node12&#45;&gt;Node13</title>
<path fill="none" stroke="midnightblue" d="M312.09,-112.08C319.66,-104.22 330.88,-92.57 340.01,-83.08"/>
<polygon fill="midnightblue" stroke="midnightblue" points="342.66,-85.38 347.07,-75.75 337.62,-80.53 342.66,-85.38"/>
</g>
</g>
</svg>
