<?xml version="1.0" encoding="UTF-8" standalone="no"?>
<!DOCTYPE svg PUBLIC "-//W3C//DTD SVG 1.1//EN"
 "http://www.w3.org/Graphics/SVG/1.1/DTD/svg11.dtd">
<!-- Generated by graphviz version 2.44.0 ()
 -->
<!-- Title: src/widgets/mxwidgetlist.h Pages: 1 -->
<svg width="1065pt" height="252pt"
 viewBox="0.00 0.00 1064.50 252.00" xmlns="http://www.w3.org/2000/svg" xmlns:xlink="http://www.w3.org/1999/xlink">
<g id="graph0" class="graph" transform="scale(1 1) rotate(0) translate(4 248)">
<title>src/widgets/mxwidgetlist.h</title>
<!-- Node1 -->
<g id="node1" class="node">
<title>Node1</title>
<g id="a_node1"><a xlink:title=" ">
<polygon fill="#bfbfbf" stroke="black" points="577.5,-224.5 577.5,-243.5 708.5,-243.5 708.5,-224.5 577.5,-224.5"/>
<text text-anchor="middle" x="643" y="-231.5" font-family="Helvetica,sans-Serif" font-size="10.00">src/widgets/mxwidgetlist.h</text>
</a>
</g>
</g>
<!-- Node2 -->
<g id="node2" class="node">
<title>Node2</title>
<g id="a_node2"><a xlink:href="widgets_2mxwidget_8h.html" target="_top" xlink:title=" ">
<polygon fill="none" stroke="black" points="583.5,-168.5 583.5,-187.5 702.5,-187.5 702.5,-168.5 583.5,-168.5"/>
<text text-anchor="middle" x="643" y="-175.5" font-family="Helvetica,sans-Serif" font-size="10.00">src/widgets/mxwidget.h</text>
</a>
</g>
</g>
<!-- Node1&#45;&gt;Node2 -->
<g id="edge1" class="edge">
<title>Node1&#45;&gt;Node2</title>
<path fill="none" stroke="midnightblue" d="M643,-213.8C643,-204.91 643,-194.78 643,-187.75"/>
<polygon fill="midnightblue" stroke="midnightblue" points="639.5,-214.08 643,-224.08 646.5,-214.08 639.5,-214.08"/>
</g>
<!-- Node3 -->
<g id="node3" class="node">
<title>Node3</title>
<g id="a_node3"><a xlink:href="mxbutton_8h.html" target="_top" xlink:title=" ">
<polygon fill="none" stroke="black" points="154.5,-112.5 154.5,-131.5 271.5,-131.5 271.5,-112.5 154.5,-112.5"/>
<text text-anchor="middle" x="213" y="-119.5" font-family="Helvetica,sans-Serif" font-size="10.00">src/widgets/mxbutton.h</text>
</a>
</g>
</g>
<!-- Node2&#45;&gt;Node3 -->
<g id="edge2" class="edge">
<title>Node2&#45;&gt;Node3</title>
<path fill="none" stroke="midnightblue" d="M573.27,-168.24C489.4,-157.71 350.15,-140.22 271.59,-130.36"/>
<polygon fill="midnightblue" stroke="midnightblue" points="572.85,-171.72 583.21,-169.49 573.72,-164.77 572.85,-171.72"/>
</g>
<!-- Node7 -->
<g id="node7" class="node">
<title>Node7</title>
<g id="a_node7"><a xlink:href="mxlabel_8h.html" target="_top" xlink:title=" ">
<polygon fill="none" stroke="black" points="308,-112.5 308,-131.5 418,-131.5 418,-112.5 308,-112.5"/>
<text text-anchor="middle" x="363" y="-119.5" font-family="Helvetica,sans-Serif" font-size="10.00">src/widgets/mxlabel.h</text>
</a>
</g>
</g>
<!-- Node2&#45;&gt;Node7 -->
<g id="edge6" class="edge">
<title>Node2&#45;&gt;Node7</title>
<path fill="none" stroke="midnightblue" d="M588.75,-166.54C535.83,-156.33 456.33,-141 407.16,-131.52"/>
<polygon fill="midnightblue" stroke="midnightblue" points="588.15,-169.99 598.63,-168.44 589.48,-163.11 588.15,-169.99"/>
</g>
<!-- Node9 -->
<g id="node9" class="node">
<title>Node9</title>
<g id="a_node9"><a xlink:href="mxlayout_8h.html" target="_top" xlink:title=" ">
<polygon fill="none" stroke="black" points="517,-112.5 517,-131.5 633,-131.5 633,-112.5 517,-112.5"/>
<text text-anchor="middle" x="575" y="-119.5" font-family="Helvetica,sans-Serif" font-size="10.00">src/widgets/mxlayout.h</text>
</a>
</g>
</g>
<!-- Node2&#45;&gt;Node9 -->
<g id="edge8" class="edge">
<title>Node2&#45;&gt;Node9</title>
<path fill="none" stroke="midnightblue" d="M624.24,-162.1C612,-152.38 596.44,-140.03 586.12,-131.83"/>
<polygon fill="midnightblue" stroke="midnightblue" points="622.07,-164.85 632.07,-168.32 626.42,-159.36 622.07,-164.85"/>
</g>
<!-- Node13 -->
<g id="node13" class="node">
<title>Node13</title>
<g id="a_node13"><a xlink:href="mxlineedit_8h.html" target="_top" xlink:title=" ">
<polygon fill="none" stroke="black" points="651.5,-112.5 651.5,-131.5 772.5,-131.5 772.5,-112.5 651.5,-112.5"/>
<text text-anchor="middle" x="712" y="-119.5" font-family="Helvetica,sans-Serif" font-size="10.00">src/widgets/mxlineedit.h</text>
</a>
</g>
</g>
<!-- Node2&#45;&gt;Node13 -->
<g id="edge12" class="edge">
<title>Node2&#45;&gt;Node13</title>
<path fill="none" stroke="midnightblue" d="M662.04,-162.1C674.46,-152.38 690.24,-140.03 700.71,-131.83"/>
<polygon fill="midnightblue" stroke="midnightblue" points="659.8,-159.4 654.09,-168.32 664.12,-164.92 659.8,-159.4"/>
</g>
<!-- Node15 -->
<g id="node15" class="node">
<title>Node15</title>
<g id="a_node15"><a xlink:href="mxspacer_8h.html" target="_top" xlink:title=" ">
<polygon fill="none" stroke="black" points="790.5,-112.5 790.5,-131.5 909.5,-131.5 909.5,-112.5 790.5,-112.5"/>
<text text-anchor="middle" x="850" y="-119.5" font-family="Helvetica,sans-Serif" font-size="10.00">src/widgets/mxspacer.h</text>
</a>
</g>
</g>
<!-- Node2&#45;&gt;Node15 -->
<g id="edge14" class="edge">
<title>Node2&#45;&gt;Node15</title>
<path fill="none" stroke="midnightblue" d="M685.82,-165.83C724.91,-155.63 781.83,-140.78 817.35,-131.52"/>
<polygon fill="midnightblue" stroke="midnightblue" points="684.59,-162.53 675.8,-168.44 686.36,-169.31 684.59,-162.53"/>
</g>
<!-- Node17 -->
<g id="node17" class="node">
<title>Node17</title>
<g id="a_node17"><a xlink:href="widgets_2mxwidget_8cpp.html" target="_top" xlink:title=" ">
<polygon fill="none" stroke="black" points="927.5,-112.5 927.5,-131.5 1056.5,-131.5 1056.5,-112.5 927.5,-112.5"/>
<text text-anchor="middle" x="992" y="-119.5" font-family="Helvetica,sans-Serif" font-size="10.00">src/widgets/mxwidget.cpp</text>
</a>
</g>
</g>
<!-- Node2&#45;&gt;Node17 -->
<g id="edge16" class="edge">
<title>Node2&#45;&gt;Node17</title>
<path fill="none" stroke="midnightblue" d="M708.57,-166.85C774.52,-156.65 875.04,-141.1 936.96,-131.52"/>
<polygon fill="midnightblue" stroke="midnightblue" points="707.65,-163.46 698.3,-168.44 708.72,-170.37 707.65,-163.46"/>
</g>
<!-- Node4 -->
<g id="node4" class="node">
<title>Node4</title>
<g id="a_node4"><a xlink:href="mxbutton_8cpp.html" target="_top" xlink:title=" ">
<polygon fill="none" stroke="black" points="0,-56.5 0,-75.5 128,-75.5 128,-56.5 0,-56.5"/>
<text text-anchor="middle" x="64" y="-63.5" font-family="Helvetica,sans-Serif" font-size="10.00">src/widgets/mxbutton.cpp</text>
</a>
</g>
</g>
<!-- Node3&#45;&gt;Node4 -->
<g id="edge3" class="edge">
<title>Node3&#45;&gt;Node4</title>
<path fill="none" stroke="midnightblue" d="M179.63,-108.91C151.62,-98.75 112.3,-84.51 87.5,-75.52"/>
<polygon fill="midnightblue" stroke="midnightblue" points="178.8,-112.33 189.39,-112.44 181.18,-105.75 178.8,-112.33"/>
</g>
<!-- Node5 -->
<g id="node5" class="node">
<title>Node5</title>
<g id="a_node5"><a xlink:href="mxtextbutton_8h.html" target="_top" xlink:title=" ">
<polygon fill="none" stroke="black" points="146.5,-56.5 146.5,-75.5 279.5,-75.5 279.5,-56.5 146.5,-56.5"/>
<text text-anchor="middle" x="213" y="-63.5" font-family="Helvetica,sans-Serif" font-size="10.00">src/widgets/mxtextbutton.h</text>
</a>
</g>
</g>
<!-- Node3&#45;&gt;Node5 -->
<g id="edge4" class="edge">
<title>Node3&#45;&gt;Node5</title>
<path fill="none" stroke="midnightblue" d="M213,-101.8C213,-92.91 213,-82.78 213,-75.75"/>
<polygon fill="midnightblue" stroke="midnightblue" points="209.5,-102.08 213,-112.08 216.5,-102.08 209.5,-102.08"/>
</g>
<!-- Node6 -->
<g id="node6" class="node">
<title>Node6</title>
<g id="a_node6"><a xlink:href="mxtextbutton_8cpp.html" target="_top" xlink:title=" ">
<polygon fill="none" stroke="black" points="141.5,-0.5 141.5,-19.5 284.5,-19.5 284.5,-0.5 141.5,-0.5"/>
<text text-anchor="middle" x="213" y="-7.5" font-family="Helvetica,sans-Serif" font-size="10.00">src/widgets/mxtextbutton.cpp</text>
</a>
</g>
</g>
<!-- Node5&#45;&gt;Node6 -->
<g id="edge5" class="edge">
<title>Node5&#45;&gt;Node6</title>
<path fill="none" stroke="midnightblue" d="M213,-45.8C213,-36.91 213,-26.78 213,-19.75"/>
<polygon fill="midnightblue" stroke="midnightblue" points="209.5,-46.08 213,-56.08 216.5,-46.08 209.5,-46.08"/>
</g>
<!-- Node8 -->
<g id="node8" class="node">
<title>Node8</title>
<g id="a_node8"><a xlink:href="mxlabel_8cpp.html" target="_top" xlink:title=" ">
<polygon fill="none" stroke="black" points="297.5,-56.5 297.5,-75.5 418.5,-75.5 418.5,-56.5 297.5,-56.5"/>
<text text-anchor="middle" x="358" y="-63.5" font-family="Helvetica,sans-Serif" font-size="10.00">src/widgets/mxlabel.cpp</text>
</a>
</g>
</g>
<!-- Node7&#45;&gt;Node8 -->
<g id="edge7" class="edge">
<title>Node7&#45;&gt;Node8</title>
<path fill="none" stroke="midnightblue" d="M361.25,-102.1C360.42,-93.14 359.47,-82.86 358.81,-75.75"/>
<polygon fill="midnightblue" stroke="midnightblue" points="357.77,-102.45 362.17,-112.08 364.74,-101.8 357.77,-102.45"/>
</g>
<!-- Node10 -->
<g id="node10" class="node">
<title>Node10</title>
<g id="a_node10"><a xlink:href="mxlayout_8cpp.html" target="_top" xlink:title=" ">
<polygon fill="none" stroke="black" points="437,-56.5 437,-75.5 563,-75.5 563,-56.5 437,-56.5"/>
<text text-anchor="middle" x="500" y="-63.5" font-family="Helvetica,sans-Serif" font-size="10.00">src/widgets/mxlayout.cpp</text>
</a>
</g>
</g>
<!-- Node9&#45;&gt;Node10 -->
<g id="edge9" class="edge">
<title>Node9&#45;&gt;Node10</title>
<path fill="none" stroke="midnightblue" d="M554.69,-106.38C541.14,-96.62 523.76,-84.11 512.27,-75.83"/>
<polygon fill="midnightblue" stroke="midnightblue" points="552.79,-109.32 562.95,-112.32 556.88,-103.64 552.79,-109.32"/>
</g>
<!-- Node11 -->
<g id="node11" class="node">
<title>Node11</title>
<g id="a_node11"><a xlink:href="mxlinearlayout_8h.html" target="_top" xlink:title=" ">
<polygon fill="none" stroke="black" points="581.5,-56.5 581.5,-75.5 720.5,-75.5 720.5,-56.5 581.5,-56.5"/>
<text text-anchor="middle" x="651" y="-63.5" font-family="Helvetica,sans-Serif" font-size="10.00">src/widgets/mxlinearlayout.h</text>
</a>
</g>
</g>
<!-- Node9&#45;&gt;Node11 -->
<g id="edge10" class="edge">
<title>Node9&#45;&gt;Node11</title>
<path fill="none" stroke="midnightblue" d="M595.58,-106.38C609.31,-96.62 626.93,-84.11 638.57,-75.83"/>
<polygon fill="midnightblue" stroke="midnightblue" points="593.34,-103.68 587.21,-112.32 597.39,-109.38 593.34,-103.68"/>
</g>
<!-- Node12 -->
<g id="node12" class="node">
<title>Node12</title>
<g id="a_node12"><a xlink:href="mxlinearlayout_8cpp.html" target="_top" xlink:title=" ">
<polygon fill="none" stroke="black" points="576.5,-0.5 576.5,-19.5 725.5,-19.5 725.5,-0.5 576.5,-0.5"/>
<text text-anchor="middle" x="651" y="-7.5" font-family="Helvetica,sans-Serif" font-size="10.00">src/widgets/mxlinearlayout.cpp</text>
</a>
</g>
</g>
<!-- Node11&#45;&gt;Node12 -->
<g id="edge11" class="edge">
<title>Node11&#45;&gt;Node12</title>
<path fill="none" stroke="midnightblue" d="M651,-45.8C651,-36.91 651,-26.78 651,-19.75"/>
<polygon fill="midnightblue" stroke="midnightblue" points="647.5,-46.08 651,-56.08 654.5,-46.08 647.5,-46.08"/>
</g>
<!-- Node14 -->
<g id="node14" class="node">
<title>Node14</title>
<g id="a_node14"><a xlink:href="mxlineedit_8cpp.html" target="_top" xlink:title=" ">
<polygon fill="none" stroke="black" points="738.5,-56.5 738.5,-75.5 869.5,-75.5 869.5,-56.5 738.5,-56.5"/>
<text text-anchor="middle" x="804" y="-63.5" font-family="Helvetica,sans-Serif" font-size="10.00">src/widgets/mxlineedit.cpp</text>
</a>
</g>
</g>
<!-- Node13&#45;&gt;Node14 -->
<g id="edge13" class="edge">
<title>Node13&#45;&gt;Node14</title>
<path fill="none" stroke="midnightblue" d="M735.55,-107.18C752.48,-97.24 774.78,-84.15 789.26,-75.65"/>
<polygon fill="midnightblue" stroke="midnightblue" points="733.63,-104.24 726.78,-112.32 737.18,-110.28 733.63,-104.24"/>
</g>
<!-- Node16 -->
<g id="node16" class="node">
<title>Node16</title>
<g id="a_node16"><a xlink:href="mxspacer_8cpp.html" target="_top" xlink:title=" ">
<polygon fill="none" stroke="black" points="888,-56.5 888,-75.5 1018,-75.5 1018,-56.5 888,-56.5"/>
<text text-anchor="middle" x="953" y="-63.5" font-family="Helvetica,sans-Serif" font-size="10.00">src/widgets/mxspacer.cpp</text>
</a>
</g>
</g>
<!-- Node15&#45;&gt;Node16 -->
<g id="edge15" class="edge">
<title>Node15&#45;&gt;Node16</title>
<path fill="none" stroke="midnightblue" d="M875.58,-107.59C894.62,-97.61 920.06,-84.27 936.49,-75.65"/>
<polygon fill="midnightblue" stroke="midnightblue" points="873.78,-104.58 866.55,-112.32 877.03,-110.78 873.78,-104.58"/>
</g>
</g>
</svg>
